<?xml version="1.0" encoding="utf-8"?>
<svg xmlns="http://www.w3.org/2000/svg" xmlns:xlink="http://www.w3.org/1999/xlink" width="600" height="400" viewBox="0 0 2400 1600">
<defs>
  <clipPath id="clip980">
    <rect x="0" y="0" width="2400" height="1600"/>
  </clipPath>
</defs>
<path clip-path="url(#clip980)" d="M0 1600 L2400 1600 L2400 8.88178e-14 L0 8.88178e-14  Z" fill="#ffffff" fill-rule="evenodd" fill-opacity="1"/>
<defs>
  <clipPath id="clip981">
    <rect x="480" y="0" width="1681" height="1600"/>
  </clipPath>
</defs>
<path clip-path="url(#clip980)" d="M205.121 1423.18 L2352.76 1423.18 L2352.76 47.2441 L205.121 47.2441  Z" fill="#ffffff" fill-rule="evenodd" fill-opacity="1"/>
<defs>
  <clipPath id="clip982">
    <rect x="205" y="47" width="2149" height="1377"/>
  </clipPath>
</defs>
<polyline clip-path="url(#clip982)" style="stroke:#000000; stroke-linecap:round; stroke-linejoin:round; stroke-width:2; stroke-opacity:0.1; fill:none" points="452.645,1423.18 452.645,47.2441 "/>
<polyline clip-path="url(#clip982)" style="stroke:#000000; stroke-linecap:round; stroke-linejoin:round; stroke-width:2; stroke-opacity:0.1; fill:none" points="775.936,1423.18 775.936,47.2441 "/>
<polyline clip-path="url(#clip982)" style="stroke:#000000; stroke-linecap:round; stroke-linejoin:round; stroke-width:2; stroke-opacity:0.1; fill:none" points="1099.23,1423.18 1099.23,47.2441 "/>
<polyline clip-path="url(#clip982)" style="stroke:#000000; stroke-linecap:round; stroke-linejoin:round; stroke-width:2; stroke-opacity:0.1; fill:none" points="1422.52,1423.18 1422.52,47.2441 "/>
<polyline clip-path="url(#clip982)" style="stroke:#000000; stroke-linecap:round; stroke-linejoin:round; stroke-width:2; stroke-opacity:0.1; fill:none" points="1745.81,1423.18 1745.81,47.2441 "/>
<polyline clip-path="url(#clip982)" style="stroke:#000000; stroke-linecap:round; stroke-linejoin:round; stroke-width:2; stroke-opacity:0.1; fill:none" points="2069.1,1423.18 2069.1,47.2441 "/>
<polyline clip-path="url(#clip982)" style="stroke:#000000; stroke-linecap:round; stroke-linejoin:round; stroke-width:2; stroke-opacity:0.1; fill:none" points="452.645,1423.18 452.645,47.2441 "/>
<polyline clip-path="url(#clip982)" style="stroke:#000000; stroke-linecap:round; stroke-linejoin:round; stroke-width:2; stroke-opacity:0.1; fill:none" points="775.936,1423.18 775.936,47.2441 "/>
<polyline clip-path="url(#clip982)" style="stroke:#000000; stroke-linecap:round; stroke-linejoin:round; stroke-width:2; stroke-opacity:0.1; fill:none" points="1099.23,1423.18 1099.23,47.2441 "/>
<polyline clip-path="url(#clip982)" style="stroke:#000000; stroke-linecap:round; stroke-linejoin:round; stroke-width:2; stroke-opacity:0.1; fill:none" points="1422.52,1423.18 1422.52,47.2441 "/>
<polyline clip-path="url(#clip982)" style="stroke:#000000; stroke-linecap:round; stroke-linejoin:round; stroke-width:2; stroke-opacity:0.1; fill:none" points="1745.81,1423.18 1745.81,47.2441 "/>
<polyline clip-path="url(#clip982)" style="stroke:#000000; stroke-linecap:round; stroke-linejoin:round; stroke-width:2; stroke-opacity:0.1; fill:none" points="2069.1,1423.18 2069.1,47.2441 "/>
<polyline clip-path="url(#clip982)" style="stroke:#000000; stroke-linecap:round; stroke-linejoin:round; stroke-width:2; stroke-opacity:0.1; fill:none" points="205.121,1384.24 2352.76,1384.24 "/>
<polyline clip-path="url(#clip982)" style="stroke:#000000; stroke-linecap:round; stroke-linejoin:round; stroke-width:2; stroke-opacity:0.1; fill:none" points="205.121,1133.32 2352.76,1133.32 "/>
<polyline clip-path="url(#clip982)" style="stroke:#000000; stroke-linecap:round; stroke-linejoin:round; stroke-width:2; stroke-opacity:0.1; fill:none" points="205.121,882.406 2352.76,882.406 "/>
<polyline clip-path="url(#clip982)" style="stroke:#000000; stroke-linecap:round; stroke-linejoin:round; stroke-width:2; stroke-opacity:0.1; fill:none" points="205.121,631.488 2352.76,631.488 "/>
<polyline clip-path="url(#clip982)" style="stroke:#000000; stroke-linecap:round; stroke-linejoin:round; stroke-width:2; stroke-opacity:0.1; fill:none" points="205.121,380.571 2352.76,380.571 "/>
<polyline clip-path="url(#clip982)" style="stroke:#000000; stroke-linecap:round; stroke-linejoin:round; stroke-width:2; stroke-opacity:0.1; fill:none" points="205.121,129.653 2352.76,129.653 "/>
<polyline clip-path="url(#clip982)" style="stroke:#000000; stroke-linecap:round; stroke-linejoin:round; stroke-width:2; stroke-opacity:0.1; fill:none" points="205.121,1384.24 2352.76,1384.24 "/>
<polyline clip-path="url(#clip982)" style="stroke:#000000; stroke-linecap:round; stroke-linejoin:round; stroke-width:2; stroke-opacity:0.1; fill:none" points="205.121,1133.32 2352.76,1133.32 "/>
<polyline clip-path="url(#clip982)" style="stroke:#000000; stroke-linecap:round; stroke-linejoin:round; stroke-width:2; stroke-opacity:0.1; fill:none" points="205.121,882.406 2352.76,882.406 "/>
<polyline clip-path="url(#clip982)" style="stroke:#000000; stroke-linecap:round; stroke-linejoin:round; stroke-width:2; stroke-opacity:0.1; fill:none" points="205.121,631.488 2352.76,631.488 "/>
<polyline clip-path="url(#clip982)" style="stroke:#000000; stroke-linecap:round; stroke-linejoin:round; stroke-width:2; stroke-opacity:0.1; fill:none" points="205.121,380.571 2352.76,380.571 "/>
<polyline clip-path="url(#clip982)" style="stroke:#000000; stroke-linecap:round; stroke-linejoin:round; stroke-width:2; stroke-opacity:0.1; fill:none" points="205.121,129.653 2352.76,129.653 "/>
<polyline clip-path="url(#clip980)" style="stroke:#000000; stroke-linecap:round; stroke-linejoin:round; stroke-width:4; stroke-opacity:1; fill:none" points="205.121,1423.18 2352.76,1423.18 "/>
<polyline clip-path="url(#clip980)" style="stroke:#000000; stroke-linecap:round; stroke-linejoin:round; stroke-width:4; stroke-opacity:1; fill:none" points="205.121,47.2441 2352.76,47.2441 "/>
<polyline clip-path="url(#clip980)" style="stroke:#000000; stroke-linecap:round; stroke-linejoin:round; stroke-width:4; stroke-opacity:1; fill:none" points="452.645,1423.18 452.645,1404.28 "/>
<polyline clip-path="url(#clip980)" style="stroke:#000000; stroke-linecap:round; stroke-linejoin:round; stroke-width:4; stroke-opacity:1; fill:none" points="775.936,1423.18 775.936,1404.28 "/>
<polyline clip-path="url(#clip980)" style="stroke:#000000; stroke-linecap:round; stroke-linejoin:round; stroke-width:4; stroke-opacity:1; fill:none" points="1099.23,1423.18 1099.23,1404.28 "/>
<polyline clip-path="url(#clip980)" style="stroke:#000000; stroke-linecap:round; stroke-linejoin:round; stroke-width:4; stroke-opacity:1; fill:none" points="1422.52,1423.18 1422.52,1404.28 "/>
<polyline clip-path="url(#clip980)" style="stroke:#000000; stroke-linecap:round; stroke-linejoin:round; stroke-width:4; stroke-opacity:1; fill:none" points="1745.81,1423.18 1745.81,1404.28 "/>
<polyline clip-path="url(#clip980)" style="stroke:#000000; stroke-linecap:round; stroke-linejoin:round; stroke-width:4; stroke-opacity:1; fill:none" points="2069.1,1423.18 2069.1,1404.28 "/>
<polyline clip-path="url(#clip980)" style="stroke:#000000; stroke-linecap:round; stroke-linejoin:round; stroke-width:4; stroke-opacity:1; fill:none" points="452.645,47.2441 452.645,66.1417 "/>
<polyline clip-path="url(#clip980)" style="stroke:#000000; stroke-linecap:round; stroke-linejoin:round; stroke-width:4; stroke-opacity:1; fill:none" points="775.936,47.2441 775.936,66.1417 "/>
<polyline clip-path="url(#clip980)" style="stroke:#000000; stroke-linecap:round; stroke-linejoin:round; stroke-width:4; stroke-opacity:1; fill:none" points="1099.23,47.2441 1099.23,66.1417 "/>
<polyline clip-path="url(#clip980)" style="stroke:#000000; stroke-linecap:round; stroke-linejoin:round; stroke-width:4; stroke-opacity:1; fill:none" points="1422.52,47.2441 1422.52,66.1417 "/>
<polyline clip-path="url(#clip980)" style="stroke:#000000; stroke-linecap:round; stroke-linejoin:round; stroke-width:4; stroke-opacity:1; fill:none" points="1745.81,47.2441 1745.81,66.1417 "/>
<polyline clip-path="url(#clip980)" style="stroke:#000000; stroke-linecap:round; stroke-linejoin:round; stroke-width:4; stroke-opacity:1; fill:none" points="2069.1,47.2441 2069.1,66.1417 "/>
<path clip-path="url(#clip980)" d="M400.4 1466.44 Q397.252 1466.44 395.4 1468.59 Q393.571 1470.74 393.571 1474.49 Q393.571 1478.22 395.4 1480.39 Q397.252 1482.55 400.4 1482.55 Q403.548 1482.55 405.377 1480.39 Q407.228 1478.22 407.228 1474.49 Q407.228 1470.74 405.377 1468.59 Q403.548 1466.44 400.4 1466.44 M409.682 1451.78 L409.682 1456.04 Q407.923 1455.21 406.117 1454.77 Q404.335 1454.33 402.576 1454.33 Q397.946 1454.33 395.492 1457.45 Q393.062 1460.58 392.715 1466.9 Q394.08 1464.89 396.141 1463.82 Q398.201 1462.73 400.678 1462.73 Q405.886 1462.73 408.895 1465.9 Q411.927 1469.05 411.927 1474.49 Q411.927 1479.82 408.779 1483.03 Q405.631 1486.25 400.4 1486.25 Q394.404 1486.25 391.233 1481.67 Q388.062 1477.06 388.062 1468.33 Q388.062 1460.14 391.951 1455.28 Q395.84 1450.39 402.39 1450.39 Q404.15 1450.39 405.932 1450.74 Q407.738 1451.09 409.682 1451.78 Z" fill="#000000" fill-rule="nonzero" fill-opacity="1" /><path clip-path="url(#clip980)" d="M420.029 1451.02 L438.386 1451.02 L438.386 1454.96 L424.312 1454.96 L424.312 1463.43 Q425.33 1463.08 426.349 1462.92 Q427.367 1462.73 428.386 1462.73 Q434.173 1462.73 437.552 1465.9 Q440.932 1469.08 440.932 1474.49 Q440.932 1480.07 437.46 1483.17 Q433.988 1486.25 427.668 1486.25 Q425.492 1486.25 423.224 1485.88 Q420.978 1485.51 418.571 1484.77 L418.571 1480.07 Q420.654 1481.2 422.876 1481.76 Q425.099 1482.32 427.576 1482.32 Q431.58 1482.32 433.918 1480.21 Q436.256 1478.1 436.256 1474.49 Q436.256 1470.88 433.918 1468.77 Q431.58 1466.67 427.576 1466.67 Q425.701 1466.67 423.826 1467.08 Q421.974 1467.5 420.029 1468.38 L420.029 1451.02 Z" fill="#000000" fill-rule="nonzero" fill-opacity="1" /><path clip-path="url(#clip980)" d="M450.145 1479.7 L455.029 1479.7 L455.029 1485.58 L450.145 1485.58 L450.145 1479.7 Z" fill="#000000" fill-rule="nonzero" fill-opacity="1" /><path clip-path="url(#clip980)" d="M465.261 1451.02 L483.617 1451.02 L483.617 1454.96 L469.543 1454.96 L469.543 1463.43 Q470.561 1463.08 471.58 1462.92 Q472.598 1462.73 473.617 1462.73 Q479.404 1462.73 482.784 1465.9 Q486.163 1469.08 486.163 1474.49 Q486.163 1480.07 482.691 1483.17 Q479.219 1486.25 472.899 1486.25 Q470.723 1486.25 468.455 1485.88 Q466.21 1485.51 463.802 1484.77 L463.802 1480.07 Q465.886 1481.2 468.108 1481.76 Q470.33 1482.32 472.807 1482.32 Q476.811 1482.32 479.149 1480.21 Q481.487 1478.1 481.487 1474.49 Q481.487 1470.88 479.149 1468.77 Q476.811 1466.67 472.807 1466.67 Q470.932 1466.67 469.057 1467.08 Q467.205 1467.5 465.261 1468.38 L465.261 1451.02 Z" fill="#000000" fill-rule="nonzero" fill-opacity="1" /><path clip-path="url(#clip980)" d="M505.376 1469.17 Q502.043 1469.17 500.121 1470.95 Q498.223 1472.73 498.223 1475.86 Q498.223 1478.98 500.121 1480.77 Q502.043 1482.55 505.376 1482.55 Q508.709 1482.55 510.631 1480.77 Q512.552 1478.96 512.552 1475.86 Q512.552 1472.73 510.631 1470.95 Q508.733 1469.17 505.376 1469.17 M500.7 1467.18 Q497.691 1466.44 496.001 1464.38 Q494.334 1462.32 494.334 1459.35 Q494.334 1455.21 497.274 1452.8 Q500.237 1450.39 505.376 1450.39 Q510.538 1450.39 513.478 1452.8 Q516.418 1455.21 516.418 1459.35 Q516.418 1462.32 514.728 1464.38 Q513.061 1466.44 510.075 1467.18 Q513.455 1467.96 515.33 1470.26 Q517.228 1472.55 517.228 1475.86 Q517.228 1480.88 514.149 1483.57 Q511.094 1486.25 505.376 1486.25 Q499.658 1486.25 496.58 1483.57 Q493.524 1480.88 493.524 1475.86 Q493.524 1472.55 495.422 1470.26 Q497.321 1467.96 500.7 1467.18 M498.987 1459.79 Q498.987 1462.48 500.654 1463.98 Q502.344 1465.49 505.376 1465.49 Q508.385 1465.49 510.075 1463.98 Q511.788 1462.48 511.788 1459.79 Q511.788 1457.11 510.075 1455.6 Q508.385 1454.1 505.376 1454.1 Q502.344 1454.1 500.654 1455.6 Q498.987 1457.11 498.987 1459.79 Z" fill="#000000" fill-rule="nonzero" fill-opacity="1" /><path clip-path="url(#clip980)" d="M723.738 1466.44 Q720.59 1466.44 718.738 1468.59 Q716.909 1470.74 716.909 1474.49 Q716.909 1478.22 718.738 1480.39 Q720.59 1482.55 723.738 1482.55 Q726.886 1482.55 728.714 1480.39 Q730.566 1478.22 730.566 1474.49 Q730.566 1470.74 728.714 1468.59 Q726.886 1466.44 723.738 1466.44 M733.02 1451.78 L733.02 1456.04 Q731.261 1455.21 729.455 1454.77 Q727.673 1454.33 725.914 1454.33 Q721.284 1454.33 718.83 1457.45 Q716.4 1460.58 716.053 1466.9 Q717.418 1464.89 719.478 1463.82 Q721.539 1462.73 724.015 1462.73 Q729.224 1462.73 732.233 1465.9 Q735.265 1469.05 735.265 1474.49 Q735.265 1479.82 732.117 1483.03 Q728.969 1486.25 723.738 1486.25 Q717.742 1486.25 714.571 1481.67 Q711.4 1477.06 711.4 1468.33 Q711.4 1460.14 715.289 1455.28 Q719.178 1450.39 725.728 1450.39 Q727.488 1450.39 729.27 1450.74 Q731.076 1451.09 733.02 1451.78 Z" fill="#000000" fill-rule="nonzero" fill-opacity="1" /><path clip-path="url(#clip980)" d="M743.367 1451.02 L761.724 1451.02 L761.724 1454.96 L747.65 1454.96 L747.65 1463.43 Q748.668 1463.08 749.687 1462.92 Q750.705 1462.73 751.724 1462.73 Q757.511 1462.73 760.89 1465.9 Q764.27 1469.08 764.27 1474.49 Q764.27 1480.07 760.798 1483.17 Q757.325 1486.25 751.006 1486.25 Q748.83 1486.25 746.562 1485.88 Q744.316 1485.51 741.909 1484.77 L741.909 1480.07 Q743.992 1481.2 746.214 1481.76 Q748.437 1482.32 750.913 1482.32 Q754.918 1482.32 757.256 1480.21 Q759.594 1478.1 759.594 1474.49 Q759.594 1470.88 757.256 1468.77 Q754.918 1466.67 750.913 1466.67 Q749.038 1466.67 747.163 1467.08 Q745.312 1467.5 743.367 1468.38 L743.367 1451.02 Z" fill="#000000" fill-rule="nonzero" fill-opacity="1" /><path clip-path="url(#clip980)" d="M773.483 1479.7 L778.367 1479.7 L778.367 1485.58 L773.483 1485.58 L773.483 1479.7 Z" fill="#000000" fill-rule="nonzero" fill-opacity="1" /><path clip-path="url(#clip980)" d="M788.598 1451.02 L806.955 1451.02 L806.955 1454.96 L792.881 1454.96 L792.881 1463.43 Q793.899 1463.08 794.918 1462.92 Q795.936 1462.73 796.955 1462.73 Q802.742 1462.73 806.121 1465.9 Q809.501 1469.08 809.501 1474.49 Q809.501 1480.07 806.029 1483.17 Q802.557 1486.25 796.237 1486.25 Q794.061 1486.25 791.793 1485.88 Q789.548 1485.51 787.14 1484.77 L787.14 1480.07 Q789.223 1481.2 791.446 1481.76 Q793.668 1482.32 796.145 1482.32 Q800.149 1482.32 802.487 1480.21 Q804.825 1478.1 804.825 1474.49 Q804.825 1470.88 802.487 1468.77 Q800.149 1466.67 796.145 1466.67 Q794.27 1466.67 792.395 1467.08 Q790.543 1467.5 788.598 1468.38 L788.598 1451.02 Z" fill="#000000" fill-rule="nonzero" fill-opacity="1" /><path clip-path="url(#clip980)" d="M818.853 1484.86 L818.853 1480.6 Q820.612 1481.44 822.418 1481.88 Q824.223 1482.32 825.959 1482.32 Q830.589 1482.32 833.019 1479.21 Q835.473 1476.09 835.82 1469.75 Q834.478 1471.74 832.418 1472.8 Q830.357 1473.87 827.857 1473.87 Q822.672 1473.87 819.64 1470.74 Q816.631 1467.59 816.631 1462.15 Q816.631 1456.83 819.779 1453.61 Q822.927 1450.39 828.158 1450.39 Q834.154 1450.39 837.302 1455 Q840.473 1459.58 840.473 1468.33 Q840.473 1476.51 836.584 1481.39 Q832.719 1486.25 826.168 1486.25 Q824.408 1486.25 822.603 1485.9 Q820.797 1485.56 818.853 1484.86 M828.158 1470.21 Q831.307 1470.21 833.135 1468.06 Q834.987 1465.9 834.987 1462.15 Q834.987 1458.43 833.135 1456.27 Q831.307 1454.1 828.158 1454.1 Q825.01 1454.1 823.158 1456.27 Q821.33 1458.43 821.33 1462.15 Q821.33 1465.9 823.158 1468.06 Q825.01 1470.21 828.158 1470.21 Z" fill="#000000" fill-rule="nonzero" fill-opacity="1" /><path clip-path="url(#clip980)" d="M1046.94 1466.44 Q1043.79 1466.44 1041.94 1468.59 Q1040.11 1470.74 1040.11 1474.49 Q1040.11 1478.22 1041.94 1480.39 Q1043.79 1482.55 1046.94 1482.55 Q1050.08 1482.55 1051.91 1480.39 Q1053.77 1478.22 1053.77 1474.49 Q1053.77 1470.74 1051.91 1468.59 Q1050.08 1466.44 1046.94 1466.44 M1056.22 1451.78 L1056.22 1456.04 Q1054.46 1455.21 1052.65 1454.77 Q1050.87 1454.33 1049.11 1454.33 Q1044.48 1454.33 1042.03 1457.45 Q1039.6 1460.58 1039.25 1466.9 Q1040.62 1464.89 1042.68 1463.82 Q1044.74 1462.73 1047.21 1462.73 Q1052.42 1462.73 1055.43 1465.9 Q1058.46 1469.05 1058.46 1474.49 Q1058.46 1479.82 1055.32 1483.03 Q1052.17 1486.25 1046.94 1486.25 Q1040.94 1486.25 1037.77 1481.67 Q1034.6 1477.06 1034.6 1468.33 Q1034.6 1460.14 1038.49 1455.28 Q1042.38 1450.39 1048.93 1450.39 Q1050.69 1450.39 1052.47 1450.74 Q1054.27 1451.09 1056.22 1451.78 Z" fill="#000000" fill-rule="nonzero" fill-opacity="1" /><path clip-path="url(#clip980)" d="M1066.57 1451.02 L1084.92 1451.02 L1084.92 1454.96 L1070.85 1454.96 L1070.85 1463.43 Q1071.87 1463.08 1072.89 1462.92 Q1073.9 1462.73 1074.92 1462.73 Q1080.71 1462.73 1084.09 1465.9 Q1087.47 1469.08 1087.47 1474.49 Q1087.47 1480.07 1084 1483.17 Q1080.52 1486.25 1074.21 1486.25 Q1072.03 1486.25 1069.76 1485.88 Q1067.52 1485.51 1065.11 1484.77 L1065.11 1480.07 Q1067.19 1481.2 1069.41 1481.76 Q1071.64 1482.32 1074.11 1482.32 Q1078.12 1482.32 1080.46 1480.21 Q1082.79 1478.1 1082.79 1474.49 Q1082.79 1470.88 1080.46 1468.77 Q1078.12 1466.67 1074.11 1466.67 Q1072.24 1466.67 1070.36 1467.08 Q1068.51 1467.5 1066.57 1468.38 L1066.57 1451.02 Z" fill="#000000" fill-rule="nonzero" fill-opacity="1" /><path clip-path="url(#clip980)" d="M1096.68 1479.7 L1101.57 1479.7 L1101.57 1485.58 L1096.68 1485.58 L1096.68 1479.7 Z" fill="#000000" fill-rule="nonzero" fill-opacity="1" /><path clip-path="url(#clip980)" d="M1122.33 1466.44 Q1119.18 1466.44 1117.33 1468.59 Q1115.5 1470.74 1115.5 1474.49 Q1115.5 1478.22 1117.33 1480.39 Q1119.18 1482.55 1122.33 1482.55 Q1125.48 1482.55 1127.31 1480.39 Q1129.16 1478.22 1129.16 1474.49 Q1129.16 1470.74 1127.31 1468.59 Q1125.48 1466.44 1122.33 1466.44 M1131.61 1451.78 L1131.61 1456.04 Q1129.85 1455.21 1128.05 1454.77 Q1126.26 1454.33 1124.51 1454.33 Q1119.88 1454.33 1117.42 1457.45 Q1114.99 1460.58 1114.64 1466.9 Q1116.01 1464.89 1118.07 1463.82 Q1120.13 1462.73 1122.61 1462.73 Q1127.82 1462.73 1130.83 1465.9 Q1133.86 1469.05 1133.86 1474.49 Q1133.86 1479.82 1130.71 1483.03 Q1127.56 1486.25 1122.33 1486.25 Q1116.33 1486.25 1113.16 1481.67 Q1109.99 1477.06 1109.99 1468.33 Q1109.99 1460.14 1113.88 1455.28 Q1117.77 1450.39 1124.32 1450.39 Q1126.08 1450.39 1127.86 1450.74 Q1129.67 1451.09 1131.61 1451.78 Z" fill="#000000" fill-rule="nonzero" fill-opacity="1" /><path clip-path="url(#clip980)" d="M1151.91 1454.1 Q1148.3 1454.1 1146.47 1457.66 Q1144.67 1461.2 1144.67 1468.33 Q1144.67 1475.44 1146.47 1479.01 Q1148.3 1482.55 1151.91 1482.55 Q1155.55 1482.55 1157.35 1479.01 Q1159.18 1475.44 1159.18 1468.33 Q1159.18 1461.2 1157.35 1457.66 Q1155.55 1454.1 1151.91 1454.1 M1151.91 1450.39 Q1157.72 1450.39 1160.78 1455 Q1163.86 1459.58 1163.86 1468.33 Q1163.86 1477.06 1160.78 1481.67 Q1157.72 1486.25 1151.91 1486.25 Q1146.1 1486.25 1143.02 1481.67 Q1139.97 1477.06 1139.97 1468.33 Q1139.97 1459.58 1143.02 1455 Q1146.1 1450.39 1151.91 1450.39 Z" fill="#000000" fill-rule="nonzero" fill-opacity="1" /><path clip-path="url(#clip980)" d="M1370.84 1466.44 Q1367.69 1466.44 1365.84 1468.59 Q1364.01 1470.74 1364.01 1474.49 Q1364.01 1478.22 1365.84 1480.39 Q1367.69 1482.55 1370.84 1482.55 Q1373.99 1482.55 1375.82 1480.39 Q1377.67 1478.22 1377.67 1474.49 Q1377.67 1470.74 1375.82 1468.59 Q1373.99 1466.44 1370.84 1466.44 M1380.12 1451.78 L1380.12 1456.04 Q1378.36 1455.21 1376.56 1454.77 Q1374.78 1454.33 1373.02 1454.33 Q1368.39 1454.33 1365.93 1457.45 Q1363.5 1460.58 1363.16 1466.9 Q1364.52 1464.89 1366.58 1463.82 Q1368.64 1462.73 1371.12 1462.73 Q1376.33 1462.73 1379.34 1465.9 Q1382.37 1469.05 1382.37 1474.49 Q1382.37 1479.82 1379.22 1483.03 Q1376.07 1486.25 1370.84 1486.25 Q1364.85 1486.25 1361.68 1481.67 Q1358.5 1477.06 1358.5 1468.33 Q1358.5 1460.14 1362.39 1455.28 Q1366.28 1450.39 1372.83 1450.39 Q1374.59 1450.39 1376.37 1450.74 Q1378.18 1451.09 1380.12 1451.78 Z" fill="#000000" fill-rule="nonzero" fill-opacity="1" /><path clip-path="url(#clip980)" d="M1390.47 1451.02 L1408.83 1451.02 L1408.83 1454.96 L1394.75 1454.96 L1394.75 1463.43 Q1395.77 1463.08 1396.79 1462.92 Q1397.81 1462.73 1398.83 1462.73 Q1404.61 1462.73 1407.99 1465.9 Q1411.37 1469.08 1411.37 1474.49 Q1411.37 1480.07 1407.9 1483.17 Q1404.43 1486.25 1398.11 1486.25 Q1395.93 1486.25 1393.67 1485.88 Q1391.42 1485.51 1389.01 1484.77 L1389.01 1480.07 Q1391.1 1481.2 1393.32 1481.76 Q1395.54 1482.32 1398.02 1482.32 Q1402.02 1482.32 1404.36 1480.21 Q1406.7 1478.1 1406.7 1474.49 Q1406.7 1470.88 1404.36 1468.77 Q1402.02 1466.67 1398.02 1466.67 Q1396.14 1466.67 1394.27 1467.08 Q1392.42 1467.5 1390.47 1468.38 L1390.47 1451.02 Z" fill="#000000" fill-rule="nonzero" fill-opacity="1" /><path clip-path="url(#clip980)" d="M1420.59 1479.7 L1425.47 1479.7 L1425.47 1485.58 L1420.59 1485.58 L1420.59 1479.7 Z" fill="#000000" fill-rule="nonzero" fill-opacity="1" /><path clip-path="url(#clip980)" d="M1446.23 1466.44 Q1443.09 1466.44 1441.23 1468.59 Q1439.41 1470.74 1439.41 1474.49 Q1439.41 1478.22 1441.23 1480.39 Q1443.09 1482.55 1446.23 1482.55 Q1449.38 1482.55 1451.21 1480.39 Q1453.06 1478.22 1453.06 1474.49 Q1453.06 1470.74 1451.21 1468.59 Q1449.38 1466.44 1446.23 1466.44 M1455.52 1451.78 L1455.52 1456.04 Q1453.76 1455.21 1451.95 1454.77 Q1450.17 1454.33 1448.41 1454.33 Q1443.78 1454.33 1441.33 1457.45 Q1438.9 1460.58 1438.55 1466.9 Q1439.92 1464.89 1441.98 1463.82 Q1444.04 1462.73 1446.51 1462.73 Q1451.72 1462.73 1454.73 1465.9 Q1457.76 1469.05 1457.76 1474.49 Q1457.76 1479.82 1454.61 1483.03 Q1451.47 1486.25 1446.23 1486.25 Q1440.24 1486.25 1437.07 1481.67 Q1433.9 1477.06 1433.9 1468.33 Q1433.9 1460.14 1437.79 1455.28 Q1441.67 1450.39 1448.23 1450.39 Q1449.98 1450.39 1451.77 1450.74 Q1453.57 1451.09 1455.52 1451.78 Z" fill="#000000" fill-rule="nonzero" fill-opacity="1" /><path clip-path="url(#clip980)" d="M1466.63 1481.64 L1474.27 1481.64 L1474.27 1455.28 L1465.96 1456.95 L1465.96 1452.69 L1474.22 1451.02 L1478.9 1451.02 L1478.9 1481.64 L1486.54 1481.64 L1486.54 1485.58 L1466.63 1485.58 L1466.63 1481.64 Z" fill="#000000" fill-rule="nonzero" fill-opacity="1" /><path clip-path="url(#clip980)" d="M1694.32 1466.44 Q1691.17 1466.44 1689.32 1468.59 Q1687.49 1470.74 1687.49 1474.49 Q1687.49 1478.22 1689.32 1480.39 Q1691.17 1482.55 1694.32 1482.55 Q1697.47 1482.55 1699.3 1480.39 Q1701.15 1478.22 1701.15 1474.49 Q1701.15 1470.74 1699.3 1468.59 Q1697.47 1466.44 1694.32 1466.44 M1703.6 1451.78 L1703.6 1456.04 Q1701.84 1455.21 1700.04 1454.77 Q1698.25 1454.33 1696.49 1454.33 Q1691.86 1454.33 1689.41 1457.45 Q1686.98 1460.58 1686.63 1466.9 Q1688 1464.89 1690.06 1463.82 Q1692.12 1462.73 1694.6 1462.73 Q1699.8 1462.73 1702.81 1465.9 Q1705.85 1469.05 1705.85 1474.49 Q1705.85 1479.82 1702.7 1483.03 Q1699.55 1486.25 1694.32 1486.25 Q1688.32 1486.25 1685.15 1481.67 Q1681.98 1477.06 1681.98 1468.33 Q1681.98 1460.14 1685.87 1455.28 Q1689.76 1450.39 1696.31 1450.39 Q1698.07 1450.39 1699.85 1450.74 Q1701.66 1451.09 1703.6 1451.78 Z" fill="#000000" fill-rule="nonzero" fill-opacity="1" /><path clip-path="url(#clip980)" d="M1713.95 1451.02 L1732.3 1451.02 L1732.3 1454.96 L1718.23 1454.96 L1718.23 1463.43 Q1719.25 1463.08 1720.27 1462.92 Q1721.29 1462.73 1722.3 1462.73 Q1728.09 1462.73 1731.47 1465.9 Q1734.85 1469.08 1734.85 1474.49 Q1734.85 1480.07 1731.38 1483.17 Q1727.91 1486.25 1721.59 1486.25 Q1719.41 1486.25 1717.14 1485.88 Q1714.9 1485.51 1712.49 1484.77 L1712.49 1480.07 Q1714.57 1481.2 1716.8 1481.76 Q1719.02 1482.32 1721.49 1482.32 Q1725.5 1482.32 1727.84 1480.21 Q1730.17 1478.1 1730.17 1474.49 Q1730.17 1470.88 1727.84 1468.77 Q1725.5 1466.67 1721.49 1466.67 Q1719.62 1466.67 1717.74 1467.08 Q1715.89 1467.5 1713.95 1468.38 L1713.95 1451.02 Z" fill="#000000" fill-rule="nonzero" fill-opacity="1" /><path clip-path="url(#clip980)" d="M1744.06 1479.7 L1748.95 1479.7 L1748.95 1485.58 L1744.06 1485.58 L1744.06 1479.7 Z" fill="#000000" fill-rule="nonzero" fill-opacity="1" /><path clip-path="url(#clip980)" d="M1769.71 1466.44 Q1766.56 1466.44 1764.71 1468.59 Q1762.88 1470.74 1762.88 1474.49 Q1762.88 1478.22 1764.71 1480.39 Q1766.56 1482.55 1769.71 1482.55 Q1772.86 1482.55 1774.69 1480.39 Q1776.54 1478.22 1776.54 1474.49 Q1776.54 1470.74 1774.69 1468.59 Q1772.86 1466.44 1769.71 1466.44 M1778.99 1451.78 L1778.99 1456.04 Q1777.23 1455.21 1775.43 1454.77 Q1773.65 1454.33 1771.89 1454.33 Q1767.26 1454.33 1764.8 1457.45 Q1762.37 1460.58 1762.03 1466.9 Q1763.39 1464.89 1765.45 1463.82 Q1767.51 1462.73 1769.99 1462.73 Q1775.2 1462.73 1778.21 1465.9 Q1781.24 1469.05 1781.24 1474.49 Q1781.24 1479.82 1778.09 1483.03 Q1774.94 1486.25 1769.71 1486.25 Q1763.72 1486.25 1760.55 1481.67 Q1757.37 1477.06 1757.37 1468.33 Q1757.37 1460.14 1761.26 1455.28 Q1765.15 1450.39 1771.7 1450.39 Q1773.46 1450.39 1775.24 1450.74 Q1777.05 1451.09 1778.99 1451.78 Z" fill="#000000" fill-rule="nonzero" fill-opacity="1" /><path clip-path="url(#clip980)" d="M1793.32 1481.64 L1809.64 1481.64 L1809.64 1485.58 L1787.7 1485.58 L1787.7 1481.64 Q1790.36 1478.89 1794.94 1474.26 Q1799.55 1469.61 1800.73 1468.27 Q1802.98 1465.74 1803.85 1464.01 Q1804.76 1462.25 1804.76 1460.56 Q1804.76 1457.8 1802.81 1456.07 Q1800.89 1454.33 1797.79 1454.33 Q1795.59 1454.33 1793.14 1455.09 Q1790.71 1455.86 1787.93 1457.41 L1787.93 1452.69 Q1790.75 1451.55 1793.21 1450.97 Q1795.66 1450.39 1797.7 1450.39 Q1803.07 1450.39 1806.26 1453.08 Q1809.46 1455.77 1809.46 1460.26 Q1809.46 1462.39 1808.65 1464.31 Q1807.86 1466.2 1805.75 1468.8 Q1805.17 1469.47 1802.07 1472.69 Q1798.97 1475.88 1793.32 1481.64 Z" fill="#000000" fill-rule="nonzero" fill-opacity="1" /><path clip-path="url(#clip980)" d="M2017.14 1466.44 Q2013.99 1466.44 2012.14 1468.59 Q2010.31 1470.74 2010.31 1474.49 Q2010.31 1478.22 2012.14 1480.39 Q2013.99 1482.55 2017.14 1482.55 Q2020.28 1482.55 2022.11 1480.39 Q2023.96 1478.22 2023.96 1474.49 Q2023.96 1470.74 2022.11 1468.59 Q2020.28 1466.44 2017.14 1466.44 M2026.42 1451.78 L2026.42 1456.04 Q2024.66 1455.21 2022.85 1454.77 Q2021.07 1454.33 2019.31 1454.33 Q2014.68 1454.33 2012.23 1457.45 Q2009.8 1460.58 2009.45 1466.9 Q2010.82 1464.89 2012.88 1463.82 Q2014.94 1462.73 2017.41 1462.73 Q2022.62 1462.73 2025.63 1465.9 Q2028.66 1469.05 2028.66 1474.49 Q2028.66 1479.82 2025.52 1483.03 Q2022.37 1486.25 2017.14 1486.25 Q2011.14 1486.25 2007.97 1481.67 Q2004.8 1477.06 2004.8 1468.33 Q2004.8 1460.14 2008.69 1455.28 Q2012.58 1450.39 2019.13 1450.39 Q2020.89 1450.39 2022.67 1450.74 Q2024.47 1451.09 2026.42 1451.78 Z" fill="#000000" fill-rule="nonzero" fill-opacity="1" /><path clip-path="url(#clip980)" d="M2036.77 1451.02 L2055.12 1451.02 L2055.12 1454.96 L2041.05 1454.96 L2041.05 1463.43 Q2042.07 1463.08 2043.08 1462.92 Q2044.1 1462.73 2045.12 1462.73 Q2050.91 1462.73 2054.29 1465.9 Q2057.67 1469.08 2057.67 1474.49 Q2057.67 1480.07 2054.2 1483.17 Q2050.72 1486.25 2044.4 1486.25 Q2042.23 1486.25 2039.96 1485.88 Q2037.71 1485.51 2035.31 1484.77 L2035.31 1480.07 Q2037.39 1481.2 2039.61 1481.76 Q2041.83 1482.32 2044.31 1482.32 Q2048.32 1482.32 2050.65 1480.21 Q2052.99 1478.1 2052.99 1474.49 Q2052.99 1470.88 2050.65 1468.77 Q2048.32 1466.67 2044.31 1466.67 Q2042.44 1466.67 2040.56 1467.08 Q2038.71 1467.5 2036.77 1468.38 L2036.77 1451.02 Z" fill="#000000" fill-rule="nonzero" fill-opacity="1" /><path clip-path="url(#clip980)" d="M2066.88 1479.7 L2071.76 1479.7 L2071.76 1485.58 L2066.88 1485.58 L2066.88 1479.7 Z" fill="#000000" fill-rule="nonzero" fill-opacity="1" /><path clip-path="url(#clip980)" d="M2092.53 1466.44 Q2089.38 1466.44 2087.53 1468.59 Q2085.7 1470.74 2085.7 1474.49 Q2085.7 1478.22 2087.53 1480.39 Q2089.38 1482.55 2092.53 1482.55 Q2095.68 1482.55 2097.51 1480.39 Q2099.36 1478.22 2099.36 1474.49 Q2099.36 1470.74 2097.51 1468.59 Q2095.68 1466.44 2092.53 1466.44 M2101.81 1451.78 L2101.81 1456.04 Q2100.05 1455.21 2098.25 1454.77 Q2096.46 1454.33 2094.7 1454.33 Q2090.08 1454.33 2087.62 1457.45 Q2085.19 1460.58 2084.84 1466.9 Q2086.21 1464.89 2088.27 1463.82 Q2090.33 1462.73 2092.81 1462.73 Q2098.01 1462.73 2101.02 1465.9 Q2104.06 1469.05 2104.06 1474.49 Q2104.06 1479.82 2100.91 1483.03 Q2097.76 1486.25 2092.53 1486.25 Q2086.53 1486.25 2083.36 1481.67 Q2080.19 1477.06 2080.19 1468.33 Q2080.19 1460.14 2084.08 1455.28 Q2087.97 1450.39 2094.52 1450.39 Q2096.28 1450.39 2098.06 1450.74 Q2099.87 1451.09 2101.81 1451.78 Z" fill="#000000" fill-rule="nonzero" fill-opacity="1" /><path clip-path="url(#clip980)" d="M2126.28 1466.95 Q2129.63 1467.66 2131.51 1469.93 Q2133.41 1472.2 2133.41 1475.53 Q2133.41 1480.65 2129.89 1483.45 Q2126.37 1486.25 2119.89 1486.25 Q2117.71 1486.25 2115.4 1485.81 Q2113.11 1485.39 2110.65 1484.54 L2110.65 1480.02 Q2112.6 1481.16 2114.91 1481.74 Q2117.23 1482.32 2119.75 1482.32 Q2124.15 1482.32 2126.44 1480.58 Q2128.76 1478.84 2128.76 1475.53 Q2128.76 1472.48 2126.6 1470.77 Q2124.47 1469.03 2120.65 1469.03 L2116.63 1469.03 L2116.63 1465.19 L2120.84 1465.19 Q2124.29 1465.19 2126.12 1463.82 Q2127.95 1462.43 2127.95 1459.84 Q2127.95 1457.18 2126.05 1455.77 Q2124.17 1454.33 2120.65 1454.33 Q2118.73 1454.33 2116.53 1454.75 Q2114.33 1455.16 2111.7 1456.04 L2111.7 1451.88 Q2114.36 1451.14 2116.67 1450.77 Q2119.01 1450.39 2121.07 1450.39 Q2126.39 1450.39 2129.5 1452.83 Q2132.6 1455.23 2132.6 1459.35 Q2132.6 1462.22 2130.95 1464.21 Q2129.31 1466.18 2126.28 1466.95 Z" fill="#000000" fill-rule="nonzero" fill-opacity="1" /><path clip-path="url(#clip980)" d="M1156.84 1526.86 L1148.12 1550.51 L1165.6 1550.51 L1156.84 1526.86 M1153.22 1520.52 L1160.5 1520.52 L1178.61 1568.04 L1171.93 1568.04 L1167.6 1555.85 L1146.18 1555.85 L1141.85 1568.04 L1135.07 1568.04 L1153.22 1520.52 Z" fill="#000000" fill-rule="nonzero" fill-opacity="1" /><path clip-path="url(#clip980)" d="M1208.76 1549.81 Q1208.76 1543.44 1206.11 1539.94 Q1203.5 1536.44 1198.76 1536.44 Q1194.05 1536.44 1191.41 1539.94 Q1188.8 1543.44 1188.8 1549.81 Q1188.8 1556.14 1191.41 1559.64 Q1194.05 1563.14 1198.76 1563.14 Q1203.5 1563.14 1206.11 1559.64 Q1208.76 1556.14 1208.76 1549.81 M1214.61 1563.62 Q1214.61 1572.72 1210.57 1577.15 Q1206.53 1581.6 1198.19 1581.6 Q1195.1 1581.6 1192.36 1581.13 Q1189.63 1580.68 1187.05 1579.72 L1187.05 1574.03 Q1189.63 1575.43 1192.14 1576.1 Q1194.66 1576.76 1197.27 1576.76 Q1203.03 1576.76 1205.89 1573.74 Q1208.76 1570.75 1208.76 1564.67 L1208.76 1561.77 Q1206.94 1564.92 1204.11 1566.48 Q1201.28 1568.04 1197.33 1568.04 Q1190.77 1568.04 1186.76 1563.05 Q1182.75 1558.05 1182.75 1549.81 Q1182.75 1541.53 1186.76 1536.53 Q1190.77 1531.54 1197.33 1531.54 Q1201.28 1531.54 1204.11 1533.1 Q1206.94 1534.66 1208.76 1537.81 L1208.76 1532.4 L1214.61 1532.4 L1214.61 1563.62 Z" fill="#000000" fill-rule="nonzero" fill-opacity="1" /><path clip-path="url(#clip980)" d="M1257.17 1548.76 L1257.17 1551.62 L1230.24 1551.62 Q1230.62 1557.67 1233.87 1560.85 Q1237.15 1564 1242.97 1564 Q1246.35 1564 1249.5 1563.17 Q1252.68 1562.35 1255.8 1560.69 L1255.8 1566.23 Q1252.65 1567.57 1249.34 1568.27 Q1246.03 1568.97 1242.62 1568.97 Q1234.09 1568.97 1229.09 1564 Q1224.13 1559.04 1224.13 1550.57 Q1224.13 1541.82 1228.84 1536.69 Q1233.58 1531.54 1241.6 1531.54 Q1248.8 1531.54 1252.97 1536.18 Q1257.17 1540.8 1257.17 1548.76 M1251.31 1547.04 Q1251.25 1542.23 1248.61 1539.37 Q1246 1536.5 1241.67 1536.5 Q1236.77 1536.5 1233.81 1539.27 Q1230.88 1542.04 1230.43 1547.07 L1251.31 1547.04 Z" fill="#000000" fill-rule="nonzero" fill-opacity="1" /><path clip-path="url(#clip980)" d="M1301.57 1518.58 Q1297.3 1525.9 1295.23 1533.06 Q1293.17 1540.23 1293.17 1547.58 Q1293.17 1554.93 1295.23 1562.16 Q1297.34 1569.35 1301.57 1576.64 L1296.48 1576.64 Q1291.7 1569.16 1289.31 1561.93 Q1286.96 1554.71 1286.96 1547.58 Q1286.96 1540.48 1289.31 1533.29 Q1291.67 1526.09 1296.48 1518.58 L1301.57 1518.58 Z" fill="#000000" fill-rule="nonzero" fill-opacity="1" /><path clip-path="url(#clip980)" d="M1313.19 1520.52 L1322.77 1520.52 L1334.89 1552.86 L1347.08 1520.52 L1356.66 1520.52 L1356.66 1568.04 L1350.39 1568.04 L1350.39 1526.32 L1338.14 1558.91 L1331.68 1558.91 L1319.42 1526.32 L1319.42 1568.04 L1313.19 1568.04 L1313.19 1520.52 Z" fill="#000000" fill-rule="nonzero" fill-opacity="1" /><path clip-path="url(#clip980)" d="M1385.37 1550.12 Q1378.28 1550.12 1375.54 1551.75 Q1372.8 1553.37 1372.8 1557.29 Q1372.8 1560.4 1374.84 1562.25 Q1376.91 1564.07 1380.44 1564.07 Q1385.31 1564.07 1388.24 1560.63 Q1391.2 1557.16 1391.2 1551.43 L1391.2 1550.12 L1385.37 1550.12 M1397.05 1547.71 L1397.05 1568.04 L1391.2 1568.04 L1391.2 1562.63 Q1389.19 1565.88 1386.2 1567.44 Q1383.21 1568.97 1378.88 1568.97 Q1373.41 1568.97 1370.16 1565.91 Q1366.94 1562.82 1366.94 1557.67 Q1366.94 1551.65 1370.95 1548.6 Q1375 1545.54 1382.99 1545.54 L1391.2 1545.54 L1391.2 1544.97 Q1391.2 1540.93 1388.52 1538.73 Q1385.88 1536.5 1381.08 1536.5 Q1378.02 1536.5 1375.12 1537.23 Q1372.23 1537.97 1369.55 1539.43 L1369.55 1534.02 Q1372.77 1532.78 1375.79 1532.17 Q1378.82 1531.54 1381.68 1531.54 Q1389.42 1531.54 1393.23 1535.55 Q1397.05 1539.56 1397.05 1547.71 Z" fill="#000000" fill-rule="nonzero" fill-opacity="1" /><path clip-path="url(#clip980)" d="M1408.19 1518.58 L1413.29 1518.58 Q1418.06 1526.09 1420.42 1533.29 Q1422.8 1540.48 1422.8 1547.58 Q1422.8 1554.71 1420.42 1561.93 Q1418.06 1569.16 1413.29 1576.64 L1408.19 1576.64 Q1412.43 1569.35 1414.5 1562.16 Q1416.6 1554.93 1416.6 1547.58 Q1416.6 1540.23 1414.5 1533.06 Q1412.43 1525.9 1408.19 1518.58 Z" fill="#000000" fill-rule="nonzero" fill-opacity="1" /><polyline clip-path="url(#clip980)" style="stroke:#000000; stroke-linecap:round; stroke-linejoin:round; stroke-width:4; stroke-opacity:1; fill:none" points="205.121,1423.18 205.121,47.2441 "/>
<polyline clip-path="url(#clip980)" style="stroke:#000000; stroke-linecap:round; stroke-linejoin:round; stroke-width:4; stroke-opacity:1; fill:none" points="2352.76,1423.18 2352.76,47.2441 "/>
<polyline clip-path="url(#clip980)" style="stroke:#000000; stroke-linecap:round; stroke-linejoin:round; stroke-width:4; stroke-opacity:1; fill:none" points="205.121,1384.24 224.019,1384.24 "/>
<polyline clip-path="url(#clip980)" style="stroke:#000000; stroke-linecap:round; stroke-linejoin:round; stroke-width:4; stroke-opacity:1; fill:none" points="205.121,1133.32 224.019,1133.32 "/>
<polyline clip-path="url(#clip980)" style="stroke:#000000; stroke-linecap:round; stroke-linejoin:round; stroke-width:4; stroke-opacity:1; fill:none" points="205.121,882.406 224.019,882.406 "/>
<polyline clip-path="url(#clip980)" style="stroke:#000000; stroke-linecap:round; stroke-linejoin:round; stroke-width:4; stroke-opacity:1; fill:none" points="205.121,631.488 224.019,631.488 "/>
<polyline clip-path="url(#clip980)" style="stroke:#000000; stroke-linecap:round; stroke-linejoin:round; stroke-width:4; stroke-opacity:1; fill:none" points="205.121,380.571 224.019,380.571 "/>
<polyline clip-path="url(#clip980)" style="stroke:#000000; stroke-linecap:round; stroke-linejoin:round; stroke-width:4; stroke-opacity:1; fill:none" points="205.121,129.653 224.019,129.653 "/>
<polyline clip-path="url(#clip980)" style="stroke:#000000; stroke-linecap:round; stroke-linejoin:round; stroke-width:4; stroke-opacity:1; fill:none" points="2352.76,1384.24 2333.86,1384.24 "/>
<polyline clip-path="url(#clip980)" style="stroke:#000000; stroke-linecap:round; stroke-linejoin:round; stroke-width:4; stroke-opacity:1; fill:none" points="2352.76,1133.32 2333.86,1133.32 "/>
<polyline clip-path="url(#clip980)" style="stroke:#000000; stroke-linecap:round; stroke-linejoin:round; stroke-width:4; stroke-opacity:1; fill:none" points="2352.76,882.406 2333.86,882.406 "/>
<polyline clip-path="url(#clip980)" style="stroke:#000000; stroke-linecap:round; stroke-linejoin:round; stroke-width:4; stroke-opacity:1; fill:none" points="2352.76,631.488 2333.86,631.488 "/>
<polyline clip-path="url(#clip980)" style="stroke:#000000; stroke-linecap:round; stroke-linejoin:round; stroke-width:4; stroke-opacity:1; fill:none" points="2352.76,380.571 2333.86,380.571 "/>
<polyline clip-path="url(#clip980)" style="stroke:#000000; stroke-linecap:round; stroke-linejoin:round; stroke-width:4; stroke-opacity:1; fill:none" points="2352.76,129.653 2333.86,129.653 "/>
<path clip-path="url(#clip980)" d="M157.177 1370.04 Q153.566 1370.04 151.737 1373.6 Q149.931 1377.15 149.931 1384.28 Q149.931 1391.38 151.737 1394.95 Q153.566 1398.49 157.177 1398.49 Q160.811 1398.49 162.616 1394.95 Q164.445 1391.38 164.445 1384.28 Q164.445 1377.15 162.616 1373.6 Q160.811 1370.04 157.177 1370.04 M157.177 1366.34 Q162.987 1366.34 166.042 1370.94 Q169.121 1375.53 169.121 1384.28 Q169.121 1393 166.042 1397.61 Q162.987 1402.19 157.177 1402.19 Q151.366 1402.19 148.288 1397.61 Q145.232 1393 145.232 1384.28 Q145.232 1375.53 148.288 1370.94 Q151.366 1366.34 157.177 1366.34 Z" fill="#000000" fill-rule="nonzero" fill-opacity="1" /><path clip-path="url(#clip980)" d="M117.825 1146.67 L125.464 1146.67 L125.464 1120.3 L117.154 1121.97 L117.154 1117.71 L125.418 1116.04 L130.093 1116.04 L130.093 1146.67 L137.732 1146.67 L137.732 1150.6 L117.825 1150.6 L117.825 1146.67 Z" fill="#000000" fill-rule="nonzero" fill-opacity="1" /><path clip-path="url(#clip980)" d="M157.177 1119.12 Q153.566 1119.12 151.737 1122.69 Q149.931 1126.23 149.931 1133.36 Q149.931 1140.46 151.737 1144.03 Q153.566 1147.57 157.177 1147.57 Q160.811 1147.57 162.616 1144.03 Q164.445 1140.46 164.445 1133.36 Q164.445 1126.23 162.616 1122.69 Q160.811 1119.12 157.177 1119.12 M157.177 1115.42 Q162.987 1115.42 166.042 1120.02 Q169.121 1124.61 169.121 1133.36 Q169.121 1142.08 166.042 1146.69 Q162.987 1151.27 157.177 1151.27 Q151.366 1151.27 148.288 1146.69 Q145.232 1142.08 145.232 1133.36 Q145.232 1124.61 148.288 1120.02 Q151.366 1115.42 157.177 1115.42 Z" fill="#000000" fill-rule="nonzero" fill-opacity="1" /><path clip-path="url(#clip980)" d="M121.043 895.751 L137.362 895.751 L137.362 899.686 L115.418 899.686 L115.418 895.751 Q118.08 892.996 122.663 888.366 Q127.269 883.714 128.45 882.371 Q130.695 879.848 131.575 878.112 Q132.478 876.353 132.478 874.663 Q132.478 871.908 130.533 870.172 Q128.612 868.436 125.51 868.436 Q123.311 868.436 120.857 869.2 Q118.427 869.964 115.649 871.515 L115.649 866.792 Q118.473 865.658 120.927 865.079 Q123.38 864.501 125.418 864.501 Q130.788 864.501 133.982 867.186 Q137.177 869.871 137.177 874.362 Q137.177 876.491 136.367 878.413 Q135.579 880.311 133.473 882.903 Q132.894 883.575 129.792 886.792 Q126.691 889.987 121.043 895.751 Z" fill="#000000" fill-rule="nonzero" fill-opacity="1" /><path clip-path="url(#clip980)" d="M157.177 868.204 Q153.566 868.204 151.737 871.769 Q149.931 875.311 149.931 882.44 Q149.931 889.547 151.737 893.112 Q153.566 896.653 157.177 896.653 Q160.811 896.653 162.616 893.112 Q164.445 889.547 164.445 882.44 Q164.445 875.311 162.616 871.769 Q160.811 868.204 157.177 868.204 M157.177 864.501 Q162.987 864.501 166.042 869.107 Q169.121 873.691 169.121 882.44 Q169.121 891.167 166.042 895.774 Q162.987 900.357 157.177 900.357 Q151.366 900.357 148.288 895.774 Q145.232 891.167 145.232 882.44 Q145.232 873.691 148.288 869.107 Q151.366 864.501 157.177 864.501 Z" fill="#000000" fill-rule="nonzero" fill-opacity="1" /><path clip-path="url(#clip980)" d="M131.181 630.134 Q134.538 630.852 136.413 633.12 Q138.311 635.389 138.311 638.722 Q138.311 643.838 134.792 646.639 Q131.274 649.44 124.793 649.44 Q122.617 649.44 120.302 649 Q118.01 648.583 115.556 647.727 L115.556 643.213 Q117.501 644.347 119.816 644.926 Q122.13 645.504 124.654 645.504 Q129.052 645.504 131.343 643.768 Q133.658 642.032 133.658 638.722 Q133.658 635.666 131.505 633.954 Q129.376 632.217 125.556 632.217 L121.529 632.217 L121.529 628.375 L125.742 628.375 Q129.191 628.375 131.019 627.009 Q132.848 625.62 132.848 623.028 Q132.848 620.366 130.95 618.954 Q129.075 617.518 125.556 617.518 Q123.635 617.518 121.436 617.935 Q119.237 618.352 116.598 619.231 L116.598 615.065 Q119.26 614.324 121.575 613.954 Q123.913 613.583 125.973 613.583 Q131.297 613.583 134.399 616.014 Q137.501 618.421 137.501 622.542 Q137.501 625.412 135.857 627.403 Q134.214 629.37 131.181 630.134 Z" fill="#000000" fill-rule="nonzero" fill-opacity="1" /><path clip-path="url(#clip980)" d="M157.177 617.287 Q153.566 617.287 151.737 620.852 Q149.931 624.393 149.931 631.523 Q149.931 638.629 151.737 642.194 Q153.566 645.736 157.177 645.736 Q160.811 645.736 162.616 642.194 Q164.445 638.629 164.445 631.523 Q164.445 624.393 162.616 620.852 Q160.811 617.287 157.177 617.287 M157.177 613.583 Q162.987 613.583 166.042 618.19 Q169.121 622.773 169.121 631.523 Q169.121 640.25 166.042 644.856 Q162.987 649.44 157.177 649.44 Q151.366 649.44 148.288 644.856 Q145.232 640.25 145.232 631.523 Q145.232 622.773 148.288 618.19 Q151.366 613.583 157.177 613.583 Z" fill="#000000" fill-rule="nonzero" fill-opacity="1" /><path clip-path="url(#clip980)" d="M129.862 367.365 L118.056 385.814 L129.862 385.814 L129.862 367.365 M128.635 363.291 L134.515 363.291 L134.515 385.814 L139.445 385.814 L139.445 389.703 L134.515 389.703 L134.515 397.851 L129.862 397.851 L129.862 389.703 L114.26 389.703 L114.26 385.189 L128.635 363.291 Z" fill="#000000" fill-rule="nonzero" fill-opacity="1" /><path clip-path="url(#clip980)" d="M157.177 366.369 Q153.566 366.369 151.737 369.934 Q149.931 373.476 149.931 380.605 Q149.931 387.712 151.737 391.277 Q153.566 394.818 157.177 394.818 Q160.811 394.818 162.616 391.277 Q164.445 387.712 164.445 380.605 Q164.445 373.476 162.616 369.934 Q160.811 366.369 157.177 366.369 M157.177 362.666 Q162.987 362.666 166.042 367.272 Q169.121 371.856 169.121 380.605 Q169.121 389.332 166.042 393.939 Q162.987 398.522 157.177 398.522 Q151.366 398.522 148.288 393.939 Q145.232 389.332 145.232 380.605 Q145.232 371.856 148.288 367.272 Q151.366 362.666 157.177 362.666 Z" fill="#000000" fill-rule="nonzero" fill-opacity="1" /><path clip-path="url(#clip980)" d="M117.061 112.373 L135.417 112.373 L135.417 116.308 L121.343 116.308 L121.343 124.781 Q122.362 124.433 123.38 124.271 Q124.399 124.086 125.418 124.086 Q131.205 124.086 134.584 127.257 Q137.964 130.429 137.964 135.845 Q137.964 141.424 134.492 144.526 Q131.019 147.605 124.7 147.605 Q122.524 147.605 120.255 147.234 Q118.01 146.864 115.603 146.123 L115.603 141.424 Q117.686 142.558 119.908 143.114 Q122.13 143.669 124.607 143.669 Q128.612 143.669 130.95 141.563 Q133.288 139.456 133.288 135.845 Q133.288 132.234 130.95 130.128 Q128.612 128.021 124.607 128.021 Q122.732 128.021 120.857 128.438 Q119.006 128.855 117.061 129.734 L117.061 112.373 Z" fill="#000000" fill-rule="nonzero" fill-opacity="1" /><path clip-path="url(#clip980)" d="M157.177 115.452 Q153.566 115.452 151.737 119.017 Q149.931 122.558 149.931 129.688 Q149.931 136.794 151.737 140.359 Q153.566 143.901 157.177 143.901 Q160.811 143.901 162.616 140.359 Q164.445 136.794 164.445 129.688 Q164.445 122.558 162.616 119.017 Q160.811 115.452 157.177 115.452 M157.177 111.748 Q162.987 111.748 166.042 116.355 Q169.121 120.938 169.121 129.688 Q169.121 138.415 166.042 143.021 Q162.987 147.605 157.177 147.605 Q151.366 147.605 148.288 143.021 Q145.232 138.415 145.232 129.688 Q145.232 120.938 148.288 116.355 Q151.366 111.748 157.177 111.748 Z" fill="#000000" fill-rule="nonzero" fill-opacity="1" /><path clip-path="url(#clip980)" d="M21.7677 1026.76 L39.6235 1026.76 L39.6235 1018.68 Q39.6235 1014.19 37.3 1011.74 Q34.9765 1009.29 30.6797 1009.29 Q26.4147 1009.29 24.0912 1011.74 Q21.7677 1014.19 21.7677 1018.68 L21.7677 1026.76 M16.4842 1033.19 L16.4842 1018.68 Q16.4842 1010.69 20.1126 1006.61 Q23.7092 1002.51 30.6797 1002.51 Q37.7138 1002.51 41.3104 1006.61 Q44.907 1010.69 44.907 1018.68 L44.907 1026.76 L64.0042 1026.76 L64.0042 1033.19 L16.4842 1033.19 Z" fill="#000000" fill-rule="nonzero" fill-opacity="1" /><path clip-path="url(#clip980)" d="M33.8307 974.626 Q33.2578 975.613 33.0032 976.791 Q32.7167 977.936 32.7167 979.337 Q32.7167 984.302 35.9632 986.976 Q39.1779 989.617 45.2253 989.617 L64.0042 989.617 L64.0042 995.506 L28.3562 995.506 L28.3562 989.617 L33.8944 989.617 Q30.6479 987.771 29.0883 984.811 Q27.4968 981.851 27.4968 977.618 Q27.4968 977.013 27.5923 976.281 Q27.656 975.549 27.8151 974.658 L33.8307 974.626 Z" fill="#000000" fill-rule="nonzero" fill-opacity="1" /><path clip-path="url(#clip980)" d="M32.4621 956.102 Q32.4621 960.813 36.1542 963.55 Q39.8145 966.287 46.212 966.287 Q52.6095 966.287 56.3017 963.582 Q59.9619 960.844 59.9619 956.102 Q59.9619 951.423 56.2698 948.686 Q52.5777 945.949 46.212 945.949 Q39.8781 945.949 36.186 948.686 Q32.4621 951.423 32.4621 956.102 M27.4968 956.102 Q27.4968 948.463 32.4621 944.103 Q37.4273 939.742 46.212 939.742 Q54.9649 939.742 59.9619 944.103 Q64.9272 948.463 64.9272 956.102 Q64.9272 963.773 59.9619 968.133 Q54.9649 972.462 46.212 972.462 Q37.4273 972.462 32.4621 968.133 Q27.4968 963.773 27.4968 956.102 Z" fill="#000000" fill-rule="nonzero" fill-opacity="1" /><path clip-path="url(#clip980)" d="M46.212 904.444 Q39.7508 904.444 36.0905 907.118 Q32.3984 909.76 32.3984 914.407 Q32.3984 919.054 36.0905 921.727 Q39.7508 924.369 46.212 924.369 Q52.6732 924.369 56.3653 921.727 Q60.0256 919.054 60.0256 914.407 Q60.0256 909.76 56.3653 907.118 Q52.6732 904.444 46.212 904.444 M33.7671 924.369 Q30.5842 922.523 29.0564 919.722 Q27.4968 916.889 27.4968 912.974 Q27.4968 906.481 32.6531 902.439 Q37.8093 898.365 46.212 898.365 Q54.6147 898.365 59.771 902.439 Q64.9272 906.481 64.9272 912.974 Q64.9272 916.889 63.3994 919.722 Q61.8398 922.523 58.657 924.369 L64.0042 924.369 L64.0042 930.257 L14.479 930.257 L14.479 924.369 L33.7671 924.369 Z" fill="#000000" fill-rule="nonzero" fill-opacity="1" /><path clip-path="url(#clip980)" d="M46.0847 872.457 Q46.0847 879.554 47.7079 882.292 Q49.3312 885.029 53.2461 885.029 Q56.3653 885.029 58.2114 882.992 Q60.0256 880.923 60.0256 877.39 Q60.0256 872.52 56.5881 869.592 Q53.1188 866.632 47.3897 866.632 L46.0847 866.632 L46.0847 872.457 M43.6657 860.776 L64.0042 860.776 L64.0042 866.632 L58.5933 866.632 Q61.8398 868.637 63.3994 871.629 Q64.9272 874.621 64.9272 878.95 Q64.9272 884.424 61.8716 887.671 Q58.7843 890.885 53.6281 890.885 Q47.6125 890.885 44.5569 886.875 Q41.5014 882.833 41.5014 874.844 L41.5014 866.632 L40.9285 866.632 Q36.8862 866.632 34.6901 869.306 Q32.4621 871.947 32.4621 876.753 Q32.4621 879.809 33.1941 882.705 Q33.9262 885.602 35.3903 888.275 L29.9795 888.275 Q28.7381 885.061 28.1334 882.037 Q27.4968 879.013 27.4968 876.149 Q27.4968 868.414 31.5072 864.595 Q35.5176 860.776 43.6657 860.776 Z" fill="#000000" fill-rule="nonzero" fill-opacity="1" /><path clip-path="url(#clip980)" d="M46.212 823.122 Q39.7508 823.122 36.0905 825.796 Q32.3984 828.438 32.3984 833.085 Q32.3984 837.732 36.0905 840.405 Q39.7508 843.047 46.212 843.047 Q52.6732 843.047 56.3653 840.405 Q60.0256 837.732 60.0256 833.085 Q60.0256 828.438 56.3653 825.796 Q52.6732 823.122 46.212 823.122 M33.7671 843.047 Q30.5842 841.201 29.0564 838.4 Q27.4968 835.567 27.4968 831.652 Q27.4968 825.159 32.6531 821.117 Q37.8093 817.043 46.212 817.043 Q54.6147 817.043 59.771 821.117 Q64.9272 825.159 64.9272 831.652 Q64.9272 835.567 63.3994 838.4 Q61.8398 841.201 58.657 843.047 L64.0042 843.047 L64.0042 848.935 L14.479 848.935 L14.479 843.047 L33.7671 843.047 Z" fill="#000000" fill-rule="nonzero" fill-opacity="1" /><path clip-path="url(#clip980)" d="M28.3562 807.335 L28.3562 801.479 L64.0042 801.479 L64.0042 807.335 L28.3562 807.335 M14.479 807.335 L14.479 801.479 L21.895 801.479 L21.895 807.335 L14.479 807.335 Z" fill="#000000" fill-rule="nonzero" fill-opacity="1" /><path clip-path="url(#clip980)" d="M14.479 789.225 L14.479 783.369 L64.0042 783.369 L64.0042 789.225 L14.479 789.225 Z" fill="#000000" fill-rule="nonzero" fill-opacity="1" /><path clip-path="url(#clip980)" d="M28.3562 771.115 L28.3562 765.258 L64.0042 765.258 L64.0042 771.115 L28.3562 771.115 M14.479 771.115 L14.479 765.258 L21.895 765.258 L21.895 771.115 L14.479 771.115 Z" fill="#000000" fill-rule="nonzero" fill-opacity="1" /><path clip-path="url(#clip980)" d="M18.2347 747.211 L28.3562 747.211 L28.3562 735.148 L32.9077 735.148 L32.9077 747.211 L52.2594 747.211 Q56.6199 747.211 57.8613 746.034 Q59.1026 744.824 59.1026 741.164 L59.1026 735.148 L64.0042 735.148 L64.0042 741.164 Q64.0042 747.943 61.4897 750.521 Q58.9434 753.1 52.2594 753.1 L32.9077 753.1 L32.9077 757.396 L28.3562 757.396 L28.3562 753.1 L18.2347 753.1 L18.2347 747.211 Z" fill="#000000" fill-rule="nonzero" fill-opacity="1" /><path clip-path="url(#clip980)" d="M67.3143 712.614 Q73.68 715.096 75.6216 717.452 Q77.5631 719.807 77.5631 723.754 L77.5631 728.432 L72.6615 728.432 L72.6615 724.995 Q72.6615 722.576 71.5157 721.239 Q70.3699 719.902 66.1048 718.279 L63.4312 717.229 L28.3562 731.647 L28.3562 725.441 L56.238 714.301 L28.3562 703.161 L28.3562 696.954 L67.3143 712.614 Z" fill="#000000" fill-rule="nonzero" fill-opacity="1" /><path clip-path="url(#clip980)" d="M33.7671 644.692 L14.479 644.692 L14.479 638.835 L64.0042 638.835 L64.0042 644.692 L58.657 644.692 Q61.8398 646.538 63.3994 649.37 Q64.9272 652.171 64.9272 656.118 Q64.9272 662.579 59.771 666.653 Q54.6147 670.696 46.212 670.696 Q37.8093 670.696 32.6531 666.653 Q27.4968 662.579 27.4968 656.118 Q27.4968 652.171 29.0564 649.37 Q30.5842 646.538 33.7671 644.692 M46.212 664.648 Q52.6732 664.648 56.3653 662.006 Q60.0256 659.333 60.0256 654.686 Q60.0256 650.039 56.3653 647.365 Q52.6732 644.692 46.212 644.692 Q39.7508 644.692 36.0905 647.365 Q32.3984 650.039 32.3984 654.686 Q32.3984 659.333 36.0905 662.006 Q39.7508 664.648 46.212 664.648 Z" fill="#000000" fill-rule="nonzero" fill-opacity="1" /><path clip-path="url(#clip980)" d="M44.7161 596.28 L47.5806 596.28 L47.5806 623.207 Q53.6281 622.825 56.8109 619.579 Q59.9619 616.301 59.9619 610.476 Q59.9619 607.102 59.1344 603.951 Q58.3069 600.768 56.6518 597.649 L62.1899 597.649 Q63.5267 600.8 64.227 604.11 Q64.9272 607.42 64.9272 610.826 Q64.9272 619.356 59.9619 624.353 Q54.9967 629.318 46.5303 629.318 Q37.7774 629.318 32.6531 624.608 Q27.4968 619.865 27.4968 611.845 Q27.4968 604.651 32.1438 600.482 Q36.7589 596.28 44.7161 596.28 M42.9973 602.137 Q38.1912 602.201 35.3266 604.842 Q32.4621 607.452 32.4621 611.781 Q32.4621 616.683 35.2312 619.643 Q38.0002 622.571 43.0292 623.016 L42.9973 602.137 Z" fill="#000000" fill-rule="nonzero" fill-opacity="1" /><path clip-path="url(#clip980)" d="M42.4881 557.036 L64.0042 557.036 L64.0042 562.892 L42.679 562.892 Q37.6183 562.892 35.1038 564.866 Q32.5894 566.839 32.5894 570.786 Q32.5894 575.528 35.6131 578.265 Q38.6368 581.003 43.8567 581.003 L64.0042 581.003 L64.0042 586.891 L28.3562 586.891 L28.3562 581.003 L33.8944 581.003 Q30.6797 578.902 29.0883 576.069 Q27.4968 573.205 27.4968 569.481 Q27.4968 563.338 31.3163 560.187 Q35.1038 557.036 42.4881 557.036 Z" fill="#000000" fill-rule="nonzero" fill-opacity="1" /><path clip-path="url(#clip980)" d="M29.4065 522.629 L34.9447 522.629 Q33.6716 525.112 33.035 527.785 Q32.3984 530.459 32.3984 533.324 Q32.3984 537.684 33.7352 539.88 Q35.072 542.045 37.7456 542.045 Q39.7826 542.045 40.9603 540.485 Q42.1061 538.925 43.1565 534.215 L43.6021 532.21 Q44.9389 525.971 47.3897 523.361 Q49.8086 520.719 54.1691 520.719 Q59.1344 520.719 62.0308 524.666 Q64.9272 528.581 64.9272 535.456 Q64.9272 538.321 64.3543 541.44 Q63.8132 544.527 62.6992 547.965 L56.6518 547.965 Q58.3387 544.718 59.198 541.567 Q60.0256 538.416 60.0256 535.329 Q60.0256 531.191 58.6251 528.963 Q57.1929 526.735 54.6147 526.735 Q52.2276 526.735 50.9545 528.358 Q49.6813 529.95 48.5037 535.392 L48.0262 537.429 Q46.8804 542.872 44.5251 545.291 Q42.138 547.71 38.0002 547.71 Q32.9713 547.71 30.2341 544.145 Q27.4968 540.58 27.4968 534.024 Q27.4968 530.777 27.9743 527.913 Q28.4517 525.048 29.4065 522.629 Z" fill="#000000" fill-rule="nonzero" fill-opacity="1" /><path clip-path="url(#clip980)" d="M28.3562 511.394 L28.3562 505.537 L64.0042 505.537 L64.0042 511.394 L28.3562 511.394 M14.479 511.394 L14.479 505.537 L21.895 505.537 L21.895 511.394 L14.479 511.394 Z" fill="#000000" fill-rule="nonzero" fill-opacity="1" /><path clip-path="url(#clip980)" d="M18.2347 487.49 L28.3562 487.49 L28.3562 475.427 L32.9077 475.427 L32.9077 487.49 L52.2594 487.49 Q56.6199 487.49 57.8613 486.313 Q59.1026 485.103 59.1026 481.443 L59.1026 475.427 L64.0042 475.427 L64.0042 481.443 Q64.0042 488.223 61.4897 490.801 Q58.9434 493.379 52.2594 493.379 L32.9077 493.379 L32.9077 497.676 L28.3562 497.676 L28.3562 493.379 L18.2347 493.379 L18.2347 487.49 Z" fill="#000000" fill-rule="nonzero" fill-opacity="1" /><path clip-path="url(#clip980)" d="M67.3143 452.893 Q73.68 455.376 75.6216 457.731 Q77.5631 460.086 77.5631 464.033 L77.5631 468.712 L72.6615 468.712 L72.6615 465.274 Q72.6615 462.855 71.5157 461.518 Q70.3699 460.182 66.1048 458.558 L63.4312 457.508 L28.3562 471.926 L28.3562 465.72 L56.238 454.58 L28.3562 443.44 L28.3562 437.233 L67.3143 452.893 Z" fill="#000000" fill-rule="nonzero" fill-opacity="1" /><polyline clip-path="url(#clip982)" style="stroke:#009af9; stroke-linecap:round; stroke-linejoin:round; stroke-width:4; stroke-opacity:1; fill:none" points="265.903,1384.23 286.368,1384.24 306.834,1384.24 327.299,1384.2 347.765,1384.2 368.23,1384.2 388.695,1384.2 409.161,1384.15 429.626,1384.07 450.091,1384.22 470.557,1384.2 491.022,1384.17 511.487,1384.12 531.953,1384.17 552.418,1384.1 572.884,1384.08 593.349,1383.73 613.814,1383.88 634.28,1383.89 654.745,1383.62 675.21,1383.53 695.676,1383.54 716.141,1383.07 736.606,1382.93 757.072,1382.85 777.537,1382.65 798.002,1382.53 818.468,1382.01 838.933,1381.43 859.399,1380.61 879.864,1380.11 900.329,1379.2 920.795,1378.51 941.26,1377.2 961.725,1375.52 982.191,1371.22 1002.66,1366.31 1023.12,1361.38 1043.59,1356.64 1064.05,1355 1084.52,1350.35 1104.98,1341.02 1125.45,1337.93 1145.91,1334.01 1166.38,1329.16 1186.84,1325 1207.31,1321.9 1227.78,1315.98 1248.24,1309.87 1268.71,1309.19 1289.17,1307.75 1309.64,1300.14 1330.1,1302.25 1350.57,1295.38 1371.03,1294.95 1391.5,1308.89 1411.96,1328.03 1432.43,1326.36 1452.89,1327.84 1473.36,1327.67 1493.82,1306.43 1514.29,1306.08 1534.76,1310.97 1555.22,1296.27 1575.69,1292.88 1596.15,1302.67 1616.62,1307.02 1637.08,1315.96 1657.55,1320.52 1678.01,1326.03 1698.48,1334.76 1718.94,1339.68 1739.41,1344.72 1759.87,1349.69 1780.34,1355.36 1800.81,1359.79 1821.27,1373.28 1841.74,1374.92 1862.2,1377.47 1882.67,1378.68 1903.13,1379.61 1923.6,1380.6 1944.06,1382.01 1964.53,1382.02 1984.99,1382.69 2005.46,1382.94 2025.92,1383.21 2046.39,1383.59 2066.85,1383.81 2087.32,1383.74 2107.79,1383.8 2128.25,1383.92 2148.72,1383.97 2169.18,1383.99 2189.65,1384.19 2210.11,1384.04 2230.58,1384.22 2271.51,1384.23 2291.97,1384.23 "/>
<polyline clip-path="url(#clip982)" style="stroke:#e26f46; stroke-linecap:round; stroke-linejoin:round; stroke-width:4; stroke-opacity:1; fill:none" points="265.903,1383.97 286.368,1383.9 306.834,1383.79 327.299,1383.67 347.765,1383.5 368.23,1383.3 388.695,1383.03 409.161,1382.71 429.626,1382.29 450.091,1381.78 470.557,1381.14 491.022,1380.34 511.487,1379.36 531.953,1378.15 552.418,1376.67 572.884,1374.86 593.349,1372.67 613.814,1370.01 634.28,1366.8 654.745,1362.95 675.21,1358.35 695.676,1352.88 716.141,1346.4 736.606,1338.77 757.072,1329.82 777.537,1319.37 798.002,1307.25 818.468,1293.25 838.933,1277.17 859.399,1258.81 879.864,1237.95 900.329,1214.39 920.795,1187.96 941.26,1158.47 961.725,1125.78 982.191,1089.78 1002.66,1050.42 1023.12,1007.68 1043.59,961.606 1064.05,912.331 1084.52,860.054 1104.98,805.063 1125.45,747.737 1145.91,688.545 1166.38,628.052 1186.84,566.911 1207.31,505.857 1227.78,445.697 1248.24,387.298 1268.71,331.568 1289.17,279.435 1309.64,231.824 1330.1,189.633 1350.57,153.707 1371.03,124.809 1391.5,103.596 1411.96,90.5958 1432.43,86.1857 1452.89,90.5762 1473.36,103.8 1493.82,125.709 1514.29,155.969 1534.76,194.074 1555.22,239.358 1575.69,291.01 1596.15,348.105 1616.62,409.627 1637.08,474.505 1657.55,541.642 1678.01,609.947 1698.48,678.369 1718.94,745.924 1739.41,811.719 1759.87,874.969 1780.34,935.017 1800.81,991.336 1821.27,1043.54 1841.74,1091.36 1862.2,1134.68 1882.67,1173.47 1903.13,1207.84 1923.6,1237.94 1944.06,1264.01 1964.53,1286.36 1984.99,1305.3 2005.46,1321.18 2025.92,1334.35 2046.39,1345.15 2066.85,1353.91 2087.32,1360.94 2107.79,1366.52 2128.25,1370.9 2148.72,1374.3 2169.18,1376.91 2189.65,1378.89 2210.11,1380.38 2230.58,1381.48 2271.51,1382.87 2291.97,1383.3 "/>
<path clip-path="url(#clip980)" d="M276.709 248.629 L825.776 248.629 L825.776 93.1086 L276.709 93.1086  Z" fill="#ffffff" fill-rule="evenodd" fill-opacity="1"/>
<polyline clip-path="url(#clip980)" style="stroke:#ffffff; stroke-linecap:round; stroke-linejoin:round; stroke-width:4; stroke-opacity:1; fill:none" points="276.709,248.629 825.776,248.629 825.776,93.1086 276.709,93.1086 276.709,248.629 "/>
<polyline clip-path="url(#clip980)" style="stroke:#009af9; stroke-linecap:round; stroke-linejoin:round; stroke-width:4; stroke-opacity:1; fill:none" points="300.571,144.949 443.747,144.949 "/>
<path clip-path="url(#clip980)" d="M467.61 127.669 L472.286 127.669 L472.286 141.835 L489.276 141.835 L489.276 127.669 L493.952 127.669 L493.952 162.229 L489.276 162.229 L489.276 145.77 L472.286 145.77 L472.286 162.229 L467.61 162.229 L467.61 127.669 Z" fill="#000000" fill-rule="nonzero" fill-opacity="1" /><path clip-path="url(#clip980)" d="M503.072 136.303 L507.332 136.303 L507.332 162.229 L503.072 162.229 L503.072 136.303 M503.072 126.21 L507.332 126.21 L507.332 131.604 L503.072 131.604 L503.072 126.21 Z" fill="#000000" fill-rule="nonzero" fill-opacity="1" /><path clip-path="url(#clip980)" d="M532.771 137.067 L532.771 141.094 Q530.966 140.169 529.021 139.706 Q527.077 139.243 524.994 139.243 Q521.822 139.243 520.225 140.215 Q518.651 141.187 518.651 143.131 Q518.651 144.613 519.785 145.469 Q520.92 146.303 524.345 147.067 L525.804 147.391 Q530.341 148.363 532.239 150.145 Q534.16 151.905 534.16 155.076 Q534.16 158.687 531.29 160.793 Q528.443 162.9 523.443 162.9 Q521.359 162.9 519.091 162.483 Q516.846 162.09 514.346 161.28 L514.346 156.881 Q516.707 158.108 518.998 158.733 Q521.29 159.335 523.535 159.335 Q526.545 159.335 528.165 158.317 Q529.785 157.275 529.785 155.4 Q529.785 153.664 528.605 152.738 Q527.447 151.812 523.489 150.956 L522.008 150.608 Q518.049 149.775 516.29 148.062 Q514.531 146.326 514.531 143.317 Q514.531 139.659 517.123 137.669 Q519.716 135.678 524.484 135.678 Q526.845 135.678 528.929 136.025 Q531.012 136.372 532.771 137.067 Z" fill="#000000" fill-rule="nonzero" fill-opacity="1" /><path clip-path="url(#clip980)" d="M545.156 128.942 L545.156 136.303 L553.929 136.303 L553.929 139.613 L545.156 139.613 L545.156 153.687 Q545.156 156.858 546.012 157.761 Q546.892 158.664 549.554 158.664 L553.929 158.664 L553.929 162.229 L549.554 162.229 Q544.623 162.229 542.748 160.4 Q540.873 158.548 540.873 153.687 L540.873 139.613 L537.748 139.613 L537.748 136.303 L540.873 136.303 L540.873 128.942 L545.156 128.942 Z" fill="#000000" fill-rule="nonzero" fill-opacity="1" /><path clip-path="url(#clip980)" d="M569.577 139.289 Q566.151 139.289 564.16 141.974 Q562.169 144.636 562.169 149.289 Q562.169 153.942 564.137 156.627 Q566.128 159.289 569.577 159.289 Q572.979 159.289 574.97 156.604 Q576.961 153.918 576.961 149.289 Q576.961 144.682 574.97 141.997 Q572.979 139.289 569.577 139.289 M569.577 135.678 Q575.132 135.678 578.304 139.289 Q581.475 142.9 581.475 149.289 Q581.475 155.655 578.304 159.289 Q575.132 162.9 569.577 162.9 Q563.998 162.9 560.827 159.289 Q557.679 155.655 557.679 149.289 Q557.679 142.9 560.827 139.289 Q563.998 135.678 569.577 135.678 Z" fill="#000000" fill-rule="nonzero" fill-opacity="1" /><path clip-path="url(#clip980)" d="M605.595 148.965 Q605.595 144.335 603.674 141.789 Q601.776 139.243 598.327 139.243 Q594.901 139.243 592.979 141.789 Q591.081 144.335 591.081 148.965 Q591.081 153.571 592.979 156.118 Q594.901 158.664 598.327 158.664 Q601.776 158.664 603.674 156.118 Q605.595 153.571 605.595 148.965 M609.854 159.011 Q609.854 165.631 606.914 168.849 Q603.975 172.09 597.91 172.09 Q595.665 172.09 593.674 171.742 Q591.683 171.418 589.808 170.724 L589.808 166.58 Q591.683 167.599 593.512 168.085 Q595.34 168.571 597.239 168.571 Q601.428 168.571 603.512 166.372 Q605.595 164.196 605.595 159.775 L605.595 157.668 Q604.276 159.96 602.215 161.094 Q600.155 162.229 597.285 162.229 Q592.516 162.229 589.6 158.594 Q586.683 154.96 586.683 148.965 Q586.683 142.946 589.6 139.312 Q592.516 135.678 597.285 135.678 Q600.155 135.678 602.215 136.812 Q604.276 137.946 605.595 140.238 L605.595 136.303 L609.854 136.303 L609.854 159.011 Z" fill="#000000" fill-rule="nonzero" fill-opacity="1" /><path clip-path="url(#clip980)" d="M633.65 140.284 Q632.933 139.868 632.076 139.682 Q631.243 139.474 630.225 139.474 Q626.613 139.474 624.669 141.835 Q622.748 144.173 622.748 148.571 L622.748 162.229 L618.465 162.229 L618.465 136.303 L622.748 136.303 L622.748 140.331 Q624.09 137.969 626.243 136.835 Q628.396 135.678 631.475 135.678 Q631.914 135.678 632.447 135.747 Q632.979 135.794 633.627 135.909 L633.65 140.284 Z" fill="#000000" fill-rule="nonzero" fill-opacity="1" /><path clip-path="url(#clip980)" d="M649.9 149.196 Q644.738 149.196 642.748 150.377 Q640.757 151.557 640.757 154.405 Q640.757 156.673 642.238 158.016 Q643.743 159.335 646.312 159.335 Q649.854 159.335 651.984 156.835 Q654.136 154.312 654.136 150.145 L654.136 149.196 L649.9 149.196 M658.396 147.437 L658.396 162.229 L654.136 162.229 L654.136 158.293 Q652.678 160.655 650.502 161.789 Q648.326 162.9 645.178 162.9 Q641.197 162.9 638.836 160.678 Q636.498 158.432 636.498 154.682 Q636.498 150.307 639.414 148.085 Q642.354 145.863 648.164 145.863 L654.136 145.863 L654.136 145.446 Q654.136 142.507 652.192 140.909 Q650.271 139.289 646.775 139.289 Q644.553 139.289 642.447 139.821 Q640.34 140.354 638.396 141.419 L638.396 137.483 Q640.734 136.581 642.933 136.141 Q645.132 135.678 647.215 135.678 Q652.84 135.678 655.618 138.594 Q658.396 141.511 658.396 147.437 Z" fill="#000000" fill-rule="nonzero" fill-opacity="1" /><path clip-path="url(#clip980)" d="M687.354 141.28 Q688.951 138.409 691.173 137.044 Q693.396 135.678 696.405 135.678 Q700.456 135.678 702.655 138.525 Q704.854 141.349 704.854 146.581 L704.854 162.229 L700.571 162.229 L700.571 146.719 Q700.571 142.993 699.252 141.187 Q697.933 139.382 695.224 139.382 Q691.914 139.382 689.993 141.581 Q688.071 143.78 688.071 147.576 L688.071 162.229 L683.789 162.229 L683.789 146.719 Q683.789 142.969 682.47 141.187 Q681.15 139.382 678.396 139.382 Q675.132 139.382 673.21 141.604 Q671.289 143.803 671.289 147.576 L671.289 162.229 L667.007 162.229 L667.007 136.303 L671.289 136.303 L671.289 140.331 Q672.747 137.946 674.785 136.812 Q676.822 135.678 679.622 135.678 Q682.447 135.678 684.414 137.113 Q686.405 138.548 687.354 141.28 Z" fill="#000000" fill-rule="nonzero" fill-opacity="1" /><polyline clip-path="url(#clip980)" style="stroke:#e26f46; stroke-linecap:round; stroke-linejoin:round; stroke-width:4; stroke-opacity:1; fill:none" points="300.571,196.789 443.747,196.789 "/>
<path clip-path="url(#clip980)" d="M472.286 183.351 L472.286 210.226 L477.934 210.226 Q485.086 210.226 488.397 206.985 Q491.73 203.745 491.73 196.754 Q491.73 189.809 488.397 186.592 Q485.086 183.351 477.934 183.351 L472.286 183.351 M467.61 179.509 L477.216 179.509 Q487.262 179.509 491.961 183.698 Q496.66 187.865 496.66 196.754 Q496.66 205.689 491.938 209.879 Q487.216 214.069 477.216 214.069 L467.61 214.069 L467.61 179.509 Z" fill="#000000" fill-rule="nonzero" fill-opacity="1" /><path clip-path="url(#clip980)" d="M503.929 188.143 L508.188 188.143 L508.188 214.069 L503.929 214.069 L503.929 188.143 M503.929 178.05 L508.188 178.05 L508.188 183.444 L503.929 183.444 L503.929 178.05 Z" fill="#000000" fill-rule="nonzero" fill-opacity="1" /><path clip-path="url(#clip980)" d="M533.628 188.907 L533.628 192.934 Q531.822 192.009 529.878 191.546 Q527.933 191.083 525.85 191.083 Q522.679 191.083 521.082 192.055 Q519.508 193.027 519.508 194.971 Q519.508 196.453 520.642 197.309 Q521.776 198.143 525.202 198.907 L526.66 199.231 Q531.197 200.203 533.095 201.985 Q535.017 203.745 535.017 206.916 Q535.017 210.527 532.146 212.633 Q529.299 214.74 524.299 214.74 Q522.216 214.74 519.947 214.323 Q517.702 213.93 515.202 213.12 L515.202 208.721 Q517.563 209.948 519.855 210.573 Q522.146 211.175 524.392 211.175 Q527.401 211.175 529.021 210.157 Q530.642 209.115 530.642 207.24 Q530.642 205.504 529.461 204.578 Q528.304 203.652 524.345 202.796 L522.864 202.448 Q518.906 201.615 517.146 199.902 Q515.387 198.166 515.387 195.157 Q515.387 191.499 517.98 189.509 Q520.572 187.518 525.341 187.518 Q527.702 187.518 529.785 187.865 Q531.869 188.212 533.628 188.907 Z" fill="#000000" fill-rule="nonzero" fill-opacity="1" /><path clip-path="url(#clip980)" d="M546.012 180.782 L546.012 188.143 L554.785 188.143 L554.785 191.453 L546.012 191.453 L546.012 205.527 Q546.012 208.698 546.869 209.601 Q547.748 210.504 550.41 210.504 L554.785 210.504 L554.785 214.069 L550.41 214.069 Q545.48 214.069 543.605 212.24 Q541.73 210.388 541.73 205.527 L541.73 191.453 L538.605 191.453 L538.605 188.143 L541.73 188.143 L541.73 180.782 L546.012 180.782 Z" fill="#000000" fill-rule="nonzero" fill-opacity="1" /><path clip-path="url(#clip980)" d="M575.41 192.124 Q574.692 191.708 573.836 191.522 Q573.003 191.314 571.984 191.314 Q568.373 191.314 566.429 193.675 Q564.507 196.013 564.507 200.411 L564.507 214.069 L560.225 214.069 L560.225 188.143 L564.507 188.143 L564.507 192.171 Q565.85 189.809 568.003 188.675 Q570.155 187.518 573.234 187.518 Q573.674 187.518 574.206 187.587 Q574.739 187.634 575.387 187.749 L575.41 192.124 Z" fill="#000000" fill-rule="nonzero" fill-opacity="1" /><path clip-path="url(#clip980)" d="M579.878 188.143 L584.137 188.143 L584.137 214.069 L579.878 214.069 L579.878 188.143 M579.878 178.05 L584.137 178.05 L584.137 183.444 L579.878 183.444 L579.878 178.05 Z" fill="#000000" fill-rule="nonzero" fill-opacity="1" /><path clip-path="url(#clip980)" d="M611.66 201.129 Q611.66 196.43 609.715 193.768 Q607.794 191.083 604.415 191.083 Q601.035 191.083 599.09 193.768 Q597.169 196.43 597.169 201.129 Q597.169 205.828 599.09 208.513 Q601.035 211.175 604.415 211.175 Q607.794 211.175 609.715 208.513 Q611.66 205.828 611.66 201.129 M597.169 192.078 Q598.512 189.763 600.549 188.652 Q602.609 187.518 605.456 187.518 Q610.178 187.518 613.118 191.268 Q616.081 195.018 616.081 201.129 Q616.081 207.24 613.118 210.99 Q610.178 214.74 605.456 214.74 Q602.609 214.74 600.549 213.629 Q598.512 212.495 597.169 210.18 L597.169 214.069 L592.887 214.069 L592.887 178.05 L597.169 178.05 L597.169 192.078 Z" fill="#000000" fill-rule="nonzero" fill-opacity="1" /><path clip-path="url(#clip980)" d="M622.701 203.837 L622.701 188.143 L626.961 188.143 L626.961 203.675 Q626.961 207.356 628.396 209.208 Q629.831 211.036 632.701 211.036 Q636.15 211.036 638.141 208.837 Q640.155 206.638 640.155 202.842 L640.155 188.143 L644.414 188.143 L644.414 214.069 L640.155 214.069 L640.155 210.087 Q638.604 212.448 636.544 213.606 Q634.507 214.74 631.799 214.74 Q627.331 214.74 625.016 211.962 Q622.701 209.184 622.701 203.837 M633.419 187.518 L633.419 187.518 Z" fill="#000000" fill-rule="nonzero" fill-opacity="1" /><path clip-path="url(#clip980)" d="M657.4 180.782 L657.4 188.143 L666.173 188.143 L666.173 191.453 L657.4 191.453 L657.4 205.527 Q657.4 208.698 658.257 209.601 Q659.136 210.504 661.798 210.504 L666.173 210.504 L666.173 214.069 L661.798 214.069 Q656.868 214.069 654.993 212.24 Q653.118 210.388 653.118 205.527 L653.118 191.453 L649.993 191.453 L649.993 188.143 L653.118 188.143 L653.118 180.782 L657.4 180.782 Z" fill="#000000" fill-rule="nonzero" fill-opacity="1" /><path clip-path="url(#clip980)" d="M671.775 188.143 L676.034 188.143 L676.034 214.069 L671.775 214.069 L671.775 188.143 M671.775 178.05 L676.034 178.05 L676.034 183.444 L671.775 183.444 L671.775 178.05 Z" fill="#000000" fill-rule="nonzero" fill-opacity="1" /><path clip-path="url(#clip980)" d="M694.993 191.129 Q691.567 191.129 689.576 193.814 Q687.585 196.476 687.585 201.129 Q687.585 205.782 689.553 208.467 Q691.544 211.129 694.993 211.129 Q698.395 211.129 700.386 208.444 Q702.377 205.758 702.377 201.129 Q702.377 196.522 700.386 193.837 Q698.395 191.129 694.993 191.129 M694.993 187.518 Q700.548 187.518 703.72 191.129 Q706.891 194.74 706.891 201.129 Q706.891 207.495 703.72 211.129 Q700.548 214.74 694.993 214.74 Q689.414 214.74 686.243 211.129 Q683.095 207.495 683.095 201.129 Q683.095 194.74 686.243 191.129 Q689.414 187.518 694.993 187.518 Z" fill="#000000" fill-rule="nonzero" fill-opacity="1" /><path clip-path="url(#clip980)" d="M735.502 198.421 L735.502 214.069 L731.243 214.069 L731.243 198.559 Q731.243 194.879 729.807 193.05 Q728.372 191.222 725.502 191.222 Q722.053 191.222 720.062 193.421 Q718.071 195.62 718.071 199.416 L718.071 214.069 L713.789 214.069 L713.789 188.143 L718.071 188.143 L718.071 192.171 Q719.599 189.833 721.659 188.675 Q723.743 187.518 726.451 187.518 Q730.918 187.518 733.21 190.296 Q735.502 193.05 735.502 198.421 Z" fill="#000000" fill-rule="nonzero" fill-opacity="1" /><path clip-path="url(#clip980)" d="M772.191 178.05 L772.191 181.592 L768.117 181.592 Q765.826 181.592 764.923 182.518 Q764.043 183.444 764.043 185.851 L764.043 188.143 L771.057 188.143 L771.057 191.453 L764.043 191.453 L764.043 214.069 L759.761 214.069 L759.761 191.453 L755.687 191.453 L755.687 188.143 L759.761 188.143 L759.761 186.337 Q759.761 182.009 761.775 180.041 Q763.789 178.05 768.164 178.05 L772.191 178.05 Z" fill="#000000" fill-rule="nonzero" fill-opacity="1" /><path clip-path="url(#clip980)" d="M775.756 188.143 L780.015 188.143 L780.015 214.069 L775.756 214.069 L775.756 188.143 M775.756 178.05 L780.015 178.05 L780.015 183.444 L775.756 183.444 L775.756 178.05 Z" fill="#000000" fill-rule="nonzero" fill-opacity="1" /><path clip-path="url(#clip980)" d="M793.14 180.782 L793.14 188.143 L801.913 188.143 L801.913 191.453 L793.14 191.453 L793.14 205.527 Q793.14 208.698 793.997 209.601 Q794.876 210.504 797.538 210.504 L801.913 210.504 L801.913 214.069 L797.538 214.069 Q792.608 214.069 790.733 212.24 Q788.858 210.388 788.858 205.527 L788.858 191.453 L785.733 191.453 L785.733 188.143 L788.858 188.143 L788.858 180.782 L793.14 180.782 Z" fill="#000000" fill-rule="nonzero" fill-opacity="1" /></svg>
