<?xml version="1.0" encoding="utf-8"?>
<svg xmlns="http://www.w3.org/2000/svg" xmlns:xlink="http://www.w3.org/1999/xlink" width="600" height="400" viewBox="0 0 2400 1600">
<defs>
  <clipPath id="clip940">
    <rect x="0" y="0" width="2400" height="1600"/>
  </clipPath>
</defs>
<path clip-path="url(#clip940)" d="M0 1600 L2400 1600 L2400 8.88178e-14 L0 8.88178e-14  Z" fill="#ffffff" fill-rule="evenodd" fill-opacity="1"/>
<defs>
  <clipPath id="clip941">
    <rect x="480" y="0" width="1681" height="1600"/>
  </clipPath>
</defs>
<path clip-path="url(#clip940)" d="M249.843 1552.76 L2352.76 1552.76 L2352.76 47.2441 L249.843 47.2441  Z" fill="#ffffff" fill-rule="evenodd" fill-opacity="1"/>
<defs>
  <clipPath id="clip942">
    <rect x="249" y="47" width="2104" height="1507"/>
  </clipPath>
</defs>
<polyline clip-path="url(#clip942)" style="stroke:#000000; stroke-linecap:round; stroke-linejoin:round; stroke-width:2; stroke-opacity:0.1; fill:none" points="249.843,1386.64 2352.76,1386.64 "/>
<polyline clip-path="url(#clip942)" style="stroke:#000000; stroke-linecap:round; stroke-linejoin:round; stroke-width:2; stroke-opacity:0.1; fill:none" points="249.843,1180.8 2352.76,1180.8 "/>
<polyline clip-path="url(#clip942)" style="stroke:#000000; stroke-linecap:round; stroke-linejoin:round; stroke-width:2; stroke-opacity:0.1; fill:none" points="249.843,974.964 2352.76,974.964 "/>
<polyline clip-path="url(#clip942)" style="stroke:#000000; stroke-linecap:round; stroke-linejoin:round; stroke-width:2; stroke-opacity:0.1; fill:none" points="249.843,769.124 2352.76,769.124 "/>
<polyline clip-path="url(#clip942)" style="stroke:#000000; stroke-linecap:round; stroke-linejoin:round; stroke-width:2; stroke-opacity:0.1; fill:none" points="249.843,563.284 2352.76,563.284 "/>
<polyline clip-path="url(#clip942)" style="stroke:#000000; stroke-linecap:round; stroke-linejoin:round; stroke-width:2; stroke-opacity:0.1; fill:none" points="249.843,357.445 2352.76,357.445 "/>
<polyline clip-path="url(#clip942)" style="stroke:#000000; stroke-linecap:round; stroke-linejoin:round; stroke-width:2; stroke-opacity:0.1; fill:none" points="249.843,151.605 2352.76,151.605 "/>
<polyline clip-path="url(#clip942)" style="stroke:#000000; stroke-linecap:round; stroke-linejoin:round; stroke-width:2; stroke-opacity:0.1; fill:none" points="249.843,1386.64 2352.76,1386.64 "/>
<polyline clip-path="url(#clip942)" style="stroke:#000000; stroke-linecap:round; stroke-linejoin:round; stroke-width:2; stroke-opacity:0.1; fill:none" points="249.843,1180.8 2352.76,1180.8 "/>
<polyline clip-path="url(#clip942)" style="stroke:#000000; stroke-linecap:round; stroke-linejoin:round; stroke-width:2; stroke-opacity:0.1; fill:none" points="249.843,974.964 2352.76,974.964 "/>
<polyline clip-path="url(#clip942)" style="stroke:#000000; stroke-linecap:round; stroke-linejoin:round; stroke-width:2; stroke-opacity:0.1; fill:none" points="249.843,769.124 2352.76,769.124 "/>
<polyline clip-path="url(#clip942)" style="stroke:#000000; stroke-linecap:round; stroke-linejoin:round; stroke-width:2; stroke-opacity:0.1; fill:none" points="249.843,563.284 2352.76,563.284 "/>
<polyline clip-path="url(#clip942)" style="stroke:#000000; stroke-linecap:round; stroke-linejoin:round; stroke-width:2; stroke-opacity:0.1; fill:none" points="249.843,357.445 2352.76,357.445 "/>
<polyline clip-path="url(#clip942)" style="stroke:#000000; stroke-linecap:round; stroke-linejoin:round; stroke-width:2; stroke-opacity:0.1; fill:none" points="249.843,151.605 2352.76,151.605 "/>
<polyline clip-path="url(#clip940)" style="stroke:#000000; stroke-linecap:round; stroke-linejoin:round; stroke-width:4; stroke-opacity:1; fill:none" points="249.843,1552.76 2352.76,1552.76 "/>
<polyline clip-path="url(#clip940)" style="stroke:#000000; stroke-linecap:round; stroke-linejoin:round; stroke-width:4; stroke-opacity:1; fill:none" points="249.843,47.2441 2352.76,47.2441 "/>
<polyline clip-path="url(#clip940)" style="stroke:#000000; stroke-linecap:round; stroke-linejoin:round; stroke-width:4; stroke-opacity:1; fill:none" points="249.843,1552.76 249.843,47.2441 "/>
<polyline clip-path="url(#clip940)" style="stroke:#000000; stroke-linecap:round; stroke-linejoin:round; stroke-width:4; stroke-opacity:1; fill:none" points="2352.76,1552.76 2352.76,47.2441 "/>
<polyline clip-path="url(#clip940)" style="stroke:#000000; stroke-linecap:round; stroke-linejoin:round; stroke-width:4; stroke-opacity:1; fill:none" points="249.843,1386.64 268.741,1386.64 "/>
<polyline clip-path="url(#clip940)" style="stroke:#000000; stroke-linecap:round; stroke-linejoin:round; stroke-width:4; stroke-opacity:1; fill:none" points="249.843,1180.8 268.741,1180.8 "/>
<polyline clip-path="url(#clip940)" style="stroke:#000000; stroke-linecap:round; stroke-linejoin:round; stroke-width:4; stroke-opacity:1; fill:none" points="249.843,974.964 268.741,974.964 "/>
<polyline clip-path="url(#clip940)" style="stroke:#000000; stroke-linecap:round; stroke-linejoin:round; stroke-width:4; stroke-opacity:1; fill:none" points="249.843,769.124 268.741,769.124 "/>
<polyline clip-path="url(#clip940)" style="stroke:#000000; stroke-linecap:round; stroke-linejoin:round; stroke-width:4; stroke-opacity:1; fill:none" points="249.843,563.284 268.741,563.284 "/>
<polyline clip-path="url(#clip940)" style="stroke:#000000; stroke-linecap:round; stroke-linejoin:round; stroke-width:4; stroke-opacity:1; fill:none" points="249.843,357.445 268.741,357.445 "/>
<polyline clip-path="url(#clip940)" style="stroke:#000000; stroke-linecap:round; stroke-linejoin:round; stroke-width:4; stroke-opacity:1; fill:none" points="249.843,151.605 268.741,151.605 "/>
<polyline clip-path="url(#clip940)" style="stroke:#000000; stroke-linecap:round; stroke-linejoin:round; stroke-width:4; stroke-opacity:1; fill:none" points="2352.76,1386.64 2333.86,1386.64 "/>
<polyline clip-path="url(#clip940)" style="stroke:#000000; stroke-linecap:round; stroke-linejoin:round; stroke-width:4; stroke-opacity:1; fill:none" points="2352.76,1180.8 2333.86,1180.8 "/>
<polyline clip-path="url(#clip940)" style="stroke:#000000; stroke-linecap:round; stroke-linejoin:round; stroke-width:4; stroke-opacity:1; fill:none" points="2352.76,974.964 2333.86,974.964 "/>
<polyline clip-path="url(#clip940)" style="stroke:#000000; stroke-linecap:round; stroke-linejoin:round; stroke-width:4; stroke-opacity:1; fill:none" points="2352.76,769.124 2333.86,769.124 "/>
<polyline clip-path="url(#clip940)" style="stroke:#000000; stroke-linecap:round; stroke-linejoin:round; stroke-width:4; stroke-opacity:1; fill:none" points="2352.76,563.284 2333.86,563.284 "/>
<polyline clip-path="url(#clip940)" style="stroke:#000000; stroke-linecap:round; stroke-linejoin:round; stroke-width:4; stroke-opacity:1; fill:none" points="2352.76,357.445 2333.86,357.445 "/>
<polyline clip-path="url(#clip940)" style="stroke:#000000; stroke-linecap:round; stroke-linejoin:round; stroke-width:4; stroke-opacity:1; fill:none" points="2352.76,151.605 2333.86,151.605 "/>
<path clip-path="url(#clip940)" d="M126.598 1384.78 Q123.45 1384.78 121.598 1386.93 Q119.769 1389.09 119.769 1392.84 Q119.769 1396.56 121.598 1398.74 Q123.45 1400.89 126.598 1400.89 Q129.746 1400.89 131.575 1398.74 Q133.427 1396.56 133.427 1392.84 Q133.427 1389.09 131.575 1386.93 Q129.746 1384.78 126.598 1384.78 M135.88 1370.13 L135.88 1374.39 Q134.121 1373.55 132.316 1373.11 Q130.533 1372.67 128.774 1372.67 Q124.144 1372.67 121.691 1375.8 Q119.26 1378.92 118.913 1385.24 Q120.279 1383.23 122.339 1382.16 Q124.399 1381.08 126.876 1381.08 Q132.084 1381.08 135.093 1384.25 Q138.126 1387.4 138.126 1392.84 Q138.126 1398.16 134.978 1401.38 Q131.83 1404.59 126.598 1404.59 Q120.603 1404.59 117.431 1400.01 Q114.26 1395.4 114.26 1386.68 Q114.26 1378.48 118.149 1373.62 Q122.038 1368.74 128.589 1368.74 Q130.348 1368.74 132.13 1369.09 Q133.936 1369.43 135.88 1370.13 Z" fill="#000000" fill-rule="nonzero" fill-opacity="1" /><path clip-path="url(#clip940)" d="M146.228 1369.36 L164.584 1369.36 L164.584 1373.3 L150.51 1373.3 L150.51 1381.77 Q151.528 1381.42 152.547 1381.26 Q153.566 1381.08 154.584 1381.08 Q160.371 1381.08 163.751 1384.25 Q167.13 1387.42 167.13 1392.84 Q167.13 1398.41 163.658 1401.52 Q160.186 1404.59 153.866 1404.59 Q151.691 1404.59 149.422 1404.22 Q147.177 1403.85 144.769 1403.11 L144.769 1398.41 Q146.853 1399.55 149.075 1400.1 Q151.297 1400.66 153.774 1400.66 Q157.778 1400.66 160.116 1398.55 Q162.454 1396.45 162.454 1392.84 Q162.454 1389.22 160.116 1387.12 Q157.778 1385.01 153.774 1385.01 Q151.899 1385.01 150.024 1385.43 Q148.172 1385.84 146.228 1386.72 L146.228 1369.36 Z" fill="#000000" fill-rule="nonzero" fill-opacity="1" /><path clip-path="url(#clip940)" d="M176.343 1398.04 L181.227 1398.04 L181.227 1403.92 L176.343 1403.92 L176.343 1398.04 Z" fill="#000000" fill-rule="nonzero" fill-opacity="1" /><path clip-path="url(#clip940)" d="M204.26 1373.44 L192.454 1391.89 L204.26 1391.89 L204.26 1373.44 M203.033 1369.36 L208.912 1369.36 L208.912 1391.89 L213.843 1391.89 L213.843 1395.78 L208.912 1395.78 L208.912 1403.92 L204.26 1403.92 L204.26 1395.78 L188.658 1395.78 L188.658 1391.26 L203.033 1369.36 Z" fill="#000000" fill-rule="nonzero" fill-opacity="1" /><path clip-path="url(#clip940)" d="M128.08 1178.94 Q124.931 1178.94 123.08 1181.09 Q121.251 1183.25 121.251 1187 Q121.251 1190.72 123.08 1192.9 Q124.931 1195.05 128.08 1195.05 Q131.228 1195.05 133.056 1192.9 Q134.908 1190.72 134.908 1187 Q134.908 1183.25 133.056 1181.09 Q131.228 1178.94 128.08 1178.94 M137.362 1164.29 L137.362 1168.55 Q135.603 1167.71 133.797 1167.27 Q132.015 1166.83 130.255 1166.83 Q125.626 1166.83 123.172 1169.96 Q120.742 1173.08 120.394 1179.4 Q121.76 1177.39 123.82 1176.32 Q125.88 1175.24 128.357 1175.24 Q133.566 1175.24 136.575 1178.41 Q139.607 1181.56 139.607 1187 Q139.607 1192.32 136.459 1195.54 Q133.311 1198.75 128.08 1198.75 Q122.084 1198.75 118.913 1194.17 Q115.742 1189.57 115.742 1180.84 Q115.742 1172.64 119.63 1167.78 Q123.519 1162.9 130.07 1162.9 Q131.83 1162.9 133.612 1163.25 Q135.417 1163.59 137.362 1164.29 Z" fill="#000000" fill-rule="nonzero" fill-opacity="1" /><path clip-path="url(#clip940)" d="M147.709 1163.52 L166.065 1163.52 L166.065 1167.46 L151.991 1167.46 L151.991 1175.93 Q153.01 1175.58 154.028 1175.42 Q155.047 1175.24 156.065 1175.24 Q161.852 1175.24 165.232 1178.41 Q168.612 1181.58 168.612 1187 Q168.612 1192.57 165.14 1195.68 Q161.667 1198.75 155.348 1198.75 Q153.172 1198.75 150.903 1198.38 Q148.658 1198.01 146.251 1197.27 L146.251 1192.57 Q148.334 1193.71 150.556 1194.26 Q152.778 1194.82 155.255 1194.82 Q159.26 1194.82 161.598 1192.71 Q163.936 1190.61 163.936 1187 Q163.936 1183.38 161.598 1181.28 Q159.26 1179.17 155.255 1179.17 Q153.38 1179.17 151.505 1179.59 Q149.653 1180 147.709 1180.88 L147.709 1163.52 Z" fill="#000000" fill-rule="nonzero" fill-opacity="1" /><path clip-path="url(#clip940)" d="M177.825 1192.2 L182.709 1192.2 L182.709 1198.08 L177.825 1198.08 L177.825 1192.2 Z" fill="#000000" fill-rule="nonzero" fill-opacity="1" /><path clip-path="url(#clip940)" d="M192.94 1163.52 L211.297 1163.52 L211.297 1167.46 L197.223 1167.46 L197.223 1175.93 Q198.241 1175.58 199.26 1175.42 Q200.278 1175.24 201.297 1175.24 Q207.084 1175.24 210.463 1178.41 Q213.843 1181.58 213.843 1187 Q213.843 1192.57 210.371 1195.68 Q206.899 1198.75 200.579 1198.75 Q198.403 1198.75 196.135 1198.38 Q193.889 1198.01 191.482 1197.27 L191.482 1192.57 Q193.565 1193.71 195.787 1194.26 Q198.01 1194.82 200.487 1194.82 Q204.491 1194.82 206.829 1192.71 Q209.167 1190.61 209.167 1187 Q209.167 1183.38 206.829 1181.28 Q204.491 1179.17 200.487 1179.17 Q198.612 1179.17 196.737 1179.59 Q194.885 1180 192.94 1180.88 L192.94 1163.52 Z" fill="#000000" fill-rule="nonzero" fill-opacity="1" /><path clip-path="url(#clip940)" d="M126.922 973.1 Q123.774 973.1 121.922 975.253 Q120.093 977.406 120.093 981.156 Q120.093 984.883 121.922 987.059 Q123.774 989.211 126.922 989.211 Q130.07 989.211 131.899 987.059 Q133.751 984.883 133.751 981.156 Q133.751 977.406 131.899 975.253 Q130.07 973.1 126.922 973.1 M136.204 958.448 L136.204 962.707 Q134.445 961.874 132.64 961.434 Q130.857 960.994 129.098 960.994 Q124.468 960.994 122.015 964.119 Q119.584 967.244 119.237 973.563 Q120.603 971.549 122.663 970.485 Q124.723 969.397 127.2 969.397 Q132.408 969.397 135.417 972.568 Q138.45 975.716 138.45 981.156 Q138.45 986.48 135.302 989.697 Q132.154 992.915 126.922 992.915 Q120.927 992.915 117.756 988.332 Q114.584 983.725 114.584 974.998 Q114.584 966.804 118.473 961.943 Q122.362 957.059 128.913 957.059 Q130.672 957.059 132.455 957.406 Q134.26 957.753 136.204 958.448 Z" fill="#000000" fill-rule="nonzero" fill-opacity="1" /><path clip-path="url(#clip940)" d="M146.552 957.684 L164.908 957.684 L164.908 961.619 L150.834 961.619 L150.834 970.091 Q151.853 969.744 152.871 969.582 Q153.89 969.397 154.908 969.397 Q160.695 969.397 164.075 972.568 Q167.454 975.739 167.454 981.156 Q167.454 986.735 163.982 989.836 Q160.51 992.915 154.19 992.915 Q152.015 992.915 149.746 992.545 Q147.501 992.174 145.093 991.434 L145.093 986.735 Q147.177 987.869 149.399 988.424 Q151.621 988.98 154.098 988.98 Q158.103 988.98 160.44 986.873 Q162.778 984.767 162.778 981.156 Q162.778 977.545 160.44 975.438 Q158.103 973.332 154.098 973.332 Q152.223 973.332 150.348 973.749 Q148.496 974.165 146.552 975.045 L146.552 957.684 Z" fill="#000000" fill-rule="nonzero" fill-opacity="1" /><path clip-path="url(#clip940)" d="M176.667 986.364 L181.551 986.364 L181.551 992.244 L176.667 992.244 L176.667 986.364 Z" fill="#000000" fill-rule="nonzero" fill-opacity="1" /><path clip-path="url(#clip940)" d="M202.315 973.1 Q199.167 973.1 197.315 975.253 Q195.487 977.406 195.487 981.156 Q195.487 984.883 197.315 987.059 Q199.167 989.211 202.315 989.211 Q205.463 989.211 207.292 987.059 Q209.144 984.883 209.144 981.156 Q209.144 977.406 207.292 975.253 Q205.463 973.1 202.315 973.1 M211.598 958.448 L211.598 962.707 Q209.838 961.874 208.033 961.434 Q206.25 960.994 204.491 960.994 Q199.862 960.994 197.408 964.119 Q194.977 967.244 194.63 973.563 Q195.996 971.549 198.056 970.485 Q200.116 969.397 202.593 969.397 Q207.801 969.397 210.811 972.568 Q213.843 975.716 213.843 981.156 Q213.843 986.48 210.695 989.697 Q207.547 992.915 202.315 992.915 Q196.32 992.915 193.149 988.332 Q189.977 983.725 189.977 974.998 Q189.977 966.804 193.866 961.943 Q197.755 957.059 204.306 957.059 Q206.065 957.059 207.848 957.406 Q209.653 957.753 211.598 958.448 Z" fill="#000000" fill-rule="nonzero" fill-opacity="1" /><path clip-path="url(#clip940)" d="M127.987 767.261 Q124.839 767.261 122.987 769.413 Q121.158 771.566 121.158 775.316 Q121.158 779.043 122.987 781.219 Q124.839 783.372 127.987 783.372 Q131.135 783.372 132.964 781.219 Q134.816 779.043 134.816 775.316 Q134.816 771.566 132.964 769.413 Q131.135 767.261 127.987 767.261 M137.269 752.608 L137.269 756.867 Q135.51 756.034 133.704 755.594 Q131.922 755.154 130.163 755.154 Q125.533 755.154 123.08 758.279 Q120.649 761.404 120.302 767.724 Q121.668 765.71 123.728 764.645 Q125.788 763.557 128.265 763.557 Q133.473 763.557 136.482 766.728 Q139.515 769.876 139.515 775.316 Q139.515 780.64 136.367 783.858 Q133.218 787.075 127.987 787.075 Q121.992 787.075 118.82 782.492 Q115.649 777.886 115.649 769.159 Q115.649 760.964 119.538 756.103 Q123.427 751.219 129.978 751.219 Q131.737 751.219 133.519 751.566 Q135.325 751.913 137.269 752.608 Z" fill="#000000" fill-rule="nonzero" fill-opacity="1" /><path clip-path="url(#clip940)" d="M147.616 751.844 L165.973 751.844 L165.973 755.779 L151.899 755.779 L151.899 764.251 Q152.917 763.904 153.936 763.742 Q154.954 763.557 155.973 763.557 Q161.76 763.557 165.14 766.728 Q168.519 769.899 168.519 775.316 Q168.519 780.895 165.047 783.997 Q161.575 787.075 155.255 787.075 Q153.079 787.075 150.811 786.705 Q148.566 786.335 146.158 785.594 L146.158 780.895 Q148.241 782.029 150.464 782.585 Q152.686 783.14 155.163 783.14 Q159.167 783.14 161.505 781.034 Q163.843 778.927 163.843 775.316 Q163.843 771.705 161.505 769.599 Q159.167 767.492 155.163 767.492 Q153.288 767.492 151.413 767.909 Q149.561 768.325 147.616 769.205 L147.616 751.844 Z" fill="#000000" fill-rule="nonzero" fill-opacity="1" /><path clip-path="url(#clip940)" d="M177.732 780.524 L182.616 780.524 L182.616 786.404 L177.732 786.404 L177.732 780.524 Z" fill="#000000" fill-rule="nonzero" fill-opacity="1" /><path clip-path="url(#clip940)" d="M191.621 751.844 L213.843 751.844 L213.843 753.835 L201.297 786.404 L196.412 786.404 L208.218 755.779 L191.621 755.779 L191.621 751.844 Z" fill="#000000" fill-rule="nonzero" fill-opacity="1" /><path clip-path="url(#clip940)" d="M127.177 561.421 Q124.029 561.421 122.177 563.574 Q120.348 565.726 120.348 569.476 Q120.348 573.203 122.177 575.379 Q124.029 577.532 127.177 577.532 Q130.325 577.532 132.154 575.379 Q134.005 573.203 134.005 569.476 Q134.005 565.726 132.154 563.574 Q130.325 561.421 127.177 561.421 M136.459 546.768 L136.459 551.027 Q134.7 550.194 132.894 549.754 Q131.112 549.314 129.353 549.314 Q124.723 549.314 122.269 552.439 Q119.839 555.564 119.492 561.884 Q120.857 559.87 122.918 558.805 Q124.978 557.717 127.455 557.717 Q132.663 557.717 135.672 560.888 Q138.704 564.037 138.704 569.476 Q138.704 574.8 135.556 578.018 Q132.408 581.236 127.177 581.236 Q121.181 581.236 118.01 576.652 Q114.839 572.046 114.839 563.319 Q114.839 555.125 118.728 550.264 Q122.617 545.379 129.167 545.379 Q130.927 545.379 132.709 545.727 Q134.515 546.074 136.459 546.768 Z" fill="#000000" fill-rule="nonzero" fill-opacity="1" /><path clip-path="url(#clip940)" d="M146.806 546.004 L165.163 546.004 L165.163 549.939 L151.089 549.939 L151.089 558.412 Q152.107 558.064 153.126 557.902 Q154.144 557.717 155.163 557.717 Q160.95 557.717 164.329 560.888 Q167.709 564.06 167.709 569.476 Q167.709 575.055 164.237 578.157 Q160.765 581.236 154.445 581.236 Q152.269 581.236 150.001 580.865 Q147.755 580.495 145.348 579.754 L145.348 575.055 Q147.431 576.189 149.653 576.745 Q151.876 577.3 154.353 577.3 Q158.357 577.3 160.695 575.194 Q163.033 573.087 163.033 569.476 Q163.033 565.865 160.695 563.759 Q158.357 561.652 154.353 561.652 Q152.478 561.652 150.603 562.069 Q148.751 562.486 146.806 563.365 L146.806 546.004 Z" fill="#000000" fill-rule="nonzero" fill-opacity="1" /><path clip-path="url(#clip940)" d="M176.922 574.685 L181.806 574.685 L181.806 580.564 L176.922 580.564 L176.922 574.685 Z" fill="#000000" fill-rule="nonzero" fill-opacity="1" /><path clip-path="url(#clip940)" d="M201.991 564.152 Q198.658 564.152 196.737 565.935 Q194.838 567.717 194.838 570.842 Q194.838 573.967 196.737 575.75 Q198.658 577.532 201.991 577.532 Q205.324 577.532 207.246 575.75 Q209.167 573.944 209.167 570.842 Q209.167 567.717 207.246 565.935 Q205.348 564.152 201.991 564.152 M197.315 562.162 Q194.306 561.421 192.616 559.361 Q190.95 557.301 190.95 554.338 Q190.95 550.194 193.889 547.787 Q196.852 545.379 201.991 545.379 Q207.153 545.379 210.093 547.787 Q213.033 550.194 213.033 554.338 Q213.033 557.301 211.343 559.361 Q209.676 561.421 206.69 562.162 Q210.07 562.949 211.945 565.24 Q213.843 567.532 213.843 570.842 Q213.843 575.865 210.764 578.55 Q207.709 581.236 201.991 581.236 Q196.274 581.236 193.195 578.55 Q190.139 575.865 190.139 570.842 Q190.139 567.532 192.038 565.24 Q193.936 562.949 197.315 562.162 M195.602 554.777 Q195.602 557.463 197.269 558.967 Q198.959 560.472 201.991 560.472 Q205 560.472 206.69 558.967 Q208.403 557.463 208.403 554.777 Q208.403 552.092 206.69 550.588 Q205 549.083 201.991 549.083 Q198.959 549.083 197.269 550.588 Q195.602 552.092 195.602 554.777 Z" fill="#000000" fill-rule="nonzero" fill-opacity="1" /><path clip-path="url(#clip940)" d="M127.269 355.581 Q124.121 355.581 122.269 357.734 Q120.441 359.887 120.441 363.637 Q120.441 367.364 122.269 369.539 Q124.121 371.692 127.269 371.692 Q130.417 371.692 132.246 369.539 Q134.098 367.364 134.098 363.637 Q134.098 359.887 132.246 357.734 Q130.417 355.581 127.269 355.581 M136.552 340.928 L136.552 345.188 Q134.792 344.354 132.987 343.915 Q131.205 343.475 129.445 343.475 Q124.816 343.475 122.362 346.6 Q119.931 349.725 119.584 356.044 Q120.95 354.03 123.01 352.965 Q125.07 351.877 127.547 351.877 Q132.755 351.877 135.765 355.049 Q138.797 358.197 138.797 363.637 Q138.797 368.961 135.649 372.178 Q132.501 375.396 127.269 375.396 Q121.274 375.396 118.103 370.813 Q114.931 366.206 114.931 357.479 Q114.931 349.285 118.82 344.424 Q122.709 339.54 129.26 339.54 Q131.019 339.54 132.802 339.887 Q134.607 340.234 136.552 340.928 Z" fill="#000000" fill-rule="nonzero" fill-opacity="1" /><path clip-path="url(#clip940)" d="M146.899 340.165 L165.255 340.165 L165.255 344.1 L151.181 344.1 L151.181 352.572 Q152.2 352.225 153.218 352.063 Q154.237 351.877 155.255 351.877 Q161.042 351.877 164.422 355.049 Q167.802 358.22 167.802 363.637 Q167.802 369.215 164.329 372.317 Q160.857 375.396 154.538 375.396 Q152.362 375.396 150.093 375.025 Q147.848 374.655 145.441 373.914 L145.441 369.215 Q147.524 370.35 149.746 370.905 Q151.968 371.461 154.445 371.461 Q158.45 371.461 160.788 369.354 Q163.126 367.248 163.126 363.637 Q163.126 360.026 160.788 357.919 Q158.45 355.813 154.445 355.813 Q152.57 355.813 150.695 356.229 Q148.843 356.646 146.899 357.526 L146.899 340.165 Z" fill="#000000" fill-rule="nonzero" fill-opacity="1" /><path clip-path="url(#clip940)" d="M177.014 368.845 L181.899 368.845 L181.899 374.725 L177.014 374.725 L177.014 368.845 Z" fill="#000000" fill-rule="nonzero" fill-opacity="1" /><path clip-path="url(#clip940)" d="M192.223 374.007 L192.223 369.748 Q193.982 370.581 195.787 371.021 Q197.593 371.461 199.329 371.461 Q203.959 371.461 206.389 368.359 Q208.843 365.234 209.19 358.891 Q207.848 360.882 205.787 361.947 Q203.727 363.012 201.227 363.012 Q196.042 363.012 193.01 359.887 Q190 356.739 190 351.299 Q190 345.975 193.149 342.757 Q196.297 339.54 201.528 339.54 Q207.524 339.54 210.672 344.146 Q213.843 348.729 213.843 357.479 Q213.843 365.651 209.954 370.535 Q206.088 375.396 199.537 375.396 Q197.778 375.396 195.973 375.049 Q194.167 374.701 192.223 374.007 M201.528 359.354 Q204.676 359.354 206.505 357.202 Q208.357 355.049 208.357 351.299 Q208.357 347.572 206.505 345.419 Q204.676 343.243 201.528 343.243 Q198.38 343.243 196.528 345.419 Q194.7 347.572 194.7 351.299 Q194.7 355.049 196.528 357.202 Q198.38 359.354 201.528 359.354 Z" fill="#000000" fill-rule="nonzero" fill-opacity="1" /><path clip-path="url(#clip940)" d="M127.084 149.741 Q123.936 149.741 122.084 151.894 Q120.255 154.047 120.255 157.797 Q120.255 161.524 122.084 163.7 Q123.936 165.852 127.084 165.852 Q130.232 165.852 132.061 163.7 Q133.913 161.524 133.913 157.797 Q133.913 154.047 132.061 151.894 Q130.232 149.741 127.084 149.741 M136.367 135.089 L136.367 139.348 Q134.607 138.515 132.802 138.075 Q131.019 137.635 129.26 137.635 Q124.63 137.635 122.177 140.76 Q119.746 143.885 119.399 150.204 Q120.765 148.191 122.825 147.126 Q124.885 146.038 127.362 146.038 Q132.57 146.038 135.579 149.209 Q138.612 152.357 138.612 157.797 Q138.612 163.121 135.464 166.339 Q132.316 169.556 127.084 169.556 Q121.089 169.556 117.918 164.973 Q114.746 160.366 114.746 151.64 Q114.746 143.445 118.635 138.584 Q122.524 133.7 129.075 133.7 Q130.834 133.7 132.617 134.047 Q134.422 134.394 136.367 135.089 Z" fill="#000000" fill-rule="nonzero" fill-opacity="1" /><path clip-path="url(#clip940)" d="M157.246 149.741 Q154.098 149.741 152.246 151.894 Q150.417 154.047 150.417 157.797 Q150.417 161.524 152.246 163.7 Q154.098 165.852 157.246 165.852 Q160.394 165.852 162.223 163.7 Q164.075 161.524 164.075 157.797 Q164.075 154.047 162.223 151.894 Q160.394 149.741 157.246 149.741 M166.528 135.089 L166.528 139.348 Q164.769 138.515 162.964 138.075 Q161.181 137.635 159.422 137.635 Q154.792 137.635 152.339 140.76 Q149.908 143.885 149.561 150.204 Q150.927 148.191 152.987 147.126 Q155.047 146.038 157.524 146.038 Q162.732 146.038 165.741 149.209 Q168.774 152.357 168.774 157.797 Q168.774 163.121 165.626 166.339 Q162.477 169.556 157.246 169.556 Q151.251 169.556 148.079 164.973 Q144.908 160.366 144.908 151.64 Q144.908 143.445 148.797 138.584 Q152.686 133.7 159.237 133.7 Q160.996 133.7 162.778 134.047 Q164.584 134.394 166.528 135.089 Z" fill="#000000" fill-rule="nonzero" fill-opacity="1" /><path clip-path="url(#clip940)" d="M176.829 163.005 L181.713 163.005 L181.713 168.885 L176.829 168.885 L176.829 163.005 Z" fill="#000000" fill-rule="nonzero" fill-opacity="1" /><path clip-path="url(#clip940)" d="M201.899 137.404 Q198.287 137.404 196.459 140.968 Q194.653 144.51 194.653 151.64 Q194.653 158.746 196.459 162.311 Q198.287 165.852 201.899 165.852 Q205.533 165.852 207.338 162.311 Q209.167 158.746 209.167 151.64 Q209.167 144.51 207.338 140.968 Q205.533 137.404 201.899 137.404 M201.899 133.7 Q207.709 133.7 210.764 138.306 Q213.843 142.89 213.843 151.64 Q213.843 160.366 210.764 164.973 Q207.709 169.556 201.899 169.556 Q196.088 169.556 193.01 164.973 Q189.954 160.366 189.954 151.64 Q189.954 142.89 193.01 138.306 Q196.088 133.7 201.899 133.7 Z" fill="#000000" fill-rule="nonzero" fill-opacity="1" /><path clip-path="url(#clip940)" d="M22.818 922.094 L46.4666 930.815 L46.4666 913.341 L22.818 922.094 M16.4842 925.723 L16.4842 918.434 L64.0042 900.324 L64.0042 907.008 L51.8138 911.336 L51.8138 932.757 L64.0042 937.085 L64.0042 943.865 L16.4842 925.723 Z" fill="#000000" fill-rule="nonzero" fill-opacity="1" /><path clip-path="url(#clip940)" d="M45.7664 870.182 Q39.4007 870.182 35.8996 872.824 Q32.3984 875.434 32.3984 880.176 Q32.3984 884.887 35.8996 887.528 Q39.4007 890.138 45.7664 890.138 Q52.1003 890.138 55.6014 887.528 Q59.1026 884.887 59.1026 880.176 Q59.1026 875.434 55.6014 872.824 Q52.1003 870.182 45.7664 870.182 M59.58 864.325 Q68.683 864.325 73.1071 868.368 Q77.5631 872.41 77.5631 880.749 Q77.5631 883.836 77.0857 886.574 Q76.6401 889.311 75.6852 891.889 L69.9879 891.889 Q71.3884 889.311 72.0568 886.796 Q72.7252 884.282 72.7252 881.672 Q72.7252 875.911 69.7015 873.046 Q66.7096 870.182 60.6303 870.182 L57.7339 870.182 Q60.885 871.996 62.4446 874.829 Q64.0042 877.662 64.0042 881.608 Q64.0042 888.165 59.0071 892.175 Q54.01 896.186 45.7664 896.186 Q37.491 896.186 32.4939 892.175 Q27.4968 888.165 27.4968 881.608 Q27.4968 877.662 29.0564 874.829 Q30.616 871.996 33.7671 870.182 L28.3562 870.182 L28.3562 864.325 L59.58 864.325 Z" fill="#000000" fill-rule="nonzero" fill-opacity="1" /><path clip-path="url(#clip940)" d="M44.7161 821.771 L47.5806 821.771 L47.5806 848.698 Q53.6281 848.316 56.8109 845.069 Q59.9619 841.791 59.9619 835.966 Q59.9619 832.592 59.1344 829.441 Q58.3069 826.259 56.6518 823.139 L62.1899 823.139 Q63.5267 826.29 64.227 829.601 Q64.9272 832.911 64.9272 836.316 Q64.9272 844.846 59.9619 849.843 Q54.9967 854.809 46.5303 854.809 Q37.7774 854.809 32.6531 850.098 Q27.4968 845.356 27.4968 837.335 Q27.4968 830.142 32.1438 825.972 Q36.7589 821.771 44.7161 821.771 M42.9973 827.627 Q38.1912 827.691 35.3266 830.333 Q32.4621 832.943 32.4621 837.271 Q32.4621 842.173 35.2312 845.133 Q38.0002 848.061 43.0292 848.507 L42.9973 827.627 Z" fill="#000000" fill-rule="nonzero" fill-opacity="1" /><path clip-path="url(#clip940)" d="M14.5426 777.37 Q21.8632 781.635 29.0246 783.704 Q36.186 785.773 43.5384 785.773 Q50.8908 785.773 58.1159 783.704 Q65.3091 781.603 72.5979 777.37 L72.5979 782.462 Q65.1182 787.237 57.8931 789.624 Q50.668 791.979 43.5384 791.979 Q36.4406 791.979 29.2474 789.624 Q22.0542 787.269 14.5426 782.462 L14.5426 777.37 Z" fill="#000000" fill-rule="nonzero" fill-opacity="1" /><path clip-path="url(#clip940)" d="M16.4842 765.752 L16.4842 756.172 L48.8219 744.045 L16.4842 731.855 L16.4842 722.275 L64.0042 722.275 L64.0042 728.545 L22.277 728.545 L54.8694 740.799 L54.8694 747.26 L22.277 759.514 L64.0042 759.514 L64.0042 765.752 L16.4842 765.752 Z" fill="#000000" fill-rule="nonzero" fill-opacity="1" /><path clip-path="url(#clip940)" d="M46.0847 693.565 Q46.0847 700.663 47.7079 703.4 Q49.3312 706.138 53.2461 706.138 Q56.3653 706.138 58.2114 704.101 Q60.0256 702.032 60.0256 698.499 Q60.0256 693.629 56.5881 690.701 Q53.1188 687.741 47.3897 687.741 L46.0847 687.741 L46.0847 693.565 M43.6657 681.884 L64.0042 681.884 L64.0042 687.741 L58.5933 687.741 Q61.8398 689.746 63.3994 692.738 Q64.9272 695.73 64.9272 700.058 Q64.9272 705.533 61.8716 708.779 Q58.7843 711.994 53.6281 711.994 Q47.6125 711.994 44.5569 707.984 Q41.5014 703.941 41.5014 695.953 L41.5014 687.741 L40.9285 687.741 Q36.8862 687.741 34.6901 690.414 Q32.4621 693.056 32.4621 697.862 Q32.4621 700.918 33.1941 703.814 Q33.9262 706.711 35.3903 709.384 L29.9795 709.384 Q28.7381 706.169 28.1334 703.146 Q27.4968 700.122 27.4968 697.257 Q27.4968 689.523 31.5072 685.704 Q35.5176 681.884 43.6657 681.884 Z" fill="#000000" fill-rule="nonzero" fill-opacity="1" /><path clip-path="url(#clip940)" d="M14.5426 670.744 L14.5426 665.652 Q22.0542 660.877 29.2474 658.522 Q36.4406 656.135 43.5384 656.135 Q50.668 656.135 57.8931 658.522 Q65.1182 660.877 72.5979 665.652 L72.5979 670.744 Q65.3091 666.511 58.1159 664.442 Q50.8908 662.342 43.5384 662.342 Q36.186 662.342 29.0246 664.442 Q21.8632 666.511 14.5426 670.744 Z" fill="#000000" fill-rule="nonzero" fill-opacity="1" /><polyline clip-path="url(#clip942)" style="stroke:#009af9; stroke-linecap:round; stroke-linejoin:round; stroke-width:4; stroke-opacity:1; fill:none" points="309.359,1510.15 309.359,851.46 "/>
<polyline clip-path="url(#clip942)" style="stroke:#009af9; stroke-linecap:round; stroke-linejoin:round; stroke-width:4; stroke-opacity:1; fill:none" points="348.259,1324.89 348.259,913.212 "/>
<polyline clip-path="url(#clip942)" style="stroke:#009af9; stroke-linecap:round; stroke-linejoin:round; stroke-width:4; stroke-opacity:1; fill:none" points="387.159,1366.06 387.159,830.876 "/>
<polyline clip-path="url(#clip942)" style="stroke:#009af9; stroke-linecap:round; stroke-linejoin:round; stroke-width:4; stroke-opacity:1; fill:none" points="426.058,1141.69 426.058,931.737 "/>
<polyline clip-path="url(#clip942)" style="stroke:#009af9; stroke-linecap:round; stroke-linejoin:round; stroke-width:4; stroke-opacity:1; fill:none" points="464.958,1119.05 464.958,937.913 "/>
<polyline clip-path="url(#clip942)" style="stroke:#009af9; stroke-linecap:round; stroke-linejoin:round; stroke-width:4; stroke-opacity:1; fill:none" points="503.857,1283.72 503.857,748.54 "/>
<polyline clip-path="url(#clip942)" style="stroke:#009af9; stroke-linecap:round; stroke-linejoin:round; stroke-width:4; stroke-opacity:1; fill:none" points="542.757,1112.88 542.757,902.92 "/>
<polyline clip-path="url(#clip942)" style="stroke:#009af9; stroke-linecap:round; stroke-linejoin:round; stroke-width:4; stroke-opacity:1; fill:none" points="581.657,1084.06 581.657,907.037 "/>
<polyline clip-path="url(#clip942)" style="stroke:#009af9; stroke-linecap:round; stroke-linejoin:round; stroke-width:4; stroke-opacity:1; fill:none" points="620.556,1174.63 620.556,816.467 "/>
<polyline clip-path="url(#clip942)" style="stroke:#009af9; stroke-linecap:round; stroke-linejoin:round; stroke-width:4; stroke-opacity:1; fill:none" points="659.456,1061.42 659.456,904.978 "/>
<polyline clip-path="url(#clip942)" style="stroke:#009af9; stroke-linecap:round; stroke-linejoin:round; stroke-width:4; stroke-opacity:1; fill:none" points="698.355,1057.3 698.355,904.978 "/>
<polyline clip-path="url(#clip942)" style="stroke:#009af9; stroke-linecap:round; stroke-linejoin:round; stroke-width:4; stroke-opacity:1; fill:none" points="737.255,1084.06 737.255,874.102 "/>
<polyline clip-path="url(#clip942)" style="stroke:#009af9; stroke-linecap:round; stroke-linejoin:round; stroke-width:4; stroke-opacity:1; fill:none" points="776.155,1067.59 776.155,882.336 "/>
<polyline clip-path="url(#clip942)" style="stroke:#009af9; stroke-linecap:round; stroke-linejoin:round; stroke-width:4; stroke-opacity:1; fill:none" points="815.054,1129.34 815.054,783.533 "/>
<polyline clip-path="url(#clip942)" style="stroke:#009af9; stroke-linecap:round; stroke-linejoin:round; stroke-width:4; stroke-opacity:1; fill:none" points="853.954,1016.13 853.954,884.394 "/>
<polyline clip-path="url(#clip942)" style="stroke:#009af9; stroke-linecap:round; stroke-linejoin:round; stroke-width:4; stroke-opacity:1; fill:none" points="892.854,1016.13 892.854,876.161 "/>
<polyline clip-path="url(#clip942)" style="stroke:#009af9; stroke-linecap:round; stroke-linejoin:round; stroke-width:4; stroke-opacity:1; fill:none" points="931.753,1119.05 931.753,740.306 "/>
<polyline clip-path="url(#clip942)" style="stroke:#009af9; stroke-linecap:round; stroke-linejoin:round; stroke-width:4; stroke-opacity:1; fill:none" points="970.653,970.847 970.653,851.46 "/>
<polyline clip-path="url(#clip942)" style="stroke:#009af9; stroke-linecap:round; stroke-linejoin:round; stroke-width:4; stroke-opacity:1; fill:none" points="1009.55,966.73 1009.55,855.577 "/>
<polyline clip-path="url(#clip942)" style="stroke:#009af9; stroke-linecap:round; stroke-linejoin:round; stroke-width:4; stroke-opacity:1; fill:none" points="1048.45,997.606 1048.45,808.234 "/>
<polyline clip-path="url(#clip942)" style="stroke:#009af9; stroke-linecap:round; stroke-linejoin:round; stroke-width:4; stroke-opacity:1; fill:none" points="1087.35,983.197 1087.35,814.409 "/>
<polyline clip-path="url(#clip942)" style="stroke:#009af9; stroke-linecap:round; stroke-linejoin:round; stroke-width:4; stroke-opacity:1; fill:none" points="1126.25,968.789 1126.25,828.818 "/>
<polyline clip-path="url(#clip942)" style="stroke:#009af9; stroke-linecap:round; stroke-linejoin:round; stroke-width:4; stroke-opacity:1; fill:none" points="1165.15,974.964 1165.15,806.175 "/>
<polyline clip-path="url(#clip942)" style="stroke:#009af9; stroke-linecap:round; stroke-linejoin:round; stroke-width:4; stroke-opacity:1; fill:none" points="1204.05,1036.72 1204.05,736.19 "/>
<polyline clip-path="url(#clip942)" style="stroke:#009af9; stroke-linecap:round; stroke-linejoin:round; stroke-width:4; stroke-opacity:1; fill:none" points="1242.95,981.139 1242.95,775.299 "/>
<polyline clip-path="url(#clip942)" style="stroke:#009af9; stroke-linecap:round; stroke-linejoin:round; stroke-width:4; stroke-opacity:1; fill:none" points="1281.85,970.847 1281.85,777.358 "/>
<polyline clip-path="url(#clip942)" style="stroke:#009af9; stroke-linecap:round; stroke-linejoin:round; stroke-width:4; stroke-opacity:1; fill:none" points="1320.75,1098.47 1320.75,645.62 "/>
<polyline clip-path="url(#clip942)" style="stroke:#009af9; stroke-linecap:round; stroke-linejoin:round; stroke-width:4; stroke-opacity:1; fill:none" points="1359.65,927.621 1359.65,795.883 "/>
<polyline clip-path="url(#clip942)" style="stroke:#009af9; stroke-linecap:round; stroke-linejoin:round; stroke-width:4; stroke-opacity:1; fill:none" points="1398.55,1028.48 1398.55,695.022 "/>
<polyline clip-path="url(#clip942)" style="stroke:#009af9; stroke-linecap:round; stroke-linejoin:round; stroke-width:4; stroke-opacity:1; fill:none" points="1437.45,917.329 1437.45,802.058 "/>
<polyline clip-path="url(#clip942)" style="stroke:#009af9; stroke-linecap:round; stroke-linejoin:round; stroke-width:4; stroke-opacity:1; fill:none" points="1476.35,1098.47 1476.35,604.452 "/>
<polyline clip-path="url(#clip942)" style="stroke:#009af9; stroke-linecap:round; stroke-linejoin:round; stroke-width:4; stroke-opacity:1; fill:none" points="1515.25,907.037 1515.25,795.883 "/>
<polyline clip-path="url(#clip942)" style="stroke:#009af9; stroke-linecap:round; stroke-linejoin:round; stroke-width:4; stroke-opacity:1; fill:none" points="1554.15,1119.05 1554.15,583.868 "/>
<polyline clip-path="url(#clip942)" style="stroke:#009af9; stroke-linecap:round; stroke-linejoin:round; stroke-width:4; stroke-opacity:1; fill:none" points="1593.05,960.555 1593.05,738.248 "/>
<polyline clip-path="url(#clip942)" style="stroke:#009af9; stroke-linecap:round; stroke-linejoin:round; stroke-width:4; stroke-opacity:1; fill:none" points="1631.95,972.905 1631.95,717.664 "/>
<polyline clip-path="url(#clip942)" style="stroke:#009af9; stroke-linecap:round; stroke-linejoin:round; stroke-width:4; stroke-opacity:1; fill:none" points="1670.85,894.686 1670.85,787.65 "/>
<polyline clip-path="url(#clip942)" style="stroke:#009af9; stroke-linecap:round; stroke-linejoin:round; stroke-width:4; stroke-opacity:1; fill:none" points="1709.75,1160.22 1709.75,501.532 "/>
<polyline clip-path="url(#clip942)" style="stroke:#009af9; stroke-linecap:round; stroke-linejoin:round; stroke-width:4; stroke-opacity:1; fill:none" points="1748.64,962.613 1748.64,670.321 "/>
<polyline clip-path="url(#clip942)" style="stroke:#009af9; stroke-linecap:round; stroke-linejoin:round; stroke-width:4; stroke-opacity:1; fill:none" points="1787.54,896.745 1787.54,736.19 "/>
<polyline clip-path="url(#clip942)" style="stroke:#009af9; stroke-linecap:round; stroke-linejoin:round; stroke-width:4; stroke-opacity:1; fill:none" points="1826.44,872.044 1826.44,744.423 "/>
<polyline clip-path="url(#clip942)" style="stroke:#009af9; stroke-linecap:round; stroke-linejoin:round; stroke-width:4; stroke-opacity:1; fill:none" points="1865.34,900.861 1865.34,686.788 "/>
<polyline clip-path="url(#clip942)" style="stroke:#009af9; stroke-linecap:round; stroke-linejoin:round; stroke-width:4; stroke-opacity:1; fill:none" points="1904.24,878.219 1904.24,705.314 "/>
<polyline clip-path="url(#clip942)" style="stroke:#009af9; stroke-linecap:round; stroke-linejoin:round; stroke-width:4; stroke-opacity:1; fill:none" points="1943.14,824.701 1943.14,688.847 "/>
<polyline clip-path="url(#clip942)" style="stroke:#009af9; stroke-linecap:round; stroke-linejoin:round; stroke-width:4; stroke-opacity:1; fill:none" points="1982.04,826.759 1982.04,633.27 "/>
<polyline clip-path="url(#clip942)" style="stroke:#009af9; stroke-linecap:round; stroke-linejoin:round; stroke-width:4; stroke-opacity:1; fill:none" points="2020.94,954.38 2020.94,501.532 "/>
<polyline clip-path="url(#clip942)" style="stroke:#009af9; stroke-linecap:round; stroke-linejoin:round; stroke-width:4; stroke-opacity:1; fill:none" points="2059.84,845.285 2059.84,598.277 "/>
<polyline clip-path="url(#clip942)" style="stroke:#009af9; stroke-linecap:round; stroke-linejoin:round; stroke-width:4; stroke-opacity:1; fill:none" points="2098.74,1139.64 2098.74,275.109 "/>
<polyline clip-path="url(#clip942)" style="stroke:#009af9; stroke-linecap:round; stroke-linejoin:round; stroke-width:4; stroke-opacity:1; fill:none" points="2137.64,834.993 2137.64,550.934 "/>
<polyline clip-path="url(#clip942)" style="stroke:#009af9; stroke-linecap:round; stroke-linejoin:round; stroke-width:4; stroke-opacity:1; fill:none" points="2176.54,913.212 2176.54,460.364 "/>
<polyline clip-path="url(#clip942)" style="stroke:#009af9; stroke-linecap:round; stroke-linejoin:round; stroke-width:4; stroke-opacity:1; fill:none" points="2215.44,812.35 2215.44,454.189 "/>
<polyline clip-path="url(#clip942)" style="stroke:#009af9; stroke-linecap:round; stroke-linejoin:round; stroke-width:4; stroke-opacity:1; fill:none" points="2254.34,954.38 2254.34,89.8529 "/>
<polyline clip-path="url(#clip942)" style="stroke:#009af9; stroke-linecap:round; stroke-linejoin:round; stroke-width:4; stroke-opacity:1; fill:none" points="2293.24,748.54 2293.24,89.8529 "/>
<line clip-path="url(#clip942)" x1="325.359" y1="1510.15" x2="293.359" y2="1510.15" style="stroke:#009af9; stroke-width:4; stroke-opacity:1"/>
<line clip-path="url(#clip942)" x1="325.359" y1="851.46" x2="293.359" y2="851.46" style="stroke:#009af9; stroke-width:4; stroke-opacity:1"/>
<line clip-path="url(#clip942)" x1="364.259" y1="1324.89" x2="332.259" y2="1324.89" style="stroke:#009af9; stroke-width:4; stroke-opacity:1"/>
<line clip-path="url(#clip942)" x1="364.259" y1="913.212" x2="332.259" y2="913.212" style="stroke:#009af9; stroke-width:4; stroke-opacity:1"/>
<line clip-path="url(#clip942)" x1="403.159" y1="1366.06" x2="371.159" y2="1366.06" style="stroke:#009af9; stroke-width:4; stroke-opacity:1"/>
<line clip-path="url(#clip942)" x1="403.159" y1="830.876" x2="371.159" y2="830.876" style="stroke:#009af9; stroke-width:4; stroke-opacity:1"/>
<line clip-path="url(#clip942)" x1="442.058" y1="1141.69" x2="410.058" y2="1141.69" style="stroke:#009af9; stroke-width:4; stroke-opacity:1"/>
<line clip-path="url(#clip942)" x1="442.058" y1="931.737" x2="410.058" y2="931.737" style="stroke:#009af9; stroke-width:4; stroke-opacity:1"/>
<line clip-path="url(#clip942)" x1="480.958" y1="1119.05" x2="448.958" y2="1119.05" style="stroke:#009af9; stroke-width:4; stroke-opacity:1"/>
<line clip-path="url(#clip942)" x1="480.958" y1="937.913" x2="448.958" y2="937.913" style="stroke:#009af9; stroke-width:4; stroke-opacity:1"/>
<line clip-path="url(#clip942)" x1="519.857" y1="1283.72" x2="487.857" y2="1283.72" style="stroke:#009af9; stroke-width:4; stroke-opacity:1"/>
<line clip-path="url(#clip942)" x1="519.857" y1="748.54" x2="487.857" y2="748.54" style="stroke:#009af9; stroke-width:4; stroke-opacity:1"/>
<line clip-path="url(#clip942)" x1="558.757" y1="1112.88" x2="526.757" y2="1112.88" style="stroke:#009af9; stroke-width:4; stroke-opacity:1"/>
<line clip-path="url(#clip942)" x1="558.757" y1="902.92" x2="526.757" y2="902.92" style="stroke:#009af9; stroke-width:4; stroke-opacity:1"/>
<line clip-path="url(#clip942)" x1="597.657" y1="1084.06" x2="565.657" y2="1084.06" style="stroke:#009af9; stroke-width:4; stroke-opacity:1"/>
<line clip-path="url(#clip942)" x1="597.657" y1="907.037" x2="565.657" y2="907.037" style="stroke:#009af9; stroke-width:4; stroke-opacity:1"/>
<line clip-path="url(#clip942)" x1="636.556" y1="1174.63" x2="604.556" y2="1174.63" style="stroke:#009af9; stroke-width:4; stroke-opacity:1"/>
<line clip-path="url(#clip942)" x1="636.556" y1="816.467" x2="604.556" y2="816.467" style="stroke:#009af9; stroke-width:4; stroke-opacity:1"/>
<line clip-path="url(#clip942)" x1="675.456" y1="1061.42" x2="643.456" y2="1061.42" style="stroke:#009af9; stroke-width:4; stroke-opacity:1"/>
<line clip-path="url(#clip942)" x1="675.456" y1="904.978" x2="643.456" y2="904.978" style="stroke:#009af9; stroke-width:4; stroke-opacity:1"/>
<line clip-path="url(#clip942)" x1="714.355" y1="1057.3" x2="682.355" y2="1057.3" style="stroke:#009af9; stroke-width:4; stroke-opacity:1"/>
<line clip-path="url(#clip942)" x1="714.355" y1="904.978" x2="682.355" y2="904.978" style="stroke:#009af9; stroke-width:4; stroke-opacity:1"/>
<line clip-path="url(#clip942)" x1="753.255" y1="1084.06" x2="721.255" y2="1084.06" style="stroke:#009af9; stroke-width:4; stroke-opacity:1"/>
<line clip-path="url(#clip942)" x1="753.255" y1="874.102" x2="721.255" y2="874.102" style="stroke:#009af9; stroke-width:4; stroke-opacity:1"/>
<line clip-path="url(#clip942)" x1="792.155" y1="1067.59" x2="760.155" y2="1067.59" style="stroke:#009af9; stroke-width:4; stroke-opacity:1"/>
<line clip-path="url(#clip942)" x1="792.155" y1="882.336" x2="760.155" y2="882.336" style="stroke:#009af9; stroke-width:4; stroke-opacity:1"/>
<line clip-path="url(#clip942)" x1="831.054" y1="1129.34" x2="799.054" y2="1129.34" style="stroke:#009af9; stroke-width:4; stroke-opacity:1"/>
<line clip-path="url(#clip942)" x1="831.054" y1="783.533" x2="799.054" y2="783.533" style="stroke:#009af9; stroke-width:4; stroke-opacity:1"/>
<line clip-path="url(#clip942)" x1="869.954" y1="1016.13" x2="837.954" y2="1016.13" style="stroke:#009af9; stroke-width:4; stroke-opacity:1"/>
<line clip-path="url(#clip942)" x1="869.954" y1="884.394" x2="837.954" y2="884.394" style="stroke:#009af9; stroke-width:4; stroke-opacity:1"/>
<line clip-path="url(#clip942)" x1="908.854" y1="1016.13" x2="876.854" y2="1016.13" style="stroke:#009af9; stroke-width:4; stroke-opacity:1"/>
<line clip-path="url(#clip942)" x1="908.854" y1="876.161" x2="876.854" y2="876.161" style="stroke:#009af9; stroke-width:4; stroke-opacity:1"/>
<line clip-path="url(#clip942)" x1="947.753" y1="1119.05" x2="915.753" y2="1119.05" style="stroke:#009af9; stroke-width:4; stroke-opacity:1"/>
<line clip-path="url(#clip942)" x1="947.753" y1="740.306" x2="915.753" y2="740.306" style="stroke:#009af9; stroke-width:4; stroke-opacity:1"/>
<line clip-path="url(#clip942)" x1="986.653" y1="970.847" x2="954.653" y2="970.847" style="stroke:#009af9; stroke-width:4; stroke-opacity:1"/>
<line clip-path="url(#clip942)" x1="986.653" y1="851.46" x2="954.653" y2="851.46" style="stroke:#009af9; stroke-width:4; stroke-opacity:1"/>
<line clip-path="url(#clip942)" x1="1025.55" y1="966.73" x2="993.552" y2="966.73" style="stroke:#009af9; stroke-width:4; stroke-opacity:1"/>
<line clip-path="url(#clip942)" x1="1025.55" y1="855.577" x2="993.552" y2="855.577" style="stroke:#009af9; stroke-width:4; stroke-opacity:1"/>
<line clip-path="url(#clip942)" x1="1064.45" y1="997.606" x2="1032.45" y2="997.606" style="stroke:#009af9; stroke-width:4; stroke-opacity:1"/>
<line clip-path="url(#clip942)" x1="1064.45" y1="808.234" x2="1032.45" y2="808.234" style="stroke:#009af9; stroke-width:4; stroke-opacity:1"/>
<line clip-path="url(#clip942)" x1="1103.35" y1="983.197" x2="1071.35" y2="983.197" style="stroke:#009af9; stroke-width:4; stroke-opacity:1"/>
<line clip-path="url(#clip942)" x1="1103.35" y1="814.409" x2="1071.35" y2="814.409" style="stroke:#009af9; stroke-width:4; stroke-opacity:1"/>
<line clip-path="url(#clip942)" x1="1142.25" y1="968.789" x2="1110.25" y2="968.789" style="stroke:#009af9; stroke-width:4; stroke-opacity:1"/>
<line clip-path="url(#clip942)" x1="1142.25" y1="828.818" x2="1110.25" y2="828.818" style="stroke:#009af9; stroke-width:4; stroke-opacity:1"/>
<line clip-path="url(#clip942)" x1="1181.15" y1="974.964" x2="1149.15" y2="974.964" style="stroke:#009af9; stroke-width:4; stroke-opacity:1"/>
<line clip-path="url(#clip942)" x1="1181.15" y1="806.175" x2="1149.15" y2="806.175" style="stroke:#009af9; stroke-width:4; stroke-opacity:1"/>
<line clip-path="url(#clip942)" x1="1220.05" y1="1036.72" x2="1188.05" y2="1036.72" style="stroke:#009af9; stroke-width:4; stroke-opacity:1"/>
<line clip-path="url(#clip942)" x1="1220.05" y1="736.19" x2="1188.05" y2="736.19" style="stroke:#009af9; stroke-width:4; stroke-opacity:1"/>
<line clip-path="url(#clip942)" x1="1258.95" y1="981.139" x2="1226.95" y2="981.139" style="stroke:#009af9; stroke-width:4; stroke-opacity:1"/>
<line clip-path="url(#clip942)" x1="1258.95" y1="775.299" x2="1226.95" y2="775.299" style="stroke:#009af9; stroke-width:4; stroke-opacity:1"/>
<line clip-path="url(#clip942)" x1="1297.85" y1="970.847" x2="1265.85" y2="970.847" style="stroke:#009af9; stroke-width:4; stroke-opacity:1"/>
<line clip-path="url(#clip942)" x1="1297.85" y1="777.358" x2="1265.85" y2="777.358" style="stroke:#009af9; stroke-width:4; stroke-opacity:1"/>
<line clip-path="url(#clip942)" x1="1336.75" y1="1098.47" x2="1304.75" y2="1098.47" style="stroke:#009af9; stroke-width:4; stroke-opacity:1"/>
<line clip-path="url(#clip942)" x1="1336.75" y1="645.62" x2="1304.75" y2="645.62" style="stroke:#009af9; stroke-width:4; stroke-opacity:1"/>
<line clip-path="url(#clip942)" x1="1375.65" y1="927.621" x2="1343.65" y2="927.621" style="stroke:#009af9; stroke-width:4; stroke-opacity:1"/>
<line clip-path="url(#clip942)" x1="1375.65" y1="795.883" x2="1343.65" y2="795.883" style="stroke:#009af9; stroke-width:4; stroke-opacity:1"/>
<line clip-path="url(#clip942)" x1="1414.55" y1="1028.48" x2="1382.55" y2="1028.48" style="stroke:#009af9; stroke-width:4; stroke-opacity:1"/>
<line clip-path="url(#clip942)" x1="1414.55" y1="695.022" x2="1382.55" y2="695.022" style="stroke:#009af9; stroke-width:4; stroke-opacity:1"/>
<line clip-path="url(#clip942)" x1="1453.45" y1="917.329" x2="1421.45" y2="917.329" style="stroke:#009af9; stroke-width:4; stroke-opacity:1"/>
<line clip-path="url(#clip942)" x1="1453.45" y1="802.058" x2="1421.45" y2="802.058" style="stroke:#009af9; stroke-width:4; stroke-opacity:1"/>
<line clip-path="url(#clip942)" x1="1492.35" y1="1098.47" x2="1460.35" y2="1098.47" style="stroke:#009af9; stroke-width:4; stroke-opacity:1"/>
<line clip-path="url(#clip942)" x1="1492.35" y1="604.452" x2="1460.35" y2="604.452" style="stroke:#009af9; stroke-width:4; stroke-opacity:1"/>
<line clip-path="url(#clip942)" x1="1531.25" y1="907.037" x2="1499.25" y2="907.037" style="stroke:#009af9; stroke-width:4; stroke-opacity:1"/>
<line clip-path="url(#clip942)" x1="1531.25" y1="795.883" x2="1499.25" y2="795.883" style="stroke:#009af9; stroke-width:4; stroke-opacity:1"/>
<line clip-path="url(#clip942)" x1="1570.15" y1="1119.05" x2="1538.15" y2="1119.05" style="stroke:#009af9; stroke-width:4; stroke-opacity:1"/>
<line clip-path="url(#clip942)" x1="1570.15" y1="583.868" x2="1538.15" y2="583.868" style="stroke:#009af9; stroke-width:4; stroke-opacity:1"/>
<line clip-path="url(#clip942)" x1="1609.05" y1="960.555" x2="1577.05" y2="960.555" style="stroke:#009af9; stroke-width:4; stroke-opacity:1"/>
<line clip-path="url(#clip942)" x1="1609.05" y1="738.248" x2="1577.05" y2="738.248" style="stroke:#009af9; stroke-width:4; stroke-opacity:1"/>
<line clip-path="url(#clip942)" x1="1647.95" y1="972.905" x2="1615.95" y2="972.905" style="stroke:#009af9; stroke-width:4; stroke-opacity:1"/>
<line clip-path="url(#clip942)" x1="1647.95" y1="717.664" x2="1615.95" y2="717.664" style="stroke:#009af9; stroke-width:4; stroke-opacity:1"/>
<line clip-path="url(#clip942)" x1="1686.85" y1="894.686" x2="1654.85" y2="894.686" style="stroke:#009af9; stroke-width:4; stroke-opacity:1"/>
<line clip-path="url(#clip942)" x1="1686.85" y1="787.65" x2="1654.85" y2="787.65" style="stroke:#009af9; stroke-width:4; stroke-opacity:1"/>
<line clip-path="url(#clip942)" x1="1725.75" y1="1160.22" x2="1693.75" y2="1160.22" style="stroke:#009af9; stroke-width:4; stroke-opacity:1"/>
<line clip-path="url(#clip942)" x1="1725.75" y1="501.532" x2="1693.75" y2="501.532" style="stroke:#009af9; stroke-width:4; stroke-opacity:1"/>
<line clip-path="url(#clip942)" x1="1764.64" y1="962.613" x2="1732.64" y2="962.613" style="stroke:#009af9; stroke-width:4; stroke-opacity:1"/>
<line clip-path="url(#clip942)" x1="1764.64" y1="670.321" x2="1732.64" y2="670.321" style="stroke:#009af9; stroke-width:4; stroke-opacity:1"/>
<line clip-path="url(#clip942)" x1="1803.54" y1="896.745" x2="1771.54" y2="896.745" style="stroke:#009af9; stroke-width:4; stroke-opacity:1"/>
<line clip-path="url(#clip942)" x1="1803.54" y1="736.19" x2="1771.54" y2="736.19" style="stroke:#009af9; stroke-width:4; stroke-opacity:1"/>
<line clip-path="url(#clip942)" x1="1842.44" y1="872.044" x2="1810.44" y2="872.044" style="stroke:#009af9; stroke-width:4; stroke-opacity:1"/>
<line clip-path="url(#clip942)" x1="1842.44" y1="744.423" x2="1810.44" y2="744.423" style="stroke:#009af9; stroke-width:4; stroke-opacity:1"/>
<line clip-path="url(#clip942)" x1="1881.34" y1="900.861" x2="1849.34" y2="900.861" style="stroke:#009af9; stroke-width:4; stroke-opacity:1"/>
<line clip-path="url(#clip942)" x1="1881.34" y1="686.788" x2="1849.34" y2="686.788" style="stroke:#009af9; stroke-width:4; stroke-opacity:1"/>
<line clip-path="url(#clip942)" x1="1920.24" y1="878.219" x2="1888.24" y2="878.219" style="stroke:#009af9; stroke-width:4; stroke-opacity:1"/>
<line clip-path="url(#clip942)" x1="1920.24" y1="705.314" x2="1888.24" y2="705.314" style="stroke:#009af9; stroke-width:4; stroke-opacity:1"/>
<line clip-path="url(#clip942)" x1="1959.14" y1="824.701" x2="1927.14" y2="824.701" style="stroke:#009af9; stroke-width:4; stroke-opacity:1"/>
<line clip-path="url(#clip942)" x1="1959.14" y1="688.847" x2="1927.14" y2="688.847" style="stroke:#009af9; stroke-width:4; stroke-opacity:1"/>
<line clip-path="url(#clip942)" x1="1998.04" y1="826.759" x2="1966.04" y2="826.759" style="stroke:#009af9; stroke-width:4; stroke-opacity:1"/>
<line clip-path="url(#clip942)" x1="1998.04" y1="633.27" x2="1966.04" y2="633.27" style="stroke:#009af9; stroke-width:4; stroke-opacity:1"/>
<line clip-path="url(#clip942)" x1="2036.94" y1="954.38" x2="2004.94" y2="954.38" style="stroke:#009af9; stroke-width:4; stroke-opacity:1"/>
<line clip-path="url(#clip942)" x1="2036.94" y1="501.532" x2="2004.94" y2="501.532" style="stroke:#009af9; stroke-width:4; stroke-opacity:1"/>
<line clip-path="url(#clip942)" x1="2075.84" y1="845.285" x2="2043.84" y2="845.285" style="stroke:#009af9; stroke-width:4; stroke-opacity:1"/>
<line clip-path="url(#clip942)" x1="2075.84" y1="598.277" x2="2043.84" y2="598.277" style="stroke:#009af9; stroke-width:4; stroke-opacity:1"/>
<line clip-path="url(#clip942)" x1="2114.74" y1="1139.64" x2="2082.74" y2="1139.64" style="stroke:#009af9; stroke-width:4; stroke-opacity:1"/>
<line clip-path="url(#clip942)" x1="2114.74" y1="275.109" x2="2082.74" y2="275.109" style="stroke:#009af9; stroke-width:4; stroke-opacity:1"/>
<line clip-path="url(#clip942)" x1="2153.64" y1="834.993" x2="2121.64" y2="834.993" style="stroke:#009af9; stroke-width:4; stroke-opacity:1"/>
<line clip-path="url(#clip942)" x1="2153.64" y1="550.934" x2="2121.64" y2="550.934" style="stroke:#009af9; stroke-width:4; stroke-opacity:1"/>
<line clip-path="url(#clip942)" x1="2192.54" y1="913.212" x2="2160.54" y2="913.212" style="stroke:#009af9; stroke-width:4; stroke-opacity:1"/>
<line clip-path="url(#clip942)" x1="2192.54" y1="460.364" x2="2160.54" y2="460.364" style="stroke:#009af9; stroke-width:4; stroke-opacity:1"/>
<line clip-path="url(#clip942)" x1="2231.44" y1="812.35" x2="2199.44" y2="812.35" style="stroke:#009af9; stroke-width:4; stroke-opacity:1"/>
<line clip-path="url(#clip942)" x1="2231.44" y1="454.189" x2="2199.44" y2="454.189" style="stroke:#009af9; stroke-width:4; stroke-opacity:1"/>
<line clip-path="url(#clip942)" x1="2270.34" y1="954.38" x2="2238.34" y2="954.38" style="stroke:#009af9; stroke-width:4; stroke-opacity:1"/>
<line clip-path="url(#clip942)" x1="2270.34" y1="89.8529" x2="2238.34" y2="89.8529" style="stroke:#009af9; stroke-width:4; stroke-opacity:1"/>
<line clip-path="url(#clip942)" x1="2309.24" y1="748.54" x2="2277.24" y2="748.54" style="stroke:#009af9; stroke-width:4; stroke-opacity:1"/>
<line clip-path="url(#clip942)" x1="2309.24" y1="89.8529" x2="2277.24" y2="89.8529" style="stroke:#009af9; stroke-width:4; stroke-opacity:1"/>
<circle clip-path="url(#clip942)" cx="309.359" cy="1180.8" r="14.4" fill="#009af9" fill-rule="evenodd" fill-opacity="1" stroke="none"/>
<circle clip-path="url(#clip942)" cx="348.259" cy="1119.05" r="14.4" fill="#009af9" fill-rule="evenodd" fill-opacity="1" stroke="none"/>
<circle clip-path="url(#clip942)" cx="387.159" cy="1098.47" r="14.4" fill="#009af9" fill-rule="evenodd" fill-opacity="1" stroke="none"/>
<circle clip-path="url(#clip942)" cx="426.058" cy="1036.72" r="14.4" fill="#009af9" fill-rule="evenodd" fill-opacity="1" stroke="none"/>
<circle clip-path="url(#clip942)" cx="464.958" cy="1028.48" r="14.4" fill="#009af9" fill-rule="evenodd" fill-opacity="1" stroke="none"/>
<circle clip-path="url(#clip942)" cx="503.857" cy="1016.13" r="14.4" fill="#009af9" fill-rule="evenodd" fill-opacity="1" stroke="none"/>
<circle clip-path="url(#clip942)" cx="542.757" cy="1007.9" r="14.4" fill="#009af9" fill-rule="evenodd" fill-opacity="1" stroke="none"/>
<circle clip-path="url(#clip942)" cx="581.657" cy="995.548" r="14.4" fill="#009af9" fill-rule="evenodd" fill-opacity="1" stroke="none"/>
<circle clip-path="url(#clip942)" cx="620.556" cy="995.548" r="14.4" fill="#009af9" fill-rule="evenodd" fill-opacity="1" stroke="none"/>
<circle clip-path="url(#clip942)" cx="659.456" cy="983.197" r="14.4" fill="#009af9" fill-rule="evenodd" fill-opacity="1" stroke="none"/>
<circle clip-path="url(#clip942)" cx="698.355" cy="981.139" r="14.4" fill="#009af9" fill-rule="evenodd" fill-opacity="1" stroke="none"/>
<circle clip-path="url(#clip942)" cx="737.255" cy="979.081" r="14.4" fill="#009af9" fill-rule="evenodd" fill-opacity="1" stroke="none"/>
<circle clip-path="url(#clip942)" cx="776.155" cy="974.964" r="14.4" fill="#009af9" fill-rule="evenodd" fill-opacity="1" stroke="none"/>
<circle clip-path="url(#clip942)" cx="815.054" cy="956.438" r="14.4" fill="#009af9" fill-rule="evenodd" fill-opacity="1" stroke="none"/>
<circle clip-path="url(#clip942)" cx="853.954" cy="950.263" r="14.4" fill="#009af9" fill-rule="evenodd" fill-opacity="1" stroke="none"/>
<circle clip-path="url(#clip942)" cx="892.854" cy="946.146" r="14.4" fill="#009af9" fill-rule="evenodd" fill-opacity="1" stroke="none"/>
<circle clip-path="url(#clip942)" cx="931.753" cy="929.679" r="14.4" fill="#009af9" fill-rule="evenodd" fill-opacity="1" stroke="none"/>
<circle clip-path="url(#clip942)" cx="970.653" cy="911.153" r="14.4" fill="#009af9" fill-rule="evenodd" fill-opacity="1" stroke="none"/>
<circle clip-path="url(#clip942)" cx="1009.55" cy="911.153" r="14.4" fill="#009af9" fill-rule="evenodd" fill-opacity="1" stroke="none"/>
<circle clip-path="url(#clip942)" cx="1048.45" cy="902.92" r="14.4" fill="#009af9" fill-rule="evenodd" fill-opacity="1" stroke="none"/>
<circle clip-path="url(#clip942)" cx="1087.35" cy="898.803" r="14.4" fill="#009af9" fill-rule="evenodd" fill-opacity="1" stroke="none"/>
<circle clip-path="url(#clip942)" cx="1126.25" cy="898.803" r="14.4" fill="#009af9" fill-rule="evenodd" fill-opacity="1" stroke="none"/>
<circle clip-path="url(#clip942)" cx="1165.15" cy="890.569" r="14.4" fill="#009af9" fill-rule="evenodd" fill-opacity="1" stroke="none"/>
<circle clip-path="url(#clip942)" cx="1204.05" cy="886.453" r="14.4" fill="#009af9" fill-rule="evenodd" fill-opacity="1" stroke="none"/>
<circle clip-path="url(#clip942)" cx="1242.95" cy="878.219" r="14.4" fill="#009af9" fill-rule="evenodd" fill-opacity="1" stroke="none"/>
<circle clip-path="url(#clip942)" cx="1281.85" cy="874.102" r="14.4" fill="#009af9" fill-rule="evenodd" fill-opacity="1" stroke="none"/>
<circle clip-path="url(#clip942)" cx="1320.75" cy="872.044" r="14.4" fill="#009af9" fill-rule="evenodd" fill-opacity="1" stroke="none"/>
<circle clip-path="url(#clip942)" cx="1359.65" cy="861.752" r="14.4" fill="#009af9" fill-rule="evenodd" fill-opacity="1" stroke="none"/>
<circle clip-path="url(#clip942)" cx="1398.55" cy="861.752" r="14.4" fill="#009af9" fill-rule="evenodd" fill-opacity="1" stroke="none"/>
<circle clip-path="url(#clip942)" cx="1437.45" cy="859.694" r="14.4" fill="#009af9" fill-rule="evenodd" fill-opacity="1" stroke="none"/>
<circle clip-path="url(#clip942)" cx="1476.35" cy="851.46" r="14.4" fill="#009af9" fill-rule="evenodd" fill-opacity="1" stroke="none"/>
<circle clip-path="url(#clip942)" cx="1515.25" cy="851.46" r="14.4" fill="#009af9" fill-rule="evenodd" fill-opacity="1" stroke="none"/>
<circle clip-path="url(#clip942)" cx="1554.15" cy="851.46" r="14.4" fill="#009af9" fill-rule="evenodd" fill-opacity="1" stroke="none"/>
<circle clip-path="url(#clip942)" cx="1593.05" cy="849.402" r="14.4" fill="#009af9" fill-rule="evenodd" fill-opacity="1" stroke="none"/>
<circle clip-path="url(#clip942)" cx="1631.95" cy="845.285" r="14.4" fill="#009af9" fill-rule="evenodd" fill-opacity="1" stroke="none"/>
<circle clip-path="url(#clip942)" cx="1670.85" cy="841.168" r="14.4" fill="#009af9" fill-rule="evenodd" fill-opacity="1" stroke="none"/>
<circle clip-path="url(#clip942)" cx="1709.75" cy="830.876" r="14.4" fill="#009af9" fill-rule="evenodd" fill-opacity="1" stroke="none"/>
<circle clip-path="url(#clip942)" cx="1748.64" cy="816.467" r="14.4" fill="#009af9" fill-rule="evenodd" fill-opacity="1" stroke="none"/>
<circle clip-path="url(#clip942)" cx="1787.54" cy="816.467" r="14.4" fill="#009af9" fill-rule="evenodd" fill-opacity="1" stroke="none"/>
<circle clip-path="url(#clip942)" cx="1826.44" cy="808.234" r="14.4" fill="#009af9" fill-rule="evenodd" fill-opacity="1" stroke="none"/>
<circle clip-path="url(#clip942)" cx="1865.34" cy="793.825" r="14.4" fill="#009af9" fill-rule="evenodd" fill-opacity="1" stroke="none"/>
<circle clip-path="url(#clip942)" cx="1904.24" cy="791.766" r="14.4" fill="#009af9" fill-rule="evenodd" fill-opacity="1" stroke="none"/>
<circle clip-path="url(#clip942)" cx="1943.14" cy="756.774" r="14.4" fill="#009af9" fill-rule="evenodd" fill-opacity="1" stroke="none"/>
<circle clip-path="url(#clip942)" cx="1982.04" cy="730.014" r="14.4" fill="#009af9" fill-rule="evenodd" fill-opacity="1" stroke="none"/>
<circle clip-path="url(#clip942)" cx="2020.94" cy="727.956" r="14.4" fill="#009af9" fill-rule="evenodd" fill-opacity="1" stroke="none"/>
<circle clip-path="url(#clip942)" cx="2059.84" cy="721.781" r="14.4" fill="#009af9" fill-rule="evenodd" fill-opacity="1" stroke="none"/>
<circle clip-path="url(#clip942)" cx="2098.74" cy="707.372" r="14.4" fill="#009af9" fill-rule="evenodd" fill-opacity="1" stroke="none"/>
<circle clip-path="url(#clip942)" cx="2137.64" cy="692.963" r="14.4" fill="#009af9" fill-rule="evenodd" fill-opacity="1" stroke="none"/>
<circle clip-path="url(#clip942)" cx="2176.54" cy="686.788" r="14.4" fill="#009af9" fill-rule="evenodd" fill-opacity="1" stroke="none"/>
<circle clip-path="url(#clip942)" cx="2215.44" cy="633.27" r="14.4" fill="#009af9" fill-rule="evenodd" fill-opacity="1" stroke="none"/>
<circle clip-path="url(#clip942)" cx="2254.34" cy="522.116" r="14.4" fill="#009af9" fill-rule="evenodd" fill-opacity="1" stroke="none"/>
<circle clip-path="url(#clip942)" cx="2293.24" cy="419.196" r="14.4" fill="#009af9" fill-rule="evenodd" fill-opacity="1" stroke="none"/>
<path clip-path="url(#clip942)" d="M309.359 981.919 L348.259 981.919 L387.159 981.919 L426.058 981.919 L464.958 981.919 L503.857 981.919 L542.757 981.919 L581.657 981.919 L620.556 981.919 L659.456 981.919 L698.355 981.919 L737.255 981.919 L776.155 981.919 L815.054 981.919 L853.954 981.919 L892.854 981.919 L931.753 981.919 L970.653 981.919 L1009.55 981.919 L1048.45 981.919 L1087.35 981.919 L1126.25 981.919 L1165.15 981.919 L1204.05 981.919 L1242.95 981.919 L1281.85 981.919 L1320.75 981.919 L1359.65 981.919 L1398.55 981.919 L1437.45 981.919 L1476.35 981.919 L1515.25 981.919 L1554.15 981.919 L1593.05 981.919 L1631.95 981.919 L1670.85 981.919 L1709.75 981.919 L1748.64 981.919 L1787.54 981.919 L1826.44 981.919 L1865.34 981.919 L1904.24 981.919 L1943.14 981.919 L1982.04 981.919 L2020.94 981.919 L2059.84 981.919 L2098.74 981.919 L2137.64 981.919 L2176.54 981.919 L2215.44 981.919 L2254.34 981.919 L2293.24 981.919 L2293.24 930.209 L2254.34 930.209 L2215.44 930.209 L2176.54 930.209 L2137.64 930.209 L2098.74 930.209 L2059.84 930.209 L2020.94 930.209 L1982.04 930.209 L1943.14 930.209 L1904.24 930.209 L1865.34 930.209 L1826.44 930.209 L1787.54 930.209 L1748.64 930.209 L1709.75 930.209 L1670.85 930.209 L1631.95 930.209 L1593.05 930.209 L1554.15 930.209 L1515.25 930.209 L1476.35 930.209 L1437.45 930.209 L1398.55 930.209 L1359.65 930.209 L1320.75 930.209 L1281.85 930.209 L1242.95 930.209 L1204.05 930.209 L1165.15 930.209 L1126.25 930.209 L1087.35 930.209 L1048.45 930.209 L1009.55 930.209 L970.653 930.209 L931.753 930.209 L892.854 930.209 L853.954 930.209 L815.054 930.209 L776.155 930.209 L737.255 930.209 L698.355 930.209 L659.456 930.209 L620.556 930.209 L581.657 930.209 L542.757 930.209 L503.857 930.209 L464.958 930.209 L426.058 930.209 L387.159 930.209 L348.259 930.209 L309.359 930.209  Z" fill="#e26f46" fill-rule="evenodd" fill-opacity="0.6"/>
<polyline clip-path="url(#clip942)" style="stroke:#e26f46; stroke-linecap:round; stroke-linejoin:round; stroke-width:4; stroke-opacity:0; fill:none" points="309.359,981.919 348.259,981.919 387.159,981.919 426.058,981.919 464.958,981.919 503.857,981.919 542.757,981.919 581.657,981.919 620.556,981.919 659.456,981.919 698.355,981.919 737.255,981.919 776.155,981.919 815.054,981.919 853.954,981.919 892.854,981.919 931.753,981.919 970.653,981.919 1009.55,981.919 1048.45,981.919 1087.35,981.919 1126.25,981.919 1165.15,981.919 1204.05,981.919 1242.95,981.919 1281.85,981.919 1320.75,981.919 1359.65,981.919 1398.55,981.919 1437.45,981.919 1476.35,981.919 1515.25,981.919 1554.15,981.919 1593.05,981.919 1631.95,981.919 1670.85,981.919 1709.75,981.919 1748.64,981.919 1787.54,981.919 1826.44,981.919 1865.34,981.919 1904.24,981.919 1943.14,981.919 1982.04,981.919 2020.94,981.919 2059.84,981.919 2098.74,981.919 2137.64,981.919 2176.54,981.919 2215.44,981.919 2254.34,981.919 2293.24,981.919 "/>
<polyline clip-path="url(#clip942)" style="stroke:#000000; stroke-linecap:round; stroke-linejoin:round; stroke-width:4; stroke-opacity:1; fill:none" stroke-dasharray="2, 4" points="309.359,955.004 348.259,955.004 387.159,955.004 426.058,955.004 464.958,955.004 503.857,955.004 542.757,955.004 581.657,955.004 620.556,955.004 659.456,955.004 698.355,955.004 737.255,955.004 776.155,955.004 815.054,955.004 853.954,955.004 892.854,955.004 931.753,955.004 970.653,955.004 1009.55,955.004 1048.45,955.004 1087.35,955.004 1126.25,955.004 1165.15,955.004 1204.05,955.004 1242.95,955.004 1281.85,955.004 1320.75,955.004 1359.65,955.004 1398.55,955.004 1437.45,955.004 1476.35,955.004 1515.25,955.004 1554.15,955.004 1593.05,955.004 1631.95,955.004 1670.85,955.004 1709.75,955.004 1748.64,955.004 1787.54,955.004 1826.44,955.004 1865.34,955.004 1904.24,955.004 1943.14,955.004 1982.04,955.004 2020.94,955.004 2059.84,955.004 2098.74,955.004 2137.64,955.004 2176.54,955.004 2215.44,955.004 2254.34,955.004 2293.24,955.004 "/>
<path clip-path="url(#clip940)" d="M319.94 252.948 L1295.94 252.948 L1295.94 97.4278 L319.94 97.4278  Z" fill="#ffffff" fill-rule="evenodd" fill-opacity="1"/>
<polyline clip-path="url(#clip940)" style="stroke:#ffffff; stroke-linecap:round; stroke-linejoin:round; stroke-width:4; stroke-opacity:1; fill:none" points="319.94,252.948 1295.94,252.948 1295.94,97.4278 319.94,97.4278 319.94,252.948 "/>
<circle clip-path="url(#clip940)" cx="413.403" cy="149.268" r="20.48" fill="#009af9" fill-rule="evenodd" fill-opacity="1" stroke="none"/>
<path clip-path="url(#clip940)" d="M511.542 135.83 L511.542 162.705 L517.19 162.705 Q524.342 162.705 527.653 159.465 Q530.986 156.224 530.986 149.233 Q530.986 142.289 527.653 139.071 Q524.342 135.83 517.19 135.83 L511.542 135.83 M506.866 131.988 L516.472 131.988 Q526.518 131.988 531.217 136.178 Q535.916 140.344 535.916 149.233 Q535.916 158.168 531.194 162.358 Q526.472 166.548 516.472 166.548 L506.866 166.548 L506.866 131.988 Z" fill="#000000" fill-rule="nonzero" fill-opacity="1" /><path clip-path="url(#clip940)" d="M554.967 153.515 Q549.805 153.515 547.815 154.696 Q545.824 155.877 545.824 158.724 Q545.824 160.992 547.305 162.335 Q548.81 163.654 551.379 163.654 Q554.921 163.654 557.051 161.154 Q559.203 158.631 559.203 154.465 L559.203 153.515 L554.967 153.515 M563.463 151.756 L563.463 166.548 L559.203 166.548 L559.203 162.613 Q557.745 164.974 555.569 166.108 Q553.393 167.219 550.245 167.219 Q546.264 167.219 543.902 164.997 Q541.565 162.752 541.565 159.002 Q541.565 154.627 544.481 152.404 Q547.421 150.182 553.231 150.182 L559.203 150.182 L559.203 149.766 Q559.203 146.826 557.259 145.228 Q555.338 143.608 551.842 143.608 Q549.62 143.608 547.514 144.141 Q545.407 144.673 543.463 145.738 L543.463 141.803 Q545.801 140.9 548 140.46 Q550.199 139.997 552.282 139.997 Q557.907 139.997 560.685 142.914 Q563.463 145.83 563.463 151.756 Z" fill="#000000" fill-rule="nonzero" fill-opacity="1" /><path clip-path="url(#clip940)" d="M576.449 133.261 L576.449 140.622 L585.222 140.622 L585.222 143.932 L576.449 143.932 L576.449 158.006 Q576.449 161.177 577.305 162.08 Q578.185 162.983 580.847 162.983 L585.222 162.983 L585.222 166.548 L580.847 166.548 Q575.916 166.548 574.041 164.719 Q572.166 162.867 572.166 158.006 L572.166 143.932 L569.041 143.932 L569.041 140.622 L572.166 140.622 L572.166 133.261 L576.449 133.261 Z" fill="#000000" fill-rule="nonzero" fill-opacity="1" /><path clip-path="url(#clip940)" d="M602.606 153.515 Q597.444 153.515 595.453 154.696 Q593.462 155.877 593.462 158.724 Q593.462 160.992 594.944 162.335 Q596.449 163.654 599.018 163.654 Q602.56 163.654 604.689 161.154 Q606.842 158.631 606.842 154.465 L606.842 153.515 L602.606 153.515 M611.101 151.756 L611.101 166.548 L606.842 166.548 L606.842 162.613 Q605.384 164.974 603.208 166.108 Q601.032 167.219 597.884 167.219 Q593.902 167.219 591.541 164.997 Q589.203 162.752 589.203 159.002 Q589.203 154.627 592.12 152.404 Q595.06 150.182 600.87 150.182 L606.842 150.182 L606.842 149.766 Q606.842 146.826 604.898 145.228 Q602.976 143.608 599.481 143.608 Q597.259 143.608 595.152 144.141 Q593.046 144.673 591.101 145.738 L591.101 141.803 Q593.439 140.9 595.638 140.46 Q597.837 139.997 599.921 139.997 Q605.546 139.997 608.323 142.914 Q611.101 145.83 611.101 151.756 Z" fill="#000000" fill-rule="nonzero" fill-opacity="1" /><path clip-path="url(#clip940)" d="M645.175 130.576 Q642.073 135.9 640.569 141.108 Q639.064 146.316 639.064 151.664 Q639.064 157.011 640.569 162.265 Q642.096 167.497 645.175 172.798 L641.471 172.798 Q637.999 167.358 636.263 162.103 Q634.55 156.849 634.55 151.664 Q634.55 146.502 636.263 141.27 Q637.976 136.039 641.471 130.576 L645.175 130.576 Z" fill="#000000" fill-rule="nonzero" fill-opacity="1" /><path clip-path="url(#clip940)" d="M663.485 143.608 Q660.059 143.608 658.069 146.293 Q656.078 148.955 656.078 153.608 Q656.078 158.261 658.045 160.946 Q660.036 163.608 663.485 163.608 Q666.888 163.608 668.879 160.923 Q670.869 158.238 670.869 153.608 Q670.869 149.002 668.879 146.316 Q666.888 143.608 663.485 143.608 M663.485 139.997 Q669.041 139.997 672.212 143.608 Q675.383 147.219 675.383 153.608 Q675.383 159.974 672.212 163.608 Q669.041 167.219 663.485 167.219 Q657.907 167.219 654.735 163.608 Q651.587 159.974 651.587 153.608 Q651.587 147.219 654.735 143.608 Q657.907 139.997 663.485 139.997 Z" fill="#000000" fill-rule="nonzero" fill-opacity="1" /><path clip-path="url(#clip940)" d="M701.054 153.608 Q701.054 148.909 699.11 146.247 Q697.189 143.562 693.809 143.562 Q690.429 143.562 688.485 146.247 Q686.564 148.909 686.564 153.608 Q686.564 158.307 688.485 160.992 Q690.429 163.654 693.809 163.654 Q697.189 163.654 699.11 160.992 Q701.054 158.307 701.054 153.608 M686.564 144.557 Q687.906 142.242 689.943 141.131 Q692.004 139.997 694.851 139.997 Q699.573 139.997 702.513 143.747 Q705.476 147.497 705.476 153.608 Q705.476 159.719 702.513 163.469 Q699.573 167.219 694.851 167.219 Q692.004 167.219 689.943 166.108 Q687.906 164.974 686.564 162.659 L686.564 166.548 L682.281 166.548 L682.281 130.529 L686.564 130.529 L686.564 144.557 Z" fill="#000000" fill-rule="nonzero" fill-opacity="1" /><path clip-path="url(#clip940)" d="M729.064 141.386 L729.064 145.414 Q727.258 144.488 725.314 144.025 Q723.369 143.562 721.286 143.562 Q718.115 143.562 716.517 144.534 Q714.943 145.506 714.943 147.451 Q714.943 148.932 716.077 149.789 Q717.212 150.622 720.638 151.386 L722.096 151.71 Q726.633 152.682 728.531 154.465 Q730.452 156.224 730.452 159.395 Q730.452 163.006 727.582 165.113 Q724.735 167.219 719.735 167.219 Q717.652 167.219 715.383 166.802 Q713.138 166.409 710.638 165.599 L710.638 161.201 Q712.999 162.427 715.29 163.052 Q717.582 163.654 719.827 163.654 Q722.837 163.654 724.457 162.636 Q726.077 161.594 726.077 159.719 Q726.077 157.983 724.897 157.057 Q723.739 156.131 719.781 155.275 L718.3 154.928 Q714.341 154.094 712.582 152.381 Q710.823 150.645 710.823 147.636 Q710.823 143.978 713.415 141.988 Q716.008 139.997 720.777 139.997 Q723.138 139.997 725.221 140.344 Q727.304 140.691 729.064 141.386 Z" fill="#000000" fill-rule="nonzero" fill-opacity="1" /><path clip-path="url(#clip940)" d="M759.411 152.52 L759.411 154.603 L739.827 154.603 Q740.105 159.002 742.466 161.316 Q744.85 163.608 749.087 163.608 Q751.54 163.608 753.832 163.006 Q756.147 162.404 758.415 161.201 L758.415 165.228 Q756.124 166.201 753.716 166.71 Q751.309 167.219 748.832 167.219 Q742.628 167.219 738.994 163.608 Q735.383 159.997 735.383 153.84 Q735.383 147.474 738.809 143.747 Q742.258 139.997 748.091 139.997 Q753.323 139.997 756.355 143.377 Q759.411 146.733 759.411 152.52 M755.151 151.27 Q755.105 147.775 753.184 145.691 Q751.286 143.608 748.138 143.608 Q744.573 143.608 742.42 145.622 Q740.29 147.636 739.966 151.293 L755.151 151.27 Z" fill="#000000" fill-rule="nonzero" fill-opacity="1" /><path clip-path="url(#clip940)" d="M781.424 144.603 Q780.707 144.187 779.85 144.002 Q779.017 143.793 777.998 143.793 Q774.387 143.793 772.443 146.154 Q770.522 148.492 770.522 152.89 L770.522 166.548 L766.239 166.548 L766.239 140.622 L770.522 140.622 L770.522 144.65 Q771.864 142.289 774.017 141.154 Q776.17 139.997 779.248 139.997 Q779.688 139.997 780.221 140.066 Q780.753 140.113 781.401 140.229 L781.424 144.603 Z" fill="#000000" fill-rule="nonzero" fill-opacity="1" /><path clip-path="url(#clip940)" d="M782.836 140.622 L787.35 140.622 L795.452 162.381 L803.554 140.622 L808.068 140.622 L798.346 166.548 L792.559 166.548 L782.836 140.622 Z" fill="#000000" fill-rule="nonzero" fill-opacity="1" /><path clip-path="url(#clip940)" d="M836.123 152.52 L836.123 154.603 L816.54 154.603 Q816.818 159.002 819.179 161.316 Q821.563 163.608 825.799 163.608 Q828.253 163.608 830.544 163.006 Q832.859 162.404 835.128 161.201 L835.128 165.228 Q832.836 166.201 830.429 166.71 Q828.021 167.219 825.544 167.219 Q819.341 167.219 815.707 163.608 Q812.095 159.997 812.095 153.84 Q812.095 147.474 815.521 143.747 Q818.97 139.997 824.804 139.997 Q830.035 139.997 833.068 143.377 Q836.123 146.733 836.123 152.52 M831.864 151.27 Q831.818 147.775 829.896 145.691 Q827.998 143.608 824.85 143.608 Q821.285 143.608 819.132 145.622 Q817.003 147.636 816.679 151.293 L831.864 151.27 Z" fill="#000000" fill-rule="nonzero" fill-opacity="1" /><path clip-path="url(#clip940)" d="M860.174 144.557 L860.174 130.529 L864.433 130.529 L864.433 166.548 L860.174 166.548 L860.174 162.659 Q858.831 164.974 856.771 166.108 Q854.734 167.219 851.864 167.219 Q847.165 167.219 844.202 163.469 Q841.262 159.719 841.262 153.608 Q841.262 147.497 844.202 143.747 Q847.165 139.997 851.864 139.997 Q854.734 139.997 856.771 141.131 Q858.831 142.242 860.174 144.557 M845.66 153.608 Q845.66 158.307 847.581 160.992 Q849.526 163.654 852.905 163.654 Q856.285 163.654 858.23 160.992 Q860.174 158.307 860.174 153.608 Q860.174 148.909 858.23 146.247 Q856.285 143.562 852.905 143.562 Q849.526 143.562 847.581 146.247 Q845.66 148.909 845.66 153.608 Z" fill="#000000" fill-rule="nonzero" fill-opacity="1" /><path clip-path="url(#clip940)" d="M900.058 153.515 Q894.896 153.515 892.905 154.696 Q890.915 155.877 890.915 158.724 Q890.915 160.992 892.396 162.335 Q893.901 163.654 896.47 163.654 Q900.012 163.654 902.141 161.154 Q904.294 158.631 904.294 154.465 L904.294 153.515 L900.058 153.515 M908.553 151.756 L908.553 166.548 L904.294 166.548 L904.294 162.613 Q902.836 164.974 900.66 166.108 Q898.484 167.219 895.336 167.219 Q891.354 167.219 888.993 164.997 Q886.655 162.752 886.655 159.002 Q886.655 154.627 889.572 152.404 Q892.512 150.182 898.322 150.182 L904.294 150.182 L904.294 149.766 Q904.294 146.826 902.35 145.228 Q900.428 143.608 896.933 143.608 Q894.711 143.608 892.604 144.141 Q890.498 144.673 888.553 145.738 L888.553 141.803 Q890.891 140.9 893.09 140.46 Q895.289 139.997 897.373 139.997 Q902.998 139.997 905.776 142.914 Q908.553 145.83 908.553 151.756 Z" fill="#000000" fill-rule="nonzero" fill-opacity="1" /><path clip-path="url(#clip940)" d="M934.387 153.284 Q934.387 148.654 932.465 146.108 Q930.567 143.562 927.118 143.562 Q923.692 143.562 921.771 146.108 Q919.873 148.654 919.873 153.284 Q919.873 157.89 921.771 160.437 Q923.692 162.983 927.118 162.983 Q930.567 162.983 932.465 160.437 Q934.387 157.89 934.387 153.284 M938.646 163.33 Q938.646 169.951 935.706 173.168 Q932.766 176.409 926.701 176.409 Q924.456 176.409 922.465 176.062 Q920.475 175.738 918.6 175.043 L918.6 170.9 Q920.475 171.918 922.303 172.404 Q924.132 172.89 926.03 172.89 Q930.22 172.89 932.303 170.691 Q934.387 168.515 934.387 164.094 L934.387 161.988 Q933.067 164.279 931.007 165.414 Q928.947 166.548 926.076 166.548 Q921.308 166.548 918.391 162.914 Q915.475 159.279 915.475 153.284 Q915.475 147.266 918.391 143.631 Q921.308 139.997 926.076 139.997 Q928.947 139.997 931.007 141.131 Q933.067 142.266 934.387 144.557 L934.387 140.622 L938.646 140.622 L938.646 163.33 Z" fill="#000000" fill-rule="nonzero" fill-opacity="1" /><path clip-path="url(#clip940)" d="M969.595 152.52 L969.595 154.603 L950.011 154.603 Q950.289 159.002 952.65 161.316 Q955.035 163.608 959.271 163.608 Q961.724 163.608 964.016 163.006 Q966.331 162.404 968.599 161.201 L968.599 165.228 Q966.308 166.201 963.9 166.71 Q961.493 167.219 959.016 167.219 Q952.812 167.219 949.178 163.608 Q945.567 159.997 945.567 153.84 Q945.567 147.474 948.993 143.747 Q952.442 139.997 958.275 139.997 Q963.507 139.997 966.539 143.377 Q969.595 146.733 969.595 152.52 M965.335 151.27 Q965.289 147.775 963.368 145.691 Q961.47 143.608 958.322 143.608 Q954.757 143.608 952.604 145.622 Q950.474 147.636 950.15 151.293 L965.335 151.27 Z" fill="#000000" fill-rule="nonzero" fill-opacity="1" /><path clip-path="url(#clip940)" d="M993.113 141.386 L993.113 145.414 Q991.307 144.488 989.363 144.025 Q987.419 143.562 985.335 143.562 Q982.164 143.562 980.567 144.534 Q978.993 145.506 978.993 147.451 Q978.993 148.932 980.127 149.789 Q981.261 150.622 984.687 151.386 L986.145 151.71 Q990.683 152.682 992.581 154.465 Q994.502 156.224 994.502 159.395 Q994.502 163.006 991.632 165.113 Q988.784 167.219 983.784 167.219 Q981.701 167.219 979.433 166.802 Q977.187 166.409 974.687 165.599 L974.687 161.201 Q977.048 162.427 979.34 163.052 Q981.632 163.654 983.877 163.654 Q986.886 163.654 988.507 162.636 Q990.127 161.594 990.127 159.719 Q990.127 157.983 988.946 157.057 Q987.789 156.131 983.831 155.275 L982.349 154.928 Q978.391 154.094 976.632 152.381 Q974.872 150.645 974.872 147.636 Q974.872 143.978 977.465 141.988 Q980.058 139.997 984.826 139.997 Q987.187 139.997 989.27 140.344 Q991.354 140.691 993.113 141.386 Z" fill="#000000" fill-rule="nonzero" fill-opacity="1" /><path clip-path="url(#clip940)" d="M1000.61 130.576 L1004.32 130.576 Q1007.79 136.039 1009.5 141.27 Q1011.24 146.502 1011.24 151.664 Q1011.24 156.849 1009.5 162.103 Q1007.79 167.358 1004.32 172.798 L1000.61 172.798 Q1003.69 167.497 1005.2 162.265 Q1006.72 157.011 1006.72 151.664 Q1006.72 146.316 1005.2 141.108 Q1003.69 135.9 1000.61 130.576 Z" fill="#000000" fill-rule="nonzero" fill-opacity="1" /><path clip-path="url(#clip940)" d="M343.306 221.844 L483.5 221.844 L483.5 180.372 L343.306 180.372 L343.306 221.844  Z" fill="#e26f46" fill-rule="evenodd" fill-opacity="0.6"/>
<polyline clip-path="url(#clip940)" style="stroke:#e26f46; stroke-linecap:round; stroke-linejoin:round; stroke-width:4; stroke-opacity:0; fill:none" points="343.306,180.372 483.5,180.372 "/>
<path clip-path="url(#clip940)" d="M506.866 183.828 L513.833 183.828 L522.653 207.346 L531.518 183.828 L538.486 183.828 L538.486 218.388 L533.926 218.388 L533.926 188.041 L525.014 211.744 L520.315 211.744 L511.403 188.041 L511.403 218.388 L506.866 218.388 L506.866 183.828 Z" fill="#000000" fill-rule="nonzero" fill-opacity="1" /><path clip-path="url(#clip940)" d="M557.629 195.448 Q554.203 195.448 552.213 198.133 Q550.222 200.795 550.222 205.448 Q550.222 210.101 552.189 212.786 Q554.18 215.448 557.629 215.448 Q561.032 215.448 563.023 212.763 Q565.013 210.078 565.013 205.448 Q565.013 200.842 563.023 198.156 Q561.032 195.448 557.629 195.448 M557.629 191.837 Q563.185 191.837 566.356 195.448 Q569.527 199.059 569.527 205.448 Q569.527 211.814 566.356 215.448 Q563.185 219.059 557.629 219.059 Q552.051 219.059 548.879 215.448 Q545.731 211.814 545.731 205.448 Q545.731 199.059 548.879 195.448 Q552.051 191.837 557.629 191.837 Z" fill="#000000" fill-rule="nonzero" fill-opacity="1" /><path clip-path="url(#clip940)" d="M593.648 196.397 L593.648 182.369 L597.907 182.369 L597.907 218.388 L593.648 218.388 L593.648 214.499 Q592.305 216.814 590.245 217.948 Q588.208 219.059 585.337 219.059 Q580.638 219.059 577.675 215.309 Q574.736 211.559 574.736 205.448 Q574.736 199.337 577.675 195.587 Q580.638 191.837 585.337 191.837 Q588.208 191.837 590.245 192.971 Q592.305 194.082 593.648 196.397 M579.134 205.448 Q579.134 210.147 581.055 212.832 Q583 215.494 586.379 215.494 Q589.759 215.494 591.703 212.832 Q593.648 210.147 593.648 205.448 Q593.648 200.749 591.703 198.087 Q589.759 195.402 586.379 195.402 Q583 195.402 581.055 198.087 Q579.134 200.749 579.134 205.448 Z" fill="#000000" fill-rule="nonzero" fill-opacity="1" /><path clip-path="url(#clip940)" d="M628.856 204.36 L628.856 206.443 L609.273 206.443 Q609.55 210.842 611.911 213.156 Q614.296 215.448 618.532 215.448 Q620.985 215.448 623.277 214.846 Q625.592 214.244 627.86 213.041 L627.86 217.068 Q625.569 218.041 623.161 218.55 Q620.754 219.059 618.277 219.059 Q612.073 219.059 608.439 215.448 Q604.828 211.837 604.828 205.68 Q604.828 199.314 608.254 195.587 Q611.703 191.837 617.536 191.837 Q622.768 191.837 625.8 195.217 Q628.856 198.573 628.856 204.36 M624.597 203.11 Q624.55 199.615 622.629 197.531 Q620.731 195.448 617.583 195.448 Q614.018 195.448 611.865 197.462 Q609.735 199.476 609.411 203.133 L624.597 203.11 Z" fill="#000000" fill-rule="nonzero" fill-opacity="1" /><path clip-path="url(#clip940)" d="M635.846 182.369 L640.106 182.369 L640.106 218.388 L635.846 218.388 L635.846 182.369 Z" fill="#000000" fill-rule="nonzero" fill-opacity="1" /><path clip-path="url(#clip940)" d="M674.318 182.416 Q671.217 187.74 669.712 192.948 Q668.207 198.156 668.207 203.504 Q668.207 208.851 669.712 214.105 Q671.24 219.337 674.318 224.638 L670.615 224.638 Q667.143 219.198 665.406 213.943 Q663.694 208.689 663.694 203.504 Q663.694 198.342 665.406 193.11 Q667.119 187.879 670.615 182.416 L674.318 182.416 Z" fill="#000000" fill-rule="nonzero" fill-opacity="1" /><path clip-path="url(#clip940)" d="M693.763 199.244 Q690.615 199.244 688.763 201.397 Q686.934 203.55 686.934 207.3 Q686.934 211.027 688.763 213.203 Q690.615 215.355 693.763 215.355 Q696.911 215.355 698.74 213.203 Q700.591 211.027 700.591 207.3 Q700.591 203.55 698.74 201.397 Q696.911 199.244 693.763 199.244 M703.045 184.592 L703.045 188.851 Q701.286 188.018 699.48 187.578 Q697.698 187.138 695.939 187.138 Q691.309 187.138 688.855 190.263 Q686.425 193.388 686.078 199.707 Q687.443 197.693 689.504 196.629 Q691.564 195.541 694.041 195.541 Q699.249 195.541 702.258 198.712 Q705.291 201.86 705.291 207.3 Q705.291 212.624 702.142 215.842 Q698.994 219.059 693.763 219.059 Q687.767 219.059 684.596 214.476 Q681.425 209.869 681.425 201.143 Q681.425 192.948 685.314 188.087 Q689.203 183.203 695.754 183.203 Q697.513 183.203 699.295 183.55 Q701.101 183.897 703.045 184.592 Z" fill="#000000" fill-rule="nonzero" fill-opacity="1" /><path clip-path="url(#clip940)" d="M713.392 183.828 L731.749 183.828 L731.749 187.763 L717.675 187.763 L717.675 196.235 Q718.693 195.888 719.712 195.726 Q720.73 195.541 721.749 195.541 Q727.536 195.541 730.915 198.712 Q734.295 201.883 734.295 207.3 Q734.295 212.879 730.823 215.98 Q727.351 219.059 721.031 219.059 Q718.855 219.059 716.587 218.689 Q714.341 218.318 711.934 217.578 L711.934 212.879 Q714.017 214.013 716.24 214.568 Q718.462 215.124 720.939 215.124 Q724.943 215.124 727.281 213.017 Q729.619 210.911 729.619 207.3 Q729.619 203.689 727.281 201.582 Q724.943 199.476 720.939 199.476 Q719.064 199.476 717.189 199.893 Q715.337 200.309 713.392 201.189 L713.392 183.828 Z" fill="#000000" fill-rule="nonzero" fill-opacity="1" /><path clip-path="url(#clip940)" d="M743.508 212.508 L748.392 212.508 L748.392 218.388 L743.508 218.388 L743.508 212.508 Z" fill="#000000" fill-rule="nonzero" fill-opacity="1" /><path clip-path="url(#clip940)" d="M769.156 199.244 Q766.008 199.244 764.156 201.397 Q762.327 203.55 762.327 207.3 Q762.327 211.027 764.156 213.203 Q766.008 215.355 769.156 215.355 Q772.304 215.355 774.133 213.203 Q775.985 211.027 775.985 207.3 Q775.985 203.55 774.133 201.397 Q772.304 199.244 769.156 199.244 M778.438 184.592 L778.438 188.851 Q776.679 188.018 774.873 187.578 Q773.091 187.138 771.332 187.138 Q766.702 187.138 764.249 190.263 Q761.818 193.388 761.471 199.707 Q762.837 197.693 764.897 196.629 Q766.957 195.541 769.434 195.541 Q774.642 195.541 777.651 198.712 Q780.684 201.86 780.684 207.3 Q780.684 212.624 777.535 215.842 Q774.387 219.059 769.156 219.059 Q763.161 219.059 759.989 214.476 Q756.818 209.869 756.818 201.143 Q756.818 192.948 760.707 188.087 Q764.596 183.203 771.147 183.203 Q772.906 183.203 774.688 183.55 Q776.494 183.897 778.438 184.592 Z" fill="#000000" fill-rule="nonzero" fill-opacity="1" /><path clip-path="url(#clip940)" d="M789.549 214.453 L797.188 214.453 L797.188 188.087 L788.878 189.754 L788.878 185.494 L797.142 183.828 L801.818 183.828 L801.818 214.453 L809.457 214.453 L809.457 218.388 L789.549 218.388 L789.549 214.453 Z" fill="#000000" fill-rule="nonzero" fill-opacity="1" /><path clip-path="url(#clip940)" d="M850.706 188.666 L850.706 201.559 L863.6 201.559 L863.6 205.494 L850.706 205.494 L850.706 218.388 L846.818 218.388 L846.818 205.494 L833.924 205.494 L833.924 201.559 L846.818 201.559 L846.818 188.666 L850.706 188.666 Z" fill="#000000" fill-rule="nonzero" fill-opacity="1" /><path clip-path="url(#clip940)" d="M883.692 186.907 Q880.081 186.907 878.253 190.471 Q876.447 194.013 876.447 201.143 Q876.447 208.249 878.253 211.814 Q880.081 215.355 883.692 215.355 Q887.327 215.355 889.132 211.814 Q890.961 208.249 890.961 201.143 Q890.961 194.013 889.132 190.471 Q887.327 186.907 883.692 186.907 M883.692 183.203 Q889.502 183.203 892.558 187.809 Q895.637 192.393 895.637 201.143 Q895.637 209.869 892.558 214.476 Q889.502 219.059 883.692 219.059 Q877.882 219.059 874.803 214.476 Q871.748 209.869 871.748 201.143 Q871.748 192.393 874.803 187.809 Q877.882 183.203 883.692 183.203 Z" fill="#000000" fill-rule="nonzero" fill-opacity="1" /><path clip-path="url(#clip940)" d="M903.854 212.508 L908.738 212.508 L908.738 218.388 L903.854 218.388 L903.854 212.508 Z" fill="#000000" fill-rule="nonzero" fill-opacity="1" /><path clip-path="url(#clip940)" d="M928.924 186.907 Q925.312 186.907 923.484 190.471 Q921.678 194.013 921.678 201.143 Q921.678 208.249 923.484 211.814 Q925.312 215.355 928.924 215.355 Q932.558 215.355 934.363 211.814 Q936.192 208.249 936.192 201.143 Q936.192 194.013 934.363 190.471 Q932.558 186.907 928.924 186.907 M928.924 183.203 Q934.734 183.203 937.789 187.809 Q940.868 192.393 940.868 201.143 Q940.868 209.869 937.789 214.476 Q934.734 219.059 928.924 219.059 Q923.113 219.059 920.035 214.476 Q916.979 209.869 916.979 201.143 Q916.979 192.393 920.035 187.809 Q923.113 183.203 928.924 183.203 Z" fill="#000000" fill-rule="nonzero" fill-opacity="1" /><path clip-path="url(#clip940)" d="M949.896 214.453 L957.535 214.453 L957.535 188.087 L949.224 189.754 L949.224 185.494 L957.488 183.828 L962.164 183.828 L962.164 214.453 L969.803 214.453 L969.803 218.388 L949.896 218.388 L949.896 214.453 Z" fill="#000000" fill-rule="nonzero" fill-opacity="1" /><path clip-path="url(#clip940)" d="M983.275 214.453 L999.594 214.453 L999.594 218.388 L977.65 218.388 L977.65 214.453 Q980.312 211.698 984.895 207.068 Q989.502 202.416 990.683 201.073 Q992.928 198.55 993.807 196.814 Q994.71 195.055 994.71 193.365 Q994.71 190.61 992.766 188.874 Q990.845 187.138 987.743 187.138 Q985.544 187.138 983.09 187.902 Q980.659 188.666 977.882 190.217 L977.882 185.494 Q980.706 184.36 983.159 183.782 Q985.613 183.203 987.65 183.203 Q993.02 183.203 996.215 185.888 Q999.409 188.573 999.409 193.064 Q999.409 195.194 998.599 197.115 Q997.812 199.013 995.706 201.606 Q995.127 202.277 992.025 205.494 Q988.923 208.689 983.275 214.453 Z" fill="#000000" fill-rule="nonzero" fill-opacity="1" /><path clip-path="url(#clip940)" d="M1016.38 183.828 L1020.31 183.828 L1008.28 222.786 L1004.34 222.786 L1016.38 183.828 Z" fill="#000000" fill-rule="nonzero" fill-opacity="1" /><path clip-path="url(#clip940)" d="M1022.63 203.504 L1035.1 203.504 L1035.1 207.3 L1022.63 207.3 L1022.63 203.504 Z" fill="#000000" fill-rule="nonzero" fill-opacity="1" /><path clip-path="url(#clip940)" d="M1052.49 186.907 Q1048.88 186.907 1047.05 190.471 Q1045.24 194.013 1045.24 201.143 Q1045.24 208.249 1047.05 211.814 Q1048.88 215.355 1052.49 215.355 Q1056.12 215.355 1057.93 211.814 Q1059.76 208.249 1059.76 201.143 Q1059.76 194.013 1057.93 190.471 Q1056.12 186.907 1052.49 186.907 M1052.49 183.203 Q1058.3 183.203 1061.35 187.809 Q1064.43 192.393 1064.43 201.143 Q1064.43 209.869 1061.35 214.476 Q1058.3 219.059 1052.49 219.059 Q1046.68 219.059 1043.6 214.476 Q1040.54 209.869 1040.54 201.143 Q1040.54 192.393 1043.6 187.809 Q1046.68 183.203 1052.49 183.203 Z" fill="#000000" fill-rule="nonzero" fill-opacity="1" /><path clip-path="url(#clip940)" d="M1072.65 212.508 L1077.53 212.508 L1077.53 218.388 L1072.65 218.388 L1072.65 212.508 Z" fill="#000000" fill-rule="nonzero" fill-opacity="1" /><path clip-path="url(#clip940)" d="M1097.72 186.907 Q1094.11 186.907 1092.28 190.471 Q1090.47 194.013 1090.47 201.143 Q1090.47 208.249 1092.28 211.814 Q1094.11 215.355 1097.72 215.355 Q1101.35 215.355 1103.16 211.814 Q1104.99 208.249 1104.99 201.143 Q1104.99 194.013 1103.16 190.471 Q1101.35 186.907 1097.72 186.907 M1097.72 183.203 Q1103.53 183.203 1106.58 187.809 Q1109.66 192.393 1109.66 201.143 Q1109.66 209.869 1106.58 214.476 Q1103.53 219.059 1097.72 219.059 Q1091.91 219.059 1088.83 214.476 Q1085.77 209.869 1085.77 201.143 Q1085.77 192.393 1088.83 187.809 Q1091.91 183.203 1097.72 183.203 Z" fill="#000000" fill-rule="nonzero" fill-opacity="1" /><path clip-path="url(#clip940)" d="M1118.69 214.453 L1126.33 214.453 L1126.33 188.087 L1118.02 189.754 L1118.02 185.494 L1126.28 183.828 L1130.96 183.828 L1130.96 214.453 L1138.6 214.453 L1138.6 218.388 L1118.69 218.388 L1118.69 214.453 Z" fill="#000000" fill-rule="nonzero" fill-opacity="1" /><path clip-path="url(#clip940)" d="M1162.21 199.754 Q1165.57 200.471 1167.44 202.74 Q1169.34 205.008 1169.34 208.342 Q1169.34 213.457 1165.82 216.258 Q1162.3 219.059 1155.82 219.059 Q1153.64 219.059 1151.33 218.619 Q1149.04 218.203 1146.58 217.346 L1146.58 212.832 Q1148.53 213.967 1150.84 214.545 Q1153.16 215.124 1155.68 215.124 Q1160.08 215.124 1162.37 213.388 Q1164.69 211.652 1164.69 208.342 Q1164.69 205.286 1162.53 203.573 Q1160.4 201.837 1156.58 201.837 L1152.56 201.837 L1152.56 197.994 L1156.77 197.994 Q1160.22 197.994 1162.05 196.629 Q1163.88 195.24 1163.88 192.647 Q1163.88 189.985 1161.98 188.573 Q1160.1 187.138 1156.58 187.138 Q1154.66 187.138 1152.46 187.555 Q1150.26 187.971 1147.63 188.851 L1147.63 184.684 Q1150.29 183.944 1152.6 183.573 Q1154.94 183.203 1157 183.203 Q1162.33 183.203 1165.43 185.633 Q1168.53 188.041 1168.53 192.161 Q1168.53 195.031 1166.89 197.022 Q1165.24 198.99 1162.21 199.754 Z" fill="#000000" fill-rule="nonzero" fill-opacity="1" /><path clip-path="url(#clip940)" d="M1192.86 183.828 L1199.82 183.828 L1208.64 207.346 L1217.51 183.828 L1224.48 183.828 L1224.48 218.388 L1219.92 218.388 L1219.92 188.041 L1211.01 211.744 L1206.31 211.744 L1197.39 188.041 L1197.39 218.388 L1192.86 218.388 L1192.86 183.828 Z" fill="#000000" fill-rule="nonzero" fill-opacity="1" /><path clip-path="url(#clip940)" d="M1245.36 205.355 Q1240.2 205.355 1238.2 206.536 Q1236.21 207.717 1236.21 210.564 Q1236.21 212.832 1237.7 214.175 Q1239.2 215.494 1241.77 215.494 Q1245.31 215.494 1247.44 212.994 Q1249.59 210.471 1249.59 206.305 L1249.59 205.355 L1245.36 205.355 M1253.85 203.596 L1253.85 218.388 L1249.59 218.388 L1249.59 214.453 Q1248.13 216.814 1245.96 217.948 Q1243.78 219.059 1240.63 219.059 Q1236.65 219.059 1234.29 216.837 Q1231.95 214.592 1231.95 210.842 Q1231.95 206.467 1234.87 204.244 Q1237.81 202.022 1243.62 202.022 L1249.59 202.022 L1249.59 201.606 Q1249.59 198.666 1247.65 197.068 Q1245.73 195.448 1242.23 195.448 Q1240.01 195.448 1237.9 195.981 Q1235.8 196.513 1233.85 197.578 L1233.85 193.643 Q1236.19 192.74 1238.39 192.3 Q1240.59 191.837 1242.67 191.837 Q1248.3 191.837 1251.07 194.754 Q1253.85 197.67 1253.85 203.596 Z" fill="#000000" fill-rule="nonzero" fill-opacity="1" /><path clip-path="url(#clip940)" d="M1261.95 182.416 L1265.66 182.416 Q1269.13 187.879 1270.84 193.11 Q1272.58 198.342 1272.58 203.504 Q1272.58 208.689 1270.84 213.943 Q1269.13 219.198 1265.66 224.638 L1261.95 224.638 Q1265.03 219.337 1266.54 214.105 Q1268.07 208.851 1268.07 203.504 Q1268.07 198.156 1266.54 192.948 Q1265.03 187.74 1261.95 182.416 Z" fill="#000000" fill-rule="nonzero" fill-opacity="1" /></svg>
