<?xml version="1.0" encoding="utf-8"?>
<svg xmlns="http://www.w3.org/2000/svg" xmlns:xlink="http://www.w3.org/1999/xlink" width="600" height="400" viewBox="0 0 2400 1600">
<defs>
  <clipPath id="clip780">
    <rect x="0" y="0" width="2400" height="1600"/>
  </clipPath>
</defs>
<path clip-path="url(#clip780)" d="M0 1600 L2400 1600 L2400 8.88178e-14 L0 8.88178e-14  Z" fill="#ffffff" fill-rule="evenodd" fill-opacity="1"/>
<defs>
  <clipPath id="clip781">
    <rect x="480" y="0" width="1681" height="1600"/>
  </clipPath>
</defs>
<path clip-path="url(#clip780)" d="M203.964 1423.18 L2352.76 1423.18 L2352.76 47.2441 L203.964 47.2441  Z" fill="#ffffff" fill-rule="evenodd" fill-opacity="1"/>
<defs>
  <clipPath id="clip782">
    <rect x="203" y="47" width="2150" height="1377"/>
  </clipPath>
</defs>
<polyline clip-path="url(#clip782)" style="stroke:#000000; stroke-linecap:round; stroke-linejoin:round; stroke-width:2; stroke-opacity:0.1; fill:none" points="414.025,1423.18 414.025,47.2441 "/>
<polyline clip-path="url(#clip782)" style="stroke:#000000; stroke-linecap:round; stroke-linejoin:round; stroke-width:2; stroke-opacity:0.1; fill:none" points="828.916,1423.18 828.916,47.2441 "/>
<polyline clip-path="url(#clip782)" style="stroke:#000000; stroke-linecap:round; stroke-linejoin:round; stroke-width:2; stroke-opacity:0.1; fill:none" points="1243.81,1423.18 1243.81,47.2441 "/>
<polyline clip-path="url(#clip782)" style="stroke:#000000; stroke-linecap:round; stroke-linejoin:round; stroke-width:2; stroke-opacity:0.1; fill:none" points="1658.7,1423.18 1658.7,47.2441 "/>
<polyline clip-path="url(#clip782)" style="stroke:#000000; stroke-linecap:round; stroke-linejoin:round; stroke-width:2; stroke-opacity:0.1; fill:none" points="2073.59,1423.18 2073.59,47.2441 "/>
<polyline clip-path="url(#clip782)" style="stroke:#000000; stroke-linecap:round; stroke-linejoin:round; stroke-width:2; stroke-opacity:0.1; fill:none" points="414.025,1423.18 414.025,47.2441 "/>
<polyline clip-path="url(#clip782)" style="stroke:#000000; stroke-linecap:round; stroke-linejoin:round; stroke-width:2; stroke-opacity:0.1; fill:none" points="828.916,1423.18 828.916,47.2441 "/>
<polyline clip-path="url(#clip782)" style="stroke:#000000; stroke-linecap:round; stroke-linejoin:round; stroke-width:2; stroke-opacity:0.1; fill:none" points="1243.81,1423.18 1243.81,47.2441 "/>
<polyline clip-path="url(#clip782)" style="stroke:#000000; stroke-linecap:round; stroke-linejoin:round; stroke-width:2; stroke-opacity:0.1; fill:none" points="1658.7,1423.18 1658.7,47.2441 "/>
<polyline clip-path="url(#clip782)" style="stroke:#000000; stroke-linecap:round; stroke-linejoin:round; stroke-width:2; stroke-opacity:0.1; fill:none" points="2073.59,1423.18 2073.59,47.2441 "/>
<polyline clip-path="url(#clip782)" style="stroke:#000000; stroke-linecap:round; stroke-linejoin:round; stroke-width:2; stroke-opacity:0.1; fill:none" points="203.964,1384.24 2352.76,1384.24 "/>
<polyline clip-path="url(#clip782)" style="stroke:#000000; stroke-linecap:round; stroke-linejoin:round; stroke-width:2; stroke-opacity:0.1; fill:none" points="203.964,1141.18 2352.76,1141.18 "/>
<polyline clip-path="url(#clip782)" style="stroke:#000000; stroke-linecap:round; stroke-linejoin:round; stroke-width:2; stroke-opacity:0.1; fill:none" points="203.964,898.13 2352.76,898.13 "/>
<polyline clip-path="url(#clip782)" style="stroke:#000000; stroke-linecap:round; stroke-linejoin:round; stroke-width:2; stroke-opacity:0.1; fill:none" points="203.964,655.075 2352.76,655.075 "/>
<polyline clip-path="url(#clip782)" style="stroke:#000000; stroke-linecap:round; stroke-linejoin:round; stroke-width:2; stroke-opacity:0.1; fill:none" points="203.964,412.021 2352.76,412.021 "/>
<polyline clip-path="url(#clip782)" style="stroke:#000000; stroke-linecap:round; stroke-linejoin:round; stroke-width:2; stroke-opacity:0.1; fill:none" points="203.964,168.967 2352.76,168.967 "/>
<polyline clip-path="url(#clip782)" style="stroke:#000000; stroke-linecap:round; stroke-linejoin:round; stroke-width:2; stroke-opacity:0.1; fill:none" points="203.964,1384.24 2352.76,1384.24 "/>
<polyline clip-path="url(#clip782)" style="stroke:#000000; stroke-linecap:round; stroke-linejoin:round; stroke-width:2; stroke-opacity:0.1; fill:none" points="203.964,1141.18 2352.76,1141.18 "/>
<polyline clip-path="url(#clip782)" style="stroke:#000000; stroke-linecap:round; stroke-linejoin:round; stroke-width:2; stroke-opacity:0.1; fill:none" points="203.964,898.13 2352.76,898.13 "/>
<polyline clip-path="url(#clip782)" style="stroke:#000000; stroke-linecap:round; stroke-linejoin:round; stroke-width:2; stroke-opacity:0.1; fill:none" points="203.964,655.075 2352.76,655.075 "/>
<polyline clip-path="url(#clip782)" style="stroke:#000000; stroke-linecap:round; stroke-linejoin:round; stroke-width:2; stroke-opacity:0.1; fill:none" points="203.964,412.021 2352.76,412.021 "/>
<polyline clip-path="url(#clip782)" style="stroke:#000000; stroke-linecap:round; stroke-linejoin:round; stroke-width:2; stroke-opacity:0.1; fill:none" points="203.964,168.967 2352.76,168.967 "/>
<polyline clip-path="url(#clip780)" style="stroke:#000000; stroke-linecap:round; stroke-linejoin:round; stroke-width:4; stroke-opacity:1; fill:none" points="203.964,1423.18 2352.76,1423.18 "/>
<polyline clip-path="url(#clip780)" style="stroke:#000000; stroke-linecap:round; stroke-linejoin:round; stroke-width:4; stroke-opacity:1; fill:none" points="203.964,47.2441 2352.76,47.2441 "/>
<polyline clip-path="url(#clip780)" style="stroke:#000000; stroke-linecap:round; stroke-linejoin:round; stroke-width:4; stroke-opacity:1; fill:none" points="414.025,1423.18 414.025,1404.28 "/>
<polyline clip-path="url(#clip780)" style="stroke:#000000; stroke-linecap:round; stroke-linejoin:round; stroke-width:4; stroke-opacity:1; fill:none" points="828.916,1423.18 828.916,1404.28 "/>
<polyline clip-path="url(#clip780)" style="stroke:#000000; stroke-linecap:round; stroke-linejoin:round; stroke-width:4; stroke-opacity:1; fill:none" points="1243.81,1423.18 1243.81,1404.28 "/>
<polyline clip-path="url(#clip780)" style="stroke:#000000; stroke-linecap:round; stroke-linejoin:round; stroke-width:4; stroke-opacity:1; fill:none" points="1658.7,1423.18 1658.7,1404.28 "/>
<polyline clip-path="url(#clip780)" style="stroke:#000000; stroke-linecap:round; stroke-linejoin:round; stroke-width:4; stroke-opacity:1; fill:none" points="2073.59,1423.18 2073.59,1404.28 "/>
<polyline clip-path="url(#clip780)" style="stroke:#000000; stroke-linecap:round; stroke-linejoin:round; stroke-width:4; stroke-opacity:1; fill:none" points="414.025,47.2441 414.025,66.1417 "/>
<polyline clip-path="url(#clip780)" style="stroke:#000000; stroke-linecap:round; stroke-linejoin:round; stroke-width:4; stroke-opacity:1; fill:none" points="828.916,47.2441 828.916,66.1417 "/>
<polyline clip-path="url(#clip780)" style="stroke:#000000; stroke-linecap:round; stroke-linejoin:round; stroke-width:4; stroke-opacity:1; fill:none" points="1243.81,47.2441 1243.81,66.1417 "/>
<polyline clip-path="url(#clip780)" style="stroke:#000000; stroke-linecap:round; stroke-linejoin:round; stroke-width:4; stroke-opacity:1; fill:none" points="1658.7,47.2441 1658.7,66.1417 "/>
<polyline clip-path="url(#clip780)" style="stroke:#000000; stroke-linecap:round; stroke-linejoin:round; stroke-width:4; stroke-opacity:1; fill:none" points="2073.59,47.2441 2073.59,66.1417 "/>
<path clip-path="url(#clip780)" d="M376.907 1466.44 Q373.759 1466.44 371.907 1468.59 Q370.078 1470.74 370.078 1474.49 Q370.078 1478.22 371.907 1480.39 Q373.759 1482.55 376.907 1482.55 Q380.055 1482.55 381.883 1480.39 Q383.735 1478.22 383.735 1474.49 Q383.735 1470.74 381.883 1468.59 Q380.055 1466.44 376.907 1466.44 M386.189 1451.78 L386.189 1456.04 Q384.43 1455.21 382.624 1454.77 Q380.842 1454.33 379.083 1454.33 Q374.453 1454.33 371.999 1457.45 Q369.569 1460.58 369.222 1466.9 Q370.587 1464.89 372.647 1463.82 Q374.708 1462.73 377.184 1462.73 Q382.393 1462.73 385.402 1465.9 Q388.434 1469.05 388.434 1474.49 Q388.434 1479.82 385.286 1483.03 Q382.138 1486.25 376.907 1486.25 Q370.911 1486.25 367.74 1481.67 Q364.569 1477.06 364.569 1468.33 Q364.569 1460.14 368.458 1455.28 Q372.346 1450.39 378.897 1450.39 Q380.657 1450.39 382.439 1450.74 Q384.245 1451.09 386.189 1451.78 Z" fill="#000000" fill-rule="nonzero" fill-opacity="1" /><path clip-path="url(#clip780)" d="M396.536 1451.02 L414.893 1451.02 L414.893 1454.96 L400.819 1454.96 L400.819 1463.43 Q401.837 1463.08 402.856 1462.92 Q403.874 1462.73 404.893 1462.73 Q410.68 1462.73 414.059 1465.9 Q417.439 1469.08 417.439 1474.49 Q417.439 1480.07 413.967 1483.17 Q410.494 1486.25 404.175 1486.25 Q401.999 1486.25 399.731 1485.88 Q397.485 1485.51 395.078 1484.77 L395.078 1480.07 Q397.161 1481.2 399.383 1481.76 Q401.606 1482.32 404.082 1482.32 Q408.087 1482.32 410.425 1480.21 Q412.763 1478.1 412.763 1474.49 Q412.763 1470.88 410.425 1468.77 Q408.087 1466.67 404.082 1466.67 Q402.207 1466.67 400.332 1467.08 Q398.481 1467.5 396.536 1468.38 L396.536 1451.02 Z" fill="#000000" fill-rule="nonzero" fill-opacity="1" /><path clip-path="url(#clip780)" d="M426.652 1479.7 L431.536 1479.7 L431.536 1485.58 L426.652 1485.58 L426.652 1479.7 Z" fill="#000000" fill-rule="nonzero" fill-opacity="1" /><path clip-path="url(#clip780)" d="M441.86 1484.86 L441.86 1480.6 Q443.619 1481.44 445.425 1481.88 Q447.23 1482.32 448.966 1482.32 Q453.596 1482.32 456.027 1479.21 Q458.48 1476.09 458.828 1469.75 Q457.485 1471.74 455.425 1472.8 Q453.365 1473.87 450.865 1473.87 Q445.679 1473.87 442.647 1470.74 Q439.638 1467.59 439.638 1462.15 Q439.638 1456.83 442.786 1453.61 Q445.934 1450.39 451.166 1450.39 Q457.161 1450.39 460.309 1455 Q463.48 1459.58 463.48 1468.33 Q463.48 1476.51 459.591 1481.39 Q455.726 1486.25 449.175 1486.25 Q447.416 1486.25 445.61 1485.9 Q443.804 1485.56 441.86 1484.86 M451.166 1470.21 Q454.314 1470.21 456.142 1468.06 Q457.994 1465.9 457.994 1462.15 Q457.994 1458.43 456.142 1456.27 Q454.314 1454.1 451.166 1454.1 Q448.017 1454.1 446.166 1456.27 Q444.337 1458.43 444.337 1462.15 Q444.337 1465.9 446.166 1468.06 Q448.017 1470.21 451.166 1470.21 Z" fill="#000000" fill-rule="nonzero" fill-opacity="1" /><path clip-path="url(#clip780)" d="M791.705 1466.44 Q788.557 1466.44 786.705 1468.59 Q784.877 1470.74 784.877 1474.49 Q784.877 1478.22 786.705 1480.39 Q788.557 1482.55 791.705 1482.55 Q794.853 1482.55 796.682 1480.39 Q798.534 1478.22 798.534 1474.49 Q798.534 1470.74 796.682 1468.59 Q794.853 1466.44 791.705 1466.44 M800.988 1451.78 L800.988 1456.04 Q799.228 1455.21 797.423 1454.77 Q795.64 1454.33 793.881 1454.33 Q789.252 1454.33 786.798 1457.45 Q784.367 1460.58 784.02 1466.9 Q785.386 1464.89 787.446 1463.82 Q789.506 1462.73 791.983 1462.73 Q797.191 1462.73 800.201 1465.9 Q803.233 1469.05 803.233 1474.49 Q803.233 1479.82 800.085 1483.03 Q796.937 1486.25 791.705 1486.25 Q785.71 1486.25 782.539 1481.67 Q779.367 1477.06 779.367 1468.33 Q779.367 1460.14 783.256 1455.28 Q787.145 1450.39 793.696 1450.39 Q795.455 1450.39 797.238 1450.74 Q799.043 1451.09 800.988 1451.78 Z" fill="#000000" fill-rule="nonzero" fill-opacity="1" /><path clip-path="url(#clip780)" d="M821.867 1466.44 Q818.719 1466.44 816.867 1468.59 Q815.038 1470.74 815.038 1474.49 Q815.038 1478.22 816.867 1480.39 Q818.719 1482.55 821.867 1482.55 Q825.015 1482.55 826.844 1480.39 Q828.696 1478.22 828.696 1474.49 Q828.696 1470.74 826.844 1468.59 Q825.015 1466.44 821.867 1466.44 M831.149 1451.78 L831.149 1456.04 Q829.39 1455.21 827.585 1454.77 Q825.802 1454.33 824.043 1454.33 Q819.413 1454.33 816.96 1457.45 Q814.529 1460.58 814.182 1466.9 Q815.548 1464.89 817.608 1463.82 Q819.668 1462.73 822.145 1462.73 Q827.353 1462.73 830.362 1465.9 Q833.395 1469.05 833.395 1474.49 Q833.395 1479.82 830.247 1483.03 Q827.099 1486.25 821.867 1486.25 Q815.872 1486.25 812.7 1481.67 Q809.529 1477.06 809.529 1468.33 Q809.529 1460.14 813.418 1455.28 Q817.307 1450.39 823.858 1450.39 Q825.617 1450.39 827.399 1450.74 Q829.205 1451.09 831.149 1451.78 Z" fill="#000000" fill-rule="nonzero" fill-opacity="1" /><path clip-path="url(#clip780)" d="M841.45 1479.7 L846.335 1479.7 L846.335 1485.58 L841.45 1485.58 L841.45 1479.7 Z" fill="#000000" fill-rule="nonzero" fill-opacity="1" /><path clip-path="url(#clip780)" d="M866.52 1454.1 Q862.909 1454.1 861.08 1457.66 Q859.274 1461.2 859.274 1468.33 Q859.274 1475.44 861.08 1479.01 Q862.909 1482.55 866.52 1482.55 Q870.154 1482.55 871.959 1479.01 Q873.788 1475.44 873.788 1468.33 Q873.788 1461.2 871.959 1457.66 Q870.154 1454.1 866.52 1454.1 M866.52 1450.39 Q872.33 1450.39 875.385 1455 Q878.464 1459.58 878.464 1468.33 Q878.464 1477.06 875.385 1481.67 Q872.33 1486.25 866.52 1486.25 Q860.709 1486.25 857.631 1481.67 Q854.575 1477.06 854.575 1468.33 Q854.575 1459.58 857.631 1455 Q860.709 1450.39 866.52 1450.39 Z" fill="#000000" fill-rule="nonzero" fill-opacity="1" /><path clip-path="url(#clip780)" d="M1207.21 1466.44 Q1204.06 1466.44 1202.21 1468.59 Q1200.38 1470.74 1200.38 1474.49 Q1200.38 1478.22 1202.21 1480.39 Q1204.06 1482.55 1207.21 1482.55 Q1210.36 1482.55 1212.19 1480.39 Q1214.04 1478.22 1214.04 1474.49 Q1214.04 1470.74 1212.19 1468.59 Q1210.36 1466.44 1207.21 1466.44 M1216.49 1451.78 L1216.49 1456.04 Q1214.73 1455.21 1212.93 1454.77 Q1211.14 1454.33 1209.39 1454.33 Q1204.76 1454.33 1202.3 1457.45 Q1199.87 1460.58 1199.52 1466.9 Q1200.89 1464.89 1202.95 1463.82 Q1205.01 1462.73 1207.49 1462.73 Q1212.7 1462.73 1215.71 1465.9 Q1218.74 1469.05 1218.74 1474.49 Q1218.74 1479.82 1215.59 1483.03 Q1212.44 1486.25 1207.21 1486.25 Q1201.21 1486.25 1198.04 1481.67 Q1194.87 1477.06 1194.87 1468.33 Q1194.87 1460.14 1198.76 1455.28 Q1202.65 1450.39 1209.2 1450.39 Q1210.96 1450.39 1212.74 1450.74 Q1214.55 1451.09 1216.49 1451.78 Z" fill="#000000" fill-rule="nonzero" fill-opacity="1" /><path clip-path="url(#clip780)" d="M1237.37 1466.44 Q1234.22 1466.44 1232.37 1468.59 Q1230.54 1470.74 1230.54 1474.49 Q1230.54 1478.22 1232.37 1480.39 Q1234.22 1482.55 1237.37 1482.55 Q1240.52 1482.55 1242.35 1480.39 Q1244.2 1478.22 1244.2 1474.49 Q1244.2 1470.74 1242.35 1468.59 Q1240.52 1466.44 1237.37 1466.44 M1246.65 1451.78 L1246.65 1456.04 Q1244.89 1455.21 1243.09 1454.77 Q1241.31 1454.33 1239.55 1454.33 Q1234.92 1454.33 1232.46 1457.45 Q1230.03 1460.58 1229.69 1466.9 Q1231.05 1464.89 1233.11 1463.82 Q1235.17 1462.73 1237.65 1462.73 Q1242.86 1462.73 1245.87 1465.9 Q1248.9 1469.05 1248.9 1474.49 Q1248.9 1479.82 1245.75 1483.03 Q1242.6 1486.25 1237.37 1486.25 Q1231.38 1486.25 1228.21 1481.67 Q1225.03 1477.06 1225.03 1468.33 Q1225.03 1460.14 1228.92 1455.28 Q1232.81 1450.39 1239.36 1450.39 Q1241.12 1450.39 1242.9 1450.74 Q1244.71 1451.09 1246.65 1451.78 Z" fill="#000000" fill-rule="nonzero" fill-opacity="1" /><path clip-path="url(#clip780)" d="M1256.95 1479.7 L1261.84 1479.7 L1261.84 1485.58 L1256.95 1485.58 L1256.95 1479.7 Z" fill="#000000" fill-rule="nonzero" fill-opacity="1" /><path clip-path="url(#clip780)" d="M1272.83 1481.64 L1280.47 1481.64 L1280.47 1455.28 L1272.16 1456.95 L1272.16 1452.69 L1280.43 1451.02 L1285.1 1451.02 L1285.1 1481.64 L1292.74 1481.64 L1292.74 1485.58 L1272.83 1485.58 L1272.83 1481.64 Z" fill="#000000" fill-rule="nonzero" fill-opacity="1" /><path clip-path="url(#clip780)" d="M1622.29 1466.44 Q1619.14 1466.44 1617.29 1468.59 Q1615.46 1470.74 1615.46 1474.49 Q1615.46 1478.22 1617.29 1480.39 Q1619.14 1482.55 1622.29 1482.55 Q1625.43 1482.55 1627.26 1480.39 Q1629.11 1478.22 1629.11 1474.49 Q1629.11 1470.74 1627.26 1468.59 Q1625.43 1466.44 1622.29 1466.44 M1631.57 1451.78 L1631.57 1456.04 Q1629.81 1455.21 1628 1454.77 Q1626.22 1454.33 1624.46 1454.33 Q1619.83 1454.33 1617.38 1457.45 Q1614.95 1460.58 1614.6 1466.9 Q1615.97 1464.89 1618.03 1463.82 Q1620.09 1462.73 1622.56 1462.73 Q1627.77 1462.73 1630.78 1465.9 Q1633.81 1469.05 1633.81 1474.49 Q1633.81 1479.82 1630.67 1483.03 Q1627.52 1486.25 1622.29 1486.25 Q1616.29 1486.25 1613.12 1481.67 Q1609.95 1477.06 1609.95 1468.33 Q1609.95 1460.14 1613.84 1455.28 Q1617.73 1450.39 1624.28 1450.39 Q1626.04 1450.39 1627.82 1450.74 Q1629.62 1451.09 1631.57 1451.78 Z" fill="#000000" fill-rule="nonzero" fill-opacity="1" /><path clip-path="url(#clip780)" d="M1652.45 1466.44 Q1649.3 1466.44 1647.45 1468.59 Q1645.62 1470.74 1645.62 1474.49 Q1645.62 1478.22 1647.45 1480.39 Q1649.3 1482.55 1652.45 1482.55 Q1655.6 1482.55 1657.42 1480.39 Q1659.28 1478.22 1659.28 1474.49 Q1659.28 1470.74 1657.42 1468.59 Q1655.6 1466.44 1652.45 1466.44 M1661.73 1451.78 L1661.73 1456.04 Q1659.97 1455.21 1658.17 1454.77 Q1656.38 1454.33 1654.62 1454.33 Q1649.99 1454.33 1647.54 1457.45 Q1645.11 1460.58 1644.76 1466.9 Q1646.13 1464.89 1648.19 1463.82 Q1650.25 1462.73 1652.73 1462.73 Q1657.93 1462.73 1660.94 1465.9 Q1663.98 1469.05 1663.98 1474.49 Q1663.98 1479.82 1660.83 1483.03 Q1657.68 1486.25 1652.45 1486.25 Q1646.45 1486.25 1643.28 1481.67 Q1640.11 1477.06 1640.11 1468.33 Q1640.11 1460.14 1644 1455.28 Q1647.89 1450.39 1654.44 1450.39 Q1656.2 1450.39 1657.98 1450.74 Q1659.79 1451.09 1661.73 1451.78 Z" fill="#000000" fill-rule="nonzero" fill-opacity="1" /><path clip-path="url(#clip780)" d="M1672.03 1479.7 L1676.92 1479.7 L1676.92 1485.58 L1672.03 1485.58 L1672.03 1479.7 Z" fill="#000000" fill-rule="nonzero" fill-opacity="1" /><path clip-path="url(#clip780)" d="M1691.13 1481.64 L1707.45 1481.64 L1707.45 1485.58 L1685.5 1485.58 L1685.5 1481.64 Q1688.17 1478.89 1692.75 1474.26 Q1697.36 1469.61 1698.54 1468.27 Q1700.78 1465.74 1701.66 1464.01 Q1702.56 1462.25 1702.56 1460.56 Q1702.56 1457.8 1700.62 1456.07 Q1698.7 1454.33 1695.6 1454.33 Q1693.4 1454.33 1690.94 1455.09 Q1688.51 1455.86 1685.73 1457.41 L1685.73 1452.69 Q1688.56 1451.55 1691.01 1450.97 Q1693.47 1450.39 1695.5 1450.39 Q1700.87 1450.39 1704.07 1453.08 Q1707.26 1455.77 1707.26 1460.26 Q1707.26 1462.39 1706.45 1464.31 Q1705.67 1466.2 1703.56 1468.8 Q1702.98 1469.47 1699.88 1472.69 Q1696.78 1475.88 1691.13 1481.64 Z" fill="#000000" fill-rule="nonzero" fill-opacity="1" /><path clip-path="url(#clip780)" d="M2036.7 1466.44 Q2033.55 1466.44 2031.7 1468.59 Q2029.87 1470.74 2029.87 1474.49 Q2029.87 1478.22 2031.7 1480.39 Q2033.55 1482.55 2036.7 1482.55 Q2039.85 1482.55 2041.68 1480.39 Q2043.53 1478.22 2043.53 1474.49 Q2043.53 1470.74 2041.68 1468.59 Q2039.85 1466.44 2036.7 1466.44 M2045.99 1451.78 L2045.99 1456.04 Q2044.23 1455.21 2042.42 1454.77 Q2040.64 1454.33 2038.88 1454.33 Q2034.25 1454.33 2031.8 1457.45 Q2029.36 1460.58 2029.02 1466.9 Q2030.38 1464.89 2032.44 1463.82 Q2034.5 1462.73 2036.98 1462.73 Q2042.19 1462.73 2045.2 1465.9 Q2048.23 1469.05 2048.23 1474.49 Q2048.23 1479.82 2045.08 1483.03 Q2041.93 1486.25 2036.7 1486.25 Q2030.71 1486.25 2027.54 1481.67 Q2024.36 1477.06 2024.36 1468.33 Q2024.36 1460.14 2028.25 1455.28 Q2032.14 1450.39 2038.69 1450.39 Q2040.45 1450.39 2042.24 1450.74 Q2044.04 1451.09 2045.99 1451.78 Z" fill="#000000" fill-rule="nonzero" fill-opacity="1" /><path clip-path="url(#clip780)" d="M2066.86 1466.44 Q2063.72 1466.44 2061.86 1468.59 Q2060.04 1470.74 2060.04 1474.49 Q2060.04 1478.22 2061.86 1480.39 Q2063.72 1482.55 2066.86 1482.55 Q2070.01 1482.55 2071.84 1480.39 Q2073.69 1478.22 2073.69 1474.49 Q2073.69 1470.74 2071.84 1468.59 Q2070.01 1466.44 2066.86 1466.44 M2076.15 1451.78 L2076.15 1456.04 Q2074.39 1455.21 2072.58 1454.77 Q2070.8 1454.33 2069.04 1454.33 Q2064.41 1454.33 2061.96 1457.45 Q2059.53 1460.58 2059.18 1466.9 Q2060.55 1464.89 2062.61 1463.82 Q2064.67 1462.73 2067.14 1462.73 Q2072.35 1462.73 2075.36 1465.9 Q2078.39 1469.05 2078.39 1474.49 Q2078.39 1479.82 2075.24 1483.03 Q2072.1 1486.25 2066.86 1486.25 Q2060.87 1486.25 2057.7 1481.67 Q2054.53 1477.06 2054.53 1468.33 Q2054.53 1460.14 2058.42 1455.28 Q2062.3 1450.39 2068.86 1450.39 Q2070.61 1450.39 2072.4 1450.74 Q2074.2 1451.09 2076.15 1451.78 Z" fill="#000000" fill-rule="nonzero" fill-opacity="1" /><path clip-path="url(#clip780)" d="M2086.45 1479.7 L2091.33 1479.7 L2091.33 1485.58 L2086.45 1485.58 L2086.45 1479.7 Z" fill="#000000" fill-rule="nonzero" fill-opacity="1" /><path clip-path="url(#clip780)" d="M2115.68 1466.95 Q2119.04 1467.66 2120.92 1469.93 Q2122.81 1472.2 2122.81 1475.53 Q2122.81 1480.65 2119.29 1483.45 Q2115.78 1486.25 2109.3 1486.25 Q2107.12 1486.25 2104.8 1485.81 Q2102.51 1485.39 2100.06 1484.54 L2100.06 1480.02 Q2102 1481.16 2104.32 1481.74 Q2106.63 1482.32 2109.16 1482.32 Q2113.55 1482.32 2115.85 1480.58 Q2118.16 1478.84 2118.16 1475.53 Q2118.16 1472.48 2116.01 1470.77 Q2113.88 1469.03 2110.06 1469.03 L2106.03 1469.03 L2106.03 1465.19 L2110.24 1465.19 Q2113.69 1465.19 2115.52 1463.82 Q2117.35 1462.43 2117.35 1459.84 Q2117.35 1457.18 2115.45 1455.77 Q2113.58 1454.33 2110.06 1454.33 Q2108.14 1454.33 2105.94 1454.75 Q2103.74 1455.16 2101.1 1456.04 L2101.1 1451.88 Q2103.76 1451.14 2106.08 1450.77 Q2108.42 1450.39 2110.48 1450.39 Q2115.8 1450.39 2118.9 1452.83 Q2122 1455.23 2122 1459.35 Q2122 1462.22 2120.36 1464.21 Q2118.72 1466.18 2115.68 1466.95 Z" fill="#000000" fill-rule="nonzero" fill-opacity="1" /><path clip-path="url(#clip780)" d="M1156.27 1526.86 L1147.54 1550.51 L1165.02 1550.51 L1156.27 1526.86 M1152.64 1520.52 L1159.93 1520.52 L1178.04 1568.04 L1171.35 1568.04 L1167.02 1555.85 L1145.6 1555.85 L1141.27 1568.04 L1134.49 1568.04 L1152.64 1520.52 Z" fill="#000000" fill-rule="nonzero" fill-opacity="1" /><path clip-path="url(#clip780)" d="M1208.18 1549.81 Q1208.18 1543.44 1205.54 1539.94 Q1202.93 1536.44 1198.18 1536.44 Q1193.47 1536.44 1190.83 1539.94 Q1188.22 1543.44 1188.22 1549.81 Q1188.22 1556.14 1190.83 1559.64 Q1193.47 1563.14 1198.18 1563.14 Q1202.93 1563.14 1205.54 1559.64 Q1208.18 1556.14 1208.18 1549.81 M1214.03 1563.62 Q1214.03 1572.72 1209.99 1577.15 Q1205.95 1581.6 1197.61 1581.6 Q1194.52 1581.6 1191.79 1581.13 Q1189.05 1580.68 1186.47 1579.72 L1186.47 1574.03 Q1189.05 1575.43 1191.56 1576.1 Q1194.08 1576.76 1196.69 1576.76 Q1202.45 1576.76 1205.31 1573.74 Q1208.18 1570.75 1208.18 1564.67 L1208.18 1561.77 Q1206.36 1564.92 1203.53 1566.48 Q1200.7 1568.04 1196.75 1568.04 Q1190.19 1568.04 1186.18 1563.05 Q1182.17 1558.05 1182.17 1549.81 Q1182.17 1541.53 1186.18 1536.53 Q1190.19 1531.54 1196.75 1531.54 Q1200.7 1531.54 1203.53 1533.1 Q1206.36 1534.66 1208.18 1537.81 L1208.18 1532.4 L1214.03 1532.4 L1214.03 1563.62 Z" fill="#000000" fill-rule="nonzero" fill-opacity="1" /><path clip-path="url(#clip780)" d="M1256.59 1548.76 L1256.59 1551.62 L1229.66 1551.62 Q1230.04 1557.67 1233.29 1560.85 Q1236.57 1564 1242.39 1564 Q1245.77 1564 1248.92 1563.17 Q1252.1 1562.35 1255.22 1560.69 L1255.22 1566.23 Q1252.07 1567.57 1248.76 1568.27 Q1245.45 1568.97 1242.04 1568.97 Q1233.51 1568.97 1228.52 1564 Q1223.55 1559.04 1223.55 1550.57 Q1223.55 1541.82 1228.26 1536.69 Q1233 1531.54 1241.02 1531.54 Q1248.22 1531.54 1252.39 1536.18 Q1256.59 1540.8 1256.59 1548.76 M1250.73 1547.04 Q1250.67 1542.23 1248.03 1539.37 Q1245.42 1536.5 1241.09 1536.5 Q1236.19 1536.5 1233.23 1539.27 Q1230.3 1542.04 1229.85 1547.07 L1250.73 1547.04 Z" fill="#000000" fill-rule="nonzero" fill-opacity="1" /><path clip-path="url(#clip780)" d="M1300.99 1518.58 Q1296.72 1525.9 1294.66 1533.06 Q1292.59 1540.23 1292.59 1547.58 Q1292.59 1554.93 1294.66 1562.16 Q1296.76 1569.35 1300.99 1576.64 L1295.9 1576.64 Q1291.12 1569.16 1288.74 1561.93 Q1286.38 1554.71 1286.38 1547.58 Q1286.38 1540.48 1288.74 1533.29 Q1291.09 1526.09 1295.9 1518.58 L1300.99 1518.58 Z" fill="#000000" fill-rule="nonzero" fill-opacity="1" /><path clip-path="url(#clip780)" d="M1312.61 1520.52 L1322.19 1520.52 L1334.31 1552.86 L1346.5 1520.52 L1356.09 1520.52 L1356.09 1568.04 L1349.81 1568.04 L1349.81 1526.32 L1337.56 1558.91 L1331.1 1558.91 L1318.85 1526.32 L1318.85 1568.04 L1312.61 1568.04 L1312.61 1520.52 Z" fill="#000000" fill-rule="nonzero" fill-opacity="1" /><path clip-path="url(#clip780)" d="M1384.79 1550.12 Q1377.7 1550.12 1374.96 1551.75 Q1372.22 1553.37 1372.22 1557.29 Q1372.22 1560.4 1374.26 1562.25 Q1376.33 1564.07 1379.86 1564.07 Q1384.73 1564.07 1387.66 1560.63 Q1390.62 1557.16 1390.62 1551.43 L1390.62 1550.12 L1384.79 1550.12 M1396.48 1547.71 L1396.48 1568.04 L1390.62 1568.04 L1390.62 1562.63 Q1388.61 1565.88 1385.62 1567.44 Q1382.63 1568.97 1378.3 1568.97 Q1372.83 1568.97 1369.58 1565.91 Q1366.37 1562.82 1366.37 1557.67 Q1366.37 1551.65 1370.38 1548.6 Q1374.42 1545.54 1382.41 1545.54 L1390.62 1545.54 L1390.62 1544.97 Q1390.62 1540.93 1387.95 1538.73 Q1385.3 1536.5 1380.5 1536.5 Q1377.44 1536.5 1374.55 1537.23 Q1371.65 1537.97 1368.98 1539.43 L1368.98 1534.02 Q1372.19 1532.78 1375.21 1532.17 Q1378.24 1531.54 1381.1 1531.54 Q1388.84 1531.54 1392.66 1535.55 Q1396.48 1539.56 1396.48 1547.71 Z" fill="#000000" fill-rule="nonzero" fill-opacity="1" /><path clip-path="url(#clip780)" d="M1407.62 1518.58 L1412.71 1518.58 Q1417.48 1526.09 1419.84 1533.29 Q1422.22 1540.48 1422.22 1547.58 Q1422.22 1554.71 1419.84 1561.93 Q1417.48 1569.16 1412.71 1576.64 L1407.62 1576.64 Q1411.85 1569.35 1413.92 1562.16 Q1416.02 1554.93 1416.02 1547.58 Q1416.02 1540.23 1413.92 1533.06 Q1411.85 1525.9 1407.62 1518.58 Z" fill="#000000" fill-rule="nonzero" fill-opacity="1" /><polyline clip-path="url(#clip780)" style="stroke:#000000; stroke-linecap:round; stroke-linejoin:round; stroke-width:4; stroke-opacity:1; fill:none" points="203.964,1423.18 203.964,47.2441 "/>
<polyline clip-path="url(#clip780)" style="stroke:#000000; stroke-linecap:round; stroke-linejoin:round; stroke-width:4; stroke-opacity:1; fill:none" points="2352.76,1423.18 2352.76,47.2441 "/>
<polyline clip-path="url(#clip780)" style="stroke:#000000; stroke-linecap:round; stroke-linejoin:round; stroke-width:4; stroke-opacity:1; fill:none" points="203.964,1384.24 222.861,1384.24 "/>
<polyline clip-path="url(#clip780)" style="stroke:#000000; stroke-linecap:round; stroke-linejoin:round; stroke-width:4; stroke-opacity:1; fill:none" points="203.964,1141.18 222.861,1141.18 "/>
<polyline clip-path="url(#clip780)" style="stroke:#000000; stroke-linecap:round; stroke-linejoin:round; stroke-width:4; stroke-opacity:1; fill:none" points="203.964,898.13 222.861,898.13 "/>
<polyline clip-path="url(#clip780)" style="stroke:#000000; stroke-linecap:round; stroke-linejoin:round; stroke-width:4; stroke-opacity:1; fill:none" points="203.964,655.075 222.861,655.075 "/>
<polyline clip-path="url(#clip780)" style="stroke:#000000; stroke-linecap:round; stroke-linejoin:round; stroke-width:4; stroke-opacity:1; fill:none" points="203.964,412.021 222.861,412.021 "/>
<polyline clip-path="url(#clip780)" style="stroke:#000000; stroke-linecap:round; stroke-linejoin:round; stroke-width:4; stroke-opacity:1; fill:none" points="203.964,168.967 222.861,168.967 "/>
<polyline clip-path="url(#clip780)" style="stroke:#000000; stroke-linecap:round; stroke-linejoin:round; stroke-width:4; stroke-opacity:1; fill:none" points="2352.76,1384.24 2333.86,1384.24 "/>
<polyline clip-path="url(#clip780)" style="stroke:#000000; stroke-linecap:round; stroke-linejoin:round; stroke-width:4; stroke-opacity:1; fill:none" points="2352.76,1141.18 2333.86,1141.18 "/>
<polyline clip-path="url(#clip780)" style="stroke:#000000; stroke-linecap:round; stroke-linejoin:round; stroke-width:4; stroke-opacity:1; fill:none" points="2352.76,898.13 2333.86,898.13 "/>
<polyline clip-path="url(#clip780)" style="stroke:#000000; stroke-linecap:round; stroke-linejoin:round; stroke-width:4; stroke-opacity:1; fill:none" points="2352.76,655.075 2333.86,655.075 "/>
<polyline clip-path="url(#clip780)" style="stroke:#000000; stroke-linecap:round; stroke-linejoin:round; stroke-width:4; stroke-opacity:1; fill:none" points="2352.76,412.021 2333.86,412.021 "/>
<polyline clip-path="url(#clip780)" style="stroke:#000000; stroke-linecap:round; stroke-linejoin:round; stroke-width:4; stroke-opacity:1; fill:none" points="2352.76,168.967 2333.86,168.967 "/>
<path clip-path="url(#clip780)" d="M156.019 1370.04 Q152.408 1370.04 150.579 1373.6 Q148.774 1377.14 148.774 1384.27 Q148.774 1391.38 150.579 1394.94 Q152.408 1398.49 156.019 1398.49 Q159.653 1398.49 161.459 1394.94 Q163.288 1391.38 163.288 1384.27 Q163.288 1377.14 161.459 1373.6 Q159.653 1370.04 156.019 1370.04 M156.019 1366.33 Q161.829 1366.33 164.885 1370.94 Q167.964 1375.52 167.964 1384.27 Q167.964 1393 164.885 1397.61 Q161.829 1402.19 156.019 1402.19 Q150.209 1402.19 147.13 1397.61 Q144.075 1393 144.075 1384.27 Q144.075 1375.52 147.13 1370.94 Q150.209 1366.33 156.019 1366.33 Z" fill="#000000" fill-rule="nonzero" fill-opacity="1" /><path clip-path="url(#clip780)" d="M147.061 1123.9 L165.417 1123.9 L165.417 1127.84 L151.343 1127.84 L151.343 1136.31 Q152.362 1135.96 153.38 1135.8 Q154.399 1135.62 155.417 1135.62 Q161.204 1135.62 164.584 1138.79 Q167.964 1141.96 167.964 1147.38 Q167.964 1152.95 164.491 1156.06 Q161.019 1159.14 154.7 1159.14 Q152.524 1159.14 150.255 1158.76 Q148.01 1158.39 145.603 1157.65 L145.603 1152.95 Q147.686 1154.09 149.908 1154.64 Q152.13 1155.2 154.607 1155.2 Q158.612 1155.2 160.95 1153.09 Q163.288 1150.99 163.288 1147.38 Q163.288 1143.77 160.95 1141.66 Q158.612 1139.55 154.607 1139.55 Q152.732 1139.55 150.857 1139.97 Q149.005 1140.39 147.061 1141.27 L147.061 1123.9 Z" fill="#000000" fill-rule="nonzero" fill-opacity="1" /><path clip-path="url(#clip780)" d="M116.668 911.475 L124.306 911.475 L124.306 885.109 L115.996 886.776 L115.996 882.516 L124.26 880.85 L128.936 880.85 L128.936 911.475 L136.575 911.475 L136.575 915.41 L116.668 915.41 L116.668 911.475 Z" fill="#000000" fill-rule="nonzero" fill-opacity="1" /><path clip-path="url(#clip780)" d="M156.019 883.928 Q152.408 883.928 150.579 887.493 Q148.774 891.035 148.774 898.164 Q148.774 905.271 150.579 908.836 Q152.408 912.377 156.019 912.377 Q159.653 912.377 161.459 908.836 Q163.288 905.271 163.288 898.164 Q163.288 891.035 161.459 887.493 Q159.653 883.928 156.019 883.928 M156.019 880.225 Q161.829 880.225 164.885 884.831 Q167.964 889.415 167.964 898.164 Q167.964 906.891 164.885 911.498 Q161.829 916.081 156.019 916.081 Q150.209 916.081 147.13 911.498 Q144.075 906.891 144.075 898.164 Q144.075 889.415 147.13 884.831 Q150.209 880.225 156.019 880.225 Z" fill="#000000" fill-rule="nonzero" fill-opacity="1" /><path clip-path="url(#clip780)" d="M117.663 668.42 L125.302 668.42 L125.302 642.055 L116.992 643.721 L116.992 639.462 L125.255 637.795 L129.931 637.795 L129.931 668.42 L137.57 668.42 L137.57 672.355 L117.663 672.355 L117.663 668.42 Z" fill="#000000" fill-rule="nonzero" fill-opacity="1" /><path clip-path="url(#clip780)" d="M147.061 637.795 L165.417 637.795 L165.417 641.731 L151.343 641.731 L151.343 650.203 Q152.362 649.856 153.38 649.694 Q154.399 649.508 155.417 649.508 Q161.204 649.508 164.584 652.68 Q167.964 655.851 167.964 661.268 Q167.964 666.846 164.491 669.948 Q161.019 673.027 154.7 673.027 Q152.524 673.027 150.255 672.656 Q148.01 672.286 145.603 671.545 L145.603 666.846 Q147.686 667.98 149.908 668.536 Q152.13 669.092 154.607 669.092 Q158.612 669.092 160.95 666.985 Q163.288 664.879 163.288 661.268 Q163.288 657.656 160.95 655.55 Q158.612 653.444 154.607 653.444 Q152.732 653.444 150.857 653.86 Q149.005 654.277 147.061 655.156 L147.061 637.795 Z" fill="#000000" fill-rule="nonzero" fill-opacity="1" /><path clip-path="url(#clip780)" d="M119.885 425.366 L136.204 425.366 L136.204 429.301 L114.26 429.301 L114.26 425.366 Q116.922 422.611 121.505 417.982 Q126.112 413.329 127.292 411.986 Q129.538 409.463 130.417 407.727 Q131.32 405.968 131.32 404.278 Q131.32 401.524 129.376 399.787 Q127.455 398.051 124.353 398.051 Q122.154 398.051 119.7 398.815 Q117.269 399.579 114.492 401.13 L114.492 396.408 Q117.316 395.274 119.769 394.695 Q122.223 394.116 124.26 394.116 Q129.63 394.116 132.825 396.801 Q136.019 399.487 136.019 403.977 Q136.019 406.107 135.209 408.028 Q134.422 409.926 132.316 412.519 Q131.737 413.19 128.635 416.408 Q125.533 419.602 119.885 425.366 Z" fill="#000000" fill-rule="nonzero" fill-opacity="1" /><path clip-path="url(#clip780)" d="M156.019 397.82 Q152.408 397.82 150.579 401.385 Q148.774 404.926 148.774 412.056 Q148.774 419.162 150.579 422.727 Q152.408 426.269 156.019 426.269 Q159.653 426.269 161.459 422.727 Q163.288 419.162 163.288 412.056 Q163.288 404.926 161.459 401.385 Q159.653 397.82 156.019 397.82 M156.019 394.116 Q161.829 394.116 164.885 398.723 Q167.964 403.306 167.964 412.056 Q167.964 420.783 164.885 425.389 Q161.829 429.973 156.019 429.973 Q150.209 429.973 147.13 425.389 Q144.075 420.783 144.075 412.056 Q144.075 403.306 147.13 398.723 Q150.209 394.116 156.019 394.116 Z" fill="#000000" fill-rule="nonzero" fill-opacity="1" /><path clip-path="url(#clip780)" d="M120.88 182.312 L137.2 182.312 L137.2 186.247 L115.256 186.247 L115.256 182.312 Q117.918 179.557 122.501 174.928 Q127.107 170.275 128.288 168.932 Q130.533 166.409 131.413 164.673 Q132.316 162.914 132.316 161.224 Q132.316 158.469 130.371 156.733 Q128.45 154.997 125.348 154.997 Q123.149 154.997 120.695 155.761 Q118.265 156.525 115.487 158.076 L115.487 153.354 Q118.311 152.219 120.765 151.641 Q123.218 151.062 125.255 151.062 Q130.626 151.062 133.82 153.747 Q137.015 156.432 137.015 160.923 Q137.015 163.053 136.204 164.974 Q135.417 166.872 133.311 169.465 Q132.732 170.136 129.63 173.353 Q126.529 176.548 120.88 182.312 Z" fill="#000000" fill-rule="nonzero" fill-opacity="1" /><path clip-path="url(#clip780)" d="M147.061 151.687 L165.417 151.687 L165.417 155.622 L151.343 155.622 L151.343 164.094 Q152.362 163.747 153.38 163.585 Q154.399 163.4 155.417 163.4 Q161.204 163.4 164.584 166.571 Q167.964 169.742 167.964 175.159 Q167.964 180.738 164.491 183.84 Q161.019 186.918 154.7 186.918 Q152.524 186.918 150.255 186.548 Q148.01 186.178 145.603 185.437 L145.603 180.738 Q147.686 181.872 149.908 182.428 Q152.13 182.983 154.607 182.983 Q158.612 182.983 160.95 180.877 Q163.288 178.77 163.288 175.159 Q163.288 171.548 160.95 169.441 Q158.612 167.335 154.607 167.335 Q152.732 167.335 150.857 167.752 Q149.005 168.168 147.061 169.048 L147.061 151.687 Z" fill="#000000" fill-rule="nonzero" fill-opacity="1" /><path clip-path="url(#clip780)" d="M21.7677 1026.76 L39.6235 1026.76 L39.6235 1018.68 Q39.6235 1014.19 37.3 1011.74 Q34.9765 1009.29 30.6797 1009.29 Q26.4147 1009.29 24.0912 1011.74 Q21.7677 1014.19 21.7677 1018.68 L21.7677 1026.76 M16.4842 1033.19 L16.4842 1018.68 Q16.4842 1010.69 20.1126 1006.61 Q23.7092 1002.51 30.6797 1002.51 Q37.7138 1002.51 41.3104 1006.61 Q44.907 1010.69 44.907 1018.68 L44.907 1026.76 L64.0042 1026.76 L64.0042 1033.19 L16.4842 1033.19 Z" fill="#000000" fill-rule="nonzero" fill-opacity="1" /><path clip-path="url(#clip780)" d="M33.8307 974.626 Q33.2578 975.613 33.0032 976.791 Q32.7167 977.936 32.7167 979.337 Q32.7167 984.302 35.9632 986.976 Q39.1779 989.617 45.2253 989.617 L64.0042 989.617 L64.0042 995.506 L28.3562 995.506 L28.3562 989.617 L33.8944 989.617 Q30.6479 987.771 29.0883 984.811 Q27.4968 981.851 27.4968 977.618 Q27.4968 977.013 27.5923 976.281 Q27.656 975.549 27.8151 974.658 L33.8307 974.626 Z" fill="#000000" fill-rule="nonzero" fill-opacity="1" /><path clip-path="url(#clip780)" d="M32.4621 956.102 Q32.4621 960.813 36.1542 963.55 Q39.8145 966.287 46.212 966.287 Q52.6095 966.287 56.3017 963.582 Q59.9619 960.844 59.9619 956.102 Q59.9619 951.423 56.2698 948.686 Q52.5777 945.949 46.212 945.949 Q39.8781 945.949 36.186 948.686 Q32.4621 951.423 32.4621 956.102 M27.4968 956.102 Q27.4968 948.463 32.4621 944.103 Q37.4273 939.742 46.212 939.742 Q54.9649 939.742 59.9619 944.103 Q64.9272 948.463 64.9272 956.102 Q64.9272 963.773 59.9619 968.133 Q54.9649 972.462 46.212 972.462 Q37.4273 972.462 32.4621 968.133 Q27.4968 963.773 27.4968 956.102 Z" fill="#000000" fill-rule="nonzero" fill-opacity="1" /><path clip-path="url(#clip780)" d="M46.212 904.444 Q39.7508 904.444 36.0905 907.118 Q32.3984 909.76 32.3984 914.407 Q32.3984 919.054 36.0905 921.727 Q39.7508 924.369 46.212 924.369 Q52.6732 924.369 56.3653 921.727 Q60.0256 919.054 60.0256 914.407 Q60.0256 909.76 56.3653 907.118 Q52.6732 904.444 46.212 904.444 M33.7671 924.369 Q30.5842 922.523 29.0564 919.722 Q27.4968 916.889 27.4968 912.974 Q27.4968 906.481 32.6531 902.439 Q37.8093 898.365 46.212 898.365 Q54.6147 898.365 59.771 902.439 Q64.9272 906.481 64.9272 912.974 Q64.9272 916.889 63.3994 919.722 Q61.8398 922.523 58.657 924.369 L64.0042 924.369 L64.0042 930.257 L14.479 930.257 L14.479 924.369 L33.7671 924.369 Z" fill="#000000" fill-rule="nonzero" fill-opacity="1" /><path clip-path="url(#clip780)" d="M46.0847 872.457 Q46.0847 879.554 47.7079 882.292 Q49.3312 885.029 53.2461 885.029 Q56.3653 885.029 58.2114 882.992 Q60.0256 880.923 60.0256 877.39 Q60.0256 872.52 56.5881 869.592 Q53.1188 866.632 47.3897 866.632 L46.0847 866.632 L46.0847 872.457 M43.6657 860.776 L64.0042 860.776 L64.0042 866.632 L58.5933 866.632 Q61.8398 868.637 63.3994 871.629 Q64.9272 874.621 64.9272 878.95 Q64.9272 884.424 61.8716 887.671 Q58.7843 890.885 53.6281 890.885 Q47.6125 890.885 44.5569 886.875 Q41.5014 882.833 41.5014 874.844 L41.5014 866.632 L40.9285 866.632 Q36.8862 866.632 34.6901 869.306 Q32.4621 871.947 32.4621 876.753 Q32.4621 879.809 33.1941 882.705 Q33.9262 885.602 35.3903 888.275 L29.9795 888.275 Q28.7381 885.061 28.1334 882.037 Q27.4968 879.013 27.4968 876.149 Q27.4968 868.414 31.5072 864.595 Q35.5176 860.776 43.6657 860.776 Z" fill="#000000" fill-rule="nonzero" fill-opacity="1" /><path clip-path="url(#clip780)" d="M46.212 823.122 Q39.7508 823.122 36.0905 825.796 Q32.3984 828.438 32.3984 833.085 Q32.3984 837.732 36.0905 840.405 Q39.7508 843.047 46.212 843.047 Q52.6732 843.047 56.3653 840.405 Q60.0256 837.732 60.0256 833.085 Q60.0256 828.438 56.3653 825.796 Q52.6732 823.122 46.212 823.122 M33.7671 843.047 Q30.5842 841.201 29.0564 838.4 Q27.4968 835.567 27.4968 831.652 Q27.4968 825.159 32.6531 821.117 Q37.8093 817.043 46.212 817.043 Q54.6147 817.043 59.771 821.117 Q64.9272 825.159 64.9272 831.652 Q64.9272 835.567 63.3994 838.4 Q61.8398 841.201 58.657 843.047 L64.0042 843.047 L64.0042 848.935 L14.479 848.935 L14.479 843.047 L33.7671 843.047 Z" fill="#000000" fill-rule="nonzero" fill-opacity="1" /><path clip-path="url(#clip780)" d="M28.3562 807.335 L28.3562 801.479 L64.0042 801.479 L64.0042 807.335 L28.3562 807.335 M14.479 807.335 L14.479 801.479 L21.895 801.479 L21.895 807.335 L14.479 807.335 Z" fill="#000000" fill-rule="nonzero" fill-opacity="1" /><path clip-path="url(#clip780)" d="M14.479 789.225 L14.479 783.369 L64.0042 783.369 L64.0042 789.225 L14.479 789.225 Z" fill="#000000" fill-rule="nonzero" fill-opacity="1" /><path clip-path="url(#clip780)" d="M28.3562 771.115 L28.3562 765.258 L64.0042 765.258 L64.0042 771.115 L28.3562 771.115 M14.479 771.115 L14.479 765.258 L21.895 765.258 L21.895 771.115 L14.479 771.115 Z" fill="#000000" fill-rule="nonzero" fill-opacity="1" /><path clip-path="url(#clip780)" d="M18.2347 747.211 L28.3562 747.211 L28.3562 735.148 L32.9077 735.148 L32.9077 747.211 L52.2594 747.211 Q56.6199 747.211 57.8613 746.034 Q59.1026 744.824 59.1026 741.164 L59.1026 735.148 L64.0042 735.148 L64.0042 741.164 Q64.0042 747.943 61.4897 750.521 Q58.9434 753.1 52.2594 753.1 L32.9077 753.1 L32.9077 757.396 L28.3562 757.396 L28.3562 753.1 L18.2347 753.1 L18.2347 747.211 Z" fill="#000000" fill-rule="nonzero" fill-opacity="1" /><path clip-path="url(#clip780)" d="M67.3143 712.614 Q73.68 715.096 75.6216 717.452 Q77.5631 719.807 77.5631 723.754 L77.5631 728.432 L72.6615 728.432 L72.6615 724.995 Q72.6615 722.576 71.5157 721.239 Q70.3699 719.902 66.1048 718.279 L63.4312 717.229 L28.3562 731.647 L28.3562 725.441 L56.238 714.301 L28.3562 703.161 L28.3562 696.954 L67.3143 712.614 Z" fill="#000000" fill-rule="nonzero" fill-opacity="1" /><path clip-path="url(#clip780)" d="M33.7671 644.692 L14.479 644.692 L14.479 638.835 L64.0042 638.835 L64.0042 644.692 L58.657 644.692 Q61.8398 646.538 63.3994 649.37 Q64.9272 652.171 64.9272 656.118 Q64.9272 662.579 59.771 666.653 Q54.6147 670.696 46.212 670.696 Q37.8093 670.696 32.6531 666.653 Q27.4968 662.579 27.4968 656.118 Q27.4968 652.171 29.0564 649.37 Q30.5842 646.538 33.7671 644.692 M46.212 664.648 Q52.6732 664.648 56.3653 662.006 Q60.0256 659.333 60.0256 654.686 Q60.0256 650.039 56.3653 647.365 Q52.6732 644.692 46.212 644.692 Q39.7508 644.692 36.0905 647.365 Q32.3984 650.039 32.3984 654.686 Q32.3984 659.333 36.0905 662.006 Q39.7508 664.648 46.212 664.648 Z" fill="#000000" fill-rule="nonzero" fill-opacity="1" /><path clip-path="url(#clip780)" d="M44.7161 596.28 L47.5806 596.28 L47.5806 623.207 Q53.6281 622.825 56.8109 619.579 Q59.9619 616.301 59.9619 610.476 Q59.9619 607.102 59.1344 603.951 Q58.3069 600.768 56.6518 597.649 L62.1899 597.649 Q63.5267 600.8 64.227 604.11 Q64.9272 607.42 64.9272 610.826 Q64.9272 619.356 59.9619 624.353 Q54.9967 629.318 46.5303 629.318 Q37.7774 629.318 32.6531 624.608 Q27.4968 619.865 27.4968 611.845 Q27.4968 604.651 32.1438 600.482 Q36.7589 596.28 44.7161 596.28 M42.9973 602.137 Q38.1912 602.201 35.3266 604.842 Q32.4621 607.452 32.4621 611.781 Q32.4621 616.683 35.2312 619.643 Q38.0002 622.571 43.0292 623.016 L42.9973 602.137 Z" fill="#000000" fill-rule="nonzero" fill-opacity="1" /><path clip-path="url(#clip780)" d="M42.4881 557.036 L64.0042 557.036 L64.0042 562.892 L42.679 562.892 Q37.6183 562.892 35.1038 564.866 Q32.5894 566.839 32.5894 570.786 Q32.5894 575.528 35.6131 578.265 Q38.6368 581.003 43.8567 581.003 L64.0042 581.003 L64.0042 586.891 L28.3562 586.891 L28.3562 581.003 L33.8944 581.003 Q30.6797 578.902 29.0883 576.069 Q27.4968 573.205 27.4968 569.481 Q27.4968 563.338 31.3163 560.187 Q35.1038 557.036 42.4881 557.036 Z" fill="#000000" fill-rule="nonzero" fill-opacity="1" /><path clip-path="url(#clip780)" d="M29.4065 522.629 L34.9447 522.629 Q33.6716 525.112 33.035 527.785 Q32.3984 530.459 32.3984 533.324 Q32.3984 537.684 33.7352 539.88 Q35.072 542.045 37.7456 542.045 Q39.7826 542.045 40.9603 540.485 Q42.1061 538.925 43.1565 534.215 L43.6021 532.21 Q44.9389 525.971 47.3897 523.361 Q49.8086 520.719 54.1691 520.719 Q59.1344 520.719 62.0308 524.666 Q64.9272 528.581 64.9272 535.456 Q64.9272 538.321 64.3543 541.44 Q63.8132 544.527 62.6992 547.965 L56.6518 547.965 Q58.3387 544.718 59.198 541.567 Q60.0256 538.416 60.0256 535.329 Q60.0256 531.191 58.6251 528.963 Q57.1929 526.735 54.6147 526.735 Q52.2276 526.735 50.9545 528.358 Q49.6813 529.95 48.5037 535.392 L48.0262 537.429 Q46.8804 542.872 44.5251 545.291 Q42.138 547.71 38.0002 547.71 Q32.9713 547.71 30.2341 544.145 Q27.4968 540.58 27.4968 534.024 Q27.4968 530.777 27.9743 527.913 Q28.4517 525.048 29.4065 522.629 Z" fill="#000000" fill-rule="nonzero" fill-opacity="1" /><path clip-path="url(#clip780)" d="M28.3562 511.394 L28.3562 505.537 L64.0042 505.537 L64.0042 511.394 L28.3562 511.394 M14.479 511.394 L14.479 505.537 L21.895 505.537 L21.895 511.394 L14.479 511.394 Z" fill="#000000" fill-rule="nonzero" fill-opacity="1" /><path clip-path="url(#clip780)" d="M18.2347 487.49 L28.3562 487.49 L28.3562 475.427 L32.9077 475.427 L32.9077 487.49 L52.2594 487.49 Q56.6199 487.49 57.8613 486.313 Q59.1026 485.103 59.1026 481.443 L59.1026 475.427 L64.0042 475.427 L64.0042 481.443 Q64.0042 488.223 61.4897 490.801 Q58.9434 493.379 52.2594 493.379 L32.9077 493.379 L32.9077 497.676 L28.3562 497.676 L28.3562 493.379 L18.2347 493.379 L18.2347 487.49 Z" fill="#000000" fill-rule="nonzero" fill-opacity="1" /><path clip-path="url(#clip780)" d="M67.3143 452.893 Q73.68 455.376 75.6216 457.731 Q77.5631 460.086 77.5631 464.033 L77.5631 468.712 L72.6615 468.712 L72.6615 465.274 Q72.6615 462.855 71.5157 461.518 Q70.3699 460.182 66.1048 458.558 L63.4312 457.508 L28.3562 471.926 L28.3562 465.72 L56.238 454.58 L28.3562 443.44 L28.3562 437.233 L67.3143 452.893 Z" fill="#000000" fill-rule="nonzero" fill-opacity="1" /><polyline clip-path="url(#clip782)" style="stroke:#009af9; stroke-linecap:round; stroke-linejoin:round; stroke-width:4; stroke-opacity:1; fill:none" points="264.778,1384.22 475.941,1384.23 518.174,1384.23 539.29,1384.22 729.337,1384.23 792.685,1384.23 813.802,1384.22 834.918,1384.2 856.034,1384.22 898.267,1384.23 919.383,1384.2 961.616,1384.21 1003.85,1384.22 1046.08,1384.19 1088.31,1384.22 1130.55,1384.17 1151.66,1384.16 1172.78,1384.2 1193.89,1384.22 1236.13,1384.13 1257.24,1384.12 1278.36,1384.19 1299.48,1384.12 1320.59,1384.13 1341.71,1384.12 1362.82,1384.09 1383.94,1384.14 1405.06,1384.08 1426.17,1384.1 1447.29,1384.18 1468.41,1384.04 1489.52,1384.01 1510.64,1383.87 1531.76,1383.92 1552.87,1383.79 1573.99,1383.36 1595.1,1383.34 1616.22,1383 1637.34,1382.32 1658.45,1382.51 1679.57,1381.95 1700.69,1381.85 1721.8,1380.8 1742.92,1379.59 1764.03,1377.29 1785.15,1377.27 1806.27,1373.39 1827.38,1369.59 1848.5,1365.01 1869.62,1356.62 1890.73,1346.56 1911.85,1325.38 1932.96,1297.14 1954.08,1250.28 1975.2,1138.2 1996.31,917.553 2017.43,966.464 2038.55,972.674 2059.66,960.101 2080.78,1052.47 2101.89,1140.58 2123.01,1214.32 2144.13,1278.66 2165.24,1302.63 2186.36,1335.01 2207.48,1364.37 2228.59,1378.39 2249.71,1382.4 2270.82,1383.67 2291.94,1384.12 "/>
<polyline clip-path="url(#clip782)" style="stroke:#e26f46; stroke-linecap:round; stroke-linejoin:round; stroke-width:4; stroke-opacity:1; fill:none" points="264.778,1384.24 475.941,1384.24 518.174,1384.24 539.29,1384.24 729.337,1384.24 792.685,1384.24 813.802,1384.24 834.918,1384.24 856.034,1384.24 898.267,1384.24 919.383,1384.24 961.616,1384.24 1003.85,1384.24 1046.08,1384.24 1088.31,1384.24 1130.55,1384.24 1151.66,1384.24 1172.78,1384.24 1193.89,1384.24 1236.13,1384.24 1257.24,1384.24 1278.36,1384.24 1299.48,1384.24 1320.59,1384.24 1341.71,1384.24 1362.82,1384.24 1383.94,1384.24 1405.06,1384.24 1426.17,1384.24 1447.29,1384.24 1468.41,1384.24 1489.52,1384.24 1510.64,1384.24 1531.76,1384.24 1552.87,1384.24 1573.99,1384.24 1595.1,1384.24 1616.22,1384.24 1637.34,1384.24 1658.45,1384.24 1679.57,1384.24 1700.69,1384.23 1721.8,1384.22 1742.92,1384.19 1764.03,1384.11 1785.15,1383.86 1806.27,1383.18 1827.38,1381.28 1848.5,1376.22 1869.62,1363.28 1890.73,1332.12 1911.85,1263.19 1932.96,1127.68 1954.08,901.195 1975.2,596.742 1996.31,291.949 2017.43,99.3182 2038.55,86.1857 2059.66,231.46 2080.78,459.602 2101.89,697.452 2123.01,902.134 2144.13,1059.43 2165.24,1171.84 2186.36,1248.34 2207.48,1298.68 2228.59,1331.02 2249.71,1351.43 2270.82,1364.16 2291.94,1372.01 "/>
<path clip-path="url(#clip780)" d="M275.59 248.629 L824.773 248.629 L824.773 93.1086 L275.59 93.1086  Z" fill="#ffffff" fill-rule="evenodd" fill-opacity="1"/>
<polyline clip-path="url(#clip780)" style="stroke:#ffffff; stroke-linecap:round; stroke-linejoin:round; stroke-width:4; stroke-opacity:1; fill:none" points="275.59,248.629 824.773,248.629 824.773,93.1086 275.59,93.1086 275.59,248.629 "/>
<polyline clip-path="url(#clip780)" style="stroke:#009af9; stroke-linecap:round; stroke-linejoin:round; stroke-width:4; stroke-opacity:1; fill:none" points="299.465,144.949 442.718,144.949 "/>
<path clip-path="url(#clip780)" d="M466.594 127.669 L471.27 127.669 L471.27 141.835 L488.26 141.835 L488.26 127.669 L492.936 127.669 L492.936 162.229 L488.26 162.229 L488.26 145.77 L471.27 145.77 L471.27 162.229 L466.594 162.229 L466.594 127.669 Z" fill="#000000" fill-rule="nonzero" fill-opacity="1" /><path clip-path="url(#clip780)" d="M502.057 136.303 L506.316 136.303 L506.316 162.229 L502.057 162.229 L502.057 136.303 M502.057 126.21 L506.316 126.21 L506.316 131.604 L502.057 131.604 L502.057 126.21 Z" fill="#000000" fill-rule="nonzero" fill-opacity="1" /><path clip-path="url(#clip780)" d="M531.755 137.067 L531.755 141.094 Q529.95 140.169 528.005 139.706 Q526.061 139.243 523.978 139.243 Q520.806 139.243 519.209 140.215 Q517.635 141.187 517.635 143.131 Q517.635 144.613 518.769 145.469 Q519.904 146.303 523.33 147.067 L524.788 147.391 Q529.325 148.363 531.223 150.145 Q533.144 151.905 533.144 155.076 Q533.144 158.687 530.274 160.793 Q527.427 162.9 522.427 162.9 Q520.343 162.9 518.075 162.483 Q515.83 162.09 513.33 161.28 L513.33 156.881 Q515.691 158.108 517.982 158.733 Q520.274 159.335 522.519 159.335 Q525.529 159.335 527.149 158.317 Q528.769 157.275 528.769 155.4 Q528.769 153.664 527.589 152.738 Q526.431 151.812 522.473 150.956 L520.992 150.608 Q517.033 149.775 515.274 148.062 Q513.515 146.326 513.515 143.317 Q513.515 139.659 516.107 137.669 Q518.7 135.678 523.468 135.678 Q525.83 135.678 527.913 136.025 Q529.996 136.372 531.755 137.067 Z" fill="#000000" fill-rule="nonzero" fill-opacity="1" /><path clip-path="url(#clip780)" d="M544.14 128.942 L544.14 136.303 L552.913 136.303 L552.913 139.613 L544.14 139.613 L544.14 153.687 Q544.14 156.858 544.996 157.761 Q545.876 158.664 548.538 158.664 L552.913 158.664 L552.913 162.229 L548.538 162.229 Q543.607 162.229 541.732 160.4 Q539.857 158.548 539.857 153.687 L539.857 139.613 L536.732 139.613 L536.732 136.303 L539.857 136.303 L539.857 128.942 L544.14 128.942 Z" fill="#000000" fill-rule="nonzero" fill-opacity="1" /><path clip-path="url(#clip780)" d="M568.561 139.289 Q565.135 139.289 563.144 141.974 Q561.153 144.636 561.153 149.289 Q561.153 153.942 563.121 156.627 Q565.112 159.289 568.561 159.289 Q571.964 159.289 573.954 156.604 Q575.945 153.918 575.945 149.289 Q575.945 144.682 573.954 141.997 Q571.964 139.289 568.561 139.289 M568.561 135.678 Q574.116 135.678 577.288 139.289 Q580.459 142.9 580.459 149.289 Q580.459 155.655 577.288 159.289 Q574.116 162.9 568.561 162.9 Q562.982 162.9 559.811 159.289 Q556.663 155.655 556.663 149.289 Q556.663 142.9 559.811 139.289 Q562.982 135.678 568.561 135.678 Z" fill="#000000" fill-rule="nonzero" fill-opacity="1" /><path clip-path="url(#clip780)" d="M604.579 148.965 Q604.579 144.335 602.658 141.789 Q600.76 139.243 597.311 139.243 Q593.885 139.243 591.963 141.789 Q590.065 144.335 590.065 148.965 Q590.065 153.571 591.963 156.118 Q593.885 158.664 597.311 158.664 Q600.76 158.664 602.658 156.118 Q604.579 153.571 604.579 148.965 M608.838 159.011 Q608.838 165.631 605.899 168.849 Q602.959 172.09 596.894 172.09 Q594.649 172.09 592.658 171.742 Q590.667 171.418 588.792 170.724 L588.792 166.58 Q590.667 167.599 592.496 168.085 Q594.325 168.571 596.223 168.571 Q600.412 168.571 602.496 166.372 Q604.579 164.196 604.579 159.775 L604.579 157.668 Q603.26 159.96 601.2 161.094 Q599.139 162.229 596.269 162.229 Q591.5 162.229 588.584 158.594 Q585.667 154.96 585.667 148.965 Q585.667 142.946 588.584 139.312 Q591.5 135.678 596.269 135.678 Q599.139 135.678 601.2 136.812 Q603.26 137.946 604.579 140.238 L604.579 136.303 L608.838 136.303 L608.838 159.011 Z" fill="#000000" fill-rule="nonzero" fill-opacity="1" /><path clip-path="url(#clip780)" d="M632.635 140.284 Q631.917 139.868 631.06 139.682 Q630.227 139.474 629.209 139.474 Q625.598 139.474 623.653 141.835 Q621.732 144.173 621.732 148.571 L621.732 162.229 L617.449 162.229 L617.449 136.303 L621.732 136.303 L621.732 140.331 Q623.074 137.969 625.227 136.835 Q627.38 135.678 630.459 135.678 Q630.898 135.678 631.431 135.747 Q631.963 135.794 632.611 135.909 L632.635 140.284 Z" fill="#000000" fill-rule="nonzero" fill-opacity="1" /><path clip-path="url(#clip780)" d="M648.884 149.196 Q643.722 149.196 641.732 150.377 Q639.741 151.557 639.741 154.405 Q639.741 156.673 641.222 158.016 Q642.727 159.335 645.296 159.335 Q648.838 159.335 650.968 156.835 Q653.121 154.312 653.121 150.145 L653.121 149.196 L648.884 149.196 M657.38 147.437 L657.38 162.229 L653.121 162.229 L653.121 158.293 Q651.662 160.655 649.486 161.789 Q647.31 162.9 644.162 162.9 Q640.181 162.9 637.82 160.678 Q635.482 158.432 635.482 154.682 Q635.482 150.307 638.398 148.085 Q641.338 145.863 647.148 145.863 L653.121 145.863 L653.121 145.446 Q653.121 142.507 651.176 140.909 Q649.255 139.289 645.759 139.289 Q643.537 139.289 641.431 139.821 Q639.324 140.354 637.38 141.419 L637.38 137.483 Q639.718 136.581 641.917 136.141 Q644.116 135.678 646.199 135.678 Q651.824 135.678 654.602 138.594 Q657.38 141.511 657.38 147.437 Z" fill="#000000" fill-rule="nonzero" fill-opacity="1" /><path clip-path="url(#clip780)" d="M686.338 141.28 Q687.935 138.409 690.157 137.044 Q692.38 135.678 695.389 135.678 Q699.44 135.678 701.639 138.525 Q703.838 141.349 703.838 146.581 L703.838 162.229 L699.555 162.229 L699.555 146.719 Q699.555 142.993 698.236 141.187 Q696.917 139.382 694.208 139.382 Q690.898 139.382 688.977 141.581 Q687.056 143.78 687.056 147.576 L687.056 162.229 L682.773 162.229 L682.773 146.719 Q682.773 142.969 681.454 141.187 Q680.134 139.382 677.38 139.382 Q674.116 139.382 672.194 141.604 Q670.273 143.803 670.273 147.576 L670.273 162.229 L665.991 162.229 L665.991 136.303 L670.273 136.303 L670.273 140.331 Q671.732 137.946 673.769 136.812 Q675.806 135.678 678.607 135.678 Q681.431 135.678 683.398 137.113 Q685.389 138.548 686.338 141.28 Z" fill="#000000" fill-rule="nonzero" fill-opacity="1" /><polyline clip-path="url(#clip780)" style="stroke:#e26f46; stroke-linecap:round; stroke-linejoin:round; stroke-width:4; stroke-opacity:1; fill:none" points="299.465,196.789 442.718,196.789 "/>
<path clip-path="url(#clip780)" d="M471.27 183.351 L471.27 210.226 L476.918 210.226 Q484.071 210.226 487.381 206.985 Q490.714 203.745 490.714 196.754 Q490.714 189.809 487.381 186.592 Q484.071 183.351 476.918 183.351 L471.27 183.351 M466.594 179.509 L476.2 179.509 Q486.246 179.509 490.945 183.698 Q495.645 187.865 495.645 196.754 Q495.645 205.689 490.922 209.879 Q486.2 214.069 476.2 214.069 L466.594 214.069 L466.594 179.509 Z" fill="#000000" fill-rule="nonzero" fill-opacity="1" /><path clip-path="url(#clip780)" d="M502.913 188.143 L507.172 188.143 L507.172 214.069 L502.913 214.069 L502.913 188.143 M502.913 178.05 L507.172 178.05 L507.172 183.444 L502.913 183.444 L502.913 178.05 Z" fill="#000000" fill-rule="nonzero" fill-opacity="1" /><path clip-path="url(#clip780)" d="M532.612 188.907 L532.612 192.934 Q530.806 192.009 528.862 191.546 Q526.917 191.083 524.834 191.083 Q521.663 191.083 520.066 192.055 Q518.492 193.027 518.492 194.971 Q518.492 196.453 519.626 197.309 Q520.76 198.143 524.186 198.907 L525.644 199.231 Q530.181 200.203 532.08 201.985 Q534.001 203.745 534.001 206.916 Q534.001 210.527 531.13 212.633 Q528.283 214.74 523.283 214.74 Q521.2 214.74 518.931 214.323 Q516.686 213.93 514.186 213.12 L514.186 208.721 Q516.547 209.948 518.839 210.573 Q521.13 211.175 523.376 211.175 Q526.385 211.175 528.005 210.157 Q529.626 209.115 529.626 207.24 Q529.626 205.504 528.445 204.578 Q527.288 203.652 523.33 202.796 L521.848 202.448 Q517.89 201.615 516.131 199.902 Q514.371 198.166 514.371 195.157 Q514.371 191.499 516.964 189.509 Q519.556 187.518 524.325 187.518 Q526.686 187.518 528.769 187.865 Q530.853 188.212 532.612 188.907 Z" fill="#000000" fill-rule="nonzero" fill-opacity="1" /><path clip-path="url(#clip780)" d="M544.996 180.782 L544.996 188.143 L553.769 188.143 L553.769 191.453 L544.996 191.453 L544.996 205.527 Q544.996 208.698 545.853 209.601 Q546.732 210.504 549.394 210.504 L553.769 210.504 L553.769 214.069 L549.394 214.069 Q544.464 214.069 542.589 212.24 Q540.714 210.388 540.714 205.527 L540.714 191.453 L537.589 191.453 L537.589 188.143 L540.714 188.143 L540.714 180.782 L544.996 180.782 Z" fill="#000000" fill-rule="nonzero" fill-opacity="1" /><path clip-path="url(#clip780)" d="M574.394 192.124 Q573.677 191.708 572.82 191.522 Q571.987 191.314 570.968 191.314 Q567.357 191.314 565.413 193.675 Q563.491 196.013 563.491 200.411 L563.491 214.069 L559.209 214.069 L559.209 188.143 L563.491 188.143 L563.491 192.171 Q564.834 189.809 566.987 188.675 Q569.139 187.518 572.218 187.518 Q572.658 187.518 573.19 187.587 Q573.723 187.634 574.371 187.749 L574.394 192.124 Z" fill="#000000" fill-rule="nonzero" fill-opacity="1" /><path clip-path="url(#clip780)" d="M578.862 188.143 L583.121 188.143 L583.121 214.069 L578.862 214.069 L578.862 188.143 M578.862 178.05 L583.121 178.05 L583.121 183.444 L578.862 183.444 L578.862 178.05 Z" fill="#000000" fill-rule="nonzero" fill-opacity="1" /><path clip-path="url(#clip780)" d="M610.644 201.129 Q610.644 196.43 608.699 193.768 Q606.778 191.083 603.399 191.083 Q600.019 191.083 598.075 193.768 Q596.153 196.43 596.153 201.129 Q596.153 205.828 598.075 208.513 Q600.019 211.175 603.399 211.175 Q606.778 211.175 608.699 208.513 Q610.644 205.828 610.644 201.129 M596.153 192.078 Q597.496 189.763 599.533 188.652 Q601.593 187.518 604.44 187.518 Q609.162 187.518 612.102 191.268 Q615.065 195.018 615.065 201.129 Q615.065 207.24 612.102 210.99 Q609.162 214.74 604.44 214.74 Q601.593 214.74 599.533 213.629 Q597.496 212.495 596.153 210.18 L596.153 214.069 L591.871 214.069 L591.871 178.05 L596.153 178.05 L596.153 192.078 Z" fill="#000000" fill-rule="nonzero" fill-opacity="1" /><path clip-path="url(#clip780)" d="M621.686 203.837 L621.686 188.143 L625.945 188.143 L625.945 203.675 Q625.945 207.356 627.38 209.208 Q628.815 211.036 631.685 211.036 Q635.135 211.036 637.125 208.837 Q639.139 206.638 639.139 202.842 L639.139 188.143 L643.398 188.143 L643.398 214.069 L639.139 214.069 L639.139 210.087 Q637.588 212.448 635.528 213.606 Q633.491 214.74 630.783 214.74 Q626.315 214.74 624 211.962 Q621.686 209.184 621.686 203.837 M632.403 187.518 L632.403 187.518 Z" fill="#000000" fill-rule="nonzero" fill-opacity="1" /><path clip-path="url(#clip780)" d="M656.384 180.782 L656.384 188.143 L665.157 188.143 L665.157 191.453 L656.384 191.453 L656.384 205.527 Q656.384 208.698 657.241 209.601 Q658.12 210.504 660.783 210.504 L665.157 210.504 L665.157 214.069 L660.783 214.069 Q655.852 214.069 653.977 212.24 Q652.102 210.388 652.102 205.527 L652.102 191.453 L648.977 191.453 L648.977 188.143 L652.102 188.143 L652.102 180.782 L656.384 180.782 Z" fill="#000000" fill-rule="nonzero" fill-opacity="1" /><path clip-path="url(#clip780)" d="M670.759 188.143 L675.019 188.143 L675.019 214.069 L670.759 214.069 L670.759 188.143 M670.759 178.05 L675.019 178.05 L675.019 183.444 L670.759 183.444 L670.759 178.05 Z" fill="#000000" fill-rule="nonzero" fill-opacity="1" /><path clip-path="url(#clip780)" d="M693.977 191.129 Q690.551 191.129 688.56 193.814 Q686.569 196.476 686.569 201.129 Q686.569 205.782 688.537 208.467 Q690.528 211.129 693.977 211.129 Q697.38 211.129 699.37 208.444 Q701.361 205.758 701.361 201.129 Q701.361 196.522 699.37 193.837 Q697.38 191.129 693.977 191.129 M693.977 187.518 Q699.532 187.518 702.704 191.129 Q705.875 194.74 705.875 201.129 Q705.875 207.495 702.704 211.129 Q699.532 214.74 693.977 214.74 Q688.398 214.74 685.227 211.129 Q682.079 207.495 682.079 201.129 Q682.079 194.74 685.227 191.129 Q688.398 187.518 693.977 187.518 Z" fill="#000000" fill-rule="nonzero" fill-opacity="1" /><path clip-path="url(#clip780)" d="M734.486 198.421 L734.486 214.069 L730.227 214.069 L730.227 198.559 Q730.227 194.879 728.791 193.05 Q727.356 191.222 724.486 191.222 Q721.037 191.222 719.046 193.421 Q717.055 195.62 717.055 199.416 L717.055 214.069 L712.773 214.069 L712.773 188.143 L717.055 188.143 L717.055 192.171 Q718.583 189.833 720.643 188.675 Q722.727 187.518 725.435 187.518 Q729.903 187.518 732.194 190.296 Q734.486 193.05 734.486 198.421 Z" fill="#000000" fill-rule="nonzero" fill-opacity="1" /><path clip-path="url(#clip780)" d="M771.175 178.05 L771.175 181.592 L767.101 181.592 Q764.81 181.592 763.907 182.518 Q763.027 183.444 763.027 185.851 L763.027 188.143 L770.041 188.143 L770.041 191.453 L763.027 191.453 L763.027 214.069 L758.745 214.069 L758.745 191.453 L754.671 191.453 L754.671 188.143 L758.745 188.143 L758.745 186.337 Q758.745 182.009 760.759 180.041 Q762.773 178.05 767.148 178.05 L771.175 178.05 Z" fill="#000000" fill-rule="nonzero" fill-opacity="1" /><path clip-path="url(#clip780)" d="M774.74 188.143 L778.999 188.143 L778.999 214.069 L774.74 214.069 L774.74 188.143 M774.74 178.05 L778.999 178.05 L778.999 183.444 L774.74 183.444 L774.74 178.05 Z" fill="#000000" fill-rule="nonzero" fill-opacity="1" /><path clip-path="url(#clip780)" d="M792.124 180.782 L792.124 188.143 L800.898 188.143 L800.898 191.453 L792.124 191.453 L792.124 205.527 Q792.124 208.698 792.981 209.601 Q793.861 210.504 796.523 210.504 L800.898 210.504 L800.898 214.069 L796.523 214.069 Q791.592 214.069 789.717 212.24 Q787.842 210.388 787.842 205.527 L787.842 191.453 L784.717 191.453 L784.717 188.143 L787.842 188.143 L787.842 180.782 L792.124 180.782 Z" fill="#000000" fill-rule="nonzero" fill-opacity="1" /></svg>
