<?xml version="1.0" encoding="utf-8"?>
<svg xmlns="http://www.w3.org/2000/svg" xmlns:xlink="http://www.w3.org/1999/xlink" width="600" height="400" viewBox="0 0 2400 1600">
<defs>
  <clipPath id="clip740">
    <rect x="0" y="0" width="2400" height="1600"/>
  </clipPath>
</defs>
<path clip-path="url(#clip740)" d="M0 1600 L2400 1600 L2400 8.88178e-14 L0 8.88178e-14  Z" fill="#ffffff" fill-rule="evenodd" fill-opacity="1"/>
<defs>
  <clipPath id="clip741">
    <rect x="480" y="0" width="1681" height="1600"/>
  </clipPath>
</defs>
<path clip-path="url(#clip740)" d="M249.843 1552.76 L2352.76 1552.76 L2352.76 47.2441 L249.843 47.2441  Z" fill="#ffffff" fill-rule="evenodd" fill-opacity="1"/>
<defs>
  <clipPath id="clip742">
    <rect x="249" y="47" width="2104" height="1507"/>
  </clipPath>
</defs>
<polyline clip-path="url(#clip742)" style="stroke:#000000; stroke-linecap:round; stroke-linejoin:round; stroke-width:2; stroke-opacity:0.1; fill:none" points="249.843,1250.09 2352.76,1250.09 "/>
<polyline clip-path="url(#clip742)" style="stroke:#000000; stroke-linecap:round; stroke-linejoin:round; stroke-width:2; stroke-opacity:0.1; fill:none" points="249.843,850.01 2352.76,850.01 "/>
<polyline clip-path="url(#clip742)" style="stroke:#000000; stroke-linecap:round; stroke-linejoin:round; stroke-width:2; stroke-opacity:0.1; fill:none" points="249.843,449.927 2352.76,449.927 "/>
<polyline clip-path="url(#clip742)" style="stroke:#000000; stroke-linecap:round; stroke-linejoin:round; stroke-width:2; stroke-opacity:0.1; fill:none" points="249.843,49.8446 2352.76,49.8446 "/>
<polyline clip-path="url(#clip742)" style="stroke:#000000; stroke-linecap:round; stroke-linejoin:round; stroke-width:2; stroke-opacity:0.1; fill:none" points="249.843,1250.09 2352.76,1250.09 "/>
<polyline clip-path="url(#clip742)" style="stroke:#000000; stroke-linecap:round; stroke-linejoin:round; stroke-width:2; stroke-opacity:0.1; fill:none" points="249.843,850.01 2352.76,850.01 "/>
<polyline clip-path="url(#clip742)" style="stroke:#000000; stroke-linecap:round; stroke-linejoin:round; stroke-width:2; stroke-opacity:0.1; fill:none" points="249.843,449.927 2352.76,449.927 "/>
<polyline clip-path="url(#clip742)" style="stroke:#000000; stroke-linecap:round; stroke-linejoin:round; stroke-width:2; stroke-opacity:0.1; fill:none" points="249.843,49.8446 2352.76,49.8446 "/>
<polyline clip-path="url(#clip740)" style="stroke:#000000; stroke-linecap:round; stroke-linejoin:round; stroke-width:4; stroke-opacity:1; fill:none" points="249.843,1552.76 2352.76,1552.76 "/>
<polyline clip-path="url(#clip740)" style="stroke:#000000; stroke-linecap:round; stroke-linejoin:round; stroke-width:4; stroke-opacity:1; fill:none" points="249.843,47.2441 2352.76,47.2441 "/>
<polyline clip-path="url(#clip740)" style="stroke:#000000; stroke-linecap:round; stroke-linejoin:round; stroke-width:4; stroke-opacity:1; fill:none" points="249.843,1552.76 249.843,47.2441 "/>
<polyline clip-path="url(#clip740)" style="stroke:#000000; stroke-linecap:round; stroke-linejoin:round; stroke-width:4; stroke-opacity:1; fill:none" points="2352.76,1552.76 2352.76,47.2441 "/>
<polyline clip-path="url(#clip740)" style="stroke:#000000; stroke-linecap:round; stroke-linejoin:round; stroke-width:4; stroke-opacity:1; fill:none" points="249.843,1250.09 268.741,1250.09 "/>
<polyline clip-path="url(#clip740)" style="stroke:#000000; stroke-linecap:round; stroke-linejoin:round; stroke-width:4; stroke-opacity:1; fill:none" points="249.843,850.01 268.741,850.01 "/>
<polyline clip-path="url(#clip740)" style="stroke:#000000; stroke-linecap:round; stroke-linejoin:round; stroke-width:4; stroke-opacity:1; fill:none" points="249.843,449.927 268.741,449.927 "/>
<polyline clip-path="url(#clip740)" style="stroke:#000000; stroke-linecap:round; stroke-linejoin:round; stroke-width:4; stroke-opacity:1; fill:none" points="249.843,49.8446 268.741,49.8446 "/>
<polyline clip-path="url(#clip740)" style="stroke:#000000; stroke-linecap:round; stroke-linejoin:round; stroke-width:4; stroke-opacity:1; fill:none" points="2352.76,1250.09 2333.86,1250.09 "/>
<polyline clip-path="url(#clip740)" style="stroke:#000000; stroke-linecap:round; stroke-linejoin:round; stroke-width:4; stroke-opacity:1; fill:none" points="2352.76,850.01 2333.86,850.01 "/>
<polyline clip-path="url(#clip740)" style="stroke:#000000; stroke-linecap:round; stroke-linejoin:round; stroke-width:4; stroke-opacity:1; fill:none" points="2352.76,449.927 2333.86,449.927 "/>
<polyline clip-path="url(#clip740)" style="stroke:#000000; stroke-linecap:round; stroke-linejoin:round; stroke-width:4; stroke-opacity:1; fill:none" points="2352.76,49.8446 2333.86,49.8446 "/>
<path clip-path="url(#clip740)" d="M127.732 1248.23 Q124.584 1248.23 122.732 1250.38 Q120.904 1252.54 120.904 1256.29 Q120.904 1260.01 122.732 1262.19 Q124.584 1264.34 127.732 1264.34 Q130.88 1264.34 132.709 1262.19 Q134.561 1260.01 134.561 1256.29 Q134.561 1252.54 132.709 1250.38 Q130.88 1248.23 127.732 1248.23 M137.015 1233.58 L137.015 1237.84 Q135.255 1237 133.45 1236.56 Q131.667 1236.12 129.908 1236.12 Q125.279 1236.12 122.825 1239.25 Q120.394 1242.37 120.047 1248.69 Q121.413 1246.68 123.473 1245.61 Q125.533 1244.53 128.01 1244.53 Q133.218 1244.53 136.228 1247.7 Q139.26 1250.85 139.26 1256.29 Q139.26 1261.61 136.112 1264.83 Q132.964 1268.04 127.732 1268.04 Q121.737 1268.04 118.566 1263.46 Q115.394 1258.85 115.394 1250.13 Q115.394 1241.93 119.283 1237.07 Q123.172 1232.19 129.723 1232.19 Q131.482 1232.19 133.265 1232.54 Q135.07 1232.88 137.015 1233.58 Z" fill="#000000" fill-rule="nonzero" fill-opacity="1" /><path clip-path="url(#clip740)" d="M157.894 1248.23 Q154.746 1248.23 152.894 1250.38 Q151.066 1252.54 151.066 1256.29 Q151.066 1260.01 152.894 1262.19 Q154.746 1264.34 157.894 1264.34 Q161.042 1264.34 162.871 1262.19 Q164.723 1260.01 164.723 1256.29 Q164.723 1252.54 162.871 1250.38 Q161.042 1248.23 157.894 1248.23 M167.177 1233.58 L167.177 1237.84 Q165.417 1237 163.612 1236.56 Q161.829 1236.12 160.07 1236.12 Q155.44 1236.12 152.987 1239.25 Q150.556 1242.37 150.209 1248.69 Q151.575 1246.68 153.635 1245.61 Q155.695 1244.53 158.172 1244.53 Q163.38 1244.53 166.39 1247.7 Q169.422 1250.85 169.422 1256.29 Q169.422 1261.61 166.274 1264.83 Q163.126 1268.04 157.894 1268.04 Q151.899 1268.04 148.728 1263.46 Q145.556 1258.85 145.556 1250.13 Q145.556 1241.93 149.445 1237.07 Q153.334 1232.19 159.885 1232.19 Q161.644 1232.19 163.427 1232.54 Q165.232 1232.88 167.177 1233.58 Z" fill="#000000" fill-rule="nonzero" fill-opacity="1" /><path clip-path="url(#clip740)" d="M177.477 1261.49 L182.362 1261.49 L182.362 1267.37 L177.477 1267.37 L177.477 1261.49 Z" fill="#000000" fill-rule="nonzero" fill-opacity="1" /><path clip-path="url(#clip740)" d="M206.713 1248.74 Q210.07 1249.46 211.945 1251.73 Q213.843 1253.99 213.843 1257.33 Q213.843 1262.44 210.324 1265.24 Q206.806 1268.04 200.325 1268.04 Q198.149 1268.04 195.834 1267.6 Q193.542 1267.19 191.088 1266.33 L191.088 1261.82 Q193.033 1262.95 195.348 1263.53 Q197.662 1264.11 200.186 1264.11 Q204.584 1264.11 206.875 1262.37 Q209.19 1260.64 209.19 1257.33 Q209.19 1254.27 207.037 1252.56 Q204.908 1250.82 201.088 1250.82 L197.061 1250.82 L197.061 1246.98 L201.274 1246.98 Q204.723 1246.98 206.551 1245.61 Q208.38 1244.23 208.38 1241.63 Q208.38 1238.97 206.482 1237.56 Q204.607 1236.12 201.088 1236.12 Q199.167 1236.12 196.968 1236.54 Q194.769 1236.96 192.13 1237.84 L192.13 1233.67 Q194.792 1232.93 197.107 1232.56 Q199.445 1232.19 201.505 1232.19 Q206.829 1232.19 209.931 1234.62 Q213.033 1237.03 213.033 1241.15 Q213.033 1244.02 211.389 1246.01 Q209.746 1247.98 206.713 1248.74 Z" fill="#000000" fill-rule="nonzero" fill-opacity="1" /><path clip-path="url(#clip740)" d="M126.598 848.147 Q123.45 848.147 121.598 850.3 Q119.769 852.452 119.769 856.202 Q119.769 859.929 121.598 862.105 Q123.45 864.258 126.598 864.258 Q129.746 864.258 131.575 862.105 Q133.427 859.929 133.427 856.202 Q133.427 852.452 131.575 850.3 Q129.746 848.147 126.598 848.147 M135.88 833.494 L135.88 837.753 Q134.121 836.92 132.316 836.48 Q130.533 836.041 128.774 836.041 Q124.144 836.041 121.691 839.166 Q119.26 842.29 118.913 848.61 Q120.279 846.596 122.339 845.531 Q124.399 844.443 126.876 844.443 Q132.084 844.443 135.093 847.615 Q138.126 850.763 138.126 856.202 Q138.126 861.526 134.978 864.744 Q131.83 867.962 126.598 867.962 Q120.603 867.962 117.431 863.378 Q114.26 858.772 114.26 850.045 Q114.26 841.851 118.149 836.99 Q122.038 832.105 128.589 832.105 Q130.348 832.105 132.13 832.453 Q133.936 832.8 135.88 833.494 Z" fill="#000000" fill-rule="nonzero" fill-opacity="1" /><path clip-path="url(#clip740)" d="M156.76 848.147 Q153.612 848.147 151.76 850.3 Q149.931 852.452 149.931 856.202 Q149.931 859.929 151.76 862.105 Q153.612 864.258 156.76 864.258 Q159.908 864.258 161.737 862.105 Q163.589 859.929 163.589 856.202 Q163.589 852.452 161.737 850.3 Q159.908 848.147 156.76 848.147 M166.042 833.494 L166.042 837.753 Q164.283 836.92 162.477 836.48 Q160.695 836.041 158.936 836.041 Q154.306 836.041 151.853 839.166 Q149.422 842.29 149.075 848.61 Q150.441 846.596 152.501 845.531 Q154.561 844.443 157.038 844.443 Q162.246 844.443 165.255 847.615 Q168.288 850.763 168.288 856.202 Q168.288 861.526 165.14 864.744 Q161.991 867.962 156.76 867.962 Q150.765 867.962 147.593 863.378 Q144.422 858.772 144.422 850.045 Q144.422 841.851 148.311 836.99 Q152.2 832.105 158.751 832.105 Q160.51 832.105 162.292 832.453 Q164.098 832.8 166.042 833.494 Z" fill="#000000" fill-rule="nonzero" fill-opacity="1" /><path clip-path="url(#clip740)" d="M176.343 861.411 L181.227 861.411 L181.227 867.29 L176.343 867.29 L176.343 861.411 Z" fill="#000000" fill-rule="nonzero" fill-opacity="1" /><path clip-path="url(#clip740)" d="M204.26 836.804 L192.454 855.253 L204.26 855.253 L204.26 836.804 M203.033 832.73 L208.912 832.73 L208.912 855.253 L213.843 855.253 L213.843 859.142 L208.912 859.142 L208.912 867.29 L204.26 867.29 L204.26 859.142 L188.658 859.142 L188.658 854.628 L203.033 832.73 Z" fill="#000000" fill-rule="nonzero" fill-opacity="1" /><path clip-path="url(#clip740)" d="M128.08 448.064 Q124.931 448.064 123.08 450.217 Q121.251 452.37 121.251 456.12 Q121.251 459.846 123.08 462.022 Q124.931 464.175 128.08 464.175 Q131.228 464.175 133.056 462.022 Q134.908 459.846 134.908 456.12 Q134.908 452.37 133.056 450.217 Q131.228 448.064 128.08 448.064 M137.362 433.411 L137.362 437.671 Q135.603 436.837 133.797 436.397 Q132.015 435.958 130.255 435.958 Q125.626 435.958 123.172 439.083 Q120.742 442.208 120.394 448.527 Q121.76 446.513 123.82 445.448 Q125.88 444.36 128.357 444.36 Q133.566 444.36 136.575 447.532 Q139.607 450.68 139.607 456.12 Q139.607 461.444 136.459 464.661 Q133.311 467.879 128.08 467.879 Q122.084 467.879 118.913 463.295 Q115.742 458.689 115.742 449.962 Q115.742 441.768 119.63 436.907 Q123.519 432.022 130.07 432.022 Q131.83 432.022 133.612 432.37 Q135.417 432.717 137.362 433.411 Z" fill="#000000" fill-rule="nonzero" fill-opacity="1" /><path clip-path="url(#clip740)" d="M158.241 448.064 Q155.093 448.064 153.241 450.217 Q151.413 452.37 151.413 456.12 Q151.413 459.846 153.241 462.022 Q155.093 464.175 158.241 464.175 Q161.39 464.175 163.218 462.022 Q165.07 459.846 165.07 456.12 Q165.07 452.37 163.218 450.217 Q161.39 448.064 158.241 448.064 M167.524 433.411 L167.524 437.671 Q165.765 436.837 163.959 436.397 Q162.177 435.958 160.417 435.958 Q155.788 435.958 153.334 439.083 Q150.903 442.208 150.556 448.527 Q151.922 446.513 153.982 445.448 Q156.042 444.36 158.519 444.36 Q163.727 444.36 166.737 447.532 Q169.769 450.68 169.769 456.12 Q169.769 461.444 166.621 464.661 Q163.473 467.879 158.241 467.879 Q152.246 467.879 149.075 463.295 Q145.904 458.689 145.904 449.962 Q145.904 441.768 149.792 436.907 Q153.681 432.022 160.232 432.022 Q161.991 432.022 163.774 432.37 Q165.579 432.717 167.524 433.411 Z" fill="#000000" fill-rule="nonzero" fill-opacity="1" /><path clip-path="url(#clip740)" d="M177.825 461.328 L182.709 461.328 L182.709 467.207 L177.825 467.207 L177.825 461.328 Z" fill="#000000" fill-rule="nonzero" fill-opacity="1" /><path clip-path="url(#clip740)" d="M192.94 432.647 L211.297 432.647 L211.297 436.583 L197.223 436.583 L197.223 445.055 Q198.241 444.708 199.26 444.546 Q200.278 444.36 201.297 444.36 Q207.084 444.36 210.463 447.532 Q213.843 450.703 213.843 456.12 Q213.843 461.698 210.371 464.8 Q206.899 467.879 200.579 467.879 Q198.403 467.879 196.135 467.508 Q193.889 467.138 191.482 466.397 L191.482 461.698 Q193.565 462.833 195.787 463.388 Q198.01 463.944 200.487 463.944 Q204.491 463.944 206.829 461.837 Q209.167 459.731 209.167 456.12 Q209.167 452.509 206.829 450.402 Q204.491 448.296 200.487 448.296 Q198.612 448.296 196.737 448.712 Q194.885 449.129 192.94 450.009 L192.94 432.647 Z" fill="#000000" fill-rule="nonzero" fill-opacity="1" /><path clip-path="url(#clip740)" d="M126.922 47.9812 Q123.774 47.9812 121.922 50.134 Q120.093 52.2867 120.093 56.0367 Q120.093 59.7636 121.922 61.9395 Q123.774 64.0922 126.922 64.0922 Q130.07 64.0922 131.899 61.9395 Q133.751 59.7636 133.751 56.0367 Q133.751 52.2867 131.899 50.134 Q130.07 47.9812 126.922 47.9812 M136.204 33.3285 L136.204 37.5878 Q134.445 36.7544 132.64 36.3146 Q130.857 35.8748 129.098 35.8748 Q124.468 35.8748 122.015 38.9998 Q119.584 42.1248 119.237 48.4442 Q120.603 46.4303 122.663 45.3655 Q124.723 44.2775 127.2 44.2775 Q132.408 44.2775 135.417 47.4488 Q138.45 50.5969 138.45 56.0367 Q138.45 61.3608 135.302 64.5784 Q132.154 67.7959 126.922 67.7959 Q120.927 67.7959 117.756 63.2126 Q114.584 58.6062 114.584 49.8794 Q114.584 41.685 118.473 36.8239 Q122.362 31.9396 128.913 31.9396 Q130.672 31.9396 132.455 32.2869 Q134.26 32.6341 136.204 33.3285 Z" fill="#000000" fill-rule="nonzero" fill-opacity="1" /><path clip-path="url(#clip740)" d="M157.084 47.9812 Q153.936 47.9812 152.084 50.134 Q150.255 52.2867 150.255 56.0367 Q150.255 59.7636 152.084 61.9395 Q153.936 64.0922 157.084 64.0922 Q160.232 64.0922 162.061 61.9395 Q163.913 59.7636 163.913 56.0367 Q163.913 52.2867 162.061 50.134 Q160.232 47.9812 157.084 47.9812 M166.366 33.3285 L166.366 37.5878 Q164.607 36.7544 162.802 36.3146 Q161.019 35.8748 159.26 35.8748 Q154.63 35.8748 152.177 38.9998 Q149.746 42.1248 149.399 48.4442 Q150.765 46.4303 152.825 45.3655 Q154.885 44.2775 157.362 44.2775 Q162.57 44.2775 165.579 47.4488 Q168.612 50.5969 168.612 56.0367 Q168.612 61.3608 165.464 64.5784 Q162.315 67.7959 157.084 67.7959 Q151.089 67.7959 147.917 63.2126 Q144.746 58.6062 144.746 49.8794 Q144.746 41.685 148.635 36.8239 Q152.524 31.9396 159.075 31.9396 Q160.834 31.9396 162.616 32.2869 Q164.422 32.6341 166.366 33.3285 Z" fill="#000000" fill-rule="nonzero" fill-opacity="1" /><path clip-path="url(#clip740)" d="M176.667 61.245 L181.551 61.245 L181.551 67.1246 L176.667 67.1246 L176.667 61.245 Z" fill="#000000" fill-rule="nonzero" fill-opacity="1" /><path clip-path="url(#clip740)" d="M202.315 47.9812 Q199.167 47.9812 197.315 50.134 Q195.487 52.2867 195.487 56.0367 Q195.487 59.7636 197.315 61.9395 Q199.167 64.0922 202.315 64.0922 Q205.463 64.0922 207.292 61.9395 Q209.144 59.7636 209.144 56.0367 Q209.144 52.2867 207.292 50.134 Q205.463 47.9812 202.315 47.9812 M211.598 33.3285 L211.598 37.5878 Q209.838 36.7544 208.033 36.3146 Q206.25 35.8748 204.491 35.8748 Q199.862 35.8748 197.408 38.9998 Q194.977 42.1248 194.63 48.4442 Q195.996 46.4303 198.056 45.3655 Q200.116 44.2775 202.593 44.2775 Q207.801 44.2775 210.811 47.4488 Q213.843 50.5969 213.843 56.0367 Q213.843 61.3608 210.695 64.5784 Q207.547 67.7959 202.315 67.7959 Q196.32 67.7959 193.149 63.2126 Q189.977 58.6062 189.977 49.8794 Q189.977 41.685 193.866 36.8239 Q197.755 31.9396 204.306 31.9396 Q206.065 31.9396 207.848 32.2869 Q209.653 32.6341 211.598 33.3285 Z" fill="#000000" fill-rule="nonzero" fill-opacity="1" /><path clip-path="url(#clip740)" d="M22.818 922.094 L46.4666 930.815 L46.4666 913.341 L22.818 922.094 M16.4842 925.723 L16.4842 918.434 L64.0042 900.324 L64.0042 907.008 L51.8138 911.336 L51.8138 932.757 L64.0042 937.085 L64.0042 943.865 L16.4842 925.723 Z" fill="#000000" fill-rule="nonzero" fill-opacity="1" /><path clip-path="url(#clip740)" d="M45.7664 870.182 Q39.4007 870.182 35.8996 872.824 Q32.3984 875.434 32.3984 880.176 Q32.3984 884.887 35.8996 887.528 Q39.4007 890.138 45.7664 890.138 Q52.1003 890.138 55.6014 887.528 Q59.1026 884.887 59.1026 880.176 Q59.1026 875.434 55.6014 872.824 Q52.1003 870.182 45.7664 870.182 M59.58 864.325 Q68.683 864.325 73.1071 868.368 Q77.5631 872.41 77.5631 880.749 Q77.5631 883.836 77.0857 886.574 Q76.6401 889.311 75.6852 891.889 L69.9879 891.889 Q71.3884 889.311 72.0568 886.796 Q72.7252 884.282 72.7252 881.672 Q72.7252 875.911 69.7015 873.046 Q66.7096 870.182 60.6303 870.182 L57.7339 870.182 Q60.885 871.996 62.4446 874.829 Q64.0042 877.662 64.0042 881.608 Q64.0042 888.165 59.0071 892.175 Q54.01 896.186 45.7664 896.186 Q37.491 896.186 32.4939 892.175 Q27.4968 888.165 27.4968 881.608 Q27.4968 877.662 29.0564 874.829 Q30.616 871.996 33.7671 870.182 L28.3562 870.182 L28.3562 864.325 L59.58 864.325 Z" fill="#000000" fill-rule="nonzero" fill-opacity="1" /><path clip-path="url(#clip740)" d="M44.7161 821.771 L47.5806 821.771 L47.5806 848.698 Q53.6281 848.316 56.8109 845.069 Q59.9619 841.791 59.9619 835.966 Q59.9619 832.592 59.1344 829.441 Q58.3069 826.259 56.6518 823.139 L62.1899 823.139 Q63.5267 826.29 64.227 829.601 Q64.9272 832.911 64.9272 836.316 Q64.9272 844.846 59.9619 849.843 Q54.9967 854.809 46.5303 854.809 Q37.7774 854.809 32.6531 850.098 Q27.4968 845.356 27.4968 837.335 Q27.4968 830.142 32.1438 825.972 Q36.7589 821.771 44.7161 821.771 M42.9973 827.627 Q38.1912 827.691 35.3266 830.333 Q32.4621 832.943 32.4621 837.271 Q32.4621 842.173 35.2312 845.133 Q38.0002 848.061 43.0292 848.507 L42.9973 827.627 Z" fill="#000000" fill-rule="nonzero" fill-opacity="1" /><path clip-path="url(#clip740)" d="M14.5426 777.37 Q21.8632 781.635 29.0246 783.704 Q36.186 785.773 43.5384 785.773 Q50.8908 785.773 58.1159 783.704 Q65.3091 781.603 72.5979 777.37 L72.5979 782.462 Q65.1182 787.237 57.8931 789.624 Q50.668 791.979 43.5384 791.979 Q36.4406 791.979 29.2474 789.624 Q22.0542 787.269 14.5426 782.462 L14.5426 777.37 Z" fill="#000000" fill-rule="nonzero" fill-opacity="1" /><path clip-path="url(#clip740)" d="M16.4842 765.752 L16.4842 756.172 L48.8219 744.045 L16.4842 731.855 L16.4842 722.275 L64.0042 722.275 L64.0042 728.545 L22.277 728.545 L54.8694 740.799 L54.8694 747.26 L22.277 759.514 L64.0042 759.514 L64.0042 765.752 L16.4842 765.752 Z" fill="#000000" fill-rule="nonzero" fill-opacity="1" /><path clip-path="url(#clip740)" d="M46.0847 693.565 Q46.0847 700.663 47.7079 703.4 Q49.3312 706.138 53.2461 706.138 Q56.3653 706.138 58.2114 704.101 Q60.0256 702.032 60.0256 698.499 Q60.0256 693.629 56.5881 690.701 Q53.1188 687.741 47.3897 687.741 L46.0847 687.741 L46.0847 693.565 M43.6657 681.884 L64.0042 681.884 L64.0042 687.741 L58.5933 687.741 Q61.8398 689.746 63.3994 692.738 Q64.9272 695.73 64.9272 700.058 Q64.9272 705.533 61.8716 708.779 Q58.7843 711.994 53.6281 711.994 Q47.6125 711.994 44.5569 707.984 Q41.5014 703.941 41.5014 695.953 L41.5014 687.741 L40.9285 687.741 Q36.8862 687.741 34.6901 690.414 Q32.4621 693.056 32.4621 697.862 Q32.4621 700.918 33.1941 703.814 Q33.9262 706.711 35.3903 709.384 L29.9795 709.384 Q28.7381 706.169 28.1334 703.146 Q27.4968 700.122 27.4968 697.257 Q27.4968 689.523 31.5072 685.704 Q35.5176 681.884 43.6657 681.884 Z" fill="#000000" fill-rule="nonzero" fill-opacity="1" /><path clip-path="url(#clip740)" d="M14.5426 670.744 L14.5426 665.652 Q22.0542 660.877 29.2474 658.522 Q36.4406 656.135 43.5384 656.135 Q50.668 656.135 57.8931 658.522 Q65.1182 660.877 72.5979 665.652 L72.5979 670.744 Q65.3091 666.511 58.1159 664.442 Q50.8908 662.342 43.5384 662.342 Q36.186 662.342 29.0246 664.442 Q21.8632 666.511 14.5426 670.744 Z" fill="#000000" fill-rule="nonzero" fill-opacity="1" /><polyline clip-path="url(#clip742)" style="stroke:#009af9; stroke-linecap:round; stroke-linejoin:round; stroke-width:4; stroke-opacity:1; fill:none" points="309.359,1494.14 309.359,1182.08 "/>
<polyline clip-path="url(#clip742)" style="stroke:#009af9; stroke-linecap:round; stroke-linejoin:round; stroke-width:4; stroke-opacity:1; fill:none" points="640.006,1510.15 640.006,1046.05 "/>
<polyline clip-path="url(#clip742)" style="stroke:#009af9; stroke-linecap:round; stroke-linejoin:round; stroke-width:4; stroke-opacity:1; fill:none" points="970.653,1310.11 970.653,1014.04 "/>
<polyline clip-path="url(#clip742)" style="stroke:#009af9; stroke-linecap:round; stroke-linejoin:round; stroke-width:4; stroke-opacity:1; fill:none" points="1301.3,1278.1 1301.3,854.011 "/>
<polyline clip-path="url(#clip742)" style="stroke:#009af9; stroke-linecap:round; stroke-linejoin:round; stroke-width:4; stroke-opacity:1; fill:none" points="1631.95,1046.05 1631.95,789.998 "/>
<polyline clip-path="url(#clip742)" style="stroke:#009af9; stroke-linecap:round; stroke-linejoin:round; stroke-width:4; stroke-opacity:1; fill:none" points="1962.59,785.997 1962.59,441.926 "/>
<polyline clip-path="url(#clip742)" style="stroke:#009af9; stroke-linecap:round; stroke-linejoin:round; stroke-width:4; stroke-opacity:1; fill:none" points="2293.24,1050.05 2293.24,89.8529 "/>
<line clip-path="url(#clip742)" x1="325.359" y1="1494.14" x2="293.359" y2="1494.14" style="stroke:#009af9; stroke-width:4; stroke-opacity:1"/>
<line clip-path="url(#clip742)" x1="325.359" y1="1182.08" x2="293.359" y2="1182.08" style="stroke:#009af9; stroke-width:4; stroke-opacity:1"/>
<line clip-path="url(#clip742)" x1="656.006" y1="1510.15" x2="624.006" y2="1510.15" style="stroke:#009af9; stroke-width:4; stroke-opacity:1"/>
<line clip-path="url(#clip742)" x1="656.006" y1="1046.05" x2="624.006" y2="1046.05" style="stroke:#009af9; stroke-width:4; stroke-opacity:1"/>
<line clip-path="url(#clip742)" x1="986.653" y1="1310.11" x2="954.653" y2="1310.11" style="stroke:#009af9; stroke-width:4; stroke-opacity:1"/>
<line clip-path="url(#clip742)" x1="986.653" y1="1014.04" x2="954.653" y2="1014.04" style="stroke:#009af9; stroke-width:4; stroke-opacity:1"/>
<line clip-path="url(#clip742)" x1="1317.3" y1="1278.1" x2="1285.3" y2="1278.1" style="stroke:#009af9; stroke-width:4; stroke-opacity:1"/>
<line clip-path="url(#clip742)" x1="1317.3" y1="854.011" x2="1285.3" y2="854.011" style="stroke:#009af9; stroke-width:4; stroke-opacity:1"/>
<line clip-path="url(#clip742)" x1="1647.95" y1="1046.05" x2="1615.95" y2="1046.05" style="stroke:#009af9; stroke-width:4; stroke-opacity:1"/>
<line clip-path="url(#clip742)" x1="1647.95" y1="789.998" x2="1615.95" y2="789.998" style="stroke:#009af9; stroke-width:4; stroke-opacity:1"/>
<line clip-path="url(#clip742)" x1="1978.59" y1="785.997" x2="1946.59" y2="785.997" style="stroke:#009af9; stroke-width:4; stroke-opacity:1"/>
<line clip-path="url(#clip742)" x1="1978.59" y1="441.926" x2="1946.59" y2="441.926" style="stroke:#009af9; stroke-width:4; stroke-opacity:1"/>
<line clip-path="url(#clip742)" x1="2309.24" y1="1050.05" x2="2277.24" y2="1050.05" style="stroke:#009af9; stroke-width:4; stroke-opacity:1"/>
<line clip-path="url(#clip742)" x1="2309.24" y1="89.8529" x2="2277.24" y2="89.8529" style="stroke:#009af9; stroke-width:4; stroke-opacity:1"/>
<circle clip-path="url(#clip742)" cx="309.359" cy="1338.11" r="14.4" fill="#009af9" fill-rule="evenodd" fill-opacity="1" stroke="none"/>
<circle clip-path="url(#clip742)" cx="640.006" cy="1278.1" r="14.4" fill="#009af9" fill-rule="evenodd" fill-opacity="1" stroke="none"/>
<circle clip-path="url(#clip742)" cx="970.653" cy="1162.07" r="14.4" fill="#009af9" fill-rule="evenodd" fill-opacity="1" stroke="none"/>
<circle clip-path="url(#clip742)" cx="1301.3" cy="1066.06" r="14.4" fill="#009af9" fill-rule="evenodd" fill-opacity="1" stroke="none"/>
<circle clip-path="url(#clip742)" cx="1631.95" cy="918.024" r="14.4" fill="#009af9" fill-rule="evenodd" fill-opacity="1" stroke="none"/>
<circle clip-path="url(#clip742)" cx="1962.59" cy="613.961" r="14.4" fill="#009af9" fill-rule="evenodd" fill-opacity="1" stroke="none"/>
<circle clip-path="url(#clip742)" cx="2293.24" cy="569.952" r="14.4" fill="#009af9" fill-rule="evenodd" fill-opacity="1" stroke="none"/>
<path clip-path="url(#clip742)" d="M309.359 1453.89 L640.006 1453.89 L970.653 1453.89 L1301.3 1453.89 L1631.95 1453.89 L1962.59 1453.89 L2293.24 1453.89 L2293.24 1153.5 L1962.59 1153.5 L1631.95 1153.5 L1301.3 1153.5 L970.653 1153.5 L640.006 1153.5 L309.359 1153.5  Z" fill="#e26f46" fill-rule="evenodd" fill-opacity="0.6"/>
<polyline clip-path="url(#clip742)" style="stroke:#e26f46; stroke-linecap:round; stroke-linejoin:round; stroke-width:4; stroke-opacity:0; fill:none" points="309.359,1453.89 640.006,1453.89 970.653,1453.89 1301.3,1453.89 1631.95,1453.89 1962.59,1453.89 2293.24,1453.89 "/>
<polyline clip-path="url(#clip742)" style="stroke:#000000; stroke-linecap:round; stroke-linejoin:round; stroke-width:4; stroke-opacity:1; fill:none" stroke-dasharray="2, 4" points="309.359,1288.92 640.006,1288.92 970.653,1288.92 1301.3,1288.92 1631.95,1288.92 1962.59,1288.92 2293.24,1288.92 "/>
<path clip-path="url(#clip740)" d="M319.94 252.948 L1295.94 252.948 L1295.94 97.4278 L319.94 97.4278  Z" fill="#ffffff" fill-rule="evenodd" fill-opacity="1"/>
<polyline clip-path="url(#clip740)" style="stroke:#ffffff; stroke-linecap:round; stroke-linejoin:round; stroke-width:4; stroke-opacity:1; fill:none" points="319.94,252.948 1295.94,252.948 1295.94,97.4278 319.94,97.4278 319.94,252.948 "/>
<circle clip-path="url(#clip740)" cx="413.403" cy="149.268" r="20.48" fill="#009af9" fill-rule="evenodd" fill-opacity="1" stroke="none"/>
<path clip-path="url(#clip740)" d="M511.542 135.83 L511.542 162.705 L517.19 162.705 Q524.342 162.705 527.653 159.465 Q530.986 156.224 530.986 149.233 Q530.986 142.289 527.653 139.071 Q524.342 135.83 517.19 135.83 L511.542 135.83 M506.866 131.988 L516.472 131.988 Q526.518 131.988 531.217 136.178 Q535.916 140.344 535.916 149.233 Q535.916 158.168 531.194 162.358 Q526.472 166.548 516.472 166.548 L506.866 166.548 L506.866 131.988 Z" fill="#000000" fill-rule="nonzero" fill-opacity="1" /><path clip-path="url(#clip740)" d="M554.967 153.515 Q549.805 153.515 547.815 154.696 Q545.824 155.877 545.824 158.724 Q545.824 160.992 547.305 162.335 Q548.81 163.654 551.379 163.654 Q554.921 163.654 557.051 161.154 Q559.203 158.631 559.203 154.465 L559.203 153.515 L554.967 153.515 M563.463 151.756 L563.463 166.548 L559.203 166.548 L559.203 162.613 Q557.745 164.974 555.569 166.108 Q553.393 167.219 550.245 167.219 Q546.264 167.219 543.902 164.997 Q541.565 162.752 541.565 159.002 Q541.565 154.627 544.481 152.404 Q547.421 150.182 553.231 150.182 L559.203 150.182 L559.203 149.766 Q559.203 146.826 557.259 145.228 Q555.338 143.608 551.842 143.608 Q549.62 143.608 547.514 144.141 Q545.407 144.673 543.463 145.738 L543.463 141.803 Q545.801 140.9 548 140.46 Q550.199 139.997 552.282 139.997 Q557.907 139.997 560.685 142.914 Q563.463 145.83 563.463 151.756 Z" fill="#000000" fill-rule="nonzero" fill-opacity="1" /><path clip-path="url(#clip740)" d="M576.449 133.261 L576.449 140.622 L585.222 140.622 L585.222 143.932 L576.449 143.932 L576.449 158.006 Q576.449 161.177 577.305 162.08 Q578.185 162.983 580.847 162.983 L585.222 162.983 L585.222 166.548 L580.847 166.548 Q575.916 166.548 574.041 164.719 Q572.166 162.867 572.166 158.006 L572.166 143.932 L569.041 143.932 L569.041 140.622 L572.166 140.622 L572.166 133.261 L576.449 133.261 Z" fill="#000000" fill-rule="nonzero" fill-opacity="1" /><path clip-path="url(#clip740)" d="M602.606 153.515 Q597.444 153.515 595.453 154.696 Q593.462 155.877 593.462 158.724 Q593.462 160.992 594.944 162.335 Q596.449 163.654 599.018 163.654 Q602.56 163.654 604.689 161.154 Q606.842 158.631 606.842 154.465 L606.842 153.515 L602.606 153.515 M611.101 151.756 L611.101 166.548 L606.842 166.548 L606.842 162.613 Q605.384 164.974 603.208 166.108 Q601.032 167.219 597.884 167.219 Q593.902 167.219 591.541 164.997 Q589.203 162.752 589.203 159.002 Q589.203 154.627 592.12 152.404 Q595.06 150.182 600.87 150.182 L606.842 150.182 L606.842 149.766 Q606.842 146.826 604.898 145.228 Q602.976 143.608 599.481 143.608 Q597.259 143.608 595.152 144.141 Q593.046 144.673 591.101 145.738 L591.101 141.803 Q593.439 140.9 595.638 140.46 Q597.837 139.997 599.921 139.997 Q605.546 139.997 608.323 142.914 Q611.101 145.83 611.101 151.756 Z" fill="#000000" fill-rule="nonzero" fill-opacity="1" /><path clip-path="url(#clip740)" d="M645.175 130.576 Q642.073 135.9 640.569 141.108 Q639.064 146.316 639.064 151.664 Q639.064 157.011 640.569 162.265 Q642.096 167.497 645.175 172.798 L641.471 172.798 Q637.999 167.358 636.263 162.103 Q634.55 156.849 634.55 151.664 Q634.55 146.502 636.263 141.27 Q637.976 136.039 641.471 130.576 L645.175 130.576 Z" fill="#000000" fill-rule="nonzero" fill-opacity="1" /><path clip-path="url(#clip740)" d="M663.485 143.608 Q660.059 143.608 658.069 146.293 Q656.078 148.955 656.078 153.608 Q656.078 158.261 658.045 160.946 Q660.036 163.608 663.485 163.608 Q666.888 163.608 668.879 160.923 Q670.869 158.238 670.869 153.608 Q670.869 149.002 668.879 146.316 Q666.888 143.608 663.485 143.608 M663.485 139.997 Q669.041 139.997 672.212 143.608 Q675.383 147.219 675.383 153.608 Q675.383 159.974 672.212 163.608 Q669.041 167.219 663.485 167.219 Q657.907 167.219 654.735 163.608 Q651.587 159.974 651.587 153.608 Q651.587 147.219 654.735 143.608 Q657.907 139.997 663.485 139.997 Z" fill="#000000" fill-rule="nonzero" fill-opacity="1" /><path clip-path="url(#clip740)" d="M701.054 153.608 Q701.054 148.909 699.11 146.247 Q697.189 143.562 693.809 143.562 Q690.429 143.562 688.485 146.247 Q686.564 148.909 686.564 153.608 Q686.564 158.307 688.485 160.992 Q690.429 163.654 693.809 163.654 Q697.189 163.654 699.11 160.992 Q701.054 158.307 701.054 153.608 M686.564 144.557 Q687.906 142.242 689.943 141.131 Q692.004 139.997 694.851 139.997 Q699.573 139.997 702.513 143.747 Q705.476 147.497 705.476 153.608 Q705.476 159.719 702.513 163.469 Q699.573 167.219 694.851 167.219 Q692.004 167.219 689.943 166.108 Q687.906 164.974 686.564 162.659 L686.564 166.548 L682.281 166.548 L682.281 130.529 L686.564 130.529 L686.564 144.557 Z" fill="#000000" fill-rule="nonzero" fill-opacity="1" /><path clip-path="url(#clip740)" d="M729.064 141.386 L729.064 145.414 Q727.258 144.488 725.314 144.025 Q723.369 143.562 721.286 143.562 Q718.115 143.562 716.517 144.534 Q714.943 145.506 714.943 147.451 Q714.943 148.932 716.077 149.789 Q717.212 150.622 720.638 151.386 L722.096 151.71 Q726.633 152.682 728.531 154.465 Q730.452 156.224 730.452 159.395 Q730.452 163.006 727.582 165.113 Q724.735 167.219 719.735 167.219 Q717.652 167.219 715.383 166.802 Q713.138 166.409 710.638 165.599 L710.638 161.201 Q712.999 162.427 715.29 163.052 Q717.582 163.654 719.827 163.654 Q722.837 163.654 724.457 162.636 Q726.077 161.594 726.077 159.719 Q726.077 157.983 724.897 157.057 Q723.739 156.131 719.781 155.275 L718.3 154.928 Q714.341 154.094 712.582 152.381 Q710.823 150.645 710.823 147.636 Q710.823 143.978 713.415 141.988 Q716.008 139.997 720.777 139.997 Q723.138 139.997 725.221 140.344 Q727.304 140.691 729.064 141.386 Z" fill="#000000" fill-rule="nonzero" fill-opacity="1" /><path clip-path="url(#clip740)" d="M759.411 152.52 L759.411 154.603 L739.827 154.603 Q740.105 159.002 742.466 161.316 Q744.85 163.608 749.087 163.608 Q751.54 163.608 753.832 163.006 Q756.147 162.404 758.415 161.201 L758.415 165.228 Q756.124 166.201 753.716 166.71 Q751.309 167.219 748.832 167.219 Q742.628 167.219 738.994 163.608 Q735.383 159.997 735.383 153.84 Q735.383 147.474 738.809 143.747 Q742.258 139.997 748.091 139.997 Q753.323 139.997 756.355 143.377 Q759.411 146.733 759.411 152.52 M755.151 151.27 Q755.105 147.775 753.184 145.691 Q751.286 143.608 748.138 143.608 Q744.573 143.608 742.42 145.622 Q740.29 147.636 739.966 151.293 L755.151 151.27 Z" fill="#000000" fill-rule="nonzero" fill-opacity="1" /><path clip-path="url(#clip740)" d="M781.424 144.603 Q780.707 144.187 779.85 144.002 Q779.017 143.793 777.998 143.793 Q774.387 143.793 772.443 146.154 Q770.522 148.492 770.522 152.89 L770.522 166.548 L766.239 166.548 L766.239 140.622 L770.522 140.622 L770.522 144.65 Q771.864 142.289 774.017 141.154 Q776.17 139.997 779.248 139.997 Q779.688 139.997 780.221 140.066 Q780.753 140.113 781.401 140.229 L781.424 144.603 Z" fill="#000000" fill-rule="nonzero" fill-opacity="1" /><path clip-path="url(#clip740)" d="M782.836 140.622 L787.35 140.622 L795.452 162.381 L803.554 140.622 L808.068 140.622 L798.346 166.548 L792.559 166.548 L782.836 140.622 Z" fill="#000000" fill-rule="nonzero" fill-opacity="1" /><path clip-path="url(#clip740)" d="M836.123 152.52 L836.123 154.603 L816.54 154.603 Q816.818 159.002 819.179 161.316 Q821.563 163.608 825.799 163.608 Q828.253 163.608 830.544 163.006 Q832.859 162.404 835.128 161.201 L835.128 165.228 Q832.836 166.201 830.429 166.71 Q828.021 167.219 825.544 167.219 Q819.341 167.219 815.707 163.608 Q812.095 159.997 812.095 153.84 Q812.095 147.474 815.521 143.747 Q818.97 139.997 824.804 139.997 Q830.035 139.997 833.068 143.377 Q836.123 146.733 836.123 152.52 M831.864 151.27 Q831.818 147.775 829.896 145.691 Q827.998 143.608 824.85 143.608 Q821.285 143.608 819.132 145.622 Q817.003 147.636 816.679 151.293 L831.864 151.27 Z" fill="#000000" fill-rule="nonzero" fill-opacity="1" /><path clip-path="url(#clip740)" d="M860.174 144.557 L860.174 130.529 L864.433 130.529 L864.433 166.548 L860.174 166.548 L860.174 162.659 Q858.831 164.974 856.771 166.108 Q854.734 167.219 851.864 167.219 Q847.165 167.219 844.202 163.469 Q841.262 159.719 841.262 153.608 Q841.262 147.497 844.202 143.747 Q847.165 139.997 851.864 139.997 Q854.734 139.997 856.771 141.131 Q858.831 142.242 860.174 144.557 M845.66 153.608 Q845.66 158.307 847.581 160.992 Q849.526 163.654 852.905 163.654 Q856.285 163.654 858.23 160.992 Q860.174 158.307 860.174 153.608 Q860.174 148.909 858.23 146.247 Q856.285 143.562 852.905 143.562 Q849.526 143.562 847.581 146.247 Q845.66 148.909 845.66 153.608 Z" fill="#000000" fill-rule="nonzero" fill-opacity="1" /><path clip-path="url(#clip740)" d="M900.058 153.515 Q894.896 153.515 892.905 154.696 Q890.915 155.877 890.915 158.724 Q890.915 160.992 892.396 162.335 Q893.901 163.654 896.47 163.654 Q900.012 163.654 902.141 161.154 Q904.294 158.631 904.294 154.465 L904.294 153.515 L900.058 153.515 M908.553 151.756 L908.553 166.548 L904.294 166.548 L904.294 162.613 Q902.836 164.974 900.66 166.108 Q898.484 167.219 895.336 167.219 Q891.354 167.219 888.993 164.997 Q886.655 162.752 886.655 159.002 Q886.655 154.627 889.572 152.404 Q892.512 150.182 898.322 150.182 L904.294 150.182 L904.294 149.766 Q904.294 146.826 902.35 145.228 Q900.428 143.608 896.933 143.608 Q894.711 143.608 892.604 144.141 Q890.498 144.673 888.553 145.738 L888.553 141.803 Q890.891 140.9 893.09 140.46 Q895.289 139.997 897.373 139.997 Q902.998 139.997 905.776 142.914 Q908.553 145.83 908.553 151.756 Z" fill="#000000" fill-rule="nonzero" fill-opacity="1" /><path clip-path="url(#clip740)" d="M934.387 153.284 Q934.387 148.654 932.465 146.108 Q930.567 143.562 927.118 143.562 Q923.692 143.562 921.771 146.108 Q919.873 148.654 919.873 153.284 Q919.873 157.89 921.771 160.437 Q923.692 162.983 927.118 162.983 Q930.567 162.983 932.465 160.437 Q934.387 157.89 934.387 153.284 M938.646 163.33 Q938.646 169.951 935.706 173.168 Q932.766 176.409 926.701 176.409 Q924.456 176.409 922.465 176.062 Q920.475 175.738 918.6 175.043 L918.6 170.9 Q920.475 171.918 922.303 172.404 Q924.132 172.89 926.03 172.89 Q930.22 172.89 932.303 170.691 Q934.387 168.515 934.387 164.094 L934.387 161.988 Q933.067 164.279 931.007 165.414 Q928.947 166.548 926.076 166.548 Q921.308 166.548 918.391 162.914 Q915.475 159.279 915.475 153.284 Q915.475 147.266 918.391 143.631 Q921.308 139.997 926.076 139.997 Q928.947 139.997 931.007 141.131 Q933.067 142.266 934.387 144.557 L934.387 140.622 L938.646 140.622 L938.646 163.33 Z" fill="#000000" fill-rule="nonzero" fill-opacity="1" /><path clip-path="url(#clip740)" d="M969.595 152.52 L969.595 154.603 L950.011 154.603 Q950.289 159.002 952.65 161.316 Q955.035 163.608 959.271 163.608 Q961.724 163.608 964.016 163.006 Q966.331 162.404 968.599 161.201 L968.599 165.228 Q966.308 166.201 963.9 166.71 Q961.493 167.219 959.016 167.219 Q952.812 167.219 949.178 163.608 Q945.567 159.997 945.567 153.84 Q945.567 147.474 948.993 143.747 Q952.442 139.997 958.275 139.997 Q963.507 139.997 966.539 143.377 Q969.595 146.733 969.595 152.52 M965.335 151.27 Q965.289 147.775 963.368 145.691 Q961.47 143.608 958.322 143.608 Q954.757 143.608 952.604 145.622 Q950.474 147.636 950.15 151.293 L965.335 151.27 Z" fill="#000000" fill-rule="nonzero" fill-opacity="1" /><path clip-path="url(#clip740)" d="M993.113 141.386 L993.113 145.414 Q991.307 144.488 989.363 144.025 Q987.419 143.562 985.335 143.562 Q982.164 143.562 980.567 144.534 Q978.993 145.506 978.993 147.451 Q978.993 148.932 980.127 149.789 Q981.261 150.622 984.687 151.386 L986.145 151.71 Q990.683 152.682 992.581 154.465 Q994.502 156.224 994.502 159.395 Q994.502 163.006 991.632 165.113 Q988.784 167.219 983.784 167.219 Q981.701 167.219 979.433 166.802 Q977.187 166.409 974.687 165.599 L974.687 161.201 Q977.048 162.427 979.34 163.052 Q981.632 163.654 983.877 163.654 Q986.886 163.654 988.507 162.636 Q990.127 161.594 990.127 159.719 Q990.127 157.983 988.946 157.057 Q987.789 156.131 983.831 155.275 L982.349 154.928 Q978.391 154.094 976.632 152.381 Q974.872 150.645 974.872 147.636 Q974.872 143.978 977.465 141.988 Q980.058 139.997 984.826 139.997 Q987.187 139.997 989.27 140.344 Q991.354 140.691 993.113 141.386 Z" fill="#000000" fill-rule="nonzero" fill-opacity="1" /><path clip-path="url(#clip740)" d="M1000.61 130.576 L1004.32 130.576 Q1007.79 136.039 1009.5 141.27 Q1011.24 146.502 1011.24 151.664 Q1011.24 156.849 1009.5 162.103 Q1007.79 167.358 1004.32 172.798 L1000.61 172.798 Q1003.69 167.497 1005.2 162.265 Q1006.72 157.011 1006.72 151.664 Q1006.72 146.316 1005.2 141.108 Q1003.69 135.9 1000.61 130.576 Z" fill="#000000" fill-rule="nonzero" fill-opacity="1" /><path clip-path="url(#clip740)" d="M343.306 221.844 L483.5 221.844 L483.5 180.372 L343.306 180.372 L343.306 221.844  Z" fill="#e26f46" fill-rule="evenodd" fill-opacity="0.6"/>
<polyline clip-path="url(#clip740)" style="stroke:#e26f46; stroke-linecap:round; stroke-linejoin:round; stroke-width:4; stroke-opacity:0; fill:none" points="343.306,180.372 483.5,180.372 "/>
<path clip-path="url(#clip740)" d="M506.866 183.828 L513.833 183.828 L522.653 207.346 L531.518 183.828 L538.486 183.828 L538.486 218.388 L533.926 218.388 L533.926 188.041 L525.014 211.744 L520.315 211.744 L511.403 188.041 L511.403 218.388 L506.866 218.388 L506.866 183.828 Z" fill="#000000" fill-rule="nonzero" fill-opacity="1" /><path clip-path="url(#clip740)" d="M557.629 195.448 Q554.203 195.448 552.213 198.133 Q550.222 200.795 550.222 205.448 Q550.222 210.101 552.189 212.786 Q554.18 215.448 557.629 215.448 Q561.032 215.448 563.023 212.763 Q565.013 210.078 565.013 205.448 Q565.013 200.842 563.023 198.156 Q561.032 195.448 557.629 195.448 M557.629 191.837 Q563.185 191.837 566.356 195.448 Q569.527 199.059 569.527 205.448 Q569.527 211.814 566.356 215.448 Q563.185 219.059 557.629 219.059 Q552.051 219.059 548.879 215.448 Q545.731 211.814 545.731 205.448 Q545.731 199.059 548.879 195.448 Q552.051 191.837 557.629 191.837 Z" fill="#000000" fill-rule="nonzero" fill-opacity="1" /><path clip-path="url(#clip740)" d="M593.648 196.397 L593.648 182.369 L597.907 182.369 L597.907 218.388 L593.648 218.388 L593.648 214.499 Q592.305 216.814 590.245 217.948 Q588.208 219.059 585.337 219.059 Q580.638 219.059 577.675 215.309 Q574.736 211.559 574.736 205.448 Q574.736 199.337 577.675 195.587 Q580.638 191.837 585.337 191.837 Q588.208 191.837 590.245 192.971 Q592.305 194.082 593.648 196.397 M579.134 205.448 Q579.134 210.147 581.055 212.832 Q583 215.494 586.379 215.494 Q589.759 215.494 591.703 212.832 Q593.648 210.147 593.648 205.448 Q593.648 200.749 591.703 198.087 Q589.759 195.402 586.379 195.402 Q583 195.402 581.055 198.087 Q579.134 200.749 579.134 205.448 Z" fill="#000000" fill-rule="nonzero" fill-opacity="1" /><path clip-path="url(#clip740)" d="M628.856 204.36 L628.856 206.443 L609.273 206.443 Q609.55 210.842 611.911 213.156 Q614.296 215.448 618.532 215.448 Q620.985 215.448 623.277 214.846 Q625.592 214.244 627.86 213.041 L627.86 217.068 Q625.569 218.041 623.161 218.55 Q620.754 219.059 618.277 219.059 Q612.073 219.059 608.439 215.448 Q604.828 211.837 604.828 205.68 Q604.828 199.314 608.254 195.587 Q611.703 191.837 617.536 191.837 Q622.768 191.837 625.8 195.217 Q628.856 198.573 628.856 204.36 M624.597 203.11 Q624.55 199.615 622.629 197.531 Q620.731 195.448 617.583 195.448 Q614.018 195.448 611.865 197.462 Q609.735 199.476 609.411 203.133 L624.597 203.11 Z" fill="#000000" fill-rule="nonzero" fill-opacity="1" /><path clip-path="url(#clip740)" d="M635.846 182.369 L640.106 182.369 L640.106 218.388 L635.846 218.388 L635.846 182.369 Z" fill="#000000" fill-rule="nonzero" fill-opacity="1" /><path clip-path="url(#clip740)" d="M674.318 182.416 Q671.217 187.74 669.712 192.948 Q668.207 198.156 668.207 203.504 Q668.207 208.851 669.712 214.105 Q671.24 219.337 674.318 224.638 L670.615 224.638 Q667.143 219.198 665.406 213.943 Q663.694 208.689 663.694 203.504 Q663.694 198.342 665.406 193.11 Q667.119 187.879 670.615 182.416 L674.318 182.416 Z" fill="#000000" fill-rule="nonzero" fill-opacity="1" /><path clip-path="url(#clip740)" d="M693.763 199.244 Q690.615 199.244 688.763 201.397 Q686.934 203.55 686.934 207.3 Q686.934 211.027 688.763 213.203 Q690.615 215.355 693.763 215.355 Q696.911 215.355 698.74 213.203 Q700.591 211.027 700.591 207.3 Q700.591 203.55 698.74 201.397 Q696.911 199.244 693.763 199.244 M703.045 184.592 L703.045 188.851 Q701.286 188.018 699.48 187.578 Q697.698 187.138 695.939 187.138 Q691.309 187.138 688.855 190.263 Q686.425 193.388 686.078 199.707 Q687.443 197.693 689.504 196.629 Q691.564 195.541 694.041 195.541 Q699.249 195.541 702.258 198.712 Q705.291 201.86 705.291 207.3 Q705.291 212.624 702.142 215.842 Q698.994 219.059 693.763 219.059 Q687.767 219.059 684.596 214.476 Q681.425 209.869 681.425 201.143 Q681.425 192.948 685.314 188.087 Q689.203 183.203 695.754 183.203 Q697.513 183.203 699.295 183.55 Q701.101 183.897 703.045 184.592 Z" fill="#000000" fill-rule="nonzero" fill-opacity="1" /><path clip-path="url(#clip740)" d="M723.925 199.244 Q720.777 199.244 718.925 201.397 Q717.096 203.55 717.096 207.3 Q717.096 211.027 718.925 213.203 Q720.777 215.355 723.925 215.355 Q727.073 215.355 728.901 213.203 Q730.753 211.027 730.753 207.3 Q730.753 203.55 728.901 201.397 Q727.073 199.244 723.925 199.244 M733.207 184.592 L733.207 188.851 Q731.448 188.018 729.642 187.578 Q727.86 187.138 726.101 187.138 Q721.471 187.138 719.017 190.263 Q716.587 193.388 716.24 199.707 Q717.605 197.693 719.665 196.629 Q721.726 195.541 724.202 195.541 Q729.411 195.541 732.42 198.712 Q735.452 201.86 735.452 207.3 Q735.452 212.624 732.304 215.842 Q729.156 219.059 723.925 219.059 Q717.929 219.059 714.758 214.476 Q711.587 209.869 711.587 201.143 Q711.587 192.948 715.476 188.087 Q719.365 183.203 725.915 183.203 Q727.675 183.203 729.457 183.55 Q731.263 183.897 733.207 184.592 Z" fill="#000000" fill-rule="nonzero" fill-opacity="1" /><path clip-path="url(#clip740)" d="M743.508 212.508 L748.392 212.508 L748.392 218.388 L743.508 218.388 L743.508 212.508 Z" fill="#000000" fill-rule="nonzero" fill-opacity="1" /><path clip-path="url(#clip740)" d="M762.605 214.453 L778.924 214.453 L778.924 218.388 L756.98 218.388 L756.98 214.453 Q759.642 211.698 764.225 207.068 Q768.832 202.416 770.012 201.073 Q772.258 198.55 773.137 196.814 Q774.04 195.055 774.04 193.365 Q774.04 190.61 772.096 188.874 Q770.174 187.138 767.073 187.138 Q764.874 187.138 762.42 187.902 Q759.989 188.666 757.212 190.217 L757.212 185.494 Q760.036 184.36 762.489 183.782 Q764.943 183.203 766.98 183.203 Q772.35 183.203 775.545 185.888 Q778.739 188.573 778.739 193.064 Q778.739 195.194 777.929 197.115 Q777.142 199.013 775.036 201.606 Q774.457 202.277 771.355 205.494 Q768.253 208.689 762.605 214.453 Z" fill="#000000" fill-rule="nonzero" fill-opacity="1" /><path clip-path="url(#clip740)" d="M788.878 217.67 L788.878 213.411 Q790.637 214.244 792.443 214.684 Q794.248 215.124 795.984 215.124 Q800.614 215.124 803.045 212.022 Q805.498 208.897 805.846 202.555 Q804.503 204.545 802.443 205.61 Q800.383 206.675 797.883 206.675 Q792.697 206.675 789.665 203.55 Q786.656 200.402 786.656 194.962 Q786.656 189.638 789.804 186.42 Q792.952 183.203 798.184 183.203 Q804.179 183.203 807.327 187.809 Q810.498 192.393 810.498 201.143 Q810.498 209.314 806.609 214.198 Q802.744 219.059 796.193 219.059 Q794.434 219.059 792.628 218.712 Q790.822 218.365 788.878 217.67 M798.184 203.018 Q801.332 203.018 803.16 200.865 Q805.012 198.712 805.012 194.962 Q805.012 191.235 803.16 189.082 Q801.332 186.907 798.184 186.907 Q795.035 186.907 793.184 189.082 Q791.355 191.235 791.355 194.962 Q791.355 198.712 793.184 200.865 Q795.035 203.018 798.184 203.018 Z" fill="#000000" fill-rule="nonzero" fill-opacity="1" /><path clip-path="url(#clip740)" d="M850.706 188.666 L850.706 201.559 L863.6 201.559 L863.6 205.494 L850.706 205.494 L850.706 218.388 L846.818 218.388 L846.818 205.494 L833.924 205.494 L833.924 201.559 L846.818 201.559 L846.818 188.666 L850.706 188.666 Z" fill="#000000" fill-rule="nonzero" fill-opacity="1" /><path clip-path="url(#clip740)" d="M883.692 186.907 Q880.081 186.907 878.253 190.471 Q876.447 194.013 876.447 201.143 Q876.447 208.249 878.253 211.814 Q880.081 215.355 883.692 215.355 Q887.327 215.355 889.132 211.814 Q890.961 208.249 890.961 201.143 Q890.961 194.013 889.132 190.471 Q887.327 186.907 883.692 186.907 M883.692 183.203 Q889.502 183.203 892.558 187.809 Q895.637 192.393 895.637 201.143 Q895.637 209.869 892.558 214.476 Q889.502 219.059 883.692 219.059 Q877.882 219.059 874.803 214.476 Q871.748 209.869 871.748 201.143 Q871.748 192.393 874.803 187.809 Q877.882 183.203 883.692 183.203 Z" fill="#000000" fill-rule="nonzero" fill-opacity="1" /><path clip-path="url(#clip740)" d="M903.854 212.508 L908.738 212.508 L908.738 218.388 L903.854 218.388 L903.854 212.508 Z" fill="#000000" fill-rule="nonzero" fill-opacity="1" /><path clip-path="url(#clip740)" d="M928.924 186.907 Q925.312 186.907 923.484 190.471 Q921.678 194.013 921.678 201.143 Q921.678 208.249 923.484 211.814 Q925.312 215.355 928.924 215.355 Q932.558 215.355 934.363 211.814 Q936.192 208.249 936.192 201.143 Q936.192 194.013 934.363 190.471 Q932.558 186.907 928.924 186.907 M928.924 183.203 Q934.734 183.203 937.789 187.809 Q940.868 192.393 940.868 201.143 Q940.868 209.869 937.789 214.476 Q934.734 219.059 928.924 219.059 Q923.113 219.059 920.035 214.476 Q916.979 209.869 916.979 201.143 Q916.979 192.393 920.035 187.809 Q923.113 183.203 928.924 183.203 Z" fill="#000000" fill-rule="nonzero" fill-opacity="1" /><path clip-path="url(#clip740)" d="M963.252 199.754 Q966.609 200.471 968.484 202.74 Q970.382 205.008 970.382 208.342 Q970.382 213.457 966.863 216.258 Q963.345 219.059 956.863 219.059 Q954.687 219.059 952.373 218.619 Q950.081 218.203 947.627 217.346 L947.627 212.832 Q949.572 213.967 951.886 214.545 Q954.201 215.124 956.724 215.124 Q961.122 215.124 963.414 213.388 Q965.729 211.652 965.729 208.342 Q965.729 205.286 963.576 203.573 Q961.447 201.837 957.627 201.837 L953.599 201.837 L953.599 197.994 L957.812 197.994 Q961.261 197.994 963.09 196.629 Q964.919 195.24 964.919 192.647 Q964.919 189.985 963.021 188.573 Q961.146 187.138 957.627 187.138 Q955.706 187.138 953.507 187.555 Q951.308 187.971 948.669 188.851 L948.669 184.684 Q951.331 183.944 953.646 183.573 Q955.984 183.203 958.044 183.203 Q963.368 183.203 966.47 185.633 Q969.572 188.041 969.572 192.161 Q969.572 195.031 967.928 197.022 Q966.284 198.99 963.252 199.754 Z" fill="#000000" fill-rule="nonzero" fill-opacity="1" /><path clip-path="url(#clip740)" d="M992.095 187.902 L980.289 206.351 L992.095 206.351 L992.095 187.902 M990.868 183.828 L996.747 183.828 L996.747 206.351 L1001.68 206.351 L1001.68 210.24 L996.747 210.24 L996.747 218.388 L992.095 218.388 L992.095 210.24 L976.493 210.24 L976.493 205.726 L990.868 183.828 Z" fill="#000000" fill-rule="nonzero" fill-opacity="1" /><path clip-path="url(#clip740)" d="M1016.38 183.828 L1020.31 183.828 L1008.28 222.786 L1004.34 222.786 L1016.38 183.828 Z" fill="#000000" fill-rule="nonzero" fill-opacity="1" /><path clip-path="url(#clip740)" d="M1022.63 203.504 L1035.1 203.504 L1035.1 207.3 L1022.63 207.3 L1022.63 203.504 Z" fill="#000000" fill-rule="nonzero" fill-opacity="1" /><path clip-path="url(#clip740)" d="M1052.49 186.907 Q1048.88 186.907 1047.05 190.471 Q1045.24 194.013 1045.24 201.143 Q1045.24 208.249 1047.05 211.814 Q1048.88 215.355 1052.49 215.355 Q1056.12 215.355 1057.93 211.814 Q1059.76 208.249 1059.76 201.143 Q1059.76 194.013 1057.93 190.471 Q1056.12 186.907 1052.49 186.907 M1052.49 183.203 Q1058.3 183.203 1061.35 187.809 Q1064.43 192.393 1064.43 201.143 Q1064.43 209.869 1061.35 214.476 Q1058.3 219.059 1052.49 219.059 Q1046.68 219.059 1043.6 214.476 Q1040.54 209.869 1040.54 201.143 Q1040.54 192.393 1043.6 187.809 Q1046.68 183.203 1052.49 183.203 Z" fill="#000000" fill-rule="nonzero" fill-opacity="1" /><path clip-path="url(#clip740)" d="M1072.65 212.508 L1077.53 212.508 L1077.53 218.388 L1072.65 218.388 L1072.65 212.508 Z" fill="#000000" fill-rule="nonzero" fill-opacity="1" /><path clip-path="url(#clip740)" d="M1097.72 186.907 Q1094.11 186.907 1092.28 190.471 Q1090.47 194.013 1090.47 201.143 Q1090.47 208.249 1092.28 211.814 Q1094.11 215.355 1097.72 215.355 Q1101.35 215.355 1103.16 211.814 Q1104.99 208.249 1104.99 201.143 Q1104.99 194.013 1103.16 190.471 Q1101.35 186.907 1097.72 186.907 M1097.72 183.203 Q1103.53 183.203 1106.58 187.809 Q1109.66 192.393 1109.66 201.143 Q1109.66 209.869 1106.58 214.476 Q1103.53 219.059 1097.72 219.059 Q1091.91 219.059 1088.83 214.476 Q1085.77 209.869 1085.77 201.143 Q1085.77 192.393 1088.83 187.809 Q1091.91 183.203 1097.72 183.203 Z" fill="#000000" fill-rule="nonzero" fill-opacity="1" /><path clip-path="url(#clip740)" d="M1130.73 187.902 L1118.92 206.351 L1130.73 206.351 L1130.73 187.902 M1129.5 183.828 L1135.38 183.828 L1135.38 206.351 L1140.31 206.351 L1140.31 210.24 L1135.38 210.24 L1135.38 218.388 L1130.73 218.388 L1130.73 210.24 L1115.13 210.24 L1115.13 205.726 L1129.5 183.828 Z" fill="#000000" fill-rule="nonzero" fill-opacity="1" /><path clip-path="url(#clip740)" d="M1148.85 214.453 L1156.49 214.453 L1156.49 188.087 L1148.18 189.754 L1148.18 185.494 L1156.45 183.828 L1161.12 183.828 L1161.12 214.453 L1168.76 214.453 L1168.76 218.388 L1148.85 218.388 L1148.85 214.453 Z" fill="#000000" fill-rule="nonzero" fill-opacity="1" /><path clip-path="url(#clip740)" d="M1192.86 183.828 L1199.82 183.828 L1208.64 207.346 L1217.51 183.828 L1224.48 183.828 L1224.48 218.388 L1219.92 218.388 L1219.92 188.041 L1211.01 211.744 L1206.31 211.744 L1197.39 188.041 L1197.39 218.388 L1192.86 218.388 L1192.86 183.828 Z" fill="#000000" fill-rule="nonzero" fill-opacity="1" /><path clip-path="url(#clip740)" d="M1245.36 205.355 Q1240.2 205.355 1238.2 206.536 Q1236.21 207.717 1236.21 210.564 Q1236.21 212.832 1237.7 214.175 Q1239.2 215.494 1241.77 215.494 Q1245.31 215.494 1247.44 212.994 Q1249.59 210.471 1249.59 206.305 L1249.59 205.355 L1245.36 205.355 M1253.85 203.596 L1253.85 218.388 L1249.59 218.388 L1249.59 214.453 Q1248.13 216.814 1245.96 217.948 Q1243.78 219.059 1240.63 219.059 Q1236.65 219.059 1234.29 216.837 Q1231.95 214.592 1231.95 210.842 Q1231.95 206.467 1234.87 204.244 Q1237.81 202.022 1243.62 202.022 L1249.59 202.022 L1249.59 201.606 Q1249.59 198.666 1247.65 197.068 Q1245.73 195.448 1242.23 195.448 Q1240.01 195.448 1237.9 195.981 Q1235.8 196.513 1233.85 197.578 L1233.85 193.643 Q1236.19 192.74 1238.39 192.3 Q1240.59 191.837 1242.67 191.837 Q1248.3 191.837 1251.07 194.754 Q1253.85 197.67 1253.85 203.596 Z" fill="#000000" fill-rule="nonzero" fill-opacity="1" /><path clip-path="url(#clip740)" d="M1261.95 182.416 L1265.66 182.416 Q1269.13 187.879 1270.84 193.11 Q1272.58 198.342 1272.58 203.504 Q1272.58 208.689 1270.84 213.943 Q1269.13 219.198 1265.66 224.638 L1261.95 224.638 Q1265.03 219.337 1266.54 214.105 Q1268.07 208.851 1268.07 203.504 Q1268.07 198.156 1266.54 192.948 Q1265.03 187.74 1261.95 182.416 Z" fill="#000000" fill-rule="nonzero" fill-opacity="1" /></svg>
