<?xml version="1.0" encoding="utf-8"?>
<svg xmlns="http://www.w3.org/2000/svg" xmlns:xlink="http://www.w3.org/1999/xlink" width="600" height="400" viewBox="0 0 2400 1600">
<defs>
  <clipPath id="clip880">
    <rect x="0" y="0" width="2400" height="1600"/>
  </clipPath>
</defs>
<path clip-path="url(#clip880)" d="M0 1600 L2400 1600 L2400 8.88178e-14 L0 8.88178e-14  Z" fill="#ffffff" fill-rule="evenodd" fill-opacity="1"/>
<defs>
  <clipPath id="clip881">
    <rect x="480" y="0" width="1681" height="1600"/>
  </clipPath>
</defs>
<path clip-path="url(#clip880)" d="M247.459 1423.18 L2352.76 1423.18 L2352.76 47.2441 L247.459 47.2441  Z" fill="#ffffff" fill-rule="evenodd" fill-opacity="1"/>
<defs>
  <clipPath id="clip882">
    <rect x="247" y="47" width="2106" height="1377"/>
  </clipPath>
</defs>
<polyline clip-path="url(#clip882)" style="stroke:#000000; stroke-linecap:round; stroke-linejoin:round; stroke-width:2; stroke-opacity:0.1; fill:none" points="352.301,1423.18 352.301,47.2441 "/>
<polyline clip-path="url(#clip882)" style="stroke:#000000; stroke-linecap:round; stroke-linejoin:round; stroke-width:2; stroke-opacity:0.1; fill:none" points="811.021,1423.18 811.021,47.2441 "/>
<polyline clip-path="url(#clip882)" style="stroke:#000000; stroke-linecap:round; stroke-linejoin:round; stroke-width:2; stroke-opacity:0.1; fill:none" points="1269.74,1423.18 1269.74,47.2441 "/>
<polyline clip-path="url(#clip882)" style="stroke:#000000; stroke-linecap:round; stroke-linejoin:round; stroke-width:2; stroke-opacity:0.1; fill:none" points="1728.46,1423.18 1728.46,47.2441 "/>
<polyline clip-path="url(#clip882)" style="stroke:#000000; stroke-linecap:round; stroke-linejoin:round; stroke-width:2; stroke-opacity:0.1; fill:none" points="2187.18,1423.18 2187.18,47.2441 "/>
<polyline clip-path="url(#clip882)" style="stroke:#000000; stroke-linecap:round; stroke-linejoin:round; stroke-width:2; stroke-opacity:0.1; fill:none" points="352.301,1423.18 352.301,47.2441 "/>
<polyline clip-path="url(#clip882)" style="stroke:#000000; stroke-linecap:round; stroke-linejoin:round; stroke-width:2; stroke-opacity:0.1; fill:none" points="811.021,1423.18 811.021,47.2441 "/>
<polyline clip-path="url(#clip882)" style="stroke:#000000; stroke-linecap:round; stroke-linejoin:round; stroke-width:2; stroke-opacity:0.1; fill:none" points="1269.74,1423.18 1269.74,47.2441 "/>
<polyline clip-path="url(#clip882)" style="stroke:#000000; stroke-linecap:round; stroke-linejoin:round; stroke-width:2; stroke-opacity:0.1; fill:none" points="1728.46,1423.18 1728.46,47.2441 "/>
<polyline clip-path="url(#clip882)" style="stroke:#000000; stroke-linecap:round; stroke-linejoin:round; stroke-width:2; stroke-opacity:0.1; fill:none" points="2187.18,1423.18 2187.18,47.2441 "/>
<polyline clip-path="url(#clip882)" style="stroke:#000000; stroke-linecap:round; stroke-linejoin:round; stroke-width:2; stroke-opacity:0.1; fill:none" points="247.459,1384.25 2352.76,1384.25 "/>
<polyline clip-path="url(#clip882)" style="stroke:#000000; stroke-linecap:round; stroke-linejoin:round; stroke-width:2; stroke-opacity:0.1; fill:none" points="247.459,1089.44 2352.76,1089.44 "/>
<polyline clip-path="url(#clip882)" style="stroke:#000000; stroke-linecap:round; stroke-linejoin:round; stroke-width:2; stroke-opacity:0.1; fill:none" points="247.459,794.64 2352.76,794.64 "/>
<polyline clip-path="url(#clip882)" style="stroke:#000000; stroke-linecap:round; stroke-linejoin:round; stroke-width:2; stroke-opacity:0.1; fill:none" points="247.459,499.836 2352.76,499.836 "/>
<polyline clip-path="url(#clip882)" style="stroke:#000000; stroke-linecap:round; stroke-linejoin:round; stroke-width:2; stroke-opacity:0.1; fill:none" points="247.459,205.033 2352.76,205.033 "/>
<polyline clip-path="url(#clip882)" style="stroke:#000000; stroke-linecap:round; stroke-linejoin:round; stroke-width:2; stroke-opacity:0.1; fill:none" points="247.459,1384.25 2352.76,1384.25 "/>
<polyline clip-path="url(#clip882)" style="stroke:#000000; stroke-linecap:round; stroke-linejoin:round; stroke-width:2; stroke-opacity:0.1; fill:none" points="247.459,1089.44 2352.76,1089.44 "/>
<polyline clip-path="url(#clip882)" style="stroke:#000000; stroke-linecap:round; stroke-linejoin:round; stroke-width:2; stroke-opacity:0.1; fill:none" points="247.459,794.64 2352.76,794.64 "/>
<polyline clip-path="url(#clip882)" style="stroke:#000000; stroke-linecap:round; stroke-linejoin:round; stroke-width:2; stroke-opacity:0.1; fill:none" points="247.459,499.836 2352.76,499.836 "/>
<polyline clip-path="url(#clip882)" style="stroke:#000000; stroke-linecap:round; stroke-linejoin:round; stroke-width:2; stroke-opacity:0.1; fill:none" points="247.459,205.033 2352.76,205.033 "/>
<polyline clip-path="url(#clip880)" style="stroke:#000000; stroke-linecap:round; stroke-linejoin:round; stroke-width:4; stroke-opacity:1; fill:none" points="247.459,1423.18 2352.76,1423.18 "/>
<polyline clip-path="url(#clip880)" style="stroke:#000000; stroke-linecap:round; stroke-linejoin:round; stroke-width:4; stroke-opacity:1; fill:none" points="247.459,47.2441 2352.76,47.2441 "/>
<polyline clip-path="url(#clip880)" style="stroke:#000000; stroke-linecap:round; stroke-linejoin:round; stroke-width:4; stroke-opacity:1; fill:none" points="352.301,1423.18 352.301,1404.28 "/>
<polyline clip-path="url(#clip880)" style="stroke:#000000; stroke-linecap:round; stroke-linejoin:round; stroke-width:4; stroke-opacity:1; fill:none" points="811.021,1423.18 811.021,1404.28 "/>
<polyline clip-path="url(#clip880)" style="stroke:#000000; stroke-linecap:round; stroke-linejoin:round; stroke-width:4; stroke-opacity:1; fill:none" points="1269.74,1423.18 1269.74,1404.28 "/>
<polyline clip-path="url(#clip880)" style="stroke:#000000; stroke-linecap:round; stroke-linejoin:round; stroke-width:4; stroke-opacity:1; fill:none" points="1728.46,1423.18 1728.46,1404.28 "/>
<polyline clip-path="url(#clip880)" style="stroke:#000000; stroke-linecap:round; stroke-linejoin:round; stroke-width:4; stroke-opacity:1; fill:none" points="2187.18,1423.18 2187.18,1404.28 "/>
<polyline clip-path="url(#clip880)" style="stroke:#000000; stroke-linecap:round; stroke-linejoin:round; stroke-width:4; stroke-opacity:1; fill:none" points="352.301,47.2441 352.301,66.1417 "/>
<polyline clip-path="url(#clip880)" style="stroke:#000000; stroke-linecap:round; stroke-linejoin:round; stroke-width:4; stroke-opacity:1; fill:none" points="811.021,47.2441 811.021,66.1417 "/>
<polyline clip-path="url(#clip880)" style="stroke:#000000; stroke-linecap:round; stroke-linejoin:round; stroke-width:4; stroke-opacity:1; fill:none" points="1269.74,47.2441 1269.74,66.1417 "/>
<polyline clip-path="url(#clip880)" style="stroke:#000000; stroke-linecap:round; stroke-linejoin:round; stroke-width:4; stroke-opacity:1; fill:none" points="1728.46,47.2441 1728.46,66.1417 "/>
<polyline clip-path="url(#clip880)" style="stroke:#000000; stroke-linecap:round; stroke-linejoin:round; stroke-width:4; stroke-opacity:1; fill:none" points="2187.18,47.2441 2187.18,66.1417 "/>
<path clip-path="url(#clip880)" d="M315.009 1466.44 Q311.861 1466.44 310.009 1468.59 Q308.181 1470.74 308.181 1474.49 Q308.181 1478.22 310.009 1480.39 Q311.861 1482.55 315.009 1482.55 Q318.157 1482.55 319.986 1480.39 Q321.838 1478.22 321.838 1474.49 Q321.838 1470.74 319.986 1468.59 Q318.157 1466.44 315.009 1466.44 M324.292 1451.78 L324.292 1456.04 Q322.532 1455.21 320.727 1454.77 Q318.944 1454.33 317.185 1454.33 Q312.556 1454.33 310.102 1457.45 Q307.671 1460.58 307.324 1466.9 Q308.69 1464.89 310.75 1463.82 Q312.81 1462.73 315.287 1462.73 Q320.495 1462.73 323.505 1465.9 Q326.537 1469.05 326.537 1474.49 Q326.537 1479.82 323.389 1483.03 Q320.241 1486.25 315.009 1486.25 Q309.014 1486.25 305.843 1481.67 Q302.671 1477.06 302.671 1468.33 Q302.671 1460.14 306.56 1455.28 Q310.449 1450.39 317 1450.39 Q318.759 1450.39 320.542 1450.74 Q322.347 1451.09 324.292 1451.78 Z" fill="#000000" fill-rule="nonzero" fill-opacity="1" /><path clip-path="url(#clip880)" d="M334.639 1451.02 L352.995 1451.02 L352.995 1454.96 L338.921 1454.96 L338.921 1463.43 Q339.94 1463.08 340.958 1462.92 Q341.977 1462.73 342.995 1462.73 Q348.782 1462.73 352.162 1465.9 Q355.541 1469.08 355.541 1474.49 Q355.541 1480.07 352.069 1483.17 Q348.597 1486.25 342.278 1486.25 Q340.102 1486.25 337.833 1485.88 Q335.588 1485.51 333.18 1484.77 L333.18 1480.07 Q335.264 1481.2 337.486 1481.76 Q339.708 1482.32 342.185 1482.32 Q346.19 1482.32 348.528 1480.21 Q350.865 1478.1 350.865 1474.49 Q350.865 1470.88 348.528 1468.77 Q346.19 1466.67 342.185 1466.67 Q340.31 1466.67 338.435 1467.08 Q336.583 1467.5 334.639 1468.38 L334.639 1451.02 Z" fill="#000000" fill-rule="nonzero" fill-opacity="1" /><path clip-path="url(#clip880)" d="M364.754 1479.7 L369.639 1479.7 L369.639 1485.58 L364.754 1485.58 L364.754 1479.7 Z" fill="#000000" fill-rule="nonzero" fill-opacity="1" /><path clip-path="url(#clip880)" d="M390.402 1466.44 Q387.254 1466.44 385.402 1468.59 Q383.574 1470.74 383.574 1474.49 Q383.574 1478.22 385.402 1480.39 Q387.254 1482.55 390.402 1482.55 Q393.55 1482.55 395.379 1480.39 Q397.231 1478.22 397.231 1474.49 Q397.231 1470.74 395.379 1468.59 Q393.55 1466.44 390.402 1466.44 M399.685 1451.78 L399.685 1456.04 Q397.925 1455.21 396.12 1454.77 Q394.337 1454.33 392.578 1454.33 Q387.949 1454.33 385.495 1457.45 Q383.064 1460.58 382.717 1466.9 Q384.083 1464.89 386.143 1463.82 Q388.203 1462.73 390.68 1462.73 Q395.888 1462.73 398.898 1465.9 Q401.93 1469.05 401.93 1474.49 Q401.93 1479.82 398.782 1483.03 Q395.634 1486.25 390.402 1486.25 Q384.407 1486.25 381.236 1481.67 Q378.064 1477.06 378.064 1468.33 Q378.064 1460.14 381.953 1455.28 Q385.842 1450.39 392.393 1450.39 Q394.152 1450.39 395.935 1450.74 Q397.74 1451.09 399.685 1451.78 Z" fill="#000000" fill-rule="nonzero" fill-opacity="1" /><path clip-path="url(#clip880)" d="M773.857 1466.44 Q770.709 1466.44 768.857 1468.59 Q767.029 1470.74 767.029 1474.49 Q767.029 1478.22 768.857 1480.39 Q770.709 1482.55 773.857 1482.55 Q777.005 1482.55 778.834 1480.39 Q780.686 1478.22 780.686 1474.49 Q780.686 1470.74 778.834 1468.59 Q777.005 1466.44 773.857 1466.44 M783.14 1451.78 L783.14 1456.04 Q781.38 1455.21 779.575 1454.77 Q777.792 1454.33 776.033 1454.33 Q771.404 1454.33 768.95 1457.45 Q766.519 1460.58 766.172 1466.9 Q767.538 1464.89 769.598 1463.82 Q771.658 1462.73 774.135 1462.73 Q779.343 1462.73 782.353 1465.9 Q785.385 1469.05 785.385 1474.49 Q785.385 1479.82 782.237 1483.03 Q779.089 1486.25 773.857 1486.25 Q767.862 1486.25 764.691 1481.67 Q761.519 1477.06 761.519 1468.33 Q761.519 1460.14 765.408 1455.28 Q769.297 1450.39 775.848 1450.39 Q777.607 1450.39 779.39 1450.74 Q781.195 1451.09 783.14 1451.78 Z" fill="#000000" fill-rule="nonzero" fill-opacity="1" /><path clip-path="url(#clip880)" d="M793.487 1451.02 L811.843 1451.02 L811.843 1454.96 L797.769 1454.96 L797.769 1463.43 Q798.788 1463.08 799.806 1462.92 Q800.825 1462.73 801.843 1462.73 Q807.63 1462.73 811.01 1465.9 Q814.389 1469.08 814.389 1474.49 Q814.389 1480.07 810.917 1483.17 Q807.445 1486.25 801.126 1486.25 Q798.95 1486.25 796.681 1485.88 Q794.436 1485.51 792.028 1484.77 L792.028 1480.07 Q794.112 1481.2 796.334 1481.76 Q798.556 1482.32 801.033 1482.32 Q805.038 1482.32 807.376 1480.21 Q809.714 1478.1 809.714 1474.49 Q809.714 1470.88 807.376 1468.77 Q805.038 1466.67 801.033 1466.67 Q799.158 1466.67 797.283 1467.08 Q795.431 1467.5 793.487 1468.38 L793.487 1451.02 Z" fill="#000000" fill-rule="nonzero" fill-opacity="1" /><path clip-path="url(#clip880)" d="M823.602 1479.7 L828.487 1479.7 L828.487 1485.58 L823.602 1485.58 L823.602 1479.7 Z" fill="#000000" fill-rule="nonzero" fill-opacity="1" /><path clip-path="url(#clip880)" d="M848.672 1469.17 Q845.338 1469.17 843.417 1470.95 Q841.519 1472.73 841.519 1475.86 Q841.519 1478.98 843.417 1480.77 Q845.338 1482.55 848.672 1482.55 Q852.005 1482.55 853.926 1480.77 Q855.848 1478.96 855.848 1475.86 Q855.848 1472.73 853.926 1470.95 Q852.028 1469.17 848.672 1469.17 M843.996 1467.18 Q840.987 1466.44 839.297 1464.38 Q837.63 1462.32 837.63 1459.35 Q837.63 1455.21 840.57 1452.8 Q843.533 1450.39 848.672 1450.39 Q853.834 1450.39 856.774 1452.8 Q859.713 1455.21 859.713 1459.35 Q859.713 1462.32 858.024 1464.38 Q856.357 1466.44 853.371 1467.18 Q856.75 1467.96 858.625 1470.26 Q860.523 1472.55 860.523 1475.86 Q860.523 1480.88 857.445 1483.57 Q854.389 1486.25 848.672 1486.25 Q842.954 1486.25 839.875 1483.57 Q836.82 1480.88 836.82 1475.86 Q836.82 1472.55 838.718 1470.26 Q840.616 1467.96 843.996 1467.18 M842.283 1459.79 Q842.283 1462.48 843.95 1463.98 Q845.639 1465.49 848.672 1465.49 Q851.681 1465.49 853.371 1463.98 Q855.084 1462.48 855.084 1459.79 Q855.084 1457.11 853.371 1455.6 Q851.681 1454.1 848.672 1454.1 Q845.639 1454.1 843.95 1455.6 Q842.283 1457.11 842.283 1459.79 Z" fill="#000000" fill-rule="nonzero" fill-opacity="1" /><path clip-path="url(#clip880)" d="M1232.53 1466.44 Q1229.38 1466.44 1227.53 1468.59 Q1225.7 1470.74 1225.7 1474.49 Q1225.7 1478.22 1227.53 1480.39 Q1229.38 1482.55 1232.53 1482.55 Q1235.68 1482.55 1237.51 1480.39 Q1239.36 1478.22 1239.36 1474.49 Q1239.36 1470.74 1237.51 1468.59 Q1235.68 1466.44 1232.53 1466.44 M1241.81 1451.78 L1241.81 1456.04 Q1240.05 1455.21 1238.25 1454.77 Q1236.47 1454.33 1234.71 1454.33 Q1230.08 1454.33 1227.62 1457.45 Q1225.19 1460.58 1224.85 1466.9 Q1226.21 1464.89 1228.27 1463.82 Q1230.33 1462.73 1232.81 1462.73 Q1238.02 1462.73 1241.03 1465.9 Q1244.06 1469.05 1244.06 1474.49 Q1244.06 1479.82 1240.91 1483.03 Q1237.76 1486.25 1232.53 1486.25 Q1226.54 1486.25 1223.37 1481.67 Q1220.19 1477.06 1220.19 1468.33 Q1220.19 1460.14 1224.08 1455.28 Q1227.97 1450.39 1234.52 1450.39 Q1236.28 1450.39 1238.06 1450.74 Q1239.87 1451.09 1241.81 1451.78 Z" fill="#000000" fill-rule="nonzero" fill-opacity="1" /><path clip-path="url(#clip880)" d="M1262.69 1466.44 Q1259.55 1466.44 1257.69 1468.59 Q1255.86 1470.74 1255.86 1474.49 Q1255.86 1478.22 1257.69 1480.39 Q1259.55 1482.55 1262.69 1482.55 Q1265.84 1482.55 1267.67 1480.39 Q1269.52 1478.22 1269.52 1474.49 Q1269.52 1470.74 1267.67 1468.59 Q1265.84 1466.44 1262.69 1466.44 M1271.98 1451.78 L1271.98 1456.04 Q1270.22 1455.21 1268.41 1454.77 Q1266.63 1454.33 1264.87 1454.33 Q1260.24 1454.33 1257.79 1457.45 Q1255.36 1460.58 1255.01 1466.9 Q1256.37 1464.89 1258.43 1463.82 Q1260.49 1462.73 1262.97 1462.73 Q1268.18 1462.73 1271.19 1465.9 Q1274.22 1469.05 1274.22 1474.49 Q1274.22 1479.82 1271.07 1483.03 Q1267.93 1486.25 1262.69 1486.25 Q1256.7 1486.25 1253.53 1481.67 Q1250.36 1477.06 1250.36 1468.33 Q1250.36 1460.14 1254.24 1455.28 Q1258.13 1450.39 1264.68 1450.39 Q1266.44 1450.39 1268.23 1450.74 Q1270.03 1451.09 1271.98 1451.78 Z" fill="#000000" fill-rule="nonzero" fill-opacity="1" /><path clip-path="url(#clip880)" d="M1282.28 1479.7 L1287.16 1479.7 L1287.16 1485.58 L1282.28 1485.58 L1282.28 1479.7 Z" fill="#000000" fill-rule="nonzero" fill-opacity="1" /><path clip-path="url(#clip880)" d="M1307.35 1454.1 Q1303.74 1454.1 1301.91 1457.66 Q1300.1 1461.2 1300.1 1468.33 Q1300.1 1475.44 1301.91 1479.01 Q1303.74 1482.55 1307.35 1482.55 Q1310.98 1482.55 1312.79 1479.01 Q1314.61 1475.44 1314.61 1468.33 Q1314.61 1461.2 1312.79 1457.66 Q1310.98 1454.1 1307.35 1454.1 M1307.35 1450.39 Q1313.16 1450.39 1316.21 1455 Q1319.29 1459.58 1319.29 1468.33 Q1319.29 1477.06 1316.21 1481.67 Q1313.16 1486.25 1307.35 1486.25 Q1301.54 1486.25 1298.46 1481.67 Q1295.4 1477.06 1295.4 1468.33 Q1295.4 1459.58 1298.46 1455 Q1301.54 1450.39 1307.35 1450.39 Z" fill="#000000" fill-rule="nonzero" fill-opacity="1" /><path clip-path="url(#clip880)" d="M1692.05 1466.44 Q1688.9 1466.44 1687.05 1468.59 Q1685.22 1470.74 1685.22 1474.49 Q1685.22 1478.22 1687.05 1480.39 Q1688.9 1482.55 1692.05 1482.55 Q1695.2 1482.55 1697.03 1480.39 Q1698.88 1478.22 1698.88 1474.49 Q1698.88 1470.74 1697.03 1468.59 Q1695.2 1466.44 1692.05 1466.44 M1701.33 1451.78 L1701.33 1456.04 Q1699.57 1455.21 1697.77 1454.77 Q1695.99 1454.33 1694.23 1454.33 Q1689.6 1454.33 1687.14 1457.45 Q1684.71 1460.58 1684.37 1466.9 Q1685.73 1464.89 1687.79 1463.82 Q1689.85 1462.73 1692.33 1462.73 Q1697.54 1462.73 1700.55 1465.9 Q1703.58 1469.05 1703.58 1474.49 Q1703.58 1479.82 1700.43 1483.03 Q1697.28 1486.25 1692.05 1486.25 Q1686.06 1486.25 1682.88 1481.67 Q1679.71 1477.06 1679.71 1468.33 Q1679.71 1460.14 1683.6 1455.28 Q1687.49 1450.39 1694.04 1450.39 Q1695.8 1450.39 1697.58 1450.74 Q1699.39 1451.09 1701.33 1451.78 Z" fill="#000000" fill-rule="nonzero" fill-opacity="1" /><path clip-path="url(#clip880)" d="M1722.21 1466.44 Q1719.06 1466.44 1717.21 1468.59 Q1715.38 1470.74 1715.38 1474.49 Q1715.38 1478.22 1717.21 1480.39 Q1719.06 1482.55 1722.21 1482.55 Q1725.36 1482.55 1727.19 1480.39 Q1729.04 1478.22 1729.04 1474.49 Q1729.04 1470.74 1727.19 1468.59 Q1725.36 1466.44 1722.21 1466.44 M1731.5 1451.78 L1731.5 1456.04 Q1729.74 1455.21 1727.93 1454.77 Q1726.15 1454.33 1724.39 1454.33 Q1719.76 1454.33 1717.31 1457.45 Q1714.88 1460.58 1714.53 1466.9 Q1715.89 1464.89 1717.95 1463.82 Q1720.01 1462.73 1722.49 1462.73 Q1727.7 1462.73 1730.71 1465.9 Q1733.74 1469.05 1733.74 1474.49 Q1733.74 1479.82 1730.59 1483.03 Q1727.44 1486.25 1722.21 1486.25 Q1716.22 1486.25 1713.05 1481.67 Q1709.88 1477.06 1709.88 1468.33 Q1709.88 1460.14 1713.76 1455.28 Q1717.65 1450.39 1724.2 1450.39 Q1725.96 1450.39 1727.75 1450.74 Q1729.55 1451.09 1731.5 1451.78 Z" fill="#000000" fill-rule="nonzero" fill-opacity="1" /><path clip-path="url(#clip880)" d="M1741.8 1479.7 L1746.68 1479.7 L1746.68 1485.58 L1741.8 1485.58 L1741.8 1479.7 Z" fill="#000000" fill-rule="nonzero" fill-opacity="1" /><path clip-path="url(#clip880)" d="M1760.89 1481.64 L1777.21 1481.64 L1777.21 1485.58 L1755.27 1485.58 L1755.27 1481.64 Q1757.93 1478.89 1762.51 1474.26 Q1767.12 1469.61 1768.3 1468.27 Q1770.55 1465.74 1771.43 1464.01 Q1772.33 1462.25 1772.33 1460.56 Q1772.33 1457.8 1770.38 1456.07 Q1768.46 1454.33 1765.36 1454.33 Q1763.16 1454.33 1760.71 1455.09 Q1758.28 1455.86 1755.5 1457.41 L1755.5 1452.69 Q1758.32 1451.55 1760.78 1450.97 Q1763.23 1450.39 1765.27 1450.39 Q1770.64 1450.39 1773.83 1453.08 Q1777.03 1455.77 1777.03 1460.26 Q1777.03 1462.39 1776.22 1464.31 Q1775.43 1466.2 1773.32 1468.8 Q1772.75 1469.47 1769.64 1472.69 Q1766.54 1475.88 1760.89 1481.64 Z" fill="#000000" fill-rule="nonzero" fill-opacity="1" /><path clip-path="url(#clip880)" d="M2149.73 1466.44 Q2146.58 1466.44 2144.73 1468.59 Q2142.9 1470.74 2142.9 1474.49 Q2142.9 1478.22 2144.73 1480.39 Q2146.58 1482.55 2149.73 1482.55 Q2152.88 1482.55 2154.71 1480.39 Q2156.56 1478.22 2156.56 1474.49 Q2156.56 1470.74 2154.71 1468.59 Q2152.88 1466.44 2149.73 1466.44 M2159.01 1451.78 L2159.01 1456.04 Q2157.25 1455.21 2155.45 1454.77 Q2153.67 1454.33 2151.91 1454.33 Q2147.28 1454.33 2144.82 1457.45 Q2142.39 1460.58 2142.05 1466.9 Q2143.41 1464.89 2145.47 1463.82 Q2147.53 1462.73 2150.01 1462.73 Q2155.22 1462.73 2158.23 1465.9 Q2161.26 1469.05 2161.26 1474.49 Q2161.26 1479.82 2158.11 1483.03 Q2154.96 1486.25 2149.73 1486.25 Q2143.73 1486.25 2140.56 1481.67 Q2137.39 1477.06 2137.39 1468.33 Q2137.39 1460.14 2141.28 1455.28 Q2145.17 1450.39 2151.72 1450.39 Q2153.48 1450.39 2155.26 1450.74 Q2157.07 1451.09 2159.01 1451.78 Z" fill="#000000" fill-rule="nonzero" fill-opacity="1" /><path clip-path="url(#clip880)" d="M2179.89 1466.44 Q2176.74 1466.44 2174.89 1468.59 Q2173.06 1470.74 2173.06 1474.49 Q2173.06 1478.22 2174.89 1480.39 Q2176.74 1482.55 2179.89 1482.55 Q2183.04 1482.55 2184.87 1480.39 Q2186.72 1478.22 2186.72 1474.49 Q2186.72 1470.74 2184.87 1468.59 Q2183.04 1466.44 2179.89 1466.44 M2189.17 1451.78 L2189.17 1456.04 Q2187.42 1455.21 2185.61 1454.77 Q2183.83 1454.33 2182.07 1454.33 Q2177.44 1454.33 2174.98 1457.45 Q2172.55 1460.58 2172.21 1466.9 Q2173.57 1464.89 2175.63 1463.82 Q2177.69 1462.73 2180.17 1462.73 Q2185.38 1462.73 2188.39 1465.9 Q2191.42 1469.05 2191.42 1474.49 Q2191.42 1479.82 2188.27 1483.03 Q2185.12 1486.25 2179.89 1486.25 Q2173.9 1486.25 2170.73 1481.67 Q2167.55 1477.06 2167.55 1468.33 Q2167.55 1460.14 2171.44 1455.28 Q2175.33 1450.39 2181.88 1450.39 Q2183.64 1450.39 2185.42 1450.74 Q2187.23 1451.09 2189.17 1451.78 Z" fill="#000000" fill-rule="nonzero" fill-opacity="1" /><path clip-path="url(#clip880)" d="M2199.48 1479.7 L2204.36 1479.7 L2204.36 1485.58 L2199.48 1485.58 L2199.48 1479.7 Z" fill="#000000" fill-rule="nonzero" fill-opacity="1" /><path clip-path="url(#clip880)" d="M2227.39 1455.09 L2215.59 1473.54 L2227.39 1473.54 L2227.39 1455.09 M2226.17 1451.02 L2232.04 1451.02 L2232.04 1473.54 L2236.98 1473.54 L2236.98 1477.43 L2232.04 1477.43 L2232.04 1485.58 L2227.39 1485.58 L2227.39 1477.43 L2211.79 1477.43 L2211.79 1472.92 L2226.17 1451.02 Z" fill="#000000" fill-rule="nonzero" fill-opacity="1" /><path clip-path="url(#clip880)" d="M1178.01 1526.86 L1169.29 1550.51 L1186.77 1550.51 L1178.01 1526.86 M1174.38 1520.52 L1181.67 1520.52 L1199.78 1568.04 L1193.1 1568.04 L1188.77 1555.85 L1167.35 1555.85 L1163.02 1568.04 L1156.24 1568.04 L1174.38 1520.52 Z" fill="#000000" fill-rule="nonzero" fill-opacity="1" /><path clip-path="url(#clip880)" d="M1229.93 1549.81 Q1229.93 1543.44 1227.28 1539.94 Q1224.67 1536.44 1219.93 1536.44 Q1215.22 1536.44 1212.58 1539.94 Q1209.97 1543.44 1209.97 1549.81 Q1209.97 1556.14 1212.58 1559.64 Q1215.22 1563.14 1219.93 1563.14 Q1224.67 1563.14 1227.28 1559.64 Q1229.93 1556.14 1229.93 1549.81 M1235.78 1563.62 Q1235.78 1572.72 1231.74 1577.15 Q1227.7 1581.6 1219.36 1581.6 Q1216.27 1581.6 1213.53 1581.13 Q1210.8 1580.68 1208.22 1579.72 L1208.22 1574.03 Q1210.8 1575.43 1213.31 1576.1 Q1215.83 1576.76 1218.44 1576.76 Q1224.2 1576.76 1227.06 1573.74 Q1229.93 1570.75 1229.93 1564.67 L1229.93 1561.77 Q1228.11 1564.92 1225.28 1566.48 Q1222.45 1568.04 1218.5 1568.04 Q1211.94 1568.04 1207.93 1563.05 Q1203.92 1558.05 1203.92 1549.81 Q1203.92 1541.53 1207.93 1536.53 Q1211.94 1531.54 1218.5 1531.54 Q1222.45 1531.54 1225.28 1533.1 Q1228.11 1534.66 1229.93 1537.81 L1229.93 1532.4 L1235.78 1532.4 L1235.78 1563.62 Z" fill="#000000" fill-rule="nonzero" fill-opacity="1" /><path clip-path="url(#clip880)" d="M1278.34 1548.76 L1278.34 1551.62 L1251.41 1551.62 Q1251.79 1557.67 1255.04 1560.85 Q1258.32 1564 1264.14 1564 Q1267.51 1564 1270.67 1563.17 Q1273.85 1562.35 1276.97 1560.69 L1276.97 1566.23 Q1273.82 1567.57 1270.51 1568.27 Q1267.2 1568.97 1263.79 1568.97 Q1255.26 1568.97 1250.26 1564 Q1245.3 1559.04 1245.3 1550.57 Q1245.3 1541.82 1250.01 1536.69 Q1254.75 1531.54 1262.77 1531.54 Q1269.97 1531.54 1274.14 1536.18 Q1278.34 1540.8 1278.34 1548.76 M1272.48 1547.04 Q1272.42 1542.23 1269.77 1539.37 Q1267.16 1536.5 1262.84 1536.5 Q1257.93 1536.5 1254.97 1539.27 Q1252.05 1542.04 1251.6 1547.07 L1272.48 1547.04 Z" fill="#000000" fill-rule="nonzero" fill-opacity="1" /><path clip-path="url(#clip880)" d="M1322.74 1518.58 Q1318.47 1525.9 1316.4 1533.06 Q1314.33 1540.23 1314.33 1547.58 Q1314.33 1554.93 1316.4 1562.16 Q1318.5 1569.35 1322.74 1576.64 L1317.64 1576.64 Q1312.87 1569.16 1310.48 1561.93 Q1308.13 1554.71 1308.13 1547.58 Q1308.13 1540.48 1310.48 1533.29 Q1312.84 1526.09 1317.64 1518.58 L1322.74 1518.58 Z" fill="#000000" fill-rule="nonzero" fill-opacity="1" /><path clip-path="url(#clip880)" d="M1334.35 1520.52 L1343.94 1520.52 L1356.06 1552.86 L1368.25 1520.52 L1377.83 1520.52 L1377.83 1568.04 L1371.56 1568.04 L1371.56 1526.32 L1359.31 1558.91 L1352.85 1558.91 L1340.59 1526.32 L1340.59 1568.04 L1334.35 1568.04 L1334.35 1520.52 Z" fill="#000000" fill-rule="nonzero" fill-opacity="1" /><path clip-path="url(#clip880)" d="M1406.54 1550.12 Q1399.44 1550.12 1396.71 1551.75 Q1393.97 1553.37 1393.97 1557.29 Q1393.97 1560.4 1396.01 1562.25 Q1398.08 1564.07 1401.61 1564.07 Q1406.48 1564.07 1409.41 1560.63 Q1412.37 1557.16 1412.37 1551.43 L1412.37 1550.12 L1406.54 1550.12 M1418.22 1547.71 L1418.22 1568.04 L1412.37 1568.04 L1412.37 1562.63 Q1410.36 1565.88 1407.37 1567.44 Q1404.38 1568.97 1400.05 1568.97 Q1394.57 1568.97 1391.33 1565.91 Q1388.11 1562.82 1388.11 1557.67 Q1388.11 1551.65 1392.12 1548.6 Q1396.17 1545.54 1404.15 1545.54 L1412.37 1545.54 L1412.37 1544.97 Q1412.37 1540.93 1409.69 1538.73 Q1407.05 1536.5 1402.25 1536.5 Q1399.19 1536.5 1396.29 1537.23 Q1393.4 1537.97 1390.72 1539.43 L1390.72 1534.02 Q1393.94 1532.78 1396.96 1532.17 Q1399.99 1531.54 1402.85 1531.54 Q1410.58 1531.54 1414.4 1535.55 Q1418.22 1539.56 1418.22 1547.71 Z" fill="#000000" fill-rule="nonzero" fill-opacity="1" /><path clip-path="url(#clip880)" d="M1429.36 1518.58 L1434.46 1518.58 Q1439.23 1526.09 1441.59 1533.29 Q1443.97 1540.48 1443.97 1547.58 Q1443.97 1554.71 1441.59 1561.93 Q1439.23 1569.16 1434.46 1576.64 L1429.36 1576.64 Q1433.6 1569.35 1435.67 1562.16 Q1437.77 1554.93 1437.77 1547.58 Q1437.77 1540.23 1435.67 1533.06 Q1433.6 1525.9 1429.36 1518.58 Z" fill="#000000" fill-rule="nonzero" fill-opacity="1" /><polyline clip-path="url(#clip880)" style="stroke:#000000; stroke-linecap:round; stroke-linejoin:round; stroke-width:4; stroke-opacity:1; fill:none" points="247.459,1423.18 247.459,47.2441 "/>
<polyline clip-path="url(#clip880)" style="stroke:#000000; stroke-linecap:round; stroke-linejoin:round; stroke-width:4; stroke-opacity:1; fill:none" points="2352.76,1423.18 2352.76,47.2441 "/>
<polyline clip-path="url(#clip880)" style="stroke:#000000; stroke-linecap:round; stroke-linejoin:round; stroke-width:4; stroke-opacity:1; fill:none" points="247.459,1384.25 266.356,1384.25 "/>
<polyline clip-path="url(#clip880)" style="stroke:#000000; stroke-linecap:round; stroke-linejoin:round; stroke-width:4; stroke-opacity:1; fill:none" points="247.459,1089.44 266.356,1089.44 "/>
<polyline clip-path="url(#clip880)" style="stroke:#000000; stroke-linecap:round; stroke-linejoin:round; stroke-width:4; stroke-opacity:1; fill:none" points="247.459,794.64 266.356,794.64 "/>
<polyline clip-path="url(#clip880)" style="stroke:#000000; stroke-linecap:round; stroke-linejoin:round; stroke-width:4; stroke-opacity:1; fill:none" points="247.459,499.836 266.356,499.836 "/>
<polyline clip-path="url(#clip880)" style="stroke:#000000; stroke-linecap:round; stroke-linejoin:round; stroke-width:4; stroke-opacity:1; fill:none" points="247.459,205.033 266.356,205.033 "/>
<polyline clip-path="url(#clip880)" style="stroke:#000000; stroke-linecap:round; stroke-linejoin:round; stroke-width:4; stroke-opacity:1; fill:none" points="2352.76,1384.25 2333.86,1384.25 "/>
<polyline clip-path="url(#clip880)" style="stroke:#000000; stroke-linecap:round; stroke-linejoin:round; stroke-width:4; stroke-opacity:1; fill:none" points="2352.76,1089.44 2333.86,1089.44 "/>
<polyline clip-path="url(#clip880)" style="stroke:#000000; stroke-linecap:round; stroke-linejoin:round; stroke-width:4; stroke-opacity:1; fill:none" points="2352.76,794.64 2333.86,794.64 "/>
<polyline clip-path="url(#clip880)" style="stroke:#000000; stroke-linecap:round; stroke-linejoin:round; stroke-width:4; stroke-opacity:1; fill:none" points="2352.76,499.836 2333.86,499.836 "/>
<polyline clip-path="url(#clip880)" style="stroke:#000000; stroke-linecap:round; stroke-linejoin:round; stroke-width:4; stroke-opacity:1; fill:none" points="2352.76,205.033 2333.86,205.033 "/>
<path clip-path="url(#clip880)" d="M154.283 1370.05 Q150.672 1370.05 148.843 1373.61 Q147.038 1377.15 147.038 1384.28 Q147.038 1391.39 148.843 1394.95 Q150.672 1398.49 154.283 1398.49 Q157.917 1398.49 159.723 1394.95 Q161.552 1391.39 161.552 1384.28 Q161.552 1377.15 159.723 1373.61 Q157.917 1370.05 154.283 1370.05 M154.283 1366.34 Q160.093 1366.34 163.149 1370.95 Q166.227 1375.53 166.227 1384.28 Q166.227 1393.01 163.149 1397.62 Q160.093 1402.2 154.283 1402.2 Q148.473 1402.2 145.394 1397.62 Q142.339 1393.01 142.339 1384.28 Q142.339 1375.53 145.394 1370.95 Q148.473 1366.34 154.283 1366.34 Z" fill="#000000" fill-rule="nonzero" fill-opacity="1" /><path clip-path="url(#clip880)" d="M174.445 1395.65 L179.329 1395.65 L179.329 1401.53 L174.445 1401.53 L174.445 1395.65 Z" fill="#000000" fill-rule="nonzero" fill-opacity="1" /><path clip-path="url(#clip880)" d="M199.514 1370.05 Q195.903 1370.05 194.075 1373.61 Q192.269 1377.15 192.269 1384.28 Q192.269 1391.39 194.075 1394.95 Q195.903 1398.49 199.514 1398.49 Q203.149 1398.49 204.954 1394.95 Q206.783 1391.39 206.783 1384.28 Q206.783 1377.15 204.954 1373.61 Q203.149 1370.05 199.514 1370.05 M199.514 1366.34 Q205.324 1366.34 208.38 1370.95 Q211.459 1375.53 211.459 1384.28 Q211.459 1393.01 208.38 1397.62 Q205.324 1402.2 199.514 1402.2 Q193.704 1402.2 190.625 1397.62 Q187.57 1393.01 187.57 1384.28 Q187.57 1375.53 190.625 1370.95 Q193.704 1366.34 199.514 1366.34 Z" fill="#000000" fill-rule="nonzero" fill-opacity="1" /><path clip-path="url(#clip880)" d="M149.306 1102.79 L165.626 1102.79 L165.626 1106.72 L143.681 1106.72 L143.681 1102.79 Q146.343 1100.03 150.927 1095.4 Q155.533 1090.75 156.714 1089.41 Q158.959 1086.89 159.839 1085.15 Q160.741 1083.39 160.741 1081.7 Q160.741 1078.95 158.797 1077.21 Q156.876 1075.47 153.774 1075.47 Q151.575 1075.47 149.121 1076.24 Q146.691 1077 143.913 1078.55 L143.913 1073.83 Q146.737 1072.7 149.191 1072.12 Q151.644 1071.54 153.681 1071.54 Q159.052 1071.54 162.246 1074.22 Q165.44 1076.91 165.44 1081.4 Q165.44 1083.53 164.63 1085.45 Q163.843 1087.35 161.737 1089.94 Q161.158 1090.61 158.056 1093.83 Q154.954 1097.02 149.306 1102.79 Z" fill="#000000" fill-rule="nonzero" fill-opacity="1" /><path clip-path="url(#clip880)" d="M175.44 1100.84 L180.325 1100.84 L180.325 1106.72 L175.44 1106.72 L175.44 1100.84 Z" fill="#000000" fill-rule="nonzero" fill-opacity="1" /><path clip-path="url(#clip880)" d="M190.556 1072.16 L208.912 1072.16 L208.912 1076.1 L194.838 1076.1 L194.838 1084.57 Q195.857 1084.22 196.875 1084.06 Q197.894 1083.88 198.912 1083.88 Q204.699 1083.88 208.079 1087.05 Q211.459 1090.22 211.459 1095.64 Q211.459 1101.21 207.987 1104.32 Q204.514 1107.39 198.195 1107.39 Q196.019 1107.39 193.75 1107.02 Q191.505 1106.65 189.098 1105.91 L189.098 1101.21 Q191.181 1102.35 193.403 1102.9 Q195.625 1103.46 198.102 1103.46 Q202.107 1103.46 204.445 1101.35 Q206.783 1099.25 206.783 1095.64 Q206.783 1092.02 204.445 1089.92 Q202.107 1087.81 198.102 1087.81 Q196.227 1087.81 194.352 1088.23 Q192.5 1088.64 190.556 1089.52 L190.556 1072.16 Z" fill="#000000" fill-rule="nonzero" fill-opacity="1" /><path clip-path="url(#clip880)" d="M144.329 777.36 L162.686 777.36 L162.686 781.295 L148.612 781.295 L148.612 789.767 Q149.63 789.42 150.649 789.258 Q151.667 789.073 152.686 789.073 Q158.473 789.073 161.852 792.244 Q165.232 795.415 165.232 800.832 Q165.232 806.411 161.76 809.513 Q158.288 812.591 151.968 812.591 Q149.792 812.591 147.524 812.221 Q145.279 811.851 142.871 811.11 L142.871 806.411 Q144.954 807.545 147.177 808.101 Q149.399 808.656 151.876 808.656 Q155.88 808.656 158.218 806.55 Q160.556 804.443 160.556 800.832 Q160.556 797.221 158.218 795.115 Q155.88 793.008 151.876 793.008 Q150.001 793.008 148.126 793.425 Q146.274 793.841 144.329 794.721 L144.329 777.36 Z" fill="#000000" fill-rule="nonzero" fill-opacity="1" /><path clip-path="url(#clip880)" d="M174.445 806.04 L179.329 806.04 L179.329 811.92 L174.445 811.92 L174.445 806.04 Z" fill="#000000" fill-rule="nonzero" fill-opacity="1" /><path clip-path="url(#clip880)" d="M199.514 780.439 Q195.903 780.439 194.075 784.004 Q192.269 787.545 192.269 794.675 Q192.269 801.781 194.075 805.346 Q195.903 808.888 199.514 808.888 Q203.149 808.888 204.954 805.346 Q206.783 801.781 206.783 794.675 Q206.783 787.545 204.954 784.004 Q203.149 780.439 199.514 780.439 M199.514 776.735 Q205.324 776.735 208.38 781.341 Q211.459 785.925 211.459 794.675 Q211.459 803.402 208.38 808.008 Q205.324 812.591 199.514 812.591 Q193.704 812.591 190.625 808.008 Q187.57 803.402 187.57 794.675 Q187.57 785.925 190.625 781.341 Q193.704 776.735 199.514 776.735 Z" fill="#000000" fill-rule="nonzero" fill-opacity="1" /><path clip-path="url(#clip880)" d="M144.098 482.556 L166.32 482.556 L166.32 484.547 L153.774 517.116 L148.89 517.116 L160.695 486.492 L144.098 486.492 L144.098 482.556 Z" fill="#000000" fill-rule="nonzero" fill-opacity="1" /><path clip-path="url(#clip880)" d="M175.44 511.237 L180.325 511.237 L180.325 517.116 L175.44 517.116 L175.44 511.237 Z" fill="#000000" fill-rule="nonzero" fill-opacity="1" /><path clip-path="url(#clip880)" d="M190.556 482.556 L208.912 482.556 L208.912 486.492 L194.838 486.492 L194.838 494.964 Q195.857 494.617 196.875 494.455 Q197.894 494.269 198.912 494.269 Q204.699 494.269 208.079 497.441 Q211.459 500.612 211.459 506.029 Q211.459 511.607 207.987 514.709 Q204.514 517.788 198.195 517.788 Q196.019 517.788 193.75 517.417 Q191.505 517.047 189.098 516.306 L189.098 511.607 Q191.181 512.741 193.403 513.297 Q195.625 513.853 198.102 513.853 Q202.107 513.853 204.445 511.746 Q206.783 509.64 206.783 506.029 Q206.783 502.417 204.445 500.311 Q202.107 498.205 198.102 498.205 Q196.227 498.205 194.352 498.621 Q192.5 499.038 190.556 499.917 L190.556 482.556 Z" fill="#000000" fill-rule="nonzero" fill-opacity="1" /><path clip-path="url(#clip880)" d="M114.931 218.378 L122.57 218.378 L122.57 192.012 L114.26 193.679 L114.26 189.42 L122.524 187.753 L127.2 187.753 L127.2 218.378 L134.839 218.378 L134.839 222.313 L114.931 222.313 L114.931 218.378 Z" fill="#000000" fill-rule="nonzero" fill-opacity="1" /><path clip-path="url(#clip880)" d="M154.283 190.832 Q150.672 190.832 148.843 194.396 Q147.038 197.938 147.038 205.068 Q147.038 212.174 148.843 215.739 Q150.672 219.28 154.283 219.28 Q157.917 219.28 159.723 215.739 Q161.552 212.174 161.552 205.068 Q161.552 197.938 159.723 194.396 Q157.917 190.832 154.283 190.832 M154.283 187.128 Q160.093 187.128 163.149 191.734 Q166.227 196.318 166.227 205.068 Q166.227 213.794 163.149 218.401 Q160.093 222.984 154.283 222.984 Q148.473 222.984 145.394 218.401 Q142.339 213.794 142.339 205.068 Q142.339 196.318 145.394 191.734 Q148.473 187.128 154.283 187.128 Z" fill="#000000" fill-rule="nonzero" fill-opacity="1" /><path clip-path="url(#clip880)" d="M174.445 216.433 L179.329 216.433 L179.329 222.313 L174.445 222.313 L174.445 216.433 Z" fill="#000000" fill-rule="nonzero" fill-opacity="1" /><path clip-path="url(#clip880)" d="M199.514 190.832 Q195.903 190.832 194.075 194.396 Q192.269 197.938 192.269 205.068 Q192.269 212.174 194.075 215.739 Q195.903 219.28 199.514 219.28 Q203.149 219.28 204.954 215.739 Q206.783 212.174 206.783 205.068 Q206.783 197.938 204.954 194.396 Q203.149 190.832 199.514 190.832 M199.514 187.128 Q205.324 187.128 208.38 191.734 Q211.459 196.318 211.459 205.068 Q211.459 213.794 208.38 218.401 Q205.324 222.984 199.514 222.984 Q193.704 222.984 190.625 218.401 Q187.57 213.794 187.57 205.068 Q187.57 196.318 190.625 191.734 Q193.704 187.128 199.514 187.128 Z" fill="#000000" fill-rule="nonzero" fill-opacity="1" /><path clip-path="url(#clip880)" d="M21.7677 1026.76 L39.6235 1026.76 L39.6235 1018.68 Q39.6235 1014.19 37.3 1011.74 Q34.9765 1009.29 30.6797 1009.29 Q26.4147 1009.29 24.0912 1011.74 Q21.7677 1014.19 21.7677 1018.68 L21.7677 1026.76 M16.4842 1033.19 L16.4842 1018.68 Q16.4842 1010.69 20.1126 1006.61 Q23.7092 1002.51 30.6797 1002.51 Q37.7138 1002.51 41.3104 1006.61 Q44.907 1010.69 44.907 1018.68 L44.907 1026.76 L64.0042 1026.76 L64.0042 1033.19 L16.4842 1033.19 Z" fill="#000000" fill-rule="nonzero" fill-opacity="1" /><path clip-path="url(#clip880)" d="M33.8307 974.626 Q33.2578 975.613 33.0032 976.791 Q32.7167 977.936 32.7167 979.337 Q32.7167 984.302 35.9632 986.976 Q39.1779 989.617 45.2253 989.617 L64.0042 989.617 L64.0042 995.506 L28.3562 995.506 L28.3562 989.617 L33.8944 989.617 Q30.6479 987.771 29.0883 984.811 Q27.4968 981.851 27.4968 977.618 Q27.4968 977.013 27.5923 976.281 Q27.656 975.549 27.8151 974.658 L33.8307 974.626 Z" fill="#000000" fill-rule="nonzero" fill-opacity="1" /><path clip-path="url(#clip880)" d="M32.4621 956.102 Q32.4621 960.813 36.1542 963.55 Q39.8145 966.287 46.212 966.287 Q52.6095 966.287 56.3017 963.582 Q59.9619 960.844 59.9619 956.102 Q59.9619 951.423 56.2698 948.686 Q52.5777 945.949 46.212 945.949 Q39.8781 945.949 36.186 948.686 Q32.4621 951.423 32.4621 956.102 M27.4968 956.102 Q27.4968 948.463 32.4621 944.103 Q37.4273 939.742 46.212 939.742 Q54.9649 939.742 59.9619 944.103 Q64.9272 948.463 64.9272 956.102 Q64.9272 963.773 59.9619 968.133 Q54.9649 972.462 46.212 972.462 Q37.4273 972.462 32.4621 968.133 Q27.4968 963.773 27.4968 956.102 Z" fill="#000000" fill-rule="nonzero" fill-opacity="1" /><path clip-path="url(#clip880)" d="M46.212 904.444 Q39.7508 904.444 36.0905 907.118 Q32.3984 909.76 32.3984 914.407 Q32.3984 919.054 36.0905 921.727 Q39.7508 924.369 46.212 924.369 Q52.6732 924.369 56.3653 921.727 Q60.0256 919.054 60.0256 914.407 Q60.0256 909.76 56.3653 907.118 Q52.6732 904.444 46.212 904.444 M33.7671 924.369 Q30.5842 922.523 29.0564 919.722 Q27.4968 916.889 27.4968 912.974 Q27.4968 906.481 32.6531 902.439 Q37.8093 898.365 46.212 898.365 Q54.6147 898.365 59.771 902.439 Q64.9272 906.481 64.9272 912.974 Q64.9272 916.889 63.3994 919.722 Q61.8398 922.523 58.657 924.369 L64.0042 924.369 L64.0042 930.257 L14.479 930.257 L14.479 924.369 L33.7671 924.369 Z" fill="#000000" fill-rule="nonzero" fill-opacity="1" /><path clip-path="url(#clip880)" d="M46.0847 872.457 Q46.0847 879.554 47.7079 882.292 Q49.3312 885.029 53.2461 885.029 Q56.3653 885.029 58.2114 882.992 Q60.0256 880.923 60.0256 877.39 Q60.0256 872.52 56.5881 869.592 Q53.1188 866.632 47.3897 866.632 L46.0847 866.632 L46.0847 872.457 M43.6657 860.776 L64.0042 860.776 L64.0042 866.632 L58.5933 866.632 Q61.8398 868.637 63.3994 871.629 Q64.9272 874.621 64.9272 878.95 Q64.9272 884.424 61.8716 887.671 Q58.7843 890.885 53.6281 890.885 Q47.6125 890.885 44.5569 886.875 Q41.5014 882.833 41.5014 874.844 L41.5014 866.632 L40.9285 866.632 Q36.8862 866.632 34.6901 869.306 Q32.4621 871.947 32.4621 876.753 Q32.4621 879.809 33.1941 882.705 Q33.9262 885.602 35.3903 888.275 L29.9795 888.275 Q28.7381 885.061 28.1334 882.037 Q27.4968 879.013 27.4968 876.149 Q27.4968 868.414 31.5072 864.595 Q35.5176 860.776 43.6657 860.776 Z" fill="#000000" fill-rule="nonzero" fill-opacity="1" /><path clip-path="url(#clip880)" d="M46.212 823.122 Q39.7508 823.122 36.0905 825.796 Q32.3984 828.438 32.3984 833.085 Q32.3984 837.732 36.0905 840.405 Q39.7508 843.047 46.212 843.047 Q52.6732 843.047 56.3653 840.405 Q60.0256 837.732 60.0256 833.085 Q60.0256 828.438 56.3653 825.796 Q52.6732 823.122 46.212 823.122 M33.7671 843.047 Q30.5842 841.201 29.0564 838.4 Q27.4968 835.567 27.4968 831.652 Q27.4968 825.159 32.6531 821.117 Q37.8093 817.043 46.212 817.043 Q54.6147 817.043 59.771 821.117 Q64.9272 825.159 64.9272 831.652 Q64.9272 835.567 63.3994 838.4 Q61.8398 841.201 58.657 843.047 L64.0042 843.047 L64.0042 848.935 L14.479 848.935 L14.479 843.047 L33.7671 843.047 Z" fill="#000000" fill-rule="nonzero" fill-opacity="1" /><path clip-path="url(#clip880)" d="M28.3562 807.335 L28.3562 801.479 L64.0042 801.479 L64.0042 807.335 L28.3562 807.335 M14.479 807.335 L14.479 801.479 L21.895 801.479 L21.895 807.335 L14.479 807.335 Z" fill="#000000" fill-rule="nonzero" fill-opacity="1" /><path clip-path="url(#clip880)" d="M14.479 789.225 L14.479 783.369 L64.0042 783.369 L64.0042 789.225 L14.479 789.225 Z" fill="#000000" fill-rule="nonzero" fill-opacity="1" /><path clip-path="url(#clip880)" d="M28.3562 771.115 L28.3562 765.258 L64.0042 765.258 L64.0042 771.115 L28.3562 771.115 M14.479 771.115 L14.479 765.258 L21.895 765.258 L21.895 771.115 L14.479 771.115 Z" fill="#000000" fill-rule="nonzero" fill-opacity="1" /><path clip-path="url(#clip880)" d="M18.2347 747.211 L28.3562 747.211 L28.3562 735.148 L32.9077 735.148 L32.9077 747.211 L52.2594 747.211 Q56.6199 747.211 57.8613 746.034 Q59.1026 744.824 59.1026 741.164 L59.1026 735.148 L64.0042 735.148 L64.0042 741.164 Q64.0042 747.943 61.4897 750.521 Q58.9434 753.1 52.2594 753.1 L32.9077 753.1 L32.9077 757.396 L28.3562 757.396 L28.3562 753.1 L18.2347 753.1 L18.2347 747.211 Z" fill="#000000" fill-rule="nonzero" fill-opacity="1" /><path clip-path="url(#clip880)" d="M67.3143 712.614 Q73.68 715.096 75.6216 717.452 Q77.5631 719.807 77.5631 723.754 L77.5631 728.432 L72.6615 728.432 L72.6615 724.995 Q72.6615 722.576 71.5157 721.239 Q70.3699 719.902 66.1048 718.279 L63.4312 717.229 L28.3562 731.647 L28.3562 725.441 L56.238 714.301 L28.3562 703.161 L28.3562 696.954 L67.3143 712.614 Z" fill="#000000" fill-rule="nonzero" fill-opacity="1" /><path clip-path="url(#clip880)" d="M33.7671 644.692 L14.479 644.692 L14.479 638.835 L64.0042 638.835 L64.0042 644.692 L58.657 644.692 Q61.8398 646.538 63.3994 649.37 Q64.9272 652.171 64.9272 656.118 Q64.9272 662.579 59.771 666.653 Q54.6147 670.696 46.212 670.696 Q37.8093 670.696 32.6531 666.653 Q27.4968 662.579 27.4968 656.118 Q27.4968 652.171 29.0564 649.37 Q30.5842 646.538 33.7671 644.692 M46.212 664.648 Q52.6732 664.648 56.3653 662.006 Q60.0256 659.333 60.0256 654.686 Q60.0256 650.039 56.3653 647.365 Q52.6732 644.692 46.212 644.692 Q39.7508 644.692 36.0905 647.365 Q32.3984 650.039 32.3984 654.686 Q32.3984 659.333 36.0905 662.006 Q39.7508 664.648 46.212 664.648 Z" fill="#000000" fill-rule="nonzero" fill-opacity="1" /><path clip-path="url(#clip880)" d="M44.7161 596.28 L47.5806 596.28 L47.5806 623.207 Q53.6281 622.825 56.8109 619.579 Q59.9619 616.301 59.9619 610.476 Q59.9619 607.102 59.1344 603.951 Q58.3069 600.768 56.6518 597.649 L62.1899 597.649 Q63.5267 600.8 64.227 604.11 Q64.9272 607.42 64.9272 610.826 Q64.9272 619.356 59.9619 624.353 Q54.9967 629.318 46.5303 629.318 Q37.7774 629.318 32.6531 624.608 Q27.4968 619.865 27.4968 611.845 Q27.4968 604.651 32.1438 600.482 Q36.7589 596.28 44.7161 596.28 M42.9973 602.137 Q38.1912 602.201 35.3266 604.842 Q32.4621 607.452 32.4621 611.781 Q32.4621 616.683 35.2312 619.643 Q38.0002 622.571 43.0292 623.016 L42.9973 602.137 Z" fill="#000000" fill-rule="nonzero" fill-opacity="1" /><path clip-path="url(#clip880)" d="M42.4881 557.036 L64.0042 557.036 L64.0042 562.892 L42.679 562.892 Q37.6183 562.892 35.1038 564.866 Q32.5894 566.839 32.5894 570.786 Q32.5894 575.528 35.6131 578.265 Q38.6368 581.003 43.8567 581.003 L64.0042 581.003 L64.0042 586.891 L28.3562 586.891 L28.3562 581.003 L33.8944 581.003 Q30.6797 578.902 29.0883 576.069 Q27.4968 573.205 27.4968 569.481 Q27.4968 563.338 31.3163 560.187 Q35.1038 557.036 42.4881 557.036 Z" fill="#000000" fill-rule="nonzero" fill-opacity="1" /><path clip-path="url(#clip880)" d="M29.4065 522.629 L34.9447 522.629 Q33.6716 525.112 33.035 527.785 Q32.3984 530.459 32.3984 533.324 Q32.3984 537.684 33.7352 539.88 Q35.072 542.045 37.7456 542.045 Q39.7826 542.045 40.9603 540.485 Q42.1061 538.925 43.1565 534.215 L43.6021 532.21 Q44.9389 525.971 47.3897 523.361 Q49.8086 520.719 54.1691 520.719 Q59.1344 520.719 62.0308 524.666 Q64.9272 528.581 64.9272 535.456 Q64.9272 538.321 64.3543 541.44 Q63.8132 544.527 62.6992 547.965 L56.6518 547.965 Q58.3387 544.718 59.198 541.567 Q60.0256 538.416 60.0256 535.329 Q60.0256 531.191 58.6251 528.963 Q57.1929 526.735 54.6147 526.735 Q52.2276 526.735 50.9545 528.358 Q49.6813 529.95 48.5037 535.392 L48.0262 537.429 Q46.8804 542.872 44.5251 545.291 Q42.138 547.71 38.0002 547.71 Q32.9713 547.71 30.2341 544.145 Q27.4968 540.58 27.4968 534.024 Q27.4968 530.777 27.9743 527.913 Q28.4517 525.048 29.4065 522.629 Z" fill="#000000" fill-rule="nonzero" fill-opacity="1" /><path clip-path="url(#clip880)" d="M28.3562 511.394 L28.3562 505.537 L64.0042 505.537 L64.0042 511.394 L28.3562 511.394 M14.479 511.394 L14.479 505.537 L21.895 505.537 L21.895 511.394 L14.479 511.394 Z" fill="#000000" fill-rule="nonzero" fill-opacity="1" /><path clip-path="url(#clip880)" d="M18.2347 487.49 L28.3562 487.49 L28.3562 475.427 L32.9077 475.427 L32.9077 487.49 L52.2594 487.49 Q56.6199 487.49 57.8613 486.313 Q59.1026 485.103 59.1026 481.443 L59.1026 475.427 L64.0042 475.427 L64.0042 481.443 Q64.0042 488.223 61.4897 490.801 Q58.9434 493.379 52.2594 493.379 L32.9077 493.379 L32.9077 497.676 L28.3562 497.676 L28.3562 493.379 L18.2347 493.379 L18.2347 487.49 Z" fill="#000000" fill-rule="nonzero" fill-opacity="1" /><path clip-path="url(#clip880)" d="M67.3143 452.893 Q73.68 455.376 75.6216 457.731 Q77.5631 460.086 77.5631 464.033 L77.5631 468.712 L72.6615 468.712 L72.6615 465.274 Q72.6615 462.855 71.5157 461.518 Q70.3699 460.182 66.1048 458.558 L63.4312 457.508 L28.3562 471.926 L28.3562 465.72 L56.238 454.58 L28.3562 443.44 L28.3562 437.233 L67.3143 452.893 Z" fill="#000000" fill-rule="nonzero" fill-opacity="1" /><polyline clip-path="url(#clip882)" style="stroke:#009af9; stroke-linecap:round; stroke-linejoin:round; stroke-width:4; stroke-opacity:1; fill:none" points="307.043,1384.24 390.669,1384.22 432.482,1384.14 516.109,1384.24 599.735,1384.21 620.642,1384.22 641.549,1384.22 662.455,1384.2 683.362,1384.23 704.268,1384.24 725.175,1384.24 746.082,1384.21 766.988,1384.24 787.895,1384.11 808.802,1384.24 850.615,1384.2 871.521,1384.23 892.428,1384.19 913.335,1384.09 934.241,1384.12 955.148,1384.18 976.055,1384.19 996.961,1384.24 1017.87,1383.89 1038.77,1384.09 1059.68,1383.8 1080.59,1383.91 1101.49,1384.09 1122.4,1383.76 1143.31,1383.57 1164.21,1383.33 1185.12,1383.76 1206.03,1382.69 1226.93,1383.77 1247.84,1383.49 1268.75,1383.22 1289.65,1383.37 1310.56,1383.11 1331.47,1383.54 1352.37,1383.13 1373.28,1382.96 1394.19,1382.82 1415.09,1382.64 1436,1382.04 1456.91,1382.34 1477.81,1380.52 1498.72,1380.5 1519.63,1379.53 1540.53,1378.02 1561.44,1377.79 1582.35,1373.72 1603.25,1376.31 1624.16,1374.33 1645.07,1369.87 1665.97,1366.85 1686.88,1360.87 1707.79,1356.7 1728.69,1350.6 1749.6,1337.25 1770.51,1320.83 1791.41,1296.55 1812.32,1260.32 1833.23,1218.66 1854.13,1147.23 1875.04,1128.31 1895.95,1092.22 1916.85,1050.02 1937.76,1000.06 1958.67,970.084 1979.57,915.296 2000.48,865.37 2021.39,819.453 2042.29,753.85 2063.2,668.672 2084.11,555.9 2105.01,424.935 2125.92,324.291 2146.83,559.348 2167.73,941.557 2188.64,1134.22 2209.55,1274.91 2230.45,1344.85 2251.36,1373.12 2272.27,1381.47 2293.17,1383.44 "/>
<polyline clip-path="url(#clip882)" style="stroke:#e26f46; stroke-linecap:round; stroke-linejoin:round; stroke-width:4; stroke-opacity:1; fill:none" points="307.043,1384.24 390.669,1384.23 432.482,1384.23 516.109,1384.21 599.735,1384.19 620.642,1384.18 641.549,1384.17 662.455,1384.15 683.362,1384.14 704.268,1384.13 725.175,1384.11 746.082,1384.09 766.988,1384.06 787.895,1384.04 808.802,1384.01 850.615,1383.93 871.521,1383.88 892.428,1383.83 913.335,1383.77 934.241,1383.69 955.148,1383.61 976.055,1383.52 996.961,1383.41 1017.87,1383.29 1038.77,1383.15 1059.68,1382.98 1080.59,1382.8 1101.49,1382.59 1122.4,1382.34 1143.31,1382.06 1164.21,1381.74 1185.12,1381.37 1206.03,1380.94 1226.93,1380.45 1247.84,1379.89 1268.75,1379.25 1289.65,1378.51 1310.56,1377.67 1331.47,1376.7 1352.37,1375.58 1373.28,1374.31 1394.19,1372.84 1415.09,1371.16 1436,1369.23 1456.91,1367.01 1477.81,1364.47 1498.72,1361.55 1519.63,1358.2 1540.53,1354.36 1561.44,1349.95 1582.35,1344.9 1603.25,1339.09 1624.16,1332.43 1645.07,1324.79 1665.97,1316.02 1686.88,1305.96 1707.79,1294.41 1728.69,1281.16 1749.6,1265.96 1770.51,1248.52 1791.41,1228.5 1812.32,1205.53 1833.23,1179.18 1854.13,1148.94 1875.04,1114.25 1895.95,1074.45 1916.85,1028.78 1937.76,976.402 1958.67,916.323 1979.57,847.43 2000.48,768.464 2021.39,678.024 2042.29,574.612 2063.2,456.842 2084.11,324.324 2105.01,182.656 2125.92,86.1857 2146.83,355.651 2167.73,828.324 2188.64,1105.18 2209.55,1245.71 2230.45,1315.66 2251.36,1350.33 2272.27,1367.48 2293.17,1375.96 "/>
<path clip-path="url(#clip880)" d="M317.635 248.629 L862.469 248.629 L862.469 93.1086 L317.635 93.1086  Z" fill="#ffffff" fill-rule="evenodd" fill-opacity="1"/>
<polyline clip-path="url(#clip880)" style="stroke:#ffffff; stroke-linecap:round; stroke-linejoin:round; stroke-width:4; stroke-opacity:1; fill:none" points="317.635,248.629 862.469,248.629 862.469,93.1086 317.635,93.1086 317.635,248.629 "/>
<polyline clip-path="url(#clip880)" style="stroke:#009af9; stroke-linecap:round; stroke-linejoin:round; stroke-width:4; stroke-opacity:1; fill:none" points="341.027,144.949 481.381,144.949 "/>
<path clip-path="url(#clip880)" d="M504.773 127.669 L509.449 127.669 L509.449 141.835 L526.439 141.835 L526.439 127.669 L531.115 127.669 L531.115 162.229 L526.439 162.229 L526.439 145.77 L509.449 145.77 L509.449 162.229 L504.773 162.229 L504.773 127.669 Z" fill="#000000" fill-rule="nonzero" fill-opacity="1" /><path clip-path="url(#clip880)" d="M540.236 136.303 L544.495 136.303 L544.495 162.229 L540.236 162.229 L540.236 136.303 M540.236 126.21 L544.495 126.21 L544.495 131.604 L540.236 131.604 L540.236 126.21 Z" fill="#000000" fill-rule="nonzero" fill-opacity="1" /><path clip-path="url(#clip880)" d="M569.935 137.067 L569.935 141.094 Q568.129 140.169 566.185 139.706 Q564.24 139.243 562.157 139.243 Q558.985 139.243 557.388 140.215 Q555.814 141.187 555.814 143.131 Q555.814 144.613 556.948 145.469 Q558.083 146.303 561.509 147.067 L562.967 147.391 Q567.504 148.363 569.402 150.145 Q571.323 151.905 571.323 155.076 Q571.323 158.687 568.453 160.793 Q565.606 162.9 560.606 162.9 Q558.523 162.9 556.254 162.483 Q554.009 162.09 551.509 161.28 L551.509 156.881 Q553.87 158.108 556.161 158.733 Q558.453 159.335 560.698 159.335 Q563.708 159.335 565.328 158.317 Q566.948 157.275 566.948 155.4 Q566.948 153.664 565.768 152.738 Q564.61 151.812 560.652 150.956 L559.171 150.608 Q555.212 149.775 553.453 148.062 Q551.694 146.326 551.694 143.317 Q551.694 139.659 554.286 137.669 Q556.879 135.678 561.648 135.678 Q564.009 135.678 566.092 136.025 Q568.175 136.372 569.935 137.067 Z" fill="#000000" fill-rule="nonzero" fill-opacity="1" /><path clip-path="url(#clip880)" d="M582.319 128.942 L582.319 136.303 L591.092 136.303 L591.092 139.613 L582.319 139.613 L582.319 153.687 Q582.319 156.858 583.175 157.761 Q584.055 158.664 586.717 158.664 L591.092 158.664 L591.092 162.229 L586.717 162.229 Q581.786 162.229 579.911 160.4 Q578.036 158.548 578.036 153.687 L578.036 139.613 L574.911 139.613 L574.911 136.303 L578.036 136.303 L578.036 128.942 L582.319 128.942 Z" fill="#000000" fill-rule="nonzero" fill-opacity="1" /><path clip-path="url(#clip880)" d="M606.74 139.289 Q603.314 139.289 601.323 141.974 Q599.332 144.636 599.332 149.289 Q599.332 153.942 601.3 156.627 Q603.291 159.289 606.74 159.289 Q610.143 159.289 612.133 156.604 Q614.124 153.918 614.124 149.289 Q614.124 144.682 612.133 141.997 Q610.143 139.289 606.74 139.289 M606.74 135.678 Q612.295 135.678 615.467 139.289 Q618.638 142.9 618.638 149.289 Q618.638 155.655 615.467 159.289 Q612.295 162.9 606.74 162.9 Q601.161 162.9 597.99 159.289 Q594.842 155.655 594.842 149.289 Q594.842 142.9 597.99 139.289 Q601.161 135.678 606.74 135.678 Z" fill="#000000" fill-rule="nonzero" fill-opacity="1" /><path clip-path="url(#clip880)" d="M642.758 148.965 Q642.758 144.335 640.837 141.789 Q638.939 139.243 635.49 139.243 Q632.064 139.243 630.143 141.789 Q628.244 144.335 628.244 148.965 Q628.244 153.571 630.143 156.118 Q632.064 158.664 635.49 158.664 Q638.939 158.664 640.837 156.118 Q642.758 153.571 642.758 148.965 M647.017 159.011 Q647.017 165.631 644.078 168.849 Q641.138 172.09 635.073 172.09 Q632.828 172.09 630.837 171.742 Q628.846 171.418 626.971 170.724 L626.971 166.58 Q628.846 167.599 630.675 168.085 Q632.504 168.571 634.402 168.571 Q638.592 168.571 640.675 166.372 Q642.758 164.196 642.758 159.775 L642.758 157.668 Q641.439 159.96 639.379 161.094 Q637.318 162.229 634.448 162.229 Q629.68 162.229 626.763 158.594 Q623.846 154.96 623.846 148.965 Q623.846 142.946 626.763 139.312 Q629.68 135.678 634.448 135.678 Q637.318 135.678 639.379 136.812 Q641.439 137.946 642.758 140.238 L642.758 136.303 L647.017 136.303 L647.017 159.011 Z" fill="#000000" fill-rule="nonzero" fill-opacity="1" /><path clip-path="url(#clip880)" d="M670.814 140.284 Q670.096 139.868 669.24 139.682 Q668.406 139.474 667.388 139.474 Q663.777 139.474 661.832 141.835 Q659.911 144.173 659.911 148.571 L659.911 162.229 L655.628 162.229 L655.628 136.303 L659.911 136.303 L659.911 140.331 Q661.253 137.969 663.406 136.835 Q665.559 135.678 668.638 135.678 Q669.077 135.678 669.61 135.747 Q670.142 135.794 670.79 135.909 L670.814 140.284 Z" fill="#000000" fill-rule="nonzero" fill-opacity="1" /><path clip-path="url(#clip880)" d="M687.064 149.196 Q681.901 149.196 679.911 150.377 Q677.92 151.557 677.92 154.405 Q677.92 156.673 679.402 158.016 Q680.906 159.335 683.476 159.335 Q687.017 159.335 689.147 156.835 Q691.3 154.312 691.3 150.145 L691.3 149.196 L687.064 149.196 M695.559 147.437 L695.559 162.229 L691.3 162.229 L691.3 158.293 Q689.841 160.655 687.665 161.789 Q685.489 162.9 682.341 162.9 Q678.36 162.9 675.999 160.678 Q673.661 158.432 673.661 154.682 Q673.661 150.307 676.577 148.085 Q679.517 145.863 685.327 145.863 L691.3 145.863 L691.3 145.446 Q691.3 142.507 689.355 140.909 Q687.434 139.289 683.939 139.289 Q681.716 139.289 679.61 139.821 Q677.503 140.354 675.559 141.419 L675.559 137.483 Q677.897 136.581 680.096 136.141 Q682.295 135.678 684.378 135.678 Q690.003 135.678 692.781 138.594 Q695.559 141.511 695.559 147.437 Z" fill="#000000" fill-rule="nonzero" fill-opacity="1" /><path clip-path="url(#clip880)" d="M724.517 141.28 Q726.114 138.409 728.336 137.044 Q730.559 135.678 733.568 135.678 Q737.619 135.678 739.818 138.525 Q742.017 141.349 742.017 146.581 L742.017 162.229 L737.735 162.229 L737.735 146.719 Q737.735 142.993 736.415 141.187 Q735.096 139.382 732.387 139.382 Q729.077 139.382 727.156 141.581 Q725.235 143.78 725.235 147.576 L725.235 162.229 L720.952 162.229 L720.952 146.719 Q720.952 142.969 719.633 141.187 Q718.313 139.382 715.559 139.382 Q712.295 139.382 710.374 141.604 Q708.452 143.803 708.452 147.576 L708.452 162.229 L704.17 162.229 L704.17 136.303 L708.452 136.303 L708.452 140.331 Q709.911 137.946 711.948 136.812 Q713.985 135.678 716.786 135.678 Q719.61 135.678 721.577 137.113 Q723.568 138.548 724.517 141.28 Z" fill="#000000" fill-rule="nonzero" fill-opacity="1" /><polyline clip-path="url(#clip880)" style="stroke:#e26f46; stroke-linecap:round; stroke-linejoin:round; stroke-width:4; stroke-opacity:1; fill:none" points="341.027,196.789 481.381,196.789 "/>
<path clip-path="url(#clip880)" d="M509.449 183.351 L509.449 210.226 L515.097 210.226 Q522.25 210.226 525.56 206.985 Q528.893 203.745 528.893 196.754 Q528.893 189.809 525.56 186.592 Q522.25 183.351 515.097 183.351 L509.449 183.351 M504.773 179.509 L514.379 179.509 Q524.425 179.509 529.125 183.698 Q533.824 187.865 533.824 196.754 Q533.824 205.689 529.101 209.879 Q524.379 214.069 514.379 214.069 L504.773 214.069 L504.773 179.509 Z" fill="#000000" fill-rule="nonzero" fill-opacity="1" /><path clip-path="url(#clip880)" d="M541.092 188.143 L545.351 188.143 L545.351 214.069 L541.092 214.069 L541.092 188.143 M541.092 178.05 L545.351 178.05 L545.351 183.444 L541.092 183.444 L541.092 178.05 Z" fill="#000000" fill-rule="nonzero" fill-opacity="1" /><path clip-path="url(#clip880)" d="M570.791 188.907 L570.791 192.934 Q568.985 192.009 567.041 191.546 Q565.097 191.083 563.013 191.083 Q559.842 191.083 558.245 192.055 Q556.671 193.027 556.671 194.971 Q556.671 196.453 557.805 197.309 Q558.939 198.143 562.365 198.907 L563.823 199.231 Q568.36 200.203 570.259 201.985 Q572.18 203.745 572.18 206.916 Q572.18 210.527 569.31 212.633 Q566.462 214.74 561.462 214.74 Q559.379 214.74 557.11 214.323 Q554.865 213.93 552.365 213.12 L552.365 208.721 Q554.726 209.948 557.018 210.573 Q559.31 211.175 561.555 211.175 Q564.564 211.175 566.185 210.157 Q567.805 209.115 567.805 207.24 Q567.805 205.504 566.624 204.578 Q565.467 203.652 561.509 202.796 L560.027 202.448 Q556.069 201.615 554.31 199.902 Q552.55 198.166 552.55 195.157 Q552.55 191.499 555.143 189.509 Q557.735 187.518 562.504 187.518 Q564.865 187.518 566.948 187.865 Q569.032 188.212 570.791 188.907 Z" fill="#000000" fill-rule="nonzero" fill-opacity="1" /><path clip-path="url(#clip880)" d="M583.175 180.782 L583.175 188.143 L591.948 188.143 L591.948 191.453 L583.175 191.453 L583.175 205.527 Q583.175 208.698 584.032 209.601 Q584.911 210.504 587.573 210.504 L591.948 210.504 L591.948 214.069 L587.573 214.069 Q582.643 214.069 580.768 212.24 Q578.893 210.388 578.893 205.527 L578.893 191.453 L575.768 191.453 L575.768 188.143 L578.893 188.143 L578.893 180.782 L583.175 180.782 Z" fill="#000000" fill-rule="nonzero" fill-opacity="1" /><path clip-path="url(#clip880)" d="M612.573 192.124 Q611.856 191.708 610.999 191.522 Q610.166 191.314 609.147 191.314 Q605.536 191.314 603.592 193.675 Q601.67 196.013 601.67 200.411 L601.67 214.069 L597.388 214.069 L597.388 188.143 L601.67 188.143 L601.67 192.171 Q603.013 189.809 605.166 188.675 Q607.319 187.518 610.397 187.518 Q610.837 187.518 611.369 187.587 Q611.902 187.634 612.55 187.749 L612.573 192.124 Z" fill="#000000" fill-rule="nonzero" fill-opacity="1" /><path clip-path="url(#clip880)" d="M617.041 188.143 L621.3 188.143 L621.3 214.069 L617.041 214.069 L617.041 188.143 M617.041 178.05 L621.3 178.05 L621.3 183.444 L617.041 183.444 L617.041 178.05 Z" fill="#000000" fill-rule="nonzero" fill-opacity="1" /><path clip-path="url(#clip880)" d="M648.823 201.129 Q648.823 196.43 646.879 193.768 Q644.957 191.083 641.578 191.083 Q638.198 191.083 636.254 193.768 Q634.332 196.43 634.332 201.129 Q634.332 205.828 636.254 208.513 Q638.198 211.175 641.578 211.175 Q644.957 211.175 646.879 208.513 Q648.823 205.828 648.823 201.129 M634.332 192.078 Q635.675 189.763 637.712 188.652 Q639.772 187.518 642.619 187.518 Q647.341 187.518 650.281 191.268 Q653.244 195.018 653.244 201.129 Q653.244 207.24 650.281 210.99 Q647.341 214.74 642.619 214.74 Q639.772 214.74 637.712 213.629 Q635.675 212.495 634.332 210.18 L634.332 214.069 L630.05 214.069 L630.05 178.05 L634.332 178.05 L634.332 192.078 Z" fill="#000000" fill-rule="nonzero" fill-opacity="1" /><path clip-path="url(#clip880)" d="M659.865 203.837 L659.865 188.143 L664.124 188.143 L664.124 203.675 Q664.124 207.356 665.559 209.208 Q666.994 211.036 669.865 211.036 Q673.314 211.036 675.304 208.837 Q677.318 206.638 677.318 202.842 L677.318 188.143 L681.577 188.143 L681.577 214.069 L677.318 214.069 L677.318 210.087 Q675.767 212.448 673.707 213.606 Q671.67 214.74 668.962 214.74 Q664.494 214.74 662.179 211.962 Q659.865 209.184 659.865 203.837 M670.582 187.518 L670.582 187.518 Z" fill="#000000" fill-rule="nonzero" fill-opacity="1" /><path clip-path="url(#clip880)" d="M694.563 180.782 L694.563 188.143 L703.337 188.143 L703.337 191.453 L694.563 191.453 L694.563 205.527 Q694.563 208.698 695.42 209.601 Q696.3 210.504 698.962 210.504 L703.337 210.504 L703.337 214.069 L698.962 214.069 Q694.031 214.069 692.156 212.24 Q690.281 210.388 690.281 205.527 L690.281 191.453 L687.156 191.453 L687.156 188.143 L690.281 188.143 L690.281 180.782 L694.563 180.782 Z" fill="#000000" fill-rule="nonzero" fill-opacity="1" /><path clip-path="url(#clip880)" d="M708.938 188.143 L713.198 188.143 L713.198 214.069 L708.938 214.069 L708.938 188.143 M708.938 178.05 L713.198 178.05 L713.198 183.444 L708.938 183.444 L708.938 178.05 Z" fill="#000000" fill-rule="nonzero" fill-opacity="1" /><path clip-path="url(#clip880)" d="M732.156 191.129 Q728.73 191.129 726.739 193.814 Q724.748 196.476 724.748 201.129 Q724.748 205.782 726.716 208.467 Q728.707 211.129 732.156 211.129 Q735.559 211.129 737.549 208.444 Q739.54 205.758 739.54 201.129 Q739.54 196.522 737.549 193.837 Q735.559 191.129 732.156 191.129 M732.156 187.518 Q737.711 187.518 740.883 191.129 Q744.054 194.74 744.054 201.129 Q744.054 207.495 740.883 211.129 Q737.711 214.74 732.156 214.74 Q726.577 214.74 723.406 211.129 Q720.258 207.495 720.258 201.129 Q720.258 194.74 723.406 191.129 Q726.577 187.518 732.156 187.518 Z" fill="#000000" fill-rule="nonzero" fill-opacity="1" /><path clip-path="url(#clip880)" d="M772.665 198.421 L772.665 214.069 L768.406 214.069 L768.406 198.559 Q768.406 194.879 766.97 193.05 Q765.535 191.222 762.665 191.222 Q759.216 191.222 757.225 193.421 Q755.234 195.62 755.234 199.416 L755.234 214.069 L750.952 214.069 L750.952 188.143 L755.234 188.143 L755.234 192.171 Q756.762 189.833 758.822 188.675 Q760.906 187.518 763.614 187.518 Q768.082 187.518 770.373 190.296 Q772.665 193.05 772.665 198.421 Z" fill="#000000" fill-rule="nonzero" fill-opacity="1" /><path clip-path="url(#clip880)" d="M809.355 178.05 L809.355 181.592 L805.28 181.592 Q802.989 181.592 802.086 182.518 Q801.206 183.444 801.206 185.851 L801.206 188.143 L808.22 188.143 L808.22 191.453 L801.206 191.453 L801.206 214.069 L796.924 214.069 L796.924 191.453 L792.85 191.453 L792.85 188.143 L796.924 188.143 L796.924 186.337 Q796.924 182.009 798.938 180.041 Q800.952 178.05 805.327 178.05 L809.355 178.05 Z" fill="#000000" fill-rule="nonzero" fill-opacity="1" /><path clip-path="url(#clip880)" d="M812.919 188.143 L817.179 188.143 L817.179 214.069 L812.919 214.069 L812.919 188.143 M812.919 178.05 L817.179 178.05 L817.179 183.444 L812.919 183.444 L812.919 178.05 Z" fill="#000000" fill-rule="nonzero" fill-opacity="1" /><path clip-path="url(#clip880)" d="M830.303 180.782 L830.303 188.143 L839.077 188.143 L839.077 191.453 L830.303 191.453 L830.303 205.527 Q830.303 208.698 831.16 209.601 Q832.04 210.504 834.702 210.504 L839.077 210.504 L839.077 214.069 L834.702 214.069 Q829.771 214.069 827.896 212.24 Q826.021 210.388 826.021 205.527 L826.021 191.453 L822.896 191.453 L822.896 188.143 L826.021 188.143 L826.021 180.782 L830.303 180.782 Z" fill="#000000" fill-rule="nonzero" fill-opacity="1" /></svg>
