<?xml version="1.0" encoding="utf-8"?>
<svg xmlns="http://www.w3.org/2000/svg" xmlns:xlink="http://www.w3.org/1999/xlink" width="600" height="400" viewBox="0 0 2400 1600">
<defs>
  <clipPath id="clip840">
    <rect x="0" y="0" width="2400" height="1600"/>
  </clipPath>
</defs>
<path clip-path="url(#clip840)" d="M0 1600 L2400 1600 L2400 8.88178e-14 L0 8.88178e-14  Z" fill="#ffffff" fill-rule="evenodd" fill-opacity="1"/>
<defs>
  <clipPath id="clip841">
    <rect x="480" y="0" width="1681" height="1600"/>
  </clipPath>
</defs>
<path clip-path="url(#clip840)" d="M249.357 1552.76 L2352.76 1552.76 L2352.76 47.2441 L249.357 47.2441  Z" fill="#ffffff" fill-rule="evenodd" fill-opacity="1"/>
<defs>
  <clipPath id="clip842">
    <rect x="249" y="47" width="2104" height="1507"/>
  </clipPath>
</defs>
<polyline clip-path="url(#clip842)" style="stroke:#000000; stroke-linecap:round; stroke-linejoin:round; stroke-width:2; stroke-opacity:0.1; fill:none" points="249.357,1313.11 2352.76,1313.11 "/>
<polyline clip-path="url(#clip842)" style="stroke:#000000; stroke-linecap:round; stroke-linejoin:round; stroke-width:2; stroke-opacity:0.1; fill:none" points="249.357,902.622 2352.76,902.622 "/>
<polyline clip-path="url(#clip842)" style="stroke:#000000; stroke-linecap:round; stroke-linejoin:round; stroke-width:2; stroke-opacity:0.1; fill:none" points="249.357,492.133 2352.76,492.133 "/>
<polyline clip-path="url(#clip842)" style="stroke:#000000; stroke-linecap:round; stroke-linejoin:round; stroke-width:2; stroke-opacity:0.1; fill:none" points="249.357,81.6431 2352.76,81.6431 "/>
<polyline clip-path="url(#clip842)" style="stroke:#000000; stroke-linecap:round; stroke-linejoin:round; stroke-width:2; stroke-opacity:0.1; fill:none" points="249.357,1313.11 2352.76,1313.11 "/>
<polyline clip-path="url(#clip842)" style="stroke:#000000; stroke-linecap:round; stroke-linejoin:round; stroke-width:2; stroke-opacity:0.1; fill:none" points="249.357,902.622 2352.76,902.622 "/>
<polyline clip-path="url(#clip842)" style="stroke:#000000; stroke-linecap:round; stroke-linejoin:round; stroke-width:2; stroke-opacity:0.1; fill:none" points="249.357,492.133 2352.76,492.133 "/>
<polyline clip-path="url(#clip842)" style="stroke:#000000; stroke-linecap:round; stroke-linejoin:round; stroke-width:2; stroke-opacity:0.1; fill:none" points="249.357,81.6431 2352.76,81.6431 "/>
<polyline clip-path="url(#clip840)" style="stroke:#000000; stroke-linecap:round; stroke-linejoin:round; stroke-width:4; stroke-opacity:1; fill:none" points="249.357,1552.76 2352.76,1552.76 "/>
<polyline clip-path="url(#clip840)" style="stroke:#000000; stroke-linecap:round; stroke-linejoin:round; stroke-width:4; stroke-opacity:1; fill:none" points="249.357,47.2441 2352.76,47.2441 "/>
<polyline clip-path="url(#clip840)" style="stroke:#000000; stroke-linecap:round; stroke-linejoin:round; stroke-width:4; stroke-opacity:1; fill:none" points="249.357,1552.76 249.357,47.2441 "/>
<polyline clip-path="url(#clip840)" style="stroke:#000000; stroke-linecap:round; stroke-linejoin:round; stroke-width:4; stroke-opacity:1; fill:none" points="2352.76,1552.76 2352.76,47.2441 "/>
<polyline clip-path="url(#clip840)" style="stroke:#000000; stroke-linecap:round; stroke-linejoin:round; stroke-width:4; stroke-opacity:1; fill:none" points="249.357,1313.11 268.254,1313.11 "/>
<polyline clip-path="url(#clip840)" style="stroke:#000000; stroke-linecap:round; stroke-linejoin:round; stroke-width:4; stroke-opacity:1; fill:none" points="249.357,902.622 268.254,902.622 "/>
<polyline clip-path="url(#clip840)" style="stroke:#000000; stroke-linecap:round; stroke-linejoin:round; stroke-width:4; stroke-opacity:1; fill:none" points="249.357,492.133 268.254,492.133 "/>
<polyline clip-path="url(#clip840)" style="stroke:#000000; stroke-linecap:round; stroke-linejoin:round; stroke-width:4; stroke-opacity:1; fill:none" points="249.357,81.6431 268.254,81.6431 "/>
<polyline clip-path="url(#clip840)" style="stroke:#000000; stroke-linecap:round; stroke-linejoin:round; stroke-width:4; stroke-opacity:1; fill:none" points="2352.76,1313.11 2333.86,1313.11 "/>
<polyline clip-path="url(#clip840)" style="stroke:#000000; stroke-linecap:round; stroke-linejoin:round; stroke-width:4; stroke-opacity:1; fill:none" points="2352.76,902.622 2333.86,902.622 "/>
<polyline clip-path="url(#clip840)" style="stroke:#000000; stroke-linecap:round; stroke-linejoin:round; stroke-width:4; stroke-opacity:1; fill:none" points="2352.76,492.133 2333.86,492.133 "/>
<polyline clip-path="url(#clip840)" style="stroke:#000000; stroke-linecap:round; stroke-linejoin:round; stroke-width:4; stroke-opacity:1; fill:none" points="2352.76,81.6431 2333.86,81.6431 "/>
<path clip-path="url(#clip840)" d="M126.598 1311.25 Q123.45 1311.25 121.598 1313.4 Q119.769 1315.55 119.769 1319.3 Q119.769 1323.03 121.598 1325.21 Q123.45 1327.36 126.598 1327.36 Q129.746 1327.36 131.575 1325.21 Q133.427 1323.03 133.427 1319.3 Q133.427 1315.55 131.575 1313.4 Q129.746 1311.25 126.598 1311.25 M135.88 1296.6 L135.88 1300.86 Q134.121 1300.02 132.316 1299.58 Q130.533 1299.14 128.774 1299.14 Q124.144 1299.14 121.691 1302.27 Q119.26 1305.39 118.913 1311.71 Q120.279 1309.7 122.339 1308.63 Q124.399 1307.54 126.876 1307.54 Q132.084 1307.54 135.093 1310.72 Q138.126 1313.86 138.126 1319.3 Q138.126 1324.63 134.978 1327.85 Q131.83 1331.06 126.598 1331.06 Q120.603 1331.06 117.431 1326.48 Q114.26 1321.87 114.26 1313.15 Q114.26 1304.95 118.149 1300.09 Q122.038 1295.21 128.589 1295.21 Q130.348 1295.21 132.13 1295.55 Q133.936 1295.9 135.88 1296.6 Z" fill="#000000" fill-rule="nonzero" fill-opacity="1" /><path clip-path="url(#clip840)" d="M156.76 1311.25 Q153.612 1311.25 151.76 1313.4 Q149.931 1315.55 149.931 1319.3 Q149.931 1323.03 151.76 1325.21 Q153.612 1327.36 156.76 1327.36 Q159.908 1327.36 161.737 1325.21 Q163.589 1323.03 163.589 1319.3 Q163.589 1315.55 161.737 1313.4 Q159.908 1311.25 156.76 1311.25 M166.042 1296.6 L166.042 1300.86 Q164.283 1300.02 162.477 1299.58 Q160.695 1299.14 158.936 1299.14 Q154.306 1299.14 151.853 1302.27 Q149.422 1305.39 149.075 1311.71 Q150.441 1309.7 152.501 1308.63 Q154.561 1307.54 157.038 1307.54 Q162.246 1307.54 165.255 1310.72 Q168.288 1313.86 168.288 1319.3 Q168.288 1324.63 165.14 1327.85 Q161.991 1331.06 156.76 1331.06 Q150.765 1331.06 147.593 1326.48 Q144.422 1321.87 144.422 1313.15 Q144.422 1304.95 148.311 1300.09 Q152.2 1295.21 158.751 1295.21 Q160.51 1295.21 162.292 1295.55 Q164.098 1295.9 166.042 1296.6 Z" fill="#000000" fill-rule="nonzero" fill-opacity="1" /><path clip-path="url(#clip840)" d="M176.343 1324.51 L181.227 1324.51 L181.227 1330.39 L176.343 1330.39 L176.343 1324.51 Z" fill="#000000" fill-rule="nonzero" fill-opacity="1" /><path clip-path="url(#clip840)" d="M201.412 1298.91 Q197.801 1298.91 195.973 1302.48 Q194.167 1306.02 194.167 1313.15 Q194.167 1320.25 195.973 1323.82 Q197.801 1327.36 201.412 1327.36 Q205.047 1327.36 206.852 1323.82 Q208.681 1320.25 208.681 1313.15 Q208.681 1306.02 206.852 1302.48 Q205.047 1298.91 201.412 1298.91 M201.412 1295.21 Q207.223 1295.21 210.278 1299.81 Q213.357 1304.4 213.357 1313.15 Q213.357 1321.87 210.278 1326.48 Q207.223 1331.06 201.412 1331.06 Q195.602 1331.06 192.524 1326.48 Q189.468 1321.87 189.468 1313.15 Q189.468 1304.4 192.524 1299.81 Q195.602 1295.21 201.412 1295.21 Z" fill="#000000" fill-rule="nonzero" fill-opacity="1" /><path clip-path="url(#clip840)" d="M127.593 900.759 Q124.445 900.759 122.593 902.912 Q120.765 905.065 120.765 908.815 Q120.765 912.541 122.593 914.717 Q124.445 916.87 127.593 916.87 Q130.742 916.87 132.57 914.717 Q134.422 912.541 134.422 908.815 Q134.422 905.065 132.57 902.912 Q130.742 900.759 127.593 900.759 M136.876 886.106 L136.876 890.366 Q135.117 889.532 133.311 889.092 Q131.529 888.653 129.769 888.653 Q125.14 888.653 122.686 891.778 Q120.255 894.903 119.908 901.222 Q121.274 899.208 123.334 898.143 Q125.394 897.055 127.871 897.055 Q133.08 897.055 136.089 900.227 Q139.121 903.375 139.121 908.815 Q139.121 914.139 135.973 917.356 Q132.825 920.574 127.593 920.574 Q121.598 920.574 118.427 915.99 Q115.256 911.384 115.256 902.657 Q115.256 894.463 119.144 889.602 Q123.033 884.717 129.584 884.717 Q131.343 884.717 133.126 885.065 Q134.931 885.412 136.876 886.106 Z" fill="#000000" fill-rule="nonzero" fill-opacity="1" /><path clip-path="url(#clip840)" d="M157.755 900.759 Q154.607 900.759 152.755 902.912 Q150.927 905.065 150.927 908.815 Q150.927 912.541 152.755 914.717 Q154.607 916.87 157.755 916.87 Q160.903 916.87 162.732 914.717 Q164.584 912.541 164.584 908.815 Q164.584 905.065 162.732 902.912 Q160.903 900.759 157.755 900.759 M167.038 886.106 L167.038 890.366 Q165.278 889.532 163.473 889.092 Q161.69 888.653 159.931 888.653 Q155.302 888.653 152.848 891.778 Q150.417 894.903 150.07 901.222 Q151.436 899.208 153.496 898.143 Q155.556 897.055 158.033 897.055 Q163.241 897.055 166.251 900.227 Q169.283 903.375 169.283 908.815 Q169.283 914.139 166.135 917.356 Q162.987 920.574 157.755 920.574 Q151.76 920.574 148.589 915.99 Q145.417 911.384 145.417 902.657 Q145.417 894.463 149.306 889.602 Q153.195 884.717 159.746 884.717 Q161.505 884.717 163.288 885.065 Q165.093 885.412 167.038 886.106 Z" fill="#000000" fill-rule="nonzero" fill-opacity="1" /><path clip-path="url(#clip840)" d="M177.339 914.023 L182.223 914.023 L182.223 919.902 L177.339 919.902 L177.339 914.023 Z" fill="#000000" fill-rule="nonzero" fill-opacity="1" /><path clip-path="url(#clip840)" d="M192.454 885.342 L210.811 885.342 L210.811 889.278 L196.737 889.278 L196.737 897.75 Q197.755 897.403 198.774 897.24 Q199.792 897.055 200.811 897.055 Q206.598 897.055 209.977 900.227 Q213.357 903.398 213.357 908.815 Q213.357 914.393 209.885 917.495 Q206.412 920.574 200.093 920.574 Q197.917 920.574 195.649 920.203 Q193.403 919.833 190.996 919.092 L190.996 914.393 Q193.079 915.527 195.301 916.083 Q197.524 916.639 200 916.639 Q204.005 916.639 206.343 914.532 Q208.681 912.426 208.681 908.815 Q208.681 905.203 206.343 903.097 Q204.005 900.99 200 900.99 Q198.125 900.99 196.25 901.407 Q194.399 901.824 192.454 902.703 L192.454 885.342 Z" fill="#000000" fill-rule="nonzero" fill-opacity="1" /><path clip-path="url(#clip840)" d="M126.598 490.269 Q123.45 490.269 121.598 492.422 Q119.769 494.575 119.769 498.325 Q119.769 502.052 121.598 504.228 Q123.45 506.38 126.598 506.38 Q129.746 506.38 131.575 504.228 Q133.427 502.052 133.427 498.325 Q133.427 494.575 131.575 492.422 Q129.746 490.269 126.598 490.269 M135.88 475.617 L135.88 479.876 Q134.121 479.043 132.316 478.603 Q130.533 478.163 128.774 478.163 Q124.144 478.163 121.691 481.288 Q119.26 484.413 118.913 490.732 Q120.279 488.718 122.339 487.654 Q124.399 486.566 126.876 486.566 Q132.084 486.566 135.093 489.737 Q138.126 492.885 138.126 498.325 Q138.126 503.649 134.978 506.866 Q131.83 510.084 126.598 510.084 Q120.603 510.084 117.431 505.501 Q114.26 500.894 114.26 492.167 Q114.26 483.973 118.149 479.112 Q122.038 474.228 128.589 474.228 Q130.348 474.228 132.13 474.575 Q133.936 474.922 135.88 475.617 Z" fill="#000000" fill-rule="nonzero" fill-opacity="1" /><path clip-path="url(#clip840)" d="M145.001 474.853 L167.223 474.853 L167.223 476.843 L154.677 509.413 L149.792 509.413 L161.598 478.788 L145.001 478.788 L145.001 474.853 Z" fill="#000000" fill-rule="nonzero" fill-opacity="1" /><path clip-path="url(#clip840)" d="M176.343 503.533 L181.227 503.533 L181.227 509.413 L176.343 509.413 L176.343 503.533 Z" fill="#000000" fill-rule="nonzero" fill-opacity="1" /><path clip-path="url(#clip840)" d="M201.412 477.931 Q197.801 477.931 195.973 481.496 Q194.167 485.038 194.167 492.167 Q194.167 499.274 195.973 502.839 Q197.801 506.38 201.412 506.38 Q205.047 506.38 206.852 502.839 Q208.681 499.274 208.681 492.167 Q208.681 485.038 206.852 481.496 Q205.047 477.931 201.412 477.931 M201.412 474.228 Q207.223 474.228 210.278 478.834 Q213.357 483.418 213.357 492.167 Q213.357 500.894 210.278 505.501 Q207.223 510.084 201.412 510.084 Q195.602 510.084 192.524 505.501 Q189.468 500.894 189.468 492.167 Q189.468 483.418 192.524 478.834 Q195.602 474.228 201.412 474.228 Z" fill="#000000" fill-rule="nonzero" fill-opacity="1" /><path clip-path="url(#clip840)" d="M127.593 79.7797 Q124.445 79.7797 122.593 81.9325 Q120.765 84.0852 120.765 87.8352 Q120.765 91.5621 122.593 93.738 Q124.445 95.8907 127.593 95.8907 Q130.742 95.8907 132.57 93.738 Q134.422 91.5621 134.422 87.8352 Q134.422 84.0852 132.57 81.9325 Q130.742 79.7797 127.593 79.7797 M136.876 65.127 L136.876 69.3862 Q135.117 68.5529 133.311 68.1131 Q131.529 67.6733 129.769 67.6733 Q125.14 67.6733 122.686 70.7983 Q120.255 73.9233 119.908 80.2427 Q121.274 78.2288 123.334 77.164 Q125.394 76.076 127.871 76.076 Q133.08 76.076 136.089 79.2473 Q139.121 82.3954 139.121 87.8352 Q139.121 93.1593 135.973 96.3768 Q132.825 99.5944 127.593 99.5944 Q121.598 99.5944 118.427 95.0111 Q115.256 90.4047 115.256 81.6778 Q115.256 73.4834 119.144 68.6224 Q123.033 63.7381 129.584 63.7381 Q131.343 63.7381 133.126 64.0854 Q134.931 64.4326 136.876 65.127 Z" fill="#000000" fill-rule="nonzero" fill-opacity="1" /><path clip-path="url(#clip840)" d="M145.996 64.3631 L168.218 64.3631 L168.218 66.3539 L155.672 98.9231 L150.788 98.9231 L162.593 68.2983 L145.996 68.2983 L145.996 64.3631 Z" fill="#000000" fill-rule="nonzero" fill-opacity="1" /><path clip-path="url(#clip840)" d="M177.339 93.0435 L182.223 93.0435 L182.223 98.9231 L177.339 98.9231 L177.339 93.0435 Z" fill="#000000" fill-rule="nonzero" fill-opacity="1" /><path clip-path="url(#clip840)" d="M192.454 64.3631 L210.811 64.3631 L210.811 68.2983 L196.737 68.2983 L196.737 76.7705 Q197.755 76.4232 198.774 76.2612 Q199.792 76.076 200.811 76.076 Q206.598 76.076 209.977 79.2473 Q213.357 82.4186 213.357 87.8352 Q213.357 93.4139 209.885 96.5157 Q206.412 99.5944 200.093 99.5944 Q197.917 99.5944 195.649 99.2241 Q193.403 98.8537 190.996 98.1129 L190.996 93.4139 Q193.079 94.5481 195.301 95.1037 Q197.524 95.6593 200 95.6593 Q204.005 95.6593 206.343 93.5528 Q208.681 91.4463 208.681 87.8352 Q208.681 84.2241 206.343 82.1177 Q204.005 80.0112 200 80.0112 Q198.125 80.0112 196.25 80.4279 Q194.399 80.8445 192.454 81.7241 L192.454 64.3631 Z" fill="#000000" fill-rule="nonzero" fill-opacity="1" /><path clip-path="url(#clip840)" d="M22.818 922.094 L46.4666 930.815 L46.4666 913.341 L22.818 922.094 M16.4842 925.723 L16.4842 918.434 L64.0042 900.324 L64.0042 907.008 L51.8138 911.336 L51.8138 932.757 L64.0042 937.085 L64.0042 943.865 L16.4842 925.723 Z" fill="#000000" fill-rule="nonzero" fill-opacity="1" /><path clip-path="url(#clip840)" d="M45.7664 870.182 Q39.4007 870.182 35.8996 872.824 Q32.3984 875.434 32.3984 880.176 Q32.3984 884.887 35.8996 887.528 Q39.4007 890.138 45.7664 890.138 Q52.1003 890.138 55.6014 887.528 Q59.1026 884.887 59.1026 880.176 Q59.1026 875.434 55.6014 872.824 Q52.1003 870.182 45.7664 870.182 M59.58 864.325 Q68.683 864.325 73.1071 868.368 Q77.5631 872.41 77.5631 880.749 Q77.5631 883.836 77.0857 886.574 Q76.6401 889.311 75.6852 891.889 L69.9879 891.889 Q71.3884 889.311 72.0568 886.796 Q72.7252 884.282 72.7252 881.672 Q72.7252 875.911 69.7015 873.046 Q66.7096 870.182 60.6303 870.182 L57.7339 870.182 Q60.885 871.996 62.4446 874.829 Q64.0042 877.662 64.0042 881.608 Q64.0042 888.165 59.0071 892.175 Q54.01 896.186 45.7664 896.186 Q37.491 896.186 32.4939 892.175 Q27.4968 888.165 27.4968 881.608 Q27.4968 877.662 29.0564 874.829 Q30.616 871.996 33.7671 870.182 L28.3562 870.182 L28.3562 864.325 L59.58 864.325 Z" fill="#000000" fill-rule="nonzero" fill-opacity="1" /><path clip-path="url(#clip840)" d="M44.7161 821.771 L47.5806 821.771 L47.5806 848.698 Q53.6281 848.316 56.8109 845.069 Q59.9619 841.791 59.9619 835.966 Q59.9619 832.592 59.1344 829.441 Q58.3069 826.259 56.6518 823.139 L62.1899 823.139 Q63.5267 826.29 64.227 829.601 Q64.9272 832.911 64.9272 836.316 Q64.9272 844.846 59.9619 849.843 Q54.9967 854.809 46.5303 854.809 Q37.7774 854.809 32.6531 850.098 Q27.4968 845.356 27.4968 837.335 Q27.4968 830.142 32.1438 825.972 Q36.7589 821.771 44.7161 821.771 M42.9973 827.627 Q38.1912 827.691 35.3266 830.333 Q32.4621 832.943 32.4621 837.271 Q32.4621 842.173 35.2312 845.133 Q38.0002 848.061 43.0292 848.507 L42.9973 827.627 Z" fill="#000000" fill-rule="nonzero" fill-opacity="1" /><path clip-path="url(#clip840)" d="M14.5426 777.37 Q21.8632 781.635 29.0246 783.704 Q36.186 785.773 43.5384 785.773 Q50.8908 785.773 58.1159 783.704 Q65.3091 781.603 72.5979 777.37 L72.5979 782.462 Q65.1182 787.237 57.8931 789.624 Q50.668 791.979 43.5384 791.979 Q36.4406 791.979 29.2474 789.624 Q22.0542 787.269 14.5426 782.462 L14.5426 777.37 Z" fill="#000000" fill-rule="nonzero" fill-opacity="1" /><path clip-path="url(#clip840)" d="M16.4842 765.752 L16.4842 756.172 L48.8219 744.045 L16.4842 731.855 L16.4842 722.275 L64.0042 722.275 L64.0042 728.545 L22.277 728.545 L54.8694 740.799 L54.8694 747.26 L22.277 759.514 L64.0042 759.514 L64.0042 765.752 L16.4842 765.752 Z" fill="#000000" fill-rule="nonzero" fill-opacity="1" /><path clip-path="url(#clip840)" d="M46.0847 693.565 Q46.0847 700.663 47.7079 703.4 Q49.3312 706.138 53.2461 706.138 Q56.3653 706.138 58.2114 704.101 Q60.0256 702.032 60.0256 698.499 Q60.0256 693.629 56.5881 690.701 Q53.1188 687.741 47.3897 687.741 L46.0847 687.741 L46.0847 693.565 M43.6657 681.884 L64.0042 681.884 L64.0042 687.741 L58.5933 687.741 Q61.8398 689.746 63.3994 692.738 Q64.9272 695.73 64.9272 700.058 Q64.9272 705.533 61.8716 708.779 Q58.7843 711.994 53.6281 711.994 Q47.6125 711.994 44.5569 707.984 Q41.5014 703.941 41.5014 695.953 L41.5014 687.741 L40.9285 687.741 Q36.8862 687.741 34.6901 690.414 Q32.4621 693.056 32.4621 697.862 Q32.4621 700.918 33.1941 703.814 Q33.9262 706.711 35.3903 709.384 L29.9795 709.384 Q28.7381 706.169 28.1334 703.146 Q27.4968 700.122 27.4968 697.257 Q27.4968 689.523 31.5072 685.704 Q35.5176 681.884 43.6657 681.884 Z" fill="#000000" fill-rule="nonzero" fill-opacity="1" /><path clip-path="url(#clip840)" d="M14.5426 670.744 L14.5426 665.652 Q22.0542 660.877 29.2474 658.522 Q36.4406 656.135 43.5384 656.135 Q50.668 656.135 57.8931 658.522 Q65.1182 660.877 72.5979 665.652 L72.5979 670.744 Q65.3091 666.511 58.1159 664.442 Q50.8908 662.342 43.5384 662.342 Q36.186 662.342 29.0246 664.442 Q21.8632 666.511 14.5426 670.744 Z" fill="#000000" fill-rule="nonzero" fill-opacity="1" /><polyline clip-path="url(#clip842)" style="stroke:#009af9; stroke-linecap:round; stroke-linejoin:round; stroke-width:4; stroke-opacity:1; fill:none" points="308.887,1189.97 308.887,1009.35 "/>
<polyline clip-path="url(#clip842)" style="stroke:#009af9; stroke-linecap:round; stroke-linejoin:round; stroke-width:4; stroke-opacity:1; fill:none" points="705.755,1165.34 705.755,836.944 "/>
<polyline clip-path="url(#clip842)" style="stroke:#009af9; stroke-linecap:round; stroke-linejoin:round; stroke-width:4; stroke-opacity:1; fill:none" points="1102.62,1024.95 1102.62,952.702 "/>
<polyline clip-path="url(#clip842)" style="stroke:#009af9; stroke-linecap:round; stroke-linejoin:round; stroke-width:4; stroke-opacity:1; fill:none" points="1499.49,1148.92 1499.49,722.007 "/>
<polyline clip-path="url(#clip842)" style="stroke:#009af9; stroke-linecap:round; stroke-linejoin:round; stroke-width:4; stroke-opacity:1; fill:none" points="1896.36,1510.15 1896.36,278.678 "/>
<polyline clip-path="url(#clip842)" style="stroke:#009af9; stroke-linecap:round; stroke-linejoin:round; stroke-width:4; stroke-opacity:1; fill:none" points="2293.23,1485.52 2293.23,89.8529 "/>
<line clip-path="url(#clip842)" x1="324.887" y1="1189.97" x2="292.887" y2="1189.97" style="stroke:#009af9; stroke-width:4; stroke-opacity:1"/>
<line clip-path="url(#clip842)" x1="324.887" y1="1009.35" x2="292.887" y2="1009.35" style="stroke:#009af9; stroke-width:4; stroke-opacity:1"/>
<line clip-path="url(#clip842)" x1="721.755" y1="1165.34" x2="689.755" y2="1165.34" style="stroke:#009af9; stroke-width:4; stroke-opacity:1"/>
<line clip-path="url(#clip842)" x1="721.755" y1="836.944" x2="689.755" y2="836.944" style="stroke:#009af9; stroke-width:4; stroke-opacity:1"/>
<line clip-path="url(#clip842)" x1="1118.62" y1="1024.95" x2="1086.62" y2="1024.95" style="stroke:#009af9; stroke-width:4; stroke-opacity:1"/>
<line clip-path="url(#clip842)" x1="1118.62" y1="952.702" x2="1086.62" y2="952.702" style="stroke:#009af9; stroke-width:4; stroke-opacity:1"/>
<line clip-path="url(#clip842)" x1="1515.49" y1="1148.92" x2="1483.49" y2="1148.92" style="stroke:#009af9; stroke-width:4; stroke-opacity:1"/>
<line clip-path="url(#clip842)" x1="1515.49" y1="722.007" x2="1483.49" y2="722.007" style="stroke:#009af9; stroke-width:4; stroke-opacity:1"/>
<line clip-path="url(#clip842)" x1="1912.36" y1="1510.15" x2="1880.36" y2="1510.15" style="stroke:#009af9; stroke-width:4; stroke-opacity:1"/>
<line clip-path="url(#clip842)" x1="1912.36" y1="278.678" x2="1880.36" y2="278.678" style="stroke:#009af9; stroke-width:4; stroke-opacity:1"/>
<line clip-path="url(#clip842)" x1="2309.23" y1="1485.52" x2="2277.23" y2="1485.52" style="stroke:#009af9; stroke-width:4; stroke-opacity:1"/>
<line clip-path="url(#clip842)" x1="2309.23" y1="89.8529" x2="2277.23" y2="89.8529" style="stroke:#009af9; stroke-width:4; stroke-opacity:1"/>
<circle clip-path="url(#clip842)" cx="308.887" cy="1099.66" r="14.4" fill="#009af9" fill-rule="evenodd" fill-opacity="1" stroke="none"/>
<circle clip-path="url(#clip842)" cx="705.755" cy="1001.14" r="14.4" fill="#009af9" fill-rule="evenodd" fill-opacity="1" stroke="none"/>
<circle clip-path="url(#clip842)" cx="1102.62" cy="988.825" r="14.4" fill="#009af9" fill-rule="evenodd" fill-opacity="1" stroke="none"/>
<circle clip-path="url(#clip842)" cx="1499.49" cy="935.462" r="14.4" fill="#009af9" fill-rule="evenodd" fill-opacity="1" stroke="none"/>
<circle clip-path="url(#clip842)" cx="1896.36" cy="894.413" r="14.4" fill="#009af9" fill-rule="evenodd" fill-opacity="1" stroke="none"/>
<circle clip-path="url(#clip842)" cx="2293.23" cy="787.685" r="14.4" fill="#009af9" fill-rule="evenodd" fill-opacity="1" stroke="none"/>
<path clip-path="url(#clip842)" d="M308.887 1135.95 L705.755 1135.95 L1102.62 1135.95 L1499.49 1135.95 L1896.36 1135.95 L2293.23 1135.95 L2293.23 983.766 L1896.36 983.766 L1499.49 983.766 L1102.62 983.766 L705.755 983.766 L308.887 983.766  Z" fill="#e26f46" fill-rule="evenodd" fill-opacity="0.6"/>
<polyline clip-path="url(#clip842)" style="stroke:#e26f46; stroke-linecap:round; stroke-linejoin:round; stroke-width:4; stroke-opacity:0; fill:none" points="308.887,1135.95 705.755,1135.95 1102.62,1135.95 1499.49,1135.95 1896.36,1135.95 2293.23,1135.95 "/>
<polyline clip-path="url(#clip842)" style="stroke:#000000; stroke-linecap:round; stroke-linejoin:round; stroke-width:4; stroke-opacity:1; fill:none" stroke-dasharray="2, 4" points="308.887,1040.24 705.755,1040.24 1102.62,1040.24 1499.49,1040.24 1896.36,1040.24 2293.23,1040.24 "/>
<path clip-path="url(#clip840)" d="M319.47 252.948 L1325.69 252.948 L1325.69 97.4278 L319.47 97.4278  Z" fill="#ffffff" fill-rule="evenodd" fill-opacity="1"/>
<polyline clip-path="url(#clip840)" style="stroke:#ffffff; stroke-linecap:round; stroke-linejoin:round; stroke-width:4; stroke-opacity:1; fill:none" points="319.47,252.948 1325.69,252.948 1325.69,97.4278 319.47,97.4278 319.47,252.948 "/>
<circle clip-path="url(#clip840)" cx="412.955" cy="149.268" r="20.48" fill="#009af9" fill-rule="evenodd" fill-opacity="1" stroke="none"/>
<path clip-path="url(#clip840)" d="M511.115 135.83 L511.115 162.705 L516.763 162.705 Q523.916 162.705 527.226 159.465 Q530.559 156.224 530.559 149.233 Q530.559 142.289 527.226 139.071 Q523.916 135.83 516.763 135.83 L511.115 135.83 M506.439 131.988 L516.045 131.988 Q526.092 131.988 530.791 136.178 Q535.49 140.344 535.49 149.233 Q535.49 158.168 530.768 162.358 Q526.045 166.548 516.045 166.548 L506.439 166.548 L506.439 131.988 Z" fill="#000000" fill-rule="nonzero" fill-opacity="1" /><path clip-path="url(#clip840)" d="M554.541 153.515 Q549.379 153.515 547.388 154.696 Q545.397 155.877 545.397 158.724 Q545.397 160.992 546.879 162.335 Q548.383 163.654 550.953 163.654 Q554.494 163.654 556.624 161.154 Q558.777 158.631 558.777 154.465 L558.777 153.515 L554.541 153.515 M563.036 151.756 L563.036 166.548 L558.777 166.548 L558.777 162.613 Q557.318 164.974 555.142 166.108 Q552.966 167.219 549.818 167.219 Q545.837 167.219 543.476 164.997 Q541.138 162.752 541.138 159.002 Q541.138 154.627 544.054 152.404 Q546.994 150.182 552.804 150.182 L558.777 150.182 L558.777 149.766 Q558.777 146.826 556.832 145.228 Q554.911 143.608 551.416 143.608 Q549.193 143.608 547.087 144.141 Q544.98 144.673 543.036 145.738 L543.036 141.803 Q545.374 140.9 547.573 140.46 Q549.772 139.997 551.855 139.997 Q557.48 139.997 560.258 142.914 Q563.036 145.83 563.036 151.756 Z" fill="#000000" fill-rule="nonzero" fill-opacity="1" /><path clip-path="url(#clip840)" d="M576.022 133.261 L576.022 140.622 L584.795 140.622 L584.795 143.932 L576.022 143.932 L576.022 158.006 Q576.022 161.177 576.878 162.08 Q577.758 162.983 580.42 162.983 L584.795 162.983 L584.795 166.548 L580.42 166.548 Q575.49 166.548 573.615 164.719 Q571.74 162.867 571.74 158.006 L571.74 143.932 L568.615 143.932 L568.615 140.622 L571.74 140.622 L571.74 133.261 L576.022 133.261 Z" fill="#000000" fill-rule="nonzero" fill-opacity="1" /><path clip-path="url(#clip840)" d="M602.179 153.515 Q597.017 153.515 595.026 154.696 Q593.036 155.877 593.036 158.724 Q593.036 160.992 594.517 162.335 Q596.022 163.654 598.591 163.654 Q602.133 163.654 604.263 161.154 Q606.415 158.631 606.415 154.465 L606.415 153.515 L602.179 153.515 M610.675 151.756 L610.675 166.548 L606.415 166.548 L606.415 162.613 Q604.957 164.974 602.781 166.108 Q600.605 167.219 597.457 167.219 Q593.476 167.219 591.114 164.997 Q588.776 162.752 588.776 159.002 Q588.776 154.627 591.693 152.404 Q594.633 150.182 600.443 150.182 L606.415 150.182 L606.415 149.766 Q606.415 146.826 604.471 145.228 Q602.55 143.608 599.054 143.608 Q596.832 143.608 594.726 144.141 Q592.619 144.673 590.675 145.738 L590.675 141.803 Q593.013 140.9 595.212 140.46 Q597.411 139.997 599.494 139.997 Q605.119 139.997 607.897 142.914 Q610.675 145.83 610.675 151.756 Z" fill="#000000" fill-rule="nonzero" fill-opacity="1" /><path clip-path="url(#clip840)" d="M644.748 130.576 Q641.647 135.9 640.142 141.108 Q638.637 146.316 638.637 151.664 Q638.637 157.011 640.142 162.265 Q641.67 167.497 644.748 172.798 L641.045 172.798 Q637.573 167.358 635.836 162.103 Q634.123 156.849 634.123 151.664 Q634.123 146.502 635.836 141.27 Q637.549 136.039 641.045 130.576 L644.748 130.576 Z" fill="#000000" fill-rule="nonzero" fill-opacity="1" /><path clip-path="url(#clip840)" d="M663.058 143.608 Q659.633 143.608 657.642 146.293 Q655.651 148.955 655.651 153.608 Q655.651 158.261 657.619 160.946 Q659.609 163.608 663.058 163.608 Q666.461 163.608 668.452 160.923 Q670.443 158.238 670.443 153.608 Q670.443 149.002 668.452 146.316 Q666.461 143.608 663.058 143.608 M663.058 139.997 Q668.614 139.997 671.785 143.608 Q674.957 147.219 674.957 153.608 Q674.957 159.974 671.785 163.608 Q668.614 167.219 663.058 167.219 Q657.48 167.219 654.309 163.608 Q651.16 159.974 651.16 153.608 Q651.16 147.219 654.309 143.608 Q657.48 139.997 663.058 139.997 Z" fill="#000000" fill-rule="nonzero" fill-opacity="1" /><path clip-path="url(#clip840)" d="M700.628 153.608 Q700.628 148.909 698.683 146.247 Q696.762 143.562 693.382 143.562 Q690.003 143.562 688.058 146.247 Q686.137 148.909 686.137 153.608 Q686.137 158.307 688.058 160.992 Q690.003 163.654 693.382 163.654 Q696.762 163.654 698.683 160.992 Q700.628 158.307 700.628 153.608 M686.137 144.557 Q687.48 142.242 689.517 141.131 Q691.577 139.997 694.424 139.997 Q699.146 139.997 702.086 143.747 Q705.049 147.497 705.049 153.608 Q705.049 159.719 702.086 163.469 Q699.146 167.219 694.424 167.219 Q691.577 167.219 689.517 166.108 Q687.48 164.974 686.137 162.659 L686.137 166.548 L681.855 166.548 L681.855 130.529 L686.137 130.529 L686.137 144.557 Z" fill="#000000" fill-rule="nonzero" fill-opacity="1" /><path clip-path="url(#clip840)" d="M728.637 141.386 L728.637 145.414 Q726.831 144.488 724.887 144.025 Q722.942 143.562 720.859 143.562 Q717.688 143.562 716.091 144.534 Q714.517 145.506 714.517 147.451 Q714.517 148.932 715.651 149.789 Q716.785 150.622 720.211 151.386 L721.669 151.71 Q726.206 152.682 728.104 154.465 Q730.026 156.224 730.026 159.395 Q730.026 163.006 727.155 165.113 Q724.308 167.219 719.308 167.219 Q717.225 167.219 714.956 166.802 Q712.711 166.409 710.211 165.599 L710.211 161.201 Q712.572 162.427 714.864 163.052 Q717.155 163.654 719.401 163.654 Q722.41 163.654 724.03 162.636 Q725.651 161.594 725.651 159.719 Q725.651 157.983 724.47 157.057 Q723.313 156.131 719.354 155.275 L717.873 154.928 Q713.915 154.094 712.155 152.381 Q710.396 150.645 710.396 147.636 Q710.396 143.978 712.989 141.988 Q715.581 139.997 720.35 139.997 Q722.711 139.997 724.794 140.344 Q726.878 140.691 728.637 141.386 Z" fill="#000000" fill-rule="nonzero" fill-opacity="1" /><path clip-path="url(#clip840)" d="M758.984 152.52 L758.984 154.603 L739.401 154.603 Q739.678 159.002 742.04 161.316 Q744.424 163.608 748.66 163.608 Q751.114 163.608 753.405 163.006 Q755.72 162.404 757.989 161.201 L757.989 165.228 Q755.697 166.201 753.289 166.71 Q750.882 167.219 748.405 167.219 Q742.202 167.219 738.567 163.608 Q734.956 159.997 734.956 153.84 Q734.956 147.474 738.382 143.747 Q741.831 139.997 747.665 139.997 Q752.896 139.997 755.928 143.377 Q758.984 146.733 758.984 152.52 M754.725 151.27 Q754.678 147.775 752.757 145.691 Q750.859 143.608 747.711 143.608 Q744.146 143.608 741.993 145.622 Q739.864 147.636 739.54 151.293 L754.725 151.27 Z" fill="#000000" fill-rule="nonzero" fill-opacity="1" /><path clip-path="url(#clip840)" d="M780.998 144.603 Q780.28 144.187 779.424 144.002 Q778.59 143.793 777.572 143.793 Q773.961 143.793 772.016 146.154 Q770.095 148.492 770.095 152.89 L770.095 166.548 L765.813 166.548 L765.813 140.622 L770.095 140.622 L770.095 144.65 Q771.438 142.289 773.59 141.154 Q775.743 139.997 778.822 139.997 Q779.262 139.997 779.794 140.066 Q780.326 140.113 780.975 140.229 L780.998 144.603 Z" fill="#000000" fill-rule="nonzero" fill-opacity="1" /><path clip-path="url(#clip840)" d="M782.41 140.622 L786.924 140.622 L795.025 162.381 L803.127 140.622 L807.641 140.622 L797.919 166.548 L792.132 166.548 L782.41 140.622 Z" fill="#000000" fill-rule="nonzero" fill-opacity="1" /><path clip-path="url(#clip840)" d="M835.696 152.52 L835.696 154.603 L816.113 154.603 Q816.391 159.002 818.752 161.316 Q821.136 163.608 825.372 163.608 Q827.826 163.608 830.118 163.006 Q832.433 162.404 834.701 161.201 L834.701 165.228 Q832.409 166.201 830.002 166.71 Q827.595 167.219 825.118 167.219 Q818.914 167.219 815.28 163.608 Q811.669 159.997 811.669 153.84 Q811.669 147.474 815.095 143.747 Q818.544 139.997 824.377 139.997 Q829.609 139.997 832.641 143.377 Q835.696 146.733 835.696 152.52 M831.437 151.27 Q831.391 147.775 829.47 145.691 Q827.571 143.608 824.423 143.608 Q820.859 143.608 818.706 145.622 Q816.576 147.636 816.252 151.293 L831.437 151.27 Z" fill="#000000" fill-rule="nonzero" fill-opacity="1" /><path clip-path="url(#clip840)" d="M859.747 144.557 L859.747 130.529 L864.006 130.529 L864.006 166.548 L859.747 166.548 L859.747 162.659 Q858.405 164.974 856.344 166.108 Q854.307 167.219 851.437 167.219 Q846.738 167.219 843.775 163.469 Q840.835 159.719 840.835 153.608 Q840.835 147.497 843.775 143.747 Q846.738 139.997 851.437 139.997 Q854.307 139.997 856.344 141.131 Q858.405 142.242 859.747 144.557 M845.233 153.608 Q845.233 158.307 847.155 160.992 Q849.099 163.654 852.479 163.654 Q855.858 163.654 857.803 160.992 Q859.747 158.307 859.747 153.608 Q859.747 148.909 857.803 146.247 Q855.858 143.562 852.479 143.562 Q849.099 143.562 847.155 146.247 Q845.233 148.909 845.233 153.608 Z" fill="#000000" fill-rule="nonzero" fill-opacity="1" /><path clip-path="url(#clip840)" d="M899.631 153.515 Q894.469 153.515 892.479 154.696 Q890.488 155.877 890.488 158.724 Q890.488 160.992 891.969 162.335 Q893.474 163.654 896.043 163.654 Q899.585 163.654 901.715 161.154 Q903.867 158.631 903.867 154.465 L903.867 153.515 L899.631 153.515 M908.127 151.756 L908.127 166.548 L903.867 166.548 L903.867 162.613 Q902.409 164.974 900.233 166.108 Q898.057 167.219 894.909 167.219 Q890.928 167.219 888.567 164.997 Q886.229 162.752 886.229 159.002 Q886.229 154.627 889.145 152.404 Q892.085 150.182 897.895 150.182 L903.867 150.182 L903.867 149.766 Q903.867 146.826 901.923 145.228 Q900.002 143.608 896.506 143.608 Q894.284 143.608 892.178 144.141 Q890.071 144.673 888.127 145.738 L888.127 141.803 Q890.465 140.9 892.664 140.46 Q894.863 139.997 896.946 139.997 Q902.571 139.997 905.349 142.914 Q908.127 145.83 908.127 151.756 Z" fill="#000000" fill-rule="nonzero" fill-opacity="1" /><path clip-path="url(#clip840)" d="M933.96 153.284 Q933.96 148.654 932.039 146.108 Q930.14 143.562 926.691 143.562 Q923.265 143.562 921.344 146.108 Q919.446 148.654 919.446 153.284 Q919.446 157.89 921.344 160.437 Q923.265 162.983 926.691 162.983 Q930.14 162.983 932.039 160.437 Q933.96 157.89 933.96 153.284 M938.219 163.33 Q938.219 169.951 935.279 173.168 Q932.339 176.409 926.275 176.409 Q924.029 176.409 922.039 176.062 Q920.048 175.738 918.173 175.043 L918.173 170.9 Q920.048 171.918 921.877 172.404 Q923.705 172.89 925.603 172.89 Q929.793 172.89 931.876 170.691 Q933.96 168.515 933.96 164.094 L933.96 161.988 Q932.64 164.279 930.58 165.414 Q928.52 166.548 925.65 166.548 Q920.881 166.548 917.965 162.914 Q915.048 159.279 915.048 153.284 Q915.048 147.266 917.965 143.631 Q920.881 139.997 925.65 139.997 Q928.52 139.997 930.58 141.131 Q932.64 142.266 933.96 144.557 L933.96 140.622 L938.219 140.622 L938.219 163.33 Z" fill="#000000" fill-rule="nonzero" fill-opacity="1" /><path clip-path="url(#clip840)" d="M969.168 152.52 L969.168 154.603 L949.585 154.603 Q949.863 159.002 952.224 161.316 Q954.608 163.608 958.844 163.608 Q961.298 163.608 963.589 163.006 Q965.904 162.404 968.173 161.201 L968.173 165.228 Q965.881 166.201 963.474 166.71 Q961.066 167.219 958.589 167.219 Q952.386 167.219 948.751 163.608 Q945.14 159.997 945.14 153.84 Q945.14 147.474 948.566 143.747 Q952.015 139.997 957.849 139.997 Q963.08 139.997 966.112 143.377 Q969.168 146.733 969.168 152.52 M964.909 151.27 Q964.862 147.775 962.941 145.691 Q961.043 143.608 957.895 143.608 Q954.33 143.608 952.177 145.622 Q950.048 147.636 949.724 151.293 L964.909 151.27 Z" fill="#000000" fill-rule="nonzero" fill-opacity="1" /><path clip-path="url(#clip840)" d="M992.686 141.386 L992.686 145.414 Q990.881 144.488 988.936 144.025 Q986.992 143.562 984.909 143.562 Q981.737 143.562 980.14 144.534 Q978.566 145.506 978.566 147.451 Q978.566 148.932 979.7 149.789 Q980.835 150.622 984.26 151.386 L985.719 151.71 Q990.256 152.682 992.154 154.465 Q994.075 156.224 994.075 159.395 Q994.075 163.006 991.205 165.113 Q988.358 167.219 983.358 167.219 Q981.274 167.219 979.006 166.802 Q976.761 166.409 974.261 165.599 L974.261 161.201 Q976.622 162.427 978.913 163.052 Q981.205 163.654 983.45 163.654 Q986.46 163.654 988.08 162.636 Q989.7 161.594 989.7 159.719 Q989.7 157.983 988.52 157.057 Q987.362 156.131 983.404 155.275 L981.923 154.928 Q977.964 154.094 976.205 152.381 Q974.446 150.645 974.446 147.636 Q974.446 143.978 977.038 141.988 Q979.631 139.997 984.399 139.997 Q986.76 139.997 988.844 140.344 Q990.927 140.691 992.686 141.386 Z" fill="#000000" fill-rule="nonzero" fill-opacity="1" /><path clip-path="url(#clip840)" d="M1000.19 130.576 L1003.89 130.576 Q1007.36 136.039 1009.08 141.27 Q1010.81 146.502 1010.81 151.664 Q1010.81 156.849 1009.08 162.103 Q1007.36 167.358 1003.89 172.798 L1000.19 172.798 Q1003.26 167.497 1004.77 162.265 Q1006.3 157.011 1006.3 151.664 Q1006.3 146.316 1004.77 141.108 Q1003.26 135.9 1000.19 130.576 Z" fill="#000000" fill-rule="nonzero" fill-opacity="1" /><path clip-path="url(#clip840)" d="M342.841 221.844 L483.068 221.844 L483.068 180.372 L342.841 180.372 L342.841 221.844  Z" fill="#e26f46" fill-rule="evenodd" fill-opacity="0.6"/>
<polyline clip-path="url(#clip840)" style="stroke:#e26f46; stroke-linecap:round; stroke-linejoin:round; stroke-width:4; stroke-opacity:0; fill:none" points="342.841,180.372 483.068,180.372 "/>
<path clip-path="url(#clip840)" d="M506.439 183.828 L513.407 183.828 L522.226 207.346 L531.092 183.828 L538.059 183.828 L538.059 218.388 L533.499 218.388 L533.499 188.041 L524.587 211.744 L519.888 211.744 L510.976 188.041 L510.976 218.388 L506.439 218.388 L506.439 183.828 Z" fill="#000000" fill-rule="nonzero" fill-opacity="1" /><path clip-path="url(#clip840)" d="M557.203 195.448 Q553.777 195.448 551.786 198.133 Q549.795 200.795 549.795 205.448 Q549.795 210.101 551.763 212.786 Q553.754 215.448 557.203 215.448 Q560.605 215.448 562.596 212.763 Q564.587 210.078 564.587 205.448 Q564.587 200.842 562.596 198.156 Q560.605 195.448 557.203 195.448 M557.203 191.837 Q562.758 191.837 565.929 195.448 Q569.101 199.059 569.101 205.448 Q569.101 211.814 565.929 215.448 Q562.758 219.059 557.203 219.059 Q551.624 219.059 548.453 215.448 Q545.304 211.814 545.304 205.448 Q545.304 199.059 548.453 195.448 Q551.624 191.837 557.203 191.837 Z" fill="#000000" fill-rule="nonzero" fill-opacity="1" /><path clip-path="url(#clip840)" d="M593.221 196.397 L593.221 182.369 L597.48 182.369 L597.48 218.388 L593.221 218.388 L593.221 214.499 Q591.878 216.814 589.818 217.948 Q587.781 219.059 584.911 219.059 Q580.212 219.059 577.249 215.309 Q574.309 211.559 574.309 205.448 Q574.309 199.337 577.249 195.587 Q580.212 191.837 584.911 191.837 Q587.781 191.837 589.818 192.971 Q591.878 194.082 593.221 196.397 M578.707 205.448 Q578.707 210.147 580.628 212.832 Q582.573 215.494 585.952 215.494 Q589.332 215.494 591.276 212.832 Q593.221 210.147 593.221 205.448 Q593.221 200.749 591.276 198.087 Q589.332 195.402 585.952 195.402 Q582.573 195.402 580.628 198.087 Q578.707 200.749 578.707 205.448 Z" fill="#000000" fill-rule="nonzero" fill-opacity="1" /><path clip-path="url(#clip840)" d="M628.429 204.36 L628.429 206.443 L608.846 206.443 Q609.124 210.842 611.485 213.156 Q613.869 215.448 618.105 215.448 Q620.559 215.448 622.85 214.846 Q625.165 214.244 627.434 213.041 L627.434 217.068 Q625.142 218.041 622.735 218.55 Q620.327 219.059 617.85 219.059 Q611.647 219.059 608.012 215.448 Q604.401 211.837 604.401 205.68 Q604.401 199.314 607.827 195.587 Q611.276 191.837 617.11 191.837 Q622.341 191.837 625.374 195.217 Q628.429 198.573 628.429 204.36 M624.17 203.11 Q624.124 199.615 622.202 197.531 Q620.304 195.448 617.156 195.448 Q613.591 195.448 611.438 197.462 Q609.309 199.476 608.985 203.133 L624.17 203.11 Z" fill="#000000" fill-rule="nonzero" fill-opacity="1" /><path clip-path="url(#clip840)" d="M635.42 182.369 L639.679 182.369 L639.679 218.388 L635.42 218.388 L635.42 182.369 Z" fill="#000000" fill-rule="nonzero" fill-opacity="1" /><path clip-path="url(#clip840)" d="M673.892 182.416 Q670.79 187.74 669.285 192.948 Q667.781 198.156 667.781 203.504 Q667.781 208.851 669.285 214.105 Q670.813 219.337 673.892 224.638 L670.188 224.638 Q666.716 219.198 664.98 213.943 Q663.267 208.689 663.267 203.504 Q663.267 198.342 664.98 193.11 Q666.693 187.879 670.188 182.416 L673.892 182.416 Z" fill="#000000" fill-rule="nonzero" fill-opacity="1" /><path clip-path="url(#clip840)" d="M693.336 199.244 Q690.188 199.244 688.336 201.397 Q686.507 203.55 686.507 207.3 Q686.507 211.027 688.336 213.203 Q690.188 215.355 693.336 215.355 Q696.484 215.355 698.313 213.203 Q700.165 211.027 700.165 207.3 Q700.165 203.55 698.313 201.397 Q696.484 199.244 693.336 199.244 M702.618 184.592 L702.618 188.851 Q700.859 188.018 699.054 187.578 Q697.271 187.138 695.512 187.138 Q690.882 187.138 688.429 190.263 Q685.998 193.388 685.651 199.707 Q687.017 197.693 689.077 196.629 Q691.137 195.541 693.614 195.541 Q698.822 195.541 701.831 198.712 Q704.864 201.86 704.864 207.3 Q704.864 212.624 701.716 215.842 Q698.568 219.059 693.336 219.059 Q687.341 219.059 684.169 214.476 Q680.998 209.869 680.998 201.143 Q680.998 192.948 684.887 188.087 Q688.776 183.203 695.327 183.203 Q697.086 183.203 698.868 183.55 Q700.674 183.897 702.618 184.592 Z" fill="#000000" fill-rule="nonzero" fill-opacity="1" /><path clip-path="url(#clip840)" d="M723.498 199.244 Q720.35 199.244 718.498 201.397 Q716.669 203.55 716.669 207.3 Q716.669 211.027 718.498 213.203 Q720.35 215.355 723.498 215.355 Q726.646 215.355 728.475 213.203 Q730.327 211.027 730.327 207.3 Q730.327 203.55 728.475 201.397 Q726.646 199.244 723.498 199.244 M732.78 184.592 L732.78 188.851 Q731.021 188.018 729.216 187.578 Q727.433 187.138 725.674 187.138 Q721.044 187.138 718.591 190.263 Q716.16 193.388 715.813 199.707 Q717.179 197.693 719.239 196.629 Q721.299 195.541 723.776 195.541 Q728.984 195.541 731.993 198.712 Q735.026 201.86 735.026 207.3 Q735.026 212.624 731.878 215.842 Q728.729 219.059 723.498 219.059 Q717.503 219.059 714.331 214.476 Q711.16 209.869 711.16 201.143 Q711.16 192.948 715.049 188.087 Q718.938 183.203 725.489 183.203 Q727.248 183.203 729.03 183.55 Q730.836 183.897 732.78 184.592 Z" fill="#000000" fill-rule="nonzero" fill-opacity="1" /><path clip-path="url(#clip840)" d="M743.081 212.508 L747.965 212.508 L747.965 218.388 L743.081 218.388 L743.081 212.508 Z" fill="#000000" fill-rule="nonzero" fill-opacity="1" /><path clip-path="url(#clip840)" d="M772.317 199.754 Q775.674 200.471 777.549 202.74 Q779.447 205.008 779.447 208.342 Q779.447 213.457 775.928 216.258 Q772.41 219.059 765.928 219.059 Q763.752 219.059 761.438 218.619 Q759.146 218.203 756.692 217.346 L756.692 212.832 Q758.637 213.967 760.951 214.545 Q763.266 215.124 765.789 215.124 Q770.188 215.124 772.479 213.388 Q774.794 211.652 774.794 208.342 Q774.794 205.286 772.641 203.573 Q770.512 201.837 766.692 201.837 L762.664 201.837 L762.664 197.994 L766.877 197.994 Q770.326 197.994 772.155 196.629 Q773.984 195.24 773.984 192.647 Q773.984 189.985 772.086 188.573 Q770.211 187.138 766.692 187.138 Q764.771 187.138 762.572 187.555 Q760.373 187.971 757.734 188.851 L757.734 184.684 Q760.396 183.944 762.711 183.573 Q765.049 183.203 767.109 183.203 Q772.433 183.203 775.535 185.633 Q778.637 188.041 778.637 192.161 Q778.637 195.031 776.993 197.022 Q775.35 198.99 772.317 199.754 Z" fill="#000000" fill-rule="nonzero" fill-opacity="1" /><path clip-path="url(#clip840)" d="M802.479 199.754 Q805.835 200.471 807.71 202.74 Q809.609 205.008 809.609 208.342 Q809.609 213.457 806.09 216.258 Q802.572 219.059 796.09 219.059 Q793.914 219.059 791.599 218.619 Q789.308 218.203 786.854 217.346 L786.854 212.832 Q788.799 213.967 791.113 214.545 Q793.428 215.124 795.951 215.124 Q800.349 215.124 802.641 213.388 Q804.956 211.652 804.956 208.342 Q804.956 205.286 802.803 203.573 Q800.673 201.837 796.854 201.837 L792.826 201.837 L792.826 197.994 L797.039 197.994 Q800.488 197.994 802.317 196.629 Q804.146 195.24 804.146 192.647 Q804.146 189.985 802.248 188.573 Q800.373 187.138 796.854 187.138 Q794.933 187.138 792.734 187.555 Q790.535 187.971 787.896 188.851 L787.896 184.684 Q790.558 183.944 792.873 183.573 Q795.211 183.203 797.271 183.203 Q802.595 183.203 805.697 185.633 Q808.798 188.041 808.798 192.161 Q808.798 195.031 807.155 197.022 Q805.511 198.99 802.479 199.754 Z" fill="#000000" fill-rule="nonzero" fill-opacity="1" /><path clip-path="url(#clip840)" d="M822.502 214.453 L838.821 214.453 L838.821 218.388 L816.877 218.388 L816.877 214.453 Q819.539 211.698 824.122 207.068 Q828.729 202.416 829.909 201.073 Q832.155 198.55 833.034 196.814 Q833.937 195.055 833.937 193.365 Q833.937 190.61 831.993 188.874 Q830.071 187.138 826.97 187.138 Q824.771 187.138 822.317 187.902 Q819.886 188.666 817.109 190.217 L817.109 185.494 Q819.933 184.36 822.386 183.782 Q824.84 183.203 826.877 183.203 Q832.247 183.203 835.442 185.888 Q838.636 188.573 838.636 193.064 Q838.636 195.194 837.826 197.115 Q837.039 199.013 834.933 201.606 Q834.354 202.277 831.252 205.494 Q828.15 208.689 822.502 214.453 Z" fill="#000000" fill-rule="nonzero" fill-opacity="1" /><path clip-path="url(#clip840)" d="M880.442 188.666 L880.442 201.559 L893.335 201.559 L893.335 205.494 L880.442 205.494 L880.442 218.388 L876.553 218.388 L876.553 205.494 L863.659 205.494 L863.659 201.559 L876.553 201.559 L876.553 188.666 L880.442 188.666 Z" fill="#000000" fill-rule="nonzero" fill-opacity="1" /><path clip-path="url(#clip840)" d="M913.428 186.907 Q909.816 186.907 907.988 190.471 Q906.182 194.013 906.182 201.143 Q906.182 208.249 907.988 211.814 Q909.816 215.355 913.428 215.355 Q917.062 215.355 918.867 211.814 Q920.696 208.249 920.696 201.143 Q920.696 194.013 918.867 190.471 Q917.062 186.907 913.428 186.907 M913.428 183.203 Q919.238 183.203 922.293 187.809 Q925.372 192.393 925.372 201.143 Q925.372 209.869 922.293 214.476 Q919.238 219.059 913.428 219.059 Q907.617 219.059 904.539 214.476 Q901.483 209.869 901.483 201.143 Q901.483 192.393 904.539 187.809 Q907.617 183.203 913.428 183.203 Z" fill="#000000" fill-rule="nonzero" fill-opacity="1" /><path clip-path="url(#clip840)" d="M933.589 212.508 L938.474 212.508 L938.474 218.388 L933.589 218.388 L933.589 212.508 Z" fill="#000000" fill-rule="nonzero" fill-opacity="1" /><path clip-path="url(#clip840)" d="M958.659 186.907 Q955.048 186.907 953.219 190.471 Q951.413 194.013 951.413 201.143 Q951.413 208.249 953.219 211.814 Q955.048 215.355 958.659 215.355 Q962.293 215.355 964.099 211.814 Q965.927 208.249 965.927 201.143 Q965.927 194.013 964.099 190.471 Q962.293 186.907 958.659 186.907 M958.659 183.203 Q964.469 183.203 967.524 187.809 Q970.603 192.393 970.603 201.143 Q970.603 209.869 967.524 214.476 Q964.469 219.059 958.659 219.059 Q952.849 219.059 949.77 214.476 Q946.714 209.869 946.714 201.143 Q946.714 192.393 949.77 187.809 Q952.849 183.203 958.659 183.203 Z" fill="#000000" fill-rule="nonzero" fill-opacity="1" /><path clip-path="url(#clip840)" d="M989.399 199.244 Q986.251 199.244 984.399 201.397 Q982.571 203.55 982.571 207.3 Q982.571 211.027 984.399 213.203 Q986.251 215.355 989.399 215.355 Q992.547 215.355 994.376 213.203 Q996.228 211.027 996.228 207.3 Q996.228 203.55 994.376 201.397 Q992.547 199.244 989.399 199.244 M998.682 184.592 L998.682 188.851 Q996.922 188.018 995.117 187.578 Q993.334 187.138 991.575 187.138 Q986.946 187.138 984.492 190.263 Q982.061 193.388 981.714 199.707 Q983.08 197.693 985.14 196.629 Q987.2 195.541 989.677 195.541 Q994.885 195.541 997.895 198.712 Q1000.93 201.86 1000.93 207.3 Q1000.93 212.624 997.779 215.842 Q994.631 219.059 989.399 219.059 Q983.404 219.059 980.233 214.476 Q977.061 209.869 977.061 201.143 Q977.061 192.948 980.95 188.087 Q984.839 183.203 991.39 183.203 Q993.149 183.203 994.932 183.55 Q996.737 183.897 998.682 184.592 Z" fill="#000000" fill-rule="nonzero" fill-opacity="1" /><path clip-path="url(#clip840)" d="M1009.12 217.67 L1009.12 213.411 Q1010.88 214.244 1012.69 214.684 Q1014.49 215.124 1016.23 215.124 Q1020.86 215.124 1023.29 212.022 Q1025.74 208.897 1026.09 202.555 Q1024.75 204.545 1022.69 205.61 Q1020.63 206.675 1018.13 206.675 Q1012.94 206.675 1009.91 203.55 Q1006.9 200.402 1006.9 194.962 Q1006.9 189.638 1010.05 186.42 Q1013.2 183.203 1018.43 183.203 Q1024.42 183.203 1027.57 187.809 Q1030.74 192.393 1030.74 201.143 Q1030.74 209.314 1026.85 214.198 Q1022.99 219.059 1016.44 219.059 Q1014.68 219.059 1012.87 218.712 Q1011.07 218.365 1009.12 217.67 M1018.43 203.018 Q1021.58 203.018 1023.4 200.865 Q1025.26 198.712 1025.26 194.962 Q1025.26 191.235 1023.4 189.082 Q1021.58 186.907 1018.43 186.907 Q1015.28 186.907 1013.43 189.082 Q1011.6 191.235 1011.6 194.962 Q1011.6 198.712 1013.43 200.865 Q1015.28 203.018 1018.43 203.018 Z" fill="#000000" fill-rule="nonzero" fill-opacity="1" /><path clip-path="url(#clip840)" d="M1046.11 183.828 L1050.05 183.828 L1038.01 222.786 L1034.08 222.786 L1046.11 183.828 Z" fill="#000000" fill-rule="nonzero" fill-opacity="1" /><path clip-path="url(#clip840)" d="M1052.36 203.504 L1064.84 203.504 L1064.84 207.3 L1052.36 207.3 L1052.36 203.504 Z" fill="#000000" fill-rule="nonzero" fill-opacity="1" /><path clip-path="url(#clip840)" d="M1082.22 186.907 Q1078.61 186.907 1076.78 190.471 Q1074.98 194.013 1074.98 201.143 Q1074.98 208.249 1076.78 211.814 Q1078.61 215.355 1082.22 215.355 Q1085.86 215.355 1087.66 211.814 Q1089.49 208.249 1089.49 201.143 Q1089.49 194.013 1087.66 190.471 Q1085.86 186.907 1082.22 186.907 M1082.22 183.203 Q1088.03 183.203 1091.09 187.809 Q1094.17 192.393 1094.17 201.143 Q1094.17 209.869 1091.09 214.476 Q1088.03 219.059 1082.22 219.059 Q1076.41 219.059 1073.33 214.476 Q1070.28 209.869 1070.28 201.143 Q1070.28 192.393 1073.33 187.809 Q1076.41 183.203 1082.22 183.203 Z" fill="#000000" fill-rule="nonzero" fill-opacity="1" /><path clip-path="url(#clip840)" d="M1102.38 212.508 L1107.27 212.508 L1107.27 218.388 L1102.38 218.388 L1102.38 212.508 Z" fill="#000000" fill-rule="nonzero" fill-opacity="1" /><path clip-path="url(#clip840)" d="M1118.26 214.453 L1125.9 214.453 L1125.9 188.087 L1117.59 189.754 L1117.59 185.494 L1125.86 183.828 L1130.53 183.828 L1130.53 214.453 L1138.17 214.453 L1138.17 218.388 L1118.26 218.388 L1118.26 214.453 Z" fill="#000000" fill-rule="nonzero" fill-opacity="1" /><path clip-path="url(#clip840)" d="M1148.43 214.453 L1156.07 214.453 L1156.07 188.087 L1147.75 189.754 L1147.75 185.494 L1156.02 183.828 L1160.69 183.828 L1160.69 214.453 L1168.33 214.453 L1168.33 218.388 L1148.43 218.388 L1148.43 214.453 Z" fill="#000000" fill-rule="nonzero" fill-opacity="1" /><path clip-path="url(#clip840)" d="M1176.6 183.828 L1198.82 183.828 L1198.82 185.819 L1186.27 218.388 L1181.39 218.388 L1193.19 187.763 L1176.6 187.763 L1176.6 183.828 Z" fill="#000000" fill-rule="nonzero" fill-opacity="1" /><path clip-path="url(#clip840)" d="M1222.59 183.828 L1229.56 183.828 L1238.38 207.346 L1247.25 183.828 L1254.21 183.828 L1254.21 218.388 L1249.65 218.388 L1249.65 188.041 L1240.74 211.744 L1236.04 211.744 L1227.13 188.041 L1227.13 218.388 L1222.59 218.388 L1222.59 183.828 Z" fill="#000000" fill-rule="nonzero" fill-opacity="1" /><path clip-path="url(#clip840)" d="M1275.09 205.355 Q1269.93 205.355 1267.94 206.536 Q1265.95 207.717 1265.95 210.564 Q1265.95 212.832 1267.43 214.175 Q1268.93 215.494 1271.5 215.494 Q1275.05 215.494 1277.18 212.994 Q1279.33 210.471 1279.33 206.305 L1279.33 205.355 L1275.09 205.355 M1283.59 203.596 L1283.59 218.388 L1279.33 218.388 L1279.33 214.453 Q1277.87 216.814 1275.69 217.948 Q1273.52 219.059 1270.37 219.059 Q1266.39 219.059 1264.03 216.837 Q1261.69 214.592 1261.69 210.842 Q1261.69 206.467 1264.61 204.244 Q1267.55 202.022 1273.36 202.022 L1279.33 202.022 L1279.33 201.606 Q1279.33 198.666 1277.38 197.068 Q1275.46 195.448 1271.97 195.448 Q1269.75 195.448 1267.64 195.981 Q1265.53 196.513 1263.59 197.578 L1263.59 193.643 Q1265.93 192.74 1268.12 192.3 Q1270.32 191.837 1272.41 191.837 Q1278.03 191.837 1280.81 194.754 Q1283.59 197.67 1283.59 203.596 Z" fill="#000000" fill-rule="nonzero" fill-opacity="1" /><path clip-path="url(#clip840)" d="M1291.69 182.416 L1295.39 182.416 Q1298.87 187.879 1300.58 193.11 Q1302.31 198.342 1302.31 203.504 Q1302.31 208.689 1300.58 213.943 Q1298.87 219.198 1295.39 224.638 L1291.69 224.638 Q1294.77 219.337 1296.27 214.105 Q1297.8 208.851 1297.8 203.504 Q1297.8 198.156 1296.27 192.948 Q1294.77 187.74 1291.69 182.416 Z" fill="#000000" fill-rule="nonzero" fill-opacity="1" /></svg>
