<?xml version="1.0" encoding="utf-8"?>
<svg xmlns="http://www.w3.org/2000/svg" xmlns:xlink="http://www.w3.org/1999/xlink" width="600" height="400" viewBox="0 0 2400 1600">
<defs>
  <clipPath id="clip980">
    <rect x="0" y="0" width="2400" height="1600"/>
  </clipPath>
</defs>
<path clip-path="url(#clip980)" d="M0 1600 L2400 1600 L2400 8.88178e-14 L0 8.88178e-14  Z" fill="#ffffff" fill-rule="evenodd" fill-opacity="1"/>
<defs>
  <clipPath id="clip981">
    <rect x="480" y="0" width="1681" height="1600"/>
  </clipPath>
</defs>
<path clip-path="url(#clip980)" d="M247.459 1423.18 L2352.76 1423.18 L2352.76 47.2441 L247.459 47.2441  Z" fill="#ffffff" fill-rule="evenodd" fill-opacity="1"/>
<defs>
  <clipPath id="clip982">
    <rect x="247" y="47" width="2106" height="1377"/>
  </clipPath>
</defs>
<polyline clip-path="url(#clip982)" style="stroke:#000000; stroke-linecap:round; stroke-linejoin:round; stroke-width:2; stroke-opacity:0.1; fill:none" points="257.152,1423.18 257.152,47.2441 "/>
<polyline clip-path="url(#clip982)" style="stroke:#000000; stroke-linecap:round; stroke-linejoin:round; stroke-width:2; stroke-opacity:0.1; fill:none" points="818.304,1423.18 818.304,47.2441 "/>
<polyline clip-path="url(#clip982)" style="stroke:#000000; stroke-linecap:round; stroke-linejoin:round; stroke-width:2; stroke-opacity:0.1; fill:none" points="1379.46,1423.18 1379.46,47.2441 "/>
<polyline clip-path="url(#clip982)" style="stroke:#000000; stroke-linecap:round; stroke-linejoin:round; stroke-width:2; stroke-opacity:0.1; fill:none" points="1940.61,1423.18 1940.61,47.2441 "/>
<polyline clip-path="url(#clip982)" style="stroke:#000000; stroke-linecap:round; stroke-linejoin:round; stroke-width:2; stroke-opacity:0.1; fill:none" points="257.152,1423.18 257.152,47.2441 "/>
<polyline clip-path="url(#clip982)" style="stroke:#000000; stroke-linecap:round; stroke-linejoin:round; stroke-width:2; stroke-opacity:0.1; fill:none" points="818.304,1423.18 818.304,47.2441 "/>
<polyline clip-path="url(#clip982)" style="stroke:#000000; stroke-linecap:round; stroke-linejoin:round; stroke-width:2; stroke-opacity:0.1; fill:none" points="1379.46,1423.18 1379.46,47.2441 "/>
<polyline clip-path="url(#clip982)" style="stroke:#000000; stroke-linecap:round; stroke-linejoin:round; stroke-width:2; stroke-opacity:0.1; fill:none" points="1940.61,1423.18 1940.61,47.2441 "/>
<polyline clip-path="url(#clip982)" style="stroke:#000000; stroke-linecap:round; stroke-linejoin:round; stroke-width:2; stroke-opacity:0.1; fill:none" points="247.459,1384.25 2352.76,1384.25 "/>
<polyline clip-path="url(#clip982)" style="stroke:#000000; stroke-linecap:round; stroke-linejoin:round; stroke-width:2; stroke-opacity:0.1; fill:none" points="247.459,1061.03 2352.76,1061.03 "/>
<polyline clip-path="url(#clip982)" style="stroke:#000000; stroke-linecap:round; stroke-linejoin:round; stroke-width:2; stroke-opacity:0.1; fill:none" points="247.459,737.802 2352.76,737.802 "/>
<polyline clip-path="url(#clip982)" style="stroke:#000000; stroke-linecap:round; stroke-linejoin:round; stroke-width:2; stroke-opacity:0.1; fill:none" points="247.459,414.578 2352.76,414.578 "/>
<polyline clip-path="url(#clip982)" style="stroke:#000000; stroke-linecap:round; stroke-linejoin:round; stroke-width:2; stroke-opacity:0.1; fill:none" points="247.459,91.354 2352.76,91.354 "/>
<polyline clip-path="url(#clip982)" style="stroke:#000000; stroke-linecap:round; stroke-linejoin:round; stroke-width:2; stroke-opacity:0.1; fill:none" points="247.459,1384.25 2352.76,1384.25 "/>
<polyline clip-path="url(#clip982)" style="stroke:#000000; stroke-linecap:round; stroke-linejoin:round; stroke-width:2; stroke-opacity:0.1; fill:none" points="247.459,1061.03 2352.76,1061.03 "/>
<polyline clip-path="url(#clip982)" style="stroke:#000000; stroke-linecap:round; stroke-linejoin:round; stroke-width:2; stroke-opacity:0.1; fill:none" points="247.459,737.802 2352.76,737.802 "/>
<polyline clip-path="url(#clip982)" style="stroke:#000000; stroke-linecap:round; stroke-linejoin:round; stroke-width:2; stroke-opacity:0.1; fill:none" points="247.459,414.578 2352.76,414.578 "/>
<polyline clip-path="url(#clip982)" style="stroke:#000000; stroke-linecap:round; stroke-linejoin:round; stroke-width:2; stroke-opacity:0.1; fill:none" points="247.459,91.354 2352.76,91.354 "/>
<polyline clip-path="url(#clip980)" style="stroke:#000000; stroke-linecap:round; stroke-linejoin:round; stroke-width:4; stroke-opacity:1; fill:none" points="247.459,1423.18 2352.76,1423.18 "/>
<polyline clip-path="url(#clip980)" style="stroke:#000000; stroke-linecap:round; stroke-linejoin:round; stroke-width:4; stroke-opacity:1; fill:none" points="247.459,47.2441 2352.76,47.2441 "/>
<polyline clip-path="url(#clip980)" style="stroke:#000000; stroke-linecap:round; stroke-linejoin:round; stroke-width:4; stroke-opacity:1; fill:none" points="257.152,1423.18 257.152,1404.28 "/>
<polyline clip-path="url(#clip980)" style="stroke:#000000; stroke-linecap:round; stroke-linejoin:round; stroke-width:4; stroke-opacity:1; fill:none" points="818.304,1423.18 818.304,1404.28 "/>
<polyline clip-path="url(#clip980)" style="stroke:#000000; stroke-linecap:round; stroke-linejoin:round; stroke-width:4; stroke-opacity:1; fill:none" points="1379.46,1423.18 1379.46,1404.28 "/>
<polyline clip-path="url(#clip980)" style="stroke:#000000; stroke-linecap:round; stroke-linejoin:round; stroke-width:4; stroke-opacity:1; fill:none" points="1940.61,1423.18 1940.61,1404.28 "/>
<polyline clip-path="url(#clip980)" style="stroke:#000000; stroke-linecap:round; stroke-linejoin:round; stroke-width:4; stroke-opacity:1; fill:none" points="257.152,47.2441 257.152,66.1417 "/>
<polyline clip-path="url(#clip980)" style="stroke:#000000; stroke-linecap:round; stroke-linejoin:round; stroke-width:4; stroke-opacity:1; fill:none" points="818.304,47.2441 818.304,66.1417 "/>
<polyline clip-path="url(#clip980)" style="stroke:#000000; stroke-linecap:round; stroke-linejoin:round; stroke-width:4; stroke-opacity:1; fill:none" points="1379.46,47.2441 1379.46,66.1417 "/>
<polyline clip-path="url(#clip980)" style="stroke:#000000; stroke-linecap:round; stroke-linejoin:round; stroke-width:4; stroke-opacity:1; fill:none" points="1940.61,47.2441 1940.61,66.1417 "/>
<path clip-path="url(#clip980)" d="M219.861 1466.44 Q216.713 1466.44 214.861 1468.59 Q213.032 1470.74 213.032 1474.49 Q213.032 1478.22 214.861 1480.39 Q216.713 1482.55 219.861 1482.55 Q223.009 1482.55 224.838 1480.39 Q226.69 1478.22 226.69 1474.49 Q226.69 1470.74 224.838 1468.59 Q223.009 1466.44 219.861 1466.44 M229.143 1451.78 L229.143 1456.04 Q227.384 1455.21 225.578 1454.77 Q223.796 1454.33 222.037 1454.33 Q217.407 1454.33 214.954 1457.45 Q212.523 1460.58 212.176 1466.9 Q213.541 1464.89 215.602 1463.82 Q217.662 1462.73 220.139 1462.73 Q225.347 1462.73 228.356 1465.9 Q231.389 1469.05 231.389 1474.49 Q231.389 1479.82 228.24 1483.03 Q225.092 1486.25 219.861 1486.25 Q213.866 1486.25 210.694 1481.67 Q207.523 1477.06 207.523 1468.33 Q207.523 1460.14 211.412 1455.28 Q215.301 1450.39 221.852 1450.39 Q223.611 1450.39 225.393 1450.74 Q227.199 1451.09 229.143 1451.78 Z" fill="#000000" fill-rule="nonzero" fill-opacity="1" /><path clip-path="url(#clip980)" d="M239.49 1451.02 L257.847 1451.02 L257.847 1454.96 L243.773 1454.96 L243.773 1463.43 Q244.791 1463.08 245.81 1462.92 Q246.828 1462.73 247.847 1462.73 Q253.634 1462.73 257.013 1465.9 Q260.393 1469.08 260.393 1474.49 Q260.393 1480.07 256.921 1483.17 Q253.449 1486.25 247.129 1486.25 Q244.953 1486.25 242.685 1485.88 Q240.439 1485.51 238.032 1484.77 L238.032 1480.07 Q240.115 1481.2 242.338 1481.76 Q244.56 1482.32 247.037 1482.32 Q251.041 1482.32 253.379 1480.21 Q255.717 1478.1 255.717 1474.49 Q255.717 1470.88 253.379 1468.77 Q251.041 1466.67 247.037 1466.67 Q245.162 1466.67 243.287 1467.08 Q241.435 1467.5 239.49 1468.38 L239.49 1451.02 Z" fill="#000000" fill-rule="nonzero" fill-opacity="1" /><path clip-path="url(#clip980)" d="M269.606 1479.7 L274.49 1479.7 L274.49 1485.58 L269.606 1485.58 L269.606 1479.7 Z" fill="#000000" fill-rule="nonzero" fill-opacity="1" /><path clip-path="url(#clip980)" d="M295.254 1466.44 Q292.106 1466.44 290.254 1468.59 Q288.425 1470.74 288.425 1474.49 Q288.425 1478.22 290.254 1480.39 Q292.106 1482.55 295.254 1482.55 Q298.402 1482.55 300.231 1480.39 Q302.083 1478.22 302.083 1474.49 Q302.083 1470.74 300.231 1468.59 Q298.402 1466.44 295.254 1466.44 M304.536 1451.78 L304.536 1456.04 Q302.777 1455.21 300.972 1454.77 Q299.189 1454.33 297.43 1454.33 Q292.8 1454.33 290.347 1457.45 Q287.916 1460.58 287.569 1466.9 Q288.935 1464.89 290.995 1463.82 Q293.055 1462.73 295.532 1462.73 Q300.74 1462.73 303.749 1465.9 Q306.782 1469.05 306.782 1474.49 Q306.782 1479.82 303.634 1483.03 Q300.485 1486.25 295.254 1486.25 Q289.259 1486.25 286.087 1481.67 Q282.916 1477.06 282.916 1468.33 Q282.916 1460.14 286.805 1455.28 Q290.694 1450.39 297.245 1450.39 Q299.004 1450.39 300.786 1450.74 Q302.592 1451.09 304.536 1451.78 Z" fill="#000000" fill-rule="nonzero" fill-opacity="1" /><path clip-path="url(#clip980)" d="M781.14 1466.44 Q777.992 1466.44 776.14 1468.59 Q774.311 1470.74 774.311 1474.49 Q774.311 1478.22 776.14 1480.39 Q777.992 1482.55 781.14 1482.55 Q784.288 1482.55 786.117 1480.39 Q787.969 1478.22 787.969 1474.49 Q787.969 1470.74 786.117 1468.59 Q784.288 1466.44 781.14 1466.44 M790.422 1451.78 L790.422 1456.04 Q788.663 1455.21 786.857 1454.77 Q785.075 1454.33 783.316 1454.33 Q778.686 1454.33 776.233 1457.45 Q773.802 1460.58 773.455 1466.9 Q774.82 1464.89 776.881 1463.82 Q778.941 1462.73 781.418 1462.73 Q786.626 1462.73 789.635 1465.9 Q792.668 1469.05 792.668 1474.49 Q792.668 1479.82 789.519 1483.03 Q786.371 1486.25 781.14 1486.25 Q775.145 1486.25 771.973 1481.67 Q768.802 1477.06 768.802 1468.33 Q768.802 1460.14 772.691 1455.28 Q776.58 1450.39 783.131 1450.39 Q784.89 1450.39 786.672 1450.74 Q788.478 1451.09 790.422 1451.78 Z" fill="#000000" fill-rule="nonzero" fill-opacity="1" /><path clip-path="url(#clip980)" d="M800.769 1451.02 L819.126 1451.02 L819.126 1454.96 L805.052 1454.96 L805.052 1463.43 Q806.07 1463.08 807.089 1462.92 Q808.107 1462.73 809.126 1462.73 Q814.913 1462.73 818.292 1465.9 Q821.672 1469.08 821.672 1474.49 Q821.672 1480.07 818.2 1483.17 Q814.728 1486.25 808.408 1486.25 Q806.232 1486.25 803.964 1485.88 Q801.718 1485.51 799.311 1484.77 L799.311 1480.07 Q801.394 1481.2 803.617 1481.76 Q805.839 1482.32 808.316 1482.32 Q812.32 1482.32 814.658 1480.21 Q816.996 1478.1 816.996 1474.49 Q816.996 1470.88 814.658 1468.77 Q812.32 1466.67 808.316 1466.67 Q806.441 1466.67 804.566 1467.08 Q802.714 1467.5 800.769 1468.38 L800.769 1451.02 Z" fill="#000000" fill-rule="nonzero" fill-opacity="1" /><path clip-path="url(#clip980)" d="M830.885 1479.7 L835.769 1479.7 L835.769 1485.58 L830.885 1485.58 L830.885 1479.7 Z" fill="#000000" fill-rule="nonzero" fill-opacity="1" /><path clip-path="url(#clip980)" d="M855.954 1469.17 Q852.621 1469.17 850.7 1470.95 Q848.802 1472.73 848.802 1475.86 Q848.802 1478.98 850.7 1480.77 Q852.621 1482.55 855.954 1482.55 Q859.288 1482.55 861.209 1480.77 Q863.13 1478.96 863.13 1475.86 Q863.13 1472.73 861.209 1470.95 Q859.311 1469.17 855.954 1469.17 M851.278 1467.18 Q848.269 1466.44 846.579 1464.38 Q844.913 1462.32 844.913 1459.35 Q844.913 1455.21 847.852 1452.8 Q850.815 1450.39 855.954 1450.39 Q861.116 1450.39 864.056 1452.8 Q866.996 1455.21 866.996 1459.35 Q866.996 1462.32 865.306 1464.38 Q863.639 1466.44 860.653 1467.18 Q864.033 1467.96 865.908 1470.26 Q867.806 1472.55 867.806 1475.86 Q867.806 1480.88 864.727 1483.57 Q861.672 1486.25 855.954 1486.25 Q850.237 1486.25 847.158 1483.57 Q844.103 1480.88 844.103 1475.86 Q844.103 1472.55 846.001 1470.26 Q847.899 1467.96 851.278 1467.18 M849.565 1459.79 Q849.565 1462.48 851.232 1463.98 Q852.922 1465.49 855.954 1465.49 Q858.964 1465.49 860.653 1463.98 Q862.366 1462.48 862.366 1459.79 Q862.366 1457.11 860.653 1455.6 Q858.964 1454.1 855.954 1454.1 Q852.922 1454.1 851.232 1455.6 Q849.565 1457.11 849.565 1459.79 Z" fill="#000000" fill-rule="nonzero" fill-opacity="1" /><path clip-path="url(#clip980)" d="M1342.25 1466.44 Q1339.1 1466.44 1337.25 1468.59 Q1335.42 1470.74 1335.42 1474.49 Q1335.42 1478.22 1337.25 1480.39 Q1339.1 1482.55 1342.25 1482.55 Q1345.39 1482.55 1347.22 1480.39 Q1349.07 1478.22 1349.07 1474.49 Q1349.07 1470.74 1347.22 1468.59 Q1345.39 1466.44 1342.25 1466.44 M1351.53 1451.78 L1351.53 1456.04 Q1349.77 1455.21 1347.96 1454.77 Q1346.18 1454.33 1344.42 1454.33 Q1339.79 1454.33 1337.34 1457.45 Q1334.91 1460.58 1334.56 1466.9 Q1335.93 1464.89 1337.99 1463.82 Q1340.05 1462.73 1342.52 1462.73 Q1347.73 1462.73 1350.74 1465.9 Q1353.77 1469.05 1353.77 1474.49 Q1353.77 1479.82 1350.62 1483.03 Q1347.48 1486.25 1342.25 1486.25 Q1336.25 1486.25 1333.08 1481.67 Q1329.91 1477.06 1329.91 1468.33 Q1329.91 1460.14 1333.8 1455.28 Q1337.69 1450.39 1344.24 1450.39 Q1346 1450.39 1347.78 1450.74 Q1349.58 1451.09 1351.53 1451.78 Z" fill="#000000" fill-rule="nonzero" fill-opacity="1" /><path clip-path="url(#clip980)" d="M1372.41 1466.44 Q1369.26 1466.44 1367.41 1468.59 Q1365.58 1470.74 1365.58 1474.49 Q1365.58 1478.22 1367.41 1480.39 Q1369.26 1482.55 1372.41 1482.55 Q1375.56 1482.55 1377.38 1480.39 Q1379.24 1478.22 1379.24 1474.49 Q1379.24 1470.74 1377.38 1468.59 Q1375.56 1466.44 1372.41 1466.44 M1381.69 1451.78 L1381.69 1456.04 Q1379.93 1455.21 1378.12 1454.77 Q1376.34 1454.33 1374.58 1454.33 Q1369.95 1454.33 1367.5 1457.45 Q1365.07 1460.58 1364.72 1466.9 Q1366.09 1464.89 1368.15 1463.82 Q1370.21 1462.73 1372.68 1462.73 Q1377.89 1462.73 1380.9 1465.9 Q1383.93 1469.05 1383.93 1474.49 Q1383.93 1479.82 1380.79 1483.03 Q1377.64 1486.25 1372.41 1486.25 Q1366.41 1486.25 1363.24 1481.67 Q1360.07 1477.06 1360.07 1468.33 Q1360.07 1460.14 1363.96 1455.28 Q1367.85 1450.39 1374.4 1450.39 Q1376.16 1450.39 1377.94 1450.74 Q1379.75 1451.09 1381.69 1451.78 Z" fill="#000000" fill-rule="nonzero" fill-opacity="1" /><path clip-path="url(#clip980)" d="M1391.99 1479.7 L1396.87 1479.7 L1396.87 1485.58 L1391.99 1485.58 L1391.99 1479.7 Z" fill="#000000" fill-rule="nonzero" fill-opacity="1" /><path clip-path="url(#clip980)" d="M1417.06 1454.1 Q1413.45 1454.1 1411.62 1457.66 Q1409.81 1461.2 1409.81 1468.33 Q1409.81 1475.44 1411.62 1479.01 Q1413.45 1482.55 1417.06 1482.55 Q1420.69 1482.55 1422.5 1479.01 Q1424.33 1475.44 1424.33 1468.33 Q1424.33 1461.2 1422.5 1457.66 Q1420.69 1454.1 1417.06 1454.1 M1417.06 1450.39 Q1422.87 1450.39 1425.93 1455 Q1429 1459.58 1429 1468.33 Q1429 1477.06 1425.93 1481.67 Q1422.87 1486.25 1417.06 1486.25 Q1411.25 1486.25 1408.17 1481.67 Q1405.12 1477.06 1405.12 1468.33 Q1405.12 1459.58 1408.17 1455 Q1411.25 1450.39 1417.06 1450.39 Z" fill="#000000" fill-rule="nonzero" fill-opacity="1" /><path clip-path="url(#clip980)" d="M1904.2 1466.44 Q1901.05 1466.44 1899.2 1468.59 Q1897.37 1470.74 1897.37 1474.49 Q1897.37 1478.22 1899.2 1480.39 Q1901.05 1482.55 1904.2 1482.55 Q1907.34 1482.55 1909.17 1480.39 Q1911.02 1478.22 1911.02 1474.49 Q1911.02 1470.74 1909.17 1468.59 Q1907.34 1466.44 1904.2 1466.44 M1913.48 1451.78 L1913.48 1456.04 Q1911.72 1455.21 1909.91 1454.77 Q1908.13 1454.33 1906.37 1454.33 Q1901.74 1454.33 1899.29 1457.45 Q1896.86 1460.58 1896.51 1466.9 Q1897.88 1464.89 1899.94 1463.82 Q1902 1462.73 1904.47 1462.73 Q1909.68 1462.73 1912.69 1465.9 Q1915.72 1469.05 1915.72 1474.49 Q1915.72 1479.82 1912.58 1483.03 Q1909.43 1486.25 1904.2 1486.25 Q1898.2 1486.25 1895.03 1481.67 Q1891.86 1477.06 1891.86 1468.33 Q1891.86 1460.14 1895.75 1455.28 Q1899.64 1450.39 1906.19 1450.39 Q1907.95 1450.39 1909.73 1450.74 Q1911.53 1451.09 1913.48 1451.78 Z" fill="#000000" fill-rule="nonzero" fill-opacity="1" /><path clip-path="url(#clip980)" d="M1934.36 1466.44 Q1931.21 1466.44 1929.36 1468.59 Q1927.53 1470.74 1927.53 1474.49 Q1927.53 1478.22 1929.36 1480.39 Q1931.21 1482.55 1934.36 1482.55 Q1937.51 1482.55 1939.33 1480.39 Q1941.19 1478.22 1941.19 1474.49 Q1941.19 1470.74 1939.33 1468.59 Q1937.51 1466.44 1934.36 1466.44 M1943.64 1451.78 L1943.64 1456.04 Q1941.88 1455.21 1940.07 1454.77 Q1938.29 1454.33 1936.53 1454.33 Q1931.9 1454.33 1929.45 1457.45 Q1927.02 1460.58 1926.67 1466.9 Q1928.04 1464.89 1930.1 1463.82 Q1932.16 1462.73 1934.64 1462.73 Q1939.84 1462.73 1942.85 1465.9 Q1945.89 1469.05 1945.89 1474.49 Q1945.89 1479.82 1942.74 1483.03 Q1939.59 1486.25 1934.36 1486.25 Q1928.36 1486.25 1925.19 1481.67 Q1922.02 1477.06 1922.02 1468.33 Q1922.02 1460.14 1925.91 1455.28 Q1929.8 1450.39 1936.35 1450.39 Q1938.11 1450.39 1939.89 1450.74 Q1941.7 1451.09 1943.64 1451.78 Z" fill="#000000" fill-rule="nonzero" fill-opacity="1" /><path clip-path="url(#clip980)" d="M1953.94 1479.7 L1958.82 1479.7 L1958.82 1485.58 L1953.94 1485.58 L1953.94 1479.7 Z" fill="#000000" fill-rule="nonzero" fill-opacity="1" /><path clip-path="url(#clip980)" d="M1973.04 1481.64 L1989.36 1481.64 L1989.36 1485.58 L1967.41 1485.58 L1967.41 1481.64 Q1970.07 1478.89 1974.66 1474.26 Q1979.26 1469.61 1980.45 1468.27 Q1982.69 1465.74 1983.57 1464.01 Q1984.47 1462.25 1984.47 1460.56 Q1984.47 1457.8 1982.53 1456.07 Q1980.61 1454.33 1977.51 1454.33 Q1975.31 1454.33 1972.85 1455.09 Q1970.42 1455.86 1967.64 1457.41 L1967.64 1452.69 Q1970.47 1451.55 1972.92 1450.97 Q1975.38 1450.39 1977.41 1450.39 Q1982.78 1450.39 1985.98 1453.08 Q1989.17 1455.77 1989.17 1460.26 Q1989.17 1462.39 1988.36 1464.31 Q1987.57 1466.2 1985.47 1468.8 Q1984.89 1469.47 1981.79 1472.69 Q1978.69 1475.88 1973.04 1481.64 Z" fill="#000000" fill-rule="nonzero" fill-opacity="1" /><path clip-path="url(#clip980)" d="M1178.01 1526.86 L1169.29 1550.51 L1186.77 1550.51 L1178.01 1526.86 M1174.38 1520.52 L1181.67 1520.52 L1199.78 1568.04 L1193.1 1568.04 L1188.77 1555.85 L1167.35 1555.85 L1163.02 1568.04 L1156.24 1568.04 L1174.38 1520.52 Z" fill="#000000" fill-rule="nonzero" fill-opacity="1" /><path clip-path="url(#clip980)" d="M1229.93 1549.81 Q1229.93 1543.44 1227.28 1539.94 Q1224.67 1536.44 1219.93 1536.44 Q1215.22 1536.44 1212.58 1539.94 Q1209.97 1543.44 1209.97 1549.81 Q1209.97 1556.14 1212.58 1559.64 Q1215.22 1563.14 1219.93 1563.14 Q1224.67 1563.14 1227.28 1559.64 Q1229.93 1556.14 1229.93 1549.81 M1235.78 1563.62 Q1235.78 1572.72 1231.74 1577.15 Q1227.7 1581.6 1219.36 1581.6 Q1216.27 1581.6 1213.53 1581.13 Q1210.8 1580.68 1208.22 1579.72 L1208.22 1574.03 Q1210.8 1575.43 1213.31 1576.1 Q1215.83 1576.76 1218.44 1576.76 Q1224.2 1576.76 1227.06 1573.74 Q1229.93 1570.75 1229.93 1564.67 L1229.93 1561.77 Q1228.11 1564.92 1225.28 1566.48 Q1222.45 1568.04 1218.5 1568.04 Q1211.94 1568.04 1207.93 1563.05 Q1203.92 1558.05 1203.92 1549.81 Q1203.92 1541.53 1207.93 1536.53 Q1211.94 1531.54 1218.5 1531.54 Q1222.45 1531.54 1225.28 1533.1 Q1228.11 1534.66 1229.93 1537.81 L1229.93 1532.4 L1235.78 1532.4 L1235.78 1563.62 Z" fill="#000000" fill-rule="nonzero" fill-opacity="1" /><path clip-path="url(#clip980)" d="M1278.34 1548.76 L1278.34 1551.62 L1251.41 1551.62 Q1251.79 1557.67 1255.04 1560.85 Q1258.32 1564 1264.14 1564 Q1267.51 1564 1270.67 1563.17 Q1273.85 1562.35 1276.97 1560.69 L1276.97 1566.23 Q1273.82 1567.57 1270.51 1568.27 Q1267.2 1568.97 1263.79 1568.97 Q1255.26 1568.97 1250.26 1564 Q1245.3 1559.04 1245.3 1550.57 Q1245.3 1541.82 1250.01 1536.69 Q1254.75 1531.54 1262.77 1531.54 Q1269.97 1531.54 1274.14 1536.18 Q1278.34 1540.8 1278.34 1548.76 M1272.48 1547.04 Q1272.42 1542.23 1269.77 1539.37 Q1267.16 1536.5 1262.84 1536.5 Q1257.93 1536.5 1254.97 1539.27 Q1252.05 1542.04 1251.6 1547.07 L1272.48 1547.04 Z" fill="#000000" fill-rule="nonzero" fill-opacity="1" /><path clip-path="url(#clip980)" d="M1322.74 1518.58 Q1318.47 1525.9 1316.4 1533.06 Q1314.33 1540.23 1314.33 1547.58 Q1314.33 1554.93 1316.4 1562.16 Q1318.5 1569.35 1322.74 1576.64 L1317.64 1576.64 Q1312.87 1569.16 1310.48 1561.93 Q1308.13 1554.71 1308.13 1547.58 Q1308.13 1540.48 1310.48 1533.29 Q1312.84 1526.09 1317.64 1518.58 L1322.74 1518.58 Z" fill="#000000" fill-rule="nonzero" fill-opacity="1" /><path clip-path="url(#clip980)" d="M1334.35 1520.52 L1343.94 1520.52 L1356.06 1552.86 L1368.25 1520.52 L1377.83 1520.52 L1377.83 1568.04 L1371.56 1568.04 L1371.56 1526.32 L1359.31 1558.91 L1352.85 1558.91 L1340.59 1526.32 L1340.59 1568.04 L1334.35 1568.04 L1334.35 1520.52 Z" fill="#000000" fill-rule="nonzero" fill-opacity="1" /><path clip-path="url(#clip980)" d="M1406.54 1550.12 Q1399.44 1550.12 1396.71 1551.75 Q1393.97 1553.37 1393.97 1557.29 Q1393.97 1560.4 1396.01 1562.25 Q1398.08 1564.07 1401.61 1564.07 Q1406.48 1564.07 1409.41 1560.63 Q1412.37 1557.16 1412.37 1551.43 L1412.37 1550.12 L1406.54 1550.12 M1418.22 1547.71 L1418.22 1568.04 L1412.37 1568.04 L1412.37 1562.63 Q1410.36 1565.88 1407.37 1567.44 Q1404.38 1568.97 1400.05 1568.97 Q1394.57 1568.97 1391.33 1565.91 Q1388.11 1562.82 1388.11 1557.67 Q1388.11 1551.65 1392.12 1548.6 Q1396.17 1545.54 1404.15 1545.54 L1412.37 1545.54 L1412.37 1544.97 Q1412.37 1540.93 1409.69 1538.73 Q1407.05 1536.5 1402.25 1536.5 Q1399.19 1536.5 1396.29 1537.23 Q1393.4 1537.97 1390.72 1539.43 L1390.72 1534.02 Q1393.94 1532.78 1396.96 1532.17 Q1399.99 1531.54 1402.85 1531.54 Q1410.58 1531.54 1414.4 1535.55 Q1418.22 1539.56 1418.22 1547.71 Z" fill="#000000" fill-rule="nonzero" fill-opacity="1" /><path clip-path="url(#clip980)" d="M1429.36 1518.58 L1434.46 1518.58 Q1439.23 1526.09 1441.59 1533.29 Q1443.97 1540.48 1443.97 1547.58 Q1443.97 1554.71 1441.59 1561.93 Q1439.23 1569.16 1434.46 1576.64 L1429.36 1576.64 Q1433.6 1569.35 1435.67 1562.16 Q1437.77 1554.93 1437.77 1547.58 Q1437.77 1540.23 1435.67 1533.06 Q1433.6 1525.9 1429.36 1518.58 Z" fill="#000000" fill-rule="nonzero" fill-opacity="1" /><polyline clip-path="url(#clip980)" style="stroke:#000000; stroke-linecap:round; stroke-linejoin:round; stroke-width:4; stroke-opacity:1; fill:none" points="247.459,1423.18 247.459,47.2441 "/>
<polyline clip-path="url(#clip980)" style="stroke:#000000; stroke-linecap:round; stroke-linejoin:round; stroke-width:4; stroke-opacity:1; fill:none" points="2352.76,1423.18 2352.76,47.2441 "/>
<polyline clip-path="url(#clip980)" style="stroke:#000000; stroke-linecap:round; stroke-linejoin:round; stroke-width:4; stroke-opacity:1; fill:none" points="247.459,1384.25 266.356,1384.25 "/>
<polyline clip-path="url(#clip980)" style="stroke:#000000; stroke-linecap:round; stroke-linejoin:round; stroke-width:4; stroke-opacity:1; fill:none" points="247.459,1061.03 266.356,1061.03 "/>
<polyline clip-path="url(#clip980)" style="stroke:#000000; stroke-linecap:round; stroke-linejoin:round; stroke-width:4; stroke-opacity:1; fill:none" points="247.459,737.802 266.356,737.802 "/>
<polyline clip-path="url(#clip980)" style="stroke:#000000; stroke-linecap:round; stroke-linejoin:round; stroke-width:4; stroke-opacity:1; fill:none" points="247.459,414.578 266.356,414.578 "/>
<polyline clip-path="url(#clip980)" style="stroke:#000000; stroke-linecap:round; stroke-linejoin:round; stroke-width:4; stroke-opacity:1; fill:none" points="247.459,91.354 266.356,91.354 "/>
<polyline clip-path="url(#clip980)" style="stroke:#000000; stroke-linecap:round; stroke-linejoin:round; stroke-width:4; stroke-opacity:1; fill:none" points="2352.76,1384.25 2333.86,1384.25 "/>
<polyline clip-path="url(#clip980)" style="stroke:#000000; stroke-linecap:round; stroke-linejoin:round; stroke-width:4; stroke-opacity:1; fill:none" points="2352.76,1061.03 2333.86,1061.03 "/>
<polyline clip-path="url(#clip980)" style="stroke:#000000; stroke-linecap:round; stroke-linejoin:round; stroke-width:4; stroke-opacity:1; fill:none" points="2352.76,737.802 2333.86,737.802 "/>
<polyline clip-path="url(#clip980)" style="stroke:#000000; stroke-linecap:round; stroke-linejoin:round; stroke-width:4; stroke-opacity:1; fill:none" points="2352.76,414.578 2333.86,414.578 "/>
<polyline clip-path="url(#clip980)" style="stroke:#000000; stroke-linecap:round; stroke-linejoin:round; stroke-width:4; stroke-opacity:1; fill:none" points="2352.76,91.354 2333.86,91.354 "/>
<path clip-path="url(#clip980)" d="M154.283 1370.05 Q150.672 1370.05 148.843 1373.61 Q147.038 1377.16 147.038 1384.28 Q147.038 1391.39 148.843 1394.96 Q150.672 1398.5 154.283 1398.5 Q157.917 1398.5 159.723 1394.96 Q161.552 1391.39 161.552 1384.28 Q161.552 1377.16 159.723 1373.61 Q157.917 1370.05 154.283 1370.05 M154.283 1366.35 Q160.093 1366.35 163.149 1370.95 Q166.227 1375.53 166.227 1384.28 Q166.227 1393.01 163.149 1397.62 Q160.093 1402.2 154.283 1402.2 Q148.473 1402.2 145.394 1397.62 Q142.339 1393.01 142.339 1384.28 Q142.339 1375.53 145.394 1370.95 Q148.473 1366.35 154.283 1366.35 Z" fill="#000000" fill-rule="nonzero" fill-opacity="1" /><path clip-path="url(#clip980)" d="M174.445 1395.65 L179.329 1395.65 L179.329 1401.53 L174.445 1401.53 L174.445 1395.65 Z" fill="#000000" fill-rule="nonzero" fill-opacity="1" /><path clip-path="url(#clip980)" d="M199.514 1370.05 Q195.903 1370.05 194.075 1373.61 Q192.269 1377.16 192.269 1384.28 Q192.269 1391.39 194.075 1394.96 Q195.903 1398.5 199.514 1398.5 Q203.149 1398.5 204.954 1394.96 Q206.783 1391.39 206.783 1384.28 Q206.783 1377.16 204.954 1373.61 Q203.149 1370.05 199.514 1370.05 M199.514 1366.35 Q205.324 1366.35 208.38 1370.95 Q211.459 1375.53 211.459 1384.28 Q211.459 1393.01 208.38 1397.62 Q205.324 1402.2 199.514 1402.2 Q193.704 1402.2 190.625 1397.62 Q187.57 1393.01 187.57 1384.28 Q187.57 1375.53 190.625 1370.95 Q193.704 1366.35 199.514 1366.35 Z" fill="#000000" fill-rule="nonzero" fill-opacity="1" /><path clip-path="url(#clip980)" d="M149.306 1074.37 L165.626 1074.37 L165.626 1078.31 L143.681 1078.31 L143.681 1074.37 Q146.343 1071.62 150.927 1066.99 Q155.533 1062.33 156.714 1060.99 Q158.959 1058.47 159.839 1056.73 Q160.741 1054.97 160.741 1053.28 Q160.741 1050.53 158.797 1048.79 Q156.876 1047.06 153.774 1047.06 Q151.575 1047.06 149.121 1047.82 Q146.691 1048.58 143.913 1050.13 L143.913 1045.41 Q146.737 1044.28 149.191 1043.7 Q151.644 1043.12 153.681 1043.12 Q159.052 1043.12 162.246 1045.81 Q165.44 1048.49 165.44 1052.98 Q165.44 1055.11 164.63 1057.03 Q163.843 1058.93 161.737 1061.52 Q161.158 1062.2 158.056 1065.41 Q154.954 1068.61 149.306 1074.37 Z" fill="#000000" fill-rule="nonzero" fill-opacity="1" /><path clip-path="url(#clip980)" d="M175.44 1072.43 L180.325 1072.43 L180.325 1078.31 L175.44 1078.31 L175.44 1072.43 Z" fill="#000000" fill-rule="nonzero" fill-opacity="1" /><path clip-path="url(#clip980)" d="M190.556 1043.75 L208.912 1043.75 L208.912 1047.68 L194.838 1047.68 L194.838 1056.15 Q195.857 1055.81 196.875 1055.64 Q197.894 1055.46 198.912 1055.46 Q204.699 1055.46 208.079 1058.63 Q211.459 1061.8 211.459 1067.22 Q211.459 1072.8 207.987 1075.9 Q204.514 1078.98 198.195 1078.98 Q196.019 1078.98 193.75 1078.61 Q191.505 1078.24 189.098 1077.5 L189.098 1072.8 Q191.181 1073.93 193.403 1074.49 Q195.625 1075.04 198.102 1075.04 Q202.107 1075.04 204.445 1072.94 Q206.783 1070.83 206.783 1067.22 Q206.783 1063.61 204.445 1061.5 Q202.107 1059.39 198.102 1059.39 Q196.227 1059.39 194.352 1059.81 Q192.5 1060.23 190.556 1061.11 L190.556 1043.75 Z" fill="#000000" fill-rule="nonzero" fill-opacity="1" /><path clip-path="url(#clip980)" d="M144.329 720.522 L162.686 720.522 L162.686 724.457 L148.612 724.457 L148.612 732.929 Q149.63 732.582 150.649 732.42 Q151.667 732.235 152.686 732.235 Q158.473 732.235 161.852 735.406 Q165.232 738.578 165.232 743.994 Q165.232 749.573 161.76 752.675 Q158.288 755.753 151.968 755.753 Q149.792 755.753 147.524 755.383 Q145.279 755.013 142.871 754.272 L142.871 749.573 Q144.954 750.707 147.177 751.263 Q149.399 751.818 151.876 751.818 Q155.88 751.818 158.218 749.712 Q160.556 747.605 160.556 743.994 Q160.556 740.383 158.218 738.277 Q155.88 736.17 151.876 736.17 Q150.001 736.17 148.126 736.587 Q146.274 737.003 144.329 737.883 L144.329 720.522 Z" fill="#000000" fill-rule="nonzero" fill-opacity="1" /><path clip-path="url(#clip980)" d="M174.445 749.202 L179.329 749.202 L179.329 755.082 L174.445 755.082 L174.445 749.202 Z" fill="#000000" fill-rule="nonzero" fill-opacity="1" /><path clip-path="url(#clip980)" d="M199.514 723.601 Q195.903 723.601 194.075 727.166 Q192.269 730.707 192.269 737.837 Q192.269 744.943 194.075 748.508 Q195.903 752.05 199.514 752.05 Q203.149 752.05 204.954 748.508 Q206.783 744.943 206.783 737.837 Q206.783 730.707 204.954 727.166 Q203.149 723.601 199.514 723.601 M199.514 719.897 Q205.324 719.897 208.38 724.504 Q211.459 729.087 211.459 737.837 Q211.459 746.564 208.38 751.17 Q205.324 755.753 199.514 755.753 Q193.704 755.753 190.625 751.17 Q187.57 746.564 187.57 737.837 Q187.57 729.087 190.625 724.504 Q193.704 719.897 199.514 719.897 Z" fill="#000000" fill-rule="nonzero" fill-opacity="1" /><path clip-path="url(#clip980)" d="M144.098 397.298 L166.32 397.298 L166.32 399.289 L153.774 431.858 L148.89 431.858 L160.695 401.233 L144.098 401.233 L144.098 397.298 Z" fill="#000000" fill-rule="nonzero" fill-opacity="1" /><path clip-path="url(#clip980)" d="M175.44 425.978 L180.325 425.978 L180.325 431.858 L175.44 431.858 L175.44 425.978 Z" fill="#000000" fill-rule="nonzero" fill-opacity="1" /><path clip-path="url(#clip980)" d="M190.556 397.298 L208.912 397.298 L208.912 401.233 L194.838 401.233 L194.838 409.705 Q195.857 409.358 196.875 409.196 Q197.894 409.011 198.912 409.011 Q204.699 409.011 208.079 412.182 Q211.459 415.354 211.459 420.77 Q211.459 426.349 207.987 429.451 Q204.514 432.529 198.195 432.529 Q196.019 432.529 193.75 432.159 Q191.505 431.789 189.098 431.048 L189.098 426.349 Q191.181 427.483 193.403 428.039 Q195.625 428.594 198.102 428.594 Q202.107 428.594 204.445 426.488 Q206.783 424.381 206.783 420.77 Q206.783 417.159 204.445 415.053 Q202.107 412.946 198.102 412.946 Q196.227 412.946 194.352 413.363 Q192.5 413.779 190.556 414.659 L190.556 397.298 Z" fill="#000000" fill-rule="nonzero" fill-opacity="1" /><path clip-path="url(#clip980)" d="M114.931 104.699 L122.57 104.699 L122.57 78.3333 L114.26 79.9999 L114.26 75.7407 L122.524 74.074 L127.2 74.074 L127.2 104.699 L134.839 104.699 L134.839 108.634 L114.931 108.634 L114.931 104.699 Z" fill="#000000" fill-rule="nonzero" fill-opacity="1" /><path clip-path="url(#clip980)" d="M154.283 77.1527 Q150.672 77.1527 148.843 80.7175 Q147.038 84.2592 147.038 91.3888 Q147.038 98.4952 148.843 102.06 Q150.672 105.602 154.283 105.602 Q157.917 105.602 159.723 102.06 Q161.552 98.4952 161.552 91.3888 Q161.552 84.2592 159.723 80.7175 Q157.917 77.1527 154.283 77.1527 M154.283 73.449 Q160.093 73.449 163.149 78.0555 Q166.227 82.6388 166.227 91.3888 Q166.227 100.116 163.149 104.722 Q160.093 109.305 154.283 109.305 Q148.473 109.305 145.394 104.722 Q142.339 100.116 142.339 91.3888 Q142.339 82.6388 145.394 78.0555 Q148.473 73.449 154.283 73.449 Z" fill="#000000" fill-rule="nonzero" fill-opacity="1" /><path clip-path="url(#clip980)" d="M174.445 102.754 L179.329 102.754 L179.329 108.634 L174.445 108.634 L174.445 102.754 Z" fill="#000000" fill-rule="nonzero" fill-opacity="1" /><path clip-path="url(#clip980)" d="M199.514 77.1527 Q195.903 77.1527 194.075 80.7175 Q192.269 84.2592 192.269 91.3888 Q192.269 98.4952 194.075 102.06 Q195.903 105.602 199.514 105.602 Q203.149 105.602 204.954 102.06 Q206.783 98.4952 206.783 91.3888 Q206.783 84.2592 204.954 80.7175 Q203.149 77.1527 199.514 77.1527 M199.514 73.449 Q205.324 73.449 208.38 78.0555 Q211.459 82.6388 211.459 91.3888 Q211.459 100.116 208.38 104.722 Q205.324 109.305 199.514 109.305 Q193.704 109.305 190.625 104.722 Q187.57 100.116 187.57 91.3888 Q187.57 82.6388 190.625 78.0555 Q193.704 73.449 199.514 73.449 Z" fill="#000000" fill-rule="nonzero" fill-opacity="1" /><path clip-path="url(#clip980)" d="M21.7677 1026.76 L39.6235 1026.76 L39.6235 1018.68 Q39.6235 1014.19 37.3 1011.74 Q34.9765 1009.29 30.6797 1009.29 Q26.4147 1009.29 24.0912 1011.74 Q21.7677 1014.19 21.7677 1018.68 L21.7677 1026.76 M16.4842 1033.19 L16.4842 1018.68 Q16.4842 1010.69 20.1126 1006.61 Q23.7092 1002.51 30.6797 1002.51 Q37.7138 1002.51 41.3104 1006.61 Q44.907 1010.69 44.907 1018.68 L44.907 1026.76 L64.0042 1026.76 L64.0042 1033.19 L16.4842 1033.19 Z" fill="#000000" fill-rule="nonzero" fill-opacity="1" /><path clip-path="url(#clip980)" d="M33.8307 974.626 Q33.2578 975.613 33.0032 976.791 Q32.7167 977.936 32.7167 979.337 Q32.7167 984.302 35.9632 986.976 Q39.1779 989.617 45.2253 989.617 L64.0042 989.617 L64.0042 995.506 L28.3562 995.506 L28.3562 989.617 L33.8944 989.617 Q30.6479 987.771 29.0883 984.811 Q27.4968 981.851 27.4968 977.618 Q27.4968 977.013 27.5923 976.281 Q27.656 975.549 27.8151 974.658 L33.8307 974.626 Z" fill="#000000" fill-rule="nonzero" fill-opacity="1" /><path clip-path="url(#clip980)" d="M32.4621 956.102 Q32.4621 960.813 36.1542 963.55 Q39.8145 966.287 46.212 966.287 Q52.6095 966.287 56.3017 963.582 Q59.9619 960.844 59.9619 956.102 Q59.9619 951.423 56.2698 948.686 Q52.5777 945.949 46.212 945.949 Q39.8781 945.949 36.186 948.686 Q32.4621 951.423 32.4621 956.102 M27.4968 956.102 Q27.4968 948.463 32.4621 944.103 Q37.4273 939.742 46.212 939.742 Q54.9649 939.742 59.9619 944.103 Q64.9272 948.463 64.9272 956.102 Q64.9272 963.773 59.9619 968.133 Q54.9649 972.462 46.212 972.462 Q37.4273 972.462 32.4621 968.133 Q27.4968 963.773 27.4968 956.102 Z" fill="#000000" fill-rule="nonzero" fill-opacity="1" /><path clip-path="url(#clip980)" d="M46.212 904.444 Q39.7508 904.444 36.0905 907.118 Q32.3984 909.76 32.3984 914.407 Q32.3984 919.054 36.0905 921.727 Q39.7508 924.369 46.212 924.369 Q52.6732 924.369 56.3653 921.727 Q60.0256 919.054 60.0256 914.407 Q60.0256 909.76 56.3653 907.118 Q52.6732 904.444 46.212 904.444 M33.7671 924.369 Q30.5842 922.523 29.0564 919.722 Q27.4968 916.889 27.4968 912.974 Q27.4968 906.481 32.6531 902.439 Q37.8093 898.365 46.212 898.365 Q54.6147 898.365 59.771 902.439 Q64.9272 906.481 64.9272 912.974 Q64.9272 916.889 63.3994 919.722 Q61.8398 922.523 58.657 924.369 L64.0042 924.369 L64.0042 930.257 L14.479 930.257 L14.479 924.369 L33.7671 924.369 Z" fill="#000000" fill-rule="nonzero" fill-opacity="1" /><path clip-path="url(#clip980)" d="M46.0847 872.457 Q46.0847 879.554 47.7079 882.292 Q49.3312 885.029 53.2461 885.029 Q56.3653 885.029 58.2114 882.992 Q60.0256 880.923 60.0256 877.39 Q60.0256 872.52 56.5881 869.592 Q53.1188 866.632 47.3897 866.632 L46.0847 866.632 L46.0847 872.457 M43.6657 860.776 L64.0042 860.776 L64.0042 866.632 L58.5933 866.632 Q61.8398 868.637 63.3994 871.629 Q64.9272 874.621 64.9272 878.95 Q64.9272 884.424 61.8716 887.671 Q58.7843 890.885 53.6281 890.885 Q47.6125 890.885 44.5569 886.875 Q41.5014 882.833 41.5014 874.844 L41.5014 866.632 L40.9285 866.632 Q36.8862 866.632 34.6901 869.306 Q32.4621 871.947 32.4621 876.753 Q32.4621 879.809 33.1941 882.705 Q33.9262 885.602 35.3903 888.275 L29.9795 888.275 Q28.7381 885.061 28.1334 882.037 Q27.4968 879.013 27.4968 876.149 Q27.4968 868.414 31.5072 864.595 Q35.5176 860.776 43.6657 860.776 Z" fill="#000000" fill-rule="nonzero" fill-opacity="1" /><path clip-path="url(#clip980)" d="M46.212 823.122 Q39.7508 823.122 36.0905 825.796 Q32.3984 828.438 32.3984 833.085 Q32.3984 837.732 36.0905 840.405 Q39.7508 843.047 46.212 843.047 Q52.6732 843.047 56.3653 840.405 Q60.0256 837.732 60.0256 833.085 Q60.0256 828.438 56.3653 825.796 Q52.6732 823.122 46.212 823.122 M33.7671 843.047 Q30.5842 841.201 29.0564 838.4 Q27.4968 835.567 27.4968 831.652 Q27.4968 825.159 32.6531 821.117 Q37.8093 817.043 46.212 817.043 Q54.6147 817.043 59.771 821.117 Q64.9272 825.159 64.9272 831.652 Q64.9272 835.567 63.3994 838.4 Q61.8398 841.201 58.657 843.047 L64.0042 843.047 L64.0042 848.935 L14.479 848.935 L14.479 843.047 L33.7671 843.047 Z" fill="#000000" fill-rule="nonzero" fill-opacity="1" /><path clip-path="url(#clip980)" d="M28.3562 807.335 L28.3562 801.479 L64.0042 801.479 L64.0042 807.335 L28.3562 807.335 M14.479 807.335 L14.479 801.479 L21.895 801.479 L21.895 807.335 L14.479 807.335 Z" fill="#000000" fill-rule="nonzero" fill-opacity="1" /><path clip-path="url(#clip980)" d="M14.479 789.225 L14.479 783.369 L64.0042 783.369 L64.0042 789.225 L14.479 789.225 Z" fill="#000000" fill-rule="nonzero" fill-opacity="1" /><path clip-path="url(#clip980)" d="M28.3562 771.115 L28.3562 765.258 L64.0042 765.258 L64.0042 771.115 L28.3562 771.115 M14.479 771.115 L14.479 765.258 L21.895 765.258 L21.895 771.115 L14.479 771.115 Z" fill="#000000" fill-rule="nonzero" fill-opacity="1" /><path clip-path="url(#clip980)" d="M18.2347 747.211 L28.3562 747.211 L28.3562 735.148 L32.9077 735.148 L32.9077 747.211 L52.2594 747.211 Q56.6199 747.211 57.8613 746.034 Q59.1026 744.824 59.1026 741.164 L59.1026 735.148 L64.0042 735.148 L64.0042 741.164 Q64.0042 747.943 61.4897 750.521 Q58.9434 753.1 52.2594 753.1 L32.9077 753.1 L32.9077 757.396 L28.3562 757.396 L28.3562 753.1 L18.2347 753.1 L18.2347 747.211 Z" fill="#000000" fill-rule="nonzero" fill-opacity="1" /><path clip-path="url(#clip980)" d="M67.3143 712.614 Q73.68 715.096 75.6216 717.452 Q77.5631 719.807 77.5631 723.754 L77.5631 728.432 L72.6615 728.432 L72.6615 724.995 Q72.6615 722.576 71.5157 721.239 Q70.3699 719.902 66.1048 718.279 L63.4312 717.229 L28.3562 731.647 L28.3562 725.441 L56.238 714.301 L28.3562 703.161 L28.3562 696.954 L67.3143 712.614 Z" fill="#000000" fill-rule="nonzero" fill-opacity="1" /><path clip-path="url(#clip980)" d="M33.7671 644.692 L14.479 644.692 L14.479 638.835 L64.0042 638.835 L64.0042 644.692 L58.657 644.692 Q61.8398 646.538 63.3994 649.37 Q64.9272 652.171 64.9272 656.118 Q64.9272 662.579 59.771 666.653 Q54.6147 670.696 46.212 670.696 Q37.8093 670.696 32.6531 666.653 Q27.4968 662.579 27.4968 656.118 Q27.4968 652.171 29.0564 649.37 Q30.5842 646.538 33.7671 644.692 M46.212 664.648 Q52.6732 664.648 56.3653 662.006 Q60.0256 659.333 60.0256 654.686 Q60.0256 650.039 56.3653 647.365 Q52.6732 644.692 46.212 644.692 Q39.7508 644.692 36.0905 647.365 Q32.3984 650.039 32.3984 654.686 Q32.3984 659.333 36.0905 662.006 Q39.7508 664.648 46.212 664.648 Z" fill="#000000" fill-rule="nonzero" fill-opacity="1" /><path clip-path="url(#clip980)" d="M44.7161 596.28 L47.5806 596.28 L47.5806 623.207 Q53.6281 622.825 56.8109 619.579 Q59.9619 616.301 59.9619 610.476 Q59.9619 607.102 59.1344 603.951 Q58.3069 600.768 56.6518 597.649 L62.1899 597.649 Q63.5267 600.8 64.227 604.11 Q64.9272 607.42 64.9272 610.826 Q64.9272 619.356 59.9619 624.353 Q54.9967 629.318 46.5303 629.318 Q37.7774 629.318 32.6531 624.608 Q27.4968 619.865 27.4968 611.845 Q27.4968 604.651 32.1438 600.482 Q36.7589 596.28 44.7161 596.28 M42.9973 602.137 Q38.1912 602.201 35.3266 604.842 Q32.4621 607.452 32.4621 611.781 Q32.4621 616.683 35.2312 619.643 Q38.0002 622.571 43.0292 623.016 L42.9973 602.137 Z" fill="#000000" fill-rule="nonzero" fill-opacity="1" /><path clip-path="url(#clip980)" d="M42.4881 557.036 L64.0042 557.036 L64.0042 562.892 L42.679 562.892 Q37.6183 562.892 35.1038 564.866 Q32.5894 566.839 32.5894 570.786 Q32.5894 575.528 35.6131 578.265 Q38.6368 581.003 43.8567 581.003 L64.0042 581.003 L64.0042 586.891 L28.3562 586.891 L28.3562 581.003 L33.8944 581.003 Q30.6797 578.902 29.0883 576.069 Q27.4968 573.205 27.4968 569.481 Q27.4968 563.338 31.3163 560.187 Q35.1038 557.036 42.4881 557.036 Z" fill="#000000" fill-rule="nonzero" fill-opacity="1" /><path clip-path="url(#clip980)" d="M29.4065 522.629 L34.9447 522.629 Q33.6716 525.112 33.035 527.785 Q32.3984 530.459 32.3984 533.324 Q32.3984 537.684 33.7352 539.88 Q35.072 542.045 37.7456 542.045 Q39.7826 542.045 40.9603 540.485 Q42.1061 538.925 43.1565 534.215 L43.6021 532.21 Q44.9389 525.971 47.3897 523.361 Q49.8086 520.719 54.1691 520.719 Q59.1344 520.719 62.0308 524.666 Q64.9272 528.581 64.9272 535.456 Q64.9272 538.321 64.3543 541.44 Q63.8132 544.527 62.6992 547.965 L56.6518 547.965 Q58.3387 544.718 59.198 541.567 Q60.0256 538.416 60.0256 535.329 Q60.0256 531.191 58.6251 528.963 Q57.1929 526.735 54.6147 526.735 Q52.2276 526.735 50.9545 528.358 Q49.6813 529.95 48.5037 535.392 L48.0262 537.429 Q46.8804 542.872 44.5251 545.291 Q42.138 547.71 38.0002 547.71 Q32.9713 547.71 30.2341 544.145 Q27.4968 540.58 27.4968 534.024 Q27.4968 530.777 27.9743 527.913 Q28.4517 525.048 29.4065 522.629 Z" fill="#000000" fill-rule="nonzero" fill-opacity="1" /><path clip-path="url(#clip980)" d="M28.3562 511.394 L28.3562 505.537 L64.0042 505.537 L64.0042 511.394 L28.3562 511.394 M14.479 511.394 L14.479 505.537 L21.895 505.537 L21.895 511.394 L14.479 511.394 Z" fill="#000000" fill-rule="nonzero" fill-opacity="1" /><path clip-path="url(#clip980)" d="M18.2347 487.49 L28.3562 487.49 L28.3562 475.427 L32.9077 475.427 L32.9077 487.49 L52.2594 487.49 Q56.6199 487.49 57.8613 486.313 Q59.1026 485.103 59.1026 481.443 L59.1026 475.427 L64.0042 475.427 L64.0042 481.443 Q64.0042 488.223 61.4897 490.801 Q58.9434 493.379 52.2594 493.379 L32.9077 493.379 L32.9077 497.676 L28.3562 497.676 L28.3562 493.379 L18.2347 493.379 L18.2347 487.49 Z" fill="#000000" fill-rule="nonzero" fill-opacity="1" /><path clip-path="url(#clip980)" d="M67.3143 452.893 Q73.68 455.376 75.6216 457.731 Q77.5631 460.086 77.5631 464.033 L77.5631 468.712 L72.6615 468.712 L72.6615 465.274 Q72.6615 462.855 71.5157 461.518 Q70.3699 460.182 66.1048 458.558 L63.4312 457.508 L28.3562 471.926 L28.3562 465.72 L56.238 454.58 L28.3562 443.44 L28.3562 437.233 L67.3143 452.893 Z" fill="#000000" fill-rule="nonzero" fill-opacity="1" /><polyline clip-path="url(#clip982)" style="stroke:#009af9; stroke-linecap:round; stroke-linejoin:round; stroke-width:4; stroke-opacity:1; fill:none" points="307.043,1384.2 347.166,1384.24 367.228,1384.24 387.29,1384.2 527.724,1384.17 547.786,1383.95 567.847,1383.96 607.971,1384.21 628.033,1384.12 648.095,1384.13 668.157,1384.21 688.219,1384.2 708.281,1384.2 728.343,1383.82 748.405,1384.01 768.467,1383.94 788.529,1383.77 808.59,1383.56 828.652,1383.37 848.714,1383.03 868.776,1383.6 888.838,1383.67 908.9,1383.14 928.962,1382.51 949.024,1382.28 969.086,1382.23 989.148,1382.63 1009.21,1380.93 1029.27,1380.88 1049.33,1379.53 1069.4,1379.58 1089.46,1375.78 1109.52,1376.86 1129.58,1373.1 1149.64,1371.57 1169.7,1365.74 1189.77,1364.79 1209.83,1357.63 1229.89,1356.75 1249.95,1367.19 1270.01,1364.99 1290.08,1362.77 1310.14,1356.3 1330.2,1352.18 1350.26,1347.64 1370.32,1338.74 1390.39,1331.46 1410.45,1325.62 1430.51,1310.61 1450.57,1303.15 1470.63,1279.7 1490.7,1272.84 1510.76,1247.99 1530.82,1222.16 1550.88,1199.53 1570.94,1178.2 1591.01,1123.66 1611.07,1095.86 1631.13,1032 1651.19,977.644 1671.25,1029.3 1691.31,967.724 1711.38,913.865 1731.44,835.788 1751.5,749.148 1771.56,662.34 1791.62,586.155 1811.69,498.325 1831.75,566.957 1851.81,617.64 1871.87,593.637 1891.93,887.673 1912,1006.69 1932.06,1090.27 1952.12,1191.51 1972.18,1237.84 1992.24,1272.02 2012.31,1308.75 2032.37,1332.23 2052.43,1345.77 2072.49,1362.73 2092.55,1370.57 2112.61,1373.47 2132.68,1378.05 2152.74,1381.12 2172.8,1381.55 2192.86,1382.78 2212.92,1383.31 2232.99,1383.82 2253.05,1384.13 2273.11,1384.23 2293.17,1384.11 "/>
<polyline clip-path="url(#clip982)" style="stroke:#e26f46; stroke-linecap:round; stroke-linejoin:round; stroke-width:4; stroke-opacity:1; fill:none" points="307.043,1384.17 347.166,1384.14 367.228,1384.13 387.29,1384.11 527.724,1383.91 547.786,1383.86 567.847,1383.8 607.971,1383.67 628.033,1383.59 648.095,1383.5 668.157,1383.39 688.219,1383.27 708.281,1383.13 728.343,1382.98 748.405,1382.8 768.467,1382.59 788.529,1382.36 808.59,1382.1 828.652,1381.8 848.714,1381.45 868.776,1381.06 888.838,1380.62 908.9,1380.11 928.962,1379.53 949.024,1378.87 969.086,1378.11 989.148,1377.25 1009.21,1376.27 1029.27,1375.16 1049.33,1373.88 1069.4,1372.43 1089.46,1370.78 1109.52,1368.89 1129.58,1366.74 1149.64,1364.29 1169.7,1361.5 1189.77,1358.32 1209.83,1354.69 1229.89,1350.56 1249.95,1345.84 1270.01,1340.47 1290.08,1334.35 1310.14,1327.37 1330.2,1319.41 1350.26,1310.35 1370.32,1300.02 1390.39,1288.25 1410.45,1274.84 1430.51,1259.56 1450.57,1242.16 1470.63,1222.33 1490.7,1199.75 1510.76,1174.04 1530.82,1144.77 1550.88,1111.47 1570.94,1073.59 1591.01,1030.53 1611.07,981.625 1631.13,926.146 1651.19,863.316 1671.25,792.343 1691.31,712.483 1711.38,623.19 1731.44,524.407 1751.5,417.203 1771.56,305.118 1791.62,196.996 1811.69,112.216 1831.75,86.1857 1851.81,160.45 1871.87,339.044 1891.93,566.103 1912,779.351 1932.06,950.986 1952.12,1079.13 1972.18,1171.35 1992.24,1236.48 2012.31,1282.01 2032.37,1313.66 2052.43,1335.57 2072.49,1350.71 2092.55,1361.16 2112.61,1368.36 2132.68,1373.31 2152.74,1376.73 2172.8,1379.08 2192.86,1380.69 2212.92,1381.8 2232.99,1382.57 2253.05,1383.09 2273.11,1383.46 2293.17,1383.7 "/>
<path clip-path="url(#clip980)" d="M317.635 248.629 L862.469 248.629 L862.469 93.1086 L317.635 93.1086  Z" fill="#ffffff" fill-rule="evenodd" fill-opacity="1"/>
<polyline clip-path="url(#clip980)" style="stroke:#ffffff; stroke-linecap:round; stroke-linejoin:round; stroke-width:4; stroke-opacity:1; fill:none" points="317.635,248.629 862.469,248.629 862.469,93.1086 317.635,93.1086 317.635,248.629 "/>
<polyline clip-path="url(#clip980)" style="stroke:#009af9; stroke-linecap:round; stroke-linejoin:round; stroke-width:4; stroke-opacity:1; fill:none" points="341.027,144.949 481.381,144.949 "/>
<path clip-path="url(#clip980)" d="M504.773 127.669 L509.449 127.669 L509.449 141.835 L526.439 141.835 L526.439 127.669 L531.115 127.669 L531.115 162.229 L526.439 162.229 L526.439 145.77 L509.449 145.77 L509.449 162.229 L504.773 162.229 L504.773 127.669 Z" fill="#000000" fill-rule="nonzero" fill-opacity="1" /><path clip-path="url(#clip980)" d="M540.236 136.303 L544.495 136.303 L544.495 162.229 L540.236 162.229 L540.236 136.303 M540.236 126.21 L544.495 126.21 L544.495 131.604 L540.236 131.604 L540.236 126.21 Z" fill="#000000" fill-rule="nonzero" fill-opacity="1" /><path clip-path="url(#clip980)" d="M569.935 137.067 L569.935 141.094 Q568.129 140.169 566.185 139.706 Q564.24 139.243 562.157 139.243 Q558.985 139.243 557.388 140.215 Q555.814 141.187 555.814 143.131 Q555.814 144.613 556.948 145.469 Q558.083 146.303 561.509 147.067 L562.967 147.391 Q567.504 148.363 569.402 150.145 Q571.323 151.905 571.323 155.076 Q571.323 158.687 568.453 160.793 Q565.606 162.9 560.606 162.9 Q558.523 162.9 556.254 162.483 Q554.009 162.09 551.509 161.28 L551.509 156.881 Q553.87 158.108 556.161 158.733 Q558.453 159.335 560.698 159.335 Q563.708 159.335 565.328 158.317 Q566.948 157.275 566.948 155.4 Q566.948 153.664 565.768 152.738 Q564.61 151.812 560.652 150.956 L559.171 150.608 Q555.212 149.775 553.453 148.062 Q551.694 146.326 551.694 143.317 Q551.694 139.659 554.286 137.669 Q556.879 135.678 561.648 135.678 Q564.009 135.678 566.092 136.025 Q568.175 136.372 569.935 137.067 Z" fill="#000000" fill-rule="nonzero" fill-opacity="1" /><path clip-path="url(#clip980)" d="M582.319 128.942 L582.319 136.303 L591.092 136.303 L591.092 139.613 L582.319 139.613 L582.319 153.687 Q582.319 156.858 583.175 157.761 Q584.055 158.664 586.717 158.664 L591.092 158.664 L591.092 162.229 L586.717 162.229 Q581.786 162.229 579.911 160.4 Q578.036 158.548 578.036 153.687 L578.036 139.613 L574.911 139.613 L574.911 136.303 L578.036 136.303 L578.036 128.942 L582.319 128.942 Z" fill="#000000" fill-rule="nonzero" fill-opacity="1" /><path clip-path="url(#clip980)" d="M606.74 139.289 Q603.314 139.289 601.323 141.974 Q599.332 144.636 599.332 149.289 Q599.332 153.942 601.3 156.627 Q603.291 159.289 606.74 159.289 Q610.143 159.289 612.133 156.604 Q614.124 153.918 614.124 149.289 Q614.124 144.682 612.133 141.997 Q610.143 139.289 606.74 139.289 M606.74 135.678 Q612.295 135.678 615.467 139.289 Q618.638 142.9 618.638 149.289 Q618.638 155.655 615.467 159.289 Q612.295 162.9 606.74 162.9 Q601.161 162.9 597.99 159.289 Q594.842 155.655 594.842 149.289 Q594.842 142.9 597.99 139.289 Q601.161 135.678 606.74 135.678 Z" fill="#000000" fill-rule="nonzero" fill-opacity="1" /><path clip-path="url(#clip980)" d="M642.758 148.965 Q642.758 144.335 640.837 141.789 Q638.939 139.243 635.49 139.243 Q632.064 139.243 630.143 141.789 Q628.244 144.335 628.244 148.965 Q628.244 153.571 630.143 156.118 Q632.064 158.664 635.49 158.664 Q638.939 158.664 640.837 156.118 Q642.758 153.571 642.758 148.965 M647.017 159.011 Q647.017 165.631 644.078 168.849 Q641.138 172.09 635.073 172.09 Q632.828 172.09 630.837 171.742 Q628.846 171.418 626.971 170.724 L626.971 166.58 Q628.846 167.599 630.675 168.085 Q632.504 168.571 634.402 168.571 Q638.592 168.571 640.675 166.372 Q642.758 164.196 642.758 159.775 L642.758 157.668 Q641.439 159.96 639.379 161.094 Q637.318 162.229 634.448 162.229 Q629.68 162.229 626.763 158.594 Q623.846 154.96 623.846 148.965 Q623.846 142.946 626.763 139.312 Q629.68 135.678 634.448 135.678 Q637.318 135.678 639.379 136.812 Q641.439 137.946 642.758 140.238 L642.758 136.303 L647.017 136.303 L647.017 159.011 Z" fill="#000000" fill-rule="nonzero" fill-opacity="1" /><path clip-path="url(#clip980)" d="M670.814 140.284 Q670.096 139.868 669.24 139.682 Q668.406 139.474 667.388 139.474 Q663.777 139.474 661.832 141.835 Q659.911 144.173 659.911 148.571 L659.911 162.229 L655.628 162.229 L655.628 136.303 L659.911 136.303 L659.911 140.331 Q661.253 137.969 663.406 136.835 Q665.559 135.678 668.638 135.678 Q669.077 135.678 669.61 135.747 Q670.142 135.794 670.79 135.909 L670.814 140.284 Z" fill="#000000" fill-rule="nonzero" fill-opacity="1" /><path clip-path="url(#clip980)" d="M687.064 149.196 Q681.901 149.196 679.911 150.377 Q677.92 151.557 677.92 154.405 Q677.92 156.673 679.402 158.016 Q680.906 159.335 683.476 159.335 Q687.017 159.335 689.147 156.835 Q691.3 154.312 691.3 150.145 L691.3 149.196 L687.064 149.196 M695.559 147.437 L695.559 162.229 L691.3 162.229 L691.3 158.293 Q689.841 160.655 687.665 161.789 Q685.489 162.9 682.341 162.9 Q678.36 162.9 675.999 160.678 Q673.661 158.432 673.661 154.682 Q673.661 150.307 676.577 148.085 Q679.517 145.863 685.327 145.863 L691.3 145.863 L691.3 145.446 Q691.3 142.507 689.355 140.909 Q687.434 139.289 683.939 139.289 Q681.716 139.289 679.61 139.821 Q677.503 140.354 675.559 141.419 L675.559 137.483 Q677.897 136.581 680.096 136.141 Q682.295 135.678 684.378 135.678 Q690.003 135.678 692.781 138.594 Q695.559 141.511 695.559 147.437 Z" fill="#000000" fill-rule="nonzero" fill-opacity="1" /><path clip-path="url(#clip980)" d="M724.517 141.28 Q726.114 138.409 728.336 137.044 Q730.559 135.678 733.568 135.678 Q737.619 135.678 739.818 138.525 Q742.017 141.349 742.017 146.581 L742.017 162.229 L737.735 162.229 L737.735 146.719 Q737.735 142.993 736.415 141.187 Q735.096 139.382 732.387 139.382 Q729.077 139.382 727.156 141.581 Q725.235 143.78 725.235 147.576 L725.235 162.229 L720.952 162.229 L720.952 146.719 Q720.952 142.969 719.633 141.187 Q718.313 139.382 715.559 139.382 Q712.295 139.382 710.374 141.604 Q708.452 143.803 708.452 147.576 L708.452 162.229 L704.17 162.229 L704.17 136.303 L708.452 136.303 L708.452 140.331 Q709.911 137.946 711.948 136.812 Q713.985 135.678 716.786 135.678 Q719.61 135.678 721.577 137.113 Q723.568 138.548 724.517 141.28 Z" fill="#000000" fill-rule="nonzero" fill-opacity="1" /><polyline clip-path="url(#clip980)" style="stroke:#e26f46; stroke-linecap:round; stroke-linejoin:round; stroke-width:4; stroke-opacity:1; fill:none" points="341.027,196.789 481.381,196.789 "/>
<path clip-path="url(#clip980)" d="M509.449 183.351 L509.449 210.226 L515.097 210.226 Q522.25 210.226 525.56 206.985 Q528.893 203.745 528.893 196.754 Q528.893 189.809 525.56 186.592 Q522.25 183.351 515.097 183.351 L509.449 183.351 M504.773 179.509 L514.379 179.509 Q524.425 179.509 529.125 183.698 Q533.824 187.865 533.824 196.754 Q533.824 205.689 529.101 209.879 Q524.379 214.069 514.379 214.069 L504.773 214.069 L504.773 179.509 Z" fill="#000000" fill-rule="nonzero" fill-opacity="1" /><path clip-path="url(#clip980)" d="M541.092 188.143 L545.351 188.143 L545.351 214.069 L541.092 214.069 L541.092 188.143 M541.092 178.05 L545.351 178.05 L545.351 183.444 L541.092 183.444 L541.092 178.05 Z" fill="#000000" fill-rule="nonzero" fill-opacity="1" /><path clip-path="url(#clip980)" d="M570.791 188.907 L570.791 192.934 Q568.985 192.009 567.041 191.546 Q565.097 191.083 563.013 191.083 Q559.842 191.083 558.245 192.055 Q556.671 193.027 556.671 194.971 Q556.671 196.453 557.805 197.309 Q558.939 198.143 562.365 198.907 L563.823 199.231 Q568.36 200.203 570.259 201.985 Q572.18 203.745 572.18 206.916 Q572.18 210.527 569.31 212.633 Q566.462 214.74 561.462 214.74 Q559.379 214.74 557.11 214.323 Q554.865 213.93 552.365 213.12 L552.365 208.721 Q554.726 209.948 557.018 210.573 Q559.31 211.175 561.555 211.175 Q564.564 211.175 566.185 210.157 Q567.805 209.115 567.805 207.24 Q567.805 205.504 566.624 204.578 Q565.467 203.652 561.509 202.796 L560.027 202.448 Q556.069 201.615 554.31 199.902 Q552.55 198.166 552.55 195.157 Q552.55 191.499 555.143 189.509 Q557.735 187.518 562.504 187.518 Q564.865 187.518 566.948 187.865 Q569.032 188.212 570.791 188.907 Z" fill="#000000" fill-rule="nonzero" fill-opacity="1" /><path clip-path="url(#clip980)" d="M583.175 180.782 L583.175 188.143 L591.948 188.143 L591.948 191.453 L583.175 191.453 L583.175 205.527 Q583.175 208.698 584.032 209.601 Q584.911 210.504 587.573 210.504 L591.948 210.504 L591.948 214.069 L587.573 214.069 Q582.643 214.069 580.768 212.24 Q578.893 210.388 578.893 205.527 L578.893 191.453 L575.768 191.453 L575.768 188.143 L578.893 188.143 L578.893 180.782 L583.175 180.782 Z" fill="#000000" fill-rule="nonzero" fill-opacity="1" /><path clip-path="url(#clip980)" d="M612.573 192.124 Q611.856 191.708 610.999 191.522 Q610.166 191.314 609.147 191.314 Q605.536 191.314 603.592 193.675 Q601.67 196.013 601.67 200.411 L601.67 214.069 L597.388 214.069 L597.388 188.143 L601.67 188.143 L601.67 192.171 Q603.013 189.809 605.166 188.675 Q607.319 187.518 610.397 187.518 Q610.837 187.518 611.369 187.587 Q611.902 187.634 612.55 187.749 L612.573 192.124 Z" fill="#000000" fill-rule="nonzero" fill-opacity="1" /><path clip-path="url(#clip980)" d="M617.041 188.143 L621.3 188.143 L621.3 214.069 L617.041 214.069 L617.041 188.143 M617.041 178.05 L621.3 178.05 L621.3 183.444 L617.041 183.444 L617.041 178.05 Z" fill="#000000" fill-rule="nonzero" fill-opacity="1" /><path clip-path="url(#clip980)" d="M648.823 201.129 Q648.823 196.43 646.879 193.768 Q644.957 191.083 641.578 191.083 Q638.198 191.083 636.254 193.768 Q634.332 196.43 634.332 201.129 Q634.332 205.828 636.254 208.513 Q638.198 211.175 641.578 211.175 Q644.957 211.175 646.879 208.513 Q648.823 205.828 648.823 201.129 M634.332 192.078 Q635.675 189.763 637.712 188.652 Q639.772 187.518 642.619 187.518 Q647.341 187.518 650.281 191.268 Q653.244 195.018 653.244 201.129 Q653.244 207.24 650.281 210.99 Q647.341 214.74 642.619 214.74 Q639.772 214.74 637.712 213.629 Q635.675 212.495 634.332 210.18 L634.332 214.069 L630.05 214.069 L630.05 178.05 L634.332 178.05 L634.332 192.078 Z" fill="#000000" fill-rule="nonzero" fill-opacity="1" /><path clip-path="url(#clip980)" d="M659.865 203.837 L659.865 188.143 L664.124 188.143 L664.124 203.675 Q664.124 207.356 665.559 209.208 Q666.994 211.036 669.865 211.036 Q673.314 211.036 675.304 208.837 Q677.318 206.638 677.318 202.842 L677.318 188.143 L681.577 188.143 L681.577 214.069 L677.318 214.069 L677.318 210.087 Q675.767 212.448 673.707 213.606 Q671.67 214.74 668.962 214.74 Q664.494 214.74 662.179 211.962 Q659.865 209.184 659.865 203.837 M670.582 187.518 L670.582 187.518 Z" fill="#000000" fill-rule="nonzero" fill-opacity="1" /><path clip-path="url(#clip980)" d="M694.563 180.782 L694.563 188.143 L703.337 188.143 L703.337 191.453 L694.563 191.453 L694.563 205.527 Q694.563 208.698 695.42 209.601 Q696.3 210.504 698.962 210.504 L703.337 210.504 L703.337 214.069 L698.962 214.069 Q694.031 214.069 692.156 212.24 Q690.281 210.388 690.281 205.527 L690.281 191.453 L687.156 191.453 L687.156 188.143 L690.281 188.143 L690.281 180.782 L694.563 180.782 Z" fill="#000000" fill-rule="nonzero" fill-opacity="1" /><path clip-path="url(#clip980)" d="M708.938 188.143 L713.198 188.143 L713.198 214.069 L708.938 214.069 L708.938 188.143 M708.938 178.05 L713.198 178.05 L713.198 183.444 L708.938 183.444 L708.938 178.05 Z" fill="#000000" fill-rule="nonzero" fill-opacity="1" /><path clip-path="url(#clip980)" d="M732.156 191.129 Q728.73 191.129 726.739 193.814 Q724.748 196.476 724.748 201.129 Q724.748 205.782 726.716 208.467 Q728.707 211.129 732.156 211.129 Q735.559 211.129 737.549 208.444 Q739.54 205.758 739.54 201.129 Q739.54 196.522 737.549 193.837 Q735.559 191.129 732.156 191.129 M732.156 187.518 Q737.711 187.518 740.883 191.129 Q744.054 194.74 744.054 201.129 Q744.054 207.495 740.883 211.129 Q737.711 214.74 732.156 214.74 Q726.577 214.74 723.406 211.129 Q720.258 207.495 720.258 201.129 Q720.258 194.74 723.406 191.129 Q726.577 187.518 732.156 187.518 Z" fill="#000000" fill-rule="nonzero" fill-opacity="1" /><path clip-path="url(#clip980)" d="M772.665 198.421 L772.665 214.069 L768.406 214.069 L768.406 198.559 Q768.406 194.879 766.97 193.05 Q765.535 191.222 762.665 191.222 Q759.216 191.222 757.225 193.421 Q755.234 195.62 755.234 199.416 L755.234 214.069 L750.952 214.069 L750.952 188.143 L755.234 188.143 L755.234 192.171 Q756.762 189.833 758.822 188.675 Q760.906 187.518 763.614 187.518 Q768.082 187.518 770.373 190.296 Q772.665 193.05 772.665 198.421 Z" fill="#000000" fill-rule="nonzero" fill-opacity="1" /><path clip-path="url(#clip980)" d="M809.355 178.05 L809.355 181.592 L805.28 181.592 Q802.989 181.592 802.086 182.518 Q801.206 183.444 801.206 185.851 L801.206 188.143 L808.22 188.143 L808.22 191.453 L801.206 191.453 L801.206 214.069 L796.924 214.069 L796.924 191.453 L792.85 191.453 L792.85 188.143 L796.924 188.143 L796.924 186.337 Q796.924 182.009 798.938 180.041 Q800.952 178.05 805.327 178.05 L809.355 178.05 Z" fill="#000000" fill-rule="nonzero" fill-opacity="1" /><path clip-path="url(#clip980)" d="M812.919 188.143 L817.179 188.143 L817.179 214.069 L812.919 214.069 L812.919 188.143 M812.919 178.05 L817.179 178.05 L817.179 183.444 L812.919 183.444 L812.919 178.05 Z" fill="#000000" fill-rule="nonzero" fill-opacity="1" /><path clip-path="url(#clip980)" d="M830.303 180.782 L830.303 188.143 L839.077 188.143 L839.077 191.453 L830.303 191.453 L830.303 205.527 Q830.303 208.698 831.16 209.601 Q832.04 210.504 834.702 210.504 L839.077 210.504 L839.077 214.069 L834.702 214.069 Q829.771 214.069 827.896 212.24 Q826.021 210.388 826.021 205.527 L826.021 191.453 L822.896 191.453 L822.896 188.143 L826.021 188.143 L826.021 180.782 L830.303 180.782 Z" fill="#000000" fill-rule="nonzero" fill-opacity="1" /></svg>
