<?xml version="1.0" encoding="utf-8"?>
<svg xmlns="http://www.w3.org/2000/svg" xmlns:xlink="http://www.w3.org/1999/xlink" width="600" height="400" viewBox="0 0 2400 1600">
<defs>
  <clipPath id="clip940">
    <rect x="0" y="0" width="2400" height="1600"/>
  </clipPath>
</defs>
<path clip-path="url(#clip940)" d="M0 1600 L2400 1600 L2400 8.88178e-14 L0 8.88178e-14  Z" fill="#ffffff" fill-rule="evenodd" fill-opacity="1"/>
<defs>
  <clipPath id="clip941">
    <rect x="480" y="0" width="1681" height="1600"/>
  </clipPath>
</defs>
<path clip-path="url(#clip940)" d="M279.519 1552.76 L2352.76 1552.76 L2352.76 47.2441 L279.519 47.2441  Z" fill="#ffffff" fill-rule="evenodd" fill-opacity="1"/>
<defs>
  <clipPath id="clip942">
    <rect x="279" y="47" width="2074" height="1507"/>
  </clipPath>
</defs>
<polyline clip-path="url(#clip942)" style="stroke:#000000; stroke-linecap:round; stroke-linejoin:round; stroke-width:2; stroke-opacity:0.1; fill:none" points="279.519,1293.49 2352.76,1293.49 "/>
<polyline clip-path="url(#clip942)" style="stroke:#000000; stroke-linecap:round; stroke-linejoin:round; stroke-width:2; stroke-opacity:0.1; fill:none" points="279.519,992.582 2352.76,992.582 "/>
<polyline clip-path="url(#clip942)" style="stroke:#000000; stroke-linecap:round; stroke-linejoin:round; stroke-width:2; stroke-opacity:0.1; fill:none" points="279.519,691.672 2352.76,691.672 "/>
<polyline clip-path="url(#clip942)" style="stroke:#000000; stroke-linecap:round; stroke-linejoin:round; stroke-width:2; stroke-opacity:0.1; fill:none" points="279.519,390.763 2352.76,390.763 "/>
<polyline clip-path="url(#clip942)" style="stroke:#000000; stroke-linecap:round; stroke-linejoin:round; stroke-width:2; stroke-opacity:0.1; fill:none" points="279.519,89.8529 2352.76,89.8529 "/>
<polyline clip-path="url(#clip942)" style="stroke:#000000; stroke-linecap:round; stroke-linejoin:round; stroke-width:2; stroke-opacity:0.1; fill:none" points="279.519,1293.49 2352.76,1293.49 "/>
<polyline clip-path="url(#clip942)" style="stroke:#000000; stroke-linecap:round; stroke-linejoin:round; stroke-width:2; stroke-opacity:0.1; fill:none" points="279.519,992.582 2352.76,992.582 "/>
<polyline clip-path="url(#clip942)" style="stroke:#000000; stroke-linecap:round; stroke-linejoin:round; stroke-width:2; stroke-opacity:0.1; fill:none" points="279.519,691.672 2352.76,691.672 "/>
<polyline clip-path="url(#clip942)" style="stroke:#000000; stroke-linecap:round; stroke-linejoin:round; stroke-width:2; stroke-opacity:0.1; fill:none" points="279.519,390.763 2352.76,390.763 "/>
<polyline clip-path="url(#clip942)" style="stroke:#000000; stroke-linecap:round; stroke-linejoin:round; stroke-width:2; stroke-opacity:0.1; fill:none" points="279.519,89.8529 2352.76,89.8529 "/>
<polyline clip-path="url(#clip940)" style="stroke:#000000; stroke-linecap:round; stroke-linejoin:round; stroke-width:4; stroke-opacity:1; fill:none" points="279.519,1552.76 2352.76,1552.76 "/>
<polyline clip-path="url(#clip940)" style="stroke:#000000; stroke-linecap:round; stroke-linejoin:round; stroke-width:4; stroke-opacity:1; fill:none" points="279.519,47.2441 2352.76,47.2441 "/>
<polyline clip-path="url(#clip940)" style="stroke:#000000; stroke-linecap:round; stroke-linejoin:round; stroke-width:4; stroke-opacity:1; fill:none" points="279.519,1552.76 279.519,47.2441 "/>
<polyline clip-path="url(#clip940)" style="stroke:#000000; stroke-linecap:round; stroke-linejoin:round; stroke-width:4; stroke-opacity:1; fill:none" points="2352.76,1552.76 2352.76,47.2441 "/>
<polyline clip-path="url(#clip940)" style="stroke:#000000; stroke-linecap:round; stroke-linejoin:round; stroke-width:4; stroke-opacity:1; fill:none" points="279.519,1293.49 298.416,1293.49 "/>
<polyline clip-path="url(#clip940)" style="stroke:#000000; stroke-linecap:round; stroke-linejoin:round; stroke-width:4; stroke-opacity:1; fill:none" points="279.519,992.582 298.416,992.582 "/>
<polyline clip-path="url(#clip940)" style="stroke:#000000; stroke-linecap:round; stroke-linejoin:round; stroke-width:4; stroke-opacity:1; fill:none" points="279.519,691.672 298.416,691.672 "/>
<polyline clip-path="url(#clip940)" style="stroke:#000000; stroke-linecap:round; stroke-linejoin:round; stroke-width:4; stroke-opacity:1; fill:none" points="279.519,390.763 298.416,390.763 "/>
<polyline clip-path="url(#clip940)" style="stroke:#000000; stroke-linecap:round; stroke-linejoin:round; stroke-width:4; stroke-opacity:1; fill:none" points="279.519,89.8529 298.416,89.8529 "/>
<polyline clip-path="url(#clip940)" style="stroke:#000000; stroke-linecap:round; stroke-linejoin:round; stroke-width:4; stroke-opacity:1; fill:none" points="2352.76,1293.49 2333.86,1293.49 "/>
<polyline clip-path="url(#clip940)" style="stroke:#000000; stroke-linecap:round; stroke-linejoin:round; stroke-width:4; stroke-opacity:1; fill:none" points="2352.76,992.582 2333.86,992.582 "/>
<polyline clip-path="url(#clip940)" style="stroke:#000000; stroke-linecap:round; stroke-linejoin:round; stroke-width:4; stroke-opacity:1; fill:none" points="2352.76,691.672 2333.86,691.672 "/>
<polyline clip-path="url(#clip940)" style="stroke:#000000; stroke-linecap:round; stroke-linejoin:round; stroke-width:4; stroke-opacity:1; fill:none" points="2352.76,390.763 2333.86,390.763 "/>
<polyline clip-path="url(#clip940)" style="stroke:#000000; stroke-linecap:round; stroke-linejoin:round; stroke-width:4; stroke-opacity:1; fill:none" points="2352.76,89.8529 2333.86,89.8529 "/>
<path clip-path="url(#clip940)" d="M127.593 1291.63 Q124.445 1291.63 122.593 1293.78 Q120.765 1295.93 120.765 1299.68 Q120.765 1303.41 122.593 1305.59 Q124.445 1307.74 127.593 1307.74 Q130.742 1307.74 132.57 1305.59 Q134.422 1303.41 134.422 1299.68 Q134.422 1295.93 132.57 1293.78 Q130.742 1291.63 127.593 1291.63 M136.876 1276.98 L136.876 1281.24 Q135.117 1280.4 133.311 1279.96 Q131.529 1279.52 129.769 1279.52 Q125.14 1279.52 122.686 1282.65 Q120.255 1285.77 119.908 1292.09 Q121.274 1290.08 123.334 1289.01 Q125.394 1287.92 127.871 1287.92 Q133.08 1287.92 136.089 1291.1 Q139.121 1294.24 139.121 1299.68 Q139.121 1305.01 135.973 1308.23 Q132.825 1311.44 127.593 1311.44 Q121.598 1311.44 118.427 1306.86 Q115.256 1302.25 115.256 1293.53 Q115.256 1285.33 119.144 1280.47 Q123.033 1275.59 129.584 1275.59 Q131.343 1275.59 133.126 1275.93 Q134.931 1276.28 136.876 1276.98 Z" fill="#000000" fill-rule="nonzero" fill-opacity="1" /><path clip-path="url(#clip940)" d="M147.223 1276.21 L165.579 1276.21 L165.579 1280.15 L151.505 1280.15 L151.505 1288.62 Q152.524 1288.27 153.542 1288.11 Q154.561 1287.92 155.579 1287.92 Q161.366 1287.92 164.746 1291.1 Q168.126 1294.27 168.126 1299.68 Q168.126 1305.26 164.653 1308.36 Q161.181 1311.44 154.862 1311.44 Q152.686 1311.44 150.417 1311.07 Q148.172 1310.7 145.765 1309.96 L145.765 1305.26 Q147.848 1306.4 150.07 1306.95 Q152.292 1307.51 154.769 1307.51 Q158.774 1307.51 161.112 1305.4 Q163.45 1303.3 163.45 1299.68 Q163.45 1296.07 161.112 1293.97 Q158.774 1291.86 154.769 1291.86 Q152.894 1291.86 151.019 1292.28 Q149.167 1292.69 147.223 1293.57 L147.223 1276.21 Z" fill="#000000" fill-rule="nonzero" fill-opacity="1" /><path clip-path="url(#clip940)" d="M177.339 1304.89 L182.223 1304.89 L182.223 1310.77 L177.339 1310.77 L177.339 1304.89 Z" fill="#000000" fill-rule="nonzero" fill-opacity="1" /><path clip-path="url(#clip940)" d="M191.227 1276.21 L213.449 1276.21 L213.449 1278.2 L200.903 1310.77 L196.019 1310.77 L207.824 1280.15 L191.227 1280.15 L191.227 1276.21 Z" fill="#000000" fill-rule="nonzero" fill-opacity="1" /><path clip-path="url(#clip940)" d="M222.616 1276.21 L240.972 1276.21 L240.972 1280.15 L226.898 1280.15 L226.898 1288.62 Q227.917 1288.27 228.935 1288.11 Q229.954 1287.92 230.972 1287.92 Q236.76 1287.92 240.139 1291.1 Q243.519 1294.27 243.519 1299.68 Q243.519 1305.26 240.047 1308.36 Q236.574 1311.44 230.255 1311.44 Q228.079 1311.44 225.81 1311.07 Q223.565 1310.7 221.158 1309.96 L221.158 1305.26 Q223.241 1306.4 225.463 1306.95 Q227.685 1307.51 230.162 1307.51 Q234.167 1307.51 236.505 1305.4 Q238.843 1303.3 238.843 1299.68 Q238.843 1296.07 236.505 1293.97 Q234.167 1291.86 230.162 1291.86 Q228.287 1291.86 226.412 1292.28 Q224.56 1292.69 222.616 1293.57 L222.616 1276.21 Z" fill="#000000" fill-rule="nonzero" fill-opacity="1" /><path clip-path="url(#clip940)" d="M126.598 990.719 Q123.45 990.719 121.598 992.872 Q119.769 995.024 119.769 998.774 Q119.769 1002.5 121.598 1004.68 Q123.45 1006.83 126.598 1006.83 Q129.746 1006.83 131.575 1004.68 Q133.427 1002.5 133.427 998.774 Q133.427 995.024 131.575 992.872 Q129.746 990.719 126.598 990.719 M135.88 976.066 L135.88 980.325 Q134.121 979.492 132.316 979.052 Q130.533 978.612 128.774 978.612 Q124.144 978.612 121.691 981.737 Q119.26 984.862 118.913 991.182 Q120.279 989.168 122.339 988.103 Q124.399 987.015 126.876 987.015 Q132.084 987.015 135.093 990.186 Q138.126 993.335 138.126 998.774 Q138.126 1004.1 134.978 1007.32 Q131.83 1010.53 126.598 1010.53 Q120.603 1010.53 117.431 1005.95 Q114.26 1001.34 114.26 992.617 Q114.26 984.423 118.149 979.561 Q122.038 974.677 128.589 974.677 Q130.348 974.677 132.13 975.024 Q133.936 975.372 135.88 976.066 Z" fill="#000000" fill-rule="nonzero" fill-opacity="1" /><path clip-path="url(#clip940)" d="M156.76 990.719 Q153.612 990.719 151.76 992.872 Q149.931 995.024 149.931 998.774 Q149.931 1002.5 151.76 1004.68 Q153.612 1006.83 156.76 1006.83 Q159.908 1006.83 161.737 1004.68 Q163.589 1002.5 163.589 998.774 Q163.589 995.024 161.737 992.872 Q159.908 990.719 156.76 990.719 M166.042 976.066 L166.042 980.325 Q164.283 979.492 162.477 979.052 Q160.695 978.612 158.936 978.612 Q154.306 978.612 151.853 981.737 Q149.422 984.862 149.075 991.182 Q150.441 989.168 152.501 988.103 Q154.561 987.015 157.038 987.015 Q162.246 987.015 165.255 990.186 Q168.288 993.335 168.288 998.774 Q168.288 1004.1 165.14 1007.32 Q161.991 1010.53 156.76 1010.53 Q150.765 1010.53 147.593 1005.95 Q144.422 1001.34 144.422 992.617 Q144.422 984.423 148.311 979.561 Q152.2 974.677 158.751 974.677 Q160.51 974.677 162.292 975.024 Q164.098 975.372 166.042 976.066 Z" fill="#000000" fill-rule="nonzero" fill-opacity="1" /><path clip-path="url(#clip940)" d="M176.343 1003.98 L181.227 1003.98 L181.227 1009.86 L176.343 1009.86 L176.343 1003.98 Z" fill="#000000" fill-rule="nonzero" fill-opacity="1" /><path clip-path="url(#clip940)" d="M201.412 978.381 Q197.801 978.381 195.973 981.946 Q194.167 985.487 194.167 992.617 Q194.167 999.723 195.973 1003.29 Q197.801 1006.83 201.412 1006.83 Q205.047 1006.83 206.852 1003.29 Q208.681 999.723 208.681 992.617 Q208.681 985.487 206.852 981.946 Q205.047 978.381 201.412 978.381 M201.412 974.677 Q207.223 974.677 210.278 979.284 Q213.357 983.867 213.357 992.617 Q213.357 1001.34 210.278 1005.95 Q207.223 1010.53 201.412 1010.53 Q195.602 1010.53 192.524 1005.95 Q189.468 1001.34 189.468 992.617 Q189.468 983.867 192.524 979.284 Q195.602 974.677 201.412 974.677 Z" fill="#000000" fill-rule="nonzero" fill-opacity="1" /><path clip-path="url(#clip940)" d="M231.574 978.381 Q227.963 978.381 226.135 981.946 Q224.329 985.487 224.329 992.617 Q224.329 999.723 226.135 1003.29 Q227.963 1006.83 231.574 1006.83 Q235.209 1006.83 237.014 1003.29 Q238.843 999.723 238.843 992.617 Q238.843 985.487 237.014 981.946 Q235.209 978.381 231.574 978.381 M231.574 974.677 Q237.384 974.677 240.44 979.284 Q243.519 983.867 243.519 992.617 Q243.519 1001.34 240.44 1005.95 Q237.384 1010.53 231.574 1010.53 Q225.764 1010.53 222.686 1005.95 Q219.63 1001.34 219.63 992.617 Q219.63 983.867 222.686 979.284 Q225.764 974.677 231.574 974.677 Z" fill="#000000" fill-rule="nonzero" fill-opacity="1" /><path clip-path="url(#clip940)" d="M127.593 689.809 Q124.445 689.809 122.593 691.962 Q120.765 694.115 120.765 697.865 Q120.765 701.591 122.593 703.767 Q124.445 705.92 127.593 705.92 Q130.742 705.92 132.57 703.767 Q134.422 701.591 134.422 697.865 Q134.422 694.115 132.57 691.962 Q130.742 689.809 127.593 689.809 M136.876 675.156 L136.876 679.416 Q135.117 678.582 133.311 678.142 Q131.529 677.703 129.769 677.703 Q125.14 677.703 122.686 680.828 Q120.255 683.953 119.908 690.272 Q121.274 688.258 123.334 687.193 Q125.394 686.105 127.871 686.105 Q133.08 686.105 136.089 689.277 Q139.121 692.425 139.121 697.865 Q139.121 703.189 135.973 706.406 Q132.825 709.624 127.593 709.624 Q121.598 709.624 118.427 705.04 Q115.256 700.434 115.256 691.707 Q115.256 683.513 119.144 678.652 Q123.033 673.767 129.584 673.767 Q131.343 673.767 133.126 674.115 Q134.931 674.462 136.876 675.156 Z" fill="#000000" fill-rule="nonzero" fill-opacity="1" /><path clip-path="url(#clip940)" d="M157.755 689.809 Q154.607 689.809 152.755 691.962 Q150.927 694.115 150.927 697.865 Q150.927 701.591 152.755 703.767 Q154.607 705.92 157.755 705.92 Q160.903 705.92 162.732 703.767 Q164.584 701.591 164.584 697.865 Q164.584 694.115 162.732 691.962 Q160.903 689.809 157.755 689.809 M167.038 675.156 L167.038 679.416 Q165.278 678.582 163.473 678.142 Q161.69 677.703 159.931 677.703 Q155.302 677.703 152.848 680.828 Q150.417 683.953 150.07 690.272 Q151.436 688.258 153.496 687.193 Q155.556 686.105 158.033 686.105 Q163.241 686.105 166.251 689.277 Q169.283 692.425 169.283 697.865 Q169.283 703.189 166.135 706.406 Q162.987 709.624 157.755 709.624 Q151.76 709.624 148.589 705.04 Q145.417 700.434 145.417 691.707 Q145.417 683.513 149.306 678.652 Q153.195 673.767 159.746 673.767 Q161.505 673.767 163.288 674.115 Q165.093 674.462 167.038 675.156 Z" fill="#000000" fill-rule="nonzero" fill-opacity="1" /><path clip-path="url(#clip940)" d="M177.339 703.073 L182.223 703.073 L182.223 708.952 L177.339 708.952 L177.339 703.073 Z" fill="#000000" fill-rule="nonzero" fill-opacity="1" /><path clip-path="url(#clip940)" d="M196.436 705.017 L212.755 705.017 L212.755 708.952 L190.811 708.952 L190.811 705.017 Q193.473 702.263 198.056 697.633 Q202.662 692.98 203.843 691.638 Q206.088 689.115 206.968 687.379 Q207.871 685.619 207.871 683.929 Q207.871 681.175 205.926 679.439 Q204.005 677.703 200.903 677.703 Q198.704 677.703 196.25 678.467 Q193.82 679.23 191.042 680.781 L191.042 676.059 Q193.866 674.925 196.32 674.346 Q198.774 673.767 200.811 673.767 Q206.181 673.767 209.375 676.453 Q212.57 679.138 212.57 683.629 Q212.57 685.758 211.76 687.679 Q210.973 689.578 208.866 692.17 Q208.287 692.841 205.186 696.059 Q202.084 699.253 196.436 705.017 Z" fill="#000000" fill-rule="nonzero" fill-opacity="1" /><path clip-path="url(#clip940)" d="M222.616 674.392 L240.972 674.392 L240.972 678.328 L226.898 678.328 L226.898 686.8 Q227.917 686.453 228.935 686.291 Q229.954 686.105 230.972 686.105 Q236.76 686.105 240.139 689.277 Q243.519 692.448 243.519 697.865 Q243.519 703.443 240.047 706.545 Q236.574 709.624 230.255 709.624 Q228.079 709.624 225.81 709.253 Q223.565 708.883 221.158 708.142 L221.158 703.443 Q223.241 704.578 225.463 705.133 Q227.685 705.689 230.162 705.689 Q234.167 705.689 236.505 703.582 Q238.843 701.476 238.843 697.865 Q238.843 694.253 236.505 692.147 Q234.167 690.041 230.162 690.041 Q228.287 690.041 226.412 690.457 Q224.56 690.874 222.616 691.753 L222.616 674.392 Z" fill="#000000" fill-rule="nonzero" fill-opacity="1" /><path clip-path="url(#clip940)" d="M126.598 388.899 Q123.45 388.899 121.598 391.052 Q119.769 393.205 119.769 396.955 Q119.769 400.682 121.598 402.858 Q123.45 405.01 126.598 405.01 Q129.746 405.01 131.575 402.858 Q133.427 400.682 133.427 396.955 Q133.427 393.205 131.575 391.052 Q129.746 388.899 126.598 388.899 M135.88 374.247 L135.88 378.506 Q134.121 377.672 132.316 377.233 Q130.533 376.793 128.774 376.793 Q124.144 376.793 121.691 379.918 Q119.26 383.043 118.913 389.362 Q120.279 387.348 122.339 386.284 Q124.399 385.196 126.876 385.196 Q132.084 385.196 135.093 388.367 Q138.126 391.515 138.126 396.955 Q138.126 402.279 134.978 405.496 Q131.83 408.714 126.598 408.714 Q120.603 408.714 117.431 404.131 Q114.26 399.524 114.26 390.797 Q114.26 382.603 118.149 377.742 Q122.038 372.858 128.589 372.858 Q130.348 372.858 132.13 373.205 Q133.936 373.552 135.88 374.247 Z" fill="#000000" fill-rule="nonzero" fill-opacity="1" /><path clip-path="url(#clip940)" d="M156.76 388.899 Q153.612 388.899 151.76 391.052 Q149.931 393.205 149.931 396.955 Q149.931 400.682 151.76 402.858 Q153.612 405.01 156.76 405.01 Q159.908 405.01 161.737 402.858 Q163.589 400.682 163.589 396.955 Q163.589 393.205 161.737 391.052 Q159.908 388.899 156.76 388.899 M166.042 374.247 L166.042 378.506 Q164.283 377.672 162.477 377.233 Q160.695 376.793 158.936 376.793 Q154.306 376.793 151.853 379.918 Q149.422 383.043 149.075 389.362 Q150.441 387.348 152.501 386.284 Q154.561 385.196 157.038 385.196 Q162.246 385.196 165.255 388.367 Q168.288 391.515 168.288 396.955 Q168.288 402.279 165.14 405.496 Q161.991 408.714 156.76 408.714 Q150.765 408.714 147.593 404.131 Q144.422 399.524 144.422 390.797 Q144.422 382.603 148.311 377.742 Q152.2 372.858 158.751 372.858 Q160.51 372.858 162.292 373.205 Q164.098 373.552 166.042 374.247 Z" fill="#000000" fill-rule="nonzero" fill-opacity="1" /><path clip-path="url(#clip940)" d="M176.343 402.163 L181.227 402.163 L181.227 408.043 L176.343 408.043 L176.343 402.163 Z" fill="#000000" fill-rule="nonzero" fill-opacity="1" /><path clip-path="url(#clip940)" d="M191.459 373.483 L209.815 373.483 L209.815 377.418 L195.741 377.418 L195.741 385.89 Q196.76 385.543 197.778 385.381 Q198.797 385.196 199.815 385.196 Q205.602 385.196 208.982 388.367 Q212.361 391.538 212.361 396.955 Q212.361 402.533 208.889 405.635 Q205.417 408.714 199.098 408.714 Q196.922 408.714 194.653 408.344 Q192.408 407.973 190 407.233 L190 402.533 Q192.084 403.668 194.306 404.223 Q196.528 404.779 199.005 404.779 Q203.01 404.779 205.348 402.672 Q207.686 400.566 207.686 396.955 Q207.686 393.344 205.348 391.237 Q203.01 389.131 199.005 389.131 Q197.13 389.131 195.255 389.547 Q193.403 389.964 191.459 390.844 L191.459 373.483 Z" fill="#000000" fill-rule="nonzero" fill-opacity="1" /><path clip-path="url(#clip940)" d="M231.574 376.561 Q227.963 376.561 226.135 380.126 Q224.329 383.668 224.329 390.797 Q224.329 397.904 226.135 401.469 Q227.963 405.01 231.574 405.01 Q235.209 405.01 237.014 401.469 Q238.843 397.904 238.843 390.797 Q238.843 383.668 237.014 380.126 Q235.209 376.561 231.574 376.561 M231.574 372.858 Q237.384 372.858 240.44 377.464 Q243.519 382.047 243.519 390.797 Q243.519 399.524 240.44 404.131 Q237.384 408.714 231.574 408.714 Q225.764 408.714 222.686 404.131 Q219.63 399.524 219.63 390.797 Q219.63 382.047 222.686 377.464 Q225.764 372.858 231.574 372.858 Z" fill="#000000" fill-rule="nonzero" fill-opacity="1" /><path clip-path="url(#clip940)" d="M127.593 87.9895 Q124.445 87.9895 122.593 90.1423 Q120.765 92.295 120.765 96.045 Q120.765 99.7718 122.593 101.948 Q124.445 104.101 127.593 104.101 Q130.742 104.101 132.57 101.948 Q134.422 99.7718 134.422 96.045 Q134.422 92.295 132.57 90.1423 Q130.742 87.9895 127.593 87.9895 M136.876 73.3368 L136.876 77.596 Q135.117 76.7627 133.311 76.3229 Q131.529 75.8831 129.769 75.8831 Q125.14 75.8831 122.686 79.0081 Q120.255 82.1331 119.908 88.4525 Q121.274 86.4386 123.334 85.3738 Q125.394 84.2858 127.871 84.2858 Q133.08 84.2858 136.089 87.4571 Q139.121 90.6052 139.121 96.045 Q139.121 101.369 135.973 104.587 Q132.825 107.804 127.593 107.804 Q121.598 107.804 118.427 103.221 Q115.256 98.6144 115.256 89.8876 Q115.256 81.6932 119.144 76.8322 Q123.033 71.9479 129.584 71.9479 Q131.343 71.9479 133.126 72.2951 Q134.931 72.6424 136.876 73.3368 Z" fill="#000000" fill-rule="nonzero" fill-opacity="1" /><path clip-path="url(#clip940)" d="M157.755 87.9895 Q154.607 87.9895 152.755 90.1423 Q150.927 92.295 150.927 96.045 Q150.927 99.7718 152.755 101.948 Q154.607 104.101 157.755 104.101 Q160.903 104.101 162.732 101.948 Q164.584 99.7718 164.584 96.045 Q164.584 92.295 162.732 90.1423 Q160.903 87.9895 157.755 87.9895 M167.038 73.3368 L167.038 77.596 Q165.278 76.7627 163.473 76.3229 Q161.69 75.8831 159.931 75.8831 Q155.302 75.8831 152.848 79.0081 Q150.417 82.1331 150.07 88.4525 Q151.436 86.4386 153.496 85.3738 Q155.556 84.2858 158.033 84.2858 Q163.241 84.2858 166.251 87.4571 Q169.283 90.6052 169.283 96.045 Q169.283 101.369 166.135 104.587 Q162.987 107.804 157.755 107.804 Q151.76 107.804 148.589 103.221 Q145.417 98.6144 145.417 89.8876 Q145.417 81.6932 149.306 76.8322 Q153.195 71.9479 159.746 71.9479 Q161.505 71.9479 163.288 72.2951 Q165.093 72.6424 167.038 73.3368 Z" fill="#000000" fill-rule="nonzero" fill-opacity="1" /><path clip-path="url(#clip940)" d="M177.339 101.253 L182.223 101.253 L182.223 107.133 L177.339 107.133 L177.339 101.253 Z" fill="#000000" fill-rule="nonzero" fill-opacity="1" /><path clip-path="url(#clip940)" d="M191.227 72.5729 L213.449 72.5729 L213.449 74.5636 L200.903 107.133 L196.019 107.133 L207.824 76.5081 L191.227 76.5081 L191.227 72.5729 Z" fill="#000000" fill-rule="nonzero" fill-opacity="1" /><path clip-path="url(#clip940)" d="M222.616 72.5729 L240.972 72.5729 L240.972 76.5081 L226.898 76.5081 L226.898 84.9803 Q227.917 84.633 228.935 84.471 Q229.954 84.2858 230.972 84.2858 Q236.76 84.2858 240.139 87.4571 Q243.519 90.6284 243.519 96.045 Q243.519 101.624 240.047 104.726 Q236.574 107.804 230.255 107.804 Q228.079 107.804 225.81 107.434 Q223.565 107.063 221.158 106.323 L221.158 101.624 Q223.241 102.758 225.463 103.313 Q227.685 103.869 230.162 103.869 Q234.167 103.869 236.505 101.763 Q238.843 99.6561 238.843 96.045 Q238.843 92.4339 236.505 90.3275 Q234.167 88.221 230.162 88.221 Q228.287 88.221 226.412 88.6376 Q224.56 89.0543 222.616 89.9339 L222.616 72.5729 Z" fill="#000000" fill-rule="nonzero" fill-opacity="1" /><path clip-path="url(#clip940)" d="M22.818 922.094 L46.4666 930.815 L46.4666 913.341 L22.818 922.094 M16.4842 925.723 L16.4842 918.434 L64.0042 900.324 L64.0042 907.008 L51.8138 911.336 L51.8138 932.757 L64.0042 937.085 L64.0042 943.865 L16.4842 925.723 Z" fill="#000000" fill-rule="nonzero" fill-opacity="1" /><path clip-path="url(#clip940)" d="M45.7664 870.182 Q39.4007 870.182 35.8996 872.824 Q32.3984 875.434 32.3984 880.176 Q32.3984 884.887 35.8996 887.528 Q39.4007 890.138 45.7664 890.138 Q52.1003 890.138 55.6014 887.528 Q59.1026 884.887 59.1026 880.176 Q59.1026 875.434 55.6014 872.824 Q52.1003 870.182 45.7664 870.182 M59.58 864.325 Q68.683 864.325 73.1071 868.368 Q77.5631 872.41 77.5631 880.749 Q77.5631 883.836 77.0857 886.574 Q76.6401 889.311 75.6852 891.889 L69.9879 891.889 Q71.3884 889.311 72.0568 886.796 Q72.7252 884.282 72.7252 881.672 Q72.7252 875.911 69.7015 873.046 Q66.7096 870.182 60.6303 870.182 L57.7339 870.182 Q60.885 871.996 62.4446 874.829 Q64.0042 877.662 64.0042 881.608 Q64.0042 888.165 59.0071 892.175 Q54.01 896.186 45.7664 896.186 Q37.491 896.186 32.4939 892.175 Q27.4968 888.165 27.4968 881.608 Q27.4968 877.662 29.0564 874.829 Q30.616 871.996 33.7671 870.182 L28.3562 870.182 L28.3562 864.325 L59.58 864.325 Z" fill="#000000" fill-rule="nonzero" fill-opacity="1" /><path clip-path="url(#clip940)" d="M44.7161 821.771 L47.5806 821.771 L47.5806 848.698 Q53.6281 848.316 56.8109 845.069 Q59.9619 841.791 59.9619 835.966 Q59.9619 832.592 59.1344 829.441 Q58.3069 826.259 56.6518 823.139 L62.1899 823.139 Q63.5267 826.29 64.227 829.601 Q64.9272 832.911 64.9272 836.316 Q64.9272 844.846 59.9619 849.843 Q54.9967 854.809 46.5303 854.809 Q37.7774 854.809 32.6531 850.098 Q27.4968 845.356 27.4968 837.335 Q27.4968 830.142 32.1438 825.972 Q36.7589 821.771 44.7161 821.771 M42.9973 827.627 Q38.1912 827.691 35.3266 830.333 Q32.4621 832.943 32.4621 837.271 Q32.4621 842.173 35.2312 845.133 Q38.0002 848.061 43.0292 848.507 L42.9973 827.627 Z" fill="#000000" fill-rule="nonzero" fill-opacity="1" /><path clip-path="url(#clip940)" d="M14.5426 777.37 Q21.8632 781.635 29.0246 783.704 Q36.186 785.773 43.5384 785.773 Q50.8908 785.773 58.1159 783.704 Q65.3091 781.603 72.5979 777.37 L72.5979 782.462 Q65.1182 787.237 57.8931 789.624 Q50.668 791.979 43.5384 791.979 Q36.4406 791.979 29.2474 789.624 Q22.0542 787.269 14.5426 782.462 L14.5426 777.37 Z" fill="#000000" fill-rule="nonzero" fill-opacity="1" /><path clip-path="url(#clip940)" d="M16.4842 765.752 L16.4842 756.172 L48.8219 744.045 L16.4842 731.855 L16.4842 722.275 L64.0042 722.275 L64.0042 728.545 L22.277 728.545 L54.8694 740.799 L54.8694 747.26 L22.277 759.514 L64.0042 759.514 L64.0042 765.752 L16.4842 765.752 Z" fill="#000000" fill-rule="nonzero" fill-opacity="1" /><path clip-path="url(#clip940)" d="M46.0847 693.565 Q46.0847 700.663 47.7079 703.4 Q49.3312 706.138 53.2461 706.138 Q56.3653 706.138 58.2114 704.101 Q60.0256 702.032 60.0256 698.499 Q60.0256 693.629 56.5881 690.701 Q53.1188 687.741 47.3897 687.741 L46.0847 687.741 L46.0847 693.565 M43.6657 681.884 L64.0042 681.884 L64.0042 687.741 L58.5933 687.741 Q61.8398 689.746 63.3994 692.738 Q64.9272 695.73 64.9272 700.058 Q64.9272 705.533 61.8716 708.779 Q58.7843 711.994 53.6281 711.994 Q47.6125 711.994 44.5569 707.984 Q41.5014 703.941 41.5014 695.953 L41.5014 687.741 L40.9285 687.741 Q36.8862 687.741 34.6901 690.414 Q32.4621 693.056 32.4621 697.862 Q32.4621 700.918 33.1941 703.814 Q33.9262 706.711 35.3903 709.384 L29.9795 709.384 Q28.7381 706.169 28.1334 703.146 Q27.4968 700.122 27.4968 697.257 Q27.4968 689.523 31.5072 685.704 Q35.5176 681.884 43.6657 681.884 Z" fill="#000000" fill-rule="nonzero" fill-opacity="1" /><path clip-path="url(#clip940)" d="M14.5426 670.744 L14.5426 665.652 Q22.0542 660.877 29.2474 658.522 Q36.4406 656.135 43.5384 656.135 Q50.668 656.135 57.8931 658.522 Q65.1182 660.877 72.5979 665.652 L72.5979 670.744 Q65.3091 666.511 58.1159 664.442 Q50.8908 662.342 43.5384 662.342 Q36.186 662.342 29.0246 664.442 Q21.8632 666.511 14.5426 670.744 Z" fill="#000000" fill-rule="nonzero" fill-opacity="1" /><polyline clip-path="url(#clip942)" style="stroke:#009af9; stroke-linecap:round; stroke-linejoin:round; stroke-width:4; stroke-opacity:1; fill:none" points="338.195,1510.15 338.195,595.381 "/>
<polyline clip-path="url(#clip942)" style="stroke:#009af9; stroke-linecap:round; stroke-linejoin:round; stroke-width:4; stroke-opacity:1; fill:none" points="617.607,1329.6 617.607,414.835 "/>
<polyline clip-path="url(#clip942)" style="stroke:#009af9; stroke-linecap:round; stroke-linejoin:round; stroke-width:4; stroke-opacity:1; fill:none" points="897.019,956.473 897.019,643.527 "/>
<polyline clip-path="url(#clip942)" style="stroke:#009af9; stroke-linecap:round; stroke-linejoin:round; stroke-width:4; stroke-opacity:1; fill:none" points="1176.43,1462 1176.43,89.8529 "/>
<polyline clip-path="url(#clip942)" style="stroke:#009af9; stroke-linecap:round; stroke-linejoin:round; stroke-width:4; stroke-opacity:1; fill:none" points="1455.84,1028.69 1455.84,523.163 "/>
<polyline clip-path="url(#clip942)" style="stroke:#009af9; stroke-linecap:round; stroke-linejoin:round; stroke-width:4; stroke-opacity:1; fill:none" points="1735.26,1149.06 1735.26,354.654 "/>
<polyline clip-path="url(#clip942)" style="stroke:#009af9; stroke-linecap:round; stroke-linejoin:round; stroke-width:4; stroke-opacity:1; fill:none" points="2014.67,1112.95 2014.67,342.617 "/>
<polyline clip-path="url(#clip942)" style="stroke:#009af9; stroke-linecap:round; stroke-linejoin:round; stroke-width:4; stroke-opacity:1; fill:none" points="2294.08,920.364 2294.08,438.908 "/>
<line clip-path="url(#clip942)" x1="354.195" y1="1510.15" x2="322.195" y2="1510.15" style="stroke:#009af9; stroke-width:4; stroke-opacity:1"/>
<line clip-path="url(#clip942)" x1="354.195" y1="595.381" x2="322.195" y2="595.381" style="stroke:#009af9; stroke-width:4; stroke-opacity:1"/>
<line clip-path="url(#clip942)" x1="633.607" y1="1329.6" x2="601.607" y2="1329.6" style="stroke:#009af9; stroke-width:4; stroke-opacity:1"/>
<line clip-path="url(#clip942)" x1="633.607" y1="414.835" x2="601.607" y2="414.835" style="stroke:#009af9; stroke-width:4; stroke-opacity:1"/>
<line clip-path="url(#clip942)" x1="913.019" y1="956.473" x2="881.019" y2="956.473" style="stroke:#009af9; stroke-width:4; stroke-opacity:1"/>
<line clip-path="url(#clip942)" x1="913.019" y1="643.527" x2="881.019" y2="643.527" style="stroke:#009af9; stroke-width:4; stroke-opacity:1"/>
<line clip-path="url(#clip942)" x1="1192.43" y1="1462" x2="1160.43" y2="1462" style="stroke:#009af9; stroke-width:4; stroke-opacity:1"/>
<line clip-path="url(#clip942)" x1="1192.43" y1="89.8529" x2="1160.43" y2="89.8529" style="stroke:#009af9; stroke-width:4; stroke-opacity:1"/>
<line clip-path="url(#clip942)" x1="1471.84" y1="1028.69" x2="1439.84" y2="1028.69" style="stroke:#009af9; stroke-width:4; stroke-opacity:1"/>
<line clip-path="url(#clip942)" x1="1471.84" y1="523.163" x2="1439.84" y2="523.163" style="stroke:#009af9; stroke-width:4; stroke-opacity:1"/>
<line clip-path="url(#clip942)" x1="1751.26" y1="1149.06" x2="1719.26" y2="1149.06" style="stroke:#009af9; stroke-width:4; stroke-opacity:1"/>
<line clip-path="url(#clip942)" x1="1751.26" y1="354.654" x2="1719.26" y2="354.654" style="stroke:#009af9; stroke-width:4; stroke-opacity:1"/>
<line clip-path="url(#clip942)" x1="2030.67" y1="1112.95" x2="1998.67" y2="1112.95" style="stroke:#009af9; stroke-width:4; stroke-opacity:1"/>
<line clip-path="url(#clip942)" x1="2030.67" y1="342.617" x2="1998.67" y2="342.617" style="stroke:#009af9; stroke-width:4; stroke-opacity:1"/>
<line clip-path="url(#clip942)" x1="2310.08" y1="920.364" x2="2278.08" y2="920.364" style="stroke:#009af9; stroke-width:4; stroke-opacity:1"/>
<line clip-path="url(#clip942)" x1="2310.08" y1="438.908" x2="2278.08" y2="438.908" style="stroke:#009af9; stroke-width:4; stroke-opacity:1"/>
<circle clip-path="url(#clip942)" cx="338.195" cy="1052.76" r="14.4" fill="#009af9" fill-rule="evenodd" fill-opacity="1" stroke="none"/>
<circle clip-path="url(#clip942)" cx="617.607" cy="872.218" r="14.4" fill="#009af9" fill-rule="evenodd" fill-opacity="1" stroke="none"/>
<circle clip-path="url(#clip942)" cx="897.019" cy="800" r="14.4" fill="#009af9" fill-rule="evenodd" fill-opacity="1" stroke="none"/>
<circle clip-path="url(#clip942)" cx="1176.43" cy="775.927" r="14.4" fill="#009af9" fill-rule="evenodd" fill-opacity="1" stroke="none"/>
<circle clip-path="url(#clip942)" cx="1455.84" cy="775.927" r="14.4" fill="#009af9" fill-rule="evenodd" fill-opacity="1" stroke="none"/>
<circle clip-path="url(#clip942)" cx="1735.26" cy="751.854" r="14.4" fill="#009af9" fill-rule="evenodd" fill-opacity="1" stroke="none"/>
<circle clip-path="url(#clip942)" cx="2014.67" cy="727.782" r="14.4" fill="#009af9" fill-rule="evenodd" fill-opacity="1" stroke="none"/>
<circle clip-path="url(#clip942)" cx="2294.08" cy="679.636" r="14.4" fill="#009af9" fill-rule="evenodd" fill-opacity="1" stroke="none"/>
<path clip-path="url(#clip942)" d="M338.195 1005.76 L617.607 1005.76 L897.019 1005.76 L1176.43 1005.76 L1455.84 1005.76 L1735.26 1005.76 L2014.67 1005.76 L2294.08 1005.76 L2294.08 731.109 L2014.67 731.109 L1735.26 731.109 L1455.84 731.109 L1176.43 731.109 L897.019 731.109 L617.607 731.109 L338.195 731.109  Z" fill="#e26f46" fill-rule="evenodd" fill-opacity="0.6"/>
<polyline clip-path="url(#clip942)" style="stroke:#e26f46; stroke-linecap:round; stroke-linejoin:round; stroke-width:4; stroke-opacity:0; fill:none" points="338.195,1005.76 617.607,1005.76 897.019,1005.76 1176.43,1005.76 1455.84,1005.76 1735.26,1005.76 2014.67,1005.76 2294.08,1005.76 "/>
<polyline clip-path="url(#clip942)" style="stroke:#000000; stroke-linecap:round; stroke-linejoin:round; stroke-width:4; stroke-opacity:1; fill:none" stroke-dasharray="2, 4" points="338.195,834.29 617.607,834.29 897.019,834.29 1176.43,834.29 1455.84,834.29 1735.26,834.29 2014.67,834.29 2294.08,834.29 "/>
<path clip-path="url(#clip940)" d="M348.627 252.948 L1351.83 252.948 L1351.83 97.4278 L348.627 97.4278  Z" fill="#ffffff" fill-rule="evenodd" fill-opacity="1"/>
<polyline clip-path="url(#clip940)" style="stroke:#ffffff; stroke-linecap:round; stroke-linejoin:round; stroke-width:4; stroke-opacity:1; fill:none" points="348.627,252.948 1351.83,252.948 1351.83,97.4278 348.627,97.4278 348.627,252.948 "/>
<circle clip-path="url(#clip940)" cx="440.771" cy="149.268" r="20.48" fill="#009af9" fill-rule="evenodd" fill-opacity="1" stroke="none"/>
<path clip-path="url(#clip940)" d="M537.59 135.83 L537.59 162.705 L543.238 162.705 Q550.391 162.705 553.701 159.465 Q557.035 156.224 557.035 149.233 Q557.035 142.289 553.701 139.071 Q550.391 135.83 543.238 135.83 L537.59 135.83 M532.914 131.988 L542.521 131.988 Q552.567 131.988 557.266 136.178 Q561.965 140.344 561.965 149.233 Q561.965 158.168 557.243 162.358 Q552.521 166.548 542.521 166.548 L532.914 166.548 L532.914 131.988 Z" fill="#000000" fill-rule="nonzero" fill-opacity="1" /><path clip-path="url(#clip940)" d="M581.016 153.515 Q575.854 153.515 573.863 154.696 Q571.873 155.877 571.873 158.724 Q571.873 160.992 573.354 162.335 Q574.859 163.654 577.428 163.654 Q580.97 163.654 583.099 161.154 Q585.252 158.631 585.252 154.465 L585.252 153.515 L581.016 153.515 M589.511 151.756 L589.511 166.548 L585.252 166.548 L585.252 162.613 Q583.794 164.974 581.618 166.108 Q579.442 167.219 576.294 167.219 Q572.312 167.219 569.951 164.997 Q567.613 162.752 567.613 159.002 Q567.613 154.627 570.53 152.404 Q573.47 150.182 579.28 150.182 L585.252 150.182 L585.252 149.766 Q585.252 146.826 583.308 145.228 Q581.386 143.608 577.891 143.608 Q575.669 143.608 573.562 144.141 Q571.456 144.673 569.511 145.738 L569.511 141.803 Q571.849 140.9 574.048 140.46 Q576.247 139.997 578.331 139.997 Q583.956 139.997 586.734 142.914 Q589.511 145.83 589.511 151.756 Z" fill="#000000" fill-rule="nonzero" fill-opacity="1" /><path clip-path="url(#clip940)" d="M602.497 133.261 L602.497 140.622 L611.27 140.622 L611.27 143.932 L602.497 143.932 L602.497 158.006 Q602.497 161.177 603.354 162.08 Q604.233 162.983 606.895 162.983 L611.27 162.983 L611.27 166.548 L606.895 166.548 Q601.965 166.548 600.09 164.719 Q598.215 162.867 598.215 158.006 L598.215 143.932 L595.09 143.932 L595.09 140.622 L598.215 140.622 L598.215 133.261 L602.497 133.261 Z" fill="#000000" fill-rule="nonzero" fill-opacity="1" /><path clip-path="url(#clip940)" d="M628.655 153.515 Q623.493 153.515 621.502 154.696 Q619.511 155.877 619.511 158.724 Q619.511 160.992 620.993 162.335 Q622.497 163.654 625.067 163.654 Q628.608 163.654 630.738 161.154 Q632.891 158.631 632.891 154.465 L632.891 153.515 L628.655 153.515 M637.15 151.756 L637.15 166.548 L632.891 166.548 L632.891 162.613 Q631.432 164.974 629.256 166.108 Q627.081 167.219 623.932 167.219 Q619.951 167.219 617.59 164.997 Q615.252 162.752 615.252 159.002 Q615.252 154.627 618.169 152.404 Q621.108 150.182 626.919 150.182 L632.891 150.182 L632.891 149.766 Q632.891 146.826 630.946 145.228 Q629.025 143.608 625.53 143.608 Q623.307 143.608 621.201 144.141 Q619.094 144.673 617.15 145.738 L617.15 141.803 Q619.488 140.9 621.687 140.46 Q623.886 139.997 625.969 139.997 Q631.594 139.997 634.372 142.914 Q637.15 145.83 637.15 151.756 Z" fill="#000000" fill-rule="nonzero" fill-opacity="1" /><path clip-path="url(#clip940)" d="M671.224 130.576 Q668.122 135.9 666.617 141.108 Q665.113 146.316 665.113 151.664 Q665.113 157.011 666.617 162.265 Q668.145 167.497 671.224 172.798 L667.52 172.798 Q664.048 167.358 662.312 162.103 Q660.599 156.849 660.599 151.664 Q660.599 146.502 662.312 141.27 Q664.025 136.039 667.52 130.576 L671.224 130.576 Z" fill="#000000" fill-rule="nonzero" fill-opacity="1" /><path clip-path="url(#clip940)" d="M689.534 143.608 Q686.108 143.608 684.117 146.293 Q682.127 148.955 682.127 153.608 Q682.127 158.261 684.094 160.946 Q686.085 163.608 689.534 163.608 Q692.937 163.608 694.927 160.923 Q696.918 158.238 696.918 153.608 Q696.918 149.002 694.927 146.316 Q692.937 143.608 689.534 143.608 M689.534 139.997 Q695.089 139.997 698.261 143.608 Q701.432 147.219 701.432 153.608 Q701.432 159.974 698.261 163.608 Q695.089 167.219 689.534 167.219 Q683.955 167.219 680.784 163.608 Q677.636 159.974 677.636 153.608 Q677.636 147.219 680.784 143.608 Q683.955 139.997 689.534 139.997 Z" fill="#000000" fill-rule="nonzero" fill-opacity="1" /><path clip-path="url(#clip940)" d="M727.103 153.608 Q727.103 148.909 725.159 146.247 Q723.237 143.562 719.858 143.562 Q716.478 143.562 714.534 146.247 Q712.612 148.909 712.612 153.608 Q712.612 158.307 714.534 160.992 Q716.478 163.654 719.858 163.654 Q723.237 163.654 725.159 160.992 Q727.103 158.307 727.103 153.608 M712.612 144.557 Q713.955 142.242 715.992 141.131 Q718.052 139.997 720.899 139.997 Q725.622 139.997 728.561 143.747 Q731.524 147.497 731.524 153.608 Q731.524 159.719 728.561 163.469 Q725.622 167.219 720.899 167.219 Q718.052 167.219 715.992 166.108 Q713.955 164.974 712.612 162.659 L712.612 166.548 L708.33 166.548 L708.33 130.529 L712.612 130.529 L712.612 144.557 Z" fill="#000000" fill-rule="nonzero" fill-opacity="1" /><path clip-path="url(#clip940)" d="M755.112 141.386 L755.112 145.414 Q753.307 144.488 751.362 144.025 Q749.418 143.562 747.335 143.562 Q744.163 143.562 742.566 144.534 Q740.992 145.506 740.992 147.451 Q740.992 148.932 742.126 149.789 Q743.26 150.622 746.686 151.386 L748.145 151.71 Q752.682 152.682 754.58 154.465 Q756.501 156.224 756.501 159.395 Q756.501 163.006 753.631 165.113 Q750.784 167.219 745.784 167.219 Q743.7 167.219 741.432 166.802 Q739.186 166.409 736.686 165.599 L736.686 161.201 Q739.048 162.427 741.339 163.052 Q743.631 163.654 745.876 163.654 Q748.885 163.654 750.506 162.636 Q752.126 161.594 752.126 159.719 Q752.126 157.983 750.946 157.057 Q749.788 156.131 745.83 155.275 L744.348 154.928 Q740.39 154.094 738.631 152.381 Q736.872 150.645 736.872 147.636 Q736.872 143.978 739.464 141.988 Q742.057 139.997 746.825 139.997 Q749.186 139.997 751.27 140.344 Q753.353 140.691 755.112 141.386 Z" fill="#000000" fill-rule="nonzero" fill-opacity="1" /><path clip-path="url(#clip940)" d="M785.459 152.52 L785.459 154.603 L765.876 154.603 Q766.154 159.002 768.515 161.316 Q770.899 163.608 775.135 163.608 Q777.589 163.608 779.881 163.006 Q782.195 162.404 784.464 161.201 L784.464 165.228 Q782.172 166.201 779.765 166.71 Q777.358 167.219 774.881 167.219 Q768.677 167.219 765.043 163.608 Q761.432 159.997 761.432 153.84 Q761.432 147.474 764.858 143.747 Q768.307 139.997 774.14 139.997 Q779.371 139.997 782.404 143.377 Q785.459 146.733 785.459 152.52 M781.2 151.27 Q781.154 147.775 779.233 145.691 Q777.334 143.608 774.186 143.608 Q770.621 143.608 768.469 145.622 Q766.339 147.636 766.015 151.293 L781.2 151.27 Z" fill="#000000" fill-rule="nonzero" fill-opacity="1" /><path clip-path="url(#clip940)" d="M807.473 144.603 Q806.756 144.187 805.899 144.002 Q805.066 143.793 804.047 143.793 Q800.436 143.793 798.492 146.154 Q796.57 148.492 796.57 152.89 L796.57 166.548 L792.288 166.548 L792.288 140.622 L796.57 140.622 L796.57 144.65 Q797.913 142.289 800.066 141.154 Q802.218 139.997 805.297 139.997 Q805.737 139.997 806.269 140.066 Q806.802 140.113 807.45 140.229 L807.473 144.603 Z" fill="#000000" fill-rule="nonzero" fill-opacity="1" /><path clip-path="url(#clip940)" d="M808.885 140.622 L813.399 140.622 L821.501 162.381 L829.603 140.622 L834.116 140.622 L824.394 166.548 L818.607 166.548 L808.885 140.622 Z" fill="#000000" fill-rule="nonzero" fill-opacity="1" /><path clip-path="url(#clip940)" d="M862.172 152.52 L862.172 154.603 L842.589 154.603 Q842.866 159.002 845.228 161.316 Q847.612 163.608 851.848 163.608 Q854.302 163.608 856.593 163.006 Q858.908 162.404 861.177 161.201 L861.177 165.228 Q858.885 166.201 856.477 166.71 Q854.07 167.219 851.593 167.219 Q845.39 167.219 841.755 163.608 Q838.144 159.997 838.144 153.84 Q838.144 147.474 841.57 143.747 Q845.019 139.997 850.852 139.997 Q856.084 139.997 859.116 143.377 Q862.172 146.733 862.172 152.52 M857.913 151.27 Q857.866 147.775 855.945 145.691 Q854.047 143.608 850.899 143.608 Q847.334 143.608 845.181 145.622 Q843.052 147.636 842.728 151.293 L857.913 151.27 Z" fill="#000000" fill-rule="nonzero" fill-opacity="1" /><path clip-path="url(#clip940)" d="M886.223 144.557 L886.223 130.529 L890.482 130.529 L890.482 166.548 L886.223 166.548 L886.223 162.659 Q884.88 164.974 882.82 166.108 Q880.783 167.219 877.913 167.219 Q873.213 167.219 870.251 163.469 Q867.311 159.719 867.311 153.608 Q867.311 147.497 870.251 143.747 Q873.213 139.997 877.913 139.997 Q880.783 139.997 882.82 141.131 Q884.88 142.242 886.223 144.557 M871.709 153.608 Q871.709 158.307 873.63 160.992 Q875.575 163.654 878.954 163.654 Q882.334 163.654 884.278 160.992 Q886.223 158.307 886.223 153.608 Q886.223 148.909 884.278 146.247 Q882.334 143.562 878.954 143.562 Q875.575 143.562 873.63 146.247 Q871.709 148.909 871.709 153.608 Z" fill="#000000" fill-rule="nonzero" fill-opacity="1" /><path clip-path="url(#clip940)" d="M926.107 153.515 Q920.945 153.515 918.954 154.696 Q916.963 155.877 916.963 158.724 Q916.963 160.992 918.445 162.335 Q919.949 163.654 922.519 163.654 Q926.06 163.654 928.19 161.154 Q930.343 158.631 930.343 154.465 L930.343 153.515 L926.107 153.515 M934.602 151.756 L934.602 166.548 L930.343 166.548 L930.343 162.613 Q928.884 164.974 926.709 166.108 Q924.533 167.219 921.385 167.219 Q917.403 167.219 915.042 164.997 Q912.704 162.752 912.704 159.002 Q912.704 154.627 915.621 152.404 Q918.56 150.182 924.371 150.182 L930.343 150.182 L930.343 149.766 Q930.343 146.826 928.398 145.228 Q926.477 143.608 922.982 143.608 Q920.76 143.608 918.653 144.141 Q916.547 144.673 914.602 145.738 L914.602 141.803 Q916.94 140.9 919.139 140.46 Q921.338 139.997 923.422 139.997 Q929.047 139.997 931.824 142.914 Q934.602 145.83 934.602 151.756 Z" fill="#000000" fill-rule="nonzero" fill-opacity="1" /><path clip-path="url(#clip940)" d="M960.435 153.284 Q960.435 148.654 958.514 146.108 Q956.616 143.562 953.167 143.562 Q949.741 143.562 947.82 146.108 Q945.921 148.654 945.921 153.284 Q945.921 157.89 947.82 160.437 Q949.741 162.983 953.167 162.983 Q956.616 162.983 958.514 160.437 Q960.435 157.89 960.435 153.284 M964.694 163.33 Q964.694 169.951 961.755 173.168 Q958.815 176.409 952.75 176.409 Q950.505 176.409 948.514 176.062 Q946.523 175.738 944.648 175.043 L944.648 170.9 Q946.523 171.918 948.352 172.404 Q950.181 172.89 952.079 172.89 Q956.269 172.89 958.352 170.691 Q960.435 168.515 960.435 164.094 L960.435 161.988 Q959.116 164.279 957.056 165.414 Q954.995 166.548 952.125 166.548 Q947.357 166.548 944.44 162.914 Q941.523 159.279 941.523 153.284 Q941.523 147.266 944.44 143.631 Q947.357 139.997 952.125 139.997 Q954.995 139.997 957.056 141.131 Q959.116 142.266 960.435 144.557 L960.435 140.622 L964.694 140.622 L964.694 163.33 Z" fill="#000000" fill-rule="nonzero" fill-opacity="1" /><path clip-path="url(#clip940)" d="M995.643 152.52 L995.643 154.603 L976.06 154.603 Q976.338 159.002 978.699 161.316 Q981.083 163.608 985.319 163.608 Q987.773 163.608 990.065 163.006 Q992.38 162.404 994.648 161.201 L994.648 165.228 Q992.356 166.201 989.949 166.71 Q987.542 167.219 985.065 167.219 Q978.861 167.219 975.227 163.608 Q971.616 159.997 971.616 153.84 Q971.616 147.474 975.042 143.747 Q978.491 139.997 984.324 139.997 Q989.555 139.997 992.588 143.377 Q995.643 146.733 995.643 152.52 M991.384 151.27 Q991.338 147.775 989.417 145.691 Q987.518 143.608 984.37 143.608 Q980.805 143.608 978.653 145.622 Q976.523 147.636 976.199 151.293 L991.384 151.27 Z" fill="#000000" fill-rule="nonzero" fill-opacity="1" /><path clip-path="url(#clip940)" d="M1019.16 141.386 L1019.16 145.414 Q1017.36 144.488 1015.41 144.025 Q1013.47 143.562 1011.38 143.562 Q1008.21 143.562 1006.62 144.534 Q1005.04 145.506 1005.04 147.451 Q1005.04 148.932 1006.18 149.789 Q1007.31 150.622 1010.74 151.386 L1012.19 151.71 Q1016.73 152.682 1018.63 154.465 Q1020.55 156.224 1020.55 159.395 Q1020.55 163.006 1017.68 165.113 Q1014.83 167.219 1009.83 167.219 Q1007.75 167.219 1005.48 166.802 Q1003.24 166.409 1000.74 165.599 L1000.74 161.201 Q1003.1 162.427 1005.39 163.052 Q1007.68 163.654 1009.93 163.654 Q1012.93 163.654 1014.56 162.636 Q1016.18 161.594 1016.18 159.719 Q1016.18 157.983 1015 157.057 Q1013.84 156.131 1009.88 155.275 L1008.4 154.928 Q1004.44 154.094 1002.68 152.381 Q1000.92 150.645 1000.92 147.636 Q1000.92 143.978 1003.51 141.988 Q1006.11 139.997 1010.87 139.997 Q1013.24 139.997 1015.32 140.344 Q1017.4 140.691 1019.16 141.386 Z" fill="#000000" fill-rule="nonzero" fill-opacity="1" /><path clip-path="url(#clip940)" d="M1026.66 130.576 L1030.37 130.576 Q1033.84 136.039 1035.55 141.27 Q1037.29 146.502 1037.29 151.664 Q1037.29 156.849 1035.55 162.103 Q1033.84 167.358 1030.37 172.798 L1026.66 172.798 Q1029.74 167.497 1031.25 162.265 Q1032.77 157.011 1032.77 151.664 Q1032.77 146.316 1031.25 141.108 Q1029.74 135.9 1026.66 130.576 Z" fill="#000000" fill-rule="nonzero" fill-opacity="1" /><path clip-path="url(#clip940)" d="M371.663 221.844 L509.878 221.844 L509.878 180.372 L371.663 180.372 L371.663 221.844  Z" fill="#e26f46" fill-rule="evenodd" fill-opacity="0.6"/>
<polyline clip-path="url(#clip940)" style="stroke:#e26f46; stroke-linecap:round; stroke-linejoin:round; stroke-width:4; stroke-opacity:0; fill:none" points="371.663,180.372 509.878,180.372 "/>
<path clip-path="url(#clip940)" d="M532.914 183.828 L539.882 183.828 L548.701 207.346 L557.567 183.828 L564.535 183.828 L564.535 218.388 L559.974 218.388 L559.974 188.041 L551.062 211.744 L546.363 211.744 L537.451 188.041 L537.451 218.388 L532.914 218.388 L532.914 183.828 Z" fill="#000000" fill-rule="nonzero" fill-opacity="1" /><path clip-path="url(#clip940)" d="M583.678 195.448 Q580.252 195.448 578.261 198.133 Q576.271 200.795 576.271 205.448 Q576.271 210.101 578.238 212.786 Q580.229 215.448 583.678 215.448 Q587.081 215.448 589.071 212.763 Q591.062 210.078 591.062 205.448 Q591.062 200.842 589.071 198.156 Q587.081 195.448 583.678 195.448 M583.678 191.837 Q589.234 191.837 592.405 195.448 Q595.576 199.059 595.576 205.448 Q595.576 211.814 592.405 215.448 Q589.234 219.059 583.678 219.059 Q578.099 219.059 574.928 215.448 Q571.78 211.814 571.78 205.448 Q571.78 199.059 574.928 195.448 Q578.099 191.837 583.678 191.837 Z" fill="#000000" fill-rule="nonzero" fill-opacity="1" /><path clip-path="url(#clip940)" d="M619.696 196.397 L619.696 182.369 L623.956 182.369 L623.956 218.388 L619.696 218.388 L619.696 214.499 Q618.354 216.814 616.294 217.948 Q614.257 219.059 611.386 219.059 Q606.687 219.059 603.724 215.309 Q600.784 211.559 600.784 205.448 Q600.784 199.337 603.724 195.587 Q606.687 191.837 611.386 191.837 Q614.257 191.837 616.294 192.971 Q618.354 194.082 619.696 196.397 M605.183 205.448 Q605.183 210.147 607.104 212.832 Q609.048 215.494 612.428 215.494 Q615.807 215.494 617.752 212.832 Q619.696 210.147 619.696 205.448 Q619.696 200.749 617.752 198.087 Q615.807 195.402 612.428 195.402 Q609.048 195.402 607.104 198.087 Q605.183 200.749 605.183 205.448 Z" fill="#000000" fill-rule="nonzero" fill-opacity="1" /><path clip-path="url(#clip940)" d="M654.904 204.36 L654.904 206.443 L635.321 206.443 Q635.599 210.842 637.96 213.156 Q640.344 215.448 644.58 215.448 Q647.034 215.448 649.326 214.846 Q651.641 214.244 653.909 213.041 L653.909 217.068 Q651.617 218.041 649.21 218.55 Q646.803 219.059 644.326 219.059 Q638.122 219.059 634.488 215.448 Q630.877 211.837 630.877 205.68 Q630.877 199.314 634.303 195.587 Q637.752 191.837 643.585 191.837 Q648.817 191.837 651.849 195.217 Q654.904 198.573 654.904 204.36 M650.645 203.11 Q650.599 199.615 648.678 197.531 Q646.78 195.448 643.631 195.448 Q640.067 195.448 637.914 197.462 Q635.784 199.476 635.46 203.133 L650.645 203.11 Z" fill="#000000" fill-rule="nonzero" fill-opacity="1" /><path clip-path="url(#clip940)" d="M661.895 182.369 L666.154 182.369 L666.154 218.388 L661.895 218.388 L661.895 182.369 Z" fill="#000000" fill-rule="nonzero" fill-opacity="1" /><path clip-path="url(#clip940)" d="M700.367 182.416 Q697.265 187.74 695.761 192.948 Q694.256 198.156 694.256 203.504 Q694.256 208.851 695.761 214.105 Q697.288 219.337 700.367 224.638 L696.664 224.638 Q693.191 219.198 691.455 213.943 Q689.742 208.689 689.742 203.504 Q689.742 198.342 691.455 193.11 Q693.168 187.879 696.664 182.416 L700.367 182.416 Z" fill="#000000" fill-rule="nonzero" fill-opacity="1" /><path clip-path="url(#clip940)" d="M719.812 199.244 Q716.663 199.244 714.812 201.397 Q712.983 203.55 712.983 207.3 Q712.983 211.027 714.812 213.203 Q716.663 215.355 719.812 215.355 Q722.96 215.355 724.788 213.203 Q726.64 211.027 726.64 207.3 Q726.64 203.55 724.788 201.397 Q722.96 199.244 719.812 199.244 M729.094 184.592 L729.094 188.851 Q727.335 188.018 725.529 187.578 Q723.747 187.138 721.987 187.138 Q717.358 187.138 714.904 190.263 Q712.474 193.388 712.126 199.707 Q713.492 197.693 715.552 196.629 Q717.612 195.541 720.089 195.541 Q725.298 195.541 728.307 198.712 Q731.339 201.86 731.339 207.3 Q731.339 212.624 728.191 215.842 Q725.043 219.059 719.812 219.059 Q713.816 219.059 710.645 214.476 Q707.474 209.869 707.474 201.143 Q707.474 192.948 711.362 188.087 Q715.251 183.203 721.802 183.203 Q723.562 183.203 725.344 183.55 Q727.149 183.897 729.094 184.592 Z" fill="#000000" fill-rule="nonzero" fill-opacity="1" /><path clip-path="url(#clip940)" d="M749.973 199.244 Q746.825 199.244 744.973 201.397 Q743.145 203.55 743.145 207.3 Q743.145 211.027 744.973 213.203 Q746.825 215.355 749.973 215.355 Q753.122 215.355 754.95 213.203 Q756.802 211.027 756.802 207.3 Q756.802 203.55 754.95 201.397 Q753.122 199.244 749.973 199.244 M759.256 184.592 L759.256 188.851 Q757.497 188.018 755.691 187.578 Q753.909 187.138 752.149 187.138 Q747.52 187.138 745.066 190.263 Q742.635 193.388 742.288 199.707 Q743.654 197.693 745.714 196.629 Q747.774 195.541 750.251 195.541 Q755.459 195.541 758.469 198.712 Q761.501 201.86 761.501 207.3 Q761.501 212.624 758.353 215.842 Q755.205 219.059 749.973 219.059 Q743.978 219.059 740.807 214.476 Q737.636 209.869 737.636 201.143 Q737.636 192.948 741.524 188.087 Q745.413 183.203 751.964 183.203 Q753.723 183.203 755.506 183.55 Q757.311 183.897 759.256 184.592 Z" fill="#000000" fill-rule="nonzero" fill-opacity="1" /><path clip-path="url(#clip940)" d="M769.557 212.508 L774.441 212.508 L774.441 218.388 L769.557 218.388 L769.557 212.508 Z" fill="#000000" fill-rule="nonzero" fill-opacity="1" /><path clip-path="url(#clip940)" d="M785.436 214.453 L793.075 214.453 L793.075 188.087 L784.765 189.754 L784.765 185.494 L793.029 183.828 L797.705 183.828 L797.705 214.453 L805.343 214.453 L805.343 218.388 L785.436 218.388 L785.436 214.453 Z" fill="#000000" fill-rule="nonzero" fill-opacity="1" /><path clip-path="url(#clip940)" d="M828.954 199.754 Q832.311 200.471 834.186 202.74 Q836.084 205.008 836.084 208.342 Q836.084 213.457 832.566 216.258 Q829.047 219.059 822.566 219.059 Q820.39 219.059 818.075 218.619 Q815.783 218.203 813.33 217.346 L813.33 212.832 Q815.274 213.967 817.589 214.545 Q819.904 215.124 822.427 215.124 Q826.825 215.124 829.116 213.388 Q831.431 211.652 831.431 208.342 Q831.431 205.286 829.279 203.573 Q827.149 201.837 823.329 201.837 L819.302 201.837 L819.302 197.994 L823.515 197.994 Q826.964 197.994 828.792 196.629 Q830.621 195.24 830.621 192.647 Q830.621 189.985 828.723 188.573 Q826.848 187.138 823.329 187.138 Q821.408 187.138 819.209 187.555 Q817.01 187.971 814.371 188.851 L814.371 184.684 Q817.033 183.944 819.348 183.573 Q821.686 183.203 823.746 183.203 Q829.07 183.203 832.172 185.633 Q835.274 188.041 835.274 192.161 Q835.274 195.031 833.63 197.022 Q831.987 198.99 828.954 199.754 Z" fill="#000000" fill-rule="nonzero" fill-opacity="1" /><path clip-path="url(#clip940)" d="M848.978 214.453 L865.297 214.453 L865.297 218.388 L843.353 218.388 L843.353 214.453 Q846.015 211.698 850.598 207.068 Q855.204 202.416 856.385 201.073 Q858.63 198.55 859.51 196.814 Q860.413 195.055 860.413 193.365 Q860.413 190.61 858.468 188.874 Q856.547 187.138 853.445 187.138 Q851.246 187.138 848.792 187.902 Q846.362 188.666 843.584 190.217 L843.584 185.494 Q846.408 184.36 848.862 183.782 Q851.315 183.203 853.352 183.203 Q858.723 183.203 861.917 185.888 Q865.112 188.573 865.112 193.064 Q865.112 195.194 864.301 197.115 Q863.514 199.013 861.408 201.606 Q860.829 202.277 857.727 205.494 Q854.626 208.689 848.978 214.453 Z" fill="#000000" fill-rule="nonzero" fill-opacity="1" /><path clip-path="url(#clip940)" d="M906.917 188.666 L906.917 201.559 L919.81 201.559 L919.81 205.494 L906.917 205.494 L906.917 218.388 L903.028 218.388 L903.028 205.494 L890.135 205.494 L890.135 201.559 L903.028 201.559 L903.028 188.666 L906.917 188.666 Z" fill="#000000" fill-rule="nonzero" fill-opacity="1" /><path clip-path="url(#clip940)" d="M939.903 186.907 Q936.292 186.907 934.463 190.471 Q932.658 194.013 932.658 201.143 Q932.658 208.249 934.463 211.814 Q936.292 215.355 939.903 215.355 Q943.537 215.355 945.343 211.814 Q947.171 208.249 947.171 201.143 Q947.171 194.013 945.343 190.471 Q943.537 186.907 939.903 186.907 M939.903 183.203 Q945.713 183.203 948.769 187.809 Q951.847 192.393 951.847 201.143 Q951.847 209.869 948.769 214.476 Q945.713 219.059 939.903 219.059 Q934.093 219.059 931.014 214.476 Q927.959 209.869 927.959 201.143 Q927.959 192.393 931.014 187.809 Q934.093 183.203 939.903 183.203 Z" fill="#000000" fill-rule="nonzero" fill-opacity="1" /><path clip-path="url(#clip940)" d="M960.065 212.508 L964.949 212.508 L964.949 218.388 L960.065 218.388 L960.065 212.508 Z" fill="#000000" fill-rule="nonzero" fill-opacity="1" /><path clip-path="url(#clip940)" d="M985.134 186.907 Q981.523 186.907 979.694 190.471 Q977.889 194.013 977.889 201.143 Q977.889 208.249 979.694 211.814 Q981.523 215.355 985.134 215.355 Q988.768 215.355 990.574 211.814 Q992.403 208.249 992.403 201.143 Q992.403 194.013 990.574 190.471 Q988.768 186.907 985.134 186.907 M985.134 183.203 Q990.944 183.203 994 187.809 Q997.079 192.393 997.079 201.143 Q997.079 209.869 994 214.476 Q990.944 219.059 985.134 219.059 Q979.324 219.059 976.245 214.476 Q973.19 209.869 973.19 201.143 Q973.19 192.393 976.245 187.809 Q979.324 183.203 985.134 183.203 Z" fill="#000000" fill-rule="nonzero" fill-opacity="1" /><path clip-path="url(#clip940)" d="M1015.3 201.976 Q1011.96 201.976 1010.04 203.758 Q1008.14 205.541 1008.14 208.666 Q1008.14 211.791 1010.04 213.573 Q1011.96 215.355 1015.3 215.355 Q1018.63 215.355 1020.55 213.573 Q1022.47 211.767 1022.47 208.666 Q1022.47 205.541 1020.55 203.758 Q1018.65 201.976 1015.3 201.976 M1010.62 199.985 Q1007.61 199.244 1005.92 197.184 Q1004.25 195.124 1004.25 192.161 Q1004.25 188.018 1007.19 185.61 Q1010.16 183.203 1015.3 183.203 Q1020.46 183.203 1023.4 185.61 Q1026.34 188.018 1026.34 192.161 Q1026.34 195.124 1024.65 197.184 Q1022.98 199.244 1020 199.985 Q1023.37 200.772 1025.25 203.064 Q1027.15 205.355 1027.15 208.666 Q1027.15 213.689 1024.07 216.374 Q1021.01 219.059 1015.3 219.059 Q1009.58 219.059 1006.5 216.374 Q1003.44 213.689 1003.44 208.666 Q1003.44 205.355 1005.34 203.064 Q1007.24 200.772 1010.62 199.985 M1008.91 192.601 Q1008.91 195.286 1010.57 196.791 Q1012.26 198.295 1015.3 198.295 Q1018.31 198.295 1020 196.791 Q1021.71 195.286 1021.71 192.601 Q1021.71 189.916 1020 188.411 Q1018.31 186.907 1015.3 186.907 Q1012.26 186.907 1010.57 188.411 Q1008.91 189.916 1008.91 192.601 Z" fill="#000000" fill-rule="nonzero" fill-opacity="1" /><path clip-path="url(#clip940)" d="M1046.04 199.244 Q1042.89 199.244 1041.04 201.397 Q1039.21 203.55 1039.21 207.3 Q1039.21 211.027 1041.04 213.203 Q1042.89 215.355 1046.04 215.355 Q1049.18 215.355 1051.01 213.203 Q1052.87 211.027 1052.87 207.3 Q1052.87 203.55 1051.01 201.397 Q1049.18 199.244 1046.04 199.244 M1055.32 184.592 L1055.32 188.851 Q1053.56 188.018 1051.75 187.578 Q1049.97 187.138 1048.21 187.138 Q1043.58 187.138 1041.13 190.263 Q1038.7 193.388 1038.35 199.707 Q1039.72 197.693 1041.78 196.629 Q1043.84 195.541 1046.31 195.541 Q1051.52 195.541 1054.53 198.712 Q1057.56 201.86 1057.56 207.3 Q1057.56 212.624 1054.42 215.842 Q1051.27 219.059 1046.04 219.059 Q1040.04 219.059 1036.87 214.476 Q1033.7 209.869 1033.7 201.143 Q1033.7 192.948 1037.59 188.087 Q1041.48 183.203 1048.03 183.203 Q1049.79 183.203 1051.57 183.55 Q1053.37 183.897 1055.32 184.592 Z" fill="#000000" fill-rule="nonzero" fill-opacity="1" /><path clip-path="url(#clip940)" d="M1072.59 183.828 L1076.52 183.828 L1064.49 222.786 L1060.55 222.786 L1072.59 183.828 Z" fill="#000000" fill-rule="nonzero" fill-opacity="1" /><path clip-path="url(#clip940)" d="M1078.84 203.504 L1091.31 203.504 L1091.31 207.3 L1078.84 207.3 L1078.84 203.504 Z" fill="#000000" fill-rule="nonzero" fill-opacity="1" /><path clip-path="url(#clip940)" d="M1108.7 186.907 Q1105.09 186.907 1103.26 190.471 Q1101.45 194.013 1101.45 201.143 Q1101.45 208.249 1103.26 211.814 Q1105.09 215.355 1108.7 215.355 Q1112.33 215.355 1114.14 211.814 Q1115.97 208.249 1115.97 201.143 Q1115.97 194.013 1114.14 190.471 Q1112.33 186.907 1108.7 186.907 M1108.7 183.203 Q1114.51 183.203 1117.56 187.809 Q1120.64 192.393 1120.64 201.143 Q1120.64 209.869 1117.56 214.476 Q1114.51 219.059 1108.7 219.059 Q1102.89 219.059 1099.81 214.476 Q1096.75 209.869 1096.75 201.143 Q1096.75 192.393 1099.81 187.809 Q1102.89 183.203 1108.7 183.203 Z" fill="#000000" fill-rule="nonzero" fill-opacity="1" /><path clip-path="url(#clip940)" d="M1128.86 212.508 L1133.74 212.508 L1133.74 218.388 L1128.86 218.388 L1128.86 212.508 Z" fill="#000000" fill-rule="nonzero" fill-opacity="1" /><path clip-path="url(#clip940)" d="M1144.74 214.453 L1152.38 214.453 L1152.38 188.087 L1144.07 189.754 L1144.07 185.494 L1152.33 183.828 L1157.01 183.828 L1157.01 214.453 L1164.65 214.453 L1164.65 218.388 L1144.74 218.388 L1144.74 214.453 Z" fill="#000000" fill-rule="nonzero" fill-opacity="1" /><path clip-path="url(#clip940)" d="M1186.94 187.902 L1175.13 206.351 L1186.94 206.351 L1186.94 187.902 M1185.71 183.828 L1191.59 183.828 L1191.59 206.351 L1196.52 206.351 L1196.52 210.24 L1191.59 210.24 L1191.59 218.388 L1186.94 218.388 L1186.94 210.24 L1171.34 210.24 L1171.34 205.726 L1185.71 183.828 Z" fill="#000000" fill-rule="nonzero" fill-opacity="1" /><path clip-path="url(#clip940)" d="M1208.28 214.453 L1224.6 214.453 L1224.6 218.388 L1202.66 218.388 L1202.66 214.453 Q1205.32 211.698 1209.9 207.068 Q1214.51 202.416 1215.69 201.073 Q1217.93 198.55 1218.81 196.814 Q1219.72 195.055 1219.72 193.365 Q1219.72 190.61 1217.77 188.874 Q1215.85 187.138 1212.75 187.138 Q1210.55 187.138 1208.1 187.902 Q1205.67 188.666 1202.89 190.217 L1202.89 185.494 Q1205.71 184.36 1208.17 183.782 Q1210.62 183.203 1212.66 183.203 Q1218.03 183.203 1221.22 185.888 Q1224.42 188.573 1224.42 193.064 Q1224.42 195.194 1223.61 197.115 Q1222.82 199.013 1220.71 201.606 Q1220.13 202.277 1217.03 205.494 Q1213.93 208.689 1208.28 214.453 Z" fill="#000000" fill-rule="nonzero" fill-opacity="1" /><path clip-path="url(#clip940)" d="M1249.07 183.828 L1256.04 183.828 L1264.85 207.346 L1273.72 183.828 L1280.69 183.828 L1280.69 218.388 L1276.13 218.388 L1276.13 188.041 L1267.22 211.744 L1262.52 211.744 L1253.6 188.041 L1253.6 218.388 L1249.07 218.388 L1249.07 183.828 Z" fill="#000000" fill-rule="nonzero" fill-opacity="1" /><path clip-path="url(#clip940)" d="M1301.57 205.355 Q1296.41 205.355 1294.41 206.536 Q1292.42 207.717 1292.42 210.564 Q1292.42 212.832 1293.91 214.175 Q1295.41 215.494 1297.98 215.494 Q1301.52 215.494 1303.65 212.994 Q1305.8 210.471 1305.8 206.305 L1305.8 205.355 L1301.57 205.355 M1310.06 203.596 L1310.06 218.388 L1305.8 218.388 L1305.8 214.453 Q1304.35 216.814 1302.17 217.948 Q1299.99 219.059 1296.85 219.059 Q1292.86 219.059 1290.5 216.837 Q1288.16 214.592 1288.16 210.842 Q1288.16 206.467 1291.08 204.244 Q1294.02 202.022 1299.83 202.022 L1305.8 202.022 L1305.8 201.606 Q1305.8 198.666 1303.86 197.068 Q1301.94 195.448 1298.44 195.448 Q1296.22 195.448 1294.11 195.981 Q1292.01 196.513 1290.06 197.578 L1290.06 193.643 Q1292.4 192.74 1294.6 192.3 Q1296.8 191.837 1298.88 191.837 Q1304.51 191.837 1307.29 194.754 Q1310.06 197.67 1310.06 203.596 Z" fill="#000000" fill-rule="nonzero" fill-opacity="1" /><path clip-path="url(#clip940)" d="M1318.16 182.416 L1321.87 182.416 Q1325.34 187.879 1327.05 193.11 Q1328.79 198.342 1328.79 203.504 Q1328.79 208.689 1327.05 213.943 Q1325.34 219.198 1321.87 224.638 L1318.16 224.638 Q1321.24 219.337 1322.75 214.105 Q1324.28 208.851 1324.28 203.504 Q1324.28 198.156 1322.75 192.948 Q1321.24 187.74 1318.16 182.416 Z" fill="#000000" fill-rule="nonzero" fill-opacity="1" /></svg>
