<?xml version="1.0" encoding="utf-8"?>
<svg xmlns="http://www.w3.org/2000/svg" xmlns:xlink="http://www.w3.org/1999/xlink" width="600" height="400" viewBox="0 0 2400 1600">
<defs>
  <clipPath id="clip440">
    <rect x="0" y="0" width="2400" height="1600"/>
  </clipPath>
</defs>
<path clip-path="url(#clip440)" d="M0 1600 L2400 1600 L2400 8.88178e-14 L0 8.88178e-14  Z" fill="#ffffff" fill-rule="evenodd" fill-opacity="1"/>
<defs>
  <clipPath id="clip441">
    <rect x="480" y="0" width="1681" height="1600"/>
  </clipPath>
</defs>
<path clip-path="url(#clip440)" d="M249.843 1552.76 L2352.76 1552.76 L2352.76 47.2441 L249.843 47.2441  Z" fill="#ffffff" fill-rule="evenodd" fill-opacity="1"/>
<defs>
  <clipPath id="clip442">
    <rect x="249" y="47" width="2104" height="1507"/>
  </clipPath>
</defs>
<polyline clip-path="url(#clip442)" style="stroke:#000000; stroke-linecap:round; stroke-linejoin:round; stroke-width:2; stroke-opacity:0.1; fill:none" points="249.843,1396.52 2352.76,1396.52 "/>
<polyline clip-path="url(#clip442)" style="stroke:#000000; stroke-linecap:round; stroke-linejoin:round; stroke-width:2; stroke-opacity:0.1; fill:none" points="249.843,1112.46 2352.76,1112.46 "/>
<polyline clip-path="url(#clip442)" style="stroke:#000000; stroke-linecap:round; stroke-linejoin:round; stroke-width:2; stroke-opacity:0.1; fill:none" points="249.843,828.406 2352.76,828.406 "/>
<polyline clip-path="url(#clip442)" style="stroke:#000000; stroke-linecap:round; stroke-linejoin:round; stroke-width:2; stroke-opacity:0.1; fill:none" points="249.843,544.347 2352.76,544.347 "/>
<polyline clip-path="url(#clip442)" style="stroke:#000000; stroke-linecap:round; stroke-linejoin:round; stroke-width:2; stroke-opacity:0.1; fill:none" points="249.843,260.288 2352.76,260.288 "/>
<polyline clip-path="url(#clip442)" style="stroke:#000000; stroke-linecap:round; stroke-linejoin:round; stroke-width:2; stroke-opacity:0.1; fill:none" points="249.843,1396.52 2352.76,1396.52 "/>
<polyline clip-path="url(#clip442)" style="stroke:#000000; stroke-linecap:round; stroke-linejoin:round; stroke-width:2; stroke-opacity:0.1; fill:none" points="249.843,1112.46 2352.76,1112.46 "/>
<polyline clip-path="url(#clip442)" style="stroke:#000000; stroke-linecap:round; stroke-linejoin:round; stroke-width:2; stroke-opacity:0.1; fill:none" points="249.843,828.406 2352.76,828.406 "/>
<polyline clip-path="url(#clip442)" style="stroke:#000000; stroke-linecap:round; stroke-linejoin:round; stroke-width:2; stroke-opacity:0.1; fill:none" points="249.843,544.347 2352.76,544.347 "/>
<polyline clip-path="url(#clip442)" style="stroke:#000000; stroke-linecap:round; stroke-linejoin:round; stroke-width:2; stroke-opacity:0.1; fill:none" points="249.843,260.288 2352.76,260.288 "/>
<polyline clip-path="url(#clip440)" style="stroke:#000000; stroke-linecap:round; stroke-linejoin:round; stroke-width:4; stroke-opacity:1; fill:none" points="249.843,1552.76 2352.76,1552.76 "/>
<polyline clip-path="url(#clip440)" style="stroke:#000000; stroke-linecap:round; stroke-linejoin:round; stroke-width:4; stroke-opacity:1; fill:none" points="249.843,47.2441 2352.76,47.2441 "/>
<polyline clip-path="url(#clip440)" style="stroke:#000000; stroke-linecap:round; stroke-linejoin:round; stroke-width:4; stroke-opacity:1; fill:none" points="249.843,1552.76 249.843,47.2441 "/>
<polyline clip-path="url(#clip440)" style="stroke:#000000; stroke-linecap:round; stroke-linejoin:round; stroke-width:4; stroke-opacity:1; fill:none" points="2352.76,1552.76 2352.76,47.2441 "/>
<polyline clip-path="url(#clip440)" style="stroke:#000000; stroke-linecap:round; stroke-linejoin:round; stroke-width:4; stroke-opacity:1; fill:none" points="249.843,1396.52 268.741,1396.52 "/>
<polyline clip-path="url(#clip440)" style="stroke:#000000; stroke-linecap:round; stroke-linejoin:round; stroke-width:4; stroke-opacity:1; fill:none" points="249.843,1112.46 268.741,1112.46 "/>
<polyline clip-path="url(#clip440)" style="stroke:#000000; stroke-linecap:round; stroke-linejoin:round; stroke-width:4; stroke-opacity:1; fill:none" points="249.843,828.406 268.741,828.406 "/>
<polyline clip-path="url(#clip440)" style="stroke:#000000; stroke-linecap:round; stroke-linejoin:round; stroke-width:4; stroke-opacity:1; fill:none" points="249.843,544.347 268.741,544.347 "/>
<polyline clip-path="url(#clip440)" style="stroke:#000000; stroke-linecap:round; stroke-linejoin:round; stroke-width:4; stroke-opacity:1; fill:none" points="249.843,260.288 268.741,260.288 "/>
<polyline clip-path="url(#clip440)" style="stroke:#000000; stroke-linecap:round; stroke-linejoin:round; stroke-width:4; stroke-opacity:1; fill:none" points="2352.76,1396.52 2333.86,1396.52 "/>
<polyline clip-path="url(#clip440)" style="stroke:#000000; stroke-linecap:round; stroke-linejoin:round; stroke-width:4; stroke-opacity:1; fill:none" points="2352.76,1112.46 2333.86,1112.46 "/>
<polyline clip-path="url(#clip440)" style="stroke:#000000; stroke-linecap:round; stroke-linejoin:round; stroke-width:4; stroke-opacity:1; fill:none" points="2352.76,828.406 2333.86,828.406 "/>
<polyline clip-path="url(#clip440)" style="stroke:#000000; stroke-linecap:round; stroke-linejoin:round; stroke-width:4; stroke-opacity:1; fill:none" points="2352.76,544.347 2333.86,544.347 "/>
<polyline clip-path="url(#clip440)" style="stroke:#000000; stroke-linecap:round; stroke-linejoin:round; stroke-width:4; stroke-opacity:1; fill:none" points="2352.76,260.288 2333.86,260.288 "/>
<path clip-path="url(#clip440)" d="M126.922 1394.66 Q123.774 1394.66 121.922 1396.81 Q120.093 1398.97 120.093 1402.72 Q120.093 1406.44 121.922 1408.62 Q123.774 1410.77 126.922 1410.77 Q130.07 1410.77 131.899 1408.62 Q133.751 1406.44 133.751 1402.72 Q133.751 1398.97 131.899 1396.81 Q130.07 1394.66 126.922 1394.66 M136.204 1380.01 L136.204 1384.27 Q134.445 1383.43 132.64 1382.99 Q130.857 1382.55 129.098 1382.55 Q124.468 1382.55 122.015 1385.68 Q119.584 1388.8 119.237 1395.12 Q120.603 1393.11 122.663 1392.04 Q124.723 1390.96 127.2 1390.96 Q132.408 1390.96 135.417 1394.13 Q138.45 1397.28 138.45 1402.72 Q138.45 1408.04 135.302 1411.26 Q132.154 1414.47 126.922 1414.47 Q120.927 1414.47 117.756 1409.89 Q114.584 1405.29 114.584 1396.56 Q114.584 1388.36 118.473 1383.5 Q122.362 1378.62 128.913 1378.62 Q130.672 1378.62 132.455 1378.97 Q134.26 1379.31 136.204 1380.01 Z" fill="#000000" fill-rule="nonzero" fill-opacity="1" /><path clip-path="url(#clip440)" d="M146.552 1379.24 L164.908 1379.24 L164.908 1383.18 L150.834 1383.18 L150.834 1391.65 Q151.853 1391.3 152.871 1391.14 Q153.89 1390.96 154.908 1390.96 Q160.695 1390.96 164.075 1394.13 Q167.454 1397.3 167.454 1402.72 Q167.454 1408.29 163.982 1411.4 Q160.51 1414.47 154.19 1414.47 Q152.015 1414.47 149.746 1414.1 Q147.501 1413.73 145.093 1412.99 L145.093 1408.29 Q147.177 1409.43 149.399 1409.98 Q151.621 1410.54 154.098 1410.54 Q158.103 1410.54 160.44 1408.43 Q162.778 1406.33 162.778 1402.72 Q162.778 1399.1 160.44 1397 Q158.103 1394.89 154.098 1394.89 Q152.223 1394.89 150.348 1395.31 Q148.496 1395.72 146.552 1396.6 L146.552 1379.24 Z" fill="#000000" fill-rule="nonzero" fill-opacity="1" /><path clip-path="url(#clip440)" d="M176.667 1407.92 L181.551 1407.92 L181.551 1413.8 L176.667 1413.8 L176.667 1407.92 Z" fill="#000000" fill-rule="nonzero" fill-opacity="1" /><path clip-path="url(#clip440)" d="M202.315 1394.66 Q199.167 1394.66 197.315 1396.81 Q195.487 1398.97 195.487 1402.72 Q195.487 1406.44 197.315 1408.62 Q199.167 1410.77 202.315 1410.77 Q205.463 1410.77 207.292 1408.62 Q209.144 1406.44 209.144 1402.72 Q209.144 1398.97 207.292 1396.81 Q205.463 1394.66 202.315 1394.66 M211.598 1380.01 L211.598 1384.27 Q209.838 1383.43 208.033 1382.99 Q206.25 1382.55 204.491 1382.55 Q199.862 1382.55 197.408 1385.68 Q194.977 1388.8 194.63 1395.12 Q195.996 1393.11 198.056 1392.04 Q200.116 1390.96 202.593 1390.96 Q207.801 1390.96 210.811 1394.13 Q213.843 1397.28 213.843 1402.72 Q213.843 1408.04 210.695 1411.26 Q207.547 1414.47 202.315 1414.47 Q196.32 1414.47 193.149 1409.89 Q189.977 1405.29 189.977 1396.56 Q189.977 1388.36 193.866 1383.5 Q197.755 1378.62 204.306 1378.62 Q206.065 1378.62 207.848 1378.97 Q209.653 1379.31 211.598 1380.01 Z" fill="#000000" fill-rule="nonzero" fill-opacity="1" /><path clip-path="url(#clip440)" d="M127.177 1110.6 Q124.029 1110.6 122.177 1112.75 Q120.348 1114.91 120.348 1118.66 Q120.348 1122.38 122.177 1124.56 Q124.029 1126.71 127.177 1126.71 Q130.325 1126.71 132.154 1124.56 Q134.005 1122.38 134.005 1118.66 Q134.005 1114.91 132.154 1112.75 Q130.325 1110.6 127.177 1110.6 M136.459 1095.95 L136.459 1100.21 Q134.7 1099.37 132.894 1098.93 Q131.112 1098.49 129.353 1098.49 Q124.723 1098.49 122.269 1101.62 Q119.839 1104.74 119.492 1111.06 Q120.857 1109.05 122.918 1107.99 Q124.978 1106.9 127.455 1106.9 Q132.663 1106.9 135.672 1110.07 Q138.704 1113.22 138.704 1118.66 Q138.704 1123.98 135.556 1127.2 Q132.408 1130.42 127.177 1130.42 Q121.181 1130.42 118.01 1125.83 Q114.839 1121.23 114.839 1112.5 Q114.839 1104.31 118.728 1099.44 Q122.617 1094.56 129.167 1094.56 Q130.927 1094.56 132.709 1094.91 Q134.515 1095.25 136.459 1095.95 Z" fill="#000000" fill-rule="nonzero" fill-opacity="1" /><path clip-path="url(#clip440)" d="M146.806 1095.18 L165.163 1095.18 L165.163 1099.12 L151.089 1099.12 L151.089 1107.59 Q152.107 1107.24 153.126 1107.08 Q154.144 1106.9 155.163 1106.9 Q160.95 1106.9 164.329 1110.07 Q167.709 1113.24 167.709 1118.66 Q167.709 1124.24 164.237 1127.34 Q160.765 1130.42 154.445 1130.42 Q152.269 1130.42 150.001 1130.05 Q147.755 1129.68 145.348 1128.93 L145.348 1124.24 Q147.431 1125.37 149.653 1125.93 Q151.876 1126.48 154.353 1126.48 Q158.357 1126.48 160.695 1124.37 Q163.033 1122.27 163.033 1118.66 Q163.033 1115.05 160.695 1112.94 Q158.357 1110.83 154.353 1110.83 Q152.478 1110.83 150.603 1111.25 Q148.751 1111.67 146.806 1112.55 L146.806 1095.18 Z" fill="#000000" fill-rule="nonzero" fill-opacity="1" /><path clip-path="url(#clip440)" d="M176.922 1123.87 L181.806 1123.87 L181.806 1129.74 L176.922 1129.74 L176.922 1123.87 Z" fill="#000000" fill-rule="nonzero" fill-opacity="1" /><path clip-path="url(#clip440)" d="M201.991 1113.33 Q198.658 1113.33 196.737 1115.12 Q194.838 1116.9 194.838 1120.02 Q194.838 1123.15 196.737 1124.93 Q198.658 1126.71 201.991 1126.71 Q205.324 1126.71 207.246 1124.93 Q209.167 1123.12 209.167 1120.02 Q209.167 1116.9 207.246 1115.12 Q205.348 1113.33 201.991 1113.33 M197.315 1111.34 Q194.306 1110.6 192.616 1108.54 Q190.95 1106.48 190.95 1103.52 Q190.95 1099.37 193.889 1096.97 Q196.852 1094.56 201.991 1094.56 Q207.153 1094.56 210.093 1096.97 Q213.033 1099.37 213.033 1103.52 Q213.033 1106.48 211.343 1108.54 Q209.676 1110.6 206.69 1111.34 Q210.07 1112.13 211.945 1114.42 Q213.843 1116.71 213.843 1120.02 Q213.843 1125.05 210.764 1127.73 Q207.709 1130.42 201.991 1130.42 Q196.274 1130.42 193.195 1127.73 Q190.139 1125.05 190.139 1120.02 Q190.139 1116.71 192.038 1114.42 Q193.936 1112.13 197.315 1111.34 M195.602 1103.96 Q195.602 1106.64 197.269 1108.15 Q198.959 1109.65 201.991 1109.65 Q205 1109.65 206.69 1108.15 Q208.403 1106.64 208.403 1103.96 Q208.403 1101.27 206.69 1099.77 Q205 1098.26 201.991 1098.26 Q198.959 1098.26 197.269 1099.77 Q195.602 1101.27 195.602 1103.96 Z" fill="#000000" fill-rule="nonzero" fill-opacity="1" /><path clip-path="url(#clip440)" d="M127.084 826.542 Q123.936 826.542 122.084 828.695 Q120.255 830.848 120.255 834.598 Q120.255 838.325 122.084 840.501 Q123.936 842.653 127.084 842.653 Q130.232 842.653 132.061 840.501 Q133.913 838.325 133.913 834.598 Q133.913 830.848 132.061 828.695 Q130.232 826.542 127.084 826.542 M136.367 811.89 L136.367 816.149 Q134.607 815.316 132.802 814.876 Q131.019 814.436 129.26 814.436 Q124.63 814.436 122.177 817.561 Q119.746 820.686 119.399 827.005 Q120.765 824.992 122.825 823.927 Q124.885 822.839 127.362 822.839 Q132.57 822.839 135.579 826.01 Q138.612 829.158 138.612 834.598 Q138.612 839.922 135.464 843.14 Q132.316 846.357 127.084 846.357 Q121.089 846.357 117.918 841.774 Q114.746 837.167 114.746 828.441 Q114.746 820.246 118.635 815.385 Q122.524 810.501 129.075 810.501 Q130.834 810.501 132.617 810.848 Q134.422 811.195 136.367 811.89 Z" fill="#000000" fill-rule="nonzero" fill-opacity="1" /><path clip-path="url(#clip440)" d="M157.246 826.542 Q154.098 826.542 152.246 828.695 Q150.417 830.848 150.417 834.598 Q150.417 838.325 152.246 840.501 Q154.098 842.653 157.246 842.653 Q160.394 842.653 162.223 840.501 Q164.075 838.325 164.075 834.598 Q164.075 830.848 162.223 828.695 Q160.394 826.542 157.246 826.542 M166.528 811.89 L166.528 816.149 Q164.769 815.316 162.964 814.876 Q161.181 814.436 159.422 814.436 Q154.792 814.436 152.339 817.561 Q149.908 820.686 149.561 827.005 Q150.927 824.992 152.987 823.927 Q155.047 822.839 157.524 822.839 Q162.732 822.839 165.741 826.01 Q168.774 829.158 168.774 834.598 Q168.774 839.922 165.626 843.14 Q162.477 846.357 157.246 846.357 Q151.251 846.357 148.079 841.774 Q144.908 837.167 144.908 828.441 Q144.908 820.246 148.797 815.385 Q152.686 810.501 159.237 810.501 Q160.996 810.501 162.778 810.848 Q164.584 811.195 166.528 811.89 Z" fill="#000000" fill-rule="nonzero" fill-opacity="1" /><path clip-path="url(#clip440)" d="M176.829 839.806 L181.713 839.806 L181.713 845.686 L176.829 845.686 L176.829 839.806 Z" fill="#000000" fill-rule="nonzero" fill-opacity="1" /><path clip-path="url(#clip440)" d="M201.899 814.205 Q198.287 814.205 196.459 817.769 Q194.653 821.311 194.653 828.441 Q194.653 835.547 196.459 839.112 Q198.287 842.653 201.899 842.653 Q205.533 842.653 207.338 839.112 Q209.167 835.547 209.167 828.441 Q209.167 821.311 207.338 817.769 Q205.533 814.205 201.899 814.205 M201.899 810.501 Q207.709 810.501 210.764 815.107 Q213.843 819.691 213.843 828.441 Q213.843 837.167 210.764 841.774 Q207.709 846.357 201.899 846.357 Q196.088 846.357 193.01 841.774 Q189.954 837.167 189.954 828.441 Q189.954 819.691 193.01 815.107 Q196.088 810.501 201.899 810.501 Z" fill="#000000" fill-rule="nonzero" fill-opacity="1" /><path clip-path="url(#clip440)" d="M128.681 542.484 Q125.533 542.484 123.681 544.636 Q121.853 546.789 121.853 550.539 Q121.853 554.266 123.681 556.442 Q125.533 558.595 128.681 558.595 Q131.83 558.595 133.658 556.442 Q135.51 554.266 135.51 550.539 Q135.51 546.789 133.658 544.636 Q131.83 542.484 128.681 542.484 M137.964 527.831 L137.964 532.09 Q136.204 531.257 134.399 530.817 Q132.617 530.377 130.857 530.377 Q126.228 530.377 123.774 533.502 Q121.343 536.627 120.996 542.947 Q122.362 540.933 124.422 539.868 Q126.482 538.78 128.959 538.78 Q134.167 538.78 137.177 541.951 Q140.209 545.099 140.209 550.539 Q140.209 555.863 137.061 559.081 Q133.913 562.298 128.681 562.298 Q122.686 562.298 119.515 557.715 Q116.343 553.109 116.343 544.382 Q116.343 536.187 120.232 531.326 Q124.121 526.442 130.672 526.442 Q132.431 526.442 134.214 526.789 Q136.019 527.136 137.964 527.831 Z" fill="#000000" fill-rule="nonzero" fill-opacity="1" /><path clip-path="url(#clip440)" d="M158.843 542.484 Q155.695 542.484 153.843 544.636 Q152.015 546.789 152.015 550.539 Q152.015 554.266 153.843 556.442 Q155.695 558.595 158.843 558.595 Q161.991 558.595 163.82 556.442 Q165.672 554.266 165.672 550.539 Q165.672 546.789 163.82 544.636 Q161.991 542.484 158.843 542.484 M168.126 527.831 L168.126 532.09 Q166.366 531.257 164.561 530.817 Q162.778 530.377 161.019 530.377 Q156.39 530.377 153.936 533.502 Q151.505 536.627 151.158 542.947 Q152.524 540.933 154.584 539.868 Q156.644 538.78 159.121 538.78 Q164.329 538.78 167.339 541.951 Q170.371 545.099 170.371 550.539 Q170.371 555.863 167.223 559.081 Q164.075 562.298 158.843 562.298 Q152.848 562.298 149.677 557.715 Q146.505 553.109 146.505 544.382 Q146.505 536.187 150.394 531.326 Q154.283 526.442 160.834 526.442 Q162.593 526.442 164.376 526.789 Q166.181 527.136 168.126 527.831 Z" fill="#000000" fill-rule="nonzero" fill-opacity="1" /><path clip-path="url(#clip440)" d="M178.426 555.747 L183.311 555.747 L183.311 561.627 L178.426 561.627 L178.426 555.747 Z" fill="#000000" fill-rule="nonzero" fill-opacity="1" /><path clip-path="url(#clip440)" d="M197.524 557.692 L213.843 557.692 L213.843 561.627 L191.899 561.627 L191.899 557.692 Q194.561 554.937 199.144 550.308 Q203.75 545.655 204.931 544.312 Q207.176 541.789 208.056 540.053 Q208.959 538.294 208.959 536.604 Q208.959 533.849 207.014 532.113 Q205.093 530.377 201.991 530.377 Q199.792 530.377 197.338 531.141 Q194.908 531.905 192.13 533.456 L192.13 528.734 Q194.954 527.599 197.408 527.021 Q199.862 526.442 201.899 526.442 Q207.269 526.442 210.463 529.127 Q213.658 531.812 213.658 536.303 Q213.658 538.433 212.848 540.354 Q212.061 542.252 209.954 544.845 Q209.375 545.516 206.274 548.734 Q203.172 551.928 197.524 557.692 Z" fill="#000000" fill-rule="nonzero" fill-opacity="1" /><path clip-path="url(#clip440)" d="M126.598 258.425 Q123.45 258.425 121.598 260.578 Q119.769 262.73 119.769 266.48 Q119.769 270.207 121.598 272.383 Q123.45 274.536 126.598 274.536 Q129.746 274.536 131.575 272.383 Q133.427 270.207 133.427 266.48 Q133.427 262.73 131.575 260.578 Q129.746 258.425 126.598 258.425 M135.88 243.772 L135.88 248.031 Q134.121 247.198 132.316 246.758 Q130.533 246.318 128.774 246.318 Q124.144 246.318 121.691 249.443 Q119.26 252.568 118.913 258.888 Q120.279 256.874 122.339 255.809 Q124.399 254.721 126.876 254.721 Q132.084 254.721 135.093 257.892 Q138.126 261.041 138.126 266.48 Q138.126 271.804 134.978 275.022 Q131.83 278.24 126.598 278.24 Q120.603 278.24 117.431 273.656 Q114.26 269.05 114.26 260.323 Q114.26 252.129 118.149 247.267 Q122.038 242.383 128.589 242.383 Q130.348 242.383 132.13 242.73 Q133.936 243.078 135.88 243.772 Z" fill="#000000" fill-rule="nonzero" fill-opacity="1" /><path clip-path="url(#clip440)" d="M156.76 258.425 Q153.612 258.425 151.76 260.578 Q149.931 262.73 149.931 266.48 Q149.931 270.207 151.76 272.383 Q153.612 274.536 156.76 274.536 Q159.908 274.536 161.737 272.383 Q163.589 270.207 163.589 266.48 Q163.589 262.73 161.737 260.578 Q159.908 258.425 156.76 258.425 M166.042 243.772 L166.042 248.031 Q164.283 247.198 162.477 246.758 Q160.695 246.318 158.936 246.318 Q154.306 246.318 151.853 249.443 Q149.422 252.568 149.075 258.888 Q150.441 256.874 152.501 255.809 Q154.561 254.721 157.038 254.721 Q162.246 254.721 165.255 257.892 Q168.288 261.041 168.288 266.48 Q168.288 271.804 165.14 275.022 Q161.991 278.24 156.76 278.24 Q150.765 278.24 147.593 273.656 Q144.422 269.05 144.422 260.323 Q144.422 252.129 148.311 247.267 Q152.2 242.383 158.751 242.383 Q160.51 242.383 162.292 242.73 Q164.098 243.078 166.042 243.772 Z" fill="#000000" fill-rule="nonzero" fill-opacity="1" /><path clip-path="url(#clip440)" d="M176.343 271.689 L181.227 271.689 L181.227 277.568 L176.343 277.568 L176.343 271.689 Z" fill="#000000" fill-rule="nonzero" fill-opacity="1" /><path clip-path="url(#clip440)" d="M204.26 247.082 L192.454 265.531 L204.26 265.531 L204.26 247.082 M203.033 243.008 L208.912 243.008 L208.912 265.531 L213.843 265.531 L213.843 269.42 L208.912 269.42 L208.912 277.568 L204.26 277.568 L204.26 269.42 L188.658 269.42 L188.658 264.906 L203.033 243.008 Z" fill="#000000" fill-rule="nonzero" fill-opacity="1" /><path clip-path="url(#clip440)" d="M22.818 922.094 L46.4666 930.815 L46.4666 913.341 L22.818 922.094 M16.4842 925.723 L16.4842 918.434 L64.0042 900.324 L64.0042 907.008 L51.8138 911.336 L51.8138 932.757 L64.0042 937.085 L64.0042 943.865 L16.4842 925.723 Z" fill="#000000" fill-rule="nonzero" fill-opacity="1" /><path clip-path="url(#clip440)" d="M45.7664 870.182 Q39.4007 870.182 35.8996 872.824 Q32.3984 875.434 32.3984 880.176 Q32.3984 884.887 35.8996 887.528 Q39.4007 890.138 45.7664 890.138 Q52.1003 890.138 55.6014 887.528 Q59.1026 884.887 59.1026 880.176 Q59.1026 875.434 55.6014 872.824 Q52.1003 870.182 45.7664 870.182 M59.58 864.325 Q68.683 864.325 73.1071 868.368 Q77.5631 872.41 77.5631 880.749 Q77.5631 883.836 77.0857 886.574 Q76.6401 889.311 75.6852 891.889 L69.9879 891.889 Q71.3884 889.311 72.0568 886.796 Q72.7252 884.282 72.7252 881.672 Q72.7252 875.911 69.7015 873.046 Q66.7096 870.182 60.6303 870.182 L57.7339 870.182 Q60.885 871.996 62.4446 874.829 Q64.0042 877.662 64.0042 881.608 Q64.0042 888.165 59.0071 892.175 Q54.01 896.186 45.7664 896.186 Q37.491 896.186 32.4939 892.175 Q27.4968 888.165 27.4968 881.608 Q27.4968 877.662 29.0564 874.829 Q30.616 871.996 33.7671 870.182 L28.3562 870.182 L28.3562 864.325 L59.58 864.325 Z" fill="#000000" fill-rule="nonzero" fill-opacity="1" /><path clip-path="url(#clip440)" d="M44.7161 821.771 L47.5806 821.771 L47.5806 848.698 Q53.6281 848.316 56.8109 845.069 Q59.9619 841.791 59.9619 835.966 Q59.9619 832.592 59.1344 829.441 Q58.3069 826.259 56.6518 823.139 L62.1899 823.139 Q63.5267 826.29 64.227 829.601 Q64.9272 832.911 64.9272 836.316 Q64.9272 844.846 59.9619 849.843 Q54.9967 854.809 46.5303 854.809 Q37.7774 854.809 32.6531 850.098 Q27.4968 845.356 27.4968 837.335 Q27.4968 830.142 32.1438 825.972 Q36.7589 821.771 44.7161 821.771 M42.9973 827.627 Q38.1912 827.691 35.3266 830.333 Q32.4621 832.943 32.4621 837.271 Q32.4621 842.173 35.2312 845.133 Q38.0002 848.061 43.0292 848.507 L42.9973 827.627 Z" fill="#000000" fill-rule="nonzero" fill-opacity="1" /><path clip-path="url(#clip440)" d="M14.5426 777.37 Q21.8632 781.635 29.0246 783.704 Q36.186 785.773 43.5384 785.773 Q50.8908 785.773 58.1159 783.704 Q65.3091 781.603 72.5979 777.37 L72.5979 782.462 Q65.1182 787.237 57.8931 789.624 Q50.668 791.979 43.5384 791.979 Q36.4406 791.979 29.2474 789.624 Q22.0542 787.269 14.5426 782.462 L14.5426 777.37 Z" fill="#000000" fill-rule="nonzero" fill-opacity="1" /><path clip-path="url(#clip440)" d="M16.4842 765.752 L16.4842 756.172 L48.8219 744.045 L16.4842 731.855 L16.4842 722.275 L64.0042 722.275 L64.0042 728.545 L22.277 728.545 L54.8694 740.799 L54.8694 747.26 L22.277 759.514 L64.0042 759.514 L64.0042 765.752 L16.4842 765.752 Z" fill="#000000" fill-rule="nonzero" fill-opacity="1" /><path clip-path="url(#clip440)" d="M46.0847 693.565 Q46.0847 700.663 47.7079 703.4 Q49.3312 706.138 53.2461 706.138 Q56.3653 706.138 58.2114 704.101 Q60.0256 702.032 60.0256 698.499 Q60.0256 693.629 56.5881 690.701 Q53.1188 687.741 47.3897 687.741 L46.0847 687.741 L46.0847 693.565 M43.6657 681.884 L64.0042 681.884 L64.0042 687.741 L58.5933 687.741 Q61.8398 689.746 63.3994 692.738 Q64.9272 695.73 64.9272 700.058 Q64.9272 705.533 61.8716 708.779 Q58.7843 711.994 53.6281 711.994 Q47.6125 711.994 44.5569 707.984 Q41.5014 703.941 41.5014 695.953 L41.5014 687.741 L40.9285 687.741 Q36.8862 687.741 34.6901 690.414 Q32.4621 693.056 32.4621 697.862 Q32.4621 700.918 33.1941 703.814 Q33.9262 706.711 35.3903 709.384 L29.9795 709.384 Q28.7381 706.169 28.1334 703.146 Q27.4968 700.122 27.4968 697.257 Q27.4968 689.523 31.5072 685.704 Q35.5176 681.884 43.6657 681.884 Z" fill="#000000" fill-rule="nonzero" fill-opacity="1" /><path clip-path="url(#clip440)" d="M14.5426 670.744 L14.5426 665.652 Q22.0542 660.877 29.2474 658.522 Q36.4406 656.135 43.5384 656.135 Q50.668 656.135 57.8931 658.522 Q65.1182 660.877 72.5979 665.652 L72.5979 670.744 Q65.3091 666.511 58.1159 664.442 Q50.8908 662.342 43.5384 662.342 Q36.186 662.342 29.0246 664.442 Q21.8632 666.511 14.5426 670.744 Z" fill="#000000" fill-rule="nonzero" fill-opacity="1" /><polyline clip-path="url(#clip442)" style="stroke:#009af9; stroke-linecap:round; stroke-linejoin:round; stroke-width:4; stroke-opacity:1; fill:none" points="309.359,1217.57 309.359,942.029 "/>
<polyline clip-path="url(#clip442)" style="stroke:#009af9; stroke-linecap:round; stroke-linejoin:round; stroke-width:4; stroke-opacity:1; fill:none" points="1301.3,1510.15 1301.3,487.535 "/>
<polyline clip-path="url(#clip442)" style="stroke:#009af9; stroke-linecap:round; stroke-linejoin:round; stroke-width:4; stroke-opacity:1; fill:none" points="2293.24,1424.93 2293.24,89.8529 "/>
<line clip-path="url(#clip442)" x1="325.359" y1="1217.57" x2="293.359" y2="1217.57" style="stroke:#009af9; stroke-width:4; stroke-opacity:1"/>
<line clip-path="url(#clip442)" x1="325.359" y1="942.029" x2="293.359" y2="942.029" style="stroke:#009af9; stroke-width:4; stroke-opacity:1"/>
<line clip-path="url(#clip442)" x1="1317.3" y1="1510.15" x2="1285.3" y2="1510.15" style="stroke:#009af9; stroke-width:4; stroke-opacity:1"/>
<line clip-path="url(#clip442)" x1="1317.3" y1="487.535" x2="1285.3" y2="487.535" style="stroke:#009af9; stroke-width:4; stroke-opacity:1"/>
<line clip-path="url(#clip442)" x1="2309.24" y1="1424.93" x2="2277.24" y2="1424.93" style="stroke:#009af9; stroke-width:4; stroke-opacity:1"/>
<line clip-path="url(#clip442)" x1="2309.24" y1="89.8529" x2="2277.24" y2="89.8529" style="stroke:#009af9; stroke-width:4; stroke-opacity:1"/>
<circle clip-path="url(#clip442)" cx="309.359" cy="1079.8" r="14.4" fill="#009af9" fill-rule="evenodd" fill-opacity="1" stroke="none"/>
<circle clip-path="url(#clip442)" cx="1301.3" cy="998.841" r="14.4" fill="#009af9" fill-rule="evenodd" fill-opacity="1" stroke="none"/>
<circle clip-path="url(#clip442)" cx="2293.24" cy="757.391" r="14.4" fill="#009af9" fill-rule="evenodd" fill-opacity="1" stroke="none"/>
<path clip-path="url(#clip442)" d="M309.359 1237.53 L1301.3 1237.53 L2293.24 1237.53 L2293.24 988.008 L1301.3 988.008 L309.359 988.008  Z" fill="#e26f46" fill-rule="evenodd" fill-opacity="0.6"/>
<polyline clip-path="url(#clip442)" style="stroke:#e26f46; stroke-linecap:round; stroke-linejoin:round; stroke-width:4; stroke-opacity:0; fill:none" points="309.359,1237.53 1301.3,1237.53 2293.24,1237.53 "/>
<polyline clip-path="url(#clip442)" style="stroke:#000000; stroke-linecap:round; stroke-linejoin:round; stroke-width:4; stroke-opacity:1; fill:none" stroke-dasharray="2, 4" points="309.359,1089.02 1301.3,1089.02 2293.24,1089.02 "/>
<path clip-path="url(#clip440)" d="M319.94 252.948 L1326.11 252.948 L1326.11 97.4278 L319.94 97.4278  Z" fill="#ffffff" fill-rule="evenodd" fill-opacity="1"/>
<polyline clip-path="url(#clip440)" style="stroke:#ffffff; stroke-linecap:round; stroke-linejoin:round; stroke-width:4; stroke-opacity:1; fill:none" points="319.94,252.948 1326.11,252.948 1326.11,97.4278 319.94,97.4278 319.94,252.948 "/>
<circle clip-path="url(#clip440)" cx="413.403" cy="149.268" r="20.48" fill="#009af9" fill-rule="evenodd" fill-opacity="1" stroke="none"/>
<path clip-path="url(#clip440)" d="M511.542 135.83 L511.542 162.705 L517.19 162.705 Q524.342 162.705 527.653 159.465 Q530.986 156.224 530.986 149.233 Q530.986 142.289 527.653 139.071 Q524.342 135.83 517.19 135.83 L511.542 135.83 M506.866 131.988 L516.472 131.988 Q526.518 131.988 531.217 136.178 Q535.916 140.344 535.916 149.233 Q535.916 158.168 531.194 162.358 Q526.472 166.548 516.472 166.548 L506.866 166.548 L506.866 131.988 Z" fill="#000000" fill-rule="nonzero" fill-opacity="1" /><path clip-path="url(#clip440)" d="M554.967 153.515 Q549.805 153.515 547.815 154.696 Q545.824 155.877 545.824 158.724 Q545.824 160.992 547.305 162.335 Q548.81 163.654 551.379 163.654 Q554.921 163.654 557.051 161.154 Q559.203 158.631 559.203 154.465 L559.203 153.515 L554.967 153.515 M563.463 151.756 L563.463 166.548 L559.203 166.548 L559.203 162.613 Q557.745 164.974 555.569 166.108 Q553.393 167.219 550.245 167.219 Q546.264 167.219 543.902 164.997 Q541.565 162.752 541.565 159.002 Q541.565 154.627 544.481 152.404 Q547.421 150.182 553.231 150.182 L559.203 150.182 L559.203 149.766 Q559.203 146.826 557.259 145.228 Q555.338 143.608 551.842 143.608 Q549.62 143.608 547.514 144.141 Q545.407 144.673 543.463 145.738 L543.463 141.803 Q545.801 140.9 548 140.46 Q550.199 139.997 552.282 139.997 Q557.907 139.997 560.685 142.914 Q563.463 145.83 563.463 151.756 Z" fill="#000000" fill-rule="nonzero" fill-opacity="1" /><path clip-path="url(#clip440)" d="M576.449 133.261 L576.449 140.622 L585.222 140.622 L585.222 143.932 L576.449 143.932 L576.449 158.006 Q576.449 161.177 577.305 162.08 Q578.185 162.983 580.847 162.983 L585.222 162.983 L585.222 166.548 L580.847 166.548 Q575.916 166.548 574.041 164.719 Q572.166 162.867 572.166 158.006 L572.166 143.932 L569.041 143.932 L569.041 140.622 L572.166 140.622 L572.166 133.261 L576.449 133.261 Z" fill="#000000" fill-rule="nonzero" fill-opacity="1" /><path clip-path="url(#clip440)" d="M602.606 153.515 Q597.444 153.515 595.453 154.696 Q593.462 155.877 593.462 158.724 Q593.462 160.992 594.944 162.335 Q596.449 163.654 599.018 163.654 Q602.56 163.654 604.689 161.154 Q606.842 158.631 606.842 154.465 L606.842 153.515 L602.606 153.515 M611.101 151.756 L611.101 166.548 L606.842 166.548 L606.842 162.613 Q605.384 164.974 603.208 166.108 Q601.032 167.219 597.884 167.219 Q593.902 167.219 591.541 164.997 Q589.203 162.752 589.203 159.002 Q589.203 154.627 592.12 152.404 Q595.06 150.182 600.87 150.182 L606.842 150.182 L606.842 149.766 Q606.842 146.826 604.898 145.228 Q602.976 143.608 599.481 143.608 Q597.259 143.608 595.152 144.141 Q593.046 144.673 591.101 145.738 L591.101 141.803 Q593.439 140.9 595.638 140.46 Q597.837 139.997 599.921 139.997 Q605.546 139.997 608.323 142.914 Q611.101 145.83 611.101 151.756 Z" fill="#000000" fill-rule="nonzero" fill-opacity="1" /><path clip-path="url(#clip440)" d="M645.175 130.576 Q642.073 135.9 640.569 141.108 Q639.064 146.316 639.064 151.664 Q639.064 157.011 640.569 162.265 Q642.096 167.497 645.175 172.798 L641.471 172.798 Q637.999 167.358 636.263 162.103 Q634.55 156.849 634.55 151.664 Q634.55 146.502 636.263 141.27 Q637.976 136.039 641.471 130.576 L645.175 130.576 Z" fill="#000000" fill-rule="nonzero" fill-opacity="1" /><path clip-path="url(#clip440)" d="M663.485 143.608 Q660.059 143.608 658.069 146.293 Q656.078 148.955 656.078 153.608 Q656.078 158.261 658.045 160.946 Q660.036 163.608 663.485 163.608 Q666.888 163.608 668.879 160.923 Q670.869 158.238 670.869 153.608 Q670.869 149.002 668.879 146.316 Q666.888 143.608 663.485 143.608 M663.485 139.997 Q669.041 139.997 672.212 143.608 Q675.383 147.219 675.383 153.608 Q675.383 159.974 672.212 163.608 Q669.041 167.219 663.485 167.219 Q657.907 167.219 654.735 163.608 Q651.587 159.974 651.587 153.608 Q651.587 147.219 654.735 143.608 Q657.907 139.997 663.485 139.997 Z" fill="#000000" fill-rule="nonzero" fill-opacity="1" /><path clip-path="url(#clip440)" d="M701.054 153.608 Q701.054 148.909 699.11 146.247 Q697.189 143.562 693.809 143.562 Q690.429 143.562 688.485 146.247 Q686.564 148.909 686.564 153.608 Q686.564 158.307 688.485 160.992 Q690.429 163.654 693.809 163.654 Q697.189 163.654 699.11 160.992 Q701.054 158.307 701.054 153.608 M686.564 144.557 Q687.906 142.242 689.943 141.131 Q692.004 139.997 694.851 139.997 Q699.573 139.997 702.513 143.747 Q705.476 147.497 705.476 153.608 Q705.476 159.719 702.513 163.469 Q699.573 167.219 694.851 167.219 Q692.004 167.219 689.943 166.108 Q687.906 164.974 686.564 162.659 L686.564 166.548 L682.281 166.548 L682.281 130.529 L686.564 130.529 L686.564 144.557 Z" fill="#000000" fill-rule="nonzero" fill-opacity="1" /><path clip-path="url(#clip440)" d="M729.064 141.386 L729.064 145.414 Q727.258 144.488 725.314 144.025 Q723.369 143.562 721.286 143.562 Q718.115 143.562 716.517 144.534 Q714.943 145.506 714.943 147.451 Q714.943 148.932 716.077 149.789 Q717.212 150.622 720.638 151.386 L722.096 151.71 Q726.633 152.682 728.531 154.465 Q730.452 156.224 730.452 159.395 Q730.452 163.006 727.582 165.113 Q724.735 167.219 719.735 167.219 Q717.652 167.219 715.383 166.802 Q713.138 166.409 710.638 165.599 L710.638 161.201 Q712.999 162.427 715.29 163.052 Q717.582 163.654 719.827 163.654 Q722.837 163.654 724.457 162.636 Q726.077 161.594 726.077 159.719 Q726.077 157.983 724.897 157.057 Q723.739 156.131 719.781 155.275 L718.3 154.928 Q714.341 154.094 712.582 152.381 Q710.823 150.645 710.823 147.636 Q710.823 143.978 713.415 141.988 Q716.008 139.997 720.777 139.997 Q723.138 139.997 725.221 140.344 Q727.304 140.691 729.064 141.386 Z" fill="#000000" fill-rule="nonzero" fill-opacity="1" /><path clip-path="url(#clip440)" d="M759.411 152.52 L759.411 154.603 L739.827 154.603 Q740.105 159.002 742.466 161.316 Q744.85 163.608 749.087 163.608 Q751.54 163.608 753.832 163.006 Q756.147 162.404 758.415 161.201 L758.415 165.228 Q756.124 166.201 753.716 166.71 Q751.309 167.219 748.832 167.219 Q742.628 167.219 738.994 163.608 Q735.383 159.997 735.383 153.84 Q735.383 147.474 738.809 143.747 Q742.258 139.997 748.091 139.997 Q753.323 139.997 756.355 143.377 Q759.411 146.733 759.411 152.52 M755.151 151.27 Q755.105 147.775 753.184 145.691 Q751.286 143.608 748.138 143.608 Q744.573 143.608 742.42 145.622 Q740.29 147.636 739.966 151.293 L755.151 151.27 Z" fill="#000000" fill-rule="nonzero" fill-opacity="1" /><path clip-path="url(#clip440)" d="M781.424 144.603 Q780.707 144.187 779.85 144.002 Q779.017 143.793 777.998 143.793 Q774.387 143.793 772.443 146.154 Q770.522 148.492 770.522 152.89 L770.522 166.548 L766.239 166.548 L766.239 140.622 L770.522 140.622 L770.522 144.65 Q771.864 142.289 774.017 141.154 Q776.17 139.997 779.248 139.997 Q779.688 139.997 780.221 140.066 Q780.753 140.113 781.401 140.229 L781.424 144.603 Z" fill="#000000" fill-rule="nonzero" fill-opacity="1" /><path clip-path="url(#clip440)" d="M782.836 140.622 L787.35 140.622 L795.452 162.381 L803.554 140.622 L808.068 140.622 L798.346 166.548 L792.559 166.548 L782.836 140.622 Z" fill="#000000" fill-rule="nonzero" fill-opacity="1" /><path clip-path="url(#clip440)" d="M836.123 152.52 L836.123 154.603 L816.54 154.603 Q816.818 159.002 819.179 161.316 Q821.563 163.608 825.799 163.608 Q828.253 163.608 830.544 163.006 Q832.859 162.404 835.128 161.201 L835.128 165.228 Q832.836 166.201 830.429 166.71 Q828.021 167.219 825.544 167.219 Q819.341 167.219 815.707 163.608 Q812.095 159.997 812.095 153.84 Q812.095 147.474 815.521 143.747 Q818.97 139.997 824.804 139.997 Q830.035 139.997 833.068 143.377 Q836.123 146.733 836.123 152.52 M831.864 151.27 Q831.818 147.775 829.896 145.691 Q827.998 143.608 824.85 143.608 Q821.285 143.608 819.132 145.622 Q817.003 147.636 816.679 151.293 L831.864 151.27 Z" fill="#000000" fill-rule="nonzero" fill-opacity="1" /><path clip-path="url(#clip440)" d="M860.174 144.557 L860.174 130.529 L864.433 130.529 L864.433 166.548 L860.174 166.548 L860.174 162.659 Q858.831 164.974 856.771 166.108 Q854.734 167.219 851.864 167.219 Q847.165 167.219 844.202 163.469 Q841.262 159.719 841.262 153.608 Q841.262 147.497 844.202 143.747 Q847.165 139.997 851.864 139.997 Q854.734 139.997 856.771 141.131 Q858.831 142.242 860.174 144.557 M845.66 153.608 Q845.66 158.307 847.581 160.992 Q849.526 163.654 852.905 163.654 Q856.285 163.654 858.23 160.992 Q860.174 158.307 860.174 153.608 Q860.174 148.909 858.23 146.247 Q856.285 143.562 852.905 143.562 Q849.526 143.562 847.581 146.247 Q845.66 148.909 845.66 153.608 Z" fill="#000000" fill-rule="nonzero" fill-opacity="1" /><path clip-path="url(#clip440)" d="M900.058 153.515 Q894.896 153.515 892.905 154.696 Q890.915 155.877 890.915 158.724 Q890.915 160.992 892.396 162.335 Q893.901 163.654 896.47 163.654 Q900.012 163.654 902.141 161.154 Q904.294 158.631 904.294 154.465 L904.294 153.515 L900.058 153.515 M908.553 151.756 L908.553 166.548 L904.294 166.548 L904.294 162.613 Q902.836 164.974 900.66 166.108 Q898.484 167.219 895.336 167.219 Q891.354 167.219 888.993 164.997 Q886.655 162.752 886.655 159.002 Q886.655 154.627 889.572 152.404 Q892.512 150.182 898.322 150.182 L904.294 150.182 L904.294 149.766 Q904.294 146.826 902.35 145.228 Q900.428 143.608 896.933 143.608 Q894.711 143.608 892.604 144.141 Q890.498 144.673 888.553 145.738 L888.553 141.803 Q890.891 140.9 893.09 140.46 Q895.289 139.997 897.373 139.997 Q902.998 139.997 905.776 142.914 Q908.553 145.83 908.553 151.756 Z" fill="#000000" fill-rule="nonzero" fill-opacity="1" /><path clip-path="url(#clip440)" d="M934.387 153.284 Q934.387 148.654 932.465 146.108 Q930.567 143.562 927.118 143.562 Q923.692 143.562 921.771 146.108 Q919.873 148.654 919.873 153.284 Q919.873 157.89 921.771 160.437 Q923.692 162.983 927.118 162.983 Q930.567 162.983 932.465 160.437 Q934.387 157.89 934.387 153.284 M938.646 163.33 Q938.646 169.951 935.706 173.168 Q932.766 176.409 926.701 176.409 Q924.456 176.409 922.465 176.062 Q920.475 175.738 918.6 175.043 L918.6 170.9 Q920.475 171.918 922.303 172.404 Q924.132 172.89 926.03 172.89 Q930.22 172.89 932.303 170.691 Q934.387 168.515 934.387 164.094 L934.387 161.988 Q933.067 164.279 931.007 165.414 Q928.947 166.548 926.076 166.548 Q921.308 166.548 918.391 162.914 Q915.475 159.279 915.475 153.284 Q915.475 147.266 918.391 143.631 Q921.308 139.997 926.076 139.997 Q928.947 139.997 931.007 141.131 Q933.067 142.266 934.387 144.557 L934.387 140.622 L938.646 140.622 L938.646 163.33 Z" fill="#000000" fill-rule="nonzero" fill-opacity="1" /><path clip-path="url(#clip440)" d="M969.595 152.52 L969.595 154.603 L950.011 154.603 Q950.289 159.002 952.65 161.316 Q955.035 163.608 959.271 163.608 Q961.724 163.608 964.016 163.006 Q966.331 162.404 968.599 161.201 L968.599 165.228 Q966.308 166.201 963.9 166.71 Q961.493 167.219 959.016 167.219 Q952.812 167.219 949.178 163.608 Q945.567 159.997 945.567 153.84 Q945.567 147.474 948.993 143.747 Q952.442 139.997 958.275 139.997 Q963.507 139.997 966.539 143.377 Q969.595 146.733 969.595 152.52 M965.335 151.27 Q965.289 147.775 963.368 145.691 Q961.47 143.608 958.322 143.608 Q954.757 143.608 952.604 145.622 Q950.474 147.636 950.15 151.293 L965.335 151.27 Z" fill="#000000" fill-rule="nonzero" fill-opacity="1" /><path clip-path="url(#clip440)" d="M993.113 141.386 L993.113 145.414 Q991.307 144.488 989.363 144.025 Q987.419 143.562 985.335 143.562 Q982.164 143.562 980.567 144.534 Q978.993 145.506 978.993 147.451 Q978.993 148.932 980.127 149.789 Q981.261 150.622 984.687 151.386 L986.145 151.71 Q990.683 152.682 992.581 154.465 Q994.502 156.224 994.502 159.395 Q994.502 163.006 991.632 165.113 Q988.784 167.219 983.784 167.219 Q981.701 167.219 979.433 166.802 Q977.187 166.409 974.687 165.599 L974.687 161.201 Q977.048 162.427 979.34 163.052 Q981.632 163.654 983.877 163.654 Q986.886 163.654 988.507 162.636 Q990.127 161.594 990.127 159.719 Q990.127 157.983 988.946 157.057 Q987.789 156.131 983.831 155.275 L982.349 154.928 Q978.391 154.094 976.632 152.381 Q974.872 150.645 974.872 147.636 Q974.872 143.978 977.465 141.988 Q980.058 139.997 984.826 139.997 Q987.187 139.997 989.27 140.344 Q991.354 140.691 993.113 141.386 Z" fill="#000000" fill-rule="nonzero" fill-opacity="1" /><path clip-path="url(#clip440)" d="M1000.61 130.576 L1004.32 130.576 Q1007.79 136.039 1009.5 141.27 Q1011.24 146.502 1011.24 151.664 Q1011.24 156.849 1009.5 162.103 Q1007.79 167.358 1004.32 172.798 L1000.61 172.798 Q1003.69 167.497 1005.2 162.265 Q1006.72 157.011 1006.72 151.664 Q1006.72 146.316 1005.2 141.108 Q1003.69 135.9 1000.61 130.576 Z" fill="#000000" fill-rule="nonzero" fill-opacity="1" /><path clip-path="url(#clip440)" d="M343.306 221.844 L483.5 221.844 L483.5 180.372 L343.306 180.372 L343.306 221.844  Z" fill="#e26f46" fill-rule="evenodd" fill-opacity="0.6"/>
<polyline clip-path="url(#clip440)" style="stroke:#e26f46; stroke-linecap:round; stroke-linejoin:round; stroke-width:4; stroke-opacity:0; fill:none" points="343.306,180.372 483.5,180.372 "/>
<path clip-path="url(#clip440)" d="M506.866 183.828 L513.833 183.828 L522.653 207.346 L531.518 183.828 L538.486 183.828 L538.486 218.388 L533.926 218.388 L533.926 188.041 L525.014 211.744 L520.315 211.744 L511.403 188.041 L511.403 218.388 L506.866 218.388 L506.866 183.828 Z" fill="#000000" fill-rule="nonzero" fill-opacity="1" /><path clip-path="url(#clip440)" d="M557.629 195.448 Q554.203 195.448 552.213 198.133 Q550.222 200.795 550.222 205.448 Q550.222 210.101 552.189 212.786 Q554.18 215.448 557.629 215.448 Q561.032 215.448 563.023 212.763 Q565.013 210.078 565.013 205.448 Q565.013 200.842 563.023 198.156 Q561.032 195.448 557.629 195.448 M557.629 191.837 Q563.185 191.837 566.356 195.448 Q569.527 199.059 569.527 205.448 Q569.527 211.814 566.356 215.448 Q563.185 219.059 557.629 219.059 Q552.051 219.059 548.879 215.448 Q545.731 211.814 545.731 205.448 Q545.731 199.059 548.879 195.448 Q552.051 191.837 557.629 191.837 Z" fill="#000000" fill-rule="nonzero" fill-opacity="1" /><path clip-path="url(#clip440)" d="M593.648 196.397 L593.648 182.369 L597.907 182.369 L597.907 218.388 L593.648 218.388 L593.648 214.499 Q592.305 216.814 590.245 217.948 Q588.208 219.059 585.337 219.059 Q580.638 219.059 577.675 215.309 Q574.736 211.559 574.736 205.448 Q574.736 199.337 577.675 195.587 Q580.638 191.837 585.337 191.837 Q588.208 191.837 590.245 192.971 Q592.305 194.082 593.648 196.397 M579.134 205.448 Q579.134 210.147 581.055 212.832 Q583 215.494 586.379 215.494 Q589.759 215.494 591.703 212.832 Q593.648 210.147 593.648 205.448 Q593.648 200.749 591.703 198.087 Q589.759 195.402 586.379 195.402 Q583 195.402 581.055 198.087 Q579.134 200.749 579.134 205.448 Z" fill="#000000" fill-rule="nonzero" fill-opacity="1" /><path clip-path="url(#clip440)" d="M628.856 204.36 L628.856 206.443 L609.273 206.443 Q609.55 210.842 611.911 213.156 Q614.296 215.448 618.532 215.448 Q620.985 215.448 623.277 214.846 Q625.592 214.244 627.86 213.041 L627.86 217.068 Q625.569 218.041 623.161 218.55 Q620.754 219.059 618.277 219.059 Q612.073 219.059 608.439 215.448 Q604.828 211.837 604.828 205.68 Q604.828 199.314 608.254 195.587 Q611.703 191.837 617.536 191.837 Q622.768 191.837 625.8 195.217 Q628.856 198.573 628.856 204.36 M624.597 203.11 Q624.55 199.615 622.629 197.531 Q620.731 195.448 617.583 195.448 Q614.018 195.448 611.865 197.462 Q609.735 199.476 609.411 203.133 L624.597 203.11 Z" fill="#000000" fill-rule="nonzero" fill-opacity="1" /><path clip-path="url(#clip440)" d="M635.846 182.369 L640.106 182.369 L640.106 218.388 L635.846 218.388 L635.846 182.369 Z" fill="#000000" fill-rule="nonzero" fill-opacity="1" /><path clip-path="url(#clip440)" d="M674.318 182.416 Q671.217 187.74 669.712 192.948 Q668.207 198.156 668.207 203.504 Q668.207 208.851 669.712 214.105 Q671.24 219.337 674.318 224.638 L670.615 224.638 Q667.143 219.198 665.406 213.943 Q663.694 208.689 663.694 203.504 Q663.694 198.342 665.406 193.11 Q667.119 187.879 670.615 182.416 L674.318 182.416 Z" fill="#000000" fill-rule="nonzero" fill-opacity="1" /><path clip-path="url(#clip440)" d="M693.763 199.244 Q690.615 199.244 688.763 201.397 Q686.934 203.55 686.934 207.3 Q686.934 211.027 688.763 213.203 Q690.615 215.355 693.763 215.355 Q696.911 215.355 698.74 213.203 Q700.591 211.027 700.591 207.3 Q700.591 203.55 698.74 201.397 Q696.911 199.244 693.763 199.244 M703.045 184.592 L703.045 188.851 Q701.286 188.018 699.48 187.578 Q697.698 187.138 695.939 187.138 Q691.309 187.138 688.855 190.263 Q686.425 193.388 686.078 199.707 Q687.443 197.693 689.504 196.629 Q691.564 195.541 694.041 195.541 Q699.249 195.541 702.258 198.712 Q705.291 201.86 705.291 207.3 Q705.291 212.624 702.142 215.842 Q698.994 219.059 693.763 219.059 Q687.767 219.059 684.596 214.476 Q681.425 209.869 681.425 201.143 Q681.425 192.948 685.314 188.087 Q689.203 183.203 695.754 183.203 Q697.513 183.203 699.295 183.55 Q701.101 183.897 703.045 184.592 Z" fill="#000000" fill-rule="nonzero" fill-opacity="1" /><path clip-path="url(#clip440)" d="M713.392 183.828 L731.749 183.828 L731.749 187.763 L717.675 187.763 L717.675 196.235 Q718.693 195.888 719.712 195.726 Q720.73 195.541 721.749 195.541 Q727.536 195.541 730.915 198.712 Q734.295 201.883 734.295 207.3 Q734.295 212.879 730.823 215.98 Q727.351 219.059 721.031 219.059 Q718.855 219.059 716.587 218.689 Q714.341 218.318 711.934 217.578 L711.934 212.879 Q714.017 214.013 716.24 214.568 Q718.462 215.124 720.939 215.124 Q724.943 215.124 727.281 213.017 Q729.619 210.911 729.619 207.3 Q729.619 203.689 727.281 201.582 Q724.943 199.476 720.939 199.476 Q719.064 199.476 717.189 199.893 Q715.337 200.309 713.392 201.189 L713.392 183.828 Z" fill="#000000" fill-rule="nonzero" fill-opacity="1" /><path clip-path="url(#clip440)" d="M743.508 212.508 L748.392 212.508 L748.392 218.388 L743.508 218.388 L743.508 212.508 Z" fill="#000000" fill-rule="nonzero" fill-opacity="1" /><path clip-path="url(#clip440)" d="M768.577 201.976 Q765.244 201.976 763.323 203.758 Q761.424 205.541 761.424 208.666 Q761.424 211.791 763.323 213.573 Q765.244 215.355 768.577 215.355 Q771.911 215.355 773.832 213.573 Q775.753 211.767 775.753 208.666 Q775.753 205.541 773.832 203.758 Q771.934 201.976 768.577 201.976 M763.901 199.985 Q760.892 199.244 759.202 197.184 Q757.536 195.124 757.536 192.161 Q757.536 188.018 760.475 185.61 Q763.438 183.203 768.577 183.203 Q773.739 183.203 776.679 185.61 Q779.619 188.018 779.619 192.161 Q779.619 195.124 777.929 197.184 Q776.262 199.244 773.276 199.985 Q776.656 200.772 778.531 203.064 Q780.429 205.355 780.429 208.666 Q780.429 213.689 777.35 216.374 Q774.295 219.059 768.577 219.059 Q762.86 219.059 759.781 216.374 Q756.725 213.689 756.725 208.666 Q756.725 205.355 758.624 203.064 Q760.522 200.772 763.901 199.985 M762.188 192.601 Q762.188 195.286 763.855 196.791 Q765.545 198.295 768.577 198.295 Q771.586 198.295 773.276 196.791 Q774.989 195.286 774.989 192.601 Q774.989 189.916 773.276 188.411 Q771.586 186.907 768.577 186.907 Q765.545 186.907 763.855 188.411 Q762.188 189.916 762.188 192.601 Z" fill="#000000" fill-rule="nonzero" fill-opacity="1" /><path clip-path="url(#clip440)" d="M789.549 214.453 L797.188 214.453 L797.188 188.087 L788.878 189.754 L788.878 185.494 L797.142 183.828 L801.818 183.828 L801.818 214.453 L809.457 214.453 L809.457 218.388 L789.549 218.388 L789.549 214.453 Z" fill="#000000" fill-rule="nonzero" fill-opacity="1" /><path clip-path="url(#clip440)" d="M817.72 183.828 L839.943 183.828 L839.943 185.819 L827.396 218.388 L822.512 218.388 L834.318 187.763 L817.72 187.763 L817.72 183.828 Z" fill="#000000" fill-rule="nonzero" fill-opacity="1" /><path clip-path="url(#clip440)" d="M880.868 188.666 L880.868 201.559 L893.762 201.559 L893.762 205.494 L880.868 205.494 L880.868 218.388 L876.979 218.388 L876.979 205.494 L864.086 205.494 L864.086 201.559 L876.979 201.559 L876.979 188.666 L880.868 188.666 Z" fill="#000000" fill-rule="nonzero" fill-opacity="1" /><path clip-path="url(#clip440)" d="M913.854 186.907 Q910.243 186.907 908.414 190.471 Q906.609 194.013 906.609 201.143 Q906.609 208.249 908.414 211.814 Q910.243 215.355 913.854 215.355 Q917.488 215.355 919.294 211.814 Q921.123 208.249 921.123 201.143 Q921.123 194.013 919.294 190.471 Q917.488 186.907 913.854 186.907 M913.854 183.203 Q919.664 183.203 922.72 187.809 Q925.799 192.393 925.799 201.143 Q925.799 209.869 922.72 214.476 Q919.664 219.059 913.854 219.059 Q908.044 219.059 904.965 214.476 Q901.91 209.869 901.91 201.143 Q901.91 192.393 904.965 187.809 Q908.044 183.203 913.854 183.203 Z" fill="#000000" fill-rule="nonzero" fill-opacity="1" /><path clip-path="url(#clip440)" d="M934.016 212.508 L938.9 212.508 L938.9 218.388 L934.016 218.388 L934.016 212.508 Z" fill="#000000" fill-rule="nonzero" fill-opacity="1" /><path clip-path="url(#clip440)" d="M959.085 186.907 Q955.474 186.907 953.646 190.471 Q951.84 194.013 951.84 201.143 Q951.84 208.249 953.646 211.814 Q955.474 215.355 959.085 215.355 Q962.72 215.355 964.525 211.814 Q966.354 208.249 966.354 201.143 Q966.354 194.013 964.525 190.471 Q962.72 186.907 959.085 186.907 M959.085 183.203 Q964.896 183.203 967.951 187.809 Q971.03 192.393 971.03 201.143 Q971.03 209.869 967.951 214.476 Q964.896 219.059 959.085 219.059 Q953.275 219.059 950.197 214.476 Q947.141 209.869 947.141 201.143 Q947.141 192.393 950.197 187.809 Q953.275 183.203 959.085 183.203 Z" fill="#000000" fill-rule="nonzero" fill-opacity="1" /><path clip-path="url(#clip440)" d="M978.067 183.828 L1000.29 183.828 L1000.29 185.819 L987.743 218.388 L982.858 218.388 L994.664 187.763 L978.067 187.763 L978.067 183.828 Z" fill="#000000" fill-rule="nonzero" fill-opacity="1" /><path clip-path="url(#clip440)" d="M1010.22 214.453 L1017.86 214.453 L1017.86 188.087 L1009.55 189.754 L1009.55 185.494 L1017.81 183.828 L1022.49 183.828 L1022.49 214.453 L1030.13 214.453 L1030.13 218.388 L1010.22 218.388 L1010.22 214.453 Z" fill="#000000" fill-rule="nonzero" fill-opacity="1" /><path clip-path="url(#clip440)" d="M1046.54 183.828 L1050.47 183.828 L1038.44 222.786 L1034.5 222.786 L1046.54 183.828 Z" fill="#000000" fill-rule="nonzero" fill-opacity="1" /><path clip-path="url(#clip440)" d="M1052.79 203.504 L1065.27 203.504 L1065.27 207.3 L1052.79 207.3 L1052.79 203.504 Z" fill="#000000" fill-rule="nonzero" fill-opacity="1" /><path clip-path="url(#clip440)" d="M1082.65 186.907 Q1079.04 186.907 1077.21 190.471 Q1075.4 194.013 1075.4 201.143 Q1075.4 208.249 1077.21 211.814 Q1079.04 215.355 1082.65 215.355 Q1086.28 215.355 1088.09 211.814 Q1089.92 208.249 1089.92 201.143 Q1089.92 194.013 1088.09 190.471 Q1086.28 186.907 1082.65 186.907 M1082.65 183.203 Q1088.46 183.203 1091.52 187.809 Q1094.59 192.393 1094.59 201.143 Q1094.59 209.869 1091.52 214.476 Q1088.46 219.059 1082.65 219.059 Q1076.84 219.059 1073.76 214.476 Q1070.71 209.869 1070.71 201.143 Q1070.71 192.393 1073.76 187.809 Q1076.84 183.203 1082.65 183.203 Z" fill="#000000" fill-rule="nonzero" fill-opacity="1" /><path clip-path="url(#clip440)" d="M1102.81 212.508 L1107.7 212.508 L1107.7 218.388 L1102.81 218.388 L1102.81 212.508 Z" fill="#000000" fill-rule="nonzero" fill-opacity="1" /><path clip-path="url(#clip440)" d="M1118.69 214.453 L1126.33 214.453 L1126.33 188.087 L1118.02 189.754 L1118.02 185.494 L1126.28 183.828 L1130.96 183.828 L1130.96 214.453 L1138.6 214.453 L1138.6 218.388 L1118.69 218.388 L1118.69 214.453 Z" fill="#000000" fill-rule="nonzero" fill-opacity="1" /><path clip-path="url(#clip440)" d="M1158.04 186.907 Q1154.43 186.907 1152.6 190.471 Q1150.8 194.013 1150.8 201.143 Q1150.8 208.249 1152.6 211.814 Q1154.43 215.355 1158.04 215.355 Q1161.68 215.355 1163.48 211.814 Q1165.31 208.249 1165.31 201.143 Q1165.31 194.013 1163.48 190.471 Q1161.68 186.907 1158.04 186.907 M1158.04 183.203 Q1163.85 183.203 1166.91 187.809 Q1169.99 192.393 1169.99 201.143 Q1169.99 209.869 1166.91 214.476 Q1163.85 219.059 1158.04 219.059 Q1152.23 219.059 1149.15 214.476 Q1146.1 209.869 1146.1 201.143 Q1146.1 192.393 1149.15 187.809 Q1152.23 183.203 1158.04 183.203 Z" fill="#000000" fill-rule="nonzero" fill-opacity="1" /><path clip-path="url(#clip440)" d="M1178.25 183.828 L1196.61 183.828 L1196.61 187.763 L1182.53 187.763 L1182.53 196.235 Q1183.55 195.888 1184.57 195.726 Q1185.59 195.541 1186.61 195.541 Q1192.39 195.541 1195.77 198.712 Q1199.15 201.883 1199.15 207.3 Q1199.15 212.879 1195.68 215.98 Q1192.21 219.059 1185.89 219.059 Q1183.71 219.059 1181.45 218.689 Q1179.2 218.318 1176.79 217.578 L1176.79 212.879 Q1178.88 214.013 1181.1 214.568 Q1183.32 215.124 1185.8 215.124 Q1189.8 215.124 1192.14 213.017 Q1194.48 210.911 1194.48 207.3 Q1194.48 203.689 1192.14 201.582 Q1189.8 199.476 1185.8 199.476 Q1183.92 199.476 1182.05 199.893 Q1180.2 200.309 1178.25 201.189 L1178.25 183.828 Z" fill="#000000" fill-rule="nonzero" fill-opacity="1" /><path clip-path="url(#clip440)" d="M1223.02 183.828 L1229.99 183.828 L1238.81 207.346 L1247.67 183.828 L1254.64 183.828 L1254.64 218.388 L1250.08 218.388 L1250.08 188.041 L1241.17 211.744 L1236.47 211.744 L1227.56 188.041 L1227.56 218.388 L1223.02 218.388 L1223.02 183.828 Z" fill="#000000" fill-rule="nonzero" fill-opacity="1" /><path clip-path="url(#clip440)" d="M1275.52 205.355 Q1270.36 205.355 1268.37 206.536 Q1266.38 207.717 1266.38 210.564 Q1266.38 212.832 1267.86 214.175 Q1269.36 215.494 1271.93 215.494 Q1275.47 215.494 1277.6 212.994 Q1279.76 210.471 1279.76 206.305 L1279.76 205.355 L1275.52 205.355 M1284.01 203.596 L1284.01 218.388 L1279.76 218.388 L1279.76 214.453 Q1278.3 216.814 1276.12 217.948 Q1273.94 219.059 1270.8 219.059 Q1266.82 219.059 1264.45 216.837 Q1262.12 214.592 1262.12 210.842 Q1262.12 206.467 1265.03 204.244 Q1267.97 202.022 1273.78 202.022 L1279.76 202.022 L1279.76 201.606 Q1279.76 198.666 1277.81 197.068 Q1275.89 195.448 1272.39 195.448 Q1270.17 195.448 1268.07 195.981 Q1265.96 196.513 1264.01 197.578 L1264.01 193.643 Q1266.35 192.74 1268.55 192.3 Q1270.75 191.837 1272.83 191.837 Q1278.46 191.837 1281.24 194.754 Q1284.01 197.67 1284.01 203.596 Z" fill="#000000" fill-rule="nonzero" fill-opacity="1" /><path clip-path="url(#clip440)" d="M1292.12 182.416 L1295.82 182.416 Q1299.29 187.879 1301 193.11 Q1302.74 198.342 1302.74 203.504 Q1302.74 208.689 1301 213.943 Q1299.29 219.198 1295.82 224.638 L1292.12 224.638 Q1295.19 219.337 1296.7 214.105 Q1298.23 208.851 1298.23 203.504 Q1298.23 198.156 1296.7 192.948 Q1295.19 187.74 1292.12 182.416 Z" fill="#000000" fill-rule="nonzero" fill-opacity="1" /></svg>
