<?xml version="1.0" encoding="utf-8"?>
<svg xmlns="http://www.w3.org/2000/svg" xmlns:xlink="http://www.w3.org/1999/xlink" width="600" height="400" viewBox="0 0 2400 1600">
<defs>
  <clipPath id="clip480">
    <rect x="0" y="0" width="2400" height="1600"/>
  </clipPath>
</defs>
<path clip-path="url(#clip480)" d="M0 1600 L2400 1600 L2400 8.88178e-14 L0 8.88178e-14  Z" fill="#ffffff" fill-rule="evenodd" fill-opacity="1"/>
<defs>
  <clipPath id="clip481">
    <rect x="480" y="0" width="1681" height="1600"/>
  </clipPath>
</defs>
<path clip-path="url(#clip480)" d="M247.459 1423.18 L2352.76 1423.18 L2352.76 47.2441 L247.459 47.2441  Z" fill="#ffffff" fill-rule="evenodd" fill-opacity="1"/>
<defs>
  <clipPath id="clip482">
    <rect x="247" y="47" width="2106" height="1377"/>
  </clipPath>
</defs>
<polyline clip-path="url(#clip482)" style="stroke:#000000; stroke-linecap:round; stroke-linejoin:round; stroke-width:2; stroke-opacity:0.1; fill:none" points="555.244,1423.18 555.244,47.2441 "/>
<polyline clip-path="url(#clip482)" style="stroke:#000000; stroke-linecap:round; stroke-linejoin:round; stroke-width:2; stroke-opacity:0.1; fill:none" points="989.452,1423.18 989.452,47.2441 "/>
<polyline clip-path="url(#clip482)" style="stroke:#000000; stroke-linecap:round; stroke-linejoin:round; stroke-width:2; stroke-opacity:0.1; fill:none" points="1423.66,1423.18 1423.66,47.2441 "/>
<polyline clip-path="url(#clip482)" style="stroke:#000000; stroke-linecap:round; stroke-linejoin:round; stroke-width:2; stroke-opacity:0.1; fill:none" points="1857.87,1423.18 1857.87,47.2441 "/>
<polyline clip-path="url(#clip482)" style="stroke:#000000; stroke-linecap:round; stroke-linejoin:round; stroke-width:2; stroke-opacity:0.1; fill:none" points="2292.08,1423.18 2292.08,47.2441 "/>
<polyline clip-path="url(#clip482)" style="stroke:#000000; stroke-linecap:round; stroke-linejoin:round; stroke-width:2; stroke-opacity:0.1; fill:none" points="555.244,1423.18 555.244,47.2441 "/>
<polyline clip-path="url(#clip482)" style="stroke:#000000; stroke-linecap:round; stroke-linejoin:round; stroke-width:2; stroke-opacity:0.1; fill:none" points="989.452,1423.18 989.452,47.2441 "/>
<polyline clip-path="url(#clip482)" style="stroke:#000000; stroke-linecap:round; stroke-linejoin:round; stroke-width:2; stroke-opacity:0.1; fill:none" points="1423.66,1423.18 1423.66,47.2441 "/>
<polyline clip-path="url(#clip482)" style="stroke:#000000; stroke-linecap:round; stroke-linejoin:round; stroke-width:2; stroke-opacity:0.1; fill:none" points="1857.87,1423.18 1857.87,47.2441 "/>
<polyline clip-path="url(#clip482)" style="stroke:#000000; stroke-linecap:round; stroke-linejoin:round; stroke-width:2; stroke-opacity:0.1; fill:none" points="2292.08,1423.18 2292.08,47.2441 "/>
<polyline clip-path="url(#clip482)" style="stroke:#000000; stroke-linecap:round; stroke-linejoin:round; stroke-width:2; stroke-opacity:0.1; fill:none" points="247.459,1384.24 2352.76,1384.24 "/>
<polyline clip-path="url(#clip482)" style="stroke:#000000; stroke-linecap:round; stroke-linejoin:round; stroke-width:2; stroke-opacity:0.1; fill:none" points="247.459,1153.01 2352.76,1153.01 "/>
<polyline clip-path="url(#clip482)" style="stroke:#000000; stroke-linecap:round; stroke-linejoin:round; stroke-width:2; stroke-opacity:0.1; fill:none" points="247.459,921.775 2352.76,921.775 "/>
<polyline clip-path="url(#clip482)" style="stroke:#000000; stroke-linecap:round; stroke-linejoin:round; stroke-width:2; stroke-opacity:0.1; fill:none" points="247.459,690.543 2352.76,690.543 "/>
<polyline clip-path="url(#clip482)" style="stroke:#000000; stroke-linecap:round; stroke-linejoin:round; stroke-width:2; stroke-opacity:0.1; fill:none" points="247.459,459.311 2352.76,459.311 "/>
<polyline clip-path="url(#clip482)" style="stroke:#000000; stroke-linecap:round; stroke-linejoin:round; stroke-width:2; stroke-opacity:0.1; fill:none" points="247.459,228.079 2352.76,228.079 "/>
<polyline clip-path="url(#clip482)" style="stroke:#000000; stroke-linecap:round; stroke-linejoin:round; stroke-width:2; stroke-opacity:0.1; fill:none" points="247.459,1384.24 2352.76,1384.24 "/>
<polyline clip-path="url(#clip482)" style="stroke:#000000; stroke-linecap:round; stroke-linejoin:round; stroke-width:2; stroke-opacity:0.1; fill:none" points="247.459,1153.01 2352.76,1153.01 "/>
<polyline clip-path="url(#clip482)" style="stroke:#000000; stroke-linecap:round; stroke-linejoin:round; stroke-width:2; stroke-opacity:0.1; fill:none" points="247.459,921.775 2352.76,921.775 "/>
<polyline clip-path="url(#clip482)" style="stroke:#000000; stroke-linecap:round; stroke-linejoin:round; stroke-width:2; stroke-opacity:0.1; fill:none" points="247.459,690.543 2352.76,690.543 "/>
<polyline clip-path="url(#clip482)" style="stroke:#000000; stroke-linecap:round; stroke-linejoin:round; stroke-width:2; stroke-opacity:0.1; fill:none" points="247.459,459.311 2352.76,459.311 "/>
<polyline clip-path="url(#clip482)" style="stroke:#000000; stroke-linecap:round; stroke-linejoin:round; stroke-width:2; stroke-opacity:0.1; fill:none" points="247.459,228.079 2352.76,228.079 "/>
<polyline clip-path="url(#clip480)" style="stroke:#000000; stroke-linecap:round; stroke-linejoin:round; stroke-width:4; stroke-opacity:1; fill:none" points="247.459,1423.18 2352.76,1423.18 "/>
<polyline clip-path="url(#clip480)" style="stroke:#000000; stroke-linecap:round; stroke-linejoin:round; stroke-width:4; stroke-opacity:1; fill:none" points="247.459,47.2441 2352.76,47.2441 "/>
<polyline clip-path="url(#clip480)" style="stroke:#000000; stroke-linecap:round; stroke-linejoin:round; stroke-width:4; stroke-opacity:1; fill:none" points="555.244,1423.18 555.244,1404.28 "/>
<polyline clip-path="url(#clip480)" style="stroke:#000000; stroke-linecap:round; stroke-linejoin:round; stroke-width:4; stroke-opacity:1; fill:none" points="989.452,1423.18 989.452,1404.28 "/>
<polyline clip-path="url(#clip480)" style="stroke:#000000; stroke-linecap:round; stroke-linejoin:round; stroke-width:4; stroke-opacity:1; fill:none" points="1423.66,1423.18 1423.66,1404.28 "/>
<polyline clip-path="url(#clip480)" style="stroke:#000000; stroke-linecap:round; stroke-linejoin:round; stroke-width:4; stroke-opacity:1; fill:none" points="1857.87,1423.18 1857.87,1404.28 "/>
<polyline clip-path="url(#clip480)" style="stroke:#000000; stroke-linecap:round; stroke-linejoin:round; stroke-width:4; stroke-opacity:1; fill:none" points="2292.08,1423.18 2292.08,1404.28 "/>
<polyline clip-path="url(#clip480)" style="stroke:#000000; stroke-linecap:round; stroke-linejoin:round; stroke-width:4; stroke-opacity:1; fill:none" points="555.244,47.2441 555.244,66.1417 "/>
<polyline clip-path="url(#clip480)" style="stroke:#000000; stroke-linecap:round; stroke-linejoin:round; stroke-width:4; stroke-opacity:1; fill:none" points="989.452,47.2441 989.452,66.1417 "/>
<polyline clip-path="url(#clip480)" style="stroke:#000000; stroke-linecap:round; stroke-linejoin:round; stroke-width:4; stroke-opacity:1; fill:none" points="1423.66,47.2441 1423.66,66.1417 "/>
<polyline clip-path="url(#clip480)" style="stroke:#000000; stroke-linecap:round; stroke-linejoin:round; stroke-width:4; stroke-opacity:1; fill:none" points="1857.87,47.2441 1857.87,66.1417 "/>
<polyline clip-path="url(#clip480)" style="stroke:#000000; stroke-linecap:round; stroke-linejoin:round; stroke-width:4; stroke-opacity:1; fill:none" points="2292.08,47.2441 2292.08,66.1417 "/>
<path clip-path="url(#clip480)" d="M518.034 1466.44 Q514.886 1466.44 513.034 1468.59 Q511.205 1470.74 511.205 1474.49 Q511.205 1478.22 513.034 1480.39 Q514.886 1482.55 518.034 1482.55 Q521.182 1482.55 523.011 1480.39 Q524.863 1478.22 524.863 1474.49 Q524.863 1470.74 523.011 1468.59 Q521.182 1466.44 518.034 1466.44 M527.316 1451.78 L527.316 1456.04 Q525.557 1455.21 523.751 1454.77 Q521.969 1454.33 520.21 1454.33 Q515.58 1454.33 513.127 1457.45 Q510.696 1460.58 510.349 1466.9 Q511.714 1464.89 513.775 1463.82 Q515.835 1462.73 518.312 1462.73 Q523.52 1462.73 526.529 1465.9 Q529.562 1469.05 529.562 1474.49 Q529.562 1479.82 526.413 1483.03 Q523.265 1486.25 518.034 1486.25 Q512.039 1486.25 508.867 1481.67 Q505.696 1477.06 505.696 1468.33 Q505.696 1460.14 509.585 1455.28 Q513.474 1450.39 520.025 1450.39 Q521.784 1450.39 523.566 1450.74 Q525.372 1451.09 527.316 1451.78 Z" fill="#000000" fill-rule="nonzero" fill-opacity="1" /><path clip-path="url(#clip480)" d="M550.464 1455.09 L538.659 1473.54 L550.464 1473.54 L550.464 1455.09 M549.237 1451.02 L555.117 1451.02 L555.117 1473.54 L560.048 1473.54 L560.048 1477.43 L555.117 1477.43 L555.117 1485.58 L550.464 1485.58 L550.464 1477.43 L534.863 1477.43 L534.863 1472.92 L549.237 1451.02 Z" fill="#000000" fill-rule="nonzero" fill-opacity="1" /><path clip-path="url(#clip480)" d="M567.779 1479.7 L572.663 1479.7 L572.663 1485.58 L567.779 1485.58 L567.779 1479.7 Z" fill="#000000" fill-rule="nonzero" fill-opacity="1" /><path clip-path="url(#clip480)" d="M592.848 1454.1 Q589.237 1454.1 587.409 1457.66 Q585.603 1461.2 585.603 1468.33 Q585.603 1475.44 587.409 1479.01 Q589.237 1482.55 592.848 1482.55 Q596.483 1482.55 598.288 1479.01 Q600.117 1475.44 600.117 1468.33 Q600.117 1461.2 598.288 1457.66 Q596.483 1454.1 592.848 1454.1 M592.848 1450.39 Q598.658 1450.39 601.714 1455 Q604.793 1459.58 604.793 1468.33 Q604.793 1477.06 601.714 1481.67 Q598.658 1486.25 592.848 1486.25 Q587.038 1486.25 583.959 1481.67 Q580.904 1477.06 580.904 1468.33 Q580.904 1459.58 583.959 1455 Q587.038 1450.39 592.848 1450.39 Z" fill="#000000" fill-rule="nonzero" fill-opacity="1" /><path clip-path="url(#clip480)" d="M952.74 1466.44 Q949.591 1466.44 947.74 1468.59 Q945.911 1470.74 945.911 1474.49 Q945.911 1478.22 947.74 1480.39 Q949.591 1482.55 952.74 1482.55 Q955.888 1482.55 957.716 1480.39 Q959.568 1478.22 959.568 1474.49 Q959.568 1470.74 957.716 1468.59 Q955.888 1466.44 952.74 1466.44 M962.022 1451.78 L962.022 1456.04 Q960.263 1455.21 958.457 1454.77 Q956.675 1454.33 954.915 1454.33 Q950.286 1454.33 947.832 1457.45 Q945.402 1460.58 945.054 1466.9 Q946.42 1464.89 948.48 1463.82 Q950.541 1462.73 953.017 1462.73 Q958.226 1462.73 961.235 1465.9 Q964.267 1469.05 964.267 1474.49 Q964.267 1479.82 961.119 1483.03 Q957.971 1486.25 952.74 1486.25 Q946.744 1486.25 943.573 1481.67 Q940.402 1477.06 940.402 1468.33 Q940.402 1460.14 944.291 1455.28 Q948.179 1450.39 954.73 1450.39 Q956.49 1450.39 958.272 1450.74 Q960.077 1451.09 962.022 1451.78 Z" fill="#000000" fill-rule="nonzero" fill-opacity="1" /><path clip-path="url(#clip480)" d="M985.17 1455.09 L973.364 1473.54 L985.17 1473.54 L985.17 1455.09 M983.943 1451.02 L989.823 1451.02 L989.823 1473.54 L994.753 1473.54 L994.753 1477.43 L989.823 1477.43 L989.823 1485.58 L985.17 1485.58 L985.17 1477.43 L969.568 1477.43 L969.568 1472.92 L983.943 1451.02 Z" fill="#000000" fill-rule="nonzero" fill-opacity="1" /><path clip-path="url(#clip480)" d="M1002.48 1479.7 L1007.37 1479.7 L1007.37 1485.58 L1002.48 1485.58 L1002.48 1479.7 Z" fill="#000000" fill-rule="nonzero" fill-opacity="1" /><path clip-path="url(#clip480)" d="M1017.6 1451.02 L1035.96 1451.02 L1035.96 1454.96 L1021.88 1454.96 L1021.88 1463.43 Q1022.9 1463.08 1023.92 1462.92 Q1024.94 1462.73 1025.96 1462.73 Q1031.74 1462.73 1035.12 1465.9 Q1038.5 1469.08 1038.5 1474.49 Q1038.5 1480.07 1035.03 1483.17 Q1031.56 1486.25 1025.24 1486.25 Q1023.06 1486.25 1020.79 1485.88 Q1018.55 1485.51 1016.14 1484.77 L1016.14 1480.07 Q1018.23 1481.2 1020.45 1481.76 Q1022.67 1482.32 1025.15 1482.32 Q1029.15 1482.32 1031.49 1480.21 Q1033.83 1478.1 1033.83 1474.49 Q1033.83 1470.88 1031.49 1468.77 Q1029.15 1466.67 1025.15 1466.67 Q1023.27 1466.67 1021.4 1467.08 Q1019.54 1467.5 1017.6 1468.38 L1017.6 1451.02 Z" fill="#000000" fill-rule="nonzero" fill-opacity="1" /><path clip-path="url(#clip480)" d="M1386.45 1466.44 Q1383.3 1466.44 1381.45 1468.59 Q1379.62 1470.74 1379.62 1474.49 Q1379.62 1478.22 1381.45 1480.39 Q1383.3 1482.55 1386.45 1482.55 Q1389.6 1482.55 1391.43 1480.39 Q1393.28 1478.22 1393.28 1474.49 Q1393.28 1470.74 1391.43 1468.59 Q1389.6 1466.44 1386.45 1466.44 M1395.73 1451.78 L1395.73 1456.04 Q1393.97 1455.21 1392.17 1454.77 Q1390.39 1454.33 1388.63 1454.33 Q1384 1454.33 1381.54 1457.45 Q1379.11 1460.58 1378.76 1466.9 Q1380.13 1464.89 1382.19 1463.82 Q1384.25 1462.73 1386.73 1462.73 Q1391.94 1462.73 1394.95 1465.9 Q1397.98 1469.05 1397.98 1474.49 Q1397.98 1479.82 1394.83 1483.03 Q1391.68 1486.25 1386.45 1486.25 Q1380.45 1486.25 1377.28 1481.67 Q1374.11 1477.06 1374.11 1468.33 Q1374.11 1460.14 1378 1455.28 Q1381.89 1450.39 1388.44 1450.39 Q1390.2 1450.39 1391.98 1450.74 Q1393.79 1451.09 1395.73 1451.78 Z" fill="#000000" fill-rule="nonzero" fill-opacity="1" /><path clip-path="url(#clip480)" d="M1406.08 1451.02 L1424.44 1451.02 L1424.44 1454.96 L1410.36 1454.96 L1410.36 1463.43 Q1411.38 1463.08 1412.4 1462.92 Q1413.42 1462.73 1414.44 1462.73 Q1420.22 1462.73 1423.6 1465.9 Q1426.98 1469.08 1426.98 1474.49 Q1426.98 1480.07 1423.51 1483.17 Q1420.04 1486.25 1413.72 1486.25 Q1411.54 1486.25 1409.27 1485.88 Q1407.03 1485.51 1404.62 1484.77 L1404.62 1480.07 Q1406.7 1481.2 1408.93 1481.76 Q1411.15 1482.32 1413.63 1482.32 Q1417.63 1482.32 1419.97 1480.21 Q1422.31 1478.1 1422.31 1474.49 Q1422.31 1470.88 1419.97 1468.77 Q1417.63 1466.67 1413.63 1466.67 Q1411.75 1466.67 1409.88 1467.08 Q1408.02 1467.5 1406.08 1468.38 L1406.08 1451.02 Z" fill="#000000" fill-rule="nonzero" fill-opacity="1" /><path clip-path="url(#clip480)" d="M1436.19 1479.7 L1441.08 1479.7 L1441.08 1485.58 L1436.19 1485.58 L1436.19 1479.7 Z" fill="#000000" fill-rule="nonzero" fill-opacity="1" /><path clip-path="url(#clip480)" d="M1461.26 1454.1 Q1457.65 1454.1 1455.82 1457.66 Q1454.02 1461.2 1454.02 1468.33 Q1454.02 1475.44 1455.82 1479.01 Q1457.65 1482.55 1461.26 1482.55 Q1464.9 1482.55 1466.7 1479.01 Q1468.53 1475.44 1468.53 1468.33 Q1468.53 1461.2 1466.7 1457.66 Q1464.9 1454.1 1461.26 1454.1 M1461.26 1450.39 Q1467.07 1450.39 1470.13 1455 Q1473.21 1459.58 1473.21 1468.33 Q1473.21 1477.06 1470.13 1481.67 Q1467.07 1486.25 1461.26 1486.25 Q1455.45 1486.25 1452.38 1481.67 Q1449.32 1477.06 1449.32 1468.33 Q1449.32 1459.58 1452.38 1455 Q1455.45 1450.39 1461.26 1450.39 Z" fill="#000000" fill-rule="nonzero" fill-opacity="1" /><path clip-path="url(#clip480)" d="M1821.16 1466.44 Q1818.01 1466.44 1816.16 1468.59 Q1814.33 1470.74 1814.33 1474.49 Q1814.33 1478.22 1816.16 1480.39 Q1818.01 1482.55 1821.16 1482.55 Q1824.3 1482.55 1826.13 1480.39 Q1827.98 1478.22 1827.98 1474.49 Q1827.98 1470.74 1826.13 1468.59 Q1824.3 1466.44 1821.16 1466.44 M1830.44 1451.78 L1830.44 1456.04 Q1828.68 1455.21 1826.87 1454.77 Q1825.09 1454.33 1823.33 1454.33 Q1818.7 1454.33 1816.25 1457.45 Q1813.82 1460.58 1813.47 1466.9 Q1814.84 1464.89 1816.9 1463.82 Q1818.96 1462.73 1821.43 1462.73 Q1826.64 1462.73 1829.65 1465.9 Q1832.68 1469.05 1832.68 1474.49 Q1832.68 1479.82 1829.54 1483.03 Q1826.39 1486.25 1821.16 1486.25 Q1815.16 1486.25 1811.99 1481.67 Q1808.82 1477.06 1808.82 1468.33 Q1808.82 1460.14 1812.71 1455.28 Q1816.6 1450.39 1823.15 1450.39 Q1824.91 1450.39 1826.69 1450.74 Q1828.49 1451.09 1830.44 1451.78 Z" fill="#000000" fill-rule="nonzero" fill-opacity="1" /><path clip-path="url(#clip480)" d="M1840.79 1451.02 L1859.14 1451.02 L1859.14 1454.96 L1845.07 1454.96 L1845.07 1463.43 Q1846.09 1463.08 1847.1 1462.92 Q1848.12 1462.73 1849.14 1462.73 Q1854.93 1462.73 1858.31 1465.9 Q1861.69 1469.08 1861.69 1474.49 Q1861.69 1480.07 1858.22 1483.17 Q1854.74 1486.25 1848.42 1486.25 Q1846.25 1486.25 1843.98 1485.88 Q1841.73 1485.51 1839.33 1484.77 L1839.33 1480.07 Q1841.41 1481.2 1843.63 1481.76 Q1845.85 1482.32 1848.33 1482.32 Q1852.34 1482.32 1854.67 1480.21 Q1857.01 1478.1 1857.01 1474.49 Q1857.01 1470.88 1854.67 1468.77 Q1852.34 1466.67 1848.33 1466.67 Q1846.46 1466.67 1844.58 1467.08 Q1842.73 1467.5 1840.79 1468.38 L1840.79 1451.02 Z" fill="#000000" fill-rule="nonzero" fill-opacity="1" /><path clip-path="url(#clip480)" d="M1870.9 1479.7 L1875.78 1479.7 L1875.78 1485.58 L1870.9 1485.58 L1870.9 1479.7 Z" fill="#000000" fill-rule="nonzero" fill-opacity="1" /><path clip-path="url(#clip480)" d="M1886.02 1451.02 L1904.37 1451.02 L1904.37 1454.96 L1890.3 1454.96 L1890.3 1463.43 Q1891.32 1463.08 1892.34 1462.92 Q1893.35 1462.73 1894.37 1462.73 Q1900.16 1462.73 1903.54 1465.9 Q1906.92 1469.08 1906.92 1474.49 Q1906.92 1480.07 1903.45 1483.17 Q1899.97 1486.25 1893.66 1486.25 Q1891.48 1486.25 1889.21 1485.88 Q1886.97 1485.51 1884.56 1484.77 L1884.56 1480.07 Q1886.64 1481.2 1888.86 1481.76 Q1891.09 1482.32 1893.56 1482.32 Q1897.57 1482.32 1899.91 1480.21 Q1902.24 1478.1 1902.24 1474.49 Q1902.24 1470.88 1899.91 1468.77 Q1897.57 1466.67 1893.56 1466.67 Q1891.69 1466.67 1889.81 1467.08 Q1887.96 1467.5 1886.02 1468.38 L1886.02 1451.02 Z" fill="#000000" fill-rule="nonzero" fill-opacity="1" /><path clip-path="url(#clip480)" d="M2254.87 1466.44 Q2251.72 1466.44 2249.87 1468.59 Q2248.04 1470.74 2248.04 1474.49 Q2248.04 1478.22 2249.87 1480.39 Q2251.72 1482.55 2254.87 1482.55 Q2258.01 1482.55 2259.84 1480.39 Q2261.69 1478.22 2261.69 1474.49 Q2261.69 1470.74 2259.84 1468.59 Q2258.01 1466.44 2254.87 1466.44 M2264.15 1451.78 L2264.15 1456.04 Q2262.39 1455.21 2260.58 1454.77 Q2258.8 1454.33 2257.04 1454.33 Q2252.41 1454.33 2249.96 1457.45 Q2247.53 1460.58 2247.18 1466.9 Q2248.55 1464.89 2250.61 1463.82 Q2252.67 1462.73 2255.14 1462.73 Q2260.35 1462.73 2263.36 1465.9 Q2266.39 1469.05 2266.39 1474.49 Q2266.39 1479.82 2263.25 1483.03 Q2260.1 1486.25 2254.87 1486.25 Q2248.87 1486.25 2245.7 1481.67 Q2242.53 1477.06 2242.53 1468.33 Q2242.53 1460.14 2246.42 1455.28 Q2250.31 1450.39 2256.86 1450.39 Q2258.62 1450.39 2260.4 1450.74 Q2262.2 1451.09 2264.15 1451.78 Z" fill="#000000" fill-rule="nonzero" fill-opacity="1" /><path clip-path="url(#clip480)" d="M2285.03 1466.44 Q2281.88 1466.44 2280.03 1468.59 Q2278.2 1470.74 2278.2 1474.49 Q2278.2 1478.22 2280.03 1480.39 Q2281.88 1482.55 2285.03 1482.55 Q2288.18 1482.55 2290 1480.39 Q2291.86 1478.22 2291.86 1474.49 Q2291.86 1470.74 2290 1468.59 Q2288.18 1466.44 2285.03 1466.44 M2294.31 1451.78 L2294.31 1456.04 Q2292.55 1455.21 2290.75 1454.77 Q2288.96 1454.33 2287.2 1454.33 Q2282.57 1454.33 2280.12 1457.45 Q2277.69 1460.58 2277.34 1466.9 Q2278.71 1464.89 2280.77 1463.82 Q2282.83 1462.73 2285.31 1462.73 Q2290.51 1462.73 2293.52 1465.9 Q2296.56 1469.05 2296.56 1474.49 Q2296.56 1479.82 2293.41 1483.03 Q2290.26 1486.25 2285.03 1486.25 Q2279.03 1486.25 2275.86 1481.67 Q2272.69 1477.06 2272.69 1468.33 Q2272.69 1460.14 2276.58 1455.28 Q2280.47 1450.39 2287.02 1450.39 Q2288.78 1450.39 2290.56 1450.74 Q2292.37 1451.09 2294.31 1451.78 Z" fill="#000000" fill-rule="nonzero" fill-opacity="1" /><path clip-path="url(#clip480)" d="M2304.61 1479.7 L2309.5 1479.7 L2309.5 1485.58 L2304.61 1485.58 L2304.61 1479.7 Z" fill="#000000" fill-rule="nonzero" fill-opacity="1" /><path clip-path="url(#clip480)" d="M2329.68 1454.1 Q2326.07 1454.1 2324.24 1457.66 Q2322.43 1461.2 2322.43 1468.33 Q2322.43 1475.44 2324.24 1479.01 Q2326.07 1482.55 2329.68 1482.55 Q2333.31 1482.55 2335.12 1479.01 Q2336.95 1475.44 2336.95 1468.33 Q2336.95 1461.2 2335.12 1457.66 Q2333.31 1454.1 2329.68 1454.1 M2329.68 1450.39 Q2335.49 1450.39 2338.55 1455 Q2341.62 1459.58 2341.62 1468.33 Q2341.62 1477.06 2338.55 1481.67 Q2335.49 1486.25 2329.68 1486.25 Q2323.87 1486.25 2320.79 1481.67 Q2317.74 1477.06 2317.74 1468.33 Q2317.74 1459.58 2320.79 1455 Q2323.87 1450.39 2329.68 1450.39 Z" fill="#000000" fill-rule="nonzero" fill-opacity="1" /><path clip-path="url(#clip480)" d="M1178.01 1526.86 L1169.29 1550.51 L1186.77 1550.51 L1178.01 1526.86 M1174.38 1520.52 L1181.67 1520.52 L1199.78 1568.04 L1193.1 1568.04 L1188.77 1555.85 L1167.35 1555.85 L1163.02 1568.04 L1156.24 1568.04 L1174.38 1520.52 Z" fill="#000000" fill-rule="nonzero" fill-opacity="1" /><path clip-path="url(#clip480)" d="M1229.93 1549.81 Q1229.93 1543.44 1227.28 1539.94 Q1224.67 1536.44 1219.93 1536.44 Q1215.22 1536.44 1212.58 1539.94 Q1209.97 1543.44 1209.97 1549.81 Q1209.97 1556.14 1212.58 1559.64 Q1215.22 1563.14 1219.93 1563.14 Q1224.67 1563.14 1227.28 1559.64 Q1229.93 1556.14 1229.93 1549.81 M1235.78 1563.62 Q1235.78 1572.72 1231.74 1577.15 Q1227.7 1581.6 1219.36 1581.6 Q1216.27 1581.6 1213.53 1581.13 Q1210.8 1580.68 1208.22 1579.72 L1208.22 1574.03 Q1210.8 1575.43 1213.31 1576.1 Q1215.83 1576.76 1218.44 1576.76 Q1224.2 1576.76 1227.06 1573.74 Q1229.93 1570.75 1229.93 1564.67 L1229.93 1561.77 Q1228.11 1564.92 1225.28 1566.48 Q1222.45 1568.04 1218.5 1568.04 Q1211.94 1568.04 1207.93 1563.05 Q1203.92 1558.05 1203.92 1549.81 Q1203.92 1541.53 1207.93 1536.53 Q1211.94 1531.54 1218.5 1531.54 Q1222.45 1531.54 1225.28 1533.1 Q1228.11 1534.66 1229.93 1537.81 L1229.93 1532.4 L1235.78 1532.4 L1235.78 1563.62 Z" fill="#000000" fill-rule="nonzero" fill-opacity="1" /><path clip-path="url(#clip480)" d="M1278.34 1548.76 L1278.34 1551.62 L1251.41 1551.62 Q1251.79 1557.67 1255.04 1560.85 Q1258.32 1564 1264.14 1564 Q1267.51 1564 1270.67 1563.17 Q1273.85 1562.35 1276.97 1560.69 L1276.97 1566.23 Q1273.82 1567.57 1270.51 1568.27 Q1267.2 1568.97 1263.79 1568.97 Q1255.26 1568.97 1250.26 1564 Q1245.3 1559.04 1245.3 1550.57 Q1245.3 1541.82 1250.01 1536.69 Q1254.75 1531.54 1262.77 1531.54 Q1269.97 1531.54 1274.14 1536.18 Q1278.34 1540.8 1278.34 1548.76 M1272.48 1547.04 Q1272.42 1542.23 1269.77 1539.37 Q1267.16 1536.5 1262.84 1536.5 Q1257.93 1536.5 1254.97 1539.27 Q1252.05 1542.04 1251.6 1547.07 L1272.48 1547.04 Z" fill="#000000" fill-rule="nonzero" fill-opacity="1" /><path clip-path="url(#clip480)" d="M1322.74 1518.58 Q1318.47 1525.9 1316.4 1533.06 Q1314.33 1540.23 1314.33 1547.58 Q1314.33 1554.93 1316.4 1562.16 Q1318.5 1569.35 1322.74 1576.64 L1317.64 1576.64 Q1312.87 1569.16 1310.48 1561.93 Q1308.13 1554.71 1308.13 1547.58 Q1308.13 1540.48 1310.48 1533.29 Q1312.84 1526.09 1317.64 1518.58 L1322.74 1518.58 Z" fill="#000000" fill-rule="nonzero" fill-opacity="1" /><path clip-path="url(#clip480)" d="M1334.35 1520.52 L1343.94 1520.52 L1356.06 1552.86 L1368.25 1520.52 L1377.83 1520.52 L1377.83 1568.04 L1371.56 1568.04 L1371.56 1526.32 L1359.31 1558.91 L1352.85 1558.91 L1340.59 1526.32 L1340.59 1568.04 L1334.35 1568.04 L1334.35 1520.52 Z" fill="#000000" fill-rule="nonzero" fill-opacity="1" /><path clip-path="url(#clip480)" d="M1406.54 1550.12 Q1399.44 1550.12 1396.71 1551.75 Q1393.97 1553.37 1393.97 1557.29 Q1393.97 1560.4 1396.01 1562.25 Q1398.08 1564.07 1401.61 1564.07 Q1406.48 1564.07 1409.41 1560.63 Q1412.37 1557.16 1412.37 1551.43 L1412.37 1550.12 L1406.54 1550.12 M1418.22 1547.71 L1418.22 1568.04 L1412.37 1568.04 L1412.37 1562.63 Q1410.36 1565.88 1407.37 1567.44 Q1404.38 1568.97 1400.05 1568.97 Q1394.57 1568.97 1391.33 1565.91 Q1388.11 1562.82 1388.11 1557.67 Q1388.11 1551.65 1392.12 1548.6 Q1396.17 1545.54 1404.15 1545.54 L1412.37 1545.54 L1412.37 1544.97 Q1412.37 1540.93 1409.69 1538.73 Q1407.05 1536.5 1402.25 1536.5 Q1399.19 1536.5 1396.29 1537.23 Q1393.4 1537.97 1390.72 1539.43 L1390.72 1534.02 Q1393.94 1532.78 1396.96 1532.17 Q1399.99 1531.54 1402.85 1531.54 Q1410.58 1531.54 1414.4 1535.55 Q1418.22 1539.56 1418.22 1547.71 Z" fill="#000000" fill-rule="nonzero" fill-opacity="1" /><path clip-path="url(#clip480)" d="M1429.36 1518.58 L1434.46 1518.58 Q1439.23 1526.09 1441.59 1533.29 Q1443.97 1540.48 1443.97 1547.58 Q1443.97 1554.71 1441.59 1561.93 Q1439.23 1569.16 1434.46 1576.64 L1429.36 1576.64 Q1433.6 1569.35 1435.67 1562.16 Q1437.77 1554.93 1437.77 1547.58 Q1437.77 1540.23 1435.67 1533.06 Q1433.6 1525.9 1429.36 1518.58 Z" fill="#000000" fill-rule="nonzero" fill-opacity="1" /><polyline clip-path="url(#clip480)" style="stroke:#000000; stroke-linecap:round; stroke-linejoin:round; stroke-width:4; stroke-opacity:1; fill:none" points="247.459,1423.18 247.459,47.2441 "/>
<polyline clip-path="url(#clip480)" style="stroke:#000000; stroke-linecap:round; stroke-linejoin:round; stroke-width:4; stroke-opacity:1; fill:none" points="2352.76,1423.18 2352.76,47.2441 "/>
<polyline clip-path="url(#clip480)" style="stroke:#000000; stroke-linecap:round; stroke-linejoin:round; stroke-width:4; stroke-opacity:1; fill:none" points="247.459,1384.24 266.356,1384.24 "/>
<polyline clip-path="url(#clip480)" style="stroke:#000000; stroke-linecap:round; stroke-linejoin:round; stroke-width:4; stroke-opacity:1; fill:none" points="247.459,1153.01 266.356,1153.01 "/>
<polyline clip-path="url(#clip480)" style="stroke:#000000; stroke-linecap:round; stroke-linejoin:round; stroke-width:4; stroke-opacity:1; fill:none" points="247.459,921.775 266.356,921.775 "/>
<polyline clip-path="url(#clip480)" style="stroke:#000000; stroke-linecap:round; stroke-linejoin:round; stroke-width:4; stroke-opacity:1; fill:none" points="247.459,690.543 266.356,690.543 "/>
<polyline clip-path="url(#clip480)" style="stroke:#000000; stroke-linecap:round; stroke-linejoin:round; stroke-width:4; stroke-opacity:1; fill:none" points="247.459,459.311 266.356,459.311 "/>
<polyline clip-path="url(#clip480)" style="stroke:#000000; stroke-linecap:round; stroke-linejoin:round; stroke-width:4; stroke-opacity:1; fill:none" points="247.459,228.079 266.356,228.079 "/>
<polyline clip-path="url(#clip480)" style="stroke:#000000; stroke-linecap:round; stroke-linejoin:round; stroke-width:4; stroke-opacity:1; fill:none" points="2352.76,1384.24 2333.86,1384.24 "/>
<polyline clip-path="url(#clip480)" style="stroke:#000000; stroke-linecap:round; stroke-linejoin:round; stroke-width:4; stroke-opacity:1; fill:none" points="2352.76,1153.01 2333.86,1153.01 "/>
<polyline clip-path="url(#clip480)" style="stroke:#000000; stroke-linecap:round; stroke-linejoin:round; stroke-width:4; stroke-opacity:1; fill:none" points="2352.76,921.775 2333.86,921.775 "/>
<polyline clip-path="url(#clip480)" style="stroke:#000000; stroke-linecap:round; stroke-linejoin:round; stroke-width:4; stroke-opacity:1; fill:none" points="2352.76,690.543 2333.86,690.543 "/>
<polyline clip-path="url(#clip480)" style="stroke:#000000; stroke-linecap:round; stroke-linejoin:round; stroke-width:4; stroke-opacity:1; fill:none" points="2352.76,459.311 2333.86,459.311 "/>
<polyline clip-path="url(#clip480)" style="stroke:#000000; stroke-linecap:round; stroke-linejoin:round; stroke-width:4; stroke-opacity:1; fill:none" points="2352.76,228.079 2333.86,228.079 "/>
<path clip-path="url(#clip480)" d="M154.283 1370.04 Q150.672 1370.04 148.843 1373.6 Q147.038 1377.14 147.038 1384.27 Q147.038 1391.38 148.843 1394.94 Q150.672 1398.49 154.283 1398.49 Q157.917 1398.49 159.723 1394.94 Q161.552 1391.38 161.552 1384.27 Q161.552 1377.14 159.723 1373.6 Q157.917 1370.04 154.283 1370.04 M154.283 1366.33 Q160.093 1366.33 163.149 1370.94 Q166.227 1375.52 166.227 1384.27 Q166.227 1393 163.149 1397.61 Q160.093 1402.19 154.283 1402.19 Q148.473 1402.19 145.394 1397.61 Q142.339 1393 142.339 1384.27 Q142.339 1375.52 145.394 1370.94 Q148.473 1366.33 154.283 1366.33 Z" fill="#000000" fill-rule="nonzero" fill-opacity="1" /><path clip-path="url(#clip480)" d="M174.445 1395.64 L179.329 1395.64 L179.329 1401.52 L174.445 1401.52 L174.445 1395.64 Z" fill="#000000" fill-rule="nonzero" fill-opacity="1" /><path clip-path="url(#clip480)" d="M199.514 1370.04 Q195.903 1370.04 194.075 1373.6 Q192.269 1377.14 192.269 1384.27 Q192.269 1391.38 194.075 1394.94 Q195.903 1398.49 199.514 1398.49 Q203.149 1398.49 204.954 1394.94 Q206.783 1391.38 206.783 1384.27 Q206.783 1377.14 204.954 1373.6 Q203.149 1370.04 199.514 1370.04 M199.514 1366.33 Q205.324 1366.33 208.38 1370.94 Q211.459 1375.52 211.459 1384.27 Q211.459 1393 208.38 1397.61 Q205.324 1402.19 199.514 1402.19 Q193.704 1402.19 190.625 1397.61 Q187.57 1393 187.57 1384.27 Q187.57 1375.52 190.625 1370.94 Q193.704 1366.33 199.514 1366.33 Z" fill="#000000" fill-rule="nonzero" fill-opacity="1" /><path clip-path="url(#clip480)" d="M149.306 1166.35 L165.626 1166.35 L165.626 1170.29 L143.681 1170.29 L143.681 1166.35 Q146.343 1163.6 150.927 1158.97 Q155.533 1154.31 156.714 1152.97 Q158.959 1150.45 159.839 1148.71 Q160.741 1146.95 160.741 1145.26 Q160.741 1142.51 158.797 1140.77 Q156.876 1139.04 153.774 1139.04 Q151.575 1139.04 149.121 1139.8 Q146.691 1140.56 143.913 1142.12 L143.913 1137.39 Q146.737 1136.26 149.191 1135.68 Q151.644 1135.1 153.681 1135.1 Q159.052 1135.1 162.246 1137.79 Q165.44 1140.47 165.44 1144.96 Q165.44 1147.09 164.63 1149.01 Q163.843 1150.91 161.737 1153.5 Q161.158 1154.18 158.056 1157.39 Q154.954 1160.59 149.306 1166.35 Z" fill="#000000" fill-rule="nonzero" fill-opacity="1" /><path clip-path="url(#clip480)" d="M175.44 1164.41 L180.325 1164.41 L180.325 1170.29 L175.44 1170.29 L175.44 1164.41 Z" fill="#000000" fill-rule="nonzero" fill-opacity="1" /><path clip-path="url(#clip480)" d="M190.556 1135.73 L208.912 1135.73 L208.912 1139.66 L194.838 1139.66 L194.838 1148.13 Q195.857 1147.79 196.875 1147.62 Q197.894 1147.44 198.912 1147.44 Q204.699 1147.44 208.079 1150.61 Q211.459 1153.78 211.459 1159.2 Q211.459 1164.78 207.987 1167.88 Q204.514 1170.96 198.195 1170.96 Q196.019 1170.96 193.75 1170.59 Q191.505 1170.22 189.098 1169.48 L189.098 1164.78 Q191.181 1165.91 193.403 1166.47 Q195.625 1167.02 198.102 1167.02 Q202.107 1167.02 204.445 1164.92 Q206.783 1162.81 206.783 1159.2 Q206.783 1155.59 204.445 1153.48 Q202.107 1151.37 198.102 1151.37 Q196.227 1151.37 194.352 1151.79 Q192.5 1152.21 190.556 1153.09 L190.556 1135.73 Z" fill="#000000" fill-rule="nonzero" fill-opacity="1" /><path clip-path="url(#clip480)" d="M144.329 904.495 L162.686 904.495 L162.686 908.43 L148.612 908.43 L148.612 916.902 Q149.63 916.555 150.649 916.393 Q151.667 916.208 152.686 916.208 Q158.473 916.208 161.852 919.379 Q165.232 922.55 165.232 927.967 Q165.232 933.545 161.76 936.647 Q158.288 939.726 151.968 939.726 Q149.792 939.726 147.524 939.356 Q145.279 938.985 142.871 938.244 L142.871 933.545 Q144.954 934.68 147.177 935.235 Q149.399 935.791 151.876 935.791 Q155.88 935.791 158.218 933.684 Q160.556 931.578 160.556 927.967 Q160.556 924.356 158.218 922.249 Q155.88 920.143 151.876 920.143 Q150.001 920.143 148.126 920.559 Q146.274 920.976 144.329 921.856 L144.329 904.495 Z" fill="#000000" fill-rule="nonzero" fill-opacity="1" /><path clip-path="url(#clip480)" d="M174.445 933.175 L179.329 933.175 L179.329 939.055 L174.445 939.055 L174.445 933.175 Z" fill="#000000" fill-rule="nonzero" fill-opacity="1" /><path clip-path="url(#clip480)" d="M199.514 907.573 Q195.903 907.573 194.075 911.138 Q192.269 914.68 192.269 921.809 Q192.269 928.916 194.075 932.481 Q195.903 936.022 199.514 936.022 Q203.149 936.022 204.954 932.481 Q206.783 928.916 206.783 921.809 Q206.783 914.68 204.954 911.138 Q203.149 907.573 199.514 907.573 M199.514 903.87 Q205.324 903.87 208.38 908.476 Q211.459 913.059 211.459 921.809 Q211.459 930.536 208.38 935.143 Q205.324 939.726 199.514 939.726 Q193.704 939.726 190.625 935.143 Q187.57 930.536 187.57 921.809 Q187.57 913.059 190.625 908.476 Q193.704 903.87 199.514 903.87 Z" fill="#000000" fill-rule="nonzero" fill-opacity="1" /><path clip-path="url(#clip480)" d="M144.098 673.263 L166.32 673.263 L166.32 675.254 L153.774 707.823 L148.89 707.823 L160.695 677.198 L144.098 677.198 L144.098 673.263 Z" fill="#000000" fill-rule="nonzero" fill-opacity="1" /><path clip-path="url(#clip480)" d="M175.44 701.943 L180.325 701.943 L180.325 707.823 L175.44 707.823 L175.44 701.943 Z" fill="#000000" fill-rule="nonzero" fill-opacity="1" /><path clip-path="url(#clip480)" d="M190.556 673.263 L208.912 673.263 L208.912 677.198 L194.838 677.198 L194.838 685.67 Q195.857 685.323 196.875 685.161 Q197.894 684.976 198.912 684.976 Q204.699 684.976 208.079 688.147 Q211.459 691.318 211.459 696.735 Q211.459 702.314 207.987 705.415 Q204.514 708.494 198.195 708.494 Q196.019 708.494 193.75 708.124 Q191.505 707.753 189.098 707.013 L189.098 702.314 Q191.181 703.448 193.403 704.003 Q195.625 704.559 198.102 704.559 Q202.107 704.559 204.445 702.453 Q206.783 700.346 206.783 696.735 Q206.783 693.124 204.445 691.017 Q202.107 688.911 198.102 688.911 Q196.227 688.911 194.352 689.328 Q192.5 689.744 190.556 690.624 L190.556 673.263 Z" fill="#000000" fill-rule="nonzero" fill-opacity="1" /><path clip-path="url(#clip480)" d="M114.931 472.656 L122.57 472.656 L122.57 446.29 L114.26 447.957 L114.26 443.698 L122.524 442.031 L127.2 442.031 L127.2 472.656 L134.839 472.656 L134.839 476.591 L114.931 476.591 L114.931 472.656 Z" fill="#000000" fill-rule="nonzero" fill-opacity="1" /><path clip-path="url(#clip480)" d="M154.283 445.11 Q150.672 445.11 148.843 448.675 Q147.038 452.216 147.038 459.346 Q147.038 466.452 148.843 470.017 Q150.672 473.559 154.283 473.559 Q157.917 473.559 159.723 470.017 Q161.552 466.452 161.552 459.346 Q161.552 452.216 159.723 448.675 Q157.917 445.11 154.283 445.11 M154.283 441.406 Q160.093 441.406 163.149 446.013 Q166.227 450.596 166.227 459.346 Q166.227 468.073 163.149 472.679 Q160.093 477.262 154.283 477.262 Q148.473 477.262 145.394 472.679 Q142.339 468.073 142.339 459.346 Q142.339 450.596 145.394 446.013 Q148.473 441.406 154.283 441.406 Z" fill="#000000" fill-rule="nonzero" fill-opacity="1" /><path clip-path="url(#clip480)" d="M174.445 470.711 L179.329 470.711 L179.329 476.591 L174.445 476.591 L174.445 470.711 Z" fill="#000000" fill-rule="nonzero" fill-opacity="1" /><path clip-path="url(#clip480)" d="M199.514 445.11 Q195.903 445.11 194.075 448.675 Q192.269 452.216 192.269 459.346 Q192.269 466.452 194.075 470.017 Q195.903 473.559 199.514 473.559 Q203.149 473.559 204.954 470.017 Q206.783 466.452 206.783 459.346 Q206.783 452.216 204.954 448.675 Q203.149 445.11 199.514 445.11 M199.514 441.406 Q205.324 441.406 208.38 446.013 Q211.459 450.596 211.459 459.346 Q211.459 468.073 208.38 472.679 Q205.324 477.262 199.514 477.262 Q193.704 477.262 190.625 472.679 Q187.57 468.073 187.57 459.346 Q187.57 450.596 190.625 446.013 Q193.704 441.406 199.514 441.406 Z" fill="#000000" fill-rule="nonzero" fill-opacity="1" /><path clip-path="url(#clip480)" d="M115.927 241.424 L123.566 241.424 L123.566 215.059 L115.256 216.725 L115.256 212.466 L123.519 210.799 L128.195 210.799 L128.195 241.424 L135.834 241.424 L135.834 245.359 L115.927 245.359 L115.927 241.424 Z" fill="#000000" fill-rule="nonzero" fill-opacity="1" /><path clip-path="url(#clip480)" d="M149.306 241.424 L165.626 241.424 L165.626 245.359 L143.681 245.359 L143.681 241.424 Q146.343 238.67 150.927 234.04 Q155.533 229.387 156.714 228.045 Q158.959 225.521 159.839 223.785 Q160.741 222.026 160.741 220.336 Q160.741 217.582 158.797 215.846 Q156.876 214.109 153.774 214.109 Q151.575 214.109 149.121 214.873 Q146.691 215.637 143.913 217.188 L143.913 212.466 Q146.737 211.332 149.191 210.753 Q151.644 210.174 153.681 210.174 Q159.052 210.174 162.246 212.859 Q165.44 215.545 165.44 220.035 Q165.44 222.165 164.63 224.086 Q163.843 225.984 161.737 228.577 Q161.158 229.248 158.056 232.466 Q154.954 235.66 149.306 241.424 Z" fill="#000000" fill-rule="nonzero" fill-opacity="1" /><path clip-path="url(#clip480)" d="M175.44 239.48 L180.325 239.48 L180.325 245.359 L175.44 245.359 L175.44 239.48 Z" fill="#000000" fill-rule="nonzero" fill-opacity="1" /><path clip-path="url(#clip480)" d="M190.556 210.799 L208.912 210.799 L208.912 214.734 L194.838 214.734 L194.838 223.207 Q195.857 222.859 196.875 222.697 Q197.894 222.512 198.912 222.512 Q204.699 222.512 208.079 225.683 Q211.459 228.855 211.459 234.271 Q211.459 239.85 207.987 242.952 Q204.514 246.031 198.195 246.031 Q196.019 246.031 193.75 245.66 Q191.505 245.29 189.098 244.549 L189.098 239.85 Q191.181 240.984 193.403 241.54 Q195.625 242.095 198.102 242.095 Q202.107 242.095 204.445 239.989 Q206.783 237.882 206.783 234.271 Q206.783 230.66 204.445 228.554 Q202.107 226.447 198.102 226.447 Q196.227 226.447 194.352 226.864 Q192.5 227.281 190.556 228.16 L190.556 210.799 Z" fill="#000000" fill-rule="nonzero" fill-opacity="1" /><path clip-path="url(#clip480)" d="M21.7677 1026.76 L39.6235 1026.76 L39.6235 1018.68 Q39.6235 1014.19 37.3 1011.74 Q34.9765 1009.29 30.6797 1009.29 Q26.4147 1009.29 24.0912 1011.74 Q21.7677 1014.19 21.7677 1018.68 L21.7677 1026.76 M16.4842 1033.19 L16.4842 1018.68 Q16.4842 1010.69 20.1126 1006.61 Q23.7092 1002.51 30.6797 1002.51 Q37.7138 1002.51 41.3104 1006.61 Q44.907 1010.69 44.907 1018.68 L44.907 1026.76 L64.0042 1026.76 L64.0042 1033.19 L16.4842 1033.19 Z" fill="#000000" fill-rule="nonzero" fill-opacity="1" /><path clip-path="url(#clip480)" d="M33.8307 974.626 Q33.2578 975.613 33.0032 976.791 Q32.7167 977.936 32.7167 979.337 Q32.7167 984.302 35.9632 986.976 Q39.1779 989.617 45.2253 989.617 L64.0042 989.617 L64.0042 995.506 L28.3562 995.506 L28.3562 989.617 L33.8944 989.617 Q30.6479 987.771 29.0883 984.811 Q27.4968 981.851 27.4968 977.618 Q27.4968 977.013 27.5923 976.281 Q27.656 975.549 27.8151 974.658 L33.8307 974.626 Z" fill="#000000" fill-rule="nonzero" fill-opacity="1" /><path clip-path="url(#clip480)" d="M32.4621 956.102 Q32.4621 960.813 36.1542 963.55 Q39.8145 966.287 46.212 966.287 Q52.6095 966.287 56.3017 963.582 Q59.9619 960.844 59.9619 956.102 Q59.9619 951.423 56.2698 948.686 Q52.5777 945.949 46.212 945.949 Q39.8781 945.949 36.186 948.686 Q32.4621 951.423 32.4621 956.102 M27.4968 956.102 Q27.4968 948.463 32.4621 944.103 Q37.4273 939.742 46.212 939.742 Q54.9649 939.742 59.9619 944.103 Q64.9272 948.463 64.9272 956.102 Q64.9272 963.773 59.9619 968.133 Q54.9649 972.462 46.212 972.462 Q37.4273 972.462 32.4621 968.133 Q27.4968 963.773 27.4968 956.102 Z" fill="#000000" fill-rule="nonzero" fill-opacity="1" /><path clip-path="url(#clip480)" d="M46.212 904.444 Q39.7508 904.444 36.0905 907.118 Q32.3984 909.76 32.3984 914.407 Q32.3984 919.054 36.0905 921.727 Q39.7508 924.369 46.212 924.369 Q52.6732 924.369 56.3653 921.727 Q60.0256 919.054 60.0256 914.407 Q60.0256 909.76 56.3653 907.118 Q52.6732 904.444 46.212 904.444 M33.7671 924.369 Q30.5842 922.523 29.0564 919.722 Q27.4968 916.889 27.4968 912.974 Q27.4968 906.481 32.6531 902.439 Q37.8093 898.365 46.212 898.365 Q54.6147 898.365 59.771 902.439 Q64.9272 906.481 64.9272 912.974 Q64.9272 916.889 63.3994 919.722 Q61.8398 922.523 58.657 924.369 L64.0042 924.369 L64.0042 930.257 L14.479 930.257 L14.479 924.369 L33.7671 924.369 Z" fill="#000000" fill-rule="nonzero" fill-opacity="1" /><path clip-path="url(#clip480)" d="M46.0847 872.457 Q46.0847 879.554 47.7079 882.292 Q49.3312 885.029 53.2461 885.029 Q56.3653 885.029 58.2114 882.992 Q60.0256 880.923 60.0256 877.39 Q60.0256 872.52 56.5881 869.592 Q53.1188 866.632 47.3897 866.632 L46.0847 866.632 L46.0847 872.457 M43.6657 860.776 L64.0042 860.776 L64.0042 866.632 L58.5933 866.632 Q61.8398 868.637 63.3994 871.629 Q64.9272 874.621 64.9272 878.95 Q64.9272 884.424 61.8716 887.671 Q58.7843 890.885 53.6281 890.885 Q47.6125 890.885 44.5569 886.875 Q41.5014 882.833 41.5014 874.844 L41.5014 866.632 L40.9285 866.632 Q36.8862 866.632 34.6901 869.306 Q32.4621 871.947 32.4621 876.753 Q32.4621 879.809 33.1941 882.705 Q33.9262 885.602 35.3903 888.275 L29.9795 888.275 Q28.7381 885.061 28.1334 882.037 Q27.4968 879.013 27.4968 876.149 Q27.4968 868.414 31.5072 864.595 Q35.5176 860.776 43.6657 860.776 Z" fill="#000000" fill-rule="nonzero" fill-opacity="1" /><path clip-path="url(#clip480)" d="M46.212 823.122 Q39.7508 823.122 36.0905 825.796 Q32.3984 828.438 32.3984 833.085 Q32.3984 837.732 36.0905 840.405 Q39.7508 843.047 46.212 843.047 Q52.6732 843.047 56.3653 840.405 Q60.0256 837.732 60.0256 833.085 Q60.0256 828.438 56.3653 825.796 Q52.6732 823.122 46.212 823.122 M33.7671 843.047 Q30.5842 841.201 29.0564 838.4 Q27.4968 835.567 27.4968 831.652 Q27.4968 825.159 32.6531 821.117 Q37.8093 817.043 46.212 817.043 Q54.6147 817.043 59.771 821.117 Q64.9272 825.159 64.9272 831.652 Q64.9272 835.567 63.3994 838.4 Q61.8398 841.201 58.657 843.047 L64.0042 843.047 L64.0042 848.935 L14.479 848.935 L14.479 843.047 L33.7671 843.047 Z" fill="#000000" fill-rule="nonzero" fill-opacity="1" /><path clip-path="url(#clip480)" d="M28.3562 807.335 L28.3562 801.479 L64.0042 801.479 L64.0042 807.335 L28.3562 807.335 M14.479 807.335 L14.479 801.479 L21.895 801.479 L21.895 807.335 L14.479 807.335 Z" fill="#000000" fill-rule="nonzero" fill-opacity="1" /><path clip-path="url(#clip480)" d="M14.479 789.225 L14.479 783.369 L64.0042 783.369 L64.0042 789.225 L14.479 789.225 Z" fill="#000000" fill-rule="nonzero" fill-opacity="1" /><path clip-path="url(#clip480)" d="M28.3562 771.115 L28.3562 765.258 L64.0042 765.258 L64.0042 771.115 L28.3562 771.115 M14.479 771.115 L14.479 765.258 L21.895 765.258 L21.895 771.115 L14.479 771.115 Z" fill="#000000" fill-rule="nonzero" fill-opacity="1" /><path clip-path="url(#clip480)" d="M18.2347 747.211 L28.3562 747.211 L28.3562 735.148 L32.9077 735.148 L32.9077 747.211 L52.2594 747.211 Q56.6199 747.211 57.8613 746.034 Q59.1026 744.824 59.1026 741.164 L59.1026 735.148 L64.0042 735.148 L64.0042 741.164 Q64.0042 747.943 61.4897 750.521 Q58.9434 753.1 52.2594 753.1 L32.9077 753.1 L32.9077 757.396 L28.3562 757.396 L28.3562 753.1 L18.2347 753.1 L18.2347 747.211 Z" fill="#000000" fill-rule="nonzero" fill-opacity="1" /><path clip-path="url(#clip480)" d="M67.3143 712.614 Q73.68 715.096 75.6216 717.452 Q77.5631 719.807 77.5631 723.754 L77.5631 728.432 L72.6615 728.432 L72.6615 724.995 Q72.6615 722.576 71.5157 721.239 Q70.3699 719.902 66.1048 718.279 L63.4312 717.229 L28.3562 731.647 L28.3562 725.441 L56.238 714.301 L28.3562 703.161 L28.3562 696.954 L67.3143 712.614 Z" fill="#000000" fill-rule="nonzero" fill-opacity="1" /><path clip-path="url(#clip480)" d="M33.7671 644.692 L14.479 644.692 L14.479 638.835 L64.0042 638.835 L64.0042 644.692 L58.657 644.692 Q61.8398 646.538 63.3994 649.37 Q64.9272 652.171 64.9272 656.118 Q64.9272 662.579 59.771 666.653 Q54.6147 670.696 46.212 670.696 Q37.8093 670.696 32.6531 666.653 Q27.4968 662.579 27.4968 656.118 Q27.4968 652.171 29.0564 649.37 Q30.5842 646.538 33.7671 644.692 M46.212 664.648 Q52.6732 664.648 56.3653 662.006 Q60.0256 659.333 60.0256 654.686 Q60.0256 650.039 56.3653 647.365 Q52.6732 644.692 46.212 644.692 Q39.7508 644.692 36.0905 647.365 Q32.3984 650.039 32.3984 654.686 Q32.3984 659.333 36.0905 662.006 Q39.7508 664.648 46.212 664.648 Z" fill="#000000" fill-rule="nonzero" fill-opacity="1" /><path clip-path="url(#clip480)" d="M44.7161 596.28 L47.5806 596.28 L47.5806 623.207 Q53.6281 622.825 56.8109 619.579 Q59.9619 616.301 59.9619 610.476 Q59.9619 607.102 59.1344 603.951 Q58.3069 600.768 56.6518 597.649 L62.1899 597.649 Q63.5267 600.8 64.227 604.11 Q64.9272 607.42 64.9272 610.826 Q64.9272 619.356 59.9619 624.353 Q54.9967 629.318 46.5303 629.318 Q37.7774 629.318 32.6531 624.608 Q27.4968 619.865 27.4968 611.845 Q27.4968 604.651 32.1438 600.482 Q36.7589 596.28 44.7161 596.28 M42.9973 602.137 Q38.1912 602.201 35.3266 604.842 Q32.4621 607.452 32.4621 611.781 Q32.4621 616.683 35.2312 619.643 Q38.0002 622.571 43.0292 623.016 L42.9973 602.137 Z" fill="#000000" fill-rule="nonzero" fill-opacity="1" /><path clip-path="url(#clip480)" d="M42.4881 557.036 L64.0042 557.036 L64.0042 562.892 L42.679 562.892 Q37.6183 562.892 35.1038 564.866 Q32.5894 566.839 32.5894 570.786 Q32.5894 575.528 35.6131 578.265 Q38.6368 581.003 43.8567 581.003 L64.0042 581.003 L64.0042 586.891 L28.3562 586.891 L28.3562 581.003 L33.8944 581.003 Q30.6797 578.902 29.0883 576.069 Q27.4968 573.205 27.4968 569.481 Q27.4968 563.338 31.3163 560.187 Q35.1038 557.036 42.4881 557.036 Z" fill="#000000" fill-rule="nonzero" fill-opacity="1" /><path clip-path="url(#clip480)" d="M29.4065 522.629 L34.9447 522.629 Q33.6716 525.112 33.035 527.785 Q32.3984 530.459 32.3984 533.324 Q32.3984 537.684 33.7352 539.88 Q35.072 542.045 37.7456 542.045 Q39.7826 542.045 40.9603 540.485 Q42.1061 538.925 43.1565 534.215 L43.6021 532.21 Q44.9389 525.971 47.3897 523.361 Q49.8086 520.719 54.1691 520.719 Q59.1344 520.719 62.0308 524.666 Q64.9272 528.581 64.9272 535.456 Q64.9272 538.321 64.3543 541.44 Q63.8132 544.527 62.6992 547.965 L56.6518 547.965 Q58.3387 544.718 59.198 541.567 Q60.0256 538.416 60.0256 535.329 Q60.0256 531.191 58.6251 528.963 Q57.1929 526.735 54.6147 526.735 Q52.2276 526.735 50.9545 528.358 Q49.6813 529.95 48.5037 535.392 L48.0262 537.429 Q46.8804 542.872 44.5251 545.291 Q42.138 547.71 38.0002 547.71 Q32.9713 547.71 30.2341 544.145 Q27.4968 540.58 27.4968 534.024 Q27.4968 530.777 27.9743 527.913 Q28.4517 525.048 29.4065 522.629 Z" fill="#000000" fill-rule="nonzero" fill-opacity="1" /><path clip-path="url(#clip480)" d="M28.3562 511.394 L28.3562 505.537 L64.0042 505.537 L64.0042 511.394 L28.3562 511.394 M14.479 511.394 L14.479 505.537 L21.895 505.537 L21.895 511.394 L14.479 511.394 Z" fill="#000000" fill-rule="nonzero" fill-opacity="1" /><path clip-path="url(#clip480)" d="M18.2347 487.49 L28.3562 487.49 L28.3562 475.427 L32.9077 475.427 L32.9077 487.49 L52.2594 487.49 Q56.6199 487.49 57.8613 486.313 Q59.1026 485.103 59.1026 481.443 L59.1026 475.427 L64.0042 475.427 L64.0042 481.443 Q64.0042 488.223 61.4897 490.801 Q58.9434 493.379 52.2594 493.379 L32.9077 493.379 L32.9077 497.676 L28.3562 497.676 L28.3562 493.379 L18.2347 493.379 L18.2347 487.49 Z" fill="#000000" fill-rule="nonzero" fill-opacity="1" /><path clip-path="url(#clip480)" d="M67.3143 452.893 Q73.68 455.376 75.6216 457.731 Q77.5631 460.086 77.5631 464.033 L77.5631 468.712 L72.6615 468.712 L72.6615 465.274 Q72.6615 462.855 71.5157 461.518 Q70.3699 460.182 66.1048 458.558 L63.4312 457.508 L28.3562 471.926 L28.3562 465.72 L56.238 454.58 L28.3562 443.44 L28.3562 437.233 L67.3143 452.893 Z" fill="#000000" fill-rule="nonzero" fill-opacity="1" /><polyline clip-path="url(#clip482)" style="stroke:#009af9; stroke-linecap:round; stroke-linejoin:round; stroke-width:4; stroke-opacity:1; fill:none" points="307.043,1384.23 1128.89,1384.23 1151.72,1384.2 1174.55,1384.23 1197.38,1384.23 1220.21,1384.23 1265.86,1384.21 1311.52,1384.23 1380.01,1384.23 1402.84,1384.16 1425.67,1384.22 1448.5,1384.21 1494.15,1384.23 1516.98,1384.22 1562.64,1384.14 1585.47,1384.12 1608.3,1384.21 1631.13,1384.01 1653.96,1384.09 1676.79,1384.05 1699.62,1384.01 1722.45,1383.93 1745.27,1384.01 1768.1,1383.92 1790.93,1383.68 1813.76,1383.31 1836.59,1383.39 1859.42,1383.16 1882.25,1382.32 1905.08,1381.76 1927.91,1380.73 1950.74,1377.65 1973.56,1372.09 1996.39,1367.95 2019.22,1351.36 2042.05,1315.14 2064.88,1239.55 2087.71,1070.39 2110.54,702.269 2133.37,86.1857 2156.2,167.317 2179.03,985.534 2201.86,1273.75 2224.68,1359.33 2247.51,1378.24 2270.34,1383.35 2293.17,1384.03 "/>
<polyline clip-path="url(#clip482)" style="stroke:#e26f46; stroke-linecap:round; stroke-linejoin:round; stroke-width:4; stroke-opacity:1; fill:none" points="307.043,1384.24 1128.89,1384.24 1151.72,1384.24 1174.55,1384.24 1197.38,1384.24 1220.21,1384.24 1265.86,1384.24 1311.52,1384.24 1380.01,1384.24 1402.84,1384.24 1425.67,1384.24 1448.5,1384.24 1494.15,1384.24 1516.98,1384.24 1562.64,1384.24 1585.47,1384.24 1608.3,1384.24 1631.13,1384.24 1653.96,1384.24 1676.79,1384.24 1699.62,1384.24 1722.45,1384.24 1745.27,1384.24 1768.1,1384.23 1790.93,1384.23 1813.76,1384.22 1836.59,1384.19 1859.42,1384.13 1882.25,1384.01 1905.08,1383.74 1927.91,1383.15 1950.74,1381.85 1973.56,1379.01 1996.39,1372.79 2019.22,1359.2 2042.05,1329.54 2064.88,1264.99 2087.71,1125.61 2110.54,833.61 2133.37,328.907 2156.2,396.462 2179.03,1058.44 2201.86,1298.36 2224.68,1362.33 2247.51,1378.69 2270.34,1382.84 2293.17,1383.89 "/>
<path clip-path="url(#clip480)" d="M317.635 248.629 L862.469 248.629 L862.469 93.1086 L317.635 93.1086  Z" fill="#ffffff" fill-rule="evenodd" fill-opacity="1"/>
<polyline clip-path="url(#clip480)" style="stroke:#ffffff; stroke-linecap:round; stroke-linejoin:round; stroke-width:4; stroke-opacity:1; fill:none" points="317.635,248.629 862.469,248.629 862.469,93.1086 317.635,93.1086 317.635,248.629 "/>
<polyline clip-path="url(#clip480)" style="stroke:#009af9; stroke-linecap:round; stroke-linejoin:round; stroke-width:4; stroke-opacity:1; fill:none" points="341.027,144.949 481.381,144.949 "/>
<path clip-path="url(#clip480)" d="M504.773 127.669 L509.449 127.669 L509.449 141.835 L526.439 141.835 L526.439 127.669 L531.115 127.669 L531.115 162.229 L526.439 162.229 L526.439 145.77 L509.449 145.77 L509.449 162.229 L504.773 162.229 L504.773 127.669 Z" fill="#000000" fill-rule="nonzero" fill-opacity="1" /><path clip-path="url(#clip480)" d="M540.236 136.303 L544.495 136.303 L544.495 162.229 L540.236 162.229 L540.236 136.303 M540.236 126.21 L544.495 126.21 L544.495 131.604 L540.236 131.604 L540.236 126.21 Z" fill="#000000" fill-rule="nonzero" fill-opacity="1" /><path clip-path="url(#clip480)" d="M569.935 137.067 L569.935 141.094 Q568.129 140.169 566.185 139.706 Q564.24 139.243 562.157 139.243 Q558.985 139.243 557.388 140.215 Q555.814 141.187 555.814 143.131 Q555.814 144.613 556.948 145.469 Q558.083 146.303 561.509 147.067 L562.967 147.391 Q567.504 148.363 569.402 150.145 Q571.323 151.905 571.323 155.076 Q571.323 158.687 568.453 160.793 Q565.606 162.9 560.606 162.9 Q558.523 162.9 556.254 162.483 Q554.009 162.09 551.509 161.28 L551.509 156.881 Q553.87 158.108 556.161 158.733 Q558.453 159.335 560.698 159.335 Q563.708 159.335 565.328 158.317 Q566.948 157.275 566.948 155.4 Q566.948 153.664 565.768 152.738 Q564.61 151.812 560.652 150.956 L559.171 150.608 Q555.212 149.775 553.453 148.062 Q551.694 146.326 551.694 143.317 Q551.694 139.659 554.286 137.669 Q556.879 135.678 561.648 135.678 Q564.009 135.678 566.092 136.025 Q568.175 136.372 569.935 137.067 Z" fill="#000000" fill-rule="nonzero" fill-opacity="1" /><path clip-path="url(#clip480)" d="M582.319 128.942 L582.319 136.303 L591.092 136.303 L591.092 139.613 L582.319 139.613 L582.319 153.687 Q582.319 156.858 583.175 157.761 Q584.055 158.664 586.717 158.664 L591.092 158.664 L591.092 162.229 L586.717 162.229 Q581.786 162.229 579.911 160.4 Q578.036 158.548 578.036 153.687 L578.036 139.613 L574.911 139.613 L574.911 136.303 L578.036 136.303 L578.036 128.942 L582.319 128.942 Z" fill="#000000" fill-rule="nonzero" fill-opacity="1" /><path clip-path="url(#clip480)" d="M606.74 139.289 Q603.314 139.289 601.323 141.974 Q599.332 144.636 599.332 149.289 Q599.332 153.942 601.3 156.627 Q603.291 159.289 606.74 159.289 Q610.143 159.289 612.133 156.604 Q614.124 153.918 614.124 149.289 Q614.124 144.682 612.133 141.997 Q610.143 139.289 606.74 139.289 M606.74 135.678 Q612.295 135.678 615.467 139.289 Q618.638 142.9 618.638 149.289 Q618.638 155.655 615.467 159.289 Q612.295 162.9 606.74 162.9 Q601.161 162.9 597.99 159.289 Q594.842 155.655 594.842 149.289 Q594.842 142.9 597.99 139.289 Q601.161 135.678 606.74 135.678 Z" fill="#000000" fill-rule="nonzero" fill-opacity="1" /><path clip-path="url(#clip480)" d="M642.758 148.965 Q642.758 144.335 640.837 141.789 Q638.939 139.243 635.49 139.243 Q632.064 139.243 630.143 141.789 Q628.244 144.335 628.244 148.965 Q628.244 153.571 630.143 156.118 Q632.064 158.664 635.49 158.664 Q638.939 158.664 640.837 156.118 Q642.758 153.571 642.758 148.965 M647.017 159.011 Q647.017 165.631 644.078 168.849 Q641.138 172.09 635.073 172.09 Q632.828 172.09 630.837 171.742 Q628.846 171.418 626.971 170.724 L626.971 166.58 Q628.846 167.599 630.675 168.085 Q632.504 168.571 634.402 168.571 Q638.592 168.571 640.675 166.372 Q642.758 164.196 642.758 159.775 L642.758 157.668 Q641.439 159.96 639.379 161.094 Q637.318 162.229 634.448 162.229 Q629.68 162.229 626.763 158.594 Q623.846 154.96 623.846 148.965 Q623.846 142.946 626.763 139.312 Q629.68 135.678 634.448 135.678 Q637.318 135.678 639.379 136.812 Q641.439 137.946 642.758 140.238 L642.758 136.303 L647.017 136.303 L647.017 159.011 Z" fill="#000000" fill-rule="nonzero" fill-opacity="1" /><path clip-path="url(#clip480)" d="M670.814 140.284 Q670.096 139.868 669.24 139.682 Q668.406 139.474 667.388 139.474 Q663.777 139.474 661.832 141.835 Q659.911 144.173 659.911 148.571 L659.911 162.229 L655.628 162.229 L655.628 136.303 L659.911 136.303 L659.911 140.331 Q661.253 137.969 663.406 136.835 Q665.559 135.678 668.638 135.678 Q669.077 135.678 669.61 135.747 Q670.142 135.794 670.79 135.909 L670.814 140.284 Z" fill="#000000" fill-rule="nonzero" fill-opacity="1" /><path clip-path="url(#clip480)" d="M687.064 149.196 Q681.901 149.196 679.911 150.377 Q677.92 151.557 677.92 154.405 Q677.92 156.673 679.402 158.016 Q680.906 159.335 683.476 159.335 Q687.017 159.335 689.147 156.835 Q691.3 154.312 691.3 150.145 L691.3 149.196 L687.064 149.196 M695.559 147.437 L695.559 162.229 L691.3 162.229 L691.3 158.293 Q689.841 160.655 687.665 161.789 Q685.489 162.9 682.341 162.9 Q678.36 162.9 675.999 160.678 Q673.661 158.432 673.661 154.682 Q673.661 150.307 676.577 148.085 Q679.517 145.863 685.327 145.863 L691.3 145.863 L691.3 145.446 Q691.3 142.507 689.355 140.909 Q687.434 139.289 683.939 139.289 Q681.716 139.289 679.61 139.821 Q677.503 140.354 675.559 141.419 L675.559 137.483 Q677.897 136.581 680.096 136.141 Q682.295 135.678 684.378 135.678 Q690.003 135.678 692.781 138.594 Q695.559 141.511 695.559 147.437 Z" fill="#000000" fill-rule="nonzero" fill-opacity="1" /><path clip-path="url(#clip480)" d="M724.517 141.28 Q726.114 138.409 728.336 137.044 Q730.559 135.678 733.568 135.678 Q737.619 135.678 739.818 138.525 Q742.017 141.349 742.017 146.581 L742.017 162.229 L737.735 162.229 L737.735 146.719 Q737.735 142.993 736.415 141.187 Q735.096 139.382 732.387 139.382 Q729.077 139.382 727.156 141.581 Q725.235 143.78 725.235 147.576 L725.235 162.229 L720.952 162.229 L720.952 146.719 Q720.952 142.969 719.633 141.187 Q718.313 139.382 715.559 139.382 Q712.295 139.382 710.374 141.604 Q708.452 143.803 708.452 147.576 L708.452 162.229 L704.17 162.229 L704.17 136.303 L708.452 136.303 L708.452 140.331 Q709.911 137.946 711.948 136.812 Q713.985 135.678 716.786 135.678 Q719.61 135.678 721.577 137.113 Q723.568 138.548 724.517 141.28 Z" fill="#000000" fill-rule="nonzero" fill-opacity="1" /><polyline clip-path="url(#clip480)" style="stroke:#e26f46; stroke-linecap:round; stroke-linejoin:round; stroke-width:4; stroke-opacity:1; fill:none" points="341.027,196.789 481.381,196.789 "/>
<path clip-path="url(#clip480)" d="M509.449 183.351 L509.449 210.226 L515.097 210.226 Q522.25 210.226 525.56 206.985 Q528.893 203.745 528.893 196.754 Q528.893 189.809 525.56 186.592 Q522.25 183.351 515.097 183.351 L509.449 183.351 M504.773 179.509 L514.379 179.509 Q524.425 179.509 529.125 183.698 Q533.824 187.865 533.824 196.754 Q533.824 205.689 529.101 209.879 Q524.379 214.069 514.379 214.069 L504.773 214.069 L504.773 179.509 Z" fill="#000000" fill-rule="nonzero" fill-opacity="1" /><path clip-path="url(#clip480)" d="M541.092 188.143 L545.351 188.143 L545.351 214.069 L541.092 214.069 L541.092 188.143 M541.092 178.05 L545.351 178.05 L545.351 183.444 L541.092 183.444 L541.092 178.05 Z" fill="#000000" fill-rule="nonzero" fill-opacity="1" /><path clip-path="url(#clip480)" d="M570.791 188.907 L570.791 192.934 Q568.985 192.009 567.041 191.546 Q565.097 191.083 563.013 191.083 Q559.842 191.083 558.245 192.055 Q556.671 193.027 556.671 194.971 Q556.671 196.453 557.805 197.309 Q558.939 198.143 562.365 198.907 L563.823 199.231 Q568.36 200.203 570.259 201.985 Q572.18 203.745 572.18 206.916 Q572.18 210.527 569.31 212.633 Q566.462 214.74 561.462 214.74 Q559.379 214.74 557.11 214.323 Q554.865 213.93 552.365 213.12 L552.365 208.721 Q554.726 209.948 557.018 210.573 Q559.31 211.175 561.555 211.175 Q564.564 211.175 566.185 210.157 Q567.805 209.115 567.805 207.24 Q567.805 205.504 566.624 204.578 Q565.467 203.652 561.509 202.796 L560.027 202.448 Q556.069 201.615 554.31 199.902 Q552.55 198.166 552.55 195.157 Q552.55 191.499 555.143 189.509 Q557.735 187.518 562.504 187.518 Q564.865 187.518 566.948 187.865 Q569.032 188.212 570.791 188.907 Z" fill="#000000" fill-rule="nonzero" fill-opacity="1" /><path clip-path="url(#clip480)" d="M583.175 180.782 L583.175 188.143 L591.948 188.143 L591.948 191.453 L583.175 191.453 L583.175 205.527 Q583.175 208.698 584.032 209.601 Q584.911 210.504 587.573 210.504 L591.948 210.504 L591.948 214.069 L587.573 214.069 Q582.643 214.069 580.768 212.24 Q578.893 210.388 578.893 205.527 L578.893 191.453 L575.768 191.453 L575.768 188.143 L578.893 188.143 L578.893 180.782 L583.175 180.782 Z" fill="#000000" fill-rule="nonzero" fill-opacity="1" /><path clip-path="url(#clip480)" d="M612.573 192.124 Q611.856 191.708 610.999 191.522 Q610.166 191.314 609.147 191.314 Q605.536 191.314 603.592 193.675 Q601.67 196.013 601.67 200.411 L601.67 214.069 L597.388 214.069 L597.388 188.143 L601.67 188.143 L601.67 192.171 Q603.013 189.809 605.166 188.675 Q607.319 187.518 610.397 187.518 Q610.837 187.518 611.369 187.587 Q611.902 187.634 612.55 187.749 L612.573 192.124 Z" fill="#000000" fill-rule="nonzero" fill-opacity="1" /><path clip-path="url(#clip480)" d="M617.041 188.143 L621.3 188.143 L621.3 214.069 L617.041 214.069 L617.041 188.143 M617.041 178.05 L621.3 178.05 L621.3 183.444 L617.041 183.444 L617.041 178.05 Z" fill="#000000" fill-rule="nonzero" fill-opacity="1" /><path clip-path="url(#clip480)" d="M648.823 201.129 Q648.823 196.43 646.879 193.768 Q644.957 191.083 641.578 191.083 Q638.198 191.083 636.254 193.768 Q634.332 196.43 634.332 201.129 Q634.332 205.828 636.254 208.513 Q638.198 211.175 641.578 211.175 Q644.957 211.175 646.879 208.513 Q648.823 205.828 648.823 201.129 M634.332 192.078 Q635.675 189.763 637.712 188.652 Q639.772 187.518 642.619 187.518 Q647.341 187.518 650.281 191.268 Q653.244 195.018 653.244 201.129 Q653.244 207.24 650.281 210.99 Q647.341 214.74 642.619 214.74 Q639.772 214.74 637.712 213.629 Q635.675 212.495 634.332 210.18 L634.332 214.069 L630.05 214.069 L630.05 178.05 L634.332 178.05 L634.332 192.078 Z" fill="#000000" fill-rule="nonzero" fill-opacity="1" /><path clip-path="url(#clip480)" d="M659.865 203.837 L659.865 188.143 L664.124 188.143 L664.124 203.675 Q664.124 207.356 665.559 209.208 Q666.994 211.036 669.865 211.036 Q673.314 211.036 675.304 208.837 Q677.318 206.638 677.318 202.842 L677.318 188.143 L681.577 188.143 L681.577 214.069 L677.318 214.069 L677.318 210.087 Q675.767 212.448 673.707 213.606 Q671.67 214.74 668.962 214.74 Q664.494 214.74 662.179 211.962 Q659.865 209.184 659.865 203.837 M670.582 187.518 L670.582 187.518 Z" fill="#000000" fill-rule="nonzero" fill-opacity="1" /><path clip-path="url(#clip480)" d="M694.563 180.782 L694.563 188.143 L703.337 188.143 L703.337 191.453 L694.563 191.453 L694.563 205.527 Q694.563 208.698 695.42 209.601 Q696.3 210.504 698.962 210.504 L703.337 210.504 L703.337 214.069 L698.962 214.069 Q694.031 214.069 692.156 212.24 Q690.281 210.388 690.281 205.527 L690.281 191.453 L687.156 191.453 L687.156 188.143 L690.281 188.143 L690.281 180.782 L694.563 180.782 Z" fill="#000000" fill-rule="nonzero" fill-opacity="1" /><path clip-path="url(#clip480)" d="M708.938 188.143 L713.198 188.143 L713.198 214.069 L708.938 214.069 L708.938 188.143 M708.938 178.05 L713.198 178.05 L713.198 183.444 L708.938 183.444 L708.938 178.05 Z" fill="#000000" fill-rule="nonzero" fill-opacity="1" /><path clip-path="url(#clip480)" d="M732.156 191.129 Q728.73 191.129 726.739 193.814 Q724.748 196.476 724.748 201.129 Q724.748 205.782 726.716 208.467 Q728.707 211.129 732.156 211.129 Q735.559 211.129 737.549 208.444 Q739.54 205.758 739.54 201.129 Q739.54 196.522 737.549 193.837 Q735.559 191.129 732.156 191.129 M732.156 187.518 Q737.711 187.518 740.883 191.129 Q744.054 194.74 744.054 201.129 Q744.054 207.495 740.883 211.129 Q737.711 214.74 732.156 214.74 Q726.577 214.74 723.406 211.129 Q720.258 207.495 720.258 201.129 Q720.258 194.74 723.406 191.129 Q726.577 187.518 732.156 187.518 Z" fill="#000000" fill-rule="nonzero" fill-opacity="1" /><path clip-path="url(#clip480)" d="M772.665 198.421 L772.665 214.069 L768.406 214.069 L768.406 198.559 Q768.406 194.879 766.97 193.05 Q765.535 191.222 762.665 191.222 Q759.216 191.222 757.225 193.421 Q755.234 195.62 755.234 199.416 L755.234 214.069 L750.952 214.069 L750.952 188.143 L755.234 188.143 L755.234 192.171 Q756.762 189.833 758.822 188.675 Q760.906 187.518 763.614 187.518 Q768.082 187.518 770.373 190.296 Q772.665 193.05 772.665 198.421 Z" fill="#000000" fill-rule="nonzero" fill-opacity="1" /><path clip-path="url(#clip480)" d="M809.355 178.05 L809.355 181.592 L805.28 181.592 Q802.989 181.592 802.086 182.518 Q801.206 183.444 801.206 185.851 L801.206 188.143 L808.22 188.143 L808.22 191.453 L801.206 191.453 L801.206 214.069 L796.924 214.069 L796.924 191.453 L792.85 191.453 L792.85 188.143 L796.924 188.143 L796.924 186.337 Q796.924 182.009 798.938 180.041 Q800.952 178.05 805.327 178.05 L809.355 178.05 Z" fill="#000000" fill-rule="nonzero" fill-opacity="1" /><path clip-path="url(#clip480)" d="M812.919 188.143 L817.179 188.143 L817.179 214.069 L812.919 214.069 L812.919 188.143 M812.919 178.05 L817.179 178.05 L817.179 183.444 L812.919 183.444 L812.919 178.05 Z" fill="#000000" fill-rule="nonzero" fill-opacity="1" /><path clip-path="url(#clip480)" d="M830.303 180.782 L830.303 188.143 L839.077 188.143 L839.077 191.453 L830.303 191.453 L830.303 205.527 Q830.303 208.698 831.16 209.601 Q832.04 210.504 834.702 210.504 L839.077 210.504 L839.077 214.069 L834.702 214.069 Q829.771 214.069 827.896 212.24 Q826.021 210.388 826.021 205.527 L826.021 191.453 L822.896 191.453 L822.896 188.143 L826.021 188.143 L826.021 180.782 L830.303 180.782 Z" fill="#000000" fill-rule="nonzero" fill-opacity="1" /></svg>
