<?xml version="1.0" encoding="utf-8"?>
<svg xmlns="http://www.w3.org/2000/svg" xmlns:xlink="http://www.w3.org/1999/xlink" width="600" height="400" viewBox="0 0 2400 1600">
<defs>
  <clipPath id="clip340">
    <rect x="0" y="0" width="2400" height="1600"/>
  </clipPath>
</defs>
<path clip-path="url(#clip340)" d="M0 1600 L2400 1600 L2400 8.88178e-14 L0 8.88178e-14  Z" fill="#ffffff" fill-rule="evenodd" fill-opacity="1"/>
<defs>
  <clipPath id="clip341">
    <rect x="480" y="0" width="1681" height="1600"/>
  </clipPath>
</defs>
<path clip-path="url(#clip340)" d="M249.357 1552.76 L2352.76 1552.76 L2352.76 47.2441 L249.357 47.2441  Z" fill="#ffffff" fill-rule="evenodd" fill-opacity="1"/>
<defs>
  <clipPath id="clip342">
    <rect x="249" y="47" width="2104" height="1507"/>
  </clipPath>
</defs>
<polyline clip-path="url(#clip342)" style="stroke:#000000; stroke-linecap:round; stroke-linejoin:round; stroke-width:2; stroke-opacity:0.1; fill:none" points="249.357,1360.23 2352.76,1360.23 "/>
<polyline clip-path="url(#clip342)" style="stroke:#000000; stroke-linecap:round; stroke-linejoin:round; stroke-width:2; stroke-opacity:0.1; fill:none" points="249.357,965.701 2352.76,965.701 "/>
<polyline clip-path="url(#clip342)" style="stroke:#000000; stroke-linecap:round; stroke-linejoin:round; stroke-width:2; stroke-opacity:0.1; fill:none" points="249.357,571.175 2352.76,571.175 "/>
<polyline clip-path="url(#clip342)" style="stroke:#000000; stroke-linecap:round; stroke-linejoin:round; stroke-width:2; stroke-opacity:0.1; fill:none" points="249.357,176.649 2352.76,176.649 "/>
<polyline clip-path="url(#clip342)" style="stroke:#000000; stroke-linecap:round; stroke-linejoin:round; stroke-width:2; stroke-opacity:0.1; fill:none" points="249.357,1360.23 2352.76,1360.23 "/>
<polyline clip-path="url(#clip342)" style="stroke:#000000; stroke-linecap:round; stroke-linejoin:round; stroke-width:2; stroke-opacity:0.1; fill:none" points="249.357,965.701 2352.76,965.701 "/>
<polyline clip-path="url(#clip342)" style="stroke:#000000; stroke-linecap:round; stroke-linejoin:round; stroke-width:2; stroke-opacity:0.1; fill:none" points="249.357,571.175 2352.76,571.175 "/>
<polyline clip-path="url(#clip342)" style="stroke:#000000; stroke-linecap:round; stroke-linejoin:round; stroke-width:2; stroke-opacity:0.1; fill:none" points="249.357,176.649 2352.76,176.649 "/>
<polyline clip-path="url(#clip340)" style="stroke:#000000; stroke-linecap:round; stroke-linejoin:round; stroke-width:4; stroke-opacity:1; fill:none" points="249.357,1552.76 2352.76,1552.76 "/>
<polyline clip-path="url(#clip340)" style="stroke:#000000; stroke-linecap:round; stroke-linejoin:round; stroke-width:4; stroke-opacity:1; fill:none" points="249.357,47.2441 2352.76,47.2441 "/>
<polyline clip-path="url(#clip340)" style="stroke:#000000; stroke-linecap:round; stroke-linejoin:round; stroke-width:4; stroke-opacity:1; fill:none" points="249.357,1552.76 249.357,47.2441 "/>
<polyline clip-path="url(#clip340)" style="stroke:#000000; stroke-linecap:round; stroke-linejoin:round; stroke-width:4; stroke-opacity:1; fill:none" points="2352.76,1552.76 2352.76,47.2441 "/>
<polyline clip-path="url(#clip340)" style="stroke:#000000; stroke-linecap:round; stroke-linejoin:round; stroke-width:4; stroke-opacity:1; fill:none" points="249.357,1360.23 268.254,1360.23 "/>
<polyline clip-path="url(#clip340)" style="stroke:#000000; stroke-linecap:round; stroke-linejoin:round; stroke-width:4; stroke-opacity:1; fill:none" points="249.357,965.701 268.254,965.701 "/>
<polyline clip-path="url(#clip340)" style="stroke:#000000; stroke-linecap:round; stroke-linejoin:round; stroke-width:4; stroke-opacity:1; fill:none" points="249.357,571.175 268.254,571.175 "/>
<polyline clip-path="url(#clip340)" style="stroke:#000000; stroke-linecap:round; stroke-linejoin:round; stroke-width:4; stroke-opacity:1; fill:none" points="249.357,176.649 268.254,176.649 "/>
<polyline clip-path="url(#clip340)" style="stroke:#000000; stroke-linecap:round; stroke-linejoin:round; stroke-width:4; stroke-opacity:1; fill:none" points="2352.76,1360.23 2333.86,1360.23 "/>
<polyline clip-path="url(#clip340)" style="stroke:#000000; stroke-linecap:round; stroke-linejoin:round; stroke-width:4; stroke-opacity:1; fill:none" points="2352.76,965.701 2333.86,965.701 "/>
<polyline clip-path="url(#clip340)" style="stroke:#000000; stroke-linecap:round; stroke-linejoin:round; stroke-width:4; stroke-opacity:1; fill:none" points="2352.76,571.175 2333.86,571.175 "/>
<polyline clip-path="url(#clip340)" style="stroke:#000000; stroke-linecap:round; stroke-linejoin:round; stroke-width:4; stroke-opacity:1; fill:none" points="2352.76,176.649 2333.86,176.649 "/>
<path clip-path="url(#clip340)" d="M127.593 1358.36 Q124.445 1358.36 122.593 1360.52 Q120.765 1362.67 120.765 1366.42 Q120.765 1370.15 122.593 1372.32 Q124.445 1374.47 127.593 1374.47 Q130.742 1374.47 132.57 1372.32 Q134.422 1370.15 134.422 1366.42 Q134.422 1362.67 132.57 1360.52 Q130.742 1358.36 127.593 1358.36 M136.876 1343.71 L136.876 1347.97 Q135.117 1347.14 133.311 1346.7 Q131.529 1346.26 129.769 1346.26 Q125.14 1346.26 122.686 1349.38 Q120.255 1352.51 119.908 1358.83 Q121.274 1356.81 123.334 1355.75 Q125.394 1354.66 127.871 1354.66 Q133.08 1354.66 136.089 1357.83 Q139.121 1360.98 139.121 1366.42 Q139.121 1371.74 135.973 1374.96 Q132.825 1378.18 127.593 1378.18 Q121.598 1378.18 118.427 1373.6 Q115.256 1368.99 115.256 1360.26 Q115.256 1352.07 119.144 1347.21 Q123.033 1342.32 129.584 1342.32 Q131.343 1342.32 133.126 1342.67 Q134.931 1343.02 136.876 1343.71 Z" fill="#000000" fill-rule="nonzero" fill-opacity="1" /><path clip-path="url(#clip340)" d="M147.223 1342.95 L165.579 1342.95 L165.579 1346.88 L151.505 1346.88 L151.505 1355.35 Q152.524 1355.01 153.542 1354.85 Q154.561 1354.66 155.579 1354.66 Q161.366 1354.66 164.746 1357.83 Q168.126 1361 168.126 1366.42 Q168.126 1372 164.653 1375.1 Q161.181 1378.18 154.862 1378.18 Q152.686 1378.18 150.417 1377.81 Q148.172 1377.44 145.765 1376.7 L145.765 1372 Q147.848 1373.13 150.07 1373.69 Q152.292 1374.24 154.769 1374.24 Q158.774 1374.24 161.112 1372.14 Q163.45 1370.03 163.45 1366.42 Q163.45 1362.81 161.112 1360.7 Q158.774 1358.6 154.769 1358.6 Q152.894 1358.6 151.019 1359.01 Q149.167 1359.43 147.223 1360.31 L147.223 1342.95 Z" fill="#000000" fill-rule="nonzero" fill-opacity="1" /><path clip-path="url(#clip340)" d="M177.339 1371.63 L182.223 1371.63 L182.223 1377.51 L177.339 1377.51 L177.339 1371.63 Z" fill="#000000" fill-rule="nonzero" fill-opacity="1" /><path clip-path="url(#clip340)" d="M192.454 1342.95 L210.811 1342.95 L210.811 1346.88 L196.737 1346.88 L196.737 1355.35 Q197.755 1355.01 198.774 1354.85 Q199.792 1354.66 200.811 1354.66 Q206.598 1354.66 209.977 1357.83 Q213.357 1361 213.357 1366.42 Q213.357 1372 209.885 1375.1 Q206.412 1378.18 200.093 1378.18 Q197.917 1378.18 195.649 1377.81 Q193.403 1377.44 190.996 1376.7 L190.996 1372 Q193.079 1373.13 195.301 1373.69 Q197.524 1374.24 200 1374.24 Q204.005 1374.24 206.343 1372.14 Q208.681 1370.03 208.681 1366.42 Q208.681 1362.81 206.343 1360.7 Q204.005 1358.6 200 1358.6 Q198.125 1358.6 196.25 1359.01 Q194.399 1359.43 192.454 1360.31 L192.454 1342.95 Z" fill="#000000" fill-rule="nonzero" fill-opacity="1" /><path clip-path="url(#clip340)" d="M126.598 963.838 Q123.45 963.838 121.598 965.99 Q119.769 968.143 119.769 971.893 Q119.769 975.62 121.598 977.796 Q123.45 979.949 126.598 979.949 Q129.746 979.949 131.575 977.796 Q133.427 975.62 133.427 971.893 Q133.427 968.143 131.575 965.99 Q129.746 963.838 126.598 963.838 M135.88 949.185 L135.88 953.444 Q134.121 952.611 132.316 952.171 Q130.533 951.731 128.774 951.731 Q124.144 951.731 121.691 954.856 Q119.26 957.981 118.913 964.301 Q120.279 962.287 122.339 961.222 Q124.399 960.134 126.876 960.134 Q132.084 960.134 135.093 963.305 Q138.126 966.453 138.126 971.893 Q138.126 977.217 134.978 980.435 Q131.83 983.652 126.598 983.652 Q120.603 983.652 117.431 979.069 Q114.26 974.463 114.26 965.736 Q114.26 957.541 118.149 952.68 Q122.038 947.796 128.589 947.796 Q130.348 947.796 132.13 948.143 Q133.936 948.49 135.88 949.185 Z" fill="#000000" fill-rule="nonzero" fill-opacity="1" /><path clip-path="url(#clip340)" d="M156.76 963.838 Q153.612 963.838 151.76 965.99 Q149.931 968.143 149.931 971.893 Q149.931 975.62 151.76 977.796 Q153.612 979.949 156.76 979.949 Q159.908 979.949 161.737 977.796 Q163.589 975.62 163.589 971.893 Q163.589 968.143 161.737 965.99 Q159.908 963.838 156.76 963.838 M166.042 949.185 L166.042 953.444 Q164.283 952.611 162.477 952.171 Q160.695 951.731 158.936 951.731 Q154.306 951.731 151.853 954.856 Q149.422 957.981 149.075 964.301 Q150.441 962.287 152.501 961.222 Q154.561 960.134 157.038 960.134 Q162.246 960.134 165.255 963.305 Q168.288 966.453 168.288 971.893 Q168.288 977.217 165.14 980.435 Q161.991 983.652 156.76 983.652 Q150.765 983.652 147.593 979.069 Q144.422 974.463 144.422 965.736 Q144.422 957.541 148.311 952.68 Q152.2 947.796 158.751 947.796 Q160.51 947.796 162.292 948.143 Q164.098 948.49 166.042 949.185 Z" fill="#000000" fill-rule="nonzero" fill-opacity="1" /><path clip-path="url(#clip340)" d="M176.343 977.101 L181.227 977.101 L181.227 982.981 L176.343 982.981 L176.343 977.101 Z" fill="#000000" fill-rule="nonzero" fill-opacity="1" /><path clip-path="url(#clip340)" d="M201.412 951.5 Q197.801 951.5 195.973 955.064 Q194.167 958.606 194.167 965.736 Q194.167 972.842 195.973 976.407 Q197.801 979.949 201.412 979.949 Q205.047 979.949 206.852 976.407 Q208.681 972.842 208.681 965.736 Q208.681 958.606 206.852 955.064 Q205.047 951.5 201.412 951.5 M201.412 947.796 Q207.223 947.796 210.278 952.402 Q213.357 956.986 213.357 965.736 Q213.357 974.463 210.278 979.069 Q207.223 983.652 201.412 983.652 Q195.602 983.652 192.524 979.069 Q189.468 974.463 189.468 965.736 Q189.468 956.986 192.524 952.402 Q195.602 947.796 201.412 947.796 Z" fill="#000000" fill-rule="nonzero" fill-opacity="1" /><path clip-path="url(#clip340)" d="M127.593 569.311 Q124.445 569.311 122.593 571.464 Q120.765 573.617 120.765 577.367 Q120.765 581.094 122.593 583.27 Q124.445 585.422 127.593 585.422 Q130.742 585.422 132.57 583.27 Q134.422 581.094 134.422 577.367 Q134.422 573.617 132.57 571.464 Q130.742 569.311 127.593 569.311 M136.876 554.659 L136.876 558.918 Q135.117 558.085 133.311 557.645 Q131.529 557.205 129.769 557.205 Q125.14 557.205 122.686 560.33 Q120.255 563.455 119.908 569.774 Q121.274 567.76 123.334 566.696 Q125.394 565.608 127.871 565.608 Q133.08 565.608 136.089 568.779 Q139.121 571.927 139.121 577.367 Q139.121 582.691 135.973 585.909 Q132.825 589.126 127.593 589.126 Q121.598 589.126 118.427 584.543 Q115.256 579.936 115.256 571.21 Q115.256 563.015 119.144 558.154 Q123.033 553.27 129.584 553.27 Q131.343 553.27 133.126 553.617 Q134.931 553.964 136.876 554.659 Z" fill="#000000" fill-rule="nonzero" fill-opacity="1" /><path clip-path="url(#clip340)" d="M157.755 569.311 Q154.607 569.311 152.755 571.464 Q150.927 573.617 150.927 577.367 Q150.927 581.094 152.755 583.27 Q154.607 585.422 157.755 585.422 Q160.903 585.422 162.732 583.27 Q164.584 581.094 164.584 577.367 Q164.584 573.617 162.732 571.464 Q160.903 569.311 157.755 569.311 M167.038 554.659 L167.038 558.918 Q165.278 558.085 163.473 557.645 Q161.69 557.205 159.931 557.205 Q155.302 557.205 152.848 560.33 Q150.417 563.455 150.07 569.774 Q151.436 567.76 153.496 566.696 Q155.556 565.608 158.033 565.608 Q163.241 565.608 166.251 568.779 Q169.283 571.927 169.283 577.367 Q169.283 582.691 166.135 585.909 Q162.987 589.126 157.755 589.126 Q151.76 589.126 148.589 584.543 Q145.417 579.936 145.417 571.21 Q145.417 563.015 149.306 558.154 Q153.195 553.27 159.746 553.27 Q161.505 553.27 163.288 553.617 Q165.093 553.964 167.038 554.659 Z" fill="#000000" fill-rule="nonzero" fill-opacity="1" /><path clip-path="url(#clip340)" d="M177.339 582.575 L182.223 582.575 L182.223 588.455 L177.339 588.455 L177.339 582.575 Z" fill="#000000" fill-rule="nonzero" fill-opacity="1" /><path clip-path="url(#clip340)" d="M192.454 553.895 L210.811 553.895 L210.811 557.83 L196.737 557.83 L196.737 566.302 Q197.755 565.955 198.774 565.793 Q199.792 565.608 200.811 565.608 Q206.598 565.608 209.977 568.779 Q213.357 571.95 213.357 577.367 Q213.357 582.946 209.885 586.047 Q206.412 589.126 200.093 589.126 Q197.917 589.126 195.649 588.756 Q193.403 588.385 190.996 587.645 L190.996 582.946 Q193.079 584.08 195.301 584.635 Q197.524 585.191 200 585.191 Q204.005 585.191 206.343 583.084 Q208.681 580.978 208.681 577.367 Q208.681 573.756 206.343 571.649 Q204.005 569.543 200 569.543 Q198.125 569.543 196.25 569.96 Q194.399 570.376 192.454 571.256 L192.454 553.895 Z" fill="#000000" fill-rule="nonzero" fill-opacity="1" /><path clip-path="url(#clip340)" d="M126.598 174.785 Q123.45 174.785 121.598 176.938 Q119.769 179.091 119.769 182.841 Q119.769 186.568 121.598 188.744 Q123.45 190.896 126.598 190.896 Q129.746 190.896 131.575 188.744 Q133.427 186.568 133.427 182.841 Q133.427 179.091 131.575 176.938 Q129.746 174.785 126.598 174.785 M135.88 160.133 L135.88 164.392 Q134.121 163.558 132.316 163.119 Q130.533 162.679 128.774 162.679 Q124.144 162.679 121.691 165.804 Q119.26 168.929 118.913 175.248 Q120.279 173.234 122.339 172.17 Q124.399 171.082 126.876 171.082 Q132.084 171.082 135.093 174.253 Q138.126 177.401 138.126 182.841 Q138.126 188.165 134.978 191.382 Q131.83 194.6 126.598 194.6 Q120.603 194.6 117.431 190.017 Q114.26 185.41 114.26 176.683 Q114.26 168.489 118.149 163.628 Q122.038 158.744 128.589 158.744 Q130.348 158.744 132.13 159.091 Q133.936 159.438 135.88 160.133 Z" fill="#000000" fill-rule="nonzero" fill-opacity="1" /><path clip-path="url(#clip340)" d="M145.001 159.369 L167.223 159.369 L167.223 161.359 L154.677 193.929 L149.792 193.929 L161.598 163.304 L145.001 163.304 L145.001 159.369 Z" fill="#000000" fill-rule="nonzero" fill-opacity="1" /><path clip-path="url(#clip340)" d="M176.343 188.049 L181.227 188.049 L181.227 193.929 L176.343 193.929 L176.343 188.049 Z" fill="#000000" fill-rule="nonzero" fill-opacity="1" /><path clip-path="url(#clip340)" d="M201.412 162.447 Q197.801 162.447 195.973 166.012 Q194.167 169.554 194.167 176.683 Q194.167 183.79 195.973 187.355 Q197.801 190.896 201.412 190.896 Q205.047 190.896 206.852 187.355 Q208.681 183.79 208.681 176.683 Q208.681 169.554 206.852 166.012 Q205.047 162.447 201.412 162.447 M201.412 158.744 Q207.223 158.744 210.278 163.35 Q213.357 167.933 213.357 176.683 Q213.357 185.41 210.278 190.017 Q207.223 194.6 201.412 194.6 Q195.602 194.6 192.524 190.017 Q189.468 185.41 189.468 176.683 Q189.468 167.933 192.524 163.35 Q195.602 158.744 201.412 158.744 Z" fill="#000000" fill-rule="nonzero" fill-opacity="1" /><path clip-path="url(#clip340)" d="M22.818 922.094 L46.4666 930.815 L46.4666 913.341 L22.818 922.094 M16.4842 925.723 L16.4842 918.434 L64.0042 900.324 L64.0042 907.008 L51.8138 911.336 L51.8138 932.757 L64.0042 937.085 L64.0042 943.865 L16.4842 925.723 Z" fill="#000000" fill-rule="nonzero" fill-opacity="1" /><path clip-path="url(#clip340)" d="M45.7664 870.182 Q39.4007 870.182 35.8996 872.824 Q32.3984 875.434 32.3984 880.176 Q32.3984 884.887 35.8996 887.528 Q39.4007 890.138 45.7664 890.138 Q52.1003 890.138 55.6014 887.528 Q59.1026 884.887 59.1026 880.176 Q59.1026 875.434 55.6014 872.824 Q52.1003 870.182 45.7664 870.182 M59.58 864.325 Q68.683 864.325 73.1071 868.368 Q77.5631 872.41 77.5631 880.749 Q77.5631 883.836 77.0857 886.574 Q76.6401 889.311 75.6852 891.889 L69.9879 891.889 Q71.3884 889.311 72.0568 886.796 Q72.7252 884.282 72.7252 881.672 Q72.7252 875.911 69.7015 873.046 Q66.7096 870.182 60.6303 870.182 L57.7339 870.182 Q60.885 871.996 62.4446 874.829 Q64.0042 877.662 64.0042 881.608 Q64.0042 888.165 59.0071 892.175 Q54.01 896.186 45.7664 896.186 Q37.491 896.186 32.4939 892.175 Q27.4968 888.165 27.4968 881.608 Q27.4968 877.662 29.0564 874.829 Q30.616 871.996 33.7671 870.182 L28.3562 870.182 L28.3562 864.325 L59.58 864.325 Z" fill="#000000" fill-rule="nonzero" fill-opacity="1" /><path clip-path="url(#clip340)" d="M44.7161 821.771 L47.5806 821.771 L47.5806 848.698 Q53.6281 848.316 56.8109 845.069 Q59.9619 841.791 59.9619 835.966 Q59.9619 832.592 59.1344 829.441 Q58.3069 826.259 56.6518 823.139 L62.1899 823.139 Q63.5267 826.29 64.227 829.601 Q64.9272 832.911 64.9272 836.316 Q64.9272 844.846 59.9619 849.843 Q54.9967 854.809 46.5303 854.809 Q37.7774 854.809 32.6531 850.098 Q27.4968 845.356 27.4968 837.335 Q27.4968 830.142 32.1438 825.972 Q36.7589 821.771 44.7161 821.771 M42.9973 827.627 Q38.1912 827.691 35.3266 830.333 Q32.4621 832.943 32.4621 837.271 Q32.4621 842.173 35.2312 845.133 Q38.0002 848.061 43.0292 848.507 L42.9973 827.627 Z" fill="#000000" fill-rule="nonzero" fill-opacity="1" /><path clip-path="url(#clip340)" d="M14.5426 777.37 Q21.8632 781.635 29.0246 783.704 Q36.186 785.773 43.5384 785.773 Q50.8908 785.773 58.1159 783.704 Q65.3091 781.603 72.5979 777.37 L72.5979 782.462 Q65.1182 787.237 57.8931 789.624 Q50.668 791.979 43.5384 791.979 Q36.4406 791.979 29.2474 789.624 Q22.0542 787.269 14.5426 782.462 L14.5426 777.37 Z" fill="#000000" fill-rule="nonzero" fill-opacity="1" /><path clip-path="url(#clip340)" d="M16.4842 765.752 L16.4842 756.172 L48.8219 744.045 L16.4842 731.855 L16.4842 722.275 L64.0042 722.275 L64.0042 728.545 L22.277 728.545 L54.8694 740.799 L54.8694 747.26 L22.277 759.514 L64.0042 759.514 L64.0042 765.752 L16.4842 765.752 Z" fill="#000000" fill-rule="nonzero" fill-opacity="1" /><path clip-path="url(#clip340)" d="M46.0847 693.565 Q46.0847 700.663 47.7079 703.4 Q49.3312 706.138 53.2461 706.138 Q56.3653 706.138 58.2114 704.101 Q60.0256 702.032 60.0256 698.499 Q60.0256 693.629 56.5881 690.701 Q53.1188 687.741 47.3897 687.741 L46.0847 687.741 L46.0847 693.565 M43.6657 681.884 L64.0042 681.884 L64.0042 687.741 L58.5933 687.741 Q61.8398 689.746 63.3994 692.738 Q64.9272 695.73 64.9272 700.058 Q64.9272 705.533 61.8716 708.779 Q58.7843 711.994 53.6281 711.994 Q47.6125 711.994 44.5569 707.984 Q41.5014 703.941 41.5014 695.953 L41.5014 687.741 L40.9285 687.741 Q36.8862 687.741 34.6901 690.414 Q32.4621 693.056 32.4621 697.862 Q32.4621 700.918 33.1941 703.814 Q33.9262 706.711 35.3903 709.384 L29.9795 709.384 Q28.7381 706.169 28.1334 703.146 Q27.4968 700.122 27.4968 697.257 Q27.4968 689.523 31.5072 685.704 Q35.5176 681.884 43.6657 681.884 Z" fill="#000000" fill-rule="nonzero" fill-opacity="1" /><path clip-path="url(#clip340)" d="M14.5426 670.744 L14.5426 665.652 Q22.0542 660.877 29.2474 658.522 Q36.4406 656.135 43.5384 656.135 Q50.668 656.135 57.8931 658.522 Q65.1182 660.877 72.5979 665.652 L72.5979 670.744 Q65.3091 666.511 58.1159 664.442 Q50.8908 662.342 43.5384 662.342 Q36.186 662.342 29.0246 664.442 Q21.8632 666.511 14.5426 670.744 Z" fill="#000000" fill-rule="nonzero" fill-opacity="1" /><polyline clip-path="url(#clip342)" style="stroke:#009af9; stroke-linecap:round; stroke-linejoin:round; stroke-width:4; stroke-opacity:1; fill:none" points="308.887,1136.93 308.887,996.474 "/>
<polyline clip-path="url(#clip342)" style="stroke:#009af9; stroke-linecap:round; stroke-linejoin:round; stroke-width:4; stroke-opacity:1; fill:none" points="507.321,1155.07 507.321,902.577 "/>
<polyline clip-path="url(#clip342)" style="stroke:#009af9; stroke-linecap:round; stroke-linejoin:round; stroke-width:4; stroke-opacity:1; fill:none" points="705.755,1510.15 705.755,547.503 "/>
<polyline clip-path="url(#clip342)" style="stroke:#009af9; stroke-linecap:round; stroke-linejoin:round; stroke-width:4; stroke-opacity:1; fill:none" points="904.189,1131.4 904.189,910.467 "/>
<polyline clip-path="url(#clip342)" style="stroke:#009af9; stroke-linecap:round; stroke-linejoin:round; stroke-width:4; stroke-opacity:1; fill:none" points="1102.62,1233.98 1102.62,792.109 "/>
<polyline clip-path="url(#clip342)" style="stroke:#009af9; stroke-linecap:round; stroke-linejoin:round; stroke-width:4; stroke-opacity:1; fill:none" points="1301.06,1186.64 1301.06,807.891 "/>
<polyline clip-path="url(#clip342)" style="stroke:#009af9; stroke-linecap:round; stroke-linejoin:round; stroke-width:4; stroke-opacity:1; fill:none" points="1499.49,1131.4 1499.49,752.657 "/>
<polyline clip-path="url(#clip342)" style="stroke:#009af9; stroke-linecap:round; stroke-linejoin:round; stroke-width:4; stroke-opacity:1; fill:none" points="1697.92,980.693 1697.92,827.617 "/>
<polyline clip-path="url(#clip342)" style="stroke:#009af9; stroke-linecap:round; stroke-linejoin:round; stroke-width:4; stroke-opacity:1; fill:none" points="1896.36,1376.01 1896.36,208.211 "/>
<polyline clip-path="url(#clip342)" style="stroke:#009af9; stroke-linecap:round; stroke-linejoin:round; stroke-width:4; stroke-opacity:1; fill:none" points="2094.79,997.263 2094.79,571.175 "/>
<polyline clip-path="url(#clip342)" style="stroke:#009af9; stroke-linecap:round; stroke-linejoin:round; stroke-width:4; stroke-opacity:1; fill:none" points="2293.23,1336.56 2293.23,89.8529 "/>
<line clip-path="url(#clip342)" x1="324.887" y1="1136.93" x2="292.887" y2="1136.93" style="stroke:#009af9; stroke-width:4; stroke-opacity:1"/>
<line clip-path="url(#clip342)" x1="324.887" y1="996.474" x2="292.887" y2="996.474" style="stroke:#009af9; stroke-width:4; stroke-opacity:1"/>
<line clip-path="url(#clip342)" x1="523.321" y1="1155.07" x2="491.321" y2="1155.07" style="stroke:#009af9; stroke-width:4; stroke-opacity:1"/>
<line clip-path="url(#clip342)" x1="523.321" y1="902.577" x2="491.321" y2="902.577" style="stroke:#009af9; stroke-width:4; stroke-opacity:1"/>
<line clip-path="url(#clip342)" x1="721.755" y1="1510.15" x2="689.755" y2="1510.15" style="stroke:#009af9; stroke-width:4; stroke-opacity:1"/>
<line clip-path="url(#clip342)" x1="721.755" y1="547.503" x2="689.755" y2="547.503" style="stroke:#009af9; stroke-width:4; stroke-opacity:1"/>
<line clip-path="url(#clip342)" x1="920.189" y1="1131.4" x2="888.189" y2="1131.4" style="stroke:#009af9; stroke-width:4; stroke-opacity:1"/>
<line clip-path="url(#clip342)" x1="920.189" y1="910.467" x2="888.189" y2="910.467" style="stroke:#009af9; stroke-width:4; stroke-opacity:1"/>
<line clip-path="url(#clip342)" x1="1118.62" y1="1233.98" x2="1086.62" y2="1233.98" style="stroke:#009af9; stroke-width:4; stroke-opacity:1"/>
<line clip-path="url(#clip342)" x1="1118.62" y1="792.109" x2="1086.62" y2="792.109" style="stroke:#009af9; stroke-width:4; stroke-opacity:1"/>
<line clip-path="url(#clip342)" x1="1317.06" y1="1186.64" x2="1285.06" y2="1186.64" style="stroke:#009af9; stroke-width:4; stroke-opacity:1"/>
<line clip-path="url(#clip342)" x1="1317.06" y1="807.891" x2="1285.06" y2="807.891" style="stroke:#009af9; stroke-width:4; stroke-opacity:1"/>
<line clip-path="url(#clip342)" x1="1515.49" y1="1131.4" x2="1483.49" y2="1131.4" style="stroke:#009af9; stroke-width:4; stroke-opacity:1"/>
<line clip-path="url(#clip342)" x1="1515.49" y1="752.657" x2="1483.49" y2="752.657" style="stroke:#009af9; stroke-width:4; stroke-opacity:1"/>
<line clip-path="url(#clip342)" x1="1713.92" y1="980.693" x2="1681.92" y2="980.693" style="stroke:#009af9; stroke-width:4; stroke-opacity:1"/>
<line clip-path="url(#clip342)" x1="1713.92" y1="827.617" x2="1681.92" y2="827.617" style="stroke:#009af9; stroke-width:4; stroke-opacity:1"/>
<line clip-path="url(#clip342)" x1="1912.36" y1="1376.01" x2="1880.36" y2="1376.01" style="stroke:#009af9; stroke-width:4; stroke-opacity:1"/>
<line clip-path="url(#clip342)" x1="1912.36" y1="208.211" x2="1880.36" y2="208.211" style="stroke:#009af9; stroke-width:4; stroke-opacity:1"/>
<line clip-path="url(#clip342)" x1="2110.79" y1="997.263" x2="2078.79" y2="997.263" style="stroke:#009af9; stroke-width:4; stroke-opacity:1"/>
<line clip-path="url(#clip342)" x1="2110.79" y1="571.175" x2="2078.79" y2="571.175" style="stroke:#009af9; stroke-width:4; stroke-opacity:1"/>
<line clip-path="url(#clip342)" x1="2309.23" y1="1336.56" x2="2277.23" y2="1336.56" style="stroke:#009af9; stroke-width:4; stroke-opacity:1"/>
<line clip-path="url(#clip342)" x1="2309.23" y1="89.8529" x2="2277.23" y2="89.8529" style="stroke:#009af9; stroke-width:4; stroke-opacity:1"/>
<circle clip-path="url(#clip342)" cx="308.887" cy="1066.7" r="14.4" fill="#009af9" fill-rule="evenodd" fill-opacity="1" stroke="none"/>
<circle clip-path="url(#clip342)" cx="507.321" cy="1028.83" r="14.4" fill="#009af9" fill-rule="evenodd" fill-opacity="1" stroke="none"/>
<circle clip-path="url(#clip342)" cx="705.755" cy="1028.83" r="14.4" fill="#009af9" fill-rule="evenodd" fill-opacity="1" stroke="none"/>
<circle clip-path="url(#clip342)" cx="904.189" cy="1020.93" r="14.4" fill="#009af9" fill-rule="evenodd" fill-opacity="1" stroke="none"/>
<circle clip-path="url(#clip342)" cx="1102.62" cy="1013.04" r="14.4" fill="#009af9" fill-rule="evenodd" fill-opacity="1" stroke="none"/>
<circle clip-path="url(#clip342)" cx="1301.06" cy="997.263" r="14.4" fill="#009af9" fill-rule="evenodd" fill-opacity="1" stroke="none"/>
<circle clip-path="url(#clip342)" cx="1499.49" cy="942.029" r="14.4" fill="#009af9" fill-rule="evenodd" fill-opacity="1" stroke="none"/>
<circle clip-path="url(#clip342)" cx="1697.92" cy="904.155" r="14.4" fill="#009af9" fill-rule="evenodd" fill-opacity="1" stroke="none"/>
<circle clip-path="url(#clip342)" cx="1896.36" cy="792.109" r="14.4" fill="#009af9" fill-rule="evenodd" fill-opacity="1" stroke="none"/>
<circle clip-path="url(#clip342)" cx="2094.79" cy="784.219" r="14.4" fill="#009af9" fill-rule="evenodd" fill-opacity="1" stroke="none"/>
<circle clip-path="url(#clip342)" cx="2293.23" cy="713.204" r="14.4" fill="#009af9" fill-rule="evenodd" fill-opacity="1" stroke="none"/>
<path clip-path="url(#clip342)" d="M308.887 1096.22 L507.321 1096.22 L705.755 1096.22 L904.189 1096.22 L1102.62 1096.22 L1301.06 1096.22 L1499.49 1096.22 L1697.92 1096.22 L1896.36 1096.22 L2094.79 1096.22 L2293.23 1096.22 L2293.23 997.94 L2094.79 997.94 L1896.36 997.94 L1697.92 997.94 L1499.49 997.94 L1301.06 997.94 L1102.62 997.94 L904.189 997.94 L705.755 997.94 L507.321 997.94 L308.887 997.94  Z" fill="#e26f46" fill-rule="evenodd" fill-opacity="0.6"/>
<polyline clip-path="url(#clip342)" style="stroke:#e26f46; stroke-linecap:round; stroke-linejoin:round; stroke-width:4; stroke-opacity:0; fill:none" points="308.887,1096.22 507.321,1096.22 705.755,1096.22 904.189,1096.22 1102.62,1096.22 1301.06,1096.22 1499.49,1096.22 1697.92,1096.22 1896.36,1096.22 2094.79,1096.22 2293.23,1096.22 "/>
<polyline clip-path="url(#clip342)" style="stroke:#000000; stroke-linecap:round; stroke-linejoin:round; stroke-width:4; stroke-opacity:1; fill:none" stroke-dasharray="2, 4" points="308.887,1042.69 507.321,1042.69 705.755,1042.69 904.189,1042.69 1102.62,1042.69 1301.06,1042.69 1499.49,1042.69 1697.92,1042.69 1896.36,1042.69 2094.79,1042.69 2293.23,1042.69 "/>
<path clip-path="url(#clip340)" d="M319.47 252.948 L1325.69 252.948 L1325.69 97.4278 L319.47 97.4278  Z" fill="#ffffff" fill-rule="evenodd" fill-opacity="1"/>
<polyline clip-path="url(#clip340)" style="stroke:#ffffff; stroke-linecap:round; stroke-linejoin:round; stroke-width:4; stroke-opacity:1; fill:none" points="319.47,252.948 1325.69,252.948 1325.69,97.4278 319.47,97.4278 319.47,252.948 "/>
<circle clip-path="url(#clip340)" cx="412.955" cy="149.268" r="20.48" fill="#009af9" fill-rule="evenodd" fill-opacity="1" stroke="none"/>
<path clip-path="url(#clip340)" d="M511.115 135.83 L511.115 162.705 L516.763 162.705 Q523.916 162.705 527.226 159.465 Q530.559 156.224 530.559 149.233 Q530.559 142.289 527.226 139.071 Q523.916 135.83 516.763 135.83 L511.115 135.83 M506.439 131.988 L516.045 131.988 Q526.092 131.988 530.791 136.178 Q535.49 140.344 535.49 149.233 Q535.49 158.168 530.768 162.358 Q526.045 166.548 516.045 166.548 L506.439 166.548 L506.439 131.988 Z" fill="#000000" fill-rule="nonzero" fill-opacity="1" /><path clip-path="url(#clip340)" d="M554.541 153.515 Q549.379 153.515 547.388 154.696 Q545.397 155.877 545.397 158.724 Q545.397 160.992 546.879 162.335 Q548.383 163.654 550.953 163.654 Q554.494 163.654 556.624 161.154 Q558.777 158.631 558.777 154.465 L558.777 153.515 L554.541 153.515 M563.036 151.756 L563.036 166.548 L558.777 166.548 L558.777 162.613 Q557.318 164.974 555.142 166.108 Q552.966 167.219 549.818 167.219 Q545.837 167.219 543.476 164.997 Q541.138 162.752 541.138 159.002 Q541.138 154.627 544.054 152.404 Q546.994 150.182 552.804 150.182 L558.777 150.182 L558.777 149.766 Q558.777 146.826 556.832 145.228 Q554.911 143.608 551.416 143.608 Q549.193 143.608 547.087 144.141 Q544.98 144.673 543.036 145.738 L543.036 141.803 Q545.374 140.9 547.573 140.46 Q549.772 139.997 551.855 139.997 Q557.48 139.997 560.258 142.914 Q563.036 145.83 563.036 151.756 Z" fill="#000000" fill-rule="nonzero" fill-opacity="1" /><path clip-path="url(#clip340)" d="M576.022 133.261 L576.022 140.622 L584.795 140.622 L584.795 143.932 L576.022 143.932 L576.022 158.006 Q576.022 161.177 576.878 162.08 Q577.758 162.983 580.42 162.983 L584.795 162.983 L584.795 166.548 L580.42 166.548 Q575.49 166.548 573.615 164.719 Q571.74 162.867 571.74 158.006 L571.74 143.932 L568.615 143.932 L568.615 140.622 L571.74 140.622 L571.74 133.261 L576.022 133.261 Z" fill="#000000" fill-rule="nonzero" fill-opacity="1" /><path clip-path="url(#clip340)" d="M602.179 153.515 Q597.017 153.515 595.026 154.696 Q593.036 155.877 593.036 158.724 Q593.036 160.992 594.517 162.335 Q596.022 163.654 598.591 163.654 Q602.133 163.654 604.263 161.154 Q606.415 158.631 606.415 154.465 L606.415 153.515 L602.179 153.515 M610.675 151.756 L610.675 166.548 L606.415 166.548 L606.415 162.613 Q604.957 164.974 602.781 166.108 Q600.605 167.219 597.457 167.219 Q593.476 167.219 591.114 164.997 Q588.776 162.752 588.776 159.002 Q588.776 154.627 591.693 152.404 Q594.633 150.182 600.443 150.182 L606.415 150.182 L606.415 149.766 Q606.415 146.826 604.471 145.228 Q602.55 143.608 599.054 143.608 Q596.832 143.608 594.726 144.141 Q592.619 144.673 590.675 145.738 L590.675 141.803 Q593.013 140.9 595.212 140.46 Q597.411 139.997 599.494 139.997 Q605.119 139.997 607.897 142.914 Q610.675 145.83 610.675 151.756 Z" fill="#000000" fill-rule="nonzero" fill-opacity="1" /><path clip-path="url(#clip340)" d="M644.748 130.576 Q641.647 135.9 640.142 141.108 Q638.637 146.316 638.637 151.664 Q638.637 157.011 640.142 162.265 Q641.67 167.497 644.748 172.798 L641.045 172.798 Q637.573 167.358 635.836 162.103 Q634.123 156.849 634.123 151.664 Q634.123 146.502 635.836 141.27 Q637.549 136.039 641.045 130.576 L644.748 130.576 Z" fill="#000000" fill-rule="nonzero" fill-opacity="1" /><path clip-path="url(#clip340)" d="M663.058 143.608 Q659.633 143.608 657.642 146.293 Q655.651 148.955 655.651 153.608 Q655.651 158.261 657.619 160.946 Q659.609 163.608 663.058 163.608 Q666.461 163.608 668.452 160.923 Q670.443 158.238 670.443 153.608 Q670.443 149.002 668.452 146.316 Q666.461 143.608 663.058 143.608 M663.058 139.997 Q668.614 139.997 671.785 143.608 Q674.957 147.219 674.957 153.608 Q674.957 159.974 671.785 163.608 Q668.614 167.219 663.058 167.219 Q657.48 167.219 654.309 163.608 Q651.16 159.974 651.16 153.608 Q651.16 147.219 654.309 143.608 Q657.48 139.997 663.058 139.997 Z" fill="#000000" fill-rule="nonzero" fill-opacity="1" /><path clip-path="url(#clip340)" d="M700.628 153.608 Q700.628 148.909 698.683 146.247 Q696.762 143.562 693.382 143.562 Q690.003 143.562 688.058 146.247 Q686.137 148.909 686.137 153.608 Q686.137 158.307 688.058 160.992 Q690.003 163.654 693.382 163.654 Q696.762 163.654 698.683 160.992 Q700.628 158.307 700.628 153.608 M686.137 144.557 Q687.48 142.242 689.517 141.131 Q691.577 139.997 694.424 139.997 Q699.146 139.997 702.086 143.747 Q705.049 147.497 705.049 153.608 Q705.049 159.719 702.086 163.469 Q699.146 167.219 694.424 167.219 Q691.577 167.219 689.517 166.108 Q687.48 164.974 686.137 162.659 L686.137 166.548 L681.855 166.548 L681.855 130.529 L686.137 130.529 L686.137 144.557 Z" fill="#000000" fill-rule="nonzero" fill-opacity="1" /><path clip-path="url(#clip340)" d="M728.637 141.386 L728.637 145.414 Q726.831 144.488 724.887 144.025 Q722.942 143.562 720.859 143.562 Q717.688 143.562 716.091 144.534 Q714.517 145.506 714.517 147.451 Q714.517 148.932 715.651 149.789 Q716.785 150.622 720.211 151.386 L721.669 151.71 Q726.206 152.682 728.104 154.465 Q730.026 156.224 730.026 159.395 Q730.026 163.006 727.155 165.113 Q724.308 167.219 719.308 167.219 Q717.225 167.219 714.956 166.802 Q712.711 166.409 710.211 165.599 L710.211 161.201 Q712.572 162.427 714.864 163.052 Q717.155 163.654 719.401 163.654 Q722.41 163.654 724.03 162.636 Q725.651 161.594 725.651 159.719 Q725.651 157.983 724.47 157.057 Q723.313 156.131 719.354 155.275 L717.873 154.928 Q713.915 154.094 712.155 152.381 Q710.396 150.645 710.396 147.636 Q710.396 143.978 712.989 141.988 Q715.581 139.997 720.35 139.997 Q722.711 139.997 724.794 140.344 Q726.878 140.691 728.637 141.386 Z" fill="#000000" fill-rule="nonzero" fill-opacity="1" /><path clip-path="url(#clip340)" d="M758.984 152.52 L758.984 154.603 L739.401 154.603 Q739.678 159.002 742.04 161.316 Q744.424 163.608 748.66 163.608 Q751.114 163.608 753.405 163.006 Q755.72 162.404 757.989 161.201 L757.989 165.228 Q755.697 166.201 753.289 166.71 Q750.882 167.219 748.405 167.219 Q742.202 167.219 738.567 163.608 Q734.956 159.997 734.956 153.84 Q734.956 147.474 738.382 143.747 Q741.831 139.997 747.665 139.997 Q752.896 139.997 755.928 143.377 Q758.984 146.733 758.984 152.52 M754.725 151.27 Q754.678 147.775 752.757 145.691 Q750.859 143.608 747.711 143.608 Q744.146 143.608 741.993 145.622 Q739.864 147.636 739.54 151.293 L754.725 151.27 Z" fill="#000000" fill-rule="nonzero" fill-opacity="1" /><path clip-path="url(#clip340)" d="M780.998 144.603 Q780.28 144.187 779.424 144.002 Q778.59 143.793 777.572 143.793 Q773.961 143.793 772.016 146.154 Q770.095 148.492 770.095 152.89 L770.095 166.548 L765.813 166.548 L765.813 140.622 L770.095 140.622 L770.095 144.65 Q771.438 142.289 773.59 141.154 Q775.743 139.997 778.822 139.997 Q779.262 139.997 779.794 140.066 Q780.326 140.113 780.975 140.229 L780.998 144.603 Z" fill="#000000" fill-rule="nonzero" fill-opacity="1" /><path clip-path="url(#clip340)" d="M782.41 140.622 L786.924 140.622 L795.025 162.381 L803.127 140.622 L807.641 140.622 L797.919 166.548 L792.132 166.548 L782.41 140.622 Z" fill="#000000" fill-rule="nonzero" fill-opacity="1" /><path clip-path="url(#clip340)" d="M835.696 152.52 L835.696 154.603 L816.113 154.603 Q816.391 159.002 818.752 161.316 Q821.136 163.608 825.372 163.608 Q827.826 163.608 830.118 163.006 Q832.433 162.404 834.701 161.201 L834.701 165.228 Q832.409 166.201 830.002 166.71 Q827.595 167.219 825.118 167.219 Q818.914 167.219 815.28 163.608 Q811.669 159.997 811.669 153.84 Q811.669 147.474 815.095 143.747 Q818.544 139.997 824.377 139.997 Q829.609 139.997 832.641 143.377 Q835.696 146.733 835.696 152.52 M831.437 151.27 Q831.391 147.775 829.47 145.691 Q827.571 143.608 824.423 143.608 Q820.859 143.608 818.706 145.622 Q816.576 147.636 816.252 151.293 L831.437 151.27 Z" fill="#000000" fill-rule="nonzero" fill-opacity="1" /><path clip-path="url(#clip340)" d="M859.747 144.557 L859.747 130.529 L864.006 130.529 L864.006 166.548 L859.747 166.548 L859.747 162.659 Q858.405 164.974 856.344 166.108 Q854.307 167.219 851.437 167.219 Q846.738 167.219 843.775 163.469 Q840.835 159.719 840.835 153.608 Q840.835 147.497 843.775 143.747 Q846.738 139.997 851.437 139.997 Q854.307 139.997 856.344 141.131 Q858.405 142.242 859.747 144.557 M845.233 153.608 Q845.233 158.307 847.155 160.992 Q849.099 163.654 852.479 163.654 Q855.858 163.654 857.803 160.992 Q859.747 158.307 859.747 153.608 Q859.747 148.909 857.803 146.247 Q855.858 143.562 852.479 143.562 Q849.099 143.562 847.155 146.247 Q845.233 148.909 845.233 153.608 Z" fill="#000000" fill-rule="nonzero" fill-opacity="1" /><path clip-path="url(#clip340)" d="M899.631 153.515 Q894.469 153.515 892.479 154.696 Q890.488 155.877 890.488 158.724 Q890.488 160.992 891.969 162.335 Q893.474 163.654 896.043 163.654 Q899.585 163.654 901.715 161.154 Q903.867 158.631 903.867 154.465 L903.867 153.515 L899.631 153.515 M908.127 151.756 L908.127 166.548 L903.867 166.548 L903.867 162.613 Q902.409 164.974 900.233 166.108 Q898.057 167.219 894.909 167.219 Q890.928 167.219 888.567 164.997 Q886.229 162.752 886.229 159.002 Q886.229 154.627 889.145 152.404 Q892.085 150.182 897.895 150.182 L903.867 150.182 L903.867 149.766 Q903.867 146.826 901.923 145.228 Q900.002 143.608 896.506 143.608 Q894.284 143.608 892.178 144.141 Q890.071 144.673 888.127 145.738 L888.127 141.803 Q890.465 140.9 892.664 140.46 Q894.863 139.997 896.946 139.997 Q902.571 139.997 905.349 142.914 Q908.127 145.83 908.127 151.756 Z" fill="#000000" fill-rule="nonzero" fill-opacity="1" /><path clip-path="url(#clip340)" d="M933.96 153.284 Q933.96 148.654 932.039 146.108 Q930.14 143.562 926.691 143.562 Q923.265 143.562 921.344 146.108 Q919.446 148.654 919.446 153.284 Q919.446 157.89 921.344 160.437 Q923.265 162.983 926.691 162.983 Q930.14 162.983 932.039 160.437 Q933.96 157.89 933.96 153.284 M938.219 163.33 Q938.219 169.951 935.279 173.168 Q932.339 176.409 926.275 176.409 Q924.029 176.409 922.039 176.062 Q920.048 175.738 918.173 175.043 L918.173 170.9 Q920.048 171.918 921.877 172.404 Q923.705 172.89 925.603 172.89 Q929.793 172.89 931.876 170.691 Q933.96 168.515 933.96 164.094 L933.96 161.988 Q932.64 164.279 930.58 165.414 Q928.52 166.548 925.65 166.548 Q920.881 166.548 917.965 162.914 Q915.048 159.279 915.048 153.284 Q915.048 147.266 917.965 143.631 Q920.881 139.997 925.65 139.997 Q928.52 139.997 930.58 141.131 Q932.64 142.266 933.96 144.557 L933.96 140.622 L938.219 140.622 L938.219 163.33 Z" fill="#000000" fill-rule="nonzero" fill-opacity="1" /><path clip-path="url(#clip340)" d="M969.168 152.52 L969.168 154.603 L949.585 154.603 Q949.863 159.002 952.224 161.316 Q954.608 163.608 958.844 163.608 Q961.298 163.608 963.589 163.006 Q965.904 162.404 968.173 161.201 L968.173 165.228 Q965.881 166.201 963.474 166.71 Q961.066 167.219 958.589 167.219 Q952.386 167.219 948.751 163.608 Q945.14 159.997 945.14 153.84 Q945.14 147.474 948.566 143.747 Q952.015 139.997 957.849 139.997 Q963.08 139.997 966.112 143.377 Q969.168 146.733 969.168 152.52 M964.909 151.27 Q964.862 147.775 962.941 145.691 Q961.043 143.608 957.895 143.608 Q954.33 143.608 952.177 145.622 Q950.048 147.636 949.724 151.293 L964.909 151.27 Z" fill="#000000" fill-rule="nonzero" fill-opacity="1" /><path clip-path="url(#clip340)" d="M992.686 141.386 L992.686 145.414 Q990.881 144.488 988.936 144.025 Q986.992 143.562 984.909 143.562 Q981.737 143.562 980.14 144.534 Q978.566 145.506 978.566 147.451 Q978.566 148.932 979.7 149.789 Q980.835 150.622 984.26 151.386 L985.719 151.71 Q990.256 152.682 992.154 154.465 Q994.075 156.224 994.075 159.395 Q994.075 163.006 991.205 165.113 Q988.358 167.219 983.358 167.219 Q981.274 167.219 979.006 166.802 Q976.761 166.409 974.261 165.599 L974.261 161.201 Q976.622 162.427 978.913 163.052 Q981.205 163.654 983.45 163.654 Q986.46 163.654 988.08 162.636 Q989.7 161.594 989.7 159.719 Q989.7 157.983 988.52 157.057 Q987.362 156.131 983.404 155.275 L981.923 154.928 Q977.964 154.094 976.205 152.381 Q974.446 150.645 974.446 147.636 Q974.446 143.978 977.038 141.988 Q979.631 139.997 984.399 139.997 Q986.76 139.997 988.844 140.344 Q990.927 140.691 992.686 141.386 Z" fill="#000000" fill-rule="nonzero" fill-opacity="1" /><path clip-path="url(#clip340)" d="M1000.19 130.576 L1003.89 130.576 Q1007.36 136.039 1009.08 141.27 Q1010.81 146.502 1010.81 151.664 Q1010.81 156.849 1009.08 162.103 Q1007.36 167.358 1003.89 172.798 L1000.19 172.798 Q1003.26 167.497 1004.77 162.265 Q1006.3 157.011 1006.3 151.664 Q1006.3 146.316 1004.77 141.108 Q1003.26 135.9 1000.19 130.576 Z" fill="#000000" fill-rule="nonzero" fill-opacity="1" /><path clip-path="url(#clip340)" d="M342.841 221.844 L483.068 221.844 L483.068 180.372 L342.841 180.372 L342.841 221.844  Z" fill="#e26f46" fill-rule="evenodd" fill-opacity="0.6"/>
<polyline clip-path="url(#clip340)" style="stroke:#e26f46; stroke-linecap:round; stroke-linejoin:round; stroke-width:4; stroke-opacity:0; fill:none" points="342.841,180.372 483.068,180.372 "/>
<path clip-path="url(#clip340)" d="M506.439 183.828 L513.407 183.828 L522.226 207.346 L531.092 183.828 L538.059 183.828 L538.059 218.388 L533.499 218.388 L533.499 188.041 L524.587 211.744 L519.888 211.744 L510.976 188.041 L510.976 218.388 L506.439 218.388 L506.439 183.828 Z" fill="#000000" fill-rule="nonzero" fill-opacity="1" /><path clip-path="url(#clip340)" d="M557.203 195.448 Q553.777 195.448 551.786 198.133 Q549.795 200.795 549.795 205.448 Q549.795 210.101 551.763 212.786 Q553.754 215.448 557.203 215.448 Q560.605 215.448 562.596 212.763 Q564.587 210.078 564.587 205.448 Q564.587 200.842 562.596 198.156 Q560.605 195.448 557.203 195.448 M557.203 191.837 Q562.758 191.837 565.929 195.448 Q569.101 199.059 569.101 205.448 Q569.101 211.814 565.929 215.448 Q562.758 219.059 557.203 219.059 Q551.624 219.059 548.453 215.448 Q545.304 211.814 545.304 205.448 Q545.304 199.059 548.453 195.448 Q551.624 191.837 557.203 191.837 Z" fill="#000000" fill-rule="nonzero" fill-opacity="1" /><path clip-path="url(#clip340)" d="M593.221 196.397 L593.221 182.369 L597.48 182.369 L597.48 218.388 L593.221 218.388 L593.221 214.499 Q591.878 216.814 589.818 217.948 Q587.781 219.059 584.911 219.059 Q580.212 219.059 577.249 215.309 Q574.309 211.559 574.309 205.448 Q574.309 199.337 577.249 195.587 Q580.212 191.837 584.911 191.837 Q587.781 191.837 589.818 192.971 Q591.878 194.082 593.221 196.397 M578.707 205.448 Q578.707 210.147 580.628 212.832 Q582.573 215.494 585.952 215.494 Q589.332 215.494 591.276 212.832 Q593.221 210.147 593.221 205.448 Q593.221 200.749 591.276 198.087 Q589.332 195.402 585.952 195.402 Q582.573 195.402 580.628 198.087 Q578.707 200.749 578.707 205.448 Z" fill="#000000" fill-rule="nonzero" fill-opacity="1" /><path clip-path="url(#clip340)" d="M628.429 204.36 L628.429 206.443 L608.846 206.443 Q609.124 210.842 611.485 213.156 Q613.869 215.448 618.105 215.448 Q620.559 215.448 622.85 214.846 Q625.165 214.244 627.434 213.041 L627.434 217.068 Q625.142 218.041 622.735 218.55 Q620.327 219.059 617.85 219.059 Q611.647 219.059 608.012 215.448 Q604.401 211.837 604.401 205.68 Q604.401 199.314 607.827 195.587 Q611.276 191.837 617.11 191.837 Q622.341 191.837 625.374 195.217 Q628.429 198.573 628.429 204.36 M624.17 203.11 Q624.124 199.615 622.202 197.531 Q620.304 195.448 617.156 195.448 Q613.591 195.448 611.438 197.462 Q609.309 199.476 608.985 203.133 L624.17 203.11 Z" fill="#000000" fill-rule="nonzero" fill-opacity="1" /><path clip-path="url(#clip340)" d="M635.42 182.369 L639.679 182.369 L639.679 218.388 L635.42 218.388 L635.42 182.369 Z" fill="#000000" fill-rule="nonzero" fill-opacity="1" /><path clip-path="url(#clip340)" d="M673.892 182.416 Q670.79 187.74 669.285 192.948 Q667.781 198.156 667.781 203.504 Q667.781 208.851 669.285 214.105 Q670.813 219.337 673.892 224.638 L670.188 224.638 Q666.716 219.198 664.98 213.943 Q663.267 208.689 663.267 203.504 Q663.267 198.342 664.98 193.11 Q666.693 187.879 670.188 182.416 L673.892 182.416 Z" fill="#000000" fill-rule="nonzero" fill-opacity="1" /><path clip-path="url(#clip340)" d="M693.336 199.244 Q690.188 199.244 688.336 201.397 Q686.507 203.55 686.507 207.3 Q686.507 211.027 688.336 213.203 Q690.188 215.355 693.336 215.355 Q696.484 215.355 698.313 213.203 Q700.165 211.027 700.165 207.3 Q700.165 203.55 698.313 201.397 Q696.484 199.244 693.336 199.244 M702.618 184.592 L702.618 188.851 Q700.859 188.018 699.054 187.578 Q697.271 187.138 695.512 187.138 Q690.882 187.138 688.429 190.263 Q685.998 193.388 685.651 199.707 Q687.017 197.693 689.077 196.629 Q691.137 195.541 693.614 195.541 Q698.822 195.541 701.831 198.712 Q704.864 201.86 704.864 207.3 Q704.864 212.624 701.716 215.842 Q698.568 219.059 693.336 219.059 Q687.341 219.059 684.169 214.476 Q680.998 209.869 680.998 201.143 Q680.998 192.948 684.887 188.087 Q688.776 183.203 695.327 183.203 Q697.086 183.203 698.868 183.55 Q700.674 183.897 702.618 184.592 Z" fill="#000000" fill-rule="nonzero" fill-opacity="1" /><path clip-path="url(#clip340)" d="M712.966 183.828 L731.322 183.828 L731.322 187.763 L717.248 187.763 L717.248 196.235 Q718.267 195.888 719.285 195.726 Q720.304 195.541 721.322 195.541 Q727.109 195.541 730.489 198.712 Q733.868 201.883 733.868 207.3 Q733.868 212.879 730.396 215.98 Q726.924 219.059 720.604 219.059 Q718.429 219.059 716.16 218.689 Q713.915 218.318 711.507 217.578 L711.507 212.879 Q713.591 214.013 715.813 214.568 Q718.035 215.124 720.512 215.124 Q724.516 215.124 726.854 213.017 Q729.192 210.911 729.192 207.3 Q729.192 203.689 726.854 201.582 Q724.516 199.476 720.512 199.476 Q718.637 199.476 716.762 199.893 Q714.91 200.309 712.966 201.189 L712.966 183.828 Z" fill="#000000" fill-rule="nonzero" fill-opacity="1" /><path clip-path="url(#clip340)" d="M743.081 212.508 L747.965 212.508 L747.965 218.388 L743.081 218.388 L743.081 212.508 Z" fill="#000000" fill-rule="nonzero" fill-opacity="1" /><path clip-path="url(#clip340)" d="M758.289 217.67 L758.289 213.411 Q760.049 214.244 761.854 214.684 Q763.66 215.124 765.396 215.124 Q770.026 215.124 772.456 212.022 Q774.91 208.897 775.257 202.555 Q773.914 204.545 771.854 205.61 Q769.794 206.675 767.294 206.675 Q762.109 206.675 759.076 203.55 Q756.067 200.402 756.067 194.962 Q756.067 189.638 759.215 186.42 Q762.364 183.203 767.595 183.203 Q773.59 183.203 776.738 187.809 Q779.91 192.393 779.91 201.143 Q779.91 209.314 776.021 214.198 Q772.155 219.059 765.604 219.059 Q763.845 219.059 762.039 218.712 Q760.234 218.365 758.289 217.67 M767.595 203.018 Q770.743 203.018 772.572 200.865 Q774.424 198.712 774.424 194.962 Q774.424 191.235 772.572 189.082 Q770.743 186.907 767.595 186.907 Q764.447 186.907 762.595 189.082 Q760.766 191.235 760.766 194.962 Q760.766 198.712 762.595 200.865 Q764.447 203.018 767.595 203.018 Z" fill="#000000" fill-rule="nonzero" fill-opacity="1" /><path clip-path="url(#clip340)" d="M798.312 186.907 Q794.701 186.907 792.873 190.471 Q791.067 194.013 791.067 201.143 Q791.067 208.249 792.873 211.814 Q794.701 215.355 798.312 215.355 Q801.947 215.355 803.752 211.814 Q805.581 208.249 805.581 201.143 Q805.581 194.013 803.752 190.471 Q801.947 186.907 798.312 186.907 M798.312 183.203 Q804.123 183.203 807.178 187.809 Q810.257 192.393 810.257 201.143 Q810.257 209.869 807.178 214.476 Q804.123 219.059 798.312 219.059 Q792.502 219.059 789.424 214.476 Q786.368 209.869 786.368 201.143 Q786.368 192.393 789.424 187.809 Q792.502 183.203 798.312 183.203 Z" fill="#000000" fill-rule="nonzero" fill-opacity="1" /><path clip-path="url(#clip340)" d="M822.502 214.453 L838.821 214.453 L838.821 218.388 L816.877 218.388 L816.877 214.453 Q819.539 211.698 824.122 207.068 Q828.729 202.416 829.909 201.073 Q832.155 198.55 833.034 196.814 Q833.937 195.055 833.937 193.365 Q833.937 190.61 831.993 188.874 Q830.071 187.138 826.97 187.138 Q824.771 187.138 822.317 187.902 Q819.886 188.666 817.109 190.217 L817.109 185.494 Q819.933 184.36 822.386 183.782 Q824.84 183.203 826.877 183.203 Q832.247 183.203 835.442 185.888 Q838.636 188.573 838.636 193.064 Q838.636 195.194 837.826 197.115 Q837.039 199.013 834.933 201.606 Q834.354 202.277 831.252 205.494 Q828.15 208.689 822.502 214.453 Z" fill="#000000" fill-rule="nonzero" fill-opacity="1" /><path clip-path="url(#clip340)" d="M880.442 188.666 L880.442 201.559 L893.335 201.559 L893.335 205.494 L880.442 205.494 L880.442 218.388 L876.553 218.388 L876.553 205.494 L863.659 205.494 L863.659 201.559 L876.553 201.559 L876.553 188.666 L880.442 188.666 Z" fill="#000000" fill-rule="nonzero" fill-opacity="1" /><path clip-path="url(#clip340)" d="M913.428 186.907 Q909.816 186.907 907.988 190.471 Q906.182 194.013 906.182 201.143 Q906.182 208.249 907.988 211.814 Q909.816 215.355 913.428 215.355 Q917.062 215.355 918.867 211.814 Q920.696 208.249 920.696 201.143 Q920.696 194.013 918.867 190.471 Q917.062 186.907 913.428 186.907 M913.428 183.203 Q919.238 183.203 922.293 187.809 Q925.372 192.393 925.372 201.143 Q925.372 209.869 922.293 214.476 Q919.238 219.059 913.428 219.059 Q907.617 219.059 904.539 214.476 Q901.483 209.869 901.483 201.143 Q901.483 192.393 904.539 187.809 Q907.617 183.203 913.428 183.203 Z" fill="#000000" fill-rule="nonzero" fill-opacity="1" /><path clip-path="url(#clip340)" d="M933.589 212.508 L938.474 212.508 L938.474 218.388 L933.589 218.388 L933.589 212.508 Z" fill="#000000" fill-rule="nonzero" fill-opacity="1" /><path clip-path="url(#clip340)" d="M958.659 186.907 Q955.048 186.907 953.219 190.471 Q951.413 194.013 951.413 201.143 Q951.413 208.249 953.219 211.814 Q955.048 215.355 958.659 215.355 Q962.293 215.355 964.099 211.814 Q965.927 208.249 965.927 201.143 Q965.927 194.013 964.099 190.471 Q962.293 186.907 958.659 186.907 M958.659 183.203 Q964.469 183.203 967.524 187.809 Q970.603 192.393 970.603 201.143 Q970.603 209.869 967.524 214.476 Q964.469 219.059 958.659 219.059 Q952.849 219.059 949.77 214.476 Q946.714 209.869 946.714 201.143 Q946.714 192.393 949.77 187.809 Q952.849 183.203 958.659 183.203 Z" fill="#000000" fill-rule="nonzero" fill-opacity="1" /><path clip-path="url(#clip340)" d="M978.867 183.828 L997.223 183.828 L997.223 187.763 L983.149 187.763 L983.149 196.235 Q984.168 195.888 985.186 195.726 Q986.205 195.541 987.223 195.541 Q993.01 195.541 996.39 198.712 Q999.77 201.883 999.77 207.3 Q999.77 212.879 996.297 215.98 Q992.825 219.059 986.506 219.059 Q984.33 219.059 982.061 218.689 Q979.816 218.318 977.409 217.578 L977.409 212.879 Q979.492 214.013 981.714 214.568 Q983.936 215.124 986.413 215.124 Q990.418 215.124 992.756 213.017 Q995.094 210.911 995.094 207.3 Q995.094 203.689 992.756 201.582 Q990.418 199.476 986.413 199.476 Q984.538 199.476 982.663 199.893 Q980.811 200.309 978.867 201.189 L978.867 183.828 Z" fill="#000000" fill-rule="nonzero" fill-opacity="1" /><path clip-path="url(#clip340)" d="M1007.8 183.828 L1030.02 183.828 L1030.02 185.819 L1017.48 218.388 L1012.59 218.388 L1024.4 187.763 L1007.8 187.763 L1007.8 183.828 Z" fill="#000000" fill-rule="nonzero" fill-opacity="1" /><path clip-path="url(#clip340)" d="M1046.11 183.828 L1050.05 183.828 L1038.01 222.786 L1034.08 222.786 L1046.11 183.828 Z" fill="#000000" fill-rule="nonzero" fill-opacity="1" /><path clip-path="url(#clip340)" d="M1052.36 203.504 L1064.84 203.504 L1064.84 207.3 L1052.36 207.3 L1052.36 203.504 Z" fill="#000000" fill-rule="nonzero" fill-opacity="1" /><path clip-path="url(#clip340)" d="M1082.22 186.907 Q1078.61 186.907 1076.78 190.471 Q1074.98 194.013 1074.98 201.143 Q1074.98 208.249 1076.78 211.814 Q1078.61 215.355 1082.22 215.355 Q1085.86 215.355 1087.66 211.814 Q1089.49 208.249 1089.49 201.143 Q1089.49 194.013 1087.66 190.471 Q1085.86 186.907 1082.22 186.907 M1082.22 183.203 Q1088.03 183.203 1091.09 187.809 Q1094.17 192.393 1094.17 201.143 Q1094.17 209.869 1091.09 214.476 Q1088.03 219.059 1082.22 219.059 Q1076.41 219.059 1073.33 214.476 Q1070.28 209.869 1070.28 201.143 Q1070.28 192.393 1073.33 187.809 Q1076.41 183.203 1082.22 183.203 Z" fill="#000000" fill-rule="nonzero" fill-opacity="1" /><path clip-path="url(#clip340)" d="M1102.38 212.508 L1107.27 212.508 L1107.27 218.388 L1102.38 218.388 L1102.38 212.508 Z" fill="#000000" fill-rule="nonzero" fill-opacity="1" /><path clip-path="url(#clip340)" d="M1127.45 186.907 Q1123.84 186.907 1122.01 190.471 Q1120.21 194.013 1120.21 201.143 Q1120.21 208.249 1122.01 211.814 Q1123.84 215.355 1127.45 215.355 Q1131.09 215.355 1132.89 211.814 Q1134.72 208.249 1134.72 201.143 Q1134.72 194.013 1132.89 190.471 Q1131.09 186.907 1127.45 186.907 M1127.45 183.203 Q1133.26 183.203 1136.32 187.809 Q1139.4 192.393 1139.4 201.143 Q1139.4 209.869 1136.32 214.476 Q1133.26 219.059 1127.45 219.059 Q1121.64 219.059 1118.57 214.476 Q1115.51 209.869 1115.51 201.143 Q1115.51 192.393 1118.57 187.809 Q1121.64 183.203 1127.45 183.203 Z" fill="#000000" fill-rule="nonzero" fill-opacity="1" /><path clip-path="url(#clip340)" d="M1158.19 199.244 Q1155.05 199.244 1153.19 201.397 Q1151.37 203.55 1151.37 207.3 Q1151.37 211.027 1153.19 213.203 Q1155.05 215.355 1158.19 215.355 Q1161.34 215.355 1163.17 213.203 Q1165.02 211.027 1165.02 207.3 Q1165.02 203.55 1163.17 201.397 Q1161.34 199.244 1158.19 199.244 M1167.48 184.592 L1167.48 188.851 Q1165.72 188.018 1163.91 187.578 Q1162.13 187.138 1160.37 187.138 Q1155.74 187.138 1153.29 190.263 Q1150.86 193.388 1150.51 199.707 Q1151.88 197.693 1153.94 196.629 Q1156 195.541 1158.47 195.541 Q1163.68 195.541 1166.69 198.712 Q1169.72 201.86 1169.72 207.3 Q1169.72 212.624 1166.57 215.842 Q1163.43 219.059 1158.19 219.059 Q1152.2 219.059 1149.03 214.476 Q1145.86 209.869 1145.86 201.143 Q1145.86 192.948 1149.75 188.087 Q1153.63 183.203 1160.19 183.203 Q1161.94 183.203 1163.73 183.55 Q1165.53 183.897 1167.48 184.592 Z" fill="#000000" fill-rule="nonzero" fill-opacity="1" /><path clip-path="url(#clip340)" d="M1187.78 201.976 Q1184.44 201.976 1182.52 203.758 Q1180.63 205.541 1180.63 208.666 Q1180.63 211.791 1182.52 213.573 Q1184.44 215.355 1187.78 215.355 Q1191.11 215.355 1193.03 213.573 Q1194.95 211.767 1194.95 208.666 Q1194.95 205.541 1193.03 203.758 Q1191.13 201.976 1187.78 201.976 M1183.1 199.985 Q1180.09 199.244 1178.4 197.184 Q1176.74 195.124 1176.74 192.161 Q1176.74 188.018 1179.68 185.61 Q1182.64 183.203 1187.78 183.203 Q1192.94 183.203 1195.88 185.61 Q1198.82 188.018 1198.82 192.161 Q1198.82 195.124 1197.13 197.184 Q1195.46 199.244 1192.48 199.985 Q1195.86 200.772 1197.73 203.064 Q1199.63 205.355 1199.63 208.666 Q1199.63 213.689 1196.55 216.374 Q1193.5 219.059 1187.78 219.059 Q1182.06 219.059 1178.98 216.374 Q1175.93 213.689 1175.93 208.666 Q1175.93 205.355 1177.82 203.064 Q1179.72 200.772 1183.1 199.985 M1181.39 192.601 Q1181.39 195.286 1183.06 196.791 Q1184.75 198.295 1187.78 198.295 Q1190.79 198.295 1192.48 196.791 Q1194.19 195.286 1194.19 192.601 Q1194.19 189.916 1192.48 188.411 Q1190.79 186.907 1187.78 186.907 Q1184.75 186.907 1183.06 188.411 Q1181.39 189.916 1181.39 192.601 Z" fill="#000000" fill-rule="nonzero" fill-opacity="1" /><path clip-path="url(#clip340)" d="M1222.59 183.828 L1229.56 183.828 L1238.38 207.346 L1247.25 183.828 L1254.21 183.828 L1254.21 218.388 L1249.65 218.388 L1249.65 188.041 L1240.74 211.744 L1236.04 211.744 L1227.13 188.041 L1227.13 218.388 L1222.59 218.388 L1222.59 183.828 Z" fill="#000000" fill-rule="nonzero" fill-opacity="1" /><path clip-path="url(#clip340)" d="M1275.09 205.355 Q1269.93 205.355 1267.94 206.536 Q1265.95 207.717 1265.95 210.564 Q1265.95 212.832 1267.43 214.175 Q1268.93 215.494 1271.5 215.494 Q1275.05 215.494 1277.18 212.994 Q1279.33 210.471 1279.33 206.305 L1279.33 205.355 L1275.09 205.355 M1283.59 203.596 L1283.59 218.388 L1279.33 218.388 L1279.33 214.453 Q1277.87 216.814 1275.69 217.948 Q1273.52 219.059 1270.37 219.059 Q1266.39 219.059 1264.03 216.837 Q1261.69 214.592 1261.69 210.842 Q1261.69 206.467 1264.61 204.244 Q1267.55 202.022 1273.36 202.022 L1279.33 202.022 L1279.33 201.606 Q1279.33 198.666 1277.38 197.068 Q1275.46 195.448 1271.97 195.448 Q1269.75 195.448 1267.64 195.981 Q1265.53 196.513 1263.59 197.578 L1263.59 193.643 Q1265.93 192.74 1268.12 192.3 Q1270.32 191.837 1272.41 191.837 Q1278.03 191.837 1280.81 194.754 Q1283.59 197.67 1283.59 203.596 Z" fill="#000000" fill-rule="nonzero" fill-opacity="1" /><path clip-path="url(#clip340)" d="M1291.69 182.416 L1295.39 182.416 Q1298.87 187.879 1300.58 193.11 Q1302.31 198.342 1302.31 203.504 Q1302.31 208.689 1300.58 213.943 Q1298.87 219.198 1295.39 224.638 L1291.69 224.638 Q1294.77 219.337 1296.27 214.105 Q1297.8 208.851 1297.8 203.504 Q1297.8 198.156 1296.27 192.948 Q1294.77 187.74 1291.69 182.416 Z" fill="#000000" fill-rule="nonzero" fill-opacity="1" /></svg>
