<?xml version="1.0" encoding="utf-8"?>
<svg xmlns="http://www.w3.org/2000/svg" xmlns:xlink="http://www.w3.org/1999/xlink" width="600" height="400" viewBox="0 0 2400 1600">
<defs>
  <clipPath id="clip380">
    <rect x="0" y="0" width="2400" height="1600"/>
  </clipPath>
</defs>
<path clip-path="url(#clip380)" d="M0 1600 L2400 1600 L2400 8.88178e-14 L0 8.88178e-14  Z" fill="#ffffff" fill-rule="evenodd" fill-opacity="1"/>
<defs>
  <clipPath id="clip381">
    <rect x="480" y="0" width="1681" height="1600"/>
  </clipPath>
</defs>
<path clip-path="url(#clip380)" d="M202.227 1423.18 L2352.76 1423.18 L2352.76 47.2441 L202.227 47.2441  Z" fill="#ffffff" fill-rule="evenodd" fill-opacity="1"/>
<defs>
  <clipPath id="clip382">
    <rect x="202" y="47" width="2152" height="1377"/>
  </clipPath>
</defs>
<polyline clip-path="url(#clip382)" style="stroke:#000000; stroke-linecap:round; stroke-linejoin:round; stroke-width:2; stroke-opacity:0.1; fill:none" points="205.37,1423.18 205.37,47.2441 "/>
<polyline clip-path="url(#clip382)" style="stroke:#000000; stroke-linecap:round; stroke-linejoin:round; stroke-width:2; stroke-opacity:0.1; fill:none" points="597.29,1423.18 597.29,47.2441 "/>
<polyline clip-path="url(#clip382)" style="stroke:#000000; stroke-linecap:round; stroke-linejoin:round; stroke-width:2; stroke-opacity:0.1; fill:none" points="989.21,1423.18 989.21,47.2441 "/>
<polyline clip-path="url(#clip382)" style="stroke:#000000; stroke-linecap:round; stroke-linejoin:round; stroke-width:2; stroke-opacity:0.1; fill:none" points="1381.13,1423.18 1381.13,47.2441 "/>
<polyline clip-path="url(#clip382)" style="stroke:#000000; stroke-linecap:round; stroke-linejoin:round; stroke-width:2; stroke-opacity:0.1; fill:none" points="1773.05,1423.18 1773.05,47.2441 "/>
<polyline clip-path="url(#clip382)" style="stroke:#000000; stroke-linecap:round; stroke-linejoin:round; stroke-width:2; stroke-opacity:0.1; fill:none" points="2164.97,1423.18 2164.97,47.2441 "/>
<polyline clip-path="url(#clip382)" style="stroke:#000000; stroke-linecap:round; stroke-linejoin:round; stroke-width:2; stroke-opacity:0.1; fill:none" points="205.37,1423.18 205.37,47.2441 "/>
<polyline clip-path="url(#clip382)" style="stroke:#000000; stroke-linecap:round; stroke-linejoin:round; stroke-width:2; stroke-opacity:0.1; fill:none" points="597.29,1423.18 597.29,47.2441 "/>
<polyline clip-path="url(#clip382)" style="stroke:#000000; stroke-linecap:round; stroke-linejoin:round; stroke-width:2; stroke-opacity:0.1; fill:none" points="989.21,1423.18 989.21,47.2441 "/>
<polyline clip-path="url(#clip382)" style="stroke:#000000; stroke-linecap:round; stroke-linejoin:round; stroke-width:2; stroke-opacity:0.1; fill:none" points="1381.13,1423.18 1381.13,47.2441 "/>
<polyline clip-path="url(#clip382)" style="stroke:#000000; stroke-linecap:round; stroke-linejoin:round; stroke-width:2; stroke-opacity:0.1; fill:none" points="1773.05,1423.18 1773.05,47.2441 "/>
<polyline clip-path="url(#clip382)" style="stroke:#000000; stroke-linecap:round; stroke-linejoin:round; stroke-width:2; stroke-opacity:0.1; fill:none" points="2164.97,1423.18 2164.97,47.2441 "/>
<polyline clip-path="url(#clip382)" style="stroke:#000000; stroke-linecap:round; stroke-linejoin:round; stroke-width:2; stroke-opacity:0.1; fill:none" points="202.227,1384.24 2352.76,1384.24 "/>
<polyline clip-path="url(#clip382)" style="stroke:#000000; stroke-linecap:round; stroke-linejoin:round; stroke-width:2; stroke-opacity:0.1; fill:none" points="202.227,964.649 2352.76,964.649 "/>
<polyline clip-path="url(#clip382)" style="stroke:#000000; stroke-linecap:round; stroke-linejoin:round; stroke-width:2; stroke-opacity:0.1; fill:none" points="202.227,545.06 2352.76,545.06 "/>
<polyline clip-path="url(#clip382)" style="stroke:#000000; stroke-linecap:round; stroke-linejoin:round; stroke-width:2; stroke-opacity:0.1; fill:none" points="202.227,125.471 2352.76,125.471 "/>
<polyline clip-path="url(#clip382)" style="stroke:#000000; stroke-linecap:round; stroke-linejoin:round; stroke-width:2; stroke-opacity:0.1; fill:none" points="202.227,1384.24 2352.76,1384.24 "/>
<polyline clip-path="url(#clip382)" style="stroke:#000000; stroke-linecap:round; stroke-linejoin:round; stroke-width:2; stroke-opacity:0.1; fill:none" points="202.227,964.649 2352.76,964.649 "/>
<polyline clip-path="url(#clip382)" style="stroke:#000000; stroke-linecap:round; stroke-linejoin:round; stroke-width:2; stroke-opacity:0.1; fill:none" points="202.227,545.06 2352.76,545.06 "/>
<polyline clip-path="url(#clip382)" style="stroke:#000000; stroke-linecap:round; stroke-linejoin:round; stroke-width:2; stroke-opacity:0.1; fill:none" points="202.227,125.471 2352.76,125.471 "/>
<polyline clip-path="url(#clip380)" style="stroke:#000000; stroke-linecap:round; stroke-linejoin:round; stroke-width:4; stroke-opacity:1; fill:none" points="202.227,1423.18 2352.76,1423.18 "/>
<polyline clip-path="url(#clip380)" style="stroke:#000000; stroke-linecap:round; stroke-linejoin:round; stroke-width:4; stroke-opacity:1; fill:none" points="202.227,47.2441 2352.76,47.2441 "/>
<polyline clip-path="url(#clip380)" style="stroke:#000000; stroke-linecap:round; stroke-linejoin:round; stroke-width:4; stroke-opacity:1; fill:none" points="205.37,1423.18 205.37,1404.28 "/>
<polyline clip-path="url(#clip380)" style="stroke:#000000; stroke-linecap:round; stroke-linejoin:round; stroke-width:4; stroke-opacity:1; fill:none" points="597.29,1423.18 597.29,1404.28 "/>
<polyline clip-path="url(#clip380)" style="stroke:#000000; stroke-linecap:round; stroke-linejoin:round; stroke-width:4; stroke-opacity:1; fill:none" points="989.21,1423.18 989.21,1404.28 "/>
<polyline clip-path="url(#clip380)" style="stroke:#000000; stroke-linecap:round; stroke-linejoin:round; stroke-width:4; stroke-opacity:1; fill:none" points="1381.13,1423.18 1381.13,1404.28 "/>
<polyline clip-path="url(#clip380)" style="stroke:#000000; stroke-linecap:round; stroke-linejoin:round; stroke-width:4; stroke-opacity:1; fill:none" points="1773.05,1423.18 1773.05,1404.28 "/>
<polyline clip-path="url(#clip380)" style="stroke:#000000; stroke-linecap:round; stroke-linejoin:round; stroke-width:4; stroke-opacity:1; fill:none" points="2164.97,1423.18 2164.97,1404.28 "/>
<polyline clip-path="url(#clip380)" style="stroke:#000000; stroke-linecap:round; stroke-linejoin:round; stroke-width:4; stroke-opacity:1; fill:none" points="205.37,47.2441 205.37,66.1417 "/>
<polyline clip-path="url(#clip380)" style="stroke:#000000; stroke-linecap:round; stroke-linejoin:round; stroke-width:4; stroke-opacity:1; fill:none" points="597.29,47.2441 597.29,66.1417 "/>
<polyline clip-path="url(#clip380)" style="stroke:#000000; stroke-linecap:round; stroke-linejoin:round; stroke-width:4; stroke-opacity:1; fill:none" points="989.21,47.2441 989.21,66.1417 "/>
<polyline clip-path="url(#clip380)" style="stroke:#000000; stroke-linecap:round; stroke-linejoin:round; stroke-width:4; stroke-opacity:1; fill:none" points="1381.13,47.2441 1381.13,66.1417 "/>
<polyline clip-path="url(#clip380)" style="stroke:#000000; stroke-linecap:round; stroke-linejoin:round; stroke-width:4; stroke-opacity:1; fill:none" points="1773.05,47.2441 1773.05,66.1417 "/>
<polyline clip-path="url(#clip380)" style="stroke:#000000; stroke-linecap:round; stroke-linejoin:round; stroke-width:4; stroke-opacity:1; fill:none" points="2164.97,47.2441 2164.97,66.1417 "/>
<path clip-path="url(#clip380)" d="M168.658 1466.44 Q165.51 1466.44 163.658 1468.59 Q161.829 1470.74 161.829 1474.49 Q161.829 1478.22 163.658 1480.39 Q165.51 1482.55 168.658 1482.55 Q171.806 1482.55 173.635 1480.39 Q175.486 1478.22 175.486 1474.49 Q175.486 1470.74 173.635 1468.59 Q171.806 1466.44 168.658 1466.44 M177.94 1451.78 L177.94 1456.04 Q176.181 1455.21 174.375 1454.77 Q172.593 1454.33 170.834 1454.33 Q166.204 1454.33 163.75 1457.45 Q161.32 1460.58 160.973 1466.9 Q162.338 1464.89 164.398 1463.82 Q166.459 1462.73 168.935 1462.73 Q174.144 1462.73 177.153 1465.9 Q180.185 1469.05 180.185 1474.49 Q180.185 1479.82 177.037 1483.03 Q173.889 1486.25 168.658 1486.25 Q162.662 1486.25 159.491 1481.67 Q156.32 1477.06 156.32 1468.33 Q156.32 1460.14 160.209 1455.28 Q164.098 1450.39 170.648 1450.39 Q172.408 1450.39 174.19 1450.74 Q175.996 1451.09 177.94 1451.78 Z" fill="#000000" fill-rule="nonzero" fill-opacity="1" /><path clip-path="url(#clip380)" d="M188.287 1451.02 L206.644 1451.02 L206.644 1454.96 L192.57 1454.96 L192.57 1463.43 Q193.588 1463.08 194.607 1462.92 Q195.625 1462.73 196.644 1462.73 Q202.431 1462.73 205.81 1465.9 Q209.19 1469.08 209.19 1474.49 Q209.19 1480.07 205.718 1483.17 Q202.246 1486.25 195.926 1486.25 Q193.75 1486.25 191.482 1485.88 Q189.236 1485.51 186.829 1484.77 L186.829 1480.07 Q188.912 1481.2 191.134 1481.76 Q193.357 1482.32 195.833 1482.32 Q199.838 1482.32 202.176 1480.21 Q204.514 1478.1 204.514 1474.49 Q204.514 1470.88 202.176 1468.77 Q199.838 1466.67 195.833 1466.67 Q193.959 1466.67 192.084 1467.08 Q190.232 1467.5 188.287 1468.38 L188.287 1451.02 Z" fill="#000000" fill-rule="nonzero" fill-opacity="1" /><path clip-path="url(#clip380)" d="M218.403 1479.7 L223.287 1479.7 L223.287 1485.58 L218.403 1485.58 L218.403 1479.7 Z" fill="#000000" fill-rule="nonzero" fill-opacity="1" /><path clip-path="url(#clip380)" d="M233.518 1451.02 L251.875 1451.02 L251.875 1454.96 L237.801 1454.96 L237.801 1463.43 Q238.819 1463.08 239.838 1462.92 Q240.856 1462.73 241.875 1462.73 Q247.662 1462.73 251.042 1465.9 Q254.421 1469.08 254.421 1474.49 Q254.421 1480.07 250.949 1483.17 Q247.477 1486.25 241.157 1486.25 Q238.981 1486.25 236.713 1485.88 Q234.468 1485.51 232.06 1484.77 L232.06 1480.07 Q234.143 1481.2 236.366 1481.76 Q238.588 1482.32 241.065 1482.32 Q245.069 1482.32 247.407 1480.21 Q249.745 1478.1 249.745 1474.49 Q249.745 1470.88 247.407 1468.77 Q245.069 1466.67 241.065 1466.67 Q239.19 1466.67 237.315 1467.08 Q235.463 1467.5 233.518 1468.38 L233.518 1451.02 Z" fill="#000000" fill-rule="nonzero" fill-opacity="1" /><path clip-path="url(#clip380)" d="M559.999 1466.44 Q556.85 1466.44 554.999 1468.59 Q553.17 1470.74 553.17 1474.49 Q553.17 1478.22 554.999 1480.39 Q556.85 1482.55 559.999 1482.55 Q563.147 1482.55 564.975 1480.39 Q566.827 1478.22 566.827 1474.49 Q566.827 1470.74 564.975 1468.59 Q563.147 1466.44 559.999 1466.44 M569.281 1451.78 L569.281 1456.04 Q567.522 1455.21 565.716 1454.77 Q563.934 1454.33 562.174 1454.33 Q557.545 1454.33 555.091 1457.45 Q552.661 1460.58 552.313 1466.9 Q553.679 1464.89 555.739 1463.82 Q557.8 1462.73 560.276 1462.73 Q565.485 1462.73 568.494 1465.9 Q571.526 1469.05 571.526 1474.49 Q571.526 1479.82 568.378 1483.03 Q565.23 1486.25 559.999 1486.25 Q554.003 1486.25 550.832 1481.67 Q547.661 1477.06 547.661 1468.33 Q547.661 1460.14 551.55 1455.28 Q555.438 1450.39 561.989 1450.39 Q563.749 1450.39 565.531 1450.74 Q567.337 1451.09 569.281 1451.78 Z" fill="#000000" fill-rule="nonzero" fill-opacity="1" /><path clip-path="url(#clip380)" d="M579.628 1451.02 L597.984 1451.02 L597.984 1454.96 L583.91 1454.96 L583.91 1463.43 Q584.929 1463.08 585.948 1462.92 Q586.966 1462.73 587.985 1462.73 Q593.772 1462.73 597.151 1465.9 Q600.531 1469.08 600.531 1474.49 Q600.531 1480.07 597.059 1483.17 Q593.586 1486.25 587.267 1486.25 Q585.091 1486.25 582.823 1485.88 Q580.577 1485.51 578.17 1484.77 L578.17 1480.07 Q580.253 1481.2 582.475 1481.76 Q584.698 1482.32 587.174 1482.32 Q591.179 1482.32 593.517 1480.21 Q595.855 1478.1 595.855 1474.49 Q595.855 1470.88 593.517 1468.77 Q591.179 1466.67 587.174 1466.67 Q585.299 1466.67 583.424 1467.08 Q581.573 1467.5 579.628 1468.38 L579.628 1451.02 Z" fill="#000000" fill-rule="nonzero" fill-opacity="1" /><path clip-path="url(#clip380)" d="M609.744 1479.7 L614.628 1479.7 L614.628 1485.58 L609.744 1485.58 L609.744 1479.7 Z" fill="#000000" fill-rule="nonzero" fill-opacity="1" /><path clip-path="url(#clip380)" d="M635.392 1466.44 Q632.244 1466.44 630.392 1468.59 Q628.563 1470.74 628.563 1474.49 Q628.563 1478.22 630.392 1480.39 Q632.244 1482.55 635.392 1482.55 Q638.54 1482.55 640.369 1480.39 Q642.22 1478.22 642.22 1474.49 Q642.22 1470.74 640.369 1468.59 Q638.54 1466.44 635.392 1466.44 M644.674 1451.78 L644.674 1456.04 Q642.915 1455.21 641.109 1454.77 Q639.327 1454.33 637.568 1454.33 Q632.938 1454.33 630.484 1457.45 Q628.054 1460.58 627.707 1466.9 Q629.072 1464.89 631.132 1463.82 Q633.193 1462.73 635.669 1462.73 Q640.878 1462.73 643.887 1465.9 Q646.919 1469.05 646.919 1474.49 Q646.919 1479.82 643.771 1483.03 Q640.623 1486.25 635.392 1486.25 Q629.396 1486.25 626.225 1481.67 Q623.054 1477.06 623.054 1468.33 Q623.054 1460.14 626.943 1455.28 Q630.832 1450.39 637.382 1450.39 Q639.142 1450.39 640.924 1450.74 Q642.73 1451.09 644.674 1451.78 Z" fill="#000000" fill-rule="nonzero" fill-opacity="1" /><path clip-path="url(#clip380)" d="M952.451 1466.44 Q949.302 1466.44 947.451 1468.59 Q945.622 1470.74 945.622 1474.49 Q945.622 1478.22 947.451 1480.39 Q949.302 1482.55 952.451 1482.55 Q955.599 1482.55 957.427 1480.39 Q959.279 1478.22 959.279 1474.49 Q959.279 1470.74 957.427 1468.59 Q955.599 1466.44 952.451 1466.44 M961.733 1451.78 L961.733 1456.04 Q959.974 1455.21 958.168 1454.77 Q956.386 1454.33 954.626 1454.33 Q949.997 1454.33 947.543 1457.45 Q945.113 1460.58 944.765 1466.9 Q946.131 1464.89 948.191 1463.82 Q950.251 1462.73 952.728 1462.73 Q957.937 1462.73 960.946 1465.9 Q963.978 1469.05 963.978 1474.49 Q963.978 1479.82 960.83 1483.03 Q957.682 1486.25 952.451 1486.25 Q946.455 1486.25 943.284 1481.67 Q940.113 1477.06 940.113 1468.33 Q940.113 1460.14 944.002 1455.28 Q947.89 1450.39 954.441 1450.39 Q956.201 1450.39 957.983 1450.74 Q959.788 1451.09 961.733 1451.78 Z" fill="#000000" fill-rule="nonzero" fill-opacity="1" /><path clip-path="url(#clip380)" d="M972.08 1451.02 L990.436 1451.02 L990.436 1454.96 L976.362 1454.96 L976.362 1463.43 Q977.381 1463.08 978.399 1462.92 Q979.418 1462.73 980.437 1462.73 Q986.224 1462.73 989.603 1465.9 Q992.983 1469.08 992.983 1474.49 Q992.983 1480.07 989.511 1483.17 Q986.038 1486.25 979.719 1486.25 Q977.543 1486.25 975.274 1485.88 Q973.029 1485.51 970.622 1484.77 L970.622 1480.07 Q972.705 1481.2 974.927 1481.76 Q977.149 1482.32 979.626 1482.32 Q983.631 1482.32 985.969 1480.21 Q988.307 1478.1 988.307 1474.49 Q988.307 1470.88 985.969 1468.77 Q983.631 1466.67 979.626 1466.67 Q977.751 1466.67 975.876 1467.08 Q974.024 1467.5 972.08 1468.38 L972.08 1451.02 Z" fill="#000000" fill-rule="nonzero" fill-opacity="1" /><path clip-path="url(#clip380)" d="M1002.2 1479.7 L1007.08 1479.7 L1007.08 1485.58 L1002.2 1485.58 L1002.2 1479.7 Z" fill="#000000" fill-rule="nonzero" fill-opacity="1" /><path clip-path="url(#clip380)" d="M1016.08 1451.02 L1038.31 1451.02 L1038.31 1453.01 L1025.76 1485.58 L1020.88 1485.58 L1032.68 1454.96 L1016.08 1454.96 L1016.08 1451.02 Z" fill="#000000" fill-rule="nonzero" fill-opacity="1" /><path clip-path="url(#clip380)" d="M1343.97 1466.44 Q1340.82 1466.44 1338.97 1468.59 Q1337.14 1470.74 1337.14 1474.49 Q1337.14 1478.22 1338.97 1480.39 Q1340.82 1482.55 1343.97 1482.55 Q1347.11 1482.55 1348.94 1480.39 Q1350.79 1478.22 1350.79 1474.49 Q1350.79 1470.74 1348.94 1468.59 Q1347.11 1466.44 1343.97 1466.44 M1353.25 1451.78 L1353.25 1456.04 Q1351.49 1455.21 1349.68 1454.77 Q1347.9 1454.33 1346.14 1454.33 Q1341.51 1454.33 1339.06 1457.45 Q1336.63 1460.58 1336.28 1466.9 Q1337.65 1464.89 1339.71 1463.82 Q1341.77 1462.73 1344.24 1462.73 Q1349.45 1462.73 1352.46 1465.9 Q1355.49 1469.05 1355.49 1474.49 Q1355.49 1479.82 1352.34 1483.03 Q1349.2 1486.25 1343.97 1486.25 Q1337.97 1486.25 1334.8 1481.67 Q1331.63 1477.06 1331.63 1468.33 Q1331.63 1460.14 1335.52 1455.28 Q1339.4 1450.39 1345.96 1450.39 Q1347.71 1450.39 1349.5 1450.74 Q1351.3 1451.09 1353.25 1451.78 Z" fill="#000000" fill-rule="nonzero" fill-opacity="1" /><path clip-path="url(#clip380)" d="M1363.59 1451.02 L1381.95 1451.02 L1381.95 1454.96 L1367.88 1454.96 L1367.88 1463.43 Q1368.9 1463.08 1369.91 1462.92 Q1370.93 1462.73 1371.95 1462.73 Q1377.74 1462.73 1381.12 1465.9 Q1384.5 1469.08 1384.5 1474.49 Q1384.5 1480.07 1381.02 1483.17 Q1377.55 1486.25 1371.23 1486.25 Q1369.06 1486.25 1366.79 1485.88 Q1364.54 1485.51 1362.14 1484.77 L1362.14 1480.07 Q1364.22 1481.2 1366.44 1481.76 Q1368.66 1482.32 1371.14 1482.32 Q1375.15 1482.32 1377.48 1480.21 Q1379.82 1478.1 1379.82 1474.49 Q1379.82 1470.88 1377.48 1468.77 Q1375.15 1466.67 1371.14 1466.67 Q1369.27 1466.67 1367.39 1467.08 Q1365.54 1467.5 1363.59 1468.38 L1363.59 1451.02 Z" fill="#000000" fill-rule="nonzero" fill-opacity="1" /><path clip-path="url(#clip380)" d="M1393.71 1479.7 L1398.59 1479.7 L1398.59 1485.58 L1393.71 1485.58 L1393.71 1479.7 Z" fill="#000000" fill-rule="nonzero" fill-opacity="1" /><path clip-path="url(#clip380)" d="M1418.78 1469.17 Q1415.45 1469.17 1413.52 1470.95 Q1411.63 1472.73 1411.63 1475.86 Q1411.63 1478.98 1413.52 1480.77 Q1415.45 1482.55 1418.78 1482.55 Q1422.11 1482.55 1424.03 1480.77 Q1425.96 1478.96 1425.96 1475.86 Q1425.96 1472.73 1424.03 1470.95 Q1422.14 1469.17 1418.78 1469.17 M1414.1 1467.18 Q1411.09 1466.44 1409.4 1464.38 Q1407.74 1462.32 1407.74 1459.35 Q1407.74 1455.21 1410.68 1452.8 Q1413.64 1450.39 1418.78 1450.39 Q1423.94 1450.39 1426.88 1452.8 Q1429.82 1455.21 1429.82 1459.35 Q1429.82 1462.32 1428.13 1464.38 Q1426.46 1466.44 1423.48 1467.18 Q1426.86 1467.96 1428.73 1470.26 Q1430.63 1472.55 1430.63 1475.86 Q1430.63 1480.88 1427.55 1483.57 Q1424.5 1486.25 1418.78 1486.25 Q1413.06 1486.25 1409.98 1483.57 Q1406.93 1480.88 1406.93 1475.86 Q1406.93 1472.55 1408.83 1470.26 Q1410.72 1467.96 1414.1 1467.18 M1412.39 1459.79 Q1412.39 1462.48 1414.06 1463.98 Q1415.75 1465.49 1418.78 1465.49 Q1421.79 1465.49 1423.48 1463.98 Q1425.19 1462.48 1425.19 1459.79 Q1425.19 1457.11 1423.48 1455.6 Q1421.79 1454.1 1418.78 1454.1 Q1415.75 1454.1 1414.06 1455.6 Q1412.39 1457.11 1412.39 1459.79 Z" fill="#000000" fill-rule="nonzero" fill-opacity="1" /><path clip-path="url(#clip380)" d="M1735.93 1466.44 Q1732.78 1466.44 1730.93 1468.59 Q1729.1 1470.74 1729.1 1474.49 Q1729.1 1478.22 1730.93 1480.39 Q1732.78 1482.55 1735.93 1482.55 Q1739.08 1482.55 1740.91 1480.39 Q1742.76 1478.22 1742.76 1474.49 Q1742.76 1470.74 1740.91 1468.59 Q1739.08 1466.44 1735.93 1466.44 M1745.21 1451.78 L1745.21 1456.04 Q1743.45 1455.21 1741.65 1454.77 Q1739.87 1454.33 1738.11 1454.33 Q1733.48 1454.33 1731.02 1457.45 Q1728.59 1460.58 1728.25 1466.9 Q1729.61 1464.89 1731.67 1463.82 Q1733.73 1462.73 1736.21 1462.73 Q1741.42 1462.73 1744.43 1465.9 Q1747.46 1469.05 1747.46 1474.49 Q1747.46 1479.82 1744.31 1483.03 Q1741.16 1486.25 1735.93 1486.25 Q1729.94 1486.25 1726.76 1481.67 Q1723.59 1477.06 1723.59 1468.33 Q1723.59 1460.14 1727.48 1455.28 Q1731.37 1450.39 1737.92 1450.39 Q1739.68 1450.39 1741.46 1450.74 Q1743.27 1451.09 1745.21 1451.78 Z" fill="#000000" fill-rule="nonzero" fill-opacity="1" /><path clip-path="url(#clip380)" d="M1755.56 1451.02 L1773.92 1451.02 L1773.92 1454.96 L1759.84 1454.96 L1759.84 1463.43 Q1760.86 1463.08 1761.88 1462.92 Q1762.9 1462.73 1763.92 1462.73 Q1769.7 1462.73 1773.08 1465.9 Q1776.46 1469.08 1776.46 1474.49 Q1776.46 1480.07 1772.99 1483.17 Q1769.52 1486.25 1763.2 1486.25 Q1761.02 1486.25 1758.75 1485.88 Q1756.51 1485.51 1754.1 1484.77 L1754.1 1480.07 Q1756.19 1481.2 1758.41 1481.76 Q1760.63 1482.32 1763.11 1482.32 Q1767.11 1482.32 1769.45 1480.21 Q1771.79 1478.1 1771.79 1474.49 Q1771.79 1470.88 1769.45 1468.77 Q1767.11 1466.67 1763.11 1466.67 Q1761.23 1466.67 1759.36 1467.08 Q1757.5 1467.5 1755.56 1468.38 L1755.56 1451.02 Z" fill="#000000" fill-rule="nonzero" fill-opacity="1" /><path clip-path="url(#clip380)" d="M1785.68 1479.7 L1790.56 1479.7 L1790.56 1485.58 L1785.68 1485.58 L1785.68 1479.7 Z" fill="#000000" fill-rule="nonzero" fill-opacity="1" /><path clip-path="url(#clip380)" d="M1800.88 1484.86 L1800.88 1480.6 Q1802.64 1481.44 1804.45 1481.88 Q1806.25 1482.32 1807.99 1482.32 Q1812.62 1482.32 1815.05 1479.21 Q1817.5 1476.09 1817.85 1469.75 Q1816.51 1471.74 1814.45 1472.8 Q1812.39 1473.87 1809.89 1473.87 Q1804.7 1473.87 1801.67 1470.74 Q1798.66 1467.59 1798.66 1462.15 Q1798.66 1456.83 1801.81 1453.61 Q1804.96 1450.39 1810.19 1450.39 Q1816.19 1450.39 1819.33 1455 Q1822.5 1459.58 1822.5 1468.33 Q1822.5 1476.51 1818.62 1481.39 Q1814.75 1486.25 1808.2 1486.25 Q1806.44 1486.25 1804.63 1485.9 Q1802.83 1485.56 1800.88 1484.86 M1810.19 1470.21 Q1813.34 1470.21 1815.17 1468.06 Q1817.02 1465.9 1817.02 1462.15 Q1817.02 1458.43 1815.17 1456.27 Q1813.34 1454.1 1810.19 1454.1 Q1807.04 1454.1 1805.19 1456.27 Q1803.36 1458.43 1803.36 1462.15 Q1803.36 1465.9 1805.19 1468.06 Q1807.04 1470.21 1810.19 1470.21 Z" fill="#000000" fill-rule="nonzero" fill-opacity="1" /><path clip-path="url(#clip380)" d="M2127.76 1466.44 Q2124.61 1466.44 2122.76 1468.59 Q2120.93 1470.74 2120.93 1474.49 Q2120.93 1478.22 2122.76 1480.39 Q2124.61 1482.55 2127.76 1482.55 Q2130.91 1482.55 2132.73 1480.39 Q2134.59 1478.22 2134.59 1474.49 Q2134.59 1470.74 2132.73 1468.59 Q2130.91 1466.44 2127.76 1466.44 M2137.04 1451.78 L2137.04 1456.04 Q2135.28 1455.21 2133.48 1454.77 Q2131.69 1454.33 2129.93 1454.33 Q2125.3 1454.33 2122.85 1457.45 Q2120.42 1460.58 2120.07 1466.9 Q2121.44 1464.89 2123.5 1463.82 Q2125.56 1462.73 2128.04 1462.73 Q2133.24 1462.73 2136.25 1465.9 Q2139.29 1469.05 2139.29 1474.49 Q2139.29 1479.82 2136.14 1483.03 Q2132.99 1486.25 2127.76 1486.25 Q2121.76 1486.25 2118.59 1481.67 Q2115.42 1477.06 2115.42 1468.33 Q2115.42 1460.14 2119.31 1455.28 Q2123.2 1450.39 2129.75 1450.39 Q2131.51 1450.39 2133.29 1450.74 Q2135.1 1451.09 2137.04 1451.78 Z" fill="#000000" fill-rule="nonzero" fill-opacity="1" /><path clip-path="url(#clip380)" d="M2157.92 1466.44 Q2154.77 1466.44 2152.92 1468.59 Q2151.09 1470.74 2151.09 1474.49 Q2151.09 1478.22 2152.92 1480.39 Q2154.77 1482.55 2157.92 1482.55 Q2161.07 1482.55 2162.9 1480.39 Q2164.75 1478.22 2164.75 1474.49 Q2164.75 1470.74 2162.9 1468.59 Q2161.07 1466.44 2157.92 1466.44 M2167.2 1451.78 L2167.2 1456.04 Q2165.44 1455.21 2163.64 1454.77 Q2161.85 1454.33 2160.1 1454.33 Q2155.47 1454.33 2153.01 1457.45 Q2150.58 1460.58 2150.23 1466.9 Q2151.6 1464.89 2153.66 1463.82 Q2155.72 1462.73 2158.2 1462.73 Q2163.41 1462.73 2166.42 1465.9 Q2169.45 1469.05 2169.45 1474.49 Q2169.45 1479.82 2166.3 1483.03 Q2163.15 1486.25 2157.92 1486.25 Q2151.92 1486.25 2148.75 1481.67 Q2145.58 1477.06 2145.58 1468.33 Q2145.58 1460.14 2149.47 1455.28 Q2153.36 1450.39 2159.91 1450.39 Q2161.67 1450.39 2163.45 1450.74 Q2165.26 1451.09 2167.2 1451.78 Z" fill="#000000" fill-rule="nonzero" fill-opacity="1" /><path clip-path="url(#clip380)" d="M2177.5 1479.7 L2182.39 1479.7 L2182.39 1485.58 L2177.5 1485.58 L2177.5 1479.7 Z" fill="#000000" fill-rule="nonzero" fill-opacity="1" /><path clip-path="url(#clip380)" d="M2202.57 1454.1 Q2198.96 1454.1 2197.13 1457.66 Q2195.33 1461.2 2195.33 1468.33 Q2195.33 1475.44 2197.13 1479.01 Q2198.96 1482.55 2202.57 1482.55 Q2206.21 1482.55 2208.01 1479.01 Q2209.84 1475.44 2209.84 1468.33 Q2209.84 1461.2 2208.01 1457.66 Q2206.21 1454.1 2202.57 1454.1 M2202.57 1450.39 Q2208.38 1450.39 2211.44 1455 Q2214.52 1459.58 2214.52 1468.33 Q2214.52 1477.06 2211.44 1481.67 Q2208.38 1486.25 2202.57 1486.25 Q2196.76 1486.25 2193.68 1481.67 Q2190.63 1477.06 2190.63 1468.33 Q2190.63 1459.58 2193.68 1455 Q2196.76 1450.39 2202.57 1450.39 Z" fill="#000000" fill-rule="nonzero" fill-opacity="1" /><path clip-path="url(#clip380)" d="M1155.4 1526.86 L1146.68 1550.51 L1164.15 1550.51 L1155.4 1526.86 M1151.77 1520.52 L1159.06 1520.52 L1177.17 1568.04 L1170.48 1568.04 L1166.16 1555.85 L1144.73 1555.85 L1140.41 1568.04 L1133.63 1568.04 L1151.77 1520.52 Z" fill="#000000" fill-rule="nonzero" fill-opacity="1" /><path clip-path="url(#clip380)" d="M1207.31 1549.81 Q1207.31 1543.44 1204.67 1539.94 Q1202.06 1536.44 1197.32 1536.44 Q1192.6 1536.44 1189.96 1539.94 Q1187.35 1543.44 1187.35 1549.81 Q1187.35 1556.14 1189.96 1559.64 Q1192.6 1563.14 1197.32 1563.14 Q1202.06 1563.14 1204.67 1559.64 Q1207.31 1556.14 1207.31 1549.81 M1213.17 1563.62 Q1213.17 1572.72 1209.12 1577.15 Q1205.08 1581.6 1196.74 1581.6 Q1193.66 1581.6 1190.92 1581.13 Q1188.18 1580.68 1185.6 1579.72 L1185.6 1574.03 Q1188.18 1575.43 1190.7 1576.1 Q1193.21 1576.76 1195.82 1576.76 Q1201.58 1576.76 1204.45 1573.74 Q1207.31 1570.75 1207.31 1564.67 L1207.31 1561.77 Q1205.5 1564.92 1202.66 1566.48 Q1199.83 1568.04 1195.88 1568.04 Q1189.33 1568.04 1185.32 1563.05 Q1181.31 1558.05 1181.31 1549.81 Q1181.31 1541.53 1185.32 1536.53 Q1189.33 1531.54 1195.88 1531.54 Q1199.83 1531.54 1202.66 1533.1 Q1205.5 1534.66 1207.31 1537.81 L1207.31 1532.4 L1213.17 1532.4 L1213.17 1563.62 Z" fill="#000000" fill-rule="nonzero" fill-opacity="1" /><path clip-path="url(#clip380)" d="M1255.72 1548.76 L1255.72 1551.62 L1228.79 1551.62 Q1229.18 1557.67 1232.42 1560.85 Q1235.7 1564 1241.53 1564 Q1244.9 1564 1248.05 1563.17 Q1251.23 1562.35 1254.35 1560.69 L1254.35 1566.23 Q1251.2 1567.57 1247.89 1568.27 Q1244.58 1568.97 1241.18 1568.97 Q1232.65 1568.97 1227.65 1564 Q1222.68 1559.04 1222.68 1550.57 Q1222.68 1541.82 1227.39 1536.69 Q1232.14 1531.54 1240.16 1531.54 Q1247.35 1531.54 1251.52 1536.18 Q1255.72 1540.8 1255.72 1548.76 M1249.86 1547.04 Q1249.8 1542.23 1247.16 1539.37 Q1244.55 1536.5 1240.22 1536.5 Q1235.32 1536.5 1232.36 1539.27 Q1229.43 1542.04 1228.99 1547.07 L1249.86 1547.04 Z" fill="#000000" fill-rule="nonzero" fill-opacity="1" /><path clip-path="url(#clip380)" d="M1300.12 1518.58 Q1295.86 1525.9 1293.79 1533.06 Q1291.72 1540.23 1291.72 1547.58 Q1291.72 1554.93 1293.79 1562.16 Q1295.89 1569.35 1300.12 1576.64 L1295.03 1576.64 Q1290.25 1569.16 1287.87 1561.93 Q1285.51 1554.71 1285.51 1547.58 Q1285.51 1540.48 1287.87 1533.29 Q1290.22 1526.09 1295.03 1518.58 L1300.12 1518.58 Z" fill="#000000" fill-rule="nonzero" fill-opacity="1" /><path clip-path="url(#clip380)" d="M1311.74 1520.52 L1321.32 1520.52 L1333.45 1552.86 L1345.64 1520.52 L1355.22 1520.52 L1355.22 1568.04 L1348.95 1568.04 L1348.95 1526.32 L1336.69 1558.91 L1330.23 1558.91 L1317.98 1526.32 L1317.98 1568.04 L1311.74 1568.04 L1311.74 1520.52 Z" fill="#000000" fill-rule="nonzero" fill-opacity="1" /><path clip-path="url(#clip380)" d="M1383.93 1550.12 Q1376.83 1550.12 1374.09 1551.75 Q1371.35 1553.37 1371.35 1557.29 Q1371.35 1560.4 1373.39 1562.25 Q1375.46 1564.07 1378.99 1564.07 Q1383.86 1564.07 1386.79 1560.63 Q1389.75 1557.16 1389.75 1551.43 L1389.75 1550.12 L1383.93 1550.12 M1395.61 1547.71 L1395.61 1568.04 L1389.75 1568.04 L1389.75 1562.63 Q1387.75 1565.88 1384.75 1567.44 Q1381.76 1568.97 1377.43 1568.97 Q1371.96 1568.97 1368.71 1565.91 Q1365.5 1562.82 1365.5 1557.67 Q1365.5 1551.65 1369.51 1548.6 Q1373.55 1545.54 1381.54 1545.54 L1389.75 1545.54 L1389.75 1544.97 Q1389.75 1540.93 1387.08 1538.73 Q1384.44 1536.5 1379.63 1536.5 Q1376.57 1536.5 1373.68 1537.23 Q1370.78 1537.97 1368.11 1539.43 L1368.11 1534.02 Q1371.32 1532.78 1374.35 1532.17 Q1377.37 1531.54 1380.23 1531.54 Q1387.97 1531.54 1391.79 1535.55 Q1395.61 1539.56 1395.61 1547.71 Z" fill="#000000" fill-rule="nonzero" fill-opacity="1" /><path clip-path="url(#clip380)" d="M1406.75 1518.58 L1411.84 1518.58 Q1416.61 1526.09 1418.97 1533.29 Q1421.36 1540.48 1421.36 1547.58 Q1421.36 1554.71 1418.97 1561.93 Q1416.61 1569.16 1411.84 1576.64 L1406.75 1576.64 Q1410.98 1569.35 1413.05 1562.16 Q1415.15 1554.93 1415.15 1547.58 Q1415.15 1540.23 1413.05 1533.06 Q1410.98 1525.9 1406.75 1518.58 Z" fill="#000000" fill-rule="nonzero" fill-opacity="1" /><polyline clip-path="url(#clip380)" style="stroke:#000000; stroke-linecap:round; stroke-linejoin:round; stroke-width:4; stroke-opacity:1; fill:none" points="202.227,1423.18 202.227,47.2441 "/>
<polyline clip-path="url(#clip380)" style="stroke:#000000; stroke-linecap:round; stroke-linejoin:round; stroke-width:4; stroke-opacity:1; fill:none" points="2352.76,1423.18 2352.76,47.2441 "/>
<polyline clip-path="url(#clip380)" style="stroke:#000000; stroke-linecap:round; stroke-linejoin:round; stroke-width:4; stroke-opacity:1; fill:none" points="202.227,1384.24 221.125,1384.24 "/>
<polyline clip-path="url(#clip380)" style="stroke:#000000; stroke-linecap:round; stroke-linejoin:round; stroke-width:4; stroke-opacity:1; fill:none" points="202.227,964.649 221.125,964.649 "/>
<polyline clip-path="url(#clip380)" style="stroke:#000000; stroke-linecap:round; stroke-linejoin:round; stroke-width:4; stroke-opacity:1; fill:none" points="202.227,545.06 221.125,545.06 "/>
<polyline clip-path="url(#clip380)" style="stroke:#000000; stroke-linecap:round; stroke-linejoin:round; stroke-width:4; stroke-opacity:1; fill:none" points="202.227,125.471 221.125,125.471 "/>
<polyline clip-path="url(#clip380)" style="stroke:#000000; stroke-linecap:round; stroke-linejoin:round; stroke-width:4; stroke-opacity:1; fill:none" points="2352.76,1384.24 2333.86,1384.24 "/>
<polyline clip-path="url(#clip380)" style="stroke:#000000; stroke-linecap:round; stroke-linejoin:round; stroke-width:4; stroke-opacity:1; fill:none" points="2352.76,964.649 2333.86,964.649 "/>
<polyline clip-path="url(#clip380)" style="stroke:#000000; stroke-linecap:round; stroke-linejoin:round; stroke-width:4; stroke-opacity:1; fill:none" points="2352.76,545.06 2333.86,545.06 "/>
<polyline clip-path="url(#clip380)" style="stroke:#000000; stroke-linecap:round; stroke-linejoin:round; stroke-width:4; stroke-opacity:1; fill:none" points="2352.76,125.471 2333.86,125.471 "/>
<path clip-path="url(#clip380)" d="M154.283 1370.04 Q150.672 1370.04 148.843 1373.6 Q147.038 1377.14 147.038 1384.27 Q147.038 1391.38 148.843 1394.94 Q150.672 1398.49 154.283 1398.49 Q157.917 1398.49 159.723 1394.94 Q161.552 1391.38 161.552 1384.27 Q161.552 1377.14 159.723 1373.6 Q157.917 1370.04 154.283 1370.04 M154.283 1366.33 Q160.093 1366.33 163.149 1370.94 Q166.227 1375.52 166.227 1384.27 Q166.227 1393 163.149 1397.61 Q160.093 1402.19 154.283 1402.19 Q148.473 1402.19 145.394 1397.61 Q142.339 1393 142.339 1384.27 Q142.339 1375.52 145.394 1370.94 Q148.473 1366.33 154.283 1366.33 Z" fill="#000000" fill-rule="nonzero" fill-opacity="1" /><path clip-path="url(#clip380)" d="M145.325 947.369 L163.681 947.369 L163.681 951.304 L149.607 951.304 L149.607 959.776 Q150.626 959.429 151.644 959.267 Q152.663 959.082 153.681 959.082 Q159.468 959.082 162.848 962.253 Q166.227 965.424 166.227 970.841 Q166.227 976.42 162.755 979.522 Q159.283 982.6 152.964 982.6 Q150.788 982.6 148.519 982.23 Q146.274 981.86 143.866 981.119 L143.866 976.42 Q145.95 977.554 148.172 978.11 Q150.394 978.665 152.871 978.665 Q156.876 978.665 159.214 976.559 Q161.552 974.452 161.552 970.841 Q161.552 967.23 159.214 965.124 Q156.876 963.017 152.871 963.017 Q150.996 963.017 149.121 963.434 Q147.269 963.85 145.325 964.73 L145.325 947.369 Z" fill="#000000" fill-rule="nonzero" fill-opacity="1" /><path clip-path="url(#clip380)" d="M114.931 558.405 L122.57 558.405 L122.57 532.039 L114.26 533.706 L114.26 529.446 L122.524 527.78 L127.2 527.78 L127.2 558.405 L134.839 558.405 L134.839 562.34 L114.931 562.34 L114.931 558.405 Z" fill="#000000" fill-rule="nonzero" fill-opacity="1" /><path clip-path="url(#clip380)" d="M154.283 530.858 Q150.672 530.858 148.843 534.423 Q147.038 537.965 147.038 545.095 Q147.038 552.201 148.843 555.766 Q150.672 559.307 154.283 559.307 Q157.917 559.307 159.723 555.766 Q161.552 552.201 161.552 545.095 Q161.552 537.965 159.723 534.423 Q157.917 530.858 154.283 530.858 M154.283 527.155 Q160.093 527.155 163.149 531.761 Q166.227 536.345 166.227 545.095 Q166.227 553.821 163.149 558.428 Q160.093 563.011 154.283 563.011 Q148.473 563.011 145.394 558.428 Q142.339 553.821 142.339 545.095 Q142.339 536.345 145.394 531.761 Q148.473 527.155 154.283 527.155 Z" fill="#000000" fill-rule="nonzero" fill-opacity="1" /><path clip-path="url(#clip380)" d="M115.927 138.815 L123.566 138.815 L123.566 112.45 L115.256 114.116 L115.256 109.857 L123.519 108.191 L128.195 108.191 L128.195 138.815 L135.834 138.815 L135.834 142.751 L115.927 142.751 L115.927 138.815 Z" fill="#000000" fill-rule="nonzero" fill-opacity="1" /><path clip-path="url(#clip380)" d="M145.325 108.191 L163.681 108.191 L163.681 112.126 L149.607 112.126 L149.607 120.598 Q150.626 120.251 151.644 120.089 Q152.663 119.903 153.681 119.903 Q159.468 119.903 162.848 123.075 Q166.227 126.246 166.227 131.663 Q166.227 137.241 162.755 140.343 Q159.283 143.422 152.964 143.422 Q150.788 143.422 148.519 143.051 Q146.274 142.681 143.866 141.94 L143.866 137.241 Q145.95 138.376 148.172 138.931 Q150.394 139.487 152.871 139.487 Q156.876 139.487 159.214 137.38 Q161.552 135.274 161.552 131.663 Q161.552 128.052 159.214 125.945 Q156.876 123.839 152.871 123.839 Q150.996 123.839 149.121 124.255 Q147.269 124.672 145.325 125.552 L145.325 108.191 Z" fill="#000000" fill-rule="nonzero" fill-opacity="1" /><path clip-path="url(#clip380)" d="M21.7677 1026.76 L39.6235 1026.76 L39.6235 1018.68 Q39.6235 1014.19 37.3 1011.74 Q34.9765 1009.29 30.6797 1009.29 Q26.4147 1009.29 24.0912 1011.74 Q21.7677 1014.19 21.7677 1018.68 L21.7677 1026.76 M16.4842 1033.19 L16.4842 1018.68 Q16.4842 1010.69 20.1126 1006.61 Q23.7092 1002.51 30.6797 1002.51 Q37.7138 1002.51 41.3104 1006.61 Q44.907 1010.69 44.907 1018.68 L44.907 1026.76 L64.0042 1026.76 L64.0042 1033.19 L16.4842 1033.19 Z" fill="#000000" fill-rule="nonzero" fill-opacity="1" /><path clip-path="url(#clip380)" d="M33.8307 974.626 Q33.2578 975.613 33.0032 976.791 Q32.7167 977.936 32.7167 979.337 Q32.7167 984.302 35.9632 986.976 Q39.1779 989.617 45.2253 989.617 L64.0042 989.617 L64.0042 995.506 L28.3562 995.506 L28.3562 989.617 L33.8944 989.617 Q30.6479 987.771 29.0883 984.811 Q27.4968 981.851 27.4968 977.618 Q27.4968 977.013 27.5923 976.281 Q27.656 975.549 27.8151 974.658 L33.8307 974.626 Z" fill="#000000" fill-rule="nonzero" fill-opacity="1" /><path clip-path="url(#clip380)" d="M32.4621 956.102 Q32.4621 960.813 36.1542 963.55 Q39.8145 966.287 46.212 966.287 Q52.6095 966.287 56.3017 963.582 Q59.9619 960.844 59.9619 956.102 Q59.9619 951.423 56.2698 948.686 Q52.5777 945.949 46.212 945.949 Q39.8781 945.949 36.186 948.686 Q32.4621 951.423 32.4621 956.102 M27.4968 956.102 Q27.4968 948.463 32.4621 944.103 Q37.4273 939.742 46.212 939.742 Q54.9649 939.742 59.9619 944.103 Q64.9272 948.463 64.9272 956.102 Q64.9272 963.773 59.9619 968.133 Q54.9649 972.462 46.212 972.462 Q37.4273 972.462 32.4621 968.133 Q27.4968 963.773 27.4968 956.102 Z" fill="#000000" fill-rule="nonzero" fill-opacity="1" /><path clip-path="url(#clip380)" d="M46.212 904.444 Q39.7508 904.444 36.0905 907.118 Q32.3984 909.76 32.3984 914.407 Q32.3984 919.054 36.0905 921.727 Q39.7508 924.369 46.212 924.369 Q52.6732 924.369 56.3653 921.727 Q60.0256 919.054 60.0256 914.407 Q60.0256 909.76 56.3653 907.118 Q52.6732 904.444 46.212 904.444 M33.7671 924.369 Q30.5842 922.523 29.0564 919.722 Q27.4968 916.889 27.4968 912.974 Q27.4968 906.481 32.6531 902.439 Q37.8093 898.365 46.212 898.365 Q54.6147 898.365 59.771 902.439 Q64.9272 906.481 64.9272 912.974 Q64.9272 916.889 63.3994 919.722 Q61.8398 922.523 58.657 924.369 L64.0042 924.369 L64.0042 930.257 L14.479 930.257 L14.479 924.369 L33.7671 924.369 Z" fill="#000000" fill-rule="nonzero" fill-opacity="1" /><path clip-path="url(#clip380)" d="M46.0847 872.457 Q46.0847 879.554 47.7079 882.292 Q49.3312 885.029 53.2461 885.029 Q56.3653 885.029 58.2114 882.992 Q60.0256 880.923 60.0256 877.39 Q60.0256 872.52 56.5881 869.592 Q53.1188 866.632 47.3897 866.632 L46.0847 866.632 L46.0847 872.457 M43.6657 860.776 L64.0042 860.776 L64.0042 866.632 L58.5933 866.632 Q61.8398 868.637 63.3994 871.629 Q64.9272 874.621 64.9272 878.95 Q64.9272 884.424 61.8716 887.671 Q58.7843 890.885 53.6281 890.885 Q47.6125 890.885 44.5569 886.875 Q41.5014 882.833 41.5014 874.844 L41.5014 866.632 L40.9285 866.632 Q36.8862 866.632 34.6901 869.306 Q32.4621 871.947 32.4621 876.753 Q32.4621 879.809 33.1941 882.705 Q33.9262 885.602 35.3903 888.275 L29.9795 888.275 Q28.7381 885.061 28.1334 882.037 Q27.4968 879.013 27.4968 876.149 Q27.4968 868.414 31.5072 864.595 Q35.5176 860.776 43.6657 860.776 Z" fill="#000000" fill-rule="nonzero" fill-opacity="1" /><path clip-path="url(#clip380)" d="M46.212 823.122 Q39.7508 823.122 36.0905 825.796 Q32.3984 828.438 32.3984 833.085 Q32.3984 837.732 36.0905 840.405 Q39.7508 843.047 46.212 843.047 Q52.6732 843.047 56.3653 840.405 Q60.0256 837.732 60.0256 833.085 Q60.0256 828.438 56.3653 825.796 Q52.6732 823.122 46.212 823.122 M33.7671 843.047 Q30.5842 841.201 29.0564 838.4 Q27.4968 835.567 27.4968 831.652 Q27.4968 825.159 32.6531 821.117 Q37.8093 817.043 46.212 817.043 Q54.6147 817.043 59.771 821.117 Q64.9272 825.159 64.9272 831.652 Q64.9272 835.567 63.3994 838.4 Q61.8398 841.201 58.657 843.047 L64.0042 843.047 L64.0042 848.935 L14.479 848.935 L14.479 843.047 L33.7671 843.047 Z" fill="#000000" fill-rule="nonzero" fill-opacity="1" /><path clip-path="url(#clip380)" d="M28.3562 807.335 L28.3562 801.479 L64.0042 801.479 L64.0042 807.335 L28.3562 807.335 M14.479 807.335 L14.479 801.479 L21.895 801.479 L21.895 807.335 L14.479 807.335 Z" fill="#000000" fill-rule="nonzero" fill-opacity="1" /><path clip-path="url(#clip380)" d="M14.479 789.225 L14.479 783.369 L64.0042 783.369 L64.0042 789.225 L14.479 789.225 Z" fill="#000000" fill-rule="nonzero" fill-opacity="1" /><path clip-path="url(#clip380)" d="M28.3562 771.115 L28.3562 765.258 L64.0042 765.258 L64.0042 771.115 L28.3562 771.115 M14.479 771.115 L14.479 765.258 L21.895 765.258 L21.895 771.115 L14.479 771.115 Z" fill="#000000" fill-rule="nonzero" fill-opacity="1" /><path clip-path="url(#clip380)" d="M18.2347 747.211 L28.3562 747.211 L28.3562 735.148 L32.9077 735.148 L32.9077 747.211 L52.2594 747.211 Q56.6199 747.211 57.8613 746.034 Q59.1026 744.824 59.1026 741.164 L59.1026 735.148 L64.0042 735.148 L64.0042 741.164 Q64.0042 747.943 61.4897 750.521 Q58.9434 753.1 52.2594 753.1 L32.9077 753.1 L32.9077 757.396 L28.3562 757.396 L28.3562 753.1 L18.2347 753.1 L18.2347 747.211 Z" fill="#000000" fill-rule="nonzero" fill-opacity="1" /><path clip-path="url(#clip380)" d="M67.3143 712.614 Q73.68 715.096 75.6216 717.452 Q77.5631 719.807 77.5631 723.754 L77.5631 728.432 L72.6615 728.432 L72.6615 724.995 Q72.6615 722.576 71.5157 721.239 Q70.3699 719.902 66.1048 718.279 L63.4312 717.229 L28.3562 731.647 L28.3562 725.441 L56.238 714.301 L28.3562 703.161 L28.3562 696.954 L67.3143 712.614 Z" fill="#000000" fill-rule="nonzero" fill-opacity="1" /><path clip-path="url(#clip380)" d="M33.7671 644.692 L14.479 644.692 L14.479 638.835 L64.0042 638.835 L64.0042 644.692 L58.657 644.692 Q61.8398 646.538 63.3994 649.37 Q64.9272 652.171 64.9272 656.118 Q64.9272 662.579 59.771 666.653 Q54.6147 670.696 46.212 670.696 Q37.8093 670.696 32.6531 666.653 Q27.4968 662.579 27.4968 656.118 Q27.4968 652.171 29.0564 649.37 Q30.5842 646.538 33.7671 644.692 M46.212 664.648 Q52.6732 664.648 56.3653 662.006 Q60.0256 659.333 60.0256 654.686 Q60.0256 650.039 56.3653 647.365 Q52.6732 644.692 46.212 644.692 Q39.7508 644.692 36.0905 647.365 Q32.3984 650.039 32.3984 654.686 Q32.3984 659.333 36.0905 662.006 Q39.7508 664.648 46.212 664.648 Z" fill="#000000" fill-rule="nonzero" fill-opacity="1" /><path clip-path="url(#clip380)" d="M44.7161 596.28 L47.5806 596.28 L47.5806 623.207 Q53.6281 622.825 56.8109 619.579 Q59.9619 616.301 59.9619 610.476 Q59.9619 607.102 59.1344 603.951 Q58.3069 600.768 56.6518 597.649 L62.1899 597.649 Q63.5267 600.8 64.227 604.11 Q64.9272 607.42 64.9272 610.826 Q64.9272 619.356 59.9619 624.353 Q54.9967 629.318 46.5303 629.318 Q37.7774 629.318 32.6531 624.608 Q27.4968 619.865 27.4968 611.845 Q27.4968 604.651 32.1438 600.482 Q36.7589 596.28 44.7161 596.28 M42.9973 602.137 Q38.1912 602.201 35.3266 604.842 Q32.4621 607.452 32.4621 611.781 Q32.4621 616.683 35.2312 619.643 Q38.0002 622.571 43.0292 623.016 L42.9973 602.137 Z" fill="#000000" fill-rule="nonzero" fill-opacity="1" /><path clip-path="url(#clip380)" d="M42.4881 557.036 L64.0042 557.036 L64.0042 562.892 L42.679 562.892 Q37.6183 562.892 35.1038 564.866 Q32.5894 566.839 32.5894 570.786 Q32.5894 575.528 35.6131 578.265 Q38.6368 581.003 43.8567 581.003 L64.0042 581.003 L64.0042 586.891 L28.3562 586.891 L28.3562 581.003 L33.8944 581.003 Q30.6797 578.902 29.0883 576.069 Q27.4968 573.205 27.4968 569.481 Q27.4968 563.338 31.3163 560.187 Q35.1038 557.036 42.4881 557.036 Z" fill="#000000" fill-rule="nonzero" fill-opacity="1" /><path clip-path="url(#clip380)" d="M29.4065 522.629 L34.9447 522.629 Q33.6716 525.112 33.035 527.785 Q32.3984 530.459 32.3984 533.324 Q32.3984 537.684 33.7352 539.88 Q35.072 542.045 37.7456 542.045 Q39.7826 542.045 40.9603 540.485 Q42.1061 538.925 43.1565 534.215 L43.6021 532.21 Q44.9389 525.971 47.3897 523.361 Q49.8086 520.719 54.1691 520.719 Q59.1344 520.719 62.0308 524.666 Q64.9272 528.581 64.9272 535.456 Q64.9272 538.321 64.3543 541.44 Q63.8132 544.527 62.6992 547.965 L56.6518 547.965 Q58.3387 544.718 59.198 541.567 Q60.0256 538.416 60.0256 535.329 Q60.0256 531.191 58.6251 528.963 Q57.1929 526.735 54.6147 526.735 Q52.2276 526.735 50.9545 528.358 Q49.6813 529.95 48.5037 535.392 L48.0262 537.429 Q46.8804 542.872 44.5251 545.291 Q42.138 547.71 38.0002 547.71 Q32.9713 547.71 30.2341 544.145 Q27.4968 540.58 27.4968 534.024 Q27.4968 530.777 27.9743 527.913 Q28.4517 525.048 29.4065 522.629 Z" fill="#000000" fill-rule="nonzero" fill-opacity="1" /><path clip-path="url(#clip380)" d="M28.3562 511.394 L28.3562 505.537 L64.0042 505.537 L64.0042 511.394 L28.3562 511.394 M14.479 511.394 L14.479 505.537 L21.895 505.537 L21.895 511.394 L14.479 511.394 Z" fill="#000000" fill-rule="nonzero" fill-opacity="1" /><path clip-path="url(#clip380)" d="M18.2347 487.49 L28.3562 487.49 L28.3562 475.427 L32.9077 475.427 L32.9077 487.49 L52.2594 487.49 Q56.6199 487.49 57.8613 486.313 Q59.1026 485.103 59.1026 481.443 L59.1026 475.427 L64.0042 475.427 L64.0042 481.443 Q64.0042 488.223 61.4897 490.801 Q58.9434 493.379 52.2594 493.379 L32.9077 493.379 L32.9077 497.676 L28.3562 497.676 L28.3562 493.379 L18.2347 493.379 L18.2347 487.49 Z" fill="#000000" fill-rule="nonzero" fill-opacity="1" /><path clip-path="url(#clip380)" d="M67.3143 452.893 Q73.68 455.376 75.6216 457.731 Q77.5631 460.086 77.5631 464.033 L77.5631 468.712 L72.6615 468.712 L72.6615 465.274 Q72.6615 462.855 71.5157 461.518 Q70.3699 460.182 66.1048 458.558 L63.4312 457.508 L28.3562 471.926 L28.3562 465.72 L56.238 454.58 L28.3562 443.44 L28.3562 437.233 L67.3143 452.893 Z" fill="#000000" fill-rule="nonzero" fill-opacity="1" /><polyline clip-path="url(#clip382)" style="stroke:#009af9; stroke-linecap:round; stroke-linejoin:round; stroke-width:4; stroke-opacity:1; fill:none" points="263.091,1384.23 345.063,1384.16 427.035,1384.22 509.007,1384.23 529.5,1384.23 590.978,1384.23 631.964,1384.22 652.457,1384.2 672.95,1384.19 693.443,1384.16 713.936,1384.03 734.429,1384.16 754.922,1384.13 775.415,1384.15 795.908,1384.01 816.401,1384.14 836.894,1384 857.387,1384.11 877.879,1384.05 898.372,1384.16 918.865,1383.97 939.358,1383.94 959.851,1383.8 980.344,1383.79 1000.84,1383.88 1021.33,1383.26 1041.82,1383.83 1062.32,1383.9 1082.81,1383.26 1103.3,1382.84 1123.79,1383.37 1144.29,1382.42 1164.78,1382.59 1185.27,1382.92 1205.77,1382.04 1226.26,1382.43 1246.75,1381.74 1267.25,1381.49 1287.74,1380.93 1308.23,1378.54 1328.72,1378.59 1349.22,1378.05 1369.71,1375.92 1390.2,1374.48 1410.7,1372.64 1431.19,1368.63 1451.68,1364.53 1472.17,1359.64 1492.67,1354.5 1513.16,1351.14 1533.65,1336.9 1554.15,1323.55 1574.64,1306.87 1595.13,1286.6 1615.63,1258.69 1636.12,1214.51 1656.61,1151.87 1677.1,1043.27 1697.6,1001.8 1718.09,966.482 1738.58,929.277 1759.08,885.84 1779.57,850.969 1800.06,800.184 1820.55,775.453 1841.05,742.967 1861.54,983.637 1882.03,999.994 1902.53,1093.96 1923.02,1135.56 1943.51,1249.27 1964,1257.01 1984.5,1283.66 2004.99,1309.81 2025.48,1340.83 2045.98,1348.75 2066.47,1357.92 2086.96,1365.59 2107.46,1372.69 2127.95,1377.65 2148.44,1378.49 2168.93,1381.17 2189.43,1382.16 2209.92,1382.86 2230.41,1383.7 2250.91,1383.92 2271.4,1384.16 2291.89,1384.11 "/>
<polyline clip-path="url(#clip382)" style="stroke:#e26f46; stroke-linecap:round; stroke-linejoin:round; stroke-width:4; stroke-opacity:1; fill:none" points="263.091,1384.24 345.063,1384.24 427.035,1384.24 509.007,1384.24 529.5,1384.24 590.978,1384.24 631.964,1384.24 652.457,1384.24 672.95,1384.24 693.443,1384.24 713.936,1384.24 734.429,1384.23 754.922,1384.23 775.415,1384.23 795.908,1384.23 816.401,1384.23 836.894,1384.22 857.387,1384.22 877.879,1384.21 898.372,1384.21 918.865,1384.2 939.358,1384.18 959.851,1384.17 980.344,1384.15 1000.84,1384.12 1021.33,1384.08 1041.82,1384.03 1062.32,1383.97 1082.81,1383.89 1103.3,1383.78 1123.79,1383.64 1144.29,1383.45 1164.78,1383.21 1185.27,1382.89 1205.77,1382.48 1226.26,1381.94 1246.75,1381.24 1267.25,1380.32 1287.74,1379.12 1308.23,1377.56 1328.72,1375.52 1349.22,1372.87 1369.71,1369.42 1390.2,1364.94 1410.7,1359.12 1431.19,1351.58 1451.68,1341.81 1472.17,1329.2 1492.67,1312.95 1513.16,1292.08 1533.65,1265.38 1554.15,1231.37 1574.64,1188.34 1595.13,1134.29 1615.63,1067.13 1636.12,984.79 1656.61,885.663 1677.1,769.25 1697.6,637.154 1718.09,494.393 1738.58,350.776 1759.08,221.636 1779.57,126.742 1800.06,86.1857 1820.55,113.492 1841.05,208.909 1861.54,357.529 1882.03,534.442 1902.53,713.841 1923.02,876.452 1943.51,1012.18 1964,1118.73 1984.5,1198.64 2004.99,1256.56 2025.48,1297.48 2045.98,1325.86 2066.47,1345.24 2086.96,1358.34 2107.46,1367.12 2127.95,1372.97 2148.44,1376.84 2168.93,1379.39 2189.43,1381.07 2209.92,1382.17 2230.41,1382.89 2250.91,1383.36 2271.4,1383.67 2291.89,1383.87 "/>
<path clip-path="url(#clip380)" d="M273.912 248.629 L823.268 248.629 L823.268 93.1086 L273.912 93.1086  Z" fill="#ffffff" fill-rule="evenodd" fill-opacity="1"/>
<polyline clip-path="url(#clip380)" style="stroke:#ffffff; stroke-linecap:round; stroke-linejoin:round; stroke-width:4; stroke-opacity:1; fill:none" points="273.912,248.629 823.268,248.629 823.268,93.1086 273.912,93.1086 273.912,248.629 "/>
<polyline clip-path="url(#clip380)" style="stroke:#009af9; stroke-linecap:round; stroke-linejoin:round; stroke-width:4; stroke-opacity:1; fill:none" points="297.807,144.949 441.175,144.949 "/>
<path clip-path="url(#clip380)" d="M465.07 127.669 L469.746 127.669 L469.746 141.835 L486.736 141.835 L486.736 127.669 L491.412 127.669 L491.412 162.229 L486.736 162.229 L486.736 145.77 L469.746 145.77 L469.746 162.229 L465.07 162.229 L465.07 127.669 Z" fill="#000000" fill-rule="nonzero" fill-opacity="1" /><path clip-path="url(#clip380)" d="M500.533 136.303 L504.792 136.303 L504.792 162.229 L500.533 162.229 L500.533 136.303 M500.533 126.21 L504.792 126.21 L504.792 131.604 L500.533 131.604 L500.533 126.21 Z" fill="#000000" fill-rule="nonzero" fill-opacity="1" /><path clip-path="url(#clip380)" d="M530.232 137.067 L530.232 141.094 Q528.426 140.169 526.482 139.706 Q524.537 139.243 522.454 139.243 Q519.283 139.243 517.685 140.215 Q516.111 141.187 516.111 143.131 Q516.111 144.613 517.245 145.469 Q518.38 146.303 521.806 147.067 L523.264 147.391 Q527.801 148.363 529.699 150.145 Q531.62 151.905 531.62 155.076 Q531.62 158.687 528.75 160.793 Q525.903 162.9 520.903 162.9 Q518.82 162.9 516.551 162.483 Q514.306 162.09 511.806 161.28 L511.806 156.881 Q514.167 158.108 516.458 158.733 Q518.75 159.335 520.995 159.335 Q524.005 159.335 525.625 158.317 Q527.245 157.275 527.245 155.4 Q527.245 153.664 526.065 152.738 Q524.907 151.812 520.949 150.956 L519.468 150.608 Q515.509 149.775 513.75 148.062 Q511.991 146.326 511.991 143.317 Q511.991 139.659 514.583 137.669 Q517.176 135.678 521.945 135.678 Q524.306 135.678 526.389 136.025 Q528.472 136.372 530.232 137.067 Z" fill="#000000" fill-rule="nonzero" fill-opacity="1" /><path clip-path="url(#clip380)" d="M542.616 128.942 L542.616 136.303 L551.389 136.303 L551.389 139.613 L542.616 139.613 L542.616 153.687 Q542.616 156.858 543.472 157.761 Q544.352 158.664 547.014 158.664 L551.389 158.664 L551.389 162.229 L547.014 162.229 Q542.083 162.229 540.208 160.4 Q538.333 158.548 538.333 153.687 L538.333 139.613 L535.208 139.613 L535.208 136.303 L538.333 136.303 L538.333 128.942 L542.616 128.942 Z" fill="#000000" fill-rule="nonzero" fill-opacity="1" /><path clip-path="url(#clip380)" d="M567.037 139.289 Q563.611 139.289 561.62 141.974 Q559.63 144.636 559.63 149.289 Q559.63 153.942 561.597 156.627 Q563.588 159.289 567.037 159.289 Q570.44 159.289 572.43 156.604 Q574.421 153.918 574.421 149.289 Q574.421 144.682 572.43 141.997 Q570.44 139.289 567.037 139.289 M567.037 135.678 Q572.592 135.678 575.764 139.289 Q578.935 142.9 578.935 149.289 Q578.935 155.655 575.764 159.289 Q572.592 162.9 567.037 162.9 Q561.458 162.9 558.287 159.289 Q555.139 155.655 555.139 149.289 Q555.139 142.9 558.287 139.289 Q561.458 135.678 567.037 135.678 Z" fill="#000000" fill-rule="nonzero" fill-opacity="1" /><path clip-path="url(#clip380)" d="M603.055 148.965 Q603.055 144.335 601.134 141.789 Q599.236 139.243 595.787 139.243 Q592.361 139.243 590.44 141.789 Q588.541 144.335 588.541 148.965 Q588.541 153.571 590.44 156.118 Q592.361 158.664 595.787 158.664 Q599.236 158.664 601.134 156.118 Q603.055 153.571 603.055 148.965 M607.314 159.011 Q607.314 165.631 604.375 168.849 Q601.435 172.09 595.37 172.09 Q593.125 172.09 591.134 171.742 Q589.143 171.418 587.268 170.724 L587.268 166.58 Q589.143 167.599 590.972 168.085 Q592.801 168.571 594.699 168.571 Q598.889 168.571 600.972 166.372 Q603.055 164.196 603.055 159.775 L603.055 157.668 Q601.736 159.96 599.676 161.094 Q597.615 162.229 594.745 162.229 Q589.977 162.229 587.06 158.594 Q584.143 154.96 584.143 148.965 Q584.143 142.946 587.06 139.312 Q589.977 135.678 594.745 135.678 Q597.615 135.678 599.676 136.812 Q601.736 137.946 603.055 140.238 L603.055 136.303 L607.314 136.303 L607.314 159.011 Z" fill="#000000" fill-rule="nonzero" fill-opacity="1" /><path clip-path="url(#clip380)" d="M631.111 140.284 Q630.393 139.868 629.537 139.682 Q628.703 139.474 627.685 139.474 Q624.074 139.474 622.129 141.835 Q620.208 144.173 620.208 148.571 L620.208 162.229 L615.926 162.229 L615.926 136.303 L620.208 136.303 L620.208 140.331 Q621.55 137.969 623.703 136.835 Q625.856 135.678 628.935 135.678 Q629.375 135.678 629.907 135.747 Q630.439 135.794 631.087 135.909 L631.111 140.284 Z" fill="#000000" fill-rule="nonzero" fill-opacity="1" /><path clip-path="url(#clip380)" d="M647.361 149.196 Q642.199 149.196 640.208 150.377 Q638.217 151.557 638.217 154.405 Q638.217 156.673 639.699 158.016 Q641.203 159.335 643.773 159.335 Q647.314 159.335 649.444 156.835 Q651.597 154.312 651.597 150.145 L651.597 149.196 L647.361 149.196 M655.856 147.437 L655.856 162.229 L651.597 162.229 L651.597 158.293 Q650.138 160.655 647.962 161.789 Q645.786 162.9 642.638 162.9 Q638.657 162.9 636.296 160.678 Q633.958 158.432 633.958 154.682 Q633.958 150.307 636.874 148.085 Q639.814 145.863 645.624 145.863 L651.597 145.863 L651.597 145.446 Q651.597 142.507 649.652 140.909 Q647.731 139.289 644.236 139.289 Q642.013 139.289 639.907 139.821 Q637.8 140.354 635.856 141.419 L635.856 137.483 Q638.194 136.581 640.393 136.141 Q642.592 135.678 644.675 135.678 Q650.3 135.678 653.078 138.594 Q655.856 141.511 655.856 147.437 Z" fill="#000000" fill-rule="nonzero" fill-opacity="1" /><path clip-path="url(#clip380)" d="M684.814 141.28 Q686.411 138.409 688.633 137.044 Q690.856 135.678 693.865 135.678 Q697.916 135.678 700.115 138.525 Q702.314 141.349 702.314 146.581 L702.314 162.229 L698.032 162.229 L698.032 146.719 Q698.032 142.993 696.712 141.187 Q695.393 139.382 692.684 139.382 Q689.374 139.382 687.453 141.581 Q685.532 143.78 685.532 147.576 L685.532 162.229 L681.249 162.229 L681.249 146.719 Q681.249 142.969 679.93 141.187 Q678.61 139.382 675.856 139.382 Q672.592 139.382 670.671 141.604 Q668.749 143.803 668.749 147.576 L668.749 162.229 L664.467 162.229 L664.467 136.303 L668.749 136.303 L668.749 140.331 Q670.208 137.946 672.245 136.812 Q674.282 135.678 677.083 135.678 Q679.907 135.678 681.874 137.113 Q683.865 138.548 684.814 141.28 Z" fill="#000000" fill-rule="nonzero" fill-opacity="1" /><polyline clip-path="url(#clip380)" style="stroke:#e26f46; stroke-linecap:round; stroke-linejoin:round; stroke-width:4; stroke-opacity:1; fill:none" points="297.807,196.789 441.175,196.789 "/>
<path clip-path="url(#clip380)" d="M469.746 183.351 L469.746 210.226 L475.394 210.226 Q482.547 210.226 485.857 206.985 Q489.19 203.745 489.19 196.754 Q489.19 189.809 485.857 186.592 Q482.547 183.351 475.394 183.351 L469.746 183.351 M465.07 179.509 L474.676 179.509 Q484.723 179.509 489.422 183.698 Q494.121 187.865 494.121 196.754 Q494.121 205.689 489.398 209.879 Q484.676 214.069 474.676 214.069 L465.07 214.069 L465.07 179.509 Z" fill="#000000" fill-rule="nonzero" fill-opacity="1" /><path clip-path="url(#clip380)" d="M501.389 188.143 L505.648 188.143 L505.648 214.069 L501.389 214.069 L501.389 188.143 M501.389 178.05 L505.648 178.05 L505.648 183.444 L501.389 183.444 L501.389 178.05 Z" fill="#000000" fill-rule="nonzero" fill-opacity="1" /><path clip-path="url(#clip380)" d="M531.088 188.907 L531.088 192.934 Q529.282 192.009 527.338 191.546 Q525.394 191.083 523.31 191.083 Q520.139 191.083 518.542 192.055 Q516.968 193.027 516.968 194.971 Q516.968 196.453 518.102 197.309 Q519.236 198.143 522.662 198.907 L524.12 199.231 Q528.657 200.203 530.556 201.985 Q532.477 203.745 532.477 206.916 Q532.477 210.527 529.607 212.633 Q526.759 214.74 521.759 214.74 Q519.676 214.74 517.408 214.323 Q515.162 213.93 512.662 213.12 L512.662 208.721 Q515.023 209.948 517.315 210.573 Q519.607 211.175 521.852 211.175 Q524.861 211.175 526.482 210.157 Q528.102 209.115 528.102 207.24 Q528.102 205.504 526.921 204.578 Q525.764 203.652 521.806 202.796 L520.324 202.448 Q516.366 201.615 514.607 199.902 Q512.847 198.166 512.847 195.157 Q512.847 191.499 515.44 189.509 Q518.033 187.518 522.801 187.518 Q525.162 187.518 527.245 187.865 Q529.329 188.212 531.088 188.907 Z" fill="#000000" fill-rule="nonzero" fill-opacity="1" /><path clip-path="url(#clip380)" d="M543.472 180.782 L543.472 188.143 L552.245 188.143 L552.245 191.453 L543.472 191.453 L543.472 205.527 Q543.472 208.698 544.329 209.601 Q545.208 210.504 547.87 210.504 L552.245 210.504 L552.245 214.069 L547.87 214.069 Q542.94 214.069 541.065 212.24 Q539.19 210.388 539.19 205.527 L539.19 191.453 L536.065 191.453 L536.065 188.143 L539.19 188.143 L539.19 180.782 L543.472 180.782 Z" fill="#000000" fill-rule="nonzero" fill-opacity="1" /><path clip-path="url(#clip380)" d="M572.87 192.124 Q572.153 191.708 571.296 191.522 Q570.463 191.314 569.444 191.314 Q565.833 191.314 563.889 193.675 Q561.967 196.013 561.967 200.411 L561.967 214.069 L557.685 214.069 L557.685 188.143 L561.967 188.143 L561.967 192.171 Q563.31 189.809 565.463 188.675 Q567.616 187.518 570.694 187.518 Q571.134 187.518 571.666 187.587 Q572.199 187.634 572.847 187.749 L572.87 192.124 Z" fill="#000000" fill-rule="nonzero" fill-opacity="1" /><path clip-path="url(#clip380)" d="M577.338 188.143 L581.597 188.143 L581.597 214.069 L577.338 214.069 L577.338 188.143 M577.338 178.05 L581.597 178.05 L581.597 183.444 L577.338 183.444 L577.338 178.05 Z" fill="#000000" fill-rule="nonzero" fill-opacity="1" /><path clip-path="url(#clip380)" d="M609.12 201.129 Q609.12 196.43 607.176 193.768 Q605.254 191.083 601.875 191.083 Q598.495 191.083 596.551 193.768 Q594.629 196.43 594.629 201.129 Q594.629 205.828 596.551 208.513 Q598.495 211.175 601.875 211.175 Q605.254 211.175 607.176 208.513 Q609.12 205.828 609.12 201.129 M594.629 192.078 Q595.972 189.763 598.009 188.652 Q600.069 187.518 602.916 187.518 Q607.639 187.518 610.578 191.268 Q613.541 195.018 613.541 201.129 Q613.541 207.24 610.578 210.99 Q607.639 214.74 602.916 214.74 Q600.069 214.74 598.009 213.629 Q595.972 212.495 594.629 210.18 L594.629 214.069 L590.347 214.069 L590.347 178.05 L594.629 178.05 L594.629 192.078 Z" fill="#000000" fill-rule="nonzero" fill-opacity="1" /><path clip-path="url(#clip380)" d="M620.162 203.837 L620.162 188.143 L624.421 188.143 L624.421 203.675 Q624.421 207.356 625.856 209.208 Q627.291 211.036 630.162 211.036 Q633.611 211.036 635.601 208.837 Q637.615 206.638 637.615 202.842 L637.615 188.143 L641.874 188.143 L641.874 214.069 L637.615 214.069 L637.615 210.087 Q636.064 212.448 634.004 213.606 Q631.967 214.74 629.259 214.74 Q624.791 214.74 622.476 211.962 Q620.162 209.184 620.162 203.837 M630.879 187.518 L630.879 187.518 Z" fill="#000000" fill-rule="nonzero" fill-opacity="1" /><path clip-path="url(#clip380)" d="M654.86 180.782 L654.86 188.143 L663.634 188.143 L663.634 191.453 L654.86 191.453 L654.86 205.527 Q654.86 208.698 655.717 209.601 Q656.597 210.504 659.259 210.504 L663.634 210.504 L663.634 214.069 L659.259 214.069 Q654.328 214.069 652.453 212.24 Q650.578 210.388 650.578 205.527 L650.578 191.453 L647.453 191.453 L647.453 188.143 L650.578 188.143 L650.578 180.782 L654.86 180.782 Z" fill="#000000" fill-rule="nonzero" fill-opacity="1" /><path clip-path="url(#clip380)" d="M669.235 188.143 L673.495 188.143 L673.495 214.069 L669.235 214.069 L669.235 188.143 M669.235 178.05 L673.495 178.05 L673.495 183.444 L669.235 183.444 L669.235 178.05 Z" fill="#000000" fill-rule="nonzero" fill-opacity="1" /><path clip-path="url(#clip380)" d="M692.453 191.129 Q689.027 191.129 687.036 193.814 Q685.046 196.476 685.046 201.129 Q685.046 205.782 687.013 208.467 Q689.004 211.129 692.453 211.129 Q695.856 211.129 697.846 208.444 Q699.837 205.758 699.837 201.129 Q699.837 196.522 697.846 193.837 Q695.856 191.129 692.453 191.129 M692.453 187.518 Q698.008 187.518 701.18 191.129 Q704.351 194.74 704.351 201.129 Q704.351 207.495 701.18 211.129 Q698.008 214.74 692.453 214.74 Q686.874 214.74 683.703 211.129 Q680.555 207.495 680.555 201.129 Q680.555 194.74 683.703 191.129 Q686.874 187.518 692.453 187.518 Z" fill="#000000" fill-rule="nonzero" fill-opacity="1" /><path clip-path="url(#clip380)" d="M732.962 198.421 L732.962 214.069 L728.703 214.069 L728.703 198.559 Q728.703 194.879 727.268 193.05 Q725.832 191.222 722.962 191.222 Q719.513 191.222 717.522 193.421 Q715.531 195.62 715.531 199.416 L715.531 214.069 L711.249 214.069 L711.249 188.143 L715.531 188.143 L715.531 192.171 Q717.059 189.833 719.119 188.675 Q721.203 187.518 723.911 187.518 Q728.379 187.518 730.67 190.296 Q732.962 193.05 732.962 198.421 Z" fill="#000000" fill-rule="nonzero" fill-opacity="1" /><path clip-path="url(#clip380)" d="M769.652 178.05 L769.652 181.592 L765.577 181.592 Q763.286 181.592 762.383 182.518 Q761.503 183.444 761.503 185.851 L761.503 188.143 L768.517 188.143 L768.517 191.453 L761.503 191.453 L761.503 214.069 L757.221 214.069 L757.221 191.453 L753.147 191.453 L753.147 188.143 L757.221 188.143 L757.221 186.337 Q757.221 182.009 759.235 180.041 Q761.249 178.05 765.624 178.05 L769.652 178.05 Z" fill="#000000" fill-rule="nonzero" fill-opacity="1" /><path clip-path="url(#clip380)" d="M773.216 188.143 L777.476 188.143 L777.476 214.069 L773.216 214.069 L773.216 188.143 M773.216 178.05 L777.476 178.05 L777.476 183.444 L773.216 183.444 L773.216 178.05 Z" fill="#000000" fill-rule="nonzero" fill-opacity="1" /><path clip-path="url(#clip380)" d="M790.6 180.782 L790.6 188.143 L799.374 188.143 L799.374 191.453 L790.6 191.453 L790.6 205.527 Q790.6 208.698 791.457 209.601 Q792.337 210.504 794.999 210.504 L799.374 210.504 L799.374 214.069 L794.999 214.069 Q790.068 214.069 788.193 212.24 Q786.318 210.388 786.318 205.527 L786.318 191.453 L783.193 191.453 L783.193 188.143 L786.318 188.143 L786.318 180.782 L790.6 180.782 Z" fill="#000000" fill-rule="nonzero" fill-opacity="1" /></svg>
