<?xml version="1.0" encoding="utf-8"?>
<svg xmlns="http://www.w3.org/2000/svg" xmlns:xlink="http://www.w3.org/1999/xlink" width="600" height="400" viewBox="0 0 2400 1600">
<defs>
  <clipPath id="clip740">
    <rect x="0" y="0" width="2400" height="1600"/>
  </clipPath>
</defs>
<path clip-path="url(#clip740)" d="M0 1600 L2400 1600 L2400 8.88178e-14 L0 8.88178e-14  Z" fill="#ffffff" fill-rule="evenodd" fill-opacity="1"/>
<defs>
  <clipPath id="clip741">
    <rect x="480" y="0" width="1681" height="1600"/>
  </clipPath>
</defs>
<path clip-path="url(#clip740)" d="M249.357 1552.76 L2352.76 1552.76 L2352.76 47.2441 L249.357 47.2441  Z" fill="#ffffff" fill-rule="evenodd" fill-opacity="1"/>
<defs>
  <clipPath id="clip742">
    <rect x="249" y="47" width="2104" height="1507"/>
  </clipPath>
</defs>
<polyline clip-path="url(#clip742)" style="stroke:#000000; stroke-linecap:round; stroke-linejoin:round; stroke-width:2; stroke-opacity:0.1; fill:none" points="249.357,1388.23 2352.76,1388.23 "/>
<polyline clip-path="url(#clip742)" style="stroke:#000000; stroke-linecap:round; stroke-linejoin:round; stroke-width:2; stroke-opacity:0.1; fill:none" points="249.357,1083.45 2352.76,1083.45 "/>
<polyline clip-path="url(#clip742)" style="stroke:#000000; stroke-linecap:round; stroke-linejoin:round; stroke-width:2; stroke-opacity:0.1; fill:none" points="249.357,778.665 2352.76,778.665 "/>
<polyline clip-path="url(#clip742)" style="stroke:#000000; stroke-linecap:round; stroke-linejoin:round; stroke-width:2; stroke-opacity:0.1; fill:none" points="249.357,473.881 2352.76,473.881 "/>
<polyline clip-path="url(#clip742)" style="stroke:#000000; stroke-linecap:round; stroke-linejoin:round; stroke-width:2; stroke-opacity:0.1; fill:none" points="249.357,169.097 2352.76,169.097 "/>
<polyline clip-path="url(#clip742)" style="stroke:#000000; stroke-linecap:round; stroke-linejoin:round; stroke-width:2; stroke-opacity:0.1; fill:none" points="249.357,1388.23 2352.76,1388.23 "/>
<polyline clip-path="url(#clip742)" style="stroke:#000000; stroke-linecap:round; stroke-linejoin:round; stroke-width:2; stroke-opacity:0.1; fill:none" points="249.357,1083.45 2352.76,1083.45 "/>
<polyline clip-path="url(#clip742)" style="stroke:#000000; stroke-linecap:round; stroke-linejoin:round; stroke-width:2; stroke-opacity:0.1; fill:none" points="249.357,778.665 2352.76,778.665 "/>
<polyline clip-path="url(#clip742)" style="stroke:#000000; stroke-linecap:round; stroke-linejoin:round; stroke-width:2; stroke-opacity:0.1; fill:none" points="249.357,473.881 2352.76,473.881 "/>
<polyline clip-path="url(#clip742)" style="stroke:#000000; stroke-linecap:round; stroke-linejoin:round; stroke-width:2; stroke-opacity:0.1; fill:none" points="249.357,169.097 2352.76,169.097 "/>
<polyline clip-path="url(#clip740)" style="stroke:#000000; stroke-linecap:round; stroke-linejoin:round; stroke-width:4; stroke-opacity:1; fill:none" points="249.357,1552.76 2352.76,1552.76 "/>
<polyline clip-path="url(#clip740)" style="stroke:#000000; stroke-linecap:round; stroke-linejoin:round; stroke-width:4; stroke-opacity:1; fill:none" points="249.357,47.2441 2352.76,47.2441 "/>
<polyline clip-path="url(#clip740)" style="stroke:#000000; stroke-linecap:round; stroke-linejoin:round; stroke-width:4; stroke-opacity:1; fill:none" points="249.357,1552.76 249.357,47.2441 "/>
<polyline clip-path="url(#clip740)" style="stroke:#000000; stroke-linecap:round; stroke-linejoin:round; stroke-width:4; stroke-opacity:1; fill:none" points="2352.76,1552.76 2352.76,47.2441 "/>
<polyline clip-path="url(#clip740)" style="stroke:#000000; stroke-linecap:round; stroke-linejoin:round; stroke-width:4; stroke-opacity:1; fill:none" points="249.357,1388.23 268.254,1388.23 "/>
<polyline clip-path="url(#clip740)" style="stroke:#000000; stroke-linecap:round; stroke-linejoin:round; stroke-width:4; stroke-opacity:1; fill:none" points="249.357,1083.45 268.254,1083.45 "/>
<polyline clip-path="url(#clip740)" style="stroke:#000000; stroke-linecap:round; stroke-linejoin:round; stroke-width:4; stroke-opacity:1; fill:none" points="249.357,778.665 268.254,778.665 "/>
<polyline clip-path="url(#clip740)" style="stroke:#000000; stroke-linecap:round; stroke-linejoin:round; stroke-width:4; stroke-opacity:1; fill:none" points="249.357,473.881 268.254,473.881 "/>
<polyline clip-path="url(#clip740)" style="stroke:#000000; stroke-linecap:round; stroke-linejoin:round; stroke-width:4; stroke-opacity:1; fill:none" points="249.357,169.097 268.254,169.097 "/>
<polyline clip-path="url(#clip740)" style="stroke:#000000; stroke-linecap:round; stroke-linejoin:round; stroke-width:4; stroke-opacity:1; fill:none" points="2352.76,1388.23 2333.86,1388.23 "/>
<polyline clip-path="url(#clip740)" style="stroke:#000000; stroke-linecap:round; stroke-linejoin:round; stroke-width:4; stroke-opacity:1; fill:none" points="2352.76,1083.45 2333.86,1083.45 "/>
<polyline clip-path="url(#clip740)" style="stroke:#000000; stroke-linecap:round; stroke-linejoin:round; stroke-width:4; stroke-opacity:1; fill:none" points="2352.76,778.665 2333.86,778.665 "/>
<polyline clip-path="url(#clip740)" style="stroke:#000000; stroke-linecap:round; stroke-linejoin:round; stroke-width:4; stroke-opacity:1; fill:none" points="2352.76,473.881 2333.86,473.881 "/>
<polyline clip-path="url(#clip740)" style="stroke:#000000; stroke-linecap:round; stroke-linejoin:round; stroke-width:4; stroke-opacity:1; fill:none" points="2352.76,169.097 2333.86,169.097 "/>
<path clip-path="url(#clip740)" d="M127.593 1386.37 Q124.445 1386.37 122.593 1388.52 Q120.765 1390.68 120.765 1394.43 Q120.765 1398.15 122.593 1400.33 Q124.445 1402.48 127.593 1402.48 Q130.742 1402.48 132.57 1400.33 Q134.422 1398.15 134.422 1394.43 Q134.422 1390.68 132.57 1388.52 Q130.742 1386.37 127.593 1386.37 M136.876 1371.72 L136.876 1375.98 Q135.117 1375.14 133.311 1374.7 Q131.529 1374.26 129.769 1374.26 Q125.14 1374.26 122.686 1377.39 Q120.255 1380.51 119.908 1386.83 Q121.274 1384.82 123.334 1383.75 Q125.394 1382.67 127.871 1382.67 Q133.08 1382.67 136.089 1385.84 Q139.121 1388.99 139.121 1394.43 Q139.121 1399.75 135.973 1402.97 Q132.825 1406.18 127.593 1406.18 Q121.598 1406.18 118.427 1401.6 Q115.256 1396.99 115.256 1388.27 Q115.256 1380.07 119.144 1375.21 Q123.033 1370.33 129.584 1370.33 Q131.343 1370.33 133.126 1370.68 Q134.931 1371.02 136.876 1371.72 Z" fill="#000000" fill-rule="nonzero" fill-opacity="1" /><path clip-path="url(#clip740)" d="M147.223 1370.95 L165.579 1370.95 L165.579 1374.89 L151.505 1374.89 L151.505 1383.36 Q152.524 1383.01 153.542 1382.85 Q154.561 1382.67 155.579 1382.67 Q161.366 1382.67 164.746 1385.84 Q168.126 1389.01 168.126 1394.43 Q168.126 1400 164.653 1403.11 Q161.181 1406.18 154.862 1406.18 Q152.686 1406.18 150.417 1405.81 Q148.172 1405.44 145.765 1404.7 L145.765 1400 Q147.848 1401.14 150.07 1401.69 Q152.292 1402.25 154.769 1402.25 Q158.774 1402.25 161.112 1400.14 Q163.45 1398.04 163.45 1394.43 Q163.45 1390.81 161.112 1388.71 Q158.774 1386.6 154.769 1386.6 Q152.894 1386.6 151.019 1387.02 Q149.167 1387.43 147.223 1388.31 L147.223 1370.95 Z" fill="#000000" fill-rule="nonzero" fill-opacity="1" /><path clip-path="url(#clip740)" d="M177.339 1399.63 L182.223 1399.63 L182.223 1405.51 L177.339 1405.51 L177.339 1399.63 Z" fill="#000000" fill-rule="nonzero" fill-opacity="1" /><path clip-path="url(#clip740)" d="M192.454 1370.95 L210.811 1370.95 L210.811 1374.89 L196.737 1374.89 L196.737 1383.36 Q197.755 1383.01 198.774 1382.85 Q199.792 1382.67 200.811 1382.67 Q206.598 1382.67 209.977 1385.84 Q213.357 1389.01 213.357 1394.43 Q213.357 1400 209.885 1403.11 Q206.412 1406.18 200.093 1406.18 Q197.917 1406.18 195.649 1405.81 Q193.403 1405.44 190.996 1404.7 L190.996 1400 Q193.079 1401.14 195.301 1401.69 Q197.524 1402.25 200 1402.25 Q204.005 1402.25 206.343 1400.14 Q208.681 1398.04 208.681 1394.43 Q208.681 1390.81 206.343 1388.71 Q204.005 1386.6 200 1386.6 Q198.125 1386.6 196.25 1387.02 Q194.399 1387.43 192.454 1388.31 L192.454 1370.95 Z" fill="#000000" fill-rule="nonzero" fill-opacity="1" /><path clip-path="url(#clip740)" d="M126.598 1081.59 Q123.45 1081.59 121.598 1083.74 Q119.769 1085.89 119.769 1089.64 Q119.769 1093.37 121.598 1095.54 Q123.45 1097.7 126.598 1097.7 Q129.746 1097.7 131.575 1095.54 Q133.427 1093.37 133.427 1089.64 Q133.427 1085.89 131.575 1083.74 Q129.746 1081.59 126.598 1081.59 M135.88 1066.93 L135.88 1071.19 Q134.121 1070.36 132.316 1069.92 Q130.533 1069.48 128.774 1069.48 Q124.144 1069.48 121.691 1072.6 Q119.26 1075.73 118.913 1082.05 Q120.279 1080.03 122.339 1078.97 Q124.399 1077.88 126.876 1077.88 Q132.084 1077.88 135.093 1081.05 Q138.126 1084.2 138.126 1089.64 Q138.126 1094.97 134.978 1098.18 Q131.83 1101.4 126.598 1101.4 Q120.603 1101.4 117.431 1096.82 Q114.26 1092.21 114.26 1083.48 Q114.26 1075.29 118.149 1070.43 Q122.038 1065.54 128.589 1065.54 Q130.348 1065.54 132.13 1065.89 Q133.936 1066.24 135.88 1066.93 Z" fill="#000000" fill-rule="nonzero" fill-opacity="1" /><path clip-path="url(#clip740)" d="M156.76 1081.59 Q153.612 1081.59 151.76 1083.74 Q149.931 1085.89 149.931 1089.64 Q149.931 1093.37 151.76 1095.54 Q153.612 1097.7 156.76 1097.7 Q159.908 1097.7 161.737 1095.54 Q163.589 1093.37 163.589 1089.64 Q163.589 1085.89 161.737 1083.74 Q159.908 1081.59 156.76 1081.59 M166.042 1066.93 L166.042 1071.19 Q164.283 1070.36 162.477 1069.92 Q160.695 1069.48 158.936 1069.48 Q154.306 1069.48 151.853 1072.6 Q149.422 1075.73 149.075 1082.05 Q150.441 1080.03 152.501 1078.97 Q154.561 1077.88 157.038 1077.88 Q162.246 1077.88 165.255 1081.05 Q168.288 1084.2 168.288 1089.64 Q168.288 1094.97 165.14 1098.18 Q161.991 1101.4 156.76 1101.4 Q150.765 1101.4 147.593 1096.82 Q144.422 1092.21 144.422 1083.48 Q144.422 1075.29 148.311 1070.43 Q152.2 1065.54 158.751 1065.54 Q160.51 1065.54 162.292 1065.89 Q164.098 1066.24 166.042 1066.93 Z" fill="#000000" fill-rule="nonzero" fill-opacity="1" /><path clip-path="url(#clip740)" d="M176.343 1094.85 L181.227 1094.85 L181.227 1100.73 L176.343 1100.73 L176.343 1094.85 Z" fill="#000000" fill-rule="nonzero" fill-opacity="1" /><path clip-path="url(#clip740)" d="M201.412 1069.25 Q197.801 1069.25 195.973 1072.81 Q194.167 1076.35 194.167 1083.48 Q194.167 1090.59 195.973 1094.16 Q197.801 1097.7 201.412 1097.7 Q205.047 1097.7 206.852 1094.16 Q208.681 1090.59 208.681 1083.48 Q208.681 1076.35 206.852 1072.81 Q205.047 1069.25 201.412 1069.25 M201.412 1065.54 Q207.223 1065.54 210.278 1070.15 Q213.357 1074.73 213.357 1083.48 Q213.357 1092.21 210.278 1096.82 Q207.223 1101.4 201.412 1101.4 Q195.602 1101.4 192.524 1096.82 Q189.468 1092.21 189.468 1083.48 Q189.468 1074.73 192.524 1070.15 Q195.602 1065.54 201.412 1065.54 Z" fill="#000000" fill-rule="nonzero" fill-opacity="1" /><path clip-path="url(#clip740)" d="M127.593 776.802 Q124.445 776.802 122.593 778.954 Q120.765 781.107 120.765 784.857 Q120.765 788.584 122.593 790.76 Q124.445 792.913 127.593 792.913 Q130.742 792.913 132.57 790.76 Q134.422 788.584 134.422 784.857 Q134.422 781.107 132.57 778.954 Q130.742 776.802 127.593 776.802 M136.876 762.149 L136.876 766.408 Q135.117 765.575 133.311 765.135 Q131.529 764.695 129.769 764.695 Q125.14 764.695 122.686 767.82 Q120.255 770.945 119.908 777.265 Q121.274 775.251 123.334 774.186 Q125.394 773.098 127.871 773.098 Q133.08 773.098 136.089 776.269 Q139.121 779.417 139.121 784.857 Q139.121 790.181 135.973 793.399 Q132.825 796.616 127.593 796.616 Q121.598 796.616 118.427 792.033 Q115.256 787.427 115.256 778.7 Q115.256 770.505 119.144 765.644 Q123.033 760.76 129.584 760.76 Q131.343 760.76 133.126 761.107 Q134.931 761.455 136.876 762.149 Z" fill="#000000" fill-rule="nonzero" fill-opacity="1" /><path clip-path="url(#clip740)" d="M157.755 776.802 Q154.607 776.802 152.755 778.954 Q150.927 781.107 150.927 784.857 Q150.927 788.584 152.755 790.76 Q154.607 792.913 157.755 792.913 Q160.903 792.913 162.732 790.76 Q164.584 788.584 164.584 784.857 Q164.584 781.107 162.732 778.954 Q160.903 776.802 157.755 776.802 M167.038 762.149 L167.038 766.408 Q165.278 765.575 163.473 765.135 Q161.69 764.695 159.931 764.695 Q155.302 764.695 152.848 767.82 Q150.417 770.945 150.07 777.265 Q151.436 775.251 153.496 774.186 Q155.556 773.098 158.033 773.098 Q163.241 773.098 166.251 776.269 Q169.283 779.417 169.283 784.857 Q169.283 790.181 166.135 793.399 Q162.987 796.616 157.755 796.616 Q151.76 796.616 148.589 792.033 Q145.417 787.427 145.417 778.7 Q145.417 770.505 149.306 765.644 Q153.195 760.76 159.746 760.76 Q161.505 760.76 163.288 761.107 Q165.093 761.455 167.038 762.149 Z" fill="#000000" fill-rule="nonzero" fill-opacity="1" /><path clip-path="url(#clip740)" d="M177.339 790.066 L182.223 790.066 L182.223 795.945 L177.339 795.945 L177.339 790.066 Z" fill="#000000" fill-rule="nonzero" fill-opacity="1" /><path clip-path="url(#clip740)" d="M192.454 761.385 L210.811 761.385 L210.811 765.32 L196.737 765.32 L196.737 773.792 Q197.755 773.445 198.774 773.283 Q199.792 773.098 200.811 773.098 Q206.598 773.098 209.977 776.269 Q213.357 779.441 213.357 784.857 Q213.357 790.436 209.885 793.538 Q206.412 796.616 200.093 796.616 Q197.917 796.616 195.649 796.246 Q193.403 795.876 190.996 795.135 L190.996 790.436 Q193.079 791.57 195.301 792.126 Q197.524 792.681 200 792.681 Q204.005 792.681 206.343 790.575 Q208.681 788.468 208.681 784.857 Q208.681 781.246 206.343 779.14 Q204.005 777.033 200 777.033 Q198.125 777.033 196.25 777.45 Q194.399 777.867 192.454 778.746 L192.454 761.385 Z" fill="#000000" fill-rule="nonzero" fill-opacity="1" /><path clip-path="url(#clip740)" d="M126.598 472.018 Q123.45 472.018 121.598 474.17 Q119.769 476.323 119.769 480.073 Q119.769 483.8 121.598 485.976 Q123.45 488.129 126.598 488.129 Q129.746 488.129 131.575 485.976 Q133.427 483.8 133.427 480.073 Q133.427 476.323 131.575 474.17 Q129.746 472.018 126.598 472.018 M135.88 457.365 L135.88 461.624 Q134.121 460.791 132.316 460.351 Q130.533 459.911 128.774 459.911 Q124.144 459.911 121.691 463.036 Q119.26 466.161 118.913 472.48 Q120.279 470.467 122.339 469.402 Q124.399 468.314 126.876 468.314 Q132.084 468.314 135.093 471.485 Q138.126 474.633 138.126 480.073 Q138.126 485.397 134.978 488.615 Q131.83 491.832 126.598 491.832 Q120.603 491.832 117.431 487.249 Q114.26 482.642 114.26 473.916 Q114.26 465.721 118.149 460.86 Q122.038 455.976 128.589 455.976 Q130.348 455.976 132.13 456.323 Q133.936 456.67 135.88 457.365 Z" fill="#000000" fill-rule="nonzero" fill-opacity="1" /><path clip-path="url(#clip740)" d="M145.001 456.601 L167.223 456.601 L167.223 458.592 L154.677 491.161 L149.792 491.161 L161.598 460.536 L145.001 460.536 L145.001 456.601 Z" fill="#000000" fill-rule="nonzero" fill-opacity="1" /><path clip-path="url(#clip740)" d="M176.343 485.281 L181.227 485.281 L181.227 491.161 L176.343 491.161 L176.343 485.281 Z" fill="#000000" fill-rule="nonzero" fill-opacity="1" /><path clip-path="url(#clip740)" d="M201.412 459.68 Q197.801 459.68 195.973 463.244 Q194.167 466.786 194.167 473.916 Q194.167 481.022 195.973 484.587 Q197.801 488.129 201.412 488.129 Q205.047 488.129 206.852 484.587 Q208.681 481.022 208.681 473.916 Q208.681 466.786 206.852 463.244 Q205.047 459.68 201.412 459.68 M201.412 455.976 Q207.223 455.976 210.278 460.582 Q213.357 465.166 213.357 473.916 Q213.357 482.642 210.278 487.249 Q207.223 491.832 201.412 491.832 Q195.602 491.832 192.524 487.249 Q189.468 482.642 189.468 473.916 Q189.468 465.166 192.524 460.582 Q195.602 455.976 201.412 455.976 Z" fill="#000000" fill-rule="nonzero" fill-opacity="1" /><path clip-path="url(#clip740)" d="M127.593 167.233 Q124.445 167.233 122.593 169.386 Q120.765 171.539 120.765 175.289 Q120.765 179.016 122.593 181.192 Q124.445 183.344 127.593 183.344 Q130.742 183.344 132.57 181.192 Q134.422 179.016 134.422 175.289 Q134.422 171.539 132.57 169.386 Q130.742 167.233 127.593 167.233 M136.876 152.581 L136.876 156.84 Q135.117 156.007 133.311 155.567 Q131.529 155.127 129.769 155.127 Q125.14 155.127 122.686 158.252 Q120.255 161.377 119.908 167.696 Q121.274 165.682 123.334 164.618 Q125.394 163.53 127.871 163.53 Q133.08 163.53 136.089 166.701 Q139.121 169.849 139.121 175.289 Q139.121 180.613 135.973 183.831 Q132.825 187.048 127.593 187.048 Q121.598 187.048 118.427 182.465 Q115.256 177.858 115.256 169.132 Q115.256 160.937 119.144 156.076 Q123.033 151.192 129.584 151.192 Q131.343 151.192 133.126 151.539 Q134.931 151.886 136.876 152.581 Z" fill="#000000" fill-rule="nonzero" fill-opacity="1" /><path clip-path="url(#clip740)" d="M145.996 151.817 L168.218 151.817 L168.218 153.808 L155.672 186.377 L150.788 186.377 L162.593 155.752 L145.996 155.752 L145.996 151.817 Z" fill="#000000" fill-rule="nonzero" fill-opacity="1" /><path clip-path="url(#clip740)" d="M177.339 180.497 L182.223 180.497 L182.223 186.377 L177.339 186.377 L177.339 180.497 Z" fill="#000000" fill-rule="nonzero" fill-opacity="1" /><path clip-path="url(#clip740)" d="M192.454 151.817 L210.811 151.817 L210.811 155.752 L196.737 155.752 L196.737 164.224 Q197.755 163.877 198.774 163.715 Q199.792 163.53 200.811 163.53 Q206.598 163.53 209.977 166.701 Q213.357 169.872 213.357 175.289 Q213.357 180.868 209.885 183.969 Q206.412 187.048 200.093 187.048 Q197.917 187.048 195.649 186.678 Q193.403 186.307 190.996 185.567 L190.996 180.868 Q193.079 182.002 195.301 182.557 Q197.524 183.113 200 183.113 Q204.005 183.113 206.343 181.006 Q208.681 178.9 208.681 175.289 Q208.681 171.678 206.343 169.571 Q204.005 167.465 200 167.465 Q198.125 167.465 196.25 167.882 Q194.399 168.298 192.454 169.178 L192.454 151.817 Z" fill="#000000" fill-rule="nonzero" fill-opacity="1" /><path clip-path="url(#clip740)" d="M22.818 922.094 L46.4666 930.815 L46.4666 913.341 L22.818 922.094 M16.4842 925.723 L16.4842 918.434 L64.0042 900.324 L64.0042 907.008 L51.8138 911.336 L51.8138 932.757 L64.0042 937.085 L64.0042 943.865 L16.4842 925.723 Z" fill="#000000" fill-rule="nonzero" fill-opacity="1" /><path clip-path="url(#clip740)" d="M45.7664 870.182 Q39.4007 870.182 35.8996 872.824 Q32.3984 875.434 32.3984 880.176 Q32.3984 884.887 35.8996 887.528 Q39.4007 890.138 45.7664 890.138 Q52.1003 890.138 55.6014 887.528 Q59.1026 884.887 59.1026 880.176 Q59.1026 875.434 55.6014 872.824 Q52.1003 870.182 45.7664 870.182 M59.58 864.325 Q68.683 864.325 73.1071 868.368 Q77.5631 872.41 77.5631 880.749 Q77.5631 883.836 77.0857 886.574 Q76.6401 889.311 75.6852 891.889 L69.9879 891.889 Q71.3884 889.311 72.0568 886.796 Q72.7252 884.282 72.7252 881.672 Q72.7252 875.911 69.7015 873.046 Q66.7096 870.182 60.6303 870.182 L57.7339 870.182 Q60.885 871.996 62.4446 874.829 Q64.0042 877.662 64.0042 881.608 Q64.0042 888.165 59.0071 892.175 Q54.01 896.186 45.7664 896.186 Q37.491 896.186 32.4939 892.175 Q27.4968 888.165 27.4968 881.608 Q27.4968 877.662 29.0564 874.829 Q30.616 871.996 33.7671 870.182 L28.3562 870.182 L28.3562 864.325 L59.58 864.325 Z" fill="#000000" fill-rule="nonzero" fill-opacity="1" /><path clip-path="url(#clip740)" d="M44.7161 821.771 L47.5806 821.771 L47.5806 848.698 Q53.6281 848.316 56.8109 845.069 Q59.9619 841.791 59.9619 835.966 Q59.9619 832.592 59.1344 829.441 Q58.3069 826.259 56.6518 823.139 L62.1899 823.139 Q63.5267 826.29 64.227 829.601 Q64.9272 832.911 64.9272 836.316 Q64.9272 844.846 59.9619 849.843 Q54.9967 854.809 46.5303 854.809 Q37.7774 854.809 32.6531 850.098 Q27.4968 845.356 27.4968 837.335 Q27.4968 830.142 32.1438 825.972 Q36.7589 821.771 44.7161 821.771 M42.9973 827.627 Q38.1912 827.691 35.3266 830.333 Q32.4621 832.943 32.4621 837.271 Q32.4621 842.173 35.2312 845.133 Q38.0002 848.061 43.0292 848.507 L42.9973 827.627 Z" fill="#000000" fill-rule="nonzero" fill-opacity="1" /><path clip-path="url(#clip740)" d="M14.5426 777.37 Q21.8632 781.635 29.0246 783.704 Q36.186 785.773 43.5384 785.773 Q50.8908 785.773 58.1159 783.704 Q65.3091 781.603 72.5979 777.37 L72.5979 782.462 Q65.1182 787.237 57.8931 789.624 Q50.668 791.979 43.5384 791.979 Q36.4406 791.979 29.2474 789.624 Q22.0542 787.269 14.5426 782.462 L14.5426 777.37 Z" fill="#000000" fill-rule="nonzero" fill-opacity="1" /><path clip-path="url(#clip740)" d="M16.4842 765.752 L16.4842 756.172 L48.8219 744.045 L16.4842 731.855 L16.4842 722.275 L64.0042 722.275 L64.0042 728.545 L22.277 728.545 L54.8694 740.799 L54.8694 747.26 L22.277 759.514 L64.0042 759.514 L64.0042 765.752 L16.4842 765.752 Z" fill="#000000" fill-rule="nonzero" fill-opacity="1" /><path clip-path="url(#clip740)" d="M46.0847 693.565 Q46.0847 700.663 47.7079 703.4 Q49.3312 706.138 53.2461 706.138 Q56.3653 706.138 58.2114 704.101 Q60.0256 702.032 60.0256 698.499 Q60.0256 693.629 56.5881 690.701 Q53.1188 687.741 47.3897 687.741 L46.0847 687.741 L46.0847 693.565 M43.6657 681.884 L64.0042 681.884 L64.0042 687.741 L58.5933 687.741 Q61.8398 689.746 63.3994 692.738 Q64.9272 695.73 64.9272 700.058 Q64.9272 705.533 61.8716 708.779 Q58.7843 711.994 53.6281 711.994 Q47.6125 711.994 44.5569 707.984 Q41.5014 703.941 41.5014 695.953 L41.5014 687.741 L40.9285 687.741 Q36.8862 687.741 34.6901 690.414 Q32.4621 693.056 32.4621 697.862 Q32.4621 700.918 33.1941 703.814 Q33.9262 706.711 35.3903 709.384 L29.9795 709.384 Q28.7381 706.169 28.1334 703.146 Q27.4968 700.122 27.4968 697.257 Q27.4968 689.523 31.5072 685.704 Q35.5176 681.884 43.6657 681.884 Z" fill="#000000" fill-rule="nonzero" fill-opacity="1" /><path clip-path="url(#clip740)" d="M14.5426 670.744 L14.5426 665.652 Q22.0542 660.877 29.2474 658.522 Q36.4406 656.135 43.5384 656.135 Q50.668 656.135 57.8931 658.522 Q65.1182 660.877 72.5979 665.652 L72.5979 670.744 Q65.3091 666.511 58.1159 664.442 Q50.8908 662.342 43.5384 662.342 Q36.186 662.342 29.0246 664.442 Q21.8632 666.511 14.5426 670.744 Z" fill="#000000" fill-rule="nonzero" fill-opacity="1" /><polyline clip-path="url(#clip742)" style="stroke:#009af9; stroke-linecap:round; stroke-linejoin:round; stroke-width:4; stroke-opacity:1; fill:none" points="308.887,1510.15 308.887,912.77 "/>
<polyline clip-path="url(#clip742)" style="stroke:#009af9; stroke-linecap:round; stroke-linejoin:round; stroke-width:4; stroke-opacity:1; fill:none" points="592.364,1109.66 592.364,1007.25 "/>
<polyline clip-path="url(#clip742)" style="stroke:#009af9; stroke-linecap:round; stroke-linejoin:round; stroke-width:4; stroke-opacity:1; fill:none" points="875.841,1150.5 875.841,918.866 "/>
<polyline clip-path="url(#clip742)" style="stroke:#009af9; stroke-linecap:round; stroke-linejoin:round; stroke-width:4; stroke-opacity:1; fill:none" points="1159.32,1126.12 1159.32,931.057 "/>
<polyline clip-path="url(#clip742)" style="stroke:#009af9; stroke-linecap:round; stroke-linejoin:round; stroke-width:4; stroke-opacity:1; fill:none" points="1442.79,1089.54 1442.79,955.44 "/>
<polyline clip-path="url(#clip742)" style="stroke:#009af9; stroke-linecap:round; stroke-linejoin:round; stroke-width:4; stroke-opacity:1; fill:none" points="1726.27,1235.84 1726.27,662.847 "/>
<polyline clip-path="url(#clip742)" style="stroke:#009af9; stroke-linecap:round; stroke-linejoin:round; stroke-width:4; stroke-opacity:1; fill:none" points="2009.75,1327.28 2009.75,144.714 "/>
<polyline clip-path="url(#clip742)" style="stroke:#009af9; stroke-linecap:round; stroke-linejoin:round; stroke-width:4; stroke-opacity:1; fill:none" points="2293.23,614.082 2293.23,89.8529 "/>
<line clip-path="url(#clip742)" x1="324.887" y1="1510.15" x2="292.887" y2="1510.15" style="stroke:#009af9; stroke-width:4; stroke-opacity:1"/>
<line clip-path="url(#clip742)" x1="324.887" y1="912.77" x2="292.887" y2="912.77" style="stroke:#009af9; stroke-width:4; stroke-opacity:1"/>
<line clip-path="url(#clip742)" x1="608.364" y1="1109.66" x2="576.364" y2="1109.66" style="stroke:#009af9; stroke-width:4; stroke-opacity:1"/>
<line clip-path="url(#clip742)" x1="608.364" y1="1007.25" x2="576.364" y2="1007.25" style="stroke:#009af9; stroke-width:4; stroke-opacity:1"/>
<line clip-path="url(#clip742)" x1="891.841" y1="1150.5" x2="859.841" y2="1150.5" style="stroke:#009af9; stroke-width:4; stroke-opacity:1"/>
<line clip-path="url(#clip742)" x1="891.841" y1="918.866" x2="859.841" y2="918.866" style="stroke:#009af9; stroke-width:4; stroke-opacity:1"/>
<line clip-path="url(#clip742)" x1="1175.32" y1="1126.12" x2="1143.32" y2="1126.12" style="stroke:#009af9; stroke-width:4; stroke-opacity:1"/>
<line clip-path="url(#clip742)" x1="1175.32" y1="931.057" x2="1143.32" y2="931.057" style="stroke:#009af9; stroke-width:4; stroke-opacity:1"/>
<line clip-path="url(#clip742)" x1="1458.79" y1="1089.54" x2="1426.79" y2="1089.54" style="stroke:#009af9; stroke-width:4; stroke-opacity:1"/>
<line clip-path="url(#clip742)" x1="1458.79" y1="955.44" x2="1426.79" y2="955.44" style="stroke:#009af9; stroke-width:4; stroke-opacity:1"/>
<line clip-path="url(#clip742)" x1="1742.27" y1="1235.84" x2="1710.27" y2="1235.84" style="stroke:#009af9; stroke-width:4; stroke-opacity:1"/>
<line clip-path="url(#clip742)" x1="1742.27" y1="662.847" x2="1710.27" y2="662.847" style="stroke:#009af9; stroke-width:4; stroke-opacity:1"/>
<line clip-path="url(#clip742)" x1="2025.75" y1="1327.28" x2="1993.75" y2="1327.28" style="stroke:#009af9; stroke-width:4; stroke-opacity:1"/>
<line clip-path="url(#clip742)" x1="2025.75" y1="144.714" x2="1993.75" y2="144.714" style="stroke:#009af9; stroke-width:4; stroke-opacity:1"/>
<line clip-path="url(#clip742)" x1="2309.23" y1="614.082" x2="2277.23" y2="614.082" style="stroke:#009af9; stroke-width:4; stroke-opacity:1"/>
<line clip-path="url(#clip742)" x1="2309.23" y1="89.8529" x2="2277.23" y2="89.8529" style="stroke:#009af9; stroke-width:4; stroke-opacity:1"/>
<circle clip-path="url(#clip742)" cx="308.887" cy="1211.46" r="14.4" fill="#009af9" fill-rule="evenodd" fill-opacity="1" stroke="none"/>
<circle clip-path="url(#clip742)" cx="592.364" cy="1058.46" r="14.4" fill="#009af9" fill-rule="evenodd" fill-opacity="1" stroke="none"/>
<circle clip-path="url(#clip742)" cx="875.841" cy="1034.68" r="14.4" fill="#009af9" fill-rule="evenodd" fill-opacity="1" stroke="none"/>
<circle clip-path="url(#clip742)" cx="1159.32" cy="1028.59" r="14.4" fill="#009af9" fill-rule="evenodd" fill-opacity="1" stroke="none"/>
<circle clip-path="url(#clip742)" cx="1442.79" cy="1022.49" r="14.4" fill="#009af9" fill-rule="evenodd" fill-opacity="1" stroke="none"/>
<circle clip-path="url(#clip742)" cx="1726.27" cy="949.344" r="14.4" fill="#009af9" fill-rule="evenodd" fill-opacity="1" stroke="none"/>
<circle clip-path="url(#clip742)" cx="2009.75" cy="735.995" r="14.4" fill="#009af9" fill-rule="evenodd" fill-opacity="1" stroke="none"/>
<circle clip-path="url(#clip742)" cx="2293.23" cy="351.967" r="14.4" fill="#009af9" fill-rule="evenodd" fill-opacity="1" stroke="none"/>
<path clip-path="url(#clip742)" d="M308.887 1194.48 L592.364 1194.48 L875.841 1194.48 L1159.32 1194.48 L1442.79 1194.48 L1726.27 1194.48 L2009.75 1194.48 L2293.23 1194.48 L2293.23 996.453 L2009.75 996.453 L1726.27 996.453 L1442.79 996.453 L1159.32 996.453 L875.841 996.453 L592.364 996.453 L308.887 996.453  Z" fill="#e26f46" fill-rule="evenodd" fill-opacity="0.6"/>
<polyline clip-path="url(#clip742)" style="stroke:#e26f46; stroke-linecap:round; stroke-linejoin:round; stroke-width:4; stroke-opacity:0; fill:none" points="308.887,1194.48 592.364,1194.48 875.841,1194.48 1159.32,1194.48 1442.79,1194.48 1726.27,1194.48 2009.75,1194.48 2293.23,1194.48 "/>
<polyline clip-path="url(#clip742)" style="stroke:#000000; stroke-linecap:round; stroke-linejoin:round; stroke-width:4; stroke-opacity:1; fill:none" stroke-dasharray="2, 4" points="308.887,1035.02 592.364,1035.02 875.841,1035.02 1159.32,1035.02 1442.79,1035.02 1726.27,1035.02 2009.75,1035.02 2293.23,1035.02 "/>
<path clip-path="url(#clip740)" d="M319.47 252.948 L1325.69 252.948 L1325.69 97.4278 L319.47 97.4278  Z" fill="#ffffff" fill-rule="evenodd" fill-opacity="1"/>
<polyline clip-path="url(#clip740)" style="stroke:#ffffff; stroke-linecap:round; stroke-linejoin:round; stroke-width:4; stroke-opacity:1; fill:none" points="319.47,252.948 1325.69,252.948 1325.69,97.4278 319.47,97.4278 319.47,252.948 "/>
<circle clip-path="url(#clip740)" cx="412.955" cy="149.268" r="20.48" fill="#009af9" fill-rule="evenodd" fill-opacity="1" stroke="none"/>
<path clip-path="url(#clip740)" d="M511.115 135.83 L511.115 162.705 L516.763 162.705 Q523.916 162.705 527.226 159.465 Q530.559 156.224 530.559 149.233 Q530.559 142.289 527.226 139.071 Q523.916 135.83 516.763 135.83 L511.115 135.83 M506.439 131.988 L516.045 131.988 Q526.092 131.988 530.791 136.178 Q535.49 140.344 535.49 149.233 Q535.49 158.168 530.768 162.358 Q526.045 166.548 516.045 166.548 L506.439 166.548 L506.439 131.988 Z" fill="#000000" fill-rule="nonzero" fill-opacity="1" /><path clip-path="url(#clip740)" d="M554.541 153.515 Q549.379 153.515 547.388 154.696 Q545.397 155.877 545.397 158.724 Q545.397 160.992 546.879 162.335 Q548.383 163.654 550.953 163.654 Q554.494 163.654 556.624 161.154 Q558.777 158.631 558.777 154.465 L558.777 153.515 L554.541 153.515 M563.036 151.756 L563.036 166.548 L558.777 166.548 L558.777 162.613 Q557.318 164.974 555.142 166.108 Q552.966 167.219 549.818 167.219 Q545.837 167.219 543.476 164.997 Q541.138 162.752 541.138 159.002 Q541.138 154.627 544.054 152.404 Q546.994 150.182 552.804 150.182 L558.777 150.182 L558.777 149.766 Q558.777 146.826 556.832 145.228 Q554.911 143.608 551.416 143.608 Q549.193 143.608 547.087 144.141 Q544.98 144.673 543.036 145.738 L543.036 141.803 Q545.374 140.9 547.573 140.46 Q549.772 139.997 551.855 139.997 Q557.48 139.997 560.258 142.914 Q563.036 145.83 563.036 151.756 Z" fill="#000000" fill-rule="nonzero" fill-opacity="1" /><path clip-path="url(#clip740)" d="M576.022 133.261 L576.022 140.622 L584.795 140.622 L584.795 143.932 L576.022 143.932 L576.022 158.006 Q576.022 161.177 576.878 162.08 Q577.758 162.983 580.42 162.983 L584.795 162.983 L584.795 166.548 L580.42 166.548 Q575.49 166.548 573.615 164.719 Q571.74 162.867 571.74 158.006 L571.74 143.932 L568.615 143.932 L568.615 140.622 L571.74 140.622 L571.74 133.261 L576.022 133.261 Z" fill="#000000" fill-rule="nonzero" fill-opacity="1" /><path clip-path="url(#clip740)" d="M602.179 153.515 Q597.017 153.515 595.026 154.696 Q593.036 155.877 593.036 158.724 Q593.036 160.992 594.517 162.335 Q596.022 163.654 598.591 163.654 Q602.133 163.654 604.263 161.154 Q606.415 158.631 606.415 154.465 L606.415 153.515 L602.179 153.515 M610.675 151.756 L610.675 166.548 L606.415 166.548 L606.415 162.613 Q604.957 164.974 602.781 166.108 Q600.605 167.219 597.457 167.219 Q593.476 167.219 591.114 164.997 Q588.776 162.752 588.776 159.002 Q588.776 154.627 591.693 152.404 Q594.633 150.182 600.443 150.182 L606.415 150.182 L606.415 149.766 Q606.415 146.826 604.471 145.228 Q602.55 143.608 599.054 143.608 Q596.832 143.608 594.726 144.141 Q592.619 144.673 590.675 145.738 L590.675 141.803 Q593.013 140.9 595.212 140.46 Q597.411 139.997 599.494 139.997 Q605.119 139.997 607.897 142.914 Q610.675 145.83 610.675 151.756 Z" fill="#000000" fill-rule="nonzero" fill-opacity="1" /><path clip-path="url(#clip740)" d="M644.748 130.576 Q641.647 135.9 640.142 141.108 Q638.637 146.316 638.637 151.664 Q638.637 157.011 640.142 162.265 Q641.67 167.497 644.748 172.798 L641.045 172.798 Q637.573 167.358 635.836 162.103 Q634.123 156.849 634.123 151.664 Q634.123 146.502 635.836 141.27 Q637.549 136.039 641.045 130.576 L644.748 130.576 Z" fill="#000000" fill-rule="nonzero" fill-opacity="1" /><path clip-path="url(#clip740)" d="M663.058 143.608 Q659.633 143.608 657.642 146.293 Q655.651 148.955 655.651 153.608 Q655.651 158.261 657.619 160.946 Q659.609 163.608 663.058 163.608 Q666.461 163.608 668.452 160.923 Q670.443 158.238 670.443 153.608 Q670.443 149.002 668.452 146.316 Q666.461 143.608 663.058 143.608 M663.058 139.997 Q668.614 139.997 671.785 143.608 Q674.957 147.219 674.957 153.608 Q674.957 159.974 671.785 163.608 Q668.614 167.219 663.058 167.219 Q657.48 167.219 654.309 163.608 Q651.16 159.974 651.16 153.608 Q651.16 147.219 654.309 143.608 Q657.48 139.997 663.058 139.997 Z" fill="#000000" fill-rule="nonzero" fill-opacity="1" /><path clip-path="url(#clip740)" d="M700.628 153.608 Q700.628 148.909 698.683 146.247 Q696.762 143.562 693.382 143.562 Q690.003 143.562 688.058 146.247 Q686.137 148.909 686.137 153.608 Q686.137 158.307 688.058 160.992 Q690.003 163.654 693.382 163.654 Q696.762 163.654 698.683 160.992 Q700.628 158.307 700.628 153.608 M686.137 144.557 Q687.48 142.242 689.517 141.131 Q691.577 139.997 694.424 139.997 Q699.146 139.997 702.086 143.747 Q705.049 147.497 705.049 153.608 Q705.049 159.719 702.086 163.469 Q699.146 167.219 694.424 167.219 Q691.577 167.219 689.517 166.108 Q687.48 164.974 686.137 162.659 L686.137 166.548 L681.855 166.548 L681.855 130.529 L686.137 130.529 L686.137 144.557 Z" fill="#000000" fill-rule="nonzero" fill-opacity="1" /><path clip-path="url(#clip740)" d="M728.637 141.386 L728.637 145.414 Q726.831 144.488 724.887 144.025 Q722.942 143.562 720.859 143.562 Q717.688 143.562 716.091 144.534 Q714.517 145.506 714.517 147.451 Q714.517 148.932 715.651 149.789 Q716.785 150.622 720.211 151.386 L721.669 151.71 Q726.206 152.682 728.104 154.465 Q730.026 156.224 730.026 159.395 Q730.026 163.006 727.155 165.113 Q724.308 167.219 719.308 167.219 Q717.225 167.219 714.956 166.802 Q712.711 166.409 710.211 165.599 L710.211 161.201 Q712.572 162.427 714.864 163.052 Q717.155 163.654 719.401 163.654 Q722.41 163.654 724.03 162.636 Q725.651 161.594 725.651 159.719 Q725.651 157.983 724.47 157.057 Q723.313 156.131 719.354 155.275 L717.873 154.928 Q713.915 154.094 712.155 152.381 Q710.396 150.645 710.396 147.636 Q710.396 143.978 712.989 141.988 Q715.581 139.997 720.35 139.997 Q722.711 139.997 724.794 140.344 Q726.878 140.691 728.637 141.386 Z" fill="#000000" fill-rule="nonzero" fill-opacity="1" /><path clip-path="url(#clip740)" d="M758.984 152.52 L758.984 154.603 L739.401 154.603 Q739.678 159.002 742.04 161.316 Q744.424 163.608 748.66 163.608 Q751.114 163.608 753.405 163.006 Q755.72 162.404 757.989 161.201 L757.989 165.228 Q755.697 166.201 753.289 166.71 Q750.882 167.219 748.405 167.219 Q742.202 167.219 738.567 163.608 Q734.956 159.997 734.956 153.84 Q734.956 147.474 738.382 143.747 Q741.831 139.997 747.665 139.997 Q752.896 139.997 755.928 143.377 Q758.984 146.733 758.984 152.52 M754.725 151.27 Q754.678 147.775 752.757 145.691 Q750.859 143.608 747.711 143.608 Q744.146 143.608 741.993 145.622 Q739.864 147.636 739.54 151.293 L754.725 151.27 Z" fill="#000000" fill-rule="nonzero" fill-opacity="1" /><path clip-path="url(#clip740)" d="M780.998 144.603 Q780.28 144.187 779.424 144.002 Q778.59 143.793 777.572 143.793 Q773.961 143.793 772.016 146.154 Q770.095 148.492 770.095 152.89 L770.095 166.548 L765.813 166.548 L765.813 140.622 L770.095 140.622 L770.095 144.65 Q771.438 142.289 773.59 141.154 Q775.743 139.997 778.822 139.997 Q779.262 139.997 779.794 140.066 Q780.326 140.113 780.975 140.229 L780.998 144.603 Z" fill="#000000" fill-rule="nonzero" fill-opacity="1" /><path clip-path="url(#clip740)" d="M782.41 140.622 L786.924 140.622 L795.025 162.381 L803.127 140.622 L807.641 140.622 L797.919 166.548 L792.132 166.548 L782.41 140.622 Z" fill="#000000" fill-rule="nonzero" fill-opacity="1" /><path clip-path="url(#clip740)" d="M835.696 152.52 L835.696 154.603 L816.113 154.603 Q816.391 159.002 818.752 161.316 Q821.136 163.608 825.372 163.608 Q827.826 163.608 830.118 163.006 Q832.433 162.404 834.701 161.201 L834.701 165.228 Q832.409 166.201 830.002 166.71 Q827.595 167.219 825.118 167.219 Q818.914 167.219 815.28 163.608 Q811.669 159.997 811.669 153.84 Q811.669 147.474 815.095 143.747 Q818.544 139.997 824.377 139.997 Q829.609 139.997 832.641 143.377 Q835.696 146.733 835.696 152.52 M831.437 151.27 Q831.391 147.775 829.47 145.691 Q827.571 143.608 824.423 143.608 Q820.859 143.608 818.706 145.622 Q816.576 147.636 816.252 151.293 L831.437 151.27 Z" fill="#000000" fill-rule="nonzero" fill-opacity="1" /><path clip-path="url(#clip740)" d="M859.747 144.557 L859.747 130.529 L864.006 130.529 L864.006 166.548 L859.747 166.548 L859.747 162.659 Q858.405 164.974 856.344 166.108 Q854.307 167.219 851.437 167.219 Q846.738 167.219 843.775 163.469 Q840.835 159.719 840.835 153.608 Q840.835 147.497 843.775 143.747 Q846.738 139.997 851.437 139.997 Q854.307 139.997 856.344 141.131 Q858.405 142.242 859.747 144.557 M845.233 153.608 Q845.233 158.307 847.155 160.992 Q849.099 163.654 852.479 163.654 Q855.858 163.654 857.803 160.992 Q859.747 158.307 859.747 153.608 Q859.747 148.909 857.803 146.247 Q855.858 143.562 852.479 143.562 Q849.099 143.562 847.155 146.247 Q845.233 148.909 845.233 153.608 Z" fill="#000000" fill-rule="nonzero" fill-opacity="1" /><path clip-path="url(#clip740)" d="M899.631 153.515 Q894.469 153.515 892.479 154.696 Q890.488 155.877 890.488 158.724 Q890.488 160.992 891.969 162.335 Q893.474 163.654 896.043 163.654 Q899.585 163.654 901.715 161.154 Q903.867 158.631 903.867 154.465 L903.867 153.515 L899.631 153.515 M908.127 151.756 L908.127 166.548 L903.867 166.548 L903.867 162.613 Q902.409 164.974 900.233 166.108 Q898.057 167.219 894.909 167.219 Q890.928 167.219 888.567 164.997 Q886.229 162.752 886.229 159.002 Q886.229 154.627 889.145 152.404 Q892.085 150.182 897.895 150.182 L903.867 150.182 L903.867 149.766 Q903.867 146.826 901.923 145.228 Q900.002 143.608 896.506 143.608 Q894.284 143.608 892.178 144.141 Q890.071 144.673 888.127 145.738 L888.127 141.803 Q890.465 140.9 892.664 140.46 Q894.863 139.997 896.946 139.997 Q902.571 139.997 905.349 142.914 Q908.127 145.83 908.127 151.756 Z" fill="#000000" fill-rule="nonzero" fill-opacity="1" /><path clip-path="url(#clip740)" d="M933.96 153.284 Q933.96 148.654 932.039 146.108 Q930.14 143.562 926.691 143.562 Q923.265 143.562 921.344 146.108 Q919.446 148.654 919.446 153.284 Q919.446 157.89 921.344 160.437 Q923.265 162.983 926.691 162.983 Q930.14 162.983 932.039 160.437 Q933.96 157.89 933.96 153.284 M938.219 163.33 Q938.219 169.951 935.279 173.168 Q932.339 176.409 926.275 176.409 Q924.029 176.409 922.039 176.062 Q920.048 175.738 918.173 175.043 L918.173 170.9 Q920.048 171.918 921.877 172.404 Q923.705 172.89 925.603 172.89 Q929.793 172.89 931.876 170.691 Q933.96 168.515 933.96 164.094 L933.96 161.988 Q932.64 164.279 930.58 165.414 Q928.52 166.548 925.65 166.548 Q920.881 166.548 917.965 162.914 Q915.048 159.279 915.048 153.284 Q915.048 147.266 917.965 143.631 Q920.881 139.997 925.65 139.997 Q928.52 139.997 930.58 141.131 Q932.64 142.266 933.96 144.557 L933.96 140.622 L938.219 140.622 L938.219 163.33 Z" fill="#000000" fill-rule="nonzero" fill-opacity="1" /><path clip-path="url(#clip740)" d="M969.168 152.52 L969.168 154.603 L949.585 154.603 Q949.863 159.002 952.224 161.316 Q954.608 163.608 958.844 163.608 Q961.298 163.608 963.589 163.006 Q965.904 162.404 968.173 161.201 L968.173 165.228 Q965.881 166.201 963.474 166.71 Q961.066 167.219 958.589 167.219 Q952.386 167.219 948.751 163.608 Q945.14 159.997 945.14 153.84 Q945.14 147.474 948.566 143.747 Q952.015 139.997 957.849 139.997 Q963.08 139.997 966.112 143.377 Q969.168 146.733 969.168 152.52 M964.909 151.27 Q964.862 147.775 962.941 145.691 Q961.043 143.608 957.895 143.608 Q954.33 143.608 952.177 145.622 Q950.048 147.636 949.724 151.293 L964.909 151.27 Z" fill="#000000" fill-rule="nonzero" fill-opacity="1" /><path clip-path="url(#clip740)" d="M992.686 141.386 L992.686 145.414 Q990.881 144.488 988.936 144.025 Q986.992 143.562 984.909 143.562 Q981.737 143.562 980.14 144.534 Q978.566 145.506 978.566 147.451 Q978.566 148.932 979.7 149.789 Q980.835 150.622 984.26 151.386 L985.719 151.71 Q990.256 152.682 992.154 154.465 Q994.075 156.224 994.075 159.395 Q994.075 163.006 991.205 165.113 Q988.358 167.219 983.358 167.219 Q981.274 167.219 979.006 166.802 Q976.761 166.409 974.261 165.599 L974.261 161.201 Q976.622 162.427 978.913 163.052 Q981.205 163.654 983.45 163.654 Q986.46 163.654 988.08 162.636 Q989.7 161.594 989.7 159.719 Q989.7 157.983 988.52 157.057 Q987.362 156.131 983.404 155.275 L981.923 154.928 Q977.964 154.094 976.205 152.381 Q974.446 150.645 974.446 147.636 Q974.446 143.978 977.038 141.988 Q979.631 139.997 984.399 139.997 Q986.76 139.997 988.844 140.344 Q990.927 140.691 992.686 141.386 Z" fill="#000000" fill-rule="nonzero" fill-opacity="1" /><path clip-path="url(#clip740)" d="M1000.19 130.576 L1003.89 130.576 Q1007.36 136.039 1009.08 141.27 Q1010.81 146.502 1010.81 151.664 Q1010.81 156.849 1009.08 162.103 Q1007.36 167.358 1003.89 172.798 L1000.19 172.798 Q1003.26 167.497 1004.77 162.265 Q1006.3 157.011 1006.3 151.664 Q1006.3 146.316 1004.77 141.108 Q1003.26 135.9 1000.19 130.576 Z" fill="#000000" fill-rule="nonzero" fill-opacity="1" /><path clip-path="url(#clip740)" d="M342.841 221.844 L483.068 221.844 L483.068 180.372 L342.841 180.372 L342.841 221.844  Z" fill="#e26f46" fill-rule="evenodd" fill-opacity="0.6"/>
<polyline clip-path="url(#clip740)" style="stroke:#e26f46; stroke-linecap:round; stroke-linejoin:round; stroke-width:4; stroke-opacity:0; fill:none" points="342.841,180.372 483.068,180.372 "/>
<path clip-path="url(#clip740)" d="M506.439 183.828 L513.407 183.828 L522.226 207.346 L531.092 183.828 L538.059 183.828 L538.059 218.388 L533.499 218.388 L533.499 188.041 L524.587 211.744 L519.888 211.744 L510.976 188.041 L510.976 218.388 L506.439 218.388 L506.439 183.828 Z" fill="#000000" fill-rule="nonzero" fill-opacity="1" /><path clip-path="url(#clip740)" d="M557.203 195.448 Q553.777 195.448 551.786 198.133 Q549.795 200.795 549.795 205.448 Q549.795 210.101 551.763 212.786 Q553.754 215.448 557.203 215.448 Q560.605 215.448 562.596 212.763 Q564.587 210.078 564.587 205.448 Q564.587 200.842 562.596 198.156 Q560.605 195.448 557.203 195.448 M557.203 191.837 Q562.758 191.837 565.929 195.448 Q569.101 199.059 569.101 205.448 Q569.101 211.814 565.929 215.448 Q562.758 219.059 557.203 219.059 Q551.624 219.059 548.453 215.448 Q545.304 211.814 545.304 205.448 Q545.304 199.059 548.453 195.448 Q551.624 191.837 557.203 191.837 Z" fill="#000000" fill-rule="nonzero" fill-opacity="1" /><path clip-path="url(#clip740)" d="M593.221 196.397 L593.221 182.369 L597.48 182.369 L597.48 218.388 L593.221 218.388 L593.221 214.499 Q591.878 216.814 589.818 217.948 Q587.781 219.059 584.911 219.059 Q580.212 219.059 577.249 215.309 Q574.309 211.559 574.309 205.448 Q574.309 199.337 577.249 195.587 Q580.212 191.837 584.911 191.837 Q587.781 191.837 589.818 192.971 Q591.878 194.082 593.221 196.397 M578.707 205.448 Q578.707 210.147 580.628 212.832 Q582.573 215.494 585.952 215.494 Q589.332 215.494 591.276 212.832 Q593.221 210.147 593.221 205.448 Q593.221 200.749 591.276 198.087 Q589.332 195.402 585.952 195.402 Q582.573 195.402 580.628 198.087 Q578.707 200.749 578.707 205.448 Z" fill="#000000" fill-rule="nonzero" fill-opacity="1" /><path clip-path="url(#clip740)" d="M628.429 204.36 L628.429 206.443 L608.846 206.443 Q609.124 210.842 611.485 213.156 Q613.869 215.448 618.105 215.448 Q620.559 215.448 622.85 214.846 Q625.165 214.244 627.434 213.041 L627.434 217.068 Q625.142 218.041 622.735 218.55 Q620.327 219.059 617.85 219.059 Q611.647 219.059 608.012 215.448 Q604.401 211.837 604.401 205.68 Q604.401 199.314 607.827 195.587 Q611.276 191.837 617.11 191.837 Q622.341 191.837 625.374 195.217 Q628.429 198.573 628.429 204.36 M624.17 203.11 Q624.124 199.615 622.202 197.531 Q620.304 195.448 617.156 195.448 Q613.591 195.448 611.438 197.462 Q609.309 199.476 608.985 203.133 L624.17 203.11 Z" fill="#000000" fill-rule="nonzero" fill-opacity="1" /><path clip-path="url(#clip740)" d="M635.42 182.369 L639.679 182.369 L639.679 218.388 L635.42 218.388 L635.42 182.369 Z" fill="#000000" fill-rule="nonzero" fill-opacity="1" /><path clip-path="url(#clip740)" d="M673.892 182.416 Q670.79 187.74 669.285 192.948 Q667.781 198.156 667.781 203.504 Q667.781 208.851 669.285 214.105 Q670.813 219.337 673.892 224.638 L670.188 224.638 Q666.716 219.198 664.98 213.943 Q663.267 208.689 663.267 203.504 Q663.267 198.342 664.98 193.11 Q666.693 187.879 670.188 182.416 L673.892 182.416 Z" fill="#000000" fill-rule="nonzero" fill-opacity="1" /><path clip-path="url(#clip740)" d="M693.336 199.244 Q690.188 199.244 688.336 201.397 Q686.507 203.55 686.507 207.3 Q686.507 211.027 688.336 213.203 Q690.188 215.355 693.336 215.355 Q696.484 215.355 698.313 213.203 Q700.165 211.027 700.165 207.3 Q700.165 203.55 698.313 201.397 Q696.484 199.244 693.336 199.244 M702.618 184.592 L702.618 188.851 Q700.859 188.018 699.054 187.578 Q697.271 187.138 695.512 187.138 Q690.882 187.138 688.429 190.263 Q685.998 193.388 685.651 199.707 Q687.017 197.693 689.077 196.629 Q691.137 195.541 693.614 195.541 Q698.822 195.541 701.831 198.712 Q704.864 201.86 704.864 207.3 Q704.864 212.624 701.716 215.842 Q698.568 219.059 693.336 219.059 Q687.341 219.059 684.169 214.476 Q680.998 209.869 680.998 201.143 Q680.998 192.948 684.887 188.087 Q688.776 183.203 695.327 183.203 Q697.086 183.203 698.868 183.55 Q700.674 183.897 702.618 184.592 Z" fill="#000000" fill-rule="nonzero" fill-opacity="1" /><path clip-path="url(#clip740)" d="M723.498 199.244 Q720.35 199.244 718.498 201.397 Q716.669 203.55 716.669 207.3 Q716.669 211.027 718.498 213.203 Q720.35 215.355 723.498 215.355 Q726.646 215.355 728.475 213.203 Q730.327 211.027 730.327 207.3 Q730.327 203.55 728.475 201.397 Q726.646 199.244 723.498 199.244 M732.78 184.592 L732.78 188.851 Q731.021 188.018 729.216 187.578 Q727.433 187.138 725.674 187.138 Q721.044 187.138 718.591 190.263 Q716.16 193.388 715.813 199.707 Q717.179 197.693 719.239 196.629 Q721.299 195.541 723.776 195.541 Q728.984 195.541 731.993 198.712 Q735.026 201.86 735.026 207.3 Q735.026 212.624 731.878 215.842 Q728.729 219.059 723.498 219.059 Q717.503 219.059 714.331 214.476 Q711.16 209.869 711.16 201.143 Q711.16 192.948 715.049 188.087 Q718.938 183.203 725.489 183.203 Q727.248 183.203 729.03 183.55 Q730.836 183.897 732.78 184.592 Z" fill="#000000" fill-rule="nonzero" fill-opacity="1" /><path clip-path="url(#clip740)" d="M743.081 212.508 L747.965 212.508 L747.965 218.388 L743.081 218.388 L743.081 212.508 Z" fill="#000000" fill-rule="nonzero" fill-opacity="1" /><path clip-path="url(#clip740)" d="M768.151 186.907 Q764.539 186.907 762.711 190.471 Q760.905 194.013 760.905 201.143 Q760.905 208.249 762.711 211.814 Q764.539 215.355 768.151 215.355 Q771.785 215.355 773.59 211.814 Q775.419 208.249 775.419 201.143 Q775.419 194.013 773.59 190.471 Q771.785 186.907 768.151 186.907 M768.151 183.203 Q773.961 183.203 777.016 187.809 Q780.095 192.393 780.095 201.143 Q780.095 209.869 777.016 214.476 Q773.961 219.059 768.151 219.059 Q762.34 219.059 759.262 214.476 Q756.206 209.869 756.206 201.143 Q756.206 192.393 759.262 187.809 Q762.34 183.203 768.151 183.203 Z" fill="#000000" fill-rule="nonzero" fill-opacity="1" /><path clip-path="url(#clip740)" d="M787.132 183.828 L809.354 183.828 L809.354 185.819 L796.808 218.388 L791.924 218.388 L803.729 187.763 L787.132 187.763 L787.132 183.828 Z" fill="#000000" fill-rule="nonzero" fill-opacity="1" /><path clip-path="url(#clip740)" d="M818.613 217.67 L818.613 213.411 Q820.372 214.244 822.178 214.684 Q823.984 215.124 825.72 215.124 Q830.349 215.124 832.78 212.022 Q835.233 208.897 835.581 202.555 Q834.238 204.545 832.178 205.61 Q830.118 206.675 827.618 206.675 Q822.433 206.675 819.4 203.55 Q816.391 200.402 816.391 194.962 Q816.391 189.638 819.539 186.42 Q822.687 183.203 827.919 183.203 Q833.914 183.203 837.062 187.809 Q840.233 192.393 840.233 201.143 Q840.233 209.314 836.345 214.198 Q832.479 219.059 825.928 219.059 Q824.169 219.059 822.363 218.712 Q820.558 218.365 818.613 217.67 M827.919 203.018 Q831.067 203.018 832.896 200.865 Q834.747 198.712 834.747 194.962 Q834.747 191.235 832.896 189.082 Q831.067 186.907 827.919 186.907 Q824.771 186.907 822.919 189.082 Q821.09 191.235 821.09 194.962 Q821.09 198.712 822.919 200.865 Q824.771 203.018 827.919 203.018 Z" fill="#000000" fill-rule="nonzero" fill-opacity="1" /><path clip-path="url(#clip740)" d="M880.442 188.666 L880.442 201.559 L893.335 201.559 L893.335 205.494 L880.442 205.494 L880.442 218.388 L876.553 218.388 L876.553 205.494 L863.659 205.494 L863.659 201.559 L876.553 201.559 L876.553 188.666 L880.442 188.666 Z" fill="#000000" fill-rule="nonzero" fill-opacity="1" /><path clip-path="url(#clip740)" d="M913.428 186.907 Q909.816 186.907 907.988 190.471 Q906.182 194.013 906.182 201.143 Q906.182 208.249 907.988 211.814 Q909.816 215.355 913.428 215.355 Q917.062 215.355 918.867 211.814 Q920.696 208.249 920.696 201.143 Q920.696 194.013 918.867 190.471 Q917.062 186.907 913.428 186.907 M913.428 183.203 Q919.238 183.203 922.293 187.809 Q925.372 192.393 925.372 201.143 Q925.372 209.869 922.293 214.476 Q919.238 219.059 913.428 219.059 Q907.617 219.059 904.539 214.476 Q901.483 209.869 901.483 201.143 Q901.483 192.393 904.539 187.809 Q907.617 183.203 913.428 183.203 Z" fill="#000000" fill-rule="nonzero" fill-opacity="1" /><path clip-path="url(#clip740)" d="M933.589 212.508 L938.474 212.508 L938.474 218.388 L933.589 218.388 L933.589 212.508 Z" fill="#000000" fill-rule="nonzero" fill-opacity="1" /><path clip-path="url(#clip740)" d="M958.659 186.907 Q955.048 186.907 953.219 190.471 Q951.413 194.013 951.413 201.143 Q951.413 208.249 953.219 211.814 Q955.048 215.355 958.659 215.355 Q962.293 215.355 964.099 211.814 Q965.927 208.249 965.927 201.143 Q965.927 194.013 964.099 190.471 Q962.293 186.907 958.659 186.907 M958.659 183.203 Q964.469 183.203 967.524 187.809 Q970.603 192.393 970.603 201.143 Q970.603 209.869 967.524 214.476 Q964.469 219.059 958.659 219.059 Q952.849 219.059 949.77 214.476 Q946.714 209.869 946.714 201.143 Q946.714 192.393 949.77 187.809 Q952.849 183.203 958.659 183.203 Z" fill="#000000" fill-rule="nonzero" fill-opacity="1" /><path clip-path="url(#clip740)" d="M989.399 199.244 Q986.251 199.244 984.399 201.397 Q982.571 203.55 982.571 207.3 Q982.571 211.027 984.399 213.203 Q986.251 215.355 989.399 215.355 Q992.547 215.355 994.376 213.203 Q996.228 211.027 996.228 207.3 Q996.228 203.55 994.376 201.397 Q992.547 199.244 989.399 199.244 M998.682 184.592 L998.682 188.851 Q996.922 188.018 995.117 187.578 Q993.334 187.138 991.575 187.138 Q986.946 187.138 984.492 190.263 Q982.061 193.388 981.714 199.707 Q983.08 197.693 985.14 196.629 Q987.2 195.541 989.677 195.541 Q994.885 195.541 997.895 198.712 Q1000.93 201.86 1000.93 207.3 Q1000.93 212.624 997.779 215.842 Q994.631 219.059 989.399 219.059 Q983.404 219.059 980.233 214.476 Q977.061 209.869 977.061 201.143 Q977.061 192.948 980.95 188.087 Q984.839 183.203 991.39 183.203 Q993.149 183.203 994.932 183.55 Q996.737 183.897 998.682 184.592 Z" fill="#000000" fill-rule="nonzero" fill-opacity="1" /><path clip-path="url(#clip740)" d="M1023.15 199.754 Q1026.51 200.471 1028.38 202.74 Q1030.28 205.008 1030.28 208.342 Q1030.28 213.457 1026.76 216.258 Q1023.24 219.059 1016.76 219.059 Q1014.58 219.059 1012.27 218.619 Q1009.98 218.203 1007.52 217.346 L1007.52 212.832 Q1009.47 213.967 1011.78 214.545 Q1014.1 215.124 1016.62 215.124 Q1021.02 215.124 1023.31 213.388 Q1025.63 211.652 1025.63 208.342 Q1025.63 205.286 1023.47 203.573 Q1021.34 201.837 1017.52 201.837 L1013.5 201.837 L1013.5 197.994 L1017.71 197.994 Q1021.16 197.994 1022.99 196.629 Q1024.82 195.24 1024.82 192.647 Q1024.82 189.985 1022.92 188.573 Q1021.04 187.138 1017.52 187.138 Q1015.6 187.138 1013.4 187.555 Q1011.2 187.971 1008.57 188.851 L1008.57 184.684 Q1011.23 183.944 1013.54 183.573 Q1015.88 183.203 1017.94 183.203 Q1023.26 183.203 1026.37 185.633 Q1029.47 188.041 1029.47 192.161 Q1029.47 195.031 1027.83 197.022 Q1026.18 198.99 1023.15 199.754 Z" fill="#000000" fill-rule="nonzero" fill-opacity="1" /><path clip-path="url(#clip740)" d="M1046.11 183.828 L1050.05 183.828 L1038.01 222.786 L1034.08 222.786 L1046.11 183.828 Z" fill="#000000" fill-rule="nonzero" fill-opacity="1" /><path clip-path="url(#clip740)" d="M1052.36 203.504 L1064.84 203.504 L1064.84 207.3 L1052.36 207.3 L1052.36 203.504 Z" fill="#000000" fill-rule="nonzero" fill-opacity="1" /><path clip-path="url(#clip740)" d="M1082.22 186.907 Q1078.61 186.907 1076.78 190.471 Q1074.98 194.013 1074.98 201.143 Q1074.98 208.249 1076.78 211.814 Q1078.61 215.355 1082.22 215.355 Q1085.86 215.355 1087.66 211.814 Q1089.49 208.249 1089.49 201.143 Q1089.49 194.013 1087.66 190.471 Q1085.86 186.907 1082.22 186.907 M1082.22 183.203 Q1088.03 183.203 1091.09 187.809 Q1094.17 192.393 1094.17 201.143 Q1094.17 209.869 1091.09 214.476 Q1088.03 219.059 1082.22 219.059 Q1076.41 219.059 1073.33 214.476 Q1070.28 209.869 1070.28 201.143 Q1070.28 192.393 1073.33 187.809 Q1076.41 183.203 1082.22 183.203 Z" fill="#000000" fill-rule="nonzero" fill-opacity="1" /><path clip-path="url(#clip740)" d="M1102.38 212.508 L1107.27 212.508 L1107.27 218.388 L1102.38 218.388 L1102.38 212.508 Z" fill="#000000" fill-rule="nonzero" fill-opacity="1" /><path clip-path="url(#clip740)" d="M1121.48 214.453 L1137.8 214.453 L1137.8 218.388 L1115.86 218.388 L1115.86 214.453 Q1118.52 211.698 1123.1 207.068 Q1127.71 202.416 1128.89 201.073 Q1131.13 198.55 1132.01 196.814 Q1132.92 195.055 1132.92 193.365 Q1132.92 190.61 1130.97 188.874 Q1129.05 187.138 1125.95 187.138 Q1123.75 187.138 1121.3 187.902 Q1118.87 188.666 1116.09 190.217 L1116.09 185.494 Q1118.91 184.36 1121.37 183.782 Q1123.82 183.203 1125.86 183.203 Q1131.23 183.203 1134.42 185.888 Q1137.62 188.573 1137.62 193.064 Q1137.62 195.194 1136.81 197.115 Q1136.02 199.013 1133.91 201.606 Q1133.33 202.277 1130.23 205.494 Q1127.13 208.689 1121.48 214.453 Z" fill="#000000" fill-rule="nonzero" fill-opacity="1" /><path clip-path="url(#clip740)" d="M1158.19 199.244 Q1155.05 199.244 1153.19 201.397 Q1151.37 203.55 1151.37 207.3 Q1151.37 211.027 1153.19 213.203 Q1155.05 215.355 1158.19 215.355 Q1161.34 215.355 1163.17 213.203 Q1165.02 211.027 1165.02 207.3 Q1165.02 203.55 1163.17 201.397 Q1161.34 199.244 1158.19 199.244 M1167.48 184.592 L1167.48 188.851 Q1165.72 188.018 1163.91 187.578 Q1162.13 187.138 1160.37 187.138 Q1155.74 187.138 1153.29 190.263 Q1150.86 193.388 1150.51 199.707 Q1151.88 197.693 1153.94 196.629 Q1156 195.541 1158.47 195.541 Q1163.68 195.541 1166.69 198.712 Q1169.72 201.86 1169.72 207.3 Q1169.72 212.624 1166.57 215.842 Q1163.43 219.059 1158.19 219.059 Q1152.2 219.059 1149.03 214.476 Q1145.86 209.869 1145.86 201.143 Q1145.86 192.948 1149.75 188.087 Q1153.63 183.203 1160.19 183.203 Q1161.94 183.203 1163.73 183.55 Q1165.53 183.897 1167.48 184.592 Z" fill="#000000" fill-rule="nonzero" fill-opacity="1" /><path clip-path="url(#clip740)" d="M1181.81 214.453 L1198.13 214.453 L1198.13 218.388 L1176.18 218.388 L1176.18 214.453 Q1178.84 211.698 1183.43 207.068 Q1188.03 202.416 1189.21 201.073 Q1191.46 198.55 1192.34 196.814 Q1193.24 195.055 1193.24 193.365 Q1193.24 190.61 1191.3 188.874 Q1189.38 187.138 1186.27 187.138 Q1184.07 187.138 1181.62 187.902 Q1179.19 188.666 1176.41 190.217 L1176.41 185.494 Q1179.24 184.36 1181.69 183.782 Q1184.14 183.203 1186.18 183.203 Q1191.55 183.203 1194.75 185.888 Q1197.94 188.573 1197.94 193.064 Q1197.94 195.194 1197.13 197.115 Q1196.34 199.013 1194.24 201.606 Q1193.66 202.277 1190.56 205.494 Q1187.45 208.689 1181.81 214.453 Z" fill="#000000" fill-rule="nonzero" fill-opacity="1" /><path clip-path="url(#clip740)" d="M1222.59 183.828 L1229.56 183.828 L1238.38 207.346 L1247.25 183.828 L1254.21 183.828 L1254.21 218.388 L1249.65 218.388 L1249.65 188.041 L1240.74 211.744 L1236.04 211.744 L1227.13 188.041 L1227.13 218.388 L1222.59 218.388 L1222.59 183.828 Z" fill="#000000" fill-rule="nonzero" fill-opacity="1" /><path clip-path="url(#clip740)" d="M1275.09 205.355 Q1269.93 205.355 1267.94 206.536 Q1265.95 207.717 1265.95 210.564 Q1265.95 212.832 1267.43 214.175 Q1268.93 215.494 1271.5 215.494 Q1275.05 215.494 1277.18 212.994 Q1279.33 210.471 1279.33 206.305 L1279.33 205.355 L1275.09 205.355 M1283.59 203.596 L1283.59 218.388 L1279.33 218.388 L1279.33 214.453 Q1277.87 216.814 1275.69 217.948 Q1273.52 219.059 1270.37 219.059 Q1266.39 219.059 1264.03 216.837 Q1261.69 214.592 1261.69 210.842 Q1261.69 206.467 1264.61 204.244 Q1267.55 202.022 1273.36 202.022 L1279.33 202.022 L1279.33 201.606 Q1279.33 198.666 1277.38 197.068 Q1275.46 195.448 1271.97 195.448 Q1269.75 195.448 1267.64 195.981 Q1265.53 196.513 1263.59 197.578 L1263.59 193.643 Q1265.93 192.74 1268.12 192.3 Q1270.32 191.837 1272.41 191.837 Q1278.03 191.837 1280.81 194.754 Q1283.59 197.67 1283.59 203.596 Z" fill="#000000" fill-rule="nonzero" fill-opacity="1" /><path clip-path="url(#clip740)" d="M1291.69 182.416 L1295.39 182.416 Q1298.87 187.879 1300.58 193.11 Q1302.31 198.342 1302.31 203.504 Q1302.31 208.689 1300.58 213.943 Q1298.87 219.198 1295.39 224.638 L1291.69 224.638 Q1294.77 219.337 1296.27 214.105 Q1297.8 208.851 1297.8 203.504 Q1297.8 198.156 1296.27 192.948 Q1294.77 187.74 1291.69 182.416 Z" fill="#000000" fill-rule="nonzero" fill-opacity="1" /></svg>
