<?xml version="1.0" encoding="utf-8"?>
<svg xmlns="http://www.w3.org/2000/svg" xmlns:xlink="http://www.w3.org/1999/xlink" width="600" height="400" viewBox="0 0 2400 1600">
<defs>
  <clipPath id="clip780">
    <rect x="0" y="0" width="2400" height="1600"/>
  </clipPath>
</defs>
<path clip-path="url(#clip780)" d="M0 1600 L2400 1600 L2400 8.88178e-14 L0 8.88178e-14  Z" fill="#ffffff" fill-rule="evenodd" fill-opacity="1"/>
<defs>
  <clipPath id="clip781">
    <rect x="480" y="0" width="1681" height="1600"/>
  </clipPath>
</defs>
<path clip-path="url(#clip780)" d="M203.964 1423.18 L2352.76 1423.18 L2352.76 47.2441 L203.964 47.2441  Z" fill="#ffffff" fill-rule="evenodd" fill-opacity="1"/>
<defs>
  <clipPath id="clip782">
    <rect x="203" y="47" width="2150" height="1377"/>
  </clipPath>
</defs>
<polyline clip-path="url(#clip782)" style="stroke:#000000; stroke-linecap:round; stroke-linejoin:round; stroke-width:2; stroke-opacity:0.1; fill:none" points="330.332,1423.18 330.332,47.2441 "/>
<polyline clip-path="url(#clip782)" style="stroke:#000000; stroke-linecap:round; stroke-linejoin:round; stroke-width:2; stroke-opacity:0.1; fill:none" points="736.348,1423.18 736.348,47.2441 "/>
<polyline clip-path="url(#clip782)" style="stroke:#000000; stroke-linecap:round; stroke-linejoin:round; stroke-width:2; stroke-opacity:0.1; fill:none" points="1142.36,1423.18 1142.36,47.2441 "/>
<polyline clip-path="url(#clip782)" style="stroke:#000000; stroke-linecap:round; stroke-linejoin:round; stroke-width:2; stroke-opacity:0.1; fill:none" points="1548.38,1423.18 1548.38,47.2441 "/>
<polyline clip-path="url(#clip782)" style="stroke:#000000; stroke-linecap:round; stroke-linejoin:round; stroke-width:2; stroke-opacity:0.1; fill:none" points="1954.39,1423.18 1954.39,47.2441 "/>
<polyline clip-path="url(#clip782)" style="stroke:#000000; stroke-linecap:round; stroke-linejoin:round; stroke-width:2; stroke-opacity:0.1; fill:none" points="330.332,1423.18 330.332,47.2441 "/>
<polyline clip-path="url(#clip782)" style="stroke:#000000; stroke-linecap:round; stroke-linejoin:round; stroke-width:2; stroke-opacity:0.1; fill:none" points="736.348,1423.18 736.348,47.2441 "/>
<polyline clip-path="url(#clip782)" style="stroke:#000000; stroke-linecap:round; stroke-linejoin:round; stroke-width:2; stroke-opacity:0.1; fill:none" points="1142.36,1423.18 1142.36,47.2441 "/>
<polyline clip-path="url(#clip782)" style="stroke:#000000; stroke-linecap:round; stroke-linejoin:round; stroke-width:2; stroke-opacity:0.1; fill:none" points="1548.38,1423.18 1548.38,47.2441 "/>
<polyline clip-path="url(#clip782)" style="stroke:#000000; stroke-linecap:round; stroke-linejoin:round; stroke-width:2; stroke-opacity:0.1; fill:none" points="1954.39,1423.18 1954.39,47.2441 "/>
<polyline clip-path="url(#clip782)" style="stroke:#000000; stroke-linecap:round; stroke-linejoin:round; stroke-width:2; stroke-opacity:0.1; fill:none" points="203.964,1384.24 2352.76,1384.24 "/>
<polyline clip-path="url(#clip782)" style="stroke:#000000; stroke-linecap:round; stroke-linejoin:round; stroke-width:2; stroke-opacity:0.1; fill:none" points="203.964,1138.72 2352.76,1138.72 "/>
<polyline clip-path="url(#clip782)" style="stroke:#000000; stroke-linecap:round; stroke-linejoin:round; stroke-width:2; stroke-opacity:0.1; fill:none" points="203.964,893.205 2352.76,893.205 "/>
<polyline clip-path="url(#clip782)" style="stroke:#000000; stroke-linecap:round; stroke-linejoin:round; stroke-width:2; stroke-opacity:0.1; fill:none" points="203.964,647.689 2352.76,647.689 "/>
<polyline clip-path="url(#clip782)" style="stroke:#000000; stroke-linecap:round; stroke-linejoin:round; stroke-width:2; stroke-opacity:0.1; fill:none" points="203.964,402.172 2352.76,402.172 "/>
<polyline clip-path="url(#clip782)" style="stroke:#000000; stroke-linecap:round; stroke-linejoin:round; stroke-width:2; stroke-opacity:0.1; fill:none" points="203.964,156.656 2352.76,156.656 "/>
<polyline clip-path="url(#clip782)" style="stroke:#000000; stroke-linecap:round; stroke-linejoin:round; stroke-width:2; stroke-opacity:0.1; fill:none" points="203.964,1384.24 2352.76,1384.24 "/>
<polyline clip-path="url(#clip782)" style="stroke:#000000; stroke-linecap:round; stroke-linejoin:round; stroke-width:2; stroke-opacity:0.1; fill:none" points="203.964,1138.72 2352.76,1138.72 "/>
<polyline clip-path="url(#clip782)" style="stroke:#000000; stroke-linecap:round; stroke-linejoin:round; stroke-width:2; stroke-opacity:0.1; fill:none" points="203.964,893.205 2352.76,893.205 "/>
<polyline clip-path="url(#clip782)" style="stroke:#000000; stroke-linecap:round; stroke-linejoin:round; stroke-width:2; stroke-opacity:0.1; fill:none" points="203.964,647.689 2352.76,647.689 "/>
<polyline clip-path="url(#clip782)" style="stroke:#000000; stroke-linecap:round; stroke-linejoin:round; stroke-width:2; stroke-opacity:0.1; fill:none" points="203.964,402.172 2352.76,402.172 "/>
<polyline clip-path="url(#clip782)" style="stroke:#000000; stroke-linecap:round; stroke-linejoin:round; stroke-width:2; stroke-opacity:0.1; fill:none" points="203.964,156.656 2352.76,156.656 "/>
<polyline clip-path="url(#clip780)" style="stroke:#000000; stroke-linecap:round; stroke-linejoin:round; stroke-width:4; stroke-opacity:1; fill:none" points="203.964,1423.18 2352.76,1423.18 "/>
<polyline clip-path="url(#clip780)" style="stroke:#000000; stroke-linecap:round; stroke-linejoin:round; stroke-width:4; stroke-opacity:1; fill:none" points="203.964,47.2441 2352.76,47.2441 "/>
<polyline clip-path="url(#clip780)" style="stroke:#000000; stroke-linecap:round; stroke-linejoin:round; stroke-width:4; stroke-opacity:1; fill:none" points="330.332,1423.18 330.332,1404.28 "/>
<polyline clip-path="url(#clip780)" style="stroke:#000000; stroke-linecap:round; stroke-linejoin:round; stroke-width:4; stroke-opacity:1; fill:none" points="736.348,1423.18 736.348,1404.28 "/>
<polyline clip-path="url(#clip780)" style="stroke:#000000; stroke-linecap:round; stroke-linejoin:round; stroke-width:4; stroke-opacity:1; fill:none" points="1142.36,1423.18 1142.36,1404.28 "/>
<polyline clip-path="url(#clip780)" style="stroke:#000000; stroke-linecap:round; stroke-linejoin:round; stroke-width:4; stroke-opacity:1; fill:none" points="1548.38,1423.18 1548.38,1404.28 "/>
<polyline clip-path="url(#clip780)" style="stroke:#000000; stroke-linecap:round; stroke-linejoin:round; stroke-width:4; stroke-opacity:1; fill:none" points="1954.39,1423.18 1954.39,1404.28 "/>
<polyline clip-path="url(#clip780)" style="stroke:#000000; stroke-linecap:round; stroke-linejoin:round; stroke-width:4; stroke-opacity:1; fill:none" points="330.332,47.2441 330.332,66.1417 "/>
<polyline clip-path="url(#clip780)" style="stroke:#000000; stroke-linecap:round; stroke-linejoin:round; stroke-width:4; stroke-opacity:1; fill:none" points="736.348,47.2441 736.348,66.1417 "/>
<polyline clip-path="url(#clip780)" style="stroke:#000000; stroke-linecap:round; stroke-linejoin:round; stroke-width:4; stroke-opacity:1; fill:none" points="1142.36,47.2441 1142.36,66.1417 "/>
<polyline clip-path="url(#clip780)" style="stroke:#000000; stroke-linecap:round; stroke-linejoin:round; stroke-width:4; stroke-opacity:1; fill:none" points="1548.38,47.2441 1548.38,66.1417 "/>
<polyline clip-path="url(#clip780)" style="stroke:#000000; stroke-linecap:round; stroke-linejoin:round; stroke-width:4; stroke-opacity:1; fill:none" points="1954.39,47.2441 1954.39,66.1417 "/>
<path clip-path="url(#clip780)" d="M278.041 1466.44 Q274.893 1466.44 273.041 1468.59 Q271.212 1470.74 271.212 1474.49 Q271.212 1478.22 273.041 1480.39 Q274.893 1482.55 278.041 1482.55 Q281.189 1482.55 283.018 1480.39 Q284.869 1478.22 284.869 1474.49 Q284.869 1470.74 283.018 1468.59 Q281.189 1466.44 278.041 1466.44 M287.323 1451.78 L287.323 1456.04 Q285.564 1455.21 283.758 1454.77 Q281.976 1454.33 280.217 1454.33 Q275.587 1454.33 273.133 1457.45 Q270.703 1460.58 270.356 1466.9 Q271.721 1464.89 273.781 1463.82 Q275.842 1462.73 278.318 1462.73 Q283.527 1462.73 286.536 1465.9 Q289.568 1469.05 289.568 1474.49 Q289.568 1479.82 286.42 1483.03 Q283.272 1486.25 278.041 1486.25 Q272.045 1486.25 268.874 1481.67 Q265.703 1477.06 265.703 1468.33 Q265.703 1460.14 269.592 1455.28 Q273.481 1450.39 280.031 1450.39 Q281.791 1450.39 283.573 1450.74 Q285.379 1451.09 287.323 1451.78 Z" fill="#000000" fill-rule="nonzero" fill-opacity="1" /><path clip-path="url(#clip780)" d="M297.67 1451.02 L316.027 1451.02 L316.027 1454.96 L301.953 1454.96 L301.953 1463.43 Q302.971 1463.08 303.99 1462.92 Q305.008 1462.73 306.027 1462.73 Q311.814 1462.73 315.193 1465.9 Q318.573 1469.08 318.573 1474.49 Q318.573 1480.07 315.101 1483.17 Q311.628 1486.25 305.309 1486.25 Q303.133 1486.25 300.865 1485.88 Q298.619 1485.51 296.212 1484.77 L296.212 1480.07 Q298.295 1481.2 300.517 1481.76 Q302.74 1482.32 305.216 1482.32 Q309.221 1482.32 311.559 1480.21 Q313.897 1478.1 313.897 1474.49 Q313.897 1470.88 311.559 1468.77 Q309.221 1466.67 305.216 1466.67 Q303.341 1466.67 301.467 1467.08 Q299.615 1467.5 297.67 1468.38 L297.67 1451.02 Z" fill="#000000" fill-rule="nonzero" fill-opacity="1" /><path clip-path="url(#clip780)" d="M327.786 1479.7 L332.67 1479.7 L332.67 1485.58 L327.786 1485.58 L327.786 1479.7 Z" fill="#000000" fill-rule="nonzero" fill-opacity="1" /><path clip-path="url(#clip780)" d="M352.855 1454.1 Q349.244 1454.1 347.415 1457.66 Q345.61 1461.2 345.61 1468.33 Q345.61 1475.44 347.415 1479.01 Q349.244 1482.55 352.855 1482.55 Q356.489 1482.55 358.295 1479.01 Q360.124 1475.44 360.124 1468.33 Q360.124 1461.2 358.295 1457.66 Q356.489 1454.1 352.855 1454.1 M352.855 1450.39 Q358.665 1450.39 361.721 1455 Q364.799 1459.58 364.799 1468.33 Q364.799 1477.06 361.721 1481.67 Q358.665 1486.25 352.855 1486.25 Q347.045 1486.25 343.966 1481.67 Q340.911 1477.06 340.911 1468.33 Q340.911 1459.58 343.966 1455 Q347.045 1450.39 352.855 1450.39 Z" fill="#000000" fill-rule="nonzero" fill-opacity="1" /><path clip-path="url(#clip780)" d="M383.017 1454.1 Q379.406 1454.1 377.577 1457.66 Q375.772 1461.2 375.772 1468.33 Q375.772 1475.44 377.577 1479.01 Q379.406 1482.55 383.017 1482.55 Q386.651 1482.55 388.457 1479.01 Q390.285 1475.44 390.285 1468.33 Q390.285 1461.2 388.457 1457.66 Q386.651 1454.1 383.017 1454.1 M383.017 1450.39 Q388.827 1450.39 391.883 1455 Q394.961 1459.58 394.961 1468.33 Q394.961 1477.06 391.883 1481.67 Q388.827 1486.25 383.017 1486.25 Q377.207 1486.25 374.128 1481.67 Q371.073 1477.06 371.073 1468.33 Q371.073 1459.58 374.128 1455 Q377.207 1450.39 383.017 1450.39 Z" fill="#000000" fill-rule="nonzero" fill-opacity="1" /><path clip-path="url(#clip780)" d="M684.554 1466.44 Q681.406 1466.44 679.554 1468.59 Q677.725 1470.74 677.725 1474.49 Q677.725 1478.22 679.554 1480.39 Q681.406 1482.55 684.554 1482.55 Q687.702 1482.55 689.531 1480.39 Q691.383 1478.22 691.383 1474.49 Q691.383 1470.74 689.531 1468.59 Q687.702 1466.44 684.554 1466.44 M693.836 1451.78 L693.836 1456.04 Q692.077 1455.21 690.272 1454.77 Q688.489 1454.33 686.73 1454.33 Q682.1 1454.33 679.647 1457.45 Q677.216 1460.58 676.869 1466.9 Q678.235 1464.89 680.295 1463.82 Q682.355 1462.73 684.832 1462.73 Q690.04 1462.73 693.049 1465.9 Q696.082 1469.05 696.082 1474.49 Q696.082 1479.82 692.934 1483.03 Q689.785 1486.25 684.554 1486.25 Q678.559 1486.25 675.387 1481.67 Q672.216 1477.06 672.216 1468.33 Q672.216 1460.14 676.105 1455.28 Q679.994 1450.39 686.545 1450.39 Q688.304 1450.39 690.086 1450.74 Q691.892 1451.09 693.836 1451.78 Z" fill="#000000" fill-rule="nonzero" fill-opacity="1" /><path clip-path="url(#clip780)" d="M704.183 1451.02 L722.54 1451.02 L722.54 1454.96 L708.466 1454.96 L708.466 1463.43 Q709.484 1463.08 710.503 1462.92 Q711.521 1462.73 712.54 1462.73 Q718.327 1462.73 721.707 1465.9 Q725.086 1469.08 725.086 1474.49 Q725.086 1480.07 721.614 1483.17 Q718.142 1486.25 711.822 1486.25 Q709.646 1486.25 707.378 1485.88 Q705.133 1485.51 702.725 1484.77 L702.725 1480.07 Q704.808 1481.2 707.031 1481.76 Q709.253 1482.32 711.73 1482.32 Q715.734 1482.32 718.072 1480.21 Q720.41 1478.1 720.41 1474.49 Q720.41 1470.88 718.072 1468.77 Q715.734 1466.67 711.73 1466.67 Q709.855 1466.67 707.98 1467.08 Q706.128 1467.5 704.183 1468.38 L704.183 1451.02 Z" fill="#000000" fill-rule="nonzero" fill-opacity="1" /><path clip-path="url(#clip780)" d="M734.299 1479.7 L739.183 1479.7 L739.183 1485.58 L734.299 1485.58 L734.299 1479.7 Z" fill="#000000" fill-rule="nonzero" fill-opacity="1" /><path clip-path="url(#clip780)" d="M753.396 1481.64 L769.716 1481.64 L769.716 1485.58 L747.771 1485.58 L747.771 1481.64 Q750.433 1478.89 755.017 1474.26 Q759.623 1469.61 760.804 1468.27 Q763.049 1465.74 763.929 1464.01 Q764.831 1462.25 764.831 1460.56 Q764.831 1457.8 762.887 1456.07 Q760.966 1454.33 757.864 1454.33 Q755.665 1454.33 753.211 1455.09 Q750.78 1455.86 748.003 1457.41 L748.003 1452.69 Q750.827 1451.55 753.28 1450.97 Q755.734 1450.39 757.771 1450.39 Q763.142 1450.39 766.336 1453.08 Q769.53 1455.77 769.53 1460.26 Q769.53 1462.39 768.72 1464.31 Q767.933 1466.2 765.827 1468.8 Q765.248 1469.47 762.146 1472.69 Q759.044 1475.88 753.396 1481.64 Z" fill="#000000" fill-rule="nonzero" fill-opacity="1" /><path clip-path="url(#clip780)" d="M779.577 1451.02 L797.933 1451.02 L797.933 1454.96 L783.859 1454.96 L783.859 1463.43 Q784.878 1463.08 785.896 1462.92 Q786.915 1462.73 787.933 1462.73 Q793.72 1462.73 797.1 1465.9 Q800.479 1469.08 800.479 1474.49 Q800.479 1480.07 797.007 1483.17 Q793.535 1486.25 787.215 1486.25 Q785.04 1486.25 782.771 1485.88 Q780.526 1485.51 778.118 1484.77 L778.118 1480.07 Q780.202 1481.2 782.424 1481.76 Q784.646 1482.32 787.123 1482.32 Q791.127 1482.32 793.465 1480.21 Q795.803 1478.1 795.803 1474.49 Q795.803 1470.88 793.465 1468.77 Q791.127 1466.67 787.123 1466.67 Q785.248 1466.67 783.373 1467.08 Q781.521 1467.5 779.577 1468.38 L779.577 1451.02 Z" fill="#000000" fill-rule="nonzero" fill-opacity="1" /><path clip-path="url(#clip780)" d="M1090.07 1466.44 Q1086.92 1466.44 1085.07 1468.59 Q1083.24 1470.74 1083.24 1474.49 Q1083.24 1478.22 1085.07 1480.39 Q1086.92 1482.55 1090.07 1482.55 Q1093.22 1482.55 1095.05 1480.39 Q1096.9 1478.22 1096.9 1474.49 Q1096.9 1470.74 1095.05 1468.59 Q1093.22 1466.44 1090.07 1466.44 M1099.35 1451.78 L1099.35 1456.04 Q1097.59 1455.21 1095.79 1454.77 Q1094.01 1454.33 1092.25 1454.33 Q1087.62 1454.33 1085.16 1457.45 Q1082.73 1460.58 1082.39 1466.9 Q1083.75 1464.89 1085.81 1463.82 Q1087.87 1462.73 1090.35 1462.73 Q1095.56 1462.73 1098.57 1465.9 Q1101.6 1469.05 1101.6 1474.49 Q1101.6 1479.82 1098.45 1483.03 Q1095.3 1486.25 1090.07 1486.25 Q1084.08 1486.25 1080.91 1481.67 Q1077.73 1477.06 1077.73 1468.33 Q1077.73 1460.14 1081.62 1455.28 Q1085.51 1450.39 1092.06 1450.39 Q1093.82 1450.39 1095.6 1450.74 Q1097.41 1451.09 1099.35 1451.78 Z" fill="#000000" fill-rule="nonzero" fill-opacity="1" /><path clip-path="url(#clip780)" d="M1109.7 1451.02 L1128.06 1451.02 L1128.06 1454.96 L1113.98 1454.96 L1113.98 1463.43 Q1115 1463.08 1116.02 1462.92 Q1117.04 1462.73 1118.06 1462.73 Q1123.84 1462.73 1127.22 1465.9 Q1130.6 1469.08 1130.6 1474.49 Q1130.6 1480.07 1127.13 1483.17 Q1123.66 1486.25 1117.34 1486.25 Q1115.16 1486.25 1112.9 1485.88 Q1110.65 1485.51 1108.24 1484.77 L1108.24 1480.07 Q1110.33 1481.2 1112.55 1481.76 Q1114.77 1482.32 1117.25 1482.32 Q1121.25 1482.32 1123.59 1480.21 Q1125.93 1478.1 1125.93 1474.49 Q1125.93 1470.88 1123.59 1468.77 Q1121.25 1466.67 1117.25 1466.67 Q1115.37 1466.67 1113.5 1467.08 Q1111.65 1467.5 1109.7 1468.38 L1109.7 1451.02 Z" fill="#000000" fill-rule="nonzero" fill-opacity="1" /><path clip-path="url(#clip780)" d="M1139.82 1479.7 L1144.7 1479.7 L1144.7 1485.58 L1139.82 1485.58 L1139.82 1479.7 Z" fill="#000000" fill-rule="nonzero" fill-opacity="1" /><path clip-path="url(#clip780)" d="M1154.93 1451.02 L1173.29 1451.02 L1173.29 1454.96 L1159.22 1454.96 L1159.22 1463.43 Q1160.23 1463.08 1161.25 1462.92 Q1162.27 1462.73 1163.29 1462.73 Q1169.08 1462.73 1172.46 1465.9 Q1175.84 1469.08 1175.84 1474.49 Q1175.84 1480.07 1172.36 1483.17 Q1168.89 1486.25 1162.57 1486.25 Q1160.4 1486.25 1158.13 1485.88 Q1155.88 1485.51 1153.47 1484.77 L1153.47 1480.07 Q1155.56 1481.2 1157.78 1481.76 Q1160 1482.32 1162.48 1482.32 Q1166.48 1482.32 1168.82 1480.21 Q1171.16 1478.1 1171.16 1474.49 Q1171.16 1470.88 1168.82 1468.77 Q1166.48 1466.67 1162.48 1466.67 Q1160.6 1466.67 1158.73 1467.08 Q1156.88 1467.5 1154.93 1468.38 L1154.93 1451.02 Z" fill="#000000" fill-rule="nonzero" fill-opacity="1" /><path clip-path="url(#clip780)" d="M1195.05 1454.1 Q1191.44 1454.1 1189.61 1457.66 Q1187.8 1461.2 1187.8 1468.33 Q1187.8 1475.44 1189.61 1479.01 Q1191.44 1482.55 1195.05 1482.55 Q1198.68 1482.55 1200.49 1479.01 Q1202.32 1475.44 1202.32 1468.33 Q1202.32 1461.2 1200.49 1457.66 Q1198.68 1454.1 1195.05 1454.1 M1195.05 1450.39 Q1200.86 1450.39 1203.91 1455 Q1206.99 1459.58 1206.99 1468.33 Q1206.99 1477.06 1203.91 1481.67 Q1200.86 1486.25 1195.05 1486.25 Q1189.24 1486.25 1186.16 1481.67 Q1183.1 1477.06 1183.1 1468.33 Q1183.1 1459.58 1186.16 1455 Q1189.24 1450.39 1195.05 1450.39 Z" fill="#000000" fill-rule="nonzero" fill-opacity="1" /><path clip-path="url(#clip780)" d="M1496.59 1466.44 Q1493.44 1466.44 1491.59 1468.59 Q1489.76 1470.74 1489.76 1474.49 Q1489.76 1478.22 1491.59 1480.39 Q1493.44 1482.55 1496.59 1482.55 Q1499.73 1482.55 1501.56 1480.39 Q1503.41 1478.22 1503.41 1474.49 Q1503.41 1470.74 1501.56 1468.59 Q1499.73 1466.44 1496.59 1466.44 M1505.87 1451.78 L1505.87 1456.04 Q1504.11 1455.21 1502.3 1454.77 Q1500.52 1454.33 1498.76 1454.33 Q1494.13 1454.33 1491.68 1457.45 Q1489.25 1460.58 1488.9 1466.9 Q1490.27 1464.89 1492.33 1463.82 Q1494.39 1462.73 1496.86 1462.73 Q1502.07 1462.73 1505.08 1465.9 Q1508.11 1469.05 1508.11 1474.49 Q1508.11 1479.82 1504.96 1483.03 Q1501.82 1486.25 1496.59 1486.25 Q1490.59 1486.25 1487.42 1481.67 Q1484.25 1477.06 1484.25 1468.33 Q1484.25 1460.14 1488.14 1455.28 Q1492.02 1450.39 1498.58 1450.39 Q1500.34 1450.39 1502.12 1450.74 Q1503.92 1451.09 1505.87 1451.78 Z" fill="#000000" fill-rule="nonzero" fill-opacity="1" /><path clip-path="url(#clip780)" d="M1516.21 1451.02 L1534.57 1451.02 L1534.57 1454.96 L1520.5 1454.96 L1520.5 1463.43 Q1521.52 1463.08 1522.53 1462.92 Q1523.55 1462.73 1524.57 1462.73 Q1530.36 1462.73 1533.74 1465.9 Q1537.12 1469.08 1537.12 1474.49 Q1537.12 1480.07 1533.65 1483.17 Q1530.17 1486.25 1523.85 1486.25 Q1521.68 1486.25 1519.41 1485.88 Q1517.16 1485.51 1514.76 1484.77 L1514.76 1480.07 Q1516.84 1481.2 1519.06 1481.76 Q1521.28 1482.32 1523.76 1482.32 Q1527.77 1482.32 1530.1 1480.21 Q1532.44 1478.1 1532.44 1474.49 Q1532.44 1470.88 1530.1 1468.77 Q1527.77 1466.67 1523.76 1466.67 Q1521.89 1466.67 1520.01 1467.08 Q1518.16 1467.5 1516.21 1468.38 L1516.21 1451.02 Z" fill="#000000" fill-rule="nonzero" fill-opacity="1" /><path clip-path="url(#clip780)" d="M1546.33 1479.7 L1551.21 1479.7 L1551.21 1485.58 L1546.33 1485.58 L1546.33 1479.7 Z" fill="#000000" fill-rule="nonzero" fill-opacity="1" /><path clip-path="url(#clip780)" d="M1560.22 1451.02 L1582.44 1451.02 L1582.44 1453.01 L1569.89 1485.58 L1565.01 1485.58 L1576.82 1454.96 L1560.22 1454.96 L1560.22 1451.02 Z" fill="#000000" fill-rule="nonzero" fill-opacity="1" /><path clip-path="url(#clip780)" d="M1591.61 1451.02 L1609.96 1451.02 L1609.96 1454.96 L1595.89 1454.96 L1595.89 1463.43 Q1596.91 1463.08 1597.93 1462.92 Q1598.95 1462.73 1599.96 1462.73 Q1605.75 1462.73 1609.13 1465.9 Q1612.51 1469.08 1612.51 1474.49 Q1612.51 1480.07 1609.04 1483.17 Q1605.57 1486.25 1599.25 1486.25 Q1597.07 1486.25 1594.8 1485.88 Q1592.56 1485.51 1590.15 1484.77 L1590.15 1480.07 Q1592.23 1481.2 1594.45 1481.76 Q1596.68 1482.32 1599.15 1482.32 Q1603.16 1482.32 1605.5 1480.21 Q1607.83 1478.1 1607.83 1474.49 Q1607.83 1470.88 1605.5 1468.77 Q1603.16 1466.67 1599.15 1466.67 Q1597.28 1466.67 1595.4 1467.08 Q1593.55 1467.5 1591.61 1468.38 L1591.61 1451.02 Z" fill="#000000" fill-rule="nonzero" fill-opacity="1" /><path clip-path="url(#clip780)" d="M1902.1 1466.44 Q1898.95 1466.44 1897.1 1468.59 Q1895.27 1470.74 1895.27 1474.49 Q1895.27 1478.22 1897.1 1480.39 Q1898.95 1482.55 1902.1 1482.55 Q1905.25 1482.55 1907.08 1480.39 Q1908.93 1478.22 1908.93 1474.49 Q1908.93 1470.74 1907.08 1468.59 Q1905.25 1466.44 1902.1 1466.44 M1911.39 1451.78 L1911.39 1456.04 Q1909.63 1455.21 1907.82 1454.77 Q1906.04 1454.33 1904.28 1454.33 Q1899.65 1454.33 1897.2 1457.45 Q1894.77 1460.58 1894.42 1466.9 Q1895.78 1464.89 1897.84 1463.82 Q1899.9 1462.73 1902.38 1462.73 Q1907.59 1462.73 1910.6 1465.9 Q1913.63 1469.05 1913.63 1474.49 Q1913.63 1479.82 1910.48 1483.03 Q1907.33 1486.25 1902.1 1486.25 Q1896.11 1486.25 1892.94 1481.67 Q1889.77 1477.06 1889.77 1468.33 Q1889.77 1460.14 1893.65 1455.28 Q1897.54 1450.39 1904.09 1450.39 Q1905.85 1450.39 1907.64 1450.74 Q1909.44 1451.09 1911.39 1451.78 Z" fill="#000000" fill-rule="nonzero" fill-opacity="1" /><path clip-path="url(#clip780)" d="M1932.26 1466.44 Q1929.12 1466.44 1927.26 1468.59 Q1925.44 1470.74 1925.44 1474.49 Q1925.44 1478.22 1927.26 1480.39 Q1929.12 1482.55 1932.26 1482.55 Q1935.41 1482.55 1937.24 1480.39 Q1939.09 1478.22 1939.09 1474.49 Q1939.09 1470.74 1937.24 1468.59 Q1935.41 1466.44 1932.26 1466.44 M1941.55 1451.78 L1941.55 1456.04 Q1939.79 1455.21 1937.98 1454.77 Q1936.2 1454.33 1934.44 1454.33 Q1929.81 1454.33 1927.36 1457.45 Q1924.93 1460.58 1924.58 1466.9 Q1925.95 1464.89 1928.01 1463.82 Q1930.07 1462.73 1932.54 1462.73 Q1937.75 1462.73 1940.76 1465.9 Q1943.79 1469.05 1943.79 1474.49 Q1943.79 1479.82 1940.64 1483.03 Q1937.5 1486.25 1932.26 1486.25 Q1926.27 1486.25 1923.1 1481.67 Q1919.93 1477.06 1919.93 1468.33 Q1919.93 1460.14 1923.82 1455.28 Q1927.7 1450.39 1934.26 1450.39 Q1936.01 1450.39 1937.8 1450.74 Q1939.6 1451.09 1941.55 1451.78 Z" fill="#000000" fill-rule="nonzero" fill-opacity="1" /><path clip-path="url(#clip780)" d="M1951.85 1479.7 L1956.73 1479.7 L1956.73 1485.58 L1951.85 1485.58 L1951.85 1479.7 Z" fill="#000000" fill-rule="nonzero" fill-opacity="1" /><path clip-path="url(#clip780)" d="M1976.92 1454.1 Q1973.31 1454.1 1971.48 1457.66 Q1969.67 1461.2 1969.67 1468.33 Q1969.67 1475.44 1971.48 1479.01 Q1973.31 1482.55 1976.92 1482.55 Q1980.55 1482.55 1982.36 1479.01 Q1984.19 1475.44 1984.19 1468.33 Q1984.19 1461.2 1982.36 1457.66 Q1980.55 1454.1 1976.92 1454.1 M1976.92 1450.39 Q1982.73 1450.39 1985.78 1455 Q1988.86 1459.58 1988.86 1468.33 Q1988.86 1477.06 1985.78 1481.67 Q1982.73 1486.25 1976.92 1486.25 Q1971.11 1486.25 1968.03 1481.67 Q1964.97 1477.06 1964.97 1468.33 Q1964.97 1459.58 1968.03 1455 Q1971.11 1450.39 1976.92 1450.39 Z" fill="#000000" fill-rule="nonzero" fill-opacity="1" /><path clip-path="url(#clip780)" d="M2007.08 1454.1 Q2003.47 1454.1 2001.64 1457.66 Q1999.83 1461.2 1999.83 1468.33 Q1999.83 1475.44 2001.64 1479.01 Q2003.47 1482.55 2007.08 1482.55 Q2010.71 1482.55 2012.52 1479.01 Q2014.35 1475.44 2014.35 1468.33 Q2014.35 1461.2 2012.52 1457.66 Q2010.71 1454.1 2007.08 1454.1 M2007.08 1450.39 Q2012.89 1450.39 2015.95 1455 Q2019.02 1459.58 2019.02 1468.33 Q2019.02 1477.06 2015.95 1481.67 Q2012.89 1486.25 2007.08 1486.25 Q2001.27 1486.25 1998.19 1481.67 Q1995.13 1477.06 1995.13 1468.33 Q1995.13 1459.58 1998.19 1455 Q2001.27 1450.39 2007.08 1450.39 Z" fill="#000000" fill-rule="nonzero" fill-opacity="1" /><path clip-path="url(#clip780)" d="M1156.27 1526.86 L1147.54 1550.51 L1165.02 1550.51 L1156.27 1526.86 M1152.64 1520.52 L1159.93 1520.52 L1178.04 1568.04 L1171.35 1568.04 L1167.02 1555.85 L1145.6 1555.85 L1141.27 1568.04 L1134.49 1568.04 L1152.64 1520.52 Z" fill="#000000" fill-rule="nonzero" fill-opacity="1" /><path clip-path="url(#clip780)" d="M1208.18 1549.81 Q1208.18 1543.44 1205.54 1539.94 Q1202.93 1536.44 1198.18 1536.44 Q1193.47 1536.44 1190.83 1539.94 Q1188.22 1543.44 1188.22 1549.81 Q1188.22 1556.14 1190.83 1559.64 Q1193.47 1563.14 1198.18 1563.14 Q1202.93 1563.14 1205.54 1559.64 Q1208.18 1556.14 1208.18 1549.81 M1214.03 1563.62 Q1214.03 1572.72 1209.99 1577.15 Q1205.95 1581.6 1197.61 1581.6 Q1194.52 1581.6 1191.79 1581.13 Q1189.05 1580.68 1186.47 1579.72 L1186.47 1574.03 Q1189.05 1575.43 1191.56 1576.1 Q1194.08 1576.76 1196.69 1576.76 Q1202.45 1576.76 1205.31 1573.74 Q1208.18 1570.75 1208.18 1564.67 L1208.18 1561.77 Q1206.36 1564.92 1203.53 1566.48 Q1200.7 1568.04 1196.75 1568.04 Q1190.19 1568.04 1186.18 1563.05 Q1182.17 1558.05 1182.17 1549.81 Q1182.17 1541.53 1186.18 1536.53 Q1190.19 1531.54 1196.75 1531.54 Q1200.7 1531.54 1203.53 1533.1 Q1206.36 1534.66 1208.18 1537.81 L1208.18 1532.4 L1214.03 1532.4 L1214.03 1563.62 Z" fill="#000000" fill-rule="nonzero" fill-opacity="1" /><path clip-path="url(#clip780)" d="M1256.59 1548.76 L1256.59 1551.62 L1229.66 1551.62 Q1230.04 1557.67 1233.29 1560.85 Q1236.57 1564 1242.39 1564 Q1245.77 1564 1248.92 1563.17 Q1252.1 1562.35 1255.22 1560.69 L1255.22 1566.23 Q1252.07 1567.57 1248.76 1568.27 Q1245.45 1568.97 1242.04 1568.97 Q1233.51 1568.97 1228.52 1564 Q1223.55 1559.04 1223.55 1550.57 Q1223.55 1541.82 1228.26 1536.69 Q1233 1531.54 1241.02 1531.54 Q1248.22 1531.54 1252.39 1536.18 Q1256.59 1540.8 1256.59 1548.76 M1250.73 1547.04 Q1250.67 1542.23 1248.03 1539.37 Q1245.42 1536.5 1241.09 1536.5 Q1236.19 1536.5 1233.23 1539.27 Q1230.3 1542.04 1229.85 1547.07 L1250.73 1547.04 Z" fill="#000000" fill-rule="nonzero" fill-opacity="1" /><path clip-path="url(#clip780)" d="M1300.99 1518.58 Q1296.72 1525.9 1294.66 1533.06 Q1292.59 1540.23 1292.59 1547.58 Q1292.59 1554.93 1294.66 1562.16 Q1296.76 1569.35 1300.99 1576.64 L1295.9 1576.64 Q1291.12 1569.16 1288.74 1561.93 Q1286.38 1554.71 1286.38 1547.58 Q1286.38 1540.48 1288.74 1533.29 Q1291.09 1526.09 1295.9 1518.58 L1300.99 1518.58 Z" fill="#000000" fill-rule="nonzero" fill-opacity="1" /><path clip-path="url(#clip780)" d="M1312.61 1520.52 L1322.19 1520.52 L1334.31 1552.86 L1346.5 1520.52 L1356.09 1520.52 L1356.09 1568.04 L1349.81 1568.04 L1349.81 1526.32 L1337.56 1558.91 L1331.1 1558.91 L1318.85 1526.32 L1318.85 1568.04 L1312.61 1568.04 L1312.61 1520.52 Z" fill="#000000" fill-rule="nonzero" fill-opacity="1" /><path clip-path="url(#clip780)" d="M1384.79 1550.12 Q1377.7 1550.12 1374.96 1551.75 Q1372.22 1553.37 1372.22 1557.29 Q1372.22 1560.4 1374.26 1562.25 Q1376.33 1564.07 1379.86 1564.07 Q1384.73 1564.07 1387.66 1560.63 Q1390.62 1557.16 1390.62 1551.43 L1390.62 1550.12 L1384.79 1550.12 M1396.48 1547.71 L1396.48 1568.04 L1390.62 1568.04 L1390.62 1562.63 Q1388.61 1565.88 1385.62 1567.44 Q1382.63 1568.97 1378.3 1568.97 Q1372.83 1568.97 1369.58 1565.91 Q1366.37 1562.82 1366.37 1557.67 Q1366.37 1551.65 1370.38 1548.6 Q1374.42 1545.54 1382.41 1545.54 L1390.62 1545.54 L1390.62 1544.97 Q1390.62 1540.93 1387.95 1538.73 Q1385.3 1536.5 1380.5 1536.5 Q1377.44 1536.5 1374.55 1537.23 Q1371.65 1537.97 1368.98 1539.43 L1368.98 1534.02 Q1372.19 1532.78 1375.21 1532.17 Q1378.24 1531.54 1381.1 1531.54 Q1388.84 1531.54 1392.66 1535.55 Q1396.48 1539.56 1396.48 1547.71 Z" fill="#000000" fill-rule="nonzero" fill-opacity="1" /><path clip-path="url(#clip780)" d="M1407.62 1518.58 L1412.71 1518.58 Q1417.48 1526.09 1419.84 1533.29 Q1422.22 1540.48 1422.22 1547.58 Q1422.22 1554.71 1419.84 1561.93 Q1417.48 1569.16 1412.71 1576.64 L1407.62 1576.64 Q1411.85 1569.35 1413.92 1562.16 Q1416.02 1554.93 1416.02 1547.58 Q1416.02 1540.23 1413.92 1533.06 Q1411.85 1525.9 1407.62 1518.58 Z" fill="#000000" fill-rule="nonzero" fill-opacity="1" /><polyline clip-path="url(#clip780)" style="stroke:#000000; stroke-linecap:round; stroke-linejoin:round; stroke-width:4; stroke-opacity:1; fill:none" points="203.964,1423.18 203.964,47.2441 "/>
<polyline clip-path="url(#clip780)" style="stroke:#000000; stroke-linecap:round; stroke-linejoin:round; stroke-width:4; stroke-opacity:1; fill:none" points="2352.76,1423.18 2352.76,47.2441 "/>
<polyline clip-path="url(#clip780)" style="stroke:#000000; stroke-linecap:round; stroke-linejoin:round; stroke-width:4; stroke-opacity:1; fill:none" points="203.964,1384.24 222.861,1384.24 "/>
<polyline clip-path="url(#clip780)" style="stroke:#000000; stroke-linecap:round; stroke-linejoin:round; stroke-width:4; stroke-opacity:1; fill:none" points="203.964,1138.72 222.861,1138.72 "/>
<polyline clip-path="url(#clip780)" style="stroke:#000000; stroke-linecap:round; stroke-linejoin:round; stroke-width:4; stroke-opacity:1; fill:none" points="203.964,893.205 222.861,893.205 "/>
<polyline clip-path="url(#clip780)" style="stroke:#000000; stroke-linecap:round; stroke-linejoin:round; stroke-width:4; stroke-opacity:1; fill:none" points="203.964,647.689 222.861,647.689 "/>
<polyline clip-path="url(#clip780)" style="stroke:#000000; stroke-linecap:round; stroke-linejoin:round; stroke-width:4; stroke-opacity:1; fill:none" points="203.964,402.172 222.861,402.172 "/>
<polyline clip-path="url(#clip780)" style="stroke:#000000; stroke-linecap:round; stroke-linejoin:round; stroke-width:4; stroke-opacity:1; fill:none" points="203.964,156.656 222.861,156.656 "/>
<polyline clip-path="url(#clip780)" style="stroke:#000000; stroke-linecap:round; stroke-linejoin:round; stroke-width:4; stroke-opacity:1; fill:none" points="2352.76,1384.24 2333.86,1384.24 "/>
<polyline clip-path="url(#clip780)" style="stroke:#000000; stroke-linecap:round; stroke-linejoin:round; stroke-width:4; stroke-opacity:1; fill:none" points="2352.76,1138.72 2333.86,1138.72 "/>
<polyline clip-path="url(#clip780)" style="stroke:#000000; stroke-linecap:round; stroke-linejoin:round; stroke-width:4; stroke-opacity:1; fill:none" points="2352.76,893.205 2333.86,893.205 "/>
<polyline clip-path="url(#clip780)" style="stroke:#000000; stroke-linecap:round; stroke-linejoin:round; stroke-width:4; stroke-opacity:1; fill:none" points="2352.76,647.689 2333.86,647.689 "/>
<polyline clip-path="url(#clip780)" style="stroke:#000000; stroke-linecap:round; stroke-linejoin:round; stroke-width:4; stroke-opacity:1; fill:none" points="2352.76,402.172 2333.86,402.172 "/>
<polyline clip-path="url(#clip780)" style="stroke:#000000; stroke-linecap:round; stroke-linejoin:round; stroke-width:4; stroke-opacity:1; fill:none" points="2352.76,156.656 2333.86,156.656 "/>
<path clip-path="url(#clip780)" d="M156.019 1370.04 Q152.408 1370.04 150.579 1373.6 Q148.774 1377.14 148.774 1384.27 Q148.774 1391.38 150.579 1394.94 Q152.408 1398.49 156.019 1398.49 Q159.653 1398.49 161.459 1394.94 Q163.288 1391.38 163.288 1384.27 Q163.288 1377.14 161.459 1373.6 Q159.653 1370.04 156.019 1370.04 M156.019 1366.33 Q161.829 1366.33 164.885 1370.94 Q167.964 1375.52 167.964 1384.27 Q167.964 1393 164.885 1397.61 Q161.829 1402.19 156.019 1402.19 Q150.209 1402.19 147.13 1397.61 Q144.075 1393 144.075 1384.27 Q144.075 1375.52 147.13 1370.94 Q150.209 1366.33 156.019 1366.33 Z" fill="#000000" fill-rule="nonzero" fill-opacity="1" /><path clip-path="url(#clip780)" d="M147.061 1121.44 L165.417 1121.44 L165.417 1125.38 L151.343 1125.38 L151.343 1133.85 Q152.362 1133.5 153.38 1133.34 Q154.399 1133.15 155.417 1133.15 Q161.204 1133.15 164.584 1136.33 Q167.964 1139.5 167.964 1144.91 Q167.964 1150.49 164.491 1153.59 Q161.019 1156.67 154.7 1156.67 Q152.524 1156.67 150.255 1156.3 Q148.01 1155.93 145.603 1155.19 L145.603 1150.49 Q147.686 1151.63 149.908 1152.18 Q152.13 1152.74 154.607 1152.74 Q158.612 1152.74 160.95 1150.63 Q163.288 1148.52 163.288 1144.91 Q163.288 1141.3 160.95 1139.2 Q158.612 1137.09 154.607 1137.09 Q152.732 1137.09 150.857 1137.51 Q149.005 1137.92 147.061 1138.8 L147.061 1121.44 Z" fill="#000000" fill-rule="nonzero" fill-opacity="1" /><path clip-path="url(#clip780)" d="M116.668 906.55 L124.306 906.55 L124.306 880.184 L115.996 881.851 L115.996 877.592 L124.26 875.925 L128.936 875.925 L128.936 906.55 L136.575 906.55 L136.575 910.485 L116.668 910.485 L116.668 906.55 Z" fill="#000000" fill-rule="nonzero" fill-opacity="1" /><path clip-path="url(#clip780)" d="M156.019 879.004 Q152.408 879.004 150.579 882.569 Q148.774 886.11 148.774 893.24 Q148.774 900.346 150.579 903.911 Q152.408 907.453 156.019 907.453 Q159.653 907.453 161.459 903.911 Q163.288 900.346 163.288 893.24 Q163.288 886.11 161.459 882.569 Q159.653 879.004 156.019 879.004 M156.019 875.3 Q161.829 875.3 164.885 879.907 Q167.964 884.49 167.964 893.24 Q167.964 901.967 164.885 906.573 Q161.829 911.156 156.019 911.156 Q150.209 911.156 147.13 906.573 Q144.075 901.967 144.075 893.24 Q144.075 884.49 147.13 879.907 Q150.209 875.3 156.019 875.3 Z" fill="#000000" fill-rule="nonzero" fill-opacity="1" /><path clip-path="url(#clip780)" d="M117.663 661.033 L125.302 661.033 L125.302 634.668 L116.992 636.335 L116.992 632.075 L125.255 630.409 L129.931 630.409 L129.931 661.033 L137.57 661.033 L137.57 664.969 L117.663 664.969 L117.663 661.033 Z" fill="#000000" fill-rule="nonzero" fill-opacity="1" /><path clip-path="url(#clip780)" d="M147.061 630.409 L165.417 630.409 L165.417 634.344 L151.343 634.344 L151.343 642.816 Q152.362 642.469 153.38 642.307 Q154.399 642.122 155.417 642.122 Q161.204 642.122 164.584 645.293 Q167.964 648.464 167.964 653.881 Q167.964 659.459 164.491 662.561 Q161.019 665.64 154.7 665.64 Q152.524 665.64 150.255 665.27 Q148.01 664.899 145.603 664.158 L145.603 659.459 Q147.686 660.594 149.908 661.149 Q152.13 661.705 154.607 661.705 Q158.612 661.705 160.95 659.598 Q163.288 657.492 163.288 653.881 Q163.288 650.27 160.95 648.163 Q158.612 646.057 154.607 646.057 Q152.732 646.057 150.857 646.473 Q149.005 646.89 147.061 647.77 L147.061 630.409 Z" fill="#000000" fill-rule="nonzero" fill-opacity="1" /><path clip-path="url(#clip780)" d="M119.885 415.517 L136.204 415.517 L136.204 419.452 L114.26 419.452 L114.26 415.517 Q116.922 412.762 121.505 408.133 Q126.112 403.48 127.292 402.137 Q129.538 399.614 130.417 397.878 Q131.32 396.119 131.32 394.429 Q131.32 391.675 129.376 389.938 Q127.455 388.202 124.353 388.202 Q122.154 388.202 119.7 388.966 Q117.269 389.73 114.492 391.281 L114.492 386.559 Q117.316 385.425 119.769 384.846 Q122.223 384.267 124.26 384.267 Q129.63 384.267 132.825 386.952 Q136.019 389.637 136.019 394.128 Q136.019 396.258 135.209 398.179 Q134.422 400.077 132.316 402.67 Q131.737 403.341 128.635 406.559 Q125.533 409.753 119.885 415.517 Z" fill="#000000" fill-rule="nonzero" fill-opacity="1" /><path clip-path="url(#clip780)" d="M156.019 387.971 Q152.408 387.971 150.579 391.536 Q148.774 395.077 148.774 402.207 Q148.774 409.313 150.579 412.878 Q152.408 416.42 156.019 416.42 Q159.653 416.42 161.459 412.878 Q163.288 409.313 163.288 402.207 Q163.288 395.077 161.459 391.536 Q159.653 387.971 156.019 387.971 M156.019 384.267 Q161.829 384.267 164.885 388.874 Q167.964 393.457 167.964 402.207 Q167.964 410.934 164.885 415.54 Q161.829 420.123 156.019 420.123 Q150.209 420.123 147.13 415.54 Q144.075 410.934 144.075 402.207 Q144.075 393.457 147.13 388.874 Q150.209 384.267 156.019 384.267 Z" fill="#000000" fill-rule="nonzero" fill-opacity="1" /><path clip-path="url(#clip780)" d="M120.88 170 L137.2 170 L137.2 173.936 L115.256 173.936 L115.256 170 Q117.918 167.246 122.501 162.616 Q127.107 157.963 128.288 156.621 Q130.533 154.098 131.413 152.362 Q132.316 150.602 132.316 148.913 Q132.316 146.158 130.371 144.422 Q128.45 142.686 125.348 142.686 Q123.149 142.686 120.695 143.45 Q118.265 144.214 115.487 145.764 L115.487 141.042 Q118.311 139.908 120.765 139.329 Q123.218 138.751 125.255 138.751 Q130.626 138.751 133.82 141.436 Q137.015 144.121 137.015 148.612 Q137.015 150.741 136.204 152.663 Q135.417 154.561 133.311 157.153 Q132.732 157.825 129.63 161.042 Q126.529 164.237 120.88 170 Z" fill="#000000" fill-rule="nonzero" fill-opacity="1" /><path clip-path="url(#clip780)" d="M147.061 139.376 L165.417 139.376 L165.417 143.311 L151.343 143.311 L151.343 151.783 Q152.362 151.436 153.38 151.274 Q154.399 151.088 155.417 151.088 Q161.204 151.088 164.584 154.26 Q167.964 157.431 167.964 162.848 Q167.964 168.426 164.491 171.528 Q161.019 174.607 154.7 174.607 Q152.524 174.607 150.255 174.237 Q148.01 173.866 145.603 173.125 L145.603 168.426 Q147.686 169.561 149.908 170.116 Q152.13 170.672 154.607 170.672 Q158.612 170.672 160.95 168.565 Q163.288 166.459 163.288 162.848 Q163.288 159.237 160.95 157.13 Q158.612 155.024 154.607 155.024 Q152.732 155.024 150.857 155.44 Q149.005 155.857 147.061 156.737 L147.061 139.376 Z" fill="#000000" fill-rule="nonzero" fill-opacity="1" /><path clip-path="url(#clip780)" d="M21.7677 1026.76 L39.6235 1026.76 L39.6235 1018.68 Q39.6235 1014.19 37.3 1011.74 Q34.9765 1009.29 30.6797 1009.29 Q26.4147 1009.29 24.0912 1011.74 Q21.7677 1014.19 21.7677 1018.68 L21.7677 1026.76 M16.4842 1033.19 L16.4842 1018.68 Q16.4842 1010.69 20.1126 1006.61 Q23.7092 1002.51 30.6797 1002.51 Q37.7138 1002.51 41.3104 1006.61 Q44.907 1010.69 44.907 1018.68 L44.907 1026.76 L64.0042 1026.76 L64.0042 1033.19 L16.4842 1033.19 Z" fill="#000000" fill-rule="nonzero" fill-opacity="1" /><path clip-path="url(#clip780)" d="M33.8307 974.626 Q33.2578 975.613 33.0032 976.791 Q32.7167 977.936 32.7167 979.337 Q32.7167 984.302 35.9632 986.976 Q39.1779 989.617 45.2253 989.617 L64.0042 989.617 L64.0042 995.506 L28.3562 995.506 L28.3562 989.617 L33.8944 989.617 Q30.6479 987.771 29.0883 984.811 Q27.4968 981.851 27.4968 977.618 Q27.4968 977.013 27.5923 976.281 Q27.656 975.549 27.8151 974.658 L33.8307 974.626 Z" fill="#000000" fill-rule="nonzero" fill-opacity="1" /><path clip-path="url(#clip780)" d="M32.4621 956.102 Q32.4621 960.813 36.1542 963.55 Q39.8145 966.287 46.212 966.287 Q52.6095 966.287 56.3017 963.582 Q59.9619 960.844 59.9619 956.102 Q59.9619 951.423 56.2698 948.686 Q52.5777 945.949 46.212 945.949 Q39.8781 945.949 36.186 948.686 Q32.4621 951.423 32.4621 956.102 M27.4968 956.102 Q27.4968 948.463 32.4621 944.103 Q37.4273 939.742 46.212 939.742 Q54.9649 939.742 59.9619 944.103 Q64.9272 948.463 64.9272 956.102 Q64.9272 963.773 59.9619 968.133 Q54.9649 972.462 46.212 972.462 Q37.4273 972.462 32.4621 968.133 Q27.4968 963.773 27.4968 956.102 Z" fill="#000000" fill-rule="nonzero" fill-opacity="1" /><path clip-path="url(#clip780)" d="M46.212 904.444 Q39.7508 904.444 36.0905 907.118 Q32.3984 909.76 32.3984 914.407 Q32.3984 919.054 36.0905 921.727 Q39.7508 924.369 46.212 924.369 Q52.6732 924.369 56.3653 921.727 Q60.0256 919.054 60.0256 914.407 Q60.0256 909.76 56.3653 907.118 Q52.6732 904.444 46.212 904.444 M33.7671 924.369 Q30.5842 922.523 29.0564 919.722 Q27.4968 916.889 27.4968 912.974 Q27.4968 906.481 32.6531 902.439 Q37.8093 898.365 46.212 898.365 Q54.6147 898.365 59.771 902.439 Q64.9272 906.481 64.9272 912.974 Q64.9272 916.889 63.3994 919.722 Q61.8398 922.523 58.657 924.369 L64.0042 924.369 L64.0042 930.257 L14.479 930.257 L14.479 924.369 L33.7671 924.369 Z" fill="#000000" fill-rule="nonzero" fill-opacity="1" /><path clip-path="url(#clip780)" d="M46.0847 872.457 Q46.0847 879.554 47.7079 882.292 Q49.3312 885.029 53.2461 885.029 Q56.3653 885.029 58.2114 882.992 Q60.0256 880.923 60.0256 877.39 Q60.0256 872.52 56.5881 869.592 Q53.1188 866.632 47.3897 866.632 L46.0847 866.632 L46.0847 872.457 M43.6657 860.776 L64.0042 860.776 L64.0042 866.632 L58.5933 866.632 Q61.8398 868.637 63.3994 871.629 Q64.9272 874.621 64.9272 878.95 Q64.9272 884.424 61.8716 887.671 Q58.7843 890.885 53.6281 890.885 Q47.6125 890.885 44.5569 886.875 Q41.5014 882.833 41.5014 874.844 L41.5014 866.632 L40.9285 866.632 Q36.8862 866.632 34.6901 869.306 Q32.4621 871.947 32.4621 876.753 Q32.4621 879.809 33.1941 882.705 Q33.9262 885.602 35.3903 888.275 L29.9795 888.275 Q28.7381 885.061 28.1334 882.037 Q27.4968 879.013 27.4968 876.149 Q27.4968 868.414 31.5072 864.595 Q35.5176 860.776 43.6657 860.776 Z" fill="#000000" fill-rule="nonzero" fill-opacity="1" /><path clip-path="url(#clip780)" d="M46.212 823.122 Q39.7508 823.122 36.0905 825.796 Q32.3984 828.438 32.3984 833.085 Q32.3984 837.732 36.0905 840.405 Q39.7508 843.047 46.212 843.047 Q52.6732 843.047 56.3653 840.405 Q60.0256 837.732 60.0256 833.085 Q60.0256 828.438 56.3653 825.796 Q52.6732 823.122 46.212 823.122 M33.7671 843.047 Q30.5842 841.201 29.0564 838.4 Q27.4968 835.567 27.4968 831.652 Q27.4968 825.159 32.6531 821.117 Q37.8093 817.043 46.212 817.043 Q54.6147 817.043 59.771 821.117 Q64.9272 825.159 64.9272 831.652 Q64.9272 835.567 63.3994 838.4 Q61.8398 841.201 58.657 843.047 L64.0042 843.047 L64.0042 848.935 L14.479 848.935 L14.479 843.047 L33.7671 843.047 Z" fill="#000000" fill-rule="nonzero" fill-opacity="1" /><path clip-path="url(#clip780)" d="M28.3562 807.335 L28.3562 801.479 L64.0042 801.479 L64.0042 807.335 L28.3562 807.335 M14.479 807.335 L14.479 801.479 L21.895 801.479 L21.895 807.335 L14.479 807.335 Z" fill="#000000" fill-rule="nonzero" fill-opacity="1" /><path clip-path="url(#clip780)" d="M14.479 789.225 L14.479 783.369 L64.0042 783.369 L64.0042 789.225 L14.479 789.225 Z" fill="#000000" fill-rule="nonzero" fill-opacity="1" /><path clip-path="url(#clip780)" d="M28.3562 771.115 L28.3562 765.258 L64.0042 765.258 L64.0042 771.115 L28.3562 771.115 M14.479 771.115 L14.479 765.258 L21.895 765.258 L21.895 771.115 L14.479 771.115 Z" fill="#000000" fill-rule="nonzero" fill-opacity="1" /><path clip-path="url(#clip780)" d="M18.2347 747.211 L28.3562 747.211 L28.3562 735.148 L32.9077 735.148 L32.9077 747.211 L52.2594 747.211 Q56.6199 747.211 57.8613 746.034 Q59.1026 744.824 59.1026 741.164 L59.1026 735.148 L64.0042 735.148 L64.0042 741.164 Q64.0042 747.943 61.4897 750.521 Q58.9434 753.1 52.2594 753.1 L32.9077 753.1 L32.9077 757.396 L28.3562 757.396 L28.3562 753.1 L18.2347 753.1 L18.2347 747.211 Z" fill="#000000" fill-rule="nonzero" fill-opacity="1" /><path clip-path="url(#clip780)" d="M67.3143 712.614 Q73.68 715.096 75.6216 717.452 Q77.5631 719.807 77.5631 723.754 L77.5631 728.432 L72.6615 728.432 L72.6615 724.995 Q72.6615 722.576 71.5157 721.239 Q70.3699 719.902 66.1048 718.279 L63.4312 717.229 L28.3562 731.647 L28.3562 725.441 L56.238 714.301 L28.3562 703.161 L28.3562 696.954 L67.3143 712.614 Z" fill="#000000" fill-rule="nonzero" fill-opacity="1" /><path clip-path="url(#clip780)" d="M33.7671 644.692 L14.479 644.692 L14.479 638.835 L64.0042 638.835 L64.0042 644.692 L58.657 644.692 Q61.8398 646.538 63.3994 649.37 Q64.9272 652.171 64.9272 656.118 Q64.9272 662.579 59.771 666.653 Q54.6147 670.696 46.212 670.696 Q37.8093 670.696 32.6531 666.653 Q27.4968 662.579 27.4968 656.118 Q27.4968 652.171 29.0564 649.37 Q30.5842 646.538 33.7671 644.692 M46.212 664.648 Q52.6732 664.648 56.3653 662.006 Q60.0256 659.333 60.0256 654.686 Q60.0256 650.039 56.3653 647.365 Q52.6732 644.692 46.212 644.692 Q39.7508 644.692 36.0905 647.365 Q32.3984 650.039 32.3984 654.686 Q32.3984 659.333 36.0905 662.006 Q39.7508 664.648 46.212 664.648 Z" fill="#000000" fill-rule="nonzero" fill-opacity="1" /><path clip-path="url(#clip780)" d="M44.7161 596.28 L47.5806 596.28 L47.5806 623.207 Q53.6281 622.825 56.8109 619.579 Q59.9619 616.301 59.9619 610.476 Q59.9619 607.102 59.1344 603.951 Q58.3069 600.768 56.6518 597.649 L62.1899 597.649 Q63.5267 600.8 64.227 604.11 Q64.9272 607.42 64.9272 610.826 Q64.9272 619.356 59.9619 624.353 Q54.9967 629.318 46.5303 629.318 Q37.7774 629.318 32.6531 624.608 Q27.4968 619.865 27.4968 611.845 Q27.4968 604.651 32.1438 600.482 Q36.7589 596.28 44.7161 596.28 M42.9973 602.137 Q38.1912 602.201 35.3266 604.842 Q32.4621 607.452 32.4621 611.781 Q32.4621 616.683 35.2312 619.643 Q38.0002 622.571 43.0292 623.016 L42.9973 602.137 Z" fill="#000000" fill-rule="nonzero" fill-opacity="1" /><path clip-path="url(#clip780)" d="M42.4881 557.036 L64.0042 557.036 L64.0042 562.892 L42.679 562.892 Q37.6183 562.892 35.1038 564.866 Q32.5894 566.839 32.5894 570.786 Q32.5894 575.528 35.6131 578.265 Q38.6368 581.003 43.8567 581.003 L64.0042 581.003 L64.0042 586.891 L28.3562 586.891 L28.3562 581.003 L33.8944 581.003 Q30.6797 578.902 29.0883 576.069 Q27.4968 573.205 27.4968 569.481 Q27.4968 563.338 31.3163 560.187 Q35.1038 557.036 42.4881 557.036 Z" fill="#000000" fill-rule="nonzero" fill-opacity="1" /><path clip-path="url(#clip780)" d="M29.4065 522.629 L34.9447 522.629 Q33.6716 525.112 33.035 527.785 Q32.3984 530.459 32.3984 533.324 Q32.3984 537.684 33.7352 539.88 Q35.072 542.045 37.7456 542.045 Q39.7826 542.045 40.9603 540.485 Q42.1061 538.925 43.1565 534.215 L43.6021 532.21 Q44.9389 525.971 47.3897 523.361 Q49.8086 520.719 54.1691 520.719 Q59.1344 520.719 62.0308 524.666 Q64.9272 528.581 64.9272 535.456 Q64.9272 538.321 64.3543 541.44 Q63.8132 544.527 62.6992 547.965 L56.6518 547.965 Q58.3387 544.718 59.198 541.567 Q60.0256 538.416 60.0256 535.329 Q60.0256 531.191 58.6251 528.963 Q57.1929 526.735 54.6147 526.735 Q52.2276 526.735 50.9545 528.358 Q49.6813 529.95 48.5037 535.392 L48.0262 537.429 Q46.8804 542.872 44.5251 545.291 Q42.138 547.71 38.0002 547.71 Q32.9713 547.71 30.2341 544.145 Q27.4968 540.58 27.4968 534.024 Q27.4968 530.777 27.9743 527.913 Q28.4517 525.048 29.4065 522.629 Z" fill="#000000" fill-rule="nonzero" fill-opacity="1" /><path clip-path="url(#clip780)" d="M28.3562 511.394 L28.3562 505.537 L64.0042 505.537 L64.0042 511.394 L28.3562 511.394 M14.479 511.394 L14.479 505.537 L21.895 505.537 L21.895 511.394 L14.479 511.394 Z" fill="#000000" fill-rule="nonzero" fill-opacity="1" /><path clip-path="url(#clip780)" d="M18.2347 487.49 L28.3562 487.49 L28.3562 475.427 L32.9077 475.427 L32.9077 487.49 L52.2594 487.49 Q56.6199 487.49 57.8613 486.313 Q59.1026 485.103 59.1026 481.443 L59.1026 475.427 L64.0042 475.427 L64.0042 481.443 Q64.0042 488.223 61.4897 490.801 Q58.9434 493.379 52.2594 493.379 L32.9077 493.379 L32.9077 497.676 L28.3562 497.676 L28.3562 493.379 L18.2347 493.379 L18.2347 487.49 Z" fill="#000000" fill-rule="nonzero" fill-opacity="1" /><path clip-path="url(#clip780)" d="M67.3143 452.893 Q73.68 455.376 75.6216 457.731 Q77.5631 460.086 77.5631 464.033 L77.5631 468.712 L72.6615 468.712 L72.6615 465.274 Q72.6615 462.855 71.5157 461.518 Q70.3699 460.182 66.1048 458.558 L63.4312 457.508 L28.3562 471.926 L28.3562 465.72 L56.238 454.58 L28.3562 443.44 L28.3562 437.233 L67.3143 452.893 Z" fill="#000000" fill-rule="nonzero" fill-opacity="1" /><polyline clip-path="url(#clip782)" style="stroke:#009af9; stroke-linecap:round; stroke-linejoin:round; stroke-width:4; stroke-opacity:1; fill:none" points="264.778,1384.22 307.456,1384.22 371.471,1384.22 435.487,1384.23 456.825,1384.2 499.503,1384.19 520.841,1384.23 542.18,1384.23 563.518,1384.2 584.857,1384.18 627.534,1384.23 648.872,1384.19 670.211,1384.18 691.55,1384.18 712.888,1384.13 734.227,1384.17 755.565,1384.06 776.904,1384.21 798.242,1384.23 819.581,1384.21 840.919,1384.1 862.258,1384.04 883.597,1384.03 904.935,1383.91 926.274,1384.02 947.612,1383.86 968.951,1384.02 990.289,1384.08 1011.63,1383.91 1032.97,1383.9 1054.3,1383.81 1075.64,1383.53 1096.98,1383.66 1118.32,1383.83 1139.66,1383.6 1161,1383.6 1182.34,1383.18 1203.67,1383.55 1225.01,1383.56 1246.35,1382.97 1267.69,1382.77 1289.03,1382.68 1310.37,1382.89 1331.71,1382.49 1353.04,1382.57 1374.38,1382.05 1395.72,1381.96 1417.06,1381.28 1438.4,1381.12 1459.74,1381.03 1481.08,1379.68 1502.41,1378.99 1523.75,1378.39 1545.09,1377.14 1566.43,1375.46 1587.77,1373.76 1609.11,1370.45 1630.45,1372.92 1651.78,1371.35 1673.12,1369.87 1694.46,1370.53 1715.8,1368.25 1737.14,1366.2 1758.48,1366.15 1779.82,1364.95 1801.15,1362.83 1822.49,1362.84 1843.83,1363.19 1865.17,1359.54 1886.51,1357.97 1907.85,1354.95 1929.19,1353.35 1950.52,1353.16 1971.86,1350.29 1993.2,1347.06 2014.54,1309.23 2035.88,1198.5 2057.22,1208.26 2078.56,1200.79 2099.89,973.715 2121.23,86.1857 2142.57,474.53 2163.91,958.245 2185.25,1224.57 2206.59,1339.45 2227.93,1374.15 2249.26,1382.04 2270.6,1384 2291.94,1384.19 "/>
<polyline clip-path="url(#clip782)" style="stroke:#e26f46; stroke-linecap:round; stroke-linejoin:round; stroke-width:4; stroke-opacity:1; fill:none" points="264.778,1384.24 307.456,1384.24 371.471,1384.24 435.487,1384.24 456.825,1384.24 499.503,1384.24 520.841,1384.24 542.18,1384.24 563.518,1384.24 584.857,1384.24 627.534,1384.24 648.872,1384.24 670.211,1384.24 691.55,1384.24 712.888,1384.24 734.227,1384.24 755.565,1384.24 776.904,1384.24 798.242,1384.24 819.581,1384.24 840.919,1384.24 862.258,1384.24 883.597,1384.24 904.935,1384.24 926.274,1384.24 947.612,1384.24 968.951,1384.24 990.289,1384.24 1011.63,1384.24 1032.97,1384.24 1054.3,1384.24 1075.64,1384.24 1096.98,1384.24 1118.32,1384.24 1139.66,1384.24 1161,1384.24 1182.34,1384.24 1203.67,1384.24 1225.01,1384.24 1246.35,1384.24 1267.69,1384.24 1289.03,1384.24 1310.37,1384.24 1331.71,1384.24 1353.04,1384.24 1374.38,1384.24 1395.72,1384.24 1417.06,1384.24 1438.4,1384.24 1459.74,1384.24 1481.08,1384.24 1502.41,1384.24 1523.75,1384.24 1545.09,1384.24 1566.43,1384.24 1587.77,1384.24 1609.11,1384.24 1630.45,1384.24 1651.78,1384.24 1673.12,1384.24 1694.46,1384.24 1715.8,1384.24 1737.14,1384.24 1758.48,1384.24 1779.82,1384.24 1801.15,1384.24 1822.49,1384.24 1843.83,1384.23 1865.17,1384.22 1886.51,1384.2 1907.85,1384.14 1929.19,1383.98 1950.52,1383.57 1971.86,1382.51 1993.2,1379.81 2014.54,1372.86 2035.88,1355.04 2057.22,1309.3 2078.56,1191.87 2099.89,890.424 2121.23,116.639 2142.57,469.789 2163.91,992.226 2185.25,1216.19 2206.59,1312.2 2227.93,1353.36 2249.26,1371 2270.6,1378.56 2291.94,1381.81 "/>
<path clip-path="url(#clip780)" d="M275.59 248.629 L824.773 248.629 L824.773 93.1086 L275.59 93.1086  Z" fill="#ffffff" fill-rule="evenodd" fill-opacity="1"/>
<polyline clip-path="url(#clip780)" style="stroke:#ffffff; stroke-linecap:round; stroke-linejoin:round; stroke-width:4; stroke-opacity:1; fill:none" points="275.59,248.629 824.773,248.629 824.773,93.1086 275.59,93.1086 275.59,248.629 "/>
<polyline clip-path="url(#clip780)" style="stroke:#009af9; stroke-linecap:round; stroke-linejoin:round; stroke-width:4; stroke-opacity:1; fill:none" points="299.465,144.949 442.718,144.949 "/>
<path clip-path="url(#clip780)" d="M466.594 127.669 L471.27 127.669 L471.27 141.835 L488.26 141.835 L488.26 127.669 L492.936 127.669 L492.936 162.229 L488.26 162.229 L488.26 145.77 L471.27 145.77 L471.27 162.229 L466.594 162.229 L466.594 127.669 Z" fill="#000000" fill-rule="nonzero" fill-opacity="1" /><path clip-path="url(#clip780)" d="M502.057 136.303 L506.316 136.303 L506.316 162.229 L502.057 162.229 L502.057 136.303 M502.057 126.21 L506.316 126.21 L506.316 131.604 L502.057 131.604 L502.057 126.21 Z" fill="#000000" fill-rule="nonzero" fill-opacity="1" /><path clip-path="url(#clip780)" d="M531.755 137.067 L531.755 141.094 Q529.95 140.169 528.005 139.706 Q526.061 139.243 523.978 139.243 Q520.806 139.243 519.209 140.215 Q517.635 141.187 517.635 143.131 Q517.635 144.613 518.769 145.469 Q519.904 146.303 523.33 147.067 L524.788 147.391 Q529.325 148.363 531.223 150.145 Q533.144 151.905 533.144 155.076 Q533.144 158.687 530.274 160.793 Q527.427 162.9 522.427 162.9 Q520.343 162.9 518.075 162.483 Q515.83 162.09 513.33 161.28 L513.33 156.881 Q515.691 158.108 517.982 158.733 Q520.274 159.335 522.519 159.335 Q525.529 159.335 527.149 158.317 Q528.769 157.275 528.769 155.4 Q528.769 153.664 527.589 152.738 Q526.431 151.812 522.473 150.956 L520.992 150.608 Q517.033 149.775 515.274 148.062 Q513.515 146.326 513.515 143.317 Q513.515 139.659 516.107 137.669 Q518.7 135.678 523.468 135.678 Q525.83 135.678 527.913 136.025 Q529.996 136.372 531.755 137.067 Z" fill="#000000" fill-rule="nonzero" fill-opacity="1" /><path clip-path="url(#clip780)" d="M544.14 128.942 L544.14 136.303 L552.913 136.303 L552.913 139.613 L544.14 139.613 L544.14 153.687 Q544.14 156.858 544.996 157.761 Q545.876 158.664 548.538 158.664 L552.913 158.664 L552.913 162.229 L548.538 162.229 Q543.607 162.229 541.732 160.4 Q539.857 158.548 539.857 153.687 L539.857 139.613 L536.732 139.613 L536.732 136.303 L539.857 136.303 L539.857 128.942 L544.14 128.942 Z" fill="#000000" fill-rule="nonzero" fill-opacity="1" /><path clip-path="url(#clip780)" d="M568.561 139.289 Q565.135 139.289 563.144 141.974 Q561.153 144.636 561.153 149.289 Q561.153 153.942 563.121 156.627 Q565.112 159.289 568.561 159.289 Q571.964 159.289 573.954 156.604 Q575.945 153.918 575.945 149.289 Q575.945 144.682 573.954 141.997 Q571.964 139.289 568.561 139.289 M568.561 135.678 Q574.116 135.678 577.288 139.289 Q580.459 142.9 580.459 149.289 Q580.459 155.655 577.288 159.289 Q574.116 162.9 568.561 162.9 Q562.982 162.9 559.811 159.289 Q556.663 155.655 556.663 149.289 Q556.663 142.9 559.811 139.289 Q562.982 135.678 568.561 135.678 Z" fill="#000000" fill-rule="nonzero" fill-opacity="1" /><path clip-path="url(#clip780)" d="M604.579 148.965 Q604.579 144.335 602.658 141.789 Q600.76 139.243 597.311 139.243 Q593.885 139.243 591.963 141.789 Q590.065 144.335 590.065 148.965 Q590.065 153.571 591.963 156.118 Q593.885 158.664 597.311 158.664 Q600.76 158.664 602.658 156.118 Q604.579 153.571 604.579 148.965 M608.838 159.011 Q608.838 165.631 605.899 168.849 Q602.959 172.09 596.894 172.09 Q594.649 172.09 592.658 171.742 Q590.667 171.418 588.792 170.724 L588.792 166.58 Q590.667 167.599 592.496 168.085 Q594.325 168.571 596.223 168.571 Q600.412 168.571 602.496 166.372 Q604.579 164.196 604.579 159.775 L604.579 157.668 Q603.26 159.96 601.2 161.094 Q599.139 162.229 596.269 162.229 Q591.5 162.229 588.584 158.594 Q585.667 154.96 585.667 148.965 Q585.667 142.946 588.584 139.312 Q591.5 135.678 596.269 135.678 Q599.139 135.678 601.2 136.812 Q603.26 137.946 604.579 140.238 L604.579 136.303 L608.838 136.303 L608.838 159.011 Z" fill="#000000" fill-rule="nonzero" fill-opacity="1" /><path clip-path="url(#clip780)" d="M632.635 140.284 Q631.917 139.868 631.06 139.682 Q630.227 139.474 629.209 139.474 Q625.598 139.474 623.653 141.835 Q621.732 144.173 621.732 148.571 L621.732 162.229 L617.449 162.229 L617.449 136.303 L621.732 136.303 L621.732 140.331 Q623.074 137.969 625.227 136.835 Q627.38 135.678 630.459 135.678 Q630.898 135.678 631.431 135.747 Q631.963 135.794 632.611 135.909 L632.635 140.284 Z" fill="#000000" fill-rule="nonzero" fill-opacity="1" /><path clip-path="url(#clip780)" d="M648.884 149.196 Q643.722 149.196 641.732 150.377 Q639.741 151.557 639.741 154.405 Q639.741 156.673 641.222 158.016 Q642.727 159.335 645.296 159.335 Q648.838 159.335 650.968 156.835 Q653.121 154.312 653.121 150.145 L653.121 149.196 L648.884 149.196 M657.38 147.437 L657.38 162.229 L653.121 162.229 L653.121 158.293 Q651.662 160.655 649.486 161.789 Q647.31 162.9 644.162 162.9 Q640.181 162.9 637.82 160.678 Q635.482 158.432 635.482 154.682 Q635.482 150.307 638.398 148.085 Q641.338 145.863 647.148 145.863 L653.121 145.863 L653.121 145.446 Q653.121 142.507 651.176 140.909 Q649.255 139.289 645.759 139.289 Q643.537 139.289 641.431 139.821 Q639.324 140.354 637.38 141.419 L637.38 137.483 Q639.718 136.581 641.917 136.141 Q644.116 135.678 646.199 135.678 Q651.824 135.678 654.602 138.594 Q657.38 141.511 657.38 147.437 Z" fill="#000000" fill-rule="nonzero" fill-opacity="1" /><path clip-path="url(#clip780)" d="M686.338 141.28 Q687.935 138.409 690.157 137.044 Q692.38 135.678 695.389 135.678 Q699.44 135.678 701.639 138.525 Q703.838 141.349 703.838 146.581 L703.838 162.229 L699.555 162.229 L699.555 146.719 Q699.555 142.993 698.236 141.187 Q696.917 139.382 694.208 139.382 Q690.898 139.382 688.977 141.581 Q687.056 143.78 687.056 147.576 L687.056 162.229 L682.773 162.229 L682.773 146.719 Q682.773 142.969 681.454 141.187 Q680.134 139.382 677.38 139.382 Q674.116 139.382 672.194 141.604 Q670.273 143.803 670.273 147.576 L670.273 162.229 L665.991 162.229 L665.991 136.303 L670.273 136.303 L670.273 140.331 Q671.732 137.946 673.769 136.812 Q675.806 135.678 678.607 135.678 Q681.431 135.678 683.398 137.113 Q685.389 138.548 686.338 141.28 Z" fill="#000000" fill-rule="nonzero" fill-opacity="1" /><polyline clip-path="url(#clip780)" style="stroke:#e26f46; stroke-linecap:round; stroke-linejoin:round; stroke-width:4; stroke-opacity:1; fill:none" points="299.465,196.789 442.718,196.789 "/>
<path clip-path="url(#clip780)" d="M471.27 183.351 L471.27 210.226 L476.918 210.226 Q484.071 210.226 487.381 206.985 Q490.714 203.745 490.714 196.754 Q490.714 189.809 487.381 186.592 Q484.071 183.351 476.918 183.351 L471.27 183.351 M466.594 179.509 L476.2 179.509 Q486.246 179.509 490.945 183.698 Q495.645 187.865 495.645 196.754 Q495.645 205.689 490.922 209.879 Q486.2 214.069 476.2 214.069 L466.594 214.069 L466.594 179.509 Z" fill="#000000" fill-rule="nonzero" fill-opacity="1" /><path clip-path="url(#clip780)" d="M502.913 188.143 L507.172 188.143 L507.172 214.069 L502.913 214.069 L502.913 188.143 M502.913 178.05 L507.172 178.05 L507.172 183.444 L502.913 183.444 L502.913 178.05 Z" fill="#000000" fill-rule="nonzero" fill-opacity="1" /><path clip-path="url(#clip780)" d="M532.612 188.907 L532.612 192.934 Q530.806 192.009 528.862 191.546 Q526.917 191.083 524.834 191.083 Q521.663 191.083 520.066 192.055 Q518.492 193.027 518.492 194.971 Q518.492 196.453 519.626 197.309 Q520.76 198.143 524.186 198.907 L525.644 199.231 Q530.181 200.203 532.08 201.985 Q534.001 203.745 534.001 206.916 Q534.001 210.527 531.13 212.633 Q528.283 214.74 523.283 214.74 Q521.2 214.74 518.931 214.323 Q516.686 213.93 514.186 213.12 L514.186 208.721 Q516.547 209.948 518.839 210.573 Q521.13 211.175 523.376 211.175 Q526.385 211.175 528.005 210.157 Q529.626 209.115 529.626 207.24 Q529.626 205.504 528.445 204.578 Q527.288 203.652 523.33 202.796 L521.848 202.448 Q517.89 201.615 516.131 199.902 Q514.371 198.166 514.371 195.157 Q514.371 191.499 516.964 189.509 Q519.556 187.518 524.325 187.518 Q526.686 187.518 528.769 187.865 Q530.853 188.212 532.612 188.907 Z" fill="#000000" fill-rule="nonzero" fill-opacity="1" /><path clip-path="url(#clip780)" d="M544.996 180.782 L544.996 188.143 L553.769 188.143 L553.769 191.453 L544.996 191.453 L544.996 205.527 Q544.996 208.698 545.853 209.601 Q546.732 210.504 549.394 210.504 L553.769 210.504 L553.769 214.069 L549.394 214.069 Q544.464 214.069 542.589 212.24 Q540.714 210.388 540.714 205.527 L540.714 191.453 L537.589 191.453 L537.589 188.143 L540.714 188.143 L540.714 180.782 L544.996 180.782 Z" fill="#000000" fill-rule="nonzero" fill-opacity="1" /><path clip-path="url(#clip780)" d="M574.394 192.124 Q573.677 191.708 572.82 191.522 Q571.987 191.314 570.968 191.314 Q567.357 191.314 565.413 193.675 Q563.491 196.013 563.491 200.411 L563.491 214.069 L559.209 214.069 L559.209 188.143 L563.491 188.143 L563.491 192.171 Q564.834 189.809 566.987 188.675 Q569.139 187.518 572.218 187.518 Q572.658 187.518 573.19 187.587 Q573.723 187.634 574.371 187.749 L574.394 192.124 Z" fill="#000000" fill-rule="nonzero" fill-opacity="1" /><path clip-path="url(#clip780)" d="M578.862 188.143 L583.121 188.143 L583.121 214.069 L578.862 214.069 L578.862 188.143 M578.862 178.05 L583.121 178.05 L583.121 183.444 L578.862 183.444 L578.862 178.05 Z" fill="#000000" fill-rule="nonzero" fill-opacity="1" /><path clip-path="url(#clip780)" d="M610.644 201.129 Q610.644 196.43 608.699 193.768 Q606.778 191.083 603.399 191.083 Q600.019 191.083 598.075 193.768 Q596.153 196.43 596.153 201.129 Q596.153 205.828 598.075 208.513 Q600.019 211.175 603.399 211.175 Q606.778 211.175 608.699 208.513 Q610.644 205.828 610.644 201.129 M596.153 192.078 Q597.496 189.763 599.533 188.652 Q601.593 187.518 604.44 187.518 Q609.162 187.518 612.102 191.268 Q615.065 195.018 615.065 201.129 Q615.065 207.24 612.102 210.99 Q609.162 214.74 604.44 214.74 Q601.593 214.74 599.533 213.629 Q597.496 212.495 596.153 210.18 L596.153 214.069 L591.871 214.069 L591.871 178.05 L596.153 178.05 L596.153 192.078 Z" fill="#000000" fill-rule="nonzero" fill-opacity="1" /><path clip-path="url(#clip780)" d="M621.686 203.837 L621.686 188.143 L625.945 188.143 L625.945 203.675 Q625.945 207.356 627.38 209.208 Q628.815 211.036 631.685 211.036 Q635.135 211.036 637.125 208.837 Q639.139 206.638 639.139 202.842 L639.139 188.143 L643.398 188.143 L643.398 214.069 L639.139 214.069 L639.139 210.087 Q637.588 212.448 635.528 213.606 Q633.491 214.74 630.783 214.74 Q626.315 214.74 624 211.962 Q621.686 209.184 621.686 203.837 M632.403 187.518 L632.403 187.518 Z" fill="#000000" fill-rule="nonzero" fill-opacity="1" /><path clip-path="url(#clip780)" d="M656.384 180.782 L656.384 188.143 L665.157 188.143 L665.157 191.453 L656.384 191.453 L656.384 205.527 Q656.384 208.698 657.241 209.601 Q658.12 210.504 660.783 210.504 L665.157 210.504 L665.157 214.069 L660.783 214.069 Q655.852 214.069 653.977 212.24 Q652.102 210.388 652.102 205.527 L652.102 191.453 L648.977 191.453 L648.977 188.143 L652.102 188.143 L652.102 180.782 L656.384 180.782 Z" fill="#000000" fill-rule="nonzero" fill-opacity="1" /><path clip-path="url(#clip780)" d="M670.759 188.143 L675.019 188.143 L675.019 214.069 L670.759 214.069 L670.759 188.143 M670.759 178.05 L675.019 178.05 L675.019 183.444 L670.759 183.444 L670.759 178.05 Z" fill="#000000" fill-rule="nonzero" fill-opacity="1" /><path clip-path="url(#clip780)" d="M693.977 191.129 Q690.551 191.129 688.56 193.814 Q686.569 196.476 686.569 201.129 Q686.569 205.782 688.537 208.467 Q690.528 211.129 693.977 211.129 Q697.38 211.129 699.37 208.444 Q701.361 205.758 701.361 201.129 Q701.361 196.522 699.37 193.837 Q697.38 191.129 693.977 191.129 M693.977 187.518 Q699.532 187.518 702.704 191.129 Q705.875 194.74 705.875 201.129 Q705.875 207.495 702.704 211.129 Q699.532 214.74 693.977 214.74 Q688.398 214.74 685.227 211.129 Q682.079 207.495 682.079 201.129 Q682.079 194.74 685.227 191.129 Q688.398 187.518 693.977 187.518 Z" fill="#000000" fill-rule="nonzero" fill-opacity="1" /><path clip-path="url(#clip780)" d="M734.486 198.421 L734.486 214.069 L730.227 214.069 L730.227 198.559 Q730.227 194.879 728.791 193.05 Q727.356 191.222 724.486 191.222 Q721.037 191.222 719.046 193.421 Q717.055 195.62 717.055 199.416 L717.055 214.069 L712.773 214.069 L712.773 188.143 L717.055 188.143 L717.055 192.171 Q718.583 189.833 720.643 188.675 Q722.727 187.518 725.435 187.518 Q729.903 187.518 732.194 190.296 Q734.486 193.05 734.486 198.421 Z" fill="#000000" fill-rule="nonzero" fill-opacity="1" /><path clip-path="url(#clip780)" d="M771.175 178.05 L771.175 181.592 L767.101 181.592 Q764.81 181.592 763.907 182.518 Q763.027 183.444 763.027 185.851 L763.027 188.143 L770.041 188.143 L770.041 191.453 L763.027 191.453 L763.027 214.069 L758.745 214.069 L758.745 191.453 L754.671 191.453 L754.671 188.143 L758.745 188.143 L758.745 186.337 Q758.745 182.009 760.759 180.041 Q762.773 178.05 767.148 178.05 L771.175 178.05 Z" fill="#000000" fill-rule="nonzero" fill-opacity="1" /><path clip-path="url(#clip780)" d="M774.74 188.143 L778.999 188.143 L778.999 214.069 L774.74 214.069 L774.74 188.143 M774.74 178.05 L778.999 178.05 L778.999 183.444 L774.74 183.444 L774.74 178.05 Z" fill="#000000" fill-rule="nonzero" fill-opacity="1" /><path clip-path="url(#clip780)" d="M792.124 180.782 L792.124 188.143 L800.898 188.143 L800.898 191.453 L792.124 191.453 L792.124 205.527 Q792.124 208.698 792.981 209.601 Q793.861 210.504 796.523 210.504 L800.898 210.504 L800.898 214.069 L796.523 214.069 Q791.592 214.069 789.717 212.24 Q787.842 210.388 787.842 205.527 L787.842 191.453 L784.717 191.453 L784.717 188.143 L787.842 188.143 L787.842 180.782 L792.124 180.782 Z" fill="#000000" fill-rule="nonzero" fill-opacity="1" /></svg>
