<?xml version="1.0" encoding="utf-8"?>
<svg xmlns="http://www.w3.org/2000/svg" xmlns:xlink="http://www.w3.org/1999/xlink" width="600" height="400" viewBox="0 0 2400 1600">
<defs>
  <clipPath id="clip240">
    <rect x="0" y="0" width="2400" height="1600"/>
  </clipPath>
</defs>
<path clip-path="url(#clip240)" d="M0 1600 L2400 1600 L2400 8.88178e-14 L0 8.88178e-14  Z" fill="#ffffff" fill-rule="evenodd" fill-opacity="1"/>
<defs>
  <clipPath id="clip241">
    <rect x="480" y="0" width="1681" height="1600"/>
  </clipPath>
</defs>
<path clip-path="url(#clip240)" d="M249.843 1552.76 L2352.76 1552.76 L2352.76 47.2441 L249.843 47.2441  Z" fill="#ffffff" fill-rule="evenodd" fill-opacity="1"/>
<defs>
  <clipPath id="clip242">
    <rect x="249" y="47" width="2104" height="1507"/>
  </clipPath>
</defs>
<polyline clip-path="url(#clip242)" style="stroke:#000000; stroke-linecap:round; stroke-linejoin:round; stroke-width:2; stroke-opacity:0.1; fill:none" points="249.843,1391.79 2352.76,1391.79 "/>
<polyline clip-path="url(#clip242)" style="stroke:#000000; stroke-linecap:round; stroke-linejoin:round; stroke-width:2; stroke-opacity:0.1; fill:none" points="249.843,1222.71 2352.76,1222.71 "/>
<polyline clip-path="url(#clip242)" style="stroke:#000000; stroke-linecap:round; stroke-linejoin:round; stroke-width:2; stroke-opacity:0.1; fill:none" points="249.843,1053.62 2352.76,1053.62 "/>
<polyline clip-path="url(#clip242)" style="stroke:#000000; stroke-linecap:round; stroke-linejoin:round; stroke-width:2; stroke-opacity:0.1; fill:none" points="249.843,884.541 2352.76,884.541 "/>
<polyline clip-path="url(#clip242)" style="stroke:#000000; stroke-linecap:round; stroke-linejoin:round; stroke-width:2; stroke-opacity:0.1; fill:none" points="249.843,715.459 2352.76,715.459 "/>
<polyline clip-path="url(#clip242)" style="stroke:#000000; stroke-linecap:round; stroke-linejoin:round; stroke-width:2; stroke-opacity:0.1; fill:none" points="249.843,546.376 2352.76,546.376 "/>
<polyline clip-path="url(#clip242)" style="stroke:#000000; stroke-linecap:round; stroke-linejoin:round; stroke-width:2; stroke-opacity:0.1; fill:none" points="249.843,377.293 2352.76,377.293 "/>
<polyline clip-path="url(#clip242)" style="stroke:#000000; stroke-linecap:round; stroke-linejoin:round; stroke-width:2; stroke-opacity:0.1; fill:none" points="249.843,208.211 2352.76,208.211 "/>
<polyline clip-path="url(#clip242)" style="stroke:#000000; stroke-linecap:round; stroke-linejoin:round; stroke-width:2; stroke-opacity:0.1; fill:none" points="249.843,1391.79 2352.76,1391.79 "/>
<polyline clip-path="url(#clip242)" style="stroke:#000000; stroke-linecap:round; stroke-linejoin:round; stroke-width:2; stroke-opacity:0.1; fill:none" points="249.843,1222.71 2352.76,1222.71 "/>
<polyline clip-path="url(#clip242)" style="stroke:#000000; stroke-linecap:round; stroke-linejoin:round; stroke-width:2; stroke-opacity:0.1; fill:none" points="249.843,1053.62 2352.76,1053.62 "/>
<polyline clip-path="url(#clip242)" style="stroke:#000000; stroke-linecap:round; stroke-linejoin:round; stroke-width:2; stroke-opacity:0.1; fill:none" points="249.843,884.541 2352.76,884.541 "/>
<polyline clip-path="url(#clip242)" style="stroke:#000000; stroke-linecap:round; stroke-linejoin:round; stroke-width:2; stroke-opacity:0.1; fill:none" points="249.843,715.459 2352.76,715.459 "/>
<polyline clip-path="url(#clip242)" style="stroke:#000000; stroke-linecap:round; stroke-linejoin:round; stroke-width:2; stroke-opacity:0.1; fill:none" points="249.843,546.376 2352.76,546.376 "/>
<polyline clip-path="url(#clip242)" style="stroke:#000000; stroke-linecap:round; stroke-linejoin:round; stroke-width:2; stroke-opacity:0.1; fill:none" points="249.843,377.293 2352.76,377.293 "/>
<polyline clip-path="url(#clip242)" style="stroke:#000000; stroke-linecap:round; stroke-linejoin:round; stroke-width:2; stroke-opacity:0.1; fill:none" points="249.843,208.211 2352.76,208.211 "/>
<polyline clip-path="url(#clip240)" style="stroke:#000000; stroke-linecap:round; stroke-linejoin:round; stroke-width:4; stroke-opacity:1; fill:none" points="249.843,1552.76 2352.76,1552.76 "/>
<polyline clip-path="url(#clip240)" style="stroke:#000000; stroke-linecap:round; stroke-linejoin:round; stroke-width:4; stroke-opacity:1; fill:none" points="249.843,47.2441 2352.76,47.2441 "/>
<polyline clip-path="url(#clip240)" style="stroke:#000000; stroke-linecap:round; stroke-linejoin:round; stroke-width:4; stroke-opacity:1; fill:none" points="249.843,1552.76 249.843,47.2441 "/>
<polyline clip-path="url(#clip240)" style="stroke:#000000; stroke-linecap:round; stroke-linejoin:round; stroke-width:4; stroke-opacity:1; fill:none" points="2352.76,1552.76 2352.76,47.2441 "/>
<polyline clip-path="url(#clip240)" style="stroke:#000000; stroke-linecap:round; stroke-linejoin:round; stroke-width:4; stroke-opacity:1; fill:none" points="249.843,1391.79 268.741,1391.79 "/>
<polyline clip-path="url(#clip240)" style="stroke:#000000; stroke-linecap:round; stroke-linejoin:round; stroke-width:4; stroke-opacity:1; fill:none" points="249.843,1222.71 268.741,1222.71 "/>
<polyline clip-path="url(#clip240)" style="stroke:#000000; stroke-linecap:round; stroke-linejoin:round; stroke-width:4; stroke-opacity:1; fill:none" points="249.843,1053.62 268.741,1053.62 "/>
<polyline clip-path="url(#clip240)" style="stroke:#000000; stroke-linecap:round; stroke-linejoin:round; stroke-width:4; stroke-opacity:1; fill:none" points="249.843,884.541 268.741,884.541 "/>
<polyline clip-path="url(#clip240)" style="stroke:#000000; stroke-linecap:round; stroke-linejoin:round; stroke-width:4; stroke-opacity:1; fill:none" points="249.843,715.459 268.741,715.459 "/>
<polyline clip-path="url(#clip240)" style="stroke:#000000; stroke-linecap:round; stroke-linejoin:round; stroke-width:4; stroke-opacity:1; fill:none" points="249.843,546.376 268.741,546.376 "/>
<polyline clip-path="url(#clip240)" style="stroke:#000000; stroke-linecap:round; stroke-linejoin:round; stroke-width:4; stroke-opacity:1; fill:none" points="249.843,377.293 268.741,377.293 "/>
<polyline clip-path="url(#clip240)" style="stroke:#000000; stroke-linecap:round; stroke-linejoin:round; stroke-width:4; stroke-opacity:1; fill:none" points="249.843,208.211 268.741,208.211 "/>
<polyline clip-path="url(#clip240)" style="stroke:#000000; stroke-linecap:round; stroke-linejoin:round; stroke-width:4; stroke-opacity:1; fill:none" points="2352.76,1391.79 2333.86,1391.79 "/>
<polyline clip-path="url(#clip240)" style="stroke:#000000; stroke-linecap:round; stroke-linejoin:round; stroke-width:4; stroke-opacity:1; fill:none" points="2352.76,1222.71 2333.86,1222.71 "/>
<polyline clip-path="url(#clip240)" style="stroke:#000000; stroke-linecap:round; stroke-linejoin:round; stroke-width:4; stroke-opacity:1; fill:none" points="2352.76,1053.62 2333.86,1053.62 "/>
<polyline clip-path="url(#clip240)" style="stroke:#000000; stroke-linecap:round; stroke-linejoin:round; stroke-width:4; stroke-opacity:1; fill:none" points="2352.76,884.541 2333.86,884.541 "/>
<polyline clip-path="url(#clip240)" style="stroke:#000000; stroke-linecap:round; stroke-linejoin:round; stroke-width:4; stroke-opacity:1; fill:none" points="2352.76,715.459 2333.86,715.459 "/>
<polyline clip-path="url(#clip240)" style="stroke:#000000; stroke-linecap:round; stroke-linejoin:round; stroke-width:4; stroke-opacity:1; fill:none" points="2352.76,546.376 2333.86,546.376 "/>
<polyline clip-path="url(#clip240)" style="stroke:#000000; stroke-linecap:round; stroke-linejoin:round; stroke-width:4; stroke-opacity:1; fill:none" points="2352.76,377.293 2333.86,377.293 "/>
<polyline clip-path="url(#clip240)" style="stroke:#000000; stroke-linecap:round; stroke-linejoin:round; stroke-width:4; stroke-opacity:1; fill:none" points="2352.76,208.211 2333.86,208.211 "/>
<path clip-path="url(#clip240)" d="M128.681 1389.93 Q125.533 1389.93 123.681 1392.08 Q121.853 1394.23 121.853 1397.98 Q121.853 1401.71 123.681 1403.88 Q125.533 1406.04 128.681 1406.04 Q131.83 1406.04 133.658 1403.88 Q135.51 1401.71 135.51 1397.98 Q135.51 1394.23 133.658 1392.08 Q131.83 1389.93 128.681 1389.93 M137.964 1375.27 L137.964 1379.53 Q136.204 1378.7 134.399 1378.26 Q132.617 1377.82 130.857 1377.82 Q126.228 1377.82 123.774 1380.94 Q121.343 1384.07 120.996 1390.39 Q122.362 1388.37 124.422 1387.31 Q126.482 1386.22 128.959 1386.22 Q134.167 1386.22 137.177 1389.39 Q140.209 1392.54 140.209 1397.98 Q140.209 1403.31 137.061 1406.52 Q133.913 1409.74 128.681 1409.74 Q122.686 1409.74 119.515 1405.16 Q116.343 1400.55 116.343 1391.82 Q116.343 1383.63 120.232 1378.77 Q124.121 1373.88 130.672 1373.88 Q132.431 1373.88 134.214 1374.23 Q136.019 1374.58 137.964 1375.27 Z" fill="#000000" fill-rule="nonzero" fill-opacity="1" /><path clip-path="url(#clip240)" d="M148.311 1374.51 L166.667 1374.51 L166.667 1378.44 L152.593 1378.44 L152.593 1386.92 Q153.612 1386.57 154.63 1386.41 Q155.649 1386.22 156.667 1386.22 Q162.454 1386.22 165.834 1389.39 Q169.214 1392.56 169.214 1397.98 Q169.214 1403.56 165.741 1406.66 Q162.269 1409.74 155.95 1409.74 Q153.774 1409.74 151.505 1409.37 Q149.26 1409 146.853 1408.26 L146.853 1403.56 Q148.936 1404.69 151.158 1405.25 Q153.38 1405.81 155.857 1405.81 Q159.862 1405.81 162.2 1403.7 Q164.538 1401.59 164.538 1397.98 Q164.538 1394.37 162.2 1392.26 Q159.862 1390.16 155.857 1390.16 Q153.982 1390.16 152.107 1390.57 Q150.255 1390.99 148.311 1391.87 L148.311 1374.51 Z" fill="#000000" fill-rule="nonzero" fill-opacity="1" /><path clip-path="url(#clip240)" d="M178.426 1403.19 L183.311 1403.19 L183.311 1409.07 L178.426 1409.07 L178.426 1403.19 Z" fill="#000000" fill-rule="nonzero" fill-opacity="1" /><path clip-path="url(#clip240)" d="M197.524 1405.13 L213.843 1405.13 L213.843 1409.07 L191.899 1409.07 L191.899 1405.13 Q194.561 1402.38 199.144 1397.75 Q203.75 1393.1 204.931 1391.75 Q207.176 1389.23 208.056 1387.5 Q208.959 1385.74 208.959 1384.05 Q208.959 1381.29 207.014 1379.56 Q205.093 1377.82 201.991 1377.82 Q199.792 1377.82 197.338 1378.58 Q194.908 1379.35 192.13 1380.9 L192.13 1376.18 Q194.954 1375.04 197.408 1374.46 Q199.862 1373.88 201.899 1373.88 Q207.269 1373.88 210.463 1376.57 Q213.658 1379.25 213.658 1383.75 Q213.658 1385.87 212.848 1387.8 Q212.061 1389.69 209.954 1392.29 Q209.375 1392.96 206.274 1396.18 Q203.172 1399.37 197.524 1405.13 Z" fill="#000000" fill-rule="nonzero" fill-opacity="1" /><path clip-path="url(#clip240)" d="M126.598 1220.84 Q123.45 1220.84 121.598 1223 Q119.769 1225.15 119.769 1228.9 Q119.769 1232.63 121.598 1234.8 Q123.45 1236.95 126.598 1236.95 Q129.746 1236.95 131.575 1234.8 Q133.427 1232.63 133.427 1228.9 Q133.427 1225.15 131.575 1223 Q129.746 1220.84 126.598 1220.84 M135.88 1206.19 L135.88 1210.45 Q134.121 1209.62 132.316 1209.18 Q130.533 1208.74 128.774 1208.74 Q124.144 1208.74 121.691 1211.86 Q119.26 1214.99 118.913 1221.31 Q120.279 1219.29 122.339 1218.23 Q124.399 1217.14 126.876 1217.14 Q132.084 1217.14 135.093 1220.31 Q138.126 1223.46 138.126 1228.9 Q138.126 1234.22 134.978 1237.44 Q131.83 1240.66 126.598 1240.66 Q120.603 1240.66 117.431 1236.07 Q114.26 1231.47 114.26 1222.74 Q114.26 1214.55 118.149 1209.69 Q122.038 1204.8 128.589 1204.8 Q130.348 1204.8 132.13 1205.15 Q133.936 1205.5 135.88 1206.19 Z" fill="#000000" fill-rule="nonzero" fill-opacity="1" /><path clip-path="url(#clip240)" d="M146.228 1205.43 L164.584 1205.43 L164.584 1209.36 L150.51 1209.36 L150.51 1217.83 Q151.528 1217.49 152.547 1217.32 Q153.566 1217.14 154.584 1217.14 Q160.371 1217.14 163.751 1220.31 Q167.13 1223.48 167.13 1228.9 Q167.13 1234.48 163.658 1237.58 Q160.186 1240.66 153.866 1240.66 Q151.691 1240.66 149.422 1240.29 Q147.177 1239.92 144.769 1239.18 L144.769 1234.48 Q146.853 1235.61 149.075 1236.17 Q151.297 1236.72 153.774 1236.72 Q157.778 1236.72 160.116 1234.62 Q162.454 1232.51 162.454 1228.9 Q162.454 1225.29 160.116 1223.18 Q157.778 1221.07 153.774 1221.07 Q151.899 1221.07 150.024 1221.49 Q148.172 1221.91 146.228 1222.79 L146.228 1205.43 Z" fill="#000000" fill-rule="nonzero" fill-opacity="1" /><path clip-path="url(#clip240)" d="M176.343 1234.11 L181.227 1234.11 L181.227 1239.99 L176.343 1239.99 L176.343 1234.11 Z" fill="#000000" fill-rule="nonzero" fill-opacity="1" /><path clip-path="url(#clip240)" d="M204.26 1209.5 L192.454 1227.95 L204.26 1227.95 L204.26 1209.5 M203.033 1205.43 L208.912 1205.43 L208.912 1227.95 L213.843 1227.95 L213.843 1231.84 L208.912 1231.84 L208.912 1239.99 L204.26 1239.99 L204.26 1231.84 L188.658 1231.84 L188.658 1227.32 L203.033 1205.43 Z" fill="#000000" fill-rule="nonzero" fill-opacity="1" /><path clip-path="url(#clip240)" d="M126.922 1051.76 Q123.774 1051.76 121.922 1053.91 Q120.093 1056.07 120.093 1059.82 Q120.093 1063.54 121.922 1065.72 Q123.774 1067.87 126.922 1067.87 Q130.07 1067.87 131.899 1065.72 Q133.751 1063.54 133.751 1059.82 Q133.751 1056.07 131.899 1053.91 Q130.07 1051.76 126.922 1051.76 M136.204 1037.11 L136.204 1041.37 Q134.445 1040.53 132.64 1040.09 Q130.857 1039.65 129.098 1039.65 Q124.468 1039.65 122.015 1042.78 Q119.584 1045.9 119.237 1052.22 Q120.603 1050.21 122.663 1049.14 Q124.723 1048.06 127.2 1048.06 Q132.408 1048.06 135.417 1051.23 Q138.45 1054.38 138.45 1059.82 Q138.45 1065.14 135.302 1068.36 Q132.154 1071.58 126.922 1071.58 Q120.927 1071.58 117.756 1066.99 Q114.584 1062.39 114.584 1053.66 Q114.584 1045.46 118.473 1040.6 Q122.362 1035.72 128.913 1035.72 Q130.672 1035.72 132.455 1036.07 Q134.26 1036.41 136.204 1037.11 Z" fill="#000000" fill-rule="nonzero" fill-opacity="1" /><path clip-path="url(#clip240)" d="M146.552 1036.34 L164.908 1036.34 L164.908 1040.28 L150.834 1040.28 L150.834 1048.75 Q151.853 1048.4 152.871 1048.24 Q153.89 1048.06 154.908 1048.06 Q160.695 1048.06 164.075 1051.23 Q167.454 1054.4 167.454 1059.82 Q167.454 1065.39 163.982 1068.5 Q160.51 1071.58 154.19 1071.58 Q152.015 1071.58 149.746 1071.2 Q147.501 1070.83 145.093 1070.09 L145.093 1065.39 Q147.177 1066.53 149.399 1067.08 Q151.621 1067.64 154.098 1067.64 Q158.103 1067.64 160.44 1065.53 Q162.778 1063.43 162.778 1059.82 Q162.778 1056.2 160.44 1054.1 Q158.103 1051.99 154.098 1051.99 Q152.223 1051.99 150.348 1052.41 Q148.496 1052.83 146.552 1053.7 L146.552 1036.34 Z" fill="#000000" fill-rule="nonzero" fill-opacity="1" /><path clip-path="url(#clip240)" d="M176.667 1065.02 L181.551 1065.02 L181.551 1070.9 L176.667 1070.9 L176.667 1065.02 Z" fill="#000000" fill-rule="nonzero" fill-opacity="1" /><path clip-path="url(#clip240)" d="M202.315 1051.76 Q199.167 1051.76 197.315 1053.91 Q195.487 1056.07 195.487 1059.82 Q195.487 1063.54 197.315 1065.72 Q199.167 1067.87 202.315 1067.87 Q205.463 1067.87 207.292 1065.72 Q209.144 1063.54 209.144 1059.82 Q209.144 1056.07 207.292 1053.91 Q205.463 1051.76 202.315 1051.76 M211.598 1037.11 L211.598 1041.37 Q209.838 1040.53 208.033 1040.09 Q206.25 1039.65 204.491 1039.65 Q199.862 1039.65 197.408 1042.78 Q194.977 1045.9 194.63 1052.22 Q195.996 1050.21 198.056 1049.14 Q200.116 1048.06 202.593 1048.06 Q207.801 1048.06 210.811 1051.23 Q213.843 1054.38 213.843 1059.82 Q213.843 1065.14 210.695 1068.36 Q207.547 1071.58 202.315 1071.58 Q196.32 1071.58 193.149 1066.99 Q189.977 1062.39 189.977 1053.66 Q189.977 1045.46 193.866 1040.6 Q197.755 1035.72 204.306 1035.72 Q206.065 1035.72 207.848 1036.07 Q209.653 1036.41 211.598 1037.11 Z" fill="#000000" fill-rule="nonzero" fill-opacity="1" /><path clip-path="url(#clip240)" d="M127.177 882.678 Q124.029 882.678 122.177 884.831 Q120.348 886.983 120.348 890.733 Q120.348 894.46 122.177 896.636 Q124.029 898.789 127.177 898.789 Q130.325 898.789 132.154 896.636 Q134.005 894.46 134.005 890.733 Q134.005 886.983 132.154 884.831 Q130.325 882.678 127.177 882.678 M136.459 868.025 L136.459 872.284 Q134.7 871.451 132.894 871.011 Q131.112 870.571 129.353 870.571 Q124.723 870.571 122.269 873.696 Q119.839 876.821 119.492 883.141 Q120.857 881.127 122.918 880.062 Q124.978 878.974 127.455 878.974 Q132.663 878.974 135.672 882.145 Q138.704 885.294 138.704 890.733 Q138.704 896.057 135.556 899.275 Q132.408 902.493 127.177 902.493 Q121.181 902.493 118.01 897.909 Q114.839 893.303 114.839 884.576 Q114.839 876.382 118.728 871.521 Q122.617 866.636 129.167 866.636 Q130.927 866.636 132.709 866.984 Q134.515 867.331 136.459 868.025 Z" fill="#000000" fill-rule="nonzero" fill-opacity="1" /><path clip-path="url(#clip240)" d="M146.806 867.261 L165.163 867.261 L165.163 871.196 L151.089 871.196 L151.089 879.669 Q152.107 879.321 153.126 879.159 Q154.144 878.974 155.163 878.974 Q160.95 878.974 164.329 882.145 Q167.709 885.317 167.709 890.733 Q167.709 896.312 164.237 899.414 Q160.765 902.493 154.445 902.493 Q152.269 902.493 150.001 902.122 Q147.755 901.752 145.348 901.011 L145.348 896.312 Q147.431 897.446 149.653 898.002 Q151.876 898.557 154.353 898.557 Q158.357 898.557 160.695 896.451 Q163.033 894.345 163.033 890.733 Q163.033 887.122 160.695 885.016 Q158.357 882.909 154.353 882.909 Q152.478 882.909 150.603 883.326 Q148.751 883.743 146.806 884.622 L146.806 867.261 Z" fill="#000000" fill-rule="nonzero" fill-opacity="1" /><path clip-path="url(#clip240)" d="M176.922 895.942 L181.806 895.942 L181.806 901.821 L176.922 901.821 L176.922 895.942 Z" fill="#000000" fill-rule="nonzero" fill-opacity="1" /><path clip-path="url(#clip240)" d="M201.991 885.409 Q198.658 885.409 196.737 887.192 Q194.838 888.974 194.838 892.099 Q194.838 895.224 196.737 897.007 Q198.658 898.789 201.991 898.789 Q205.324 898.789 207.246 897.007 Q209.167 895.201 209.167 892.099 Q209.167 888.974 207.246 887.192 Q205.348 885.409 201.991 885.409 M197.315 883.419 Q194.306 882.678 192.616 880.618 Q190.95 878.558 190.95 875.595 Q190.95 871.451 193.889 869.044 Q196.852 866.636 201.991 866.636 Q207.153 866.636 210.093 869.044 Q213.033 871.451 213.033 875.595 Q213.033 878.558 211.343 880.618 Q209.676 882.678 206.69 883.419 Q210.07 884.206 211.945 886.497 Q213.843 888.789 213.843 892.099 Q213.843 897.122 210.764 899.807 Q207.709 902.493 201.991 902.493 Q196.274 902.493 193.195 899.807 Q190.139 897.122 190.139 892.099 Q190.139 888.789 192.038 886.497 Q193.936 884.206 197.315 883.419 M195.602 876.034 Q195.602 878.72 197.269 880.224 Q198.959 881.729 201.991 881.729 Q205 881.729 206.69 880.224 Q208.403 878.72 208.403 876.034 Q208.403 873.349 206.69 871.845 Q205 870.34 201.991 870.34 Q198.959 870.34 197.269 871.845 Q195.602 873.349 195.602 876.034 Z" fill="#000000" fill-rule="nonzero" fill-opacity="1" /><path clip-path="url(#clip240)" d="M127.084 713.595 Q123.936 713.595 122.084 715.748 Q120.255 717.901 120.255 721.651 Q120.255 725.378 122.084 727.554 Q123.936 729.706 127.084 729.706 Q130.232 729.706 132.061 727.554 Q133.913 725.378 133.913 721.651 Q133.913 717.901 132.061 715.748 Q130.232 713.595 127.084 713.595 M136.367 698.943 L136.367 703.202 Q134.607 702.368 132.802 701.929 Q131.019 701.489 129.26 701.489 Q124.63 701.489 122.177 704.614 Q119.746 707.739 119.399 714.058 Q120.765 712.044 122.825 710.98 Q124.885 709.892 127.362 709.892 Q132.57 709.892 135.579 713.063 Q138.612 716.211 138.612 721.651 Q138.612 726.975 135.464 730.192 Q132.316 733.41 127.084 733.41 Q121.089 733.41 117.918 728.827 Q114.746 724.22 114.746 715.493 Q114.746 707.299 118.635 702.438 Q122.524 697.554 129.075 697.554 Q130.834 697.554 132.617 697.901 Q134.422 698.248 136.367 698.943 Z" fill="#000000" fill-rule="nonzero" fill-opacity="1" /><path clip-path="url(#clip240)" d="M157.246 713.595 Q154.098 713.595 152.246 715.748 Q150.417 717.901 150.417 721.651 Q150.417 725.378 152.246 727.554 Q154.098 729.706 157.246 729.706 Q160.394 729.706 162.223 727.554 Q164.075 725.378 164.075 721.651 Q164.075 717.901 162.223 715.748 Q160.394 713.595 157.246 713.595 M166.528 698.943 L166.528 703.202 Q164.769 702.368 162.964 701.929 Q161.181 701.489 159.422 701.489 Q154.792 701.489 152.339 704.614 Q149.908 707.739 149.561 714.058 Q150.927 712.044 152.987 710.98 Q155.047 709.892 157.524 709.892 Q162.732 709.892 165.741 713.063 Q168.774 716.211 168.774 721.651 Q168.774 726.975 165.626 730.192 Q162.477 733.41 157.246 733.41 Q151.251 733.41 148.079 728.827 Q144.908 724.22 144.908 715.493 Q144.908 707.299 148.797 702.438 Q152.686 697.554 159.237 697.554 Q160.996 697.554 162.778 697.901 Q164.584 698.248 166.528 698.943 Z" fill="#000000" fill-rule="nonzero" fill-opacity="1" /><path clip-path="url(#clip240)" d="M176.829 726.859 L181.713 726.859 L181.713 732.739 L176.829 732.739 L176.829 726.859 Z" fill="#000000" fill-rule="nonzero" fill-opacity="1" /><path clip-path="url(#clip240)" d="M201.899 701.257 Q198.287 701.257 196.459 704.822 Q194.653 708.364 194.653 715.493 Q194.653 722.6 196.459 726.165 Q198.287 729.706 201.899 729.706 Q205.533 729.706 207.338 726.165 Q209.167 722.6 209.167 715.493 Q209.167 708.364 207.338 704.822 Q205.533 701.257 201.899 701.257 M201.899 697.554 Q207.709 697.554 210.764 702.16 Q213.843 706.743 213.843 715.493 Q213.843 724.22 210.764 728.827 Q207.709 733.41 201.899 733.41 Q196.088 733.41 193.01 728.827 Q189.954 724.22 189.954 715.493 Q189.954 706.743 193.01 702.16 Q196.088 697.554 201.899 697.554 Z" fill="#000000" fill-rule="nonzero" fill-opacity="1" /><path clip-path="url(#clip240)" d="M128.681 544.513 Q125.533 544.513 123.681 546.665 Q121.853 548.818 121.853 552.568 Q121.853 556.295 123.681 558.471 Q125.533 560.624 128.681 560.624 Q131.83 560.624 133.658 558.471 Q135.51 556.295 135.51 552.568 Q135.51 548.818 133.658 546.665 Q131.83 544.513 128.681 544.513 M137.964 529.86 L137.964 534.119 Q136.204 533.286 134.399 532.846 Q132.617 532.406 130.857 532.406 Q126.228 532.406 123.774 535.531 Q121.343 538.656 120.996 544.976 Q122.362 542.962 124.422 541.897 Q126.482 540.809 128.959 540.809 Q134.167 540.809 137.177 543.98 Q140.209 547.128 140.209 552.568 Q140.209 557.892 137.061 561.11 Q133.913 564.327 128.681 564.327 Q122.686 564.327 119.515 559.744 Q116.343 555.138 116.343 546.411 Q116.343 538.216 120.232 533.355 Q124.121 528.471 130.672 528.471 Q132.431 528.471 134.214 528.818 Q136.019 529.165 137.964 529.86 Z" fill="#000000" fill-rule="nonzero" fill-opacity="1" /><path clip-path="url(#clip240)" d="M158.843 544.513 Q155.695 544.513 153.843 546.665 Q152.015 548.818 152.015 552.568 Q152.015 556.295 153.843 558.471 Q155.695 560.624 158.843 560.624 Q161.991 560.624 163.82 558.471 Q165.672 556.295 165.672 552.568 Q165.672 548.818 163.82 546.665 Q161.991 544.513 158.843 544.513 M168.126 529.86 L168.126 534.119 Q166.366 533.286 164.561 532.846 Q162.778 532.406 161.019 532.406 Q156.39 532.406 153.936 535.531 Q151.505 538.656 151.158 544.976 Q152.524 542.962 154.584 541.897 Q156.644 540.809 159.121 540.809 Q164.329 540.809 167.339 543.98 Q170.371 547.128 170.371 552.568 Q170.371 557.892 167.223 561.11 Q164.075 564.327 158.843 564.327 Q152.848 564.327 149.677 559.744 Q146.505 555.138 146.505 546.411 Q146.505 538.216 150.394 533.355 Q154.283 528.471 160.834 528.471 Q162.593 528.471 164.376 528.818 Q166.181 529.165 168.126 529.86 Z" fill="#000000" fill-rule="nonzero" fill-opacity="1" /><path clip-path="url(#clip240)" d="M178.426 557.776 L183.311 557.776 L183.311 563.656 L178.426 563.656 L178.426 557.776 Z" fill="#000000" fill-rule="nonzero" fill-opacity="1" /><path clip-path="url(#clip240)" d="M197.524 559.721 L213.843 559.721 L213.843 563.656 L191.899 563.656 L191.899 559.721 Q194.561 556.966 199.144 552.337 Q203.75 547.684 204.931 546.341 Q207.176 543.818 208.056 542.082 Q208.959 540.323 208.959 538.633 Q208.959 535.878 207.014 534.142 Q205.093 532.406 201.991 532.406 Q199.792 532.406 197.338 533.17 Q194.908 533.934 192.13 535.485 L192.13 530.763 Q194.954 529.628 197.408 529.05 Q199.862 528.471 201.899 528.471 Q207.269 528.471 210.463 531.156 Q213.658 533.841 213.658 538.332 Q213.658 540.462 212.848 542.383 Q212.061 544.281 209.954 546.874 Q209.375 547.545 206.274 550.763 Q203.172 553.957 197.524 559.721 Z" fill="#000000" fill-rule="nonzero" fill-opacity="1" /><path clip-path="url(#clip240)" d="M126.598 375.43 Q123.45 375.43 121.598 377.583 Q119.769 379.736 119.769 383.486 Q119.769 387.212 121.598 389.388 Q123.45 391.541 126.598 391.541 Q129.746 391.541 131.575 389.388 Q133.427 387.212 133.427 383.486 Q133.427 379.736 131.575 377.583 Q129.746 375.43 126.598 375.43 M135.88 360.777 L135.88 365.037 Q134.121 364.203 132.316 363.763 Q130.533 363.324 128.774 363.324 Q124.144 363.324 121.691 366.449 Q119.26 369.574 118.913 375.893 Q120.279 373.879 122.339 372.814 Q124.399 371.726 126.876 371.726 Q132.084 371.726 135.093 374.898 Q138.126 378.046 138.126 383.486 Q138.126 388.81 134.978 392.027 Q131.83 395.245 126.598 395.245 Q120.603 395.245 117.431 390.661 Q114.26 386.055 114.26 377.328 Q114.26 369.134 118.149 364.273 Q122.038 359.388 128.589 359.388 Q130.348 359.388 132.13 359.736 Q133.936 360.083 135.88 360.777 Z" fill="#000000" fill-rule="nonzero" fill-opacity="1" /><path clip-path="url(#clip240)" d="M156.76 375.43 Q153.612 375.43 151.76 377.583 Q149.931 379.736 149.931 383.486 Q149.931 387.212 151.76 389.388 Q153.612 391.541 156.76 391.541 Q159.908 391.541 161.737 389.388 Q163.589 387.212 163.589 383.486 Q163.589 379.736 161.737 377.583 Q159.908 375.43 156.76 375.43 M166.042 360.777 L166.042 365.037 Q164.283 364.203 162.477 363.763 Q160.695 363.324 158.936 363.324 Q154.306 363.324 151.853 366.449 Q149.422 369.574 149.075 375.893 Q150.441 373.879 152.501 372.814 Q154.561 371.726 157.038 371.726 Q162.246 371.726 165.255 374.898 Q168.288 378.046 168.288 383.486 Q168.288 388.81 165.14 392.027 Q161.991 395.245 156.76 395.245 Q150.765 395.245 147.593 390.661 Q144.422 386.055 144.422 377.328 Q144.422 369.134 148.311 364.273 Q152.2 359.388 158.751 359.388 Q160.51 359.388 162.292 359.736 Q164.098 360.083 166.042 360.777 Z" fill="#000000" fill-rule="nonzero" fill-opacity="1" /><path clip-path="url(#clip240)" d="M176.343 388.694 L181.227 388.694 L181.227 394.573 L176.343 394.573 L176.343 388.694 Z" fill="#000000" fill-rule="nonzero" fill-opacity="1" /><path clip-path="url(#clip240)" d="M204.26 364.087 L192.454 382.536 L204.26 382.536 L204.26 364.087 M203.033 360.013 L208.912 360.013 L208.912 382.536 L213.843 382.536 L213.843 386.425 L208.912 386.425 L208.912 394.573 L204.26 394.573 L204.26 386.425 L188.658 386.425 L188.658 381.911 L203.033 360.013 Z" fill="#000000" fill-rule="nonzero" fill-opacity="1" /><path clip-path="url(#clip240)" d="M126.922 206.347 Q123.774 206.347 121.922 208.5 Q120.093 210.653 120.093 214.403 Q120.093 218.13 121.922 220.306 Q123.774 222.458 126.922 222.458 Q130.07 222.458 131.899 220.306 Q133.751 218.13 133.751 214.403 Q133.751 210.653 131.899 208.5 Q130.07 206.347 126.922 206.347 M136.204 191.695 L136.204 195.954 Q134.445 195.121 132.64 194.681 Q130.857 194.241 129.098 194.241 Q124.468 194.241 122.015 197.366 Q119.584 200.491 119.237 206.81 Q120.603 204.796 122.663 203.732 Q124.723 202.644 127.2 202.644 Q132.408 202.644 135.417 205.815 Q138.45 208.963 138.45 214.403 Q138.45 219.727 135.302 222.944 Q132.154 226.162 126.922 226.162 Q120.927 226.162 117.756 221.579 Q114.584 216.972 114.584 208.245 Q114.584 200.051 118.473 195.19 Q122.362 190.306 128.913 190.306 Q130.672 190.306 132.455 190.653 Q134.26 191 136.204 191.695 Z" fill="#000000" fill-rule="nonzero" fill-opacity="1" /><path clip-path="url(#clip240)" d="M157.084 206.347 Q153.936 206.347 152.084 208.5 Q150.255 210.653 150.255 214.403 Q150.255 218.13 152.084 220.306 Q153.936 222.458 157.084 222.458 Q160.232 222.458 162.061 220.306 Q163.913 218.13 163.913 214.403 Q163.913 210.653 162.061 208.5 Q160.232 206.347 157.084 206.347 M166.366 191.695 L166.366 195.954 Q164.607 195.121 162.802 194.681 Q161.019 194.241 159.26 194.241 Q154.63 194.241 152.177 197.366 Q149.746 200.491 149.399 206.81 Q150.765 204.796 152.825 203.732 Q154.885 202.644 157.362 202.644 Q162.57 202.644 165.579 205.815 Q168.612 208.963 168.612 214.403 Q168.612 219.727 165.464 222.944 Q162.315 226.162 157.084 226.162 Q151.089 226.162 147.917 221.579 Q144.746 216.972 144.746 208.245 Q144.746 200.051 148.635 195.19 Q152.524 190.306 159.075 190.306 Q160.834 190.306 162.616 190.653 Q164.422 191 166.366 191.695 Z" fill="#000000" fill-rule="nonzero" fill-opacity="1" /><path clip-path="url(#clip240)" d="M176.667 219.611 L181.551 219.611 L181.551 225.491 L176.667 225.491 L176.667 219.611 Z" fill="#000000" fill-rule="nonzero" fill-opacity="1" /><path clip-path="url(#clip240)" d="M202.315 206.347 Q199.167 206.347 197.315 208.5 Q195.487 210.653 195.487 214.403 Q195.487 218.13 197.315 220.306 Q199.167 222.458 202.315 222.458 Q205.463 222.458 207.292 220.306 Q209.144 218.13 209.144 214.403 Q209.144 210.653 207.292 208.5 Q205.463 206.347 202.315 206.347 M211.598 191.695 L211.598 195.954 Q209.838 195.121 208.033 194.681 Q206.25 194.241 204.491 194.241 Q199.862 194.241 197.408 197.366 Q194.977 200.491 194.63 206.81 Q195.996 204.796 198.056 203.732 Q200.116 202.644 202.593 202.644 Q207.801 202.644 210.811 205.815 Q213.843 208.963 213.843 214.403 Q213.843 219.727 210.695 222.944 Q207.547 226.162 202.315 226.162 Q196.32 226.162 193.149 221.579 Q189.977 216.972 189.977 208.245 Q189.977 200.051 193.866 195.19 Q197.755 190.306 204.306 190.306 Q206.065 190.306 207.848 190.653 Q209.653 191 211.598 191.695 Z" fill="#000000" fill-rule="nonzero" fill-opacity="1" /><path clip-path="url(#clip240)" d="M22.818 922.094 L46.4666 930.815 L46.4666 913.341 L22.818 922.094 M16.4842 925.723 L16.4842 918.434 L64.0042 900.324 L64.0042 907.008 L51.8138 911.336 L51.8138 932.757 L64.0042 937.085 L64.0042 943.865 L16.4842 925.723 Z" fill="#000000" fill-rule="nonzero" fill-opacity="1" /><path clip-path="url(#clip240)" d="M45.7664 870.182 Q39.4007 870.182 35.8996 872.824 Q32.3984 875.434 32.3984 880.176 Q32.3984 884.887 35.8996 887.528 Q39.4007 890.138 45.7664 890.138 Q52.1003 890.138 55.6014 887.528 Q59.1026 884.887 59.1026 880.176 Q59.1026 875.434 55.6014 872.824 Q52.1003 870.182 45.7664 870.182 M59.58 864.325 Q68.683 864.325 73.1071 868.368 Q77.5631 872.41 77.5631 880.749 Q77.5631 883.836 77.0857 886.574 Q76.6401 889.311 75.6852 891.889 L69.9879 891.889 Q71.3884 889.311 72.0568 886.796 Q72.7252 884.282 72.7252 881.672 Q72.7252 875.911 69.7015 873.046 Q66.7096 870.182 60.6303 870.182 L57.7339 870.182 Q60.885 871.996 62.4446 874.829 Q64.0042 877.662 64.0042 881.608 Q64.0042 888.165 59.0071 892.175 Q54.01 896.186 45.7664 896.186 Q37.491 896.186 32.4939 892.175 Q27.4968 888.165 27.4968 881.608 Q27.4968 877.662 29.0564 874.829 Q30.616 871.996 33.7671 870.182 L28.3562 870.182 L28.3562 864.325 L59.58 864.325 Z" fill="#000000" fill-rule="nonzero" fill-opacity="1" /><path clip-path="url(#clip240)" d="M44.7161 821.771 L47.5806 821.771 L47.5806 848.698 Q53.6281 848.316 56.8109 845.069 Q59.9619 841.791 59.9619 835.966 Q59.9619 832.592 59.1344 829.441 Q58.3069 826.259 56.6518 823.139 L62.1899 823.139 Q63.5267 826.29 64.227 829.601 Q64.9272 832.911 64.9272 836.316 Q64.9272 844.846 59.9619 849.843 Q54.9967 854.809 46.5303 854.809 Q37.7774 854.809 32.6531 850.098 Q27.4968 845.356 27.4968 837.335 Q27.4968 830.142 32.1438 825.972 Q36.7589 821.771 44.7161 821.771 M42.9973 827.627 Q38.1912 827.691 35.3266 830.333 Q32.4621 832.943 32.4621 837.271 Q32.4621 842.173 35.2312 845.133 Q38.0002 848.061 43.0292 848.507 L42.9973 827.627 Z" fill="#000000" fill-rule="nonzero" fill-opacity="1" /><path clip-path="url(#clip240)" d="M14.5426 777.37 Q21.8632 781.635 29.0246 783.704 Q36.186 785.773 43.5384 785.773 Q50.8908 785.773 58.1159 783.704 Q65.3091 781.603 72.5979 777.37 L72.5979 782.462 Q65.1182 787.237 57.8931 789.624 Q50.668 791.979 43.5384 791.979 Q36.4406 791.979 29.2474 789.624 Q22.0542 787.269 14.5426 782.462 L14.5426 777.37 Z" fill="#000000" fill-rule="nonzero" fill-opacity="1" /><path clip-path="url(#clip240)" d="M16.4842 765.752 L16.4842 756.172 L48.8219 744.045 L16.4842 731.855 L16.4842 722.275 L64.0042 722.275 L64.0042 728.545 L22.277 728.545 L54.8694 740.799 L54.8694 747.26 L22.277 759.514 L64.0042 759.514 L64.0042 765.752 L16.4842 765.752 Z" fill="#000000" fill-rule="nonzero" fill-opacity="1" /><path clip-path="url(#clip240)" d="M46.0847 693.565 Q46.0847 700.663 47.7079 703.4 Q49.3312 706.138 53.2461 706.138 Q56.3653 706.138 58.2114 704.101 Q60.0256 702.032 60.0256 698.499 Q60.0256 693.629 56.5881 690.701 Q53.1188 687.741 47.3897 687.741 L46.0847 687.741 L46.0847 693.565 M43.6657 681.884 L64.0042 681.884 L64.0042 687.741 L58.5933 687.741 Q61.8398 689.746 63.3994 692.738 Q64.9272 695.73 64.9272 700.058 Q64.9272 705.533 61.8716 708.779 Q58.7843 711.994 53.6281 711.994 Q47.6125 711.994 44.5569 707.984 Q41.5014 703.941 41.5014 695.953 L41.5014 687.741 L40.9285 687.741 Q36.8862 687.741 34.6901 690.414 Q32.4621 693.056 32.4621 697.862 Q32.4621 700.918 33.1941 703.814 Q33.9262 706.711 35.3903 709.384 L29.9795 709.384 Q28.7381 706.169 28.1334 703.146 Q27.4968 700.122 27.4968 697.257 Q27.4968 689.523 31.5072 685.704 Q35.5176 681.884 43.6657 681.884 Z" fill="#000000" fill-rule="nonzero" fill-opacity="1" /><path clip-path="url(#clip240)" d="M14.5426 670.744 L14.5426 665.652 Q22.0542 660.877 29.2474 658.522 Q36.4406 656.135 43.5384 656.135 Q50.668 656.135 57.8931 658.522 Q65.1182 660.877 72.5979 665.652 L72.5979 670.744 Q65.3091 666.511 58.1159 664.442 Q50.8908 662.342 43.5384 662.342 Q36.186 662.342 29.0246 664.442 Q21.8632 666.511 14.5426 670.744 Z" fill="#000000" fill-rule="nonzero" fill-opacity="1" /><polyline clip-path="url(#clip242)" style="stroke:#009af9; stroke-linecap:round; stroke-linejoin:round; stroke-width:4; stroke-opacity:1; fill:none" points="309.359,1095.89 309.359,723.913 "/>
<polyline clip-path="url(#clip242)" style="stroke:#009af9; stroke-linecap:round; stroke-linejoin:round; stroke-width:4; stroke-opacity:1; fill:none" points="507.747,977.537 507.747,774.638 "/>
<polyline clip-path="url(#clip242)" style="stroke:#009af9; stroke-linecap:round; stroke-linejoin:round; stroke-width:4; stroke-opacity:1; fill:none" points="706.135,888.768 706.135,812.681 "/>
<polyline clip-path="url(#clip242)" style="stroke:#009af9; stroke-linecap:round; stroke-linejoin:round; stroke-width:4; stroke-opacity:1; fill:none" points="904.523,926.812 904.523,757.729 "/>
<polyline clip-path="url(#clip242)" style="stroke:#009af9; stroke-linecap:round; stroke-linejoin:round; stroke-width:4; stroke-opacity:1; fill:none" points="1102.91,1510.15 1102.91,89.8529 "/>
<polyline clip-path="url(#clip242)" style="stroke:#009af9; stroke-linecap:round; stroke-linejoin:round; stroke-width:4; stroke-opacity:1; fill:none" points="1301.3,926.812 1301.3,656.28 "/>
<polyline clip-path="url(#clip242)" style="stroke:#009af9; stroke-linecap:round; stroke-linejoin:round; stroke-width:4; stroke-opacity:1; fill:none" points="1499.69,1264.98 1499.69,233.573 "/>
<polyline clip-path="url(#clip242)" style="stroke:#009af9; stroke-linecap:round; stroke-linejoin:round; stroke-width:4; stroke-opacity:1; fill:none" points="1698.08,842.271 1698.08,656.28 "/>
<polyline clip-path="url(#clip242)" style="stroke:#009af9; stroke-linecap:round; stroke-linejoin:round; stroke-width:4; stroke-opacity:1; fill:none" points="1896.46,842.271 1896.46,605.555 "/>
<polyline clip-path="url(#clip242)" style="stroke:#009af9; stroke-linecap:round; stroke-linejoin:round; stroke-width:4; stroke-opacity:1; fill:none" points="2094.85,935.266 2094.85,495.651 "/>
<polyline clip-path="url(#clip242)" style="stroke:#009af9; stroke-linecap:round; stroke-linejoin:round; stroke-width:4; stroke-opacity:1; fill:none" points="2293.24,808.454 2293.24,571.738 "/>
<line clip-path="url(#clip242)" x1="325.359" y1="1095.89" x2="293.359" y2="1095.89" style="stroke:#009af9; stroke-width:4; stroke-opacity:1"/>
<line clip-path="url(#clip242)" x1="325.359" y1="723.913" x2="293.359" y2="723.913" style="stroke:#009af9; stroke-width:4; stroke-opacity:1"/>
<line clip-path="url(#clip242)" x1="523.747" y1="977.537" x2="491.747" y2="977.537" style="stroke:#009af9; stroke-width:4; stroke-opacity:1"/>
<line clip-path="url(#clip242)" x1="523.747" y1="774.638" x2="491.747" y2="774.638" style="stroke:#009af9; stroke-width:4; stroke-opacity:1"/>
<line clip-path="url(#clip242)" x1="722.135" y1="888.768" x2="690.135" y2="888.768" style="stroke:#009af9; stroke-width:4; stroke-opacity:1"/>
<line clip-path="url(#clip242)" x1="722.135" y1="812.681" x2="690.135" y2="812.681" style="stroke:#009af9; stroke-width:4; stroke-opacity:1"/>
<line clip-path="url(#clip242)" x1="920.523" y1="926.812" x2="888.523" y2="926.812" style="stroke:#009af9; stroke-width:4; stroke-opacity:1"/>
<line clip-path="url(#clip242)" x1="920.523" y1="757.729" x2="888.523" y2="757.729" style="stroke:#009af9; stroke-width:4; stroke-opacity:1"/>
<line clip-path="url(#clip242)" x1="1118.91" y1="1510.15" x2="1086.91" y2="1510.15" style="stroke:#009af9; stroke-width:4; stroke-opacity:1"/>
<line clip-path="url(#clip242)" x1="1118.91" y1="89.8529" x2="1086.91" y2="89.8529" style="stroke:#009af9; stroke-width:4; stroke-opacity:1"/>
<line clip-path="url(#clip242)" x1="1317.3" y1="926.812" x2="1285.3" y2="926.812" style="stroke:#009af9; stroke-width:4; stroke-opacity:1"/>
<line clip-path="url(#clip242)" x1="1317.3" y1="656.28" x2="1285.3" y2="656.28" style="stroke:#009af9; stroke-width:4; stroke-opacity:1"/>
<line clip-path="url(#clip242)" x1="1515.69" y1="1264.98" x2="1483.69" y2="1264.98" style="stroke:#009af9; stroke-width:4; stroke-opacity:1"/>
<line clip-path="url(#clip242)" x1="1515.69" y1="233.573" x2="1483.69" y2="233.573" style="stroke:#009af9; stroke-width:4; stroke-opacity:1"/>
<line clip-path="url(#clip242)" x1="1714.08" y1="842.271" x2="1682.08" y2="842.271" style="stroke:#009af9; stroke-width:4; stroke-opacity:1"/>
<line clip-path="url(#clip242)" x1="1714.08" y1="656.28" x2="1682.08" y2="656.28" style="stroke:#009af9; stroke-width:4; stroke-opacity:1"/>
<line clip-path="url(#clip242)" x1="1912.46" y1="842.271" x2="1880.46" y2="842.271" style="stroke:#009af9; stroke-width:4; stroke-opacity:1"/>
<line clip-path="url(#clip242)" x1="1912.46" y1="605.555" x2="1880.46" y2="605.555" style="stroke:#009af9; stroke-width:4; stroke-opacity:1"/>
<line clip-path="url(#clip242)" x1="2110.85" y1="935.266" x2="2078.85" y2="935.266" style="stroke:#009af9; stroke-width:4; stroke-opacity:1"/>
<line clip-path="url(#clip242)" x1="2110.85" y1="495.651" x2="2078.85" y2="495.651" style="stroke:#009af9; stroke-width:4; stroke-opacity:1"/>
<line clip-path="url(#clip242)" x1="2309.24" y1="808.454" x2="2277.24" y2="808.454" style="stroke:#009af9; stroke-width:4; stroke-opacity:1"/>
<line clip-path="url(#clip242)" x1="2309.24" y1="571.738" x2="2277.24" y2="571.738" style="stroke:#009af9; stroke-width:4; stroke-opacity:1"/>
<circle clip-path="url(#clip242)" cx="309.359" cy="909.904" r="14.4" fill="#009af9" fill-rule="evenodd" fill-opacity="1" stroke="none"/>
<circle clip-path="url(#clip242)" cx="507.747" cy="876.087" r="14.4" fill="#009af9" fill-rule="evenodd" fill-opacity="1" stroke="none"/>
<circle clip-path="url(#clip242)" cx="706.135" cy="850.725" r="14.4" fill="#009af9" fill-rule="evenodd" fill-opacity="1" stroke="none"/>
<circle clip-path="url(#clip242)" cx="904.523" cy="842.271" r="14.4" fill="#009af9" fill-rule="evenodd" fill-opacity="1" stroke="none"/>
<circle clip-path="url(#clip242)" cx="1102.91" cy="800" r="14.4" fill="#009af9" fill-rule="evenodd" fill-opacity="1" stroke="none"/>
<circle clip-path="url(#clip242)" cx="1301.3" cy="791.546" r="14.4" fill="#009af9" fill-rule="evenodd" fill-opacity="1" stroke="none"/>
<circle clip-path="url(#clip242)" cx="1499.69" cy="749.275" r="14.4" fill="#009af9" fill-rule="evenodd" fill-opacity="1" stroke="none"/>
<circle clip-path="url(#clip242)" cx="1698.08" cy="749.275" r="14.4" fill="#009af9" fill-rule="evenodd" fill-opacity="1" stroke="none"/>
<circle clip-path="url(#clip242)" cx="1896.46" cy="723.913" r="14.4" fill="#009af9" fill-rule="evenodd" fill-opacity="1" stroke="none"/>
<circle clip-path="url(#clip242)" cx="2094.85" cy="715.459" r="14.4" fill="#009af9" fill-rule="evenodd" fill-opacity="1" stroke="none"/>
<circle clip-path="url(#clip242)" cx="2293.24" cy="690.096" r="14.4" fill="#009af9" fill-rule="evenodd" fill-opacity="1" stroke="none"/>
<path clip-path="url(#clip242)" d="M309.359 913.011 L507.747 913.011 L706.135 913.011 L904.523 913.011 L1102.91 913.011 L1301.3 913.011 L1499.69 913.011 L1698.08 913.011 L1896.46 913.011 L2094.85 913.011 L2293.24 913.011 L2293.24 812.772 L2094.85 812.772 L1896.46 812.772 L1698.08 812.772 L1499.69 812.772 L1301.3 812.772 L1102.91 812.772 L904.523 812.772 L706.135 812.772 L507.747 812.772 L309.359 812.772  Z" fill="#e26f46" fill-rule="evenodd" fill-opacity="0.6"/>
<polyline clip-path="url(#clip242)" style="stroke:#e26f46; stroke-linecap:round; stroke-linejoin:round; stroke-width:4; stroke-opacity:0; fill:none" points="309.359,913.011 507.747,913.011 706.135,913.011 904.523,913.011 1102.91,913.011 1301.3,913.011 1499.69,913.011 1698.08,913.011 1896.46,913.011 2094.85,913.011 2293.24,913.011 "/>
<polyline clip-path="url(#clip242)" style="stroke:#000000; stroke-linecap:round; stroke-linejoin:round; stroke-width:4; stroke-opacity:1; fill:none" stroke-dasharray="2, 4" points="309.359,848.308 507.747,848.308 706.135,848.308 904.523,848.308 1102.91,848.308 1301.3,848.308 1499.69,848.308 1698.08,848.308 1896.46,848.308 2094.85,848.308 2293.24,848.308 "/>
<path clip-path="url(#clip240)" d="M319.94 252.948 L1326.11 252.948 L1326.11 97.4278 L319.94 97.4278  Z" fill="#ffffff" fill-rule="evenodd" fill-opacity="1"/>
<polyline clip-path="url(#clip240)" style="stroke:#ffffff; stroke-linecap:round; stroke-linejoin:round; stroke-width:4; stroke-opacity:1; fill:none" points="319.94,252.948 1326.11,252.948 1326.11,97.4278 319.94,97.4278 319.94,252.948 "/>
<circle clip-path="url(#clip240)" cx="413.403" cy="149.268" r="20.48" fill="#009af9" fill-rule="evenodd" fill-opacity="1" stroke="none"/>
<path clip-path="url(#clip240)" d="M511.542 135.83 L511.542 162.705 L517.19 162.705 Q524.342 162.705 527.653 159.465 Q530.986 156.224 530.986 149.233 Q530.986 142.289 527.653 139.071 Q524.342 135.83 517.19 135.83 L511.542 135.83 M506.866 131.988 L516.472 131.988 Q526.518 131.988 531.217 136.178 Q535.916 140.344 535.916 149.233 Q535.916 158.168 531.194 162.358 Q526.472 166.548 516.472 166.548 L506.866 166.548 L506.866 131.988 Z" fill="#000000" fill-rule="nonzero" fill-opacity="1" /><path clip-path="url(#clip240)" d="M554.967 153.515 Q549.805 153.515 547.815 154.696 Q545.824 155.877 545.824 158.724 Q545.824 160.992 547.305 162.335 Q548.81 163.654 551.379 163.654 Q554.921 163.654 557.051 161.154 Q559.203 158.631 559.203 154.465 L559.203 153.515 L554.967 153.515 M563.463 151.756 L563.463 166.548 L559.203 166.548 L559.203 162.613 Q557.745 164.974 555.569 166.108 Q553.393 167.219 550.245 167.219 Q546.264 167.219 543.902 164.997 Q541.565 162.752 541.565 159.002 Q541.565 154.627 544.481 152.404 Q547.421 150.182 553.231 150.182 L559.203 150.182 L559.203 149.766 Q559.203 146.826 557.259 145.228 Q555.338 143.608 551.842 143.608 Q549.62 143.608 547.514 144.141 Q545.407 144.673 543.463 145.738 L543.463 141.803 Q545.801 140.9 548 140.46 Q550.199 139.997 552.282 139.997 Q557.907 139.997 560.685 142.914 Q563.463 145.83 563.463 151.756 Z" fill="#000000" fill-rule="nonzero" fill-opacity="1" /><path clip-path="url(#clip240)" d="M576.449 133.261 L576.449 140.622 L585.222 140.622 L585.222 143.932 L576.449 143.932 L576.449 158.006 Q576.449 161.177 577.305 162.08 Q578.185 162.983 580.847 162.983 L585.222 162.983 L585.222 166.548 L580.847 166.548 Q575.916 166.548 574.041 164.719 Q572.166 162.867 572.166 158.006 L572.166 143.932 L569.041 143.932 L569.041 140.622 L572.166 140.622 L572.166 133.261 L576.449 133.261 Z" fill="#000000" fill-rule="nonzero" fill-opacity="1" /><path clip-path="url(#clip240)" d="M602.606 153.515 Q597.444 153.515 595.453 154.696 Q593.462 155.877 593.462 158.724 Q593.462 160.992 594.944 162.335 Q596.449 163.654 599.018 163.654 Q602.56 163.654 604.689 161.154 Q606.842 158.631 606.842 154.465 L606.842 153.515 L602.606 153.515 M611.101 151.756 L611.101 166.548 L606.842 166.548 L606.842 162.613 Q605.384 164.974 603.208 166.108 Q601.032 167.219 597.884 167.219 Q593.902 167.219 591.541 164.997 Q589.203 162.752 589.203 159.002 Q589.203 154.627 592.12 152.404 Q595.06 150.182 600.87 150.182 L606.842 150.182 L606.842 149.766 Q606.842 146.826 604.898 145.228 Q602.976 143.608 599.481 143.608 Q597.259 143.608 595.152 144.141 Q593.046 144.673 591.101 145.738 L591.101 141.803 Q593.439 140.9 595.638 140.46 Q597.837 139.997 599.921 139.997 Q605.546 139.997 608.323 142.914 Q611.101 145.83 611.101 151.756 Z" fill="#000000" fill-rule="nonzero" fill-opacity="1" /><path clip-path="url(#clip240)" d="M645.175 130.576 Q642.073 135.9 640.569 141.108 Q639.064 146.316 639.064 151.664 Q639.064 157.011 640.569 162.265 Q642.096 167.497 645.175 172.798 L641.471 172.798 Q637.999 167.358 636.263 162.103 Q634.55 156.849 634.55 151.664 Q634.55 146.502 636.263 141.27 Q637.976 136.039 641.471 130.576 L645.175 130.576 Z" fill="#000000" fill-rule="nonzero" fill-opacity="1" /><path clip-path="url(#clip240)" d="M663.485 143.608 Q660.059 143.608 658.069 146.293 Q656.078 148.955 656.078 153.608 Q656.078 158.261 658.045 160.946 Q660.036 163.608 663.485 163.608 Q666.888 163.608 668.879 160.923 Q670.869 158.238 670.869 153.608 Q670.869 149.002 668.879 146.316 Q666.888 143.608 663.485 143.608 M663.485 139.997 Q669.041 139.997 672.212 143.608 Q675.383 147.219 675.383 153.608 Q675.383 159.974 672.212 163.608 Q669.041 167.219 663.485 167.219 Q657.907 167.219 654.735 163.608 Q651.587 159.974 651.587 153.608 Q651.587 147.219 654.735 143.608 Q657.907 139.997 663.485 139.997 Z" fill="#000000" fill-rule="nonzero" fill-opacity="1" /><path clip-path="url(#clip240)" d="M701.054 153.608 Q701.054 148.909 699.11 146.247 Q697.189 143.562 693.809 143.562 Q690.429 143.562 688.485 146.247 Q686.564 148.909 686.564 153.608 Q686.564 158.307 688.485 160.992 Q690.429 163.654 693.809 163.654 Q697.189 163.654 699.11 160.992 Q701.054 158.307 701.054 153.608 M686.564 144.557 Q687.906 142.242 689.943 141.131 Q692.004 139.997 694.851 139.997 Q699.573 139.997 702.513 143.747 Q705.476 147.497 705.476 153.608 Q705.476 159.719 702.513 163.469 Q699.573 167.219 694.851 167.219 Q692.004 167.219 689.943 166.108 Q687.906 164.974 686.564 162.659 L686.564 166.548 L682.281 166.548 L682.281 130.529 L686.564 130.529 L686.564 144.557 Z" fill="#000000" fill-rule="nonzero" fill-opacity="1" /><path clip-path="url(#clip240)" d="M729.064 141.386 L729.064 145.414 Q727.258 144.488 725.314 144.025 Q723.369 143.562 721.286 143.562 Q718.115 143.562 716.517 144.534 Q714.943 145.506 714.943 147.451 Q714.943 148.932 716.077 149.789 Q717.212 150.622 720.638 151.386 L722.096 151.71 Q726.633 152.682 728.531 154.465 Q730.452 156.224 730.452 159.395 Q730.452 163.006 727.582 165.113 Q724.735 167.219 719.735 167.219 Q717.652 167.219 715.383 166.802 Q713.138 166.409 710.638 165.599 L710.638 161.201 Q712.999 162.427 715.29 163.052 Q717.582 163.654 719.827 163.654 Q722.837 163.654 724.457 162.636 Q726.077 161.594 726.077 159.719 Q726.077 157.983 724.897 157.057 Q723.739 156.131 719.781 155.275 L718.3 154.928 Q714.341 154.094 712.582 152.381 Q710.823 150.645 710.823 147.636 Q710.823 143.978 713.415 141.988 Q716.008 139.997 720.777 139.997 Q723.138 139.997 725.221 140.344 Q727.304 140.691 729.064 141.386 Z" fill="#000000" fill-rule="nonzero" fill-opacity="1" /><path clip-path="url(#clip240)" d="M759.411 152.52 L759.411 154.603 L739.827 154.603 Q740.105 159.002 742.466 161.316 Q744.85 163.608 749.087 163.608 Q751.54 163.608 753.832 163.006 Q756.147 162.404 758.415 161.201 L758.415 165.228 Q756.124 166.201 753.716 166.71 Q751.309 167.219 748.832 167.219 Q742.628 167.219 738.994 163.608 Q735.383 159.997 735.383 153.84 Q735.383 147.474 738.809 143.747 Q742.258 139.997 748.091 139.997 Q753.323 139.997 756.355 143.377 Q759.411 146.733 759.411 152.52 M755.151 151.27 Q755.105 147.775 753.184 145.691 Q751.286 143.608 748.138 143.608 Q744.573 143.608 742.42 145.622 Q740.29 147.636 739.966 151.293 L755.151 151.27 Z" fill="#000000" fill-rule="nonzero" fill-opacity="1" /><path clip-path="url(#clip240)" d="M781.424 144.603 Q780.707 144.187 779.85 144.002 Q779.017 143.793 777.998 143.793 Q774.387 143.793 772.443 146.154 Q770.522 148.492 770.522 152.89 L770.522 166.548 L766.239 166.548 L766.239 140.622 L770.522 140.622 L770.522 144.65 Q771.864 142.289 774.017 141.154 Q776.17 139.997 779.248 139.997 Q779.688 139.997 780.221 140.066 Q780.753 140.113 781.401 140.229 L781.424 144.603 Z" fill="#000000" fill-rule="nonzero" fill-opacity="1" /><path clip-path="url(#clip240)" d="M782.836 140.622 L787.35 140.622 L795.452 162.381 L803.554 140.622 L808.068 140.622 L798.346 166.548 L792.559 166.548 L782.836 140.622 Z" fill="#000000" fill-rule="nonzero" fill-opacity="1" /><path clip-path="url(#clip240)" d="M836.123 152.52 L836.123 154.603 L816.54 154.603 Q816.818 159.002 819.179 161.316 Q821.563 163.608 825.799 163.608 Q828.253 163.608 830.544 163.006 Q832.859 162.404 835.128 161.201 L835.128 165.228 Q832.836 166.201 830.429 166.71 Q828.021 167.219 825.544 167.219 Q819.341 167.219 815.707 163.608 Q812.095 159.997 812.095 153.84 Q812.095 147.474 815.521 143.747 Q818.97 139.997 824.804 139.997 Q830.035 139.997 833.068 143.377 Q836.123 146.733 836.123 152.52 M831.864 151.27 Q831.818 147.775 829.896 145.691 Q827.998 143.608 824.85 143.608 Q821.285 143.608 819.132 145.622 Q817.003 147.636 816.679 151.293 L831.864 151.27 Z" fill="#000000" fill-rule="nonzero" fill-opacity="1" /><path clip-path="url(#clip240)" d="M860.174 144.557 L860.174 130.529 L864.433 130.529 L864.433 166.548 L860.174 166.548 L860.174 162.659 Q858.831 164.974 856.771 166.108 Q854.734 167.219 851.864 167.219 Q847.165 167.219 844.202 163.469 Q841.262 159.719 841.262 153.608 Q841.262 147.497 844.202 143.747 Q847.165 139.997 851.864 139.997 Q854.734 139.997 856.771 141.131 Q858.831 142.242 860.174 144.557 M845.66 153.608 Q845.66 158.307 847.581 160.992 Q849.526 163.654 852.905 163.654 Q856.285 163.654 858.23 160.992 Q860.174 158.307 860.174 153.608 Q860.174 148.909 858.23 146.247 Q856.285 143.562 852.905 143.562 Q849.526 143.562 847.581 146.247 Q845.66 148.909 845.66 153.608 Z" fill="#000000" fill-rule="nonzero" fill-opacity="1" /><path clip-path="url(#clip240)" d="M900.058 153.515 Q894.896 153.515 892.905 154.696 Q890.915 155.877 890.915 158.724 Q890.915 160.992 892.396 162.335 Q893.901 163.654 896.47 163.654 Q900.012 163.654 902.141 161.154 Q904.294 158.631 904.294 154.465 L904.294 153.515 L900.058 153.515 M908.553 151.756 L908.553 166.548 L904.294 166.548 L904.294 162.613 Q902.836 164.974 900.66 166.108 Q898.484 167.219 895.336 167.219 Q891.354 167.219 888.993 164.997 Q886.655 162.752 886.655 159.002 Q886.655 154.627 889.572 152.404 Q892.512 150.182 898.322 150.182 L904.294 150.182 L904.294 149.766 Q904.294 146.826 902.35 145.228 Q900.428 143.608 896.933 143.608 Q894.711 143.608 892.604 144.141 Q890.498 144.673 888.553 145.738 L888.553 141.803 Q890.891 140.9 893.09 140.46 Q895.289 139.997 897.373 139.997 Q902.998 139.997 905.776 142.914 Q908.553 145.83 908.553 151.756 Z" fill="#000000" fill-rule="nonzero" fill-opacity="1" /><path clip-path="url(#clip240)" d="M934.387 153.284 Q934.387 148.654 932.465 146.108 Q930.567 143.562 927.118 143.562 Q923.692 143.562 921.771 146.108 Q919.873 148.654 919.873 153.284 Q919.873 157.89 921.771 160.437 Q923.692 162.983 927.118 162.983 Q930.567 162.983 932.465 160.437 Q934.387 157.89 934.387 153.284 M938.646 163.33 Q938.646 169.951 935.706 173.168 Q932.766 176.409 926.701 176.409 Q924.456 176.409 922.465 176.062 Q920.475 175.738 918.6 175.043 L918.6 170.9 Q920.475 171.918 922.303 172.404 Q924.132 172.89 926.03 172.89 Q930.22 172.89 932.303 170.691 Q934.387 168.515 934.387 164.094 L934.387 161.988 Q933.067 164.279 931.007 165.414 Q928.947 166.548 926.076 166.548 Q921.308 166.548 918.391 162.914 Q915.475 159.279 915.475 153.284 Q915.475 147.266 918.391 143.631 Q921.308 139.997 926.076 139.997 Q928.947 139.997 931.007 141.131 Q933.067 142.266 934.387 144.557 L934.387 140.622 L938.646 140.622 L938.646 163.33 Z" fill="#000000" fill-rule="nonzero" fill-opacity="1" /><path clip-path="url(#clip240)" d="M969.595 152.52 L969.595 154.603 L950.011 154.603 Q950.289 159.002 952.65 161.316 Q955.035 163.608 959.271 163.608 Q961.724 163.608 964.016 163.006 Q966.331 162.404 968.599 161.201 L968.599 165.228 Q966.308 166.201 963.9 166.71 Q961.493 167.219 959.016 167.219 Q952.812 167.219 949.178 163.608 Q945.567 159.997 945.567 153.84 Q945.567 147.474 948.993 143.747 Q952.442 139.997 958.275 139.997 Q963.507 139.997 966.539 143.377 Q969.595 146.733 969.595 152.52 M965.335 151.27 Q965.289 147.775 963.368 145.691 Q961.47 143.608 958.322 143.608 Q954.757 143.608 952.604 145.622 Q950.474 147.636 950.15 151.293 L965.335 151.27 Z" fill="#000000" fill-rule="nonzero" fill-opacity="1" /><path clip-path="url(#clip240)" d="M993.113 141.386 L993.113 145.414 Q991.307 144.488 989.363 144.025 Q987.419 143.562 985.335 143.562 Q982.164 143.562 980.567 144.534 Q978.993 145.506 978.993 147.451 Q978.993 148.932 980.127 149.789 Q981.261 150.622 984.687 151.386 L986.145 151.71 Q990.683 152.682 992.581 154.465 Q994.502 156.224 994.502 159.395 Q994.502 163.006 991.632 165.113 Q988.784 167.219 983.784 167.219 Q981.701 167.219 979.433 166.802 Q977.187 166.409 974.687 165.599 L974.687 161.201 Q977.048 162.427 979.34 163.052 Q981.632 163.654 983.877 163.654 Q986.886 163.654 988.507 162.636 Q990.127 161.594 990.127 159.719 Q990.127 157.983 988.946 157.057 Q987.789 156.131 983.831 155.275 L982.349 154.928 Q978.391 154.094 976.632 152.381 Q974.872 150.645 974.872 147.636 Q974.872 143.978 977.465 141.988 Q980.058 139.997 984.826 139.997 Q987.187 139.997 989.27 140.344 Q991.354 140.691 993.113 141.386 Z" fill="#000000" fill-rule="nonzero" fill-opacity="1" /><path clip-path="url(#clip240)" d="M1000.61 130.576 L1004.32 130.576 Q1007.79 136.039 1009.5 141.27 Q1011.24 146.502 1011.24 151.664 Q1011.24 156.849 1009.5 162.103 Q1007.79 167.358 1004.32 172.798 L1000.61 172.798 Q1003.69 167.497 1005.2 162.265 Q1006.72 157.011 1006.72 151.664 Q1006.72 146.316 1005.2 141.108 Q1003.69 135.9 1000.61 130.576 Z" fill="#000000" fill-rule="nonzero" fill-opacity="1" /><path clip-path="url(#clip240)" d="M343.306 221.844 L483.5 221.844 L483.5 180.372 L343.306 180.372 L343.306 221.844  Z" fill="#e26f46" fill-rule="evenodd" fill-opacity="0.6"/>
<polyline clip-path="url(#clip240)" style="stroke:#e26f46; stroke-linecap:round; stroke-linejoin:round; stroke-width:4; stroke-opacity:0; fill:none" points="343.306,180.372 483.5,180.372 "/>
<path clip-path="url(#clip240)" d="M506.866 183.828 L513.833 183.828 L522.653 207.346 L531.518 183.828 L538.486 183.828 L538.486 218.388 L533.926 218.388 L533.926 188.041 L525.014 211.744 L520.315 211.744 L511.403 188.041 L511.403 218.388 L506.866 218.388 L506.866 183.828 Z" fill="#000000" fill-rule="nonzero" fill-opacity="1" /><path clip-path="url(#clip240)" d="M557.629 195.448 Q554.203 195.448 552.213 198.133 Q550.222 200.795 550.222 205.448 Q550.222 210.101 552.189 212.786 Q554.18 215.448 557.629 215.448 Q561.032 215.448 563.023 212.763 Q565.013 210.078 565.013 205.448 Q565.013 200.842 563.023 198.156 Q561.032 195.448 557.629 195.448 M557.629 191.837 Q563.185 191.837 566.356 195.448 Q569.527 199.059 569.527 205.448 Q569.527 211.814 566.356 215.448 Q563.185 219.059 557.629 219.059 Q552.051 219.059 548.879 215.448 Q545.731 211.814 545.731 205.448 Q545.731 199.059 548.879 195.448 Q552.051 191.837 557.629 191.837 Z" fill="#000000" fill-rule="nonzero" fill-opacity="1" /><path clip-path="url(#clip240)" d="M593.648 196.397 L593.648 182.369 L597.907 182.369 L597.907 218.388 L593.648 218.388 L593.648 214.499 Q592.305 216.814 590.245 217.948 Q588.208 219.059 585.337 219.059 Q580.638 219.059 577.675 215.309 Q574.736 211.559 574.736 205.448 Q574.736 199.337 577.675 195.587 Q580.638 191.837 585.337 191.837 Q588.208 191.837 590.245 192.971 Q592.305 194.082 593.648 196.397 M579.134 205.448 Q579.134 210.147 581.055 212.832 Q583 215.494 586.379 215.494 Q589.759 215.494 591.703 212.832 Q593.648 210.147 593.648 205.448 Q593.648 200.749 591.703 198.087 Q589.759 195.402 586.379 195.402 Q583 195.402 581.055 198.087 Q579.134 200.749 579.134 205.448 Z" fill="#000000" fill-rule="nonzero" fill-opacity="1" /><path clip-path="url(#clip240)" d="M628.856 204.36 L628.856 206.443 L609.273 206.443 Q609.55 210.842 611.911 213.156 Q614.296 215.448 618.532 215.448 Q620.985 215.448 623.277 214.846 Q625.592 214.244 627.86 213.041 L627.86 217.068 Q625.569 218.041 623.161 218.55 Q620.754 219.059 618.277 219.059 Q612.073 219.059 608.439 215.448 Q604.828 211.837 604.828 205.68 Q604.828 199.314 608.254 195.587 Q611.703 191.837 617.536 191.837 Q622.768 191.837 625.8 195.217 Q628.856 198.573 628.856 204.36 M624.597 203.11 Q624.55 199.615 622.629 197.531 Q620.731 195.448 617.583 195.448 Q614.018 195.448 611.865 197.462 Q609.735 199.476 609.411 203.133 L624.597 203.11 Z" fill="#000000" fill-rule="nonzero" fill-opacity="1" /><path clip-path="url(#clip240)" d="M635.846 182.369 L640.106 182.369 L640.106 218.388 L635.846 218.388 L635.846 182.369 Z" fill="#000000" fill-rule="nonzero" fill-opacity="1" /><path clip-path="url(#clip240)" d="M674.318 182.416 Q671.217 187.74 669.712 192.948 Q668.207 198.156 668.207 203.504 Q668.207 208.851 669.712 214.105 Q671.24 219.337 674.318 224.638 L670.615 224.638 Q667.143 219.198 665.406 213.943 Q663.694 208.689 663.694 203.504 Q663.694 198.342 665.406 193.11 Q667.119 187.879 670.615 182.416 L674.318 182.416 Z" fill="#000000" fill-rule="nonzero" fill-opacity="1" /><path clip-path="url(#clip240)" d="M693.763 199.244 Q690.615 199.244 688.763 201.397 Q686.934 203.55 686.934 207.3 Q686.934 211.027 688.763 213.203 Q690.615 215.355 693.763 215.355 Q696.911 215.355 698.74 213.203 Q700.591 211.027 700.591 207.3 Q700.591 203.55 698.74 201.397 Q696.911 199.244 693.763 199.244 M703.045 184.592 L703.045 188.851 Q701.286 188.018 699.48 187.578 Q697.698 187.138 695.939 187.138 Q691.309 187.138 688.855 190.263 Q686.425 193.388 686.078 199.707 Q687.443 197.693 689.504 196.629 Q691.564 195.541 694.041 195.541 Q699.249 195.541 702.258 198.712 Q705.291 201.86 705.291 207.3 Q705.291 212.624 702.142 215.842 Q698.994 219.059 693.763 219.059 Q687.767 219.059 684.596 214.476 Q681.425 209.869 681.425 201.143 Q681.425 192.948 685.314 188.087 Q689.203 183.203 695.754 183.203 Q697.513 183.203 699.295 183.55 Q701.101 183.897 703.045 184.592 Z" fill="#000000" fill-rule="nonzero" fill-opacity="1" /><path clip-path="url(#clip240)" d="M713.392 183.828 L731.749 183.828 L731.749 187.763 L717.675 187.763 L717.675 196.235 Q718.693 195.888 719.712 195.726 Q720.73 195.541 721.749 195.541 Q727.536 195.541 730.915 198.712 Q734.295 201.883 734.295 207.3 Q734.295 212.879 730.823 215.98 Q727.351 219.059 721.031 219.059 Q718.855 219.059 716.587 218.689 Q714.341 218.318 711.934 217.578 L711.934 212.879 Q714.017 214.013 716.24 214.568 Q718.462 215.124 720.939 215.124 Q724.943 215.124 727.281 213.017 Q729.619 210.911 729.619 207.3 Q729.619 203.689 727.281 201.582 Q724.943 199.476 720.939 199.476 Q719.064 199.476 717.189 199.893 Q715.337 200.309 713.392 201.189 L713.392 183.828 Z" fill="#000000" fill-rule="nonzero" fill-opacity="1" /><path clip-path="url(#clip240)" d="M743.508 212.508 L748.392 212.508 L748.392 218.388 L743.508 218.388 L743.508 212.508 Z" fill="#000000" fill-rule="nonzero" fill-opacity="1" /><path clip-path="url(#clip240)" d="M768.577 201.976 Q765.244 201.976 763.323 203.758 Q761.424 205.541 761.424 208.666 Q761.424 211.791 763.323 213.573 Q765.244 215.355 768.577 215.355 Q771.911 215.355 773.832 213.573 Q775.753 211.767 775.753 208.666 Q775.753 205.541 773.832 203.758 Q771.934 201.976 768.577 201.976 M763.901 199.985 Q760.892 199.244 759.202 197.184 Q757.536 195.124 757.536 192.161 Q757.536 188.018 760.475 185.61 Q763.438 183.203 768.577 183.203 Q773.739 183.203 776.679 185.61 Q779.619 188.018 779.619 192.161 Q779.619 195.124 777.929 197.184 Q776.262 199.244 773.276 199.985 Q776.656 200.772 778.531 203.064 Q780.429 205.355 780.429 208.666 Q780.429 213.689 777.35 216.374 Q774.295 219.059 768.577 219.059 Q762.86 219.059 759.781 216.374 Q756.725 213.689 756.725 208.666 Q756.725 205.355 758.624 203.064 Q760.522 200.772 763.901 199.985 M762.188 192.601 Q762.188 195.286 763.855 196.791 Q765.545 198.295 768.577 198.295 Q771.586 198.295 773.276 196.791 Q774.989 195.286 774.989 192.601 Q774.989 189.916 773.276 188.411 Q771.586 186.907 768.577 186.907 Q765.545 186.907 763.855 188.411 Q762.188 189.916 762.188 192.601 Z" fill="#000000" fill-rule="nonzero" fill-opacity="1" /><path clip-path="url(#clip240)" d="M801.586 187.902 L789.781 206.351 L801.586 206.351 L801.586 187.902 M800.359 183.828 L806.239 183.828 L806.239 206.351 L811.17 206.351 L811.17 210.24 L806.239 210.24 L806.239 218.388 L801.586 218.388 L801.586 210.24 L785.985 210.24 L785.985 205.726 L800.359 183.828 Z" fill="#000000" fill-rule="nonzero" fill-opacity="1" /><path clip-path="url(#clip240)" d="M833.068 199.754 Q836.424 200.471 838.299 202.74 Q840.197 205.008 840.197 208.342 Q840.197 213.457 836.679 216.258 Q833.16 219.059 826.679 219.059 Q824.503 219.059 822.188 218.619 Q819.896 218.203 817.443 217.346 L817.443 212.832 Q819.387 213.967 821.702 214.545 Q824.017 215.124 826.54 215.124 Q830.938 215.124 833.23 213.388 Q835.544 211.652 835.544 208.342 Q835.544 205.286 833.392 203.573 Q831.262 201.837 827.443 201.837 L823.415 201.837 L823.415 197.994 L827.628 197.994 Q831.077 197.994 832.906 196.629 Q834.734 195.24 834.734 192.647 Q834.734 189.985 832.836 188.573 Q830.961 187.138 827.443 187.138 Q825.521 187.138 823.322 187.555 Q821.123 187.971 818.484 188.851 L818.484 184.684 Q821.146 183.944 823.461 183.573 Q825.799 183.203 827.859 183.203 Q833.183 183.203 836.285 185.633 Q839.387 188.041 839.387 192.161 Q839.387 195.031 837.744 197.022 Q836.1 198.99 833.068 199.754 Z" fill="#000000" fill-rule="nonzero" fill-opacity="1" /><path clip-path="url(#clip240)" d="M880.868 188.666 L880.868 201.559 L893.762 201.559 L893.762 205.494 L880.868 205.494 L880.868 218.388 L876.979 218.388 L876.979 205.494 L864.086 205.494 L864.086 201.559 L876.979 201.559 L876.979 188.666 L880.868 188.666 Z" fill="#000000" fill-rule="nonzero" fill-opacity="1" /><path clip-path="url(#clip240)" d="M913.854 186.907 Q910.243 186.907 908.414 190.471 Q906.609 194.013 906.609 201.143 Q906.609 208.249 908.414 211.814 Q910.243 215.355 913.854 215.355 Q917.488 215.355 919.294 211.814 Q921.123 208.249 921.123 201.143 Q921.123 194.013 919.294 190.471 Q917.488 186.907 913.854 186.907 M913.854 183.203 Q919.664 183.203 922.72 187.809 Q925.799 192.393 925.799 201.143 Q925.799 209.869 922.72 214.476 Q919.664 219.059 913.854 219.059 Q908.044 219.059 904.965 214.476 Q901.91 209.869 901.91 201.143 Q901.91 192.393 904.965 187.809 Q908.044 183.203 913.854 183.203 Z" fill="#000000" fill-rule="nonzero" fill-opacity="1" /><path clip-path="url(#clip240)" d="M934.016 212.508 L938.9 212.508 L938.9 218.388 L934.016 218.388 L934.016 212.508 Z" fill="#000000" fill-rule="nonzero" fill-opacity="1" /><path clip-path="url(#clip240)" d="M959.085 186.907 Q955.474 186.907 953.646 190.471 Q951.84 194.013 951.84 201.143 Q951.84 208.249 953.646 211.814 Q955.474 215.355 959.085 215.355 Q962.72 215.355 964.525 211.814 Q966.354 208.249 966.354 201.143 Q966.354 194.013 964.525 190.471 Q962.72 186.907 959.085 186.907 M959.085 183.203 Q964.896 183.203 967.951 187.809 Q971.03 192.393 971.03 201.143 Q971.03 209.869 967.951 214.476 Q964.896 219.059 959.085 219.059 Q953.275 219.059 950.197 214.476 Q947.141 209.869 947.141 201.143 Q947.141 192.393 950.197 187.809 Q953.275 183.203 959.085 183.203 Z" fill="#000000" fill-rule="nonzero" fill-opacity="1" /><path clip-path="url(#clip240)" d="M992.095 187.902 L980.289 206.351 L992.095 206.351 L992.095 187.902 M990.868 183.828 L996.747 183.828 L996.747 206.351 L1001.68 206.351 L1001.68 210.24 L996.747 210.24 L996.747 218.388 L992.095 218.388 L992.095 210.24 L976.493 210.24 L976.493 205.726 L990.868 183.828 Z" fill="#000000" fill-rule="nonzero" fill-opacity="1" /><path clip-path="url(#clip240)" d="M1013.44 214.453 L1029.76 214.453 L1029.76 218.388 L1007.81 218.388 L1007.81 214.453 Q1010.47 211.698 1015.06 207.068 Q1019.66 202.416 1020.84 201.073 Q1023.09 198.55 1023.97 196.814 Q1024.87 195.055 1024.87 193.365 Q1024.87 190.61 1022.93 188.874 Q1021.01 187.138 1017.9 187.138 Q1015.71 187.138 1013.25 187.902 Q1010.82 188.666 1008.04 190.217 L1008.04 185.494 Q1010.87 184.36 1013.32 183.782 Q1015.77 183.203 1017.81 183.203 Q1023.18 183.203 1026.38 185.888 Q1029.57 188.573 1029.57 193.064 Q1029.57 195.194 1028.76 197.115 Q1027.97 199.013 1025.87 201.606 Q1025.29 202.277 1022.19 205.494 Q1019.09 208.689 1013.44 214.453 Z" fill="#000000" fill-rule="nonzero" fill-opacity="1" /><path clip-path="url(#clip240)" d="M1046.54 183.828 L1050.47 183.828 L1038.44 222.786 L1034.5 222.786 L1046.54 183.828 Z" fill="#000000" fill-rule="nonzero" fill-opacity="1" /><path clip-path="url(#clip240)" d="M1052.79 203.504 L1065.27 203.504 L1065.27 207.3 L1052.79 207.3 L1052.79 203.504 Z" fill="#000000" fill-rule="nonzero" fill-opacity="1" /><path clip-path="url(#clip240)" d="M1082.65 186.907 Q1079.04 186.907 1077.21 190.471 Q1075.4 194.013 1075.4 201.143 Q1075.4 208.249 1077.21 211.814 Q1079.04 215.355 1082.65 215.355 Q1086.28 215.355 1088.09 211.814 Q1089.92 208.249 1089.92 201.143 Q1089.92 194.013 1088.09 190.471 Q1086.28 186.907 1082.65 186.907 M1082.65 183.203 Q1088.46 183.203 1091.52 187.809 Q1094.59 192.393 1094.59 201.143 Q1094.59 209.869 1091.52 214.476 Q1088.46 219.059 1082.65 219.059 Q1076.84 219.059 1073.76 214.476 Q1070.71 209.869 1070.71 201.143 Q1070.71 192.393 1073.76 187.809 Q1076.84 183.203 1082.65 183.203 Z" fill="#000000" fill-rule="nonzero" fill-opacity="1" /><path clip-path="url(#clip240)" d="M1102.81 212.508 L1107.7 212.508 L1107.7 218.388 L1102.81 218.388 L1102.81 212.508 Z" fill="#000000" fill-rule="nonzero" fill-opacity="1" /><path clip-path="url(#clip240)" d="M1127.88 186.907 Q1124.27 186.907 1122.44 190.471 Q1120.64 194.013 1120.64 201.143 Q1120.64 208.249 1122.44 211.814 Q1124.27 215.355 1127.88 215.355 Q1131.52 215.355 1133.32 211.814 Q1135.15 208.249 1135.15 201.143 Q1135.15 194.013 1133.32 190.471 Q1131.52 186.907 1127.88 186.907 M1127.88 183.203 Q1133.69 183.203 1136.75 187.809 Q1139.83 192.393 1139.83 201.143 Q1139.83 209.869 1136.75 214.476 Q1133.69 219.059 1127.88 219.059 Q1122.07 219.059 1118.99 214.476 Q1115.94 209.869 1115.94 201.143 Q1115.94 192.393 1118.99 187.809 Q1122.07 183.203 1127.88 183.203 Z" fill="#000000" fill-rule="nonzero" fill-opacity="1" /><path clip-path="url(#clip240)" d="M1146.86 183.828 L1169.08 183.828 L1169.08 185.819 L1156.54 218.388 L1151.65 218.388 L1163.46 187.763 L1146.86 187.763 L1146.86 183.828 Z" fill="#000000" fill-rule="nonzero" fill-opacity="1" /><path clip-path="url(#clip240)" d="M1177.02 183.828 L1199.25 183.828 L1199.25 185.819 L1186.7 218.388 L1181.82 218.388 L1193.62 187.763 L1177.02 187.763 L1177.02 183.828 Z" fill="#000000" fill-rule="nonzero" fill-opacity="1" /><path clip-path="url(#clip240)" d="M1223.02 183.828 L1229.99 183.828 L1238.81 207.346 L1247.67 183.828 L1254.64 183.828 L1254.64 218.388 L1250.08 218.388 L1250.08 188.041 L1241.17 211.744 L1236.47 211.744 L1227.56 188.041 L1227.56 218.388 L1223.02 218.388 L1223.02 183.828 Z" fill="#000000" fill-rule="nonzero" fill-opacity="1" /><path clip-path="url(#clip240)" d="M1275.52 205.355 Q1270.36 205.355 1268.37 206.536 Q1266.38 207.717 1266.38 210.564 Q1266.38 212.832 1267.86 214.175 Q1269.36 215.494 1271.93 215.494 Q1275.47 215.494 1277.6 212.994 Q1279.76 210.471 1279.76 206.305 L1279.76 205.355 L1275.52 205.355 M1284.01 203.596 L1284.01 218.388 L1279.76 218.388 L1279.76 214.453 Q1278.3 216.814 1276.12 217.948 Q1273.94 219.059 1270.8 219.059 Q1266.82 219.059 1264.45 216.837 Q1262.12 214.592 1262.12 210.842 Q1262.12 206.467 1265.03 204.244 Q1267.97 202.022 1273.78 202.022 L1279.76 202.022 L1279.76 201.606 Q1279.76 198.666 1277.81 197.068 Q1275.89 195.448 1272.39 195.448 Q1270.17 195.448 1268.07 195.981 Q1265.96 196.513 1264.01 197.578 L1264.01 193.643 Q1266.35 192.74 1268.55 192.3 Q1270.75 191.837 1272.83 191.837 Q1278.46 191.837 1281.24 194.754 Q1284.01 197.67 1284.01 203.596 Z" fill="#000000" fill-rule="nonzero" fill-opacity="1" /><path clip-path="url(#clip240)" d="M1292.12 182.416 L1295.82 182.416 Q1299.29 187.879 1301 193.11 Q1302.74 198.342 1302.74 203.504 Q1302.74 208.689 1301 213.943 Q1299.29 219.198 1295.82 224.638 L1292.12 224.638 Q1295.19 219.337 1296.7 214.105 Q1298.23 208.851 1298.23 203.504 Q1298.23 198.156 1296.7 192.948 Q1295.19 187.74 1292.12 182.416 Z" fill="#000000" fill-rule="nonzero" fill-opacity="1" /></svg>
