<?xml version="1.0" encoding="utf-8"?>
<svg xmlns="http://www.w3.org/2000/svg" xmlns:xlink="http://www.w3.org/1999/xlink" width="600" height="400" viewBox="0 0 2400 1600">
<defs>
  <clipPath id="clip280">
    <rect x="0" y="0" width="2400" height="1600"/>
  </clipPath>
</defs>
<path clip-path="url(#clip280)" d="M0 1600 L2400 1600 L2400 8.88178e-14 L0 8.88178e-14  Z" fill="#ffffff" fill-rule="evenodd" fill-opacity="1"/>
<defs>
  <clipPath id="clip281">
    <rect x="480" y="0" width="1681" height="1600"/>
  </clipPath>
</defs>
<path clip-path="url(#clip280)" d="M203.964 1423.18 L2352.76 1423.18 L2352.76 47.2441 L203.964 47.2441  Z" fill="#ffffff" fill-rule="evenodd" fill-opacity="1"/>
<defs>
  <clipPath id="clip282">
    <rect x="203" y="47" width="2150" height="1377"/>
  </clipPath>
</defs>
<polyline clip-path="url(#clip282)" style="stroke:#000000; stroke-linecap:round; stroke-linejoin:round; stroke-width:2; stroke-opacity:0.1; fill:none" points="268.682,1423.18 268.682,47.2441 "/>
<polyline clip-path="url(#clip282)" style="stroke:#000000; stroke-linecap:round; stroke-linejoin:round; stroke-width:2; stroke-opacity:0.1; fill:none" points="885.31,1423.18 885.31,47.2441 "/>
<polyline clip-path="url(#clip282)" style="stroke:#000000; stroke-linecap:round; stroke-linejoin:round; stroke-width:2; stroke-opacity:0.1; fill:none" points="1501.94,1423.18 1501.94,47.2441 "/>
<polyline clip-path="url(#clip282)" style="stroke:#000000; stroke-linecap:round; stroke-linejoin:round; stroke-width:2; stroke-opacity:0.1; fill:none" points="2118.57,1423.18 2118.57,47.2441 "/>
<polyline clip-path="url(#clip282)" style="stroke:#000000; stroke-linecap:round; stroke-linejoin:round; stroke-width:2; stroke-opacity:0.1; fill:none" points="268.682,1423.18 268.682,47.2441 "/>
<polyline clip-path="url(#clip282)" style="stroke:#000000; stroke-linecap:round; stroke-linejoin:round; stroke-width:2; stroke-opacity:0.1; fill:none" points="885.31,1423.18 885.31,47.2441 "/>
<polyline clip-path="url(#clip282)" style="stroke:#000000; stroke-linecap:round; stroke-linejoin:round; stroke-width:2; stroke-opacity:0.1; fill:none" points="1501.94,1423.18 1501.94,47.2441 "/>
<polyline clip-path="url(#clip282)" style="stroke:#000000; stroke-linecap:round; stroke-linejoin:round; stroke-width:2; stroke-opacity:0.1; fill:none" points="2118.57,1423.18 2118.57,47.2441 "/>
<polyline clip-path="url(#clip282)" style="stroke:#000000; stroke-linecap:round; stroke-linejoin:round; stroke-width:2; stroke-opacity:0.1; fill:none" points="203.964,1384.24 2352.76,1384.24 "/>
<polyline clip-path="url(#clip282)" style="stroke:#000000; stroke-linecap:round; stroke-linejoin:round; stroke-width:2; stroke-opacity:0.1; fill:none" points="203.964,1069.44 2352.76,1069.44 "/>
<polyline clip-path="url(#clip282)" style="stroke:#000000; stroke-linecap:round; stroke-linejoin:round; stroke-width:2; stroke-opacity:0.1; fill:none" points="203.964,754.628 2352.76,754.628 "/>
<polyline clip-path="url(#clip282)" style="stroke:#000000; stroke-linecap:round; stroke-linejoin:round; stroke-width:2; stroke-opacity:0.1; fill:none" points="203.964,439.82 2352.76,439.82 "/>
<polyline clip-path="url(#clip282)" style="stroke:#000000; stroke-linecap:round; stroke-linejoin:round; stroke-width:2; stroke-opacity:0.1; fill:none" points="203.964,125.012 2352.76,125.012 "/>
<polyline clip-path="url(#clip282)" style="stroke:#000000; stroke-linecap:round; stroke-linejoin:round; stroke-width:2; stroke-opacity:0.1; fill:none" points="203.964,1384.24 2352.76,1384.24 "/>
<polyline clip-path="url(#clip282)" style="stroke:#000000; stroke-linecap:round; stroke-linejoin:round; stroke-width:2; stroke-opacity:0.1; fill:none" points="203.964,1069.44 2352.76,1069.44 "/>
<polyline clip-path="url(#clip282)" style="stroke:#000000; stroke-linecap:round; stroke-linejoin:round; stroke-width:2; stroke-opacity:0.1; fill:none" points="203.964,754.628 2352.76,754.628 "/>
<polyline clip-path="url(#clip282)" style="stroke:#000000; stroke-linecap:round; stroke-linejoin:round; stroke-width:2; stroke-opacity:0.1; fill:none" points="203.964,439.82 2352.76,439.82 "/>
<polyline clip-path="url(#clip282)" style="stroke:#000000; stroke-linecap:round; stroke-linejoin:round; stroke-width:2; stroke-opacity:0.1; fill:none" points="203.964,125.012 2352.76,125.012 "/>
<polyline clip-path="url(#clip280)" style="stroke:#000000; stroke-linecap:round; stroke-linejoin:round; stroke-width:4; stroke-opacity:1; fill:none" points="203.964,1423.18 2352.76,1423.18 "/>
<polyline clip-path="url(#clip280)" style="stroke:#000000; stroke-linecap:round; stroke-linejoin:round; stroke-width:4; stroke-opacity:1; fill:none" points="203.964,47.2441 2352.76,47.2441 "/>
<polyline clip-path="url(#clip280)" style="stroke:#000000; stroke-linecap:round; stroke-linejoin:round; stroke-width:4; stroke-opacity:1; fill:none" points="268.682,1423.18 268.682,1404.28 "/>
<polyline clip-path="url(#clip280)" style="stroke:#000000; stroke-linecap:round; stroke-linejoin:round; stroke-width:4; stroke-opacity:1; fill:none" points="885.31,1423.18 885.31,1404.28 "/>
<polyline clip-path="url(#clip280)" style="stroke:#000000; stroke-linecap:round; stroke-linejoin:round; stroke-width:4; stroke-opacity:1; fill:none" points="1501.94,1423.18 1501.94,1404.28 "/>
<polyline clip-path="url(#clip280)" style="stroke:#000000; stroke-linecap:round; stroke-linejoin:round; stroke-width:4; stroke-opacity:1; fill:none" points="2118.57,1423.18 2118.57,1404.28 "/>
<polyline clip-path="url(#clip280)" style="stroke:#000000; stroke-linecap:round; stroke-linejoin:round; stroke-width:4; stroke-opacity:1; fill:none" points="268.682,47.2441 268.682,66.1417 "/>
<polyline clip-path="url(#clip280)" style="stroke:#000000; stroke-linecap:round; stroke-linejoin:round; stroke-width:4; stroke-opacity:1; fill:none" points="885.31,47.2441 885.31,66.1417 "/>
<polyline clip-path="url(#clip280)" style="stroke:#000000; stroke-linecap:round; stroke-linejoin:round; stroke-width:4; stroke-opacity:1; fill:none" points="1501.94,47.2441 1501.94,66.1417 "/>
<polyline clip-path="url(#clip280)" style="stroke:#000000; stroke-linecap:round; stroke-linejoin:round; stroke-width:4; stroke-opacity:1; fill:none" points="2118.57,47.2441 2118.57,66.1417 "/>
<path clip-path="url(#clip280)" d="M231.391 1466.44 Q228.243 1466.44 226.391 1468.59 Q224.562 1470.74 224.562 1474.49 Q224.562 1478.22 226.391 1480.39 Q228.243 1482.55 231.391 1482.55 Q234.539 1482.55 236.368 1480.39 Q238.22 1478.22 238.22 1474.49 Q238.22 1470.74 236.368 1468.59 Q234.539 1466.44 231.391 1466.44 M240.673 1451.78 L240.673 1456.04 Q238.914 1455.21 237.109 1454.77 Q235.326 1454.33 233.567 1454.33 Q228.937 1454.33 226.484 1457.45 Q224.053 1460.58 223.706 1466.9 Q225.072 1464.89 227.132 1463.82 Q229.192 1462.73 231.669 1462.73 Q236.877 1462.73 239.886 1465.9 Q242.919 1469.05 242.919 1474.49 Q242.919 1479.82 239.771 1483.03 Q236.622 1486.25 231.391 1486.25 Q225.396 1486.25 222.224 1481.67 Q219.053 1477.06 219.053 1468.33 Q219.053 1460.14 222.942 1455.28 Q226.831 1450.39 233.382 1450.39 Q235.141 1450.39 236.923 1450.74 Q238.729 1451.09 240.673 1451.78 Z" fill="#000000" fill-rule="nonzero" fill-opacity="1" /><path clip-path="url(#clip280)" d="M251.02 1451.02 L269.377 1451.02 L269.377 1454.96 L255.303 1454.96 L255.303 1463.43 Q256.321 1463.08 257.34 1462.92 Q258.358 1462.73 259.377 1462.73 Q265.164 1462.73 268.544 1465.9 Q271.923 1469.08 271.923 1474.49 Q271.923 1480.07 268.451 1483.17 Q264.979 1486.25 258.659 1486.25 Q256.483 1486.25 254.215 1485.88 Q251.97 1485.51 249.562 1484.77 L249.562 1480.07 Q251.645 1481.2 253.868 1481.76 Q256.09 1482.32 258.567 1482.32 Q262.571 1482.32 264.909 1480.21 Q267.247 1478.1 267.247 1474.49 Q267.247 1470.88 264.909 1468.77 Q262.571 1466.67 258.567 1466.67 Q256.692 1466.67 254.817 1467.08 Q252.965 1467.5 251.02 1468.38 L251.02 1451.02 Z" fill="#000000" fill-rule="nonzero" fill-opacity="1" /><path clip-path="url(#clip280)" d="M281.136 1479.7 L286.02 1479.7 L286.02 1485.58 L281.136 1485.58 L281.136 1479.7 Z" fill="#000000" fill-rule="nonzero" fill-opacity="1" /><path clip-path="url(#clip280)" d="M306.784 1466.44 Q303.636 1466.44 301.784 1468.59 Q299.955 1470.74 299.955 1474.49 Q299.955 1478.22 301.784 1480.39 Q303.636 1482.55 306.784 1482.55 Q309.932 1482.55 311.761 1480.39 Q313.613 1478.22 313.613 1474.49 Q313.613 1470.74 311.761 1468.59 Q309.932 1466.44 306.784 1466.44 M316.066 1451.78 L316.066 1456.04 Q314.307 1455.21 312.502 1454.77 Q310.719 1454.33 308.96 1454.33 Q304.33 1454.33 301.877 1457.45 Q299.446 1460.58 299.099 1466.9 Q300.465 1464.89 302.525 1463.82 Q304.585 1462.73 307.062 1462.73 Q312.27 1462.73 315.279 1465.9 Q318.312 1469.05 318.312 1474.49 Q318.312 1479.82 315.164 1483.03 Q312.016 1486.25 306.784 1486.25 Q300.789 1486.25 297.617 1481.67 Q294.446 1477.06 294.446 1468.33 Q294.446 1460.14 298.335 1455.28 Q302.224 1450.39 308.775 1450.39 Q310.534 1450.39 312.316 1450.74 Q314.122 1451.09 316.066 1451.78 Z" fill="#000000" fill-rule="nonzero" fill-opacity="1" /><path clip-path="url(#clip280)" d="M848.551 1466.44 Q845.403 1466.44 843.551 1468.59 Q841.723 1470.74 841.723 1474.49 Q841.723 1478.22 843.551 1480.39 Q845.403 1482.55 848.551 1482.55 Q851.699 1482.55 853.528 1480.39 Q855.38 1478.22 855.38 1474.49 Q855.38 1470.74 853.528 1468.59 Q851.699 1466.44 848.551 1466.44 M857.834 1451.78 L857.834 1456.04 Q856.074 1455.21 854.269 1454.77 Q852.486 1454.33 850.727 1454.33 Q846.097 1454.33 843.644 1457.45 Q841.213 1460.58 840.866 1466.9 Q842.232 1464.89 844.292 1463.82 Q846.352 1462.73 848.829 1462.73 Q854.037 1462.73 857.046 1465.9 Q860.079 1469.05 860.079 1474.49 Q860.079 1479.82 856.931 1483.03 Q853.783 1486.25 848.551 1486.25 Q842.556 1486.25 839.385 1481.67 Q836.213 1477.06 836.213 1468.33 Q836.213 1460.14 840.102 1455.28 Q843.991 1450.39 850.542 1450.39 Q852.301 1450.39 854.084 1450.74 Q855.889 1451.09 857.834 1451.78 Z" fill="#000000" fill-rule="nonzero" fill-opacity="1" /><path clip-path="url(#clip280)" d="M868.181 1451.02 L886.537 1451.02 L886.537 1454.96 L872.463 1454.96 L872.463 1463.43 Q873.482 1463.08 874.5 1462.92 Q875.519 1462.73 876.537 1462.73 Q882.324 1462.73 885.704 1465.9 Q889.083 1469.08 889.083 1474.49 Q889.083 1480.07 885.611 1483.17 Q882.139 1486.25 875.82 1486.25 Q873.644 1486.25 871.375 1485.88 Q869.13 1485.51 866.722 1484.77 L866.722 1480.07 Q868.806 1481.2 871.028 1481.76 Q873.25 1482.32 875.727 1482.32 Q879.732 1482.32 882.07 1480.21 Q884.407 1478.1 884.407 1474.49 Q884.407 1470.88 882.07 1468.77 Q879.732 1466.67 875.727 1466.67 Q873.852 1466.67 871.977 1467.08 Q870.125 1467.5 868.181 1468.38 L868.181 1451.02 Z" fill="#000000" fill-rule="nonzero" fill-opacity="1" /><path clip-path="url(#clip280)" d="M898.296 1479.7 L903.181 1479.7 L903.181 1485.58 L898.296 1485.58 L898.296 1479.7 Z" fill="#000000" fill-rule="nonzero" fill-opacity="1" /><path clip-path="url(#clip280)" d="M912.185 1451.02 L934.407 1451.02 L934.407 1453.01 L921.861 1485.58 L916.977 1485.58 L928.782 1454.96 L912.185 1454.96 L912.185 1451.02 Z" fill="#000000" fill-rule="nonzero" fill-opacity="1" /><path clip-path="url(#clip280)" d="M1464.77 1466.44 Q1461.63 1466.44 1459.77 1468.59 Q1457.95 1470.74 1457.95 1474.49 Q1457.95 1478.22 1459.77 1480.39 Q1461.63 1482.55 1464.77 1482.55 Q1467.92 1482.55 1469.75 1480.39 Q1471.6 1478.22 1471.6 1474.49 Q1471.6 1470.74 1469.75 1468.59 Q1467.92 1466.44 1464.77 1466.44 M1474.06 1451.78 L1474.06 1456.04 Q1472.3 1455.21 1470.49 1454.77 Q1468.71 1454.33 1466.95 1454.33 Q1462.32 1454.33 1459.87 1457.45 Q1457.44 1460.58 1457.09 1466.9 Q1458.45 1464.89 1460.51 1463.82 Q1462.57 1462.73 1465.05 1462.73 Q1470.26 1462.73 1473.27 1465.9 Q1476.3 1469.05 1476.3 1474.49 Q1476.3 1479.82 1473.15 1483.03 Q1470.01 1486.25 1464.77 1486.25 Q1458.78 1486.25 1455.61 1481.67 Q1452.44 1477.06 1452.44 1468.33 Q1452.44 1460.14 1456.32 1455.28 Q1460.21 1450.39 1466.76 1450.39 Q1468.52 1450.39 1470.31 1450.74 Q1472.11 1451.09 1474.06 1451.78 Z" fill="#000000" fill-rule="nonzero" fill-opacity="1" /><path clip-path="url(#clip280)" d="M1484.4 1451.02 L1502.76 1451.02 L1502.76 1454.96 L1488.69 1454.96 L1488.69 1463.43 Q1489.7 1463.08 1490.72 1462.92 Q1491.74 1462.73 1492.76 1462.73 Q1498.55 1462.73 1501.93 1465.9 Q1505.31 1469.08 1505.31 1474.49 Q1505.31 1480.07 1501.83 1483.17 Q1498.36 1486.25 1492.04 1486.25 Q1489.87 1486.25 1487.6 1485.88 Q1485.35 1485.51 1482.95 1484.77 L1482.95 1480.07 Q1485.03 1481.2 1487.25 1481.76 Q1489.47 1482.32 1491.95 1482.32 Q1495.95 1482.32 1498.29 1480.21 Q1500.63 1478.1 1500.63 1474.49 Q1500.63 1470.88 1498.29 1468.77 Q1495.95 1466.67 1491.95 1466.67 Q1490.07 1466.67 1488.2 1467.08 Q1486.35 1467.5 1484.4 1468.38 L1484.4 1451.02 Z" fill="#000000" fill-rule="nonzero" fill-opacity="1" /><path clip-path="url(#clip280)" d="M1514.52 1479.7 L1519.4 1479.7 L1519.4 1485.58 L1514.52 1485.58 L1514.52 1479.7 Z" fill="#000000" fill-rule="nonzero" fill-opacity="1" /><path clip-path="url(#clip280)" d="M1539.59 1469.17 Q1536.25 1469.17 1534.33 1470.95 Q1532.44 1472.73 1532.44 1475.86 Q1532.44 1478.98 1534.33 1480.77 Q1536.25 1482.55 1539.59 1482.55 Q1542.92 1482.55 1544.84 1480.77 Q1546.76 1478.96 1546.76 1475.86 Q1546.76 1472.73 1544.84 1470.95 Q1542.94 1469.17 1539.59 1469.17 M1534.91 1467.18 Q1531.9 1466.44 1530.21 1464.38 Q1528.55 1462.32 1528.55 1459.35 Q1528.55 1455.21 1531.49 1452.8 Q1534.45 1450.39 1539.59 1450.39 Q1544.75 1450.39 1547.69 1452.8 Q1550.63 1455.21 1550.63 1459.35 Q1550.63 1462.32 1548.94 1464.38 Q1547.27 1466.44 1544.29 1467.18 Q1547.67 1467.96 1549.54 1470.26 Q1551.44 1472.55 1551.44 1475.86 Q1551.44 1480.88 1548.36 1483.57 Q1545.31 1486.25 1539.59 1486.25 Q1533.87 1486.25 1530.79 1483.57 Q1527.74 1480.88 1527.74 1475.86 Q1527.74 1472.55 1529.63 1470.26 Q1531.53 1467.96 1534.91 1467.18 M1533.2 1459.79 Q1533.2 1462.48 1534.87 1463.98 Q1536.56 1465.49 1539.59 1465.49 Q1542.6 1465.49 1544.29 1463.98 Q1546 1462.48 1546 1459.79 Q1546 1457.11 1544.29 1455.6 Q1542.6 1454.1 1539.59 1454.1 Q1536.56 1454.1 1534.87 1455.6 Q1533.2 1457.11 1533.2 1459.79 Z" fill="#000000" fill-rule="nonzero" fill-opacity="1" /><path clip-path="url(#clip280)" d="M2081.45 1466.44 Q2078.3 1466.44 2076.45 1468.59 Q2074.62 1470.74 2074.62 1474.49 Q2074.62 1478.22 2076.45 1480.39 Q2078.3 1482.55 2081.45 1482.55 Q2084.6 1482.55 2086.42 1480.39 Q2088.28 1478.22 2088.28 1474.49 Q2088.28 1470.74 2086.42 1468.59 Q2084.6 1466.44 2081.45 1466.44 M2090.73 1451.78 L2090.73 1456.04 Q2088.97 1455.21 2087.17 1454.77 Q2085.38 1454.33 2083.62 1454.33 Q2078.99 1454.33 2076.54 1457.45 Q2074.11 1460.58 2073.76 1466.9 Q2075.13 1464.89 2077.19 1463.82 Q2079.25 1462.73 2081.73 1462.73 Q2086.93 1462.73 2089.94 1465.9 Q2092.98 1469.05 2092.98 1474.49 Q2092.98 1479.82 2089.83 1483.03 Q2086.68 1486.25 2081.45 1486.25 Q2075.45 1486.25 2072.28 1481.67 Q2069.11 1477.06 2069.11 1468.33 Q2069.11 1460.14 2073 1455.28 Q2076.89 1450.39 2083.44 1450.39 Q2085.2 1450.39 2086.98 1450.74 Q2088.79 1451.09 2090.73 1451.78 Z" fill="#000000" fill-rule="nonzero" fill-opacity="1" /><path clip-path="url(#clip280)" d="M2101.08 1451.02 L2119.43 1451.02 L2119.43 1454.96 L2105.36 1454.96 L2105.36 1463.43 Q2106.38 1463.08 2107.4 1462.92 Q2108.42 1462.73 2109.43 1462.73 Q2115.22 1462.73 2118.6 1465.9 Q2121.98 1469.08 2121.98 1474.49 Q2121.98 1480.07 2118.51 1483.17 Q2115.04 1486.25 2108.72 1486.25 Q2106.54 1486.25 2104.27 1485.88 Q2102.03 1485.51 2099.62 1484.77 L2099.62 1480.07 Q2101.7 1481.2 2103.92 1481.76 Q2106.15 1482.32 2108.62 1482.32 Q2112.63 1482.32 2114.97 1480.21 Q2117.3 1478.1 2117.3 1474.49 Q2117.3 1470.88 2114.97 1468.77 Q2112.63 1466.67 2108.62 1466.67 Q2106.75 1466.67 2104.87 1467.08 Q2103.02 1467.5 2101.08 1468.38 L2101.08 1451.02 Z" fill="#000000" fill-rule="nonzero" fill-opacity="1" /><path clip-path="url(#clip280)" d="M2131.19 1479.7 L2136.08 1479.7 L2136.08 1485.58 L2131.19 1485.58 L2131.19 1479.7 Z" fill="#000000" fill-rule="nonzero" fill-opacity="1" /><path clip-path="url(#clip280)" d="M2146.4 1484.86 L2146.4 1480.6 Q2148.16 1481.44 2149.97 1481.88 Q2151.77 1482.32 2153.51 1482.32 Q2158.14 1482.32 2160.57 1479.21 Q2163.02 1476.09 2163.37 1469.75 Q2162.03 1471.74 2159.97 1472.8 Q2157.91 1473.87 2155.41 1473.87 Q2150.22 1473.87 2147.19 1470.74 Q2144.18 1467.59 2144.18 1462.15 Q2144.18 1456.83 2147.33 1453.61 Q2150.48 1450.39 2155.71 1450.39 Q2161.7 1450.39 2164.85 1455 Q2168.02 1459.58 2168.02 1468.33 Q2168.02 1476.51 2164.13 1481.39 Q2160.27 1486.25 2153.72 1486.25 Q2151.96 1486.25 2150.15 1485.9 Q2148.35 1485.56 2146.4 1484.86 M2155.71 1470.21 Q2158.85 1470.21 2160.68 1468.06 Q2162.54 1465.9 2162.54 1462.15 Q2162.54 1458.43 2160.68 1456.27 Q2158.85 1454.1 2155.71 1454.1 Q2152.56 1454.1 2150.71 1456.27 Q2148.88 1458.43 2148.88 1462.15 Q2148.88 1465.9 2150.71 1468.06 Q2152.56 1470.21 2155.71 1470.21 Z" fill="#000000" fill-rule="nonzero" fill-opacity="1" /><path clip-path="url(#clip280)" d="M1156.27 1526.86 L1147.54 1550.51 L1165.02 1550.51 L1156.27 1526.86 M1152.64 1520.52 L1159.93 1520.52 L1178.04 1568.04 L1171.35 1568.04 L1167.02 1555.85 L1145.6 1555.85 L1141.27 1568.04 L1134.49 1568.04 L1152.64 1520.52 Z" fill="#000000" fill-rule="nonzero" fill-opacity="1" /><path clip-path="url(#clip280)" d="M1208.18 1549.81 Q1208.18 1543.44 1205.54 1539.94 Q1202.93 1536.44 1198.18 1536.44 Q1193.47 1536.44 1190.83 1539.94 Q1188.22 1543.44 1188.22 1549.81 Q1188.22 1556.14 1190.83 1559.64 Q1193.47 1563.14 1198.18 1563.14 Q1202.93 1563.14 1205.54 1559.64 Q1208.18 1556.14 1208.18 1549.81 M1214.03 1563.62 Q1214.03 1572.72 1209.99 1577.15 Q1205.95 1581.6 1197.61 1581.6 Q1194.52 1581.6 1191.79 1581.13 Q1189.05 1580.68 1186.47 1579.72 L1186.47 1574.03 Q1189.05 1575.43 1191.56 1576.1 Q1194.08 1576.76 1196.69 1576.76 Q1202.45 1576.76 1205.31 1573.74 Q1208.18 1570.75 1208.18 1564.67 L1208.18 1561.77 Q1206.36 1564.92 1203.53 1566.48 Q1200.7 1568.04 1196.75 1568.04 Q1190.19 1568.04 1186.18 1563.05 Q1182.17 1558.05 1182.17 1549.81 Q1182.17 1541.53 1186.18 1536.53 Q1190.19 1531.54 1196.75 1531.54 Q1200.7 1531.54 1203.53 1533.1 Q1206.36 1534.66 1208.18 1537.81 L1208.18 1532.4 L1214.03 1532.4 L1214.03 1563.62 Z" fill="#000000" fill-rule="nonzero" fill-opacity="1" /><path clip-path="url(#clip280)" d="M1256.59 1548.76 L1256.59 1551.62 L1229.66 1551.62 Q1230.04 1557.67 1233.29 1560.85 Q1236.57 1564 1242.39 1564 Q1245.77 1564 1248.92 1563.17 Q1252.1 1562.35 1255.22 1560.69 L1255.22 1566.23 Q1252.07 1567.57 1248.76 1568.27 Q1245.45 1568.97 1242.04 1568.97 Q1233.51 1568.97 1228.52 1564 Q1223.55 1559.04 1223.55 1550.57 Q1223.55 1541.82 1228.26 1536.69 Q1233 1531.54 1241.02 1531.54 Q1248.22 1531.54 1252.39 1536.18 Q1256.59 1540.8 1256.59 1548.76 M1250.73 1547.04 Q1250.67 1542.23 1248.03 1539.37 Q1245.42 1536.5 1241.09 1536.5 Q1236.19 1536.5 1233.23 1539.27 Q1230.3 1542.04 1229.85 1547.07 L1250.73 1547.04 Z" fill="#000000" fill-rule="nonzero" fill-opacity="1" /><path clip-path="url(#clip280)" d="M1300.99 1518.58 Q1296.72 1525.9 1294.66 1533.06 Q1292.59 1540.23 1292.59 1547.58 Q1292.59 1554.93 1294.66 1562.16 Q1296.76 1569.35 1300.99 1576.64 L1295.9 1576.64 Q1291.12 1569.16 1288.74 1561.93 Q1286.38 1554.71 1286.38 1547.58 Q1286.38 1540.48 1288.74 1533.29 Q1291.09 1526.09 1295.9 1518.58 L1300.99 1518.58 Z" fill="#000000" fill-rule="nonzero" fill-opacity="1" /><path clip-path="url(#clip280)" d="M1312.61 1520.52 L1322.19 1520.52 L1334.31 1552.86 L1346.5 1520.52 L1356.09 1520.52 L1356.09 1568.04 L1349.81 1568.04 L1349.81 1526.32 L1337.56 1558.91 L1331.1 1558.91 L1318.85 1526.32 L1318.85 1568.04 L1312.61 1568.04 L1312.61 1520.52 Z" fill="#000000" fill-rule="nonzero" fill-opacity="1" /><path clip-path="url(#clip280)" d="M1384.79 1550.12 Q1377.7 1550.12 1374.96 1551.75 Q1372.22 1553.37 1372.22 1557.29 Q1372.22 1560.4 1374.26 1562.25 Q1376.33 1564.07 1379.86 1564.07 Q1384.73 1564.07 1387.66 1560.63 Q1390.62 1557.16 1390.62 1551.43 L1390.62 1550.12 L1384.79 1550.12 M1396.48 1547.71 L1396.48 1568.04 L1390.62 1568.04 L1390.62 1562.63 Q1388.61 1565.88 1385.62 1567.44 Q1382.63 1568.97 1378.3 1568.97 Q1372.83 1568.97 1369.58 1565.91 Q1366.37 1562.82 1366.37 1557.67 Q1366.37 1551.65 1370.38 1548.6 Q1374.42 1545.54 1382.41 1545.54 L1390.62 1545.54 L1390.62 1544.97 Q1390.62 1540.93 1387.95 1538.73 Q1385.3 1536.5 1380.5 1536.5 Q1377.44 1536.5 1374.55 1537.23 Q1371.65 1537.97 1368.98 1539.43 L1368.98 1534.02 Q1372.19 1532.78 1375.21 1532.17 Q1378.24 1531.54 1381.1 1531.54 Q1388.84 1531.54 1392.66 1535.55 Q1396.48 1539.56 1396.48 1547.71 Z" fill="#000000" fill-rule="nonzero" fill-opacity="1" /><path clip-path="url(#clip280)" d="M1407.62 1518.58 L1412.71 1518.58 Q1417.48 1526.09 1419.84 1533.29 Q1422.22 1540.48 1422.22 1547.58 Q1422.22 1554.71 1419.84 1561.93 Q1417.48 1569.16 1412.71 1576.64 L1407.62 1576.64 Q1411.85 1569.35 1413.92 1562.16 Q1416.02 1554.93 1416.02 1547.58 Q1416.02 1540.23 1413.92 1533.06 Q1411.85 1525.9 1407.62 1518.58 Z" fill="#000000" fill-rule="nonzero" fill-opacity="1" /><polyline clip-path="url(#clip280)" style="stroke:#000000; stroke-linecap:round; stroke-linejoin:round; stroke-width:4; stroke-opacity:1; fill:none" points="203.964,1423.18 203.964,47.2441 "/>
<polyline clip-path="url(#clip280)" style="stroke:#000000; stroke-linecap:round; stroke-linejoin:round; stroke-width:4; stroke-opacity:1; fill:none" points="2352.76,1423.18 2352.76,47.2441 "/>
<polyline clip-path="url(#clip280)" style="stroke:#000000; stroke-linecap:round; stroke-linejoin:round; stroke-width:4; stroke-opacity:1; fill:none" points="203.964,1384.24 222.861,1384.24 "/>
<polyline clip-path="url(#clip280)" style="stroke:#000000; stroke-linecap:round; stroke-linejoin:round; stroke-width:4; stroke-opacity:1; fill:none" points="203.964,1069.44 222.861,1069.44 "/>
<polyline clip-path="url(#clip280)" style="stroke:#000000; stroke-linecap:round; stroke-linejoin:round; stroke-width:4; stroke-opacity:1; fill:none" points="203.964,754.628 222.861,754.628 "/>
<polyline clip-path="url(#clip280)" style="stroke:#000000; stroke-linecap:round; stroke-linejoin:round; stroke-width:4; stroke-opacity:1; fill:none" points="203.964,439.82 222.861,439.82 "/>
<polyline clip-path="url(#clip280)" style="stroke:#000000; stroke-linecap:round; stroke-linejoin:round; stroke-width:4; stroke-opacity:1; fill:none" points="203.964,125.012 222.861,125.012 "/>
<polyline clip-path="url(#clip280)" style="stroke:#000000; stroke-linecap:round; stroke-linejoin:round; stroke-width:4; stroke-opacity:1; fill:none" points="2352.76,1384.24 2333.86,1384.24 "/>
<polyline clip-path="url(#clip280)" style="stroke:#000000; stroke-linecap:round; stroke-linejoin:round; stroke-width:4; stroke-opacity:1; fill:none" points="2352.76,1069.44 2333.86,1069.44 "/>
<polyline clip-path="url(#clip280)" style="stroke:#000000; stroke-linecap:round; stroke-linejoin:round; stroke-width:4; stroke-opacity:1; fill:none" points="2352.76,754.628 2333.86,754.628 "/>
<polyline clip-path="url(#clip280)" style="stroke:#000000; stroke-linecap:round; stroke-linejoin:round; stroke-width:4; stroke-opacity:1; fill:none" points="2352.76,439.82 2333.86,439.82 "/>
<polyline clip-path="url(#clip280)" style="stroke:#000000; stroke-linecap:round; stroke-linejoin:round; stroke-width:4; stroke-opacity:1; fill:none" points="2352.76,125.012 2333.86,125.012 "/>
<path clip-path="url(#clip280)" d="M156.019 1370.04 Q152.408 1370.04 150.579 1373.61 Q148.774 1377.15 148.774 1384.28 Q148.774 1391.38 150.579 1394.95 Q152.408 1398.49 156.019 1398.49 Q159.653 1398.49 161.459 1394.95 Q163.288 1391.38 163.288 1384.28 Q163.288 1377.15 161.459 1373.61 Q159.653 1370.04 156.019 1370.04 M156.019 1366.34 Q161.829 1366.34 164.885 1370.95 Q167.964 1375.53 167.964 1384.28 Q167.964 1393.01 164.885 1397.61 Q161.829 1402.19 156.019 1402.19 Q150.209 1402.19 147.13 1397.61 Q144.075 1393.01 144.075 1384.28 Q144.075 1375.53 147.13 1370.95 Q150.209 1366.34 156.019 1366.34 Z" fill="#000000" fill-rule="nonzero" fill-opacity="1" /><path clip-path="url(#clip280)" d="M147.061 1052.16 L165.417 1052.16 L165.417 1056.09 L151.343 1056.09 L151.343 1064.56 Q152.362 1064.22 153.38 1064.05 Q154.399 1063.87 155.417 1063.87 Q161.204 1063.87 164.584 1067.04 Q167.964 1070.21 167.964 1075.63 Q167.964 1081.21 164.491 1084.31 Q161.019 1087.39 154.7 1087.39 Q152.524 1087.39 150.255 1087.02 Q148.01 1086.65 145.603 1085.91 L145.603 1081.21 Q147.686 1082.34 149.908 1082.9 Q152.13 1083.45 154.607 1083.45 Q158.612 1083.45 160.95 1081.35 Q163.288 1079.24 163.288 1075.63 Q163.288 1072.02 160.95 1069.91 Q158.612 1067.8 154.607 1067.8 Q152.732 1067.8 150.857 1068.22 Q149.005 1068.64 147.061 1069.52 L147.061 1052.16 Z" fill="#000000" fill-rule="nonzero" fill-opacity="1" /><path clip-path="url(#clip280)" d="M116.668 767.973 L124.306 767.973 L124.306 741.607 L115.996 743.274 L115.996 739.015 L124.26 737.348 L128.936 737.348 L128.936 767.973 L136.575 767.973 L136.575 771.908 L116.668 771.908 L116.668 767.973 Z" fill="#000000" fill-rule="nonzero" fill-opacity="1" /><path clip-path="url(#clip280)" d="M156.019 740.427 Q152.408 740.427 150.579 743.991 Q148.774 747.533 148.774 754.663 Q148.774 761.769 150.579 765.334 Q152.408 768.875 156.019 768.875 Q159.653 768.875 161.459 765.334 Q163.288 761.769 163.288 754.663 Q163.288 747.533 161.459 743.991 Q159.653 740.427 156.019 740.427 M156.019 736.723 Q161.829 736.723 164.885 741.329 Q167.964 745.913 167.964 754.663 Q167.964 763.389 164.885 767.996 Q161.829 772.579 156.019 772.579 Q150.209 772.579 147.13 767.996 Q144.075 763.389 144.075 754.663 Q144.075 745.913 147.13 741.329 Q150.209 736.723 156.019 736.723 Z" fill="#000000" fill-rule="nonzero" fill-opacity="1" /><path clip-path="url(#clip280)" d="M117.663 453.165 L125.302 453.165 L125.302 426.799 L116.992 428.466 L116.992 424.207 L125.255 422.54 L129.931 422.54 L129.931 453.165 L137.57 453.165 L137.57 457.1 L117.663 457.1 L117.663 453.165 Z" fill="#000000" fill-rule="nonzero" fill-opacity="1" /><path clip-path="url(#clip280)" d="M147.061 422.54 L165.417 422.54 L165.417 426.475 L151.343 426.475 L151.343 434.947 Q152.362 434.6 153.38 434.438 Q154.399 434.253 155.417 434.253 Q161.204 434.253 164.584 437.424 Q167.964 440.595 167.964 446.012 Q167.964 451.591 164.491 454.693 Q161.019 457.771 154.7 457.771 Q152.524 457.771 150.255 457.401 Q148.01 457.031 145.603 456.29 L145.603 451.591 Q147.686 452.725 149.908 453.281 Q152.13 453.836 154.607 453.836 Q158.612 453.836 160.95 451.73 Q163.288 449.623 163.288 446.012 Q163.288 442.401 160.95 440.295 Q158.612 438.188 154.607 438.188 Q152.732 438.188 150.857 438.605 Q149.005 439.021 147.061 439.901 L147.061 422.54 Z" fill="#000000" fill-rule="nonzero" fill-opacity="1" /><path clip-path="url(#clip280)" d="M119.885 138.357 L136.204 138.357 L136.204 142.292 L114.26 142.292 L114.26 138.357 Q116.922 135.602 121.505 130.973 Q126.112 126.32 127.292 124.977 Q129.538 122.454 130.417 120.718 Q131.32 118.959 131.32 117.269 Q131.32 114.515 129.376 112.778 Q127.455 111.042 124.353 111.042 Q122.154 111.042 119.7 111.806 Q117.269 112.57 114.492 114.121 L114.492 109.399 Q117.316 108.265 119.769 107.686 Q122.223 107.107 124.26 107.107 Q129.63 107.107 132.825 109.792 Q136.019 112.477 136.019 116.968 Q136.019 119.098 135.209 121.019 Q134.422 122.917 132.316 125.51 Q131.737 126.181 128.635 129.399 Q125.533 132.593 119.885 138.357 Z" fill="#000000" fill-rule="nonzero" fill-opacity="1" /><path clip-path="url(#clip280)" d="M156.019 110.811 Q152.408 110.811 150.579 114.376 Q148.774 117.917 148.774 125.047 Q148.774 132.153 150.579 135.718 Q152.408 139.26 156.019 139.26 Q159.653 139.26 161.459 135.718 Q163.288 132.153 163.288 125.047 Q163.288 117.917 161.459 114.376 Q159.653 110.811 156.019 110.811 M156.019 107.107 Q161.829 107.107 164.885 111.714 Q167.964 116.297 167.964 125.047 Q167.964 133.774 164.885 138.38 Q161.829 142.963 156.019 142.963 Q150.209 142.963 147.13 138.38 Q144.075 133.774 144.075 125.047 Q144.075 116.297 147.13 111.714 Q150.209 107.107 156.019 107.107 Z" fill="#000000" fill-rule="nonzero" fill-opacity="1" /><path clip-path="url(#clip280)" d="M21.7677 1026.76 L39.6235 1026.76 L39.6235 1018.68 Q39.6235 1014.19 37.3 1011.74 Q34.9765 1009.29 30.6797 1009.29 Q26.4147 1009.29 24.0912 1011.74 Q21.7677 1014.19 21.7677 1018.68 L21.7677 1026.76 M16.4842 1033.19 L16.4842 1018.68 Q16.4842 1010.69 20.1126 1006.61 Q23.7092 1002.51 30.6797 1002.51 Q37.7138 1002.51 41.3104 1006.61 Q44.907 1010.69 44.907 1018.68 L44.907 1026.76 L64.0042 1026.76 L64.0042 1033.19 L16.4842 1033.19 Z" fill="#000000" fill-rule="nonzero" fill-opacity="1" /><path clip-path="url(#clip280)" d="M33.8307 974.626 Q33.2578 975.613 33.0032 976.791 Q32.7167 977.936 32.7167 979.337 Q32.7167 984.302 35.9632 986.976 Q39.1779 989.617 45.2253 989.617 L64.0042 989.617 L64.0042 995.506 L28.3562 995.506 L28.3562 989.617 L33.8944 989.617 Q30.6479 987.771 29.0883 984.811 Q27.4968 981.851 27.4968 977.618 Q27.4968 977.013 27.5923 976.281 Q27.656 975.549 27.8151 974.658 L33.8307 974.626 Z" fill="#000000" fill-rule="nonzero" fill-opacity="1" /><path clip-path="url(#clip280)" d="M32.4621 956.102 Q32.4621 960.813 36.1542 963.55 Q39.8145 966.287 46.212 966.287 Q52.6095 966.287 56.3017 963.582 Q59.9619 960.844 59.9619 956.102 Q59.9619 951.423 56.2698 948.686 Q52.5777 945.949 46.212 945.949 Q39.8781 945.949 36.186 948.686 Q32.4621 951.423 32.4621 956.102 M27.4968 956.102 Q27.4968 948.463 32.4621 944.103 Q37.4273 939.742 46.212 939.742 Q54.9649 939.742 59.9619 944.103 Q64.9272 948.463 64.9272 956.102 Q64.9272 963.773 59.9619 968.133 Q54.9649 972.462 46.212 972.462 Q37.4273 972.462 32.4621 968.133 Q27.4968 963.773 27.4968 956.102 Z" fill="#000000" fill-rule="nonzero" fill-opacity="1" /><path clip-path="url(#clip280)" d="M46.212 904.444 Q39.7508 904.444 36.0905 907.118 Q32.3984 909.76 32.3984 914.407 Q32.3984 919.054 36.0905 921.727 Q39.7508 924.369 46.212 924.369 Q52.6732 924.369 56.3653 921.727 Q60.0256 919.054 60.0256 914.407 Q60.0256 909.76 56.3653 907.118 Q52.6732 904.444 46.212 904.444 M33.7671 924.369 Q30.5842 922.523 29.0564 919.722 Q27.4968 916.889 27.4968 912.974 Q27.4968 906.481 32.6531 902.439 Q37.8093 898.365 46.212 898.365 Q54.6147 898.365 59.771 902.439 Q64.9272 906.481 64.9272 912.974 Q64.9272 916.889 63.3994 919.722 Q61.8398 922.523 58.657 924.369 L64.0042 924.369 L64.0042 930.257 L14.479 930.257 L14.479 924.369 L33.7671 924.369 Z" fill="#000000" fill-rule="nonzero" fill-opacity="1" /><path clip-path="url(#clip280)" d="M46.0847 872.457 Q46.0847 879.554 47.7079 882.292 Q49.3312 885.029 53.2461 885.029 Q56.3653 885.029 58.2114 882.992 Q60.0256 880.923 60.0256 877.39 Q60.0256 872.52 56.5881 869.592 Q53.1188 866.632 47.3897 866.632 L46.0847 866.632 L46.0847 872.457 M43.6657 860.776 L64.0042 860.776 L64.0042 866.632 L58.5933 866.632 Q61.8398 868.637 63.3994 871.629 Q64.9272 874.621 64.9272 878.95 Q64.9272 884.424 61.8716 887.671 Q58.7843 890.885 53.6281 890.885 Q47.6125 890.885 44.5569 886.875 Q41.5014 882.833 41.5014 874.844 L41.5014 866.632 L40.9285 866.632 Q36.8862 866.632 34.6901 869.306 Q32.4621 871.947 32.4621 876.753 Q32.4621 879.809 33.1941 882.705 Q33.9262 885.602 35.3903 888.275 L29.9795 888.275 Q28.7381 885.061 28.1334 882.037 Q27.4968 879.013 27.4968 876.149 Q27.4968 868.414 31.5072 864.595 Q35.5176 860.776 43.6657 860.776 Z" fill="#000000" fill-rule="nonzero" fill-opacity="1" /><path clip-path="url(#clip280)" d="M46.212 823.122 Q39.7508 823.122 36.0905 825.796 Q32.3984 828.438 32.3984 833.085 Q32.3984 837.732 36.0905 840.405 Q39.7508 843.047 46.212 843.047 Q52.6732 843.047 56.3653 840.405 Q60.0256 837.732 60.0256 833.085 Q60.0256 828.438 56.3653 825.796 Q52.6732 823.122 46.212 823.122 M33.7671 843.047 Q30.5842 841.201 29.0564 838.4 Q27.4968 835.567 27.4968 831.652 Q27.4968 825.159 32.6531 821.117 Q37.8093 817.043 46.212 817.043 Q54.6147 817.043 59.771 821.117 Q64.9272 825.159 64.9272 831.652 Q64.9272 835.567 63.3994 838.4 Q61.8398 841.201 58.657 843.047 L64.0042 843.047 L64.0042 848.935 L14.479 848.935 L14.479 843.047 L33.7671 843.047 Z" fill="#000000" fill-rule="nonzero" fill-opacity="1" /><path clip-path="url(#clip280)" d="M28.3562 807.335 L28.3562 801.479 L64.0042 801.479 L64.0042 807.335 L28.3562 807.335 M14.479 807.335 L14.479 801.479 L21.895 801.479 L21.895 807.335 L14.479 807.335 Z" fill="#000000" fill-rule="nonzero" fill-opacity="1" /><path clip-path="url(#clip280)" d="M14.479 789.225 L14.479 783.369 L64.0042 783.369 L64.0042 789.225 L14.479 789.225 Z" fill="#000000" fill-rule="nonzero" fill-opacity="1" /><path clip-path="url(#clip280)" d="M28.3562 771.115 L28.3562 765.258 L64.0042 765.258 L64.0042 771.115 L28.3562 771.115 M14.479 771.115 L14.479 765.258 L21.895 765.258 L21.895 771.115 L14.479 771.115 Z" fill="#000000" fill-rule="nonzero" fill-opacity="1" /><path clip-path="url(#clip280)" d="M18.2347 747.211 L28.3562 747.211 L28.3562 735.148 L32.9077 735.148 L32.9077 747.211 L52.2594 747.211 Q56.6199 747.211 57.8613 746.034 Q59.1026 744.824 59.1026 741.164 L59.1026 735.148 L64.0042 735.148 L64.0042 741.164 Q64.0042 747.943 61.4897 750.521 Q58.9434 753.1 52.2594 753.1 L32.9077 753.1 L32.9077 757.396 L28.3562 757.396 L28.3562 753.1 L18.2347 753.1 L18.2347 747.211 Z" fill="#000000" fill-rule="nonzero" fill-opacity="1" /><path clip-path="url(#clip280)" d="M67.3143 712.614 Q73.68 715.096 75.6216 717.452 Q77.5631 719.807 77.5631 723.754 L77.5631 728.432 L72.6615 728.432 L72.6615 724.995 Q72.6615 722.576 71.5157 721.239 Q70.3699 719.902 66.1048 718.279 L63.4312 717.229 L28.3562 731.647 L28.3562 725.441 L56.238 714.301 L28.3562 703.161 L28.3562 696.954 L67.3143 712.614 Z" fill="#000000" fill-rule="nonzero" fill-opacity="1" /><path clip-path="url(#clip280)" d="M33.7671 644.692 L14.479 644.692 L14.479 638.835 L64.0042 638.835 L64.0042 644.692 L58.657 644.692 Q61.8398 646.538 63.3994 649.37 Q64.9272 652.171 64.9272 656.118 Q64.9272 662.579 59.771 666.653 Q54.6147 670.696 46.212 670.696 Q37.8093 670.696 32.6531 666.653 Q27.4968 662.579 27.4968 656.118 Q27.4968 652.171 29.0564 649.37 Q30.5842 646.538 33.7671 644.692 M46.212 664.648 Q52.6732 664.648 56.3653 662.006 Q60.0256 659.333 60.0256 654.686 Q60.0256 650.039 56.3653 647.365 Q52.6732 644.692 46.212 644.692 Q39.7508 644.692 36.0905 647.365 Q32.3984 650.039 32.3984 654.686 Q32.3984 659.333 36.0905 662.006 Q39.7508 664.648 46.212 664.648 Z" fill="#000000" fill-rule="nonzero" fill-opacity="1" /><path clip-path="url(#clip280)" d="M44.7161 596.28 L47.5806 596.28 L47.5806 623.207 Q53.6281 622.825 56.8109 619.579 Q59.9619 616.301 59.9619 610.476 Q59.9619 607.102 59.1344 603.951 Q58.3069 600.768 56.6518 597.649 L62.1899 597.649 Q63.5267 600.8 64.227 604.11 Q64.9272 607.42 64.9272 610.826 Q64.9272 619.356 59.9619 624.353 Q54.9967 629.318 46.5303 629.318 Q37.7774 629.318 32.6531 624.608 Q27.4968 619.865 27.4968 611.845 Q27.4968 604.651 32.1438 600.482 Q36.7589 596.28 44.7161 596.28 M42.9973 602.137 Q38.1912 602.201 35.3266 604.842 Q32.4621 607.452 32.4621 611.781 Q32.4621 616.683 35.2312 619.643 Q38.0002 622.571 43.0292 623.016 L42.9973 602.137 Z" fill="#000000" fill-rule="nonzero" fill-opacity="1" /><path clip-path="url(#clip280)" d="M42.4881 557.036 L64.0042 557.036 L64.0042 562.892 L42.679 562.892 Q37.6183 562.892 35.1038 564.866 Q32.5894 566.839 32.5894 570.786 Q32.5894 575.528 35.6131 578.265 Q38.6368 581.003 43.8567 581.003 L64.0042 581.003 L64.0042 586.891 L28.3562 586.891 L28.3562 581.003 L33.8944 581.003 Q30.6797 578.902 29.0883 576.069 Q27.4968 573.205 27.4968 569.481 Q27.4968 563.338 31.3163 560.187 Q35.1038 557.036 42.4881 557.036 Z" fill="#000000" fill-rule="nonzero" fill-opacity="1" /><path clip-path="url(#clip280)" d="M29.4065 522.629 L34.9447 522.629 Q33.6716 525.112 33.035 527.785 Q32.3984 530.459 32.3984 533.324 Q32.3984 537.684 33.7352 539.88 Q35.072 542.045 37.7456 542.045 Q39.7826 542.045 40.9603 540.485 Q42.1061 538.925 43.1565 534.215 L43.6021 532.21 Q44.9389 525.971 47.3897 523.361 Q49.8086 520.719 54.1691 520.719 Q59.1344 520.719 62.0308 524.666 Q64.9272 528.581 64.9272 535.456 Q64.9272 538.321 64.3543 541.44 Q63.8132 544.527 62.6992 547.965 L56.6518 547.965 Q58.3387 544.718 59.198 541.567 Q60.0256 538.416 60.0256 535.329 Q60.0256 531.191 58.6251 528.963 Q57.1929 526.735 54.6147 526.735 Q52.2276 526.735 50.9545 528.358 Q49.6813 529.95 48.5037 535.392 L48.0262 537.429 Q46.8804 542.872 44.5251 545.291 Q42.138 547.71 38.0002 547.71 Q32.9713 547.71 30.2341 544.145 Q27.4968 540.58 27.4968 534.024 Q27.4968 530.777 27.9743 527.913 Q28.4517 525.048 29.4065 522.629 Z" fill="#000000" fill-rule="nonzero" fill-opacity="1" /><path clip-path="url(#clip280)" d="M28.3562 511.394 L28.3562 505.537 L64.0042 505.537 L64.0042 511.394 L28.3562 511.394 M14.479 511.394 L14.479 505.537 L21.895 505.537 L21.895 511.394 L14.479 511.394 Z" fill="#000000" fill-rule="nonzero" fill-opacity="1" /><path clip-path="url(#clip280)" d="M18.2347 487.49 L28.3562 487.49 L28.3562 475.427 L32.9077 475.427 L32.9077 487.49 L52.2594 487.49 Q56.6199 487.49 57.8613 486.313 Q59.1026 485.103 59.1026 481.443 L59.1026 475.427 L64.0042 475.427 L64.0042 481.443 Q64.0042 488.223 61.4897 490.801 Q58.9434 493.379 52.2594 493.379 L32.9077 493.379 L32.9077 497.676 L28.3562 497.676 L28.3562 493.379 L18.2347 493.379 L18.2347 487.49 Z" fill="#000000" fill-rule="nonzero" fill-opacity="1" /><path clip-path="url(#clip280)" d="M67.3143 452.893 Q73.68 455.376 75.6216 457.731 Q77.5631 460.086 77.5631 464.033 L77.5631 468.712 L72.6615 468.712 L72.6615 465.274 Q72.6615 462.855 71.5157 461.518 Q70.3699 460.182 66.1048 458.558 L63.4312 457.508 L28.3562 471.926 L28.3562 465.72 L56.238 454.58 L28.3562 443.44 L28.3562 437.233 L67.3143 452.893 Z" fill="#000000" fill-rule="nonzero" fill-opacity="1" /><polyline clip-path="url(#clip282)" style="stroke:#009af9; stroke-linecap:round; stroke-linejoin:round; stroke-width:4; stroke-opacity:1; fill:none" points="264.778,1384.14 287.556,1384.23 310.333,1384.22 333.11,1384.19 355.887,1384.2 378.664,1384.21 401.441,1384.12 424.218,1384.22 446.995,1384.23 469.772,1384.21 492.55,1384.12 515.327,1384.2 538.104,1384.12 560.881,1384.16 583.658,1384.15 606.435,1384.1 629.212,1384.19 651.989,1384.05 674.766,1384 697.543,1383.99 720.321,1383.95 743.098,1383.86 765.875,1383.82 788.652,1383.38 811.429,1383.62 834.206,1383.41 856.983,1383.32 879.76,1383.31 902.537,1383.51 925.315,1382.97 948.092,1383.12 970.869,1382.19 993.646,1382.71 1016.42,1381.31 1039.2,1380.52 1061.98,1379.62 1084.75,1379.05 1107.53,1378.67 1130.31,1376.66 1153.09,1376.85 1175.86,1375.19 1198.64,1373.13 1221.42,1370.05 1244.19,1368.07 1266.97,1362.24 1289.75,1357.42 1312.53,1356.31 1335.3,1362.4 1358.08,1358.74 1380.86,1355.43 1403.63,1352.27 1426.41,1346.1 1449.19,1339 1471.97,1330.43 1494.74,1323.36 1517.52,1304.51 1540.3,1293.73 1563.07,1297 1585.85,1294.2 1608.63,1279.54 1631.4,1265.01 1654.18,1251.25 1676.96,1221.7 1699.74,1204.24 1722.51,1165.01 1745.29,1087.46 1768.07,948.855 1790.84,921.344 1813.62,966.88 1836.4,1004.91 1859.18,1018.66 1881.95,1055.71 1904.73,1087.02 1927.51,1137.66 1950.28,1176.56 1973.06,1221.51 1995.84,1272.37 2018.62,1309.71 2041.39,1334.06 2064.17,1352.36 2086.95,1363.2 2109.72,1372.01 2132.5,1377.6 2155.28,1379.68 2178.06,1382.16 2200.83,1383.68 2223.61,1384.1 2246.39,1384.21 2269.16,1384.24 2291.94,1384.24 "/>
<polyline clip-path="url(#clip282)" style="stroke:#e26f46; stroke-linecap:round; stroke-linejoin:round; stroke-width:4; stroke-opacity:1; fill:none" points="264.778,1384.24 287.556,1384.24 310.333,1384.24 333.11,1384.23 355.887,1384.23 378.664,1384.23 401.441,1384.23 424.218,1384.22 446.995,1384.22 469.772,1384.21 492.55,1384.21 515.327,1384.2 538.104,1384.19 560.881,1384.18 583.658,1384.17 606.435,1384.15 629.212,1384.14 651.989,1384.11 674.766,1384.09 697.543,1384.06 720.321,1384.02 743.098,1383.97 765.875,1383.91 788.652,1383.84 811.429,1383.76 834.206,1383.66 856.983,1383.54 879.76,1383.4 902.537,1383.22 925.315,1383.01 948.092,1382.76 970.869,1382.45 993.646,1382.08 1016.42,1381.63 1039.2,1381.09 1061.98,1380.44 1084.75,1379.65 1107.53,1378.7 1130.31,1377.56 1153.09,1376.18 1175.86,1374.51 1198.64,1372.5 1221.42,1370.07 1244.19,1367.15 1266.97,1363.62 1289.75,1359.36 1312.53,1354.23 1335.3,1348.04 1358.08,1340.57 1380.86,1331.57 1403.63,1320.73 1426.41,1307.66 1449.19,1291.91 1471.97,1272.94 1494.74,1250.12 1517.52,1222.66 1540.3,1189.65 1563.07,1150.02 1585.85,1102.52 1608.63,1045.7 1631.4,977.957 1654.18,897.579 1676.96,802.926 1699.74,692.815 1722.51,567.343 1745.29,429.549 1768.07,288.457 1790.84,163.423 1813.62,86.1857 1836.4,90.3661 1859.18,185.202 1881.95,342.93 1904.73,521.551 1927.51,690.742 1950.28,836.834 1973.06,956.882 1995.84,1052.86 2018.62,1128.38 2041.39,1187.25 2064.17,1232.86 2086.95,1268.07 2109.72,1295.17 2132.5,1316 2155.28,1331.98 2178.06,1344.24 2200.83,1353.63 2223.61,1360.82 2246.39,1366.33 2269.16,1370.54 2291.94,1373.77 "/>
<path clip-path="url(#clip280)" d="M275.59 248.629 L824.773 248.629 L824.773 93.1086 L275.59 93.1086  Z" fill="#ffffff" fill-rule="evenodd" fill-opacity="1"/>
<polyline clip-path="url(#clip280)" style="stroke:#ffffff; stroke-linecap:round; stroke-linejoin:round; stroke-width:4; stroke-opacity:1; fill:none" points="275.59,248.629 824.773,248.629 824.773,93.1086 275.59,93.1086 275.59,248.629 "/>
<polyline clip-path="url(#clip280)" style="stroke:#009af9; stroke-linecap:round; stroke-linejoin:round; stroke-width:4; stroke-opacity:1; fill:none" points="299.465,144.949 442.718,144.949 "/>
<path clip-path="url(#clip280)" d="M466.594 127.669 L471.27 127.669 L471.27 141.835 L488.26 141.835 L488.26 127.669 L492.936 127.669 L492.936 162.229 L488.26 162.229 L488.26 145.77 L471.27 145.77 L471.27 162.229 L466.594 162.229 L466.594 127.669 Z" fill="#000000" fill-rule="nonzero" fill-opacity="1" /><path clip-path="url(#clip280)" d="M502.057 136.303 L506.316 136.303 L506.316 162.229 L502.057 162.229 L502.057 136.303 M502.057 126.21 L506.316 126.21 L506.316 131.604 L502.057 131.604 L502.057 126.21 Z" fill="#000000" fill-rule="nonzero" fill-opacity="1" /><path clip-path="url(#clip280)" d="M531.755 137.067 L531.755 141.094 Q529.95 140.169 528.005 139.706 Q526.061 139.243 523.978 139.243 Q520.806 139.243 519.209 140.215 Q517.635 141.187 517.635 143.131 Q517.635 144.613 518.769 145.469 Q519.904 146.303 523.33 147.067 L524.788 147.391 Q529.325 148.363 531.223 150.145 Q533.144 151.905 533.144 155.076 Q533.144 158.687 530.274 160.793 Q527.427 162.9 522.427 162.9 Q520.343 162.9 518.075 162.483 Q515.83 162.09 513.33 161.28 L513.33 156.881 Q515.691 158.108 517.982 158.733 Q520.274 159.335 522.519 159.335 Q525.529 159.335 527.149 158.317 Q528.769 157.275 528.769 155.4 Q528.769 153.664 527.589 152.738 Q526.431 151.812 522.473 150.956 L520.992 150.608 Q517.033 149.775 515.274 148.062 Q513.515 146.326 513.515 143.317 Q513.515 139.659 516.107 137.669 Q518.7 135.678 523.468 135.678 Q525.83 135.678 527.913 136.025 Q529.996 136.372 531.755 137.067 Z" fill="#000000" fill-rule="nonzero" fill-opacity="1" /><path clip-path="url(#clip280)" d="M544.14 128.942 L544.14 136.303 L552.913 136.303 L552.913 139.613 L544.14 139.613 L544.14 153.687 Q544.14 156.858 544.996 157.761 Q545.876 158.664 548.538 158.664 L552.913 158.664 L552.913 162.229 L548.538 162.229 Q543.607 162.229 541.732 160.4 Q539.857 158.548 539.857 153.687 L539.857 139.613 L536.732 139.613 L536.732 136.303 L539.857 136.303 L539.857 128.942 L544.14 128.942 Z" fill="#000000" fill-rule="nonzero" fill-opacity="1" /><path clip-path="url(#clip280)" d="M568.561 139.289 Q565.135 139.289 563.144 141.974 Q561.153 144.636 561.153 149.289 Q561.153 153.942 563.121 156.627 Q565.112 159.289 568.561 159.289 Q571.964 159.289 573.954 156.604 Q575.945 153.918 575.945 149.289 Q575.945 144.682 573.954 141.997 Q571.964 139.289 568.561 139.289 M568.561 135.678 Q574.116 135.678 577.288 139.289 Q580.459 142.9 580.459 149.289 Q580.459 155.655 577.288 159.289 Q574.116 162.9 568.561 162.9 Q562.982 162.9 559.811 159.289 Q556.663 155.655 556.663 149.289 Q556.663 142.9 559.811 139.289 Q562.982 135.678 568.561 135.678 Z" fill="#000000" fill-rule="nonzero" fill-opacity="1" /><path clip-path="url(#clip280)" d="M604.579 148.965 Q604.579 144.335 602.658 141.789 Q600.76 139.243 597.311 139.243 Q593.885 139.243 591.963 141.789 Q590.065 144.335 590.065 148.965 Q590.065 153.571 591.963 156.118 Q593.885 158.664 597.311 158.664 Q600.76 158.664 602.658 156.118 Q604.579 153.571 604.579 148.965 M608.838 159.011 Q608.838 165.631 605.899 168.849 Q602.959 172.09 596.894 172.09 Q594.649 172.09 592.658 171.742 Q590.667 171.418 588.792 170.724 L588.792 166.58 Q590.667 167.599 592.496 168.085 Q594.325 168.571 596.223 168.571 Q600.412 168.571 602.496 166.372 Q604.579 164.196 604.579 159.775 L604.579 157.668 Q603.26 159.96 601.2 161.094 Q599.139 162.229 596.269 162.229 Q591.5 162.229 588.584 158.594 Q585.667 154.96 585.667 148.965 Q585.667 142.946 588.584 139.312 Q591.5 135.678 596.269 135.678 Q599.139 135.678 601.2 136.812 Q603.26 137.946 604.579 140.238 L604.579 136.303 L608.838 136.303 L608.838 159.011 Z" fill="#000000" fill-rule="nonzero" fill-opacity="1" /><path clip-path="url(#clip280)" d="M632.635 140.284 Q631.917 139.868 631.06 139.682 Q630.227 139.474 629.209 139.474 Q625.598 139.474 623.653 141.835 Q621.732 144.173 621.732 148.571 L621.732 162.229 L617.449 162.229 L617.449 136.303 L621.732 136.303 L621.732 140.331 Q623.074 137.969 625.227 136.835 Q627.38 135.678 630.459 135.678 Q630.898 135.678 631.431 135.747 Q631.963 135.794 632.611 135.909 L632.635 140.284 Z" fill="#000000" fill-rule="nonzero" fill-opacity="1" /><path clip-path="url(#clip280)" d="M648.884 149.196 Q643.722 149.196 641.732 150.377 Q639.741 151.557 639.741 154.405 Q639.741 156.673 641.222 158.016 Q642.727 159.335 645.296 159.335 Q648.838 159.335 650.968 156.835 Q653.121 154.312 653.121 150.145 L653.121 149.196 L648.884 149.196 M657.38 147.437 L657.38 162.229 L653.121 162.229 L653.121 158.293 Q651.662 160.655 649.486 161.789 Q647.31 162.9 644.162 162.9 Q640.181 162.9 637.82 160.678 Q635.482 158.432 635.482 154.682 Q635.482 150.307 638.398 148.085 Q641.338 145.863 647.148 145.863 L653.121 145.863 L653.121 145.446 Q653.121 142.507 651.176 140.909 Q649.255 139.289 645.759 139.289 Q643.537 139.289 641.431 139.821 Q639.324 140.354 637.38 141.419 L637.38 137.483 Q639.718 136.581 641.917 136.141 Q644.116 135.678 646.199 135.678 Q651.824 135.678 654.602 138.594 Q657.38 141.511 657.38 147.437 Z" fill="#000000" fill-rule="nonzero" fill-opacity="1" /><path clip-path="url(#clip280)" d="M686.338 141.28 Q687.935 138.409 690.157 137.044 Q692.38 135.678 695.389 135.678 Q699.44 135.678 701.639 138.525 Q703.838 141.349 703.838 146.581 L703.838 162.229 L699.555 162.229 L699.555 146.719 Q699.555 142.993 698.236 141.187 Q696.917 139.382 694.208 139.382 Q690.898 139.382 688.977 141.581 Q687.056 143.78 687.056 147.576 L687.056 162.229 L682.773 162.229 L682.773 146.719 Q682.773 142.969 681.454 141.187 Q680.134 139.382 677.38 139.382 Q674.116 139.382 672.194 141.604 Q670.273 143.803 670.273 147.576 L670.273 162.229 L665.991 162.229 L665.991 136.303 L670.273 136.303 L670.273 140.331 Q671.732 137.946 673.769 136.812 Q675.806 135.678 678.607 135.678 Q681.431 135.678 683.398 137.113 Q685.389 138.548 686.338 141.28 Z" fill="#000000" fill-rule="nonzero" fill-opacity="1" /><polyline clip-path="url(#clip280)" style="stroke:#e26f46; stroke-linecap:round; stroke-linejoin:round; stroke-width:4; stroke-opacity:1; fill:none" points="299.465,196.789 442.718,196.789 "/>
<path clip-path="url(#clip280)" d="M471.27 183.351 L471.27 210.226 L476.918 210.226 Q484.071 210.226 487.381 206.985 Q490.714 203.745 490.714 196.754 Q490.714 189.809 487.381 186.592 Q484.071 183.351 476.918 183.351 L471.27 183.351 M466.594 179.509 L476.2 179.509 Q486.246 179.509 490.945 183.698 Q495.645 187.865 495.645 196.754 Q495.645 205.689 490.922 209.879 Q486.2 214.069 476.2 214.069 L466.594 214.069 L466.594 179.509 Z" fill="#000000" fill-rule="nonzero" fill-opacity="1" /><path clip-path="url(#clip280)" d="M502.913 188.143 L507.172 188.143 L507.172 214.069 L502.913 214.069 L502.913 188.143 M502.913 178.05 L507.172 178.05 L507.172 183.444 L502.913 183.444 L502.913 178.05 Z" fill="#000000" fill-rule="nonzero" fill-opacity="1" /><path clip-path="url(#clip280)" d="M532.612 188.907 L532.612 192.934 Q530.806 192.009 528.862 191.546 Q526.917 191.083 524.834 191.083 Q521.663 191.083 520.066 192.055 Q518.492 193.027 518.492 194.971 Q518.492 196.453 519.626 197.309 Q520.76 198.143 524.186 198.907 L525.644 199.231 Q530.181 200.203 532.08 201.985 Q534.001 203.745 534.001 206.916 Q534.001 210.527 531.13 212.633 Q528.283 214.74 523.283 214.74 Q521.2 214.74 518.931 214.323 Q516.686 213.93 514.186 213.12 L514.186 208.721 Q516.547 209.948 518.839 210.573 Q521.13 211.175 523.376 211.175 Q526.385 211.175 528.005 210.157 Q529.626 209.115 529.626 207.24 Q529.626 205.504 528.445 204.578 Q527.288 203.652 523.33 202.796 L521.848 202.448 Q517.89 201.615 516.131 199.902 Q514.371 198.166 514.371 195.157 Q514.371 191.499 516.964 189.509 Q519.556 187.518 524.325 187.518 Q526.686 187.518 528.769 187.865 Q530.853 188.212 532.612 188.907 Z" fill="#000000" fill-rule="nonzero" fill-opacity="1" /><path clip-path="url(#clip280)" d="M544.996 180.782 L544.996 188.143 L553.769 188.143 L553.769 191.453 L544.996 191.453 L544.996 205.527 Q544.996 208.698 545.853 209.601 Q546.732 210.504 549.394 210.504 L553.769 210.504 L553.769 214.069 L549.394 214.069 Q544.464 214.069 542.589 212.24 Q540.714 210.388 540.714 205.527 L540.714 191.453 L537.589 191.453 L537.589 188.143 L540.714 188.143 L540.714 180.782 L544.996 180.782 Z" fill="#000000" fill-rule="nonzero" fill-opacity="1" /><path clip-path="url(#clip280)" d="M574.394 192.124 Q573.677 191.708 572.82 191.522 Q571.987 191.314 570.968 191.314 Q567.357 191.314 565.413 193.675 Q563.491 196.013 563.491 200.411 L563.491 214.069 L559.209 214.069 L559.209 188.143 L563.491 188.143 L563.491 192.171 Q564.834 189.809 566.987 188.675 Q569.139 187.518 572.218 187.518 Q572.658 187.518 573.19 187.587 Q573.723 187.634 574.371 187.749 L574.394 192.124 Z" fill="#000000" fill-rule="nonzero" fill-opacity="1" /><path clip-path="url(#clip280)" d="M578.862 188.143 L583.121 188.143 L583.121 214.069 L578.862 214.069 L578.862 188.143 M578.862 178.05 L583.121 178.05 L583.121 183.444 L578.862 183.444 L578.862 178.05 Z" fill="#000000" fill-rule="nonzero" fill-opacity="1" /><path clip-path="url(#clip280)" d="M610.644 201.129 Q610.644 196.43 608.699 193.768 Q606.778 191.083 603.399 191.083 Q600.019 191.083 598.075 193.768 Q596.153 196.43 596.153 201.129 Q596.153 205.828 598.075 208.513 Q600.019 211.175 603.399 211.175 Q606.778 211.175 608.699 208.513 Q610.644 205.828 610.644 201.129 M596.153 192.078 Q597.496 189.763 599.533 188.652 Q601.593 187.518 604.44 187.518 Q609.162 187.518 612.102 191.268 Q615.065 195.018 615.065 201.129 Q615.065 207.24 612.102 210.99 Q609.162 214.74 604.44 214.74 Q601.593 214.74 599.533 213.629 Q597.496 212.495 596.153 210.18 L596.153 214.069 L591.871 214.069 L591.871 178.05 L596.153 178.05 L596.153 192.078 Z" fill="#000000" fill-rule="nonzero" fill-opacity="1" /><path clip-path="url(#clip280)" d="M621.686 203.837 L621.686 188.143 L625.945 188.143 L625.945 203.675 Q625.945 207.356 627.38 209.208 Q628.815 211.036 631.685 211.036 Q635.135 211.036 637.125 208.837 Q639.139 206.638 639.139 202.842 L639.139 188.143 L643.398 188.143 L643.398 214.069 L639.139 214.069 L639.139 210.087 Q637.588 212.448 635.528 213.606 Q633.491 214.74 630.783 214.74 Q626.315 214.74 624 211.962 Q621.686 209.184 621.686 203.837 M632.403 187.518 L632.403 187.518 Z" fill="#000000" fill-rule="nonzero" fill-opacity="1" /><path clip-path="url(#clip280)" d="M656.384 180.782 L656.384 188.143 L665.157 188.143 L665.157 191.453 L656.384 191.453 L656.384 205.527 Q656.384 208.698 657.241 209.601 Q658.12 210.504 660.783 210.504 L665.157 210.504 L665.157 214.069 L660.783 214.069 Q655.852 214.069 653.977 212.24 Q652.102 210.388 652.102 205.527 L652.102 191.453 L648.977 191.453 L648.977 188.143 L652.102 188.143 L652.102 180.782 L656.384 180.782 Z" fill="#000000" fill-rule="nonzero" fill-opacity="1" /><path clip-path="url(#clip280)" d="M670.759 188.143 L675.019 188.143 L675.019 214.069 L670.759 214.069 L670.759 188.143 M670.759 178.05 L675.019 178.05 L675.019 183.444 L670.759 183.444 L670.759 178.05 Z" fill="#000000" fill-rule="nonzero" fill-opacity="1" /><path clip-path="url(#clip280)" d="M693.977 191.129 Q690.551 191.129 688.56 193.814 Q686.569 196.476 686.569 201.129 Q686.569 205.782 688.537 208.467 Q690.528 211.129 693.977 211.129 Q697.38 211.129 699.37 208.444 Q701.361 205.758 701.361 201.129 Q701.361 196.522 699.37 193.837 Q697.38 191.129 693.977 191.129 M693.977 187.518 Q699.532 187.518 702.704 191.129 Q705.875 194.74 705.875 201.129 Q705.875 207.495 702.704 211.129 Q699.532 214.74 693.977 214.74 Q688.398 214.74 685.227 211.129 Q682.079 207.495 682.079 201.129 Q682.079 194.74 685.227 191.129 Q688.398 187.518 693.977 187.518 Z" fill="#000000" fill-rule="nonzero" fill-opacity="1" /><path clip-path="url(#clip280)" d="M734.486 198.421 L734.486 214.069 L730.227 214.069 L730.227 198.559 Q730.227 194.879 728.791 193.05 Q727.356 191.222 724.486 191.222 Q721.037 191.222 719.046 193.421 Q717.055 195.62 717.055 199.416 L717.055 214.069 L712.773 214.069 L712.773 188.143 L717.055 188.143 L717.055 192.171 Q718.583 189.833 720.643 188.675 Q722.727 187.518 725.435 187.518 Q729.903 187.518 732.194 190.296 Q734.486 193.05 734.486 198.421 Z" fill="#000000" fill-rule="nonzero" fill-opacity="1" /><path clip-path="url(#clip280)" d="M771.175 178.05 L771.175 181.592 L767.101 181.592 Q764.81 181.592 763.907 182.518 Q763.027 183.444 763.027 185.851 L763.027 188.143 L770.041 188.143 L770.041 191.453 L763.027 191.453 L763.027 214.069 L758.745 214.069 L758.745 191.453 L754.671 191.453 L754.671 188.143 L758.745 188.143 L758.745 186.337 Q758.745 182.009 760.759 180.041 Q762.773 178.05 767.148 178.05 L771.175 178.05 Z" fill="#000000" fill-rule="nonzero" fill-opacity="1" /><path clip-path="url(#clip280)" d="M774.74 188.143 L778.999 188.143 L778.999 214.069 L774.74 214.069 L774.74 188.143 M774.74 178.05 L778.999 178.05 L778.999 183.444 L774.74 183.444 L774.74 178.05 Z" fill="#000000" fill-rule="nonzero" fill-opacity="1" /><path clip-path="url(#clip280)" d="M792.124 180.782 L792.124 188.143 L800.898 188.143 L800.898 191.453 L792.124 191.453 L792.124 205.527 Q792.124 208.698 792.981 209.601 Q793.861 210.504 796.523 210.504 L800.898 210.504 L800.898 214.069 L796.523 214.069 Q791.592 214.069 789.717 212.24 Q787.842 210.388 787.842 205.527 L787.842 191.453 L784.717 191.453 L784.717 188.143 L787.842 188.143 L787.842 180.782 L792.124 180.782 Z" fill="#000000" fill-rule="nonzero" fill-opacity="1" /></svg>
