<?xml version="1.0" encoding="utf-8"?>
<svg xmlns="http://www.w3.org/2000/svg" xmlns:xlink="http://www.w3.org/1999/xlink" width="600" height="400" viewBox="0 0 2400 1600">
<defs>
  <clipPath id="clip140">
    <rect x="0" y="0" width="2400" height="1600"/>
  </clipPath>
</defs>
<path clip-path="url(#clip140)" d="M0 1600 L2400 1600 L2400 8.88178e-14 L0 8.88178e-14  Z" fill="#ffffff" fill-rule="evenodd" fill-opacity="1"/>
<defs>
  <clipPath id="clip141">
    <rect x="480" y="0" width="1681" height="1600"/>
  </clipPath>
</defs>
<path clip-path="url(#clip140)" d="M249.357 1552.76 L2352.76 1552.76 L2352.76 47.2441 L249.357 47.2441  Z" fill="#ffffff" fill-rule="evenodd" fill-opacity="1"/>
<defs>
  <clipPath id="clip142">
    <rect x="249" y="47" width="2104" height="1507"/>
  </clipPath>
</defs>
<polyline clip-path="url(#clip142)" style="stroke:#000000; stroke-linecap:round; stroke-linejoin:round; stroke-width:2; stroke-opacity:0.1; fill:none" points="249.357,1316.47 2352.76,1316.47 "/>
<polyline clip-path="url(#clip142)" style="stroke:#000000; stroke-linecap:round; stroke-linejoin:round; stroke-width:2; stroke-opacity:0.1; fill:none" points="249.357,993.676 2352.76,993.676 "/>
<polyline clip-path="url(#clip142)" style="stroke:#000000; stroke-linecap:round; stroke-linejoin:round; stroke-width:2; stroke-opacity:0.1; fill:none" points="249.357,670.882 2352.76,670.882 "/>
<polyline clip-path="url(#clip142)" style="stroke:#000000; stroke-linecap:round; stroke-linejoin:round; stroke-width:2; stroke-opacity:0.1; fill:none" points="249.357,348.088 2352.76,348.088 "/>
<polyline clip-path="url(#clip142)" style="stroke:#000000; stroke-linecap:round; stroke-linejoin:round; stroke-width:2; stroke-opacity:0.1; fill:none" points="249.357,1316.47 2352.76,1316.47 "/>
<polyline clip-path="url(#clip142)" style="stroke:#000000; stroke-linecap:round; stroke-linejoin:round; stroke-width:2; stroke-opacity:0.1; fill:none" points="249.357,993.676 2352.76,993.676 "/>
<polyline clip-path="url(#clip142)" style="stroke:#000000; stroke-linecap:round; stroke-linejoin:round; stroke-width:2; stroke-opacity:0.1; fill:none" points="249.357,670.882 2352.76,670.882 "/>
<polyline clip-path="url(#clip142)" style="stroke:#000000; stroke-linecap:round; stroke-linejoin:round; stroke-width:2; stroke-opacity:0.1; fill:none" points="249.357,348.088 2352.76,348.088 "/>
<polyline clip-path="url(#clip140)" style="stroke:#000000; stroke-linecap:round; stroke-linejoin:round; stroke-width:4; stroke-opacity:1; fill:none" points="249.357,1552.76 2352.76,1552.76 "/>
<polyline clip-path="url(#clip140)" style="stroke:#000000; stroke-linecap:round; stroke-linejoin:round; stroke-width:4; stroke-opacity:1; fill:none" points="249.357,47.2441 2352.76,47.2441 "/>
<polyline clip-path="url(#clip140)" style="stroke:#000000; stroke-linecap:round; stroke-linejoin:round; stroke-width:4; stroke-opacity:1; fill:none" points="249.357,1552.76 249.357,47.2441 "/>
<polyline clip-path="url(#clip140)" style="stroke:#000000; stroke-linecap:round; stroke-linejoin:round; stroke-width:4; stroke-opacity:1; fill:none" points="2352.76,1552.76 2352.76,47.2441 "/>
<polyline clip-path="url(#clip140)" style="stroke:#000000; stroke-linecap:round; stroke-linejoin:round; stroke-width:4; stroke-opacity:1; fill:none" points="249.357,1316.47 268.254,1316.47 "/>
<polyline clip-path="url(#clip140)" style="stroke:#000000; stroke-linecap:round; stroke-linejoin:round; stroke-width:4; stroke-opacity:1; fill:none" points="249.357,993.676 268.254,993.676 "/>
<polyline clip-path="url(#clip140)" style="stroke:#000000; stroke-linecap:round; stroke-linejoin:round; stroke-width:4; stroke-opacity:1; fill:none" points="249.357,670.882 268.254,670.882 "/>
<polyline clip-path="url(#clip140)" style="stroke:#000000; stroke-linecap:round; stroke-linejoin:round; stroke-width:4; stroke-opacity:1; fill:none" points="249.357,348.088 268.254,348.088 "/>
<polyline clip-path="url(#clip140)" style="stroke:#000000; stroke-linecap:round; stroke-linejoin:round; stroke-width:4; stroke-opacity:1; fill:none" points="2352.76,1316.47 2333.86,1316.47 "/>
<polyline clip-path="url(#clip140)" style="stroke:#000000; stroke-linecap:round; stroke-linejoin:round; stroke-width:4; stroke-opacity:1; fill:none" points="2352.76,993.676 2333.86,993.676 "/>
<polyline clip-path="url(#clip140)" style="stroke:#000000; stroke-linecap:round; stroke-linejoin:round; stroke-width:4; stroke-opacity:1; fill:none" points="2352.76,670.882 2333.86,670.882 "/>
<polyline clip-path="url(#clip140)" style="stroke:#000000; stroke-linecap:round; stroke-linejoin:round; stroke-width:4; stroke-opacity:1; fill:none" points="2352.76,348.088 2333.86,348.088 "/>
<path clip-path="url(#clip140)" d="M126.691 1314.61 Q123.543 1314.61 121.691 1316.76 Q119.862 1318.91 119.862 1322.66 Q119.862 1326.39 121.691 1328.57 Q123.543 1330.72 126.691 1330.72 Q129.839 1330.72 131.667 1328.57 Q133.519 1326.39 133.519 1322.66 Q133.519 1318.91 131.667 1316.76 Q129.839 1314.61 126.691 1314.61 M135.973 1299.95 L135.973 1304.21 Q134.214 1303.38 132.408 1302.94 Q130.626 1302.5 128.867 1302.5 Q124.237 1302.5 121.783 1305.63 Q119.353 1308.75 119.006 1315.07 Q120.371 1313.06 122.431 1311.99 Q124.492 1310.9 126.968 1310.9 Q132.177 1310.9 135.186 1314.07 Q138.218 1317.22 138.218 1322.66 Q138.218 1327.99 135.07 1331.2 Q131.922 1334.42 126.691 1334.42 Q120.695 1334.42 117.524 1329.84 Q114.353 1325.23 114.353 1316.51 Q114.353 1308.31 118.242 1303.45 Q122.13 1298.57 128.681 1298.57 Q130.441 1298.57 132.223 1298.91 Q134.029 1299.26 135.973 1299.95 Z" fill="#000000" fill-rule="nonzero" fill-opacity="1" /><path clip-path="url(#clip140)" d="M146.32 1299.19 L164.677 1299.19 L164.677 1303.13 L150.603 1303.13 L150.603 1311.6 Q151.621 1311.25 152.64 1311.09 Q153.658 1310.9 154.677 1310.9 Q160.464 1310.9 163.843 1314.07 Q167.223 1317.25 167.223 1322.66 Q167.223 1328.24 163.751 1331.34 Q160.278 1334.42 153.959 1334.42 Q151.783 1334.42 149.515 1334.05 Q147.269 1333.68 144.862 1332.94 L144.862 1328.24 Q146.945 1329.38 149.167 1329.93 Q151.39 1330.49 153.866 1330.49 Q157.871 1330.49 160.209 1328.38 Q162.547 1326.27 162.547 1322.66 Q162.547 1319.05 160.209 1316.95 Q157.871 1314.84 153.866 1314.84 Q151.991 1314.84 150.116 1315.26 Q148.265 1315.67 146.32 1316.55 L146.32 1299.19 Z" fill="#000000" fill-rule="nonzero" fill-opacity="1" /><path clip-path="url(#clip140)" d="M176.436 1327.87 L181.32 1327.87 L181.32 1333.75 L176.436 1333.75 L176.436 1327.87 Z" fill="#000000" fill-rule="nonzero" fill-opacity="1" /><path clip-path="url(#clip140)" d="M201.505 1317.34 Q198.172 1317.34 196.25 1319.12 Q194.352 1320.9 194.352 1324.03 Q194.352 1327.15 196.25 1328.94 Q198.172 1330.72 201.505 1330.72 Q204.838 1330.72 206.76 1328.94 Q208.681 1327.13 208.681 1324.03 Q208.681 1320.9 206.76 1319.12 Q204.862 1317.34 201.505 1317.34 M196.829 1315.35 Q193.82 1314.61 192.13 1312.55 Q190.463 1310.49 190.463 1307.52 Q190.463 1303.38 193.403 1300.97 Q196.366 1298.57 201.505 1298.57 Q206.667 1298.57 209.607 1300.97 Q212.547 1303.38 212.547 1307.52 Q212.547 1310.49 210.857 1312.55 Q209.19 1314.61 206.204 1315.35 Q209.584 1316.13 211.459 1318.43 Q213.357 1320.72 213.357 1324.03 Q213.357 1329.05 210.278 1331.74 Q207.223 1334.42 201.505 1334.42 Q195.787 1334.42 192.709 1331.74 Q189.653 1329.05 189.653 1324.03 Q189.653 1320.72 191.551 1318.43 Q193.45 1316.13 196.829 1315.35 M195.116 1307.96 Q195.116 1310.65 196.783 1312.15 Q198.473 1313.66 201.505 1313.66 Q204.514 1313.66 206.204 1312.15 Q207.917 1310.65 207.917 1307.96 Q207.917 1305.28 206.204 1303.77 Q204.514 1302.27 201.505 1302.27 Q198.473 1302.27 196.783 1303.77 Q195.116 1305.28 195.116 1307.96 Z" fill="#000000" fill-rule="nonzero" fill-opacity="1" /><path clip-path="url(#clip140)" d="M126.783 991.813 Q123.635 991.813 121.783 993.966 Q119.955 996.119 119.955 999.869 Q119.955 1003.6 121.783 1005.77 Q123.635 1007.92 126.783 1007.92 Q129.931 1007.92 131.76 1005.77 Q133.612 1003.6 133.612 999.869 Q133.612 996.119 131.76 993.966 Q129.931 991.813 126.783 991.813 M136.066 977.16 L136.066 981.42 Q134.306 980.586 132.501 980.146 Q130.718 979.707 128.959 979.707 Q124.33 979.707 121.876 982.832 Q119.445 985.957 119.098 992.276 Q120.464 990.262 122.524 989.197 Q124.584 988.109 127.061 988.109 Q132.269 988.109 135.279 991.281 Q138.311 994.429 138.311 999.869 Q138.311 1005.19 135.163 1008.41 Q132.015 1011.63 126.783 1011.63 Q120.788 1011.63 117.617 1007.04 Q114.445 1002.44 114.445 993.711 Q114.445 985.517 118.334 980.656 Q122.223 975.771 128.774 975.771 Q130.533 975.771 132.316 976.119 Q134.121 976.466 136.066 977.16 Z" fill="#000000" fill-rule="nonzero" fill-opacity="1" /><path clip-path="url(#clip140)" d="M146.413 976.396 L164.769 976.396 L164.769 980.332 L150.695 980.332 L150.695 988.804 Q151.714 988.457 152.732 988.295 Q153.751 988.109 154.769 988.109 Q160.556 988.109 163.936 991.281 Q167.315 994.452 167.315 999.869 Q167.315 1005.45 163.843 1008.55 Q160.371 1011.63 154.052 1011.63 Q151.876 1011.63 149.607 1011.26 Q147.362 1010.89 144.954 1010.15 L144.954 1005.45 Q147.038 1006.58 149.26 1007.14 Q151.482 1007.69 153.959 1007.69 Q157.964 1007.69 160.302 1005.59 Q162.64 1003.48 162.64 999.869 Q162.64 996.257 160.302 994.151 Q157.964 992.045 153.959 992.045 Q152.084 992.045 150.209 992.461 Q148.357 992.878 146.413 993.757 L146.413 976.396 Z" fill="#000000" fill-rule="nonzero" fill-opacity="1" /><path clip-path="url(#clip140)" d="M176.528 1005.08 L181.413 1005.08 L181.413 1010.96 L176.528 1010.96 L176.528 1005.08 Z" fill="#000000" fill-rule="nonzero" fill-opacity="1" /><path clip-path="url(#clip140)" d="M191.737 1010.24 L191.737 1005.98 Q193.496 1006.81 195.301 1007.25 Q197.107 1007.69 198.843 1007.69 Q203.473 1007.69 205.903 1004.59 Q208.357 1001.47 208.704 995.123 Q207.362 997.114 205.301 998.179 Q203.241 999.244 200.741 999.244 Q195.556 999.244 192.524 996.119 Q189.514 992.97 189.514 987.531 Q189.514 982.207 192.663 978.989 Q195.811 975.771 201.042 975.771 Q207.037 975.771 210.186 980.378 Q213.357 984.961 213.357 993.711 Q213.357 1001.88 209.468 1006.77 Q205.602 1011.63 199.051 1011.63 Q197.292 1011.63 195.487 1011.28 Q193.681 1010.93 191.737 1010.24 M201.042 995.586 Q204.19 995.586 206.019 993.433 Q207.871 991.281 207.871 987.531 Q207.871 983.804 206.019 981.651 Q204.19 979.475 201.042 979.475 Q197.894 979.475 196.042 981.651 Q194.213 983.804 194.213 987.531 Q194.213 991.281 196.042 993.433 Q197.894 995.586 201.042 995.586 Z" fill="#000000" fill-rule="nonzero" fill-opacity="1" /><path clip-path="url(#clip140)" d="M126.598 669.019 Q123.45 669.019 121.598 671.172 Q119.769 673.324 119.769 677.074 Q119.769 680.801 121.598 682.977 Q123.45 685.13 126.598 685.13 Q129.746 685.13 131.575 682.977 Q133.427 680.801 133.427 677.074 Q133.427 673.324 131.575 671.172 Q129.746 669.019 126.598 669.019 M135.88 654.366 L135.88 658.625 Q134.121 657.792 132.316 657.352 Q130.533 656.913 128.774 656.913 Q124.144 656.913 121.691 660.037 Q119.26 663.162 118.913 669.482 Q120.279 667.468 122.339 666.403 Q124.399 665.315 126.876 665.315 Q132.084 665.315 135.093 668.487 Q138.126 671.635 138.126 677.074 Q138.126 682.398 134.978 685.616 Q131.83 688.834 126.598 688.834 Q120.603 688.834 117.431 684.25 Q114.26 679.644 114.26 670.917 Q114.26 662.723 118.149 657.862 Q122.038 652.977 128.589 652.977 Q130.348 652.977 132.13 653.325 Q133.936 653.672 135.88 654.366 Z" fill="#000000" fill-rule="nonzero" fill-opacity="1" /><path clip-path="url(#clip140)" d="M156.76 669.019 Q153.612 669.019 151.76 671.172 Q149.931 673.324 149.931 677.074 Q149.931 680.801 151.76 682.977 Q153.612 685.13 156.76 685.13 Q159.908 685.13 161.737 682.977 Q163.589 680.801 163.589 677.074 Q163.589 673.324 161.737 671.172 Q159.908 669.019 156.76 669.019 M166.042 654.366 L166.042 658.625 Q164.283 657.792 162.477 657.352 Q160.695 656.913 158.936 656.913 Q154.306 656.913 151.853 660.037 Q149.422 663.162 149.075 669.482 Q150.441 667.468 152.501 666.403 Q154.561 665.315 157.038 665.315 Q162.246 665.315 165.255 668.487 Q168.288 671.635 168.288 677.074 Q168.288 682.398 165.14 685.616 Q161.991 688.834 156.76 688.834 Q150.765 688.834 147.593 684.25 Q144.422 679.644 144.422 670.917 Q144.422 662.723 148.311 657.862 Q152.2 652.977 158.751 652.977 Q160.51 652.977 162.292 653.325 Q164.098 653.672 166.042 654.366 Z" fill="#000000" fill-rule="nonzero" fill-opacity="1" /><path clip-path="url(#clip140)" d="M176.343 682.283 L181.227 682.283 L181.227 688.162 L176.343 688.162 L176.343 682.283 Z" fill="#000000" fill-rule="nonzero" fill-opacity="1" /><path clip-path="url(#clip140)" d="M201.412 656.681 Q197.801 656.681 195.973 660.246 Q194.167 663.787 194.167 670.917 Q194.167 678.024 195.973 681.588 Q197.801 685.13 201.412 685.13 Q205.047 685.13 206.852 681.588 Q208.681 678.024 208.681 670.917 Q208.681 663.787 206.852 660.246 Q205.047 656.681 201.412 656.681 M201.412 652.977 Q207.223 652.977 210.278 657.584 Q213.357 662.167 213.357 670.917 Q213.357 679.644 210.278 684.25 Q207.223 688.834 201.412 688.834 Q195.602 688.834 192.524 684.25 Q189.468 679.644 189.468 670.917 Q189.468 662.167 192.524 657.584 Q195.602 652.977 201.412 652.977 Z" fill="#000000" fill-rule="nonzero" fill-opacity="1" /><path clip-path="url(#clip140)" d="M127.825 346.225 Q124.677 346.225 122.825 348.378 Q120.996 350.53 120.996 354.28 Q120.996 358.007 122.825 360.183 Q124.677 362.336 127.825 362.336 Q130.973 362.336 132.802 360.183 Q134.654 358.007 134.654 354.28 Q134.654 350.53 132.802 348.378 Q130.973 346.225 127.825 346.225 M137.107 331.572 L137.107 335.831 Q135.348 334.998 133.542 334.558 Q131.76 334.118 130.001 334.118 Q125.371 334.118 122.918 337.243 Q120.487 340.368 120.14 346.688 Q121.505 344.674 123.566 343.609 Q125.626 342.521 128.103 342.521 Q133.311 342.521 136.32 345.692 Q139.353 348.841 139.353 354.28 Q139.353 359.604 136.204 362.822 Q133.056 366.04 127.825 366.04 Q121.83 366.04 118.658 361.456 Q115.487 356.85 115.487 348.123 Q115.487 339.929 119.376 335.067 Q123.265 330.183 129.816 330.183 Q131.575 330.183 133.357 330.53 Q135.163 330.878 137.107 331.572 Z" fill="#000000" fill-rule="nonzero" fill-opacity="1" /><path clip-path="url(#clip140)" d="M157.987 346.225 Q154.839 346.225 152.987 348.378 Q151.158 350.53 151.158 354.28 Q151.158 358.007 152.987 360.183 Q154.839 362.336 157.987 362.336 Q161.135 362.336 162.964 360.183 Q164.815 358.007 164.815 354.28 Q164.815 350.53 162.964 348.378 Q161.135 346.225 157.987 346.225 M167.269 331.572 L167.269 335.831 Q165.51 334.998 163.704 334.558 Q161.922 334.118 160.163 334.118 Q155.533 334.118 153.079 337.243 Q150.649 340.368 150.302 346.688 Q151.667 344.674 153.728 343.609 Q155.788 342.521 158.265 342.521 Q163.473 342.521 166.482 345.692 Q169.514 348.841 169.514 354.28 Q169.514 359.604 166.366 362.822 Q163.218 366.04 157.987 366.04 Q151.991 366.04 148.82 361.456 Q145.649 356.85 145.649 348.123 Q145.649 339.929 149.538 335.067 Q153.427 330.183 159.978 330.183 Q161.737 330.183 163.519 330.53 Q165.325 330.878 167.269 331.572 Z" fill="#000000" fill-rule="nonzero" fill-opacity="1" /><path clip-path="url(#clip140)" d="M177.57 359.489 L182.454 359.489 L182.454 365.368 L177.57 365.368 L177.57 359.489 Z" fill="#000000" fill-rule="nonzero" fill-opacity="1" /><path clip-path="url(#clip140)" d="M193.45 361.433 L201.088 361.433 L201.088 335.067 L192.778 336.734 L192.778 332.475 L201.042 330.808 L205.718 330.808 L205.718 361.433 L213.357 361.433 L213.357 365.368 L193.45 365.368 L193.45 361.433 Z" fill="#000000" fill-rule="nonzero" fill-opacity="1" /><path clip-path="url(#clip140)" d="M22.818 922.094 L46.4666 930.815 L46.4666 913.341 L22.818 922.094 M16.4842 925.723 L16.4842 918.434 L64.0042 900.324 L64.0042 907.008 L51.8138 911.336 L51.8138 932.757 L64.0042 937.085 L64.0042 943.865 L16.4842 925.723 Z" fill="#000000" fill-rule="nonzero" fill-opacity="1" /><path clip-path="url(#clip140)" d="M45.7664 870.182 Q39.4007 870.182 35.8996 872.824 Q32.3984 875.434 32.3984 880.176 Q32.3984 884.887 35.8996 887.528 Q39.4007 890.138 45.7664 890.138 Q52.1003 890.138 55.6014 887.528 Q59.1026 884.887 59.1026 880.176 Q59.1026 875.434 55.6014 872.824 Q52.1003 870.182 45.7664 870.182 M59.58 864.325 Q68.683 864.325 73.1071 868.368 Q77.5631 872.41 77.5631 880.749 Q77.5631 883.836 77.0857 886.574 Q76.6401 889.311 75.6852 891.889 L69.9879 891.889 Q71.3884 889.311 72.0568 886.796 Q72.7252 884.282 72.7252 881.672 Q72.7252 875.911 69.7015 873.046 Q66.7096 870.182 60.6303 870.182 L57.7339 870.182 Q60.885 871.996 62.4446 874.829 Q64.0042 877.662 64.0042 881.608 Q64.0042 888.165 59.0071 892.175 Q54.01 896.186 45.7664 896.186 Q37.491 896.186 32.4939 892.175 Q27.4968 888.165 27.4968 881.608 Q27.4968 877.662 29.0564 874.829 Q30.616 871.996 33.7671 870.182 L28.3562 870.182 L28.3562 864.325 L59.58 864.325 Z" fill="#000000" fill-rule="nonzero" fill-opacity="1" /><path clip-path="url(#clip140)" d="M44.7161 821.771 L47.5806 821.771 L47.5806 848.698 Q53.6281 848.316 56.8109 845.069 Q59.9619 841.791 59.9619 835.966 Q59.9619 832.592 59.1344 829.441 Q58.3069 826.259 56.6518 823.139 L62.1899 823.139 Q63.5267 826.29 64.227 829.601 Q64.9272 832.911 64.9272 836.316 Q64.9272 844.846 59.9619 849.843 Q54.9967 854.809 46.5303 854.809 Q37.7774 854.809 32.6531 850.098 Q27.4968 845.356 27.4968 837.335 Q27.4968 830.142 32.1438 825.972 Q36.7589 821.771 44.7161 821.771 M42.9973 827.627 Q38.1912 827.691 35.3266 830.333 Q32.4621 832.943 32.4621 837.271 Q32.4621 842.173 35.2312 845.133 Q38.0002 848.061 43.0292 848.507 L42.9973 827.627 Z" fill="#000000" fill-rule="nonzero" fill-opacity="1" /><path clip-path="url(#clip140)" d="M14.5426 777.37 Q21.8632 781.635 29.0246 783.704 Q36.186 785.773 43.5384 785.773 Q50.8908 785.773 58.1159 783.704 Q65.3091 781.603 72.5979 777.37 L72.5979 782.462 Q65.1182 787.237 57.8931 789.624 Q50.668 791.979 43.5384 791.979 Q36.4406 791.979 29.2474 789.624 Q22.0542 787.269 14.5426 782.462 L14.5426 777.37 Z" fill="#000000" fill-rule="nonzero" fill-opacity="1" /><path clip-path="url(#clip140)" d="M16.4842 765.752 L16.4842 756.172 L48.8219 744.045 L16.4842 731.855 L16.4842 722.275 L64.0042 722.275 L64.0042 728.545 L22.277 728.545 L54.8694 740.799 L54.8694 747.26 L22.277 759.514 L64.0042 759.514 L64.0042 765.752 L16.4842 765.752 Z" fill="#000000" fill-rule="nonzero" fill-opacity="1" /><path clip-path="url(#clip140)" d="M46.0847 693.565 Q46.0847 700.663 47.7079 703.4 Q49.3312 706.138 53.2461 706.138 Q56.3653 706.138 58.2114 704.101 Q60.0256 702.032 60.0256 698.499 Q60.0256 693.629 56.5881 690.701 Q53.1188 687.741 47.3897 687.741 L46.0847 687.741 L46.0847 693.565 M43.6657 681.884 L64.0042 681.884 L64.0042 687.741 L58.5933 687.741 Q61.8398 689.746 63.3994 692.738 Q64.9272 695.73 64.9272 700.058 Q64.9272 705.533 61.8716 708.779 Q58.7843 711.994 53.6281 711.994 Q47.6125 711.994 44.5569 707.984 Q41.5014 703.941 41.5014 695.953 L41.5014 687.741 L40.9285 687.741 Q36.8862 687.741 34.6901 690.414 Q32.4621 693.056 32.4621 697.862 Q32.4621 700.918 33.1941 703.814 Q33.9262 706.711 35.3903 709.384 L29.9795 709.384 Q28.7381 706.169 28.1334 703.146 Q27.4968 700.122 27.4968 697.257 Q27.4968 689.523 31.5072 685.704 Q35.5176 681.884 43.6657 681.884 Z" fill="#000000" fill-rule="nonzero" fill-opacity="1" /><path clip-path="url(#clip140)" d="M14.5426 670.744 L14.5426 665.652 Q22.0542 660.877 29.2474 658.522 Q36.4406 656.135 43.5384 656.135 Q50.668 656.135 57.8931 658.522 Q65.1182 660.877 72.5979 665.652 L72.5979 670.744 Q65.3091 666.511 58.1159 664.442 Q50.8908 662.342 43.5384 662.342 Q36.186 662.342 29.0246 664.442 Q21.8632 666.511 14.5426 670.744 Z" fill="#000000" fill-rule="nonzero" fill-opacity="1" /><polyline clip-path="url(#clip142)" style="stroke:#009af9; stroke-linecap:round; stroke-linejoin:round; stroke-width:4; stroke-opacity:1; fill:none" points="308.887,1164.76 308.887,764.493 "/>
<polyline clip-path="url(#clip142)" style="stroke:#009af9; stroke-linecap:round; stroke-linejoin:round; stroke-width:4; stroke-opacity:1; fill:none" points="804.972,1348.75 804.972,315.809 "/>
<polyline clip-path="url(#clip142)" style="stroke:#009af9; stroke-linecap:round; stroke-linejoin:round; stroke-width:4; stroke-opacity:1; fill:none" points="1301.06,993.676 1301.06,625.691 "/>
<polyline clip-path="url(#clip142)" style="stroke:#009af9; stroke-linecap:round; stroke-linejoin:round; stroke-width:4; stroke-opacity:1; fill:none" points="1797.14,1510.15 1797.14,89.8529 "/>
<polyline clip-path="url(#clip142)" style="stroke:#009af9; stroke-linecap:round; stroke-linejoin:round; stroke-width:4; stroke-opacity:1; fill:none" points="2293.23,1122.79 2293.23,477.206 "/>
<line clip-path="url(#clip142)" x1="324.887" y1="1164.76" x2="292.887" y2="1164.76" style="stroke:#009af9; stroke-width:4; stroke-opacity:1"/>
<line clip-path="url(#clip142)" x1="324.887" y1="764.493" x2="292.887" y2="764.493" style="stroke:#009af9; stroke-width:4; stroke-opacity:1"/>
<line clip-path="url(#clip142)" x1="820.972" y1="1348.75" x2="788.972" y2="1348.75" style="stroke:#009af9; stroke-width:4; stroke-opacity:1"/>
<line clip-path="url(#clip142)" x1="820.972" y1="315.809" x2="788.972" y2="315.809" style="stroke:#009af9; stroke-width:4; stroke-opacity:1"/>
<line clip-path="url(#clip142)" x1="1317.06" y1="993.676" x2="1285.06" y2="993.676" style="stroke:#009af9; stroke-width:4; stroke-opacity:1"/>
<line clip-path="url(#clip142)" x1="1317.06" y1="625.691" x2="1285.06" y2="625.691" style="stroke:#009af9; stroke-width:4; stroke-opacity:1"/>
<line clip-path="url(#clip142)" x1="1813.14" y1="1510.15" x2="1781.14" y2="1510.15" style="stroke:#009af9; stroke-width:4; stroke-opacity:1"/>
<line clip-path="url(#clip142)" x1="1813.14" y1="89.8529" x2="1781.14" y2="89.8529" style="stroke:#009af9; stroke-width:4; stroke-opacity:1"/>
<line clip-path="url(#clip142)" x1="2309.23" y1="1122.79" x2="2277.23" y2="1122.79" style="stroke:#009af9; stroke-width:4; stroke-opacity:1"/>
<line clip-path="url(#clip142)" x1="2309.23" y1="477.206" x2="2277.23" y2="477.206" style="stroke:#009af9; stroke-width:4; stroke-opacity:1"/>
<circle clip-path="url(#clip142)" cx="308.887" cy="964.625" r="14.4" fill="#009af9" fill-rule="evenodd" fill-opacity="1" stroke="none"/>
<circle clip-path="url(#clip142)" cx="804.972" cy="832.279" r="14.4" fill="#009af9" fill-rule="evenodd" fill-opacity="1" stroke="none"/>
<circle clip-path="url(#clip142)" cx="1301.06" cy="809.684" r="14.4" fill="#009af9" fill-rule="evenodd" fill-opacity="1" stroke="none"/>
<circle clip-path="url(#clip142)" cx="1797.14" cy="800" r="14.4" fill="#009af9" fill-rule="evenodd" fill-opacity="1" stroke="none"/>
<circle clip-path="url(#clip142)" cx="2293.23" cy="800" r="14.4" fill="#009af9" fill-rule="evenodd" fill-opacity="1" stroke="none"/>
<path clip-path="url(#clip142)" d="M308.887 1053.4 L804.972 1053.4 L1301.06 1053.4 L1797.14 1053.4 L2293.23 1053.4 L2293.23 802.25 L1797.14 802.25 L1301.06 802.25 L804.972 802.25 L308.887 802.25  Z" fill="#e26f46" fill-rule="evenodd" fill-opacity="0.6"/>
<polyline clip-path="url(#clip142)" style="stroke:#e26f46; stroke-linecap:round; stroke-linejoin:round; stroke-width:4; stroke-opacity:0; fill:none" points="308.887,1053.4 804.972,1053.4 1301.06,1053.4 1797.14,1053.4 2293.23,1053.4 "/>
<polyline clip-path="url(#clip142)" style="stroke:#000000; stroke-linecap:round; stroke-linejoin:round; stroke-width:4; stroke-opacity:1; fill:none" stroke-dasharray="2, 4" points="308.887,901.213 804.972,901.213 1301.06,901.213 1797.14,901.213 2293.23,901.213 "/>
<path clip-path="url(#clip140)" d="M319.47 252.948 L1325.69 252.948 L1325.69 97.4278 L319.47 97.4278  Z" fill="#ffffff" fill-rule="evenodd" fill-opacity="1"/>
<polyline clip-path="url(#clip140)" style="stroke:#ffffff; stroke-linecap:round; stroke-linejoin:round; stroke-width:4; stroke-opacity:1; fill:none" points="319.47,252.948 1325.69,252.948 1325.69,97.4278 319.47,97.4278 319.47,252.948 "/>
<circle clip-path="url(#clip140)" cx="412.955" cy="149.268" r="20.48" fill="#009af9" fill-rule="evenodd" fill-opacity="1" stroke="none"/>
<path clip-path="url(#clip140)" d="M511.115 135.83 L511.115 162.705 L516.763 162.705 Q523.916 162.705 527.226 159.465 Q530.559 156.224 530.559 149.233 Q530.559 142.289 527.226 139.071 Q523.916 135.83 516.763 135.83 L511.115 135.83 M506.439 131.988 L516.045 131.988 Q526.092 131.988 530.791 136.178 Q535.49 140.344 535.49 149.233 Q535.49 158.168 530.768 162.358 Q526.045 166.548 516.045 166.548 L506.439 166.548 L506.439 131.988 Z" fill="#000000" fill-rule="nonzero" fill-opacity="1" /><path clip-path="url(#clip140)" d="M554.541 153.515 Q549.379 153.515 547.388 154.696 Q545.397 155.877 545.397 158.724 Q545.397 160.992 546.879 162.335 Q548.383 163.654 550.953 163.654 Q554.494 163.654 556.624 161.154 Q558.777 158.631 558.777 154.465 L558.777 153.515 L554.541 153.515 M563.036 151.756 L563.036 166.548 L558.777 166.548 L558.777 162.613 Q557.318 164.974 555.142 166.108 Q552.966 167.219 549.818 167.219 Q545.837 167.219 543.476 164.997 Q541.138 162.752 541.138 159.002 Q541.138 154.627 544.054 152.404 Q546.994 150.182 552.804 150.182 L558.777 150.182 L558.777 149.766 Q558.777 146.826 556.832 145.228 Q554.911 143.608 551.416 143.608 Q549.193 143.608 547.087 144.141 Q544.98 144.673 543.036 145.738 L543.036 141.803 Q545.374 140.9 547.573 140.46 Q549.772 139.997 551.855 139.997 Q557.48 139.997 560.258 142.914 Q563.036 145.83 563.036 151.756 Z" fill="#000000" fill-rule="nonzero" fill-opacity="1" /><path clip-path="url(#clip140)" d="M576.022 133.261 L576.022 140.622 L584.795 140.622 L584.795 143.932 L576.022 143.932 L576.022 158.006 Q576.022 161.177 576.878 162.08 Q577.758 162.983 580.42 162.983 L584.795 162.983 L584.795 166.548 L580.42 166.548 Q575.49 166.548 573.615 164.719 Q571.74 162.867 571.74 158.006 L571.74 143.932 L568.615 143.932 L568.615 140.622 L571.74 140.622 L571.74 133.261 L576.022 133.261 Z" fill="#000000" fill-rule="nonzero" fill-opacity="1" /><path clip-path="url(#clip140)" d="M602.179 153.515 Q597.017 153.515 595.026 154.696 Q593.036 155.877 593.036 158.724 Q593.036 160.992 594.517 162.335 Q596.022 163.654 598.591 163.654 Q602.133 163.654 604.263 161.154 Q606.415 158.631 606.415 154.465 L606.415 153.515 L602.179 153.515 M610.675 151.756 L610.675 166.548 L606.415 166.548 L606.415 162.613 Q604.957 164.974 602.781 166.108 Q600.605 167.219 597.457 167.219 Q593.476 167.219 591.114 164.997 Q588.776 162.752 588.776 159.002 Q588.776 154.627 591.693 152.404 Q594.633 150.182 600.443 150.182 L606.415 150.182 L606.415 149.766 Q606.415 146.826 604.471 145.228 Q602.55 143.608 599.054 143.608 Q596.832 143.608 594.726 144.141 Q592.619 144.673 590.675 145.738 L590.675 141.803 Q593.013 140.9 595.212 140.46 Q597.411 139.997 599.494 139.997 Q605.119 139.997 607.897 142.914 Q610.675 145.83 610.675 151.756 Z" fill="#000000" fill-rule="nonzero" fill-opacity="1" /><path clip-path="url(#clip140)" d="M644.748 130.576 Q641.647 135.9 640.142 141.108 Q638.637 146.316 638.637 151.664 Q638.637 157.011 640.142 162.265 Q641.67 167.497 644.748 172.798 L641.045 172.798 Q637.573 167.358 635.836 162.103 Q634.123 156.849 634.123 151.664 Q634.123 146.502 635.836 141.27 Q637.549 136.039 641.045 130.576 L644.748 130.576 Z" fill="#000000" fill-rule="nonzero" fill-opacity="1" /><path clip-path="url(#clip140)" d="M663.058 143.608 Q659.633 143.608 657.642 146.293 Q655.651 148.955 655.651 153.608 Q655.651 158.261 657.619 160.946 Q659.609 163.608 663.058 163.608 Q666.461 163.608 668.452 160.923 Q670.443 158.238 670.443 153.608 Q670.443 149.002 668.452 146.316 Q666.461 143.608 663.058 143.608 M663.058 139.997 Q668.614 139.997 671.785 143.608 Q674.957 147.219 674.957 153.608 Q674.957 159.974 671.785 163.608 Q668.614 167.219 663.058 167.219 Q657.48 167.219 654.309 163.608 Q651.16 159.974 651.16 153.608 Q651.16 147.219 654.309 143.608 Q657.48 139.997 663.058 139.997 Z" fill="#000000" fill-rule="nonzero" fill-opacity="1" /><path clip-path="url(#clip140)" d="M700.628 153.608 Q700.628 148.909 698.683 146.247 Q696.762 143.562 693.382 143.562 Q690.003 143.562 688.058 146.247 Q686.137 148.909 686.137 153.608 Q686.137 158.307 688.058 160.992 Q690.003 163.654 693.382 163.654 Q696.762 163.654 698.683 160.992 Q700.628 158.307 700.628 153.608 M686.137 144.557 Q687.48 142.242 689.517 141.131 Q691.577 139.997 694.424 139.997 Q699.146 139.997 702.086 143.747 Q705.049 147.497 705.049 153.608 Q705.049 159.719 702.086 163.469 Q699.146 167.219 694.424 167.219 Q691.577 167.219 689.517 166.108 Q687.48 164.974 686.137 162.659 L686.137 166.548 L681.855 166.548 L681.855 130.529 L686.137 130.529 L686.137 144.557 Z" fill="#000000" fill-rule="nonzero" fill-opacity="1" /><path clip-path="url(#clip140)" d="M728.637 141.386 L728.637 145.414 Q726.831 144.488 724.887 144.025 Q722.942 143.562 720.859 143.562 Q717.688 143.562 716.091 144.534 Q714.517 145.506 714.517 147.451 Q714.517 148.932 715.651 149.789 Q716.785 150.622 720.211 151.386 L721.669 151.71 Q726.206 152.682 728.104 154.465 Q730.026 156.224 730.026 159.395 Q730.026 163.006 727.155 165.113 Q724.308 167.219 719.308 167.219 Q717.225 167.219 714.956 166.802 Q712.711 166.409 710.211 165.599 L710.211 161.201 Q712.572 162.427 714.864 163.052 Q717.155 163.654 719.401 163.654 Q722.41 163.654 724.03 162.636 Q725.651 161.594 725.651 159.719 Q725.651 157.983 724.47 157.057 Q723.313 156.131 719.354 155.275 L717.873 154.928 Q713.915 154.094 712.155 152.381 Q710.396 150.645 710.396 147.636 Q710.396 143.978 712.989 141.988 Q715.581 139.997 720.35 139.997 Q722.711 139.997 724.794 140.344 Q726.878 140.691 728.637 141.386 Z" fill="#000000" fill-rule="nonzero" fill-opacity="1" /><path clip-path="url(#clip140)" d="M758.984 152.52 L758.984 154.603 L739.401 154.603 Q739.678 159.002 742.04 161.316 Q744.424 163.608 748.66 163.608 Q751.114 163.608 753.405 163.006 Q755.72 162.404 757.989 161.201 L757.989 165.228 Q755.697 166.201 753.289 166.71 Q750.882 167.219 748.405 167.219 Q742.202 167.219 738.567 163.608 Q734.956 159.997 734.956 153.84 Q734.956 147.474 738.382 143.747 Q741.831 139.997 747.665 139.997 Q752.896 139.997 755.928 143.377 Q758.984 146.733 758.984 152.52 M754.725 151.27 Q754.678 147.775 752.757 145.691 Q750.859 143.608 747.711 143.608 Q744.146 143.608 741.993 145.622 Q739.864 147.636 739.54 151.293 L754.725 151.27 Z" fill="#000000" fill-rule="nonzero" fill-opacity="1" /><path clip-path="url(#clip140)" d="M780.998 144.603 Q780.28 144.187 779.424 144.002 Q778.59 143.793 777.572 143.793 Q773.961 143.793 772.016 146.154 Q770.095 148.492 770.095 152.89 L770.095 166.548 L765.813 166.548 L765.813 140.622 L770.095 140.622 L770.095 144.65 Q771.438 142.289 773.59 141.154 Q775.743 139.997 778.822 139.997 Q779.262 139.997 779.794 140.066 Q780.326 140.113 780.975 140.229 L780.998 144.603 Z" fill="#000000" fill-rule="nonzero" fill-opacity="1" /><path clip-path="url(#clip140)" d="M782.41 140.622 L786.924 140.622 L795.025 162.381 L803.127 140.622 L807.641 140.622 L797.919 166.548 L792.132 166.548 L782.41 140.622 Z" fill="#000000" fill-rule="nonzero" fill-opacity="1" /><path clip-path="url(#clip140)" d="M835.696 152.52 L835.696 154.603 L816.113 154.603 Q816.391 159.002 818.752 161.316 Q821.136 163.608 825.372 163.608 Q827.826 163.608 830.118 163.006 Q832.433 162.404 834.701 161.201 L834.701 165.228 Q832.409 166.201 830.002 166.71 Q827.595 167.219 825.118 167.219 Q818.914 167.219 815.28 163.608 Q811.669 159.997 811.669 153.84 Q811.669 147.474 815.095 143.747 Q818.544 139.997 824.377 139.997 Q829.609 139.997 832.641 143.377 Q835.696 146.733 835.696 152.52 M831.437 151.27 Q831.391 147.775 829.47 145.691 Q827.571 143.608 824.423 143.608 Q820.859 143.608 818.706 145.622 Q816.576 147.636 816.252 151.293 L831.437 151.27 Z" fill="#000000" fill-rule="nonzero" fill-opacity="1" /><path clip-path="url(#clip140)" d="M859.747 144.557 L859.747 130.529 L864.006 130.529 L864.006 166.548 L859.747 166.548 L859.747 162.659 Q858.405 164.974 856.344 166.108 Q854.307 167.219 851.437 167.219 Q846.738 167.219 843.775 163.469 Q840.835 159.719 840.835 153.608 Q840.835 147.497 843.775 143.747 Q846.738 139.997 851.437 139.997 Q854.307 139.997 856.344 141.131 Q858.405 142.242 859.747 144.557 M845.233 153.608 Q845.233 158.307 847.155 160.992 Q849.099 163.654 852.479 163.654 Q855.858 163.654 857.803 160.992 Q859.747 158.307 859.747 153.608 Q859.747 148.909 857.803 146.247 Q855.858 143.562 852.479 143.562 Q849.099 143.562 847.155 146.247 Q845.233 148.909 845.233 153.608 Z" fill="#000000" fill-rule="nonzero" fill-opacity="1" /><path clip-path="url(#clip140)" d="M899.631 153.515 Q894.469 153.515 892.479 154.696 Q890.488 155.877 890.488 158.724 Q890.488 160.992 891.969 162.335 Q893.474 163.654 896.043 163.654 Q899.585 163.654 901.715 161.154 Q903.867 158.631 903.867 154.465 L903.867 153.515 L899.631 153.515 M908.127 151.756 L908.127 166.548 L903.867 166.548 L903.867 162.613 Q902.409 164.974 900.233 166.108 Q898.057 167.219 894.909 167.219 Q890.928 167.219 888.567 164.997 Q886.229 162.752 886.229 159.002 Q886.229 154.627 889.145 152.404 Q892.085 150.182 897.895 150.182 L903.867 150.182 L903.867 149.766 Q903.867 146.826 901.923 145.228 Q900.002 143.608 896.506 143.608 Q894.284 143.608 892.178 144.141 Q890.071 144.673 888.127 145.738 L888.127 141.803 Q890.465 140.9 892.664 140.46 Q894.863 139.997 896.946 139.997 Q902.571 139.997 905.349 142.914 Q908.127 145.83 908.127 151.756 Z" fill="#000000" fill-rule="nonzero" fill-opacity="1" /><path clip-path="url(#clip140)" d="M933.96 153.284 Q933.96 148.654 932.039 146.108 Q930.14 143.562 926.691 143.562 Q923.265 143.562 921.344 146.108 Q919.446 148.654 919.446 153.284 Q919.446 157.89 921.344 160.437 Q923.265 162.983 926.691 162.983 Q930.14 162.983 932.039 160.437 Q933.96 157.89 933.96 153.284 M938.219 163.33 Q938.219 169.951 935.279 173.168 Q932.339 176.409 926.275 176.409 Q924.029 176.409 922.039 176.062 Q920.048 175.738 918.173 175.043 L918.173 170.9 Q920.048 171.918 921.877 172.404 Q923.705 172.89 925.603 172.89 Q929.793 172.89 931.876 170.691 Q933.96 168.515 933.96 164.094 L933.96 161.988 Q932.64 164.279 930.58 165.414 Q928.52 166.548 925.65 166.548 Q920.881 166.548 917.965 162.914 Q915.048 159.279 915.048 153.284 Q915.048 147.266 917.965 143.631 Q920.881 139.997 925.65 139.997 Q928.52 139.997 930.58 141.131 Q932.64 142.266 933.96 144.557 L933.96 140.622 L938.219 140.622 L938.219 163.33 Z" fill="#000000" fill-rule="nonzero" fill-opacity="1" /><path clip-path="url(#clip140)" d="M969.168 152.52 L969.168 154.603 L949.585 154.603 Q949.863 159.002 952.224 161.316 Q954.608 163.608 958.844 163.608 Q961.298 163.608 963.589 163.006 Q965.904 162.404 968.173 161.201 L968.173 165.228 Q965.881 166.201 963.474 166.71 Q961.066 167.219 958.589 167.219 Q952.386 167.219 948.751 163.608 Q945.14 159.997 945.14 153.84 Q945.14 147.474 948.566 143.747 Q952.015 139.997 957.849 139.997 Q963.08 139.997 966.112 143.377 Q969.168 146.733 969.168 152.52 M964.909 151.27 Q964.862 147.775 962.941 145.691 Q961.043 143.608 957.895 143.608 Q954.33 143.608 952.177 145.622 Q950.048 147.636 949.724 151.293 L964.909 151.27 Z" fill="#000000" fill-rule="nonzero" fill-opacity="1" /><path clip-path="url(#clip140)" d="M992.686 141.386 L992.686 145.414 Q990.881 144.488 988.936 144.025 Q986.992 143.562 984.909 143.562 Q981.737 143.562 980.14 144.534 Q978.566 145.506 978.566 147.451 Q978.566 148.932 979.7 149.789 Q980.835 150.622 984.26 151.386 L985.719 151.71 Q990.256 152.682 992.154 154.465 Q994.075 156.224 994.075 159.395 Q994.075 163.006 991.205 165.113 Q988.358 167.219 983.358 167.219 Q981.274 167.219 979.006 166.802 Q976.761 166.409 974.261 165.599 L974.261 161.201 Q976.622 162.427 978.913 163.052 Q981.205 163.654 983.45 163.654 Q986.46 163.654 988.08 162.636 Q989.7 161.594 989.7 159.719 Q989.7 157.983 988.52 157.057 Q987.362 156.131 983.404 155.275 L981.923 154.928 Q977.964 154.094 976.205 152.381 Q974.446 150.645 974.446 147.636 Q974.446 143.978 977.038 141.988 Q979.631 139.997 984.399 139.997 Q986.76 139.997 988.844 140.344 Q990.927 140.691 992.686 141.386 Z" fill="#000000" fill-rule="nonzero" fill-opacity="1" /><path clip-path="url(#clip140)" d="M1000.19 130.576 L1003.89 130.576 Q1007.36 136.039 1009.08 141.27 Q1010.81 146.502 1010.81 151.664 Q1010.81 156.849 1009.08 162.103 Q1007.36 167.358 1003.89 172.798 L1000.19 172.798 Q1003.26 167.497 1004.77 162.265 Q1006.3 157.011 1006.3 151.664 Q1006.3 146.316 1004.77 141.108 Q1003.26 135.9 1000.19 130.576 Z" fill="#000000" fill-rule="nonzero" fill-opacity="1" /><path clip-path="url(#clip140)" d="M342.841 221.844 L483.068 221.844 L483.068 180.372 L342.841 180.372 L342.841 221.844  Z" fill="#e26f46" fill-rule="evenodd" fill-opacity="0.6"/>
<polyline clip-path="url(#clip140)" style="stroke:#e26f46; stroke-linecap:round; stroke-linejoin:round; stroke-width:4; stroke-opacity:0; fill:none" points="342.841,180.372 483.068,180.372 "/>
<path clip-path="url(#clip140)" d="M506.439 183.828 L513.407 183.828 L522.226 207.346 L531.092 183.828 L538.059 183.828 L538.059 218.388 L533.499 218.388 L533.499 188.041 L524.587 211.744 L519.888 211.744 L510.976 188.041 L510.976 218.388 L506.439 218.388 L506.439 183.828 Z" fill="#000000" fill-rule="nonzero" fill-opacity="1" /><path clip-path="url(#clip140)" d="M557.203 195.448 Q553.777 195.448 551.786 198.133 Q549.795 200.795 549.795 205.448 Q549.795 210.101 551.763 212.786 Q553.754 215.448 557.203 215.448 Q560.605 215.448 562.596 212.763 Q564.587 210.078 564.587 205.448 Q564.587 200.842 562.596 198.156 Q560.605 195.448 557.203 195.448 M557.203 191.837 Q562.758 191.837 565.929 195.448 Q569.101 199.059 569.101 205.448 Q569.101 211.814 565.929 215.448 Q562.758 219.059 557.203 219.059 Q551.624 219.059 548.453 215.448 Q545.304 211.814 545.304 205.448 Q545.304 199.059 548.453 195.448 Q551.624 191.837 557.203 191.837 Z" fill="#000000" fill-rule="nonzero" fill-opacity="1" /><path clip-path="url(#clip140)" d="M593.221 196.397 L593.221 182.369 L597.48 182.369 L597.48 218.388 L593.221 218.388 L593.221 214.499 Q591.878 216.814 589.818 217.948 Q587.781 219.059 584.911 219.059 Q580.212 219.059 577.249 215.309 Q574.309 211.559 574.309 205.448 Q574.309 199.337 577.249 195.587 Q580.212 191.837 584.911 191.837 Q587.781 191.837 589.818 192.971 Q591.878 194.082 593.221 196.397 M578.707 205.448 Q578.707 210.147 580.628 212.832 Q582.573 215.494 585.952 215.494 Q589.332 215.494 591.276 212.832 Q593.221 210.147 593.221 205.448 Q593.221 200.749 591.276 198.087 Q589.332 195.402 585.952 195.402 Q582.573 195.402 580.628 198.087 Q578.707 200.749 578.707 205.448 Z" fill="#000000" fill-rule="nonzero" fill-opacity="1" /><path clip-path="url(#clip140)" d="M628.429 204.36 L628.429 206.443 L608.846 206.443 Q609.124 210.842 611.485 213.156 Q613.869 215.448 618.105 215.448 Q620.559 215.448 622.85 214.846 Q625.165 214.244 627.434 213.041 L627.434 217.068 Q625.142 218.041 622.735 218.55 Q620.327 219.059 617.85 219.059 Q611.647 219.059 608.012 215.448 Q604.401 211.837 604.401 205.68 Q604.401 199.314 607.827 195.587 Q611.276 191.837 617.11 191.837 Q622.341 191.837 625.374 195.217 Q628.429 198.573 628.429 204.36 M624.17 203.11 Q624.124 199.615 622.202 197.531 Q620.304 195.448 617.156 195.448 Q613.591 195.448 611.438 197.462 Q609.309 199.476 608.985 203.133 L624.17 203.11 Z" fill="#000000" fill-rule="nonzero" fill-opacity="1" /><path clip-path="url(#clip140)" d="M635.42 182.369 L639.679 182.369 L639.679 218.388 L635.42 218.388 L635.42 182.369 Z" fill="#000000" fill-rule="nonzero" fill-opacity="1" /><path clip-path="url(#clip140)" d="M673.892 182.416 Q670.79 187.74 669.285 192.948 Q667.781 198.156 667.781 203.504 Q667.781 208.851 669.285 214.105 Q670.813 219.337 673.892 224.638 L670.188 224.638 Q666.716 219.198 664.98 213.943 Q663.267 208.689 663.267 203.504 Q663.267 198.342 664.98 193.11 Q666.693 187.879 670.188 182.416 L673.892 182.416 Z" fill="#000000" fill-rule="nonzero" fill-opacity="1" /><path clip-path="url(#clip140)" d="M693.336 199.244 Q690.188 199.244 688.336 201.397 Q686.507 203.55 686.507 207.3 Q686.507 211.027 688.336 213.203 Q690.188 215.355 693.336 215.355 Q696.484 215.355 698.313 213.203 Q700.165 211.027 700.165 207.3 Q700.165 203.55 698.313 201.397 Q696.484 199.244 693.336 199.244 M702.618 184.592 L702.618 188.851 Q700.859 188.018 699.054 187.578 Q697.271 187.138 695.512 187.138 Q690.882 187.138 688.429 190.263 Q685.998 193.388 685.651 199.707 Q687.017 197.693 689.077 196.629 Q691.137 195.541 693.614 195.541 Q698.822 195.541 701.831 198.712 Q704.864 201.86 704.864 207.3 Q704.864 212.624 701.716 215.842 Q698.568 219.059 693.336 219.059 Q687.341 219.059 684.169 214.476 Q680.998 209.869 680.998 201.143 Q680.998 192.948 684.887 188.087 Q688.776 183.203 695.327 183.203 Q697.086 183.203 698.868 183.55 Q700.674 183.897 702.618 184.592 Z" fill="#000000" fill-rule="nonzero" fill-opacity="1" /><path clip-path="url(#clip140)" d="M712.966 183.828 L731.322 183.828 L731.322 187.763 L717.248 187.763 L717.248 196.235 Q718.267 195.888 719.285 195.726 Q720.304 195.541 721.322 195.541 Q727.109 195.541 730.489 198.712 Q733.868 201.883 733.868 207.3 Q733.868 212.879 730.396 215.98 Q726.924 219.059 720.604 219.059 Q718.429 219.059 716.16 218.689 Q713.915 218.318 711.507 217.578 L711.507 212.879 Q713.591 214.013 715.813 214.568 Q718.035 215.124 720.512 215.124 Q724.516 215.124 726.854 213.017 Q729.192 210.911 729.192 207.3 Q729.192 203.689 726.854 201.582 Q724.516 199.476 720.512 199.476 Q718.637 199.476 716.762 199.893 Q714.91 200.309 712.966 201.189 L712.966 183.828 Z" fill="#000000" fill-rule="nonzero" fill-opacity="1" /><path clip-path="url(#clip140)" d="M743.081 212.508 L747.965 212.508 L747.965 218.388 L743.081 218.388 L743.081 212.508 Z" fill="#000000" fill-rule="nonzero" fill-opacity="1" /><path clip-path="url(#clip140)" d="M758.289 217.67 L758.289 213.411 Q760.049 214.244 761.854 214.684 Q763.66 215.124 765.396 215.124 Q770.026 215.124 772.456 212.022 Q774.91 208.897 775.257 202.555 Q773.914 204.545 771.854 205.61 Q769.794 206.675 767.294 206.675 Q762.109 206.675 759.076 203.55 Q756.067 200.402 756.067 194.962 Q756.067 189.638 759.215 186.42 Q762.364 183.203 767.595 183.203 Q773.59 183.203 776.738 187.809 Q779.91 192.393 779.91 201.143 Q779.91 209.314 776.021 214.198 Q772.155 219.059 765.604 219.059 Q763.845 219.059 762.039 218.712 Q760.234 218.365 758.289 217.67 M767.595 203.018 Q770.743 203.018 772.572 200.865 Q774.424 198.712 774.424 194.962 Q774.424 191.235 772.572 189.082 Q770.743 186.907 767.595 186.907 Q764.447 186.907 762.595 189.082 Q760.766 191.235 760.766 194.962 Q760.766 198.712 762.595 200.865 Q764.447 203.018 767.595 203.018 Z" fill="#000000" fill-rule="nonzero" fill-opacity="1" /><path clip-path="url(#clip140)" d="M792.34 214.453 L808.66 214.453 L808.66 218.388 L786.715 218.388 L786.715 214.453 Q789.377 211.698 793.961 207.068 Q798.567 202.416 799.748 201.073 Q801.993 198.55 802.873 196.814 Q803.775 195.055 803.775 193.365 Q803.775 190.61 801.831 188.874 Q799.91 187.138 796.808 187.138 Q794.609 187.138 792.155 187.902 Q789.724 188.666 786.947 190.217 L786.947 185.494 Q789.771 184.36 792.224 183.782 Q794.678 183.203 796.715 183.203 Q802.086 183.203 805.28 185.888 Q808.474 188.573 808.474 193.064 Q808.474 195.194 807.664 197.115 Q806.877 199.013 804.771 201.606 Q804.192 202.277 801.09 205.494 Q797.988 208.689 792.34 214.453 Z" fill="#000000" fill-rule="nonzero" fill-opacity="1" /><path clip-path="url(#clip140)" d="M818.613 217.67 L818.613 213.411 Q820.372 214.244 822.178 214.684 Q823.984 215.124 825.72 215.124 Q830.349 215.124 832.78 212.022 Q835.233 208.897 835.581 202.555 Q834.238 204.545 832.178 205.61 Q830.118 206.675 827.618 206.675 Q822.433 206.675 819.4 203.55 Q816.391 200.402 816.391 194.962 Q816.391 189.638 819.539 186.42 Q822.687 183.203 827.919 183.203 Q833.914 183.203 837.062 187.809 Q840.233 192.393 840.233 201.143 Q840.233 209.314 836.345 214.198 Q832.479 219.059 825.928 219.059 Q824.169 219.059 822.363 218.712 Q820.558 218.365 818.613 217.67 M827.919 203.018 Q831.067 203.018 832.896 200.865 Q834.747 198.712 834.747 194.962 Q834.747 191.235 832.896 189.082 Q831.067 186.907 827.919 186.907 Q824.771 186.907 822.919 189.082 Q821.09 191.235 821.09 194.962 Q821.09 198.712 822.919 200.865 Q824.771 203.018 827.919 203.018 Z" fill="#000000" fill-rule="nonzero" fill-opacity="1" /><path clip-path="url(#clip140)" d="M880.442 188.666 L880.442 201.559 L893.335 201.559 L893.335 205.494 L880.442 205.494 L880.442 218.388 L876.553 218.388 L876.553 205.494 L863.659 205.494 L863.659 201.559 L876.553 201.559 L876.553 188.666 L880.442 188.666 Z" fill="#000000" fill-rule="nonzero" fill-opacity="1" /><path clip-path="url(#clip140)" d="M913.428 186.907 Q909.816 186.907 907.988 190.471 Q906.182 194.013 906.182 201.143 Q906.182 208.249 907.988 211.814 Q909.816 215.355 913.428 215.355 Q917.062 215.355 918.867 211.814 Q920.696 208.249 920.696 201.143 Q920.696 194.013 918.867 190.471 Q917.062 186.907 913.428 186.907 M913.428 183.203 Q919.238 183.203 922.293 187.809 Q925.372 192.393 925.372 201.143 Q925.372 209.869 922.293 214.476 Q919.238 219.059 913.428 219.059 Q907.617 219.059 904.539 214.476 Q901.483 209.869 901.483 201.143 Q901.483 192.393 904.539 187.809 Q907.617 183.203 913.428 183.203 Z" fill="#000000" fill-rule="nonzero" fill-opacity="1" /><path clip-path="url(#clip140)" d="M933.589 212.508 L938.474 212.508 L938.474 218.388 L933.589 218.388 L933.589 212.508 Z" fill="#000000" fill-rule="nonzero" fill-opacity="1" /><path clip-path="url(#clip140)" d="M958.659 186.907 Q955.048 186.907 953.219 190.471 Q951.413 194.013 951.413 201.143 Q951.413 208.249 953.219 211.814 Q955.048 215.355 958.659 215.355 Q962.293 215.355 964.099 211.814 Q965.927 208.249 965.927 201.143 Q965.927 194.013 964.099 190.471 Q962.293 186.907 958.659 186.907 M958.659 183.203 Q964.469 183.203 967.524 187.809 Q970.603 192.393 970.603 201.143 Q970.603 209.869 967.524 214.476 Q964.469 219.059 958.659 219.059 Q952.849 219.059 949.77 214.476 Q946.714 209.869 946.714 201.143 Q946.714 192.393 949.77 187.809 Q952.849 183.203 958.659 183.203 Z" fill="#000000" fill-rule="nonzero" fill-opacity="1" /><path clip-path="url(#clip140)" d="M992.987 199.754 Q996.344 200.471 998.219 202.74 Q1000.12 205.008 1000.12 208.342 Q1000.12 213.457 996.598 216.258 Q993.08 219.059 986.598 219.059 Q984.423 219.059 982.108 218.619 Q979.816 218.203 977.362 217.346 L977.362 212.832 Q979.307 213.967 981.622 214.545 Q983.936 215.124 986.46 215.124 Q990.858 215.124 993.149 213.388 Q995.464 211.652 995.464 208.342 Q995.464 205.286 993.311 203.573 Q991.182 201.837 987.362 201.837 L983.335 201.837 L983.335 197.994 L987.547 197.994 Q990.997 197.994 992.825 196.629 Q994.654 195.24 994.654 192.647 Q994.654 189.985 992.756 188.573 Q990.881 187.138 987.362 187.138 Q985.441 187.138 983.242 187.555 Q981.043 187.971 978.404 188.851 L978.404 184.684 Q981.066 183.944 983.381 183.573 Q985.719 183.203 987.779 183.203 Q993.103 183.203 996.205 185.633 Q999.307 188.041 999.307 192.161 Q999.307 195.031 997.663 197.022 Q996.02 198.99 992.987 199.754 Z" fill="#000000" fill-rule="nonzero" fill-opacity="1" /><path clip-path="url(#clip140)" d="M1009.79 214.453 L1017.43 214.453 L1017.43 188.087 L1009.12 189.754 L1009.12 185.494 L1017.39 183.828 L1022.06 183.828 L1022.06 214.453 L1029.7 214.453 L1029.7 218.388 L1009.79 218.388 L1009.79 214.453 Z" fill="#000000" fill-rule="nonzero" fill-opacity="1" /><path clip-path="url(#clip140)" d="M1046.11 183.828 L1050.05 183.828 L1038.01 222.786 L1034.08 222.786 L1046.11 183.828 Z" fill="#000000" fill-rule="nonzero" fill-opacity="1" /><path clip-path="url(#clip140)" d="M1052.36 203.504 L1064.84 203.504 L1064.84 207.3 L1052.36 207.3 L1052.36 203.504 Z" fill="#000000" fill-rule="nonzero" fill-opacity="1" /><path clip-path="url(#clip140)" d="M1082.22 186.907 Q1078.61 186.907 1076.78 190.471 Q1074.98 194.013 1074.98 201.143 Q1074.98 208.249 1076.78 211.814 Q1078.61 215.355 1082.22 215.355 Q1085.86 215.355 1087.66 211.814 Q1089.49 208.249 1089.49 201.143 Q1089.49 194.013 1087.66 190.471 Q1085.86 186.907 1082.22 186.907 M1082.22 183.203 Q1088.03 183.203 1091.09 187.809 Q1094.17 192.393 1094.17 201.143 Q1094.17 209.869 1091.09 214.476 Q1088.03 219.059 1082.22 219.059 Q1076.41 219.059 1073.33 214.476 Q1070.28 209.869 1070.28 201.143 Q1070.28 192.393 1073.33 187.809 Q1076.41 183.203 1082.22 183.203 Z" fill="#000000" fill-rule="nonzero" fill-opacity="1" /><path clip-path="url(#clip140)" d="M1102.38 212.508 L1107.27 212.508 L1107.27 218.388 L1102.38 218.388 L1102.38 212.508 Z" fill="#000000" fill-rule="nonzero" fill-opacity="1" /><path clip-path="url(#clip140)" d="M1127.45 186.907 Q1123.84 186.907 1122.01 190.471 Q1120.21 194.013 1120.21 201.143 Q1120.21 208.249 1122.01 211.814 Q1123.84 215.355 1127.45 215.355 Q1131.09 215.355 1132.89 211.814 Q1134.72 208.249 1134.72 201.143 Q1134.72 194.013 1132.89 190.471 Q1131.09 186.907 1127.45 186.907 M1127.45 183.203 Q1133.26 183.203 1136.32 187.809 Q1139.4 192.393 1139.4 201.143 Q1139.4 209.869 1136.32 214.476 Q1133.26 219.059 1127.45 219.059 Q1121.64 219.059 1118.57 214.476 Q1115.51 209.869 1115.51 201.143 Q1115.51 192.393 1118.57 187.809 Q1121.64 183.203 1127.45 183.203 Z" fill="#000000" fill-rule="nonzero" fill-opacity="1" /><path clip-path="url(#clip140)" d="M1160.46 187.902 L1148.66 206.351 L1160.46 206.351 L1160.46 187.902 M1159.24 183.828 L1165.12 183.828 L1165.12 206.351 L1170.05 206.351 L1170.05 210.24 L1165.12 210.24 L1165.12 218.388 L1160.46 218.388 L1160.46 210.24 L1144.86 210.24 L1144.86 205.726 L1159.24 183.828 Z" fill="#000000" fill-rule="nonzero" fill-opacity="1" /><path clip-path="url(#clip140)" d="M1176.6 183.828 L1198.82 183.828 L1198.82 185.819 L1186.27 218.388 L1181.39 218.388 L1193.19 187.763 L1176.6 187.763 L1176.6 183.828 Z" fill="#000000" fill-rule="nonzero" fill-opacity="1" /><path clip-path="url(#clip140)" d="M1222.59 183.828 L1229.56 183.828 L1238.38 207.346 L1247.25 183.828 L1254.21 183.828 L1254.21 218.388 L1249.65 218.388 L1249.65 188.041 L1240.74 211.744 L1236.04 211.744 L1227.13 188.041 L1227.13 218.388 L1222.59 218.388 L1222.59 183.828 Z" fill="#000000" fill-rule="nonzero" fill-opacity="1" /><path clip-path="url(#clip140)" d="M1275.09 205.355 Q1269.93 205.355 1267.94 206.536 Q1265.95 207.717 1265.95 210.564 Q1265.95 212.832 1267.43 214.175 Q1268.93 215.494 1271.5 215.494 Q1275.05 215.494 1277.18 212.994 Q1279.33 210.471 1279.33 206.305 L1279.33 205.355 L1275.09 205.355 M1283.59 203.596 L1283.59 218.388 L1279.33 218.388 L1279.33 214.453 Q1277.87 216.814 1275.69 217.948 Q1273.52 219.059 1270.37 219.059 Q1266.39 219.059 1264.03 216.837 Q1261.69 214.592 1261.69 210.842 Q1261.69 206.467 1264.61 204.244 Q1267.55 202.022 1273.36 202.022 L1279.33 202.022 L1279.33 201.606 Q1279.33 198.666 1277.38 197.068 Q1275.46 195.448 1271.97 195.448 Q1269.75 195.448 1267.64 195.981 Q1265.53 196.513 1263.59 197.578 L1263.59 193.643 Q1265.93 192.74 1268.12 192.3 Q1270.32 191.837 1272.41 191.837 Q1278.03 191.837 1280.81 194.754 Q1283.59 197.67 1283.59 203.596 Z" fill="#000000" fill-rule="nonzero" fill-opacity="1" /><path clip-path="url(#clip140)" d="M1291.69 182.416 L1295.39 182.416 Q1298.87 187.879 1300.58 193.11 Q1302.31 198.342 1302.31 203.504 Q1302.31 208.689 1300.58 213.943 Q1298.87 219.198 1295.39 224.638 L1291.69 224.638 Q1294.77 219.337 1296.27 214.105 Q1297.8 208.851 1297.8 203.504 Q1297.8 198.156 1296.27 192.948 Q1294.77 187.74 1291.69 182.416 Z" fill="#000000" fill-rule="nonzero" fill-opacity="1" /></svg>
