<?xml version="1.0" encoding="utf-8"?>
<svg xmlns="http://www.w3.org/2000/svg" xmlns:xlink="http://www.w3.org/1999/xlink" width="600" height="400" viewBox="0 0 2400 1600">
<defs>
  <clipPath id="clip180">
    <rect x="0" y="0" width="2400" height="1600"/>
  </clipPath>
</defs>
<path clip-path="url(#clip180)" d="M0 1600 L2400 1600 L2400 8.88178e-14 L0 8.88178e-14  Z" fill="#ffffff" fill-rule="evenodd" fill-opacity="1"/>
<defs>
  <clipPath id="clip181">
    <rect x="480" y="0" width="1681" height="1600"/>
  </clipPath>
</defs>
<path clip-path="url(#clip180)" d="M203.964 1423.18 L2352.76 1423.18 L2352.76 47.2441 L203.964 47.2441  Z" fill="#ffffff" fill-rule="evenodd" fill-opacity="1"/>
<defs>
  <clipPath id="clip182">
    <rect x="203" y="47" width="2150" height="1377"/>
  </clipPath>
</defs>
<polyline clip-path="url(#clip182)" style="stroke:#000000; stroke-linecap:round; stroke-linejoin:round; stroke-width:2; stroke-opacity:0.1; fill:none" points="510.747,1423.18 510.747,47.2441 "/>
<polyline clip-path="url(#clip182)" style="stroke:#000000; stroke-linecap:round; stroke-linejoin:round; stroke-width:2; stroke-opacity:0.1; fill:none" points="1094.11,1423.18 1094.11,47.2441 "/>
<polyline clip-path="url(#clip182)" style="stroke:#000000; stroke-linecap:round; stroke-linejoin:round; stroke-width:2; stroke-opacity:0.1; fill:none" points="1677.48,1423.18 1677.48,47.2441 "/>
<polyline clip-path="url(#clip182)" style="stroke:#000000; stroke-linecap:round; stroke-linejoin:round; stroke-width:2; stroke-opacity:0.1; fill:none" points="2260.84,1423.18 2260.84,47.2441 "/>
<polyline clip-path="url(#clip182)" style="stroke:#000000; stroke-linecap:round; stroke-linejoin:round; stroke-width:2; stroke-opacity:0.1; fill:none" points="510.747,1423.18 510.747,47.2441 "/>
<polyline clip-path="url(#clip182)" style="stroke:#000000; stroke-linecap:round; stroke-linejoin:round; stroke-width:2; stroke-opacity:0.1; fill:none" points="1094.11,1423.18 1094.11,47.2441 "/>
<polyline clip-path="url(#clip182)" style="stroke:#000000; stroke-linecap:round; stroke-linejoin:round; stroke-width:2; stroke-opacity:0.1; fill:none" points="1677.48,1423.18 1677.48,47.2441 "/>
<polyline clip-path="url(#clip182)" style="stroke:#000000; stroke-linecap:round; stroke-linejoin:round; stroke-width:2; stroke-opacity:0.1; fill:none" points="2260.84,1423.18 2260.84,47.2441 "/>
<polyline clip-path="url(#clip182)" style="stroke:#000000; stroke-linecap:round; stroke-linejoin:round; stroke-width:2; stroke-opacity:0.1; fill:none" points="203.964,1384.24 2352.76,1384.24 "/>
<polyline clip-path="url(#clip182)" style="stroke:#000000; stroke-linecap:round; stroke-linejoin:round; stroke-width:2; stroke-opacity:0.1; fill:none" points="203.964,1155.56 2352.76,1155.56 "/>
<polyline clip-path="url(#clip182)" style="stroke:#000000; stroke-linecap:round; stroke-linejoin:round; stroke-width:2; stroke-opacity:0.1; fill:none" points="203.964,926.873 2352.76,926.873 "/>
<polyline clip-path="url(#clip182)" style="stroke:#000000; stroke-linecap:round; stroke-linejoin:round; stroke-width:2; stroke-opacity:0.1; fill:none" points="203.964,698.19 2352.76,698.19 "/>
<polyline clip-path="url(#clip182)" style="stroke:#000000; stroke-linecap:round; stroke-linejoin:round; stroke-width:2; stroke-opacity:0.1; fill:none" points="203.964,469.507 2352.76,469.507 "/>
<polyline clip-path="url(#clip182)" style="stroke:#000000; stroke-linecap:round; stroke-linejoin:round; stroke-width:2; stroke-opacity:0.1; fill:none" points="203.964,240.824 2352.76,240.824 "/>
<polyline clip-path="url(#clip182)" style="stroke:#000000; stroke-linecap:round; stroke-linejoin:round; stroke-width:2; stroke-opacity:0.1; fill:none" points="203.964,1384.24 2352.76,1384.24 "/>
<polyline clip-path="url(#clip182)" style="stroke:#000000; stroke-linecap:round; stroke-linejoin:round; stroke-width:2; stroke-opacity:0.1; fill:none" points="203.964,1155.56 2352.76,1155.56 "/>
<polyline clip-path="url(#clip182)" style="stroke:#000000; stroke-linecap:round; stroke-linejoin:round; stroke-width:2; stroke-opacity:0.1; fill:none" points="203.964,926.873 2352.76,926.873 "/>
<polyline clip-path="url(#clip182)" style="stroke:#000000; stroke-linecap:round; stroke-linejoin:round; stroke-width:2; stroke-opacity:0.1; fill:none" points="203.964,698.19 2352.76,698.19 "/>
<polyline clip-path="url(#clip182)" style="stroke:#000000; stroke-linecap:round; stroke-linejoin:round; stroke-width:2; stroke-opacity:0.1; fill:none" points="203.964,469.507 2352.76,469.507 "/>
<polyline clip-path="url(#clip182)" style="stroke:#000000; stroke-linecap:round; stroke-linejoin:round; stroke-width:2; stroke-opacity:0.1; fill:none" points="203.964,240.824 2352.76,240.824 "/>
<polyline clip-path="url(#clip180)" style="stroke:#000000; stroke-linecap:round; stroke-linejoin:round; stroke-width:4; stroke-opacity:1; fill:none" points="203.964,1423.18 2352.76,1423.18 "/>
<polyline clip-path="url(#clip180)" style="stroke:#000000; stroke-linecap:round; stroke-linejoin:round; stroke-width:4; stroke-opacity:1; fill:none" points="203.964,47.2441 2352.76,47.2441 "/>
<polyline clip-path="url(#clip180)" style="stroke:#000000; stroke-linecap:round; stroke-linejoin:round; stroke-width:4; stroke-opacity:1; fill:none" points="510.747,1423.18 510.747,1404.28 "/>
<polyline clip-path="url(#clip180)" style="stroke:#000000; stroke-linecap:round; stroke-linejoin:round; stroke-width:4; stroke-opacity:1; fill:none" points="1094.11,1423.18 1094.11,1404.28 "/>
<polyline clip-path="url(#clip180)" style="stroke:#000000; stroke-linecap:round; stroke-linejoin:round; stroke-width:4; stroke-opacity:1; fill:none" points="1677.48,1423.18 1677.48,1404.28 "/>
<polyline clip-path="url(#clip180)" style="stroke:#000000; stroke-linecap:round; stroke-linejoin:round; stroke-width:4; stroke-opacity:1; fill:none" points="2260.84,1423.18 2260.84,1404.28 "/>
<polyline clip-path="url(#clip180)" style="stroke:#000000; stroke-linecap:round; stroke-linejoin:round; stroke-width:4; stroke-opacity:1; fill:none" points="510.747,47.2441 510.747,66.1417 "/>
<polyline clip-path="url(#clip180)" style="stroke:#000000; stroke-linecap:round; stroke-linejoin:round; stroke-width:4; stroke-opacity:1; fill:none" points="1094.11,47.2441 1094.11,66.1417 "/>
<polyline clip-path="url(#clip180)" style="stroke:#000000; stroke-linecap:round; stroke-linejoin:round; stroke-width:4; stroke-opacity:1; fill:none" points="1677.48,47.2441 1677.48,66.1417 "/>
<polyline clip-path="url(#clip180)" style="stroke:#000000; stroke-linecap:round; stroke-linejoin:round; stroke-width:4; stroke-opacity:1; fill:none" points="2260.84,47.2441 2260.84,66.1417 "/>
<path clip-path="url(#clip180)" d="M473.988 1466.44 Q470.84 1466.44 468.988 1468.59 Q467.16 1470.74 467.16 1474.49 Q467.16 1478.22 468.988 1480.39 Q470.84 1482.55 473.988 1482.55 Q477.136 1482.55 478.965 1480.39 Q480.817 1478.22 480.817 1474.49 Q480.817 1470.74 478.965 1468.59 Q477.136 1466.44 473.988 1466.44 M483.271 1451.78 L483.271 1456.04 Q481.511 1455.21 479.706 1454.77 Q477.923 1454.33 476.164 1454.33 Q471.535 1454.33 469.081 1457.45 Q466.65 1460.58 466.303 1466.9 Q467.669 1464.89 469.729 1463.82 Q471.789 1462.73 474.266 1462.73 Q479.474 1462.73 482.484 1465.9 Q485.516 1469.05 485.516 1474.49 Q485.516 1479.82 482.368 1483.03 Q479.22 1486.25 473.988 1486.25 Q467.993 1486.25 464.822 1481.67 Q461.65 1477.06 461.65 1468.33 Q461.65 1460.14 465.539 1455.28 Q469.428 1450.39 475.979 1450.39 Q477.738 1450.39 479.521 1450.74 Q481.326 1451.09 483.271 1451.78 Z" fill="#000000" fill-rule="nonzero" fill-opacity="1" /><path clip-path="url(#clip180)" d="M493.618 1451.02 L511.974 1451.02 L511.974 1454.96 L497.9 1454.96 L497.9 1463.43 Q498.919 1463.08 499.937 1462.92 Q500.956 1462.73 501.974 1462.73 Q507.761 1462.73 511.141 1465.9 Q514.52 1469.08 514.52 1474.49 Q514.52 1480.07 511.048 1483.17 Q507.576 1486.25 501.257 1486.25 Q499.081 1486.25 496.812 1485.88 Q494.567 1485.51 492.159 1484.77 L492.159 1480.07 Q494.243 1481.2 496.465 1481.76 Q498.687 1482.32 501.164 1482.32 Q505.169 1482.32 507.507 1480.21 Q509.845 1478.1 509.845 1474.49 Q509.845 1470.88 507.507 1468.77 Q505.169 1466.67 501.164 1466.67 Q499.289 1466.67 497.414 1467.08 Q495.562 1467.5 493.618 1468.38 L493.618 1451.02 Z" fill="#000000" fill-rule="nonzero" fill-opacity="1" /><path clip-path="url(#clip180)" d="M523.733 1479.7 L528.618 1479.7 L528.618 1485.58 L523.733 1485.58 L523.733 1479.7 Z" fill="#000000" fill-rule="nonzero" fill-opacity="1" /><path clip-path="url(#clip180)" d="M537.622 1451.02 L559.844 1451.02 L559.844 1453.01 L547.298 1485.58 L542.414 1485.58 L554.219 1454.96 L537.622 1454.96 L537.622 1451.02 Z" fill="#000000" fill-rule="nonzero" fill-opacity="1" /><path clip-path="url(#clip180)" d="M1056.95 1466.44 Q1053.8 1466.44 1051.95 1468.59 Q1050.12 1470.74 1050.12 1474.49 Q1050.12 1478.22 1051.95 1480.39 Q1053.8 1482.55 1056.95 1482.55 Q1060.1 1482.55 1061.93 1480.39 Q1063.78 1478.22 1063.78 1474.49 Q1063.78 1470.74 1061.93 1468.59 Q1060.1 1466.44 1056.95 1466.44 M1066.23 1451.78 L1066.23 1456.04 Q1064.47 1455.21 1062.67 1454.77 Q1060.88 1454.33 1059.12 1454.33 Q1054.49 1454.33 1052.04 1457.45 Q1049.61 1460.58 1049.26 1466.9 Q1050.63 1464.89 1052.69 1463.82 Q1054.75 1462.73 1057.23 1462.73 Q1062.43 1462.73 1065.44 1465.9 Q1068.48 1469.05 1068.48 1474.49 Q1068.48 1479.82 1065.33 1483.03 Q1062.18 1486.25 1056.95 1486.25 Q1050.95 1486.25 1047.78 1481.67 Q1044.61 1477.06 1044.61 1468.33 Q1044.61 1460.14 1048.5 1455.28 Q1052.39 1450.39 1058.94 1450.39 Q1060.7 1450.39 1062.48 1450.74 Q1064.29 1451.09 1066.23 1451.78 Z" fill="#000000" fill-rule="nonzero" fill-opacity="1" /><path clip-path="url(#clip180)" d="M1076.58 1451.02 L1094.93 1451.02 L1094.93 1454.96 L1080.86 1454.96 L1080.86 1463.43 Q1081.88 1463.08 1082.9 1462.92 Q1083.92 1462.73 1084.93 1462.73 Q1090.72 1462.73 1094.1 1465.9 Q1097.48 1469.08 1097.48 1474.49 Q1097.48 1480.07 1094.01 1483.17 Q1090.54 1486.25 1084.22 1486.25 Q1082.04 1486.25 1079.77 1485.88 Q1077.53 1485.51 1075.12 1484.77 L1075.12 1480.07 Q1077.2 1481.2 1079.43 1481.76 Q1081.65 1482.32 1084.12 1482.32 Q1088.13 1482.32 1090.47 1480.21 Q1092.8 1478.1 1092.8 1474.49 Q1092.8 1470.88 1090.47 1468.77 Q1088.13 1466.67 1084.12 1466.67 Q1082.25 1466.67 1080.37 1467.08 Q1078.52 1467.5 1076.58 1468.38 L1076.58 1451.02 Z" fill="#000000" fill-rule="nonzero" fill-opacity="1" /><path clip-path="url(#clip180)" d="M1106.69 1479.7 L1111.58 1479.7 L1111.58 1485.58 L1106.69 1485.58 L1106.69 1479.7 Z" fill="#000000" fill-rule="nonzero" fill-opacity="1" /><path clip-path="url(#clip180)" d="M1131.76 1469.17 Q1128.43 1469.17 1126.51 1470.95 Q1124.61 1472.73 1124.61 1475.86 Q1124.61 1478.98 1126.51 1480.77 Q1128.43 1482.55 1131.76 1482.55 Q1135.1 1482.55 1137.02 1480.77 Q1138.94 1478.96 1138.94 1475.86 Q1138.94 1472.73 1137.02 1470.95 Q1135.12 1469.17 1131.76 1469.17 M1127.09 1467.18 Q1124.08 1466.44 1122.39 1464.38 Q1120.72 1462.32 1120.72 1459.35 Q1120.72 1455.21 1123.66 1452.8 Q1126.62 1450.39 1131.76 1450.39 Q1136.92 1450.39 1139.86 1452.8 Q1142.8 1455.21 1142.8 1459.35 Q1142.8 1462.32 1141.11 1464.38 Q1139.45 1466.44 1136.46 1467.18 Q1139.84 1467.96 1141.72 1470.26 Q1143.61 1472.55 1143.61 1475.86 Q1143.61 1480.88 1140.54 1483.57 Q1137.48 1486.25 1131.76 1486.25 Q1126.05 1486.25 1122.97 1483.57 Q1119.91 1480.88 1119.91 1475.86 Q1119.91 1472.55 1121.81 1470.26 Q1123.71 1467.96 1127.09 1467.18 M1125.37 1459.79 Q1125.37 1462.48 1127.04 1463.98 Q1128.73 1465.49 1131.76 1465.49 Q1134.77 1465.49 1136.46 1463.98 Q1138.17 1462.48 1138.17 1459.79 Q1138.17 1457.11 1136.46 1455.6 Q1134.77 1454.1 1131.76 1454.1 Q1128.73 1454.1 1127.04 1455.6 Q1125.37 1457.11 1125.37 1459.79 Z" fill="#000000" fill-rule="nonzero" fill-opacity="1" /><path clip-path="url(#clip180)" d="M1640.36 1466.44 Q1637.21 1466.44 1635.36 1468.59 Q1633.53 1470.74 1633.53 1474.49 Q1633.53 1478.22 1635.36 1480.39 Q1637.21 1482.55 1640.36 1482.55 Q1643.51 1482.55 1645.34 1480.39 Q1647.19 1478.22 1647.19 1474.49 Q1647.19 1470.74 1645.34 1468.59 Q1643.51 1466.44 1640.36 1466.44 M1649.64 1451.78 L1649.64 1456.04 Q1647.88 1455.21 1646.08 1454.77 Q1644.3 1454.33 1642.54 1454.33 Q1637.91 1454.33 1635.45 1457.45 Q1633.02 1460.58 1632.68 1466.9 Q1634.04 1464.89 1636.1 1463.82 Q1638.16 1462.73 1640.64 1462.73 Q1645.85 1462.73 1648.86 1465.9 Q1651.89 1469.05 1651.89 1474.49 Q1651.89 1479.82 1648.74 1483.03 Q1645.59 1486.25 1640.36 1486.25 Q1634.36 1486.25 1631.19 1481.67 Q1628.02 1477.06 1628.02 1468.33 Q1628.02 1460.14 1631.91 1455.28 Q1635.8 1450.39 1642.35 1450.39 Q1644.11 1450.39 1645.89 1450.74 Q1647.7 1451.09 1649.64 1451.78 Z" fill="#000000" fill-rule="nonzero" fill-opacity="1" /><path clip-path="url(#clip180)" d="M1659.99 1451.02 L1678.35 1451.02 L1678.35 1454.96 L1664.27 1454.96 L1664.27 1463.43 Q1665.29 1463.08 1666.31 1462.92 Q1667.33 1462.73 1668.35 1462.73 Q1674.13 1462.73 1677.51 1465.9 Q1680.89 1469.08 1680.89 1474.49 Q1680.89 1480.07 1677.42 1483.17 Q1673.95 1486.25 1667.63 1486.25 Q1665.45 1486.25 1663.18 1485.88 Q1660.94 1485.51 1658.53 1484.77 L1658.53 1480.07 Q1660.61 1481.2 1662.84 1481.76 Q1665.06 1482.32 1667.54 1482.32 Q1671.54 1482.32 1673.88 1480.21 Q1676.22 1478.1 1676.22 1474.49 Q1676.22 1470.88 1673.88 1468.77 Q1671.54 1466.67 1667.54 1466.67 Q1665.66 1466.67 1663.79 1467.08 Q1661.93 1467.5 1659.99 1468.38 L1659.99 1451.02 Z" fill="#000000" fill-rule="nonzero" fill-opacity="1" /><path clip-path="url(#clip180)" d="M1690.11 1479.7 L1694.99 1479.7 L1694.99 1485.58 L1690.11 1485.58 L1690.11 1479.7 Z" fill="#000000" fill-rule="nonzero" fill-opacity="1" /><path clip-path="url(#clip180)" d="M1705.31 1484.86 L1705.31 1480.6 Q1707.07 1481.44 1708.88 1481.88 Q1710.68 1482.32 1712.42 1482.32 Q1717.05 1482.32 1719.48 1479.21 Q1721.93 1476.09 1722.28 1469.75 Q1720.94 1471.74 1718.88 1472.8 Q1716.82 1473.87 1714.32 1473.87 Q1709.13 1473.87 1706.1 1470.74 Q1703.09 1467.59 1703.09 1462.15 Q1703.09 1456.83 1706.24 1453.61 Q1709.39 1450.39 1714.62 1450.39 Q1720.61 1450.39 1723.76 1455 Q1726.93 1459.58 1726.93 1468.33 Q1726.93 1476.51 1723.04 1481.39 Q1719.18 1486.25 1712.63 1486.25 Q1710.87 1486.25 1709.06 1485.9 Q1707.26 1485.56 1705.31 1484.86 M1714.62 1470.21 Q1717.77 1470.21 1719.6 1468.06 Q1721.45 1465.9 1721.45 1462.15 Q1721.45 1458.43 1719.6 1456.27 Q1717.77 1454.1 1714.62 1454.1 Q1711.47 1454.1 1709.62 1456.27 Q1707.79 1458.43 1707.79 1462.15 Q1707.79 1465.9 1709.62 1468.06 Q1711.47 1470.21 1714.62 1470.21 Z" fill="#000000" fill-rule="nonzero" fill-opacity="1" /><path clip-path="url(#clip180)" d="M2223.63 1466.44 Q2220.48 1466.44 2218.63 1468.59 Q2216.8 1470.74 2216.8 1474.49 Q2216.8 1478.22 2218.63 1480.39 Q2220.48 1482.55 2223.63 1482.55 Q2226.78 1482.55 2228.61 1480.39 Q2230.46 1478.22 2230.46 1474.49 Q2230.46 1470.74 2228.61 1468.59 Q2226.78 1466.44 2223.63 1466.44 M2232.92 1451.78 L2232.92 1456.04 Q2231.16 1455.21 2229.35 1454.77 Q2227.57 1454.33 2225.81 1454.33 Q2221.18 1454.33 2218.73 1457.45 Q2216.3 1460.58 2215.95 1466.9 Q2217.31 1464.89 2219.37 1463.82 Q2221.43 1462.73 2223.91 1462.73 Q2229.12 1462.73 2232.13 1465.9 Q2235.16 1469.05 2235.16 1474.49 Q2235.16 1479.82 2232.01 1483.03 Q2228.86 1486.25 2223.63 1486.25 Q2217.64 1486.25 2214.47 1481.67 Q2211.3 1477.06 2211.3 1468.33 Q2211.3 1460.14 2215.18 1455.28 Q2219.07 1450.39 2225.62 1450.39 Q2227.38 1450.39 2229.17 1450.74 Q2230.97 1451.09 2232.92 1451.78 Z" fill="#000000" fill-rule="nonzero" fill-opacity="1" /><path clip-path="url(#clip180)" d="M2253.79 1466.44 Q2250.65 1466.44 2248.79 1468.59 Q2246.97 1470.74 2246.97 1474.49 Q2246.97 1478.22 2248.79 1480.39 Q2250.65 1482.55 2253.79 1482.55 Q2256.94 1482.55 2258.77 1480.39 Q2260.62 1478.22 2260.62 1474.49 Q2260.62 1470.74 2258.77 1468.59 Q2256.94 1466.44 2253.79 1466.44 M2263.08 1451.78 L2263.08 1456.04 Q2261.32 1455.21 2259.51 1454.77 Q2257.73 1454.33 2255.97 1454.33 Q2251.34 1454.33 2248.89 1457.45 Q2246.46 1460.58 2246.11 1466.9 Q2247.48 1464.89 2249.54 1463.82 Q2251.6 1462.73 2254.07 1462.73 Q2259.28 1462.73 2262.29 1465.9 Q2265.32 1469.05 2265.32 1474.49 Q2265.32 1479.82 2262.17 1483.03 Q2259.03 1486.25 2253.79 1486.25 Q2247.8 1486.25 2244.63 1481.67 Q2241.46 1477.06 2241.46 1468.33 Q2241.46 1460.14 2245.35 1455.28 Q2249.23 1450.39 2255.79 1450.39 Q2257.54 1450.39 2259.33 1450.74 Q2261.13 1451.09 2263.08 1451.78 Z" fill="#000000" fill-rule="nonzero" fill-opacity="1" /><path clip-path="url(#clip180)" d="M2273.38 1479.7 L2278.26 1479.7 L2278.26 1485.58 L2273.38 1485.58 L2273.38 1479.7 Z" fill="#000000" fill-rule="nonzero" fill-opacity="1" /><path clip-path="url(#clip180)" d="M2298.45 1454.1 Q2294.84 1454.1 2293.01 1457.66 Q2291.2 1461.2 2291.2 1468.33 Q2291.2 1475.44 2293.01 1479.01 Q2294.84 1482.55 2298.45 1482.55 Q2302.08 1482.55 2303.89 1479.01 Q2305.72 1475.44 2305.72 1468.33 Q2305.72 1461.2 2303.89 1457.66 Q2302.08 1454.1 2298.45 1454.1 M2298.45 1450.39 Q2304.26 1450.39 2307.31 1455 Q2310.39 1459.58 2310.39 1468.33 Q2310.39 1477.06 2307.31 1481.67 Q2304.26 1486.25 2298.45 1486.25 Q2292.64 1486.25 2289.56 1481.67 Q2286.5 1477.06 2286.5 1468.33 Q2286.5 1459.58 2289.56 1455 Q2292.64 1450.39 2298.45 1450.39 Z" fill="#000000" fill-rule="nonzero" fill-opacity="1" /><path clip-path="url(#clip180)" d="M1156.27 1526.86 L1147.54 1550.51 L1165.02 1550.51 L1156.27 1526.86 M1152.64 1520.52 L1159.93 1520.52 L1178.04 1568.04 L1171.35 1568.04 L1167.02 1555.85 L1145.6 1555.85 L1141.27 1568.04 L1134.49 1568.04 L1152.64 1520.52 Z" fill="#000000" fill-rule="nonzero" fill-opacity="1" /><path clip-path="url(#clip180)" d="M1208.18 1549.81 Q1208.18 1543.44 1205.54 1539.94 Q1202.93 1536.44 1198.18 1536.44 Q1193.47 1536.44 1190.83 1539.94 Q1188.22 1543.44 1188.22 1549.81 Q1188.22 1556.14 1190.83 1559.64 Q1193.47 1563.14 1198.18 1563.14 Q1202.93 1563.14 1205.54 1559.64 Q1208.18 1556.14 1208.18 1549.81 M1214.03 1563.62 Q1214.03 1572.72 1209.99 1577.15 Q1205.95 1581.6 1197.61 1581.6 Q1194.52 1581.6 1191.79 1581.13 Q1189.05 1580.68 1186.47 1579.72 L1186.47 1574.03 Q1189.05 1575.43 1191.56 1576.1 Q1194.08 1576.76 1196.69 1576.76 Q1202.45 1576.76 1205.31 1573.74 Q1208.18 1570.75 1208.18 1564.67 L1208.18 1561.77 Q1206.36 1564.92 1203.53 1566.48 Q1200.7 1568.04 1196.75 1568.04 Q1190.19 1568.04 1186.18 1563.05 Q1182.17 1558.05 1182.17 1549.81 Q1182.17 1541.53 1186.18 1536.53 Q1190.19 1531.54 1196.75 1531.54 Q1200.7 1531.54 1203.53 1533.1 Q1206.36 1534.66 1208.18 1537.81 L1208.18 1532.4 L1214.03 1532.4 L1214.03 1563.62 Z" fill="#000000" fill-rule="nonzero" fill-opacity="1" /><path clip-path="url(#clip180)" d="M1256.59 1548.76 L1256.59 1551.62 L1229.66 1551.62 Q1230.04 1557.67 1233.29 1560.85 Q1236.57 1564 1242.39 1564 Q1245.77 1564 1248.92 1563.17 Q1252.1 1562.35 1255.22 1560.69 L1255.22 1566.23 Q1252.07 1567.57 1248.76 1568.27 Q1245.45 1568.97 1242.04 1568.97 Q1233.51 1568.97 1228.52 1564 Q1223.55 1559.04 1223.55 1550.57 Q1223.55 1541.82 1228.26 1536.69 Q1233 1531.54 1241.02 1531.54 Q1248.22 1531.54 1252.39 1536.18 Q1256.59 1540.8 1256.59 1548.76 M1250.73 1547.04 Q1250.67 1542.23 1248.03 1539.37 Q1245.42 1536.5 1241.09 1536.5 Q1236.19 1536.5 1233.23 1539.27 Q1230.3 1542.04 1229.85 1547.07 L1250.73 1547.04 Z" fill="#000000" fill-rule="nonzero" fill-opacity="1" /><path clip-path="url(#clip180)" d="M1300.99 1518.58 Q1296.72 1525.9 1294.66 1533.06 Q1292.59 1540.23 1292.59 1547.58 Q1292.59 1554.93 1294.66 1562.16 Q1296.76 1569.35 1300.99 1576.64 L1295.9 1576.64 Q1291.12 1569.16 1288.74 1561.93 Q1286.38 1554.71 1286.38 1547.58 Q1286.38 1540.48 1288.74 1533.29 Q1291.09 1526.09 1295.9 1518.58 L1300.99 1518.58 Z" fill="#000000" fill-rule="nonzero" fill-opacity="1" /><path clip-path="url(#clip180)" d="M1312.61 1520.52 L1322.19 1520.52 L1334.31 1552.86 L1346.5 1520.52 L1356.09 1520.52 L1356.09 1568.04 L1349.81 1568.04 L1349.81 1526.32 L1337.56 1558.91 L1331.1 1558.91 L1318.85 1526.32 L1318.85 1568.04 L1312.61 1568.04 L1312.61 1520.52 Z" fill="#000000" fill-rule="nonzero" fill-opacity="1" /><path clip-path="url(#clip180)" d="M1384.79 1550.12 Q1377.7 1550.12 1374.96 1551.75 Q1372.22 1553.37 1372.22 1557.29 Q1372.22 1560.4 1374.26 1562.25 Q1376.33 1564.07 1379.86 1564.07 Q1384.73 1564.07 1387.66 1560.63 Q1390.62 1557.16 1390.62 1551.43 L1390.62 1550.12 L1384.79 1550.12 M1396.48 1547.71 L1396.48 1568.04 L1390.62 1568.04 L1390.62 1562.63 Q1388.61 1565.88 1385.62 1567.44 Q1382.63 1568.97 1378.3 1568.97 Q1372.83 1568.97 1369.58 1565.91 Q1366.37 1562.82 1366.37 1557.67 Q1366.37 1551.65 1370.38 1548.6 Q1374.42 1545.54 1382.41 1545.54 L1390.62 1545.54 L1390.62 1544.97 Q1390.62 1540.93 1387.95 1538.73 Q1385.3 1536.5 1380.5 1536.5 Q1377.44 1536.5 1374.55 1537.23 Q1371.65 1537.97 1368.98 1539.43 L1368.98 1534.02 Q1372.19 1532.78 1375.21 1532.17 Q1378.24 1531.54 1381.1 1531.54 Q1388.84 1531.54 1392.66 1535.55 Q1396.48 1539.56 1396.48 1547.71 Z" fill="#000000" fill-rule="nonzero" fill-opacity="1" /><path clip-path="url(#clip180)" d="M1407.62 1518.58 L1412.71 1518.58 Q1417.48 1526.09 1419.84 1533.29 Q1422.22 1540.48 1422.22 1547.58 Q1422.22 1554.71 1419.84 1561.93 Q1417.48 1569.16 1412.71 1576.64 L1407.62 1576.64 Q1411.85 1569.35 1413.92 1562.16 Q1416.02 1554.93 1416.02 1547.58 Q1416.02 1540.23 1413.92 1533.06 Q1411.85 1525.9 1407.62 1518.58 Z" fill="#000000" fill-rule="nonzero" fill-opacity="1" /><polyline clip-path="url(#clip180)" style="stroke:#000000; stroke-linecap:round; stroke-linejoin:round; stroke-width:4; stroke-opacity:1; fill:none" points="203.964,1423.18 203.964,47.2441 "/>
<polyline clip-path="url(#clip180)" style="stroke:#000000; stroke-linecap:round; stroke-linejoin:round; stroke-width:4; stroke-opacity:1; fill:none" points="2352.76,1423.18 2352.76,47.2441 "/>
<polyline clip-path="url(#clip180)" style="stroke:#000000; stroke-linecap:round; stroke-linejoin:round; stroke-width:4; stroke-opacity:1; fill:none" points="203.964,1384.24 222.861,1384.24 "/>
<polyline clip-path="url(#clip180)" style="stroke:#000000; stroke-linecap:round; stroke-linejoin:round; stroke-width:4; stroke-opacity:1; fill:none" points="203.964,1155.56 222.861,1155.56 "/>
<polyline clip-path="url(#clip180)" style="stroke:#000000; stroke-linecap:round; stroke-linejoin:round; stroke-width:4; stroke-opacity:1; fill:none" points="203.964,926.873 222.861,926.873 "/>
<polyline clip-path="url(#clip180)" style="stroke:#000000; stroke-linecap:round; stroke-linejoin:round; stroke-width:4; stroke-opacity:1; fill:none" points="203.964,698.19 222.861,698.19 "/>
<polyline clip-path="url(#clip180)" style="stroke:#000000; stroke-linecap:round; stroke-linejoin:round; stroke-width:4; stroke-opacity:1; fill:none" points="203.964,469.507 222.861,469.507 "/>
<polyline clip-path="url(#clip180)" style="stroke:#000000; stroke-linecap:round; stroke-linejoin:round; stroke-width:4; stroke-opacity:1; fill:none" points="203.964,240.824 222.861,240.824 "/>
<polyline clip-path="url(#clip180)" style="stroke:#000000; stroke-linecap:round; stroke-linejoin:round; stroke-width:4; stroke-opacity:1; fill:none" points="2352.76,1384.24 2333.86,1384.24 "/>
<polyline clip-path="url(#clip180)" style="stroke:#000000; stroke-linecap:round; stroke-linejoin:round; stroke-width:4; stroke-opacity:1; fill:none" points="2352.76,1155.56 2333.86,1155.56 "/>
<polyline clip-path="url(#clip180)" style="stroke:#000000; stroke-linecap:round; stroke-linejoin:round; stroke-width:4; stroke-opacity:1; fill:none" points="2352.76,926.873 2333.86,926.873 "/>
<polyline clip-path="url(#clip180)" style="stroke:#000000; stroke-linecap:round; stroke-linejoin:round; stroke-width:4; stroke-opacity:1; fill:none" points="2352.76,698.19 2333.86,698.19 "/>
<polyline clip-path="url(#clip180)" style="stroke:#000000; stroke-linecap:round; stroke-linejoin:round; stroke-width:4; stroke-opacity:1; fill:none" points="2352.76,469.507 2333.86,469.507 "/>
<polyline clip-path="url(#clip180)" style="stroke:#000000; stroke-linecap:round; stroke-linejoin:round; stroke-width:4; stroke-opacity:1; fill:none" points="2352.76,240.824 2333.86,240.824 "/>
<path clip-path="url(#clip180)" d="M156.019 1370.04 Q152.408 1370.04 150.579 1373.6 Q148.774 1377.14 148.774 1384.27 Q148.774 1391.38 150.579 1394.95 Q152.408 1398.49 156.019 1398.49 Q159.653 1398.49 161.459 1394.95 Q163.288 1391.38 163.288 1384.27 Q163.288 1377.14 161.459 1373.6 Q159.653 1370.04 156.019 1370.04 M156.019 1366.33 Q161.829 1366.33 164.885 1370.94 Q167.964 1375.52 167.964 1384.27 Q167.964 1393 164.885 1397.61 Q161.829 1402.19 156.019 1402.19 Q150.209 1402.19 147.13 1397.61 Q144.075 1393 144.075 1384.27 Q144.075 1375.52 147.13 1370.94 Q150.209 1366.33 156.019 1366.33 Z" fill="#000000" fill-rule="nonzero" fill-opacity="1" /><path clip-path="url(#clip180)" d="M147.061 1138.28 L165.417 1138.28 L165.417 1142.21 L151.343 1142.21 L151.343 1150.68 Q152.362 1150.34 153.38 1150.17 Q154.399 1149.99 155.417 1149.99 Q161.204 1149.99 164.584 1153.16 Q167.964 1156.33 167.964 1161.75 Q167.964 1167.33 164.491 1170.43 Q161.019 1173.51 154.7 1173.51 Q152.524 1173.51 150.255 1173.14 Q148.01 1172.77 145.603 1172.03 L145.603 1167.33 Q147.686 1168.46 149.908 1169.02 Q152.13 1169.57 154.607 1169.57 Q158.612 1169.57 160.95 1167.47 Q163.288 1165.36 163.288 1161.75 Q163.288 1158.14 160.95 1156.03 Q158.612 1153.92 154.607 1153.92 Q152.732 1153.92 150.857 1154.34 Q149.005 1154.76 147.061 1155.64 L147.061 1138.28 Z" fill="#000000" fill-rule="nonzero" fill-opacity="1" /><path clip-path="url(#clip180)" d="M116.668 940.218 L124.306 940.218 L124.306 913.853 L115.996 915.519 L115.996 911.26 L124.26 909.593 L128.936 909.593 L128.936 940.218 L136.575 940.218 L136.575 944.153 L116.668 944.153 L116.668 940.218 Z" fill="#000000" fill-rule="nonzero" fill-opacity="1" /><path clip-path="url(#clip180)" d="M156.019 912.672 Q152.408 912.672 150.579 916.237 Q148.774 919.778 148.774 926.908 Q148.774 934.014 150.579 937.579 Q152.408 941.121 156.019 941.121 Q159.653 941.121 161.459 937.579 Q163.288 934.014 163.288 926.908 Q163.288 919.778 161.459 916.237 Q159.653 912.672 156.019 912.672 M156.019 908.968 Q161.829 908.968 164.885 913.575 Q167.964 918.158 167.964 926.908 Q167.964 935.635 164.885 940.241 Q161.829 944.825 156.019 944.825 Q150.209 944.825 147.13 940.241 Q144.075 935.635 144.075 926.908 Q144.075 918.158 147.13 913.575 Q150.209 908.968 156.019 908.968 Z" fill="#000000" fill-rule="nonzero" fill-opacity="1" /><path clip-path="url(#clip180)" d="M117.663 711.535 L125.302 711.535 L125.302 685.169 L116.992 686.836 L116.992 682.577 L125.255 680.91 L129.931 680.91 L129.931 711.535 L137.57 711.535 L137.57 715.47 L117.663 715.47 L117.663 711.535 Z" fill="#000000" fill-rule="nonzero" fill-opacity="1" /><path clip-path="url(#clip180)" d="M147.061 680.91 L165.417 680.91 L165.417 684.845 L151.343 684.845 L151.343 693.317 Q152.362 692.97 153.38 692.808 Q154.399 692.623 155.417 692.623 Q161.204 692.623 164.584 695.794 Q167.964 698.966 167.964 704.382 Q167.964 709.961 164.491 713.063 Q161.019 716.141 154.7 716.141 Q152.524 716.141 150.255 715.771 Q148.01 715.401 145.603 714.66 L145.603 709.961 Q147.686 711.095 149.908 711.651 Q152.13 712.206 154.607 712.206 Q158.612 712.206 160.95 710.1 Q163.288 707.993 163.288 704.382 Q163.288 700.771 160.95 698.665 Q158.612 696.558 154.607 696.558 Q152.732 696.558 150.857 696.975 Q149.005 697.391 147.061 698.271 L147.061 680.91 Z" fill="#000000" fill-rule="nonzero" fill-opacity="1" /><path clip-path="url(#clip180)" d="M119.885 482.852 L136.204 482.852 L136.204 486.787 L114.26 486.787 L114.26 482.852 Q116.922 480.097 121.505 475.468 Q126.112 470.815 127.292 469.472 Q129.538 466.949 130.417 465.213 Q131.32 463.454 131.32 461.764 Q131.32 459.009 129.376 457.273 Q127.455 455.537 124.353 455.537 Q122.154 455.537 119.7 456.301 Q117.269 457.065 114.492 458.616 L114.492 453.894 Q117.316 452.759 119.769 452.181 Q122.223 451.602 124.26 451.602 Q129.63 451.602 132.825 454.287 Q136.019 456.972 136.019 461.463 Q136.019 463.593 135.209 465.514 Q134.422 467.412 132.316 470.005 Q131.737 470.676 128.635 473.893 Q125.533 477.088 119.885 482.852 Z" fill="#000000" fill-rule="nonzero" fill-opacity="1" /><path clip-path="url(#clip180)" d="M156.019 455.306 Q152.408 455.306 150.579 458.87 Q148.774 462.412 148.774 469.542 Q148.774 476.648 150.579 480.213 Q152.408 483.755 156.019 483.755 Q159.653 483.755 161.459 480.213 Q163.288 476.648 163.288 469.542 Q163.288 462.412 161.459 458.87 Q159.653 455.306 156.019 455.306 M156.019 451.602 Q161.829 451.602 164.885 456.208 Q167.964 460.792 167.964 469.542 Q167.964 478.268 164.885 482.875 Q161.829 487.458 156.019 487.458 Q150.209 487.458 147.13 482.875 Q144.075 478.268 144.075 469.542 Q144.075 460.792 147.13 456.208 Q150.209 451.602 156.019 451.602 Z" fill="#000000" fill-rule="nonzero" fill-opacity="1" /><path clip-path="url(#clip180)" d="M120.88 254.169 L137.2 254.169 L137.2 258.104 L115.256 258.104 L115.256 254.169 Q117.918 251.414 122.501 246.784 Q127.107 242.132 128.288 240.789 Q130.533 238.266 131.413 236.53 Q132.316 234.771 132.316 233.081 Q132.316 230.326 130.371 228.59 Q128.45 226.854 125.348 226.854 Q123.149 226.854 120.695 227.618 Q118.265 228.382 115.487 229.933 L115.487 225.21 Q118.311 224.076 120.765 223.497 Q123.218 222.919 125.255 222.919 Q130.626 222.919 133.82 225.604 Q137.015 228.289 137.015 232.78 Q137.015 234.909 136.204 236.831 Q135.417 238.729 133.311 241.321 Q132.732 241.993 129.63 245.21 Q126.529 248.405 120.88 254.169 Z" fill="#000000" fill-rule="nonzero" fill-opacity="1" /><path clip-path="url(#clip180)" d="M147.061 223.544 L165.417 223.544 L165.417 227.479 L151.343 227.479 L151.343 235.951 Q152.362 235.604 153.38 235.442 Q154.399 235.257 155.417 235.257 Q161.204 235.257 164.584 238.428 Q167.964 241.599 167.964 247.016 Q167.964 252.595 164.491 255.696 Q161.019 258.775 154.7 258.775 Q152.524 258.775 150.255 258.405 Q148.01 258.034 145.603 257.294 L145.603 252.595 Q147.686 253.729 149.908 254.284 Q152.13 254.84 154.607 254.84 Q158.612 254.84 160.95 252.733 Q163.288 250.627 163.288 247.016 Q163.288 243.405 160.95 241.298 Q158.612 239.192 154.607 239.192 Q152.732 239.192 150.857 239.608 Q149.005 240.025 147.061 240.905 L147.061 223.544 Z" fill="#000000" fill-rule="nonzero" fill-opacity="1" /><path clip-path="url(#clip180)" d="M21.7677 1026.76 L39.6235 1026.76 L39.6235 1018.68 Q39.6235 1014.19 37.3 1011.74 Q34.9765 1009.29 30.6797 1009.29 Q26.4147 1009.29 24.0912 1011.74 Q21.7677 1014.19 21.7677 1018.68 L21.7677 1026.76 M16.4842 1033.19 L16.4842 1018.68 Q16.4842 1010.69 20.1126 1006.61 Q23.7092 1002.51 30.6797 1002.51 Q37.7138 1002.51 41.3104 1006.61 Q44.907 1010.69 44.907 1018.68 L44.907 1026.76 L64.0042 1026.76 L64.0042 1033.19 L16.4842 1033.19 Z" fill="#000000" fill-rule="nonzero" fill-opacity="1" /><path clip-path="url(#clip180)" d="M33.8307 974.626 Q33.2578 975.613 33.0032 976.791 Q32.7167 977.936 32.7167 979.337 Q32.7167 984.302 35.9632 986.976 Q39.1779 989.617 45.2253 989.617 L64.0042 989.617 L64.0042 995.506 L28.3562 995.506 L28.3562 989.617 L33.8944 989.617 Q30.6479 987.771 29.0883 984.811 Q27.4968 981.851 27.4968 977.618 Q27.4968 977.013 27.5923 976.281 Q27.656 975.549 27.8151 974.658 L33.8307 974.626 Z" fill="#000000" fill-rule="nonzero" fill-opacity="1" /><path clip-path="url(#clip180)" d="M32.4621 956.102 Q32.4621 960.813 36.1542 963.55 Q39.8145 966.287 46.212 966.287 Q52.6095 966.287 56.3017 963.582 Q59.9619 960.844 59.9619 956.102 Q59.9619 951.423 56.2698 948.686 Q52.5777 945.949 46.212 945.949 Q39.8781 945.949 36.186 948.686 Q32.4621 951.423 32.4621 956.102 M27.4968 956.102 Q27.4968 948.463 32.4621 944.103 Q37.4273 939.742 46.212 939.742 Q54.9649 939.742 59.9619 944.103 Q64.9272 948.463 64.9272 956.102 Q64.9272 963.773 59.9619 968.133 Q54.9649 972.462 46.212 972.462 Q37.4273 972.462 32.4621 968.133 Q27.4968 963.773 27.4968 956.102 Z" fill="#000000" fill-rule="nonzero" fill-opacity="1" /><path clip-path="url(#clip180)" d="M46.212 904.444 Q39.7508 904.444 36.0905 907.118 Q32.3984 909.76 32.3984 914.407 Q32.3984 919.054 36.0905 921.727 Q39.7508 924.369 46.212 924.369 Q52.6732 924.369 56.3653 921.727 Q60.0256 919.054 60.0256 914.407 Q60.0256 909.76 56.3653 907.118 Q52.6732 904.444 46.212 904.444 M33.7671 924.369 Q30.5842 922.523 29.0564 919.722 Q27.4968 916.889 27.4968 912.974 Q27.4968 906.481 32.6531 902.439 Q37.8093 898.365 46.212 898.365 Q54.6147 898.365 59.771 902.439 Q64.9272 906.481 64.9272 912.974 Q64.9272 916.889 63.3994 919.722 Q61.8398 922.523 58.657 924.369 L64.0042 924.369 L64.0042 930.257 L14.479 930.257 L14.479 924.369 L33.7671 924.369 Z" fill="#000000" fill-rule="nonzero" fill-opacity="1" /><path clip-path="url(#clip180)" d="M46.0847 872.457 Q46.0847 879.554 47.7079 882.292 Q49.3312 885.029 53.2461 885.029 Q56.3653 885.029 58.2114 882.992 Q60.0256 880.923 60.0256 877.39 Q60.0256 872.52 56.5881 869.592 Q53.1188 866.632 47.3897 866.632 L46.0847 866.632 L46.0847 872.457 M43.6657 860.776 L64.0042 860.776 L64.0042 866.632 L58.5933 866.632 Q61.8398 868.637 63.3994 871.629 Q64.9272 874.621 64.9272 878.95 Q64.9272 884.424 61.8716 887.671 Q58.7843 890.885 53.6281 890.885 Q47.6125 890.885 44.5569 886.875 Q41.5014 882.833 41.5014 874.844 L41.5014 866.632 L40.9285 866.632 Q36.8862 866.632 34.6901 869.306 Q32.4621 871.947 32.4621 876.753 Q32.4621 879.809 33.1941 882.705 Q33.9262 885.602 35.3903 888.275 L29.9795 888.275 Q28.7381 885.061 28.1334 882.037 Q27.4968 879.013 27.4968 876.149 Q27.4968 868.414 31.5072 864.595 Q35.5176 860.776 43.6657 860.776 Z" fill="#000000" fill-rule="nonzero" fill-opacity="1" /><path clip-path="url(#clip180)" d="M46.212 823.122 Q39.7508 823.122 36.0905 825.796 Q32.3984 828.438 32.3984 833.085 Q32.3984 837.732 36.0905 840.405 Q39.7508 843.047 46.212 843.047 Q52.6732 843.047 56.3653 840.405 Q60.0256 837.732 60.0256 833.085 Q60.0256 828.438 56.3653 825.796 Q52.6732 823.122 46.212 823.122 M33.7671 843.047 Q30.5842 841.201 29.0564 838.4 Q27.4968 835.567 27.4968 831.652 Q27.4968 825.159 32.6531 821.117 Q37.8093 817.043 46.212 817.043 Q54.6147 817.043 59.771 821.117 Q64.9272 825.159 64.9272 831.652 Q64.9272 835.567 63.3994 838.4 Q61.8398 841.201 58.657 843.047 L64.0042 843.047 L64.0042 848.935 L14.479 848.935 L14.479 843.047 L33.7671 843.047 Z" fill="#000000" fill-rule="nonzero" fill-opacity="1" /><path clip-path="url(#clip180)" d="M28.3562 807.335 L28.3562 801.479 L64.0042 801.479 L64.0042 807.335 L28.3562 807.335 M14.479 807.335 L14.479 801.479 L21.895 801.479 L21.895 807.335 L14.479 807.335 Z" fill="#000000" fill-rule="nonzero" fill-opacity="1" /><path clip-path="url(#clip180)" d="M14.479 789.225 L14.479 783.369 L64.0042 783.369 L64.0042 789.225 L14.479 789.225 Z" fill="#000000" fill-rule="nonzero" fill-opacity="1" /><path clip-path="url(#clip180)" d="M28.3562 771.115 L28.3562 765.258 L64.0042 765.258 L64.0042 771.115 L28.3562 771.115 M14.479 771.115 L14.479 765.258 L21.895 765.258 L21.895 771.115 L14.479 771.115 Z" fill="#000000" fill-rule="nonzero" fill-opacity="1" /><path clip-path="url(#clip180)" d="M18.2347 747.211 L28.3562 747.211 L28.3562 735.148 L32.9077 735.148 L32.9077 747.211 L52.2594 747.211 Q56.6199 747.211 57.8613 746.034 Q59.1026 744.824 59.1026 741.164 L59.1026 735.148 L64.0042 735.148 L64.0042 741.164 Q64.0042 747.943 61.4897 750.521 Q58.9434 753.1 52.2594 753.1 L32.9077 753.1 L32.9077 757.396 L28.3562 757.396 L28.3562 753.1 L18.2347 753.1 L18.2347 747.211 Z" fill="#000000" fill-rule="nonzero" fill-opacity="1" /><path clip-path="url(#clip180)" d="M67.3143 712.614 Q73.68 715.096 75.6216 717.452 Q77.5631 719.807 77.5631 723.754 L77.5631 728.432 L72.6615 728.432 L72.6615 724.995 Q72.6615 722.576 71.5157 721.239 Q70.3699 719.902 66.1048 718.279 L63.4312 717.229 L28.3562 731.647 L28.3562 725.441 L56.238 714.301 L28.3562 703.161 L28.3562 696.954 L67.3143 712.614 Z" fill="#000000" fill-rule="nonzero" fill-opacity="1" /><path clip-path="url(#clip180)" d="M33.7671 644.692 L14.479 644.692 L14.479 638.835 L64.0042 638.835 L64.0042 644.692 L58.657 644.692 Q61.8398 646.538 63.3994 649.37 Q64.9272 652.171 64.9272 656.118 Q64.9272 662.579 59.771 666.653 Q54.6147 670.696 46.212 670.696 Q37.8093 670.696 32.6531 666.653 Q27.4968 662.579 27.4968 656.118 Q27.4968 652.171 29.0564 649.37 Q30.5842 646.538 33.7671 644.692 M46.212 664.648 Q52.6732 664.648 56.3653 662.006 Q60.0256 659.333 60.0256 654.686 Q60.0256 650.039 56.3653 647.365 Q52.6732 644.692 46.212 644.692 Q39.7508 644.692 36.0905 647.365 Q32.3984 650.039 32.3984 654.686 Q32.3984 659.333 36.0905 662.006 Q39.7508 664.648 46.212 664.648 Z" fill="#000000" fill-rule="nonzero" fill-opacity="1" /><path clip-path="url(#clip180)" d="M44.7161 596.28 L47.5806 596.28 L47.5806 623.207 Q53.6281 622.825 56.8109 619.579 Q59.9619 616.301 59.9619 610.476 Q59.9619 607.102 59.1344 603.951 Q58.3069 600.768 56.6518 597.649 L62.1899 597.649 Q63.5267 600.8 64.227 604.11 Q64.9272 607.42 64.9272 610.826 Q64.9272 619.356 59.9619 624.353 Q54.9967 629.318 46.5303 629.318 Q37.7774 629.318 32.6531 624.608 Q27.4968 619.865 27.4968 611.845 Q27.4968 604.651 32.1438 600.482 Q36.7589 596.28 44.7161 596.28 M42.9973 602.137 Q38.1912 602.201 35.3266 604.842 Q32.4621 607.452 32.4621 611.781 Q32.4621 616.683 35.2312 619.643 Q38.0002 622.571 43.0292 623.016 L42.9973 602.137 Z" fill="#000000" fill-rule="nonzero" fill-opacity="1" /><path clip-path="url(#clip180)" d="M42.4881 557.036 L64.0042 557.036 L64.0042 562.892 L42.679 562.892 Q37.6183 562.892 35.1038 564.866 Q32.5894 566.839 32.5894 570.786 Q32.5894 575.528 35.6131 578.265 Q38.6368 581.003 43.8567 581.003 L64.0042 581.003 L64.0042 586.891 L28.3562 586.891 L28.3562 581.003 L33.8944 581.003 Q30.6797 578.902 29.0883 576.069 Q27.4968 573.205 27.4968 569.481 Q27.4968 563.338 31.3163 560.187 Q35.1038 557.036 42.4881 557.036 Z" fill="#000000" fill-rule="nonzero" fill-opacity="1" /><path clip-path="url(#clip180)" d="M29.4065 522.629 L34.9447 522.629 Q33.6716 525.112 33.035 527.785 Q32.3984 530.459 32.3984 533.324 Q32.3984 537.684 33.7352 539.88 Q35.072 542.045 37.7456 542.045 Q39.7826 542.045 40.9603 540.485 Q42.1061 538.925 43.1565 534.215 L43.6021 532.21 Q44.9389 525.971 47.3897 523.361 Q49.8086 520.719 54.1691 520.719 Q59.1344 520.719 62.0308 524.666 Q64.9272 528.581 64.9272 535.456 Q64.9272 538.321 64.3543 541.44 Q63.8132 544.527 62.6992 547.965 L56.6518 547.965 Q58.3387 544.718 59.198 541.567 Q60.0256 538.416 60.0256 535.329 Q60.0256 531.191 58.6251 528.963 Q57.1929 526.735 54.6147 526.735 Q52.2276 526.735 50.9545 528.358 Q49.6813 529.95 48.5037 535.392 L48.0262 537.429 Q46.8804 542.872 44.5251 545.291 Q42.138 547.71 38.0002 547.71 Q32.9713 547.71 30.2341 544.145 Q27.4968 540.58 27.4968 534.024 Q27.4968 530.777 27.9743 527.913 Q28.4517 525.048 29.4065 522.629 Z" fill="#000000" fill-rule="nonzero" fill-opacity="1" /><path clip-path="url(#clip180)" d="M28.3562 511.394 L28.3562 505.537 L64.0042 505.537 L64.0042 511.394 L28.3562 511.394 M14.479 511.394 L14.479 505.537 L21.895 505.537 L21.895 511.394 L14.479 511.394 Z" fill="#000000" fill-rule="nonzero" fill-opacity="1" /><path clip-path="url(#clip180)" d="M18.2347 487.49 L28.3562 487.49 L28.3562 475.427 L32.9077 475.427 L32.9077 487.49 L52.2594 487.49 Q56.6199 487.49 57.8613 486.313 Q59.1026 485.103 59.1026 481.443 L59.1026 475.427 L64.0042 475.427 L64.0042 481.443 Q64.0042 488.223 61.4897 490.801 Q58.9434 493.379 52.2594 493.379 L32.9077 493.379 L32.9077 497.676 L28.3562 497.676 L28.3562 493.379 L18.2347 493.379 L18.2347 487.49 Z" fill="#000000" fill-rule="nonzero" fill-opacity="1" /><path clip-path="url(#clip180)" d="M67.3143 452.893 Q73.68 455.376 75.6216 457.731 Q77.5631 460.086 77.5631 464.033 L77.5631 468.712 L72.6615 468.712 L72.6615 465.274 Q72.6615 462.855 71.5157 461.518 Q70.3699 460.182 66.1048 458.558 L63.4312 457.508 L28.3562 471.926 L28.3562 465.72 L56.238 454.58 L28.3562 443.44 L28.3562 437.233 L67.3143 452.893 Z" fill="#000000" fill-rule="nonzero" fill-opacity="1" /><polyline clip-path="url(#clip182)" style="stroke:#009af9; stroke-linecap:round; stroke-linejoin:round; stroke-width:4; stroke-opacity:1; fill:none" points="264.778,1384.23 313.626,1384.24 338.049,1384.11 411.32,1384.22 435.744,1384.24 460.168,1384.23 484.591,1384.23 557.862,1384.21 582.286,1384.23 606.709,1384.23 631.133,1384.09 655.557,1384.23 679.98,1384.22 704.404,1384.21 728.828,1384.23 753.251,1384.23 777.675,1384.17 802.099,1384.15 826.522,1384.1 850.946,1384.19 875.37,1384.2 899.793,1384.17 924.217,1384.17 948.641,1384.08 973.064,1384.2 997.488,1384.07 1021.91,1384.08 1046.34,1384.06 1070.76,1384.03 1095.18,1384 1119.61,1383.77 1144.03,1383.79 1168.45,1383.85 1192.88,1383.47 1217.3,1382.62 1241.72,1383.22 1266.15,1382.6 1290.57,1382.21 1315,1382.43 1339.42,1382.03 1363.84,1381.08 1388.27,1379.86 1412.69,1379.6 1437.11,1379.16 1461.54,1377.82 1485.96,1376.21 1510.38,1373.45 1534.81,1369.47 1559.23,1363.9 1583.66,1358.84 1608.08,1349.11 1632.5,1336.73 1656.93,1319.13 1681.35,1299.71 1705.77,1273.32 1730.2,1251.43 1754.62,1232.32 1779.04,1194.98 1803.47,1148.9 1827.89,1104.5 1852.32,1059.8 1876.74,993.624 1901.16,938.129 1925.59,1012.31 1950.01,1132.81 1974.43,1227.81 1998.86,1283.04 2023.28,1331.68 2047.7,1356.06 2072.13,1365.97 2096.55,1374.56 2120.98,1377.69 2145.4,1381.07 2169.82,1382.64 2194.25,1383.63 2218.67,1383.84 2243.09,1384.12 2267.52,1384.21 2291.94,1384.21 "/>
<polyline clip-path="url(#clip182)" style="stroke:#e26f46; stroke-linecap:round; stroke-linejoin:round; stroke-width:4; stroke-opacity:1; fill:none" points="264.778,1384.24 313.626,1384.24 338.049,1384.24 411.32,1384.23 435.744,1384.23 460.168,1384.23 484.591,1384.23 557.862,1384.22 582.286,1384.22 606.709,1384.21 631.133,1384.21 655.557,1384.2 679.98,1384.19 704.404,1384.18 728.828,1384.17 753.251,1384.15 777.675,1384.13 802.099,1384.11 826.522,1384.07 850.946,1384.04 875.37,1383.99 899.793,1383.93 924.217,1383.86 948.641,1383.77 973.064,1383.66 997.488,1383.53 1021.91,1383.37 1046.34,1383.16 1070.76,1382.92 1095.18,1382.61 1119.61,1382.23 1144.03,1381.77 1168.45,1381.2 1192.88,1380.49 1217.3,1379.63 1241.72,1378.56 1266.15,1377.25 1290.57,1375.63 1315,1373.64 1339.42,1371.19 1363.84,1368.17 1388.27,1364.45 1412.69,1359.88 1437.11,1354.25 1461.54,1347.31 1485.96,1338.78 1510.38,1328.27 1534.81,1315.33 1559.23,1299.41 1583.66,1279.81 1608.08,1255.69 1632.5,1226 1656.93,1189.47 1681.35,1144.53 1705.77,1089.28 1730.2,1021.38 1754.62,938.041 1779.04,835.951 1803.47,711.425 1827.89,561.023 1852.32,384.299 1876.74,196.503 1901.16,86.1857 1925.59,267.233 1950.01,633.285 1974.43,922.531 1998.86,1107.07 2023.28,1219.13 2047.7,1286.18 2072.13,1326.09 2096.55,1349.78 2120.98,1363.83 2145.4,1372.15 2169.82,1377.08 2194.25,1380 2218.67,1381.73 2243.09,1382.75 2267.52,1383.36 2291.94,1383.72 "/>
<path clip-path="url(#clip180)" d="M275.59 248.629 L824.773 248.629 L824.773 93.1086 L275.59 93.1086  Z" fill="#ffffff" fill-rule="evenodd" fill-opacity="1"/>
<polyline clip-path="url(#clip180)" style="stroke:#ffffff; stroke-linecap:round; stroke-linejoin:round; stroke-width:4; stroke-opacity:1; fill:none" points="275.59,248.629 824.773,248.629 824.773,93.1086 275.59,93.1086 275.59,248.629 "/>
<polyline clip-path="url(#clip180)" style="stroke:#009af9; stroke-linecap:round; stroke-linejoin:round; stroke-width:4; stroke-opacity:1; fill:none" points="299.465,144.949 442.718,144.949 "/>
<path clip-path="url(#clip180)" d="M466.594 127.669 L471.27 127.669 L471.27 141.835 L488.26 141.835 L488.26 127.669 L492.936 127.669 L492.936 162.229 L488.26 162.229 L488.26 145.77 L471.27 145.77 L471.27 162.229 L466.594 162.229 L466.594 127.669 Z" fill="#000000" fill-rule="nonzero" fill-opacity="1" /><path clip-path="url(#clip180)" d="M502.057 136.303 L506.316 136.303 L506.316 162.229 L502.057 162.229 L502.057 136.303 M502.057 126.21 L506.316 126.21 L506.316 131.604 L502.057 131.604 L502.057 126.21 Z" fill="#000000" fill-rule="nonzero" fill-opacity="1" /><path clip-path="url(#clip180)" d="M531.755 137.067 L531.755 141.094 Q529.95 140.169 528.005 139.706 Q526.061 139.243 523.978 139.243 Q520.806 139.243 519.209 140.215 Q517.635 141.187 517.635 143.131 Q517.635 144.613 518.769 145.469 Q519.904 146.303 523.33 147.067 L524.788 147.391 Q529.325 148.363 531.223 150.145 Q533.144 151.905 533.144 155.076 Q533.144 158.687 530.274 160.793 Q527.427 162.9 522.427 162.9 Q520.343 162.9 518.075 162.483 Q515.83 162.09 513.33 161.28 L513.33 156.881 Q515.691 158.108 517.982 158.733 Q520.274 159.335 522.519 159.335 Q525.529 159.335 527.149 158.317 Q528.769 157.275 528.769 155.4 Q528.769 153.664 527.589 152.738 Q526.431 151.812 522.473 150.956 L520.992 150.608 Q517.033 149.775 515.274 148.062 Q513.515 146.326 513.515 143.317 Q513.515 139.659 516.107 137.669 Q518.7 135.678 523.468 135.678 Q525.83 135.678 527.913 136.025 Q529.996 136.372 531.755 137.067 Z" fill="#000000" fill-rule="nonzero" fill-opacity="1" /><path clip-path="url(#clip180)" d="M544.14 128.942 L544.14 136.303 L552.913 136.303 L552.913 139.613 L544.14 139.613 L544.14 153.687 Q544.14 156.858 544.996 157.761 Q545.876 158.664 548.538 158.664 L552.913 158.664 L552.913 162.229 L548.538 162.229 Q543.607 162.229 541.732 160.4 Q539.857 158.548 539.857 153.687 L539.857 139.613 L536.732 139.613 L536.732 136.303 L539.857 136.303 L539.857 128.942 L544.14 128.942 Z" fill="#000000" fill-rule="nonzero" fill-opacity="1" /><path clip-path="url(#clip180)" d="M568.561 139.289 Q565.135 139.289 563.144 141.974 Q561.153 144.636 561.153 149.289 Q561.153 153.942 563.121 156.627 Q565.112 159.289 568.561 159.289 Q571.964 159.289 573.954 156.604 Q575.945 153.918 575.945 149.289 Q575.945 144.682 573.954 141.997 Q571.964 139.289 568.561 139.289 M568.561 135.678 Q574.116 135.678 577.288 139.289 Q580.459 142.9 580.459 149.289 Q580.459 155.655 577.288 159.289 Q574.116 162.9 568.561 162.9 Q562.982 162.9 559.811 159.289 Q556.663 155.655 556.663 149.289 Q556.663 142.9 559.811 139.289 Q562.982 135.678 568.561 135.678 Z" fill="#000000" fill-rule="nonzero" fill-opacity="1" /><path clip-path="url(#clip180)" d="M604.579 148.965 Q604.579 144.335 602.658 141.789 Q600.76 139.243 597.311 139.243 Q593.885 139.243 591.963 141.789 Q590.065 144.335 590.065 148.965 Q590.065 153.571 591.963 156.118 Q593.885 158.664 597.311 158.664 Q600.76 158.664 602.658 156.118 Q604.579 153.571 604.579 148.965 M608.838 159.011 Q608.838 165.631 605.899 168.849 Q602.959 172.09 596.894 172.09 Q594.649 172.09 592.658 171.742 Q590.667 171.418 588.792 170.724 L588.792 166.58 Q590.667 167.599 592.496 168.085 Q594.325 168.571 596.223 168.571 Q600.412 168.571 602.496 166.372 Q604.579 164.196 604.579 159.775 L604.579 157.668 Q603.26 159.96 601.2 161.094 Q599.139 162.229 596.269 162.229 Q591.5 162.229 588.584 158.594 Q585.667 154.96 585.667 148.965 Q585.667 142.946 588.584 139.312 Q591.5 135.678 596.269 135.678 Q599.139 135.678 601.2 136.812 Q603.26 137.946 604.579 140.238 L604.579 136.303 L608.838 136.303 L608.838 159.011 Z" fill="#000000" fill-rule="nonzero" fill-opacity="1" /><path clip-path="url(#clip180)" d="M632.635 140.284 Q631.917 139.868 631.06 139.682 Q630.227 139.474 629.209 139.474 Q625.598 139.474 623.653 141.835 Q621.732 144.173 621.732 148.571 L621.732 162.229 L617.449 162.229 L617.449 136.303 L621.732 136.303 L621.732 140.331 Q623.074 137.969 625.227 136.835 Q627.38 135.678 630.459 135.678 Q630.898 135.678 631.431 135.747 Q631.963 135.794 632.611 135.909 L632.635 140.284 Z" fill="#000000" fill-rule="nonzero" fill-opacity="1" /><path clip-path="url(#clip180)" d="M648.884 149.196 Q643.722 149.196 641.732 150.377 Q639.741 151.557 639.741 154.405 Q639.741 156.673 641.222 158.016 Q642.727 159.335 645.296 159.335 Q648.838 159.335 650.968 156.835 Q653.121 154.312 653.121 150.145 L653.121 149.196 L648.884 149.196 M657.38 147.437 L657.38 162.229 L653.121 162.229 L653.121 158.293 Q651.662 160.655 649.486 161.789 Q647.31 162.9 644.162 162.9 Q640.181 162.9 637.82 160.678 Q635.482 158.432 635.482 154.682 Q635.482 150.307 638.398 148.085 Q641.338 145.863 647.148 145.863 L653.121 145.863 L653.121 145.446 Q653.121 142.507 651.176 140.909 Q649.255 139.289 645.759 139.289 Q643.537 139.289 641.431 139.821 Q639.324 140.354 637.38 141.419 L637.38 137.483 Q639.718 136.581 641.917 136.141 Q644.116 135.678 646.199 135.678 Q651.824 135.678 654.602 138.594 Q657.38 141.511 657.38 147.437 Z" fill="#000000" fill-rule="nonzero" fill-opacity="1" /><path clip-path="url(#clip180)" d="M686.338 141.28 Q687.935 138.409 690.157 137.044 Q692.38 135.678 695.389 135.678 Q699.44 135.678 701.639 138.525 Q703.838 141.349 703.838 146.581 L703.838 162.229 L699.555 162.229 L699.555 146.719 Q699.555 142.993 698.236 141.187 Q696.917 139.382 694.208 139.382 Q690.898 139.382 688.977 141.581 Q687.056 143.78 687.056 147.576 L687.056 162.229 L682.773 162.229 L682.773 146.719 Q682.773 142.969 681.454 141.187 Q680.134 139.382 677.38 139.382 Q674.116 139.382 672.194 141.604 Q670.273 143.803 670.273 147.576 L670.273 162.229 L665.991 162.229 L665.991 136.303 L670.273 136.303 L670.273 140.331 Q671.732 137.946 673.769 136.812 Q675.806 135.678 678.607 135.678 Q681.431 135.678 683.398 137.113 Q685.389 138.548 686.338 141.28 Z" fill="#000000" fill-rule="nonzero" fill-opacity="1" /><polyline clip-path="url(#clip180)" style="stroke:#e26f46; stroke-linecap:round; stroke-linejoin:round; stroke-width:4; stroke-opacity:1; fill:none" points="299.465,196.789 442.718,196.789 "/>
<path clip-path="url(#clip180)" d="M471.27 183.351 L471.27 210.226 L476.918 210.226 Q484.071 210.226 487.381 206.985 Q490.714 203.745 490.714 196.754 Q490.714 189.809 487.381 186.592 Q484.071 183.351 476.918 183.351 L471.27 183.351 M466.594 179.509 L476.2 179.509 Q486.246 179.509 490.945 183.698 Q495.645 187.865 495.645 196.754 Q495.645 205.689 490.922 209.879 Q486.2 214.069 476.2 214.069 L466.594 214.069 L466.594 179.509 Z" fill="#000000" fill-rule="nonzero" fill-opacity="1" /><path clip-path="url(#clip180)" d="M502.913 188.143 L507.172 188.143 L507.172 214.069 L502.913 214.069 L502.913 188.143 M502.913 178.05 L507.172 178.05 L507.172 183.444 L502.913 183.444 L502.913 178.05 Z" fill="#000000" fill-rule="nonzero" fill-opacity="1" /><path clip-path="url(#clip180)" d="M532.612 188.907 L532.612 192.934 Q530.806 192.009 528.862 191.546 Q526.917 191.083 524.834 191.083 Q521.663 191.083 520.066 192.055 Q518.492 193.027 518.492 194.971 Q518.492 196.453 519.626 197.309 Q520.76 198.143 524.186 198.907 L525.644 199.231 Q530.181 200.203 532.08 201.985 Q534.001 203.745 534.001 206.916 Q534.001 210.527 531.13 212.633 Q528.283 214.74 523.283 214.74 Q521.2 214.74 518.931 214.323 Q516.686 213.93 514.186 213.12 L514.186 208.721 Q516.547 209.948 518.839 210.573 Q521.13 211.175 523.376 211.175 Q526.385 211.175 528.005 210.157 Q529.626 209.115 529.626 207.24 Q529.626 205.504 528.445 204.578 Q527.288 203.652 523.33 202.796 L521.848 202.448 Q517.89 201.615 516.131 199.902 Q514.371 198.166 514.371 195.157 Q514.371 191.499 516.964 189.509 Q519.556 187.518 524.325 187.518 Q526.686 187.518 528.769 187.865 Q530.853 188.212 532.612 188.907 Z" fill="#000000" fill-rule="nonzero" fill-opacity="1" /><path clip-path="url(#clip180)" d="M544.996 180.782 L544.996 188.143 L553.769 188.143 L553.769 191.453 L544.996 191.453 L544.996 205.527 Q544.996 208.698 545.853 209.601 Q546.732 210.504 549.394 210.504 L553.769 210.504 L553.769 214.069 L549.394 214.069 Q544.464 214.069 542.589 212.24 Q540.714 210.388 540.714 205.527 L540.714 191.453 L537.589 191.453 L537.589 188.143 L540.714 188.143 L540.714 180.782 L544.996 180.782 Z" fill="#000000" fill-rule="nonzero" fill-opacity="1" /><path clip-path="url(#clip180)" d="M574.394 192.124 Q573.677 191.708 572.82 191.522 Q571.987 191.314 570.968 191.314 Q567.357 191.314 565.413 193.675 Q563.491 196.013 563.491 200.411 L563.491 214.069 L559.209 214.069 L559.209 188.143 L563.491 188.143 L563.491 192.171 Q564.834 189.809 566.987 188.675 Q569.139 187.518 572.218 187.518 Q572.658 187.518 573.19 187.587 Q573.723 187.634 574.371 187.749 L574.394 192.124 Z" fill="#000000" fill-rule="nonzero" fill-opacity="1" /><path clip-path="url(#clip180)" d="M578.862 188.143 L583.121 188.143 L583.121 214.069 L578.862 214.069 L578.862 188.143 M578.862 178.05 L583.121 178.05 L583.121 183.444 L578.862 183.444 L578.862 178.05 Z" fill="#000000" fill-rule="nonzero" fill-opacity="1" /><path clip-path="url(#clip180)" d="M610.644 201.129 Q610.644 196.43 608.699 193.768 Q606.778 191.083 603.399 191.083 Q600.019 191.083 598.075 193.768 Q596.153 196.43 596.153 201.129 Q596.153 205.828 598.075 208.513 Q600.019 211.175 603.399 211.175 Q606.778 211.175 608.699 208.513 Q610.644 205.828 610.644 201.129 M596.153 192.078 Q597.496 189.763 599.533 188.652 Q601.593 187.518 604.44 187.518 Q609.162 187.518 612.102 191.268 Q615.065 195.018 615.065 201.129 Q615.065 207.24 612.102 210.99 Q609.162 214.74 604.44 214.74 Q601.593 214.74 599.533 213.629 Q597.496 212.495 596.153 210.18 L596.153 214.069 L591.871 214.069 L591.871 178.05 L596.153 178.05 L596.153 192.078 Z" fill="#000000" fill-rule="nonzero" fill-opacity="1" /><path clip-path="url(#clip180)" d="M621.686 203.837 L621.686 188.143 L625.945 188.143 L625.945 203.675 Q625.945 207.356 627.38 209.208 Q628.815 211.036 631.685 211.036 Q635.135 211.036 637.125 208.837 Q639.139 206.638 639.139 202.842 L639.139 188.143 L643.398 188.143 L643.398 214.069 L639.139 214.069 L639.139 210.087 Q637.588 212.448 635.528 213.606 Q633.491 214.74 630.783 214.74 Q626.315 214.74 624 211.962 Q621.686 209.184 621.686 203.837 M632.403 187.518 L632.403 187.518 Z" fill="#000000" fill-rule="nonzero" fill-opacity="1" /><path clip-path="url(#clip180)" d="M656.384 180.782 L656.384 188.143 L665.157 188.143 L665.157 191.453 L656.384 191.453 L656.384 205.527 Q656.384 208.698 657.241 209.601 Q658.12 210.504 660.783 210.504 L665.157 210.504 L665.157 214.069 L660.783 214.069 Q655.852 214.069 653.977 212.24 Q652.102 210.388 652.102 205.527 L652.102 191.453 L648.977 191.453 L648.977 188.143 L652.102 188.143 L652.102 180.782 L656.384 180.782 Z" fill="#000000" fill-rule="nonzero" fill-opacity="1" /><path clip-path="url(#clip180)" d="M670.759 188.143 L675.019 188.143 L675.019 214.069 L670.759 214.069 L670.759 188.143 M670.759 178.05 L675.019 178.05 L675.019 183.444 L670.759 183.444 L670.759 178.05 Z" fill="#000000" fill-rule="nonzero" fill-opacity="1" /><path clip-path="url(#clip180)" d="M693.977 191.129 Q690.551 191.129 688.56 193.814 Q686.569 196.476 686.569 201.129 Q686.569 205.782 688.537 208.467 Q690.528 211.129 693.977 211.129 Q697.38 211.129 699.37 208.444 Q701.361 205.758 701.361 201.129 Q701.361 196.522 699.37 193.837 Q697.38 191.129 693.977 191.129 M693.977 187.518 Q699.532 187.518 702.704 191.129 Q705.875 194.74 705.875 201.129 Q705.875 207.495 702.704 211.129 Q699.532 214.74 693.977 214.74 Q688.398 214.74 685.227 211.129 Q682.079 207.495 682.079 201.129 Q682.079 194.74 685.227 191.129 Q688.398 187.518 693.977 187.518 Z" fill="#000000" fill-rule="nonzero" fill-opacity="1" /><path clip-path="url(#clip180)" d="M734.486 198.421 L734.486 214.069 L730.227 214.069 L730.227 198.559 Q730.227 194.879 728.791 193.05 Q727.356 191.222 724.486 191.222 Q721.037 191.222 719.046 193.421 Q717.055 195.62 717.055 199.416 L717.055 214.069 L712.773 214.069 L712.773 188.143 L717.055 188.143 L717.055 192.171 Q718.583 189.833 720.643 188.675 Q722.727 187.518 725.435 187.518 Q729.903 187.518 732.194 190.296 Q734.486 193.05 734.486 198.421 Z" fill="#000000" fill-rule="nonzero" fill-opacity="1" /><path clip-path="url(#clip180)" d="M771.175 178.05 L771.175 181.592 L767.101 181.592 Q764.81 181.592 763.907 182.518 Q763.027 183.444 763.027 185.851 L763.027 188.143 L770.041 188.143 L770.041 191.453 L763.027 191.453 L763.027 214.069 L758.745 214.069 L758.745 191.453 L754.671 191.453 L754.671 188.143 L758.745 188.143 L758.745 186.337 Q758.745 182.009 760.759 180.041 Q762.773 178.05 767.148 178.05 L771.175 178.05 Z" fill="#000000" fill-rule="nonzero" fill-opacity="1" /><path clip-path="url(#clip180)" d="M774.74 188.143 L778.999 188.143 L778.999 214.069 L774.74 214.069 L774.74 188.143 M774.74 178.05 L778.999 178.05 L778.999 183.444 L774.74 183.444 L774.74 178.05 Z" fill="#000000" fill-rule="nonzero" fill-opacity="1" /><path clip-path="url(#clip180)" d="M792.124 180.782 L792.124 188.143 L800.898 188.143 L800.898 191.453 L792.124 191.453 L792.124 205.527 Q792.124 208.698 792.981 209.601 Q793.861 210.504 796.523 210.504 L800.898 210.504 L800.898 214.069 L796.523 214.069 Q791.592 214.069 789.717 212.24 Q787.842 210.388 787.842 205.527 L787.842 191.453 L784.717 191.453 L784.717 188.143 L787.842 188.143 L787.842 180.782 L792.124 180.782 Z" fill="#000000" fill-rule="nonzero" fill-opacity="1" /></svg>
