<?xml version="1.0" encoding="utf-8"?>
<svg xmlns="http://www.w3.org/2000/svg" xmlns:xlink="http://www.w3.org/1999/xlink" width="600" height="400" viewBox="0 0 2400 1600">
<defs>
  <clipPath id="clip040">
    <rect x="0" y="0" width="2400" height="1600"/>
  </clipPath>
</defs>
<path clip-path="url(#clip040)" d="M0 1600 L2400 1600 L2400 8.88178e-14 L0 8.88178e-14  Z" fill="#ffffff" fill-rule="evenodd" fill-opacity="1"/>
<defs>
  <clipPath id="clip041">
    <rect x="480" y="0" width="1681" height="1600"/>
  </clipPath>
</defs>
<path clip-path="url(#clip040)" d="M279.519 1552.76 L2352.76 1552.76 L2352.76 47.2441 L279.519 47.2441  Z" fill="#ffffff" fill-rule="evenodd" fill-opacity="1"/>
<defs>
  <clipPath id="clip042">
    <rect x="279" y="47" width="2074" height="1507"/>
  </clipPath>
</defs>
<polyline clip-path="url(#clip042)" style="stroke:#000000; stroke-linecap:round; stroke-linejoin:round; stroke-width:2; stroke-opacity:0.1; fill:none" points="279.519,1497.24 2352.76,1497.24 "/>
<polyline clip-path="url(#clip042)" style="stroke:#000000; stroke-linecap:round; stroke-linejoin:round; stroke-width:2; stroke-opacity:0.1; fill:none" points="279.519,1174.44 2352.76,1174.44 "/>
<polyline clip-path="url(#clip042)" style="stroke:#000000; stroke-linecap:round; stroke-linejoin:round; stroke-width:2; stroke-opacity:0.1; fill:none" points="279.519,851.647 2352.76,851.647 "/>
<polyline clip-path="url(#clip042)" style="stroke:#000000; stroke-linecap:round; stroke-linejoin:round; stroke-width:2; stroke-opacity:0.1; fill:none" points="279.519,528.853 2352.76,528.853 "/>
<polyline clip-path="url(#clip042)" style="stroke:#000000; stroke-linecap:round; stroke-linejoin:round; stroke-width:2; stroke-opacity:0.1; fill:none" points="279.519,206.059 2352.76,206.059 "/>
<polyline clip-path="url(#clip042)" style="stroke:#000000; stroke-linecap:round; stroke-linejoin:round; stroke-width:2; stroke-opacity:0.1; fill:none" points="279.519,1497.24 2352.76,1497.24 "/>
<polyline clip-path="url(#clip042)" style="stroke:#000000; stroke-linecap:round; stroke-linejoin:round; stroke-width:2; stroke-opacity:0.1; fill:none" points="279.519,1174.44 2352.76,1174.44 "/>
<polyline clip-path="url(#clip042)" style="stroke:#000000; stroke-linecap:round; stroke-linejoin:round; stroke-width:2; stroke-opacity:0.1; fill:none" points="279.519,851.647 2352.76,851.647 "/>
<polyline clip-path="url(#clip042)" style="stroke:#000000; stroke-linecap:round; stroke-linejoin:round; stroke-width:2; stroke-opacity:0.1; fill:none" points="279.519,528.853 2352.76,528.853 "/>
<polyline clip-path="url(#clip042)" style="stroke:#000000; stroke-linecap:round; stroke-linejoin:round; stroke-width:2; stroke-opacity:0.1; fill:none" points="279.519,206.059 2352.76,206.059 "/>
<polyline clip-path="url(#clip040)" style="stroke:#000000; stroke-linecap:round; stroke-linejoin:round; stroke-width:4; stroke-opacity:1; fill:none" points="279.519,1552.76 2352.76,1552.76 "/>
<polyline clip-path="url(#clip040)" style="stroke:#000000; stroke-linecap:round; stroke-linejoin:round; stroke-width:4; stroke-opacity:1; fill:none" points="279.519,47.2441 2352.76,47.2441 "/>
<polyline clip-path="url(#clip040)" style="stroke:#000000; stroke-linecap:round; stroke-linejoin:round; stroke-width:4; stroke-opacity:1; fill:none" points="279.519,1552.76 279.519,47.2441 "/>
<polyline clip-path="url(#clip040)" style="stroke:#000000; stroke-linecap:round; stroke-linejoin:round; stroke-width:4; stroke-opacity:1; fill:none" points="2352.76,1552.76 2352.76,47.2441 "/>
<polyline clip-path="url(#clip040)" style="stroke:#000000; stroke-linecap:round; stroke-linejoin:round; stroke-width:4; stroke-opacity:1; fill:none" points="279.519,1497.24 298.416,1497.24 "/>
<polyline clip-path="url(#clip040)" style="stroke:#000000; stroke-linecap:round; stroke-linejoin:round; stroke-width:4; stroke-opacity:1; fill:none" points="279.519,1174.44 298.416,1174.44 "/>
<polyline clip-path="url(#clip040)" style="stroke:#000000; stroke-linecap:round; stroke-linejoin:round; stroke-width:4; stroke-opacity:1; fill:none" points="279.519,851.647 298.416,851.647 "/>
<polyline clip-path="url(#clip040)" style="stroke:#000000; stroke-linecap:round; stroke-linejoin:round; stroke-width:4; stroke-opacity:1; fill:none" points="279.519,528.853 298.416,528.853 "/>
<polyline clip-path="url(#clip040)" style="stroke:#000000; stroke-linecap:round; stroke-linejoin:round; stroke-width:4; stroke-opacity:1; fill:none" points="279.519,206.059 298.416,206.059 "/>
<polyline clip-path="url(#clip040)" style="stroke:#000000; stroke-linecap:round; stroke-linejoin:round; stroke-width:4; stroke-opacity:1; fill:none" points="2352.76,1497.24 2333.86,1497.24 "/>
<polyline clip-path="url(#clip040)" style="stroke:#000000; stroke-linecap:round; stroke-linejoin:round; stroke-width:4; stroke-opacity:1; fill:none" points="2352.76,1174.44 2333.86,1174.44 "/>
<polyline clip-path="url(#clip040)" style="stroke:#000000; stroke-linecap:round; stroke-linejoin:round; stroke-width:4; stroke-opacity:1; fill:none" points="2352.76,851.647 2333.86,851.647 "/>
<polyline clip-path="url(#clip040)" style="stroke:#000000; stroke-linecap:round; stroke-linejoin:round; stroke-width:4; stroke-opacity:1; fill:none" points="2352.76,528.853 2333.86,528.853 "/>
<polyline clip-path="url(#clip040)" style="stroke:#000000; stroke-linecap:round; stroke-linejoin:round; stroke-width:4; stroke-opacity:1; fill:none" points="2352.76,206.059 2333.86,206.059 "/>
<path clip-path="url(#clip040)" d="M126.598 1495.37 Q123.45 1495.37 121.598 1497.52 Q119.769 1499.68 119.769 1503.43 Q119.769 1507.15 121.598 1509.33 Q123.45 1511.48 126.598 1511.48 Q129.746 1511.48 131.575 1509.33 Q133.427 1507.15 133.427 1503.43 Q133.427 1499.68 131.575 1497.52 Q129.746 1495.37 126.598 1495.37 M135.88 1480.72 L135.88 1484.98 Q134.121 1484.15 132.316 1483.71 Q130.533 1483.27 128.774 1483.27 Q124.144 1483.27 121.691 1486.39 Q119.26 1489.52 118.913 1495.83 Q120.279 1493.82 122.339 1492.76 Q124.399 1491.67 126.876 1491.67 Q132.084 1491.67 135.093 1494.84 Q138.126 1497.99 138.126 1503.43 Q138.126 1508.75 134.978 1511.97 Q131.83 1515.19 126.598 1515.19 Q120.603 1515.19 117.431 1510.6 Q114.26 1506 114.26 1497.27 Q114.26 1489.08 118.149 1484.21 Q122.038 1479.33 128.589 1479.33 Q130.348 1479.33 132.13 1479.68 Q133.936 1480.02 135.88 1480.72 Z" fill="#000000" fill-rule="nonzero" fill-opacity="1" /><path clip-path="url(#clip040)" d="M146.228 1479.96 L164.584 1479.96 L164.584 1483.89 L150.51 1483.89 L150.51 1492.36 Q151.528 1492.02 152.547 1491.85 Q153.566 1491.67 154.584 1491.67 Q160.371 1491.67 163.751 1494.84 Q167.13 1498.01 167.13 1503.43 Q167.13 1509.01 163.658 1512.11 Q160.186 1515.19 153.866 1515.19 Q151.691 1515.19 149.422 1514.82 Q147.177 1514.45 144.769 1513.71 L144.769 1509.01 Q146.853 1510.14 149.075 1510.7 Q151.297 1511.25 153.774 1511.25 Q157.778 1511.25 160.116 1509.14 Q162.454 1507.04 162.454 1503.43 Q162.454 1499.82 160.116 1497.71 Q157.778 1495.6 153.774 1495.6 Q151.899 1495.6 150.024 1496.02 Q148.172 1496.44 146.228 1497.32 L146.228 1479.96 Z" fill="#000000" fill-rule="nonzero" fill-opacity="1" /><path clip-path="url(#clip040)" d="M176.343 1508.64 L181.227 1508.64 L181.227 1514.52 L176.343 1514.52 L176.343 1508.64 Z" fill="#000000" fill-rule="nonzero" fill-opacity="1" /><path clip-path="url(#clip040)" d="M191.459 1479.96 L209.815 1479.96 L209.815 1483.89 L195.741 1483.89 L195.741 1492.36 Q196.76 1492.02 197.778 1491.85 Q198.797 1491.67 199.815 1491.67 Q205.602 1491.67 208.982 1494.84 Q212.361 1498.01 212.361 1503.43 Q212.361 1509.01 208.889 1512.11 Q205.417 1515.19 199.098 1515.19 Q196.922 1515.19 194.653 1514.82 Q192.408 1514.45 190 1513.71 L190 1509.01 Q192.084 1510.14 194.306 1510.7 Q196.528 1511.25 199.005 1511.25 Q203.01 1511.25 205.348 1509.14 Q207.686 1507.04 207.686 1503.43 Q207.686 1499.82 205.348 1497.71 Q203.01 1495.6 199.005 1495.6 Q197.13 1495.6 195.255 1496.02 Q193.403 1496.44 191.459 1497.32 L191.459 1479.96 Z" fill="#000000" fill-rule="nonzero" fill-opacity="1" /><path clip-path="url(#clip040)" d="M231.574 1483.03 Q227.963 1483.03 226.135 1486.6 Q224.329 1490.14 224.329 1497.27 Q224.329 1504.38 226.135 1507.94 Q227.963 1511.48 231.574 1511.48 Q235.209 1511.48 237.014 1507.94 Q238.843 1504.38 238.843 1497.27 Q238.843 1490.14 237.014 1486.6 Q235.209 1483.03 231.574 1483.03 M231.574 1479.33 Q237.384 1479.33 240.44 1483.94 Q243.519 1488.52 243.519 1497.27 Q243.519 1506 240.44 1510.6 Q237.384 1515.19 231.574 1515.19 Q225.764 1515.19 222.686 1510.6 Q219.63 1506 219.63 1497.27 Q219.63 1488.52 222.686 1483.94 Q225.764 1479.33 231.574 1479.33 Z" fill="#000000" fill-rule="nonzero" fill-opacity="1" /><path clip-path="url(#clip040)" d="M127.593 1172.58 Q124.445 1172.58 122.593 1174.73 Q120.765 1176.88 120.765 1180.63 Q120.765 1184.36 122.593 1186.54 Q124.445 1188.69 127.593 1188.69 Q130.742 1188.69 132.57 1186.54 Q134.422 1184.36 134.422 1180.63 Q134.422 1176.88 132.57 1174.73 Q130.742 1172.58 127.593 1172.58 M136.876 1157.93 L136.876 1162.18 Q135.117 1161.35 133.311 1160.91 Q131.529 1160.47 129.769 1160.47 Q125.14 1160.47 122.686 1163.6 Q120.255 1166.72 119.908 1173.04 Q121.274 1171.03 123.334 1169.96 Q125.394 1168.87 127.871 1168.87 Q133.08 1168.87 136.089 1172.05 Q139.121 1175.19 139.121 1180.63 Q139.121 1185.96 135.973 1189.17 Q132.825 1192.39 127.593 1192.39 Q121.598 1192.39 118.427 1187.81 Q115.256 1183.2 115.256 1174.48 Q115.256 1166.28 119.144 1161.42 Q123.033 1156.54 129.584 1156.54 Q131.343 1156.54 133.126 1156.88 Q134.931 1157.23 136.876 1157.93 Z" fill="#000000" fill-rule="nonzero" fill-opacity="1" /><path clip-path="url(#clip040)" d="M147.223 1157.16 L165.579 1157.16 L165.579 1161.1 L151.505 1161.1 L151.505 1169.57 Q152.524 1169.22 153.542 1169.06 Q154.561 1168.87 155.579 1168.87 Q161.366 1168.87 164.746 1172.05 Q168.126 1175.22 168.126 1180.63 Q168.126 1186.21 164.653 1189.31 Q161.181 1192.39 154.862 1192.39 Q152.686 1192.39 150.417 1192.02 Q148.172 1191.65 145.765 1190.91 L145.765 1186.21 Q147.848 1187.35 150.07 1187.9 Q152.292 1188.46 154.769 1188.46 Q158.774 1188.46 161.112 1186.35 Q163.45 1184.24 163.45 1180.63 Q163.45 1177.02 161.112 1174.92 Q158.774 1172.81 154.769 1172.81 Q152.894 1172.81 151.019 1173.23 Q149.167 1173.64 147.223 1174.52 L147.223 1157.16 Z" fill="#000000" fill-rule="nonzero" fill-opacity="1" /><path clip-path="url(#clip040)" d="M177.339 1185.84 L182.223 1185.84 L182.223 1191.72 L177.339 1191.72 L177.339 1185.84 Z" fill="#000000" fill-rule="nonzero" fill-opacity="1" /><path clip-path="url(#clip040)" d="M191.227 1157.16 L213.449 1157.16 L213.449 1159.15 L200.903 1191.72 L196.019 1191.72 L207.824 1161.1 L191.227 1161.1 L191.227 1157.16 Z" fill="#000000" fill-rule="nonzero" fill-opacity="1" /><path clip-path="url(#clip040)" d="M222.616 1157.16 L240.972 1157.16 L240.972 1161.1 L226.898 1161.1 L226.898 1169.57 Q227.917 1169.22 228.935 1169.06 Q229.954 1168.87 230.972 1168.87 Q236.76 1168.87 240.139 1172.05 Q243.519 1175.22 243.519 1180.63 Q243.519 1186.21 240.047 1189.31 Q236.574 1192.39 230.255 1192.39 Q228.079 1192.39 225.81 1192.02 Q223.565 1191.65 221.158 1190.91 L221.158 1186.21 Q223.241 1187.35 225.463 1187.9 Q227.685 1188.46 230.162 1188.46 Q234.167 1188.46 236.505 1186.35 Q238.843 1184.24 238.843 1180.63 Q238.843 1177.02 236.505 1174.92 Q234.167 1172.81 230.162 1172.81 Q228.287 1172.81 226.412 1173.23 Q224.56 1173.64 222.616 1174.52 L222.616 1157.16 Z" fill="#000000" fill-rule="nonzero" fill-opacity="1" /><path clip-path="url(#clip040)" d="M126.598 849.784 Q123.45 849.784 121.598 851.936 Q119.769 854.089 119.769 857.839 Q119.769 861.566 121.598 863.742 Q123.45 865.895 126.598 865.895 Q129.746 865.895 131.575 863.742 Q133.427 861.566 133.427 857.839 Q133.427 854.089 131.575 851.936 Q129.746 849.784 126.598 849.784 M135.88 835.131 L135.88 839.39 Q134.121 838.557 132.316 838.117 Q130.533 837.677 128.774 837.677 Q124.144 837.677 121.691 840.802 Q119.26 843.927 118.913 850.247 Q120.279 848.233 122.339 847.168 Q124.399 846.08 126.876 846.08 Q132.084 846.08 135.093 849.251 Q138.126 852.399 138.126 857.839 Q138.126 863.163 134.978 866.381 Q131.83 869.598 126.598 869.598 Q120.603 869.598 117.431 865.015 Q114.26 860.409 114.26 851.682 Q114.26 843.487 118.149 838.626 Q122.038 833.742 128.589 833.742 Q130.348 833.742 132.13 834.089 Q133.936 834.437 135.88 835.131 Z" fill="#000000" fill-rule="nonzero" fill-opacity="1" /><path clip-path="url(#clip040)" d="M156.76 849.784 Q153.612 849.784 151.76 851.936 Q149.931 854.089 149.931 857.839 Q149.931 861.566 151.76 863.742 Q153.612 865.895 156.76 865.895 Q159.908 865.895 161.737 863.742 Q163.589 861.566 163.589 857.839 Q163.589 854.089 161.737 851.936 Q159.908 849.784 156.76 849.784 M166.042 835.131 L166.042 839.39 Q164.283 838.557 162.477 838.117 Q160.695 837.677 158.936 837.677 Q154.306 837.677 151.853 840.802 Q149.422 843.927 149.075 850.247 Q150.441 848.233 152.501 847.168 Q154.561 846.08 157.038 846.08 Q162.246 846.08 165.255 849.251 Q168.288 852.399 168.288 857.839 Q168.288 863.163 165.14 866.381 Q161.991 869.598 156.76 869.598 Q150.765 869.598 147.593 865.015 Q144.422 860.409 144.422 851.682 Q144.422 843.487 148.311 838.626 Q152.2 833.742 158.751 833.742 Q160.51 833.742 162.292 834.089 Q164.098 834.437 166.042 835.131 Z" fill="#000000" fill-rule="nonzero" fill-opacity="1" /><path clip-path="url(#clip040)" d="M176.343 863.047 L181.227 863.047 L181.227 868.927 L176.343 868.927 L176.343 863.047 Z" fill="#000000" fill-rule="nonzero" fill-opacity="1" /><path clip-path="url(#clip040)" d="M201.412 837.446 Q197.801 837.446 195.973 841.011 Q194.167 844.552 194.167 851.682 Q194.167 858.788 195.973 862.353 Q197.801 865.895 201.412 865.895 Q205.047 865.895 206.852 862.353 Q208.681 858.788 208.681 851.682 Q208.681 844.552 206.852 841.011 Q205.047 837.446 201.412 837.446 M201.412 833.742 Q207.223 833.742 210.278 838.349 Q213.357 842.932 213.357 851.682 Q213.357 860.409 210.278 865.015 Q207.223 869.598 201.412 869.598 Q195.602 869.598 192.524 865.015 Q189.468 860.409 189.468 851.682 Q189.468 842.932 192.524 838.349 Q195.602 833.742 201.412 833.742 Z" fill="#000000" fill-rule="nonzero" fill-opacity="1" /><path clip-path="url(#clip040)" d="M231.574 837.446 Q227.963 837.446 226.135 841.011 Q224.329 844.552 224.329 851.682 Q224.329 858.788 226.135 862.353 Q227.963 865.895 231.574 865.895 Q235.209 865.895 237.014 862.353 Q238.843 858.788 238.843 851.682 Q238.843 844.552 237.014 841.011 Q235.209 837.446 231.574 837.446 M231.574 833.742 Q237.384 833.742 240.44 838.349 Q243.519 842.932 243.519 851.682 Q243.519 860.409 240.44 865.015 Q237.384 869.598 231.574 869.598 Q225.764 869.598 222.686 865.015 Q219.63 860.409 219.63 851.682 Q219.63 842.932 222.686 838.349 Q225.764 833.742 231.574 833.742 Z" fill="#000000" fill-rule="nonzero" fill-opacity="1" /><path clip-path="url(#clip040)" d="M127.593 526.99 Q124.445 526.99 122.593 529.142 Q120.765 531.295 120.765 535.045 Q120.765 538.772 122.593 540.948 Q124.445 543.101 127.593 543.101 Q130.742 543.101 132.57 540.948 Q134.422 538.772 134.422 535.045 Q134.422 531.295 132.57 529.142 Q130.742 526.99 127.593 526.99 M136.876 512.337 L136.876 516.596 Q135.117 515.763 133.311 515.323 Q131.529 514.883 129.769 514.883 Q125.14 514.883 122.686 518.008 Q120.255 521.133 119.908 527.452 Q121.274 525.439 123.334 524.374 Q125.394 523.286 127.871 523.286 Q133.08 523.286 136.089 526.457 Q139.121 529.605 139.121 535.045 Q139.121 540.369 135.973 543.587 Q132.825 546.804 127.593 546.804 Q121.598 546.804 118.427 542.221 Q115.256 537.614 115.256 528.888 Q115.256 520.693 119.144 515.832 Q123.033 510.948 129.584 510.948 Q131.343 510.948 133.126 511.295 Q134.931 511.642 136.876 512.337 Z" fill="#000000" fill-rule="nonzero" fill-opacity="1" /><path clip-path="url(#clip040)" d="M157.755 526.99 Q154.607 526.99 152.755 529.142 Q150.927 531.295 150.927 535.045 Q150.927 538.772 152.755 540.948 Q154.607 543.101 157.755 543.101 Q160.903 543.101 162.732 540.948 Q164.584 538.772 164.584 535.045 Q164.584 531.295 162.732 529.142 Q160.903 526.99 157.755 526.99 M167.038 512.337 L167.038 516.596 Q165.278 515.763 163.473 515.323 Q161.69 514.883 159.931 514.883 Q155.302 514.883 152.848 518.008 Q150.417 521.133 150.07 527.452 Q151.436 525.439 153.496 524.374 Q155.556 523.286 158.033 523.286 Q163.241 523.286 166.251 526.457 Q169.283 529.605 169.283 535.045 Q169.283 540.369 166.135 543.587 Q162.987 546.804 157.755 546.804 Q151.76 546.804 148.589 542.221 Q145.417 537.614 145.417 528.888 Q145.417 520.693 149.306 515.832 Q153.195 510.948 159.746 510.948 Q161.505 510.948 163.288 511.295 Q165.093 511.642 167.038 512.337 Z" fill="#000000" fill-rule="nonzero" fill-opacity="1" /><path clip-path="url(#clip040)" d="M177.339 540.253 L182.223 540.253 L182.223 546.133 L177.339 546.133 L177.339 540.253 Z" fill="#000000" fill-rule="nonzero" fill-opacity="1" /><path clip-path="url(#clip040)" d="M196.436 542.198 L212.755 542.198 L212.755 546.133 L190.811 546.133 L190.811 542.198 Q193.473 539.443 198.056 534.814 Q202.662 530.161 203.843 528.818 Q206.088 526.295 206.968 524.559 Q207.871 522.8 207.871 521.11 Q207.871 518.355 205.926 516.619 Q204.005 514.883 200.903 514.883 Q198.704 514.883 196.25 515.647 Q193.82 516.411 191.042 517.962 L191.042 513.24 Q193.866 512.105 196.32 511.527 Q198.774 510.948 200.811 510.948 Q206.181 510.948 209.375 513.633 Q212.57 516.318 212.57 520.809 Q212.57 522.939 211.76 524.86 Q210.973 526.758 208.866 529.351 Q208.287 530.022 205.186 533.239 Q202.084 536.434 196.436 542.198 Z" fill="#000000" fill-rule="nonzero" fill-opacity="1" /><path clip-path="url(#clip040)" d="M222.616 511.573 L240.972 511.573 L240.972 515.508 L226.898 515.508 L226.898 523.98 Q227.917 523.633 228.935 523.471 Q229.954 523.286 230.972 523.286 Q236.76 523.286 240.139 526.457 Q243.519 529.628 243.519 535.045 Q243.519 540.624 240.047 543.726 Q236.574 546.804 230.255 546.804 Q228.079 546.804 225.81 546.434 Q223.565 546.063 221.158 545.323 L221.158 540.624 Q223.241 541.758 225.463 542.314 Q227.685 542.869 230.162 542.869 Q234.167 542.869 236.505 540.763 Q238.843 538.656 238.843 535.045 Q238.843 531.434 236.505 529.327 Q234.167 527.221 230.162 527.221 Q228.287 527.221 226.412 527.638 Q224.56 528.054 222.616 528.934 L222.616 511.573 Z" fill="#000000" fill-rule="nonzero" fill-opacity="1" /><path clip-path="url(#clip040)" d="M126.598 204.195 Q123.45 204.195 121.598 206.348 Q119.769 208.501 119.769 212.251 Q119.769 215.978 121.598 218.154 Q123.45 220.306 126.598 220.306 Q129.746 220.306 131.575 218.154 Q133.427 215.978 133.427 212.251 Q133.427 208.501 131.575 206.348 Q129.746 204.195 126.598 204.195 M135.88 189.543 L135.88 193.802 Q134.121 192.969 132.316 192.529 Q130.533 192.089 128.774 192.089 Q124.144 192.089 121.691 195.214 Q119.26 198.339 118.913 204.658 Q120.279 202.644 122.339 201.58 Q124.399 200.492 126.876 200.492 Q132.084 200.492 135.093 203.663 Q138.126 206.811 138.126 212.251 Q138.126 217.575 134.978 220.793 Q131.83 224.01 126.598 224.01 Q120.603 224.01 117.431 219.427 Q114.26 214.82 114.26 206.094 Q114.26 197.899 118.149 193.038 Q122.038 188.154 128.589 188.154 Q130.348 188.154 132.13 188.501 Q133.936 188.848 135.88 189.543 Z" fill="#000000" fill-rule="nonzero" fill-opacity="1" /><path clip-path="url(#clip040)" d="M156.76 204.195 Q153.612 204.195 151.76 206.348 Q149.931 208.501 149.931 212.251 Q149.931 215.978 151.76 218.154 Q153.612 220.306 156.76 220.306 Q159.908 220.306 161.737 218.154 Q163.589 215.978 163.589 212.251 Q163.589 208.501 161.737 206.348 Q159.908 204.195 156.76 204.195 M166.042 189.543 L166.042 193.802 Q164.283 192.969 162.477 192.529 Q160.695 192.089 158.936 192.089 Q154.306 192.089 151.853 195.214 Q149.422 198.339 149.075 204.658 Q150.441 202.644 152.501 201.58 Q154.561 200.492 157.038 200.492 Q162.246 200.492 165.255 203.663 Q168.288 206.811 168.288 212.251 Q168.288 217.575 165.14 220.793 Q161.991 224.01 156.76 224.01 Q150.765 224.01 147.593 219.427 Q144.422 214.82 144.422 206.094 Q144.422 197.899 148.311 193.038 Q152.2 188.154 158.751 188.154 Q160.51 188.154 162.292 188.501 Q164.098 188.848 166.042 189.543 Z" fill="#000000" fill-rule="nonzero" fill-opacity="1" /><path clip-path="url(#clip040)" d="M176.343 217.459 L181.227 217.459 L181.227 223.339 L176.343 223.339 L176.343 217.459 Z" fill="#000000" fill-rule="nonzero" fill-opacity="1" /><path clip-path="url(#clip040)" d="M191.459 188.779 L209.815 188.779 L209.815 192.714 L195.741 192.714 L195.741 201.186 Q196.76 200.839 197.778 200.677 Q198.797 200.492 199.815 200.492 Q205.602 200.492 208.982 203.663 Q212.361 206.834 212.361 212.251 Q212.361 217.83 208.889 220.931 Q205.417 224.01 199.098 224.01 Q196.922 224.01 194.653 223.64 Q192.408 223.269 190 222.529 L190 217.83 Q192.084 218.964 194.306 219.519 Q196.528 220.075 199.005 220.075 Q203.01 220.075 205.348 217.968 Q207.686 215.862 207.686 212.251 Q207.686 208.64 205.348 206.533 Q203.01 204.427 199.005 204.427 Q197.13 204.427 195.255 204.844 Q193.403 205.26 191.459 206.14 L191.459 188.779 Z" fill="#000000" fill-rule="nonzero" fill-opacity="1" /><path clip-path="url(#clip040)" d="M231.574 191.857 Q227.963 191.857 226.135 195.422 Q224.329 198.964 224.329 206.094 Q224.329 213.2 226.135 216.765 Q227.963 220.306 231.574 220.306 Q235.209 220.306 237.014 216.765 Q238.843 213.2 238.843 206.094 Q238.843 198.964 237.014 195.422 Q235.209 191.857 231.574 191.857 M231.574 188.154 Q237.384 188.154 240.44 192.76 Q243.519 197.344 243.519 206.094 Q243.519 214.82 240.44 219.427 Q237.384 224.01 231.574 224.01 Q225.764 224.01 222.686 219.427 Q219.63 214.82 219.63 206.094 Q219.63 197.344 222.686 192.76 Q225.764 188.154 231.574 188.154 Z" fill="#000000" fill-rule="nonzero" fill-opacity="1" /><path clip-path="url(#clip040)" d="M22.818 922.094 L46.4666 930.815 L46.4666 913.341 L22.818 922.094 M16.4842 925.723 L16.4842 918.434 L64.0042 900.324 L64.0042 907.008 L51.8138 911.336 L51.8138 932.757 L64.0042 937.085 L64.0042 943.865 L16.4842 925.723 Z" fill="#000000" fill-rule="nonzero" fill-opacity="1" /><path clip-path="url(#clip040)" d="M45.7664 870.182 Q39.4007 870.182 35.8996 872.824 Q32.3984 875.434 32.3984 880.176 Q32.3984 884.887 35.8996 887.528 Q39.4007 890.138 45.7664 890.138 Q52.1003 890.138 55.6014 887.528 Q59.1026 884.887 59.1026 880.176 Q59.1026 875.434 55.6014 872.824 Q52.1003 870.182 45.7664 870.182 M59.58 864.325 Q68.683 864.325 73.1071 868.368 Q77.5631 872.41 77.5631 880.749 Q77.5631 883.836 77.0857 886.574 Q76.6401 889.311 75.6852 891.889 L69.9879 891.889 Q71.3884 889.311 72.0568 886.796 Q72.7252 884.282 72.7252 881.672 Q72.7252 875.911 69.7015 873.046 Q66.7096 870.182 60.6303 870.182 L57.7339 870.182 Q60.885 871.996 62.4446 874.829 Q64.0042 877.662 64.0042 881.608 Q64.0042 888.165 59.0071 892.175 Q54.01 896.186 45.7664 896.186 Q37.491 896.186 32.4939 892.175 Q27.4968 888.165 27.4968 881.608 Q27.4968 877.662 29.0564 874.829 Q30.616 871.996 33.7671 870.182 L28.3562 870.182 L28.3562 864.325 L59.58 864.325 Z" fill="#000000" fill-rule="nonzero" fill-opacity="1" /><path clip-path="url(#clip040)" d="M44.7161 821.771 L47.5806 821.771 L47.5806 848.698 Q53.6281 848.316 56.8109 845.069 Q59.9619 841.791 59.9619 835.966 Q59.9619 832.592 59.1344 829.441 Q58.3069 826.259 56.6518 823.139 L62.1899 823.139 Q63.5267 826.29 64.227 829.601 Q64.9272 832.911 64.9272 836.316 Q64.9272 844.846 59.9619 849.843 Q54.9967 854.809 46.5303 854.809 Q37.7774 854.809 32.6531 850.098 Q27.4968 845.356 27.4968 837.335 Q27.4968 830.142 32.1438 825.972 Q36.7589 821.771 44.7161 821.771 M42.9973 827.627 Q38.1912 827.691 35.3266 830.333 Q32.4621 832.943 32.4621 837.271 Q32.4621 842.173 35.2312 845.133 Q38.0002 848.061 43.0292 848.507 L42.9973 827.627 Z" fill="#000000" fill-rule="nonzero" fill-opacity="1" /><path clip-path="url(#clip040)" d="M14.5426 777.37 Q21.8632 781.635 29.0246 783.704 Q36.186 785.773 43.5384 785.773 Q50.8908 785.773 58.1159 783.704 Q65.3091 781.603 72.5979 777.37 L72.5979 782.462 Q65.1182 787.237 57.8931 789.624 Q50.668 791.979 43.5384 791.979 Q36.4406 791.979 29.2474 789.624 Q22.0542 787.269 14.5426 782.462 L14.5426 777.37 Z" fill="#000000" fill-rule="nonzero" fill-opacity="1" /><path clip-path="url(#clip040)" d="M16.4842 765.752 L16.4842 756.172 L48.8219 744.045 L16.4842 731.855 L16.4842 722.275 L64.0042 722.275 L64.0042 728.545 L22.277 728.545 L54.8694 740.799 L54.8694 747.26 L22.277 759.514 L64.0042 759.514 L64.0042 765.752 L16.4842 765.752 Z" fill="#000000" fill-rule="nonzero" fill-opacity="1" /><path clip-path="url(#clip040)" d="M46.0847 693.565 Q46.0847 700.663 47.7079 703.4 Q49.3312 706.138 53.2461 706.138 Q56.3653 706.138 58.2114 704.101 Q60.0256 702.032 60.0256 698.499 Q60.0256 693.629 56.5881 690.701 Q53.1188 687.741 47.3897 687.741 L46.0847 687.741 L46.0847 693.565 M43.6657 681.884 L64.0042 681.884 L64.0042 687.741 L58.5933 687.741 Q61.8398 689.746 63.3994 692.738 Q64.9272 695.73 64.9272 700.058 Q64.9272 705.533 61.8716 708.779 Q58.7843 711.994 53.6281 711.994 Q47.6125 711.994 44.5569 707.984 Q41.5014 703.941 41.5014 695.953 L41.5014 687.741 L40.9285 687.741 Q36.8862 687.741 34.6901 690.414 Q32.4621 693.056 32.4621 697.862 Q32.4621 700.918 33.1941 703.814 Q33.9262 706.711 35.3903 709.384 L29.9795 709.384 Q28.7381 706.169 28.1334 703.146 Q27.4968 700.122 27.4968 697.257 Q27.4968 689.523 31.5072 685.704 Q35.5176 681.884 43.6657 681.884 Z" fill="#000000" fill-rule="nonzero" fill-opacity="1" /><path clip-path="url(#clip040)" d="M14.5426 670.744 L14.5426 665.652 Q22.0542 660.877 29.2474 658.522 Q36.4406 656.135 43.5384 656.135 Q50.668 656.135 57.8931 658.522 Q65.1182 660.877 72.5979 665.652 L72.5979 670.744 Q65.3091 666.511 58.1159 664.442 Q50.8908 662.342 43.5384 662.342 Q36.186 662.342 29.0246 664.442 Q21.8632 666.511 14.5426 670.744 Z" fill="#000000" fill-rule="nonzero" fill-opacity="1" /><polyline clip-path="url(#clip042)" style="stroke:#009af9; stroke-linecap:round; stroke-linejoin:round; stroke-width:4; stroke-opacity:1; fill:none" points="338.195,1510.15 338.195,554.676 "/>
<polyline clip-path="url(#clip042)" style="stroke:#009af9; stroke-linecap:round; stroke-linejoin:round; stroke-width:4; stroke-opacity:1; fill:none" points="435.989,1174.44 435.989,787.088 "/>
<polyline clip-path="url(#clip042)" style="stroke:#009af9; stroke-linecap:round; stroke-linejoin:round; stroke-width:4; stroke-opacity:1; fill:none" points="533.784,1200.26 533.784,709.618 "/>
<polyline clip-path="url(#clip042)" style="stroke:#009af9; stroke-linecap:round; stroke-linejoin:round; stroke-width:4; stroke-opacity:1; fill:none" points="631.578,1058.24 631.578,722.529 "/>
<polyline clip-path="url(#clip042)" style="stroke:#009af9; stroke-linecap:round; stroke-linejoin:round; stroke-width:4; stroke-opacity:1; fill:none" points="729.372,1174.44 729.372,580.5 "/>
<polyline clip-path="url(#clip042)" style="stroke:#009af9; stroke-linecap:round; stroke-linejoin:round; stroke-width:4; stroke-opacity:1; fill:none" points="827.166,929.118 827.166,812.912 "/>
<polyline clip-path="url(#clip042)" style="stroke:#009af9; stroke-linecap:round; stroke-linejoin:round; stroke-width:4; stroke-opacity:1; fill:none" points="924.96,954.941 924.96,774.176 "/>
<polyline clip-path="url(#clip042)" style="stroke:#009af9; stroke-linecap:round; stroke-linejoin:round; stroke-width:4; stroke-opacity:1; fill:none" points="1022.75,1381.03 1022.75,348.088 "/>
<polyline clip-path="url(#clip042)" style="stroke:#009af9; stroke-linecap:round; stroke-linejoin:round; stroke-width:4; stroke-opacity:1; fill:none" points="1120.55,1200.26 1120.55,477.206 "/>
<polyline clip-path="url(#clip042)" style="stroke:#009af9; stroke-linecap:round; stroke-linejoin:round; stroke-width:4; stroke-opacity:1; fill:none" points="1218.34,993.676 1218.34,657.971 "/>
<polyline clip-path="url(#clip042)" style="stroke:#009af9; stroke-linecap:round; stroke-linejoin:round; stroke-width:4; stroke-opacity:1; fill:none" points="1316.14,993.676 1316.14,657.971 "/>
<polyline clip-path="url(#clip042)" style="stroke:#009af9; stroke-linecap:round; stroke-linejoin:round; stroke-width:4; stroke-opacity:1; fill:none" points="1413.93,880.053 1413.93,686.376 "/>
<polyline clip-path="url(#clip042)" style="stroke:#009af9; stroke-linecap:round; stroke-linejoin:round; stroke-width:4; stroke-opacity:1; fill:none" points="1511.73,1226.09 1511.73,322.265 "/>
<polyline clip-path="url(#clip042)" style="stroke:#009af9; stroke-linecap:round; stroke-linejoin:round; stroke-width:4; stroke-opacity:1; fill:none" points="1609.52,836.153 1609.52,699.288 "/>
<polyline clip-path="url(#clip042)" style="stroke:#009af9; stroke-linecap:round; stroke-linejoin:round; stroke-width:4; stroke-opacity:1; fill:none" points="1707.31,916.206 1707.31,580.5 "/>
<polyline clip-path="url(#clip042)" style="stroke:#009af9; stroke-linecap:round; stroke-linejoin:round; stroke-width:4; stroke-opacity:1; fill:none" points="1805.11,1006.59 1805.11,464.294 "/>
<polyline clip-path="url(#clip042)" style="stroke:#009af9; stroke-linecap:round; stroke-linejoin:round; stroke-width:4; stroke-opacity:1; fill:none" points="1902.9,1303.56 1902.9,89.8529 "/>
<polyline clip-path="url(#clip042)" style="stroke:#009af9; stroke-linecap:round; stroke-linejoin:round; stroke-width:4; stroke-opacity:1; fill:none" points="2000.7,1019.5 2000.7,322.265 "/>
<polyline clip-path="url(#clip042)" style="stroke:#009af9; stroke-linecap:round; stroke-linejoin:round; stroke-width:4; stroke-opacity:1; fill:none" points="2098.49,1096.97 2098.49,141.5 "/>
<polyline clip-path="url(#clip042)" style="stroke:#009af9; stroke-linecap:round; stroke-linejoin:round; stroke-width:4; stroke-opacity:1; fill:none" points="2196.29,722.529 2196.29,231.882 "/>
<polyline clip-path="url(#clip042)" style="stroke:#009af9; stroke-linecap:round; stroke-linejoin:round; stroke-width:4; stroke-opacity:1; fill:none" points="2294.08,580.5 2294.08,218.971 "/>
<line clip-path="url(#clip042)" x1="354.195" y1="1510.15" x2="322.195" y2="1510.15" style="stroke:#009af9; stroke-width:4; stroke-opacity:1"/>
<line clip-path="url(#clip042)" x1="354.195" y1="554.676" x2="322.195" y2="554.676" style="stroke:#009af9; stroke-width:4; stroke-opacity:1"/>
<line clip-path="url(#clip042)" x1="451.989" y1="1174.44" x2="419.989" y2="1174.44" style="stroke:#009af9; stroke-width:4; stroke-opacity:1"/>
<line clip-path="url(#clip042)" x1="451.989" y1="787.088" x2="419.989" y2="787.088" style="stroke:#009af9; stroke-width:4; stroke-opacity:1"/>
<line clip-path="url(#clip042)" x1="549.784" y1="1200.26" x2="517.784" y2="1200.26" style="stroke:#009af9; stroke-width:4; stroke-opacity:1"/>
<line clip-path="url(#clip042)" x1="549.784" y1="709.618" x2="517.784" y2="709.618" style="stroke:#009af9; stroke-width:4; stroke-opacity:1"/>
<line clip-path="url(#clip042)" x1="647.578" y1="1058.24" x2="615.578" y2="1058.24" style="stroke:#009af9; stroke-width:4; stroke-opacity:1"/>
<line clip-path="url(#clip042)" x1="647.578" y1="722.529" x2="615.578" y2="722.529" style="stroke:#009af9; stroke-width:4; stroke-opacity:1"/>
<line clip-path="url(#clip042)" x1="745.372" y1="1174.44" x2="713.372" y2="1174.44" style="stroke:#009af9; stroke-width:4; stroke-opacity:1"/>
<line clip-path="url(#clip042)" x1="745.372" y1="580.5" x2="713.372" y2="580.5" style="stroke:#009af9; stroke-width:4; stroke-opacity:1"/>
<line clip-path="url(#clip042)" x1="843.166" y1="929.118" x2="811.166" y2="929.118" style="stroke:#009af9; stroke-width:4; stroke-opacity:1"/>
<line clip-path="url(#clip042)" x1="843.166" y1="812.912" x2="811.166" y2="812.912" style="stroke:#009af9; stroke-width:4; stroke-opacity:1"/>
<line clip-path="url(#clip042)" x1="940.96" y1="954.941" x2="908.96" y2="954.941" style="stroke:#009af9; stroke-width:4; stroke-opacity:1"/>
<line clip-path="url(#clip042)" x1="940.96" y1="774.176" x2="908.96" y2="774.176" style="stroke:#009af9; stroke-width:4; stroke-opacity:1"/>
<line clip-path="url(#clip042)" x1="1038.75" y1="1381.03" x2="1006.75" y2="1381.03" style="stroke:#009af9; stroke-width:4; stroke-opacity:1"/>
<line clip-path="url(#clip042)" x1="1038.75" y1="348.088" x2="1006.75" y2="348.088" style="stroke:#009af9; stroke-width:4; stroke-opacity:1"/>
<line clip-path="url(#clip042)" x1="1136.55" y1="1200.26" x2="1104.55" y2="1200.26" style="stroke:#009af9; stroke-width:4; stroke-opacity:1"/>
<line clip-path="url(#clip042)" x1="1136.55" y1="477.206" x2="1104.55" y2="477.206" style="stroke:#009af9; stroke-width:4; stroke-opacity:1"/>
<line clip-path="url(#clip042)" x1="1234.34" y1="993.676" x2="1202.34" y2="993.676" style="stroke:#009af9; stroke-width:4; stroke-opacity:1"/>
<line clip-path="url(#clip042)" x1="1234.34" y1="657.971" x2="1202.34" y2="657.971" style="stroke:#009af9; stroke-width:4; stroke-opacity:1"/>
<line clip-path="url(#clip042)" x1="1332.14" y1="993.676" x2="1300.14" y2="993.676" style="stroke:#009af9; stroke-width:4; stroke-opacity:1"/>
<line clip-path="url(#clip042)" x1="1332.14" y1="657.971" x2="1300.14" y2="657.971" style="stroke:#009af9; stroke-width:4; stroke-opacity:1"/>
<line clip-path="url(#clip042)" x1="1429.93" y1="880.053" x2="1397.93" y2="880.053" style="stroke:#009af9; stroke-width:4; stroke-opacity:1"/>
<line clip-path="url(#clip042)" x1="1429.93" y1="686.376" x2="1397.93" y2="686.376" style="stroke:#009af9; stroke-width:4; stroke-opacity:1"/>
<line clip-path="url(#clip042)" x1="1527.73" y1="1226.09" x2="1495.73" y2="1226.09" style="stroke:#009af9; stroke-width:4; stroke-opacity:1"/>
<line clip-path="url(#clip042)" x1="1527.73" y1="322.265" x2="1495.73" y2="322.265" style="stroke:#009af9; stroke-width:4; stroke-opacity:1"/>
<line clip-path="url(#clip042)" x1="1625.52" y1="836.153" x2="1593.52" y2="836.153" style="stroke:#009af9; stroke-width:4; stroke-opacity:1"/>
<line clip-path="url(#clip042)" x1="1625.52" y1="699.288" x2="1593.52" y2="699.288" style="stroke:#009af9; stroke-width:4; stroke-opacity:1"/>
<line clip-path="url(#clip042)" x1="1723.31" y1="916.206" x2="1691.31" y2="916.206" style="stroke:#009af9; stroke-width:4; stroke-opacity:1"/>
<line clip-path="url(#clip042)" x1="1723.31" y1="580.5" x2="1691.31" y2="580.5" style="stroke:#009af9; stroke-width:4; stroke-opacity:1"/>
<line clip-path="url(#clip042)" x1="1821.11" y1="1006.59" x2="1789.11" y2="1006.59" style="stroke:#009af9; stroke-width:4; stroke-opacity:1"/>
<line clip-path="url(#clip042)" x1="1821.11" y1="464.294" x2="1789.11" y2="464.294" style="stroke:#009af9; stroke-width:4; stroke-opacity:1"/>
<line clip-path="url(#clip042)" x1="1918.9" y1="1303.56" x2="1886.9" y2="1303.56" style="stroke:#009af9; stroke-width:4; stroke-opacity:1"/>
<line clip-path="url(#clip042)" x1="1918.9" y1="89.8529" x2="1886.9" y2="89.8529" style="stroke:#009af9; stroke-width:4; stroke-opacity:1"/>
<line clip-path="url(#clip042)" x1="2016.7" y1="1019.5" x2="1984.7" y2="1019.5" style="stroke:#009af9; stroke-width:4; stroke-opacity:1"/>
<line clip-path="url(#clip042)" x1="2016.7" y1="322.265" x2="1984.7" y2="322.265" style="stroke:#009af9; stroke-width:4; stroke-opacity:1"/>
<line clip-path="url(#clip042)" x1="2114.49" y1="1096.97" x2="2082.49" y2="1096.97" style="stroke:#009af9; stroke-width:4; stroke-opacity:1"/>
<line clip-path="url(#clip042)" x1="2114.49" y1="141.5" x2="2082.49" y2="141.5" style="stroke:#009af9; stroke-width:4; stroke-opacity:1"/>
<line clip-path="url(#clip042)" x1="2212.29" y1="722.529" x2="2180.29" y2="722.529" style="stroke:#009af9; stroke-width:4; stroke-opacity:1"/>
<line clip-path="url(#clip042)" x1="2212.29" y1="231.882" x2="2180.29" y2="231.882" style="stroke:#009af9; stroke-width:4; stroke-opacity:1"/>
<line clip-path="url(#clip042)" x1="2310.08" y1="580.5" x2="2278.08" y2="580.5" style="stroke:#009af9; stroke-width:4; stroke-opacity:1"/>
<line clip-path="url(#clip042)" x1="2310.08" y1="218.971" x2="2278.08" y2="218.971" style="stroke:#009af9; stroke-width:4; stroke-opacity:1"/>
<circle clip-path="url(#clip042)" cx="338.195" cy="1032.41" r="14.4" fill="#009af9" fill-rule="evenodd" fill-opacity="1" stroke="none"/>
<circle clip-path="url(#clip042)" cx="435.989" cy="980.765" r="14.4" fill="#009af9" fill-rule="evenodd" fill-opacity="1" stroke="none"/>
<circle clip-path="url(#clip042)" cx="533.784" cy="954.941" r="14.4" fill="#009af9" fill-rule="evenodd" fill-opacity="1" stroke="none"/>
<circle clip-path="url(#clip042)" cx="631.578" cy="890.382" r="14.4" fill="#009af9" fill-rule="evenodd" fill-opacity="1" stroke="none"/>
<circle clip-path="url(#clip042)" cx="729.372" cy="877.471" r="14.4" fill="#009af9" fill-rule="evenodd" fill-opacity="1" stroke="none"/>
<circle clip-path="url(#clip042)" cx="827.166" cy="871.015" r="14.4" fill="#009af9" fill-rule="evenodd" fill-opacity="1" stroke="none"/>
<circle clip-path="url(#clip042)" cx="924.96" cy="864.559" r="14.4" fill="#009af9" fill-rule="evenodd" fill-opacity="1" stroke="none"/>
<circle clip-path="url(#clip042)" cx="1022.75" cy="864.559" r="14.4" fill="#009af9" fill-rule="evenodd" fill-opacity="1" stroke="none"/>
<circle clip-path="url(#clip042)" cx="1120.55" cy="838.735" r="14.4" fill="#009af9" fill-rule="evenodd" fill-opacity="1" stroke="none"/>
<circle clip-path="url(#clip042)" cx="1218.34" cy="825.824" r="14.4" fill="#009af9" fill-rule="evenodd" fill-opacity="1" stroke="none"/>
<circle clip-path="url(#clip042)" cx="1316.14" cy="825.824" r="14.4" fill="#009af9" fill-rule="evenodd" fill-opacity="1" stroke="none"/>
<circle clip-path="url(#clip042)" cx="1413.93" cy="783.215" r="14.4" fill="#009af9" fill-rule="evenodd" fill-opacity="1" stroke="none"/>
<circle clip-path="url(#clip042)" cx="1511.73" cy="774.176" r="14.4" fill="#009af9" fill-rule="evenodd" fill-opacity="1" stroke="none"/>
<circle clip-path="url(#clip042)" cx="1609.52" cy="767.721" r="14.4" fill="#009af9" fill-rule="evenodd" fill-opacity="1" stroke="none"/>
<circle clip-path="url(#clip042)" cx="1707.31" cy="748.353" r="14.4" fill="#009af9" fill-rule="evenodd" fill-opacity="1" stroke="none"/>
<circle clip-path="url(#clip042)" cx="1805.11" cy="735.441" r="14.4" fill="#009af9" fill-rule="evenodd" fill-opacity="1" stroke="none"/>
<circle clip-path="url(#clip042)" cx="1902.9" cy="696.706" r="14.4" fill="#009af9" fill-rule="evenodd" fill-opacity="1" stroke="none"/>
<circle clip-path="url(#clip042)" cx="2000.7" cy="670.882" r="14.4" fill="#009af9" fill-rule="evenodd" fill-opacity="1" stroke="none"/>
<circle clip-path="url(#clip042)" cx="2098.49" cy="619.235" r="14.4" fill="#009af9" fill-rule="evenodd" fill-opacity="1" stroke="none"/>
<circle clip-path="url(#clip042)" cx="2196.29" cy="477.206" r="14.4" fill="#009af9" fill-rule="evenodd" fill-opacity="1" stroke="none"/>
<circle clip-path="url(#clip042)" cx="2294.08" cy="399.735" r="14.4" fill="#009af9" fill-rule="evenodd" fill-opacity="1" stroke="none"/>
<path clip-path="url(#clip042)" d="M338.195 946.255 L435.989 946.255 L533.784 946.255 L631.578 946.255 L729.372 946.255 L827.166 946.255 L924.96 946.255 L1022.75 946.255 L1120.55 946.255 L1218.34 946.255 L1316.14 946.255 L1413.93 946.255 L1511.73 946.255 L1609.52 946.255 L1707.31 946.255 L1805.11 946.255 L1902.9 946.255 L2000.7 946.255 L2098.49 946.255 L2196.29 946.255 L2294.08 946.255 L2294.08 830.369 L2196.29 830.369 L2098.49 830.369 L2000.7 830.369 L1902.9 830.369 L1805.11 830.369 L1707.31 830.369 L1609.52 830.369 L1511.73 830.369 L1413.93 830.369 L1316.14 830.369 L1218.34 830.369 L1120.55 830.369 L1022.75 830.369 L924.96 830.369 L827.166 830.369 L729.372 830.369 L631.578 830.369 L533.784 830.369 L435.989 830.369 L338.195 830.369  Z" fill="#e26f46" fill-rule="evenodd" fill-opacity="0.6"/>
<polyline clip-path="url(#clip042)" style="stroke:#e26f46; stroke-linecap:round; stroke-linejoin:round; stroke-width:4; stroke-opacity:0; fill:none" points="338.195,946.255 435.989,946.255 533.784,946.255 631.578,946.255 729.372,946.255 827.166,946.255 924.96,946.255 1022.75,946.255 1120.55,946.255 1218.34,946.255 1316.14,946.255 1413.93,946.255 1511.73,946.255 1609.52,946.255 1707.31,946.255 1805.11,946.255 1902.9,946.255 2000.7,946.255 2098.49,946.255 2196.29,946.255 2294.08,946.255 "/>
<polyline clip-path="url(#clip042)" style="stroke:#000000; stroke-linecap:round; stroke-linejoin:round; stroke-width:4; stroke-opacity:1; fill:none" stroke-dasharray="2, 4" points="338.195,873.292 435.989,873.292 533.784,873.292 631.578,873.292 729.372,873.292 827.166,873.292 924.96,873.292 1022.75,873.292 1120.55,873.292 1218.34,873.292 1316.14,873.292 1413.93,873.292 1511.73,873.292 1609.52,873.292 1707.31,873.292 1805.11,873.292 1902.9,873.292 2000.7,873.292 2098.49,873.292 2196.29,873.292 2294.08,873.292 "/>
<path clip-path="url(#clip040)" d="M348.627 252.948 L1351.83 252.948 L1351.83 97.4278 L348.627 97.4278  Z" fill="#ffffff" fill-rule="evenodd" fill-opacity="1"/>
<polyline clip-path="url(#clip040)" style="stroke:#ffffff; stroke-linecap:round; stroke-linejoin:round; stroke-width:4; stroke-opacity:1; fill:none" points="348.627,252.948 1351.83,252.948 1351.83,97.4278 348.627,97.4278 348.627,252.948 "/>
<circle clip-path="url(#clip040)" cx="440.771" cy="149.268" r="20.48" fill="#009af9" fill-rule="evenodd" fill-opacity="1" stroke="none"/>
<path clip-path="url(#clip040)" d="M537.59 135.83 L537.59 162.705 L543.238 162.705 Q550.391 162.705 553.701 159.465 Q557.035 156.224 557.035 149.233 Q557.035 142.289 553.701 139.071 Q550.391 135.83 543.238 135.83 L537.59 135.83 M532.914 131.988 L542.521 131.988 Q552.567 131.988 557.266 136.178 Q561.965 140.344 561.965 149.233 Q561.965 158.168 557.243 162.358 Q552.521 166.548 542.521 166.548 L532.914 166.548 L532.914 131.988 Z" fill="#000000" fill-rule="nonzero" fill-opacity="1" /><path clip-path="url(#clip040)" d="M581.016 153.515 Q575.854 153.515 573.863 154.696 Q571.873 155.877 571.873 158.724 Q571.873 160.992 573.354 162.335 Q574.859 163.654 577.428 163.654 Q580.97 163.654 583.099 161.154 Q585.252 158.631 585.252 154.465 L585.252 153.515 L581.016 153.515 M589.511 151.756 L589.511 166.548 L585.252 166.548 L585.252 162.613 Q583.794 164.974 581.618 166.108 Q579.442 167.219 576.294 167.219 Q572.312 167.219 569.951 164.997 Q567.613 162.752 567.613 159.002 Q567.613 154.627 570.53 152.404 Q573.47 150.182 579.28 150.182 L585.252 150.182 L585.252 149.766 Q585.252 146.826 583.308 145.228 Q581.386 143.608 577.891 143.608 Q575.669 143.608 573.562 144.141 Q571.456 144.673 569.511 145.738 L569.511 141.803 Q571.849 140.9 574.048 140.46 Q576.247 139.997 578.331 139.997 Q583.956 139.997 586.734 142.914 Q589.511 145.83 589.511 151.756 Z" fill="#000000" fill-rule="nonzero" fill-opacity="1" /><path clip-path="url(#clip040)" d="M602.497 133.261 L602.497 140.622 L611.27 140.622 L611.27 143.932 L602.497 143.932 L602.497 158.006 Q602.497 161.177 603.354 162.08 Q604.233 162.983 606.895 162.983 L611.27 162.983 L611.27 166.548 L606.895 166.548 Q601.965 166.548 600.09 164.719 Q598.215 162.867 598.215 158.006 L598.215 143.932 L595.09 143.932 L595.09 140.622 L598.215 140.622 L598.215 133.261 L602.497 133.261 Z" fill="#000000" fill-rule="nonzero" fill-opacity="1" /><path clip-path="url(#clip040)" d="M628.655 153.515 Q623.493 153.515 621.502 154.696 Q619.511 155.877 619.511 158.724 Q619.511 160.992 620.993 162.335 Q622.497 163.654 625.067 163.654 Q628.608 163.654 630.738 161.154 Q632.891 158.631 632.891 154.465 L632.891 153.515 L628.655 153.515 M637.15 151.756 L637.15 166.548 L632.891 166.548 L632.891 162.613 Q631.432 164.974 629.256 166.108 Q627.081 167.219 623.932 167.219 Q619.951 167.219 617.59 164.997 Q615.252 162.752 615.252 159.002 Q615.252 154.627 618.169 152.404 Q621.108 150.182 626.919 150.182 L632.891 150.182 L632.891 149.766 Q632.891 146.826 630.946 145.228 Q629.025 143.608 625.53 143.608 Q623.307 143.608 621.201 144.141 Q619.094 144.673 617.15 145.738 L617.15 141.803 Q619.488 140.9 621.687 140.46 Q623.886 139.997 625.969 139.997 Q631.594 139.997 634.372 142.914 Q637.15 145.83 637.15 151.756 Z" fill="#000000" fill-rule="nonzero" fill-opacity="1" /><path clip-path="url(#clip040)" d="M671.224 130.576 Q668.122 135.9 666.617 141.108 Q665.113 146.316 665.113 151.664 Q665.113 157.011 666.617 162.265 Q668.145 167.497 671.224 172.798 L667.52 172.798 Q664.048 167.358 662.312 162.103 Q660.599 156.849 660.599 151.664 Q660.599 146.502 662.312 141.27 Q664.025 136.039 667.52 130.576 L671.224 130.576 Z" fill="#000000" fill-rule="nonzero" fill-opacity="1" /><path clip-path="url(#clip040)" d="M689.534 143.608 Q686.108 143.608 684.117 146.293 Q682.127 148.955 682.127 153.608 Q682.127 158.261 684.094 160.946 Q686.085 163.608 689.534 163.608 Q692.937 163.608 694.927 160.923 Q696.918 158.238 696.918 153.608 Q696.918 149.002 694.927 146.316 Q692.937 143.608 689.534 143.608 M689.534 139.997 Q695.089 139.997 698.261 143.608 Q701.432 147.219 701.432 153.608 Q701.432 159.974 698.261 163.608 Q695.089 167.219 689.534 167.219 Q683.955 167.219 680.784 163.608 Q677.636 159.974 677.636 153.608 Q677.636 147.219 680.784 143.608 Q683.955 139.997 689.534 139.997 Z" fill="#000000" fill-rule="nonzero" fill-opacity="1" /><path clip-path="url(#clip040)" d="M727.103 153.608 Q727.103 148.909 725.159 146.247 Q723.237 143.562 719.858 143.562 Q716.478 143.562 714.534 146.247 Q712.612 148.909 712.612 153.608 Q712.612 158.307 714.534 160.992 Q716.478 163.654 719.858 163.654 Q723.237 163.654 725.159 160.992 Q727.103 158.307 727.103 153.608 M712.612 144.557 Q713.955 142.242 715.992 141.131 Q718.052 139.997 720.899 139.997 Q725.622 139.997 728.561 143.747 Q731.524 147.497 731.524 153.608 Q731.524 159.719 728.561 163.469 Q725.622 167.219 720.899 167.219 Q718.052 167.219 715.992 166.108 Q713.955 164.974 712.612 162.659 L712.612 166.548 L708.33 166.548 L708.33 130.529 L712.612 130.529 L712.612 144.557 Z" fill="#000000" fill-rule="nonzero" fill-opacity="1" /><path clip-path="url(#clip040)" d="M755.112 141.386 L755.112 145.414 Q753.307 144.488 751.362 144.025 Q749.418 143.562 747.335 143.562 Q744.163 143.562 742.566 144.534 Q740.992 145.506 740.992 147.451 Q740.992 148.932 742.126 149.789 Q743.26 150.622 746.686 151.386 L748.145 151.71 Q752.682 152.682 754.58 154.465 Q756.501 156.224 756.501 159.395 Q756.501 163.006 753.631 165.113 Q750.784 167.219 745.784 167.219 Q743.7 167.219 741.432 166.802 Q739.186 166.409 736.686 165.599 L736.686 161.201 Q739.048 162.427 741.339 163.052 Q743.631 163.654 745.876 163.654 Q748.885 163.654 750.506 162.636 Q752.126 161.594 752.126 159.719 Q752.126 157.983 750.946 157.057 Q749.788 156.131 745.83 155.275 L744.348 154.928 Q740.39 154.094 738.631 152.381 Q736.872 150.645 736.872 147.636 Q736.872 143.978 739.464 141.988 Q742.057 139.997 746.825 139.997 Q749.186 139.997 751.27 140.344 Q753.353 140.691 755.112 141.386 Z" fill="#000000" fill-rule="nonzero" fill-opacity="1" /><path clip-path="url(#clip040)" d="M785.459 152.52 L785.459 154.603 L765.876 154.603 Q766.154 159.002 768.515 161.316 Q770.899 163.608 775.135 163.608 Q777.589 163.608 779.881 163.006 Q782.195 162.404 784.464 161.201 L784.464 165.228 Q782.172 166.201 779.765 166.71 Q777.358 167.219 774.881 167.219 Q768.677 167.219 765.043 163.608 Q761.432 159.997 761.432 153.84 Q761.432 147.474 764.858 143.747 Q768.307 139.997 774.14 139.997 Q779.371 139.997 782.404 143.377 Q785.459 146.733 785.459 152.52 M781.2 151.27 Q781.154 147.775 779.233 145.691 Q777.334 143.608 774.186 143.608 Q770.621 143.608 768.469 145.622 Q766.339 147.636 766.015 151.293 L781.2 151.27 Z" fill="#000000" fill-rule="nonzero" fill-opacity="1" /><path clip-path="url(#clip040)" d="M807.473 144.603 Q806.756 144.187 805.899 144.002 Q805.066 143.793 804.047 143.793 Q800.436 143.793 798.492 146.154 Q796.57 148.492 796.57 152.89 L796.57 166.548 L792.288 166.548 L792.288 140.622 L796.57 140.622 L796.57 144.65 Q797.913 142.289 800.066 141.154 Q802.218 139.997 805.297 139.997 Q805.737 139.997 806.269 140.066 Q806.802 140.113 807.45 140.229 L807.473 144.603 Z" fill="#000000" fill-rule="nonzero" fill-opacity="1" /><path clip-path="url(#clip040)" d="M808.885 140.622 L813.399 140.622 L821.501 162.381 L829.603 140.622 L834.116 140.622 L824.394 166.548 L818.607 166.548 L808.885 140.622 Z" fill="#000000" fill-rule="nonzero" fill-opacity="1" /><path clip-path="url(#clip040)" d="M862.172 152.52 L862.172 154.603 L842.589 154.603 Q842.866 159.002 845.228 161.316 Q847.612 163.608 851.848 163.608 Q854.302 163.608 856.593 163.006 Q858.908 162.404 861.177 161.201 L861.177 165.228 Q858.885 166.201 856.477 166.71 Q854.07 167.219 851.593 167.219 Q845.39 167.219 841.755 163.608 Q838.144 159.997 838.144 153.84 Q838.144 147.474 841.57 143.747 Q845.019 139.997 850.852 139.997 Q856.084 139.997 859.116 143.377 Q862.172 146.733 862.172 152.52 M857.913 151.27 Q857.866 147.775 855.945 145.691 Q854.047 143.608 850.899 143.608 Q847.334 143.608 845.181 145.622 Q843.052 147.636 842.728 151.293 L857.913 151.27 Z" fill="#000000" fill-rule="nonzero" fill-opacity="1" /><path clip-path="url(#clip040)" d="M886.223 144.557 L886.223 130.529 L890.482 130.529 L890.482 166.548 L886.223 166.548 L886.223 162.659 Q884.88 164.974 882.82 166.108 Q880.783 167.219 877.913 167.219 Q873.213 167.219 870.251 163.469 Q867.311 159.719 867.311 153.608 Q867.311 147.497 870.251 143.747 Q873.213 139.997 877.913 139.997 Q880.783 139.997 882.82 141.131 Q884.88 142.242 886.223 144.557 M871.709 153.608 Q871.709 158.307 873.63 160.992 Q875.575 163.654 878.954 163.654 Q882.334 163.654 884.278 160.992 Q886.223 158.307 886.223 153.608 Q886.223 148.909 884.278 146.247 Q882.334 143.562 878.954 143.562 Q875.575 143.562 873.63 146.247 Q871.709 148.909 871.709 153.608 Z" fill="#000000" fill-rule="nonzero" fill-opacity="1" /><path clip-path="url(#clip040)" d="M926.107 153.515 Q920.945 153.515 918.954 154.696 Q916.963 155.877 916.963 158.724 Q916.963 160.992 918.445 162.335 Q919.949 163.654 922.519 163.654 Q926.06 163.654 928.19 161.154 Q930.343 158.631 930.343 154.465 L930.343 153.515 L926.107 153.515 M934.602 151.756 L934.602 166.548 L930.343 166.548 L930.343 162.613 Q928.884 164.974 926.709 166.108 Q924.533 167.219 921.385 167.219 Q917.403 167.219 915.042 164.997 Q912.704 162.752 912.704 159.002 Q912.704 154.627 915.621 152.404 Q918.56 150.182 924.371 150.182 L930.343 150.182 L930.343 149.766 Q930.343 146.826 928.398 145.228 Q926.477 143.608 922.982 143.608 Q920.76 143.608 918.653 144.141 Q916.547 144.673 914.602 145.738 L914.602 141.803 Q916.94 140.9 919.139 140.46 Q921.338 139.997 923.422 139.997 Q929.047 139.997 931.824 142.914 Q934.602 145.83 934.602 151.756 Z" fill="#000000" fill-rule="nonzero" fill-opacity="1" /><path clip-path="url(#clip040)" d="M960.435 153.284 Q960.435 148.654 958.514 146.108 Q956.616 143.562 953.167 143.562 Q949.741 143.562 947.82 146.108 Q945.921 148.654 945.921 153.284 Q945.921 157.89 947.82 160.437 Q949.741 162.983 953.167 162.983 Q956.616 162.983 958.514 160.437 Q960.435 157.89 960.435 153.284 M964.694 163.33 Q964.694 169.951 961.755 173.168 Q958.815 176.409 952.75 176.409 Q950.505 176.409 948.514 176.062 Q946.523 175.738 944.648 175.043 L944.648 170.9 Q946.523 171.918 948.352 172.404 Q950.181 172.89 952.079 172.89 Q956.269 172.89 958.352 170.691 Q960.435 168.515 960.435 164.094 L960.435 161.988 Q959.116 164.279 957.056 165.414 Q954.995 166.548 952.125 166.548 Q947.357 166.548 944.44 162.914 Q941.523 159.279 941.523 153.284 Q941.523 147.266 944.44 143.631 Q947.357 139.997 952.125 139.997 Q954.995 139.997 957.056 141.131 Q959.116 142.266 960.435 144.557 L960.435 140.622 L964.694 140.622 L964.694 163.33 Z" fill="#000000" fill-rule="nonzero" fill-opacity="1" /><path clip-path="url(#clip040)" d="M995.643 152.52 L995.643 154.603 L976.06 154.603 Q976.338 159.002 978.699 161.316 Q981.083 163.608 985.319 163.608 Q987.773 163.608 990.065 163.006 Q992.38 162.404 994.648 161.201 L994.648 165.228 Q992.356 166.201 989.949 166.71 Q987.542 167.219 985.065 167.219 Q978.861 167.219 975.227 163.608 Q971.616 159.997 971.616 153.84 Q971.616 147.474 975.042 143.747 Q978.491 139.997 984.324 139.997 Q989.555 139.997 992.588 143.377 Q995.643 146.733 995.643 152.52 M991.384 151.27 Q991.338 147.775 989.417 145.691 Q987.518 143.608 984.37 143.608 Q980.805 143.608 978.653 145.622 Q976.523 147.636 976.199 151.293 L991.384 151.27 Z" fill="#000000" fill-rule="nonzero" fill-opacity="1" /><path clip-path="url(#clip040)" d="M1019.16 141.386 L1019.16 145.414 Q1017.36 144.488 1015.41 144.025 Q1013.47 143.562 1011.38 143.562 Q1008.21 143.562 1006.62 144.534 Q1005.04 145.506 1005.04 147.451 Q1005.04 148.932 1006.18 149.789 Q1007.31 150.622 1010.74 151.386 L1012.19 151.71 Q1016.73 152.682 1018.63 154.465 Q1020.55 156.224 1020.55 159.395 Q1020.55 163.006 1017.68 165.113 Q1014.83 167.219 1009.83 167.219 Q1007.75 167.219 1005.48 166.802 Q1003.24 166.409 1000.74 165.599 L1000.74 161.201 Q1003.1 162.427 1005.39 163.052 Q1007.68 163.654 1009.93 163.654 Q1012.93 163.654 1014.56 162.636 Q1016.18 161.594 1016.18 159.719 Q1016.18 157.983 1015 157.057 Q1013.84 156.131 1009.88 155.275 L1008.4 154.928 Q1004.44 154.094 1002.68 152.381 Q1000.92 150.645 1000.92 147.636 Q1000.92 143.978 1003.51 141.988 Q1006.11 139.997 1010.87 139.997 Q1013.24 139.997 1015.32 140.344 Q1017.4 140.691 1019.16 141.386 Z" fill="#000000" fill-rule="nonzero" fill-opacity="1" /><path clip-path="url(#clip040)" d="M1026.66 130.576 L1030.37 130.576 Q1033.84 136.039 1035.55 141.27 Q1037.29 146.502 1037.29 151.664 Q1037.29 156.849 1035.55 162.103 Q1033.84 167.358 1030.37 172.798 L1026.66 172.798 Q1029.74 167.497 1031.25 162.265 Q1032.77 157.011 1032.77 151.664 Q1032.77 146.316 1031.25 141.108 Q1029.74 135.9 1026.66 130.576 Z" fill="#000000" fill-rule="nonzero" fill-opacity="1" /><path clip-path="url(#clip040)" d="M371.663 221.844 L509.878 221.844 L509.878 180.372 L371.663 180.372 L371.663 221.844  Z" fill="#e26f46" fill-rule="evenodd" fill-opacity="0.6"/>
<polyline clip-path="url(#clip040)" style="stroke:#e26f46; stroke-linecap:round; stroke-linejoin:round; stroke-width:4; stroke-opacity:0; fill:none" points="371.663,180.372 509.878,180.372 "/>
<path clip-path="url(#clip040)" d="M532.914 183.828 L539.882 183.828 L548.701 207.346 L557.567 183.828 L564.535 183.828 L564.535 218.388 L559.974 218.388 L559.974 188.041 L551.062 211.744 L546.363 211.744 L537.451 188.041 L537.451 218.388 L532.914 218.388 L532.914 183.828 Z" fill="#000000" fill-rule="nonzero" fill-opacity="1" /><path clip-path="url(#clip040)" d="M583.678 195.448 Q580.252 195.448 578.261 198.133 Q576.271 200.795 576.271 205.448 Q576.271 210.101 578.238 212.786 Q580.229 215.448 583.678 215.448 Q587.081 215.448 589.071 212.763 Q591.062 210.078 591.062 205.448 Q591.062 200.842 589.071 198.156 Q587.081 195.448 583.678 195.448 M583.678 191.837 Q589.234 191.837 592.405 195.448 Q595.576 199.059 595.576 205.448 Q595.576 211.814 592.405 215.448 Q589.234 219.059 583.678 219.059 Q578.099 219.059 574.928 215.448 Q571.78 211.814 571.78 205.448 Q571.78 199.059 574.928 195.448 Q578.099 191.837 583.678 191.837 Z" fill="#000000" fill-rule="nonzero" fill-opacity="1" /><path clip-path="url(#clip040)" d="M619.696 196.397 L619.696 182.369 L623.956 182.369 L623.956 218.388 L619.696 218.388 L619.696 214.499 Q618.354 216.814 616.294 217.948 Q614.257 219.059 611.386 219.059 Q606.687 219.059 603.724 215.309 Q600.784 211.559 600.784 205.448 Q600.784 199.337 603.724 195.587 Q606.687 191.837 611.386 191.837 Q614.257 191.837 616.294 192.971 Q618.354 194.082 619.696 196.397 M605.183 205.448 Q605.183 210.147 607.104 212.832 Q609.048 215.494 612.428 215.494 Q615.807 215.494 617.752 212.832 Q619.696 210.147 619.696 205.448 Q619.696 200.749 617.752 198.087 Q615.807 195.402 612.428 195.402 Q609.048 195.402 607.104 198.087 Q605.183 200.749 605.183 205.448 Z" fill="#000000" fill-rule="nonzero" fill-opacity="1" /><path clip-path="url(#clip040)" d="M654.904 204.36 L654.904 206.443 L635.321 206.443 Q635.599 210.842 637.96 213.156 Q640.344 215.448 644.58 215.448 Q647.034 215.448 649.326 214.846 Q651.641 214.244 653.909 213.041 L653.909 217.068 Q651.617 218.041 649.21 218.55 Q646.803 219.059 644.326 219.059 Q638.122 219.059 634.488 215.448 Q630.877 211.837 630.877 205.68 Q630.877 199.314 634.303 195.587 Q637.752 191.837 643.585 191.837 Q648.817 191.837 651.849 195.217 Q654.904 198.573 654.904 204.36 M650.645 203.11 Q650.599 199.615 648.678 197.531 Q646.78 195.448 643.631 195.448 Q640.067 195.448 637.914 197.462 Q635.784 199.476 635.46 203.133 L650.645 203.11 Z" fill="#000000" fill-rule="nonzero" fill-opacity="1" /><path clip-path="url(#clip040)" d="M661.895 182.369 L666.154 182.369 L666.154 218.388 L661.895 218.388 L661.895 182.369 Z" fill="#000000" fill-rule="nonzero" fill-opacity="1" /><path clip-path="url(#clip040)" d="M700.367 182.416 Q697.265 187.74 695.761 192.948 Q694.256 198.156 694.256 203.504 Q694.256 208.851 695.761 214.105 Q697.288 219.337 700.367 224.638 L696.664 224.638 Q693.191 219.198 691.455 213.943 Q689.742 208.689 689.742 203.504 Q689.742 198.342 691.455 193.11 Q693.168 187.879 696.664 182.416 L700.367 182.416 Z" fill="#000000" fill-rule="nonzero" fill-opacity="1" /><path clip-path="url(#clip040)" d="M719.812 199.244 Q716.663 199.244 714.812 201.397 Q712.983 203.55 712.983 207.3 Q712.983 211.027 714.812 213.203 Q716.663 215.355 719.812 215.355 Q722.96 215.355 724.788 213.203 Q726.64 211.027 726.64 207.3 Q726.64 203.55 724.788 201.397 Q722.96 199.244 719.812 199.244 M729.094 184.592 L729.094 188.851 Q727.335 188.018 725.529 187.578 Q723.747 187.138 721.987 187.138 Q717.358 187.138 714.904 190.263 Q712.474 193.388 712.126 199.707 Q713.492 197.693 715.552 196.629 Q717.612 195.541 720.089 195.541 Q725.298 195.541 728.307 198.712 Q731.339 201.86 731.339 207.3 Q731.339 212.624 728.191 215.842 Q725.043 219.059 719.812 219.059 Q713.816 219.059 710.645 214.476 Q707.474 209.869 707.474 201.143 Q707.474 192.948 711.362 188.087 Q715.251 183.203 721.802 183.203 Q723.562 183.203 725.344 183.55 Q727.149 183.897 729.094 184.592 Z" fill="#000000" fill-rule="nonzero" fill-opacity="1" /><path clip-path="url(#clip040)" d="M739.441 183.828 L757.797 183.828 L757.797 187.763 L743.723 187.763 L743.723 196.235 Q744.742 195.888 745.76 195.726 Q746.779 195.541 747.797 195.541 Q753.584 195.541 756.964 198.712 Q760.344 201.883 760.344 207.3 Q760.344 212.879 756.872 215.98 Q753.399 219.059 747.08 219.059 Q744.904 219.059 742.635 218.689 Q740.39 218.318 737.983 217.578 L737.983 212.879 Q740.066 214.013 742.288 214.568 Q744.51 215.124 746.987 215.124 Q750.992 215.124 753.33 213.017 Q755.668 210.911 755.668 207.3 Q755.668 203.689 753.33 201.582 Q750.992 199.476 746.987 199.476 Q745.112 199.476 743.237 199.893 Q741.385 200.309 739.441 201.189 L739.441 183.828 Z" fill="#000000" fill-rule="nonzero" fill-opacity="1" /><path clip-path="url(#clip040)" d="M769.557 212.508 L774.441 212.508 L774.441 218.388 L769.557 218.388 L769.557 212.508 Z" fill="#000000" fill-rule="nonzero" fill-opacity="1" /><path clip-path="url(#clip040)" d="M784.765 217.67 L784.765 213.411 Q786.524 214.244 788.33 214.684 Q790.135 215.124 791.871 215.124 Q796.501 215.124 798.931 212.022 Q801.385 208.897 801.732 202.555 Q800.39 204.545 798.33 205.61 Q796.269 206.675 793.769 206.675 Q788.584 206.675 785.552 203.55 Q782.543 200.402 782.543 194.962 Q782.543 189.638 785.691 186.42 Q788.839 183.203 794.07 183.203 Q800.066 183.203 803.214 187.809 Q806.385 192.393 806.385 201.143 Q806.385 209.314 802.496 214.198 Q798.631 219.059 792.08 219.059 Q790.32 219.059 788.515 218.712 Q786.709 218.365 784.765 217.67 M794.07 203.018 Q797.219 203.018 799.047 200.865 Q800.899 198.712 800.899 194.962 Q800.899 191.235 799.047 189.082 Q797.219 186.907 794.07 186.907 Q790.922 186.907 789.07 189.082 Q787.242 191.235 787.242 194.962 Q787.242 198.712 789.07 200.865 Q790.922 203.018 794.07 203.018 Z" fill="#000000" fill-rule="nonzero" fill-opacity="1" /><path clip-path="url(#clip040)" d="M824.788 201.976 Q821.455 201.976 819.533 203.758 Q817.635 205.541 817.635 208.666 Q817.635 211.791 819.533 213.573 Q821.455 215.355 824.788 215.355 Q828.121 215.355 830.042 213.573 Q831.964 211.767 831.964 208.666 Q831.964 205.541 830.042 203.758 Q828.144 201.976 824.788 201.976 M820.112 199.985 Q817.103 199.244 815.413 197.184 Q813.746 195.124 813.746 192.161 Q813.746 188.018 816.686 185.61 Q819.649 183.203 824.788 183.203 Q829.95 183.203 832.89 185.61 Q835.829 188.018 835.829 192.161 Q835.829 195.124 834.14 197.184 Q832.473 199.244 829.487 199.985 Q832.866 200.772 834.741 203.064 Q836.64 205.355 836.64 208.666 Q836.64 213.689 833.561 216.374 Q830.505 219.059 824.788 219.059 Q819.07 219.059 815.992 216.374 Q812.936 213.689 812.936 208.666 Q812.936 205.355 814.834 203.064 Q816.732 200.772 820.112 199.985 M818.399 192.601 Q818.399 195.286 820.066 196.791 Q821.755 198.295 824.788 198.295 Q827.797 198.295 829.487 196.791 Q831.2 195.286 831.2 192.601 Q831.2 189.916 829.487 188.411 Q827.797 186.907 824.788 186.907 Q821.755 186.907 820.066 188.411 Q818.399 189.916 818.399 192.601 Z" fill="#000000" fill-rule="nonzero" fill-opacity="1" /><path clip-path="url(#clip040)" d="M859.116 199.754 Q862.473 200.471 864.348 202.74 Q866.246 205.008 866.246 208.342 Q866.246 213.457 862.727 216.258 Q859.209 219.059 852.727 219.059 Q850.552 219.059 848.237 218.619 Q845.945 218.203 843.491 217.346 L843.491 212.832 Q845.436 213.967 847.751 214.545 Q850.065 215.124 852.589 215.124 Q856.987 215.124 859.278 213.388 Q861.593 211.652 861.593 208.342 Q861.593 205.286 859.44 203.573 Q857.311 201.837 853.491 201.837 L849.464 201.837 L849.464 197.994 L853.677 197.994 Q857.126 197.994 858.954 196.629 Q860.783 195.24 860.783 192.647 Q860.783 189.985 858.885 188.573 Q857.01 187.138 853.491 187.138 Q851.57 187.138 849.371 187.555 Q847.172 187.971 844.533 188.851 L844.533 184.684 Q847.195 183.944 849.51 183.573 Q851.848 183.203 853.908 183.203 Q859.232 183.203 862.334 185.633 Q865.436 188.041 865.436 192.161 Q865.436 195.031 863.792 197.022 Q862.149 198.99 859.116 199.754 Z" fill="#000000" fill-rule="nonzero" fill-opacity="1" /><path clip-path="url(#clip040)" d="M906.917 188.666 L906.917 201.559 L919.81 201.559 L919.81 205.494 L906.917 205.494 L906.917 218.388 L903.028 218.388 L903.028 205.494 L890.135 205.494 L890.135 201.559 L903.028 201.559 L903.028 188.666 L906.917 188.666 Z" fill="#000000" fill-rule="nonzero" fill-opacity="1" /><path clip-path="url(#clip040)" d="M939.903 186.907 Q936.292 186.907 934.463 190.471 Q932.658 194.013 932.658 201.143 Q932.658 208.249 934.463 211.814 Q936.292 215.355 939.903 215.355 Q943.537 215.355 945.343 211.814 Q947.171 208.249 947.171 201.143 Q947.171 194.013 945.343 190.471 Q943.537 186.907 939.903 186.907 M939.903 183.203 Q945.713 183.203 948.769 187.809 Q951.847 192.393 951.847 201.143 Q951.847 209.869 948.769 214.476 Q945.713 219.059 939.903 219.059 Q934.093 219.059 931.014 214.476 Q927.959 209.869 927.959 201.143 Q927.959 192.393 931.014 187.809 Q934.093 183.203 939.903 183.203 Z" fill="#000000" fill-rule="nonzero" fill-opacity="1" /><path clip-path="url(#clip040)" d="M960.065 212.508 L964.949 212.508 L964.949 218.388 L960.065 218.388 L960.065 212.508 Z" fill="#000000" fill-rule="nonzero" fill-opacity="1" /><path clip-path="url(#clip040)" d="M985.134 186.907 Q981.523 186.907 979.694 190.471 Q977.889 194.013 977.889 201.143 Q977.889 208.249 979.694 211.814 Q981.523 215.355 985.134 215.355 Q988.768 215.355 990.574 211.814 Q992.403 208.249 992.403 201.143 Q992.403 194.013 990.574 190.471 Q988.768 186.907 985.134 186.907 M985.134 183.203 Q990.944 183.203 994 187.809 Q997.079 192.393 997.079 201.143 Q997.079 209.869 994 214.476 Q990.944 219.059 985.134 219.059 Q979.324 219.059 976.245 214.476 Q973.19 209.869 973.19 201.143 Q973.19 192.393 976.245 187.809 Q979.324 183.203 985.134 183.203 Z" fill="#000000" fill-rule="nonzero" fill-opacity="1" /><path clip-path="url(#clip040)" d="M1019.46 199.754 Q1022.82 200.471 1024.69 202.74 Q1026.59 205.008 1026.59 208.342 Q1026.59 213.457 1023.07 216.258 Q1019.56 219.059 1013.07 219.059 Q1010.9 219.059 1008.58 218.619 Q1006.29 218.203 1003.84 217.346 L1003.84 212.832 Q1005.78 213.967 1008.1 214.545 Q1010.41 215.124 1012.93 215.124 Q1017.33 215.124 1019.62 213.388 Q1021.94 211.652 1021.94 208.342 Q1021.94 205.286 1019.79 203.573 Q1017.66 201.837 1013.84 201.837 L1009.81 201.837 L1009.81 197.994 L1014.02 197.994 Q1017.47 197.994 1019.3 196.629 Q1021.13 195.24 1021.13 192.647 Q1021.13 189.985 1019.23 188.573 Q1017.36 187.138 1013.84 187.138 Q1011.92 187.138 1009.72 187.555 Q1007.52 187.971 1004.88 188.851 L1004.88 184.684 Q1007.54 183.944 1009.86 183.573 Q1012.19 183.203 1014.25 183.203 Q1019.58 183.203 1022.68 185.633 Q1025.78 188.041 1025.78 192.161 Q1025.78 195.031 1024.14 197.022 Q1022.5 198.99 1019.46 199.754 Z" fill="#000000" fill-rule="nonzero" fill-opacity="1" /><path clip-path="url(#clip040)" d="M1049.62 199.754 Q1052.98 200.471 1054.86 202.74 Q1056.75 205.008 1056.75 208.342 Q1056.75 213.457 1053.24 216.258 Q1049.72 219.059 1043.24 219.059 Q1041.06 219.059 1038.75 218.619 Q1036.45 218.203 1034 217.346 L1034 212.832 Q1035.94 213.967 1038.26 214.545 Q1040.57 215.124 1043.1 215.124 Q1047.49 215.124 1049.79 213.388 Q1052.1 211.652 1052.1 208.342 Q1052.1 205.286 1049.95 203.573 Q1047.82 201.837 1044 201.837 L1039.97 201.837 L1039.97 197.994 L1044.18 197.994 Q1047.63 197.994 1049.46 196.629 Q1051.29 195.24 1051.29 192.647 Q1051.29 189.985 1049.39 188.573 Q1047.52 187.138 1044 187.138 Q1042.08 187.138 1039.88 187.555 Q1037.68 187.971 1035.04 188.851 L1035.04 184.684 Q1037.7 183.944 1040.02 183.573 Q1042.36 183.203 1044.42 183.203 Q1049.74 183.203 1052.84 185.633 Q1055.94 188.041 1055.94 192.161 Q1055.94 195.031 1054.3 197.022 Q1052.66 198.99 1049.62 199.754 Z" fill="#000000" fill-rule="nonzero" fill-opacity="1" /><path clip-path="url(#clip040)" d="M1072.59 183.828 L1076.52 183.828 L1064.49 222.786 L1060.55 222.786 L1072.59 183.828 Z" fill="#000000" fill-rule="nonzero" fill-opacity="1" /><path clip-path="url(#clip040)" d="M1078.84 203.504 L1091.31 203.504 L1091.31 207.3 L1078.84 207.3 L1078.84 203.504 Z" fill="#000000" fill-rule="nonzero" fill-opacity="1" /><path clip-path="url(#clip040)" d="M1108.7 186.907 Q1105.09 186.907 1103.26 190.471 Q1101.45 194.013 1101.45 201.143 Q1101.45 208.249 1103.26 211.814 Q1105.09 215.355 1108.7 215.355 Q1112.33 215.355 1114.14 211.814 Q1115.97 208.249 1115.97 201.143 Q1115.97 194.013 1114.14 190.471 Q1112.33 186.907 1108.7 186.907 M1108.7 183.203 Q1114.51 183.203 1117.56 187.809 Q1120.64 192.393 1120.64 201.143 Q1120.64 209.869 1117.56 214.476 Q1114.51 219.059 1108.7 219.059 Q1102.89 219.059 1099.81 214.476 Q1096.75 209.869 1096.75 201.143 Q1096.75 192.393 1099.81 187.809 Q1102.89 183.203 1108.7 183.203 Z" fill="#000000" fill-rule="nonzero" fill-opacity="1" /><path clip-path="url(#clip040)" d="M1128.86 212.508 L1133.74 212.508 L1133.74 218.388 L1128.86 218.388 L1128.86 212.508 Z" fill="#000000" fill-rule="nonzero" fill-opacity="1" /><path clip-path="url(#clip040)" d="M1153.93 186.907 Q1150.32 186.907 1148.49 190.471 Q1146.68 194.013 1146.68 201.143 Q1146.68 208.249 1148.49 211.814 Q1150.32 215.355 1153.93 215.355 Q1157.56 215.355 1159.37 211.814 Q1161.2 208.249 1161.2 201.143 Q1161.2 194.013 1159.37 190.471 Q1157.56 186.907 1153.93 186.907 M1153.93 183.203 Q1159.74 183.203 1162.8 187.809 Q1165.87 192.393 1165.87 201.143 Q1165.87 209.869 1162.8 214.476 Q1159.74 219.059 1153.93 219.059 Q1148.12 219.059 1145.04 214.476 Q1141.99 209.869 1141.99 201.143 Q1141.99 192.393 1145.04 187.809 Q1148.12 183.203 1153.93 183.203 Z" fill="#000000" fill-rule="nonzero" fill-opacity="1" /><path clip-path="url(#clip040)" d="M1174.14 183.828 L1192.49 183.828 L1192.49 187.763 L1178.42 187.763 L1178.42 196.235 Q1179.44 195.888 1180.46 195.726 Q1181.48 195.541 1182.49 195.541 Q1188.28 195.541 1191.66 198.712 Q1195.04 201.883 1195.04 207.3 Q1195.04 212.879 1191.57 215.98 Q1188.1 219.059 1181.78 219.059 Q1179.6 219.059 1177.33 218.689 Q1175.09 218.318 1172.68 217.578 L1172.68 212.879 Q1174.76 214.013 1176.99 214.568 Q1179.21 215.124 1181.68 215.124 Q1185.69 215.124 1188.03 213.017 Q1190.36 210.911 1190.36 207.3 Q1190.36 203.689 1188.03 201.582 Q1185.69 199.476 1181.68 199.476 Q1179.81 199.476 1177.93 199.893 Q1176.08 200.309 1174.14 201.189 L1174.14 183.828 Z" fill="#000000" fill-rule="nonzero" fill-opacity="1" /><path clip-path="url(#clip040)" d="M1203.07 183.828 L1225.29 183.828 L1225.29 185.819 L1212.75 218.388 L1207.86 218.388 L1219.67 187.763 L1203.07 187.763 L1203.07 183.828 Z" fill="#000000" fill-rule="nonzero" fill-opacity="1" /><path clip-path="url(#clip040)" d="M1249.07 183.828 L1256.04 183.828 L1264.85 207.346 L1273.72 183.828 L1280.69 183.828 L1280.69 218.388 L1276.13 218.388 L1276.13 188.041 L1267.22 211.744 L1262.52 211.744 L1253.6 188.041 L1253.6 218.388 L1249.07 218.388 L1249.07 183.828 Z" fill="#000000" fill-rule="nonzero" fill-opacity="1" /><path clip-path="url(#clip040)" d="M1301.57 205.355 Q1296.41 205.355 1294.41 206.536 Q1292.42 207.717 1292.42 210.564 Q1292.42 212.832 1293.91 214.175 Q1295.41 215.494 1297.98 215.494 Q1301.52 215.494 1303.65 212.994 Q1305.8 210.471 1305.8 206.305 L1305.8 205.355 L1301.57 205.355 M1310.06 203.596 L1310.06 218.388 L1305.8 218.388 L1305.8 214.453 Q1304.35 216.814 1302.17 217.948 Q1299.99 219.059 1296.85 219.059 Q1292.86 219.059 1290.5 216.837 Q1288.16 214.592 1288.16 210.842 Q1288.16 206.467 1291.08 204.244 Q1294.02 202.022 1299.83 202.022 L1305.8 202.022 L1305.8 201.606 Q1305.8 198.666 1303.86 197.068 Q1301.94 195.448 1298.44 195.448 Q1296.22 195.448 1294.11 195.981 Q1292.01 196.513 1290.06 197.578 L1290.06 193.643 Q1292.4 192.74 1294.6 192.3 Q1296.8 191.837 1298.88 191.837 Q1304.51 191.837 1307.29 194.754 Q1310.06 197.67 1310.06 203.596 Z" fill="#000000" fill-rule="nonzero" fill-opacity="1" /><path clip-path="url(#clip040)" d="M1318.16 182.416 L1321.87 182.416 Q1325.34 187.879 1327.05 193.11 Q1328.79 198.342 1328.79 203.504 Q1328.79 208.689 1327.05 213.943 Q1325.34 219.198 1321.87 224.638 L1318.16 224.638 Q1321.24 219.337 1322.75 214.105 Q1324.28 208.851 1324.28 203.504 Q1324.28 198.156 1322.75 192.948 Q1321.24 187.74 1318.16 182.416 Z" fill="#000000" fill-rule="nonzero" fill-opacity="1" /></svg>
