<?xml version="1.0" encoding="utf-8"?>
<svg xmlns="http://www.w3.org/2000/svg" xmlns:xlink="http://www.w3.org/1999/xlink" width="600" height="400" viewBox="0 0 2400 1600">
<defs>
  <clipPath id="clip080">
    <rect x="0" y="0" width="2400" height="1600"/>
  </clipPath>
</defs>
<path clip-path="url(#clip080)" d="M0 1600 L2400 1600 L2400 8.88178e-14 L0 8.88178e-14  Z" fill="#ffffff" fill-rule="evenodd" fill-opacity="1"/>
<defs>
  <clipPath id="clip081">
    <rect x="480" y="0" width="1681" height="1600"/>
  </clipPath>
</defs>
<path clip-path="url(#clip080)" d="M203.964 1423.18 L2352.76 1423.18 L2352.76 47.2441 L203.964 47.2441  Z" fill="#ffffff" fill-rule="evenodd" fill-opacity="1"/>
<defs>
  <clipPath id="clip082">
    <rect x="203" y="47" width="2150" height="1377"/>
  </clipPath>
</defs>
<polyline clip-path="url(#clip082)" style="stroke:#000000; stroke-linecap:round; stroke-linejoin:round; stroke-width:2; stroke-opacity:0.1; fill:none" points="591.396,1423.18 591.396,47.2441 "/>
<polyline clip-path="url(#clip082)" style="stroke:#000000; stroke-linecap:round; stroke-linejoin:round; stroke-width:2; stroke-opacity:0.1; fill:none" points="1002.27,1423.18 1002.27,47.2441 "/>
<polyline clip-path="url(#clip082)" style="stroke:#000000; stroke-linecap:round; stroke-linejoin:round; stroke-width:2; stroke-opacity:0.1; fill:none" points="1413.13,1423.18 1413.13,47.2441 "/>
<polyline clip-path="url(#clip082)" style="stroke:#000000; stroke-linecap:round; stroke-linejoin:round; stroke-width:2; stroke-opacity:0.1; fill:none" points="1824,1423.18 1824,47.2441 "/>
<polyline clip-path="url(#clip082)" style="stroke:#000000; stroke-linecap:round; stroke-linejoin:round; stroke-width:2; stroke-opacity:0.1; fill:none" points="2234.87,1423.18 2234.87,47.2441 "/>
<polyline clip-path="url(#clip082)" style="stroke:#000000; stroke-linecap:round; stroke-linejoin:round; stroke-width:2; stroke-opacity:0.1; fill:none" points="591.396,1423.18 591.396,47.2441 "/>
<polyline clip-path="url(#clip082)" style="stroke:#000000; stroke-linecap:round; stroke-linejoin:round; stroke-width:2; stroke-opacity:0.1; fill:none" points="1002.27,1423.18 1002.27,47.2441 "/>
<polyline clip-path="url(#clip082)" style="stroke:#000000; stroke-linecap:round; stroke-linejoin:round; stroke-width:2; stroke-opacity:0.1; fill:none" points="1413.13,1423.18 1413.13,47.2441 "/>
<polyline clip-path="url(#clip082)" style="stroke:#000000; stroke-linecap:round; stroke-linejoin:round; stroke-width:2; stroke-opacity:0.1; fill:none" points="1824,1423.18 1824,47.2441 "/>
<polyline clip-path="url(#clip082)" style="stroke:#000000; stroke-linecap:round; stroke-linejoin:round; stroke-width:2; stroke-opacity:0.1; fill:none" points="2234.87,1423.18 2234.87,47.2441 "/>
<polyline clip-path="url(#clip082)" style="stroke:#000000; stroke-linecap:round; stroke-linejoin:round; stroke-width:2; stroke-opacity:0.1; fill:none" points="203.964,1384.24 2352.76,1384.24 "/>
<polyline clip-path="url(#clip082)" style="stroke:#000000; stroke-linecap:round; stroke-linejoin:round; stroke-width:2; stroke-opacity:0.1; fill:none" points="203.964,1105.39 2352.76,1105.39 "/>
<polyline clip-path="url(#clip082)" style="stroke:#000000; stroke-linecap:round; stroke-linejoin:round; stroke-width:2; stroke-opacity:0.1; fill:none" points="203.964,826.529 2352.76,826.529 "/>
<polyline clip-path="url(#clip082)" style="stroke:#000000; stroke-linecap:round; stroke-linejoin:round; stroke-width:2; stroke-opacity:0.1; fill:none" points="203.964,547.672 2352.76,547.672 "/>
<polyline clip-path="url(#clip082)" style="stroke:#000000; stroke-linecap:round; stroke-linejoin:round; stroke-width:2; stroke-opacity:0.1; fill:none" points="203.964,268.815 2352.76,268.815 "/>
<polyline clip-path="url(#clip082)" style="stroke:#000000; stroke-linecap:round; stroke-linejoin:round; stroke-width:2; stroke-opacity:0.1; fill:none" points="203.964,1384.24 2352.76,1384.24 "/>
<polyline clip-path="url(#clip082)" style="stroke:#000000; stroke-linecap:round; stroke-linejoin:round; stroke-width:2; stroke-opacity:0.1; fill:none" points="203.964,1105.39 2352.76,1105.39 "/>
<polyline clip-path="url(#clip082)" style="stroke:#000000; stroke-linecap:round; stroke-linejoin:round; stroke-width:2; stroke-opacity:0.1; fill:none" points="203.964,826.529 2352.76,826.529 "/>
<polyline clip-path="url(#clip082)" style="stroke:#000000; stroke-linecap:round; stroke-linejoin:round; stroke-width:2; stroke-opacity:0.1; fill:none" points="203.964,547.672 2352.76,547.672 "/>
<polyline clip-path="url(#clip082)" style="stroke:#000000; stroke-linecap:round; stroke-linejoin:round; stroke-width:2; stroke-opacity:0.1; fill:none" points="203.964,268.815 2352.76,268.815 "/>
<polyline clip-path="url(#clip080)" style="stroke:#000000; stroke-linecap:round; stroke-linejoin:round; stroke-width:4; stroke-opacity:1; fill:none" points="203.964,1423.18 2352.76,1423.18 "/>
<polyline clip-path="url(#clip080)" style="stroke:#000000; stroke-linecap:round; stroke-linejoin:round; stroke-width:4; stroke-opacity:1; fill:none" points="203.964,47.2441 2352.76,47.2441 "/>
<polyline clip-path="url(#clip080)" style="stroke:#000000; stroke-linecap:round; stroke-linejoin:round; stroke-width:4; stroke-opacity:1; fill:none" points="591.396,1423.18 591.396,1404.28 "/>
<polyline clip-path="url(#clip080)" style="stroke:#000000; stroke-linecap:round; stroke-linejoin:round; stroke-width:4; stroke-opacity:1; fill:none" points="1002.27,1423.18 1002.27,1404.28 "/>
<polyline clip-path="url(#clip080)" style="stroke:#000000; stroke-linecap:round; stroke-linejoin:round; stroke-width:4; stroke-opacity:1; fill:none" points="1413.13,1423.18 1413.13,1404.28 "/>
<polyline clip-path="url(#clip080)" style="stroke:#000000; stroke-linecap:round; stroke-linejoin:round; stroke-width:4; stroke-opacity:1; fill:none" points="1824,1423.18 1824,1404.28 "/>
<polyline clip-path="url(#clip080)" style="stroke:#000000; stroke-linecap:round; stroke-linejoin:round; stroke-width:4; stroke-opacity:1; fill:none" points="2234.87,1423.18 2234.87,1404.28 "/>
<polyline clip-path="url(#clip080)" style="stroke:#000000; stroke-linecap:round; stroke-linejoin:round; stroke-width:4; stroke-opacity:1; fill:none" points="591.396,47.2441 591.396,66.1417 "/>
<polyline clip-path="url(#clip080)" style="stroke:#000000; stroke-linecap:round; stroke-linejoin:round; stroke-width:4; stroke-opacity:1; fill:none" points="1002.27,47.2441 1002.27,66.1417 "/>
<polyline clip-path="url(#clip080)" style="stroke:#000000; stroke-linecap:round; stroke-linejoin:round; stroke-width:4; stroke-opacity:1; fill:none" points="1413.13,47.2441 1413.13,66.1417 "/>
<polyline clip-path="url(#clip080)" style="stroke:#000000; stroke-linecap:round; stroke-linejoin:round; stroke-width:4; stroke-opacity:1; fill:none" points="1824,47.2441 1824,66.1417 "/>
<polyline clip-path="url(#clip080)" style="stroke:#000000; stroke-linecap:round; stroke-linejoin:round; stroke-width:4; stroke-opacity:1; fill:none" points="2234.87,47.2441 2234.87,66.1417 "/>
<path clip-path="url(#clip080)" d="M539.602 1466.44 Q536.454 1466.44 534.602 1468.59 Q532.773 1470.74 532.773 1474.49 Q532.773 1478.22 534.602 1480.39 Q536.454 1482.55 539.602 1482.55 Q542.75 1482.55 544.579 1480.39 Q546.431 1478.22 546.431 1474.49 Q546.431 1470.74 544.579 1468.59 Q542.75 1466.44 539.602 1466.44 M548.884 1451.78 L548.884 1456.04 Q547.125 1455.21 545.319 1454.77 Q543.537 1454.33 541.778 1454.33 Q537.148 1454.33 534.695 1457.45 Q532.264 1460.58 531.917 1466.9 Q533.282 1464.89 535.343 1463.82 Q537.403 1462.73 539.88 1462.73 Q545.088 1462.73 548.097 1465.9 Q551.13 1469.05 551.13 1474.49 Q551.13 1479.82 547.981 1483.03 Q544.833 1486.25 539.602 1486.25 Q533.607 1486.25 530.435 1481.67 Q527.264 1477.06 527.264 1468.33 Q527.264 1460.14 531.153 1455.28 Q535.042 1450.39 541.593 1450.39 Q543.352 1450.39 545.134 1450.74 Q546.94 1451.09 548.884 1451.78 Z" fill="#000000" fill-rule="nonzero" fill-opacity="1" /><path clip-path="url(#clip080)" d="M559.231 1451.02 L577.588 1451.02 L577.588 1454.96 L563.514 1454.96 L563.514 1463.43 Q564.532 1463.08 565.551 1462.92 Q566.569 1462.73 567.588 1462.73 Q573.375 1462.73 576.754 1465.9 Q580.134 1469.08 580.134 1474.49 Q580.134 1480.07 576.662 1483.17 Q573.19 1486.25 566.87 1486.25 Q564.694 1486.25 562.426 1485.88 Q560.18 1485.51 557.773 1484.77 L557.773 1480.07 Q559.856 1481.2 562.079 1481.76 Q564.301 1482.32 566.778 1482.32 Q570.782 1482.32 573.12 1480.21 Q575.458 1478.1 575.458 1474.49 Q575.458 1470.88 573.12 1468.77 Q570.782 1466.67 566.778 1466.67 Q564.903 1466.67 563.028 1467.08 Q561.176 1467.5 559.231 1468.38 L559.231 1451.02 Z" fill="#000000" fill-rule="nonzero" fill-opacity="1" /><path clip-path="url(#clip080)" d="M589.347 1479.7 L594.231 1479.7 L594.231 1485.58 L589.347 1485.58 L589.347 1479.7 Z" fill="#000000" fill-rule="nonzero" fill-opacity="1" /><path clip-path="url(#clip080)" d="M614.416 1469.17 Q611.083 1469.17 609.162 1470.95 Q607.264 1472.73 607.264 1475.86 Q607.264 1478.98 609.162 1480.77 Q611.083 1482.55 614.416 1482.55 Q617.75 1482.55 619.671 1480.77 Q621.592 1478.96 621.592 1475.86 Q621.592 1472.73 619.671 1470.95 Q617.773 1469.17 614.416 1469.17 M609.74 1467.18 Q606.731 1466.44 605.041 1464.38 Q603.375 1462.32 603.375 1459.35 Q603.375 1455.21 606.315 1452.8 Q609.277 1450.39 614.416 1450.39 Q619.578 1450.39 622.518 1452.8 Q625.458 1455.21 625.458 1459.35 Q625.458 1462.32 623.768 1464.38 Q622.101 1466.44 619.115 1467.18 Q622.495 1467.96 624.37 1470.26 Q626.268 1472.55 626.268 1475.86 Q626.268 1480.88 623.189 1483.57 Q620.134 1486.25 614.416 1486.25 Q608.699 1486.25 605.62 1483.57 Q602.565 1480.88 602.565 1475.86 Q602.565 1472.55 604.463 1470.26 Q606.361 1467.96 609.74 1467.18 M608.027 1459.79 Q608.027 1462.48 609.694 1463.98 Q611.384 1465.49 614.416 1465.49 Q617.426 1465.49 619.115 1463.98 Q620.828 1462.48 620.828 1459.79 Q620.828 1457.11 619.115 1455.6 Q617.426 1454.1 614.416 1454.1 Q611.384 1454.1 609.694 1455.6 Q608.027 1457.11 608.027 1459.79 Z" fill="#000000" fill-rule="nonzero" fill-opacity="1" /><path clip-path="url(#clip080)" d="M634.625 1451.02 L652.981 1451.02 L652.981 1454.96 L638.907 1454.96 L638.907 1463.43 Q639.925 1463.08 640.944 1462.92 Q641.962 1462.73 642.981 1462.73 Q648.768 1462.73 652.148 1465.9 Q655.527 1469.08 655.527 1474.49 Q655.527 1480.07 652.055 1483.17 Q648.583 1486.25 642.263 1486.25 Q640.087 1486.25 637.819 1485.88 Q635.574 1485.51 633.166 1484.77 L633.166 1480.07 Q635.25 1481.2 637.472 1481.76 Q639.694 1482.32 642.171 1482.32 Q646.175 1482.32 648.513 1480.21 Q650.851 1478.1 650.851 1474.49 Q650.851 1470.88 648.513 1468.77 Q646.175 1466.67 642.171 1466.67 Q640.296 1466.67 638.421 1467.08 Q636.569 1467.5 634.625 1468.38 L634.625 1451.02 Z" fill="#000000" fill-rule="nonzero" fill-opacity="1" /><path clip-path="url(#clip080)" d="M949.974 1466.44 Q946.826 1466.44 944.974 1468.59 Q943.145 1470.74 943.145 1474.49 Q943.145 1478.22 944.974 1480.39 Q946.826 1482.55 949.974 1482.55 Q953.122 1482.55 954.951 1480.39 Q956.802 1478.22 956.802 1474.49 Q956.802 1470.74 954.951 1468.59 Q953.122 1466.44 949.974 1466.44 M959.256 1451.78 L959.256 1456.04 Q957.497 1455.21 955.691 1454.77 Q953.909 1454.33 952.15 1454.33 Q947.52 1454.33 945.066 1457.45 Q942.636 1460.58 942.289 1466.9 Q943.654 1464.89 945.714 1463.82 Q947.775 1462.73 950.251 1462.73 Q955.46 1462.73 958.469 1465.9 Q961.501 1469.05 961.501 1474.49 Q961.501 1479.82 958.353 1483.03 Q955.205 1486.25 949.974 1486.25 Q943.978 1486.25 940.807 1481.67 Q937.636 1477.06 937.636 1468.33 Q937.636 1460.14 941.525 1455.28 Q945.414 1450.39 951.964 1450.39 Q953.724 1450.39 955.506 1450.74 Q957.312 1451.09 959.256 1451.78 Z" fill="#000000" fill-rule="nonzero" fill-opacity="1" /><path clip-path="url(#clip080)" d="M969.603 1451.02 L987.96 1451.02 L987.96 1454.96 L973.886 1454.96 L973.886 1463.43 Q974.904 1463.08 975.923 1462.92 Q976.941 1462.73 977.96 1462.73 Q983.747 1462.73 987.126 1465.9 Q990.506 1469.08 990.506 1474.49 Q990.506 1480.07 987.034 1483.17 Q983.561 1486.25 977.242 1486.25 Q975.066 1486.25 972.798 1485.88 Q970.552 1485.51 968.145 1484.77 L968.145 1480.07 Q970.228 1481.2 972.45 1481.76 Q974.673 1482.32 977.149 1482.32 Q981.154 1482.32 983.492 1480.21 Q985.83 1478.1 985.83 1474.49 Q985.83 1470.88 983.492 1468.77 Q981.154 1466.67 977.149 1466.67 Q975.274 1466.67 973.399 1467.08 Q971.548 1467.5 969.603 1468.38 L969.603 1451.02 Z" fill="#000000" fill-rule="nonzero" fill-opacity="1" /><path clip-path="url(#clip080)" d="M999.719 1479.7 L1004.6 1479.7 L1004.6 1485.58 L999.719 1485.58 L999.719 1479.7 Z" fill="#000000" fill-rule="nonzero" fill-opacity="1" /><path clip-path="url(#clip080)" d="M1014.93 1484.86 L1014.93 1480.6 Q1016.69 1481.44 1018.49 1481.88 Q1020.3 1482.32 1022.03 1482.32 Q1026.66 1482.32 1029.09 1479.21 Q1031.55 1476.09 1031.89 1469.75 Q1030.55 1471.74 1028.49 1472.8 Q1026.43 1473.87 1023.93 1473.87 Q1018.75 1473.87 1015.71 1470.74 Q1012.7 1467.59 1012.7 1462.15 Q1012.7 1456.83 1015.85 1453.61 Q1019 1450.39 1024.23 1450.39 Q1030.23 1450.39 1033.38 1455 Q1036.55 1459.58 1036.55 1468.33 Q1036.55 1476.51 1032.66 1481.39 Q1028.79 1486.25 1022.24 1486.25 Q1020.48 1486.25 1018.68 1485.9 Q1016.87 1485.56 1014.93 1484.86 M1024.23 1470.21 Q1027.38 1470.21 1029.21 1468.06 Q1031.06 1465.9 1031.06 1462.15 Q1031.06 1458.43 1029.21 1456.27 Q1027.38 1454.1 1024.23 1454.1 Q1021.08 1454.1 1019.23 1456.27 Q1017.4 1458.43 1017.4 1462.15 Q1017.4 1465.9 1019.23 1468.06 Q1021.08 1470.21 1024.23 1470.21 Z" fill="#000000" fill-rule="nonzero" fill-opacity="1" /><path clip-path="url(#clip080)" d="M1054.95 1454.1 Q1051.34 1454.1 1049.51 1457.66 Q1047.7 1461.2 1047.7 1468.33 Q1047.7 1475.44 1049.51 1479.01 Q1051.34 1482.55 1054.95 1482.55 Q1058.58 1482.55 1060.39 1479.01 Q1062.22 1475.44 1062.22 1468.33 Q1062.22 1461.2 1060.39 1457.66 Q1058.58 1454.1 1054.95 1454.1 M1054.95 1450.39 Q1060.76 1450.39 1063.82 1455 Q1066.89 1459.58 1066.89 1468.33 Q1066.89 1477.06 1063.82 1481.67 Q1060.76 1486.25 1054.95 1486.25 Q1049.14 1486.25 1046.06 1481.67 Q1043.01 1477.06 1043.01 1468.33 Q1043.01 1459.58 1046.06 1455 Q1049.14 1450.39 1054.95 1450.39 Z" fill="#000000" fill-rule="nonzero" fill-opacity="1" /><path clip-path="url(#clip080)" d="M1361.34 1466.44 Q1358.19 1466.44 1356.34 1468.59 Q1354.51 1470.74 1354.51 1474.49 Q1354.51 1478.22 1356.34 1480.39 Q1358.19 1482.55 1361.34 1482.55 Q1364.49 1482.55 1366.32 1480.39 Q1368.17 1478.22 1368.17 1474.49 Q1368.17 1470.74 1366.32 1468.59 Q1364.49 1466.44 1361.34 1466.44 M1370.62 1451.78 L1370.62 1456.04 Q1368.86 1455.21 1367.06 1454.77 Q1365.28 1454.33 1363.52 1454.33 Q1358.89 1454.33 1356.43 1457.45 Q1354 1460.58 1353.66 1466.9 Q1355.02 1464.89 1357.08 1463.82 Q1359.14 1462.73 1361.62 1462.73 Q1366.83 1462.73 1369.84 1465.9 Q1372.87 1469.05 1372.87 1474.49 Q1372.87 1479.82 1369.72 1483.03 Q1366.57 1486.25 1361.34 1486.25 Q1355.35 1486.25 1352.17 1481.67 Q1349 1477.06 1349 1468.33 Q1349 1460.14 1352.89 1455.28 Q1356.78 1450.39 1363.33 1450.39 Q1365.09 1450.39 1366.87 1450.74 Q1368.68 1451.09 1370.62 1451.78 Z" fill="#000000" fill-rule="nonzero" fill-opacity="1" /><path clip-path="url(#clip080)" d="M1380.97 1451.02 L1399.33 1451.02 L1399.33 1454.96 L1385.25 1454.96 L1385.25 1463.43 Q1386.27 1463.08 1387.29 1462.92 Q1388.31 1462.73 1389.33 1462.73 Q1395.11 1462.73 1398.49 1465.9 Q1401.87 1469.08 1401.87 1474.49 Q1401.87 1480.07 1398.4 1483.17 Q1394.93 1486.25 1388.61 1486.25 Q1386.43 1486.25 1384.16 1485.88 Q1381.92 1485.51 1379.51 1484.77 L1379.51 1480.07 Q1381.6 1481.2 1383.82 1481.76 Q1386.04 1482.32 1388.52 1482.32 Q1392.52 1482.32 1394.86 1480.21 Q1397.2 1478.1 1397.2 1474.49 Q1397.2 1470.88 1394.86 1468.77 Q1392.52 1466.67 1388.52 1466.67 Q1386.64 1466.67 1384.77 1467.08 Q1382.91 1467.5 1380.97 1468.38 L1380.97 1451.02 Z" fill="#000000" fill-rule="nonzero" fill-opacity="1" /><path clip-path="url(#clip080)" d="M1411.09 1479.7 L1415.97 1479.7 L1415.97 1485.58 L1411.09 1485.58 L1411.09 1479.7 Z" fill="#000000" fill-rule="nonzero" fill-opacity="1" /><path clip-path="url(#clip080)" d="M1426.29 1484.86 L1426.29 1480.6 Q1428.05 1481.44 1429.86 1481.88 Q1431.66 1482.32 1433.4 1482.32 Q1438.03 1482.32 1440.46 1479.21 Q1442.91 1476.09 1443.26 1469.75 Q1441.92 1471.74 1439.86 1472.8 Q1437.8 1473.87 1435.3 1473.87 Q1430.11 1473.87 1427.08 1470.74 Q1424.07 1467.59 1424.07 1462.15 Q1424.07 1456.83 1427.22 1453.61 Q1430.37 1450.39 1435.6 1450.39 Q1441.6 1450.39 1444.74 1455 Q1447.91 1459.58 1447.91 1468.33 Q1447.91 1476.51 1444.03 1481.39 Q1440.16 1486.25 1433.61 1486.25 Q1431.85 1486.25 1430.04 1485.9 Q1428.24 1485.56 1426.29 1484.86 M1435.6 1470.21 Q1438.75 1470.21 1440.58 1468.06 Q1442.43 1465.9 1442.43 1462.15 Q1442.43 1458.43 1440.58 1456.27 Q1438.75 1454.1 1435.6 1454.1 Q1432.45 1454.1 1430.6 1456.27 Q1428.77 1458.43 1428.77 1462.15 Q1428.77 1465.9 1430.6 1468.06 Q1432.45 1470.21 1435.6 1470.21 Z" fill="#000000" fill-rule="nonzero" fill-opacity="1" /><path clip-path="url(#clip080)" d="M1456.36 1451.02 L1474.72 1451.02 L1474.72 1454.96 L1460.65 1454.96 L1460.65 1463.43 Q1461.66 1463.08 1462.68 1462.92 Q1463.7 1462.73 1464.72 1462.73 Q1470.51 1462.73 1473.89 1465.9 Q1477.27 1469.08 1477.27 1474.49 Q1477.27 1480.07 1473.79 1483.17 Q1470.32 1486.25 1464 1486.25 Q1461.83 1486.25 1459.56 1485.88 Q1457.31 1485.51 1454.91 1484.77 L1454.91 1480.07 Q1456.99 1481.2 1459.21 1481.76 Q1461.43 1482.32 1463.91 1482.32 Q1467.91 1482.32 1470.25 1480.21 Q1472.59 1478.1 1472.59 1474.49 Q1472.59 1470.88 1470.25 1468.77 Q1467.91 1466.67 1463.91 1466.67 Q1462.03 1466.67 1460.16 1467.08 Q1458.31 1467.5 1456.36 1468.38 L1456.36 1451.02 Z" fill="#000000" fill-rule="nonzero" fill-opacity="1" /><path clip-path="url(#clip080)" d="M1771.71 1466.44 Q1768.56 1466.44 1766.71 1468.59 Q1764.88 1470.74 1764.88 1474.49 Q1764.88 1478.22 1766.71 1480.39 Q1768.56 1482.55 1771.71 1482.55 Q1774.86 1482.55 1776.69 1480.39 Q1778.54 1478.22 1778.54 1474.49 Q1778.54 1470.74 1776.69 1468.59 Q1774.86 1466.44 1771.71 1466.44 M1780.99 1451.78 L1780.99 1456.04 Q1779.24 1455.21 1777.43 1454.77 Q1775.65 1454.33 1773.89 1454.33 Q1769.26 1454.33 1766.81 1457.45 Q1764.37 1460.58 1764.03 1466.9 Q1765.39 1464.89 1767.45 1463.82 Q1769.51 1462.73 1771.99 1462.73 Q1777.2 1462.73 1780.21 1465.9 Q1783.24 1469.05 1783.24 1474.49 Q1783.24 1479.82 1780.09 1483.03 Q1776.94 1486.25 1771.71 1486.25 Q1765.72 1486.25 1762.55 1481.67 Q1759.37 1477.06 1759.37 1468.33 Q1759.37 1460.14 1763.26 1455.28 Q1767.15 1450.39 1773.7 1450.39 Q1775.46 1450.39 1777.24 1450.74 Q1779.05 1451.09 1780.99 1451.78 Z" fill="#000000" fill-rule="nonzero" fill-opacity="1" /><path clip-path="url(#clip080)" d="M1801.87 1466.44 Q1798.73 1466.44 1796.87 1468.59 Q1795.05 1470.74 1795.05 1474.49 Q1795.05 1478.22 1796.87 1480.39 Q1798.73 1482.55 1801.87 1482.55 Q1805.02 1482.55 1806.85 1480.39 Q1808.7 1478.22 1808.7 1474.49 Q1808.7 1470.74 1806.85 1468.59 Q1805.02 1466.44 1801.87 1466.44 M1811.16 1451.78 L1811.16 1456.04 Q1809.4 1455.21 1807.59 1454.77 Q1805.81 1454.33 1804.05 1454.33 Q1799.42 1454.33 1796.97 1457.45 Q1794.54 1460.58 1794.19 1466.9 Q1795.56 1464.89 1797.62 1463.82 Q1799.68 1462.73 1802.15 1462.73 Q1807.36 1462.73 1810.37 1465.9 Q1813.4 1469.05 1813.4 1474.49 Q1813.4 1479.82 1810.25 1483.03 Q1807.11 1486.25 1801.87 1486.25 Q1795.88 1486.25 1792.71 1481.67 Q1789.54 1477.06 1789.54 1468.33 Q1789.54 1460.14 1793.43 1455.28 Q1797.31 1450.39 1803.87 1450.39 Q1805.62 1450.39 1807.41 1450.74 Q1809.21 1451.09 1811.16 1451.78 Z" fill="#000000" fill-rule="nonzero" fill-opacity="1" /><path clip-path="url(#clip080)" d="M1821.46 1479.7 L1826.34 1479.7 L1826.34 1485.58 L1821.46 1485.58 L1821.46 1479.7 Z" fill="#000000" fill-rule="nonzero" fill-opacity="1" /><path clip-path="url(#clip080)" d="M1846.53 1454.1 Q1842.92 1454.1 1841.09 1457.66 Q1839.28 1461.2 1839.28 1468.33 Q1839.28 1475.44 1841.09 1479.01 Q1842.92 1482.55 1846.53 1482.55 Q1850.16 1482.55 1851.97 1479.01 Q1853.8 1475.44 1853.8 1468.33 Q1853.8 1461.2 1851.97 1457.66 Q1850.16 1454.1 1846.53 1454.1 M1846.53 1450.39 Q1852.34 1450.39 1855.39 1455 Q1858.47 1459.58 1858.47 1468.33 Q1858.47 1477.06 1855.39 1481.67 Q1852.34 1486.25 1846.53 1486.25 Q1840.72 1486.25 1837.64 1481.67 Q1834.58 1477.06 1834.58 1468.33 Q1834.58 1459.58 1837.64 1455 Q1840.72 1450.39 1846.53 1450.39 Z" fill="#000000" fill-rule="nonzero" fill-opacity="1" /><path clip-path="url(#clip080)" d="M1876.69 1454.1 Q1873.08 1454.1 1871.25 1457.66 Q1869.44 1461.2 1869.44 1468.33 Q1869.44 1475.44 1871.25 1479.01 Q1873.08 1482.55 1876.69 1482.55 Q1880.32 1482.55 1882.13 1479.01 Q1883.96 1475.44 1883.96 1468.33 Q1883.96 1461.2 1882.13 1457.66 Q1880.32 1454.1 1876.69 1454.1 M1876.69 1450.39 Q1882.5 1450.39 1885.55 1455 Q1888.63 1459.58 1888.63 1468.33 Q1888.63 1477.06 1885.55 1481.67 Q1882.5 1486.25 1876.69 1486.25 Q1870.88 1486.25 1867.8 1481.67 Q1864.74 1477.06 1864.74 1468.33 Q1864.74 1459.58 1867.8 1455 Q1870.88 1450.39 1876.69 1450.39 Z" fill="#000000" fill-rule="nonzero" fill-opacity="1" /><path clip-path="url(#clip080)" d="M2183.08 1466.44 Q2179.93 1466.44 2178.08 1468.59 Q2176.25 1470.74 2176.25 1474.49 Q2176.25 1478.22 2178.08 1480.39 Q2179.93 1482.55 2183.08 1482.55 Q2186.23 1482.55 2188.06 1480.39 Q2189.91 1478.22 2189.91 1474.49 Q2189.91 1470.74 2188.06 1468.59 Q2186.23 1466.44 2183.08 1466.44 M2192.36 1451.78 L2192.36 1456.04 Q2190.6 1455.21 2188.8 1454.77 Q2187.01 1454.33 2185.26 1454.33 Q2180.63 1454.33 2178.17 1457.45 Q2175.74 1460.58 2175.39 1466.9 Q2176.76 1464.89 2178.82 1463.82 Q2180.88 1462.73 2183.36 1462.73 Q2188.57 1462.73 2191.58 1465.9 Q2194.61 1469.05 2194.61 1474.49 Q2194.61 1479.82 2191.46 1483.03 Q2188.31 1486.25 2183.08 1486.25 Q2177.08 1486.25 2173.91 1481.67 Q2170.74 1477.06 2170.74 1468.33 Q2170.74 1460.14 2174.63 1455.28 Q2178.52 1450.39 2185.07 1450.39 Q2186.83 1450.39 2188.61 1450.74 Q2190.42 1451.09 2192.36 1451.78 Z" fill="#000000" fill-rule="nonzero" fill-opacity="1" /><path clip-path="url(#clip080)" d="M2213.24 1466.44 Q2210.09 1466.44 2208.24 1468.59 Q2206.41 1470.74 2206.41 1474.49 Q2206.41 1478.22 2208.24 1480.39 Q2210.09 1482.55 2213.24 1482.55 Q2216.39 1482.55 2218.22 1480.39 Q2220.07 1478.22 2220.07 1474.49 Q2220.07 1470.74 2218.22 1468.59 Q2216.39 1466.44 2213.24 1466.44 M2222.52 1451.78 L2222.52 1456.04 Q2220.76 1455.21 2218.96 1454.77 Q2217.18 1454.33 2215.42 1454.33 Q2210.79 1454.33 2208.33 1457.45 Q2205.9 1460.58 2205.56 1466.9 Q2206.92 1464.89 2208.98 1463.82 Q2211.04 1462.73 2213.52 1462.73 Q2218.73 1462.73 2221.74 1465.9 Q2224.77 1469.05 2224.77 1474.49 Q2224.77 1479.82 2221.62 1483.03 Q2218.47 1486.25 2213.24 1486.25 Q2207.25 1486.25 2204.07 1481.67 Q2200.9 1477.06 2200.9 1468.33 Q2200.9 1460.14 2204.79 1455.28 Q2208.68 1450.39 2215.23 1450.39 Q2216.99 1450.39 2218.77 1450.74 Q2220.58 1451.09 2222.52 1451.78 Z" fill="#000000" fill-rule="nonzero" fill-opacity="1" /><path clip-path="url(#clip080)" d="M2232.82 1479.7 L2237.71 1479.7 L2237.71 1485.58 L2232.82 1485.58 L2232.82 1479.7 Z" fill="#000000" fill-rule="nonzero" fill-opacity="1" /><path clip-path="url(#clip080)" d="M2257.89 1454.1 Q2254.28 1454.1 2252.45 1457.66 Q2250.65 1461.2 2250.65 1468.33 Q2250.65 1475.44 2252.45 1479.01 Q2254.28 1482.55 2257.89 1482.55 Q2261.53 1482.55 2263.33 1479.01 Q2265.16 1475.44 2265.16 1468.33 Q2265.16 1461.2 2263.33 1457.66 Q2261.53 1454.1 2257.89 1454.1 M2257.89 1450.39 Q2263.7 1450.39 2266.76 1455 Q2269.84 1459.58 2269.84 1468.33 Q2269.84 1477.06 2266.76 1481.67 Q2263.7 1486.25 2257.89 1486.25 Q2252.08 1486.25 2249.01 1481.67 Q2245.95 1477.06 2245.95 1468.33 Q2245.95 1459.58 2249.01 1455 Q2252.08 1450.39 2257.89 1450.39 Z" fill="#000000" fill-rule="nonzero" fill-opacity="1" /><path clip-path="url(#clip080)" d="M2278.1 1451.02 L2296.46 1451.02 L2296.46 1454.96 L2282.38 1454.96 L2282.38 1463.43 Q2283.4 1463.08 2284.42 1462.92 Q2285.44 1462.73 2286.46 1462.73 Q2292.25 1462.73 2295.63 1465.9 Q2299.01 1469.08 2299.01 1474.49 Q2299.01 1480.07 2295.53 1483.17 Q2292.06 1486.25 2285.74 1486.25 Q2283.57 1486.25 2281.3 1485.88 Q2279.05 1485.51 2276.64 1484.77 L2276.64 1480.07 Q2278.73 1481.2 2280.95 1481.76 Q2283.17 1482.32 2285.65 1482.32 Q2289.65 1482.32 2291.99 1480.21 Q2294.33 1478.1 2294.33 1474.49 Q2294.33 1470.88 2291.99 1468.77 Q2289.65 1466.67 2285.65 1466.67 Q2283.77 1466.67 2281.9 1467.08 Q2280.05 1467.5 2278.1 1468.38 L2278.1 1451.02 Z" fill="#000000" fill-rule="nonzero" fill-opacity="1" /><path clip-path="url(#clip080)" d="M1156.27 1526.86 L1147.54 1550.51 L1165.02 1550.51 L1156.27 1526.86 M1152.64 1520.52 L1159.93 1520.52 L1178.04 1568.04 L1171.35 1568.04 L1167.02 1555.85 L1145.6 1555.85 L1141.27 1568.04 L1134.49 1568.04 L1152.64 1520.52 Z" fill="#000000" fill-rule="nonzero" fill-opacity="1" /><path clip-path="url(#clip080)" d="M1208.18 1549.81 Q1208.18 1543.44 1205.54 1539.94 Q1202.93 1536.44 1198.18 1536.44 Q1193.47 1536.44 1190.83 1539.94 Q1188.22 1543.44 1188.22 1549.81 Q1188.22 1556.14 1190.83 1559.64 Q1193.47 1563.14 1198.18 1563.14 Q1202.93 1563.14 1205.54 1559.64 Q1208.18 1556.14 1208.18 1549.81 M1214.03 1563.62 Q1214.03 1572.72 1209.99 1577.15 Q1205.95 1581.6 1197.61 1581.6 Q1194.52 1581.6 1191.79 1581.13 Q1189.05 1580.68 1186.47 1579.72 L1186.47 1574.03 Q1189.05 1575.43 1191.56 1576.1 Q1194.08 1576.76 1196.69 1576.76 Q1202.45 1576.76 1205.31 1573.74 Q1208.18 1570.75 1208.18 1564.67 L1208.18 1561.77 Q1206.36 1564.92 1203.53 1566.48 Q1200.7 1568.04 1196.75 1568.04 Q1190.19 1568.04 1186.18 1563.05 Q1182.17 1558.05 1182.17 1549.81 Q1182.17 1541.53 1186.18 1536.53 Q1190.19 1531.54 1196.75 1531.54 Q1200.7 1531.54 1203.53 1533.1 Q1206.36 1534.66 1208.18 1537.81 L1208.18 1532.4 L1214.03 1532.4 L1214.03 1563.62 Z" fill="#000000" fill-rule="nonzero" fill-opacity="1" /><path clip-path="url(#clip080)" d="M1256.59 1548.76 L1256.59 1551.62 L1229.66 1551.62 Q1230.04 1557.67 1233.29 1560.85 Q1236.57 1564 1242.39 1564 Q1245.77 1564 1248.92 1563.17 Q1252.1 1562.35 1255.22 1560.69 L1255.22 1566.23 Q1252.07 1567.57 1248.76 1568.27 Q1245.45 1568.97 1242.04 1568.97 Q1233.51 1568.97 1228.52 1564 Q1223.55 1559.04 1223.55 1550.57 Q1223.55 1541.82 1228.26 1536.69 Q1233 1531.54 1241.02 1531.54 Q1248.22 1531.54 1252.39 1536.18 Q1256.59 1540.8 1256.59 1548.76 M1250.73 1547.04 Q1250.67 1542.23 1248.03 1539.37 Q1245.42 1536.5 1241.09 1536.5 Q1236.19 1536.5 1233.23 1539.27 Q1230.3 1542.04 1229.85 1547.07 L1250.73 1547.04 Z" fill="#000000" fill-rule="nonzero" fill-opacity="1" /><path clip-path="url(#clip080)" d="M1300.99 1518.58 Q1296.72 1525.9 1294.66 1533.06 Q1292.59 1540.23 1292.59 1547.58 Q1292.59 1554.93 1294.66 1562.16 Q1296.76 1569.35 1300.99 1576.64 L1295.9 1576.64 Q1291.12 1569.16 1288.74 1561.93 Q1286.38 1554.71 1286.38 1547.58 Q1286.38 1540.48 1288.74 1533.29 Q1291.09 1526.09 1295.9 1518.58 L1300.99 1518.58 Z" fill="#000000" fill-rule="nonzero" fill-opacity="1" /><path clip-path="url(#clip080)" d="M1312.61 1520.52 L1322.19 1520.52 L1334.31 1552.86 L1346.5 1520.52 L1356.09 1520.52 L1356.09 1568.04 L1349.81 1568.04 L1349.81 1526.32 L1337.56 1558.91 L1331.1 1558.91 L1318.85 1526.32 L1318.85 1568.04 L1312.61 1568.04 L1312.61 1520.52 Z" fill="#000000" fill-rule="nonzero" fill-opacity="1" /><path clip-path="url(#clip080)" d="M1384.79 1550.12 Q1377.7 1550.12 1374.96 1551.75 Q1372.22 1553.37 1372.22 1557.29 Q1372.22 1560.4 1374.26 1562.25 Q1376.33 1564.07 1379.86 1564.07 Q1384.73 1564.07 1387.66 1560.63 Q1390.62 1557.16 1390.62 1551.43 L1390.62 1550.12 L1384.79 1550.12 M1396.48 1547.71 L1396.48 1568.04 L1390.62 1568.04 L1390.62 1562.63 Q1388.61 1565.88 1385.62 1567.44 Q1382.63 1568.97 1378.3 1568.97 Q1372.83 1568.97 1369.58 1565.91 Q1366.37 1562.82 1366.37 1557.67 Q1366.37 1551.65 1370.38 1548.6 Q1374.42 1545.54 1382.41 1545.54 L1390.62 1545.54 L1390.62 1544.97 Q1390.62 1540.93 1387.95 1538.73 Q1385.3 1536.5 1380.5 1536.5 Q1377.44 1536.5 1374.55 1537.23 Q1371.65 1537.97 1368.98 1539.43 L1368.98 1534.02 Q1372.19 1532.78 1375.21 1532.17 Q1378.24 1531.54 1381.1 1531.54 Q1388.84 1531.54 1392.66 1535.55 Q1396.48 1539.56 1396.48 1547.71 Z" fill="#000000" fill-rule="nonzero" fill-opacity="1" /><path clip-path="url(#clip080)" d="M1407.62 1518.58 L1412.71 1518.58 Q1417.48 1526.09 1419.84 1533.29 Q1422.22 1540.48 1422.22 1547.58 Q1422.22 1554.71 1419.84 1561.93 Q1417.48 1569.16 1412.71 1576.64 L1407.62 1576.64 Q1411.85 1569.35 1413.92 1562.16 Q1416.02 1554.93 1416.02 1547.58 Q1416.02 1540.23 1413.92 1533.06 Q1411.85 1525.9 1407.62 1518.58 Z" fill="#000000" fill-rule="nonzero" fill-opacity="1" /><polyline clip-path="url(#clip080)" style="stroke:#000000; stroke-linecap:round; stroke-linejoin:round; stroke-width:4; stroke-opacity:1; fill:none" points="203.964,1423.18 203.964,47.2441 "/>
<polyline clip-path="url(#clip080)" style="stroke:#000000; stroke-linecap:round; stroke-linejoin:round; stroke-width:4; stroke-opacity:1; fill:none" points="2352.76,1423.18 2352.76,47.2441 "/>
<polyline clip-path="url(#clip080)" style="stroke:#000000; stroke-linecap:round; stroke-linejoin:round; stroke-width:4; stroke-opacity:1; fill:none" points="203.964,1384.24 222.861,1384.24 "/>
<polyline clip-path="url(#clip080)" style="stroke:#000000; stroke-linecap:round; stroke-linejoin:round; stroke-width:4; stroke-opacity:1; fill:none" points="203.964,1105.39 222.861,1105.39 "/>
<polyline clip-path="url(#clip080)" style="stroke:#000000; stroke-linecap:round; stroke-linejoin:round; stroke-width:4; stroke-opacity:1; fill:none" points="203.964,826.529 222.861,826.529 "/>
<polyline clip-path="url(#clip080)" style="stroke:#000000; stroke-linecap:round; stroke-linejoin:round; stroke-width:4; stroke-opacity:1; fill:none" points="203.964,547.672 222.861,547.672 "/>
<polyline clip-path="url(#clip080)" style="stroke:#000000; stroke-linecap:round; stroke-linejoin:round; stroke-width:4; stroke-opacity:1; fill:none" points="203.964,268.815 222.861,268.815 "/>
<polyline clip-path="url(#clip080)" style="stroke:#000000; stroke-linecap:round; stroke-linejoin:round; stroke-width:4; stroke-opacity:1; fill:none" points="2352.76,1384.24 2333.86,1384.24 "/>
<polyline clip-path="url(#clip080)" style="stroke:#000000; stroke-linecap:round; stroke-linejoin:round; stroke-width:4; stroke-opacity:1; fill:none" points="2352.76,1105.39 2333.86,1105.39 "/>
<polyline clip-path="url(#clip080)" style="stroke:#000000; stroke-linecap:round; stroke-linejoin:round; stroke-width:4; stroke-opacity:1; fill:none" points="2352.76,826.529 2333.86,826.529 "/>
<polyline clip-path="url(#clip080)" style="stroke:#000000; stroke-linecap:round; stroke-linejoin:round; stroke-width:4; stroke-opacity:1; fill:none" points="2352.76,547.672 2333.86,547.672 "/>
<polyline clip-path="url(#clip080)" style="stroke:#000000; stroke-linecap:round; stroke-linejoin:round; stroke-width:4; stroke-opacity:1; fill:none" points="2352.76,268.815 2333.86,268.815 "/>
<path clip-path="url(#clip080)" d="M156.019 1370.04 Q152.408 1370.04 150.579 1373.61 Q148.774 1377.15 148.774 1384.28 Q148.774 1391.38 150.579 1394.95 Q152.408 1398.49 156.019 1398.49 Q159.653 1398.49 161.459 1394.95 Q163.288 1391.38 163.288 1384.28 Q163.288 1377.15 161.459 1373.61 Q159.653 1370.04 156.019 1370.04 M156.019 1366.34 Q161.829 1366.34 164.885 1370.94 Q167.964 1375.53 167.964 1384.28 Q167.964 1393 164.885 1397.61 Q161.829 1402.19 156.019 1402.19 Q150.209 1402.19 147.13 1397.61 Q144.075 1393 144.075 1384.28 Q144.075 1375.53 147.13 1370.94 Q150.209 1366.34 156.019 1366.34 Z" fill="#000000" fill-rule="nonzero" fill-opacity="1" /><path clip-path="url(#clip080)" d="M147.061 1088.11 L165.417 1088.11 L165.417 1092.04 L151.343 1092.04 L151.343 1100.51 Q152.362 1100.17 153.38 1100 Q154.399 1099.82 155.417 1099.82 Q161.204 1099.82 164.584 1102.99 Q167.964 1106.16 167.964 1111.58 Q167.964 1117.16 164.491 1120.26 Q161.019 1123.34 154.7 1123.34 Q152.524 1123.34 150.255 1122.97 Q148.01 1122.6 145.603 1121.86 L145.603 1117.16 Q147.686 1118.29 149.908 1118.85 Q152.13 1119.4 154.607 1119.4 Q158.612 1119.4 160.95 1117.3 Q163.288 1115.19 163.288 1111.58 Q163.288 1107.97 160.95 1105.86 Q158.612 1103.75 154.607 1103.75 Q152.732 1103.75 150.857 1104.17 Q149.005 1104.59 147.061 1105.47 L147.061 1088.11 Z" fill="#000000" fill-rule="nonzero" fill-opacity="1" /><path clip-path="url(#clip080)" d="M116.668 839.874 L124.306 839.874 L124.306 813.508 L115.996 815.175 L115.996 810.916 L124.26 809.249 L128.936 809.249 L128.936 839.874 L136.575 839.874 L136.575 843.809 L116.668 843.809 L116.668 839.874 Z" fill="#000000" fill-rule="nonzero" fill-opacity="1" /><path clip-path="url(#clip080)" d="M156.019 812.328 Q152.408 812.328 150.579 815.893 Q148.774 819.434 148.774 826.564 Q148.774 833.67 150.579 837.235 Q152.408 840.777 156.019 840.777 Q159.653 840.777 161.459 837.235 Q163.288 833.67 163.288 826.564 Q163.288 819.434 161.459 815.893 Q159.653 812.328 156.019 812.328 M156.019 808.624 Q161.829 808.624 164.885 813.231 Q167.964 817.814 167.964 826.564 Q167.964 835.291 164.885 839.897 Q161.829 844.48 156.019 844.48 Q150.209 844.48 147.13 839.897 Q144.075 835.291 144.075 826.564 Q144.075 817.814 147.13 813.231 Q150.209 808.624 156.019 808.624 Z" fill="#000000" fill-rule="nonzero" fill-opacity="1" /><path clip-path="url(#clip080)" d="M117.663 561.017 L125.302 561.017 L125.302 534.651 L116.992 536.318 L116.992 532.059 L125.255 530.392 L129.931 530.392 L129.931 561.017 L137.57 561.017 L137.57 564.952 L117.663 564.952 L117.663 561.017 Z" fill="#000000" fill-rule="nonzero" fill-opacity="1" /><path clip-path="url(#clip080)" d="M147.061 530.392 L165.417 530.392 L165.417 534.327 L151.343 534.327 L151.343 542.799 Q152.362 542.452 153.38 542.29 Q154.399 542.105 155.417 542.105 Q161.204 542.105 164.584 545.276 Q167.964 548.447 167.964 553.864 Q167.964 559.443 164.491 562.545 Q161.019 565.623 154.7 565.623 Q152.524 565.623 150.255 565.253 Q148.01 564.883 145.603 564.142 L145.603 559.443 Q147.686 560.577 149.908 561.133 Q152.13 561.688 154.607 561.688 Q158.612 561.688 160.95 559.582 Q163.288 557.475 163.288 553.864 Q163.288 550.253 160.95 548.147 Q158.612 546.04 154.607 546.04 Q152.732 546.04 150.857 546.457 Q149.005 546.873 147.061 547.753 L147.061 530.392 Z" fill="#000000" fill-rule="nonzero" fill-opacity="1" /><path clip-path="url(#clip080)" d="M119.885 282.16 L136.204 282.16 L136.204 286.095 L114.26 286.095 L114.26 282.16 Q116.922 279.405 121.505 274.776 Q126.112 270.123 127.292 268.78 Q129.538 266.257 130.417 264.521 Q131.32 262.762 131.32 261.072 Q131.32 258.317 129.376 256.581 Q127.455 254.845 124.353 254.845 Q122.154 254.845 119.7 255.609 Q117.269 256.373 114.492 257.924 L114.492 253.202 Q117.316 252.067 119.769 251.489 Q122.223 250.91 124.26 250.91 Q129.63 250.91 132.825 253.595 Q136.019 256.28 136.019 260.771 Q136.019 262.901 135.209 264.822 Q134.422 266.72 132.316 269.313 Q131.737 269.984 128.635 273.201 Q125.533 276.396 119.885 282.16 Z" fill="#000000" fill-rule="nonzero" fill-opacity="1" /><path clip-path="url(#clip080)" d="M156.019 254.614 Q152.408 254.614 150.579 258.178 Q148.774 261.72 148.774 268.85 Q148.774 275.956 150.579 279.521 Q152.408 283.063 156.019 283.063 Q159.653 283.063 161.459 279.521 Q163.288 275.956 163.288 268.85 Q163.288 261.72 161.459 258.178 Q159.653 254.614 156.019 254.614 M156.019 250.91 Q161.829 250.91 164.885 255.516 Q167.964 260.1 167.964 268.85 Q167.964 277.576 164.885 282.183 Q161.829 286.766 156.019 286.766 Q150.209 286.766 147.13 282.183 Q144.075 277.576 144.075 268.85 Q144.075 260.1 147.13 255.516 Q150.209 250.91 156.019 250.91 Z" fill="#000000" fill-rule="nonzero" fill-opacity="1" /><path clip-path="url(#clip080)" d="M21.7677 1026.76 L39.6235 1026.76 L39.6235 1018.68 Q39.6235 1014.19 37.3 1011.74 Q34.9765 1009.29 30.6797 1009.29 Q26.4147 1009.29 24.0912 1011.74 Q21.7677 1014.19 21.7677 1018.68 L21.7677 1026.76 M16.4842 1033.19 L16.4842 1018.68 Q16.4842 1010.69 20.1126 1006.61 Q23.7092 1002.51 30.6797 1002.51 Q37.7138 1002.51 41.3104 1006.61 Q44.907 1010.69 44.907 1018.68 L44.907 1026.76 L64.0042 1026.76 L64.0042 1033.19 L16.4842 1033.19 Z" fill="#000000" fill-rule="nonzero" fill-opacity="1" /><path clip-path="url(#clip080)" d="M33.8307 974.626 Q33.2578 975.613 33.0032 976.791 Q32.7167 977.936 32.7167 979.337 Q32.7167 984.302 35.9632 986.976 Q39.1779 989.617 45.2253 989.617 L64.0042 989.617 L64.0042 995.506 L28.3562 995.506 L28.3562 989.617 L33.8944 989.617 Q30.6479 987.771 29.0883 984.811 Q27.4968 981.851 27.4968 977.618 Q27.4968 977.013 27.5923 976.281 Q27.656 975.549 27.8151 974.658 L33.8307 974.626 Z" fill="#000000" fill-rule="nonzero" fill-opacity="1" /><path clip-path="url(#clip080)" d="M32.4621 956.102 Q32.4621 960.813 36.1542 963.55 Q39.8145 966.287 46.212 966.287 Q52.6095 966.287 56.3017 963.582 Q59.9619 960.844 59.9619 956.102 Q59.9619 951.423 56.2698 948.686 Q52.5777 945.949 46.212 945.949 Q39.8781 945.949 36.186 948.686 Q32.4621 951.423 32.4621 956.102 M27.4968 956.102 Q27.4968 948.463 32.4621 944.103 Q37.4273 939.742 46.212 939.742 Q54.9649 939.742 59.9619 944.103 Q64.9272 948.463 64.9272 956.102 Q64.9272 963.773 59.9619 968.133 Q54.9649 972.462 46.212 972.462 Q37.4273 972.462 32.4621 968.133 Q27.4968 963.773 27.4968 956.102 Z" fill="#000000" fill-rule="nonzero" fill-opacity="1" /><path clip-path="url(#clip080)" d="M46.212 904.444 Q39.7508 904.444 36.0905 907.118 Q32.3984 909.76 32.3984 914.407 Q32.3984 919.054 36.0905 921.727 Q39.7508 924.369 46.212 924.369 Q52.6732 924.369 56.3653 921.727 Q60.0256 919.054 60.0256 914.407 Q60.0256 909.76 56.3653 907.118 Q52.6732 904.444 46.212 904.444 M33.7671 924.369 Q30.5842 922.523 29.0564 919.722 Q27.4968 916.889 27.4968 912.974 Q27.4968 906.481 32.6531 902.439 Q37.8093 898.365 46.212 898.365 Q54.6147 898.365 59.771 902.439 Q64.9272 906.481 64.9272 912.974 Q64.9272 916.889 63.3994 919.722 Q61.8398 922.523 58.657 924.369 L64.0042 924.369 L64.0042 930.257 L14.479 930.257 L14.479 924.369 L33.7671 924.369 Z" fill="#000000" fill-rule="nonzero" fill-opacity="1" /><path clip-path="url(#clip080)" d="M46.0847 872.457 Q46.0847 879.554 47.7079 882.292 Q49.3312 885.029 53.2461 885.029 Q56.3653 885.029 58.2114 882.992 Q60.0256 880.923 60.0256 877.39 Q60.0256 872.52 56.5881 869.592 Q53.1188 866.632 47.3897 866.632 L46.0847 866.632 L46.0847 872.457 M43.6657 860.776 L64.0042 860.776 L64.0042 866.632 L58.5933 866.632 Q61.8398 868.637 63.3994 871.629 Q64.9272 874.621 64.9272 878.95 Q64.9272 884.424 61.8716 887.671 Q58.7843 890.885 53.6281 890.885 Q47.6125 890.885 44.5569 886.875 Q41.5014 882.833 41.5014 874.844 L41.5014 866.632 L40.9285 866.632 Q36.8862 866.632 34.6901 869.306 Q32.4621 871.947 32.4621 876.753 Q32.4621 879.809 33.1941 882.705 Q33.9262 885.602 35.3903 888.275 L29.9795 888.275 Q28.7381 885.061 28.1334 882.037 Q27.4968 879.013 27.4968 876.149 Q27.4968 868.414 31.5072 864.595 Q35.5176 860.776 43.6657 860.776 Z" fill="#000000" fill-rule="nonzero" fill-opacity="1" /><path clip-path="url(#clip080)" d="M46.212 823.122 Q39.7508 823.122 36.0905 825.796 Q32.3984 828.438 32.3984 833.085 Q32.3984 837.732 36.0905 840.405 Q39.7508 843.047 46.212 843.047 Q52.6732 843.047 56.3653 840.405 Q60.0256 837.732 60.0256 833.085 Q60.0256 828.438 56.3653 825.796 Q52.6732 823.122 46.212 823.122 M33.7671 843.047 Q30.5842 841.201 29.0564 838.4 Q27.4968 835.567 27.4968 831.652 Q27.4968 825.159 32.6531 821.117 Q37.8093 817.043 46.212 817.043 Q54.6147 817.043 59.771 821.117 Q64.9272 825.159 64.9272 831.652 Q64.9272 835.567 63.3994 838.4 Q61.8398 841.201 58.657 843.047 L64.0042 843.047 L64.0042 848.935 L14.479 848.935 L14.479 843.047 L33.7671 843.047 Z" fill="#000000" fill-rule="nonzero" fill-opacity="1" /><path clip-path="url(#clip080)" d="M28.3562 807.335 L28.3562 801.479 L64.0042 801.479 L64.0042 807.335 L28.3562 807.335 M14.479 807.335 L14.479 801.479 L21.895 801.479 L21.895 807.335 L14.479 807.335 Z" fill="#000000" fill-rule="nonzero" fill-opacity="1" /><path clip-path="url(#clip080)" d="M14.479 789.225 L14.479 783.369 L64.0042 783.369 L64.0042 789.225 L14.479 789.225 Z" fill="#000000" fill-rule="nonzero" fill-opacity="1" /><path clip-path="url(#clip080)" d="M28.3562 771.115 L28.3562 765.258 L64.0042 765.258 L64.0042 771.115 L28.3562 771.115 M14.479 771.115 L14.479 765.258 L21.895 765.258 L21.895 771.115 L14.479 771.115 Z" fill="#000000" fill-rule="nonzero" fill-opacity="1" /><path clip-path="url(#clip080)" d="M18.2347 747.211 L28.3562 747.211 L28.3562 735.148 L32.9077 735.148 L32.9077 747.211 L52.2594 747.211 Q56.6199 747.211 57.8613 746.034 Q59.1026 744.824 59.1026 741.164 L59.1026 735.148 L64.0042 735.148 L64.0042 741.164 Q64.0042 747.943 61.4897 750.521 Q58.9434 753.1 52.2594 753.1 L32.9077 753.1 L32.9077 757.396 L28.3562 757.396 L28.3562 753.1 L18.2347 753.1 L18.2347 747.211 Z" fill="#000000" fill-rule="nonzero" fill-opacity="1" /><path clip-path="url(#clip080)" d="M67.3143 712.614 Q73.68 715.096 75.6216 717.452 Q77.5631 719.807 77.5631 723.754 L77.5631 728.432 L72.6615 728.432 L72.6615 724.995 Q72.6615 722.576 71.5157 721.239 Q70.3699 719.902 66.1048 718.279 L63.4312 717.229 L28.3562 731.647 L28.3562 725.441 L56.238 714.301 L28.3562 703.161 L28.3562 696.954 L67.3143 712.614 Z" fill="#000000" fill-rule="nonzero" fill-opacity="1" /><path clip-path="url(#clip080)" d="M33.7671 644.692 L14.479 644.692 L14.479 638.835 L64.0042 638.835 L64.0042 644.692 L58.657 644.692 Q61.8398 646.538 63.3994 649.37 Q64.9272 652.171 64.9272 656.118 Q64.9272 662.579 59.771 666.653 Q54.6147 670.696 46.212 670.696 Q37.8093 670.696 32.6531 666.653 Q27.4968 662.579 27.4968 656.118 Q27.4968 652.171 29.0564 649.37 Q30.5842 646.538 33.7671 644.692 M46.212 664.648 Q52.6732 664.648 56.3653 662.006 Q60.0256 659.333 60.0256 654.686 Q60.0256 650.039 56.3653 647.365 Q52.6732 644.692 46.212 644.692 Q39.7508 644.692 36.0905 647.365 Q32.3984 650.039 32.3984 654.686 Q32.3984 659.333 36.0905 662.006 Q39.7508 664.648 46.212 664.648 Z" fill="#000000" fill-rule="nonzero" fill-opacity="1" /><path clip-path="url(#clip080)" d="M44.7161 596.28 L47.5806 596.28 L47.5806 623.207 Q53.6281 622.825 56.8109 619.579 Q59.9619 616.301 59.9619 610.476 Q59.9619 607.102 59.1344 603.951 Q58.3069 600.768 56.6518 597.649 L62.1899 597.649 Q63.5267 600.8 64.227 604.11 Q64.9272 607.42 64.9272 610.826 Q64.9272 619.356 59.9619 624.353 Q54.9967 629.318 46.5303 629.318 Q37.7774 629.318 32.6531 624.608 Q27.4968 619.865 27.4968 611.845 Q27.4968 604.651 32.1438 600.482 Q36.7589 596.28 44.7161 596.28 M42.9973 602.137 Q38.1912 602.201 35.3266 604.842 Q32.4621 607.452 32.4621 611.781 Q32.4621 616.683 35.2312 619.643 Q38.0002 622.571 43.0292 623.016 L42.9973 602.137 Z" fill="#000000" fill-rule="nonzero" fill-opacity="1" /><path clip-path="url(#clip080)" d="M42.4881 557.036 L64.0042 557.036 L64.0042 562.892 L42.679 562.892 Q37.6183 562.892 35.1038 564.866 Q32.5894 566.839 32.5894 570.786 Q32.5894 575.528 35.6131 578.265 Q38.6368 581.003 43.8567 581.003 L64.0042 581.003 L64.0042 586.891 L28.3562 586.891 L28.3562 581.003 L33.8944 581.003 Q30.6797 578.902 29.0883 576.069 Q27.4968 573.205 27.4968 569.481 Q27.4968 563.338 31.3163 560.187 Q35.1038 557.036 42.4881 557.036 Z" fill="#000000" fill-rule="nonzero" fill-opacity="1" /><path clip-path="url(#clip080)" d="M29.4065 522.629 L34.9447 522.629 Q33.6716 525.112 33.035 527.785 Q32.3984 530.459 32.3984 533.324 Q32.3984 537.684 33.7352 539.88 Q35.072 542.045 37.7456 542.045 Q39.7826 542.045 40.9603 540.485 Q42.1061 538.925 43.1565 534.215 L43.6021 532.21 Q44.9389 525.971 47.3897 523.361 Q49.8086 520.719 54.1691 520.719 Q59.1344 520.719 62.0308 524.666 Q64.9272 528.581 64.9272 535.456 Q64.9272 538.321 64.3543 541.44 Q63.8132 544.527 62.6992 547.965 L56.6518 547.965 Q58.3387 544.718 59.198 541.567 Q60.0256 538.416 60.0256 535.329 Q60.0256 531.191 58.6251 528.963 Q57.1929 526.735 54.6147 526.735 Q52.2276 526.735 50.9545 528.358 Q49.6813 529.95 48.5037 535.392 L48.0262 537.429 Q46.8804 542.872 44.5251 545.291 Q42.138 547.71 38.0002 547.71 Q32.9713 547.71 30.2341 544.145 Q27.4968 540.58 27.4968 534.024 Q27.4968 530.777 27.9743 527.913 Q28.4517 525.048 29.4065 522.629 Z" fill="#000000" fill-rule="nonzero" fill-opacity="1" /><path clip-path="url(#clip080)" d="M28.3562 511.394 L28.3562 505.537 L64.0042 505.537 L64.0042 511.394 L28.3562 511.394 M14.479 511.394 L14.479 505.537 L21.895 505.537 L21.895 511.394 L14.479 511.394 Z" fill="#000000" fill-rule="nonzero" fill-opacity="1" /><path clip-path="url(#clip080)" d="M18.2347 487.49 L28.3562 487.49 L28.3562 475.427 L32.9077 475.427 L32.9077 487.49 L52.2594 487.49 Q56.6199 487.49 57.8613 486.313 Q59.1026 485.103 59.1026 481.443 L59.1026 475.427 L64.0042 475.427 L64.0042 481.443 Q64.0042 488.223 61.4897 490.801 Q58.9434 493.379 52.2594 493.379 L32.9077 493.379 L32.9077 497.676 L28.3562 497.676 L28.3562 493.379 L18.2347 493.379 L18.2347 487.49 Z" fill="#000000" fill-rule="nonzero" fill-opacity="1" /><path clip-path="url(#clip080)" d="M67.3143 452.893 Q73.68 455.376 75.6216 457.731 Q77.5631 460.086 77.5631 464.033 L77.5631 468.712 L72.6615 468.712 L72.6615 465.274 Q72.6615 462.855 71.5157 461.518 Q70.3699 460.182 66.1048 458.558 L63.4312 457.508 L28.3562 471.926 L28.3562 465.72 L56.238 454.58 L28.3562 443.44 L28.3562 437.233 L67.3143 452.893 Z" fill="#000000" fill-rule="nonzero" fill-opacity="1" /><polyline clip-path="url(#clip082)" style="stroke:#009af9; stroke-linecap:round; stroke-linejoin:round; stroke-width:4; stroke-opacity:1; fill:none" points="264.778,1384.24 307.91,1384.19 351.041,1384.23 372.606,1384.23 394.172,1384.15 458.868,1384.17 480.434,1384.2 502,1384.06 523.565,1384.07 545.131,1383.94 566.696,1384 588.262,1384.08 609.827,1383.9 631.393,1383.79 652.959,1383.28 674.524,1383.83 696.09,1383.95 717.655,1383.82 739.221,1383.89 760.786,1383.62 782.352,1383.55 803.917,1383.3 825.483,1383.32 847.049,1383.07 868.614,1383.05 890.18,1382.7 911.745,1381.95 933.311,1381.81 954.876,1380.84 976.442,1380.63 998.007,1379.51 1019.57,1379.36 1041.14,1379.23 1062.7,1377.52 1084.27,1377.48 1105.84,1374.85 1127.4,1373.57 1148.97,1369.8 1170.53,1370.69 1192.1,1370.18 1213.66,1369.37 1235.23,1366.27 1256.79,1362.49 1278.36,1360.44 1299.93,1356.32 1321.49,1352.74 1343.06,1345.14 1364.62,1341.96 1386.19,1334.87 1407.75,1328.6 1429.32,1320.22 1450.88,1307.5 1472.45,1300.73 1494.02,1288.88 1515.58,1272.94 1537.15,1262.5 1558.71,1243.31 1580.28,1238.91 1601.84,1219.79 1623.41,1199.65 1644.97,1186.12 1666.54,1248.49 1688.11,1255.03 1709.67,1025.03 1731.24,1006.19 1752.8,1076.19 1774.37,1091.45 1795.93,1091.51 1817.5,1108.95 1839.06,1133.66 1860.63,1156 1882.2,1180.32 1903.76,1240.89 1925.33,1315.33 1946.89,1330.33 1968.46,1342.03 1990.02,1355.1 2011.59,1362.98 2033.15,1369.89 2054.72,1373.86 2076.29,1378.26 2097.85,1381.33 2119.42,1382.4 2140.98,1382.56 2162.55,1383.65 2184.11,1384.02 2205.68,1384.05 2227.24,1384.11 2248.81,1384.19 2270.38,1384.22 2291.94,1384.16 "/>
<polyline clip-path="url(#clip082)" style="stroke:#e26f46; stroke-linecap:round; stroke-linejoin:round; stroke-width:4; stroke-opacity:1; fill:none" points="264.778,1383.94 307.91,1383.86 351.041,1383.75 372.606,1383.68 394.172,1383.6 458.868,1383.31 480.434,1383.19 502,1383.05 523.565,1382.89 545.131,1382.71 566.696,1382.5 588.262,1382.27 609.827,1382 631.393,1381.7 652.959,1381.36 674.524,1380.98 696.09,1380.54 717.655,1380.05 739.221,1379.49 760.786,1378.85 782.352,1378.13 803.917,1377.31 825.483,1376.39 847.049,1375.34 868.614,1374.15 890.18,1372.8 911.745,1371.27 933.311,1369.54 954.876,1367.58 976.442,1365.36 998.007,1362.84 1019.57,1359.99 1041.14,1356.75 1062.7,1353.09 1084.27,1348.94 1105.84,1344.23 1127.4,1338.91 1148.97,1332.87 1170.53,1326.04 1192.1,1318.31 1213.66,1309.55 1235.23,1299.64 1256.79,1288.42 1278.36,1275.73 1299.93,1261.37 1321.49,1245.14 1343.06,1226.79 1364.62,1206.06 1386.19,1182.66 1407.75,1156.25 1429.32,1126.47 1450.88,1092.94 1472.45,1055.22 1494.02,1012.87 1515.58,965.401 1537.15,912.343 1558.71,853.244 1580.28,787.716 1601.84,715.513 1623.41,636.638 1644.97,551.52 1666.54,461.289 1688.11,368.177 1709.67,276.108 1731.24,191.449 1752.8,123.784 1774.37,86.1857 1795.93,93.8254 1817.5,159.459 1839.06,285.825 1860.63,459.49 1882.2,653.355 1903.76,838.36 1925.33,994.932 1946.89,1116.19 1968.46,1204.36 1990.02,1265.73 2011.59,1307.18 2033.15,1334.59 2054.72,1352.47 2076.29,1364.01 2097.85,1371.41 2119.42,1376.12 2140.98,1379.12 2162.55,1381.01 2184.11,1382.21 2205.68,1382.96 2227.24,1383.44 2248.81,1383.74 2270.38,1383.93 2291.94,1384.04 "/>
<path clip-path="url(#clip080)" d="M275.59 248.629 L824.773 248.629 L824.773 93.1086 L275.59 93.1086  Z" fill="#ffffff" fill-rule="evenodd" fill-opacity="1"/>
<polyline clip-path="url(#clip080)" style="stroke:#ffffff; stroke-linecap:round; stroke-linejoin:round; stroke-width:4; stroke-opacity:1; fill:none" points="275.59,248.629 824.773,248.629 824.773,93.1086 275.59,93.1086 275.59,248.629 "/>
<polyline clip-path="url(#clip080)" style="stroke:#009af9; stroke-linecap:round; stroke-linejoin:round; stroke-width:4; stroke-opacity:1; fill:none" points="299.465,144.949 442.718,144.949 "/>
<path clip-path="url(#clip080)" d="M466.594 127.669 L471.27 127.669 L471.27 141.835 L488.26 141.835 L488.26 127.669 L492.936 127.669 L492.936 162.229 L488.26 162.229 L488.26 145.77 L471.27 145.77 L471.27 162.229 L466.594 162.229 L466.594 127.669 Z" fill="#000000" fill-rule="nonzero" fill-opacity="1" /><path clip-path="url(#clip080)" d="M502.057 136.303 L506.316 136.303 L506.316 162.229 L502.057 162.229 L502.057 136.303 M502.057 126.21 L506.316 126.21 L506.316 131.604 L502.057 131.604 L502.057 126.21 Z" fill="#000000" fill-rule="nonzero" fill-opacity="1" /><path clip-path="url(#clip080)" d="M531.755 137.067 L531.755 141.094 Q529.95 140.169 528.005 139.706 Q526.061 139.243 523.978 139.243 Q520.806 139.243 519.209 140.215 Q517.635 141.187 517.635 143.131 Q517.635 144.613 518.769 145.469 Q519.904 146.303 523.33 147.067 L524.788 147.391 Q529.325 148.363 531.223 150.145 Q533.144 151.905 533.144 155.076 Q533.144 158.687 530.274 160.793 Q527.427 162.9 522.427 162.9 Q520.343 162.9 518.075 162.483 Q515.83 162.09 513.33 161.28 L513.33 156.881 Q515.691 158.108 517.982 158.733 Q520.274 159.335 522.519 159.335 Q525.529 159.335 527.149 158.317 Q528.769 157.275 528.769 155.4 Q528.769 153.664 527.589 152.738 Q526.431 151.812 522.473 150.956 L520.992 150.608 Q517.033 149.775 515.274 148.062 Q513.515 146.326 513.515 143.317 Q513.515 139.659 516.107 137.669 Q518.7 135.678 523.468 135.678 Q525.83 135.678 527.913 136.025 Q529.996 136.372 531.755 137.067 Z" fill="#000000" fill-rule="nonzero" fill-opacity="1" /><path clip-path="url(#clip080)" d="M544.14 128.942 L544.14 136.303 L552.913 136.303 L552.913 139.613 L544.14 139.613 L544.14 153.687 Q544.14 156.858 544.996 157.761 Q545.876 158.664 548.538 158.664 L552.913 158.664 L552.913 162.229 L548.538 162.229 Q543.607 162.229 541.732 160.4 Q539.857 158.548 539.857 153.687 L539.857 139.613 L536.732 139.613 L536.732 136.303 L539.857 136.303 L539.857 128.942 L544.14 128.942 Z" fill="#000000" fill-rule="nonzero" fill-opacity="1" /><path clip-path="url(#clip080)" d="M568.561 139.289 Q565.135 139.289 563.144 141.974 Q561.153 144.636 561.153 149.289 Q561.153 153.942 563.121 156.627 Q565.112 159.289 568.561 159.289 Q571.964 159.289 573.954 156.604 Q575.945 153.918 575.945 149.289 Q575.945 144.682 573.954 141.997 Q571.964 139.289 568.561 139.289 M568.561 135.678 Q574.116 135.678 577.288 139.289 Q580.459 142.9 580.459 149.289 Q580.459 155.655 577.288 159.289 Q574.116 162.9 568.561 162.9 Q562.982 162.9 559.811 159.289 Q556.663 155.655 556.663 149.289 Q556.663 142.9 559.811 139.289 Q562.982 135.678 568.561 135.678 Z" fill="#000000" fill-rule="nonzero" fill-opacity="1" /><path clip-path="url(#clip080)" d="M604.579 148.965 Q604.579 144.335 602.658 141.789 Q600.76 139.243 597.311 139.243 Q593.885 139.243 591.963 141.789 Q590.065 144.335 590.065 148.965 Q590.065 153.571 591.963 156.118 Q593.885 158.664 597.311 158.664 Q600.76 158.664 602.658 156.118 Q604.579 153.571 604.579 148.965 M608.838 159.011 Q608.838 165.631 605.899 168.849 Q602.959 172.09 596.894 172.09 Q594.649 172.09 592.658 171.742 Q590.667 171.418 588.792 170.724 L588.792 166.58 Q590.667 167.599 592.496 168.085 Q594.325 168.571 596.223 168.571 Q600.412 168.571 602.496 166.372 Q604.579 164.196 604.579 159.775 L604.579 157.668 Q603.26 159.96 601.2 161.094 Q599.139 162.229 596.269 162.229 Q591.5 162.229 588.584 158.594 Q585.667 154.96 585.667 148.965 Q585.667 142.946 588.584 139.312 Q591.5 135.678 596.269 135.678 Q599.139 135.678 601.2 136.812 Q603.26 137.946 604.579 140.238 L604.579 136.303 L608.838 136.303 L608.838 159.011 Z" fill="#000000" fill-rule="nonzero" fill-opacity="1" /><path clip-path="url(#clip080)" d="M632.635 140.284 Q631.917 139.868 631.06 139.682 Q630.227 139.474 629.209 139.474 Q625.598 139.474 623.653 141.835 Q621.732 144.173 621.732 148.571 L621.732 162.229 L617.449 162.229 L617.449 136.303 L621.732 136.303 L621.732 140.331 Q623.074 137.969 625.227 136.835 Q627.38 135.678 630.459 135.678 Q630.898 135.678 631.431 135.747 Q631.963 135.794 632.611 135.909 L632.635 140.284 Z" fill="#000000" fill-rule="nonzero" fill-opacity="1" /><path clip-path="url(#clip080)" d="M648.884 149.196 Q643.722 149.196 641.732 150.377 Q639.741 151.557 639.741 154.405 Q639.741 156.673 641.222 158.016 Q642.727 159.335 645.296 159.335 Q648.838 159.335 650.968 156.835 Q653.121 154.312 653.121 150.145 L653.121 149.196 L648.884 149.196 M657.38 147.437 L657.38 162.229 L653.121 162.229 L653.121 158.293 Q651.662 160.655 649.486 161.789 Q647.31 162.9 644.162 162.9 Q640.181 162.9 637.82 160.678 Q635.482 158.432 635.482 154.682 Q635.482 150.307 638.398 148.085 Q641.338 145.863 647.148 145.863 L653.121 145.863 L653.121 145.446 Q653.121 142.507 651.176 140.909 Q649.255 139.289 645.759 139.289 Q643.537 139.289 641.431 139.821 Q639.324 140.354 637.38 141.419 L637.38 137.483 Q639.718 136.581 641.917 136.141 Q644.116 135.678 646.199 135.678 Q651.824 135.678 654.602 138.594 Q657.38 141.511 657.38 147.437 Z" fill="#000000" fill-rule="nonzero" fill-opacity="1" /><path clip-path="url(#clip080)" d="M686.338 141.28 Q687.935 138.409 690.157 137.044 Q692.38 135.678 695.389 135.678 Q699.44 135.678 701.639 138.525 Q703.838 141.349 703.838 146.581 L703.838 162.229 L699.555 162.229 L699.555 146.719 Q699.555 142.993 698.236 141.187 Q696.917 139.382 694.208 139.382 Q690.898 139.382 688.977 141.581 Q687.056 143.78 687.056 147.576 L687.056 162.229 L682.773 162.229 L682.773 146.719 Q682.773 142.969 681.454 141.187 Q680.134 139.382 677.38 139.382 Q674.116 139.382 672.194 141.604 Q670.273 143.803 670.273 147.576 L670.273 162.229 L665.991 162.229 L665.991 136.303 L670.273 136.303 L670.273 140.331 Q671.732 137.946 673.769 136.812 Q675.806 135.678 678.607 135.678 Q681.431 135.678 683.398 137.113 Q685.389 138.548 686.338 141.28 Z" fill="#000000" fill-rule="nonzero" fill-opacity="1" /><polyline clip-path="url(#clip080)" style="stroke:#e26f46; stroke-linecap:round; stroke-linejoin:round; stroke-width:4; stroke-opacity:1; fill:none" points="299.465,196.789 442.718,196.789 "/>
<path clip-path="url(#clip080)" d="M471.27 183.351 L471.27 210.226 L476.918 210.226 Q484.071 210.226 487.381 206.985 Q490.714 203.745 490.714 196.754 Q490.714 189.809 487.381 186.592 Q484.071 183.351 476.918 183.351 L471.27 183.351 M466.594 179.509 L476.2 179.509 Q486.246 179.509 490.945 183.698 Q495.645 187.865 495.645 196.754 Q495.645 205.689 490.922 209.879 Q486.2 214.069 476.2 214.069 L466.594 214.069 L466.594 179.509 Z" fill="#000000" fill-rule="nonzero" fill-opacity="1" /><path clip-path="url(#clip080)" d="M502.913 188.143 L507.172 188.143 L507.172 214.069 L502.913 214.069 L502.913 188.143 M502.913 178.05 L507.172 178.05 L507.172 183.444 L502.913 183.444 L502.913 178.05 Z" fill="#000000" fill-rule="nonzero" fill-opacity="1" /><path clip-path="url(#clip080)" d="M532.612 188.907 L532.612 192.934 Q530.806 192.009 528.862 191.546 Q526.917 191.083 524.834 191.083 Q521.663 191.083 520.066 192.055 Q518.492 193.027 518.492 194.971 Q518.492 196.453 519.626 197.309 Q520.76 198.143 524.186 198.907 L525.644 199.231 Q530.181 200.203 532.08 201.985 Q534.001 203.745 534.001 206.916 Q534.001 210.527 531.13 212.633 Q528.283 214.74 523.283 214.74 Q521.2 214.74 518.931 214.323 Q516.686 213.93 514.186 213.12 L514.186 208.721 Q516.547 209.948 518.839 210.573 Q521.13 211.175 523.376 211.175 Q526.385 211.175 528.005 210.157 Q529.626 209.115 529.626 207.24 Q529.626 205.504 528.445 204.578 Q527.288 203.652 523.33 202.796 L521.848 202.448 Q517.89 201.615 516.131 199.902 Q514.371 198.166 514.371 195.157 Q514.371 191.499 516.964 189.509 Q519.556 187.518 524.325 187.518 Q526.686 187.518 528.769 187.865 Q530.853 188.212 532.612 188.907 Z" fill="#000000" fill-rule="nonzero" fill-opacity="1" /><path clip-path="url(#clip080)" d="M544.996 180.782 L544.996 188.143 L553.769 188.143 L553.769 191.453 L544.996 191.453 L544.996 205.527 Q544.996 208.698 545.853 209.601 Q546.732 210.504 549.394 210.504 L553.769 210.504 L553.769 214.069 L549.394 214.069 Q544.464 214.069 542.589 212.24 Q540.714 210.388 540.714 205.527 L540.714 191.453 L537.589 191.453 L537.589 188.143 L540.714 188.143 L540.714 180.782 L544.996 180.782 Z" fill="#000000" fill-rule="nonzero" fill-opacity="1" /><path clip-path="url(#clip080)" d="M574.394 192.124 Q573.677 191.708 572.82 191.522 Q571.987 191.314 570.968 191.314 Q567.357 191.314 565.413 193.675 Q563.491 196.013 563.491 200.411 L563.491 214.069 L559.209 214.069 L559.209 188.143 L563.491 188.143 L563.491 192.171 Q564.834 189.809 566.987 188.675 Q569.139 187.518 572.218 187.518 Q572.658 187.518 573.19 187.587 Q573.723 187.634 574.371 187.749 L574.394 192.124 Z" fill="#000000" fill-rule="nonzero" fill-opacity="1" /><path clip-path="url(#clip080)" d="M578.862 188.143 L583.121 188.143 L583.121 214.069 L578.862 214.069 L578.862 188.143 M578.862 178.05 L583.121 178.05 L583.121 183.444 L578.862 183.444 L578.862 178.05 Z" fill="#000000" fill-rule="nonzero" fill-opacity="1" /><path clip-path="url(#clip080)" d="M610.644 201.129 Q610.644 196.43 608.699 193.768 Q606.778 191.083 603.399 191.083 Q600.019 191.083 598.075 193.768 Q596.153 196.43 596.153 201.129 Q596.153 205.828 598.075 208.513 Q600.019 211.175 603.399 211.175 Q606.778 211.175 608.699 208.513 Q610.644 205.828 610.644 201.129 M596.153 192.078 Q597.496 189.763 599.533 188.652 Q601.593 187.518 604.44 187.518 Q609.162 187.518 612.102 191.268 Q615.065 195.018 615.065 201.129 Q615.065 207.24 612.102 210.99 Q609.162 214.74 604.44 214.74 Q601.593 214.74 599.533 213.629 Q597.496 212.495 596.153 210.18 L596.153 214.069 L591.871 214.069 L591.871 178.05 L596.153 178.05 L596.153 192.078 Z" fill="#000000" fill-rule="nonzero" fill-opacity="1" /><path clip-path="url(#clip080)" d="M621.686 203.837 L621.686 188.143 L625.945 188.143 L625.945 203.675 Q625.945 207.356 627.38 209.208 Q628.815 211.036 631.685 211.036 Q635.135 211.036 637.125 208.837 Q639.139 206.638 639.139 202.842 L639.139 188.143 L643.398 188.143 L643.398 214.069 L639.139 214.069 L639.139 210.087 Q637.588 212.448 635.528 213.606 Q633.491 214.74 630.783 214.74 Q626.315 214.74 624 211.962 Q621.686 209.184 621.686 203.837 M632.403 187.518 L632.403 187.518 Z" fill="#000000" fill-rule="nonzero" fill-opacity="1" /><path clip-path="url(#clip080)" d="M656.384 180.782 L656.384 188.143 L665.157 188.143 L665.157 191.453 L656.384 191.453 L656.384 205.527 Q656.384 208.698 657.241 209.601 Q658.12 210.504 660.783 210.504 L665.157 210.504 L665.157 214.069 L660.783 214.069 Q655.852 214.069 653.977 212.24 Q652.102 210.388 652.102 205.527 L652.102 191.453 L648.977 191.453 L648.977 188.143 L652.102 188.143 L652.102 180.782 L656.384 180.782 Z" fill="#000000" fill-rule="nonzero" fill-opacity="1" /><path clip-path="url(#clip080)" d="M670.759 188.143 L675.019 188.143 L675.019 214.069 L670.759 214.069 L670.759 188.143 M670.759 178.05 L675.019 178.05 L675.019 183.444 L670.759 183.444 L670.759 178.05 Z" fill="#000000" fill-rule="nonzero" fill-opacity="1" /><path clip-path="url(#clip080)" d="M693.977 191.129 Q690.551 191.129 688.56 193.814 Q686.569 196.476 686.569 201.129 Q686.569 205.782 688.537 208.467 Q690.528 211.129 693.977 211.129 Q697.38 211.129 699.37 208.444 Q701.361 205.758 701.361 201.129 Q701.361 196.522 699.37 193.837 Q697.38 191.129 693.977 191.129 M693.977 187.518 Q699.532 187.518 702.704 191.129 Q705.875 194.74 705.875 201.129 Q705.875 207.495 702.704 211.129 Q699.532 214.74 693.977 214.74 Q688.398 214.74 685.227 211.129 Q682.079 207.495 682.079 201.129 Q682.079 194.74 685.227 191.129 Q688.398 187.518 693.977 187.518 Z" fill="#000000" fill-rule="nonzero" fill-opacity="1" /><path clip-path="url(#clip080)" d="M734.486 198.421 L734.486 214.069 L730.227 214.069 L730.227 198.559 Q730.227 194.879 728.791 193.05 Q727.356 191.222 724.486 191.222 Q721.037 191.222 719.046 193.421 Q717.055 195.62 717.055 199.416 L717.055 214.069 L712.773 214.069 L712.773 188.143 L717.055 188.143 L717.055 192.171 Q718.583 189.833 720.643 188.675 Q722.727 187.518 725.435 187.518 Q729.903 187.518 732.194 190.296 Q734.486 193.05 734.486 198.421 Z" fill="#000000" fill-rule="nonzero" fill-opacity="1" /><path clip-path="url(#clip080)" d="M771.175 178.05 L771.175 181.592 L767.101 181.592 Q764.81 181.592 763.907 182.518 Q763.027 183.444 763.027 185.851 L763.027 188.143 L770.041 188.143 L770.041 191.453 L763.027 191.453 L763.027 214.069 L758.745 214.069 L758.745 191.453 L754.671 191.453 L754.671 188.143 L758.745 188.143 L758.745 186.337 Q758.745 182.009 760.759 180.041 Q762.773 178.05 767.148 178.05 L771.175 178.05 Z" fill="#000000" fill-rule="nonzero" fill-opacity="1" /><path clip-path="url(#clip080)" d="M774.74 188.143 L778.999 188.143 L778.999 214.069 L774.74 214.069 L774.74 188.143 M774.74 178.05 L778.999 178.05 L778.999 183.444 L774.74 183.444 L774.74 178.05 Z" fill="#000000" fill-rule="nonzero" fill-opacity="1" /><path clip-path="url(#clip080)" d="M792.124 180.782 L792.124 188.143 L800.898 188.143 L800.898 191.453 L792.124 191.453 L792.124 205.527 Q792.124 208.698 792.981 209.601 Q793.861 210.504 796.523 210.504 L800.898 210.504 L800.898 214.069 L796.523 214.069 Q791.592 214.069 789.717 212.24 Q787.842 210.388 787.842 205.527 L787.842 191.453 L784.717 191.453 L784.717 188.143 L787.842 188.143 L787.842 180.782 L792.124 180.782 Z" fill="#000000" fill-rule="nonzero" fill-opacity="1" /></svg>
