<?xml version="1.0" encoding="utf-8"?>
<svg xmlns="http://www.w3.org/2000/svg" xmlns:xlink="http://www.w3.org/1999/xlink" width="600" height="400" viewBox="0 0 2400 1600">
<defs>
  <clipPath id="clip940">
    <rect x="0" y="0" width="2400" height="1600"/>
  </clipPath>
</defs>
<path clip-path="url(#clip940)" d="M0 1600 L2400 1600 L2400 8.88178e-14 L0 8.88178e-14  Z" fill="#ffffff" fill-rule="evenodd" fill-opacity="1"/>
<defs>
  <clipPath id="clip941">
    <rect x="480" y="0" width="1681" height="1600"/>
  </clipPath>
</defs>
<path clip-path="url(#clip940)" d="M249.519 1552.76 L2352.76 1552.76 L2352.76 47.2441 L249.519 47.2441  Z" fill="#ffffff" fill-rule="evenodd" fill-opacity="1"/>
<defs>
  <clipPath id="clip942">
    <rect x="249" y="47" width="2104" height="1507"/>
  </clipPath>
</defs>
<polyline clip-path="url(#clip942)" style="stroke:#000000; stroke-linecap:round; stroke-linejoin:round; stroke-width:2; stroke-opacity:0.1; fill:none" points="249.519,1510.15 2352.76,1510.15 "/>
<polyline clip-path="url(#clip942)" style="stroke:#000000; stroke-linecap:round; stroke-linejoin:round; stroke-width:2; stroke-opacity:0.1; fill:none" points="249.519,1141.24 2352.76,1141.24 "/>
<polyline clip-path="url(#clip942)" style="stroke:#000000; stroke-linecap:round; stroke-linejoin:round; stroke-width:2; stroke-opacity:0.1; fill:none" points="249.519,772.332 2352.76,772.332 "/>
<polyline clip-path="url(#clip942)" style="stroke:#000000; stroke-linecap:round; stroke-linejoin:round; stroke-width:2; stroke-opacity:0.1; fill:none" points="249.519,403.424 2352.76,403.424 "/>
<polyline clip-path="url(#clip942)" style="stroke:#000000; stroke-linecap:round; stroke-linejoin:round; stroke-width:2; stroke-opacity:0.1; fill:none" points="249.519,1510.15 2352.76,1510.15 "/>
<polyline clip-path="url(#clip942)" style="stroke:#000000; stroke-linecap:round; stroke-linejoin:round; stroke-width:2; stroke-opacity:0.1; fill:none" points="249.519,1141.24 2352.76,1141.24 "/>
<polyline clip-path="url(#clip942)" style="stroke:#000000; stroke-linecap:round; stroke-linejoin:round; stroke-width:2; stroke-opacity:0.1; fill:none" points="249.519,772.332 2352.76,772.332 "/>
<polyline clip-path="url(#clip942)" style="stroke:#000000; stroke-linecap:round; stroke-linejoin:round; stroke-width:2; stroke-opacity:0.1; fill:none" points="249.519,403.424 2352.76,403.424 "/>
<polyline clip-path="url(#clip940)" style="stroke:#000000; stroke-linecap:round; stroke-linejoin:round; stroke-width:4; stroke-opacity:1; fill:none" points="249.519,1552.76 2352.76,1552.76 "/>
<polyline clip-path="url(#clip940)" style="stroke:#000000; stroke-linecap:round; stroke-linejoin:round; stroke-width:4; stroke-opacity:1; fill:none" points="249.519,47.2441 2352.76,47.2441 "/>
<polyline clip-path="url(#clip940)" style="stroke:#000000; stroke-linecap:round; stroke-linejoin:round; stroke-width:4; stroke-opacity:1; fill:none" points="249.519,1552.76 249.519,47.2441 "/>
<polyline clip-path="url(#clip940)" style="stroke:#000000; stroke-linecap:round; stroke-linejoin:round; stroke-width:4; stroke-opacity:1; fill:none" points="2352.76,1552.76 2352.76,47.2441 "/>
<polyline clip-path="url(#clip940)" style="stroke:#000000; stroke-linecap:round; stroke-linejoin:round; stroke-width:4; stroke-opacity:1; fill:none" points="249.519,1510.15 268.417,1510.15 "/>
<polyline clip-path="url(#clip940)" style="stroke:#000000; stroke-linecap:round; stroke-linejoin:round; stroke-width:4; stroke-opacity:1; fill:none" points="249.519,1141.24 268.417,1141.24 "/>
<polyline clip-path="url(#clip940)" style="stroke:#000000; stroke-linecap:round; stroke-linejoin:round; stroke-width:4; stroke-opacity:1; fill:none" points="249.519,772.332 268.417,772.332 "/>
<polyline clip-path="url(#clip940)" style="stroke:#000000; stroke-linecap:round; stroke-linejoin:round; stroke-width:4; stroke-opacity:1; fill:none" points="249.519,403.424 268.417,403.424 "/>
<polyline clip-path="url(#clip940)" style="stroke:#000000; stroke-linecap:round; stroke-linejoin:round; stroke-width:4; stroke-opacity:1; fill:none" points="2352.76,1510.15 2333.86,1510.15 "/>
<polyline clip-path="url(#clip940)" style="stroke:#000000; stroke-linecap:round; stroke-linejoin:round; stroke-width:4; stroke-opacity:1; fill:none" points="2352.76,1141.24 2333.86,1141.24 "/>
<polyline clip-path="url(#clip940)" style="stroke:#000000; stroke-linecap:round; stroke-linejoin:round; stroke-width:4; stroke-opacity:1; fill:none" points="2352.76,772.332 2333.86,772.332 "/>
<polyline clip-path="url(#clip940)" style="stroke:#000000; stroke-linecap:round; stroke-linejoin:round; stroke-width:4; stroke-opacity:1; fill:none" points="2352.76,403.424 2333.86,403.424 "/>
<path clip-path="url(#clip940)" d="M126.598 1508.28 Q123.45 1508.28 121.598 1510.44 Q119.769 1512.59 119.769 1516.34 Q119.769 1520.07 121.598 1522.24 Q123.45 1524.39 126.598 1524.39 Q129.746 1524.39 131.575 1522.24 Q133.427 1520.07 133.427 1516.34 Q133.427 1512.59 131.575 1510.44 Q129.746 1508.28 126.598 1508.28 M135.88 1493.63 L135.88 1497.89 Q134.121 1497.06 132.316 1496.62 Q130.533 1496.18 128.774 1496.18 Q124.144 1496.18 121.691 1499.3 Q119.26 1502.43 118.913 1508.75 Q120.279 1506.73 122.339 1505.67 Q124.399 1504.58 126.876 1504.58 Q132.084 1504.58 135.093 1507.75 Q138.126 1510.9 138.126 1516.34 Q138.126 1521.66 134.978 1524.88 Q131.83 1528.1 126.598 1528.1 Q120.603 1528.1 117.431 1523.52 Q114.26 1518.91 114.26 1510.18 Q114.26 1501.99 118.149 1497.13 Q122.038 1492.24 128.589 1492.24 Q130.348 1492.24 132.13 1492.59 Q133.936 1492.94 135.88 1493.63 Z" fill="#000000" fill-rule="nonzero" fill-opacity="1" /><path clip-path="url(#clip940)" d="M146.228 1492.87 L164.584 1492.87 L164.584 1496.8 L150.51 1496.8 L150.51 1505.27 Q151.528 1504.93 152.547 1504.77 Q153.566 1504.58 154.584 1504.58 Q160.371 1504.58 163.751 1507.75 Q167.13 1510.92 167.13 1516.34 Q167.13 1521.92 163.658 1525.02 Q160.186 1528.1 153.866 1528.1 Q151.691 1528.1 149.422 1527.73 Q147.177 1527.36 144.769 1526.62 L144.769 1521.92 Q146.853 1523.05 149.075 1523.61 Q151.297 1524.16 153.774 1524.16 Q157.778 1524.16 160.116 1522.06 Q162.454 1519.95 162.454 1516.34 Q162.454 1512.73 160.116 1510.62 Q157.778 1508.52 153.774 1508.52 Q151.899 1508.52 150.024 1508.93 Q148.172 1509.35 146.228 1510.23 L146.228 1492.87 Z" fill="#000000" fill-rule="nonzero" fill-opacity="1" /><path clip-path="url(#clip940)" d="M176.343 1521.55 L181.227 1521.55 L181.227 1527.43 L176.343 1527.43 L176.343 1521.55 Z" fill="#000000" fill-rule="nonzero" fill-opacity="1" /><path clip-path="url(#clip940)" d="M201.991 1508.28 Q198.843 1508.28 196.991 1510.44 Q195.163 1512.59 195.163 1516.34 Q195.163 1520.07 196.991 1522.24 Q198.843 1524.39 201.991 1524.39 Q205.139 1524.39 206.968 1522.24 Q208.82 1520.07 208.82 1516.34 Q208.82 1512.59 206.968 1510.44 Q205.139 1508.28 201.991 1508.28 M211.274 1493.63 L211.274 1497.89 Q209.514 1497.06 207.709 1496.62 Q205.926 1496.18 204.167 1496.18 Q199.537 1496.18 197.084 1499.3 Q194.653 1502.43 194.306 1508.75 Q195.672 1506.73 197.732 1505.67 Q199.792 1504.58 202.269 1504.58 Q207.477 1504.58 210.486 1507.75 Q213.519 1510.9 213.519 1516.34 Q213.519 1521.66 210.371 1524.88 Q207.223 1528.1 201.991 1528.1 Q195.996 1528.1 192.825 1523.52 Q189.653 1518.91 189.653 1510.18 Q189.653 1501.99 193.542 1497.13 Q197.431 1492.24 203.982 1492.24 Q205.741 1492.24 207.524 1492.59 Q209.329 1492.94 211.274 1493.63 Z" fill="#000000" fill-rule="nonzero" fill-opacity="1" /><path clip-path="url(#clip940)" d="M126.853 1139.38 Q123.705 1139.38 121.853 1141.53 Q120.024 1143.68 120.024 1147.43 Q120.024 1151.16 121.853 1153.33 Q123.705 1155.49 126.853 1155.49 Q130.001 1155.49 131.83 1153.33 Q133.681 1151.16 133.681 1147.43 Q133.681 1143.68 131.83 1141.53 Q130.001 1139.38 126.853 1139.38 M136.135 1124.72 L136.135 1128.98 Q134.376 1128.15 132.57 1127.71 Q130.788 1127.27 129.029 1127.27 Q124.399 1127.27 121.945 1130.39 Q119.515 1133.52 119.168 1139.84 Q120.533 1137.83 122.593 1136.76 Q124.654 1135.67 127.13 1135.67 Q132.339 1135.67 135.348 1138.84 Q138.38 1141.99 138.38 1147.43 Q138.38 1152.76 135.232 1155.97 Q132.084 1159.19 126.853 1159.19 Q120.857 1159.19 117.686 1154.61 Q114.515 1150 114.515 1141.27 Q114.515 1133.08 118.404 1128.22 Q122.293 1123.33 128.843 1123.33 Q130.603 1123.33 132.385 1123.68 Q134.191 1124.03 136.135 1124.72 Z" fill="#000000" fill-rule="nonzero" fill-opacity="1" /><path clip-path="url(#clip940)" d="M146.482 1123.96 L164.839 1123.96 L164.839 1127.89 L150.765 1127.89 L150.765 1136.37 Q151.783 1136.02 152.802 1135.86 Q153.82 1135.67 154.839 1135.67 Q160.626 1135.67 164.005 1138.84 Q167.385 1142.01 167.385 1147.43 Q167.385 1153.01 163.913 1156.11 Q160.44 1159.19 154.121 1159.19 Q151.945 1159.19 149.677 1158.82 Q147.431 1158.45 145.024 1157.71 L145.024 1153.01 Q147.107 1154.14 149.329 1154.7 Q151.552 1155.26 154.028 1155.26 Q158.033 1155.26 160.371 1153.15 Q162.709 1151.04 162.709 1147.43 Q162.709 1143.82 160.371 1141.71 Q158.033 1139.61 154.028 1139.61 Q152.153 1139.61 150.278 1140.02 Q148.427 1140.44 146.482 1141.32 L146.482 1123.96 Z" fill="#000000" fill-rule="nonzero" fill-opacity="1" /><path clip-path="url(#clip940)" d="M176.598 1152.64 L181.482 1152.64 L181.482 1158.52 L176.598 1158.52 L176.598 1152.64 Z" fill="#000000" fill-rule="nonzero" fill-opacity="1" /><path clip-path="url(#clip940)" d="M201.667 1142.11 Q198.334 1142.11 196.412 1143.89 Q194.514 1145.67 194.514 1148.8 Q194.514 1151.92 196.412 1153.7 Q198.334 1155.49 201.667 1155.49 Q205 1155.49 206.922 1153.7 Q208.843 1151.9 208.843 1148.8 Q208.843 1145.67 206.922 1143.89 Q205.024 1142.11 201.667 1142.11 M196.991 1140.12 Q193.982 1139.38 192.292 1137.32 Q190.625 1135.26 190.625 1132.29 Q190.625 1128.15 193.565 1125.74 Q196.528 1123.33 201.667 1123.33 Q206.829 1123.33 209.769 1125.74 Q212.709 1128.15 212.709 1132.29 Q212.709 1135.26 211.019 1137.32 Q209.352 1139.38 206.366 1140.12 Q209.746 1140.9 211.621 1143.2 Q213.519 1145.49 213.519 1148.8 Q213.519 1153.82 210.44 1156.51 Q207.385 1159.19 201.667 1159.19 Q195.95 1159.19 192.871 1156.51 Q189.815 1153.82 189.815 1148.8 Q189.815 1145.49 191.713 1143.2 Q193.612 1140.9 196.991 1140.12 M195.278 1132.73 Q195.278 1135.42 196.945 1136.92 Q198.635 1138.43 201.667 1138.43 Q204.676 1138.43 206.366 1136.92 Q208.079 1135.42 208.079 1132.73 Q208.079 1130.05 206.366 1128.54 Q204.676 1127.04 201.667 1127.04 Q198.635 1127.04 196.945 1128.54 Q195.278 1130.05 195.278 1132.73 Z" fill="#000000" fill-rule="nonzero" fill-opacity="1" /><path clip-path="url(#clip940)" d="M126.76 770.469 Q123.612 770.469 121.76 772.621 Q119.931 774.774 119.931 778.524 Q119.931 782.251 121.76 784.427 Q123.612 786.58 126.76 786.58 Q129.908 786.58 131.737 784.427 Q133.589 782.251 133.589 778.524 Q133.589 774.774 131.737 772.621 Q129.908 770.469 126.76 770.469 M136.042 755.816 L136.042 760.075 Q134.283 759.242 132.478 758.802 Q130.695 758.362 128.936 758.362 Q124.306 758.362 121.853 761.487 Q119.422 764.612 119.075 770.931 Q120.441 768.918 122.501 767.853 Q124.561 766.765 127.038 766.765 Q132.246 766.765 135.255 769.936 Q138.288 773.084 138.288 778.524 Q138.288 783.848 135.14 787.066 Q131.992 790.283 126.76 790.283 Q120.765 790.283 117.593 785.7 Q114.422 781.093 114.422 772.367 Q114.422 764.172 118.311 759.311 Q122.2 754.427 128.751 754.427 Q130.51 754.427 132.292 754.774 Q134.098 755.121 136.042 755.816 Z" fill="#000000" fill-rule="nonzero" fill-opacity="1" /><path clip-path="url(#clip940)" d="M156.922 770.469 Q153.774 770.469 151.922 772.621 Q150.093 774.774 150.093 778.524 Q150.093 782.251 151.922 784.427 Q153.774 786.58 156.922 786.58 Q160.07 786.58 161.899 784.427 Q163.751 782.251 163.751 778.524 Q163.751 774.774 161.899 772.621 Q160.07 770.469 156.922 770.469 M166.204 755.816 L166.204 760.075 Q164.445 759.242 162.64 758.802 Q160.857 758.362 159.098 758.362 Q154.468 758.362 152.015 761.487 Q149.584 764.612 149.237 770.931 Q150.603 768.918 152.663 767.853 Q154.723 766.765 157.2 766.765 Q162.408 766.765 165.417 769.936 Q168.45 773.084 168.45 778.524 Q168.45 783.848 165.302 787.066 Q162.153 790.283 156.922 790.283 Q150.927 790.283 147.755 785.7 Q144.584 781.093 144.584 772.367 Q144.584 764.172 148.473 759.311 Q152.362 754.427 158.913 754.427 Q160.672 754.427 162.454 754.774 Q164.26 755.121 166.204 755.816 Z" fill="#000000" fill-rule="nonzero" fill-opacity="1" /><path clip-path="url(#clip940)" d="M176.505 783.732 L181.389 783.732 L181.389 789.612 L176.505 789.612 L176.505 783.732 Z" fill="#000000" fill-rule="nonzero" fill-opacity="1" /><path clip-path="url(#clip940)" d="M201.575 758.131 Q197.963 758.131 196.135 761.695 Q194.329 765.237 194.329 772.367 Q194.329 779.473 196.135 783.038 Q197.963 786.58 201.575 786.58 Q205.209 786.58 207.014 783.038 Q208.843 779.473 208.843 772.367 Q208.843 765.237 207.014 761.695 Q205.209 758.131 201.575 758.131 M201.575 754.427 Q207.385 754.427 210.44 759.033 Q213.519 763.617 213.519 772.367 Q213.519 781.093 210.44 785.7 Q207.385 790.283 201.575 790.283 Q195.764 790.283 192.686 785.7 Q189.63 781.093 189.63 772.367 Q189.63 763.617 192.686 759.033 Q195.764 754.427 201.575 754.427 Z" fill="#000000" fill-rule="nonzero" fill-opacity="1" /><path clip-path="url(#clip940)" d="M128.357 401.561 Q125.209 401.561 123.357 403.714 Q121.529 405.866 121.529 409.616 Q121.529 413.343 123.357 415.519 Q125.209 417.672 128.357 417.672 Q131.505 417.672 133.334 415.519 Q135.186 413.343 135.186 409.616 Q135.186 405.866 133.334 403.714 Q131.505 401.561 128.357 401.561 M137.64 386.908 L137.64 391.167 Q135.88 390.334 134.075 389.894 Q132.292 389.455 130.533 389.455 Q125.904 389.455 123.45 392.58 Q121.019 395.704 120.672 402.024 Q122.038 400.01 124.098 398.945 Q126.158 397.857 128.635 397.857 Q133.843 397.857 136.853 401.029 Q139.885 404.177 139.885 409.616 Q139.885 414.94 136.737 418.158 Q133.589 421.376 128.357 421.376 Q122.362 421.376 119.191 416.792 Q116.019 412.186 116.019 403.459 Q116.019 395.265 119.908 390.404 Q123.797 385.519 130.348 385.519 Q132.107 385.519 133.89 385.867 Q135.695 386.214 137.64 386.908 Z" fill="#000000" fill-rule="nonzero" fill-opacity="1" /><path clip-path="url(#clip940)" d="M158.519 401.561 Q155.371 401.561 153.519 403.714 Q151.691 405.866 151.691 409.616 Q151.691 413.343 153.519 415.519 Q155.371 417.672 158.519 417.672 Q161.667 417.672 163.496 415.519 Q165.348 413.343 165.348 409.616 Q165.348 405.866 163.496 403.714 Q161.667 401.561 158.519 401.561 M167.802 386.908 L167.802 391.167 Q166.042 390.334 164.237 389.894 Q162.454 389.455 160.695 389.455 Q156.065 389.455 153.612 392.58 Q151.181 395.704 150.834 402.024 Q152.2 400.01 154.26 398.945 Q156.32 397.857 158.797 397.857 Q164.005 397.857 167.015 401.029 Q170.047 404.177 170.047 409.616 Q170.047 414.94 166.899 418.158 Q163.751 421.376 158.519 421.376 Q152.524 421.376 149.353 416.792 Q146.181 412.186 146.181 403.459 Q146.181 395.265 150.07 390.404 Q153.959 385.519 160.51 385.519 Q162.269 385.519 164.052 385.867 Q165.857 386.214 167.802 386.908 Z" fill="#000000" fill-rule="nonzero" fill-opacity="1" /><path clip-path="url(#clip940)" d="M178.102 414.825 L182.987 414.825 L182.987 420.704 L178.102 420.704 L178.102 414.825 Z" fill="#000000" fill-rule="nonzero" fill-opacity="1" /><path clip-path="url(#clip940)" d="M197.2 416.769 L213.519 416.769 L213.519 420.704 L191.575 420.704 L191.575 416.769 Q194.237 414.015 198.82 409.385 Q203.426 404.732 204.607 403.39 Q206.852 400.867 207.732 399.13 Q208.635 397.371 208.635 395.681 Q208.635 392.927 206.69 391.191 Q204.769 389.455 201.667 389.455 Q199.468 389.455 197.014 390.218 Q194.584 390.982 191.806 392.533 L191.806 387.811 Q194.63 386.677 197.084 386.098 Q199.537 385.519 201.575 385.519 Q206.945 385.519 210.139 388.205 Q213.334 390.89 213.334 395.38 Q213.334 397.51 212.524 399.431 Q211.736 401.329 209.63 403.922 Q209.051 404.593 205.949 407.811 Q202.848 411.005 197.2 416.769 Z" fill="#000000" fill-rule="nonzero" fill-opacity="1" /><path clip-path="url(#clip940)" d="M22.818 922.094 L46.4666 930.815 L46.4666 913.341 L22.818 922.094 M16.4842 925.723 L16.4842 918.434 L64.0042 900.324 L64.0042 907.008 L51.8138 911.336 L51.8138 932.757 L64.0042 937.085 L64.0042 943.865 L16.4842 925.723 Z" fill="#000000" fill-rule="nonzero" fill-opacity="1" /><path clip-path="url(#clip940)" d="M45.7664 870.182 Q39.4007 870.182 35.8996 872.824 Q32.3984 875.434 32.3984 880.176 Q32.3984 884.887 35.8996 887.528 Q39.4007 890.138 45.7664 890.138 Q52.1003 890.138 55.6014 887.528 Q59.1026 884.887 59.1026 880.176 Q59.1026 875.434 55.6014 872.824 Q52.1003 870.182 45.7664 870.182 M59.58 864.325 Q68.683 864.325 73.1071 868.368 Q77.5631 872.41 77.5631 880.749 Q77.5631 883.836 77.0857 886.574 Q76.6401 889.311 75.6852 891.889 L69.9879 891.889 Q71.3884 889.311 72.0568 886.796 Q72.7252 884.282 72.7252 881.672 Q72.7252 875.911 69.7015 873.046 Q66.7096 870.182 60.6303 870.182 L57.7339 870.182 Q60.885 871.996 62.4446 874.829 Q64.0042 877.662 64.0042 881.608 Q64.0042 888.165 59.0071 892.175 Q54.01 896.186 45.7664 896.186 Q37.491 896.186 32.4939 892.175 Q27.4968 888.165 27.4968 881.608 Q27.4968 877.662 29.0564 874.829 Q30.616 871.996 33.7671 870.182 L28.3562 870.182 L28.3562 864.325 L59.58 864.325 Z" fill="#000000" fill-rule="nonzero" fill-opacity="1" /><path clip-path="url(#clip940)" d="M44.7161 821.771 L47.5806 821.771 L47.5806 848.698 Q53.6281 848.316 56.8109 845.069 Q59.9619 841.791 59.9619 835.966 Q59.9619 832.592 59.1344 829.441 Q58.3069 826.259 56.6518 823.139 L62.1899 823.139 Q63.5267 826.29 64.227 829.601 Q64.9272 832.911 64.9272 836.316 Q64.9272 844.846 59.9619 849.843 Q54.9967 854.809 46.5303 854.809 Q37.7774 854.809 32.6531 850.098 Q27.4968 845.356 27.4968 837.335 Q27.4968 830.142 32.1438 825.972 Q36.7589 821.771 44.7161 821.771 M42.9973 827.627 Q38.1912 827.691 35.3266 830.333 Q32.4621 832.943 32.4621 837.271 Q32.4621 842.173 35.2312 845.133 Q38.0002 848.061 43.0292 848.507 L42.9973 827.627 Z" fill="#000000" fill-rule="nonzero" fill-opacity="1" /><path clip-path="url(#clip940)" d="M14.5426 777.37 Q21.8632 781.635 29.0246 783.704 Q36.186 785.773 43.5384 785.773 Q50.8908 785.773 58.1159 783.704 Q65.3091 781.603 72.5979 777.37 L72.5979 782.462 Q65.1182 787.237 57.8931 789.624 Q50.668 791.979 43.5384 791.979 Q36.4406 791.979 29.2474 789.624 Q22.0542 787.269 14.5426 782.462 L14.5426 777.37 Z" fill="#000000" fill-rule="nonzero" fill-opacity="1" /><path clip-path="url(#clip940)" d="M16.4842 765.752 L16.4842 756.172 L48.8219 744.045 L16.4842 731.855 L16.4842 722.275 L64.0042 722.275 L64.0042 728.545 L22.277 728.545 L54.8694 740.799 L54.8694 747.26 L22.277 759.514 L64.0042 759.514 L64.0042 765.752 L16.4842 765.752 Z" fill="#000000" fill-rule="nonzero" fill-opacity="1" /><path clip-path="url(#clip940)" d="M46.0847 693.565 Q46.0847 700.663 47.7079 703.4 Q49.3312 706.138 53.2461 706.138 Q56.3653 706.138 58.2114 704.101 Q60.0256 702.032 60.0256 698.499 Q60.0256 693.629 56.5881 690.701 Q53.1188 687.741 47.3897 687.741 L46.0847 687.741 L46.0847 693.565 M43.6657 681.884 L64.0042 681.884 L64.0042 687.741 L58.5933 687.741 Q61.8398 689.746 63.3994 692.738 Q64.9272 695.73 64.9272 700.058 Q64.9272 705.533 61.8716 708.779 Q58.7843 711.994 53.6281 711.994 Q47.6125 711.994 44.5569 707.984 Q41.5014 703.941 41.5014 695.953 L41.5014 687.741 L40.9285 687.741 Q36.8862 687.741 34.6901 690.414 Q32.4621 693.056 32.4621 697.862 Q32.4621 700.918 33.1941 703.814 Q33.9262 706.711 35.3903 709.384 L29.9795 709.384 Q28.7381 706.169 28.1334 703.146 Q27.4968 700.122 27.4968 697.257 Q27.4968 689.523 31.5072 685.704 Q35.5176 681.884 43.6657 681.884 Z" fill="#000000" fill-rule="nonzero" fill-opacity="1" /><path clip-path="url(#clip940)" d="M14.5426 670.744 L14.5426 665.652 Q22.0542 660.877 29.2474 658.522 Q36.4406 656.135 43.5384 656.135 Q50.668 656.135 57.8931 658.522 Q65.1182 660.877 72.5979 665.652 L72.5979 670.744 Q65.3091 666.511 58.1159 664.442 Q50.8908 662.342 43.5384 662.342 Q36.186 662.342 29.0246 664.442 Q21.8632 666.511 14.5426 670.744 Z" fill="#000000" fill-rule="nonzero" fill-opacity="1" /><polyline clip-path="url(#clip942)" style="stroke:#009af9; stroke-linecap:round; stroke-linejoin:round; stroke-width:4; stroke-opacity:1; fill:none" points="309.044,1170.75 309.044,812.912 "/>
<polyline clip-path="url(#clip942)" style="stroke:#009af9; stroke-linecap:round; stroke-linejoin:round; stroke-width:4; stroke-opacity:1; fill:none" points="403.53,1063.77 403.53,905.139 "/>
<polyline clip-path="url(#clip942)" style="stroke:#009af9; stroke-linecap:round; stroke-linejoin:round; stroke-width:4; stroke-opacity:1; fill:none" points="498.015,1510.15 498.015,440.315 "/>
<polyline clip-path="url(#clip942)" style="stroke:#009af9; stroke-linecap:round; stroke-linejoin:round; stroke-width:4; stroke-opacity:1; fill:none" points="592.5,1019.5 592.5,919.895 "/>
<polyline clip-path="url(#clip942)" style="stroke:#009af9; stroke-linecap:round; stroke-linejoin:round; stroke-width:4; stroke-opacity:1; fill:none" points="686.985,1115.42 686.985,761.265 "/>
<polyline clip-path="url(#clip942)" style="stroke:#009af9; stroke-linecap:round; stroke-linejoin:round; stroke-width:4; stroke-opacity:1; fill:none" points="781.47,971.542 781.47,798.155 "/>
<polyline clip-path="url(#clip942)" style="stroke:#009af9; stroke-linecap:round; stroke-linejoin:round; stroke-width:4; stroke-opacity:1; fill:none" points="875.955,1178.13 875.955,587.878 "/>
<polyline clip-path="url(#clip942)" style="stroke:#009af9; stroke-linecap:round; stroke-linejoin:round; stroke-width:4; stroke-opacity:1; fill:none" points="970.44,975.231 970.44,569.433 "/>
<polyline clip-path="url(#clip942)" style="stroke:#009af9; stroke-linecap:round; stroke-linejoin:round; stroke-width:4; stroke-opacity:1; fill:none" points="1064.92,1012.12 1064.92,532.542 "/>
<polyline clip-path="url(#clip942)" style="stroke:#009af9; stroke-linecap:round; stroke-linejoin:round; stroke-width:4; stroke-opacity:1; fill:none" points="1159.41,890.382 1159.41,569.433 "/>
<polyline clip-path="url(#clip942)" style="stroke:#009af9; stroke-linecap:round; stroke-linejoin:round; stroke-width:4; stroke-opacity:1; fill:none" points="1253.89,919.895 1253.89,514.097 "/>
<polyline clip-path="url(#clip942)" style="stroke:#009af9; stroke-linecap:round; stroke-linejoin:round; stroke-width:4; stroke-opacity:1; fill:none" points="1348.38,975.231 1348.38,384.979 "/>
<polyline clip-path="url(#clip942)" style="stroke:#009af9; stroke-linecap:round; stroke-linejoin:round; stroke-width:4; stroke-opacity:1; fill:none" points="1442.86,1122.79 1442.86,237.416 "/>
<polyline clip-path="url(#clip942)" style="stroke:#009af9; stroke-linecap:round; stroke-linejoin:round; stroke-width:4; stroke-opacity:1; fill:none" points="1537.35,776.021 1537.35,580.5 "/>
<polyline clip-path="url(#clip942)" style="stroke:#009af9; stroke-linecap:round; stroke-linejoin:round; stroke-width:4; stroke-opacity:1; fill:none" points="1631.84,901.45 1631.84,384.979 "/>
<polyline clip-path="url(#clip942)" style="stroke:#009af9; stroke-linecap:round; stroke-linejoin:round; stroke-width:4; stroke-opacity:1; fill:none" points="1726.32,683.794 1726.32,587.878 "/>
<polyline clip-path="url(#clip942)" style="stroke:#009af9; stroke-linecap:round; stroke-linejoin:round; stroke-width:4; stroke-opacity:1; fill:none" points="1820.81,659.815 1820.81,530.697 "/>
<polyline clip-path="url(#clip942)" style="stroke:#009af9; stroke-linecap:round; stroke-linejoin:round; stroke-width:4; stroke-opacity:1; fill:none" points="1915.29,667.193 1915.29,515.941 "/>
<polyline clip-path="url(#clip942)" style="stroke:#009af9; stroke-linecap:round; stroke-linejoin:round; stroke-width:4; stroke-opacity:1; fill:none" points="2009.78,772.332 2009.78,403.424 "/>
<polyline clip-path="url(#clip942)" style="stroke:#009af9; stroke-linecap:round; stroke-linejoin:round; stroke-width:4; stroke-opacity:1; fill:none" points="2104.26,604.479 2104.26,460.605 "/>
<polyline clip-path="url(#clip942)" style="stroke:#009af9; stroke-linecap:round; stroke-linejoin:round; stroke-width:4; stroke-opacity:1; fill:none" points="2198.75,827.668 2198.75,89.8529 "/>
<polyline clip-path="url(#clip942)" style="stroke:#009af9; stroke-linecap:round; stroke-linejoin:round; stroke-width:4; stroke-opacity:1; fill:none" points="2293.23,735.441 2293.23,182.08 "/>
<line clip-path="url(#clip942)" x1="325.044" y1="1170.75" x2="293.044" y2="1170.75" style="stroke:#009af9; stroke-width:4; stroke-opacity:1"/>
<line clip-path="url(#clip942)" x1="325.044" y1="812.912" x2="293.044" y2="812.912" style="stroke:#009af9; stroke-width:4; stroke-opacity:1"/>
<line clip-path="url(#clip942)" x1="419.53" y1="1063.77" x2="387.53" y2="1063.77" style="stroke:#009af9; stroke-width:4; stroke-opacity:1"/>
<line clip-path="url(#clip942)" x1="419.53" y1="905.139" x2="387.53" y2="905.139" style="stroke:#009af9; stroke-width:4; stroke-opacity:1"/>
<line clip-path="url(#clip942)" x1="514.015" y1="1510.15" x2="482.015" y2="1510.15" style="stroke:#009af9; stroke-width:4; stroke-opacity:1"/>
<line clip-path="url(#clip942)" x1="514.015" y1="440.315" x2="482.015" y2="440.315" style="stroke:#009af9; stroke-width:4; stroke-opacity:1"/>
<line clip-path="url(#clip942)" x1="608.5" y1="1019.5" x2="576.5" y2="1019.5" style="stroke:#009af9; stroke-width:4; stroke-opacity:1"/>
<line clip-path="url(#clip942)" x1="608.5" y1="919.895" x2="576.5" y2="919.895" style="stroke:#009af9; stroke-width:4; stroke-opacity:1"/>
<line clip-path="url(#clip942)" x1="702.985" y1="1115.42" x2="670.985" y2="1115.42" style="stroke:#009af9; stroke-width:4; stroke-opacity:1"/>
<line clip-path="url(#clip942)" x1="702.985" y1="761.265" x2="670.985" y2="761.265" style="stroke:#009af9; stroke-width:4; stroke-opacity:1"/>
<line clip-path="url(#clip942)" x1="797.47" y1="971.542" x2="765.47" y2="971.542" style="stroke:#009af9; stroke-width:4; stroke-opacity:1"/>
<line clip-path="url(#clip942)" x1="797.47" y1="798.155" x2="765.47" y2="798.155" style="stroke:#009af9; stroke-width:4; stroke-opacity:1"/>
<line clip-path="url(#clip942)" x1="891.955" y1="1178.13" x2="859.955" y2="1178.13" style="stroke:#009af9; stroke-width:4; stroke-opacity:1"/>
<line clip-path="url(#clip942)" x1="891.955" y1="587.878" x2="859.955" y2="587.878" style="stroke:#009af9; stroke-width:4; stroke-opacity:1"/>
<line clip-path="url(#clip942)" x1="986.44" y1="975.231" x2="954.44" y2="975.231" style="stroke:#009af9; stroke-width:4; stroke-opacity:1"/>
<line clip-path="url(#clip942)" x1="986.44" y1="569.433" x2="954.44" y2="569.433" style="stroke:#009af9; stroke-width:4; stroke-opacity:1"/>
<line clip-path="url(#clip942)" x1="1080.92" y1="1012.12" x2="1048.92" y2="1012.12" style="stroke:#009af9; stroke-width:4; stroke-opacity:1"/>
<line clip-path="url(#clip942)" x1="1080.92" y1="532.542" x2="1048.92" y2="532.542" style="stroke:#009af9; stroke-width:4; stroke-opacity:1"/>
<line clip-path="url(#clip942)" x1="1175.41" y1="890.382" x2="1143.41" y2="890.382" style="stroke:#009af9; stroke-width:4; stroke-opacity:1"/>
<line clip-path="url(#clip942)" x1="1175.41" y1="569.433" x2="1143.41" y2="569.433" style="stroke:#009af9; stroke-width:4; stroke-opacity:1"/>
<line clip-path="url(#clip942)" x1="1269.89" y1="919.895" x2="1237.89" y2="919.895" style="stroke:#009af9; stroke-width:4; stroke-opacity:1"/>
<line clip-path="url(#clip942)" x1="1269.89" y1="514.097" x2="1237.89" y2="514.097" style="stroke:#009af9; stroke-width:4; stroke-opacity:1"/>
<line clip-path="url(#clip942)" x1="1364.38" y1="975.231" x2="1332.38" y2="975.231" style="stroke:#009af9; stroke-width:4; stroke-opacity:1"/>
<line clip-path="url(#clip942)" x1="1364.38" y1="384.979" x2="1332.38" y2="384.979" style="stroke:#009af9; stroke-width:4; stroke-opacity:1"/>
<line clip-path="url(#clip942)" x1="1458.86" y1="1122.79" x2="1426.86" y2="1122.79" style="stroke:#009af9; stroke-width:4; stroke-opacity:1"/>
<line clip-path="url(#clip942)" x1="1458.86" y1="237.416" x2="1426.86" y2="237.416" style="stroke:#009af9; stroke-width:4; stroke-opacity:1"/>
<line clip-path="url(#clip942)" x1="1553.35" y1="776.021" x2="1521.35" y2="776.021" style="stroke:#009af9; stroke-width:4; stroke-opacity:1"/>
<line clip-path="url(#clip942)" x1="1553.35" y1="580.5" x2="1521.35" y2="580.5" style="stroke:#009af9; stroke-width:4; stroke-opacity:1"/>
<line clip-path="url(#clip942)" x1="1647.84" y1="901.45" x2="1615.84" y2="901.45" style="stroke:#009af9; stroke-width:4; stroke-opacity:1"/>
<line clip-path="url(#clip942)" x1="1647.84" y1="384.979" x2="1615.84" y2="384.979" style="stroke:#009af9; stroke-width:4; stroke-opacity:1"/>
<line clip-path="url(#clip942)" x1="1742.32" y1="683.794" x2="1710.32" y2="683.794" style="stroke:#009af9; stroke-width:4; stroke-opacity:1"/>
<line clip-path="url(#clip942)" x1="1742.32" y1="587.878" x2="1710.32" y2="587.878" style="stroke:#009af9; stroke-width:4; stroke-opacity:1"/>
<line clip-path="url(#clip942)" x1="1836.81" y1="659.815" x2="1804.81" y2="659.815" style="stroke:#009af9; stroke-width:4; stroke-opacity:1"/>
<line clip-path="url(#clip942)" x1="1836.81" y1="530.697" x2="1804.81" y2="530.697" style="stroke:#009af9; stroke-width:4; stroke-opacity:1"/>
<line clip-path="url(#clip942)" x1="1931.29" y1="667.193" x2="1899.29" y2="667.193" style="stroke:#009af9; stroke-width:4; stroke-opacity:1"/>
<line clip-path="url(#clip942)" x1="1931.29" y1="515.941" x2="1899.29" y2="515.941" style="stroke:#009af9; stroke-width:4; stroke-opacity:1"/>
<line clip-path="url(#clip942)" x1="2025.78" y1="772.332" x2="1993.78" y2="772.332" style="stroke:#009af9; stroke-width:4; stroke-opacity:1"/>
<line clip-path="url(#clip942)" x1="2025.78" y1="403.424" x2="1993.78" y2="403.424" style="stroke:#009af9; stroke-width:4; stroke-opacity:1"/>
<line clip-path="url(#clip942)" x1="2120.26" y1="604.479" x2="2088.26" y2="604.479" style="stroke:#009af9; stroke-width:4; stroke-opacity:1"/>
<line clip-path="url(#clip942)" x1="2120.26" y1="460.605" x2="2088.26" y2="460.605" style="stroke:#009af9; stroke-width:4; stroke-opacity:1"/>
<line clip-path="url(#clip942)" x1="2214.75" y1="827.668" x2="2182.75" y2="827.668" style="stroke:#009af9; stroke-width:4; stroke-opacity:1"/>
<line clip-path="url(#clip942)" x1="2214.75" y1="89.8529" x2="2182.75" y2="89.8529" style="stroke:#009af9; stroke-width:4; stroke-opacity:1"/>
<line clip-path="url(#clip942)" x1="2309.23" y1="735.441" x2="2277.23" y2="735.441" style="stroke:#009af9; stroke-width:4; stroke-opacity:1"/>
<line clip-path="url(#clip942)" x1="2309.23" y1="182.08" x2="2277.23" y2="182.08" style="stroke:#009af9; stroke-width:4; stroke-opacity:1"/>
<circle clip-path="url(#clip942)" cx="309.044" cy="991.832" r="14.4" fill="#009af9" fill-rule="evenodd" fill-opacity="1" stroke="none"/>
<circle clip-path="url(#clip942)" cx="403.53" cy="984.454" r="14.4" fill="#009af9" fill-rule="evenodd" fill-opacity="1" stroke="none"/>
<circle clip-path="url(#clip942)" cx="498.015" cy="975.231" r="14.4" fill="#009af9" fill-rule="evenodd" fill-opacity="1" stroke="none"/>
<circle clip-path="url(#clip942)" cx="592.5" cy="969.697" r="14.4" fill="#009af9" fill-rule="evenodd" fill-opacity="1" stroke="none"/>
<circle clip-path="url(#clip942)" cx="686.985" cy="938.34" r="14.4" fill="#009af9" fill-rule="evenodd" fill-opacity="1" stroke="none"/>
<circle clip-path="url(#clip942)" cx="781.47" cy="884.849" r="14.4" fill="#009af9" fill-rule="evenodd" fill-opacity="1" stroke="none"/>
<circle clip-path="url(#clip942)" cx="875.955" cy="883.004" r="14.4" fill="#009af9" fill-rule="evenodd" fill-opacity="1" stroke="none"/>
<circle clip-path="url(#clip942)" cx="970.44" cy="772.332" r="14.4" fill="#009af9" fill-rule="evenodd" fill-opacity="1" stroke="none"/>
<circle clip-path="url(#clip942)" cx="1064.92" cy="772.332" r="14.4" fill="#009af9" fill-rule="evenodd" fill-opacity="1" stroke="none"/>
<circle clip-path="url(#clip942)" cx="1159.41" cy="729.908" r="14.4" fill="#009af9" fill-rule="evenodd" fill-opacity="1" stroke="none"/>
<circle clip-path="url(#clip942)" cx="1253.89" cy="716.996" r="14.4" fill="#009af9" fill-rule="evenodd" fill-opacity="1" stroke="none"/>
<circle clip-path="url(#clip942)" cx="1348.38" cy="680.105" r="14.4" fill="#009af9" fill-rule="evenodd" fill-opacity="1" stroke="none"/>
<circle clip-path="url(#clip942)" cx="1442.86" cy="680.105" r="14.4" fill="#009af9" fill-rule="evenodd" fill-opacity="1" stroke="none"/>
<circle clip-path="url(#clip942)" cx="1537.35" cy="678.261" r="14.4" fill="#009af9" fill-rule="evenodd" fill-opacity="1" stroke="none"/>
<circle clip-path="url(#clip942)" cx="1631.84" cy="643.214" r="14.4" fill="#009af9" fill-rule="evenodd" fill-opacity="1" stroke="none"/>
<circle clip-path="url(#clip942)" cx="1726.32" cy="635.836" r="14.4" fill="#009af9" fill-rule="evenodd" fill-opacity="1" stroke="none"/>
<circle clip-path="url(#clip942)" cx="1820.81" cy="595.256" r="14.4" fill="#009af9" fill-rule="evenodd" fill-opacity="1" stroke="none"/>
<circle clip-path="url(#clip942)" cx="1915.29" cy="591.567" r="14.4" fill="#009af9" fill-rule="evenodd" fill-opacity="1" stroke="none"/>
<circle clip-path="url(#clip942)" cx="2009.78" cy="587.878" r="14.4" fill="#009af9" fill-rule="evenodd" fill-opacity="1" stroke="none"/>
<circle clip-path="url(#clip942)" cx="2104.26" cy="532.542" r="14.4" fill="#009af9" fill-rule="evenodd" fill-opacity="1" stroke="none"/>
<circle clip-path="url(#clip942)" cx="2198.75" cy="458.76" r="14.4" fill="#009af9" fill-rule="evenodd" fill-opacity="1" stroke="none"/>
<circle clip-path="url(#clip942)" cx="2293.23" cy="458.76" r="14.4" fill="#009af9" fill-rule="evenodd" fill-opacity="1" stroke="none"/>
<path clip-path="url(#clip942)" d="M309.044 990.59 L403.53 990.59 L498.015 990.59 L592.5 990.59 L686.985 990.59 L781.47 990.59 L875.955 990.59 L970.44 990.59 L1064.92 990.59 L1159.41 990.59 L1253.89 990.59 L1348.38 990.59 L1442.86 990.59 L1537.35 990.59 L1631.84 990.59 L1726.32 990.59 L1820.81 990.59 L1915.29 990.59 L2009.78 990.59 L2104.26 990.59 L2198.75 990.59 L2293.23 990.59 L2293.23 912.976 L2198.75 912.976 L2104.26 912.976 L2009.78 912.976 L1915.29 912.976 L1820.81 912.976 L1726.32 912.976 L1631.84 912.976 L1537.35 912.976 L1442.86 912.976 L1348.38 912.976 L1253.89 912.976 L1159.41 912.976 L1064.92 912.976 L970.44 912.976 L875.955 912.976 L781.47 912.976 L686.985 912.976 L592.5 912.976 L498.015 912.976 L403.53 912.976 L309.044 912.976  Z" fill="#e26f46" fill-rule="evenodd" fill-opacity="0.6"/>
<polyline clip-path="url(#clip942)" style="stroke:#e26f46; stroke-linecap:round; stroke-linejoin:round; stroke-width:4; stroke-opacity:0; fill:none" points="309.044,990.59 403.53,990.59 498.015,990.59 592.5,990.59 686.985,990.59 781.47,990.59 875.955,990.59 970.44,990.59 1064.92,990.59 1159.41,990.59 1253.89,990.59 1348.38,990.59 1442.86,990.59 1537.35,990.59 1631.84,990.59 1726.32,990.59 1820.81,990.59 1915.29,990.59 2009.78,990.59 2104.26,990.59 2198.75,990.59 2293.23,990.59 "/>
<polyline clip-path="url(#clip942)" style="stroke:#000000; stroke-linecap:round; stroke-linejoin:round; stroke-width:4; stroke-opacity:1; fill:none" stroke-dasharray="2, 4" points="309.044,951.424 403.53,951.424 498.015,951.424 592.5,951.424 686.985,951.424 781.47,951.424 875.955,951.424 970.44,951.424 1064.92,951.424 1159.41,951.424 1253.89,951.424 1348.38,951.424 1442.86,951.424 1537.35,951.424 1631.84,951.424 1726.32,951.424 1820.81,951.424 1915.29,951.424 2009.78,951.424 2104.26,951.424 2198.75,951.424 2293.23,951.424 "/>
<path clip-path="url(#clip940)" d="M319.627 252.948 L1325.83 252.948 L1325.83 97.4278 L319.627 97.4278  Z" fill="#ffffff" fill-rule="evenodd" fill-opacity="1"/>
<polyline clip-path="url(#clip940)" style="stroke:#ffffff; stroke-linecap:round; stroke-linejoin:round; stroke-width:4; stroke-opacity:1; fill:none" points="319.627,252.948 1325.83,252.948 1325.83,97.4278 319.627,97.4278 319.627,252.948 "/>
<circle clip-path="url(#clip940)" cx="413.104" cy="149.268" r="20.48" fill="#009af9" fill-rule="evenodd" fill-opacity="1" stroke="none"/>
<path clip-path="url(#clip940)" d="M511.257 135.83 L511.257 162.705 L516.905 162.705 Q524.058 162.705 527.368 159.465 Q530.701 156.224 530.701 149.233 Q530.701 142.289 527.368 139.071 Q524.058 135.83 516.905 135.83 L511.257 135.83 M506.581 131.988 L516.188 131.988 Q526.234 131.988 530.933 136.178 Q535.632 140.344 535.632 149.233 Q535.632 158.168 530.91 162.358 Q526.188 166.548 516.188 166.548 L506.581 166.548 L506.581 131.988 Z" fill="#000000" fill-rule="nonzero" fill-opacity="1" /><path clip-path="url(#clip940)" d="M554.683 153.515 Q549.521 153.515 547.53 154.696 Q545.539 155.877 545.539 158.724 Q545.539 160.992 547.021 162.335 Q548.525 163.654 551.095 163.654 Q554.636 163.654 556.766 161.154 Q558.919 158.631 558.919 154.465 L558.919 153.515 L554.683 153.515 M563.178 151.756 L563.178 166.548 L558.919 166.548 L558.919 162.613 Q557.461 164.974 555.285 166.108 Q553.109 167.219 549.961 167.219 Q545.979 167.219 543.618 164.997 Q541.28 162.752 541.28 159.002 Q541.28 154.627 544.197 152.404 Q547.137 150.182 552.947 150.182 L558.919 150.182 L558.919 149.766 Q558.919 146.826 556.974 145.228 Q555.053 143.608 551.558 143.608 Q549.336 143.608 547.229 144.141 Q545.123 144.673 543.178 145.738 L543.178 141.803 Q545.516 140.9 547.715 140.46 Q549.914 139.997 551.998 139.997 Q557.623 139.997 560.4 142.914 Q563.178 145.83 563.178 151.756 Z" fill="#000000" fill-rule="nonzero" fill-opacity="1" /><path clip-path="url(#clip940)" d="M576.164 133.261 L576.164 140.622 L584.937 140.622 L584.937 143.932 L576.164 143.932 L576.164 158.006 Q576.164 161.177 577.021 162.08 Q577.9 162.983 580.562 162.983 L584.937 162.983 L584.937 166.548 L580.562 166.548 Q575.632 166.548 573.757 164.719 Q571.882 162.867 571.882 158.006 L571.882 143.932 L568.757 143.932 L568.757 140.622 L571.882 140.622 L571.882 133.261 L576.164 133.261 Z" fill="#000000" fill-rule="nonzero" fill-opacity="1" /><path clip-path="url(#clip940)" d="M602.321 153.515 Q597.159 153.515 595.169 154.696 Q593.178 155.877 593.178 158.724 Q593.178 160.992 594.659 162.335 Q596.164 163.654 598.733 163.654 Q602.275 163.654 604.405 161.154 Q606.558 158.631 606.558 154.465 L606.558 153.515 L602.321 153.515 M610.817 151.756 L610.817 166.548 L606.558 166.548 L606.558 162.613 Q605.099 164.974 602.923 166.108 Q600.747 167.219 597.599 167.219 Q593.618 167.219 591.257 164.997 Q588.919 162.752 588.919 159.002 Q588.919 154.627 591.835 152.404 Q594.775 150.182 600.585 150.182 L606.558 150.182 L606.558 149.766 Q606.558 146.826 604.613 145.228 Q602.692 143.608 599.196 143.608 Q596.974 143.608 594.868 144.141 Q592.761 144.673 590.817 145.738 L590.817 141.803 Q593.155 140.9 595.354 140.46 Q597.553 139.997 599.636 139.997 Q605.261 139.997 608.039 142.914 Q610.817 145.83 610.817 151.756 Z" fill="#000000" fill-rule="nonzero" fill-opacity="1" /><path clip-path="url(#clip940)" d="M644.891 130.576 Q641.789 135.9 640.284 141.108 Q638.78 146.316 638.78 151.664 Q638.78 157.011 640.284 162.265 Q641.812 167.497 644.891 172.798 L641.187 172.798 Q637.715 167.358 635.979 162.103 Q634.266 156.849 634.266 151.664 Q634.266 146.502 635.979 141.27 Q637.692 136.039 641.187 130.576 L644.891 130.576 Z" fill="#000000" fill-rule="nonzero" fill-opacity="1" /><path clip-path="url(#clip940)" d="M663.201 143.608 Q659.775 143.608 657.784 146.293 Q655.793 148.955 655.793 153.608 Q655.793 158.261 657.761 160.946 Q659.752 163.608 663.201 163.608 Q666.603 163.608 668.594 160.923 Q670.585 158.238 670.585 153.608 Q670.585 149.002 668.594 146.316 Q666.603 143.608 663.201 143.608 M663.201 139.997 Q668.756 139.997 671.928 143.608 Q675.099 147.219 675.099 153.608 Q675.099 159.974 671.928 163.608 Q668.756 167.219 663.201 167.219 Q657.622 167.219 654.451 163.608 Q651.303 159.974 651.303 153.608 Q651.303 147.219 654.451 143.608 Q657.622 139.997 663.201 139.997 Z" fill="#000000" fill-rule="nonzero" fill-opacity="1" /><path clip-path="url(#clip940)" d="M700.77 153.608 Q700.77 148.909 698.826 146.247 Q696.904 143.562 693.525 143.562 Q690.145 143.562 688.201 146.247 Q686.279 148.909 686.279 153.608 Q686.279 158.307 688.201 160.992 Q690.145 163.654 693.525 163.654 Q696.904 163.654 698.826 160.992 Q700.77 158.307 700.77 153.608 M686.279 144.557 Q687.622 142.242 689.659 141.131 Q691.719 139.997 694.566 139.997 Q699.288 139.997 702.228 143.747 Q705.191 147.497 705.191 153.608 Q705.191 159.719 702.228 163.469 Q699.288 167.219 694.566 167.219 Q691.719 167.219 689.659 166.108 Q687.622 164.974 686.279 162.659 L686.279 166.548 L681.997 166.548 L681.997 130.529 L686.279 130.529 L686.279 144.557 Z" fill="#000000" fill-rule="nonzero" fill-opacity="1" /><path clip-path="url(#clip940)" d="M728.779 141.386 L728.779 145.414 Q726.974 144.488 725.029 144.025 Q723.085 143.562 721.001 143.562 Q717.83 143.562 716.233 144.534 Q714.659 145.506 714.659 147.451 Q714.659 148.932 715.793 149.789 Q716.927 150.622 720.353 151.386 L721.812 151.71 Q726.349 152.682 728.247 154.465 Q730.168 156.224 730.168 159.395 Q730.168 163.006 727.298 165.113 Q724.45 167.219 719.45 167.219 Q717.367 167.219 715.099 166.802 Q712.853 166.409 710.353 165.599 L710.353 161.201 Q712.714 162.427 715.006 163.052 Q717.298 163.654 719.543 163.654 Q722.552 163.654 724.173 162.636 Q725.793 161.594 725.793 159.719 Q725.793 157.983 724.612 157.057 Q723.455 156.131 719.497 155.275 L718.015 154.928 Q714.057 154.094 712.298 152.381 Q710.538 150.645 710.538 147.636 Q710.538 143.978 713.131 141.988 Q715.724 139.997 720.492 139.997 Q722.853 139.997 724.936 140.344 Q727.02 140.691 728.779 141.386 Z" fill="#000000" fill-rule="nonzero" fill-opacity="1" /><path clip-path="url(#clip940)" d="M759.126 152.52 L759.126 154.603 L739.543 154.603 Q739.821 159.002 742.182 161.316 Q744.566 163.608 748.802 163.608 Q751.256 163.608 753.547 163.006 Q755.862 162.404 758.131 161.201 L758.131 165.228 Q755.839 166.201 753.432 166.71 Q751.024 167.219 748.547 167.219 Q742.344 167.219 738.71 163.608 Q735.098 159.997 735.098 153.84 Q735.098 147.474 738.524 143.747 Q741.973 139.997 747.807 139.997 Q753.038 139.997 756.071 143.377 Q759.126 146.733 759.126 152.52 M754.867 151.27 Q754.821 147.775 752.899 145.691 Q751.001 143.608 747.853 143.608 Q744.288 143.608 742.135 145.622 Q740.006 147.636 739.682 151.293 L754.867 151.27 Z" fill="#000000" fill-rule="nonzero" fill-opacity="1" /><path clip-path="url(#clip940)" d="M781.14 144.603 Q780.422 144.187 779.566 144.002 Q778.733 143.793 777.714 143.793 Q774.103 143.793 772.158 146.154 Q770.237 148.492 770.237 152.89 L770.237 166.548 L765.955 166.548 L765.955 140.622 L770.237 140.622 L770.237 144.65 Q771.58 142.289 773.733 141.154 Q775.885 139.997 778.964 139.997 Q779.404 139.997 779.936 140.066 Q780.469 140.113 781.117 140.229 L781.14 144.603 Z" fill="#000000" fill-rule="nonzero" fill-opacity="1" /><path clip-path="url(#clip940)" d="M782.552 140.622 L787.066 140.622 L795.168 162.381 L803.269 140.622 L807.783 140.622 L798.061 166.548 L792.274 166.548 L782.552 140.622 Z" fill="#000000" fill-rule="nonzero" fill-opacity="1" /><path clip-path="url(#clip940)" d="M835.839 152.52 L835.839 154.603 L816.255 154.603 Q816.533 159.002 818.894 161.316 Q821.279 163.608 825.515 163.608 Q827.968 163.608 830.26 163.006 Q832.575 162.404 834.843 161.201 L834.843 165.228 Q832.552 166.201 830.144 166.71 Q827.737 167.219 825.26 167.219 Q819.056 167.219 815.422 163.608 Q811.811 159.997 811.811 153.84 Q811.811 147.474 815.237 143.747 Q818.686 139.997 824.519 139.997 Q829.751 139.997 832.783 143.377 Q835.839 146.733 835.839 152.52 M831.579 151.27 Q831.533 147.775 829.612 145.691 Q827.714 143.608 824.566 143.608 Q821.001 143.608 818.848 145.622 Q816.718 147.636 816.394 151.293 L831.579 151.27 Z" fill="#000000" fill-rule="nonzero" fill-opacity="1" /><path clip-path="url(#clip940)" d="M859.889 144.557 L859.889 130.529 L864.149 130.529 L864.149 166.548 L859.889 166.548 L859.889 162.659 Q858.547 164.974 856.487 166.108 Q854.45 167.219 851.579 167.219 Q846.88 167.219 843.917 163.469 Q840.978 159.719 840.978 153.608 Q840.978 147.497 843.917 143.747 Q846.88 139.997 851.579 139.997 Q854.45 139.997 856.487 141.131 Q858.547 142.242 859.889 144.557 M845.376 153.608 Q845.376 158.307 847.297 160.992 Q849.241 163.654 852.621 163.654 Q856.001 163.654 857.945 160.992 Q859.889 158.307 859.889 153.608 Q859.889 148.909 857.945 146.247 Q856.001 143.562 852.621 143.562 Q849.241 143.562 847.297 146.247 Q845.376 148.909 845.376 153.608 Z" fill="#000000" fill-rule="nonzero" fill-opacity="1" /><path clip-path="url(#clip940)" d="M899.774 153.515 Q894.612 153.515 892.621 154.696 Q890.63 155.877 890.63 158.724 Q890.63 160.992 892.112 162.335 Q893.616 163.654 896.186 163.654 Q899.727 163.654 901.857 161.154 Q904.01 158.631 904.01 154.465 L904.01 153.515 L899.774 153.515 M908.269 151.756 L908.269 166.548 L904.01 166.548 L904.01 162.613 Q902.551 164.974 900.375 166.108 Q898.199 167.219 895.051 167.219 Q891.07 167.219 888.709 164.997 Q886.371 162.752 886.371 159.002 Q886.371 154.627 889.287 152.404 Q892.227 150.182 898.037 150.182 L904.01 150.182 L904.01 149.766 Q904.01 146.826 902.065 145.228 Q900.144 143.608 896.649 143.608 Q894.426 143.608 892.32 144.141 Q890.213 144.673 888.269 145.738 L888.269 141.803 Q890.607 140.9 892.806 140.46 Q895.005 139.997 897.088 139.997 Q902.713 139.997 905.491 142.914 Q908.269 145.83 908.269 151.756 Z" fill="#000000" fill-rule="nonzero" fill-opacity="1" /><path clip-path="url(#clip940)" d="M934.102 153.284 Q934.102 148.654 932.181 146.108 Q930.283 143.562 926.834 143.562 Q923.408 143.562 921.486 146.108 Q919.588 148.654 919.588 153.284 Q919.588 157.89 921.486 160.437 Q923.408 162.983 926.834 162.983 Q930.283 162.983 932.181 160.437 Q934.102 157.89 934.102 153.284 M938.361 163.33 Q938.361 169.951 935.421 173.168 Q932.482 176.409 926.417 176.409 Q924.172 176.409 922.181 176.062 Q920.19 175.738 918.315 175.043 L918.315 170.9 Q920.19 171.918 922.019 172.404 Q923.847 172.89 925.746 172.89 Q929.935 172.89 932.019 170.691 Q934.102 168.515 934.102 164.094 L934.102 161.988 Q932.783 164.279 930.722 165.414 Q928.662 166.548 925.792 166.548 Q921.023 166.548 918.107 162.914 Q915.19 159.279 915.19 153.284 Q915.19 147.266 918.107 143.631 Q921.023 139.997 925.792 139.997 Q928.662 139.997 930.722 141.131 Q932.783 142.266 934.102 144.557 L934.102 140.622 L938.361 140.622 L938.361 163.33 Z" fill="#000000" fill-rule="nonzero" fill-opacity="1" /><path clip-path="url(#clip940)" d="M969.31 152.52 L969.31 154.603 L949.727 154.603 Q950.005 159.002 952.366 161.316 Q954.75 163.608 958.986 163.608 Q961.44 163.608 963.732 163.006 Q966.046 162.404 968.315 161.201 L968.315 165.228 Q966.023 166.201 963.616 166.71 Q961.208 167.219 958.732 167.219 Q952.528 167.219 948.894 163.608 Q945.283 159.997 945.283 153.84 Q945.283 147.474 948.708 143.747 Q952.158 139.997 957.991 139.997 Q963.222 139.997 966.255 143.377 Q969.31 146.733 969.31 152.52 M965.051 151.27 Q965.005 147.775 963.083 145.691 Q961.185 143.608 958.037 143.608 Q954.472 143.608 952.32 145.622 Q950.19 147.636 949.866 151.293 L965.051 151.27 Z" fill="#000000" fill-rule="nonzero" fill-opacity="1" /><path clip-path="url(#clip940)" d="M992.829 141.386 L992.829 145.414 Q991.023 144.488 989.079 144.025 Q987.134 143.562 985.051 143.562 Q981.88 143.562 980.282 144.534 Q978.708 145.506 978.708 147.451 Q978.708 148.932 979.843 149.789 Q980.977 150.622 984.403 151.386 L985.861 151.71 Q990.398 152.682 992.296 154.465 Q994.217 156.224 994.217 159.395 Q994.217 163.006 991.347 165.113 Q988.5 167.219 983.5 167.219 Q981.417 167.219 979.148 166.802 Q976.903 166.409 974.403 165.599 L974.403 161.201 Q976.764 162.427 979.056 163.052 Q981.347 163.654 983.593 163.654 Q986.602 163.654 988.222 162.636 Q989.842 161.594 989.842 159.719 Q989.842 157.983 988.662 157.057 Q987.505 156.131 983.546 155.275 L982.065 154.928 Q978.106 154.094 976.347 152.381 Q974.588 150.645 974.588 147.636 Q974.588 143.978 977.181 141.988 Q979.773 139.997 984.542 139.997 Q986.903 139.997 988.986 140.344 Q991.069 140.691 992.829 141.386 Z" fill="#000000" fill-rule="nonzero" fill-opacity="1" /><path clip-path="url(#clip940)" d="M1000.33 130.576 L1004.03 130.576 Q1007.5 136.039 1009.22 141.27 Q1010.95 146.502 1010.95 151.664 Q1010.95 156.849 1009.22 162.103 Q1007.5 167.358 1004.03 172.798 L1000.33 172.798 Q1003.41 167.497 1004.91 162.265 Q1006.44 157.011 1006.44 151.664 Q1006.44 146.316 1004.91 141.108 Q1003.41 135.9 1000.33 130.576 Z" fill="#000000" fill-rule="nonzero" fill-opacity="1" /><path clip-path="url(#clip940)" d="M342.996 221.844 L483.212 221.844 L483.212 180.372 L342.996 180.372 L342.996 221.844  Z" fill="#e26f46" fill-rule="evenodd" fill-opacity="0.6"/>
<polyline clip-path="url(#clip940)" style="stroke:#e26f46; stroke-linecap:round; stroke-linejoin:round; stroke-width:4; stroke-opacity:0; fill:none" points="342.996,180.372 483.212,180.372 "/>
<path clip-path="url(#clip940)" d="M506.581 183.828 L513.549 183.828 L522.368 207.346 L531.234 183.828 L538.201 183.828 L538.201 218.388 L533.641 218.388 L533.641 188.041 L524.729 211.744 L520.03 211.744 L511.118 188.041 L511.118 218.388 L506.581 218.388 L506.581 183.828 Z" fill="#000000" fill-rule="nonzero" fill-opacity="1" /><path clip-path="url(#clip940)" d="M557.345 195.448 Q553.919 195.448 551.928 198.133 Q549.937 200.795 549.937 205.448 Q549.937 210.101 551.905 212.786 Q553.896 215.448 557.345 215.448 Q560.748 215.448 562.738 212.763 Q564.729 210.078 564.729 205.448 Q564.729 200.842 562.738 198.156 Q560.748 195.448 557.345 195.448 M557.345 191.837 Q562.9 191.837 566.072 195.448 Q569.243 199.059 569.243 205.448 Q569.243 211.814 566.072 215.448 Q562.9 219.059 557.345 219.059 Q551.766 219.059 548.595 215.448 Q545.447 211.814 545.447 205.448 Q545.447 199.059 548.595 195.448 Q551.766 191.837 557.345 191.837 Z" fill="#000000" fill-rule="nonzero" fill-opacity="1" /><path clip-path="url(#clip940)" d="M593.363 196.397 L593.363 182.369 L597.622 182.369 L597.622 218.388 L593.363 218.388 L593.363 214.499 Q592.021 216.814 589.96 217.948 Q587.923 219.059 585.053 219.059 Q580.354 219.059 577.391 215.309 Q574.451 211.559 574.451 205.448 Q574.451 199.337 577.391 195.587 Q580.354 191.837 585.053 191.837 Q587.923 191.837 589.96 192.971 Q592.021 194.082 593.363 196.397 M578.849 205.448 Q578.849 210.147 580.771 212.832 Q582.715 215.494 586.095 215.494 Q589.474 215.494 591.419 212.832 Q593.363 210.147 593.363 205.448 Q593.363 200.749 591.419 198.087 Q589.474 195.402 586.095 195.402 Q582.715 195.402 580.771 198.087 Q578.849 200.749 578.849 205.448 Z" fill="#000000" fill-rule="nonzero" fill-opacity="1" /><path clip-path="url(#clip940)" d="M628.571 204.36 L628.571 206.443 L608.988 206.443 Q609.266 210.842 611.627 213.156 Q614.011 215.448 618.247 215.448 Q620.701 215.448 622.993 214.846 Q625.307 214.244 627.576 213.041 L627.576 217.068 Q625.284 218.041 622.877 218.55 Q620.469 219.059 617.993 219.059 Q611.789 219.059 608.155 215.448 Q604.544 211.837 604.544 205.68 Q604.544 199.314 607.97 195.587 Q611.419 191.837 617.252 191.837 Q622.483 191.837 625.516 195.217 Q628.571 198.573 628.571 204.36 M624.312 203.11 Q624.266 199.615 622.344 197.531 Q620.446 195.448 617.298 195.448 Q613.733 195.448 611.581 197.462 Q609.451 199.476 609.127 203.133 L624.312 203.11 Z" fill="#000000" fill-rule="nonzero" fill-opacity="1" /><path clip-path="url(#clip940)" d="M635.562 182.369 L639.821 182.369 L639.821 218.388 L635.562 218.388 L635.562 182.369 Z" fill="#000000" fill-rule="nonzero" fill-opacity="1" /><path clip-path="url(#clip940)" d="M674.034 182.416 Q670.932 187.74 669.428 192.948 Q667.923 198.156 667.923 203.504 Q667.923 208.851 669.428 214.105 Q670.955 219.337 674.034 224.638 L670.33 224.638 Q666.858 219.198 665.122 213.943 Q663.409 208.689 663.409 203.504 Q663.409 198.342 665.122 193.11 Q666.835 187.879 670.33 182.416 L674.034 182.416 Z" fill="#000000" fill-rule="nonzero" fill-opacity="1" /><path clip-path="url(#clip940)" d="M693.478 199.244 Q690.33 199.244 688.478 201.397 Q686.65 203.55 686.65 207.3 Q686.65 211.027 688.478 213.203 Q690.33 215.355 693.478 215.355 Q696.626 215.355 698.455 213.203 Q700.307 211.027 700.307 207.3 Q700.307 203.55 698.455 201.397 Q696.626 199.244 693.478 199.244 M702.761 184.592 L702.761 188.851 Q701.001 188.018 699.196 187.578 Q697.413 187.138 695.654 187.138 Q691.025 187.138 688.571 190.263 Q686.14 193.388 685.793 199.707 Q687.159 197.693 689.219 196.629 Q691.279 195.541 693.756 195.541 Q698.964 195.541 701.974 198.712 Q705.006 201.86 705.006 207.3 Q705.006 212.624 701.858 215.842 Q698.71 219.059 693.478 219.059 Q687.483 219.059 684.312 214.476 Q681.14 209.869 681.14 201.143 Q681.14 192.948 685.029 188.087 Q688.918 183.203 695.469 183.203 Q697.228 183.203 699.011 183.55 Q700.816 183.897 702.761 184.592 Z" fill="#000000" fill-rule="nonzero" fill-opacity="1" /><path clip-path="url(#clip940)" d="M713.108 183.828 L731.464 183.828 L731.464 187.763 L717.39 187.763 L717.39 196.235 Q718.409 195.888 719.427 195.726 Q720.446 195.541 721.464 195.541 Q727.251 195.541 730.631 198.712 Q734.011 201.883 734.011 207.3 Q734.011 212.879 730.538 215.98 Q727.066 219.059 720.747 219.059 Q718.571 219.059 716.302 218.689 Q714.057 218.318 711.65 217.578 L711.65 212.879 Q713.733 214.013 715.955 214.568 Q718.177 215.124 720.654 215.124 Q724.659 215.124 726.997 213.017 Q729.335 210.911 729.335 207.3 Q729.335 203.689 726.997 201.582 Q724.659 199.476 720.654 199.476 Q718.779 199.476 716.904 199.893 Q715.052 200.309 713.108 201.189 L713.108 183.828 Z" fill="#000000" fill-rule="nonzero" fill-opacity="1" /><path clip-path="url(#clip940)" d="M743.223 212.508 L748.108 212.508 L748.108 218.388 L743.223 218.388 L743.223 212.508 Z" fill="#000000" fill-rule="nonzero" fill-opacity="1" /><path clip-path="url(#clip940)" d="M758.432 217.67 L758.432 213.411 Q760.191 214.244 761.996 214.684 Q763.802 215.124 765.538 215.124 Q770.168 215.124 772.598 212.022 Q775.052 208.897 775.399 202.555 Q774.057 204.545 771.996 205.61 Q769.936 206.675 767.436 206.675 Q762.251 206.675 759.219 203.55 Q756.209 200.402 756.209 194.962 Q756.209 189.638 759.358 186.42 Q762.506 183.203 767.737 183.203 Q773.733 183.203 776.881 187.809 Q780.052 192.393 780.052 201.143 Q780.052 209.314 776.163 214.198 Q772.297 219.059 765.746 219.059 Q763.987 219.059 762.182 218.712 Q760.376 218.365 758.432 217.67 M767.737 203.018 Q770.885 203.018 772.714 200.865 Q774.566 198.712 774.566 194.962 Q774.566 191.235 772.714 189.082 Q770.885 186.907 767.737 186.907 Q764.589 186.907 762.737 189.082 Q760.909 191.235 760.909 194.962 Q760.909 198.712 762.737 200.865 Q764.589 203.018 767.737 203.018 Z" fill="#000000" fill-rule="nonzero" fill-opacity="1" /><path clip-path="url(#clip940)" d="M798.455 186.907 Q794.844 186.907 793.015 190.471 Q791.209 194.013 791.209 201.143 Q791.209 208.249 793.015 211.814 Q794.844 215.355 798.455 215.355 Q802.089 215.355 803.894 211.814 Q805.723 208.249 805.723 201.143 Q805.723 194.013 803.894 190.471 Q802.089 186.907 798.455 186.907 M798.455 183.203 Q804.265 183.203 807.32 187.809 Q810.399 192.393 810.399 201.143 Q810.399 209.869 807.32 214.476 Q804.265 219.059 798.455 219.059 Q792.644 219.059 789.566 214.476 Q786.51 209.869 786.51 201.143 Q786.51 192.393 789.566 187.809 Q792.644 183.203 798.455 183.203 Z" fill="#000000" fill-rule="nonzero" fill-opacity="1" /><path clip-path="url(#clip940)" d="M832.783 199.754 Q836.14 200.471 838.015 202.74 Q839.913 205.008 839.913 208.342 Q839.913 213.457 836.394 216.258 Q832.876 219.059 826.394 219.059 Q824.218 219.059 821.904 218.619 Q819.612 218.203 817.158 217.346 L817.158 212.832 Q819.103 213.967 821.417 214.545 Q823.732 215.124 826.255 215.124 Q830.654 215.124 832.945 213.388 Q835.26 211.652 835.26 208.342 Q835.26 205.286 833.107 203.573 Q830.978 201.837 827.158 201.837 L823.13 201.837 L823.13 197.994 L827.343 197.994 Q830.792 197.994 832.621 196.629 Q834.45 195.24 834.45 192.647 Q834.45 189.985 832.552 188.573 Q830.677 187.138 827.158 187.138 Q825.237 187.138 823.038 187.555 Q820.839 187.971 818.2 188.851 L818.2 184.684 Q820.862 183.944 823.177 183.573 Q825.515 183.203 827.575 183.203 Q832.899 183.203 836.001 185.633 Q839.103 188.041 839.103 192.161 Q839.103 195.031 837.459 197.022 Q835.816 198.99 832.783 199.754 Z" fill="#000000" fill-rule="nonzero" fill-opacity="1" /><path clip-path="url(#clip940)" d="M880.584 188.666 L880.584 201.559 L893.477 201.559 L893.477 205.494 L880.584 205.494 L880.584 218.388 L876.695 218.388 L876.695 205.494 L863.801 205.494 L863.801 201.559 L876.695 201.559 L876.695 188.666 L880.584 188.666 Z" fill="#000000" fill-rule="nonzero" fill-opacity="1" /><path clip-path="url(#clip940)" d="M913.57 186.907 Q909.959 186.907 908.13 190.471 Q906.324 194.013 906.324 201.143 Q906.324 208.249 908.13 211.814 Q909.959 215.355 913.57 215.355 Q917.204 215.355 919.01 211.814 Q920.838 208.249 920.838 201.143 Q920.838 194.013 919.01 190.471 Q917.204 186.907 913.57 186.907 M913.57 183.203 Q919.38 183.203 922.435 187.809 Q925.514 192.393 925.514 201.143 Q925.514 209.869 922.435 214.476 Q919.38 219.059 913.57 219.059 Q907.76 219.059 904.681 214.476 Q901.625 209.869 901.625 201.143 Q901.625 192.393 904.681 187.809 Q907.76 183.203 913.57 183.203 Z" fill="#000000" fill-rule="nonzero" fill-opacity="1" /><path clip-path="url(#clip940)" d="M933.732 212.508 L938.616 212.508 L938.616 218.388 L933.732 218.388 L933.732 212.508 Z" fill="#000000" fill-rule="nonzero" fill-opacity="1" /><path clip-path="url(#clip940)" d="M958.801 186.907 Q955.19 186.907 953.361 190.471 Q951.556 194.013 951.556 201.143 Q951.556 208.249 953.361 211.814 Q955.19 215.355 958.801 215.355 Q962.435 215.355 964.241 211.814 Q966.069 208.249 966.069 201.143 Q966.069 194.013 964.241 190.471 Q962.435 186.907 958.801 186.907 M958.801 183.203 Q964.611 183.203 967.667 187.809 Q970.745 192.393 970.745 201.143 Q970.745 209.869 967.667 214.476 Q964.611 219.059 958.801 219.059 Q952.991 219.059 949.912 214.476 Q946.857 209.869 946.857 201.143 Q946.857 192.393 949.912 187.809 Q952.991 183.203 958.801 183.203 Z" fill="#000000" fill-rule="nonzero" fill-opacity="1" /><path clip-path="url(#clip940)" d="M982.991 214.453 L999.31 214.453 L999.31 218.388 L977.366 218.388 L977.366 214.453 Q980.028 211.698 984.611 207.068 Q989.217 202.416 990.398 201.073 Q992.643 198.55 993.523 196.814 Q994.426 195.055 994.426 193.365 Q994.426 190.61 992.481 188.874 Q990.56 187.138 987.458 187.138 Q985.259 187.138 982.805 187.902 Q980.375 188.666 977.597 190.217 L977.597 185.494 Q980.421 184.36 982.875 183.782 Q985.329 183.203 987.366 183.203 Q992.736 183.203 995.93 185.888 Q999.125 188.573 999.125 193.064 Q999.125 195.194 998.315 197.115 Q997.528 199.013 995.421 201.606 Q994.842 202.277 991.741 205.494 Q988.639 208.689 982.991 214.453 Z" fill="#000000" fill-rule="nonzero" fill-opacity="1" /><path clip-path="url(#clip940)" d="M1009.93 214.453 L1017.57 214.453 L1017.57 188.087 L1009.26 189.754 L1009.26 185.494 L1017.53 183.828 L1022.2 183.828 L1022.2 214.453 L1029.84 214.453 L1029.84 218.388 L1009.93 218.388 L1009.93 214.453 Z" fill="#000000" fill-rule="nonzero" fill-opacity="1" /><path clip-path="url(#clip940)" d="M1046.25 183.828 L1050.19 183.828 L1038.15 222.786 L1034.22 222.786 L1046.25 183.828 Z" fill="#000000" fill-rule="nonzero" fill-opacity="1" /><path clip-path="url(#clip940)" d="M1052.5 203.504 L1064.98 203.504 L1064.98 207.3 L1052.5 207.3 L1052.5 203.504 Z" fill="#000000" fill-rule="nonzero" fill-opacity="1" /><path clip-path="url(#clip940)" d="M1082.37 186.907 Q1078.75 186.907 1076.93 190.471 Q1075.12 194.013 1075.12 201.143 Q1075.12 208.249 1076.93 211.814 Q1078.75 215.355 1082.37 215.355 Q1086 215.355 1087.8 211.814 Q1089.63 208.249 1089.63 201.143 Q1089.63 194.013 1087.8 190.471 Q1086 186.907 1082.37 186.907 M1082.37 183.203 Q1088.18 183.203 1091.23 187.809 Q1094.31 192.393 1094.31 201.143 Q1094.31 209.869 1091.23 214.476 Q1088.18 219.059 1082.37 219.059 Q1076.55 219.059 1073.48 214.476 Q1070.42 209.869 1070.42 201.143 Q1070.42 192.393 1073.48 187.809 Q1076.55 183.203 1082.37 183.203 Z" fill="#000000" fill-rule="nonzero" fill-opacity="1" /><path clip-path="url(#clip940)" d="M1102.53 212.508 L1107.41 212.508 L1107.41 218.388 L1102.53 218.388 L1102.53 212.508 Z" fill="#000000" fill-rule="nonzero" fill-opacity="1" /><path clip-path="url(#clip940)" d="M1127.6 186.907 Q1123.99 186.907 1122.16 190.471 Q1120.35 194.013 1120.35 201.143 Q1120.35 208.249 1122.16 211.814 Q1123.99 215.355 1127.6 215.355 Q1131.23 215.355 1133.04 211.814 Q1134.86 208.249 1134.86 201.143 Q1134.86 194.013 1133.04 190.471 Q1131.23 186.907 1127.6 186.907 M1127.6 183.203 Q1133.41 183.203 1136.46 187.809 Q1139.54 192.393 1139.54 201.143 Q1139.54 209.869 1136.46 214.476 Q1133.41 219.059 1127.6 219.059 Q1121.79 219.059 1118.71 214.476 Q1115.65 209.869 1115.65 201.143 Q1115.65 192.393 1118.71 187.809 Q1121.79 183.203 1127.6 183.203 Z" fill="#000000" fill-rule="nonzero" fill-opacity="1" /><path clip-path="url(#clip940)" d="M1151.79 214.453 L1168.11 214.453 L1168.11 218.388 L1146.16 218.388 L1146.16 214.453 Q1148.82 211.698 1153.41 207.068 Q1158.01 202.416 1159.19 201.073 Q1161.44 198.55 1162.32 196.814 Q1163.22 195.055 1163.22 193.365 Q1163.22 190.61 1161.28 188.874 Q1159.36 187.138 1156.25 187.138 Q1154.05 187.138 1151.6 187.902 Q1149.17 188.666 1146.39 190.217 L1146.39 185.494 Q1149.22 184.36 1151.67 183.782 Q1154.12 183.203 1156.16 183.203 Q1161.53 183.203 1164.73 185.888 Q1167.92 188.573 1167.92 193.064 Q1167.92 195.194 1167.11 197.115 Q1166.32 199.013 1164.22 201.606 Q1163.64 202.277 1160.54 205.494 Q1157.43 208.689 1151.79 214.453 Z" fill="#000000" fill-rule="nonzero" fill-opacity="1" /><path clip-path="url(#clip940)" d="M1178.73 214.453 L1186.37 214.453 L1186.37 188.087 L1178.06 189.754 L1178.06 185.494 L1186.32 183.828 L1191 183.828 L1191 214.453 L1198.64 214.453 L1198.64 218.388 L1178.73 218.388 L1178.73 214.453 Z" fill="#000000" fill-rule="nonzero" fill-opacity="1" /><path clip-path="url(#clip940)" d="M1222.73 183.828 L1229.7 183.828 L1238.52 207.346 L1247.39 183.828 L1254.35 183.828 L1254.35 218.388 L1249.79 218.388 L1249.79 188.041 L1240.88 211.744 L1236.18 211.744 L1227.27 188.041 L1227.27 218.388 L1222.73 218.388 L1222.73 183.828 Z" fill="#000000" fill-rule="nonzero" fill-opacity="1" /><path clip-path="url(#clip940)" d="M1275.23 205.355 Q1270.07 205.355 1268.08 206.536 Q1266.09 207.717 1266.09 210.564 Q1266.09 212.832 1267.57 214.175 Q1269.08 215.494 1271.65 215.494 Q1275.19 215.494 1277.32 212.994 Q1279.47 210.471 1279.47 206.305 L1279.47 205.355 L1275.23 205.355 M1283.73 203.596 L1283.73 218.388 L1279.47 218.388 L1279.47 214.453 Q1278.01 216.814 1275.84 217.948 Q1273.66 219.059 1270.51 219.059 Q1266.53 219.059 1264.17 216.837 Q1261.83 214.592 1261.83 210.842 Q1261.83 206.467 1264.75 204.244 Q1267.69 202.022 1273.5 202.022 L1279.47 202.022 L1279.47 201.606 Q1279.47 198.666 1277.53 197.068 Q1275.6 195.448 1272.11 195.448 Q1269.89 195.448 1267.78 195.981 Q1265.67 196.513 1263.73 197.578 L1263.73 193.643 Q1266.07 192.74 1268.27 192.3 Q1270.47 191.837 1272.55 191.837 Q1278.17 191.837 1280.95 194.754 Q1283.73 197.67 1283.73 203.596 Z" fill="#000000" fill-rule="nonzero" fill-opacity="1" /><path clip-path="url(#clip940)" d="M1291.83 182.416 L1295.54 182.416 Q1299.01 187.879 1300.72 193.11 Q1302.46 198.342 1302.46 203.504 Q1302.46 208.689 1300.72 213.943 Q1299.01 219.198 1295.54 224.638 L1291.83 224.638 Q1294.91 219.337 1296.41 214.105 Q1297.94 208.851 1297.94 203.504 Q1297.94 198.156 1296.41 192.948 Q1294.91 187.74 1291.83 182.416 Z" fill="#000000" fill-rule="nonzero" fill-opacity="1" /></svg>
