<?xml version="1.0" encoding="utf-8"?>
<svg xmlns="http://www.w3.org/2000/svg" xmlns:xlink="http://www.w3.org/1999/xlink" width="600" height="400" viewBox="0 0 2400 1600">
<defs>
  <clipPath id="clip980">
    <rect x="0" y="0" width="2400" height="1600"/>
  </clipPath>
</defs>
<path clip-path="url(#clip980)" d="M0 1600 L2400 1600 L2400 8.88178e-14 L0 8.88178e-14  Z" fill="#ffffff" fill-rule="evenodd" fill-opacity="1"/>
<defs>
  <clipPath id="clip981">
    <rect x="480" y="0" width="1681" height="1600"/>
  </clipPath>
</defs>
<path clip-path="url(#clip980)" d="M205.121 1423.18 L2352.76 1423.18 L2352.76 47.2441 L205.121 47.2441  Z" fill="#ffffff" fill-rule="evenodd" fill-opacity="1"/>
<defs>
  <clipPath id="clip982">
    <rect x="205" y="47" width="2149" height="1377"/>
  </clipPath>
</defs>
<polyline clip-path="url(#clip982)" style="stroke:#000000; stroke-linecap:round; stroke-linejoin:round; stroke-width:2; stroke-opacity:0.1; fill:none" points="372.923,1423.18 372.923,47.2441 "/>
<polyline clip-path="url(#clip982)" style="stroke:#000000; stroke-linecap:round; stroke-linejoin:round; stroke-width:2; stroke-opacity:0.1; fill:none" points="674.247,1423.18 674.247,47.2441 "/>
<polyline clip-path="url(#clip982)" style="stroke:#000000; stroke-linecap:round; stroke-linejoin:round; stroke-width:2; stroke-opacity:0.1; fill:none" points="975.571,1423.18 975.571,47.2441 "/>
<polyline clip-path="url(#clip982)" style="stroke:#000000; stroke-linecap:round; stroke-linejoin:round; stroke-width:2; stroke-opacity:0.1; fill:none" points="1276.89,1423.18 1276.89,47.2441 "/>
<polyline clip-path="url(#clip982)" style="stroke:#000000; stroke-linecap:round; stroke-linejoin:round; stroke-width:2; stroke-opacity:0.1; fill:none" points="1578.22,1423.18 1578.22,47.2441 "/>
<polyline clip-path="url(#clip982)" style="stroke:#000000; stroke-linecap:round; stroke-linejoin:round; stroke-width:2; stroke-opacity:0.1; fill:none" points="1879.54,1423.18 1879.54,47.2441 "/>
<polyline clip-path="url(#clip982)" style="stroke:#000000; stroke-linecap:round; stroke-linejoin:round; stroke-width:2; stroke-opacity:0.1; fill:none" points="2180.87,1423.18 2180.87,47.2441 "/>
<polyline clip-path="url(#clip982)" style="stroke:#000000; stroke-linecap:round; stroke-linejoin:round; stroke-width:2; stroke-opacity:0.1; fill:none" points="372.923,1423.18 372.923,47.2441 "/>
<polyline clip-path="url(#clip982)" style="stroke:#000000; stroke-linecap:round; stroke-linejoin:round; stroke-width:2; stroke-opacity:0.1; fill:none" points="674.247,1423.18 674.247,47.2441 "/>
<polyline clip-path="url(#clip982)" style="stroke:#000000; stroke-linecap:round; stroke-linejoin:round; stroke-width:2; stroke-opacity:0.1; fill:none" points="975.571,1423.18 975.571,47.2441 "/>
<polyline clip-path="url(#clip982)" style="stroke:#000000; stroke-linecap:round; stroke-linejoin:round; stroke-width:2; stroke-opacity:0.1; fill:none" points="1276.89,1423.18 1276.89,47.2441 "/>
<polyline clip-path="url(#clip982)" style="stroke:#000000; stroke-linecap:round; stroke-linejoin:round; stroke-width:2; stroke-opacity:0.1; fill:none" points="1578.22,1423.18 1578.22,47.2441 "/>
<polyline clip-path="url(#clip982)" style="stroke:#000000; stroke-linecap:round; stroke-linejoin:round; stroke-width:2; stroke-opacity:0.1; fill:none" points="1879.54,1423.18 1879.54,47.2441 "/>
<polyline clip-path="url(#clip982)" style="stroke:#000000; stroke-linecap:round; stroke-linejoin:round; stroke-width:2; stroke-opacity:0.1; fill:none" points="2180.87,1423.18 2180.87,47.2441 "/>
<polyline clip-path="url(#clip982)" style="stroke:#000000; stroke-linecap:round; stroke-linejoin:round; stroke-width:2; stroke-opacity:0.1; fill:none" points="205.121,1384.24 2352.76,1384.24 "/>
<polyline clip-path="url(#clip982)" style="stroke:#000000; stroke-linecap:round; stroke-linejoin:round; stroke-width:2; stroke-opacity:0.1; fill:none" points="205.121,1065.14 2352.76,1065.14 "/>
<polyline clip-path="url(#clip982)" style="stroke:#000000; stroke-linecap:round; stroke-linejoin:round; stroke-width:2; stroke-opacity:0.1; fill:none" points="205.121,746.048 2352.76,746.048 "/>
<polyline clip-path="url(#clip982)" style="stroke:#000000; stroke-linecap:round; stroke-linejoin:round; stroke-width:2; stroke-opacity:0.1; fill:none" points="205.121,426.953 2352.76,426.953 "/>
<polyline clip-path="url(#clip982)" style="stroke:#000000; stroke-linecap:round; stroke-linejoin:round; stroke-width:2; stroke-opacity:0.1; fill:none" points="205.121,107.858 2352.76,107.858 "/>
<polyline clip-path="url(#clip982)" style="stroke:#000000; stroke-linecap:round; stroke-linejoin:round; stroke-width:2; stroke-opacity:0.1; fill:none" points="205.121,1384.24 2352.76,1384.24 "/>
<polyline clip-path="url(#clip982)" style="stroke:#000000; stroke-linecap:round; stroke-linejoin:round; stroke-width:2; stroke-opacity:0.1; fill:none" points="205.121,1065.14 2352.76,1065.14 "/>
<polyline clip-path="url(#clip982)" style="stroke:#000000; stroke-linecap:round; stroke-linejoin:round; stroke-width:2; stroke-opacity:0.1; fill:none" points="205.121,746.048 2352.76,746.048 "/>
<polyline clip-path="url(#clip982)" style="stroke:#000000; stroke-linecap:round; stroke-linejoin:round; stroke-width:2; stroke-opacity:0.1; fill:none" points="205.121,426.953 2352.76,426.953 "/>
<polyline clip-path="url(#clip982)" style="stroke:#000000; stroke-linecap:round; stroke-linejoin:round; stroke-width:2; stroke-opacity:0.1; fill:none" points="205.121,107.858 2352.76,107.858 "/>
<polyline clip-path="url(#clip980)" style="stroke:#000000; stroke-linecap:round; stroke-linejoin:round; stroke-width:4; stroke-opacity:1; fill:none" points="205.121,1423.18 2352.76,1423.18 "/>
<polyline clip-path="url(#clip980)" style="stroke:#000000; stroke-linecap:round; stroke-linejoin:round; stroke-width:4; stroke-opacity:1; fill:none" points="205.121,47.2441 2352.76,47.2441 "/>
<polyline clip-path="url(#clip980)" style="stroke:#000000; stroke-linecap:round; stroke-linejoin:round; stroke-width:4; stroke-opacity:1; fill:none" points="372.923,1423.18 372.923,1404.28 "/>
<polyline clip-path="url(#clip980)" style="stroke:#000000; stroke-linecap:round; stroke-linejoin:round; stroke-width:4; stroke-opacity:1; fill:none" points="674.247,1423.18 674.247,1404.28 "/>
<polyline clip-path="url(#clip980)" style="stroke:#000000; stroke-linecap:round; stroke-linejoin:round; stroke-width:4; stroke-opacity:1; fill:none" points="975.571,1423.18 975.571,1404.28 "/>
<polyline clip-path="url(#clip980)" style="stroke:#000000; stroke-linecap:round; stroke-linejoin:round; stroke-width:4; stroke-opacity:1; fill:none" points="1276.89,1423.18 1276.89,1404.28 "/>
<polyline clip-path="url(#clip980)" style="stroke:#000000; stroke-linecap:round; stroke-linejoin:round; stroke-width:4; stroke-opacity:1; fill:none" points="1578.22,1423.18 1578.22,1404.28 "/>
<polyline clip-path="url(#clip980)" style="stroke:#000000; stroke-linecap:round; stroke-linejoin:round; stroke-width:4; stroke-opacity:1; fill:none" points="1879.54,1423.18 1879.54,1404.28 "/>
<polyline clip-path="url(#clip980)" style="stroke:#000000; stroke-linecap:round; stroke-linejoin:round; stroke-width:4; stroke-opacity:1; fill:none" points="2180.87,1423.18 2180.87,1404.28 "/>
<polyline clip-path="url(#clip980)" style="stroke:#000000; stroke-linecap:round; stroke-linejoin:round; stroke-width:4; stroke-opacity:1; fill:none" points="372.923,47.2441 372.923,66.1417 "/>
<polyline clip-path="url(#clip980)" style="stroke:#000000; stroke-linecap:round; stroke-linejoin:round; stroke-width:4; stroke-opacity:1; fill:none" points="674.247,47.2441 674.247,66.1417 "/>
<polyline clip-path="url(#clip980)" style="stroke:#000000; stroke-linecap:round; stroke-linejoin:round; stroke-width:4; stroke-opacity:1; fill:none" points="975.571,47.2441 975.571,66.1417 "/>
<polyline clip-path="url(#clip980)" style="stroke:#000000; stroke-linecap:round; stroke-linejoin:round; stroke-width:4; stroke-opacity:1; fill:none" points="1276.89,47.2441 1276.89,66.1417 "/>
<polyline clip-path="url(#clip980)" style="stroke:#000000; stroke-linecap:round; stroke-linejoin:round; stroke-width:4; stroke-opacity:1; fill:none" points="1578.22,47.2441 1578.22,66.1417 "/>
<polyline clip-path="url(#clip980)" style="stroke:#000000; stroke-linecap:round; stroke-linejoin:round; stroke-width:4; stroke-opacity:1; fill:none" points="1879.54,47.2441 1879.54,66.1417 "/>
<polyline clip-path="url(#clip980)" style="stroke:#000000; stroke-linecap:round; stroke-linejoin:round; stroke-width:4; stroke-opacity:1; fill:none" points="2180.87,47.2441 2180.87,66.1417 "/>
<path clip-path="url(#clip980)" d="M321.43 1466.44 Q318.282 1466.44 316.43 1468.59 Q314.601 1470.74 314.601 1474.49 Q314.601 1478.22 316.43 1480.39 Q318.282 1482.55 321.43 1482.55 Q324.578 1482.55 326.407 1480.39 Q328.259 1478.22 328.259 1474.49 Q328.259 1470.74 326.407 1468.59 Q324.578 1466.44 321.43 1466.44 M330.712 1451.78 L330.712 1456.04 Q328.953 1455.21 327.148 1454.77 Q325.365 1454.33 323.606 1454.33 Q318.976 1454.33 316.523 1457.45 Q314.092 1460.58 313.745 1466.9 Q315.111 1464.89 317.171 1463.82 Q319.231 1462.73 321.708 1462.73 Q326.916 1462.73 329.925 1465.9 Q332.958 1469.05 332.958 1474.49 Q332.958 1479.82 329.81 1483.03 Q326.661 1486.25 321.43 1486.25 Q315.435 1486.25 312.263 1481.67 Q309.092 1477.06 309.092 1468.33 Q309.092 1460.14 312.981 1455.28 Q316.87 1450.39 323.421 1450.39 Q325.18 1450.39 326.962 1450.74 Q328.768 1451.09 330.712 1451.78 Z" fill="#000000" fill-rule="nonzero" fill-opacity="1" /><path clip-path="url(#clip980)" d="M341.059 1451.02 L359.416 1451.02 L359.416 1454.96 L345.342 1454.96 L345.342 1463.43 Q346.36 1463.08 347.379 1462.92 Q348.397 1462.73 349.416 1462.73 Q355.203 1462.73 358.583 1465.9 Q361.962 1469.08 361.962 1474.49 Q361.962 1480.07 358.49 1483.17 Q355.018 1486.25 348.698 1486.25 Q346.522 1486.25 344.254 1485.88 Q342.009 1485.51 339.601 1484.77 L339.601 1480.07 Q341.684 1481.2 343.907 1481.76 Q346.129 1482.32 348.606 1482.32 Q352.61 1482.32 354.948 1480.21 Q357.286 1478.1 357.286 1474.49 Q357.286 1470.88 354.948 1468.77 Q352.61 1466.67 348.606 1466.67 Q346.731 1466.67 344.856 1467.08 Q343.004 1467.5 341.059 1468.38 L341.059 1451.02 Z" fill="#000000" fill-rule="nonzero" fill-opacity="1" /><path clip-path="url(#clip980)" d="M371.175 1479.7 L376.059 1479.7 L376.059 1485.58 L371.175 1485.58 L371.175 1479.7 Z" fill="#000000" fill-rule="nonzero" fill-opacity="1" /><path clip-path="url(#clip980)" d="M396.244 1469.17 Q392.911 1469.17 390.99 1470.95 Q389.092 1472.73 389.092 1475.86 Q389.092 1478.98 390.99 1480.77 Q392.911 1482.55 396.244 1482.55 Q399.578 1482.55 401.499 1480.77 Q403.42 1478.96 403.42 1475.86 Q403.42 1472.73 401.499 1470.95 Q399.601 1469.17 396.244 1469.17 M391.568 1467.18 Q388.559 1466.44 386.869 1464.38 Q385.203 1462.32 385.203 1459.35 Q385.203 1455.21 388.143 1452.8 Q391.105 1450.39 396.244 1450.39 Q401.406 1450.39 404.346 1452.8 Q407.286 1455.21 407.286 1459.35 Q407.286 1462.32 405.596 1464.38 Q403.929 1466.44 400.943 1467.18 Q404.323 1467.96 406.198 1470.26 Q408.096 1472.55 408.096 1475.86 Q408.096 1480.88 405.017 1483.57 Q401.962 1486.25 396.244 1486.25 Q390.527 1486.25 387.448 1483.57 Q384.393 1480.88 384.393 1475.86 Q384.393 1472.55 386.291 1470.26 Q388.189 1467.96 391.568 1467.18 M389.856 1459.79 Q389.856 1462.48 391.522 1463.98 Q393.212 1465.49 396.244 1465.49 Q399.254 1465.49 400.943 1463.98 Q402.656 1462.48 402.656 1459.79 Q402.656 1457.11 400.943 1455.6 Q399.254 1454.1 396.244 1454.1 Q393.212 1454.1 391.522 1455.6 Q389.856 1457.11 389.856 1459.79 Z" fill="#000000" fill-rule="nonzero" fill-opacity="1" /><path clip-path="url(#clip980)" d="M420.434 1481.64 L436.753 1481.64 L436.753 1485.58 L414.809 1485.58 L414.809 1481.64 Q417.471 1478.89 422.054 1474.26 Q426.661 1469.61 427.841 1468.27 Q430.087 1465.74 430.966 1464.01 Q431.869 1462.25 431.869 1460.56 Q431.869 1457.8 429.925 1456.07 Q428.003 1454.33 424.902 1454.33 Q422.703 1454.33 420.249 1455.09 Q417.818 1455.86 415.041 1457.41 L415.041 1452.69 Q417.865 1451.55 420.318 1450.97 Q422.772 1450.39 424.809 1450.39 Q430.179 1450.39 433.374 1453.08 Q436.568 1455.77 436.568 1460.26 Q436.568 1462.39 435.758 1464.31 Q434.971 1466.2 432.865 1468.8 Q432.286 1469.47 429.184 1472.69 Q426.082 1475.88 420.434 1481.64 Z" fill="#000000" fill-rule="nonzero" fill-opacity="1" /><path clip-path="url(#clip980)" d="M621.712 1466.44 Q618.564 1466.44 616.712 1468.59 Q614.884 1470.74 614.884 1474.49 Q614.884 1478.22 616.712 1480.39 Q618.564 1482.55 621.712 1482.55 Q624.86 1482.55 626.689 1480.39 Q628.541 1478.22 628.541 1474.49 Q628.541 1470.74 626.689 1468.59 Q624.86 1466.44 621.712 1466.44 M630.995 1451.78 L630.995 1456.04 Q629.235 1455.21 627.43 1454.77 Q625.647 1454.33 623.888 1454.33 Q619.259 1454.33 616.805 1457.45 Q614.374 1460.58 614.027 1466.9 Q615.393 1464.89 617.453 1463.82 Q619.513 1462.73 621.99 1462.73 Q627.198 1462.73 630.208 1465.9 Q633.24 1469.05 633.24 1474.49 Q633.24 1479.82 630.092 1483.03 Q626.944 1486.25 621.712 1486.25 Q615.717 1486.25 612.546 1481.67 Q609.374 1477.06 609.374 1468.33 Q609.374 1460.14 613.263 1455.28 Q617.152 1450.39 623.703 1450.39 Q625.462 1450.39 627.245 1450.74 Q629.05 1451.09 630.995 1451.78 Z" fill="#000000" fill-rule="nonzero" fill-opacity="1" /><path clip-path="url(#clip980)" d="M641.342 1451.02 L659.698 1451.02 L659.698 1454.96 L645.624 1454.96 L645.624 1463.43 Q646.643 1463.08 647.661 1462.92 Q648.68 1462.73 649.698 1462.73 Q655.485 1462.73 658.865 1465.9 Q662.244 1469.08 662.244 1474.49 Q662.244 1480.07 658.772 1483.17 Q655.3 1486.25 648.981 1486.25 Q646.805 1486.25 644.536 1485.88 Q642.291 1485.51 639.883 1484.77 L639.883 1480.07 Q641.967 1481.2 644.189 1481.76 Q646.411 1482.32 648.888 1482.32 Q652.893 1482.32 655.231 1480.21 Q657.568 1478.1 657.568 1474.49 Q657.568 1470.88 655.231 1468.77 Q652.893 1466.67 648.888 1466.67 Q647.013 1466.67 645.138 1467.08 Q643.286 1467.5 641.342 1468.38 L641.342 1451.02 Z" fill="#000000" fill-rule="nonzero" fill-opacity="1" /><path clip-path="url(#clip980)" d="M671.457 1479.7 L676.342 1479.7 L676.342 1485.58 L671.457 1485.58 L671.457 1479.7 Z" fill="#000000" fill-rule="nonzero" fill-opacity="1" /><path clip-path="url(#clip980)" d="M696.527 1469.17 Q693.193 1469.17 691.272 1470.95 Q689.374 1472.73 689.374 1475.86 Q689.374 1478.98 691.272 1480.77 Q693.193 1482.55 696.527 1482.55 Q699.86 1482.55 701.781 1480.77 Q703.702 1478.96 703.702 1475.86 Q703.702 1472.73 701.781 1470.95 Q699.883 1469.17 696.527 1469.17 M691.851 1467.18 Q688.841 1466.44 687.152 1464.38 Q685.485 1462.32 685.485 1459.35 Q685.485 1455.21 688.425 1452.8 Q691.388 1450.39 696.527 1450.39 Q701.689 1450.39 704.628 1452.8 Q707.568 1455.21 707.568 1459.35 Q707.568 1462.32 705.878 1464.38 Q704.212 1466.44 701.226 1467.18 Q704.605 1467.96 706.48 1470.26 Q708.378 1472.55 708.378 1475.86 Q708.378 1480.88 705.3 1483.57 Q702.244 1486.25 696.527 1486.25 Q690.809 1486.25 687.73 1483.57 Q684.675 1480.88 684.675 1475.86 Q684.675 1472.55 686.573 1470.26 Q688.471 1467.96 691.851 1467.18 M690.138 1459.79 Q690.138 1462.48 691.804 1463.98 Q693.494 1465.49 696.527 1465.49 Q699.536 1465.49 701.226 1463.98 Q702.939 1462.48 702.939 1459.79 Q702.939 1457.11 701.226 1455.6 Q699.536 1454.1 696.527 1454.1 Q693.494 1454.1 691.804 1455.6 Q690.138 1457.11 690.138 1459.79 Z" fill="#000000" fill-rule="nonzero" fill-opacity="1" /><path clip-path="url(#clip980)" d="M729.536 1455.09 L717.73 1473.54 L729.536 1473.54 L729.536 1455.09 M728.309 1451.02 L734.188 1451.02 L734.188 1473.54 L739.119 1473.54 L739.119 1477.43 L734.188 1477.43 L734.188 1485.58 L729.536 1485.58 L729.536 1477.43 L713.934 1477.43 L713.934 1472.92 L728.309 1451.02 Z" fill="#000000" fill-rule="nonzero" fill-opacity="1" /><path clip-path="url(#clip980)" d="M923.198 1466.44 Q920.05 1466.44 918.198 1468.59 Q916.369 1470.74 916.369 1474.49 Q916.369 1478.22 918.198 1480.39 Q920.05 1482.55 923.198 1482.55 Q926.346 1482.55 928.175 1480.39 Q930.027 1478.22 930.027 1474.49 Q930.027 1470.74 928.175 1468.59 Q926.346 1466.44 923.198 1466.44 M932.481 1451.78 L932.481 1456.04 Q930.721 1455.21 928.916 1454.77 Q927.133 1454.33 925.374 1454.33 Q920.744 1454.33 918.291 1457.45 Q915.86 1460.58 915.513 1466.9 Q916.879 1464.89 918.939 1463.82 Q920.999 1462.73 923.476 1462.73 Q928.684 1462.73 931.693 1465.9 Q934.726 1469.05 934.726 1474.49 Q934.726 1479.82 931.578 1483.03 Q928.43 1486.25 923.198 1486.25 Q917.203 1486.25 914.032 1481.67 Q910.86 1477.06 910.86 1468.33 Q910.86 1460.14 914.749 1455.28 Q918.638 1450.39 925.189 1450.39 Q926.948 1450.39 928.731 1450.74 Q930.536 1451.09 932.481 1451.78 Z" fill="#000000" fill-rule="nonzero" fill-opacity="1" /><path clip-path="url(#clip980)" d="M942.828 1451.02 L961.184 1451.02 L961.184 1454.96 L947.11 1454.96 L947.11 1463.43 Q948.129 1463.08 949.147 1462.92 Q950.166 1462.73 951.184 1462.73 Q956.971 1462.73 960.351 1465.9 Q963.73 1469.08 963.73 1474.49 Q963.73 1480.07 960.258 1483.17 Q956.786 1486.25 950.467 1486.25 Q948.291 1486.25 946.022 1485.88 Q943.777 1485.51 941.369 1484.77 L941.369 1480.07 Q943.453 1481.2 945.675 1481.76 Q947.897 1482.32 950.374 1482.32 Q954.379 1482.32 956.716 1480.21 Q959.054 1478.1 959.054 1474.49 Q959.054 1470.88 956.716 1468.77 Q954.379 1466.67 950.374 1466.67 Q948.499 1466.67 946.624 1467.08 Q944.772 1467.5 942.828 1468.38 L942.828 1451.02 Z" fill="#000000" fill-rule="nonzero" fill-opacity="1" /><path clip-path="url(#clip980)" d="M972.943 1479.7 L977.827 1479.7 L977.827 1485.58 L972.943 1485.58 L972.943 1479.7 Z" fill="#000000" fill-rule="nonzero" fill-opacity="1" /><path clip-path="url(#clip980)" d="M998.013 1469.17 Q994.679 1469.17 992.758 1470.95 Q990.86 1472.73 990.86 1475.86 Q990.86 1478.98 992.758 1480.77 Q994.679 1482.55 998.013 1482.55 Q1001.35 1482.55 1003.27 1480.77 Q1005.19 1478.96 1005.19 1475.86 Q1005.19 1472.73 1003.27 1470.95 Q1001.37 1469.17 998.013 1469.17 M993.337 1467.18 Q990.327 1466.44 988.638 1464.38 Q986.971 1462.32 986.971 1459.35 Q986.971 1455.21 989.911 1452.8 Q992.874 1450.39 998.013 1450.39 Q1003.17 1450.39 1006.11 1452.8 Q1009.05 1455.21 1009.05 1459.35 Q1009.05 1462.32 1007.36 1464.38 Q1005.7 1466.44 1002.71 1467.18 Q1006.09 1467.96 1007.97 1470.26 Q1009.86 1472.55 1009.86 1475.86 Q1009.86 1480.88 1006.79 1483.57 Q1003.73 1486.25 998.013 1486.25 Q992.295 1486.25 989.216 1483.57 Q986.161 1480.88 986.161 1475.86 Q986.161 1472.55 988.059 1470.26 Q989.957 1467.96 993.337 1467.18 M991.624 1459.79 Q991.624 1462.48 993.29 1463.98 Q994.98 1465.49 998.013 1465.49 Q1001.02 1465.49 1002.71 1463.98 Q1004.42 1462.48 1004.42 1459.79 Q1004.42 1457.11 1002.71 1455.6 Q1001.02 1454.1 998.013 1454.1 Q994.98 1454.1 993.29 1455.6 Q991.624 1457.11 991.624 1459.79 Z" fill="#000000" fill-rule="nonzero" fill-opacity="1" /><path clip-path="url(#clip980)" d="M1028.75 1466.44 Q1025.61 1466.44 1023.75 1468.59 Q1021.92 1470.74 1021.92 1474.49 Q1021.92 1478.22 1023.75 1480.39 Q1025.61 1482.55 1028.75 1482.55 Q1031.9 1482.55 1033.73 1480.39 Q1035.58 1478.22 1035.58 1474.49 Q1035.58 1470.74 1033.73 1468.59 Q1031.9 1466.44 1028.75 1466.44 M1038.04 1451.78 L1038.04 1456.04 Q1036.28 1455.21 1034.47 1454.77 Q1032.69 1454.33 1030.93 1454.33 Q1026.3 1454.33 1023.85 1457.45 Q1021.42 1460.58 1021.07 1466.9 Q1022.43 1464.89 1024.49 1463.82 Q1026.55 1462.73 1029.03 1462.73 Q1034.24 1462.73 1037.25 1465.9 Q1040.28 1469.05 1040.28 1474.49 Q1040.28 1479.82 1037.13 1483.03 Q1033.98 1486.25 1028.75 1486.25 Q1022.76 1486.25 1019.59 1481.67 Q1016.42 1477.06 1016.42 1468.33 Q1016.42 1460.14 1020.3 1455.28 Q1024.19 1450.39 1030.74 1450.39 Q1032.5 1450.39 1034.29 1450.74 Q1036.09 1451.09 1038.04 1451.78 Z" fill="#000000" fill-rule="nonzero" fill-opacity="1" /><path clip-path="url(#clip980)" d="M1224.65 1466.44 Q1221.5 1466.44 1219.65 1468.59 Q1217.82 1470.74 1217.82 1474.49 Q1217.82 1478.22 1219.65 1480.39 Q1221.5 1482.55 1224.65 1482.55 Q1227.8 1482.55 1229.63 1480.39 Q1231.48 1478.22 1231.48 1474.49 Q1231.48 1470.74 1229.63 1468.59 Q1227.8 1466.44 1224.65 1466.44 M1233.93 1451.78 L1233.93 1456.04 Q1232.17 1455.21 1230.37 1454.77 Q1228.58 1454.33 1226.83 1454.33 Q1222.2 1454.33 1219.74 1457.45 Q1217.31 1460.58 1216.96 1466.9 Q1218.33 1464.89 1220.39 1463.82 Q1222.45 1462.73 1224.93 1462.73 Q1230.14 1462.73 1233.14 1465.9 Q1236.18 1469.05 1236.18 1474.49 Q1236.18 1479.82 1233.03 1483.03 Q1229.88 1486.25 1224.65 1486.25 Q1218.65 1486.25 1215.48 1481.67 Q1212.31 1477.06 1212.31 1468.33 Q1212.31 1460.14 1216.2 1455.28 Q1220.09 1450.39 1226.64 1450.39 Q1228.4 1450.39 1230.18 1450.74 Q1231.99 1451.09 1233.93 1451.78 Z" fill="#000000" fill-rule="nonzero" fill-opacity="1" /><path clip-path="url(#clip980)" d="M1244.28 1451.02 L1262.64 1451.02 L1262.64 1454.96 L1248.56 1454.96 L1248.56 1463.43 Q1249.58 1463.08 1250.6 1462.92 Q1251.62 1462.73 1252.64 1462.73 Q1258.42 1462.73 1261.8 1465.9 Q1265.18 1469.08 1265.18 1474.49 Q1265.18 1480.07 1261.71 1483.17 Q1258.24 1486.25 1251.92 1486.25 Q1249.74 1486.25 1247.47 1485.88 Q1245.23 1485.51 1242.82 1484.77 L1242.82 1480.07 Q1244.9 1481.2 1247.13 1481.76 Q1249.35 1482.32 1251.83 1482.32 Q1255.83 1482.32 1258.17 1480.21 Q1260.51 1478.1 1260.51 1474.49 Q1260.51 1470.88 1258.17 1468.77 Q1255.83 1466.67 1251.83 1466.67 Q1249.95 1466.67 1248.08 1467.08 Q1246.22 1467.5 1244.28 1468.38 L1244.28 1451.02 Z" fill="#000000" fill-rule="nonzero" fill-opacity="1" /><path clip-path="url(#clip980)" d="M1274.39 1479.7 L1279.28 1479.7 L1279.28 1485.58 L1274.39 1485.58 L1274.39 1479.7 Z" fill="#000000" fill-rule="nonzero" fill-opacity="1" /><path clip-path="url(#clip980)" d="M1299.46 1469.17 Q1296.13 1469.17 1294.21 1470.95 Q1292.31 1472.73 1292.31 1475.86 Q1292.31 1478.98 1294.21 1480.77 Q1296.13 1482.55 1299.46 1482.55 Q1302.8 1482.55 1304.72 1480.77 Q1306.64 1478.96 1306.64 1475.86 Q1306.64 1472.73 1304.72 1470.95 Q1302.82 1469.17 1299.46 1469.17 M1294.79 1467.18 Q1291.78 1466.44 1290.09 1464.38 Q1288.42 1462.32 1288.42 1459.35 Q1288.42 1455.21 1291.36 1452.8 Q1294.32 1450.39 1299.46 1450.39 Q1304.63 1450.39 1307.57 1452.8 Q1310.51 1455.21 1310.51 1459.35 Q1310.51 1462.32 1308.82 1464.38 Q1307.15 1466.44 1304.16 1467.18 Q1307.54 1467.96 1309.42 1470.26 Q1311.32 1472.55 1311.32 1475.86 Q1311.32 1480.88 1308.24 1483.57 Q1305.18 1486.25 1299.46 1486.25 Q1293.75 1486.25 1290.67 1483.57 Q1287.61 1480.88 1287.61 1475.86 Q1287.61 1472.55 1289.51 1470.26 Q1291.41 1467.96 1294.79 1467.18 M1293.07 1459.79 Q1293.07 1462.48 1294.74 1463.98 Q1296.43 1465.49 1299.46 1465.49 Q1302.47 1465.49 1304.16 1463.98 Q1305.88 1462.48 1305.88 1459.79 Q1305.88 1457.11 1304.16 1455.6 Q1302.47 1454.1 1299.46 1454.1 Q1296.43 1454.1 1294.74 1455.6 Q1293.07 1457.11 1293.07 1459.79 Z" fill="#000000" fill-rule="nonzero" fill-opacity="1" /><path clip-path="url(#clip980)" d="M1329.63 1469.17 Q1326.29 1469.17 1324.37 1470.95 Q1322.47 1472.73 1322.47 1475.86 Q1322.47 1478.98 1324.37 1480.77 Q1326.29 1482.55 1329.63 1482.55 Q1332.96 1482.55 1334.88 1480.77 Q1336.8 1478.96 1336.8 1475.86 Q1336.8 1472.73 1334.88 1470.95 Q1332.98 1469.17 1329.63 1469.17 M1324.95 1467.18 Q1321.94 1466.44 1320.25 1464.38 Q1318.58 1462.32 1318.58 1459.35 Q1318.58 1455.21 1321.52 1452.8 Q1324.49 1450.39 1329.63 1450.39 Q1334.79 1450.39 1337.73 1452.8 Q1340.67 1455.21 1340.67 1459.35 Q1340.67 1462.32 1338.98 1464.38 Q1337.31 1466.44 1334.32 1467.18 Q1337.7 1467.96 1339.58 1470.26 Q1341.48 1472.55 1341.48 1475.86 Q1341.48 1480.88 1338.4 1483.57 Q1335.34 1486.25 1329.63 1486.25 Q1323.91 1486.25 1320.83 1483.57 Q1317.77 1480.88 1317.77 1475.86 Q1317.77 1472.55 1319.67 1470.26 Q1321.57 1467.96 1324.95 1467.18 M1323.24 1459.79 Q1323.24 1462.48 1324.9 1463.98 Q1326.59 1465.49 1329.63 1465.49 Q1332.63 1465.49 1334.32 1463.98 Q1336.04 1462.48 1336.04 1459.79 Q1336.04 1457.11 1334.32 1455.6 Q1332.63 1454.1 1329.63 1454.1 Q1326.59 1454.1 1324.9 1455.6 Q1323.24 1457.11 1323.24 1459.79 Z" fill="#000000" fill-rule="nonzero" fill-opacity="1" /><path clip-path="url(#clip980)" d="M1525.93 1466.44 Q1522.78 1466.44 1520.93 1468.59 Q1519.1 1470.74 1519.1 1474.49 Q1519.1 1478.22 1520.93 1480.39 Q1522.78 1482.55 1525.93 1482.55 Q1529.08 1482.55 1530.9 1480.39 Q1532.76 1478.22 1532.76 1474.49 Q1532.76 1470.74 1530.9 1468.59 Q1529.08 1466.44 1525.93 1466.44 M1535.21 1451.78 L1535.21 1456.04 Q1533.45 1455.21 1531.64 1454.77 Q1529.86 1454.33 1528.1 1454.33 Q1523.47 1454.33 1521.02 1457.45 Q1518.59 1460.58 1518.24 1466.9 Q1519.61 1464.89 1521.67 1463.82 Q1523.73 1462.73 1526.2 1462.73 Q1531.41 1462.73 1534.42 1465.9 Q1537.45 1469.05 1537.45 1474.49 Q1537.45 1479.82 1534.31 1483.03 Q1531.16 1486.25 1525.93 1486.25 Q1519.93 1486.25 1516.76 1481.67 Q1513.59 1477.06 1513.59 1468.33 Q1513.59 1460.14 1517.48 1455.28 Q1521.37 1450.39 1527.92 1450.39 Q1529.68 1450.39 1531.46 1450.74 Q1533.26 1451.09 1535.21 1451.78 Z" fill="#000000" fill-rule="nonzero" fill-opacity="1" /><path clip-path="url(#clip980)" d="M1545.56 1451.02 L1563.91 1451.02 L1563.91 1454.96 L1549.84 1454.96 L1549.84 1463.43 Q1550.86 1463.08 1551.88 1462.92 Q1552.89 1462.73 1553.91 1462.73 Q1559.7 1462.73 1563.08 1465.9 Q1566.46 1469.08 1566.46 1474.49 Q1566.46 1480.07 1562.99 1483.17 Q1559.51 1486.25 1553.2 1486.25 Q1551.02 1486.25 1548.75 1485.88 Q1546.51 1485.51 1544.1 1484.77 L1544.1 1480.07 Q1546.18 1481.2 1548.4 1481.76 Q1550.63 1482.32 1553.1 1482.32 Q1557.11 1482.32 1559.45 1480.21 Q1561.78 1478.1 1561.78 1474.49 Q1561.78 1470.88 1559.45 1468.77 Q1557.11 1466.67 1553.1 1466.67 Q1551.23 1466.67 1549.35 1467.08 Q1547.5 1467.5 1545.56 1468.38 L1545.56 1451.02 Z" fill="#000000" fill-rule="nonzero" fill-opacity="1" /><path clip-path="url(#clip980)" d="M1575.67 1479.7 L1580.56 1479.7 L1580.56 1485.58 L1575.67 1485.58 L1575.67 1479.7 Z" fill="#000000" fill-rule="nonzero" fill-opacity="1" /><path clip-path="url(#clip980)" d="M1590.88 1484.86 L1590.88 1480.6 Q1592.64 1481.44 1594.45 1481.88 Q1596.25 1482.32 1597.99 1482.32 Q1602.62 1482.32 1605.05 1479.21 Q1607.5 1476.09 1607.85 1469.75 Q1606.51 1471.74 1604.45 1472.8 Q1602.38 1473.87 1599.88 1473.87 Q1594.7 1473.87 1591.67 1470.74 Q1588.66 1467.59 1588.66 1462.15 Q1588.66 1456.83 1591.81 1453.61 Q1594.95 1450.39 1600.19 1450.39 Q1606.18 1450.39 1609.33 1455 Q1612.5 1459.58 1612.5 1468.33 Q1612.5 1476.51 1608.61 1481.39 Q1604.75 1486.25 1598.2 1486.25 Q1596.44 1486.25 1594.63 1485.9 Q1592.82 1485.56 1590.88 1484.86 M1600.19 1470.21 Q1603.33 1470.21 1605.16 1468.06 Q1607.01 1465.9 1607.01 1462.15 Q1607.01 1458.43 1605.16 1456.27 Q1603.33 1454.1 1600.19 1454.1 Q1597.04 1454.1 1595.19 1456.27 Q1593.36 1458.43 1593.36 1462.15 Q1593.36 1465.9 1595.19 1468.06 Q1597.04 1470.21 1600.19 1470.21 Z" fill="#000000" fill-rule="nonzero" fill-opacity="1" /><path clip-path="url(#clip980)" d="M1630.9 1454.1 Q1627.29 1454.1 1625.46 1457.66 Q1623.66 1461.2 1623.66 1468.33 Q1623.66 1475.44 1625.46 1479.01 Q1627.29 1482.55 1630.9 1482.55 Q1634.54 1482.55 1636.34 1479.01 Q1638.17 1475.44 1638.17 1468.33 Q1638.17 1461.2 1636.34 1457.66 Q1634.54 1454.1 1630.9 1454.1 M1630.9 1450.39 Q1636.71 1450.39 1639.77 1455 Q1642.85 1459.58 1642.85 1468.33 Q1642.85 1477.06 1639.77 1481.67 Q1636.71 1486.25 1630.9 1486.25 Q1625.09 1486.25 1622.01 1481.67 Q1618.96 1477.06 1618.96 1468.33 Q1618.96 1459.58 1622.01 1455 Q1625.09 1450.39 1630.9 1450.39 Z" fill="#000000" fill-rule="nonzero" fill-opacity="1" /><path clip-path="url(#clip980)" d="M1828.05 1466.44 Q1824.9 1466.44 1823.05 1468.59 Q1821.22 1470.74 1821.22 1474.49 Q1821.22 1478.22 1823.05 1480.39 Q1824.9 1482.55 1828.05 1482.55 Q1831.2 1482.55 1833.03 1480.39 Q1834.88 1478.22 1834.88 1474.49 Q1834.88 1470.74 1833.03 1468.59 Q1831.2 1466.44 1828.05 1466.44 M1837.33 1451.78 L1837.33 1456.04 Q1835.57 1455.21 1833.77 1454.77 Q1831.98 1454.33 1830.23 1454.33 Q1825.6 1454.33 1823.14 1457.45 Q1820.71 1460.58 1820.36 1466.9 Q1821.73 1464.89 1823.79 1463.82 Q1825.85 1462.73 1828.33 1462.73 Q1833.54 1462.73 1836.54 1465.9 Q1839.58 1469.05 1839.58 1474.49 Q1839.58 1479.82 1836.43 1483.03 Q1833.28 1486.25 1828.05 1486.25 Q1822.05 1486.25 1818.88 1481.67 Q1815.71 1477.06 1815.71 1468.33 Q1815.71 1460.14 1819.6 1455.28 Q1823.49 1450.39 1830.04 1450.39 Q1831.8 1450.39 1833.58 1450.74 Q1835.39 1451.09 1837.33 1451.78 Z" fill="#000000" fill-rule="nonzero" fill-opacity="1" /><path clip-path="url(#clip980)" d="M1847.68 1451.02 L1866.04 1451.02 L1866.04 1454.96 L1851.96 1454.96 L1851.96 1463.43 Q1852.98 1463.08 1854 1462.92 Q1855.02 1462.73 1856.04 1462.73 Q1861.82 1462.73 1865.2 1465.9 Q1868.58 1469.08 1868.58 1474.49 Q1868.58 1480.07 1865.11 1483.17 Q1861.64 1486.25 1855.32 1486.25 Q1853.14 1486.25 1850.87 1485.88 Q1848.63 1485.51 1846.22 1484.77 L1846.22 1480.07 Q1848.3 1481.2 1850.53 1481.76 Q1852.75 1482.32 1855.23 1482.32 Q1859.23 1482.32 1861.57 1480.21 Q1863.91 1478.1 1863.91 1474.49 Q1863.91 1470.88 1861.57 1468.77 Q1859.23 1466.67 1855.23 1466.67 Q1853.35 1466.67 1851.48 1467.08 Q1849.62 1467.5 1847.68 1468.38 L1847.68 1451.02 Z" fill="#000000" fill-rule="nonzero" fill-opacity="1" /><path clip-path="url(#clip980)" d="M1877.79 1479.7 L1882.68 1479.7 L1882.68 1485.58 L1877.79 1485.58 L1877.79 1479.7 Z" fill="#000000" fill-rule="nonzero" fill-opacity="1" /><path clip-path="url(#clip980)" d="M1893 1484.86 L1893 1480.6 Q1894.76 1481.44 1896.57 1481.88 Q1898.37 1482.32 1900.11 1482.32 Q1904.74 1482.32 1907.17 1479.21 Q1909.62 1476.09 1909.97 1469.75 Q1908.63 1471.74 1906.57 1472.8 Q1904.51 1473.87 1902.01 1473.87 Q1896.82 1473.87 1893.79 1470.74 Q1890.78 1467.59 1890.78 1462.15 Q1890.78 1456.83 1893.93 1453.61 Q1897.08 1450.39 1902.31 1450.39 Q1908.3 1450.39 1911.45 1455 Q1914.62 1459.58 1914.62 1468.33 Q1914.62 1476.51 1910.73 1481.39 Q1906.87 1486.25 1900.32 1486.25 Q1898.56 1486.25 1896.75 1485.9 Q1894.95 1485.56 1893 1484.86 M1902.31 1470.21 Q1905.46 1470.21 1907.29 1468.06 Q1909.14 1465.9 1909.14 1462.15 Q1909.14 1458.43 1907.29 1456.27 Q1905.46 1454.1 1902.31 1454.1 Q1899.16 1454.1 1897.31 1456.27 Q1895.48 1458.43 1895.48 1462.15 Q1895.48 1465.9 1897.31 1468.06 Q1899.16 1470.21 1902.31 1470.21 Z" fill="#000000" fill-rule="nonzero" fill-opacity="1" /><path clip-path="url(#clip980)" d="M1927.05 1481.64 L1943.37 1481.64 L1943.37 1485.58 L1921.43 1485.58 L1921.43 1481.64 Q1924.09 1478.89 1928.67 1474.26 Q1933.28 1469.61 1934.46 1468.27 Q1936.71 1465.74 1937.59 1464.01 Q1938.49 1462.25 1938.49 1460.56 Q1938.49 1457.8 1936.54 1456.07 Q1934.62 1454.33 1931.52 1454.33 Q1929.32 1454.33 1926.87 1455.09 Q1924.44 1455.86 1921.66 1457.41 L1921.66 1452.69 Q1924.48 1451.55 1926.94 1450.97 Q1929.39 1450.39 1931.43 1450.39 Q1936.8 1450.39 1939.99 1453.08 Q1943.19 1455.77 1943.19 1460.26 Q1943.19 1462.39 1942.38 1464.31 Q1941.59 1466.2 1939.48 1468.8 Q1938.91 1469.47 1935.8 1472.69 Q1932.7 1475.88 1927.05 1481.64 Z" fill="#000000" fill-rule="nonzero" fill-opacity="1" /><path clip-path="url(#clip980)" d="M2128.33 1466.44 Q2125.18 1466.44 2123.33 1468.59 Q2121.5 1470.74 2121.5 1474.49 Q2121.5 1478.22 2123.33 1480.39 Q2125.18 1482.55 2128.33 1482.55 Q2131.48 1482.55 2133.31 1480.39 Q2135.16 1478.22 2135.16 1474.49 Q2135.16 1470.74 2133.31 1468.59 Q2131.48 1466.44 2128.33 1466.44 M2137.61 1451.78 L2137.61 1456.04 Q2135.85 1455.21 2134.05 1454.77 Q2132.27 1454.33 2130.51 1454.33 Q2125.88 1454.33 2123.42 1457.45 Q2120.99 1460.58 2120.65 1466.9 Q2122.01 1464.89 2124.07 1463.82 Q2126.13 1462.73 2128.61 1462.73 Q2133.82 1462.73 2136.83 1465.9 Q2139.86 1469.05 2139.86 1474.49 Q2139.86 1479.82 2136.71 1483.03 Q2133.56 1486.25 2128.33 1486.25 Q2122.34 1486.25 2119.17 1481.67 Q2115.99 1477.06 2115.99 1468.33 Q2115.99 1460.14 2119.88 1455.28 Q2123.77 1450.39 2130.32 1450.39 Q2132.08 1450.39 2133.86 1450.74 Q2135.67 1451.09 2137.61 1451.78 Z" fill="#000000" fill-rule="nonzero" fill-opacity="1" /><path clip-path="url(#clip980)" d="M2147.96 1451.02 L2166.32 1451.02 L2166.32 1454.96 L2152.24 1454.96 L2152.24 1463.43 Q2153.26 1463.08 2154.28 1462.92 Q2155.3 1462.73 2156.32 1462.73 Q2162.1 1462.73 2165.48 1465.9 Q2168.86 1469.08 2168.86 1474.49 Q2168.86 1480.07 2165.39 1483.17 Q2161.92 1486.25 2155.6 1486.25 Q2153.42 1486.25 2151.16 1485.88 Q2148.91 1485.51 2146.5 1484.77 L2146.5 1480.07 Q2148.59 1481.2 2150.81 1481.76 Q2153.03 1482.32 2155.51 1482.32 Q2159.51 1482.32 2161.85 1480.21 Q2164.19 1478.1 2164.19 1474.49 Q2164.19 1470.88 2161.85 1468.77 Q2159.51 1466.67 2155.51 1466.67 Q2153.63 1466.67 2151.76 1467.08 Q2149.91 1467.5 2147.96 1468.38 L2147.96 1451.02 Z" fill="#000000" fill-rule="nonzero" fill-opacity="1" /><path clip-path="url(#clip980)" d="M2178.08 1479.7 L2182.96 1479.7 L2182.96 1485.58 L2178.08 1485.58 L2178.08 1479.7 Z" fill="#000000" fill-rule="nonzero" fill-opacity="1" /><path clip-path="url(#clip980)" d="M2193.29 1484.86 L2193.29 1480.6 Q2195.04 1481.44 2196.85 1481.88 Q2198.66 1482.32 2200.39 1482.32 Q2205.02 1482.32 2207.45 1479.21 Q2209.91 1476.09 2210.25 1469.75 Q2208.91 1471.74 2206.85 1472.8 Q2204.79 1473.87 2202.29 1473.87 Q2197.1 1473.87 2194.07 1470.74 Q2191.06 1467.59 2191.06 1462.15 Q2191.06 1456.83 2194.21 1453.61 Q2197.36 1450.39 2202.59 1450.39 Q2208.59 1450.39 2211.73 1455 Q2214.91 1459.58 2214.91 1468.33 Q2214.91 1476.51 2211.02 1481.39 Q2207.15 1486.25 2200.6 1486.25 Q2198.84 1486.25 2197.04 1485.9 Q2195.23 1485.56 2193.29 1484.86 M2202.59 1470.21 Q2205.74 1470.21 2207.57 1468.06 Q2209.42 1465.9 2209.42 1462.15 Q2209.42 1458.43 2207.57 1456.27 Q2205.74 1454.1 2202.59 1454.1 Q2199.44 1454.1 2197.59 1456.27 Q2195.76 1458.43 2195.76 1462.15 Q2195.76 1465.9 2197.59 1468.06 Q2199.44 1470.21 2202.59 1470.21 Z" fill="#000000" fill-rule="nonzero" fill-opacity="1" /><path clip-path="url(#clip980)" d="M2236.16 1455.09 L2224.35 1473.54 L2236.16 1473.54 L2236.16 1455.09 M2234.93 1451.02 L2240.81 1451.02 L2240.81 1473.54 L2245.74 1473.54 L2245.74 1477.43 L2240.81 1477.43 L2240.81 1485.58 L2236.16 1485.58 L2236.16 1477.43 L2220.55 1477.43 L2220.55 1472.92 L2234.93 1451.02 Z" fill="#000000" fill-rule="nonzero" fill-opacity="1" /><path clip-path="url(#clip980)" d="M1156.84 1526.86 L1148.12 1550.51 L1165.6 1550.51 L1156.84 1526.86 M1153.22 1520.52 L1160.5 1520.52 L1178.61 1568.04 L1171.93 1568.04 L1167.6 1555.85 L1146.18 1555.85 L1141.85 1568.04 L1135.07 1568.04 L1153.22 1520.52 Z" fill="#000000" fill-rule="nonzero" fill-opacity="1" /><path clip-path="url(#clip980)" d="M1208.76 1549.81 Q1208.76 1543.44 1206.11 1539.94 Q1203.5 1536.44 1198.76 1536.44 Q1194.05 1536.44 1191.41 1539.94 Q1188.8 1543.44 1188.8 1549.81 Q1188.8 1556.14 1191.41 1559.64 Q1194.05 1563.14 1198.76 1563.14 Q1203.5 1563.14 1206.11 1559.64 Q1208.76 1556.14 1208.76 1549.81 M1214.61 1563.62 Q1214.61 1572.72 1210.57 1577.15 Q1206.53 1581.6 1198.19 1581.6 Q1195.1 1581.6 1192.36 1581.13 Q1189.63 1580.68 1187.05 1579.72 L1187.05 1574.03 Q1189.63 1575.43 1192.14 1576.1 Q1194.66 1576.76 1197.27 1576.76 Q1203.03 1576.76 1205.89 1573.74 Q1208.76 1570.75 1208.76 1564.67 L1208.76 1561.77 Q1206.94 1564.92 1204.11 1566.48 Q1201.28 1568.04 1197.33 1568.04 Q1190.77 1568.04 1186.76 1563.05 Q1182.75 1558.05 1182.75 1549.81 Q1182.75 1541.53 1186.76 1536.53 Q1190.77 1531.54 1197.33 1531.54 Q1201.28 1531.54 1204.11 1533.1 Q1206.94 1534.66 1208.76 1537.81 L1208.76 1532.4 L1214.61 1532.4 L1214.61 1563.62 Z" fill="#000000" fill-rule="nonzero" fill-opacity="1" /><path clip-path="url(#clip980)" d="M1257.17 1548.76 L1257.17 1551.62 L1230.24 1551.62 Q1230.62 1557.67 1233.87 1560.85 Q1237.15 1564 1242.97 1564 Q1246.35 1564 1249.5 1563.17 Q1252.68 1562.35 1255.8 1560.69 L1255.8 1566.23 Q1252.65 1567.57 1249.34 1568.27 Q1246.03 1568.97 1242.62 1568.97 Q1234.09 1568.97 1229.09 1564 Q1224.13 1559.04 1224.13 1550.57 Q1224.13 1541.82 1228.84 1536.69 Q1233.58 1531.54 1241.6 1531.54 Q1248.8 1531.54 1252.97 1536.18 Q1257.17 1540.8 1257.17 1548.76 M1251.31 1547.04 Q1251.25 1542.23 1248.61 1539.37 Q1246 1536.5 1241.67 1536.5 Q1236.77 1536.5 1233.81 1539.27 Q1230.88 1542.04 1230.43 1547.07 L1251.31 1547.04 Z" fill="#000000" fill-rule="nonzero" fill-opacity="1" /><path clip-path="url(#clip980)" d="M1301.57 1518.58 Q1297.3 1525.9 1295.23 1533.06 Q1293.17 1540.23 1293.17 1547.58 Q1293.17 1554.93 1295.23 1562.16 Q1297.34 1569.35 1301.57 1576.64 L1296.48 1576.64 Q1291.7 1569.16 1289.31 1561.93 Q1286.96 1554.71 1286.96 1547.58 Q1286.96 1540.48 1289.31 1533.29 Q1291.67 1526.09 1296.48 1518.58 L1301.57 1518.58 Z" fill="#000000" fill-rule="nonzero" fill-opacity="1" /><path clip-path="url(#clip980)" d="M1313.19 1520.52 L1322.77 1520.52 L1334.89 1552.86 L1347.08 1520.52 L1356.66 1520.52 L1356.66 1568.04 L1350.39 1568.04 L1350.39 1526.32 L1338.14 1558.91 L1331.68 1558.91 L1319.42 1526.32 L1319.42 1568.04 L1313.19 1568.04 L1313.19 1520.52 Z" fill="#000000" fill-rule="nonzero" fill-opacity="1" /><path clip-path="url(#clip980)" d="M1385.37 1550.12 Q1378.28 1550.12 1375.54 1551.75 Q1372.8 1553.37 1372.8 1557.29 Q1372.8 1560.4 1374.84 1562.25 Q1376.91 1564.07 1380.44 1564.07 Q1385.31 1564.07 1388.24 1560.63 Q1391.2 1557.16 1391.2 1551.43 L1391.2 1550.12 L1385.37 1550.12 M1397.05 1547.71 L1397.05 1568.04 L1391.2 1568.04 L1391.2 1562.63 Q1389.19 1565.88 1386.2 1567.44 Q1383.21 1568.97 1378.88 1568.97 Q1373.41 1568.97 1370.16 1565.91 Q1366.94 1562.82 1366.94 1557.67 Q1366.94 1551.65 1370.95 1548.6 Q1375 1545.54 1382.99 1545.54 L1391.2 1545.54 L1391.2 1544.97 Q1391.2 1540.93 1388.52 1538.73 Q1385.88 1536.5 1381.08 1536.5 Q1378.02 1536.5 1375.12 1537.23 Q1372.23 1537.97 1369.55 1539.43 L1369.55 1534.02 Q1372.77 1532.78 1375.79 1532.17 Q1378.82 1531.54 1381.68 1531.54 Q1389.42 1531.54 1393.23 1535.55 Q1397.05 1539.56 1397.05 1547.71 Z" fill="#000000" fill-rule="nonzero" fill-opacity="1" /><path clip-path="url(#clip980)" d="M1408.19 1518.58 L1413.29 1518.58 Q1418.06 1526.09 1420.42 1533.29 Q1422.8 1540.48 1422.8 1547.58 Q1422.8 1554.71 1420.42 1561.93 Q1418.06 1569.16 1413.29 1576.64 L1408.19 1576.64 Q1412.43 1569.35 1414.5 1562.16 Q1416.6 1554.93 1416.6 1547.58 Q1416.6 1540.23 1414.5 1533.06 Q1412.43 1525.9 1408.19 1518.58 Z" fill="#000000" fill-rule="nonzero" fill-opacity="1" /><polyline clip-path="url(#clip980)" style="stroke:#000000; stroke-linecap:round; stroke-linejoin:round; stroke-width:4; stroke-opacity:1; fill:none" points="205.121,1423.18 205.121,47.2441 "/>
<polyline clip-path="url(#clip980)" style="stroke:#000000; stroke-linecap:round; stroke-linejoin:round; stroke-width:4; stroke-opacity:1; fill:none" points="2352.76,1423.18 2352.76,47.2441 "/>
<polyline clip-path="url(#clip980)" style="stroke:#000000; stroke-linecap:round; stroke-linejoin:round; stroke-width:4; stroke-opacity:1; fill:none" points="205.121,1384.24 224.019,1384.24 "/>
<polyline clip-path="url(#clip980)" style="stroke:#000000; stroke-linecap:round; stroke-linejoin:round; stroke-width:4; stroke-opacity:1; fill:none" points="205.121,1065.14 224.019,1065.14 "/>
<polyline clip-path="url(#clip980)" style="stroke:#000000; stroke-linecap:round; stroke-linejoin:round; stroke-width:4; stroke-opacity:1; fill:none" points="205.121,746.048 224.019,746.048 "/>
<polyline clip-path="url(#clip980)" style="stroke:#000000; stroke-linecap:round; stroke-linejoin:round; stroke-width:4; stroke-opacity:1; fill:none" points="205.121,426.953 224.019,426.953 "/>
<polyline clip-path="url(#clip980)" style="stroke:#000000; stroke-linecap:round; stroke-linejoin:round; stroke-width:4; stroke-opacity:1; fill:none" points="205.121,107.858 224.019,107.858 "/>
<polyline clip-path="url(#clip980)" style="stroke:#000000; stroke-linecap:round; stroke-linejoin:round; stroke-width:4; stroke-opacity:1; fill:none" points="2352.76,1384.24 2333.86,1384.24 "/>
<polyline clip-path="url(#clip980)" style="stroke:#000000; stroke-linecap:round; stroke-linejoin:round; stroke-width:4; stroke-opacity:1; fill:none" points="2352.76,1065.14 2333.86,1065.14 "/>
<polyline clip-path="url(#clip980)" style="stroke:#000000; stroke-linecap:round; stroke-linejoin:round; stroke-width:4; stroke-opacity:1; fill:none" points="2352.76,746.048 2333.86,746.048 "/>
<polyline clip-path="url(#clip980)" style="stroke:#000000; stroke-linecap:round; stroke-linejoin:round; stroke-width:4; stroke-opacity:1; fill:none" points="2352.76,426.953 2333.86,426.953 "/>
<polyline clip-path="url(#clip980)" style="stroke:#000000; stroke-linecap:round; stroke-linejoin:round; stroke-width:4; stroke-opacity:1; fill:none" points="2352.76,107.858 2333.86,107.858 "/>
<path clip-path="url(#clip980)" d="M157.177 1370.04 Q153.566 1370.04 151.737 1373.6 Q149.931 1377.14 149.931 1384.27 Q149.931 1391.38 151.737 1394.94 Q153.566 1398.49 157.177 1398.49 Q160.811 1398.49 162.616 1394.94 Q164.445 1391.38 164.445 1384.27 Q164.445 1377.14 162.616 1373.6 Q160.811 1370.04 157.177 1370.04 M157.177 1366.33 Q162.987 1366.33 166.042 1370.94 Q169.121 1375.52 169.121 1384.27 Q169.121 1393 166.042 1397.61 Q162.987 1402.19 157.177 1402.19 Q151.366 1402.19 148.288 1397.61 Q145.232 1393 145.232 1384.27 Q145.232 1375.52 148.288 1370.94 Q151.366 1366.33 157.177 1366.33 Z" fill="#000000" fill-rule="nonzero" fill-opacity="1" /><path clip-path="url(#clip980)" d="M117.825 1078.49 L125.464 1078.49 L125.464 1052.12 L117.154 1053.79 L117.154 1049.53 L125.418 1047.86 L130.093 1047.86 L130.093 1078.49 L137.732 1078.49 L137.732 1082.42 L117.825 1082.42 L117.825 1078.49 Z" fill="#000000" fill-rule="nonzero" fill-opacity="1" /><path clip-path="url(#clip980)" d="M157.177 1050.94 Q153.566 1050.94 151.737 1054.51 Q149.931 1058.05 149.931 1065.18 Q149.931 1072.28 151.737 1075.85 Q153.566 1079.39 157.177 1079.39 Q160.811 1079.39 162.616 1075.85 Q164.445 1072.28 164.445 1065.18 Q164.445 1058.05 162.616 1054.51 Q160.811 1050.94 157.177 1050.94 M157.177 1047.24 Q162.987 1047.24 166.042 1051.84 Q169.121 1056.43 169.121 1065.18 Q169.121 1073.9 166.042 1078.51 Q162.987 1083.09 157.177 1083.09 Q151.366 1083.09 148.288 1078.51 Q145.232 1073.9 145.232 1065.18 Q145.232 1056.43 148.288 1051.84 Q151.366 1047.24 157.177 1047.24 Z" fill="#000000" fill-rule="nonzero" fill-opacity="1" /><path clip-path="url(#clip980)" d="M121.043 759.393 L137.362 759.393 L137.362 763.328 L115.418 763.328 L115.418 759.393 Q118.08 756.639 122.663 752.009 Q127.269 747.356 128.45 746.014 Q130.695 743.491 131.575 741.754 Q132.478 739.995 132.478 738.305 Q132.478 735.551 130.533 733.815 Q128.612 732.079 125.51 732.079 Q123.311 732.079 120.857 732.842 Q118.427 733.606 115.649 735.157 L115.649 730.435 Q118.473 729.301 120.927 728.722 Q123.38 728.143 125.418 728.143 Q130.788 728.143 133.982 730.829 Q137.177 733.514 137.177 738.004 Q137.177 740.134 136.367 742.055 Q135.579 743.953 133.473 746.546 Q132.894 747.217 129.792 750.435 Q126.691 753.629 121.043 759.393 Z" fill="#000000" fill-rule="nonzero" fill-opacity="1" /><path clip-path="url(#clip980)" d="M157.177 731.847 Q153.566 731.847 151.737 735.412 Q149.931 738.954 149.931 746.083 Q149.931 753.19 151.737 756.754 Q153.566 760.296 157.177 760.296 Q160.811 760.296 162.616 756.754 Q164.445 753.19 164.445 746.083 Q164.445 738.954 162.616 735.412 Q160.811 731.847 157.177 731.847 M157.177 728.143 Q162.987 728.143 166.042 732.75 Q169.121 737.333 169.121 746.083 Q169.121 754.81 166.042 759.416 Q162.987 764 157.177 764 Q151.366 764 148.288 759.416 Q145.232 754.81 145.232 746.083 Q145.232 737.333 148.288 732.75 Q151.366 728.143 157.177 728.143 Z" fill="#000000" fill-rule="nonzero" fill-opacity="1" /><path clip-path="url(#clip980)" d="M131.181 425.599 Q134.538 426.317 136.413 428.585 Q138.311 430.854 138.311 434.187 Q138.311 439.303 134.792 442.104 Q131.274 444.905 124.793 444.905 Q122.617 444.905 120.302 444.465 Q118.01 444.048 115.556 443.192 L115.556 438.678 Q117.501 439.812 119.816 440.391 Q122.13 440.97 124.654 440.97 Q129.052 440.97 131.343 439.233 Q133.658 437.497 133.658 434.187 Q133.658 431.132 131.505 429.419 Q129.376 427.683 125.556 427.683 L121.529 427.683 L121.529 423.84 L125.742 423.84 Q129.191 423.84 131.019 422.474 Q132.848 421.085 132.848 418.493 Q132.848 415.831 130.95 414.419 Q129.075 412.984 125.556 412.984 Q123.635 412.984 121.436 413.4 Q119.237 413.817 116.598 414.697 L116.598 410.53 Q119.26 409.789 121.575 409.419 Q123.913 409.048 125.973 409.048 Q131.297 409.048 134.399 411.479 Q137.501 413.886 137.501 418.007 Q137.501 420.877 135.857 422.868 Q134.214 424.835 131.181 425.599 Z" fill="#000000" fill-rule="nonzero" fill-opacity="1" /><path clip-path="url(#clip980)" d="M157.177 412.752 Q153.566 412.752 151.737 416.317 Q149.931 419.859 149.931 426.988 Q149.931 434.095 151.737 437.659 Q153.566 441.201 157.177 441.201 Q160.811 441.201 162.616 437.659 Q164.445 434.095 164.445 426.988 Q164.445 419.859 162.616 416.317 Q160.811 412.752 157.177 412.752 M157.177 409.048 Q162.987 409.048 166.042 413.655 Q169.121 418.238 169.121 426.988 Q169.121 435.715 166.042 440.321 Q162.987 444.905 157.177 444.905 Q151.366 444.905 148.288 440.321 Q145.232 435.715 145.232 426.988 Q145.232 418.238 148.288 413.655 Q151.366 409.048 157.177 409.048 Z" fill="#000000" fill-rule="nonzero" fill-opacity="1" /><path clip-path="url(#clip980)" d="M129.862 94.6525 L118.056 113.102 L129.862 113.102 L129.862 94.6525 M128.635 90.5785 L134.515 90.5785 L134.515 113.102 L139.445 113.102 L139.445 116.99 L134.515 116.99 L134.515 125.138 L129.862 125.138 L129.862 116.99 L114.26 116.99 L114.26 112.477 L128.635 90.5785 Z" fill="#000000" fill-rule="nonzero" fill-opacity="1" /><path clip-path="url(#clip980)" d="M157.177 93.6572 Q153.566 93.6572 151.737 97.222 Q149.931 100.764 149.931 107.893 Q149.931 115 151.737 118.564 Q153.566 122.106 157.177 122.106 Q160.811 122.106 162.616 118.564 Q164.445 115 164.445 107.893 Q164.445 100.764 162.616 97.222 Q160.811 93.6572 157.177 93.6572 M157.177 89.9535 Q162.987 89.9535 166.042 94.5599 Q169.121 99.1433 169.121 107.893 Q169.121 116.62 166.042 121.226 Q162.987 125.81 157.177 125.81 Q151.366 125.81 148.288 121.226 Q145.232 116.62 145.232 107.893 Q145.232 99.1433 148.288 94.5599 Q151.366 89.9535 157.177 89.9535 Z" fill="#000000" fill-rule="nonzero" fill-opacity="1" /><path clip-path="url(#clip980)" d="M21.7677 1026.76 L39.6235 1026.76 L39.6235 1018.68 Q39.6235 1014.19 37.3 1011.74 Q34.9765 1009.29 30.6797 1009.29 Q26.4147 1009.29 24.0912 1011.74 Q21.7677 1014.19 21.7677 1018.68 L21.7677 1026.76 M16.4842 1033.19 L16.4842 1018.68 Q16.4842 1010.69 20.1126 1006.61 Q23.7092 1002.51 30.6797 1002.51 Q37.7138 1002.51 41.3104 1006.61 Q44.907 1010.69 44.907 1018.68 L44.907 1026.76 L64.0042 1026.76 L64.0042 1033.19 L16.4842 1033.19 Z" fill="#000000" fill-rule="nonzero" fill-opacity="1" /><path clip-path="url(#clip980)" d="M33.8307 974.626 Q33.2578 975.613 33.0032 976.791 Q32.7167 977.936 32.7167 979.337 Q32.7167 984.302 35.9632 986.976 Q39.1779 989.617 45.2253 989.617 L64.0042 989.617 L64.0042 995.506 L28.3562 995.506 L28.3562 989.617 L33.8944 989.617 Q30.6479 987.771 29.0883 984.811 Q27.4968 981.851 27.4968 977.618 Q27.4968 977.013 27.5923 976.281 Q27.656 975.549 27.8151 974.658 L33.8307 974.626 Z" fill="#000000" fill-rule="nonzero" fill-opacity="1" /><path clip-path="url(#clip980)" d="M32.4621 956.102 Q32.4621 960.813 36.1542 963.55 Q39.8145 966.287 46.212 966.287 Q52.6095 966.287 56.3017 963.582 Q59.9619 960.844 59.9619 956.102 Q59.9619 951.423 56.2698 948.686 Q52.5777 945.949 46.212 945.949 Q39.8781 945.949 36.186 948.686 Q32.4621 951.423 32.4621 956.102 M27.4968 956.102 Q27.4968 948.463 32.4621 944.103 Q37.4273 939.742 46.212 939.742 Q54.9649 939.742 59.9619 944.103 Q64.9272 948.463 64.9272 956.102 Q64.9272 963.773 59.9619 968.133 Q54.9649 972.462 46.212 972.462 Q37.4273 972.462 32.4621 968.133 Q27.4968 963.773 27.4968 956.102 Z" fill="#000000" fill-rule="nonzero" fill-opacity="1" /><path clip-path="url(#clip980)" d="M46.212 904.444 Q39.7508 904.444 36.0905 907.118 Q32.3984 909.76 32.3984 914.407 Q32.3984 919.054 36.0905 921.727 Q39.7508 924.369 46.212 924.369 Q52.6732 924.369 56.3653 921.727 Q60.0256 919.054 60.0256 914.407 Q60.0256 909.76 56.3653 907.118 Q52.6732 904.444 46.212 904.444 M33.7671 924.369 Q30.5842 922.523 29.0564 919.722 Q27.4968 916.889 27.4968 912.974 Q27.4968 906.481 32.6531 902.439 Q37.8093 898.365 46.212 898.365 Q54.6147 898.365 59.771 902.439 Q64.9272 906.481 64.9272 912.974 Q64.9272 916.889 63.3994 919.722 Q61.8398 922.523 58.657 924.369 L64.0042 924.369 L64.0042 930.257 L14.479 930.257 L14.479 924.369 L33.7671 924.369 Z" fill="#000000" fill-rule="nonzero" fill-opacity="1" /><path clip-path="url(#clip980)" d="M46.0847 872.457 Q46.0847 879.554 47.7079 882.292 Q49.3312 885.029 53.2461 885.029 Q56.3653 885.029 58.2114 882.992 Q60.0256 880.923 60.0256 877.39 Q60.0256 872.52 56.5881 869.592 Q53.1188 866.632 47.3897 866.632 L46.0847 866.632 L46.0847 872.457 M43.6657 860.776 L64.0042 860.776 L64.0042 866.632 L58.5933 866.632 Q61.8398 868.637 63.3994 871.629 Q64.9272 874.621 64.9272 878.95 Q64.9272 884.424 61.8716 887.671 Q58.7843 890.885 53.6281 890.885 Q47.6125 890.885 44.5569 886.875 Q41.5014 882.833 41.5014 874.844 L41.5014 866.632 L40.9285 866.632 Q36.8862 866.632 34.6901 869.306 Q32.4621 871.947 32.4621 876.753 Q32.4621 879.809 33.1941 882.705 Q33.9262 885.602 35.3903 888.275 L29.9795 888.275 Q28.7381 885.061 28.1334 882.037 Q27.4968 879.013 27.4968 876.149 Q27.4968 868.414 31.5072 864.595 Q35.5176 860.776 43.6657 860.776 Z" fill="#000000" fill-rule="nonzero" fill-opacity="1" /><path clip-path="url(#clip980)" d="M46.212 823.122 Q39.7508 823.122 36.0905 825.796 Q32.3984 828.438 32.3984 833.085 Q32.3984 837.732 36.0905 840.405 Q39.7508 843.047 46.212 843.047 Q52.6732 843.047 56.3653 840.405 Q60.0256 837.732 60.0256 833.085 Q60.0256 828.438 56.3653 825.796 Q52.6732 823.122 46.212 823.122 M33.7671 843.047 Q30.5842 841.201 29.0564 838.4 Q27.4968 835.567 27.4968 831.652 Q27.4968 825.159 32.6531 821.117 Q37.8093 817.043 46.212 817.043 Q54.6147 817.043 59.771 821.117 Q64.9272 825.159 64.9272 831.652 Q64.9272 835.567 63.3994 838.4 Q61.8398 841.201 58.657 843.047 L64.0042 843.047 L64.0042 848.935 L14.479 848.935 L14.479 843.047 L33.7671 843.047 Z" fill="#000000" fill-rule="nonzero" fill-opacity="1" /><path clip-path="url(#clip980)" d="M28.3562 807.335 L28.3562 801.479 L64.0042 801.479 L64.0042 807.335 L28.3562 807.335 M14.479 807.335 L14.479 801.479 L21.895 801.479 L21.895 807.335 L14.479 807.335 Z" fill="#000000" fill-rule="nonzero" fill-opacity="1" /><path clip-path="url(#clip980)" d="M14.479 789.225 L14.479 783.369 L64.0042 783.369 L64.0042 789.225 L14.479 789.225 Z" fill="#000000" fill-rule="nonzero" fill-opacity="1" /><path clip-path="url(#clip980)" d="M28.3562 771.115 L28.3562 765.258 L64.0042 765.258 L64.0042 771.115 L28.3562 771.115 M14.479 771.115 L14.479 765.258 L21.895 765.258 L21.895 771.115 L14.479 771.115 Z" fill="#000000" fill-rule="nonzero" fill-opacity="1" /><path clip-path="url(#clip980)" d="M18.2347 747.211 L28.3562 747.211 L28.3562 735.148 L32.9077 735.148 L32.9077 747.211 L52.2594 747.211 Q56.6199 747.211 57.8613 746.034 Q59.1026 744.824 59.1026 741.164 L59.1026 735.148 L64.0042 735.148 L64.0042 741.164 Q64.0042 747.943 61.4897 750.521 Q58.9434 753.1 52.2594 753.1 L32.9077 753.1 L32.9077 757.396 L28.3562 757.396 L28.3562 753.1 L18.2347 753.1 L18.2347 747.211 Z" fill="#000000" fill-rule="nonzero" fill-opacity="1" /><path clip-path="url(#clip980)" d="M67.3143 712.614 Q73.68 715.096 75.6216 717.452 Q77.5631 719.807 77.5631 723.754 L77.5631 728.432 L72.6615 728.432 L72.6615 724.995 Q72.6615 722.576 71.5157 721.239 Q70.3699 719.902 66.1048 718.279 L63.4312 717.229 L28.3562 731.647 L28.3562 725.441 L56.238 714.301 L28.3562 703.161 L28.3562 696.954 L67.3143 712.614 Z" fill="#000000" fill-rule="nonzero" fill-opacity="1" /><path clip-path="url(#clip980)" d="M33.7671 644.692 L14.479 644.692 L14.479 638.835 L64.0042 638.835 L64.0042 644.692 L58.657 644.692 Q61.8398 646.538 63.3994 649.37 Q64.9272 652.171 64.9272 656.118 Q64.9272 662.579 59.771 666.653 Q54.6147 670.696 46.212 670.696 Q37.8093 670.696 32.6531 666.653 Q27.4968 662.579 27.4968 656.118 Q27.4968 652.171 29.0564 649.37 Q30.5842 646.538 33.7671 644.692 M46.212 664.648 Q52.6732 664.648 56.3653 662.006 Q60.0256 659.333 60.0256 654.686 Q60.0256 650.039 56.3653 647.365 Q52.6732 644.692 46.212 644.692 Q39.7508 644.692 36.0905 647.365 Q32.3984 650.039 32.3984 654.686 Q32.3984 659.333 36.0905 662.006 Q39.7508 664.648 46.212 664.648 Z" fill="#000000" fill-rule="nonzero" fill-opacity="1" /><path clip-path="url(#clip980)" d="M44.7161 596.28 L47.5806 596.28 L47.5806 623.207 Q53.6281 622.825 56.8109 619.579 Q59.9619 616.301 59.9619 610.476 Q59.9619 607.102 59.1344 603.951 Q58.3069 600.768 56.6518 597.649 L62.1899 597.649 Q63.5267 600.8 64.227 604.11 Q64.9272 607.42 64.9272 610.826 Q64.9272 619.356 59.9619 624.353 Q54.9967 629.318 46.5303 629.318 Q37.7774 629.318 32.6531 624.608 Q27.4968 619.865 27.4968 611.845 Q27.4968 604.651 32.1438 600.482 Q36.7589 596.28 44.7161 596.28 M42.9973 602.137 Q38.1912 602.201 35.3266 604.842 Q32.4621 607.452 32.4621 611.781 Q32.4621 616.683 35.2312 619.643 Q38.0002 622.571 43.0292 623.016 L42.9973 602.137 Z" fill="#000000" fill-rule="nonzero" fill-opacity="1" /><path clip-path="url(#clip980)" d="M42.4881 557.036 L64.0042 557.036 L64.0042 562.892 L42.679 562.892 Q37.6183 562.892 35.1038 564.866 Q32.5894 566.839 32.5894 570.786 Q32.5894 575.528 35.6131 578.265 Q38.6368 581.003 43.8567 581.003 L64.0042 581.003 L64.0042 586.891 L28.3562 586.891 L28.3562 581.003 L33.8944 581.003 Q30.6797 578.902 29.0883 576.069 Q27.4968 573.205 27.4968 569.481 Q27.4968 563.338 31.3163 560.187 Q35.1038 557.036 42.4881 557.036 Z" fill="#000000" fill-rule="nonzero" fill-opacity="1" /><path clip-path="url(#clip980)" d="M29.4065 522.629 L34.9447 522.629 Q33.6716 525.112 33.035 527.785 Q32.3984 530.459 32.3984 533.324 Q32.3984 537.684 33.7352 539.88 Q35.072 542.045 37.7456 542.045 Q39.7826 542.045 40.9603 540.485 Q42.1061 538.925 43.1565 534.215 L43.6021 532.21 Q44.9389 525.971 47.3897 523.361 Q49.8086 520.719 54.1691 520.719 Q59.1344 520.719 62.0308 524.666 Q64.9272 528.581 64.9272 535.456 Q64.9272 538.321 64.3543 541.44 Q63.8132 544.527 62.6992 547.965 L56.6518 547.965 Q58.3387 544.718 59.198 541.567 Q60.0256 538.416 60.0256 535.329 Q60.0256 531.191 58.6251 528.963 Q57.1929 526.735 54.6147 526.735 Q52.2276 526.735 50.9545 528.358 Q49.6813 529.95 48.5037 535.392 L48.0262 537.429 Q46.8804 542.872 44.5251 545.291 Q42.138 547.71 38.0002 547.71 Q32.9713 547.71 30.2341 544.145 Q27.4968 540.58 27.4968 534.024 Q27.4968 530.777 27.9743 527.913 Q28.4517 525.048 29.4065 522.629 Z" fill="#000000" fill-rule="nonzero" fill-opacity="1" /><path clip-path="url(#clip980)" d="M28.3562 511.394 L28.3562 505.537 L64.0042 505.537 L64.0042 511.394 L28.3562 511.394 M14.479 511.394 L14.479 505.537 L21.895 505.537 L21.895 511.394 L14.479 511.394 Z" fill="#000000" fill-rule="nonzero" fill-opacity="1" /><path clip-path="url(#clip980)" d="M18.2347 487.49 L28.3562 487.49 L28.3562 475.427 L32.9077 475.427 L32.9077 487.49 L52.2594 487.49 Q56.6199 487.49 57.8613 486.313 Q59.1026 485.103 59.1026 481.443 L59.1026 475.427 L64.0042 475.427 L64.0042 481.443 Q64.0042 488.223 61.4897 490.801 Q58.9434 493.379 52.2594 493.379 L32.9077 493.379 L32.9077 497.676 L28.3562 497.676 L28.3562 493.379 L18.2347 493.379 L18.2347 487.49 Z" fill="#000000" fill-rule="nonzero" fill-opacity="1" /><path clip-path="url(#clip980)" d="M67.3143 452.893 Q73.68 455.376 75.6216 457.731 Q77.5631 460.086 77.5631 464.033 L77.5631 468.712 L72.6615 468.712 L72.6615 465.274 Q72.6615 462.855 71.5157 461.518 Q70.3699 460.182 66.1048 458.558 L63.4312 457.508 L28.3562 471.926 L28.3562 465.72 L56.238 454.58 L28.3562 443.44 L28.3562 437.233 L67.3143 452.893 Z" fill="#000000" fill-rule="nonzero" fill-opacity="1" /><polyline clip-path="url(#clip982)" style="stroke:#009af9; stroke-linecap:round; stroke-linejoin:round; stroke-width:4; stroke-opacity:1; fill:none" points="265.903,1384.21 286.368,1384.2 306.834,1384.23 327.299,1384.24 347.765,1384.23 368.23,1384.22 388.695,1384.18 511.487,1384.23 531.953,1384.16 552.418,1384.22 572.884,1384.17 593.349,1384.17 613.814,1384.21 634.28,1384.16 654.745,1384.17 675.21,1384.09 695.676,1384.09 716.141,1384 736.606,1384.03 757.072,1384.13 777.537,1384.13 798.002,1384.01 818.468,1383.97 838.933,1383.96 859.399,1383.95 879.864,1383.8 900.329,1383.73 920.795,1383.64 941.26,1383.64 961.725,1383.34 982.191,1383.21 1002.66,1383.18 1023.12,1382.94 1043.59,1382.91 1064.05,1382.5 1084.52,1382.47 1104.98,1381.79 1125.45,1381.09 1145.91,1379.98 1166.38,1380.03 1186.84,1379.15 1207.31,1378.58 1227.78,1377.78 1248.24,1375.87 1268.71,1375.86 1289.17,1372.17 1309.64,1368.26 1330.1,1367.44 1350.57,1352.9 1371.03,1333.66 1391.5,1325.48 1411.96,1319.5 1432.43,1341.88 1452.89,1349.44 1473.36,1295.09 1493.82,1241.11 1514.29,1232.06 1534.76,1227.32 1555.22,1227.91 1575.69,1226.19 1596.15,1217.38 1616.62,1225.76 1637.08,1227.53 1657.55,1236.21 1678.01,1241.46 1698.48,1241.28 1718.94,1254.03 1739.41,1267.06 1759.87,1278.43 1780.34,1291.1 1800.81,1308.7 1821.27,1315.47 1841.74,1326.21 1862.2,1337.19 1882.67,1346.46 1903.13,1353.06 1923.6,1357.02 1944.06,1363.62 1964.53,1369.18 1984.99,1372.12 2005.46,1375.49 2025.92,1378.01 2046.39,1379.96 2066.85,1380.52 2087.32,1381.68 2107.79,1382.42 2128.25,1383.04 2148.72,1383.62 2169.18,1383.21 2189.65,1383.93 2210.11,1383.98 2230.58,1384.15 2251.04,1384.22 2271.51,1384.22 2291.97,1384.22 "/>
<polyline clip-path="url(#clip982)" style="stroke:#e26f46; stroke-linecap:round; stroke-linejoin:round; stroke-width:4; stroke-opacity:1; fill:none" points="265.903,1384.24 286.368,1384.24 306.834,1384.24 327.299,1384.24 347.765,1384.24 368.23,1384.24 388.695,1384.24 511.487,1384.24 531.953,1384.24 552.418,1384.24 572.884,1384.24 593.349,1384.24 613.814,1384.24 634.28,1384.24 654.745,1384.24 675.21,1384.24 695.676,1384.24 716.141,1384.24 736.606,1384.24 757.072,1384.23 777.537,1384.23 798.002,1384.23 818.468,1384.23 838.933,1384.22 859.399,1384.21 879.864,1384.19 900.329,1384.17 920.795,1384.14 941.26,1384.09 961.725,1384.01 982.191,1383.9 1002.66,1383.73 1023.12,1383.48 1043.59,1383.12 1064.05,1382.58 1084.52,1381.79 1104.98,1380.64 1125.45,1378.97 1145.91,1376.56 1166.38,1373.13 1186.84,1368.26 1207.31,1361.42 1227.78,1351.91 1248.24,1338.83 1268.71,1321.07 1289.17,1297.32 1309.64,1266.04 1330.1,1225.61 1350.57,1174.39 1371.03,1110.94 1391.5,1034.32 1411.96,944.353 1432.43,841.974 1452.89,729.488 1473.36,610.689 1493.82,490.764 1514.29,375.943 1534.76,272.902 1555.22,188.017 1575.69,126.58 1596.15,92.1559 1616.62,86.1857 1637.08,107.922 1657.55,154.672 1678.01,222.278 1698.48,305.712 1718.94,399.678 1739.41,499.121 1759.87,599.599 1780.34,697.498 1800.81,790.105 1821.27,875.581 1841.74,952.854 1862.2,1021.49 1882.67,1081.52 1903.13,1133.35 1923.6,1177.58 1944.06,1214.95 1964.53,1246.26 1984.99,1272.27 2005.46,1293.74 2025.92,1311.36 2046.39,1325.74 2066.85,1337.42 2087.32,1346.86 2107.79,1354.47 2128.25,1360.58 2148.72,1365.48 2169.18,1369.39 2189.65,1372.5 2210.11,1374.97 2230.58,1376.94 2251.04,1378.49 2271.51,1379.72 2291.97,1380.69 "/>
<path clip-path="url(#clip980)" d="M276.709 248.629 L825.776 248.629 L825.776 93.1086 L276.709 93.1086  Z" fill="#ffffff" fill-rule="evenodd" fill-opacity="1"/>
<polyline clip-path="url(#clip980)" style="stroke:#ffffff; stroke-linecap:round; stroke-linejoin:round; stroke-width:4; stroke-opacity:1; fill:none" points="276.709,248.629 825.776,248.629 825.776,93.1086 276.709,93.1086 276.709,248.629 "/>
<polyline clip-path="url(#clip980)" style="stroke:#009af9; stroke-linecap:round; stroke-linejoin:round; stroke-width:4; stroke-opacity:1; fill:none" points="300.571,144.949 443.747,144.949 "/>
<path clip-path="url(#clip980)" d="M467.61 127.669 L472.286 127.669 L472.286 141.835 L489.276 141.835 L489.276 127.669 L493.952 127.669 L493.952 162.229 L489.276 162.229 L489.276 145.77 L472.286 145.77 L472.286 162.229 L467.61 162.229 L467.61 127.669 Z" fill="#000000" fill-rule="nonzero" fill-opacity="1" /><path clip-path="url(#clip980)" d="M503.072 136.303 L507.332 136.303 L507.332 162.229 L503.072 162.229 L503.072 136.303 M503.072 126.21 L507.332 126.21 L507.332 131.604 L503.072 131.604 L503.072 126.21 Z" fill="#000000" fill-rule="nonzero" fill-opacity="1" /><path clip-path="url(#clip980)" d="M532.771 137.067 L532.771 141.094 Q530.966 140.169 529.021 139.706 Q527.077 139.243 524.994 139.243 Q521.822 139.243 520.225 140.215 Q518.651 141.187 518.651 143.131 Q518.651 144.613 519.785 145.469 Q520.92 146.303 524.345 147.067 L525.804 147.391 Q530.341 148.363 532.239 150.145 Q534.16 151.905 534.16 155.076 Q534.16 158.687 531.29 160.793 Q528.443 162.9 523.443 162.9 Q521.359 162.9 519.091 162.483 Q516.846 162.09 514.346 161.28 L514.346 156.881 Q516.707 158.108 518.998 158.733 Q521.29 159.335 523.535 159.335 Q526.545 159.335 528.165 158.317 Q529.785 157.275 529.785 155.4 Q529.785 153.664 528.605 152.738 Q527.447 151.812 523.489 150.956 L522.008 150.608 Q518.049 149.775 516.29 148.062 Q514.531 146.326 514.531 143.317 Q514.531 139.659 517.123 137.669 Q519.716 135.678 524.484 135.678 Q526.845 135.678 528.929 136.025 Q531.012 136.372 532.771 137.067 Z" fill="#000000" fill-rule="nonzero" fill-opacity="1" /><path clip-path="url(#clip980)" d="M545.156 128.942 L545.156 136.303 L553.929 136.303 L553.929 139.613 L545.156 139.613 L545.156 153.687 Q545.156 156.858 546.012 157.761 Q546.892 158.664 549.554 158.664 L553.929 158.664 L553.929 162.229 L549.554 162.229 Q544.623 162.229 542.748 160.4 Q540.873 158.548 540.873 153.687 L540.873 139.613 L537.748 139.613 L537.748 136.303 L540.873 136.303 L540.873 128.942 L545.156 128.942 Z" fill="#000000" fill-rule="nonzero" fill-opacity="1" /><path clip-path="url(#clip980)" d="M569.577 139.289 Q566.151 139.289 564.16 141.974 Q562.169 144.636 562.169 149.289 Q562.169 153.942 564.137 156.627 Q566.128 159.289 569.577 159.289 Q572.979 159.289 574.97 156.604 Q576.961 153.918 576.961 149.289 Q576.961 144.682 574.97 141.997 Q572.979 139.289 569.577 139.289 M569.577 135.678 Q575.132 135.678 578.304 139.289 Q581.475 142.9 581.475 149.289 Q581.475 155.655 578.304 159.289 Q575.132 162.9 569.577 162.9 Q563.998 162.9 560.827 159.289 Q557.679 155.655 557.679 149.289 Q557.679 142.9 560.827 139.289 Q563.998 135.678 569.577 135.678 Z" fill="#000000" fill-rule="nonzero" fill-opacity="1" /><path clip-path="url(#clip980)" d="M605.595 148.965 Q605.595 144.335 603.674 141.789 Q601.776 139.243 598.327 139.243 Q594.901 139.243 592.979 141.789 Q591.081 144.335 591.081 148.965 Q591.081 153.571 592.979 156.118 Q594.901 158.664 598.327 158.664 Q601.776 158.664 603.674 156.118 Q605.595 153.571 605.595 148.965 M609.854 159.011 Q609.854 165.631 606.914 168.849 Q603.975 172.09 597.91 172.09 Q595.665 172.09 593.674 171.742 Q591.683 171.418 589.808 170.724 L589.808 166.58 Q591.683 167.599 593.512 168.085 Q595.34 168.571 597.239 168.571 Q601.428 168.571 603.512 166.372 Q605.595 164.196 605.595 159.775 L605.595 157.668 Q604.276 159.96 602.215 161.094 Q600.155 162.229 597.285 162.229 Q592.516 162.229 589.6 158.594 Q586.683 154.96 586.683 148.965 Q586.683 142.946 589.6 139.312 Q592.516 135.678 597.285 135.678 Q600.155 135.678 602.215 136.812 Q604.276 137.946 605.595 140.238 L605.595 136.303 L609.854 136.303 L609.854 159.011 Z" fill="#000000" fill-rule="nonzero" fill-opacity="1" /><path clip-path="url(#clip980)" d="M633.65 140.284 Q632.933 139.868 632.076 139.682 Q631.243 139.474 630.225 139.474 Q626.613 139.474 624.669 141.835 Q622.748 144.173 622.748 148.571 L622.748 162.229 L618.465 162.229 L618.465 136.303 L622.748 136.303 L622.748 140.331 Q624.09 137.969 626.243 136.835 Q628.396 135.678 631.475 135.678 Q631.914 135.678 632.447 135.747 Q632.979 135.794 633.627 135.909 L633.65 140.284 Z" fill="#000000" fill-rule="nonzero" fill-opacity="1" /><path clip-path="url(#clip980)" d="M649.9 149.196 Q644.738 149.196 642.748 150.377 Q640.757 151.557 640.757 154.405 Q640.757 156.673 642.238 158.016 Q643.743 159.335 646.312 159.335 Q649.854 159.335 651.984 156.835 Q654.136 154.312 654.136 150.145 L654.136 149.196 L649.9 149.196 M658.396 147.437 L658.396 162.229 L654.136 162.229 L654.136 158.293 Q652.678 160.655 650.502 161.789 Q648.326 162.9 645.178 162.9 Q641.197 162.9 638.836 160.678 Q636.498 158.432 636.498 154.682 Q636.498 150.307 639.414 148.085 Q642.354 145.863 648.164 145.863 L654.136 145.863 L654.136 145.446 Q654.136 142.507 652.192 140.909 Q650.271 139.289 646.775 139.289 Q644.553 139.289 642.447 139.821 Q640.34 140.354 638.396 141.419 L638.396 137.483 Q640.734 136.581 642.933 136.141 Q645.132 135.678 647.215 135.678 Q652.84 135.678 655.618 138.594 Q658.396 141.511 658.396 147.437 Z" fill="#000000" fill-rule="nonzero" fill-opacity="1" /><path clip-path="url(#clip980)" d="M687.354 141.28 Q688.951 138.409 691.173 137.044 Q693.396 135.678 696.405 135.678 Q700.456 135.678 702.655 138.525 Q704.854 141.349 704.854 146.581 L704.854 162.229 L700.571 162.229 L700.571 146.719 Q700.571 142.993 699.252 141.187 Q697.933 139.382 695.224 139.382 Q691.914 139.382 689.993 141.581 Q688.071 143.78 688.071 147.576 L688.071 162.229 L683.789 162.229 L683.789 146.719 Q683.789 142.969 682.47 141.187 Q681.15 139.382 678.396 139.382 Q675.132 139.382 673.21 141.604 Q671.289 143.803 671.289 147.576 L671.289 162.229 L667.007 162.229 L667.007 136.303 L671.289 136.303 L671.289 140.331 Q672.747 137.946 674.785 136.812 Q676.822 135.678 679.622 135.678 Q682.447 135.678 684.414 137.113 Q686.405 138.548 687.354 141.28 Z" fill="#000000" fill-rule="nonzero" fill-opacity="1" /><polyline clip-path="url(#clip980)" style="stroke:#e26f46; stroke-linecap:round; stroke-linejoin:round; stroke-width:4; stroke-opacity:1; fill:none" points="300.571,196.789 443.747,196.789 "/>
<path clip-path="url(#clip980)" d="M472.286 183.351 L472.286 210.226 L477.934 210.226 Q485.086 210.226 488.397 206.985 Q491.73 203.745 491.73 196.754 Q491.73 189.809 488.397 186.592 Q485.086 183.351 477.934 183.351 L472.286 183.351 M467.61 179.509 L477.216 179.509 Q487.262 179.509 491.961 183.698 Q496.66 187.865 496.66 196.754 Q496.66 205.689 491.938 209.879 Q487.216 214.069 477.216 214.069 L467.61 214.069 L467.61 179.509 Z" fill="#000000" fill-rule="nonzero" fill-opacity="1" /><path clip-path="url(#clip980)" d="M503.929 188.143 L508.188 188.143 L508.188 214.069 L503.929 214.069 L503.929 188.143 M503.929 178.05 L508.188 178.05 L508.188 183.444 L503.929 183.444 L503.929 178.05 Z" fill="#000000" fill-rule="nonzero" fill-opacity="1" /><path clip-path="url(#clip980)" d="M533.628 188.907 L533.628 192.934 Q531.822 192.009 529.878 191.546 Q527.933 191.083 525.85 191.083 Q522.679 191.083 521.082 192.055 Q519.508 193.027 519.508 194.971 Q519.508 196.453 520.642 197.309 Q521.776 198.143 525.202 198.907 L526.66 199.231 Q531.197 200.203 533.095 201.985 Q535.017 203.745 535.017 206.916 Q535.017 210.527 532.146 212.633 Q529.299 214.74 524.299 214.74 Q522.216 214.74 519.947 214.323 Q517.702 213.93 515.202 213.12 L515.202 208.721 Q517.563 209.948 519.855 210.573 Q522.146 211.175 524.392 211.175 Q527.401 211.175 529.021 210.157 Q530.642 209.115 530.642 207.24 Q530.642 205.504 529.461 204.578 Q528.304 203.652 524.345 202.796 L522.864 202.448 Q518.906 201.615 517.146 199.902 Q515.387 198.166 515.387 195.157 Q515.387 191.499 517.98 189.509 Q520.572 187.518 525.341 187.518 Q527.702 187.518 529.785 187.865 Q531.869 188.212 533.628 188.907 Z" fill="#000000" fill-rule="nonzero" fill-opacity="1" /><path clip-path="url(#clip980)" d="M546.012 180.782 L546.012 188.143 L554.785 188.143 L554.785 191.453 L546.012 191.453 L546.012 205.527 Q546.012 208.698 546.869 209.601 Q547.748 210.504 550.41 210.504 L554.785 210.504 L554.785 214.069 L550.41 214.069 Q545.48 214.069 543.605 212.24 Q541.73 210.388 541.73 205.527 L541.73 191.453 L538.605 191.453 L538.605 188.143 L541.73 188.143 L541.73 180.782 L546.012 180.782 Z" fill="#000000" fill-rule="nonzero" fill-opacity="1" /><path clip-path="url(#clip980)" d="M575.41 192.124 Q574.692 191.708 573.836 191.522 Q573.003 191.314 571.984 191.314 Q568.373 191.314 566.429 193.675 Q564.507 196.013 564.507 200.411 L564.507 214.069 L560.225 214.069 L560.225 188.143 L564.507 188.143 L564.507 192.171 Q565.85 189.809 568.003 188.675 Q570.155 187.518 573.234 187.518 Q573.674 187.518 574.206 187.587 Q574.739 187.634 575.387 187.749 L575.41 192.124 Z" fill="#000000" fill-rule="nonzero" fill-opacity="1" /><path clip-path="url(#clip980)" d="M579.878 188.143 L584.137 188.143 L584.137 214.069 L579.878 214.069 L579.878 188.143 M579.878 178.05 L584.137 178.05 L584.137 183.444 L579.878 183.444 L579.878 178.05 Z" fill="#000000" fill-rule="nonzero" fill-opacity="1" /><path clip-path="url(#clip980)" d="M611.66 201.129 Q611.66 196.43 609.715 193.768 Q607.794 191.083 604.415 191.083 Q601.035 191.083 599.09 193.768 Q597.169 196.43 597.169 201.129 Q597.169 205.828 599.09 208.513 Q601.035 211.175 604.415 211.175 Q607.794 211.175 609.715 208.513 Q611.66 205.828 611.66 201.129 M597.169 192.078 Q598.512 189.763 600.549 188.652 Q602.609 187.518 605.456 187.518 Q610.178 187.518 613.118 191.268 Q616.081 195.018 616.081 201.129 Q616.081 207.24 613.118 210.99 Q610.178 214.74 605.456 214.74 Q602.609 214.74 600.549 213.629 Q598.512 212.495 597.169 210.18 L597.169 214.069 L592.887 214.069 L592.887 178.05 L597.169 178.05 L597.169 192.078 Z" fill="#000000" fill-rule="nonzero" fill-opacity="1" /><path clip-path="url(#clip980)" d="M622.701 203.837 L622.701 188.143 L626.961 188.143 L626.961 203.675 Q626.961 207.356 628.396 209.208 Q629.831 211.036 632.701 211.036 Q636.15 211.036 638.141 208.837 Q640.155 206.638 640.155 202.842 L640.155 188.143 L644.414 188.143 L644.414 214.069 L640.155 214.069 L640.155 210.087 Q638.604 212.448 636.544 213.606 Q634.507 214.74 631.799 214.74 Q627.331 214.74 625.016 211.962 Q622.701 209.184 622.701 203.837 M633.419 187.518 L633.419 187.518 Z" fill="#000000" fill-rule="nonzero" fill-opacity="1" /><path clip-path="url(#clip980)" d="M657.4 180.782 L657.4 188.143 L666.173 188.143 L666.173 191.453 L657.4 191.453 L657.4 205.527 Q657.4 208.698 658.257 209.601 Q659.136 210.504 661.798 210.504 L666.173 210.504 L666.173 214.069 L661.798 214.069 Q656.868 214.069 654.993 212.24 Q653.118 210.388 653.118 205.527 L653.118 191.453 L649.993 191.453 L649.993 188.143 L653.118 188.143 L653.118 180.782 L657.4 180.782 Z" fill="#000000" fill-rule="nonzero" fill-opacity="1" /><path clip-path="url(#clip980)" d="M671.775 188.143 L676.034 188.143 L676.034 214.069 L671.775 214.069 L671.775 188.143 M671.775 178.05 L676.034 178.05 L676.034 183.444 L671.775 183.444 L671.775 178.05 Z" fill="#000000" fill-rule="nonzero" fill-opacity="1" /><path clip-path="url(#clip980)" d="M694.993 191.129 Q691.567 191.129 689.576 193.814 Q687.585 196.476 687.585 201.129 Q687.585 205.782 689.553 208.467 Q691.544 211.129 694.993 211.129 Q698.395 211.129 700.386 208.444 Q702.377 205.758 702.377 201.129 Q702.377 196.522 700.386 193.837 Q698.395 191.129 694.993 191.129 M694.993 187.518 Q700.548 187.518 703.72 191.129 Q706.891 194.74 706.891 201.129 Q706.891 207.495 703.72 211.129 Q700.548 214.74 694.993 214.74 Q689.414 214.74 686.243 211.129 Q683.095 207.495 683.095 201.129 Q683.095 194.74 686.243 191.129 Q689.414 187.518 694.993 187.518 Z" fill="#000000" fill-rule="nonzero" fill-opacity="1" /><path clip-path="url(#clip980)" d="M735.502 198.421 L735.502 214.069 L731.243 214.069 L731.243 198.559 Q731.243 194.879 729.807 193.05 Q728.372 191.222 725.502 191.222 Q722.053 191.222 720.062 193.421 Q718.071 195.62 718.071 199.416 L718.071 214.069 L713.789 214.069 L713.789 188.143 L718.071 188.143 L718.071 192.171 Q719.599 189.833 721.659 188.675 Q723.743 187.518 726.451 187.518 Q730.918 187.518 733.21 190.296 Q735.502 193.05 735.502 198.421 Z" fill="#000000" fill-rule="nonzero" fill-opacity="1" /><path clip-path="url(#clip980)" d="M772.191 178.05 L772.191 181.592 L768.117 181.592 Q765.826 181.592 764.923 182.518 Q764.043 183.444 764.043 185.851 L764.043 188.143 L771.057 188.143 L771.057 191.453 L764.043 191.453 L764.043 214.069 L759.761 214.069 L759.761 191.453 L755.687 191.453 L755.687 188.143 L759.761 188.143 L759.761 186.337 Q759.761 182.009 761.775 180.041 Q763.789 178.05 768.164 178.05 L772.191 178.05 Z" fill="#000000" fill-rule="nonzero" fill-opacity="1" /><path clip-path="url(#clip980)" d="M775.756 188.143 L780.015 188.143 L780.015 214.069 L775.756 214.069 L775.756 188.143 M775.756 178.05 L780.015 178.05 L780.015 183.444 L775.756 183.444 L775.756 178.05 Z" fill="#000000" fill-rule="nonzero" fill-opacity="1" /><path clip-path="url(#clip980)" d="M793.14 180.782 L793.14 188.143 L801.913 188.143 L801.913 191.453 L793.14 191.453 L793.14 205.527 Q793.14 208.698 793.997 209.601 Q794.876 210.504 797.538 210.504 L801.913 210.504 L801.913 214.069 L797.538 214.069 Q792.608 214.069 790.733 212.24 Q788.858 210.388 788.858 205.527 L788.858 191.453 L785.733 191.453 L785.733 188.143 L788.858 188.143 L788.858 180.782 L793.14 180.782 Z" fill="#000000" fill-rule="nonzero" fill-opacity="1" /></svg>
