<?xml version="1.0" encoding="utf-8"?>
<svg xmlns="http://www.w3.org/2000/svg" xmlns:xlink="http://www.w3.org/1999/xlink" width="600" height="400" viewBox="0 0 2400 1600">
<defs>
  <clipPath id="clip280">
    <rect x="0" y="0" width="2400" height="1600"/>
  </clipPath>
</defs>
<path clip-path="url(#clip280)" d="M0 1600 L2400 1600 L2400 8.88178e-14 L0 8.88178e-14  Z" fill="#ffffff" fill-rule="evenodd" fill-opacity="1"/>
<defs>
  <clipPath id="clip281">
    <rect x="480" y="0" width="1681" height="1600"/>
  </clipPath>
</defs>
<path clip-path="url(#clip280)" d="M205.121 1423.18 L2352.76 1423.18 L2352.76 47.2441 L205.121 47.2441  Z" fill="#ffffff" fill-rule="evenodd" fill-opacity="1"/>
<defs>
  <clipPath id="clip282">
    <rect x="205" y="47" width="2149" height="1377"/>
  </clipPath>
</defs>
<polyline clip-path="url(#clip282)" style="stroke:#000000; stroke-linecap:round; stroke-linejoin:round; stroke-width:2; stroke-opacity:0.1; fill:none" points="231.742,1423.18 231.742,47.2441 "/>
<polyline clip-path="url(#clip282)" style="stroke:#000000; stroke-linecap:round; stroke-linejoin:round; stroke-width:2; stroke-opacity:0.1; fill:none" points="849.668,1423.18 849.668,47.2441 "/>
<polyline clip-path="url(#clip282)" style="stroke:#000000; stroke-linecap:round; stroke-linejoin:round; stroke-width:2; stroke-opacity:0.1; fill:none" points="1467.59,1423.18 1467.59,47.2441 "/>
<polyline clip-path="url(#clip282)" style="stroke:#000000; stroke-linecap:round; stroke-linejoin:round; stroke-width:2; stroke-opacity:0.1; fill:none" points="2085.52,1423.18 2085.52,47.2441 "/>
<polyline clip-path="url(#clip282)" style="stroke:#000000; stroke-linecap:round; stroke-linejoin:round; stroke-width:2; stroke-opacity:0.1; fill:none" points="231.742,1423.18 231.742,47.2441 "/>
<polyline clip-path="url(#clip282)" style="stroke:#000000; stroke-linecap:round; stroke-linejoin:round; stroke-width:2; stroke-opacity:0.1; fill:none" points="849.668,1423.18 849.668,47.2441 "/>
<polyline clip-path="url(#clip282)" style="stroke:#000000; stroke-linecap:round; stroke-linejoin:round; stroke-width:2; stroke-opacity:0.1; fill:none" points="1467.59,1423.18 1467.59,47.2441 "/>
<polyline clip-path="url(#clip282)" style="stroke:#000000; stroke-linecap:round; stroke-linejoin:round; stroke-width:2; stroke-opacity:0.1; fill:none" points="2085.52,1423.18 2085.52,47.2441 "/>
<polyline clip-path="url(#clip282)" style="stroke:#000000; stroke-linecap:round; stroke-linejoin:round; stroke-width:2; stroke-opacity:0.1; fill:none" points="205.121,1384.24 2352.76,1384.24 "/>
<polyline clip-path="url(#clip282)" style="stroke:#000000; stroke-linecap:round; stroke-linejoin:round; stroke-width:2; stroke-opacity:0.1; fill:none" points="205.121,1062.15 2352.76,1062.15 "/>
<polyline clip-path="url(#clip282)" style="stroke:#000000; stroke-linecap:round; stroke-linejoin:round; stroke-width:2; stroke-opacity:0.1; fill:none" points="205.121,740.068 2352.76,740.068 "/>
<polyline clip-path="url(#clip282)" style="stroke:#000000; stroke-linecap:round; stroke-linejoin:round; stroke-width:2; stroke-opacity:0.1; fill:none" points="205.121,417.983 2352.76,417.983 "/>
<polyline clip-path="url(#clip282)" style="stroke:#000000; stroke-linecap:round; stroke-linejoin:round; stroke-width:2; stroke-opacity:0.1; fill:none" points="205.121,95.8975 2352.76,95.8975 "/>
<polyline clip-path="url(#clip282)" style="stroke:#000000; stroke-linecap:round; stroke-linejoin:round; stroke-width:2; stroke-opacity:0.1; fill:none" points="205.121,1384.24 2352.76,1384.24 "/>
<polyline clip-path="url(#clip282)" style="stroke:#000000; stroke-linecap:round; stroke-linejoin:round; stroke-width:2; stroke-opacity:0.1; fill:none" points="205.121,1062.15 2352.76,1062.15 "/>
<polyline clip-path="url(#clip282)" style="stroke:#000000; stroke-linecap:round; stroke-linejoin:round; stroke-width:2; stroke-opacity:0.1; fill:none" points="205.121,740.068 2352.76,740.068 "/>
<polyline clip-path="url(#clip282)" style="stroke:#000000; stroke-linecap:round; stroke-linejoin:round; stroke-width:2; stroke-opacity:0.1; fill:none" points="205.121,417.983 2352.76,417.983 "/>
<polyline clip-path="url(#clip282)" style="stroke:#000000; stroke-linecap:round; stroke-linejoin:round; stroke-width:2; stroke-opacity:0.1; fill:none" points="205.121,95.8975 2352.76,95.8975 "/>
<polyline clip-path="url(#clip280)" style="stroke:#000000; stroke-linecap:round; stroke-linejoin:round; stroke-width:4; stroke-opacity:1; fill:none" points="205.121,1423.18 2352.76,1423.18 "/>
<polyline clip-path="url(#clip280)" style="stroke:#000000; stroke-linecap:round; stroke-linejoin:round; stroke-width:4; stroke-opacity:1; fill:none" points="205.121,47.2441 2352.76,47.2441 "/>
<polyline clip-path="url(#clip280)" style="stroke:#000000; stroke-linecap:round; stroke-linejoin:round; stroke-width:4; stroke-opacity:1; fill:none" points="231.742,1423.18 231.742,1404.28 "/>
<polyline clip-path="url(#clip280)" style="stroke:#000000; stroke-linecap:round; stroke-linejoin:round; stroke-width:4; stroke-opacity:1; fill:none" points="849.668,1423.18 849.668,1404.28 "/>
<polyline clip-path="url(#clip280)" style="stroke:#000000; stroke-linecap:round; stroke-linejoin:round; stroke-width:4; stroke-opacity:1; fill:none" points="1467.59,1423.18 1467.59,1404.28 "/>
<polyline clip-path="url(#clip280)" style="stroke:#000000; stroke-linecap:round; stroke-linejoin:round; stroke-width:4; stroke-opacity:1; fill:none" points="2085.52,1423.18 2085.52,1404.28 "/>
<polyline clip-path="url(#clip280)" style="stroke:#000000; stroke-linecap:round; stroke-linejoin:round; stroke-width:4; stroke-opacity:1; fill:none" points="231.742,47.2441 231.742,66.1417 "/>
<polyline clip-path="url(#clip280)" style="stroke:#000000; stroke-linecap:round; stroke-linejoin:round; stroke-width:4; stroke-opacity:1; fill:none" points="849.668,47.2441 849.668,66.1417 "/>
<polyline clip-path="url(#clip280)" style="stroke:#000000; stroke-linecap:round; stroke-linejoin:round; stroke-width:4; stroke-opacity:1; fill:none" points="1467.59,47.2441 1467.59,66.1417 "/>
<polyline clip-path="url(#clip280)" style="stroke:#000000; stroke-linecap:round; stroke-linejoin:round; stroke-width:4; stroke-opacity:1; fill:none" points="2085.52,47.2441 2085.52,66.1417 "/>
<path clip-path="url(#clip280)" d="M179.948 1466.44 Q176.8 1466.44 174.948 1468.59 Q173.119 1470.74 173.119 1474.49 Q173.119 1478.22 174.948 1480.39 Q176.8 1482.55 179.948 1482.55 Q183.096 1482.55 184.925 1480.39 Q186.777 1478.22 186.777 1474.49 Q186.777 1470.74 184.925 1468.59 Q183.096 1466.44 179.948 1466.44 M189.23 1451.78 L189.23 1456.04 Q187.471 1455.21 185.666 1454.77 Q183.883 1454.33 182.124 1454.33 Q177.494 1454.33 175.041 1457.45 Q172.61 1460.58 172.263 1466.9 Q173.629 1464.89 175.689 1463.82 Q177.749 1462.73 180.226 1462.73 Q185.434 1462.73 188.443 1465.9 Q191.476 1469.05 191.476 1474.49 Q191.476 1479.82 188.328 1483.03 Q185.179 1486.25 179.948 1486.25 Q173.953 1486.25 170.781 1481.67 Q167.61 1477.06 167.61 1468.33 Q167.61 1460.14 171.499 1455.28 Q175.388 1450.39 181.939 1450.39 Q183.698 1450.39 185.48 1450.74 Q187.286 1451.09 189.23 1451.78 Z" fill="#000000" fill-rule="nonzero" fill-opacity="1" /><path clip-path="url(#clip280)" d="M199.578 1451.02 L217.934 1451.02 L217.934 1454.96 L203.86 1454.96 L203.86 1463.43 Q204.878 1463.08 205.897 1462.92 Q206.915 1462.73 207.934 1462.73 Q213.721 1462.73 217.101 1465.9 Q220.48 1469.08 220.48 1474.49 Q220.48 1480.07 217.008 1483.17 Q213.536 1486.25 207.216 1486.25 Q205.04 1486.25 202.772 1485.88 Q200.527 1485.51 198.119 1484.77 L198.119 1480.07 Q200.203 1481.2 202.425 1481.76 Q204.647 1482.32 207.124 1482.32 Q211.128 1482.32 213.466 1480.21 Q215.804 1478.1 215.804 1474.49 Q215.804 1470.88 213.466 1468.77 Q211.128 1466.67 207.124 1466.67 Q205.249 1466.67 203.374 1467.08 Q201.522 1467.5 199.578 1468.38 L199.578 1451.02 Z" fill="#000000" fill-rule="nonzero" fill-opacity="1" /><path clip-path="url(#clip280)" d="M229.693 1479.7 L234.577 1479.7 L234.577 1485.58 L229.693 1485.58 L229.693 1479.7 Z" fill="#000000" fill-rule="nonzero" fill-opacity="1" /><path clip-path="url(#clip280)" d="M244.901 1484.86 L244.901 1480.6 Q246.661 1481.44 248.466 1481.88 Q250.272 1482.32 252.008 1482.32 Q256.637 1482.32 259.068 1479.21 Q261.522 1476.09 261.869 1469.75 Q260.526 1471.74 258.466 1472.8 Q256.406 1473.87 253.906 1473.87 Q248.721 1473.87 245.688 1470.74 Q242.679 1467.59 242.679 1462.15 Q242.679 1456.83 245.827 1453.61 Q248.975 1450.39 254.207 1450.39 Q260.202 1450.39 263.35 1455 Q266.522 1459.58 266.522 1468.33 Q266.522 1476.51 262.633 1481.39 Q258.767 1486.25 252.216 1486.25 Q250.457 1486.25 248.651 1485.9 Q246.846 1485.56 244.901 1484.86 M254.207 1470.21 Q257.355 1470.21 259.184 1468.06 Q261.036 1465.9 261.036 1462.15 Q261.036 1458.43 259.184 1456.27 Q257.355 1454.1 254.207 1454.1 Q251.059 1454.1 249.207 1456.27 Q247.378 1458.43 247.378 1462.15 Q247.378 1465.9 249.207 1468.06 Q251.059 1470.21 254.207 1470.21 Z" fill="#000000" fill-rule="nonzero" fill-opacity="1" /><path clip-path="url(#clip280)" d="M274.971 1451.02 L293.327 1451.02 L293.327 1454.96 L279.253 1454.96 L279.253 1463.43 Q280.272 1463.08 281.29 1462.92 Q282.309 1462.73 283.327 1462.73 Q289.114 1462.73 292.494 1465.9 Q295.873 1469.08 295.873 1474.49 Q295.873 1480.07 292.401 1483.17 Q288.929 1486.25 282.609 1486.25 Q280.434 1486.25 278.165 1485.88 Q275.92 1485.51 273.512 1484.77 L273.512 1480.07 Q275.596 1481.2 277.818 1481.76 Q280.04 1482.32 282.517 1482.32 Q286.521 1482.32 288.859 1480.21 Q291.197 1478.1 291.197 1474.49 Q291.197 1470.88 288.859 1468.77 Q286.521 1466.67 282.517 1466.67 Q280.642 1466.67 278.767 1467.08 Q276.915 1467.5 274.971 1468.38 L274.971 1451.02 Z" fill="#000000" fill-rule="nonzero" fill-opacity="1" /><path clip-path="url(#clip280)" d="M797.377 1466.44 Q794.229 1466.44 792.377 1468.59 Q790.548 1470.74 790.548 1474.49 Q790.548 1478.22 792.377 1480.39 Q794.229 1482.55 797.377 1482.55 Q800.525 1482.55 802.354 1480.39 Q804.206 1478.22 804.206 1474.49 Q804.206 1470.74 802.354 1468.59 Q800.525 1466.44 797.377 1466.44 M806.659 1451.78 L806.659 1456.04 Q804.9 1455.21 803.094 1454.77 Q801.312 1454.33 799.553 1454.33 Q794.923 1454.33 792.47 1457.45 Q790.039 1460.58 789.692 1466.9 Q791.058 1464.89 793.118 1463.82 Q795.178 1462.73 797.655 1462.73 Q802.863 1462.73 805.872 1465.9 Q808.905 1469.05 808.905 1474.49 Q808.905 1479.82 805.757 1483.03 Q802.608 1486.25 797.377 1486.25 Q791.382 1486.25 788.21 1481.67 Q785.039 1477.06 785.039 1468.33 Q785.039 1460.14 788.928 1455.28 Q792.817 1450.39 799.368 1450.39 Q801.127 1450.39 802.909 1450.74 Q804.715 1451.09 806.659 1451.78 Z" fill="#000000" fill-rule="nonzero" fill-opacity="1" /><path clip-path="url(#clip280)" d="M827.539 1466.44 Q824.391 1466.44 822.539 1468.59 Q820.71 1470.74 820.71 1474.49 Q820.71 1478.22 822.539 1480.39 Q824.391 1482.55 827.539 1482.55 Q830.687 1482.55 832.516 1480.39 Q834.367 1478.22 834.367 1474.49 Q834.367 1470.74 832.516 1468.59 Q830.687 1466.44 827.539 1466.44 M836.821 1451.78 L836.821 1456.04 Q835.062 1455.21 833.256 1454.77 Q831.474 1454.33 829.715 1454.33 Q825.085 1454.33 822.631 1457.45 Q820.201 1460.58 819.854 1466.9 Q821.219 1464.89 823.28 1463.82 Q825.34 1462.73 827.817 1462.73 Q833.025 1462.73 836.034 1465.9 Q839.067 1469.05 839.067 1474.49 Q839.067 1479.82 835.918 1483.03 Q832.77 1486.25 827.539 1486.25 Q821.543 1486.25 818.372 1481.67 Q815.201 1477.06 815.201 1468.33 Q815.201 1460.14 819.09 1455.28 Q822.979 1450.39 829.53 1450.39 Q831.289 1450.39 833.071 1450.74 Q834.877 1451.09 836.821 1451.78 Z" fill="#000000" fill-rule="nonzero" fill-opacity="1" /><path clip-path="url(#clip280)" d="M847.122 1479.7 L852.006 1479.7 L852.006 1485.58 L847.122 1485.58 L847.122 1479.7 Z" fill="#000000" fill-rule="nonzero" fill-opacity="1" /><path clip-path="url(#clip280)" d="M872.191 1454.1 Q868.58 1454.1 866.752 1457.66 Q864.946 1461.2 864.946 1468.33 Q864.946 1475.44 866.752 1479.01 Q868.58 1482.55 872.191 1482.55 Q875.826 1482.55 877.631 1479.01 Q879.46 1475.44 879.46 1468.33 Q879.46 1461.2 877.631 1457.66 Q875.826 1454.1 872.191 1454.1 M872.191 1450.39 Q878.001 1450.39 881.057 1455 Q884.136 1459.58 884.136 1468.33 Q884.136 1477.06 881.057 1481.67 Q878.001 1486.25 872.191 1486.25 Q866.381 1486.25 863.302 1481.67 Q860.247 1477.06 860.247 1468.33 Q860.247 1459.58 863.302 1455 Q866.381 1450.39 872.191 1450.39 Z" fill="#000000" fill-rule="nonzero" fill-opacity="1" /><path clip-path="url(#clip280)" d="M902.353 1454.1 Q898.742 1454.1 896.913 1457.66 Q895.108 1461.2 895.108 1468.33 Q895.108 1475.44 896.913 1479.01 Q898.742 1482.55 902.353 1482.55 Q905.987 1482.55 907.793 1479.01 Q909.622 1475.44 909.622 1468.33 Q909.622 1461.2 907.793 1457.66 Q905.987 1454.1 902.353 1454.1 M902.353 1450.39 Q908.163 1450.39 911.219 1455 Q914.298 1459.58 914.298 1468.33 Q914.298 1477.06 911.219 1481.67 Q908.163 1486.25 902.353 1486.25 Q896.543 1486.25 893.464 1481.67 Q890.409 1477.06 890.409 1468.33 Q890.409 1459.58 893.464 1455 Q896.543 1450.39 902.353 1450.39 Z" fill="#000000" fill-rule="nonzero" fill-opacity="1" /><path clip-path="url(#clip280)" d="M1415.8 1466.44 Q1412.65 1466.44 1410.8 1468.59 Q1408.97 1470.74 1408.97 1474.49 Q1408.97 1478.22 1410.8 1480.39 Q1412.65 1482.55 1415.8 1482.55 Q1418.95 1482.55 1420.78 1480.39 Q1422.63 1478.22 1422.63 1474.49 Q1422.63 1470.74 1420.78 1468.59 Q1418.95 1466.44 1415.8 1466.44 M1425.08 1451.78 L1425.08 1456.04 Q1423.32 1455.21 1421.52 1454.77 Q1419.74 1454.33 1417.98 1454.33 Q1413.35 1454.33 1410.89 1457.45 Q1408.46 1460.58 1408.12 1466.9 Q1409.48 1464.89 1411.54 1463.82 Q1413.6 1462.73 1416.08 1462.73 Q1421.29 1462.73 1424.3 1465.9 Q1427.33 1469.05 1427.33 1474.49 Q1427.33 1479.82 1424.18 1483.03 Q1421.03 1486.25 1415.8 1486.25 Q1409.81 1486.25 1406.63 1481.67 Q1403.46 1477.06 1403.46 1468.33 Q1403.46 1460.14 1407.35 1455.28 Q1411.24 1450.39 1417.79 1450.39 Q1419.55 1450.39 1421.33 1450.74 Q1423.14 1451.09 1425.08 1451.78 Z" fill="#000000" fill-rule="nonzero" fill-opacity="1" /><path clip-path="url(#clip280)" d="M1445.96 1466.44 Q1442.81 1466.44 1440.96 1468.59 Q1439.13 1470.74 1439.13 1474.49 Q1439.13 1478.22 1440.96 1480.39 Q1442.81 1482.55 1445.96 1482.55 Q1449.11 1482.55 1450.94 1480.39 Q1452.79 1478.22 1452.79 1474.49 Q1452.79 1470.74 1450.94 1468.59 Q1449.11 1466.44 1445.96 1466.44 M1455.25 1451.78 L1455.25 1456.04 Q1453.49 1455.21 1451.68 1454.77 Q1449.9 1454.33 1448.14 1454.33 Q1443.51 1454.33 1441.06 1457.45 Q1438.63 1460.58 1438.28 1466.9 Q1439.64 1464.89 1441.7 1463.82 Q1443.76 1462.73 1446.24 1462.73 Q1451.45 1462.73 1454.46 1465.9 Q1457.49 1469.05 1457.49 1474.49 Q1457.49 1479.82 1454.34 1483.03 Q1451.19 1486.25 1445.96 1486.25 Q1439.97 1486.25 1436.8 1481.67 Q1433.63 1477.06 1433.63 1468.33 Q1433.63 1460.14 1437.51 1455.28 Q1441.4 1450.39 1447.95 1450.39 Q1449.71 1450.39 1451.5 1450.74 Q1453.3 1451.09 1455.25 1451.78 Z" fill="#000000" fill-rule="nonzero" fill-opacity="1" /><path clip-path="url(#clip280)" d="M1465.55 1479.7 L1470.43 1479.7 L1470.43 1485.58 L1465.55 1485.58 L1465.55 1479.7 Z" fill="#000000" fill-rule="nonzero" fill-opacity="1" /><path clip-path="url(#clip280)" d="M1490.62 1454.1 Q1487 1454.1 1485.18 1457.66 Q1483.37 1461.2 1483.37 1468.33 Q1483.37 1475.44 1485.18 1479.01 Q1487 1482.55 1490.62 1482.55 Q1494.25 1482.55 1496.06 1479.01 Q1497.88 1475.44 1497.88 1468.33 Q1497.88 1461.2 1496.06 1457.66 Q1494.25 1454.1 1490.62 1454.1 M1490.62 1450.39 Q1496.43 1450.39 1499.48 1455 Q1502.56 1459.58 1502.56 1468.33 Q1502.56 1477.06 1499.48 1481.67 Q1496.43 1486.25 1490.62 1486.25 Q1484.81 1486.25 1481.73 1481.67 Q1478.67 1477.06 1478.67 1468.33 Q1478.67 1459.58 1481.73 1455 Q1484.81 1450.39 1490.62 1450.39 Z" fill="#000000" fill-rule="nonzero" fill-opacity="1" /><path clip-path="url(#clip280)" d="M1510.82 1451.02 L1529.18 1451.02 L1529.18 1454.96 L1515.11 1454.96 L1515.11 1463.43 Q1516.12 1463.08 1517.14 1462.92 Q1518.16 1462.73 1519.18 1462.73 Q1524.97 1462.73 1528.35 1465.9 Q1531.73 1469.08 1531.73 1474.49 Q1531.73 1480.07 1528.25 1483.17 Q1524.78 1486.25 1518.46 1486.25 Q1516.29 1486.25 1514.02 1485.88 Q1511.77 1485.51 1509.37 1484.77 L1509.37 1480.07 Q1511.45 1481.2 1513.67 1481.76 Q1515.89 1482.32 1518.37 1482.32 Q1522.37 1482.32 1524.71 1480.21 Q1527.05 1478.1 1527.05 1474.49 Q1527.05 1470.88 1524.71 1468.77 Q1522.37 1466.67 1518.37 1466.67 Q1516.5 1466.67 1514.62 1467.08 Q1512.77 1467.5 1510.82 1468.38 L1510.82 1451.02 Z" fill="#000000" fill-rule="nonzero" fill-opacity="1" /><path clip-path="url(#clip280)" d="M2033.23 1466.44 Q2030.08 1466.44 2028.23 1468.59 Q2026.4 1470.74 2026.4 1474.49 Q2026.4 1478.22 2028.23 1480.39 Q2030.08 1482.55 2033.23 1482.55 Q2036.38 1482.55 2038.21 1480.39 Q2040.06 1478.22 2040.06 1474.49 Q2040.06 1470.74 2038.21 1468.59 Q2036.38 1466.44 2033.23 1466.44 M2042.51 1451.78 L2042.51 1456.04 Q2040.75 1455.21 2038.95 1454.77 Q2037.17 1454.33 2035.41 1454.33 Q2030.78 1454.33 2028.32 1457.45 Q2025.89 1460.58 2025.55 1466.9 Q2026.91 1464.89 2028.97 1463.82 Q2031.03 1462.73 2033.51 1462.73 Q2038.72 1462.73 2041.73 1465.9 Q2044.76 1469.05 2044.76 1474.49 Q2044.76 1479.82 2041.61 1483.03 Q2038.46 1486.25 2033.23 1486.25 Q2027.23 1486.25 2024.06 1481.67 Q2020.89 1477.06 2020.89 1468.33 Q2020.89 1460.14 2024.78 1455.28 Q2028.67 1450.39 2035.22 1450.39 Q2036.98 1450.39 2038.76 1450.74 Q2040.57 1451.09 2042.51 1451.78 Z" fill="#000000" fill-rule="nonzero" fill-opacity="1" /><path clip-path="url(#clip280)" d="M2063.39 1466.44 Q2060.24 1466.44 2058.39 1468.59 Q2056.56 1470.74 2056.56 1474.49 Q2056.56 1478.22 2058.39 1480.39 Q2060.24 1482.55 2063.39 1482.55 Q2066.54 1482.55 2068.37 1480.39 Q2070.22 1478.22 2070.22 1474.49 Q2070.22 1470.74 2068.37 1468.59 Q2066.54 1466.44 2063.39 1466.44 M2072.67 1451.78 L2072.67 1456.04 Q2070.92 1455.21 2069.11 1454.77 Q2067.33 1454.33 2065.57 1454.33 Q2060.94 1454.33 2058.48 1457.45 Q2056.05 1460.58 2055.71 1466.9 Q2057.07 1464.89 2059.13 1463.82 Q2061.19 1462.73 2063.67 1462.73 Q2068.88 1462.73 2071.89 1465.9 Q2074.92 1469.05 2074.92 1474.49 Q2074.92 1479.82 2071.77 1483.03 Q2068.62 1486.25 2063.39 1486.25 Q2057.4 1486.25 2054.23 1481.67 Q2051.05 1477.06 2051.05 1468.33 Q2051.05 1460.14 2054.94 1455.28 Q2058.83 1450.39 2065.38 1450.39 Q2067.14 1450.39 2068.92 1450.74 Q2070.73 1451.09 2072.67 1451.78 Z" fill="#000000" fill-rule="nonzero" fill-opacity="1" /><path clip-path="url(#clip280)" d="M2082.98 1479.7 L2087.86 1479.7 L2087.86 1485.58 L2082.98 1485.58 L2082.98 1479.7 Z" fill="#000000" fill-rule="nonzero" fill-opacity="1" /><path clip-path="url(#clip280)" d="M2098.85 1481.64 L2106.49 1481.64 L2106.49 1455.28 L2098.18 1456.95 L2098.18 1452.69 L2106.45 1451.02 L2111.12 1451.02 L2111.12 1481.64 L2118.76 1481.64 L2118.76 1485.58 L2098.85 1485.58 L2098.85 1481.64 Z" fill="#000000" fill-rule="nonzero" fill-opacity="1" /><path clip-path="url(#clip280)" d="M2138.21 1454.1 Q2134.6 1454.1 2132.77 1457.66 Q2130.96 1461.2 2130.96 1468.33 Q2130.96 1475.44 2132.77 1479.01 Q2134.6 1482.55 2138.21 1482.55 Q2141.84 1482.55 2143.65 1479.01 Q2145.47 1475.44 2145.47 1468.33 Q2145.47 1461.2 2143.65 1457.66 Q2141.84 1454.1 2138.21 1454.1 M2138.21 1450.39 Q2144.02 1450.39 2147.07 1455 Q2150.15 1459.58 2150.15 1468.33 Q2150.15 1477.06 2147.07 1481.67 Q2144.02 1486.25 2138.21 1486.25 Q2132.4 1486.25 2129.32 1481.67 Q2126.26 1477.06 2126.26 1468.33 Q2126.26 1459.58 2129.32 1455 Q2132.4 1450.39 2138.21 1450.39 Z" fill="#000000" fill-rule="nonzero" fill-opacity="1" /><path clip-path="url(#clip280)" d="M1156.84 1526.86 L1148.12 1550.51 L1165.6 1550.51 L1156.84 1526.86 M1153.22 1520.52 L1160.5 1520.52 L1178.61 1568.04 L1171.93 1568.04 L1167.6 1555.85 L1146.18 1555.85 L1141.85 1568.04 L1135.07 1568.04 L1153.22 1520.52 Z" fill="#000000" fill-rule="nonzero" fill-opacity="1" /><path clip-path="url(#clip280)" d="M1208.76 1549.81 Q1208.76 1543.44 1206.11 1539.94 Q1203.5 1536.44 1198.76 1536.44 Q1194.05 1536.44 1191.41 1539.94 Q1188.8 1543.44 1188.8 1549.81 Q1188.8 1556.14 1191.41 1559.64 Q1194.05 1563.14 1198.76 1563.14 Q1203.5 1563.14 1206.11 1559.64 Q1208.76 1556.14 1208.76 1549.81 M1214.61 1563.62 Q1214.61 1572.72 1210.57 1577.15 Q1206.53 1581.6 1198.19 1581.6 Q1195.1 1581.6 1192.36 1581.13 Q1189.63 1580.68 1187.05 1579.72 L1187.05 1574.03 Q1189.63 1575.43 1192.14 1576.1 Q1194.66 1576.76 1197.27 1576.76 Q1203.03 1576.76 1205.89 1573.74 Q1208.76 1570.75 1208.76 1564.67 L1208.76 1561.77 Q1206.94 1564.92 1204.11 1566.48 Q1201.28 1568.04 1197.33 1568.04 Q1190.77 1568.04 1186.76 1563.05 Q1182.75 1558.05 1182.75 1549.81 Q1182.75 1541.53 1186.76 1536.53 Q1190.77 1531.54 1197.33 1531.54 Q1201.28 1531.54 1204.11 1533.1 Q1206.94 1534.66 1208.76 1537.81 L1208.76 1532.4 L1214.61 1532.4 L1214.61 1563.62 Z" fill="#000000" fill-rule="nonzero" fill-opacity="1" /><path clip-path="url(#clip280)" d="M1257.17 1548.76 L1257.17 1551.62 L1230.24 1551.62 Q1230.62 1557.67 1233.87 1560.85 Q1237.15 1564 1242.97 1564 Q1246.35 1564 1249.5 1563.17 Q1252.68 1562.35 1255.8 1560.69 L1255.8 1566.23 Q1252.65 1567.57 1249.34 1568.27 Q1246.03 1568.97 1242.62 1568.97 Q1234.09 1568.97 1229.09 1564 Q1224.13 1559.04 1224.13 1550.57 Q1224.13 1541.82 1228.84 1536.69 Q1233.58 1531.54 1241.6 1531.54 Q1248.8 1531.54 1252.97 1536.18 Q1257.17 1540.8 1257.17 1548.76 M1251.31 1547.04 Q1251.25 1542.23 1248.61 1539.37 Q1246 1536.5 1241.67 1536.5 Q1236.77 1536.5 1233.81 1539.27 Q1230.88 1542.04 1230.43 1547.07 L1251.31 1547.04 Z" fill="#000000" fill-rule="nonzero" fill-opacity="1" /><path clip-path="url(#clip280)" d="M1301.57 1518.58 Q1297.3 1525.9 1295.23 1533.06 Q1293.17 1540.23 1293.17 1547.58 Q1293.17 1554.93 1295.23 1562.16 Q1297.34 1569.35 1301.57 1576.64 L1296.48 1576.64 Q1291.7 1569.16 1289.31 1561.93 Q1286.96 1554.71 1286.96 1547.58 Q1286.96 1540.48 1289.31 1533.29 Q1291.67 1526.09 1296.48 1518.58 L1301.57 1518.58 Z" fill="#000000" fill-rule="nonzero" fill-opacity="1" /><path clip-path="url(#clip280)" d="M1313.19 1520.52 L1322.77 1520.52 L1334.89 1552.86 L1347.08 1520.52 L1356.66 1520.52 L1356.66 1568.04 L1350.39 1568.04 L1350.39 1526.32 L1338.14 1558.91 L1331.68 1558.91 L1319.42 1526.32 L1319.42 1568.04 L1313.19 1568.04 L1313.19 1520.52 Z" fill="#000000" fill-rule="nonzero" fill-opacity="1" /><path clip-path="url(#clip280)" d="M1385.37 1550.12 Q1378.28 1550.12 1375.54 1551.75 Q1372.8 1553.37 1372.8 1557.29 Q1372.8 1560.4 1374.84 1562.25 Q1376.91 1564.07 1380.44 1564.07 Q1385.31 1564.07 1388.24 1560.63 Q1391.2 1557.16 1391.2 1551.43 L1391.2 1550.12 L1385.37 1550.12 M1397.05 1547.71 L1397.05 1568.04 L1391.2 1568.04 L1391.2 1562.63 Q1389.19 1565.88 1386.2 1567.44 Q1383.21 1568.97 1378.88 1568.97 Q1373.41 1568.97 1370.16 1565.91 Q1366.94 1562.82 1366.94 1557.67 Q1366.94 1551.65 1370.95 1548.6 Q1375 1545.54 1382.99 1545.54 L1391.2 1545.54 L1391.2 1544.97 Q1391.2 1540.93 1388.52 1538.73 Q1385.88 1536.5 1381.08 1536.5 Q1378.02 1536.5 1375.12 1537.23 Q1372.23 1537.97 1369.55 1539.43 L1369.55 1534.02 Q1372.77 1532.78 1375.79 1532.17 Q1378.82 1531.54 1381.68 1531.54 Q1389.42 1531.54 1393.23 1535.55 Q1397.05 1539.56 1397.05 1547.71 Z" fill="#000000" fill-rule="nonzero" fill-opacity="1" /><path clip-path="url(#clip280)" d="M1408.19 1518.58 L1413.29 1518.58 Q1418.06 1526.09 1420.42 1533.29 Q1422.8 1540.48 1422.8 1547.58 Q1422.8 1554.71 1420.42 1561.93 Q1418.06 1569.16 1413.29 1576.64 L1408.19 1576.64 Q1412.43 1569.35 1414.5 1562.16 Q1416.6 1554.93 1416.6 1547.58 Q1416.6 1540.23 1414.5 1533.06 Q1412.43 1525.9 1408.19 1518.58 Z" fill="#000000" fill-rule="nonzero" fill-opacity="1" /><polyline clip-path="url(#clip280)" style="stroke:#000000; stroke-linecap:round; stroke-linejoin:round; stroke-width:4; stroke-opacity:1; fill:none" points="205.121,1423.18 205.121,47.2441 "/>
<polyline clip-path="url(#clip280)" style="stroke:#000000; stroke-linecap:round; stroke-linejoin:round; stroke-width:4; stroke-opacity:1; fill:none" points="2352.76,1423.18 2352.76,47.2441 "/>
<polyline clip-path="url(#clip280)" style="stroke:#000000; stroke-linecap:round; stroke-linejoin:round; stroke-width:4; stroke-opacity:1; fill:none" points="205.121,1384.24 224.019,1384.24 "/>
<polyline clip-path="url(#clip280)" style="stroke:#000000; stroke-linecap:round; stroke-linejoin:round; stroke-width:4; stroke-opacity:1; fill:none" points="205.121,1062.15 224.019,1062.15 "/>
<polyline clip-path="url(#clip280)" style="stroke:#000000; stroke-linecap:round; stroke-linejoin:round; stroke-width:4; stroke-opacity:1; fill:none" points="205.121,740.068 224.019,740.068 "/>
<polyline clip-path="url(#clip280)" style="stroke:#000000; stroke-linecap:round; stroke-linejoin:round; stroke-width:4; stroke-opacity:1; fill:none" points="205.121,417.983 224.019,417.983 "/>
<polyline clip-path="url(#clip280)" style="stroke:#000000; stroke-linecap:round; stroke-linejoin:round; stroke-width:4; stroke-opacity:1; fill:none" points="205.121,95.8975 224.019,95.8975 "/>
<polyline clip-path="url(#clip280)" style="stroke:#000000; stroke-linecap:round; stroke-linejoin:round; stroke-width:4; stroke-opacity:1; fill:none" points="2352.76,1384.24 2333.86,1384.24 "/>
<polyline clip-path="url(#clip280)" style="stroke:#000000; stroke-linecap:round; stroke-linejoin:round; stroke-width:4; stroke-opacity:1; fill:none" points="2352.76,1062.15 2333.86,1062.15 "/>
<polyline clip-path="url(#clip280)" style="stroke:#000000; stroke-linecap:round; stroke-linejoin:round; stroke-width:4; stroke-opacity:1; fill:none" points="2352.76,740.068 2333.86,740.068 "/>
<polyline clip-path="url(#clip280)" style="stroke:#000000; stroke-linecap:round; stroke-linejoin:round; stroke-width:4; stroke-opacity:1; fill:none" points="2352.76,417.983 2333.86,417.983 "/>
<polyline clip-path="url(#clip280)" style="stroke:#000000; stroke-linecap:round; stroke-linejoin:round; stroke-width:4; stroke-opacity:1; fill:none" points="2352.76,95.8975 2333.86,95.8975 "/>
<path clip-path="url(#clip280)" d="M157.177 1370.04 Q153.566 1370.04 151.737 1373.6 Q149.931 1377.14 149.931 1384.27 Q149.931 1391.38 151.737 1394.94 Q153.566 1398.49 157.177 1398.49 Q160.811 1398.49 162.616 1394.94 Q164.445 1391.38 164.445 1384.27 Q164.445 1377.14 162.616 1373.6 Q160.811 1370.04 157.177 1370.04 M157.177 1366.33 Q162.987 1366.33 166.042 1370.94 Q169.121 1375.52 169.121 1384.27 Q169.121 1393 166.042 1397.61 Q162.987 1402.19 157.177 1402.19 Q151.366 1402.19 148.288 1397.61 Q145.232 1393 145.232 1384.27 Q145.232 1375.52 148.288 1370.94 Q151.366 1366.33 157.177 1366.33 Z" fill="#000000" fill-rule="nonzero" fill-opacity="1" /><path clip-path="url(#clip280)" d="M117.825 1075.5 L125.464 1075.5 L125.464 1049.13 L117.154 1050.8 L117.154 1046.54 L125.418 1044.87 L130.093 1044.87 L130.093 1075.5 L137.732 1075.5 L137.732 1079.43 L117.825 1079.43 L117.825 1075.5 Z" fill="#000000" fill-rule="nonzero" fill-opacity="1" /><path clip-path="url(#clip280)" d="M157.177 1047.95 Q153.566 1047.95 151.737 1051.52 Q149.931 1055.06 149.931 1062.19 Q149.931 1069.29 151.737 1072.86 Q153.566 1076.4 157.177 1076.4 Q160.811 1076.4 162.616 1072.86 Q164.445 1069.29 164.445 1062.19 Q164.445 1055.06 162.616 1051.52 Q160.811 1047.95 157.177 1047.95 M157.177 1044.25 Q162.987 1044.25 166.042 1048.85 Q169.121 1053.44 169.121 1062.19 Q169.121 1070.91 166.042 1075.52 Q162.987 1080.1 157.177 1080.1 Q151.366 1080.1 148.288 1075.52 Q145.232 1070.91 145.232 1062.19 Q145.232 1053.44 148.288 1048.85 Q151.366 1044.25 157.177 1044.25 Z" fill="#000000" fill-rule="nonzero" fill-opacity="1" /><path clip-path="url(#clip280)" d="M121.043 753.413 L137.362 753.413 L137.362 757.348 L115.418 757.348 L115.418 753.413 Q118.08 750.658 122.663 746.029 Q127.269 741.376 128.45 740.033 Q130.695 737.51 131.575 735.774 Q132.478 734.015 132.478 732.325 Q132.478 729.57 130.533 727.834 Q128.612 726.098 125.51 726.098 Q123.311 726.098 120.857 726.862 Q118.427 727.626 115.649 729.177 L115.649 724.455 Q118.473 723.32 120.927 722.742 Q123.38 722.163 125.418 722.163 Q130.788 722.163 133.982 724.848 Q137.177 727.533 137.177 732.024 Q137.177 734.154 136.367 736.075 Q135.579 737.973 133.473 740.566 Q132.894 741.237 129.792 744.454 Q126.691 747.649 121.043 753.413 Z" fill="#000000" fill-rule="nonzero" fill-opacity="1" /><path clip-path="url(#clip280)" d="M157.177 725.867 Q153.566 725.867 151.737 729.431 Q149.931 732.973 149.931 740.103 Q149.931 747.209 151.737 750.774 Q153.566 754.316 157.177 754.316 Q160.811 754.316 162.616 750.774 Q164.445 747.209 164.445 740.103 Q164.445 732.973 162.616 729.431 Q160.811 725.867 157.177 725.867 M157.177 722.163 Q162.987 722.163 166.042 726.769 Q169.121 731.353 169.121 740.103 Q169.121 748.829 166.042 753.436 Q162.987 758.019 157.177 758.019 Q151.366 758.019 148.288 753.436 Q145.232 748.829 145.232 740.103 Q145.232 731.353 148.288 726.769 Q151.366 722.163 157.177 722.163 Z" fill="#000000" fill-rule="nonzero" fill-opacity="1" /><path clip-path="url(#clip280)" d="M131.181 416.629 Q134.538 417.346 136.413 419.615 Q138.311 421.883 138.311 425.216 Q138.311 430.332 134.792 433.133 Q131.274 435.934 124.793 435.934 Q122.617 435.934 120.302 435.494 Q118.01 435.078 115.556 434.221 L115.556 429.707 Q117.501 430.841 119.816 431.42 Q122.13 431.999 124.654 431.999 Q129.052 431.999 131.343 430.263 Q133.658 428.527 133.658 425.216 Q133.658 422.161 131.505 420.448 Q129.376 418.712 125.556 418.712 L121.529 418.712 L121.529 414.869 L125.742 414.869 Q129.191 414.869 131.019 413.504 Q132.848 412.115 132.848 409.522 Q132.848 406.86 130.95 405.448 Q129.075 404.013 125.556 404.013 Q123.635 404.013 121.436 404.43 Q119.237 404.846 116.598 405.726 L116.598 401.559 Q119.26 400.818 121.575 400.448 Q123.913 400.078 125.973 400.078 Q131.297 400.078 134.399 402.508 Q137.501 404.916 137.501 409.036 Q137.501 411.906 135.857 413.897 Q134.214 415.865 131.181 416.629 Z" fill="#000000" fill-rule="nonzero" fill-opacity="1" /><path clip-path="url(#clip280)" d="M157.177 403.781 Q153.566 403.781 151.737 407.346 Q149.931 410.888 149.931 418.017 Q149.931 425.124 151.737 428.689 Q153.566 432.23 157.177 432.23 Q160.811 432.23 162.616 428.689 Q164.445 425.124 164.445 418.017 Q164.445 410.888 162.616 407.346 Q160.811 403.781 157.177 403.781 M157.177 400.078 Q162.987 400.078 166.042 404.684 Q169.121 409.267 169.121 418.017 Q169.121 426.744 166.042 431.351 Q162.987 435.934 157.177 435.934 Q151.366 435.934 148.288 431.351 Q145.232 426.744 145.232 418.017 Q145.232 409.267 148.288 404.684 Q151.366 400.078 157.177 400.078 Z" fill="#000000" fill-rule="nonzero" fill-opacity="1" /><path clip-path="url(#clip280)" d="M129.862 82.6916 L118.056 101.141 L129.862 101.141 L129.862 82.6916 M128.635 78.6175 L134.515 78.6175 L134.515 101.141 L139.445 101.141 L139.445 105.029 L134.515 105.029 L134.515 113.178 L129.862 113.178 L129.862 105.029 L114.26 105.029 L114.26 100.516 L128.635 78.6175 Z" fill="#000000" fill-rule="nonzero" fill-opacity="1" /><path clip-path="url(#clip280)" d="M157.177 81.6962 Q153.566 81.6962 151.737 85.261 Q149.931 88.8027 149.931 95.9322 Q149.931 103.039 151.737 106.603 Q153.566 110.145 157.177 110.145 Q160.811 110.145 162.616 106.603 Q164.445 103.039 164.445 95.9322 Q164.445 88.8027 162.616 85.261 Q160.811 81.6962 157.177 81.6962 M157.177 77.9925 Q162.987 77.9925 166.042 82.599 Q169.121 87.1823 169.121 95.9322 Q169.121 104.659 166.042 109.266 Q162.987 113.849 157.177 113.849 Q151.366 113.849 148.288 109.266 Q145.232 104.659 145.232 95.9322 Q145.232 87.1823 148.288 82.599 Q151.366 77.9925 157.177 77.9925 Z" fill="#000000" fill-rule="nonzero" fill-opacity="1" /><path clip-path="url(#clip280)" d="M21.7677 1026.76 L39.6235 1026.76 L39.6235 1018.68 Q39.6235 1014.19 37.3 1011.74 Q34.9765 1009.29 30.6797 1009.29 Q26.4147 1009.29 24.0912 1011.74 Q21.7677 1014.19 21.7677 1018.68 L21.7677 1026.76 M16.4842 1033.19 L16.4842 1018.68 Q16.4842 1010.69 20.1126 1006.61 Q23.7092 1002.51 30.6797 1002.51 Q37.7138 1002.51 41.3104 1006.61 Q44.907 1010.69 44.907 1018.68 L44.907 1026.76 L64.0042 1026.76 L64.0042 1033.19 L16.4842 1033.19 Z" fill="#000000" fill-rule="nonzero" fill-opacity="1" /><path clip-path="url(#clip280)" d="M33.8307 974.626 Q33.2578 975.613 33.0032 976.791 Q32.7167 977.936 32.7167 979.337 Q32.7167 984.302 35.9632 986.976 Q39.1779 989.617 45.2253 989.617 L64.0042 989.617 L64.0042 995.506 L28.3562 995.506 L28.3562 989.617 L33.8944 989.617 Q30.6479 987.771 29.0883 984.811 Q27.4968 981.851 27.4968 977.618 Q27.4968 977.013 27.5923 976.281 Q27.656 975.549 27.8151 974.658 L33.8307 974.626 Z" fill="#000000" fill-rule="nonzero" fill-opacity="1" /><path clip-path="url(#clip280)" d="M32.4621 956.102 Q32.4621 960.813 36.1542 963.55 Q39.8145 966.287 46.212 966.287 Q52.6095 966.287 56.3017 963.582 Q59.9619 960.844 59.9619 956.102 Q59.9619 951.423 56.2698 948.686 Q52.5777 945.949 46.212 945.949 Q39.8781 945.949 36.186 948.686 Q32.4621 951.423 32.4621 956.102 M27.4968 956.102 Q27.4968 948.463 32.4621 944.103 Q37.4273 939.742 46.212 939.742 Q54.9649 939.742 59.9619 944.103 Q64.9272 948.463 64.9272 956.102 Q64.9272 963.773 59.9619 968.133 Q54.9649 972.462 46.212 972.462 Q37.4273 972.462 32.4621 968.133 Q27.4968 963.773 27.4968 956.102 Z" fill="#000000" fill-rule="nonzero" fill-opacity="1" /><path clip-path="url(#clip280)" d="M46.212 904.444 Q39.7508 904.444 36.0905 907.118 Q32.3984 909.76 32.3984 914.407 Q32.3984 919.054 36.0905 921.727 Q39.7508 924.369 46.212 924.369 Q52.6732 924.369 56.3653 921.727 Q60.0256 919.054 60.0256 914.407 Q60.0256 909.76 56.3653 907.118 Q52.6732 904.444 46.212 904.444 M33.7671 924.369 Q30.5842 922.523 29.0564 919.722 Q27.4968 916.889 27.4968 912.974 Q27.4968 906.481 32.6531 902.439 Q37.8093 898.365 46.212 898.365 Q54.6147 898.365 59.771 902.439 Q64.9272 906.481 64.9272 912.974 Q64.9272 916.889 63.3994 919.722 Q61.8398 922.523 58.657 924.369 L64.0042 924.369 L64.0042 930.257 L14.479 930.257 L14.479 924.369 L33.7671 924.369 Z" fill="#000000" fill-rule="nonzero" fill-opacity="1" /><path clip-path="url(#clip280)" d="M46.0847 872.457 Q46.0847 879.554 47.7079 882.292 Q49.3312 885.029 53.2461 885.029 Q56.3653 885.029 58.2114 882.992 Q60.0256 880.923 60.0256 877.39 Q60.0256 872.52 56.5881 869.592 Q53.1188 866.632 47.3897 866.632 L46.0847 866.632 L46.0847 872.457 M43.6657 860.776 L64.0042 860.776 L64.0042 866.632 L58.5933 866.632 Q61.8398 868.637 63.3994 871.629 Q64.9272 874.621 64.9272 878.95 Q64.9272 884.424 61.8716 887.671 Q58.7843 890.885 53.6281 890.885 Q47.6125 890.885 44.5569 886.875 Q41.5014 882.833 41.5014 874.844 L41.5014 866.632 L40.9285 866.632 Q36.8862 866.632 34.6901 869.306 Q32.4621 871.947 32.4621 876.753 Q32.4621 879.809 33.1941 882.705 Q33.9262 885.602 35.3903 888.275 L29.9795 888.275 Q28.7381 885.061 28.1334 882.037 Q27.4968 879.013 27.4968 876.149 Q27.4968 868.414 31.5072 864.595 Q35.5176 860.776 43.6657 860.776 Z" fill="#000000" fill-rule="nonzero" fill-opacity="1" /><path clip-path="url(#clip280)" d="M46.212 823.122 Q39.7508 823.122 36.0905 825.796 Q32.3984 828.438 32.3984 833.085 Q32.3984 837.732 36.0905 840.405 Q39.7508 843.047 46.212 843.047 Q52.6732 843.047 56.3653 840.405 Q60.0256 837.732 60.0256 833.085 Q60.0256 828.438 56.3653 825.796 Q52.6732 823.122 46.212 823.122 M33.7671 843.047 Q30.5842 841.201 29.0564 838.4 Q27.4968 835.567 27.4968 831.652 Q27.4968 825.159 32.6531 821.117 Q37.8093 817.043 46.212 817.043 Q54.6147 817.043 59.771 821.117 Q64.9272 825.159 64.9272 831.652 Q64.9272 835.567 63.3994 838.4 Q61.8398 841.201 58.657 843.047 L64.0042 843.047 L64.0042 848.935 L14.479 848.935 L14.479 843.047 L33.7671 843.047 Z" fill="#000000" fill-rule="nonzero" fill-opacity="1" /><path clip-path="url(#clip280)" d="M28.3562 807.335 L28.3562 801.479 L64.0042 801.479 L64.0042 807.335 L28.3562 807.335 M14.479 807.335 L14.479 801.479 L21.895 801.479 L21.895 807.335 L14.479 807.335 Z" fill="#000000" fill-rule="nonzero" fill-opacity="1" /><path clip-path="url(#clip280)" d="M14.479 789.225 L14.479 783.369 L64.0042 783.369 L64.0042 789.225 L14.479 789.225 Z" fill="#000000" fill-rule="nonzero" fill-opacity="1" /><path clip-path="url(#clip280)" d="M28.3562 771.115 L28.3562 765.258 L64.0042 765.258 L64.0042 771.115 L28.3562 771.115 M14.479 771.115 L14.479 765.258 L21.895 765.258 L21.895 771.115 L14.479 771.115 Z" fill="#000000" fill-rule="nonzero" fill-opacity="1" /><path clip-path="url(#clip280)" d="M18.2347 747.211 L28.3562 747.211 L28.3562 735.148 L32.9077 735.148 L32.9077 747.211 L52.2594 747.211 Q56.6199 747.211 57.8613 746.034 Q59.1026 744.824 59.1026 741.164 L59.1026 735.148 L64.0042 735.148 L64.0042 741.164 Q64.0042 747.943 61.4897 750.521 Q58.9434 753.1 52.2594 753.1 L32.9077 753.1 L32.9077 757.396 L28.3562 757.396 L28.3562 753.1 L18.2347 753.1 L18.2347 747.211 Z" fill="#000000" fill-rule="nonzero" fill-opacity="1" /><path clip-path="url(#clip280)" d="M67.3143 712.614 Q73.68 715.096 75.6216 717.452 Q77.5631 719.807 77.5631 723.754 L77.5631 728.432 L72.6615 728.432 L72.6615 724.995 Q72.6615 722.576 71.5157 721.239 Q70.3699 719.902 66.1048 718.279 L63.4312 717.229 L28.3562 731.647 L28.3562 725.441 L56.238 714.301 L28.3562 703.161 L28.3562 696.954 L67.3143 712.614 Z" fill="#000000" fill-rule="nonzero" fill-opacity="1" /><path clip-path="url(#clip280)" d="M33.7671 644.692 L14.479 644.692 L14.479 638.835 L64.0042 638.835 L64.0042 644.692 L58.657 644.692 Q61.8398 646.538 63.3994 649.37 Q64.9272 652.171 64.9272 656.118 Q64.9272 662.579 59.771 666.653 Q54.6147 670.696 46.212 670.696 Q37.8093 670.696 32.6531 666.653 Q27.4968 662.579 27.4968 656.118 Q27.4968 652.171 29.0564 649.37 Q30.5842 646.538 33.7671 644.692 M46.212 664.648 Q52.6732 664.648 56.3653 662.006 Q60.0256 659.333 60.0256 654.686 Q60.0256 650.039 56.3653 647.365 Q52.6732 644.692 46.212 644.692 Q39.7508 644.692 36.0905 647.365 Q32.3984 650.039 32.3984 654.686 Q32.3984 659.333 36.0905 662.006 Q39.7508 664.648 46.212 664.648 Z" fill="#000000" fill-rule="nonzero" fill-opacity="1" /><path clip-path="url(#clip280)" d="M44.7161 596.28 L47.5806 596.28 L47.5806 623.207 Q53.6281 622.825 56.8109 619.579 Q59.9619 616.301 59.9619 610.476 Q59.9619 607.102 59.1344 603.951 Q58.3069 600.768 56.6518 597.649 L62.1899 597.649 Q63.5267 600.8 64.227 604.11 Q64.9272 607.42 64.9272 610.826 Q64.9272 619.356 59.9619 624.353 Q54.9967 629.318 46.5303 629.318 Q37.7774 629.318 32.6531 624.608 Q27.4968 619.865 27.4968 611.845 Q27.4968 604.651 32.1438 600.482 Q36.7589 596.28 44.7161 596.28 M42.9973 602.137 Q38.1912 602.201 35.3266 604.842 Q32.4621 607.452 32.4621 611.781 Q32.4621 616.683 35.2312 619.643 Q38.0002 622.571 43.0292 623.016 L42.9973 602.137 Z" fill="#000000" fill-rule="nonzero" fill-opacity="1" /><path clip-path="url(#clip280)" d="M42.4881 557.036 L64.0042 557.036 L64.0042 562.892 L42.679 562.892 Q37.6183 562.892 35.1038 564.866 Q32.5894 566.839 32.5894 570.786 Q32.5894 575.528 35.6131 578.265 Q38.6368 581.003 43.8567 581.003 L64.0042 581.003 L64.0042 586.891 L28.3562 586.891 L28.3562 581.003 L33.8944 581.003 Q30.6797 578.902 29.0883 576.069 Q27.4968 573.205 27.4968 569.481 Q27.4968 563.338 31.3163 560.187 Q35.1038 557.036 42.4881 557.036 Z" fill="#000000" fill-rule="nonzero" fill-opacity="1" /><path clip-path="url(#clip280)" d="M29.4065 522.629 L34.9447 522.629 Q33.6716 525.112 33.035 527.785 Q32.3984 530.459 32.3984 533.324 Q32.3984 537.684 33.7352 539.88 Q35.072 542.045 37.7456 542.045 Q39.7826 542.045 40.9603 540.485 Q42.1061 538.925 43.1565 534.215 L43.6021 532.21 Q44.9389 525.971 47.3897 523.361 Q49.8086 520.719 54.1691 520.719 Q59.1344 520.719 62.0308 524.666 Q64.9272 528.581 64.9272 535.456 Q64.9272 538.321 64.3543 541.44 Q63.8132 544.527 62.6992 547.965 L56.6518 547.965 Q58.3387 544.718 59.198 541.567 Q60.0256 538.416 60.0256 535.329 Q60.0256 531.191 58.6251 528.963 Q57.1929 526.735 54.6147 526.735 Q52.2276 526.735 50.9545 528.358 Q49.6813 529.95 48.5037 535.392 L48.0262 537.429 Q46.8804 542.872 44.5251 545.291 Q42.138 547.71 38.0002 547.71 Q32.9713 547.71 30.2341 544.145 Q27.4968 540.58 27.4968 534.024 Q27.4968 530.777 27.9743 527.913 Q28.4517 525.048 29.4065 522.629 Z" fill="#000000" fill-rule="nonzero" fill-opacity="1" /><path clip-path="url(#clip280)" d="M28.3562 511.394 L28.3562 505.537 L64.0042 505.537 L64.0042 511.394 L28.3562 511.394 M14.479 511.394 L14.479 505.537 L21.895 505.537 L21.895 511.394 L14.479 511.394 Z" fill="#000000" fill-rule="nonzero" fill-opacity="1" /><path clip-path="url(#clip280)" d="M18.2347 487.49 L28.3562 487.49 L28.3562 475.427 L32.9077 475.427 L32.9077 487.49 L52.2594 487.49 Q56.6199 487.49 57.8613 486.313 Q59.1026 485.103 59.1026 481.443 L59.1026 475.427 L64.0042 475.427 L64.0042 481.443 Q64.0042 488.223 61.4897 490.801 Q58.9434 493.379 52.2594 493.379 L32.9077 493.379 L32.9077 497.676 L28.3562 497.676 L28.3562 493.379 L18.2347 493.379 L18.2347 487.49 Z" fill="#000000" fill-rule="nonzero" fill-opacity="1" /><path clip-path="url(#clip280)" d="M67.3143 452.893 Q73.68 455.376 75.6216 457.731 Q77.5631 460.086 77.5631 464.033 L77.5631 468.712 L72.6615 468.712 L72.6615 465.274 Q72.6615 462.855 71.5157 461.518 Q70.3699 460.182 66.1048 458.558 L63.4312 457.508 L28.3562 471.926 L28.3562 465.72 L56.238 454.58 L28.3562 443.44 L28.3562 437.233 L67.3143 452.893 Z" fill="#000000" fill-rule="nonzero" fill-opacity="1" /><polyline clip-path="url(#clip282)" style="stroke:#009af9; stroke-linecap:round; stroke-linejoin:round; stroke-width:4; stroke-opacity:1; fill:none" points="265.903,1384.22 450.091,1384.24 470.557,1384.22 511.487,1384.23 531.953,1384.21 552.418,1384.21 593.349,1384.21 613.814,1384.22 634.28,1384.21 654.745,1384.21 675.21,1384.22 695.676,1384.15 716.141,1384.16 736.606,1384.2 757.072,1383.87 777.537,1384.11 798.002,1384.19 818.468,1384.1 838.933,1384.17 859.399,1384.14 879.864,1384.08 900.329,1384.13 920.795,1383.99 941.26,1384 961.725,1384 982.191,1383.6 1002.66,1383.65 1023.12,1383.71 1043.59,1383.4 1064.05,1383.39 1084.52,1383.22 1104.98,1383.4 1125.45,1382.88 1145.91,1382.95 1166.38,1382.75 1186.84,1382.28 1207.31,1381.9 1227.78,1380.9 1248.24,1381.24 1268.71,1380.41 1289.17,1380.22 1309.64,1378.77 1330.1,1377.46 1350.57,1376.39 1371.03,1374.05 1391.5,1369.7 1411.96,1367.09 1432.43,1366.85 1452.89,1363.44 1473.36,1361.68 1493.82,1358.25 1514.29,1356.93 1534.76,1350.54 1555.22,1348.4 1575.69,1307.84 1596.15,1289.89 1616.62,1249.39 1637.08,1242.72 1657.55,1239.02 1678.01,1230.62 1698.48,1228.82 1718.94,1228.46 1739.41,1230.35 1759.87,1239.6 1780.34,1253.17 1800.81,1253.85 1821.27,1220.61 1841.74,1231.94 1862.2,1249.18 1882.67,1266.77 1903.13,1263.32 1923.6,1299.02 1944.06,1320.44 1964.53,1334.03 1984.99,1347.3 2005.46,1357.32 2025.92,1366.08 2046.39,1371.75 2066.85,1375.34 2087.32,1378.5 2107.79,1380.52 2128.25,1382.32 2148.72,1383.39 2169.18,1383.61 2189.65,1383.61 2210.11,1384.1 2230.58,1384.1 2251.04,1384.17 2271.51,1384.19 2291.97,1384.23 "/>
<polyline clip-path="url(#clip282)" style="stroke:#e26f46; stroke-linecap:round; stroke-linejoin:round; stroke-width:4; stroke-opacity:1; fill:none" points="265.903,1384.24 450.091,1384.24 470.557,1384.24 511.487,1384.24 531.953,1384.24 552.418,1384.24 593.349,1384.24 613.814,1384.24 634.28,1384.24 654.745,1384.24 675.21,1384.24 695.676,1384.24 716.141,1384.24 736.606,1384.24 757.072,1384.24 777.537,1384.24 798.002,1384.24 818.468,1384.24 838.933,1384.24 859.399,1384.24 879.864,1384.24 900.329,1384.24 920.795,1384.24 941.26,1384.24 961.725,1384.24 982.191,1384.24 1002.66,1384.24 1023.12,1384.24 1043.59,1384.23 1064.05,1384.23 1084.52,1384.21 1104.98,1384.19 1125.45,1384.15 1145.91,1384.07 1166.38,1383.93 1186.84,1383.7 1207.31,1383.3 1227.78,1382.63 1248.24,1381.56 1268.71,1379.86 1289.17,1377.22 1309.64,1373.22 1330.1,1367.29 1350.57,1358.69 1371.03,1346.5 1391.5,1329.62 1411.96,1306.78 1432.43,1276.61 1452.89,1237.71 1473.36,1188.77 1493.82,1128.75 1514.29,1057.04 1534.76,973.656 1555.22,879.424 1575.69,776.094 1596.15,666.403 1616.62,554.033 1637.08,443.456 1657.55,339.674 1678.01,247.859 1698.48,172.934 1718.94,119.138 1739.41,89.6314 1759.87,86.1857 1780.34,109.01 1800.81,156.729 1821.27,226.521 1841.74,314.392 1862.2,415.556 1882.67,524.864 1903.13,637.232 1923.6,748.017 1944.06,853.314 1964.53,950.129 1984.99,1036.46 2005.46,1111.24 2025.92,1174.27 2046.39,1226.01 2066.85,1267.41 2087.32,1299.71 2107.79,1324.32 2128.25,1342.62 2148.72,1355.92 2169.18,1365.35 2189.65,1371.9 2210.11,1376.34 2230.58,1379.28 2251.04,1381.19 2271.51,1382.4 2291.97,1383.16 "/>
<path clip-path="url(#clip280)" d="M276.709 248.629 L825.776 248.629 L825.776 93.1086 L276.709 93.1086  Z" fill="#ffffff" fill-rule="evenodd" fill-opacity="1"/>
<polyline clip-path="url(#clip280)" style="stroke:#ffffff; stroke-linecap:round; stroke-linejoin:round; stroke-width:4; stroke-opacity:1; fill:none" points="276.709,248.629 825.776,248.629 825.776,93.1086 276.709,93.1086 276.709,248.629 "/>
<polyline clip-path="url(#clip280)" style="stroke:#009af9; stroke-linecap:round; stroke-linejoin:round; stroke-width:4; stroke-opacity:1; fill:none" points="300.571,144.949 443.747,144.949 "/>
<path clip-path="url(#clip280)" d="M467.61 127.669 L472.286 127.669 L472.286 141.835 L489.276 141.835 L489.276 127.669 L493.952 127.669 L493.952 162.229 L489.276 162.229 L489.276 145.77 L472.286 145.77 L472.286 162.229 L467.61 162.229 L467.61 127.669 Z" fill="#000000" fill-rule="nonzero" fill-opacity="1" /><path clip-path="url(#clip280)" d="M503.072 136.303 L507.332 136.303 L507.332 162.229 L503.072 162.229 L503.072 136.303 M503.072 126.21 L507.332 126.21 L507.332 131.604 L503.072 131.604 L503.072 126.21 Z" fill="#000000" fill-rule="nonzero" fill-opacity="1" /><path clip-path="url(#clip280)" d="M532.771 137.067 L532.771 141.094 Q530.966 140.169 529.021 139.706 Q527.077 139.243 524.994 139.243 Q521.822 139.243 520.225 140.215 Q518.651 141.187 518.651 143.131 Q518.651 144.613 519.785 145.469 Q520.92 146.303 524.345 147.067 L525.804 147.391 Q530.341 148.363 532.239 150.145 Q534.16 151.905 534.16 155.076 Q534.16 158.687 531.29 160.793 Q528.443 162.9 523.443 162.9 Q521.359 162.9 519.091 162.483 Q516.846 162.09 514.346 161.28 L514.346 156.881 Q516.707 158.108 518.998 158.733 Q521.29 159.335 523.535 159.335 Q526.545 159.335 528.165 158.317 Q529.785 157.275 529.785 155.4 Q529.785 153.664 528.605 152.738 Q527.447 151.812 523.489 150.956 L522.008 150.608 Q518.049 149.775 516.29 148.062 Q514.531 146.326 514.531 143.317 Q514.531 139.659 517.123 137.669 Q519.716 135.678 524.484 135.678 Q526.845 135.678 528.929 136.025 Q531.012 136.372 532.771 137.067 Z" fill="#000000" fill-rule="nonzero" fill-opacity="1" /><path clip-path="url(#clip280)" d="M545.156 128.942 L545.156 136.303 L553.929 136.303 L553.929 139.613 L545.156 139.613 L545.156 153.687 Q545.156 156.858 546.012 157.761 Q546.892 158.664 549.554 158.664 L553.929 158.664 L553.929 162.229 L549.554 162.229 Q544.623 162.229 542.748 160.4 Q540.873 158.548 540.873 153.687 L540.873 139.613 L537.748 139.613 L537.748 136.303 L540.873 136.303 L540.873 128.942 L545.156 128.942 Z" fill="#000000" fill-rule="nonzero" fill-opacity="1" /><path clip-path="url(#clip280)" d="M569.577 139.289 Q566.151 139.289 564.16 141.974 Q562.169 144.636 562.169 149.289 Q562.169 153.942 564.137 156.627 Q566.128 159.289 569.577 159.289 Q572.979 159.289 574.97 156.604 Q576.961 153.918 576.961 149.289 Q576.961 144.682 574.97 141.997 Q572.979 139.289 569.577 139.289 M569.577 135.678 Q575.132 135.678 578.304 139.289 Q581.475 142.9 581.475 149.289 Q581.475 155.655 578.304 159.289 Q575.132 162.9 569.577 162.9 Q563.998 162.9 560.827 159.289 Q557.679 155.655 557.679 149.289 Q557.679 142.9 560.827 139.289 Q563.998 135.678 569.577 135.678 Z" fill="#000000" fill-rule="nonzero" fill-opacity="1" /><path clip-path="url(#clip280)" d="M605.595 148.965 Q605.595 144.335 603.674 141.789 Q601.776 139.243 598.327 139.243 Q594.901 139.243 592.979 141.789 Q591.081 144.335 591.081 148.965 Q591.081 153.571 592.979 156.118 Q594.901 158.664 598.327 158.664 Q601.776 158.664 603.674 156.118 Q605.595 153.571 605.595 148.965 M609.854 159.011 Q609.854 165.631 606.914 168.849 Q603.975 172.09 597.91 172.09 Q595.665 172.09 593.674 171.742 Q591.683 171.418 589.808 170.724 L589.808 166.58 Q591.683 167.599 593.512 168.085 Q595.34 168.571 597.239 168.571 Q601.428 168.571 603.512 166.372 Q605.595 164.196 605.595 159.775 L605.595 157.668 Q604.276 159.96 602.215 161.094 Q600.155 162.229 597.285 162.229 Q592.516 162.229 589.6 158.594 Q586.683 154.96 586.683 148.965 Q586.683 142.946 589.6 139.312 Q592.516 135.678 597.285 135.678 Q600.155 135.678 602.215 136.812 Q604.276 137.946 605.595 140.238 L605.595 136.303 L609.854 136.303 L609.854 159.011 Z" fill="#000000" fill-rule="nonzero" fill-opacity="1" /><path clip-path="url(#clip280)" d="M633.65 140.284 Q632.933 139.868 632.076 139.682 Q631.243 139.474 630.225 139.474 Q626.613 139.474 624.669 141.835 Q622.748 144.173 622.748 148.571 L622.748 162.229 L618.465 162.229 L618.465 136.303 L622.748 136.303 L622.748 140.331 Q624.09 137.969 626.243 136.835 Q628.396 135.678 631.475 135.678 Q631.914 135.678 632.447 135.747 Q632.979 135.794 633.627 135.909 L633.65 140.284 Z" fill="#000000" fill-rule="nonzero" fill-opacity="1" /><path clip-path="url(#clip280)" d="M649.9 149.196 Q644.738 149.196 642.748 150.377 Q640.757 151.557 640.757 154.405 Q640.757 156.673 642.238 158.016 Q643.743 159.335 646.312 159.335 Q649.854 159.335 651.984 156.835 Q654.136 154.312 654.136 150.145 L654.136 149.196 L649.9 149.196 M658.396 147.437 L658.396 162.229 L654.136 162.229 L654.136 158.293 Q652.678 160.655 650.502 161.789 Q648.326 162.9 645.178 162.9 Q641.197 162.9 638.836 160.678 Q636.498 158.432 636.498 154.682 Q636.498 150.307 639.414 148.085 Q642.354 145.863 648.164 145.863 L654.136 145.863 L654.136 145.446 Q654.136 142.507 652.192 140.909 Q650.271 139.289 646.775 139.289 Q644.553 139.289 642.447 139.821 Q640.34 140.354 638.396 141.419 L638.396 137.483 Q640.734 136.581 642.933 136.141 Q645.132 135.678 647.215 135.678 Q652.84 135.678 655.618 138.594 Q658.396 141.511 658.396 147.437 Z" fill="#000000" fill-rule="nonzero" fill-opacity="1" /><path clip-path="url(#clip280)" d="M687.354 141.28 Q688.951 138.409 691.173 137.044 Q693.396 135.678 696.405 135.678 Q700.456 135.678 702.655 138.525 Q704.854 141.349 704.854 146.581 L704.854 162.229 L700.571 162.229 L700.571 146.719 Q700.571 142.993 699.252 141.187 Q697.933 139.382 695.224 139.382 Q691.914 139.382 689.993 141.581 Q688.071 143.78 688.071 147.576 L688.071 162.229 L683.789 162.229 L683.789 146.719 Q683.789 142.969 682.47 141.187 Q681.15 139.382 678.396 139.382 Q675.132 139.382 673.21 141.604 Q671.289 143.803 671.289 147.576 L671.289 162.229 L667.007 162.229 L667.007 136.303 L671.289 136.303 L671.289 140.331 Q672.747 137.946 674.785 136.812 Q676.822 135.678 679.622 135.678 Q682.447 135.678 684.414 137.113 Q686.405 138.548 687.354 141.28 Z" fill="#000000" fill-rule="nonzero" fill-opacity="1" /><polyline clip-path="url(#clip280)" style="stroke:#e26f46; stroke-linecap:round; stroke-linejoin:round; stroke-width:4; stroke-opacity:1; fill:none" points="300.571,196.789 443.747,196.789 "/>
<path clip-path="url(#clip280)" d="M472.286 183.351 L472.286 210.226 L477.934 210.226 Q485.086 210.226 488.397 206.985 Q491.73 203.745 491.73 196.754 Q491.73 189.809 488.397 186.592 Q485.086 183.351 477.934 183.351 L472.286 183.351 M467.61 179.509 L477.216 179.509 Q487.262 179.509 491.961 183.698 Q496.66 187.865 496.66 196.754 Q496.66 205.689 491.938 209.879 Q487.216 214.069 477.216 214.069 L467.61 214.069 L467.61 179.509 Z" fill="#000000" fill-rule="nonzero" fill-opacity="1" /><path clip-path="url(#clip280)" d="M503.929 188.143 L508.188 188.143 L508.188 214.069 L503.929 214.069 L503.929 188.143 M503.929 178.05 L508.188 178.05 L508.188 183.444 L503.929 183.444 L503.929 178.05 Z" fill="#000000" fill-rule="nonzero" fill-opacity="1" /><path clip-path="url(#clip280)" d="M533.628 188.907 L533.628 192.934 Q531.822 192.009 529.878 191.546 Q527.933 191.083 525.85 191.083 Q522.679 191.083 521.082 192.055 Q519.508 193.027 519.508 194.971 Q519.508 196.453 520.642 197.309 Q521.776 198.143 525.202 198.907 L526.66 199.231 Q531.197 200.203 533.095 201.985 Q535.017 203.745 535.017 206.916 Q535.017 210.527 532.146 212.633 Q529.299 214.74 524.299 214.74 Q522.216 214.74 519.947 214.323 Q517.702 213.93 515.202 213.12 L515.202 208.721 Q517.563 209.948 519.855 210.573 Q522.146 211.175 524.392 211.175 Q527.401 211.175 529.021 210.157 Q530.642 209.115 530.642 207.24 Q530.642 205.504 529.461 204.578 Q528.304 203.652 524.345 202.796 L522.864 202.448 Q518.906 201.615 517.146 199.902 Q515.387 198.166 515.387 195.157 Q515.387 191.499 517.98 189.509 Q520.572 187.518 525.341 187.518 Q527.702 187.518 529.785 187.865 Q531.869 188.212 533.628 188.907 Z" fill="#000000" fill-rule="nonzero" fill-opacity="1" /><path clip-path="url(#clip280)" d="M546.012 180.782 L546.012 188.143 L554.785 188.143 L554.785 191.453 L546.012 191.453 L546.012 205.527 Q546.012 208.698 546.869 209.601 Q547.748 210.504 550.41 210.504 L554.785 210.504 L554.785 214.069 L550.41 214.069 Q545.48 214.069 543.605 212.24 Q541.73 210.388 541.73 205.527 L541.73 191.453 L538.605 191.453 L538.605 188.143 L541.73 188.143 L541.73 180.782 L546.012 180.782 Z" fill="#000000" fill-rule="nonzero" fill-opacity="1" /><path clip-path="url(#clip280)" d="M575.41 192.124 Q574.692 191.708 573.836 191.522 Q573.003 191.314 571.984 191.314 Q568.373 191.314 566.429 193.675 Q564.507 196.013 564.507 200.411 L564.507 214.069 L560.225 214.069 L560.225 188.143 L564.507 188.143 L564.507 192.171 Q565.85 189.809 568.003 188.675 Q570.155 187.518 573.234 187.518 Q573.674 187.518 574.206 187.587 Q574.739 187.634 575.387 187.749 L575.41 192.124 Z" fill="#000000" fill-rule="nonzero" fill-opacity="1" /><path clip-path="url(#clip280)" d="M579.878 188.143 L584.137 188.143 L584.137 214.069 L579.878 214.069 L579.878 188.143 M579.878 178.05 L584.137 178.05 L584.137 183.444 L579.878 183.444 L579.878 178.05 Z" fill="#000000" fill-rule="nonzero" fill-opacity="1" /><path clip-path="url(#clip280)" d="M611.66 201.129 Q611.66 196.43 609.715 193.768 Q607.794 191.083 604.415 191.083 Q601.035 191.083 599.09 193.768 Q597.169 196.43 597.169 201.129 Q597.169 205.828 599.09 208.513 Q601.035 211.175 604.415 211.175 Q607.794 211.175 609.715 208.513 Q611.66 205.828 611.66 201.129 M597.169 192.078 Q598.512 189.763 600.549 188.652 Q602.609 187.518 605.456 187.518 Q610.178 187.518 613.118 191.268 Q616.081 195.018 616.081 201.129 Q616.081 207.24 613.118 210.99 Q610.178 214.74 605.456 214.74 Q602.609 214.74 600.549 213.629 Q598.512 212.495 597.169 210.18 L597.169 214.069 L592.887 214.069 L592.887 178.05 L597.169 178.05 L597.169 192.078 Z" fill="#000000" fill-rule="nonzero" fill-opacity="1" /><path clip-path="url(#clip280)" d="M622.701 203.837 L622.701 188.143 L626.961 188.143 L626.961 203.675 Q626.961 207.356 628.396 209.208 Q629.831 211.036 632.701 211.036 Q636.15 211.036 638.141 208.837 Q640.155 206.638 640.155 202.842 L640.155 188.143 L644.414 188.143 L644.414 214.069 L640.155 214.069 L640.155 210.087 Q638.604 212.448 636.544 213.606 Q634.507 214.74 631.799 214.74 Q627.331 214.74 625.016 211.962 Q622.701 209.184 622.701 203.837 M633.419 187.518 L633.419 187.518 Z" fill="#000000" fill-rule="nonzero" fill-opacity="1" /><path clip-path="url(#clip280)" d="M657.4 180.782 L657.4 188.143 L666.173 188.143 L666.173 191.453 L657.4 191.453 L657.4 205.527 Q657.4 208.698 658.257 209.601 Q659.136 210.504 661.798 210.504 L666.173 210.504 L666.173 214.069 L661.798 214.069 Q656.868 214.069 654.993 212.24 Q653.118 210.388 653.118 205.527 L653.118 191.453 L649.993 191.453 L649.993 188.143 L653.118 188.143 L653.118 180.782 L657.4 180.782 Z" fill="#000000" fill-rule="nonzero" fill-opacity="1" /><path clip-path="url(#clip280)" d="M671.775 188.143 L676.034 188.143 L676.034 214.069 L671.775 214.069 L671.775 188.143 M671.775 178.05 L676.034 178.05 L676.034 183.444 L671.775 183.444 L671.775 178.05 Z" fill="#000000" fill-rule="nonzero" fill-opacity="1" /><path clip-path="url(#clip280)" d="M694.993 191.129 Q691.567 191.129 689.576 193.814 Q687.585 196.476 687.585 201.129 Q687.585 205.782 689.553 208.467 Q691.544 211.129 694.993 211.129 Q698.395 211.129 700.386 208.444 Q702.377 205.758 702.377 201.129 Q702.377 196.522 700.386 193.837 Q698.395 191.129 694.993 191.129 M694.993 187.518 Q700.548 187.518 703.72 191.129 Q706.891 194.74 706.891 201.129 Q706.891 207.495 703.72 211.129 Q700.548 214.74 694.993 214.74 Q689.414 214.74 686.243 211.129 Q683.095 207.495 683.095 201.129 Q683.095 194.74 686.243 191.129 Q689.414 187.518 694.993 187.518 Z" fill="#000000" fill-rule="nonzero" fill-opacity="1" /><path clip-path="url(#clip280)" d="M735.502 198.421 L735.502 214.069 L731.243 214.069 L731.243 198.559 Q731.243 194.879 729.807 193.05 Q728.372 191.222 725.502 191.222 Q722.053 191.222 720.062 193.421 Q718.071 195.62 718.071 199.416 L718.071 214.069 L713.789 214.069 L713.789 188.143 L718.071 188.143 L718.071 192.171 Q719.599 189.833 721.659 188.675 Q723.743 187.518 726.451 187.518 Q730.918 187.518 733.21 190.296 Q735.502 193.05 735.502 198.421 Z" fill="#000000" fill-rule="nonzero" fill-opacity="1" /><path clip-path="url(#clip280)" d="M772.191 178.05 L772.191 181.592 L768.117 181.592 Q765.826 181.592 764.923 182.518 Q764.043 183.444 764.043 185.851 L764.043 188.143 L771.057 188.143 L771.057 191.453 L764.043 191.453 L764.043 214.069 L759.761 214.069 L759.761 191.453 L755.687 191.453 L755.687 188.143 L759.761 188.143 L759.761 186.337 Q759.761 182.009 761.775 180.041 Q763.789 178.05 768.164 178.05 L772.191 178.05 Z" fill="#000000" fill-rule="nonzero" fill-opacity="1" /><path clip-path="url(#clip280)" d="M775.756 188.143 L780.015 188.143 L780.015 214.069 L775.756 214.069 L775.756 188.143 M775.756 178.05 L780.015 178.05 L780.015 183.444 L775.756 183.444 L775.756 178.05 Z" fill="#000000" fill-rule="nonzero" fill-opacity="1" /><path clip-path="url(#clip280)" d="M793.14 180.782 L793.14 188.143 L801.913 188.143 L801.913 191.453 L793.14 191.453 L793.14 205.527 Q793.14 208.698 793.997 209.601 Q794.876 210.504 797.538 210.504 L801.913 210.504 L801.913 214.069 L797.538 214.069 Q792.608 214.069 790.733 212.24 Q788.858 210.388 788.858 205.527 L788.858 191.453 L785.733 191.453 L785.733 188.143 L788.858 188.143 L788.858 180.782 L793.14 180.782 Z" fill="#000000" fill-rule="nonzero" fill-opacity="1" /></svg>
