<?xml version="1.0" encoding="utf-8"?>
<svg xmlns="http://www.w3.org/2000/svg" xmlns:xlink="http://www.w3.org/1999/xlink" width="600" height="400" viewBox="0 0 2400 1600">
<defs>
  <clipPath id="clip240">
    <rect x="0" y="0" width="2400" height="1600"/>
  </clipPath>
</defs>
<path clip-path="url(#clip240)" d="M0 1600 L2400 1600 L2400 8.88178e-14 L0 8.88178e-14  Z" fill="#ffffff" fill-rule="evenodd" fill-opacity="1"/>
<defs>
  <clipPath id="clip241">
    <rect x="480" y="0" width="1681" height="1600"/>
  </clipPath>
</defs>
<path clip-path="url(#clip240)" d="M249.357 1552.76 L2352.76 1552.76 L2352.76 47.2441 L249.357 47.2441  Z" fill="#ffffff" fill-rule="evenodd" fill-opacity="1"/>
<defs>
  <clipPath id="clip242">
    <rect x="249" y="47" width="2104" height="1507"/>
  </clipPath>
</defs>
<polyline clip-path="url(#clip242)" style="stroke:#000000; stroke-linecap:round; stroke-linejoin:round; stroke-width:2; stroke-opacity:0.1; fill:none" points="249.357,1431.84 2352.76,1431.84 "/>
<polyline clip-path="url(#clip242)" style="stroke:#000000; stroke-linecap:round; stroke-linejoin:round; stroke-width:2; stroke-opacity:0.1; fill:none" points="249.357,1075.87 2352.76,1075.87 "/>
<polyline clip-path="url(#clip242)" style="stroke:#000000; stroke-linecap:round; stroke-linejoin:round; stroke-width:2; stroke-opacity:0.1; fill:none" points="249.357,719.908 2352.76,719.908 "/>
<polyline clip-path="url(#clip242)" style="stroke:#000000; stroke-linecap:round; stroke-linejoin:round; stroke-width:2; stroke-opacity:0.1; fill:none" points="249.357,363.945 2352.76,363.945 "/>
<polyline clip-path="url(#clip242)" style="stroke:#000000; stroke-linecap:round; stroke-linejoin:round; stroke-width:2; stroke-opacity:0.1; fill:none" points="249.357,1431.84 2352.76,1431.84 "/>
<polyline clip-path="url(#clip242)" style="stroke:#000000; stroke-linecap:round; stroke-linejoin:round; stroke-width:2; stroke-opacity:0.1; fill:none" points="249.357,1075.87 2352.76,1075.87 "/>
<polyline clip-path="url(#clip242)" style="stroke:#000000; stroke-linecap:round; stroke-linejoin:round; stroke-width:2; stroke-opacity:0.1; fill:none" points="249.357,719.908 2352.76,719.908 "/>
<polyline clip-path="url(#clip242)" style="stroke:#000000; stroke-linecap:round; stroke-linejoin:round; stroke-width:2; stroke-opacity:0.1; fill:none" points="249.357,363.945 2352.76,363.945 "/>
<polyline clip-path="url(#clip240)" style="stroke:#000000; stroke-linecap:round; stroke-linejoin:round; stroke-width:4; stroke-opacity:1; fill:none" points="249.357,1552.76 2352.76,1552.76 "/>
<polyline clip-path="url(#clip240)" style="stroke:#000000; stroke-linecap:round; stroke-linejoin:round; stroke-width:4; stroke-opacity:1; fill:none" points="249.357,47.2441 2352.76,47.2441 "/>
<polyline clip-path="url(#clip240)" style="stroke:#000000; stroke-linecap:round; stroke-linejoin:round; stroke-width:4; stroke-opacity:1; fill:none" points="249.357,1552.76 249.357,47.2441 "/>
<polyline clip-path="url(#clip240)" style="stroke:#000000; stroke-linecap:round; stroke-linejoin:round; stroke-width:4; stroke-opacity:1; fill:none" points="2352.76,1552.76 2352.76,47.2441 "/>
<polyline clip-path="url(#clip240)" style="stroke:#000000; stroke-linecap:round; stroke-linejoin:round; stroke-width:4; stroke-opacity:1; fill:none" points="249.357,1431.84 268.254,1431.84 "/>
<polyline clip-path="url(#clip240)" style="stroke:#000000; stroke-linecap:round; stroke-linejoin:round; stroke-width:4; stroke-opacity:1; fill:none" points="249.357,1075.87 268.254,1075.87 "/>
<polyline clip-path="url(#clip240)" style="stroke:#000000; stroke-linecap:round; stroke-linejoin:round; stroke-width:4; stroke-opacity:1; fill:none" points="249.357,719.908 268.254,719.908 "/>
<polyline clip-path="url(#clip240)" style="stroke:#000000; stroke-linecap:round; stroke-linejoin:round; stroke-width:4; stroke-opacity:1; fill:none" points="249.357,363.945 268.254,363.945 "/>
<polyline clip-path="url(#clip240)" style="stroke:#000000; stroke-linecap:round; stroke-linejoin:round; stroke-width:4; stroke-opacity:1; fill:none" points="2352.76,1431.84 2333.86,1431.84 "/>
<polyline clip-path="url(#clip240)" style="stroke:#000000; stroke-linecap:round; stroke-linejoin:round; stroke-width:4; stroke-opacity:1; fill:none" points="2352.76,1075.87 2333.86,1075.87 "/>
<polyline clip-path="url(#clip240)" style="stroke:#000000; stroke-linecap:round; stroke-linejoin:round; stroke-width:4; stroke-opacity:1; fill:none" points="2352.76,719.908 2333.86,719.908 "/>
<polyline clip-path="url(#clip240)" style="stroke:#000000; stroke-linecap:round; stroke-linejoin:round; stroke-width:4; stroke-opacity:1; fill:none" points="2352.76,363.945 2333.86,363.945 "/>
<path clip-path="url(#clip240)" d="M126.598 1429.97 Q123.45 1429.97 121.598 1432.12 Q119.769 1434.28 119.769 1438.03 Q119.769 1441.75 121.598 1443.93 Q123.45 1446.08 126.598 1446.08 Q129.746 1446.08 131.575 1443.93 Q133.427 1441.75 133.427 1438.03 Q133.427 1434.28 131.575 1432.12 Q129.746 1429.97 126.598 1429.97 M135.88 1415.32 L135.88 1419.58 Q134.121 1418.74 132.316 1418.31 Q130.533 1417.87 128.774 1417.87 Q124.144 1417.87 121.691 1420.99 Q119.26 1424.12 118.913 1430.43 Q120.279 1428.42 122.339 1427.36 Q124.399 1426.27 126.876 1426.27 Q132.084 1426.27 135.093 1429.44 Q138.126 1432.59 138.126 1438.03 Q138.126 1443.35 134.978 1446.57 Q131.83 1449.79 126.598 1449.79 Q120.603 1449.79 117.431 1445.2 Q114.26 1440.6 114.26 1431.87 Q114.26 1423.68 118.149 1418.81 Q122.038 1413.93 128.589 1413.93 Q130.348 1413.93 132.13 1414.28 Q133.936 1414.62 135.88 1415.32 Z" fill="#000000" fill-rule="nonzero" fill-opacity="1" /><path clip-path="url(#clip240)" d="M156.76 1429.97 Q153.612 1429.97 151.76 1432.12 Q149.931 1434.28 149.931 1438.03 Q149.931 1441.75 151.76 1443.93 Q153.612 1446.08 156.76 1446.08 Q159.908 1446.08 161.737 1443.93 Q163.589 1441.75 163.589 1438.03 Q163.589 1434.28 161.737 1432.12 Q159.908 1429.97 156.76 1429.97 M166.042 1415.32 L166.042 1419.58 Q164.283 1418.74 162.477 1418.31 Q160.695 1417.87 158.936 1417.87 Q154.306 1417.87 151.853 1420.99 Q149.422 1424.12 149.075 1430.43 Q150.441 1428.42 152.501 1427.36 Q154.561 1426.27 157.038 1426.27 Q162.246 1426.27 165.255 1429.44 Q168.288 1432.59 168.288 1438.03 Q168.288 1443.35 165.14 1446.57 Q161.991 1449.79 156.76 1449.79 Q150.765 1449.79 147.593 1445.2 Q144.422 1440.6 144.422 1431.87 Q144.422 1423.68 148.311 1418.81 Q152.2 1413.93 158.751 1413.93 Q160.51 1413.93 162.292 1414.28 Q164.098 1414.62 166.042 1415.32 Z" fill="#000000" fill-rule="nonzero" fill-opacity="1" /><path clip-path="url(#clip240)" d="M176.343 1443.24 L181.227 1443.24 L181.227 1449.12 L176.343 1449.12 L176.343 1443.24 Z" fill="#000000" fill-rule="nonzero" fill-opacity="1" /><path clip-path="url(#clip240)" d="M201.412 1417.63 Q197.801 1417.63 195.973 1421.2 Q194.167 1424.74 194.167 1431.87 Q194.167 1438.98 195.973 1442.54 Q197.801 1446.08 201.412 1446.08 Q205.047 1446.08 206.852 1442.54 Q208.681 1438.98 208.681 1431.87 Q208.681 1424.74 206.852 1421.2 Q205.047 1417.63 201.412 1417.63 M201.412 1413.93 Q207.223 1413.93 210.278 1418.54 Q213.357 1423.12 213.357 1431.87 Q213.357 1440.6 210.278 1445.2 Q207.223 1449.79 201.412 1449.79 Q195.602 1449.79 192.524 1445.2 Q189.468 1440.6 189.468 1431.87 Q189.468 1423.12 192.524 1418.54 Q195.602 1413.93 201.412 1413.93 Z" fill="#000000" fill-rule="nonzero" fill-opacity="1" /><path clip-path="url(#clip240)" d="M127.825 1074.01 Q124.677 1074.01 122.825 1076.16 Q120.996 1078.31 120.996 1082.06 Q120.996 1085.79 122.825 1087.97 Q124.677 1090.12 127.825 1090.12 Q130.973 1090.12 132.802 1087.97 Q134.654 1085.79 134.654 1082.06 Q134.654 1078.31 132.802 1076.16 Q130.973 1074.01 127.825 1074.01 M137.107 1059.36 L137.107 1063.61 Q135.348 1062.78 133.542 1062.34 Q131.76 1061.9 130.001 1061.9 Q125.371 1061.9 122.918 1065.03 Q120.487 1068.15 120.14 1074.47 Q121.505 1072.46 123.566 1071.39 Q125.626 1070.3 128.103 1070.3 Q133.311 1070.3 136.32 1073.48 Q139.353 1076.62 139.353 1082.06 Q139.353 1087.39 136.204 1090.61 Q133.056 1093.82 127.825 1093.82 Q121.83 1093.82 118.658 1089.24 Q115.487 1084.63 115.487 1075.91 Q115.487 1067.71 119.376 1062.85 Q123.265 1057.97 129.816 1057.97 Q131.575 1057.97 133.357 1058.31 Q135.163 1058.66 137.107 1059.36 Z" fill="#000000" fill-rule="nonzero" fill-opacity="1" /><path clip-path="url(#clip240)" d="M157.987 1074.01 Q154.839 1074.01 152.987 1076.16 Q151.158 1078.31 151.158 1082.06 Q151.158 1085.79 152.987 1087.97 Q154.839 1090.12 157.987 1090.12 Q161.135 1090.12 162.964 1087.97 Q164.815 1085.79 164.815 1082.06 Q164.815 1078.31 162.964 1076.16 Q161.135 1074.01 157.987 1074.01 M167.269 1059.36 L167.269 1063.61 Q165.51 1062.78 163.704 1062.34 Q161.922 1061.9 160.163 1061.9 Q155.533 1061.9 153.079 1065.03 Q150.649 1068.15 150.302 1074.47 Q151.667 1072.46 153.728 1071.39 Q155.788 1070.3 158.265 1070.3 Q163.473 1070.3 166.482 1073.48 Q169.514 1076.62 169.514 1082.06 Q169.514 1087.39 166.366 1090.61 Q163.218 1093.82 157.987 1093.82 Q151.991 1093.82 148.82 1089.24 Q145.649 1084.63 145.649 1075.91 Q145.649 1067.71 149.538 1062.85 Q153.427 1057.97 159.978 1057.97 Q161.737 1057.97 163.519 1058.31 Q165.325 1058.66 167.269 1059.36 Z" fill="#000000" fill-rule="nonzero" fill-opacity="1" /><path clip-path="url(#clip240)" d="M177.57 1087.27 L182.454 1087.27 L182.454 1093.15 L177.57 1093.15 L177.57 1087.27 Z" fill="#000000" fill-rule="nonzero" fill-opacity="1" /><path clip-path="url(#clip240)" d="M193.45 1089.22 L201.088 1089.22 L201.088 1062.85 L192.778 1064.52 L192.778 1060.26 L201.042 1058.59 L205.718 1058.59 L205.718 1089.22 L213.357 1089.22 L213.357 1093.15 L193.45 1093.15 L193.45 1089.22 Z" fill="#000000" fill-rule="nonzero" fill-opacity="1" /><path clip-path="url(#clip240)" d="M128.195 718.045 Q125.047 718.045 123.195 720.198 Q121.367 722.35 121.367 726.1 Q121.367 729.827 123.195 732.003 Q125.047 734.156 128.195 734.156 Q131.343 734.156 133.172 732.003 Q135.024 729.827 135.024 726.1 Q135.024 722.35 133.172 720.198 Q131.343 718.045 128.195 718.045 M137.478 703.392 L137.478 707.651 Q135.718 706.818 133.913 706.378 Q132.13 705.938 130.371 705.938 Q125.742 705.938 123.288 709.063 Q120.857 712.188 120.51 718.508 Q121.876 716.494 123.936 715.429 Q125.996 714.341 128.473 714.341 Q133.681 714.341 136.691 717.512 Q139.723 720.661 139.723 726.1 Q139.723 731.424 136.575 734.642 Q133.427 737.86 128.195 737.86 Q122.2 737.86 119.029 733.276 Q115.857 728.67 115.857 719.943 Q115.857 711.749 119.746 706.887 Q123.635 702.003 130.186 702.003 Q131.945 702.003 133.728 702.35 Q135.533 702.698 137.478 703.392 Z" fill="#000000" fill-rule="nonzero" fill-opacity="1" /><path clip-path="url(#clip240)" d="M158.357 718.045 Q155.209 718.045 153.357 720.198 Q151.528 722.35 151.528 726.1 Q151.528 729.827 153.357 732.003 Q155.209 734.156 158.357 734.156 Q161.505 734.156 163.334 732.003 Q165.186 729.827 165.186 726.1 Q165.186 722.35 163.334 720.198 Q161.505 718.045 158.357 718.045 M167.64 703.392 L167.64 707.651 Q165.88 706.818 164.075 706.378 Q162.292 705.938 160.533 705.938 Q155.903 705.938 153.45 709.063 Q151.019 712.188 150.672 718.508 Q152.038 716.494 154.098 715.429 Q156.158 714.341 158.635 714.341 Q163.843 714.341 166.852 717.512 Q169.885 720.661 169.885 726.1 Q169.885 731.424 166.737 734.642 Q163.589 737.86 158.357 737.86 Q152.362 737.86 149.191 733.276 Q146.019 728.67 146.019 719.943 Q146.019 711.749 149.908 706.887 Q153.797 702.003 160.348 702.003 Q162.107 702.003 163.89 702.35 Q165.695 702.698 167.64 703.392 Z" fill="#000000" fill-rule="nonzero" fill-opacity="1" /><path clip-path="url(#clip240)" d="M177.94 731.309 L182.825 731.309 L182.825 737.188 L177.94 737.188 L177.94 731.309 Z" fill="#000000" fill-rule="nonzero" fill-opacity="1" /><path clip-path="url(#clip240)" d="M197.037 733.253 L213.357 733.253 L213.357 737.188 L191.413 737.188 L191.413 733.253 Q194.075 730.498 198.658 725.869 Q203.264 721.216 204.445 719.874 Q206.69 717.35 207.57 715.614 Q208.473 713.855 208.473 712.165 Q208.473 709.411 206.528 707.674 Q204.607 705.938 201.505 705.938 Q199.306 705.938 196.852 706.702 Q194.422 707.466 191.644 709.017 L191.644 704.295 Q194.468 703.161 196.922 702.582 Q199.375 702.003 201.412 702.003 Q206.783 702.003 209.977 704.688 Q213.172 707.374 213.172 711.864 Q213.172 713.994 212.361 715.915 Q211.574 717.813 209.468 720.406 Q208.889 721.077 205.787 724.295 Q202.686 727.489 197.037 733.253 Z" fill="#000000" fill-rule="nonzero" fill-opacity="1" /><path clip-path="url(#clip240)" d="M127.246 362.081 Q124.098 362.081 122.246 364.234 Q120.418 366.387 120.418 370.137 Q120.418 373.864 122.246 376.04 Q124.098 378.192 127.246 378.192 Q130.394 378.192 132.223 376.04 Q134.075 373.864 134.075 370.137 Q134.075 366.387 132.223 364.234 Q130.394 362.081 127.246 362.081 M136.529 347.429 L136.529 351.688 Q134.769 350.855 132.964 350.415 Q131.181 349.975 129.422 349.975 Q124.793 349.975 122.339 353.1 Q119.908 356.225 119.561 362.544 Q120.927 360.53 122.987 359.466 Q125.047 358.378 127.524 358.378 Q132.732 358.378 135.742 361.549 Q138.774 364.697 138.774 370.137 Q138.774 375.461 135.626 378.678 Q132.478 381.896 127.246 381.896 Q121.251 381.896 118.08 377.313 Q114.908 372.706 114.908 363.979 Q114.908 355.785 118.797 350.924 Q122.686 346.04 129.237 346.04 Q130.996 346.04 132.779 346.387 Q134.584 346.734 136.529 347.429 Z" fill="#000000" fill-rule="nonzero" fill-opacity="1" /><path clip-path="url(#clip240)" d="M157.408 362.081 Q154.26 362.081 152.408 364.234 Q150.579 366.387 150.579 370.137 Q150.579 373.864 152.408 376.04 Q154.26 378.192 157.408 378.192 Q160.556 378.192 162.385 376.04 Q164.237 373.864 164.237 370.137 Q164.237 366.387 162.385 364.234 Q160.556 362.081 157.408 362.081 M166.69 347.429 L166.69 351.688 Q164.931 350.855 163.126 350.415 Q161.343 349.975 159.584 349.975 Q154.954 349.975 152.501 353.1 Q150.07 356.225 149.723 362.544 Q151.089 360.53 153.149 359.466 Q155.209 358.378 157.686 358.378 Q162.894 358.378 165.903 361.549 Q168.936 364.697 168.936 370.137 Q168.936 375.461 165.788 378.678 Q162.64 381.896 157.408 381.896 Q151.413 381.896 148.241 377.313 Q145.07 372.706 145.07 363.979 Q145.07 355.785 148.959 350.924 Q152.848 346.04 159.399 346.04 Q161.158 346.04 162.94 346.387 Q164.746 346.734 166.69 347.429 Z" fill="#000000" fill-rule="nonzero" fill-opacity="1" /><path clip-path="url(#clip240)" d="M176.991 375.345 L181.876 375.345 L181.876 381.225 L176.991 381.225 L176.991 375.345 Z" fill="#000000" fill-rule="nonzero" fill-opacity="1" /><path clip-path="url(#clip240)" d="M206.227 362.591 Q209.584 363.308 211.459 365.577 Q213.357 367.845 213.357 371.179 Q213.357 376.294 209.838 379.095 Q206.32 381.896 199.838 381.896 Q197.662 381.896 195.348 381.456 Q193.056 381.04 190.602 380.183 L190.602 375.669 Q192.547 376.804 194.862 377.382 Q197.176 377.961 199.7 377.961 Q204.098 377.961 206.389 376.225 Q208.704 374.489 208.704 371.179 Q208.704 368.123 206.551 366.41 Q204.422 364.674 200.602 364.674 L196.575 364.674 L196.575 360.831 L200.787 360.831 Q204.237 360.831 206.065 359.466 Q207.894 358.077 207.894 355.484 Q207.894 352.822 205.996 351.41 Q204.121 349.975 200.602 349.975 Q198.681 349.975 196.482 350.392 Q194.283 350.808 191.644 351.688 L191.644 347.521 Q194.306 346.781 196.621 346.41 Q198.959 346.04 201.019 346.04 Q206.343 346.04 209.445 348.47 Q212.547 350.878 212.547 354.998 Q212.547 357.868 210.903 359.859 Q209.26 361.827 206.227 362.591 Z" fill="#000000" fill-rule="nonzero" fill-opacity="1" /><path clip-path="url(#clip240)" d="M22.818 922.094 L46.4666 930.815 L46.4666 913.341 L22.818 922.094 M16.4842 925.723 L16.4842 918.434 L64.0042 900.324 L64.0042 907.008 L51.8138 911.336 L51.8138 932.757 L64.0042 937.085 L64.0042 943.865 L16.4842 925.723 Z" fill="#000000" fill-rule="nonzero" fill-opacity="1" /><path clip-path="url(#clip240)" d="M45.7664 870.182 Q39.4007 870.182 35.8996 872.824 Q32.3984 875.434 32.3984 880.176 Q32.3984 884.887 35.8996 887.528 Q39.4007 890.138 45.7664 890.138 Q52.1003 890.138 55.6014 887.528 Q59.1026 884.887 59.1026 880.176 Q59.1026 875.434 55.6014 872.824 Q52.1003 870.182 45.7664 870.182 M59.58 864.325 Q68.683 864.325 73.1071 868.368 Q77.5631 872.41 77.5631 880.749 Q77.5631 883.836 77.0857 886.574 Q76.6401 889.311 75.6852 891.889 L69.9879 891.889 Q71.3884 889.311 72.0568 886.796 Q72.7252 884.282 72.7252 881.672 Q72.7252 875.911 69.7015 873.046 Q66.7096 870.182 60.6303 870.182 L57.7339 870.182 Q60.885 871.996 62.4446 874.829 Q64.0042 877.662 64.0042 881.608 Q64.0042 888.165 59.0071 892.175 Q54.01 896.186 45.7664 896.186 Q37.491 896.186 32.4939 892.175 Q27.4968 888.165 27.4968 881.608 Q27.4968 877.662 29.0564 874.829 Q30.616 871.996 33.7671 870.182 L28.3562 870.182 L28.3562 864.325 L59.58 864.325 Z" fill="#000000" fill-rule="nonzero" fill-opacity="1" /><path clip-path="url(#clip240)" d="M44.7161 821.771 L47.5806 821.771 L47.5806 848.698 Q53.6281 848.316 56.8109 845.069 Q59.9619 841.791 59.9619 835.966 Q59.9619 832.592 59.1344 829.441 Q58.3069 826.259 56.6518 823.139 L62.1899 823.139 Q63.5267 826.29 64.227 829.601 Q64.9272 832.911 64.9272 836.316 Q64.9272 844.846 59.9619 849.843 Q54.9967 854.809 46.5303 854.809 Q37.7774 854.809 32.6531 850.098 Q27.4968 845.356 27.4968 837.335 Q27.4968 830.142 32.1438 825.972 Q36.7589 821.771 44.7161 821.771 M42.9973 827.627 Q38.1912 827.691 35.3266 830.333 Q32.4621 832.943 32.4621 837.271 Q32.4621 842.173 35.2312 845.133 Q38.0002 848.061 43.0292 848.507 L42.9973 827.627 Z" fill="#000000" fill-rule="nonzero" fill-opacity="1" /><path clip-path="url(#clip240)" d="M14.5426 777.37 Q21.8632 781.635 29.0246 783.704 Q36.186 785.773 43.5384 785.773 Q50.8908 785.773 58.1159 783.704 Q65.3091 781.603 72.5979 777.37 L72.5979 782.462 Q65.1182 787.237 57.8931 789.624 Q50.668 791.979 43.5384 791.979 Q36.4406 791.979 29.2474 789.624 Q22.0542 787.269 14.5426 782.462 L14.5426 777.37 Z" fill="#000000" fill-rule="nonzero" fill-opacity="1" /><path clip-path="url(#clip240)" d="M16.4842 765.752 L16.4842 756.172 L48.8219 744.045 L16.4842 731.855 L16.4842 722.275 L64.0042 722.275 L64.0042 728.545 L22.277 728.545 L54.8694 740.799 L54.8694 747.26 L22.277 759.514 L64.0042 759.514 L64.0042 765.752 L16.4842 765.752 Z" fill="#000000" fill-rule="nonzero" fill-opacity="1" /><path clip-path="url(#clip240)" d="M46.0847 693.565 Q46.0847 700.663 47.7079 703.4 Q49.3312 706.138 53.2461 706.138 Q56.3653 706.138 58.2114 704.101 Q60.0256 702.032 60.0256 698.499 Q60.0256 693.629 56.5881 690.701 Q53.1188 687.741 47.3897 687.741 L46.0847 687.741 L46.0847 693.565 M43.6657 681.884 L64.0042 681.884 L64.0042 687.741 L58.5933 687.741 Q61.8398 689.746 63.3994 692.738 Q64.9272 695.73 64.9272 700.058 Q64.9272 705.533 61.8716 708.779 Q58.7843 711.994 53.6281 711.994 Q47.6125 711.994 44.5569 707.984 Q41.5014 703.941 41.5014 695.953 L41.5014 687.741 L40.9285 687.741 Q36.8862 687.741 34.6901 690.414 Q32.4621 693.056 32.4621 697.862 Q32.4621 700.918 33.1941 703.814 Q33.9262 706.711 35.3903 709.384 L29.9795 709.384 Q28.7381 706.169 28.1334 703.146 Q27.4968 700.122 27.4968 697.257 Q27.4968 689.523 31.5072 685.704 Q35.5176 681.884 43.6657 681.884 Z" fill="#000000" fill-rule="nonzero" fill-opacity="1" /><path clip-path="url(#clip240)" d="M14.5426 670.744 L14.5426 665.652 Q22.0542 660.877 29.2474 658.522 Q36.4406 656.135 43.5384 656.135 Q50.668 656.135 57.8931 658.522 Q65.1182 660.877 72.5979 665.652 L72.5979 670.744 Q65.3091 666.511 58.1159 664.442 Q50.8908 662.342 43.5384 662.342 Q36.186 662.342 29.0246 664.442 Q21.8632 666.511 14.5426 670.744 Z" fill="#000000" fill-rule="nonzero" fill-opacity="1" /><polyline clip-path="url(#clip242)" style="stroke:#009af9; stroke-linecap:round; stroke-linejoin:round; stroke-width:4; stroke-opacity:1; fill:none" points="308.887,1510.15 308.887,1040.28 "/>
<polyline clip-path="url(#clip242)" style="stroke:#009af9; stroke-linecap:round; stroke-linejoin:round; stroke-width:4; stroke-opacity:1; fill:none" points="461.528,1364.2 461.528,1086.55 "/>
<polyline clip-path="url(#clip242)" style="stroke:#009af9; stroke-linecap:round; stroke-linejoin:round; stroke-width:4; stroke-opacity:1; fill:none" points="614.17,1399.8 614.17,1029.6 "/>
<polyline clip-path="url(#clip242)" style="stroke:#009af9; stroke-linecap:round; stroke-linejoin:round; stroke-width:4; stroke-opacity:1; fill:none" points="766.811,1449.63 766.811,944.165 "/>
<polyline clip-path="url(#clip242)" style="stroke:#009af9; stroke-linecap:round; stroke-linejoin:round; stroke-width:4; stroke-opacity:1; fill:none" points="919.453,1328.61 919.453,979.762 "/>
<polyline clip-path="url(#clip242)" style="stroke:#009af9; stroke-linecap:round; stroke-linejoin:round; stroke-width:4; stroke-opacity:1; fill:none" points="1072.09,1317.93 1072.09,940.606 "/>
<polyline clip-path="url(#clip242)" style="stroke:#009af9; stroke-linecap:round; stroke-linejoin:round; stroke-width:4; stroke-opacity:1; fill:none" points="1224.74,1467.43 1224.74,783.982 "/>
<polyline clip-path="url(#clip242)" style="stroke:#009af9; stroke-linecap:round; stroke-linejoin:round; stroke-width:4; stroke-opacity:1; fill:none" points="1377.38,1332.17 1377.38,833.817 "/>
<polyline clip-path="url(#clip242)" style="stroke:#009af9; stroke-linecap:round; stroke-linejoin:round; stroke-width:4; stroke-opacity:1; fill:none" points="1530.02,1307.25 1530.02,816.018 "/>
<polyline clip-path="url(#clip242)" style="stroke:#009af9; stroke-linecap:round; stroke-linejoin:round; stroke-width:4; stroke-opacity:1; fill:none" points="1682.66,1239.61 1682.66,755.505 "/>
<polyline clip-path="url(#clip242)" style="stroke:#009af9; stroke-linecap:round; stroke-linejoin:round; stroke-width:4; stroke-opacity:1; fill:none" points="1835.3,1325.05 1835.3,470.734 "/>
<polyline clip-path="url(#clip242)" style="stroke:#009af9; stroke-linecap:round; stroke-linejoin:round; stroke-width:4; stroke-opacity:1; fill:none" points="1987.94,1289.45 1987.94,506.33 "/>
<polyline clip-path="url(#clip242)" style="stroke:#009af9; stroke-linecap:round; stroke-linejoin:round; stroke-width:4; stroke-opacity:1; fill:none" points="2140.58,1040.28 2140.58,748.385 "/>
<polyline clip-path="url(#clip242)" style="stroke:#009af9; stroke-linecap:round; stroke-linejoin:round; stroke-width:4; stroke-opacity:1; fill:none" points="2293.23,609.56 2293.23,89.8529 "/>
<line clip-path="url(#clip242)" x1="324.887" y1="1510.15" x2="292.887" y2="1510.15" style="stroke:#009af9; stroke-width:4; stroke-opacity:1"/>
<line clip-path="url(#clip242)" x1="324.887" y1="1040.28" x2="292.887" y2="1040.28" style="stroke:#009af9; stroke-width:4; stroke-opacity:1"/>
<line clip-path="url(#clip242)" x1="477.528" y1="1364.2" x2="445.528" y2="1364.2" style="stroke:#009af9; stroke-width:4; stroke-opacity:1"/>
<line clip-path="url(#clip242)" x1="477.528" y1="1086.55" x2="445.528" y2="1086.55" style="stroke:#009af9; stroke-width:4; stroke-opacity:1"/>
<line clip-path="url(#clip242)" x1="630.17" y1="1399.8" x2="598.17" y2="1399.8" style="stroke:#009af9; stroke-width:4; stroke-opacity:1"/>
<line clip-path="url(#clip242)" x1="630.17" y1="1029.6" x2="598.17" y2="1029.6" style="stroke:#009af9; stroke-width:4; stroke-opacity:1"/>
<line clip-path="url(#clip242)" x1="782.811" y1="1449.63" x2="750.811" y2="1449.63" style="stroke:#009af9; stroke-width:4; stroke-opacity:1"/>
<line clip-path="url(#clip242)" x1="782.811" y1="944.165" x2="750.811" y2="944.165" style="stroke:#009af9; stroke-width:4; stroke-opacity:1"/>
<line clip-path="url(#clip242)" x1="935.453" y1="1328.61" x2="903.453" y2="1328.61" style="stroke:#009af9; stroke-width:4; stroke-opacity:1"/>
<line clip-path="url(#clip242)" x1="935.453" y1="979.762" x2="903.453" y2="979.762" style="stroke:#009af9; stroke-width:4; stroke-opacity:1"/>
<line clip-path="url(#clip242)" x1="1088.09" y1="1317.93" x2="1056.09" y2="1317.93" style="stroke:#009af9; stroke-width:4; stroke-opacity:1"/>
<line clip-path="url(#clip242)" x1="1088.09" y1="940.606" x2="1056.09" y2="940.606" style="stroke:#009af9; stroke-width:4; stroke-opacity:1"/>
<line clip-path="url(#clip242)" x1="1240.74" y1="1467.43" x2="1208.74" y2="1467.43" style="stroke:#009af9; stroke-width:4; stroke-opacity:1"/>
<line clip-path="url(#clip242)" x1="1240.74" y1="783.982" x2="1208.74" y2="783.982" style="stroke:#009af9; stroke-width:4; stroke-opacity:1"/>
<line clip-path="url(#clip242)" x1="1393.38" y1="1332.17" x2="1361.38" y2="1332.17" style="stroke:#009af9; stroke-width:4; stroke-opacity:1"/>
<line clip-path="url(#clip242)" x1="1393.38" y1="833.817" x2="1361.38" y2="833.817" style="stroke:#009af9; stroke-width:4; stroke-opacity:1"/>
<line clip-path="url(#clip242)" x1="1546.02" y1="1307.25" x2="1514.02" y2="1307.25" style="stroke:#009af9; stroke-width:4; stroke-opacity:1"/>
<line clip-path="url(#clip242)" x1="1546.02" y1="816.018" x2="1514.02" y2="816.018" style="stroke:#009af9; stroke-width:4; stroke-opacity:1"/>
<line clip-path="url(#clip242)" x1="1698.66" y1="1239.61" x2="1666.66" y2="1239.61" style="stroke:#009af9; stroke-width:4; stroke-opacity:1"/>
<line clip-path="url(#clip242)" x1="1698.66" y1="755.505" x2="1666.66" y2="755.505" style="stroke:#009af9; stroke-width:4; stroke-opacity:1"/>
<line clip-path="url(#clip242)" x1="1851.3" y1="1325.05" x2="1819.3" y2="1325.05" style="stroke:#009af9; stroke-width:4; stroke-opacity:1"/>
<line clip-path="url(#clip242)" x1="1851.3" y1="470.734" x2="1819.3" y2="470.734" style="stroke:#009af9; stroke-width:4; stroke-opacity:1"/>
<line clip-path="url(#clip242)" x1="2003.94" y1="1289.45" x2="1971.94" y2="1289.45" style="stroke:#009af9; stroke-width:4; stroke-opacity:1"/>
<line clip-path="url(#clip242)" x1="2003.94" y1="506.33" x2="1971.94" y2="506.33" style="stroke:#009af9; stroke-width:4; stroke-opacity:1"/>
<line clip-path="url(#clip242)" x1="2156.58" y1="1040.28" x2="2124.58" y2="1040.28" style="stroke:#009af9; stroke-width:4; stroke-opacity:1"/>
<line clip-path="url(#clip242)" x1="2156.58" y1="748.385" x2="2124.58" y2="748.385" style="stroke:#009af9; stroke-width:4; stroke-opacity:1"/>
<line clip-path="url(#clip242)" x1="2309.23" y1="609.56" x2="2277.23" y2="609.56" style="stroke:#009af9; stroke-width:4; stroke-opacity:1"/>
<line clip-path="url(#clip242)" x1="2309.23" y1="89.8529" x2="2277.23" y2="89.8529" style="stroke:#009af9; stroke-width:4; stroke-opacity:1"/>
<circle clip-path="url(#clip242)" cx="308.887" cy="1275.21" r="14.4" fill="#009af9" fill-rule="evenodd" fill-opacity="1" stroke="none"/>
<circle clip-path="url(#clip242)" cx="461.528" cy="1225.38" r="14.4" fill="#009af9" fill-rule="evenodd" fill-opacity="1" stroke="none"/>
<circle clip-path="url(#clip242)" cx="614.17" cy="1214.7" r="14.4" fill="#009af9" fill-rule="evenodd" fill-opacity="1" stroke="none"/>
<circle clip-path="url(#clip242)" cx="766.811" cy="1196.9" r="14.4" fill="#009af9" fill-rule="evenodd" fill-opacity="1" stroke="none"/>
<circle clip-path="url(#clip242)" cx="919.453" cy="1154.18" r="14.4" fill="#009af9" fill-rule="evenodd" fill-opacity="1" stroke="none"/>
<circle clip-path="url(#clip242)" cx="1072.09" cy="1129.27" r="14.4" fill="#009af9" fill-rule="evenodd" fill-opacity="1" stroke="none"/>
<circle clip-path="url(#clip242)" cx="1224.74" cy="1125.71" r="14.4" fill="#009af9" fill-rule="evenodd" fill-opacity="1" stroke="none"/>
<circle clip-path="url(#clip242)" cx="1377.38" cy="1082.99" r="14.4" fill="#009af9" fill-rule="evenodd" fill-opacity="1" stroke="none"/>
<circle clip-path="url(#clip242)" cx="1530.02" cy="1061.63" r="14.4" fill="#009af9" fill-rule="evenodd" fill-opacity="1" stroke="none"/>
<circle clip-path="url(#clip242)" cx="1682.66" cy="997.56" r="14.4" fill="#009af9" fill-rule="evenodd" fill-opacity="1" stroke="none"/>
<circle clip-path="url(#clip242)" cx="1835.3" cy="897.89" r="14.4" fill="#009af9" fill-rule="evenodd" fill-opacity="1" stroke="none"/>
<circle clip-path="url(#clip242)" cx="1987.94" cy="897.89" r="14.4" fill="#009af9" fill-rule="evenodd" fill-opacity="1" stroke="none"/>
<circle clip-path="url(#clip242)" cx="2140.58" cy="894.33" r="14.4" fill="#009af9" fill-rule="evenodd" fill-opacity="1" stroke="none"/>
<circle clip-path="url(#clip242)" cx="2293.23" cy="349.706" r="14.4" fill="#009af9" fill-rule="evenodd" fill-opacity="1" stroke="none"/>
<path clip-path="url(#clip242)" d="M308.887 1273.64 L461.528 1273.64 L614.17 1273.64 L766.811 1273.64 L919.453 1273.64 L1072.09 1273.64 L1224.74 1273.64 L1377.38 1273.64 L1530.02 1273.64 L1682.66 1273.64 L1835.3 1273.64 L1987.94 1273.64 L2140.58 1273.64 L2293.23 1273.64 L2293.23 1100.32 L2140.58 1100.32 L1987.94 1100.32 L1835.3 1100.32 L1682.66 1100.32 L1530.02 1100.32 L1377.38 1100.32 L1224.74 1100.32 L1072.09 1100.32 L919.453 1100.32 L766.811 1100.32 L614.17 1100.32 L461.528 1100.32 L308.887 1100.32  Z" fill="#e26f46" fill-rule="evenodd" fill-opacity="0.6"/>
<polyline clip-path="url(#clip242)" style="stroke:#e26f46; stroke-linecap:round; stroke-linejoin:round; stroke-width:4; stroke-opacity:0; fill:none" points="308.887,1273.64 461.528,1273.64 614.17,1273.64 766.811,1273.64 919.453,1273.64 1072.09,1273.64 1224.74,1273.64 1377.38,1273.64 1530.02,1273.64 1682.66,1273.64 1835.3,1273.64 1987.94,1273.64 2140.58,1273.64 2293.23,1273.64 "/>
<polyline clip-path="url(#clip242)" style="stroke:#000000; stroke-linecap:round; stroke-linejoin:round; stroke-width:4; stroke-opacity:1; fill:none" stroke-dasharray="2, 4" points="308.887,1175.49 461.528,1175.49 614.17,1175.49 766.811,1175.49 919.453,1175.49 1072.09,1175.49 1224.74,1175.49 1377.38,1175.49 1530.02,1175.49 1682.66,1175.49 1835.3,1175.49 1987.94,1175.49 2140.58,1175.49 2293.23,1175.49 "/>
<path clip-path="url(#clip240)" d="M319.47 252.948 L1325.69 252.948 L1325.69 97.4278 L319.47 97.4278  Z" fill="#ffffff" fill-rule="evenodd" fill-opacity="1"/>
<polyline clip-path="url(#clip240)" style="stroke:#ffffff; stroke-linecap:round; stroke-linejoin:round; stroke-width:4; stroke-opacity:1; fill:none" points="319.47,252.948 1325.69,252.948 1325.69,97.4278 319.47,97.4278 319.47,252.948 "/>
<circle clip-path="url(#clip240)" cx="412.955" cy="149.268" r="20.48" fill="#009af9" fill-rule="evenodd" fill-opacity="1" stroke="none"/>
<path clip-path="url(#clip240)" d="M511.115 135.83 L511.115 162.705 L516.763 162.705 Q523.916 162.705 527.226 159.465 Q530.559 156.224 530.559 149.233 Q530.559 142.289 527.226 139.071 Q523.916 135.83 516.763 135.83 L511.115 135.83 M506.439 131.988 L516.045 131.988 Q526.092 131.988 530.791 136.178 Q535.49 140.344 535.49 149.233 Q535.49 158.168 530.768 162.358 Q526.045 166.548 516.045 166.548 L506.439 166.548 L506.439 131.988 Z" fill="#000000" fill-rule="nonzero" fill-opacity="1" /><path clip-path="url(#clip240)" d="M554.541 153.515 Q549.379 153.515 547.388 154.696 Q545.397 155.877 545.397 158.724 Q545.397 160.992 546.879 162.335 Q548.383 163.654 550.953 163.654 Q554.494 163.654 556.624 161.154 Q558.777 158.631 558.777 154.465 L558.777 153.515 L554.541 153.515 M563.036 151.756 L563.036 166.548 L558.777 166.548 L558.777 162.613 Q557.318 164.974 555.142 166.108 Q552.966 167.219 549.818 167.219 Q545.837 167.219 543.476 164.997 Q541.138 162.752 541.138 159.002 Q541.138 154.627 544.054 152.404 Q546.994 150.182 552.804 150.182 L558.777 150.182 L558.777 149.766 Q558.777 146.826 556.832 145.228 Q554.911 143.608 551.416 143.608 Q549.193 143.608 547.087 144.141 Q544.98 144.673 543.036 145.738 L543.036 141.803 Q545.374 140.9 547.573 140.46 Q549.772 139.997 551.855 139.997 Q557.48 139.997 560.258 142.914 Q563.036 145.83 563.036 151.756 Z" fill="#000000" fill-rule="nonzero" fill-opacity="1" /><path clip-path="url(#clip240)" d="M576.022 133.261 L576.022 140.622 L584.795 140.622 L584.795 143.932 L576.022 143.932 L576.022 158.006 Q576.022 161.177 576.878 162.08 Q577.758 162.983 580.42 162.983 L584.795 162.983 L584.795 166.548 L580.42 166.548 Q575.49 166.548 573.615 164.719 Q571.74 162.867 571.74 158.006 L571.74 143.932 L568.615 143.932 L568.615 140.622 L571.74 140.622 L571.74 133.261 L576.022 133.261 Z" fill="#000000" fill-rule="nonzero" fill-opacity="1" /><path clip-path="url(#clip240)" d="M602.179 153.515 Q597.017 153.515 595.026 154.696 Q593.036 155.877 593.036 158.724 Q593.036 160.992 594.517 162.335 Q596.022 163.654 598.591 163.654 Q602.133 163.654 604.263 161.154 Q606.415 158.631 606.415 154.465 L606.415 153.515 L602.179 153.515 M610.675 151.756 L610.675 166.548 L606.415 166.548 L606.415 162.613 Q604.957 164.974 602.781 166.108 Q600.605 167.219 597.457 167.219 Q593.476 167.219 591.114 164.997 Q588.776 162.752 588.776 159.002 Q588.776 154.627 591.693 152.404 Q594.633 150.182 600.443 150.182 L606.415 150.182 L606.415 149.766 Q606.415 146.826 604.471 145.228 Q602.55 143.608 599.054 143.608 Q596.832 143.608 594.726 144.141 Q592.619 144.673 590.675 145.738 L590.675 141.803 Q593.013 140.9 595.212 140.46 Q597.411 139.997 599.494 139.997 Q605.119 139.997 607.897 142.914 Q610.675 145.83 610.675 151.756 Z" fill="#000000" fill-rule="nonzero" fill-opacity="1" /><path clip-path="url(#clip240)" d="M644.748 130.576 Q641.647 135.9 640.142 141.108 Q638.637 146.316 638.637 151.664 Q638.637 157.011 640.142 162.265 Q641.67 167.497 644.748 172.798 L641.045 172.798 Q637.573 167.358 635.836 162.103 Q634.123 156.849 634.123 151.664 Q634.123 146.502 635.836 141.27 Q637.549 136.039 641.045 130.576 L644.748 130.576 Z" fill="#000000" fill-rule="nonzero" fill-opacity="1" /><path clip-path="url(#clip240)" d="M663.058 143.608 Q659.633 143.608 657.642 146.293 Q655.651 148.955 655.651 153.608 Q655.651 158.261 657.619 160.946 Q659.609 163.608 663.058 163.608 Q666.461 163.608 668.452 160.923 Q670.443 158.238 670.443 153.608 Q670.443 149.002 668.452 146.316 Q666.461 143.608 663.058 143.608 M663.058 139.997 Q668.614 139.997 671.785 143.608 Q674.957 147.219 674.957 153.608 Q674.957 159.974 671.785 163.608 Q668.614 167.219 663.058 167.219 Q657.48 167.219 654.309 163.608 Q651.16 159.974 651.16 153.608 Q651.16 147.219 654.309 143.608 Q657.48 139.997 663.058 139.997 Z" fill="#000000" fill-rule="nonzero" fill-opacity="1" /><path clip-path="url(#clip240)" d="M700.628 153.608 Q700.628 148.909 698.683 146.247 Q696.762 143.562 693.382 143.562 Q690.003 143.562 688.058 146.247 Q686.137 148.909 686.137 153.608 Q686.137 158.307 688.058 160.992 Q690.003 163.654 693.382 163.654 Q696.762 163.654 698.683 160.992 Q700.628 158.307 700.628 153.608 M686.137 144.557 Q687.48 142.242 689.517 141.131 Q691.577 139.997 694.424 139.997 Q699.146 139.997 702.086 143.747 Q705.049 147.497 705.049 153.608 Q705.049 159.719 702.086 163.469 Q699.146 167.219 694.424 167.219 Q691.577 167.219 689.517 166.108 Q687.48 164.974 686.137 162.659 L686.137 166.548 L681.855 166.548 L681.855 130.529 L686.137 130.529 L686.137 144.557 Z" fill="#000000" fill-rule="nonzero" fill-opacity="1" /><path clip-path="url(#clip240)" d="M728.637 141.386 L728.637 145.414 Q726.831 144.488 724.887 144.025 Q722.942 143.562 720.859 143.562 Q717.688 143.562 716.091 144.534 Q714.517 145.506 714.517 147.451 Q714.517 148.932 715.651 149.789 Q716.785 150.622 720.211 151.386 L721.669 151.71 Q726.206 152.682 728.104 154.465 Q730.026 156.224 730.026 159.395 Q730.026 163.006 727.155 165.113 Q724.308 167.219 719.308 167.219 Q717.225 167.219 714.956 166.802 Q712.711 166.409 710.211 165.599 L710.211 161.201 Q712.572 162.427 714.864 163.052 Q717.155 163.654 719.401 163.654 Q722.41 163.654 724.03 162.636 Q725.651 161.594 725.651 159.719 Q725.651 157.983 724.47 157.057 Q723.313 156.131 719.354 155.275 L717.873 154.928 Q713.915 154.094 712.155 152.381 Q710.396 150.645 710.396 147.636 Q710.396 143.978 712.989 141.988 Q715.581 139.997 720.35 139.997 Q722.711 139.997 724.794 140.344 Q726.878 140.691 728.637 141.386 Z" fill="#000000" fill-rule="nonzero" fill-opacity="1" /><path clip-path="url(#clip240)" d="M758.984 152.52 L758.984 154.603 L739.401 154.603 Q739.678 159.002 742.04 161.316 Q744.424 163.608 748.66 163.608 Q751.114 163.608 753.405 163.006 Q755.72 162.404 757.989 161.201 L757.989 165.228 Q755.697 166.201 753.289 166.71 Q750.882 167.219 748.405 167.219 Q742.202 167.219 738.567 163.608 Q734.956 159.997 734.956 153.84 Q734.956 147.474 738.382 143.747 Q741.831 139.997 747.665 139.997 Q752.896 139.997 755.928 143.377 Q758.984 146.733 758.984 152.52 M754.725 151.27 Q754.678 147.775 752.757 145.691 Q750.859 143.608 747.711 143.608 Q744.146 143.608 741.993 145.622 Q739.864 147.636 739.54 151.293 L754.725 151.27 Z" fill="#000000" fill-rule="nonzero" fill-opacity="1" /><path clip-path="url(#clip240)" d="M780.998 144.603 Q780.28 144.187 779.424 144.002 Q778.59 143.793 777.572 143.793 Q773.961 143.793 772.016 146.154 Q770.095 148.492 770.095 152.89 L770.095 166.548 L765.813 166.548 L765.813 140.622 L770.095 140.622 L770.095 144.65 Q771.438 142.289 773.59 141.154 Q775.743 139.997 778.822 139.997 Q779.262 139.997 779.794 140.066 Q780.326 140.113 780.975 140.229 L780.998 144.603 Z" fill="#000000" fill-rule="nonzero" fill-opacity="1" /><path clip-path="url(#clip240)" d="M782.41 140.622 L786.924 140.622 L795.025 162.381 L803.127 140.622 L807.641 140.622 L797.919 166.548 L792.132 166.548 L782.41 140.622 Z" fill="#000000" fill-rule="nonzero" fill-opacity="1" /><path clip-path="url(#clip240)" d="M835.696 152.52 L835.696 154.603 L816.113 154.603 Q816.391 159.002 818.752 161.316 Q821.136 163.608 825.372 163.608 Q827.826 163.608 830.118 163.006 Q832.433 162.404 834.701 161.201 L834.701 165.228 Q832.409 166.201 830.002 166.71 Q827.595 167.219 825.118 167.219 Q818.914 167.219 815.28 163.608 Q811.669 159.997 811.669 153.84 Q811.669 147.474 815.095 143.747 Q818.544 139.997 824.377 139.997 Q829.609 139.997 832.641 143.377 Q835.696 146.733 835.696 152.52 M831.437 151.27 Q831.391 147.775 829.47 145.691 Q827.571 143.608 824.423 143.608 Q820.859 143.608 818.706 145.622 Q816.576 147.636 816.252 151.293 L831.437 151.27 Z" fill="#000000" fill-rule="nonzero" fill-opacity="1" /><path clip-path="url(#clip240)" d="M859.747 144.557 L859.747 130.529 L864.006 130.529 L864.006 166.548 L859.747 166.548 L859.747 162.659 Q858.405 164.974 856.344 166.108 Q854.307 167.219 851.437 167.219 Q846.738 167.219 843.775 163.469 Q840.835 159.719 840.835 153.608 Q840.835 147.497 843.775 143.747 Q846.738 139.997 851.437 139.997 Q854.307 139.997 856.344 141.131 Q858.405 142.242 859.747 144.557 M845.233 153.608 Q845.233 158.307 847.155 160.992 Q849.099 163.654 852.479 163.654 Q855.858 163.654 857.803 160.992 Q859.747 158.307 859.747 153.608 Q859.747 148.909 857.803 146.247 Q855.858 143.562 852.479 143.562 Q849.099 143.562 847.155 146.247 Q845.233 148.909 845.233 153.608 Z" fill="#000000" fill-rule="nonzero" fill-opacity="1" /><path clip-path="url(#clip240)" d="M899.631 153.515 Q894.469 153.515 892.479 154.696 Q890.488 155.877 890.488 158.724 Q890.488 160.992 891.969 162.335 Q893.474 163.654 896.043 163.654 Q899.585 163.654 901.715 161.154 Q903.867 158.631 903.867 154.465 L903.867 153.515 L899.631 153.515 M908.127 151.756 L908.127 166.548 L903.867 166.548 L903.867 162.613 Q902.409 164.974 900.233 166.108 Q898.057 167.219 894.909 167.219 Q890.928 167.219 888.567 164.997 Q886.229 162.752 886.229 159.002 Q886.229 154.627 889.145 152.404 Q892.085 150.182 897.895 150.182 L903.867 150.182 L903.867 149.766 Q903.867 146.826 901.923 145.228 Q900.002 143.608 896.506 143.608 Q894.284 143.608 892.178 144.141 Q890.071 144.673 888.127 145.738 L888.127 141.803 Q890.465 140.9 892.664 140.46 Q894.863 139.997 896.946 139.997 Q902.571 139.997 905.349 142.914 Q908.127 145.83 908.127 151.756 Z" fill="#000000" fill-rule="nonzero" fill-opacity="1" /><path clip-path="url(#clip240)" d="M933.96 153.284 Q933.96 148.654 932.039 146.108 Q930.14 143.562 926.691 143.562 Q923.265 143.562 921.344 146.108 Q919.446 148.654 919.446 153.284 Q919.446 157.89 921.344 160.437 Q923.265 162.983 926.691 162.983 Q930.14 162.983 932.039 160.437 Q933.96 157.89 933.96 153.284 M938.219 163.33 Q938.219 169.951 935.279 173.168 Q932.339 176.409 926.275 176.409 Q924.029 176.409 922.039 176.062 Q920.048 175.738 918.173 175.043 L918.173 170.9 Q920.048 171.918 921.877 172.404 Q923.705 172.89 925.603 172.89 Q929.793 172.89 931.876 170.691 Q933.96 168.515 933.96 164.094 L933.96 161.988 Q932.64 164.279 930.58 165.414 Q928.52 166.548 925.65 166.548 Q920.881 166.548 917.965 162.914 Q915.048 159.279 915.048 153.284 Q915.048 147.266 917.965 143.631 Q920.881 139.997 925.65 139.997 Q928.52 139.997 930.58 141.131 Q932.64 142.266 933.96 144.557 L933.96 140.622 L938.219 140.622 L938.219 163.33 Z" fill="#000000" fill-rule="nonzero" fill-opacity="1" /><path clip-path="url(#clip240)" d="M969.168 152.52 L969.168 154.603 L949.585 154.603 Q949.863 159.002 952.224 161.316 Q954.608 163.608 958.844 163.608 Q961.298 163.608 963.589 163.006 Q965.904 162.404 968.173 161.201 L968.173 165.228 Q965.881 166.201 963.474 166.71 Q961.066 167.219 958.589 167.219 Q952.386 167.219 948.751 163.608 Q945.14 159.997 945.14 153.84 Q945.14 147.474 948.566 143.747 Q952.015 139.997 957.849 139.997 Q963.08 139.997 966.112 143.377 Q969.168 146.733 969.168 152.52 M964.909 151.27 Q964.862 147.775 962.941 145.691 Q961.043 143.608 957.895 143.608 Q954.33 143.608 952.177 145.622 Q950.048 147.636 949.724 151.293 L964.909 151.27 Z" fill="#000000" fill-rule="nonzero" fill-opacity="1" /><path clip-path="url(#clip240)" d="M992.686 141.386 L992.686 145.414 Q990.881 144.488 988.936 144.025 Q986.992 143.562 984.909 143.562 Q981.737 143.562 980.14 144.534 Q978.566 145.506 978.566 147.451 Q978.566 148.932 979.7 149.789 Q980.835 150.622 984.26 151.386 L985.719 151.71 Q990.256 152.682 992.154 154.465 Q994.075 156.224 994.075 159.395 Q994.075 163.006 991.205 165.113 Q988.358 167.219 983.358 167.219 Q981.274 167.219 979.006 166.802 Q976.761 166.409 974.261 165.599 L974.261 161.201 Q976.622 162.427 978.913 163.052 Q981.205 163.654 983.45 163.654 Q986.46 163.654 988.08 162.636 Q989.7 161.594 989.7 159.719 Q989.7 157.983 988.52 157.057 Q987.362 156.131 983.404 155.275 L981.923 154.928 Q977.964 154.094 976.205 152.381 Q974.446 150.645 974.446 147.636 Q974.446 143.978 977.038 141.988 Q979.631 139.997 984.399 139.997 Q986.76 139.997 988.844 140.344 Q990.927 140.691 992.686 141.386 Z" fill="#000000" fill-rule="nonzero" fill-opacity="1" /><path clip-path="url(#clip240)" d="M1000.19 130.576 L1003.89 130.576 Q1007.36 136.039 1009.08 141.27 Q1010.81 146.502 1010.81 151.664 Q1010.81 156.849 1009.08 162.103 Q1007.36 167.358 1003.89 172.798 L1000.19 172.798 Q1003.26 167.497 1004.77 162.265 Q1006.3 157.011 1006.3 151.664 Q1006.3 146.316 1004.77 141.108 Q1003.26 135.9 1000.19 130.576 Z" fill="#000000" fill-rule="nonzero" fill-opacity="1" /><path clip-path="url(#clip240)" d="M342.841 221.844 L483.068 221.844 L483.068 180.372 L342.841 180.372 L342.841 221.844  Z" fill="#e26f46" fill-rule="evenodd" fill-opacity="0.6"/>
<polyline clip-path="url(#clip240)" style="stroke:#e26f46; stroke-linecap:round; stroke-linejoin:round; stroke-width:4; stroke-opacity:0; fill:none" points="342.841,180.372 483.068,180.372 "/>
<path clip-path="url(#clip240)" d="M506.439 183.828 L513.407 183.828 L522.226 207.346 L531.092 183.828 L538.059 183.828 L538.059 218.388 L533.499 218.388 L533.499 188.041 L524.587 211.744 L519.888 211.744 L510.976 188.041 L510.976 218.388 L506.439 218.388 L506.439 183.828 Z" fill="#000000" fill-rule="nonzero" fill-opacity="1" /><path clip-path="url(#clip240)" d="M557.203 195.448 Q553.777 195.448 551.786 198.133 Q549.795 200.795 549.795 205.448 Q549.795 210.101 551.763 212.786 Q553.754 215.448 557.203 215.448 Q560.605 215.448 562.596 212.763 Q564.587 210.078 564.587 205.448 Q564.587 200.842 562.596 198.156 Q560.605 195.448 557.203 195.448 M557.203 191.837 Q562.758 191.837 565.929 195.448 Q569.101 199.059 569.101 205.448 Q569.101 211.814 565.929 215.448 Q562.758 219.059 557.203 219.059 Q551.624 219.059 548.453 215.448 Q545.304 211.814 545.304 205.448 Q545.304 199.059 548.453 195.448 Q551.624 191.837 557.203 191.837 Z" fill="#000000" fill-rule="nonzero" fill-opacity="1" /><path clip-path="url(#clip240)" d="M593.221 196.397 L593.221 182.369 L597.48 182.369 L597.48 218.388 L593.221 218.388 L593.221 214.499 Q591.878 216.814 589.818 217.948 Q587.781 219.059 584.911 219.059 Q580.212 219.059 577.249 215.309 Q574.309 211.559 574.309 205.448 Q574.309 199.337 577.249 195.587 Q580.212 191.837 584.911 191.837 Q587.781 191.837 589.818 192.971 Q591.878 194.082 593.221 196.397 M578.707 205.448 Q578.707 210.147 580.628 212.832 Q582.573 215.494 585.952 215.494 Q589.332 215.494 591.276 212.832 Q593.221 210.147 593.221 205.448 Q593.221 200.749 591.276 198.087 Q589.332 195.402 585.952 195.402 Q582.573 195.402 580.628 198.087 Q578.707 200.749 578.707 205.448 Z" fill="#000000" fill-rule="nonzero" fill-opacity="1" /><path clip-path="url(#clip240)" d="M628.429 204.36 L628.429 206.443 L608.846 206.443 Q609.124 210.842 611.485 213.156 Q613.869 215.448 618.105 215.448 Q620.559 215.448 622.85 214.846 Q625.165 214.244 627.434 213.041 L627.434 217.068 Q625.142 218.041 622.735 218.55 Q620.327 219.059 617.85 219.059 Q611.647 219.059 608.012 215.448 Q604.401 211.837 604.401 205.68 Q604.401 199.314 607.827 195.587 Q611.276 191.837 617.11 191.837 Q622.341 191.837 625.374 195.217 Q628.429 198.573 628.429 204.36 M624.17 203.11 Q624.124 199.615 622.202 197.531 Q620.304 195.448 617.156 195.448 Q613.591 195.448 611.438 197.462 Q609.309 199.476 608.985 203.133 L624.17 203.11 Z" fill="#000000" fill-rule="nonzero" fill-opacity="1" /><path clip-path="url(#clip240)" d="M635.42 182.369 L639.679 182.369 L639.679 218.388 L635.42 218.388 L635.42 182.369 Z" fill="#000000" fill-rule="nonzero" fill-opacity="1" /><path clip-path="url(#clip240)" d="M673.892 182.416 Q670.79 187.74 669.285 192.948 Q667.781 198.156 667.781 203.504 Q667.781 208.851 669.285 214.105 Q670.813 219.337 673.892 224.638 L670.188 224.638 Q666.716 219.198 664.98 213.943 Q663.267 208.689 663.267 203.504 Q663.267 198.342 664.98 193.11 Q666.693 187.879 670.188 182.416 L673.892 182.416 Z" fill="#000000" fill-rule="nonzero" fill-opacity="1" /><path clip-path="url(#clip240)" d="M693.336 199.244 Q690.188 199.244 688.336 201.397 Q686.507 203.55 686.507 207.3 Q686.507 211.027 688.336 213.203 Q690.188 215.355 693.336 215.355 Q696.484 215.355 698.313 213.203 Q700.165 211.027 700.165 207.3 Q700.165 203.55 698.313 201.397 Q696.484 199.244 693.336 199.244 M702.618 184.592 L702.618 188.851 Q700.859 188.018 699.054 187.578 Q697.271 187.138 695.512 187.138 Q690.882 187.138 688.429 190.263 Q685.998 193.388 685.651 199.707 Q687.017 197.693 689.077 196.629 Q691.137 195.541 693.614 195.541 Q698.822 195.541 701.831 198.712 Q704.864 201.86 704.864 207.3 Q704.864 212.624 701.716 215.842 Q698.568 219.059 693.336 219.059 Q687.341 219.059 684.169 214.476 Q680.998 209.869 680.998 201.143 Q680.998 192.948 684.887 188.087 Q688.776 183.203 695.327 183.203 Q697.086 183.203 698.868 183.55 Q700.674 183.897 702.618 184.592 Z" fill="#000000" fill-rule="nonzero" fill-opacity="1" /><path clip-path="url(#clip240)" d="M723.498 199.244 Q720.35 199.244 718.498 201.397 Q716.669 203.55 716.669 207.3 Q716.669 211.027 718.498 213.203 Q720.35 215.355 723.498 215.355 Q726.646 215.355 728.475 213.203 Q730.327 211.027 730.327 207.3 Q730.327 203.55 728.475 201.397 Q726.646 199.244 723.498 199.244 M732.78 184.592 L732.78 188.851 Q731.021 188.018 729.216 187.578 Q727.433 187.138 725.674 187.138 Q721.044 187.138 718.591 190.263 Q716.16 193.388 715.813 199.707 Q717.179 197.693 719.239 196.629 Q721.299 195.541 723.776 195.541 Q728.984 195.541 731.993 198.712 Q735.026 201.86 735.026 207.3 Q735.026 212.624 731.878 215.842 Q728.729 219.059 723.498 219.059 Q717.503 219.059 714.331 214.476 Q711.16 209.869 711.16 201.143 Q711.16 192.948 715.049 188.087 Q718.938 183.203 725.489 183.203 Q727.248 183.203 729.03 183.55 Q730.836 183.897 732.78 184.592 Z" fill="#000000" fill-rule="nonzero" fill-opacity="1" /><path clip-path="url(#clip240)" d="M743.081 212.508 L747.965 212.508 L747.965 218.388 L743.081 218.388 L743.081 212.508 Z" fill="#000000" fill-rule="nonzero" fill-opacity="1" /><path clip-path="url(#clip240)" d="M768.151 186.907 Q764.539 186.907 762.711 190.471 Q760.905 194.013 760.905 201.143 Q760.905 208.249 762.711 211.814 Q764.539 215.355 768.151 215.355 Q771.785 215.355 773.59 211.814 Q775.419 208.249 775.419 201.143 Q775.419 194.013 773.59 190.471 Q771.785 186.907 768.151 186.907 M768.151 183.203 Q773.961 183.203 777.016 187.809 Q780.095 192.393 780.095 201.143 Q780.095 209.869 777.016 214.476 Q773.961 219.059 768.151 219.059 Q762.34 219.059 759.262 214.476 Q756.206 209.869 756.206 201.143 Q756.206 192.393 759.262 187.809 Q762.34 183.203 768.151 183.203 Z" fill="#000000" fill-rule="nonzero" fill-opacity="1" /><path clip-path="url(#clip240)" d="M787.132 183.828 L809.354 183.828 L809.354 185.819 L796.808 218.388 L791.924 218.388 L803.729 187.763 L787.132 187.763 L787.132 183.828 Z" fill="#000000" fill-rule="nonzero" fill-opacity="1" /><path clip-path="url(#clip240)" d="M822.502 214.453 L838.821 214.453 L838.821 218.388 L816.877 218.388 L816.877 214.453 Q819.539 211.698 824.122 207.068 Q828.729 202.416 829.909 201.073 Q832.155 198.55 833.034 196.814 Q833.937 195.055 833.937 193.365 Q833.937 190.61 831.993 188.874 Q830.071 187.138 826.97 187.138 Q824.771 187.138 822.317 187.902 Q819.886 188.666 817.109 190.217 L817.109 185.494 Q819.933 184.36 822.386 183.782 Q824.84 183.203 826.877 183.203 Q832.247 183.203 835.442 185.888 Q838.636 188.573 838.636 193.064 Q838.636 195.194 837.826 197.115 Q837.039 199.013 834.933 201.606 Q834.354 202.277 831.252 205.494 Q828.15 208.689 822.502 214.453 Z" fill="#000000" fill-rule="nonzero" fill-opacity="1" /><path clip-path="url(#clip240)" d="M880.442 188.666 L880.442 201.559 L893.335 201.559 L893.335 205.494 L880.442 205.494 L880.442 218.388 L876.553 218.388 L876.553 205.494 L863.659 205.494 L863.659 201.559 L876.553 201.559 L876.553 188.666 L880.442 188.666 Z" fill="#000000" fill-rule="nonzero" fill-opacity="1" /><path clip-path="url(#clip240)" d="M913.428 186.907 Q909.816 186.907 907.988 190.471 Q906.182 194.013 906.182 201.143 Q906.182 208.249 907.988 211.814 Q909.816 215.355 913.428 215.355 Q917.062 215.355 918.867 211.814 Q920.696 208.249 920.696 201.143 Q920.696 194.013 918.867 190.471 Q917.062 186.907 913.428 186.907 M913.428 183.203 Q919.238 183.203 922.293 187.809 Q925.372 192.393 925.372 201.143 Q925.372 209.869 922.293 214.476 Q919.238 219.059 913.428 219.059 Q907.617 219.059 904.539 214.476 Q901.483 209.869 901.483 201.143 Q901.483 192.393 904.539 187.809 Q907.617 183.203 913.428 183.203 Z" fill="#000000" fill-rule="nonzero" fill-opacity="1" /><path clip-path="url(#clip240)" d="M933.589 212.508 L938.474 212.508 L938.474 218.388 L933.589 218.388 L933.589 212.508 Z" fill="#000000" fill-rule="nonzero" fill-opacity="1" /><path clip-path="url(#clip240)" d="M958.659 186.907 Q955.048 186.907 953.219 190.471 Q951.413 194.013 951.413 201.143 Q951.413 208.249 953.219 211.814 Q955.048 215.355 958.659 215.355 Q962.293 215.355 964.099 211.814 Q965.927 208.249 965.927 201.143 Q965.927 194.013 964.099 190.471 Q962.293 186.907 958.659 186.907 M958.659 183.203 Q964.469 183.203 967.524 187.809 Q970.603 192.393 970.603 201.143 Q970.603 209.869 967.524 214.476 Q964.469 219.059 958.659 219.059 Q952.849 219.059 949.77 214.476 Q946.714 209.869 946.714 201.143 Q946.714 192.393 949.77 187.809 Q952.849 183.203 958.659 183.203 Z" fill="#000000" fill-rule="nonzero" fill-opacity="1" /><path clip-path="url(#clip240)" d="M982.848 214.453 L999.168 214.453 L999.168 218.388 L977.223 218.388 L977.223 214.453 Q979.885 211.698 984.469 207.068 Q989.075 202.416 990.256 201.073 Q992.501 198.55 993.381 196.814 Q994.284 195.055 994.284 193.365 Q994.284 190.61 992.339 188.874 Q990.418 187.138 987.316 187.138 Q985.117 187.138 982.663 187.902 Q980.233 188.666 977.455 190.217 L977.455 185.494 Q980.279 184.36 982.733 183.782 Q985.186 183.203 987.223 183.203 Q992.594 183.203 995.788 185.888 Q998.983 188.573 998.983 193.064 Q998.983 195.194 998.172 197.115 Q997.385 199.013 995.279 201.606 Q994.7 202.277 991.598 205.494 Q988.497 208.689 982.848 214.453 Z" fill="#000000" fill-rule="nonzero" fill-opacity="1" /><path clip-path="url(#clip240)" d="M1009.79 214.453 L1017.43 214.453 L1017.43 188.087 L1009.12 189.754 L1009.12 185.494 L1017.39 183.828 L1022.06 183.828 L1022.06 214.453 L1029.7 214.453 L1029.7 218.388 L1009.79 218.388 L1009.79 214.453 Z" fill="#000000" fill-rule="nonzero" fill-opacity="1" /><path clip-path="url(#clip240)" d="M1046.11 183.828 L1050.05 183.828 L1038.01 222.786 L1034.08 222.786 L1046.11 183.828 Z" fill="#000000" fill-rule="nonzero" fill-opacity="1" /><path clip-path="url(#clip240)" d="M1052.36 203.504 L1064.84 203.504 L1064.84 207.3 L1052.36 207.3 L1052.36 203.504 Z" fill="#000000" fill-rule="nonzero" fill-opacity="1" /><path clip-path="url(#clip240)" d="M1082.22 186.907 Q1078.61 186.907 1076.78 190.471 Q1074.98 194.013 1074.98 201.143 Q1074.98 208.249 1076.78 211.814 Q1078.61 215.355 1082.22 215.355 Q1085.86 215.355 1087.66 211.814 Q1089.49 208.249 1089.49 201.143 Q1089.49 194.013 1087.66 190.471 Q1085.86 186.907 1082.22 186.907 M1082.22 183.203 Q1088.03 183.203 1091.09 187.809 Q1094.17 192.393 1094.17 201.143 Q1094.17 209.869 1091.09 214.476 Q1088.03 219.059 1082.22 219.059 Q1076.41 219.059 1073.33 214.476 Q1070.28 209.869 1070.28 201.143 Q1070.28 192.393 1073.33 187.809 Q1076.41 183.203 1082.22 183.203 Z" fill="#000000" fill-rule="nonzero" fill-opacity="1" /><path clip-path="url(#clip240)" d="M1102.38 212.508 L1107.27 212.508 L1107.27 218.388 L1102.38 218.388 L1102.38 212.508 Z" fill="#000000" fill-rule="nonzero" fill-opacity="1" /><path clip-path="url(#clip240)" d="M1127.45 186.907 Q1123.84 186.907 1122.01 190.471 Q1120.21 194.013 1120.21 201.143 Q1120.21 208.249 1122.01 211.814 Q1123.84 215.355 1127.45 215.355 Q1131.09 215.355 1132.89 211.814 Q1134.72 208.249 1134.72 201.143 Q1134.72 194.013 1132.89 190.471 Q1131.09 186.907 1127.45 186.907 M1127.45 183.203 Q1133.26 183.203 1136.32 187.809 Q1139.4 192.393 1139.4 201.143 Q1139.4 209.869 1136.32 214.476 Q1133.26 219.059 1127.45 219.059 Q1121.64 219.059 1118.57 214.476 Q1115.51 209.869 1115.51 201.143 Q1115.51 192.393 1118.57 187.809 Q1121.64 183.203 1127.45 183.203 Z" fill="#000000" fill-rule="nonzero" fill-opacity="1" /><path clip-path="url(#clip240)" d="M1151.64 214.453 L1167.96 214.453 L1167.96 218.388 L1146.02 218.388 L1146.02 214.453 Q1148.68 211.698 1153.26 207.068 Q1157.87 202.416 1159.05 201.073 Q1161.3 198.55 1162.18 196.814 Q1163.08 195.055 1163.08 193.365 Q1163.08 190.61 1161.13 188.874 Q1159.21 187.138 1156.11 187.138 Q1153.91 187.138 1151.46 187.902 Q1149.03 188.666 1146.25 190.217 L1146.25 185.494 Q1149.07 184.36 1151.53 183.782 Q1153.98 183.203 1156.02 183.203 Q1161.39 183.203 1164.58 185.888 Q1167.78 188.573 1167.78 193.064 Q1167.78 195.194 1166.97 197.115 Q1166.18 199.013 1164.07 201.606 Q1163.5 202.277 1160.39 205.494 Q1157.29 208.689 1151.64 214.453 Z" fill="#000000" fill-rule="nonzero" fill-opacity="1" /><path clip-path="url(#clip240)" d="M1187.78 201.976 Q1184.44 201.976 1182.52 203.758 Q1180.63 205.541 1180.63 208.666 Q1180.63 211.791 1182.52 213.573 Q1184.44 215.355 1187.78 215.355 Q1191.11 215.355 1193.03 213.573 Q1194.95 211.767 1194.95 208.666 Q1194.95 205.541 1193.03 203.758 Q1191.13 201.976 1187.78 201.976 M1183.1 199.985 Q1180.09 199.244 1178.4 197.184 Q1176.74 195.124 1176.74 192.161 Q1176.74 188.018 1179.68 185.61 Q1182.64 183.203 1187.78 183.203 Q1192.94 183.203 1195.88 185.61 Q1198.82 188.018 1198.82 192.161 Q1198.82 195.124 1197.13 197.184 Q1195.46 199.244 1192.48 199.985 Q1195.86 200.772 1197.73 203.064 Q1199.63 205.355 1199.63 208.666 Q1199.63 213.689 1196.55 216.374 Q1193.5 219.059 1187.78 219.059 Q1182.06 219.059 1178.98 216.374 Q1175.93 213.689 1175.93 208.666 Q1175.93 205.355 1177.82 203.064 Q1179.72 200.772 1183.1 199.985 M1181.39 192.601 Q1181.39 195.286 1183.06 196.791 Q1184.75 198.295 1187.78 198.295 Q1190.79 198.295 1192.48 196.791 Q1194.19 195.286 1194.19 192.601 Q1194.19 189.916 1192.48 188.411 Q1190.79 186.907 1187.78 186.907 Q1184.75 186.907 1183.06 188.411 Q1181.39 189.916 1181.39 192.601 Z" fill="#000000" fill-rule="nonzero" fill-opacity="1" /><path clip-path="url(#clip240)" d="M1222.59 183.828 L1229.56 183.828 L1238.38 207.346 L1247.25 183.828 L1254.21 183.828 L1254.21 218.388 L1249.65 218.388 L1249.65 188.041 L1240.74 211.744 L1236.04 211.744 L1227.13 188.041 L1227.13 218.388 L1222.59 218.388 L1222.59 183.828 Z" fill="#000000" fill-rule="nonzero" fill-opacity="1" /><path clip-path="url(#clip240)" d="M1275.09 205.355 Q1269.93 205.355 1267.94 206.536 Q1265.95 207.717 1265.95 210.564 Q1265.95 212.832 1267.43 214.175 Q1268.93 215.494 1271.5 215.494 Q1275.05 215.494 1277.18 212.994 Q1279.33 210.471 1279.33 206.305 L1279.33 205.355 L1275.09 205.355 M1283.59 203.596 L1283.59 218.388 L1279.33 218.388 L1279.33 214.453 Q1277.87 216.814 1275.69 217.948 Q1273.52 219.059 1270.37 219.059 Q1266.39 219.059 1264.03 216.837 Q1261.69 214.592 1261.69 210.842 Q1261.69 206.467 1264.61 204.244 Q1267.55 202.022 1273.36 202.022 L1279.33 202.022 L1279.33 201.606 Q1279.33 198.666 1277.38 197.068 Q1275.46 195.448 1271.97 195.448 Q1269.75 195.448 1267.64 195.981 Q1265.53 196.513 1263.59 197.578 L1263.59 193.643 Q1265.93 192.74 1268.12 192.3 Q1270.32 191.837 1272.41 191.837 Q1278.03 191.837 1280.81 194.754 Q1283.59 197.67 1283.59 203.596 Z" fill="#000000" fill-rule="nonzero" fill-opacity="1" /><path clip-path="url(#clip240)" d="M1291.69 182.416 L1295.39 182.416 Q1298.87 187.879 1300.58 193.11 Q1302.31 198.342 1302.31 203.504 Q1302.31 208.689 1300.58 213.943 Q1298.87 219.198 1295.39 224.638 L1291.69 224.638 Q1294.77 219.337 1296.27 214.105 Q1297.8 208.851 1297.8 203.504 Q1297.8 198.156 1296.27 192.948 Q1294.77 187.74 1291.69 182.416 Z" fill="#000000" fill-rule="nonzero" fill-opacity="1" /></svg>
