<?xml version="1.0" encoding="utf-8"?>
<svg xmlns="http://www.w3.org/2000/svg" xmlns:xlink="http://www.w3.org/1999/xlink" width="600" height="400" viewBox="0 0 2400 1600">
<defs>
  <clipPath id="clip580">
    <rect x="0" y="0" width="2400" height="1600"/>
  </clipPath>
</defs>
<path clip-path="url(#clip580)" d="M0 1600 L2400 1600 L2400 8.88178e-14 L0 8.88178e-14  Z" fill="#ffffff" fill-rule="evenodd" fill-opacity="1"/>
<defs>
  <clipPath id="clip581">
    <rect x="480" y="0" width="1681" height="1600"/>
  </clipPath>
</defs>
<path clip-path="url(#clip580)" d="M205.121 1423.18 L2352.76 1423.18 L2352.76 47.2441 L205.121 47.2441  Z" fill="#ffffff" fill-rule="evenodd" fill-opacity="1"/>
<defs>
  <clipPath id="clip582">
    <rect x="205" y="47" width="2149" height="1377"/>
  </clipPath>
</defs>
<polyline clip-path="url(#clip582)" style="stroke:#000000; stroke-linecap:round; stroke-linejoin:round; stroke-width:2; stroke-opacity:0.1; fill:none" points="220.076,1423.18 220.076,47.2441 "/>
<polyline clip-path="url(#clip582)" style="stroke:#000000; stroke-linecap:round; stroke-linejoin:round; stroke-width:2; stroke-opacity:0.1; fill:none" points="743.682,1423.18 743.682,47.2441 "/>
<polyline clip-path="url(#clip582)" style="stroke:#000000; stroke-linecap:round; stroke-linejoin:round; stroke-width:2; stroke-opacity:0.1; fill:none" points="1267.29,1423.18 1267.29,47.2441 "/>
<polyline clip-path="url(#clip582)" style="stroke:#000000; stroke-linecap:round; stroke-linejoin:round; stroke-width:2; stroke-opacity:0.1; fill:none" points="1790.89,1423.18 1790.89,47.2441 "/>
<polyline clip-path="url(#clip582)" style="stroke:#000000; stroke-linecap:round; stroke-linejoin:round; stroke-width:2; stroke-opacity:0.1; fill:none" points="2314.5,1423.18 2314.5,47.2441 "/>
<polyline clip-path="url(#clip582)" style="stroke:#000000; stroke-linecap:round; stroke-linejoin:round; stroke-width:2; stroke-opacity:0.1; fill:none" points="220.076,1423.18 220.076,47.2441 "/>
<polyline clip-path="url(#clip582)" style="stroke:#000000; stroke-linecap:round; stroke-linejoin:round; stroke-width:2; stroke-opacity:0.1; fill:none" points="743.682,1423.18 743.682,47.2441 "/>
<polyline clip-path="url(#clip582)" style="stroke:#000000; stroke-linecap:round; stroke-linejoin:round; stroke-width:2; stroke-opacity:0.1; fill:none" points="1267.29,1423.18 1267.29,47.2441 "/>
<polyline clip-path="url(#clip582)" style="stroke:#000000; stroke-linecap:round; stroke-linejoin:round; stroke-width:2; stroke-opacity:0.1; fill:none" points="1790.89,1423.18 1790.89,47.2441 "/>
<polyline clip-path="url(#clip582)" style="stroke:#000000; stroke-linecap:round; stroke-linejoin:round; stroke-width:2; stroke-opacity:0.1; fill:none" points="2314.5,1423.18 2314.5,47.2441 "/>
<polyline clip-path="url(#clip582)" style="stroke:#000000; stroke-linecap:round; stroke-linejoin:round; stroke-width:2; stroke-opacity:0.1; fill:none" points="205.121,1384.24 2352.76,1384.24 "/>
<polyline clip-path="url(#clip582)" style="stroke:#000000; stroke-linecap:round; stroke-linejoin:round; stroke-width:2; stroke-opacity:0.1; fill:none" points="205.121,1006.29 2352.76,1006.29 "/>
<polyline clip-path="url(#clip582)" style="stroke:#000000; stroke-linecap:round; stroke-linejoin:round; stroke-width:2; stroke-opacity:0.1; fill:none" points="205.121,628.342 2352.76,628.342 "/>
<polyline clip-path="url(#clip582)" style="stroke:#000000; stroke-linecap:round; stroke-linejoin:round; stroke-width:2; stroke-opacity:0.1; fill:none" points="205.121,250.393 2352.76,250.393 "/>
<polyline clip-path="url(#clip582)" style="stroke:#000000; stroke-linecap:round; stroke-linejoin:round; stroke-width:2; stroke-opacity:0.1; fill:none" points="205.121,1384.24 2352.76,1384.24 "/>
<polyline clip-path="url(#clip582)" style="stroke:#000000; stroke-linecap:round; stroke-linejoin:round; stroke-width:2; stroke-opacity:0.1; fill:none" points="205.121,1006.29 2352.76,1006.29 "/>
<polyline clip-path="url(#clip582)" style="stroke:#000000; stroke-linecap:round; stroke-linejoin:round; stroke-width:2; stroke-opacity:0.1; fill:none" points="205.121,628.342 2352.76,628.342 "/>
<polyline clip-path="url(#clip582)" style="stroke:#000000; stroke-linecap:round; stroke-linejoin:round; stroke-width:2; stroke-opacity:0.1; fill:none" points="205.121,250.393 2352.76,250.393 "/>
<polyline clip-path="url(#clip580)" style="stroke:#000000; stroke-linecap:round; stroke-linejoin:round; stroke-width:4; stroke-opacity:1; fill:none" points="205.121,1423.18 2352.76,1423.18 "/>
<polyline clip-path="url(#clip580)" style="stroke:#000000; stroke-linecap:round; stroke-linejoin:round; stroke-width:4; stroke-opacity:1; fill:none" points="205.121,47.2441 2352.76,47.2441 "/>
<polyline clip-path="url(#clip580)" style="stroke:#000000; stroke-linecap:round; stroke-linejoin:round; stroke-width:4; stroke-opacity:1; fill:none" points="220.076,1423.18 220.076,1404.28 "/>
<polyline clip-path="url(#clip580)" style="stroke:#000000; stroke-linecap:round; stroke-linejoin:round; stroke-width:4; stroke-opacity:1; fill:none" points="743.682,1423.18 743.682,1404.28 "/>
<polyline clip-path="url(#clip580)" style="stroke:#000000; stroke-linecap:round; stroke-linejoin:round; stroke-width:4; stroke-opacity:1; fill:none" points="1267.29,1423.18 1267.29,1404.28 "/>
<polyline clip-path="url(#clip580)" style="stroke:#000000; stroke-linecap:round; stroke-linejoin:round; stroke-width:4; stroke-opacity:1; fill:none" points="1790.89,1423.18 1790.89,1404.28 "/>
<polyline clip-path="url(#clip580)" style="stroke:#000000; stroke-linecap:round; stroke-linejoin:round; stroke-width:4; stroke-opacity:1; fill:none" points="2314.5,1423.18 2314.5,1404.28 "/>
<polyline clip-path="url(#clip580)" style="stroke:#000000; stroke-linecap:round; stroke-linejoin:round; stroke-width:4; stroke-opacity:1; fill:none" points="220.076,47.2441 220.076,66.1417 "/>
<polyline clip-path="url(#clip580)" style="stroke:#000000; stroke-linecap:round; stroke-linejoin:round; stroke-width:4; stroke-opacity:1; fill:none" points="743.682,47.2441 743.682,66.1417 "/>
<polyline clip-path="url(#clip580)" style="stroke:#000000; stroke-linecap:round; stroke-linejoin:round; stroke-width:4; stroke-opacity:1; fill:none" points="1267.29,47.2441 1267.29,66.1417 "/>
<polyline clip-path="url(#clip580)" style="stroke:#000000; stroke-linecap:round; stroke-linejoin:round; stroke-width:4; stroke-opacity:1; fill:none" points="1790.89,47.2441 1790.89,66.1417 "/>
<polyline clip-path="url(#clip580)" style="stroke:#000000; stroke-linecap:round; stroke-linejoin:round; stroke-width:4; stroke-opacity:1; fill:none" points="2314.5,47.2441 2314.5,66.1417 "/>
<path clip-path="url(#clip580)" d="M183.317 1466.44 Q180.169 1466.44 178.317 1468.59 Q176.488 1470.74 176.488 1474.49 Q176.488 1478.22 178.317 1480.39 Q180.169 1482.55 183.317 1482.55 Q186.465 1482.55 188.294 1480.39 Q190.146 1478.22 190.146 1474.49 Q190.146 1470.74 188.294 1468.59 Q186.465 1466.44 183.317 1466.44 M192.599 1451.78 L192.599 1456.04 Q190.84 1455.21 189.034 1454.77 Q187.252 1454.33 185.493 1454.33 Q180.863 1454.33 178.409 1457.45 Q175.979 1460.58 175.632 1466.9 Q176.997 1464.89 179.058 1463.82 Q181.118 1462.73 183.595 1462.73 Q188.803 1462.73 191.812 1465.9 Q194.845 1469.05 194.845 1474.49 Q194.845 1479.82 191.696 1483.03 Q188.548 1486.25 183.317 1486.25 Q177.322 1486.25 174.15 1481.67 Q170.979 1477.06 170.979 1468.33 Q170.979 1460.14 174.868 1455.28 Q178.757 1450.39 185.308 1450.39 Q187.067 1450.39 188.849 1450.74 Q190.655 1451.09 192.599 1451.78 Z" fill="#000000" fill-rule="nonzero" fill-opacity="1" /><path clip-path="url(#clip580)" d="M202.946 1451.02 L221.303 1451.02 L221.303 1454.96 L207.229 1454.96 L207.229 1463.43 Q208.247 1463.08 209.266 1462.92 Q210.284 1462.73 211.303 1462.73 Q217.09 1462.73 220.469 1465.9 Q223.849 1469.08 223.849 1474.49 Q223.849 1480.07 220.377 1483.17 Q216.905 1486.25 210.585 1486.25 Q208.409 1486.25 206.141 1485.88 Q203.895 1485.51 201.488 1484.77 L201.488 1480.07 Q203.571 1481.2 205.794 1481.76 Q208.016 1482.32 210.493 1482.32 Q214.497 1482.32 216.835 1480.21 Q219.173 1478.1 219.173 1474.49 Q219.173 1470.88 216.835 1468.77 Q214.497 1466.67 210.493 1466.67 Q208.618 1466.67 206.743 1467.08 Q204.891 1467.5 202.946 1468.38 L202.946 1451.02 Z" fill="#000000" fill-rule="nonzero" fill-opacity="1" /><path clip-path="url(#clip580)" d="M233.062 1479.7 L237.946 1479.7 L237.946 1485.58 L233.062 1485.58 L233.062 1479.7 Z" fill="#000000" fill-rule="nonzero" fill-opacity="1" /><path clip-path="url(#clip580)" d="M246.951 1451.02 L269.173 1451.02 L269.173 1453.01 L256.627 1485.58 L251.742 1485.58 L263.548 1454.96 L246.951 1454.96 L246.951 1451.02 Z" fill="#000000" fill-rule="nonzero" fill-opacity="1" /><path clip-path="url(#clip580)" d="M706.518 1466.44 Q703.37 1466.44 701.518 1468.59 Q699.689 1470.74 699.689 1474.49 Q699.689 1478.22 701.518 1480.39 Q703.37 1482.55 706.518 1482.55 Q709.666 1482.55 711.495 1480.39 Q713.346 1478.22 713.346 1474.49 Q713.346 1470.74 711.495 1468.59 Q709.666 1466.44 706.518 1466.44 M715.8 1451.78 L715.8 1456.04 Q714.041 1455.21 712.235 1454.77 Q710.453 1454.33 708.694 1454.33 Q704.064 1454.33 701.61 1457.45 Q699.18 1460.58 698.833 1466.9 Q700.198 1464.89 702.259 1463.82 Q704.319 1462.73 706.796 1462.73 Q712.004 1462.73 715.013 1465.9 Q718.045 1469.05 718.045 1474.49 Q718.045 1479.82 714.897 1483.03 Q711.749 1486.25 706.518 1486.25 Q700.522 1486.25 697.351 1481.67 Q694.18 1477.06 694.18 1468.33 Q694.18 1460.14 698.069 1455.28 Q701.958 1450.39 708.508 1450.39 Q710.268 1450.39 712.05 1450.74 Q713.856 1451.09 715.8 1451.78 Z" fill="#000000" fill-rule="nonzero" fill-opacity="1" /><path clip-path="url(#clip580)" d="M726.147 1451.02 L744.504 1451.02 L744.504 1454.96 L730.43 1454.96 L730.43 1463.43 Q731.448 1463.08 732.467 1462.92 Q733.485 1462.73 734.504 1462.73 Q740.291 1462.73 743.67 1465.9 Q747.05 1469.08 747.05 1474.49 Q747.05 1480.07 743.578 1483.17 Q740.106 1486.25 733.786 1486.25 Q731.61 1486.25 729.342 1485.88 Q727.096 1485.51 724.689 1484.77 L724.689 1480.07 Q726.772 1481.2 728.994 1481.76 Q731.217 1482.32 733.694 1482.32 Q737.698 1482.32 740.036 1480.21 Q742.374 1478.1 742.374 1474.49 Q742.374 1470.88 740.036 1468.77 Q737.698 1466.67 733.694 1466.67 Q731.819 1466.67 729.944 1467.08 Q728.092 1467.5 726.147 1468.38 L726.147 1451.02 Z" fill="#000000" fill-rule="nonzero" fill-opacity="1" /><path clip-path="url(#clip580)" d="M756.263 1479.7 L761.147 1479.7 L761.147 1485.58 L756.263 1485.58 L756.263 1479.7 Z" fill="#000000" fill-rule="nonzero" fill-opacity="1" /><path clip-path="url(#clip580)" d="M781.332 1469.17 Q777.999 1469.17 776.078 1470.95 Q774.179 1472.73 774.179 1475.86 Q774.179 1478.98 776.078 1480.77 Q777.999 1482.55 781.332 1482.55 Q784.665 1482.55 786.587 1480.77 Q788.508 1478.96 788.508 1475.86 Q788.508 1472.73 786.587 1470.95 Q784.689 1469.17 781.332 1469.17 M776.656 1467.18 Q773.647 1466.44 771.957 1464.38 Q770.291 1462.32 770.291 1459.35 Q770.291 1455.21 773.23 1452.8 Q776.193 1450.39 781.332 1450.39 Q786.494 1450.39 789.434 1452.8 Q792.374 1455.21 792.374 1459.35 Q792.374 1462.32 790.684 1464.38 Q789.017 1466.44 786.031 1467.18 Q789.411 1467.96 791.286 1470.26 Q793.184 1472.55 793.184 1475.86 Q793.184 1480.88 790.105 1483.57 Q787.05 1486.25 781.332 1486.25 Q775.615 1486.25 772.536 1483.57 Q769.48 1480.88 769.48 1475.86 Q769.48 1472.55 771.379 1470.26 Q773.277 1467.96 776.656 1467.18 M774.943 1459.79 Q774.943 1462.48 776.61 1463.98 Q778.3 1465.49 781.332 1465.49 Q784.341 1465.49 786.031 1463.98 Q787.744 1462.48 787.744 1459.79 Q787.744 1457.11 786.031 1455.6 Q784.341 1454.1 781.332 1454.1 Q778.3 1454.1 776.61 1455.6 Q774.943 1457.11 774.943 1459.79 Z" fill="#000000" fill-rule="nonzero" fill-opacity="1" /><path clip-path="url(#clip580)" d="M1230.17 1466.44 Q1227.02 1466.44 1225.17 1468.59 Q1223.34 1470.74 1223.34 1474.49 Q1223.34 1478.22 1225.17 1480.39 Q1227.02 1482.55 1230.17 1482.55 Q1233.32 1482.55 1235.15 1480.39 Q1237 1478.22 1237 1474.49 Q1237 1470.74 1235.15 1468.59 Q1233.32 1466.44 1230.17 1466.44 M1239.45 1451.78 L1239.45 1456.04 Q1237.69 1455.21 1235.89 1454.77 Q1234.11 1454.33 1232.35 1454.33 Q1227.72 1454.33 1225.26 1457.45 Q1222.83 1460.58 1222.48 1466.9 Q1223.85 1464.89 1225.91 1463.82 Q1227.97 1462.73 1230.45 1462.73 Q1235.66 1462.73 1238.67 1465.9 Q1241.7 1469.05 1241.7 1474.49 Q1241.7 1479.82 1238.55 1483.03 Q1235.4 1486.25 1230.17 1486.25 Q1224.17 1486.25 1221 1481.67 Q1217.83 1477.06 1217.83 1468.33 Q1217.83 1460.14 1221.72 1455.28 Q1225.61 1450.39 1232.16 1450.39 Q1233.92 1450.39 1235.7 1450.74 Q1237.51 1451.09 1239.45 1451.78 Z" fill="#000000" fill-rule="nonzero" fill-opacity="1" /><path clip-path="url(#clip580)" d="M1249.8 1451.02 L1268.16 1451.02 L1268.16 1454.96 L1254.08 1454.96 L1254.08 1463.43 Q1255.1 1463.08 1256.12 1462.92 Q1257.14 1462.73 1258.16 1462.73 Q1263.94 1462.73 1267.32 1465.9 Q1270.7 1469.08 1270.7 1474.49 Q1270.7 1480.07 1267.23 1483.17 Q1263.76 1486.25 1257.44 1486.25 Q1255.26 1486.25 1252.99 1485.88 Q1250.75 1485.51 1248.34 1484.77 L1248.34 1480.07 Q1250.42 1481.2 1252.65 1481.76 Q1254.87 1482.32 1257.35 1482.32 Q1261.35 1482.32 1263.69 1480.21 Q1266.03 1478.1 1266.03 1474.49 Q1266.03 1470.88 1263.69 1468.77 Q1261.35 1466.67 1257.35 1466.67 Q1255.47 1466.67 1253.6 1467.08 Q1251.74 1467.5 1249.8 1468.38 L1249.8 1451.02 Z" fill="#000000" fill-rule="nonzero" fill-opacity="1" /><path clip-path="url(#clip580)" d="M1279.92 1479.7 L1284.8 1479.7 L1284.8 1485.58 L1279.92 1485.58 L1279.92 1479.7 Z" fill="#000000" fill-rule="nonzero" fill-opacity="1" /><path clip-path="url(#clip580)" d="M1295.12 1484.86 L1295.12 1480.6 Q1296.88 1481.44 1298.69 1481.88 Q1300.49 1482.32 1302.23 1482.32 Q1306.86 1482.32 1309.29 1479.21 Q1311.74 1476.09 1312.09 1469.75 Q1310.75 1471.74 1308.69 1472.8 Q1306.63 1473.87 1304.13 1473.87 Q1298.94 1473.87 1295.91 1470.74 Q1292.9 1467.59 1292.9 1462.15 Q1292.9 1456.83 1296.05 1453.61 Q1299.2 1450.39 1304.43 1450.39 Q1310.42 1450.39 1313.57 1455 Q1316.74 1459.58 1316.74 1468.33 Q1316.74 1476.51 1312.85 1481.39 Q1308.99 1486.25 1302.44 1486.25 Q1300.68 1486.25 1298.87 1485.9 Q1297.07 1485.56 1295.12 1484.86 M1304.43 1470.21 Q1307.58 1470.21 1309.41 1468.06 Q1311.26 1465.9 1311.26 1462.15 Q1311.26 1458.43 1309.41 1456.27 Q1307.58 1454.1 1304.43 1454.1 Q1301.28 1454.1 1299.43 1456.27 Q1297.6 1458.43 1297.6 1462.15 Q1297.6 1465.9 1299.43 1468.06 Q1301.28 1470.21 1304.43 1470.21 Z" fill="#000000" fill-rule="nonzero" fill-opacity="1" /><path clip-path="url(#clip580)" d="M1753.68 1466.44 Q1750.54 1466.44 1748.68 1468.59 Q1746.85 1470.74 1746.85 1474.49 Q1746.85 1478.22 1748.68 1480.39 Q1750.54 1482.55 1753.68 1482.55 Q1756.83 1482.55 1758.66 1480.39 Q1760.51 1478.22 1760.51 1474.49 Q1760.51 1470.74 1758.66 1468.59 Q1756.83 1466.44 1753.68 1466.44 M1762.97 1451.78 L1762.97 1456.04 Q1761.21 1455.21 1759.4 1454.77 Q1757.62 1454.33 1755.86 1454.33 Q1751.23 1454.33 1748.78 1457.45 Q1746.35 1460.58 1746 1466.9 Q1747.36 1464.89 1749.42 1463.82 Q1751.48 1462.73 1753.96 1462.73 Q1759.17 1462.73 1762.18 1465.9 Q1765.21 1469.05 1765.21 1474.49 Q1765.21 1479.82 1762.06 1483.03 Q1758.91 1486.25 1753.68 1486.25 Q1747.69 1486.25 1744.52 1481.67 Q1741.35 1477.06 1741.35 1468.33 Q1741.35 1460.14 1745.23 1455.28 Q1749.12 1450.39 1755.67 1450.39 Q1757.43 1450.39 1759.22 1450.74 Q1761.02 1451.09 1762.97 1451.78 Z" fill="#000000" fill-rule="nonzero" fill-opacity="1" /><path clip-path="url(#clip580)" d="M1783.85 1466.44 Q1780.7 1466.44 1778.85 1468.59 Q1777.02 1470.74 1777.02 1474.49 Q1777.02 1478.22 1778.85 1480.39 Q1780.7 1482.55 1783.85 1482.55 Q1786.99 1482.55 1788.82 1480.39 Q1790.67 1478.22 1790.67 1474.49 Q1790.67 1470.74 1788.82 1468.59 Q1786.99 1466.44 1783.85 1466.44 M1793.13 1451.78 L1793.13 1456.04 Q1791.37 1455.21 1789.56 1454.77 Q1787.78 1454.33 1786.02 1454.33 Q1781.39 1454.33 1778.94 1457.45 Q1776.51 1460.58 1776.16 1466.9 Q1777.53 1464.89 1779.59 1463.82 Q1781.65 1462.73 1784.12 1462.73 Q1789.33 1462.73 1792.34 1465.9 Q1795.37 1469.05 1795.37 1474.49 Q1795.37 1479.82 1792.22 1483.03 Q1789.08 1486.25 1783.85 1486.25 Q1777.85 1486.25 1774.68 1481.67 Q1771.51 1477.06 1771.51 1468.33 Q1771.51 1460.14 1775.4 1455.28 Q1779.29 1450.39 1785.84 1450.39 Q1787.6 1450.39 1789.38 1450.74 Q1791.18 1451.09 1793.13 1451.78 Z" fill="#000000" fill-rule="nonzero" fill-opacity="1" /><path clip-path="url(#clip580)" d="M1803.43 1479.7 L1808.31 1479.7 L1808.31 1485.58 L1803.43 1485.58 L1803.43 1479.7 Z" fill="#000000" fill-rule="nonzero" fill-opacity="1" /><path clip-path="url(#clip580)" d="M1828.5 1454.1 Q1824.89 1454.1 1823.06 1457.66 Q1821.25 1461.2 1821.25 1468.33 Q1821.25 1475.44 1823.06 1479.01 Q1824.89 1482.55 1828.5 1482.55 Q1832.13 1482.55 1833.94 1479.01 Q1835.77 1475.44 1835.77 1468.33 Q1835.77 1461.2 1833.94 1457.66 Q1832.13 1454.1 1828.5 1454.1 M1828.5 1450.39 Q1834.31 1450.39 1837.36 1455 Q1840.44 1459.58 1840.44 1468.33 Q1840.44 1477.06 1837.36 1481.67 Q1834.31 1486.25 1828.5 1486.25 Q1822.69 1486.25 1819.61 1481.67 Q1816.55 1477.06 1816.55 1468.33 Q1816.55 1459.58 1819.61 1455 Q1822.69 1450.39 1828.5 1450.39 Z" fill="#000000" fill-rule="nonzero" fill-opacity="1" /><path clip-path="url(#clip580)" d="M2277.9 1466.44 Q2274.75 1466.44 2272.9 1468.59 Q2271.07 1470.74 2271.07 1474.49 Q2271.07 1478.22 2272.9 1480.39 Q2274.75 1482.55 2277.9 1482.55 Q2281.05 1482.55 2282.88 1480.39 Q2284.73 1478.22 2284.73 1474.49 Q2284.73 1470.74 2282.88 1468.59 Q2281.05 1466.44 2277.9 1466.44 M2287.19 1451.78 L2287.19 1456.04 Q2285.43 1455.21 2283.62 1454.77 Q2281.84 1454.33 2280.08 1454.33 Q2275.45 1454.33 2273 1457.45 Q2270.56 1460.58 2270.22 1466.9 Q2271.58 1464.89 2273.64 1463.82 Q2275.7 1462.73 2278.18 1462.73 Q2283.39 1462.73 2286.4 1465.9 Q2289.43 1469.05 2289.43 1474.49 Q2289.43 1479.82 2286.28 1483.03 Q2283.13 1486.25 2277.9 1486.25 Q2271.91 1486.25 2268.74 1481.67 Q2265.56 1477.06 2265.56 1468.33 Q2265.56 1460.14 2269.45 1455.28 Q2273.34 1450.39 2279.89 1450.39 Q2281.65 1450.39 2283.44 1450.74 Q2285.24 1451.09 2287.19 1451.78 Z" fill="#000000" fill-rule="nonzero" fill-opacity="1" /><path clip-path="url(#clip580)" d="M2308.06 1466.44 Q2304.92 1466.44 2303.06 1468.59 Q2301.24 1470.74 2301.24 1474.49 Q2301.24 1478.22 2303.06 1480.39 Q2304.92 1482.55 2308.06 1482.55 Q2311.21 1482.55 2313.04 1480.39 Q2314.89 1478.22 2314.89 1474.49 Q2314.89 1470.74 2313.04 1468.59 Q2311.21 1466.44 2308.06 1466.44 M2317.35 1451.78 L2317.35 1456.04 Q2315.59 1455.21 2313.78 1454.77 Q2312 1454.33 2310.24 1454.33 Q2305.61 1454.33 2303.16 1457.45 Q2300.73 1460.58 2300.38 1466.9 Q2301.75 1464.89 2303.81 1463.82 Q2305.87 1462.73 2308.34 1462.73 Q2313.55 1462.73 2316.56 1465.9 Q2319.59 1469.05 2319.59 1474.49 Q2319.59 1479.82 2316.44 1483.03 Q2313.3 1486.25 2308.06 1486.25 Q2302.07 1486.25 2298.9 1481.67 Q2295.73 1477.06 2295.73 1468.33 Q2295.73 1460.14 2299.62 1455.28 Q2303.5 1450.39 2310.06 1450.39 Q2311.81 1450.39 2313.6 1450.74 Q2315.4 1451.09 2317.35 1451.78 Z" fill="#000000" fill-rule="nonzero" fill-opacity="1" /><path clip-path="url(#clip580)" d="M2327.65 1479.7 L2332.53 1479.7 L2332.53 1485.58 L2327.65 1485.58 L2327.65 1479.7 Z" fill="#000000" fill-rule="nonzero" fill-opacity="1" /><path clip-path="url(#clip580)" d="M2343.53 1481.64 L2351.17 1481.64 L2351.17 1455.28 L2342.86 1456.95 L2342.86 1452.69 L2351.12 1451.02 L2355.8 1451.02 L2355.8 1481.64 L2363.43 1481.64 L2363.43 1485.58 L2343.53 1485.58 L2343.53 1481.64 Z" fill="#000000" fill-rule="nonzero" fill-opacity="1" /><path clip-path="url(#clip580)" d="M1156.84 1526.86 L1148.12 1550.51 L1165.6 1550.51 L1156.84 1526.86 M1153.22 1520.52 L1160.5 1520.52 L1178.61 1568.04 L1171.93 1568.04 L1167.6 1555.85 L1146.18 1555.85 L1141.85 1568.04 L1135.07 1568.04 L1153.22 1520.52 Z" fill="#000000" fill-rule="nonzero" fill-opacity="1" /><path clip-path="url(#clip580)" d="M1208.76 1549.81 Q1208.76 1543.44 1206.11 1539.94 Q1203.5 1536.44 1198.76 1536.44 Q1194.05 1536.44 1191.41 1539.94 Q1188.8 1543.44 1188.8 1549.81 Q1188.8 1556.14 1191.41 1559.64 Q1194.05 1563.14 1198.76 1563.14 Q1203.5 1563.14 1206.11 1559.64 Q1208.76 1556.14 1208.76 1549.81 M1214.61 1563.62 Q1214.61 1572.72 1210.57 1577.15 Q1206.53 1581.6 1198.19 1581.6 Q1195.1 1581.6 1192.36 1581.13 Q1189.63 1580.68 1187.05 1579.72 L1187.05 1574.03 Q1189.63 1575.43 1192.14 1576.1 Q1194.66 1576.76 1197.27 1576.76 Q1203.03 1576.76 1205.89 1573.74 Q1208.76 1570.75 1208.76 1564.67 L1208.76 1561.77 Q1206.94 1564.92 1204.11 1566.48 Q1201.28 1568.04 1197.33 1568.04 Q1190.77 1568.04 1186.76 1563.05 Q1182.75 1558.05 1182.75 1549.81 Q1182.75 1541.53 1186.76 1536.53 Q1190.77 1531.54 1197.33 1531.54 Q1201.28 1531.54 1204.11 1533.1 Q1206.94 1534.66 1208.76 1537.81 L1208.76 1532.4 L1214.61 1532.4 L1214.61 1563.62 Z" fill="#000000" fill-rule="nonzero" fill-opacity="1" /><path clip-path="url(#clip580)" d="M1257.17 1548.76 L1257.17 1551.62 L1230.24 1551.62 Q1230.62 1557.67 1233.87 1560.85 Q1237.15 1564 1242.97 1564 Q1246.35 1564 1249.5 1563.17 Q1252.68 1562.35 1255.8 1560.69 L1255.8 1566.23 Q1252.65 1567.57 1249.34 1568.27 Q1246.03 1568.97 1242.62 1568.97 Q1234.09 1568.97 1229.09 1564 Q1224.13 1559.04 1224.13 1550.57 Q1224.13 1541.82 1228.84 1536.69 Q1233.58 1531.54 1241.6 1531.54 Q1248.8 1531.54 1252.97 1536.18 Q1257.17 1540.8 1257.17 1548.76 M1251.31 1547.04 Q1251.25 1542.23 1248.61 1539.37 Q1246 1536.5 1241.67 1536.5 Q1236.77 1536.5 1233.81 1539.27 Q1230.88 1542.04 1230.43 1547.07 L1251.31 1547.04 Z" fill="#000000" fill-rule="nonzero" fill-opacity="1" /><path clip-path="url(#clip580)" d="M1301.57 1518.58 Q1297.3 1525.9 1295.23 1533.06 Q1293.17 1540.23 1293.17 1547.58 Q1293.17 1554.93 1295.23 1562.16 Q1297.34 1569.35 1301.57 1576.64 L1296.48 1576.64 Q1291.7 1569.16 1289.31 1561.93 Q1286.96 1554.71 1286.96 1547.58 Q1286.96 1540.48 1289.31 1533.29 Q1291.67 1526.09 1296.48 1518.58 L1301.57 1518.58 Z" fill="#000000" fill-rule="nonzero" fill-opacity="1" /><path clip-path="url(#clip580)" d="M1313.19 1520.52 L1322.77 1520.52 L1334.89 1552.86 L1347.08 1520.52 L1356.66 1520.52 L1356.66 1568.04 L1350.39 1568.04 L1350.39 1526.32 L1338.14 1558.91 L1331.68 1558.91 L1319.42 1526.32 L1319.42 1568.04 L1313.19 1568.04 L1313.19 1520.52 Z" fill="#000000" fill-rule="nonzero" fill-opacity="1" /><path clip-path="url(#clip580)" d="M1385.37 1550.12 Q1378.28 1550.12 1375.54 1551.75 Q1372.8 1553.37 1372.8 1557.29 Q1372.8 1560.4 1374.84 1562.25 Q1376.91 1564.07 1380.44 1564.07 Q1385.31 1564.07 1388.24 1560.63 Q1391.2 1557.16 1391.2 1551.43 L1391.2 1550.12 L1385.37 1550.12 M1397.05 1547.71 L1397.05 1568.04 L1391.2 1568.04 L1391.2 1562.63 Q1389.19 1565.88 1386.2 1567.44 Q1383.21 1568.97 1378.88 1568.97 Q1373.41 1568.97 1370.16 1565.91 Q1366.94 1562.82 1366.94 1557.67 Q1366.94 1551.65 1370.95 1548.6 Q1375 1545.54 1382.99 1545.54 L1391.2 1545.54 L1391.2 1544.97 Q1391.2 1540.93 1388.52 1538.73 Q1385.88 1536.5 1381.08 1536.5 Q1378.02 1536.5 1375.12 1537.23 Q1372.23 1537.97 1369.55 1539.43 L1369.55 1534.02 Q1372.77 1532.78 1375.79 1532.17 Q1378.82 1531.54 1381.68 1531.54 Q1389.42 1531.54 1393.23 1535.55 Q1397.05 1539.56 1397.05 1547.71 Z" fill="#000000" fill-rule="nonzero" fill-opacity="1" /><path clip-path="url(#clip580)" d="M1408.19 1518.58 L1413.29 1518.58 Q1418.06 1526.09 1420.42 1533.29 Q1422.8 1540.48 1422.8 1547.58 Q1422.8 1554.71 1420.42 1561.93 Q1418.06 1569.16 1413.29 1576.64 L1408.19 1576.64 Q1412.43 1569.35 1414.5 1562.16 Q1416.6 1554.93 1416.6 1547.58 Q1416.6 1540.23 1414.5 1533.06 Q1412.43 1525.9 1408.19 1518.58 Z" fill="#000000" fill-rule="nonzero" fill-opacity="1" /><polyline clip-path="url(#clip580)" style="stroke:#000000; stroke-linecap:round; stroke-linejoin:round; stroke-width:4; stroke-opacity:1; fill:none" points="205.121,1423.18 205.121,47.2441 "/>
<polyline clip-path="url(#clip580)" style="stroke:#000000; stroke-linecap:round; stroke-linejoin:round; stroke-width:4; stroke-opacity:1; fill:none" points="2352.76,1423.18 2352.76,47.2441 "/>
<polyline clip-path="url(#clip580)" style="stroke:#000000; stroke-linecap:round; stroke-linejoin:round; stroke-width:4; stroke-opacity:1; fill:none" points="205.121,1384.24 224.019,1384.24 "/>
<polyline clip-path="url(#clip580)" style="stroke:#000000; stroke-linecap:round; stroke-linejoin:round; stroke-width:4; stroke-opacity:1; fill:none" points="205.121,1006.29 224.019,1006.29 "/>
<polyline clip-path="url(#clip580)" style="stroke:#000000; stroke-linecap:round; stroke-linejoin:round; stroke-width:4; stroke-opacity:1; fill:none" points="205.121,628.342 224.019,628.342 "/>
<polyline clip-path="url(#clip580)" style="stroke:#000000; stroke-linecap:round; stroke-linejoin:round; stroke-width:4; stroke-opacity:1; fill:none" points="205.121,250.393 224.019,250.393 "/>
<polyline clip-path="url(#clip580)" style="stroke:#000000; stroke-linecap:round; stroke-linejoin:round; stroke-width:4; stroke-opacity:1; fill:none" points="2352.76,1384.24 2333.86,1384.24 "/>
<polyline clip-path="url(#clip580)" style="stroke:#000000; stroke-linecap:round; stroke-linejoin:round; stroke-width:4; stroke-opacity:1; fill:none" points="2352.76,1006.29 2333.86,1006.29 "/>
<polyline clip-path="url(#clip580)" style="stroke:#000000; stroke-linecap:round; stroke-linejoin:round; stroke-width:4; stroke-opacity:1; fill:none" points="2352.76,628.342 2333.86,628.342 "/>
<polyline clip-path="url(#clip580)" style="stroke:#000000; stroke-linecap:round; stroke-linejoin:round; stroke-width:4; stroke-opacity:1; fill:none" points="2352.76,250.393 2333.86,250.393 "/>
<path clip-path="url(#clip580)" d="M157.177 1370.04 Q153.566 1370.04 151.737 1373.6 Q149.931 1377.14 149.931 1384.27 Q149.931 1391.38 151.737 1394.94 Q153.566 1398.49 157.177 1398.49 Q160.811 1398.49 162.616 1394.94 Q164.445 1391.38 164.445 1384.27 Q164.445 1377.14 162.616 1373.6 Q160.811 1370.04 157.177 1370.04 M157.177 1366.33 Q162.987 1366.33 166.042 1370.94 Q169.121 1375.52 169.121 1384.27 Q169.121 1393 166.042 1397.61 Q162.987 1402.19 157.177 1402.19 Q151.366 1402.19 148.288 1397.61 Q145.232 1393 145.232 1384.27 Q145.232 1375.52 148.288 1370.94 Q151.366 1366.33 157.177 1366.33 Z" fill="#000000" fill-rule="nonzero" fill-opacity="1" /><path clip-path="url(#clip580)" d="M121.043 1019.63 L137.362 1019.63 L137.362 1023.57 L115.418 1023.57 L115.418 1019.63 Q118.08 1016.88 122.663 1012.25 Q127.269 1007.6 128.45 1006.26 Q130.695 1003.73 131.575 1002 Q132.478 1000.24 132.478 998.547 Q132.478 995.792 130.533 994.056 Q128.612 992.32 125.51 992.32 Q123.311 992.32 120.857 993.084 Q118.427 993.848 115.649 995.399 L115.649 990.677 Q118.473 989.542 120.927 988.964 Q123.38 988.385 125.418 988.385 Q130.788 988.385 133.982 991.07 Q137.177 993.755 137.177 998.246 Q137.177 1000.38 136.367 1002.3 Q135.579 1004.2 133.473 1006.79 Q132.894 1007.46 129.792 1010.68 Q126.691 1013.87 121.043 1019.63 Z" fill="#000000" fill-rule="nonzero" fill-opacity="1" /><path clip-path="url(#clip580)" d="M157.177 992.089 Q153.566 992.089 151.737 995.653 Q149.931 999.195 149.931 1006.32 Q149.931 1013.43 151.737 1017 Q153.566 1020.54 157.177 1020.54 Q160.811 1020.54 162.616 1017 Q164.445 1013.43 164.445 1006.32 Q164.445 999.195 162.616 995.653 Q160.811 992.089 157.177 992.089 M157.177 988.385 Q162.987 988.385 166.042 992.991 Q169.121 997.575 169.121 1006.32 Q169.121 1015.05 166.042 1019.66 Q162.987 1024.24 157.177 1024.24 Q151.366 1024.24 148.288 1019.66 Q145.232 1015.05 145.232 1006.32 Q145.232 997.575 148.288 992.991 Q151.366 988.385 157.177 988.385 Z" fill="#000000" fill-rule="nonzero" fill-opacity="1" /><path clip-path="url(#clip580)" d="M129.862 615.136 L118.056 633.585 L129.862 633.585 L129.862 615.136 M128.635 611.062 L134.515 611.062 L134.515 633.585 L139.445 633.585 L139.445 637.474 L134.515 637.474 L134.515 645.622 L129.862 645.622 L129.862 637.474 L114.26 637.474 L114.26 632.96 L128.635 611.062 Z" fill="#000000" fill-rule="nonzero" fill-opacity="1" /><path clip-path="url(#clip580)" d="M157.177 614.14 Q153.566 614.14 151.737 617.705 Q149.931 621.247 149.931 628.376 Q149.931 635.483 151.737 639.048 Q153.566 642.589 157.177 642.589 Q160.811 642.589 162.616 639.048 Q164.445 635.483 164.445 628.376 Q164.445 621.247 162.616 617.705 Q160.811 614.14 157.177 614.14 M157.177 610.437 Q162.987 610.437 166.042 615.043 Q169.121 619.626 169.121 628.376 Q169.121 637.103 166.042 641.71 Q162.987 646.293 157.177 646.293 Q151.366 646.293 148.288 641.71 Q145.232 637.103 145.232 628.376 Q145.232 619.626 148.288 615.043 Q151.366 610.437 157.177 610.437 Z" fill="#000000" fill-rule="nonzero" fill-opacity="1" /><path clip-path="url(#clip580)" d="M127.593 248.53 Q124.445 248.53 122.593 250.683 Q120.765 252.836 120.765 256.586 Q120.765 260.312 122.593 262.488 Q124.445 264.641 127.593 264.641 Q130.742 264.641 132.57 262.488 Q134.422 260.312 134.422 256.586 Q134.422 252.836 132.57 250.683 Q130.742 248.53 127.593 248.53 M136.876 233.877 L136.876 238.137 Q135.117 237.303 133.311 236.863 Q131.529 236.424 129.769 236.424 Q125.14 236.424 122.686 239.549 Q120.255 242.674 119.908 248.993 Q121.274 246.979 123.334 245.914 Q125.394 244.826 127.871 244.826 Q133.08 244.826 136.089 247.998 Q139.121 251.146 139.121 256.586 Q139.121 261.91 135.973 265.127 Q132.825 268.345 127.593 268.345 Q121.598 268.345 118.427 263.761 Q115.256 259.155 115.256 250.428 Q115.256 242.234 119.144 237.373 Q123.033 232.488 129.584 232.488 Q131.343 232.488 133.126 232.836 Q134.931 233.183 136.876 233.877 Z" fill="#000000" fill-rule="nonzero" fill-opacity="1" /><path clip-path="url(#clip580)" d="M157.177 236.192 Q153.566 236.192 151.737 239.757 Q149.931 243.299 149.931 250.428 Q149.931 257.535 151.737 261.099 Q153.566 264.641 157.177 264.641 Q160.811 264.641 162.616 261.099 Q164.445 257.535 164.445 250.428 Q164.445 243.299 162.616 239.757 Q160.811 236.192 157.177 236.192 M157.177 232.488 Q162.987 232.488 166.042 237.095 Q169.121 241.678 169.121 250.428 Q169.121 259.155 166.042 263.761 Q162.987 268.345 157.177 268.345 Q151.366 268.345 148.288 263.761 Q145.232 259.155 145.232 250.428 Q145.232 241.678 148.288 237.095 Q151.366 232.488 157.177 232.488 Z" fill="#000000" fill-rule="nonzero" fill-opacity="1" /><path clip-path="url(#clip580)" d="M21.7677 1026.76 L39.6235 1026.76 L39.6235 1018.68 Q39.6235 1014.19 37.3 1011.74 Q34.9765 1009.29 30.6797 1009.29 Q26.4147 1009.29 24.0912 1011.74 Q21.7677 1014.19 21.7677 1018.68 L21.7677 1026.76 M16.4842 1033.19 L16.4842 1018.68 Q16.4842 1010.69 20.1126 1006.61 Q23.7092 1002.51 30.6797 1002.51 Q37.7138 1002.51 41.3104 1006.61 Q44.907 1010.69 44.907 1018.68 L44.907 1026.76 L64.0042 1026.76 L64.0042 1033.19 L16.4842 1033.19 Z" fill="#000000" fill-rule="nonzero" fill-opacity="1" /><path clip-path="url(#clip580)" d="M33.8307 974.626 Q33.2578 975.613 33.0032 976.791 Q32.7167 977.936 32.7167 979.337 Q32.7167 984.302 35.9632 986.976 Q39.1779 989.617 45.2253 989.617 L64.0042 989.617 L64.0042 995.506 L28.3562 995.506 L28.3562 989.617 L33.8944 989.617 Q30.6479 987.771 29.0883 984.811 Q27.4968 981.851 27.4968 977.618 Q27.4968 977.013 27.5923 976.281 Q27.656 975.549 27.8151 974.658 L33.8307 974.626 Z" fill="#000000" fill-rule="nonzero" fill-opacity="1" /><path clip-path="url(#clip580)" d="M32.4621 956.102 Q32.4621 960.813 36.1542 963.55 Q39.8145 966.287 46.212 966.287 Q52.6095 966.287 56.3017 963.582 Q59.9619 960.844 59.9619 956.102 Q59.9619 951.423 56.2698 948.686 Q52.5777 945.949 46.212 945.949 Q39.8781 945.949 36.186 948.686 Q32.4621 951.423 32.4621 956.102 M27.4968 956.102 Q27.4968 948.463 32.4621 944.103 Q37.4273 939.742 46.212 939.742 Q54.9649 939.742 59.9619 944.103 Q64.9272 948.463 64.9272 956.102 Q64.9272 963.773 59.9619 968.133 Q54.9649 972.462 46.212 972.462 Q37.4273 972.462 32.4621 968.133 Q27.4968 963.773 27.4968 956.102 Z" fill="#000000" fill-rule="nonzero" fill-opacity="1" /><path clip-path="url(#clip580)" d="M46.212 904.444 Q39.7508 904.444 36.0905 907.118 Q32.3984 909.76 32.3984 914.407 Q32.3984 919.054 36.0905 921.727 Q39.7508 924.369 46.212 924.369 Q52.6732 924.369 56.3653 921.727 Q60.0256 919.054 60.0256 914.407 Q60.0256 909.76 56.3653 907.118 Q52.6732 904.444 46.212 904.444 M33.7671 924.369 Q30.5842 922.523 29.0564 919.722 Q27.4968 916.889 27.4968 912.974 Q27.4968 906.481 32.6531 902.439 Q37.8093 898.365 46.212 898.365 Q54.6147 898.365 59.771 902.439 Q64.9272 906.481 64.9272 912.974 Q64.9272 916.889 63.3994 919.722 Q61.8398 922.523 58.657 924.369 L64.0042 924.369 L64.0042 930.257 L14.479 930.257 L14.479 924.369 L33.7671 924.369 Z" fill="#000000" fill-rule="nonzero" fill-opacity="1" /><path clip-path="url(#clip580)" d="M46.0847 872.457 Q46.0847 879.554 47.7079 882.292 Q49.3312 885.029 53.2461 885.029 Q56.3653 885.029 58.2114 882.992 Q60.0256 880.923 60.0256 877.39 Q60.0256 872.52 56.5881 869.592 Q53.1188 866.632 47.3897 866.632 L46.0847 866.632 L46.0847 872.457 M43.6657 860.776 L64.0042 860.776 L64.0042 866.632 L58.5933 866.632 Q61.8398 868.637 63.3994 871.629 Q64.9272 874.621 64.9272 878.95 Q64.9272 884.424 61.8716 887.671 Q58.7843 890.885 53.6281 890.885 Q47.6125 890.885 44.5569 886.875 Q41.5014 882.833 41.5014 874.844 L41.5014 866.632 L40.9285 866.632 Q36.8862 866.632 34.6901 869.306 Q32.4621 871.947 32.4621 876.753 Q32.4621 879.809 33.1941 882.705 Q33.9262 885.602 35.3903 888.275 L29.9795 888.275 Q28.7381 885.061 28.1334 882.037 Q27.4968 879.013 27.4968 876.149 Q27.4968 868.414 31.5072 864.595 Q35.5176 860.776 43.6657 860.776 Z" fill="#000000" fill-rule="nonzero" fill-opacity="1" /><path clip-path="url(#clip580)" d="M46.212 823.122 Q39.7508 823.122 36.0905 825.796 Q32.3984 828.438 32.3984 833.085 Q32.3984 837.732 36.0905 840.405 Q39.7508 843.047 46.212 843.047 Q52.6732 843.047 56.3653 840.405 Q60.0256 837.732 60.0256 833.085 Q60.0256 828.438 56.3653 825.796 Q52.6732 823.122 46.212 823.122 M33.7671 843.047 Q30.5842 841.201 29.0564 838.4 Q27.4968 835.567 27.4968 831.652 Q27.4968 825.159 32.6531 821.117 Q37.8093 817.043 46.212 817.043 Q54.6147 817.043 59.771 821.117 Q64.9272 825.159 64.9272 831.652 Q64.9272 835.567 63.3994 838.4 Q61.8398 841.201 58.657 843.047 L64.0042 843.047 L64.0042 848.935 L14.479 848.935 L14.479 843.047 L33.7671 843.047 Z" fill="#000000" fill-rule="nonzero" fill-opacity="1" /><path clip-path="url(#clip580)" d="M28.3562 807.335 L28.3562 801.479 L64.0042 801.479 L64.0042 807.335 L28.3562 807.335 M14.479 807.335 L14.479 801.479 L21.895 801.479 L21.895 807.335 L14.479 807.335 Z" fill="#000000" fill-rule="nonzero" fill-opacity="1" /><path clip-path="url(#clip580)" d="M14.479 789.225 L14.479 783.369 L64.0042 783.369 L64.0042 789.225 L14.479 789.225 Z" fill="#000000" fill-rule="nonzero" fill-opacity="1" /><path clip-path="url(#clip580)" d="M28.3562 771.115 L28.3562 765.258 L64.0042 765.258 L64.0042 771.115 L28.3562 771.115 M14.479 771.115 L14.479 765.258 L21.895 765.258 L21.895 771.115 L14.479 771.115 Z" fill="#000000" fill-rule="nonzero" fill-opacity="1" /><path clip-path="url(#clip580)" d="M18.2347 747.211 L28.3562 747.211 L28.3562 735.148 L32.9077 735.148 L32.9077 747.211 L52.2594 747.211 Q56.6199 747.211 57.8613 746.034 Q59.1026 744.824 59.1026 741.164 L59.1026 735.148 L64.0042 735.148 L64.0042 741.164 Q64.0042 747.943 61.4897 750.521 Q58.9434 753.1 52.2594 753.1 L32.9077 753.1 L32.9077 757.396 L28.3562 757.396 L28.3562 753.1 L18.2347 753.1 L18.2347 747.211 Z" fill="#000000" fill-rule="nonzero" fill-opacity="1" /><path clip-path="url(#clip580)" d="M67.3143 712.614 Q73.68 715.096 75.6216 717.452 Q77.5631 719.807 77.5631 723.754 L77.5631 728.432 L72.6615 728.432 L72.6615 724.995 Q72.6615 722.576 71.5157 721.239 Q70.3699 719.902 66.1048 718.279 L63.4312 717.229 L28.3562 731.647 L28.3562 725.441 L56.238 714.301 L28.3562 703.161 L28.3562 696.954 L67.3143 712.614 Z" fill="#000000" fill-rule="nonzero" fill-opacity="1" /><path clip-path="url(#clip580)" d="M33.7671 644.692 L14.479 644.692 L14.479 638.835 L64.0042 638.835 L64.0042 644.692 L58.657 644.692 Q61.8398 646.538 63.3994 649.37 Q64.9272 652.171 64.9272 656.118 Q64.9272 662.579 59.771 666.653 Q54.6147 670.696 46.212 670.696 Q37.8093 670.696 32.6531 666.653 Q27.4968 662.579 27.4968 656.118 Q27.4968 652.171 29.0564 649.37 Q30.5842 646.538 33.7671 644.692 M46.212 664.648 Q52.6732 664.648 56.3653 662.006 Q60.0256 659.333 60.0256 654.686 Q60.0256 650.039 56.3653 647.365 Q52.6732 644.692 46.212 644.692 Q39.7508 644.692 36.0905 647.365 Q32.3984 650.039 32.3984 654.686 Q32.3984 659.333 36.0905 662.006 Q39.7508 664.648 46.212 664.648 Z" fill="#000000" fill-rule="nonzero" fill-opacity="1" /><path clip-path="url(#clip580)" d="M44.7161 596.28 L47.5806 596.28 L47.5806 623.207 Q53.6281 622.825 56.8109 619.579 Q59.9619 616.301 59.9619 610.476 Q59.9619 607.102 59.1344 603.951 Q58.3069 600.768 56.6518 597.649 L62.1899 597.649 Q63.5267 600.8 64.227 604.11 Q64.9272 607.42 64.9272 610.826 Q64.9272 619.356 59.9619 624.353 Q54.9967 629.318 46.5303 629.318 Q37.7774 629.318 32.6531 624.608 Q27.4968 619.865 27.4968 611.845 Q27.4968 604.651 32.1438 600.482 Q36.7589 596.28 44.7161 596.28 M42.9973 602.137 Q38.1912 602.201 35.3266 604.842 Q32.4621 607.452 32.4621 611.781 Q32.4621 616.683 35.2312 619.643 Q38.0002 622.571 43.0292 623.016 L42.9973 602.137 Z" fill="#000000" fill-rule="nonzero" fill-opacity="1" /><path clip-path="url(#clip580)" d="M42.4881 557.036 L64.0042 557.036 L64.0042 562.892 L42.679 562.892 Q37.6183 562.892 35.1038 564.866 Q32.5894 566.839 32.5894 570.786 Q32.5894 575.528 35.6131 578.265 Q38.6368 581.003 43.8567 581.003 L64.0042 581.003 L64.0042 586.891 L28.3562 586.891 L28.3562 581.003 L33.8944 581.003 Q30.6797 578.902 29.0883 576.069 Q27.4968 573.205 27.4968 569.481 Q27.4968 563.338 31.3163 560.187 Q35.1038 557.036 42.4881 557.036 Z" fill="#000000" fill-rule="nonzero" fill-opacity="1" /><path clip-path="url(#clip580)" d="M29.4065 522.629 L34.9447 522.629 Q33.6716 525.112 33.035 527.785 Q32.3984 530.459 32.3984 533.324 Q32.3984 537.684 33.7352 539.88 Q35.072 542.045 37.7456 542.045 Q39.7826 542.045 40.9603 540.485 Q42.1061 538.925 43.1565 534.215 L43.6021 532.21 Q44.9389 525.971 47.3897 523.361 Q49.8086 520.719 54.1691 520.719 Q59.1344 520.719 62.0308 524.666 Q64.9272 528.581 64.9272 535.456 Q64.9272 538.321 64.3543 541.44 Q63.8132 544.527 62.6992 547.965 L56.6518 547.965 Q58.3387 544.718 59.198 541.567 Q60.0256 538.416 60.0256 535.329 Q60.0256 531.191 58.6251 528.963 Q57.1929 526.735 54.6147 526.735 Q52.2276 526.735 50.9545 528.358 Q49.6813 529.95 48.5037 535.392 L48.0262 537.429 Q46.8804 542.872 44.5251 545.291 Q42.138 547.71 38.0002 547.71 Q32.9713 547.71 30.2341 544.145 Q27.4968 540.58 27.4968 534.024 Q27.4968 530.777 27.9743 527.913 Q28.4517 525.048 29.4065 522.629 Z" fill="#000000" fill-rule="nonzero" fill-opacity="1" /><path clip-path="url(#clip580)" d="M28.3562 511.394 L28.3562 505.537 L64.0042 505.537 L64.0042 511.394 L28.3562 511.394 M14.479 511.394 L14.479 505.537 L21.895 505.537 L21.895 511.394 L14.479 511.394 Z" fill="#000000" fill-rule="nonzero" fill-opacity="1" /><path clip-path="url(#clip580)" d="M18.2347 487.49 L28.3562 487.49 L28.3562 475.427 L32.9077 475.427 L32.9077 487.49 L52.2594 487.49 Q56.6199 487.49 57.8613 486.313 Q59.1026 485.103 59.1026 481.443 L59.1026 475.427 L64.0042 475.427 L64.0042 481.443 Q64.0042 488.223 61.4897 490.801 Q58.9434 493.379 52.2594 493.379 L32.9077 493.379 L32.9077 497.676 L28.3562 497.676 L28.3562 493.379 L18.2347 493.379 L18.2347 487.49 Z" fill="#000000" fill-rule="nonzero" fill-opacity="1" /><path clip-path="url(#clip580)" d="M67.3143 452.893 Q73.68 455.376 75.6216 457.731 Q77.5631 460.086 77.5631 464.033 L77.5631 468.712 L72.6615 468.712 L72.6615 465.274 Q72.6615 462.855 71.5157 461.518 Q70.3699 460.182 66.1048 458.558 L63.4312 457.508 L28.3562 471.926 L28.3562 465.72 L56.238 454.58 L28.3562 443.44 L28.3562 437.233 L67.3143 452.893 Z" fill="#000000" fill-rule="nonzero" fill-opacity="1" /><polyline clip-path="url(#clip582)" style="stroke:#009af9; stroke-linecap:round; stroke-linejoin:round; stroke-width:4; stroke-opacity:1; fill:none" points="265.903,1384.23 332.697,1384.23 354.961,1384.23 377.226,1384.23 399.49,1384.23 421.755,1384.24 444.019,1384.24 466.284,1384.2 488.548,1384.24 510.813,1384.21 533.077,1384.2 555.342,1384.22 577.606,1384.2 599.871,1384.21 622.135,1384.21 644.4,1384.21 666.664,1384.15 688.929,1384.21 711.193,1384.21 733.458,1384.2 755.722,1384.21 777.987,1384.21 800.251,1384.22 822.516,1384.14 844.78,1384.17 867.045,1384.08 889.309,1384.18 911.574,1384.1 933.838,1384.05 956.103,1384.04 978.368,1383.94 1000.63,1384.05 1022.9,1383.72 1045.16,1383.75 1067.43,1383.79 1089.69,1383.88 1111.95,1383.7 1134.22,1383.43 1156.48,1383.23 1178.75,1383.4 1201.01,1383.21 1223.28,1382.96 1245.54,1382.65 1267.81,1382.16 1290.07,1381.83 1312.34,1381.75 1334.6,1380.32 1356.86,1379.45 1379.13,1378.97 1401.39,1377.5 1423.66,1372.99 1445.92,1369.6 1468.19,1366.94 1490.45,1366.34 1512.72,1364.2 1534.98,1363.8 1557.24,1361.18 1579.51,1362.49 1601.77,1365.55 1624.04,1363.62 1646.3,1362.17 1668.57,1361.46 1690.83,1360.25 1713.1,1358.97 1735.36,1357.63 1757.63,1356.89 1779.89,1354.29 1802.15,1354.89 1824.42,1352.42 1846.68,1350.02 1868.95,1350.19 1891.21,1346.01 1913.48,1344.15 1935.74,1341.74 1958.01,1345.26 1980.27,1347.67 2002.54,1350.63 2024.8,1351.17 2047.06,1288.27 2069.33,1088.23 2091.59,1176.64 2113.86,1242.62 2136.12,1302.13 2158.39,1343.24 2180.65,1361.64 2202.92,1370.68 2225.18,1380.23 2247.44,1382.89 2269.71,1384.01 2291.97,1384.19 "/>
<polyline clip-path="url(#clip582)" style="stroke:#e26f46; stroke-linecap:round; stroke-linejoin:round; stroke-width:4; stroke-opacity:1; fill:none" points="265.903,1384.24 332.697,1384.24 354.961,1384.24 377.226,1384.24 399.49,1384.24 421.755,1384.24 444.019,1384.24 466.284,1384.24 488.548,1384.24 510.813,1384.24 533.077,1384.24 555.342,1384.24 577.606,1384.24 599.871,1384.24 622.135,1384.24 644.4,1384.24 666.664,1384.24 688.929,1384.24 711.193,1384.24 733.458,1384.24 755.722,1384.24 777.987,1384.24 800.251,1384.24 822.516,1384.24 844.78,1384.24 867.045,1384.24 889.309,1384.24 911.574,1384.24 933.838,1384.24 956.103,1384.24 978.368,1384.24 1000.63,1384.24 1022.9,1384.24 1045.16,1384.24 1067.43,1384.24 1089.69,1384.24 1111.95,1384.24 1134.22,1384.24 1156.48,1384.24 1178.75,1384.24 1201.01,1384.24 1223.28,1384.24 1245.54,1384.24 1267.81,1384.24 1290.07,1384.24 1312.34,1384.24 1334.6,1384.24 1356.86,1384.24 1379.13,1384.24 1401.39,1384.24 1423.66,1384.24 1445.92,1384.24 1468.19,1384.24 1490.45,1384.24 1512.72,1384.24 1534.98,1384.24 1557.24,1384.24 1579.51,1384.24 1601.77,1384.24 1624.04,1384.24 1646.3,1384.24 1668.57,1384.24 1690.83,1384.24 1713.1,1384.24 1735.36,1384.24 1757.63,1384.24 1779.89,1384.23 1802.15,1384.23 1824.42,1384.21 1846.68,1384.16 1868.95,1384.02 1891.21,1383.67 1913.48,1382.75 1935.74,1380.32 1958.01,1373.94 1980.27,1357.14 2002.54,1312.94 2024.8,1196.67 2047.06,890.763 2069.33,86.1857 2091.59,428.715 2113.86,809.88 2136.12,1039 2158.39,1176.72 2180.65,1259.5 2202.92,1309.26 2225.18,1339.17 2247.44,1357.15 2269.71,1367.95 2291.97,1374.45 "/>
<path clip-path="url(#clip580)" d="M276.709 248.629 L825.776 248.629 L825.776 93.1086 L276.709 93.1086  Z" fill="#ffffff" fill-rule="evenodd" fill-opacity="1"/>
<polyline clip-path="url(#clip580)" style="stroke:#ffffff; stroke-linecap:round; stroke-linejoin:round; stroke-width:4; stroke-opacity:1; fill:none" points="276.709,248.629 825.776,248.629 825.776,93.1086 276.709,93.1086 276.709,248.629 "/>
<polyline clip-path="url(#clip580)" style="stroke:#009af9; stroke-linecap:round; stroke-linejoin:round; stroke-width:4; stroke-opacity:1; fill:none" points="300.571,144.949 443.747,144.949 "/>
<path clip-path="url(#clip580)" d="M467.61 127.669 L472.286 127.669 L472.286 141.835 L489.276 141.835 L489.276 127.669 L493.952 127.669 L493.952 162.229 L489.276 162.229 L489.276 145.77 L472.286 145.77 L472.286 162.229 L467.61 162.229 L467.61 127.669 Z" fill="#000000" fill-rule="nonzero" fill-opacity="1" /><path clip-path="url(#clip580)" d="M503.072 136.303 L507.332 136.303 L507.332 162.229 L503.072 162.229 L503.072 136.303 M503.072 126.21 L507.332 126.21 L507.332 131.604 L503.072 131.604 L503.072 126.21 Z" fill="#000000" fill-rule="nonzero" fill-opacity="1" /><path clip-path="url(#clip580)" d="M532.771 137.067 L532.771 141.094 Q530.966 140.169 529.021 139.706 Q527.077 139.243 524.994 139.243 Q521.822 139.243 520.225 140.215 Q518.651 141.187 518.651 143.131 Q518.651 144.613 519.785 145.469 Q520.92 146.303 524.345 147.067 L525.804 147.391 Q530.341 148.363 532.239 150.145 Q534.16 151.905 534.16 155.076 Q534.16 158.687 531.29 160.793 Q528.443 162.9 523.443 162.9 Q521.359 162.9 519.091 162.483 Q516.846 162.09 514.346 161.28 L514.346 156.881 Q516.707 158.108 518.998 158.733 Q521.29 159.335 523.535 159.335 Q526.545 159.335 528.165 158.317 Q529.785 157.275 529.785 155.4 Q529.785 153.664 528.605 152.738 Q527.447 151.812 523.489 150.956 L522.008 150.608 Q518.049 149.775 516.29 148.062 Q514.531 146.326 514.531 143.317 Q514.531 139.659 517.123 137.669 Q519.716 135.678 524.484 135.678 Q526.845 135.678 528.929 136.025 Q531.012 136.372 532.771 137.067 Z" fill="#000000" fill-rule="nonzero" fill-opacity="1" /><path clip-path="url(#clip580)" d="M545.156 128.942 L545.156 136.303 L553.929 136.303 L553.929 139.613 L545.156 139.613 L545.156 153.687 Q545.156 156.858 546.012 157.761 Q546.892 158.664 549.554 158.664 L553.929 158.664 L553.929 162.229 L549.554 162.229 Q544.623 162.229 542.748 160.4 Q540.873 158.548 540.873 153.687 L540.873 139.613 L537.748 139.613 L537.748 136.303 L540.873 136.303 L540.873 128.942 L545.156 128.942 Z" fill="#000000" fill-rule="nonzero" fill-opacity="1" /><path clip-path="url(#clip580)" d="M569.577 139.289 Q566.151 139.289 564.16 141.974 Q562.169 144.636 562.169 149.289 Q562.169 153.942 564.137 156.627 Q566.128 159.289 569.577 159.289 Q572.979 159.289 574.97 156.604 Q576.961 153.918 576.961 149.289 Q576.961 144.682 574.97 141.997 Q572.979 139.289 569.577 139.289 M569.577 135.678 Q575.132 135.678 578.304 139.289 Q581.475 142.9 581.475 149.289 Q581.475 155.655 578.304 159.289 Q575.132 162.9 569.577 162.9 Q563.998 162.9 560.827 159.289 Q557.679 155.655 557.679 149.289 Q557.679 142.9 560.827 139.289 Q563.998 135.678 569.577 135.678 Z" fill="#000000" fill-rule="nonzero" fill-opacity="1" /><path clip-path="url(#clip580)" d="M605.595 148.965 Q605.595 144.335 603.674 141.789 Q601.776 139.243 598.327 139.243 Q594.901 139.243 592.979 141.789 Q591.081 144.335 591.081 148.965 Q591.081 153.571 592.979 156.118 Q594.901 158.664 598.327 158.664 Q601.776 158.664 603.674 156.118 Q605.595 153.571 605.595 148.965 M609.854 159.011 Q609.854 165.631 606.914 168.849 Q603.975 172.09 597.91 172.09 Q595.665 172.09 593.674 171.742 Q591.683 171.418 589.808 170.724 L589.808 166.58 Q591.683 167.599 593.512 168.085 Q595.34 168.571 597.239 168.571 Q601.428 168.571 603.512 166.372 Q605.595 164.196 605.595 159.775 L605.595 157.668 Q604.276 159.96 602.215 161.094 Q600.155 162.229 597.285 162.229 Q592.516 162.229 589.6 158.594 Q586.683 154.96 586.683 148.965 Q586.683 142.946 589.6 139.312 Q592.516 135.678 597.285 135.678 Q600.155 135.678 602.215 136.812 Q604.276 137.946 605.595 140.238 L605.595 136.303 L609.854 136.303 L609.854 159.011 Z" fill="#000000" fill-rule="nonzero" fill-opacity="1" /><path clip-path="url(#clip580)" d="M633.65 140.284 Q632.933 139.868 632.076 139.682 Q631.243 139.474 630.225 139.474 Q626.613 139.474 624.669 141.835 Q622.748 144.173 622.748 148.571 L622.748 162.229 L618.465 162.229 L618.465 136.303 L622.748 136.303 L622.748 140.331 Q624.09 137.969 626.243 136.835 Q628.396 135.678 631.475 135.678 Q631.914 135.678 632.447 135.747 Q632.979 135.794 633.627 135.909 L633.65 140.284 Z" fill="#000000" fill-rule="nonzero" fill-opacity="1" /><path clip-path="url(#clip580)" d="M649.9 149.196 Q644.738 149.196 642.748 150.377 Q640.757 151.557 640.757 154.405 Q640.757 156.673 642.238 158.016 Q643.743 159.335 646.312 159.335 Q649.854 159.335 651.984 156.835 Q654.136 154.312 654.136 150.145 L654.136 149.196 L649.9 149.196 M658.396 147.437 L658.396 162.229 L654.136 162.229 L654.136 158.293 Q652.678 160.655 650.502 161.789 Q648.326 162.9 645.178 162.9 Q641.197 162.9 638.836 160.678 Q636.498 158.432 636.498 154.682 Q636.498 150.307 639.414 148.085 Q642.354 145.863 648.164 145.863 L654.136 145.863 L654.136 145.446 Q654.136 142.507 652.192 140.909 Q650.271 139.289 646.775 139.289 Q644.553 139.289 642.447 139.821 Q640.34 140.354 638.396 141.419 L638.396 137.483 Q640.734 136.581 642.933 136.141 Q645.132 135.678 647.215 135.678 Q652.84 135.678 655.618 138.594 Q658.396 141.511 658.396 147.437 Z" fill="#000000" fill-rule="nonzero" fill-opacity="1" /><path clip-path="url(#clip580)" d="M687.354 141.28 Q688.951 138.409 691.173 137.044 Q693.396 135.678 696.405 135.678 Q700.456 135.678 702.655 138.525 Q704.854 141.349 704.854 146.581 L704.854 162.229 L700.571 162.229 L700.571 146.719 Q700.571 142.993 699.252 141.187 Q697.933 139.382 695.224 139.382 Q691.914 139.382 689.993 141.581 Q688.071 143.78 688.071 147.576 L688.071 162.229 L683.789 162.229 L683.789 146.719 Q683.789 142.969 682.47 141.187 Q681.15 139.382 678.396 139.382 Q675.132 139.382 673.21 141.604 Q671.289 143.803 671.289 147.576 L671.289 162.229 L667.007 162.229 L667.007 136.303 L671.289 136.303 L671.289 140.331 Q672.747 137.946 674.785 136.812 Q676.822 135.678 679.622 135.678 Q682.447 135.678 684.414 137.113 Q686.405 138.548 687.354 141.28 Z" fill="#000000" fill-rule="nonzero" fill-opacity="1" /><polyline clip-path="url(#clip580)" style="stroke:#e26f46; stroke-linecap:round; stroke-linejoin:round; stroke-width:4; stroke-opacity:1; fill:none" points="300.571,196.789 443.747,196.789 "/>
<path clip-path="url(#clip580)" d="M472.286 183.351 L472.286 210.226 L477.934 210.226 Q485.086 210.226 488.397 206.985 Q491.73 203.745 491.73 196.754 Q491.73 189.809 488.397 186.592 Q485.086 183.351 477.934 183.351 L472.286 183.351 M467.61 179.509 L477.216 179.509 Q487.262 179.509 491.961 183.698 Q496.66 187.865 496.66 196.754 Q496.66 205.689 491.938 209.879 Q487.216 214.069 477.216 214.069 L467.61 214.069 L467.61 179.509 Z" fill="#000000" fill-rule="nonzero" fill-opacity="1" /><path clip-path="url(#clip580)" d="M503.929 188.143 L508.188 188.143 L508.188 214.069 L503.929 214.069 L503.929 188.143 M503.929 178.05 L508.188 178.05 L508.188 183.444 L503.929 183.444 L503.929 178.05 Z" fill="#000000" fill-rule="nonzero" fill-opacity="1" /><path clip-path="url(#clip580)" d="M533.628 188.907 L533.628 192.934 Q531.822 192.009 529.878 191.546 Q527.933 191.083 525.85 191.083 Q522.679 191.083 521.082 192.055 Q519.508 193.027 519.508 194.971 Q519.508 196.453 520.642 197.309 Q521.776 198.143 525.202 198.907 L526.66 199.231 Q531.197 200.203 533.095 201.985 Q535.017 203.745 535.017 206.916 Q535.017 210.527 532.146 212.633 Q529.299 214.74 524.299 214.74 Q522.216 214.74 519.947 214.323 Q517.702 213.93 515.202 213.12 L515.202 208.721 Q517.563 209.948 519.855 210.573 Q522.146 211.175 524.392 211.175 Q527.401 211.175 529.021 210.157 Q530.642 209.115 530.642 207.24 Q530.642 205.504 529.461 204.578 Q528.304 203.652 524.345 202.796 L522.864 202.448 Q518.906 201.615 517.146 199.902 Q515.387 198.166 515.387 195.157 Q515.387 191.499 517.98 189.509 Q520.572 187.518 525.341 187.518 Q527.702 187.518 529.785 187.865 Q531.869 188.212 533.628 188.907 Z" fill="#000000" fill-rule="nonzero" fill-opacity="1" /><path clip-path="url(#clip580)" d="M546.012 180.782 L546.012 188.143 L554.785 188.143 L554.785 191.453 L546.012 191.453 L546.012 205.527 Q546.012 208.698 546.869 209.601 Q547.748 210.504 550.41 210.504 L554.785 210.504 L554.785 214.069 L550.41 214.069 Q545.48 214.069 543.605 212.24 Q541.73 210.388 541.73 205.527 L541.73 191.453 L538.605 191.453 L538.605 188.143 L541.73 188.143 L541.73 180.782 L546.012 180.782 Z" fill="#000000" fill-rule="nonzero" fill-opacity="1" /><path clip-path="url(#clip580)" d="M575.41 192.124 Q574.692 191.708 573.836 191.522 Q573.003 191.314 571.984 191.314 Q568.373 191.314 566.429 193.675 Q564.507 196.013 564.507 200.411 L564.507 214.069 L560.225 214.069 L560.225 188.143 L564.507 188.143 L564.507 192.171 Q565.85 189.809 568.003 188.675 Q570.155 187.518 573.234 187.518 Q573.674 187.518 574.206 187.587 Q574.739 187.634 575.387 187.749 L575.41 192.124 Z" fill="#000000" fill-rule="nonzero" fill-opacity="1" /><path clip-path="url(#clip580)" d="M579.878 188.143 L584.137 188.143 L584.137 214.069 L579.878 214.069 L579.878 188.143 M579.878 178.05 L584.137 178.05 L584.137 183.444 L579.878 183.444 L579.878 178.05 Z" fill="#000000" fill-rule="nonzero" fill-opacity="1" /><path clip-path="url(#clip580)" d="M611.66 201.129 Q611.66 196.43 609.715 193.768 Q607.794 191.083 604.415 191.083 Q601.035 191.083 599.09 193.768 Q597.169 196.43 597.169 201.129 Q597.169 205.828 599.09 208.513 Q601.035 211.175 604.415 211.175 Q607.794 211.175 609.715 208.513 Q611.66 205.828 611.66 201.129 M597.169 192.078 Q598.512 189.763 600.549 188.652 Q602.609 187.518 605.456 187.518 Q610.178 187.518 613.118 191.268 Q616.081 195.018 616.081 201.129 Q616.081 207.24 613.118 210.99 Q610.178 214.74 605.456 214.74 Q602.609 214.74 600.549 213.629 Q598.512 212.495 597.169 210.18 L597.169 214.069 L592.887 214.069 L592.887 178.05 L597.169 178.05 L597.169 192.078 Z" fill="#000000" fill-rule="nonzero" fill-opacity="1" /><path clip-path="url(#clip580)" d="M622.701 203.837 L622.701 188.143 L626.961 188.143 L626.961 203.675 Q626.961 207.356 628.396 209.208 Q629.831 211.036 632.701 211.036 Q636.15 211.036 638.141 208.837 Q640.155 206.638 640.155 202.842 L640.155 188.143 L644.414 188.143 L644.414 214.069 L640.155 214.069 L640.155 210.087 Q638.604 212.448 636.544 213.606 Q634.507 214.74 631.799 214.74 Q627.331 214.74 625.016 211.962 Q622.701 209.184 622.701 203.837 M633.419 187.518 L633.419 187.518 Z" fill="#000000" fill-rule="nonzero" fill-opacity="1" /><path clip-path="url(#clip580)" d="M657.4 180.782 L657.4 188.143 L666.173 188.143 L666.173 191.453 L657.4 191.453 L657.4 205.527 Q657.4 208.698 658.257 209.601 Q659.136 210.504 661.798 210.504 L666.173 210.504 L666.173 214.069 L661.798 214.069 Q656.868 214.069 654.993 212.24 Q653.118 210.388 653.118 205.527 L653.118 191.453 L649.993 191.453 L649.993 188.143 L653.118 188.143 L653.118 180.782 L657.4 180.782 Z" fill="#000000" fill-rule="nonzero" fill-opacity="1" /><path clip-path="url(#clip580)" d="M671.775 188.143 L676.034 188.143 L676.034 214.069 L671.775 214.069 L671.775 188.143 M671.775 178.05 L676.034 178.05 L676.034 183.444 L671.775 183.444 L671.775 178.05 Z" fill="#000000" fill-rule="nonzero" fill-opacity="1" /><path clip-path="url(#clip580)" d="M694.993 191.129 Q691.567 191.129 689.576 193.814 Q687.585 196.476 687.585 201.129 Q687.585 205.782 689.553 208.467 Q691.544 211.129 694.993 211.129 Q698.395 211.129 700.386 208.444 Q702.377 205.758 702.377 201.129 Q702.377 196.522 700.386 193.837 Q698.395 191.129 694.993 191.129 M694.993 187.518 Q700.548 187.518 703.72 191.129 Q706.891 194.74 706.891 201.129 Q706.891 207.495 703.72 211.129 Q700.548 214.74 694.993 214.74 Q689.414 214.74 686.243 211.129 Q683.095 207.495 683.095 201.129 Q683.095 194.74 686.243 191.129 Q689.414 187.518 694.993 187.518 Z" fill="#000000" fill-rule="nonzero" fill-opacity="1" /><path clip-path="url(#clip580)" d="M735.502 198.421 L735.502 214.069 L731.243 214.069 L731.243 198.559 Q731.243 194.879 729.807 193.05 Q728.372 191.222 725.502 191.222 Q722.053 191.222 720.062 193.421 Q718.071 195.62 718.071 199.416 L718.071 214.069 L713.789 214.069 L713.789 188.143 L718.071 188.143 L718.071 192.171 Q719.599 189.833 721.659 188.675 Q723.743 187.518 726.451 187.518 Q730.918 187.518 733.21 190.296 Q735.502 193.05 735.502 198.421 Z" fill="#000000" fill-rule="nonzero" fill-opacity="1" /><path clip-path="url(#clip580)" d="M772.191 178.05 L772.191 181.592 L768.117 181.592 Q765.826 181.592 764.923 182.518 Q764.043 183.444 764.043 185.851 L764.043 188.143 L771.057 188.143 L771.057 191.453 L764.043 191.453 L764.043 214.069 L759.761 214.069 L759.761 191.453 L755.687 191.453 L755.687 188.143 L759.761 188.143 L759.761 186.337 Q759.761 182.009 761.775 180.041 Q763.789 178.05 768.164 178.05 L772.191 178.05 Z" fill="#000000" fill-rule="nonzero" fill-opacity="1" /><path clip-path="url(#clip580)" d="M775.756 188.143 L780.015 188.143 L780.015 214.069 L775.756 214.069 L775.756 188.143 M775.756 178.05 L780.015 178.05 L780.015 183.444 L775.756 183.444 L775.756 178.05 Z" fill="#000000" fill-rule="nonzero" fill-opacity="1" /><path clip-path="url(#clip580)" d="M793.14 180.782 L793.14 188.143 L801.913 188.143 L801.913 191.453 L793.14 191.453 L793.14 205.527 Q793.14 208.698 793.997 209.601 Q794.876 210.504 797.538 210.504 L801.913 210.504 L801.913 214.069 L797.538 214.069 Q792.608 214.069 790.733 212.24 Q788.858 210.388 788.858 205.527 L788.858 191.453 L785.733 191.453 L785.733 188.143 L788.858 188.143 L788.858 180.782 L793.14 180.782 Z" fill="#000000" fill-rule="nonzero" fill-opacity="1" /></svg>
