<?xml version="1.0" encoding="utf-8"?>
<svg xmlns="http://www.w3.org/2000/svg" xmlns:xlink="http://www.w3.org/1999/xlink" width="600" height="400" viewBox="0 0 2400 1600">
<defs>
  <clipPath id="clip340">
    <rect x="0" y="0" width="2400" height="1600"/>
  </clipPath>
</defs>
<path clip-path="url(#clip340)" d="M0 1600 L2400 1600 L2400 8.88178e-14 L0 8.88178e-14  Z" fill="#ffffff" fill-rule="evenodd" fill-opacity="1"/>
<defs>
  <clipPath id="clip341">
    <rect x="480" y="0" width="1681" height="1600"/>
  </clipPath>
</defs>
<path clip-path="url(#clip340)" d="M279.519 1552.76 L2352.76 1552.76 L2352.76 47.2441 L279.519 47.2441  Z" fill="#ffffff" fill-rule="evenodd" fill-opacity="1"/>
<defs>
  <clipPath id="clip342">
    <rect x="279" y="47" width="2074" height="1507"/>
  </clipPath>
</defs>
<polyline clip-path="url(#clip342)" style="stroke:#000000; stroke-linecap:round; stroke-linejoin:round; stroke-width:2; stroke-opacity:0.1; fill:none" points="279.519,1398.55 2352.76,1398.55 "/>
<polyline clip-path="url(#clip342)" style="stroke:#000000; stroke-linecap:round; stroke-linejoin:round; stroke-width:2; stroke-opacity:0.1; fill:none" points="279.519,1144.93 2352.76,1144.93 "/>
<polyline clip-path="url(#clip342)" style="stroke:#000000; stroke-linecap:round; stroke-linejoin:round; stroke-width:2; stroke-opacity:0.1; fill:none" points="279.519,891.305 2352.76,891.305 "/>
<polyline clip-path="url(#clip342)" style="stroke:#000000; stroke-linecap:round; stroke-linejoin:round; stroke-width:2; stroke-opacity:0.1; fill:none" points="279.519,637.681 2352.76,637.681 "/>
<polyline clip-path="url(#clip342)" style="stroke:#000000; stroke-linecap:round; stroke-linejoin:round; stroke-width:2; stroke-opacity:0.1; fill:none" points="279.519,384.057 2352.76,384.057 "/>
<polyline clip-path="url(#clip342)" style="stroke:#000000; stroke-linecap:round; stroke-linejoin:round; stroke-width:2; stroke-opacity:0.1; fill:none" points="279.519,130.433 2352.76,130.433 "/>
<polyline clip-path="url(#clip342)" style="stroke:#000000; stroke-linecap:round; stroke-linejoin:round; stroke-width:2; stroke-opacity:0.1; fill:none" points="279.519,1398.55 2352.76,1398.55 "/>
<polyline clip-path="url(#clip342)" style="stroke:#000000; stroke-linecap:round; stroke-linejoin:round; stroke-width:2; stroke-opacity:0.1; fill:none" points="279.519,1144.93 2352.76,1144.93 "/>
<polyline clip-path="url(#clip342)" style="stroke:#000000; stroke-linecap:round; stroke-linejoin:round; stroke-width:2; stroke-opacity:0.1; fill:none" points="279.519,891.305 2352.76,891.305 "/>
<polyline clip-path="url(#clip342)" style="stroke:#000000; stroke-linecap:round; stroke-linejoin:round; stroke-width:2; stroke-opacity:0.1; fill:none" points="279.519,637.681 2352.76,637.681 "/>
<polyline clip-path="url(#clip342)" style="stroke:#000000; stroke-linecap:round; stroke-linejoin:round; stroke-width:2; stroke-opacity:0.1; fill:none" points="279.519,384.057 2352.76,384.057 "/>
<polyline clip-path="url(#clip342)" style="stroke:#000000; stroke-linecap:round; stroke-linejoin:round; stroke-width:2; stroke-opacity:0.1; fill:none" points="279.519,130.433 2352.76,130.433 "/>
<polyline clip-path="url(#clip340)" style="stroke:#000000; stroke-linecap:round; stroke-linejoin:round; stroke-width:4; stroke-opacity:1; fill:none" points="279.519,1552.76 2352.76,1552.76 "/>
<polyline clip-path="url(#clip340)" style="stroke:#000000; stroke-linecap:round; stroke-linejoin:round; stroke-width:4; stroke-opacity:1; fill:none" points="279.519,47.2441 2352.76,47.2441 "/>
<polyline clip-path="url(#clip340)" style="stroke:#000000; stroke-linecap:round; stroke-linejoin:round; stroke-width:4; stroke-opacity:1; fill:none" points="279.519,1552.76 279.519,47.2441 "/>
<polyline clip-path="url(#clip340)" style="stroke:#000000; stroke-linecap:round; stroke-linejoin:round; stroke-width:4; stroke-opacity:1; fill:none" points="2352.76,1552.76 2352.76,47.2441 "/>
<polyline clip-path="url(#clip340)" style="stroke:#000000; stroke-linecap:round; stroke-linejoin:round; stroke-width:4; stroke-opacity:1; fill:none" points="279.519,1398.55 298.416,1398.55 "/>
<polyline clip-path="url(#clip340)" style="stroke:#000000; stroke-linecap:round; stroke-linejoin:round; stroke-width:4; stroke-opacity:1; fill:none" points="279.519,1144.93 298.416,1144.93 "/>
<polyline clip-path="url(#clip340)" style="stroke:#000000; stroke-linecap:round; stroke-linejoin:round; stroke-width:4; stroke-opacity:1; fill:none" points="279.519,891.305 298.416,891.305 "/>
<polyline clip-path="url(#clip340)" style="stroke:#000000; stroke-linecap:round; stroke-linejoin:round; stroke-width:4; stroke-opacity:1; fill:none" points="279.519,637.681 298.416,637.681 "/>
<polyline clip-path="url(#clip340)" style="stroke:#000000; stroke-linecap:round; stroke-linejoin:round; stroke-width:4; stroke-opacity:1; fill:none" points="279.519,384.057 298.416,384.057 "/>
<polyline clip-path="url(#clip340)" style="stroke:#000000; stroke-linecap:round; stroke-linejoin:round; stroke-width:4; stroke-opacity:1; fill:none" points="279.519,130.433 298.416,130.433 "/>
<polyline clip-path="url(#clip340)" style="stroke:#000000; stroke-linecap:round; stroke-linejoin:round; stroke-width:4; stroke-opacity:1; fill:none" points="2352.76,1398.55 2333.86,1398.55 "/>
<polyline clip-path="url(#clip340)" style="stroke:#000000; stroke-linecap:round; stroke-linejoin:round; stroke-width:4; stroke-opacity:1; fill:none" points="2352.76,1144.93 2333.86,1144.93 "/>
<polyline clip-path="url(#clip340)" style="stroke:#000000; stroke-linecap:round; stroke-linejoin:round; stroke-width:4; stroke-opacity:1; fill:none" points="2352.76,891.305 2333.86,891.305 "/>
<polyline clip-path="url(#clip340)" style="stroke:#000000; stroke-linecap:round; stroke-linejoin:round; stroke-width:4; stroke-opacity:1; fill:none" points="2352.76,637.681 2333.86,637.681 "/>
<polyline clip-path="url(#clip340)" style="stroke:#000000; stroke-linecap:round; stroke-linejoin:round; stroke-width:4; stroke-opacity:1; fill:none" points="2352.76,384.057 2333.86,384.057 "/>
<polyline clip-path="url(#clip340)" style="stroke:#000000; stroke-linecap:round; stroke-linejoin:round; stroke-width:4; stroke-opacity:1; fill:none" points="2352.76,130.433 2333.86,130.433 "/>
<path clip-path="url(#clip340)" d="M126.598 1396.69 Q123.45 1396.69 121.598 1398.84 Q119.769 1400.99 119.769 1404.74 Q119.769 1408.47 121.598 1410.65 Q123.45 1412.8 126.598 1412.8 Q129.746 1412.8 131.575 1410.65 Q133.427 1408.47 133.427 1404.74 Q133.427 1400.99 131.575 1398.84 Q129.746 1396.69 126.598 1396.69 M135.88 1382.04 L135.88 1386.3 Q134.121 1385.46 132.316 1385.02 Q130.533 1384.58 128.774 1384.58 Q124.144 1384.58 121.691 1387.71 Q119.26 1390.83 118.913 1397.15 Q120.279 1395.14 122.339 1394.07 Q124.399 1392.99 126.876 1392.99 Q132.084 1392.99 135.093 1396.16 Q138.126 1399.3 138.126 1404.74 Q138.126 1410.07 134.978 1413.29 Q131.83 1416.5 126.598 1416.5 Q120.603 1416.5 117.431 1411.92 Q114.26 1407.31 114.26 1398.59 Q114.26 1390.39 118.149 1385.53 Q122.038 1380.65 128.589 1380.65 Q130.348 1380.65 132.13 1380.99 Q133.936 1381.34 135.88 1382.04 Z" fill="#000000" fill-rule="nonzero" fill-opacity="1" /><path clip-path="url(#clip340)" d="M146.228 1381.27 L164.584 1381.27 L164.584 1385.21 L150.51 1385.21 L150.51 1393.68 Q151.528 1393.33 152.547 1393.17 Q153.566 1392.99 154.584 1392.99 Q160.371 1392.99 163.751 1396.16 Q167.13 1399.33 167.13 1404.74 Q167.13 1410.32 163.658 1413.43 Q160.186 1416.5 153.866 1416.5 Q151.691 1416.5 149.422 1416.13 Q147.177 1415.76 144.769 1415.02 L144.769 1410.32 Q146.853 1411.46 149.075 1412.01 Q151.297 1412.57 153.774 1412.57 Q157.778 1412.57 160.116 1410.46 Q162.454 1408.36 162.454 1404.74 Q162.454 1401.13 160.116 1399.03 Q157.778 1396.92 153.774 1396.92 Q151.899 1396.92 150.024 1397.34 Q148.172 1397.75 146.228 1398.63 L146.228 1381.27 Z" fill="#000000" fill-rule="nonzero" fill-opacity="1" /><path clip-path="url(#clip340)" d="M176.343 1409.95 L181.227 1409.95 L181.227 1415.83 L176.343 1415.83 L176.343 1409.95 Z" fill="#000000" fill-rule="nonzero" fill-opacity="1" /><path clip-path="url(#clip340)" d="M191.459 1381.27 L209.815 1381.27 L209.815 1385.21 L195.741 1385.21 L195.741 1393.68 Q196.76 1393.33 197.778 1393.17 Q198.797 1392.99 199.815 1392.99 Q205.602 1392.99 208.982 1396.16 Q212.361 1399.33 212.361 1404.74 Q212.361 1410.32 208.889 1413.43 Q205.417 1416.5 199.098 1416.5 Q196.922 1416.5 194.653 1416.13 Q192.408 1415.76 190 1415.02 L190 1410.32 Q192.084 1411.46 194.306 1412.01 Q196.528 1412.57 199.005 1412.57 Q203.01 1412.57 205.348 1410.46 Q207.686 1408.36 207.686 1404.74 Q207.686 1401.13 205.348 1399.03 Q203.01 1396.92 199.005 1396.92 Q197.13 1396.92 195.255 1397.34 Q193.403 1397.75 191.459 1398.63 L191.459 1381.27 Z" fill="#000000" fill-rule="nonzero" fill-opacity="1" /><path clip-path="url(#clip340)" d="M231.574 1384.35 Q227.963 1384.35 226.135 1387.92 Q224.329 1391.46 224.329 1398.59 Q224.329 1405.69 226.135 1409.26 Q227.963 1412.8 231.574 1412.8 Q235.209 1412.8 237.014 1409.26 Q238.843 1405.69 238.843 1398.59 Q238.843 1391.46 237.014 1387.92 Q235.209 1384.35 231.574 1384.35 M231.574 1380.65 Q237.384 1380.65 240.44 1385.25 Q243.519 1389.84 243.519 1398.59 Q243.519 1407.31 240.44 1411.92 Q237.384 1416.5 231.574 1416.5 Q225.764 1416.5 222.686 1411.92 Q219.63 1407.31 219.63 1398.59 Q219.63 1389.84 222.686 1385.25 Q225.764 1380.65 231.574 1380.65 Z" fill="#000000" fill-rule="nonzero" fill-opacity="1" /><path clip-path="url(#clip340)" d="M127.593 1143.07 Q124.445 1143.07 122.593 1145.22 Q120.765 1147.37 120.765 1151.12 Q120.765 1154.85 122.593 1157.02 Q124.445 1159.18 127.593 1159.18 Q130.742 1159.18 132.57 1157.02 Q134.422 1154.85 134.422 1151.12 Q134.422 1147.37 132.57 1145.22 Q130.742 1143.07 127.593 1143.07 M136.876 1128.41 L136.876 1132.67 Q135.117 1131.84 133.311 1131.4 Q131.529 1130.96 129.769 1130.96 Q125.14 1130.96 122.686 1134.08 Q120.255 1137.21 119.908 1143.53 Q121.274 1141.51 123.334 1140.45 Q125.394 1139.36 127.871 1139.36 Q133.08 1139.36 136.089 1142.53 Q139.121 1145.68 139.121 1151.12 Q139.121 1156.44 135.973 1159.66 Q132.825 1162.88 127.593 1162.88 Q121.598 1162.88 118.427 1158.3 Q115.256 1153.69 115.256 1144.96 Q115.256 1136.77 119.144 1131.91 Q123.033 1127.02 129.584 1127.02 Q131.343 1127.02 133.126 1127.37 Q134.931 1127.72 136.876 1128.41 Z" fill="#000000" fill-rule="nonzero" fill-opacity="1" /><path clip-path="url(#clip340)" d="M147.223 1127.65 L165.579 1127.65 L165.579 1131.58 L151.505 1131.58 L151.505 1140.06 Q152.524 1139.71 153.542 1139.55 Q154.561 1139.36 155.579 1139.36 Q161.366 1139.36 164.746 1142.53 Q168.126 1145.7 168.126 1151.12 Q168.126 1156.7 164.653 1159.8 Q161.181 1162.88 154.862 1162.88 Q152.686 1162.88 150.417 1162.51 Q148.172 1162.14 145.765 1161.4 L145.765 1156.7 Q147.848 1157.83 150.07 1158.39 Q152.292 1158.94 154.769 1158.94 Q158.774 1158.94 161.112 1156.84 Q163.45 1154.73 163.45 1151.12 Q163.45 1147.51 161.112 1145.4 Q158.774 1143.3 154.769 1143.3 Q152.894 1143.3 151.019 1143.71 Q149.167 1144.13 147.223 1145.01 L147.223 1127.65 Z" fill="#000000" fill-rule="nonzero" fill-opacity="1" /><path clip-path="url(#clip340)" d="M177.339 1156.33 L182.223 1156.33 L182.223 1162.21 L177.339 1162.21 L177.339 1156.33 Z" fill="#000000" fill-rule="nonzero" fill-opacity="1" /><path clip-path="url(#clip340)" d="M191.227 1127.65 L213.449 1127.65 L213.449 1129.64 L200.903 1162.21 L196.019 1162.21 L207.824 1131.58 L191.227 1131.58 L191.227 1127.65 Z" fill="#000000" fill-rule="nonzero" fill-opacity="1" /><path clip-path="url(#clip340)" d="M222.616 1127.65 L240.972 1127.65 L240.972 1131.58 L226.898 1131.58 L226.898 1140.06 Q227.917 1139.71 228.935 1139.55 Q229.954 1139.36 230.972 1139.36 Q236.76 1139.36 240.139 1142.53 Q243.519 1145.7 243.519 1151.12 Q243.519 1156.7 240.047 1159.8 Q236.574 1162.88 230.255 1162.88 Q228.079 1162.88 225.81 1162.51 Q223.565 1162.14 221.158 1161.4 L221.158 1156.7 Q223.241 1157.83 225.463 1158.39 Q227.685 1158.94 230.162 1158.94 Q234.167 1158.94 236.505 1156.84 Q238.843 1154.73 238.843 1151.12 Q238.843 1147.51 236.505 1145.4 Q234.167 1143.3 230.162 1143.3 Q228.287 1143.3 226.412 1143.71 Q224.56 1144.13 222.616 1145.01 L222.616 1127.65 Z" fill="#000000" fill-rule="nonzero" fill-opacity="1" /><path clip-path="url(#clip340)" d="M126.598 889.441 Q123.45 889.441 121.598 891.594 Q119.769 893.747 119.769 897.497 Q119.769 901.224 121.598 903.399 Q123.45 905.552 126.598 905.552 Q129.746 905.552 131.575 903.399 Q133.427 901.224 133.427 897.497 Q133.427 893.747 131.575 891.594 Q129.746 889.441 126.598 889.441 M135.88 874.789 L135.88 879.048 Q134.121 878.214 132.316 877.775 Q130.533 877.335 128.774 877.335 Q124.144 877.335 121.691 880.46 Q119.26 883.585 118.913 889.904 Q120.279 887.89 122.339 886.825 Q124.399 885.738 126.876 885.738 Q132.084 885.738 135.093 888.909 Q138.126 892.057 138.126 897.497 Q138.126 902.821 134.978 906.038 Q131.83 909.256 126.598 909.256 Q120.603 909.256 117.431 904.673 Q114.26 900.066 114.26 891.339 Q114.26 883.145 118.149 878.284 Q122.038 873.4 128.589 873.4 Q130.348 873.4 132.13 873.747 Q133.936 874.094 135.88 874.789 Z" fill="#000000" fill-rule="nonzero" fill-opacity="1" /><path clip-path="url(#clip340)" d="M156.76 889.441 Q153.612 889.441 151.76 891.594 Q149.931 893.747 149.931 897.497 Q149.931 901.224 151.76 903.399 Q153.612 905.552 156.76 905.552 Q159.908 905.552 161.737 903.399 Q163.589 901.224 163.589 897.497 Q163.589 893.747 161.737 891.594 Q159.908 889.441 156.76 889.441 M166.042 874.789 L166.042 879.048 Q164.283 878.214 162.477 877.775 Q160.695 877.335 158.936 877.335 Q154.306 877.335 151.853 880.46 Q149.422 883.585 149.075 889.904 Q150.441 887.89 152.501 886.825 Q154.561 885.738 157.038 885.738 Q162.246 885.738 165.255 888.909 Q168.288 892.057 168.288 897.497 Q168.288 902.821 165.14 906.038 Q161.991 909.256 156.76 909.256 Q150.765 909.256 147.593 904.673 Q144.422 900.066 144.422 891.339 Q144.422 883.145 148.311 878.284 Q152.2 873.4 158.751 873.4 Q160.51 873.4 162.292 873.747 Q164.098 874.094 166.042 874.789 Z" fill="#000000" fill-rule="nonzero" fill-opacity="1" /><path clip-path="url(#clip340)" d="M176.343 902.705 L181.227 902.705 L181.227 908.585 L176.343 908.585 L176.343 902.705 Z" fill="#000000" fill-rule="nonzero" fill-opacity="1" /><path clip-path="url(#clip340)" d="M201.412 877.103 Q197.801 877.103 195.973 880.668 Q194.167 884.21 194.167 891.339 Q194.167 898.446 195.973 902.011 Q197.801 905.552 201.412 905.552 Q205.047 905.552 206.852 902.011 Q208.681 898.446 208.681 891.339 Q208.681 884.21 206.852 880.668 Q205.047 877.103 201.412 877.103 M201.412 873.4 Q207.223 873.4 210.278 878.006 Q213.357 882.589 213.357 891.339 Q213.357 900.066 210.278 904.673 Q207.223 909.256 201.412 909.256 Q195.602 909.256 192.524 904.673 Q189.468 900.066 189.468 891.339 Q189.468 882.589 192.524 878.006 Q195.602 873.4 201.412 873.4 Z" fill="#000000" fill-rule="nonzero" fill-opacity="1" /><path clip-path="url(#clip340)" d="M231.574 877.103 Q227.963 877.103 226.135 880.668 Q224.329 884.21 224.329 891.339 Q224.329 898.446 226.135 902.011 Q227.963 905.552 231.574 905.552 Q235.209 905.552 237.014 902.011 Q238.843 898.446 238.843 891.339 Q238.843 884.21 237.014 880.668 Q235.209 877.103 231.574 877.103 M231.574 873.4 Q237.384 873.4 240.44 878.006 Q243.519 882.589 243.519 891.339 Q243.519 900.066 240.44 904.673 Q237.384 909.256 231.574 909.256 Q225.764 909.256 222.686 904.673 Q219.63 900.066 219.63 891.339 Q219.63 882.589 222.686 878.006 Q225.764 873.4 231.574 873.4 Z" fill="#000000" fill-rule="nonzero" fill-opacity="1" /><path clip-path="url(#clip340)" d="M127.593 635.817 Q124.445 635.817 122.593 637.97 Q120.765 640.123 120.765 643.873 Q120.765 647.6 122.593 649.776 Q124.445 651.928 127.593 651.928 Q130.742 651.928 132.57 649.776 Q134.422 647.6 134.422 643.873 Q134.422 640.123 132.57 637.97 Q130.742 635.817 127.593 635.817 M136.876 621.165 L136.876 625.424 Q135.117 624.59 133.311 624.151 Q131.529 623.711 129.769 623.711 Q125.14 623.711 122.686 626.836 Q120.255 629.961 119.908 636.28 Q121.274 634.266 123.334 633.202 Q125.394 632.114 127.871 632.114 Q133.08 632.114 136.089 635.285 Q139.121 638.433 139.121 643.873 Q139.121 649.197 135.973 652.414 Q132.825 655.632 127.593 655.632 Q121.598 655.632 118.427 651.049 Q115.256 646.442 115.256 637.715 Q115.256 629.521 119.144 624.66 Q123.033 619.776 129.584 619.776 Q131.343 619.776 133.126 620.123 Q134.931 620.47 136.876 621.165 Z" fill="#000000" fill-rule="nonzero" fill-opacity="1" /><path clip-path="url(#clip340)" d="M157.755 635.817 Q154.607 635.817 152.755 637.97 Q150.927 640.123 150.927 643.873 Q150.927 647.6 152.755 649.776 Q154.607 651.928 157.755 651.928 Q160.903 651.928 162.732 649.776 Q164.584 647.6 164.584 643.873 Q164.584 640.123 162.732 637.97 Q160.903 635.817 157.755 635.817 M167.038 621.165 L167.038 625.424 Q165.278 624.59 163.473 624.151 Q161.69 623.711 159.931 623.711 Q155.302 623.711 152.848 626.836 Q150.417 629.961 150.07 636.28 Q151.436 634.266 153.496 633.202 Q155.556 632.114 158.033 632.114 Q163.241 632.114 166.251 635.285 Q169.283 638.433 169.283 643.873 Q169.283 649.197 166.135 652.414 Q162.987 655.632 157.755 655.632 Q151.76 655.632 148.589 651.049 Q145.417 646.442 145.417 637.715 Q145.417 629.521 149.306 624.66 Q153.195 619.776 159.746 619.776 Q161.505 619.776 163.288 620.123 Q165.093 620.47 167.038 621.165 Z" fill="#000000" fill-rule="nonzero" fill-opacity="1" /><path clip-path="url(#clip340)" d="M177.339 649.081 L182.223 649.081 L182.223 654.961 L177.339 654.961 L177.339 649.081 Z" fill="#000000" fill-rule="nonzero" fill-opacity="1" /><path clip-path="url(#clip340)" d="M196.436 651.026 L212.755 651.026 L212.755 654.961 L190.811 654.961 L190.811 651.026 Q193.473 648.271 198.056 643.641 Q202.662 638.989 203.843 637.646 Q206.088 635.123 206.968 633.387 Q207.871 631.627 207.871 629.938 Q207.871 627.183 205.926 625.447 Q204.005 623.711 200.903 623.711 Q198.704 623.711 196.25 624.475 Q193.82 625.239 191.042 626.79 L191.042 622.067 Q193.866 620.933 196.32 620.354 Q198.774 619.776 200.811 619.776 Q206.181 619.776 209.375 622.461 Q212.57 625.146 212.57 629.637 Q212.57 631.766 211.76 633.688 Q210.973 635.586 208.866 638.178 Q208.287 638.85 205.186 642.067 Q202.084 645.262 196.436 651.026 Z" fill="#000000" fill-rule="nonzero" fill-opacity="1" /><path clip-path="url(#clip340)" d="M222.616 620.401 L240.972 620.401 L240.972 624.336 L226.898 624.336 L226.898 632.808 Q227.917 632.461 228.935 632.299 Q229.954 632.114 230.972 632.114 Q236.76 632.114 240.139 635.285 Q243.519 638.456 243.519 643.873 Q243.519 649.451 240.047 652.553 Q236.574 655.632 230.255 655.632 Q228.079 655.632 225.81 655.262 Q223.565 654.891 221.158 654.15 L221.158 649.451 Q223.241 650.586 225.463 651.141 Q227.685 651.697 230.162 651.697 Q234.167 651.697 236.505 649.59 Q238.843 647.484 238.843 643.873 Q238.843 640.262 236.505 638.155 Q234.167 636.049 230.162 636.049 Q228.287 636.049 226.412 636.465 Q224.56 636.882 222.616 637.762 L222.616 620.401 Z" fill="#000000" fill-rule="nonzero" fill-opacity="1" /><path clip-path="url(#clip340)" d="M126.598 382.193 Q123.45 382.193 121.598 384.346 Q119.769 386.499 119.769 390.249 Q119.769 393.976 121.598 396.152 Q123.45 398.304 126.598 398.304 Q129.746 398.304 131.575 396.152 Q133.427 393.976 133.427 390.249 Q133.427 386.499 131.575 384.346 Q129.746 382.193 126.598 382.193 M135.88 367.541 L135.88 371.8 Q134.121 370.967 132.316 370.527 Q130.533 370.087 128.774 370.087 Q124.144 370.087 121.691 373.212 Q119.26 376.337 118.913 382.656 Q120.279 380.642 122.339 379.578 Q124.399 378.49 126.876 378.49 Q132.084 378.49 135.093 381.661 Q138.126 384.809 138.126 390.249 Q138.126 395.573 134.978 398.79 Q131.83 402.008 126.598 402.008 Q120.603 402.008 117.431 397.425 Q114.26 392.818 114.26 384.091 Q114.26 375.897 118.149 371.036 Q122.038 366.152 128.589 366.152 Q130.348 366.152 132.13 366.499 Q133.936 366.846 135.88 367.541 Z" fill="#000000" fill-rule="nonzero" fill-opacity="1" /><path clip-path="url(#clip340)" d="M156.76 382.193 Q153.612 382.193 151.76 384.346 Q149.931 386.499 149.931 390.249 Q149.931 393.976 151.76 396.152 Q153.612 398.304 156.76 398.304 Q159.908 398.304 161.737 396.152 Q163.589 393.976 163.589 390.249 Q163.589 386.499 161.737 384.346 Q159.908 382.193 156.76 382.193 M166.042 367.541 L166.042 371.8 Q164.283 370.967 162.477 370.527 Q160.695 370.087 158.936 370.087 Q154.306 370.087 151.853 373.212 Q149.422 376.337 149.075 382.656 Q150.441 380.642 152.501 379.578 Q154.561 378.49 157.038 378.49 Q162.246 378.49 165.255 381.661 Q168.288 384.809 168.288 390.249 Q168.288 395.573 165.14 398.79 Q161.991 402.008 156.76 402.008 Q150.765 402.008 147.593 397.425 Q144.422 392.818 144.422 384.091 Q144.422 375.897 148.311 371.036 Q152.2 366.152 158.751 366.152 Q160.51 366.152 162.292 366.499 Q164.098 366.846 166.042 367.541 Z" fill="#000000" fill-rule="nonzero" fill-opacity="1" /><path clip-path="url(#clip340)" d="M176.343 395.457 L181.227 395.457 L181.227 401.337 L176.343 401.337 L176.343 395.457 Z" fill="#000000" fill-rule="nonzero" fill-opacity="1" /><path clip-path="url(#clip340)" d="M191.459 366.777 L209.815 366.777 L209.815 370.712 L195.741 370.712 L195.741 379.184 Q196.76 378.837 197.778 378.675 Q198.797 378.49 199.815 378.49 Q205.602 378.49 208.982 381.661 Q212.361 384.832 212.361 390.249 Q212.361 395.827 208.889 398.929 Q205.417 402.008 199.098 402.008 Q196.922 402.008 194.653 401.638 Q192.408 401.267 190 400.527 L190 395.827 Q192.084 396.962 194.306 397.517 Q196.528 398.073 199.005 398.073 Q203.01 398.073 205.348 395.966 Q207.686 393.86 207.686 390.249 Q207.686 386.638 205.348 384.531 Q203.01 382.425 199.005 382.425 Q197.13 382.425 195.255 382.841 Q193.403 383.258 191.459 384.138 L191.459 366.777 Z" fill="#000000" fill-rule="nonzero" fill-opacity="1" /><path clip-path="url(#clip340)" d="M231.574 369.855 Q227.963 369.855 226.135 373.42 Q224.329 376.962 224.329 384.091 Q224.329 391.198 226.135 394.763 Q227.963 398.304 231.574 398.304 Q235.209 398.304 237.014 394.763 Q238.843 391.198 238.843 384.091 Q238.843 376.962 237.014 373.42 Q235.209 369.855 231.574 369.855 M231.574 366.152 Q237.384 366.152 240.44 370.758 Q243.519 375.341 243.519 384.091 Q243.519 392.818 240.44 397.425 Q237.384 402.008 231.574 402.008 Q225.764 402.008 222.686 397.425 Q219.63 392.818 219.63 384.091 Q219.63 375.341 222.686 370.758 Q225.764 366.152 231.574 366.152 Z" fill="#000000" fill-rule="nonzero" fill-opacity="1" /><path clip-path="url(#clip340)" d="M127.593 128.569 Q124.445 128.569 122.593 130.722 Q120.765 132.875 120.765 136.625 Q120.765 140.352 122.593 142.528 Q124.445 144.68 127.593 144.68 Q130.742 144.68 132.57 142.528 Q134.422 140.352 134.422 136.625 Q134.422 132.875 132.57 130.722 Q130.742 128.569 127.593 128.569 M136.876 113.917 L136.876 118.176 Q135.117 117.343 133.311 116.903 Q131.529 116.463 129.769 116.463 Q125.14 116.463 122.686 119.588 Q120.255 122.713 119.908 129.032 Q121.274 127.018 123.334 125.954 Q125.394 124.866 127.871 124.866 Q133.08 124.866 136.089 128.037 Q139.121 131.185 139.121 136.625 Q139.121 141.949 135.973 145.166 Q132.825 148.384 127.593 148.384 Q121.598 148.384 118.427 143.801 Q115.256 139.194 115.256 130.467 Q115.256 122.273 119.144 117.412 Q123.033 112.528 129.584 112.528 Q131.343 112.528 133.126 112.875 Q134.931 113.222 136.876 113.917 Z" fill="#000000" fill-rule="nonzero" fill-opacity="1" /><path clip-path="url(#clip340)" d="M157.755 128.569 Q154.607 128.569 152.755 130.722 Q150.927 132.875 150.927 136.625 Q150.927 140.352 152.755 142.528 Q154.607 144.68 157.755 144.68 Q160.903 144.68 162.732 142.528 Q164.584 140.352 164.584 136.625 Q164.584 132.875 162.732 130.722 Q160.903 128.569 157.755 128.569 M167.038 113.917 L167.038 118.176 Q165.278 117.343 163.473 116.903 Q161.69 116.463 159.931 116.463 Q155.302 116.463 152.848 119.588 Q150.417 122.713 150.07 129.032 Q151.436 127.018 153.496 125.954 Q155.556 124.866 158.033 124.866 Q163.241 124.866 166.251 128.037 Q169.283 131.185 169.283 136.625 Q169.283 141.949 166.135 145.166 Q162.987 148.384 157.755 148.384 Q151.76 148.384 148.589 143.801 Q145.417 139.194 145.417 130.467 Q145.417 122.273 149.306 117.412 Q153.195 112.528 159.746 112.528 Q161.505 112.528 163.288 112.875 Q165.093 113.222 167.038 113.917 Z" fill="#000000" fill-rule="nonzero" fill-opacity="1" /><path clip-path="url(#clip340)" d="M177.339 141.833 L182.223 141.833 L182.223 147.713 L177.339 147.713 L177.339 141.833 Z" fill="#000000" fill-rule="nonzero" fill-opacity="1" /><path clip-path="url(#clip340)" d="M191.227 113.153 L213.449 113.153 L213.449 115.143 L200.903 147.713 L196.019 147.713 L207.824 117.088 L191.227 117.088 L191.227 113.153 Z" fill="#000000" fill-rule="nonzero" fill-opacity="1" /><path clip-path="url(#clip340)" d="M222.616 113.153 L240.972 113.153 L240.972 117.088 L226.898 117.088 L226.898 125.56 Q227.917 125.213 228.935 125.051 Q229.954 124.866 230.972 124.866 Q236.76 124.866 240.139 128.037 Q243.519 131.208 243.519 136.625 Q243.519 142.204 240.047 145.305 Q236.574 148.384 230.255 148.384 Q228.079 148.384 225.81 148.014 Q223.565 147.643 221.158 146.903 L221.158 142.204 Q223.241 143.338 225.463 143.893 Q227.685 144.449 230.162 144.449 Q234.167 144.449 236.505 142.342 Q238.843 140.236 238.843 136.625 Q238.843 133.014 236.505 130.907 Q234.167 128.801 230.162 128.801 Q228.287 128.801 226.412 129.217 Q224.56 129.634 222.616 130.514 L222.616 113.153 Z" fill="#000000" fill-rule="nonzero" fill-opacity="1" /><path clip-path="url(#clip340)" d="M22.818 922.094 L46.4666 930.815 L46.4666 913.341 L22.818 922.094 M16.4842 925.723 L16.4842 918.434 L64.0042 900.324 L64.0042 907.008 L51.8138 911.336 L51.8138 932.757 L64.0042 937.085 L64.0042 943.865 L16.4842 925.723 Z" fill="#000000" fill-rule="nonzero" fill-opacity="1" /><path clip-path="url(#clip340)" d="M45.7664 870.182 Q39.4007 870.182 35.8996 872.824 Q32.3984 875.434 32.3984 880.176 Q32.3984 884.887 35.8996 887.528 Q39.4007 890.138 45.7664 890.138 Q52.1003 890.138 55.6014 887.528 Q59.1026 884.887 59.1026 880.176 Q59.1026 875.434 55.6014 872.824 Q52.1003 870.182 45.7664 870.182 M59.58 864.325 Q68.683 864.325 73.1071 868.368 Q77.5631 872.41 77.5631 880.749 Q77.5631 883.836 77.0857 886.574 Q76.6401 889.311 75.6852 891.889 L69.9879 891.889 Q71.3884 889.311 72.0568 886.796 Q72.7252 884.282 72.7252 881.672 Q72.7252 875.911 69.7015 873.046 Q66.7096 870.182 60.6303 870.182 L57.7339 870.182 Q60.885 871.996 62.4446 874.829 Q64.0042 877.662 64.0042 881.608 Q64.0042 888.165 59.0071 892.175 Q54.01 896.186 45.7664 896.186 Q37.491 896.186 32.4939 892.175 Q27.4968 888.165 27.4968 881.608 Q27.4968 877.662 29.0564 874.829 Q30.616 871.996 33.7671 870.182 L28.3562 870.182 L28.3562 864.325 L59.58 864.325 Z" fill="#000000" fill-rule="nonzero" fill-opacity="1" /><path clip-path="url(#clip340)" d="M44.7161 821.771 L47.5806 821.771 L47.5806 848.698 Q53.6281 848.316 56.8109 845.069 Q59.9619 841.791 59.9619 835.966 Q59.9619 832.592 59.1344 829.441 Q58.3069 826.259 56.6518 823.139 L62.1899 823.139 Q63.5267 826.29 64.227 829.601 Q64.9272 832.911 64.9272 836.316 Q64.9272 844.846 59.9619 849.843 Q54.9967 854.809 46.5303 854.809 Q37.7774 854.809 32.6531 850.098 Q27.4968 845.356 27.4968 837.335 Q27.4968 830.142 32.1438 825.972 Q36.7589 821.771 44.7161 821.771 M42.9973 827.627 Q38.1912 827.691 35.3266 830.333 Q32.4621 832.943 32.4621 837.271 Q32.4621 842.173 35.2312 845.133 Q38.0002 848.061 43.0292 848.507 L42.9973 827.627 Z" fill="#000000" fill-rule="nonzero" fill-opacity="1" /><path clip-path="url(#clip340)" d="M14.5426 777.37 Q21.8632 781.635 29.0246 783.704 Q36.186 785.773 43.5384 785.773 Q50.8908 785.773 58.1159 783.704 Q65.3091 781.603 72.5979 777.37 L72.5979 782.462 Q65.1182 787.237 57.8931 789.624 Q50.668 791.979 43.5384 791.979 Q36.4406 791.979 29.2474 789.624 Q22.0542 787.269 14.5426 782.462 L14.5426 777.37 Z" fill="#000000" fill-rule="nonzero" fill-opacity="1" /><path clip-path="url(#clip340)" d="M16.4842 765.752 L16.4842 756.172 L48.8219 744.045 L16.4842 731.855 L16.4842 722.275 L64.0042 722.275 L64.0042 728.545 L22.277 728.545 L54.8694 740.799 L54.8694 747.26 L22.277 759.514 L64.0042 759.514 L64.0042 765.752 L16.4842 765.752 Z" fill="#000000" fill-rule="nonzero" fill-opacity="1" /><path clip-path="url(#clip340)" d="M46.0847 693.565 Q46.0847 700.663 47.7079 703.4 Q49.3312 706.138 53.2461 706.138 Q56.3653 706.138 58.2114 704.101 Q60.0256 702.032 60.0256 698.499 Q60.0256 693.629 56.5881 690.701 Q53.1188 687.741 47.3897 687.741 L46.0847 687.741 L46.0847 693.565 M43.6657 681.884 L64.0042 681.884 L64.0042 687.741 L58.5933 687.741 Q61.8398 689.746 63.3994 692.738 Q64.9272 695.73 64.9272 700.058 Q64.9272 705.533 61.8716 708.779 Q58.7843 711.994 53.6281 711.994 Q47.6125 711.994 44.5569 707.984 Q41.5014 703.941 41.5014 695.953 L41.5014 687.741 L40.9285 687.741 Q36.8862 687.741 34.6901 690.414 Q32.4621 693.056 32.4621 697.862 Q32.4621 700.918 33.1941 703.814 Q33.9262 706.711 35.3903 709.384 L29.9795 709.384 Q28.7381 706.169 28.1334 703.146 Q27.4968 700.122 27.4968 697.257 Q27.4968 689.523 31.5072 685.704 Q35.5176 681.884 43.6657 681.884 Z" fill="#000000" fill-rule="nonzero" fill-opacity="1" /><path clip-path="url(#clip340)" d="M14.5426 670.744 L14.5426 665.652 Q22.0542 660.877 29.2474 658.522 Q36.4406 656.135 43.5384 656.135 Q50.668 656.135 57.8931 658.522 Q65.1182 660.877 72.5979 665.652 L72.5979 670.744 Q65.3091 666.511 58.1159 664.442 Q50.8908 662.342 43.5384 662.342 Q36.186 662.342 29.0246 664.442 Q21.8632 666.511 14.5426 670.744 Z" fill="#000000" fill-rule="nonzero" fill-opacity="1" /><polyline clip-path="url(#clip342)" style="stroke:#009af9; stroke-linecap:round; stroke-linejoin:round; stroke-width:4; stroke-opacity:1; fill:none" points="338.195,1195.65 338.195,627.536 "/>
<polyline clip-path="url(#clip342)" style="stroke:#009af9; stroke-linecap:round; stroke-linejoin:round; stroke-width:4; stroke-opacity:1; fill:none" points="617.607,1510.15 617.607,292.752 "/>
<polyline clip-path="url(#clip342)" style="stroke:#009af9; stroke-linecap:round; stroke-linejoin:round; stroke-width:4; stroke-opacity:1; fill:none" points="897.019,982.609 897.019,678.261 "/>
<polyline clip-path="url(#clip342)" style="stroke:#009af9; stroke-linecap:round; stroke-linejoin:round; stroke-width:4; stroke-opacity:1; fill:none" points="1176.43,1043.48 1176.43,597.101 "/>
<polyline clip-path="url(#clip342)" style="stroke:#009af9; stroke-linecap:round; stroke-linejoin:round; stroke-width:4; stroke-opacity:1; fill:none" points="1455.84,827.391 1455.84,654.927 "/>
<polyline clip-path="url(#clip342)" style="stroke:#009af9; stroke-linecap:round; stroke-linejoin:round; stroke-width:4; stroke-opacity:1; fill:none" points="1735.26,1226.09 1735.26,211.592 "/>
<polyline clip-path="url(#clip342)" style="stroke:#009af9; stroke-linecap:round; stroke-linejoin:round; stroke-width:4; stroke-opacity:1; fill:none" points="2014.67,1286.96 2014.67,89.8529 "/>
<polyline clip-path="url(#clip342)" style="stroke:#009af9; stroke-linecap:round; stroke-linejoin:round; stroke-width:4; stroke-opacity:1; fill:none" points="2294.08,800 2294.08,272.462 "/>
<line clip-path="url(#clip342)" x1="354.195" y1="1195.65" x2="322.195" y2="1195.65" style="stroke:#009af9; stroke-width:4; stroke-opacity:1"/>
<line clip-path="url(#clip342)" x1="354.195" y1="627.536" x2="322.195" y2="627.536" style="stroke:#009af9; stroke-width:4; stroke-opacity:1"/>
<line clip-path="url(#clip342)" x1="633.607" y1="1510.15" x2="601.607" y2="1510.15" style="stroke:#009af9; stroke-width:4; stroke-opacity:1"/>
<line clip-path="url(#clip342)" x1="633.607" y1="292.752" x2="601.607" y2="292.752" style="stroke:#009af9; stroke-width:4; stroke-opacity:1"/>
<line clip-path="url(#clip342)" x1="913.019" y1="982.609" x2="881.019" y2="982.609" style="stroke:#009af9; stroke-width:4; stroke-opacity:1"/>
<line clip-path="url(#clip342)" x1="913.019" y1="678.261" x2="881.019" y2="678.261" style="stroke:#009af9; stroke-width:4; stroke-opacity:1"/>
<line clip-path="url(#clip342)" x1="1192.43" y1="1043.48" x2="1160.43" y2="1043.48" style="stroke:#009af9; stroke-width:4; stroke-opacity:1"/>
<line clip-path="url(#clip342)" x1="1192.43" y1="597.101" x2="1160.43" y2="597.101" style="stroke:#009af9; stroke-width:4; stroke-opacity:1"/>
<line clip-path="url(#clip342)" x1="1471.84" y1="827.391" x2="1439.84" y2="827.391" style="stroke:#009af9; stroke-width:4; stroke-opacity:1"/>
<line clip-path="url(#clip342)" x1="1471.84" y1="654.927" x2="1439.84" y2="654.927" style="stroke:#009af9; stroke-width:4; stroke-opacity:1"/>
<line clip-path="url(#clip342)" x1="1751.26" y1="1226.09" x2="1719.26" y2="1226.09" style="stroke:#009af9; stroke-width:4; stroke-opacity:1"/>
<line clip-path="url(#clip342)" x1="1751.26" y1="211.592" x2="1719.26" y2="211.592" style="stroke:#009af9; stroke-width:4; stroke-opacity:1"/>
<line clip-path="url(#clip342)" x1="2030.67" y1="1286.96" x2="1998.67" y2="1286.96" style="stroke:#009af9; stroke-width:4; stroke-opacity:1"/>
<line clip-path="url(#clip342)" x1="2030.67" y1="89.8529" x2="1998.67" y2="89.8529" style="stroke:#009af9; stroke-width:4; stroke-opacity:1"/>
<line clip-path="url(#clip342)" x1="2310.08" y1="800" x2="2278.08" y2="800" style="stroke:#009af9; stroke-width:4; stroke-opacity:1"/>
<line clip-path="url(#clip342)" x1="2310.08" y1="272.462" x2="2278.08" y2="272.462" style="stroke:#009af9; stroke-width:4; stroke-opacity:1"/>
<circle clip-path="url(#clip342)" cx="338.195" cy="911.595" r="14.4" fill="#009af9" fill-rule="evenodd" fill-opacity="1" stroke="none"/>
<circle clip-path="url(#clip342)" cx="617.607" cy="901.45" r="14.4" fill="#009af9" fill-rule="evenodd" fill-opacity="1" stroke="none"/>
<circle clip-path="url(#clip342)" cx="897.019" cy="830.435" r="14.4" fill="#009af9" fill-rule="evenodd" fill-opacity="1" stroke="none"/>
<circle clip-path="url(#clip342)" cx="1176.43" cy="820.29" r="14.4" fill="#009af9" fill-rule="evenodd" fill-opacity="1" stroke="none"/>
<circle clip-path="url(#clip342)" cx="1455.84" cy="741.159" r="14.4" fill="#009af9" fill-rule="evenodd" fill-opacity="1" stroke="none"/>
<circle clip-path="url(#clip342)" cx="1735.26" cy="718.84" r="14.4" fill="#009af9" fill-rule="evenodd" fill-opacity="1" stroke="none"/>
<circle clip-path="url(#clip342)" cx="2014.67" cy="688.405" r="14.4" fill="#009af9" fill-rule="evenodd" fill-opacity="1" stroke="none"/>
<circle clip-path="url(#clip342)" cx="2294.08" cy="536.231" r="14.4" fill="#009af9" fill-rule="evenodd" fill-opacity="1" stroke="none"/>
<path clip-path="url(#clip342)" d="M338.195 950.463 L617.607 950.463 L897.019 950.463 L1176.43 950.463 L1455.84 950.463 L1735.26 950.463 L2014.67 950.463 L2294.08 950.463 L2294.08 724.132 L2014.67 724.132 L1735.26 724.132 L1455.84 724.132 L1176.43 724.132 L897.019 724.132 L617.607 724.132 L338.195 724.132  Z" fill="#e26f46" fill-rule="evenodd" fill-opacity="0.6"/>
<polyline clip-path="url(#clip342)" style="stroke:#e26f46; stroke-linecap:round; stroke-linejoin:round; stroke-width:4; stroke-opacity:0; fill:none" points="338.195,950.463 617.607,950.463 897.019,950.463 1176.43,950.463 1455.84,950.463 1735.26,950.463 2014.67,950.463 2294.08,950.463 "/>
<polyline clip-path="url(#clip342)" style="stroke:#000000; stroke-linecap:round; stroke-linejoin:round; stroke-width:4; stroke-opacity:1; fill:none" stroke-dasharray="2, 4" points="338.195,801.97 617.607,801.97 897.019,801.97 1176.43,801.97 1455.84,801.97 1735.26,801.97 2014.67,801.97 2294.08,801.97 "/>
<path clip-path="url(#clip340)" d="M348.627 252.948 L1351.83 252.948 L1351.83 97.4278 L348.627 97.4278  Z" fill="#ffffff" fill-rule="evenodd" fill-opacity="1"/>
<polyline clip-path="url(#clip340)" style="stroke:#ffffff; stroke-linecap:round; stroke-linejoin:round; stroke-width:4; stroke-opacity:1; fill:none" points="348.627,252.948 1351.83,252.948 1351.83,97.4278 348.627,97.4278 348.627,252.948 "/>
<circle clip-path="url(#clip340)" cx="440.771" cy="149.268" r="20.48" fill="#009af9" fill-rule="evenodd" fill-opacity="1" stroke="none"/>
<path clip-path="url(#clip340)" d="M537.59 135.83 L537.59 162.705 L543.238 162.705 Q550.391 162.705 553.701 159.465 Q557.035 156.224 557.035 149.233 Q557.035 142.289 553.701 139.071 Q550.391 135.83 543.238 135.83 L537.59 135.83 M532.914 131.988 L542.521 131.988 Q552.567 131.988 557.266 136.178 Q561.965 140.344 561.965 149.233 Q561.965 158.168 557.243 162.358 Q552.521 166.548 542.521 166.548 L532.914 166.548 L532.914 131.988 Z" fill="#000000" fill-rule="nonzero" fill-opacity="1" /><path clip-path="url(#clip340)" d="M581.016 153.515 Q575.854 153.515 573.863 154.696 Q571.873 155.877 571.873 158.724 Q571.873 160.992 573.354 162.335 Q574.859 163.654 577.428 163.654 Q580.97 163.654 583.099 161.154 Q585.252 158.631 585.252 154.465 L585.252 153.515 L581.016 153.515 M589.511 151.756 L589.511 166.548 L585.252 166.548 L585.252 162.613 Q583.794 164.974 581.618 166.108 Q579.442 167.219 576.294 167.219 Q572.312 167.219 569.951 164.997 Q567.613 162.752 567.613 159.002 Q567.613 154.627 570.53 152.404 Q573.47 150.182 579.28 150.182 L585.252 150.182 L585.252 149.766 Q585.252 146.826 583.308 145.228 Q581.386 143.608 577.891 143.608 Q575.669 143.608 573.562 144.141 Q571.456 144.673 569.511 145.738 L569.511 141.803 Q571.849 140.9 574.048 140.46 Q576.247 139.997 578.331 139.997 Q583.956 139.997 586.734 142.914 Q589.511 145.83 589.511 151.756 Z" fill="#000000" fill-rule="nonzero" fill-opacity="1" /><path clip-path="url(#clip340)" d="M602.497 133.261 L602.497 140.622 L611.27 140.622 L611.27 143.932 L602.497 143.932 L602.497 158.006 Q602.497 161.177 603.354 162.08 Q604.233 162.983 606.895 162.983 L611.27 162.983 L611.27 166.548 L606.895 166.548 Q601.965 166.548 600.09 164.719 Q598.215 162.867 598.215 158.006 L598.215 143.932 L595.09 143.932 L595.09 140.622 L598.215 140.622 L598.215 133.261 L602.497 133.261 Z" fill="#000000" fill-rule="nonzero" fill-opacity="1" /><path clip-path="url(#clip340)" d="M628.655 153.515 Q623.493 153.515 621.502 154.696 Q619.511 155.877 619.511 158.724 Q619.511 160.992 620.993 162.335 Q622.497 163.654 625.067 163.654 Q628.608 163.654 630.738 161.154 Q632.891 158.631 632.891 154.465 L632.891 153.515 L628.655 153.515 M637.15 151.756 L637.15 166.548 L632.891 166.548 L632.891 162.613 Q631.432 164.974 629.256 166.108 Q627.081 167.219 623.932 167.219 Q619.951 167.219 617.59 164.997 Q615.252 162.752 615.252 159.002 Q615.252 154.627 618.169 152.404 Q621.108 150.182 626.919 150.182 L632.891 150.182 L632.891 149.766 Q632.891 146.826 630.946 145.228 Q629.025 143.608 625.53 143.608 Q623.307 143.608 621.201 144.141 Q619.094 144.673 617.15 145.738 L617.15 141.803 Q619.488 140.9 621.687 140.46 Q623.886 139.997 625.969 139.997 Q631.594 139.997 634.372 142.914 Q637.15 145.83 637.15 151.756 Z" fill="#000000" fill-rule="nonzero" fill-opacity="1" /><path clip-path="url(#clip340)" d="M671.224 130.576 Q668.122 135.9 666.617 141.108 Q665.113 146.316 665.113 151.664 Q665.113 157.011 666.617 162.265 Q668.145 167.497 671.224 172.798 L667.52 172.798 Q664.048 167.358 662.312 162.103 Q660.599 156.849 660.599 151.664 Q660.599 146.502 662.312 141.27 Q664.025 136.039 667.52 130.576 L671.224 130.576 Z" fill="#000000" fill-rule="nonzero" fill-opacity="1" /><path clip-path="url(#clip340)" d="M689.534 143.608 Q686.108 143.608 684.117 146.293 Q682.127 148.955 682.127 153.608 Q682.127 158.261 684.094 160.946 Q686.085 163.608 689.534 163.608 Q692.937 163.608 694.927 160.923 Q696.918 158.238 696.918 153.608 Q696.918 149.002 694.927 146.316 Q692.937 143.608 689.534 143.608 M689.534 139.997 Q695.089 139.997 698.261 143.608 Q701.432 147.219 701.432 153.608 Q701.432 159.974 698.261 163.608 Q695.089 167.219 689.534 167.219 Q683.955 167.219 680.784 163.608 Q677.636 159.974 677.636 153.608 Q677.636 147.219 680.784 143.608 Q683.955 139.997 689.534 139.997 Z" fill="#000000" fill-rule="nonzero" fill-opacity="1" /><path clip-path="url(#clip340)" d="M727.103 153.608 Q727.103 148.909 725.159 146.247 Q723.237 143.562 719.858 143.562 Q716.478 143.562 714.534 146.247 Q712.612 148.909 712.612 153.608 Q712.612 158.307 714.534 160.992 Q716.478 163.654 719.858 163.654 Q723.237 163.654 725.159 160.992 Q727.103 158.307 727.103 153.608 M712.612 144.557 Q713.955 142.242 715.992 141.131 Q718.052 139.997 720.899 139.997 Q725.622 139.997 728.561 143.747 Q731.524 147.497 731.524 153.608 Q731.524 159.719 728.561 163.469 Q725.622 167.219 720.899 167.219 Q718.052 167.219 715.992 166.108 Q713.955 164.974 712.612 162.659 L712.612 166.548 L708.33 166.548 L708.33 130.529 L712.612 130.529 L712.612 144.557 Z" fill="#000000" fill-rule="nonzero" fill-opacity="1" /><path clip-path="url(#clip340)" d="M755.112 141.386 L755.112 145.414 Q753.307 144.488 751.362 144.025 Q749.418 143.562 747.335 143.562 Q744.163 143.562 742.566 144.534 Q740.992 145.506 740.992 147.451 Q740.992 148.932 742.126 149.789 Q743.26 150.622 746.686 151.386 L748.145 151.71 Q752.682 152.682 754.58 154.465 Q756.501 156.224 756.501 159.395 Q756.501 163.006 753.631 165.113 Q750.784 167.219 745.784 167.219 Q743.7 167.219 741.432 166.802 Q739.186 166.409 736.686 165.599 L736.686 161.201 Q739.048 162.427 741.339 163.052 Q743.631 163.654 745.876 163.654 Q748.885 163.654 750.506 162.636 Q752.126 161.594 752.126 159.719 Q752.126 157.983 750.946 157.057 Q749.788 156.131 745.83 155.275 L744.348 154.928 Q740.39 154.094 738.631 152.381 Q736.872 150.645 736.872 147.636 Q736.872 143.978 739.464 141.988 Q742.057 139.997 746.825 139.997 Q749.186 139.997 751.27 140.344 Q753.353 140.691 755.112 141.386 Z" fill="#000000" fill-rule="nonzero" fill-opacity="1" /><path clip-path="url(#clip340)" d="M785.459 152.52 L785.459 154.603 L765.876 154.603 Q766.154 159.002 768.515 161.316 Q770.899 163.608 775.135 163.608 Q777.589 163.608 779.881 163.006 Q782.195 162.404 784.464 161.201 L784.464 165.228 Q782.172 166.201 779.765 166.71 Q777.358 167.219 774.881 167.219 Q768.677 167.219 765.043 163.608 Q761.432 159.997 761.432 153.84 Q761.432 147.474 764.858 143.747 Q768.307 139.997 774.14 139.997 Q779.371 139.997 782.404 143.377 Q785.459 146.733 785.459 152.52 M781.2 151.27 Q781.154 147.775 779.233 145.691 Q777.334 143.608 774.186 143.608 Q770.621 143.608 768.469 145.622 Q766.339 147.636 766.015 151.293 L781.2 151.27 Z" fill="#000000" fill-rule="nonzero" fill-opacity="1" /><path clip-path="url(#clip340)" d="M807.473 144.603 Q806.756 144.187 805.899 144.002 Q805.066 143.793 804.047 143.793 Q800.436 143.793 798.492 146.154 Q796.57 148.492 796.57 152.89 L796.57 166.548 L792.288 166.548 L792.288 140.622 L796.57 140.622 L796.57 144.65 Q797.913 142.289 800.066 141.154 Q802.218 139.997 805.297 139.997 Q805.737 139.997 806.269 140.066 Q806.802 140.113 807.45 140.229 L807.473 144.603 Z" fill="#000000" fill-rule="nonzero" fill-opacity="1" /><path clip-path="url(#clip340)" d="M808.885 140.622 L813.399 140.622 L821.501 162.381 L829.603 140.622 L834.116 140.622 L824.394 166.548 L818.607 166.548 L808.885 140.622 Z" fill="#000000" fill-rule="nonzero" fill-opacity="1" /><path clip-path="url(#clip340)" d="M862.172 152.52 L862.172 154.603 L842.589 154.603 Q842.866 159.002 845.228 161.316 Q847.612 163.608 851.848 163.608 Q854.302 163.608 856.593 163.006 Q858.908 162.404 861.177 161.201 L861.177 165.228 Q858.885 166.201 856.477 166.71 Q854.07 167.219 851.593 167.219 Q845.39 167.219 841.755 163.608 Q838.144 159.997 838.144 153.84 Q838.144 147.474 841.57 143.747 Q845.019 139.997 850.852 139.997 Q856.084 139.997 859.116 143.377 Q862.172 146.733 862.172 152.52 M857.913 151.27 Q857.866 147.775 855.945 145.691 Q854.047 143.608 850.899 143.608 Q847.334 143.608 845.181 145.622 Q843.052 147.636 842.728 151.293 L857.913 151.27 Z" fill="#000000" fill-rule="nonzero" fill-opacity="1" /><path clip-path="url(#clip340)" d="M886.223 144.557 L886.223 130.529 L890.482 130.529 L890.482 166.548 L886.223 166.548 L886.223 162.659 Q884.88 164.974 882.82 166.108 Q880.783 167.219 877.913 167.219 Q873.213 167.219 870.251 163.469 Q867.311 159.719 867.311 153.608 Q867.311 147.497 870.251 143.747 Q873.213 139.997 877.913 139.997 Q880.783 139.997 882.82 141.131 Q884.88 142.242 886.223 144.557 M871.709 153.608 Q871.709 158.307 873.63 160.992 Q875.575 163.654 878.954 163.654 Q882.334 163.654 884.278 160.992 Q886.223 158.307 886.223 153.608 Q886.223 148.909 884.278 146.247 Q882.334 143.562 878.954 143.562 Q875.575 143.562 873.63 146.247 Q871.709 148.909 871.709 153.608 Z" fill="#000000" fill-rule="nonzero" fill-opacity="1" /><path clip-path="url(#clip340)" d="M926.107 153.515 Q920.945 153.515 918.954 154.696 Q916.963 155.877 916.963 158.724 Q916.963 160.992 918.445 162.335 Q919.949 163.654 922.519 163.654 Q926.06 163.654 928.19 161.154 Q930.343 158.631 930.343 154.465 L930.343 153.515 L926.107 153.515 M934.602 151.756 L934.602 166.548 L930.343 166.548 L930.343 162.613 Q928.884 164.974 926.709 166.108 Q924.533 167.219 921.385 167.219 Q917.403 167.219 915.042 164.997 Q912.704 162.752 912.704 159.002 Q912.704 154.627 915.621 152.404 Q918.56 150.182 924.371 150.182 L930.343 150.182 L930.343 149.766 Q930.343 146.826 928.398 145.228 Q926.477 143.608 922.982 143.608 Q920.76 143.608 918.653 144.141 Q916.547 144.673 914.602 145.738 L914.602 141.803 Q916.94 140.9 919.139 140.46 Q921.338 139.997 923.422 139.997 Q929.047 139.997 931.824 142.914 Q934.602 145.83 934.602 151.756 Z" fill="#000000" fill-rule="nonzero" fill-opacity="1" /><path clip-path="url(#clip340)" d="M960.435 153.284 Q960.435 148.654 958.514 146.108 Q956.616 143.562 953.167 143.562 Q949.741 143.562 947.82 146.108 Q945.921 148.654 945.921 153.284 Q945.921 157.89 947.82 160.437 Q949.741 162.983 953.167 162.983 Q956.616 162.983 958.514 160.437 Q960.435 157.89 960.435 153.284 M964.694 163.33 Q964.694 169.951 961.755 173.168 Q958.815 176.409 952.75 176.409 Q950.505 176.409 948.514 176.062 Q946.523 175.738 944.648 175.043 L944.648 170.9 Q946.523 171.918 948.352 172.404 Q950.181 172.89 952.079 172.89 Q956.269 172.89 958.352 170.691 Q960.435 168.515 960.435 164.094 L960.435 161.988 Q959.116 164.279 957.056 165.414 Q954.995 166.548 952.125 166.548 Q947.357 166.548 944.44 162.914 Q941.523 159.279 941.523 153.284 Q941.523 147.266 944.44 143.631 Q947.357 139.997 952.125 139.997 Q954.995 139.997 957.056 141.131 Q959.116 142.266 960.435 144.557 L960.435 140.622 L964.694 140.622 L964.694 163.33 Z" fill="#000000" fill-rule="nonzero" fill-opacity="1" /><path clip-path="url(#clip340)" d="M995.643 152.52 L995.643 154.603 L976.06 154.603 Q976.338 159.002 978.699 161.316 Q981.083 163.608 985.319 163.608 Q987.773 163.608 990.065 163.006 Q992.38 162.404 994.648 161.201 L994.648 165.228 Q992.356 166.201 989.949 166.71 Q987.542 167.219 985.065 167.219 Q978.861 167.219 975.227 163.608 Q971.616 159.997 971.616 153.84 Q971.616 147.474 975.042 143.747 Q978.491 139.997 984.324 139.997 Q989.555 139.997 992.588 143.377 Q995.643 146.733 995.643 152.52 M991.384 151.27 Q991.338 147.775 989.417 145.691 Q987.518 143.608 984.37 143.608 Q980.805 143.608 978.653 145.622 Q976.523 147.636 976.199 151.293 L991.384 151.27 Z" fill="#000000" fill-rule="nonzero" fill-opacity="1" /><path clip-path="url(#clip340)" d="M1019.16 141.386 L1019.16 145.414 Q1017.36 144.488 1015.41 144.025 Q1013.47 143.562 1011.38 143.562 Q1008.21 143.562 1006.62 144.534 Q1005.04 145.506 1005.04 147.451 Q1005.04 148.932 1006.18 149.789 Q1007.31 150.622 1010.74 151.386 L1012.19 151.71 Q1016.73 152.682 1018.63 154.465 Q1020.55 156.224 1020.55 159.395 Q1020.55 163.006 1017.68 165.113 Q1014.83 167.219 1009.83 167.219 Q1007.75 167.219 1005.48 166.802 Q1003.24 166.409 1000.74 165.599 L1000.74 161.201 Q1003.1 162.427 1005.39 163.052 Q1007.68 163.654 1009.93 163.654 Q1012.93 163.654 1014.56 162.636 Q1016.18 161.594 1016.18 159.719 Q1016.18 157.983 1015 157.057 Q1013.84 156.131 1009.88 155.275 L1008.4 154.928 Q1004.44 154.094 1002.68 152.381 Q1000.92 150.645 1000.92 147.636 Q1000.92 143.978 1003.51 141.988 Q1006.11 139.997 1010.87 139.997 Q1013.24 139.997 1015.32 140.344 Q1017.4 140.691 1019.16 141.386 Z" fill="#000000" fill-rule="nonzero" fill-opacity="1" /><path clip-path="url(#clip340)" d="M1026.66 130.576 L1030.37 130.576 Q1033.84 136.039 1035.55 141.27 Q1037.29 146.502 1037.29 151.664 Q1037.29 156.849 1035.55 162.103 Q1033.84 167.358 1030.37 172.798 L1026.66 172.798 Q1029.74 167.497 1031.25 162.265 Q1032.77 157.011 1032.77 151.664 Q1032.77 146.316 1031.25 141.108 Q1029.74 135.9 1026.66 130.576 Z" fill="#000000" fill-rule="nonzero" fill-opacity="1" /><path clip-path="url(#clip340)" d="M371.663 221.844 L509.878 221.844 L509.878 180.372 L371.663 180.372 L371.663 221.844  Z" fill="#e26f46" fill-rule="evenodd" fill-opacity="0.6"/>
<polyline clip-path="url(#clip340)" style="stroke:#e26f46; stroke-linecap:round; stroke-linejoin:round; stroke-width:4; stroke-opacity:0; fill:none" points="371.663,180.372 509.878,180.372 "/>
<path clip-path="url(#clip340)" d="M532.914 183.828 L539.882 183.828 L548.701 207.346 L557.567 183.828 L564.535 183.828 L564.535 218.388 L559.974 218.388 L559.974 188.041 L551.062 211.744 L546.363 211.744 L537.451 188.041 L537.451 218.388 L532.914 218.388 L532.914 183.828 Z" fill="#000000" fill-rule="nonzero" fill-opacity="1" /><path clip-path="url(#clip340)" d="M583.678 195.448 Q580.252 195.448 578.261 198.133 Q576.271 200.795 576.271 205.448 Q576.271 210.101 578.238 212.786 Q580.229 215.448 583.678 215.448 Q587.081 215.448 589.071 212.763 Q591.062 210.078 591.062 205.448 Q591.062 200.842 589.071 198.156 Q587.081 195.448 583.678 195.448 M583.678 191.837 Q589.234 191.837 592.405 195.448 Q595.576 199.059 595.576 205.448 Q595.576 211.814 592.405 215.448 Q589.234 219.059 583.678 219.059 Q578.099 219.059 574.928 215.448 Q571.78 211.814 571.78 205.448 Q571.78 199.059 574.928 195.448 Q578.099 191.837 583.678 191.837 Z" fill="#000000" fill-rule="nonzero" fill-opacity="1" /><path clip-path="url(#clip340)" d="M619.696 196.397 L619.696 182.369 L623.956 182.369 L623.956 218.388 L619.696 218.388 L619.696 214.499 Q618.354 216.814 616.294 217.948 Q614.257 219.059 611.386 219.059 Q606.687 219.059 603.724 215.309 Q600.784 211.559 600.784 205.448 Q600.784 199.337 603.724 195.587 Q606.687 191.837 611.386 191.837 Q614.257 191.837 616.294 192.971 Q618.354 194.082 619.696 196.397 M605.183 205.448 Q605.183 210.147 607.104 212.832 Q609.048 215.494 612.428 215.494 Q615.807 215.494 617.752 212.832 Q619.696 210.147 619.696 205.448 Q619.696 200.749 617.752 198.087 Q615.807 195.402 612.428 195.402 Q609.048 195.402 607.104 198.087 Q605.183 200.749 605.183 205.448 Z" fill="#000000" fill-rule="nonzero" fill-opacity="1" /><path clip-path="url(#clip340)" d="M654.904 204.36 L654.904 206.443 L635.321 206.443 Q635.599 210.842 637.96 213.156 Q640.344 215.448 644.58 215.448 Q647.034 215.448 649.326 214.846 Q651.641 214.244 653.909 213.041 L653.909 217.068 Q651.617 218.041 649.21 218.55 Q646.803 219.059 644.326 219.059 Q638.122 219.059 634.488 215.448 Q630.877 211.837 630.877 205.68 Q630.877 199.314 634.303 195.587 Q637.752 191.837 643.585 191.837 Q648.817 191.837 651.849 195.217 Q654.904 198.573 654.904 204.36 M650.645 203.11 Q650.599 199.615 648.678 197.531 Q646.78 195.448 643.631 195.448 Q640.067 195.448 637.914 197.462 Q635.784 199.476 635.46 203.133 L650.645 203.11 Z" fill="#000000" fill-rule="nonzero" fill-opacity="1" /><path clip-path="url(#clip340)" d="M661.895 182.369 L666.154 182.369 L666.154 218.388 L661.895 218.388 L661.895 182.369 Z" fill="#000000" fill-rule="nonzero" fill-opacity="1" /><path clip-path="url(#clip340)" d="M700.367 182.416 Q697.265 187.74 695.761 192.948 Q694.256 198.156 694.256 203.504 Q694.256 208.851 695.761 214.105 Q697.288 219.337 700.367 224.638 L696.664 224.638 Q693.191 219.198 691.455 213.943 Q689.742 208.689 689.742 203.504 Q689.742 198.342 691.455 193.11 Q693.168 187.879 696.664 182.416 L700.367 182.416 Z" fill="#000000" fill-rule="nonzero" fill-opacity="1" /><path clip-path="url(#clip340)" d="M719.812 199.244 Q716.663 199.244 714.812 201.397 Q712.983 203.55 712.983 207.3 Q712.983 211.027 714.812 213.203 Q716.663 215.355 719.812 215.355 Q722.96 215.355 724.788 213.203 Q726.64 211.027 726.64 207.3 Q726.64 203.55 724.788 201.397 Q722.96 199.244 719.812 199.244 M729.094 184.592 L729.094 188.851 Q727.335 188.018 725.529 187.578 Q723.747 187.138 721.987 187.138 Q717.358 187.138 714.904 190.263 Q712.474 193.388 712.126 199.707 Q713.492 197.693 715.552 196.629 Q717.612 195.541 720.089 195.541 Q725.298 195.541 728.307 198.712 Q731.339 201.86 731.339 207.3 Q731.339 212.624 728.191 215.842 Q725.043 219.059 719.812 219.059 Q713.816 219.059 710.645 214.476 Q707.474 209.869 707.474 201.143 Q707.474 192.948 711.362 188.087 Q715.251 183.203 721.802 183.203 Q723.562 183.203 725.344 183.55 Q727.149 183.897 729.094 184.592 Z" fill="#000000" fill-rule="nonzero" fill-opacity="1" /><path clip-path="url(#clip340)" d="M749.973 199.244 Q746.825 199.244 744.973 201.397 Q743.145 203.55 743.145 207.3 Q743.145 211.027 744.973 213.203 Q746.825 215.355 749.973 215.355 Q753.122 215.355 754.95 213.203 Q756.802 211.027 756.802 207.3 Q756.802 203.55 754.95 201.397 Q753.122 199.244 749.973 199.244 M759.256 184.592 L759.256 188.851 Q757.497 188.018 755.691 187.578 Q753.909 187.138 752.149 187.138 Q747.52 187.138 745.066 190.263 Q742.635 193.388 742.288 199.707 Q743.654 197.693 745.714 196.629 Q747.774 195.541 750.251 195.541 Q755.459 195.541 758.469 198.712 Q761.501 201.86 761.501 207.3 Q761.501 212.624 758.353 215.842 Q755.205 219.059 749.973 219.059 Q743.978 219.059 740.807 214.476 Q737.636 209.869 737.636 201.143 Q737.636 192.948 741.524 188.087 Q745.413 183.203 751.964 183.203 Q753.723 183.203 755.506 183.55 Q757.311 183.897 759.256 184.592 Z" fill="#000000" fill-rule="nonzero" fill-opacity="1" /><path clip-path="url(#clip340)" d="M769.557 212.508 L774.441 212.508 L774.441 218.388 L769.557 218.388 L769.557 212.508 Z" fill="#000000" fill-rule="nonzero" fill-opacity="1" /><path clip-path="url(#clip340)" d="M794.626 186.907 Q791.015 186.907 789.186 190.471 Q787.381 194.013 787.381 201.143 Q787.381 208.249 789.186 211.814 Q791.015 215.355 794.626 215.355 Q798.26 215.355 800.066 211.814 Q801.894 208.249 801.894 201.143 Q801.894 194.013 800.066 190.471 Q798.26 186.907 794.626 186.907 M794.626 183.203 Q800.436 183.203 803.492 187.809 Q806.57 192.393 806.57 201.143 Q806.57 209.869 803.492 214.476 Q800.436 219.059 794.626 219.059 Q788.816 219.059 785.737 214.476 Q782.682 209.869 782.682 201.143 Q782.682 192.393 785.737 187.809 Q788.816 183.203 794.626 183.203 Z" fill="#000000" fill-rule="nonzero" fill-opacity="1" /><path clip-path="url(#clip340)" d="M824.788 201.976 Q821.455 201.976 819.533 203.758 Q817.635 205.541 817.635 208.666 Q817.635 211.791 819.533 213.573 Q821.455 215.355 824.788 215.355 Q828.121 215.355 830.042 213.573 Q831.964 211.767 831.964 208.666 Q831.964 205.541 830.042 203.758 Q828.144 201.976 824.788 201.976 M820.112 199.985 Q817.103 199.244 815.413 197.184 Q813.746 195.124 813.746 192.161 Q813.746 188.018 816.686 185.61 Q819.649 183.203 824.788 183.203 Q829.95 183.203 832.89 185.61 Q835.829 188.018 835.829 192.161 Q835.829 195.124 834.14 197.184 Q832.473 199.244 829.487 199.985 Q832.866 200.772 834.741 203.064 Q836.64 205.355 836.64 208.666 Q836.64 213.689 833.561 216.374 Q830.505 219.059 824.788 219.059 Q819.07 219.059 815.992 216.374 Q812.936 213.689 812.936 208.666 Q812.936 205.355 814.834 203.064 Q816.732 200.772 820.112 199.985 M818.399 192.601 Q818.399 195.286 820.066 196.791 Q821.755 198.295 824.788 198.295 Q827.797 198.295 829.487 196.791 Q831.2 195.286 831.2 192.601 Q831.2 189.916 829.487 188.411 Q827.797 186.907 824.788 186.907 Q821.755 186.907 820.066 188.411 Q818.399 189.916 818.399 192.601 Z" fill="#000000" fill-rule="nonzero" fill-opacity="1" /><path clip-path="url(#clip340)" d="M854.95 201.976 Q851.616 201.976 849.695 203.758 Q847.797 205.541 847.797 208.666 Q847.797 211.791 849.695 213.573 Q851.616 215.355 854.95 215.355 Q858.283 215.355 860.204 213.573 Q862.126 211.767 862.126 208.666 Q862.126 205.541 860.204 203.758 Q858.306 201.976 854.95 201.976 M850.274 199.985 Q847.265 199.244 845.575 197.184 Q843.908 195.124 843.908 192.161 Q843.908 188.018 846.848 185.61 Q849.811 183.203 854.95 183.203 Q860.112 183.203 863.051 185.61 Q865.991 188.018 865.991 192.161 Q865.991 195.124 864.301 197.184 Q862.635 199.244 859.649 199.985 Q863.028 200.772 864.903 203.064 Q866.801 205.355 866.801 208.666 Q866.801 213.689 863.723 216.374 Q860.667 219.059 854.95 219.059 Q849.232 219.059 846.153 216.374 Q843.098 213.689 843.098 208.666 Q843.098 205.355 844.996 203.064 Q846.894 200.772 850.274 199.985 M848.561 192.601 Q848.561 195.286 850.227 196.791 Q851.917 198.295 854.95 198.295 Q857.959 198.295 859.649 196.791 Q861.362 195.286 861.362 192.601 Q861.362 189.916 859.649 188.411 Q857.959 186.907 854.95 186.907 Q851.917 186.907 850.227 188.411 Q848.561 189.916 848.561 192.601 Z" fill="#000000" fill-rule="nonzero" fill-opacity="1" /><path clip-path="url(#clip340)" d="M906.917 188.666 L906.917 201.559 L919.81 201.559 L919.81 205.494 L906.917 205.494 L906.917 218.388 L903.028 218.388 L903.028 205.494 L890.135 205.494 L890.135 201.559 L903.028 201.559 L903.028 188.666 L906.917 188.666 Z" fill="#000000" fill-rule="nonzero" fill-opacity="1" /><path clip-path="url(#clip340)" d="M939.903 186.907 Q936.292 186.907 934.463 190.471 Q932.658 194.013 932.658 201.143 Q932.658 208.249 934.463 211.814 Q936.292 215.355 939.903 215.355 Q943.537 215.355 945.343 211.814 Q947.171 208.249 947.171 201.143 Q947.171 194.013 945.343 190.471 Q943.537 186.907 939.903 186.907 M939.903 183.203 Q945.713 183.203 948.769 187.809 Q951.847 192.393 951.847 201.143 Q951.847 209.869 948.769 214.476 Q945.713 219.059 939.903 219.059 Q934.093 219.059 931.014 214.476 Q927.959 209.869 927.959 201.143 Q927.959 192.393 931.014 187.809 Q934.093 183.203 939.903 183.203 Z" fill="#000000" fill-rule="nonzero" fill-opacity="1" /><path clip-path="url(#clip340)" d="M960.065 212.508 L964.949 212.508 L964.949 218.388 L960.065 218.388 L960.065 212.508 Z" fill="#000000" fill-rule="nonzero" fill-opacity="1" /><path clip-path="url(#clip340)" d="M985.134 186.907 Q981.523 186.907 979.694 190.471 Q977.889 194.013 977.889 201.143 Q977.889 208.249 979.694 211.814 Q981.523 215.355 985.134 215.355 Q988.768 215.355 990.574 211.814 Q992.403 208.249 992.403 201.143 Q992.403 194.013 990.574 190.471 Q988.768 186.907 985.134 186.907 M985.134 183.203 Q990.944 183.203 994 187.809 Q997.079 192.393 997.079 201.143 Q997.079 209.869 994 214.476 Q990.944 219.059 985.134 219.059 Q979.324 219.059 976.245 214.476 Q973.19 209.869 973.19 201.143 Q973.19 192.393 976.245 187.809 Q979.324 183.203 985.134 183.203 Z" fill="#000000" fill-rule="nonzero" fill-opacity="1" /><path clip-path="url(#clip340)" d="M1004.12 183.828 L1026.34 183.828 L1026.34 185.819 L1013.79 218.388 L1008.91 218.388 L1020.71 187.763 L1004.12 187.763 L1004.12 183.828 Z" fill="#000000" fill-rule="nonzero" fill-opacity="1" /><path clip-path="url(#clip340)" d="M1034.28 183.828 L1056.5 183.828 L1056.5 185.819 L1043.95 218.388 L1039.07 218.388 L1050.87 187.763 L1034.28 187.763 L1034.28 183.828 Z" fill="#000000" fill-rule="nonzero" fill-opacity="1" /><path clip-path="url(#clip340)" d="M1072.59 183.828 L1076.52 183.828 L1064.49 222.786 L1060.55 222.786 L1072.59 183.828 Z" fill="#000000" fill-rule="nonzero" fill-opacity="1" /><path clip-path="url(#clip340)" d="M1078.84 203.504 L1091.31 203.504 L1091.31 207.3 L1078.84 207.3 L1078.84 203.504 Z" fill="#000000" fill-rule="nonzero" fill-opacity="1" /><path clip-path="url(#clip340)" d="M1108.7 186.907 Q1105.09 186.907 1103.26 190.471 Q1101.45 194.013 1101.45 201.143 Q1101.45 208.249 1103.26 211.814 Q1105.09 215.355 1108.7 215.355 Q1112.33 215.355 1114.14 211.814 Q1115.97 208.249 1115.97 201.143 Q1115.97 194.013 1114.14 190.471 Q1112.33 186.907 1108.7 186.907 M1108.7 183.203 Q1114.51 183.203 1117.56 187.809 Q1120.64 192.393 1120.64 201.143 Q1120.64 209.869 1117.56 214.476 Q1114.51 219.059 1108.7 219.059 Q1102.89 219.059 1099.81 214.476 Q1096.75 209.869 1096.75 201.143 Q1096.75 192.393 1099.81 187.809 Q1102.89 183.203 1108.7 183.203 Z" fill="#000000" fill-rule="nonzero" fill-opacity="1" /><path clip-path="url(#clip340)" d="M1128.86 212.508 L1133.74 212.508 L1133.74 218.388 L1128.86 218.388 L1128.86 212.508 Z" fill="#000000" fill-rule="nonzero" fill-opacity="1" /><path clip-path="url(#clip340)" d="M1144.74 214.453 L1152.38 214.453 L1152.38 188.087 L1144.07 189.754 L1144.07 185.494 L1152.33 183.828 L1157.01 183.828 L1157.01 214.453 L1164.65 214.453 L1164.65 218.388 L1144.74 218.388 L1144.74 214.453 Z" fill="#000000" fill-rule="nonzero" fill-opacity="1" /><path clip-path="url(#clip340)" d="M1186.94 187.902 L1175.13 206.351 L1186.94 206.351 L1186.94 187.902 M1185.71 183.828 L1191.59 183.828 L1191.59 206.351 L1196.52 206.351 L1196.52 210.24 L1191.59 210.24 L1191.59 218.388 L1186.94 218.388 L1186.94 210.24 L1171.34 210.24 L1171.34 205.726 L1185.71 183.828 Z" fill="#000000" fill-rule="nonzero" fill-opacity="1" /><path clip-path="url(#clip340)" d="M1214.83 199.244 Q1211.68 199.244 1209.83 201.397 Q1208 203.55 1208 207.3 Q1208 211.027 1209.83 213.203 Q1211.68 215.355 1214.83 215.355 Q1217.98 215.355 1219.81 213.203 Q1221.66 211.027 1221.66 207.3 Q1221.66 203.55 1219.81 201.397 Q1217.98 199.244 1214.83 199.244 M1224.11 184.592 L1224.11 188.851 Q1222.36 188.018 1220.55 187.578 Q1218.77 187.138 1217.01 187.138 Q1212.38 187.138 1209.92 190.263 Q1207.49 193.388 1207.15 199.707 Q1208.51 197.693 1210.57 196.629 Q1212.63 195.541 1215.11 195.541 Q1220.32 195.541 1223.33 198.712 Q1226.36 201.86 1226.36 207.3 Q1226.36 212.624 1223.21 215.842 Q1220.06 219.059 1214.83 219.059 Q1208.84 219.059 1205.67 214.476 Q1202.49 209.869 1202.49 201.143 Q1202.49 192.948 1206.38 188.087 Q1210.27 183.203 1216.82 183.203 Q1218.58 183.203 1220.36 183.55 Q1222.17 183.897 1224.11 184.592 Z" fill="#000000" fill-rule="nonzero" fill-opacity="1" /><path clip-path="url(#clip340)" d="M1249.07 183.828 L1256.04 183.828 L1264.85 207.346 L1273.72 183.828 L1280.69 183.828 L1280.69 218.388 L1276.13 218.388 L1276.13 188.041 L1267.22 211.744 L1262.52 211.744 L1253.6 188.041 L1253.6 218.388 L1249.07 218.388 L1249.07 183.828 Z" fill="#000000" fill-rule="nonzero" fill-opacity="1" /><path clip-path="url(#clip340)" d="M1301.57 205.355 Q1296.41 205.355 1294.41 206.536 Q1292.42 207.717 1292.42 210.564 Q1292.42 212.832 1293.91 214.175 Q1295.41 215.494 1297.98 215.494 Q1301.52 215.494 1303.65 212.994 Q1305.8 210.471 1305.8 206.305 L1305.8 205.355 L1301.57 205.355 M1310.06 203.596 L1310.06 218.388 L1305.8 218.388 L1305.8 214.453 Q1304.35 216.814 1302.17 217.948 Q1299.99 219.059 1296.85 219.059 Q1292.86 219.059 1290.5 216.837 Q1288.16 214.592 1288.16 210.842 Q1288.16 206.467 1291.08 204.244 Q1294.02 202.022 1299.83 202.022 L1305.8 202.022 L1305.8 201.606 Q1305.8 198.666 1303.86 197.068 Q1301.94 195.448 1298.44 195.448 Q1296.22 195.448 1294.11 195.981 Q1292.01 196.513 1290.06 197.578 L1290.06 193.643 Q1292.4 192.74 1294.6 192.3 Q1296.8 191.837 1298.88 191.837 Q1304.51 191.837 1307.29 194.754 Q1310.06 197.67 1310.06 203.596 Z" fill="#000000" fill-rule="nonzero" fill-opacity="1" /><path clip-path="url(#clip340)" d="M1318.16 182.416 L1321.87 182.416 Q1325.34 187.879 1327.05 193.11 Q1328.79 198.342 1328.79 203.504 Q1328.79 208.689 1327.05 213.943 Q1325.34 219.198 1321.87 224.638 L1318.16 224.638 Q1321.24 219.337 1322.75 214.105 Q1324.28 208.851 1324.28 203.504 Q1324.28 198.156 1322.75 192.948 Q1321.24 187.74 1318.16 182.416 Z" fill="#000000" fill-rule="nonzero" fill-opacity="1" /></svg>
