<?xml version="1.0" encoding="utf-8"?>
<svg xmlns="http://www.w3.org/2000/svg" xmlns:xlink="http://www.w3.org/1999/xlink" width="600" height="400" viewBox="0 0 2400 1600">
<defs>
  <clipPath id="clip380">
    <rect x="0" y="0" width="2400" height="1600"/>
  </clipPath>
</defs>
<path clip-path="url(#clip380)" d="M0 1600 L2400 1600 L2400 8.88178e-14 L0 8.88178e-14  Z" fill="#ffffff" fill-rule="evenodd" fill-opacity="1"/>
<defs>
  <clipPath id="clip381">
    <rect x="480" y="0" width="1681" height="1600"/>
  </clipPath>
</defs>
<path clip-path="url(#clip380)" d="M247.459 1423.18 L2352.76 1423.18 L2352.76 47.2441 L247.459 47.2441  Z" fill="#ffffff" fill-rule="evenodd" fill-opacity="1"/>
<defs>
  <clipPath id="clip382">
    <rect x="247" y="47" width="2106" height="1377"/>
  </clipPath>
</defs>
<polyline clip-path="url(#clip382)" style="stroke:#000000; stroke-linecap:round; stroke-linejoin:round; stroke-width:2; stroke-opacity:0.1; fill:none" points="495.294,1423.18 495.294,47.2441 "/>
<polyline clip-path="url(#clip382)" style="stroke:#000000; stroke-linecap:round; stroke-linejoin:round; stroke-width:2; stroke-opacity:0.1; fill:none" points="777.364,1423.18 777.364,47.2441 "/>
<polyline clip-path="url(#clip382)" style="stroke:#000000; stroke-linecap:round; stroke-linejoin:round; stroke-width:2; stroke-opacity:0.1; fill:none" points="1059.43,1423.18 1059.43,47.2441 "/>
<polyline clip-path="url(#clip382)" style="stroke:#000000; stroke-linecap:round; stroke-linejoin:round; stroke-width:2; stroke-opacity:0.1; fill:none" points="1341.51,1423.18 1341.51,47.2441 "/>
<polyline clip-path="url(#clip382)" style="stroke:#000000; stroke-linecap:round; stroke-linejoin:round; stroke-width:2; stroke-opacity:0.1; fill:none" points="1623.58,1423.18 1623.58,47.2441 "/>
<polyline clip-path="url(#clip382)" style="stroke:#000000; stroke-linecap:round; stroke-linejoin:round; stroke-width:2; stroke-opacity:0.1; fill:none" points="1905.65,1423.18 1905.65,47.2441 "/>
<polyline clip-path="url(#clip382)" style="stroke:#000000; stroke-linecap:round; stroke-linejoin:round; stroke-width:2; stroke-opacity:0.1; fill:none" points="2187.72,1423.18 2187.72,47.2441 "/>
<polyline clip-path="url(#clip382)" style="stroke:#000000; stroke-linecap:round; stroke-linejoin:round; stroke-width:2; stroke-opacity:0.1; fill:none" points="495.294,1423.18 495.294,47.2441 "/>
<polyline clip-path="url(#clip382)" style="stroke:#000000; stroke-linecap:round; stroke-linejoin:round; stroke-width:2; stroke-opacity:0.1; fill:none" points="777.364,1423.18 777.364,47.2441 "/>
<polyline clip-path="url(#clip382)" style="stroke:#000000; stroke-linecap:round; stroke-linejoin:round; stroke-width:2; stroke-opacity:0.1; fill:none" points="1059.43,1423.18 1059.43,47.2441 "/>
<polyline clip-path="url(#clip382)" style="stroke:#000000; stroke-linecap:round; stroke-linejoin:round; stroke-width:2; stroke-opacity:0.1; fill:none" points="1341.51,1423.18 1341.51,47.2441 "/>
<polyline clip-path="url(#clip382)" style="stroke:#000000; stroke-linecap:round; stroke-linejoin:round; stroke-width:2; stroke-opacity:0.1; fill:none" points="1623.58,1423.18 1623.58,47.2441 "/>
<polyline clip-path="url(#clip382)" style="stroke:#000000; stroke-linecap:round; stroke-linejoin:round; stroke-width:2; stroke-opacity:0.1; fill:none" points="1905.65,1423.18 1905.65,47.2441 "/>
<polyline clip-path="url(#clip382)" style="stroke:#000000; stroke-linecap:round; stroke-linejoin:round; stroke-width:2; stroke-opacity:0.1; fill:none" points="2187.72,1423.18 2187.72,47.2441 "/>
<polyline clip-path="url(#clip382)" style="stroke:#000000; stroke-linecap:round; stroke-linejoin:round; stroke-width:2; stroke-opacity:0.1; fill:none" points="247.459,1384.25 2352.76,1384.25 "/>
<polyline clip-path="url(#clip382)" style="stroke:#000000; stroke-linecap:round; stroke-linejoin:round; stroke-width:2; stroke-opacity:0.1; fill:none" points="247.459,1102.54 2352.76,1102.54 "/>
<polyline clip-path="url(#clip382)" style="stroke:#000000; stroke-linecap:round; stroke-linejoin:round; stroke-width:2; stroke-opacity:0.1; fill:none" points="247.459,820.834 2352.76,820.834 "/>
<polyline clip-path="url(#clip382)" style="stroke:#000000; stroke-linecap:round; stroke-linejoin:round; stroke-width:2; stroke-opacity:0.1; fill:none" points="247.459,539.128 2352.76,539.128 "/>
<polyline clip-path="url(#clip382)" style="stroke:#000000; stroke-linecap:round; stroke-linejoin:round; stroke-width:2; stroke-opacity:0.1; fill:none" points="247.459,257.421 2352.76,257.421 "/>
<polyline clip-path="url(#clip382)" style="stroke:#000000; stroke-linecap:round; stroke-linejoin:round; stroke-width:2; stroke-opacity:0.1; fill:none" points="247.459,1384.25 2352.76,1384.25 "/>
<polyline clip-path="url(#clip382)" style="stroke:#000000; stroke-linecap:round; stroke-linejoin:round; stroke-width:2; stroke-opacity:0.1; fill:none" points="247.459,1102.54 2352.76,1102.54 "/>
<polyline clip-path="url(#clip382)" style="stroke:#000000; stroke-linecap:round; stroke-linejoin:round; stroke-width:2; stroke-opacity:0.1; fill:none" points="247.459,820.834 2352.76,820.834 "/>
<polyline clip-path="url(#clip382)" style="stroke:#000000; stroke-linecap:round; stroke-linejoin:round; stroke-width:2; stroke-opacity:0.1; fill:none" points="247.459,539.128 2352.76,539.128 "/>
<polyline clip-path="url(#clip382)" style="stroke:#000000; stroke-linecap:round; stroke-linejoin:round; stroke-width:2; stroke-opacity:0.1; fill:none" points="247.459,257.421 2352.76,257.421 "/>
<polyline clip-path="url(#clip380)" style="stroke:#000000; stroke-linecap:round; stroke-linejoin:round; stroke-width:4; stroke-opacity:1; fill:none" points="247.459,1423.18 2352.76,1423.18 "/>
<polyline clip-path="url(#clip380)" style="stroke:#000000; stroke-linecap:round; stroke-linejoin:round; stroke-width:4; stroke-opacity:1; fill:none" points="247.459,47.2441 2352.76,47.2441 "/>
<polyline clip-path="url(#clip380)" style="stroke:#000000; stroke-linecap:round; stroke-linejoin:round; stroke-width:4; stroke-opacity:1; fill:none" points="495.294,1423.18 495.294,1404.28 "/>
<polyline clip-path="url(#clip380)" style="stroke:#000000; stroke-linecap:round; stroke-linejoin:round; stroke-width:4; stroke-opacity:1; fill:none" points="777.364,1423.18 777.364,1404.28 "/>
<polyline clip-path="url(#clip380)" style="stroke:#000000; stroke-linecap:round; stroke-linejoin:round; stroke-width:4; stroke-opacity:1; fill:none" points="1059.43,1423.18 1059.43,1404.28 "/>
<polyline clip-path="url(#clip380)" style="stroke:#000000; stroke-linecap:round; stroke-linejoin:round; stroke-width:4; stroke-opacity:1; fill:none" points="1341.51,1423.18 1341.51,1404.28 "/>
<polyline clip-path="url(#clip380)" style="stroke:#000000; stroke-linecap:round; stroke-linejoin:round; stroke-width:4; stroke-opacity:1; fill:none" points="1623.58,1423.18 1623.58,1404.28 "/>
<polyline clip-path="url(#clip380)" style="stroke:#000000; stroke-linecap:round; stroke-linejoin:round; stroke-width:4; stroke-opacity:1; fill:none" points="1905.65,1423.18 1905.65,1404.28 "/>
<polyline clip-path="url(#clip380)" style="stroke:#000000; stroke-linecap:round; stroke-linejoin:round; stroke-width:4; stroke-opacity:1; fill:none" points="2187.72,1423.18 2187.72,1404.28 "/>
<polyline clip-path="url(#clip380)" style="stroke:#000000; stroke-linecap:round; stroke-linejoin:round; stroke-width:4; stroke-opacity:1; fill:none" points="495.294,47.2441 495.294,66.1417 "/>
<polyline clip-path="url(#clip380)" style="stroke:#000000; stroke-linecap:round; stroke-linejoin:round; stroke-width:4; stroke-opacity:1; fill:none" points="777.364,47.2441 777.364,66.1417 "/>
<polyline clip-path="url(#clip380)" style="stroke:#000000; stroke-linecap:round; stroke-linejoin:round; stroke-width:4; stroke-opacity:1; fill:none" points="1059.43,47.2441 1059.43,66.1417 "/>
<polyline clip-path="url(#clip380)" style="stroke:#000000; stroke-linecap:round; stroke-linejoin:round; stroke-width:4; stroke-opacity:1; fill:none" points="1341.51,47.2441 1341.51,66.1417 "/>
<polyline clip-path="url(#clip380)" style="stroke:#000000; stroke-linecap:round; stroke-linejoin:round; stroke-width:4; stroke-opacity:1; fill:none" points="1623.58,47.2441 1623.58,66.1417 "/>
<polyline clip-path="url(#clip380)" style="stroke:#000000; stroke-linecap:round; stroke-linejoin:round; stroke-width:4; stroke-opacity:1; fill:none" points="1905.65,47.2441 1905.65,66.1417 "/>
<polyline clip-path="url(#clip380)" style="stroke:#000000; stroke-linecap:round; stroke-linejoin:round; stroke-width:4; stroke-opacity:1; fill:none" points="2187.72,47.2441 2187.72,66.1417 "/>
<path clip-path="url(#clip380)" d="M458.002 1466.44 Q454.854 1466.44 453.003 1468.59 Q451.174 1470.74 451.174 1474.49 Q451.174 1478.22 453.003 1480.39 Q454.854 1482.55 458.002 1482.55 Q461.151 1482.55 462.979 1480.39 Q464.831 1478.22 464.831 1474.49 Q464.831 1470.74 462.979 1468.59 Q461.151 1466.44 458.002 1466.44 M467.285 1451.78 L467.285 1456.04 Q465.526 1455.21 463.72 1454.77 Q461.938 1454.33 460.178 1454.33 Q455.549 1454.33 453.095 1457.45 Q450.665 1460.58 450.317 1466.9 Q451.683 1464.89 453.743 1463.82 Q455.803 1462.73 458.28 1462.73 Q463.489 1462.73 466.498 1465.9 Q469.53 1469.05 469.53 1474.49 Q469.53 1479.82 466.382 1483.03 Q463.234 1486.25 458.002 1486.25 Q452.007 1486.25 448.836 1481.67 Q445.665 1477.06 445.665 1468.33 Q445.665 1460.14 449.553 1455.28 Q453.442 1450.39 459.993 1450.39 Q461.752 1450.39 463.535 1450.74 Q465.34 1451.09 467.285 1451.78 Z" fill="#000000" fill-rule="nonzero" fill-opacity="1" /><path clip-path="url(#clip380)" d="M477.632 1451.02 L495.988 1451.02 L495.988 1454.96 L481.914 1454.96 L481.914 1463.43 Q482.933 1463.08 483.951 1462.92 Q484.97 1462.73 485.988 1462.73 Q491.775 1462.73 495.155 1465.9 Q498.535 1469.08 498.535 1474.49 Q498.535 1480.07 495.062 1483.17 Q491.59 1486.25 485.271 1486.25 Q483.095 1486.25 480.826 1485.88 Q478.581 1485.51 476.174 1484.77 L476.174 1480.07 Q478.257 1481.2 480.479 1481.76 Q482.701 1482.32 485.178 1482.32 Q489.183 1482.32 491.521 1480.21 Q493.859 1478.1 493.859 1474.49 Q493.859 1470.88 491.521 1468.77 Q489.183 1466.67 485.178 1466.67 Q483.303 1466.67 481.428 1467.08 Q479.576 1467.5 477.632 1468.38 L477.632 1451.02 Z" fill="#000000" fill-rule="nonzero" fill-opacity="1" /><path clip-path="url(#clip380)" d="M507.748 1479.7 L512.632 1479.7 L512.632 1485.58 L507.748 1485.58 L507.748 1479.7 Z" fill="#000000" fill-rule="nonzero" fill-opacity="1" /><path clip-path="url(#clip380)" d="M533.396 1466.44 Q530.247 1466.44 528.396 1468.59 Q526.567 1470.74 526.567 1474.49 Q526.567 1478.22 528.396 1480.39 Q530.247 1482.55 533.396 1482.55 Q536.544 1482.55 538.372 1480.39 Q540.224 1478.22 540.224 1474.49 Q540.224 1470.74 538.372 1468.59 Q536.544 1466.44 533.396 1466.44 M542.678 1451.78 L542.678 1456.04 Q540.919 1455.21 539.113 1454.77 Q537.331 1454.33 535.572 1454.33 Q530.942 1454.33 528.488 1457.45 Q526.058 1460.58 525.71 1466.9 Q527.076 1464.89 529.136 1463.82 Q531.197 1462.73 533.673 1462.73 Q538.882 1462.73 541.891 1465.9 Q544.923 1469.05 544.923 1474.49 Q544.923 1479.82 541.775 1483.03 Q538.627 1486.25 533.396 1486.25 Q527.4 1486.25 524.229 1481.67 Q521.058 1477.06 521.058 1468.33 Q521.058 1460.14 524.947 1455.28 Q528.835 1450.39 535.386 1450.39 Q537.146 1450.39 538.928 1450.74 Q540.734 1451.09 542.678 1451.78 Z" fill="#000000" fill-rule="nonzero" fill-opacity="1" /><path clip-path="url(#clip380)" d="M740.605 1466.44 Q737.457 1466.44 735.605 1468.59 Q733.777 1470.74 733.777 1474.49 Q733.777 1478.22 735.605 1480.39 Q737.457 1482.55 740.605 1482.55 Q743.753 1482.55 745.582 1480.39 Q747.434 1478.22 747.434 1474.49 Q747.434 1470.74 745.582 1468.59 Q743.753 1466.44 740.605 1466.44 M749.888 1451.78 L749.888 1456.04 Q748.128 1455.21 746.323 1454.77 Q744.54 1454.33 742.781 1454.33 Q738.152 1454.33 735.698 1457.45 Q733.267 1460.58 732.92 1466.9 Q734.286 1464.89 736.346 1463.82 Q738.406 1462.73 740.883 1462.73 Q746.091 1462.73 749.101 1465.9 Q752.133 1469.05 752.133 1474.49 Q752.133 1479.82 748.985 1483.03 Q745.837 1486.25 740.605 1486.25 Q734.61 1486.25 731.439 1481.67 Q728.267 1477.06 728.267 1468.33 Q728.267 1460.14 732.156 1455.28 Q736.045 1450.39 742.596 1450.39 Q744.355 1450.39 746.138 1450.74 Q747.943 1451.09 749.888 1451.78 Z" fill="#000000" fill-rule="nonzero" fill-opacity="1" /><path clip-path="url(#clip380)" d="M760.235 1451.02 L778.591 1451.02 L778.591 1454.96 L764.517 1454.96 L764.517 1463.43 Q765.536 1463.08 766.554 1462.92 Q767.573 1462.73 768.591 1462.73 Q774.378 1462.73 777.758 1465.9 Q781.137 1469.08 781.137 1474.49 Q781.137 1480.07 777.665 1483.17 Q774.193 1486.25 767.874 1486.25 Q765.698 1486.25 763.429 1485.88 Q761.184 1485.51 758.776 1484.77 L758.776 1480.07 Q760.86 1481.2 763.082 1481.76 Q765.304 1482.32 767.781 1482.32 Q771.786 1482.32 774.124 1480.21 Q776.462 1478.1 776.462 1474.49 Q776.462 1470.88 774.124 1468.77 Q771.786 1466.67 767.781 1466.67 Q765.906 1466.67 764.031 1467.08 Q762.179 1467.5 760.235 1468.38 L760.235 1451.02 Z" fill="#000000" fill-rule="nonzero" fill-opacity="1" /><path clip-path="url(#clip380)" d="M790.35 1479.7 L795.235 1479.7 L795.235 1485.58 L790.35 1485.58 L790.35 1479.7 Z" fill="#000000" fill-rule="nonzero" fill-opacity="1" /><path clip-path="url(#clip380)" d="M804.239 1451.02 L826.461 1451.02 L826.461 1453.01 L813.915 1485.58 L809.031 1485.58 L820.836 1454.96 L804.239 1454.96 L804.239 1451.02 Z" fill="#000000" fill-rule="nonzero" fill-opacity="1" /><path clip-path="url(#clip380)" d="M1022.27 1466.44 Q1019.12 1466.44 1017.27 1468.59 Q1015.44 1470.74 1015.44 1474.49 Q1015.44 1478.22 1017.27 1480.39 Q1019.12 1482.55 1022.27 1482.55 Q1025.42 1482.55 1027.25 1480.39 Q1029.1 1478.22 1029.1 1474.49 Q1029.1 1470.74 1027.25 1468.59 Q1025.42 1466.44 1022.27 1466.44 M1031.55 1451.78 L1031.55 1456.04 Q1029.79 1455.21 1027.99 1454.77 Q1026.21 1454.33 1024.45 1454.33 Q1019.82 1454.33 1017.36 1457.45 Q1014.93 1460.58 1014.59 1466.9 Q1015.95 1464.89 1018.01 1463.82 Q1020.07 1462.73 1022.55 1462.73 Q1027.76 1462.73 1030.77 1465.9 Q1033.8 1469.05 1033.8 1474.49 Q1033.8 1479.82 1030.65 1483.03 Q1027.5 1486.25 1022.27 1486.25 Q1016.28 1486.25 1013.1 1481.67 Q1009.93 1477.06 1009.93 1468.33 Q1009.93 1460.14 1013.82 1455.28 Q1017.71 1450.39 1024.26 1450.39 Q1026.02 1450.39 1027.8 1450.74 Q1029.61 1451.09 1031.55 1451.78 Z" fill="#000000" fill-rule="nonzero" fill-opacity="1" /><path clip-path="url(#clip380)" d="M1041.9 1451.02 L1060.26 1451.02 L1060.26 1454.96 L1046.18 1454.96 L1046.18 1463.43 Q1047.2 1463.08 1048.22 1462.92 Q1049.24 1462.73 1050.26 1462.73 Q1056.04 1462.73 1059.42 1465.9 Q1062.8 1469.08 1062.8 1474.49 Q1062.8 1480.07 1059.33 1483.17 Q1055.86 1486.25 1049.54 1486.25 Q1047.36 1486.25 1045.09 1485.88 Q1042.85 1485.51 1040.44 1484.77 L1040.44 1480.07 Q1042.53 1481.2 1044.75 1481.76 Q1046.97 1482.32 1049.45 1482.32 Q1053.45 1482.32 1055.79 1480.21 Q1058.13 1478.1 1058.13 1474.49 Q1058.13 1470.88 1055.79 1468.77 Q1053.45 1466.67 1049.45 1466.67 Q1047.57 1466.67 1045.7 1467.08 Q1043.84 1467.5 1041.9 1468.38 L1041.9 1451.02 Z" fill="#000000" fill-rule="nonzero" fill-opacity="1" /><path clip-path="url(#clip380)" d="M1072.02 1479.7 L1076.9 1479.7 L1076.9 1485.58 L1072.02 1485.58 L1072.02 1479.7 Z" fill="#000000" fill-rule="nonzero" fill-opacity="1" /><path clip-path="url(#clip380)" d="M1097.09 1469.17 Q1093.75 1469.17 1091.83 1470.95 Q1089.93 1472.73 1089.93 1475.86 Q1089.93 1478.98 1091.83 1480.77 Q1093.75 1482.55 1097.09 1482.55 Q1100.42 1482.55 1102.34 1480.77 Q1104.26 1478.96 1104.26 1475.86 Q1104.26 1472.73 1102.34 1470.95 Q1100.44 1469.17 1097.09 1469.17 M1092.41 1467.18 Q1089.4 1466.44 1087.71 1464.38 Q1086.04 1462.32 1086.04 1459.35 Q1086.04 1455.21 1088.98 1452.8 Q1091.95 1450.39 1097.09 1450.39 Q1102.25 1450.39 1105.19 1452.8 Q1108.13 1455.21 1108.13 1459.35 Q1108.13 1462.32 1106.44 1464.38 Q1104.77 1466.44 1101.78 1467.18 Q1105.16 1467.96 1107.04 1470.26 Q1108.94 1472.55 1108.94 1475.86 Q1108.94 1480.88 1105.86 1483.57 Q1102.8 1486.25 1097.09 1486.25 Q1091.37 1486.25 1088.29 1483.57 Q1085.23 1480.88 1085.23 1475.86 Q1085.23 1472.55 1087.13 1470.26 Q1089.03 1467.96 1092.41 1467.18 M1090.7 1459.79 Q1090.7 1462.48 1092.36 1463.98 Q1094.05 1465.49 1097.09 1465.49 Q1100.09 1465.49 1101.78 1463.98 Q1103.5 1462.48 1103.5 1459.79 Q1103.5 1457.11 1101.78 1455.6 Q1100.09 1454.1 1097.09 1454.1 Q1094.05 1454.1 1092.36 1455.6 Q1090.7 1457.11 1090.7 1459.79 Z" fill="#000000" fill-rule="nonzero" fill-opacity="1" /><path clip-path="url(#clip380)" d="M1304.39 1466.44 Q1301.24 1466.44 1299.39 1468.59 Q1297.56 1470.74 1297.56 1474.49 Q1297.56 1478.22 1299.39 1480.39 Q1301.24 1482.55 1304.39 1482.55 Q1307.54 1482.55 1309.36 1480.39 Q1311.22 1478.22 1311.22 1474.49 Q1311.22 1470.74 1309.36 1468.59 Q1307.54 1466.44 1304.39 1466.44 M1313.67 1451.78 L1313.67 1456.04 Q1311.91 1455.21 1310.1 1454.77 Q1308.32 1454.33 1306.56 1454.33 Q1301.93 1454.33 1299.48 1457.45 Q1297.05 1460.58 1296.7 1466.9 Q1298.07 1464.89 1300.13 1463.82 Q1302.19 1462.73 1304.67 1462.73 Q1309.87 1462.73 1312.88 1465.9 Q1315.92 1469.05 1315.92 1474.49 Q1315.92 1479.82 1312.77 1483.03 Q1309.62 1486.25 1304.39 1486.25 Q1298.39 1486.25 1295.22 1481.67 Q1292.05 1477.06 1292.05 1468.33 Q1292.05 1460.14 1295.94 1455.28 Q1299.83 1450.39 1306.38 1450.39 Q1308.14 1450.39 1309.92 1450.74 Q1311.73 1451.09 1313.67 1451.78 Z" fill="#000000" fill-rule="nonzero" fill-opacity="1" /><path clip-path="url(#clip380)" d="M1324.02 1451.02 L1342.37 1451.02 L1342.37 1454.96 L1328.3 1454.96 L1328.3 1463.43 Q1329.32 1463.08 1330.34 1462.92 Q1331.35 1462.73 1332.37 1462.73 Q1338.16 1462.73 1341.54 1465.9 Q1344.92 1469.08 1344.92 1474.49 Q1344.92 1480.07 1341.45 1483.17 Q1337.98 1486.25 1331.66 1486.25 Q1329.48 1486.25 1327.21 1485.88 Q1324.97 1485.51 1322.56 1484.77 L1322.56 1480.07 Q1324.64 1481.2 1326.86 1481.76 Q1329.09 1482.32 1331.56 1482.32 Q1335.57 1482.32 1337.91 1480.21 Q1340.24 1478.1 1340.24 1474.49 Q1340.24 1470.88 1337.91 1468.77 Q1335.57 1466.67 1331.56 1466.67 Q1329.69 1466.67 1327.81 1467.08 Q1325.96 1467.5 1324.02 1468.38 L1324.02 1451.02 Z" fill="#000000" fill-rule="nonzero" fill-opacity="1" /><path clip-path="url(#clip380)" d="M1354.13 1479.7 L1359.02 1479.7 L1359.02 1485.58 L1354.13 1485.58 L1354.13 1479.7 Z" fill="#000000" fill-rule="nonzero" fill-opacity="1" /><path clip-path="url(#clip380)" d="M1369.34 1484.86 L1369.34 1480.6 Q1371.1 1481.44 1372.91 1481.88 Q1374.71 1482.32 1376.45 1482.32 Q1381.08 1482.32 1383.51 1479.21 Q1385.96 1476.09 1386.31 1469.75 Q1384.97 1471.74 1382.91 1472.8 Q1380.85 1473.87 1378.35 1473.87 Q1373.16 1473.87 1370.13 1470.74 Q1367.12 1467.59 1367.12 1462.15 Q1367.12 1456.83 1370.27 1453.61 Q1373.41 1450.39 1378.65 1450.39 Q1384.64 1450.39 1387.79 1455 Q1390.96 1459.58 1390.96 1468.33 Q1390.96 1476.51 1387.07 1481.39 Q1383.21 1486.25 1376.66 1486.25 Q1374.9 1486.25 1373.09 1485.9 Q1371.29 1485.56 1369.34 1484.86 M1378.65 1470.21 Q1381.79 1470.21 1383.62 1468.06 Q1385.47 1465.9 1385.47 1462.15 Q1385.47 1458.43 1383.62 1456.27 Q1381.79 1454.1 1378.65 1454.1 Q1375.5 1454.1 1373.65 1456.27 Q1371.82 1458.43 1371.82 1462.15 Q1371.82 1465.9 1373.65 1468.06 Q1375.5 1470.21 1378.65 1470.21 Z" fill="#000000" fill-rule="nonzero" fill-opacity="1" /><path clip-path="url(#clip380)" d="M1586.37 1466.44 Q1583.22 1466.44 1581.37 1468.59 Q1579.54 1470.74 1579.54 1474.49 Q1579.54 1478.22 1581.37 1480.39 Q1583.22 1482.55 1586.37 1482.55 Q1589.51 1482.55 1591.34 1480.39 Q1593.19 1478.22 1593.19 1474.49 Q1593.19 1470.74 1591.34 1468.59 Q1589.51 1466.44 1586.37 1466.44 M1595.65 1451.78 L1595.65 1456.04 Q1593.89 1455.21 1592.08 1454.77 Q1590.3 1454.33 1588.54 1454.33 Q1583.91 1454.33 1581.46 1457.45 Q1579.03 1460.58 1578.68 1466.9 Q1580.05 1464.89 1582.11 1463.82 Q1584.17 1462.73 1586.64 1462.73 Q1591.85 1462.73 1594.86 1465.9 Q1597.89 1469.05 1597.89 1474.49 Q1597.89 1479.82 1594.74 1483.03 Q1591.6 1486.25 1586.37 1486.25 Q1580.37 1486.25 1577.2 1481.67 Q1574.03 1477.06 1574.03 1468.33 Q1574.03 1460.14 1577.92 1455.28 Q1581.8 1450.39 1588.36 1450.39 Q1590.12 1450.39 1591.9 1450.74 Q1593.7 1451.09 1595.65 1451.78 Z" fill="#000000" fill-rule="nonzero" fill-opacity="1" /><path clip-path="url(#clip380)" d="M1616.53 1466.44 Q1613.38 1466.44 1611.53 1468.59 Q1609.7 1470.74 1609.7 1474.49 Q1609.7 1478.22 1611.53 1480.39 Q1613.38 1482.55 1616.53 1482.55 Q1619.68 1482.55 1621.5 1480.39 Q1623.36 1478.22 1623.36 1474.49 Q1623.36 1470.74 1621.5 1468.59 Q1619.68 1466.44 1616.53 1466.44 M1625.81 1451.78 L1625.81 1456.04 Q1624.05 1455.21 1622.24 1454.77 Q1620.46 1454.33 1618.7 1454.33 Q1614.07 1454.33 1611.62 1457.45 Q1609.19 1460.58 1608.84 1466.9 Q1610.21 1464.89 1612.27 1463.82 Q1614.33 1462.73 1616.8 1462.73 Q1622.01 1462.73 1625.02 1465.9 Q1628.05 1469.05 1628.05 1474.49 Q1628.05 1479.82 1624.91 1483.03 Q1621.76 1486.25 1616.53 1486.25 Q1610.53 1486.25 1607.36 1481.67 Q1604.19 1477.06 1604.19 1468.33 Q1604.19 1460.14 1608.08 1455.28 Q1611.97 1450.39 1618.52 1450.39 Q1620.28 1450.39 1622.06 1450.74 Q1623.86 1451.09 1625.81 1451.78 Z" fill="#000000" fill-rule="nonzero" fill-opacity="1" /><path clip-path="url(#clip380)" d="M1636.11 1479.7 L1640.99 1479.7 L1640.99 1485.58 L1636.11 1485.58 L1636.11 1479.7 Z" fill="#000000" fill-rule="nonzero" fill-opacity="1" /><path clip-path="url(#clip380)" d="M1661.18 1454.1 Q1657.57 1454.1 1655.74 1457.66 Q1653.93 1461.2 1653.93 1468.33 Q1653.93 1475.44 1655.74 1479.01 Q1657.57 1482.55 1661.18 1482.55 Q1664.81 1482.55 1666.62 1479.01 Q1668.45 1475.44 1668.45 1468.33 Q1668.45 1461.2 1666.62 1457.66 Q1664.81 1454.1 1661.18 1454.1 M1661.18 1450.39 Q1666.99 1450.39 1670.05 1455 Q1673.12 1459.58 1673.12 1468.33 Q1673.12 1477.06 1670.05 1481.67 Q1666.99 1486.25 1661.18 1486.25 Q1655.37 1486.25 1652.29 1481.67 Q1649.24 1477.06 1649.24 1468.33 Q1649.24 1459.58 1652.29 1455 Q1655.37 1450.39 1661.18 1450.39 Z" fill="#000000" fill-rule="nonzero" fill-opacity="1" /><path clip-path="url(#clip380)" d="M1869.05 1466.44 Q1865.9 1466.44 1864.05 1468.59 Q1862.22 1470.74 1862.22 1474.49 Q1862.22 1478.22 1864.05 1480.39 Q1865.9 1482.55 1869.05 1482.55 Q1872.2 1482.55 1874.03 1480.39 Q1875.88 1478.22 1875.88 1474.49 Q1875.88 1470.74 1874.03 1468.59 Q1872.2 1466.44 1869.05 1466.44 M1878.33 1451.78 L1878.33 1456.04 Q1876.57 1455.21 1874.77 1454.77 Q1872.98 1454.33 1871.22 1454.33 Q1866.6 1454.33 1864.14 1457.45 Q1861.71 1460.58 1861.36 1466.9 Q1862.73 1464.89 1864.79 1463.82 Q1866.85 1462.73 1869.33 1462.73 Q1874.54 1462.73 1877.54 1465.9 Q1880.58 1469.05 1880.58 1474.49 Q1880.58 1479.82 1877.43 1483.03 Q1874.28 1486.25 1869.05 1486.25 Q1863.05 1486.25 1859.88 1481.67 Q1856.71 1477.06 1856.71 1468.33 Q1856.71 1460.14 1860.6 1455.28 Q1864.49 1450.39 1871.04 1450.39 Q1872.8 1450.39 1874.58 1450.74 Q1876.39 1451.09 1878.33 1451.78 Z" fill="#000000" fill-rule="nonzero" fill-opacity="1" /><path clip-path="url(#clip380)" d="M1899.21 1466.44 Q1896.06 1466.44 1894.21 1468.59 Q1892.38 1470.74 1892.38 1474.49 Q1892.38 1478.22 1894.21 1480.39 Q1896.06 1482.55 1899.21 1482.55 Q1902.36 1482.55 1904.19 1480.39 Q1906.04 1478.22 1906.04 1474.49 Q1906.04 1470.74 1904.19 1468.59 Q1902.36 1466.44 1899.21 1466.44 M1908.49 1451.78 L1908.49 1456.04 Q1906.73 1455.21 1904.93 1454.77 Q1903.15 1454.33 1901.39 1454.33 Q1896.76 1454.33 1894.3 1457.45 Q1891.87 1460.58 1891.53 1466.9 Q1892.89 1464.89 1894.95 1463.82 Q1897.01 1462.73 1899.49 1462.73 Q1904.7 1462.73 1907.71 1465.9 Q1910.74 1469.05 1910.74 1474.49 Q1910.74 1479.82 1907.59 1483.03 Q1904.44 1486.25 1899.21 1486.25 Q1893.22 1486.25 1890.04 1481.67 Q1886.87 1477.06 1886.87 1468.33 Q1886.87 1460.14 1890.76 1455.28 Q1894.65 1450.39 1901.2 1450.39 Q1902.96 1450.39 1904.74 1450.74 Q1906.55 1451.09 1908.49 1451.78 Z" fill="#000000" fill-rule="nonzero" fill-opacity="1" /><path clip-path="url(#clip380)" d="M1918.79 1479.7 L1923.68 1479.7 L1923.68 1485.58 L1918.79 1485.58 L1918.79 1479.7 Z" fill="#000000" fill-rule="nonzero" fill-opacity="1" /><path clip-path="url(#clip380)" d="M1934.67 1481.64 L1942.31 1481.64 L1942.31 1455.28 L1934 1456.95 L1934 1452.69 L1942.27 1451.02 L1946.94 1451.02 L1946.94 1481.64 L1954.58 1481.64 L1954.58 1485.58 L1934.67 1485.58 L1934.67 1481.64 Z" fill="#000000" fill-rule="nonzero" fill-opacity="1" /><path clip-path="url(#clip380)" d="M2151.3 1466.44 Q2148.16 1466.44 2146.3 1468.59 Q2144.48 1470.74 2144.48 1474.49 Q2144.48 1478.22 2146.3 1480.39 Q2148.16 1482.55 2151.3 1482.55 Q2154.45 1482.55 2156.28 1480.39 Q2158.13 1478.22 2158.13 1474.49 Q2158.13 1470.74 2156.28 1468.59 Q2154.45 1466.44 2151.3 1466.44 M2160.59 1451.78 L2160.59 1456.04 Q2158.83 1455.21 2157.02 1454.77 Q2155.24 1454.33 2153.48 1454.33 Q2148.85 1454.33 2146.4 1457.45 Q2143.97 1460.58 2143.62 1466.9 Q2144.99 1464.89 2147.05 1463.82 Q2149.11 1462.73 2151.58 1462.73 Q2156.79 1462.73 2159.8 1465.9 Q2162.83 1469.05 2162.83 1474.49 Q2162.83 1479.82 2159.68 1483.03 Q2156.54 1486.25 2151.3 1486.25 Q2145.31 1486.25 2142.14 1481.67 Q2138.97 1477.06 2138.97 1468.33 Q2138.97 1460.14 2142.86 1455.28 Q2146.74 1450.39 2153.3 1450.39 Q2155.05 1450.39 2156.84 1450.74 Q2158.64 1451.09 2160.59 1451.78 Z" fill="#000000" fill-rule="nonzero" fill-opacity="1" /><path clip-path="url(#clip380)" d="M2181.47 1466.44 Q2178.32 1466.44 2176.47 1468.59 Q2174.64 1470.74 2174.64 1474.49 Q2174.64 1478.22 2176.47 1480.39 Q2178.32 1482.55 2181.47 1482.55 Q2184.61 1482.55 2186.44 1480.39 Q2188.3 1478.22 2188.3 1474.49 Q2188.3 1470.74 2186.44 1468.59 Q2184.61 1466.44 2181.47 1466.44 M2190.75 1451.78 L2190.75 1456.04 Q2188.99 1455.21 2187.18 1454.77 Q2185.4 1454.33 2183.64 1454.33 Q2179.01 1454.33 2176.56 1457.45 Q2174.13 1460.58 2173.78 1466.9 Q2175.15 1464.89 2177.21 1463.82 Q2179.27 1462.73 2181.74 1462.73 Q2186.95 1462.73 2189.96 1465.9 Q2192.99 1469.05 2192.99 1474.49 Q2192.99 1479.82 2189.85 1483.03 Q2186.7 1486.25 2181.47 1486.25 Q2175.47 1486.25 2172.3 1481.67 Q2169.13 1477.06 2169.13 1468.33 Q2169.13 1460.14 2173.02 1455.28 Q2176.91 1450.39 2183.46 1450.39 Q2185.22 1450.39 2187 1450.74 Q2188.8 1451.09 2190.75 1451.78 Z" fill="#000000" fill-rule="nonzero" fill-opacity="1" /><path clip-path="url(#clip380)" d="M2201.05 1479.7 L2205.93 1479.7 L2205.93 1485.58 L2201.05 1485.58 L2201.05 1479.7 Z" fill="#000000" fill-rule="nonzero" fill-opacity="1" /><path clip-path="url(#clip380)" d="M2220.15 1481.64 L2236.47 1481.64 L2236.47 1485.58 L2214.52 1485.58 L2214.52 1481.64 Q2217.18 1478.89 2221.77 1474.26 Q2226.37 1469.61 2227.55 1468.27 Q2229.8 1465.74 2230.68 1464.01 Q2231.58 1462.25 2231.58 1460.56 Q2231.58 1457.8 2229.64 1456.07 Q2227.72 1454.33 2224.61 1454.33 Q2222.42 1454.33 2219.96 1455.09 Q2217.53 1455.86 2214.75 1457.41 L2214.75 1452.69 Q2217.58 1451.55 2220.03 1450.97 Q2222.48 1450.39 2224.52 1450.39 Q2229.89 1450.39 2233.09 1453.08 Q2236.28 1455.77 2236.28 1460.26 Q2236.28 1462.39 2235.47 1464.31 Q2234.68 1466.2 2232.58 1468.8 Q2232 1469.47 2228.9 1472.69 Q2225.79 1475.88 2220.15 1481.64 Z" fill="#000000" fill-rule="nonzero" fill-opacity="1" /><path clip-path="url(#clip380)" d="M1178.01 1526.86 L1169.29 1550.51 L1186.77 1550.51 L1178.01 1526.86 M1174.38 1520.52 L1181.67 1520.52 L1199.78 1568.04 L1193.1 1568.04 L1188.77 1555.85 L1167.35 1555.85 L1163.02 1568.04 L1156.24 1568.04 L1174.38 1520.52 Z" fill="#000000" fill-rule="nonzero" fill-opacity="1" /><path clip-path="url(#clip380)" d="M1229.93 1549.81 Q1229.93 1543.44 1227.28 1539.94 Q1224.67 1536.44 1219.93 1536.44 Q1215.22 1536.44 1212.58 1539.94 Q1209.97 1543.44 1209.97 1549.81 Q1209.97 1556.14 1212.58 1559.64 Q1215.22 1563.14 1219.93 1563.14 Q1224.67 1563.14 1227.28 1559.64 Q1229.93 1556.14 1229.93 1549.81 M1235.78 1563.62 Q1235.78 1572.72 1231.74 1577.15 Q1227.7 1581.6 1219.36 1581.6 Q1216.27 1581.6 1213.53 1581.13 Q1210.8 1580.68 1208.22 1579.72 L1208.22 1574.03 Q1210.8 1575.43 1213.31 1576.1 Q1215.83 1576.76 1218.44 1576.76 Q1224.2 1576.76 1227.06 1573.74 Q1229.93 1570.75 1229.93 1564.67 L1229.93 1561.77 Q1228.11 1564.92 1225.28 1566.48 Q1222.45 1568.04 1218.5 1568.04 Q1211.94 1568.04 1207.93 1563.05 Q1203.92 1558.05 1203.92 1549.81 Q1203.92 1541.53 1207.93 1536.53 Q1211.94 1531.54 1218.5 1531.54 Q1222.45 1531.54 1225.28 1533.1 Q1228.11 1534.66 1229.93 1537.81 L1229.93 1532.4 L1235.78 1532.4 L1235.78 1563.62 Z" fill="#000000" fill-rule="nonzero" fill-opacity="1" /><path clip-path="url(#clip380)" d="M1278.34 1548.76 L1278.34 1551.62 L1251.41 1551.62 Q1251.79 1557.67 1255.04 1560.85 Q1258.32 1564 1264.14 1564 Q1267.51 1564 1270.67 1563.17 Q1273.85 1562.35 1276.97 1560.69 L1276.97 1566.23 Q1273.82 1567.57 1270.51 1568.27 Q1267.2 1568.97 1263.79 1568.97 Q1255.26 1568.97 1250.26 1564 Q1245.3 1559.04 1245.3 1550.57 Q1245.3 1541.82 1250.01 1536.69 Q1254.75 1531.54 1262.77 1531.54 Q1269.97 1531.54 1274.14 1536.18 Q1278.34 1540.8 1278.34 1548.76 M1272.48 1547.04 Q1272.42 1542.23 1269.77 1539.37 Q1267.16 1536.5 1262.84 1536.5 Q1257.93 1536.5 1254.97 1539.27 Q1252.05 1542.04 1251.6 1547.07 L1272.48 1547.04 Z" fill="#000000" fill-rule="nonzero" fill-opacity="1" /><path clip-path="url(#clip380)" d="M1322.74 1518.58 Q1318.47 1525.9 1316.4 1533.06 Q1314.33 1540.23 1314.33 1547.58 Q1314.33 1554.93 1316.4 1562.16 Q1318.5 1569.35 1322.74 1576.64 L1317.64 1576.64 Q1312.87 1569.16 1310.48 1561.93 Q1308.13 1554.71 1308.13 1547.58 Q1308.13 1540.48 1310.48 1533.29 Q1312.84 1526.09 1317.64 1518.58 L1322.74 1518.58 Z" fill="#000000" fill-rule="nonzero" fill-opacity="1" /><path clip-path="url(#clip380)" d="M1334.35 1520.52 L1343.94 1520.52 L1356.06 1552.86 L1368.25 1520.52 L1377.83 1520.52 L1377.83 1568.04 L1371.56 1568.04 L1371.56 1526.32 L1359.31 1558.91 L1352.85 1558.91 L1340.59 1526.32 L1340.59 1568.04 L1334.35 1568.04 L1334.35 1520.52 Z" fill="#000000" fill-rule="nonzero" fill-opacity="1" /><path clip-path="url(#clip380)" d="M1406.54 1550.12 Q1399.44 1550.12 1396.71 1551.75 Q1393.97 1553.37 1393.97 1557.29 Q1393.97 1560.4 1396.01 1562.25 Q1398.08 1564.07 1401.61 1564.07 Q1406.48 1564.07 1409.41 1560.63 Q1412.37 1557.16 1412.37 1551.43 L1412.37 1550.12 L1406.54 1550.12 M1418.22 1547.71 L1418.22 1568.04 L1412.37 1568.04 L1412.37 1562.63 Q1410.36 1565.88 1407.37 1567.44 Q1404.38 1568.97 1400.05 1568.97 Q1394.57 1568.97 1391.33 1565.91 Q1388.11 1562.82 1388.11 1557.67 Q1388.11 1551.65 1392.12 1548.6 Q1396.17 1545.54 1404.15 1545.54 L1412.37 1545.54 L1412.37 1544.97 Q1412.37 1540.93 1409.69 1538.73 Q1407.05 1536.5 1402.25 1536.5 Q1399.19 1536.5 1396.29 1537.23 Q1393.4 1537.97 1390.72 1539.43 L1390.72 1534.02 Q1393.94 1532.78 1396.96 1532.17 Q1399.99 1531.54 1402.85 1531.54 Q1410.58 1531.54 1414.4 1535.55 Q1418.22 1539.56 1418.22 1547.71 Z" fill="#000000" fill-rule="nonzero" fill-opacity="1" /><path clip-path="url(#clip380)" d="M1429.36 1518.58 L1434.46 1518.58 Q1439.23 1526.09 1441.59 1533.29 Q1443.97 1540.48 1443.97 1547.58 Q1443.97 1554.71 1441.59 1561.93 Q1439.23 1569.16 1434.46 1576.64 L1429.36 1576.64 Q1433.6 1569.35 1435.67 1562.16 Q1437.77 1554.93 1437.77 1547.58 Q1437.77 1540.23 1435.67 1533.06 Q1433.6 1525.9 1429.36 1518.58 Z" fill="#000000" fill-rule="nonzero" fill-opacity="1" /><polyline clip-path="url(#clip380)" style="stroke:#000000; stroke-linecap:round; stroke-linejoin:round; stroke-width:4; stroke-opacity:1; fill:none" points="247.459,1423.18 247.459,47.2441 "/>
<polyline clip-path="url(#clip380)" style="stroke:#000000; stroke-linecap:round; stroke-linejoin:round; stroke-width:4; stroke-opacity:1; fill:none" points="2352.76,1423.18 2352.76,47.2441 "/>
<polyline clip-path="url(#clip380)" style="stroke:#000000; stroke-linecap:round; stroke-linejoin:round; stroke-width:4; stroke-opacity:1; fill:none" points="247.459,1384.25 266.356,1384.25 "/>
<polyline clip-path="url(#clip380)" style="stroke:#000000; stroke-linecap:round; stroke-linejoin:round; stroke-width:4; stroke-opacity:1; fill:none" points="247.459,1102.54 266.356,1102.54 "/>
<polyline clip-path="url(#clip380)" style="stroke:#000000; stroke-linecap:round; stroke-linejoin:round; stroke-width:4; stroke-opacity:1; fill:none" points="247.459,820.834 266.356,820.834 "/>
<polyline clip-path="url(#clip380)" style="stroke:#000000; stroke-linecap:round; stroke-linejoin:round; stroke-width:4; stroke-opacity:1; fill:none" points="247.459,539.128 266.356,539.128 "/>
<polyline clip-path="url(#clip380)" style="stroke:#000000; stroke-linecap:round; stroke-linejoin:round; stroke-width:4; stroke-opacity:1; fill:none" points="247.459,257.421 266.356,257.421 "/>
<polyline clip-path="url(#clip380)" style="stroke:#000000; stroke-linecap:round; stroke-linejoin:round; stroke-width:4; stroke-opacity:1; fill:none" points="2352.76,1384.25 2333.86,1384.25 "/>
<polyline clip-path="url(#clip380)" style="stroke:#000000; stroke-linecap:round; stroke-linejoin:round; stroke-width:4; stroke-opacity:1; fill:none" points="2352.76,1102.54 2333.86,1102.54 "/>
<polyline clip-path="url(#clip380)" style="stroke:#000000; stroke-linecap:round; stroke-linejoin:round; stroke-width:4; stroke-opacity:1; fill:none" points="2352.76,820.834 2333.86,820.834 "/>
<polyline clip-path="url(#clip380)" style="stroke:#000000; stroke-linecap:round; stroke-linejoin:round; stroke-width:4; stroke-opacity:1; fill:none" points="2352.76,539.128 2333.86,539.128 "/>
<polyline clip-path="url(#clip380)" style="stroke:#000000; stroke-linecap:round; stroke-linejoin:round; stroke-width:4; stroke-opacity:1; fill:none" points="2352.76,257.421 2333.86,257.421 "/>
<path clip-path="url(#clip380)" d="M154.283 1370.05 Q150.672 1370.05 148.843 1373.61 Q147.038 1377.15 147.038 1384.28 Q147.038 1391.39 148.843 1394.95 Q150.672 1398.5 154.283 1398.5 Q157.917 1398.5 159.723 1394.95 Q161.552 1391.39 161.552 1384.28 Q161.552 1377.15 159.723 1373.61 Q157.917 1370.05 154.283 1370.05 M154.283 1366.34 Q160.093 1366.34 163.149 1370.95 Q166.227 1375.53 166.227 1384.28 Q166.227 1393.01 163.149 1397.62 Q160.093 1402.2 154.283 1402.2 Q148.473 1402.2 145.394 1397.62 Q142.339 1393.01 142.339 1384.28 Q142.339 1375.53 145.394 1370.95 Q148.473 1366.34 154.283 1366.34 Z" fill="#000000" fill-rule="nonzero" fill-opacity="1" /><path clip-path="url(#clip380)" d="M174.445 1395.65 L179.329 1395.65 L179.329 1401.53 L174.445 1401.53 L174.445 1395.65 Z" fill="#000000" fill-rule="nonzero" fill-opacity="1" /><path clip-path="url(#clip380)" d="M199.514 1370.05 Q195.903 1370.05 194.075 1373.61 Q192.269 1377.15 192.269 1384.28 Q192.269 1391.39 194.075 1394.95 Q195.903 1398.5 199.514 1398.5 Q203.149 1398.5 204.954 1394.95 Q206.783 1391.39 206.783 1384.28 Q206.783 1377.15 204.954 1373.61 Q203.149 1370.05 199.514 1370.05 M199.514 1366.34 Q205.324 1366.34 208.38 1370.95 Q211.459 1375.53 211.459 1384.28 Q211.459 1393.01 208.38 1397.62 Q205.324 1402.2 199.514 1402.2 Q193.704 1402.2 190.625 1397.62 Q187.57 1393.01 187.57 1384.28 Q187.57 1375.53 190.625 1370.95 Q193.704 1366.34 199.514 1366.34 Z" fill="#000000" fill-rule="nonzero" fill-opacity="1" /><path clip-path="url(#clip380)" d="M149.306 1115.89 L165.626 1115.89 L165.626 1119.82 L143.681 1119.82 L143.681 1115.89 Q146.343 1113.13 150.927 1108.5 Q155.533 1103.85 156.714 1102.51 Q158.959 1099.98 159.839 1098.25 Q160.741 1096.49 160.741 1094.8 Q160.741 1092.04 158.797 1090.31 Q156.876 1088.57 153.774 1088.57 Q151.575 1088.57 149.121 1089.33 Q146.691 1090.1 143.913 1091.65 L143.913 1086.93 Q146.737 1085.79 149.191 1085.21 Q151.644 1084.64 153.681 1084.64 Q159.052 1084.64 162.246 1087.32 Q165.44 1090.01 165.44 1094.5 Q165.44 1096.63 164.63 1098.55 Q163.843 1100.45 161.737 1103.04 Q161.158 1103.71 158.056 1106.93 Q154.954 1110.12 149.306 1115.89 Z" fill="#000000" fill-rule="nonzero" fill-opacity="1" /><path clip-path="url(#clip380)" d="M175.44 1113.94 L180.325 1113.94 L180.325 1119.82 L175.44 1119.82 L175.44 1113.94 Z" fill="#000000" fill-rule="nonzero" fill-opacity="1" /><path clip-path="url(#clip380)" d="M190.556 1085.26 L208.912 1085.26 L208.912 1089.2 L194.838 1089.2 L194.838 1097.67 Q195.857 1097.32 196.875 1097.16 Q197.894 1096.97 198.912 1096.97 Q204.699 1096.97 208.079 1100.15 Q211.459 1103.32 211.459 1108.73 Q211.459 1114.31 207.987 1117.41 Q204.514 1120.49 198.195 1120.49 Q196.019 1120.49 193.75 1120.12 Q191.505 1119.75 189.098 1119.01 L189.098 1114.31 Q191.181 1115.45 193.403 1116 Q195.625 1116.56 198.102 1116.56 Q202.107 1116.56 204.445 1114.45 Q206.783 1112.34 206.783 1108.73 Q206.783 1105.12 204.445 1103.02 Q202.107 1100.91 198.102 1100.91 Q196.227 1100.91 194.352 1101.33 Q192.5 1101.74 190.556 1102.62 L190.556 1085.26 Z" fill="#000000" fill-rule="nonzero" fill-opacity="1" /><path clip-path="url(#clip380)" d="M144.329 803.554 L162.686 803.554 L162.686 807.49 L148.612 807.49 L148.612 815.962 Q149.63 815.615 150.649 815.453 Q151.667 815.267 152.686 815.267 Q158.473 815.267 161.852 818.439 Q165.232 821.61 165.232 827.027 Q165.232 832.605 161.76 835.707 Q158.288 838.786 151.968 838.786 Q149.792 838.786 147.524 838.415 Q145.279 838.045 142.871 837.304 L142.871 832.605 Q144.954 833.739 147.177 834.295 Q149.399 834.851 151.876 834.851 Q155.88 834.851 158.218 832.744 Q160.556 830.638 160.556 827.027 Q160.556 823.415 158.218 821.309 Q155.88 819.202 151.876 819.202 Q150.001 819.202 148.126 819.619 Q146.274 820.036 144.329 820.915 L144.329 803.554 Z" fill="#000000" fill-rule="nonzero" fill-opacity="1" /><path clip-path="url(#clip380)" d="M174.445 832.235 L179.329 832.235 L179.329 838.114 L174.445 838.114 L174.445 832.235 Z" fill="#000000" fill-rule="nonzero" fill-opacity="1" /><path clip-path="url(#clip380)" d="M199.514 806.633 Q195.903 806.633 194.075 810.198 Q192.269 813.74 192.269 820.869 Q192.269 827.976 194.075 831.54 Q195.903 835.082 199.514 835.082 Q203.149 835.082 204.954 831.54 Q206.783 827.976 206.783 820.869 Q206.783 813.74 204.954 810.198 Q203.149 806.633 199.514 806.633 M199.514 802.929 Q205.324 802.929 208.38 807.536 Q211.459 812.119 211.459 820.869 Q211.459 829.596 208.38 834.202 Q205.324 838.786 199.514 838.786 Q193.704 838.786 190.625 834.202 Q187.57 829.596 187.57 820.869 Q187.57 812.119 190.625 807.536 Q193.704 802.929 199.514 802.929 Z" fill="#000000" fill-rule="nonzero" fill-opacity="1" /><path clip-path="url(#clip380)" d="M144.098 521.848 L166.32 521.848 L166.32 523.839 L153.774 556.408 L148.89 556.408 L160.695 525.783 L144.098 525.783 L144.098 521.848 Z" fill="#000000" fill-rule="nonzero" fill-opacity="1" /><path clip-path="url(#clip380)" d="M175.44 550.528 L180.325 550.528 L180.325 556.408 L175.44 556.408 L175.44 550.528 Z" fill="#000000" fill-rule="nonzero" fill-opacity="1" /><path clip-path="url(#clip380)" d="M190.556 521.848 L208.912 521.848 L208.912 525.783 L194.838 525.783 L194.838 534.255 Q195.857 533.908 196.875 533.746 Q197.894 533.561 198.912 533.561 Q204.699 533.561 208.079 536.732 Q211.459 539.903 211.459 545.32 Q211.459 550.899 207.987 554.001 Q204.514 557.079 198.195 557.079 Q196.019 557.079 193.75 556.709 Q191.505 556.338 189.098 555.598 L189.098 550.899 Q191.181 552.033 193.403 552.589 Q195.625 553.144 198.102 553.144 Q202.107 553.144 204.445 551.038 Q206.783 548.931 206.783 545.32 Q206.783 541.709 204.445 539.602 Q202.107 537.496 198.102 537.496 Q196.227 537.496 194.352 537.913 Q192.5 538.329 190.556 539.209 L190.556 521.848 Z" fill="#000000" fill-rule="nonzero" fill-opacity="1" /><path clip-path="url(#clip380)" d="M114.931 270.766 L122.57 270.766 L122.57 244.401 L114.26 246.067 L114.26 241.808 L122.524 240.141 L127.2 240.141 L127.2 270.766 L134.839 270.766 L134.839 274.701 L114.931 274.701 L114.931 270.766 Z" fill="#000000" fill-rule="nonzero" fill-opacity="1" /><path clip-path="url(#clip380)" d="M154.283 243.22 Q150.672 243.22 148.843 246.785 Q147.038 250.327 147.038 257.456 Q147.038 264.563 148.843 268.127 Q150.672 271.669 154.283 271.669 Q157.917 271.669 159.723 268.127 Q161.552 264.563 161.552 257.456 Q161.552 250.327 159.723 246.785 Q157.917 243.22 154.283 243.22 M154.283 239.516 Q160.093 239.516 163.149 244.123 Q166.227 248.706 166.227 257.456 Q166.227 266.183 163.149 270.789 Q160.093 275.373 154.283 275.373 Q148.473 275.373 145.394 270.789 Q142.339 266.183 142.339 257.456 Q142.339 248.706 145.394 244.123 Q148.473 239.516 154.283 239.516 Z" fill="#000000" fill-rule="nonzero" fill-opacity="1" /><path clip-path="url(#clip380)" d="M174.445 268.822 L179.329 268.822 L179.329 274.701 L174.445 274.701 L174.445 268.822 Z" fill="#000000" fill-rule="nonzero" fill-opacity="1" /><path clip-path="url(#clip380)" d="M199.514 243.22 Q195.903 243.22 194.075 246.785 Q192.269 250.327 192.269 257.456 Q192.269 264.563 194.075 268.127 Q195.903 271.669 199.514 271.669 Q203.149 271.669 204.954 268.127 Q206.783 264.563 206.783 257.456 Q206.783 250.327 204.954 246.785 Q203.149 243.22 199.514 243.22 M199.514 239.516 Q205.324 239.516 208.38 244.123 Q211.459 248.706 211.459 257.456 Q211.459 266.183 208.38 270.789 Q205.324 275.373 199.514 275.373 Q193.704 275.373 190.625 270.789 Q187.57 266.183 187.57 257.456 Q187.57 248.706 190.625 244.123 Q193.704 239.516 199.514 239.516 Z" fill="#000000" fill-rule="nonzero" fill-opacity="1" /><path clip-path="url(#clip380)" d="M21.7677 1026.76 L39.6235 1026.76 L39.6235 1018.68 Q39.6235 1014.19 37.3 1011.74 Q34.9765 1009.29 30.6797 1009.29 Q26.4147 1009.29 24.0912 1011.74 Q21.7677 1014.19 21.7677 1018.68 L21.7677 1026.76 M16.4842 1033.19 L16.4842 1018.68 Q16.4842 1010.69 20.1126 1006.61 Q23.7092 1002.51 30.6797 1002.51 Q37.7138 1002.51 41.3104 1006.61 Q44.907 1010.69 44.907 1018.68 L44.907 1026.76 L64.0042 1026.76 L64.0042 1033.19 L16.4842 1033.19 Z" fill="#000000" fill-rule="nonzero" fill-opacity="1" /><path clip-path="url(#clip380)" d="M33.8307 974.626 Q33.2578 975.613 33.0032 976.791 Q32.7167 977.936 32.7167 979.337 Q32.7167 984.302 35.9632 986.976 Q39.1779 989.617 45.2253 989.617 L64.0042 989.617 L64.0042 995.506 L28.3562 995.506 L28.3562 989.617 L33.8944 989.617 Q30.6479 987.771 29.0883 984.811 Q27.4968 981.851 27.4968 977.618 Q27.4968 977.013 27.5923 976.281 Q27.656 975.549 27.8151 974.658 L33.8307 974.626 Z" fill="#000000" fill-rule="nonzero" fill-opacity="1" /><path clip-path="url(#clip380)" d="M32.4621 956.102 Q32.4621 960.813 36.1542 963.55 Q39.8145 966.287 46.212 966.287 Q52.6095 966.287 56.3017 963.582 Q59.9619 960.844 59.9619 956.102 Q59.9619 951.423 56.2698 948.686 Q52.5777 945.949 46.212 945.949 Q39.8781 945.949 36.186 948.686 Q32.4621 951.423 32.4621 956.102 M27.4968 956.102 Q27.4968 948.463 32.4621 944.103 Q37.4273 939.742 46.212 939.742 Q54.9649 939.742 59.9619 944.103 Q64.9272 948.463 64.9272 956.102 Q64.9272 963.773 59.9619 968.133 Q54.9649 972.462 46.212 972.462 Q37.4273 972.462 32.4621 968.133 Q27.4968 963.773 27.4968 956.102 Z" fill="#000000" fill-rule="nonzero" fill-opacity="1" /><path clip-path="url(#clip380)" d="M46.212 904.444 Q39.7508 904.444 36.0905 907.118 Q32.3984 909.76 32.3984 914.407 Q32.3984 919.054 36.0905 921.727 Q39.7508 924.369 46.212 924.369 Q52.6732 924.369 56.3653 921.727 Q60.0256 919.054 60.0256 914.407 Q60.0256 909.76 56.3653 907.118 Q52.6732 904.444 46.212 904.444 M33.7671 924.369 Q30.5842 922.523 29.0564 919.722 Q27.4968 916.889 27.4968 912.974 Q27.4968 906.481 32.6531 902.439 Q37.8093 898.365 46.212 898.365 Q54.6147 898.365 59.771 902.439 Q64.9272 906.481 64.9272 912.974 Q64.9272 916.889 63.3994 919.722 Q61.8398 922.523 58.657 924.369 L64.0042 924.369 L64.0042 930.257 L14.479 930.257 L14.479 924.369 L33.7671 924.369 Z" fill="#000000" fill-rule="nonzero" fill-opacity="1" /><path clip-path="url(#clip380)" d="M46.0847 872.457 Q46.0847 879.554 47.7079 882.292 Q49.3312 885.029 53.2461 885.029 Q56.3653 885.029 58.2114 882.992 Q60.0256 880.923 60.0256 877.39 Q60.0256 872.52 56.5881 869.592 Q53.1188 866.632 47.3897 866.632 L46.0847 866.632 L46.0847 872.457 M43.6657 860.776 L64.0042 860.776 L64.0042 866.632 L58.5933 866.632 Q61.8398 868.637 63.3994 871.629 Q64.9272 874.621 64.9272 878.95 Q64.9272 884.424 61.8716 887.671 Q58.7843 890.885 53.6281 890.885 Q47.6125 890.885 44.5569 886.875 Q41.5014 882.833 41.5014 874.844 L41.5014 866.632 L40.9285 866.632 Q36.8862 866.632 34.6901 869.306 Q32.4621 871.947 32.4621 876.753 Q32.4621 879.809 33.1941 882.705 Q33.9262 885.602 35.3903 888.275 L29.9795 888.275 Q28.7381 885.061 28.1334 882.037 Q27.4968 879.013 27.4968 876.149 Q27.4968 868.414 31.5072 864.595 Q35.5176 860.776 43.6657 860.776 Z" fill="#000000" fill-rule="nonzero" fill-opacity="1" /><path clip-path="url(#clip380)" d="M46.212 823.122 Q39.7508 823.122 36.0905 825.796 Q32.3984 828.438 32.3984 833.085 Q32.3984 837.732 36.0905 840.405 Q39.7508 843.047 46.212 843.047 Q52.6732 843.047 56.3653 840.405 Q60.0256 837.732 60.0256 833.085 Q60.0256 828.438 56.3653 825.796 Q52.6732 823.122 46.212 823.122 M33.7671 843.047 Q30.5842 841.201 29.0564 838.4 Q27.4968 835.567 27.4968 831.652 Q27.4968 825.159 32.6531 821.117 Q37.8093 817.043 46.212 817.043 Q54.6147 817.043 59.771 821.117 Q64.9272 825.159 64.9272 831.652 Q64.9272 835.567 63.3994 838.4 Q61.8398 841.201 58.657 843.047 L64.0042 843.047 L64.0042 848.935 L14.479 848.935 L14.479 843.047 L33.7671 843.047 Z" fill="#000000" fill-rule="nonzero" fill-opacity="1" /><path clip-path="url(#clip380)" d="M28.3562 807.335 L28.3562 801.479 L64.0042 801.479 L64.0042 807.335 L28.3562 807.335 M14.479 807.335 L14.479 801.479 L21.895 801.479 L21.895 807.335 L14.479 807.335 Z" fill="#000000" fill-rule="nonzero" fill-opacity="1" /><path clip-path="url(#clip380)" d="M14.479 789.225 L14.479 783.369 L64.0042 783.369 L64.0042 789.225 L14.479 789.225 Z" fill="#000000" fill-rule="nonzero" fill-opacity="1" /><path clip-path="url(#clip380)" d="M28.3562 771.115 L28.3562 765.258 L64.0042 765.258 L64.0042 771.115 L28.3562 771.115 M14.479 771.115 L14.479 765.258 L21.895 765.258 L21.895 771.115 L14.479 771.115 Z" fill="#000000" fill-rule="nonzero" fill-opacity="1" /><path clip-path="url(#clip380)" d="M18.2347 747.211 L28.3562 747.211 L28.3562 735.148 L32.9077 735.148 L32.9077 747.211 L52.2594 747.211 Q56.6199 747.211 57.8613 746.034 Q59.1026 744.824 59.1026 741.164 L59.1026 735.148 L64.0042 735.148 L64.0042 741.164 Q64.0042 747.943 61.4897 750.521 Q58.9434 753.1 52.2594 753.1 L32.9077 753.1 L32.9077 757.396 L28.3562 757.396 L28.3562 753.1 L18.2347 753.1 L18.2347 747.211 Z" fill="#000000" fill-rule="nonzero" fill-opacity="1" /><path clip-path="url(#clip380)" d="M67.3143 712.614 Q73.68 715.096 75.6216 717.452 Q77.5631 719.807 77.5631 723.754 L77.5631 728.432 L72.6615 728.432 L72.6615 724.995 Q72.6615 722.576 71.5157 721.239 Q70.3699 719.902 66.1048 718.279 L63.4312 717.229 L28.3562 731.647 L28.3562 725.441 L56.238 714.301 L28.3562 703.161 L28.3562 696.954 L67.3143 712.614 Z" fill="#000000" fill-rule="nonzero" fill-opacity="1" /><path clip-path="url(#clip380)" d="M33.7671 644.692 L14.479 644.692 L14.479 638.835 L64.0042 638.835 L64.0042 644.692 L58.657 644.692 Q61.8398 646.538 63.3994 649.37 Q64.9272 652.171 64.9272 656.118 Q64.9272 662.579 59.771 666.653 Q54.6147 670.696 46.212 670.696 Q37.8093 670.696 32.6531 666.653 Q27.4968 662.579 27.4968 656.118 Q27.4968 652.171 29.0564 649.37 Q30.5842 646.538 33.7671 644.692 M46.212 664.648 Q52.6732 664.648 56.3653 662.006 Q60.0256 659.333 60.0256 654.686 Q60.0256 650.039 56.3653 647.365 Q52.6732 644.692 46.212 644.692 Q39.7508 644.692 36.0905 647.365 Q32.3984 650.039 32.3984 654.686 Q32.3984 659.333 36.0905 662.006 Q39.7508 664.648 46.212 664.648 Z" fill="#000000" fill-rule="nonzero" fill-opacity="1" /><path clip-path="url(#clip380)" d="M44.7161 596.28 L47.5806 596.28 L47.5806 623.207 Q53.6281 622.825 56.8109 619.579 Q59.9619 616.301 59.9619 610.476 Q59.9619 607.102 59.1344 603.951 Q58.3069 600.768 56.6518 597.649 L62.1899 597.649 Q63.5267 600.8 64.227 604.11 Q64.9272 607.42 64.9272 610.826 Q64.9272 619.356 59.9619 624.353 Q54.9967 629.318 46.5303 629.318 Q37.7774 629.318 32.6531 624.608 Q27.4968 619.865 27.4968 611.845 Q27.4968 604.651 32.1438 600.482 Q36.7589 596.28 44.7161 596.28 M42.9973 602.137 Q38.1912 602.201 35.3266 604.842 Q32.4621 607.452 32.4621 611.781 Q32.4621 616.683 35.2312 619.643 Q38.0002 622.571 43.0292 623.016 L42.9973 602.137 Z" fill="#000000" fill-rule="nonzero" fill-opacity="1" /><path clip-path="url(#clip380)" d="M42.4881 557.036 L64.0042 557.036 L64.0042 562.892 L42.679 562.892 Q37.6183 562.892 35.1038 564.866 Q32.5894 566.839 32.5894 570.786 Q32.5894 575.528 35.6131 578.265 Q38.6368 581.003 43.8567 581.003 L64.0042 581.003 L64.0042 586.891 L28.3562 586.891 L28.3562 581.003 L33.8944 581.003 Q30.6797 578.902 29.0883 576.069 Q27.4968 573.205 27.4968 569.481 Q27.4968 563.338 31.3163 560.187 Q35.1038 557.036 42.4881 557.036 Z" fill="#000000" fill-rule="nonzero" fill-opacity="1" /><path clip-path="url(#clip380)" d="M29.4065 522.629 L34.9447 522.629 Q33.6716 525.112 33.035 527.785 Q32.3984 530.459 32.3984 533.324 Q32.3984 537.684 33.7352 539.88 Q35.072 542.045 37.7456 542.045 Q39.7826 542.045 40.9603 540.485 Q42.1061 538.925 43.1565 534.215 L43.6021 532.21 Q44.9389 525.971 47.3897 523.361 Q49.8086 520.719 54.1691 520.719 Q59.1344 520.719 62.0308 524.666 Q64.9272 528.581 64.9272 535.456 Q64.9272 538.321 64.3543 541.44 Q63.8132 544.527 62.6992 547.965 L56.6518 547.965 Q58.3387 544.718 59.198 541.567 Q60.0256 538.416 60.0256 535.329 Q60.0256 531.191 58.6251 528.963 Q57.1929 526.735 54.6147 526.735 Q52.2276 526.735 50.9545 528.358 Q49.6813 529.95 48.5037 535.392 L48.0262 537.429 Q46.8804 542.872 44.5251 545.291 Q42.138 547.71 38.0002 547.71 Q32.9713 547.71 30.2341 544.145 Q27.4968 540.58 27.4968 534.024 Q27.4968 530.777 27.9743 527.913 Q28.4517 525.048 29.4065 522.629 Z" fill="#000000" fill-rule="nonzero" fill-opacity="1" /><path clip-path="url(#clip380)" d="M28.3562 511.394 L28.3562 505.537 L64.0042 505.537 L64.0042 511.394 L28.3562 511.394 M14.479 511.394 L14.479 505.537 L21.895 505.537 L21.895 511.394 L14.479 511.394 Z" fill="#000000" fill-rule="nonzero" fill-opacity="1" /><path clip-path="url(#clip380)" d="M18.2347 487.49 L28.3562 487.49 L28.3562 475.427 L32.9077 475.427 L32.9077 487.49 L52.2594 487.49 Q56.6199 487.49 57.8613 486.313 Q59.1026 485.103 59.1026 481.443 L59.1026 475.427 L64.0042 475.427 L64.0042 481.443 Q64.0042 488.223 61.4897 490.801 Q58.9434 493.379 52.2594 493.379 L32.9077 493.379 L32.9077 497.676 L28.3562 497.676 L28.3562 493.379 L18.2347 493.379 L18.2347 487.49 Z" fill="#000000" fill-rule="nonzero" fill-opacity="1" /><path clip-path="url(#clip380)" d="M67.3143 452.893 Q73.68 455.376 75.6216 457.731 Q77.5631 460.086 77.5631 464.033 L77.5631 468.712 L72.6615 468.712 L72.6615 465.274 Q72.6615 462.855 71.5157 461.518 Q70.3699 460.182 66.1048 458.558 L63.4312 457.508 L28.3562 471.926 L28.3562 465.72 L56.238 454.58 L28.3562 443.44 L28.3562 437.233 L67.3143 452.893 Z" fill="#000000" fill-rule="nonzero" fill-opacity="1" /><polyline clip-path="url(#clip382)" style="stroke:#009af9; stroke-linecap:round; stroke-linejoin:round; stroke-width:4; stroke-opacity:1; fill:none" points="307.043,1384.22 329.612,1384.22 374.752,1384.2 487.6,1384.08 555.309,1384.17 577.878,1384.23 600.448,1384.06 623.018,1383.98 668.157,1384.23 690.727,1383.99 713.296,1384.17 735.866,1384.24 758.436,1384.03 781.005,1384.17 803.575,1384.2 826.145,1384.18 848.714,1383.97 871.284,1383.67 893.854,1383.66 916.423,1383.82 938.993,1384.01 961.563,1383.63 984.132,1383.27 1006.7,1383.34 1029.27,1382.65 1051.84,1383.25 1074.41,1382.69 1096.98,1382.36 1119.55,1381.16 1142.12,1381.56 1164.69,1381.3 1187.26,1380.14 1209.83,1378.18 1232.4,1378.9 1254.97,1374.77 1277.54,1376.49 1300.11,1372.64 1322.68,1371.31 1345.25,1365.36 1367.82,1365.47 1390.39,1359.71 1412.96,1353.42 1435.53,1349.32 1458.09,1341.5 1480.66,1334.82 1503.23,1320.58 1525.8,1306.48 1548.37,1288.97 1570.94,1300.97 1593.51,1310.07 1616.08,1313.21 1638.65,1286.07 1661.22,1265.25 1683.79,1235.94 1706.36,1208.76 1728.93,1161.95 1751.5,1111.18 1774.07,1040.5 1796.64,1027.27 1819.21,1044.69 1841.78,1020.7 1864.35,957.51 1886.92,858.68 1909.49,765.755 1932.06,668.403 1954.63,592.336 1977.2,523.115 1999.77,711.703 2022.34,907.447 2044.91,1055.17 2067.48,1170.48 2090.05,1250.97 2112.61,1307.26 2135.18,1342.63 2157.75,1361.91 2180.32,1374.45 2202.89,1379.37 2225.46,1382.44 2248.03,1383.63 2270.6,1383.96 2293.17,1384.22 "/>
<polyline clip-path="url(#clip382)" style="stroke:#e26f46; stroke-linecap:round; stroke-linejoin:round; stroke-width:4; stroke-opacity:1; fill:none" points="307.043,1384.18 329.612,1384.18 374.752,1384.15 487.6,1384.06 555.309,1383.97 577.878,1383.93 600.448,1383.88 623.018,1383.83 668.157,1383.7 690.727,1383.62 713.296,1383.53 735.866,1383.42 758.436,1383.3 781.005,1383.17 803.575,1383.01 826.145,1382.83 848.714,1382.63 871.284,1382.39 893.854,1382.13 916.423,1381.82 938.993,1381.47 961.563,1381.06 984.132,1380.6 1006.7,1380.07 1029.27,1379.47 1051.84,1378.78 1074.41,1377.98 1096.98,1377.08 1119.55,1376.04 1142.12,1374.85 1164.69,1373.49 1187.26,1371.93 1209.83,1370.14 1232.4,1368.1 1254.97,1365.76 1277.54,1363.09 1300.11,1360.02 1322.68,1356.51 1345.25,1352.49 1367.82,1347.89 1390.39,1342.63 1412.96,1336.6 1435.53,1329.7 1458.09,1321.8 1480.66,1312.75 1503.23,1302.39 1525.8,1290.54 1548.37,1276.96 1570.94,1261.42 1593.51,1243.63 1616.08,1223.27 1638.65,1199.95 1661.22,1173.26 1683.79,1142.7 1706.36,1107.72 1728.93,1067.68 1751.5,1021.84 1774.07,969.374 1796.64,909.321 1819.21,840.595 1841.78,761.965 1864.35,672.046 1886.92,569.324 1909.49,452.293 1932.06,320.135 1954.63,177.355 1977.2,86.1857 1999.77,333.13 2022.34,674.208 2044.91,914.887 2067.48,1075.09 2090.05,1180.81 2112.61,1250.43 2135.18,1296.24 2157.75,1326.37 2180.32,1346.19 2202.89,1359.22 2225.46,1367.79 2248.03,1373.43 2270.6,1377.13 2293.17,1379.57 "/>
<path clip-path="url(#clip380)" d="M317.635 248.629 L862.469 248.629 L862.469 93.1086 L317.635 93.1086  Z" fill="#ffffff" fill-rule="evenodd" fill-opacity="1"/>
<polyline clip-path="url(#clip380)" style="stroke:#ffffff; stroke-linecap:round; stroke-linejoin:round; stroke-width:4; stroke-opacity:1; fill:none" points="317.635,248.629 862.469,248.629 862.469,93.1086 317.635,93.1086 317.635,248.629 "/>
<polyline clip-path="url(#clip380)" style="stroke:#009af9; stroke-linecap:round; stroke-linejoin:round; stroke-width:4; stroke-opacity:1; fill:none" points="341.027,144.949 481.381,144.949 "/>
<path clip-path="url(#clip380)" d="M504.773 127.669 L509.449 127.669 L509.449 141.835 L526.439 141.835 L526.439 127.669 L531.115 127.669 L531.115 162.229 L526.439 162.229 L526.439 145.77 L509.449 145.77 L509.449 162.229 L504.773 162.229 L504.773 127.669 Z" fill="#000000" fill-rule="nonzero" fill-opacity="1" /><path clip-path="url(#clip380)" d="M540.236 136.303 L544.495 136.303 L544.495 162.229 L540.236 162.229 L540.236 136.303 M540.236 126.21 L544.495 126.21 L544.495 131.604 L540.236 131.604 L540.236 126.21 Z" fill="#000000" fill-rule="nonzero" fill-opacity="1" /><path clip-path="url(#clip380)" d="M569.935 137.067 L569.935 141.094 Q568.129 140.169 566.185 139.706 Q564.24 139.243 562.157 139.243 Q558.985 139.243 557.388 140.215 Q555.814 141.187 555.814 143.131 Q555.814 144.613 556.948 145.469 Q558.083 146.303 561.509 147.067 L562.967 147.391 Q567.504 148.363 569.402 150.145 Q571.323 151.905 571.323 155.076 Q571.323 158.687 568.453 160.793 Q565.606 162.9 560.606 162.9 Q558.523 162.9 556.254 162.483 Q554.009 162.09 551.509 161.28 L551.509 156.881 Q553.87 158.108 556.161 158.733 Q558.453 159.335 560.698 159.335 Q563.708 159.335 565.328 158.317 Q566.948 157.275 566.948 155.4 Q566.948 153.664 565.768 152.738 Q564.61 151.812 560.652 150.956 L559.171 150.608 Q555.212 149.775 553.453 148.062 Q551.694 146.326 551.694 143.317 Q551.694 139.659 554.286 137.669 Q556.879 135.678 561.648 135.678 Q564.009 135.678 566.092 136.025 Q568.175 136.372 569.935 137.067 Z" fill="#000000" fill-rule="nonzero" fill-opacity="1" /><path clip-path="url(#clip380)" d="M582.319 128.942 L582.319 136.303 L591.092 136.303 L591.092 139.613 L582.319 139.613 L582.319 153.687 Q582.319 156.858 583.175 157.761 Q584.055 158.664 586.717 158.664 L591.092 158.664 L591.092 162.229 L586.717 162.229 Q581.786 162.229 579.911 160.4 Q578.036 158.548 578.036 153.687 L578.036 139.613 L574.911 139.613 L574.911 136.303 L578.036 136.303 L578.036 128.942 L582.319 128.942 Z" fill="#000000" fill-rule="nonzero" fill-opacity="1" /><path clip-path="url(#clip380)" d="M606.74 139.289 Q603.314 139.289 601.323 141.974 Q599.332 144.636 599.332 149.289 Q599.332 153.942 601.3 156.627 Q603.291 159.289 606.74 159.289 Q610.143 159.289 612.133 156.604 Q614.124 153.918 614.124 149.289 Q614.124 144.682 612.133 141.997 Q610.143 139.289 606.74 139.289 M606.74 135.678 Q612.295 135.678 615.467 139.289 Q618.638 142.9 618.638 149.289 Q618.638 155.655 615.467 159.289 Q612.295 162.9 606.74 162.9 Q601.161 162.9 597.99 159.289 Q594.842 155.655 594.842 149.289 Q594.842 142.9 597.99 139.289 Q601.161 135.678 606.74 135.678 Z" fill="#000000" fill-rule="nonzero" fill-opacity="1" /><path clip-path="url(#clip380)" d="M642.758 148.965 Q642.758 144.335 640.837 141.789 Q638.939 139.243 635.49 139.243 Q632.064 139.243 630.143 141.789 Q628.244 144.335 628.244 148.965 Q628.244 153.571 630.143 156.118 Q632.064 158.664 635.49 158.664 Q638.939 158.664 640.837 156.118 Q642.758 153.571 642.758 148.965 M647.017 159.011 Q647.017 165.631 644.078 168.849 Q641.138 172.09 635.073 172.09 Q632.828 172.09 630.837 171.742 Q628.846 171.418 626.971 170.724 L626.971 166.58 Q628.846 167.599 630.675 168.085 Q632.504 168.571 634.402 168.571 Q638.592 168.571 640.675 166.372 Q642.758 164.196 642.758 159.775 L642.758 157.668 Q641.439 159.96 639.379 161.094 Q637.318 162.229 634.448 162.229 Q629.68 162.229 626.763 158.594 Q623.846 154.96 623.846 148.965 Q623.846 142.946 626.763 139.312 Q629.68 135.678 634.448 135.678 Q637.318 135.678 639.379 136.812 Q641.439 137.946 642.758 140.238 L642.758 136.303 L647.017 136.303 L647.017 159.011 Z" fill="#000000" fill-rule="nonzero" fill-opacity="1" /><path clip-path="url(#clip380)" d="M670.814 140.284 Q670.096 139.868 669.24 139.682 Q668.406 139.474 667.388 139.474 Q663.777 139.474 661.832 141.835 Q659.911 144.173 659.911 148.571 L659.911 162.229 L655.628 162.229 L655.628 136.303 L659.911 136.303 L659.911 140.331 Q661.253 137.969 663.406 136.835 Q665.559 135.678 668.638 135.678 Q669.077 135.678 669.61 135.747 Q670.142 135.794 670.79 135.909 L670.814 140.284 Z" fill="#000000" fill-rule="nonzero" fill-opacity="1" /><path clip-path="url(#clip380)" d="M687.064 149.196 Q681.901 149.196 679.911 150.377 Q677.92 151.557 677.92 154.405 Q677.92 156.673 679.402 158.016 Q680.906 159.335 683.476 159.335 Q687.017 159.335 689.147 156.835 Q691.3 154.312 691.3 150.145 L691.3 149.196 L687.064 149.196 M695.559 147.437 L695.559 162.229 L691.3 162.229 L691.3 158.293 Q689.841 160.655 687.665 161.789 Q685.489 162.9 682.341 162.9 Q678.36 162.9 675.999 160.678 Q673.661 158.432 673.661 154.682 Q673.661 150.307 676.577 148.085 Q679.517 145.863 685.327 145.863 L691.3 145.863 L691.3 145.446 Q691.3 142.507 689.355 140.909 Q687.434 139.289 683.939 139.289 Q681.716 139.289 679.61 139.821 Q677.503 140.354 675.559 141.419 L675.559 137.483 Q677.897 136.581 680.096 136.141 Q682.295 135.678 684.378 135.678 Q690.003 135.678 692.781 138.594 Q695.559 141.511 695.559 147.437 Z" fill="#000000" fill-rule="nonzero" fill-opacity="1" /><path clip-path="url(#clip380)" d="M724.517 141.28 Q726.114 138.409 728.336 137.044 Q730.559 135.678 733.568 135.678 Q737.619 135.678 739.818 138.525 Q742.017 141.349 742.017 146.581 L742.017 162.229 L737.735 162.229 L737.735 146.719 Q737.735 142.993 736.415 141.187 Q735.096 139.382 732.387 139.382 Q729.077 139.382 727.156 141.581 Q725.235 143.78 725.235 147.576 L725.235 162.229 L720.952 162.229 L720.952 146.719 Q720.952 142.969 719.633 141.187 Q718.313 139.382 715.559 139.382 Q712.295 139.382 710.374 141.604 Q708.452 143.803 708.452 147.576 L708.452 162.229 L704.17 162.229 L704.17 136.303 L708.452 136.303 L708.452 140.331 Q709.911 137.946 711.948 136.812 Q713.985 135.678 716.786 135.678 Q719.61 135.678 721.577 137.113 Q723.568 138.548 724.517 141.28 Z" fill="#000000" fill-rule="nonzero" fill-opacity="1" /><polyline clip-path="url(#clip380)" style="stroke:#e26f46; stroke-linecap:round; stroke-linejoin:round; stroke-width:4; stroke-opacity:1; fill:none" points="341.027,196.789 481.381,196.789 "/>
<path clip-path="url(#clip380)" d="M509.449 183.351 L509.449 210.226 L515.097 210.226 Q522.25 210.226 525.56 206.985 Q528.893 203.745 528.893 196.754 Q528.893 189.809 525.56 186.592 Q522.25 183.351 515.097 183.351 L509.449 183.351 M504.773 179.509 L514.379 179.509 Q524.425 179.509 529.125 183.698 Q533.824 187.865 533.824 196.754 Q533.824 205.689 529.101 209.879 Q524.379 214.069 514.379 214.069 L504.773 214.069 L504.773 179.509 Z" fill="#000000" fill-rule="nonzero" fill-opacity="1" /><path clip-path="url(#clip380)" d="M541.092 188.143 L545.351 188.143 L545.351 214.069 L541.092 214.069 L541.092 188.143 M541.092 178.05 L545.351 178.05 L545.351 183.444 L541.092 183.444 L541.092 178.05 Z" fill="#000000" fill-rule="nonzero" fill-opacity="1" /><path clip-path="url(#clip380)" d="M570.791 188.907 L570.791 192.934 Q568.985 192.009 567.041 191.546 Q565.097 191.083 563.013 191.083 Q559.842 191.083 558.245 192.055 Q556.671 193.027 556.671 194.971 Q556.671 196.453 557.805 197.309 Q558.939 198.143 562.365 198.907 L563.823 199.231 Q568.36 200.203 570.259 201.985 Q572.18 203.745 572.18 206.916 Q572.18 210.527 569.31 212.633 Q566.462 214.74 561.462 214.74 Q559.379 214.74 557.11 214.323 Q554.865 213.93 552.365 213.12 L552.365 208.721 Q554.726 209.948 557.018 210.573 Q559.31 211.175 561.555 211.175 Q564.564 211.175 566.185 210.157 Q567.805 209.115 567.805 207.24 Q567.805 205.504 566.624 204.578 Q565.467 203.652 561.509 202.796 L560.027 202.448 Q556.069 201.615 554.31 199.902 Q552.55 198.166 552.55 195.157 Q552.55 191.499 555.143 189.509 Q557.735 187.518 562.504 187.518 Q564.865 187.518 566.948 187.865 Q569.032 188.212 570.791 188.907 Z" fill="#000000" fill-rule="nonzero" fill-opacity="1" /><path clip-path="url(#clip380)" d="M583.175 180.782 L583.175 188.143 L591.948 188.143 L591.948 191.453 L583.175 191.453 L583.175 205.527 Q583.175 208.698 584.032 209.601 Q584.911 210.504 587.573 210.504 L591.948 210.504 L591.948 214.069 L587.573 214.069 Q582.643 214.069 580.768 212.24 Q578.893 210.388 578.893 205.527 L578.893 191.453 L575.768 191.453 L575.768 188.143 L578.893 188.143 L578.893 180.782 L583.175 180.782 Z" fill="#000000" fill-rule="nonzero" fill-opacity="1" /><path clip-path="url(#clip380)" d="M612.573 192.124 Q611.856 191.708 610.999 191.522 Q610.166 191.314 609.147 191.314 Q605.536 191.314 603.592 193.675 Q601.67 196.013 601.67 200.411 L601.67 214.069 L597.388 214.069 L597.388 188.143 L601.67 188.143 L601.67 192.171 Q603.013 189.809 605.166 188.675 Q607.319 187.518 610.397 187.518 Q610.837 187.518 611.369 187.587 Q611.902 187.634 612.55 187.749 L612.573 192.124 Z" fill="#000000" fill-rule="nonzero" fill-opacity="1" /><path clip-path="url(#clip380)" d="M617.041 188.143 L621.3 188.143 L621.3 214.069 L617.041 214.069 L617.041 188.143 M617.041 178.05 L621.3 178.05 L621.3 183.444 L617.041 183.444 L617.041 178.05 Z" fill="#000000" fill-rule="nonzero" fill-opacity="1" /><path clip-path="url(#clip380)" d="M648.823 201.129 Q648.823 196.43 646.879 193.768 Q644.957 191.083 641.578 191.083 Q638.198 191.083 636.254 193.768 Q634.332 196.43 634.332 201.129 Q634.332 205.828 636.254 208.513 Q638.198 211.175 641.578 211.175 Q644.957 211.175 646.879 208.513 Q648.823 205.828 648.823 201.129 M634.332 192.078 Q635.675 189.763 637.712 188.652 Q639.772 187.518 642.619 187.518 Q647.341 187.518 650.281 191.268 Q653.244 195.018 653.244 201.129 Q653.244 207.24 650.281 210.99 Q647.341 214.74 642.619 214.74 Q639.772 214.74 637.712 213.629 Q635.675 212.495 634.332 210.18 L634.332 214.069 L630.05 214.069 L630.05 178.05 L634.332 178.05 L634.332 192.078 Z" fill="#000000" fill-rule="nonzero" fill-opacity="1" /><path clip-path="url(#clip380)" d="M659.865 203.837 L659.865 188.143 L664.124 188.143 L664.124 203.675 Q664.124 207.356 665.559 209.208 Q666.994 211.036 669.865 211.036 Q673.314 211.036 675.304 208.837 Q677.318 206.638 677.318 202.842 L677.318 188.143 L681.577 188.143 L681.577 214.069 L677.318 214.069 L677.318 210.087 Q675.767 212.448 673.707 213.606 Q671.67 214.74 668.962 214.74 Q664.494 214.74 662.179 211.962 Q659.865 209.184 659.865 203.837 M670.582 187.518 L670.582 187.518 Z" fill="#000000" fill-rule="nonzero" fill-opacity="1" /><path clip-path="url(#clip380)" d="M694.563 180.782 L694.563 188.143 L703.337 188.143 L703.337 191.453 L694.563 191.453 L694.563 205.527 Q694.563 208.698 695.42 209.601 Q696.3 210.504 698.962 210.504 L703.337 210.504 L703.337 214.069 L698.962 214.069 Q694.031 214.069 692.156 212.24 Q690.281 210.388 690.281 205.527 L690.281 191.453 L687.156 191.453 L687.156 188.143 L690.281 188.143 L690.281 180.782 L694.563 180.782 Z" fill="#000000" fill-rule="nonzero" fill-opacity="1" /><path clip-path="url(#clip380)" d="M708.938 188.143 L713.198 188.143 L713.198 214.069 L708.938 214.069 L708.938 188.143 M708.938 178.05 L713.198 178.05 L713.198 183.444 L708.938 183.444 L708.938 178.05 Z" fill="#000000" fill-rule="nonzero" fill-opacity="1" /><path clip-path="url(#clip380)" d="M732.156 191.129 Q728.73 191.129 726.739 193.814 Q724.748 196.476 724.748 201.129 Q724.748 205.782 726.716 208.467 Q728.707 211.129 732.156 211.129 Q735.559 211.129 737.549 208.444 Q739.54 205.758 739.54 201.129 Q739.54 196.522 737.549 193.837 Q735.559 191.129 732.156 191.129 M732.156 187.518 Q737.711 187.518 740.883 191.129 Q744.054 194.74 744.054 201.129 Q744.054 207.495 740.883 211.129 Q737.711 214.74 732.156 214.74 Q726.577 214.74 723.406 211.129 Q720.258 207.495 720.258 201.129 Q720.258 194.74 723.406 191.129 Q726.577 187.518 732.156 187.518 Z" fill="#000000" fill-rule="nonzero" fill-opacity="1" /><path clip-path="url(#clip380)" d="M772.665 198.421 L772.665 214.069 L768.406 214.069 L768.406 198.559 Q768.406 194.879 766.97 193.05 Q765.535 191.222 762.665 191.222 Q759.216 191.222 757.225 193.421 Q755.234 195.62 755.234 199.416 L755.234 214.069 L750.952 214.069 L750.952 188.143 L755.234 188.143 L755.234 192.171 Q756.762 189.833 758.822 188.675 Q760.906 187.518 763.614 187.518 Q768.082 187.518 770.373 190.296 Q772.665 193.05 772.665 198.421 Z" fill="#000000" fill-rule="nonzero" fill-opacity="1" /><path clip-path="url(#clip380)" d="M809.355 178.05 L809.355 181.592 L805.28 181.592 Q802.989 181.592 802.086 182.518 Q801.206 183.444 801.206 185.851 L801.206 188.143 L808.22 188.143 L808.22 191.453 L801.206 191.453 L801.206 214.069 L796.924 214.069 L796.924 191.453 L792.85 191.453 L792.85 188.143 L796.924 188.143 L796.924 186.337 Q796.924 182.009 798.938 180.041 Q800.952 178.05 805.327 178.05 L809.355 178.05 Z" fill="#000000" fill-rule="nonzero" fill-opacity="1" /><path clip-path="url(#clip380)" d="M812.919 188.143 L817.179 188.143 L817.179 214.069 L812.919 214.069 L812.919 188.143 M812.919 178.05 L817.179 178.05 L817.179 183.444 L812.919 183.444 L812.919 178.05 Z" fill="#000000" fill-rule="nonzero" fill-opacity="1" /><path clip-path="url(#clip380)" d="M830.303 180.782 L830.303 188.143 L839.077 188.143 L839.077 191.453 L830.303 191.453 L830.303 205.527 Q830.303 208.698 831.16 209.601 Q832.04 210.504 834.702 210.504 L839.077 210.504 L839.077 214.069 L834.702 214.069 Q829.771 214.069 827.896 212.24 Q826.021 210.388 826.021 205.527 L826.021 191.453 L822.896 191.453 L822.896 188.143 L826.021 188.143 L826.021 180.782 L830.303 180.782 Z" fill="#000000" fill-rule="nonzero" fill-opacity="1" /></svg>
