<?xml version="1.0" encoding="utf-8"?>
<svg xmlns="http://www.w3.org/2000/svg" xmlns:xlink="http://www.w3.org/1999/xlink" width="600" height="400" viewBox="0 0 2400 1600">
<defs>
  <clipPath id="clip080">
    <rect x="0" y="0" width="2400" height="1600"/>
  </clipPath>
</defs>
<path clip-path="url(#clip080)" d="M0 1600 L2400 1600 L2400 8.88178e-14 L0 8.88178e-14  Z" fill="#ffffff" fill-rule="evenodd" fill-opacity="1"/>
<defs>
  <clipPath id="clip081">
    <rect x="480" y="0" width="1681" height="1600"/>
  </clipPath>
</defs>
<path clip-path="url(#clip080)" d="M202.227 1423.18 L2352.76 1423.18 L2352.76 47.2441 L202.227 47.2441  Z" fill="#ffffff" fill-rule="evenodd" fill-opacity="1"/>
<defs>
  <clipPath id="clip082">
    <rect x="202" y="47" width="2152" height="1377"/>
  </clipPath>
</defs>
<polyline clip-path="url(#clip082)" style="stroke:#000000; stroke-linecap:round; stroke-linejoin:round; stroke-width:2; stroke-opacity:0.1; fill:none" points="343.426,1423.18 343.426,47.2441 "/>
<polyline clip-path="url(#clip082)" style="stroke:#000000; stroke-linecap:round; stroke-linejoin:round; stroke-width:2; stroke-opacity:0.1; fill:none" points="865.634,1423.18 865.634,47.2441 "/>
<polyline clip-path="url(#clip082)" style="stroke:#000000; stroke-linecap:round; stroke-linejoin:round; stroke-width:2; stroke-opacity:0.1; fill:none" points="1387.84,1423.18 1387.84,47.2441 "/>
<polyline clip-path="url(#clip082)" style="stroke:#000000; stroke-linecap:round; stroke-linejoin:round; stroke-width:2; stroke-opacity:0.1; fill:none" points="1910.05,1423.18 1910.05,47.2441 "/>
<polyline clip-path="url(#clip082)" style="stroke:#000000; stroke-linecap:round; stroke-linejoin:round; stroke-width:2; stroke-opacity:0.1; fill:none" points="343.426,1423.18 343.426,47.2441 "/>
<polyline clip-path="url(#clip082)" style="stroke:#000000; stroke-linecap:round; stroke-linejoin:round; stroke-width:2; stroke-opacity:0.1; fill:none" points="865.634,1423.18 865.634,47.2441 "/>
<polyline clip-path="url(#clip082)" style="stroke:#000000; stroke-linecap:round; stroke-linejoin:round; stroke-width:2; stroke-opacity:0.1; fill:none" points="1387.84,1423.18 1387.84,47.2441 "/>
<polyline clip-path="url(#clip082)" style="stroke:#000000; stroke-linecap:round; stroke-linejoin:round; stroke-width:2; stroke-opacity:0.1; fill:none" points="1910.05,1423.18 1910.05,47.2441 "/>
<polyline clip-path="url(#clip082)" style="stroke:#000000; stroke-linecap:round; stroke-linejoin:round; stroke-width:2; stroke-opacity:0.1; fill:none" points="202.227,1384.24 2352.76,1384.24 "/>
<polyline clip-path="url(#clip082)" style="stroke:#000000; stroke-linecap:round; stroke-linejoin:round; stroke-width:2; stroke-opacity:0.1; fill:none" points="202.227,1190.36 2352.76,1190.36 "/>
<polyline clip-path="url(#clip082)" style="stroke:#000000; stroke-linecap:round; stroke-linejoin:round; stroke-width:2; stroke-opacity:0.1; fill:none" points="202.227,996.472 2352.76,996.472 "/>
<polyline clip-path="url(#clip082)" style="stroke:#000000; stroke-linecap:round; stroke-linejoin:round; stroke-width:2; stroke-opacity:0.1; fill:none" points="202.227,802.589 2352.76,802.589 "/>
<polyline clip-path="url(#clip082)" style="stroke:#000000; stroke-linecap:round; stroke-linejoin:round; stroke-width:2; stroke-opacity:0.1; fill:none" points="202.227,608.706 2352.76,608.706 "/>
<polyline clip-path="url(#clip082)" style="stroke:#000000; stroke-linecap:round; stroke-linejoin:round; stroke-width:2; stroke-opacity:0.1; fill:none" points="202.227,414.822 2352.76,414.822 "/>
<polyline clip-path="url(#clip082)" style="stroke:#000000; stroke-linecap:round; stroke-linejoin:round; stroke-width:2; stroke-opacity:0.1; fill:none" points="202.227,220.939 2352.76,220.939 "/>
<polyline clip-path="url(#clip082)" style="stroke:#000000; stroke-linecap:round; stroke-linejoin:round; stroke-width:2; stroke-opacity:0.1; fill:none" points="202.227,1384.24 2352.76,1384.24 "/>
<polyline clip-path="url(#clip082)" style="stroke:#000000; stroke-linecap:round; stroke-linejoin:round; stroke-width:2; stroke-opacity:0.1; fill:none" points="202.227,1190.36 2352.76,1190.36 "/>
<polyline clip-path="url(#clip082)" style="stroke:#000000; stroke-linecap:round; stroke-linejoin:round; stroke-width:2; stroke-opacity:0.1; fill:none" points="202.227,996.472 2352.76,996.472 "/>
<polyline clip-path="url(#clip082)" style="stroke:#000000; stroke-linecap:round; stroke-linejoin:round; stroke-width:2; stroke-opacity:0.1; fill:none" points="202.227,802.589 2352.76,802.589 "/>
<polyline clip-path="url(#clip082)" style="stroke:#000000; stroke-linecap:round; stroke-linejoin:round; stroke-width:2; stroke-opacity:0.1; fill:none" points="202.227,608.706 2352.76,608.706 "/>
<polyline clip-path="url(#clip082)" style="stroke:#000000; stroke-linecap:round; stroke-linejoin:round; stroke-width:2; stroke-opacity:0.1; fill:none" points="202.227,414.822 2352.76,414.822 "/>
<polyline clip-path="url(#clip082)" style="stroke:#000000; stroke-linecap:round; stroke-linejoin:round; stroke-width:2; stroke-opacity:0.1; fill:none" points="202.227,220.939 2352.76,220.939 "/>
<polyline clip-path="url(#clip080)" style="stroke:#000000; stroke-linecap:round; stroke-linejoin:round; stroke-width:4; stroke-opacity:1; fill:none" points="202.227,1423.18 2352.76,1423.18 "/>
<polyline clip-path="url(#clip080)" style="stroke:#000000; stroke-linecap:round; stroke-linejoin:round; stroke-width:4; stroke-opacity:1; fill:none" points="202.227,47.2441 2352.76,47.2441 "/>
<polyline clip-path="url(#clip080)" style="stroke:#000000; stroke-linecap:round; stroke-linejoin:round; stroke-width:4; stroke-opacity:1; fill:none" points="343.426,1423.18 343.426,1404.28 "/>
<polyline clip-path="url(#clip080)" style="stroke:#000000; stroke-linecap:round; stroke-linejoin:round; stroke-width:4; stroke-opacity:1; fill:none" points="865.634,1423.18 865.634,1404.28 "/>
<polyline clip-path="url(#clip080)" style="stroke:#000000; stroke-linecap:round; stroke-linejoin:round; stroke-width:4; stroke-opacity:1; fill:none" points="1387.84,1423.18 1387.84,1404.28 "/>
<polyline clip-path="url(#clip080)" style="stroke:#000000; stroke-linecap:round; stroke-linejoin:round; stroke-width:4; stroke-opacity:1; fill:none" points="1910.05,1423.18 1910.05,1404.28 "/>
<polyline clip-path="url(#clip080)" style="stroke:#000000; stroke-linecap:round; stroke-linejoin:round; stroke-width:4; stroke-opacity:1; fill:none" points="343.426,47.2441 343.426,66.1417 "/>
<polyline clip-path="url(#clip080)" style="stroke:#000000; stroke-linecap:round; stroke-linejoin:round; stroke-width:4; stroke-opacity:1; fill:none" points="865.634,47.2441 865.634,66.1417 "/>
<polyline clip-path="url(#clip080)" style="stroke:#000000; stroke-linecap:round; stroke-linejoin:round; stroke-width:4; stroke-opacity:1; fill:none" points="1387.84,47.2441 1387.84,66.1417 "/>
<polyline clip-path="url(#clip080)" style="stroke:#000000; stroke-linecap:round; stroke-linejoin:round; stroke-width:4; stroke-opacity:1; fill:none" points="1910.05,47.2441 1910.05,66.1417 "/>
<path clip-path="url(#clip080)" d="M329.155 1466.44 Q326.007 1466.44 324.155 1468.59 Q322.326 1470.74 322.326 1474.49 Q322.326 1478.22 324.155 1480.39 Q326.007 1482.55 329.155 1482.55 Q332.303 1482.55 334.132 1480.39 Q335.983 1478.22 335.983 1474.49 Q335.983 1470.74 334.132 1468.59 Q332.303 1466.44 329.155 1466.44 M338.437 1451.78 L338.437 1456.04 Q336.678 1455.21 334.872 1454.77 Q333.09 1454.33 331.331 1454.33 Q326.701 1454.33 324.247 1457.45 Q321.817 1460.58 321.47 1466.9 Q322.835 1464.89 324.896 1463.82 Q326.956 1462.73 329.433 1462.73 Q334.641 1462.73 337.65 1465.9 Q340.682 1469.05 340.682 1474.49 Q340.682 1479.82 337.534 1483.03 Q334.386 1486.25 329.155 1486.25 Q323.159 1486.25 319.988 1481.67 Q316.817 1477.06 316.817 1468.33 Q316.817 1460.14 320.706 1455.28 Q324.595 1450.39 331.146 1450.39 Q332.905 1450.39 334.687 1450.74 Q336.493 1451.09 338.437 1451.78 Z" fill="#000000" fill-rule="nonzero" fill-opacity="1" /><path clip-path="url(#clip080)" d="M362.905 1466.95 Q366.261 1467.66 368.136 1469.93 Q370.034 1472.2 370.034 1475.53 Q370.034 1480.65 366.516 1483.45 Q362.997 1486.25 356.516 1486.25 Q354.34 1486.25 352.025 1485.81 Q349.733 1485.39 347.28 1484.54 L347.28 1480.02 Q349.224 1481.16 351.539 1481.74 Q353.854 1482.32 356.377 1482.32 Q360.775 1482.32 363.067 1480.58 Q365.381 1478.84 365.381 1475.53 Q365.381 1472.48 363.229 1470.77 Q361.099 1469.03 357.28 1469.03 L353.252 1469.03 L353.252 1465.19 L357.465 1465.19 Q360.914 1465.19 362.743 1463.82 Q364.571 1462.43 364.571 1459.84 Q364.571 1457.18 362.673 1455.77 Q360.798 1454.33 357.28 1454.33 Q355.358 1454.33 353.159 1454.75 Q350.96 1455.16 348.321 1456.04 L348.321 1451.88 Q350.983 1451.14 353.298 1450.77 Q355.636 1450.39 357.696 1450.39 Q363.02 1450.39 366.122 1452.83 Q369.224 1455.23 369.224 1459.35 Q369.224 1462.22 367.581 1464.21 Q365.937 1466.18 362.905 1466.95 Z" fill="#000000" fill-rule="nonzero" fill-opacity="1" /><path clip-path="url(#clip080)" d="M850.796 1466.44 Q847.648 1466.44 845.796 1468.59 Q843.967 1470.74 843.967 1474.49 Q843.967 1478.22 845.796 1480.39 Q847.648 1482.55 850.796 1482.55 Q853.944 1482.55 855.773 1480.39 Q857.624 1478.22 857.624 1474.49 Q857.624 1470.74 855.773 1468.59 Q853.944 1466.44 850.796 1466.44 M860.078 1451.78 L860.078 1456.04 Q858.319 1455.21 856.513 1454.77 Q854.731 1454.33 852.972 1454.33 Q848.342 1454.33 845.888 1457.45 Q843.458 1460.58 843.111 1466.9 Q844.476 1464.89 846.537 1463.82 Q848.597 1462.73 851.074 1462.73 Q856.282 1462.73 859.291 1465.9 Q862.324 1469.05 862.324 1474.49 Q862.324 1479.82 859.175 1483.03 Q856.027 1486.25 850.796 1486.25 Q844.8 1486.25 841.629 1481.67 Q838.458 1477.06 838.458 1468.33 Q838.458 1460.14 842.347 1455.28 Q846.236 1450.39 852.787 1450.39 Q854.546 1450.39 856.328 1450.74 Q858.134 1451.09 860.078 1451.78 Z" fill="#000000" fill-rule="nonzero" fill-opacity="1" /><path clip-path="url(#clip080)" d="M883.226 1455.09 L871.421 1473.54 L883.226 1473.54 L883.226 1455.09 M881.999 1451.02 L887.879 1451.02 L887.879 1473.54 L892.809 1473.54 L892.809 1477.43 L887.879 1477.43 L887.879 1485.58 L883.226 1485.58 L883.226 1477.43 L867.624 1477.43 L867.624 1472.92 L881.999 1451.02 Z" fill="#000000" fill-rule="nonzero" fill-opacity="1" /><path clip-path="url(#clip080)" d="M1373.74 1466.44 Q1370.6 1466.44 1368.74 1468.59 Q1366.92 1470.74 1366.92 1474.49 Q1366.92 1478.22 1368.74 1480.39 Q1370.6 1482.55 1373.74 1482.55 Q1376.89 1482.55 1378.72 1480.39 Q1380.57 1478.22 1380.57 1474.49 Q1380.57 1470.74 1378.72 1468.59 Q1376.89 1466.44 1373.74 1466.44 M1383.03 1451.78 L1383.03 1456.04 Q1381.27 1455.21 1379.46 1454.77 Q1377.68 1454.33 1375.92 1454.33 Q1371.29 1454.33 1368.84 1457.45 Q1366.41 1460.58 1366.06 1466.9 Q1367.43 1464.89 1369.49 1463.82 Q1371.55 1462.73 1374.02 1462.73 Q1379.23 1462.73 1382.24 1465.9 Q1385.27 1469.05 1385.27 1474.49 Q1385.27 1479.82 1382.12 1483.03 Q1378.98 1486.25 1373.74 1486.25 Q1367.75 1486.25 1364.58 1481.67 Q1361.41 1477.06 1361.41 1468.33 Q1361.41 1460.14 1365.3 1455.28 Q1369.18 1450.39 1375.74 1450.39 Q1377.49 1450.39 1379.28 1450.74 Q1381.08 1451.09 1383.03 1451.78 Z" fill="#000000" fill-rule="nonzero" fill-opacity="1" /><path clip-path="url(#clip080)" d="M1393.37 1451.02 L1411.73 1451.02 L1411.73 1454.96 L1397.66 1454.96 L1397.66 1463.43 Q1398.68 1463.08 1399.69 1462.92 Q1400.71 1462.73 1401.73 1462.73 Q1407.52 1462.73 1410.9 1465.9 Q1414.28 1469.08 1414.28 1474.49 Q1414.28 1480.07 1410.8 1483.17 Q1407.33 1486.25 1401.01 1486.25 Q1398.84 1486.25 1396.57 1485.88 Q1394.32 1485.51 1391.92 1484.77 L1391.92 1480.07 Q1394 1481.2 1396.22 1481.76 Q1398.44 1482.32 1400.92 1482.32 Q1404.93 1482.32 1407.26 1480.21 Q1409.6 1478.1 1409.6 1474.49 Q1409.6 1470.88 1407.26 1468.77 Q1404.93 1466.67 1400.92 1466.67 Q1399.05 1466.67 1397.17 1467.08 Q1395.32 1467.5 1393.37 1468.38 L1393.37 1451.02 Z" fill="#000000" fill-rule="nonzero" fill-opacity="1" /><path clip-path="url(#clip080)" d="M1895.37 1466.44 Q1892.23 1466.44 1890.37 1468.59 Q1888.55 1470.74 1888.55 1474.49 Q1888.55 1478.22 1890.37 1480.39 Q1892.23 1482.55 1895.37 1482.55 Q1898.52 1482.55 1900.35 1480.39 Q1902.2 1478.22 1902.2 1474.49 Q1902.2 1470.74 1900.35 1468.59 Q1898.52 1466.44 1895.37 1466.44 M1904.66 1451.78 L1904.66 1456.04 Q1902.9 1455.21 1901.09 1454.77 Q1899.31 1454.33 1897.55 1454.33 Q1892.92 1454.33 1890.47 1457.45 Q1888.04 1460.58 1887.69 1466.9 Q1889.05 1464.89 1891.11 1463.82 Q1893.18 1462.73 1895.65 1462.73 Q1900.86 1462.73 1903.87 1465.9 Q1906.9 1469.05 1906.9 1474.49 Q1906.9 1479.82 1903.75 1483.03 Q1900.61 1486.25 1895.37 1486.25 Q1889.38 1486.25 1886.21 1481.67 Q1883.04 1477.06 1883.04 1468.33 Q1883.04 1460.14 1886.93 1455.28 Q1890.81 1450.39 1897.36 1450.39 Q1899.12 1450.39 1900.91 1450.74 Q1902.71 1451.09 1904.66 1451.78 Z" fill="#000000" fill-rule="nonzero" fill-opacity="1" /><path clip-path="url(#clip080)" d="M1925.54 1466.44 Q1922.39 1466.44 1920.54 1468.59 Q1918.71 1470.74 1918.71 1474.49 Q1918.71 1478.22 1920.54 1480.39 Q1922.39 1482.55 1925.54 1482.55 Q1928.68 1482.55 1930.51 1480.39 Q1932.36 1478.22 1932.36 1474.49 Q1932.36 1470.74 1930.51 1468.59 Q1928.68 1466.44 1925.54 1466.44 M1934.82 1451.78 L1934.82 1456.04 Q1933.06 1455.21 1931.25 1454.77 Q1929.47 1454.33 1927.71 1454.33 Q1923.08 1454.33 1920.63 1457.45 Q1918.2 1460.58 1917.85 1466.9 Q1919.22 1464.89 1921.28 1463.82 Q1923.34 1462.73 1925.81 1462.73 Q1931.02 1462.73 1934.03 1465.9 Q1937.06 1469.05 1937.06 1474.49 Q1937.06 1479.82 1933.92 1483.03 Q1930.77 1486.25 1925.54 1486.25 Q1919.54 1486.25 1916.37 1481.67 Q1913.2 1477.06 1913.2 1468.33 Q1913.2 1460.14 1917.09 1455.28 Q1920.98 1450.39 1927.53 1450.39 Q1929.29 1450.39 1931.07 1450.74 Q1932.87 1451.09 1934.82 1451.78 Z" fill="#000000" fill-rule="nonzero" fill-opacity="1" /><path clip-path="url(#clip080)" d="M1155.4 1526.86 L1146.68 1550.51 L1164.15 1550.51 L1155.4 1526.86 M1151.77 1520.52 L1159.06 1520.52 L1177.17 1568.04 L1170.48 1568.04 L1166.16 1555.85 L1144.73 1555.85 L1140.41 1568.04 L1133.63 1568.04 L1151.77 1520.52 Z" fill="#000000" fill-rule="nonzero" fill-opacity="1" /><path clip-path="url(#clip080)" d="M1207.31 1549.81 Q1207.31 1543.44 1204.67 1539.94 Q1202.06 1536.44 1197.32 1536.44 Q1192.6 1536.44 1189.96 1539.94 Q1187.35 1543.44 1187.35 1549.81 Q1187.35 1556.14 1189.96 1559.64 Q1192.6 1563.14 1197.32 1563.14 Q1202.06 1563.14 1204.67 1559.64 Q1207.31 1556.14 1207.31 1549.81 M1213.17 1563.62 Q1213.17 1572.72 1209.12 1577.15 Q1205.08 1581.6 1196.74 1581.6 Q1193.66 1581.6 1190.92 1581.13 Q1188.18 1580.68 1185.6 1579.72 L1185.6 1574.03 Q1188.18 1575.43 1190.7 1576.1 Q1193.21 1576.76 1195.82 1576.76 Q1201.58 1576.76 1204.45 1573.74 Q1207.31 1570.75 1207.31 1564.67 L1207.31 1561.77 Q1205.5 1564.92 1202.66 1566.48 Q1199.83 1568.04 1195.88 1568.04 Q1189.33 1568.04 1185.32 1563.05 Q1181.31 1558.05 1181.31 1549.81 Q1181.31 1541.53 1185.32 1536.53 Q1189.33 1531.54 1195.88 1531.54 Q1199.83 1531.54 1202.66 1533.1 Q1205.5 1534.66 1207.31 1537.81 L1207.31 1532.4 L1213.17 1532.4 L1213.17 1563.62 Z" fill="#000000" fill-rule="nonzero" fill-opacity="1" /><path clip-path="url(#clip080)" d="M1255.72 1548.76 L1255.72 1551.62 L1228.79 1551.62 Q1229.18 1557.67 1232.42 1560.85 Q1235.7 1564 1241.53 1564 Q1244.9 1564 1248.05 1563.17 Q1251.23 1562.35 1254.35 1560.69 L1254.35 1566.23 Q1251.2 1567.57 1247.89 1568.27 Q1244.58 1568.97 1241.18 1568.97 Q1232.65 1568.97 1227.65 1564 Q1222.68 1559.04 1222.68 1550.57 Q1222.68 1541.82 1227.39 1536.69 Q1232.14 1531.54 1240.16 1531.54 Q1247.35 1531.54 1251.52 1536.18 Q1255.72 1540.8 1255.72 1548.76 M1249.86 1547.04 Q1249.8 1542.23 1247.16 1539.37 Q1244.55 1536.5 1240.22 1536.5 Q1235.32 1536.5 1232.36 1539.27 Q1229.43 1542.04 1228.99 1547.07 L1249.86 1547.04 Z" fill="#000000" fill-rule="nonzero" fill-opacity="1" /><path clip-path="url(#clip080)" d="M1300.12 1518.58 Q1295.86 1525.9 1293.79 1533.06 Q1291.72 1540.23 1291.72 1547.58 Q1291.72 1554.93 1293.79 1562.16 Q1295.89 1569.35 1300.12 1576.64 L1295.03 1576.64 Q1290.25 1569.16 1287.87 1561.93 Q1285.51 1554.71 1285.51 1547.58 Q1285.51 1540.48 1287.87 1533.29 Q1290.22 1526.09 1295.03 1518.58 L1300.12 1518.58 Z" fill="#000000" fill-rule="nonzero" fill-opacity="1" /><path clip-path="url(#clip080)" d="M1311.74 1520.52 L1321.32 1520.52 L1333.45 1552.86 L1345.64 1520.52 L1355.22 1520.52 L1355.22 1568.04 L1348.95 1568.04 L1348.95 1526.32 L1336.69 1558.91 L1330.23 1558.91 L1317.98 1526.32 L1317.98 1568.04 L1311.74 1568.04 L1311.74 1520.52 Z" fill="#000000" fill-rule="nonzero" fill-opacity="1" /><path clip-path="url(#clip080)" d="M1383.93 1550.12 Q1376.83 1550.12 1374.09 1551.75 Q1371.35 1553.37 1371.35 1557.29 Q1371.35 1560.4 1373.39 1562.25 Q1375.46 1564.07 1378.99 1564.07 Q1383.86 1564.07 1386.79 1560.63 Q1389.75 1557.16 1389.75 1551.43 L1389.75 1550.12 L1383.93 1550.12 M1395.61 1547.71 L1395.61 1568.04 L1389.75 1568.04 L1389.75 1562.63 Q1387.75 1565.88 1384.75 1567.44 Q1381.76 1568.97 1377.43 1568.97 Q1371.96 1568.97 1368.71 1565.91 Q1365.5 1562.82 1365.5 1557.67 Q1365.5 1551.65 1369.51 1548.6 Q1373.55 1545.54 1381.54 1545.54 L1389.75 1545.54 L1389.75 1544.97 Q1389.75 1540.93 1387.08 1538.73 Q1384.44 1536.5 1379.63 1536.5 Q1376.57 1536.5 1373.68 1537.23 Q1370.78 1537.97 1368.11 1539.43 L1368.11 1534.02 Q1371.32 1532.78 1374.35 1532.17 Q1377.37 1531.54 1380.23 1531.54 Q1387.97 1531.54 1391.79 1535.55 Q1395.61 1539.56 1395.61 1547.71 Z" fill="#000000" fill-rule="nonzero" fill-opacity="1" /><path clip-path="url(#clip080)" d="M1406.75 1518.58 L1411.84 1518.58 Q1416.61 1526.09 1418.97 1533.29 Q1421.36 1540.48 1421.36 1547.58 Q1421.36 1554.71 1418.97 1561.93 Q1416.61 1569.16 1411.84 1576.64 L1406.75 1576.64 Q1410.98 1569.35 1413.05 1562.16 Q1415.15 1554.93 1415.15 1547.58 Q1415.15 1540.23 1413.05 1533.06 Q1410.98 1525.9 1406.75 1518.58 Z" fill="#000000" fill-rule="nonzero" fill-opacity="1" /><polyline clip-path="url(#clip080)" style="stroke:#000000; stroke-linecap:round; stroke-linejoin:round; stroke-width:4; stroke-opacity:1; fill:none" points="202.227,1423.18 202.227,47.2441 "/>
<polyline clip-path="url(#clip080)" style="stroke:#000000; stroke-linecap:round; stroke-linejoin:round; stroke-width:4; stroke-opacity:1; fill:none" points="2352.76,1423.18 2352.76,47.2441 "/>
<polyline clip-path="url(#clip080)" style="stroke:#000000; stroke-linecap:round; stroke-linejoin:round; stroke-width:4; stroke-opacity:1; fill:none" points="202.227,1384.24 221.125,1384.24 "/>
<polyline clip-path="url(#clip080)" style="stroke:#000000; stroke-linecap:round; stroke-linejoin:round; stroke-width:4; stroke-opacity:1; fill:none" points="202.227,1190.36 221.125,1190.36 "/>
<polyline clip-path="url(#clip080)" style="stroke:#000000; stroke-linecap:round; stroke-linejoin:round; stroke-width:4; stroke-opacity:1; fill:none" points="202.227,996.472 221.125,996.472 "/>
<polyline clip-path="url(#clip080)" style="stroke:#000000; stroke-linecap:round; stroke-linejoin:round; stroke-width:4; stroke-opacity:1; fill:none" points="202.227,802.589 221.125,802.589 "/>
<polyline clip-path="url(#clip080)" style="stroke:#000000; stroke-linecap:round; stroke-linejoin:round; stroke-width:4; stroke-opacity:1; fill:none" points="202.227,608.706 221.125,608.706 "/>
<polyline clip-path="url(#clip080)" style="stroke:#000000; stroke-linecap:round; stroke-linejoin:round; stroke-width:4; stroke-opacity:1; fill:none" points="202.227,414.822 221.125,414.822 "/>
<polyline clip-path="url(#clip080)" style="stroke:#000000; stroke-linecap:round; stroke-linejoin:round; stroke-width:4; stroke-opacity:1; fill:none" points="202.227,220.939 221.125,220.939 "/>
<polyline clip-path="url(#clip080)" style="stroke:#000000; stroke-linecap:round; stroke-linejoin:round; stroke-width:4; stroke-opacity:1; fill:none" points="2352.76,1384.24 2333.86,1384.24 "/>
<polyline clip-path="url(#clip080)" style="stroke:#000000; stroke-linecap:round; stroke-linejoin:round; stroke-width:4; stroke-opacity:1; fill:none" points="2352.76,1190.36 2333.86,1190.36 "/>
<polyline clip-path="url(#clip080)" style="stroke:#000000; stroke-linecap:round; stroke-linejoin:round; stroke-width:4; stroke-opacity:1; fill:none" points="2352.76,996.472 2333.86,996.472 "/>
<polyline clip-path="url(#clip080)" style="stroke:#000000; stroke-linecap:round; stroke-linejoin:round; stroke-width:4; stroke-opacity:1; fill:none" points="2352.76,802.589 2333.86,802.589 "/>
<polyline clip-path="url(#clip080)" style="stroke:#000000; stroke-linecap:round; stroke-linejoin:round; stroke-width:4; stroke-opacity:1; fill:none" points="2352.76,608.706 2333.86,608.706 "/>
<polyline clip-path="url(#clip080)" style="stroke:#000000; stroke-linecap:round; stroke-linejoin:round; stroke-width:4; stroke-opacity:1; fill:none" points="2352.76,414.822 2333.86,414.822 "/>
<polyline clip-path="url(#clip080)" style="stroke:#000000; stroke-linecap:round; stroke-linejoin:round; stroke-width:4; stroke-opacity:1; fill:none" points="2352.76,220.939 2333.86,220.939 "/>
<path clip-path="url(#clip080)" d="M154.283 1370.04 Q150.672 1370.04 148.843 1373.6 Q147.038 1377.14 147.038 1384.27 Q147.038 1391.38 148.843 1394.94 Q150.672 1398.49 154.283 1398.49 Q157.917 1398.49 159.723 1394.94 Q161.552 1391.38 161.552 1384.27 Q161.552 1377.14 159.723 1373.6 Q157.917 1370.04 154.283 1370.04 M154.283 1366.33 Q160.093 1366.33 163.149 1370.94 Q166.227 1375.52 166.227 1384.27 Q166.227 1393 163.149 1397.61 Q160.093 1402.19 154.283 1402.19 Q148.473 1402.19 145.394 1397.61 Q142.339 1393 142.339 1384.27 Q142.339 1375.52 145.394 1370.94 Q148.473 1366.33 154.283 1366.33 Z" fill="#000000" fill-rule="nonzero" fill-opacity="1" /><path clip-path="url(#clip080)" d="M149.908 1203.7 L166.227 1203.7 L166.227 1207.64 L144.283 1207.64 L144.283 1203.7 Q146.945 1200.95 151.528 1196.32 Q156.135 1191.66 157.315 1190.32 Q159.561 1187.8 160.44 1186.06 Q161.343 1184.3 161.343 1182.61 Q161.343 1179.86 159.399 1178.12 Q157.478 1176.39 154.376 1176.39 Q152.177 1176.39 149.723 1177.15 Q147.292 1177.91 144.515 1179.46 L144.515 1174.74 Q147.339 1173.61 149.792 1173.03 Q152.246 1172.45 154.283 1172.45 Q159.653 1172.45 162.848 1175.14 Q166.042 1177.82 166.042 1182.31 Q166.042 1184.44 165.232 1186.36 Q164.445 1188.26 162.339 1190.85 Q161.76 1191.52 158.658 1194.74 Q155.556 1197.94 149.908 1203.7 Z" fill="#000000" fill-rule="nonzero" fill-opacity="1" /><path clip-path="url(#clip080)" d="M156.644 983.266 L144.839 1001.71 L156.644 1001.71 L156.644 983.266 M155.417 979.192 L161.297 979.192 L161.297 1001.71 L166.227 1001.71 L166.227 1005.6 L161.297 1005.6 L161.297 1013.75 L156.644 1013.75 L156.644 1005.6 L141.042 1005.6 L141.042 1001.09 L155.417 979.192 Z" fill="#000000" fill-rule="nonzero" fill-opacity="1" /><path clip-path="url(#clip080)" d="M154.7 800.725 Q151.552 800.725 149.7 802.878 Q147.871 805.031 147.871 808.781 Q147.871 812.508 149.7 814.684 Q151.552 816.836 154.7 816.836 Q157.848 816.836 159.677 814.684 Q161.528 812.508 161.528 808.781 Q161.528 805.031 159.677 802.878 Q157.848 800.725 154.7 800.725 M163.982 786.073 L163.982 790.332 Q162.223 789.499 160.417 789.059 Q158.635 788.619 156.876 788.619 Q152.246 788.619 149.792 791.744 Q147.362 794.869 147.015 801.188 Q148.38 799.174 150.441 798.11 Q152.501 797.022 154.978 797.022 Q160.186 797.022 163.195 800.193 Q166.227 803.341 166.227 808.781 Q166.227 814.105 163.079 817.322 Q159.931 820.54 154.7 820.54 Q148.704 820.54 145.533 815.957 Q142.362 811.35 142.362 802.623 Q142.362 794.429 146.251 789.568 Q150.14 784.684 156.69 784.684 Q158.45 784.684 160.232 785.031 Q162.038 785.378 163.982 786.073 Z" fill="#000000" fill-rule="nonzero" fill-opacity="1" /><path clip-path="url(#clip080)" d="M154.376 609.574 Q151.042 609.574 149.121 611.356 Q147.223 613.138 147.223 616.263 Q147.223 619.388 149.121 621.171 Q151.042 622.953 154.376 622.953 Q157.709 622.953 159.63 621.171 Q161.552 619.365 161.552 616.263 Q161.552 613.138 159.63 611.356 Q157.732 609.574 154.376 609.574 M149.7 607.583 Q146.691 606.842 145.001 604.782 Q143.334 602.722 143.334 599.759 Q143.334 595.615 146.274 593.208 Q149.237 590.801 154.376 590.801 Q159.538 590.801 162.477 593.208 Q165.417 595.615 165.417 599.759 Q165.417 602.722 163.727 604.782 Q162.061 606.842 159.075 607.583 Q162.454 608.37 164.329 610.662 Q166.227 612.953 166.227 616.263 Q166.227 621.287 163.149 623.972 Q160.093 626.657 154.376 626.657 Q148.658 626.657 145.579 623.972 Q142.524 621.287 142.524 616.263 Q142.524 612.953 144.422 610.662 Q146.32 608.37 149.7 607.583 M147.987 600.199 Q147.987 602.884 149.653 604.388 Q151.343 605.893 154.376 605.893 Q157.385 605.893 159.075 604.388 Q160.788 602.884 160.788 600.199 Q160.788 597.514 159.075 596.009 Q157.385 594.504 154.376 594.504 Q151.343 594.504 149.653 596.009 Q147.987 597.514 147.987 600.199 Z" fill="#000000" fill-rule="nonzero" fill-opacity="1" /><path clip-path="url(#clip080)" d="M114.931 428.167 L122.57 428.167 L122.57 401.802 L114.26 403.468 L114.26 399.209 L122.524 397.542 L127.2 397.542 L127.2 428.167 L134.839 428.167 L134.839 432.102 L114.931 432.102 L114.931 428.167 Z" fill="#000000" fill-rule="nonzero" fill-opacity="1" /><path clip-path="url(#clip080)" d="M154.283 400.621 Q150.672 400.621 148.843 404.186 Q147.038 407.728 147.038 414.857 Q147.038 421.964 148.843 425.528 Q150.672 429.07 154.283 429.07 Q157.917 429.07 159.723 425.528 Q161.552 421.964 161.552 414.857 Q161.552 407.728 159.723 404.186 Q157.917 400.621 154.283 400.621 M154.283 396.917 Q160.093 396.917 163.149 401.524 Q166.227 406.107 166.227 414.857 Q166.227 423.584 163.149 428.19 Q160.093 432.774 154.283 432.774 Q148.473 432.774 145.394 428.19 Q142.339 423.584 142.339 414.857 Q142.339 406.107 145.394 401.524 Q148.473 396.917 154.283 396.917 Z" fill="#000000" fill-rule="nonzero" fill-opacity="1" /><path clip-path="url(#clip080)" d="M116.529 234.284 L124.168 234.284 L124.168 207.918 L115.857 209.585 L115.857 205.326 L124.121 203.659 L128.797 203.659 L128.797 234.284 L136.436 234.284 L136.436 238.219 L116.529 238.219 L116.529 234.284 Z" fill="#000000" fill-rule="nonzero" fill-opacity="1" /><path clip-path="url(#clip080)" d="M149.908 234.284 L166.227 234.284 L166.227 238.219 L144.283 238.219 L144.283 234.284 Q146.945 231.529 151.528 226.9 Q156.135 222.247 157.315 220.905 Q159.561 218.381 160.44 216.645 Q161.343 214.886 161.343 213.196 Q161.343 210.442 159.399 208.705 Q157.478 206.969 154.376 206.969 Q152.177 206.969 149.723 207.733 Q147.292 208.497 144.515 210.048 L144.515 205.326 Q147.339 204.192 149.792 203.613 Q152.246 203.034 154.283 203.034 Q159.653 203.034 162.848 205.719 Q166.042 208.405 166.042 212.895 Q166.042 215.025 165.232 216.946 Q164.445 218.844 162.339 221.437 Q161.76 222.108 158.658 225.326 Q155.556 228.52 149.908 234.284 Z" fill="#000000" fill-rule="nonzero" fill-opacity="1" /><path clip-path="url(#clip080)" d="M21.7677 1026.76 L39.6235 1026.76 L39.6235 1018.68 Q39.6235 1014.19 37.3 1011.74 Q34.9765 1009.29 30.6797 1009.29 Q26.4147 1009.29 24.0912 1011.74 Q21.7677 1014.19 21.7677 1018.68 L21.7677 1026.76 M16.4842 1033.19 L16.4842 1018.68 Q16.4842 1010.69 20.1126 1006.61 Q23.7092 1002.51 30.6797 1002.51 Q37.7138 1002.51 41.3104 1006.61 Q44.907 1010.69 44.907 1018.68 L44.907 1026.76 L64.0042 1026.76 L64.0042 1033.19 L16.4842 1033.19 Z" fill="#000000" fill-rule="nonzero" fill-opacity="1" /><path clip-path="url(#clip080)" d="M33.8307 974.626 Q33.2578 975.613 33.0032 976.791 Q32.7167 977.936 32.7167 979.337 Q32.7167 984.302 35.9632 986.976 Q39.1779 989.617 45.2253 989.617 L64.0042 989.617 L64.0042 995.506 L28.3562 995.506 L28.3562 989.617 L33.8944 989.617 Q30.6479 987.771 29.0883 984.811 Q27.4968 981.851 27.4968 977.618 Q27.4968 977.013 27.5923 976.281 Q27.656 975.549 27.8151 974.658 L33.8307 974.626 Z" fill="#000000" fill-rule="nonzero" fill-opacity="1" /><path clip-path="url(#clip080)" d="M32.4621 956.102 Q32.4621 960.813 36.1542 963.55 Q39.8145 966.287 46.212 966.287 Q52.6095 966.287 56.3017 963.582 Q59.9619 960.844 59.9619 956.102 Q59.9619 951.423 56.2698 948.686 Q52.5777 945.949 46.212 945.949 Q39.8781 945.949 36.186 948.686 Q32.4621 951.423 32.4621 956.102 M27.4968 956.102 Q27.4968 948.463 32.4621 944.103 Q37.4273 939.742 46.212 939.742 Q54.9649 939.742 59.9619 944.103 Q64.9272 948.463 64.9272 956.102 Q64.9272 963.773 59.9619 968.133 Q54.9649 972.462 46.212 972.462 Q37.4273 972.462 32.4621 968.133 Q27.4968 963.773 27.4968 956.102 Z" fill="#000000" fill-rule="nonzero" fill-opacity="1" /><path clip-path="url(#clip080)" d="M46.212 904.444 Q39.7508 904.444 36.0905 907.118 Q32.3984 909.76 32.3984 914.407 Q32.3984 919.054 36.0905 921.727 Q39.7508 924.369 46.212 924.369 Q52.6732 924.369 56.3653 921.727 Q60.0256 919.054 60.0256 914.407 Q60.0256 909.76 56.3653 907.118 Q52.6732 904.444 46.212 904.444 M33.7671 924.369 Q30.5842 922.523 29.0564 919.722 Q27.4968 916.889 27.4968 912.974 Q27.4968 906.481 32.6531 902.439 Q37.8093 898.365 46.212 898.365 Q54.6147 898.365 59.771 902.439 Q64.9272 906.481 64.9272 912.974 Q64.9272 916.889 63.3994 919.722 Q61.8398 922.523 58.657 924.369 L64.0042 924.369 L64.0042 930.257 L14.479 930.257 L14.479 924.369 L33.7671 924.369 Z" fill="#000000" fill-rule="nonzero" fill-opacity="1" /><path clip-path="url(#clip080)" d="M46.0847 872.457 Q46.0847 879.554 47.7079 882.292 Q49.3312 885.029 53.2461 885.029 Q56.3653 885.029 58.2114 882.992 Q60.0256 880.923 60.0256 877.39 Q60.0256 872.52 56.5881 869.592 Q53.1188 866.632 47.3897 866.632 L46.0847 866.632 L46.0847 872.457 M43.6657 860.776 L64.0042 860.776 L64.0042 866.632 L58.5933 866.632 Q61.8398 868.637 63.3994 871.629 Q64.9272 874.621 64.9272 878.95 Q64.9272 884.424 61.8716 887.671 Q58.7843 890.885 53.6281 890.885 Q47.6125 890.885 44.5569 886.875 Q41.5014 882.833 41.5014 874.844 L41.5014 866.632 L40.9285 866.632 Q36.8862 866.632 34.6901 869.306 Q32.4621 871.947 32.4621 876.753 Q32.4621 879.809 33.1941 882.705 Q33.9262 885.602 35.3903 888.275 L29.9795 888.275 Q28.7381 885.061 28.1334 882.037 Q27.4968 879.013 27.4968 876.149 Q27.4968 868.414 31.5072 864.595 Q35.5176 860.776 43.6657 860.776 Z" fill="#000000" fill-rule="nonzero" fill-opacity="1" /><path clip-path="url(#clip080)" d="M46.212 823.122 Q39.7508 823.122 36.0905 825.796 Q32.3984 828.438 32.3984 833.085 Q32.3984 837.732 36.0905 840.405 Q39.7508 843.047 46.212 843.047 Q52.6732 843.047 56.3653 840.405 Q60.0256 837.732 60.0256 833.085 Q60.0256 828.438 56.3653 825.796 Q52.6732 823.122 46.212 823.122 M33.7671 843.047 Q30.5842 841.201 29.0564 838.4 Q27.4968 835.567 27.4968 831.652 Q27.4968 825.159 32.6531 821.117 Q37.8093 817.043 46.212 817.043 Q54.6147 817.043 59.771 821.117 Q64.9272 825.159 64.9272 831.652 Q64.9272 835.567 63.3994 838.4 Q61.8398 841.201 58.657 843.047 L64.0042 843.047 L64.0042 848.935 L14.479 848.935 L14.479 843.047 L33.7671 843.047 Z" fill="#000000" fill-rule="nonzero" fill-opacity="1" /><path clip-path="url(#clip080)" d="M28.3562 807.335 L28.3562 801.479 L64.0042 801.479 L64.0042 807.335 L28.3562 807.335 M14.479 807.335 L14.479 801.479 L21.895 801.479 L21.895 807.335 L14.479 807.335 Z" fill="#000000" fill-rule="nonzero" fill-opacity="1" /><path clip-path="url(#clip080)" d="M14.479 789.225 L14.479 783.369 L64.0042 783.369 L64.0042 789.225 L14.479 789.225 Z" fill="#000000" fill-rule="nonzero" fill-opacity="1" /><path clip-path="url(#clip080)" d="M28.3562 771.115 L28.3562 765.258 L64.0042 765.258 L64.0042 771.115 L28.3562 771.115 M14.479 771.115 L14.479 765.258 L21.895 765.258 L21.895 771.115 L14.479 771.115 Z" fill="#000000" fill-rule="nonzero" fill-opacity="1" /><path clip-path="url(#clip080)" d="M18.2347 747.211 L28.3562 747.211 L28.3562 735.148 L32.9077 735.148 L32.9077 747.211 L52.2594 747.211 Q56.6199 747.211 57.8613 746.034 Q59.1026 744.824 59.1026 741.164 L59.1026 735.148 L64.0042 735.148 L64.0042 741.164 Q64.0042 747.943 61.4897 750.521 Q58.9434 753.1 52.2594 753.1 L32.9077 753.1 L32.9077 757.396 L28.3562 757.396 L28.3562 753.1 L18.2347 753.1 L18.2347 747.211 Z" fill="#000000" fill-rule="nonzero" fill-opacity="1" /><path clip-path="url(#clip080)" d="M67.3143 712.614 Q73.68 715.096 75.6216 717.452 Q77.5631 719.807 77.5631 723.754 L77.5631 728.432 L72.6615 728.432 L72.6615 724.995 Q72.6615 722.576 71.5157 721.239 Q70.3699 719.902 66.1048 718.279 L63.4312 717.229 L28.3562 731.647 L28.3562 725.441 L56.238 714.301 L28.3562 703.161 L28.3562 696.954 L67.3143 712.614 Z" fill="#000000" fill-rule="nonzero" fill-opacity="1" /><path clip-path="url(#clip080)" d="M33.7671 644.692 L14.479 644.692 L14.479 638.835 L64.0042 638.835 L64.0042 644.692 L58.657 644.692 Q61.8398 646.538 63.3994 649.37 Q64.9272 652.171 64.9272 656.118 Q64.9272 662.579 59.771 666.653 Q54.6147 670.696 46.212 670.696 Q37.8093 670.696 32.6531 666.653 Q27.4968 662.579 27.4968 656.118 Q27.4968 652.171 29.0564 649.37 Q30.5842 646.538 33.7671 644.692 M46.212 664.648 Q52.6732 664.648 56.3653 662.006 Q60.0256 659.333 60.0256 654.686 Q60.0256 650.039 56.3653 647.365 Q52.6732 644.692 46.212 644.692 Q39.7508 644.692 36.0905 647.365 Q32.3984 650.039 32.3984 654.686 Q32.3984 659.333 36.0905 662.006 Q39.7508 664.648 46.212 664.648 Z" fill="#000000" fill-rule="nonzero" fill-opacity="1" /><path clip-path="url(#clip080)" d="M44.7161 596.28 L47.5806 596.28 L47.5806 623.207 Q53.6281 622.825 56.8109 619.579 Q59.9619 616.301 59.9619 610.476 Q59.9619 607.102 59.1344 603.951 Q58.3069 600.768 56.6518 597.649 L62.1899 597.649 Q63.5267 600.8 64.227 604.11 Q64.9272 607.42 64.9272 610.826 Q64.9272 619.356 59.9619 624.353 Q54.9967 629.318 46.5303 629.318 Q37.7774 629.318 32.6531 624.608 Q27.4968 619.865 27.4968 611.845 Q27.4968 604.651 32.1438 600.482 Q36.7589 596.28 44.7161 596.28 M42.9973 602.137 Q38.1912 602.201 35.3266 604.842 Q32.4621 607.452 32.4621 611.781 Q32.4621 616.683 35.2312 619.643 Q38.0002 622.571 43.0292 623.016 L42.9973 602.137 Z" fill="#000000" fill-rule="nonzero" fill-opacity="1" /><path clip-path="url(#clip080)" d="M42.4881 557.036 L64.0042 557.036 L64.0042 562.892 L42.679 562.892 Q37.6183 562.892 35.1038 564.866 Q32.5894 566.839 32.5894 570.786 Q32.5894 575.528 35.6131 578.265 Q38.6368 581.003 43.8567 581.003 L64.0042 581.003 L64.0042 586.891 L28.3562 586.891 L28.3562 581.003 L33.8944 581.003 Q30.6797 578.902 29.0883 576.069 Q27.4968 573.205 27.4968 569.481 Q27.4968 563.338 31.3163 560.187 Q35.1038 557.036 42.4881 557.036 Z" fill="#000000" fill-rule="nonzero" fill-opacity="1" /><path clip-path="url(#clip080)" d="M29.4065 522.629 L34.9447 522.629 Q33.6716 525.112 33.035 527.785 Q32.3984 530.459 32.3984 533.324 Q32.3984 537.684 33.7352 539.88 Q35.072 542.045 37.7456 542.045 Q39.7826 542.045 40.9603 540.485 Q42.1061 538.925 43.1565 534.215 L43.6021 532.21 Q44.9389 525.971 47.3897 523.361 Q49.8086 520.719 54.1691 520.719 Q59.1344 520.719 62.0308 524.666 Q64.9272 528.581 64.9272 535.456 Q64.9272 538.321 64.3543 541.44 Q63.8132 544.527 62.6992 547.965 L56.6518 547.965 Q58.3387 544.718 59.198 541.567 Q60.0256 538.416 60.0256 535.329 Q60.0256 531.191 58.6251 528.963 Q57.1929 526.735 54.6147 526.735 Q52.2276 526.735 50.9545 528.358 Q49.6813 529.95 48.5037 535.392 L48.0262 537.429 Q46.8804 542.872 44.5251 545.291 Q42.138 547.71 38.0002 547.71 Q32.9713 547.71 30.2341 544.145 Q27.4968 540.58 27.4968 534.024 Q27.4968 530.777 27.9743 527.913 Q28.4517 525.048 29.4065 522.629 Z" fill="#000000" fill-rule="nonzero" fill-opacity="1" /><path clip-path="url(#clip080)" d="M28.3562 511.394 L28.3562 505.537 L64.0042 505.537 L64.0042 511.394 L28.3562 511.394 M14.479 511.394 L14.479 505.537 L21.895 505.537 L21.895 511.394 L14.479 511.394 Z" fill="#000000" fill-rule="nonzero" fill-opacity="1" /><path clip-path="url(#clip080)" d="M18.2347 487.49 L28.3562 487.49 L28.3562 475.427 L32.9077 475.427 L32.9077 487.49 L52.2594 487.49 Q56.6199 487.49 57.8613 486.313 Q59.1026 485.103 59.1026 481.443 L59.1026 475.427 L64.0042 475.427 L64.0042 481.443 Q64.0042 488.223 61.4897 490.801 Q58.9434 493.379 52.2594 493.379 L32.9077 493.379 L32.9077 497.676 L28.3562 497.676 L28.3562 493.379 L18.2347 493.379 L18.2347 487.49 Z" fill="#000000" fill-rule="nonzero" fill-opacity="1" /><path clip-path="url(#clip080)" d="M67.3143 452.893 Q73.68 455.376 75.6216 457.731 Q77.5631 460.086 77.5631 464.033 L77.5631 468.712 L72.6615 468.712 L72.6615 465.274 Q72.6615 462.855 71.5157 461.518 Q70.3699 460.182 66.1048 458.558 L63.4312 457.508 L28.3562 471.926 L28.3562 465.72 L56.238 454.58 L28.3562 443.44 L28.3562 437.233 L67.3143 452.893 Z" fill="#000000" fill-rule="nonzero" fill-opacity="1" /><polyline clip-path="url(#clip082)" style="stroke:#009af9; stroke-linecap:round; stroke-linejoin:round; stroke-width:4; stroke-opacity:1; fill:none" points="263.091,1384.21 388.326,1384.18 513.561,1384.23 563.655,1384.22 613.748,1384.19 814.124,1384.23 864.218,1384.23 889.264,1384.17 964.405,1384.22 989.452,1384.16 1014.5,1384.23 1039.55,1384.23 1064.59,1384.23 1089.64,1384.23 1114.69,1384.21 1139.73,1384.08 1164.78,1384.16 1189.83,1384.2 1214.87,1384.14 1239.92,1384.13 1290.02,1384.08 1315.06,1384.17 1340.11,1383.95 1365.16,1384.14 1390.2,1384.18 1415.25,1384.02 1440.3,1384.07 1465.34,1384.04 1490.39,1384.02 1515.44,1383.98 1540.48,1384.14 1565.53,1383.82 1590.58,1383.58 1615.63,1383.74 1640.67,1383.12 1665.72,1382.62 1690.77,1382.85 1715.81,1382.42 1740.86,1381.82 1765.91,1381 1790.95,1379.84 1816,1379.02 1841.05,1376 1866.09,1372.77 1891.14,1365.62 1916.19,1357.3 1941.24,1331.53 1966.28,1281.69 1991.33,1193.09 2016.38,937.531 2041.42,424.553 2066.47,215.347 2091.52,86.1857 2116.56,417.125 2141.61,963.06 2166.66,1229.11 2191.7,1339.13 2216.75,1371.96 2241.8,1382.49 2266.84,1383.92 2291.89,1384.22 "/>
<polyline clip-path="url(#clip082)" style="stroke:#e26f46; stroke-linecap:round; stroke-linejoin:round; stroke-width:4; stroke-opacity:1; fill:none" points="263.091,1384.24 388.326,1384.24 513.561,1384.24 563.655,1384.24 613.748,1384.24 814.124,1384.24 864.218,1384.24 889.264,1384.24 964.405,1384.24 989.452,1384.24 1014.5,1384.24 1039.55,1384.24 1064.59,1384.24 1089.64,1384.24 1114.69,1384.24 1139.73,1384.24 1164.78,1384.24 1189.83,1384.24 1214.87,1384.24 1239.92,1384.24 1290.02,1384.24 1315.06,1384.24 1340.11,1384.24 1365.16,1384.24 1390.2,1384.24 1415.25,1384.24 1440.3,1384.24 1465.34,1384.24 1490.39,1384.24 1515.44,1384.24 1540.48,1384.24 1565.53,1384.24 1590.58,1384.24 1615.63,1384.24 1640.67,1384.24 1665.72,1384.24 1690.77,1384.24 1715.81,1384.24 1740.86,1384.24 1765.91,1384.24 1790.95,1384.23 1816,1384.22 1841.05,1384.18 1866.09,1384 1891.14,1383.34 1916.19,1381.09 1941.24,1374.03 1966.28,1354.35 1991.33,1307.17 2016.38,1214.85 2041.42,1079.16 2066.47,954.679 2091.52,935.874 2116.56,1056.27 2141.61,1224.88 2166.66,1334.98 2191.7,1374.79 2216.75,1383.12 2241.8,1384.15 2266.84,1384.23 2291.89,1384.24 "/>
<path clip-path="url(#clip080)" d="M273.912 248.629 L823.268 248.629 L823.268 93.1086 L273.912 93.1086  Z" fill="#ffffff" fill-rule="evenodd" fill-opacity="1"/>
<polyline clip-path="url(#clip080)" style="stroke:#ffffff; stroke-linecap:round; stroke-linejoin:round; stroke-width:4; stroke-opacity:1; fill:none" points="273.912,248.629 823.268,248.629 823.268,93.1086 273.912,93.1086 273.912,248.629 "/>
<polyline clip-path="url(#clip080)" style="stroke:#009af9; stroke-linecap:round; stroke-linejoin:round; stroke-width:4; stroke-opacity:1; fill:none" points="297.807,144.949 441.175,144.949 "/>
<path clip-path="url(#clip080)" d="M465.07 127.669 L469.746 127.669 L469.746 141.835 L486.736 141.835 L486.736 127.669 L491.412 127.669 L491.412 162.229 L486.736 162.229 L486.736 145.77 L469.746 145.77 L469.746 162.229 L465.07 162.229 L465.07 127.669 Z" fill="#000000" fill-rule="nonzero" fill-opacity="1" /><path clip-path="url(#clip080)" d="M500.533 136.303 L504.792 136.303 L504.792 162.229 L500.533 162.229 L500.533 136.303 M500.533 126.21 L504.792 126.21 L504.792 131.604 L500.533 131.604 L500.533 126.21 Z" fill="#000000" fill-rule="nonzero" fill-opacity="1" /><path clip-path="url(#clip080)" d="M530.232 137.067 L530.232 141.094 Q528.426 140.169 526.482 139.706 Q524.537 139.243 522.454 139.243 Q519.283 139.243 517.685 140.215 Q516.111 141.187 516.111 143.131 Q516.111 144.613 517.245 145.469 Q518.38 146.303 521.806 147.067 L523.264 147.391 Q527.801 148.363 529.699 150.145 Q531.62 151.905 531.62 155.076 Q531.62 158.687 528.75 160.793 Q525.903 162.9 520.903 162.9 Q518.82 162.9 516.551 162.483 Q514.306 162.09 511.806 161.28 L511.806 156.881 Q514.167 158.108 516.458 158.733 Q518.75 159.335 520.995 159.335 Q524.005 159.335 525.625 158.317 Q527.245 157.275 527.245 155.4 Q527.245 153.664 526.065 152.738 Q524.907 151.812 520.949 150.956 L519.468 150.608 Q515.509 149.775 513.75 148.062 Q511.991 146.326 511.991 143.317 Q511.991 139.659 514.583 137.669 Q517.176 135.678 521.945 135.678 Q524.306 135.678 526.389 136.025 Q528.472 136.372 530.232 137.067 Z" fill="#000000" fill-rule="nonzero" fill-opacity="1" /><path clip-path="url(#clip080)" d="M542.616 128.942 L542.616 136.303 L551.389 136.303 L551.389 139.613 L542.616 139.613 L542.616 153.687 Q542.616 156.858 543.472 157.761 Q544.352 158.664 547.014 158.664 L551.389 158.664 L551.389 162.229 L547.014 162.229 Q542.083 162.229 540.208 160.4 Q538.333 158.548 538.333 153.687 L538.333 139.613 L535.208 139.613 L535.208 136.303 L538.333 136.303 L538.333 128.942 L542.616 128.942 Z" fill="#000000" fill-rule="nonzero" fill-opacity="1" /><path clip-path="url(#clip080)" d="M567.037 139.289 Q563.611 139.289 561.62 141.974 Q559.63 144.636 559.63 149.289 Q559.63 153.942 561.597 156.627 Q563.588 159.289 567.037 159.289 Q570.44 159.289 572.43 156.604 Q574.421 153.918 574.421 149.289 Q574.421 144.682 572.43 141.997 Q570.44 139.289 567.037 139.289 M567.037 135.678 Q572.592 135.678 575.764 139.289 Q578.935 142.9 578.935 149.289 Q578.935 155.655 575.764 159.289 Q572.592 162.9 567.037 162.9 Q561.458 162.9 558.287 159.289 Q555.139 155.655 555.139 149.289 Q555.139 142.9 558.287 139.289 Q561.458 135.678 567.037 135.678 Z" fill="#000000" fill-rule="nonzero" fill-opacity="1" /><path clip-path="url(#clip080)" d="M603.055 148.965 Q603.055 144.335 601.134 141.789 Q599.236 139.243 595.787 139.243 Q592.361 139.243 590.44 141.789 Q588.541 144.335 588.541 148.965 Q588.541 153.571 590.44 156.118 Q592.361 158.664 595.787 158.664 Q599.236 158.664 601.134 156.118 Q603.055 153.571 603.055 148.965 M607.314 159.011 Q607.314 165.631 604.375 168.849 Q601.435 172.09 595.37 172.09 Q593.125 172.09 591.134 171.742 Q589.143 171.418 587.268 170.724 L587.268 166.58 Q589.143 167.599 590.972 168.085 Q592.801 168.571 594.699 168.571 Q598.889 168.571 600.972 166.372 Q603.055 164.196 603.055 159.775 L603.055 157.668 Q601.736 159.96 599.676 161.094 Q597.615 162.229 594.745 162.229 Q589.977 162.229 587.06 158.594 Q584.143 154.96 584.143 148.965 Q584.143 142.946 587.06 139.312 Q589.977 135.678 594.745 135.678 Q597.615 135.678 599.676 136.812 Q601.736 137.946 603.055 140.238 L603.055 136.303 L607.314 136.303 L607.314 159.011 Z" fill="#000000" fill-rule="nonzero" fill-opacity="1" /><path clip-path="url(#clip080)" d="M631.111 140.284 Q630.393 139.868 629.537 139.682 Q628.703 139.474 627.685 139.474 Q624.074 139.474 622.129 141.835 Q620.208 144.173 620.208 148.571 L620.208 162.229 L615.926 162.229 L615.926 136.303 L620.208 136.303 L620.208 140.331 Q621.55 137.969 623.703 136.835 Q625.856 135.678 628.935 135.678 Q629.375 135.678 629.907 135.747 Q630.439 135.794 631.087 135.909 L631.111 140.284 Z" fill="#000000" fill-rule="nonzero" fill-opacity="1" /><path clip-path="url(#clip080)" d="M647.361 149.196 Q642.199 149.196 640.208 150.377 Q638.217 151.557 638.217 154.405 Q638.217 156.673 639.699 158.016 Q641.203 159.335 643.773 159.335 Q647.314 159.335 649.444 156.835 Q651.597 154.312 651.597 150.145 L651.597 149.196 L647.361 149.196 M655.856 147.437 L655.856 162.229 L651.597 162.229 L651.597 158.293 Q650.138 160.655 647.962 161.789 Q645.786 162.9 642.638 162.9 Q638.657 162.9 636.296 160.678 Q633.958 158.432 633.958 154.682 Q633.958 150.307 636.874 148.085 Q639.814 145.863 645.624 145.863 L651.597 145.863 L651.597 145.446 Q651.597 142.507 649.652 140.909 Q647.731 139.289 644.236 139.289 Q642.013 139.289 639.907 139.821 Q637.8 140.354 635.856 141.419 L635.856 137.483 Q638.194 136.581 640.393 136.141 Q642.592 135.678 644.675 135.678 Q650.3 135.678 653.078 138.594 Q655.856 141.511 655.856 147.437 Z" fill="#000000" fill-rule="nonzero" fill-opacity="1" /><path clip-path="url(#clip080)" d="M684.814 141.28 Q686.411 138.409 688.633 137.044 Q690.856 135.678 693.865 135.678 Q697.916 135.678 700.115 138.525 Q702.314 141.349 702.314 146.581 L702.314 162.229 L698.032 162.229 L698.032 146.719 Q698.032 142.993 696.712 141.187 Q695.393 139.382 692.684 139.382 Q689.374 139.382 687.453 141.581 Q685.532 143.78 685.532 147.576 L685.532 162.229 L681.249 162.229 L681.249 146.719 Q681.249 142.969 679.93 141.187 Q678.61 139.382 675.856 139.382 Q672.592 139.382 670.671 141.604 Q668.749 143.803 668.749 147.576 L668.749 162.229 L664.467 162.229 L664.467 136.303 L668.749 136.303 L668.749 140.331 Q670.208 137.946 672.245 136.812 Q674.282 135.678 677.083 135.678 Q679.907 135.678 681.874 137.113 Q683.865 138.548 684.814 141.28 Z" fill="#000000" fill-rule="nonzero" fill-opacity="1" /><polyline clip-path="url(#clip080)" style="stroke:#e26f46; stroke-linecap:round; stroke-linejoin:round; stroke-width:4; stroke-opacity:1; fill:none" points="297.807,196.789 441.175,196.789 "/>
<path clip-path="url(#clip080)" d="M469.746 183.351 L469.746 210.226 L475.394 210.226 Q482.547 210.226 485.857 206.985 Q489.19 203.745 489.19 196.754 Q489.19 189.809 485.857 186.592 Q482.547 183.351 475.394 183.351 L469.746 183.351 M465.07 179.509 L474.676 179.509 Q484.723 179.509 489.422 183.698 Q494.121 187.865 494.121 196.754 Q494.121 205.689 489.398 209.879 Q484.676 214.069 474.676 214.069 L465.07 214.069 L465.07 179.509 Z" fill="#000000" fill-rule="nonzero" fill-opacity="1" /><path clip-path="url(#clip080)" d="M501.389 188.143 L505.648 188.143 L505.648 214.069 L501.389 214.069 L501.389 188.143 M501.389 178.05 L505.648 178.05 L505.648 183.444 L501.389 183.444 L501.389 178.05 Z" fill="#000000" fill-rule="nonzero" fill-opacity="1" /><path clip-path="url(#clip080)" d="M531.088 188.907 L531.088 192.934 Q529.282 192.009 527.338 191.546 Q525.394 191.083 523.31 191.083 Q520.139 191.083 518.542 192.055 Q516.968 193.027 516.968 194.971 Q516.968 196.453 518.102 197.309 Q519.236 198.143 522.662 198.907 L524.12 199.231 Q528.657 200.203 530.556 201.985 Q532.477 203.745 532.477 206.916 Q532.477 210.527 529.607 212.633 Q526.759 214.74 521.759 214.74 Q519.676 214.74 517.408 214.323 Q515.162 213.93 512.662 213.12 L512.662 208.721 Q515.023 209.948 517.315 210.573 Q519.607 211.175 521.852 211.175 Q524.861 211.175 526.482 210.157 Q528.102 209.115 528.102 207.24 Q528.102 205.504 526.921 204.578 Q525.764 203.652 521.806 202.796 L520.324 202.448 Q516.366 201.615 514.607 199.902 Q512.847 198.166 512.847 195.157 Q512.847 191.499 515.44 189.509 Q518.033 187.518 522.801 187.518 Q525.162 187.518 527.245 187.865 Q529.329 188.212 531.088 188.907 Z" fill="#000000" fill-rule="nonzero" fill-opacity="1" /><path clip-path="url(#clip080)" d="M543.472 180.782 L543.472 188.143 L552.245 188.143 L552.245 191.453 L543.472 191.453 L543.472 205.527 Q543.472 208.698 544.329 209.601 Q545.208 210.504 547.87 210.504 L552.245 210.504 L552.245 214.069 L547.87 214.069 Q542.94 214.069 541.065 212.24 Q539.19 210.388 539.19 205.527 L539.19 191.453 L536.065 191.453 L536.065 188.143 L539.19 188.143 L539.19 180.782 L543.472 180.782 Z" fill="#000000" fill-rule="nonzero" fill-opacity="1" /><path clip-path="url(#clip080)" d="M572.87 192.124 Q572.153 191.708 571.296 191.522 Q570.463 191.314 569.444 191.314 Q565.833 191.314 563.889 193.675 Q561.967 196.013 561.967 200.411 L561.967 214.069 L557.685 214.069 L557.685 188.143 L561.967 188.143 L561.967 192.171 Q563.31 189.809 565.463 188.675 Q567.616 187.518 570.694 187.518 Q571.134 187.518 571.666 187.587 Q572.199 187.634 572.847 187.749 L572.87 192.124 Z" fill="#000000" fill-rule="nonzero" fill-opacity="1" /><path clip-path="url(#clip080)" d="M577.338 188.143 L581.597 188.143 L581.597 214.069 L577.338 214.069 L577.338 188.143 M577.338 178.05 L581.597 178.05 L581.597 183.444 L577.338 183.444 L577.338 178.05 Z" fill="#000000" fill-rule="nonzero" fill-opacity="1" /><path clip-path="url(#clip080)" d="M609.12 201.129 Q609.12 196.43 607.176 193.768 Q605.254 191.083 601.875 191.083 Q598.495 191.083 596.551 193.768 Q594.629 196.43 594.629 201.129 Q594.629 205.828 596.551 208.513 Q598.495 211.175 601.875 211.175 Q605.254 211.175 607.176 208.513 Q609.12 205.828 609.12 201.129 M594.629 192.078 Q595.972 189.763 598.009 188.652 Q600.069 187.518 602.916 187.518 Q607.639 187.518 610.578 191.268 Q613.541 195.018 613.541 201.129 Q613.541 207.24 610.578 210.99 Q607.639 214.74 602.916 214.74 Q600.069 214.74 598.009 213.629 Q595.972 212.495 594.629 210.18 L594.629 214.069 L590.347 214.069 L590.347 178.05 L594.629 178.05 L594.629 192.078 Z" fill="#000000" fill-rule="nonzero" fill-opacity="1" /><path clip-path="url(#clip080)" d="M620.162 203.837 L620.162 188.143 L624.421 188.143 L624.421 203.675 Q624.421 207.356 625.856 209.208 Q627.291 211.036 630.162 211.036 Q633.611 211.036 635.601 208.837 Q637.615 206.638 637.615 202.842 L637.615 188.143 L641.874 188.143 L641.874 214.069 L637.615 214.069 L637.615 210.087 Q636.064 212.448 634.004 213.606 Q631.967 214.74 629.259 214.74 Q624.791 214.74 622.476 211.962 Q620.162 209.184 620.162 203.837 M630.879 187.518 L630.879 187.518 Z" fill="#000000" fill-rule="nonzero" fill-opacity="1" /><path clip-path="url(#clip080)" d="M654.86 180.782 L654.86 188.143 L663.634 188.143 L663.634 191.453 L654.86 191.453 L654.86 205.527 Q654.86 208.698 655.717 209.601 Q656.597 210.504 659.259 210.504 L663.634 210.504 L663.634 214.069 L659.259 214.069 Q654.328 214.069 652.453 212.24 Q650.578 210.388 650.578 205.527 L650.578 191.453 L647.453 191.453 L647.453 188.143 L650.578 188.143 L650.578 180.782 L654.86 180.782 Z" fill="#000000" fill-rule="nonzero" fill-opacity="1" /><path clip-path="url(#clip080)" d="M669.235 188.143 L673.495 188.143 L673.495 214.069 L669.235 214.069 L669.235 188.143 M669.235 178.05 L673.495 178.05 L673.495 183.444 L669.235 183.444 L669.235 178.05 Z" fill="#000000" fill-rule="nonzero" fill-opacity="1" /><path clip-path="url(#clip080)" d="M692.453 191.129 Q689.027 191.129 687.036 193.814 Q685.046 196.476 685.046 201.129 Q685.046 205.782 687.013 208.467 Q689.004 211.129 692.453 211.129 Q695.856 211.129 697.846 208.444 Q699.837 205.758 699.837 201.129 Q699.837 196.522 697.846 193.837 Q695.856 191.129 692.453 191.129 M692.453 187.518 Q698.008 187.518 701.18 191.129 Q704.351 194.74 704.351 201.129 Q704.351 207.495 701.18 211.129 Q698.008 214.74 692.453 214.74 Q686.874 214.74 683.703 211.129 Q680.555 207.495 680.555 201.129 Q680.555 194.74 683.703 191.129 Q686.874 187.518 692.453 187.518 Z" fill="#000000" fill-rule="nonzero" fill-opacity="1" /><path clip-path="url(#clip080)" d="M732.962 198.421 L732.962 214.069 L728.703 214.069 L728.703 198.559 Q728.703 194.879 727.268 193.05 Q725.832 191.222 722.962 191.222 Q719.513 191.222 717.522 193.421 Q715.531 195.62 715.531 199.416 L715.531 214.069 L711.249 214.069 L711.249 188.143 L715.531 188.143 L715.531 192.171 Q717.059 189.833 719.119 188.675 Q721.203 187.518 723.911 187.518 Q728.379 187.518 730.67 190.296 Q732.962 193.05 732.962 198.421 Z" fill="#000000" fill-rule="nonzero" fill-opacity="1" /><path clip-path="url(#clip080)" d="M769.652 178.05 L769.652 181.592 L765.577 181.592 Q763.286 181.592 762.383 182.518 Q761.503 183.444 761.503 185.851 L761.503 188.143 L768.517 188.143 L768.517 191.453 L761.503 191.453 L761.503 214.069 L757.221 214.069 L757.221 191.453 L753.147 191.453 L753.147 188.143 L757.221 188.143 L757.221 186.337 Q757.221 182.009 759.235 180.041 Q761.249 178.05 765.624 178.05 L769.652 178.05 Z" fill="#000000" fill-rule="nonzero" fill-opacity="1" /><path clip-path="url(#clip080)" d="M773.216 188.143 L777.476 188.143 L777.476 214.069 L773.216 214.069 L773.216 188.143 M773.216 178.05 L777.476 178.05 L777.476 183.444 L773.216 183.444 L773.216 178.05 Z" fill="#000000" fill-rule="nonzero" fill-opacity="1" /><path clip-path="url(#clip080)" d="M790.6 180.782 L790.6 188.143 L799.374 188.143 L799.374 191.453 L790.6 191.453 L790.6 205.527 Q790.6 208.698 791.457 209.601 Q792.337 210.504 794.999 210.504 L799.374 210.504 L799.374 214.069 L794.999 214.069 Q790.068 214.069 788.193 212.24 Q786.318 210.388 786.318 205.527 L786.318 191.453 L783.193 191.453 L783.193 188.143 L786.318 188.143 L786.318 180.782 L790.6 180.782 Z" fill="#000000" fill-rule="nonzero" fill-opacity="1" /></svg>
