<?xml version="1.0" encoding="utf-8"?>
<svg xmlns="http://www.w3.org/2000/svg" xmlns:xlink="http://www.w3.org/1999/xlink" width="600" height="400" viewBox="0 0 2400 1600">
<defs>
  <clipPath id="clip440">
    <rect x="0" y="0" width="2400" height="1600"/>
  </clipPath>
</defs>
<path clip-path="url(#clip440)" d="M0 1600 L2400 1600 L2400 8.88178e-14 L0 8.88178e-14  Z" fill="#ffffff" fill-rule="evenodd" fill-opacity="1"/>
<defs>
  <clipPath id="clip441">
    <rect x="480" y="0" width="1681" height="1600"/>
  </clipPath>
</defs>
<path clip-path="url(#clip440)" d="M249.357 1552.76 L2352.76 1552.76 L2352.76 47.2441 L249.357 47.2441  Z" fill="#ffffff" fill-rule="evenodd" fill-opacity="1"/>
<defs>
  <clipPath id="clip442">
    <rect x="249" y="47" width="2104" height="1507"/>
  </clipPath>
</defs>
<polyline clip-path="url(#clip442)" style="stroke:#000000; stroke-linecap:round; stroke-linejoin:round; stroke-width:2; stroke-opacity:0.1; fill:none" points="249.357,1442.67 2352.76,1442.67 "/>
<polyline clip-path="url(#clip442)" style="stroke:#000000; stroke-linecap:round; stroke-linejoin:round; stroke-width:2; stroke-opacity:0.1; fill:none" points="249.357,1105.31 2352.76,1105.31 "/>
<polyline clip-path="url(#clip442)" style="stroke:#000000; stroke-linecap:round; stroke-linejoin:round; stroke-width:2; stroke-opacity:0.1; fill:none" points="249.357,767.951 2352.76,767.951 "/>
<polyline clip-path="url(#clip442)" style="stroke:#000000; stroke-linecap:round; stroke-linejoin:round; stroke-width:2; stroke-opacity:0.1; fill:none" points="249.357,430.589 2352.76,430.589 "/>
<polyline clip-path="url(#clip442)" style="stroke:#000000; stroke-linecap:round; stroke-linejoin:round; stroke-width:2; stroke-opacity:0.1; fill:none" points="249.357,93.2265 2352.76,93.2265 "/>
<polyline clip-path="url(#clip442)" style="stroke:#000000; stroke-linecap:round; stroke-linejoin:round; stroke-width:2; stroke-opacity:0.1; fill:none" points="249.357,1442.67 2352.76,1442.67 "/>
<polyline clip-path="url(#clip442)" style="stroke:#000000; stroke-linecap:round; stroke-linejoin:round; stroke-width:2; stroke-opacity:0.1; fill:none" points="249.357,1105.31 2352.76,1105.31 "/>
<polyline clip-path="url(#clip442)" style="stroke:#000000; stroke-linecap:round; stroke-linejoin:round; stroke-width:2; stroke-opacity:0.1; fill:none" points="249.357,767.951 2352.76,767.951 "/>
<polyline clip-path="url(#clip442)" style="stroke:#000000; stroke-linecap:round; stroke-linejoin:round; stroke-width:2; stroke-opacity:0.1; fill:none" points="249.357,430.589 2352.76,430.589 "/>
<polyline clip-path="url(#clip442)" style="stroke:#000000; stroke-linecap:round; stroke-linejoin:round; stroke-width:2; stroke-opacity:0.1; fill:none" points="249.357,93.2265 2352.76,93.2265 "/>
<polyline clip-path="url(#clip440)" style="stroke:#000000; stroke-linecap:round; stroke-linejoin:round; stroke-width:4; stroke-opacity:1; fill:none" points="249.357,1552.76 2352.76,1552.76 "/>
<polyline clip-path="url(#clip440)" style="stroke:#000000; stroke-linecap:round; stroke-linejoin:round; stroke-width:4; stroke-opacity:1; fill:none" points="249.357,47.2441 2352.76,47.2441 "/>
<polyline clip-path="url(#clip440)" style="stroke:#000000; stroke-linecap:round; stroke-linejoin:round; stroke-width:4; stroke-opacity:1; fill:none" points="249.357,1552.76 249.357,47.2441 "/>
<polyline clip-path="url(#clip440)" style="stroke:#000000; stroke-linecap:round; stroke-linejoin:round; stroke-width:4; stroke-opacity:1; fill:none" points="2352.76,1552.76 2352.76,47.2441 "/>
<polyline clip-path="url(#clip440)" style="stroke:#000000; stroke-linecap:round; stroke-linejoin:round; stroke-width:4; stroke-opacity:1; fill:none" points="249.357,1442.67 268.254,1442.67 "/>
<polyline clip-path="url(#clip440)" style="stroke:#000000; stroke-linecap:round; stroke-linejoin:round; stroke-width:4; stroke-opacity:1; fill:none" points="249.357,1105.31 268.254,1105.31 "/>
<polyline clip-path="url(#clip440)" style="stroke:#000000; stroke-linecap:round; stroke-linejoin:round; stroke-width:4; stroke-opacity:1; fill:none" points="249.357,767.951 268.254,767.951 "/>
<polyline clip-path="url(#clip440)" style="stroke:#000000; stroke-linecap:round; stroke-linejoin:round; stroke-width:4; stroke-opacity:1; fill:none" points="249.357,430.589 268.254,430.589 "/>
<polyline clip-path="url(#clip440)" style="stroke:#000000; stroke-linecap:round; stroke-linejoin:round; stroke-width:4; stroke-opacity:1; fill:none" points="249.357,93.2265 268.254,93.2265 "/>
<polyline clip-path="url(#clip440)" style="stroke:#000000; stroke-linecap:round; stroke-linejoin:round; stroke-width:4; stroke-opacity:1; fill:none" points="2352.76,1442.67 2333.86,1442.67 "/>
<polyline clip-path="url(#clip440)" style="stroke:#000000; stroke-linecap:round; stroke-linejoin:round; stroke-width:4; stroke-opacity:1; fill:none" points="2352.76,1105.31 2333.86,1105.31 "/>
<polyline clip-path="url(#clip440)" style="stroke:#000000; stroke-linecap:round; stroke-linejoin:round; stroke-width:4; stroke-opacity:1; fill:none" points="2352.76,767.951 2333.86,767.951 "/>
<polyline clip-path="url(#clip440)" style="stroke:#000000; stroke-linecap:round; stroke-linejoin:round; stroke-width:4; stroke-opacity:1; fill:none" points="2352.76,430.589 2333.86,430.589 "/>
<polyline clip-path="url(#clip440)" style="stroke:#000000; stroke-linecap:round; stroke-linejoin:round; stroke-width:4; stroke-opacity:1; fill:none" points="2352.76,93.2265 2333.86,93.2265 "/>
<path clip-path="url(#clip440)" d="M126.783 1440.81 Q123.635 1440.81 121.783 1442.96 Q119.955 1445.12 119.955 1448.87 Q119.955 1452.59 121.783 1454.77 Q123.635 1456.92 126.783 1456.92 Q129.931 1456.92 131.76 1454.77 Q133.612 1452.59 133.612 1448.87 Q133.612 1445.12 131.76 1442.96 Q129.931 1440.81 126.783 1440.81 M136.066 1426.16 L136.066 1430.42 Q134.306 1429.58 132.501 1429.14 Q130.718 1428.7 128.959 1428.7 Q124.33 1428.7 121.876 1431.83 Q119.445 1434.95 119.098 1441.27 Q120.464 1439.26 122.524 1438.2 Q124.584 1437.11 127.061 1437.11 Q132.269 1437.11 135.279 1440.28 Q138.311 1443.43 138.311 1448.87 Q138.311 1454.19 135.163 1457.41 Q132.015 1460.63 126.783 1460.63 Q120.788 1460.63 117.617 1456.04 Q114.445 1451.44 114.445 1442.71 Q114.445 1434.51 118.334 1429.65 Q122.223 1424.77 128.774 1424.77 Q130.533 1424.77 132.316 1425.12 Q134.121 1425.46 136.066 1426.16 Z" fill="#000000" fill-rule="nonzero" fill-opacity="1" /><path clip-path="url(#clip440)" d="M146.413 1425.39 L164.769 1425.39 L164.769 1429.33 L150.695 1429.33 L150.695 1437.8 Q151.714 1437.45 152.732 1437.29 Q153.751 1437.11 154.769 1437.11 Q160.556 1437.11 163.936 1440.28 Q167.315 1443.45 167.315 1448.87 Q167.315 1454.45 163.843 1457.55 Q160.371 1460.63 154.052 1460.63 Q151.876 1460.63 149.607 1460.26 Q147.362 1459.89 144.954 1459.14 L144.954 1454.45 Q147.038 1455.58 149.26 1456.14 Q151.482 1456.69 153.959 1456.69 Q157.964 1456.69 160.302 1454.58 Q162.64 1452.48 162.64 1448.87 Q162.64 1445.26 160.302 1443.15 Q157.964 1441.04 153.959 1441.04 Q152.084 1441.04 150.209 1441.46 Q148.357 1441.88 146.413 1442.76 L146.413 1425.39 Z" fill="#000000" fill-rule="nonzero" fill-opacity="1" /><path clip-path="url(#clip440)" d="M176.528 1454.08 L181.413 1454.08 L181.413 1459.95 L176.528 1459.95 L176.528 1454.08 Z" fill="#000000" fill-rule="nonzero" fill-opacity="1" /><path clip-path="url(#clip440)" d="M191.737 1459.24 L191.737 1454.98 Q193.496 1455.81 195.301 1456.25 Q197.107 1456.69 198.843 1456.69 Q203.473 1456.69 205.903 1453.59 Q208.357 1450.46 208.704 1444.12 Q207.362 1446.11 205.301 1447.18 Q203.241 1448.24 200.741 1448.24 Q195.556 1448.24 192.524 1445.12 Q189.514 1441.97 189.514 1436.53 Q189.514 1431.2 192.663 1427.99 Q195.811 1424.77 201.042 1424.77 Q207.037 1424.77 210.186 1429.38 Q213.357 1433.96 213.357 1442.71 Q213.357 1450.88 209.468 1455.76 Q205.602 1460.63 199.051 1460.63 Q197.292 1460.63 195.487 1460.28 Q193.681 1459.93 191.737 1459.24 M201.042 1444.58 Q204.19 1444.58 206.019 1442.43 Q207.871 1440.28 207.871 1436.53 Q207.871 1432.8 206.019 1430.65 Q204.19 1428.47 201.042 1428.47 Q197.894 1428.47 196.042 1430.65 Q194.213 1432.8 194.213 1436.53 Q194.213 1440.28 196.042 1442.43 Q197.894 1444.58 201.042 1444.58 Z" fill="#000000" fill-rule="nonzero" fill-opacity="1" /><path clip-path="url(#clip440)" d="M126.598 1103.45 Q123.45 1103.45 121.598 1105.6 Q119.769 1107.75 119.769 1111.5 Q119.769 1115.23 121.598 1117.41 Q123.45 1119.56 126.598 1119.56 Q129.746 1119.56 131.575 1117.41 Q133.427 1115.23 133.427 1111.5 Q133.427 1107.75 131.575 1105.6 Q129.746 1103.45 126.598 1103.45 M135.88 1088.8 L135.88 1093.06 Q134.121 1092.22 132.316 1091.78 Q130.533 1091.34 128.774 1091.34 Q124.144 1091.34 121.691 1094.47 Q119.26 1097.59 118.913 1103.91 Q120.279 1101.9 122.339 1100.83 Q124.399 1099.75 126.876 1099.75 Q132.084 1099.75 135.093 1102.92 Q138.126 1106.06 138.126 1111.5 Q138.126 1116.83 134.978 1120.05 Q131.83 1123.26 126.598 1123.26 Q120.603 1123.26 117.431 1118.68 Q114.26 1114.07 114.26 1105.35 Q114.26 1097.15 118.149 1092.29 Q122.038 1087.41 128.589 1087.41 Q130.348 1087.41 132.13 1087.75 Q133.936 1088.1 135.88 1088.8 Z" fill="#000000" fill-rule="nonzero" fill-opacity="1" /><path clip-path="url(#clip440)" d="M156.76 1103.45 Q153.612 1103.45 151.76 1105.6 Q149.931 1107.75 149.931 1111.5 Q149.931 1115.23 151.76 1117.41 Q153.612 1119.56 156.76 1119.56 Q159.908 1119.56 161.737 1117.41 Q163.589 1115.23 163.589 1111.5 Q163.589 1107.75 161.737 1105.6 Q159.908 1103.45 156.76 1103.45 M166.042 1088.8 L166.042 1093.06 Q164.283 1092.22 162.477 1091.78 Q160.695 1091.34 158.936 1091.34 Q154.306 1091.34 151.853 1094.47 Q149.422 1097.59 149.075 1103.91 Q150.441 1101.9 152.501 1100.83 Q154.561 1099.75 157.038 1099.75 Q162.246 1099.75 165.255 1102.92 Q168.288 1106.06 168.288 1111.5 Q168.288 1116.83 165.14 1120.05 Q161.991 1123.26 156.76 1123.26 Q150.765 1123.26 147.593 1118.68 Q144.422 1114.07 144.422 1105.35 Q144.422 1097.15 148.311 1092.29 Q152.2 1087.41 158.751 1087.41 Q160.51 1087.41 162.292 1087.75 Q164.098 1088.1 166.042 1088.8 Z" fill="#000000" fill-rule="nonzero" fill-opacity="1" /><path clip-path="url(#clip440)" d="M176.343 1116.71 L181.227 1116.71 L181.227 1122.59 L176.343 1122.59 L176.343 1116.71 Z" fill="#000000" fill-rule="nonzero" fill-opacity="1" /><path clip-path="url(#clip440)" d="M201.412 1091.11 Q197.801 1091.11 195.973 1094.68 Q194.167 1098.22 194.167 1105.35 Q194.167 1112.45 195.973 1116.02 Q197.801 1119.56 201.412 1119.56 Q205.047 1119.56 206.852 1116.02 Q208.681 1112.45 208.681 1105.35 Q208.681 1098.22 206.852 1094.68 Q205.047 1091.11 201.412 1091.11 M201.412 1087.41 Q207.223 1087.41 210.278 1092.01 Q213.357 1096.6 213.357 1105.35 Q213.357 1114.07 210.278 1118.68 Q207.223 1123.26 201.412 1123.26 Q195.602 1123.26 192.524 1118.68 Q189.468 1114.07 189.468 1105.35 Q189.468 1096.6 192.524 1092.01 Q195.602 1087.41 201.412 1087.41 Z" fill="#000000" fill-rule="nonzero" fill-opacity="1" /><path clip-path="url(#clip440)" d="M127.825 766.087 Q124.677 766.087 122.825 768.24 Q120.996 770.393 120.996 774.143 Q120.996 777.87 122.825 780.045 Q124.677 782.198 127.825 782.198 Q130.973 782.198 132.802 780.045 Q134.654 777.87 134.654 774.143 Q134.654 770.393 132.802 768.24 Q130.973 766.087 127.825 766.087 M137.107 751.434 L137.107 755.694 Q135.348 754.86 133.542 754.421 Q131.76 753.981 130.001 753.981 Q125.371 753.981 122.918 757.106 Q120.487 760.231 120.14 766.55 Q121.505 764.536 123.566 763.471 Q125.626 762.384 128.103 762.384 Q133.311 762.384 136.32 765.555 Q139.353 768.703 139.353 774.143 Q139.353 779.467 136.204 782.684 Q133.056 785.902 127.825 785.902 Q121.83 785.902 118.658 781.319 Q115.487 776.712 115.487 767.985 Q115.487 759.791 119.376 754.93 Q123.265 750.046 129.816 750.046 Q131.575 750.046 133.357 750.393 Q135.163 750.74 137.107 751.434 Z" fill="#000000" fill-rule="nonzero" fill-opacity="1" /><path clip-path="url(#clip440)" d="M157.987 766.087 Q154.839 766.087 152.987 768.24 Q151.158 770.393 151.158 774.143 Q151.158 777.87 152.987 780.045 Q154.839 782.198 157.987 782.198 Q161.135 782.198 162.964 780.045 Q164.815 777.87 164.815 774.143 Q164.815 770.393 162.964 768.24 Q161.135 766.087 157.987 766.087 M167.269 751.434 L167.269 755.694 Q165.51 754.86 163.704 754.421 Q161.922 753.981 160.163 753.981 Q155.533 753.981 153.079 757.106 Q150.649 760.231 150.302 766.55 Q151.667 764.536 153.728 763.471 Q155.788 762.384 158.265 762.384 Q163.473 762.384 166.482 765.555 Q169.514 768.703 169.514 774.143 Q169.514 779.467 166.366 782.684 Q163.218 785.902 157.987 785.902 Q151.991 785.902 148.82 781.319 Q145.649 776.712 145.649 767.985 Q145.649 759.791 149.538 754.93 Q153.427 750.046 159.978 750.046 Q161.737 750.046 163.519 750.393 Q165.325 750.74 167.269 751.434 Z" fill="#000000" fill-rule="nonzero" fill-opacity="1" /><path clip-path="url(#clip440)" d="M177.57 779.351 L182.454 779.351 L182.454 785.231 L177.57 785.231 L177.57 779.351 Z" fill="#000000" fill-rule="nonzero" fill-opacity="1" /><path clip-path="url(#clip440)" d="M193.45 781.295 L201.088 781.295 L201.088 754.93 L192.778 756.597 L192.778 752.337 L201.042 750.671 L205.718 750.671 L205.718 781.295 L213.357 781.295 L213.357 785.231 L193.45 785.231 L193.45 781.295 Z" fill="#000000" fill-rule="nonzero" fill-opacity="1" /><path clip-path="url(#clip440)" d="M128.195 428.725 Q125.047 428.725 123.195 430.878 Q121.367 433.031 121.367 436.781 Q121.367 440.508 123.195 442.683 Q125.047 444.836 128.195 444.836 Q131.343 444.836 133.172 442.683 Q135.024 440.508 135.024 436.781 Q135.024 433.031 133.172 430.878 Q131.343 428.725 128.195 428.725 M137.478 414.072 L137.478 418.332 Q135.718 417.498 133.913 417.059 Q132.13 416.619 130.371 416.619 Q125.742 416.619 123.288 419.744 Q120.857 422.869 120.51 429.188 Q121.876 427.174 123.936 426.109 Q125.996 425.021 128.473 425.021 Q133.681 425.021 136.691 428.193 Q139.723 431.341 139.723 436.781 Q139.723 442.105 136.575 445.322 Q133.427 448.54 128.195 448.54 Q122.2 448.54 119.029 443.957 Q115.857 439.35 115.857 430.623 Q115.857 422.429 119.746 417.568 Q123.635 412.684 130.186 412.684 Q131.945 412.684 133.728 413.031 Q135.533 413.378 137.478 414.072 Z" fill="#000000" fill-rule="nonzero" fill-opacity="1" /><path clip-path="url(#clip440)" d="M158.357 428.725 Q155.209 428.725 153.357 430.878 Q151.528 433.031 151.528 436.781 Q151.528 440.508 153.357 442.683 Q155.209 444.836 158.357 444.836 Q161.505 444.836 163.334 442.683 Q165.186 440.508 165.186 436.781 Q165.186 433.031 163.334 430.878 Q161.505 428.725 158.357 428.725 M167.64 414.072 L167.64 418.332 Q165.88 417.498 164.075 417.059 Q162.292 416.619 160.533 416.619 Q155.903 416.619 153.45 419.744 Q151.019 422.869 150.672 429.188 Q152.038 427.174 154.098 426.109 Q156.158 425.021 158.635 425.021 Q163.843 425.021 166.852 428.193 Q169.885 431.341 169.885 436.781 Q169.885 442.105 166.737 445.322 Q163.589 448.54 158.357 448.54 Q152.362 448.54 149.191 443.957 Q146.019 439.35 146.019 430.623 Q146.019 422.429 149.908 417.568 Q153.797 412.684 160.348 412.684 Q162.107 412.684 163.89 413.031 Q165.695 413.378 167.64 414.072 Z" fill="#000000" fill-rule="nonzero" fill-opacity="1" /><path clip-path="url(#clip440)" d="M177.94 441.989 L182.825 441.989 L182.825 447.869 L177.94 447.869 L177.94 441.989 Z" fill="#000000" fill-rule="nonzero" fill-opacity="1" /><path clip-path="url(#clip440)" d="M197.037 443.933 L213.357 443.933 L213.357 447.869 L191.413 447.869 L191.413 443.933 Q194.075 441.179 198.658 436.549 Q203.264 431.896 204.445 430.554 Q206.69 428.031 207.57 426.295 Q208.473 424.535 208.473 422.846 Q208.473 420.091 206.528 418.355 Q204.607 416.619 201.505 416.619 Q199.306 416.619 196.852 417.383 Q194.422 418.147 191.644 419.697 L191.644 414.975 Q194.468 413.841 196.922 413.262 Q199.375 412.684 201.412 412.684 Q206.783 412.684 209.977 415.369 Q213.172 418.054 213.172 422.545 Q213.172 424.674 212.361 426.596 Q211.574 428.494 209.468 431.086 Q208.889 431.758 205.787 434.975 Q202.686 438.17 197.037 443.933 Z" fill="#000000" fill-rule="nonzero" fill-opacity="1" /><path clip-path="url(#clip440)" d="M127.246 91.3631 Q124.098 91.3631 122.246 93.5159 Q120.418 95.6687 120.418 99.4186 Q120.418 103.145 122.246 105.321 Q124.098 107.474 127.246 107.474 Q130.394 107.474 132.223 105.321 Q134.075 103.145 134.075 99.4186 Q134.075 95.6687 132.223 93.5159 Q130.394 91.3631 127.246 91.3631 M136.529 76.7104 L136.529 80.9697 Q134.769 80.1363 132.964 79.6965 Q131.181 79.2567 129.422 79.2567 Q124.793 79.2567 122.339 82.3817 Q119.908 85.5067 119.561 91.8261 Q120.927 89.8122 122.987 88.7474 Q125.047 87.6594 127.524 87.6594 Q132.732 87.6594 135.742 90.8307 Q138.774 93.9789 138.774 99.4186 Q138.774 104.743 135.626 107.96 Q132.478 111.178 127.246 111.178 Q121.251 111.178 118.08 106.595 Q114.908 101.988 114.908 93.2613 Q114.908 85.0669 118.797 80.2058 Q122.686 75.3215 129.237 75.3215 Q130.996 75.3215 132.779 75.6688 Q134.584 76.016 136.529 76.7104 Z" fill="#000000" fill-rule="nonzero" fill-opacity="1" /><path clip-path="url(#clip440)" d="M157.408 91.3631 Q154.26 91.3631 152.408 93.5159 Q150.579 95.6687 150.579 99.4186 Q150.579 103.145 152.408 105.321 Q154.26 107.474 157.408 107.474 Q160.556 107.474 162.385 105.321 Q164.237 103.145 164.237 99.4186 Q164.237 95.6687 162.385 93.5159 Q160.556 91.3631 157.408 91.3631 M166.69 76.7104 L166.69 80.9697 Q164.931 80.1363 163.126 79.6965 Q161.343 79.2567 159.584 79.2567 Q154.954 79.2567 152.501 82.3817 Q150.07 85.5067 149.723 91.8261 Q151.089 89.8122 153.149 88.7474 Q155.209 87.6594 157.686 87.6594 Q162.894 87.6594 165.903 90.8307 Q168.936 93.9789 168.936 99.4186 Q168.936 104.743 165.788 107.96 Q162.64 111.178 157.408 111.178 Q151.413 111.178 148.241 106.595 Q145.07 101.988 145.07 93.2613 Q145.07 85.0669 148.959 80.2058 Q152.848 75.3215 159.399 75.3215 Q161.158 75.3215 162.94 75.6688 Q164.746 76.016 166.69 76.7104 Z" fill="#000000" fill-rule="nonzero" fill-opacity="1" /><path clip-path="url(#clip440)" d="M176.991 104.627 L181.876 104.627 L181.876 110.507 L176.991 110.507 L176.991 104.627 Z" fill="#000000" fill-rule="nonzero" fill-opacity="1" /><path clip-path="url(#clip440)" d="M206.227 91.8724 Q209.584 92.59 211.459 94.8585 Q213.357 97.127 213.357 100.46 Q213.357 105.576 209.838 108.377 Q206.32 111.178 199.838 111.178 Q197.662 111.178 195.348 110.738 Q193.056 110.321 190.602 109.465 L190.602 104.951 Q192.547 106.085 194.862 106.664 Q197.176 107.243 199.7 107.243 Q204.098 107.243 206.389 105.507 Q208.704 103.77 208.704 100.46 Q208.704 97.4048 206.551 95.6918 Q204.422 93.9557 200.602 93.9557 L196.575 93.9557 L196.575 90.1131 L200.787 90.1131 Q204.237 90.1131 206.065 88.7474 Q207.894 87.3585 207.894 84.7659 Q207.894 82.1039 205.996 80.6919 Q204.121 79.2567 200.602 79.2567 Q198.681 79.2567 196.482 79.6734 Q194.283 80.09 191.644 80.9697 L191.644 76.803 Q194.306 76.0623 196.621 75.6919 Q198.959 75.3215 201.019 75.3215 Q206.343 75.3215 209.445 77.7521 Q212.547 80.1595 212.547 84.2798 Q212.547 87.1502 210.903 89.1409 Q209.26 91.1085 206.227 91.8724 Z" fill="#000000" fill-rule="nonzero" fill-opacity="1" /><path clip-path="url(#clip440)" d="M22.818 922.094 L46.4666 930.815 L46.4666 913.341 L22.818 922.094 M16.4842 925.723 L16.4842 918.434 L64.0042 900.324 L64.0042 907.008 L51.8138 911.336 L51.8138 932.757 L64.0042 937.085 L64.0042 943.865 L16.4842 925.723 Z" fill="#000000" fill-rule="nonzero" fill-opacity="1" /><path clip-path="url(#clip440)" d="M45.7664 870.182 Q39.4007 870.182 35.8996 872.824 Q32.3984 875.434 32.3984 880.176 Q32.3984 884.887 35.8996 887.528 Q39.4007 890.138 45.7664 890.138 Q52.1003 890.138 55.6014 887.528 Q59.1026 884.887 59.1026 880.176 Q59.1026 875.434 55.6014 872.824 Q52.1003 870.182 45.7664 870.182 M59.58 864.325 Q68.683 864.325 73.1071 868.368 Q77.5631 872.41 77.5631 880.749 Q77.5631 883.836 77.0857 886.574 Q76.6401 889.311 75.6852 891.889 L69.9879 891.889 Q71.3884 889.311 72.0568 886.796 Q72.7252 884.282 72.7252 881.672 Q72.7252 875.911 69.7015 873.046 Q66.7096 870.182 60.6303 870.182 L57.7339 870.182 Q60.885 871.996 62.4446 874.829 Q64.0042 877.662 64.0042 881.608 Q64.0042 888.165 59.0071 892.175 Q54.01 896.186 45.7664 896.186 Q37.491 896.186 32.4939 892.175 Q27.4968 888.165 27.4968 881.608 Q27.4968 877.662 29.0564 874.829 Q30.616 871.996 33.7671 870.182 L28.3562 870.182 L28.3562 864.325 L59.58 864.325 Z" fill="#000000" fill-rule="nonzero" fill-opacity="1" /><path clip-path="url(#clip440)" d="M44.7161 821.771 L47.5806 821.771 L47.5806 848.698 Q53.6281 848.316 56.8109 845.069 Q59.9619 841.791 59.9619 835.966 Q59.9619 832.592 59.1344 829.441 Q58.3069 826.259 56.6518 823.139 L62.1899 823.139 Q63.5267 826.29 64.227 829.601 Q64.9272 832.911 64.9272 836.316 Q64.9272 844.846 59.9619 849.843 Q54.9967 854.809 46.5303 854.809 Q37.7774 854.809 32.6531 850.098 Q27.4968 845.356 27.4968 837.335 Q27.4968 830.142 32.1438 825.972 Q36.7589 821.771 44.7161 821.771 M42.9973 827.627 Q38.1912 827.691 35.3266 830.333 Q32.4621 832.943 32.4621 837.271 Q32.4621 842.173 35.2312 845.133 Q38.0002 848.061 43.0292 848.507 L42.9973 827.627 Z" fill="#000000" fill-rule="nonzero" fill-opacity="1" /><path clip-path="url(#clip440)" d="M14.5426 777.37 Q21.8632 781.635 29.0246 783.704 Q36.186 785.773 43.5384 785.773 Q50.8908 785.773 58.1159 783.704 Q65.3091 781.603 72.5979 777.37 L72.5979 782.462 Q65.1182 787.237 57.8931 789.624 Q50.668 791.979 43.5384 791.979 Q36.4406 791.979 29.2474 789.624 Q22.0542 787.269 14.5426 782.462 L14.5426 777.37 Z" fill="#000000" fill-rule="nonzero" fill-opacity="1" /><path clip-path="url(#clip440)" d="M16.4842 765.752 L16.4842 756.172 L48.8219 744.045 L16.4842 731.855 L16.4842 722.275 L64.0042 722.275 L64.0042 728.545 L22.277 728.545 L54.8694 740.799 L54.8694 747.26 L22.277 759.514 L64.0042 759.514 L64.0042 765.752 L16.4842 765.752 Z" fill="#000000" fill-rule="nonzero" fill-opacity="1" /><path clip-path="url(#clip440)" d="M46.0847 693.565 Q46.0847 700.663 47.7079 703.4 Q49.3312 706.138 53.2461 706.138 Q56.3653 706.138 58.2114 704.101 Q60.0256 702.032 60.0256 698.499 Q60.0256 693.629 56.5881 690.701 Q53.1188 687.741 47.3897 687.741 L46.0847 687.741 L46.0847 693.565 M43.6657 681.884 L64.0042 681.884 L64.0042 687.741 L58.5933 687.741 Q61.8398 689.746 63.3994 692.738 Q64.9272 695.73 64.9272 700.058 Q64.9272 705.533 61.8716 708.779 Q58.7843 711.994 53.6281 711.994 Q47.6125 711.994 44.5569 707.984 Q41.5014 703.941 41.5014 695.953 L41.5014 687.741 L40.9285 687.741 Q36.8862 687.741 34.6901 690.414 Q32.4621 693.056 32.4621 697.862 Q32.4621 700.918 33.1941 703.814 Q33.9262 706.711 35.3903 709.384 L29.9795 709.384 Q28.7381 706.169 28.1334 703.146 Q27.4968 700.122 27.4968 697.257 Q27.4968 689.523 31.5072 685.704 Q35.5176 681.884 43.6657 681.884 Z" fill="#000000" fill-rule="nonzero" fill-opacity="1" /><path clip-path="url(#clip440)" d="M14.5426 670.744 L14.5426 665.652 Q22.0542 660.877 29.2474 658.522 Q36.4406 656.135 43.5384 656.135 Q50.668 656.135 57.8931 658.522 Q65.1182 660.877 72.5979 665.652 L72.5979 670.744 Q65.3091 666.511 58.1159 664.442 Q50.8908 662.342 43.5384 662.342 Q36.186 662.342 29.0246 664.442 Q21.8632 666.511 14.5426 670.744 Z" fill="#000000" fill-rule="nonzero" fill-opacity="1" /><polyline clip-path="url(#clip442)" style="stroke:#009af9; stroke-linecap:round; stroke-linejoin:round; stroke-width:4; stroke-opacity:1; fill:none" points="308.887,1446.05 308.887,798.313 "/>
<polyline clip-path="url(#clip442)" style="stroke:#009af9; stroke-linecap:round; stroke-linejoin:round; stroke-width:4; stroke-opacity:1; fill:none" points="592.364,1341.47 592.364,842.17 "/>
<polyline clip-path="url(#clip442)" style="stroke:#009af9; stroke-linecap:round; stroke-linejoin:round; stroke-width:4; stroke-opacity:1; fill:none" points="875.841,1209.89 875.841,771.324 "/>
<polyline clip-path="url(#clip442)" style="stroke:#009af9; stroke-linecap:round; stroke-linejoin:round; stroke-width:4; stroke-opacity:1; fill:none" points="1159.32,1267.25 1159.32,686.984 "/>
<polyline clip-path="url(#clip442)" style="stroke:#009af9; stroke-linecap:round; stroke-linejoin:round; stroke-width:4; stroke-opacity:1; fill:none" points="1442.79,1510.15 1442.79,430.589 "/>
<polyline clip-path="url(#clip442)" style="stroke:#009af9; stroke-linecap:round; stroke-linejoin:round; stroke-width:4; stroke-opacity:1; fill:none" points="1726.27,1004.1 1726.27,369.863 "/>
<polyline clip-path="url(#clip442)" style="stroke:#009af9; stroke-linecap:round; stroke-linejoin:round; stroke-width:4; stroke-opacity:1; fill:none" points="2009.75,670.116 2009.75,89.8529 "/>
<polyline clip-path="url(#clip442)" style="stroke:#009af9; stroke-linecap:round; stroke-linejoin:round; stroke-width:4; stroke-opacity:1; fill:none" points="2293.23,572.281 2293.23,174.193 "/>
<line clip-path="url(#clip442)" x1="324.887" y1="1446.05" x2="292.887" y2="1446.05" style="stroke:#009af9; stroke-width:4; stroke-opacity:1"/>
<line clip-path="url(#clip442)" x1="324.887" y1="798.313" x2="292.887" y2="798.313" style="stroke:#009af9; stroke-width:4; stroke-opacity:1"/>
<line clip-path="url(#clip442)" x1="608.364" y1="1341.47" x2="576.364" y2="1341.47" style="stroke:#009af9; stroke-width:4; stroke-opacity:1"/>
<line clip-path="url(#clip442)" x1="608.364" y1="842.17" x2="576.364" y2="842.17" style="stroke:#009af9; stroke-width:4; stroke-opacity:1"/>
<line clip-path="url(#clip442)" x1="891.841" y1="1209.89" x2="859.841" y2="1209.89" style="stroke:#009af9; stroke-width:4; stroke-opacity:1"/>
<line clip-path="url(#clip442)" x1="891.841" y1="771.324" x2="859.841" y2="771.324" style="stroke:#009af9; stroke-width:4; stroke-opacity:1"/>
<line clip-path="url(#clip442)" x1="1175.32" y1="1267.25" x2="1143.32" y2="1267.25" style="stroke:#009af9; stroke-width:4; stroke-opacity:1"/>
<line clip-path="url(#clip442)" x1="1175.32" y1="686.984" x2="1143.32" y2="686.984" style="stroke:#009af9; stroke-width:4; stroke-opacity:1"/>
<line clip-path="url(#clip442)" x1="1458.79" y1="1510.15" x2="1426.79" y2="1510.15" style="stroke:#009af9; stroke-width:4; stroke-opacity:1"/>
<line clip-path="url(#clip442)" x1="1458.79" y1="430.589" x2="1426.79" y2="430.589" style="stroke:#009af9; stroke-width:4; stroke-opacity:1"/>
<line clip-path="url(#clip442)" x1="1742.27" y1="1004.1" x2="1710.27" y2="1004.1" style="stroke:#009af9; stroke-width:4; stroke-opacity:1"/>
<line clip-path="url(#clip442)" x1="1742.27" y1="369.863" x2="1710.27" y2="369.863" style="stroke:#009af9; stroke-width:4; stroke-opacity:1"/>
<line clip-path="url(#clip442)" x1="2025.75" y1="670.116" x2="1993.75" y2="670.116" style="stroke:#009af9; stroke-width:4; stroke-opacity:1"/>
<line clip-path="url(#clip442)" x1="2025.75" y1="89.8529" x2="1993.75" y2="89.8529" style="stroke:#009af9; stroke-width:4; stroke-opacity:1"/>
<line clip-path="url(#clip442)" x1="2309.23" y1="572.281" x2="2277.23" y2="572.281" style="stroke:#009af9; stroke-width:4; stroke-opacity:1"/>
<line clip-path="url(#clip442)" x1="2309.23" y1="174.193" x2="2277.23" y2="174.193" style="stroke:#009af9; stroke-width:4; stroke-opacity:1"/>
<circle clip-path="url(#clip442)" cx="308.887" cy="1122.18" r="14.4" fill="#009af9" fill-rule="evenodd" fill-opacity="1" stroke="none"/>
<circle clip-path="url(#clip442)" cx="592.364" cy="1091.82" r="14.4" fill="#009af9" fill-rule="evenodd" fill-opacity="1" stroke="none"/>
<circle clip-path="url(#clip442)" cx="875.841" cy="990.61" r="14.4" fill="#009af9" fill-rule="evenodd" fill-opacity="1" stroke="none"/>
<circle clip-path="url(#clip442)" cx="1159.32" cy="977.115" r="14.4" fill="#009af9" fill-rule="evenodd" fill-opacity="1" stroke="none"/>
<circle clip-path="url(#clip442)" cx="1442.79" cy="970.368" r="14.4" fill="#009af9" fill-rule="evenodd" fill-opacity="1" stroke="none"/>
<circle clip-path="url(#clip442)" cx="1726.27" cy="686.984" r="14.4" fill="#009af9" fill-rule="evenodd" fill-opacity="1" stroke="none"/>
<circle clip-path="url(#clip442)" cx="2009.75" cy="379.984" r="14.4" fill="#009af9" fill-rule="evenodd" fill-opacity="1" stroke="none"/>
<circle clip-path="url(#clip442)" cx="2293.23" cy="373.237" r="14.4" fill="#009af9" fill-rule="evenodd" fill-opacity="1" stroke="none"/>
<path clip-path="url(#clip442)" d="M308.887 1236.69 L592.364 1236.69 L875.841 1236.69 L1159.32 1236.69 L1442.79 1236.69 L1726.27 1236.69 L2009.75 1236.69 L2293.23 1236.69 L2293.23 908.699 L2009.75 908.699 L1726.27 908.699 L1442.79 908.699 L1159.32 908.699 L875.841 908.699 L592.364 908.699 L308.887 908.699  Z" fill="#e26f46" fill-rule="evenodd" fill-opacity="0.6"/>
<polyline clip-path="url(#clip442)" style="stroke:#e26f46; stroke-linecap:round; stroke-linejoin:round; stroke-width:4; stroke-opacity:0; fill:none" points="308.887,1236.69 592.364,1236.69 875.841,1236.69 1159.32,1236.69 1442.79,1236.69 1726.27,1236.69 2009.75,1236.69 2293.23,1236.69 "/>
<polyline clip-path="url(#clip442)" style="stroke:#000000; stroke-linecap:round; stroke-linejoin:round; stroke-width:4; stroke-opacity:1; fill:none" stroke-dasharray="2, 4" points="308.887,1051.05 592.364,1051.05 875.841,1051.05 1159.32,1051.05 1442.79,1051.05 1726.27,1051.05 2009.75,1051.05 2293.23,1051.05 "/>
<path clip-path="url(#clip440)" d="M319.47 252.948 L1325.69 252.948 L1325.69 97.4278 L319.47 97.4278  Z" fill="#ffffff" fill-rule="evenodd" fill-opacity="1"/>
<polyline clip-path="url(#clip440)" style="stroke:#ffffff; stroke-linecap:round; stroke-linejoin:round; stroke-width:4; stroke-opacity:1; fill:none" points="319.47,252.948 1325.69,252.948 1325.69,97.4278 319.47,97.4278 319.47,252.948 "/>
<circle clip-path="url(#clip440)" cx="412.955" cy="149.268" r="20.48" fill="#009af9" fill-rule="evenodd" fill-opacity="1" stroke="none"/>
<path clip-path="url(#clip440)" d="M511.115 135.83 L511.115 162.705 L516.763 162.705 Q523.916 162.705 527.226 159.465 Q530.559 156.224 530.559 149.233 Q530.559 142.289 527.226 139.071 Q523.916 135.83 516.763 135.83 L511.115 135.83 M506.439 131.988 L516.045 131.988 Q526.092 131.988 530.791 136.178 Q535.49 140.344 535.49 149.233 Q535.49 158.168 530.768 162.358 Q526.045 166.548 516.045 166.548 L506.439 166.548 L506.439 131.988 Z" fill="#000000" fill-rule="nonzero" fill-opacity="1" /><path clip-path="url(#clip440)" d="M554.541 153.515 Q549.379 153.515 547.388 154.696 Q545.397 155.877 545.397 158.724 Q545.397 160.992 546.879 162.335 Q548.383 163.654 550.953 163.654 Q554.494 163.654 556.624 161.154 Q558.777 158.631 558.777 154.465 L558.777 153.515 L554.541 153.515 M563.036 151.756 L563.036 166.548 L558.777 166.548 L558.777 162.613 Q557.318 164.974 555.142 166.108 Q552.966 167.219 549.818 167.219 Q545.837 167.219 543.476 164.997 Q541.138 162.752 541.138 159.002 Q541.138 154.627 544.054 152.404 Q546.994 150.182 552.804 150.182 L558.777 150.182 L558.777 149.766 Q558.777 146.826 556.832 145.228 Q554.911 143.608 551.416 143.608 Q549.193 143.608 547.087 144.141 Q544.98 144.673 543.036 145.738 L543.036 141.803 Q545.374 140.9 547.573 140.46 Q549.772 139.997 551.855 139.997 Q557.48 139.997 560.258 142.914 Q563.036 145.83 563.036 151.756 Z" fill="#000000" fill-rule="nonzero" fill-opacity="1" /><path clip-path="url(#clip440)" d="M576.022 133.261 L576.022 140.622 L584.795 140.622 L584.795 143.932 L576.022 143.932 L576.022 158.006 Q576.022 161.177 576.878 162.08 Q577.758 162.983 580.42 162.983 L584.795 162.983 L584.795 166.548 L580.42 166.548 Q575.49 166.548 573.615 164.719 Q571.74 162.867 571.74 158.006 L571.74 143.932 L568.615 143.932 L568.615 140.622 L571.74 140.622 L571.74 133.261 L576.022 133.261 Z" fill="#000000" fill-rule="nonzero" fill-opacity="1" /><path clip-path="url(#clip440)" d="M602.179 153.515 Q597.017 153.515 595.026 154.696 Q593.036 155.877 593.036 158.724 Q593.036 160.992 594.517 162.335 Q596.022 163.654 598.591 163.654 Q602.133 163.654 604.263 161.154 Q606.415 158.631 606.415 154.465 L606.415 153.515 L602.179 153.515 M610.675 151.756 L610.675 166.548 L606.415 166.548 L606.415 162.613 Q604.957 164.974 602.781 166.108 Q600.605 167.219 597.457 167.219 Q593.476 167.219 591.114 164.997 Q588.776 162.752 588.776 159.002 Q588.776 154.627 591.693 152.404 Q594.633 150.182 600.443 150.182 L606.415 150.182 L606.415 149.766 Q606.415 146.826 604.471 145.228 Q602.55 143.608 599.054 143.608 Q596.832 143.608 594.726 144.141 Q592.619 144.673 590.675 145.738 L590.675 141.803 Q593.013 140.9 595.212 140.46 Q597.411 139.997 599.494 139.997 Q605.119 139.997 607.897 142.914 Q610.675 145.83 610.675 151.756 Z" fill="#000000" fill-rule="nonzero" fill-opacity="1" /><path clip-path="url(#clip440)" d="M644.748 130.576 Q641.647 135.9 640.142 141.108 Q638.637 146.316 638.637 151.664 Q638.637 157.011 640.142 162.265 Q641.67 167.497 644.748 172.798 L641.045 172.798 Q637.573 167.358 635.836 162.103 Q634.123 156.849 634.123 151.664 Q634.123 146.502 635.836 141.27 Q637.549 136.039 641.045 130.576 L644.748 130.576 Z" fill="#000000" fill-rule="nonzero" fill-opacity="1" /><path clip-path="url(#clip440)" d="M663.058 143.608 Q659.633 143.608 657.642 146.293 Q655.651 148.955 655.651 153.608 Q655.651 158.261 657.619 160.946 Q659.609 163.608 663.058 163.608 Q666.461 163.608 668.452 160.923 Q670.443 158.238 670.443 153.608 Q670.443 149.002 668.452 146.316 Q666.461 143.608 663.058 143.608 M663.058 139.997 Q668.614 139.997 671.785 143.608 Q674.957 147.219 674.957 153.608 Q674.957 159.974 671.785 163.608 Q668.614 167.219 663.058 167.219 Q657.48 167.219 654.309 163.608 Q651.16 159.974 651.16 153.608 Q651.16 147.219 654.309 143.608 Q657.48 139.997 663.058 139.997 Z" fill="#000000" fill-rule="nonzero" fill-opacity="1" /><path clip-path="url(#clip440)" d="M700.628 153.608 Q700.628 148.909 698.683 146.247 Q696.762 143.562 693.382 143.562 Q690.003 143.562 688.058 146.247 Q686.137 148.909 686.137 153.608 Q686.137 158.307 688.058 160.992 Q690.003 163.654 693.382 163.654 Q696.762 163.654 698.683 160.992 Q700.628 158.307 700.628 153.608 M686.137 144.557 Q687.48 142.242 689.517 141.131 Q691.577 139.997 694.424 139.997 Q699.146 139.997 702.086 143.747 Q705.049 147.497 705.049 153.608 Q705.049 159.719 702.086 163.469 Q699.146 167.219 694.424 167.219 Q691.577 167.219 689.517 166.108 Q687.48 164.974 686.137 162.659 L686.137 166.548 L681.855 166.548 L681.855 130.529 L686.137 130.529 L686.137 144.557 Z" fill="#000000" fill-rule="nonzero" fill-opacity="1" /><path clip-path="url(#clip440)" d="M728.637 141.386 L728.637 145.414 Q726.831 144.488 724.887 144.025 Q722.942 143.562 720.859 143.562 Q717.688 143.562 716.091 144.534 Q714.517 145.506 714.517 147.451 Q714.517 148.932 715.651 149.789 Q716.785 150.622 720.211 151.386 L721.669 151.71 Q726.206 152.682 728.104 154.465 Q730.026 156.224 730.026 159.395 Q730.026 163.006 727.155 165.113 Q724.308 167.219 719.308 167.219 Q717.225 167.219 714.956 166.802 Q712.711 166.409 710.211 165.599 L710.211 161.201 Q712.572 162.427 714.864 163.052 Q717.155 163.654 719.401 163.654 Q722.41 163.654 724.03 162.636 Q725.651 161.594 725.651 159.719 Q725.651 157.983 724.47 157.057 Q723.313 156.131 719.354 155.275 L717.873 154.928 Q713.915 154.094 712.155 152.381 Q710.396 150.645 710.396 147.636 Q710.396 143.978 712.989 141.988 Q715.581 139.997 720.35 139.997 Q722.711 139.997 724.794 140.344 Q726.878 140.691 728.637 141.386 Z" fill="#000000" fill-rule="nonzero" fill-opacity="1" /><path clip-path="url(#clip440)" d="M758.984 152.52 L758.984 154.603 L739.401 154.603 Q739.678 159.002 742.04 161.316 Q744.424 163.608 748.66 163.608 Q751.114 163.608 753.405 163.006 Q755.72 162.404 757.989 161.201 L757.989 165.228 Q755.697 166.201 753.289 166.71 Q750.882 167.219 748.405 167.219 Q742.202 167.219 738.567 163.608 Q734.956 159.997 734.956 153.84 Q734.956 147.474 738.382 143.747 Q741.831 139.997 747.665 139.997 Q752.896 139.997 755.928 143.377 Q758.984 146.733 758.984 152.52 M754.725 151.27 Q754.678 147.775 752.757 145.691 Q750.859 143.608 747.711 143.608 Q744.146 143.608 741.993 145.622 Q739.864 147.636 739.54 151.293 L754.725 151.27 Z" fill="#000000" fill-rule="nonzero" fill-opacity="1" /><path clip-path="url(#clip440)" d="M780.998 144.603 Q780.28 144.187 779.424 144.002 Q778.59 143.793 777.572 143.793 Q773.961 143.793 772.016 146.154 Q770.095 148.492 770.095 152.89 L770.095 166.548 L765.813 166.548 L765.813 140.622 L770.095 140.622 L770.095 144.65 Q771.438 142.289 773.59 141.154 Q775.743 139.997 778.822 139.997 Q779.262 139.997 779.794 140.066 Q780.326 140.113 780.975 140.229 L780.998 144.603 Z" fill="#000000" fill-rule="nonzero" fill-opacity="1" /><path clip-path="url(#clip440)" d="M782.41 140.622 L786.924 140.622 L795.025 162.381 L803.127 140.622 L807.641 140.622 L797.919 166.548 L792.132 166.548 L782.41 140.622 Z" fill="#000000" fill-rule="nonzero" fill-opacity="1" /><path clip-path="url(#clip440)" d="M835.696 152.52 L835.696 154.603 L816.113 154.603 Q816.391 159.002 818.752 161.316 Q821.136 163.608 825.372 163.608 Q827.826 163.608 830.118 163.006 Q832.433 162.404 834.701 161.201 L834.701 165.228 Q832.409 166.201 830.002 166.71 Q827.595 167.219 825.118 167.219 Q818.914 167.219 815.28 163.608 Q811.669 159.997 811.669 153.84 Q811.669 147.474 815.095 143.747 Q818.544 139.997 824.377 139.997 Q829.609 139.997 832.641 143.377 Q835.696 146.733 835.696 152.52 M831.437 151.27 Q831.391 147.775 829.47 145.691 Q827.571 143.608 824.423 143.608 Q820.859 143.608 818.706 145.622 Q816.576 147.636 816.252 151.293 L831.437 151.27 Z" fill="#000000" fill-rule="nonzero" fill-opacity="1" /><path clip-path="url(#clip440)" d="M859.747 144.557 L859.747 130.529 L864.006 130.529 L864.006 166.548 L859.747 166.548 L859.747 162.659 Q858.405 164.974 856.344 166.108 Q854.307 167.219 851.437 167.219 Q846.738 167.219 843.775 163.469 Q840.835 159.719 840.835 153.608 Q840.835 147.497 843.775 143.747 Q846.738 139.997 851.437 139.997 Q854.307 139.997 856.344 141.131 Q858.405 142.242 859.747 144.557 M845.233 153.608 Q845.233 158.307 847.155 160.992 Q849.099 163.654 852.479 163.654 Q855.858 163.654 857.803 160.992 Q859.747 158.307 859.747 153.608 Q859.747 148.909 857.803 146.247 Q855.858 143.562 852.479 143.562 Q849.099 143.562 847.155 146.247 Q845.233 148.909 845.233 153.608 Z" fill="#000000" fill-rule="nonzero" fill-opacity="1" /><path clip-path="url(#clip440)" d="M899.631 153.515 Q894.469 153.515 892.479 154.696 Q890.488 155.877 890.488 158.724 Q890.488 160.992 891.969 162.335 Q893.474 163.654 896.043 163.654 Q899.585 163.654 901.715 161.154 Q903.867 158.631 903.867 154.465 L903.867 153.515 L899.631 153.515 M908.127 151.756 L908.127 166.548 L903.867 166.548 L903.867 162.613 Q902.409 164.974 900.233 166.108 Q898.057 167.219 894.909 167.219 Q890.928 167.219 888.567 164.997 Q886.229 162.752 886.229 159.002 Q886.229 154.627 889.145 152.404 Q892.085 150.182 897.895 150.182 L903.867 150.182 L903.867 149.766 Q903.867 146.826 901.923 145.228 Q900.002 143.608 896.506 143.608 Q894.284 143.608 892.178 144.141 Q890.071 144.673 888.127 145.738 L888.127 141.803 Q890.465 140.9 892.664 140.46 Q894.863 139.997 896.946 139.997 Q902.571 139.997 905.349 142.914 Q908.127 145.83 908.127 151.756 Z" fill="#000000" fill-rule="nonzero" fill-opacity="1" /><path clip-path="url(#clip440)" d="M933.96 153.284 Q933.96 148.654 932.039 146.108 Q930.14 143.562 926.691 143.562 Q923.265 143.562 921.344 146.108 Q919.446 148.654 919.446 153.284 Q919.446 157.89 921.344 160.437 Q923.265 162.983 926.691 162.983 Q930.14 162.983 932.039 160.437 Q933.96 157.89 933.96 153.284 M938.219 163.33 Q938.219 169.951 935.279 173.168 Q932.339 176.409 926.275 176.409 Q924.029 176.409 922.039 176.062 Q920.048 175.738 918.173 175.043 L918.173 170.9 Q920.048 171.918 921.877 172.404 Q923.705 172.89 925.603 172.89 Q929.793 172.89 931.876 170.691 Q933.96 168.515 933.96 164.094 L933.96 161.988 Q932.64 164.279 930.58 165.414 Q928.52 166.548 925.65 166.548 Q920.881 166.548 917.965 162.914 Q915.048 159.279 915.048 153.284 Q915.048 147.266 917.965 143.631 Q920.881 139.997 925.65 139.997 Q928.52 139.997 930.58 141.131 Q932.64 142.266 933.96 144.557 L933.96 140.622 L938.219 140.622 L938.219 163.33 Z" fill="#000000" fill-rule="nonzero" fill-opacity="1" /><path clip-path="url(#clip440)" d="M969.168 152.52 L969.168 154.603 L949.585 154.603 Q949.863 159.002 952.224 161.316 Q954.608 163.608 958.844 163.608 Q961.298 163.608 963.589 163.006 Q965.904 162.404 968.173 161.201 L968.173 165.228 Q965.881 166.201 963.474 166.71 Q961.066 167.219 958.589 167.219 Q952.386 167.219 948.751 163.608 Q945.14 159.997 945.14 153.84 Q945.14 147.474 948.566 143.747 Q952.015 139.997 957.849 139.997 Q963.08 139.997 966.112 143.377 Q969.168 146.733 969.168 152.52 M964.909 151.27 Q964.862 147.775 962.941 145.691 Q961.043 143.608 957.895 143.608 Q954.33 143.608 952.177 145.622 Q950.048 147.636 949.724 151.293 L964.909 151.27 Z" fill="#000000" fill-rule="nonzero" fill-opacity="1" /><path clip-path="url(#clip440)" d="M992.686 141.386 L992.686 145.414 Q990.881 144.488 988.936 144.025 Q986.992 143.562 984.909 143.562 Q981.737 143.562 980.14 144.534 Q978.566 145.506 978.566 147.451 Q978.566 148.932 979.7 149.789 Q980.835 150.622 984.26 151.386 L985.719 151.71 Q990.256 152.682 992.154 154.465 Q994.075 156.224 994.075 159.395 Q994.075 163.006 991.205 165.113 Q988.358 167.219 983.358 167.219 Q981.274 167.219 979.006 166.802 Q976.761 166.409 974.261 165.599 L974.261 161.201 Q976.622 162.427 978.913 163.052 Q981.205 163.654 983.45 163.654 Q986.46 163.654 988.08 162.636 Q989.7 161.594 989.7 159.719 Q989.7 157.983 988.52 157.057 Q987.362 156.131 983.404 155.275 L981.923 154.928 Q977.964 154.094 976.205 152.381 Q974.446 150.645 974.446 147.636 Q974.446 143.978 977.038 141.988 Q979.631 139.997 984.399 139.997 Q986.76 139.997 988.844 140.344 Q990.927 140.691 992.686 141.386 Z" fill="#000000" fill-rule="nonzero" fill-opacity="1" /><path clip-path="url(#clip440)" d="M1000.19 130.576 L1003.89 130.576 Q1007.36 136.039 1009.08 141.27 Q1010.81 146.502 1010.81 151.664 Q1010.81 156.849 1009.08 162.103 Q1007.36 167.358 1003.89 172.798 L1000.19 172.798 Q1003.26 167.497 1004.77 162.265 Q1006.3 157.011 1006.3 151.664 Q1006.3 146.316 1004.77 141.108 Q1003.26 135.9 1000.19 130.576 Z" fill="#000000" fill-rule="nonzero" fill-opacity="1" /><path clip-path="url(#clip440)" d="M342.841 221.844 L483.068 221.844 L483.068 180.372 L342.841 180.372 L342.841 221.844  Z" fill="#e26f46" fill-rule="evenodd" fill-opacity="0.6"/>
<polyline clip-path="url(#clip440)" style="stroke:#e26f46; stroke-linecap:round; stroke-linejoin:round; stroke-width:4; stroke-opacity:0; fill:none" points="342.841,180.372 483.068,180.372 "/>
<path clip-path="url(#clip440)" d="M506.439 183.828 L513.407 183.828 L522.226 207.346 L531.092 183.828 L538.059 183.828 L538.059 218.388 L533.499 218.388 L533.499 188.041 L524.587 211.744 L519.888 211.744 L510.976 188.041 L510.976 218.388 L506.439 218.388 L506.439 183.828 Z" fill="#000000" fill-rule="nonzero" fill-opacity="1" /><path clip-path="url(#clip440)" d="M557.203 195.448 Q553.777 195.448 551.786 198.133 Q549.795 200.795 549.795 205.448 Q549.795 210.101 551.763 212.786 Q553.754 215.448 557.203 215.448 Q560.605 215.448 562.596 212.763 Q564.587 210.078 564.587 205.448 Q564.587 200.842 562.596 198.156 Q560.605 195.448 557.203 195.448 M557.203 191.837 Q562.758 191.837 565.929 195.448 Q569.101 199.059 569.101 205.448 Q569.101 211.814 565.929 215.448 Q562.758 219.059 557.203 219.059 Q551.624 219.059 548.453 215.448 Q545.304 211.814 545.304 205.448 Q545.304 199.059 548.453 195.448 Q551.624 191.837 557.203 191.837 Z" fill="#000000" fill-rule="nonzero" fill-opacity="1" /><path clip-path="url(#clip440)" d="M593.221 196.397 L593.221 182.369 L597.48 182.369 L597.48 218.388 L593.221 218.388 L593.221 214.499 Q591.878 216.814 589.818 217.948 Q587.781 219.059 584.911 219.059 Q580.212 219.059 577.249 215.309 Q574.309 211.559 574.309 205.448 Q574.309 199.337 577.249 195.587 Q580.212 191.837 584.911 191.837 Q587.781 191.837 589.818 192.971 Q591.878 194.082 593.221 196.397 M578.707 205.448 Q578.707 210.147 580.628 212.832 Q582.573 215.494 585.952 215.494 Q589.332 215.494 591.276 212.832 Q593.221 210.147 593.221 205.448 Q593.221 200.749 591.276 198.087 Q589.332 195.402 585.952 195.402 Q582.573 195.402 580.628 198.087 Q578.707 200.749 578.707 205.448 Z" fill="#000000" fill-rule="nonzero" fill-opacity="1" /><path clip-path="url(#clip440)" d="M628.429 204.36 L628.429 206.443 L608.846 206.443 Q609.124 210.842 611.485 213.156 Q613.869 215.448 618.105 215.448 Q620.559 215.448 622.85 214.846 Q625.165 214.244 627.434 213.041 L627.434 217.068 Q625.142 218.041 622.735 218.55 Q620.327 219.059 617.85 219.059 Q611.647 219.059 608.012 215.448 Q604.401 211.837 604.401 205.68 Q604.401 199.314 607.827 195.587 Q611.276 191.837 617.11 191.837 Q622.341 191.837 625.374 195.217 Q628.429 198.573 628.429 204.36 M624.17 203.11 Q624.124 199.615 622.202 197.531 Q620.304 195.448 617.156 195.448 Q613.591 195.448 611.438 197.462 Q609.309 199.476 608.985 203.133 L624.17 203.11 Z" fill="#000000" fill-rule="nonzero" fill-opacity="1" /><path clip-path="url(#clip440)" d="M635.42 182.369 L639.679 182.369 L639.679 218.388 L635.42 218.388 L635.42 182.369 Z" fill="#000000" fill-rule="nonzero" fill-opacity="1" /><path clip-path="url(#clip440)" d="M673.892 182.416 Q670.79 187.74 669.285 192.948 Q667.781 198.156 667.781 203.504 Q667.781 208.851 669.285 214.105 Q670.813 219.337 673.892 224.638 L670.188 224.638 Q666.716 219.198 664.98 213.943 Q663.267 208.689 663.267 203.504 Q663.267 198.342 664.98 193.11 Q666.693 187.879 670.188 182.416 L673.892 182.416 Z" fill="#000000" fill-rule="nonzero" fill-opacity="1" /><path clip-path="url(#clip440)" d="M693.336 199.244 Q690.188 199.244 688.336 201.397 Q686.507 203.55 686.507 207.3 Q686.507 211.027 688.336 213.203 Q690.188 215.355 693.336 215.355 Q696.484 215.355 698.313 213.203 Q700.165 211.027 700.165 207.3 Q700.165 203.55 698.313 201.397 Q696.484 199.244 693.336 199.244 M702.618 184.592 L702.618 188.851 Q700.859 188.018 699.054 187.578 Q697.271 187.138 695.512 187.138 Q690.882 187.138 688.429 190.263 Q685.998 193.388 685.651 199.707 Q687.017 197.693 689.077 196.629 Q691.137 195.541 693.614 195.541 Q698.822 195.541 701.831 198.712 Q704.864 201.86 704.864 207.3 Q704.864 212.624 701.716 215.842 Q698.568 219.059 693.336 219.059 Q687.341 219.059 684.169 214.476 Q680.998 209.869 680.998 201.143 Q680.998 192.948 684.887 188.087 Q688.776 183.203 695.327 183.203 Q697.086 183.203 698.868 183.55 Q700.674 183.897 702.618 184.592 Z" fill="#000000" fill-rule="nonzero" fill-opacity="1" /><path clip-path="url(#clip440)" d="M723.498 199.244 Q720.35 199.244 718.498 201.397 Q716.669 203.55 716.669 207.3 Q716.669 211.027 718.498 213.203 Q720.35 215.355 723.498 215.355 Q726.646 215.355 728.475 213.203 Q730.327 211.027 730.327 207.3 Q730.327 203.55 728.475 201.397 Q726.646 199.244 723.498 199.244 M732.78 184.592 L732.78 188.851 Q731.021 188.018 729.216 187.578 Q727.433 187.138 725.674 187.138 Q721.044 187.138 718.591 190.263 Q716.16 193.388 715.813 199.707 Q717.179 197.693 719.239 196.629 Q721.299 195.541 723.776 195.541 Q728.984 195.541 731.993 198.712 Q735.026 201.86 735.026 207.3 Q735.026 212.624 731.878 215.842 Q728.729 219.059 723.498 219.059 Q717.503 219.059 714.331 214.476 Q711.16 209.869 711.16 201.143 Q711.16 192.948 715.049 188.087 Q718.938 183.203 725.489 183.203 Q727.248 183.203 729.03 183.55 Q730.836 183.897 732.78 184.592 Z" fill="#000000" fill-rule="nonzero" fill-opacity="1" /><path clip-path="url(#clip440)" d="M743.081 212.508 L747.965 212.508 L747.965 218.388 L743.081 218.388 L743.081 212.508 Z" fill="#000000" fill-rule="nonzero" fill-opacity="1" /><path clip-path="url(#clip440)" d="M768.151 186.907 Q764.539 186.907 762.711 190.471 Q760.905 194.013 760.905 201.143 Q760.905 208.249 762.711 211.814 Q764.539 215.355 768.151 215.355 Q771.785 215.355 773.59 211.814 Q775.419 208.249 775.419 201.143 Q775.419 194.013 773.59 190.471 Q771.785 186.907 768.151 186.907 M768.151 183.203 Q773.961 183.203 777.016 187.809 Q780.095 192.393 780.095 201.143 Q780.095 209.869 777.016 214.476 Q773.961 219.059 768.151 219.059 Q762.34 219.059 759.262 214.476 Q756.206 209.869 756.206 201.143 Q756.206 192.393 759.262 187.809 Q762.34 183.203 768.151 183.203 Z" fill="#000000" fill-rule="nonzero" fill-opacity="1" /><path clip-path="url(#clip440)" d="M789.123 214.453 L796.761 214.453 L796.761 188.087 L788.451 189.754 L788.451 185.494 L796.715 183.828 L801.391 183.828 L801.391 214.453 L809.03 214.453 L809.03 218.388 L789.123 218.388 L789.123 214.453 Z" fill="#000000" fill-rule="nonzero" fill-opacity="1" /><path clip-path="url(#clip440)" d="M829.053 199.244 Q825.905 199.244 824.053 201.397 Q822.224 203.55 822.224 207.3 Q822.224 211.027 824.053 213.203 Q825.905 215.355 829.053 215.355 Q832.201 215.355 834.03 213.203 Q835.882 211.027 835.882 207.3 Q835.882 203.55 834.03 201.397 Q832.201 199.244 829.053 199.244 M838.335 184.592 L838.335 188.851 Q836.576 188.018 834.771 187.578 Q832.988 187.138 831.229 187.138 Q826.599 187.138 824.146 190.263 Q821.715 193.388 821.368 199.707 Q822.734 197.693 824.794 196.629 Q826.854 195.541 829.331 195.541 Q834.539 195.541 837.548 198.712 Q840.581 201.86 840.581 207.3 Q840.581 212.624 837.433 215.842 Q834.284 219.059 829.053 219.059 Q823.058 219.059 819.886 214.476 Q816.715 209.869 816.715 201.143 Q816.715 192.948 820.604 188.087 Q824.493 183.203 831.044 183.203 Q832.803 183.203 834.585 183.55 Q836.391 183.897 838.335 184.592 Z" fill="#000000" fill-rule="nonzero" fill-opacity="1" /><path clip-path="url(#clip440)" d="M880.442 188.666 L880.442 201.559 L893.335 201.559 L893.335 205.494 L880.442 205.494 L880.442 218.388 L876.553 218.388 L876.553 205.494 L863.659 205.494 L863.659 201.559 L876.553 201.559 L876.553 188.666 L880.442 188.666 Z" fill="#000000" fill-rule="nonzero" fill-opacity="1" /><path clip-path="url(#clip440)" d="M913.428 186.907 Q909.816 186.907 907.988 190.471 Q906.182 194.013 906.182 201.143 Q906.182 208.249 907.988 211.814 Q909.816 215.355 913.428 215.355 Q917.062 215.355 918.867 211.814 Q920.696 208.249 920.696 201.143 Q920.696 194.013 918.867 190.471 Q917.062 186.907 913.428 186.907 M913.428 183.203 Q919.238 183.203 922.293 187.809 Q925.372 192.393 925.372 201.143 Q925.372 209.869 922.293 214.476 Q919.238 219.059 913.428 219.059 Q907.617 219.059 904.539 214.476 Q901.483 209.869 901.483 201.143 Q901.483 192.393 904.539 187.809 Q907.617 183.203 913.428 183.203 Z" fill="#000000" fill-rule="nonzero" fill-opacity="1" /><path clip-path="url(#clip440)" d="M933.589 212.508 L938.474 212.508 L938.474 218.388 L933.589 218.388 L933.589 212.508 Z" fill="#000000" fill-rule="nonzero" fill-opacity="1" /><path clip-path="url(#clip440)" d="M958.659 186.907 Q955.048 186.907 953.219 190.471 Q951.413 194.013 951.413 201.143 Q951.413 208.249 953.219 211.814 Q955.048 215.355 958.659 215.355 Q962.293 215.355 964.099 211.814 Q965.927 208.249 965.927 201.143 Q965.927 194.013 964.099 190.471 Q962.293 186.907 958.659 186.907 M958.659 183.203 Q964.469 183.203 967.524 187.809 Q970.603 192.393 970.603 201.143 Q970.603 209.869 967.524 214.476 Q964.469 219.059 958.659 219.059 Q952.849 219.059 949.77 214.476 Q946.714 209.869 946.714 201.143 Q946.714 192.393 949.77 187.809 Q952.849 183.203 958.659 183.203 Z" fill="#000000" fill-rule="nonzero" fill-opacity="1" /><path clip-path="url(#clip440)" d="M991.668 187.902 L979.862 206.351 L991.668 206.351 L991.668 187.902 M990.441 183.828 L996.321 183.828 L996.321 206.351 L1001.25 206.351 L1001.25 210.24 L996.321 210.24 L996.321 218.388 L991.668 218.388 L991.668 210.24 L976.066 210.24 L976.066 205.726 L990.441 183.828 Z" fill="#000000" fill-rule="nonzero" fill-opacity="1" /><path clip-path="url(#clip440)" d="M1013.01 214.453 L1029.33 214.453 L1029.33 218.388 L1007.39 218.388 L1007.39 214.453 Q1010.05 211.698 1014.63 207.068 Q1019.24 202.416 1020.42 201.073 Q1022.66 198.55 1023.54 196.814 Q1024.45 195.055 1024.45 193.365 Q1024.45 190.61 1022.5 188.874 Q1020.58 187.138 1017.48 187.138 Q1015.28 187.138 1012.83 187.902 Q1010.39 188.666 1007.62 190.217 L1007.62 185.494 Q1010.44 184.36 1012.89 183.782 Q1015.35 183.203 1017.39 183.203 Q1022.76 183.203 1025.95 185.888 Q1029.14 188.573 1029.14 193.064 Q1029.14 195.194 1028.33 197.115 Q1027.55 199.013 1025.44 201.606 Q1024.86 202.277 1021.76 205.494 Q1018.66 208.689 1013.01 214.453 Z" fill="#000000" fill-rule="nonzero" fill-opacity="1" /><path clip-path="url(#clip440)" d="M1046.11 183.828 L1050.05 183.828 L1038.01 222.786 L1034.08 222.786 L1046.11 183.828 Z" fill="#000000" fill-rule="nonzero" fill-opacity="1" /><path clip-path="url(#clip440)" d="M1052.36 203.504 L1064.84 203.504 L1064.84 207.3 L1052.36 207.3 L1052.36 203.504 Z" fill="#000000" fill-rule="nonzero" fill-opacity="1" /><path clip-path="url(#clip440)" d="M1082.22 186.907 Q1078.61 186.907 1076.78 190.471 Q1074.98 194.013 1074.98 201.143 Q1074.98 208.249 1076.78 211.814 Q1078.61 215.355 1082.22 215.355 Q1085.86 215.355 1087.66 211.814 Q1089.49 208.249 1089.49 201.143 Q1089.49 194.013 1087.66 190.471 Q1085.86 186.907 1082.22 186.907 M1082.22 183.203 Q1088.03 183.203 1091.09 187.809 Q1094.17 192.393 1094.17 201.143 Q1094.17 209.869 1091.09 214.476 Q1088.03 219.059 1082.22 219.059 Q1076.41 219.059 1073.33 214.476 Q1070.28 209.869 1070.28 201.143 Q1070.28 192.393 1073.33 187.809 Q1076.41 183.203 1082.22 183.203 Z" fill="#000000" fill-rule="nonzero" fill-opacity="1" /><path clip-path="url(#clip440)" d="M1102.38 212.508 L1107.27 212.508 L1107.27 218.388 L1102.38 218.388 L1102.38 212.508 Z" fill="#000000" fill-rule="nonzero" fill-opacity="1" /><path clip-path="url(#clip440)" d="M1127.45 186.907 Q1123.84 186.907 1122.01 190.471 Q1120.21 194.013 1120.21 201.143 Q1120.21 208.249 1122.01 211.814 Q1123.84 215.355 1127.45 215.355 Q1131.09 215.355 1132.89 211.814 Q1134.72 208.249 1134.72 201.143 Q1134.72 194.013 1132.89 190.471 Q1131.09 186.907 1127.45 186.907 M1127.45 183.203 Q1133.26 183.203 1136.32 187.809 Q1139.4 192.393 1139.4 201.143 Q1139.4 209.869 1136.32 214.476 Q1133.26 219.059 1127.45 219.059 Q1121.64 219.059 1118.57 214.476 Q1115.51 209.869 1115.51 201.143 Q1115.51 192.393 1118.57 187.809 Q1121.64 183.203 1127.45 183.203 Z" fill="#000000" fill-rule="nonzero" fill-opacity="1" /><path clip-path="url(#clip440)" d="M1147.66 183.828 L1166.02 183.828 L1166.02 187.763 L1151.94 187.763 L1151.94 196.235 Q1152.96 195.888 1153.98 195.726 Q1155 195.541 1156.02 195.541 Q1161.81 195.541 1165.19 198.712 Q1168.57 201.883 1168.57 207.3 Q1168.57 212.879 1165.09 215.98 Q1161.62 219.059 1155.3 219.059 Q1153.13 219.059 1150.86 218.689 Q1148.61 218.318 1146.2 217.578 L1146.2 212.879 Q1148.29 214.013 1150.51 214.568 Q1152.73 215.124 1155.21 215.124 Q1159.21 215.124 1161.55 213.017 Q1163.89 210.911 1163.89 207.3 Q1163.89 203.689 1161.55 201.582 Q1159.21 199.476 1155.21 199.476 Q1153.33 199.476 1151.46 199.893 Q1149.61 200.309 1147.66 201.189 L1147.66 183.828 Z" fill="#000000" fill-rule="nonzero" fill-opacity="1" /><path clip-path="url(#clip440)" d="M1177.82 183.828 L1196.18 183.828 L1196.18 187.763 L1182.11 187.763 L1182.11 196.235 Q1183.13 195.888 1184.14 195.726 Q1185.16 195.541 1186.18 195.541 Q1191.97 195.541 1195.35 198.712 Q1198.73 201.883 1198.73 207.3 Q1198.73 212.879 1195.25 215.98 Q1191.78 219.059 1185.46 219.059 Q1183.29 219.059 1181.02 218.689 Q1178.77 218.318 1176.37 217.578 L1176.37 212.879 Q1178.45 214.013 1180.67 214.568 Q1182.89 215.124 1185.37 215.124 Q1189.38 215.124 1191.71 213.017 Q1194.05 210.911 1194.05 207.3 Q1194.05 203.689 1191.71 201.582 Q1189.38 199.476 1185.37 199.476 Q1183.5 199.476 1181.62 199.893 Q1179.77 200.309 1177.82 201.189 L1177.82 183.828 Z" fill="#000000" fill-rule="nonzero" fill-opacity="1" /><path clip-path="url(#clip440)" d="M1222.59 183.828 L1229.56 183.828 L1238.38 207.346 L1247.25 183.828 L1254.21 183.828 L1254.21 218.388 L1249.65 218.388 L1249.65 188.041 L1240.74 211.744 L1236.04 211.744 L1227.13 188.041 L1227.13 218.388 L1222.59 218.388 L1222.59 183.828 Z" fill="#000000" fill-rule="nonzero" fill-opacity="1" /><path clip-path="url(#clip440)" d="M1275.09 205.355 Q1269.93 205.355 1267.94 206.536 Q1265.95 207.717 1265.95 210.564 Q1265.95 212.832 1267.43 214.175 Q1268.93 215.494 1271.5 215.494 Q1275.05 215.494 1277.18 212.994 Q1279.33 210.471 1279.33 206.305 L1279.33 205.355 L1275.09 205.355 M1283.59 203.596 L1283.59 218.388 L1279.33 218.388 L1279.33 214.453 Q1277.87 216.814 1275.69 217.948 Q1273.52 219.059 1270.37 219.059 Q1266.39 219.059 1264.03 216.837 Q1261.69 214.592 1261.69 210.842 Q1261.69 206.467 1264.61 204.244 Q1267.55 202.022 1273.36 202.022 L1279.33 202.022 L1279.33 201.606 Q1279.33 198.666 1277.38 197.068 Q1275.46 195.448 1271.97 195.448 Q1269.75 195.448 1267.64 195.981 Q1265.53 196.513 1263.59 197.578 L1263.59 193.643 Q1265.93 192.74 1268.12 192.3 Q1270.32 191.837 1272.41 191.837 Q1278.03 191.837 1280.81 194.754 Q1283.59 197.67 1283.59 203.596 Z" fill="#000000" fill-rule="nonzero" fill-opacity="1" /><path clip-path="url(#clip440)" d="M1291.69 182.416 L1295.39 182.416 Q1298.87 187.879 1300.58 193.11 Q1302.31 198.342 1302.31 203.504 Q1302.31 208.689 1300.58 213.943 Q1298.87 219.198 1295.39 224.638 L1291.69 224.638 Q1294.77 219.337 1296.27 214.105 Q1297.8 208.851 1297.8 203.504 Q1297.8 198.156 1296.27 192.948 Q1294.77 187.74 1291.69 182.416 Z" fill="#000000" fill-rule="nonzero" fill-opacity="1" /></svg>
