<?xml version="1.0" encoding="utf-8"?>
<svg xmlns="http://www.w3.org/2000/svg" xmlns:xlink="http://www.w3.org/1999/xlink" width="600" height="400" viewBox="0 0 2400 1600">
<defs>
  <clipPath id="clip680">
    <rect x="0" y="0" width="2400" height="1600"/>
  </clipPath>
</defs>
<path clip-path="url(#clip680)" d="M0 1600 L2400 1600 L2400 8.88178e-14 L0 8.88178e-14  Z" fill="#ffffff" fill-rule="evenodd" fill-opacity="1"/>
<defs>
  <clipPath id="clip681">
    <rect x="480" y="0" width="1681" height="1600"/>
  </clipPath>
</defs>
<path clip-path="url(#clip680)" d="M202.227 1423.18 L2352.76 1423.18 L2352.76 47.2441 L202.227 47.2441  Z" fill="#ffffff" fill-rule="evenodd" fill-opacity="1"/>
<defs>
  <clipPath id="clip682">
    <rect x="202" y="47" width="2152" height="1377"/>
  </clipPath>
</defs>
<polyline clip-path="url(#clip682)" style="stroke:#000000; stroke-linecap:round; stroke-linejoin:round; stroke-width:2; stroke-opacity:0.1; fill:none" points="433.524,1423.18 433.524,47.2441 "/>
<polyline clip-path="url(#clip682)" style="stroke:#000000; stroke-linecap:round; stroke-linejoin:round; stroke-width:2; stroke-opacity:0.1; fill:none" points="788.069,1423.18 788.069,47.2441 "/>
<polyline clip-path="url(#clip682)" style="stroke:#000000; stroke-linecap:round; stroke-linejoin:round; stroke-width:2; stroke-opacity:0.1; fill:none" points="1142.61,1423.18 1142.61,47.2441 "/>
<polyline clip-path="url(#clip682)" style="stroke:#000000; stroke-linecap:round; stroke-linejoin:round; stroke-width:2; stroke-opacity:0.1; fill:none" points="1497.16,1423.18 1497.16,47.2441 "/>
<polyline clip-path="url(#clip682)" style="stroke:#000000; stroke-linecap:round; stroke-linejoin:round; stroke-width:2; stroke-opacity:0.1; fill:none" points="1851.7,1423.18 1851.7,47.2441 "/>
<polyline clip-path="url(#clip682)" style="stroke:#000000; stroke-linecap:round; stroke-linejoin:round; stroke-width:2; stroke-opacity:0.1; fill:none" points="2206.25,1423.18 2206.25,47.2441 "/>
<polyline clip-path="url(#clip682)" style="stroke:#000000; stroke-linecap:round; stroke-linejoin:round; stroke-width:2; stroke-opacity:0.1; fill:none" points="433.524,1423.18 433.524,47.2441 "/>
<polyline clip-path="url(#clip682)" style="stroke:#000000; stroke-linecap:round; stroke-linejoin:round; stroke-width:2; stroke-opacity:0.1; fill:none" points="788.069,1423.18 788.069,47.2441 "/>
<polyline clip-path="url(#clip682)" style="stroke:#000000; stroke-linecap:round; stroke-linejoin:round; stroke-width:2; stroke-opacity:0.1; fill:none" points="1142.61,1423.18 1142.61,47.2441 "/>
<polyline clip-path="url(#clip682)" style="stroke:#000000; stroke-linecap:round; stroke-linejoin:round; stroke-width:2; stroke-opacity:0.1; fill:none" points="1497.16,1423.18 1497.16,47.2441 "/>
<polyline clip-path="url(#clip682)" style="stroke:#000000; stroke-linecap:round; stroke-linejoin:round; stroke-width:2; stroke-opacity:0.1; fill:none" points="1851.7,1423.18 1851.7,47.2441 "/>
<polyline clip-path="url(#clip682)" style="stroke:#000000; stroke-linecap:round; stroke-linejoin:round; stroke-width:2; stroke-opacity:0.1; fill:none" points="2206.25,1423.18 2206.25,47.2441 "/>
<polyline clip-path="url(#clip682)" style="stroke:#000000; stroke-linecap:round; stroke-linejoin:round; stroke-width:2; stroke-opacity:0.1; fill:none" points="202.227,1384.24 2352.76,1384.24 "/>
<polyline clip-path="url(#clip682)" style="stroke:#000000; stroke-linecap:round; stroke-linejoin:round; stroke-width:2; stroke-opacity:0.1; fill:none" points="202.227,970.509 2352.76,970.509 "/>
<polyline clip-path="url(#clip682)" style="stroke:#000000; stroke-linecap:round; stroke-linejoin:round; stroke-width:2; stroke-opacity:0.1; fill:none" points="202.227,556.78 2352.76,556.78 "/>
<polyline clip-path="url(#clip682)" style="stroke:#000000; stroke-linecap:round; stroke-linejoin:round; stroke-width:2; stroke-opacity:0.1; fill:none" points="202.227,143.051 2352.76,143.051 "/>
<polyline clip-path="url(#clip682)" style="stroke:#000000; stroke-linecap:round; stroke-linejoin:round; stroke-width:2; stroke-opacity:0.1; fill:none" points="202.227,1384.24 2352.76,1384.24 "/>
<polyline clip-path="url(#clip682)" style="stroke:#000000; stroke-linecap:round; stroke-linejoin:round; stroke-width:2; stroke-opacity:0.1; fill:none" points="202.227,970.509 2352.76,970.509 "/>
<polyline clip-path="url(#clip682)" style="stroke:#000000; stroke-linecap:round; stroke-linejoin:round; stroke-width:2; stroke-opacity:0.1; fill:none" points="202.227,556.78 2352.76,556.78 "/>
<polyline clip-path="url(#clip682)" style="stroke:#000000; stroke-linecap:round; stroke-linejoin:round; stroke-width:2; stroke-opacity:0.1; fill:none" points="202.227,143.051 2352.76,143.051 "/>
<polyline clip-path="url(#clip680)" style="stroke:#000000; stroke-linecap:round; stroke-linejoin:round; stroke-width:4; stroke-opacity:1; fill:none" points="202.227,1423.18 2352.76,1423.18 "/>
<polyline clip-path="url(#clip680)" style="stroke:#000000; stroke-linecap:round; stroke-linejoin:round; stroke-width:4; stroke-opacity:1; fill:none" points="202.227,47.2441 2352.76,47.2441 "/>
<polyline clip-path="url(#clip680)" style="stroke:#000000; stroke-linecap:round; stroke-linejoin:round; stroke-width:4; stroke-opacity:1; fill:none" points="433.524,1423.18 433.524,1404.28 "/>
<polyline clip-path="url(#clip680)" style="stroke:#000000; stroke-linecap:round; stroke-linejoin:round; stroke-width:4; stroke-opacity:1; fill:none" points="788.069,1423.18 788.069,1404.28 "/>
<polyline clip-path="url(#clip680)" style="stroke:#000000; stroke-linecap:round; stroke-linejoin:round; stroke-width:4; stroke-opacity:1; fill:none" points="1142.61,1423.18 1142.61,1404.28 "/>
<polyline clip-path="url(#clip680)" style="stroke:#000000; stroke-linecap:round; stroke-linejoin:round; stroke-width:4; stroke-opacity:1; fill:none" points="1497.16,1423.18 1497.16,1404.28 "/>
<polyline clip-path="url(#clip680)" style="stroke:#000000; stroke-linecap:round; stroke-linejoin:round; stroke-width:4; stroke-opacity:1; fill:none" points="1851.7,1423.18 1851.7,1404.28 "/>
<polyline clip-path="url(#clip680)" style="stroke:#000000; stroke-linecap:round; stroke-linejoin:round; stroke-width:4; stroke-opacity:1; fill:none" points="2206.25,1423.18 2206.25,1404.28 "/>
<polyline clip-path="url(#clip680)" style="stroke:#000000; stroke-linecap:round; stroke-linejoin:round; stroke-width:4; stroke-opacity:1; fill:none" points="433.524,47.2441 433.524,66.1417 "/>
<polyline clip-path="url(#clip680)" style="stroke:#000000; stroke-linecap:round; stroke-linejoin:round; stroke-width:4; stroke-opacity:1; fill:none" points="788.069,47.2441 788.069,66.1417 "/>
<polyline clip-path="url(#clip680)" style="stroke:#000000; stroke-linecap:round; stroke-linejoin:round; stroke-width:4; stroke-opacity:1; fill:none" points="1142.61,47.2441 1142.61,66.1417 "/>
<polyline clip-path="url(#clip680)" style="stroke:#000000; stroke-linecap:round; stroke-linejoin:round; stroke-width:4; stroke-opacity:1; fill:none" points="1497.16,47.2441 1497.16,66.1417 "/>
<polyline clip-path="url(#clip680)" style="stroke:#000000; stroke-linecap:round; stroke-linejoin:round; stroke-width:4; stroke-opacity:1; fill:none" points="1851.7,47.2441 1851.7,66.1417 "/>
<polyline clip-path="url(#clip680)" style="stroke:#000000; stroke-linecap:round; stroke-linejoin:round; stroke-width:4; stroke-opacity:1; fill:none" points="2206.25,47.2441 2206.25,66.1417 "/>
<path clip-path="url(#clip680)" d="M381.232 1466.44 Q378.084 1466.44 376.232 1468.59 Q374.404 1470.74 374.404 1474.49 Q374.404 1478.22 376.232 1480.39 Q378.084 1482.55 381.232 1482.55 Q384.38 1482.55 386.209 1480.39 Q388.061 1478.22 388.061 1474.49 Q388.061 1470.74 386.209 1468.59 Q384.38 1466.44 381.232 1466.44 M390.515 1451.78 L390.515 1456.04 Q388.755 1455.21 386.95 1454.77 Q385.167 1454.33 383.408 1454.33 Q378.779 1454.33 376.325 1457.45 Q373.894 1460.58 373.547 1466.9 Q374.913 1464.89 376.973 1463.82 Q379.033 1462.73 381.51 1462.73 Q386.718 1462.73 389.728 1465.9 Q392.76 1469.05 392.76 1474.49 Q392.76 1479.82 389.612 1483.03 Q386.464 1486.25 381.232 1486.25 Q375.237 1486.25 372.066 1481.67 Q368.894 1477.06 368.894 1468.33 Q368.894 1460.14 372.783 1455.28 Q376.672 1450.39 383.223 1450.39 Q384.982 1450.39 386.765 1450.74 Q388.57 1451.09 390.515 1451.78 Z" fill="#000000" fill-rule="nonzero" fill-opacity="1" /><path clip-path="url(#clip680)" d="M400.862 1451.02 L419.218 1451.02 L419.218 1454.96 L405.144 1454.96 L405.144 1463.43 Q406.163 1463.08 407.181 1462.92 Q408.2 1462.73 409.218 1462.73 Q415.005 1462.73 418.385 1465.9 Q421.764 1469.08 421.764 1474.49 Q421.764 1480.07 418.292 1483.17 Q414.82 1486.25 408.501 1486.25 Q406.325 1486.25 404.056 1485.88 Q401.811 1485.51 399.403 1484.77 L399.403 1480.07 Q401.487 1481.2 403.709 1481.76 Q405.931 1482.32 408.408 1482.32 Q412.413 1482.32 414.751 1480.21 Q417.089 1478.1 417.089 1474.49 Q417.089 1470.88 414.751 1468.77 Q412.413 1466.67 408.408 1466.67 Q406.533 1466.67 404.658 1467.08 Q402.806 1467.5 400.862 1468.38 L400.862 1451.02 Z" fill="#000000" fill-rule="nonzero" fill-opacity="1" /><path clip-path="url(#clip680)" d="M430.977 1479.7 L435.862 1479.7 L435.862 1485.58 L430.977 1485.58 L430.977 1479.7 Z" fill="#000000" fill-rule="nonzero" fill-opacity="1" /><path clip-path="url(#clip680)" d="M446.186 1484.86 L446.186 1480.6 Q447.945 1481.44 449.75 1481.88 Q451.556 1482.32 453.292 1482.32 Q457.922 1482.32 460.352 1479.21 Q462.806 1476.09 463.153 1469.75 Q461.81 1471.74 459.75 1472.8 Q457.69 1473.87 455.19 1473.87 Q450.005 1473.87 446.973 1470.74 Q443.963 1467.59 443.963 1462.15 Q443.963 1456.83 447.111 1453.61 Q450.26 1450.39 455.491 1450.39 Q461.486 1450.39 464.635 1455 Q467.806 1459.58 467.806 1468.33 Q467.806 1476.51 463.917 1481.39 Q460.051 1486.25 453.5 1486.25 Q451.741 1486.25 449.936 1485.9 Q448.13 1485.56 446.186 1484.86 M455.491 1470.21 Q458.639 1470.21 460.468 1468.06 Q462.32 1465.9 462.32 1462.15 Q462.32 1458.43 460.468 1456.27 Q458.639 1454.1 455.491 1454.1 Q452.343 1454.1 450.491 1456.27 Q448.662 1458.43 448.662 1462.15 Q448.662 1465.9 450.491 1468.06 Q452.343 1470.21 455.491 1470.21 Z" fill="#000000" fill-rule="nonzero" fill-opacity="1" /><path clip-path="url(#clip680)" d="M486.209 1454.1 Q482.597 1454.1 480.769 1457.66 Q478.963 1461.2 478.963 1468.33 Q478.963 1475.44 480.769 1479.01 Q482.597 1482.55 486.209 1482.55 Q489.843 1482.55 491.648 1479.01 Q493.477 1475.44 493.477 1468.33 Q493.477 1461.2 491.648 1457.66 Q489.843 1454.1 486.209 1454.1 M486.209 1450.39 Q492.019 1450.39 495.074 1455 Q498.153 1459.58 498.153 1468.33 Q498.153 1477.06 495.074 1481.67 Q492.019 1486.25 486.209 1486.25 Q480.398 1486.25 477.32 1481.67 Q474.264 1477.06 474.264 1468.33 Q474.264 1459.58 477.32 1455 Q480.398 1450.39 486.209 1450.39 Z" fill="#000000" fill-rule="nonzero" fill-opacity="1" /><path clip-path="url(#clip680)" d="M736.275 1466.44 Q733.127 1466.44 731.275 1468.59 Q729.446 1470.74 729.446 1474.49 Q729.446 1478.22 731.275 1480.39 Q733.127 1482.55 736.275 1482.55 Q739.423 1482.55 741.252 1480.39 Q743.104 1478.22 743.104 1474.49 Q743.104 1470.74 741.252 1468.59 Q739.423 1466.44 736.275 1466.44 M745.557 1451.78 L745.557 1456.04 Q743.798 1455.21 741.993 1454.77 Q740.21 1454.33 738.451 1454.33 Q733.821 1454.33 731.368 1457.45 Q728.937 1460.58 728.59 1466.9 Q729.956 1464.89 732.016 1463.82 Q734.076 1462.73 736.553 1462.73 Q741.761 1462.73 744.77 1465.9 Q747.803 1469.05 747.803 1474.49 Q747.803 1479.82 744.655 1483.03 Q741.506 1486.25 736.275 1486.25 Q730.28 1486.25 727.108 1481.67 Q723.937 1477.06 723.937 1468.33 Q723.937 1460.14 727.826 1455.28 Q731.715 1450.39 738.266 1450.39 Q740.025 1450.39 741.807 1450.74 Q743.613 1451.09 745.557 1451.78 Z" fill="#000000" fill-rule="nonzero" fill-opacity="1" /><path clip-path="url(#clip680)" d="M755.905 1451.02 L774.261 1451.02 L774.261 1454.96 L760.187 1454.96 L760.187 1463.43 Q761.205 1463.08 762.224 1462.92 Q763.242 1462.73 764.261 1462.73 Q770.048 1462.73 773.428 1465.9 Q776.807 1469.08 776.807 1474.49 Q776.807 1480.07 773.335 1483.17 Q769.863 1486.25 763.543 1486.25 Q761.367 1486.25 759.099 1485.88 Q756.854 1485.51 754.446 1484.77 L754.446 1480.07 Q756.53 1481.2 758.752 1481.76 Q760.974 1482.32 763.451 1482.32 Q767.455 1482.32 769.793 1480.21 Q772.131 1478.1 772.131 1474.49 Q772.131 1470.88 769.793 1468.77 Q767.455 1466.67 763.451 1466.67 Q761.576 1466.67 759.701 1467.08 Q757.849 1467.5 755.905 1468.38 L755.905 1451.02 Z" fill="#000000" fill-rule="nonzero" fill-opacity="1" /><path clip-path="url(#clip680)" d="M786.02 1479.7 L790.904 1479.7 L790.904 1485.58 L786.02 1485.58 L786.02 1479.7 Z" fill="#000000" fill-rule="nonzero" fill-opacity="1" /><path clip-path="url(#clip680)" d="M801.228 1484.86 L801.228 1480.6 Q802.988 1481.44 804.793 1481.88 Q806.599 1482.32 808.335 1482.32 Q812.964 1482.32 815.395 1479.21 Q817.849 1476.09 818.196 1469.75 Q816.853 1471.74 814.793 1472.8 Q812.733 1473.87 810.233 1473.87 Q805.048 1473.87 802.015 1470.74 Q799.006 1467.59 799.006 1462.15 Q799.006 1456.83 802.154 1453.61 Q805.302 1450.39 810.534 1450.39 Q816.529 1450.39 819.677 1455 Q822.849 1459.58 822.849 1468.33 Q822.849 1476.51 818.96 1481.39 Q815.094 1486.25 808.543 1486.25 Q806.784 1486.25 804.978 1485.9 Q803.173 1485.56 801.228 1484.86 M810.534 1470.21 Q813.682 1470.21 815.511 1468.06 Q817.363 1465.9 817.363 1462.15 Q817.363 1458.43 815.511 1456.27 Q813.682 1454.1 810.534 1454.1 Q807.386 1454.1 805.534 1456.27 Q803.705 1458.43 803.705 1462.15 Q803.705 1465.9 805.534 1468.06 Q807.386 1470.21 810.534 1470.21 Z" fill="#000000" fill-rule="nonzero" fill-opacity="1" /><path clip-path="url(#clip680)" d="M831.298 1451.02 L849.654 1451.02 L849.654 1454.96 L835.58 1454.96 L835.58 1463.43 Q836.599 1463.08 837.617 1462.92 Q838.636 1462.73 839.654 1462.73 Q845.441 1462.73 848.821 1465.9 Q852.2 1469.08 852.2 1474.49 Q852.2 1480.07 848.728 1483.17 Q845.256 1486.25 838.936 1486.25 Q836.761 1486.25 834.492 1485.88 Q832.247 1485.51 829.839 1484.77 L829.839 1480.07 Q831.923 1481.2 834.145 1481.76 Q836.367 1482.32 838.844 1482.32 Q842.849 1482.32 845.186 1480.21 Q847.524 1478.1 847.524 1474.49 Q847.524 1470.88 845.186 1468.77 Q842.849 1466.67 838.844 1466.67 Q836.969 1466.67 835.094 1467.08 Q833.242 1467.5 831.298 1468.38 L831.298 1451.02 Z" fill="#000000" fill-rule="nonzero" fill-opacity="1" /><path clip-path="url(#clip680)" d="M1090.32 1466.44 Q1087.17 1466.44 1085.32 1468.59 Q1083.49 1470.74 1083.49 1474.49 Q1083.49 1478.22 1085.32 1480.39 Q1087.17 1482.55 1090.32 1482.55 Q1093.47 1482.55 1095.3 1480.39 Q1097.15 1478.22 1097.15 1474.49 Q1097.15 1470.74 1095.3 1468.59 Q1093.47 1466.44 1090.32 1466.44 M1099.6 1451.78 L1099.6 1456.04 Q1097.85 1455.21 1096.04 1454.77 Q1094.26 1454.33 1092.5 1454.33 Q1087.87 1454.33 1085.42 1457.45 Q1082.98 1460.58 1082.64 1466.9 Q1084 1464.89 1086.06 1463.82 Q1088.12 1462.73 1090.6 1462.73 Q1095.81 1462.73 1098.82 1465.9 Q1101.85 1469.05 1101.85 1474.49 Q1101.85 1479.82 1098.7 1483.03 Q1095.55 1486.25 1090.32 1486.25 Q1084.33 1486.25 1081.16 1481.67 Q1077.98 1477.06 1077.98 1468.33 Q1077.98 1460.14 1081.87 1455.28 Q1085.76 1450.39 1092.31 1450.39 Q1094.07 1450.39 1095.85 1450.74 Q1097.66 1451.09 1099.6 1451.78 Z" fill="#000000" fill-rule="nonzero" fill-opacity="1" /><path clip-path="url(#clip680)" d="M1120.48 1466.44 Q1117.34 1466.44 1115.48 1468.59 Q1113.66 1470.74 1113.66 1474.49 Q1113.66 1478.22 1115.48 1480.39 Q1117.34 1482.55 1120.48 1482.55 Q1123.63 1482.55 1125.46 1480.39 Q1127.31 1478.22 1127.31 1474.49 Q1127.31 1470.74 1125.46 1468.59 Q1123.63 1466.44 1120.48 1466.44 M1129.77 1451.78 L1129.77 1456.04 Q1128.01 1455.21 1126.2 1454.77 Q1124.42 1454.33 1122.66 1454.33 Q1118.03 1454.33 1115.58 1457.45 Q1113.15 1460.58 1112.8 1466.9 Q1114.16 1464.89 1116.23 1463.82 Q1118.29 1462.73 1120.76 1462.73 Q1125.97 1462.73 1128.98 1465.9 Q1132.01 1469.05 1132.01 1474.49 Q1132.01 1479.82 1128.86 1483.03 Q1125.72 1486.25 1120.48 1486.25 Q1114.49 1486.25 1111.32 1481.67 Q1108.15 1477.06 1108.15 1468.33 Q1108.15 1460.14 1112.04 1455.28 Q1115.92 1450.39 1122.48 1450.39 Q1124.23 1450.39 1126.02 1450.74 Q1127.82 1451.09 1129.77 1451.78 Z" fill="#000000" fill-rule="nonzero" fill-opacity="1" /><path clip-path="url(#clip680)" d="M1140.07 1479.7 L1144.95 1479.7 L1144.95 1485.58 L1140.07 1485.58 L1140.07 1479.7 Z" fill="#000000" fill-rule="nonzero" fill-opacity="1" /><path clip-path="url(#clip680)" d="M1165.14 1454.1 Q1161.53 1454.1 1159.7 1457.66 Q1157.89 1461.2 1157.89 1468.33 Q1157.89 1475.44 1159.7 1479.01 Q1161.53 1482.55 1165.14 1482.55 Q1168.77 1482.55 1170.58 1479.01 Q1172.41 1475.44 1172.41 1468.33 Q1172.41 1461.2 1170.58 1457.66 Q1168.77 1454.1 1165.14 1454.1 M1165.14 1450.39 Q1170.95 1450.39 1174 1455 Q1177.08 1459.58 1177.08 1468.33 Q1177.08 1477.06 1174 1481.67 Q1170.95 1486.25 1165.14 1486.25 Q1159.33 1486.25 1156.25 1481.67 Q1153.19 1477.06 1153.19 1468.33 Q1153.19 1459.58 1156.25 1455 Q1159.33 1450.39 1165.14 1450.39 Z" fill="#000000" fill-rule="nonzero" fill-opacity="1" /><path clip-path="url(#clip680)" d="M1195.3 1454.1 Q1191.69 1454.1 1189.86 1457.66 Q1188.05 1461.2 1188.05 1468.33 Q1188.05 1475.44 1189.86 1479.01 Q1191.69 1482.55 1195.3 1482.55 Q1198.93 1482.55 1200.74 1479.01 Q1202.57 1475.44 1202.57 1468.33 Q1202.57 1461.2 1200.74 1457.66 Q1198.93 1454.1 1195.3 1454.1 M1195.3 1450.39 Q1201.11 1450.39 1204.16 1455 Q1207.24 1459.58 1207.24 1468.33 Q1207.24 1477.06 1204.16 1481.67 Q1201.11 1486.25 1195.3 1486.25 Q1189.49 1486.25 1186.41 1481.67 Q1183.35 1477.06 1183.35 1468.33 Q1183.35 1459.58 1186.41 1455 Q1189.49 1450.39 1195.3 1450.39 Z" fill="#000000" fill-rule="nonzero" fill-opacity="1" /><path clip-path="url(#clip680)" d="M1445.37 1466.44 Q1442.22 1466.44 1440.37 1468.59 Q1438.54 1470.74 1438.54 1474.49 Q1438.54 1478.22 1440.37 1480.39 Q1442.22 1482.55 1445.37 1482.55 Q1448.51 1482.55 1450.34 1480.39 Q1452.19 1478.22 1452.19 1474.49 Q1452.19 1470.74 1450.34 1468.59 Q1448.51 1466.44 1445.37 1466.44 M1454.65 1451.78 L1454.65 1456.04 Q1452.89 1455.21 1451.08 1454.77 Q1449.3 1454.33 1447.54 1454.33 Q1442.91 1454.33 1440.46 1457.45 Q1438.03 1460.58 1437.68 1466.9 Q1439.05 1464.89 1441.11 1463.82 Q1443.17 1462.73 1445.64 1462.73 Q1450.85 1462.73 1453.86 1465.9 Q1456.89 1469.05 1456.89 1474.49 Q1456.89 1479.82 1453.74 1483.03 Q1450.6 1486.25 1445.37 1486.25 Q1439.37 1486.25 1436.2 1481.67 Q1433.03 1477.06 1433.03 1468.33 Q1433.03 1460.14 1436.92 1455.28 Q1440.81 1450.39 1447.36 1450.39 Q1449.12 1450.39 1450.9 1450.74 Q1452.7 1451.09 1454.65 1451.78 Z" fill="#000000" fill-rule="nonzero" fill-opacity="1" /><path clip-path="url(#clip680)" d="M1475.53 1466.44 Q1472.38 1466.44 1470.53 1468.59 Q1468.7 1470.74 1468.7 1474.49 Q1468.7 1478.22 1470.53 1480.39 Q1472.38 1482.55 1475.53 1482.55 Q1478.68 1482.55 1480.5 1480.39 Q1482.36 1478.22 1482.36 1474.49 Q1482.36 1470.74 1480.5 1468.59 Q1478.68 1466.44 1475.53 1466.44 M1484.81 1451.78 L1484.81 1456.04 Q1483.05 1455.21 1481.24 1454.77 Q1479.46 1454.33 1477.7 1454.33 Q1473.07 1454.33 1470.62 1457.45 Q1468.19 1460.58 1467.84 1466.9 Q1469.21 1464.89 1471.27 1463.82 Q1473.33 1462.73 1475.8 1462.73 Q1481.01 1462.73 1484.02 1465.9 Q1487.05 1469.05 1487.05 1474.49 Q1487.05 1479.82 1483.91 1483.03 Q1480.76 1486.25 1475.53 1486.25 Q1469.53 1486.25 1466.36 1481.67 Q1463.19 1477.06 1463.19 1468.33 Q1463.19 1460.14 1467.08 1455.28 Q1470.97 1450.39 1477.52 1450.39 Q1479.28 1450.39 1481.06 1450.74 Q1482.87 1451.09 1484.81 1451.78 Z" fill="#000000" fill-rule="nonzero" fill-opacity="1" /><path clip-path="url(#clip680)" d="M1495.11 1479.7 L1499.99 1479.7 L1499.99 1485.58 L1495.11 1485.58 L1495.11 1479.7 Z" fill="#000000" fill-rule="nonzero" fill-opacity="1" /><path clip-path="url(#clip680)" d="M1520.18 1454.1 Q1516.57 1454.1 1514.74 1457.66 Q1512.93 1461.2 1512.93 1468.33 Q1512.93 1475.44 1514.74 1479.01 Q1516.57 1482.55 1520.18 1482.55 Q1523.81 1482.55 1525.62 1479.01 Q1527.45 1475.44 1527.45 1468.33 Q1527.45 1461.2 1525.62 1457.66 Q1523.81 1454.1 1520.18 1454.1 M1520.18 1450.39 Q1525.99 1450.39 1529.05 1455 Q1532.12 1459.58 1532.12 1468.33 Q1532.12 1477.06 1529.05 1481.67 Q1525.99 1486.25 1520.18 1486.25 Q1514.37 1486.25 1511.29 1481.67 Q1508.24 1477.06 1508.24 1468.33 Q1508.24 1459.58 1511.29 1455 Q1514.37 1450.39 1520.18 1450.39 Z" fill="#000000" fill-rule="nonzero" fill-opacity="1" /><path clip-path="url(#clip680)" d="M1540.39 1451.02 L1558.74 1451.02 L1558.74 1454.96 L1544.67 1454.96 L1544.67 1463.43 Q1545.69 1463.08 1546.71 1462.92 Q1547.73 1462.73 1548.74 1462.73 Q1554.53 1462.73 1557.91 1465.9 Q1561.29 1469.08 1561.29 1474.49 Q1561.29 1480.07 1557.82 1483.17 Q1554.35 1486.25 1548.03 1486.25 Q1545.85 1486.25 1543.58 1485.88 Q1541.34 1485.51 1538.93 1484.77 L1538.93 1480.07 Q1541.01 1481.2 1543.24 1481.76 Q1545.46 1482.32 1547.93 1482.32 Q1551.94 1482.32 1554.28 1480.21 Q1556.61 1478.1 1556.61 1474.49 Q1556.61 1470.88 1554.28 1468.77 Q1551.94 1466.67 1547.93 1466.67 Q1546.06 1466.67 1544.18 1467.08 Q1542.33 1467.5 1540.39 1468.38 L1540.39 1451.02 Z" fill="#000000" fill-rule="nonzero" fill-opacity="1" /><path clip-path="url(#clip680)" d="M1799.41 1466.44 Q1796.26 1466.44 1794.41 1468.59 Q1792.58 1470.74 1792.58 1474.49 Q1792.58 1478.22 1794.41 1480.39 Q1796.26 1482.55 1799.41 1482.55 Q1802.56 1482.55 1804.39 1480.39 Q1806.24 1478.22 1806.24 1474.49 Q1806.24 1470.74 1804.39 1468.59 Q1802.56 1466.44 1799.41 1466.44 M1808.7 1451.78 L1808.7 1456.04 Q1806.94 1455.21 1805.13 1454.77 Q1803.35 1454.33 1801.59 1454.33 Q1796.96 1454.33 1794.51 1457.45 Q1792.07 1460.58 1791.73 1466.9 Q1793.09 1464.89 1795.15 1463.82 Q1797.21 1462.73 1799.69 1462.73 Q1804.9 1462.73 1807.91 1465.9 Q1810.94 1469.05 1810.94 1474.49 Q1810.94 1479.82 1807.79 1483.03 Q1804.64 1486.25 1799.41 1486.25 Q1793.42 1486.25 1790.25 1481.67 Q1787.07 1477.06 1787.07 1468.33 Q1787.07 1460.14 1790.96 1455.28 Q1794.85 1450.39 1801.4 1450.39 Q1803.16 1450.39 1804.95 1450.74 Q1806.75 1451.09 1808.7 1451.78 Z" fill="#000000" fill-rule="nonzero" fill-opacity="1" /><path clip-path="url(#clip680)" d="M1829.57 1466.44 Q1826.43 1466.44 1824.57 1468.59 Q1822.75 1470.74 1822.75 1474.49 Q1822.75 1478.22 1824.57 1480.39 Q1826.43 1482.55 1829.57 1482.55 Q1832.72 1482.55 1834.55 1480.39 Q1836.4 1478.22 1836.4 1474.49 Q1836.4 1470.74 1834.55 1468.59 Q1832.72 1466.44 1829.57 1466.44 M1838.86 1451.78 L1838.86 1456.04 Q1837.1 1455.21 1835.29 1454.77 Q1833.51 1454.33 1831.75 1454.33 Q1827.12 1454.33 1824.67 1457.45 Q1822.24 1460.58 1821.89 1466.9 Q1823.26 1464.89 1825.32 1463.82 Q1827.38 1462.73 1829.85 1462.73 Q1835.06 1462.73 1838.07 1465.9 Q1841.1 1469.05 1841.1 1474.49 Q1841.1 1479.82 1837.95 1483.03 Q1834.81 1486.25 1829.57 1486.25 Q1823.58 1486.25 1820.41 1481.67 Q1817.24 1477.06 1817.24 1468.33 Q1817.24 1460.14 1821.13 1455.28 Q1825.01 1450.39 1831.57 1450.39 Q1833.32 1450.39 1835.11 1450.74 Q1836.91 1451.09 1838.86 1451.78 Z" fill="#000000" fill-rule="nonzero" fill-opacity="1" /><path clip-path="url(#clip680)" d="M1849.16 1479.7 L1854.04 1479.7 L1854.04 1485.58 L1849.16 1485.58 L1849.16 1479.7 Z" fill="#000000" fill-rule="nonzero" fill-opacity="1" /><path clip-path="url(#clip680)" d="M1865.04 1481.64 L1872.68 1481.64 L1872.68 1455.28 L1864.37 1456.95 L1864.37 1452.69 L1872.63 1451.02 L1877.31 1451.02 L1877.31 1481.64 L1884.94 1481.64 L1884.94 1485.58 L1865.04 1485.58 L1865.04 1481.64 Z" fill="#000000" fill-rule="nonzero" fill-opacity="1" /><path clip-path="url(#clip680)" d="M1904.39 1454.1 Q1900.78 1454.1 1898.95 1457.66 Q1897.14 1461.2 1897.14 1468.33 Q1897.14 1475.44 1898.95 1479.01 Q1900.78 1482.55 1904.39 1482.55 Q1908.02 1482.55 1909.83 1479.01 Q1911.66 1475.44 1911.66 1468.33 Q1911.66 1461.2 1909.83 1457.66 Q1908.02 1454.1 1904.39 1454.1 M1904.39 1450.39 Q1910.2 1450.39 1913.25 1455 Q1916.33 1459.58 1916.33 1468.33 Q1916.33 1477.06 1913.25 1481.67 Q1910.2 1486.25 1904.39 1486.25 Q1898.58 1486.25 1895.5 1481.67 Q1892.44 1477.06 1892.44 1468.33 Q1892.44 1459.58 1895.5 1455 Q1898.58 1450.39 1904.39 1450.39 Z" fill="#000000" fill-rule="nonzero" fill-opacity="1" /><path clip-path="url(#clip680)" d="M2154.46 1466.44 Q2151.31 1466.44 2149.46 1468.59 Q2147.63 1470.74 2147.63 1474.49 Q2147.63 1478.22 2149.46 1480.39 Q2151.31 1482.55 2154.46 1482.55 Q2157.6 1482.55 2159.43 1480.39 Q2161.28 1478.22 2161.28 1474.49 Q2161.28 1470.74 2159.43 1468.59 Q2157.6 1466.44 2154.46 1466.44 M2163.74 1451.78 L2163.74 1456.04 Q2161.98 1455.21 2160.17 1454.77 Q2158.39 1454.33 2156.63 1454.33 Q2152 1454.33 2149.55 1457.45 Q2147.12 1460.58 2146.77 1466.9 Q2148.14 1464.89 2150.2 1463.82 Q2152.26 1462.73 2154.73 1462.73 Q2159.94 1462.73 2162.95 1465.9 Q2165.98 1469.05 2165.98 1474.49 Q2165.98 1479.82 2162.84 1483.03 Q2159.69 1486.25 2154.46 1486.25 Q2148.46 1486.25 2145.29 1481.67 Q2142.12 1477.06 2142.12 1468.33 Q2142.12 1460.14 2146.01 1455.28 Q2149.9 1450.39 2156.45 1450.39 Q2158.21 1450.39 2159.99 1450.74 Q2161.79 1451.09 2163.74 1451.78 Z" fill="#000000" fill-rule="nonzero" fill-opacity="1" /><path clip-path="url(#clip680)" d="M2184.62 1466.44 Q2181.47 1466.44 2179.62 1468.59 Q2177.79 1470.74 2177.79 1474.49 Q2177.79 1478.22 2179.62 1480.39 Q2181.47 1482.55 2184.62 1482.55 Q2187.77 1482.55 2189.59 1480.39 Q2191.45 1478.22 2191.45 1474.49 Q2191.45 1470.74 2189.59 1468.59 Q2187.77 1466.44 2184.62 1466.44 M2193.9 1451.78 L2193.9 1456.04 Q2192.14 1455.21 2190.33 1454.77 Q2188.55 1454.33 2186.79 1454.33 Q2182.16 1454.33 2179.71 1457.45 Q2177.28 1460.58 2176.93 1466.9 Q2178.3 1464.89 2180.36 1463.82 Q2182.42 1462.73 2184.9 1462.73 Q2190.1 1462.73 2193.11 1465.9 Q2196.15 1469.05 2196.15 1474.49 Q2196.15 1479.82 2193 1483.03 Q2189.85 1486.25 2184.62 1486.25 Q2178.62 1486.25 2175.45 1481.67 Q2172.28 1477.06 2172.28 1468.33 Q2172.28 1460.14 2176.17 1455.28 Q2180.06 1450.39 2186.61 1450.39 Q2188.37 1450.39 2190.15 1450.74 Q2191.96 1451.09 2193.9 1451.78 Z" fill="#000000" fill-rule="nonzero" fill-opacity="1" /><path clip-path="url(#clip680)" d="M2204.2 1479.7 L2209.08 1479.7 L2209.08 1485.58 L2204.2 1485.58 L2204.2 1479.7 Z" fill="#000000" fill-rule="nonzero" fill-opacity="1" /><path clip-path="url(#clip680)" d="M2220.08 1481.64 L2227.72 1481.64 L2227.72 1455.28 L2219.41 1456.95 L2219.41 1452.69 L2227.67 1451.02 L2232.35 1451.02 L2232.35 1481.64 L2239.99 1481.64 L2239.99 1485.58 L2220.08 1485.58 L2220.08 1481.64 Z" fill="#000000" fill-rule="nonzero" fill-opacity="1" /><path clip-path="url(#clip680)" d="M2249.48 1451.02 L2267.83 1451.02 L2267.83 1454.96 L2253.76 1454.96 L2253.76 1463.43 Q2254.78 1463.08 2255.8 1462.92 Q2256.82 1462.73 2257.83 1462.73 Q2263.62 1462.73 2267 1465.9 Q2270.38 1469.08 2270.38 1474.49 Q2270.38 1480.07 2266.91 1483.17 Q2263.44 1486.25 2257.12 1486.25 Q2254.94 1486.25 2252.67 1485.88 Q2250.43 1485.51 2248.02 1484.77 L2248.02 1480.07 Q2250.1 1481.2 2252.33 1481.76 Q2254.55 1482.32 2257.02 1482.32 Q2261.03 1482.32 2263.37 1480.21 Q2265.7 1478.1 2265.7 1474.49 Q2265.7 1470.88 2263.37 1468.77 Q2261.03 1466.67 2257.02 1466.67 Q2255.15 1466.67 2253.27 1467.08 Q2251.42 1467.5 2249.48 1468.38 L2249.48 1451.02 Z" fill="#000000" fill-rule="nonzero" fill-opacity="1" /><path clip-path="url(#clip680)" d="M1155.4 1526.86 L1146.68 1550.51 L1164.15 1550.51 L1155.4 1526.86 M1151.77 1520.52 L1159.06 1520.52 L1177.17 1568.04 L1170.48 1568.04 L1166.16 1555.85 L1144.73 1555.85 L1140.41 1568.04 L1133.63 1568.04 L1151.77 1520.52 Z" fill="#000000" fill-rule="nonzero" fill-opacity="1" /><path clip-path="url(#clip680)" d="M1207.31 1549.81 Q1207.31 1543.44 1204.67 1539.94 Q1202.06 1536.44 1197.32 1536.44 Q1192.6 1536.44 1189.96 1539.94 Q1187.35 1543.44 1187.35 1549.81 Q1187.35 1556.14 1189.96 1559.64 Q1192.6 1563.14 1197.32 1563.14 Q1202.06 1563.14 1204.67 1559.64 Q1207.31 1556.14 1207.31 1549.81 M1213.17 1563.62 Q1213.17 1572.72 1209.12 1577.15 Q1205.08 1581.6 1196.74 1581.6 Q1193.66 1581.6 1190.92 1581.13 Q1188.18 1580.68 1185.6 1579.72 L1185.6 1574.03 Q1188.18 1575.43 1190.7 1576.1 Q1193.21 1576.76 1195.82 1576.76 Q1201.58 1576.76 1204.45 1573.74 Q1207.31 1570.75 1207.31 1564.67 L1207.31 1561.77 Q1205.5 1564.92 1202.66 1566.48 Q1199.83 1568.04 1195.88 1568.04 Q1189.33 1568.04 1185.32 1563.05 Q1181.31 1558.05 1181.31 1549.81 Q1181.31 1541.53 1185.32 1536.53 Q1189.33 1531.54 1195.88 1531.54 Q1199.83 1531.54 1202.66 1533.1 Q1205.5 1534.66 1207.31 1537.81 L1207.31 1532.4 L1213.17 1532.4 L1213.17 1563.62 Z" fill="#000000" fill-rule="nonzero" fill-opacity="1" /><path clip-path="url(#clip680)" d="M1255.72 1548.76 L1255.72 1551.62 L1228.79 1551.62 Q1229.18 1557.67 1232.42 1560.85 Q1235.7 1564 1241.53 1564 Q1244.9 1564 1248.05 1563.17 Q1251.23 1562.35 1254.35 1560.69 L1254.35 1566.23 Q1251.2 1567.57 1247.89 1568.27 Q1244.58 1568.97 1241.18 1568.97 Q1232.65 1568.97 1227.65 1564 Q1222.68 1559.04 1222.68 1550.57 Q1222.68 1541.82 1227.39 1536.69 Q1232.14 1531.54 1240.16 1531.54 Q1247.35 1531.54 1251.52 1536.18 Q1255.72 1540.8 1255.72 1548.76 M1249.86 1547.04 Q1249.8 1542.23 1247.16 1539.37 Q1244.55 1536.5 1240.22 1536.5 Q1235.32 1536.5 1232.36 1539.27 Q1229.43 1542.04 1228.99 1547.07 L1249.86 1547.04 Z" fill="#000000" fill-rule="nonzero" fill-opacity="1" /><path clip-path="url(#clip680)" d="M1300.12 1518.58 Q1295.86 1525.9 1293.79 1533.06 Q1291.72 1540.23 1291.72 1547.58 Q1291.72 1554.93 1293.79 1562.16 Q1295.89 1569.35 1300.12 1576.64 L1295.03 1576.64 Q1290.25 1569.16 1287.87 1561.93 Q1285.51 1554.71 1285.51 1547.58 Q1285.51 1540.48 1287.87 1533.29 Q1290.22 1526.09 1295.03 1518.58 L1300.12 1518.58 Z" fill="#000000" fill-rule="nonzero" fill-opacity="1" /><path clip-path="url(#clip680)" d="M1311.74 1520.52 L1321.32 1520.52 L1333.45 1552.86 L1345.64 1520.52 L1355.22 1520.52 L1355.22 1568.04 L1348.95 1568.04 L1348.95 1526.32 L1336.69 1558.91 L1330.23 1558.91 L1317.98 1526.32 L1317.98 1568.04 L1311.74 1568.04 L1311.74 1520.52 Z" fill="#000000" fill-rule="nonzero" fill-opacity="1" /><path clip-path="url(#clip680)" d="M1383.93 1550.12 Q1376.83 1550.12 1374.09 1551.75 Q1371.35 1553.37 1371.35 1557.29 Q1371.35 1560.4 1373.39 1562.25 Q1375.46 1564.07 1378.99 1564.07 Q1383.86 1564.07 1386.79 1560.63 Q1389.75 1557.16 1389.75 1551.43 L1389.75 1550.12 L1383.93 1550.12 M1395.61 1547.71 L1395.61 1568.04 L1389.75 1568.04 L1389.75 1562.63 Q1387.75 1565.88 1384.75 1567.44 Q1381.76 1568.97 1377.43 1568.97 Q1371.96 1568.97 1368.71 1565.91 Q1365.5 1562.82 1365.5 1557.67 Q1365.5 1551.65 1369.51 1548.6 Q1373.55 1545.54 1381.54 1545.54 L1389.75 1545.54 L1389.75 1544.97 Q1389.75 1540.93 1387.08 1538.73 Q1384.44 1536.5 1379.63 1536.5 Q1376.57 1536.5 1373.68 1537.23 Q1370.78 1537.97 1368.11 1539.43 L1368.11 1534.02 Q1371.32 1532.78 1374.35 1532.17 Q1377.37 1531.54 1380.23 1531.54 Q1387.97 1531.54 1391.79 1535.55 Q1395.61 1539.56 1395.61 1547.71 Z" fill="#000000" fill-rule="nonzero" fill-opacity="1" /><path clip-path="url(#clip680)" d="M1406.75 1518.58 L1411.84 1518.58 Q1416.61 1526.09 1418.97 1533.29 Q1421.36 1540.48 1421.36 1547.58 Q1421.36 1554.71 1418.97 1561.93 Q1416.61 1569.16 1411.84 1576.64 L1406.75 1576.64 Q1410.98 1569.35 1413.05 1562.16 Q1415.15 1554.93 1415.15 1547.58 Q1415.15 1540.23 1413.05 1533.06 Q1410.98 1525.9 1406.75 1518.58 Z" fill="#000000" fill-rule="nonzero" fill-opacity="1" /><polyline clip-path="url(#clip680)" style="stroke:#000000; stroke-linecap:round; stroke-linejoin:round; stroke-width:4; stroke-opacity:1; fill:none" points="202.227,1423.18 202.227,47.2441 "/>
<polyline clip-path="url(#clip680)" style="stroke:#000000; stroke-linecap:round; stroke-linejoin:round; stroke-width:4; stroke-opacity:1; fill:none" points="2352.76,1423.18 2352.76,47.2441 "/>
<polyline clip-path="url(#clip680)" style="stroke:#000000; stroke-linecap:round; stroke-linejoin:round; stroke-width:4; stroke-opacity:1; fill:none" points="202.227,1384.24 221.125,1384.24 "/>
<polyline clip-path="url(#clip680)" style="stroke:#000000; stroke-linecap:round; stroke-linejoin:round; stroke-width:4; stroke-opacity:1; fill:none" points="202.227,970.509 221.125,970.509 "/>
<polyline clip-path="url(#clip680)" style="stroke:#000000; stroke-linecap:round; stroke-linejoin:round; stroke-width:4; stroke-opacity:1; fill:none" points="202.227,556.78 221.125,556.78 "/>
<polyline clip-path="url(#clip680)" style="stroke:#000000; stroke-linecap:round; stroke-linejoin:round; stroke-width:4; stroke-opacity:1; fill:none" points="202.227,143.051 221.125,143.051 "/>
<polyline clip-path="url(#clip680)" style="stroke:#000000; stroke-linecap:round; stroke-linejoin:round; stroke-width:4; stroke-opacity:1; fill:none" points="2352.76,1384.24 2333.86,1384.24 "/>
<polyline clip-path="url(#clip680)" style="stroke:#000000; stroke-linecap:round; stroke-linejoin:round; stroke-width:4; stroke-opacity:1; fill:none" points="2352.76,970.509 2333.86,970.509 "/>
<polyline clip-path="url(#clip680)" style="stroke:#000000; stroke-linecap:round; stroke-linejoin:round; stroke-width:4; stroke-opacity:1; fill:none" points="2352.76,556.78 2333.86,556.78 "/>
<polyline clip-path="url(#clip680)" style="stroke:#000000; stroke-linecap:round; stroke-linejoin:round; stroke-width:4; stroke-opacity:1; fill:none" points="2352.76,143.051 2333.86,143.051 "/>
<path clip-path="url(#clip680)" d="M154.283 1370.04 Q150.672 1370.04 148.843 1373.6 Q147.038 1377.14 147.038 1384.27 Q147.038 1391.38 148.843 1394.94 Q150.672 1398.49 154.283 1398.49 Q157.917 1398.49 159.723 1394.94 Q161.552 1391.38 161.552 1384.27 Q161.552 1377.14 159.723 1373.6 Q157.917 1370.04 154.283 1370.04 M154.283 1366.33 Q160.093 1366.33 163.149 1370.94 Q166.227 1375.52 166.227 1384.27 Q166.227 1393 163.149 1397.61 Q160.093 1402.19 154.283 1402.19 Q148.473 1402.19 145.394 1397.61 Q142.339 1393 142.339 1384.27 Q142.339 1375.52 145.394 1370.94 Q148.473 1366.33 154.283 1366.33 Z" fill="#000000" fill-rule="nonzero" fill-opacity="1" /><path clip-path="url(#clip680)" d="M145.325 953.229 L163.681 953.229 L163.681 957.164 L149.607 957.164 L149.607 965.637 Q150.626 965.289 151.644 965.127 Q152.663 964.942 153.681 964.942 Q159.468 964.942 162.848 968.113 Q166.227 971.285 166.227 976.701 Q166.227 982.28 162.755 985.382 Q159.283 988.461 152.964 988.461 Q150.788 988.461 148.519 988.09 Q146.274 987.72 143.866 986.979 L143.866 982.28 Q145.95 983.414 148.172 983.97 Q150.394 984.525 152.871 984.525 Q156.876 984.525 159.214 982.419 Q161.552 980.313 161.552 976.701 Q161.552 973.09 159.214 970.984 Q156.876 968.877 152.871 968.877 Q150.996 968.877 149.121 969.294 Q147.269 969.711 145.325 970.59 L145.325 953.229 Z" fill="#000000" fill-rule="nonzero" fill-opacity="1" /><path clip-path="url(#clip680)" d="M114.931 570.125 L122.57 570.125 L122.57 543.76 L114.26 545.426 L114.26 541.167 L122.524 539.5 L127.2 539.5 L127.2 570.125 L134.839 570.125 L134.839 574.06 L114.931 574.06 L114.931 570.125 Z" fill="#000000" fill-rule="nonzero" fill-opacity="1" /><path clip-path="url(#clip680)" d="M154.283 542.579 Q150.672 542.579 148.843 546.144 Q147.038 549.685 147.038 556.815 Q147.038 563.922 148.843 567.486 Q150.672 571.028 154.283 571.028 Q157.917 571.028 159.723 567.486 Q161.552 563.922 161.552 556.815 Q161.552 549.685 159.723 546.144 Q157.917 542.579 154.283 542.579 M154.283 538.875 Q160.093 538.875 163.149 543.482 Q166.227 548.065 166.227 556.815 Q166.227 565.542 163.149 570.148 Q160.093 574.732 154.283 574.732 Q148.473 574.732 145.394 570.148 Q142.339 565.542 142.339 556.815 Q142.339 548.065 145.394 543.482 Q148.473 538.875 154.283 538.875 Z" fill="#000000" fill-rule="nonzero" fill-opacity="1" /><path clip-path="url(#clip680)" d="M115.927 156.396 L123.566 156.396 L123.566 130.031 L115.256 131.697 L115.256 127.438 L123.519 125.771 L128.195 125.771 L128.195 156.396 L135.834 156.396 L135.834 160.331 L115.927 160.331 L115.927 156.396 Z" fill="#000000" fill-rule="nonzero" fill-opacity="1" /><path clip-path="url(#clip680)" d="M145.325 125.771 L163.681 125.771 L163.681 129.707 L149.607 129.707 L149.607 138.179 Q150.626 137.832 151.644 137.669 Q152.663 137.484 153.681 137.484 Q159.468 137.484 162.848 140.656 Q166.227 143.827 166.227 149.244 Q166.227 154.822 162.755 157.924 Q159.283 161.003 152.964 161.003 Q150.788 161.003 148.519 160.632 Q146.274 160.262 143.866 159.521 L143.866 154.822 Q145.95 155.956 148.172 156.512 Q150.394 157.068 152.871 157.068 Q156.876 157.068 159.214 154.961 Q161.552 152.855 161.552 149.244 Q161.552 145.632 159.214 143.526 Q156.876 141.419 152.871 141.419 Q150.996 141.419 149.121 141.836 Q147.269 142.253 145.325 143.132 L145.325 125.771 Z" fill="#000000" fill-rule="nonzero" fill-opacity="1" /><path clip-path="url(#clip680)" d="M21.7677 1026.76 L39.6235 1026.76 L39.6235 1018.68 Q39.6235 1014.19 37.3 1011.74 Q34.9765 1009.29 30.6797 1009.29 Q26.4147 1009.29 24.0912 1011.74 Q21.7677 1014.19 21.7677 1018.68 L21.7677 1026.76 M16.4842 1033.19 L16.4842 1018.68 Q16.4842 1010.69 20.1126 1006.61 Q23.7092 1002.51 30.6797 1002.51 Q37.7138 1002.51 41.3104 1006.61 Q44.907 1010.69 44.907 1018.68 L44.907 1026.76 L64.0042 1026.76 L64.0042 1033.19 L16.4842 1033.19 Z" fill="#000000" fill-rule="nonzero" fill-opacity="1" /><path clip-path="url(#clip680)" d="M33.8307 974.626 Q33.2578 975.613 33.0032 976.791 Q32.7167 977.936 32.7167 979.337 Q32.7167 984.302 35.9632 986.976 Q39.1779 989.617 45.2253 989.617 L64.0042 989.617 L64.0042 995.506 L28.3562 995.506 L28.3562 989.617 L33.8944 989.617 Q30.6479 987.771 29.0883 984.811 Q27.4968 981.851 27.4968 977.618 Q27.4968 977.013 27.5923 976.281 Q27.656 975.549 27.8151 974.658 L33.8307 974.626 Z" fill="#000000" fill-rule="nonzero" fill-opacity="1" /><path clip-path="url(#clip680)" d="M32.4621 956.102 Q32.4621 960.813 36.1542 963.55 Q39.8145 966.287 46.212 966.287 Q52.6095 966.287 56.3017 963.582 Q59.9619 960.844 59.9619 956.102 Q59.9619 951.423 56.2698 948.686 Q52.5777 945.949 46.212 945.949 Q39.8781 945.949 36.186 948.686 Q32.4621 951.423 32.4621 956.102 M27.4968 956.102 Q27.4968 948.463 32.4621 944.103 Q37.4273 939.742 46.212 939.742 Q54.9649 939.742 59.9619 944.103 Q64.9272 948.463 64.9272 956.102 Q64.9272 963.773 59.9619 968.133 Q54.9649 972.462 46.212 972.462 Q37.4273 972.462 32.4621 968.133 Q27.4968 963.773 27.4968 956.102 Z" fill="#000000" fill-rule="nonzero" fill-opacity="1" /><path clip-path="url(#clip680)" d="M46.212 904.444 Q39.7508 904.444 36.0905 907.118 Q32.3984 909.76 32.3984 914.407 Q32.3984 919.054 36.0905 921.727 Q39.7508 924.369 46.212 924.369 Q52.6732 924.369 56.3653 921.727 Q60.0256 919.054 60.0256 914.407 Q60.0256 909.76 56.3653 907.118 Q52.6732 904.444 46.212 904.444 M33.7671 924.369 Q30.5842 922.523 29.0564 919.722 Q27.4968 916.889 27.4968 912.974 Q27.4968 906.481 32.6531 902.439 Q37.8093 898.365 46.212 898.365 Q54.6147 898.365 59.771 902.439 Q64.9272 906.481 64.9272 912.974 Q64.9272 916.889 63.3994 919.722 Q61.8398 922.523 58.657 924.369 L64.0042 924.369 L64.0042 930.257 L14.479 930.257 L14.479 924.369 L33.7671 924.369 Z" fill="#000000" fill-rule="nonzero" fill-opacity="1" /><path clip-path="url(#clip680)" d="M46.0847 872.457 Q46.0847 879.554 47.7079 882.292 Q49.3312 885.029 53.2461 885.029 Q56.3653 885.029 58.2114 882.992 Q60.0256 880.923 60.0256 877.39 Q60.0256 872.52 56.5881 869.592 Q53.1188 866.632 47.3897 866.632 L46.0847 866.632 L46.0847 872.457 M43.6657 860.776 L64.0042 860.776 L64.0042 866.632 L58.5933 866.632 Q61.8398 868.637 63.3994 871.629 Q64.9272 874.621 64.9272 878.95 Q64.9272 884.424 61.8716 887.671 Q58.7843 890.885 53.6281 890.885 Q47.6125 890.885 44.5569 886.875 Q41.5014 882.833 41.5014 874.844 L41.5014 866.632 L40.9285 866.632 Q36.8862 866.632 34.6901 869.306 Q32.4621 871.947 32.4621 876.753 Q32.4621 879.809 33.1941 882.705 Q33.9262 885.602 35.3903 888.275 L29.9795 888.275 Q28.7381 885.061 28.1334 882.037 Q27.4968 879.013 27.4968 876.149 Q27.4968 868.414 31.5072 864.595 Q35.5176 860.776 43.6657 860.776 Z" fill="#000000" fill-rule="nonzero" fill-opacity="1" /><path clip-path="url(#clip680)" d="M46.212 823.122 Q39.7508 823.122 36.0905 825.796 Q32.3984 828.438 32.3984 833.085 Q32.3984 837.732 36.0905 840.405 Q39.7508 843.047 46.212 843.047 Q52.6732 843.047 56.3653 840.405 Q60.0256 837.732 60.0256 833.085 Q60.0256 828.438 56.3653 825.796 Q52.6732 823.122 46.212 823.122 M33.7671 843.047 Q30.5842 841.201 29.0564 838.4 Q27.4968 835.567 27.4968 831.652 Q27.4968 825.159 32.6531 821.117 Q37.8093 817.043 46.212 817.043 Q54.6147 817.043 59.771 821.117 Q64.9272 825.159 64.9272 831.652 Q64.9272 835.567 63.3994 838.4 Q61.8398 841.201 58.657 843.047 L64.0042 843.047 L64.0042 848.935 L14.479 848.935 L14.479 843.047 L33.7671 843.047 Z" fill="#000000" fill-rule="nonzero" fill-opacity="1" /><path clip-path="url(#clip680)" d="M28.3562 807.335 L28.3562 801.479 L64.0042 801.479 L64.0042 807.335 L28.3562 807.335 M14.479 807.335 L14.479 801.479 L21.895 801.479 L21.895 807.335 L14.479 807.335 Z" fill="#000000" fill-rule="nonzero" fill-opacity="1" /><path clip-path="url(#clip680)" d="M14.479 789.225 L14.479 783.369 L64.0042 783.369 L64.0042 789.225 L14.479 789.225 Z" fill="#000000" fill-rule="nonzero" fill-opacity="1" /><path clip-path="url(#clip680)" d="M28.3562 771.115 L28.3562 765.258 L64.0042 765.258 L64.0042 771.115 L28.3562 771.115 M14.479 771.115 L14.479 765.258 L21.895 765.258 L21.895 771.115 L14.479 771.115 Z" fill="#000000" fill-rule="nonzero" fill-opacity="1" /><path clip-path="url(#clip680)" d="M18.2347 747.211 L28.3562 747.211 L28.3562 735.148 L32.9077 735.148 L32.9077 747.211 L52.2594 747.211 Q56.6199 747.211 57.8613 746.034 Q59.1026 744.824 59.1026 741.164 L59.1026 735.148 L64.0042 735.148 L64.0042 741.164 Q64.0042 747.943 61.4897 750.521 Q58.9434 753.1 52.2594 753.1 L32.9077 753.1 L32.9077 757.396 L28.3562 757.396 L28.3562 753.1 L18.2347 753.1 L18.2347 747.211 Z" fill="#000000" fill-rule="nonzero" fill-opacity="1" /><path clip-path="url(#clip680)" d="M67.3143 712.614 Q73.68 715.096 75.6216 717.452 Q77.5631 719.807 77.5631 723.754 L77.5631 728.432 L72.6615 728.432 L72.6615 724.995 Q72.6615 722.576 71.5157 721.239 Q70.3699 719.902 66.1048 718.279 L63.4312 717.229 L28.3562 731.647 L28.3562 725.441 L56.238 714.301 L28.3562 703.161 L28.3562 696.954 L67.3143 712.614 Z" fill="#000000" fill-rule="nonzero" fill-opacity="1" /><path clip-path="url(#clip680)" d="M33.7671 644.692 L14.479 644.692 L14.479 638.835 L64.0042 638.835 L64.0042 644.692 L58.657 644.692 Q61.8398 646.538 63.3994 649.37 Q64.9272 652.171 64.9272 656.118 Q64.9272 662.579 59.771 666.653 Q54.6147 670.696 46.212 670.696 Q37.8093 670.696 32.6531 666.653 Q27.4968 662.579 27.4968 656.118 Q27.4968 652.171 29.0564 649.37 Q30.5842 646.538 33.7671 644.692 M46.212 664.648 Q52.6732 664.648 56.3653 662.006 Q60.0256 659.333 60.0256 654.686 Q60.0256 650.039 56.3653 647.365 Q52.6732 644.692 46.212 644.692 Q39.7508 644.692 36.0905 647.365 Q32.3984 650.039 32.3984 654.686 Q32.3984 659.333 36.0905 662.006 Q39.7508 664.648 46.212 664.648 Z" fill="#000000" fill-rule="nonzero" fill-opacity="1" /><path clip-path="url(#clip680)" d="M44.7161 596.28 L47.5806 596.28 L47.5806 623.207 Q53.6281 622.825 56.8109 619.579 Q59.9619 616.301 59.9619 610.476 Q59.9619 607.102 59.1344 603.951 Q58.3069 600.768 56.6518 597.649 L62.1899 597.649 Q63.5267 600.8 64.227 604.11 Q64.9272 607.42 64.9272 610.826 Q64.9272 619.356 59.9619 624.353 Q54.9967 629.318 46.5303 629.318 Q37.7774 629.318 32.6531 624.608 Q27.4968 619.865 27.4968 611.845 Q27.4968 604.651 32.1438 600.482 Q36.7589 596.28 44.7161 596.28 M42.9973 602.137 Q38.1912 602.201 35.3266 604.842 Q32.4621 607.452 32.4621 611.781 Q32.4621 616.683 35.2312 619.643 Q38.0002 622.571 43.0292 623.016 L42.9973 602.137 Z" fill="#000000" fill-rule="nonzero" fill-opacity="1" /><path clip-path="url(#clip680)" d="M42.4881 557.036 L64.0042 557.036 L64.0042 562.892 L42.679 562.892 Q37.6183 562.892 35.1038 564.866 Q32.5894 566.839 32.5894 570.786 Q32.5894 575.528 35.6131 578.265 Q38.6368 581.003 43.8567 581.003 L64.0042 581.003 L64.0042 586.891 L28.3562 586.891 L28.3562 581.003 L33.8944 581.003 Q30.6797 578.902 29.0883 576.069 Q27.4968 573.205 27.4968 569.481 Q27.4968 563.338 31.3163 560.187 Q35.1038 557.036 42.4881 557.036 Z" fill="#000000" fill-rule="nonzero" fill-opacity="1" /><path clip-path="url(#clip680)" d="M29.4065 522.629 L34.9447 522.629 Q33.6716 525.112 33.035 527.785 Q32.3984 530.459 32.3984 533.324 Q32.3984 537.684 33.7352 539.88 Q35.072 542.045 37.7456 542.045 Q39.7826 542.045 40.9603 540.485 Q42.1061 538.925 43.1565 534.215 L43.6021 532.21 Q44.9389 525.971 47.3897 523.361 Q49.8086 520.719 54.1691 520.719 Q59.1344 520.719 62.0308 524.666 Q64.9272 528.581 64.9272 535.456 Q64.9272 538.321 64.3543 541.44 Q63.8132 544.527 62.6992 547.965 L56.6518 547.965 Q58.3387 544.718 59.198 541.567 Q60.0256 538.416 60.0256 535.329 Q60.0256 531.191 58.6251 528.963 Q57.1929 526.735 54.6147 526.735 Q52.2276 526.735 50.9545 528.358 Q49.6813 529.95 48.5037 535.392 L48.0262 537.429 Q46.8804 542.872 44.5251 545.291 Q42.138 547.71 38.0002 547.71 Q32.9713 547.71 30.2341 544.145 Q27.4968 540.58 27.4968 534.024 Q27.4968 530.777 27.9743 527.913 Q28.4517 525.048 29.4065 522.629 Z" fill="#000000" fill-rule="nonzero" fill-opacity="1" /><path clip-path="url(#clip680)" d="M28.3562 511.394 L28.3562 505.537 L64.0042 505.537 L64.0042 511.394 L28.3562 511.394 M14.479 511.394 L14.479 505.537 L21.895 505.537 L21.895 511.394 L14.479 511.394 Z" fill="#000000" fill-rule="nonzero" fill-opacity="1" /><path clip-path="url(#clip680)" d="M18.2347 487.49 L28.3562 487.49 L28.3562 475.427 L32.9077 475.427 L32.9077 487.49 L52.2594 487.49 Q56.6199 487.49 57.8613 486.313 Q59.1026 485.103 59.1026 481.443 L59.1026 475.427 L64.0042 475.427 L64.0042 481.443 Q64.0042 488.223 61.4897 490.801 Q58.9434 493.379 52.2594 493.379 L32.9077 493.379 L32.9077 497.676 L28.3562 497.676 L28.3562 493.379 L18.2347 493.379 L18.2347 487.49 Z" fill="#000000" fill-rule="nonzero" fill-opacity="1" /><path clip-path="url(#clip680)" d="M67.3143 452.893 Q73.68 455.376 75.6216 457.731 Q77.5631 460.086 77.5631 464.033 L77.5631 468.712 L72.6615 468.712 L72.6615 465.274 Q72.6615 462.855 71.5157 461.518 Q70.3699 460.182 66.1048 458.558 L63.4312 457.508 L28.3562 471.926 L28.3562 465.72 L56.238 454.58 L28.3562 443.44 L28.3562 437.233 L67.3143 452.893 Z" fill="#000000" fill-rule="nonzero" fill-opacity="1" /><polyline clip-path="url(#clip682)" style="stroke:#009af9; stroke-linecap:round; stroke-linejoin:round; stroke-width:4; stroke-opacity:1; fill:none" points="263.091,1384.23 474.425,1384.23 495.558,1384.19 516.692,1383.93 537.825,1384.17 558.958,1384.2 580.092,1384.2 601.225,1384.17 622.358,1384.16 643.492,1384.06 664.625,1384.11 685.758,1383.98 706.892,1383.6 728.025,1383.28 749.158,1383.67 770.292,1383.56 791.425,1383.28 812.558,1383.63 833.692,1383.54 854.825,1382.77 875.958,1382.75 897.092,1382.02 918.225,1381.51 939.358,1380.79 960.492,1380.67 981.625,1378.82 1002.76,1378.94 1023.89,1378.65 1045.02,1377.55 1066.16,1376.34 1087.29,1374.09 1108.42,1370.34 1129.56,1370.13 1150.69,1366.45 1171.83,1360.53 1192.96,1352.01 1214.09,1340.42 1235.23,1326.92 1256.36,1319.71 1277.49,1294.11 1298.63,1272.04 1319.76,1238.37 1340.89,1197.18 1362.03,1184.13 1383.16,1154.8 1404.29,1081.32 1425.43,1107.2 1446.56,1153.55 1467.69,1115.21 1488.83,1053.89 1509.96,1096.53 1531.09,1034.25 1552.23,991.045 1573.36,1061.19 1594.49,1074.52 1615.63,1039.88 1636.76,1056.16 1657.89,1109.52 1679.03,1097.71 1700.16,1078.13 1721.29,1239.2 1742.43,1231.55 1763.56,1225.29 1784.69,1232.79 1805.83,1230.92 1826.96,1232.87 1848.09,1252.03 1869.23,1295.1 1890.36,1315.28 1911.49,1330.67 1932.63,1354.73 1953.76,1359.48 1974.89,1367.24 1996.03,1371.38 2017.16,1375.2 2038.29,1377.29 2059.43,1379.29 2080.56,1380.42 2101.69,1381.57 2122.83,1381.91 2143.96,1383.24 2165.09,1383.55 2186.23,1383.76 2207.36,1383.71 2228.49,1384.04 2249.63,1384.17 2270.76,1384.11 2291.89,1384.22 "/>
<polyline clip-path="url(#clip682)" style="stroke:#e26f46; stroke-linecap:round; stroke-linejoin:round; stroke-width:4; stroke-opacity:1; fill:none" points="263.091,1384.24 474.425,1384.24 495.558,1384.24 516.692,1384.24 537.825,1384.24 558.958,1384.24 580.092,1384.24 601.225,1384.24 622.358,1384.24 643.492,1384.24 664.625,1384.24 685.758,1384.24 706.892,1384.24 728.025,1384.23 749.158,1384.23 770.292,1384.22 791.425,1384.21 812.558,1384.18 833.692,1384.13 854.825,1384.04 875.958,1383.9 897.092,1383.66 918.225,1383.26 939.358,1382.62 960.492,1381.63 981.625,1380.09 1002.76,1377.79 1023.89,1374.4 1045.02,1369.5 1066.16,1362.58 1087.29,1352.99 1108.42,1340 1129.56,1322.74 1150.69,1300.28 1171.83,1271.67 1192.96,1235.96 1214.09,1192.32 1235.23,1140.13 1256.36,1079.02 1277.49,1009.03 1298.63,930.653 1319.76,844.881 1340.89,753.262 1362.03,657.857 1383.16,561.186 1404.29,466.118 1425.43,375.733 1446.56,293.147 1467.69,221.327 1488.83,162.906 1509.96,120.022 1531.09,94.184 1552.23,86.1857 1573.36,96.069 1594.49,123.142 1615.63,166.045 1636.76,222.858 1657.89,291.238 1679.03,368.574 1700.16,452.143 1721.29,539.259 1742.43,627.402 1763.56,714.319 1784.69,798.101 1805.83,877.217 1826.96,950.534 1848.09,1017.3 1869.23,1077.12 1890.36,1129.88 1911.49,1175.76 1932.63,1215.09 1953.76,1248.36 1974.89,1276.15 1996.03,1299.08 2017.16,1317.77 2038.29,1332.84 2059.43,1344.85 2080.56,1354.31 2101.69,1361.7 2122.83,1367.41 2143.96,1371.78 2165.09,1375.09 2186.23,1377.57 2207.36,1379.42 2228.49,1380.78 2249.63,1381.78 2270.76,1382.5 2291.89,1383.02 "/>
<path clip-path="url(#clip680)" d="M273.912 248.629 L823.268 248.629 L823.268 93.1086 L273.912 93.1086  Z" fill="#ffffff" fill-rule="evenodd" fill-opacity="1"/>
<polyline clip-path="url(#clip680)" style="stroke:#ffffff; stroke-linecap:round; stroke-linejoin:round; stroke-width:4; stroke-opacity:1; fill:none" points="273.912,248.629 823.268,248.629 823.268,93.1086 273.912,93.1086 273.912,248.629 "/>
<polyline clip-path="url(#clip680)" style="stroke:#009af9; stroke-linecap:round; stroke-linejoin:round; stroke-width:4; stroke-opacity:1; fill:none" points="297.807,144.949 441.175,144.949 "/>
<path clip-path="url(#clip680)" d="M465.07 127.669 L469.746 127.669 L469.746 141.835 L486.736 141.835 L486.736 127.669 L491.412 127.669 L491.412 162.229 L486.736 162.229 L486.736 145.77 L469.746 145.77 L469.746 162.229 L465.07 162.229 L465.07 127.669 Z" fill="#000000" fill-rule="nonzero" fill-opacity="1" /><path clip-path="url(#clip680)" d="M500.533 136.303 L504.792 136.303 L504.792 162.229 L500.533 162.229 L500.533 136.303 M500.533 126.21 L504.792 126.21 L504.792 131.604 L500.533 131.604 L500.533 126.21 Z" fill="#000000" fill-rule="nonzero" fill-opacity="1" /><path clip-path="url(#clip680)" d="M530.232 137.067 L530.232 141.094 Q528.426 140.169 526.482 139.706 Q524.537 139.243 522.454 139.243 Q519.283 139.243 517.685 140.215 Q516.111 141.187 516.111 143.131 Q516.111 144.613 517.245 145.469 Q518.38 146.303 521.806 147.067 L523.264 147.391 Q527.801 148.363 529.699 150.145 Q531.62 151.905 531.62 155.076 Q531.62 158.687 528.75 160.793 Q525.903 162.9 520.903 162.9 Q518.82 162.9 516.551 162.483 Q514.306 162.09 511.806 161.28 L511.806 156.881 Q514.167 158.108 516.458 158.733 Q518.75 159.335 520.995 159.335 Q524.005 159.335 525.625 158.317 Q527.245 157.275 527.245 155.4 Q527.245 153.664 526.065 152.738 Q524.907 151.812 520.949 150.956 L519.468 150.608 Q515.509 149.775 513.75 148.062 Q511.991 146.326 511.991 143.317 Q511.991 139.659 514.583 137.669 Q517.176 135.678 521.945 135.678 Q524.306 135.678 526.389 136.025 Q528.472 136.372 530.232 137.067 Z" fill="#000000" fill-rule="nonzero" fill-opacity="1" /><path clip-path="url(#clip680)" d="M542.616 128.942 L542.616 136.303 L551.389 136.303 L551.389 139.613 L542.616 139.613 L542.616 153.687 Q542.616 156.858 543.472 157.761 Q544.352 158.664 547.014 158.664 L551.389 158.664 L551.389 162.229 L547.014 162.229 Q542.083 162.229 540.208 160.4 Q538.333 158.548 538.333 153.687 L538.333 139.613 L535.208 139.613 L535.208 136.303 L538.333 136.303 L538.333 128.942 L542.616 128.942 Z" fill="#000000" fill-rule="nonzero" fill-opacity="1" /><path clip-path="url(#clip680)" d="M567.037 139.289 Q563.611 139.289 561.62 141.974 Q559.63 144.636 559.63 149.289 Q559.63 153.942 561.597 156.627 Q563.588 159.289 567.037 159.289 Q570.44 159.289 572.43 156.604 Q574.421 153.918 574.421 149.289 Q574.421 144.682 572.43 141.997 Q570.44 139.289 567.037 139.289 M567.037 135.678 Q572.592 135.678 575.764 139.289 Q578.935 142.9 578.935 149.289 Q578.935 155.655 575.764 159.289 Q572.592 162.9 567.037 162.9 Q561.458 162.9 558.287 159.289 Q555.139 155.655 555.139 149.289 Q555.139 142.9 558.287 139.289 Q561.458 135.678 567.037 135.678 Z" fill="#000000" fill-rule="nonzero" fill-opacity="1" /><path clip-path="url(#clip680)" d="M603.055 148.965 Q603.055 144.335 601.134 141.789 Q599.236 139.243 595.787 139.243 Q592.361 139.243 590.44 141.789 Q588.541 144.335 588.541 148.965 Q588.541 153.571 590.44 156.118 Q592.361 158.664 595.787 158.664 Q599.236 158.664 601.134 156.118 Q603.055 153.571 603.055 148.965 M607.314 159.011 Q607.314 165.631 604.375 168.849 Q601.435 172.09 595.37 172.09 Q593.125 172.09 591.134 171.742 Q589.143 171.418 587.268 170.724 L587.268 166.58 Q589.143 167.599 590.972 168.085 Q592.801 168.571 594.699 168.571 Q598.889 168.571 600.972 166.372 Q603.055 164.196 603.055 159.775 L603.055 157.668 Q601.736 159.96 599.676 161.094 Q597.615 162.229 594.745 162.229 Q589.977 162.229 587.06 158.594 Q584.143 154.96 584.143 148.965 Q584.143 142.946 587.06 139.312 Q589.977 135.678 594.745 135.678 Q597.615 135.678 599.676 136.812 Q601.736 137.946 603.055 140.238 L603.055 136.303 L607.314 136.303 L607.314 159.011 Z" fill="#000000" fill-rule="nonzero" fill-opacity="1" /><path clip-path="url(#clip680)" d="M631.111 140.284 Q630.393 139.868 629.537 139.682 Q628.703 139.474 627.685 139.474 Q624.074 139.474 622.129 141.835 Q620.208 144.173 620.208 148.571 L620.208 162.229 L615.926 162.229 L615.926 136.303 L620.208 136.303 L620.208 140.331 Q621.55 137.969 623.703 136.835 Q625.856 135.678 628.935 135.678 Q629.375 135.678 629.907 135.747 Q630.439 135.794 631.087 135.909 L631.111 140.284 Z" fill="#000000" fill-rule="nonzero" fill-opacity="1" /><path clip-path="url(#clip680)" d="M647.361 149.196 Q642.199 149.196 640.208 150.377 Q638.217 151.557 638.217 154.405 Q638.217 156.673 639.699 158.016 Q641.203 159.335 643.773 159.335 Q647.314 159.335 649.444 156.835 Q651.597 154.312 651.597 150.145 L651.597 149.196 L647.361 149.196 M655.856 147.437 L655.856 162.229 L651.597 162.229 L651.597 158.293 Q650.138 160.655 647.962 161.789 Q645.786 162.9 642.638 162.9 Q638.657 162.9 636.296 160.678 Q633.958 158.432 633.958 154.682 Q633.958 150.307 636.874 148.085 Q639.814 145.863 645.624 145.863 L651.597 145.863 L651.597 145.446 Q651.597 142.507 649.652 140.909 Q647.731 139.289 644.236 139.289 Q642.013 139.289 639.907 139.821 Q637.8 140.354 635.856 141.419 L635.856 137.483 Q638.194 136.581 640.393 136.141 Q642.592 135.678 644.675 135.678 Q650.3 135.678 653.078 138.594 Q655.856 141.511 655.856 147.437 Z" fill="#000000" fill-rule="nonzero" fill-opacity="1" /><path clip-path="url(#clip680)" d="M684.814 141.28 Q686.411 138.409 688.633 137.044 Q690.856 135.678 693.865 135.678 Q697.916 135.678 700.115 138.525 Q702.314 141.349 702.314 146.581 L702.314 162.229 L698.032 162.229 L698.032 146.719 Q698.032 142.993 696.712 141.187 Q695.393 139.382 692.684 139.382 Q689.374 139.382 687.453 141.581 Q685.532 143.78 685.532 147.576 L685.532 162.229 L681.249 162.229 L681.249 146.719 Q681.249 142.969 679.93 141.187 Q678.61 139.382 675.856 139.382 Q672.592 139.382 670.671 141.604 Q668.749 143.803 668.749 147.576 L668.749 162.229 L664.467 162.229 L664.467 136.303 L668.749 136.303 L668.749 140.331 Q670.208 137.946 672.245 136.812 Q674.282 135.678 677.083 135.678 Q679.907 135.678 681.874 137.113 Q683.865 138.548 684.814 141.28 Z" fill="#000000" fill-rule="nonzero" fill-opacity="1" /><polyline clip-path="url(#clip680)" style="stroke:#e26f46; stroke-linecap:round; stroke-linejoin:round; stroke-width:4; stroke-opacity:1; fill:none" points="297.807,196.789 441.175,196.789 "/>
<path clip-path="url(#clip680)" d="M469.746 183.351 L469.746 210.226 L475.394 210.226 Q482.547 210.226 485.857 206.985 Q489.19 203.745 489.19 196.754 Q489.19 189.809 485.857 186.592 Q482.547 183.351 475.394 183.351 L469.746 183.351 M465.07 179.509 L474.676 179.509 Q484.723 179.509 489.422 183.698 Q494.121 187.865 494.121 196.754 Q494.121 205.689 489.398 209.879 Q484.676 214.069 474.676 214.069 L465.07 214.069 L465.07 179.509 Z" fill="#000000" fill-rule="nonzero" fill-opacity="1" /><path clip-path="url(#clip680)" d="M501.389 188.143 L505.648 188.143 L505.648 214.069 L501.389 214.069 L501.389 188.143 M501.389 178.05 L505.648 178.05 L505.648 183.444 L501.389 183.444 L501.389 178.05 Z" fill="#000000" fill-rule="nonzero" fill-opacity="1" /><path clip-path="url(#clip680)" d="M531.088 188.907 L531.088 192.934 Q529.282 192.009 527.338 191.546 Q525.394 191.083 523.31 191.083 Q520.139 191.083 518.542 192.055 Q516.968 193.027 516.968 194.971 Q516.968 196.453 518.102 197.309 Q519.236 198.143 522.662 198.907 L524.12 199.231 Q528.657 200.203 530.556 201.985 Q532.477 203.745 532.477 206.916 Q532.477 210.527 529.607 212.633 Q526.759 214.74 521.759 214.74 Q519.676 214.74 517.408 214.323 Q515.162 213.93 512.662 213.12 L512.662 208.721 Q515.023 209.948 517.315 210.573 Q519.607 211.175 521.852 211.175 Q524.861 211.175 526.482 210.157 Q528.102 209.115 528.102 207.24 Q528.102 205.504 526.921 204.578 Q525.764 203.652 521.806 202.796 L520.324 202.448 Q516.366 201.615 514.607 199.902 Q512.847 198.166 512.847 195.157 Q512.847 191.499 515.44 189.509 Q518.033 187.518 522.801 187.518 Q525.162 187.518 527.245 187.865 Q529.329 188.212 531.088 188.907 Z" fill="#000000" fill-rule="nonzero" fill-opacity="1" /><path clip-path="url(#clip680)" d="M543.472 180.782 L543.472 188.143 L552.245 188.143 L552.245 191.453 L543.472 191.453 L543.472 205.527 Q543.472 208.698 544.329 209.601 Q545.208 210.504 547.87 210.504 L552.245 210.504 L552.245 214.069 L547.87 214.069 Q542.94 214.069 541.065 212.24 Q539.19 210.388 539.19 205.527 L539.19 191.453 L536.065 191.453 L536.065 188.143 L539.19 188.143 L539.19 180.782 L543.472 180.782 Z" fill="#000000" fill-rule="nonzero" fill-opacity="1" /><path clip-path="url(#clip680)" d="M572.87 192.124 Q572.153 191.708 571.296 191.522 Q570.463 191.314 569.444 191.314 Q565.833 191.314 563.889 193.675 Q561.967 196.013 561.967 200.411 L561.967 214.069 L557.685 214.069 L557.685 188.143 L561.967 188.143 L561.967 192.171 Q563.31 189.809 565.463 188.675 Q567.616 187.518 570.694 187.518 Q571.134 187.518 571.666 187.587 Q572.199 187.634 572.847 187.749 L572.87 192.124 Z" fill="#000000" fill-rule="nonzero" fill-opacity="1" /><path clip-path="url(#clip680)" d="M577.338 188.143 L581.597 188.143 L581.597 214.069 L577.338 214.069 L577.338 188.143 M577.338 178.05 L581.597 178.05 L581.597 183.444 L577.338 183.444 L577.338 178.05 Z" fill="#000000" fill-rule="nonzero" fill-opacity="1" /><path clip-path="url(#clip680)" d="M609.12 201.129 Q609.12 196.43 607.176 193.768 Q605.254 191.083 601.875 191.083 Q598.495 191.083 596.551 193.768 Q594.629 196.43 594.629 201.129 Q594.629 205.828 596.551 208.513 Q598.495 211.175 601.875 211.175 Q605.254 211.175 607.176 208.513 Q609.12 205.828 609.12 201.129 M594.629 192.078 Q595.972 189.763 598.009 188.652 Q600.069 187.518 602.916 187.518 Q607.639 187.518 610.578 191.268 Q613.541 195.018 613.541 201.129 Q613.541 207.24 610.578 210.99 Q607.639 214.74 602.916 214.74 Q600.069 214.74 598.009 213.629 Q595.972 212.495 594.629 210.18 L594.629 214.069 L590.347 214.069 L590.347 178.05 L594.629 178.05 L594.629 192.078 Z" fill="#000000" fill-rule="nonzero" fill-opacity="1" /><path clip-path="url(#clip680)" d="M620.162 203.837 L620.162 188.143 L624.421 188.143 L624.421 203.675 Q624.421 207.356 625.856 209.208 Q627.291 211.036 630.162 211.036 Q633.611 211.036 635.601 208.837 Q637.615 206.638 637.615 202.842 L637.615 188.143 L641.874 188.143 L641.874 214.069 L637.615 214.069 L637.615 210.087 Q636.064 212.448 634.004 213.606 Q631.967 214.74 629.259 214.74 Q624.791 214.74 622.476 211.962 Q620.162 209.184 620.162 203.837 M630.879 187.518 L630.879 187.518 Z" fill="#000000" fill-rule="nonzero" fill-opacity="1" /><path clip-path="url(#clip680)" d="M654.86 180.782 L654.86 188.143 L663.634 188.143 L663.634 191.453 L654.86 191.453 L654.86 205.527 Q654.86 208.698 655.717 209.601 Q656.597 210.504 659.259 210.504 L663.634 210.504 L663.634 214.069 L659.259 214.069 Q654.328 214.069 652.453 212.24 Q650.578 210.388 650.578 205.527 L650.578 191.453 L647.453 191.453 L647.453 188.143 L650.578 188.143 L650.578 180.782 L654.86 180.782 Z" fill="#000000" fill-rule="nonzero" fill-opacity="1" /><path clip-path="url(#clip680)" d="M669.235 188.143 L673.495 188.143 L673.495 214.069 L669.235 214.069 L669.235 188.143 M669.235 178.05 L673.495 178.05 L673.495 183.444 L669.235 183.444 L669.235 178.05 Z" fill="#000000" fill-rule="nonzero" fill-opacity="1" /><path clip-path="url(#clip680)" d="M692.453 191.129 Q689.027 191.129 687.036 193.814 Q685.046 196.476 685.046 201.129 Q685.046 205.782 687.013 208.467 Q689.004 211.129 692.453 211.129 Q695.856 211.129 697.846 208.444 Q699.837 205.758 699.837 201.129 Q699.837 196.522 697.846 193.837 Q695.856 191.129 692.453 191.129 M692.453 187.518 Q698.008 187.518 701.18 191.129 Q704.351 194.74 704.351 201.129 Q704.351 207.495 701.18 211.129 Q698.008 214.74 692.453 214.74 Q686.874 214.74 683.703 211.129 Q680.555 207.495 680.555 201.129 Q680.555 194.74 683.703 191.129 Q686.874 187.518 692.453 187.518 Z" fill="#000000" fill-rule="nonzero" fill-opacity="1" /><path clip-path="url(#clip680)" d="M732.962 198.421 L732.962 214.069 L728.703 214.069 L728.703 198.559 Q728.703 194.879 727.268 193.05 Q725.832 191.222 722.962 191.222 Q719.513 191.222 717.522 193.421 Q715.531 195.62 715.531 199.416 L715.531 214.069 L711.249 214.069 L711.249 188.143 L715.531 188.143 L715.531 192.171 Q717.059 189.833 719.119 188.675 Q721.203 187.518 723.911 187.518 Q728.379 187.518 730.67 190.296 Q732.962 193.05 732.962 198.421 Z" fill="#000000" fill-rule="nonzero" fill-opacity="1" /><path clip-path="url(#clip680)" d="M769.652 178.05 L769.652 181.592 L765.577 181.592 Q763.286 181.592 762.383 182.518 Q761.503 183.444 761.503 185.851 L761.503 188.143 L768.517 188.143 L768.517 191.453 L761.503 191.453 L761.503 214.069 L757.221 214.069 L757.221 191.453 L753.147 191.453 L753.147 188.143 L757.221 188.143 L757.221 186.337 Q757.221 182.009 759.235 180.041 Q761.249 178.05 765.624 178.05 L769.652 178.05 Z" fill="#000000" fill-rule="nonzero" fill-opacity="1" /><path clip-path="url(#clip680)" d="M773.216 188.143 L777.476 188.143 L777.476 214.069 L773.216 214.069 L773.216 188.143 M773.216 178.05 L777.476 178.05 L777.476 183.444 L773.216 183.444 L773.216 178.05 Z" fill="#000000" fill-rule="nonzero" fill-opacity="1" /><path clip-path="url(#clip680)" d="M790.6 180.782 L790.6 188.143 L799.374 188.143 L799.374 191.453 L790.6 191.453 L790.6 205.527 Q790.6 208.698 791.457 209.601 Q792.337 210.504 794.999 210.504 L799.374 210.504 L799.374 214.069 L794.999 214.069 Q790.068 214.069 788.193 212.24 Q786.318 210.388 786.318 205.527 L786.318 191.453 L783.193 191.453 L783.193 188.143 L786.318 188.143 L786.318 180.782 L790.6 180.782 Z" fill="#000000" fill-rule="nonzero" fill-opacity="1" /></svg>
