<?xml version="1.0" encoding="utf-8"?>
<svg xmlns="http://www.w3.org/2000/svg" xmlns:xlink="http://www.w3.org/1999/xlink" width="600" height="400" viewBox="0 0 2400 1600">
<defs>
  <clipPath id="clip640">
    <rect x="0" y="0" width="2400" height="1600"/>
  </clipPath>
</defs>
<path clip-path="url(#clip640)" d="M0 1600 L2400 1600 L2400 8.88178e-14 L0 8.88178e-14  Z" fill="#ffffff" fill-rule="evenodd" fill-opacity="1"/>
<defs>
  <clipPath id="clip641">
    <rect x="480" y="0" width="1681" height="1600"/>
  </clipPath>
</defs>
<path clip-path="url(#clip640)" d="M279.519 1552.76 L2352.76 1552.76 L2352.76 47.2441 L279.519 47.2441  Z" fill="#ffffff" fill-rule="evenodd" fill-opacity="1"/>
<defs>
  <clipPath id="clip642">
    <rect x="279" y="47" width="2074" height="1507"/>
  </clipPath>
</defs>
<polyline clip-path="url(#clip642)" style="stroke:#000000; stroke-linecap:round; stroke-linejoin:round; stroke-width:2; stroke-opacity:0.1; fill:none" points="279.519,1472.1 2352.76,1472.1 "/>
<polyline clip-path="url(#clip642)" style="stroke:#000000; stroke-linecap:round; stroke-linejoin:round; stroke-width:2; stroke-opacity:0.1; fill:none" points="279.519,1155.07 2352.76,1155.07 "/>
<polyline clip-path="url(#clip642)" style="stroke:#000000; stroke-linecap:round; stroke-linejoin:round; stroke-width:2; stroke-opacity:0.1; fill:none" points="279.519,838.044 2352.76,838.044 "/>
<polyline clip-path="url(#clip642)" style="stroke:#000000; stroke-linecap:round; stroke-linejoin:round; stroke-width:2; stroke-opacity:0.1; fill:none" points="279.519,521.014 2352.76,521.014 "/>
<polyline clip-path="url(#clip642)" style="stroke:#000000; stroke-linecap:round; stroke-linejoin:round; stroke-width:2; stroke-opacity:0.1; fill:none" points="279.519,203.984 2352.76,203.984 "/>
<polyline clip-path="url(#clip642)" style="stroke:#000000; stroke-linecap:round; stroke-linejoin:round; stroke-width:2; stroke-opacity:0.1; fill:none" points="279.519,1472.1 2352.76,1472.1 "/>
<polyline clip-path="url(#clip642)" style="stroke:#000000; stroke-linecap:round; stroke-linejoin:round; stroke-width:2; stroke-opacity:0.1; fill:none" points="279.519,1155.07 2352.76,1155.07 "/>
<polyline clip-path="url(#clip642)" style="stroke:#000000; stroke-linecap:round; stroke-linejoin:round; stroke-width:2; stroke-opacity:0.1; fill:none" points="279.519,838.044 2352.76,838.044 "/>
<polyline clip-path="url(#clip642)" style="stroke:#000000; stroke-linecap:round; stroke-linejoin:round; stroke-width:2; stroke-opacity:0.1; fill:none" points="279.519,521.014 2352.76,521.014 "/>
<polyline clip-path="url(#clip642)" style="stroke:#000000; stroke-linecap:round; stroke-linejoin:round; stroke-width:2; stroke-opacity:0.1; fill:none" points="279.519,203.984 2352.76,203.984 "/>
<polyline clip-path="url(#clip640)" style="stroke:#000000; stroke-linecap:round; stroke-linejoin:round; stroke-width:4; stroke-opacity:1; fill:none" points="279.519,1552.76 2352.76,1552.76 "/>
<polyline clip-path="url(#clip640)" style="stroke:#000000; stroke-linecap:round; stroke-linejoin:round; stroke-width:4; stroke-opacity:1; fill:none" points="279.519,47.2441 2352.76,47.2441 "/>
<polyline clip-path="url(#clip640)" style="stroke:#000000; stroke-linecap:round; stroke-linejoin:round; stroke-width:4; stroke-opacity:1; fill:none" points="279.519,1552.76 279.519,47.2441 "/>
<polyline clip-path="url(#clip640)" style="stroke:#000000; stroke-linecap:round; stroke-linejoin:round; stroke-width:4; stroke-opacity:1; fill:none" points="2352.76,1552.76 2352.76,47.2441 "/>
<polyline clip-path="url(#clip640)" style="stroke:#000000; stroke-linecap:round; stroke-linejoin:round; stroke-width:4; stroke-opacity:1; fill:none" points="279.519,1472.1 298.416,1472.1 "/>
<polyline clip-path="url(#clip640)" style="stroke:#000000; stroke-linecap:round; stroke-linejoin:round; stroke-width:4; stroke-opacity:1; fill:none" points="279.519,1155.07 298.416,1155.07 "/>
<polyline clip-path="url(#clip640)" style="stroke:#000000; stroke-linecap:round; stroke-linejoin:round; stroke-width:4; stroke-opacity:1; fill:none" points="279.519,838.044 298.416,838.044 "/>
<polyline clip-path="url(#clip640)" style="stroke:#000000; stroke-linecap:round; stroke-linejoin:round; stroke-width:4; stroke-opacity:1; fill:none" points="279.519,521.014 298.416,521.014 "/>
<polyline clip-path="url(#clip640)" style="stroke:#000000; stroke-linecap:round; stroke-linejoin:round; stroke-width:4; stroke-opacity:1; fill:none" points="279.519,203.984 298.416,203.984 "/>
<polyline clip-path="url(#clip640)" style="stroke:#000000; stroke-linecap:round; stroke-linejoin:round; stroke-width:4; stroke-opacity:1; fill:none" points="2352.76,1472.1 2333.86,1472.1 "/>
<polyline clip-path="url(#clip640)" style="stroke:#000000; stroke-linecap:round; stroke-linejoin:round; stroke-width:4; stroke-opacity:1; fill:none" points="2352.76,1155.07 2333.86,1155.07 "/>
<polyline clip-path="url(#clip640)" style="stroke:#000000; stroke-linecap:round; stroke-linejoin:round; stroke-width:4; stroke-opacity:1; fill:none" points="2352.76,838.044 2333.86,838.044 "/>
<polyline clip-path="url(#clip640)" style="stroke:#000000; stroke-linecap:round; stroke-linejoin:round; stroke-width:4; stroke-opacity:1; fill:none" points="2352.76,521.014 2333.86,521.014 "/>
<polyline clip-path="url(#clip640)" style="stroke:#000000; stroke-linecap:round; stroke-linejoin:round; stroke-width:4; stroke-opacity:1; fill:none" points="2352.76,203.984 2333.86,203.984 "/>
<path clip-path="url(#clip640)" d="M126.598 1470.24 Q123.45 1470.24 121.598 1472.39 Q119.769 1474.55 119.769 1478.3 Q119.769 1482.02 121.598 1484.2 Q123.45 1486.35 126.598 1486.35 Q129.746 1486.35 131.575 1484.2 Q133.427 1482.02 133.427 1478.3 Q133.427 1474.55 131.575 1472.39 Q129.746 1470.24 126.598 1470.24 M135.88 1455.59 L135.88 1459.85 Q134.121 1459.01 132.316 1458.57 Q130.533 1458.13 128.774 1458.13 Q124.144 1458.13 121.691 1461.26 Q119.26 1464.38 118.913 1470.7 Q120.279 1468.69 122.339 1467.62 Q124.399 1466.54 126.876 1466.54 Q132.084 1466.54 135.093 1469.71 Q138.126 1472.86 138.126 1478.3 Q138.126 1483.62 134.978 1486.84 Q131.83 1490.05 126.598 1490.05 Q120.603 1490.05 117.431 1485.47 Q114.26 1480.87 114.26 1472.14 Q114.26 1463.94 118.149 1459.08 Q122.038 1454.2 128.589 1454.2 Q130.348 1454.2 132.13 1454.55 Q133.936 1454.89 135.88 1455.59 Z" fill="#000000" fill-rule="nonzero" fill-opacity="1" /><path clip-path="url(#clip640)" d="M146.228 1454.82 L164.584 1454.82 L164.584 1458.76 L150.51 1458.76 L150.51 1467.23 Q151.528 1466.88 152.547 1466.72 Q153.566 1466.54 154.584 1466.54 Q160.371 1466.54 163.751 1469.71 Q167.13 1472.88 167.13 1478.3 Q167.13 1483.87 163.658 1486.98 Q160.186 1490.05 153.866 1490.05 Q151.691 1490.05 149.422 1489.68 Q147.177 1489.31 144.769 1488.57 L144.769 1483.87 Q146.853 1485.01 149.075 1485.56 Q151.297 1486.12 153.774 1486.12 Q157.778 1486.12 160.116 1484.01 Q162.454 1481.91 162.454 1478.3 Q162.454 1474.68 160.116 1472.58 Q157.778 1470.47 153.774 1470.47 Q151.899 1470.47 150.024 1470.89 Q148.172 1471.3 146.228 1472.18 L146.228 1454.82 Z" fill="#000000" fill-rule="nonzero" fill-opacity="1" /><path clip-path="url(#clip640)" d="M176.343 1483.5 L181.227 1483.5 L181.227 1489.38 L176.343 1489.38 L176.343 1483.5 Z" fill="#000000" fill-rule="nonzero" fill-opacity="1" /><path clip-path="url(#clip640)" d="M191.459 1454.82 L209.815 1454.82 L209.815 1458.76 L195.741 1458.76 L195.741 1467.23 Q196.76 1466.88 197.778 1466.72 Q198.797 1466.54 199.815 1466.54 Q205.602 1466.54 208.982 1469.71 Q212.361 1472.88 212.361 1478.3 Q212.361 1483.87 208.889 1486.98 Q205.417 1490.05 199.098 1490.05 Q196.922 1490.05 194.653 1489.68 Q192.408 1489.31 190 1488.57 L190 1483.87 Q192.084 1485.01 194.306 1485.56 Q196.528 1486.12 199.005 1486.12 Q203.01 1486.12 205.348 1484.01 Q207.686 1481.91 207.686 1478.3 Q207.686 1474.68 205.348 1472.58 Q203.01 1470.47 199.005 1470.47 Q197.13 1470.47 195.255 1470.89 Q193.403 1471.3 191.459 1472.18 L191.459 1454.82 Z" fill="#000000" fill-rule="nonzero" fill-opacity="1" /><path clip-path="url(#clip640)" d="M231.574 1457.9 Q227.963 1457.9 226.135 1461.47 Q224.329 1465.01 224.329 1472.14 Q224.329 1479.24 226.135 1482.81 Q227.963 1486.35 231.574 1486.35 Q235.209 1486.35 237.014 1482.81 Q238.843 1479.24 238.843 1472.14 Q238.843 1465.01 237.014 1461.47 Q235.209 1457.9 231.574 1457.9 M231.574 1454.2 Q237.384 1454.2 240.44 1458.8 Q243.519 1463.39 243.519 1472.14 Q243.519 1480.87 240.44 1485.47 Q237.384 1490.05 231.574 1490.05 Q225.764 1490.05 222.686 1485.47 Q219.63 1480.87 219.63 1472.14 Q219.63 1463.39 222.686 1458.8 Q225.764 1454.2 231.574 1454.2 Z" fill="#000000" fill-rule="nonzero" fill-opacity="1" /><path clip-path="url(#clip640)" d="M127.593 1153.21 Q124.445 1153.21 122.593 1155.36 Q120.765 1157.52 120.765 1161.27 Q120.765 1164.99 122.593 1167.17 Q124.445 1169.32 127.593 1169.32 Q130.742 1169.32 132.57 1167.17 Q134.422 1164.99 134.422 1161.27 Q134.422 1157.52 132.57 1155.36 Q130.742 1153.21 127.593 1153.21 M136.876 1138.56 L136.876 1142.82 Q135.117 1141.98 133.311 1141.54 Q131.529 1141.1 129.769 1141.1 Q125.14 1141.1 122.686 1144.23 Q120.255 1147.35 119.908 1153.67 Q121.274 1151.66 123.334 1150.59 Q125.394 1149.51 127.871 1149.51 Q133.08 1149.51 136.089 1152.68 Q139.121 1155.83 139.121 1161.27 Q139.121 1166.59 135.973 1169.81 Q132.825 1173.02 127.593 1173.02 Q121.598 1173.02 118.427 1168.44 Q115.256 1163.84 115.256 1155.11 Q115.256 1146.91 119.144 1142.05 Q123.033 1137.17 129.584 1137.17 Q131.343 1137.17 133.126 1137.52 Q134.931 1137.86 136.876 1138.56 Z" fill="#000000" fill-rule="nonzero" fill-opacity="1" /><path clip-path="url(#clip640)" d="M147.223 1137.79 L165.579 1137.79 L165.579 1141.73 L151.505 1141.73 L151.505 1150.2 Q152.524 1149.85 153.542 1149.69 Q154.561 1149.51 155.579 1149.51 Q161.366 1149.51 164.746 1152.68 Q168.126 1155.85 168.126 1161.27 Q168.126 1166.84 164.653 1169.95 Q161.181 1173.02 154.862 1173.02 Q152.686 1173.02 150.417 1172.65 Q148.172 1172.28 145.765 1171.54 L145.765 1166.84 Q147.848 1167.98 150.07 1168.53 Q152.292 1169.09 154.769 1169.09 Q158.774 1169.09 161.112 1166.98 Q163.45 1164.88 163.45 1161.27 Q163.45 1157.65 161.112 1155.55 Q158.774 1153.44 154.769 1153.44 Q152.894 1153.44 151.019 1153.86 Q149.167 1154.27 147.223 1155.15 L147.223 1137.79 Z" fill="#000000" fill-rule="nonzero" fill-opacity="1" /><path clip-path="url(#clip640)" d="M177.339 1166.47 L182.223 1166.47 L182.223 1172.35 L177.339 1172.35 L177.339 1166.47 Z" fill="#000000" fill-rule="nonzero" fill-opacity="1" /><path clip-path="url(#clip640)" d="M191.227 1137.79 L213.449 1137.79 L213.449 1139.78 L200.903 1172.35 L196.019 1172.35 L207.824 1141.73 L191.227 1141.73 L191.227 1137.79 Z" fill="#000000" fill-rule="nonzero" fill-opacity="1" /><path clip-path="url(#clip640)" d="M222.616 1137.79 L240.972 1137.79 L240.972 1141.73 L226.898 1141.73 L226.898 1150.2 Q227.917 1149.85 228.935 1149.69 Q229.954 1149.51 230.972 1149.51 Q236.76 1149.51 240.139 1152.68 Q243.519 1155.85 243.519 1161.27 Q243.519 1166.84 240.047 1169.95 Q236.574 1173.02 230.255 1173.02 Q228.079 1173.02 225.81 1172.65 Q223.565 1172.28 221.158 1171.54 L221.158 1166.84 Q223.241 1167.98 225.463 1168.53 Q227.685 1169.09 230.162 1169.09 Q234.167 1169.09 236.505 1166.98 Q238.843 1164.88 238.843 1161.27 Q238.843 1157.65 236.505 1155.55 Q234.167 1153.44 230.162 1153.44 Q228.287 1153.44 226.412 1153.86 Q224.56 1154.27 222.616 1155.15 L222.616 1137.79 Z" fill="#000000" fill-rule="nonzero" fill-opacity="1" /><path clip-path="url(#clip640)" d="M126.598 836.18 Q123.45 836.18 121.598 838.333 Q119.769 840.486 119.769 844.236 Q119.769 847.963 121.598 850.138 Q123.45 852.291 126.598 852.291 Q129.746 852.291 131.575 850.138 Q133.427 847.963 133.427 844.236 Q133.427 840.486 131.575 838.333 Q129.746 836.18 126.598 836.18 M135.88 821.527 L135.88 825.787 Q134.121 824.953 132.316 824.514 Q130.533 824.074 128.774 824.074 Q124.144 824.074 121.691 827.199 Q119.26 830.324 118.913 836.643 Q120.279 834.629 122.339 833.564 Q124.399 832.476 126.876 832.476 Q132.084 832.476 135.093 835.648 Q138.126 838.796 138.126 844.236 Q138.126 849.56 134.978 852.777 Q131.83 855.995 126.598 855.995 Q120.603 855.995 117.431 851.412 Q114.26 846.805 114.26 838.078 Q114.26 829.884 118.149 825.023 Q122.038 820.139 128.589 820.139 Q130.348 820.139 132.13 820.486 Q133.936 820.833 135.88 821.527 Z" fill="#000000" fill-rule="nonzero" fill-opacity="1" /><path clip-path="url(#clip640)" d="M156.76 836.18 Q153.612 836.18 151.76 838.333 Q149.931 840.486 149.931 844.236 Q149.931 847.963 151.76 850.138 Q153.612 852.291 156.76 852.291 Q159.908 852.291 161.737 850.138 Q163.589 847.963 163.589 844.236 Q163.589 840.486 161.737 838.333 Q159.908 836.18 156.76 836.18 M166.042 821.527 L166.042 825.787 Q164.283 824.953 162.477 824.514 Q160.695 824.074 158.936 824.074 Q154.306 824.074 151.853 827.199 Q149.422 830.324 149.075 836.643 Q150.441 834.629 152.501 833.564 Q154.561 832.476 157.038 832.476 Q162.246 832.476 165.255 835.648 Q168.288 838.796 168.288 844.236 Q168.288 849.56 165.14 852.777 Q161.991 855.995 156.76 855.995 Q150.765 855.995 147.593 851.412 Q144.422 846.805 144.422 838.078 Q144.422 829.884 148.311 825.023 Q152.2 820.139 158.751 820.139 Q160.51 820.139 162.292 820.486 Q164.098 820.833 166.042 821.527 Z" fill="#000000" fill-rule="nonzero" fill-opacity="1" /><path clip-path="url(#clip640)" d="M176.343 849.444 L181.227 849.444 L181.227 855.324 L176.343 855.324 L176.343 849.444 Z" fill="#000000" fill-rule="nonzero" fill-opacity="1" /><path clip-path="url(#clip640)" d="M201.412 823.842 Q197.801 823.842 195.973 827.407 Q194.167 830.949 194.167 838.078 Q194.167 845.185 195.973 848.75 Q197.801 852.291 201.412 852.291 Q205.047 852.291 206.852 848.75 Q208.681 845.185 208.681 838.078 Q208.681 830.949 206.852 827.407 Q205.047 823.842 201.412 823.842 M201.412 820.139 Q207.223 820.139 210.278 824.745 Q213.357 829.328 213.357 838.078 Q213.357 846.805 210.278 851.412 Q207.223 855.995 201.412 855.995 Q195.602 855.995 192.524 851.412 Q189.468 846.805 189.468 838.078 Q189.468 829.328 192.524 824.745 Q195.602 820.139 201.412 820.139 Z" fill="#000000" fill-rule="nonzero" fill-opacity="1" /><path clip-path="url(#clip640)" d="M231.574 823.842 Q227.963 823.842 226.135 827.407 Q224.329 830.949 224.329 838.078 Q224.329 845.185 226.135 848.75 Q227.963 852.291 231.574 852.291 Q235.209 852.291 237.014 848.75 Q238.843 845.185 238.843 838.078 Q238.843 830.949 237.014 827.407 Q235.209 823.842 231.574 823.842 M231.574 820.139 Q237.384 820.139 240.44 824.745 Q243.519 829.328 243.519 838.078 Q243.519 846.805 240.44 851.412 Q237.384 855.995 231.574 855.995 Q225.764 855.995 222.686 851.412 Q219.63 846.805 219.63 838.078 Q219.63 829.328 222.686 824.745 Q225.764 820.139 231.574 820.139 Z" fill="#000000" fill-rule="nonzero" fill-opacity="1" /><path clip-path="url(#clip640)" d="M127.593 519.15 Q124.445 519.15 122.593 521.303 Q120.765 523.456 120.765 527.206 Q120.765 530.933 122.593 533.108 Q124.445 535.261 127.593 535.261 Q130.742 535.261 132.57 533.108 Q134.422 530.933 134.422 527.206 Q134.422 523.456 132.57 521.303 Q130.742 519.15 127.593 519.15 M136.876 504.498 L136.876 508.757 Q135.117 507.923 133.311 507.484 Q131.529 507.044 129.769 507.044 Q125.14 507.044 122.686 510.169 Q120.255 513.294 119.908 519.613 Q121.274 517.599 123.334 516.535 Q125.394 515.447 127.871 515.447 Q133.08 515.447 136.089 518.618 Q139.121 521.766 139.121 527.206 Q139.121 532.53 135.973 535.747 Q132.825 538.965 127.593 538.965 Q121.598 538.965 118.427 534.382 Q115.256 529.775 115.256 521.048 Q115.256 512.854 119.144 507.993 Q123.033 503.109 129.584 503.109 Q131.343 503.109 133.126 503.456 Q134.931 503.803 136.876 504.498 Z" fill="#000000" fill-rule="nonzero" fill-opacity="1" /><path clip-path="url(#clip640)" d="M157.755 519.15 Q154.607 519.15 152.755 521.303 Q150.927 523.456 150.927 527.206 Q150.927 530.933 152.755 533.108 Q154.607 535.261 157.755 535.261 Q160.903 535.261 162.732 533.108 Q164.584 530.933 164.584 527.206 Q164.584 523.456 162.732 521.303 Q160.903 519.15 157.755 519.15 M167.038 504.498 L167.038 508.757 Q165.278 507.923 163.473 507.484 Q161.69 507.044 159.931 507.044 Q155.302 507.044 152.848 510.169 Q150.417 513.294 150.07 519.613 Q151.436 517.599 153.496 516.535 Q155.556 515.447 158.033 515.447 Q163.241 515.447 166.251 518.618 Q169.283 521.766 169.283 527.206 Q169.283 532.53 166.135 535.747 Q162.987 538.965 157.755 538.965 Q151.76 538.965 148.589 534.382 Q145.417 529.775 145.417 521.048 Q145.417 512.854 149.306 507.993 Q153.195 503.109 159.746 503.109 Q161.505 503.109 163.288 503.456 Q165.093 503.803 167.038 504.498 Z" fill="#000000" fill-rule="nonzero" fill-opacity="1" /><path clip-path="url(#clip640)" d="M177.339 532.414 L182.223 532.414 L182.223 538.294 L177.339 538.294 L177.339 532.414 Z" fill="#000000" fill-rule="nonzero" fill-opacity="1" /><path clip-path="url(#clip640)" d="M196.436 534.358 L212.755 534.358 L212.755 538.294 L190.811 538.294 L190.811 534.358 Q193.473 531.604 198.056 526.974 Q202.662 522.322 203.843 520.979 Q206.088 518.456 206.968 516.72 Q207.871 514.96 207.871 513.271 Q207.871 510.516 205.926 508.78 Q204.005 507.044 200.903 507.044 Q198.704 507.044 196.25 507.808 Q193.82 508.572 191.042 510.123 L191.042 505.4 Q193.866 504.266 196.32 503.687 Q198.774 503.109 200.811 503.109 Q206.181 503.109 209.375 505.794 Q212.57 508.479 212.57 512.97 Q212.57 515.099 211.76 517.021 Q210.973 518.919 208.866 521.511 Q208.287 522.183 205.186 525.4 Q202.084 528.595 196.436 534.358 Z" fill="#000000" fill-rule="nonzero" fill-opacity="1" /><path clip-path="url(#clip640)" d="M222.616 503.734 L240.972 503.734 L240.972 507.669 L226.898 507.669 L226.898 516.141 Q227.917 515.794 228.935 515.632 Q229.954 515.447 230.972 515.447 Q236.76 515.447 240.139 518.618 Q243.519 521.789 243.519 527.206 Q243.519 532.784 240.047 535.886 Q236.574 538.965 230.255 538.965 Q228.079 538.965 225.81 538.595 Q223.565 538.224 221.158 537.483 L221.158 532.784 Q223.241 533.919 225.463 534.474 Q227.685 535.03 230.162 535.03 Q234.167 535.03 236.505 532.923 Q238.843 530.817 238.843 527.206 Q238.843 523.595 236.505 521.488 Q234.167 519.382 230.162 519.382 Q228.287 519.382 226.412 519.798 Q224.56 520.215 222.616 521.095 L222.616 503.734 Z" fill="#000000" fill-rule="nonzero" fill-opacity="1" /><path clip-path="url(#clip640)" d="M126.598 202.12 Q123.45 202.12 121.598 204.273 Q119.769 206.426 119.769 210.176 Q119.769 213.903 121.598 216.079 Q123.45 218.231 126.598 218.231 Q129.746 218.231 131.575 216.079 Q133.427 213.903 133.427 210.176 Q133.427 206.426 131.575 204.273 Q129.746 202.12 126.598 202.12 M135.88 187.468 L135.88 191.727 Q134.121 190.893 132.316 190.454 Q130.533 190.014 128.774 190.014 Q124.144 190.014 121.691 193.139 Q119.26 196.264 118.913 202.583 Q120.279 200.569 122.339 199.505 Q124.399 198.417 126.876 198.417 Q132.084 198.417 135.093 201.588 Q138.126 204.736 138.126 210.176 Q138.126 215.5 134.978 218.717 Q131.83 221.935 126.598 221.935 Q120.603 221.935 117.431 217.352 Q114.26 212.745 114.26 204.018 Q114.26 195.824 118.149 190.963 Q122.038 186.079 128.589 186.079 Q130.348 186.079 132.13 186.426 Q133.936 186.773 135.88 187.468 Z" fill="#000000" fill-rule="nonzero" fill-opacity="1" /><path clip-path="url(#clip640)" d="M156.76 202.12 Q153.612 202.12 151.76 204.273 Q149.931 206.426 149.931 210.176 Q149.931 213.903 151.76 216.079 Q153.612 218.231 156.76 218.231 Q159.908 218.231 161.737 216.079 Q163.589 213.903 163.589 210.176 Q163.589 206.426 161.737 204.273 Q159.908 202.12 156.76 202.12 M166.042 187.468 L166.042 191.727 Q164.283 190.893 162.477 190.454 Q160.695 190.014 158.936 190.014 Q154.306 190.014 151.853 193.139 Q149.422 196.264 149.075 202.583 Q150.441 200.569 152.501 199.505 Q154.561 198.417 157.038 198.417 Q162.246 198.417 165.255 201.588 Q168.288 204.736 168.288 210.176 Q168.288 215.5 165.14 218.717 Q161.991 221.935 156.76 221.935 Q150.765 221.935 147.593 217.352 Q144.422 212.745 144.422 204.018 Q144.422 195.824 148.311 190.963 Q152.2 186.079 158.751 186.079 Q160.51 186.079 162.292 186.426 Q164.098 186.773 166.042 187.468 Z" fill="#000000" fill-rule="nonzero" fill-opacity="1" /><path clip-path="url(#clip640)" d="M176.343 215.384 L181.227 215.384 L181.227 221.264 L176.343 221.264 L176.343 215.384 Z" fill="#000000" fill-rule="nonzero" fill-opacity="1" /><path clip-path="url(#clip640)" d="M191.459 186.704 L209.815 186.704 L209.815 190.639 L195.741 190.639 L195.741 199.111 Q196.76 198.764 197.778 198.602 Q198.797 198.417 199.815 198.417 Q205.602 198.417 208.982 201.588 Q212.361 204.759 212.361 210.176 Q212.361 215.754 208.889 218.856 Q205.417 221.935 199.098 221.935 Q196.922 221.935 194.653 221.565 Q192.408 221.194 190 220.454 L190 215.754 Q192.084 216.889 194.306 217.444 Q196.528 218 199.005 218 Q203.01 218 205.348 215.893 Q207.686 213.787 207.686 210.176 Q207.686 206.565 205.348 204.458 Q203.01 202.352 199.005 202.352 Q197.13 202.352 195.255 202.768 Q193.403 203.185 191.459 204.065 L191.459 186.704 Z" fill="#000000" fill-rule="nonzero" fill-opacity="1" /><path clip-path="url(#clip640)" d="M231.574 189.782 Q227.963 189.782 226.135 193.347 Q224.329 196.889 224.329 204.018 Q224.329 211.125 226.135 214.69 Q227.963 218.231 231.574 218.231 Q235.209 218.231 237.014 214.69 Q238.843 211.125 238.843 204.018 Q238.843 196.889 237.014 193.347 Q235.209 189.782 231.574 189.782 M231.574 186.079 Q237.384 186.079 240.44 190.685 Q243.519 195.268 243.519 204.018 Q243.519 212.745 240.44 217.352 Q237.384 221.935 231.574 221.935 Q225.764 221.935 222.686 217.352 Q219.63 212.745 219.63 204.018 Q219.63 195.268 222.686 190.685 Q225.764 186.079 231.574 186.079 Z" fill="#000000" fill-rule="nonzero" fill-opacity="1" /><path clip-path="url(#clip640)" d="M22.818 922.094 L46.4666 930.815 L46.4666 913.341 L22.818 922.094 M16.4842 925.723 L16.4842 918.434 L64.0042 900.324 L64.0042 907.008 L51.8138 911.336 L51.8138 932.757 L64.0042 937.085 L64.0042 943.865 L16.4842 925.723 Z" fill="#000000" fill-rule="nonzero" fill-opacity="1" /><path clip-path="url(#clip640)" d="M45.7664 870.182 Q39.4007 870.182 35.8996 872.824 Q32.3984 875.434 32.3984 880.176 Q32.3984 884.887 35.8996 887.528 Q39.4007 890.138 45.7664 890.138 Q52.1003 890.138 55.6014 887.528 Q59.1026 884.887 59.1026 880.176 Q59.1026 875.434 55.6014 872.824 Q52.1003 870.182 45.7664 870.182 M59.58 864.325 Q68.683 864.325 73.1071 868.368 Q77.5631 872.41 77.5631 880.749 Q77.5631 883.836 77.0857 886.574 Q76.6401 889.311 75.6852 891.889 L69.9879 891.889 Q71.3884 889.311 72.0568 886.796 Q72.7252 884.282 72.7252 881.672 Q72.7252 875.911 69.7015 873.046 Q66.7096 870.182 60.6303 870.182 L57.7339 870.182 Q60.885 871.996 62.4446 874.829 Q64.0042 877.662 64.0042 881.608 Q64.0042 888.165 59.0071 892.175 Q54.01 896.186 45.7664 896.186 Q37.491 896.186 32.4939 892.175 Q27.4968 888.165 27.4968 881.608 Q27.4968 877.662 29.0564 874.829 Q30.616 871.996 33.7671 870.182 L28.3562 870.182 L28.3562 864.325 L59.58 864.325 Z" fill="#000000" fill-rule="nonzero" fill-opacity="1" /><path clip-path="url(#clip640)" d="M44.7161 821.771 L47.5806 821.771 L47.5806 848.698 Q53.6281 848.316 56.8109 845.069 Q59.9619 841.791 59.9619 835.966 Q59.9619 832.592 59.1344 829.441 Q58.3069 826.259 56.6518 823.139 L62.1899 823.139 Q63.5267 826.29 64.227 829.601 Q64.9272 832.911 64.9272 836.316 Q64.9272 844.846 59.9619 849.843 Q54.9967 854.809 46.5303 854.809 Q37.7774 854.809 32.6531 850.098 Q27.4968 845.356 27.4968 837.335 Q27.4968 830.142 32.1438 825.972 Q36.7589 821.771 44.7161 821.771 M42.9973 827.627 Q38.1912 827.691 35.3266 830.333 Q32.4621 832.943 32.4621 837.271 Q32.4621 842.173 35.2312 845.133 Q38.0002 848.061 43.0292 848.507 L42.9973 827.627 Z" fill="#000000" fill-rule="nonzero" fill-opacity="1" /><path clip-path="url(#clip640)" d="M14.5426 777.37 Q21.8632 781.635 29.0246 783.704 Q36.186 785.773 43.5384 785.773 Q50.8908 785.773 58.1159 783.704 Q65.3091 781.603 72.5979 777.37 L72.5979 782.462 Q65.1182 787.237 57.8931 789.624 Q50.668 791.979 43.5384 791.979 Q36.4406 791.979 29.2474 789.624 Q22.0542 787.269 14.5426 782.462 L14.5426 777.37 Z" fill="#000000" fill-rule="nonzero" fill-opacity="1" /><path clip-path="url(#clip640)" d="M16.4842 765.752 L16.4842 756.172 L48.8219 744.045 L16.4842 731.855 L16.4842 722.275 L64.0042 722.275 L64.0042 728.545 L22.277 728.545 L54.8694 740.799 L54.8694 747.26 L22.277 759.514 L64.0042 759.514 L64.0042 765.752 L16.4842 765.752 Z" fill="#000000" fill-rule="nonzero" fill-opacity="1" /><path clip-path="url(#clip640)" d="M46.0847 693.565 Q46.0847 700.663 47.7079 703.4 Q49.3312 706.138 53.2461 706.138 Q56.3653 706.138 58.2114 704.101 Q60.0256 702.032 60.0256 698.499 Q60.0256 693.629 56.5881 690.701 Q53.1188 687.741 47.3897 687.741 L46.0847 687.741 L46.0847 693.565 M43.6657 681.884 L64.0042 681.884 L64.0042 687.741 L58.5933 687.741 Q61.8398 689.746 63.3994 692.738 Q64.9272 695.73 64.9272 700.058 Q64.9272 705.533 61.8716 708.779 Q58.7843 711.994 53.6281 711.994 Q47.6125 711.994 44.5569 707.984 Q41.5014 703.941 41.5014 695.953 L41.5014 687.741 L40.9285 687.741 Q36.8862 687.741 34.6901 690.414 Q32.4621 693.056 32.4621 697.862 Q32.4621 700.918 33.1941 703.814 Q33.9262 706.711 35.3903 709.384 L29.9795 709.384 Q28.7381 706.169 28.1334 703.146 Q27.4968 700.122 27.4968 697.257 Q27.4968 689.523 31.5072 685.704 Q35.5176 681.884 43.6657 681.884 Z" fill="#000000" fill-rule="nonzero" fill-opacity="1" /><path clip-path="url(#clip640)" d="M14.5426 670.744 L14.5426 665.652 Q22.0542 660.877 29.2474 658.522 Q36.4406 656.135 43.5384 656.135 Q50.668 656.135 57.8931 658.522 Q65.1182 660.877 72.5979 665.652 L72.5979 670.744 Q65.3091 666.511 58.1159 664.442 Q50.8908 662.342 43.5384 662.342 Q36.186 662.342 29.0246 664.442 Q21.8632 666.511 14.5426 670.744 Z" fill="#000000" fill-rule="nonzero" fill-opacity="1" /><polyline clip-path="url(#clip642)" style="stroke:#009af9; stroke-linecap:round; stroke-linejoin:round; stroke-width:4; stroke-opacity:1; fill:none" points="338.195,1510.15 338.195,292.752 "/>
<polyline clip-path="url(#clip642)" style="stroke:#009af9; stroke-linecap:round; stroke-linejoin:round; stroke-width:4; stroke-opacity:1; fill:none" points="453.247,1104.35 453.247,622.463 "/>
<polyline clip-path="url(#clip642)" style="stroke:#009af9; stroke-linecap:round; stroke-linejoin:round; stroke-width:4; stroke-opacity:1; fill:none" points="568.299,939.493 568.299,660.507 "/>
<polyline clip-path="url(#clip642)" style="stroke:#009af9; stroke-linecap:round; stroke-linejoin:round; stroke-width:4; stroke-opacity:1; fill:none" points="683.351,1028.26 683.351,546.376 "/>
<polyline clip-path="url(#clip642)" style="stroke:#009af9; stroke-linecap:round; stroke-linejoin:round; stroke-width:4; stroke-opacity:1; fill:none" points="798.403,926.812 798.403,622.463 "/>
<polyline clip-path="url(#clip642)" style="stroke:#009af9; stroke-linecap:round; stroke-linejoin:round; stroke-width:4; stroke-opacity:1; fill:none" points="913.455,952.174 913.455,571.738 "/>
<polyline clip-path="url(#clip642)" style="stroke:#009af9; stroke-linecap:round; stroke-linejoin:round; stroke-width:4; stroke-opacity:1; fill:none" points="1028.51,926.812 1028.51,571.738 "/>
<polyline clip-path="url(#clip642)" style="stroke:#009af9; stroke-linecap:round; stroke-linejoin:round; stroke-width:4; stroke-opacity:1; fill:none" points="1143.56,888.768 1143.56,584.42 "/>
<polyline clip-path="url(#clip642)" style="stroke:#009af9; stroke-linecap:round; stroke-linejoin:round; stroke-width:4; stroke-opacity:1; fill:none" points="1258.61,964.856 1258.61,508.332 "/>
<polyline clip-path="url(#clip642)" style="stroke:#009af9; stroke-linecap:round; stroke-linejoin:round; stroke-width:4; stroke-opacity:1; fill:none" points="1373.66,1167.75 1373.66,254.708 "/>
<polyline clip-path="url(#clip642)" style="stroke:#009af9; stroke-linecap:round; stroke-linejoin:round; stroke-width:4; stroke-opacity:1; fill:none" points="1488.72,1002.9 1488.72,394.202 "/>
<polyline clip-path="url(#clip642)" style="stroke:#009af9; stroke-linecap:round; stroke-linejoin:round; stroke-width:4; stroke-opacity:1; fill:none" points="1603.77,901.45 1603.77,419.564 "/>
<polyline clip-path="url(#clip642)" style="stroke:#009af9; stroke-linecap:round; stroke-linejoin:round; stroke-width:4; stroke-opacity:1; fill:none" points="1718.82,888.768 1718.82,406.883 "/>
<polyline clip-path="url(#clip642)" style="stroke:#009af9; stroke-linecap:round; stroke-linejoin:round; stroke-width:4; stroke-opacity:1; fill:none" points="1833.87,1104.35 1833.87,89.8529 "/>
<polyline clip-path="url(#clip642)" style="stroke:#009af9; stroke-linecap:round; stroke-linejoin:round; stroke-width:4; stroke-opacity:1; fill:none" points="1948.92,736.594 1948.92,406.883 "/>
<polyline clip-path="url(#clip642)" style="stroke:#009af9; stroke-linecap:round; stroke-linejoin:round; stroke-width:4; stroke-opacity:1; fill:none" points="2063.98,787.319 2063.98,305.433 "/>
<polyline clip-path="url(#clip642)" style="stroke:#009af9; stroke-linecap:round; stroke-linejoin:round; stroke-width:4; stroke-opacity:1; fill:none" points="2179.03,774.638 2179.03,140.578 "/>
<polyline clip-path="url(#clip642)" style="stroke:#009af9; stroke-linecap:round; stroke-linejoin:round; stroke-width:4; stroke-opacity:1; fill:none" points="2294.08,736.594 2294.08,153.259 "/>
<line clip-path="url(#clip642)" x1="354.195" y1="1510.15" x2="322.195" y2="1510.15" style="stroke:#009af9; stroke-width:4; stroke-opacity:1"/>
<line clip-path="url(#clip642)" x1="354.195" y1="292.752" x2="322.195" y2="292.752" style="stroke:#009af9; stroke-width:4; stroke-opacity:1"/>
<line clip-path="url(#clip642)" x1="469.247" y1="1104.35" x2="437.247" y2="1104.35" style="stroke:#009af9; stroke-width:4; stroke-opacity:1"/>
<line clip-path="url(#clip642)" x1="469.247" y1="622.463" x2="437.247" y2="622.463" style="stroke:#009af9; stroke-width:4; stroke-opacity:1"/>
<line clip-path="url(#clip642)" x1="584.299" y1="939.493" x2="552.299" y2="939.493" style="stroke:#009af9; stroke-width:4; stroke-opacity:1"/>
<line clip-path="url(#clip642)" x1="584.299" y1="660.507" x2="552.299" y2="660.507" style="stroke:#009af9; stroke-width:4; stroke-opacity:1"/>
<line clip-path="url(#clip642)" x1="699.351" y1="1028.26" x2="667.351" y2="1028.26" style="stroke:#009af9; stroke-width:4; stroke-opacity:1"/>
<line clip-path="url(#clip642)" x1="699.351" y1="546.376" x2="667.351" y2="546.376" style="stroke:#009af9; stroke-width:4; stroke-opacity:1"/>
<line clip-path="url(#clip642)" x1="814.403" y1="926.812" x2="782.403" y2="926.812" style="stroke:#009af9; stroke-width:4; stroke-opacity:1"/>
<line clip-path="url(#clip642)" x1="814.403" y1="622.463" x2="782.403" y2="622.463" style="stroke:#009af9; stroke-width:4; stroke-opacity:1"/>
<line clip-path="url(#clip642)" x1="929.455" y1="952.174" x2="897.455" y2="952.174" style="stroke:#009af9; stroke-width:4; stroke-opacity:1"/>
<line clip-path="url(#clip642)" x1="929.455" y1="571.738" x2="897.455" y2="571.738" style="stroke:#009af9; stroke-width:4; stroke-opacity:1"/>
<line clip-path="url(#clip642)" x1="1044.51" y1="926.812" x2="1012.51" y2="926.812" style="stroke:#009af9; stroke-width:4; stroke-opacity:1"/>
<line clip-path="url(#clip642)" x1="1044.51" y1="571.738" x2="1012.51" y2="571.738" style="stroke:#009af9; stroke-width:4; stroke-opacity:1"/>
<line clip-path="url(#clip642)" x1="1159.56" y1="888.768" x2="1127.56" y2="888.768" style="stroke:#009af9; stroke-width:4; stroke-opacity:1"/>
<line clip-path="url(#clip642)" x1="1159.56" y1="584.42" x2="1127.56" y2="584.42" style="stroke:#009af9; stroke-width:4; stroke-opacity:1"/>
<line clip-path="url(#clip642)" x1="1274.61" y1="964.856" x2="1242.61" y2="964.856" style="stroke:#009af9; stroke-width:4; stroke-opacity:1"/>
<line clip-path="url(#clip642)" x1="1274.61" y1="508.332" x2="1242.61" y2="508.332" style="stroke:#009af9; stroke-width:4; stroke-opacity:1"/>
<line clip-path="url(#clip642)" x1="1389.66" y1="1167.75" x2="1357.66" y2="1167.75" style="stroke:#009af9; stroke-width:4; stroke-opacity:1"/>
<line clip-path="url(#clip642)" x1="1389.66" y1="254.708" x2="1357.66" y2="254.708" style="stroke:#009af9; stroke-width:4; stroke-opacity:1"/>
<line clip-path="url(#clip642)" x1="1504.72" y1="1002.9" x2="1472.72" y2="1002.9" style="stroke:#009af9; stroke-width:4; stroke-opacity:1"/>
<line clip-path="url(#clip642)" x1="1504.72" y1="394.202" x2="1472.72" y2="394.202" style="stroke:#009af9; stroke-width:4; stroke-opacity:1"/>
<line clip-path="url(#clip642)" x1="1619.77" y1="901.45" x2="1587.77" y2="901.45" style="stroke:#009af9; stroke-width:4; stroke-opacity:1"/>
<line clip-path="url(#clip642)" x1="1619.77" y1="419.564" x2="1587.77" y2="419.564" style="stroke:#009af9; stroke-width:4; stroke-opacity:1"/>
<line clip-path="url(#clip642)" x1="1734.82" y1="888.768" x2="1702.82" y2="888.768" style="stroke:#009af9; stroke-width:4; stroke-opacity:1"/>
<line clip-path="url(#clip642)" x1="1734.82" y1="406.883" x2="1702.82" y2="406.883" style="stroke:#009af9; stroke-width:4; stroke-opacity:1"/>
<line clip-path="url(#clip642)" x1="1849.87" y1="1104.35" x2="1817.87" y2="1104.35" style="stroke:#009af9; stroke-width:4; stroke-opacity:1"/>
<line clip-path="url(#clip642)" x1="1849.87" y1="89.8529" x2="1817.87" y2="89.8529" style="stroke:#009af9; stroke-width:4; stroke-opacity:1"/>
<line clip-path="url(#clip642)" x1="1964.92" y1="736.594" x2="1932.92" y2="736.594" style="stroke:#009af9; stroke-width:4; stroke-opacity:1"/>
<line clip-path="url(#clip642)" x1="1964.92" y1="406.883" x2="1932.92" y2="406.883" style="stroke:#009af9; stroke-width:4; stroke-opacity:1"/>
<line clip-path="url(#clip642)" x1="2079.98" y1="787.319" x2="2047.98" y2="787.319" style="stroke:#009af9; stroke-width:4; stroke-opacity:1"/>
<line clip-path="url(#clip642)" x1="2079.98" y1="305.433" x2="2047.98" y2="305.433" style="stroke:#009af9; stroke-width:4; stroke-opacity:1"/>
<line clip-path="url(#clip642)" x1="2195.03" y1="774.638" x2="2163.03" y2="774.638" style="stroke:#009af9; stroke-width:4; stroke-opacity:1"/>
<line clip-path="url(#clip642)" x1="2195.03" y1="140.578" x2="2163.03" y2="140.578" style="stroke:#009af9; stroke-width:4; stroke-opacity:1"/>
<line clip-path="url(#clip642)" x1="2310.08" y1="736.594" x2="2278.08" y2="736.594" style="stroke:#009af9; stroke-width:4; stroke-opacity:1"/>
<line clip-path="url(#clip642)" x1="2310.08" y1="153.259" x2="2278.08" y2="153.259" style="stroke:#009af9; stroke-width:4; stroke-opacity:1"/>
<circle clip-path="url(#clip642)" cx="338.195" cy="901.45" r="14.4" fill="#009af9" fill-rule="evenodd" fill-opacity="1" stroke="none"/>
<circle clip-path="url(#clip642)" cx="453.247" cy="863.406" r="14.4" fill="#009af9" fill-rule="evenodd" fill-opacity="1" stroke="none"/>
<circle clip-path="url(#clip642)" cx="568.299" cy="800" r="14.4" fill="#009af9" fill-rule="evenodd" fill-opacity="1" stroke="none"/>
<circle clip-path="url(#clip642)" cx="683.351" cy="787.319" r="14.4" fill="#009af9" fill-rule="evenodd" fill-opacity="1" stroke="none"/>
<circle clip-path="url(#clip642)" cx="798.403" cy="774.638" r="14.4" fill="#009af9" fill-rule="evenodd" fill-opacity="1" stroke="none"/>
<circle clip-path="url(#clip642)" cx="913.455" cy="761.956" r="14.4" fill="#009af9" fill-rule="evenodd" fill-opacity="1" stroke="none"/>
<circle clip-path="url(#clip642)" cx="1028.51" cy="749.275" r="14.4" fill="#009af9" fill-rule="evenodd" fill-opacity="1" stroke="none"/>
<circle clip-path="url(#clip642)" cx="1143.56" cy="736.594" r="14.4" fill="#009af9" fill-rule="evenodd" fill-opacity="1" stroke="none"/>
<circle clip-path="url(#clip642)" cx="1258.61" cy="736.594" r="14.4" fill="#009af9" fill-rule="evenodd" fill-opacity="1" stroke="none"/>
<circle clip-path="url(#clip642)" cx="1373.66" cy="711.232" r="14.4" fill="#009af9" fill-rule="evenodd" fill-opacity="1" stroke="none"/>
<circle clip-path="url(#clip642)" cx="1488.72" cy="698.55" r="14.4" fill="#009af9" fill-rule="evenodd" fill-opacity="1" stroke="none"/>
<circle clip-path="url(#clip642)" cx="1603.77" cy="660.507" r="14.4" fill="#009af9" fill-rule="evenodd" fill-opacity="1" stroke="none"/>
<circle clip-path="url(#clip642)" cx="1718.82" cy="647.826" r="14.4" fill="#009af9" fill-rule="evenodd" fill-opacity="1" stroke="none"/>
<circle clip-path="url(#clip642)" cx="1833.87" cy="597.101" r="14.4" fill="#009af9" fill-rule="evenodd" fill-opacity="1" stroke="none"/>
<circle clip-path="url(#clip642)" cx="1948.92" cy="571.738" r="14.4" fill="#009af9" fill-rule="evenodd" fill-opacity="1" stroke="none"/>
<circle clip-path="url(#clip642)" cx="2063.98" cy="546.376" r="14.4" fill="#009af9" fill-rule="evenodd" fill-opacity="1" stroke="none"/>
<circle clip-path="url(#clip642)" cx="2179.03" cy="457.608" r="14.4" fill="#009af9" fill-rule="evenodd" fill-opacity="1" stroke="none"/>
<circle clip-path="url(#clip642)" cx="2294.08" cy="444.926" r="14.4" fill="#009af9" fill-rule="evenodd" fill-opacity="1" stroke="none"/>
<path clip-path="url(#clip642)" d="M338.195 825.431 L453.247 825.431 L568.299 825.431 L683.351 825.431 L798.403 825.431 L913.455 825.431 L1028.51 825.431 L1143.56 825.431 L1258.61 825.431 L1373.66 825.431 L1488.72 825.431 L1603.77 825.431 L1718.82 825.431 L1833.87 825.431 L1948.92 825.431 L2063.98 825.431 L2179.03 825.431 L2294.08 825.431 L2294.08 703.176 L2179.03 703.176 L2063.98 703.176 L1948.92 703.176 L1833.87 703.176 L1718.82 703.176 L1603.77 703.176 L1488.72 703.176 L1373.66 703.176 L1258.61 703.176 L1143.56 703.176 L1028.51 703.176 L913.455 703.176 L798.403 703.176 L683.351 703.176 L568.299 703.176 L453.247 703.176 L338.195 703.176  Z" fill="#e26f46" fill-rule="evenodd" fill-opacity="0.6"/>
<polyline clip-path="url(#clip642)" style="stroke:#e26f46; stroke-linecap:round; stroke-linejoin:round; stroke-width:4; stroke-opacity:0; fill:none" points="338.195,825.431 453.247,825.431 568.299,825.431 683.351,825.431 798.403,825.431 913.455,825.431 1028.51,825.431 1143.56,825.431 1258.61,825.431 1373.66,825.431 1488.72,825.431 1603.77,825.431 1718.82,825.431 1833.87,825.431 1948.92,825.431 2063.98,825.431 2179.03,825.431 2294.08,825.431 "/>
<polyline clip-path="url(#clip642)" style="stroke:#000000; stroke-linecap:round; stroke-linejoin:round; stroke-width:4; stroke-opacity:1; fill:none" stroke-dasharray="2, 4" points="338.195,763.678 453.247,763.678 568.299,763.678 683.351,763.678 798.403,763.678 913.455,763.678 1028.51,763.678 1143.56,763.678 1258.61,763.678 1373.66,763.678 1488.72,763.678 1603.77,763.678 1718.82,763.678 1833.87,763.678 1948.92,763.678 2063.98,763.678 2179.03,763.678 2294.08,763.678 "/>
<path clip-path="url(#clip640)" d="M348.627 252.948 L1351.83 252.948 L1351.83 97.4278 L348.627 97.4278  Z" fill="#ffffff" fill-rule="evenodd" fill-opacity="1"/>
<polyline clip-path="url(#clip640)" style="stroke:#ffffff; stroke-linecap:round; stroke-linejoin:round; stroke-width:4; stroke-opacity:1; fill:none" points="348.627,252.948 1351.83,252.948 1351.83,97.4278 348.627,97.4278 348.627,252.948 "/>
<circle clip-path="url(#clip640)" cx="440.771" cy="149.268" r="20.48" fill="#009af9" fill-rule="evenodd" fill-opacity="1" stroke="none"/>
<path clip-path="url(#clip640)" d="M537.59 135.83 L537.59 162.705 L543.238 162.705 Q550.391 162.705 553.701 159.465 Q557.035 156.224 557.035 149.233 Q557.035 142.289 553.701 139.071 Q550.391 135.83 543.238 135.83 L537.59 135.83 M532.914 131.988 L542.521 131.988 Q552.567 131.988 557.266 136.178 Q561.965 140.344 561.965 149.233 Q561.965 158.168 557.243 162.358 Q552.521 166.548 542.521 166.548 L532.914 166.548 L532.914 131.988 Z" fill="#000000" fill-rule="nonzero" fill-opacity="1" /><path clip-path="url(#clip640)" d="M581.016 153.515 Q575.854 153.515 573.863 154.696 Q571.873 155.877 571.873 158.724 Q571.873 160.992 573.354 162.335 Q574.859 163.654 577.428 163.654 Q580.97 163.654 583.099 161.154 Q585.252 158.631 585.252 154.465 L585.252 153.515 L581.016 153.515 M589.511 151.756 L589.511 166.548 L585.252 166.548 L585.252 162.613 Q583.794 164.974 581.618 166.108 Q579.442 167.219 576.294 167.219 Q572.312 167.219 569.951 164.997 Q567.613 162.752 567.613 159.002 Q567.613 154.627 570.53 152.404 Q573.47 150.182 579.28 150.182 L585.252 150.182 L585.252 149.766 Q585.252 146.826 583.308 145.228 Q581.386 143.608 577.891 143.608 Q575.669 143.608 573.562 144.141 Q571.456 144.673 569.511 145.738 L569.511 141.803 Q571.849 140.9 574.048 140.46 Q576.247 139.997 578.331 139.997 Q583.956 139.997 586.734 142.914 Q589.511 145.83 589.511 151.756 Z" fill="#000000" fill-rule="nonzero" fill-opacity="1" /><path clip-path="url(#clip640)" d="M602.497 133.261 L602.497 140.622 L611.27 140.622 L611.27 143.932 L602.497 143.932 L602.497 158.006 Q602.497 161.177 603.354 162.08 Q604.233 162.983 606.895 162.983 L611.27 162.983 L611.27 166.548 L606.895 166.548 Q601.965 166.548 600.09 164.719 Q598.215 162.867 598.215 158.006 L598.215 143.932 L595.09 143.932 L595.09 140.622 L598.215 140.622 L598.215 133.261 L602.497 133.261 Z" fill="#000000" fill-rule="nonzero" fill-opacity="1" /><path clip-path="url(#clip640)" d="M628.655 153.515 Q623.493 153.515 621.502 154.696 Q619.511 155.877 619.511 158.724 Q619.511 160.992 620.993 162.335 Q622.497 163.654 625.067 163.654 Q628.608 163.654 630.738 161.154 Q632.891 158.631 632.891 154.465 L632.891 153.515 L628.655 153.515 M637.15 151.756 L637.15 166.548 L632.891 166.548 L632.891 162.613 Q631.432 164.974 629.256 166.108 Q627.081 167.219 623.932 167.219 Q619.951 167.219 617.59 164.997 Q615.252 162.752 615.252 159.002 Q615.252 154.627 618.169 152.404 Q621.108 150.182 626.919 150.182 L632.891 150.182 L632.891 149.766 Q632.891 146.826 630.946 145.228 Q629.025 143.608 625.53 143.608 Q623.307 143.608 621.201 144.141 Q619.094 144.673 617.15 145.738 L617.15 141.803 Q619.488 140.9 621.687 140.46 Q623.886 139.997 625.969 139.997 Q631.594 139.997 634.372 142.914 Q637.15 145.83 637.15 151.756 Z" fill="#000000" fill-rule="nonzero" fill-opacity="1" /><path clip-path="url(#clip640)" d="M671.224 130.576 Q668.122 135.9 666.617 141.108 Q665.113 146.316 665.113 151.664 Q665.113 157.011 666.617 162.265 Q668.145 167.497 671.224 172.798 L667.52 172.798 Q664.048 167.358 662.312 162.103 Q660.599 156.849 660.599 151.664 Q660.599 146.502 662.312 141.27 Q664.025 136.039 667.52 130.576 L671.224 130.576 Z" fill="#000000" fill-rule="nonzero" fill-opacity="1" /><path clip-path="url(#clip640)" d="M689.534 143.608 Q686.108 143.608 684.117 146.293 Q682.127 148.955 682.127 153.608 Q682.127 158.261 684.094 160.946 Q686.085 163.608 689.534 163.608 Q692.937 163.608 694.927 160.923 Q696.918 158.238 696.918 153.608 Q696.918 149.002 694.927 146.316 Q692.937 143.608 689.534 143.608 M689.534 139.997 Q695.089 139.997 698.261 143.608 Q701.432 147.219 701.432 153.608 Q701.432 159.974 698.261 163.608 Q695.089 167.219 689.534 167.219 Q683.955 167.219 680.784 163.608 Q677.636 159.974 677.636 153.608 Q677.636 147.219 680.784 143.608 Q683.955 139.997 689.534 139.997 Z" fill="#000000" fill-rule="nonzero" fill-opacity="1" /><path clip-path="url(#clip640)" d="M727.103 153.608 Q727.103 148.909 725.159 146.247 Q723.237 143.562 719.858 143.562 Q716.478 143.562 714.534 146.247 Q712.612 148.909 712.612 153.608 Q712.612 158.307 714.534 160.992 Q716.478 163.654 719.858 163.654 Q723.237 163.654 725.159 160.992 Q727.103 158.307 727.103 153.608 M712.612 144.557 Q713.955 142.242 715.992 141.131 Q718.052 139.997 720.899 139.997 Q725.622 139.997 728.561 143.747 Q731.524 147.497 731.524 153.608 Q731.524 159.719 728.561 163.469 Q725.622 167.219 720.899 167.219 Q718.052 167.219 715.992 166.108 Q713.955 164.974 712.612 162.659 L712.612 166.548 L708.33 166.548 L708.33 130.529 L712.612 130.529 L712.612 144.557 Z" fill="#000000" fill-rule="nonzero" fill-opacity="1" /><path clip-path="url(#clip640)" d="M755.112 141.386 L755.112 145.414 Q753.307 144.488 751.362 144.025 Q749.418 143.562 747.335 143.562 Q744.163 143.562 742.566 144.534 Q740.992 145.506 740.992 147.451 Q740.992 148.932 742.126 149.789 Q743.26 150.622 746.686 151.386 L748.145 151.71 Q752.682 152.682 754.58 154.465 Q756.501 156.224 756.501 159.395 Q756.501 163.006 753.631 165.113 Q750.784 167.219 745.784 167.219 Q743.7 167.219 741.432 166.802 Q739.186 166.409 736.686 165.599 L736.686 161.201 Q739.048 162.427 741.339 163.052 Q743.631 163.654 745.876 163.654 Q748.885 163.654 750.506 162.636 Q752.126 161.594 752.126 159.719 Q752.126 157.983 750.946 157.057 Q749.788 156.131 745.83 155.275 L744.348 154.928 Q740.39 154.094 738.631 152.381 Q736.872 150.645 736.872 147.636 Q736.872 143.978 739.464 141.988 Q742.057 139.997 746.825 139.997 Q749.186 139.997 751.27 140.344 Q753.353 140.691 755.112 141.386 Z" fill="#000000" fill-rule="nonzero" fill-opacity="1" /><path clip-path="url(#clip640)" d="M785.459 152.52 L785.459 154.603 L765.876 154.603 Q766.154 159.002 768.515 161.316 Q770.899 163.608 775.135 163.608 Q777.589 163.608 779.881 163.006 Q782.195 162.404 784.464 161.201 L784.464 165.228 Q782.172 166.201 779.765 166.71 Q777.358 167.219 774.881 167.219 Q768.677 167.219 765.043 163.608 Q761.432 159.997 761.432 153.84 Q761.432 147.474 764.858 143.747 Q768.307 139.997 774.14 139.997 Q779.371 139.997 782.404 143.377 Q785.459 146.733 785.459 152.52 M781.2 151.27 Q781.154 147.775 779.233 145.691 Q777.334 143.608 774.186 143.608 Q770.621 143.608 768.469 145.622 Q766.339 147.636 766.015 151.293 L781.2 151.27 Z" fill="#000000" fill-rule="nonzero" fill-opacity="1" /><path clip-path="url(#clip640)" d="M807.473 144.603 Q806.756 144.187 805.899 144.002 Q805.066 143.793 804.047 143.793 Q800.436 143.793 798.492 146.154 Q796.57 148.492 796.57 152.89 L796.57 166.548 L792.288 166.548 L792.288 140.622 L796.57 140.622 L796.57 144.65 Q797.913 142.289 800.066 141.154 Q802.218 139.997 805.297 139.997 Q805.737 139.997 806.269 140.066 Q806.802 140.113 807.45 140.229 L807.473 144.603 Z" fill="#000000" fill-rule="nonzero" fill-opacity="1" /><path clip-path="url(#clip640)" d="M808.885 140.622 L813.399 140.622 L821.501 162.381 L829.603 140.622 L834.116 140.622 L824.394 166.548 L818.607 166.548 L808.885 140.622 Z" fill="#000000" fill-rule="nonzero" fill-opacity="1" /><path clip-path="url(#clip640)" d="M862.172 152.52 L862.172 154.603 L842.589 154.603 Q842.866 159.002 845.228 161.316 Q847.612 163.608 851.848 163.608 Q854.302 163.608 856.593 163.006 Q858.908 162.404 861.177 161.201 L861.177 165.228 Q858.885 166.201 856.477 166.71 Q854.07 167.219 851.593 167.219 Q845.39 167.219 841.755 163.608 Q838.144 159.997 838.144 153.84 Q838.144 147.474 841.57 143.747 Q845.019 139.997 850.852 139.997 Q856.084 139.997 859.116 143.377 Q862.172 146.733 862.172 152.52 M857.913 151.27 Q857.866 147.775 855.945 145.691 Q854.047 143.608 850.899 143.608 Q847.334 143.608 845.181 145.622 Q843.052 147.636 842.728 151.293 L857.913 151.27 Z" fill="#000000" fill-rule="nonzero" fill-opacity="1" /><path clip-path="url(#clip640)" d="M886.223 144.557 L886.223 130.529 L890.482 130.529 L890.482 166.548 L886.223 166.548 L886.223 162.659 Q884.88 164.974 882.82 166.108 Q880.783 167.219 877.913 167.219 Q873.213 167.219 870.251 163.469 Q867.311 159.719 867.311 153.608 Q867.311 147.497 870.251 143.747 Q873.213 139.997 877.913 139.997 Q880.783 139.997 882.82 141.131 Q884.88 142.242 886.223 144.557 M871.709 153.608 Q871.709 158.307 873.63 160.992 Q875.575 163.654 878.954 163.654 Q882.334 163.654 884.278 160.992 Q886.223 158.307 886.223 153.608 Q886.223 148.909 884.278 146.247 Q882.334 143.562 878.954 143.562 Q875.575 143.562 873.63 146.247 Q871.709 148.909 871.709 153.608 Z" fill="#000000" fill-rule="nonzero" fill-opacity="1" /><path clip-path="url(#clip640)" d="M926.107 153.515 Q920.945 153.515 918.954 154.696 Q916.963 155.877 916.963 158.724 Q916.963 160.992 918.445 162.335 Q919.949 163.654 922.519 163.654 Q926.06 163.654 928.19 161.154 Q930.343 158.631 930.343 154.465 L930.343 153.515 L926.107 153.515 M934.602 151.756 L934.602 166.548 L930.343 166.548 L930.343 162.613 Q928.884 164.974 926.709 166.108 Q924.533 167.219 921.385 167.219 Q917.403 167.219 915.042 164.997 Q912.704 162.752 912.704 159.002 Q912.704 154.627 915.621 152.404 Q918.56 150.182 924.371 150.182 L930.343 150.182 L930.343 149.766 Q930.343 146.826 928.398 145.228 Q926.477 143.608 922.982 143.608 Q920.76 143.608 918.653 144.141 Q916.547 144.673 914.602 145.738 L914.602 141.803 Q916.94 140.9 919.139 140.46 Q921.338 139.997 923.422 139.997 Q929.047 139.997 931.824 142.914 Q934.602 145.83 934.602 151.756 Z" fill="#000000" fill-rule="nonzero" fill-opacity="1" /><path clip-path="url(#clip640)" d="M960.435 153.284 Q960.435 148.654 958.514 146.108 Q956.616 143.562 953.167 143.562 Q949.741 143.562 947.82 146.108 Q945.921 148.654 945.921 153.284 Q945.921 157.89 947.82 160.437 Q949.741 162.983 953.167 162.983 Q956.616 162.983 958.514 160.437 Q960.435 157.89 960.435 153.284 M964.694 163.33 Q964.694 169.951 961.755 173.168 Q958.815 176.409 952.75 176.409 Q950.505 176.409 948.514 176.062 Q946.523 175.738 944.648 175.043 L944.648 170.9 Q946.523 171.918 948.352 172.404 Q950.181 172.89 952.079 172.89 Q956.269 172.89 958.352 170.691 Q960.435 168.515 960.435 164.094 L960.435 161.988 Q959.116 164.279 957.056 165.414 Q954.995 166.548 952.125 166.548 Q947.357 166.548 944.44 162.914 Q941.523 159.279 941.523 153.284 Q941.523 147.266 944.44 143.631 Q947.357 139.997 952.125 139.997 Q954.995 139.997 957.056 141.131 Q959.116 142.266 960.435 144.557 L960.435 140.622 L964.694 140.622 L964.694 163.33 Z" fill="#000000" fill-rule="nonzero" fill-opacity="1" /><path clip-path="url(#clip640)" d="M995.643 152.52 L995.643 154.603 L976.06 154.603 Q976.338 159.002 978.699 161.316 Q981.083 163.608 985.319 163.608 Q987.773 163.608 990.065 163.006 Q992.38 162.404 994.648 161.201 L994.648 165.228 Q992.356 166.201 989.949 166.71 Q987.542 167.219 985.065 167.219 Q978.861 167.219 975.227 163.608 Q971.616 159.997 971.616 153.84 Q971.616 147.474 975.042 143.747 Q978.491 139.997 984.324 139.997 Q989.555 139.997 992.588 143.377 Q995.643 146.733 995.643 152.52 M991.384 151.27 Q991.338 147.775 989.417 145.691 Q987.518 143.608 984.37 143.608 Q980.805 143.608 978.653 145.622 Q976.523 147.636 976.199 151.293 L991.384 151.27 Z" fill="#000000" fill-rule="nonzero" fill-opacity="1" /><path clip-path="url(#clip640)" d="M1019.16 141.386 L1019.16 145.414 Q1017.36 144.488 1015.41 144.025 Q1013.47 143.562 1011.38 143.562 Q1008.21 143.562 1006.62 144.534 Q1005.04 145.506 1005.04 147.451 Q1005.04 148.932 1006.18 149.789 Q1007.31 150.622 1010.74 151.386 L1012.19 151.71 Q1016.73 152.682 1018.63 154.465 Q1020.55 156.224 1020.55 159.395 Q1020.55 163.006 1017.68 165.113 Q1014.83 167.219 1009.83 167.219 Q1007.75 167.219 1005.48 166.802 Q1003.24 166.409 1000.74 165.599 L1000.74 161.201 Q1003.1 162.427 1005.39 163.052 Q1007.68 163.654 1009.93 163.654 Q1012.93 163.654 1014.56 162.636 Q1016.18 161.594 1016.18 159.719 Q1016.18 157.983 1015 157.057 Q1013.84 156.131 1009.88 155.275 L1008.4 154.928 Q1004.44 154.094 1002.68 152.381 Q1000.92 150.645 1000.92 147.636 Q1000.92 143.978 1003.51 141.988 Q1006.11 139.997 1010.87 139.997 Q1013.24 139.997 1015.32 140.344 Q1017.4 140.691 1019.16 141.386 Z" fill="#000000" fill-rule="nonzero" fill-opacity="1" /><path clip-path="url(#clip640)" d="M1026.66 130.576 L1030.37 130.576 Q1033.84 136.039 1035.55 141.27 Q1037.29 146.502 1037.29 151.664 Q1037.29 156.849 1035.55 162.103 Q1033.84 167.358 1030.37 172.798 L1026.66 172.798 Q1029.74 167.497 1031.25 162.265 Q1032.77 157.011 1032.77 151.664 Q1032.77 146.316 1031.25 141.108 Q1029.74 135.9 1026.66 130.576 Z" fill="#000000" fill-rule="nonzero" fill-opacity="1" /><path clip-path="url(#clip640)" d="M371.663 221.844 L509.878 221.844 L509.878 180.372 L371.663 180.372 L371.663 221.844  Z" fill="#e26f46" fill-rule="evenodd" fill-opacity="0.6"/>
<polyline clip-path="url(#clip640)" style="stroke:#e26f46; stroke-linecap:round; stroke-linejoin:round; stroke-width:4; stroke-opacity:0; fill:none" points="371.663,180.372 509.878,180.372 "/>
<path clip-path="url(#clip640)" d="M532.914 183.828 L539.882 183.828 L548.701 207.346 L557.567 183.828 L564.535 183.828 L564.535 218.388 L559.974 218.388 L559.974 188.041 L551.062 211.744 L546.363 211.744 L537.451 188.041 L537.451 218.388 L532.914 218.388 L532.914 183.828 Z" fill="#000000" fill-rule="nonzero" fill-opacity="1" /><path clip-path="url(#clip640)" d="M583.678 195.448 Q580.252 195.448 578.261 198.133 Q576.271 200.795 576.271 205.448 Q576.271 210.101 578.238 212.786 Q580.229 215.448 583.678 215.448 Q587.081 215.448 589.071 212.763 Q591.062 210.078 591.062 205.448 Q591.062 200.842 589.071 198.156 Q587.081 195.448 583.678 195.448 M583.678 191.837 Q589.234 191.837 592.405 195.448 Q595.576 199.059 595.576 205.448 Q595.576 211.814 592.405 215.448 Q589.234 219.059 583.678 219.059 Q578.099 219.059 574.928 215.448 Q571.78 211.814 571.78 205.448 Q571.78 199.059 574.928 195.448 Q578.099 191.837 583.678 191.837 Z" fill="#000000" fill-rule="nonzero" fill-opacity="1" /><path clip-path="url(#clip640)" d="M619.696 196.397 L619.696 182.369 L623.956 182.369 L623.956 218.388 L619.696 218.388 L619.696 214.499 Q618.354 216.814 616.294 217.948 Q614.257 219.059 611.386 219.059 Q606.687 219.059 603.724 215.309 Q600.784 211.559 600.784 205.448 Q600.784 199.337 603.724 195.587 Q606.687 191.837 611.386 191.837 Q614.257 191.837 616.294 192.971 Q618.354 194.082 619.696 196.397 M605.183 205.448 Q605.183 210.147 607.104 212.832 Q609.048 215.494 612.428 215.494 Q615.807 215.494 617.752 212.832 Q619.696 210.147 619.696 205.448 Q619.696 200.749 617.752 198.087 Q615.807 195.402 612.428 195.402 Q609.048 195.402 607.104 198.087 Q605.183 200.749 605.183 205.448 Z" fill="#000000" fill-rule="nonzero" fill-opacity="1" /><path clip-path="url(#clip640)" d="M654.904 204.36 L654.904 206.443 L635.321 206.443 Q635.599 210.842 637.96 213.156 Q640.344 215.448 644.58 215.448 Q647.034 215.448 649.326 214.846 Q651.641 214.244 653.909 213.041 L653.909 217.068 Q651.617 218.041 649.21 218.55 Q646.803 219.059 644.326 219.059 Q638.122 219.059 634.488 215.448 Q630.877 211.837 630.877 205.68 Q630.877 199.314 634.303 195.587 Q637.752 191.837 643.585 191.837 Q648.817 191.837 651.849 195.217 Q654.904 198.573 654.904 204.36 M650.645 203.11 Q650.599 199.615 648.678 197.531 Q646.78 195.448 643.631 195.448 Q640.067 195.448 637.914 197.462 Q635.784 199.476 635.46 203.133 L650.645 203.11 Z" fill="#000000" fill-rule="nonzero" fill-opacity="1" /><path clip-path="url(#clip640)" d="M661.895 182.369 L666.154 182.369 L666.154 218.388 L661.895 218.388 L661.895 182.369 Z" fill="#000000" fill-rule="nonzero" fill-opacity="1" /><path clip-path="url(#clip640)" d="M700.367 182.416 Q697.265 187.74 695.761 192.948 Q694.256 198.156 694.256 203.504 Q694.256 208.851 695.761 214.105 Q697.288 219.337 700.367 224.638 L696.664 224.638 Q693.191 219.198 691.455 213.943 Q689.742 208.689 689.742 203.504 Q689.742 198.342 691.455 193.11 Q693.168 187.879 696.664 182.416 L700.367 182.416 Z" fill="#000000" fill-rule="nonzero" fill-opacity="1" /><path clip-path="url(#clip640)" d="M719.812 199.244 Q716.663 199.244 714.812 201.397 Q712.983 203.55 712.983 207.3 Q712.983 211.027 714.812 213.203 Q716.663 215.355 719.812 215.355 Q722.96 215.355 724.788 213.203 Q726.64 211.027 726.64 207.3 Q726.64 203.55 724.788 201.397 Q722.96 199.244 719.812 199.244 M729.094 184.592 L729.094 188.851 Q727.335 188.018 725.529 187.578 Q723.747 187.138 721.987 187.138 Q717.358 187.138 714.904 190.263 Q712.474 193.388 712.126 199.707 Q713.492 197.693 715.552 196.629 Q717.612 195.541 720.089 195.541 Q725.298 195.541 728.307 198.712 Q731.339 201.86 731.339 207.3 Q731.339 212.624 728.191 215.842 Q725.043 219.059 719.812 219.059 Q713.816 219.059 710.645 214.476 Q707.474 209.869 707.474 201.143 Q707.474 192.948 711.362 188.087 Q715.251 183.203 721.802 183.203 Q723.562 183.203 725.344 183.55 Q727.149 183.897 729.094 184.592 Z" fill="#000000" fill-rule="nonzero" fill-opacity="1" /><path clip-path="url(#clip640)" d="M749.973 199.244 Q746.825 199.244 744.973 201.397 Q743.145 203.55 743.145 207.3 Q743.145 211.027 744.973 213.203 Q746.825 215.355 749.973 215.355 Q753.122 215.355 754.95 213.203 Q756.802 211.027 756.802 207.3 Q756.802 203.55 754.95 201.397 Q753.122 199.244 749.973 199.244 M759.256 184.592 L759.256 188.851 Q757.497 188.018 755.691 187.578 Q753.909 187.138 752.149 187.138 Q747.52 187.138 745.066 190.263 Q742.635 193.388 742.288 199.707 Q743.654 197.693 745.714 196.629 Q747.774 195.541 750.251 195.541 Q755.459 195.541 758.469 198.712 Q761.501 201.86 761.501 207.3 Q761.501 212.624 758.353 215.842 Q755.205 219.059 749.973 219.059 Q743.978 219.059 740.807 214.476 Q737.636 209.869 737.636 201.143 Q737.636 192.948 741.524 188.087 Q745.413 183.203 751.964 183.203 Q753.723 183.203 755.506 183.55 Q757.311 183.897 759.256 184.592 Z" fill="#000000" fill-rule="nonzero" fill-opacity="1" /><path clip-path="url(#clip640)" d="M769.557 212.508 L774.441 212.508 L774.441 218.388 L769.557 218.388 L769.557 212.508 Z" fill="#000000" fill-rule="nonzero" fill-opacity="1" /><path clip-path="url(#clip640)" d="M794.626 186.907 Q791.015 186.907 789.186 190.471 Q787.381 194.013 787.381 201.143 Q787.381 208.249 789.186 211.814 Q791.015 215.355 794.626 215.355 Q798.26 215.355 800.066 211.814 Q801.894 208.249 801.894 201.143 Q801.894 194.013 800.066 190.471 Q798.26 186.907 794.626 186.907 M794.626 183.203 Q800.436 183.203 803.492 187.809 Q806.57 192.393 806.57 201.143 Q806.57 209.869 803.492 214.476 Q800.436 219.059 794.626 219.059 Q788.816 219.059 785.737 214.476 Q782.682 209.869 782.682 201.143 Q782.682 192.393 785.737 187.809 Q788.816 183.203 794.626 183.203 Z" fill="#000000" fill-rule="nonzero" fill-opacity="1" /><path clip-path="url(#clip640)" d="M814.834 183.828 L833.191 183.828 L833.191 187.763 L819.117 187.763 L819.117 196.235 Q820.135 195.888 821.154 195.726 Q822.172 195.541 823.191 195.541 Q828.978 195.541 832.357 198.712 Q835.737 201.883 835.737 207.3 Q835.737 212.879 832.265 215.98 Q828.792 219.059 822.473 219.059 Q820.297 219.059 818.029 218.689 Q815.783 218.318 813.376 217.578 L813.376 212.879 Q815.459 214.013 817.681 214.568 Q819.904 215.124 822.38 215.124 Q826.385 215.124 828.723 213.017 Q831.061 210.911 831.061 207.3 Q831.061 203.689 828.723 201.582 Q826.385 199.476 822.38 199.476 Q820.505 199.476 818.63 199.893 Q816.779 200.309 814.834 201.189 L814.834 183.828 Z" fill="#000000" fill-rule="nonzero" fill-opacity="1" /><path clip-path="url(#clip640)" d="M845.089 217.67 L845.089 213.411 Q846.848 214.244 848.653 214.684 Q850.459 215.124 852.195 215.124 Q856.825 215.124 859.255 212.022 Q861.709 208.897 862.056 202.555 Q860.714 204.545 858.653 205.61 Q856.593 206.675 854.093 206.675 Q848.908 206.675 845.876 203.55 Q842.866 200.402 842.866 194.962 Q842.866 189.638 846.015 186.42 Q849.163 183.203 854.394 183.203 Q860.389 183.203 863.538 187.809 Q866.709 192.393 866.709 201.143 Q866.709 209.314 862.82 214.198 Q858.954 219.059 852.403 219.059 Q850.644 219.059 848.839 218.712 Q847.033 218.365 845.089 217.67 M854.394 203.018 Q857.542 203.018 859.371 200.865 Q861.223 198.712 861.223 194.962 Q861.223 191.235 859.371 189.082 Q857.542 186.907 854.394 186.907 Q851.246 186.907 849.394 189.082 Q847.565 191.235 847.565 194.962 Q847.565 198.712 849.394 200.865 Q851.246 203.018 854.394 203.018 Z" fill="#000000" fill-rule="nonzero" fill-opacity="1" /><path clip-path="url(#clip640)" d="M906.917 188.666 L906.917 201.559 L919.81 201.559 L919.81 205.494 L906.917 205.494 L906.917 218.388 L903.028 218.388 L903.028 205.494 L890.135 205.494 L890.135 201.559 L903.028 201.559 L903.028 188.666 L906.917 188.666 Z" fill="#000000" fill-rule="nonzero" fill-opacity="1" /><path clip-path="url(#clip640)" d="M939.903 186.907 Q936.292 186.907 934.463 190.471 Q932.658 194.013 932.658 201.143 Q932.658 208.249 934.463 211.814 Q936.292 215.355 939.903 215.355 Q943.537 215.355 945.343 211.814 Q947.171 208.249 947.171 201.143 Q947.171 194.013 945.343 190.471 Q943.537 186.907 939.903 186.907 M939.903 183.203 Q945.713 183.203 948.769 187.809 Q951.847 192.393 951.847 201.143 Q951.847 209.869 948.769 214.476 Q945.713 219.059 939.903 219.059 Q934.093 219.059 931.014 214.476 Q927.959 209.869 927.959 201.143 Q927.959 192.393 931.014 187.809 Q934.093 183.203 939.903 183.203 Z" fill="#000000" fill-rule="nonzero" fill-opacity="1" /><path clip-path="url(#clip640)" d="M960.065 212.508 L964.949 212.508 L964.949 218.388 L960.065 218.388 L960.065 212.508 Z" fill="#000000" fill-rule="nonzero" fill-opacity="1" /><path clip-path="url(#clip640)" d="M985.134 186.907 Q981.523 186.907 979.694 190.471 Q977.889 194.013 977.889 201.143 Q977.889 208.249 979.694 211.814 Q981.523 215.355 985.134 215.355 Q988.768 215.355 990.574 211.814 Q992.403 208.249 992.403 201.143 Q992.403 194.013 990.574 190.471 Q988.768 186.907 985.134 186.907 M985.134 183.203 Q990.944 183.203 994 187.809 Q997.079 192.393 997.079 201.143 Q997.079 209.869 994 214.476 Q990.944 219.059 985.134 219.059 Q979.324 219.059 976.245 214.476 Q973.19 209.869 973.19 201.143 Q973.19 192.393 976.245 187.809 Q979.324 183.203 985.134 183.203 Z" fill="#000000" fill-rule="nonzero" fill-opacity="1" /><path clip-path="url(#clip640)" d="M1018.14 187.902 L1006.34 206.351 L1018.14 206.351 L1018.14 187.902 M1016.92 183.828 L1022.8 183.828 L1022.8 206.351 L1027.73 206.351 L1027.73 210.24 L1022.8 210.24 L1022.8 218.388 L1018.14 218.388 L1018.14 210.24 L1002.54 210.24 L1002.54 205.726 L1016.92 183.828 Z" fill="#000000" fill-rule="nonzero" fill-opacity="1" /><path clip-path="url(#clip640)" d="M1045.46 201.976 Q1042.12 201.976 1040.2 203.758 Q1038.31 205.541 1038.31 208.666 Q1038.31 211.791 1040.2 213.573 Q1042.12 215.355 1045.46 215.355 Q1048.79 215.355 1050.71 213.573 Q1052.63 211.767 1052.63 208.666 Q1052.63 205.541 1050.71 203.758 Q1048.81 201.976 1045.46 201.976 M1040.78 199.985 Q1037.77 199.244 1036.08 197.184 Q1034.42 195.124 1034.42 192.161 Q1034.42 188.018 1037.36 185.61 Q1040.32 183.203 1045.46 183.203 Q1050.62 183.203 1053.56 185.61 Q1056.5 188.018 1056.5 192.161 Q1056.5 195.124 1054.81 197.184 Q1053.14 199.244 1050.16 199.985 Q1053.54 200.772 1055.41 203.064 Q1057.31 205.355 1057.31 208.666 Q1057.31 213.689 1054.23 216.374 Q1051.18 219.059 1045.46 219.059 Q1039.74 219.059 1036.66 216.374 Q1033.61 213.689 1033.61 208.666 Q1033.61 205.355 1035.5 203.064 Q1037.4 200.772 1040.78 199.985 M1039.07 192.601 Q1039.07 195.286 1040.74 196.791 Q1042.43 198.295 1045.46 198.295 Q1048.47 198.295 1050.16 196.791 Q1051.87 195.286 1051.87 192.601 Q1051.87 189.916 1050.16 188.411 Q1048.47 186.907 1045.46 186.907 Q1042.43 186.907 1040.74 188.411 Q1039.07 189.916 1039.07 192.601 Z" fill="#000000" fill-rule="nonzero" fill-opacity="1" /><path clip-path="url(#clip640)" d="M1072.59 183.828 L1076.52 183.828 L1064.49 222.786 L1060.55 222.786 L1072.59 183.828 Z" fill="#000000" fill-rule="nonzero" fill-opacity="1" /><path clip-path="url(#clip640)" d="M1078.84 203.504 L1091.31 203.504 L1091.31 207.3 L1078.84 207.3 L1078.84 203.504 Z" fill="#000000" fill-rule="nonzero" fill-opacity="1" /><path clip-path="url(#clip640)" d="M1108.7 186.907 Q1105.09 186.907 1103.26 190.471 Q1101.45 194.013 1101.45 201.143 Q1101.45 208.249 1103.26 211.814 Q1105.09 215.355 1108.7 215.355 Q1112.33 215.355 1114.14 211.814 Q1115.97 208.249 1115.97 201.143 Q1115.97 194.013 1114.14 190.471 Q1112.33 186.907 1108.7 186.907 M1108.7 183.203 Q1114.51 183.203 1117.56 187.809 Q1120.64 192.393 1120.64 201.143 Q1120.64 209.869 1117.56 214.476 Q1114.51 219.059 1108.7 219.059 Q1102.89 219.059 1099.81 214.476 Q1096.75 209.869 1096.75 201.143 Q1096.75 192.393 1099.81 187.809 Q1102.89 183.203 1108.7 183.203 Z" fill="#000000" fill-rule="nonzero" fill-opacity="1" /><path clip-path="url(#clip640)" d="M1128.86 212.508 L1133.74 212.508 L1133.74 218.388 L1128.86 218.388 L1128.86 212.508 Z" fill="#000000" fill-rule="nonzero" fill-opacity="1" /><path clip-path="url(#clip640)" d="M1153.93 186.907 Q1150.32 186.907 1148.49 190.471 Q1146.68 194.013 1146.68 201.143 Q1146.68 208.249 1148.49 211.814 Q1150.32 215.355 1153.93 215.355 Q1157.56 215.355 1159.37 211.814 Q1161.2 208.249 1161.2 201.143 Q1161.2 194.013 1159.37 190.471 Q1157.56 186.907 1153.93 186.907 M1153.93 183.203 Q1159.74 183.203 1162.8 187.809 Q1165.87 192.393 1165.87 201.143 Q1165.87 209.869 1162.8 214.476 Q1159.74 219.059 1153.93 219.059 Q1148.12 219.059 1145.04 214.476 Q1141.99 209.869 1141.99 201.143 Q1141.99 192.393 1145.04 187.809 Q1148.12 183.203 1153.93 183.203 Z" fill="#000000" fill-rule="nonzero" fill-opacity="1" /><path clip-path="url(#clip640)" d="M1186.94 187.902 L1175.13 206.351 L1186.94 206.351 L1186.94 187.902 M1185.71 183.828 L1191.59 183.828 L1191.59 206.351 L1196.52 206.351 L1196.52 210.24 L1191.59 210.24 L1191.59 218.388 L1186.94 218.388 L1186.94 210.24 L1171.34 210.24 L1171.34 205.726 L1185.71 183.828 Z" fill="#000000" fill-rule="nonzero" fill-opacity="1" /><path clip-path="url(#clip640)" d="M1204.39 217.67 L1204.39 213.411 Q1206.15 214.244 1207.96 214.684 Q1209.76 215.124 1211.5 215.124 Q1216.13 215.124 1218.56 212.022 Q1221.01 208.897 1221.36 202.555 Q1220.02 204.545 1217.96 205.61 Q1215.9 206.675 1213.4 206.675 Q1208.21 206.675 1205.18 203.55 Q1202.17 200.402 1202.17 194.962 Q1202.17 189.638 1205.32 186.42 Q1208.47 183.203 1213.7 183.203 Q1219.69 183.203 1222.84 187.809 Q1226.01 192.393 1226.01 201.143 Q1226.01 209.314 1222.12 214.198 Q1218.26 219.059 1211.71 219.059 Q1209.95 219.059 1208.14 218.712 Q1206.34 218.365 1204.39 217.67 M1213.7 203.018 Q1216.85 203.018 1218.67 200.865 Q1220.53 198.712 1220.53 194.962 Q1220.53 191.235 1218.67 189.082 Q1216.85 186.907 1213.7 186.907 Q1210.55 186.907 1208.7 189.082 Q1206.87 191.235 1206.87 194.962 Q1206.87 198.712 1208.7 200.865 Q1210.55 203.018 1213.7 203.018 Z" fill="#000000" fill-rule="nonzero" fill-opacity="1" /><path clip-path="url(#clip640)" d="M1249.07 183.828 L1256.04 183.828 L1264.85 207.346 L1273.72 183.828 L1280.69 183.828 L1280.69 218.388 L1276.13 218.388 L1276.13 188.041 L1267.22 211.744 L1262.52 211.744 L1253.6 188.041 L1253.6 218.388 L1249.07 218.388 L1249.07 183.828 Z" fill="#000000" fill-rule="nonzero" fill-opacity="1" /><path clip-path="url(#clip640)" d="M1301.57 205.355 Q1296.41 205.355 1294.41 206.536 Q1292.42 207.717 1292.42 210.564 Q1292.42 212.832 1293.91 214.175 Q1295.41 215.494 1297.98 215.494 Q1301.52 215.494 1303.65 212.994 Q1305.8 210.471 1305.8 206.305 L1305.8 205.355 L1301.57 205.355 M1310.06 203.596 L1310.06 218.388 L1305.8 218.388 L1305.8 214.453 Q1304.35 216.814 1302.17 217.948 Q1299.99 219.059 1296.85 219.059 Q1292.86 219.059 1290.5 216.837 Q1288.16 214.592 1288.16 210.842 Q1288.16 206.467 1291.08 204.244 Q1294.02 202.022 1299.83 202.022 L1305.8 202.022 L1305.8 201.606 Q1305.8 198.666 1303.86 197.068 Q1301.94 195.448 1298.44 195.448 Q1296.22 195.448 1294.11 195.981 Q1292.01 196.513 1290.06 197.578 L1290.06 193.643 Q1292.4 192.74 1294.6 192.3 Q1296.8 191.837 1298.88 191.837 Q1304.51 191.837 1307.29 194.754 Q1310.06 197.67 1310.06 203.596 Z" fill="#000000" fill-rule="nonzero" fill-opacity="1" /><path clip-path="url(#clip640)" d="M1318.16 182.416 L1321.87 182.416 Q1325.34 187.879 1327.05 193.11 Q1328.79 198.342 1328.79 203.504 Q1328.79 208.689 1327.05 213.943 Q1325.34 219.198 1321.87 224.638 L1318.16 224.638 Q1321.24 219.337 1322.75 214.105 Q1324.28 208.851 1324.28 203.504 Q1324.28 198.156 1322.75 192.948 Q1321.24 187.74 1318.16 182.416 Z" fill="#000000" fill-rule="nonzero" fill-opacity="1" /></svg>
