<?xml version="1.0" encoding="utf-8"?>
<svg xmlns="http://www.w3.org/2000/svg" xmlns:xlink="http://www.w3.org/1999/xlink" width="600" height="400" viewBox="0 0 2400 1600">
<defs>
  <clipPath id="clip740">
    <rect x="0" y="0" width="2400" height="1600"/>
  </clipPath>
</defs>
<path clip-path="url(#clip740)" d="M0 1600 L2400 1600 L2400 8.88178e-14 L0 8.88178e-14  Z" fill="#ffffff" fill-rule="evenodd" fill-opacity="1"/>
<defs>
  <clipPath id="clip741">
    <rect x="480" y="0" width="1681" height="1600"/>
  </clipPath>
</defs>
<path clip-path="url(#clip740)" d="M279.519 1552.76 L2352.76 1552.76 L2352.76 47.2441 L279.519 47.2441  Z" fill="#ffffff" fill-rule="evenodd" fill-opacity="1"/>
<defs>
  <clipPath id="clip742">
    <rect x="279" y="47" width="2074" height="1507"/>
  </clipPath>
</defs>
<polyline clip-path="url(#clip742)" style="stroke:#000000; stroke-linecap:round; stroke-linejoin:round; stroke-width:2; stroke-opacity:0.1; fill:none" points="279.519,1317.93 2352.76,1317.93 "/>
<polyline clip-path="url(#clip742)" style="stroke:#000000; stroke-linecap:round; stroke-linejoin:round; stroke-width:2; stroke-opacity:0.1; fill:none" points="279.519,1050.95 2352.76,1050.95 "/>
<polyline clip-path="url(#clip742)" style="stroke:#000000; stroke-linecap:round; stroke-linejoin:round; stroke-width:2; stroke-opacity:0.1; fill:none" points="279.519,783.982 2352.76,783.982 "/>
<polyline clip-path="url(#clip742)" style="stroke:#000000; stroke-linecap:round; stroke-linejoin:round; stroke-width:2; stroke-opacity:0.1; fill:none" points="279.519,517.009 2352.76,517.009 "/>
<polyline clip-path="url(#clip742)" style="stroke:#000000; stroke-linecap:round; stroke-linejoin:round; stroke-width:2; stroke-opacity:0.1; fill:none" points="279.519,250.036 2352.76,250.036 "/>
<polyline clip-path="url(#clip742)" style="stroke:#000000; stroke-linecap:round; stroke-linejoin:round; stroke-width:2; stroke-opacity:0.1; fill:none" points="279.519,1317.93 2352.76,1317.93 "/>
<polyline clip-path="url(#clip742)" style="stroke:#000000; stroke-linecap:round; stroke-linejoin:round; stroke-width:2; stroke-opacity:0.1; fill:none" points="279.519,1050.95 2352.76,1050.95 "/>
<polyline clip-path="url(#clip742)" style="stroke:#000000; stroke-linecap:round; stroke-linejoin:round; stroke-width:2; stroke-opacity:0.1; fill:none" points="279.519,783.982 2352.76,783.982 "/>
<polyline clip-path="url(#clip742)" style="stroke:#000000; stroke-linecap:round; stroke-linejoin:round; stroke-width:2; stroke-opacity:0.1; fill:none" points="279.519,517.009 2352.76,517.009 "/>
<polyline clip-path="url(#clip742)" style="stroke:#000000; stroke-linecap:round; stroke-linejoin:round; stroke-width:2; stroke-opacity:0.1; fill:none" points="279.519,250.036 2352.76,250.036 "/>
<polyline clip-path="url(#clip740)" style="stroke:#000000; stroke-linecap:round; stroke-linejoin:round; stroke-width:4; stroke-opacity:1; fill:none" points="279.519,1552.76 2352.76,1552.76 "/>
<polyline clip-path="url(#clip740)" style="stroke:#000000; stroke-linecap:round; stroke-linejoin:round; stroke-width:4; stroke-opacity:1; fill:none" points="279.519,47.2441 2352.76,47.2441 "/>
<polyline clip-path="url(#clip740)" style="stroke:#000000; stroke-linecap:round; stroke-linejoin:round; stroke-width:4; stroke-opacity:1; fill:none" points="279.519,1552.76 279.519,47.2441 "/>
<polyline clip-path="url(#clip740)" style="stroke:#000000; stroke-linecap:round; stroke-linejoin:round; stroke-width:4; stroke-opacity:1; fill:none" points="2352.76,1552.76 2352.76,47.2441 "/>
<polyline clip-path="url(#clip740)" style="stroke:#000000; stroke-linecap:round; stroke-linejoin:round; stroke-width:4; stroke-opacity:1; fill:none" points="279.519,1317.93 298.416,1317.93 "/>
<polyline clip-path="url(#clip740)" style="stroke:#000000; stroke-linecap:round; stroke-linejoin:round; stroke-width:4; stroke-opacity:1; fill:none" points="279.519,1050.95 298.416,1050.95 "/>
<polyline clip-path="url(#clip740)" style="stroke:#000000; stroke-linecap:round; stroke-linejoin:round; stroke-width:4; stroke-opacity:1; fill:none" points="279.519,783.982 298.416,783.982 "/>
<polyline clip-path="url(#clip740)" style="stroke:#000000; stroke-linecap:round; stroke-linejoin:round; stroke-width:4; stroke-opacity:1; fill:none" points="279.519,517.009 298.416,517.009 "/>
<polyline clip-path="url(#clip740)" style="stroke:#000000; stroke-linecap:round; stroke-linejoin:round; stroke-width:4; stroke-opacity:1; fill:none" points="279.519,250.036 298.416,250.036 "/>
<polyline clip-path="url(#clip740)" style="stroke:#000000; stroke-linecap:round; stroke-linejoin:round; stroke-width:4; stroke-opacity:1; fill:none" points="2352.76,1317.93 2333.86,1317.93 "/>
<polyline clip-path="url(#clip740)" style="stroke:#000000; stroke-linecap:round; stroke-linejoin:round; stroke-width:4; stroke-opacity:1; fill:none" points="2352.76,1050.95 2333.86,1050.95 "/>
<polyline clip-path="url(#clip740)" style="stroke:#000000; stroke-linecap:round; stroke-linejoin:round; stroke-width:4; stroke-opacity:1; fill:none" points="2352.76,783.982 2333.86,783.982 "/>
<polyline clip-path="url(#clip740)" style="stroke:#000000; stroke-linecap:round; stroke-linejoin:round; stroke-width:4; stroke-opacity:1; fill:none" points="2352.76,517.009 2333.86,517.009 "/>
<polyline clip-path="url(#clip740)" style="stroke:#000000; stroke-linecap:round; stroke-linejoin:round; stroke-width:4; stroke-opacity:1; fill:none" points="2352.76,250.036 2333.86,250.036 "/>
<path clip-path="url(#clip740)" d="M127.593 1316.06 Q124.445 1316.06 122.593 1318.22 Q120.765 1320.37 120.765 1324.12 Q120.765 1327.85 122.593 1330.02 Q124.445 1332.17 127.593 1332.17 Q130.742 1332.17 132.57 1330.02 Q134.422 1327.85 134.422 1324.12 Q134.422 1320.37 132.57 1318.22 Q130.742 1316.06 127.593 1316.06 M136.876 1301.41 L136.876 1305.67 Q135.117 1304.84 133.311 1304.4 Q131.529 1303.96 129.769 1303.96 Q125.14 1303.96 122.686 1307.08 Q120.255 1310.21 119.908 1316.53 Q121.274 1314.51 123.334 1313.45 Q125.394 1312.36 127.871 1312.36 Q133.08 1312.36 136.089 1315.53 Q139.121 1318.68 139.121 1324.12 Q139.121 1329.44 135.973 1332.66 Q132.825 1335.88 127.593 1335.88 Q121.598 1335.88 118.427 1331.29 Q115.256 1326.69 115.256 1317.96 Q115.256 1309.77 119.144 1304.91 Q123.033 1300.02 129.584 1300.02 Q131.343 1300.02 133.126 1300.37 Q134.931 1300.72 136.876 1301.41 Z" fill="#000000" fill-rule="nonzero" fill-opacity="1" /><path clip-path="url(#clip740)" d="M147.223 1300.65 L165.579 1300.65 L165.579 1304.58 L151.505 1304.58 L151.505 1313.05 Q152.524 1312.71 153.542 1312.54 Q154.561 1312.36 155.579 1312.36 Q161.366 1312.36 164.746 1315.53 Q168.126 1318.7 168.126 1324.12 Q168.126 1329.7 164.653 1332.8 Q161.181 1335.88 154.862 1335.88 Q152.686 1335.88 150.417 1335.51 Q148.172 1335.14 145.765 1334.4 L145.765 1329.7 Q147.848 1330.83 150.07 1331.39 Q152.292 1331.94 154.769 1331.94 Q158.774 1331.94 161.112 1329.84 Q163.45 1327.73 163.45 1324.12 Q163.45 1320.51 161.112 1318.4 Q158.774 1316.29 154.769 1316.29 Q152.894 1316.29 151.019 1316.71 Q149.167 1317.13 147.223 1318.01 L147.223 1300.65 Z" fill="#000000" fill-rule="nonzero" fill-opacity="1" /><path clip-path="url(#clip740)" d="M177.339 1329.33 L182.223 1329.33 L182.223 1335.21 L177.339 1335.21 L177.339 1329.33 Z" fill="#000000" fill-rule="nonzero" fill-opacity="1" /><path clip-path="url(#clip740)" d="M196.436 1331.27 L212.755 1331.27 L212.755 1335.21 L190.811 1335.21 L190.811 1331.27 Q193.473 1328.52 198.056 1323.89 Q202.662 1319.23 203.843 1317.89 Q206.088 1315.37 206.968 1313.63 Q207.871 1311.87 207.871 1310.18 Q207.871 1307.43 205.926 1305.69 Q204.005 1303.96 200.903 1303.96 Q198.704 1303.96 196.25 1304.72 Q193.82 1305.48 191.042 1307.04 L191.042 1302.31 Q193.866 1301.18 196.32 1300.6 Q198.774 1300.02 200.811 1300.02 Q206.181 1300.02 209.375 1302.71 Q212.57 1305.39 212.57 1309.88 Q212.57 1312.01 211.76 1313.93 Q210.973 1315.83 208.866 1318.42 Q208.287 1319.1 205.186 1322.31 Q202.084 1325.51 196.436 1331.27 Z" fill="#000000" fill-rule="nonzero" fill-opacity="1" /><path clip-path="url(#clip740)" d="M222.616 1300.65 L240.972 1300.65 L240.972 1304.58 L226.898 1304.58 L226.898 1313.05 Q227.917 1312.71 228.935 1312.54 Q229.954 1312.36 230.972 1312.36 Q236.76 1312.36 240.139 1315.53 Q243.519 1318.7 243.519 1324.12 Q243.519 1329.7 240.047 1332.8 Q236.574 1335.88 230.255 1335.88 Q228.079 1335.88 225.81 1335.51 Q223.565 1335.14 221.158 1334.4 L221.158 1329.7 Q223.241 1330.83 225.463 1331.39 Q227.685 1331.94 230.162 1331.94 Q234.167 1331.94 236.505 1329.84 Q238.843 1327.73 238.843 1324.12 Q238.843 1320.51 236.505 1318.4 Q234.167 1316.29 230.162 1316.29 Q228.287 1316.29 226.412 1316.71 Q224.56 1317.13 222.616 1318.01 L222.616 1300.65 Z" fill="#000000" fill-rule="nonzero" fill-opacity="1" /><path clip-path="url(#clip740)" d="M126.598 1049.09 Q123.45 1049.09 121.598 1051.24 Q119.769 1053.4 119.769 1057.15 Q119.769 1060.87 121.598 1063.05 Q123.45 1065.2 126.598 1065.2 Q129.746 1065.2 131.575 1063.05 Q133.427 1060.87 133.427 1057.15 Q133.427 1053.4 131.575 1051.24 Q129.746 1049.09 126.598 1049.09 M135.88 1034.44 L135.88 1038.7 Q134.121 1037.86 132.316 1037.42 Q130.533 1036.98 128.774 1036.98 Q124.144 1036.98 121.691 1040.11 Q119.26 1043.23 118.913 1049.55 Q120.279 1047.54 122.339 1046.48 Q124.399 1045.39 126.876 1045.39 Q132.084 1045.39 135.093 1048.56 Q138.126 1051.71 138.126 1057.15 Q138.126 1062.47 134.978 1065.69 Q131.83 1068.91 126.598 1068.91 Q120.603 1068.91 117.431 1064.32 Q114.26 1059.72 114.26 1050.99 Q114.26 1042.79 118.149 1037.93 Q122.038 1033.05 128.589 1033.05 Q130.348 1033.05 132.13 1033.4 Q133.936 1033.74 135.88 1034.44 Z" fill="#000000" fill-rule="nonzero" fill-opacity="1" /><path clip-path="url(#clip740)" d="M146.228 1033.67 L164.584 1033.67 L164.584 1037.61 L150.51 1037.61 L150.51 1046.08 Q151.528 1045.73 152.547 1045.57 Q153.566 1045.39 154.584 1045.39 Q160.371 1045.39 163.751 1048.56 Q167.13 1051.73 167.13 1057.15 Q167.13 1062.73 163.658 1065.83 Q160.186 1068.91 153.866 1068.91 Q151.691 1068.91 149.422 1068.54 Q147.177 1068.16 144.769 1067.42 L144.769 1062.73 Q146.853 1063.86 149.075 1064.41 Q151.297 1064.97 153.774 1064.97 Q157.778 1064.97 160.116 1062.86 Q162.454 1060.76 162.454 1057.15 Q162.454 1053.54 160.116 1051.43 Q157.778 1049.32 153.774 1049.32 Q151.899 1049.32 150.024 1049.74 Q148.172 1050.16 146.228 1051.04 L146.228 1033.67 Z" fill="#000000" fill-rule="nonzero" fill-opacity="1" /><path clip-path="url(#clip740)" d="M176.343 1062.35 L181.227 1062.35 L181.227 1068.23 L176.343 1068.23 L176.343 1062.35 Z" fill="#000000" fill-rule="nonzero" fill-opacity="1" /><path clip-path="url(#clip740)" d="M191.459 1033.67 L209.815 1033.67 L209.815 1037.61 L195.741 1037.61 L195.741 1046.08 Q196.76 1045.73 197.778 1045.57 Q198.797 1045.39 199.815 1045.39 Q205.602 1045.39 208.982 1048.56 Q212.361 1051.73 212.361 1057.15 Q212.361 1062.73 208.889 1065.83 Q205.417 1068.91 199.098 1068.91 Q196.922 1068.91 194.653 1068.54 Q192.408 1068.16 190 1067.42 L190 1062.73 Q192.084 1063.86 194.306 1064.41 Q196.528 1064.97 199.005 1064.97 Q203.01 1064.97 205.348 1062.86 Q207.686 1060.76 207.686 1057.15 Q207.686 1053.54 205.348 1051.43 Q203.01 1049.32 199.005 1049.32 Q197.13 1049.32 195.255 1049.74 Q193.403 1050.16 191.459 1051.04 L191.459 1033.67 Z" fill="#000000" fill-rule="nonzero" fill-opacity="1" /><path clip-path="url(#clip740)" d="M231.574 1036.75 Q227.963 1036.75 226.135 1040.32 Q224.329 1043.86 224.329 1050.99 Q224.329 1058.1 226.135 1061.66 Q227.963 1065.2 231.574 1065.2 Q235.209 1065.2 237.014 1061.66 Q238.843 1058.1 238.843 1050.99 Q238.843 1043.86 237.014 1040.32 Q235.209 1036.75 231.574 1036.75 M231.574 1033.05 Q237.384 1033.05 240.44 1037.66 Q243.519 1042.24 243.519 1050.99 Q243.519 1059.72 240.44 1064.32 Q237.384 1068.91 231.574 1068.91 Q225.764 1068.91 222.686 1064.32 Q219.63 1059.72 219.63 1050.99 Q219.63 1042.24 222.686 1037.66 Q225.764 1033.05 231.574 1033.05 Z" fill="#000000" fill-rule="nonzero" fill-opacity="1" /><path clip-path="url(#clip740)" d="M127.593 782.118 Q124.445 782.118 122.593 784.271 Q120.765 786.424 120.765 790.174 Q120.765 793.901 122.593 796.076 Q124.445 798.229 127.593 798.229 Q130.742 798.229 132.57 796.076 Q134.422 793.901 134.422 790.174 Q134.422 786.424 132.57 784.271 Q130.742 782.118 127.593 782.118 M136.876 767.466 L136.876 771.725 Q135.117 770.891 133.311 770.452 Q131.529 770.012 129.769 770.012 Q125.14 770.012 122.686 773.137 Q120.255 776.262 119.908 782.581 Q121.274 780.567 123.334 779.503 Q125.394 778.415 127.871 778.415 Q133.08 778.415 136.089 781.586 Q139.121 784.734 139.121 790.174 Q139.121 795.498 135.973 798.715 Q132.825 801.933 127.593 801.933 Q121.598 801.933 118.427 797.35 Q115.256 792.743 115.256 784.016 Q115.256 775.822 119.144 770.961 Q123.033 766.077 129.584 766.077 Q131.343 766.077 133.126 766.424 Q134.931 766.771 136.876 767.466 Z" fill="#000000" fill-rule="nonzero" fill-opacity="1" /><path clip-path="url(#clip740)" d="M147.223 766.702 L165.579 766.702 L165.579 770.637 L151.505 770.637 L151.505 779.109 Q152.524 778.762 153.542 778.6 Q154.561 778.415 155.579 778.415 Q161.366 778.415 164.746 781.586 Q168.126 784.757 168.126 790.174 Q168.126 795.752 164.653 798.854 Q161.181 801.933 154.862 801.933 Q152.686 801.933 150.417 801.563 Q148.172 801.192 145.765 800.451 L145.765 795.752 Q147.848 796.887 150.07 797.442 Q152.292 797.998 154.769 797.998 Q158.774 797.998 161.112 795.891 Q163.45 793.785 163.45 790.174 Q163.45 786.563 161.112 784.456 Q158.774 782.35 154.769 782.35 Q152.894 782.35 151.019 782.766 Q149.167 783.183 147.223 784.063 L147.223 766.702 Z" fill="#000000" fill-rule="nonzero" fill-opacity="1" /><path clip-path="url(#clip740)" d="M177.339 795.382 L182.223 795.382 L182.223 801.262 L177.339 801.262 L177.339 795.382 Z" fill="#000000" fill-rule="nonzero" fill-opacity="1" /><path clip-path="url(#clip740)" d="M191.227 766.702 L213.449 766.702 L213.449 768.692 L200.903 801.262 L196.019 801.262 L207.824 770.637 L191.227 770.637 L191.227 766.702 Z" fill="#000000" fill-rule="nonzero" fill-opacity="1" /><path clip-path="url(#clip740)" d="M222.616 766.702 L240.972 766.702 L240.972 770.637 L226.898 770.637 L226.898 779.109 Q227.917 778.762 228.935 778.6 Q229.954 778.415 230.972 778.415 Q236.76 778.415 240.139 781.586 Q243.519 784.757 243.519 790.174 Q243.519 795.752 240.047 798.854 Q236.574 801.933 230.255 801.933 Q228.079 801.933 225.81 801.563 Q223.565 801.192 221.158 800.451 L221.158 795.752 Q223.241 796.887 225.463 797.442 Q227.685 797.998 230.162 797.998 Q234.167 797.998 236.505 795.891 Q238.843 793.785 238.843 790.174 Q238.843 786.563 236.505 784.456 Q234.167 782.35 230.162 782.35 Q228.287 782.35 226.412 782.766 Q224.56 783.183 222.616 784.063 L222.616 766.702 Z" fill="#000000" fill-rule="nonzero" fill-opacity="1" /><path clip-path="url(#clip740)" d="M126.598 515.146 Q123.45 515.146 121.598 517.298 Q119.769 519.451 119.769 523.201 Q119.769 526.928 121.598 529.104 Q123.45 531.257 126.598 531.257 Q129.746 531.257 131.575 529.104 Q133.427 526.928 133.427 523.201 Q133.427 519.451 131.575 517.298 Q129.746 515.146 126.598 515.146 M135.88 500.493 L135.88 504.752 Q134.121 503.919 132.316 503.479 Q130.533 503.039 128.774 503.039 Q124.144 503.039 121.691 506.164 Q119.26 509.289 118.913 515.609 Q120.279 513.595 122.339 512.53 Q124.399 511.442 126.876 511.442 Q132.084 511.442 135.093 514.613 Q138.126 517.761 138.126 523.201 Q138.126 528.525 134.978 531.743 Q131.83 534.96 126.598 534.96 Q120.603 534.96 117.431 530.377 Q114.26 525.771 114.26 517.044 Q114.26 508.849 118.149 503.988 Q122.038 499.104 128.589 499.104 Q130.348 499.104 132.13 499.451 Q133.936 499.799 135.88 500.493 Z" fill="#000000" fill-rule="nonzero" fill-opacity="1" /><path clip-path="url(#clip740)" d="M156.76 515.146 Q153.612 515.146 151.76 517.298 Q149.931 519.451 149.931 523.201 Q149.931 526.928 151.76 529.104 Q153.612 531.257 156.76 531.257 Q159.908 531.257 161.737 529.104 Q163.589 526.928 163.589 523.201 Q163.589 519.451 161.737 517.298 Q159.908 515.146 156.76 515.146 M166.042 500.493 L166.042 504.752 Q164.283 503.919 162.477 503.479 Q160.695 503.039 158.936 503.039 Q154.306 503.039 151.853 506.164 Q149.422 509.289 149.075 515.609 Q150.441 513.595 152.501 512.53 Q154.561 511.442 157.038 511.442 Q162.246 511.442 165.255 514.613 Q168.288 517.761 168.288 523.201 Q168.288 528.525 165.14 531.743 Q161.991 534.96 156.76 534.96 Q150.765 534.96 147.593 530.377 Q144.422 525.771 144.422 517.044 Q144.422 508.849 148.311 503.988 Q152.2 499.104 158.751 499.104 Q160.51 499.104 162.292 499.451 Q164.098 499.799 166.042 500.493 Z" fill="#000000" fill-rule="nonzero" fill-opacity="1" /><path clip-path="url(#clip740)" d="M176.343 528.409 L181.227 528.409 L181.227 534.289 L176.343 534.289 L176.343 528.409 Z" fill="#000000" fill-rule="nonzero" fill-opacity="1" /><path clip-path="url(#clip740)" d="M201.412 502.808 Q197.801 502.808 195.973 506.373 Q194.167 509.914 194.167 517.044 Q194.167 524.15 195.973 527.715 Q197.801 531.257 201.412 531.257 Q205.047 531.257 206.852 527.715 Q208.681 524.15 208.681 517.044 Q208.681 509.914 206.852 506.373 Q205.047 502.808 201.412 502.808 M201.412 499.104 Q207.223 499.104 210.278 503.711 Q213.357 508.294 213.357 517.044 Q213.357 525.771 210.278 530.377 Q207.223 534.96 201.412 534.96 Q195.602 534.96 192.524 530.377 Q189.468 525.771 189.468 517.044 Q189.468 508.294 192.524 503.711 Q195.602 499.104 201.412 499.104 Z" fill="#000000" fill-rule="nonzero" fill-opacity="1" /><path clip-path="url(#clip740)" d="M231.574 502.808 Q227.963 502.808 226.135 506.373 Q224.329 509.914 224.329 517.044 Q224.329 524.15 226.135 527.715 Q227.963 531.257 231.574 531.257 Q235.209 531.257 237.014 527.715 Q238.843 524.15 238.843 517.044 Q238.843 509.914 237.014 506.373 Q235.209 502.808 231.574 502.808 M231.574 499.104 Q237.384 499.104 240.44 503.711 Q243.519 508.294 243.519 517.044 Q243.519 525.771 240.44 530.377 Q237.384 534.96 231.574 534.96 Q225.764 534.96 222.686 530.377 Q219.63 525.771 219.63 517.044 Q219.63 508.294 222.686 503.711 Q225.764 499.104 231.574 499.104 Z" fill="#000000" fill-rule="nonzero" fill-opacity="1" /><path clip-path="url(#clip740)" d="M127.593 248.173 Q124.445 248.173 122.593 250.326 Q120.765 252.479 120.765 256.229 Q120.765 259.955 122.593 262.131 Q124.445 264.284 127.593 264.284 Q130.742 264.284 132.57 262.131 Q134.422 259.955 134.422 256.229 Q134.422 252.479 132.57 250.326 Q130.742 248.173 127.593 248.173 M136.876 233.52 L136.876 237.78 Q135.117 236.946 133.311 236.506 Q131.529 236.067 129.769 236.067 Q125.14 236.067 122.686 239.192 Q120.255 242.317 119.908 248.636 Q121.274 246.622 123.334 245.557 Q125.394 244.469 127.871 244.469 Q133.08 244.469 136.089 247.641 Q139.121 250.789 139.121 256.229 Q139.121 261.553 135.973 264.77 Q132.825 267.988 127.593 267.988 Q121.598 267.988 118.427 263.404 Q115.256 258.798 115.256 250.071 Q115.256 241.877 119.144 237.016 Q123.033 232.131 129.584 232.131 Q131.343 232.131 133.126 232.479 Q134.931 232.826 136.876 233.52 Z" fill="#000000" fill-rule="nonzero" fill-opacity="1" /><path clip-path="url(#clip740)" d="M157.755 248.173 Q154.607 248.173 152.755 250.326 Q150.927 252.479 150.927 256.229 Q150.927 259.955 152.755 262.131 Q154.607 264.284 157.755 264.284 Q160.903 264.284 162.732 262.131 Q164.584 259.955 164.584 256.229 Q164.584 252.479 162.732 250.326 Q160.903 248.173 157.755 248.173 M167.038 233.52 L167.038 237.78 Q165.278 236.946 163.473 236.506 Q161.69 236.067 159.931 236.067 Q155.302 236.067 152.848 239.192 Q150.417 242.317 150.07 248.636 Q151.436 246.622 153.496 245.557 Q155.556 244.469 158.033 244.469 Q163.241 244.469 166.251 247.641 Q169.283 250.789 169.283 256.229 Q169.283 261.553 166.135 264.77 Q162.987 267.988 157.755 267.988 Q151.76 267.988 148.589 263.404 Q145.417 258.798 145.417 250.071 Q145.417 241.877 149.306 237.016 Q153.195 232.131 159.746 232.131 Q161.505 232.131 163.288 232.479 Q165.093 232.826 167.038 233.52 Z" fill="#000000" fill-rule="nonzero" fill-opacity="1" /><path clip-path="url(#clip740)" d="M177.339 261.437 L182.223 261.437 L182.223 267.316 L177.339 267.316 L177.339 261.437 Z" fill="#000000" fill-rule="nonzero" fill-opacity="1" /><path clip-path="url(#clip740)" d="M196.436 263.381 L212.755 263.381 L212.755 267.316 L190.811 267.316 L190.811 263.381 Q193.473 260.627 198.056 255.997 Q202.662 251.344 203.843 250.002 Q206.088 247.479 206.968 245.743 Q207.871 243.983 207.871 242.293 Q207.871 239.539 205.926 237.803 Q204.005 236.067 200.903 236.067 Q198.704 236.067 196.25 236.831 Q193.82 237.594 191.042 239.145 L191.042 234.423 Q193.866 233.289 196.32 232.71 Q198.774 232.131 200.811 232.131 Q206.181 232.131 209.375 234.817 Q212.57 237.502 212.57 241.993 Q212.57 244.122 211.76 246.043 Q210.973 247.942 208.866 250.534 Q208.287 251.205 205.186 254.423 Q202.084 257.617 196.436 263.381 Z" fill="#000000" fill-rule="nonzero" fill-opacity="1" /><path clip-path="url(#clip740)" d="M222.616 232.756 L240.972 232.756 L240.972 236.692 L226.898 236.692 L226.898 245.164 Q227.917 244.817 228.935 244.655 Q229.954 244.469 230.972 244.469 Q236.76 244.469 240.139 247.641 Q243.519 250.812 243.519 256.229 Q243.519 261.807 240.047 264.909 Q236.574 267.988 230.255 267.988 Q228.079 267.988 225.81 267.617 Q223.565 267.247 221.158 266.506 L221.158 261.807 Q223.241 262.941 225.463 263.497 Q227.685 264.053 230.162 264.053 Q234.167 264.053 236.505 261.946 Q238.843 259.84 238.843 256.229 Q238.843 252.617 236.505 250.511 Q234.167 248.405 230.162 248.405 Q228.287 248.405 226.412 248.821 Q224.56 249.238 222.616 250.117 L222.616 232.756 Z" fill="#000000" fill-rule="nonzero" fill-opacity="1" /><path clip-path="url(#clip740)" d="M22.818 922.094 L46.4666 930.815 L46.4666 913.341 L22.818 922.094 M16.4842 925.723 L16.4842 918.434 L64.0042 900.324 L64.0042 907.008 L51.8138 911.336 L51.8138 932.757 L64.0042 937.085 L64.0042 943.865 L16.4842 925.723 Z" fill="#000000" fill-rule="nonzero" fill-opacity="1" /><path clip-path="url(#clip740)" d="M45.7664 870.182 Q39.4007 870.182 35.8996 872.824 Q32.3984 875.434 32.3984 880.176 Q32.3984 884.887 35.8996 887.528 Q39.4007 890.138 45.7664 890.138 Q52.1003 890.138 55.6014 887.528 Q59.1026 884.887 59.1026 880.176 Q59.1026 875.434 55.6014 872.824 Q52.1003 870.182 45.7664 870.182 M59.58 864.325 Q68.683 864.325 73.1071 868.368 Q77.5631 872.41 77.5631 880.749 Q77.5631 883.836 77.0857 886.574 Q76.6401 889.311 75.6852 891.889 L69.9879 891.889 Q71.3884 889.311 72.0568 886.796 Q72.7252 884.282 72.7252 881.672 Q72.7252 875.911 69.7015 873.046 Q66.7096 870.182 60.6303 870.182 L57.7339 870.182 Q60.885 871.996 62.4446 874.829 Q64.0042 877.662 64.0042 881.608 Q64.0042 888.165 59.0071 892.175 Q54.01 896.186 45.7664 896.186 Q37.491 896.186 32.4939 892.175 Q27.4968 888.165 27.4968 881.608 Q27.4968 877.662 29.0564 874.829 Q30.616 871.996 33.7671 870.182 L28.3562 870.182 L28.3562 864.325 L59.58 864.325 Z" fill="#000000" fill-rule="nonzero" fill-opacity="1" /><path clip-path="url(#clip740)" d="M44.7161 821.771 L47.5806 821.771 L47.5806 848.698 Q53.6281 848.316 56.8109 845.069 Q59.9619 841.791 59.9619 835.966 Q59.9619 832.592 59.1344 829.441 Q58.3069 826.259 56.6518 823.139 L62.1899 823.139 Q63.5267 826.29 64.227 829.601 Q64.9272 832.911 64.9272 836.316 Q64.9272 844.846 59.9619 849.843 Q54.9967 854.809 46.5303 854.809 Q37.7774 854.809 32.6531 850.098 Q27.4968 845.356 27.4968 837.335 Q27.4968 830.142 32.1438 825.972 Q36.7589 821.771 44.7161 821.771 M42.9973 827.627 Q38.1912 827.691 35.3266 830.333 Q32.4621 832.943 32.4621 837.271 Q32.4621 842.173 35.2312 845.133 Q38.0002 848.061 43.0292 848.507 L42.9973 827.627 Z" fill="#000000" fill-rule="nonzero" fill-opacity="1" /><path clip-path="url(#clip740)" d="M14.5426 777.37 Q21.8632 781.635 29.0246 783.704 Q36.186 785.773 43.5384 785.773 Q50.8908 785.773 58.1159 783.704 Q65.3091 781.603 72.5979 777.37 L72.5979 782.462 Q65.1182 787.237 57.8931 789.624 Q50.668 791.979 43.5384 791.979 Q36.4406 791.979 29.2474 789.624 Q22.0542 787.269 14.5426 782.462 L14.5426 777.37 Z" fill="#000000" fill-rule="nonzero" fill-opacity="1" /><path clip-path="url(#clip740)" d="M16.4842 765.752 L16.4842 756.172 L48.8219 744.045 L16.4842 731.855 L16.4842 722.275 L64.0042 722.275 L64.0042 728.545 L22.277 728.545 L54.8694 740.799 L54.8694 747.26 L22.277 759.514 L64.0042 759.514 L64.0042 765.752 L16.4842 765.752 Z" fill="#000000" fill-rule="nonzero" fill-opacity="1" /><path clip-path="url(#clip740)" d="M46.0847 693.565 Q46.0847 700.663 47.7079 703.4 Q49.3312 706.138 53.2461 706.138 Q56.3653 706.138 58.2114 704.101 Q60.0256 702.032 60.0256 698.499 Q60.0256 693.629 56.5881 690.701 Q53.1188 687.741 47.3897 687.741 L46.0847 687.741 L46.0847 693.565 M43.6657 681.884 L64.0042 681.884 L64.0042 687.741 L58.5933 687.741 Q61.8398 689.746 63.3994 692.738 Q64.9272 695.73 64.9272 700.058 Q64.9272 705.533 61.8716 708.779 Q58.7843 711.994 53.6281 711.994 Q47.6125 711.994 44.5569 707.984 Q41.5014 703.941 41.5014 695.953 L41.5014 687.741 L40.9285 687.741 Q36.8862 687.741 34.6901 690.414 Q32.4621 693.056 32.4621 697.862 Q32.4621 700.918 33.1941 703.814 Q33.9262 706.711 35.3903 709.384 L29.9795 709.384 Q28.7381 706.169 28.1334 703.146 Q27.4968 700.122 27.4968 697.257 Q27.4968 689.523 31.5072 685.704 Q35.5176 681.884 43.6657 681.884 Z" fill="#000000" fill-rule="nonzero" fill-opacity="1" /><path clip-path="url(#clip740)" d="M14.5426 670.744 L14.5426 665.652 Q22.0542 660.877 29.2474 658.522 Q36.4406 656.135 43.5384 656.135 Q50.668 656.135 57.8931 658.522 Q65.1182 660.877 72.5979 665.652 L72.5979 670.744 Q65.3091 666.511 58.1159 664.442 Q50.8908 662.342 43.5384 662.342 Q36.186 662.342 29.0246 664.442 Q21.8632 666.511 14.5426 670.744 Z" fill="#000000" fill-rule="nonzero" fill-opacity="1" /><polyline clip-path="url(#clip742)" style="stroke:#009af9; stroke-linecap:round; stroke-linejoin:round; stroke-width:4; stroke-opacity:1; fill:none" points="338.195,1510.15 338.195,783.982 "/>
<polyline clip-path="url(#clip742)" style="stroke:#009af9; stroke-linecap:round; stroke-linejoin:round; stroke-width:4; stroke-opacity:1; fill:none" points="468.588,1403.36 468.588,890.771 "/>
<polyline clip-path="url(#clip742)" style="stroke:#009af9; stroke-linecap:round; stroke-linejoin:round; stroke-width:4; stroke-opacity:1; fill:none" points="598.98,1317.93 598.98,762.624 "/>
<polyline clip-path="url(#clip742)" style="stroke:#009af9; stroke-linecap:round; stroke-linejoin:round; stroke-width:4; stroke-opacity:1; fill:none" points="729.372,1136.39 729.372,901.45 "/>
<polyline clip-path="url(#clip742)" style="stroke:#009af9; stroke-linecap:round; stroke-linejoin:round; stroke-width:4; stroke-opacity:1; fill:none" points="859.764,1136.39 859.764,858.734 "/>
<polyline clip-path="url(#clip742)" style="stroke:#009af9; stroke-linecap:round; stroke-linejoin:round; stroke-width:4; stroke-opacity:1; fill:none" points="990.157,1115.03 990.157,773.303 "/>
<polyline clip-path="url(#clip742)" style="stroke:#009af9; stroke-linecap:round; stroke-linejoin:round; stroke-width:4; stroke-opacity:1; fill:none" points="1120.55,1264.53 1120.55,623.798 "/>
<polyline clip-path="url(#clip742)" style="stroke:#009af9; stroke-linecap:round; stroke-linejoin:round; stroke-width:4; stroke-opacity:1; fill:none" points="1250.94,1014.65 1250.94,854.462 "/>
<polyline clip-path="url(#clip742)" style="stroke:#009af9; stroke-linecap:round; stroke-linejoin:round; stroke-width:4; stroke-opacity:1; fill:none" points="1381.33,1082.99 1381.33,762.624 "/>
<polyline clip-path="url(#clip742)" style="stroke:#009af9; stroke-linecap:round; stroke-linejoin:round; stroke-width:4; stroke-opacity:1; fill:none" points="1511.73,976.202 1511.73,762.624 "/>
<polyline clip-path="url(#clip742)" style="stroke:#009af9; stroke-linecap:round; stroke-linejoin:round; stroke-width:4; stroke-opacity:1; fill:none" points="1642.12,1029.6 1642.12,709.229 "/>
<polyline clip-path="url(#clip742)" style="stroke:#009af9; stroke-linecap:round; stroke-linejoin:round; stroke-width:4; stroke-opacity:1; fill:none" points="1772.51,952.708 1772.51,756.216 "/>
<polyline clip-path="url(#clip742)" style="stroke:#009af9; stroke-linecap:round; stroke-linejoin:round; stroke-width:4; stroke-opacity:1; fill:none" points="1902.9,1211.14 1902.9,484.972 "/>
<polyline clip-path="url(#clip742)" style="stroke:#009af9; stroke-linecap:round; stroke-linejoin:round; stroke-width:4; stroke-opacity:1; fill:none" points="2033.29,888.635 2033.29,702.822 "/>
<polyline clip-path="url(#clip742)" style="stroke:#009af9; stroke-linecap:round; stroke-linejoin:round; stroke-width:4; stroke-opacity:1; fill:none" points="2163.69,1253.85 2163.69,314.11 "/>
<polyline clip-path="url(#clip742)" style="stroke:#009af9; stroke-linecap:round; stroke-linejoin:round; stroke-width:4; stroke-opacity:1; fill:none" points="2294.08,1243.17 2294.08,89.8529 "/>
<line clip-path="url(#clip742)" x1="354.195" y1="1510.15" x2="322.195" y2="1510.15" style="stroke:#009af9; stroke-width:4; stroke-opacity:1"/>
<line clip-path="url(#clip742)" x1="354.195" y1="783.982" x2="322.195" y2="783.982" style="stroke:#009af9; stroke-width:4; stroke-opacity:1"/>
<line clip-path="url(#clip742)" x1="484.588" y1="1403.36" x2="452.588" y2="1403.36" style="stroke:#009af9; stroke-width:4; stroke-opacity:1"/>
<line clip-path="url(#clip742)" x1="484.588" y1="890.771" x2="452.588" y2="890.771" style="stroke:#009af9; stroke-width:4; stroke-opacity:1"/>
<line clip-path="url(#clip742)" x1="614.98" y1="1317.93" x2="582.98" y2="1317.93" style="stroke:#009af9; stroke-width:4; stroke-opacity:1"/>
<line clip-path="url(#clip742)" x1="614.98" y1="762.624" x2="582.98" y2="762.624" style="stroke:#009af9; stroke-width:4; stroke-opacity:1"/>
<line clip-path="url(#clip742)" x1="745.372" y1="1136.39" x2="713.372" y2="1136.39" style="stroke:#009af9; stroke-width:4; stroke-opacity:1"/>
<line clip-path="url(#clip742)" x1="745.372" y1="901.45" x2="713.372" y2="901.45" style="stroke:#009af9; stroke-width:4; stroke-opacity:1"/>
<line clip-path="url(#clip742)" x1="875.764" y1="1136.39" x2="843.764" y2="1136.39" style="stroke:#009af9; stroke-width:4; stroke-opacity:1"/>
<line clip-path="url(#clip742)" x1="875.764" y1="858.734" x2="843.764" y2="858.734" style="stroke:#009af9; stroke-width:4; stroke-opacity:1"/>
<line clip-path="url(#clip742)" x1="1006.16" y1="1115.03" x2="974.157" y2="1115.03" style="stroke:#009af9; stroke-width:4; stroke-opacity:1"/>
<line clip-path="url(#clip742)" x1="1006.16" y1="773.303" x2="974.157" y2="773.303" style="stroke:#009af9; stroke-width:4; stroke-opacity:1"/>
<line clip-path="url(#clip742)" x1="1136.55" y1="1264.53" x2="1104.55" y2="1264.53" style="stroke:#009af9; stroke-width:4; stroke-opacity:1"/>
<line clip-path="url(#clip742)" x1="1136.55" y1="623.798" x2="1104.55" y2="623.798" style="stroke:#009af9; stroke-width:4; stroke-opacity:1"/>
<line clip-path="url(#clip742)" x1="1266.94" y1="1014.65" x2="1234.94" y2="1014.65" style="stroke:#009af9; stroke-width:4; stroke-opacity:1"/>
<line clip-path="url(#clip742)" x1="1266.94" y1="854.462" x2="1234.94" y2="854.462" style="stroke:#009af9; stroke-width:4; stroke-opacity:1"/>
<line clip-path="url(#clip742)" x1="1397.33" y1="1082.99" x2="1365.33" y2="1082.99" style="stroke:#009af9; stroke-width:4; stroke-opacity:1"/>
<line clip-path="url(#clip742)" x1="1397.33" y1="762.624" x2="1365.33" y2="762.624" style="stroke:#009af9; stroke-width:4; stroke-opacity:1"/>
<line clip-path="url(#clip742)" x1="1527.73" y1="976.202" x2="1495.73" y2="976.202" style="stroke:#009af9; stroke-width:4; stroke-opacity:1"/>
<line clip-path="url(#clip742)" x1="1527.73" y1="762.624" x2="1495.73" y2="762.624" style="stroke:#009af9; stroke-width:4; stroke-opacity:1"/>
<line clip-path="url(#clip742)" x1="1658.12" y1="1029.6" x2="1626.12" y2="1029.6" style="stroke:#009af9; stroke-width:4; stroke-opacity:1"/>
<line clip-path="url(#clip742)" x1="1658.12" y1="709.229" x2="1626.12" y2="709.229" style="stroke:#009af9; stroke-width:4; stroke-opacity:1"/>
<line clip-path="url(#clip742)" x1="1788.51" y1="952.708" x2="1756.51" y2="952.708" style="stroke:#009af9; stroke-width:4; stroke-opacity:1"/>
<line clip-path="url(#clip742)" x1="1788.51" y1="756.216" x2="1756.51" y2="756.216" style="stroke:#009af9; stroke-width:4; stroke-opacity:1"/>
<line clip-path="url(#clip742)" x1="1918.9" y1="1211.14" x2="1886.9" y2="1211.14" style="stroke:#009af9; stroke-width:4; stroke-opacity:1"/>
<line clip-path="url(#clip742)" x1="1918.9" y1="484.972" x2="1886.9" y2="484.972" style="stroke:#009af9; stroke-width:4; stroke-opacity:1"/>
<line clip-path="url(#clip742)" x1="2049.29" y1="888.635" x2="2017.29" y2="888.635" style="stroke:#009af9; stroke-width:4; stroke-opacity:1"/>
<line clip-path="url(#clip742)" x1="2049.29" y1="702.822" x2="2017.29" y2="702.822" style="stroke:#009af9; stroke-width:4; stroke-opacity:1"/>
<line clip-path="url(#clip742)" x1="2179.69" y1="1253.85" x2="2147.69" y2="1253.85" style="stroke:#009af9; stroke-width:4; stroke-opacity:1"/>
<line clip-path="url(#clip742)" x1="2179.69" y1="314.11" x2="2147.69" y2="314.11" style="stroke:#009af9; stroke-width:4; stroke-opacity:1"/>
<line clip-path="url(#clip742)" x1="2310.08" y1="1243.17" x2="2278.08" y2="1243.17" style="stroke:#009af9; stroke-width:4; stroke-opacity:1"/>
<line clip-path="url(#clip742)" x1="2310.08" y1="89.8529" x2="2278.08" y2="89.8529" style="stroke:#009af9; stroke-width:4; stroke-opacity:1"/>
<circle clip-path="url(#clip742)" cx="338.195" cy="1147.06" r="14.4" fill="#009af9" fill-rule="evenodd" fill-opacity="1" stroke="none"/>
<circle clip-path="url(#clip742)" cx="468.588" cy="1147.06" r="14.4" fill="#009af9" fill-rule="evenodd" fill-opacity="1" stroke="none"/>
<circle clip-path="url(#clip742)" cx="598.98" cy="1040.28" r="14.4" fill="#009af9" fill-rule="evenodd" fill-opacity="1" stroke="none"/>
<circle clip-path="url(#clip742)" cx="729.372" cy="1018.92" r="14.4" fill="#009af9" fill-rule="evenodd" fill-opacity="1" stroke="none"/>
<circle clip-path="url(#clip742)" cx="859.764" cy="997.56" r="14.4" fill="#009af9" fill-rule="evenodd" fill-opacity="1" stroke="none"/>
<circle clip-path="url(#clip742)" cx="990.157" cy="944.165" r="14.4" fill="#009af9" fill-rule="evenodd" fill-opacity="1" stroke="none"/>
<circle clip-path="url(#clip742)" cx="1120.55" cy="944.165" r="14.4" fill="#009af9" fill-rule="evenodd" fill-opacity="1" stroke="none"/>
<circle clip-path="url(#clip742)" cx="1250.94" cy="934.554" r="14.4" fill="#009af9" fill-rule="evenodd" fill-opacity="1" stroke="none"/>
<circle clip-path="url(#clip742)" cx="1381.33" cy="922.807" r="14.4" fill="#009af9" fill-rule="evenodd" fill-opacity="1" stroke="none"/>
<circle clip-path="url(#clip742)" cx="1511.73" cy="869.413" r="14.4" fill="#009af9" fill-rule="evenodd" fill-opacity="1" stroke="none"/>
<circle clip-path="url(#clip742)" cx="1642.12" cy="869.413" r="14.4" fill="#009af9" fill-rule="evenodd" fill-opacity="1" stroke="none"/>
<circle clip-path="url(#clip742)" cx="1772.51" cy="854.462" r="14.4" fill="#009af9" fill-rule="evenodd" fill-opacity="1" stroke="none"/>
<circle clip-path="url(#clip742)" cx="1902.9" cy="848.055" r="14.4" fill="#009af9" fill-rule="evenodd" fill-opacity="1" stroke="none"/>
<circle clip-path="url(#clip742)" cx="2033.29" cy="795.728" r="14.4" fill="#009af9" fill-rule="evenodd" fill-opacity="1" stroke="none"/>
<circle clip-path="url(#clip742)" cx="2163.69" cy="783.982" r="14.4" fill="#009af9" fill-rule="evenodd" fill-opacity="1" stroke="none"/>
<circle clip-path="url(#clip742)" cx="2294.08" cy="666.514" r="14.4" fill="#009af9" fill-rule="evenodd" fill-opacity="1" stroke="none"/>
<path clip-path="url(#clip742)" d="M338.195 1064.25 L468.588 1064.25 L598.98 1064.25 L729.372 1064.25 L859.764 1064.25 L990.157 1064.25 L1120.55 1064.25 L1250.94 1064.25 L1381.33 1064.25 L1511.73 1064.25 L1642.12 1064.25 L1772.51 1064.25 L1902.9 1064.25 L2033.29 1064.25 L2163.69 1064.25 L2294.08 1064.25 L2294.08 917.187 L2163.69 917.187 L2033.29 917.187 L1902.9 917.187 L1772.51 917.187 L1642.12 917.187 L1511.73 917.187 L1381.33 917.187 L1250.94 917.187 L1120.55 917.187 L990.157 917.187 L859.764 917.187 L729.372 917.187 L598.98 917.187 L468.588 917.187 L338.195 917.187  Z" fill="#e26f46" fill-rule="evenodd" fill-opacity="0.6"/>
<polyline clip-path="url(#clip742)" style="stroke:#e26f46; stroke-linecap:round; stroke-linejoin:round; stroke-width:4; stroke-opacity:0; fill:none" points="338.195,1064.25 468.588,1064.25 598.98,1064.25 729.372,1064.25 859.764,1064.25 990.157,1064.25 1120.55,1064.25 1250.94,1064.25 1381.33,1064.25 1511.73,1064.25 1642.12,1064.25 1772.51,1064.25 1902.9,1064.25 2033.29,1064.25 2163.69,1064.25 2294.08,1064.25 "/>
<polyline clip-path="url(#clip742)" style="stroke:#000000; stroke-linecap:round; stroke-linejoin:round; stroke-width:4; stroke-opacity:1; fill:none" stroke-dasharray="2, 4" points="338.195,977.864 468.588,977.864 598.98,977.864 729.372,977.864 859.764,977.864 990.157,977.864 1120.55,977.864 1250.94,977.864 1381.33,977.864 1511.73,977.864 1642.12,977.864 1772.51,977.864 1902.9,977.864 2033.29,977.864 2163.69,977.864 2294.08,977.864 "/>
<path clip-path="url(#clip740)" d="M348.627 252.948 L1351.83 252.948 L1351.83 97.4278 L348.627 97.4278  Z" fill="#ffffff" fill-rule="evenodd" fill-opacity="1"/>
<polyline clip-path="url(#clip740)" style="stroke:#ffffff; stroke-linecap:round; stroke-linejoin:round; stroke-width:4; stroke-opacity:1; fill:none" points="348.627,252.948 1351.83,252.948 1351.83,97.4278 348.627,97.4278 348.627,252.948 "/>
<circle clip-path="url(#clip740)" cx="440.771" cy="149.268" r="20.48" fill="#009af9" fill-rule="evenodd" fill-opacity="1" stroke="none"/>
<path clip-path="url(#clip740)" d="M537.59 135.83 L537.59 162.705 L543.238 162.705 Q550.391 162.705 553.701 159.465 Q557.035 156.224 557.035 149.233 Q557.035 142.289 553.701 139.071 Q550.391 135.83 543.238 135.83 L537.59 135.83 M532.914 131.988 L542.521 131.988 Q552.567 131.988 557.266 136.178 Q561.965 140.344 561.965 149.233 Q561.965 158.168 557.243 162.358 Q552.521 166.548 542.521 166.548 L532.914 166.548 L532.914 131.988 Z" fill="#000000" fill-rule="nonzero" fill-opacity="1" /><path clip-path="url(#clip740)" d="M581.016 153.515 Q575.854 153.515 573.863 154.696 Q571.873 155.877 571.873 158.724 Q571.873 160.992 573.354 162.335 Q574.859 163.654 577.428 163.654 Q580.97 163.654 583.099 161.154 Q585.252 158.631 585.252 154.465 L585.252 153.515 L581.016 153.515 M589.511 151.756 L589.511 166.548 L585.252 166.548 L585.252 162.613 Q583.794 164.974 581.618 166.108 Q579.442 167.219 576.294 167.219 Q572.312 167.219 569.951 164.997 Q567.613 162.752 567.613 159.002 Q567.613 154.627 570.53 152.404 Q573.47 150.182 579.28 150.182 L585.252 150.182 L585.252 149.766 Q585.252 146.826 583.308 145.228 Q581.386 143.608 577.891 143.608 Q575.669 143.608 573.562 144.141 Q571.456 144.673 569.511 145.738 L569.511 141.803 Q571.849 140.9 574.048 140.46 Q576.247 139.997 578.331 139.997 Q583.956 139.997 586.734 142.914 Q589.511 145.83 589.511 151.756 Z" fill="#000000" fill-rule="nonzero" fill-opacity="1" /><path clip-path="url(#clip740)" d="M602.497 133.261 L602.497 140.622 L611.27 140.622 L611.27 143.932 L602.497 143.932 L602.497 158.006 Q602.497 161.177 603.354 162.08 Q604.233 162.983 606.895 162.983 L611.27 162.983 L611.27 166.548 L606.895 166.548 Q601.965 166.548 600.09 164.719 Q598.215 162.867 598.215 158.006 L598.215 143.932 L595.09 143.932 L595.09 140.622 L598.215 140.622 L598.215 133.261 L602.497 133.261 Z" fill="#000000" fill-rule="nonzero" fill-opacity="1" /><path clip-path="url(#clip740)" d="M628.655 153.515 Q623.493 153.515 621.502 154.696 Q619.511 155.877 619.511 158.724 Q619.511 160.992 620.993 162.335 Q622.497 163.654 625.067 163.654 Q628.608 163.654 630.738 161.154 Q632.891 158.631 632.891 154.465 L632.891 153.515 L628.655 153.515 M637.15 151.756 L637.15 166.548 L632.891 166.548 L632.891 162.613 Q631.432 164.974 629.256 166.108 Q627.081 167.219 623.932 167.219 Q619.951 167.219 617.59 164.997 Q615.252 162.752 615.252 159.002 Q615.252 154.627 618.169 152.404 Q621.108 150.182 626.919 150.182 L632.891 150.182 L632.891 149.766 Q632.891 146.826 630.946 145.228 Q629.025 143.608 625.53 143.608 Q623.307 143.608 621.201 144.141 Q619.094 144.673 617.15 145.738 L617.15 141.803 Q619.488 140.9 621.687 140.46 Q623.886 139.997 625.969 139.997 Q631.594 139.997 634.372 142.914 Q637.15 145.83 637.15 151.756 Z" fill="#000000" fill-rule="nonzero" fill-opacity="1" /><path clip-path="url(#clip740)" d="M671.224 130.576 Q668.122 135.9 666.617 141.108 Q665.113 146.316 665.113 151.664 Q665.113 157.011 666.617 162.265 Q668.145 167.497 671.224 172.798 L667.52 172.798 Q664.048 167.358 662.312 162.103 Q660.599 156.849 660.599 151.664 Q660.599 146.502 662.312 141.27 Q664.025 136.039 667.52 130.576 L671.224 130.576 Z" fill="#000000" fill-rule="nonzero" fill-opacity="1" /><path clip-path="url(#clip740)" d="M689.534 143.608 Q686.108 143.608 684.117 146.293 Q682.127 148.955 682.127 153.608 Q682.127 158.261 684.094 160.946 Q686.085 163.608 689.534 163.608 Q692.937 163.608 694.927 160.923 Q696.918 158.238 696.918 153.608 Q696.918 149.002 694.927 146.316 Q692.937 143.608 689.534 143.608 M689.534 139.997 Q695.089 139.997 698.261 143.608 Q701.432 147.219 701.432 153.608 Q701.432 159.974 698.261 163.608 Q695.089 167.219 689.534 167.219 Q683.955 167.219 680.784 163.608 Q677.636 159.974 677.636 153.608 Q677.636 147.219 680.784 143.608 Q683.955 139.997 689.534 139.997 Z" fill="#000000" fill-rule="nonzero" fill-opacity="1" /><path clip-path="url(#clip740)" d="M727.103 153.608 Q727.103 148.909 725.159 146.247 Q723.237 143.562 719.858 143.562 Q716.478 143.562 714.534 146.247 Q712.612 148.909 712.612 153.608 Q712.612 158.307 714.534 160.992 Q716.478 163.654 719.858 163.654 Q723.237 163.654 725.159 160.992 Q727.103 158.307 727.103 153.608 M712.612 144.557 Q713.955 142.242 715.992 141.131 Q718.052 139.997 720.899 139.997 Q725.622 139.997 728.561 143.747 Q731.524 147.497 731.524 153.608 Q731.524 159.719 728.561 163.469 Q725.622 167.219 720.899 167.219 Q718.052 167.219 715.992 166.108 Q713.955 164.974 712.612 162.659 L712.612 166.548 L708.33 166.548 L708.33 130.529 L712.612 130.529 L712.612 144.557 Z" fill="#000000" fill-rule="nonzero" fill-opacity="1" /><path clip-path="url(#clip740)" d="M755.112 141.386 L755.112 145.414 Q753.307 144.488 751.362 144.025 Q749.418 143.562 747.335 143.562 Q744.163 143.562 742.566 144.534 Q740.992 145.506 740.992 147.451 Q740.992 148.932 742.126 149.789 Q743.26 150.622 746.686 151.386 L748.145 151.71 Q752.682 152.682 754.58 154.465 Q756.501 156.224 756.501 159.395 Q756.501 163.006 753.631 165.113 Q750.784 167.219 745.784 167.219 Q743.7 167.219 741.432 166.802 Q739.186 166.409 736.686 165.599 L736.686 161.201 Q739.048 162.427 741.339 163.052 Q743.631 163.654 745.876 163.654 Q748.885 163.654 750.506 162.636 Q752.126 161.594 752.126 159.719 Q752.126 157.983 750.946 157.057 Q749.788 156.131 745.83 155.275 L744.348 154.928 Q740.39 154.094 738.631 152.381 Q736.872 150.645 736.872 147.636 Q736.872 143.978 739.464 141.988 Q742.057 139.997 746.825 139.997 Q749.186 139.997 751.27 140.344 Q753.353 140.691 755.112 141.386 Z" fill="#000000" fill-rule="nonzero" fill-opacity="1" /><path clip-path="url(#clip740)" d="M785.459 152.52 L785.459 154.603 L765.876 154.603 Q766.154 159.002 768.515 161.316 Q770.899 163.608 775.135 163.608 Q777.589 163.608 779.881 163.006 Q782.195 162.404 784.464 161.201 L784.464 165.228 Q782.172 166.201 779.765 166.71 Q777.358 167.219 774.881 167.219 Q768.677 167.219 765.043 163.608 Q761.432 159.997 761.432 153.84 Q761.432 147.474 764.858 143.747 Q768.307 139.997 774.14 139.997 Q779.371 139.997 782.404 143.377 Q785.459 146.733 785.459 152.52 M781.2 151.27 Q781.154 147.775 779.233 145.691 Q777.334 143.608 774.186 143.608 Q770.621 143.608 768.469 145.622 Q766.339 147.636 766.015 151.293 L781.2 151.27 Z" fill="#000000" fill-rule="nonzero" fill-opacity="1" /><path clip-path="url(#clip740)" d="M807.473 144.603 Q806.756 144.187 805.899 144.002 Q805.066 143.793 804.047 143.793 Q800.436 143.793 798.492 146.154 Q796.57 148.492 796.57 152.89 L796.57 166.548 L792.288 166.548 L792.288 140.622 L796.57 140.622 L796.57 144.65 Q797.913 142.289 800.066 141.154 Q802.218 139.997 805.297 139.997 Q805.737 139.997 806.269 140.066 Q806.802 140.113 807.45 140.229 L807.473 144.603 Z" fill="#000000" fill-rule="nonzero" fill-opacity="1" /><path clip-path="url(#clip740)" d="M808.885 140.622 L813.399 140.622 L821.501 162.381 L829.603 140.622 L834.116 140.622 L824.394 166.548 L818.607 166.548 L808.885 140.622 Z" fill="#000000" fill-rule="nonzero" fill-opacity="1" /><path clip-path="url(#clip740)" d="M862.172 152.52 L862.172 154.603 L842.589 154.603 Q842.866 159.002 845.228 161.316 Q847.612 163.608 851.848 163.608 Q854.302 163.608 856.593 163.006 Q858.908 162.404 861.177 161.201 L861.177 165.228 Q858.885 166.201 856.477 166.71 Q854.07 167.219 851.593 167.219 Q845.39 167.219 841.755 163.608 Q838.144 159.997 838.144 153.84 Q838.144 147.474 841.57 143.747 Q845.019 139.997 850.852 139.997 Q856.084 139.997 859.116 143.377 Q862.172 146.733 862.172 152.52 M857.913 151.27 Q857.866 147.775 855.945 145.691 Q854.047 143.608 850.899 143.608 Q847.334 143.608 845.181 145.622 Q843.052 147.636 842.728 151.293 L857.913 151.27 Z" fill="#000000" fill-rule="nonzero" fill-opacity="1" /><path clip-path="url(#clip740)" d="M886.223 144.557 L886.223 130.529 L890.482 130.529 L890.482 166.548 L886.223 166.548 L886.223 162.659 Q884.88 164.974 882.82 166.108 Q880.783 167.219 877.913 167.219 Q873.213 167.219 870.251 163.469 Q867.311 159.719 867.311 153.608 Q867.311 147.497 870.251 143.747 Q873.213 139.997 877.913 139.997 Q880.783 139.997 882.82 141.131 Q884.88 142.242 886.223 144.557 M871.709 153.608 Q871.709 158.307 873.63 160.992 Q875.575 163.654 878.954 163.654 Q882.334 163.654 884.278 160.992 Q886.223 158.307 886.223 153.608 Q886.223 148.909 884.278 146.247 Q882.334 143.562 878.954 143.562 Q875.575 143.562 873.63 146.247 Q871.709 148.909 871.709 153.608 Z" fill="#000000" fill-rule="nonzero" fill-opacity="1" /><path clip-path="url(#clip740)" d="M926.107 153.515 Q920.945 153.515 918.954 154.696 Q916.963 155.877 916.963 158.724 Q916.963 160.992 918.445 162.335 Q919.949 163.654 922.519 163.654 Q926.06 163.654 928.19 161.154 Q930.343 158.631 930.343 154.465 L930.343 153.515 L926.107 153.515 M934.602 151.756 L934.602 166.548 L930.343 166.548 L930.343 162.613 Q928.884 164.974 926.709 166.108 Q924.533 167.219 921.385 167.219 Q917.403 167.219 915.042 164.997 Q912.704 162.752 912.704 159.002 Q912.704 154.627 915.621 152.404 Q918.56 150.182 924.371 150.182 L930.343 150.182 L930.343 149.766 Q930.343 146.826 928.398 145.228 Q926.477 143.608 922.982 143.608 Q920.76 143.608 918.653 144.141 Q916.547 144.673 914.602 145.738 L914.602 141.803 Q916.94 140.9 919.139 140.46 Q921.338 139.997 923.422 139.997 Q929.047 139.997 931.824 142.914 Q934.602 145.83 934.602 151.756 Z" fill="#000000" fill-rule="nonzero" fill-opacity="1" /><path clip-path="url(#clip740)" d="M960.435 153.284 Q960.435 148.654 958.514 146.108 Q956.616 143.562 953.167 143.562 Q949.741 143.562 947.82 146.108 Q945.921 148.654 945.921 153.284 Q945.921 157.89 947.82 160.437 Q949.741 162.983 953.167 162.983 Q956.616 162.983 958.514 160.437 Q960.435 157.89 960.435 153.284 M964.694 163.33 Q964.694 169.951 961.755 173.168 Q958.815 176.409 952.75 176.409 Q950.505 176.409 948.514 176.062 Q946.523 175.738 944.648 175.043 L944.648 170.9 Q946.523 171.918 948.352 172.404 Q950.181 172.89 952.079 172.89 Q956.269 172.89 958.352 170.691 Q960.435 168.515 960.435 164.094 L960.435 161.988 Q959.116 164.279 957.056 165.414 Q954.995 166.548 952.125 166.548 Q947.357 166.548 944.44 162.914 Q941.523 159.279 941.523 153.284 Q941.523 147.266 944.44 143.631 Q947.357 139.997 952.125 139.997 Q954.995 139.997 957.056 141.131 Q959.116 142.266 960.435 144.557 L960.435 140.622 L964.694 140.622 L964.694 163.33 Z" fill="#000000" fill-rule="nonzero" fill-opacity="1" /><path clip-path="url(#clip740)" d="M995.643 152.52 L995.643 154.603 L976.06 154.603 Q976.338 159.002 978.699 161.316 Q981.083 163.608 985.319 163.608 Q987.773 163.608 990.065 163.006 Q992.38 162.404 994.648 161.201 L994.648 165.228 Q992.356 166.201 989.949 166.71 Q987.542 167.219 985.065 167.219 Q978.861 167.219 975.227 163.608 Q971.616 159.997 971.616 153.84 Q971.616 147.474 975.042 143.747 Q978.491 139.997 984.324 139.997 Q989.555 139.997 992.588 143.377 Q995.643 146.733 995.643 152.52 M991.384 151.27 Q991.338 147.775 989.417 145.691 Q987.518 143.608 984.37 143.608 Q980.805 143.608 978.653 145.622 Q976.523 147.636 976.199 151.293 L991.384 151.27 Z" fill="#000000" fill-rule="nonzero" fill-opacity="1" /><path clip-path="url(#clip740)" d="M1019.16 141.386 L1019.16 145.414 Q1017.36 144.488 1015.41 144.025 Q1013.47 143.562 1011.38 143.562 Q1008.21 143.562 1006.62 144.534 Q1005.04 145.506 1005.04 147.451 Q1005.04 148.932 1006.18 149.789 Q1007.31 150.622 1010.74 151.386 L1012.19 151.71 Q1016.73 152.682 1018.63 154.465 Q1020.55 156.224 1020.55 159.395 Q1020.55 163.006 1017.68 165.113 Q1014.83 167.219 1009.83 167.219 Q1007.75 167.219 1005.48 166.802 Q1003.24 166.409 1000.74 165.599 L1000.74 161.201 Q1003.1 162.427 1005.39 163.052 Q1007.68 163.654 1009.93 163.654 Q1012.93 163.654 1014.56 162.636 Q1016.18 161.594 1016.18 159.719 Q1016.18 157.983 1015 157.057 Q1013.84 156.131 1009.88 155.275 L1008.4 154.928 Q1004.44 154.094 1002.68 152.381 Q1000.92 150.645 1000.92 147.636 Q1000.92 143.978 1003.51 141.988 Q1006.11 139.997 1010.87 139.997 Q1013.24 139.997 1015.32 140.344 Q1017.4 140.691 1019.16 141.386 Z" fill="#000000" fill-rule="nonzero" fill-opacity="1" /><path clip-path="url(#clip740)" d="M1026.66 130.576 L1030.37 130.576 Q1033.84 136.039 1035.55 141.27 Q1037.29 146.502 1037.29 151.664 Q1037.29 156.849 1035.55 162.103 Q1033.84 167.358 1030.37 172.798 L1026.66 172.798 Q1029.74 167.497 1031.25 162.265 Q1032.77 157.011 1032.77 151.664 Q1032.77 146.316 1031.25 141.108 Q1029.74 135.9 1026.66 130.576 Z" fill="#000000" fill-rule="nonzero" fill-opacity="1" /><path clip-path="url(#clip740)" d="M371.663 221.844 L509.878 221.844 L509.878 180.372 L371.663 180.372 L371.663 221.844  Z" fill="#e26f46" fill-rule="evenodd" fill-opacity="0.6"/>
<polyline clip-path="url(#clip740)" style="stroke:#e26f46; stroke-linecap:round; stroke-linejoin:round; stroke-width:4; stroke-opacity:0; fill:none" points="371.663,180.372 509.878,180.372 "/>
<path clip-path="url(#clip740)" d="M532.914 183.828 L539.882 183.828 L548.701 207.346 L557.567 183.828 L564.535 183.828 L564.535 218.388 L559.974 218.388 L559.974 188.041 L551.062 211.744 L546.363 211.744 L537.451 188.041 L537.451 218.388 L532.914 218.388 L532.914 183.828 Z" fill="#000000" fill-rule="nonzero" fill-opacity="1" /><path clip-path="url(#clip740)" d="M583.678 195.448 Q580.252 195.448 578.261 198.133 Q576.271 200.795 576.271 205.448 Q576.271 210.101 578.238 212.786 Q580.229 215.448 583.678 215.448 Q587.081 215.448 589.071 212.763 Q591.062 210.078 591.062 205.448 Q591.062 200.842 589.071 198.156 Q587.081 195.448 583.678 195.448 M583.678 191.837 Q589.234 191.837 592.405 195.448 Q595.576 199.059 595.576 205.448 Q595.576 211.814 592.405 215.448 Q589.234 219.059 583.678 219.059 Q578.099 219.059 574.928 215.448 Q571.78 211.814 571.78 205.448 Q571.78 199.059 574.928 195.448 Q578.099 191.837 583.678 191.837 Z" fill="#000000" fill-rule="nonzero" fill-opacity="1" /><path clip-path="url(#clip740)" d="M619.696 196.397 L619.696 182.369 L623.956 182.369 L623.956 218.388 L619.696 218.388 L619.696 214.499 Q618.354 216.814 616.294 217.948 Q614.257 219.059 611.386 219.059 Q606.687 219.059 603.724 215.309 Q600.784 211.559 600.784 205.448 Q600.784 199.337 603.724 195.587 Q606.687 191.837 611.386 191.837 Q614.257 191.837 616.294 192.971 Q618.354 194.082 619.696 196.397 M605.183 205.448 Q605.183 210.147 607.104 212.832 Q609.048 215.494 612.428 215.494 Q615.807 215.494 617.752 212.832 Q619.696 210.147 619.696 205.448 Q619.696 200.749 617.752 198.087 Q615.807 195.402 612.428 195.402 Q609.048 195.402 607.104 198.087 Q605.183 200.749 605.183 205.448 Z" fill="#000000" fill-rule="nonzero" fill-opacity="1" /><path clip-path="url(#clip740)" d="M654.904 204.36 L654.904 206.443 L635.321 206.443 Q635.599 210.842 637.96 213.156 Q640.344 215.448 644.58 215.448 Q647.034 215.448 649.326 214.846 Q651.641 214.244 653.909 213.041 L653.909 217.068 Q651.617 218.041 649.21 218.55 Q646.803 219.059 644.326 219.059 Q638.122 219.059 634.488 215.448 Q630.877 211.837 630.877 205.68 Q630.877 199.314 634.303 195.587 Q637.752 191.837 643.585 191.837 Q648.817 191.837 651.849 195.217 Q654.904 198.573 654.904 204.36 M650.645 203.11 Q650.599 199.615 648.678 197.531 Q646.78 195.448 643.631 195.448 Q640.067 195.448 637.914 197.462 Q635.784 199.476 635.46 203.133 L650.645 203.11 Z" fill="#000000" fill-rule="nonzero" fill-opacity="1" /><path clip-path="url(#clip740)" d="M661.895 182.369 L666.154 182.369 L666.154 218.388 L661.895 218.388 L661.895 182.369 Z" fill="#000000" fill-rule="nonzero" fill-opacity="1" /><path clip-path="url(#clip740)" d="M700.367 182.416 Q697.265 187.74 695.761 192.948 Q694.256 198.156 694.256 203.504 Q694.256 208.851 695.761 214.105 Q697.288 219.337 700.367 224.638 L696.664 224.638 Q693.191 219.198 691.455 213.943 Q689.742 208.689 689.742 203.504 Q689.742 198.342 691.455 193.11 Q693.168 187.879 696.664 182.416 L700.367 182.416 Z" fill="#000000" fill-rule="nonzero" fill-opacity="1" /><path clip-path="url(#clip740)" d="M719.812 199.244 Q716.663 199.244 714.812 201.397 Q712.983 203.55 712.983 207.3 Q712.983 211.027 714.812 213.203 Q716.663 215.355 719.812 215.355 Q722.96 215.355 724.788 213.203 Q726.64 211.027 726.64 207.3 Q726.64 203.55 724.788 201.397 Q722.96 199.244 719.812 199.244 M729.094 184.592 L729.094 188.851 Q727.335 188.018 725.529 187.578 Q723.747 187.138 721.987 187.138 Q717.358 187.138 714.904 190.263 Q712.474 193.388 712.126 199.707 Q713.492 197.693 715.552 196.629 Q717.612 195.541 720.089 195.541 Q725.298 195.541 728.307 198.712 Q731.339 201.86 731.339 207.3 Q731.339 212.624 728.191 215.842 Q725.043 219.059 719.812 219.059 Q713.816 219.059 710.645 214.476 Q707.474 209.869 707.474 201.143 Q707.474 192.948 711.362 188.087 Q715.251 183.203 721.802 183.203 Q723.562 183.203 725.344 183.55 Q727.149 183.897 729.094 184.592 Z" fill="#000000" fill-rule="nonzero" fill-opacity="1" /><path clip-path="url(#clip740)" d="M739.441 183.828 L757.797 183.828 L757.797 187.763 L743.723 187.763 L743.723 196.235 Q744.742 195.888 745.76 195.726 Q746.779 195.541 747.797 195.541 Q753.584 195.541 756.964 198.712 Q760.344 201.883 760.344 207.3 Q760.344 212.879 756.872 215.98 Q753.399 219.059 747.08 219.059 Q744.904 219.059 742.635 218.689 Q740.39 218.318 737.983 217.578 L737.983 212.879 Q740.066 214.013 742.288 214.568 Q744.51 215.124 746.987 215.124 Q750.992 215.124 753.33 213.017 Q755.668 210.911 755.668 207.3 Q755.668 203.689 753.33 201.582 Q750.992 199.476 746.987 199.476 Q745.112 199.476 743.237 199.893 Q741.385 200.309 739.441 201.189 L739.441 183.828 Z" fill="#000000" fill-rule="nonzero" fill-opacity="1" /><path clip-path="url(#clip740)" d="M769.557 212.508 L774.441 212.508 L774.441 218.388 L769.557 218.388 L769.557 212.508 Z" fill="#000000" fill-rule="nonzero" fill-opacity="1" /><path clip-path="url(#clip740)" d="M784.672 183.828 L803.029 183.828 L803.029 187.763 L788.955 187.763 L788.955 196.235 Q789.973 195.888 790.992 195.726 Q792.01 195.541 793.029 195.541 Q798.816 195.541 802.195 198.712 Q805.575 201.883 805.575 207.3 Q805.575 212.879 802.103 215.98 Q798.631 219.059 792.311 219.059 Q790.135 219.059 787.867 218.689 Q785.621 218.318 783.214 217.578 L783.214 212.879 Q785.297 214.013 787.519 214.568 Q789.742 215.124 792.219 215.124 Q796.223 215.124 798.561 213.017 Q800.899 210.911 800.899 207.3 Q800.899 203.689 798.561 201.582 Q796.223 199.476 792.219 199.476 Q790.344 199.476 788.469 199.893 Q786.617 200.309 784.672 201.189 L784.672 183.828 Z" fill="#000000" fill-rule="nonzero" fill-opacity="1" /><path clip-path="url(#clip740)" d="M825.367 199.244 Q822.218 199.244 820.367 201.397 Q818.538 203.55 818.538 207.3 Q818.538 211.027 820.367 213.203 Q822.218 215.355 825.367 215.355 Q828.515 215.355 830.343 213.203 Q832.195 211.027 832.195 207.3 Q832.195 203.55 830.343 201.397 Q828.515 199.244 825.367 199.244 M834.649 184.592 L834.649 188.851 Q832.89 188.018 831.084 187.578 Q829.302 187.138 827.542 187.138 Q822.913 187.138 820.459 190.263 Q818.029 193.388 817.681 199.707 Q819.047 197.693 821.107 196.629 Q823.167 195.541 825.644 195.541 Q830.853 195.541 833.862 198.712 Q836.894 201.86 836.894 207.3 Q836.894 212.624 833.746 215.842 Q830.598 219.059 825.367 219.059 Q819.371 219.059 816.2 214.476 Q813.029 209.869 813.029 201.143 Q813.029 192.948 816.917 188.087 Q820.806 183.203 827.357 183.203 Q829.116 183.203 830.899 183.55 Q832.704 183.897 834.649 184.592 Z" fill="#000000" fill-rule="nonzero" fill-opacity="1" /><path clip-path="url(#clip740)" d="M854.95 201.976 Q851.616 201.976 849.695 203.758 Q847.797 205.541 847.797 208.666 Q847.797 211.791 849.695 213.573 Q851.616 215.355 854.95 215.355 Q858.283 215.355 860.204 213.573 Q862.126 211.767 862.126 208.666 Q862.126 205.541 860.204 203.758 Q858.306 201.976 854.95 201.976 M850.274 199.985 Q847.265 199.244 845.575 197.184 Q843.908 195.124 843.908 192.161 Q843.908 188.018 846.848 185.61 Q849.811 183.203 854.95 183.203 Q860.112 183.203 863.051 185.61 Q865.991 188.018 865.991 192.161 Q865.991 195.124 864.301 197.184 Q862.635 199.244 859.649 199.985 Q863.028 200.772 864.903 203.064 Q866.801 205.355 866.801 208.666 Q866.801 213.689 863.723 216.374 Q860.667 219.059 854.95 219.059 Q849.232 219.059 846.153 216.374 Q843.098 213.689 843.098 208.666 Q843.098 205.355 844.996 203.064 Q846.894 200.772 850.274 199.985 M848.561 192.601 Q848.561 195.286 850.227 196.791 Q851.917 198.295 854.95 198.295 Q857.959 198.295 859.649 196.791 Q861.362 195.286 861.362 192.601 Q861.362 189.916 859.649 188.411 Q857.959 186.907 854.95 186.907 Q851.917 186.907 850.227 188.411 Q848.561 189.916 848.561 192.601 Z" fill="#000000" fill-rule="nonzero" fill-opacity="1" /><path clip-path="url(#clip740)" d="M906.917 188.666 L906.917 201.559 L919.81 201.559 L919.81 205.494 L906.917 205.494 L906.917 218.388 L903.028 218.388 L903.028 205.494 L890.135 205.494 L890.135 201.559 L903.028 201.559 L903.028 188.666 L906.917 188.666 Z" fill="#000000" fill-rule="nonzero" fill-opacity="1" /><path clip-path="url(#clip740)" d="M939.903 186.907 Q936.292 186.907 934.463 190.471 Q932.658 194.013 932.658 201.143 Q932.658 208.249 934.463 211.814 Q936.292 215.355 939.903 215.355 Q943.537 215.355 945.343 211.814 Q947.171 208.249 947.171 201.143 Q947.171 194.013 945.343 190.471 Q943.537 186.907 939.903 186.907 M939.903 183.203 Q945.713 183.203 948.769 187.809 Q951.847 192.393 951.847 201.143 Q951.847 209.869 948.769 214.476 Q945.713 219.059 939.903 219.059 Q934.093 219.059 931.014 214.476 Q927.959 209.869 927.959 201.143 Q927.959 192.393 931.014 187.809 Q934.093 183.203 939.903 183.203 Z" fill="#000000" fill-rule="nonzero" fill-opacity="1" /><path clip-path="url(#clip740)" d="M960.065 212.508 L964.949 212.508 L964.949 218.388 L960.065 218.388 L960.065 212.508 Z" fill="#000000" fill-rule="nonzero" fill-opacity="1" /><path clip-path="url(#clip740)" d="M985.134 186.907 Q981.523 186.907 979.694 190.471 Q977.889 194.013 977.889 201.143 Q977.889 208.249 979.694 211.814 Q981.523 215.355 985.134 215.355 Q988.768 215.355 990.574 211.814 Q992.403 208.249 992.403 201.143 Q992.403 194.013 990.574 190.471 Q988.768 186.907 985.134 186.907 M985.134 183.203 Q990.944 183.203 994 187.809 Q997.079 192.393 997.079 201.143 Q997.079 209.869 994 214.476 Q990.944 219.059 985.134 219.059 Q979.324 219.059 976.245 214.476 Q973.19 209.869 973.19 201.143 Q973.19 192.393 976.245 187.809 Q979.324 183.203 985.134 183.203 Z" fill="#000000" fill-rule="nonzero" fill-opacity="1" /><path clip-path="url(#clip740)" d="M1005.34 183.828 L1023.7 183.828 L1023.7 187.763 L1009.62 187.763 L1009.62 196.235 Q1010.64 195.888 1011.66 195.726 Q1012.68 195.541 1013.7 195.541 Q1019.49 195.541 1022.87 198.712 Q1026.25 201.883 1026.25 207.3 Q1026.25 212.879 1022.77 215.98 Q1019.3 219.059 1012.98 219.059 Q1010.81 219.059 1008.54 218.689 Q1006.29 218.318 1003.88 217.578 L1003.88 212.879 Q1005.97 214.013 1008.19 214.568 Q1010.41 215.124 1012.89 215.124 Q1016.89 215.124 1019.23 213.017 Q1021.57 210.911 1021.57 207.3 Q1021.57 203.689 1019.23 201.582 Q1016.89 199.476 1012.89 199.476 Q1011.01 199.476 1009.14 199.893 Q1007.29 200.309 1005.34 201.189 L1005.34 183.828 Z" fill="#000000" fill-rule="nonzero" fill-opacity="1" /><path clip-path="url(#clip740)" d="M1034.28 183.828 L1056.5 183.828 L1056.5 185.819 L1043.95 218.388 L1039.07 218.388 L1050.87 187.763 L1034.28 187.763 L1034.28 183.828 Z" fill="#000000" fill-rule="nonzero" fill-opacity="1" /><path clip-path="url(#clip740)" d="M1072.59 183.828 L1076.52 183.828 L1064.49 222.786 L1060.55 222.786 L1072.59 183.828 Z" fill="#000000" fill-rule="nonzero" fill-opacity="1" /><path clip-path="url(#clip740)" d="M1078.84 203.504 L1091.31 203.504 L1091.31 207.3 L1078.84 207.3 L1078.84 203.504 Z" fill="#000000" fill-rule="nonzero" fill-opacity="1" /><path clip-path="url(#clip740)" d="M1108.7 186.907 Q1105.09 186.907 1103.26 190.471 Q1101.45 194.013 1101.45 201.143 Q1101.45 208.249 1103.26 211.814 Q1105.09 215.355 1108.7 215.355 Q1112.33 215.355 1114.14 211.814 Q1115.97 208.249 1115.97 201.143 Q1115.97 194.013 1114.14 190.471 Q1112.33 186.907 1108.7 186.907 M1108.7 183.203 Q1114.51 183.203 1117.56 187.809 Q1120.64 192.393 1120.64 201.143 Q1120.64 209.869 1117.56 214.476 Q1114.51 219.059 1108.7 219.059 Q1102.89 219.059 1099.81 214.476 Q1096.75 209.869 1096.75 201.143 Q1096.75 192.393 1099.81 187.809 Q1102.89 183.203 1108.7 183.203 Z" fill="#000000" fill-rule="nonzero" fill-opacity="1" /><path clip-path="url(#clip740)" d="M1128.86 212.508 L1133.74 212.508 L1133.74 218.388 L1128.86 218.388 L1128.86 212.508 Z" fill="#000000" fill-rule="nonzero" fill-opacity="1" /><path clip-path="url(#clip740)" d="M1153.93 186.907 Q1150.32 186.907 1148.49 190.471 Q1146.68 194.013 1146.68 201.143 Q1146.68 208.249 1148.49 211.814 Q1150.32 215.355 1153.93 215.355 Q1157.56 215.355 1159.37 211.814 Q1161.2 208.249 1161.2 201.143 Q1161.2 194.013 1159.37 190.471 Q1157.56 186.907 1153.93 186.907 M1153.93 183.203 Q1159.74 183.203 1162.8 187.809 Q1165.87 192.393 1165.87 201.143 Q1165.87 209.869 1162.8 214.476 Q1159.74 219.059 1153.93 219.059 Q1148.12 219.059 1145.04 214.476 Q1141.99 209.869 1141.99 201.143 Q1141.99 192.393 1145.04 187.809 Q1148.12 183.203 1153.93 183.203 Z" fill="#000000" fill-rule="nonzero" fill-opacity="1" /><path clip-path="url(#clip740)" d="M1184.09 201.976 Q1180.76 201.976 1178.84 203.758 Q1176.94 205.541 1176.94 208.666 Q1176.94 211.791 1178.84 213.573 Q1180.76 215.355 1184.09 215.355 Q1187.42 215.355 1189.35 213.573 Q1191.27 211.767 1191.27 208.666 Q1191.27 205.541 1189.35 203.758 Q1187.45 201.976 1184.09 201.976 M1179.42 199.985 Q1176.41 199.244 1174.72 197.184 Q1173.05 195.124 1173.05 192.161 Q1173.05 188.018 1175.99 185.61 Q1178.95 183.203 1184.09 183.203 Q1189.25 183.203 1192.19 185.61 Q1195.13 188.018 1195.13 192.161 Q1195.13 195.124 1193.44 197.184 Q1191.78 199.244 1188.79 199.985 Q1192.17 200.772 1194.05 203.064 Q1195.94 205.355 1195.94 208.666 Q1195.94 213.689 1192.86 216.374 Q1189.81 219.059 1184.09 219.059 Q1178.37 219.059 1175.3 216.374 Q1172.24 213.689 1172.24 208.666 Q1172.24 205.355 1174.14 203.064 Q1176.04 200.772 1179.42 199.985 M1177.7 192.601 Q1177.7 195.286 1179.37 196.791 Q1181.06 198.295 1184.09 198.295 Q1187.1 198.295 1188.79 196.791 Q1190.5 195.286 1190.5 192.601 Q1190.5 189.916 1188.79 188.411 Q1187.1 186.907 1184.09 186.907 Q1181.06 186.907 1179.37 188.411 Q1177.7 189.916 1177.7 192.601 Z" fill="#000000" fill-rule="nonzero" fill-opacity="1" /><path clip-path="url(#clip740)" d="M1205.06 214.453 L1212.7 214.453 L1212.7 188.087 L1204.39 189.754 L1204.39 185.494 L1212.66 183.828 L1217.33 183.828 L1217.33 214.453 L1224.97 214.453 L1224.97 218.388 L1205.06 218.388 L1205.06 214.453 Z" fill="#000000" fill-rule="nonzero" fill-opacity="1" /><path clip-path="url(#clip740)" d="M1249.07 183.828 L1256.04 183.828 L1264.85 207.346 L1273.72 183.828 L1280.69 183.828 L1280.69 218.388 L1276.13 218.388 L1276.13 188.041 L1267.22 211.744 L1262.52 211.744 L1253.6 188.041 L1253.6 218.388 L1249.07 218.388 L1249.07 183.828 Z" fill="#000000" fill-rule="nonzero" fill-opacity="1" /><path clip-path="url(#clip740)" d="M1301.57 205.355 Q1296.41 205.355 1294.41 206.536 Q1292.42 207.717 1292.42 210.564 Q1292.42 212.832 1293.91 214.175 Q1295.41 215.494 1297.98 215.494 Q1301.52 215.494 1303.65 212.994 Q1305.8 210.471 1305.8 206.305 L1305.8 205.355 L1301.57 205.355 M1310.06 203.596 L1310.06 218.388 L1305.8 218.388 L1305.8 214.453 Q1304.35 216.814 1302.17 217.948 Q1299.99 219.059 1296.85 219.059 Q1292.86 219.059 1290.5 216.837 Q1288.16 214.592 1288.16 210.842 Q1288.16 206.467 1291.08 204.244 Q1294.02 202.022 1299.83 202.022 L1305.8 202.022 L1305.8 201.606 Q1305.8 198.666 1303.86 197.068 Q1301.94 195.448 1298.44 195.448 Q1296.22 195.448 1294.11 195.981 Q1292.01 196.513 1290.06 197.578 L1290.06 193.643 Q1292.4 192.74 1294.6 192.3 Q1296.8 191.837 1298.88 191.837 Q1304.51 191.837 1307.29 194.754 Q1310.06 197.67 1310.06 203.596 Z" fill="#000000" fill-rule="nonzero" fill-opacity="1" /><path clip-path="url(#clip740)" d="M1318.16 182.416 L1321.87 182.416 Q1325.34 187.879 1327.05 193.11 Q1328.79 198.342 1328.79 203.504 Q1328.79 208.689 1327.05 213.943 Q1325.34 219.198 1321.87 224.638 L1318.16 224.638 Q1321.24 219.337 1322.75 214.105 Q1324.28 208.851 1324.28 203.504 Q1324.28 198.156 1322.75 192.948 Q1321.24 187.74 1318.16 182.416 Z" fill="#000000" fill-rule="nonzero" fill-opacity="1" /></svg>
