<?xml version="1.0" encoding="utf-8"?>
<svg xmlns="http://www.w3.org/2000/svg" xmlns:xlink="http://www.w3.org/1999/xlink" width="600" height="400" viewBox="0 0 2400 1600">
<defs>
  <clipPath id="clip840">
    <rect x="0" y="0" width="2400" height="1600"/>
  </clipPath>
</defs>
<path clip-path="url(#clip840)" d="M0 1600 L2400 1600 L2400 8.88178e-14 L0 8.88178e-14  Z" fill="#ffffff" fill-rule="evenodd" fill-opacity="1"/>
<defs>
  <clipPath id="clip841">
    <rect x="480" y="0" width="1681" height="1600"/>
  </clipPath>
</defs>
<path clip-path="url(#clip840)" d="M249.843 1552.76 L2352.76 1552.76 L2352.76 47.2441 L249.843 47.2441  Z" fill="#ffffff" fill-rule="evenodd" fill-opacity="1"/>
<defs>
  <clipPath id="clip842">
    <rect x="249" y="47" width="2104" height="1507"/>
  </clipPath>
</defs>
<polyline clip-path="url(#clip842)" style="stroke:#000000; stroke-linecap:round; stroke-linejoin:round; stroke-width:2; stroke-opacity:0.1; fill:none" points="249.843,1318.22 2352.76,1318.22 "/>
<polyline clip-path="url(#clip842)" style="stroke:#000000; stroke-linecap:round; stroke-linejoin:round; stroke-width:2; stroke-opacity:0.1; fill:none" points="249.843,934.352 2352.76,934.352 "/>
<polyline clip-path="url(#clip842)" style="stroke:#000000; stroke-linecap:round; stroke-linejoin:round; stroke-width:2; stroke-opacity:0.1; fill:none" points="249.843,550.489 2352.76,550.489 "/>
<polyline clip-path="url(#clip842)" style="stroke:#000000; stroke-linecap:round; stroke-linejoin:round; stroke-width:2; stroke-opacity:0.1; fill:none" points="249.843,166.626 2352.76,166.626 "/>
<polyline clip-path="url(#clip842)" style="stroke:#000000; stroke-linecap:round; stroke-linejoin:round; stroke-width:2; stroke-opacity:0.1; fill:none" points="249.843,1318.22 2352.76,1318.22 "/>
<polyline clip-path="url(#clip842)" style="stroke:#000000; stroke-linecap:round; stroke-linejoin:round; stroke-width:2; stroke-opacity:0.1; fill:none" points="249.843,934.352 2352.76,934.352 "/>
<polyline clip-path="url(#clip842)" style="stroke:#000000; stroke-linecap:round; stroke-linejoin:round; stroke-width:2; stroke-opacity:0.1; fill:none" points="249.843,550.489 2352.76,550.489 "/>
<polyline clip-path="url(#clip842)" style="stroke:#000000; stroke-linecap:round; stroke-linejoin:round; stroke-width:2; stroke-opacity:0.1; fill:none" points="249.843,166.626 2352.76,166.626 "/>
<polyline clip-path="url(#clip840)" style="stroke:#000000; stroke-linecap:round; stroke-linejoin:round; stroke-width:4; stroke-opacity:1; fill:none" points="249.843,1552.76 2352.76,1552.76 "/>
<polyline clip-path="url(#clip840)" style="stroke:#000000; stroke-linecap:round; stroke-linejoin:round; stroke-width:4; stroke-opacity:1; fill:none" points="249.843,47.2441 2352.76,47.2441 "/>
<polyline clip-path="url(#clip840)" style="stroke:#000000; stroke-linecap:round; stroke-linejoin:round; stroke-width:4; stroke-opacity:1; fill:none" points="249.843,1552.76 249.843,47.2441 "/>
<polyline clip-path="url(#clip840)" style="stroke:#000000; stroke-linecap:round; stroke-linejoin:round; stroke-width:4; stroke-opacity:1; fill:none" points="2352.76,1552.76 2352.76,47.2441 "/>
<polyline clip-path="url(#clip840)" style="stroke:#000000; stroke-linecap:round; stroke-linejoin:round; stroke-width:4; stroke-opacity:1; fill:none" points="249.843,1318.22 268.741,1318.22 "/>
<polyline clip-path="url(#clip840)" style="stroke:#000000; stroke-linecap:round; stroke-linejoin:round; stroke-width:4; stroke-opacity:1; fill:none" points="249.843,934.352 268.741,934.352 "/>
<polyline clip-path="url(#clip840)" style="stroke:#000000; stroke-linecap:round; stroke-linejoin:round; stroke-width:4; stroke-opacity:1; fill:none" points="249.843,550.489 268.741,550.489 "/>
<polyline clip-path="url(#clip840)" style="stroke:#000000; stroke-linecap:round; stroke-linejoin:round; stroke-width:4; stroke-opacity:1; fill:none" points="249.843,166.626 268.741,166.626 "/>
<polyline clip-path="url(#clip840)" style="stroke:#000000; stroke-linecap:round; stroke-linejoin:round; stroke-width:4; stroke-opacity:1; fill:none" points="2352.76,1318.22 2333.86,1318.22 "/>
<polyline clip-path="url(#clip840)" style="stroke:#000000; stroke-linecap:round; stroke-linejoin:round; stroke-width:4; stroke-opacity:1; fill:none" points="2352.76,934.352 2333.86,934.352 "/>
<polyline clip-path="url(#clip840)" style="stroke:#000000; stroke-linecap:round; stroke-linejoin:round; stroke-width:4; stroke-opacity:1; fill:none" points="2352.76,550.489 2333.86,550.489 "/>
<polyline clip-path="url(#clip840)" style="stroke:#000000; stroke-linecap:round; stroke-linejoin:round; stroke-width:4; stroke-opacity:1; fill:none" points="2352.76,166.626 2333.86,166.626 "/>
<path clip-path="url(#clip840)" d="M126.598 1316.35 Q123.45 1316.35 121.598 1318.5 Q119.769 1320.66 119.769 1324.41 Q119.769 1328.13 121.598 1330.31 Q123.45 1332.46 126.598 1332.46 Q129.746 1332.46 131.575 1330.31 Q133.427 1328.13 133.427 1324.41 Q133.427 1320.66 131.575 1318.5 Q129.746 1316.35 126.598 1316.35 M135.88 1301.7 L135.88 1305.96 Q134.121 1305.13 132.316 1304.69 Q130.533 1304.25 128.774 1304.25 Q124.144 1304.25 121.691 1307.37 Q119.26 1310.5 118.913 1316.81 Q120.279 1314.8 122.339 1313.74 Q124.399 1312.65 126.876 1312.65 Q132.084 1312.65 135.093 1315.82 Q138.126 1318.97 138.126 1324.41 Q138.126 1329.73 134.978 1332.95 Q131.83 1336.17 126.598 1336.17 Q120.603 1336.17 117.431 1331.58 Q114.26 1326.98 114.26 1318.25 Q114.26 1310.06 118.149 1305.19 Q122.038 1300.31 128.589 1300.31 Q130.348 1300.31 132.13 1300.66 Q133.936 1301 135.88 1301.7 Z" fill="#000000" fill-rule="nonzero" fill-opacity="1" /><path clip-path="url(#clip840)" d="M146.228 1300.94 L164.584 1300.94 L164.584 1304.87 L150.51 1304.87 L150.51 1313.34 Q151.528 1313 152.547 1312.83 Q153.566 1312.65 154.584 1312.65 Q160.371 1312.65 163.751 1315.82 Q167.13 1318.99 167.13 1324.41 Q167.13 1329.99 163.658 1333.09 Q160.186 1336.17 153.866 1336.17 Q151.691 1336.17 149.422 1335.8 Q147.177 1335.43 144.769 1334.69 L144.769 1329.99 Q146.853 1331.12 149.075 1331.68 Q151.297 1332.23 153.774 1332.23 Q157.778 1332.23 160.116 1330.13 Q162.454 1328.02 162.454 1324.41 Q162.454 1320.8 160.116 1318.69 Q157.778 1316.58 153.774 1316.58 Q151.899 1316.58 150.024 1317 Q148.172 1317.42 146.228 1318.3 L146.228 1300.94 Z" fill="#000000" fill-rule="nonzero" fill-opacity="1" /><path clip-path="url(#clip840)" d="M176.343 1329.62 L181.227 1329.62 L181.227 1335.5 L176.343 1335.5 L176.343 1329.62 Z" fill="#000000" fill-rule="nonzero" fill-opacity="1" /><path clip-path="url(#clip840)" d="M204.26 1305.01 L192.454 1323.46 L204.26 1323.46 L204.26 1305.01 M203.033 1300.94 L208.912 1300.94 L208.912 1323.46 L213.843 1323.46 L213.843 1327.35 L208.912 1327.35 L208.912 1335.5 L204.26 1335.5 L204.26 1327.35 L188.658 1327.35 L188.658 1322.83 L203.033 1300.94 Z" fill="#000000" fill-rule="nonzero" fill-opacity="1" /><path clip-path="url(#clip840)" d="M126.922 932.489 Q123.774 932.489 121.922 934.642 Q120.093 936.794 120.093 940.544 Q120.093 944.271 121.922 946.447 Q123.774 948.6 126.922 948.6 Q130.07 948.6 131.899 946.447 Q133.751 944.271 133.751 940.544 Q133.751 936.794 131.899 934.642 Q130.07 932.489 126.922 932.489 M136.204 917.836 L136.204 922.095 Q134.445 921.262 132.64 920.822 Q130.857 920.382 129.098 920.382 Q124.468 920.382 122.015 923.507 Q119.584 926.632 119.237 932.952 Q120.603 930.938 122.663 929.873 Q124.723 928.785 127.2 928.785 Q132.408 928.785 135.417 931.956 Q138.45 935.104 138.45 940.544 Q138.45 945.868 135.302 949.086 Q132.154 952.303 126.922 952.303 Q120.927 952.303 117.756 947.72 Q114.584 943.114 114.584 934.387 Q114.584 926.192 118.473 921.331 Q122.362 916.447 128.913 916.447 Q130.672 916.447 132.455 916.794 Q134.26 917.142 136.204 917.836 Z" fill="#000000" fill-rule="nonzero" fill-opacity="1" /><path clip-path="url(#clip840)" d="M146.552 917.072 L164.908 917.072 L164.908 921.007 L150.834 921.007 L150.834 929.479 Q151.853 929.132 152.871 928.97 Q153.89 928.785 154.908 928.785 Q160.695 928.785 164.075 931.956 Q167.454 935.128 167.454 940.544 Q167.454 946.123 163.982 949.225 Q160.51 952.303 154.19 952.303 Q152.015 952.303 149.746 951.933 Q147.501 951.563 145.093 950.822 L145.093 946.123 Q147.177 947.257 149.399 947.813 Q151.621 948.368 154.098 948.368 Q158.103 948.368 160.44 946.262 Q162.778 944.155 162.778 940.544 Q162.778 936.933 160.44 934.827 Q158.103 932.72 154.098 932.72 Q152.223 932.72 150.348 933.137 Q148.496 933.554 146.552 934.433 L146.552 917.072 Z" fill="#000000" fill-rule="nonzero" fill-opacity="1" /><path clip-path="url(#clip840)" d="M176.667 945.753 L181.551 945.753 L181.551 951.632 L176.667 951.632 L176.667 945.753 Z" fill="#000000" fill-rule="nonzero" fill-opacity="1" /><path clip-path="url(#clip840)" d="M202.315 932.489 Q199.167 932.489 197.315 934.642 Q195.487 936.794 195.487 940.544 Q195.487 944.271 197.315 946.447 Q199.167 948.6 202.315 948.6 Q205.463 948.6 207.292 946.447 Q209.144 944.271 209.144 940.544 Q209.144 936.794 207.292 934.642 Q205.463 932.489 202.315 932.489 M211.598 917.836 L211.598 922.095 Q209.838 921.262 208.033 920.822 Q206.25 920.382 204.491 920.382 Q199.862 920.382 197.408 923.507 Q194.977 926.632 194.63 932.952 Q195.996 930.938 198.056 929.873 Q200.116 928.785 202.593 928.785 Q207.801 928.785 210.811 931.956 Q213.843 935.104 213.843 940.544 Q213.843 945.868 210.695 949.086 Q207.547 952.303 202.315 952.303 Q196.32 952.303 193.149 947.72 Q189.977 943.114 189.977 934.387 Q189.977 926.192 193.866 921.331 Q197.755 916.447 204.306 916.447 Q206.065 916.447 207.848 916.794 Q209.653 917.142 211.598 917.836 Z" fill="#000000" fill-rule="nonzero" fill-opacity="1" /><path clip-path="url(#clip840)" d="M127.177 548.625 Q124.029 548.625 122.177 550.778 Q120.348 552.931 120.348 556.681 Q120.348 560.408 122.177 562.584 Q124.029 564.736 127.177 564.736 Q130.325 564.736 132.154 562.584 Q134.005 560.408 134.005 556.681 Q134.005 552.931 132.154 550.778 Q130.325 548.625 127.177 548.625 M136.459 533.973 L136.459 538.232 Q134.7 537.399 132.894 536.959 Q131.112 536.519 129.353 536.519 Q124.723 536.519 122.269 539.644 Q119.839 542.769 119.492 549.088 Q120.857 547.075 122.918 546.01 Q124.978 544.922 127.455 544.922 Q132.663 544.922 135.672 548.093 Q138.704 551.241 138.704 556.681 Q138.704 562.005 135.556 565.223 Q132.408 568.44 127.177 568.44 Q121.181 568.44 118.01 563.857 Q114.839 559.25 114.839 550.524 Q114.839 542.329 118.728 537.468 Q122.617 532.584 129.167 532.584 Q130.927 532.584 132.709 532.931 Q134.515 533.278 136.459 533.973 Z" fill="#000000" fill-rule="nonzero" fill-opacity="1" /><path clip-path="url(#clip840)" d="M146.806 533.209 L165.163 533.209 L165.163 537.144 L151.089 537.144 L151.089 545.616 Q152.107 545.269 153.126 545.107 Q154.144 544.922 155.163 544.922 Q160.95 544.922 164.329 548.093 Q167.709 551.264 167.709 556.681 Q167.709 562.26 164.237 565.361 Q160.765 568.44 154.445 568.44 Q152.269 568.44 150.001 568.07 Q147.755 567.699 145.348 566.959 L145.348 562.26 Q147.431 563.394 149.653 563.949 Q151.876 564.505 154.353 564.505 Q158.357 564.505 160.695 562.399 Q163.033 560.292 163.033 556.681 Q163.033 553.07 160.695 550.963 Q158.357 548.857 154.353 548.857 Q152.478 548.857 150.603 549.274 Q148.751 549.69 146.806 550.57 L146.806 533.209 Z" fill="#000000" fill-rule="nonzero" fill-opacity="1" /><path clip-path="url(#clip840)" d="M176.922 561.889 L181.806 561.889 L181.806 567.769 L176.922 567.769 L176.922 561.889 Z" fill="#000000" fill-rule="nonzero" fill-opacity="1" /><path clip-path="url(#clip840)" d="M201.991 551.357 Q198.658 551.357 196.737 553.139 Q194.838 554.922 194.838 558.047 Q194.838 561.172 196.737 562.954 Q198.658 564.736 201.991 564.736 Q205.324 564.736 207.246 562.954 Q209.167 561.149 209.167 558.047 Q209.167 554.922 207.246 553.139 Q205.348 551.357 201.991 551.357 M197.315 549.366 Q194.306 548.625 192.616 546.565 Q190.95 544.505 190.95 541.542 Q190.95 537.399 193.889 534.991 Q196.852 532.584 201.991 532.584 Q207.153 532.584 210.093 534.991 Q213.033 537.399 213.033 541.542 Q213.033 544.505 211.343 546.565 Q209.676 548.625 206.69 549.366 Q210.07 550.153 211.945 552.445 Q213.843 554.737 213.843 558.047 Q213.843 563.07 210.764 565.755 Q207.709 568.44 201.991 568.44 Q196.274 568.44 193.195 565.755 Q190.139 563.07 190.139 558.047 Q190.139 554.737 192.038 552.445 Q193.936 550.153 197.315 549.366 M195.602 541.982 Q195.602 544.667 197.269 546.172 Q198.959 547.676 201.991 547.676 Q205 547.676 206.69 546.172 Q208.403 544.667 208.403 541.982 Q208.403 539.297 206.69 537.792 Q205 536.288 201.991 536.288 Q198.959 536.288 197.269 537.792 Q195.602 539.297 195.602 541.982 Z" fill="#000000" fill-rule="nonzero" fill-opacity="1" /><path clip-path="url(#clip840)" d="M127.084 164.762 Q123.936 164.762 122.084 166.915 Q120.255 169.068 120.255 172.818 Q120.255 176.545 122.084 178.72 Q123.936 180.873 127.084 180.873 Q130.232 180.873 132.061 178.72 Q133.913 176.545 133.913 172.818 Q133.913 169.068 132.061 166.915 Q130.232 164.762 127.084 164.762 M136.367 150.109 L136.367 154.369 Q134.607 153.535 132.802 153.096 Q131.019 152.656 129.26 152.656 Q124.63 152.656 122.177 155.781 Q119.746 158.906 119.399 165.225 Q120.765 163.211 122.825 162.146 Q124.885 161.058 127.362 161.058 Q132.57 161.058 135.579 164.23 Q138.612 167.378 138.612 172.818 Q138.612 178.142 135.464 181.359 Q132.316 184.577 127.084 184.577 Q121.089 184.577 117.918 179.994 Q114.746 175.387 114.746 166.66 Q114.746 158.466 118.635 153.605 Q122.524 148.721 129.075 148.721 Q130.834 148.721 132.617 149.068 Q134.422 149.415 136.367 150.109 Z" fill="#000000" fill-rule="nonzero" fill-opacity="1" /><path clip-path="url(#clip840)" d="M157.246 164.762 Q154.098 164.762 152.246 166.915 Q150.417 169.068 150.417 172.818 Q150.417 176.545 152.246 178.72 Q154.098 180.873 157.246 180.873 Q160.394 180.873 162.223 178.72 Q164.075 176.545 164.075 172.818 Q164.075 169.068 162.223 166.915 Q160.394 164.762 157.246 164.762 M166.528 150.109 L166.528 154.369 Q164.769 153.535 162.964 153.096 Q161.181 152.656 159.422 152.656 Q154.792 152.656 152.339 155.781 Q149.908 158.906 149.561 165.225 Q150.927 163.211 152.987 162.146 Q155.047 161.058 157.524 161.058 Q162.732 161.058 165.741 164.23 Q168.774 167.378 168.774 172.818 Q168.774 178.142 165.626 181.359 Q162.477 184.577 157.246 184.577 Q151.251 184.577 148.079 179.994 Q144.908 175.387 144.908 166.66 Q144.908 158.466 148.797 153.605 Q152.686 148.721 159.237 148.721 Q160.996 148.721 162.778 149.068 Q164.584 149.415 166.528 150.109 Z" fill="#000000" fill-rule="nonzero" fill-opacity="1" /><path clip-path="url(#clip840)" d="M176.829 178.026 L181.713 178.026 L181.713 183.906 L176.829 183.906 L176.829 178.026 Z" fill="#000000" fill-rule="nonzero" fill-opacity="1" /><path clip-path="url(#clip840)" d="M201.899 152.424 Q198.287 152.424 196.459 155.989 Q194.653 159.531 194.653 166.66 Q194.653 173.767 196.459 177.332 Q198.287 180.873 201.899 180.873 Q205.533 180.873 207.338 177.332 Q209.167 173.767 209.167 166.66 Q209.167 159.531 207.338 155.989 Q205.533 152.424 201.899 152.424 M201.899 148.721 Q207.709 148.721 210.764 153.327 Q213.843 157.91 213.843 166.66 Q213.843 175.387 210.764 179.994 Q207.709 184.577 201.899 184.577 Q196.088 184.577 193.01 179.994 Q189.954 175.387 189.954 166.66 Q189.954 157.91 193.01 153.327 Q196.088 148.721 201.899 148.721 Z" fill="#000000" fill-rule="nonzero" fill-opacity="1" /><path clip-path="url(#clip840)" d="M22.818 922.094 L46.4666 930.815 L46.4666 913.341 L22.818 922.094 M16.4842 925.723 L16.4842 918.434 L64.0042 900.324 L64.0042 907.008 L51.8138 911.336 L51.8138 932.757 L64.0042 937.085 L64.0042 943.865 L16.4842 925.723 Z" fill="#000000" fill-rule="nonzero" fill-opacity="1" /><path clip-path="url(#clip840)" d="M45.7664 870.182 Q39.4007 870.182 35.8996 872.824 Q32.3984 875.434 32.3984 880.176 Q32.3984 884.887 35.8996 887.528 Q39.4007 890.138 45.7664 890.138 Q52.1003 890.138 55.6014 887.528 Q59.1026 884.887 59.1026 880.176 Q59.1026 875.434 55.6014 872.824 Q52.1003 870.182 45.7664 870.182 M59.58 864.325 Q68.683 864.325 73.1071 868.368 Q77.5631 872.41 77.5631 880.749 Q77.5631 883.836 77.0857 886.574 Q76.6401 889.311 75.6852 891.889 L69.9879 891.889 Q71.3884 889.311 72.0568 886.796 Q72.7252 884.282 72.7252 881.672 Q72.7252 875.911 69.7015 873.046 Q66.7096 870.182 60.6303 870.182 L57.7339 870.182 Q60.885 871.996 62.4446 874.829 Q64.0042 877.662 64.0042 881.608 Q64.0042 888.165 59.0071 892.175 Q54.01 896.186 45.7664 896.186 Q37.491 896.186 32.4939 892.175 Q27.4968 888.165 27.4968 881.608 Q27.4968 877.662 29.0564 874.829 Q30.616 871.996 33.7671 870.182 L28.3562 870.182 L28.3562 864.325 L59.58 864.325 Z" fill="#000000" fill-rule="nonzero" fill-opacity="1" /><path clip-path="url(#clip840)" d="M44.7161 821.771 L47.5806 821.771 L47.5806 848.698 Q53.6281 848.316 56.8109 845.069 Q59.9619 841.791 59.9619 835.966 Q59.9619 832.592 59.1344 829.441 Q58.3069 826.259 56.6518 823.139 L62.1899 823.139 Q63.5267 826.29 64.227 829.601 Q64.9272 832.911 64.9272 836.316 Q64.9272 844.846 59.9619 849.843 Q54.9967 854.809 46.5303 854.809 Q37.7774 854.809 32.6531 850.098 Q27.4968 845.356 27.4968 837.335 Q27.4968 830.142 32.1438 825.972 Q36.7589 821.771 44.7161 821.771 M42.9973 827.627 Q38.1912 827.691 35.3266 830.333 Q32.4621 832.943 32.4621 837.271 Q32.4621 842.173 35.2312 845.133 Q38.0002 848.061 43.0292 848.507 L42.9973 827.627 Z" fill="#000000" fill-rule="nonzero" fill-opacity="1" /><path clip-path="url(#clip840)" d="M14.5426 777.37 Q21.8632 781.635 29.0246 783.704 Q36.186 785.773 43.5384 785.773 Q50.8908 785.773 58.1159 783.704 Q65.3091 781.603 72.5979 777.37 L72.5979 782.462 Q65.1182 787.237 57.8931 789.624 Q50.668 791.979 43.5384 791.979 Q36.4406 791.979 29.2474 789.624 Q22.0542 787.269 14.5426 782.462 L14.5426 777.37 Z" fill="#000000" fill-rule="nonzero" fill-opacity="1" /><path clip-path="url(#clip840)" d="M16.4842 765.752 L16.4842 756.172 L48.8219 744.045 L16.4842 731.855 L16.4842 722.275 L64.0042 722.275 L64.0042 728.545 L22.277 728.545 L54.8694 740.799 L54.8694 747.26 L22.277 759.514 L64.0042 759.514 L64.0042 765.752 L16.4842 765.752 Z" fill="#000000" fill-rule="nonzero" fill-opacity="1" /><path clip-path="url(#clip840)" d="M46.0847 693.565 Q46.0847 700.663 47.7079 703.4 Q49.3312 706.138 53.2461 706.138 Q56.3653 706.138 58.2114 704.101 Q60.0256 702.032 60.0256 698.499 Q60.0256 693.629 56.5881 690.701 Q53.1188 687.741 47.3897 687.741 L46.0847 687.741 L46.0847 693.565 M43.6657 681.884 L64.0042 681.884 L64.0042 687.741 L58.5933 687.741 Q61.8398 689.746 63.3994 692.738 Q64.9272 695.73 64.9272 700.058 Q64.9272 705.533 61.8716 708.779 Q58.7843 711.994 53.6281 711.994 Q47.6125 711.994 44.5569 707.984 Q41.5014 703.941 41.5014 695.953 L41.5014 687.741 L40.9285 687.741 Q36.8862 687.741 34.6901 690.414 Q32.4621 693.056 32.4621 697.862 Q32.4621 700.918 33.1941 703.814 Q33.9262 706.711 35.3903 709.384 L29.9795 709.384 Q28.7381 706.169 28.1334 703.146 Q27.4968 700.122 27.4968 697.257 Q27.4968 689.523 31.5072 685.704 Q35.5176 681.884 43.6657 681.884 Z" fill="#000000" fill-rule="nonzero" fill-opacity="1" /><path clip-path="url(#clip840)" d="M14.5426 670.744 L14.5426 665.652 Q22.0542 660.877 29.2474 658.522 Q36.4406 656.135 43.5384 656.135 Q50.668 656.135 57.8931 658.522 Q65.1182 660.877 72.5979 665.652 L72.5979 670.744 Q65.3091 666.511 58.1159 664.442 Q50.8908 662.342 43.5384 662.342 Q36.186 662.342 29.0246 664.442 Q21.8632 666.511 14.5426 670.744 Z" fill="#000000" fill-rule="nonzero" fill-opacity="1" /><polyline clip-path="url(#clip842)" style="stroke:#009af9; stroke-linecap:round; stroke-linejoin:round; stroke-width:4; stroke-opacity:1; fill:none" points="309.359,1222.25 309.359,684.841 "/>
<polyline clip-path="url(#clip842)" style="stroke:#009af9; stroke-linecap:round; stroke-linejoin:round; stroke-width:4; stroke-opacity:1; fill:none" points="529.79,1059.11 529.79,794.242 "/>
<polyline clip-path="url(#clip842)" style="stroke:#009af9; stroke-linecap:round; stroke-linejoin:round; stroke-width:4; stroke-opacity:1; fill:none" points="750.222,1057.19 750.222,746.259 "/>
<polyline clip-path="url(#clip842)" style="stroke:#009af9; stroke-linecap:round; stroke-linejoin:round; stroke-width:4; stroke-opacity:1; fill:none" points="970.653,951.626 970.653,782.726 "/>
<polyline clip-path="url(#clip842)" style="stroke:#009af9; stroke-linecap:round; stroke-linejoin:round; stroke-width:4; stroke-opacity:1; fill:none" points="1191.08,1183.86 1191.08,492.909 "/>
<polyline clip-path="url(#clip842)" style="stroke:#009af9; stroke-linecap:round; stroke-linejoin:round; stroke-width:4; stroke-opacity:1; fill:none" points="1411.51,903.643 1411.51,727.066 "/>
<polyline clip-path="url(#clip842)" style="stroke:#009af9; stroke-linecap:round; stroke-linejoin:round; stroke-width:4; stroke-opacity:1; fill:none" points="1631.95,1510.15 1631.95,89.8529 "/>
<polyline clip-path="url(#clip842)" style="stroke:#009af9; stroke-linecap:round; stroke-linejoin:round; stroke-width:4; stroke-opacity:1; fill:none" points="1852.38,940.11 1852.38,613.826 "/>
<polyline clip-path="url(#clip842)" style="stroke:#009af9; stroke-linecap:round; stroke-linejoin:round; stroke-width:4; stroke-opacity:1; fill:none" points="2072.81,828.79 2072.81,571.601 "/>
<polyline clip-path="url(#clip842)" style="stroke:#009af9; stroke-linecap:round; stroke-linejoin:round; stroke-width:4; stroke-opacity:1; fill:none" points="2293.24,773.13 2293.24,450.684 "/>
<line clip-path="url(#clip842)" x1="325.359" y1="1222.25" x2="293.359" y2="1222.25" style="stroke:#009af9; stroke-width:4; stroke-opacity:1"/>
<line clip-path="url(#clip842)" x1="325.359" y1="684.841" x2="293.359" y2="684.841" style="stroke:#009af9; stroke-width:4; stroke-opacity:1"/>
<line clip-path="url(#clip842)" x1="545.79" y1="1059.11" x2="513.79" y2="1059.11" style="stroke:#009af9; stroke-width:4; stroke-opacity:1"/>
<line clip-path="url(#clip842)" x1="545.79" y1="794.242" x2="513.79" y2="794.242" style="stroke:#009af9; stroke-width:4; stroke-opacity:1"/>
<line clip-path="url(#clip842)" x1="766.222" y1="1057.19" x2="734.222" y2="1057.19" style="stroke:#009af9; stroke-width:4; stroke-opacity:1"/>
<line clip-path="url(#clip842)" x1="766.222" y1="746.259" x2="734.222" y2="746.259" style="stroke:#009af9; stroke-width:4; stroke-opacity:1"/>
<line clip-path="url(#clip842)" x1="986.653" y1="951.626" x2="954.653" y2="951.626" style="stroke:#009af9; stroke-width:4; stroke-opacity:1"/>
<line clip-path="url(#clip842)" x1="986.653" y1="782.726" x2="954.653" y2="782.726" style="stroke:#009af9; stroke-width:4; stroke-opacity:1"/>
<line clip-path="url(#clip842)" x1="1207.08" y1="1183.86" x2="1175.08" y2="1183.86" style="stroke:#009af9; stroke-width:4; stroke-opacity:1"/>
<line clip-path="url(#clip842)" x1="1207.08" y1="492.909" x2="1175.08" y2="492.909" style="stroke:#009af9; stroke-width:4; stroke-opacity:1"/>
<line clip-path="url(#clip842)" x1="1427.51" y1="903.643" x2="1395.51" y2="903.643" style="stroke:#009af9; stroke-width:4; stroke-opacity:1"/>
<line clip-path="url(#clip842)" x1="1427.51" y1="727.066" x2="1395.51" y2="727.066" style="stroke:#009af9; stroke-width:4; stroke-opacity:1"/>
<line clip-path="url(#clip842)" x1="1647.95" y1="1510.15" x2="1615.95" y2="1510.15" style="stroke:#009af9; stroke-width:4; stroke-opacity:1"/>
<line clip-path="url(#clip842)" x1="1647.95" y1="89.8529" x2="1615.95" y2="89.8529" style="stroke:#009af9; stroke-width:4; stroke-opacity:1"/>
<line clip-path="url(#clip842)" x1="1868.38" y1="940.11" x2="1836.38" y2="940.11" style="stroke:#009af9; stroke-width:4; stroke-opacity:1"/>
<line clip-path="url(#clip842)" x1="1868.38" y1="613.826" x2="1836.38" y2="613.826" style="stroke:#009af9; stroke-width:4; stroke-opacity:1"/>
<line clip-path="url(#clip842)" x1="2088.81" y1="828.79" x2="2056.81" y2="828.79" style="stroke:#009af9; stroke-width:4; stroke-opacity:1"/>
<line clip-path="url(#clip842)" x1="2088.81" y1="571.601" x2="2056.81" y2="571.601" style="stroke:#009af9; stroke-width:4; stroke-opacity:1"/>
<line clip-path="url(#clip842)" x1="2309.24" y1="773.13" x2="2277.24" y2="773.13" style="stroke:#009af9; stroke-width:4; stroke-opacity:1"/>
<line clip-path="url(#clip842)" x1="2309.24" y1="450.684" x2="2277.24" y2="450.684" style="stroke:#009af9; stroke-width:4; stroke-opacity:1"/>
<circle clip-path="url(#clip842)" cx="309.359" cy="953.545" r="14.4" fill="#009af9" fill-rule="evenodd" fill-opacity="1" stroke="none"/>
<circle clip-path="url(#clip842)" cx="529.79" cy="926.675" r="14.4" fill="#009af9" fill-rule="evenodd" fill-opacity="1" stroke="none"/>
<circle clip-path="url(#clip842)" cx="750.222" cy="901.724" r="14.4" fill="#009af9" fill-rule="evenodd" fill-opacity="1" stroke="none"/>
<circle clip-path="url(#clip842)" cx="970.653" cy="867.176" r="14.4" fill="#009af9" fill-rule="evenodd" fill-opacity="1" stroke="none"/>
<circle clip-path="url(#clip842)" cx="1191.08" cy="838.386" r="14.4" fill="#009af9" fill-rule="evenodd" fill-opacity="1" stroke="none"/>
<circle clip-path="url(#clip842)" cx="1411.51" cy="815.355" r="14.4" fill="#009af9" fill-rule="evenodd" fill-opacity="1" stroke="none"/>
<circle clip-path="url(#clip842)" cx="1631.95" cy="800" r="14.4" fill="#009af9" fill-rule="evenodd" fill-opacity="1" stroke="none"/>
<circle clip-path="url(#clip842)" cx="1852.38" cy="776.968" r="14.4" fill="#009af9" fill-rule="evenodd" fill-opacity="1" stroke="none"/>
<circle clip-path="url(#clip842)" cx="2072.81" cy="700.196" r="14.4" fill="#009af9" fill-rule="evenodd" fill-opacity="1" stroke="none"/>
<circle clip-path="url(#clip842)" cx="2293.24" cy="611.907" r="14.4" fill="#009af9" fill-rule="evenodd" fill-opacity="1" stroke="none"/>
<path clip-path="url(#clip842)" d="M309.359 988.944 L529.79 988.944 L750.222 988.944 L970.653 988.944 L1191.08 988.944 L1411.51 988.944 L1631.95 988.944 L1852.38 988.944 L2072.81 988.944 L2293.24 988.944 L2293.24 816.771 L2072.81 816.771 L1852.38 816.771 L1631.95 816.771 L1411.51 816.771 L1191.08 816.771 L970.653 816.771 L750.222 816.771 L529.79 816.771 L309.359 816.771  Z" fill="#e26f46" fill-rule="evenodd" fill-opacity="0.6"/>
<polyline clip-path="url(#clip842)" style="stroke:#e26f46; stroke-linecap:round; stroke-linejoin:round; stroke-width:4; stroke-opacity:0; fill:none" points="309.359,988.944 529.79,988.944 750.222,988.944 970.653,988.944 1191.08,988.944 1411.51,988.944 1631.95,988.944 1852.38,988.944 2072.81,988.944 2293.24,988.944 "/>
<polyline clip-path="url(#clip842)" style="stroke:#000000; stroke-linecap:round; stroke-linejoin:round; stroke-width:4; stroke-opacity:1; fill:none" stroke-dasharray="2, 4" points="309.359,890.402 529.79,890.402 750.222,890.402 970.653,890.402 1191.08,890.402 1411.51,890.402 1631.95,890.402 1852.38,890.402 2072.81,890.402 2293.24,890.402 "/>
<path clip-path="url(#clip840)" d="M319.94 252.948 L1326.11 252.948 L1326.11 97.4278 L319.94 97.4278  Z" fill="#ffffff" fill-rule="evenodd" fill-opacity="1"/>
<polyline clip-path="url(#clip840)" style="stroke:#ffffff; stroke-linecap:round; stroke-linejoin:round; stroke-width:4; stroke-opacity:1; fill:none" points="319.94,252.948 1326.11,252.948 1326.11,97.4278 319.94,97.4278 319.94,252.948 "/>
<circle clip-path="url(#clip840)" cx="413.403" cy="149.268" r="20.48" fill="#009af9" fill-rule="evenodd" fill-opacity="1" stroke="none"/>
<path clip-path="url(#clip840)" d="M511.542 135.83 L511.542 162.705 L517.19 162.705 Q524.342 162.705 527.653 159.465 Q530.986 156.224 530.986 149.233 Q530.986 142.289 527.653 139.071 Q524.342 135.83 517.19 135.83 L511.542 135.83 M506.866 131.988 L516.472 131.988 Q526.518 131.988 531.217 136.178 Q535.916 140.344 535.916 149.233 Q535.916 158.168 531.194 162.358 Q526.472 166.548 516.472 166.548 L506.866 166.548 L506.866 131.988 Z" fill="#000000" fill-rule="nonzero" fill-opacity="1" /><path clip-path="url(#clip840)" d="M554.967 153.515 Q549.805 153.515 547.815 154.696 Q545.824 155.877 545.824 158.724 Q545.824 160.992 547.305 162.335 Q548.81 163.654 551.379 163.654 Q554.921 163.654 557.051 161.154 Q559.203 158.631 559.203 154.465 L559.203 153.515 L554.967 153.515 M563.463 151.756 L563.463 166.548 L559.203 166.548 L559.203 162.613 Q557.745 164.974 555.569 166.108 Q553.393 167.219 550.245 167.219 Q546.264 167.219 543.902 164.997 Q541.565 162.752 541.565 159.002 Q541.565 154.627 544.481 152.404 Q547.421 150.182 553.231 150.182 L559.203 150.182 L559.203 149.766 Q559.203 146.826 557.259 145.228 Q555.338 143.608 551.842 143.608 Q549.62 143.608 547.514 144.141 Q545.407 144.673 543.463 145.738 L543.463 141.803 Q545.801 140.9 548 140.46 Q550.199 139.997 552.282 139.997 Q557.907 139.997 560.685 142.914 Q563.463 145.83 563.463 151.756 Z" fill="#000000" fill-rule="nonzero" fill-opacity="1" /><path clip-path="url(#clip840)" d="M576.449 133.261 L576.449 140.622 L585.222 140.622 L585.222 143.932 L576.449 143.932 L576.449 158.006 Q576.449 161.177 577.305 162.08 Q578.185 162.983 580.847 162.983 L585.222 162.983 L585.222 166.548 L580.847 166.548 Q575.916 166.548 574.041 164.719 Q572.166 162.867 572.166 158.006 L572.166 143.932 L569.041 143.932 L569.041 140.622 L572.166 140.622 L572.166 133.261 L576.449 133.261 Z" fill="#000000" fill-rule="nonzero" fill-opacity="1" /><path clip-path="url(#clip840)" d="M602.606 153.515 Q597.444 153.515 595.453 154.696 Q593.462 155.877 593.462 158.724 Q593.462 160.992 594.944 162.335 Q596.449 163.654 599.018 163.654 Q602.56 163.654 604.689 161.154 Q606.842 158.631 606.842 154.465 L606.842 153.515 L602.606 153.515 M611.101 151.756 L611.101 166.548 L606.842 166.548 L606.842 162.613 Q605.384 164.974 603.208 166.108 Q601.032 167.219 597.884 167.219 Q593.902 167.219 591.541 164.997 Q589.203 162.752 589.203 159.002 Q589.203 154.627 592.12 152.404 Q595.06 150.182 600.87 150.182 L606.842 150.182 L606.842 149.766 Q606.842 146.826 604.898 145.228 Q602.976 143.608 599.481 143.608 Q597.259 143.608 595.152 144.141 Q593.046 144.673 591.101 145.738 L591.101 141.803 Q593.439 140.9 595.638 140.46 Q597.837 139.997 599.921 139.997 Q605.546 139.997 608.323 142.914 Q611.101 145.83 611.101 151.756 Z" fill="#000000" fill-rule="nonzero" fill-opacity="1" /><path clip-path="url(#clip840)" d="M645.175 130.576 Q642.073 135.9 640.569 141.108 Q639.064 146.316 639.064 151.664 Q639.064 157.011 640.569 162.265 Q642.096 167.497 645.175 172.798 L641.471 172.798 Q637.999 167.358 636.263 162.103 Q634.55 156.849 634.55 151.664 Q634.55 146.502 636.263 141.27 Q637.976 136.039 641.471 130.576 L645.175 130.576 Z" fill="#000000" fill-rule="nonzero" fill-opacity="1" /><path clip-path="url(#clip840)" d="M663.485 143.608 Q660.059 143.608 658.069 146.293 Q656.078 148.955 656.078 153.608 Q656.078 158.261 658.045 160.946 Q660.036 163.608 663.485 163.608 Q666.888 163.608 668.879 160.923 Q670.869 158.238 670.869 153.608 Q670.869 149.002 668.879 146.316 Q666.888 143.608 663.485 143.608 M663.485 139.997 Q669.041 139.997 672.212 143.608 Q675.383 147.219 675.383 153.608 Q675.383 159.974 672.212 163.608 Q669.041 167.219 663.485 167.219 Q657.907 167.219 654.735 163.608 Q651.587 159.974 651.587 153.608 Q651.587 147.219 654.735 143.608 Q657.907 139.997 663.485 139.997 Z" fill="#000000" fill-rule="nonzero" fill-opacity="1" /><path clip-path="url(#clip840)" d="M701.054 153.608 Q701.054 148.909 699.11 146.247 Q697.189 143.562 693.809 143.562 Q690.429 143.562 688.485 146.247 Q686.564 148.909 686.564 153.608 Q686.564 158.307 688.485 160.992 Q690.429 163.654 693.809 163.654 Q697.189 163.654 699.11 160.992 Q701.054 158.307 701.054 153.608 M686.564 144.557 Q687.906 142.242 689.943 141.131 Q692.004 139.997 694.851 139.997 Q699.573 139.997 702.513 143.747 Q705.476 147.497 705.476 153.608 Q705.476 159.719 702.513 163.469 Q699.573 167.219 694.851 167.219 Q692.004 167.219 689.943 166.108 Q687.906 164.974 686.564 162.659 L686.564 166.548 L682.281 166.548 L682.281 130.529 L686.564 130.529 L686.564 144.557 Z" fill="#000000" fill-rule="nonzero" fill-opacity="1" /><path clip-path="url(#clip840)" d="M729.064 141.386 L729.064 145.414 Q727.258 144.488 725.314 144.025 Q723.369 143.562 721.286 143.562 Q718.115 143.562 716.517 144.534 Q714.943 145.506 714.943 147.451 Q714.943 148.932 716.077 149.789 Q717.212 150.622 720.638 151.386 L722.096 151.71 Q726.633 152.682 728.531 154.465 Q730.452 156.224 730.452 159.395 Q730.452 163.006 727.582 165.113 Q724.735 167.219 719.735 167.219 Q717.652 167.219 715.383 166.802 Q713.138 166.409 710.638 165.599 L710.638 161.201 Q712.999 162.427 715.29 163.052 Q717.582 163.654 719.827 163.654 Q722.837 163.654 724.457 162.636 Q726.077 161.594 726.077 159.719 Q726.077 157.983 724.897 157.057 Q723.739 156.131 719.781 155.275 L718.3 154.928 Q714.341 154.094 712.582 152.381 Q710.823 150.645 710.823 147.636 Q710.823 143.978 713.415 141.988 Q716.008 139.997 720.777 139.997 Q723.138 139.997 725.221 140.344 Q727.304 140.691 729.064 141.386 Z" fill="#000000" fill-rule="nonzero" fill-opacity="1" /><path clip-path="url(#clip840)" d="M759.411 152.52 L759.411 154.603 L739.827 154.603 Q740.105 159.002 742.466 161.316 Q744.85 163.608 749.087 163.608 Q751.54 163.608 753.832 163.006 Q756.147 162.404 758.415 161.201 L758.415 165.228 Q756.124 166.201 753.716 166.71 Q751.309 167.219 748.832 167.219 Q742.628 167.219 738.994 163.608 Q735.383 159.997 735.383 153.84 Q735.383 147.474 738.809 143.747 Q742.258 139.997 748.091 139.997 Q753.323 139.997 756.355 143.377 Q759.411 146.733 759.411 152.52 M755.151 151.27 Q755.105 147.775 753.184 145.691 Q751.286 143.608 748.138 143.608 Q744.573 143.608 742.42 145.622 Q740.29 147.636 739.966 151.293 L755.151 151.27 Z" fill="#000000" fill-rule="nonzero" fill-opacity="1" /><path clip-path="url(#clip840)" d="M781.424 144.603 Q780.707 144.187 779.85 144.002 Q779.017 143.793 777.998 143.793 Q774.387 143.793 772.443 146.154 Q770.522 148.492 770.522 152.89 L770.522 166.548 L766.239 166.548 L766.239 140.622 L770.522 140.622 L770.522 144.65 Q771.864 142.289 774.017 141.154 Q776.17 139.997 779.248 139.997 Q779.688 139.997 780.221 140.066 Q780.753 140.113 781.401 140.229 L781.424 144.603 Z" fill="#000000" fill-rule="nonzero" fill-opacity="1" /><path clip-path="url(#clip840)" d="M782.836 140.622 L787.35 140.622 L795.452 162.381 L803.554 140.622 L808.068 140.622 L798.346 166.548 L792.559 166.548 L782.836 140.622 Z" fill="#000000" fill-rule="nonzero" fill-opacity="1" /><path clip-path="url(#clip840)" d="M836.123 152.52 L836.123 154.603 L816.54 154.603 Q816.818 159.002 819.179 161.316 Q821.563 163.608 825.799 163.608 Q828.253 163.608 830.544 163.006 Q832.859 162.404 835.128 161.201 L835.128 165.228 Q832.836 166.201 830.429 166.71 Q828.021 167.219 825.544 167.219 Q819.341 167.219 815.707 163.608 Q812.095 159.997 812.095 153.84 Q812.095 147.474 815.521 143.747 Q818.97 139.997 824.804 139.997 Q830.035 139.997 833.068 143.377 Q836.123 146.733 836.123 152.52 M831.864 151.27 Q831.818 147.775 829.896 145.691 Q827.998 143.608 824.85 143.608 Q821.285 143.608 819.132 145.622 Q817.003 147.636 816.679 151.293 L831.864 151.27 Z" fill="#000000" fill-rule="nonzero" fill-opacity="1" /><path clip-path="url(#clip840)" d="M860.174 144.557 L860.174 130.529 L864.433 130.529 L864.433 166.548 L860.174 166.548 L860.174 162.659 Q858.831 164.974 856.771 166.108 Q854.734 167.219 851.864 167.219 Q847.165 167.219 844.202 163.469 Q841.262 159.719 841.262 153.608 Q841.262 147.497 844.202 143.747 Q847.165 139.997 851.864 139.997 Q854.734 139.997 856.771 141.131 Q858.831 142.242 860.174 144.557 M845.66 153.608 Q845.66 158.307 847.581 160.992 Q849.526 163.654 852.905 163.654 Q856.285 163.654 858.23 160.992 Q860.174 158.307 860.174 153.608 Q860.174 148.909 858.23 146.247 Q856.285 143.562 852.905 143.562 Q849.526 143.562 847.581 146.247 Q845.66 148.909 845.66 153.608 Z" fill="#000000" fill-rule="nonzero" fill-opacity="1" /><path clip-path="url(#clip840)" d="M900.058 153.515 Q894.896 153.515 892.905 154.696 Q890.915 155.877 890.915 158.724 Q890.915 160.992 892.396 162.335 Q893.901 163.654 896.47 163.654 Q900.012 163.654 902.141 161.154 Q904.294 158.631 904.294 154.465 L904.294 153.515 L900.058 153.515 M908.553 151.756 L908.553 166.548 L904.294 166.548 L904.294 162.613 Q902.836 164.974 900.66 166.108 Q898.484 167.219 895.336 167.219 Q891.354 167.219 888.993 164.997 Q886.655 162.752 886.655 159.002 Q886.655 154.627 889.572 152.404 Q892.512 150.182 898.322 150.182 L904.294 150.182 L904.294 149.766 Q904.294 146.826 902.35 145.228 Q900.428 143.608 896.933 143.608 Q894.711 143.608 892.604 144.141 Q890.498 144.673 888.553 145.738 L888.553 141.803 Q890.891 140.9 893.09 140.46 Q895.289 139.997 897.373 139.997 Q902.998 139.997 905.776 142.914 Q908.553 145.83 908.553 151.756 Z" fill="#000000" fill-rule="nonzero" fill-opacity="1" /><path clip-path="url(#clip840)" d="M934.387 153.284 Q934.387 148.654 932.465 146.108 Q930.567 143.562 927.118 143.562 Q923.692 143.562 921.771 146.108 Q919.873 148.654 919.873 153.284 Q919.873 157.89 921.771 160.437 Q923.692 162.983 927.118 162.983 Q930.567 162.983 932.465 160.437 Q934.387 157.89 934.387 153.284 M938.646 163.33 Q938.646 169.951 935.706 173.168 Q932.766 176.409 926.701 176.409 Q924.456 176.409 922.465 176.062 Q920.475 175.738 918.6 175.043 L918.6 170.9 Q920.475 171.918 922.303 172.404 Q924.132 172.89 926.03 172.89 Q930.22 172.89 932.303 170.691 Q934.387 168.515 934.387 164.094 L934.387 161.988 Q933.067 164.279 931.007 165.414 Q928.947 166.548 926.076 166.548 Q921.308 166.548 918.391 162.914 Q915.475 159.279 915.475 153.284 Q915.475 147.266 918.391 143.631 Q921.308 139.997 926.076 139.997 Q928.947 139.997 931.007 141.131 Q933.067 142.266 934.387 144.557 L934.387 140.622 L938.646 140.622 L938.646 163.33 Z" fill="#000000" fill-rule="nonzero" fill-opacity="1" /><path clip-path="url(#clip840)" d="M969.595 152.52 L969.595 154.603 L950.011 154.603 Q950.289 159.002 952.65 161.316 Q955.035 163.608 959.271 163.608 Q961.724 163.608 964.016 163.006 Q966.331 162.404 968.599 161.201 L968.599 165.228 Q966.308 166.201 963.9 166.71 Q961.493 167.219 959.016 167.219 Q952.812 167.219 949.178 163.608 Q945.567 159.997 945.567 153.84 Q945.567 147.474 948.993 143.747 Q952.442 139.997 958.275 139.997 Q963.507 139.997 966.539 143.377 Q969.595 146.733 969.595 152.52 M965.335 151.27 Q965.289 147.775 963.368 145.691 Q961.47 143.608 958.322 143.608 Q954.757 143.608 952.604 145.622 Q950.474 147.636 950.15 151.293 L965.335 151.27 Z" fill="#000000" fill-rule="nonzero" fill-opacity="1" /><path clip-path="url(#clip840)" d="M993.113 141.386 L993.113 145.414 Q991.307 144.488 989.363 144.025 Q987.419 143.562 985.335 143.562 Q982.164 143.562 980.567 144.534 Q978.993 145.506 978.993 147.451 Q978.993 148.932 980.127 149.789 Q981.261 150.622 984.687 151.386 L986.145 151.71 Q990.683 152.682 992.581 154.465 Q994.502 156.224 994.502 159.395 Q994.502 163.006 991.632 165.113 Q988.784 167.219 983.784 167.219 Q981.701 167.219 979.433 166.802 Q977.187 166.409 974.687 165.599 L974.687 161.201 Q977.048 162.427 979.34 163.052 Q981.632 163.654 983.877 163.654 Q986.886 163.654 988.507 162.636 Q990.127 161.594 990.127 159.719 Q990.127 157.983 988.946 157.057 Q987.789 156.131 983.831 155.275 L982.349 154.928 Q978.391 154.094 976.632 152.381 Q974.872 150.645 974.872 147.636 Q974.872 143.978 977.465 141.988 Q980.058 139.997 984.826 139.997 Q987.187 139.997 989.27 140.344 Q991.354 140.691 993.113 141.386 Z" fill="#000000" fill-rule="nonzero" fill-opacity="1" /><path clip-path="url(#clip840)" d="M1000.61 130.576 L1004.32 130.576 Q1007.79 136.039 1009.5 141.27 Q1011.24 146.502 1011.24 151.664 Q1011.24 156.849 1009.5 162.103 Q1007.79 167.358 1004.32 172.798 L1000.61 172.798 Q1003.69 167.497 1005.2 162.265 Q1006.72 157.011 1006.72 151.664 Q1006.72 146.316 1005.2 141.108 Q1003.69 135.9 1000.61 130.576 Z" fill="#000000" fill-rule="nonzero" fill-opacity="1" /><path clip-path="url(#clip840)" d="M343.306 221.844 L483.5 221.844 L483.5 180.372 L343.306 180.372 L343.306 221.844  Z" fill="#e26f46" fill-rule="evenodd" fill-opacity="0.6"/>
<polyline clip-path="url(#clip840)" style="stroke:#e26f46; stroke-linecap:round; stroke-linejoin:round; stroke-width:4; stroke-opacity:0; fill:none" points="343.306,180.372 483.5,180.372 "/>
<path clip-path="url(#clip840)" d="M506.866 183.828 L513.833 183.828 L522.653 207.346 L531.518 183.828 L538.486 183.828 L538.486 218.388 L533.926 218.388 L533.926 188.041 L525.014 211.744 L520.315 211.744 L511.403 188.041 L511.403 218.388 L506.866 218.388 L506.866 183.828 Z" fill="#000000" fill-rule="nonzero" fill-opacity="1" /><path clip-path="url(#clip840)" d="M557.629 195.448 Q554.203 195.448 552.213 198.133 Q550.222 200.795 550.222 205.448 Q550.222 210.101 552.189 212.786 Q554.18 215.448 557.629 215.448 Q561.032 215.448 563.023 212.763 Q565.013 210.078 565.013 205.448 Q565.013 200.842 563.023 198.156 Q561.032 195.448 557.629 195.448 M557.629 191.837 Q563.185 191.837 566.356 195.448 Q569.527 199.059 569.527 205.448 Q569.527 211.814 566.356 215.448 Q563.185 219.059 557.629 219.059 Q552.051 219.059 548.879 215.448 Q545.731 211.814 545.731 205.448 Q545.731 199.059 548.879 195.448 Q552.051 191.837 557.629 191.837 Z" fill="#000000" fill-rule="nonzero" fill-opacity="1" /><path clip-path="url(#clip840)" d="M593.648 196.397 L593.648 182.369 L597.907 182.369 L597.907 218.388 L593.648 218.388 L593.648 214.499 Q592.305 216.814 590.245 217.948 Q588.208 219.059 585.337 219.059 Q580.638 219.059 577.675 215.309 Q574.736 211.559 574.736 205.448 Q574.736 199.337 577.675 195.587 Q580.638 191.837 585.337 191.837 Q588.208 191.837 590.245 192.971 Q592.305 194.082 593.648 196.397 M579.134 205.448 Q579.134 210.147 581.055 212.832 Q583 215.494 586.379 215.494 Q589.759 215.494 591.703 212.832 Q593.648 210.147 593.648 205.448 Q593.648 200.749 591.703 198.087 Q589.759 195.402 586.379 195.402 Q583 195.402 581.055 198.087 Q579.134 200.749 579.134 205.448 Z" fill="#000000" fill-rule="nonzero" fill-opacity="1" /><path clip-path="url(#clip840)" d="M628.856 204.36 L628.856 206.443 L609.273 206.443 Q609.55 210.842 611.911 213.156 Q614.296 215.448 618.532 215.448 Q620.985 215.448 623.277 214.846 Q625.592 214.244 627.86 213.041 L627.86 217.068 Q625.569 218.041 623.161 218.55 Q620.754 219.059 618.277 219.059 Q612.073 219.059 608.439 215.448 Q604.828 211.837 604.828 205.68 Q604.828 199.314 608.254 195.587 Q611.703 191.837 617.536 191.837 Q622.768 191.837 625.8 195.217 Q628.856 198.573 628.856 204.36 M624.597 203.11 Q624.55 199.615 622.629 197.531 Q620.731 195.448 617.583 195.448 Q614.018 195.448 611.865 197.462 Q609.735 199.476 609.411 203.133 L624.597 203.11 Z" fill="#000000" fill-rule="nonzero" fill-opacity="1" /><path clip-path="url(#clip840)" d="M635.846 182.369 L640.106 182.369 L640.106 218.388 L635.846 218.388 L635.846 182.369 Z" fill="#000000" fill-rule="nonzero" fill-opacity="1" /><path clip-path="url(#clip840)" d="M674.318 182.416 Q671.217 187.74 669.712 192.948 Q668.207 198.156 668.207 203.504 Q668.207 208.851 669.712 214.105 Q671.24 219.337 674.318 224.638 L670.615 224.638 Q667.143 219.198 665.406 213.943 Q663.694 208.689 663.694 203.504 Q663.694 198.342 665.406 193.11 Q667.119 187.879 670.615 182.416 L674.318 182.416 Z" fill="#000000" fill-rule="nonzero" fill-opacity="1" /><path clip-path="url(#clip840)" d="M693.763 199.244 Q690.615 199.244 688.763 201.397 Q686.934 203.55 686.934 207.3 Q686.934 211.027 688.763 213.203 Q690.615 215.355 693.763 215.355 Q696.911 215.355 698.74 213.203 Q700.591 211.027 700.591 207.3 Q700.591 203.55 698.74 201.397 Q696.911 199.244 693.763 199.244 M703.045 184.592 L703.045 188.851 Q701.286 188.018 699.48 187.578 Q697.698 187.138 695.939 187.138 Q691.309 187.138 688.855 190.263 Q686.425 193.388 686.078 199.707 Q687.443 197.693 689.504 196.629 Q691.564 195.541 694.041 195.541 Q699.249 195.541 702.258 198.712 Q705.291 201.86 705.291 207.3 Q705.291 212.624 702.142 215.842 Q698.994 219.059 693.763 219.059 Q687.767 219.059 684.596 214.476 Q681.425 209.869 681.425 201.143 Q681.425 192.948 685.314 188.087 Q689.203 183.203 695.754 183.203 Q697.513 183.203 699.295 183.55 Q701.101 183.897 703.045 184.592 Z" fill="#000000" fill-rule="nonzero" fill-opacity="1" /><path clip-path="url(#clip840)" d="M713.392 183.828 L731.749 183.828 L731.749 187.763 L717.675 187.763 L717.675 196.235 Q718.693 195.888 719.712 195.726 Q720.73 195.541 721.749 195.541 Q727.536 195.541 730.915 198.712 Q734.295 201.883 734.295 207.3 Q734.295 212.879 730.823 215.98 Q727.351 219.059 721.031 219.059 Q718.855 219.059 716.587 218.689 Q714.341 218.318 711.934 217.578 L711.934 212.879 Q714.017 214.013 716.24 214.568 Q718.462 215.124 720.939 215.124 Q724.943 215.124 727.281 213.017 Q729.619 210.911 729.619 207.3 Q729.619 203.689 727.281 201.582 Q724.943 199.476 720.939 199.476 Q719.064 199.476 717.189 199.893 Q715.337 200.309 713.392 201.189 L713.392 183.828 Z" fill="#000000" fill-rule="nonzero" fill-opacity="1" /><path clip-path="url(#clip840)" d="M743.508 212.508 L748.392 212.508 L748.392 218.388 L743.508 218.388 L743.508 212.508 Z" fill="#000000" fill-rule="nonzero" fill-opacity="1" /><path clip-path="url(#clip840)" d="M769.156 199.244 Q766.008 199.244 764.156 201.397 Q762.327 203.55 762.327 207.3 Q762.327 211.027 764.156 213.203 Q766.008 215.355 769.156 215.355 Q772.304 215.355 774.133 213.203 Q775.985 211.027 775.985 207.3 Q775.985 203.55 774.133 201.397 Q772.304 199.244 769.156 199.244 M778.438 184.592 L778.438 188.851 Q776.679 188.018 774.873 187.578 Q773.091 187.138 771.332 187.138 Q766.702 187.138 764.249 190.263 Q761.818 193.388 761.471 199.707 Q762.837 197.693 764.897 196.629 Q766.957 195.541 769.434 195.541 Q774.642 195.541 777.651 198.712 Q780.684 201.86 780.684 207.3 Q780.684 212.624 777.535 215.842 Q774.387 219.059 769.156 219.059 Q763.161 219.059 759.989 214.476 Q756.818 209.869 756.818 201.143 Q756.818 192.948 760.707 188.087 Q764.596 183.203 771.147 183.203 Q772.906 183.203 774.688 183.55 Q776.494 183.897 778.438 184.592 Z" fill="#000000" fill-rule="nonzero" fill-opacity="1" /><path clip-path="url(#clip840)" d="M792.767 214.453 L809.086 214.453 L809.086 218.388 L787.142 218.388 L787.142 214.453 Q789.804 211.698 794.387 207.068 Q798.994 202.416 800.174 201.073 Q802.42 198.55 803.299 196.814 Q804.202 195.055 804.202 193.365 Q804.202 190.61 802.258 188.874 Q800.336 187.138 797.234 187.138 Q795.035 187.138 792.582 187.902 Q790.151 188.666 787.373 190.217 L787.373 185.494 Q790.197 184.36 792.651 183.782 Q795.105 183.203 797.142 183.203 Q802.512 183.203 805.707 185.888 Q808.901 188.573 808.901 193.064 Q808.901 195.194 808.091 197.115 Q807.304 199.013 805.197 201.606 Q804.619 202.277 801.517 205.494 Q798.415 208.689 792.767 214.453 Z" fill="#000000" fill-rule="nonzero" fill-opacity="1" /><path clip-path="url(#clip840)" d="M833.068 199.754 Q836.424 200.471 838.299 202.74 Q840.197 205.008 840.197 208.342 Q840.197 213.457 836.679 216.258 Q833.16 219.059 826.679 219.059 Q824.503 219.059 822.188 218.619 Q819.896 218.203 817.443 217.346 L817.443 212.832 Q819.387 213.967 821.702 214.545 Q824.017 215.124 826.54 215.124 Q830.938 215.124 833.23 213.388 Q835.544 211.652 835.544 208.342 Q835.544 205.286 833.392 203.573 Q831.262 201.837 827.443 201.837 L823.415 201.837 L823.415 197.994 L827.628 197.994 Q831.077 197.994 832.906 196.629 Q834.734 195.24 834.734 192.647 Q834.734 189.985 832.836 188.573 Q830.961 187.138 827.443 187.138 Q825.521 187.138 823.322 187.555 Q821.123 187.971 818.484 188.851 L818.484 184.684 Q821.146 183.944 823.461 183.573 Q825.799 183.203 827.859 183.203 Q833.183 183.203 836.285 185.633 Q839.387 188.041 839.387 192.161 Q839.387 195.031 837.744 197.022 Q836.1 198.99 833.068 199.754 Z" fill="#000000" fill-rule="nonzero" fill-opacity="1" /><path clip-path="url(#clip840)" d="M880.868 188.666 L880.868 201.559 L893.762 201.559 L893.762 205.494 L880.868 205.494 L880.868 218.388 L876.979 218.388 L876.979 205.494 L864.086 205.494 L864.086 201.559 L876.979 201.559 L876.979 188.666 L880.868 188.666 Z" fill="#000000" fill-rule="nonzero" fill-opacity="1" /><path clip-path="url(#clip840)" d="M913.854 186.907 Q910.243 186.907 908.414 190.471 Q906.609 194.013 906.609 201.143 Q906.609 208.249 908.414 211.814 Q910.243 215.355 913.854 215.355 Q917.488 215.355 919.294 211.814 Q921.123 208.249 921.123 201.143 Q921.123 194.013 919.294 190.471 Q917.488 186.907 913.854 186.907 M913.854 183.203 Q919.664 183.203 922.72 187.809 Q925.799 192.393 925.799 201.143 Q925.799 209.869 922.72 214.476 Q919.664 219.059 913.854 219.059 Q908.044 219.059 904.965 214.476 Q901.91 209.869 901.91 201.143 Q901.91 192.393 904.965 187.809 Q908.044 183.203 913.854 183.203 Z" fill="#000000" fill-rule="nonzero" fill-opacity="1" /><path clip-path="url(#clip840)" d="M934.016 212.508 L938.9 212.508 L938.9 218.388 L934.016 218.388 L934.016 212.508 Z" fill="#000000" fill-rule="nonzero" fill-opacity="1" /><path clip-path="url(#clip840)" d="M959.085 186.907 Q955.474 186.907 953.646 190.471 Q951.84 194.013 951.84 201.143 Q951.84 208.249 953.646 211.814 Q955.474 215.355 959.085 215.355 Q962.72 215.355 964.525 211.814 Q966.354 208.249 966.354 201.143 Q966.354 194.013 964.525 190.471 Q962.72 186.907 959.085 186.907 M959.085 183.203 Q964.896 183.203 967.951 187.809 Q971.03 192.393 971.03 201.143 Q971.03 209.869 967.951 214.476 Q964.896 219.059 959.085 219.059 Q953.275 219.059 950.197 214.476 Q947.141 209.869 947.141 201.143 Q947.141 192.393 950.197 187.809 Q953.275 183.203 959.085 183.203 Z" fill="#000000" fill-rule="nonzero" fill-opacity="1" /><path clip-path="url(#clip840)" d="M993.414 199.754 Q996.77 200.471 998.645 202.74 Q1000.54 205.008 1000.54 208.342 Q1000.54 213.457 997.025 216.258 Q993.507 219.059 987.025 219.059 Q984.849 219.059 982.534 218.619 Q980.243 218.203 977.789 217.346 L977.789 212.832 Q979.733 213.967 982.048 214.545 Q984.363 215.124 986.886 215.124 Q991.284 215.124 993.576 213.388 Q995.891 211.652 995.891 208.342 Q995.891 205.286 993.738 203.573 Q991.608 201.837 987.789 201.837 L983.761 201.837 L983.761 197.994 L987.974 197.994 Q991.423 197.994 993.252 196.629 Q995.081 195.24 995.081 192.647 Q995.081 189.985 993.182 188.573 Q991.307 187.138 987.789 187.138 Q985.868 187.138 983.669 187.555 Q981.47 187.971 978.831 188.851 L978.831 184.684 Q981.493 183.944 983.808 183.573 Q986.145 183.203 988.206 183.203 Q993.53 183.203 996.632 185.633 Q999.733 188.041 999.733 192.161 Q999.733 195.031 998.09 197.022 Q996.446 198.99 993.414 199.754 Z" fill="#000000" fill-rule="nonzero" fill-opacity="1" /><path clip-path="url(#clip840)" d="M1019.41 201.976 Q1016.08 201.976 1014.15 203.758 Q1012.26 205.541 1012.26 208.666 Q1012.26 211.791 1014.15 213.573 Q1016.08 215.355 1019.41 215.355 Q1022.74 215.355 1024.66 213.573 Q1026.59 211.767 1026.59 208.666 Q1026.59 205.541 1024.66 203.758 Q1022.77 201.976 1019.41 201.976 M1014.73 199.985 Q1011.72 199.244 1010.03 197.184 Q1008.37 195.124 1008.37 192.161 Q1008.37 188.018 1011.31 185.61 Q1014.27 183.203 1019.41 183.203 Q1024.57 183.203 1027.51 185.61 Q1030.45 188.018 1030.45 192.161 Q1030.45 195.124 1028.76 197.184 Q1027.09 199.244 1024.11 199.985 Q1027.49 200.772 1029.36 203.064 Q1031.26 205.355 1031.26 208.666 Q1031.26 213.689 1028.18 216.374 Q1025.13 219.059 1019.41 219.059 Q1013.69 219.059 1010.61 216.374 Q1007.56 213.689 1007.56 208.666 Q1007.56 205.355 1009.46 203.064 Q1011.35 200.772 1014.73 199.985 M1013.02 192.601 Q1013.02 195.286 1014.69 196.791 Q1016.38 198.295 1019.41 198.295 Q1022.42 198.295 1024.11 196.791 Q1025.82 195.286 1025.82 192.601 Q1025.82 189.916 1024.11 188.411 Q1022.42 186.907 1019.41 186.907 Q1016.38 186.907 1014.69 188.411 Q1013.02 189.916 1013.02 192.601 Z" fill="#000000" fill-rule="nonzero" fill-opacity="1" /><path clip-path="url(#clip840)" d="M1046.54 183.828 L1050.47 183.828 L1038.44 222.786 L1034.5 222.786 L1046.54 183.828 Z" fill="#000000" fill-rule="nonzero" fill-opacity="1" /><path clip-path="url(#clip840)" d="M1052.79 203.504 L1065.27 203.504 L1065.27 207.3 L1052.79 207.3 L1052.79 203.504 Z" fill="#000000" fill-rule="nonzero" fill-opacity="1" /><path clip-path="url(#clip840)" d="M1082.65 186.907 Q1079.04 186.907 1077.21 190.471 Q1075.4 194.013 1075.4 201.143 Q1075.4 208.249 1077.21 211.814 Q1079.04 215.355 1082.65 215.355 Q1086.28 215.355 1088.09 211.814 Q1089.92 208.249 1089.92 201.143 Q1089.92 194.013 1088.09 190.471 Q1086.28 186.907 1082.65 186.907 M1082.65 183.203 Q1088.46 183.203 1091.52 187.809 Q1094.59 192.393 1094.59 201.143 Q1094.59 209.869 1091.52 214.476 Q1088.46 219.059 1082.65 219.059 Q1076.84 219.059 1073.76 214.476 Q1070.71 209.869 1070.71 201.143 Q1070.71 192.393 1073.76 187.809 Q1076.84 183.203 1082.65 183.203 Z" fill="#000000" fill-rule="nonzero" fill-opacity="1" /><path clip-path="url(#clip840)" d="M1102.81 212.508 L1107.7 212.508 L1107.7 218.388 L1102.81 218.388 L1102.81 212.508 Z" fill="#000000" fill-rule="nonzero" fill-opacity="1" /><path clip-path="url(#clip840)" d="M1127.88 186.907 Q1124.27 186.907 1122.44 190.471 Q1120.64 194.013 1120.64 201.143 Q1120.64 208.249 1122.44 211.814 Q1124.27 215.355 1127.88 215.355 Q1131.52 215.355 1133.32 211.814 Q1135.15 208.249 1135.15 201.143 Q1135.15 194.013 1133.32 190.471 Q1131.52 186.907 1127.88 186.907 M1127.88 183.203 Q1133.69 183.203 1136.75 187.809 Q1139.83 192.393 1139.83 201.143 Q1139.83 209.869 1136.75 214.476 Q1133.69 219.059 1127.88 219.059 Q1122.07 219.059 1118.99 214.476 Q1115.94 209.869 1115.94 201.143 Q1115.94 192.393 1118.99 187.809 Q1122.07 183.203 1127.88 183.203 Z" fill="#000000" fill-rule="nonzero" fill-opacity="1" /><path clip-path="url(#clip840)" d="M1148.09 183.828 L1166.45 183.828 L1166.45 187.763 L1152.37 187.763 L1152.37 196.235 Q1153.39 195.888 1154.41 195.726 Q1155.43 195.541 1156.45 195.541 Q1162.23 195.541 1165.61 198.712 Q1168.99 201.883 1168.99 207.3 Q1168.99 212.879 1165.52 215.98 Q1162.05 219.059 1155.73 219.059 Q1153.55 219.059 1151.28 218.689 Q1149.04 218.318 1146.63 217.578 L1146.63 212.879 Q1148.71 214.013 1150.94 214.568 Q1153.16 215.124 1155.64 215.124 Q1159.64 215.124 1161.98 213.017 Q1164.32 210.911 1164.32 207.3 Q1164.32 203.689 1161.98 201.582 Q1159.64 199.476 1155.64 199.476 Q1153.76 199.476 1151.89 199.893 Q1150.03 200.309 1148.09 201.189 L1148.09 183.828 Z" fill="#000000" fill-rule="nonzero" fill-opacity="1" /><path clip-path="url(#clip840)" d="M1179.01 214.453 L1186.65 214.453 L1186.65 188.087 L1178.34 189.754 L1178.34 185.494 L1186.61 183.828 L1191.28 183.828 L1191.28 214.453 L1198.92 214.453 L1198.92 218.388 L1179.01 218.388 L1179.01 214.453 Z" fill="#000000" fill-rule="nonzero" fill-opacity="1" /><path clip-path="url(#clip840)" d="M1223.02 183.828 L1229.99 183.828 L1238.81 207.346 L1247.67 183.828 L1254.64 183.828 L1254.64 218.388 L1250.08 218.388 L1250.08 188.041 L1241.17 211.744 L1236.47 211.744 L1227.56 188.041 L1227.56 218.388 L1223.02 218.388 L1223.02 183.828 Z" fill="#000000" fill-rule="nonzero" fill-opacity="1" /><path clip-path="url(#clip840)" d="M1275.52 205.355 Q1270.36 205.355 1268.37 206.536 Q1266.38 207.717 1266.38 210.564 Q1266.38 212.832 1267.86 214.175 Q1269.36 215.494 1271.93 215.494 Q1275.47 215.494 1277.6 212.994 Q1279.76 210.471 1279.76 206.305 L1279.76 205.355 L1275.52 205.355 M1284.01 203.596 L1284.01 218.388 L1279.76 218.388 L1279.76 214.453 Q1278.3 216.814 1276.12 217.948 Q1273.94 219.059 1270.8 219.059 Q1266.82 219.059 1264.45 216.837 Q1262.12 214.592 1262.12 210.842 Q1262.12 206.467 1265.03 204.244 Q1267.97 202.022 1273.78 202.022 L1279.76 202.022 L1279.76 201.606 Q1279.76 198.666 1277.81 197.068 Q1275.89 195.448 1272.39 195.448 Q1270.17 195.448 1268.07 195.981 Q1265.96 196.513 1264.01 197.578 L1264.01 193.643 Q1266.35 192.74 1268.55 192.3 Q1270.75 191.837 1272.83 191.837 Q1278.46 191.837 1281.24 194.754 Q1284.01 197.67 1284.01 203.596 Z" fill="#000000" fill-rule="nonzero" fill-opacity="1" /><path clip-path="url(#clip840)" d="M1292.12 182.416 L1295.82 182.416 Q1299.29 187.879 1301 193.11 Q1302.74 198.342 1302.74 203.504 Q1302.74 208.689 1301 213.943 Q1299.29 219.198 1295.82 224.638 L1292.12 224.638 Q1295.19 219.337 1296.7 214.105 Q1298.23 208.851 1298.23 203.504 Q1298.23 198.156 1296.7 192.948 Q1295.19 187.74 1292.12 182.416 Z" fill="#000000" fill-rule="nonzero" fill-opacity="1" /></svg>
