<?xml version="1.0" encoding="utf-8"?>
<svg xmlns="http://www.w3.org/2000/svg" xmlns:xlink="http://www.w3.org/1999/xlink" width="600" height="400" viewBox="0 0 2400 1600">
<defs>
  <clipPath id="clip880">
    <rect x="0" y="0" width="2400" height="1600"/>
  </clipPath>
</defs>
<path clip-path="url(#clip880)" d="M0 1600 L2400 1600 L2400 8.88178e-14 L0 8.88178e-14  Z" fill="#ffffff" fill-rule="evenodd" fill-opacity="1"/>
<defs>
  <clipPath id="clip881">
    <rect x="480" y="0" width="1681" height="1600"/>
  </clipPath>
</defs>
<path clip-path="url(#clip880)" d="M202.227 1423.18 L2352.76 1423.18 L2352.76 47.2441 L202.227 47.2441  Z" fill="#ffffff" fill-rule="evenodd" fill-opacity="1"/>
<defs>
  <clipPath id="clip882">
    <rect x="202" y="47" width="2152" height="1377"/>
  </clipPath>
</defs>
<polyline clip-path="url(#clip882)" style="stroke:#000000; stroke-linecap:round; stroke-linejoin:round; stroke-width:2; stroke-opacity:0.1; fill:none" points="367.67,1423.18 367.67,47.2441 "/>
<polyline clip-path="url(#clip882)" style="stroke:#000000; stroke-linecap:round; stroke-linejoin:round; stroke-width:2; stroke-opacity:0.1; fill:none" points="1023.72,1423.18 1023.72,47.2441 "/>
<polyline clip-path="url(#clip882)" style="stroke:#000000; stroke-linecap:round; stroke-linejoin:round; stroke-width:2; stroke-opacity:0.1; fill:none" points="1679.76,1423.18 1679.76,47.2441 "/>
<polyline clip-path="url(#clip882)" style="stroke:#000000; stroke-linecap:round; stroke-linejoin:round; stroke-width:2; stroke-opacity:0.1; fill:none" points="2335.81,1423.18 2335.81,47.2441 "/>
<polyline clip-path="url(#clip882)" style="stroke:#000000; stroke-linecap:round; stroke-linejoin:round; stroke-width:2; stroke-opacity:0.1; fill:none" points="367.67,1423.18 367.67,47.2441 "/>
<polyline clip-path="url(#clip882)" style="stroke:#000000; stroke-linecap:round; stroke-linejoin:round; stroke-width:2; stroke-opacity:0.1; fill:none" points="1023.72,1423.18 1023.72,47.2441 "/>
<polyline clip-path="url(#clip882)" style="stroke:#000000; stroke-linecap:round; stroke-linejoin:round; stroke-width:2; stroke-opacity:0.1; fill:none" points="1679.76,1423.18 1679.76,47.2441 "/>
<polyline clip-path="url(#clip882)" style="stroke:#000000; stroke-linecap:round; stroke-linejoin:round; stroke-width:2; stroke-opacity:0.1; fill:none" points="2335.81,1423.18 2335.81,47.2441 "/>
<polyline clip-path="url(#clip882)" style="stroke:#000000; stroke-linecap:round; stroke-linejoin:round; stroke-width:2; stroke-opacity:0.1; fill:none" points="202.227,1384.24 2352.76,1384.24 "/>
<polyline clip-path="url(#clip882)" style="stroke:#000000; stroke-linecap:round; stroke-linejoin:round; stroke-width:2; stroke-opacity:0.1; fill:none" points="202.227,1014.25 2352.76,1014.25 "/>
<polyline clip-path="url(#clip882)" style="stroke:#000000; stroke-linecap:round; stroke-linejoin:round; stroke-width:2; stroke-opacity:0.1; fill:none" points="202.227,644.267 2352.76,644.267 "/>
<polyline clip-path="url(#clip882)" style="stroke:#000000; stroke-linecap:round; stroke-linejoin:round; stroke-width:2; stroke-opacity:0.1; fill:none" points="202.227,274.281 2352.76,274.281 "/>
<polyline clip-path="url(#clip882)" style="stroke:#000000; stroke-linecap:round; stroke-linejoin:round; stroke-width:2; stroke-opacity:0.1; fill:none" points="202.227,1384.24 2352.76,1384.24 "/>
<polyline clip-path="url(#clip882)" style="stroke:#000000; stroke-linecap:round; stroke-linejoin:round; stroke-width:2; stroke-opacity:0.1; fill:none" points="202.227,1014.25 2352.76,1014.25 "/>
<polyline clip-path="url(#clip882)" style="stroke:#000000; stroke-linecap:round; stroke-linejoin:round; stroke-width:2; stroke-opacity:0.1; fill:none" points="202.227,644.267 2352.76,644.267 "/>
<polyline clip-path="url(#clip882)" style="stroke:#000000; stroke-linecap:round; stroke-linejoin:round; stroke-width:2; stroke-opacity:0.1; fill:none" points="202.227,274.281 2352.76,274.281 "/>
<polyline clip-path="url(#clip880)" style="stroke:#000000; stroke-linecap:round; stroke-linejoin:round; stroke-width:4; stroke-opacity:1; fill:none" points="202.227,1423.18 2352.76,1423.18 "/>
<polyline clip-path="url(#clip880)" style="stroke:#000000; stroke-linecap:round; stroke-linejoin:round; stroke-width:4; stroke-opacity:1; fill:none" points="202.227,47.2441 2352.76,47.2441 "/>
<polyline clip-path="url(#clip880)" style="stroke:#000000; stroke-linecap:round; stroke-linejoin:round; stroke-width:4; stroke-opacity:1; fill:none" points="367.67,1423.18 367.67,1404.28 "/>
<polyline clip-path="url(#clip880)" style="stroke:#000000; stroke-linecap:round; stroke-linejoin:round; stroke-width:4; stroke-opacity:1; fill:none" points="1023.72,1423.18 1023.72,1404.28 "/>
<polyline clip-path="url(#clip880)" style="stroke:#000000; stroke-linecap:round; stroke-linejoin:round; stroke-width:4; stroke-opacity:1; fill:none" points="1679.76,1423.18 1679.76,1404.28 "/>
<polyline clip-path="url(#clip880)" style="stroke:#000000; stroke-linecap:round; stroke-linejoin:round; stroke-width:4; stroke-opacity:1; fill:none" points="2335.81,1423.18 2335.81,1404.28 "/>
<polyline clip-path="url(#clip880)" style="stroke:#000000; stroke-linecap:round; stroke-linejoin:round; stroke-width:4; stroke-opacity:1; fill:none" points="367.67,47.2441 367.67,66.1417 "/>
<polyline clip-path="url(#clip880)" style="stroke:#000000; stroke-linecap:round; stroke-linejoin:round; stroke-width:4; stroke-opacity:1; fill:none" points="1023.72,47.2441 1023.72,66.1417 "/>
<polyline clip-path="url(#clip880)" style="stroke:#000000; stroke-linecap:round; stroke-linejoin:round; stroke-width:4; stroke-opacity:1; fill:none" points="1679.76,47.2441 1679.76,66.1417 "/>
<polyline clip-path="url(#clip880)" style="stroke:#000000; stroke-linecap:round; stroke-linejoin:round; stroke-width:4; stroke-opacity:1; fill:none" points="2335.81,47.2441 2335.81,66.1417 "/>
<path clip-path="url(#clip880)" d="M330.217 1466.44 Q327.068 1466.44 325.217 1468.59 Q323.388 1470.74 323.388 1474.49 Q323.388 1478.22 325.217 1480.39 Q327.068 1482.55 330.217 1482.55 Q333.365 1482.55 335.193 1480.39 Q337.045 1478.22 337.045 1474.49 Q337.045 1470.74 335.193 1468.59 Q333.365 1466.44 330.217 1466.44 M339.499 1451.78 L339.499 1456.04 Q337.74 1455.21 335.934 1454.77 Q334.152 1454.33 332.392 1454.33 Q327.763 1454.33 325.309 1457.45 Q322.879 1460.58 322.531 1466.9 Q323.897 1464.89 325.957 1463.82 Q328.018 1462.73 330.494 1462.73 Q335.703 1462.73 338.712 1465.9 Q341.744 1469.05 341.744 1474.49 Q341.744 1479.82 338.596 1483.03 Q335.448 1486.25 330.217 1486.25 Q324.221 1486.25 321.05 1481.67 Q317.879 1477.06 317.879 1468.33 Q317.879 1460.14 321.768 1455.28 Q325.656 1450.39 332.207 1450.39 Q333.967 1450.39 335.749 1450.74 Q337.554 1451.09 339.499 1451.78 Z" fill="#000000" fill-rule="nonzero" fill-opacity="1" /><path clip-path="url(#clip880)" d="M349.846 1451.02 L368.202 1451.02 L368.202 1454.96 L354.128 1454.96 L354.128 1463.43 Q355.147 1463.08 356.166 1462.92 Q357.184 1462.73 358.203 1462.73 Q363.99 1462.73 367.369 1465.9 Q370.749 1469.08 370.749 1474.49 Q370.749 1480.07 367.277 1483.17 Q363.804 1486.25 357.485 1486.25 Q355.309 1486.25 353.041 1485.88 Q350.795 1485.51 348.388 1484.77 L348.388 1480.07 Q350.471 1481.2 352.693 1481.76 Q354.916 1482.32 357.392 1482.32 Q361.397 1482.32 363.735 1480.21 Q366.073 1478.1 366.073 1474.49 Q366.073 1470.88 363.735 1468.77 Q361.397 1466.67 357.392 1466.67 Q355.517 1466.67 353.642 1467.08 Q351.791 1467.5 349.846 1468.38 L349.846 1451.02 Z" fill="#000000" fill-rule="nonzero" fill-opacity="1" /><path clip-path="url(#clip880)" d="M379.962 1479.7 L384.846 1479.7 L384.846 1485.58 L379.962 1485.58 L379.962 1479.7 Z" fill="#000000" fill-rule="nonzero" fill-opacity="1" /><path clip-path="url(#clip880)" d="M407.878 1455.09 L396.073 1473.54 L407.878 1473.54 L407.878 1455.09 M406.651 1451.02 L412.531 1451.02 L412.531 1473.54 L417.461 1473.54 L417.461 1477.43 L412.531 1477.43 L412.531 1485.58 L407.878 1485.58 L407.878 1477.43 L392.276 1477.43 L392.276 1472.92 L406.651 1451.02 Z" fill="#000000" fill-rule="nonzero" fill-opacity="1" /><path clip-path="url(#clip880)" d="M987.004 1466.44 Q983.856 1466.44 982.004 1468.59 Q980.175 1470.74 980.175 1474.49 Q980.175 1478.22 982.004 1480.39 Q983.856 1482.55 987.004 1482.55 Q990.152 1482.55 991.981 1480.39 Q993.832 1478.22 993.832 1474.49 Q993.832 1470.74 991.981 1468.59 Q990.152 1466.44 987.004 1466.44 M996.286 1451.78 L996.286 1456.04 Q994.527 1455.21 992.721 1454.77 Q990.939 1454.33 989.18 1454.33 Q984.55 1454.33 982.096 1457.45 Q979.666 1460.58 979.319 1466.9 Q980.684 1464.89 982.744 1463.82 Q984.805 1462.73 987.281 1462.73 Q992.49 1462.73 995.499 1465.9 Q998.531 1469.05 998.531 1474.49 Q998.531 1479.82 995.383 1483.03 Q992.235 1486.25 987.004 1486.25 Q981.008 1486.25 977.837 1481.67 Q974.666 1477.06 974.666 1468.33 Q974.666 1460.14 978.555 1455.28 Q982.444 1450.39 988.994 1450.39 Q990.754 1450.39 992.536 1450.74 Q994.342 1451.09 996.286 1451.78 Z" fill="#000000" fill-rule="nonzero" fill-opacity="1" /><path clip-path="url(#clip880)" d="M1006.63 1451.02 L1024.99 1451.02 L1024.99 1454.96 L1010.92 1454.96 L1010.92 1463.43 Q1011.93 1463.08 1012.95 1462.92 Q1013.97 1462.73 1014.99 1462.73 Q1020.78 1462.73 1024.16 1465.9 Q1027.54 1469.08 1027.54 1474.49 Q1027.54 1480.07 1024.06 1483.17 Q1020.59 1486.25 1014.27 1486.25 Q1012.1 1486.25 1009.83 1485.88 Q1007.58 1485.51 1005.17 1484.77 L1005.17 1480.07 Q1007.26 1481.2 1009.48 1481.76 Q1011.7 1482.32 1014.18 1482.32 Q1018.18 1482.32 1020.52 1480.21 Q1022.86 1478.1 1022.86 1474.49 Q1022.86 1470.88 1020.52 1468.77 Q1018.18 1466.67 1014.18 1466.67 Q1012.3 1466.67 1010.43 1467.08 Q1008.58 1467.5 1006.63 1468.38 L1006.63 1451.02 Z" fill="#000000" fill-rule="nonzero" fill-opacity="1" /><path clip-path="url(#clip880)" d="M1036.75 1479.7 L1041.63 1479.7 L1041.63 1485.58 L1036.75 1485.58 L1036.75 1479.7 Z" fill="#000000" fill-rule="nonzero" fill-opacity="1" /><path clip-path="url(#clip880)" d="M1051.86 1451.02 L1070.22 1451.02 L1070.22 1454.96 L1056.15 1454.96 L1056.15 1463.43 Q1057.17 1463.08 1058.18 1462.92 Q1059.2 1462.73 1060.22 1462.73 Q1066.01 1462.73 1069.39 1465.9 Q1072.77 1469.08 1072.77 1474.49 Q1072.77 1480.07 1069.29 1483.17 Q1065.82 1486.25 1059.5 1486.25 Q1057.33 1486.25 1055.06 1485.88 Q1052.81 1485.51 1050.41 1484.77 L1050.41 1480.07 Q1052.49 1481.2 1054.71 1481.76 Q1056.93 1482.32 1059.41 1482.32 Q1063.42 1482.32 1065.75 1480.21 Q1068.09 1478.1 1068.09 1474.49 Q1068.09 1470.88 1065.75 1468.77 Q1063.42 1466.67 1059.41 1466.67 Q1057.54 1466.67 1055.66 1467.08 Q1053.81 1467.5 1051.86 1468.38 L1051.86 1451.02 Z" fill="#000000" fill-rule="nonzero" fill-opacity="1" /><path clip-path="url(#clip880)" d="M1642.47 1466.44 Q1639.32 1466.44 1637.47 1468.59 Q1635.64 1470.74 1635.64 1474.49 Q1635.64 1478.22 1637.47 1480.39 Q1639.32 1482.55 1642.47 1482.55 Q1645.62 1482.55 1647.45 1480.39 Q1649.3 1478.22 1649.3 1474.49 Q1649.3 1470.74 1647.45 1468.59 Q1645.62 1466.44 1642.47 1466.44 M1651.75 1451.78 L1651.75 1456.04 Q1649.99 1455.21 1648.19 1454.77 Q1646.41 1454.33 1644.65 1454.33 Q1640.02 1454.33 1637.56 1457.45 Q1635.13 1460.58 1634.79 1466.9 Q1636.15 1464.89 1638.21 1463.82 Q1640.27 1462.73 1642.75 1462.73 Q1647.96 1462.73 1650.97 1465.9 Q1654 1469.05 1654 1474.49 Q1654 1479.82 1650.85 1483.03 Q1647.7 1486.25 1642.47 1486.25 Q1636.48 1486.25 1633.3 1481.67 Q1630.13 1477.06 1630.13 1468.33 Q1630.13 1460.14 1634.02 1455.28 Q1637.91 1450.39 1644.46 1450.39 Q1646.22 1450.39 1648 1450.74 Q1649.81 1451.09 1651.75 1451.78 Z" fill="#000000" fill-rule="nonzero" fill-opacity="1" /><path clip-path="url(#clip880)" d="M1662.1 1451.02 L1680.46 1451.02 L1680.46 1454.96 L1666.38 1454.96 L1666.38 1463.43 Q1667.4 1463.08 1668.42 1462.92 Q1669.44 1462.73 1670.46 1462.73 Q1676.24 1462.73 1679.62 1465.9 Q1683 1469.08 1683 1474.49 Q1683 1480.07 1679.53 1483.17 Q1676.06 1486.25 1669.74 1486.25 Q1667.56 1486.25 1665.3 1485.88 Q1663.05 1485.51 1660.64 1484.77 L1660.64 1480.07 Q1662.73 1481.2 1664.95 1481.76 Q1667.17 1482.32 1669.65 1482.32 Q1673.65 1482.32 1675.99 1480.21 Q1678.33 1478.1 1678.33 1474.49 Q1678.33 1470.88 1675.99 1468.77 Q1673.65 1466.67 1669.65 1466.67 Q1667.77 1466.67 1665.9 1467.08 Q1664.05 1467.5 1662.1 1468.38 L1662.1 1451.02 Z" fill="#000000" fill-rule="nonzero" fill-opacity="1" /><path clip-path="url(#clip880)" d="M1692.22 1479.7 L1697.1 1479.7 L1697.1 1485.58 L1692.22 1485.58 L1692.22 1479.7 Z" fill="#000000" fill-rule="nonzero" fill-opacity="1" /><path clip-path="url(#clip880)" d="M1717.86 1466.44 Q1714.72 1466.44 1712.86 1468.59 Q1711.04 1470.74 1711.04 1474.49 Q1711.04 1478.22 1712.86 1480.39 Q1714.72 1482.55 1717.86 1482.55 Q1721.01 1482.55 1722.84 1480.39 Q1724.69 1478.22 1724.69 1474.49 Q1724.69 1470.74 1722.84 1468.59 Q1721.01 1466.44 1717.86 1466.44 M1727.15 1451.78 L1727.15 1456.04 Q1725.39 1455.21 1723.58 1454.77 Q1721.8 1454.33 1720.04 1454.33 Q1715.41 1454.33 1712.96 1457.45 Q1710.53 1460.58 1710.18 1466.9 Q1711.55 1464.89 1713.61 1463.82 Q1715.67 1462.73 1718.14 1462.73 Q1723.35 1462.73 1726.36 1465.9 Q1729.39 1469.05 1729.39 1474.49 Q1729.39 1479.82 1726.24 1483.03 Q1723.1 1486.25 1717.86 1486.25 Q1711.87 1486.25 1708.7 1481.67 Q1705.53 1477.06 1705.53 1468.33 Q1705.53 1460.14 1709.42 1455.28 Q1713.3 1450.39 1719.86 1450.39 Q1721.61 1450.39 1723.4 1450.74 Q1725.2 1451.09 1727.15 1451.78 Z" fill="#000000" fill-rule="nonzero" fill-opacity="1" /><path clip-path="url(#clip880)" d="M2299.05 1466.44 Q2295.9 1466.44 2294.05 1468.59 Q2292.22 1470.74 2292.22 1474.49 Q2292.22 1478.22 2294.05 1480.39 Q2295.9 1482.55 2299.05 1482.55 Q2302.2 1482.55 2304.03 1480.39 Q2305.88 1478.22 2305.88 1474.49 Q2305.88 1470.74 2304.03 1468.59 Q2302.2 1466.44 2299.05 1466.44 M2308.33 1451.78 L2308.33 1456.04 Q2306.57 1455.21 2304.77 1454.77 Q2302.99 1454.33 2301.23 1454.33 Q2296.6 1454.33 2294.14 1457.45 Q2291.71 1460.58 2291.37 1466.9 Q2292.73 1464.89 2294.79 1463.82 Q2296.85 1462.73 2299.33 1462.73 Q2304.54 1462.73 2307.55 1465.9 Q2310.58 1469.05 2310.58 1474.49 Q2310.58 1479.82 2307.43 1483.03 Q2304.28 1486.25 2299.05 1486.25 Q2293.05 1486.25 2289.88 1481.67 Q2286.71 1477.06 2286.71 1468.33 Q2286.71 1460.14 2290.6 1455.28 Q2294.49 1450.39 2301.04 1450.39 Q2302.8 1450.39 2304.58 1450.74 Q2306.39 1451.09 2308.33 1451.78 Z" fill="#000000" fill-rule="nonzero" fill-opacity="1" /><path clip-path="url(#clip880)" d="M2318.68 1451.02 L2337.04 1451.02 L2337.04 1454.96 L2322.96 1454.96 L2322.96 1463.43 Q2323.98 1463.08 2325 1462.92 Q2326.02 1462.73 2327.04 1462.73 Q2332.82 1462.73 2336.2 1465.9 Q2339.58 1469.08 2339.58 1474.49 Q2339.58 1480.07 2336.11 1483.17 Q2332.64 1486.25 2326.32 1486.25 Q2324.14 1486.25 2321.87 1485.88 Q2319.63 1485.51 2317.22 1484.77 L2317.22 1480.07 Q2319.3 1481.2 2321.53 1481.76 Q2323.75 1482.32 2326.23 1482.32 Q2330.23 1482.32 2332.57 1480.21 Q2334.91 1478.1 2334.91 1474.49 Q2334.91 1470.88 2332.57 1468.77 Q2330.23 1466.67 2326.23 1466.67 Q2324.35 1466.67 2322.48 1467.08 Q2320.62 1467.5 2318.68 1468.38 L2318.68 1451.02 Z" fill="#000000" fill-rule="nonzero" fill-opacity="1" /><path clip-path="url(#clip880)" d="M2348.8 1479.7 L2353.68 1479.7 L2353.68 1485.58 L2348.8 1485.58 L2348.8 1479.7 Z" fill="#000000" fill-rule="nonzero" fill-opacity="1" /><path clip-path="url(#clip880)" d="M2362.68 1451.02 L2384.91 1451.02 L2384.91 1453.01 L2372.36 1485.58 L2367.48 1485.58 L2379.28 1454.96 L2362.68 1454.96 L2362.68 1451.02 Z" fill="#000000" fill-rule="nonzero" fill-opacity="1" /><path clip-path="url(#clip880)" d="M1155.4 1526.86 L1146.68 1550.51 L1164.15 1550.51 L1155.4 1526.86 M1151.77 1520.52 L1159.06 1520.52 L1177.17 1568.04 L1170.48 1568.04 L1166.16 1555.85 L1144.73 1555.85 L1140.41 1568.04 L1133.63 1568.04 L1151.77 1520.52 Z" fill="#000000" fill-rule="nonzero" fill-opacity="1" /><path clip-path="url(#clip880)" d="M1207.31 1549.81 Q1207.31 1543.44 1204.67 1539.94 Q1202.06 1536.44 1197.32 1536.44 Q1192.6 1536.44 1189.96 1539.94 Q1187.35 1543.44 1187.35 1549.81 Q1187.35 1556.14 1189.96 1559.64 Q1192.6 1563.14 1197.32 1563.14 Q1202.06 1563.14 1204.67 1559.64 Q1207.31 1556.14 1207.31 1549.81 M1213.17 1563.62 Q1213.17 1572.72 1209.12 1577.15 Q1205.08 1581.6 1196.74 1581.6 Q1193.66 1581.6 1190.92 1581.13 Q1188.18 1580.68 1185.6 1579.72 L1185.6 1574.03 Q1188.18 1575.43 1190.7 1576.1 Q1193.21 1576.76 1195.82 1576.76 Q1201.58 1576.76 1204.45 1573.74 Q1207.31 1570.75 1207.31 1564.67 L1207.31 1561.77 Q1205.5 1564.92 1202.66 1566.48 Q1199.83 1568.04 1195.88 1568.04 Q1189.33 1568.04 1185.32 1563.05 Q1181.31 1558.05 1181.31 1549.81 Q1181.31 1541.53 1185.32 1536.53 Q1189.33 1531.54 1195.88 1531.54 Q1199.83 1531.54 1202.66 1533.1 Q1205.5 1534.66 1207.31 1537.81 L1207.31 1532.4 L1213.17 1532.4 L1213.17 1563.62 Z" fill="#000000" fill-rule="nonzero" fill-opacity="1" /><path clip-path="url(#clip880)" d="M1255.72 1548.76 L1255.72 1551.62 L1228.79 1551.62 Q1229.18 1557.67 1232.42 1560.85 Q1235.7 1564 1241.53 1564 Q1244.9 1564 1248.05 1563.17 Q1251.23 1562.35 1254.35 1560.69 L1254.35 1566.23 Q1251.2 1567.57 1247.89 1568.27 Q1244.58 1568.97 1241.18 1568.97 Q1232.65 1568.97 1227.65 1564 Q1222.68 1559.04 1222.68 1550.57 Q1222.68 1541.82 1227.39 1536.69 Q1232.14 1531.54 1240.16 1531.54 Q1247.35 1531.54 1251.52 1536.18 Q1255.72 1540.8 1255.72 1548.76 M1249.86 1547.04 Q1249.8 1542.23 1247.16 1539.37 Q1244.55 1536.5 1240.22 1536.5 Q1235.32 1536.5 1232.36 1539.27 Q1229.43 1542.04 1228.99 1547.07 L1249.86 1547.04 Z" fill="#000000" fill-rule="nonzero" fill-opacity="1" /><path clip-path="url(#clip880)" d="M1300.12 1518.58 Q1295.86 1525.9 1293.79 1533.06 Q1291.72 1540.23 1291.72 1547.58 Q1291.72 1554.93 1293.79 1562.16 Q1295.89 1569.35 1300.12 1576.64 L1295.03 1576.64 Q1290.25 1569.16 1287.87 1561.93 Q1285.51 1554.71 1285.51 1547.58 Q1285.51 1540.48 1287.87 1533.29 Q1290.22 1526.09 1295.03 1518.58 L1300.12 1518.58 Z" fill="#000000" fill-rule="nonzero" fill-opacity="1" /><path clip-path="url(#clip880)" d="M1311.74 1520.52 L1321.32 1520.52 L1333.45 1552.86 L1345.64 1520.52 L1355.22 1520.52 L1355.22 1568.04 L1348.95 1568.04 L1348.95 1526.32 L1336.69 1558.91 L1330.23 1558.91 L1317.98 1526.32 L1317.98 1568.04 L1311.74 1568.04 L1311.74 1520.52 Z" fill="#000000" fill-rule="nonzero" fill-opacity="1" /><path clip-path="url(#clip880)" d="M1383.93 1550.12 Q1376.83 1550.12 1374.09 1551.75 Q1371.35 1553.37 1371.35 1557.29 Q1371.35 1560.4 1373.39 1562.25 Q1375.46 1564.07 1378.99 1564.07 Q1383.86 1564.07 1386.79 1560.63 Q1389.75 1557.16 1389.75 1551.43 L1389.75 1550.12 L1383.93 1550.12 M1395.61 1547.71 L1395.61 1568.04 L1389.75 1568.04 L1389.75 1562.63 Q1387.75 1565.88 1384.75 1567.44 Q1381.76 1568.97 1377.43 1568.97 Q1371.96 1568.97 1368.71 1565.91 Q1365.5 1562.82 1365.5 1557.67 Q1365.5 1551.65 1369.51 1548.6 Q1373.55 1545.54 1381.54 1545.54 L1389.75 1545.54 L1389.75 1544.97 Q1389.75 1540.93 1387.08 1538.73 Q1384.44 1536.5 1379.63 1536.5 Q1376.57 1536.5 1373.68 1537.23 Q1370.78 1537.97 1368.11 1539.43 L1368.11 1534.02 Q1371.32 1532.78 1374.35 1532.17 Q1377.37 1531.54 1380.23 1531.54 Q1387.97 1531.54 1391.79 1535.55 Q1395.61 1539.56 1395.61 1547.71 Z" fill="#000000" fill-rule="nonzero" fill-opacity="1" /><path clip-path="url(#clip880)" d="M1406.75 1518.58 L1411.84 1518.58 Q1416.61 1526.09 1418.97 1533.29 Q1421.36 1540.48 1421.36 1547.58 Q1421.36 1554.71 1418.97 1561.93 Q1416.61 1569.16 1411.84 1576.64 L1406.75 1576.64 Q1410.98 1569.35 1413.05 1562.16 Q1415.15 1554.93 1415.15 1547.58 Q1415.15 1540.23 1413.05 1533.06 Q1410.98 1525.9 1406.75 1518.58 Z" fill="#000000" fill-rule="nonzero" fill-opacity="1" /><polyline clip-path="url(#clip880)" style="stroke:#000000; stroke-linecap:round; stroke-linejoin:round; stroke-width:4; stroke-opacity:1; fill:none" points="202.227,1423.18 202.227,47.2441 "/>
<polyline clip-path="url(#clip880)" style="stroke:#000000; stroke-linecap:round; stroke-linejoin:round; stroke-width:4; stroke-opacity:1; fill:none" points="2352.76,1423.18 2352.76,47.2441 "/>
<polyline clip-path="url(#clip880)" style="stroke:#000000; stroke-linecap:round; stroke-linejoin:round; stroke-width:4; stroke-opacity:1; fill:none" points="202.227,1384.24 221.125,1384.24 "/>
<polyline clip-path="url(#clip880)" style="stroke:#000000; stroke-linecap:round; stroke-linejoin:round; stroke-width:4; stroke-opacity:1; fill:none" points="202.227,1014.25 221.125,1014.25 "/>
<polyline clip-path="url(#clip880)" style="stroke:#000000; stroke-linecap:round; stroke-linejoin:round; stroke-width:4; stroke-opacity:1; fill:none" points="202.227,644.267 221.125,644.267 "/>
<polyline clip-path="url(#clip880)" style="stroke:#000000; stroke-linecap:round; stroke-linejoin:round; stroke-width:4; stroke-opacity:1; fill:none" points="202.227,274.281 221.125,274.281 "/>
<polyline clip-path="url(#clip880)" style="stroke:#000000; stroke-linecap:round; stroke-linejoin:round; stroke-width:4; stroke-opacity:1; fill:none" points="2352.76,1384.24 2333.86,1384.24 "/>
<polyline clip-path="url(#clip880)" style="stroke:#000000; stroke-linecap:round; stroke-linejoin:round; stroke-width:4; stroke-opacity:1; fill:none" points="2352.76,1014.25 2333.86,1014.25 "/>
<polyline clip-path="url(#clip880)" style="stroke:#000000; stroke-linecap:round; stroke-linejoin:round; stroke-width:4; stroke-opacity:1; fill:none" points="2352.76,644.267 2333.86,644.267 "/>
<polyline clip-path="url(#clip880)" style="stroke:#000000; stroke-linecap:round; stroke-linejoin:round; stroke-width:4; stroke-opacity:1; fill:none" points="2352.76,274.281 2333.86,274.281 "/>
<path clip-path="url(#clip880)" d="M154.283 1370.04 Q150.672 1370.04 148.843 1373.6 Q147.038 1377.14 147.038 1384.27 Q147.038 1391.38 148.843 1394.94 Q150.672 1398.49 154.283 1398.49 Q157.917 1398.49 159.723 1394.94 Q161.552 1391.38 161.552 1384.27 Q161.552 1377.14 159.723 1373.6 Q157.917 1370.04 154.283 1370.04 M154.283 1366.33 Q160.093 1366.33 163.149 1370.94 Q166.227 1375.52 166.227 1384.27 Q166.227 1393 163.149 1397.61 Q160.093 1402.19 154.283 1402.19 Q148.473 1402.19 145.394 1397.61 Q142.339 1393 142.339 1384.27 Q142.339 1375.52 145.394 1370.94 Q148.473 1366.33 154.283 1366.33 Z" fill="#000000" fill-rule="nonzero" fill-opacity="1" /><path clip-path="url(#clip880)" d="M145.325 996.973 L163.681 996.973 L163.681 1000.91 L149.607 1000.91 L149.607 1009.38 Q150.626 1009.03 151.644 1008.87 Q152.663 1008.69 153.681 1008.69 Q159.468 1008.69 162.848 1011.86 Q166.227 1015.03 166.227 1020.44 Q166.227 1026.02 162.755 1029.13 Q159.283 1032.2 152.964 1032.2 Q150.788 1032.2 148.519 1031.83 Q146.274 1031.46 143.866 1030.72 L143.866 1026.02 Q145.95 1027.16 148.172 1027.71 Q150.394 1028.27 152.871 1028.27 Q156.876 1028.27 159.214 1026.16 Q161.552 1024.06 161.552 1020.44 Q161.552 1016.83 159.214 1014.73 Q156.876 1012.62 152.871 1012.62 Q150.996 1012.62 149.121 1013.04 Q147.269 1013.45 145.325 1014.33 L145.325 996.973 Z" fill="#000000" fill-rule="nonzero" fill-opacity="1" /><path clip-path="url(#clip880)" d="M114.931 657.612 L122.57 657.612 L122.57 631.246 L114.26 632.913 L114.26 628.654 L122.524 626.987 L127.2 626.987 L127.2 657.612 L134.839 657.612 L134.839 661.547 L114.931 661.547 L114.931 657.612 Z" fill="#000000" fill-rule="nonzero" fill-opacity="1" /><path clip-path="url(#clip880)" d="M154.283 630.066 Q150.672 630.066 148.843 633.63 Q147.038 637.172 147.038 644.302 Q147.038 651.408 148.843 654.973 Q150.672 658.515 154.283 658.515 Q157.917 658.515 159.723 654.973 Q161.552 651.408 161.552 644.302 Q161.552 637.172 159.723 633.63 Q157.917 630.066 154.283 630.066 M154.283 626.362 Q160.093 626.362 163.149 630.968 Q166.227 635.552 166.227 644.302 Q166.227 653.028 163.149 657.635 Q160.093 662.218 154.283 662.218 Q148.473 662.218 145.394 657.635 Q142.339 653.028 142.339 644.302 Q142.339 635.552 145.394 630.968 Q148.473 626.362 154.283 626.362 Z" fill="#000000" fill-rule="nonzero" fill-opacity="1" /><path clip-path="url(#clip880)" d="M115.927 287.626 L123.566 287.626 L123.566 261.261 L115.256 262.927 L115.256 258.668 L123.519 257.001 L128.195 257.001 L128.195 287.626 L135.834 287.626 L135.834 291.561 L115.927 291.561 L115.927 287.626 Z" fill="#000000" fill-rule="nonzero" fill-opacity="1" /><path clip-path="url(#clip880)" d="M145.325 257.001 L163.681 257.001 L163.681 260.936 L149.607 260.936 L149.607 269.409 Q150.626 269.061 151.644 268.899 Q152.663 268.714 153.681 268.714 Q159.468 268.714 162.848 271.885 Q166.227 275.057 166.227 280.473 Q166.227 286.052 162.755 289.154 Q159.283 292.233 152.964 292.233 Q150.788 292.233 148.519 291.862 Q146.274 291.492 143.866 290.751 L143.866 286.052 Q145.95 287.186 148.172 287.742 Q150.394 288.297 152.871 288.297 Q156.876 288.297 159.214 286.191 Q161.552 284.084 161.552 280.473 Q161.552 276.862 159.214 274.756 Q156.876 272.649 152.871 272.649 Q150.996 272.649 149.121 273.066 Q147.269 273.483 145.325 274.362 L145.325 257.001 Z" fill="#000000" fill-rule="nonzero" fill-opacity="1" /><path clip-path="url(#clip880)" d="M21.7677 1026.76 L39.6235 1026.76 L39.6235 1018.68 Q39.6235 1014.19 37.3 1011.74 Q34.9765 1009.29 30.6797 1009.29 Q26.4147 1009.29 24.0912 1011.74 Q21.7677 1014.19 21.7677 1018.68 L21.7677 1026.76 M16.4842 1033.19 L16.4842 1018.68 Q16.4842 1010.69 20.1126 1006.61 Q23.7092 1002.51 30.6797 1002.51 Q37.7138 1002.51 41.3104 1006.61 Q44.907 1010.69 44.907 1018.68 L44.907 1026.76 L64.0042 1026.76 L64.0042 1033.19 L16.4842 1033.19 Z" fill="#000000" fill-rule="nonzero" fill-opacity="1" /><path clip-path="url(#clip880)" d="M33.8307 974.626 Q33.2578 975.613 33.0032 976.791 Q32.7167 977.936 32.7167 979.337 Q32.7167 984.302 35.9632 986.976 Q39.1779 989.617 45.2253 989.617 L64.0042 989.617 L64.0042 995.506 L28.3562 995.506 L28.3562 989.617 L33.8944 989.617 Q30.6479 987.771 29.0883 984.811 Q27.4968 981.851 27.4968 977.618 Q27.4968 977.013 27.5923 976.281 Q27.656 975.549 27.8151 974.658 L33.8307 974.626 Z" fill="#000000" fill-rule="nonzero" fill-opacity="1" /><path clip-path="url(#clip880)" d="M32.4621 956.102 Q32.4621 960.813 36.1542 963.55 Q39.8145 966.287 46.212 966.287 Q52.6095 966.287 56.3017 963.582 Q59.9619 960.844 59.9619 956.102 Q59.9619 951.423 56.2698 948.686 Q52.5777 945.949 46.212 945.949 Q39.8781 945.949 36.186 948.686 Q32.4621 951.423 32.4621 956.102 M27.4968 956.102 Q27.4968 948.463 32.4621 944.103 Q37.4273 939.742 46.212 939.742 Q54.9649 939.742 59.9619 944.103 Q64.9272 948.463 64.9272 956.102 Q64.9272 963.773 59.9619 968.133 Q54.9649 972.462 46.212 972.462 Q37.4273 972.462 32.4621 968.133 Q27.4968 963.773 27.4968 956.102 Z" fill="#000000" fill-rule="nonzero" fill-opacity="1" /><path clip-path="url(#clip880)" d="M46.212 904.444 Q39.7508 904.444 36.0905 907.118 Q32.3984 909.76 32.3984 914.407 Q32.3984 919.054 36.0905 921.727 Q39.7508 924.369 46.212 924.369 Q52.6732 924.369 56.3653 921.727 Q60.0256 919.054 60.0256 914.407 Q60.0256 909.76 56.3653 907.118 Q52.6732 904.444 46.212 904.444 M33.7671 924.369 Q30.5842 922.523 29.0564 919.722 Q27.4968 916.889 27.4968 912.974 Q27.4968 906.481 32.6531 902.439 Q37.8093 898.365 46.212 898.365 Q54.6147 898.365 59.771 902.439 Q64.9272 906.481 64.9272 912.974 Q64.9272 916.889 63.3994 919.722 Q61.8398 922.523 58.657 924.369 L64.0042 924.369 L64.0042 930.257 L14.479 930.257 L14.479 924.369 L33.7671 924.369 Z" fill="#000000" fill-rule="nonzero" fill-opacity="1" /><path clip-path="url(#clip880)" d="M46.0847 872.457 Q46.0847 879.554 47.7079 882.292 Q49.3312 885.029 53.2461 885.029 Q56.3653 885.029 58.2114 882.992 Q60.0256 880.923 60.0256 877.39 Q60.0256 872.52 56.5881 869.592 Q53.1188 866.632 47.3897 866.632 L46.0847 866.632 L46.0847 872.457 M43.6657 860.776 L64.0042 860.776 L64.0042 866.632 L58.5933 866.632 Q61.8398 868.637 63.3994 871.629 Q64.9272 874.621 64.9272 878.95 Q64.9272 884.424 61.8716 887.671 Q58.7843 890.885 53.6281 890.885 Q47.6125 890.885 44.5569 886.875 Q41.5014 882.833 41.5014 874.844 L41.5014 866.632 L40.9285 866.632 Q36.8862 866.632 34.6901 869.306 Q32.4621 871.947 32.4621 876.753 Q32.4621 879.809 33.1941 882.705 Q33.9262 885.602 35.3903 888.275 L29.9795 888.275 Q28.7381 885.061 28.1334 882.037 Q27.4968 879.013 27.4968 876.149 Q27.4968 868.414 31.5072 864.595 Q35.5176 860.776 43.6657 860.776 Z" fill="#000000" fill-rule="nonzero" fill-opacity="1" /><path clip-path="url(#clip880)" d="M46.212 823.122 Q39.7508 823.122 36.0905 825.796 Q32.3984 828.438 32.3984 833.085 Q32.3984 837.732 36.0905 840.405 Q39.7508 843.047 46.212 843.047 Q52.6732 843.047 56.3653 840.405 Q60.0256 837.732 60.0256 833.085 Q60.0256 828.438 56.3653 825.796 Q52.6732 823.122 46.212 823.122 M33.7671 843.047 Q30.5842 841.201 29.0564 838.4 Q27.4968 835.567 27.4968 831.652 Q27.4968 825.159 32.6531 821.117 Q37.8093 817.043 46.212 817.043 Q54.6147 817.043 59.771 821.117 Q64.9272 825.159 64.9272 831.652 Q64.9272 835.567 63.3994 838.4 Q61.8398 841.201 58.657 843.047 L64.0042 843.047 L64.0042 848.935 L14.479 848.935 L14.479 843.047 L33.7671 843.047 Z" fill="#000000" fill-rule="nonzero" fill-opacity="1" /><path clip-path="url(#clip880)" d="M28.3562 807.335 L28.3562 801.479 L64.0042 801.479 L64.0042 807.335 L28.3562 807.335 M14.479 807.335 L14.479 801.479 L21.895 801.479 L21.895 807.335 L14.479 807.335 Z" fill="#000000" fill-rule="nonzero" fill-opacity="1" /><path clip-path="url(#clip880)" d="M14.479 789.225 L14.479 783.369 L64.0042 783.369 L64.0042 789.225 L14.479 789.225 Z" fill="#000000" fill-rule="nonzero" fill-opacity="1" /><path clip-path="url(#clip880)" d="M28.3562 771.115 L28.3562 765.258 L64.0042 765.258 L64.0042 771.115 L28.3562 771.115 M14.479 771.115 L14.479 765.258 L21.895 765.258 L21.895 771.115 L14.479 771.115 Z" fill="#000000" fill-rule="nonzero" fill-opacity="1" /><path clip-path="url(#clip880)" d="M18.2347 747.211 L28.3562 747.211 L28.3562 735.148 L32.9077 735.148 L32.9077 747.211 L52.2594 747.211 Q56.6199 747.211 57.8613 746.034 Q59.1026 744.824 59.1026 741.164 L59.1026 735.148 L64.0042 735.148 L64.0042 741.164 Q64.0042 747.943 61.4897 750.521 Q58.9434 753.1 52.2594 753.1 L32.9077 753.1 L32.9077 757.396 L28.3562 757.396 L28.3562 753.1 L18.2347 753.1 L18.2347 747.211 Z" fill="#000000" fill-rule="nonzero" fill-opacity="1" /><path clip-path="url(#clip880)" d="M67.3143 712.614 Q73.68 715.096 75.6216 717.452 Q77.5631 719.807 77.5631 723.754 L77.5631 728.432 L72.6615 728.432 L72.6615 724.995 Q72.6615 722.576 71.5157 721.239 Q70.3699 719.902 66.1048 718.279 L63.4312 717.229 L28.3562 731.647 L28.3562 725.441 L56.238 714.301 L28.3562 703.161 L28.3562 696.954 L67.3143 712.614 Z" fill="#000000" fill-rule="nonzero" fill-opacity="1" /><path clip-path="url(#clip880)" d="M33.7671 644.692 L14.479 644.692 L14.479 638.835 L64.0042 638.835 L64.0042 644.692 L58.657 644.692 Q61.8398 646.538 63.3994 649.37 Q64.9272 652.171 64.9272 656.118 Q64.9272 662.579 59.771 666.653 Q54.6147 670.696 46.212 670.696 Q37.8093 670.696 32.6531 666.653 Q27.4968 662.579 27.4968 656.118 Q27.4968 652.171 29.0564 649.37 Q30.5842 646.538 33.7671 644.692 M46.212 664.648 Q52.6732 664.648 56.3653 662.006 Q60.0256 659.333 60.0256 654.686 Q60.0256 650.039 56.3653 647.365 Q52.6732 644.692 46.212 644.692 Q39.7508 644.692 36.0905 647.365 Q32.3984 650.039 32.3984 654.686 Q32.3984 659.333 36.0905 662.006 Q39.7508 664.648 46.212 664.648 Z" fill="#000000" fill-rule="nonzero" fill-opacity="1" /><path clip-path="url(#clip880)" d="M44.7161 596.28 L47.5806 596.28 L47.5806 623.207 Q53.6281 622.825 56.8109 619.579 Q59.9619 616.301 59.9619 610.476 Q59.9619 607.102 59.1344 603.951 Q58.3069 600.768 56.6518 597.649 L62.1899 597.649 Q63.5267 600.8 64.227 604.11 Q64.9272 607.42 64.9272 610.826 Q64.9272 619.356 59.9619 624.353 Q54.9967 629.318 46.5303 629.318 Q37.7774 629.318 32.6531 624.608 Q27.4968 619.865 27.4968 611.845 Q27.4968 604.651 32.1438 600.482 Q36.7589 596.28 44.7161 596.28 M42.9973 602.137 Q38.1912 602.201 35.3266 604.842 Q32.4621 607.452 32.4621 611.781 Q32.4621 616.683 35.2312 619.643 Q38.0002 622.571 43.0292 623.016 L42.9973 602.137 Z" fill="#000000" fill-rule="nonzero" fill-opacity="1" /><path clip-path="url(#clip880)" d="M42.4881 557.036 L64.0042 557.036 L64.0042 562.892 L42.679 562.892 Q37.6183 562.892 35.1038 564.866 Q32.5894 566.839 32.5894 570.786 Q32.5894 575.528 35.6131 578.265 Q38.6368 581.003 43.8567 581.003 L64.0042 581.003 L64.0042 586.891 L28.3562 586.891 L28.3562 581.003 L33.8944 581.003 Q30.6797 578.902 29.0883 576.069 Q27.4968 573.205 27.4968 569.481 Q27.4968 563.338 31.3163 560.187 Q35.1038 557.036 42.4881 557.036 Z" fill="#000000" fill-rule="nonzero" fill-opacity="1" /><path clip-path="url(#clip880)" d="M29.4065 522.629 L34.9447 522.629 Q33.6716 525.112 33.035 527.785 Q32.3984 530.459 32.3984 533.324 Q32.3984 537.684 33.7352 539.88 Q35.072 542.045 37.7456 542.045 Q39.7826 542.045 40.9603 540.485 Q42.1061 538.925 43.1565 534.215 L43.6021 532.21 Q44.9389 525.971 47.3897 523.361 Q49.8086 520.719 54.1691 520.719 Q59.1344 520.719 62.0308 524.666 Q64.9272 528.581 64.9272 535.456 Q64.9272 538.321 64.3543 541.44 Q63.8132 544.527 62.6992 547.965 L56.6518 547.965 Q58.3387 544.718 59.198 541.567 Q60.0256 538.416 60.0256 535.329 Q60.0256 531.191 58.6251 528.963 Q57.1929 526.735 54.6147 526.735 Q52.2276 526.735 50.9545 528.358 Q49.6813 529.95 48.5037 535.392 L48.0262 537.429 Q46.8804 542.872 44.5251 545.291 Q42.138 547.71 38.0002 547.71 Q32.9713 547.71 30.2341 544.145 Q27.4968 540.58 27.4968 534.024 Q27.4968 530.777 27.9743 527.913 Q28.4517 525.048 29.4065 522.629 Z" fill="#000000" fill-rule="nonzero" fill-opacity="1" /><path clip-path="url(#clip880)" d="M28.3562 511.394 L28.3562 505.537 L64.0042 505.537 L64.0042 511.394 L28.3562 511.394 M14.479 511.394 L14.479 505.537 L21.895 505.537 L21.895 511.394 L14.479 511.394 Z" fill="#000000" fill-rule="nonzero" fill-opacity="1" /><path clip-path="url(#clip880)" d="M18.2347 487.49 L28.3562 487.49 L28.3562 475.427 L32.9077 475.427 L32.9077 487.49 L52.2594 487.49 Q56.6199 487.49 57.8613 486.313 Q59.1026 485.103 59.1026 481.443 L59.1026 475.427 L64.0042 475.427 L64.0042 481.443 Q64.0042 488.223 61.4897 490.801 Q58.9434 493.379 52.2594 493.379 L32.9077 493.379 L32.9077 497.676 L28.3562 497.676 L28.3562 493.379 L18.2347 493.379 L18.2347 487.49 Z" fill="#000000" fill-rule="nonzero" fill-opacity="1" /><path clip-path="url(#clip880)" d="M67.3143 452.893 Q73.68 455.376 75.6216 457.731 Q77.5631 460.086 77.5631 464.033 L77.5631 468.712 L72.6615 468.712 L72.6615 465.274 Q72.6615 462.855 71.5157 461.518 Q70.3699 460.182 66.1048 458.558 L63.4312 457.508 L28.3562 471.926 L28.3562 465.72 L56.238 454.58 L28.3562 443.44 L28.3562 437.233 L67.3143 452.893 Z" fill="#000000" fill-rule="nonzero" fill-opacity="1" /><polyline clip-path="url(#clip882)" style="stroke:#009af9; stroke-linecap:round; stroke-linejoin:round; stroke-width:4; stroke-opacity:1; fill:none" points="263.091,1384.21 284.225,1384.22 305.358,1384.2 347.625,1384.23 368.758,1384.23 643.492,1384.23 664.625,1384.22 685.758,1384.2 706.892,1384.19 728.025,1384.23 749.158,1384.2 770.292,1384.23 791.425,1384.2 833.692,1384.12 854.825,1384.15 875.958,1384.17 897.092,1384.18 918.225,1384.13 939.358,1383.88 960.492,1383.86 981.625,1383.97 1002.76,1384.01 1023.89,1383.86 1045.02,1383.56 1066.16,1383.89 1087.29,1383.73 1108.42,1383.43 1129.56,1383.1 1150.69,1383.21 1171.83,1382.91 1192.96,1382.81 1214.09,1382.79 1235.23,1381.78 1256.36,1381.86 1277.49,1380.9 1298.63,1379.72 1319.76,1379.21 1340.89,1378.58 1362.03,1376.77 1383.16,1374.66 1404.29,1370.13 1425.43,1367.08 1446.56,1363.33 1467.69,1357.68 1488.83,1349.64 1509.96,1340.75 1531.09,1324.67 1552.23,1305.24 1573.36,1274.24 1594.49,1249.13 1615.63,1259.49 1636.76,1273.95 1657.89,1256.49 1679.03,1221.16 1700.16,1186.52 1721.29,1177.61 1742.43,1143.84 1763.56,1100.85 1784.69,1080.15 1805.83,1132.19 1826.96,1104.85 1848.09,1092.37 1869.23,1079.79 1890.36,1053.79 1911.49,1014.64 1932.63,1005.37 1953.76,1036.85 1974.89,1059.02 1996.03,1102.76 2017.16,1211.4 2038.29,1249.65 2059.43,1268.87 2080.56,1296.26 2101.69,1334.84 2122.83,1353.38 2143.96,1367 2165.09,1374.1 2186.23,1378.04 2207.36,1379.59 2228.49,1383.08 2249.63,1383.9 2270.76,1384.15 2291.89,1384.18 "/>
<polyline clip-path="url(#clip882)" style="stroke:#e26f46; stroke-linecap:round; stroke-linejoin:round; stroke-width:4; stroke-opacity:1; fill:none" points="263.091,1384.22 284.225,1384.22 305.358,1384.22 347.625,1384.21 368.758,1384.2 643.492,1383.93 664.625,1383.88 685.758,1383.81 706.892,1383.73 728.025,1383.64 749.158,1383.54 770.292,1383.41 791.425,1383.27 833.692,1382.89 854.825,1382.65 875.958,1382.37 897.092,1382.05 918.225,1381.66 939.358,1381.2 960.492,1380.67 981.625,1380.04 1002.76,1379.31 1023.89,1378.44 1045.02,1377.43 1066.16,1376.24 1087.29,1374.85 1108.42,1373.22 1129.56,1371.31 1150.69,1369.08 1171.83,1366.47 1192.96,1363.41 1214.09,1359.85 1235.23,1355.7 1256.36,1350.85 1277.49,1345.21 1298.63,1338.65 1319.76,1331.02 1340.89,1322.16 1362.03,1311.9 1383.16,1300.02 1404.29,1286.3 1425.43,1270.47 1446.56,1252.26 1467.69,1231.34 1488.83,1207.37 1509.96,1180.01 1531.09,1148.85 1552.23,1113.51 1573.36,1073.59 1594.49,1028.72 1615.63,978.555 1636.76,922.829 1657.89,861.387 1679.03,794.237 1700.16,721.616 1721.29,644.065 1742.43,562.529 1763.56,478.45 1784.69,393.887 1805.83,311.613 1826.96,235.198 1848.09,169.042 1869.23,118.309 1890.36,88.7294 1911.49,86.1857 1932.63,116.047 1953.76,182.207 1974.89,285.87 1996.03,424.259 2017.16,589.6 2038.29,768.954 2059.43,945.519 2080.56,1101.78 2101.69,1224.04 2122.83,1306.62 2143.96,1353.29 2165.09,1374.53 2186.23,1381.96 2207.36,1383.86 2228.49,1384.2 2249.63,1384.24 2270.76,1384.24 2291.89,1384.24 "/>
<path clip-path="url(#clip880)" d="M273.912 248.629 L823.268 248.629 L823.268 93.1086 L273.912 93.1086  Z" fill="#ffffff" fill-rule="evenodd" fill-opacity="1"/>
<polyline clip-path="url(#clip880)" style="stroke:#ffffff; stroke-linecap:round; stroke-linejoin:round; stroke-width:4; stroke-opacity:1; fill:none" points="273.912,248.629 823.268,248.629 823.268,93.1086 273.912,93.1086 273.912,248.629 "/>
<polyline clip-path="url(#clip880)" style="stroke:#009af9; stroke-linecap:round; stroke-linejoin:round; stroke-width:4; stroke-opacity:1; fill:none" points="297.807,144.949 441.175,144.949 "/>
<path clip-path="url(#clip880)" d="M465.07 127.669 L469.746 127.669 L469.746 141.835 L486.736 141.835 L486.736 127.669 L491.412 127.669 L491.412 162.229 L486.736 162.229 L486.736 145.77 L469.746 145.77 L469.746 162.229 L465.07 162.229 L465.07 127.669 Z" fill="#000000" fill-rule="nonzero" fill-opacity="1" /><path clip-path="url(#clip880)" d="M500.533 136.303 L504.792 136.303 L504.792 162.229 L500.533 162.229 L500.533 136.303 M500.533 126.21 L504.792 126.21 L504.792 131.604 L500.533 131.604 L500.533 126.21 Z" fill="#000000" fill-rule="nonzero" fill-opacity="1" /><path clip-path="url(#clip880)" d="M530.232 137.067 L530.232 141.094 Q528.426 140.169 526.482 139.706 Q524.537 139.243 522.454 139.243 Q519.283 139.243 517.685 140.215 Q516.111 141.187 516.111 143.131 Q516.111 144.613 517.245 145.469 Q518.38 146.303 521.806 147.067 L523.264 147.391 Q527.801 148.363 529.699 150.145 Q531.62 151.905 531.62 155.076 Q531.62 158.687 528.75 160.793 Q525.903 162.9 520.903 162.9 Q518.82 162.9 516.551 162.483 Q514.306 162.09 511.806 161.28 L511.806 156.881 Q514.167 158.108 516.458 158.733 Q518.75 159.335 520.995 159.335 Q524.005 159.335 525.625 158.317 Q527.245 157.275 527.245 155.4 Q527.245 153.664 526.065 152.738 Q524.907 151.812 520.949 150.956 L519.468 150.608 Q515.509 149.775 513.75 148.062 Q511.991 146.326 511.991 143.317 Q511.991 139.659 514.583 137.669 Q517.176 135.678 521.945 135.678 Q524.306 135.678 526.389 136.025 Q528.472 136.372 530.232 137.067 Z" fill="#000000" fill-rule="nonzero" fill-opacity="1" /><path clip-path="url(#clip880)" d="M542.616 128.942 L542.616 136.303 L551.389 136.303 L551.389 139.613 L542.616 139.613 L542.616 153.687 Q542.616 156.858 543.472 157.761 Q544.352 158.664 547.014 158.664 L551.389 158.664 L551.389 162.229 L547.014 162.229 Q542.083 162.229 540.208 160.4 Q538.333 158.548 538.333 153.687 L538.333 139.613 L535.208 139.613 L535.208 136.303 L538.333 136.303 L538.333 128.942 L542.616 128.942 Z" fill="#000000" fill-rule="nonzero" fill-opacity="1" /><path clip-path="url(#clip880)" d="M567.037 139.289 Q563.611 139.289 561.62 141.974 Q559.63 144.636 559.63 149.289 Q559.63 153.942 561.597 156.627 Q563.588 159.289 567.037 159.289 Q570.44 159.289 572.43 156.604 Q574.421 153.918 574.421 149.289 Q574.421 144.682 572.43 141.997 Q570.44 139.289 567.037 139.289 M567.037 135.678 Q572.592 135.678 575.764 139.289 Q578.935 142.9 578.935 149.289 Q578.935 155.655 575.764 159.289 Q572.592 162.9 567.037 162.9 Q561.458 162.9 558.287 159.289 Q555.139 155.655 555.139 149.289 Q555.139 142.9 558.287 139.289 Q561.458 135.678 567.037 135.678 Z" fill="#000000" fill-rule="nonzero" fill-opacity="1" /><path clip-path="url(#clip880)" d="M603.055 148.965 Q603.055 144.335 601.134 141.789 Q599.236 139.243 595.787 139.243 Q592.361 139.243 590.44 141.789 Q588.541 144.335 588.541 148.965 Q588.541 153.571 590.44 156.118 Q592.361 158.664 595.787 158.664 Q599.236 158.664 601.134 156.118 Q603.055 153.571 603.055 148.965 M607.314 159.011 Q607.314 165.631 604.375 168.849 Q601.435 172.09 595.37 172.09 Q593.125 172.09 591.134 171.742 Q589.143 171.418 587.268 170.724 L587.268 166.58 Q589.143 167.599 590.972 168.085 Q592.801 168.571 594.699 168.571 Q598.889 168.571 600.972 166.372 Q603.055 164.196 603.055 159.775 L603.055 157.668 Q601.736 159.96 599.676 161.094 Q597.615 162.229 594.745 162.229 Q589.977 162.229 587.06 158.594 Q584.143 154.96 584.143 148.965 Q584.143 142.946 587.06 139.312 Q589.977 135.678 594.745 135.678 Q597.615 135.678 599.676 136.812 Q601.736 137.946 603.055 140.238 L603.055 136.303 L607.314 136.303 L607.314 159.011 Z" fill="#000000" fill-rule="nonzero" fill-opacity="1" /><path clip-path="url(#clip880)" d="M631.111 140.284 Q630.393 139.868 629.537 139.682 Q628.703 139.474 627.685 139.474 Q624.074 139.474 622.129 141.835 Q620.208 144.173 620.208 148.571 L620.208 162.229 L615.926 162.229 L615.926 136.303 L620.208 136.303 L620.208 140.331 Q621.55 137.969 623.703 136.835 Q625.856 135.678 628.935 135.678 Q629.375 135.678 629.907 135.747 Q630.439 135.794 631.087 135.909 L631.111 140.284 Z" fill="#000000" fill-rule="nonzero" fill-opacity="1" /><path clip-path="url(#clip880)" d="M647.361 149.196 Q642.199 149.196 640.208 150.377 Q638.217 151.557 638.217 154.405 Q638.217 156.673 639.699 158.016 Q641.203 159.335 643.773 159.335 Q647.314 159.335 649.444 156.835 Q651.597 154.312 651.597 150.145 L651.597 149.196 L647.361 149.196 M655.856 147.437 L655.856 162.229 L651.597 162.229 L651.597 158.293 Q650.138 160.655 647.962 161.789 Q645.786 162.9 642.638 162.9 Q638.657 162.9 636.296 160.678 Q633.958 158.432 633.958 154.682 Q633.958 150.307 636.874 148.085 Q639.814 145.863 645.624 145.863 L651.597 145.863 L651.597 145.446 Q651.597 142.507 649.652 140.909 Q647.731 139.289 644.236 139.289 Q642.013 139.289 639.907 139.821 Q637.8 140.354 635.856 141.419 L635.856 137.483 Q638.194 136.581 640.393 136.141 Q642.592 135.678 644.675 135.678 Q650.3 135.678 653.078 138.594 Q655.856 141.511 655.856 147.437 Z" fill="#000000" fill-rule="nonzero" fill-opacity="1" /><path clip-path="url(#clip880)" d="M684.814 141.28 Q686.411 138.409 688.633 137.044 Q690.856 135.678 693.865 135.678 Q697.916 135.678 700.115 138.525 Q702.314 141.349 702.314 146.581 L702.314 162.229 L698.032 162.229 L698.032 146.719 Q698.032 142.993 696.712 141.187 Q695.393 139.382 692.684 139.382 Q689.374 139.382 687.453 141.581 Q685.532 143.78 685.532 147.576 L685.532 162.229 L681.249 162.229 L681.249 146.719 Q681.249 142.969 679.93 141.187 Q678.61 139.382 675.856 139.382 Q672.592 139.382 670.671 141.604 Q668.749 143.803 668.749 147.576 L668.749 162.229 L664.467 162.229 L664.467 136.303 L668.749 136.303 L668.749 140.331 Q670.208 137.946 672.245 136.812 Q674.282 135.678 677.083 135.678 Q679.907 135.678 681.874 137.113 Q683.865 138.548 684.814 141.28 Z" fill="#000000" fill-rule="nonzero" fill-opacity="1" /><polyline clip-path="url(#clip880)" style="stroke:#e26f46; stroke-linecap:round; stroke-linejoin:round; stroke-width:4; stroke-opacity:1; fill:none" points="297.807,196.789 441.175,196.789 "/>
<path clip-path="url(#clip880)" d="M469.746 183.351 L469.746 210.226 L475.394 210.226 Q482.547 210.226 485.857 206.985 Q489.19 203.745 489.19 196.754 Q489.19 189.809 485.857 186.592 Q482.547 183.351 475.394 183.351 L469.746 183.351 M465.07 179.509 L474.676 179.509 Q484.723 179.509 489.422 183.698 Q494.121 187.865 494.121 196.754 Q494.121 205.689 489.398 209.879 Q484.676 214.069 474.676 214.069 L465.07 214.069 L465.07 179.509 Z" fill="#000000" fill-rule="nonzero" fill-opacity="1" /><path clip-path="url(#clip880)" d="M501.389 188.143 L505.648 188.143 L505.648 214.069 L501.389 214.069 L501.389 188.143 M501.389 178.05 L505.648 178.05 L505.648 183.444 L501.389 183.444 L501.389 178.05 Z" fill="#000000" fill-rule="nonzero" fill-opacity="1" /><path clip-path="url(#clip880)" d="M531.088 188.907 L531.088 192.934 Q529.282 192.009 527.338 191.546 Q525.394 191.083 523.31 191.083 Q520.139 191.083 518.542 192.055 Q516.968 193.027 516.968 194.971 Q516.968 196.453 518.102 197.309 Q519.236 198.143 522.662 198.907 L524.12 199.231 Q528.657 200.203 530.556 201.985 Q532.477 203.745 532.477 206.916 Q532.477 210.527 529.607 212.633 Q526.759 214.74 521.759 214.74 Q519.676 214.74 517.408 214.323 Q515.162 213.93 512.662 213.12 L512.662 208.721 Q515.023 209.948 517.315 210.573 Q519.607 211.175 521.852 211.175 Q524.861 211.175 526.482 210.157 Q528.102 209.115 528.102 207.24 Q528.102 205.504 526.921 204.578 Q525.764 203.652 521.806 202.796 L520.324 202.448 Q516.366 201.615 514.607 199.902 Q512.847 198.166 512.847 195.157 Q512.847 191.499 515.44 189.509 Q518.033 187.518 522.801 187.518 Q525.162 187.518 527.245 187.865 Q529.329 188.212 531.088 188.907 Z" fill="#000000" fill-rule="nonzero" fill-opacity="1" /><path clip-path="url(#clip880)" d="M543.472 180.782 L543.472 188.143 L552.245 188.143 L552.245 191.453 L543.472 191.453 L543.472 205.527 Q543.472 208.698 544.329 209.601 Q545.208 210.504 547.87 210.504 L552.245 210.504 L552.245 214.069 L547.87 214.069 Q542.94 214.069 541.065 212.24 Q539.19 210.388 539.19 205.527 L539.19 191.453 L536.065 191.453 L536.065 188.143 L539.19 188.143 L539.19 180.782 L543.472 180.782 Z" fill="#000000" fill-rule="nonzero" fill-opacity="1" /><path clip-path="url(#clip880)" d="M572.87 192.124 Q572.153 191.708 571.296 191.522 Q570.463 191.314 569.444 191.314 Q565.833 191.314 563.889 193.675 Q561.967 196.013 561.967 200.411 L561.967 214.069 L557.685 214.069 L557.685 188.143 L561.967 188.143 L561.967 192.171 Q563.31 189.809 565.463 188.675 Q567.616 187.518 570.694 187.518 Q571.134 187.518 571.666 187.587 Q572.199 187.634 572.847 187.749 L572.87 192.124 Z" fill="#000000" fill-rule="nonzero" fill-opacity="1" /><path clip-path="url(#clip880)" d="M577.338 188.143 L581.597 188.143 L581.597 214.069 L577.338 214.069 L577.338 188.143 M577.338 178.05 L581.597 178.05 L581.597 183.444 L577.338 183.444 L577.338 178.05 Z" fill="#000000" fill-rule="nonzero" fill-opacity="1" /><path clip-path="url(#clip880)" d="M609.12 201.129 Q609.12 196.43 607.176 193.768 Q605.254 191.083 601.875 191.083 Q598.495 191.083 596.551 193.768 Q594.629 196.43 594.629 201.129 Q594.629 205.828 596.551 208.513 Q598.495 211.175 601.875 211.175 Q605.254 211.175 607.176 208.513 Q609.12 205.828 609.12 201.129 M594.629 192.078 Q595.972 189.763 598.009 188.652 Q600.069 187.518 602.916 187.518 Q607.639 187.518 610.578 191.268 Q613.541 195.018 613.541 201.129 Q613.541 207.24 610.578 210.99 Q607.639 214.74 602.916 214.74 Q600.069 214.74 598.009 213.629 Q595.972 212.495 594.629 210.18 L594.629 214.069 L590.347 214.069 L590.347 178.05 L594.629 178.05 L594.629 192.078 Z" fill="#000000" fill-rule="nonzero" fill-opacity="1" /><path clip-path="url(#clip880)" d="M620.162 203.837 L620.162 188.143 L624.421 188.143 L624.421 203.675 Q624.421 207.356 625.856 209.208 Q627.291 211.036 630.162 211.036 Q633.611 211.036 635.601 208.837 Q637.615 206.638 637.615 202.842 L637.615 188.143 L641.874 188.143 L641.874 214.069 L637.615 214.069 L637.615 210.087 Q636.064 212.448 634.004 213.606 Q631.967 214.74 629.259 214.74 Q624.791 214.74 622.476 211.962 Q620.162 209.184 620.162 203.837 M630.879 187.518 L630.879 187.518 Z" fill="#000000" fill-rule="nonzero" fill-opacity="1" /><path clip-path="url(#clip880)" d="M654.86 180.782 L654.86 188.143 L663.634 188.143 L663.634 191.453 L654.86 191.453 L654.86 205.527 Q654.86 208.698 655.717 209.601 Q656.597 210.504 659.259 210.504 L663.634 210.504 L663.634 214.069 L659.259 214.069 Q654.328 214.069 652.453 212.24 Q650.578 210.388 650.578 205.527 L650.578 191.453 L647.453 191.453 L647.453 188.143 L650.578 188.143 L650.578 180.782 L654.86 180.782 Z" fill="#000000" fill-rule="nonzero" fill-opacity="1" /><path clip-path="url(#clip880)" d="M669.235 188.143 L673.495 188.143 L673.495 214.069 L669.235 214.069 L669.235 188.143 M669.235 178.05 L673.495 178.05 L673.495 183.444 L669.235 183.444 L669.235 178.05 Z" fill="#000000" fill-rule="nonzero" fill-opacity="1" /><path clip-path="url(#clip880)" d="M692.453 191.129 Q689.027 191.129 687.036 193.814 Q685.046 196.476 685.046 201.129 Q685.046 205.782 687.013 208.467 Q689.004 211.129 692.453 211.129 Q695.856 211.129 697.846 208.444 Q699.837 205.758 699.837 201.129 Q699.837 196.522 697.846 193.837 Q695.856 191.129 692.453 191.129 M692.453 187.518 Q698.008 187.518 701.18 191.129 Q704.351 194.74 704.351 201.129 Q704.351 207.495 701.18 211.129 Q698.008 214.74 692.453 214.74 Q686.874 214.74 683.703 211.129 Q680.555 207.495 680.555 201.129 Q680.555 194.74 683.703 191.129 Q686.874 187.518 692.453 187.518 Z" fill="#000000" fill-rule="nonzero" fill-opacity="1" /><path clip-path="url(#clip880)" d="M732.962 198.421 L732.962 214.069 L728.703 214.069 L728.703 198.559 Q728.703 194.879 727.268 193.05 Q725.832 191.222 722.962 191.222 Q719.513 191.222 717.522 193.421 Q715.531 195.62 715.531 199.416 L715.531 214.069 L711.249 214.069 L711.249 188.143 L715.531 188.143 L715.531 192.171 Q717.059 189.833 719.119 188.675 Q721.203 187.518 723.911 187.518 Q728.379 187.518 730.67 190.296 Q732.962 193.05 732.962 198.421 Z" fill="#000000" fill-rule="nonzero" fill-opacity="1" /><path clip-path="url(#clip880)" d="M769.652 178.05 L769.652 181.592 L765.577 181.592 Q763.286 181.592 762.383 182.518 Q761.503 183.444 761.503 185.851 L761.503 188.143 L768.517 188.143 L768.517 191.453 L761.503 191.453 L761.503 214.069 L757.221 214.069 L757.221 191.453 L753.147 191.453 L753.147 188.143 L757.221 188.143 L757.221 186.337 Q757.221 182.009 759.235 180.041 Q761.249 178.05 765.624 178.05 L769.652 178.05 Z" fill="#000000" fill-rule="nonzero" fill-opacity="1" /><path clip-path="url(#clip880)" d="M773.216 188.143 L777.476 188.143 L777.476 214.069 L773.216 214.069 L773.216 188.143 M773.216 178.05 L777.476 178.05 L777.476 183.444 L773.216 183.444 L773.216 178.05 Z" fill="#000000" fill-rule="nonzero" fill-opacity="1" /><path clip-path="url(#clip880)" d="M790.6 180.782 L790.6 188.143 L799.374 188.143 L799.374 191.453 L790.6 191.453 L790.6 205.527 Q790.6 208.698 791.457 209.601 Q792.337 210.504 794.999 210.504 L799.374 210.504 L799.374 214.069 L794.999 214.069 Q790.068 214.069 788.193 212.24 Q786.318 210.388 786.318 205.527 L786.318 191.453 L783.193 191.453 L783.193 188.143 L786.318 188.143 L786.318 180.782 L790.6 180.782 Z" fill="#000000" fill-rule="nonzero" fill-opacity="1" /></svg>
