<?xml version="1.0" encoding="utf-8"?>
<svg xmlns="http://www.w3.org/2000/svg" xmlns:xlink="http://www.w3.org/1999/xlink" width="600" height="400" viewBox="0 0 2400 1600">
<defs>
  <clipPath id="clip040">
    <rect x="0" y="0" width="2400" height="1600"/>
  </clipPath>
</defs>
<path clip-path="url(#clip040)" d="M0 1600 L2400 1600 L2400 8.88178e-14 L0 8.88178e-14  Z" fill="#ffffff" fill-rule="evenodd" fill-opacity="1"/>
<defs>
  <clipPath id="clip041">
    <rect x="480" y="0" width="1681" height="1600"/>
  </clipPath>
</defs>
<path clip-path="url(#clip040)" d="M279.519 1552.76 L2352.76 1552.76 L2352.76 47.2441 L279.519 47.2441  Z" fill="#ffffff" fill-rule="evenodd" fill-opacity="1"/>
<defs>
  <clipPath id="clip042">
    <rect x="279" y="47" width="2074" height="1507"/>
  </clipPath>
</defs>
<polyline clip-path="url(#clip042)" style="stroke:#000000; stroke-linecap:round; stroke-linejoin:round; stroke-width:2; stroke-opacity:0.1; fill:none" points="279.519,1439.94 2352.76,1439.94 "/>
<polyline clip-path="url(#clip042)" style="stroke:#000000; stroke-linecap:round; stroke-linejoin:round; stroke-width:2; stroke-opacity:0.1; fill:none" points="279.519,1169.92 2352.76,1169.92 "/>
<polyline clip-path="url(#clip042)" style="stroke:#000000; stroke-linecap:round; stroke-linejoin:round; stroke-width:2; stroke-opacity:0.1; fill:none" points="279.519,899.907 2352.76,899.907 "/>
<polyline clip-path="url(#clip042)" style="stroke:#000000; stroke-linecap:round; stroke-linejoin:round; stroke-width:2; stroke-opacity:0.1; fill:none" points="279.519,629.889 2352.76,629.889 "/>
<polyline clip-path="url(#clip042)" style="stroke:#000000; stroke-linecap:round; stroke-linejoin:round; stroke-width:2; stroke-opacity:0.1; fill:none" points="279.519,359.871 2352.76,359.871 "/>
<polyline clip-path="url(#clip042)" style="stroke:#000000; stroke-linecap:round; stroke-linejoin:round; stroke-width:2; stroke-opacity:0.1; fill:none" points="279.519,89.8529 2352.76,89.8529 "/>
<polyline clip-path="url(#clip042)" style="stroke:#000000; stroke-linecap:round; stroke-linejoin:round; stroke-width:2; stroke-opacity:0.1; fill:none" points="279.519,1439.94 2352.76,1439.94 "/>
<polyline clip-path="url(#clip042)" style="stroke:#000000; stroke-linecap:round; stroke-linejoin:round; stroke-width:2; stroke-opacity:0.1; fill:none" points="279.519,1169.92 2352.76,1169.92 "/>
<polyline clip-path="url(#clip042)" style="stroke:#000000; stroke-linecap:round; stroke-linejoin:round; stroke-width:2; stroke-opacity:0.1; fill:none" points="279.519,899.907 2352.76,899.907 "/>
<polyline clip-path="url(#clip042)" style="stroke:#000000; stroke-linecap:round; stroke-linejoin:round; stroke-width:2; stroke-opacity:0.1; fill:none" points="279.519,629.889 2352.76,629.889 "/>
<polyline clip-path="url(#clip042)" style="stroke:#000000; stroke-linecap:round; stroke-linejoin:round; stroke-width:2; stroke-opacity:0.1; fill:none" points="279.519,359.871 2352.76,359.871 "/>
<polyline clip-path="url(#clip042)" style="stroke:#000000; stroke-linecap:round; stroke-linejoin:round; stroke-width:2; stroke-opacity:0.1; fill:none" points="279.519,89.8529 2352.76,89.8529 "/>
<polyline clip-path="url(#clip040)" style="stroke:#000000; stroke-linecap:round; stroke-linejoin:round; stroke-width:4; stroke-opacity:1; fill:none" points="279.519,1552.76 2352.76,1552.76 "/>
<polyline clip-path="url(#clip040)" style="stroke:#000000; stroke-linecap:round; stroke-linejoin:round; stroke-width:4; stroke-opacity:1; fill:none" points="279.519,47.2441 2352.76,47.2441 "/>
<polyline clip-path="url(#clip040)" style="stroke:#000000; stroke-linecap:round; stroke-linejoin:round; stroke-width:4; stroke-opacity:1; fill:none" points="279.519,1552.76 279.519,47.2441 "/>
<polyline clip-path="url(#clip040)" style="stroke:#000000; stroke-linecap:round; stroke-linejoin:round; stroke-width:4; stroke-opacity:1; fill:none" points="2352.76,1552.76 2352.76,47.2441 "/>
<polyline clip-path="url(#clip040)" style="stroke:#000000; stroke-linecap:round; stroke-linejoin:round; stroke-width:4; stroke-opacity:1; fill:none" points="279.519,1439.94 298.416,1439.94 "/>
<polyline clip-path="url(#clip040)" style="stroke:#000000; stroke-linecap:round; stroke-linejoin:round; stroke-width:4; stroke-opacity:1; fill:none" points="279.519,1169.92 298.416,1169.92 "/>
<polyline clip-path="url(#clip040)" style="stroke:#000000; stroke-linecap:round; stroke-linejoin:round; stroke-width:4; stroke-opacity:1; fill:none" points="279.519,899.907 298.416,899.907 "/>
<polyline clip-path="url(#clip040)" style="stroke:#000000; stroke-linecap:round; stroke-linejoin:round; stroke-width:4; stroke-opacity:1; fill:none" points="279.519,629.889 298.416,629.889 "/>
<polyline clip-path="url(#clip040)" style="stroke:#000000; stroke-linecap:round; stroke-linejoin:round; stroke-width:4; stroke-opacity:1; fill:none" points="279.519,359.871 298.416,359.871 "/>
<polyline clip-path="url(#clip040)" style="stroke:#000000; stroke-linecap:round; stroke-linejoin:round; stroke-width:4; stroke-opacity:1; fill:none" points="279.519,89.8529 298.416,89.8529 "/>
<polyline clip-path="url(#clip040)" style="stroke:#000000; stroke-linecap:round; stroke-linejoin:round; stroke-width:4; stroke-opacity:1; fill:none" points="2352.76,1439.94 2333.86,1439.94 "/>
<polyline clip-path="url(#clip040)" style="stroke:#000000; stroke-linecap:round; stroke-linejoin:round; stroke-width:4; stroke-opacity:1; fill:none" points="2352.76,1169.92 2333.86,1169.92 "/>
<polyline clip-path="url(#clip040)" style="stroke:#000000; stroke-linecap:round; stroke-linejoin:round; stroke-width:4; stroke-opacity:1; fill:none" points="2352.76,899.907 2333.86,899.907 "/>
<polyline clip-path="url(#clip040)" style="stroke:#000000; stroke-linecap:round; stroke-linejoin:round; stroke-width:4; stroke-opacity:1; fill:none" points="2352.76,629.889 2333.86,629.889 "/>
<polyline clip-path="url(#clip040)" style="stroke:#000000; stroke-linecap:round; stroke-linejoin:round; stroke-width:4; stroke-opacity:1; fill:none" points="2352.76,359.871 2333.86,359.871 "/>
<polyline clip-path="url(#clip040)" style="stroke:#000000; stroke-linecap:round; stroke-linejoin:round; stroke-width:4; stroke-opacity:1; fill:none" points="2352.76,89.8529 2333.86,89.8529 "/>
<path clip-path="url(#clip040)" d="M127.593 1438.08 Q124.445 1438.08 122.593 1440.23 Q120.765 1442.38 120.765 1446.13 Q120.765 1449.86 122.593 1452.04 Q124.445 1454.19 127.593 1454.19 Q130.742 1454.19 132.57 1452.04 Q134.422 1449.86 134.422 1446.13 Q134.422 1442.38 132.57 1440.23 Q130.742 1438.08 127.593 1438.08 M136.876 1423.43 L136.876 1427.69 Q135.117 1426.85 133.311 1426.41 Q131.529 1425.97 129.769 1425.97 Q125.14 1425.97 122.686 1429.1 Q120.255 1432.22 119.908 1438.54 Q121.274 1436.53 123.334 1435.46 Q125.394 1434.38 127.871 1434.38 Q133.08 1434.38 136.089 1437.55 Q139.121 1440.69 139.121 1446.13 Q139.121 1451.46 135.973 1454.68 Q132.825 1457.89 127.593 1457.89 Q121.598 1457.89 118.427 1453.31 Q115.256 1448.7 115.256 1439.98 Q115.256 1431.78 119.144 1426.92 Q123.033 1422.04 129.584 1422.04 Q131.343 1422.04 133.126 1422.38 Q134.931 1422.73 136.876 1423.43 Z" fill="#000000" fill-rule="nonzero" fill-opacity="1" /><path clip-path="url(#clip040)" d="M147.223 1422.66 L165.579 1422.66 L165.579 1426.6 L151.505 1426.6 L151.505 1435.07 Q152.524 1434.72 153.542 1434.56 Q154.561 1434.38 155.579 1434.38 Q161.366 1434.38 164.746 1437.55 Q168.126 1440.72 168.126 1446.13 Q168.126 1451.71 164.653 1454.82 Q161.181 1457.89 154.862 1457.89 Q152.686 1457.89 150.417 1457.52 Q148.172 1457.15 145.765 1456.41 L145.765 1451.71 Q147.848 1452.85 150.07 1453.4 Q152.292 1453.96 154.769 1453.96 Q158.774 1453.96 161.112 1451.85 Q163.45 1449.75 163.45 1446.13 Q163.45 1442.52 161.112 1440.42 Q158.774 1438.31 154.769 1438.31 Q152.894 1438.31 151.019 1438.73 Q149.167 1439.14 147.223 1440.02 L147.223 1422.66 Z" fill="#000000" fill-rule="nonzero" fill-opacity="1" /><path clip-path="url(#clip040)" d="M177.339 1451.34 L182.223 1451.34 L182.223 1457.22 L177.339 1457.22 L177.339 1451.34 Z" fill="#000000" fill-rule="nonzero" fill-opacity="1" /><path clip-path="url(#clip040)" d="M192.454 1422.66 L210.811 1422.66 L210.811 1426.6 L196.737 1426.6 L196.737 1435.07 Q197.755 1434.72 198.774 1434.56 Q199.792 1434.38 200.811 1434.38 Q206.598 1434.38 209.977 1437.55 Q213.357 1440.72 213.357 1446.13 Q213.357 1451.71 209.885 1454.82 Q206.412 1457.89 200.093 1457.89 Q197.917 1457.89 195.649 1457.52 Q193.403 1457.15 190.996 1456.41 L190.996 1451.71 Q193.079 1452.85 195.301 1453.4 Q197.524 1453.96 200 1453.96 Q204.005 1453.96 206.343 1451.85 Q208.681 1449.75 208.681 1446.13 Q208.681 1442.52 206.343 1440.42 Q204.005 1438.31 200 1438.31 Q198.125 1438.31 196.25 1438.73 Q194.399 1439.14 192.454 1440.02 L192.454 1422.66 Z" fill="#000000" fill-rule="nonzero" fill-opacity="1" /><path clip-path="url(#clip040)" d="M222.616 1422.66 L240.972 1422.66 L240.972 1426.6 L226.898 1426.6 L226.898 1435.07 Q227.917 1434.72 228.935 1434.56 Q229.954 1434.38 230.972 1434.38 Q236.76 1434.38 240.139 1437.55 Q243.519 1440.72 243.519 1446.13 Q243.519 1451.71 240.047 1454.82 Q236.574 1457.89 230.255 1457.89 Q228.079 1457.89 225.81 1457.52 Q223.565 1457.15 221.158 1456.41 L221.158 1451.71 Q223.241 1452.85 225.463 1453.4 Q227.685 1453.96 230.162 1453.96 Q234.167 1453.96 236.505 1451.85 Q238.843 1449.75 238.843 1446.13 Q238.843 1442.52 236.505 1440.42 Q234.167 1438.31 230.162 1438.31 Q228.287 1438.31 226.412 1438.73 Q224.56 1439.14 222.616 1440.02 L222.616 1422.66 Z" fill="#000000" fill-rule="nonzero" fill-opacity="1" /><path clip-path="url(#clip040)" d="M126.598 1168.06 Q123.45 1168.06 121.598 1170.21 Q119.769 1172.37 119.769 1176.12 Q119.769 1179.84 121.598 1182.02 Q123.45 1184.17 126.598 1184.17 Q129.746 1184.17 131.575 1182.02 Q133.427 1179.84 133.427 1176.12 Q133.427 1172.37 131.575 1170.21 Q129.746 1168.06 126.598 1168.06 M135.88 1153.41 L135.88 1157.67 Q134.121 1156.83 132.316 1156.39 Q130.533 1155.95 128.774 1155.95 Q124.144 1155.95 121.691 1159.08 Q119.26 1162.2 118.913 1168.52 Q120.279 1166.51 122.339 1165.45 Q124.399 1164.36 126.876 1164.36 Q132.084 1164.36 135.093 1167.53 Q138.126 1170.68 138.126 1176.12 Q138.126 1181.44 134.978 1184.66 Q131.83 1187.88 126.598 1187.88 Q120.603 1187.88 117.431 1183.29 Q114.26 1178.69 114.26 1169.96 Q114.26 1161.76 118.149 1156.9 Q122.038 1152.02 128.589 1152.02 Q130.348 1152.02 132.13 1152.37 Q133.936 1152.71 135.88 1153.41 Z" fill="#000000" fill-rule="nonzero" fill-opacity="1" /><path clip-path="url(#clip040)" d="M146.228 1152.64 L164.584 1152.64 L164.584 1156.58 L150.51 1156.58 L150.51 1165.05 Q151.528 1164.7 152.547 1164.54 Q153.566 1164.36 154.584 1164.36 Q160.371 1164.36 163.751 1167.53 Q167.13 1170.7 167.13 1176.12 Q167.13 1181.7 163.658 1184.8 Q160.186 1187.88 153.866 1187.88 Q151.691 1187.88 149.422 1187.51 Q147.177 1187.14 144.769 1186.39 L144.769 1181.7 Q146.853 1182.83 149.075 1183.39 Q151.297 1183.94 153.774 1183.94 Q157.778 1183.94 160.116 1181.83 Q162.454 1179.73 162.454 1176.12 Q162.454 1172.51 160.116 1170.4 Q157.778 1168.29 153.774 1168.29 Q151.899 1168.29 150.024 1168.71 Q148.172 1169.13 146.228 1170.01 L146.228 1152.64 Z" fill="#000000" fill-rule="nonzero" fill-opacity="1" /><path clip-path="url(#clip040)" d="M176.343 1181.32 L181.227 1181.32 L181.227 1187.2 L176.343 1187.2 L176.343 1181.32 Z" fill="#000000" fill-rule="nonzero" fill-opacity="1" /><path clip-path="url(#clip040)" d="M201.991 1168.06 Q198.843 1168.06 196.991 1170.21 Q195.163 1172.37 195.163 1176.12 Q195.163 1179.84 196.991 1182.02 Q198.843 1184.17 201.991 1184.17 Q205.139 1184.17 206.968 1182.02 Q208.82 1179.84 208.82 1176.12 Q208.82 1172.37 206.968 1170.21 Q205.139 1168.06 201.991 1168.06 M211.274 1153.41 L211.274 1157.67 Q209.514 1156.83 207.709 1156.39 Q205.926 1155.95 204.167 1155.95 Q199.537 1155.95 197.084 1159.08 Q194.653 1162.2 194.306 1168.52 Q195.672 1166.51 197.732 1165.45 Q199.792 1164.36 202.269 1164.36 Q207.477 1164.36 210.486 1167.53 Q213.519 1170.68 213.519 1176.12 Q213.519 1181.44 210.371 1184.66 Q207.223 1187.88 201.991 1187.88 Q195.996 1187.88 192.825 1183.29 Q189.653 1178.69 189.653 1169.96 Q189.653 1161.76 193.542 1156.9 Q197.431 1152.02 203.982 1152.02 Q205.741 1152.02 207.524 1152.37 Q209.329 1152.71 211.274 1153.41 Z" fill="#000000" fill-rule="nonzero" fill-opacity="1" /><path clip-path="url(#clip040)" d="M231.574 1155.72 Q227.963 1155.72 226.135 1159.29 Q224.329 1162.83 224.329 1169.96 Q224.329 1177.07 226.135 1180.63 Q227.963 1184.17 231.574 1184.17 Q235.209 1184.17 237.014 1180.63 Q238.843 1177.07 238.843 1169.96 Q238.843 1162.83 237.014 1159.29 Q235.209 1155.72 231.574 1155.72 M231.574 1152.02 Q237.384 1152.02 240.44 1156.63 Q243.519 1161.21 243.519 1169.96 Q243.519 1178.69 240.44 1183.29 Q237.384 1187.88 231.574 1187.88 Q225.764 1187.88 222.686 1183.29 Q219.63 1178.69 219.63 1169.96 Q219.63 1161.21 222.686 1156.63 Q225.764 1152.02 231.574 1152.02 Z" fill="#000000" fill-rule="nonzero" fill-opacity="1" /><path clip-path="url(#clip040)" d="M127.593 898.043 Q124.445 898.043 122.593 900.196 Q120.765 902.349 120.765 906.099 Q120.765 909.826 122.593 912.001 Q124.445 914.154 127.593 914.154 Q130.742 914.154 132.57 912.001 Q134.422 909.826 134.422 906.099 Q134.422 902.349 132.57 900.196 Q130.742 898.043 127.593 898.043 M136.876 883.391 L136.876 887.65 Q135.117 886.816 133.311 886.377 Q131.529 885.937 129.769 885.937 Q125.14 885.937 122.686 889.062 Q120.255 892.187 119.908 898.506 Q121.274 896.492 123.334 895.427 Q125.394 894.34 127.871 894.34 Q133.08 894.34 136.089 897.511 Q139.121 900.659 139.121 906.099 Q139.121 911.423 135.973 914.64 Q132.825 917.858 127.593 917.858 Q121.598 917.858 118.427 913.275 Q115.256 908.668 115.256 899.941 Q115.256 891.747 119.144 886.886 Q123.033 882.002 129.584 882.002 Q131.343 882.002 133.126 882.349 Q134.931 882.696 136.876 883.391 Z" fill="#000000" fill-rule="nonzero" fill-opacity="1" /><path clip-path="url(#clip040)" d="M147.223 882.627 L165.579 882.627 L165.579 886.562 L151.505 886.562 L151.505 895.034 Q152.524 894.687 153.542 894.525 Q154.561 894.34 155.579 894.34 Q161.366 894.34 164.746 897.511 Q168.126 900.682 168.126 906.099 Q168.126 911.677 164.653 914.779 Q161.181 917.858 154.862 917.858 Q152.686 917.858 150.417 917.488 Q148.172 917.117 145.765 916.376 L145.765 911.677 Q147.848 912.812 150.07 913.367 Q152.292 913.923 154.769 913.923 Q158.774 913.923 161.112 911.816 Q163.45 909.71 163.45 906.099 Q163.45 902.488 161.112 900.381 Q158.774 898.275 154.769 898.275 Q152.894 898.275 151.019 898.691 Q149.167 899.108 147.223 899.988 L147.223 882.627 Z" fill="#000000" fill-rule="nonzero" fill-opacity="1" /><path clip-path="url(#clip040)" d="M177.339 911.307 L182.223 911.307 L182.223 917.187 L177.339 917.187 L177.339 911.307 Z" fill="#000000" fill-rule="nonzero" fill-opacity="1" /><path clip-path="url(#clip040)" d="M202.987 898.043 Q199.838 898.043 197.987 900.196 Q196.158 902.349 196.158 906.099 Q196.158 909.826 197.987 912.001 Q199.838 914.154 202.987 914.154 Q206.135 914.154 207.963 912.001 Q209.815 909.826 209.815 906.099 Q209.815 902.349 207.963 900.196 Q206.135 898.043 202.987 898.043 M212.269 883.391 L212.269 887.65 Q210.51 886.816 208.704 886.377 Q206.922 885.937 205.162 885.937 Q200.533 885.937 198.079 889.062 Q195.649 892.187 195.301 898.506 Q196.667 896.492 198.727 895.427 Q200.787 894.34 203.264 894.34 Q208.473 894.34 211.482 897.511 Q214.514 900.659 214.514 906.099 Q214.514 911.423 211.366 914.64 Q208.218 917.858 202.987 917.858 Q196.991 917.858 193.82 913.275 Q190.649 908.668 190.649 899.941 Q190.649 891.747 194.538 886.886 Q198.426 882.002 204.977 882.002 Q206.737 882.002 208.519 882.349 Q210.324 882.696 212.269 883.391 Z" fill="#000000" fill-rule="nonzero" fill-opacity="1" /><path clip-path="url(#clip040)" d="M222.616 882.627 L240.972 882.627 L240.972 886.562 L226.898 886.562 L226.898 895.034 Q227.917 894.687 228.935 894.525 Q229.954 894.34 230.972 894.34 Q236.76 894.34 240.139 897.511 Q243.519 900.682 243.519 906.099 Q243.519 911.677 240.047 914.779 Q236.574 917.858 230.255 917.858 Q228.079 917.858 225.81 917.488 Q223.565 917.117 221.158 916.376 L221.158 911.677 Q223.241 912.812 225.463 913.367 Q227.685 913.923 230.162 913.923 Q234.167 913.923 236.505 911.816 Q238.843 909.71 238.843 906.099 Q238.843 902.488 236.505 900.381 Q234.167 898.275 230.162 898.275 Q228.287 898.275 226.412 898.691 Q224.56 899.108 222.616 899.988 L222.616 882.627 Z" fill="#000000" fill-rule="nonzero" fill-opacity="1" /><path clip-path="url(#clip040)" d="M126.598 628.025 Q123.45 628.025 121.598 630.178 Q119.769 632.331 119.769 636.081 Q119.769 639.808 121.598 641.984 Q123.45 644.136 126.598 644.136 Q129.746 644.136 131.575 641.984 Q133.427 639.808 133.427 636.081 Q133.427 632.331 131.575 630.178 Q129.746 628.025 126.598 628.025 M135.88 613.373 L135.88 617.632 Q134.121 616.799 132.316 616.359 Q130.533 615.919 128.774 615.919 Q124.144 615.919 121.691 619.044 Q119.26 622.169 118.913 628.488 Q120.279 626.474 122.339 625.41 Q124.399 624.322 126.876 624.322 Q132.084 624.322 135.093 627.493 Q138.126 630.641 138.126 636.081 Q138.126 641.405 134.978 644.622 Q131.83 647.84 126.598 647.84 Q120.603 647.84 117.431 643.257 Q114.26 638.65 114.26 629.923 Q114.26 621.729 118.149 616.868 Q122.038 611.984 128.589 611.984 Q130.348 611.984 132.13 612.331 Q133.936 612.678 135.88 613.373 Z" fill="#000000" fill-rule="nonzero" fill-opacity="1" /><path clip-path="url(#clip040)" d="M146.228 612.609 L164.584 612.609 L164.584 616.544 L150.51 616.544 L150.51 625.016 Q151.528 624.669 152.547 624.507 Q153.566 624.322 154.584 624.322 Q160.371 624.322 163.751 627.493 Q167.13 630.664 167.13 636.081 Q167.13 641.659 163.658 644.761 Q160.186 647.84 153.866 647.84 Q151.691 647.84 149.422 647.47 Q147.177 647.099 144.769 646.359 L144.769 641.659 Q146.853 642.794 149.075 643.349 Q151.297 643.905 153.774 643.905 Q157.778 643.905 160.116 641.798 Q162.454 639.692 162.454 636.081 Q162.454 632.47 160.116 630.363 Q157.778 628.257 153.774 628.257 Q151.899 628.257 150.024 628.673 Q148.172 629.09 146.228 629.97 L146.228 612.609 Z" fill="#000000" fill-rule="nonzero" fill-opacity="1" /><path clip-path="url(#clip040)" d="M176.343 641.289 L181.227 641.289 L181.227 647.169 L176.343 647.169 L176.343 641.289 Z" fill="#000000" fill-rule="nonzero" fill-opacity="1" /><path clip-path="url(#clip040)" d="M190.232 612.609 L212.454 612.609 L212.454 614.599 L199.908 647.169 L195.024 647.169 L206.829 616.544 L190.232 616.544 L190.232 612.609 Z" fill="#000000" fill-rule="nonzero" fill-opacity="1" /><path clip-path="url(#clip040)" d="M231.574 615.687 Q227.963 615.687 226.135 619.252 Q224.329 622.794 224.329 629.923 Q224.329 637.03 226.135 640.595 Q227.963 644.136 231.574 644.136 Q235.209 644.136 237.014 640.595 Q238.843 637.03 238.843 629.923 Q238.843 622.794 237.014 619.252 Q235.209 615.687 231.574 615.687 M231.574 611.984 Q237.384 611.984 240.44 616.59 Q243.519 621.173 243.519 629.923 Q243.519 638.65 240.44 643.257 Q237.384 647.84 231.574 647.84 Q225.764 647.84 222.686 643.257 Q219.63 638.65 219.63 629.923 Q219.63 621.173 222.686 616.59 Q225.764 611.984 231.574 611.984 Z" fill="#000000" fill-rule="nonzero" fill-opacity="1" /><path clip-path="url(#clip040)" d="M127.593 358.007 Q124.445 358.007 122.593 360.16 Q120.765 362.313 120.765 366.063 Q120.765 369.79 122.593 371.966 Q124.445 374.118 127.593 374.118 Q130.742 374.118 132.57 371.966 Q134.422 369.79 134.422 366.063 Q134.422 362.313 132.57 360.16 Q130.742 358.007 127.593 358.007 M136.876 343.355 L136.876 347.614 Q135.117 346.781 133.311 346.341 Q131.529 345.901 129.769 345.901 Q125.14 345.901 122.686 349.026 Q120.255 352.151 119.908 358.47 Q121.274 356.456 123.334 355.392 Q125.394 354.304 127.871 354.304 Q133.08 354.304 136.089 357.475 Q139.121 360.623 139.121 366.063 Q139.121 371.387 135.973 374.605 Q132.825 377.822 127.593 377.822 Q121.598 377.822 118.427 373.239 Q115.256 368.632 115.256 359.906 Q115.256 351.711 119.144 346.85 Q123.033 341.966 129.584 341.966 Q131.343 341.966 133.126 342.313 Q134.931 342.66 136.876 343.355 Z" fill="#000000" fill-rule="nonzero" fill-opacity="1" /><path clip-path="url(#clip040)" d="M147.223 342.591 L165.579 342.591 L165.579 346.526 L151.505 346.526 L151.505 354.998 Q152.524 354.651 153.542 354.489 Q154.561 354.304 155.579 354.304 Q161.366 354.304 164.746 357.475 Q168.126 360.646 168.126 366.063 Q168.126 371.642 164.653 374.743 Q161.181 377.822 154.862 377.822 Q152.686 377.822 150.417 377.452 Q148.172 377.081 145.765 376.341 L145.765 371.642 Q147.848 372.776 150.07 373.331 Q152.292 373.887 154.769 373.887 Q158.774 373.887 161.112 371.78 Q163.45 369.674 163.45 366.063 Q163.45 362.452 161.112 360.345 Q158.774 358.239 154.769 358.239 Q152.894 358.239 151.019 358.656 Q149.167 359.072 147.223 359.952 L147.223 342.591 Z" fill="#000000" fill-rule="nonzero" fill-opacity="1" /><path clip-path="url(#clip040)" d="M177.339 371.271 L182.223 371.271 L182.223 377.151 L177.339 377.151 L177.339 371.271 Z" fill="#000000" fill-rule="nonzero" fill-opacity="1" /><path clip-path="url(#clip040)" d="M191.227 342.591 L213.449 342.591 L213.449 344.582 L200.903 377.151 L196.019 377.151 L207.824 346.526 L191.227 346.526 L191.227 342.591 Z" fill="#000000" fill-rule="nonzero" fill-opacity="1" /><path clip-path="url(#clip040)" d="M222.616 342.591 L240.972 342.591 L240.972 346.526 L226.898 346.526 L226.898 354.998 Q227.917 354.651 228.935 354.489 Q229.954 354.304 230.972 354.304 Q236.76 354.304 240.139 357.475 Q243.519 360.646 243.519 366.063 Q243.519 371.642 240.047 374.743 Q236.574 377.822 230.255 377.822 Q228.079 377.822 225.81 377.452 Q223.565 377.081 221.158 376.341 L221.158 371.642 Q223.241 372.776 225.463 373.331 Q227.685 373.887 230.162 373.887 Q234.167 373.887 236.505 371.78 Q238.843 369.674 238.843 366.063 Q238.843 362.452 236.505 360.345 Q234.167 358.239 230.162 358.239 Q228.287 358.239 226.412 358.656 Q224.56 359.072 222.616 359.952 L222.616 342.591 Z" fill="#000000" fill-rule="nonzero" fill-opacity="1" /><path clip-path="url(#clip040)" d="M126.598 87.9895 Q123.45 87.9895 121.598 90.1423 Q119.769 92.295 119.769 96.045 Q119.769 99.7718 121.598 101.948 Q123.45 104.101 126.598 104.101 Q129.746 104.101 131.575 101.948 Q133.427 99.7718 133.427 96.045 Q133.427 92.295 131.575 90.1423 Q129.746 87.9895 126.598 87.9895 M135.88 73.3368 L135.88 77.596 Q134.121 76.7627 132.316 76.3229 Q130.533 75.8831 128.774 75.8831 Q124.144 75.8831 121.691 79.0081 Q119.26 82.1331 118.913 88.4525 Q120.279 86.4386 122.339 85.3738 Q124.399 84.2858 126.876 84.2858 Q132.084 84.2858 135.093 87.4571 Q138.126 90.6052 138.126 96.045 Q138.126 101.369 134.978 104.587 Q131.83 107.804 126.598 107.804 Q120.603 107.804 117.431 103.221 Q114.26 98.6144 114.26 89.8876 Q114.26 81.6932 118.149 76.8322 Q122.038 71.9479 128.589 71.9479 Q130.348 71.9479 132.13 72.2951 Q133.936 72.6424 135.88 73.3368 Z" fill="#000000" fill-rule="nonzero" fill-opacity="1" /><path clip-path="url(#clip040)" d="M146.228 72.5729 L164.584 72.5729 L164.584 76.5081 L150.51 76.5081 L150.51 84.9803 Q151.528 84.633 152.547 84.471 Q153.566 84.2858 154.584 84.2858 Q160.371 84.2858 163.751 87.4571 Q167.13 90.6284 167.13 96.045 Q167.13 101.624 163.658 104.726 Q160.186 107.804 153.866 107.804 Q151.691 107.804 149.422 107.434 Q147.177 107.063 144.769 106.323 L144.769 101.624 Q146.853 102.758 149.075 103.313 Q151.297 103.869 153.774 103.869 Q157.778 103.869 160.116 101.763 Q162.454 99.6561 162.454 96.045 Q162.454 92.4339 160.116 90.3275 Q157.778 88.221 153.774 88.221 Q151.899 88.221 150.024 88.6376 Q148.172 89.0543 146.228 89.9339 L146.228 72.5729 Z" fill="#000000" fill-rule="nonzero" fill-opacity="1" /><path clip-path="url(#clip040)" d="M176.343 101.253 L181.227 101.253 L181.227 107.133 L176.343 107.133 L176.343 101.253 Z" fill="#000000" fill-rule="nonzero" fill-opacity="1" /><path clip-path="url(#clip040)" d="M201.412 90.721 Q198.079 90.721 196.158 92.5034 Q194.26 94.2858 194.26 97.4107 Q194.26 100.536 196.158 102.318 Q198.079 104.101 201.412 104.101 Q204.746 104.101 206.667 102.318 Q208.588 100.513 208.588 97.4107 Q208.588 94.2858 206.667 92.5034 Q204.769 90.721 201.412 90.721 M196.737 88.7302 Q193.727 87.9895 192.038 85.9293 Q190.371 83.8692 190.371 80.9062 Q190.371 76.7627 193.311 74.3553 Q196.274 71.9479 201.412 71.9479 Q206.574 71.9479 209.514 74.3553 Q212.454 76.7627 212.454 80.9062 Q212.454 83.8692 210.764 85.9293 Q209.098 87.9895 206.112 88.7302 Q209.491 89.5173 211.366 91.8089 Q213.264 94.1006 213.264 97.4107 Q213.264 102.434 210.186 105.119 Q207.13 107.804 201.412 107.804 Q195.695 107.804 192.616 105.119 Q189.561 102.434 189.561 97.4107 Q189.561 94.1006 191.459 91.8089 Q193.357 89.5173 196.737 88.7302 M195.024 81.346 Q195.024 84.0312 196.69 85.5358 Q198.38 87.0404 201.412 87.0404 Q204.422 87.0404 206.112 85.5358 Q207.824 84.0312 207.824 81.346 Q207.824 78.6608 206.112 77.1562 Q204.422 75.6516 201.412 75.6516 Q198.38 75.6516 196.69 77.1562 Q195.024 78.6608 195.024 81.346 Z" fill="#000000" fill-rule="nonzero" fill-opacity="1" /><path clip-path="url(#clip040)" d="M231.574 75.6516 Q227.963 75.6516 226.135 79.2164 Q224.329 82.758 224.329 89.8876 Q224.329 96.9941 226.135 100.559 Q227.963 104.101 231.574 104.101 Q235.209 104.101 237.014 100.559 Q238.843 96.9941 238.843 89.8876 Q238.843 82.758 237.014 79.2164 Q235.209 75.6516 231.574 75.6516 M231.574 71.9479 Q237.384 71.9479 240.44 76.5544 Q243.519 81.1377 243.519 89.8876 Q243.519 98.6144 240.44 103.221 Q237.384 107.804 231.574 107.804 Q225.764 107.804 222.686 103.221 Q219.63 98.6144 219.63 89.8876 Q219.63 81.1377 222.686 76.5544 Q225.764 71.9479 231.574 71.9479 Z" fill="#000000" fill-rule="nonzero" fill-opacity="1" /><path clip-path="url(#clip040)" d="M22.818 922.094 L46.4666 930.815 L46.4666 913.341 L22.818 922.094 M16.4842 925.723 L16.4842 918.434 L64.0042 900.324 L64.0042 907.008 L51.8138 911.336 L51.8138 932.757 L64.0042 937.085 L64.0042 943.865 L16.4842 925.723 Z" fill="#000000" fill-rule="nonzero" fill-opacity="1" /><path clip-path="url(#clip040)" d="M45.7664 870.182 Q39.4007 870.182 35.8996 872.824 Q32.3984 875.434 32.3984 880.176 Q32.3984 884.887 35.8996 887.528 Q39.4007 890.138 45.7664 890.138 Q52.1003 890.138 55.6014 887.528 Q59.1026 884.887 59.1026 880.176 Q59.1026 875.434 55.6014 872.824 Q52.1003 870.182 45.7664 870.182 M59.58 864.325 Q68.683 864.325 73.1071 868.368 Q77.5631 872.41 77.5631 880.749 Q77.5631 883.836 77.0857 886.574 Q76.6401 889.311 75.6852 891.889 L69.9879 891.889 Q71.3884 889.311 72.0568 886.796 Q72.7252 884.282 72.7252 881.672 Q72.7252 875.911 69.7015 873.046 Q66.7096 870.182 60.6303 870.182 L57.7339 870.182 Q60.885 871.996 62.4446 874.829 Q64.0042 877.662 64.0042 881.608 Q64.0042 888.165 59.0071 892.175 Q54.01 896.186 45.7664 896.186 Q37.491 896.186 32.4939 892.175 Q27.4968 888.165 27.4968 881.608 Q27.4968 877.662 29.0564 874.829 Q30.616 871.996 33.7671 870.182 L28.3562 870.182 L28.3562 864.325 L59.58 864.325 Z" fill="#000000" fill-rule="nonzero" fill-opacity="1" /><path clip-path="url(#clip040)" d="M44.7161 821.771 L47.5806 821.771 L47.5806 848.698 Q53.6281 848.316 56.8109 845.069 Q59.9619 841.791 59.9619 835.966 Q59.9619 832.592 59.1344 829.441 Q58.3069 826.259 56.6518 823.139 L62.1899 823.139 Q63.5267 826.29 64.227 829.601 Q64.9272 832.911 64.9272 836.316 Q64.9272 844.846 59.9619 849.843 Q54.9967 854.809 46.5303 854.809 Q37.7774 854.809 32.6531 850.098 Q27.4968 845.356 27.4968 837.335 Q27.4968 830.142 32.1438 825.972 Q36.7589 821.771 44.7161 821.771 M42.9973 827.627 Q38.1912 827.691 35.3266 830.333 Q32.4621 832.943 32.4621 837.271 Q32.4621 842.173 35.2312 845.133 Q38.0002 848.061 43.0292 848.507 L42.9973 827.627 Z" fill="#000000" fill-rule="nonzero" fill-opacity="1" /><path clip-path="url(#clip040)" d="M14.5426 777.37 Q21.8632 781.635 29.0246 783.704 Q36.186 785.773 43.5384 785.773 Q50.8908 785.773 58.1159 783.704 Q65.3091 781.603 72.5979 777.37 L72.5979 782.462 Q65.1182 787.237 57.8931 789.624 Q50.668 791.979 43.5384 791.979 Q36.4406 791.979 29.2474 789.624 Q22.0542 787.269 14.5426 782.462 L14.5426 777.37 Z" fill="#000000" fill-rule="nonzero" fill-opacity="1" /><path clip-path="url(#clip040)" d="M16.4842 765.752 L16.4842 756.172 L48.8219 744.045 L16.4842 731.855 L16.4842 722.275 L64.0042 722.275 L64.0042 728.545 L22.277 728.545 L54.8694 740.799 L54.8694 747.26 L22.277 759.514 L64.0042 759.514 L64.0042 765.752 L16.4842 765.752 Z" fill="#000000" fill-rule="nonzero" fill-opacity="1" /><path clip-path="url(#clip040)" d="M46.0847 693.565 Q46.0847 700.663 47.7079 703.4 Q49.3312 706.138 53.2461 706.138 Q56.3653 706.138 58.2114 704.101 Q60.0256 702.032 60.0256 698.499 Q60.0256 693.629 56.5881 690.701 Q53.1188 687.741 47.3897 687.741 L46.0847 687.741 L46.0847 693.565 M43.6657 681.884 L64.0042 681.884 L64.0042 687.741 L58.5933 687.741 Q61.8398 689.746 63.3994 692.738 Q64.9272 695.73 64.9272 700.058 Q64.9272 705.533 61.8716 708.779 Q58.7843 711.994 53.6281 711.994 Q47.6125 711.994 44.5569 707.984 Q41.5014 703.941 41.5014 695.953 L41.5014 687.741 L40.9285 687.741 Q36.8862 687.741 34.6901 690.414 Q32.4621 693.056 32.4621 697.862 Q32.4621 700.918 33.1941 703.814 Q33.9262 706.711 35.3903 709.384 L29.9795 709.384 Q28.7381 706.169 28.1334 703.146 Q27.4968 700.122 27.4968 697.257 Q27.4968 689.523 31.5072 685.704 Q35.5176 681.884 43.6657 681.884 Z" fill="#000000" fill-rule="nonzero" fill-opacity="1" /><path clip-path="url(#clip040)" d="M14.5426 670.744 L14.5426 665.652 Q22.0542 660.877 29.2474 658.522 Q36.4406 656.135 43.5384 656.135 Q50.668 656.135 57.8931 658.522 Q65.1182 660.877 72.5979 665.652 L72.5979 670.744 Q65.3091 666.511 58.1159 664.442 Q50.8908 662.342 43.5384 662.342 Q36.186 662.342 29.0246 664.442 Q21.8632 666.511 14.5426 670.744 Z" fill="#000000" fill-rule="nonzero" fill-opacity="1" /><polyline clip-path="url(#clip042)" style="stroke:#009af9; stroke-linecap:round; stroke-linejoin:round; stroke-width:4; stroke-opacity:1; fill:none" points="338.195,1510.15 338.195,1121.32 "/>
<polyline clip-path="url(#clip042)" style="stroke:#009af9; stroke-linecap:round; stroke-linejoin:round; stroke-width:4; stroke-opacity:1; fill:none" points="516.003,1477.74 516.003,991.713 "/>
<polyline clip-path="url(#clip042)" style="stroke:#009af9; stroke-linecap:round; stroke-linejoin:round; stroke-width:4; stroke-opacity:1; fill:none" points="693.811,1391.34 693.811,484.079 "/>
<polyline clip-path="url(#clip042)" style="stroke:#009af9; stroke-linecap:round; stroke-linejoin:round; stroke-width:4; stroke-opacity:1; fill:none" points="871.618,1088.92 871.618,494.88 "/>
<polyline clip-path="url(#clip042)" style="stroke:#009af9; stroke-linecap:round; stroke-linejoin:round; stroke-width:4; stroke-opacity:1; fill:none" points="1049.43,926.908 1049.43,646.09 "/>
<polyline clip-path="url(#clip042)" style="stroke:#009af9; stroke-linecap:round; stroke-linejoin:round; stroke-width:4; stroke-opacity:1; fill:none" points="1227.23,916.108 1227.23,581.285 "/>
<polyline clip-path="url(#clip042)" style="stroke:#009af9; stroke-linecap:round; stroke-linejoin:round; stroke-width:4; stroke-opacity:1; fill:none" points="1405.04,797.3 1405.04,505.68 "/>
<polyline clip-path="url(#clip042)" style="stroke:#009af9; stroke-linecap:round; stroke-linejoin:round; stroke-width:4; stroke-opacity:1; fill:none" points="1582.85,759.497 1582.85,511.081 "/>
<polyline clip-path="url(#clip042)" style="stroke:#009af9; stroke-linecap:round; stroke-linejoin:round; stroke-width:4; stroke-opacity:1; fill:none" points="1760.66,845.903 1760.66,413.874 "/>
<polyline clip-path="url(#clip042)" style="stroke:#009af9; stroke-linecap:round; stroke-linejoin:round; stroke-width:4; stroke-opacity:1; fill:none" points="1938.46,1169.92 1938.46,89.8529 "/>
<polyline clip-path="url(#clip042)" style="stroke:#009af9; stroke-linecap:round; stroke-linejoin:round; stroke-width:4; stroke-opacity:1; fill:none" points="2116.27,845.903 2116.27,338.269 "/>
<polyline clip-path="url(#clip042)" style="stroke:#009af9; stroke-linecap:round; stroke-linejoin:round; stroke-width:4; stroke-opacity:1; fill:none" points="2294.08,554.284 2294.08,262.664 "/>
<line clip-path="url(#clip042)" x1="354.195" y1="1510.15" x2="322.195" y2="1510.15" style="stroke:#009af9; stroke-width:4; stroke-opacity:1"/>
<line clip-path="url(#clip042)" x1="354.195" y1="1121.32" x2="322.195" y2="1121.32" style="stroke:#009af9; stroke-width:4; stroke-opacity:1"/>
<line clip-path="url(#clip042)" x1="532.003" y1="1477.74" x2="500.003" y2="1477.74" style="stroke:#009af9; stroke-width:4; stroke-opacity:1"/>
<line clip-path="url(#clip042)" x1="532.003" y1="991.713" x2="500.003" y2="991.713" style="stroke:#009af9; stroke-width:4; stroke-opacity:1"/>
<line clip-path="url(#clip042)" x1="709.811" y1="1391.34" x2="677.811" y2="1391.34" style="stroke:#009af9; stroke-width:4; stroke-opacity:1"/>
<line clip-path="url(#clip042)" x1="709.811" y1="484.079" x2="677.811" y2="484.079" style="stroke:#009af9; stroke-width:4; stroke-opacity:1"/>
<line clip-path="url(#clip042)" x1="887.618" y1="1088.92" x2="855.618" y2="1088.92" style="stroke:#009af9; stroke-width:4; stroke-opacity:1"/>
<line clip-path="url(#clip042)" x1="887.618" y1="494.88" x2="855.618" y2="494.88" style="stroke:#009af9; stroke-width:4; stroke-opacity:1"/>
<line clip-path="url(#clip042)" x1="1065.43" y1="926.908" x2="1033.43" y2="926.908" style="stroke:#009af9; stroke-width:4; stroke-opacity:1"/>
<line clip-path="url(#clip042)" x1="1065.43" y1="646.09" x2="1033.43" y2="646.09" style="stroke:#009af9; stroke-width:4; stroke-opacity:1"/>
<line clip-path="url(#clip042)" x1="1243.23" y1="916.108" x2="1211.23" y2="916.108" style="stroke:#009af9; stroke-width:4; stroke-opacity:1"/>
<line clip-path="url(#clip042)" x1="1243.23" y1="581.285" x2="1211.23" y2="581.285" style="stroke:#009af9; stroke-width:4; stroke-opacity:1"/>
<line clip-path="url(#clip042)" x1="1421.04" y1="797.3" x2="1389.04" y2="797.3" style="stroke:#009af9; stroke-width:4; stroke-opacity:1"/>
<line clip-path="url(#clip042)" x1="1421.04" y1="505.68" x2="1389.04" y2="505.68" style="stroke:#009af9; stroke-width:4; stroke-opacity:1"/>
<line clip-path="url(#clip042)" x1="1598.85" y1="759.497" x2="1566.85" y2="759.497" style="stroke:#009af9; stroke-width:4; stroke-opacity:1"/>
<line clip-path="url(#clip042)" x1="1598.85" y1="511.081" x2="1566.85" y2="511.081" style="stroke:#009af9; stroke-width:4; stroke-opacity:1"/>
<line clip-path="url(#clip042)" x1="1776.66" y1="845.903" x2="1744.66" y2="845.903" style="stroke:#009af9; stroke-width:4; stroke-opacity:1"/>
<line clip-path="url(#clip042)" x1="1776.66" y1="413.874" x2="1744.66" y2="413.874" style="stroke:#009af9; stroke-width:4; stroke-opacity:1"/>
<line clip-path="url(#clip042)" x1="1954.46" y1="1169.92" x2="1922.46" y2="1169.92" style="stroke:#009af9; stroke-width:4; stroke-opacity:1"/>
<line clip-path="url(#clip042)" x1="1954.46" y1="89.8529" x2="1922.46" y2="89.8529" style="stroke:#009af9; stroke-width:4; stroke-opacity:1"/>
<line clip-path="url(#clip042)" x1="2132.27" y1="845.903" x2="2100.27" y2="845.903" style="stroke:#009af9; stroke-width:4; stroke-opacity:1"/>
<line clip-path="url(#clip042)" x1="2132.27" y1="338.269" x2="2100.27" y2="338.269" style="stroke:#009af9; stroke-width:4; stroke-opacity:1"/>
<line clip-path="url(#clip042)" x1="2310.08" y1="554.284" x2="2278.08" y2="554.284" style="stroke:#009af9; stroke-width:4; stroke-opacity:1"/>
<line clip-path="url(#clip042)" x1="2310.08" y1="262.664" x2="2278.08" y2="262.664" style="stroke:#009af9; stroke-width:4; stroke-opacity:1"/>
<circle clip-path="url(#clip042)" cx="338.195" cy="1315.73" r="14.4" fill="#009af9" fill-rule="evenodd" fill-opacity="1" stroke="none"/>
<circle clip-path="url(#clip042)" cx="516.003" cy="1234.73" r="14.4" fill="#009af9" fill-rule="evenodd" fill-opacity="1" stroke="none"/>
<circle clip-path="url(#clip042)" cx="693.811" cy="937.709" r="14.4" fill="#009af9" fill-rule="evenodd" fill-opacity="1" stroke="none"/>
<circle clip-path="url(#clip042)" cx="871.618" cy="791.899" r="14.4" fill="#009af9" fill-rule="evenodd" fill-opacity="1" stroke="none"/>
<circle clip-path="url(#clip042)" cx="1049.43" cy="786.499" r="14.4" fill="#009af9" fill-rule="evenodd" fill-opacity="1" stroke="none"/>
<circle clip-path="url(#clip042)" cx="1227.23" cy="748.697" r="14.4" fill="#009af9" fill-rule="evenodd" fill-opacity="1" stroke="none"/>
<circle clip-path="url(#clip042)" cx="1405.04" cy="651.49" r="14.4" fill="#009af9" fill-rule="evenodd" fill-opacity="1" stroke="none"/>
<circle clip-path="url(#clip042)" cx="1582.85" cy="635.289" r="14.4" fill="#009af9" fill-rule="evenodd" fill-opacity="1" stroke="none"/>
<circle clip-path="url(#clip042)" cx="1760.66" cy="629.889" r="14.4" fill="#009af9" fill-rule="evenodd" fill-opacity="1" stroke="none"/>
<circle clip-path="url(#clip042)" cx="1938.46" cy="629.889" r="14.4" fill="#009af9" fill-rule="evenodd" fill-opacity="1" stroke="none"/>
<circle clip-path="url(#clip042)" cx="2116.27" cy="592.086" r="14.4" fill="#009af9" fill-rule="evenodd" fill-opacity="1" stroke="none"/>
<circle clip-path="url(#clip042)" cx="2294.08" cy="408.474" r="14.4" fill="#009af9" fill-rule="evenodd" fill-opacity="1" stroke="none"/>
<path clip-path="url(#clip042)" d="M338.195 1341.35 L516.003 1341.35 L693.811 1341.35 L871.618 1341.35 L1049.43 1341.35 L1227.23 1341.35 L1405.04 1341.35 L1582.85 1341.35 L1760.66 1341.35 L1938.46 1341.35 L2116.27 1341.35 L2294.08 1341.35 L2294.08 1026.49 L2116.27 1026.49 L1938.46 1026.49 L1760.66 1026.49 L1582.85 1026.49 L1405.04 1026.49 L1227.23 1026.49 L1049.43 1026.49 L871.618 1026.49 L693.811 1026.49 L516.003 1026.49 L338.195 1026.49  Z" fill="#e26f46" fill-rule="evenodd" fill-opacity="0.6"/>
<polyline clip-path="url(#clip042)" style="stroke:#e26f46; stroke-linecap:round; stroke-linejoin:round; stroke-width:4; stroke-opacity:0; fill:none" points="338.195,1341.35 516.003,1341.35 693.811,1341.35 871.618,1341.35 1049.43,1341.35 1227.23,1341.35 1405.04,1341.35 1582.85,1341.35 1760.66,1341.35 1938.46,1341.35 2116.27,1341.35 2294.08,1341.35 "/>
<polyline clip-path="url(#clip042)" style="stroke:#000000; stroke-linecap:round; stroke-linejoin:round; stroke-width:4; stroke-opacity:1; fill:none" stroke-dasharray="2, 4" points="338.195,1189.78 516.003,1189.78 693.811,1189.78 871.618,1189.78 1049.43,1189.78 1227.23,1189.78 1405.04,1189.78 1582.85,1189.78 1760.66,1189.78 1938.46,1189.78 2116.27,1189.78 2294.08,1189.78 "/>
<path clip-path="url(#clip040)" d="M348.627 252.948 L1321.66 252.948 L1321.66 97.4278 L348.627 97.4278  Z" fill="#ffffff" fill-rule="evenodd" fill-opacity="1"/>
<polyline clip-path="url(#clip040)" style="stroke:#ffffff; stroke-linecap:round; stroke-linejoin:round; stroke-width:4; stroke-opacity:1; fill:none" points="348.627,252.948 1321.66,252.948 1321.66,97.4278 348.627,97.4278 348.627,252.948 "/>
<circle clip-path="url(#clip040)" cx="440.771" cy="149.268" r="20.48" fill="#009af9" fill-rule="evenodd" fill-opacity="1" stroke="none"/>
<path clip-path="url(#clip040)" d="M537.59 135.83 L537.59 162.705 L543.238 162.705 Q550.391 162.705 553.701 159.465 Q557.035 156.224 557.035 149.233 Q557.035 142.289 553.701 139.071 Q550.391 135.83 543.238 135.83 L537.59 135.83 M532.914 131.988 L542.521 131.988 Q552.567 131.988 557.266 136.178 Q561.965 140.344 561.965 149.233 Q561.965 158.168 557.243 162.358 Q552.521 166.548 542.521 166.548 L532.914 166.548 L532.914 131.988 Z" fill="#000000" fill-rule="nonzero" fill-opacity="1" /><path clip-path="url(#clip040)" d="M581.016 153.515 Q575.854 153.515 573.863 154.696 Q571.873 155.877 571.873 158.724 Q571.873 160.992 573.354 162.335 Q574.859 163.654 577.428 163.654 Q580.97 163.654 583.099 161.154 Q585.252 158.631 585.252 154.465 L585.252 153.515 L581.016 153.515 M589.511 151.756 L589.511 166.548 L585.252 166.548 L585.252 162.613 Q583.794 164.974 581.618 166.108 Q579.442 167.219 576.294 167.219 Q572.312 167.219 569.951 164.997 Q567.613 162.752 567.613 159.002 Q567.613 154.627 570.53 152.404 Q573.47 150.182 579.28 150.182 L585.252 150.182 L585.252 149.766 Q585.252 146.826 583.308 145.228 Q581.386 143.608 577.891 143.608 Q575.669 143.608 573.562 144.141 Q571.456 144.673 569.511 145.738 L569.511 141.803 Q571.849 140.9 574.048 140.46 Q576.247 139.997 578.331 139.997 Q583.956 139.997 586.734 142.914 Q589.511 145.83 589.511 151.756 Z" fill="#000000" fill-rule="nonzero" fill-opacity="1" /><path clip-path="url(#clip040)" d="M602.497 133.261 L602.497 140.622 L611.27 140.622 L611.27 143.932 L602.497 143.932 L602.497 158.006 Q602.497 161.177 603.354 162.08 Q604.233 162.983 606.895 162.983 L611.27 162.983 L611.27 166.548 L606.895 166.548 Q601.965 166.548 600.09 164.719 Q598.215 162.867 598.215 158.006 L598.215 143.932 L595.09 143.932 L595.09 140.622 L598.215 140.622 L598.215 133.261 L602.497 133.261 Z" fill="#000000" fill-rule="nonzero" fill-opacity="1" /><path clip-path="url(#clip040)" d="M628.655 153.515 Q623.493 153.515 621.502 154.696 Q619.511 155.877 619.511 158.724 Q619.511 160.992 620.993 162.335 Q622.497 163.654 625.067 163.654 Q628.608 163.654 630.738 161.154 Q632.891 158.631 632.891 154.465 L632.891 153.515 L628.655 153.515 M637.15 151.756 L637.15 166.548 L632.891 166.548 L632.891 162.613 Q631.432 164.974 629.256 166.108 Q627.081 167.219 623.932 167.219 Q619.951 167.219 617.59 164.997 Q615.252 162.752 615.252 159.002 Q615.252 154.627 618.169 152.404 Q621.108 150.182 626.919 150.182 L632.891 150.182 L632.891 149.766 Q632.891 146.826 630.946 145.228 Q629.025 143.608 625.53 143.608 Q623.307 143.608 621.201 144.141 Q619.094 144.673 617.15 145.738 L617.15 141.803 Q619.488 140.9 621.687 140.46 Q623.886 139.997 625.969 139.997 Q631.594 139.997 634.372 142.914 Q637.15 145.83 637.15 151.756 Z" fill="#000000" fill-rule="nonzero" fill-opacity="1" /><path clip-path="url(#clip040)" d="M671.224 130.576 Q668.122 135.9 666.617 141.108 Q665.113 146.316 665.113 151.664 Q665.113 157.011 666.617 162.265 Q668.145 167.497 671.224 172.798 L667.52 172.798 Q664.048 167.358 662.312 162.103 Q660.599 156.849 660.599 151.664 Q660.599 146.502 662.312 141.27 Q664.025 136.039 667.52 130.576 L671.224 130.576 Z" fill="#000000" fill-rule="nonzero" fill-opacity="1" /><path clip-path="url(#clip040)" d="M689.534 143.608 Q686.108 143.608 684.117 146.293 Q682.127 148.955 682.127 153.608 Q682.127 158.261 684.094 160.946 Q686.085 163.608 689.534 163.608 Q692.937 163.608 694.927 160.923 Q696.918 158.238 696.918 153.608 Q696.918 149.002 694.927 146.316 Q692.937 143.608 689.534 143.608 M689.534 139.997 Q695.089 139.997 698.261 143.608 Q701.432 147.219 701.432 153.608 Q701.432 159.974 698.261 163.608 Q695.089 167.219 689.534 167.219 Q683.955 167.219 680.784 163.608 Q677.636 159.974 677.636 153.608 Q677.636 147.219 680.784 143.608 Q683.955 139.997 689.534 139.997 Z" fill="#000000" fill-rule="nonzero" fill-opacity="1" /><path clip-path="url(#clip040)" d="M727.103 153.608 Q727.103 148.909 725.159 146.247 Q723.237 143.562 719.858 143.562 Q716.478 143.562 714.534 146.247 Q712.612 148.909 712.612 153.608 Q712.612 158.307 714.534 160.992 Q716.478 163.654 719.858 163.654 Q723.237 163.654 725.159 160.992 Q727.103 158.307 727.103 153.608 M712.612 144.557 Q713.955 142.242 715.992 141.131 Q718.052 139.997 720.899 139.997 Q725.622 139.997 728.561 143.747 Q731.524 147.497 731.524 153.608 Q731.524 159.719 728.561 163.469 Q725.622 167.219 720.899 167.219 Q718.052 167.219 715.992 166.108 Q713.955 164.974 712.612 162.659 L712.612 166.548 L708.33 166.548 L708.33 130.529 L712.612 130.529 L712.612 144.557 Z" fill="#000000" fill-rule="nonzero" fill-opacity="1" /><path clip-path="url(#clip040)" d="M755.112 141.386 L755.112 145.414 Q753.307 144.488 751.362 144.025 Q749.418 143.562 747.335 143.562 Q744.163 143.562 742.566 144.534 Q740.992 145.506 740.992 147.451 Q740.992 148.932 742.126 149.789 Q743.26 150.622 746.686 151.386 L748.145 151.71 Q752.682 152.682 754.58 154.465 Q756.501 156.224 756.501 159.395 Q756.501 163.006 753.631 165.113 Q750.784 167.219 745.784 167.219 Q743.7 167.219 741.432 166.802 Q739.186 166.409 736.686 165.599 L736.686 161.201 Q739.048 162.427 741.339 163.052 Q743.631 163.654 745.876 163.654 Q748.885 163.654 750.506 162.636 Q752.126 161.594 752.126 159.719 Q752.126 157.983 750.946 157.057 Q749.788 156.131 745.83 155.275 L744.348 154.928 Q740.39 154.094 738.631 152.381 Q736.872 150.645 736.872 147.636 Q736.872 143.978 739.464 141.988 Q742.057 139.997 746.825 139.997 Q749.186 139.997 751.27 140.344 Q753.353 140.691 755.112 141.386 Z" fill="#000000" fill-rule="nonzero" fill-opacity="1" /><path clip-path="url(#clip040)" d="M785.459 152.52 L785.459 154.603 L765.876 154.603 Q766.154 159.002 768.515 161.316 Q770.899 163.608 775.135 163.608 Q777.589 163.608 779.881 163.006 Q782.195 162.404 784.464 161.201 L784.464 165.228 Q782.172 166.201 779.765 166.71 Q777.358 167.219 774.881 167.219 Q768.677 167.219 765.043 163.608 Q761.432 159.997 761.432 153.84 Q761.432 147.474 764.858 143.747 Q768.307 139.997 774.14 139.997 Q779.371 139.997 782.404 143.377 Q785.459 146.733 785.459 152.52 M781.2 151.27 Q781.154 147.775 779.233 145.691 Q777.334 143.608 774.186 143.608 Q770.621 143.608 768.469 145.622 Q766.339 147.636 766.015 151.293 L781.2 151.27 Z" fill="#000000" fill-rule="nonzero" fill-opacity="1" /><path clip-path="url(#clip040)" d="M807.473 144.603 Q806.756 144.187 805.899 144.002 Q805.066 143.793 804.047 143.793 Q800.436 143.793 798.492 146.154 Q796.57 148.492 796.57 152.89 L796.57 166.548 L792.288 166.548 L792.288 140.622 L796.57 140.622 L796.57 144.65 Q797.913 142.289 800.066 141.154 Q802.218 139.997 805.297 139.997 Q805.737 139.997 806.269 140.066 Q806.802 140.113 807.45 140.229 L807.473 144.603 Z" fill="#000000" fill-rule="nonzero" fill-opacity="1" /><path clip-path="url(#clip040)" d="M808.885 140.622 L813.399 140.622 L821.501 162.381 L829.603 140.622 L834.116 140.622 L824.394 166.548 L818.607 166.548 L808.885 140.622 Z" fill="#000000" fill-rule="nonzero" fill-opacity="1" /><path clip-path="url(#clip040)" d="M862.172 152.52 L862.172 154.603 L842.589 154.603 Q842.866 159.002 845.228 161.316 Q847.612 163.608 851.848 163.608 Q854.302 163.608 856.593 163.006 Q858.908 162.404 861.177 161.201 L861.177 165.228 Q858.885 166.201 856.477 166.71 Q854.07 167.219 851.593 167.219 Q845.39 167.219 841.755 163.608 Q838.144 159.997 838.144 153.84 Q838.144 147.474 841.57 143.747 Q845.019 139.997 850.852 139.997 Q856.084 139.997 859.116 143.377 Q862.172 146.733 862.172 152.52 M857.913 151.27 Q857.866 147.775 855.945 145.691 Q854.047 143.608 850.899 143.608 Q847.334 143.608 845.181 145.622 Q843.052 147.636 842.728 151.293 L857.913 151.27 Z" fill="#000000" fill-rule="nonzero" fill-opacity="1" /><path clip-path="url(#clip040)" d="M886.223 144.557 L886.223 130.529 L890.482 130.529 L890.482 166.548 L886.223 166.548 L886.223 162.659 Q884.88 164.974 882.82 166.108 Q880.783 167.219 877.913 167.219 Q873.213 167.219 870.251 163.469 Q867.311 159.719 867.311 153.608 Q867.311 147.497 870.251 143.747 Q873.213 139.997 877.913 139.997 Q880.783 139.997 882.82 141.131 Q884.88 142.242 886.223 144.557 M871.709 153.608 Q871.709 158.307 873.63 160.992 Q875.575 163.654 878.954 163.654 Q882.334 163.654 884.278 160.992 Q886.223 158.307 886.223 153.608 Q886.223 148.909 884.278 146.247 Q882.334 143.562 878.954 143.562 Q875.575 143.562 873.63 146.247 Q871.709 148.909 871.709 153.608 Z" fill="#000000" fill-rule="nonzero" fill-opacity="1" /><path clip-path="url(#clip040)" d="M926.107 153.515 Q920.945 153.515 918.954 154.696 Q916.963 155.877 916.963 158.724 Q916.963 160.992 918.445 162.335 Q919.949 163.654 922.519 163.654 Q926.06 163.654 928.19 161.154 Q930.343 158.631 930.343 154.465 L930.343 153.515 L926.107 153.515 M934.602 151.756 L934.602 166.548 L930.343 166.548 L930.343 162.613 Q928.884 164.974 926.709 166.108 Q924.533 167.219 921.385 167.219 Q917.403 167.219 915.042 164.997 Q912.704 162.752 912.704 159.002 Q912.704 154.627 915.621 152.404 Q918.56 150.182 924.371 150.182 L930.343 150.182 L930.343 149.766 Q930.343 146.826 928.398 145.228 Q926.477 143.608 922.982 143.608 Q920.76 143.608 918.653 144.141 Q916.547 144.673 914.602 145.738 L914.602 141.803 Q916.94 140.9 919.139 140.46 Q921.338 139.997 923.422 139.997 Q929.047 139.997 931.824 142.914 Q934.602 145.83 934.602 151.756 Z" fill="#000000" fill-rule="nonzero" fill-opacity="1" /><path clip-path="url(#clip040)" d="M960.435 153.284 Q960.435 148.654 958.514 146.108 Q956.616 143.562 953.167 143.562 Q949.741 143.562 947.82 146.108 Q945.921 148.654 945.921 153.284 Q945.921 157.89 947.82 160.437 Q949.741 162.983 953.167 162.983 Q956.616 162.983 958.514 160.437 Q960.435 157.89 960.435 153.284 M964.694 163.33 Q964.694 169.951 961.755 173.168 Q958.815 176.409 952.75 176.409 Q950.505 176.409 948.514 176.062 Q946.523 175.738 944.648 175.043 L944.648 170.9 Q946.523 171.918 948.352 172.404 Q950.181 172.89 952.079 172.89 Q956.269 172.89 958.352 170.691 Q960.435 168.515 960.435 164.094 L960.435 161.988 Q959.116 164.279 957.056 165.414 Q954.995 166.548 952.125 166.548 Q947.357 166.548 944.44 162.914 Q941.523 159.279 941.523 153.284 Q941.523 147.266 944.44 143.631 Q947.357 139.997 952.125 139.997 Q954.995 139.997 957.056 141.131 Q959.116 142.266 960.435 144.557 L960.435 140.622 L964.694 140.622 L964.694 163.33 Z" fill="#000000" fill-rule="nonzero" fill-opacity="1" /><path clip-path="url(#clip040)" d="M995.643 152.52 L995.643 154.603 L976.06 154.603 Q976.338 159.002 978.699 161.316 Q981.083 163.608 985.319 163.608 Q987.773 163.608 990.065 163.006 Q992.38 162.404 994.648 161.201 L994.648 165.228 Q992.356 166.201 989.949 166.71 Q987.542 167.219 985.065 167.219 Q978.861 167.219 975.227 163.608 Q971.616 159.997 971.616 153.84 Q971.616 147.474 975.042 143.747 Q978.491 139.997 984.324 139.997 Q989.555 139.997 992.588 143.377 Q995.643 146.733 995.643 152.52 M991.384 151.27 Q991.338 147.775 989.417 145.691 Q987.518 143.608 984.37 143.608 Q980.805 143.608 978.653 145.622 Q976.523 147.636 976.199 151.293 L991.384 151.27 Z" fill="#000000" fill-rule="nonzero" fill-opacity="1" /><path clip-path="url(#clip040)" d="M1019.16 141.386 L1019.16 145.414 Q1017.36 144.488 1015.41 144.025 Q1013.47 143.562 1011.38 143.562 Q1008.21 143.562 1006.62 144.534 Q1005.04 145.506 1005.04 147.451 Q1005.04 148.932 1006.18 149.789 Q1007.31 150.622 1010.74 151.386 L1012.19 151.71 Q1016.73 152.682 1018.63 154.465 Q1020.55 156.224 1020.55 159.395 Q1020.55 163.006 1017.68 165.113 Q1014.83 167.219 1009.83 167.219 Q1007.75 167.219 1005.48 166.802 Q1003.24 166.409 1000.74 165.599 L1000.74 161.201 Q1003.1 162.427 1005.39 163.052 Q1007.68 163.654 1009.93 163.654 Q1012.93 163.654 1014.56 162.636 Q1016.18 161.594 1016.18 159.719 Q1016.18 157.983 1015 157.057 Q1013.84 156.131 1009.88 155.275 L1008.4 154.928 Q1004.44 154.094 1002.68 152.381 Q1000.92 150.645 1000.92 147.636 Q1000.92 143.978 1003.51 141.988 Q1006.11 139.997 1010.87 139.997 Q1013.24 139.997 1015.32 140.344 Q1017.4 140.691 1019.16 141.386 Z" fill="#000000" fill-rule="nonzero" fill-opacity="1" /><path clip-path="url(#clip040)" d="M1026.66 130.576 L1030.37 130.576 Q1033.84 136.039 1035.55 141.27 Q1037.29 146.502 1037.29 151.664 Q1037.29 156.849 1035.55 162.103 Q1033.84 167.358 1030.37 172.798 L1026.66 172.798 Q1029.74 167.497 1031.25 162.265 Q1032.77 157.011 1032.77 151.664 Q1032.77 146.316 1031.25 141.108 Q1029.74 135.9 1026.66 130.576 Z" fill="#000000" fill-rule="nonzero" fill-opacity="1" /><path clip-path="url(#clip040)" d="M371.663 221.844 L509.878 221.844 L509.878 180.372 L371.663 180.372 L371.663 221.844  Z" fill="#e26f46" fill-rule="evenodd" fill-opacity="0.6"/>
<polyline clip-path="url(#clip040)" style="stroke:#e26f46; stroke-linecap:round; stroke-linejoin:round; stroke-width:4; stroke-opacity:0; fill:none" points="371.663,180.372 509.878,180.372 "/>
<path clip-path="url(#clip040)" d="M532.914 183.828 L539.882 183.828 L548.701 207.346 L557.567 183.828 L564.535 183.828 L564.535 218.388 L559.974 218.388 L559.974 188.041 L551.062 211.744 L546.363 211.744 L537.451 188.041 L537.451 218.388 L532.914 218.388 L532.914 183.828 Z" fill="#000000" fill-rule="nonzero" fill-opacity="1" /><path clip-path="url(#clip040)" d="M583.678 195.448 Q580.252 195.448 578.261 198.133 Q576.271 200.795 576.271 205.448 Q576.271 210.101 578.238 212.786 Q580.229 215.448 583.678 215.448 Q587.081 215.448 589.071 212.763 Q591.062 210.078 591.062 205.448 Q591.062 200.842 589.071 198.156 Q587.081 195.448 583.678 195.448 M583.678 191.837 Q589.234 191.837 592.405 195.448 Q595.576 199.059 595.576 205.448 Q595.576 211.814 592.405 215.448 Q589.234 219.059 583.678 219.059 Q578.099 219.059 574.928 215.448 Q571.78 211.814 571.78 205.448 Q571.78 199.059 574.928 195.448 Q578.099 191.837 583.678 191.837 Z" fill="#000000" fill-rule="nonzero" fill-opacity="1" /><path clip-path="url(#clip040)" d="M619.696 196.397 L619.696 182.369 L623.956 182.369 L623.956 218.388 L619.696 218.388 L619.696 214.499 Q618.354 216.814 616.294 217.948 Q614.257 219.059 611.386 219.059 Q606.687 219.059 603.724 215.309 Q600.784 211.559 600.784 205.448 Q600.784 199.337 603.724 195.587 Q606.687 191.837 611.386 191.837 Q614.257 191.837 616.294 192.971 Q618.354 194.082 619.696 196.397 M605.183 205.448 Q605.183 210.147 607.104 212.832 Q609.048 215.494 612.428 215.494 Q615.807 215.494 617.752 212.832 Q619.696 210.147 619.696 205.448 Q619.696 200.749 617.752 198.087 Q615.807 195.402 612.428 195.402 Q609.048 195.402 607.104 198.087 Q605.183 200.749 605.183 205.448 Z" fill="#000000" fill-rule="nonzero" fill-opacity="1" /><path clip-path="url(#clip040)" d="M654.904 204.36 L654.904 206.443 L635.321 206.443 Q635.599 210.842 637.96 213.156 Q640.344 215.448 644.58 215.448 Q647.034 215.448 649.326 214.846 Q651.641 214.244 653.909 213.041 L653.909 217.068 Q651.617 218.041 649.21 218.55 Q646.803 219.059 644.326 219.059 Q638.122 219.059 634.488 215.448 Q630.877 211.837 630.877 205.68 Q630.877 199.314 634.303 195.587 Q637.752 191.837 643.585 191.837 Q648.817 191.837 651.849 195.217 Q654.904 198.573 654.904 204.36 M650.645 203.11 Q650.599 199.615 648.678 197.531 Q646.78 195.448 643.631 195.448 Q640.067 195.448 637.914 197.462 Q635.784 199.476 635.46 203.133 L650.645 203.11 Z" fill="#000000" fill-rule="nonzero" fill-opacity="1" /><path clip-path="url(#clip040)" d="M661.895 182.369 L666.154 182.369 L666.154 218.388 L661.895 218.388 L661.895 182.369 Z" fill="#000000" fill-rule="nonzero" fill-opacity="1" /><path clip-path="url(#clip040)" d="M700.367 182.416 Q697.265 187.74 695.761 192.948 Q694.256 198.156 694.256 203.504 Q694.256 208.851 695.761 214.105 Q697.288 219.337 700.367 224.638 L696.664 224.638 Q693.191 219.198 691.455 213.943 Q689.742 208.689 689.742 203.504 Q689.742 198.342 691.455 193.11 Q693.168 187.879 696.664 182.416 L700.367 182.416 Z" fill="#000000" fill-rule="nonzero" fill-opacity="1" /><path clip-path="url(#clip040)" d="M719.812 199.244 Q716.663 199.244 714.812 201.397 Q712.983 203.55 712.983 207.3 Q712.983 211.027 714.812 213.203 Q716.663 215.355 719.812 215.355 Q722.96 215.355 724.788 213.203 Q726.64 211.027 726.64 207.3 Q726.64 203.55 724.788 201.397 Q722.96 199.244 719.812 199.244 M729.094 184.592 L729.094 188.851 Q727.335 188.018 725.529 187.578 Q723.747 187.138 721.987 187.138 Q717.358 187.138 714.904 190.263 Q712.474 193.388 712.126 199.707 Q713.492 197.693 715.552 196.629 Q717.612 195.541 720.089 195.541 Q725.298 195.541 728.307 198.712 Q731.339 201.86 731.339 207.3 Q731.339 212.624 728.191 215.842 Q725.043 219.059 719.812 219.059 Q713.816 219.059 710.645 214.476 Q707.474 209.869 707.474 201.143 Q707.474 192.948 711.362 188.087 Q715.251 183.203 721.802 183.203 Q723.562 183.203 725.344 183.55 Q727.149 183.897 729.094 184.592 Z" fill="#000000" fill-rule="nonzero" fill-opacity="1" /><path clip-path="url(#clip040)" d="M739.441 183.828 L757.797 183.828 L757.797 187.763 L743.723 187.763 L743.723 196.235 Q744.742 195.888 745.76 195.726 Q746.779 195.541 747.797 195.541 Q753.584 195.541 756.964 198.712 Q760.344 201.883 760.344 207.3 Q760.344 212.879 756.872 215.98 Q753.399 219.059 747.08 219.059 Q744.904 219.059 742.635 218.689 Q740.39 218.318 737.983 217.578 L737.983 212.879 Q740.066 214.013 742.288 214.568 Q744.51 215.124 746.987 215.124 Q750.992 215.124 753.33 213.017 Q755.668 210.911 755.668 207.3 Q755.668 203.689 753.33 201.582 Q750.992 199.476 746.987 199.476 Q745.112 199.476 743.237 199.893 Q741.385 200.309 739.441 201.189 L739.441 183.828 Z" fill="#000000" fill-rule="nonzero" fill-opacity="1" /><path clip-path="url(#clip040)" d="M769.557 212.508 L774.441 212.508 L774.441 218.388 L769.557 218.388 L769.557 212.508 Z" fill="#000000" fill-rule="nonzero" fill-opacity="1" /><path clip-path="url(#clip040)" d="M784.672 183.828 L803.029 183.828 L803.029 187.763 L788.955 187.763 L788.955 196.235 Q789.973 195.888 790.992 195.726 Q792.01 195.541 793.029 195.541 Q798.816 195.541 802.195 198.712 Q805.575 201.883 805.575 207.3 Q805.575 212.879 802.103 215.98 Q798.631 219.059 792.311 219.059 Q790.135 219.059 787.867 218.689 Q785.621 218.318 783.214 217.578 L783.214 212.879 Q785.297 214.013 787.519 214.568 Q789.742 215.124 792.219 215.124 Q796.223 215.124 798.561 213.017 Q800.899 210.911 800.899 207.3 Q800.899 203.689 798.561 201.582 Q796.223 199.476 792.219 199.476 Q790.344 199.476 788.469 199.893 Q786.617 200.309 784.672 201.189 L784.672 183.828 Z" fill="#000000" fill-rule="nonzero" fill-opacity="1" /><path clip-path="url(#clip040)" d="M814.927 217.67 L814.927 213.411 Q816.686 214.244 818.492 214.684 Q820.297 215.124 822.033 215.124 Q826.663 215.124 829.093 212.022 Q831.547 208.897 831.894 202.555 Q830.552 204.545 828.491 205.61 Q826.431 206.675 823.931 206.675 Q818.746 206.675 815.714 203.55 Q812.705 200.402 812.705 194.962 Q812.705 189.638 815.853 186.42 Q819.001 183.203 824.232 183.203 Q830.228 183.203 833.376 187.809 Q836.547 192.393 836.547 201.143 Q836.547 209.314 832.658 214.198 Q828.792 219.059 822.242 219.059 Q820.482 219.059 818.677 218.712 Q816.871 218.365 814.927 217.67 M824.232 203.018 Q827.38 203.018 829.209 200.865 Q831.061 198.712 831.061 194.962 Q831.061 191.235 829.209 189.082 Q827.38 186.907 824.232 186.907 Q821.084 186.907 819.232 189.082 Q817.404 191.235 817.404 194.962 Q817.404 198.712 819.232 200.865 Q821.084 203.018 824.232 203.018 Z" fill="#000000" fill-rule="nonzero" fill-opacity="1" /><path clip-path="url(#clip040)" d="M855.528 199.244 Q852.38 199.244 850.528 201.397 Q848.7 203.55 848.7 207.3 Q848.7 211.027 850.528 213.203 Q852.38 215.355 855.528 215.355 Q858.677 215.355 860.505 213.203 Q862.357 211.027 862.357 207.3 Q862.357 203.55 860.505 201.397 Q858.677 199.244 855.528 199.244 M864.811 184.592 L864.811 188.851 Q863.051 188.018 861.246 187.578 Q859.464 187.138 857.704 187.138 Q853.075 187.138 850.621 190.263 Q848.19 193.388 847.843 199.707 Q849.209 197.693 851.269 196.629 Q853.329 195.541 855.806 195.541 Q861.014 195.541 864.024 198.712 Q867.056 201.86 867.056 207.3 Q867.056 212.624 863.908 215.842 Q860.76 219.059 855.528 219.059 Q849.533 219.059 846.362 214.476 Q843.19 209.869 843.19 201.143 Q843.19 192.948 847.079 188.087 Q850.968 183.203 857.519 183.203 Q859.278 183.203 861.061 183.55 Q862.866 183.897 864.811 184.592 Z" fill="#000000" fill-rule="nonzero" fill-opacity="1" /><path clip-path="url(#clip040)" d="M906.917 188.666 L906.917 201.559 L919.81 201.559 L919.81 205.494 L906.917 205.494 L906.917 218.388 L903.028 218.388 L903.028 205.494 L890.135 205.494 L890.135 201.559 L903.028 201.559 L903.028 188.666 L906.917 188.666 Z" fill="#000000" fill-rule="nonzero" fill-opacity="1" /><path clip-path="url(#clip040)" d="M939.903 186.907 Q936.292 186.907 934.463 190.471 Q932.658 194.013 932.658 201.143 Q932.658 208.249 934.463 211.814 Q936.292 215.355 939.903 215.355 Q943.537 215.355 945.343 211.814 Q947.171 208.249 947.171 201.143 Q947.171 194.013 945.343 190.471 Q943.537 186.907 939.903 186.907 M939.903 183.203 Q945.713 183.203 948.769 187.809 Q951.847 192.393 951.847 201.143 Q951.847 209.869 948.769 214.476 Q945.713 219.059 939.903 219.059 Q934.093 219.059 931.014 214.476 Q927.959 209.869 927.959 201.143 Q927.959 192.393 931.014 187.809 Q934.093 183.203 939.903 183.203 Z" fill="#000000" fill-rule="nonzero" fill-opacity="1" /><path clip-path="url(#clip040)" d="M960.065 212.508 L964.949 212.508 L964.949 218.388 L960.065 218.388 L960.065 212.508 Z" fill="#000000" fill-rule="nonzero" fill-opacity="1" /><path clip-path="url(#clip040)" d="M985.134 186.907 Q981.523 186.907 979.694 190.471 Q977.889 194.013 977.889 201.143 Q977.889 208.249 979.694 211.814 Q981.523 215.355 985.134 215.355 Q988.768 215.355 990.574 211.814 Q992.403 208.249 992.403 201.143 Q992.403 194.013 990.574 190.471 Q988.768 186.907 985.134 186.907 M985.134 183.203 Q990.944 183.203 994 187.809 Q997.079 192.393 997.079 201.143 Q997.079 209.869 994 214.476 Q990.944 219.059 985.134 219.059 Q979.324 219.059 976.245 214.476 Q973.19 209.869 973.19 201.143 Q973.19 192.393 976.245 187.809 Q979.324 183.203 985.134 183.203 Z" fill="#000000" fill-rule="nonzero" fill-opacity="1" /><path clip-path="url(#clip040)" d="M1019.46 199.754 Q1022.82 200.471 1024.69 202.74 Q1026.59 205.008 1026.59 208.342 Q1026.59 213.457 1023.07 216.258 Q1019.56 219.059 1013.07 219.059 Q1010.9 219.059 1008.58 218.619 Q1006.29 218.203 1003.84 217.346 L1003.84 212.832 Q1005.78 213.967 1008.1 214.545 Q1010.41 215.124 1012.93 215.124 Q1017.33 215.124 1019.62 213.388 Q1021.94 211.652 1021.94 208.342 Q1021.94 205.286 1019.79 203.573 Q1017.66 201.837 1013.84 201.837 L1009.81 201.837 L1009.81 197.994 L1014.02 197.994 Q1017.47 197.994 1019.3 196.629 Q1021.13 195.24 1021.13 192.647 Q1021.13 189.985 1019.23 188.573 Q1017.36 187.138 1013.84 187.138 Q1011.92 187.138 1009.72 187.555 Q1007.52 187.971 1004.88 188.851 L1004.88 184.684 Q1007.54 183.944 1009.86 183.573 Q1012.19 183.203 1014.25 183.203 Q1019.58 183.203 1022.68 185.633 Q1025.78 188.041 1025.78 192.161 Q1025.78 195.031 1024.14 197.022 Q1022.5 198.99 1019.46 199.754 Z" fill="#000000" fill-rule="nonzero" fill-opacity="1" /><path clip-path="url(#clip040)" d="M1042.43 183.828 L1046.36 183.828 L1034.32 222.786 L1030.39 222.786 L1042.43 183.828 Z" fill="#000000" fill-rule="nonzero" fill-opacity="1" /><path clip-path="url(#clip040)" d="M1048.68 203.504 L1061.15 203.504 L1061.15 207.3 L1048.68 207.3 L1048.68 203.504 Z" fill="#000000" fill-rule="nonzero" fill-opacity="1" /><path clip-path="url(#clip040)" d="M1078.54 186.907 Q1074.93 186.907 1073.1 190.471 Q1071.29 194.013 1071.29 201.143 Q1071.29 208.249 1073.1 211.814 Q1074.93 215.355 1078.54 215.355 Q1082.17 215.355 1083.98 211.814 Q1085.8 208.249 1085.8 201.143 Q1085.8 194.013 1083.98 190.471 Q1082.17 186.907 1078.54 186.907 M1078.54 183.203 Q1084.35 183.203 1087.4 187.809 Q1090.48 192.393 1090.48 201.143 Q1090.48 209.869 1087.4 214.476 Q1084.35 219.059 1078.54 219.059 Q1072.73 219.059 1069.65 214.476 Q1066.59 209.869 1066.59 201.143 Q1066.59 192.393 1069.65 187.809 Q1072.73 183.203 1078.54 183.203 Z" fill="#000000" fill-rule="nonzero" fill-opacity="1" /><path clip-path="url(#clip040)" d="M1098.7 212.508 L1103.58 212.508 L1103.58 218.388 L1098.7 218.388 L1098.7 212.508 Z" fill="#000000" fill-rule="nonzero" fill-opacity="1" /><path clip-path="url(#clip040)" d="M1123.77 186.907 Q1120.16 186.907 1118.33 190.471 Q1116.52 194.013 1116.52 201.143 Q1116.52 208.249 1118.33 211.814 Q1120.16 215.355 1123.77 215.355 Q1127.4 215.355 1129.21 211.814 Q1131.04 208.249 1131.04 201.143 Q1131.04 194.013 1129.21 190.471 Q1127.4 186.907 1123.77 186.907 M1123.77 183.203 Q1129.58 183.203 1132.63 187.809 Q1135.71 192.393 1135.71 201.143 Q1135.71 209.869 1132.63 214.476 Q1129.58 219.059 1123.77 219.059 Q1117.96 219.059 1114.88 214.476 Q1111.82 209.869 1111.82 201.143 Q1111.82 192.393 1114.88 187.809 Q1117.96 183.203 1123.77 183.203 Z" fill="#000000" fill-rule="nonzero" fill-opacity="1" /><path clip-path="url(#clip040)" d="M1147.96 214.453 L1164.28 214.453 L1164.28 218.388 L1142.33 218.388 L1142.33 214.453 Q1144.99 211.698 1149.58 207.068 Q1154.18 202.416 1155.36 201.073 Q1157.61 198.55 1158.49 196.814 Q1159.39 195.055 1159.39 193.365 Q1159.39 190.61 1157.45 188.874 Q1155.53 187.138 1152.42 187.138 Q1150.23 187.138 1147.77 187.902 Q1145.34 188.666 1142.56 190.217 L1142.56 185.494 Q1145.39 184.36 1147.84 183.782 Q1150.3 183.203 1152.33 183.203 Q1157.7 183.203 1160.9 185.888 Q1164.09 188.573 1164.09 193.064 Q1164.09 195.194 1163.28 197.115 Q1162.49 199.013 1160.39 201.606 Q1159.81 202.277 1156.71 205.494 Q1153.61 208.689 1147.96 214.453 Z" fill="#000000" fill-rule="nonzero" fill-opacity="1" /><path clip-path="url(#clip040)" d="M1184.09 201.976 Q1180.76 201.976 1178.84 203.758 Q1176.94 205.541 1176.94 208.666 Q1176.94 211.791 1178.84 213.573 Q1180.76 215.355 1184.09 215.355 Q1187.42 215.355 1189.35 213.573 Q1191.27 211.767 1191.27 208.666 Q1191.27 205.541 1189.35 203.758 Q1187.45 201.976 1184.09 201.976 M1179.42 199.985 Q1176.41 199.244 1174.72 197.184 Q1173.05 195.124 1173.05 192.161 Q1173.05 188.018 1175.99 185.61 Q1178.95 183.203 1184.09 183.203 Q1189.25 183.203 1192.19 185.61 Q1195.13 188.018 1195.13 192.161 Q1195.13 195.124 1193.44 197.184 Q1191.78 199.244 1188.79 199.985 Q1192.17 200.772 1194.05 203.064 Q1195.94 205.355 1195.94 208.666 Q1195.94 213.689 1192.86 216.374 Q1189.81 219.059 1184.09 219.059 Q1178.37 219.059 1175.3 216.374 Q1172.24 213.689 1172.24 208.666 Q1172.24 205.355 1174.14 203.064 Q1176.04 200.772 1179.42 199.985 M1177.7 192.601 Q1177.7 195.286 1179.37 196.791 Q1181.06 198.295 1184.09 198.295 Q1187.1 198.295 1188.79 196.791 Q1190.5 195.286 1190.5 192.601 Q1190.5 189.916 1188.79 188.411 Q1187.1 186.907 1184.09 186.907 Q1181.06 186.907 1179.37 188.411 Q1177.7 189.916 1177.7 192.601 Z" fill="#000000" fill-rule="nonzero" fill-opacity="1" /><path clip-path="url(#clip040)" d="M1218.91 183.828 L1225.87 183.828 L1234.69 207.346 L1243.56 183.828 L1250.53 183.828 L1250.53 218.388 L1245.97 218.388 L1245.97 188.041 L1237.05 211.744 L1232.36 211.744 L1223.44 188.041 L1223.44 218.388 L1218.91 218.388 L1218.91 183.828 Z" fill="#000000" fill-rule="nonzero" fill-opacity="1" /><path clip-path="url(#clip040)" d="M1271.41 205.355 Q1266.24 205.355 1264.25 206.536 Q1262.26 207.717 1262.26 210.564 Q1262.26 212.832 1263.74 214.175 Q1265.25 215.494 1267.82 215.494 Q1271.36 215.494 1273.49 212.994 Q1275.64 210.471 1275.64 206.305 L1275.64 205.355 L1271.41 205.355 M1279.9 203.596 L1279.9 218.388 L1275.64 218.388 L1275.64 214.453 Q1274.18 216.814 1272.01 217.948 Q1269.83 219.059 1266.68 219.059 Q1262.7 219.059 1260.34 216.837 Q1258 214.592 1258 210.842 Q1258 206.467 1260.92 204.244 Q1263.86 202.022 1269.67 202.022 L1275.64 202.022 L1275.64 201.606 Q1275.64 198.666 1273.7 197.068 Q1271.78 195.448 1268.28 195.448 Q1266.06 195.448 1263.95 195.981 Q1261.85 196.513 1259.9 197.578 L1259.9 193.643 Q1262.24 192.74 1264.44 192.3 Q1266.64 191.837 1268.72 191.837 Q1274.35 191.837 1277.12 194.754 Q1279.9 197.67 1279.9 203.596 Z" fill="#000000" fill-rule="nonzero" fill-opacity="1" /><path clip-path="url(#clip040)" d="M1288 182.416 L1291.71 182.416 Q1295.18 187.879 1296.89 193.11 Q1298.63 198.342 1298.63 203.504 Q1298.63 208.689 1296.89 213.943 Q1295.18 219.198 1291.71 224.638 L1288 224.638 Q1291.08 219.337 1292.59 214.105 Q1294.11 208.851 1294.11 203.504 Q1294.11 198.156 1292.59 192.948 Q1291.08 187.74 1288 182.416 Z" fill="#000000" fill-rule="nonzero" fill-opacity="1" /></svg>
