<?xml version="1.0" encoding="utf-8"?>
<svg xmlns="http://www.w3.org/2000/svg" xmlns:xlink="http://www.w3.org/1999/xlink" width="600" height="400" viewBox="0 0 2400 1600">
<defs>
  <clipPath id="clip080">
    <rect x="0" y="0" width="2400" height="1600"/>
  </clipPath>
</defs>
<path clip-path="url(#clip080)" d="M0 1600 L2400 1600 L2400 8.88178e-14 L0 8.88178e-14  Z" fill="#ffffff" fill-rule="evenodd" fill-opacity="1"/>
<defs>
  <clipPath id="clip081">
    <rect x="480" y="0" width="1681" height="1600"/>
  </clipPath>
</defs>
<path clip-path="url(#clip080)" d="M203.964 1423.18 L2352.76 1423.18 L2352.76 47.2441 L203.964 47.2441  Z" fill="#ffffff" fill-rule="evenodd" fill-opacity="1"/>
<defs>
  <clipPath id="clip082">
    <rect x="203" y="47" width="2150" height="1377"/>
  </clipPath>
</defs>
<polyline clip-path="url(#clip082)" style="stroke:#000000; stroke-linecap:round; stroke-linejoin:round; stroke-width:2; stroke-opacity:0.1; fill:none" points="464.725,1423.18 464.725,47.2441 "/>
<polyline clip-path="url(#clip082)" style="stroke:#000000; stroke-linecap:round; stroke-linejoin:round; stroke-width:2; stroke-opacity:0.1; fill:none" points="1033.72,1423.18 1033.72,47.2441 "/>
<polyline clip-path="url(#clip082)" style="stroke:#000000; stroke-linecap:round; stroke-linejoin:round; stroke-width:2; stroke-opacity:0.1; fill:none" points="1602.71,1423.18 1602.71,47.2441 "/>
<polyline clip-path="url(#clip082)" style="stroke:#000000; stroke-linecap:round; stroke-linejoin:round; stroke-width:2; stroke-opacity:0.1; fill:none" points="2171.7,1423.18 2171.7,47.2441 "/>
<polyline clip-path="url(#clip082)" style="stroke:#000000; stroke-linecap:round; stroke-linejoin:round; stroke-width:2; stroke-opacity:0.1; fill:none" points="464.725,1423.18 464.725,47.2441 "/>
<polyline clip-path="url(#clip082)" style="stroke:#000000; stroke-linecap:round; stroke-linejoin:round; stroke-width:2; stroke-opacity:0.1; fill:none" points="1033.72,1423.18 1033.72,47.2441 "/>
<polyline clip-path="url(#clip082)" style="stroke:#000000; stroke-linecap:round; stroke-linejoin:round; stroke-width:2; stroke-opacity:0.1; fill:none" points="1602.71,1423.18 1602.71,47.2441 "/>
<polyline clip-path="url(#clip082)" style="stroke:#000000; stroke-linecap:round; stroke-linejoin:round; stroke-width:2; stroke-opacity:0.1; fill:none" points="2171.7,1423.18 2171.7,47.2441 "/>
<polyline clip-path="url(#clip082)" style="stroke:#000000; stroke-linecap:round; stroke-linejoin:round; stroke-width:2; stroke-opacity:0.1; fill:none" points="203.964,1384.24 2352.76,1384.24 "/>
<polyline clip-path="url(#clip082)" style="stroke:#000000; stroke-linecap:round; stroke-linejoin:round; stroke-width:2; stroke-opacity:0.1; fill:none" points="203.964,1144.54 2352.76,1144.54 "/>
<polyline clip-path="url(#clip082)" style="stroke:#000000; stroke-linecap:round; stroke-linejoin:round; stroke-width:2; stroke-opacity:0.1; fill:none" points="203.964,904.834 2352.76,904.834 "/>
<polyline clip-path="url(#clip082)" style="stroke:#000000; stroke-linecap:round; stroke-linejoin:round; stroke-width:2; stroke-opacity:0.1; fill:none" points="203.964,665.132 2352.76,665.132 "/>
<polyline clip-path="url(#clip082)" style="stroke:#000000; stroke-linecap:round; stroke-linejoin:round; stroke-width:2; stroke-opacity:0.1; fill:none" points="203.964,425.43 2352.76,425.43 "/>
<polyline clip-path="url(#clip082)" style="stroke:#000000; stroke-linecap:round; stroke-linejoin:round; stroke-width:2; stroke-opacity:0.1; fill:none" points="203.964,185.728 2352.76,185.728 "/>
<polyline clip-path="url(#clip082)" style="stroke:#000000; stroke-linecap:round; stroke-linejoin:round; stroke-width:2; stroke-opacity:0.1; fill:none" points="203.964,1384.24 2352.76,1384.24 "/>
<polyline clip-path="url(#clip082)" style="stroke:#000000; stroke-linecap:round; stroke-linejoin:round; stroke-width:2; stroke-opacity:0.1; fill:none" points="203.964,1144.54 2352.76,1144.54 "/>
<polyline clip-path="url(#clip082)" style="stroke:#000000; stroke-linecap:round; stroke-linejoin:round; stroke-width:2; stroke-opacity:0.1; fill:none" points="203.964,904.834 2352.76,904.834 "/>
<polyline clip-path="url(#clip082)" style="stroke:#000000; stroke-linecap:round; stroke-linejoin:round; stroke-width:2; stroke-opacity:0.1; fill:none" points="203.964,665.132 2352.76,665.132 "/>
<polyline clip-path="url(#clip082)" style="stroke:#000000; stroke-linecap:round; stroke-linejoin:round; stroke-width:2; stroke-opacity:0.1; fill:none" points="203.964,425.43 2352.76,425.43 "/>
<polyline clip-path="url(#clip082)" style="stroke:#000000; stroke-linecap:round; stroke-linejoin:round; stroke-width:2; stroke-opacity:0.1; fill:none" points="203.964,185.728 2352.76,185.728 "/>
<polyline clip-path="url(#clip080)" style="stroke:#000000; stroke-linecap:round; stroke-linejoin:round; stroke-width:4; stroke-opacity:1; fill:none" points="203.964,1423.18 2352.76,1423.18 "/>
<polyline clip-path="url(#clip080)" style="stroke:#000000; stroke-linecap:round; stroke-linejoin:round; stroke-width:4; stroke-opacity:1; fill:none" points="203.964,47.2441 2352.76,47.2441 "/>
<polyline clip-path="url(#clip080)" style="stroke:#000000; stroke-linecap:round; stroke-linejoin:round; stroke-width:4; stroke-opacity:1; fill:none" points="464.725,1423.18 464.725,1404.28 "/>
<polyline clip-path="url(#clip080)" style="stroke:#000000; stroke-linecap:round; stroke-linejoin:round; stroke-width:4; stroke-opacity:1; fill:none" points="1033.72,1423.18 1033.72,1404.28 "/>
<polyline clip-path="url(#clip080)" style="stroke:#000000; stroke-linecap:round; stroke-linejoin:round; stroke-width:4; stroke-opacity:1; fill:none" points="1602.71,1423.18 1602.71,1404.28 "/>
<polyline clip-path="url(#clip080)" style="stroke:#000000; stroke-linecap:round; stroke-linejoin:round; stroke-width:4; stroke-opacity:1; fill:none" points="2171.7,1423.18 2171.7,1404.28 "/>
<polyline clip-path="url(#clip080)" style="stroke:#000000; stroke-linecap:round; stroke-linejoin:round; stroke-width:4; stroke-opacity:1; fill:none" points="464.725,47.2441 464.725,66.1417 "/>
<polyline clip-path="url(#clip080)" style="stroke:#000000; stroke-linecap:round; stroke-linejoin:round; stroke-width:4; stroke-opacity:1; fill:none" points="1033.72,47.2441 1033.72,66.1417 "/>
<polyline clip-path="url(#clip080)" style="stroke:#000000; stroke-linecap:round; stroke-linejoin:round; stroke-width:4; stroke-opacity:1; fill:none" points="1602.71,47.2441 1602.71,66.1417 "/>
<polyline clip-path="url(#clip080)" style="stroke:#000000; stroke-linecap:round; stroke-linejoin:round; stroke-width:4; stroke-opacity:1; fill:none" points="2171.7,47.2441 2171.7,66.1417 "/>
<path clip-path="url(#clip080)" d="M412.433 1466.44 Q409.285 1466.44 407.433 1468.59 Q405.604 1470.74 405.604 1474.49 Q405.604 1478.22 407.433 1480.39 Q409.285 1482.55 412.433 1482.55 Q415.581 1482.55 417.41 1480.39 Q419.262 1478.22 419.262 1474.49 Q419.262 1470.74 417.41 1468.59 Q415.581 1466.44 412.433 1466.44 M421.716 1451.78 L421.716 1456.04 Q419.956 1455.21 418.151 1454.77 Q416.368 1454.33 414.609 1454.33 Q409.979 1454.33 407.526 1457.45 Q405.095 1460.58 404.748 1466.9 Q406.114 1464.89 408.174 1463.82 Q410.234 1462.73 412.711 1462.73 Q417.919 1462.73 420.928 1465.9 Q423.961 1469.05 423.961 1474.49 Q423.961 1479.82 420.813 1483.03 Q417.665 1486.25 412.433 1486.25 Q406.438 1486.25 403.267 1481.67 Q400.095 1477.06 400.095 1468.33 Q400.095 1460.14 403.984 1455.28 Q407.873 1450.39 414.424 1450.39 Q416.183 1450.39 417.966 1450.74 Q419.771 1451.09 421.716 1451.78 Z" fill="#000000" fill-rule="nonzero" fill-opacity="1" /><path clip-path="url(#clip080)" d="M432.063 1451.02 L450.419 1451.02 L450.419 1454.96 L436.345 1454.96 L436.345 1463.43 Q437.364 1463.08 438.382 1462.92 Q439.401 1462.73 440.419 1462.73 Q446.206 1462.73 449.586 1465.9 Q452.965 1469.08 452.965 1474.49 Q452.965 1480.07 449.493 1483.17 Q446.021 1486.25 439.702 1486.25 Q437.526 1486.25 435.257 1485.88 Q433.012 1485.51 430.604 1484.77 L430.604 1480.07 Q432.688 1481.2 434.91 1481.76 Q437.132 1482.32 439.609 1482.32 Q443.614 1482.32 445.952 1480.21 Q448.289 1478.1 448.289 1474.49 Q448.289 1470.88 445.952 1468.77 Q443.614 1466.67 439.609 1466.67 Q437.734 1466.67 435.859 1467.08 Q434.007 1467.5 432.063 1468.38 L432.063 1451.02 Z" fill="#000000" fill-rule="nonzero" fill-opacity="1" /><path clip-path="url(#clip080)" d="M462.178 1479.7 L467.063 1479.7 L467.063 1485.58 L462.178 1485.58 L462.178 1479.7 Z" fill="#000000" fill-rule="nonzero" fill-opacity="1" /><path clip-path="url(#clip080)" d="M477.294 1451.02 L495.65 1451.02 L495.65 1454.96 L481.576 1454.96 L481.576 1463.43 Q482.595 1463.08 483.613 1462.92 Q484.632 1462.73 485.65 1462.73 Q491.437 1462.73 494.817 1465.9 Q498.197 1469.08 498.197 1474.49 Q498.197 1480.07 494.724 1483.17 Q491.252 1486.25 484.933 1486.25 Q482.757 1486.25 480.488 1485.88 Q478.243 1485.51 475.836 1484.77 L475.836 1480.07 Q477.919 1481.2 480.141 1481.76 Q482.363 1482.32 484.84 1482.32 Q488.845 1482.32 491.183 1480.21 Q493.521 1478.1 493.521 1474.49 Q493.521 1470.88 491.183 1468.77 Q488.845 1466.67 484.84 1466.67 Q482.965 1466.67 481.09 1467.08 Q479.238 1467.5 477.294 1468.38 L477.294 1451.02 Z" fill="#000000" fill-rule="nonzero" fill-opacity="1" /><path clip-path="url(#clip080)" d="M517.409 1454.1 Q513.798 1454.1 511.97 1457.66 Q510.164 1461.2 510.164 1468.33 Q510.164 1475.44 511.97 1479.01 Q513.798 1482.55 517.409 1482.55 Q521.044 1482.55 522.849 1479.01 Q524.678 1475.44 524.678 1468.33 Q524.678 1461.2 522.849 1457.66 Q521.044 1454.1 517.409 1454.1 M517.409 1450.39 Q523.22 1450.39 526.275 1455 Q529.354 1459.58 529.354 1468.33 Q529.354 1477.06 526.275 1481.67 Q523.22 1486.25 517.409 1486.25 Q511.599 1486.25 508.521 1481.67 Q505.465 1477.06 505.465 1468.33 Q505.465 1459.58 508.521 1455 Q511.599 1450.39 517.409 1450.39 Z" fill="#000000" fill-rule="nonzero" fill-opacity="1" /><path clip-path="url(#clip080)" d="M981.922 1466.44 Q978.774 1466.44 976.922 1468.59 Q975.094 1470.74 975.094 1474.49 Q975.094 1478.22 976.922 1480.39 Q978.774 1482.55 981.922 1482.55 Q985.071 1482.55 986.899 1480.39 Q988.751 1478.22 988.751 1474.49 Q988.751 1470.74 986.899 1468.59 Q985.071 1466.44 981.922 1466.44 M991.205 1451.78 L991.205 1456.04 Q989.446 1455.21 987.64 1454.77 Q985.858 1454.33 984.098 1454.33 Q979.469 1454.33 977.015 1457.45 Q974.585 1460.58 974.237 1466.9 Q975.603 1464.89 977.663 1463.82 Q979.723 1462.73 982.2 1462.73 Q987.409 1462.73 990.418 1465.9 Q993.45 1469.05 993.45 1474.49 Q993.45 1479.82 990.302 1483.03 Q987.154 1486.25 981.922 1486.25 Q975.927 1486.25 972.756 1481.67 Q969.585 1477.06 969.585 1468.33 Q969.585 1460.14 973.473 1455.28 Q977.362 1450.39 983.913 1450.39 Q985.672 1450.39 987.455 1450.74 Q989.26 1451.09 991.205 1451.78 Z" fill="#000000" fill-rule="nonzero" fill-opacity="1" /><path clip-path="url(#clip080)" d="M1001.55 1451.02 L1019.91 1451.02 L1019.91 1454.96 L1005.83 1454.96 L1005.83 1463.43 Q1006.85 1463.08 1007.87 1462.92 Q1008.89 1462.73 1009.91 1462.73 Q1015.7 1462.73 1019.08 1465.9 Q1022.45 1469.08 1022.45 1474.49 Q1022.45 1480.07 1018.98 1483.17 Q1015.51 1486.25 1009.19 1486.25 Q1007.01 1486.25 1004.75 1485.88 Q1002.5 1485.51 1000.09 1484.77 L1000.09 1480.07 Q1002.18 1481.2 1004.4 1481.76 Q1006.62 1482.32 1009.1 1482.32 Q1013.1 1482.32 1015.44 1480.21 Q1017.78 1478.1 1017.78 1474.49 Q1017.78 1470.88 1015.44 1468.77 Q1013.1 1466.67 1009.1 1466.67 Q1007.22 1466.67 1005.35 1467.08 Q1003.5 1467.5 1001.55 1468.38 L1001.55 1451.02 Z" fill="#000000" fill-rule="nonzero" fill-opacity="1" /><path clip-path="url(#clip080)" d="M1031.67 1479.7 L1036.55 1479.7 L1036.55 1485.58 L1031.67 1485.58 L1031.67 1479.7 Z" fill="#000000" fill-rule="nonzero" fill-opacity="1" /><path clip-path="url(#clip080)" d="M1046.78 1451.02 L1065.14 1451.02 L1065.14 1454.96 L1051.07 1454.96 L1051.07 1463.43 Q1052.08 1463.08 1053.1 1462.92 Q1054.12 1462.73 1055.14 1462.73 Q1060.93 1462.73 1064.31 1465.9 Q1067.69 1469.08 1067.69 1474.49 Q1067.69 1480.07 1064.21 1483.17 Q1060.74 1486.25 1054.42 1486.25 Q1052.25 1486.25 1049.98 1485.88 Q1047.73 1485.51 1045.32 1484.77 L1045.32 1480.07 Q1047.41 1481.2 1049.63 1481.76 Q1051.85 1482.32 1054.33 1482.32 Q1058.33 1482.32 1060.67 1480.21 Q1063.01 1478.1 1063.01 1474.49 Q1063.01 1470.88 1060.67 1468.77 Q1058.33 1466.67 1054.33 1466.67 Q1052.45 1466.67 1050.58 1467.08 Q1048.73 1467.5 1046.78 1468.38 L1046.78 1451.02 Z" fill="#000000" fill-rule="nonzero" fill-opacity="1" /><path clip-path="url(#clip080)" d="M1076.95 1451.02 L1095.3 1451.02 L1095.3 1454.96 L1081.23 1454.96 L1081.23 1463.43 Q1082.25 1463.08 1083.26 1462.92 Q1084.28 1462.73 1085.3 1462.73 Q1091.09 1462.73 1094.47 1465.9 Q1097.85 1469.08 1097.85 1474.49 Q1097.85 1480.07 1094.38 1483.17 Q1090.9 1486.25 1084.58 1486.25 Q1082.41 1486.25 1080.14 1485.88 Q1077.89 1485.51 1075.49 1484.77 L1075.49 1480.07 Q1077.57 1481.2 1079.79 1481.76 Q1082.01 1482.32 1084.49 1482.32 Q1088.5 1482.32 1090.83 1480.21 Q1093.17 1478.1 1093.17 1474.49 Q1093.17 1470.88 1090.83 1468.77 Q1088.5 1466.67 1084.49 1466.67 Q1082.62 1466.67 1080.74 1467.08 Q1078.89 1467.5 1076.95 1468.38 L1076.95 1451.02 Z" fill="#000000" fill-rule="nonzero" fill-opacity="1" /><path clip-path="url(#clip080)" d="M1550.42 1466.44 Q1547.27 1466.44 1545.42 1468.59 Q1543.59 1470.74 1543.59 1474.49 Q1543.59 1478.22 1545.42 1480.39 Q1547.27 1482.55 1550.42 1482.55 Q1553.56 1482.55 1555.39 1480.39 Q1557.25 1478.22 1557.25 1474.49 Q1557.25 1470.74 1555.39 1468.59 Q1553.56 1466.44 1550.42 1466.44 M1559.7 1451.78 L1559.7 1456.04 Q1557.94 1455.21 1556.13 1454.77 Q1554.35 1454.33 1552.59 1454.33 Q1547.96 1454.33 1545.51 1457.45 Q1543.08 1460.58 1542.73 1466.9 Q1544.1 1464.89 1546.16 1463.82 Q1548.22 1462.73 1550.69 1462.73 Q1555.9 1462.73 1558.91 1465.9 Q1561.94 1469.05 1561.94 1474.49 Q1561.94 1479.82 1558.8 1483.03 Q1555.65 1486.25 1550.42 1486.25 Q1544.42 1486.25 1541.25 1481.67 Q1538.08 1477.06 1538.08 1468.33 Q1538.08 1460.14 1541.97 1455.28 Q1545.86 1450.39 1552.41 1450.39 Q1554.17 1450.39 1555.95 1450.74 Q1557.75 1451.09 1559.7 1451.78 Z" fill="#000000" fill-rule="nonzero" fill-opacity="1" /><path clip-path="url(#clip080)" d="M1570.05 1451.02 L1588.4 1451.02 L1588.4 1454.96 L1574.33 1454.96 L1574.33 1463.43 Q1575.35 1463.08 1576.37 1462.92 Q1577.38 1462.73 1578.4 1462.73 Q1584.19 1462.73 1587.57 1465.9 Q1590.95 1469.08 1590.95 1474.49 Q1590.95 1480.07 1587.48 1483.17 Q1584 1486.25 1577.68 1486.25 Q1575.51 1486.25 1573.24 1485.88 Q1570.99 1485.51 1568.59 1484.77 L1568.59 1480.07 Q1570.67 1481.2 1572.89 1481.76 Q1575.12 1482.32 1577.59 1482.32 Q1581.6 1482.32 1583.93 1480.21 Q1586.27 1478.1 1586.27 1474.49 Q1586.27 1470.88 1583.93 1468.77 Q1581.6 1466.67 1577.59 1466.67 Q1575.72 1466.67 1573.84 1467.08 Q1571.99 1467.5 1570.05 1468.38 L1570.05 1451.02 Z" fill="#000000" fill-rule="nonzero" fill-opacity="1" /><path clip-path="url(#clip080)" d="M1600.16 1479.7 L1605.05 1479.7 L1605.05 1485.58 L1600.16 1485.58 L1600.16 1479.7 Z" fill="#000000" fill-rule="nonzero" fill-opacity="1" /><path clip-path="url(#clip080)" d="M1625.81 1466.44 Q1622.66 1466.44 1620.81 1468.59 Q1618.98 1470.74 1618.98 1474.49 Q1618.98 1478.22 1620.81 1480.39 Q1622.66 1482.55 1625.81 1482.55 Q1628.96 1482.55 1630.79 1480.39 Q1632.64 1478.22 1632.64 1474.49 Q1632.64 1470.74 1630.79 1468.59 Q1628.96 1466.44 1625.81 1466.44 M1635.09 1451.78 L1635.09 1456.04 Q1633.33 1455.21 1631.53 1454.77 Q1629.74 1454.33 1627.99 1454.33 Q1623.36 1454.33 1620.9 1457.45 Q1618.47 1460.58 1618.12 1466.9 Q1619.49 1464.89 1621.55 1463.82 Q1623.61 1462.73 1626.09 1462.73 Q1631.3 1462.73 1634.3 1465.9 Q1637.34 1469.05 1637.34 1474.49 Q1637.34 1479.82 1634.19 1483.03 Q1631.04 1486.25 1625.81 1486.25 Q1619.81 1486.25 1616.64 1481.67 Q1613.47 1477.06 1613.47 1468.33 Q1613.47 1460.14 1617.36 1455.28 Q1621.25 1450.39 1627.8 1450.39 Q1629.56 1450.39 1631.34 1450.74 Q1633.15 1451.09 1635.09 1451.78 Z" fill="#000000" fill-rule="nonzero" fill-opacity="1" /><path clip-path="url(#clip080)" d="M1655.39 1454.1 Q1651.78 1454.1 1649.95 1457.66 Q1648.15 1461.2 1648.15 1468.33 Q1648.15 1475.44 1649.95 1479.01 Q1651.78 1482.55 1655.39 1482.55 Q1659.03 1482.55 1660.83 1479.01 Q1662.66 1475.44 1662.66 1468.33 Q1662.66 1461.2 1660.83 1457.66 Q1659.03 1454.1 1655.39 1454.1 M1655.39 1450.39 Q1661.2 1450.39 1664.26 1455 Q1667.34 1459.58 1667.34 1468.33 Q1667.34 1477.06 1664.26 1481.67 Q1661.2 1486.25 1655.39 1486.25 Q1649.58 1486.25 1646.5 1481.67 Q1643.45 1477.06 1643.45 1468.33 Q1643.45 1459.58 1646.5 1455 Q1649.58 1450.39 1655.39 1450.39 Z" fill="#000000" fill-rule="nonzero" fill-opacity="1" /><path clip-path="url(#clip080)" d="M2119.91 1466.44 Q2116.76 1466.44 2114.91 1468.59 Q2113.08 1470.74 2113.08 1474.49 Q2113.08 1478.22 2114.91 1480.39 Q2116.76 1482.55 2119.91 1482.55 Q2123.05 1482.55 2124.88 1480.39 Q2126.73 1478.22 2126.73 1474.49 Q2126.73 1470.74 2124.88 1468.59 Q2123.05 1466.44 2119.91 1466.44 M2129.19 1451.78 L2129.19 1456.04 Q2127.43 1455.21 2125.62 1454.77 Q2123.84 1454.33 2122.08 1454.33 Q2117.45 1454.33 2115 1457.45 Q2112.57 1460.58 2112.22 1466.9 Q2113.59 1464.89 2115.65 1463.82 Q2117.71 1462.73 2120.18 1462.73 Q2125.39 1462.73 2128.4 1465.9 Q2131.43 1469.05 2131.43 1474.49 Q2131.43 1479.82 2128.29 1483.03 Q2125.14 1486.25 2119.91 1486.25 Q2113.91 1486.25 2110.74 1481.67 Q2107.57 1477.06 2107.57 1468.33 Q2107.57 1460.14 2111.46 1455.28 Q2115.35 1450.39 2121.9 1450.39 Q2123.66 1450.39 2125.44 1450.74 Q2127.24 1451.09 2129.19 1451.78 Z" fill="#000000" fill-rule="nonzero" fill-opacity="1" /><path clip-path="url(#clip080)" d="M2139.54 1451.02 L2157.89 1451.02 L2157.89 1454.96 L2143.82 1454.96 L2143.82 1463.43 Q2144.84 1463.08 2145.85 1462.92 Q2146.87 1462.73 2147.89 1462.73 Q2153.68 1462.73 2157.06 1465.9 Q2160.44 1469.08 2160.44 1474.49 Q2160.44 1480.07 2156.97 1483.17 Q2153.49 1486.25 2147.17 1486.25 Q2145 1486.25 2142.73 1485.88 Q2140.48 1485.51 2138.08 1484.77 L2138.08 1480.07 Q2140.16 1481.2 2142.38 1481.76 Q2144.6 1482.32 2147.08 1482.32 Q2151.09 1482.32 2153.42 1480.21 Q2155.76 1478.1 2155.76 1474.49 Q2155.76 1470.88 2153.42 1468.77 Q2151.09 1466.67 2147.08 1466.67 Q2145.21 1466.67 2143.33 1467.08 Q2141.48 1467.5 2139.54 1468.38 L2139.54 1451.02 Z" fill="#000000" fill-rule="nonzero" fill-opacity="1" /><path clip-path="url(#clip080)" d="M2169.65 1479.7 L2174.53 1479.7 L2174.53 1485.58 L2169.65 1485.58 L2169.65 1479.7 Z" fill="#000000" fill-rule="nonzero" fill-opacity="1" /><path clip-path="url(#clip080)" d="M2195.3 1466.44 Q2192.15 1466.44 2190.3 1468.59 Q2188.47 1470.74 2188.47 1474.49 Q2188.47 1478.22 2190.3 1480.39 Q2192.15 1482.55 2195.3 1482.55 Q2198.45 1482.55 2200.28 1480.39 Q2202.13 1478.22 2202.13 1474.49 Q2202.13 1470.74 2200.28 1468.59 Q2198.45 1466.44 2195.3 1466.44 M2204.58 1451.78 L2204.58 1456.04 Q2202.82 1455.21 2201.02 1454.77 Q2199.23 1454.33 2197.47 1454.33 Q2192.85 1454.33 2190.39 1457.45 Q2187.96 1460.58 2187.61 1466.9 Q2188.98 1464.89 2191.04 1463.82 Q2193.1 1462.73 2195.58 1462.73 Q2200.78 1462.73 2203.79 1465.9 Q2206.83 1469.05 2206.83 1474.49 Q2206.83 1479.82 2203.68 1483.03 Q2200.53 1486.25 2195.3 1486.25 Q2189.3 1486.25 2186.13 1481.67 Q2182.96 1477.06 2182.96 1468.33 Q2182.96 1460.14 2186.85 1455.28 Q2190.74 1450.39 2197.29 1450.39 Q2199.05 1450.39 2200.83 1450.74 Q2202.64 1451.09 2204.58 1451.78 Z" fill="#000000" fill-rule="nonzero" fill-opacity="1" /><path clip-path="url(#clip080)" d="M2214.93 1451.02 L2233.28 1451.02 L2233.28 1454.96 L2219.21 1454.96 L2219.21 1463.43 Q2220.23 1463.08 2221.25 1462.92 Q2222.27 1462.73 2223.28 1462.73 Q2229.07 1462.73 2232.45 1465.9 Q2235.83 1469.08 2235.83 1474.49 Q2235.83 1480.07 2232.36 1483.17 Q2228.89 1486.25 2222.57 1486.25 Q2220.39 1486.25 2218.12 1485.88 Q2215.88 1485.51 2213.47 1484.77 L2213.47 1480.07 Q2215.55 1481.2 2217.78 1481.76 Q2220 1482.32 2222.47 1482.32 Q2226.48 1482.32 2228.82 1480.21 Q2231.16 1478.1 2231.16 1474.49 Q2231.16 1470.88 2228.82 1468.77 Q2226.48 1466.67 2222.47 1466.67 Q2220.6 1466.67 2218.72 1467.08 Q2216.87 1467.5 2214.93 1468.38 L2214.93 1451.02 Z" fill="#000000" fill-rule="nonzero" fill-opacity="1" /><path clip-path="url(#clip080)" d="M1156.27 1526.86 L1147.54 1550.51 L1165.02 1550.51 L1156.27 1526.86 M1152.64 1520.52 L1159.93 1520.52 L1178.04 1568.04 L1171.35 1568.04 L1167.02 1555.85 L1145.6 1555.85 L1141.27 1568.04 L1134.49 1568.04 L1152.64 1520.52 Z" fill="#000000" fill-rule="nonzero" fill-opacity="1" /><path clip-path="url(#clip080)" d="M1208.18 1549.81 Q1208.18 1543.44 1205.54 1539.94 Q1202.93 1536.44 1198.18 1536.44 Q1193.47 1536.44 1190.83 1539.94 Q1188.22 1543.44 1188.22 1549.81 Q1188.22 1556.14 1190.83 1559.64 Q1193.47 1563.14 1198.18 1563.14 Q1202.93 1563.14 1205.54 1559.64 Q1208.18 1556.14 1208.18 1549.81 M1214.03 1563.62 Q1214.03 1572.72 1209.99 1577.15 Q1205.95 1581.6 1197.61 1581.6 Q1194.52 1581.6 1191.79 1581.13 Q1189.05 1580.68 1186.47 1579.72 L1186.47 1574.03 Q1189.05 1575.43 1191.56 1576.1 Q1194.08 1576.76 1196.69 1576.76 Q1202.45 1576.76 1205.31 1573.74 Q1208.18 1570.75 1208.18 1564.67 L1208.18 1561.77 Q1206.36 1564.92 1203.53 1566.48 Q1200.7 1568.04 1196.75 1568.04 Q1190.19 1568.04 1186.18 1563.05 Q1182.17 1558.05 1182.17 1549.81 Q1182.17 1541.53 1186.18 1536.53 Q1190.19 1531.54 1196.75 1531.54 Q1200.7 1531.54 1203.53 1533.1 Q1206.36 1534.66 1208.18 1537.81 L1208.18 1532.4 L1214.03 1532.4 L1214.03 1563.62 Z" fill="#000000" fill-rule="nonzero" fill-opacity="1" /><path clip-path="url(#clip080)" d="M1256.59 1548.76 L1256.59 1551.62 L1229.66 1551.62 Q1230.04 1557.67 1233.29 1560.85 Q1236.57 1564 1242.39 1564 Q1245.77 1564 1248.92 1563.17 Q1252.1 1562.35 1255.22 1560.69 L1255.22 1566.23 Q1252.07 1567.57 1248.76 1568.27 Q1245.45 1568.97 1242.04 1568.97 Q1233.51 1568.97 1228.52 1564 Q1223.55 1559.04 1223.55 1550.57 Q1223.55 1541.82 1228.26 1536.69 Q1233 1531.54 1241.02 1531.54 Q1248.22 1531.54 1252.39 1536.18 Q1256.59 1540.8 1256.59 1548.76 M1250.73 1547.04 Q1250.67 1542.23 1248.03 1539.37 Q1245.42 1536.5 1241.09 1536.5 Q1236.19 1536.5 1233.23 1539.27 Q1230.3 1542.04 1229.85 1547.07 L1250.73 1547.04 Z" fill="#000000" fill-rule="nonzero" fill-opacity="1" /><path clip-path="url(#clip080)" d="M1300.99 1518.58 Q1296.72 1525.9 1294.66 1533.06 Q1292.59 1540.23 1292.59 1547.58 Q1292.59 1554.93 1294.66 1562.16 Q1296.76 1569.35 1300.99 1576.64 L1295.9 1576.64 Q1291.12 1569.16 1288.74 1561.93 Q1286.38 1554.71 1286.38 1547.58 Q1286.38 1540.48 1288.74 1533.29 Q1291.09 1526.09 1295.9 1518.58 L1300.99 1518.58 Z" fill="#000000" fill-rule="nonzero" fill-opacity="1" /><path clip-path="url(#clip080)" d="M1312.61 1520.52 L1322.19 1520.52 L1334.31 1552.86 L1346.5 1520.52 L1356.09 1520.52 L1356.09 1568.04 L1349.81 1568.04 L1349.81 1526.32 L1337.56 1558.91 L1331.1 1558.91 L1318.85 1526.32 L1318.85 1568.04 L1312.61 1568.04 L1312.61 1520.52 Z" fill="#000000" fill-rule="nonzero" fill-opacity="1" /><path clip-path="url(#clip080)" d="M1384.79 1550.12 Q1377.7 1550.12 1374.96 1551.75 Q1372.22 1553.37 1372.22 1557.29 Q1372.22 1560.4 1374.26 1562.25 Q1376.33 1564.07 1379.86 1564.07 Q1384.73 1564.07 1387.66 1560.63 Q1390.62 1557.16 1390.62 1551.43 L1390.62 1550.12 L1384.79 1550.12 M1396.48 1547.71 L1396.48 1568.04 L1390.62 1568.04 L1390.62 1562.63 Q1388.61 1565.88 1385.62 1567.44 Q1382.63 1568.97 1378.3 1568.97 Q1372.83 1568.97 1369.58 1565.91 Q1366.37 1562.82 1366.37 1557.67 Q1366.37 1551.65 1370.38 1548.6 Q1374.42 1545.54 1382.41 1545.54 L1390.62 1545.54 L1390.62 1544.97 Q1390.62 1540.93 1387.95 1538.73 Q1385.3 1536.5 1380.5 1536.5 Q1377.44 1536.5 1374.55 1537.23 Q1371.65 1537.97 1368.98 1539.43 L1368.98 1534.02 Q1372.19 1532.78 1375.21 1532.17 Q1378.24 1531.54 1381.1 1531.54 Q1388.84 1531.54 1392.66 1535.55 Q1396.48 1539.56 1396.48 1547.71 Z" fill="#000000" fill-rule="nonzero" fill-opacity="1" /><path clip-path="url(#clip080)" d="M1407.62 1518.58 L1412.71 1518.58 Q1417.48 1526.09 1419.84 1533.29 Q1422.22 1540.48 1422.22 1547.58 Q1422.22 1554.71 1419.84 1561.93 Q1417.48 1569.16 1412.71 1576.64 L1407.62 1576.64 Q1411.85 1569.35 1413.92 1562.16 Q1416.02 1554.93 1416.02 1547.58 Q1416.02 1540.23 1413.92 1533.06 Q1411.85 1525.9 1407.62 1518.58 Z" fill="#000000" fill-rule="nonzero" fill-opacity="1" /><polyline clip-path="url(#clip080)" style="stroke:#000000; stroke-linecap:round; stroke-linejoin:round; stroke-width:4; stroke-opacity:1; fill:none" points="203.964,1423.18 203.964,47.2441 "/>
<polyline clip-path="url(#clip080)" style="stroke:#000000; stroke-linecap:round; stroke-linejoin:round; stroke-width:4; stroke-opacity:1; fill:none" points="2352.76,1423.18 2352.76,47.2441 "/>
<polyline clip-path="url(#clip080)" style="stroke:#000000; stroke-linecap:round; stroke-linejoin:round; stroke-width:4; stroke-opacity:1; fill:none" points="203.964,1384.24 222.861,1384.24 "/>
<polyline clip-path="url(#clip080)" style="stroke:#000000; stroke-linecap:round; stroke-linejoin:round; stroke-width:4; stroke-opacity:1; fill:none" points="203.964,1144.54 222.861,1144.54 "/>
<polyline clip-path="url(#clip080)" style="stroke:#000000; stroke-linecap:round; stroke-linejoin:round; stroke-width:4; stroke-opacity:1; fill:none" points="203.964,904.834 222.861,904.834 "/>
<polyline clip-path="url(#clip080)" style="stroke:#000000; stroke-linecap:round; stroke-linejoin:round; stroke-width:4; stroke-opacity:1; fill:none" points="203.964,665.132 222.861,665.132 "/>
<polyline clip-path="url(#clip080)" style="stroke:#000000; stroke-linecap:round; stroke-linejoin:round; stroke-width:4; stroke-opacity:1; fill:none" points="203.964,425.43 222.861,425.43 "/>
<polyline clip-path="url(#clip080)" style="stroke:#000000; stroke-linecap:round; stroke-linejoin:round; stroke-width:4; stroke-opacity:1; fill:none" points="203.964,185.728 222.861,185.728 "/>
<polyline clip-path="url(#clip080)" style="stroke:#000000; stroke-linecap:round; stroke-linejoin:round; stroke-width:4; stroke-opacity:1; fill:none" points="2352.76,1384.24 2333.86,1384.24 "/>
<polyline clip-path="url(#clip080)" style="stroke:#000000; stroke-linecap:round; stroke-linejoin:round; stroke-width:4; stroke-opacity:1; fill:none" points="2352.76,1144.54 2333.86,1144.54 "/>
<polyline clip-path="url(#clip080)" style="stroke:#000000; stroke-linecap:round; stroke-linejoin:round; stroke-width:4; stroke-opacity:1; fill:none" points="2352.76,904.834 2333.86,904.834 "/>
<polyline clip-path="url(#clip080)" style="stroke:#000000; stroke-linecap:round; stroke-linejoin:round; stroke-width:4; stroke-opacity:1; fill:none" points="2352.76,665.132 2333.86,665.132 "/>
<polyline clip-path="url(#clip080)" style="stroke:#000000; stroke-linecap:round; stroke-linejoin:round; stroke-width:4; stroke-opacity:1; fill:none" points="2352.76,425.43 2333.86,425.43 "/>
<polyline clip-path="url(#clip080)" style="stroke:#000000; stroke-linecap:round; stroke-linejoin:round; stroke-width:4; stroke-opacity:1; fill:none" points="2352.76,185.728 2333.86,185.728 "/>
<path clip-path="url(#clip080)" d="M156.019 1370.04 Q152.408 1370.04 150.579 1373.6 Q148.774 1377.14 148.774 1384.27 Q148.774 1391.38 150.579 1394.94 Q152.408 1398.49 156.019 1398.49 Q159.653 1398.49 161.459 1394.94 Q163.288 1391.38 163.288 1384.27 Q163.288 1377.14 161.459 1373.6 Q159.653 1370.04 156.019 1370.04 M156.019 1366.33 Q161.829 1366.33 164.885 1370.94 Q167.964 1375.52 167.964 1384.27 Q167.964 1393 164.885 1397.61 Q161.829 1402.19 156.019 1402.19 Q150.209 1402.19 147.13 1397.61 Q144.075 1393 144.075 1384.27 Q144.075 1375.52 147.13 1370.94 Q150.209 1366.33 156.019 1366.33 Z" fill="#000000" fill-rule="nonzero" fill-opacity="1" /><path clip-path="url(#clip080)" d="M147.061 1127.26 L165.417 1127.26 L165.417 1131.19 L151.343 1131.19 L151.343 1139.66 Q152.362 1139.32 153.38 1139.15 Q154.399 1138.97 155.417 1138.97 Q161.204 1138.97 164.584 1142.14 Q167.964 1145.31 167.964 1150.73 Q167.964 1156.31 164.491 1159.41 Q161.019 1162.49 154.7 1162.49 Q152.524 1162.49 150.255 1162.12 Q148.01 1161.75 145.603 1161.01 L145.603 1156.31 Q147.686 1157.44 149.908 1158 Q152.13 1158.55 154.607 1158.55 Q158.612 1158.55 160.95 1156.45 Q163.288 1154.34 163.288 1150.73 Q163.288 1147.12 160.95 1145.01 Q158.612 1142.9 154.607 1142.9 Q152.732 1142.9 150.857 1143.32 Q149.005 1143.74 147.061 1144.62 L147.061 1127.26 Z" fill="#000000" fill-rule="nonzero" fill-opacity="1" /><path clip-path="url(#clip080)" d="M116.668 918.179 L124.306 918.179 L124.306 891.813 L115.996 893.48 L115.996 889.221 L124.26 887.554 L128.936 887.554 L128.936 918.179 L136.575 918.179 L136.575 922.114 L116.668 922.114 L116.668 918.179 Z" fill="#000000" fill-rule="nonzero" fill-opacity="1" /><path clip-path="url(#clip080)" d="M156.019 890.633 Q152.408 890.633 150.579 894.198 Q148.774 897.739 148.774 904.869 Q148.774 911.975 150.579 915.54 Q152.408 919.082 156.019 919.082 Q159.653 919.082 161.459 915.54 Q163.288 911.975 163.288 904.869 Q163.288 897.739 161.459 894.198 Q159.653 890.633 156.019 890.633 M156.019 886.929 Q161.829 886.929 164.885 891.536 Q167.964 896.119 167.964 904.869 Q167.964 913.596 164.885 918.202 Q161.829 922.785 156.019 922.785 Q150.209 922.785 147.13 918.202 Q144.075 913.596 144.075 904.869 Q144.075 896.119 147.13 891.536 Q150.209 886.929 156.019 886.929 Z" fill="#000000" fill-rule="nonzero" fill-opacity="1" /><path clip-path="url(#clip080)" d="M117.663 678.477 L125.302 678.477 L125.302 652.111 L116.992 653.778 L116.992 649.519 L125.255 647.852 L129.931 647.852 L129.931 678.477 L137.57 678.477 L137.57 682.412 L117.663 682.412 L117.663 678.477 Z" fill="#000000" fill-rule="nonzero" fill-opacity="1" /><path clip-path="url(#clip080)" d="M147.061 647.852 L165.417 647.852 L165.417 651.787 L151.343 651.787 L151.343 660.259 Q152.362 659.912 153.38 659.75 Q154.399 659.565 155.417 659.565 Q161.204 659.565 164.584 662.736 Q167.964 665.907 167.964 671.324 Q167.964 676.903 164.491 680.005 Q161.019 683.083 154.7 683.083 Q152.524 683.083 150.255 682.713 Q148.01 682.343 145.603 681.602 L145.603 676.903 Q147.686 678.037 149.908 678.593 Q152.13 679.148 154.607 679.148 Q158.612 679.148 160.95 677.042 Q163.288 674.935 163.288 671.324 Q163.288 667.713 160.95 665.607 Q158.612 663.5 154.607 663.5 Q152.732 663.5 150.857 663.917 Q149.005 664.333 147.061 665.213 L147.061 647.852 Z" fill="#000000" fill-rule="nonzero" fill-opacity="1" /><path clip-path="url(#clip080)" d="M119.885 438.775 L136.204 438.775 L136.204 442.71 L114.26 442.71 L114.26 438.775 Q116.922 436.02 121.505 431.391 Q126.112 426.738 127.292 425.395 Q129.538 422.872 130.417 421.136 Q131.32 419.377 131.32 417.687 Q131.32 414.932 129.376 413.196 Q127.455 411.46 124.353 411.46 Q122.154 411.46 119.7 412.224 Q117.269 412.988 114.492 414.539 L114.492 409.817 Q117.316 408.682 119.769 408.104 Q122.223 407.525 124.26 407.525 Q129.63 407.525 132.825 410.21 Q136.019 412.895 136.019 417.386 Q136.019 419.516 135.209 421.437 Q134.422 423.335 132.316 425.928 Q131.737 426.599 128.635 429.816 Q125.533 433.011 119.885 438.775 Z" fill="#000000" fill-rule="nonzero" fill-opacity="1" /><path clip-path="url(#clip080)" d="M156.019 411.229 Q152.408 411.229 150.579 414.793 Q148.774 418.335 148.774 425.465 Q148.774 432.571 150.579 436.136 Q152.408 439.678 156.019 439.678 Q159.653 439.678 161.459 436.136 Q163.288 432.571 163.288 425.465 Q163.288 418.335 161.459 414.793 Q159.653 411.229 156.019 411.229 M156.019 407.525 Q161.829 407.525 164.885 412.131 Q167.964 416.715 167.964 425.465 Q167.964 434.191 164.885 438.798 Q161.829 443.381 156.019 443.381 Q150.209 443.381 147.13 438.798 Q144.075 434.191 144.075 425.465 Q144.075 416.715 147.13 412.131 Q150.209 407.525 156.019 407.525 Z" fill="#000000" fill-rule="nonzero" fill-opacity="1" /><path clip-path="url(#clip080)" d="M120.88 199.073 L137.2 199.073 L137.2 203.008 L115.256 203.008 L115.256 199.073 Q117.918 196.318 122.501 191.688 Q127.107 187.036 128.288 185.693 Q130.533 183.17 131.413 181.434 Q132.316 179.675 132.316 177.985 Q132.316 175.23 130.371 173.494 Q128.45 171.758 125.348 171.758 Q123.149 171.758 120.695 172.522 Q118.265 173.286 115.487 174.837 L115.487 170.114 Q118.311 168.98 120.765 168.402 Q123.218 167.823 125.255 167.823 Q130.626 167.823 133.82 170.508 Q137.015 173.193 137.015 177.684 Q137.015 179.814 136.204 181.735 Q135.417 183.633 133.311 186.226 Q132.732 186.897 129.63 190.114 Q126.529 193.309 120.88 199.073 Z" fill="#000000" fill-rule="nonzero" fill-opacity="1" /><path clip-path="url(#clip080)" d="M147.061 168.448 L165.417 168.448 L165.417 172.383 L151.343 172.383 L151.343 180.855 Q152.362 180.508 153.38 180.346 Q154.399 180.161 155.417 180.161 Q161.204 180.161 164.584 183.332 Q167.964 186.503 167.964 191.92 Q167.964 197.499 164.491 200.6 Q161.019 203.679 154.7 203.679 Q152.524 203.679 150.255 203.309 Q148.01 202.938 145.603 202.198 L145.603 197.499 Q147.686 198.633 149.908 199.188 Q152.13 199.744 154.607 199.744 Q158.612 199.744 160.95 197.637 Q163.288 195.531 163.288 191.92 Q163.288 188.309 160.95 186.202 Q158.612 184.096 154.607 184.096 Q152.732 184.096 150.857 184.513 Q149.005 184.929 147.061 185.809 L147.061 168.448 Z" fill="#000000" fill-rule="nonzero" fill-opacity="1" /><path clip-path="url(#clip080)" d="M21.7677 1026.76 L39.6235 1026.76 L39.6235 1018.68 Q39.6235 1014.19 37.3 1011.74 Q34.9765 1009.29 30.6797 1009.29 Q26.4147 1009.29 24.0912 1011.74 Q21.7677 1014.19 21.7677 1018.68 L21.7677 1026.76 M16.4842 1033.19 L16.4842 1018.68 Q16.4842 1010.69 20.1126 1006.61 Q23.7092 1002.51 30.6797 1002.51 Q37.7138 1002.51 41.3104 1006.61 Q44.907 1010.69 44.907 1018.68 L44.907 1026.76 L64.0042 1026.76 L64.0042 1033.19 L16.4842 1033.19 Z" fill="#000000" fill-rule="nonzero" fill-opacity="1" /><path clip-path="url(#clip080)" d="M33.8307 974.626 Q33.2578 975.613 33.0032 976.791 Q32.7167 977.936 32.7167 979.337 Q32.7167 984.302 35.9632 986.976 Q39.1779 989.617 45.2253 989.617 L64.0042 989.617 L64.0042 995.506 L28.3562 995.506 L28.3562 989.617 L33.8944 989.617 Q30.6479 987.771 29.0883 984.811 Q27.4968 981.851 27.4968 977.618 Q27.4968 977.013 27.5923 976.281 Q27.656 975.549 27.8151 974.658 L33.8307 974.626 Z" fill="#000000" fill-rule="nonzero" fill-opacity="1" /><path clip-path="url(#clip080)" d="M32.4621 956.102 Q32.4621 960.813 36.1542 963.55 Q39.8145 966.287 46.212 966.287 Q52.6095 966.287 56.3017 963.582 Q59.9619 960.844 59.9619 956.102 Q59.9619 951.423 56.2698 948.686 Q52.5777 945.949 46.212 945.949 Q39.8781 945.949 36.186 948.686 Q32.4621 951.423 32.4621 956.102 M27.4968 956.102 Q27.4968 948.463 32.4621 944.103 Q37.4273 939.742 46.212 939.742 Q54.9649 939.742 59.9619 944.103 Q64.9272 948.463 64.9272 956.102 Q64.9272 963.773 59.9619 968.133 Q54.9649 972.462 46.212 972.462 Q37.4273 972.462 32.4621 968.133 Q27.4968 963.773 27.4968 956.102 Z" fill="#000000" fill-rule="nonzero" fill-opacity="1" /><path clip-path="url(#clip080)" d="M46.212 904.444 Q39.7508 904.444 36.0905 907.118 Q32.3984 909.76 32.3984 914.407 Q32.3984 919.054 36.0905 921.727 Q39.7508 924.369 46.212 924.369 Q52.6732 924.369 56.3653 921.727 Q60.0256 919.054 60.0256 914.407 Q60.0256 909.76 56.3653 907.118 Q52.6732 904.444 46.212 904.444 M33.7671 924.369 Q30.5842 922.523 29.0564 919.722 Q27.4968 916.889 27.4968 912.974 Q27.4968 906.481 32.6531 902.439 Q37.8093 898.365 46.212 898.365 Q54.6147 898.365 59.771 902.439 Q64.9272 906.481 64.9272 912.974 Q64.9272 916.889 63.3994 919.722 Q61.8398 922.523 58.657 924.369 L64.0042 924.369 L64.0042 930.257 L14.479 930.257 L14.479 924.369 L33.7671 924.369 Z" fill="#000000" fill-rule="nonzero" fill-opacity="1" /><path clip-path="url(#clip080)" d="M46.0847 872.457 Q46.0847 879.554 47.7079 882.292 Q49.3312 885.029 53.2461 885.029 Q56.3653 885.029 58.2114 882.992 Q60.0256 880.923 60.0256 877.39 Q60.0256 872.52 56.5881 869.592 Q53.1188 866.632 47.3897 866.632 L46.0847 866.632 L46.0847 872.457 M43.6657 860.776 L64.0042 860.776 L64.0042 866.632 L58.5933 866.632 Q61.8398 868.637 63.3994 871.629 Q64.9272 874.621 64.9272 878.95 Q64.9272 884.424 61.8716 887.671 Q58.7843 890.885 53.6281 890.885 Q47.6125 890.885 44.5569 886.875 Q41.5014 882.833 41.5014 874.844 L41.5014 866.632 L40.9285 866.632 Q36.8862 866.632 34.6901 869.306 Q32.4621 871.947 32.4621 876.753 Q32.4621 879.809 33.1941 882.705 Q33.9262 885.602 35.3903 888.275 L29.9795 888.275 Q28.7381 885.061 28.1334 882.037 Q27.4968 879.013 27.4968 876.149 Q27.4968 868.414 31.5072 864.595 Q35.5176 860.776 43.6657 860.776 Z" fill="#000000" fill-rule="nonzero" fill-opacity="1" /><path clip-path="url(#clip080)" d="M46.212 823.122 Q39.7508 823.122 36.0905 825.796 Q32.3984 828.438 32.3984 833.085 Q32.3984 837.732 36.0905 840.405 Q39.7508 843.047 46.212 843.047 Q52.6732 843.047 56.3653 840.405 Q60.0256 837.732 60.0256 833.085 Q60.0256 828.438 56.3653 825.796 Q52.6732 823.122 46.212 823.122 M33.7671 843.047 Q30.5842 841.201 29.0564 838.4 Q27.4968 835.567 27.4968 831.652 Q27.4968 825.159 32.6531 821.117 Q37.8093 817.043 46.212 817.043 Q54.6147 817.043 59.771 821.117 Q64.9272 825.159 64.9272 831.652 Q64.9272 835.567 63.3994 838.4 Q61.8398 841.201 58.657 843.047 L64.0042 843.047 L64.0042 848.935 L14.479 848.935 L14.479 843.047 L33.7671 843.047 Z" fill="#000000" fill-rule="nonzero" fill-opacity="1" /><path clip-path="url(#clip080)" d="M28.3562 807.335 L28.3562 801.479 L64.0042 801.479 L64.0042 807.335 L28.3562 807.335 M14.479 807.335 L14.479 801.479 L21.895 801.479 L21.895 807.335 L14.479 807.335 Z" fill="#000000" fill-rule="nonzero" fill-opacity="1" /><path clip-path="url(#clip080)" d="M14.479 789.225 L14.479 783.369 L64.0042 783.369 L64.0042 789.225 L14.479 789.225 Z" fill="#000000" fill-rule="nonzero" fill-opacity="1" /><path clip-path="url(#clip080)" d="M28.3562 771.115 L28.3562 765.258 L64.0042 765.258 L64.0042 771.115 L28.3562 771.115 M14.479 771.115 L14.479 765.258 L21.895 765.258 L21.895 771.115 L14.479 771.115 Z" fill="#000000" fill-rule="nonzero" fill-opacity="1" /><path clip-path="url(#clip080)" d="M18.2347 747.211 L28.3562 747.211 L28.3562 735.148 L32.9077 735.148 L32.9077 747.211 L52.2594 747.211 Q56.6199 747.211 57.8613 746.034 Q59.1026 744.824 59.1026 741.164 L59.1026 735.148 L64.0042 735.148 L64.0042 741.164 Q64.0042 747.943 61.4897 750.521 Q58.9434 753.1 52.2594 753.1 L32.9077 753.1 L32.9077 757.396 L28.3562 757.396 L28.3562 753.1 L18.2347 753.1 L18.2347 747.211 Z" fill="#000000" fill-rule="nonzero" fill-opacity="1" /><path clip-path="url(#clip080)" d="M67.3143 712.614 Q73.68 715.096 75.6216 717.452 Q77.5631 719.807 77.5631 723.754 L77.5631 728.432 L72.6615 728.432 L72.6615 724.995 Q72.6615 722.576 71.5157 721.239 Q70.3699 719.902 66.1048 718.279 L63.4312 717.229 L28.3562 731.647 L28.3562 725.441 L56.238 714.301 L28.3562 703.161 L28.3562 696.954 L67.3143 712.614 Z" fill="#000000" fill-rule="nonzero" fill-opacity="1" /><path clip-path="url(#clip080)" d="M33.7671 644.692 L14.479 644.692 L14.479 638.835 L64.0042 638.835 L64.0042 644.692 L58.657 644.692 Q61.8398 646.538 63.3994 649.37 Q64.9272 652.171 64.9272 656.118 Q64.9272 662.579 59.771 666.653 Q54.6147 670.696 46.212 670.696 Q37.8093 670.696 32.6531 666.653 Q27.4968 662.579 27.4968 656.118 Q27.4968 652.171 29.0564 649.37 Q30.5842 646.538 33.7671 644.692 M46.212 664.648 Q52.6732 664.648 56.3653 662.006 Q60.0256 659.333 60.0256 654.686 Q60.0256 650.039 56.3653 647.365 Q52.6732 644.692 46.212 644.692 Q39.7508 644.692 36.0905 647.365 Q32.3984 650.039 32.3984 654.686 Q32.3984 659.333 36.0905 662.006 Q39.7508 664.648 46.212 664.648 Z" fill="#000000" fill-rule="nonzero" fill-opacity="1" /><path clip-path="url(#clip080)" d="M44.7161 596.28 L47.5806 596.28 L47.5806 623.207 Q53.6281 622.825 56.8109 619.579 Q59.9619 616.301 59.9619 610.476 Q59.9619 607.102 59.1344 603.951 Q58.3069 600.768 56.6518 597.649 L62.1899 597.649 Q63.5267 600.8 64.227 604.11 Q64.9272 607.42 64.9272 610.826 Q64.9272 619.356 59.9619 624.353 Q54.9967 629.318 46.5303 629.318 Q37.7774 629.318 32.6531 624.608 Q27.4968 619.865 27.4968 611.845 Q27.4968 604.651 32.1438 600.482 Q36.7589 596.28 44.7161 596.28 M42.9973 602.137 Q38.1912 602.201 35.3266 604.842 Q32.4621 607.452 32.4621 611.781 Q32.4621 616.683 35.2312 619.643 Q38.0002 622.571 43.0292 623.016 L42.9973 602.137 Z" fill="#000000" fill-rule="nonzero" fill-opacity="1" /><path clip-path="url(#clip080)" d="M42.4881 557.036 L64.0042 557.036 L64.0042 562.892 L42.679 562.892 Q37.6183 562.892 35.1038 564.866 Q32.5894 566.839 32.5894 570.786 Q32.5894 575.528 35.6131 578.265 Q38.6368 581.003 43.8567 581.003 L64.0042 581.003 L64.0042 586.891 L28.3562 586.891 L28.3562 581.003 L33.8944 581.003 Q30.6797 578.902 29.0883 576.069 Q27.4968 573.205 27.4968 569.481 Q27.4968 563.338 31.3163 560.187 Q35.1038 557.036 42.4881 557.036 Z" fill="#000000" fill-rule="nonzero" fill-opacity="1" /><path clip-path="url(#clip080)" d="M29.4065 522.629 L34.9447 522.629 Q33.6716 525.112 33.035 527.785 Q32.3984 530.459 32.3984 533.324 Q32.3984 537.684 33.7352 539.88 Q35.072 542.045 37.7456 542.045 Q39.7826 542.045 40.9603 540.485 Q42.1061 538.925 43.1565 534.215 L43.6021 532.21 Q44.9389 525.971 47.3897 523.361 Q49.8086 520.719 54.1691 520.719 Q59.1344 520.719 62.0308 524.666 Q64.9272 528.581 64.9272 535.456 Q64.9272 538.321 64.3543 541.44 Q63.8132 544.527 62.6992 547.965 L56.6518 547.965 Q58.3387 544.718 59.198 541.567 Q60.0256 538.416 60.0256 535.329 Q60.0256 531.191 58.6251 528.963 Q57.1929 526.735 54.6147 526.735 Q52.2276 526.735 50.9545 528.358 Q49.6813 529.95 48.5037 535.392 L48.0262 537.429 Q46.8804 542.872 44.5251 545.291 Q42.138 547.71 38.0002 547.71 Q32.9713 547.71 30.2341 544.145 Q27.4968 540.58 27.4968 534.024 Q27.4968 530.777 27.9743 527.913 Q28.4517 525.048 29.4065 522.629 Z" fill="#000000" fill-rule="nonzero" fill-opacity="1" /><path clip-path="url(#clip080)" d="M28.3562 511.394 L28.3562 505.537 L64.0042 505.537 L64.0042 511.394 L28.3562 511.394 M14.479 511.394 L14.479 505.537 L21.895 505.537 L21.895 511.394 L14.479 511.394 Z" fill="#000000" fill-rule="nonzero" fill-opacity="1" /><path clip-path="url(#clip080)" d="M18.2347 487.49 L28.3562 487.49 L28.3562 475.427 L32.9077 475.427 L32.9077 487.49 L52.2594 487.49 Q56.6199 487.49 57.8613 486.313 Q59.1026 485.103 59.1026 481.443 L59.1026 475.427 L64.0042 475.427 L64.0042 481.443 Q64.0042 488.223 61.4897 490.801 Q58.9434 493.379 52.2594 493.379 L32.9077 493.379 L32.9077 497.676 L28.3562 497.676 L28.3562 493.379 L18.2347 493.379 L18.2347 487.49 Z" fill="#000000" fill-rule="nonzero" fill-opacity="1" /><path clip-path="url(#clip080)" d="M67.3143 452.893 Q73.68 455.376 75.6216 457.731 Q77.5631 460.086 77.5631 464.033 L77.5631 468.712 L72.6615 468.712 L72.6615 465.274 Q72.6615 462.855 71.5157 461.518 Q70.3699 460.182 66.1048 458.558 L63.4312 457.508 L28.3562 471.926 L28.3562 465.72 L56.238 454.58 L28.3562 443.44 L28.3562 437.233 L67.3143 452.893 Z" fill="#000000" fill-rule="nonzero" fill-opacity="1" /><polyline clip-path="url(#clip082)" style="stroke:#009af9; stroke-linecap:round; stroke-linejoin:round; stroke-width:4; stroke-opacity:1; fill:none" points="264.778,1384.23 346.684,1384.23 428.59,1384.22 449.066,1384.23 469.542,1384.23 510.495,1384.1 551.448,1384.2 571.924,1384.16 592.401,1384.14 612.877,1384.19 633.353,1384.11 653.83,1384.2 674.306,1384.07 694.783,1384.09 715.259,1384.08 735.735,1384.04 756.212,1384.08 776.688,1383.83 797.165,1383.84 817.641,1383.8 838.117,1383.91 858.594,1383.73 879.07,1383.89 899.547,1383.34 920.023,1383.62 940.499,1383.17 960.976,1382.97 981.452,1382.82 1001.93,1382.26 1022.4,1381.92 1042.88,1381.72 1063.36,1380.81 1083.83,1380.32 1104.31,1379.39 1124.79,1377.64 1145.26,1375.73 1165.74,1373.81 1186.22,1371.24 1206.69,1368.21 1227.17,1361.52 1247.65,1355.43 1268.12,1348.58 1288.6,1333.23 1309.07,1287.82 1329.55,1287.3 1350.03,1273.04 1370.5,1260.25 1390.98,1255.04 1411.46,1250.82 1431.93,1240.64 1452.41,1230.43 1472.89,1184.45 1493.36,1165.27 1513.84,1160.03 1534.31,1162.22 1554.79,1169.25 1575.27,1170.93 1595.74,1177.82 1616.22,1189.86 1636.7,1200.91 1657.17,1213.3 1677.65,1224.86 1698.13,1237.56 1718.6,1252.93 1739.08,1267.67 1759.55,1281.02 1780.03,1297 1800.51,1305.16 1820.98,1321.75 1841.46,1328.51 1861.94,1339.04 1882.41,1347.93 1902.89,1354.23 1923.37,1358.81 1943.84,1363.7 1964.32,1368.9 1984.8,1373.24 2005.27,1376.67 2025.75,1378.01 2046.22,1380.07 2066.7,1380.45 2087.18,1381.56 2107.65,1382.98 2128.13,1383.62 2148.61,1383.88 2169.08,1384.04 2189.56,1384.21 2210.04,1384.16 2230.51,1384.23 2250.99,1384.11 2271.46,1384.22 2291.94,1384.21 "/>
<polyline clip-path="url(#clip082)" style="stroke:#e26f46; stroke-linecap:round; stroke-linejoin:round; stroke-width:4; stroke-opacity:1; fill:none" points="264.778,1384.24 346.684,1384.24 428.59,1384.24 449.066,1384.24 469.542,1384.24 510.495,1384.24 551.448,1384.24 571.924,1384.24 592.401,1384.24 612.877,1384.24 633.353,1384.24 653.83,1384.24 674.306,1384.24 694.783,1384.24 715.259,1384.24 735.735,1384.23 756.212,1384.23 776.688,1384.22 797.165,1384.21 817.641,1384.19 838.117,1384.15 858.594,1384.1 879.07,1384.01 899.547,1383.86 920.023,1383.63 940.499,1383.27 960.976,1382.71 981.452,1381.85 1001.93,1380.56 1022.4,1378.64 1042.88,1375.83 1063.36,1371.8 1083.83,1366.07 1104.31,1358.1 1124.79,1347.18 1145.26,1332.48 1165.74,1313.06 1186.22,1287.89 1206.69,1255.88 1227.17,1216 1247.65,1167.34 1268.12,1109.21 1288.6,1041.33 1309.07,963.87 1329.55,877.612 1350.03,783.99 1370.5,685.117 1390.98,583.733 1411.46,483.101 1431.93,386.828 1452.41,298.638 1472.89,222.123 1493.36,160.476 1513.84,116.261 1534.31,91.2256 1554.79,86.1857 1575.27,100.986 1595.74,134.545 1616.22,184.971 1636.7,249.735 1657.17,325.872 1677.65,410.205 1698.13,499.549 1718.6,590.896 1739.08,681.553 1759.55,769.25 1780.03,852.182 1800.51,929.031 1820.98,998.939 1841.46,1061.47 1861.94,1116.52 1882.41,1164.3 1902.89,1205.2 1923.37,1239.77 1943.84,1268.65 1964.32,1292.5 1984.8,1311.99 2005.27,1327.76 2025.75,1340.4 2046.22,1350.44 2066.7,1358.35 2087.18,1364.54 2107.65,1369.33 2128.13,1373.02 2148.61,1375.84 2169.08,1377.99 2189.56,1379.61 2210.04,1380.82 2230.51,1381.73 2250.99,1382.41 2271.46,1382.91 2291.94,1383.27 "/>
<path clip-path="url(#clip080)" d="M275.59 248.629 L824.773 248.629 L824.773 93.1086 L275.59 93.1086  Z" fill="#ffffff" fill-rule="evenodd" fill-opacity="1"/>
<polyline clip-path="url(#clip080)" style="stroke:#ffffff; stroke-linecap:round; stroke-linejoin:round; stroke-width:4; stroke-opacity:1; fill:none" points="275.59,248.629 824.773,248.629 824.773,93.1086 275.59,93.1086 275.59,248.629 "/>
<polyline clip-path="url(#clip080)" style="stroke:#009af9; stroke-linecap:round; stroke-linejoin:round; stroke-width:4; stroke-opacity:1; fill:none" points="299.465,144.949 442.718,144.949 "/>
<path clip-path="url(#clip080)" d="M466.594 127.669 L471.27 127.669 L471.27 141.835 L488.26 141.835 L488.26 127.669 L492.936 127.669 L492.936 162.229 L488.26 162.229 L488.26 145.77 L471.27 145.77 L471.27 162.229 L466.594 162.229 L466.594 127.669 Z" fill="#000000" fill-rule="nonzero" fill-opacity="1" /><path clip-path="url(#clip080)" d="M502.057 136.303 L506.316 136.303 L506.316 162.229 L502.057 162.229 L502.057 136.303 M502.057 126.21 L506.316 126.21 L506.316 131.604 L502.057 131.604 L502.057 126.21 Z" fill="#000000" fill-rule="nonzero" fill-opacity="1" /><path clip-path="url(#clip080)" d="M531.755 137.067 L531.755 141.094 Q529.95 140.169 528.005 139.706 Q526.061 139.243 523.978 139.243 Q520.806 139.243 519.209 140.215 Q517.635 141.187 517.635 143.131 Q517.635 144.613 518.769 145.469 Q519.904 146.303 523.33 147.067 L524.788 147.391 Q529.325 148.363 531.223 150.145 Q533.144 151.905 533.144 155.076 Q533.144 158.687 530.274 160.793 Q527.427 162.9 522.427 162.9 Q520.343 162.9 518.075 162.483 Q515.83 162.09 513.33 161.28 L513.33 156.881 Q515.691 158.108 517.982 158.733 Q520.274 159.335 522.519 159.335 Q525.529 159.335 527.149 158.317 Q528.769 157.275 528.769 155.4 Q528.769 153.664 527.589 152.738 Q526.431 151.812 522.473 150.956 L520.992 150.608 Q517.033 149.775 515.274 148.062 Q513.515 146.326 513.515 143.317 Q513.515 139.659 516.107 137.669 Q518.7 135.678 523.468 135.678 Q525.83 135.678 527.913 136.025 Q529.996 136.372 531.755 137.067 Z" fill="#000000" fill-rule="nonzero" fill-opacity="1" /><path clip-path="url(#clip080)" d="M544.14 128.942 L544.14 136.303 L552.913 136.303 L552.913 139.613 L544.14 139.613 L544.14 153.687 Q544.14 156.858 544.996 157.761 Q545.876 158.664 548.538 158.664 L552.913 158.664 L552.913 162.229 L548.538 162.229 Q543.607 162.229 541.732 160.4 Q539.857 158.548 539.857 153.687 L539.857 139.613 L536.732 139.613 L536.732 136.303 L539.857 136.303 L539.857 128.942 L544.14 128.942 Z" fill="#000000" fill-rule="nonzero" fill-opacity="1" /><path clip-path="url(#clip080)" d="M568.561 139.289 Q565.135 139.289 563.144 141.974 Q561.153 144.636 561.153 149.289 Q561.153 153.942 563.121 156.627 Q565.112 159.289 568.561 159.289 Q571.964 159.289 573.954 156.604 Q575.945 153.918 575.945 149.289 Q575.945 144.682 573.954 141.997 Q571.964 139.289 568.561 139.289 M568.561 135.678 Q574.116 135.678 577.288 139.289 Q580.459 142.9 580.459 149.289 Q580.459 155.655 577.288 159.289 Q574.116 162.9 568.561 162.9 Q562.982 162.9 559.811 159.289 Q556.663 155.655 556.663 149.289 Q556.663 142.9 559.811 139.289 Q562.982 135.678 568.561 135.678 Z" fill="#000000" fill-rule="nonzero" fill-opacity="1" /><path clip-path="url(#clip080)" d="M604.579 148.965 Q604.579 144.335 602.658 141.789 Q600.76 139.243 597.311 139.243 Q593.885 139.243 591.963 141.789 Q590.065 144.335 590.065 148.965 Q590.065 153.571 591.963 156.118 Q593.885 158.664 597.311 158.664 Q600.76 158.664 602.658 156.118 Q604.579 153.571 604.579 148.965 M608.838 159.011 Q608.838 165.631 605.899 168.849 Q602.959 172.09 596.894 172.09 Q594.649 172.09 592.658 171.742 Q590.667 171.418 588.792 170.724 L588.792 166.58 Q590.667 167.599 592.496 168.085 Q594.325 168.571 596.223 168.571 Q600.412 168.571 602.496 166.372 Q604.579 164.196 604.579 159.775 L604.579 157.668 Q603.26 159.96 601.2 161.094 Q599.139 162.229 596.269 162.229 Q591.5 162.229 588.584 158.594 Q585.667 154.96 585.667 148.965 Q585.667 142.946 588.584 139.312 Q591.5 135.678 596.269 135.678 Q599.139 135.678 601.2 136.812 Q603.26 137.946 604.579 140.238 L604.579 136.303 L608.838 136.303 L608.838 159.011 Z" fill="#000000" fill-rule="nonzero" fill-opacity="1" /><path clip-path="url(#clip080)" d="M632.635 140.284 Q631.917 139.868 631.06 139.682 Q630.227 139.474 629.209 139.474 Q625.598 139.474 623.653 141.835 Q621.732 144.173 621.732 148.571 L621.732 162.229 L617.449 162.229 L617.449 136.303 L621.732 136.303 L621.732 140.331 Q623.074 137.969 625.227 136.835 Q627.38 135.678 630.459 135.678 Q630.898 135.678 631.431 135.747 Q631.963 135.794 632.611 135.909 L632.635 140.284 Z" fill="#000000" fill-rule="nonzero" fill-opacity="1" /><path clip-path="url(#clip080)" d="M648.884 149.196 Q643.722 149.196 641.732 150.377 Q639.741 151.557 639.741 154.405 Q639.741 156.673 641.222 158.016 Q642.727 159.335 645.296 159.335 Q648.838 159.335 650.968 156.835 Q653.121 154.312 653.121 150.145 L653.121 149.196 L648.884 149.196 M657.38 147.437 L657.38 162.229 L653.121 162.229 L653.121 158.293 Q651.662 160.655 649.486 161.789 Q647.31 162.9 644.162 162.9 Q640.181 162.9 637.82 160.678 Q635.482 158.432 635.482 154.682 Q635.482 150.307 638.398 148.085 Q641.338 145.863 647.148 145.863 L653.121 145.863 L653.121 145.446 Q653.121 142.507 651.176 140.909 Q649.255 139.289 645.759 139.289 Q643.537 139.289 641.431 139.821 Q639.324 140.354 637.38 141.419 L637.38 137.483 Q639.718 136.581 641.917 136.141 Q644.116 135.678 646.199 135.678 Q651.824 135.678 654.602 138.594 Q657.38 141.511 657.38 147.437 Z" fill="#000000" fill-rule="nonzero" fill-opacity="1" /><path clip-path="url(#clip080)" d="M686.338 141.28 Q687.935 138.409 690.157 137.044 Q692.38 135.678 695.389 135.678 Q699.44 135.678 701.639 138.525 Q703.838 141.349 703.838 146.581 L703.838 162.229 L699.555 162.229 L699.555 146.719 Q699.555 142.993 698.236 141.187 Q696.917 139.382 694.208 139.382 Q690.898 139.382 688.977 141.581 Q687.056 143.78 687.056 147.576 L687.056 162.229 L682.773 162.229 L682.773 146.719 Q682.773 142.969 681.454 141.187 Q680.134 139.382 677.38 139.382 Q674.116 139.382 672.194 141.604 Q670.273 143.803 670.273 147.576 L670.273 162.229 L665.991 162.229 L665.991 136.303 L670.273 136.303 L670.273 140.331 Q671.732 137.946 673.769 136.812 Q675.806 135.678 678.607 135.678 Q681.431 135.678 683.398 137.113 Q685.389 138.548 686.338 141.28 Z" fill="#000000" fill-rule="nonzero" fill-opacity="1" /><polyline clip-path="url(#clip080)" style="stroke:#e26f46; stroke-linecap:round; stroke-linejoin:round; stroke-width:4; stroke-opacity:1; fill:none" points="299.465,196.789 442.718,196.789 "/>
<path clip-path="url(#clip080)" d="M471.27 183.351 L471.27 210.226 L476.918 210.226 Q484.071 210.226 487.381 206.985 Q490.714 203.745 490.714 196.754 Q490.714 189.809 487.381 186.592 Q484.071 183.351 476.918 183.351 L471.27 183.351 M466.594 179.509 L476.2 179.509 Q486.246 179.509 490.945 183.698 Q495.645 187.865 495.645 196.754 Q495.645 205.689 490.922 209.879 Q486.2 214.069 476.2 214.069 L466.594 214.069 L466.594 179.509 Z" fill="#000000" fill-rule="nonzero" fill-opacity="1" /><path clip-path="url(#clip080)" d="M502.913 188.143 L507.172 188.143 L507.172 214.069 L502.913 214.069 L502.913 188.143 M502.913 178.05 L507.172 178.05 L507.172 183.444 L502.913 183.444 L502.913 178.05 Z" fill="#000000" fill-rule="nonzero" fill-opacity="1" /><path clip-path="url(#clip080)" d="M532.612 188.907 L532.612 192.934 Q530.806 192.009 528.862 191.546 Q526.917 191.083 524.834 191.083 Q521.663 191.083 520.066 192.055 Q518.492 193.027 518.492 194.971 Q518.492 196.453 519.626 197.309 Q520.76 198.143 524.186 198.907 L525.644 199.231 Q530.181 200.203 532.08 201.985 Q534.001 203.745 534.001 206.916 Q534.001 210.527 531.13 212.633 Q528.283 214.74 523.283 214.74 Q521.2 214.74 518.931 214.323 Q516.686 213.93 514.186 213.12 L514.186 208.721 Q516.547 209.948 518.839 210.573 Q521.13 211.175 523.376 211.175 Q526.385 211.175 528.005 210.157 Q529.626 209.115 529.626 207.24 Q529.626 205.504 528.445 204.578 Q527.288 203.652 523.33 202.796 L521.848 202.448 Q517.89 201.615 516.131 199.902 Q514.371 198.166 514.371 195.157 Q514.371 191.499 516.964 189.509 Q519.556 187.518 524.325 187.518 Q526.686 187.518 528.769 187.865 Q530.853 188.212 532.612 188.907 Z" fill="#000000" fill-rule="nonzero" fill-opacity="1" /><path clip-path="url(#clip080)" d="M544.996 180.782 L544.996 188.143 L553.769 188.143 L553.769 191.453 L544.996 191.453 L544.996 205.527 Q544.996 208.698 545.853 209.601 Q546.732 210.504 549.394 210.504 L553.769 210.504 L553.769 214.069 L549.394 214.069 Q544.464 214.069 542.589 212.24 Q540.714 210.388 540.714 205.527 L540.714 191.453 L537.589 191.453 L537.589 188.143 L540.714 188.143 L540.714 180.782 L544.996 180.782 Z" fill="#000000" fill-rule="nonzero" fill-opacity="1" /><path clip-path="url(#clip080)" d="M574.394 192.124 Q573.677 191.708 572.82 191.522 Q571.987 191.314 570.968 191.314 Q567.357 191.314 565.413 193.675 Q563.491 196.013 563.491 200.411 L563.491 214.069 L559.209 214.069 L559.209 188.143 L563.491 188.143 L563.491 192.171 Q564.834 189.809 566.987 188.675 Q569.139 187.518 572.218 187.518 Q572.658 187.518 573.19 187.587 Q573.723 187.634 574.371 187.749 L574.394 192.124 Z" fill="#000000" fill-rule="nonzero" fill-opacity="1" /><path clip-path="url(#clip080)" d="M578.862 188.143 L583.121 188.143 L583.121 214.069 L578.862 214.069 L578.862 188.143 M578.862 178.05 L583.121 178.05 L583.121 183.444 L578.862 183.444 L578.862 178.05 Z" fill="#000000" fill-rule="nonzero" fill-opacity="1" /><path clip-path="url(#clip080)" d="M610.644 201.129 Q610.644 196.43 608.699 193.768 Q606.778 191.083 603.399 191.083 Q600.019 191.083 598.075 193.768 Q596.153 196.43 596.153 201.129 Q596.153 205.828 598.075 208.513 Q600.019 211.175 603.399 211.175 Q606.778 211.175 608.699 208.513 Q610.644 205.828 610.644 201.129 M596.153 192.078 Q597.496 189.763 599.533 188.652 Q601.593 187.518 604.44 187.518 Q609.162 187.518 612.102 191.268 Q615.065 195.018 615.065 201.129 Q615.065 207.24 612.102 210.99 Q609.162 214.74 604.44 214.74 Q601.593 214.74 599.533 213.629 Q597.496 212.495 596.153 210.18 L596.153 214.069 L591.871 214.069 L591.871 178.05 L596.153 178.05 L596.153 192.078 Z" fill="#000000" fill-rule="nonzero" fill-opacity="1" /><path clip-path="url(#clip080)" d="M621.686 203.837 L621.686 188.143 L625.945 188.143 L625.945 203.675 Q625.945 207.356 627.38 209.208 Q628.815 211.036 631.685 211.036 Q635.135 211.036 637.125 208.837 Q639.139 206.638 639.139 202.842 L639.139 188.143 L643.398 188.143 L643.398 214.069 L639.139 214.069 L639.139 210.087 Q637.588 212.448 635.528 213.606 Q633.491 214.74 630.783 214.74 Q626.315 214.74 624 211.962 Q621.686 209.184 621.686 203.837 M632.403 187.518 L632.403 187.518 Z" fill="#000000" fill-rule="nonzero" fill-opacity="1" /><path clip-path="url(#clip080)" d="M656.384 180.782 L656.384 188.143 L665.157 188.143 L665.157 191.453 L656.384 191.453 L656.384 205.527 Q656.384 208.698 657.241 209.601 Q658.12 210.504 660.783 210.504 L665.157 210.504 L665.157 214.069 L660.783 214.069 Q655.852 214.069 653.977 212.24 Q652.102 210.388 652.102 205.527 L652.102 191.453 L648.977 191.453 L648.977 188.143 L652.102 188.143 L652.102 180.782 L656.384 180.782 Z" fill="#000000" fill-rule="nonzero" fill-opacity="1" /><path clip-path="url(#clip080)" d="M670.759 188.143 L675.019 188.143 L675.019 214.069 L670.759 214.069 L670.759 188.143 M670.759 178.05 L675.019 178.05 L675.019 183.444 L670.759 183.444 L670.759 178.05 Z" fill="#000000" fill-rule="nonzero" fill-opacity="1" /><path clip-path="url(#clip080)" d="M693.977 191.129 Q690.551 191.129 688.56 193.814 Q686.569 196.476 686.569 201.129 Q686.569 205.782 688.537 208.467 Q690.528 211.129 693.977 211.129 Q697.38 211.129 699.37 208.444 Q701.361 205.758 701.361 201.129 Q701.361 196.522 699.37 193.837 Q697.38 191.129 693.977 191.129 M693.977 187.518 Q699.532 187.518 702.704 191.129 Q705.875 194.74 705.875 201.129 Q705.875 207.495 702.704 211.129 Q699.532 214.74 693.977 214.74 Q688.398 214.74 685.227 211.129 Q682.079 207.495 682.079 201.129 Q682.079 194.74 685.227 191.129 Q688.398 187.518 693.977 187.518 Z" fill="#000000" fill-rule="nonzero" fill-opacity="1" /><path clip-path="url(#clip080)" d="M734.486 198.421 L734.486 214.069 L730.227 214.069 L730.227 198.559 Q730.227 194.879 728.791 193.05 Q727.356 191.222 724.486 191.222 Q721.037 191.222 719.046 193.421 Q717.055 195.62 717.055 199.416 L717.055 214.069 L712.773 214.069 L712.773 188.143 L717.055 188.143 L717.055 192.171 Q718.583 189.833 720.643 188.675 Q722.727 187.518 725.435 187.518 Q729.903 187.518 732.194 190.296 Q734.486 193.05 734.486 198.421 Z" fill="#000000" fill-rule="nonzero" fill-opacity="1" /><path clip-path="url(#clip080)" d="M771.175 178.05 L771.175 181.592 L767.101 181.592 Q764.81 181.592 763.907 182.518 Q763.027 183.444 763.027 185.851 L763.027 188.143 L770.041 188.143 L770.041 191.453 L763.027 191.453 L763.027 214.069 L758.745 214.069 L758.745 191.453 L754.671 191.453 L754.671 188.143 L758.745 188.143 L758.745 186.337 Q758.745 182.009 760.759 180.041 Q762.773 178.05 767.148 178.05 L771.175 178.05 Z" fill="#000000" fill-rule="nonzero" fill-opacity="1" /><path clip-path="url(#clip080)" d="M774.74 188.143 L778.999 188.143 L778.999 214.069 L774.74 214.069 L774.74 188.143 M774.74 178.05 L778.999 178.05 L778.999 183.444 L774.74 183.444 L774.74 178.05 Z" fill="#000000" fill-rule="nonzero" fill-opacity="1" /><path clip-path="url(#clip080)" d="M792.124 180.782 L792.124 188.143 L800.898 188.143 L800.898 191.453 L792.124 191.453 L792.124 205.527 Q792.124 208.698 792.981 209.601 Q793.861 210.504 796.523 210.504 L800.898 210.504 L800.898 214.069 L796.523 214.069 Q791.592 214.069 789.717 212.24 Q787.842 210.388 787.842 205.527 L787.842 191.453 L784.717 191.453 L784.717 188.143 L787.842 188.143 L787.842 180.782 L792.124 180.782 Z" fill="#000000" fill-rule="nonzero" fill-opacity="1" /></svg>
