<?xml version="1.0" encoding="utf-8"?>
<svg xmlns="http://www.w3.org/2000/svg" xmlns:xlink="http://www.w3.org/1999/xlink" width="600" height="400" viewBox="0 0 2400 1600">
<defs>
  <clipPath id="clip680">
    <rect x="0" y="0" width="2400" height="1600"/>
  </clipPath>
</defs>
<path clip-path="url(#clip680)" d="M0 1600 L2400 1600 L2400 8.88178e-14 L0 8.88178e-14  Z" fill="#ffffff" fill-rule="evenodd" fill-opacity="1"/>
<defs>
  <clipPath id="clip681">
    <rect x="480" y="0" width="1681" height="1600"/>
  </clipPath>
</defs>
<path clip-path="url(#clip680)" d="M205.121 1423.18 L2352.76 1423.18 L2352.76 47.2441 L205.121 47.2441  Z" fill="#ffffff" fill-rule="evenodd" fill-opacity="1"/>
<defs>
  <clipPath id="clip682">
    <rect x="205" y="47" width="2149" height="1377"/>
  </clipPath>
</defs>
<polyline clip-path="url(#clip682)" style="stroke:#000000; stroke-linecap:round; stroke-linejoin:round; stroke-width:2; stroke-opacity:0.1; fill:none" points="361.561,1423.18 361.561,47.2441 "/>
<polyline clip-path="url(#clip682)" style="stroke:#000000; stroke-linecap:round; stroke-linejoin:round; stroke-width:2; stroke-opacity:0.1; fill:none" points="686.91,1423.18 686.91,47.2441 "/>
<polyline clip-path="url(#clip682)" style="stroke:#000000; stroke-linecap:round; stroke-linejoin:round; stroke-width:2; stroke-opacity:0.1; fill:none" points="1012.26,1423.18 1012.26,47.2441 "/>
<polyline clip-path="url(#clip682)" style="stroke:#000000; stroke-linecap:round; stroke-linejoin:round; stroke-width:2; stroke-opacity:0.1; fill:none" points="1337.61,1423.18 1337.61,47.2441 "/>
<polyline clip-path="url(#clip682)" style="stroke:#000000; stroke-linecap:round; stroke-linejoin:round; stroke-width:2; stroke-opacity:0.1; fill:none" points="1662.96,1423.18 1662.96,47.2441 "/>
<polyline clip-path="url(#clip682)" style="stroke:#000000; stroke-linecap:round; stroke-linejoin:round; stroke-width:2; stroke-opacity:0.1; fill:none" points="1988.31,1423.18 1988.31,47.2441 "/>
<polyline clip-path="url(#clip682)" style="stroke:#000000; stroke-linecap:round; stroke-linejoin:round; stroke-width:2; stroke-opacity:0.1; fill:none" points="2313.66,1423.18 2313.66,47.2441 "/>
<polyline clip-path="url(#clip682)" style="stroke:#000000; stroke-linecap:round; stroke-linejoin:round; stroke-width:2; stroke-opacity:0.1; fill:none" points="361.561,1423.18 361.561,47.2441 "/>
<polyline clip-path="url(#clip682)" style="stroke:#000000; stroke-linecap:round; stroke-linejoin:round; stroke-width:2; stroke-opacity:0.1; fill:none" points="686.91,1423.18 686.91,47.2441 "/>
<polyline clip-path="url(#clip682)" style="stroke:#000000; stroke-linecap:round; stroke-linejoin:round; stroke-width:2; stroke-opacity:0.1; fill:none" points="1012.26,1423.18 1012.26,47.2441 "/>
<polyline clip-path="url(#clip682)" style="stroke:#000000; stroke-linecap:round; stroke-linejoin:round; stroke-width:2; stroke-opacity:0.1; fill:none" points="1337.61,1423.18 1337.61,47.2441 "/>
<polyline clip-path="url(#clip682)" style="stroke:#000000; stroke-linecap:round; stroke-linejoin:round; stroke-width:2; stroke-opacity:0.1; fill:none" points="1662.96,1423.18 1662.96,47.2441 "/>
<polyline clip-path="url(#clip682)" style="stroke:#000000; stroke-linecap:round; stroke-linejoin:round; stroke-width:2; stroke-opacity:0.1; fill:none" points="1988.31,1423.18 1988.31,47.2441 "/>
<polyline clip-path="url(#clip682)" style="stroke:#000000; stroke-linecap:round; stroke-linejoin:round; stroke-width:2; stroke-opacity:0.1; fill:none" points="2313.66,1423.18 2313.66,47.2441 "/>
<polyline clip-path="url(#clip682)" style="stroke:#000000; stroke-linecap:round; stroke-linejoin:round; stroke-width:2; stroke-opacity:0.1; fill:none" points="205.121,1384.24 2352.76,1384.24 "/>
<polyline clip-path="url(#clip682)" style="stroke:#000000; stroke-linecap:round; stroke-linejoin:round; stroke-width:2; stroke-opacity:0.1; fill:none" points="205.121,1165.33 2352.76,1165.33 "/>
<polyline clip-path="url(#clip682)" style="stroke:#000000; stroke-linecap:round; stroke-linejoin:round; stroke-width:2; stroke-opacity:0.1; fill:none" points="205.121,946.413 2352.76,946.413 "/>
<polyline clip-path="url(#clip682)" style="stroke:#000000; stroke-linecap:round; stroke-linejoin:round; stroke-width:2; stroke-opacity:0.1; fill:none" points="205.121,727.5 2352.76,727.5 "/>
<polyline clip-path="url(#clip682)" style="stroke:#000000; stroke-linecap:round; stroke-linejoin:round; stroke-width:2; stroke-opacity:0.1; fill:none" points="205.121,508.587 2352.76,508.587 "/>
<polyline clip-path="url(#clip682)" style="stroke:#000000; stroke-linecap:round; stroke-linejoin:round; stroke-width:2; stroke-opacity:0.1; fill:none" points="205.121,289.674 2352.76,289.674 "/>
<polyline clip-path="url(#clip682)" style="stroke:#000000; stroke-linecap:round; stroke-linejoin:round; stroke-width:2; stroke-opacity:0.1; fill:none" points="205.121,70.7613 2352.76,70.7613 "/>
<polyline clip-path="url(#clip682)" style="stroke:#000000; stroke-linecap:round; stroke-linejoin:round; stroke-width:2; stroke-opacity:0.1; fill:none" points="205.121,1384.24 2352.76,1384.24 "/>
<polyline clip-path="url(#clip682)" style="stroke:#000000; stroke-linecap:round; stroke-linejoin:round; stroke-width:2; stroke-opacity:0.1; fill:none" points="205.121,1165.33 2352.76,1165.33 "/>
<polyline clip-path="url(#clip682)" style="stroke:#000000; stroke-linecap:round; stroke-linejoin:round; stroke-width:2; stroke-opacity:0.1; fill:none" points="205.121,946.413 2352.76,946.413 "/>
<polyline clip-path="url(#clip682)" style="stroke:#000000; stroke-linecap:round; stroke-linejoin:round; stroke-width:2; stroke-opacity:0.1; fill:none" points="205.121,727.5 2352.76,727.5 "/>
<polyline clip-path="url(#clip682)" style="stroke:#000000; stroke-linecap:round; stroke-linejoin:round; stroke-width:2; stroke-opacity:0.1; fill:none" points="205.121,508.587 2352.76,508.587 "/>
<polyline clip-path="url(#clip682)" style="stroke:#000000; stroke-linecap:round; stroke-linejoin:round; stroke-width:2; stroke-opacity:0.1; fill:none" points="205.121,289.674 2352.76,289.674 "/>
<polyline clip-path="url(#clip682)" style="stroke:#000000; stroke-linecap:round; stroke-linejoin:round; stroke-width:2; stroke-opacity:0.1; fill:none" points="205.121,70.7613 2352.76,70.7613 "/>
<polyline clip-path="url(#clip680)" style="stroke:#000000; stroke-linecap:round; stroke-linejoin:round; stroke-width:4; stroke-opacity:1; fill:none" points="205.121,1423.18 2352.76,1423.18 "/>
<polyline clip-path="url(#clip680)" style="stroke:#000000; stroke-linecap:round; stroke-linejoin:round; stroke-width:4; stroke-opacity:1; fill:none" points="205.121,47.2441 2352.76,47.2441 "/>
<polyline clip-path="url(#clip680)" style="stroke:#000000; stroke-linecap:round; stroke-linejoin:round; stroke-width:4; stroke-opacity:1; fill:none" points="361.561,1423.18 361.561,1404.28 "/>
<polyline clip-path="url(#clip680)" style="stroke:#000000; stroke-linecap:round; stroke-linejoin:round; stroke-width:4; stroke-opacity:1; fill:none" points="686.91,1423.18 686.91,1404.28 "/>
<polyline clip-path="url(#clip680)" style="stroke:#000000; stroke-linecap:round; stroke-linejoin:round; stroke-width:4; stroke-opacity:1; fill:none" points="1012.26,1423.18 1012.26,1404.28 "/>
<polyline clip-path="url(#clip680)" style="stroke:#000000; stroke-linecap:round; stroke-linejoin:round; stroke-width:4; stroke-opacity:1; fill:none" points="1337.61,1423.18 1337.61,1404.28 "/>
<polyline clip-path="url(#clip680)" style="stroke:#000000; stroke-linecap:round; stroke-linejoin:round; stroke-width:4; stroke-opacity:1; fill:none" points="1662.96,1423.18 1662.96,1404.28 "/>
<polyline clip-path="url(#clip680)" style="stroke:#000000; stroke-linecap:round; stroke-linejoin:round; stroke-width:4; stroke-opacity:1; fill:none" points="1988.31,1423.18 1988.31,1404.28 "/>
<polyline clip-path="url(#clip680)" style="stroke:#000000; stroke-linecap:round; stroke-linejoin:round; stroke-width:4; stroke-opacity:1; fill:none" points="2313.66,1423.18 2313.66,1404.28 "/>
<polyline clip-path="url(#clip680)" style="stroke:#000000; stroke-linecap:round; stroke-linejoin:round; stroke-width:4; stroke-opacity:1; fill:none" points="361.561,47.2441 361.561,66.1417 "/>
<polyline clip-path="url(#clip680)" style="stroke:#000000; stroke-linecap:round; stroke-linejoin:round; stroke-width:4; stroke-opacity:1; fill:none" points="686.91,47.2441 686.91,66.1417 "/>
<polyline clip-path="url(#clip680)" style="stroke:#000000; stroke-linecap:round; stroke-linejoin:round; stroke-width:4; stroke-opacity:1; fill:none" points="1012.26,47.2441 1012.26,66.1417 "/>
<polyline clip-path="url(#clip680)" style="stroke:#000000; stroke-linecap:round; stroke-linejoin:round; stroke-width:4; stroke-opacity:1; fill:none" points="1337.61,47.2441 1337.61,66.1417 "/>
<polyline clip-path="url(#clip680)" style="stroke:#000000; stroke-linecap:round; stroke-linejoin:round; stroke-width:4; stroke-opacity:1; fill:none" points="1662.96,47.2441 1662.96,66.1417 "/>
<polyline clip-path="url(#clip680)" style="stroke:#000000; stroke-linecap:round; stroke-linejoin:round; stroke-width:4; stroke-opacity:1; fill:none" points="1988.31,47.2441 1988.31,66.1417 "/>
<polyline clip-path="url(#clip680)" style="stroke:#000000; stroke-linecap:round; stroke-linejoin:round; stroke-width:4; stroke-opacity:1; fill:none" points="2313.66,47.2441 2313.66,66.1417 "/>
<path clip-path="url(#clip680)" d="M309.767 1466.44 Q306.619 1466.44 304.767 1468.59 Q302.938 1470.74 302.938 1474.49 Q302.938 1478.22 304.767 1480.39 Q306.619 1482.55 309.767 1482.55 Q312.915 1482.55 314.744 1480.39 Q316.596 1478.22 316.596 1474.49 Q316.596 1470.74 314.744 1468.59 Q312.915 1466.44 309.767 1466.44 M319.049 1451.78 L319.049 1456.04 Q317.29 1455.21 315.485 1454.77 Q313.702 1454.33 311.943 1454.33 Q307.313 1454.33 304.86 1457.45 Q302.429 1460.58 302.082 1466.9 Q303.448 1464.89 305.508 1463.82 Q307.568 1462.73 310.045 1462.73 Q315.253 1462.73 318.262 1465.9 Q321.295 1469.05 321.295 1474.49 Q321.295 1479.82 318.147 1483.03 Q314.999 1486.25 309.767 1486.25 Q303.772 1486.25 300.6 1481.67 Q297.429 1477.06 297.429 1468.33 Q297.429 1460.14 301.318 1455.28 Q305.207 1450.39 311.758 1450.39 Q313.517 1450.39 315.299 1450.74 Q317.105 1451.09 319.049 1451.78 Z" fill="#000000" fill-rule="nonzero" fill-opacity="1" /><path clip-path="url(#clip680)" d="M329.397 1451.02 L347.753 1451.02 L347.753 1454.96 L333.679 1454.96 L333.679 1463.43 Q334.698 1463.08 335.716 1462.92 Q336.735 1462.73 337.753 1462.73 Q343.54 1462.73 346.92 1465.9 Q350.299 1469.08 350.299 1474.49 Q350.299 1480.07 346.827 1483.17 Q343.355 1486.25 337.035 1486.25 Q334.86 1486.25 332.591 1485.88 Q330.346 1485.51 327.938 1484.77 L327.938 1480.07 Q330.022 1481.2 332.244 1481.76 Q334.466 1482.32 336.943 1482.32 Q340.947 1482.32 343.285 1480.21 Q345.623 1478.1 345.623 1474.49 Q345.623 1470.88 343.285 1468.77 Q340.947 1466.67 336.943 1466.67 Q335.068 1466.67 333.193 1467.08 Q331.341 1467.5 329.397 1468.38 L329.397 1451.02 Z" fill="#000000" fill-rule="nonzero" fill-opacity="1" /><path clip-path="url(#clip680)" d="M359.512 1479.7 L364.396 1479.7 L364.396 1485.58 L359.512 1485.58 L359.512 1479.7 Z" fill="#000000" fill-rule="nonzero" fill-opacity="1" /><path clip-path="url(#clip680)" d="M385.16 1466.44 Q382.012 1466.44 380.16 1468.59 Q378.332 1470.74 378.332 1474.49 Q378.332 1478.22 380.16 1480.39 Q382.012 1482.55 385.16 1482.55 Q388.308 1482.55 390.137 1480.39 Q391.989 1478.22 391.989 1474.49 Q391.989 1470.74 390.137 1468.59 Q388.308 1466.44 385.16 1466.44 M394.443 1451.78 L394.443 1456.04 Q392.683 1455.21 390.878 1454.77 Q389.095 1454.33 387.336 1454.33 Q382.707 1454.33 380.253 1457.45 Q377.822 1460.58 377.475 1466.9 Q378.841 1464.89 380.901 1463.82 Q382.961 1462.73 385.438 1462.73 Q390.646 1462.73 393.656 1465.9 Q396.688 1469.05 396.688 1474.49 Q396.688 1479.82 393.54 1483.03 Q390.392 1486.25 385.16 1486.25 Q379.165 1486.25 375.994 1481.67 Q372.822 1477.06 372.822 1468.33 Q372.822 1460.14 376.711 1455.28 Q380.6 1450.39 387.151 1450.39 Q388.91 1450.39 390.693 1450.74 Q392.498 1451.09 394.443 1451.78 Z" fill="#000000" fill-rule="nonzero" fill-opacity="1" /><path clip-path="url(#clip680)" d="M404.79 1451.02 L423.146 1451.02 L423.146 1454.96 L409.072 1454.96 L409.072 1463.43 Q410.091 1463.08 411.109 1462.92 Q412.128 1462.73 413.146 1462.73 Q418.933 1462.73 422.313 1465.9 Q425.692 1469.08 425.692 1474.49 Q425.692 1480.07 422.22 1483.17 Q418.748 1486.25 412.429 1486.25 Q410.253 1486.25 407.984 1485.88 Q405.739 1485.51 403.331 1484.77 L403.331 1480.07 Q405.415 1481.2 407.637 1481.76 Q409.859 1482.32 412.336 1482.32 Q416.341 1482.32 418.679 1480.21 Q421.016 1478.1 421.016 1474.49 Q421.016 1470.88 418.679 1468.77 Q416.341 1466.67 412.336 1466.67 Q410.461 1466.67 408.586 1467.08 Q406.734 1467.5 404.79 1468.38 L404.79 1451.02 Z" fill="#000000" fill-rule="nonzero" fill-opacity="1" /><path clip-path="url(#clip680)" d="M634.619 1466.44 Q631.47 1466.44 629.619 1468.59 Q627.79 1470.74 627.79 1474.49 Q627.79 1478.22 629.619 1480.39 Q631.47 1482.55 634.619 1482.55 Q637.767 1482.55 639.595 1480.39 Q641.447 1478.22 641.447 1474.49 Q641.447 1470.74 639.595 1468.59 Q637.767 1466.44 634.619 1466.44 M643.901 1451.78 L643.901 1456.04 Q642.142 1455.21 640.336 1454.77 Q638.554 1454.33 636.794 1454.33 Q632.165 1454.33 629.711 1457.45 Q627.281 1460.58 626.933 1466.9 Q628.299 1464.89 630.359 1463.82 Q632.419 1462.73 634.896 1462.73 Q640.105 1462.73 643.114 1465.9 Q646.146 1469.05 646.146 1474.49 Q646.146 1479.82 642.998 1483.03 Q639.85 1486.25 634.619 1486.25 Q628.623 1486.25 625.452 1481.67 Q622.281 1477.06 622.281 1468.33 Q622.281 1460.14 626.169 1455.28 Q630.058 1450.39 636.609 1450.39 Q638.369 1450.39 640.151 1450.74 Q641.956 1451.09 643.901 1451.78 Z" fill="#000000" fill-rule="nonzero" fill-opacity="1" /><path clip-path="url(#clip680)" d="M654.248 1451.02 L672.604 1451.02 L672.604 1454.96 L658.53 1454.96 L658.53 1463.43 Q659.549 1463.08 660.567 1462.92 Q661.586 1462.73 662.604 1462.73 Q668.391 1462.73 671.771 1465.9 Q675.151 1469.08 675.151 1474.49 Q675.151 1480.07 671.679 1483.17 Q668.206 1486.25 661.887 1486.25 Q659.711 1486.25 657.442 1485.88 Q655.197 1485.51 652.79 1484.77 L652.79 1480.07 Q654.873 1481.2 657.095 1481.76 Q659.317 1482.32 661.794 1482.32 Q665.799 1482.32 668.137 1480.21 Q670.475 1478.1 670.475 1474.49 Q670.475 1470.88 668.137 1468.77 Q665.799 1466.67 661.794 1466.67 Q659.919 1466.67 658.044 1467.08 Q656.192 1467.5 654.248 1468.38 L654.248 1451.02 Z" fill="#000000" fill-rule="nonzero" fill-opacity="1" /><path clip-path="url(#clip680)" d="M684.364 1479.7 L689.248 1479.7 L689.248 1485.58 L684.364 1485.58 L684.364 1479.7 Z" fill="#000000" fill-rule="nonzero" fill-opacity="1" /><path clip-path="url(#clip680)" d="M698.252 1451.02 L720.475 1451.02 L720.475 1453.01 L707.928 1485.58 L703.044 1485.58 L714.85 1454.96 L698.252 1454.96 L698.252 1451.02 Z" fill="#000000" fill-rule="nonzero" fill-opacity="1" /><path clip-path="url(#clip680)" d="M739.595 1454.1 Q735.984 1454.1 734.155 1457.66 Q732.349 1461.2 732.349 1468.33 Q732.349 1475.44 734.155 1479.01 Q735.984 1482.55 739.595 1482.55 Q743.229 1482.55 745.035 1479.01 Q746.863 1475.44 746.863 1468.33 Q746.863 1461.2 745.035 1457.66 Q743.229 1454.1 739.595 1454.1 M739.595 1450.39 Q745.405 1450.39 748.461 1455 Q751.539 1459.58 751.539 1468.33 Q751.539 1477.06 748.461 1481.67 Q745.405 1486.25 739.595 1486.25 Q733.785 1486.25 730.706 1481.67 Q727.65 1477.06 727.65 1468.33 Q727.65 1459.58 730.706 1455 Q733.785 1450.39 739.595 1450.39 Z" fill="#000000" fill-rule="nonzero" fill-opacity="1" /><path clip-path="url(#clip680)" d="M960.465 1466.44 Q957.317 1466.44 955.465 1468.59 Q953.637 1470.74 953.637 1474.49 Q953.637 1478.22 955.465 1480.39 Q957.317 1482.55 960.465 1482.55 Q963.613 1482.55 965.442 1480.39 Q967.294 1478.22 967.294 1474.49 Q967.294 1470.74 965.442 1468.59 Q963.613 1466.44 960.465 1466.44 M969.748 1451.78 L969.748 1456.04 Q967.988 1455.21 966.183 1454.77 Q964.4 1454.33 962.641 1454.33 Q958.012 1454.33 955.558 1457.45 Q953.127 1460.58 952.78 1466.9 Q954.146 1464.89 956.206 1463.82 Q958.266 1462.73 960.743 1462.73 Q965.951 1462.73 968.961 1465.9 Q971.993 1469.05 971.993 1474.49 Q971.993 1479.82 968.845 1483.03 Q965.697 1486.25 960.465 1486.25 Q954.47 1486.25 951.299 1481.67 Q948.127 1477.06 948.127 1468.33 Q948.127 1460.14 952.016 1455.28 Q955.905 1450.39 962.456 1450.39 Q964.215 1450.39 965.998 1450.74 Q967.803 1451.09 969.748 1451.78 Z" fill="#000000" fill-rule="nonzero" fill-opacity="1" /><path clip-path="url(#clip680)" d="M980.095 1451.02 L998.451 1451.02 L998.451 1454.96 L984.377 1454.96 L984.377 1463.43 Q985.396 1463.08 986.414 1462.92 Q987.433 1462.73 988.451 1462.73 Q994.238 1462.73 997.618 1465.9 Q1001 1469.08 1001 1474.49 Q1001 1480.07 997.525 1483.17 Q994.053 1486.25 987.734 1486.25 Q985.558 1486.25 983.289 1485.88 Q981.044 1485.51 978.637 1484.77 L978.637 1480.07 Q980.72 1481.2 982.942 1481.76 Q985.164 1482.32 987.641 1482.32 Q991.646 1482.32 993.984 1480.21 Q996.322 1478.1 996.322 1474.49 Q996.322 1470.88 993.984 1468.77 Q991.646 1466.67 987.641 1466.67 Q985.766 1466.67 983.891 1467.08 Q982.039 1467.5 980.095 1468.38 L980.095 1451.02 Z" fill="#000000" fill-rule="nonzero" fill-opacity="1" /><path clip-path="url(#clip680)" d="M1010.21 1479.7 L1015.09 1479.7 L1015.09 1485.58 L1010.21 1485.58 L1010.21 1479.7 Z" fill="#000000" fill-rule="nonzero" fill-opacity="1" /><path clip-path="url(#clip680)" d="M1024.1 1451.02 L1046.32 1451.02 L1046.32 1453.01 L1033.78 1485.58 L1028.89 1485.58 L1040.7 1454.96 L1024.1 1454.96 L1024.1 1451.02 Z" fill="#000000" fill-rule="nonzero" fill-opacity="1" /><path clip-path="url(#clip680)" d="M1055.49 1451.02 L1073.84 1451.02 L1073.84 1454.96 L1059.77 1454.96 L1059.77 1463.43 Q1060.79 1463.08 1061.81 1462.92 Q1062.83 1462.73 1063.84 1462.73 Q1069.63 1462.73 1073.01 1465.9 Q1076.39 1469.08 1076.39 1474.49 Q1076.39 1480.07 1072.92 1483.17 Q1069.45 1486.25 1063.13 1486.25 Q1060.95 1486.25 1058.68 1485.88 Q1056.44 1485.51 1054.03 1484.77 L1054.03 1480.07 Q1056.11 1481.2 1058.34 1481.76 Q1060.56 1482.32 1063.03 1482.32 Q1067.04 1482.32 1069.38 1480.21 Q1071.71 1478.1 1071.71 1474.49 Q1071.71 1470.88 1069.38 1468.77 Q1067.04 1466.67 1063.03 1466.67 Q1061.16 1466.67 1059.28 1467.08 Q1057.43 1467.5 1055.49 1468.38 L1055.49 1451.02 Z" fill="#000000" fill-rule="nonzero" fill-opacity="1" /><path clip-path="url(#clip680)" d="M1285.32 1466.44 Q1282.17 1466.44 1280.32 1468.59 Q1278.49 1470.74 1278.49 1474.49 Q1278.49 1478.22 1280.32 1480.39 Q1282.17 1482.55 1285.32 1482.55 Q1288.46 1482.55 1290.29 1480.39 Q1292.15 1478.22 1292.15 1474.49 Q1292.15 1470.74 1290.29 1468.59 Q1288.46 1466.44 1285.32 1466.44 M1294.6 1451.78 L1294.6 1456.04 Q1292.84 1455.21 1291.03 1454.77 Q1289.25 1454.33 1287.49 1454.33 Q1282.86 1454.33 1280.41 1457.45 Q1277.98 1460.58 1277.63 1466.9 Q1279 1464.89 1281.06 1463.82 Q1283.12 1462.73 1285.59 1462.73 Q1290.8 1462.73 1293.81 1465.9 Q1296.84 1469.05 1296.84 1474.49 Q1296.84 1479.82 1293.7 1483.03 Q1290.55 1486.25 1285.32 1486.25 Q1279.32 1486.25 1276.15 1481.67 Q1272.98 1477.06 1272.98 1468.33 Q1272.98 1460.14 1276.87 1455.28 Q1280.76 1450.39 1287.31 1450.39 Q1289.07 1450.39 1290.85 1450.74 Q1292.65 1451.09 1294.6 1451.78 Z" fill="#000000" fill-rule="nonzero" fill-opacity="1" /><path clip-path="url(#clip680)" d="M1304.95 1451.02 L1323.3 1451.02 L1323.3 1454.96 L1309.23 1454.96 L1309.23 1463.43 Q1310.25 1463.08 1311.27 1462.92 Q1312.28 1462.73 1313.3 1462.73 Q1319.09 1462.73 1322.47 1465.9 Q1325.85 1469.08 1325.85 1474.49 Q1325.85 1480.07 1322.38 1483.17 Q1318.9 1486.25 1312.59 1486.25 Q1310.41 1486.25 1308.14 1485.88 Q1305.9 1485.51 1303.49 1484.77 L1303.49 1480.07 Q1305.57 1481.2 1307.79 1481.76 Q1310.02 1482.32 1312.49 1482.32 Q1316.5 1482.32 1318.84 1480.21 Q1321.17 1478.1 1321.17 1474.49 Q1321.17 1470.88 1318.84 1468.77 Q1316.5 1466.67 1312.49 1466.67 Q1310.62 1466.67 1308.74 1467.08 Q1306.89 1467.5 1304.95 1468.38 L1304.95 1451.02 Z" fill="#000000" fill-rule="nonzero" fill-opacity="1" /><path clip-path="url(#clip680)" d="M1335.06 1479.7 L1339.95 1479.7 L1339.95 1485.58 L1335.06 1485.58 L1335.06 1479.7 Z" fill="#000000" fill-rule="nonzero" fill-opacity="1" /><path clip-path="url(#clip680)" d="M1360.13 1469.17 Q1356.8 1469.17 1354.88 1470.95 Q1352.98 1472.73 1352.98 1475.86 Q1352.98 1478.98 1354.88 1480.77 Q1356.8 1482.55 1360.13 1482.55 Q1363.46 1482.55 1365.39 1480.77 Q1367.31 1478.96 1367.31 1475.86 Q1367.31 1472.73 1365.39 1470.95 Q1363.49 1469.17 1360.13 1469.17 M1355.46 1467.18 Q1352.45 1466.44 1350.76 1464.38 Q1349.09 1462.32 1349.09 1459.35 Q1349.09 1455.21 1352.03 1452.8 Q1354.99 1450.39 1360.13 1450.39 Q1365.29 1450.39 1368.23 1452.8 Q1371.17 1455.21 1371.17 1459.35 Q1371.17 1462.32 1369.48 1464.38 Q1367.82 1466.44 1364.83 1467.18 Q1368.21 1467.96 1370.08 1470.26 Q1371.98 1472.55 1371.98 1475.86 Q1371.98 1480.88 1368.9 1483.57 Q1365.85 1486.25 1360.13 1486.25 Q1354.41 1486.25 1351.33 1483.57 Q1348.28 1480.88 1348.28 1475.86 Q1348.28 1472.55 1350.18 1470.26 Q1352.08 1467.96 1355.46 1467.18 M1353.74 1459.79 Q1353.74 1462.48 1355.41 1463.98 Q1357.1 1465.49 1360.13 1465.49 Q1363.14 1465.49 1364.83 1463.98 Q1366.54 1462.48 1366.54 1459.79 Q1366.54 1457.11 1364.83 1455.6 Q1363.14 1454.1 1360.13 1454.1 Q1357.1 1454.1 1355.41 1455.6 Q1353.74 1457.11 1353.74 1459.79 Z" fill="#000000" fill-rule="nonzero" fill-opacity="1" /><path clip-path="url(#clip680)" d="M1390.29 1454.1 Q1386.68 1454.1 1384.85 1457.66 Q1383.05 1461.2 1383.05 1468.33 Q1383.05 1475.44 1384.85 1479.01 Q1386.68 1482.55 1390.29 1482.55 Q1393.93 1482.55 1395.73 1479.01 Q1397.56 1475.44 1397.56 1468.33 Q1397.56 1461.2 1395.73 1457.66 Q1393.93 1454.1 1390.29 1454.1 M1390.29 1450.39 Q1396.1 1450.39 1399.16 1455 Q1402.24 1459.58 1402.24 1468.33 Q1402.24 1477.06 1399.16 1481.67 Q1396.1 1486.25 1390.29 1486.25 Q1384.48 1486.25 1381.4 1481.67 Q1378.35 1477.06 1378.35 1468.33 Q1378.35 1459.58 1381.4 1455 Q1384.48 1450.39 1390.29 1450.39 Z" fill="#000000" fill-rule="nonzero" fill-opacity="1" /><path clip-path="url(#clip680)" d="M1611.16 1466.44 Q1608.02 1466.44 1606.16 1468.59 Q1604.33 1470.74 1604.33 1474.49 Q1604.33 1478.22 1606.16 1480.39 Q1608.02 1482.55 1611.16 1482.55 Q1614.31 1482.55 1616.14 1480.39 Q1617.99 1478.22 1617.99 1474.49 Q1617.99 1470.74 1616.14 1468.59 Q1614.31 1466.44 1611.16 1466.44 M1620.45 1451.78 L1620.45 1456.04 Q1618.69 1455.21 1616.88 1454.77 Q1615.1 1454.33 1613.34 1454.33 Q1608.71 1454.33 1606.26 1457.45 Q1603.83 1460.58 1603.48 1466.9 Q1604.84 1464.89 1606.9 1463.82 Q1608.96 1462.73 1611.44 1462.73 Q1616.65 1462.73 1619.66 1465.9 Q1622.69 1469.05 1622.69 1474.49 Q1622.69 1479.82 1619.54 1483.03 Q1616.4 1486.25 1611.16 1486.25 Q1605.17 1486.25 1602 1481.67 Q1598.83 1477.06 1598.83 1468.33 Q1598.83 1460.14 1602.71 1455.28 Q1606.6 1450.39 1613.15 1450.39 Q1614.91 1450.39 1616.7 1450.74 Q1618.5 1451.09 1620.45 1451.78 Z" fill="#000000" fill-rule="nonzero" fill-opacity="1" /><path clip-path="url(#clip680)" d="M1630.79 1451.02 L1649.15 1451.02 L1649.15 1454.96 L1635.08 1454.96 L1635.08 1463.43 Q1636.09 1463.08 1637.11 1462.92 Q1638.13 1462.73 1639.15 1462.73 Q1644.94 1462.73 1648.32 1465.9 Q1651.7 1469.08 1651.7 1474.49 Q1651.7 1480.07 1648.22 1483.17 Q1644.75 1486.25 1638.43 1486.25 Q1636.26 1486.25 1633.99 1485.88 Q1631.74 1485.51 1629.33 1484.77 L1629.33 1480.07 Q1631.42 1481.2 1633.64 1481.76 Q1635.86 1482.32 1638.34 1482.32 Q1642.34 1482.32 1644.68 1480.21 Q1647.02 1478.1 1647.02 1474.49 Q1647.02 1470.88 1644.68 1468.77 Q1642.34 1466.67 1638.34 1466.67 Q1636.46 1466.67 1634.59 1467.08 Q1632.74 1467.5 1630.79 1468.38 L1630.79 1451.02 Z" fill="#000000" fill-rule="nonzero" fill-opacity="1" /><path clip-path="url(#clip680)" d="M1660.91 1479.7 L1665.79 1479.7 L1665.79 1485.58 L1660.91 1485.58 L1660.91 1479.7 Z" fill="#000000" fill-rule="nonzero" fill-opacity="1" /><path clip-path="url(#clip680)" d="M1685.98 1469.17 Q1682.64 1469.17 1680.72 1470.95 Q1678.83 1472.73 1678.83 1475.86 Q1678.83 1478.98 1680.72 1480.77 Q1682.64 1482.55 1685.98 1482.55 Q1689.31 1482.55 1691.23 1480.77 Q1693.15 1478.96 1693.15 1475.86 Q1693.15 1472.73 1691.23 1470.95 Q1689.33 1469.17 1685.98 1469.17 M1681.3 1467.18 Q1678.29 1466.44 1676.6 1464.38 Q1674.94 1462.32 1674.94 1459.35 Q1674.94 1455.21 1677.88 1452.8 Q1680.84 1450.39 1685.98 1450.39 Q1691.14 1450.39 1694.08 1452.8 Q1697.02 1455.21 1697.02 1459.35 Q1697.02 1462.32 1695.33 1464.38 Q1693.66 1466.44 1690.68 1467.18 Q1694.06 1467.96 1695.93 1470.26 Q1697.83 1472.55 1697.83 1475.86 Q1697.83 1480.88 1694.75 1483.57 Q1691.7 1486.25 1685.98 1486.25 Q1680.26 1486.25 1677.18 1483.57 Q1674.13 1480.88 1674.13 1475.86 Q1674.13 1472.55 1676.02 1470.26 Q1677.92 1467.96 1681.3 1467.18 M1679.59 1459.79 Q1679.59 1462.48 1681.26 1463.98 Q1682.95 1465.49 1685.98 1465.49 Q1688.99 1465.49 1690.68 1463.98 Q1692.39 1462.48 1692.39 1459.79 Q1692.39 1457.11 1690.68 1455.6 Q1688.99 1454.1 1685.98 1454.1 Q1682.95 1454.1 1681.26 1455.6 Q1679.59 1457.11 1679.59 1459.79 Z" fill="#000000" fill-rule="nonzero" fill-opacity="1" /><path clip-path="url(#clip680)" d="M1706.19 1451.02 L1724.54 1451.02 L1724.54 1454.96 L1710.47 1454.96 L1710.47 1463.43 Q1711.49 1463.08 1712.51 1462.92 Q1713.52 1462.73 1714.54 1462.73 Q1720.33 1462.73 1723.71 1465.9 Q1727.09 1469.08 1727.09 1474.49 Q1727.09 1480.07 1723.62 1483.17 Q1720.14 1486.25 1713.83 1486.25 Q1711.65 1486.25 1709.38 1485.88 Q1707.14 1485.51 1704.73 1484.77 L1704.73 1480.07 Q1706.81 1481.2 1709.03 1481.76 Q1711.26 1482.32 1713.73 1482.32 Q1717.74 1482.32 1720.08 1480.21 Q1722.41 1478.1 1722.41 1474.49 Q1722.41 1470.88 1720.08 1468.77 Q1717.74 1466.67 1713.73 1466.67 Q1711.86 1466.67 1709.98 1467.08 Q1708.13 1467.5 1706.19 1468.38 L1706.19 1451.02 Z" fill="#000000" fill-rule="nonzero" fill-opacity="1" /><path clip-path="url(#clip680)" d="M1936.02 1466.44 Q1932.87 1466.44 1931.02 1468.59 Q1929.19 1470.74 1929.19 1474.49 Q1929.19 1478.22 1931.02 1480.39 Q1932.87 1482.55 1936.02 1482.55 Q1939.16 1482.55 1940.99 1480.39 Q1942.84 1478.22 1942.84 1474.49 Q1942.84 1470.74 1940.99 1468.59 Q1939.16 1466.44 1936.02 1466.44 M1945.3 1451.78 L1945.3 1456.04 Q1943.54 1455.21 1941.73 1454.77 Q1939.95 1454.33 1938.19 1454.33 Q1933.56 1454.33 1931.11 1457.45 Q1928.68 1460.58 1928.33 1466.9 Q1929.7 1464.89 1931.76 1463.82 Q1933.82 1462.73 1936.29 1462.73 Q1941.5 1462.73 1944.51 1465.9 Q1947.54 1469.05 1947.54 1474.49 Q1947.54 1479.82 1944.39 1483.03 Q1941.25 1486.25 1936.02 1486.25 Q1930.02 1486.25 1926.85 1481.67 Q1923.68 1477.06 1923.68 1468.33 Q1923.68 1460.14 1927.57 1455.28 Q1931.45 1450.39 1938.01 1450.39 Q1939.76 1450.39 1941.55 1450.74 Q1943.35 1451.09 1945.3 1451.78 Z" fill="#000000" fill-rule="nonzero" fill-opacity="1" /><path clip-path="url(#clip680)" d="M1955.64 1451.02 L1974 1451.02 L1974 1454.96 L1959.93 1454.96 L1959.93 1463.43 Q1960.95 1463.08 1961.96 1462.92 Q1962.98 1462.73 1964 1462.73 Q1969.79 1462.73 1973.17 1465.9 Q1976.55 1469.08 1976.55 1474.49 Q1976.55 1480.07 1973.07 1483.17 Q1969.6 1486.25 1963.28 1486.25 Q1961.11 1486.25 1958.84 1485.88 Q1956.59 1485.51 1954.19 1484.77 L1954.19 1480.07 Q1956.27 1481.2 1958.49 1481.76 Q1960.71 1482.32 1963.19 1482.32 Q1967.2 1482.32 1969.53 1480.21 Q1971.87 1478.1 1971.87 1474.49 Q1971.87 1470.88 1969.53 1468.77 Q1967.2 1466.67 1963.19 1466.67 Q1961.32 1466.67 1959.44 1467.08 Q1957.59 1467.5 1955.64 1468.38 L1955.64 1451.02 Z" fill="#000000" fill-rule="nonzero" fill-opacity="1" /><path clip-path="url(#clip680)" d="M1985.76 1479.7 L1990.64 1479.7 L1990.64 1485.58 L1985.76 1485.58 L1985.76 1479.7 Z" fill="#000000" fill-rule="nonzero" fill-opacity="1" /><path clip-path="url(#clip680)" d="M2000.97 1484.86 L2000.97 1480.6 Q2002.73 1481.44 2004.53 1481.88 Q2006.34 1482.32 2008.07 1482.32 Q2012.7 1482.32 2015.13 1479.21 Q2017.59 1476.09 2017.94 1469.75 Q2016.59 1471.74 2014.53 1472.8 Q2012.47 1473.87 2009.97 1473.87 Q2004.79 1473.87 2001.76 1470.74 Q1998.75 1467.59 1998.75 1462.15 Q1998.75 1456.83 2001.89 1453.61 Q2005.04 1450.39 2010.27 1450.39 Q2016.27 1450.39 2019.42 1455 Q2022.59 1459.58 2022.59 1468.33 Q2022.59 1476.51 2018.7 1481.39 Q2014.83 1486.25 2008.28 1486.25 Q2006.52 1486.25 2004.72 1485.9 Q2002.91 1485.56 2000.97 1484.86 M2010.27 1470.21 Q2013.42 1470.21 2015.25 1468.06 Q2017.1 1465.9 2017.1 1462.15 Q2017.1 1458.43 2015.25 1456.27 Q2013.42 1454.1 2010.27 1454.1 Q2007.13 1454.1 2005.27 1456.27 Q2003.45 1458.43 2003.45 1462.15 Q2003.45 1465.9 2005.27 1468.06 Q2007.13 1470.21 2010.27 1470.21 Z" fill="#000000" fill-rule="nonzero" fill-opacity="1" /><path clip-path="url(#clip680)" d="M2040.99 1454.1 Q2037.38 1454.1 2035.55 1457.66 Q2033.75 1461.2 2033.75 1468.33 Q2033.75 1475.44 2035.55 1479.01 Q2037.38 1482.55 2040.99 1482.55 Q2044.63 1482.55 2046.43 1479.01 Q2048.26 1475.44 2048.26 1468.33 Q2048.26 1461.2 2046.43 1457.66 Q2044.63 1454.1 2040.99 1454.1 M2040.99 1450.39 Q2046.8 1450.39 2049.86 1455 Q2052.94 1459.58 2052.94 1468.33 Q2052.94 1477.06 2049.86 1481.67 Q2046.8 1486.25 2040.99 1486.25 Q2035.18 1486.25 2032.1 1481.67 Q2029.05 1477.06 2029.05 1468.33 Q2029.05 1459.58 2032.1 1455 Q2035.18 1450.39 2040.99 1450.39 Z" fill="#000000" fill-rule="nonzero" fill-opacity="1" /><path clip-path="url(#clip680)" d="M2261.86 1466.44 Q2258.71 1466.44 2256.86 1468.59 Q2255.03 1470.74 2255.03 1474.49 Q2255.03 1478.22 2256.86 1480.39 Q2258.71 1482.55 2261.86 1482.55 Q2265.01 1482.55 2266.84 1480.39 Q2268.69 1478.22 2268.69 1474.49 Q2268.69 1470.74 2266.84 1468.59 Q2265.01 1466.44 2261.86 1466.44 M2271.14 1451.78 L2271.14 1456.04 Q2269.38 1455.21 2267.58 1454.77 Q2265.8 1454.33 2264.04 1454.33 Q2259.41 1454.33 2256.95 1457.45 Q2254.52 1460.58 2254.18 1466.9 Q2255.54 1464.89 2257.6 1463.82 Q2259.66 1462.73 2262.14 1462.73 Q2267.35 1462.73 2270.36 1465.9 Q2273.39 1469.05 2273.39 1474.49 Q2273.39 1479.82 2270.24 1483.03 Q2267.09 1486.25 2261.86 1486.25 Q2255.87 1486.25 2252.7 1481.67 Q2249.52 1477.06 2249.52 1468.33 Q2249.52 1460.14 2253.41 1455.28 Q2257.3 1450.39 2263.85 1450.39 Q2265.61 1450.39 2267.39 1450.74 Q2269.2 1451.09 2271.14 1451.78 Z" fill="#000000" fill-rule="nonzero" fill-opacity="1" /><path clip-path="url(#clip680)" d="M2281.49 1451.02 L2299.85 1451.02 L2299.85 1454.96 L2285.77 1454.96 L2285.77 1463.43 Q2286.79 1463.08 2287.81 1462.92 Q2288.83 1462.73 2289.85 1462.73 Q2295.63 1462.73 2299.01 1465.9 Q2302.39 1469.08 2302.39 1474.49 Q2302.39 1480.07 2298.92 1483.17 Q2295.45 1486.25 2289.13 1486.25 Q2286.95 1486.25 2284.69 1485.88 Q2282.44 1485.51 2280.03 1484.77 L2280.03 1480.07 Q2282.12 1481.2 2284.34 1481.76 Q2286.56 1482.32 2289.04 1482.32 Q2293.04 1482.32 2295.38 1480.21 Q2297.72 1478.1 2297.72 1474.49 Q2297.72 1470.88 2295.38 1468.77 Q2293.04 1466.67 2289.04 1466.67 Q2287.16 1466.67 2285.29 1467.08 Q2283.44 1467.5 2281.49 1468.38 L2281.49 1451.02 Z" fill="#000000" fill-rule="nonzero" fill-opacity="1" /><path clip-path="url(#clip680)" d="M2311.61 1479.7 L2316.49 1479.7 L2316.49 1485.58 L2311.61 1485.58 L2311.61 1479.7 Z" fill="#000000" fill-rule="nonzero" fill-opacity="1" /><path clip-path="url(#clip680)" d="M2326.82 1484.86 L2326.82 1480.6 Q2328.57 1481.44 2330.38 1481.88 Q2332.19 1482.32 2333.92 1482.32 Q2338.55 1482.32 2340.98 1479.21 Q2343.44 1476.09 2343.78 1469.75 Q2342.44 1471.74 2340.38 1472.8 Q2338.32 1473.87 2335.82 1473.87 Q2330.63 1473.87 2327.6 1470.74 Q2324.59 1467.59 2324.59 1462.15 Q2324.59 1456.83 2327.74 1453.61 Q2330.89 1450.39 2336.12 1450.39 Q2342.12 1450.39 2345.26 1455 Q2348.44 1459.58 2348.44 1468.33 Q2348.44 1476.51 2344.55 1481.39 Q2340.68 1486.25 2334.13 1486.25 Q2332.37 1486.25 2330.57 1485.9 Q2328.76 1485.56 2326.82 1484.86 M2336.12 1470.21 Q2339.27 1470.21 2341.1 1468.06 Q2342.95 1465.9 2342.95 1462.15 Q2342.95 1458.43 2341.1 1456.27 Q2339.27 1454.1 2336.12 1454.1 Q2332.97 1454.1 2331.12 1456.27 Q2329.29 1458.43 2329.29 1462.15 Q2329.29 1465.9 2331.12 1468.06 Q2332.97 1470.21 2336.12 1470.21 Z" fill="#000000" fill-rule="nonzero" fill-opacity="1" /><path clip-path="url(#clip680)" d="M2356.88 1451.02 L2375.24 1451.02 L2375.24 1454.96 L2361.17 1454.96 L2361.17 1463.43 Q2362.19 1463.08 2363.2 1462.92 Q2364.22 1462.73 2365.24 1462.73 Q2371.03 1462.73 2374.41 1465.9 Q2377.79 1469.08 2377.79 1474.49 Q2377.79 1480.07 2374.31 1483.17 Q2370.84 1486.25 2364.52 1486.25 Q2362.35 1486.25 2360.08 1485.88 Q2357.83 1485.51 2355.43 1484.77 L2355.43 1480.07 Q2357.51 1481.2 2359.73 1481.76 Q2361.95 1482.32 2364.43 1482.32 Q2368.44 1482.32 2370.77 1480.21 Q2373.11 1478.1 2373.11 1474.49 Q2373.11 1470.88 2370.77 1468.77 Q2368.44 1466.67 2364.43 1466.67 Q2362.56 1466.67 2360.68 1467.08 Q2358.83 1467.5 2356.88 1468.38 L2356.88 1451.02 Z" fill="#000000" fill-rule="nonzero" fill-opacity="1" /><path clip-path="url(#clip680)" d="M1156.84 1526.86 L1148.12 1550.51 L1165.6 1550.51 L1156.84 1526.86 M1153.22 1520.52 L1160.5 1520.52 L1178.61 1568.04 L1171.93 1568.04 L1167.6 1555.85 L1146.18 1555.85 L1141.85 1568.04 L1135.07 1568.04 L1153.22 1520.52 Z" fill="#000000" fill-rule="nonzero" fill-opacity="1" /><path clip-path="url(#clip680)" d="M1208.76 1549.81 Q1208.76 1543.44 1206.11 1539.94 Q1203.5 1536.44 1198.76 1536.44 Q1194.05 1536.44 1191.41 1539.94 Q1188.8 1543.44 1188.8 1549.81 Q1188.8 1556.14 1191.41 1559.64 Q1194.05 1563.14 1198.76 1563.14 Q1203.5 1563.14 1206.11 1559.64 Q1208.76 1556.14 1208.76 1549.81 M1214.61 1563.62 Q1214.61 1572.72 1210.57 1577.15 Q1206.53 1581.6 1198.19 1581.6 Q1195.1 1581.6 1192.36 1581.13 Q1189.63 1580.68 1187.05 1579.72 L1187.05 1574.03 Q1189.63 1575.43 1192.14 1576.1 Q1194.66 1576.76 1197.27 1576.76 Q1203.03 1576.76 1205.89 1573.74 Q1208.76 1570.75 1208.76 1564.67 L1208.76 1561.77 Q1206.94 1564.92 1204.11 1566.48 Q1201.28 1568.04 1197.33 1568.04 Q1190.77 1568.04 1186.76 1563.05 Q1182.75 1558.05 1182.75 1549.81 Q1182.75 1541.53 1186.76 1536.53 Q1190.77 1531.54 1197.33 1531.54 Q1201.28 1531.54 1204.11 1533.1 Q1206.94 1534.66 1208.76 1537.81 L1208.76 1532.4 L1214.61 1532.4 L1214.61 1563.62 Z" fill="#000000" fill-rule="nonzero" fill-opacity="1" /><path clip-path="url(#clip680)" d="M1257.17 1548.76 L1257.17 1551.62 L1230.24 1551.62 Q1230.62 1557.67 1233.87 1560.85 Q1237.15 1564 1242.97 1564 Q1246.35 1564 1249.5 1563.17 Q1252.68 1562.35 1255.8 1560.69 L1255.8 1566.23 Q1252.65 1567.57 1249.34 1568.27 Q1246.03 1568.97 1242.62 1568.97 Q1234.09 1568.97 1229.09 1564 Q1224.13 1559.04 1224.13 1550.57 Q1224.13 1541.82 1228.84 1536.69 Q1233.58 1531.54 1241.6 1531.54 Q1248.8 1531.54 1252.97 1536.18 Q1257.17 1540.8 1257.17 1548.76 M1251.31 1547.04 Q1251.25 1542.23 1248.61 1539.37 Q1246 1536.5 1241.67 1536.5 Q1236.77 1536.5 1233.81 1539.27 Q1230.88 1542.04 1230.43 1547.07 L1251.31 1547.04 Z" fill="#000000" fill-rule="nonzero" fill-opacity="1" /><path clip-path="url(#clip680)" d="M1301.57 1518.58 Q1297.3 1525.9 1295.23 1533.06 Q1293.17 1540.23 1293.17 1547.58 Q1293.17 1554.93 1295.23 1562.16 Q1297.34 1569.35 1301.57 1576.64 L1296.48 1576.64 Q1291.7 1569.16 1289.31 1561.93 Q1286.96 1554.71 1286.96 1547.58 Q1286.96 1540.48 1289.31 1533.29 Q1291.67 1526.09 1296.48 1518.58 L1301.57 1518.58 Z" fill="#000000" fill-rule="nonzero" fill-opacity="1" /><path clip-path="url(#clip680)" d="M1313.19 1520.52 L1322.77 1520.52 L1334.89 1552.86 L1347.08 1520.52 L1356.66 1520.52 L1356.66 1568.04 L1350.39 1568.04 L1350.39 1526.32 L1338.14 1558.91 L1331.68 1558.91 L1319.42 1526.32 L1319.42 1568.04 L1313.19 1568.04 L1313.19 1520.52 Z" fill="#000000" fill-rule="nonzero" fill-opacity="1" /><path clip-path="url(#clip680)" d="M1385.37 1550.12 Q1378.28 1550.12 1375.54 1551.75 Q1372.8 1553.37 1372.8 1557.29 Q1372.8 1560.4 1374.84 1562.25 Q1376.91 1564.07 1380.44 1564.07 Q1385.31 1564.07 1388.24 1560.63 Q1391.2 1557.16 1391.2 1551.43 L1391.2 1550.12 L1385.37 1550.12 M1397.05 1547.71 L1397.05 1568.04 L1391.2 1568.04 L1391.2 1562.63 Q1389.19 1565.88 1386.2 1567.44 Q1383.21 1568.97 1378.88 1568.97 Q1373.41 1568.97 1370.16 1565.91 Q1366.94 1562.82 1366.94 1557.67 Q1366.94 1551.65 1370.95 1548.6 Q1375 1545.54 1382.99 1545.54 L1391.2 1545.54 L1391.2 1544.97 Q1391.2 1540.93 1388.52 1538.73 Q1385.88 1536.5 1381.08 1536.5 Q1378.02 1536.5 1375.12 1537.23 Q1372.23 1537.97 1369.55 1539.43 L1369.55 1534.02 Q1372.77 1532.78 1375.79 1532.17 Q1378.82 1531.54 1381.68 1531.54 Q1389.42 1531.54 1393.23 1535.55 Q1397.05 1539.56 1397.05 1547.71 Z" fill="#000000" fill-rule="nonzero" fill-opacity="1" /><path clip-path="url(#clip680)" d="M1408.19 1518.58 L1413.29 1518.58 Q1418.06 1526.09 1420.42 1533.29 Q1422.8 1540.48 1422.8 1547.58 Q1422.8 1554.71 1420.42 1561.93 Q1418.06 1569.16 1413.29 1576.64 L1408.19 1576.64 Q1412.43 1569.35 1414.5 1562.16 Q1416.6 1554.93 1416.6 1547.58 Q1416.6 1540.23 1414.5 1533.06 Q1412.43 1525.9 1408.19 1518.58 Z" fill="#000000" fill-rule="nonzero" fill-opacity="1" /><polyline clip-path="url(#clip680)" style="stroke:#000000; stroke-linecap:round; stroke-linejoin:round; stroke-width:4; stroke-opacity:1; fill:none" points="205.121,1423.18 205.121,47.2441 "/>
<polyline clip-path="url(#clip680)" style="stroke:#000000; stroke-linecap:round; stroke-linejoin:round; stroke-width:4; stroke-opacity:1; fill:none" points="2352.76,1423.18 2352.76,47.2441 "/>
<polyline clip-path="url(#clip680)" style="stroke:#000000; stroke-linecap:round; stroke-linejoin:round; stroke-width:4; stroke-opacity:1; fill:none" points="205.121,1384.24 224.019,1384.24 "/>
<polyline clip-path="url(#clip680)" style="stroke:#000000; stroke-linecap:round; stroke-linejoin:round; stroke-width:4; stroke-opacity:1; fill:none" points="205.121,1165.33 224.019,1165.33 "/>
<polyline clip-path="url(#clip680)" style="stroke:#000000; stroke-linecap:round; stroke-linejoin:round; stroke-width:4; stroke-opacity:1; fill:none" points="205.121,946.413 224.019,946.413 "/>
<polyline clip-path="url(#clip680)" style="stroke:#000000; stroke-linecap:round; stroke-linejoin:round; stroke-width:4; stroke-opacity:1; fill:none" points="205.121,727.5 224.019,727.5 "/>
<polyline clip-path="url(#clip680)" style="stroke:#000000; stroke-linecap:round; stroke-linejoin:round; stroke-width:4; stroke-opacity:1; fill:none" points="205.121,508.587 224.019,508.587 "/>
<polyline clip-path="url(#clip680)" style="stroke:#000000; stroke-linecap:round; stroke-linejoin:round; stroke-width:4; stroke-opacity:1; fill:none" points="205.121,289.674 224.019,289.674 "/>
<polyline clip-path="url(#clip680)" style="stroke:#000000; stroke-linecap:round; stroke-linejoin:round; stroke-width:4; stroke-opacity:1; fill:none" points="205.121,70.7613 224.019,70.7613 "/>
<polyline clip-path="url(#clip680)" style="stroke:#000000; stroke-linecap:round; stroke-linejoin:round; stroke-width:4; stroke-opacity:1; fill:none" points="2352.76,1384.24 2333.86,1384.24 "/>
<polyline clip-path="url(#clip680)" style="stroke:#000000; stroke-linecap:round; stroke-linejoin:round; stroke-width:4; stroke-opacity:1; fill:none" points="2352.76,1165.33 2333.86,1165.33 "/>
<polyline clip-path="url(#clip680)" style="stroke:#000000; stroke-linecap:round; stroke-linejoin:round; stroke-width:4; stroke-opacity:1; fill:none" points="2352.76,946.413 2333.86,946.413 "/>
<polyline clip-path="url(#clip680)" style="stroke:#000000; stroke-linecap:round; stroke-linejoin:round; stroke-width:4; stroke-opacity:1; fill:none" points="2352.76,727.5 2333.86,727.5 "/>
<polyline clip-path="url(#clip680)" style="stroke:#000000; stroke-linecap:round; stroke-linejoin:round; stroke-width:4; stroke-opacity:1; fill:none" points="2352.76,508.587 2333.86,508.587 "/>
<polyline clip-path="url(#clip680)" style="stroke:#000000; stroke-linecap:round; stroke-linejoin:round; stroke-width:4; stroke-opacity:1; fill:none" points="2352.76,289.674 2333.86,289.674 "/>
<polyline clip-path="url(#clip680)" style="stroke:#000000; stroke-linecap:round; stroke-linejoin:round; stroke-width:4; stroke-opacity:1; fill:none" points="2352.76,70.7613 2333.86,70.7613 "/>
<path clip-path="url(#clip680)" d="M157.177 1370.04 Q153.566 1370.04 151.737 1373.6 Q149.931 1377.14 149.931 1384.27 Q149.931 1391.38 151.737 1394.94 Q153.566 1398.49 157.177 1398.49 Q160.811 1398.49 162.616 1394.94 Q164.445 1391.38 164.445 1384.27 Q164.445 1377.14 162.616 1373.6 Q160.811 1370.04 157.177 1370.04 M157.177 1366.33 Q162.987 1366.33 166.042 1370.94 Q169.121 1375.52 169.121 1384.27 Q169.121 1393 166.042 1397.61 Q162.987 1402.19 157.177 1402.19 Q151.366 1402.19 148.288 1397.61 Q145.232 1393 145.232 1384.27 Q145.232 1375.52 148.288 1370.94 Q151.366 1366.33 157.177 1366.33 Z" fill="#000000" fill-rule="nonzero" fill-opacity="1" /><path clip-path="url(#clip680)" d="M117.825 1178.67 L125.464 1178.67 L125.464 1152.3 L117.154 1153.97 L117.154 1149.71 L125.418 1148.05 L130.093 1148.05 L130.093 1178.67 L137.732 1178.67 L137.732 1182.61 L117.825 1182.61 L117.825 1178.67 Z" fill="#000000" fill-rule="nonzero" fill-opacity="1" /><path clip-path="url(#clip680)" d="M157.177 1151.12 Q153.566 1151.12 151.737 1154.69 Q149.931 1158.23 149.931 1165.36 Q149.931 1172.47 151.737 1176.03 Q153.566 1179.57 157.177 1179.57 Q160.811 1179.57 162.616 1176.03 Q164.445 1172.47 164.445 1165.36 Q164.445 1158.23 162.616 1154.69 Q160.811 1151.12 157.177 1151.12 M157.177 1147.42 Q162.987 1147.42 166.042 1152.03 Q169.121 1156.61 169.121 1165.36 Q169.121 1174.09 166.042 1178.69 Q162.987 1183.28 157.177 1183.28 Q151.366 1183.28 148.288 1178.69 Q145.232 1174.09 145.232 1165.36 Q145.232 1156.61 148.288 1152.03 Q151.366 1147.42 157.177 1147.42 Z" fill="#000000" fill-rule="nonzero" fill-opacity="1" /><path clip-path="url(#clip680)" d="M121.043 959.757 L137.362 959.757 L137.362 963.693 L115.418 963.693 L115.418 959.757 Q118.08 957.003 122.663 952.373 Q127.269 947.72 128.45 946.378 Q130.695 943.855 131.575 942.119 Q132.478 940.359 132.478 938.67 Q132.478 935.915 130.533 934.179 Q128.612 932.443 125.51 932.443 Q123.311 932.443 120.857 933.207 Q118.427 933.971 115.649 935.521 L115.649 930.799 Q118.473 929.665 120.927 929.086 Q123.38 928.508 125.418 928.508 Q130.788 928.508 133.982 931.193 Q137.177 933.878 137.177 938.369 Q137.177 940.498 136.367 942.42 Q135.579 944.318 133.473 946.91 Q132.894 947.582 129.792 950.799 Q126.691 953.994 121.043 959.757 Z" fill="#000000" fill-rule="nonzero" fill-opacity="1" /><path clip-path="url(#clip680)" d="M157.177 932.211 Q153.566 932.211 151.737 935.776 Q149.931 939.318 149.931 946.447 Q149.931 953.554 151.737 957.119 Q153.566 960.66 157.177 960.66 Q160.811 960.66 162.616 957.119 Q164.445 953.554 164.445 946.447 Q164.445 939.318 162.616 935.776 Q160.811 932.211 157.177 932.211 M157.177 928.508 Q162.987 928.508 166.042 933.114 Q169.121 937.697 169.121 946.447 Q169.121 955.174 166.042 959.781 Q162.987 964.364 157.177 964.364 Q151.366 964.364 148.288 959.781 Q145.232 955.174 145.232 946.447 Q145.232 937.697 148.288 933.114 Q151.366 928.508 157.177 928.508 Z" fill="#000000" fill-rule="nonzero" fill-opacity="1" /><path clip-path="url(#clip680)" d="M131.181 726.146 Q134.538 726.863 136.413 729.132 Q138.311 731.4 138.311 734.734 Q138.311 739.849 134.792 742.65 Q131.274 745.451 124.793 745.451 Q122.617 745.451 120.302 745.011 Q118.01 744.595 115.556 743.738 L115.556 739.224 Q117.501 740.358 119.816 740.937 Q122.13 741.516 124.654 741.516 Q129.052 741.516 131.343 739.78 Q133.658 738.044 133.658 734.734 Q133.658 731.678 131.505 729.965 Q129.376 728.229 125.556 728.229 L121.529 728.229 L121.529 724.386 L125.742 724.386 Q129.191 724.386 131.019 723.021 Q132.848 721.632 132.848 719.039 Q132.848 716.377 130.95 714.965 Q129.075 713.53 125.556 713.53 Q123.635 713.53 121.436 713.947 Q119.237 714.363 116.598 715.243 L116.598 711.076 Q119.26 710.336 121.575 709.965 Q123.913 709.595 125.973 709.595 Q131.297 709.595 134.399 712.025 Q137.501 714.433 137.501 718.553 Q137.501 721.423 135.857 723.414 Q134.214 725.382 131.181 726.146 Z" fill="#000000" fill-rule="nonzero" fill-opacity="1" /><path clip-path="url(#clip680)" d="M157.177 713.298 Q153.566 713.298 151.737 716.863 Q149.931 720.405 149.931 727.534 Q149.931 734.641 151.737 738.206 Q153.566 741.747 157.177 741.747 Q160.811 741.747 162.616 738.206 Q164.445 734.641 164.445 727.534 Q164.445 720.405 162.616 716.863 Q160.811 713.298 157.177 713.298 M157.177 709.595 Q162.987 709.595 166.042 714.201 Q169.121 718.785 169.121 727.534 Q169.121 736.261 166.042 740.868 Q162.987 745.451 157.177 745.451 Q151.366 745.451 148.288 740.868 Q145.232 736.261 145.232 727.534 Q145.232 718.785 148.288 714.201 Q151.366 709.595 157.177 709.595 Z" fill="#000000" fill-rule="nonzero" fill-opacity="1" /><path clip-path="url(#clip680)" d="M129.862 495.381 L118.056 513.83 L129.862 513.83 L129.862 495.381 M128.635 491.307 L134.515 491.307 L134.515 513.83 L139.445 513.83 L139.445 517.719 L134.515 517.719 L134.515 525.867 L129.862 525.867 L129.862 517.719 L114.26 517.719 L114.26 513.205 L128.635 491.307 Z" fill="#000000" fill-rule="nonzero" fill-opacity="1" /><path clip-path="url(#clip680)" d="M157.177 494.386 Q153.566 494.386 151.737 497.95 Q149.931 501.492 149.931 508.622 Q149.931 515.728 151.737 519.293 Q153.566 522.835 157.177 522.835 Q160.811 522.835 162.616 519.293 Q164.445 515.728 164.445 508.622 Q164.445 501.492 162.616 497.95 Q160.811 494.386 157.177 494.386 M157.177 490.682 Q162.987 490.682 166.042 495.288 Q169.121 499.872 169.121 508.622 Q169.121 517.348 166.042 521.955 Q162.987 526.538 157.177 526.538 Q151.366 526.538 148.288 521.955 Q145.232 517.348 145.232 508.622 Q145.232 499.872 148.288 495.288 Q151.366 490.682 157.177 490.682 Z" fill="#000000" fill-rule="nonzero" fill-opacity="1" /><path clip-path="url(#clip680)" d="M117.061 272.394 L135.417 272.394 L135.417 276.329 L121.343 276.329 L121.343 284.801 Q122.362 284.454 123.38 284.292 Q124.399 284.107 125.418 284.107 Q131.205 284.107 134.584 287.278 Q137.964 290.45 137.964 295.866 Q137.964 301.445 134.492 304.547 Q131.019 307.625 124.7 307.625 Q122.524 307.625 120.255 307.255 Q118.01 306.885 115.603 306.144 L115.603 301.445 Q117.686 302.579 119.908 303.135 Q122.13 303.69 124.607 303.69 Q128.612 303.69 130.95 301.584 Q133.288 299.477 133.288 295.866 Q133.288 292.255 130.95 290.149 Q128.612 288.042 124.607 288.042 Q122.732 288.042 120.857 288.459 Q119.006 288.875 117.061 289.755 L117.061 272.394 Z" fill="#000000" fill-rule="nonzero" fill-opacity="1" /><path clip-path="url(#clip680)" d="M157.177 275.473 Q153.566 275.473 151.737 279.038 Q149.931 282.579 149.931 289.709 Q149.931 296.815 151.737 300.38 Q153.566 303.922 157.177 303.922 Q160.811 303.922 162.616 300.38 Q164.445 296.815 164.445 289.709 Q164.445 282.579 162.616 279.038 Q160.811 275.473 157.177 275.473 M157.177 271.769 Q162.987 271.769 166.042 276.376 Q169.121 280.959 169.121 289.709 Q169.121 298.436 166.042 303.042 Q162.987 307.625 157.177 307.625 Q151.366 307.625 148.288 303.042 Q145.232 298.436 145.232 289.709 Q145.232 280.959 148.288 276.376 Q151.366 271.769 157.177 271.769 Z" fill="#000000" fill-rule="nonzero" fill-opacity="1" /><path clip-path="url(#clip680)" d="M127.593 68.8978 Q124.445 68.8978 122.593 71.0506 Q120.765 73.2034 120.765 76.9534 Q120.765 80.6802 122.593 82.8561 Q124.445 85.0089 127.593 85.0089 Q130.742 85.0089 132.57 82.8561 Q134.422 80.6802 134.422 76.9534 Q134.422 73.2034 132.57 71.0506 Q130.742 68.8978 127.593 68.8978 M136.876 54.2451 L136.876 58.5044 Q135.117 57.6711 133.311 57.2312 Q131.529 56.7914 129.769 56.7914 Q125.14 56.7914 122.686 59.9164 Q120.255 63.0414 119.908 69.3608 Q121.274 67.3469 123.334 66.2821 Q125.394 65.1942 127.871 65.1942 Q133.08 65.1942 136.089 68.3654 Q139.121 71.5136 139.121 76.9534 Q139.121 82.2774 135.973 85.495 Q132.825 88.7126 127.593 88.7126 Q121.598 88.7126 118.427 84.1292 Q115.256 79.5228 115.256 70.796 Q115.256 62.6016 119.144 57.7405 Q123.033 52.8563 129.584 52.8563 Q131.343 52.8563 133.126 53.2035 Q134.931 53.5507 136.876 54.2451 Z" fill="#000000" fill-rule="nonzero" fill-opacity="1" /><path clip-path="url(#clip680)" d="M157.177 56.56 Q153.566 56.56 151.737 60.1247 Q149.931 63.6664 149.931 70.796 Q149.931 77.9024 151.737 81.4672 Q153.566 85.0089 157.177 85.0089 Q160.811 85.0089 162.616 81.4672 Q164.445 77.9024 164.445 70.796 Q164.445 63.6664 162.616 60.1247 Q160.811 56.56 157.177 56.56 M157.177 52.8563 Q162.987 52.8563 166.042 57.4627 Q169.121 62.046 169.121 70.796 Q169.121 79.5228 166.042 84.1292 Q162.987 88.7126 157.177 88.7126 Q151.366 88.7126 148.288 84.1292 Q145.232 79.5228 145.232 70.796 Q145.232 62.046 148.288 57.4627 Q151.366 52.8563 157.177 52.8563 Z" fill="#000000" fill-rule="nonzero" fill-opacity="1" /><path clip-path="url(#clip680)" d="M21.7677 1026.76 L39.6235 1026.76 L39.6235 1018.68 Q39.6235 1014.19 37.3 1011.74 Q34.9765 1009.29 30.6797 1009.29 Q26.4147 1009.29 24.0912 1011.74 Q21.7677 1014.19 21.7677 1018.68 L21.7677 1026.76 M16.4842 1033.19 L16.4842 1018.68 Q16.4842 1010.69 20.1126 1006.61 Q23.7092 1002.51 30.6797 1002.51 Q37.7138 1002.51 41.3104 1006.61 Q44.907 1010.69 44.907 1018.68 L44.907 1026.76 L64.0042 1026.76 L64.0042 1033.19 L16.4842 1033.19 Z" fill="#000000" fill-rule="nonzero" fill-opacity="1" /><path clip-path="url(#clip680)" d="M33.8307 974.626 Q33.2578 975.613 33.0032 976.791 Q32.7167 977.936 32.7167 979.337 Q32.7167 984.302 35.9632 986.976 Q39.1779 989.617 45.2253 989.617 L64.0042 989.617 L64.0042 995.506 L28.3562 995.506 L28.3562 989.617 L33.8944 989.617 Q30.6479 987.771 29.0883 984.811 Q27.4968 981.851 27.4968 977.618 Q27.4968 977.013 27.5923 976.281 Q27.656 975.549 27.8151 974.658 L33.8307 974.626 Z" fill="#000000" fill-rule="nonzero" fill-opacity="1" /><path clip-path="url(#clip680)" d="M32.4621 956.102 Q32.4621 960.813 36.1542 963.55 Q39.8145 966.287 46.212 966.287 Q52.6095 966.287 56.3017 963.582 Q59.9619 960.844 59.9619 956.102 Q59.9619 951.423 56.2698 948.686 Q52.5777 945.949 46.212 945.949 Q39.8781 945.949 36.186 948.686 Q32.4621 951.423 32.4621 956.102 M27.4968 956.102 Q27.4968 948.463 32.4621 944.103 Q37.4273 939.742 46.212 939.742 Q54.9649 939.742 59.9619 944.103 Q64.9272 948.463 64.9272 956.102 Q64.9272 963.773 59.9619 968.133 Q54.9649 972.462 46.212 972.462 Q37.4273 972.462 32.4621 968.133 Q27.4968 963.773 27.4968 956.102 Z" fill="#000000" fill-rule="nonzero" fill-opacity="1" /><path clip-path="url(#clip680)" d="M46.212 904.444 Q39.7508 904.444 36.0905 907.118 Q32.3984 909.76 32.3984 914.407 Q32.3984 919.054 36.0905 921.727 Q39.7508 924.369 46.212 924.369 Q52.6732 924.369 56.3653 921.727 Q60.0256 919.054 60.0256 914.407 Q60.0256 909.76 56.3653 907.118 Q52.6732 904.444 46.212 904.444 M33.7671 924.369 Q30.5842 922.523 29.0564 919.722 Q27.4968 916.889 27.4968 912.974 Q27.4968 906.481 32.6531 902.439 Q37.8093 898.365 46.212 898.365 Q54.6147 898.365 59.771 902.439 Q64.9272 906.481 64.9272 912.974 Q64.9272 916.889 63.3994 919.722 Q61.8398 922.523 58.657 924.369 L64.0042 924.369 L64.0042 930.257 L14.479 930.257 L14.479 924.369 L33.7671 924.369 Z" fill="#000000" fill-rule="nonzero" fill-opacity="1" /><path clip-path="url(#clip680)" d="M46.0847 872.457 Q46.0847 879.554 47.7079 882.292 Q49.3312 885.029 53.2461 885.029 Q56.3653 885.029 58.2114 882.992 Q60.0256 880.923 60.0256 877.39 Q60.0256 872.52 56.5881 869.592 Q53.1188 866.632 47.3897 866.632 L46.0847 866.632 L46.0847 872.457 M43.6657 860.776 L64.0042 860.776 L64.0042 866.632 L58.5933 866.632 Q61.8398 868.637 63.3994 871.629 Q64.9272 874.621 64.9272 878.95 Q64.9272 884.424 61.8716 887.671 Q58.7843 890.885 53.6281 890.885 Q47.6125 890.885 44.5569 886.875 Q41.5014 882.833 41.5014 874.844 L41.5014 866.632 L40.9285 866.632 Q36.8862 866.632 34.6901 869.306 Q32.4621 871.947 32.4621 876.753 Q32.4621 879.809 33.1941 882.705 Q33.9262 885.602 35.3903 888.275 L29.9795 888.275 Q28.7381 885.061 28.1334 882.037 Q27.4968 879.013 27.4968 876.149 Q27.4968 868.414 31.5072 864.595 Q35.5176 860.776 43.6657 860.776 Z" fill="#000000" fill-rule="nonzero" fill-opacity="1" /><path clip-path="url(#clip680)" d="M46.212 823.122 Q39.7508 823.122 36.0905 825.796 Q32.3984 828.438 32.3984 833.085 Q32.3984 837.732 36.0905 840.405 Q39.7508 843.047 46.212 843.047 Q52.6732 843.047 56.3653 840.405 Q60.0256 837.732 60.0256 833.085 Q60.0256 828.438 56.3653 825.796 Q52.6732 823.122 46.212 823.122 M33.7671 843.047 Q30.5842 841.201 29.0564 838.4 Q27.4968 835.567 27.4968 831.652 Q27.4968 825.159 32.6531 821.117 Q37.8093 817.043 46.212 817.043 Q54.6147 817.043 59.771 821.117 Q64.9272 825.159 64.9272 831.652 Q64.9272 835.567 63.3994 838.4 Q61.8398 841.201 58.657 843.047 L64.0042 843.047 L64.0042 848.935 L14.479 848.935 L14.479 843.047 L33.7671 843.047 Z" fill="#000000" fill-rule="nonzero" fill-opacity="1" /><path clip-path="url(#clip680)" d="M28.3562 807.335 L28.3562 801.479 L64.0042 801.479 L64.0042 807.335 L28.3562 807.335 M14.479 807.335 L14.479 801.479 L21.895 801.479 L21.895 807.335 L14.479 807.335 Z" fill="#000000" fill-rule="nonzero" fill-opacity="1" /><path clip-path="url(#clip680)" d="M14.479 789.225 L14.479 783.369 L64.0042 783.369 L64.0042 789.225 L14.479 789.225 Z" fill="#000000" fill-rule="nonzero" fill-opacity="1" /><path clip-path="url(#clip680)" d="M28.3562 771.115 L28.3562 765.258 L64.0042 765.258 L64.0042 771.115 L28.3562 771.115 M14.479 771.115 L14.479 765.258 L21.895 765.258 L21.895 771.115 L14.479 771.115 Z" fill="#000000" fill-rule="nonzero" fill-opacity="1" /><path clip-path="url(#clip680)" d="M18.2347 747.211 L28.3562 747.211 L28.3562 735.148 L32.9077 735.148 L32.9077 747.211 L52.2594 747.211 Q56.6199 747.211 57.8613 746.034 Q59.1026 744.824 59.1026 741.164 L59.1026 735.148 L64.0042 735.148 L64.0042 741.164 Q64.0042 747.943 61.4897 750.521 Q58.9434 753.1 52.2594 753.1 L32.9077 753.1 L32.9077 757.396 L28.3562 757.396 L28.3562 753.1 L18.2347 753.1 L18.2347 747.211 Z" fill="#000000" fill-rule="nonzero" fill-opacity="1" /><path clip-path="url(#clip680)" d="M67.3143 712.614 Q73.68 715.096 75.6216 717.452 Q77.5631 719.807 77.5631 723.754 L77.5631 728.432 L72.6615 728.432 L72.6615 724.995 Q72.6615 722.576 71.5157 721.239 Q70.3699 719.902 66.1048 718.279 L63.4312 717.229 L28.3562 731.647 L28.3562 725.441 L56.238 714.301 L28.3562 703.161 L28.3562 696.954 L67.3143 712.614 Z" fill="#000000" fill-rule="nonzero" fill-opacity="1" /><path clip-path="url(#clip680)" d="M33.7671 644.692 L14.479 644.692 L14.479 638.835 L64.0042 638.835 L64.0042 644.692 L58.657 644.692 Q61.8398 646.538 63.3994 649.37 Q64.9272 652.171 64.9272 656.118 Q64.9272 662.579 59.771 666.653 Q54.6147 670.696 46.212 670.696 Q37.8093 670.696 32.6531 666.653 Q27.4968 662.579 27.4968 656.118 Q27.4968 652.171 29.0564 649.37 Q30.5842 646.538 33.7671 644.692 M46.212 664.648 Q52.6732 664.648 56.3653 662.006 Q60.0256 659.333 60.0256 654.686 Q60.0256 650.039 56.3653 647.365 Q52.6732 644.692 46.212 644.692 Q39.7508 644.692 36.0905 647.365 Q32.3984 650.039 32.3984 654.686 Q32.3984 659.333 36.0905 662.006 Q39.7508 664.648 46.212 664.648 Z" fill="#000000" fill-rule="nonzero" fill-opacity="1" /><path clip-path="url(#clip680)" d="M44.7161 596.28 L47.5806 596.28 L47.5806 623.207 Q53.6281 622.825 56.8109 619.579 Q59.9619 616.301 59.9619 610.476 Q59.9619 607.102 59.1344 603.951 Q58.3069 600.768 56.6518 597.649 L62.1899 597.649 Q63.5267 600.8 64.227 604.11 Q64.9272 607.42 64.9272 610.826 Q64.9272 619.356 59.9619 624.353 Q54.9967 629.318 46.5303 629.318 Q37.7774 629.318 32.6531 624.608 Q27.4968 619.865 27.4968 611.845 Q27.4968 604.651 32.1438 600.482 Q36.7589 596.28 44.7161 596.28 M42.9973 602.137 Q38.1912 602.201 35.3266 604.842 Q32.4621 607.452 32.4621 611.781 Q32.4621 616.683 35.2312 619.643 Q38.0002 622.571 43.0292 623.016 L42.9973 602.137 Z" fill="#000000" fill-rule="nonzero" fill-opacity="1" /><path clip-path="url(#clip680)" d="M42.4881 557.036 L64.0042 557.036 L64.0042 562.892 L42.679 562.892 Q37.6183 562.892 35.1038 564.866 Q32.5894 566.839 32.5894 570.786 Q32.5894 575.528 35.6131 578.265 Q38.6368 581.003 43.8567 581.003 L64.0042 581.003 L64.0042 586.891 L28.3562 586.891 L28.3562 581.003 L33.8944 581.003 Q30.6797 578.902 29.0883 576.069 Q27.4968 573.205 27.4968 569.481 Q27.4968 563.338 31.3163 560.187 Q35.1038 557.036 42.4881 557.036 Z" fill="#000000" fill-rule="nonzero" fill-opacity="1" /><path clip-path="url(#clip680)" d="M29.4065 522.629 L34.9447 522.629 Q33.6716 525.112 33.035 527.785 Q32.3984 530.459 32.3984 533.324 Q32.3984 537.684 33.7352 539.88 Q35.072 542.045 37.7456 542.045 Q39.7826 542.045 40.9603 540.485 Q42.1061 538.925 43.1565 534.215 L43.6021 532.21 Q44.9389 525.971 47.3897 523.361 Q49.8086 520.719 54.1691 520.719 Q59.1344 520.719 62.0308 524.666 Q64.9272 528.581 64.9272 535.456 Q64.9272 538.321 64.3543 541.44 Q63.8132 544.527 62.6992 547.965 L56.6518 547.965 Q58.3387 544.718 59.198 541.567 Q60.0256 538.416 60.0256 535.329 Q60.0256 531.191 58.6251 528.963 Q57.1929 526.735 54.6147 526.735 Q52.2276 526.735 50.9545 528.358 Q49.6813 529.95 48.5037 535.392 L48.0262 537.429 Q46.8804 542.872 44.5251 545.291 Q42.138 547.71 38.0002 547.71 Q32.9713 547.71 30.2341 544.145 Q27.4968 540.58 27.4968 534.024 Q27.4968 530.777 27.9743 527.913 Q28.4517 525.048 29.4065 522.629 Z" fill="#000000" fill-rule="nonzero" fill-opacity="1" /><path clip-path="url(#clip680)" d="M28.3562 511.394 L28.3562 505.537 L64.0042 505.537 L64.0042 511.394 L28.3562 511.394 M14.479 511.394 L14.479 505.537 L21.895 505.537 L21.895 511.394 L14.479 511.394 Z" fill="#000000" fill-rule="nonzero" fill-opacity="1" /><path clip-path="url(#clip680)" d="M18.2347 487.49 L28.3562 487.49 L28.3562 475.427 L32.9077 475.427 L32.9077 487.49 L52.2594 487.49 Q56.6199 487.49 57.8613 486.313 Q59.1026 485.103 59.1026 481.443 L59.1026 475.427 L64.0042 475.427 L64.0042 481.443 Q64.0042 488.223 61.4897 490.801 Q58.9434 493.379 52.2594 493.379 L32.9077 493.379 L32.9077 497.676 L28.3562 497.676 L28.3562 493.379 L18.2347 493.379 L18.2347 487.49 Z" fill="#000000" fill-rule="nonzero" fill-opacity="1" /><path clip-path="url(#clip680)" d="M67.3143 452.893 Q73.68 455.376 75.6216 457.731 Q77.5631 460.086 77.5631 464.033 L77.5631 468.712 L72.6615 468.712 L72.6615 465.274 Q72.6615 462.855 71.5157 461.518 Q70.3699 460.182 66.1048 458.558 L63.4312 457.508 L28.3562 471.926 L28.3562 465.72 L56.238 454.58 L28.3562 443.44 L28.3562 437.233 L67.3143 452.893 Z" fill="#000000" fill-rule="nonzero" fill-opacity="1" /><polyline clip-path="url(#clip682)" style="stroke:#009af9; stroke-linecap:round; stroke-linejoin:round; stroke-width:4; stroke-opacity:1; fill:none" points="265.903,1384.22 479.174,1384.23 500.501,1384.23 521.828,1384.23 543.155,1384.23 607.136,1384.2 628.463,1384.23 671.117,1384.23 692.444,1384.21 713.771,1384.2 735.098,1384.2 756.425,1384.23 777.753,1384.23 799.08,1384.22 820.407,1384.13 841.734,1384.22 863.061,1384.22 884.388,1384.17 905.715,1384.18 927.042,1384.16 948.369,1384.14 969.696,1384.14 991.023,1384.17 1012.35,1384.11 1033.68,1384.09 1055,1384.1 1076.33,1383.84 1097.66,1383.91 1118.99,1383.94 1140.31,1383.95 1161.64,1383.8 1182.97,1383.77 1204.29,1383.91 1225.62,1383.78 1246.95,1383.5 1268.27,1383.76 1289.6,1383.55 1310.93,1383.47 1332.26,1383.33 1353.58,1383.13 1374.91,1382.52 1396.24,1381.84 1417.56,1382.35 1438.89,1382.31 1460.22,1381.56 1481.55,1381.11 1502.87,1380.1 1524.2,1379.97 1545.53,1364.88 1566.85,1352.72 1588.18,1351.3 1609.51,1351.5 1630.83,1349.66 1652.16,1347.76 1673.49,1347.21 1694.82,1346.79 1716.14,1345.19 1737.47,1345.91 1758.8,1344.95 1780.12,1345.88 1801.45,1345.42 1822.78,1345.75 1844.11,1345.62 1865.43,1346.71 1886.76,1340.29 1908.09,1123.21 1929.41,1159.57 1950.74,1195.55 1972.07,1230.85 1993.39,1262.02 2014.72,1297.75 2036.05,1323.99 2057.38,1345.94 2078.7,1361.07 2100.03,1372.11 2121.36,1375.47 2142.68,1377.44 2164.01,1381.64 2185.34,1381.72 2206.67,1382.55 2227.99,1383.83 2249.32,1384.15 2270.65,1384.21 2291.97,1384.23 "/>
<polyline clip-path="url(#clip682)" style="stroke:#e26f46; stroke-linecap:round; stroke-linejoin:round; stroke-width:4; stroke-opacity:1; fill:none" points="265.903,1384.24 479.174,1384.24 500.501,1384.24 521.828,1384.24 543.155,1384.24 607.136,1384.24 628.463,1384.24 671.117,1384.24 692.444,1384.24 713.771,1384.24 735.098,1384.24 756.425,1384.24 777.753,1384.24 799.08,1384.24 820.407,1384.24 841.734,1384.24 863.061,1384.24 884.388,1384.24 905.715,1384.24 927.042,1384.24 948.369,1384.24 969.696,1384.24 991.023,1384.24 1012.35,1384.24 1033.68,1384.24 1055,1384.24 1076.33,1384.24 1097.66,1384.24 1118.99,1384.24 1140.31,1384.24 1161.64,1384.24 1182.97,1384.24 1204.29,1384.24 1225.62,1384.24 1246.95,1384.24 1268.27,1384.24 1289.6,1384.24 1310.93,1384.24 1332.26,1384.24 1353.58,1384.24 1374.91,1384.24 1396.24,1384.24 1417.56,1384.24 1438.89,1384.24 1460.22,1384.24 1481.55,1384.24 1502.87,1384.24 1524.2,1384.24 1545.53,1384.24 1566.85,1384.24 1588.18,1384.24 1609.51,1384.24 1630.83,1384.24 1652.16,1384.24 1673.49,1384.24 1694.82,1384.24 1716.14,1384.23 1737.47,1384.22 1758.8,1384.16 1780.12,1383.91 1801.45,1382.95 1822.78,1379.1 1844.11,1363.73 1865.43,1302.49 1886.76,1058.29 1908.09,86.1857 1929.41,167.421 1950.74,463.79 1972.07,687.988 1993.39,857.579 2014.72,985.861 2036.05,1082.9 2057.38,1156.3 2078.7,1211.82 2100.03,1253.82 2121.36,1285.58 2142.68,1309.61 2164.01,1327.79 2185.34,1341.54 2206.67,1351.94 2227.99,1359.81 2249.32,1365.76 2270.65,1370.26 2291.97,1373.66 "/>
<path clip-path="url(#clip680)" d="M276.709 248.629 L825.776 248.629 L825.776 93.1086 L276.709 93.1086  Z" fill="#ffffff" fill-rule="evenodd" fill-opacity="1"/>
<polyline clip-path="url(#clip680)" style="stroke:#ffffff; stroke-linecap:round; stroke-linejoin:round; stroke-width:4; stroke-opacity:1; fill:none" points="276.709,248.629 825.776,248.629 825.776,93.1086 276.709,93.1086 276.709,248.629 "/>
<polyline clip-path="url(#clip680)" style="stroke:#009af9; stroke-linecap:round; stroke-linejoin:round; stroke-width:4; stroke-opacity:1; fill:none" points="300.571,144.949 443.747,144.949 "/>
<path clip-path="url(#clip680)" d="M467.61 127.669 L472.286 127.669 L472.286 141.835 L489.276 141.835 L489.276 127.669 L493.952 127.669 L493.952 162.229 L489.276 162.229 L489.276 145.77 L472.286 145.77 L472.286 162.229 L467.61 162.229 L467.61 127.669 Z" fill="#000000" fill-rule="nonzero" fill-opacity="1" /><path clip-path="url(#clip680)" d="M503.072 136.303 L507.332 136.303 L507.332 162.229 L503.072 162.229 L503.072 136.303 M503.072 126.21 L507.332 126.21 L507.332 131.604 L503.072 131.604 L503.072 126.21 Z" fill="#000000" fill-rule="nonzero" fill-opacity="1" /><path clip-path="url(#clip680)" d="M532.771 137.067 L532.771 141.094 Q530.966 140.169 529.021 139.706 Q527.077 139.243 524.994 139.243 Q521.822 139.243 520.225 140.215 Q518.651 141.187 518.651 143.131 Q518.651 144.613 519.785 145.469 Q520.92 146.303 524.345 147.067 L525.804 147.391 Q530.341 148.363 532.239 150.145 Q534.16 151.905 534.16 155.076 Q534.16 158.687 531.29 160.793 Q528.443 162.9 523.443 162.9 Q521.359 162.9 519.091 162.483 Q516.846 162.09 514.346 161.28 L514.346 156.881 Q516.707 158.108 518.998 158.733 Q521.29 159.335 523.535 159.335 Q526.545 159.335 528.165 158.317 Q529.785 157.275 529.785 155.4 Q529.785 153.664 528.605 152.738 Q527.447 151.812 523.489 150.956 L522.008 150.608 Q518.049 149.775 516.29 148.062 Q514.531 146.326 514.531 143.317 Q514.531 139.659 517.123 137.669 Q519.716 135.678 524.484 135.678 Q526.845 135.678 528.929 136.025 Q531.012 136.372 532.771 137.067 Z" fill="#000000" fill-rule="nonzero" fill-opacity="1" /><path clip-path="url(#clip680)" d="M545.156 128.942 L545.156 136.303 L553.929 136.303 L553.929 139.613 L545.156 139.613 L545.156 153.687 Q545.156 156.858 546.012 157.761 Q546.892 158.664 549.554 158.664 L553.929 158.664 L553.929 162.229 L549.554 162.229 Q544.623 162.229 542.748 160.4 Q540.873 158.548 540.873 153.687 L540.873 139.613 L537.748 139.613 L537.748 136.303 L540.873 136.303 L540.873 128.942 L545.156 128.942 Z" fill="#000000" fill-rule="nonzero" fill-opacity="1" /><path clip-path="url(#clip680)" d="M569.577 139.289 Q566.151 139.289 564.16 141.974 Q562.169 144.636 562.169 149.289 Q562.169 153.942 564.137 156.627 Q566.128 159.289 569.577 159.289 Q572.979 159.289 574.97 156.604 Q576.961 153.918 576.961 149.289 Q576.961 144.682 574.97 141.997 Q572.979 139.289 569.577 139.289 M569.577 135.678 Q575.132 135.678 578.304 139.289 Q581.475 142.9 581.475 149.289 Q581.475 155.655 578.304 159.289 Q575.132 162.9 569.577 162.9 Q563.998 162.9 560.827 159.289 Q557.679 155.655 557.679 149.289 Q557.679 142.9 560.827 139.289 Q563.998 135.678 569.577 135.678 Z" fill="#000000" fill-rule="nonzero" fill-opacity="1" /><path clip-path="url(#clip680)" d="M605.595 148.965 Q605.595 144.335 603.674 141.789 Q601.776 139.243 598.327 139.243 Q594.901 139.243 592.979 141.789 Q591.081 144.335 591.081 148.965 Q591.081 153.571 592.979 156.118 Q594.901 158.664 598.327 158.664 Q601.776 158.664 603.674 156.118 Q605.595 153.571 605.595 148.965 M609.854 159.011 Q609.854 165.631 606.914 168.849 Q603.975 172.09 597.91 172.09 Q595.665 172.09 593.674 171.742 Q591.683 171.418 589.808 170.724 L589.808 166.58 Q591.683 167.599 593.512 168.085 Q595.34 168.571 597.239 168.571 Q601.428 168.571 603.512 166.372 Q605.595 164.196 605.595 159.775 L605.595 157.668 Q604.276 159.96 602.215 161.094 Q600.155 162.229 597.285 162.229 Q592.516 162.229 589.6 158.594 Q586.683 154.96 586.683 148.965 Q586.683 142.946 589.6 139.312 Q592.516 135.678 597.285 135.678 Q600.155 135.678 602.215 136.812 Q604.276 137.946 605.595 140.238 L605.595 136.303 L609.854 136.303 L609.854 159.011 Z" fill="#000000" fill-rule="nonzero" fill-opacity="1" /><path clip-path="url(#clip680)" d="M633.65 140.284 Q632.933 139.868 632.076 139.682 Q631.243 139.474 630.225 139.474 Q626.613 139.474 624.669 141.835 Q622.748 144.173 622.748 148.571 L622.748 162.229 L618.465 162.229 L618.465 136.303 L622.748 136.303 L622.748 140.331 Q624.09 137.969 626.243 136.835 Q628.396 135.678 631.475 135.678 Q631.914 135.678 632.447 135.747 Q632.979 135.794 633.627 135.909 L633.65 140.284 Z" fill="#000000" fill-rule="nonzero" fill-opacity="1" /><path clip-path="url(#clip680)" d="M649.9 149.196 Q644.738 149.196 642.748 150.377 Q640.757 151.557 640.757 154.405 Q640.757 156.673 642.238 158.016 Q643.743 159.335 646.312 159.335 Q649.854 159.335 651.984 156.835 Q654.136 154.312 654.136 150.145 L654.136 149.196 L649.9 149.196 M658.396 147.437 L658.396 162.229 L654.136 162.229 L654.136 158.293 Q652.678 160.655 650.502 161.789 Q648.326 162.9 645.178 162.9 Q641.197 162.9 638.836 160.678 Q636.498 158.432 636.498 154.682 Q636.498 150.307 639.414 148.085 Q642.354 145.863 648.164 145.863 L654.136 145.863 L654.136 145.446 Q654.136 142.507 652.192 140.909 Q650.271 139.289 646.775 139.289 Q644.553 139.289 642.447 139.821 Q640.34 140.354 638.396 141.419 L638.396 137.483 Q640.734 136.581 642.933 136.141 Q645.132 135.678 647.215 135.678 Q652.84 135.678 655.618 138.594 Q658.396 141.511 658.396 147.437 Z" fill="#000000" fill-rule="nonzero" fill-opacity="1" /><path clip-path="url(#clip680)" d="M687.354 141.28 Q688.951 138.409 691.173 137.044 Q693.396 135.678 696.405 135.678 Q700.456 135.678 702.655 138.525 Q704.854 141.349 704.854 146.581 L704.854 162.229 L700.571 162.229 L700.571 146.719 Q700.571 142.993 699.252 141.187 Q697.933 139.382 695.224 139.382 Q691.914 139.382 689.993 141.581 Q688.071 143.78 688.071 147.576 L688.071 162.229 L683.789 162.229 L683.789 146.719 Q683.789 142.969 682.47 141.187 Q681.15 139.382 678.396 139.382 Q675.132 139.382 673.21 141.604 Q671.289 143.803 671.289 147.576 L671.289 162.229 L667.007 162.229 L667.007 136.303 L671.289 136.303 L671.289 140.331 Q672.747 137.946 674.785 136.812 Q676.822 135.678 679.622 135.678 Q682.447 135.678 684.414 137.113 Q686.405 138.548 687.354 141.28 Z" fill="#000000" fill-rule="nonzero" fill-opacity="1" /><polyline clip-path="url(#clip680)" style="stroke:#e26f46; stroke-linecap:round; stroke-linejoin:round; stroke-width:4; stroke-opacity:1; fill:none" points="300.571,196.789 443.747,196.789 "/>
<path clip-path="url(#clip680)" d="M472.286 183.351 L472.286 210.226 L477.934 210.226 Q485.086 210.226 488.397 206.985 Q491.73 203.745 491.73 196.754 Q491.73 189.809 488.397 186.592 Q485.086 183.351 477.934 183.351 L472.286 183.351 M467.61 179.509 L477.216 179.509 Q487.262 179.509 491.961 183.698 Q496.66 187.865 496.66 196.754 Q496.66 205.689 491.938 209.879 Q487.216 214.069 477.216 214.069 L467.61 214.069 L467.61 179.509 Z" fill="#000000" fill-rule="nonzero" fill-opacity="1" /><path clip-path="url(#clip680)" d="M503.929 188.143 L508.188 188.143 L508.188 214.069 L503.929 214.069 L503.929 188.143 M503.929 178.05 L508.188 178.05 L508.188 183.444 L503.929 183.444 L503.929 178.05 Z" fill="#000000" fill-rule="nonzero" fill-opacity="1" /><path clip-path="url(#clip680)" d="M533.628 188.907 L533.628 192.934 Q531.822 192.009 529.878 191.546 Q527.933 191.083 525.85 191.083 Q522.679 191.083 521.082 192.055 Q519.508 193.027 519.508 194.971 Q519.508 196.453 520.642 197.309 Q521.776 198.143 525.202 198.907 L526.66 199.231 Q531.197 200.203 533.095 201.985 Q535.017 203.745 535.017 206.916 Q535.017 210.527 532.146 212.633 Q529.299 214.74 524.299 214.74 Q522.216 214.74 519.947 214.323 Q517.702 213.93 515.202 213.12 L515.202 208.721 Q517.563 209.948 519.855 210.573 Q522.146 211.175 524.392 211.175 Q527.401 211.175 529.021 210.157 Q530.642 209.115 530.642 207.24 Q530.642 205.504 529.461 204.578 Q528.304 203.652 524.345 202.796 L522.864 202.448 Q518.906 201.615 517.146 199.902 Q515.387 198.166 515.387 195.157 Q515.387 191.499 517.98 189.509 Q520.572 187.518 525.341 187.518 Q527.702 187.518 529.785 187.865 Q531.869 188.212 533.628 188.907 Z" fill="#000000" fill-rule="nonzero" fill-opacity="1" /><path clip-path="url(#clip680)" d="M546.012 180.782 L546.012 188.143 L554.785 188.143 L554.785 191.453 L546.012 191.453 L546.012 205.527 Q546.012 208.698 546.869 209.601 Q547.748 210.504 550.41 210.504 L554.785 210.504 L554.785 214.069 L550.41 214.069 Q545.48 214.069 543.605 212.24 Q541.73 210.388 541.73 205.527 L541.73 191.453 L538.605 191.453 L538.605 188.143 L541.73 188.143 L541.73 180.782 L546.012 180.782 Z" fill="#000000" fill-rule="nonzero" fill-opacity="1" /><path clip-path="url(#clip680)" d="M575.41 192.124 Q574.692 191.708 573.836 191.522 Q573.003 191.314 571.984 191.314 Q568.373 191.314 566.429 193.675 Q564.507 196.013 564.507 200.411 L564.507 214.069 L560.225 214.069 L560.225 188.143 L564.507 188.143 L564.507 192.171 Q565.85 189.809 568.003 188.675 Q570.155 187.518 573.234 187.518 Q573.674 187.518 574.206 187.587 Q574.739 187.634 575.387 187.749 L575.41 192.124 Z" fill="#000000" fill-rule="nonzero" fill-opacity="1" /><path clip-path="url(#clip680)" d="M579.878 188.143 L584.137 188.143 L584.137 214.069 L579.878 214.069 L579.878 188.143 M579.878 178.05 L584.137 178.05 L584.137 183.444 L579.878 183.444 L579.878 178.05 Z" fill="#000000" fill-rule="nonzero" fill-opacity="1" /><path clip-path="url(#clip680)" d="M611.66 201.129 Q611.66 196.43 609.715 193.768 Q607.794 191.083 604.415 191.083 Q601.035 191.083 599.09 193.768 Q597.169 196.43 597.169 201.129 Q597.169 205.828 599.09 208.513 Q601.035 211.175 604.415 211.175 Q607.794 211.175 609.715 208.513 Q611.66 205.828 611.66 201.129 M597.169 192.078 Q598.512 189.763 600.549 188.652 Q602.609 187.518 605.456 187.518 Q610.178 187.518 613.118 191.268 Q616.081 195.018 616.081 201.129 Q616.081 207.24 613.118 210.99 Q610.178 214.74 605.456 214.74 Q602.609 214.74 600.549 213.629 Q598.512 212.495 597.169 210.18 L597.169 214.069 L592.887 214.069 L592.887 178.05 L597.169 178.05 L597.169 192.078 Z" fill="#000000" fill-rule="nonzero" fill-opacity="1" /><path clip-path="url(#clip680)" d="M622.701 203.837 L622.701 188.143 L626.961 188.143 L626.961 203.675 Q626.961 207.356 628.396 209.208 Q629.831 211.036 632.701 211.036 Q636.15 211.036 638.141 208.837 Q640.155 206.638 640.155 202.842 L640.155 188.143 L644.414 188.143 L644.414 214.069 L640.155 214.069 L640.155 210.087 Q638.604 212.448 636.544 213.606 Q634.507 214.74 631.799 214.74 Q627.331 214.74 625.016 211.962 Q622.701 209.184 622.701 203.837 M633.419 187.518 L633.419 187.518 Z" fill="#000000" fill-rule="nonzero" fill-opacity="1" /><path clip-path="url(#clip680)" d="M657.4 180.782 L657.4 188.143 L666.173 188.143 L666.173 191.453 L657.4 191.453 L657.4 205.527 Q657.4 208.698 658.257 209.601 Q659.136 210.504 661.798 210.504 L666.173 210.504 L666.173 214.069 L661.798 214.069 Q656.868 214.069 654.993 212.24 Q653.118 210.388 653.118 205.527 L653.118 191.453 L649.993 191.453 L649.993 188.143 L653.118 188.143 L653.118 180.782 L657.4 180.782 Z" fill="#000000" fill-rule="nonzero" fill-opacity="1" /><path clip-path="url(#clip680)" d="M671.775 188.143 L676.034 188.143 L676.034 214.069 L671.775 214.069 L671.775 188.143 M671.775 178.05 L676.034 178.05 L676.034 183.444 L671.775 183.444 L671.775 178.05 Z" fill="#000000" fill-rule="nonzero" fill-opacity="1" /><path clip-path="url(#clip680)" d="M694.993 191.129 Q691.567 191.129 689.576 193.814 Q687.585 196.476 687.585 201.129 Q687.585 205.782 689.553 208.467 Q691.544 211.129 694.993 211.129 Q698.395 211.129 700.386 208.444 Q702.377 205.758 702.377 201.129 Q702.377 196.522 700.386 193.837 Q698.395 191.129 694.993 191.129 M694.993 187.518 Q700.548 187.518 703.72 191.129 Q706.891 194.74 706.891 201.129 Q706.891 207.495 703.72 211.129 Q700.548 214.74 694.993 214.74 Q689.414 214.74 686.243 211.129 Q683.095 207.495 683.095 201.129 Q683.095 194.74 686.243 191.129 Q689.414 187.518 694.993 187.518 Z" fill="#000000" fill-rule="nonzero" fill-opacity="1" /><path clip-path="url(#clip680)" d="M735.502 198.421 L735.502 214.069 L731.243 214.069 L731.243 198.559 Q731.243 194.879 729.807 193.05 Q728.372 191.222 725.502 191.222 Q722.053 191.222 720.062 193.421 Q718.071 195.62 718.071 199.416 L718.071 214.069 L713.789 214.069 L713.789 188.143 L718.071 188.143 L718.071 192.171 Q719.599 189.833 721.659 188.675 Q723.743 187.518 726.451 187.518 Q730.918 187.518 733.21 190.296 Q735.502 193.05 735.502 198.421 Z" fill="#000000" fill-rule="nonzero" fill-opacity="1" /><path clip-path="url(#clip680)" d="M772.191 178.05 L772.191 181.592 L768.117 181.592 Q765.826 181.592 764.923 182.518 Q764.043 183.444 764.043 185.851 L764.043 188.143 L771.057 188.143 L771.057 191.453 L764.043 191.453 L764.043 214.069 L759.761 214.069 L759.761 191.453 L755.687 191.453 L755.687 188.143 L759.761 188.143 L759.761 186.337 Q759.761 182.009 761.775 180.041 Q763.789 178.05 768.164 178.05 L772.191 178.05 Z" fill="#000000" fill-rule="nonzero" fill-opacity="1" /><path clip-path="url(#clip680)" d="M775.756 188.143 L780.015 188.143 L780.015 214.069 L775.756 214.069 L775.756 188.143 M775.756 178.05 L780.015 178.05 L780.015 183.444 L775.756 183.444 L775.756 178.05 Z" fill="#000000" fill-rule="nonzero" fill-opacity="1" /><path clip-path="url(#clip680)" d="M793.14 180.782 L793.14 188.143 L801.913 188.143 L801.913 191.453 L793.14 191.453 L793.14 205.527 Q793.14 208.698 793.997 209.601 Q794.876 210.504 797.538 210.504 L801.913 210.504 L801.913 214.069 L797.538 214.069 Q792.608 214.069 790.733 212.24 Q788.858 210.388 788.858 205.527 L788.858 191.453 L785.733 191.453 L785.733 188.143 L788.858 188.143 L788.858 180.782 L793.14 180.782 Z" fill="#000000" fill-rule="nonzero" fill-opacity="1" /></svg>
