<?xml version="1.0" encoding="utf-8"?>
<svg xmlns="http://www.w3.org/2000/svg" xmlns:xlink="http://www.w3.org/1999/xlink" width="600" height="400" viewBox="0 0 2400 1600">
<defs>
  <clipPath id="clip640">
    <rect x="0" y="0" width="2400" height="1600"/>
  </clipPath>
</defs>
<path clip-path="url(#clip640)" d="M0 1600 L2400 1600 L2400 8.88178e-14 L0 8.88178e-14  Z" fill="#ffffff" fill-rule="evenodd" fill-opacity="1"/>
<defs>
  <clipPath id="clip641">
    <rect x="480" y="0" width="1681" height="1600"/>
  </clipPath>
</defs>
<path clip-path="url(#clip640)" d="M279.519 1552.76 L2352.76 1552.76 L2352.76 47.2441 L279.519 47.2441  Z" fill="#ffffff" fill-rule="evenodd" fill-opacity="1"/>
<defs>
  <clipPath id="clip642">
    <rect x="279" y="47" width="2074" height="1507"/>
  </clipPath>
</defs>
<polyline clip-path="url(#clip642)" style="stroke:#000000; stroke-linecap:round; stroke-linejoin:round; stroke-width:2; stroke-opacity:0.1; fill:none" points="279.519,1403.63 2352.76,1403.63 "/>
<polyline clip-path="url(#clip642)" style="stroke:#000000; stroke-linecap:round; stroke-linejoin:round; stroke-width:2; stroke-opacity:0.1; fill:none" points="279.519,1181.7 2352.76,1181.7 "/>
<polyline clip-path="url(#clip642)" style="stroke:#000000; stroke-linecap:round; stroke-linejoin:round; stroke-width:2; stroke-opacity:0.1; fill:none" points="279.519,959.783 2352.76,959.783 "/>
<polyline clip-path="url(#clip642)" style="stroke:#000000; stroke-linecap:round; stroke-linejoin:round; stroke-width:2; stroke-opacity:0.1; fill:none" points="279.519,737.862 2352.76,737.862 "/>
<polyline clip-path="url(#clip642)" style="stroke:#000000; stroke-linecap:round; stroke-linejoin:round; stroke-width:2; stroke-opacity:0.1; fill:none" points="279.519,515.941 2352.76,515.941 "/>
<polyline clip-path="url(#clip642)" style="stroke:#000000; stroke-linecap:round; stroke-linejoin:round; stroke-width:2; stroke-opacity:0.1; fill:none" points="279.519,294.02 2352.76,294.02 "/>
<polyline clip-path="url(#clip642)" style="stroke:#000000; stroke-linecap:round; stroke-linejoin:round; stroke-width:2; stroke-opacity:0.1; fill:none" points="279.519,72.0992 2352.76,72.0992 "/>
<polyline clip-path="url(#clip642)" style="stroke:#000000; stroke-linecap:round; stroke-linejoin:round; stroke-width:2; stroke-opacity:0.1; fill:none" points="279.519,1403.63 2352.76,1403.63 "/>
<polyline clip-path="url(#clip642)" style="stroke:#000000; stroke-linecap:round; stroke-linejoin:round; stroke-width:2; stroke-opacity:0.1; fill:none" points="279.519,1181.7 2352.76,1181.7 "/>
<polyline clip-path="url(#clip642)" style="stroke:#000000; stroke-linecap:round; stroke-linejoin:round; stroke-width:2; stroke-opacity:0.1; fill:none" points="279.519,959.783 2352.76,959.783 "/>
<polyline clip-path="url(#clip642)" style="stroke:#000000; stroke-linecap:round; stroke-linejoin:round; stroke-width:2; stroke-opacity:0.1; fill:none" points="279.519,737.862 2352.76,737.862 "/>
<polyline clip-path="url(#clip642)" style="stroke:#000000; stroke-linecap:round; stroke-linejoin:round; stroke-width:2; stroke-opacity:0.1; fill:none" points="279.519,515.941 2352.76,515.941 "/>
<polyline clip-path="url(#clip642)" style="stroke:#000000; stroke-linecap:round; stroke-linejoin:round; stroke-width:2; stroke-opacity:0.1; fill:none" points="279.519,294.02 2352.76,294.02 "/>
<polyline clip-path="url(#clip642)" style="stroke:#000000; stroke-linecap:round; stroke-linejoin:round; stroke-width:2; stroke-opacity:0.1; fill:none" points="279.519,72.0992 2352.76,72.0992 "/>
<polyline clip-path="url(#clip640)" style="stroke:#000000; stroke-linecap:round; stroke-linejoin:round; stroke-width:4; stroke-opacity:1; fill:none" points="279.519,1552.76 2352.76,1552.76 "/>
<polyline clip-path="url(#clip640)" style="stroke:#000000; stroke-linecap:round; stroke-linejoin:round; stroke-width:4; stroke-opacity:1; fill:none" points="279.519,47.2441 2352.76,47.2441 "/>
<polyline clip-path="url(#clip640)" style="stroke:#000000; stroke-linecap:round; stroke-linejoin:round; stroke-width:4; stroke-opacity:1; fill:none" points="279.519,1552.76 279.519,47.2441 "/>
<polyline clip-path="url(#clip640)" style="stroke:#000000; stroke-linecap:round; stroke-linejoin:round; stroke-width:4; stroke-opacity:1; fill:none" points="2352.76,1552.76 2352.76,47.2441 "/>
<polyline clip-path="url(#clip640)" style="stroke:#000000; stroke-linecap:round; stroke-linejoin:round; stroke-width:4; stroke-opacity:1; fill:none" points="279.519,1403.63 298.416,1403.63 "/>
<polyline clip-path="url(#clip640)" style="stroke:#000000; stroke-linecap:round; stroke-linejoin:round; stroke-width:4; stroke-opacity:1; fill:none" points="279.519,1181.7 298.416,1181.7 "/>
<polyline clip-path="url(#clip640)" style="stroke:#000000; stroke-linecap:round; stroke-linejoin:round; stroke-width:4; stroke-opacity:1; fill:none" points="279.519,959.783 298.416,959.783 "/>
<polyline clip-path="url(#clip640)" style="stroke:#000000; stroke-linecap:round; stroke-linejoin:round; stroke-width:4; stroke-opacity:1; fill:none" points="279.519,737.862 298.416,737.862 "/>
<polyline clip-path="url(#clip640)" style="stroke:#000000; stroke-linecap:round; stroke-linejoin:round; stroke-width:4; stroke-opacity:1; fill:none" points="279.519,515.941 298.416,515.941 "/>
<polyline clip-path="url(#clip640)" style="stroke:#000000; stroke-linecap:round; stroke-linejoin:round; stroke-width:4; stroke-opacity:1; fill:none" points="279.519,294.02 298.416,294.02 "/>
<polyline clip-path="url(#clip640)" style="stroke:#000000; stroke-linecap:round; stroke-linejoin:round; stroke-width:4; stroke-opacity:1; fill:none" points="279.519,72.0992 298.416,72.0992 "/>
<polyline clip-path="url(#clip640)" style="stroke:#000000; stroke-linecap:round; stroke-linejoin:round; stroke-width:4; stroke-opacity:1; fill:none" points="2352.76,1403.63 2333.86,1403.63 "/>
<polyline clip-path="url(#clip640)" style="stroke:#000000; stroke-linecap:round; stroke-linejoin:round; stroke-width:4; stroke-opacity:1; fill:none" points="2352.76,1181.7 2333.86,1181.7 "/>
<polyline clip-path="url(#clip640)" style="stroke:#000000; stroke-linecap:round; stroke-linejoin:round; stroke-width:4; stroke-opacity:1; fill:none" points="2352.76,959.783 2333.86,959.783 "/>
<polyline clip-path="url(#clip640)" style="stroke:#000000; stroke-linecap:round; stroke-linejoin:round; stroke-width:4; stroke-opacity:1; fill:none" points="2352.76,737.862 2333.86,737.862 "/>
<polyline clip-path="url(#clip640)" style="stroke:#000000; stroke-linecap:round; stroke-linejoin:round; stroke-width:4; stroke-opacity:1; fill:none" points="2352.76,515.941 2333.86,515.941 "/>
<polyline clip-path="url(#clip640)" style="stroke:#000000; stroke-linecap:round; stroke-linejoin:round; stroke-width:4; stroke-opacity:1; fill:none" points="2352.76,294.02 2333.86,294.02 "/>
<polyline clip-path="url(#clip640)" style="stroke:#000000; stroke-linecap:round; stroke-linejoin:round; stroke-width:4; stroke-opacity:1; fill:none" points="2352.76,72.0992 2333.86,72.0992 "/>
<path clip-path="url(#clip640)" d="M127.593 1401.76 Q124.445 1401.76 122.593 1403.91 Q120.765 1406.07 120.765 1409.82 Q120.765 1413.54 122.593 1415.72 Q124.445 1417.87 127.593 1417.87 Q130.742 1417.87 132.57 1415.72 Q134.422 1413.54 134.422 1409.82 Q134.422 1406.07 132.57 1403.91 Q130.742 1401.76 127.593 1401.76 M136.876 1387.11 L136.876 1391.37 Q135.117 1390.53 133.311 1390.09 Q131.529 1389.66 129.769 1389.66 Q125.14 1389.66 122.686 1392.78 Q120.255 1395.91 119.908 1402.22 Q121.274 1400.21 123.334 1399.15 Q125.394 1398.06 127.871 1398.06 Q133.08 1398.06 136.089 1401.23 Q139.121 1404.38 139.121 1409.82 Q139.121 1415.14 135.973 1418.36 Q132.825 1421.58 127.593 1421.58 Q121.598 1421.58 118.427 1416.99 Q115.256 1412.39 115.256 1403.66 Q115.256 1395.47 119.144 1390.6 Q123.033 1385.72 129.584 1385.72 Q131.343 1385.72 133.126 1386.07 Q134.931 1386.41 136.876 1387.11 Z" fill="#000000" fill-rule="nonzero" fill-opacity="1" /><path clip-path="url(#clip640)" d="M147.223 1386.35 L165.579 1386.35 L165.579 1390.28 L151.505 1390.28 L151.505 1398.75 Q152.524 1398.41 153.542 1398.24 Q154.561 1398.06 155.579 1398.06 Q161.366 1398.06 164.746 1401.23 Q168.126 1404.4 168.126 1409.82 Q168.126 1415.4 164.653 1418.5 Q161.181 1421.58 154.862 1421.58 Q152.686 1421.58 150.417 1421.21 Q148.172 1420.84 145.765 1420.09 L145.765 1415.4 Q147.848 1416.53 150.07 1417.09 Q152.292 1417.64 154.769 1417.64 Q158.774 1417.64 161.112 1415.53 Q163.45 1413.43 163.45 1409.82 Q163.45 1406.21 161.112 1404.1 Q158.774 1401.99 154.769 1401.99 Q152.894 1401.99 151.019 1402.41 Q149.167 1402.83 147.223 1403.71 L147.223 1386.35 Z" fill="#000000" fill-rule="nonzero" fill-opacity="1" /><path clip-path="url(#clip640)" d="M177.339 1415.03 L182.223 1415.03 L182.223 1420.91 L177.339 1420.91 L177.339 1415.03 Z" fill="#000000" fill-rule="nonzero" fill-opacity="1" /><path clip-path="url(#clip640)" d="M191.227 1386.35 L213.449 1386.35 L213.449 1388.34 L200.903 1420.91 L196.019 1420.91 L207.824 1390.28 L191.227 1390.28 L191.227 1386.35 Z" fill="#000000" fill-rule="nonzero" fill-opacity="1" /><path clip-path="url(#clip640)" d="M222.616 1386.35 L240.972 1386.35 L240.972 1390.28 L226.898 1390.28 L226.898 1398.75 Q227.917 1398.41 228.935 1398.24 Q229.954 1398.06 230.972 1398.06 Q236.76 1398.06 240.139 1401.23 Q243.519 1404.4 243.519 1409.82 Q243.519 1415.4 240.047 1418.5 Q236.574 1421.58 230.255 1421.58 Q228.079 1421.58 225.81 1421.21 Q223.565 1420.84 221.158 1420.09 L221.158 1415.4 Q223.241 1416.53 225.463 1417.09 Q227.685 1417.64 230.162 1417.64 Q234.167 1417.64 236.505 1415.53 Q238.843 1413.43 238.843 1409.82 Q238.843 1406.21 236.505 1404.1 Q234.167 1401.99 230.162 1401.99 Q228.287 1401.99 226.412 1402.41 Q224.56 1402.83 222.616 1403.71 L222.616 1386.35 Z" fill="#000000" fill-rule="nonzero" fill-opacity="1" /><path clip-path="url(#clip640)" d="M126.598 1179.84 Q123.45 1179.84 121.598 1181.99 Q119.769 1184.15 119.769 1187.9 Q119.769 1191.62 121.598 1193.8 Q123.45 1195.95 126.598 1195.95 Q129.746 1195.95 131.575 1193.8 Q133.427 1191.62 133.427 1187.9 Q133.427 1184.15 131.575 1181.99 Q129.746 1179.84 126.598 1179.84 M135.88 1165.19 L135.88 1169.45 Q134.121 1168.61 132.316 1168.17 Q130.533 1167.73 128.774 1167.73 Q124.144 1167.73 121.691 1170.86 Q119.26 1173.98 118.913 1180.3 Q120.279 1178.29 122.339 1177.22 Q124.399 1176.14 126.876 1176.14 Q132.084 1176.14 135.093 1179.31 Q138.126 1182.46 138.126 1187.9 Q138.126 1193.22 134.978 1196.44 Q131.83 1199.66 126.598 1199.66 Q120.603 1199.66 117.431 1195.07 Q114.26 1190.47 114.26 1181.74 Q114.26 1173.54 118.149 1168.68 Q122.038 1163.8 128.589 1163.8 Q130.348 1163.8 132.13 1164.15 Q133.936 1164.49 135.88 1165.19 Z" fill="#000000" fill-rule="nonzero" fill-opacity="1" /><path clip-path="url(#clip640)" d="M156.76 1179.84 Q153.612 1179.84 151.76 1181.99 Q149.931 1184.15 149.931 1187.9 Q149.931 1191.62 151.76 1193.8 Q153.612 1195.95 156.76 1195.95 Q159.908 1195.95 161.737 1193.8 Q163.589 1191.62 163.589 1187.9 Q163.589 1184.15 161.737 1181.99 Q159.908 1179.84 156.76 1179.84 M166.042 1165.19 L166.042 1169.45 Q164.283 1168.61 162.477 1168.17 Q160.695 1167.73 158.936 1167.73 Q154.306 1167.73 151.853 1170.86 Q149.422 1173.98 149.075 1180.3 Q150.441 1178.29 152.501 1177.22 Q154.561 1176.14 157.038 1176.14 Q162.246 1176.14 165.255 1179.31 Q168.288 1182.46 168.288 1187.9 Q168.288 1193.22 165.14 1196.44 Q161.991 1199.66 156.76 1199.66 Q150.765 1199.66 147.593 1195.07 Q144.422 1190.47 144.422 1181.74 Q144.422 1173.54 148.311 1168.68 Q152.2 1163.8 158.751 1163.8 Q160.51 1163.8 162.292 1164.15 Q164.098 1164.49 166.042 1165.19 Z" fill="#000000" fill-rule="nonzero" fill-opacity="1" /><path clip-path="url(#clip640)" d="M176.343 1193.1 L181.227 1193.1 L181.227 1198.98 L176.343 1198.98 L176.343 1193.1 Z" fill="#000000" fill-rule="nonzero" fill-opacity="1" /><path clip-path="url(#clip640)" d="M201.412 1167.5 Q197.801 1167.5 195.973 1171.07 Q194.167 1174.61 194.167 1181.74 Q194.167 1188.85 195.973 1192.41 Q197.801 1195.95 201.412 1195.95 Q205.047 1195.95 206.852 1192.41 Q208.681 1188.85 208.681 1181.74 Q208.681 1174.61 206.852 1171.07 Q205.047 1167.5 201.412 1167.5 M201.412 1163.8 Q207.223 1163.8 210.278 1168.41 Q213.357 1172.99 213.357 1181.74 Q213.357 1190.47 210.278 1195.07 Q207.223 1199.66 201.412 1199.66 Q195.602 1199.66 192.524 1195.07 Q189.468 1190.47 189.468 1181.74 Q189.468 1172.99 192.524 1168.41 Q195.602 1163.8 201.412 1163.8 Z" fill="#000000" fill-rule="nonzero" fill-opacity="1" /><path clip-path="url(#clip640)" d="M231.574 1167.5 Q227.963 1167.5 226.135 1171.07 Q224.329 1174.61 224.329 1181.74 Q224.329 1188.85 226.135 1192.41 Q227.963 1195.95 231.574 1195.95 Q235.209 1195.95 237.014 1192.41 Q238.843 1188.85 238.843 1181.74 Q238.843 1174.61 237.014 1171.07 Q235.209 1167.5 231.574 1167.5 M231.574 1163.8 Q237.384 1163.8 240.44 1168.41 Q243.519 1172.99 243.519 1181.74 Q243.519 1190.47 240.44 1195.07 Q237.384 1199.66 231.574 1199.66 Q225.764 1199.66 222.686 1195.07 Q219.63 1190.47 219.63 1181.74 Q219.63 1172.99 222.686 1168.41 Q225.764 1163.8 231.574 1163.8 Z" fill="#000000" fill-rule="nonzero" fill-opacity="1" /><path clip-path="url(#clip640)" d="M127.593 957.92 Q124.445 957.92 122.593 960.072 Q120.765 962.225 120.765 965.975 Q120.765 969.702 122.593 971.878 Q124.445 974.031 127.593 974.031 Q130.742 974.031 132.57 971.878 Q134.422 969.702 134.422 965.975 Q134.422 962.225 132.57 960.072 Q130.742 957.92 127.593 957.92 M136.876 943.267 L136.876 947.526 Q135.117 946.693 133.311 946.253 Q131.529 945.813 129.769 945.813 Q125.14 945.813 122.686 948.938 Q120.255 952.063 119.908 958.383 Q121.274 956.369 123.334 955.304 Q125.394 954.216 127.871 954.216 Q133.08 954.216 136.089 957.387 Q139.121 960.535 139.121 965.975 Q139.121 971.299 135.973 974.517 Q132.825 977.734 127.593 977.734 Q121.598 977.734 118.427 973.151 Q115.256 968.545 115.256 959.818 Q115.256 951.623 119.144 946.762 Q123.033 941.878 129.584 941.878 Q131.343 941.878 133.126 942.225 Q134.931 942.573 136.876 943.267 Z" fill="#000000" fill-rule="nonzero" fill-opacity="1" /><path clip-path="url(#clip640)" d="M157.755 957.92 Q154.607 957.92 152.755 960.072 Q150.927 962.225 150.927 965.975 Q150.927 969.702 152.755 971.878 Q154.607 974.031 157.755 974.031 Q160.903 974.031 162.732 971.878 Q164.584 969.702 164.584 965.975 Q164.584 962.225 162.732 960.072 Q160.903 957.92 157.755 957.92 M167.038 943.267 L167.038 947.526 Q165.278 946.693 163.473 946.253 Q161.69 945.813 159.931 945.813 Q155.302 945.813 152.848 948.938 Q150.417 952.063 150.07 958.383 Q151.436 956.369 153.496 955.304 Q155.556 954.216 158.033 954.216 Q163.241 954.216 166.251 957.387 Q169.283 960.535 169.283 965.975 Q169.283 971.299 166.135 974.517 Q162.987 977.734 157.755 977.734 Q151.76 977.734 148.589 973.151 Q145.417 968.545 145.417 959.818 Q145.417 951.623 149.306 946.762 Q153.195 941.878 159.746 941.878 Q161.505 941.878 163.288 942.225 Q165.093 942.573 167.038 943.267 Z" fill="#000000" fill-rule="nonzero" fill-opacity="1" /><path clip-path="url(#clip640)" d="M177.339 971.183 L182.223 971.183 L182.223 977.063 L177.339 977.063 L177.339 971.183 Z" fill="#000000" fill-rule="nonzero" fill-opacity="1" /><path clip-path="url(#clip640)" d="M196.436 973.128 L212.755 973.128 L212.755 977.063 L190.811 977.063 L190.811 973.128 Q193.473 970.373 198.056 965.744 Q202.662 961.091 203.843 959.748 Q206.088 957.225 206.968 955.489 Q207.871 953.73 207.871 952.04 Q207.871 949.285 205.926 947.549 Q204.005 945.813 200.903 945.813 Q198.704 945.813 196.25 946.577 Q193.82 947.341 191.042 948.892 L191.042 944.17 Q193.866 943.035 196.32 942.457 Q198.774 941.878 200.811 941.878 Q206.181 941.878 209.375 944.563 Q212.57 947.248 212.57 951.739 Q212.57 953.869 211.76 955.79 Q210.973 957.688 208.866 960.281 Q208.287 960.952 205.186 964.17 Q202.084 967.364 196.436 973.128 Z" fill="#000000" fill-rule="nonzero" fill-opacity="1" /><path clip-path="url(#clip640)" d="M222.616 942.503 L240.972 942.503 L240.972 946.438 L226.898 946.438 L226.898 954.91 Q227.917 954.563 228.935 954.401 Q229.954 954.216 230.972 954.216 Q236.76 954.216 240.139 957.387 Q243.519 960.559 243.519 965.975 Q243.519 971.554 240.047 974.656 Q236.574 977.734 230.255 977.734 Q228.079 977.734 225.81 977.364 Q223.565 976.994 221.158 976.253 L221.158 971.554 Q223.241 972.688 225.463 973.244 Q227.685 973.799 230.162 973.799 Q234.167 973.799 236.505 971.693 Q238.843 969.586 238.843 965.975 Q238.843 962.364 236.505 960.258 Q234.167 958.151 230.162 958.151 Q228.287 958.151 226.412 958.568 Q224.56 958.984 222.616 959.864 L222.616 942.503 Z" fill="#000000" fill-rule="nonzero" fill-opacity="1" /><path clip-path="url(#clip640)" d="M126.598 735.999 Q123.45 735.999 121.598 738.151 Q119.769 740.304 119.769 744.054 Q119.769 747.781 121.598 749.957 Q123.45 752.11 126.598 752.11 Q129.746 752.11 131.575 749.957 Q133.427 747.781 133.427 744.054 Q133.427 740.304 131.575 738.151 Q129.746 735.999 126.598 735.999 M135.88 721.346 L135.88 725.605 Q134.121 724.772 132.316 724.332 Q130.533 723.892 128.774 723.892 Q124.144 723.892 121.691 727.017 Q119.26 730.142 118.913 736.462 Q120.279 734.448 122.339 733.383 Q124.399 732.295 126.876 732.295 Q132.084 732.295 135.093 735.466 Q138.126 738.614 138.126 744.054 Q138.126 749.378 134.978 752.596 Q131.83 755.813 126.598 755.813 Q120.603 755.813 117.431 751.23 Q114.26 746.624 114.26 737.897 Q114.26 729.702 118.149 724.841 Q122.038 719.957 128.589 719.957 Q130.348 719.957 132.13 720.304 Q133.936 720.652 135.88 721.346 Z" fill="#000000" fill-rule="nonzero" fill-opacity="1" /><path clip-path="url(#clip640)" d="M156.76 735.999 Q153.612 735.999 151.76 738.151 Q149.931 740.304 149.931 744.054 Q149.931 747.781 151.76 749.957 Q153.612 752.11 156.76 752.11 Q159.908 752.11 161.737 749.957 Q163.589 747.781 163.589 744.054 Q163.589 740.304 161.737 738.151 Q159.908 735.999 156.76 735.999 M166.042 721.346 L166.042 725.605 Q164.283 724.772 162.477 724.332 Q160.695 723.892 158.936 723.892 Q154.306 723.892 151.853 727.017 Q149.422 730.142 149.075 736.462 Q150.441 734.448 152.501 733.383 Q154.561 732.295 157.038 732.295 Q162.246 732.295 165.255 735.466 Q168.288 738.614 168.288 744.054 Q168.288 749.378 165.14 752.596 Q161.991 755.813 156.76 755.813 Q150.765 755.813 147.593 751.23 Q144.422 746.624 144.422 737.897 Q144.422 729.702 148.311 724.841 Q152.2 719.957 158.751 719.957 Q160.51 719.957 162.292 720.304 Q164.098 720.652 166.042 721.346 Z" fill="#000000" fill-rule="nonzero" fill-opacity="1" /><path clip-path="url(#clip640)" d="M176.343 749.263 L181.227 749.263 L181.227 755.142 L176.343 755.142 L176.343 749.263 Z" fill="#000000" fill-rule="nonzero" fill-opacity="1" /><path clip-path="url(#clip640)" d="M191.459 720.582 L209.815 720.582 L209.815 724.517 L195.741 724.517 L195.741 732.989 Q196.76 732.642 197.778 732.48 Q198.797 732.295 199.815 732.295 Q205.602 732.295 208.982 735.466 Q212.361 738.638 212.361 744.054 Q212.361 749.633 208.889 752.735 Q205.417 755.813 199.098 755.813 Q196.922 755.813 194.653 755.443 Q192.408 755.073 190 754.332 L190 749.633 Q192.084 750.767 194.306 751.323 Q196.528 751.878 199.005 751.878 Q203.01 751.878 205.348 749.772 Q207.686 747.665 207.686 744.054 Q207.686 740.443 205.348 738.337 Q203.01 736.23 199.005 736.23 Q197.13 736.23 195.255 736.647 Q193.403 737.064 191.459 737.943 L191.459 720.582 Z" fill="#000000" fill-rule="nonzero" fill-opacity="1" /><path clip-path="url(#clip640)" d="M231.574 723.661 Q227.963 723.661 226.135 727.226 Q224.329 730.767 224.329 737.897 Q224.329 745.003 226.135 748.568 Q227.963 752.11 231.574 752.11 Q235.209 752.11 237.014 748.568 Q238.843 745.003 238.843 737.897 Q238.843 730.767 237.014 727.226 Q235.209 723.661 231.574 723.661 M231.574 719.957 Q237.384 719.957 240.44 724.564 Q243.519 729.147 243.519 737.897 Q243.519 746.624 240.44 751.23 Q237.384 755.813 231.574 755.813 Q225.764 755.813 222.686 751.23 Q219.63 746.624 219.63 737.897 Q219.63 729.147 222.686 724.564 Q225.764 719.957 231.574 719.957 Z" fill="#000000" fill-rule="nonzero" fill-opacity="1" /><path clip-path="url(#clip640)" d="M127.593 514.078 Q124.445 514.078 122.593 516.231 Q120.765 518.383 120.765 522.133 Q120.765 525.86 122.593 528.036 Q124.445 530.189 127.593 530.189 Q130.742 530.189 132.57 528.036 Q134.422 525.86 134.422 522.133 Q134.422 518.383 132.57 516.231 Q130.742 514.078 127.593 514.078 M136.876 499.425 L136.876 503.684 Q135.117 502.851 133.311 502.411 Q131.529 501.971 129.769 501.971 Q125.14 501.971 122.686 505.096 Q120.255 508.221 119.908 514.541 Q121.274 512.527 123.334 511.462 Q125.394 510.374 127.871 510.374 Q133.08 510.374 136.089 513.545 Q139.121 516.693 139.121 522.133 Q139.121 527.457 135.973 530.675 Q132.825 533.892 127.593 533.892 Q121.598 533.892 118.427 529.309 Q115.256 524.703 115.256 515.976 Q115.256 507.781 119.144 502.92 Q123.033 498.036 129.584 498.036 Q131.343 498.036 133.126 498.383 Q134.931 498.731 136.876 499.425 Z" fill="#000000" fill-rule="nonzero" fill-opacity="1" /><path clip-path="url(#clip640)" d="M157.755 514.078 Q154.607 514.078 152.755 516.231 Q150.927 518.383 150.927 522.133 Q150.927 525.86 152.755 528.036 Q154.607 530.189 157.755 530.189 Q160.903 530.189 162.732 528.036 Q164.584 525.86 164.584 522.133 Q164.584 518.383 162.732 516.231 Q160.903 514.078 157.755 514.078 M167.038 499.425 L167.038 503.684 Q165.278 502.851 163.473 502.411 Q161.69 501.971 159.931 501.971 Q155.302 501.971 152.848 505.096 Q150.417 508.221 150.07 514.541 Q151.436 512.527 153.496 511.462 Q155.556 510.374 158.033 510.374 Q163.241 510.374 166.251 513.545 Q169.283 516.693 169.283 522.133 Q169.283 527.457 166.135 530.675 Q162.987 533.892 157.755 533.892 Q151.76 533.892 148.589 529.309 Q145.417 524.703 145.417 515.976 Q145.417 507.781 149.306 502.92 Q153.195 498.036 159.746 498.036 Q161.505 498.036 163.288 498.383 Q165.093 498.731 167.038 499.425 Z" fill="#000000" fill-rule="nonzero" fill-opacity="1" /><path clip-path="url(#clip640)" d="M177.339 527.342 L182.223 527.342 L182.223 533.221 L177.339 533.221 L177.339 527.342 Z" fill="#000000" fill-rule="nonzero" fill-opacity="1" /><path clip-path="url(#clip640)" d="M191.227 498.661 L213.449 498.661 L213.449 500.652 L200.903 533.221 L196.019 533.221 L207.824 502.596 L191.227 502.596 L191.227 498.661 Z" fill="#000000" fill-rule="nonzero" fill-opacity="1" /><path clip-path="url(#clip640)" d="M222.616 498.661 L240.972 498.661 L240.972 502.596 L226.898 502.596 L226.898 511.069 Q227.917 510.721 228.935 510.559 Q229.954 510.374 230.972 510.374 Q236.76 510.374 240.139 513.545 Q243.519 516.717 243.519 522.133 Q243.519 527.712 240.047 530.814 Q236.574 533.892 230.255 533.892 Q228.079 533.892 225.81 533.522 Q223.565 533.152 221.158 532.411 L221.158 527.712 Q223.241 528.846 225.463 529.402 Q227.685 529.957 230.162 529.957 Q234.167 529.957 236.505 527.851 Q238.843 525.744 238.843 522.133 Q238.843 518.522 236.505 516.416 Q234.167 514.309 230.162 514.309 Q228.287 514.309 226.412 514.726 Q224.56 515.143 222.616 516.022 L222.616 498.661 Z" fill="#000000" fill-rule="nonzero" fill-opacity="1" /><path clip-path="url(#clip640)" d="M126.598 292.157 Q123.45 292.157 121.598 294.31 Q119.769 296.462 119.769 300.212 Q119.769 303.939 121.598 306.115 Q123.45 308.268 126.598 308.268 Q129.746 308.268 131.575 306.115 Q133.427 303.939 133.427 300.212 Q133.427 296.462 131.575 294.31 Q129.746 292.157 126.598 292.157 M135.88 277.504 L135.88 281.763 Q134.121 280.93 132.316 280.49 Q130.533 280.05 128.774 280.05 Q124.144 280.05 121.691 283.175 Q119.26 286.3 118.913 292.62 Q120.279 290.606 122.339 289.541 Q124.399 288.453 126.876 288.453 Q132.084 288.453 135.093 291.624 Q138.126 294.773 138.126 300.212 Q138.126 305.536 134.978 308.754 Q131.83 311.971 126.598 311.971 Q120.603 311.971 117.431 307.388 Q114.26 302.782 114.26 294.055 Q114.26 285.861 118.149 280.999 Q122.038 276.115 128.589 276.115 Q130.348 276.115 132.13 276.462 Q133.936 276.81 135.88 277.504 Z" fill="#000000" fill-rule="nonzero" fill-opacity="1" /><path clip-path="url(#clip640)" d="M145.001 276.74 L167.223 276.74 L167.223 278.731 L154.677 311.3 L149.792 311.3 L161.598 280.675 L145.001 280.675 L145.001 276.74 Z" fill="#000000" fill-rule="nonzero" fill-opacity="1" /><path clip-path="url(#clip640)" d="M176.343 305.421 L181.227 305.421 L181.227 311.3 L176.343 311.3 L176.343 305.421 Z" fill="#000000" fill-rule="nonzero" fill-opacity="1" /><path clip-path="url(#clip640)" d="M201.412 279.819 Q197.801 279.819 195.973 283.384 Q194.167 286.925 194.167 294.055 Q194.167 301.161 195.973 304.726 Q197.801 308.268 201.412 308.268 Q205.047 308.268 206.852 304.726 Q208.681 301.161 208.681 294.055 Q208.681 286.925 206.852 283.384 Q205.047 279.819 201.412 279.819 M201.412 276.115 Q207.223 276.115 210.278 280.722 Q213.357 285.305 213.357 294.055 Q213.357 302.782 210.278 307.388 Q207.223 311.971 201.412 311.971 Q195.602 311.971 192.524 307.388 Q189.468 302.782 189.468 294.055 Q189.468 285.305 192.524 280.722 Q195.602 276.115 201.412 276.115 Z" fill="#000000" fill-rule="nonzero" fill-opacity="1" /><path clip-path="url(#clip640)" d="M231.574 279.819 Q227.963 279.819 226.135 283.384 Q224.329 286.925 224.329 294.055 Q224.329 301.161 226.135 304.726 Q227.963 308.268 231.574 308.268 Q235.209 308.268 237.014 304.726 Q238.843 301.161 238.843 294.055 Q238.843 286.925 237.014 283.384 Q235.209 279.819 231.574 279.819 M231.574 276.115 Q237.384 276.115 240.44 280.722 Q243.519 285.305 243.519 294.055 Q243.519 302.782 240.44 307.388 Q237.384 311.971 231.574 311.971 Q225.764 311.971 222.686 307.388 Q219.63 302.782 219.63 294.055 Q219.63 285.305 222.686 280.722 Q225.764 276.115 231.574 276.115 Z" fill="#000000" fill-rule="nonzero" fill-opacity="1" /><path clip-path="url(#clip640)" d="M127.593 70.2358 Q124.445 70.2358 122.593 72.3886 Q120.765 74.5414 120.765 78.2913 Q120.765 82.0182 122.593 84.1941 Q124.445 86.3469 127.593 86.3469 Q130.742 86.3469 132.57 84.1941 Q134.422 82.0182 134.422 78.2913 Q134.422 74.5414 132.57 72.3886 Q130.742 70.2358 127.593 70.2358 M136.876 55.5831 L136.876 59.8424 Q135.117 59.009 133.311 58.5692 Q131.529 58.1294 129.769 58.1294 Q125.14 58.1294 122.686 61.2544 Q120.255 64.3794 119.908 70.6988 Q121.274 68.6849 123.334 67.6201 Q125.394 66.5321 127.871 66.5321 Q133.08 66.5321 136.089 69.7034 Q139.121 72.8516 139.121 78.2913 Q139.121 83.6154 135.973 86.833 Q132.825 90.0505 127.593 90.0505 Q121.598 90.0505 118.427 85.4672 Q115.256 80.8608 115.256 72.134 Q115.256 63.9396 119.144 59.0785 Q123.033 54.1942 129.584 54.1942 Q131.343 54.1942 133.126 54.5415 Q134.931 54.8887 136.876 55.5831 Z" fill="#000000" fill-rule="nonzero" fill-opacity="1" /><path clip-path="url(#clip640)" d="M145.996 54.8192 L168.218 54.8192 L168.218 56.81 L155.672 89.3792 L150.788 89.3792 L162.593 58.7544 L145.996 58.7544 L145.996 54.8192 Z" fill="#000000" fill-rule="nonzero" fill-opacity="1" /><path clip-path="url(#clip640)" d="M177.339 83.4996 L182.223 83.4996 L182.223 89.3792 L177.339 89.3792 L177.339 83.4996 Z" fill="#000000" fill-rule="nonzero" fill-opacity="1" /><path clip-path="url(#clip640)" d="M196.436 85.4441 L212.755 85.4441 L212.755 89.3792 L190.811 89.3792 L190.811 85.4441 Q193.473 82.6895 198.056 78.0599 Q202.662 73.4071 203.843 72.0645 Q206.088 69.5414 206.968 67.8053 Q207.871 66.046 207.871 64.3562 Q207.871 61.6016 205.926 59.8655 Q204.005 58.1294 200.903 58.1294 Q198.704 58.1294 196.25 58.8933 Q193.82 59.6572 191.042 61.2081 L191.042 56.4859 Q193.866 55.3516 196.32 54.7729 Q198.774 54.1942 200.811 54.1942 Q206.181 54.1942 209.375 56.8794 Q212.57 59.5646 212.57 64.0553 Q212.57 66.1849 211.76 68.1062 Q210.973 70.0043 208.866 72.5969 Q208.287 73.2682 205.186 76.4858 Q202.084 79.6802 196.436 85.4441 Z" fill="#000000" fill-rule="nonzero" fill-opacity="1" /><path clip-path="url(#clip640)" d="M222.616 54.8192 L240.972 54.8192 L240.972 58.7544 L226.898 58.7544 L226.898 67.2266 Q227.917 66.8794 228.935 66.7173 Q229.954 66.5321 230.972 66.5321 Q236.76 66.5321 240.139 69.7034 Q243.519 72.8747 243.519 78.2913 Q243.519 83.87 240.047 86.9718 Q236.574 90.0505 230.255 90.0505 Q228.079 90.0505 225.81 89.6802 Q223.565 89.3098 221.158 88.5691 L221.158 83.87 Q223.241 85.0043 225.463 85.5598 Q227.685 86.1154 230.162 86.1154 Q234.167 86.1154 236.505 84.0089 Q238.843 81.9024 238.843 78.2913 Q238.843 74.6802 236.505 72.5738 Q234.167 70.4673 230.162 70.4673 Q228.287 70.4673 226.412 70.884 Q224.56 71.3006 222.616 72.1803 L222.616 54.8192 Z" fill="#000000" fill-rule="nonzero" fill-opacity="1" /><path clip-path="url(#clip640)" d="M22.818 922.094 L46.4666 930.815 L46.4666 913.341 L22.818 922.094 M16.4842 925.723 L16.4842 918.434 L64.0042 900.324 L64.0042 907.008 L51.8138 911.336 L51.8138 932.757 L64.0042 937.085 L64.0042 943.865 L16.4842 925.723 Z" fill="#000000" fill-rule="nonzero" fill-opacity="1" /><path clip-path="url(#clip640)" d="M45.7664 870.182 Q39.4007 870.182 35.8996 872.824 Q32.3984 875.434 32.3984 880.176 Q32.3984 884.887 35.8996 887.528 Q39.4007 890.138 45.7664 890.138 Q52.1003 890.138 55.6014 887.528 Q59.1026 884.887 59.1026 880.176 Q59.1026 875.434 55.6014 872.824 Q52.1003 870.182 45.7664 870.182 M59.58 864.325 Q68.683 864.325 73.1071 868.368 Q77.5631 872.41 77.5631 880.749 Q77.5631 883.836 77.0857 886.574 Q76.6401 889.311 75.6852 891.889 L69.9879 891.889 Q71.3884 889.311 72.0568 886.796 Q72.7252 884.282 72.7252 881.672 Q72.7252 875.911 69.7015 873.046 Q66.7096 870.182 60.6303 870.182 L57.7339 870.182 Q60.885 871.996 62.4446 874.829 Q64.0042 877.662 64.0042 881.608 Q64.0042 888.165 59.0071 892.175 Q54.01 896.186 45.7664 896.186 Q37.491 896.186 32.4939 892.175 Q27.4968 888.165 27.4968 881.608 Q27.4968 877.662 29.0564 874.829 Q30.616 871.996 33.7671 870.182 L28.3562 870.182 L28.3562 864.325 L59.58 864.325 Z" fill="#000000" fill-rule="nonzero" fill-opacity="1" /><path clip-path="url(#clip640)" d="M44.7161 821.771 L47.5806 821.771 L47.5806 848.698 Q53.6281 848.316 56.8109 845.069 Q59.9619 841.791 59.9619 835.966 Q59.9619 832.592 59.1344 829.441 Q58.3069 826.259 56.6518 823.139 L62.1899 823.139 Q63.5267 826.29 64.227 829.601 Q64.9272 832.911 64.9272 836.316 Q64.9272 844.846 59.9619 849.843 Q54.9967 854.809 46.5303 854.809 Q37.7774 854.809 32.6531 850.098 Q27.4968 845.356 27.4968 837.335 Q27.4968 830.142 32.1438 825.972 Q36.7589 821.771 44.7161 821.771 M42.9973 827.627 Q38.1912 827.691 35.3266 830.333 Q32.4621 832.943 32.4621 837.271 Q32.4621 842.173 35.2312 845.133 Q38.0002 848.061 43.0292 848.507 L42.9973 827.627 Z" fill="#000000" fill-rule="nonzero" fill-opacity="1" /><path clip-path="url(#clip640)" d="M14.5426 777.37 Q21.8632 781.635 29.0246 783.704 Q36.186 785.773 43.5384 785.773 Q50.8908 785.773 58.1159 783.704 Q65.3091 781.603 72.5979 777.37 L72.5979 782.462 Q65.1182 787.237 57.8931 789.624 Q50.668 791.979 43.5384 791.979 Q36.4406 791.979 29.2474 789.624 Q22.0542 787.269 14.5426 782.462 L14.5426 777.37 Z" fill="#000000" fill-rule="nonzero" fill-opacity="1" /><path clip-path="url(#clip640)" d="M16.4842 765.752 L16.4842 756.172 L48.8219 744.045 L16.4842 731.855 L16.4842 722.275 L64.0042 722.275 L64.0042 728.545 L22.277 728.545 L54.8694 740.799 L54.8694 747.26 L22.277 759.514 L64.0042 759.514 L64.0042 765.752 L16.4842 765.752 Z" fill="#000000" fill-rule="nonzero" fill-opacity="1" /><path clip-path="url(#clip640)" d="M46.0847 693.565 Q46.0847 700.663 47.7079 703.4 Q49.3312 706.138 53.2461 706.138 Q56.3653 706.138 58.2114 704.101 Q60.0256 702.032 60.0256 698.499 Q60.0256 693.629 56.5881 690.701 Q53.1188 687.741 47.3897 687.741 L46.0847 687.741 L46.0847 693.565 M43.6657 681.884 L64.0042 681.884 L64.0042 687.741 L58.5933 687.741 Q61.8398 689.746 63.3994 692.738 Q64.9272 695.73 64.9272 700.058 Q64.9272 705.533 61.8716 708.779 Q58.7843 711.994 53.6281 711.994 Q47.6125 711.994 44.5569 707.984 Q41.5014 703.941 41.5014 695.953 L41.5014 687.741 L40.9285 687.741 Q36.8862 687.741 34.6901 690.414 Q32.4621 693.056 32.4621 697.862 Q32.4621 700.918 33.1941 703.814 Q33.9262 706.711 35.3903 709.384 L29.9795 709.384 Q28.7381 706.169 28.1334 703.146 Q27.4968 700.122 27.4968 697.257 Q27.4968 689.523 31.5072 685.704 Q35.5176 681.884 43.6657 681.884 Z" fill="#000000" fill-rule="nonzero" fill-opacity="1" /><path clip-path="url(#clip640)" d="M14.5426 670.744 L14.5426 665.652 Q22.0542 660.877 29.2474 658.522 Q36.4406 656.135 43.5384 656.135 Q50.668 656.135 57.8931 658.522 Q65.1182 660.877 72.5979 665.652 L72.5979 670.744 Q65.3091 666.511 58.1159 664.442 Q50.8908 662.342 43.5384 662.342 Q36.186 662.342 29.0246 664.442 Q21.8632 666.511 14.5426 670.744 Z" fill="#000000" fill-rule="nonzero" fill-opacity="1" /><polyline clip-path="url(#clip642)" style="stroke:#009af9; stroke-linecap:round; stroke-linejoin:round; stroke-width:4; stroke-opacity:1; fill:none" points="338.195,1430.26 338.195,1234.97 "/>
<polyline clip-path="url(#clip642)" style="stroke:#009af9; stroke-linecap:round; stroke-linejoin:round; stroke-width:4; stroke-opacity:1; fill:none" points="460.438,1410.73 460.438,1250.94 "/>
<polyline clip-path="url(#clip642)" style="stroke:#009af9; stroke-linecap:round; stroke-linejoin:round; stroke-width:4; stroke-opacity:1; fill:none" points="582.681,1308.64 582.681,1257.16 "/>
<polyline clip-path="url(#clip642)" style="stroke:#009af9; stroke-linecap:round; stroke-linejoin:round; stroke-width:4; stroke-opacity:1; fill:none" points="704.924,1350.36 704.924,1155.07 "/>
<polyline clip-path="url(#clip642)" style="stroke:#009af9; stroke-linecap:round; stroke-linejoin:round; stroke-width:4; stroke-opacity:1; fill:none" points="827.166,1385.87 827.166,1101.81 "/>
<polyline clip-path="url(#clip642)" style="stroke:#009af9; stroke-linecap:round; stroke-linejoin:round; stroke-width:4; stroke-opacity:1; fill:none" points="949.409,1310.42 949.409,1175.49 "/>
<polyline clip-path="url(#clip642)" style="stroke:#009af9; stroke-linecap:round; stroke-linejoin:round; stroke-width:4; stroke-opacity:1; fill:none" points="1071.65,1269.58 1071.65,1177.27 "/>
<polyline clip-path="url(#clip642)" style="stroke:#009af9; stroke-linecap:round; stroke-linejoin:round; stroke-width:4; stroke-opacity:1; fill:none" points="1193.89,1323.73 1193.89,1110.69 "/>
<polyline clip-path="url(#clip642)" style="stroke:#009af9; stroke-linecap:round; stroke-linejoin:round; stroke-width:4; stroke-opacity:1; fill:none" points="1316.14,1376.99 1316.14,950.906 "/>
<polyline clip-path="url(#clip642)" style="stroke:#009af9; stroke-linecap:round; stroke-linejoin:round; stroke-width:4; stroke-opacity:1; fill:none" points="1438.38,1208.33 1438.38,924.276 "/>
<polyline clip-path="url(#clip642)" style="stroke:#009af9; stroke-linecap:round; stroke-linejoin:round; stroke-width:4; stroke-opacity:1; fill:none" points="1560.62,1252.72 1560.62,862.138 "/>
<polyline clip-path="url(#clip642)" style="stroke:#009af9; stroke-linecap:round; stroke-linejoin:round; stroke-width:4; stroke-opacity:1; fill:none" points="1682.87,1510.15 1682.87,462.68 "/>
<polyline clip-path="url(#clip642)" style="stroke:#009af9; stroke-linecap:round; stroke-linejoin:round; stroke-width:4; stroke-opacity:1; fill:none" points="1805.11,1385.87 1805.11,498.187 "/>
<polyline clip-path="url(#clip642)" style="stroke:#009af9; stroke-linecap:round; stroke-linejoin:round; stroke-width:4; stroke-opacity:1; fill:none" points="1927.35,966.885 1927.35,846.16 "/>
<polyline clip-path="url(#clip642)" style="stroke:#009af9; stroke-linecap:round; stroke-linejoin:round; stroke-width:4; stroke-opacity:1; fill:none" points="2049.59,1412.5 2049.59,382.789 "/>
<polyline clip-path="url(#clip642)" style="stroke:#009af9; stroke-linecap:round; stroke-linejoin:round; stroke-width:4; stroke-opacity:1; fill:none" points="2171.84,1013.04 2171.84,231.882 "/>
<polyline clip-path="url(#clip642)" style="stroke:#009af9; stroke-linecap:round; stroke-linejoin:round; stroke-width:4; stroke-opacity:1; fill:none" points="2294.08,1119.57 2294.08,89.8529 "/>
<line clip-path="url(#clip642)" x1="354.195" y1="1430.26" x2="322.195" y2="1430.26" style="stroke:#009af9; stroke-width:4; stroke-opacity:1"/>
<line clip-path="url(#clip642)" x1="354.195" y1="1234.97" x2="322.195" y2="1234.97" style="stroke:#009af9; stroke-width:4; stroke-opacity:1"/>
<line clip-path="url(#clip642)" x1="476.438" y1="1410.73" x2="444.438" y2="1410.73" style="stroke:#009af9; stroke-width:4; stroke-opacity:1"/>
<line clip-path="url(#clip642)" x1="476.438" y1="1250.94" x2="444.438" y2="1250.94" style="stroke:#009af9; stroke-width:4; stroke-opacity:1"/>
<line clip-path="url(#clip642)" x1="598.681" y1="1308.64" x2="566.681" y2="1308.64" style="stroke:#009af9; stroke-width:4; stroke-opacity:1"/>
<line clip-path="url(#clip642)" x1="598.681" y1="1257.16" x2="566.681" y2="1257.16" style="stroke:#009af9; stroke-width:4; stroke-opacity:1"/>
<line clip-path="url(#clip642)" x1="720.924" y1="1350.36" x2="688.924" y2="1350.36" style="stroke:#009af9; stroke-width:4; stroke-opacity:1"/>
<line clip-path="url(#clip642)" x1="720.924" y1="1155.07" x2="688.924" y2="1155.07" style="stroke:#009af9; stroke-width:4; stroke-opacity:1"/>
<line clip-path="url(#clip642)" x1="843.166" y1="1385.87" x2="811.166" y2="1385.87" style="stroke:#009af9; stroke-width:4; stroke-opacity:1"/>
<line clip-path="url(#clip642)" x1="843.166" y1="1101.81" x2="811.166" y2="1101.81" style="stroke:#009af9; stroke-width:4; stroke-opacity:1"/>
<line clip-path="url(#clip642)" x1="965.409" y1="1310.42" x2="933.409" y2="1310.42" style="stroke:#009af9; stroke-width:4; stroke-opacity:1"/>
<line clip-path="url(#clip642)" x1="965.409" y1="1175.49" x2="933.409" y2="1175.49" style="stroke:#009af9; stroke-width:4; stroke-opacity:1"/>
<line clip-path="url(#clip642)" x1="1087.65" y1="1269.58" x2="1055.65" y2="1269.58" style="stroke:#009af9; stroke-width:4; stroke-opacity:1"/>
<line clip-path="url(#clip642)" x1="1087.65" y1="1177.27" x2="1055.65" y2="1177.27" style="stroke:#009af9; stroke-width:4; stroke-opacity:1"/>
<line clip-path="url(#clip642)" x1="1209.89" y1="1323.73" x2="1177.89" y2="1323.73" style="stroke:#009af9; stroke-width:4; stroke-opacity:1"/>
<line clip-path="url(#clip642)" x1="1209.89" y1="1110.69" x2="1177.89" y2="1110.69" style="stroke:#009af9; stroke-width:4; stroke-opacity:1"/>
<line clip-path="url(#clip642)" x1="1332.14" y1="1376.99" x2="1300.14" y2="1376.99" style="stroke:#009af9; stroke-width:4; stroke-opacity:1"/>
<line clip-path="url(#clip642)" x1="1332.14" y1="950.906" x2="1300.14" y2="950.906" style="stroke:#009af9; stroke-width:4; stroke-opacity:1"/>
<line clip-path="url(#clip642)" x1="1454.38" y1="1208.33" x2="1422.38" y2="1208.33" style="stroke:#009af9; stroke-width:4; stroke-opacity:1"/>
<line clip-path="url(#clip642)" x1="1454.38" y1="924.276" x2="1422.38" y2="924.276" style="stroke:#009af9; stroke-width:4; stroke-opacity:1"/>
<line clip-path="url(#clip642)" x1="1576.62" y1="1252.72" x2="1544.62" y2="1252.72" style="stroke:#009af9; stroke-width:4; stroke-opacity:1"/>
<line clip-path="url(#clip642)" x1="1576.62" y1="862.138" x2="1544.62" y2="862.138" style="stroke:#009af9; stroke-width:4; stroke-opacity:1"/>
<line clip-path="url(#clip642)" x1="1698.87" y1="1510.15" x2="1666.87" y2="1510.15" style="stroke:#009af9; stroke-width:4; stroke-opacity:1"/>
<line clip-path="url(#clip642)" x1="1698.87" y1="462.68" x2="1666.87" y2="462.68" style="stroke:#009af9; stroke-width:4; stroke-opacity:1"/>
<line clip-path="url(#clip642)" x1="1821.11" y1="1385.87" x2="1789.11" y2="1385.87" style="stroke:#009af9; stroke-width:4; stroke-opacity:1"/>
<line clip-path="url(#clip642)" x1="1821.11" y1="498.187" x2="1789.11" y2="498.187" style="stroke:#009af9; stroke-width:4; stroke-opacity:1"/>
<line clip-path="url(#clip642)" x1="1943.35" y1="966.885" x2="1911.35" y2="966.885" style="stroke:#009af9; stroke-width:4; stroke-opacity:1"/>
<line clip-path="url(#clip642)" x1="1943.35" y1="846.16" x2="1911.35" y2="846.16" style="stroke:#009af9; stroke-width:4; stroke-opacity:1"/>
<line clip-path="url(#clip642)" x1="2065.59" y1="1412.5" x2="2033.59" y2="1412.5" style="stroke:#009af9; stroke-width:4; stroke-opacity:1"/>
<line clip-path="url(#clip642)" x1="2065.59" y1="382.789" x2="2033.59" y2="382.789" style="stroke:#009af9; stroke-width:4; stroke-opacity:1"/>
<line clip-path="url(#clip642)" x1="2187.84" y1="1013.04" x2="2155.84" y2="1013.04" style="stroke:#009af9; stroke-width:4; stroke-opacity:1"/>
<line clip-path="url(#clip642)" x1="2187.84" y1="231.882" x2="2155.84" y2="231.882" style="stroke:#009af9; stroke-width:4; stroke-opacity:1"/>
<line clip-path="url(#clip642)" x1="2310.08" y1="1119.57" x2="2278.08" y2="1119.57" style="stroke:#009af9; stroke-width:4; stroke-opacity:1"/>
<line clip-path="url(#clip642)" x1="2310.08" y1="89.8529" x2="2278.08" y2="89.8529" style="stroke:#009af9; stroke-width:4; stroke-opacity:1"/>
<circle clip-path="url(#clip642)" cx="338.195" cy="1332.61" r="14.4" fill="#009af9" fill-rule="evenodd" fill-opacity="1" stroke="none"/>
<circle clip-path="url(#clip642)" cx="460.438" cy="1330.83" r="14.4" fill="#009af9" fill-rule="evenodd" fill-opacity="1" stroke="none"/>
<circle clip-path="url(#clip642)" cx="582.681" cy="1282.9" r="14.4" fill="#009af9" fill-rule="evenodd" fill-opacity="1" stroke="none"/>
<circle clip-path="url(#clip642)" cx="704.924" cy="1252.72" r="14.4" fill="#009af9" fill-rule="evenodd" fill-opacity="1" stroke="none"/>
<circle clip-path="url(#clip642)" cx="827.166" cy="1243.84" r="14.4" fill="#009af9" fill-rule="evenodd" fill-opacity="1" stroke="none"/>
<circle clip-path="url(#clip642)" cx="949.409" cy="1242.95" r="14.4" fill="#009af9" fill-rule="evenodd" fill-opacity="1" stroke="none"/>
<circle clip-path="url(#clip642)" cx="1071.65" cy="1223.43" r="14.4" fill="#009af9" fill-rule="evenodd" fill-opacity="1" stroke="none"/>
<circle clip-path="url(#clip642)" cx="1193.89" cy="1217.21" r="14.4" fill="#009af9" fill-rule="evenodd" fill-opacity="1" stroke="none"/>
<circle clip-path="url(#clip642)" cx="1316.14" cy="1163.95" r="14.4" fill="#009af9" fill-rule="evenodd" fill-opacity="1" stroke="none"/>
<circle clip-path="url(#clip642)" cx="1438.38" cy="1066.31" r="14.4" fill="#009af9" fill-rule="evenodd" fill-opacity="1" stroke="none"/>
<circle clip-path="url(#clip642)" cx="1560.62" cy="1057.43" r="14.4" fill="#009af9" fill-rule="evenodd" fill-opacity="1" stroke="none"/>
<circle clip-path="url(#clip642)" cx="1682.87" cy="986.414" r="14.4" fill="#009af9" fill-rule="evenodd" fill-opacity="1" stroke="none"/>
<circle clip-path="url(#clip642)" cx="1805.11" cy="942.029" r="14.4" fill="#009af9" fill-rule="evenodd" fill-opacity="1" stroke="none"/>
<circle clip-path="url(#clip642)" cx="1927.35" cy="906.522" r="14.4" fill="#009af9" fill-rule="evenodd" fill-opacity="1" stroke="none"/>
<circle clip-path="url(#clip642)" cx="2049.59" cy="897.645" r="14.4" fill="#009af9" fill-rule="evenodd" fill-opacity="1" stroke="none"/>
<circle clip-path="url(#clip642)" cx="2171.84" cy="622.463" r="14.4" fill="#009af9" fill-rule="evenodd" fill-opacity="1" stroke="none"/>
<circle clip-path="url(#clip642)" cx="2294.08" cy="604.71" r="14.4" fill="#009af9" fill-rule="evenodd" fill-opacity="1" stroke="none"/>
<path clip-path="url(#clip642)" d="M338.195 1329.85 L460.438 1329.85 L582.681 1329.85 L704.924 1329.85 L827.166 1329.85 L949.409 1329.85 L1071.65 1329.85 L1193.89 1329.85 L1316.14 1329.85 L1438.38 1329.85 L1560.62 1329.85 L1682.87 1329.85 L1805.11 1329.85 L1927.35 1329.85 L2049.59 1329.85 L2171.84 1329.85 L2294.08 1329.85 L2294.08 1258.28 L2171.84 1258.28 L2049.59 1258.28 L1927.35 1258.28 L1805.11 1258.28 L1682.87 1258.28 L1560.62 1258.28 L1438.38 1258.28 L1316.14 1258.28 L1193.89 1258.28 L1071.65 1258.28 L949.409 1258.28 L827.166 1258.28 L704.924 1258.28 L582.681 1258.28 L460.438 1258.28 L338.195 1258.28  Z" fill="#e26f46" fill-rule="evenodd" fill-opacity="0.6"/>
<polyline clip-path="url(#clip642)" style="stroke:#e26f46; stroke-linecap:round; stroke-linejoin:round; stroke-width:4; stroke-opacity:0; fill:none" points="338.195,1329.85 460.438,1329.85 582.681,1329.85 704.924,1329.85 827.166,1329.85 949.409,1329.85 1071.65,1329.85 1193.89,1329.85 1316.14,1329.85 1438.38,1329.85 1560.62,1329.85 1682.87,1329.85 1805.11,1329.85 1927.35,1329.85 2049.59,1329.85 2171.84,1329.85 2294.08,1329.85 "/>
<polyline clip-path="url(#clip642)" style="stroke:#000000; stroke-linecap:round; stroke-linejoin:round; stroke-width:4; stroke-opacity:1; fill:none" stroke-dasharray="2, 4" points="338.195,1285.87 460.438,1285.87 582.681,1285.87 704.924,1285.87 827.166,1285.87 949.409,1285.87 1071.65,1285.87 1193.89,1285.87 1316.14,1285.87 1438.38,1285.87 1560.62,1285.87 1682.87,1285.87 1805.11,1285.87 1927.35,1285.87 2049.59,1285.87 2171.84,1285.87 2294.08,1285.87 "/>
<path clip-path="url(#clip640)" d="M348.627 252.948 L1321.66 252.948 L1321.66 97.4278 L348.627 97.4278  Z" fill="#ffffff" fill-rule="evenodd" fill-opacity="1"/>
<polyline clip-path="url(#clip640)" style="stroke:#ffffff; stroke-linecap:round; stroke-linejoin:round; stroke-width:4; stroke-opacity:1; fill:none" points="348.627,252.948 1321.66,252.948 1321.66,97.4278 348.627,97.4278 348.627,252.948 "/>
<circle clip-path="url(#clip640)" cx="440.771" cy="149.268" r="20.48" fill="#009af9" fill-rule="evenodd" fill-opacity="1" stroke="none"/>
<path clip-path="url(#clip640)" d="M537.59 135.83 L537.59 162.705 L543.238 162.705 Q550.391 162.705 553.701 159.465 Q557.035 156.224 557.035 149.233 Q557.035 142.289 553.701 139.071 Q550.391 135.83 543.238 135.83 L537.59 135.83 M532.914 131.988 L542.521 131.988 Q552.567 131.988 557.266 136.178 Q561.965 140.344 561.965 149.233 Q561.965 158.168 557.243 162.358 Q552.521 166.548 542.521 166.548 L532.914 166.548 L532.914 131.988 Z" fill="#000000" fill-rule="nonzero" fill-opacity="1" /><path clip-path="url(#clip640)" d="M581.016 153.515 Q575.854 153.515 573.863 154.696 Q571.873 155.877 571.873 158.724 Q571.873 160.992 573.354 162.335 Q574.859 163.654 577.428 163.654 Q580.97 163.654 583.099 161.154 Q585.252 158.631 585.252 154.465 L585.252 153.515 L581.016 153.515 M589.511 151.756 L589.511 166.548 L585.252 166.548 L585.252 162.613 Q583.794 164.974 581.618 166.108 Q579.442 167.219 576.294 167.219 Q572.312 167.219 569.951 164.997 Q567.613 162.752 567.613 159.002 Q567.613 154.627 570.53 152.404 Q573.47 150.182 579.28 150.182 L585.252 150.182 L585.252 149.766 Q585.252 146.826 583.308 145.228 Q581.386 143.608 577.891 143.608 Q575.669 143.608 573.562 144.141 Q571.456 144.673 569.511 145.738 L569.511 141.803 Q571.849 140.9 574.048 140.46 Q576.247 139.997 578.331 139.997 Q583.956 139.997 586.734 142.914 Q589.511 145.83 589.511 151.756 Z" fill="#000000" fill-rule="nonzero" fill-opacity="1" /><path clip-path="url(#clip640)" d="M602.497 133.261 L602.497 140.622 L611.27 140.622 L611.27 143.932 L602.497 143.932 L602.497 158.006 Q602.497 161.177 603.354 162.08 Q604.233 162.983 606.895 162.983 L611.27 162.983 L611.27 166.548 L606.895 166.548 Q601.965 166.548 600.09 164.719 Q598.215 162.867 598.215 158.006 L598.215 143.932 L595.09 143.932 L595.09 140.622 L598.215 140.622 L598.215 133.261 L602.497 133.261 Z" fill="#000000" fill-rule="nonzero" fill-opacity="1" /><path clip-path="url(#clip640)" d="M628.655 153.515 Q623.493 153.515 621.502 154.696 Q619.511 155.877 619.511 158.724 Q619.511 160.992 620.993 162.335 Q622.497 163.654 625.067 163.654 Q628.608 163.654 630.738 161.154 Q632.891 158.631 632.891 154.465 L632.891 153.515 L628.655 153.515 M637.15 151.756 L637.15 166.548 L632.891 166.548 L632.891 162.613 Q631.432 164.974 629.256 166.108 Q627.081 167.219 623.932 167.219 Q619.951 167.219 617.59 164.997 Q615.252 162.752 615.252 159.002 Q615.252 154.627 618.169 152.404 Q621.108 150.182 626.919 150.182 L632.891 150.182 L632.891 149.766 Q632.891 146.826 630.946 145.228 Q629.025 143.608 625.53 143.608 Q623.307 143.608 621.201 144.141 Q619.094 144.673 617.15 145.738 L617.15 141.803 Q619.488 140.9 621.687 140.46 Q623.886 139.997 625.969 139.997 Q631.594 139.997 634.372 142.914 Q637.15 145.83 637.15 151.756 Z" fill="#000000" fill-rule="nonzero" fill-opacity="1" /><path clip-path="url(#clip640)" d="M671.224 130.576 Q668.122 135.9 666.617 141.108 Q665.113 146.316 665.113 151.664 Q665.113 157.011 666.617 162.265 Q668.145 167.497 671.224 172.798 L667.52 172.798 Q664.048 167.358 662.312 162.103 Q660.599 156.849 660.599 151.664 Q660.599 146.502 662.312 141.27 Q664.025 136.039 667.52 130.576 L671.224 130.576 Z" fill="#000000" fill-rule="nonzero" fill-opacity="1" /><path clip-path="url(#clip640)" d="M689.534 143.608 Q686.108 143.608 684.117 146.293 Q682.127 148.955 682.127 153.608 Q682.127 158.261 684.094 160.946 Q686.085 163.608 689.534 163.608 Q692.937 163.608 694.927 160.923 Q696.918 158.238 696.918 153.608 Q696.918 149.002 694.927 146.316 Q692.937 143.608 689.534 143.608 M689.534 139.997 Q695.089 139.997 698.261 143.608 Q701.432 147.219 701.432 153.608 Q701.432 159.974 698.261 163.608 Q695.089 167.219 689.534 167.219 Q683.955 167.219 680.784 163.608 Q677.636 159.974 677.636 153.608 Q677.636 147.219 680.784 143.608 Q683.955 139.997 689.534 139.997 Z" fill="#000000" fill-rule="nonzero" fill-opacity="1" /><path clip-path="url(#clip640)" d="M727.103 153.608 Q727.103 148.909 725.159 146.247 Q723.237 143.562 719.858 143.562 Q716.478 143.562 714.534 146.247 Q712.612 148.909 712.612 153.608 Q712.612 158.307 714.534 160.992 Q716.478 163.654 719.858 163.654 Q723.237 163.654 725.159 160.992 Q727.103 158.307 727.103 153.608 M712.612 144.557 Q713.955 142.242 715.992 141.131 Q718.052 139.997 720.899 139.997 Q725.622 139.997 728.561 143.747 Q731.524 147.497 731.524 153.608 Q731.524 159.719 728.561 163.469 Q725.622 167.219 720.899 167.219 Q718.052 167.219 715.992 166.108 Q713.955 164.974 712.612 162.659 L712.612 166.548 L708.33 166.548 L708.33 130.529 L712.612 130.529 L712.612 144.557 Z" fill="#000000" fill-rule="nonzero" fill-opacity="1" /><path clip-path="url(#clip640)" d="M755.112 141.386 L755.112 145.414 Q753.307 144.488 751.362 144.025 Q749.418 143.562 747.335 143.562 Q744.163 143.562 742.566 144.534 Q740.992 145.506 740.992 147.451 Q740.992 148.932 742.126 149.789 Q743.26 150.622 746.686 151.386 L748.145 151.71 Q752.682 152.682 754.58 154.465 Q756.501 156.224 756.501 159.395 Q756.501 163.006 753.631 165.113 Q750.784 167.219 745.784 167.219 Q743.7 167.219 741.432 166.802 Q739.186 166.409 736.686 165.599 L736.686 161.201 Q739.048 162.427 741.339 163.052 Q743.631 163.654 745.876 163.654 Q748.885 163.654 750.506 162.636 Q752.126 161.594 752.126 159.719 Q752.126 157.983 750.946 157.057 Q749.788 156.131 745.83 155.275 L744.348 154.928 Q740.39 154.094 738.631 152.381 Q736.872 150.645 736.872 147.636 Q736.872 143.978 739.464 141.988 Q742.057 139.997 746.825 139.997 Q749.186 139.997 751.27 140.344 Q753.353 140.691 755.112 141.386 Z" fill="#000000" fill-rule="nonzero" fill-opacity="1" /><path clip-path="url(#clip640)" d="M785.459 152.52 L785.459 154.603 L765.876 154.603 Q766.154 159.002 768.515 161.316 Q770.899 163.608 775.135 163.608 Q777.589 163.608 779.881 163.006 Q782.195 162.404 784.464 161.201 L784.464 165.228 Q782.172 166.201 779.765 166.71 Q777.358 167.219 774.881 167.219 Q768.677 167.219 765.043 163.608 Q761.432 159.997 761.432 153.84 Q761.432 147.474 764.858 143.747 Q768.307 139.997 774.14 139.997 Q779.371 139.997 782.404 143.377 Q785.459 146.733 785.459 152.52 M781.2 151.27 Q781.154 147.775 779.233 145.691 Q777.334 143.608 774.186 143.608 Q770.621 143.608 768.469 145.622 Q766.339 147.636 766.015 151.293 L781.2 151.27 Z" fill="#000000" fill-rule="nonzero" fill-opacity="1" /><path clip-path="url(#clip640)" d="M807.473 144.603 Q806.756 144.187 805.899 144.002 Q805.066 143.793 804.047 143.793 Q800.436 143.793 798.492 146.154 Q796.57 148.492 796.57 152.89 L796.57 166.548 L792.288 166.548 L792.288 140.622 L796.57 140.622 L796.57 144.65 Q797.913 142.289 800.066 141.154 Q802.218 139.997 805.297 139.997 Q805.737 139.997 806.269 140.066 Q806.802 140.113 807.45 140.229 L807.473 144.603 Z" fill="#000000" fill-rule="nonzero" fill-opacity="1" /><path clip-path="url(#clip640)" d="M808.885 140.622 L813.399 140.622 L821.501 162.381 L829.603 140.622 L834.116 140.622 L824.394 166.548 L818.607 166.548 L808.885 140.622 Z" fill="#000000" fill-rule="nonzero" fill-opacity="1" /><path clip-path="url(#clip640)" d="M862.172 152.52 L862.172 154.603 L842.589 154.603 Q842.866 159.002 845.228 161.316 Q847.612 163.608 851.848 163.608 Q854.302 163.608 856.593 163.006 Q858.908 162.404 861.177 161.201 L861.177 165.228 Q858.885 166.201 856.477 166.71 Q854.07 167.219 851.593 167.219 Q845.39 167.219 841.755 163.608 Q838.144 159.997 838.144 153.84 Q838.144 147.474 841.57 143.747 Q845.019 139.997 850.852 139.997 Q856.084 139.997 859.116 143.377 Q862.172 146.733 862.172 152.52 M857.913 151.27 Q857.866 147.775 855.945 145.691 Q854.047 143.608 850.899 143.608 Q847.334 143.608 845.181 145.622 Q843.052 147.636 842.728 151.293 L857.913 151.27 Z" fill="#000000" fill-rule="nonzero" fill-opacity="1" /><path clip-path="url(#clip640)" d="M886.223 144.557 L886.223 130.529 L890.482 130.529 L890.482 166.548 L886.223 166.548 L886.223 162.659 Q884.88 164.974 882.82 166.108 Q880.783 167.219 877.913 167.219 Q873.213 167.219 870.251 163.469 Q867.311 159.719 867.311 153.608 Q867.311 147.497 870.251 143.747 Q873.213 139.997 877.913 139.997 Q880.783 139.997 882.82 141.131 Q884.88 142.242 886.223 144.557 M871.709 153.608 Q871.709 158.307 873.63 160.992 Q875.575 163.654 878.954 163.654 Q882.334 163.654 884.278 160.992 Q886.223 158.307 886.223 153.608 Q886.223 148.909 884.278 146.247 Q882.334 143.562 878.954 143.562 Q875.575 143.562 873.63 146.247 Q871.709 148.909 871.709 153.608 Z" fill="#000000" fill-rule="nonzero" fill-opacity="1" /><path clip-path="url(#clip640)" d="M926.107 153.515 Q920.945 153.515 918.954 154.696 Q916.963 155.877 916.963 158.724 Q916.963 160.992 918.445 162.335 Q919.949 163.654 922.519 163.654 Q926.06 163.654 928.19 161.154 Q930.343 158.631 930.343 154.465 L930.343 153.515 L926.107 153.515 M934.602 151.756 L934.602 166.548 L930.343 166.548 L930.343 162.613 Q928.884 164.974 926.709 166.108 Q924.533 167.219 921.385 167.219 Q917.403 167.219 915.042 164.997 Q912.704 162.752 912.704 159.002 Q912.704 154.627 915.621 152.404 Q918.56 150.182 924.371 150.182 L930.343 150.182 L930.343 149.766 Q930.343 146.826 928.398 145.228 Q926.477 143.608 922.982 143.608 Q920.76 143.608 918.653 144.141 Q916.547 144.673 914.602 145.738 L914.602 141.803 Q916.94 140.9 919.139 140.46 Q921.338 139.997 923.422 139.997 Q929.047 139.997 931.824 142.914 Q934.602 145.83 934.602 151.756 Z" fill="#000000" fill-rule="nonzero" fill-opacity="1" /><path clip-path="url(#clip640)" d="M960.435 153.284 Q960.435 148.654 958.514 146.108 Q956.616 143.562 953.167 143.562 Q949.741 143.562 947.82 146.108 Q945.921 148.654 945.921 153.284 Q945.921 157.89 947.82 160.437 Q949.741 162.983 953.167 162.983 Q956.616 162.983 958.514 160.437 Q960.435 157.89 960.435 153.284 M964.694 163.33 Q964.694 169.951 961.755 173.168 Q958.815 176.409 952.75 176.409 Q950.505 176.409 948.514 176.062 Q946.523 175.738 944.648 175.043 L944.648 170.9 Q946.523 171.918 948.352 172.404 Q950.181 172.89 952.079 172.89 Q956.269 172.89 958.352 170.691 Q960.435 168.515 960.435 164.094 L960.435 161.988 Q959.116 164.279 957.056 165.414 Q954.995 166.548 952.125 166.548 Q947.357 166.548 944.44 162.914 Q941.523 159.279 941.523 153.284 Q941.523 147.266 944.44 143.631 Q947.357 139.997 952.125 139.997 Q954.995 139.997 957.056 141.131 Q959.116 142.266 960.435 144.557 L960.435 140.622 L964.694 140.622 L964.694 163.33 Z" fill="#000000" fill-rule="nonzero" fill-opacity="1" /><path clip-path="url(#clip640)" d="M995.643 152.52 L995.643 154.603 L976.06 154.603 Q976.338 159.002 978.699 161.316 Q981.083 163.608 985.319 163.608 Q987.773 163.608 990.065 163.006 Q992.38 162.404 994.648 161.201 L994.648 165.228 Q992.356 166.201 989.949 166.71 Q987.542 167.219 985.065 167.219 Q978.861 167.219 975.227 163.608 Q971.616 159.997 971.616 153.84 Q971.616 147.474 975.042 143.747 Q978.491 139.997 984.324 139.997 Q989.555 139.997 992.588 143.377 Q995.643 146.733 995.643 152.52 M991.384 151.27 Q991.338 147.775 989.417 145.691 Q987.518 143.608 984.37 143.608 Q980.805 143.608 978.653 145.622 Q976.523 147.636 976.199 151.293 L991.384 151.27 Z" fill="#000000" fill-rule="nonzero" fill-opacity="1" /><path clip-path="url(#clip640)" d="M1019.16 141.386 L1019.16 145.414 Q1017.36 144.488 1015.41 144.025 Q1013.47 143.562 1011.38 143.562 Q1008.21 143.562 1006.62 144.534 Q1005.04 145.506 1005.04 147.451 Q1005.04 148.932 1006.18 149.789 Q1007.31 150.622 1010.74 151.386 L1012.19 151.71 Q1016.73 152.682 1018.63 154.465 Q1020.55 156.224 1020.55 159.395 Q1020.55 163.006 1017.68 165.113 Q1014.83 167.219 1009.83 167.219 Q1007.75 167.219 1005.48 166.802 Q1003.24 166.409 1000.74 165.599 L1000.74 161.201 Q1003.1 162.427 1005.39 163.052 Q1007.68 163.654 1009.93 163.654 Q1012.93 163.654 1014.56 162.636 Q1016.18 161.594 1016.18 159.719 Q1016.18 157.983 1015 157.057 Q1013.84 156.131 1009.88 155.275 L1008.4 154.928 Q1004.44 154.094 1002.68 152.381 Q1000.92 150.645 1000.92 147.636 Q1000.92 143.978 1003.51 141.988 Q1006.11 139.997 1010.87 139.997 Q1013.24 139.997 1015.32 140.344 Q1017.4 140.691 1019.16 141.386 Z" fill="#000000" fill-rule="nonzero" fill-opacity="1" /><path clip-path="url(#clip640)" d="M1026.66 130.576 L1030.37 130.576 Q1033.84 136.039 1035.55 141.27 Q1037.29 146.502 1037.29 151.664 Q1037.29 156.849 1035.55 162.103 Q1033.84 167.358 1030.37 172.798 L1026.66 172.798 Q1029.74 167.497 1031.25 162.265 Q1032.77 157.011 1032.77 151.664 Q1032.77 146.316 1031.25 141.108 Q1029.74 135.9 1026.66 130.576 Z" fill="#000000" fill-rule="nonzero" fill-opacity="1" /><path clip-path="url(#clip640)" d="M371.663 221.844 L509.878 221.844 L509.878 180.372 L371.663 180.372 L371.663 221.844  Z" fill="#e26f46" fill-rule="evenodd" fill-opacity="0.6"/>
<polyline clip-path="url(#clip640)" style="stroke:#e26f46; stroke-linecap:round; stroke-linejoin:round; stroke-width:4; stroke-opacity:0; fill:none" points="371.663,180.372 509.878,180.372 "/>
<path clip-path="url(#clip640)" d="M532.914 183.828 L539.882 183.828 L548.701 207.346 L557.567 183.828 L564.535 183.828 L564.535 218.388 L559.974 218.388 L559.974 188.041 L551.062 211.744 L546.363 211.744 L537.451 188.041 L537.451 218.388 L532.914 218.388 L532.914 183.828 Z" fill="#000000" fill-rule="nonzero" fill-opacity="1" /><path clip-path="url(#clip640)" d="M583.678 195.448 Q580.252 195.448 578.261 198.133 Q576.271 200.795 576.271 205.448 Q576.271 210.101 578.238 212.786 Q580.229 215.448 583.678 215.448 Q587.081 215.448 589.071 212.763 Q591.062 210.078 591.062 205.448 Q591.062 200.842 589.071 198.156 Q587.081 195.448 583.678 195.448 M583.678 191.837 Q589.234 191.837 592.405 195.448 Q595.576 199.059 595.576 205.448 Q595.576 211.814 592.405 215.448 Q589.234 219.059 583.678 219.059 Q578.099 219.059 574.928 215.448 Q571.78 211.814 571.78 205.448 Q571.78 199.059 574.928 195.448 Q578.099 191.837 583.678 191.837 Z" fill="#000000" fill-rule="nonzero" fill-opacity="1" /><path clip-path="url(#clip640)" d="M619.696 196.397 L619.696 182.369 L623.956 182.369 L623.956 218.388 L619.696 218.388 L619.696 214.499 Q618.354 216.814 616.294 217.948 Q614.257 219.059 611.386 219.059 Q606.687 219.059 603.724 215.309 Q600.784 211.559 600.784 205.448 Q600.784 199.337 603.724 195.587 Q606.687 191.837 611.386 191.837 Q614.257 191.837 616.294 192.971 Q618.354 194.082 619.696 196.397 M605.183 205.448 Q605.183 210.147 607.104 212.832 Q609.048 215.494 612.428 215.494 Q615.807 215.494 617.752 212.832 Q619.696 210.147 619.696 205.448 Q619.696 200.749 617.752 198.087 Q615.807 195.402 612.428 195.402 Q609.048 195.402 607.104 198.087 Q605.183 200.749 605.183 205.448 Z" fill="#000000" fill-rule="nonzero" fill-opacity="1" /><path clip-path="url(#clip640)" d="M654.904 204.36 L654.904 206.443 L635.321 206.443 Q635.599 210.842 637.96 213.156 Q640.344 215.448 644.58 215.448 Q647.034 215.448 649.326 214.846 Q651.641 214.244 653.909 213.041 L653.909 217.068 Q651.617 218.041 649.21 218.55 Q646.803 219.059 644.326 219.059 Q638.122 219.059 634.488 215.448 Q630.877 211.837 630.877 205.68 Q630.877 199.314 634.303 195.587 Q637.752 191.837 643.585 191.837 Q648.817 191.837 651.849 195.217 Q654.904 198.573 654.904 204.36 M650.645 203.11 Q650.599 199.615 648.678 197.531 Q646.78 195.448 643.631 195.448 Q640.067 195.448 637.914 197.462 Q635.784 199.476 635.46 203.133 L650.645 203.11 Z" fill="#000000" fill-rule="nonzero" fill-opacity="1" /><path clip-path="url(#clip640)" d="M661.895 182.369 L666.154 182.369 L666.154 218.388 L661.895 218.388 L661.895 182.369 Z" fill="#000000" fill-rule="nonzero" fill-opacity="1" /><path clip-path="url(#clip640)" d="M700.367 182.416 Q697.265 187.74 695.761 192.948 Q694.256 198.156 694.256 203.504 Q694.256 208.851 695.761 214.105 Q697.288 219.337 700.367 224.638 L696.664 224.638 Q693.191 219.198 691.455 213.943 Q689.742 208.689 689.742 203.504 Q689.742 198.342 691.455 193.11 Q693.168 187.879 696.664 182.416 L700.367 182.416 Z" fill="#000000" fill-rule="nonzero" fill-opacity="1" /><path clip-path="url(#clip640)" d="M719.812 199.244 Q716.663 199.244 714.812 201.397 Q712.983 203.55 712.983 207.3 Q712.983 211.027 714.812 213.203 Q716.663 215.355 719.812 215.355 Q722.96 215.355 724.788 213.203 Q726.64 211.027 726.64 207.3 Q726.64 203.55 724.788 201.397 Q722.96 199.244 719.812 199.244 M729.094 184.592 L729.094 188.851 Q727.335 188.018 725.529 187.578 Q723.747 187.138 721.987 187.138 Q717.358 187.138 714.904 190.263 Q712.474 193.388 712.126 199.707 Q713.492 197.693 715.552 196.629 Q717.612 195.541 720.089 195.541 Q725.298 195.541 728.307 198.712 Q731.339 201.86 731.339 207.3 Q731.339 212.624 728.191 215.842 Q725.043 219.059 719.812 219.059 Q713.816 219.059 710.645 214.476 Q707.474 209.869 707.474 201.143 Q707.474 192.948 711.362 188.087 Q715.251 183.203 721.802 183.203 Q723.562 183.203 725.344 183.55 Q727.149 183.897 729.094 184.592 Z" fill="#000000" fill-rule="nonzero" fill-opacity="1" /><path clip-path="url(#clip640)" d="M739.441 183.828 L757.797 183.828 L757.797 187.763 L743.723 187.763 L743.723 196.235 Q744.742 195.888 745.76 195.726 Q746.779 195.541 747.797 195.541 Q753.584 195.541 756.964 198.712 Q760.344 201.883 760.344 207.3 Q760.344 212.879 756.872 215.98 Q753.399 219.059 747.08 219.059 Q744.904 219.059 742.635 218.689 Q740.39 218.318 737.983 217.578 L737.983 212.879 Q740.066 214.013 742.288 214.568 Q744.51 215.124 746.987 215.124 Q750.992 215.124 753.33 213.017 Q755.668 210.911 755.668 207.3 Q755.668 203.689 753.33 201.582 Q750.992 199.476 746.987 199.476 Q745.112 199.476 743.237 199.893 Q741.385 200.309 739.441 201.189 L739.441 183.828 Z" fill="#000000" fill-rule="nonzero" fill-opacity="1" /><path clip-path="url(#clip640)" d="M769.557 212.508 L774.441 212.508 L774.441 218.388 L769.557 218.388 L769.557 212.508 Z" fill="#000000" fill-rule="nonzero" fill-opacity="1" /><path clip-path="url(#clip640)" d="M794.626 201.976 Q791.293 201.976 789.371 203.758 Q787.473 205.541 787.473 208.666 Q787.473 211.791 789.371 213.573 Q791.293 215.355 794.626 215.355 Q797.959 215.355 799.881 213.573 Q801.802 211.767 801.802 208.666 Q801.802 205.541 799.881 203.758 Q797.982 201.976 794.626 201.976 M789.95 199.985 Q786.941 199.244 785.251 197.184 Q783.584 195.124 783.584 192.161 Q783.584 188.018 786.524 185.61 Q789.487 183.203 794.626 183.203 Q799.788 183.203 802.728 185.61 Q805.668 188.018 805.668 192.161 Q805.668 195.124 803.978 197.184 Q802.311 199.244 799.325 199.985 Q802.705 200.772 804.58 203.064 Q806.478 205.355 806.478 208.666 Q806.478 213.689 803.399 216.374 Q800.344 219.059 794.626 219.059 Q788.908 219.059 785.83 216.374 Q782.774 213.689 782.774 208.666 Q782.774 205.355 784.672 203.064 Q786.57 200.772 789.95 199.985 M788.237 192.601 Q788.237 195.286 789.904 196.791 Q791.594 198.295 794.626 198.295 Q797.635 198.295 799.325 196.791 Q801.038 195.286 801.038 192.601 Q801.038 189.916 799.325 188.411 Q797.635 186.907 794.626 186.907 Q791.594 186.907 789.904 188.411 Q788.237 189.916 788.237 192.601 Z" fill="#000000" fill-rule="nonzero" fill-opacity="1" /><path clip-path="url(#clip640)" d="M824.788 201.976 Q821.455 201.976 819.533 203.758 Q817.635 205.541 817.635 208.666 Q817.635 211.791 819.533 213.573 Q821.455 215.355 824.788 215.355 Q828.121 215.355 830.042 213.573 Q831.964 211.767 831.964 208.666 Q831.964 205.541 830.042 203.758 Q828.144 201.976 824.788 201.976 M820.112 199.985 Q817.103 199.244 815.413 197.184 Q813.746 195.124 813.746 192.161 Q813.746 188.018 816.686 185.61 Q819.649 183.203 824.788 183.203 Q829.95 183.203 832.89 185.61 Q835.829 188.018 835.829 192.161 Q835.829 195.124 834.14 197.184 Q832.473 199.244 829.487 199.985 Q832.866 200.772 834.741 203.064 Q836.64 205.355 836.64 208.666 Q836.64 213.689 833.561 216.374 Q830.505 219.059 824.788 219.059 Q819.07 219.059 815.992 216.374 Q812.936 213.689 812.936 208.666 Q812.936 205.355 814.834 203.064 Q816.732 200.772 820.112 199.985 M818.399 192.601 Q818.399 195.286 820.066 196.791 Q821.755 198.295 824.788 198.295 Q827.797 198.295 829.487 196.791 Q831.2 195.286 831.2 192.601 Q831.2 189.916 829.487 188.411 Q827.797 186.907 824.788 186.907 Q821.755 186.907 820.066 188.411 Q818.399 189.916 818.399 192.601 Z" fill="#000000" fill-rule="nonzero" fill-opacity="1" /><path clip-path="url(#clip640)" d="M859.116 199.754 Q862.473 200.471 864.348 202.74 Q866.246 205.008 866.246 208.342 Q866.246 213.457 862.727 216.258 Q859.209 219.059 852.727 219.059 Q850.552 219.059 848.237 218.619 Q845.945 218.203 843.491 217.346 L843.491 212.832 Q845.436 213.967 847.751 214.545 Q850.065 215.124 852.589 215.124 Q856.987 215.124 859.278 213.388 Q861.593 211.652 861.593 208.342 Q861.593 205.286 859.44 203.573 Q857.311 201.837 853.491 201.837 L849.464 201.837 L849.464 197.994 L853.677 197.994 Q857.126 197.994 858.954 196.629 Q860.783 195.24 860.783 192.647 Q860.783 189.985 858.885 188.573 Q857.01 187.138 853.491 187.138 Q851.57 187.138 849.371 187.555 Q847.172 187.971 844.533 188.851 L844.533 184.684 Q847.195 183.944 849.51 183.573 Q851.848 183.203 853.908 183.203 Q859.232 183.203 862.334 185.633 Q865.436 188.041 865.436 192.161 Q865.436 195.031 863.792 197.022 Q862.149 198.99 859.116 199.754 Z" fill="#000000" fill-rule="nonzero" fill-opacity="1" /><path clip-path="url(#clip640)" d="M906.917 188.666 L906.917 201.559 L919.81 201.559 L919.81 205.494 L906.917 205.494 L906.917 218.388 L903.028 218.388 L903.028 205.494 L890.135 205.494 L890.135 201.559 L903.028 201.559 L903.028 188.666 L906.917 188.666 Z" fill="#000000" fill-rule="nonzero" fill-opacity="1" /><path clip-path="url(#clip640)" d="M939.903 186.907 Q936.292 186.907 934.463 190.471 Q932.658 194.013 932.658 201.143 Q932.658 208.249 934.463 211.814 Q936.292 215.355 939.903 215.355 Q943.537 215.355 945.343 211.814 Q947.171 208.249 947.171 201.143 Q947.171 194.013 945.343 190.471 Q943.537 186.907 939.903 186.907 M939.903 183.203 Q945.713 183.203 948.769 187.809 Q951.847 192.393 951.847 201.143 Q951.847 209.869 948.769 214.476 Q945.713 219.059 939.903 219.059 Q934.093 219.059 931.014 214.476 Q927.959 209.869 927.959 201.143 Q927.959 192.393 931.014 187.809 Q934.093 183.203 939.903 183.203 Z" fill="#000000" fill-rule="nonzero" fill-opacity="1" /><path clip-path="url(#clip640)" d="M960.065 212.508 L964.949 212.508 L964.949 218.388 L960.065 218.388 L960.065 212.508 Z" fill="#000000" fill-rule="nonzero" fill-opacity="1" /><path clip-path="url(#clip640)" d="M985.134 186.907 Q981.523 186.907 979.694 190.471 Q977.889 194.013 977.889 201.143 Q977.889 208.249 979.694 211.814 Q981.523 215.355 985.134 215.355 Q988.768 215.355 990.574 211.814 Q992.403 208.249 992.403 201.143 Q992.403 194.013 990.574 190.471 Q988.768 186.907 985.134 186.907 M985.134 183.203 Q990.944 183.203 994 187.809 Q997.079 192.393 997.079 201.143 Q997.079 209.869 994 214.476 Q990.944 219.059 985.134 219.059 Q979.324 219.059 976.245 214.476 Q973.19 209.869 973.19 201.143 Q973.19 192.393 976.245 187.809 Q979.324 183.203 985.134 183.203 Z" fill="#000000" fill-rule="nonzero" fill-opacity="1" /><path clip-path="url(#clip640)" d="M1019.46 199.754 Q1022.82 200.471 1024.69 202.74 Q1026.59 205.008 1026.59 208.342 Q1026.59 213.457 1023.07 216.258 Q1019.56 219.059 1013.07 219.059 Q1010.9 219.059 1008.58 218.619 Q1006.29 218.203 1003.84 217.346 L1003.84 212.832 Q1005.78 213.967 1008.1 214.545 Q1010.41 215.124 1012.93 215.124 Q1017.33 215.124 1019.62 213.388 Q1021.94 211.652 1021.94 208.342 Q1021.94 205.286 1019.79 203.573 Q1017.66 201.837 1013.84 201.837 L1009.81 201.837 L1009.81 197.994 L1014.02 197.994 Q1017.47 197.994 1019.3 196.629 Q1021.13 195.24 1021.13 192.647 Q1021.13 189.985 1019.23 188.573 Q1017.36 187.138 1013.84 187.138 Q1011.92 187.138 1009.72 187.555 Q1007.52 187.971 1004.88 188.851 L1004.88 184.684 Q1007.54 183.944 1009.86 183.573 Q1012.19 183.203 1014.25 183.203 Q1019.58 183.203 1022.68 185.633 Q1025.78 188.041 1025.78 192.161 Q1025.78 195.031 1024.14 197.022 Q1022.5 198.99 1019.46 199.754 Z" fill="#000000" fill-rule="nonzero" fill-opacity="1" /><path clip-path="url(#clip640)" d="M1036.27 214.453 L1043.91 214.453 L1043.91 188.087 L1035.6 189.754 L1035.6 185.494 L1043.86 183.828 L1048.54 183.828 L1048.54 214.453 L1056.18 214.453 L1056.18 218.388 L1036.27 218.388 L1036.27 214.453 Z" fill="#000000" fill-rule="nonzero" fill-opacity="1" /><path clip-path="url(#clip640)" d="M1072.59 183.828 L1076.52 183.828 L1064.49 222.786 L1060.55 222.786 L1072.59 183.828 Z" fill="#000000" fill-rule="nonzero" fill-opacity="1" /><path clip-path="url(#clip640)" d="M1078.84 203.504 L1091.31 203.504 L1091.31 207.3 L1078.84 207.3 L1078.84 203.504 Z" fill="#000000" fill-rule="nonzero" fill-opacity="1" /><path clip-path="url(#clip640)" d="M1108.7 186.907 Q1105.09 186.907 1103.26 190.471 Q1101.45 194.013 1101.45 201.143 Q1101.45 208.249 1103.26 211.814 Q1105.09 215.355 1108.7 215.355 Q1112.33 215.355 1114.14 211.814 Q1115.97 208.249 1115.97 201.143 Q1115.97 194.013 1114.14 190.471 Q1112.33 186.907 1108.7 186.907 M1108.7 183.203 Q1114.51 183.203 1117.56 187.809 Q1120.64 192.393 1120.64 201.143 Q1120.64 209.869 1117.56 214.476 Q1114.51 219.059 1108.7 219.059 Q1102.89 219.059 1099.81 214.476 Q1096.75 209.869 1096.75 201.143 Q1096.75 192.393 1099.81 187.809 Q1102.89 183.203 1108.7 183.203 Z" fill="#000000" fill-rule="nonzero" fill-opacity="1" /><path clip-path="url(#clip640)" d="M1128.86 212.508 L1133.74 212.508 L1133.74 218.388 L1128.86 218.388 L1128.86 212.508 Z" fill="#000000" fill-rule="nonzero" fill-opacity="1" /><path clip-path="url(#clip640)" d="M1153.93 186.907 Q1150.32 186.907 1148.49 190.471 Q1146.68 194.013 1146.68 201.143 Q1146.68 208.249 1148.49 211.814 Q1150.32 215.355 1153.93 215.355 Q1157.56 215.355 1159.37 211.814 Q1161.2 208.249 1161.2 201.143 Q1161.2 194.013 1159.37 190.471 Q1157.56 186.907 1153.93 186.907 M1153.93 183.203 Q1159.74 183.203 1162.8 187.809 Q1165.87 192.393 1165.87 201.143 Q1165.87 209.869 1162.8 214.476 Q1159.74 219.059 1153.93 219.059 Q1148.12 219.059 1145.04 214.476 Q1141.99 209.869 1141.99 201.143 Q1141.99 192.393 1145.04 187.809 Q1148.12 183.203 1153.93 183.203 Z" fill="#000000" fill-rule="nonzero" fill-opacity="1" /><path clip-path="url(#clip640)" d="M1174.14 183.828 L1192.49 183.828 L1192.49 187.763 L1178.42 187.763 L1178.42 196.235 Q1179.44 195.888 1180.46 195.726 Q1181.48 195.541 1182.49 195.541 Q1188.28 195.541 1191.66 198.712 Q1195.04 201.883 1195.04 207.3 Q1195.04 212.879 1191.57 215.98 Q1188.1 219.059 1181.78 219.059 Q1179.6 219.059 1177.33 218.689 Q1175.09 218.318 1172.68 217.578 L1172.68 212.879 Q1174.76 214.013 1176.99 214.568 Q1179.21 215.124 1181.68 215.124 Q1185.69 215.124 1188.03 213.017 Q1190.36 210.911 1190.36 207.3 Q1190.36 203.689 1188.03 201.582 Q1185.69 199.476 1181.68 199.476 Q1179.81 199.476 1177.93 199.893 Q1176.08 200.309 1174.14 201.189 L1174.14 183.828 Z" fill="#000000" fill-rule="nonzero" fill-opacity="1" /><path clip-path="url(#clip640)" d="M1218.91 183.828 L1225.87 183.828 L1234.69 207.346 L1243.56 183.828 L1250.53 183.828 L1250.53 218.388 L1245.97 218.388 L1245.97 188.041 L1237.05 211.744 L1232.36 211.744 L1223.44 188.041 L1223.44 218.388 L1218.91 218.388 L1218.91 183.828 Z" fill="#000000" fill-rule="nonzero" fill-opacity="1" /><path clip-path="url(#clip640)" d="M1271.41 205.355 Q1266.24 205.355 1264.25 206.536 Q1262.26 207.717 1262.26 210.564 Q1262.26 212.832 1263.74 214.175 Q1265.25 215.494 1267.82 215.494 Q1271.36 215.494 1273.49 212.994 Q1275.64 210.471 1275.64 206.305 L1275.64 205.355 L1271.41 205.355 M1279.9 203.596 L1279.9 218.388 L1275.64 218.388 L1275.64 214.453 Q1274.18 216.814 1272.01 217.948 Q1269.83 219.059 1266.68 219.059 Q1262.7 219.059 1260.34 216.837 Q1258 214.592 1258 210.842 Q1258 206.467 1260.92 204.244 Q1263.86 202.022 1269.67 202.022 L1275.64 202.022 L1275.64 201.606 Q1275.64 198.666 1273.7 197.068 Q1271.78 195.448 1268.28 195.448 Q1266.06 195.448 1263.95 195.981 Q1261.85 196.513 1259.9 197.578 L1259.9 193.643 Q1262.24 192.74 1264.44 192.3 Q1266.64 191.837 1268.72 191.837 Q1274.35 191.837 1277.12 194.754 Q1279.9 197.67 1279.9 203.596 Z" fill="#000000" fill-rule="nonzero" fill-opacity="1" /><path clip-path="url(#clip640)" d="M1288 182.416 L1291.71 182.416 Q1295.18 187.879 1296.89 193.11 Q1298.63 198.342 1298.63 203.504 Q1298.63 208.689 1296.89 213.943 Q1295.18 219.198 1291.71 224.638 L1288 224.638 Q1291.08 219.337 1292.59 214.105 Q1294.11 208.851 1294.11 203.504 Q1294.11 198.156 1292.59 192.948 Q1291.08 187.74 1288 182.416 Z" fill="#000000" fill-rule="nonzero" fill-opacity="1" /></svg>
