<?xml version="1.0" encoding="utf-8"?>
<svg xmlns="http://www.w3.org/2000/svg" xmlns:xlink="http://www.w3.org/1999/xlink" width="600" height="400" viewBox="0 0 2400 1600">
<defs>
  <clipPath id="clip580">
    <rect x="0" y="0" width="2400" height="1600"/>
  </clipPath>
</defs>
<path clip-path="url(#clip580)" d="M0 1600 L2400 1600 L2400 8.88178e-14 L0 8.88178e-14  Z" fill="#ffffff" fill-rule="evenodd" fill-opacity="1"/>
<defs>
  <clipPath id="clip581">
    <rect x="480" y="0" width="1681" height="1600"/>
  </clipPath>
</defs>
<path clip-path="url(#clip580)" d="M175.445 1423.18 L2352.76 1423.18 L2352.76 47.2441 L175.445 47.2441  Z" fill="#ffffff" fill-rule="evenodd" fill-opacity="1"/>
<defs>
  <clipPath id="clip582">
    <rect x="175" y="47" width="2178" height="1377"/>
  </clipPath>
</defs>
<polyline clip-path="url(#clip582)" style="stroke:#000000; stroke-linecap:round; stroke-linejoin:round; stroke-width:2; stroke-opacity:0.1; fill:none" points="444.861,1423.18 444.861,47.2441 "/>
<polyline clip-path="url(#clip582)" style="stroke:#000000; stroke-linecap:round; stroke-linejoin:round; stroke-width:2; stroke-opacity:0.1; fill:none" points="734.301,1423.18 734.301,47.2441 "/>
<polyline clip-path="url(#clip582)" style="stroke:#000000; stroke-linecap:round; stroke-linejoin:round; stroke-width:2; stroke-opacity:0.1; fill:none" points="1023.74,1423.18 1023.74,47.2441 "/>
<polyline clip-path="url(#clip582)" style="stroke:#000000; stroke-linecap:round; stroke-linejoin:round; stroke-width:2; stroke-opacity:0.1; fill:none" points="1313.18,1423.18 1313.18,47.2441 "/>
<polyline clip-path="url(#clip582)" style="stroke:#000000; stroke-linecap:round; stroke-linejoin:round; stroke-width:2; stroke-opacity:0.1; fill:none" points="1602.62,1423.18 1602.62,47.2441 "/>
<polyline clip-path="url(#clip582)" style="stroke:#000000; stroke-linecap:round; stroke-linejoin:round; stroke-width:2; stroke-opacity:0.1; fill:none" points="1892.06,1423.18 1892.06,47.2441 "/>
<polyline clip-path="url(#clip582)" style="stroke:#000000; stroke-linecap:round; stroke-linejoin:round; stroke-width:2; stroke-opacity:0.1; fill:none" points="2181.5,1423.18 2181.5,47.2441 "/>
<polyline clip-path="url(#clip582)" style="stroke:#000000; stroke-linecap:round; stroke-linejoin:round; stroke-width:2; stroke-opacity:0.1; fill:none" points="444.861,1423.18 444.861,47.2441 "/>
<polyline clip-path="url(#clip582)" style="stroke:#000000; stroke-linecap:round; stroke-linejoin:round; stroke-width:2; stroke-opacity:0.1; fill:none" points="734.301,1423.18 734.301,47.2441 "/>
<polyline clip-path="url(#clip582)" style="stroke:#000000; stroke-linecap:round; stroke-linejoin:round; stroke-width:2; stroke-opacity:0.1; fill:none" points="1023.74,1423.18 1023.74,47.2441 "/>
<polyline clip-path="url(#clip582)" style="stroke:#000000; stroke-linecap:round; stroke-linejoin:round; stroke-width:2; stroke-opacity:0.1; fill:none" points="1313.18,1423.18 1313.18,47.2441 "/>
<polyline clip-path="url(#clip582)" style="stroke:#000000; stroke-linecap:round; stroke-linejoin:round; stroke-width:2; stroke-opacity:0.1; fill:none" points="1602.62,1423.18 1602.62,47.2441 "/>
<polyline clip-path="url(#clip582)" style="stroke:#000000; stroke-linecap:round; stroke-linejoin:round; stroke-width:2; stroke-opacity:0.1; fill:none" points="1892.06,1423.18 1892.06,47.2441 "/>
<polyline clip-path="url(#clip582)" style="stroke:#000000; stroke-linecap:round; stroke-linejoin:round; stroke-width:2; stroke-opacity:0.1; fill:none" points="2181.5,1423.18 2181.5,47.2441 "/>
<polyline clip-path="url(#clip582)" style="stroke:#000000; stroke-linecap:round; stroke-linejoin:round; stroke-width:2; stroke-opacity:0.1; fill:none" points="175.445,1384.25 2352.76,1384.25 "/>
<polyline clip-path="url(#clip582)" style="stroke:#000000; stroke-linecap:round; stroke-linejoin:round; stroke-width:2; stroke-opacity:0.1; fill:none" points="175.445,1187.84 2352.76,1187.84 "/>
<polyline clip-path="url(#clip582)" style="stroke:#000000; stroke-linecap:round; stroke-linejoin:round; stroke-width:2; stroke-opacity:0.1; fill:none" points="175.445,991.427 2352.76,991.427 "/>
<polyline clip-path="url(#clip582)" style="stroke:#000000; stroke-linecap:round; stroke-linejoin:round; stroke-width:2; stroke-opacity:0.1; fill:none" points="175.445,795.018 2352.76,795.018 "/>
<polyline clip-path="url(#clip582)" style="stroke:#000000; stroke-linecap:round; stroke-linejoin:round; stroke-width:2; stroke-opacity:0.1; fill:none" points="175.445,598.608 2352.76,598.608 "/>
<polyline clip-path="url(#clip582)" style="stroke:#000000; stroke-linecap:round; stroke-linejoin:round; stroke-width:2; stroke-opacity:0.1; fill:none" points="175.445,402.199 2352.76,402.199 "/>
<polyline clip-path="url(#clip582)" style="stroke:#000000; stroke-linecap:round; stroke-linejoin:round; stroke-width:2; stroke-opacity:0.1; fill:none" points="175.445,205.79 2352.76,205.79 "/>
<polyline clip-path="url(#clip582)" style="stroke:#000000; stroke-linecap:round; stroke-linejoin:round; stroke-width:2; stroke-opacity:0.1; fill:none" points="175.445,1384.25 2352.76,1384.25 "/>
<polyline clip-path="url(#clip582)" style="stroke:#000000; stroke-linecap:round; stroke-linejoin:round; stroke-width:2; stroke-opacity:0.1; fill:none" points="175.445,1187.84 2352.76,1187.84 "/>
<polyline clip-path="url(#clip582)" style="stroke:#000000; stroke-linecap:round; stroke-linejoin:round; stroke-width:2; stroke-opacity:0.1; fill:none" points="175.445,991.427 2352.76,991.427 "/>
<polyline clip-path="url(#clip582)" style="stroke:#000000; stroke-linecap:round; stroke-linejoin:round; stroke-width:2; stroke-opacity:0.1; fill:none" points="175.445,795.018 2352.76,795.018 "/>
<polyline clip-path="url(#clip582)" style="stroke:#000000; stroke-linecap:round; stroke-linejoin:round; stroke-width:2; stroke-opacity:0.1; fill:none" points="175.445,598.608 2352.76,598.608 "/>
<polyline clip-path="url(#clip582)" style="stroke:#000000; stroke-linecap:round; stroke-linejoin:round; stroke-width:2; stroke-opacity:0.1; fill:none" points="175.445,402.199 2352.76,402.199 "/>
<polyline clip-path="url(#clip582)" style="stroke:#000000; stroke-linecap:round; stroke-linejoin:round; stroke-width:2; stroke-opacity:0.1; fill:none" points="175.445,205.79 2352.76,205.79 "/>
<polyline clip-path="url(#clip580)" style="stroke:#000000; stroke-linecap:round; stroke-linejoin:round; stroke-width:4; stroke-opacity:1; fill:none" points="175.445,1423.18 2352.76,1423.18 "/>
<polyline clip-path="url(#clip580)" style="stroke:#000000; stroke-linecap:round; stroke-linejoin:round; stroke-width:4; stroke-opacity:1; fill:none" points="175.445,47.2441 2352.76,47.2441 "/>
<polyline clip-path="url(#clip580)" style="stroke:#000000; stroke-linecap:round; stroke-linejoin:round; stroke-width:4; stroke-opacity:1; fill:none" points="444.861,1423.18 444.861,1404.28 "/>
<polyline clip-path="url(#clip580)" style="stroke:#000000; stroke-linecap:round; stroke-linejoin:round; stroke-width:4; stroke-opacity:1; fill:none" points="734.301,1423.18 734.301,1404.28 "/>
<polyline clip-path="url(#clip580)" style="stroke:#000000; stroke-linecap:round; stroke-linejoin:round; stroke-width:4; stroke-opacity:1; fill:none" points="1023.74,1423.18 1023.74,1404.28 "/>
<polyline clip-path="url(#clip580)" style="stroke:#000000; stroke-linecap:round; stroke-linejoin:round; stroke-width:4; stroke-opacity:1; fill:none" points="1313.18,1423.18 1313.18,1404.28 "/>
<polyline clip-path="url(#clip580)" style="stroke:#000000; stroke-linecap:round; stroke-linejoin:round; stroke-width:4; stroke-opacity:1; fill:none" points="1602.62,1423.18 1602.62,1404.28 "/>
<polyline clip-path="url(#clip580)" style="stroke:#000000; stroke-linecap:round; stroke-linejoin:round; stroke-width:4; stroke-opacity:1; fill:none" points="1892.06,1423.18 1892.06,1404.28 "/>
<polyline clip-path="url(#clip580)" style="stroke:#000000; stroke-linecap:round; stroke-linejoin:round; stroke-width:4; stroke-opacity:1; fill:none" points="2181.5,1423.18 2181.5,1404.28 "/>
<polyline clip-path="url(#clip580)" style="stroke:#000000; stroke-linecap:round; stroke-linejoin:round; stroke-width:4; stroke-opacity:1; fill:none" points="444.861,47.2441 444.861,66.1417 "/>
<polyline clip-path="url(#clip580)" style="stroke:#000000; stroke-linecap:round; stroke-linejoin:round; stroke-width:4; stroke-opacity:1; fill:none" points="734.301,47.2441 734.301,66.1417 "/>
<polyline clip-path="url(#clip580)" style="stroke:#000000; stroke-linecap:round; stroke-linejoin:round; stroke-width:4; stroke-opacity:1; fill:none" points="1023.74,47.2441 1023.74,66.1417 "/>
<polyline clip-path="url(#clip580)" style="stroke:#000000; stroke-linecap:round; stroke-linejoin:round; stroke-width:4; stroke-opacity:1; fill:none" points="1313.18,47.2441 1313.18,66.1417 "/>
<polyline clip-path="url(#clip580)" style="stroke:#000000; stroke-linecap:round; stroke-linejoin:round; stroke-width:4; stroke-opacity:1; fill:none" points="1602.62,47.2441 1602.62,66.1417 "/>
<polyline clip-path="url(#clip580)" style="stroke:#000000; stroke-linecap:round; stroke-linejoin:round; stroke-width:4; stroke-opacity:1; fill:none" points="1892.06,47.2441 1892.06,66.1417 "/>
<polyline clip-path="url(#clip580)" style="stroke:#000000; stroke-linecap:round; stroke-linejoin:round; stroke-width:4; stroke-opacity:1; fill:none" points="2181.5,47.2441 2181.5,66.1417 "/>
<path clip-path="url(#clip580)" d="M407.65 1466.44 Q404.502 1466.44 402.651 1468.59 Q400.822 1470.74 400.822 1474.49 Q400.822 1478.22 402.651 1480.39 Q404.502 1482.55 407.65 1482.55 Q410.799 1482.55 412.627 1480.39 Q414.479 1478.22 414.479 1474.49 Q414.479 1470.74 412.627 1468.59 Q410.799 1466.44 407.65 1466.44 M416.933 1451.78 L416.933 1456.04 Q415.174 1455.21 413.368 1454.77 Q411.586 1454.33 409.826 1454.33 Q405.197 1454.33 402.743 1457.45 Q400.313 1460.58 399.965 1466.9 Q401.331 1464.89 403.391 1463.82 Q405.451 1462.73 407.928 1462.73 Q413.137 1462.73 416.146 1465.9 Q419.178 1469.05 419.178 1474.49 Q419.178 1479.82 416.03 1483.03 Q412.882 1486.25 407.65 1486.25 Q401.655 1486.25 398.484 1481.67 Q395.313 1477.06 395.313 1468.33 Q395.313 1460.14 399.201 1455.28 Q403.09 1450.39 409.641 1450.39 Q411.4 1450.39 413.183 1450.74 Q414.988 1451.09 416.933 1451.78 Z" fill="#000000" fill-rule="nonzero" fill-opacity="1" /><path clip-path="url(#clip580)" d="M427.28 1451.02 L445.636 1451.02 L445.636 1454.96 L431.562 1454.96 L431.562 1463.43 Q432.581 1463.08 433.599 1462.92 Q434.618 1462.73 435.636 1462.73 Q441.423 1462.73 444.803 1465.9 Q448.183 1469.08 448.183 1474.49 Q448.183 1480.07 444.71 1483.17 Q441.238 1486.25 434.919 1486.25 Q432.743 1486.25 430.474 1485.88 Q428.229 1485.51 425.822 1484.77 L425.822 1480.07 Q427.905 1481.2 430.127 1481.76 Q432.349 1482.32 434.826 1482.32 Q438.831 1482.32 441.169 1480.21 Q443.507 1478.1 443.507 1474.49 Q443.507 1470.88 441.169 1468.77 Q438.831 1466.67 434.826 1466.67 Q432.951 1466.67 431.076 1467.08 Q429.224 1467.5 427.28 1468.38 L427.28 1451.02 Z" fill="#000000" fill-rule="nonzero" fill-opacity="1" /><path clip-path="url(#clip580)" d="M457.396 1479.7 L462.28 1479.7 L462.28 1485.58 L457.396 1485.58 L457.396 1479.7 Z" fill="#000000" fill-rule="nonzero" fill-opacity="1" /><path clip-path="url(#clip580)" d="M482.465 1454.1 Q478.854 1454.1 477.025 1457.66 Q475.22 1461.2 475.22 1468.33 Q475.22 1475.44 477.025 1479.01 Q478.854 1482.55 482.465 1482.55 Q486.099 1482.55 487.905 1479.01 Q489.733 1475.44 489.733 1468.33 Q489.733 1461.2 487.905 1457.66 Q486.099 1454.1 482.465 1454.1 M482.465 1450.39 Q488.275 1450.39 491.331 1455 Q494.409 1459.58 494.409 1468.33 Q494.409 1477.06 491.331 1481.67 Q488.275 1486.25 482.465 1486.25 Q476.655 1486.25 473.576 1481.67 Q470.521 1477.06 470.521 1468.33 Q470.521 1459.58 473.576 1455 Q476.655 1450.39 482.465 1450.39 Z" fill="#000000" fill-rule="nonzero" fill-opacity="1" /><path clip-path="url(#clip580)" d="M697.889 1466.44 Q694.741 1466.44 692.889 1468.59 Q691.06 1470.74 691.06 1474.49 Q691.06 1478.22 692.889 1480.39 Q694.741 1482.55 697.889 1482.55 Q701.037 1482.55 702.866 1480.39 Q704.717 1478.22 704.717 1474.49 Q704.717 1470.74 702.866 1468.59 Q701.037 1466.44 697.889 1466.44 M707.171 1451.78 L707.171 1456.04 Q705.412 1455.21 703.606 1454.77 Q701.824 1454.33 700.065 1454.33 Q695.435 1454.33 692.981 1457.45 Q690.551 1460.58 690.204 1466.9 Q691.569 1464.89 693.63 1463.82 Q695.69 1462.73 698.167 1462.73 Q703.375 1462.73 706.384 1465.9 Q709.417 1469.05 709.417 1474.49 Q709.417 1479.82 706.268 1483.03 Q703.12 1486.25 697.889 1486.25 Q691.893 1486.25 688.722 1481.67 Q685.551 1477.06 685.551 1468.33 Q685.551 1460.14 689.44 1455.28 Q693.329 1450.39 699.88 1450.39 Q701.639 1450.39 703.421 1450.74 Q705.227 1451.09 707.171 1451.78 Z" fill="#000000" fill-rule="nonzero" fill-opacity="1" /><path clip-path="url(#clip580)" d="M717.518 1451.02 L735.875 1451.02 L735.875 1454.96 L721.801 1454.96 L721.801 1463.43 Q722.819 1463.08 723.838 1462.92 Q724.856 1462.73 725.875 1462.73 Q731.662 1462.73 735.041 1465.9 Q738.421 1469.08 738.421 1474.49 Q738.421 1480.07 734.949 1483.17 Q731.477 1486.25 725.157 1486.25 Q722.981 1486.25 720.713 1485.88 Q718.467 1485.51 716.06 1484.77 L716.06 1480.07 Q718.143 1481.2 720.366 1481.76 Q722.588 1482.32 725.065 1482.32 Q729.069 1482.32 731.407 1480.21 Q733.745 1478.1 733.745 1474.49 Q733.745 1470.88 731.407 1468.77 Q729.069 1466.67 725.065 1466.67 Q723.19 1466.67 721.315 1467.08 Q719.463 1467.5 717.518 1468.38 L717.518 1451.02 Z" fill="#000000" fill-rule="nonzero" fill-opacity="1" /><path clip-path="url(#clip580)" d="M747.634 1479.7 L752.518 1479.7 L752.518 1485.58 L747.634 1485.58 L747.634 1479.7 Z" fill="#000000" fill-rule="nonzero" fill-opacity="1" /><path clip-path="url(#clip580)" d="M766.731 1481.64 L783.05 1481.64 L783.05 1485.58 L761.106 1485.58 L761.106 1481.64 Q763.768 1478.89 768.351 1474.26 Q772.958 1469.61 774.138 1468.27 Q776.384 1465.74 777.263 1464.01 Q778.166 1462.25 778.166 1460.56 Q778.166 1457.8 776.222 1456.07 Q774.3 1454.33 771.199 1454.33 Q769 1454.33 766.546 1455.09 Q764.115 1455.86 761.338 1457.41 L761.338 1452.69 Q764.162 1451.55 766.615 1450.97 Q769.069 1450.39 771.106 1450.39 Q776.476 1450.39 779.671 1453.08 Q782.865 1455.77 782.865 1460.26 Q782.865 1462.39 782.055 1464.31 Q781.268 1466.2 779.162 1468.8 Q778.583 1469.47 775.481 1472.69 Q772.379 1475.88 766.731 1481.64 Z" fill="#000000" fill-rule="nonzero" fill-opacity="1" /><path clip-path="url(#clip580)" d="M986.287 1466.44 Q983.139 1466.44 981.287 1468.59 Q979.458 1470.74 979.458 1474.49 Q979.458 1478.22 981.287 1480.39 Q983.139 1482.55 986.287 1482.55 Q989.435 1482.55 991.264 1480.39 Q993.116 1478.22 993.116 1474.49 Q993.116 1470.74 991.264 1468.59 Q989.435 1466.44 986.287 1466.44 M995.569 1451.78 L995.569 1456.04 Q993.81 1455.21 992.004 1454.77 Q990.222 1454.33 988.463 1454.33 Q983.833 1454.33 981.379 1457.45 Q978.949 1460.58 978.602 1466.9 Q979.967 1464.89 982.028 1463.82 Q984.088 1462.73 986.565 1462.73 Q991.773 1462.73 994.782 1465.9 Q997.815 1469.05 997.815 1474.49 Q997.815 1479.82 994.666 1483.03 Q991.518 1486.25 986.287 1486.25 Q980.291 1486.25 977.12 1481.67 Q973.949 1477.06 973.949 1468.33 Q973.949 1460.14 977.838 1455.28 Q981.727 1450.39 988.278 1450.39 Q990.037 1450.39 991.819 1450.74 Q993.625 1451.09 995.569 1451.78 Z" fill="#000000" fill-rule="nonzero" fill-opacity="1" /><path clip-path="url(#clip580)" d="M1005.92 1451.02 L1024.27 1451.02 L1024.27 1454.96 L1010.2 1454.96 L1010.2 1463.43 Q1011.22 1463.08 1012.24 1462.92 Q1013.25 1462.73 1014.27 1462.73 Q1020.06 1462.73 1023.44 1465.9 Q1026.82 1469.08 1026.82 1474.49 Q1026.82 1480.07 1023.35 1483.17 Q1019.87 1486.25 1013.56 1486.25 Q1011.38 1486.25 1009.11 1485.88 Q1006.87 1485.51 1004.46 1484.77 L1004.46 1480.07 Q1006.54 1481.2 1008.76 1481.76 Q1010.99 1482.32 1013.46 1482.32 Q1017.47 1482.32 1019.81 1480.21 Q1022.14 1478.1 1022.14 1474.49 Q1022.14 1470.88 1019.81 1468.77 Q1017.47 1466.67 1013.46 1466.67 Q1011.59 1466.67 1009.71 1467.08 Q1007.86 1467.5 1005.92 1468.38 L1005.92 1451.02 Z" fill="#000000" fill-rule="nonzero" fill-opacity="1" /><path clip-path="url(#clip580)" d="M1036.03 1479.7 L1040.92 1479.7 L1040.92 1485.58 L1036.03 1485.58 L1036.03 1479.7 Z" fill="#000000" fill-rule="nonzero" fill-opacity="1" /><path clip-path="url(#clip580)" d="M1063.95 1455.09 L1052.14 1473.54 L1063.95 1473.54 L1063.95 1455.09 M1062.72 1451.02 L1068.6 1451.02 L1068.6 1473.54 L1073.53 1473.54 L1073.53 1477.43 L1068.6 1477.43 L1068.6 1485.58 L1063.95 1485.58 L1063.95 1477.43 L1048.35 1477.43 L1048.35 1472.92 L1062.72 1451.02 Z" fill="#000000" fill-rule="nonzero" fill-opacity="1" /><path clip-path="url(#clip580)" d="M1275.89 1466.44 Q1272.74 1466.44 1270.89 1468.59 Q1269.06 1470.74 1269.06 1474.49 Q1269.06 1478.22 1270.89 1480.39 Q1272.74 1482.55 1275.89 1482.55 Q1279.04 1482.55 1280.87 1480.39 Q1282.72 1478.22 1282.72 1474.49 Q1282.72 1470.74 1280.87 1468.59 Q1279.04 1466.44 1275.89 1466.44 M1285.17 1451.78 L1285.17 1456.04 Q1283.41 1455.21 1281.61 1454.77 Q1279.82 1454.33 1278.06 1454.33 Q1273.43 1454.33 1270.98 1457.45 Q1268.55 1460.58 1268.2 1466.9 Q1269.57 1464.89 1271.63 1463.82 Q1273.69 1462.73 1276.17 1462.73 Q1281.37 1462.73 1284.38 1465.9 Q1287.42 1469.05 1287.42 1474.49 Q1287.42 1479.82 1284.27 1483.03 Q1281.12 1486.25 1275.89 1486.25 Q1269.89 1486.25 1266.72 1481.67 Q1263.55 1477.06 1263.55 1468.33 Q1263.55 1460.14 1267.44 1455.28 Q1271.33 1450.39 1277.88 1450.39 Q1279.64 1450.39 1281.42 1450.74 Q1283.23 1451.09 1285.17 1451.78 Z" fill="#000000" fill-rule="nonzero" fill-opacity="1" /><path clip-path="url(#clip580)" d="M1295.52 1451.02 L1313.87 1451.02 L1313.87 1454.96 L1299.8 1454.96 L1299.8 1463.43 Q1300.82 1463.08 1301.84 1462.92 Q1302.86 1462.73 1303.87 1462.73 Q1309.66 1462.73 1313.04 1465.9 Q1316.42 1469.08 1316.42 1474.49 Q1316.42 1480.07 1312.95 1483.17 Q1309.48 1486.25 1303.16 1486.25 Q1300.98 1486.25 1298.71 1485.88 Q1296.47 1485.51 1294.06 1484.77 L1294.06 1480.07 Q1296.14 1481.2 1298.37 1481.76 Q1300.59 1482.32 1303.06 1482.32 Q1307.07 1482.32 1309.41 1480.21 Q1311.74 1478.1 1311.74 1474.49 Q1311.74 1470.88 1309.41 1468.77 Q1307.07 1466.67 1303.06 1466.67 Q1301.19 1466.67 1299.31 1467.08 Q1297.46 1467.5 1295.52 1468.38 L1295.52 1451.02 Z" fill="#000000" fill-rule="nonzero" fill-opacity="1" /><path clip-path="url(#clip580)" d="M1325.63 1479.7 L1330.52 1479.7 L1330.52 1485.58 L1325.63 1485.58 L1325.63 1479.7 Z" fill="#000000" fill-rule="nonzero" fill-opacity="1" /><path clip-path="url(#clip580)" d="M1351.28 1466.44 Q1348.13 1466.44 1346.28 1468.59 Q1344.45 1470.74 1344.45 1474.49 Q1344.45 1478.22 1346.28 1480.39 Q1348.13 1482.55 1351.28 1482.55 Q1354.43 1482.55 1356.26 1480.39 Q1358.11 1478.22 1358.11 1474.49 Q1358.11 1470.74 1356.26 1468.59 Q1354.43 1466.44 1351.28 1466.44 M1360.56 1451.78 L1360.56 1456.04 Q1358.8 1455.21 1357 1454.77 Q1355.22 1454.33 1353.46 1454.33 Q1348.83 1454.33 1346.37 1457.45 Q1343.94 1460.58 1343.6 1466.9 Q1344.96 1464.89 1347.02 1463.82 Q1349.08 1462.73 1351.56 1462.73 Q1356.77 1462.73 1359.78 1465.9 Q1362.81 1469.05 1362.81 1474.49 Q1362.81 1479.82 1359.66 1483.03 Q1356.51 1486.25 1351.28 1486.25 Q1345.29 1486.25 1342.12 1481.67 Q1338.94 1477.06 1338.94 1468.33 Q1338.94 1460.14 1342.83 1455.28 Q1346.72 1450.39 1353.27 1450.39 Q1355.03 1450.39 1356.81 1450.74 Q1358.62 1451.09 1360.56 1451.78 Z" fill="#000000" fill-rule="nonzero" fill-opacity="1" /><path clip-path="url(#clip580)" d="M1565.46 1466.44 Q1562.31 1466.44 1560.46 1468.59 Q1558.63 1470.74 1558.63 1474.49 Q1558.63 1478.22 1560.46 1480.39 Q1562.31 1482.55 1565.46 1482.55 Q1568.6 1482.55 1570.43 1480.39 Q1572.28 1478.22 1572.28 1474.49 Q1572.28 1470.74 1570.43 1468.59 Q1568.6 1466.44 1565.46 1466.44 M1574.74 1451.78 L1574.74 1456.04 Q1572.98 1455.21 1571.17 1454.77 Q1569.39 1454.33 1567.63 1454.33 Q1563 1454.33 1560.55 1457.45 Q1558.12 1460.58 1557.77 1466.9 Q1559.14 1464.89 1561.2 1463.82 Q1563.26 1462.73 1565.73 1462.73 Q1570.94 1462.73 1573.95 1465.9 Q1576.98 1469.05 1576.98 1474.49 Q1576.98 1479.82 1573.84 1483.03 Q1570.69 1486.25 1565.46 1486.25 Q1559.46 1486.25 1556.29 1481.67 Q1553.12 1477.06 1553.12 1468.33 Q1553.12 1460.14 1557.01 1455.28 Q1560.9 1450.39 1567.45 1450.39 Q1569.21 1450.39 1570.99 1450.74 Q1572.79 1451.09 1574.74 1451.78 Z" fill="#000000" fill-rule="nonzero" fill-opacity="1" /><path clip-path="url(#clip580)" d="M1585.09 1451.02 L1603.44 1451.02 L1603.44 1454.96 L1589.37 1454.96 L1589.37 1463.43 Q1590.39 1463.08 1591.4 1462.92 Q1592.42 1462.73 1593.44 1462.73 Q1599.23 1462.73 1602.61 1465.9 Q1605.99 1469.08 1605.99 1474.49 Q1605.99 1480.07 1602.52 1483.17 Q1599.04 1486.25 1592.72 1486.25 Q1590.55 1486.25 1588.28 1485.88 Q1586.03 1485.51 1583.63 1484.77 L1583.63 1480.07 Q1585.71 1481.2 1587.93 1481.76 Q1590.15 1482.32 1592.63 1482.32 Q1596.64 1482.32 1598.97 1480.21 Q1601.31 1478.1 1601.31 1474.49 Q1601.31 1470.88 1598.97 1468.77 Q1596.64 1466.67 1592.63 1466.67 Q1590.76 1466.67 1588.88 1467.08 Q1587.03 1467.5 1585.09 1468.38 L1585.09 1451.02 Z" fill="#000000" fill-rule="nonzero" fill-opacity="1" /><path clip-path="url(#clip580)" d="M1615.2 1479.7 L1620.08 1479.7 L1620.08 1485.58 L1615.2 1485.58 L1615.2 1479.7 Z" fill="#000000" fill-rule="nonzero" fill-opacity="1" /><path clip-path="url(#clip580)" d="M1640.27 1469.17 Q1636.94 1469.17 1635.02 1470.95 Q1633.12 1472.73 1633.12 1475.86 Q1633.12 1478.98 1635.02 1480.77 Q1636.94 1482.55 1640.27 1482.55 Q1643.6 1482.55 1645.52 1480.77 Q1647.45 1478.96 1647.45 1475.86 Q1647.45 1472.73 1645.52 1470.95 Q1643.63 1469.17 1640.27 1469.17 M1635.59 1467.18 Q1632.58 1466.44 1630.9 1464.38 Q1629.23 1462.32 1629.23 1459.35 Q1629.23 1455.21 1632.17 1452.8 Q1635.13 1450.39 1640.27 1450.39 Q1645.43 1450.39 1648.37 1452.8 Q1651.31 1455.21 1651.31 1459.35 Q1651.31 1462.32 1649.62 1464.38 Q1647.96 1466.44 1644.97 1467.18 Q1648.35 1467.96 1650.22 1470.26 Q1652.12 1472.55 1652.12 1475.86 Q1652.12 1480.88 1649.04 1483.57 Q1645.99 1486.25 1640.27 1486.25 Q1634.55 1486.25 1631.47 1483.57 Q1628.42 1480.88 1628.42 1475.86 Q1628.42 1472.55 1630.32 1470.26 Q1632.21 1467.96 1635.59 1467.18 M1633.88 1459.79 Q1633.88 1462.48 1635.55 1463.98 Q1637.24 1465.49 1640.27 1465.49 Q1643.28 1465.49 1644.97 1463.98 Q1646.68 1462.48 1646.68 1459.79 Q1646.68 1457.11 1644.97 1455.6 Q1643.28 1454.1 1640.27 1454.1 Q1637.24 1454.1 1635.55 1455.6 Q1633.88 1457.11 1633.88 1459.79 Z" fill="#000000" fill-rule="nonzero" fill-opacity="1" /><path clip-path="url(#clip580)" d="M1854.85 1466.44 Q1851.7 1466.44 1849.85 1468.59 Q1848.02 1470.74 1848.02 1474.49 Q1848.02 1478.22 1849.85 1480.39 Q1851.7 1482.55 1854.85 1482.55 Q1858 1482.55 1859.83 1480.39 Q1861.68 1478.22 1861.68 1474.49 Q1861.68 1470.74 1859.83 1468.59 Q1858 1466.44 1854.85 1466.44 M1864.13 1451.78 L1864.13 1456.04 Q1862.37 1455.21 1860.57 1454.77 Q1858.78 1454.33 1857.02 1454.33 Q1852.4 1454.33 1849.94 1457.45 Q1847.51 1460.58 1847.16 1466.9 Q1848.53 1464.89 1850.59 1463.82 Q1852.65 1462.73 1855.13 1462.73 Q1860.34 1462.73 1863.34 1465.9 Q1866.38 1469.05 1866.38 1474.49 Q1866.38 1479.82 1863.23 1483.03 Q1860.08 1486.25 1854.85 1486.25 Q1848.85 1486.25 1845.68 1481.67 Q1842.51 1477.06 1842.51 1468.33 Q1842.51 1460.14 1846.4 1455.28 Q1850.29 1450.39 1856.84 1450.39 Q1858.6 1450.39 1860.38 1450.74 Q1862.19 1451.09 1864.13 1451.78 Z" fill="#000000" fill-rule="nonzero" fill-opacity="1" /><path clip-path="url(#clip580)" d="M1885.01 1466.44 Q1881.86 1466.44 1880.01 1468.59 Q1878.18 1470.74 1878.18 1474.49 Q1878.18 1478.22 1880.01 1480.39 Q1881.86 1482.55 1885.01 1482.55 Q1888.16 1482.55 1889.99 1480.39 Q1891.84 1478.22 1891.84 1474.49 Q1891.84 1470.74 1889.99 1468.59 Q1888.16 1466.44 1885.01 1466.44 M1894.29 1451.78 L1894.29 1456.04 Q1892.53 1455.21 1890.73 1454.77 Q1888.95 1454.33 1887.19 1454.33 Q1882.56 1454.33 1880.1 1457.45 Q1877.67 1460.58 1877.33 1466.9 Q1878.69 1464.89 1880.75 1463.82 Q1882.81 1462.73 1885.29 1462.73 Q1890.5 1462.73 1893.51 1465.9 Q1896.54 1469.05 1896.54 1474.49 Q1896.54 1479.82 1893.39 1483.03 Q1890.24 1486.25 1885.01 1486.25 Q1879.02 1486.25 1875.84 1481.67 Q1872.67 1477.06 1872.67 1468.33 Q1872.67 1460.14 1876.56 1455.28 Q1880.45 1450.39 1887 1450.39 Q1888.76 1450.39 1890.54 1450.74 Q1892.35 1451.09 1894.29 1451.78 Z" fill="#000000" fill-rule="nonzero" fill-opacity="1" /><path clip-path="url(#clip580)" d="M1904.59 1479.7 L1909.48 1479.7 L1909.48 1485.58 L1904.59 1485.58 L1904.59 1479.7 Z" fill="#000000" fill-rule="nonzero" fill-opacity="1" /><path clip-path="url(#clip580)" d="M1929.66 1454.1 Q1926.05 1454.1 1924.22 1457.66 Q1922.42 1461.2 1922.42 1468.33 Q1922.42 1475.44 1924.22 1479.01 Q1926.05 1482.55 1929.66 1482.55 Q1933.3 1482.55 1935.1 1479.01 Q1936.93 1475.44 1936.93 1468.33 Q1936.93 1461.2 1935.1 1457.66 Q1933.3 1454.1 1929.66 1454.1 M1929.66 1450.39 Q1935.47 1450.39 1938.53 1455 Q1941.61 1459.58 1941.61 1468.33 Q1941.61 1477.06 1938.53 1481.67 Q1935.47 1486.25 1929.66 1486.25 Q1923.85 1486.25 1920.77 1481.67 Q1917.72 1477.06 1917.72 1468.33 Q1917.72 1459.58 1920.77 1455 Q1923.85 1450.39 1929.66 1450.39 Z" fill="#000000" fill-rule="nonzero" fill-opacity="1" /><path clip-path="url(#clip580)" d="M2145.09 1466.44 Q2141.94 1466.44 2140.09 1468.59 Q2138.26 1470.74 2138.26 1474.49 Q2138.26 1478.22 2140.09 1480.39 Q2141.94 1482.55 2145.09 1482.55 Q2148.24 1482.55 2150.06 1480.39 Q2151.92 1478.22 2151.92 1474.49 Q2151.92 1470.74 2150.06 1468.59 Q2148.24 1466.44 2145.09 1466.44 M2154.37 1451.78 L2154.37 1456.04 Q2152.61 1455.21 2150.8 1454.77 Q2149.02 1454.33 2147.26 1454.33 Q2142.63 1454.33 2140.18 1457.45 Q2137.75 1460.58 2137.4 1466.9 Q2138.77 1464.89 2140.83 1463.82 Q2142.89 1462.73 2145.37 1462.73 Q2150.57 1462.73 2153.58 1465.9 Q2156.61 1469.05 2156.61 1474.49 Q2156.61 1479.82 2153.47 1483.03 Q2150.32 1486.25 2145.09 1486.25 Q2139.09 1486.25 2135.92 1481.67 Q2132.75 1477.06 2132.75 1468.33 Q2132.75 1460.14 2136.64 1455.28 Q2140.53 1450.39 2147.08 1450.39 Q2148.84 1450.39 2150.62 1450.74 Q2152.43 1451.09 2154.37 1451.78 Z" fill="#000000" fill-rule="nonzero" fill-opacity="1" /><path clip-path="url(#clip580)" d="M2175.25 1466.44 Q2172.1 1466.44 2170.25 1468.59 Q2168.42 1470.74 2168.42 1474.49 Q2168.42 1478.22 2170.25 1480.39 Q2172.1 1482.55 2175.25 1482.55 Q2178.4 1482.55 2180.23 1480.39 Q2182.08 1478.22 2182.08 1474.49 Q2182.08 1470.74 2180.23 1468.59 Q2178.4 1466.44 2175.25 1466.44 M2184.53 1451.78 L2184.53 1456.04 Q2182.77 1455.21 2180.97 1454.77 Q2179.18 1454.33 2177.43 1454.33 Q2172.8 1454.33 2170.34 1457.45 Q2167.91 1460.58 2167.56 1466.9 Q2168.93 1464.89 2170.99 1463.82 Q2173.05 1462.73 2175.53 1462.73 Q2180.74 1462.73 2183.74 1465.9 Q2186.78 1469.05 2186.78 1474.49 Q2186.78 1479.82 2183.63 1483.03 Q2180.48 1486.25 2175.25 1486.25 Q2169.25 1486.25 2166.08 1481.67 Q2162.91 1477.06 2162.91 1468.33 Q2162.91 1460.14 2166.8 1455.28 Q2170.69 1450.39 2177.24 1450.39 Q2179 1450.39 2180.78 1450.74 Q2182.59 1451.09 2184.53 1451.78 Z" fill="#000000" fill-rule="nonzero" fill-opacity="1" /><path clip-path="url(#clip580)" d="M2194.83 1479.7 L2199.72 1479.7 L2199.72 1485.58 L2194.83 1485.58 L2194.83 1479.7 Z" fill="#000000" fill-rule="nonzero" fill-opacity="1" /><path clip-path="url(#clip580)" d="M2213.93 1481.64 L2230.25 1481.64 L2230.25 1485.58 L2208.3 1485.58 L2208.3 1481.64 Q2210.97 1478.89 2215.55 1474.26 Q2220.16 1469.61 2221.34 1468.27 Q2223.58 1465.74 2224.46 1464.01 Q2225.36 1462.25 2225.36 1460.56 Q2225.36 1457.8 2223.42 1456.07 Q2221.5 1454.33 2218.4 1454.33 Q2216.2 1454.33 2213.74 1455.09 Q2211.31 1455.86 2208.54 1457.41 L2208.54 1452.69 Q2211.36 1451.55 2213.81 1450.97 Q2216.27 1450.39 2218.3 1450.39 Q2223.67 1450.39 2226.87 1453.08 Q2230.06 1455.77 2230.06 1460.26 Q2230.06 1462.39 2229.25 1464.31 Q2228.47 1466.2 2226.36 1468.8 Q2225.78 1469.47 2222.68 1472.69 Q2219.58 1475.88 2213.93 1481.64 Z" fill="#000000" fill-rule="nonzero" fill-opacity="1" /><path clip-path="url(#clip580)" d="M1142.01 1526.86 L1133.29 1550.51 L1150.76 1550.51 L1142.01 1526.86 M1138.38 1520.52 L1145.67 1520.52 L1163.78 1568.04 L1157.09 1568.04 L1152.76 1555.85 L1131.34 1555.85 L1127.02 1568.04 L1120.24 1568.04 L1138.38 1520.52 Z" fill="#000000" fill-rule="nonzero" fill-opacity="1" /><path clip-path="url(#clip580)" d="M1193.92 1549.81 Q1193.92 1543.44 1191.28 1539.94 Q1188.67 1536.44 1183.92 1536.44 Q1179.21 1536.44 1176.57 1539.94 Q1173.96 1543.44 1173.96 1549.81 Q1173.96 1556.14 1176.57 1559.64 Q1179.21 1563.14 1183.92 1563.14 Q1188.67 1563.14 1191.28 1559.64 Q1193.92 1556.14 1193.92 1549.81 M1199.78 1563.62 Q1199.78 1572.72 1195.73 1577.15 Q1191.69 1581.6 1183.35 1581.6 Q1180.26 1581.6 1177.53 1581.13 Q1174.79 1580.68 1172.21 1579.72 L1172.21 1574.03 Q1174.79 1575.43 1177.3 1576.1 Q1179.82 1576.76 1182.43 1576.76 Q1188.19 1576.76 1191.05 1573.74 Q1193.92 1570.75 1193.92 1564.67 L1193.92 1561.77 Q1192.1 1564.92 1189.27 1566.48 Q1186.44 1568.04 1182.49 1568.04 Q1175.94 1568.04 1171.93 1563.05 Q1167.91 1558.05 1167.91 1549.81 Q1167.91 1541.53 1171.93 1536.53 Q1175.94 1531.54 1182.49 1531.54 Q1186.44 1531.54 1189.27 1533.1 Q1192.1 1534.66 1193.92 1537.81 L1193.92 1532.4 L1199.78 1532.4 L1199.78 1563.62 Z" fill="#000000" fill-rule="nonzero" fill-opacity="1" /><path clip-path="url(#clip580)" d="M1242.33 1548.76 L1242.33 1551.62 L1215.4 1551.62 Q1215.78 1557.67 1219.03 1560.85 Q1222.31 1564 1228.13 1564 Q1231.51 1564 1234.66 1563.17 Q1237.84 1562.35 1240.96 1560.69 L1240.96 1566.23 Q1237.81 1567.57 1234.5 1568.27 Q1231.19 1568.97 1227.78 1568.97 Q1219.25 1568.97 1214.26 1564 Q1209.29 1559.04 1209.29 1550.57 Q1209.29 1541.82 1214 1536.69 Q1218.74 1531.54 1226.77 1531.54 Q1233.96 1531.54 1238.13 1536.18 Q1242.33 1540.8 1242.33 1548.76 M1236.47 1547.04 Q1236.41 1542.23 1233.77 1539.37 Q1231.16 1536.5 1226.83 1536.5 Q1221.93 1536.5 1218.97 1539.27 Q1216.04 1542.04 1215.59 1547.07 L1236.47 1547.04 Z" fill="#000000" fill-rule="nonzero" fill-opacity="1" /><path clip-path="url(#clip580)" d="M1286.73 1518.58 Q1282.47 1525.9 1280.4 1533.06 Q1278.33 1540.23 1278.33 1547.58 Q1278.33 1554.93 1280.4 1562.16 Q1282.5 1569.35 1286.73 1576.64 L1281.64 1576.64 Q1276.86 1569.16 1274.48 1561.93 Q1272.12 1554.71 1272.12 1547.58 Q1272.12 1540.48 1274.48 1533.29 Q1276.83 1526.09 1281.64 1518.58 L1286.73 1518.58 Z" fill="#000000" fill-rule="nonzero" fill-opacity="1" /><path clip-path="url(#clip580)" d="M1298.35 1520.52 L1307.93 1520.52 L1320.06 1552.86 L1332.25 1520.52 L1341.83 1520.52 L1341.83 1568.04 L1335.56 1568.04 L1335.56 1526.32 L1323.3 1558.91 L1316.84 1558.91 L1304.59 1526.32 L1304.59 1568.04 L1298.35 1568.04 L1298.35 1520.52 Z" fill="#000000" fill-rule="nonzero" fill-opacity="1" /><path clip-path="url(#clip580)" d="M1370.54 1550.12 Q1363.44 1550.12 1360.7 1551.75 Q1357.96 1553.37 1357.96 1557.29 Q1357.96 1560.4 1360 1562.25 Q1362.07 1564.07 1365.6 1564.07 Q1370.47 1564.07 1373.4 1560.63 Q1376.36 1557.16 1376.36 1551.43 L1376.36 1550.12 L1370.54 1550.12 M1382.22 1547.71 L1382.22 1568.04 L1376.36 1568.04 L1376.36 1562.63 Q1374.35 1565.88 1371.36 1567.44 Q1368.37 1568.97 1364.04 1568.97 Q1358.57 1568.97 1355.32 1565.91 Q1352.11 1562.82 1352.11 1557.67 Q1352.11 1551.65 1356.12 1548.6 Q1360.16 1545.54 1368.15 1545.54 L1376.36 1545.54 L1376.36 1544.97 Q1376.36 1540.93 1373.69 1538.73 Q1371.04 1536.5 1366.24 1536.5 Q1363.18 1536.5 1360.29 1537.23 Q1357.39 1537.97 1354.72 1539.43 L1354.72 1534.02 Q1357.93 1532.78 1360.95 1532.17 Q1363.98 1531.54 1366.84 1531.54 Q1374.58 1531.54 1378.4 1535.55 Q1382.22 1539.56 1382.22 1547.71 Z" fill="#000000" fill-rule="nonzero" fill-opacity="1" /><path clip-path="url(#clip580)" d="M1393.36 1518.58 L1398.45 1518.58 Q1403.22 1526.09 1405.58 1533.29 Q1407.97 1540.48 1407.97 1547.58 Q1407.97 1554.71 1405.58 1561.93 Q1403.22 1569.16 1398.45 1576.64 L1393.36 1576.64 Q1397.59 1569.35 1399.66 1562.16 Q1401.76 1554.93 1401.76 1547.58 Q1401.76 1540.23 1399.66 1533.06 Q1397.59 1525.9 1393.36 1518.58 Z" fill="#000000" fill-rule="nonzero" fill-opacity="1" /><polyline clip-path="url(#clip580)" style="stroke:#000000; stroke-linecap:round; stroke-linejoin:round; stroke-width:4; stroke-opacity:1; fill:none" points="175.445,1423.18 175.445,47.2441 "/>
<polyline clip-path="url(#clip580)" style="stroke:#000000; stroke-linecap:round; stroke-linejoin:round; stroke-width:4; stroke-opacity:1; fill:none" points="2352.76,1423.18 2352.76,47.2441 "/>
<polyline clip-path="url(#clip580)" style="stroke:#000000; stroke-linecap:round; stroke-linejoin:round; stroke-width:4; stroke-opacity:1; fill:none" points="175.445,1384.25 194.343,1384.25 "/>
<polyline clip-path="url(#clip580)" style="stroke:#000000; stroke-linecap:round; stroke-linejoin:round; stroke-width:4; stroke-opacity:1; fill:none" points="175.445,1187.84 194.343,1187.84 "/>
<polyline clip-path="url(#clip580)" style="stroke:#000000; stroke-linecap:round; stroke-linejoin:round; stroke-width:4; stroke-opacity:1; fill:none" points="175.445,991.427 194.343,991.427 "/>
<polyline clip-path="url(#clip580)" style="stroke:#000000; stroke-linecap:round; stroke-linejoin:round; stroke-width:4; stroke-opacity:1; fill:none" points="175.445,795.018 194.343,795.018 "/>
<polyline clip-path="url(#clip580)" style="stroke:#000000; stroke-linecap:round; stroke-linejoin:round; stroke-width:4; stroke-opacity:1; fill:none" points="175.445,598.608 194.343,598.608 "/>
<polyline clip-path="url(#clip580)" style="stroke:#000000; stroke-linecap:round; stroke-linejoin:round; stroke-width:4; stroke-opacity:1; fill:none" points="175.445,402.199 194.343,402.199 "/>
<polyline clip-path="url(#clip580)" style="stroke:#000000; stroke-linecap:round; stroke-linejoin:round; stroke-width:4; stroke-opacity:1; fill:none" points="175.445,205.79 194.343,205.79 "/>
<polyline clip-path="url(#clip580)" style="stroke:#000000; stroke-linecap:round; stroke-linejoin:round; stroke-width:4; stroke-opacity:1; fill:none" points="2352.76,1384.25 2333.86,1384.25 "/>
<polyline clip-path="url(#clip580)" style="stroke:#000000; stroke-linecap:round; stroke-linejoin:round; stroke-width:4; stroke-opacity:1; fill:none" points="2352.76,1187.84 2333.86,1187.84 "/>
<polyline clip-path="url(#clip580)" style="stroke:#000000; stroke-linecap:round; stroke-linejoin:round; stroke-width:4; stroke-opacity:1; fill:none" points="2352.76,991.427 2333.86,991.427 "/>
<polyline clip-path="url(#clip580)" style="stroke:#000000; stroke-linecap:round; stroke-linejoin:round; stroke-width:4; stroke-opacity:1; fill:none" points="2352.76,795.018 2333.86,795.018 "/>
<polyline clip-path="url(#clip580)" style="stroke:#000000; stroke-linecap:round; stroke-linejoin:round; stroke-width:4; stroke-opacity:1; fill:none" points="2352.76,598.608 2333.86,598.608 "/>
<polyline clip-path="url(#clip580)" style="stroke:#000000; stroke-linecap:round; stroke-linejoin:round; stroke-width:4; stroke-opacity:1; fill:none" points="2352.76,402.199 2333.86,402.199 "/>
<polyline clip-path="url(#clip580)" style="stroke:#000000; stroke-linecap:round; stroke-linejoin:round; stroke-width:4; stroke-opacity:1; fill:none" points="2352.76,205.79 2333.86,205.79 "/>
<path clip-path="url(#clip580)" d="M127.501 1370.04 Q123.89 1370.04 122.061 1373.61 Q120.255 1377.15 120.255 1384.28 Q120.255 1391.39 122.061 1394.95 Q123.89 1398.49 127.501 1398.49 Q131.135 1398.49 132.941 1394.95 Q134.769 1391.39 134.769 1384.28 Q134.769 1377.15 132.941 1373.61 Q131.135 1370.04 127.501 1370.04 M127.501 1366.34 Q133.311 1366.34 136.367 1370.95 Q139.445 1375.53 139.445 1384.28 Q139.445 1393.01 136.367 1397.61 Q133.311 1402.2 127.501 1402.2 Q121.691 1402.2 118.612 1397.61 Q115.556 1393.01 115.556 1384.28 Q115.556 1375.53 118.612 1370.95 Q121.691 1366.34 127.501 1366.34 Z" fill="#000000" fill-rule="nonzero" fill-opacity="1" /><path clip-path="url(#clip580)" d="M119.538 1201.18 L127.177 1201.18 L127.177 1174.82 L118.867 1176.48 L118.867 1172.22 L127.13 1170.56 L131.806 1170.56 L131.806 1201.18 L139.445 1201.18 L139.445 1205.12 L119.538 1205.12 L119.538 1201.18 Z" fill="#000000" fill-rule="nonzero" fill-opacity="1" /><path clip-path="url(#clip580)" d="M123.126 1004.77 L139.445 1004.77 L139.445 1008.71 L117.501 1008.71 L117.501 1004.77 Q120.163 1002.02 124.746 997.387 Q129.353 992.735 130.533 991.392 Q132.779 988.869 133.658 987.133 Q134.561 985.374 134.561 983.684 Q134.561 980.929 132.617 979.193 Q130.695 977.457 127.593 977.457 Q125.394 977.457 122.941 978.221 Q120.51 978.985 117.732 980.536 L117.732 975.813 Q120.556 974.679 123.01 974.1 Q125.464 973.522 127.501 973.522 Q132.871 973.522 136.066 976.207 Q139.26 978.892 139.26 983.383 Q139.26 985.512 138.45 987.434 Q137.663 989.332 135.556 991.924 Q134.978 992.596 131.876 995.813 Q128.774 999.008 123.126 1004.77 Z" fill="#000000" fill-rule="nonzero" fill-opacity="1" /><path clip-path="url(#clip580)" d="M132.316 793.663 Q135.672 794.381 137.547 796.65 Q139.445 798.918 139.445 802.251 Q139.445 807.367 135.927 810.168 Q132.408 812.969 125.927 812.969 Q123.751 812.969 121.436 812.529 Q119.144 812.112 116.691 811.256 L116.691 806.742 Q118.635 807.876 120.95 808.455 Q123.265 809.034 125.788 809.034 Q130.186 809.034 132.478 807.298 Q134.792 805.561 134.792 802.251 Q134.792 799.196 132.64 797.483 Q130.51 795.747 126.691 795.747 L122.663 795.747 L122.663 791.904 L126.876 791.904 Q130.325 791.904 132.154 790.538 Q133.982 789.15 133.982 786.557 Q133.982 783.895 132.084 782.483 Q130.209 781.048 126.691 781.048 Q124.769 781.048 122.57 781.464 Q120.371 781.881 117.732 782.761 L117.732 778.594 Q120.394 777.853 122.709 777.483 Q125.047 777.113 127.107 777.113 Q132.431 777.113 135.533 779.543 Q138.635 781.951 138.635 786.071 Q138.635 788.941 136.992 790.932 Q135.348 792.9 132.316 793.663 Z" fill="#000000" fill-rule="nonzero" fill-opacity="1" /><path clip-path="url(#clip580)" d="M129.862 585.402 L118.056 603.851 L129.862 603.851 L129.862 585.402 M128.635 581.328 L134.515 581.328 L134.515 603.851 L139.445 603.851 L139.445 607.74 L134.515 607.74 L134.515 615.888 L129.862 615.888 L129.862 607.74 L114.26 607.74 L114.26 603.226 L128.635 581.328 Z" fill="#000000" fill-rule="nonzero" fill-opacity="1" /><path clip-path="url(#clip580)" d="M118.543 384.919 L136.899 384.919 L136.899 388.854 L122.825 388.854 L122.825 397.327 Q123.843 396.979 124.862 396.817 Q125.88 396.632 126.899 396.632 Q132.686 396.632 136.066 399.803 Q139.445 402.975 139.445 408.391 Q139.445 413.97 135.973 417.072 Q132.501 420.15 126.181 420.15 Q124.005 420.15 121.737 419.78 Q119.492 419.41 117.084 418.669 L117.084 413.97 Q119.168 415.104 121.39 415.66 Q123.612 416.215 126.089 416.215 Q130.093 416.215 132.431 414.109 Q134.769 412.002 134.769 408.391 Q134.769 404.78 132.431 402.674 Q130.093 400.567 126.089 400.567 Q124.214 400.567 122.339 400.984 Q120.487 401.401 118.543 402.28 L118.543 384.919 Z" fill="#000000" fill-rule="nonzero" fill-opacity="1" /><path clip-path="url(#clip580)" d="M127.917 203.927 Q124.769 203.927 122.918 206.079 Q121.089 208.232 121.089 211.982 Q121.089 215.709 122.918 217.885 Q124.769 220.038 127.917 220.038 Q131.066 220.038 132.894 217.885 Q134.746 215.709 134.746 211.982 Q134.746 208.232 132.894 206.079 Q131.066 203.927 127.917 203.927 M137.2 189.274 L137.2 193.533 Q135.441 192.7 133.635 192.26 Q131.853 191.82 130.093 191.82 Q125.464 191.82 123.01 194.945 Q120.58 198.07 120.232 204.39 Q121.598 202.376 123.658 201.311 Q125.718 200.223 128.195 200.223 Q133.404 200.223 136.413 203.394 Q139.445 206.542 139.445 211.982 Q139.445 217.306 136.297 220.524 Q133.149 223.741 127.917 223.741 Q121.922 223.741 118.751 219.158 Q115.58 214.552 115.58 205.825 Q115.58 197.63 119.468 192.769 Q123.357 187.885 129.908 187.885 Q131.667 187.885 133.45 188.232 Q135.255 188.579 137.2 189.274 Z" fill="#000000" fill-rule="nonzero" fill-opacity="1" /><path clip-path="url(#clip580)" d="M21.7677 1026.76 L39.6235 1026.76 L39.6235 1018.68 Q39.6235 1014.19 37.3 1011.74 Q34.9765 1009.29 30.6797 1009.29 Q26.4147 1009.29 24.0912 1011.74 Q21.7677 1014.19 21.7677 1018.68 L21.7677 1026.76 M16.4842 1033.19 L16.4842 1018.68 Q16.4842 1010.69 20.1126 1006.61 Q23.7092 1002.51 30.6797 1002.51 Q37.7138 1002.51 41.3104 1006.61 Q44.907 1010.69 44.907 1018.68 L44.907 1026.76 L64.0042 1026.76 L64.0042 1033.19 L16.4842 1033.19 Z" fill="#000000" fill-rule="nonzero" fill-opacity="1" /><path clip-path="url(#clip580)" d="M33.8307 974.626 Q33.2578 975.613 33.0032 976.791 Q32.7167 977.936 32.7167 979.337 Q32.7167 984.302 35.9632 986.976 Q39.1779 989.617 45.2253 989.617 L64.0042 989.617 L64.0042 995.506 L28.3562 995.506 L28.3562 989.617 L33.8944 989.617 Q30.6479 987.771 29.0883 984.811 Q27.4968 981.851 27.4968 977.618 Q27.4968 977.013 27.5923 976.281 Q27.656 975.549 27.8151 974.658 L33.8307 974.626 Z" fill="#000000" fill-rule="nonzero" fill-opacity="1" /><path clip-path="url(#clip580)" d="M32.4621 956.102 Q32.4621 960.813 36.1542 963.55 Q39.8145 966.287 46.212 966.287 Q52.6095 966.287 56.3017 963.582 Q59.9619 960.844 59.9619 956.102 Q59.9619 951.423 56.2698 948.686 Q52.5777 945.949 46.212 945.949 Q39.8781 945.949 36.186 948.686 Q32.4621 951.423 32.4621 956.102 M27.4968 956.102 Q27.4968 948.463 32.4621 944.103 Q37.4273 939.742 46.212 939.742 Q54.9649 939.742 59.9619 944.103 Q64.9272 948.463 64.9272 956.102 Q64.9272 963.773 59.9619 968.133 Q54.9649 972.462 46.212 972.462 Q37.4273 972.462 32.4621 968.133 Q27.4968 963.773 27.4968 956.102 Z" fill="#000000" fill-rule="nonzero" fill-opacity="1" /><path clip-path="url(#clip580)" d="M46.212 904.444 Q39.7508 904.444 36.0905 907.118 Q32.3984 909.76 32.3984 914.407 Q32.3984 919.054 36.0905 921.727 Q39.7508 924.369 46.212 924.369 Q52.6732 924.369 56.3653 921.727 Q60.0256 919.054 60.0256 914.407 Q60.0256 909.76 56.3653 907.118 Q52.6732 904.444 46.212 904.444 M33.7671 924.369 Q30.5842 922.523 29.0564 919.722 Q27.4968 916.889 27.4968 912.974 Q27.4968 906.481 32.6531 902.439 Q37.8093 898.365 46.212 898.365 Q54.6147 898.365 59.771 902.439 Q64.9272 906.481 64.9272 912.974 Q64.9272 916.889 63.3994 919.722 Q61.8398 922.523 58.657 924.369 L64.0042 924.369 L64.0042 930.257 L14.479 930.257 L14.479 924.369 L33.7671 924.369 Z" fill="#000000" fill-rule="nonzero" fill-opacity="1" /><path clip-path="url(#clip580)" d="M46.0847 872.457 Q46.0847 879.554 47.7079 882.292 Q49.3312 885.029 53.2461 885.029 Q56.3653 885.029 58.2114 882.992 Q60.0256 880.923 60.0256 877.39 Q60.0256 872.52 56.5881 869.592 Q53.1188 866.632 47.3897 866.632 L46.0847 866.632 L46.0847 872.457 M43.6657 860.776 L64.0042 860.776 L64.0042 866.632 L58.5933 866.632 Q61.8398 868.637 63.3994 871.629 Q64.9272 874.621 64.9272 878.95 Q64.9272 884.424 61.8716 887.671 Q58.7843 890.885 53.6281 890.885 Q47.6125 890.885 44.5569 886.875 Q41.5014 882.833 41.5014 874.844 L41.5014 866.632 L40.9285 866.632 Q36.8862 866.632 34.6901 869.306 Q32.4621 871.947 32.4621 876.753 Q32.4621 879.809 33.1941 882.705 Q33.9262 885.602 35.3903 888.275 L29.9795 888.275 Q28.7381 885.061 28.1334 882.037 Q27.4968 879.013 27.4968 876.149 Q27.4968 868.414 31.5072 864.595 Q35.5176 860.776 43.6657 860.776 Z" fill="#000000" fill-rule="nonzero" fill-opacity="1" /><path clip-path="url(#clip580)" d="M46.212 823.122 Q39.7508 823.122 36.0905 825.796 Q32.3984 828.438 32.3984 833.085 Q32.3984 837.732 36.0905 840.405 Q39.7508 843.047 46.212 843.047 Q52.6732 843.047 56.3653 840.405 Q60.0256 837.732 60.0256 833.085 Q60.0256 828.438 56.3653 825.796 Q52.6732 823.122 46.212 823.122 M33.7671 843.047 Q30.5842 841.201 29.0564 838.4 Q27.4968 835.567 27.4968 831.652 Q27.4968 825.159 32.6531 821.117 Q37.8093 817.043 46.212 817.043 Q54.6147 817.043 59.771 821.117 Q64.9272 825.159 64.9272 831.652 Q64.9272 835.567 63.3994 838.4 Q61.8398 841.201 58.657 843.047 L64.0042 843.047 L64.0042 848.935 L14.479 848.935 L14.479 843.047 L33.7671 843.047 Z" fill="#000000" fill-rule="nonzero" fill-opacity="1" /><path clip-path="url(#clip580)" d="M28.3562 807.335 L28.3562 801.479 L64.0042 801.479 L64.0042 807.335 L28.3562 807.335 M14.479 807.335 L14.479 801.479 L21.895 801.479 L21.895 807.335 L14.479 807.335 Z" fill="#000000" fill-rule="nonzero" fill-opacity="1" /><path clip-path="url(#clip580)" d="M14.479 789.225 L14.479 783.369 L64.0042 783.369 L64.0042 789.225 L14.479 789.225 Z" fill="#000000" fill-rule="nonzero" fill-opacity="1" /><path clip-path="url(#clip580)" d="M28.3562 771.115 L28.3562 765.258 L64.0042 765.258 L64.0042 771.115 L28.3562 771.115 M14.479 771.115 L14.479 765.258 L21.895 765.258 L21.895 771.115 L14.479 771.115 Z" fill="#000000" fill-rule="nonzero" fill-opacity="1" /><path clip-path="url(#clip580)" d="M18.2347 747.211 L28.3562 747.211 L28.3562 735.148 L32.9077 735.148 L32.9077 747.211 L52.2594 747.211 Q56.6199 747.211 57.8613 746.034 Q59.1026 744.824 59.1026 741.164 L59.1026 735.148 L64.0042 735.148 L64.0042 741.164 Q64.0042 747.943 61.4897 750.521 Q58.9434 753.1 52.2594 753.1 L32.9077 753.1 L32.9077 757.396 L28.3562 757.396 L28.3562 753.1 L18.2347 753.1 L18.2347 747.211 Z" fill="#000000" fill-rule="nonzero" fill-opacity="1" /><path clip-path="url(#clip580)" d="M67.3143 712.614 Q73.68 715.096 75.6216 717.452 Q77.5631 719.807 77.5631 723.754 L77.5631 728.432 L72.6615 728.432 L72.6615 724.995 Q72.6615 722.576 71.5157 721.239 Q70.3699 719.902 66.1048 718.279 L63.4312 717.229 L28.3562 731.647 L28.3562 725.441 L56.238 714.301 L28.3562 703.161 L28.3562 696.954 L67.3143 712.614 Z" fill="#000000" fill-rule="nonzero" fill-opacity="1" /><path clip-path="url(#clip580)" d="M33.7671 644.692 L14.479 644.692 L14.479 638.835 L64.0042 638.835 L64.0042 644.692 L58.657 644.692 Q61.8398 646.538 63.3994 649.37 Q64.9272 652.171 64.9272 656.118 Q64.9272 662.579 59.771 666.653 Q54.6147 670.696 46.212 670.696 Q37.8093 670.696 32.6531 666.653 Q27.4968 662.579 27.4968 656.118 Q27.4968 652.171 29.0564 649.37 Q30.5842 646.538 33.7671 644.692 M46.212 664.648 Q52.6732 664.648 56.3653 662.006 Q60.0256 659.333 60.0256 654.686 Q60.0256 650.039 56.3653 647.365 Q52.6732 644.692 46.212 644.692 Q39.7508 644.692 36.0905 647.365 Q32.3984 650.039 32.3984 654.686 Q32.3984 659.333 36.0905 662.006 Q39.7508 664.648 46.212 664.648 Z" fill="#000000" fill-rule="nonzero" fill-opacity="1" /><path clip-path="url(#clip580)" d="M44.7161 596.28 L47.5806 596.28 L47.5806 623.207 Q53.6281 622.825 56.8109 619.579 Q59.9619 616.301 59.9619 610.476 Q59.9619 607.102 59.1344 603.951 Q58.3069 600.768 56.6518 597.649 L62.1899 597.649 Q63.5267 600.8 64.227 604.11 Q64.9272 607.42 64.9272 610.826 Q64.9272 619.356 59.9619 624.353 Q54.9967 629.318 46.5303 629.318 Q37.7774 629.318 32.6531 624.608 Q27.4968 619.865 27.4968 611.845 Q27.4968 604.651 32.1438 600.482 Q36.7589 596.28 44.7161 596.28 M42.9973 602.137 Q38.1912 602.201 35.3266 604.842 Q32.4621 607.452 32.4621 611.781 Q32.4621 616.683 35.2312 619.643 Q38.0002 622.571 43.0292 623.016 L42.9973 602.137 Z" fill="#000000" fill-rule="nonzero" fill-opacity="1" /><path clip-path="url(#clip580)" d="M42.4881 557.036 L64.0042 557.036 L64.0042 562.892 L42.679 562.892 Q37.6183 562.892 35.1038 564.866 Q32.5894 566.839 32.5894 570.786 Q32.5894 575.528 35.6131 578.265 Q38.6368 581.003 43.8567 581.003 L64.0042 581.003 L64.0042 586.891 L28.3562 586.891 L28.3562 581.003 L33.8944 581.003 Q30.6797 578.902 29.0883 576.069 Q27.4968 573.205 27.4968 569.481 Q27.4968 563.338 31.3163 560.187 Q35.1038 557.036 42.4881 557.036 Z" fill="#000000" fill-rule="nonzero" fill-opacity="1" /><path clip-path="url(#clip580)" d="M29.4065 522.629 L34.9447 522.629 Q33.6716 525.112 33.035 527.785 Q32.3984 530.459 32.3984 533.324 Q32.3984 537.684 33.7352 539.88 Q35.072 542.045 37.7456 542.045 Q39.7826 542.045 40.9603 540.485 Q42.1061 538.925 43.1565 534.215 L43.6021 532.21 Q44.9389 525.971 47.3897 523.361 Q49.8086 520.719 54.1691 520.719 Q59.1344 520.719 62.0308 524.666 Q64.9272 528.581 64.9272 535.456 Q64.9272 538.321 64.3543 541.44 Q63.8132 544.527 62.6992 547.965 L56.6518 547.965 Q58.3387 544.718 59.198 541.567 Q60.0256 538.416 60.0256 535.329 Q60.0256 531.191 58.6251 528.963 Q57.1929 526.735 54.6147 526.735 Q52.2276 526.735 50.9545 528.358 Q49.6813 529.95 48.5037 535.392 L48.0262 537.429 Q46.8804 542.872 44.5251 545.291 Q42.138 547.71 38.0002 547.71 Q32.9713 547.71 30.2341 544.145 Q27.4968 540.58 27.4968 534.024 Q27.4968 530.777 27.9743 527.913 Q28.4517 525.048 29.4065 522.629 Z" fill="#000000" fill-rule="nonzero" fill-opacity="1" /><path clip-path="url(#clip580)" d="M28.3562 511.394 L28.3562 505.537 L64.0042 505.537 L64.0042 511.394 L28.3562 511.394 M14.479 511.394 L14.479 505.537 L21.895 505.537 L21.895 511.394 L14.479 511.394 Z" fill="#000000" fill-rule="nonzero" fill-opacity="1" /><path clip-path="url(#clip580)" d="M18.2347 487.49 L28.3562 487.49 L28.3562 475.427 L32.9077 475.427 L32.9077 487.49 L52.2594 487.49 Q56.6199 487.49 57.8613 486.313 Q59.1026 485.103 59.1026 481.443 L59.1026 475.427 L64.0042 475.427 L64.0042 481.443 Q64.0042 488.223 61.4897 490.801 Q58.9434 493.379 52.2594 493.379 L32.9077 493.379 L32.9077 497.676 L28.3562 497.676 L28.3562 493.379 L18.2347 493.379 L18.2347 487.49 Z" fill="#000000" fill-rule="nonzero" fill-opacity="1" /><path clip-path="url(#clip580)" d="M67.3143 452.893 Q73.68 455.376 75.6216 457.731 Q77.5631 460.086 77.5631 464.033 L77.5631 468.712 L72.6615 468.712 L72.6615 465.274 Q72.6615 462.855 71.5157 461.518 Q70.3699 460.182 66.1048 458.558 L63.4312 457.508 L28.3562 471.926 L28.3562 465.72 L56.238 454.58 L28.3562 443.44 L28.3562 437.233 L67.3143 452.893 Z" fill="#000000" fill-rule="nonzero" fill-opacity="1" /><polyline clip-path="url(#clip582)" style="stroke:#009af9; stroke-linecap:round; stroke-linejoin:round; stroke-width:4; stroke-opacity:1; fill:none" points="237.067,1384.23 300.595,1384.16 406.475,1384.21 427.651,1383.72 448.827,1383.94 470.003,1384.09 491.179,1384.19 512.354,1384.18 575.882,1383.99 597.058,1383.99 618.234,1384.07 639.41,1384.14 660.586,1384.04 681.762,1384.04 702.938,1384.16 724.114,1383.9 745.29,1383.85 766.466,1384.09 787.642,1384.02 808.818,1383.13 829.994,1383.56 851.17,1383.13 872.346,1383.42 893.522,1382.66 914.697,1381.96 935.873,1380.91 957.049,1382.19 978.225,1380.64 999.401,1380.49 1020.58,1380.81 1041.75,1381.03 1062.93,1377.09 1084.11,1377.89 1105.28,1375.14 1126.46,1373.72 1147.63,1376.23 1168.81,1372.23 1189.98,1369.64 1211.16,1366.05 1232.34,1358.6 1253.51,1354.32 1274.69,1346.91 1295.86,1345.01 1317.04,1330.61 1338.22,1312.36 1359.39,1298.4 1380.57,1267.47 1401.74,1256.67 1422.92,1220.82 1444.1,1191.16 1465.27,1115.68 1486.45,1063.94 1507.62,983.626 1528.8,884.177 1549.98,837.647 1571.15,749.817 1592.33,656.057 1613.5,567.765 1634.68,508.779 1655.86,422.367 1677.03,302.07 1698.21,207.935 1719.38,135.278 1740.56,86.1857 1761.74,205.132 1782.91,418.727 1804.09,617.61 1825.26,768.801 1846.44,887.543 1867.61,1011.75 1888.79,1101.07 1909.97,1211.92 1931.14,1278.78 1952.32,1310.7 1973.49,1334.9 1994.67,1347.52 2015.85,1359.54 2037.02,1371.89 2058.2,1378.71 2079.37,1380.37 2100.55,1382.02 2121.73,1382.86 2142.9,1383.41 2164.08,1383.87 2185.25,1383.84 2227.61,1384.01 2291.13,1384.21 "/>
<polyline clip-path="url(#clip582)" style="stroke:#e26f46; stroke-linecap:round; stroke-linejoin:round; stroke-width:4; stroke-opacity:1; fill:none" points="237.067,1384.24 300.595,1384.23 406.475,1384.22 427.651,1384.21 448.827,1384.2 470.003,1384.2 491.179,1384.19 512.354,1384.18 575.882,1384.13 597.058,1384.1 618.234,1384.07 639.41,1384.04 660.586,1384 681.762,1383.95 702.938,1383.9 724.114,1383.83 745.29,1383.75 766.466,1383.65 787.642,1383.53 808.818,1383.39 829.994,1383.23 851.17,1383.03 872.346,1382.79 893.522,1382.51 914.697,1382.17 935.873,1381.76 957.049,1381.28 978.225,1380.7 999.401,1380 1020.58,1379.18 1041.75,1378.19 1062.93,1377.01 1084.11,1375.6 1105.28,1373.92 1126.46,1371.91 1147.63,1369.51 1168.81,1366.65 1189.98,1363.23 1211.16,1359.15 1232.34,1354.29 1253.51,1348.5 1274.69,1341.59 1295.86,1333.37 1317.04,1323.58 1338.22,1311.93 1359.39,1298.09 1380.57,1281.65 1401.74,1262.17 1422.92,1239.11 1444.1,1211.86 1465.27,1179.77 1486.45,1142.1 1507.62,1098.07 1528.8,1046.92 1549.98,988.004 1571.15,920.895 1592.33,845.682 1613.5,763.342 1634.68,676.317 1655.86,589.28 1677.03,509.938 1698.21,449.401 1719.38,421.144 1740.56,437.447 1761.74,503.505 1782.91,612.537 1804.09,746.747 1825.26,884.704 1846.44,1009.55 1867.61,1112.62 1888.79,1192.31 1909.97,1251.15 1931.14,1293.21 1952.32,1322.6 1973.49,1342.8 1994.67,1356.54 2015.85,1365.8 2037.02,1372 2058.2,1376.14 2079.37,1378.89 2100.55,1380.71 2121.73,1381.92 2142.9,1382.71 2164.08,1383.24 2185.25,1383.58 2227.61,1383.96 2291.13,1384.16 "/>
<path clip-path="url(#clip580)" d="M248.022 248.629 L800.057 248.629 L800.057 93.1086 L248.022 93.1086  Z" fill="#ffffff" fill-rule="evenodd" fill-opacity="1"/>
<polyline clip-path="url(#clip580)" style="stroke:#ffffff; stroke-linecap:round; stroke-linejoin:round; stroke-width:4; stroke-opacity:1; fill:none" points="248.022,248.629 800.057,248.629 800.057,93.1086 248.022,93.1086 248.022,248.629 "/>
<polyline clip-path="url(#clip580)" style="stroke:#009af9; stroke-linecap:round; stroke-linejoin:round; stroke-width:4; stroke-opacity:1; fill:none" points="272.215,144.949 417.369,144.949 "/>
<path clip-path="url(#clip580)" d="M441.561 127.669 L446.237 127.669 L446.237 141.835 L463.228 141.835 L463.228 127.669 L467.903 127.669 L467.903 162.229 L463.228 162.229 L463.228 145.77 L446.237 145.77 L446.237 162.229 L441.561 162.229 L441.561 127.669 Z" fill="#000000" fill-rule="nonzero" fill-opacity="1" /><path clip-path="url(#clip580)" d="M477.024 136.303 L481.283 136.303 L481.283 162.229 L477.024 162.229 L477.024 136.303 M477.024 126.21 L481.283 126.21 L481.283 131.604 L477.024 131.604 L477.024 126.21 Z" fill="#000000" fill-rule="nonzero" fill-opacity="1" /><path clip-path="url(#clip580)" d="M506.723 137.067 L506.723 141.094 Q504.917 140.169 502.973 139.706 Q501.028 139.243 498.945 139.243 Q495.774 139.243 494.176 140.215 Q492.602 141.187 492.602 143.131 Q492.602 144.613 493.737 145.469 Q494.871 146.303 498.297 147.067 L499.755 147.391 Q504.292 148.363 506.19 150.145 Q508.112 151.905 508.112 155.076 Q508.112 158.687 505.241 160.793 Q502.394 162.9 497.394 162.9 Q495.311 162.9 493.042 162.483 Q490.797 162.09 488.297 161.28 L488.297 156.881 Q490.658 158.108 492.95 158.733 Q495.241 159.335 497.487 159.335 Q500.496 159.335 502.116 158.317 Q503.737 157.275 503.737 155.4 Q503.737 153.664 502.556 152.738 Q501.399 151.812 497.44 150.956 L495.959 150.608 Q492.001 149.775 490.241 148.062 Q488.482 146.326 488.482 143.317 Q488.482 139.659 491.075 137.669 Q493.667 135.678 498.436 135.678 Q500.797 135.678 502.88 136.025 Q504.963 136.372 506.723 137.067 Z" fill="#000000" fill-rule="nonzero" fill-opacity="1" /><path clip-path="url(#clip580)" d="M519.107 128.942 L519.107 136.303 L527.88 136.303 L527.88 139.613 L519.107 139.613 L519.107 153.687 Q519.107 156.858 519.963 157.761 Q520.843 158.664 523.505 158.664 L527.88 158.664 L527.88 162.229 L523.505 162.229 Q518.574 162.229 516.699 160.4 Q514.824 158.548 514.824 153.687 L514.824 139.613 L511.699 139.613 L511.699 136.303 L514.824 136.303 L514.824 128.942 L519.107 128.942 Z" fill="#000000" fill-rule="nonzero" fill-opacity="1" /><path clip-path="url(#clip580)" d="M543.528 139.289 Q540.102 139.289 538.111 141.974 Q536.121 144.636 536.121 149.289 Q536.121 153.942 538.088 156.627 Q540.079 159.289 543.528 159.289 Q546.931 159.289 548.921 156.604 Q550.912 153.918 550.912 149.289 Q550.912 144.682 548.921 141.997 Q546.931 139.289 543.528 139.289 M543.528 135.678 Q549.084 135.678 552.255 139.289 Q555.426 142.9 555.426 149.289 Q555.426 155.655 552.255 159.289 Q549.084 162.9 543.528 162.9 Q537.949 162.9 534.778 159.289 Q531.63 155.655 531.63 149.289 Q531.63 142.9 534.778 139.289 Q537.949 135.678 543.528 135.678 Z" fill="#000000" fill-rule="nonzero" fill-opacity="1" /><path clip-path="url(#clip580)" d="M579.546 148.965 Q579.546 144.335 577.625 141.789 Q575.727 139.243 572.278 139.243 Q568.852 139.243 566.931 141.789 Q565.033 144.335 565.033 148.965 Q565.033 153.571 566.931 156.118 Q568.852 158.664 572.278 158.664 Q575.727 158.664 577.625 156.118 Q579.546 153.571 579.546 148.965 M583.806 159.011 Q583.806 165.631 580.866 168.849 Q577.926 172.09 571.861 172.09 Q569.616 172.09 567.625 171.742 Q565.634 171.418 563.759 170.724 L563.759 166.58 Q565.634 167.599 567.463 168.085 Q569.292 168.571 571.19 168.571 Q575.38 168.571 577.463 166.372 Q579.546 164.196 579.546 159.775 L579.546 157.668 Q578.227 159.96 576.167 161.094 Q574.107 162.229 571.236 162.229 Q566.468 162.229 563.551 158.594 Q560.634 154.96 560.634 148.965 Q560.634 142.946 563.551 139.312 Q566.468 135.678 571.236 135.678 Q574.107 135.678 576.167 136.812 Q578.227 137.946 579.546 140.238 L579.546 136.303 L583.806 136.303 L583.806 159.011 Z" fill="#000000" fill-rule="nonzero" fill-opacity="1" /><path clip-path="url(#clip580)" d="M607.602 140.284 Q606.884 139.868 606.028 139.682 Q605.194 139.474 604.176 139.474 Q600.565 139.474 598.62 141.835 Q596.699 144.173 596.699 148.571 L596.699 162.229 L592.417 162.229 L592.417 136.303 L596.699 136.303 L596.699 140.331 Q598.042 137.969 600.194 136.835 Q602.347 135.678 605.426 135.678 Q605.866 135.678 606.398 135.747 Q606.93 135.794 607.579 135.909 L607.602 140.284 Z" fill="#000000" fill-rule="nonzero" fill-opacity="1" /><path clip-path="url(#clip580)" d="M623.852 149.196 Q618.69 149.196 616.699 150.377 Q614.708 151.557 614.708 154.405 Q614.708 156.673 616.19 158.016 Q617.694 159.335 620.264 159.335 Q623.805 159.335 625.935 156.835 Q628.088 154.312 628.088 150.145 L628.088 149.196 L623.852 149.196 M632.347 147.437 L632.347 162.229 L628.088 162.229 L628.088 158.293 Q626.629 160.655 624.453 161.789 Q622.278 162.9 619.129 162.9 Q615.148 162.9 612.787 160.678 Q610.449 158.432 610.449 154.682 Q610.449 150.307 613.366 148.085 Q616.305 145.863 622.116 145.863 L628.088 145.863 L628.088 145.446 Q628.088 142.507 626.143 140.909 Q624.222 139.289 620.727 139.289 Q618.504 139.289 616.398 139.821 Q614.292 140.354 612.347 141.419 L612.347 137.483 Q614.685 136.581 616.884 136.141 Q619.083 135.678 621.166 135.678 Q626.791 135.678 629.569 138.594 Q632.347 141.511 632.347 147.437 Z" fill="#000000" fill-rule="nonzero" fill-opacity="1" /><path clip-path="url(#clip580)" d="M661.305 141.28 Q662.902 138.409 665.125 137.044 Q667.347 135.678 670.356 135.678 Q674.407 135.678 676.606 138.525 Q678.805 141.349 678.805 146.581 L678.805 162.229 L674.523 162.229 L674.523 146.719 Q674.523 142.993 673.203 141.187 Q671.884 139.382 669.175 139.382 Q665.865 139.382 663.944 141.581 Q662.023 143.78 662.023 147.576 L662.023 162.229 L657.74 162.229 L657.74 146.719 Q657.74 142.969 656.421 141.187 Q655.101 139.382 652.347 139.382 Q649.083 139.382 647.162 141.604 Q645.24 143.803 645.24 147.576 L645.24 162.229 L640.958 162.229 L640.958 136.303 L645.24 136.303 L645.24 140.331 Q646.699 137.946 648.736 136.812 Q650.773 135.678 653.574 135.678 Q656.398 135.678 658.365 137.113 Q660.356 138.548 661.305 141.28 Z" fill="#000000" fill-rule="nonzero" fill-opacity="1" /><polyline clip-path="url(#clip580)" style="stroke:#e26f46; stroke-linecap:round; stroke-linejoin:round; stroke-width:4; stroke-opacity:1; fill:none" points="272.215,196.789 417.369,196.789 "/>
<path clip-path="url(#clip580)" d="M446.237 183.351 L446.237 210.226 L451.885 210.226 Q459.038 210.226 462.348 206.985 Q465.681 203.745 465.681 196.754 Q465.681 189.809 462.348 186.592 Q459.038 183.351 451.885 183.351 L446.237 183.351 M441.561 179.509 L451.167 179.509 Q461.214 179.509 465.913 183.698 Q470.612 187.865 470.612 196.754 Q470.612 205.689 465.89 209.879 Q461.167 214.069 451.167 214.069 L441.561 214.069 L441.561 179.509 Z" fill="#000000" fill-rule="nonzero" fill-opacity="1" /><path clip-path="url(#clip580)" d="M477.88 188.143 L482.139 188.143 L482.139 214.069 L477.88 214.069 L477.88 188.143 M477.88 178.05 L482.139 178.05 L482.139 183.444 L477.88 183.444 L477.88 178.05 Z" fill="#000000" fill-rule="nonzero" fill-opacity="1" /><path clip-path="url(#clip580)" d="M507.579 188.907 L507.579 192.934 Q505.774 192.009 503.829 191.546 Q501.885 191.083 499.801 191.083 Q496.63 191.083 495.033 192.055 Q493.459 193.027 493.459 194.971 Q493.459 196.453 494.593 197.309 Q495.727 198.143 499.153 198.907 L500.612 199.231 Q505.149 200.203 507.047 201.985 Q508.968 203.745 508.968 206.916 Q508.968 210.527 506.098 212.633 Q503.25 214.74 498.25 214.74 Q496.167 214.74 493.899 214.323 Q491.653 213.93 489.153 213.12 L489.153 208.721 Q491.514 209.948 493.806 210.573 Q496.098 211.175 498.343 211.175 Q501.352 211.175 502.973 210.157 Q504.593 209.115 504.593 207.24 Q504.593 205.504 503.412 204.578 Q502.255 203.652 498.297 202.796 L496.815 202.448 Q492.857 201.615 491.098 199.902 Q489.338 198.166 489.338 195.157 Q489.338 191.499 491.931 189.509 Q494.524 187.518 499.292 187.518 Q501.653 187.518 503.737 187.865 Q505.82 188.212 507.579 188.907 Z" fill="#000000" fill-rule="nonzero" fill-opacity="1" /><path clip-path="url(#clip580)" d="M519.963 180.782 L519.963 188.143 L528.736 188.143 L528.736 191.453 L519.963 191.453 L519.963 205.527 Q519.963 208.698 520.82 209.601 Q521.699 210.504 524.361 210.504 L528.736 210.504 L528.736 214.069 L524.361 214.069 Q519.431 214.069 517.556 212.24 Q515.681 210.388 515.681 205.527 L515.681 191.453 L512.556 191.453 L512.556 188.143 L515.681 188.143 L515.681 180.782 L519.963 180.782 Z" fill="#000000" fill-rule="nonzero" fill-opacity="1" /><path clip-path="url(#clip580)" d="M549.361 192.124 Q548.644 191.708 547.787 191.522 Q546.954 191.314 545.935 191.314 Q542.324 191.314 540.38 193.675 Q538.459 196.013 538.459 200.411 L538.459 214.069 L534.176 214.069 L534.176 188.143 L538.459 188.143 L538.459 192.171 Q539.801 189.809 541.954 188.675 Q544.107 187.518 547.185 187.518 Q547.625 187.518 548.158 187.587 Q548.69 187.634 549.338 187.749 L549.361 192.124 Z" fill="#000000" fill-rule="nonzero" fill-opacity="1" /><path clip-path="url(#clip580)" d="M553.829 188.143 L558.088 188.143 L558.088 214.069 L553.829 214.069 L553.829 188.143 M553.829 178.05 L558.088 178.05 L558.088 183.444 L553.829 183.444 L553.829 178.05 Z" fill="#000000" fill-rule="nonzero" fill-opacity="1" /><path clip-path="url(#clip580)" d="M585.611 201.129 Q585.611 196.43 583.667 193.768 Q581.745 191.083 578.366 191.083 Q574.986 191.083 573.042 193.768 Q571.12 196.43 571.12 201.129 Q571.12 205.828 573.042 208.513 Q574.986 211.175 578.366 211.175 Q581.745 211.175 583.667 208.513 Q585.611 205.828 585.611 201.129 M571.12 192.078 Q572.463 189.763 574.5 188.652 Q576.56 187.518 579.407 187.518 Q584.13 187.518 587.069 191.268 Q590.032 195.018 590.032 201.129 Q590.032 207.24 587.069 210.99 Q584.13 214.74 579.407 214.74 Q576.56 214.74 574.5 213.629 Q572.463 212.495 571.12 210.18 L571.12 214.069 L566.838 214.069 L566.838 178.05 L571.12 178.05 L571.12 192.078 Z" fill="#000000" fill-rule="nonzero" fill-opacity="1" /><path clip-path="url(#clip580)" d="M596.653 203.837 L596.653 188.143 L600.912 188.143 L600.912 203.675 Q600.912 207.356 602.347 209.208 Q603.782 211.036 606.653 211.036 Q610.102 211.036 612.092 208.837 Q614.106 206.638 614.106 202.842 L614.106 188.143 L618.366 188.143 L618.366 214.069 L614.106 214.069 L614.106 210.087 Q612.555 212.448 610.495 213.606 Q608.458 214.74 605.75 214.74 Q601.282 214.74 598.968 211.962 Q596.653 209.184 596.653 203.837 M607.37 187.518 L607.37 187.518 Z" fill="#000000" fill-rule="nonzero" fill-opacity="1" /><path clip-path="url(#clip580)" d="M631.352 180.782 L631.352 188.143 L640.125 188.143 L640.125 191.453 L631.352 191.453 L631.352 205.527 Q631.352 208.698 632.208 209.601 Q633.088 210.504 635.75 210.504 L640.125 210.504 L640.125 214.069 L635.75 214.069 Q630.819 214.069 628.944 212.24 Q627.069 210.388 627.069 205.527 L627.069 191.453 L623.944 191.453 L623.944 188.143 L627.069 188.143 L627.069 180.782 L631.352 180.782 Z" fill="#000000" fill-rule="nonzero" fill-opacity="1" /><path clip-path="url(#clip580)" d="M645.727 188.143 L649.986 188.143 L649.986 214.069 L645.727 214.069 L645.727 188.143 M645.727 178.05 L649.986 178.05 L649.986 183.444 L645.727 183.444 L645.727 178.05 Z" fill="#000000" fill-rule="nonzero" fill-opacity="1" /><path clip-path="url(#clip580)" d="M668.944 191.129 Q665.518 191.129 663.527 193.814 Q661.537 196.476 661.537 201.129 Q661.537 205.782 663.504 208.467 Q665.495 211.129 668.944 211.129 Q672.347 211.129 674.337 208.444 Q676.328 205.758 676.328 201.129 Q676.328 196.522 674.337 193.837 Q672.347 191.129 668.944 191.129 M668.944 187.518 Q674.5 187.518 677.671 191.129 Q680.842 194.74 680.842 201.129 Q680.842 207.495 677.671 211.129 Q674.5 214.74 668.944 214.74 Q663.365 214.74 660.194 211.129 Q657.046 207.495 657.046 201.129 Q657.046 194.74 660.194 191.129 Q663.365 187.518 668.944 187.518 Z" fill="#000000" fill-rule="nonzero" fill-opacity="1" /><path clip-path="url(#clip580)" d="M709.453 198.421 L709.453 214.069 L705.194 214.069 L705.194 198.559 Q705.194 194.879 703.759 193.05 Q702.323 191.222 699.453 191.222 Q696.004 191.222 694.013 193.421 Q692.023 195.62 692.023 199.416 L692.023 214.069 L687.74 214.069 L687.74 188.143 L692.023 188.143 L692.023 192.171 Q693.55 189.833 695.611 188.675 Q697.694 187.518 700.402 187.518 Q704.87 187.518 707.161 190.296 Q709.453 193.05 709.453 198.421 Z" fill="#000000" fill-rule="nonzero" fill-opacity="1" /><path clip-path="url(#clip580)" d="M746.143 178.05 L746.143 181.592 L742.069 181.592 Q739.777 181.592 738.874 182.518 Q737.995 183.444 737.995 185.851 L737.995 188.143 L745.008 188.143 L745.008 191.453 L737.995 191.453 L737.995 214.069 L733.712 214.069 L733.712 191.453 L729.638 191.453 L729.638 188.143 L733.712 188.143 L733.712 186.337 Q733.712 182.009 735.726 180.041 Q737.74 178.05 742.115 178.05 L746.143 178.05 Z" fill="#000000" fill-rule="nonzero" fill-opacity="1" /><path clip-path="url(#clip580)" d="M749.707 188.143 L753.967 188.143 L753.967 214.069 L749.707 214.069 L749.707 188.143 M749.707 178.05 L753.967 178.05 L753.967 183.444 L749.707 183.444 L749.707 178.05 Z" fill="#000000" fill-rule="nonzero" fill-opacity="1" /><path clip-path="url(#clip580)" d="M767.092 180.782 L767.092 188.143 L775.865 188.143 L775.865 191.453 L767.092 191.453 L767.092 205.527 Q767.092 208.698 767.948 209.601 Q768.828 210.504 771.49 210.504 L775.865 210.504 L775.865 214.069 L771.49 214.069 Q766.559 214.069 764.684 212.24 Q762.809 210.388 762.809 205.527 L762.809 191.453 L759.684 191.453 L759.684 188.143 L762.809 188.143 L762.809 180.782 L767.092 180.782 Z" fill="#000000" fill-rule="nonzero" fill-opacity="1" /></svg>
