<?xml version="1.0" encoding="utf-8"?>
<svg xmlns="http://www.w3.org/2000/svg" xmlns:xlink="http://www.w3.org/1999/xlink" width="600" height="400" viewBox="0 0 2400 1600">
<defs>
  <clipPath id="clip540">
    <rect x="0" y="0" width="2400" height="1600"/>
  </clipPath>
</defs>
<path clip-path="url(#clip540)" d="M0 1600 L2400 1600 L2400 8.88178e-14 L0 8.88178e-14  Z" fill="#ffffff" fill-rule="evenodd" fill-opacity="1"/>
<defs>
  <clipPath id="clip541">
    <rect x="480" y="0" width="1681" height="1600"/>
  </clipPath>
</defs>
<path clip-path="url(#clip540)" d="M204.288 1552.76 L2352.76 1552.76 L2352.76 47.2441 L204.288 47.2441  Z" fill="#ffffff" fill-rule="evenodd" fill-opacity="1"/>
<defs>
  <clipPath id="clip542">
    <rect x="204" y="47" width="2149" height="1507"/>
  </clipPath>
</defs>
<polyline clip-path="url(#clip542)" style="stroke:#000000; stroke-linecap:round; stroke-linejoin:round; stroke-width:2; stroke-opacity:0.1; fill:none" points="204.288,1384.83 2352.76,1384.83 "/>
<polyline clip-path="url(#clip542)" style="stroke:#000000; stroke-linecap:round; stroke-linejoin:round; stroke-width:2; stroke-opacity:0.1; fill:none" points="204.288,967.093 2352.76,967.093 "/>
<polyline clip-path="url(#clip542)" style="stroke:#000000; stroke-linecap:round; stroke-linejoin:round; stroke-width:2; stroke-opacity:0.1; fill:none" points="204.288,549.36 2352.76,549.36 "/>
<polyline clip-path="url(#clip542)" style="stroke:#000000; stroke-linecap:round; stroke-linejoin:round; stroke-width:2; stroke-opacity:0.1; fill:none" points="204.288,131.626 2352.76,131.626 "/>
<polyline clip-path="url(#clip542)" style="stroke:#000000; stroke-linecap:round; stroke-linejoin:round; stroke-width:2; stroke-opacity:0.1; fill:none" points="204.288,1384.83 2352.76,1384.83 "/>
<polyline clip-path="url(#clip542)" style="stroke:#000000; stroke-linecap:round; stroke-linejoin:round; stroke-width:2; stroke-opacity:0.1; fill:none" points="204.288,967.093 2352.76,967.093 "/>
<polyline clip-path="url(#clip542)" style="stroke:#000000; stroke-linecap:round; stroke-linejoin:round; stroke-width:2; stroke-opacity:0.1; fill:none" points="204.288,549.36 2352.76,549.36 "/>
<polyline clip-path="url(#clip542)" style="stroke:#000000; stroke-linecap:round; stroke-linejoin:round; stroke-width:2; stroke-opacity:0.1; fill:none" points="204.288,131.626 2352.76,131.626 "/>
<polyline clip-path="url(#clip540)" style="stroke:#000000; stroke-linecap:round; stroke-linejoin:round; stroke-width:4; stroke-opacity:1; fill:none" points="204.288,1552.76 2352.76,1552.76 "/>
<polyline clip-path="url(#clip540)" style="stroke:#000000; stroke-linecap:round; stroke-linejoin:round; stroke-width:4; stroke-opacity:1; fill:none" points="204.288,47.2441 2352.76,47.2441 "/>
<polyline clip-path="url(#clip540)" style="stroke:#000000; stroke-linecap:round; stroke-linejoin:round; stroke-width:4; stroke-opacity:1; fill:none" points="204.288,1552.76 204.288,47.2441 "/>
<polyline clip-path="url(#clip540)" style="stroke:#000000; stroke-linecap:round; stroke-linejoin:round; stroke-width:4; stroke-opacity:1; fill:none" points="2352.76,1552.76 2352.76,47.2441 "/>
<polyline clip-path="url(#clip540)" style="stroke:#000000; stroke-linecap:round; stroke-linejoin:round; stroke-width:4; stroke-opacity:1; fill:none" points="204.288,1384.83 223.185,1384.83 "/>
<polyline clip-path="url(#clip540)" style="stroke:#000000; stroke-linecap:round; stroke-linejoin:round; stroke-width:4; stroke-opacity:1; fill:none" points="204.288,967.093 223.185,967.093 "/>
<polyline clip-path="url(#clip540)" style="stroke:#000000; stroke-linecap:round; stroke-linejoin:round; stroke-width:4; stroke-opacity:1; fill:none" points="204.288,549.36 223.185,549.36 "/>
<polyline clip-path="url(#clip540)" style="stroke:#000000; stroke-linecap:round; stroke-linejoin:round; stroke-width:4; stroke-opacity:1; fill:none" points="204.288,131.626 223.185,131.626 "/>
<polyline clip-path="url(#clip540)" style="stroke:#000000; stroke-linecap:round; stroke-linejoin:round; stroke-width:4; stroke-opacity:1; fill:none" points="2352.76,1384.83 2333.86,1384.83 "/>
<polyline clip-path="url(#clip540)" style="stroke:#000000; stroke-linecap:round; stroke-linejoin:round; stroke-width:4; stroke-opacity:1; fill:none" points="2352.76,967.093 2333.86,967.093 "/>
<polyline clip-path="url(#clip540)" style="stroke:#000000; stroke-linecap:round; stroke-linejoin:round; stroke-width:4; stroke-opacity:1; fill:none" points="2352.76,549.36 2333.86,549.36 "/>
<polyline clip-path="url(#clip540)" style="stroke:#000000; stroke-linecap:round; stroke-linejoin:round; stroke-width:4; stroke-opacity:1; fill:none" points="2352.76,131.626 2333.86,131.626 "/>
<path clip-path="url(#clip540)" d="M127.755 1382.96 Q124.607 1382.96 122.755 1385.12 Q120.927 1387.27 120.927 1391.02 Q120.927 1394.75 122.755 1396.92 Q124.607 1399.07 127.755 1399.07 Q130.904 1399.07 132.732 1396.92 Q134.584 1394.75 134.584 1391.02 Q134.584 1387.27 132.732 1385.12 Q130.904 1382.96 127.755 1382.96 M137.038 1368.31 L137.038 1372.57 Q135.279 1371.74 133.473 1371.3 Q131.691 1370.86 129.931 1370.86 Q125.302 1370.86 122.848 1373.98 Q120.418 1377.11 120.07 1383.43 Q121.436 1381.41 123.496 1380.35 Q125.556 1379.26 128.033 1379.26 Q133.242 1379.26 136.251 1382.43 Q139.283 1385.58 139.283 1391.02 Q139.283 1396.34 136.135 1399.56 Q132.987 1402.78 127.755 1402.78 Q121.76 1402.78 118.589 1398.19 Q115.418 1393.59 115.418 1384.86 Q115.418 1376.67 119.306 1371.81 Q123.195 1366.92 129.746 1366.92 Q131.505 1366.92 133.288 1367.27 Q135.093 1367.62 137.038 1368.31 Z" fill="#000000" fill-rule="nonzero" fill-opacity="1" /><path clip-path="url(#clip540)" d="M147.385 1367.55 L165.741 1367.55 L165.741 1371.48 L151.667 1371.48 L151.667 1379.95 Q152.686 1379.61 153.704 1379.45 Q154.723 1379.26 155.741 1379.26 Q161.528 1379.26 164.908 1382.43 Q168.288 1385.6 168.288 1391.02 Q168.288 1396.6 164.815 1399.7 Q161.343 1402.78 155.024 1402.78 Q152.848 1402.78 150.579 1402.41 Q148.334 1402.04 145.927 1401.3 L145.927 1396.6 Q148.01 1397.73 150.232 1398.29 Q152.454 1398.84 154.931 1398.84 Q158.936 1398.84 161.274 1396.74 Q163.612 1394.63 163.612 1391.02 Q163.612 1387.41 161.274 1385.3 Q158.936 1383.2 154.931 1383.2 Q153.056 1383.2 151.181 1383.61 Q149.329 1384.03 147.385 1384.91 L147.385 1367.55 Z" fill="#000000" fill-rule="nonzero" fill-opacity="1" /><path clip-path="url(#clip540)" d="M126.598 965.23 Q123.45 965.23 121.598 967.383 Q119.769 969.536 119.769 973.286 Q119.769 977.012 121.598 979.188 Q123.45 981.341 126.598 981.341 Q129.746 981.341 131.575 979.188 Q133.427 977.012 133.427 973.286 Q133.427 969.536 131.575 967.383 Q129.746 965.23 126.598 965.23 M135.88 950.577 L135.88 954.837 Q134.121 954.003 132.316 953.563 Q130.533 953.124 128.774 953.124 Q124.144 953.124 121.691 956.249 Q119.26 959.374 118.913 965.693 Q120.279 963.679 122.339 962.614 Q124.399 961.526 126.876 961.526 Q132.084 961.526 135.093 964.698 Q138.126 967.846 138.126 973.286 Q138.126 978.61 134.978 981.827 Q131.83 985.045 126.598 985.045 Q120.603 985.045 117.431 980.461 Q114.26 975.855 114.26 967.128 Q114.26 958.934 118.149 954.073 Q122.038 949.188 128.589 949.188 Q130.348 949.188 132.13 949.536 Q133.936 949.883 135.88 950.577 Z" fill="#000000" fill-rule="nonzero" fill-opacity="1" /><path clip-path="url(#clip540)" d="M156.76 965.23 Q153.612 965.23 151.76 967.383 Q149.931 969.536 149.931 973.286 Q149.931 977.012 151.76 979.188 Q153.612 981.341 156.76 981.341 Q159.908 981.341 161.737 979.188 Q163.589 977.012 163.589 973.286 Q163.589 969.536 161.737 967.383 Q159.908 965.23 156.76 965.23 M166.042 950.577 L166.042 954.837 Q164.283 954.003 162.477 953.563 Q160.695 953.124 158.936 953.124 Q154.306 953.124 151.853 956.249 Q149.422 959.374 149.075 965.693 Q150.441 963.679 152.501 962.614 Q154.561 961.526 157.038 961.526 Q162.246 961.526 165.255 964.698 Q168.288 967.846 168.288 973.286 Q168.288 978.61 165.14 981.827 Q161.991 985.045 156.76 985.045 Q150.765 985.045 147.593 980.461 Q144.422 975.855 144.422 967.128 Q144.422 958.934 148.311 954.073 Q152.2 949.188 158.751 949.188 Q160.51 949.188 162.292 949.536 Q164.098 949.883 166.042 950.577 Z" fill="#000000" fill-rule="nonzero" fill-opacity="1" /><path clip-path="url(#clip540)" d="M127.663 547.496 Q124.515 547.496 122.663 549.649 Q120.834 551.802 120.834 555.552 Q120.834 559.279 122.663 561.455 Q124.515 563.607 127.663 563.607 Q130.811 563.607 132.64 561.455 Q134.492 559.279 134.492 555.552 Q134.492 551.802 132.64 549.649 Q130.811 547.496 127.663 547.496 M136.945 532.844 L136.945 537.103 Q135.186 536.27 133.38 535.83 Q131.598 535.39 129.839 535.39 Q125.209 535.39 122.755 538.515 Q120.325 541.64 119.978 547.959 Q121.343 545.946 123.404 544.881 Q125.464 543.793 127.941 543.793 Q133.149 543.793 136.158 546.964 Q139.191 550.112 139.191 555.552 Q139.191 560.876 136.042 564.094 Q132.894 567.311 127.663 567.311 Q121.668 567.311 118.496 562.728 Q115.325 558.121 115.325 549.395 Q115.325 541.2 119.214 536.339 Q123.103 531.455 129.654 531.455 Q131.413 531.455 133.195 531.802 Q135.001 532.149 136.945 532.844 Z" fill="#000000" fill-rule="nonzero" fill-opacity="1" /><path clip-path="url(#clip540)" d="M146.066 532.08 L168.288 532.08 L168.288 534.071 L155.741 566.64 L150.857 566.64 L162.663 536.015 L146.066 536.015 L146.066 532.08 Z" fill="#000000" fill-rule="nonzero" fill-opacity="1" /><path clip-path="url(#clip540)" d="M126.853 129.763 Q123.705 129.763 121.853 131.916 Q120.024 134.068 120.024 137.818 Q120.024 141.545 121.853 143.721 Q123.705 145.874 126.853 145.874 Q130.001 145.874 131.83 143.721 Q133.681 141.545 133.681 137.818 Q133.681 134.068 131.83 131.916 Q130.001 129.763 126.853 129.763 M136.135 115.11 L136.135 119.369 Q134.376 118.536 132.57 118.096 Q130.788 117.656 129.029 117.656 Q124.399 117.656 121.945 120.781 Q119.515 123.906 119.168 130.226 Q120.533 128.212 122.593 127.147 Q124.654 126.059 127.13 126.059 Q132.339 126.059 135.348 129.23 Q138.38 132.379 138.38 137.818 Q138.38 143.142 135.232 146.36 Q132.084 149.578 126.853 149.578 Q120.857 149.578 117.686 144.994 Q114.515 140.388 114.515 131.661 Q114.515 123.467 118.404 118.606 Q122.293 113.721 128.843 113.721 Q130.603 113.721 132.385 114.069 Q134.191 114.416 136.135 115.11 Z" fill="#000000" fill-rule="nonzero" fill-opacity="1" /><path clip-path="url(#clip540)" d="M156.436 132.494 Q153.103 132.494 151.181 134.277 Q149.283 136.059 149.283 139.184 Q149.283 142.309 151.181 144.091 Q153.103 145.874 156.436 145.874 Q159.769 145.874 161.69 144.091 Q163.612 142.286 163.612 139.184 Q163.612 136.059 161.69 134.277 Q159.792 132.494 156.436 132.494 M151.76 130.504 Q148.751 129.763 147.061 127.703 Q145.394 125.643 145.394 122.68 Q145.394 118.536 148.334 116.129 Q151.297 113.721 156.436 113.721 Q161.598 113.721 164.538 116.129 Q167.477 118.536 167.477 122.68 Q167.477 125.643 165.788 127.703 Q164.121 129.763 161.135 130.504 Q164.515 131.291 166.39 133.582 Q168.288 135.874 168.288 139.184 Q168.288 144.207 165.209 146.892 Q162.153 149.578 156.436 149.578 Q150.718 149.578 147.64 146.892 Q144.584 144.207 144.584 139.184 Q144.584 135.874 146.482 133.582 Q148.38 131.291 151.76 130.504 M150.047 123.119 Q150.047 125.805 151.714 127.309 Q153.403 128.814 156.436 128.814 Q159.445 128.814 161.135 127.309 Q162.848 125.805 162.848 123.119 Q162.848 120.434 161.135 118.93 Q159.445 117.425 156.436 117.425 Q153.403 117.425 151.714 118.93 Q150.047 120.434 150.047 123.119 Z" fill="#000000" fill-rule="nonzero" fill-opacity="1" /><path clip-path="url(#clip540)" d="M22.818 922.094 L46.4666 930.815 L46.4666 913.341 L22.818 922.094 M16.4842 925.723 L16.4842 918.434 L64.0042 900.324 L64.0042 907.008 L51.8138 911.336 L51.8138 932.757 L64.0042 937.085 L64.0042 943.865 L16.4842 925.723 Z" fill="#000000" fill-rule="nonzero" fill-opacity="1" /><path clip-path="url(#clip540)" d="M45.7664 870.182 Q39.4007 870.182 35.8996 872.824 Q32.3984 875.434 32.3984 880.176 Q32.3984 884.887 35.8996 887.528 Q39.4007 890.138 45.7664 890.138 Q52.1003 890.138 55.6014 887.528 Q59.1026 884.887 59.1026 880.176 Q59.1026 875.434 55.6014 872.824 Q52.1003 870.182 45.7664 870.182 M59.58 864.325 Q68.683 864.325 73.1071 868.368 Q77.5631 872.41 77.5631 880.749 Q77.5631 883.836 77.0857 886.574 Q76.6401 889.311 75.6852 891.889 L69.9879 891.889 Q71.3884 889.311 72.0568 886.796 Q72.7252 884.282 72.7252 881.672 Q72.7252 875.911 69.7015 873.046 Q66.7096 870.182 60.6303 870.182 L57.7339 870.182 Q60.885 871.996 62.4446 874.829 Q64.0042 877.662 64.0042 881.608 Q64.0042 888.165 59.0071 892.175 Q54.01 896.186 45.7664 896.186 Q37.491 896.186 32.4939 892.175 Q27.4968 888.165 27.4968 881.608 Q27.4968 877.662 29.0564 874.829 Q30.616 871.996 33.7671 870.182 L28.3562 870.182 L28.3562 864.325 L59.58 864.325 Z" fill="#000000" fill-rule="nonzero" fill-opacity="1" /><path clip-path="url(#clip540)" d="M44.7161 821.771 L47.5806 821.771 L47.5806 848.698 Q53.6281 848.316 56.8109 845.069 Q59.9619 841.791 59.9619 835.966 Q59.9619 832.592 59.1344 829.441 Q58.3069 826.259 56.6518 823.139 L62.1899 823.139 Q63.5267 826.29 64.227 829.601 Q64.9272 832.911 64.9272 836.316 Q64.9272 844.846 59.9619 849.843 Q54.9967 854.809 46.5303 854.809 Q37.7774 854.809 32.6531 850.098 Q27.4968 845.356 27.4968 837.335 Q27.4968 830.142 32.1438 825.972 Q36.7589 821.771 44.7161 821.771 M42.9973 827.627 Q38.1912 827.691 35.3266 830.333 Q32.4621 832.943 32.4621 837.271 Q32.4621 842.173 35.2312 845.133 Q38.0002 848.061 43.0292 848.507 L42.9973 827.627 Z" fill="#000000" fill-rule="nonzero" fill-opacity="1" /><path clip-path="url(#clip540)" d="M14.5426 777.37 Q21.8632 781.635 29.0246 783.704 Q36.186 785.773 43.5384 785.773 Q50.8908 785.773 58.1159 783.704 Q65.3091 781.603 72.5979 777.37 L72.5979 782.462 Q65.1182 787.237 57.8931 789.624 Q50.668 791.979 43.5384 791.979 Q36.4406 791.979 29.2474 789.624 Q22.0542 787.269 14.5426 782.462 L14.5426 777.37 Z" fill="#000000" fill-rule="nonzero" fill-opacity="1" /><path clip-path="url(#clip540)" d="M16.4842 765.752 L16.4842 756.172 L48.8219 744.045 L16.4842 731.855 L16.4842 722.275 L64.0042 722.275 L64.0042 728.545 L22.277 728.545 L54.8694 740.799 L54.8694 747.26 L22.277 759.514 L64.0042 759.514 L64.0042 765.752 L16.4842 765.752 Z" fill="#000000" fill-rule="nonzero" fill-opacity="1" /><path clip-path="url(#clip540)" d="M46.0847 693.565 Q46.0847 700.663 47.7079 703.4 Q49.3312 706.138 53.2461 706.138 Q56.3653 706.138 58.2114 704.101 Q60.0256 702.032 60.0256 698.499 Q60.0256 693.629 56.5881 690.701 Q53.1188 687.741 47.3897 687.741 L46.0847 687.741 L46.0847 693.565 M43.6657 681.884 L64.0042 681.884 L64.0042 687.741 L58.5933 687.741 Q61.8398 689.746 63.3994 692.738 Q64.9272 695.73 64.9272 700.058 Q64.9272 705.533 61.8716 708.779 Q58.7843 711.994 53.6281 711.994 Q47.6125 711.994 44.5569 707.984 Q41.5014 703.941 41.5014 695.953 L41.5014 687.741 L40.9285 687.741 Q36.8862 687.741 34.6901 690.414 Q32.4621 693.056 32.4621 697.862 Q32.4621 700.918 33.1941 703.814 Q33.9262 706.711 35.3903 709.384 L29.9795 709.384 Q28.7381 706.169 28.1334 703.146 Q27.4968 700.122 27.4968 697.257 Q27.4968 689.523 31.5072 685.704 Q35.5176 681.884 43.6657 681.884 Z" fill="#000000" fill-rule="nonzero" fill-opacity="1" /><path clip-path="url(#clip540)" d="M14.5426 670.744 L14.5426 665.652 Q22.0542 660.877 29.2474 658.522 Q36.4406 656.135 43.5384 656.135 Q50.668 656.135 57.8931 658.522 Q65.1182 660.877 72.5979 665.652 L72.5979 670.744 Q65.3091 666.511 58.1159 664.442 Q50.8908 662.342 43.5384 662.342 Q36.186 662.342 29.0246 664.442 Q21.8632 666.511 14.5426 670.744 Z" fill="#000000" fill-rule="nonzero" fill-opacity="1" /><polyline clip-path="url(#clip542)" style="stroke:#009af9; stroke-linecap:round; stroke-linejoin:round; stroke-width:4; stroke-opacity:1; fill:none" points="265.093,1188.49 265.093,954.561 "/>
<polyline clip-path="url(#clip542)" style="stroke:#009af9; stroke-linecap:round; stroke-linejoin:round; stroke-width:4; stroke-opacity:1; fill:none" points="518.45,1238.62 518.45,896.079 "/>
<polyline clip-path="url(#clip542)" style="stroke:#009af9; stroke-linecap:round; stroke-linejoin:round; stroke-width:4; stroke-opacity:1; fill:none" points="771.808,1104.95 771.808,820.887 "/>
<polyline clip-path="url(#clip542)" style="stroke:#009af9; stroke-linecap:round; stroke-linejoin:round; stroke-width:4; stroke-opacity:1; fill:none" points="1025.16,1322.17 1025.16,603.665 "/>
<polyline clip-path="url(#clip542)" style="stroke:#009af9; stroke-linecap:round; stroke-linejoin:round; stroke-width:4; stroke-opacity:1; fill:none" points="1278.52,1510.15 1278.52,340.493 "/>
<polyline clip-path="url(#clip542)" style="stroke:#009af9; stroke-linecap:round; stroke-linejoin:round; stroke-width:4; stroke-opacity:1; fill:none" points="1531.88,1246.97 1531.88,419.862 "/>
<polyline clip-path="url(#clip542)" style="stroke:#009af9; stroke-linecap:round; stroke-linejoin:round; stroke-width:4; stroke-opacity:1; fill:none" points="1785.24,1343.05 1785.24,256.946 "/>
<polyline clip-path="url(#clip542)" style="stroke:#009af9; stroke-linecap:round; stroke-linejoin:round; stroke-width:4; stroke-opacity:1; fill:none" points="2038.59,1217.73 2038.59,382.266 "/>
<polyline clip-path="url(#clip542)" style="stroke:#009af9; stroke-linecap:round; stroke-linejoin:round; stroke-width:4; stroke-opacity:1; fill:none" points="2291.95,1259.51 2291.95,89.8529 "/>
<line clip-path="url(#clip542)" x1="281.093" y1="1188.49" x2="249.093" y2="1188.49" style="stroke:#009af9; stroke-width:4; stroke-opacity:1"/>
<line clip-path="url(#clip542)" x1="281.093" y1="954.561" x2="249.093" y2="954.561" style="stroke:#009af9; stroke-width:4; stroke-opacity:1"/>
<line clip-path="url(#clip542)" x1="534.45" y1="1238.62" x2="502.45" y2="1238.62" style="stroke:#009af9; stroke-width:4; stroke-opacity:1"/>
<line clip-path="url(#clip542)" x1="534.45" y1="896.079" x2="502.45" y2="896.079" style="stroke:#009af9; stroke-width:4; stroke-opacity:1"/>
<line clip-path="url(#clip542)" x1="787.808" y1="1104.95" x2="755.808" y2="1104.95" style="stroke:#009af9; stroke-width:4; stroke-opacity:1"/>
<line clip-path="url(#clip542)" x1="787.808" y1="820.887" x2="755.808" y2="820.887" style="stroke:#009af9; stroke-width:4; stroke-opacity:1"/>
<line clip-path="url(#clip542)" x1="1041.16" y1="1322.17" x2="1009.16" y2="1322.17" style="stroke:#009af9; stroke-width:4; stroke-opacity:1"/>
<line clip-path="url(#clip542)" x1="1041.16" y1="603.665" x2="1009.16" y2="603.665" style="stroke:#009af9; stroke-width:4; stroke-opacity:1"/>
<line clip-path="url(#clip542)" x1="1294.52" y1="1510.15" x2="1262.52" y2="1510.15" style="stroke:#009af9; stroke-width:4; stroke-opacity:1"/>
<line clip-path="url(#clip542)" x1="1294.52" y1="340.493" x2="1262.52" y2="340.493" style="stroke:#009af9; stroke-width:4; stroke-opacity:1"/>
<line clip-path="url(#clip542)" x1="1547.88" y1="1246.97" x2="1515.88" y2="1246.97" style="stroke:#009af9; stroke-width:4; stroke-opacity:1"/>
<line clip-path="url(#clip542)" x1="1547.88" y1="419.862" x2="1515.88" y2="419.862" style="stroke:#009af9; stroke-width:4; stroke-opacity:1"/>
<line clip-path="url(#clip542)" x1="1801.24" y1="1343.05" x2="1769.24" y2="1343.05" style="stroke:#009af9; stroke-width:4; stroke-opacity:1"/>
<line clip-path="url(#clip542)" x1="1801.24" y1="256.946" x2="1769.24" y2="256.946" style="stroke:#009af9; stroke-width:4; stroke-opacity:1"/>
<line clip-path="url(#clip542)" x1="2054.59" y1="1217.73" x2="2022.59" y2="1217.73" style="stroke:#009af9; stroke-width:4; stroke-opacity:1"/>
<line clip-path="url(#clip542)" x1="2054.59" y1="382.266" x2="2022.59" y2="382.266" style="stroke:#009af9; stroke-width:4; stroke-opacity:1"/>
<line clip-path="url(#clip542)" x1="2307.95" y1="1259.51" x2="2275.95" y2="1259.51" style="stroke:#009af9; stroke-width:4; stroke-opacity:1"/>
<line clip-path="url(#clip542)" x1="2307.95" y1="89.8529" x2="2275.95" y2="89.8529" style="stroke:#009af9; stroke-width:4; stroke-opacity:1"/>
<circle clip-path="url(#clip542)" cx="265.093" cy="1071.53" r="14.4" fill="#009af9" fill-rule="evenodd" fill-opacity="1" stroke="none"/>
<circle clip-path="url(#clip542)" cx="518.45" cy="1067.35" r="14.4" fill="#009af9" fill-rule="evenodd" fill-opacity="1" stroke="none"/>
<circle clip-path="url(#clip542)" cx="771.808" cy="962.916" r="14.4" fill="#009af9" fill-rule="evenodd" fill-opacity="1" stroke="none"/>
<circle clip-path="url(#clip542)" cx="1025.16" cy="962.916" r="14.4" fill="#009af9" fill-rule="evenodd" fill-opacity="1" stroke="none"/>
<circle clip-path="url(#clip542)" cx="1278.52" cy="925.32" r="14.4" fill="#009af9" fill-rule="evenodd" fill-opacity="1" stroke="none"/>
<circle clip-path="url(#clip542)" cx="1531.88" cy="833.419" r="14.4" fill="#009af9" fill-rule="evenodd" fill-opacity="1" stroke="none"/>
<circle clip-path="url(#clip542)" cx="1785.24" cy="800" r="14.4" fill="#009af9" fill-rule="evenodd" fill-opacity="1" stroke="none"/>
<circle clip-path="url(#clip542)" cx="2038.59" cy="800" r="14.4" fill="#009af9" fill-rule="evenodd" fill-opacity="1" stroke="none"/>
<circle clip-path="url(#clip542)" cx="2291.95" cy="674.68" r="14.4" fill="#009af9" fill-rule="evenodd" fill-opacity="1" stroke="none"/>
<path clip-path="url(#clip542)" d="M265.093 1119.94 L518.45 1119.94 L771.808 1119.94 L1025.16 1119.94 L1278.52 1119.94 L1531.88 1119.94 L1785.24 1119.94 L2038.59 1119.94 L2291.95 1119.94 L2291.95 963.385 L2038.59 963.385 L1785.24 963.385 L1531.88 963.385 L1278.52 963.385 L1025.16 963.385 L771.808 963.385 L518.45 963.385 L265.093 963.385  Z" fill="#e26f46" fill-rule="evenodd" fill-opacity="0.6"/>
<polyline clip-path="url(#clip542)" style="stroke:#e26f46; stroke-linecap:round; stroke-linejoin:round; stroke-width:4; stroke-opacity:0; fill:none" points="265.093,1119.94 518.45,1119.94 771.808,1119.94 1025.16,1119.94 1278.52,1119.94 1531.88,1119.94 1785.24,1119.94 2038.59,1119.94 2291.95,1119.94 "/>
<polyline clip-path="url(#clip542)" style="stroke:#000000; stroke-linecap:round; stroke-linejoin:round; stroke-width:4; stroke-opacity:1; fill:none" stroke-dasharray="2, 4" points="265.093,1029.47 518.45,1029.47 771.808,1029.47 1025.16,1029.47 1278.52,1029.47 1531.88,1029.47 1785.24,1029.47 2038.59,1029.47 2291.95,1029.47 "/>
<path clip-path="url(#clip540)" d="M275.903 252.948 L1286.63 252.948 L1286.63 97.4278 L275.903 97.4278  Z" fill="#ffffff" fill-rule="evenodd" fill-opacity="1"/>
<polyline clip-path="url(#clip540)" style="stroke:#ffffff; stroke-linecap:round; stroke-linejoin:round; stroke-width:4; stroke-opacity:1; fill:none" points="275.903,252.948 1286.63,252.948 1286.63,97.4278 275.903,97.4278 275.903,252.948 "/>
<circle clip-path="url(#clip540)" cx="371.391" cy="149.268" r="20.48" fill="#009af9" fill-rule="evenodd" fill-opacity="1" stroke="none"/>
<path clip-path="url(#clip540)" d="M471.554 135.83 L471.554 162.705 L477.202 162.705 Q484.355 162.705 487.665 159.465 Q490.998 156.224 490.998 149.233 Q490.998 142.289 487.665 139.071 Q484.355 135.83 477.202 135.83 L471.554 135.83 M466.878 131.988 L476.485 131.988 Q486.531 131.988 491.23 136.178 Q495.929 140.344 495.929 149.233 Q495.929 158.168 491.207 162.358 Q486.485 166.548 476.485 166.548 L466.878 166.548 L466.878 131.988 Z" fill="#000000" fill-rule="nonzero" fill-opacity="1" /><path clip-path="url(#clip540)" d="M514.98 153.515 Q509.818 153.515 507.827 154.696 Q505.836 155.877 505.836 158.724 Q505.836 160.992 507.318 162.335 Q508.822 163.654 511.392 163.654 Q514.934 163.654 517.063 161.154 Q519.216 158.631 519.216 154.465 L519.216 153.515 L514.98 153.515 M523.475 151.756 L523.475 166.548 L519.216 166.548 L519.216 162.613 Q517.758 164.974 515.582 166.108 Q513.406 167.219 510.258 167.219 Q506.276 167.219 503.915 164.997 Q501.577 162.752 501.577 159.002 Q501.577 154.627 504.494 152.404 Q507.434 150.182 513.244 150.182 L519.216 150.182 L519.216 149.766 Q519.216 146.826 517.271 145.228 Q515.35 143.608 511.855 143.608 Q509.633 143.608 507.526 144.141 Q505.42 144.673 503.475 145.738 L503.475 141.803 Q505.813 140.9 508.012 140.46 Q510.211 139.997 512.295 139.997 Q517.92 139.997 520.697 142.914 Q523.475 145.83 523.475 151.756 Z" fill="#000000" fill-rule="nonzero" fill-opacity="1" /><path clip-path="url(#clip540)" d="M536.461 133.261 L536.461 140.622 L545.234 140.622 L545.234 143.932 L536.461 143.932 L536.461 158.006 Q536.461 161.177 537.318 162.08 Q538.197 162.983 540.859 162.983 L545.234 162.983 L545.234 166.548 L540.859 166.548 Q535.929 166.548 534.054 164.719 Q532.179 162.867 532.179 158.006 L532.179 143.932 L529.054 143.932 L529.054 140.622 L532.179 140.622 L532.179 133.261 L536.461 133.261 Z" fill="#000000" fill-rule="nonzero" fill-opacity="1" /><path clip-path="url(#clip540)" d="M562.618 153.515 Q557.456 153.515 555.466 154.696 Q553.475 155.877 553.475 158.724 Q553.475 160.992 554.956 162.335 Q556.461 163.654 559.03 163.654 Q562.572 163.654 564.702 161.154 Q566.855 158.631 566.855 154.465 L566.855 153.515 L562.618 153.515 M571.114 151.756 L571.114 166.548 L566.855 166.548 L566.855 162.613 Q565.396 164.974 563.22 166.108 Q561.044 167.219 557.896 167.219 Q553.915 167.219 551.554 164.997 Q549.216 162.752 549.216 159.002 Q549.216 154.627 552.132 152.404 Q555.072 150.182 560.882 150.182 L566.855 150.182 L566.855 149.766 Q566.855 146.826 564.91 145.228 Q562.989 143.608 559.493 143.608 Q557.271 143.608 555.165 144.141 Q553.058 144.673 551.114 145.738 L551.114 141.803 Q553.452 140.9 555.651 140.46 Q557.85 139.997 559.933 139.997 Q565.558 139.997 568.336 142.914 Q571.114 145.83 571.114 151.756 Z" fill="#000000" fill-rule="nonzero" fill-opacity="1" /><path clip-path="url(#clip540)" d="M605.188 130.576 Q602.086 135.9 600.581 141.108 Q599.077 146.316 599.077 151.664 Q599.077 157.011 600.581 162.265 Q602.109 167.497 605.188 172.798 L601.484 172.798 Q598.012 167.358 596.276 162.103 Q594.563 156.849 594.563 151.664 Q594.563 146.502 596.276 141.27 Q597.989 136.039 601.484 130.576 L605.188 130.576 Z" fill="#000000" fill-rule="nonzero" fill-opacity="1" /><path clip-path="url(#clip540)" d="M623.498 143.608 Q620.072 143.608 618.081 146.293 Q616.09 148.955 616.09 153.608 Q616.09 158.261 618.058 160.946 Q620.049 163.608 623.498 163.608 Q626.901 163.608 628.891 160.923 Q630.882 158.238 630.882 153.608 Q630.882 149.002 628.891 146.316 Q626.901 143.608 623.498 143.608 M623.498 139.997 Q629.053 139.997 632.225 143.608 Q635.396 147.219 635.396 153.608 Q635.396 159.974 632.225 163.608 Q629.053 167.219 623.498 167.219 Q617.919 167.219 614.748 163.608 Q611.6 159.974 611.6 153.608 Q611.6 147.219 614.748 143.608 Q617.919 139.997 623.498 139.997 Z" fill="#000000" fill-rule="nonzero" fill-opacity="1" /><path clip-path="url(#clip540)" d="M661.067 153.608 Q661.067 148.909 659.123 146.247 Q657.201 143.562 653.822 143.562 Q650.442 143.562 648.498 146.247 Q646.576 148.909 646.576 153.608 Q646.576 158.307 648.498 160.992 Q650.442 163.654 653.822 163.654 Q657.201 163.654 659.123 160.992 Q661.067 158.307 661.067 153.608 M646.576 144.557 Q647.919 142.242 649.956 141.131 Q652.016 139.997 654.863 139.997 Q659.586 139.997 662.525 143.747 Q665.488 147.497 665.488 153.608 Q665.488 159.719 662.525 163.469 Q659.586 167.219 654.863 167.219 Q652.016 167.219 649.956 166.108 Q647.919 164.974 646.576 162.659 L646.576 166.548 L642.294 166.548 L642.294 130.529 L646.576 130.529 L646.576 144.557 Z" fill="#000000" fill-rule="nonzero" fill-opacity="1" /><path clip-path="url(#clip540)" d="M689.076 141.386 L689.076 145.414 Q687.271 144.488 685.326 144.025 Q683.382 143.562 681.298 143.562 Q678.127 143.562 676.53 144.534 Q674.956 145.506 674.956 147.451 Q674.956 148.932 676.09 149.789 Q677.224 150.622 680.65 151.386 L682.109 151.71 Q686.646 152.682 688.544 154.465 Q690.465 156.224 690.465 159.395 Q690.465 163.006 687.595 165.113 Q684.747 167.219 679.747 167.219 Q677.664 167.219 675.396 166.802 Q673.15 166.409 670.65 165.599 L670.65 161.201 Q673.011 162.427 675.303 163.052 Q677.595 163.654 679.84 163.654 Q682.849 163.654 684.47 162.636 Q686.09 161.594 686.09 159.719 Q686.09 157.983 684.909 157.057 Q683.752 156.131 679.794 155.275 L678.312 154.928 Q674.354 154.094 672.595 152.381 Q670.835 150.645 670.835 147.636 Q670.835 143.978 673.428 141.988 Q676.021 139.997 680.789 139.997 Q683.15 139.997 685.234 140.344 Q687.317 140.691 689.076 141.386 Z" fill="#000000" fill-rule="nonzero" fill-opacity="1" /><path clip-path="url(#clip540)" d="M719.423 152.52 L719.423 154.603 L699.84 154.603 Q700.118 159.002 702.479 161.316 Q704.863 163.608 709.099 163.608 Q711.553 163.608 713.844 163.006 Q716.159 162.404 718.428 161.201 L718.428 165.228 Q716.136 166.201 713.729 166.71 Q711.321 167.219 708.845 167.219 Q702.641 167.219 699.007 163.608 Q695.396 159.997 695.396 153.84 Q695.396 147.474 698.821 143.747 Q702.27 139.997 708.104 139.997 Q713.335 139.997 716.368 143.377 Q719.423 146.733 719.423 152.52 M715.164 151.27 Q715.118 147.775 713.196 145.691 Q711.298 143.608 708.15 143.608 Q704.585 143.608 702.433 145.622 Q700.303 147.636 699.979 151.293 L715.164 151.27 Z" fill="#000000" fill-rule="nonzero" fill-opacity="1" /><path clip-path="url(#clip540)" d="M741.437 144.603 Q740.719 144.187 739.863 144.002 Q739.03 143.793 738.011 143.793 Q734.4 143.793 732.455 146.154 Q730.534 148.492 730.534 152.89 L730.534 166.548 L726.252 166.548 L726.252 140.622 L730.534 140.622 L730.534 144.65 Q731.877 142.289 734.03 141.154 Q736.182 139.997 739.261 139.997 Q739.701 139.997 740.233 140.066 Q740.766 140.113 741.414 140.229 L741.437 144.603 Z" fill="#000000" fill-rule="nonzero" fill-opacity="1" /><path clip-path="url(#clip540)" d="M742.849 140.622 L747.363 140.622 L755.465 162.381 L763.566 140.622 L768.08 140.622 L758.358 166.548 L752.571 166.548 L742.849 140.622 Z" fill="#000000" fill-rule="nonzero" fill-opacity="1" /><path clip-path="url(#clip540)" d="M796.136 152.52 L796.136 154.603 L776.552 154.603 Q776.83 159.002 779.191 161.316 Q781.576 163.608 785.812 163.608 Q788.265 163.608 790.557 163.006 Q792.872 162.404 795.14 161.201 L795.14 165.228 Q792.849 166.201 790.441 166.71 Q788.034 167.219 785.557 167.219 Q779.353 167.219 775.719 163.608 Q772.108 159.997 772.108 153.84 Q772.108 147.474 775.534 143.747 Q778.983 139.997 784.816 139.997 Q790.048 139.997 793.08 143.377 Q796.136 146.733 796.136 152.52 M791.876 151.27 Q791.83 147.775 789.909 145.691 Q788.011 143.608 784.863 143.608 Q781.298 143.608 779.145 145.622 Q777.015 147.636 776.691 151.293 L791.876 151.27 Z" fill="#000000" fill-rule="nonzero" fill-opacity="1" /><path clip-path="url(#clip540)" d="M820.187 144.557 L820.187 130.529 L824.446 130.529 L824.446 166.548 L820.187 166.548 L820.187 162.659 Q818.844 164.974 816.784 166.108 Q814.747 167.219 811.876 167.219 Q807.177 167.219 804.214 163.469 Q801.275 159.719 801.275 153.608 Q801.275 147.497 804.214 143.747 Q807.177 139.997 811.876 139.997 Q814.747 139.997 816.784 141.131 Q818.844 142.242 820.187 144.557 M805.673 153.608 Q805.673 158.307 807.594 160.992 Q809.538 163.654 812.918 163.654 Q816.298 163.654 818.242 160.992 Q820.187 158.307 820.187 153.608 Q820.187 148.909 818.242 146.247 Q816.298 143.562 812.918 143.562 Q809.538 143.562 807.594 146.247 Q805.673 148.909 805.673 153.608 Z" fill="#000000" fill-rule="nonzero" fill-opacity="1" /><path clip-path="url(#clip540)" d="M860.071 153.515 Q854.909 153.515 852.918 154.696 Q850.927 155.877 850.927 158.724 Q850.927 160.992 852.409 162.335 Q853.913 163.654 856.483 163.654 Q860.024 163.654 862.154 161.154 Q864.307 158.631 864.307 154.465 L864.307 153.515 L860.071 153.515 M868.566 151.756 L868.566 166.548 L864.307 166.548 L864.307 162.613 Q862.848 164.974 860.672 166.108 Q858.496 167.219 855.348 167.219 Q851.367 167.219 849.006 164.997 Q846.668 162.752 846.668 159.002 Q846.668 154.627 849.584 152.404 Q852.524 150.182 858.334 150.182 L864.307 150.182 L864.307 149.766 Q864.307 146.826 862.362 145.228 Q860.441 143.608 856.946 143.608 Q854.723 143.608 852.617 144.141 Q850.51 144.673 848.566 145.738 L848.566 141.803 Q850.904 140.9 853.103 140.46 Q855.302 139.997 857.385 139.997 Q863.01 139.997 865.788 142.914 Q868.566 145.83 868.566 151.756 Z" fill="#000000" fill-rule="nonzero" fill-opacity="1" /><path clip-path="url(#clip540)" d="M894.399 153.284 Q894.399 148.654 892.478 146.108 Q890.58 143.562 887.131 143.562 Q883.705 143.562 881.783 146.108 Q879.885 148.654 879.885 153.284 Q879.885 157.89 881.783 160.437 Q883.705 162.983 887.131 162.983 Q890.58 162.983 892.478 160.437 Q894.399 157.89 894.399 153.284 M898.658 163.33 Q898.658 169.951 895.719 173.168 Q892.779 176.409 886.714 176.409 Q884.469 176.409 882.478 176.062 Q880.487 175.738 878.612 175.043 L878.612 170.9 Q880.487 171.918 882.316 172.404 Q884.144 172.89 886.043 172.89 Q890.232 172.89 892.316 170.691 Q894.399 168.515 894.399 164.094 L894.399 161.988 Q893.08 164.279 891.019 165.414 Q888.959 166.548 886.089 166.548 Q881.32 166.548 878.404 162.914 Q875.487 159.279 875.487 153.284 Q875.487 147.266 878.404 143.631 Q881.32 139.997 886.089 139.997 Q888.959 139.997 891.019 141.131 Q893.08 142.266 894.399 144.557 L894.399 140.622 L898.658 140.622 L898.658 163.33 Z" fill="#000000" fill-rule="nonzero" fill-opacity="1" /><path clip-path="url(#clip540)" d="M929.607 152.52 L929.607 154.603 L910.024 154.603 Q910.302 159.002 912.663 161.316 Q915.047 163.608 919.283 163.608 Q921.737 163.608 924.029 163.006 Q926.343 162.404 928.612 161.201 L928.612 165.228 Q926.32 166.201 923.913 166.71 Q921.505 167.219 919.029 167.219 Q912.825 167.219 909.191 163.608 Q905.58 159.997 905.58 153.84 Q905.58 147.474 909.005 143.747 Q912.455 139.997 918.288 139.997 Q923.519 139.997 926.552 143.377 Q929.607 146.733 929.607 152.52 M925.348 151.27 Q925.302 147.775 923.38 145.691 Q921.482 143.608 918.334 143.608 Q914.769 143.608 912.617 145.622 Q910.487 147.636 910.163 151.293 L925.348 151.27 Z" fill="#000000" fill-rule="nonzero" fill-opacity="1" /><path clip-path="url(#clip540)" d="M953.126 141.386 L953.126 145.414 Q951.32 144.488 949.376 144.025 Q947.431 143.562 945.348 143.562 Q942.177 143.562 940.579 144.534 Q939.005 145.506 939.005 147.451 Q939.005 148.932 940.14 149.789 Q941.274 150.622 944.7 151.386 L946.158 151.71 Q950.695 152.682 952.593 154.465 Q954.514 156.224 954.514 159.395 Q954.514 163.006 951.644 165.113 Q948.797 167.219 943.797 167.219 Q941.714 167.219 939.445 166.802 Q937.2 166.409 934.7 165.599 L934.7 161.201 Q937.061 162.427 939.353 163.052 Q941.644 163.654 943.89 163.654 Q946.899 163.654 948.519 162.636 Q950.14 161.594 950.14 159.719 Q950.14 157.983 948.959 157.057 Q947.802 156.131 943.843 155.275 L942.362 154.928 Q938.403 154.094 936.644 152.381 Q934.885 150.645 934.885 147.636 Q934.885 143.978 937.478 141.988 Q940.07 139.997 944.839 139.997 Q947.2 139.997 949.283 140.344 Q951.366 140.691 953.126 141.386 Z" fill="#000000" fill-rule="nonzero" fill-opacity="1" /><path clip-path="url(#clip540)" d="M960.626 130.576 L964.329 130.576 Q967.801 136.039 969.514 141.27 Q971.251 146.502 971.251 151.664 Q971.251 156.849 969.514 162.103 Q967.801 167.358 964.329 172.798 L960.626 172.798 Q963.704 167.497 965.209 162.265 Q966.737 157.011 966.737 151.664 Q966.737 146.316 965.209 141.108 Q963.704 135.9 960.626 130.576 Z" fill="#000000" fill-rule="nonzero" fill-opacity="1" /><path clip-path="url(#clip540)" d="M299.775 221.844 L443.006 221.844 L443.006 180.372 L299.775 180.372 L299.775 221.844  Z" fill="#e26f46" fill-rule="evenodd" fill-opacity="0.6"/>
<polyline clip-path="url(#clip540)" style="stroke:#e26f46; stroke-linecap:round; stroke-linejoin:round; stroke-width:4; stroke-opacity:0; fill:none" points="299.775,180.372 443.006,180.372 "/>
<path clip-path="url(#clip540)" d="M466.878 183.828 L473.846 183.828 L482.665 207.346 L491.531 183.828 L498.498 183.828 L498.498 218.388 L493.938 218.388 L493.938 188.041 L485.026 211.744 L480.327 211.744 L471.415 188.041 L471.415 218.388 L466.878 218.388 L466.878 183.828 Z" fill="#000000" fill-rule="nonzero" fill-opacity="1" /><path clip-path="url(#clip540)" d="M517.642 195.448 Q514.216 195.448 512.225 198.133 Q510.234 200.795 510.234 205.448 Q510.234 210.101 512.202 212.786 Q514.193 215.448 517.642 215.448 Q521.045 215.448 523.035 212.763 Q525.026 210.078 525.026 205.448 Q525.026 200.842 523.035 198.156 Q521.045 195.448 517.642 195.448 M517.642 191.837 Q523.197 191.837 526.369 195.448 Q529.54 199.059 529.54 205.448 Q529.54 211.814 526.369 215.448 Q523.197 219.059 517.642 219.059 Q512.063 219.059 508.892 215.448 Q505.744 211.814 505.744 205.448 Q505.744 199.059 508.892 195.448 Q512.063 191.837 517.642 191.837 Z" fill="#000000" fill-rule="nonzero" fill-opacity="1" /><path clip-path="url(#clip540)" d="M553.66 196.397 L553.66 182.369 L557.919 182.369 L557.919 218.388 L553.66 218.388 L553.66 214.499 Q552.318 216.814 550.257 217.948 Q548.22 219.059 545.35 219.059 Q540.651 219.059 537.688 215.309 Q534.748 211.559 534.748 205.448 Q534.748 199.337 537.688 195.587 Q540.651 191.837 545.35 191.837 Q548.22 191.837 550.257 192.971 Q552.318 194.082 553.66 196.397 M539.146 205.448 Q539.146 210.147 541.068 212.832 Q543.012 215.494 546.392 215.494 Q549.771 215.494 551.716 212.832 Q553.66 210.147 553.66 205.448 Q553.66 200.749 551.716 198.087 Q549.771 195.402 546.392 195.402 Q543.012 195.402 541.068 198.087 Q539.146 200.749 539.146 205.448 Z" fill="#000000" fill-rule="nonzero" fill-opacity="1" /><path clip-path="url(#clip540)" d="M588.868 204.36 L588.868 206.443 L569.285 206.443 Q569.563 210.842 571.924 213.156 Q574.308 215.448 578.544 215.448 Q580.998 215.448 583.29 214.846 Q585.604 214.244 587.873 213.041 L587.873 217.068 Q585.581 218.041 583.174 218.55 Q580.766 219.059 578.29 219.059 Q572.086 219.059 568.452 215.448 Q564.841 211.837 564.841 205.68 Q564.841 199.314 568.267 195.587 Q571.716 191.837 577.549 191.837 Q582.78 191.837 585.813 195.217 Q588.868 198.573 588.868 204.36 M584.609 203.11 Q584.563 199.615 582.641 197.531 Q580.743 195.448 577.595 195.448 Q574.03 195.448 571.878 197.462 Q569.748 199.476 569.424 203.133 L584.609 203.11 Z" fill="#000000" fill-rule="nonzero" fill-opacity="1" /><path clip-path="url(#clip540)" d="M595.859 182.369 L600.118 182.369 L600.118 218.388 L595.859 218.388 L595.859 182.369 Z" fill="#000000" fill-rule="nonzero" fill-opacity="1" /><path clip-path="url(#clip540)" d="M634.331 182.416 Q631.229 187.74 629.725 192.948 Q628.22 198.156 628.22 203.504 Q628.22 208.851 629.725 214.105 Q631.252 219.337 634.331 224.638 L630.627 224.638 Q627.155 219.198 625.419 213.943 Q623.706 208.689 623.706 203.504 Q623.706 198.342 625.419 193.11 Q627.132 187.879 630.627 182.416 L634.331 182.416 Z" fill="#000000" fill-rule="nonzero" fill-opacity="1" /><path clip-path="url(#clip540)" d="M653.775 199.244 Q650.627 199.244 648.775 201.397 Q646.947 203.55 646.947 207.3 Q646.947 211.027 648.775 213.203 Q650.627 215.355 653.775 215.355 Q656.923 215.355 658.752 213.203 Q660.604 211.027 660.604 207.3 Q660.604 203.55 658.752 201.397 Q656.923 199.244 653.775 199.244 M663.058 184.592 L663.058 188.851 Q661.298 188.018 659.493 187.578 Q657.711 187.138 655.951 187.138 Q651.322 187.138 648.868 190.263 Q646.437 193.388 646.09 199.707 Q647.456 197.693 649.516 196.629 Q651.576 195.541 654.053 195.541 Q659.261 195.541 662.271 198.712 Q665.303 201.86 665.303 207.3 Q665.303 212.624 662.155 215.842 Q659.007 219.059 653.775 219.059 Q647.78 219.059 644.609 214.476 Q641.437 209.869 641.437 201.143 Q641.437 192.948 645.326 188.087 Q649.215 183.203 655.766 183.203 Q657.525 183.203 659.308 183.55 Q661.113 183.897 663.058 184.592 Z" fill="#000000" fill-rule="nonzero" fill-opacity="1" /><path clip-path="url(#clip540)" d="M673.405 183.828 L691.761 183.828 L691.761 187.763 L677.687 187.763 L677.687 196.235 Q678.706 195.888 679.724 195.726 Q680.743 195.541 681.761 195.541 Q687.548 195.541 690.928 198.712 Q694.308 201.883 694.308 207.3 Q694.308 212.879 690.835 215.98 Q687.363 219.059 681.044 219.059 Q678.868 219.059 676.599 218.689 Q674.354 218.318 671.947 217.578 L671.947 212.879 Q674.03 214.013 676.252 214.568 Q678.474 215.124 680.951 215.124 Q684.956 215.124 687.294 213.017 Q689.632 210.911 689.632 207.3 Q689.632 203.689 687.294 201.582 Q684.956 199.476 680.951 199.476 Q679.076 199.476 677.201 199.893 Q675.349 200.309 673.405 201.189 L673.405 183.828 Z" fill="#000000" fill-rule="nonzero" fill-opacity="1" /><path clip-path="url(#clip540)" d="M703.52 212.508 L708.405 212.508 L708.405 218.388 L703.52 218.388 L703.52 212.508 Z" fill="#000000" fill-rule="nonzero" fill-opacity="1" /><path clip-path="url(#clip540)" d="M728.59 201.976 Q725.256 201.976 723.335 203.758 Q721.437 205.541 721.437 208.666 Q721.437 211.791 723.335 213.573 Q725.256 215.355 728.59 215.355 Q731.923 215.355 733.844 213.573 Q735.766 211.767 735.766 208.666 Q735.766 205.541 733.844 203.758 Q731.946 201.976 728.59 201.976 M723.914 199.985 Q720.905 199.244 719.215 197.184 Q717.548 195.124 717.548 192.161 Q717.548 188.018 720.488 185.61 Q723.451 183.203 728.59 183.203 Q733.752 183.203 736.692 185.61 Q739.631 188.018 739.631 192.161 Q739.631 195.124 737.942 197.184 Q736.275 199.244 733.289 199.985 Q736.668 200.772 738.543 203.064 Q740.442 205.355 740.442 208.666 Q740.442 213.689 737.363 216.374 Q734.307 219.059 728.59 219.059 Q722.872 219.059 719.794 216.374 Q716.738 213.689 716.738 208.666 Q716.738 205.355 718.636 203.064 Q720.534 200.772 723.914 199.985 M722.201 192.601 Q722.201 195.286 723.868 196.791 Q725.557 198.295 728.59 198.295 Q731.599 198.295 733.289 196.791 Q735.002 195.286 735.002 192.601 Q735.002 189.916 733.289 188.411 Q731.599 186.907 728.59 186.907 Q725.557 186.907 723.868 188.411 Q722.201 189.916 722.201 192.601 Z" fill="#000000" fill-rule="nonzero" fill-opacity="1" /><path clip-path="url(#clip540)" d="M748.798 183.828 L767.154 183.828 L767.154 187.763 L753.08 187.763 L753.08 196.235 Q754.099 195.888 755.117 195.726 Q756.136 195.541 757.154 195.541 Q762.941 195.541 766.321 198.712 Q769.701 201.883 769.701 207.3 Q769.701 212.879 766.228 215.98 Q762.756 219.059 756.437 219.059 Q754.261 219.059 751.992 218.689 Q749.747 218.318 747.34 217.578 L747.34 212.879 Q749.423 214.013 751.645 214.568 Q753.867 215.124 756.344 215.124 Q760.349 215.124 762.687 213.017 Q765.025 210.911 765.025 207.3 Q765.025 203.689 762.687 201.582 Q760.349 199.476 756.344 199.476 Q754.469 199.476 752.594 199.893 Q750.742 200.309 748.798 201.189 L748.798 183.828 Z" fill="#000000" fill-rule="nonzero" fill-opacity="1" /><path clip-path="url(#clip540)" d="M779.724 214.453 L787.363 214.453 L787.363 188.087 L779.052 189.754 L779.052 185.494 L787.316 183.828 L791.992 183.828 L791.992 214.453 L799.631 214.453 L799.631 218.388 L779.724 218.388 L779.724 214.453 Z" fill="#000000" fill-rule="nonzero" fill-opacity="1" /><path clip-path="url(#clip540)" d="M840.881 188.666 L840.881 201.559 L853.774 201.559 L853.774 205.494 L840.881 205.494 L840.881 218.388 L836.992 218.388 L836.992 205.494 L824.099 205.494 L824.099 201.559 L836.992 201.559 L836.992 188.666 L840.881 188.666 Z" fill="#000000" fill-rule="nonzero" fill-opacity="1" /><path clip-path="url(#clip540)" d="M873.867 186.907 Q870.256 186.907 868.427 190.471 Q866.621 194.013 866.621 201.143 Q866.621 208.249 868.427 211.814 Q870.256 215.355 873.867 215.355 Q877.501 215.355 879.307 211.814 Q881.135 208.249 881.135 201.143 Q881.135 194.013 879.307 190.471 Q877.501 186.907 873.867 186.907 M873.867 183.203 Q879.677 183.203 882.732 187.809 Q885.811 192.393 885.811 201.143 Q885.811 209.869 882.732 214.476 Q879.677 219.059 873.867 219.059 Q868.057 219.059 864.978 214.476 Q861.922 209.869 861.922 201.143 Q861.922 192.393 864.978 187.809 Q868.057 183.203 873.867 183.203 Z" fill="#000000" fill-rule="nonzero" fill-opacity="1" /><path clip-path="url(#clip540)" d="M894.029 212.508 L898.913 212.508 L898.913 218.388 L894.029 218.388 L894.029 212.508 Z" fill="#000000" fill-rule="nonzero" fill-opacity="1" /><path clip-path="url(#clip540)" d="M909.908 214.453 L917.547 214.453 L917.547 188.087 L909.237 189.754 L909.237 185.494 L917.501 183.828 L922.177 183.828 L922.177 214.453 L929.816 214.453 L929.816 218.388 L909.908 218.388 L909.908 214.453 Z" fill="#000000" fill-rule="nonzero" fill-opacity="1" /><path clip-path="url(#clip540)" d="M939.306 183.828 L957.663 183.828 L957.663 187.763 L943.589 187.763 L943.589 196.235 Q944.607 195.888 945.626 195.726 Q946.644 195.541 947.663 195.541 Q953.45 195.541 956.829 198.712 Q960.209 201.883 960.209 207.3 Q960.209 212.879 956.737 215.98 Q953.264 219.059 946.945 219.059 Q944.769 219.059 942.501 218.689 Q940.255 218.318 937.848 217.578 L937.848 212.879 Q939.931 214.013 942.153 214.568 Q944.376 215.124 946.852 215.124 Q950.857 215.124 953.195 213.017 Q955.533 210.911 955.533 207.3 Q955.533 203.689 953.195 201.582 Q950.857 199.476 946.852 199.476 Q944.978 199.476 943.103 199.893 Q941.251 200.309 939.306 201.189 L939.306 183.828 Z" fill="#000000" fill-rule="nonzero" fill-opacity="1" /><path clip-path="url(#clip540)" d="M979.422 201.976 Q976.088 201.976 974.167 203.758 Q972.269 205.541 972.269 208.666 Q972.269 211.791 974.167 213.573 Q976.088 215.355 979.422 215.355 Q982.755 215.355 984.676 213.573 Q986.598 211.767 986.598 208.666 Q986.598 205.541 984.676 203.758 Q982.778 201.976 979.422 201.976 M974.746 199.985 Q971.737 199.244 970.047 197.184 Q968.38 195.124 968.38 192.161 Q968.38 188.018 971.32 185.61 Q974.283 183.203 979.422 183.203 Q984.584 183.203 987.524 185.61 Q990.463 188.018 990.463 192.161 Q990.463 195.124 988.774 197.184 Q987.107 199.244 984.121 199.985 Q987.5 200.772 989.375 203.064 Q991.274 205.355 991.274 208.666 Q991.274 213.689 988.195 216.374 Q985.139 219.059 979.422 219.059 Q973.704 219.059 970.626 216.374 Q967.57 213.689 967.57 208.666 Q967.57 205.355 969.468 203.064 Q971.366 200.772 974.746 199.985 M973.033 192.601 Q973.033 195.286 974.7 196.791 Q976.389 198.295 979.422 198.295 Q982.431 198.295 984.121 196.791 Q985.834 195.286 985.834 192.601 Q985.834 189.916 984.121 188.411 Q982.431 186.907 979.422 186.907 Q976.389 186.907 974.7 188.411 Q973.033 189.916 973.033 192.601 Z" fill="#000000" fill-rule="nonzero" fill-opacity="1" /><path clip-path="url(#clip540)" d="M1006.55 183.828 L1010.49 183.828 L998.449 222.786 L994.514 222.786 L1006.55 183.828 Z" fill="#000000" fill-rule="nonzero" fill-opacity="1" /><path clip-path="url(#clip540)" d="M1012.8 203.504 L1025.28 203.504 L1025.28 207.3 L1012.8 207.3 L1012.8 203.504 Z" fill="#000000" fill-rule="nonzero" fill-opacity="1" /><path clip-path="url(#clip540)" d="M1042.66 186.907 Q1039.05 186.907 1037.22 190.471 Q1035.42 194.013 1035.42 201.143 Q1035.42 208.249 1037.22 211.814 Q1039.05 215.355 1042.66 215.355 Q1046.3 215.355 1048.1 211.814 Q1049.93 208.249 1049.93 201.143 Q1049.93 194.013 1048.1 190.471 Q1046.3 186.907 1042.66 186.907 M1042.66 183.203 Q1048.47 183.203 1051.53 187.809 Q1054.61 192.393 1054.61 201.143 Q1054.61 209.869 1051.53 214.476 Q1048.47 219.059 1042.66 219.059 Q1036.85 219.059 1033.77 214.476 Q1030.72 209.869 1030.72 201.143 Q1030.72 192.393 1033.77 187.809 Q1036.85 183.203 1042.66 183.203 Z" fill="#000000" fill-rule="nonzero" fill-opacity="1" /><path clip-path="url(#clip540)" d="M1062.82 212.508 L1067.71 212.508 L1067.71 218.388 L1062.82 218.388 L1062.82 212.508 Z" fill="#000000" fill-rule="nonzero" fill-opacity="1" /><path clip-path="url(#clip540)" d="M1081.92 214.453 L1098.24 214.453 L1098.24 218.388 L1076.3 218.388 L1076.3 214.453 Q1078.96 211.698 1083.54 207.068 Q1088.15 202.416 1089.33 201.073 Q1091.57 198.55 1092.45 196.814 Q1093.36 195.055 1093.36 193.365 Q1093.36 190.61 1091.41 188.874 Q1089.49 187.138 1086.39 187.138 Q1084.19 187.138 1081.74 187.902 Q1079.31 188.666 1076.53 190.217 L1076.53 185.494 Q1079.35 184.36 1081.81 183.782 Q1084.26 183.203 1086.3 183.203 Q1091.67 183.203 1094.86 185.888 Q1098.06 188.573 1098.06 193.064 Q1098.06 195.194 1097.25 197.115 Q1096.46 199.013 1094.35 201.606 Q1093.77 202.277 1090.67 205.494 Q1087.57 208.689 1081.92 214.453 Z" fill="#000000" fill-rule="nonzero" fill-opacity="1" /><path clip-path="url(#clip540)" d="M1108.87 214.453 L1116.5 214.453 L1116.5 188.087 L1108.19 189.754 L1108.19 185.494 L1116.46 183.828 L1121.13 183.828 L1121.13 214.453 L1128.77 214.453 L1128.77 218.388 L1108.87 218.388 L1108.87 214.453 Z" fill="#000000" fill-rule="nonzero" fill-opacity="1" /><path clip-path="url(#clip540)" d="M1137.04 183.828 L1159.26 183.828 L1159.26 185.819 L1146.71 218.388 L1141.83 218.388 L1153.63 187.763 L1137.04 187.763 L1137.04 183.828 Z" fill="#000000" fill-rule="nonzero" fill-opacity="1" /><path clip-path="url(#clip540)" d="M1183.03 183.828 L1190 183.828 L1198.82 207.346 L1207.68 183.828 L1214.65 183.828 L1214.65 218.388 L1210.09 218.388 L1210.09 188.041 L1201.18 211.744 L1196.48 211.744 L1187.57 188.041 L1187.57 218.388 L1183.03 218.388 L1183.03 183.828 Z" fill="#000000" fill-rule="nonzero" fill-opacity="1" /><path clip-path="url(#clip540)" d="M1235.53 205.355 Q1230.37 205.355 1228.38 206.536 Q1226.39 207.717 1226.39 210.564 Q1226.39 212.832 1227.87 214.175 Q1229.37 215.494 1231.94 215.494 Q1235.49 215.494 1237.61 212.994 Q1239.77 210.471 1239.77 206.305 L1239.77 205.355 L1235.53 205.355 M1244.03 203.596 L1244.03 218.388 L1239.77 218.388 L1239.77 214.453 Q1238.31 216.814 1236.13 217.948 Q1233.96 219.059 1230.81 219.059 Q1226.83 219.059 1224.47 216.837 Q1222.13 214.592 1222.13 210.842 Q1222.13 206.467 1225.05 204.244 Q1227.99 202.022 1233.8 202.022 L1239.77 202.022 L1239.77 201.606 Q1239.77 198.666 1237.82 197.068 Q1235.9 195.448 1232.41 195.448 Q1230.18 195.448 1228.08 195.981 Q1225.97 196.513 1224.03 197.578 L1224.03 193.643 Q1226.36 192.74 1228.56 192.3 Q1230.76 191.837 1232.85 191.837 Q1238.47 191.837 1241.25 194.754 Q1244.03 197.67 1244.03 203.596 Z" fill="#000000" fill-rule="nonzero" fill-opacity="1" /><path clip-path="url(#clip540)" d="M1252.13 182.416 L1255.83 182.416 Q1259.3 187.879 1261.02 193.11 Q1262.75 198.342 1262.75 203.504 Q1262.75 208.689 1261.02 213.943 Q1259.3 219.198 1255.83 224.638 L1252.13 224.638 Q1255.21 219.337 1256.71 214.105 Q1258.24 208.851 1258.24 203.504 Q1258.24 198.156 1256.71 192.948 Q1255.21 187.74 1252.13 182.416 Z" fill="#000000" fill-rule="nonzero" fill-opacity="1" /></svg>
