<?xml version="1.0" encoding="utf-8"?>
<svg xmlns="http://www.w3.org/2000/svg" xmlns:xlink="http://www.w3.org/1999/xlink" width="600" height="400" viewBox="0 0 2400 1600">
<defs>
  <clipPath id="clip880">
    <rect x="0" y="0" width="2400" height="1600"/>
  </clipPath>
</defs>
<path clip-path="url(#clip880)" d="M0 1600 L2400 1600 L2400 8.88178e-14 L0 8.88178e-14  Z" fill="#ffffff" fill-rule="evenodd" fill-opacity="1"/>
<defs>
  <clipPath id="clip881">
    <rect x="480" y="0" width="1681" height="1600"/>
  </clipPath>
</defs>
<path clip-path="url(#clip880)" d="M203.964 1423.18 L2352.76 1423.18 L2352.76 47.2441 L203.964 47.2441  Z" fill="#ffffff" fill-rule="evenodd" fill-opacity="1"/>
<defs>
  <clipPath id="clip882">
    <rect x="203" y="47" width="2150" height="1377"/>
  </clipPath>
</defs>
<polyline clip-path="url(#clip882)" style="stroke:#000000; stroke-linecap:round; stroke-linejoin:round; stroke-width:2; stroke-opacity:0.1; fill:none" points="555.522,1423.18 555.522,47.2441 "/>
<polyline clip-path="url(#clip882)" style="stroke:#000000; stroke-linecap:round; stroke-linejoin:round; stroke-width:2; stroke-opacity:0.1; fill:none" points="938.62,1423.18 938.62,47.2441 "/>
<polyline clip-path="url(#clip882)" style="stroke:#000000; stroke-linecap:round; stroke-linejoin:round; stroke-width:2; stroke-opacity:0.1; fill:none" points="1321.72,1423.18 1321.72,47.2441 "/>
<polyline clip-path="url(#clip882)" style="stroke:#000000; stroke-linecap:round; stroke-linejoin:round; stroke-width:2; stroke-opacity:0.1; fill:none" points="1704.81,1423.18 1704.81,47.2441 "/>
<polyline clip-path="url(#clip882)" style="stroke:#000000; stroke-linecap:round; stroke-linejoin:round; stroke-width:2; stroke-opacity:0.1; fill:none" points="2087.91,1423.18 2087.91,47.2441 "/>
<polyline clip-path="url(#clip882)" style="stroke:#000000; stroke-linecap:round; stroke-linejoin:round; stroke-width:2; stroke-opacity:0.1; fill:none" points="555.522,1423.18 555.522,47.2441 "/>
<polyline clip-path="url(#clip882)" style="stroke:#000000; stroke-linecap:round; stroke-linejoin:round; stroke-width:2; stroke-opacity:0.1; fill:none" points="938.62,1423.18 938.62,47.2441 "/>
<polyline clip-path="url(#clip882)" style="stroke:#000000; stroke-linecap:round; stroke-linejoin:round; stroke-width:2; stroke-opacity:0.1; fill:none" points="1321.72,1423.18 1321.72,47.2441 "/>
<polyline clip-path="url(#clip882)" style="stroke:#000000; stroke-linecap:round; stroke-linejoin:round; stroke-width:2; stroke-opacity:0.1; fill:none" points="1704.81,1423.18 1704.81,47.2441 "/>
<polyline clip-path="url(#clip882)" style="stroke:#000000; stroke-linecap:round; stroke-linejoin:round; stroke-width:2; stroke-opacity:0.1; fill:none" points="2087.91,1423.18 2087.91,47.2441 "/>
<polyline clip-path="url(#clip882)" style="stroke:#000000; stroke-linecap:round; stroke-linejoin:round; stroke-width:2; stroke-opacity:0.1; fill:none" points="203.964,1384.24 2352.76,1384.24 "/>
<polyline clip-path="url(#clip882)" style="stroke:#000000; stroke-linecap:round; stroke-linejoin:round; stroke-width:2; stroke-opacity:0.1; fill:none" points="203.964,1013.12 2352.76,1013.12 "/>
<polyline clip-path="url(#clip882)" style="stroke:#000000; stroke-linecap:round; stroke-linejoin:round; stroke-width:2; stroke-opacity:0.1; fill:none" points="203.964,642.008 2352.76,642.008 "/>
<polyline clip-path="url(#clip882)" style="stroke:#000000; stroke-linecap:round; stroke-linejoin:round; stroke-width:2; stroke-opacity:0.1; fill:none" points="203.964,270.892 2352.76,270.892 "/>
<polyline clip-path="url(#clip882)" style="stroke:#000000; stroke-linecap:round; stroke-linejoin:round; stroke-width:2; stroke-opacity:0.1; fill:none" points="203.964,1384.24 2352.76,1384.24 "/>
<polyline clip-path="url(#clip882)" style="stroke:#000000; stroke-linecap:round; stroke-linejoin:round; stroke-width:2; stroke-opacity:0.1; fill:none" points="203.964,1013.12 2352.76,1013.12 "/>
<polyline clip-path="url(#clip882)" style="stroke:#000000; stroke-linecap:round; stroke-linejoin:round; stroke-width:2; stroke-opacity:0.1; fill:none" points="203.964,642.008 2352.76,642.008 "/>
<polyline clip-path="url(#clip882)" style="stroke:#000000; stroke-linecap:round; stroke-linejoin:round; stroke-width:2; stroke-opacity:0.1; fill:none" points="203.964,270.892 2352.76,270.892 "/>
<polyline clip-path="url(#clip880)" style="stroke:#000000; stroke-linecap:round; stroke-linejoin:round; stroke-width:4; stroke-opacity:1; fill:none" points="203.964,1423.18 2352.76,1423.18 "/>
<polyline clip-path="url(#clip880)" style="stroke:#000000; stroke-linecap:round; stroke-linejoin:round; stroke-width:4; stroke-opacity:1; fill:none" points="203.964,47.2441 2352.76,47.2441 "/>
<polyline clip-path="url(#clip880)" style="stroke:#000000; stroke-linecap:round; stroke-linejoin:round; stroke-width:4; stroke-opacity:1; fill:none" points="555.522,1423.18 555.522,1404.28 "/>
<polyline clip-path="url(#clip880)" style="stroke:#000000; stroke-linecap:round; stroke-linejoin:round; stroke-width:4; stroke-opacity:1; fill:none" points="938.62,1423.18 938.62,1404.28 "/>
<polyline clip-path="url(#clip880)" style="stroke:#000000; stroke-linecap:round; stroke-linejoin:round; stroke-width:4; stroke-opacity:1; fill:none" points="1321.72,1423.18 1321.72,1404.28 "/>
<polyline clip-path="url(#clip880)" style="stroke:#000000; stroke-linecap:round; stroke-linejoin:round; stroke-width:4; stroke-opacity:1; fill:none" points="1704.81,1423.18 1704.81,1404.28 "/>
<polyline clip-path="url(#clip880)" style="stroke:#000000; stroke-linecap:round; stroke-linejoin:round; stroke-width:4; stroke-opacity:1; fill:none" points="2087.91,1423.18 2087.91,1404.28 "/>
<polyline clip-path="url(#clip880)" style="stroke:#000000; stroke-linecap:round; stroke-linejoin:round; stroke-width:4; stroke-opacity:1; fill:none" points="555.522,47.2441 555.522,66.1417 "/>
<polyline clip-path="url(#clip880)" style="stroke:#000000; stroke-linecap:round; stroke-linejoin:round; stroke-width:4; stroke-opacity:1; fill:none" points="938.62,47.2441 938.62,66.1417 "/>
<polyline clip-path="url(#clip880)" style="stroke:#000000; stroke-linecap:round; stroke-linejoin:round; stroke-width:4; stroke-opacity:1; fill:none" points="1321.72,47.2441 1321.72,66.1417 "/>
<polyline clip-path="url(#clip880)" style="stroke:#000000; stroke-linecap:round; stroke-linejoin:round; stroke-width:4; stroke-opacity:1; fill:none" points="1704.81,47.2441 1704.81,66.1417 "/>
<polyline clip-path="url(#clip880)" style="stroke:#000000; stroke-linecap:round; stroke-linejoin:round; stroke-width:4; stroke-opacity:1; fill:none" points="2087.91,47.2441 2087.91,66.1417 "/>
<path clip-path="url(#clip880)" d="M503.682 1466.44 Q500.534 1466.44 498.683 1468.59 Q496.854 1470.74 496.854 1474.49 Q496.854 1478.22 498.683 1480.39 Q500.534 1482.55 503.682 1482.55 Q506.831 1482.55 508.659 1480.39 Q510.511 1478.22 510.511 1474.49 Q510.511 1470.74 508.659 1468.59 Q506.831 1466.44 503.682 1466.44 M512.965 1451.78 L512.965 1456.04 Q511.206 1455.21 509.4 1454.77 Q507.618 1454.33 505.858 1454.33 Q501.229 1454.33 498.775 1457.45 Q496.345 1460.58 495.997 1466.9 Q497.363 1464.89 499.423 1463.82 Q501.483 1462.73 503.96 1462.73 Q509.169 1462.73 512.178 1465.9 Q515.21 1469.05 515.21 1474.49 Q515.21 1479.82 512.062 1483.03 Q508.914 1486.25 503.682 1486.25 Q497.687 1486.25 494.516 1481.67 Q491.345 1477.06 491.345 1468.33 Q491.345 1460.14 495.233 1455.28 Q499.122 1450.39 505.673 1450.39 Q507.432 1450.39 509.215 1450.74 Q511.02 1451.09 512.965 1451.78 Z" fill="#000000" fill-rule="nonzero" fill-opacity="1" /><path clip-path="url(#clip880)" d="M523.312 1451.02 L541.668 1451.02 L541.668 1454.96 L527.594 1454.96 L527.594 1463.43 Q528.613 1463.08 529.631 1462.92 Q530.65 1462.73 531.668 1462.73 Q537.455 1462.73 540.835 1465.9 Q544.215 1469.08 544.215 1474.49 Q544.215 1480.07 540.742 1483.17 Q537.27 1486.25 530.951 1486.25 Q528.775 1486.25 526.506 1485.88 Q524.261 1485.51 521.854 1484.77 L521.854 1480.07 Q523.937 1481.2 526.159 1481.76 Q528.381 1482.32 530.858 1482.32 Q534.863 1482.32 537.201 1480.21 Q539.539 1478.1 539.539 1474.49 Q539.539 1470.88 537.201 1468.77 Q534.863 1466.67 530.858 1466.67 Q528.983 1466.67 527.108 1467.08 Q525.256 1467.5 523.312 1468.38 L523.312 1451.02 Z" fill="#000000" fill-rule="nonzero" fill-opacity="1" /><path clip-path="url(#clip880)" d="M553.428 1479.7 L558.312 1479.7 L558.312 1485.58 L553.428 1485.58 L553.428 1479.7 Z" fill="#000000" fill-rule="nonzero" fill-opacity="1" /><path clip-path="url(#clip880)" d="M568.636 1484.86 L568.636 1480.6 Q570.395 1481.44 572.201 1481.88 Q574.006 1482.32 575.742 1482.32 Q580.372 1482.32 582.802 1479.21 Q585.256 1476.09 585.603 1469.75 Q584.261 1471.74 582.201 1472.8 Q580.14 1473.87 577.64 1473.87 Q572.455 1473.87 569.423 1470.74 Q566.414 1467.59 566.414 1462.15 Q566.414 1456.83 569.562 1453.61 Q572.71 1450.39 577.941 1450.39 Q583.937 1450.39 587.085 1455 Q590.256 1459.58 590.256 1468.33 Q590.256 1476.51 586.367 1481.39 Q582.501 1486.25 575.951 1486.25 Q574.191 1486.25 572.386 1485.9 Q570.58 1485.56 568.636 1484.86 M577.941 1470.21 Q581.089 1470.21 582.918 1468.06 Q584.77 1465.9 584.77 1462.15 Q584.77 1458.43 582.918 1456.27 Q581.089 1454.1 577.941 1454.1 Q574.793 1454.1 572.941 1456.27 Q571.113 1458.43 571.113 1462.15 Q571.113 1465.9 572.941 1468.06 Q574.793 1470.21 577.941 1470.21 Z" fill="#000000" fill-rule="nonzero" fill-opacity="1" /><path clip-path="url(#clip880)" d="M597.478 1451.02 L619.7 1451.02 L619.7 1453.01 L607.154 1485.58 L602.27 1485.58 L614.075 1454.96 L597.478 1454.96 L597.478 1451.02 Z" fill="#000000" fill-rule="nonzero" fill-opacity="1" /><path clip-path="url(#clip880)" d="M886.328 1466.44 Q883.18 1466.44 881.328 1468.59 Q879.5 1470.74 879.5 1474.49 Q879.5 1478.22 881.328 1480.39 Q883.18 1482.55 886.328 1482.55 Q889.476 1482.55 891.305 1480.39 Q893.157 1478.22 893.157 1474.49 Q893.157 1470.74 891.305 1468.59 Q889.476 1466.44 886.328 1466.44 M895.611 1451.78 L895.611 1456.04 Q893.851 1455.21 892.046 1454.77 Q890.263 1454.33 888.504 1454.33 Q883.875 1454.33 881.421 1457.45 Q878.99 1460.58 878.643 1466.9 Q880.009 1464.89 882.069 1463.82 Q884.129 1462.73 886.606 1462.73 Q891.814 1462.73 894.824 1465.9 Q897.856 1469.05 897.856 1474.49 Q897.856 1479.82 894.708 1483.03 Q891.56 1486.25 886.328 1486.25 Q880.333 1486.25 877.162 1481.67 Q873.99 1477.06 873.99 1468.33 Q873.99 1460.14 877.879 1455.28 Q881.768 1450.39 888.319 1450.39 Q890.078 1450.39 891.861 1450.74 Q893.666 1451.09 895.611 1451.78 Z" fill="#000000" fill-rule="nonzero" fill-opacity="1" /><path clip-path="url(#clip880)" d="M916.49 1466.44 Q913.342 1466.44 911.49 1468.59 Q909.662 1470.74 909.662 1474.49 Q909.662 1478.22 911.49 1480.39 Q913.342 1482.55 916.49 1482.55 Q919.638 1482.55 921.467 1480.39 Q923.319 1478.22 923.319 1474.49 Q923.319 1470.74 921.467 1468.59 Q919.638 1466.44 916.49 1466.44 M925.773 1451.78 L925.773 1456.04 Q924.013 1455.21 922.208 1454.77 Q920.425 1454.33 918.666 1454.33 Q914.036 1454.33 911.583 1457.45 Q909.152 1460.58 908.805 1466.9 Q910.171 1464.89 912.231 1463.82 Q914.291 1462.73 916.768 1462.73 Q921.976 1462.73 924.985 1465.9 Q928.018 1469.05 928.018 1474.49 Q928.018 1479.82 924.87 1483.03 Q921.722 1486.25 916.49 1486.25 Q910.495 1486.25 907.324 1481.67 Q904.152 1477.06 904.152 1468.33 Q904.152 1460.14 908.041 1455.28 Q911.93 1450.39 918.481 1450.39 Q920.24 1450.39 922.023 1450.74 Q923.828 1451.09 925.773 1451.78 Z" fill="#000000" fill-rule="nonzero" fill-opacity="1" /><path clip-path="url(#clip880)" d="M936.073 1479.7 L940.958 1479.7 L940.958 1485.58 L936.073 1485.58 L936.073 1479.7 Z" fill="#000000" fill-rule="nonzero" fill-opacity="1" /><path clip-path="url(#clip880)" d="M961.143 1454.1 Q957.532 1454.1 955.703 1457.66 Q953.897 1461.2 953.897 1468.33 Q953.897 1475.44 955.703 1479.01 Q957.532 1482.55 961.143 1482.55 Q964.777 1482.55 966.582 1479.01 Q968.411 1475.44 968.411 1468.33 Q968.411 1461.2 966.582 1457.66 Q964.777 1454.1 961.143 1454.1 M961.143 1450.39 Q966.953 1450.39 970.008 1455 Q973.087 1459.58 973.087 1468.33 Q973.087 1477.06 970.008 1481.67 Q966.953 1486.25 961.143 1486.25 Q955.333 1486.25 952.254 1481.67 Q949.198 1477.06 949.198 1468.33 Q949.198 1459.58 952.254 1455 Q955.333 1450.39 961.143 1450.39 Z" fill="#000000" fill-rule="nonzero" fill-opacity="1" /><path clip-path="url(#clip880)" d="M991.305 1454.1 Q987.693 1454.1 985.865 1457.66 Q984.059 1461.2 984.059 1468.33 Q984.059 1475.44 985.865 1479.01 Q987.693 1482.55 991.305 1482.55 Q994.939 1482.55 996.744 1479.01 Q998.573 1475.44 998.573 1468.33 Q998.573 1461.2 996.744 1457.66 Q994.939 1454.1 991.305 1454.1 M991.305 1450.39 Q997.115 1450.39 1000.17 1455 Q1003.25 1459.58 1003.25 1468.33 Q1003.25 1477.06 1000.17 1481.67 Q997.115 1486.25 991.305 1486.25 Q985.494 1486.25 982.416 1481.67 Q979.36 1477.06 979.36 1468.33 Q979.36 1459.58 982.416 1455 Q985.494 1450.39 991.305 1450.39 Z" fill="#000000" fill-rule="nonzero" fill-opacity="1" /><path clip-path="url(#clip880)" d="M1269.75 1466.44 Q1266.6 1466.44 1264.75 1468.59 Q1262.92 1470.74 1262.92 1474.49 Q1262.92 1478.22 1264.75 1480.39 Q1266.6 1482.55 1269.75 1482.55 Q1272.9 1482.55 1274.73 1480.39 Q1276.58 1478.22 1276.58 1474.49 Q1276.58 1470.74 1274.73 1468.59 Q1272.9 1466.44 1269.75 1466.44 M1279.03 1451.78 L1279.03 1456.04 Q1277.27 1455.21 1275.47 1454.77 Q1273.68 1454.33 1271.93 1454.33 Q1267.3 1454.33 1264.84 1457.45 Q1262.41 1460.58 1262.06 1466.9 Q1263.43 1464.89 1265.49 1463.82 Q1267.55 1462.73 1270.03 1462.73 Q1275.24 1462.73 1278.24 1465.9 Q1281.28 1469.05 1281.28 1474.49 Q1281.28 1479.82 1278.13 1483.03 Q1274.98 1486.25 1269.75 1486.25 Q1263.75 1486.25 1260.58 1481.67 Q1257.41 1477.06 1257.41 1468.33 Q1257.41 1460.14 1261.3 1455.28 Q1265.19 1450.39 1271.74 1450.39 Q1273.5 1450.39 1275.28 1450.74 Q1277.09 1451.09 1279.03 1451.78 Z" fill="#000000" fill-rule="nonzero" fill-opacity="1" /><path clip-path="url(#clip880)" d="M1299.91 1466.44 Q1296.76 1466.44 1294.91 1468.59 Q1293.08 1470.74 1293.08 1474.49 Q1293.08 1478.22 1294.91 1480.39 Q1296.76 1482.55 1299.91 1482.55 Q1303.06 1482.55 1304.89 1480.39 Q1306.74 1478.22 1306.74 1474.49 Q1306.74 1470.74 1304.89 1468.59 Q1303.06 1466.44 1299.91 1466.44 M1309.19 1451.78 L1309.19 1456.04 Q1307.43 1455.21 1305.63 1454.77 Q1303.85 1454.33 1302.09 1454.33 Q1297.46 1454.33 1295 1457.45 Q1292.57 1460.58 1292.23 1466.9 Q1293.59 1464.89 1295.65 1463.82 Q1297.71 1462.73 1300.19 1462.73 Q1305.4 1462.73 1308.41 1465.9 Q1311.44 1469.05 1311.44 1474.49 Q1311.44 1479.82 1308.29 1483.03 Q1305.14 1486.25 1299.91 1486.25 Q1293.92 1486.25 1290.74 1481.67 Q1287.57 1477.06 1287.57 1468.33 Q1287.57 1460.14 1291.46 1455.28 Q1295.35 1450.39 1301.9 1450.39 Q1303.66 1450.39 1305.44 1450.74 Q1307.25 1451.09 1309.19 1451.78 Z" fill="#000000" fill-rule="nonzero" fill-opacity="1" /><path clip-path="url(#clip880)" d="M1319.49 1479.7 L1324.38 1479.7 L1324.38 1485.58 L1319.49 1485.58 L1319.49 1479.7 Z" fill="#000000" fill-rule="nonzero" fill-opacity="1" /><path clip-path="url(#clip880)" d="M1344.56 1454.1 Q1340.95 1454.1 1339.12 1457.66 Q1337.32 1461.2 1337.32 1468.33 Q1337.32 1475.44 1339.12 1479.01 Q1340.95 1482.55 1344.56 1482.55 Q1348.2 1482.55 1350 1479.01 Q1351.83 1475.44 1351.83 1468.33 Q1351.83 1461.2 1350 1457.66 Q1348.2 1454.1 1344.56 1454.1 M1344.56 1450.39 Q1350.37 1450.39 1353.43 1455 Q1356.51 1459.58 1356.51 1468.33 Q1356.51 1477.06 1353.43 1481.67 Q1350.37 1486.25 1344.56 1486.25 Q1338.75 1486.25 1335.68 1481.67 Q1332.62 1477.06 1332.62 1468.33 Q1332.62 1459.58 1335.68 1455 Q1338.75 1450.39 1344.56 1450.39 Z" fill="#000000" fill-rule="nonzero" fill-opacity="1" /><path clip-path="url(#clip880)" d="M1378.89 1466.95 Q1382.25 1467.66 1384.12 1469.93 Q1386.02 1472.2 1386.02 1475.53 Q1386.02 1480.65 1382.5 1483.45 Q1378.99 1486.25 1372.5 1486.25 Q1370.33 1486.25 1368.01 1485.81 Q1365.72 1485.39 1363.27 1484.54 L1363.27 1480.02 Q1365.21 1481.16 1367.53 1481.74 Q1369.84 1482.32 1372.36 1482.32 Q1376.76 1482.32 1379.05 1480.58 Q1381.37 1478.84 1381.37 1475.53 Q1381.37 1472.48 1379.22 1470.77 Q1377.09 1469.03 1373.27 1469.03 L1369.24 1469.03 L1369.24 1465.19 L1373.45 1465.19 Q1376.9 1465.19 1378.73 1463.82 Q1380.56 1462.43 1380.56 1459.84 Q1380.56 1457.18 1378.66 1455.77 Q1376.79 1454.33 1373.27 1454.33 Q1371.35 1454.33 1369.15 1454.75 Q1366.95 1455.16 1364.31 1456.04 L1364.31 1451.88 Q1366.97 1451.14 1369.29 1450.77 Q1371.62 1450.39 1373.68 1450.39 Q1379.01 1450.39 1382.11 1452.83 Q1385.21 1455.23 1385.21 1459.35 Q1385.21 1462.22 1383.57 1464.21 Q1381.92 1466.18 1378.89 1466.95 Z" fill="#000000" fill-rule="nonzero" fill-opacity="1" /><path clip-path="url(#clip880)" d="M1652.44 1466.44 Q1649.29 1466.44 1647.44 1468.59 Q1645.61 1470.74 1645.61 1474.49 Q1645.61 1478.22 1647.44 1480.39 Q1649.29 1482.55 1652.44 1482.55 Q1655.59 1482.55 1657.42 1480.39 Q1659.27 1478.22 1659.27 1474.49 Q1659.27 1470.74 1657.42 1468.59 Q1655.59 1466.44 1652.44 1466.44 M1661.72 1451.78 L1661.72 1456.04 Q1659.96 1455.21 1658.16 1454.77 Q1656.38 1454.33 1654.62 1454.33 Q1649.99 1454.33 1647.53 1457.45 Q1645.1 1460.58 1644.76 1466.9 Q1646.12 1464.89 1648.18 1463.82 Q1650.24 1462.73 1652.72 1462.73 Q1657.93 1462.73 1660.94 1465.9 Q1663.97 1469.05 1663.97 1474.49 Q1663.97 1479.82 1660.82 1483.03 Q1657.67 1486.25 1652.44 1486.25 Q1646.45 1486.25 1643.28 1481.67 Q1640.1 1477.06 1640.1 1468.33 Q1640.1 1460.14 1643.99 1455.28 Q1647.88 1450.39 1654.43 1450.39 Q1656.19 1450.39 1657.97 1450.74 Q1659.78 1451.09 1661.72 1451.78 Z" fill="#000000" fill-rule="nonzero" fill-opacity="1" /><path clip-path="url(#clip880)" d="M1682.6 1466.44 Q1679.46 1466.44 1677.6 1468.59 Q1675.77 1470.74 1675.77 1474.49 Q1675.77 1478.22 1677.6 1480.39 Q1679.46 1482.55 1682.6 1482.55 Q1685.75 1482.55 1687.58 1480.39 Q1689.43 1478.22 1689.43 1474.49 Q1689.43 1470.74 1687.58 1468.59 Q1685.75 1466.44 1682.6 1466.44 M1691.89 1451.78 L1691.89 1456.04 Q1690.13 1455.21 1688.32 1454.77 Q1686.54 1454.33 1684.78 1454.33 Q1680.15 1454.33 1677.7 1457.45 Q1675.27 1460.58 1674.92 1466.9 Q1676.28 1464.89 1678.34 1463.82 Q1680.4 1462.73 1682.88 1462.73 Q1688.09 1462.73 1691.1 1465.9 Q1694.13 1469.05 1694.13 1474.49 Q1694.13 1479.82 1690.98 1483.03 Q1687.84 1486.25 1682.6 1486.25 Q1676.61 1486.25 1673.44 1481.67 Q1670.27 1477.06 1670.27 1468.33 Q1670.27 1460.14 1674.15 1455.28 Q1678.04 1450.39 1684.59 1450.39 Q1686.35 1450.39 1688.14 1450.74 Q1689.94 1451.09 1691.89 1451.78 Z" fill="#000000" fill-rule="nonzero" fill-opacity="1" /><path clip-path="url(#clip880)" d="M1702.19 1479.7 L1707.07 1479.7 L1707.07 1485.58 L1702.19 1485.58 L1702.19 1479.7 Z" fill="#000000" fill-rule="nonzero" fill-opacity="1" /><path clip-path="url(#clip880)" d="M1727.26 1454.1 Q1723.65 1454.1 1721.82 1457.66 Q1720.01 1461.2 1720.01 1468.33 Q1720.01 1475.44 1721.82 1479.01 Q1723.65 1482.55 1727.26 1482.55 Q1730.89 1482.55 1732.7 1479.01 Q1734.52 1475.44 1734.52 1468.33 Q1734.52 1461.2 1732.7 1457.66 Q1730.89 1454.1 1727.26 1454.1 M1727.26 1450.39 Q1733.07 1450.39 1736.12 1455 Q1739.2 1459.58 1739.2 1468.33 Q1739.2 1477.06 1736.12 1481.67 Q1733.07 1486.25 1727.26 1486.25 Q1721.45 1486.25 1718.37 1481.67 Q1715.31 1477.06 1715.31 1468.33 Q1715.31 1459.58 1718.37 1455 Q1721.45 1450.39 1727.26 1450.39 Z" fill="#000000" fill-rule="nonzero" fill-opacity="1" /><path clip-path="url(#clip880)" d="M1758 1466.44 Q1754.85 1466.44 1753 1468.59 Q1751.17 1470.74 1751.17 1474.49 Q1751.17 1478.22 1753 1480.39 Q1754.85 1482.55 1758 1482.55 Q1761.14 1482.55 1762.97 1480.39 Q1764.83 1478.22 1764.83 1474.49 Q1764.83 1470.74 1762.97 1468.59 Q1761.14 1466.44 1758 1466.44 M1767.28 1451.78 L1767.28 1456.04 Q1765.52 1455.21 1763.71 1454.77 Q1761.93 1454.33 1760.17 1454.33 Q1755.54 1454.33 1753.09 1457.45 Q1750.66 1460.58 1750.31 1466.9 Q1751.68 1464.89 1753.74 1463.82 Q1755.8 1462.73 1758.27 1462.73 Q1763.48 1462.73 1766.49 1465.9 Q1769.52 1469.05 1769.52 1474.49 Q1769.52 1479.82 1766.38 1483.03 Q1763.23 1486.25 1758 1486.25 Q1752 1486.25 1748.83 1481.67 Q1745.66 1477.06 1745.66 1468.33 Q1745.66 1460.14 1749.55 1455.28 Q1753.44 1450.39 1759.99 1450.39 Q1761.75 1450.39 1763.53 1450.74 Q1765.33 1451.09 1767.28 1451.78 Z" fill="#000000" fill-rule="nonzero" fill-opacity="1" /><path clip-path="url(#clip880)" d="M2035.71 1466.44 Q2032.56 1466.44 2030.71 1468.59 Q2028.88 1470.74 2028.88 1474.49 Q2028.88 1478.22 2030.71 1480.39 Q2032.56 1482.55 2035.71 1482.55 Q2038.86 1482.55 2040.69 1480.39 Q2042.54 1478.22 2042.54 1474.49 Q2042.54 1470.74 2040.69 1468.59 Q2038.86 1466.44 2035.71 1466.44 M2044.99 1451.78 L2044.99 1456.04 Q2043.24 1455.21 2041.43 1454.77 Q2039.65 1454.33 2037.89 1454.33 Q2033.26 1454.33 2030.81 1457.45 Q2028.37 1460.58 2028.03 1466.9 Q2029.39 1464.89 2031.45 1463.82 Q2033.51 1462.73 2035.99 1462.73 Q2041.2 1462.73 2044.21 1465.9 Q2047.24 1469.05 2047.24 1474.49 Q2047.24 1479.82 2044.09 1483.03 Q2040.94 1486.25 2035.71 1486.25 Q2029.72 1486.25 2026.55 1481.67 Q2023.37 1477.06 2023.37 1468.33 Q2023.37 1460.14 2027.26 1455.28 Q2031.15 1450.39 2037.7 1450.39 Q2039.46 1450.39 2041.24 1450.74 Q2043.05 1451.09 2044.99 1451.78 Z" fill="#000000" fill-rule="nonzero" fill-opacity="1" /><path clip-path="url(#clip880)" d="M2065.87 1466.44 Q2062.73 1466.44 2060.87 1468.59 Q2059.05 1470.74 2059.05 1474.49 Q2059.05 1478.22 2060.87 1480.39 Q2062.73 1482.55 2065.87 1482.55 Q2069.02 1482.55 2070.85 1480.39 Q2072.7 1478.22 2072.7 1474.49 Q2072.7 1470.74 2070.85 1468.59 Q2069.02 1466.44 2065.87 1466.44 M2075.16 1451.78 L2075.16 1456.04 Q2073.4 1455.21 2071.59 1454.77 Q2069.81 1454.33 2068.05 1454.33 Q2063.42 1454.33 2060.97 1457.45 Q2058.54 1460.58 2058.19 1466.9 Q2059.55 1464.89 2061.62 1463.82 Q2063.68 1462.73 2066.15 1462.73 Q2071.36 1462.73 2074.37 1465.9 Q2077.4 1469.05 2077.4 1474.49 Q2077.4 1479.82 2074.25 1483.03 Q2071.11 1486.25 2065.87 1486.25 Q2059.88 1486.25 2056.71 1481.67 Q2053.54 1477.06 2053.54 1468.33 Q2053.54 1460.14 2057.43 1455.28 Q2061.31 1450.39 2067.87 1450.39 Q2069.62 1450.39 2071.41 1450.74 Q2073.21 1451.09 2075.16 1451.78 Z" fill="#000000" fill-rule="nonzero" fill-opacity="1" /><path clip-path="url(#clip880)" d="M2085.46 1479.7 L2090.34 1479.7 L2090.34 1485.58 L2085.46 1485.58 L2085.46 1479.7 Z" fill="#000000" fill-rule="nonzero" fill-opacity="1" /><path clip-path="url(#clip880)" d="M2110.53 1454.1 Q2106.92 1454.1 2105.09 1457.66 Q2103.28 1461.2 2103.28 1468.33 Q2103.28 1475.44 2105.09 1479.01 Q2106.92 1482.55 2110.53 1482.55 Q2114.16 1482.55 2115.97 1479.01 Q2117.8 1475.44 2117.8 1468.33 Q2117.8 1461.2 2115.97 1457.66 Q2114.16 1454.1 2110.53 1454.1 M2110.53 1450.39 Q2116.34 1450.39 2119.39 1455 Q2122.47 1459.58 2122.47 1468.33 Q2122.47 1477.06 2119.39 1481.67 Q2116.34 1486.25 2110.53 1486.25 Q2104.72 1486.25 2101.64 1481.67 Q2098.58 1477.06 2098.58 1468.33 Q2098.58 1459.58 2101.64 1455 Q2104.72 1450.39 2110.53 1450.39 Z" fill="#000000" fill-rule="nonzero" fill-opacity="1" /><path clip-path="url(#clip880)" d="M2130.83 1484.86 L2130.83 1480.6 Q2132.59 1481.44 2134.39 1481.88 Q2136.2 1482.32 2137.93 1482.32 Q2142.56 1482.32 2144.99 1479.21 Q2147.45 1476.09 2147.8 1469.75 Q2146.45 1471.74 2144.39 1472.8 Q2142.33 1473.87 2139.83 1473.87 Q2134.65 1473.87 2131.61 1470.74 Q2128.61 1467.59 2128.61 1462.15 Q2128.61 1456.83 2131.75 1453.61 Q2134.9 1450.39 2140.13 1450.39 Q2146.13 1450.39 2149.28 1455 Q2152.45 1459.58 2152.45 1468.33 Q2152.45 1476.51 2148.56 1481.39 Q2144.69 1486.25 2138.14 1486.25 Q2136.38 1486.25 2134.58 1485.9 Q2132.77 1485.56 2130.83 1484.86 M2140.13 1470.21 Q2143.28 1470.21 2145.11 1468.06 Q2146.96 1465.9 2146.96 1462.15 Q2146.96 1458.43 2145.11 1456.27 Q2143.28 1454.1 2140.13 1454.1 Q2136.99 1454.1 2135.13 1456.27 Q2133.3 1458.43 2133.3 1462.15 Q2133.3 1465.9 2135.13 1468.06 Q2136.99 1470.21 2140.13 1470.21 Z" fill="#000000" fill-rule="nonzero" fill-opacity="1" /><path clip-path="url(#clip880)" d="M1156.27 1526.86 L1147.54 1550.51 L1165.02 1550.51 L1156.27 1526.86 M1152.64 1520.52 L1159.93 1520.52 L1178.04 1568.04 L1171.35 1568.04 L1167.02 1555.85 L1145.6 1555.85 L1141.27 1568.04 L1134.49 1568.04 L1152.64 1520.52 Z" fill="#000000" fill-rule="nonzero" fill-opacity="1" /><path clip-path="url(#clip880)" d="M1208.18 1549.81 Q1208.18 1543.44 1205.54 1539.94 Q1202.93 1536.44 1198.18 1536.44 Q1193.47 1536.44 1190.83 1539.94 Q1188.22 1543.44 1188.22 1549.81 Q1188.22 1556.14 1190.83 1559.64 Q1193.47 1563.14 1198.18 1563.14 Q1202.93 1563.14 1205.54 1559.64 Q1208.18 1556.14 1208.18 1549.81 M1214.03 1563.62 Q1214.03 1572.72 1209.99 1577.15 Q1205.95 1581.6 1197.61 1581.6 Q1194.52 1581.6 1191.79 1581.13 Q1189.05 1580.68 1186.47 1579.72 L1186.47 1574.03 Q1189.05 1575.43 1191.56 1576.1 Q1194.08 1576.76 1196.69 1576.76 Q1202.45 1576.76 1205.31 1573.74 Q1208.18 1570.75 1208.18 1564.67 L1208.18 1561.77 Q1206.36 1564.92 1203.53 1566.48 Q1200.7 1568.04 1196.75 1568.04 Q1190.19 1568.04 1186.18 1563.05 Q1182.17 1558.05 1182.17 1549.81 Q1182.17 1541.53 1186.18 1536.53 Q1190.19 1531.54 1196.75 1531.54 Q1200.7 1531.54 1203.53 1533.1 Q1206.36 1534.66 1208.18 1537.81 L1208.18 1532.4 L1214.03 1532.4 L1214.03 1563.62 Z" fill="#000000" fill-rule="nonzero" fill-opacity="1" /><path clip-path="url(#clip880)" d="M1256.59 1548.76 L1256.59 1551.62 L1229.66 1551.62 Q1230.04 1557.67 1233.29 1560.85 Q1236.57 1564 1242.39 1564 Q1245.77 1564 1248.92 1563.17 Q1252.1 1562.35 1255.22 1560.69 L1255.22 1566.23 Q1252.07 1567.57 1248.76 1568.27 Q1245.45 1568.97 1242.04 1568.97 Q1233.51 1568.97 1228.52 1564 Q1223.55 1559.04 1223.55 1550.57 Q1223.55 1541.82 1228.26 1536.69 Q1233 1531.54 1241.02 1531.54 Q1248.22 1531.54 1252.39 1536.18 Q1256.59 1540.8 1256.59 1548.76 M1250.73 1547.04 Q1250.67 1542.23 1248.03 1539.37 Q1245.42 1536.5 1241.09 1536.5 Q1236.19 1536.5 1233.23 1539.27 Q1230.3 1542.04 1229.85 1547.07 L1250.73 1547.04 Z" fill="#000000" fill-rule="nonzero" fill-opacity="1" /><path clip-path="url(#clip880)" d="M1300.99 1518.58 Q1296.72 1525.9 1294.66 1533.06 Q1292.59 1540.23 1292.59 1547.58 Q1292.59 1554.93 1294.66 1562.16 Q1296.76 1569.35 1300.99 1576.64 L1295.9 1576.64 Q1291.12 1569.16 1288.74 1561.93 Q1286.38 1554.71 1286.38 1547.58 Q1286.38 1540.48 1288.74 1533.29 Q1291.09 1526.09 1295.9 1518.58 L1300.99 1518.58 Z" fill="#000000" fill-rule="nonzero" fill-opacity="1" /><path clip-path="url(#clip880)" d="M1312.61 1520.52 L1322.19 1520.52 L1334.31 1552.86 L1346.5 1520.52 L1356.09 1520.52 L1356.09 1568.04 L1349.81 1568.04 L1349.81 1526.32 L1337.56 1558.91 L1331.1 1558.91 L1318.85 1526.32 L1318.85 1568.04 L1312.61 1568.04 L1312.61 1520.52 Z" fill="#000000" fill-rule="nonzero" fill-opacity="1" /><path clip-path="url(#clip880)" d="M1384.79 1550.12 Q1377.7 1550.12 1374.96 1551.75 Q1372.22 1553.37 1372.22 1557.29 Q1372.22 1560.4 1374.26 1562.25 Q1376.33 1564.07 1379.86 1564.07 Q1384.73 1564.07 1387.66 1560.63 Q1390.62 1557.16 1390.62 1551.43 L1390.62 1550.12 L1384.79 1550.12 M1396.48 1547.71 L1396.48 1568.04 L1390.62 1568.04 L1390.62 1562.63 Q1388.61 1565.88 1385.62 1567.44 Q1382.63 1568.97 1378.3 1568.97 Q1372.83 1568.97 1369.58 1565.91 Q1366.37 1562.82 1366.37 1557.67 Q1366.37 1551.65 1370.38 1548.6 Q1374.42 1545.54 1382.41 1545.54 L1390.62 1545.54 L1390.62 1544.97 Q1390.62 1540.93 1387.95 1538.73 Q1385.3 1536.5 1380.5 1536.5 Q1377.44 1536.5 1374.55 1537.23 Q1371.65 1537.97 1368.98 1539.43 L1368.98 1534.02 Q1372.19 1532.78 1375.21 1532.17 Q1378.24 1531.54 1381.1 1531.54 Q1388.84 1531.54 1392.66 1535.55 Q1396.48 1539.56 1396.48 1547.71 Z" fill="#000000" fill-rule="nonzero" fill-opacity="1" /><path clip-path="url(#clip880)" d="M1407.62 1518.58 L1412.71 1518.58 Q1417.48 1526.09 1419.84 1533.29 Q1422.22 1540.48 1422.22 1547.58 Q1422.22 1554.71 1419.84 1561.93 Q1417.48 1569.16 1412.71 1576.64 L1407.62 1576.64 Q1411.85 1569.35 1413.92 1562.16 Q1416.02 1554.93 1416.02 1547.58 Q1416.02 1540.23 1413.92 1533.06 Q1411.85 1525.9 1407.62 1518.58 Z" fill="#000000" fill-rule="nonzero" fill-opacity="1" /><polyline clip-path="url(#clip880)" style="stroke:#000000; stroke-linecap:round; stroke-linejoin:round; stroke-width:4; stroke-opacity:1; fill:none" points="203.964,1423.18 203.964,47.2441 "/>
<polyline clip-path="url(#clip880)" style="stroke:#000000; stroke-linecap:round; stroke-linejoin:round; stroke-width:4; stroke-opacity:1; fill:none" points="2352.76,1423.18 2352.76,47.2441 "/>
<polyline clip-path="url(#clip880)" style="stroke:#000000; stroke-linecap:round; stroke-linejoin:round; stroke-width:4; stroke-opacity:1; fill:none" points="203.964,1384.24 222.861,1384.24 "/>
<polyline clip-path="url(#clip880)" style="stroke:#000000; stroke-linecap:round; stroke-linejoin:round; stroke-width:4; stroke-opacity:1; fill:none" points="203.964,1013.12 222.861,1013.12 "/>
<polyline clip-path="url(#clip880)" style="stroke:#000000; stroke-linecap:round; stroke-linejoin:round; stroke-width:4; stroke-opacity:1; fill:none" points="203.964,642.008 222.861,642.008 "/>
<polyline clip-path="url(#clip880)" style="stroke:#000000; stroke-linecap:round; stroke-linejoin:round; stroke-width:4; stroke-opacity:1; fill:none" points="203.964,270.892 222.861,270.892 "/>
<polyline clip-path="url(#clip880)" style="stroke:#000000; stroke-linecap:round; stroke-linejoin:round; stroke-width:4; stroke-opacity:1; fill:none" points="2352.76,1384.24 2333.86,1384.24 "/>
<polyline clip-path="url(#clip880)" style="stroke:#000000; stroke-linecap:round; stroke-linejoin:round; stroke-width:4; stroke-opacity:1; fill:none" points="2352.76,1013.12 2333.86,1013.12 "/>
<polyline clip-path="url(#clip880)" style="stroke:#000000; stroke-linecap:round; stroke-linejoin:round; stroke-width:4; stroke-opacity:1; fill:none" points="2352.76,642.008 2333.86,642.008 "/>
<polyline clip-path="url(#clip880)" style="stroke:#000000; stroke-linecap:round; stroke-linejoin:round; stroke-width:4; stroke-opacity:1; fill:none" points="2352.76,270.892 2333.86,270.892 "/>
<path clip-path="url(#clip880)" d="M156.019 1370.04 Q152.408 1370.04 150.579 1373.6 Q148.774 1377.14 148.774 1384.27 Q148.774 1391.38 150.579 1394.94 Q152.408 1398.49 156.019 1398.49 Q159.653 1398.49 161.459 1394.94 Q163.288 1391.38 163.288 1384.27 Q163.288 1377.14 161.459 1373.6 Q159.653 1370.04 156.019 1370.04 M156.019 1366.33 Q161.829 1366.33 164.885 1370.94 Q167.964 1375.52 167.964 1384.27 Q167.964 1393 164.885 1397.61 Q161.829 1402.19 156.019 1402.19 Q150.209 1402.19 147.13 1397.61 Q144.075 1393 144.075 1384.27 Q144.075 1375.52 147.13 1370.94 Q150.209 1366.33 156.019 1366.33 Z" fill="#000000" fill-rule="nonzero" fill-opacity="1" /><path clip-path="url(#clip880)" d="M116.668 1026.47 L124.306 1026.47 L124.306 1000.1 L115.996 1001.77 L115.996 997.51 L124.26 995.843 L128.936 995.843 L128.936 1026.47 L136.575 1026.47 L136.575 1030.4 L116.668 1030.4 L116.668 1026.47 Z" fill="#000000" fill-rule="nonzero" fill-opacity="1" /><path clip-path="url(#clip880)" d="M156.019 998.922 Q152.408 998.922 150.579 1002.49 Q148.774 1006.03 148.774 1013.16 Q148.774 1020.26 150.579 1023.83 Q152.408 1027.37 156.019 1027.37 Q159.653 1027.37 161.459 1023.83 Q163.288 1020.26 163.288 1013.16 Q163.288 1006.03 161.459 1002.49 Q159.653 998.922 156.019 998.922 M156.019 995.218 Q161.829 995.218 164.885 999.825 Q167.964 1004.41 167.964 1013.16 Q167.964 1021.88 164.885 1026.49 Q161.829 1031.07 156.019 1031.07 Q150.209 1031.07 147.13 1026.49 Q144.075 1021.88 144.075 1013.16 Q144.075 1004.41 147.13 999.825 Q150.209 995.218 156.019 995.218 Z" fill="#000000" fill-rule="nonzero" fill-opacity="1" /><path clip-path="url(#clip880)" d="M119.885 655.353 L136.204 655.353 L136.204 659.288 L114.26 659.288 L114.26 655.353 Q116.922 652.598 121.505 647.968 Q126.112 643.316 127.292 641.973 Q129.538 639.45 130.417 637.714 Q131.32 635.955 131.32 634.265 Q131.32 631.51 129.376 629.774 Q127.455 628.038 124.353 628.038 Q122.154 628.038 119.7 628.802 Q117.269 629.566 114.492 631.117 L114.492 626.394 Q117.316 625.26 119.769 624.681 Q122.223 624.103 124.26 624.103 Q129.63 624.103 132.825 626.788 Q136.019 629.473 136.019 633.964 Q136.019 636.093 135.209 638.015 Q134.422 639.913 132.316 642.505 Q131.737 643.177 128.635 646.394 Q125.533 649.589 119.885 655.353 Z" fill="#000000" fill-rule="nonzero" fill-opacity="1" /><path clip-path="url(#clip880)" d="M156.019 627.806 Q152.408 627.806 150.579 631.371 Q148.774 634.913 148.774 642.043 Q148.774 649.149 150.579 652.714 Q152.408 656.255 156.019 656.255 Q159.653 656.255 161.459 652.714 Q163.288 649.149 163.288 642.043 Q163.288 634.913 161.459 631.371 Q159.653 627.806 156.019 627.806 M156.019 624.103 Q161.829 624.103 164.885 628.709 Q167.964 633.293 167.964 642.043 Q167.964 650.769 164.885 655.376 Q161.829 659.959 156.019 659.959 Q150.209 659.959 147.13 655.376 Q144.075 650.769 144.075 642.043 Q144.075 633.293 147.13 628.709 Q150.209 624.103 156.019 624.103 Z" fill="#000000" fill-rule="nonzero" fill-opacity="1" /><path clip-path="url(#clip880)" d="M130.024 269.538 Q133.38 270.256 135.255 272.524 Q137.154 274.793 137.154 278.126 Q137.154 283.242 133.635 286.043 Q130.117 288.844 123.635 288.844 Q121.459 288.844 119.144 288.404 Q116.853 287.987 114.399 287.131 L114.399 282.617 Q116.343 283.751 118.658 284.33 Q120.973 284.908 123.496 284.908 Q127.894 284.908 130.186 283.172 Q132.501 281.436 132.501 278.126 Q132.501 275.07 130.348 273.358 Q128.218 271.621 124.399 271.621 L120.371 271.621 L120.371 267.779 L124.584 267.779 Q128.033 267.779 129.862 266.413 Q131.691 265.024 131.691 262.432 Q131.691 259.77 129.792 258.358 Q127.917 256.922 124.399 256.922 Q122.478 256.922 120.279 257.339 Q118.08 257.756 115.441 258.635 L115.441 254.469 Q118.103 253.728 120.418 253.358 Q122.755 252.987 124.816 252.987 Q130.14 252.987 133.242 255.418 Q136.343 257.825 136.343 261.946 Q136.343 264.816 134.7 266.807 Q133.056 268.774 130.024 269.538 Z" fill="#000000" fill-rule="nonzero" fill-opacity="1" /><path clip-path="url(#clip880)" d="M156.019 256.691 Q152.408 256.691 150.579 260.256 Q148.774 263.797 148.774 270.927 Q148.774 278.033 150.579 281.598 Q152.408 285.14 156.019 285.14 Q159.653 285.14 161.459 281.598 Q163.288 278.033 163.288 270.927 Q163.288 263.797 161.459 260.256 Q159.653 256.691 156.019 256.691 M156.019 252.987 Q161.829 252.987 164.885 257.594 Q167.964 262.177 167.964 270.927 Q167.964 279.654 164.885 284.26 Q161.829 288.844 156.019 288.844 Q150.209 288.844 147.13 284.26 Q144.075 279.654 144.075 270.927 Q144.075 262.177 147.13 257.594 Q150.209 252.987 156.019 252.987 Z" fill="#000000" fill-rule="nonzero" fill-opacity="1" /><path clip-path="url(#clip880)" d="M21.7677 1026.76 L39.6235 1026.76 L39.6235 1018.68 Q39.6235 1014.19 37.3 1011.74 Q34.9765 1009.29 30.6797 1009.29 Q26.4147 1009.29 24.0912 1011.74 Q21.7677 1014.19 21.7677 1018.68 L21.7677 1026.76 M16.4842 1033.19 L16.4842 1018.68 Q16.4842 1010.69 20.1126 1006.61 Q23.7092 1002.51 30.6797 1002.51 Q37.7138 1002.51 41.3104 1006.61 Q44.907 1010.69 44.907 1018.68 L44.907 1026.76 L64.0042 1026.76 L64.0042 1033.19 L16.4842 1033.19 Z" fill="#000000" fill-rule="nonzero" fill-opacity="1" /><path clip-path="url(#clip880)" d="M33.8307 974.626 Q33.2578 975.613 33.0032 976.791 Q32.7167 977.936 32.7167 979.337 Q32.7167 984.302 35.9632 986.976 Q39.1779 989.617 45.2253 989.617 L64.0042 989.617 L64.0042 995.506 L28.3562 995.506 L28.3562 989.617 L33.8944 989.617 Q30.6479 987.771 29.0883 984.811 Q27.4968 981.851 27.4968 977.618 Q27.4968 977.013 27.5923 976.281 Q27.656 975.549 27.8151 974.658 L33.8307 974.626 Z" fill="#000000" fill-rule="nonzero" fill-opacity="1" /><path clip-path="url(#clip880)" d="M32.4621 956.102 Q32.4621 960.813 36.1542 963.55 Q39.8145 966.287 46.212 966.287 Q52.6095 966.287 56.3017 963.582 Q59.9619 960.844 59.9619 956.102 Q59.9619 951.423 56.2698 948.686 Q52.5777 945.949 46.212 945.949 Q39.8781 945.949 36.186 948.686 Q32.4621 951.423 32.4621 956.102 M27.4968 956.102 Q27.4968 948.463 32.4621 944.103 Q37.4273 939.742 46.212 939.742 Q54.9649 939.742 59.9619 944.103 Q64.9272 948.463 64.9272 956.102 Q64.9272 963.773 59.9619 968.133 Q54.9649 972.462 46.212 972.462 Q37.4273 972.462 32.4621 968.133 Q27.4968 963.773 27.4968 956.102 Z" fill="#000000" fill-rule="nonzero" fill-opacity="1" /><path clip-path="url(#clip880)" d="M46.212 904.444 Q39.7508 904.444 36.0905 907.118 Q32.3984 909.76 32.3984 914.407 Q32.3984 919.054 36.0905 921.727 Q39.7508 924.369 46.212 924.369 Q52.6732 924.369 56.3653 921.727 Q60.0256 919.054 60.0256 914.407 Q60.0256 909.76 56.3653 907.118 Q52.6732 904.444 46.212 904.444 M33.7671 924.369 Q30.5842 922.523 29.0564 919.722 Q27.4968 916.889 27.4968 912.974 Q27.4968 906.481 32.6531 902.439 Q37.8093 898.365 46.212 898.365 Q54.6147 898.365 59.771 902.439 Q64.9272 906.481 64.9272 912.974 Q64.9272 916.889 63.3994 919.722 Q61.8398 922.523 58.657 924.369 L64.0042 924.369 L64.0042 930.257 L14.479 930.257 L14.479 924.369 L33.7671 924.369 Z" fill="#000000" fill-rule="nonzero" fill-opacity="1" /><path clip-path="url(#clip880)" d="M46.0847 872.457 Q46.0847 879.554 47.7079 882.292 Q49.3312 885.029 53.2461 885.029 Q56.3653 885.029 58.2114 882.992 Q60.0256 880.923 60.0256 877.39 Q60.0256 872.52 56.5881 869.592 Q53.1188 866.632 47.3897 866.632 L46.0847 866.632 L46.0847 872.457 M43.6657 860.776 L64.0042 860.776 L64.0042 866.632 L58.5933 866.632 Q61.8398 868.637 63.3994 871.629 Q64.9272 874.621 64.9272 878.95 Q64.9272 884.424 61.8716 887.671 Q58.7843 890.885 53.6281 890.885 Q47.6125 890.885 44.5569 886.875 Q41.5014 882.833 41.5014 874.844 L41.5014 866.632 L40.9285 866.632 Q36.8862 866.632 34.6901 869.306 Q32.4621 871.947 32.4621 876.753 Q32.4621 879.809 33.1941 882.705 Q33.9262 885.602 35.3903 888.275 L29.9795 888.275 Q28.7381 885.061 28.1334 882.037 Q27.4968 879.013 27.4968 876.149 Q27.4968 868.414 31.5072 864.595 Q35.5176 860.776 43.6657 860.776 Z" fill="#000000" fill-rule="nonzero" fill-opacity="1" /><path clip-path="url(#clip880)" d="M46.212 823.122 Q39.7508 823.122 36.0905 825.796 Q32.3984 828.438 32.3984 833.085 Q32.3984 837.732 36.0905 840.405 Q39.7508 843.047 46.212 843.047 Q52.6732 843.047 56.3653 840.405 Q60.0256 837.732 60.0256 833.085 Q60.0256 828.438 56.3653 825.796 Q52.6732 823.122 46.212 823.122 M33.7671 843.047 Q30.5842 841.201 29.0564 838.4 Q27.4968 835.567 27.4968 831.652 Q27.4968 825.159 32.6531 821.117 Q37.8093 817.043 46.212 817.043 Q54.6147 817.043 59.771 821.117 Q64.9272 825.159 64.9272 831.652 Q64.9272 835.567 63.3994 838.4 Q61.8398 841.201 58.657 843.047 L64.0042 843.047 L64.0042 848.935 L14.479 848.935 L14.479 843.047 L33.7671 843.047 Z" fill="#000000" fill-rule="nonzero" fill-opacity="1" /><path clip-path="url(#clip880)" d="M28.3562 807.335 L28.3562 801.479 L64.0042 801.479 L64.0042 807.335 L28.3562 807.335 M14.479 807.335 L14.479 801.479 L21.895 801.479 L21.895 807.335 L14.479 807.335 Z" fill="#000000" fill-rule="nonzero" fill-opacity="1" /><path clip-path="url(#clip880)" d="M14.479 789.225 L14.479 783.369 L64.0042 783.369 L64.0042 789.225 L14.479 789.225 Z" fill="#000000" fill-rule="nonzero" fill-opacity="1" /><path clip-path="url(#clip880)" d="M28.3562 771.115 L28.3562 765.258 L64.0042 765.258 L64.0042 771.115 L28.3562 771.115 M14.479 771.115 L14.479 765.258 L21.895 765.258 L21.895 771.115 L14.479 771.115 Z" fill="#000000" fill-rule="nonzero" fill-opacity="1" /><path clip-path="url(#clip880)" d="M18.2347 747.211 L28.3562 747.211 L28.3562 735.148 L32.9077 735.148 L32.9077 747.211 L52.2594 747.211 Q56.6199 747.211 57.8613 746.034 Q59.1026 744.824 59.1026 741.164 L59.1026 735.148 L64.0042 735.148 L64.0042 741.164 Q64.0042 747.943 61.4897 750.521 Q58.9434 753.1 52.2594 753.1 L32.9077 753.1 L32.9077 757.396 L28.3562 757.396 L28.3562 753.1 L18.2347 753.1 L18.2347 747.211 Z" fill="#000000" fill-rule="nonzero" fill-opacity="1" /><path clip-path="url(#clip880)" d="M67.3143 712.614 Q73.68 715.096 75.6216 717.452 Q77.5631 719.807 77.5631 723.754 L77.5631 728.432 L72.6615 728.432 L72.6615 724.995 Q72.6615 722.576 71.5157 721.239 Q70.3699 719.902 66.1048 718.279 L63.4312 717.229 L28.3562 731.647 L28.3562 725.441 L56.238 714.301 L28.3562 703.161 L28.3562 696.954 L67.3143 712.614 Z" fill="#000000" fill-rule="nonzero" fill-opacity="1" /><path clip-path="url(#clip880)" d="M33.7671 644.692 L14.479 644.692 L14.479 638.835 L64.0042 638.835 L64.0042 644.692 L58.657 644.692 Q61.8398 646.538 63.3994 649.37 Q64.9272 652.171 64.9272 656.118 Q64.9272 662.579 59.771 666.653 Q54.6147 670.696 46.212 670.696 Q37.8093 670.696 32.6531 666.653 Q27.4968 662.579 27.4968 656.118 Q27.4968 652.171 29.0564 649.37 Q30.5842 646.538 33.7671 644.692 M46.212 664.648 Q52.6732 664.648 56.3653 662.006 Q60.0256 659.333 60.0256 654.686 Q60.0256 650.039 56.3653 647.365 Q52.6732 644.692 46.212 644.692 Q39.7508 644.692 36.0905 647.365 Q32.3984 650.039 32.3984 654.686 Q32.3984 659.333 36.0905 662.006 Q39.7508 664.648 46.212 664.648 Z" fill="#000000" fill-rule="nonzero" fill-opacity="1" /><path clip-path="url(#clip880)" d="M44.7161 596.28 L47.5806 596.28 L47.5806 623.207 Q53.6281 622.825 56.8109 619.579 Q59.9619 616.301 59.9619 610.476 Q59.9619 607.102 59.1344 603.951 Q58.3069 600.768 56.6518 597.649 L62.1899 597.649 Q63.5267 600.8 64.227 604.11 Q64.9272 607.42 64.9272 610.826 Q64.9272 619.356 59.9619 624.353 Q54.9967 629.318 46.5303 629.318 Q37.7774 629.318 32.6531 624.608 Q27.4968 619.865 27.4968 611.845 Q27.4968 604.651 32.1438 600.482 Q36.7589 596.28 44.7161 596.28 M42.9973 602.137 Q38.1912 602.201 35.3266 604.842 Q32.4621 607.452 32.4621 611.781 Q32.4621 616.683 35.2312 619.643 Q38.0002 622.571 43.0292 623.016 L42.9973 602.137 Z" fill="#000000" fill-rule="nonzero" fill-opacity="1" /><path clip-path="url(#clip880)" d="M42.4881 557.036 L64.0042 557.036 L64.0042 562.892 L42.679 562.892 Q37.6183 562.892 35.1038 564.866 Q32.5894 566.839 32.5894 570.786 Q32.5894 575.528 35.6131 578.265 Q38.6368 581.003 43.8567 581.003 L64.0042 581.003 L64.0042 586.891 L28.3562 586.891 L28.3562 581.003 L33.8944 581.003 Q30.6797 578.902 29.0883 576.069 Q27.4968 573.205 27.4968 569.481 Q27.4968 563.338 31.3163 560.187 Q35.1038 557.036 42.4881 557.036 Z" fill="#000000" fill-rule="nonzero" fill-opacity="1" /><path clip-path="url(#clip880)" d="M29.4065 522.629 L34.9447 522.629 Q33.6716 525.112 33.035 527.785 Q32.3984 530.459 32.3984 533.324 Q32.3984 537.684 33.7352 539.88 Q35.072 542.045 37.7456 542.045 Q39.7826 542.045 40.9603 540.485 Q42.1061 538.925 43.1565 534.215 L43.6021 532.21 Q44.9389 525.971 47.3897 523.361 Q49.8086 520.719 54.1691 520.719 Q59.1344 520.719 62.0308 524.666 Q64.9272 528.581 64.9272 535.456 Q64.9272 538.321 64.3543 541.44 Q63.8132 544.527 62.6992 547.965 L56.6518 547.965 Q58.3387 544.718 59.198 541.567 Q60.0256 538.416 60.0256 535.329 Q60.0256 531.191 58.6251 528.963 Q57.1929 526.735 54.6147 526.735 Q52.2276 526.735 50.9545 528.358 Q49.6813 529.95 48.5037 535.392 L48.0262 537.429 Q46.8804 542.872 44.5251 545.291 Q42.138 547.71 38.0002 547.71 Q32.9713 547.71 30.2341 544.145 Q27.4968 540.58 27.4968 534.024 Q27.4968 530.777 27.9743 527.913 Q28.4517 525.048 29.4065 522.629 Z" fill="#000000" fill-rule="nonzero" fill-opacity="1" /><path clip-path="url(#clip880)" d="M28.3562 511.394 L28.3562 505.537 L64.0042 505.537 L64.0042 511.394 L28.3562 511.394 M14.479 511.394 L14.479 505.537 L21.895 505.537 L21.895 511.394 L14.479 511.394 Z" fill="#000000" fill-rule="nonzero" fill-opacity="1" /><path clip-path="url(#clip880)" d="M18.2347 487.49 L28.3562 487.49 L28.3562 475.427 L32.9077 475.427 L32.9077 487.49 L52.2594 487.49 Q56.6199 487.49 57.8613 486.313 Q59.1026 485.103 59.1026 481.443 L59.1026 475.427 L64.0042 475.427 L64.0042 481.443 Q64.0042 488.223 61.4897 490.801 Q58.9434 493.379 52.2594 493.379 L32.9077 493.379 L32.9077 497.676 L28.3562 497.676 L28.3562 493.379 L18.2347 493.379 L18.2347 487.49 Z" fill="#000000" fill-rule="nonzero" fill-opacity="1" /><path clip-path="url(#clip880)" d="M67.3143 452.893 Q73.68 455.376 75.6216 457.731 Q77.5631 460.086 77.5631 464.033 L77.5631 468.712 L72.6615 468.712 L72.6615 465.274 Q72.6615 462.855 71.5157 461.518 Q70.3699 460.182 66.1048 458.558 L63.4312 457.508 L28.3562 471.926 L28.3562 465.72 L56.238 454.58 L28.3562 443.44 L28.3562 437.233 L67.3143 452.893 Z" fill="#000000" fill-rule="nonzero" fill-opacity="1" /><polyline clip-path="url(#clip882)" style="stroke:#009af9; stroke-linecap:round; stroke-linejoin:round; stroke-width:4; stroke-opacity:1; fill:none" points="264.778,1384.22 307.456,1384.23 371.471,1384.23 414.148,1384.24 435.487,1384.24 456.825,1384.22 499.503,1384.24 520.841,1384.14 542.18,1384.22 563.518,1384.21 584.857,1384.22 606.195,1384.23 627.534,1384.18 648.872,1384.23 670.211,1384.23 691.55,1384.05 712.888,1384.04 734.227,1384.16 755.565,1383.8 776.904,1383.95 798.242,1384 819.581,1383.84 840.919,1383.8 862.258,1383.89 883.597,1383.84 904.935,1383.72 926.274,1383.4 947.612,1383.59 968.951,1383.19 990.289,1383.25 1011.63,1383.09 1032.97,1382.84 1054.3,1382.45 1075.64,1382.41 1096.98,1381.26 1118.32,1380.62 1139.66,1380.36 1161,1379.36 1182.34,1379.54 1203.67,1377.99 1225.01,1375.53 1246.35,1373.06 1267.69,1371.43 1289.03,1363.15 1310.37,1358.16 1331.71,1354.35 1353.04,1347.76 1374.38,1339.8 1395.72,1330.7 1417.06,1321.1 1438.4,1306.24 1459.74,1347.2 1481.08,1344.44 1502.41,1336.31 1523.75,1220.99 1545.09,1208.48 1566.43,1207.56 1587.77,1199.81 1609.11,1198.17 1630.45,1189.69 1651.78,1195.34 1673.12,1203.62 1694.46,1212.15 1715.8,1216.49 1737.14,1226.41 1758.48,1242.43 1779.82,1256.92 1801.15,1268.12 1822.49,1287.7 1843.83,1298.73 1865.17,1311.81 1886.51,1326.32 1907.85,1341.2 1929.19,1355.23 1950.52,1362.61 1971.86,1369.92 1993.2,1372.22 2014.54,1376.47 2035.88,1378.86 2057.22,1380.35 2078.56,1381.61 2099.89,1382.69 2121.23,1383.33 2142.57,1383.12 2163.91,1383.63 2185.25,1383.97 2206.59,1384.02 2227.93,1384.15 2270.6,1384.2 2291.94,1384.23 "/>
<polyline clip-path="url(#clip882)" style="stroke:#e26f46; stroke-linecap:round; stroke-linejoin:round; stroke-width:4; stroke-opacity:1; fill:none" points="264.778,1384.24 307.456,1384.24 371.471,1384.24 414.148,1384.24 435.487,1384.23 456.825,1384.23 499.503,1384.23 520.841,1384.23 542.18,1384.22 563.518,1384.22 584.857,1384.21 606.195,1384.21 627.534,1384.2 648.872,1384.19 670.211,1384.17 691.55,1384.15 712.888,1384.13 734.227,1384.1 755.565,1384.05 776.904,1384 798.242,1383.93 819.581,1383.84 840.919,1383.73 862.258,1383.58 883.597,1383.39 904.935,1383.15 926.274,1382.84 947.612,1382.44 968.951,1381.92 990.289,1381.26 1011.63,1380.41 1032.97,1379.33 1054.3,1377.93 1075.64,1376.15 1096.98,1373.87 1118.32,1370.96 1139.66,1367.25 1161,1362.53 1182.34,1356.52 1203.67,1348.91 1225.01,1339.28 1246.35,1327.14 1267.69,1311.88 1289.03,1292.77 1310.37,1268.97 1331.71,1239.49 1353.04,1203.21 1374.38,1158.96 1395.72,1105.49 1417.06,1041.68 1438.4,966.639 1459.74,879.965 1481.08,782.059 1502.41,674.469 1523.75,560.234 1545.09,444.117 1566.43,332.587 1587.77,233.403 1609.11,154.748 1630.45,103.965 1651.78,86.1857 1673.12,103.261 1694.46,153.349 1715.8,231.335 1737.14,329.902 1758.48,440.9 1779.82,556.598 1801.15,670.549 1822.49,777.996 1843.83,875.892 1865.17,962.671 1886.51,1037.91 1907.85,1101.98 1929.19,1155.75 1950.52,1200.33 1971.86,1236.93 1993.2,1266.73 2014.54,1290.83 2035.88,1310.21 2057.22,1325.72 2078.56,1338.08 2099.89,1347.9 2121.23,1355.67 2142.57,1361.82 2163.91,1366.66 2185.25,1370.48 2206.59,1373.47 2227.93,1375.82 2270.6,1379.11 2291.94,1380.24 "/>
<path clip-path="url(#clip880)" d="M275.59 248.629 L824.773 248.629 L824.773 93.1086 L275.59 93.1086  Z" fill="#ffffff" fill-rule="evenodd" fill-opacity="1"/>
<polyline clip-path="url(#clip880)" style="stroke:#ffffff; stroke-linecap:round; stroke-linejoin:round; stroke-width:4; stroke-opacity:1; fill:none" points="275.59,248.629 824.773,248.629 824.773,93.1086 275.59,93.1086 275.59,248.629 "/>
<polyline clip-path="url(#clip880)" style="stroke:#009af9; stroke-linecap:round; stroke-linejoin:round; stroke-width:4; stroke-opacity:1; fill:none" points="299.465,144.949 442.718,144.949 "/>
<path clip-path="url(#clip880)" d="M466.594 127.669 L471.27 127.669 L471.27 141.835 L488.26 141.835 L488.26 127.669 L492.936 127.669 L492.936 162.229 L488.26 162.229 L488.26 145.77 L471.27 145.77 L471.27 162.229 L466.594 162.229 L466.594 127.669 Z" fill="#000000" fill-rule="nonzero" fill-opacity="1" /><path clip-path="url(#clip880)" d="M502.057 136.303 L506.316 136.303 L506.316 162.229 L502.057 162.229 L502.057 136.303 M502.057 126.21 L506.316 126.21 L506.316 131.604 L502.057 131.604 L502.057 126.21 Z" fill="#000000" fill-rule="nonzero" fill-opacity="1" /><path clip-path="url(#clip880)" d="M531.755 137.067 L531.755 141.094 Q529.95 140.169 528.005 139.706 Q526.061 139.243 523.978 139.243 Q520.806 139.243 519.209 140.215 Q517.635 141.187 517.635 143.131 Q517.635 144.613 518.769 145.469 Q519.904 146.303 523.33 147.067 L524.788 147.391 Q529.325 148.363 531.223 150.145 Q533.144 151.905 533.144 155.076 Q533.144 158.687 530.274 160.793 Q527.427 162.9 522.427 162.9 Q520.343 162.9 518.075 162.483 Q515.83 162.09 513.33 161.28 L513.33 156.881 Q515.691 158.108 517.982 158.733 Q520.274 159.335 522.519 159.335 Q525.529 159.335 527.149 158.317 Q528.769 157.275 528.769 155.4 Q528.769 153.664 527.589 152.738 Q526.431 151.812 522.473 150.956 L520.992 150.608 Q517.033 149.775 515.274 148.062 Q513.515 146.326 513.515 143.317 Q513.515 139.659 516.107 137.669 Q518.7 135.678 523.468 135.678 Q525.83 135.678 527.913 136.025 Q529.996 136.372 531.755 137.067 Z" fill="#000000" fill-rule="nonzero" fill-opacity="1" /><path clip-path="url(#clip880)" d="M544.14 128.942 L544.14 136.303 L552.913 136.303 L552.913 139.613 L544.14 139.613 L544.14 153.687 Q544.14 156.858 544.996 157.761 Q545.876 158.664 548.538 158.664 L552.913 158.664 L552.913 162.229 L548.538 162.229 Q543.607 162.229 541.732 160.4 Q539.857 158.548 539.857 153.687 L539.857 139.613 L536.732 139.613 L536.732 136.303 L539.857 136.303 L539.857 128.942 L544.14 128.942 Z" fill="#000000" fill-rule="nonzero" fill-opacity="1" /><path clip-path="url(#clip880)" d="M568.561 139.289 Q565.135 139.289 563.144 141.974 Q561.153 144.636 561.153 149.289 Q561.153 153.942 563.121 156.627 Q565.112 159.289 568.561 159.289 Q571.964 159.289 573.954 156.604 Q575.945 153.918 575.945 149.289 Q575.945 144.682 573.954 141.997 Q571.964 139.289 568.561 139.289 M568.561 135.678 Q574.116 135.678 577.288 139.289 Q580.459 142.9 580.459 149.289 Q580.459 155.655 577.288 159.289 Q574.116 162.9 568.561 162.9 Q562.982 162.9 559.811 159.289 Q556.663 155.655 556.663 149.289 Q556.663 142.9 559.811 139.289 Q562.982 135.678 568.561 135.678 Z" fill="#000000" fill-rule="nonzero" fill-opacity="1" /><path clip-path="url(#clip880)" d="M604.579 148.965 Q604.579 144.335 602.658 141.789 Q600.76 139.243 597.311 139.243 Q593.885 139.243 591.963 141.789 Q590.065 144.335 590.065 148.965 Q590.065 153.571 591.963 156.118 Q593.885 158.664 597.311 158.664 Q600.76 158.664 602.658 156.118 Q604.579 153.571 604.579 148.965 M608.838 159.011 Q608.838 165.631 605.899 168.849 Q602.959 172.09 596.894 172.09 Q594.649 172.09 592.658 171.742 Q590.667 171.418 588.792 170.724 L588.792 166.58 Q590.667 167.599 592.496 168.085 Q594.325 168.571 596.223 168.571 Q600.412 168.571 602.496 166.372 Q604.579 164.196 604.579 159.775 L604.579 157.668 Q603.26 159.96 601.2 161.094 Q599.139 162.229 596.269 162.229 Q591.5 162.229 588.584 158.594 Q585.667 154.96 585.667 148.965 Q585.667 142.946 588.584 139.312 Q591.5 135.678 596.269 135.678 Q599.139 135.678 601.2 136.812 Q603.26 137.946 604.579 140.238 L604.579 136.303 L608.838 136.303 L608.838 159.011 Z" fill="#000000" fill-rule="nonzero" fill-opacity="1" /><path clip-path="url(#clip880)" d="M632.635 140.284 Q631.917 139.868 631.06 139.682 Q630.227 139.474 629.209 139.474 Q625.598 139.474 623.653 141.835 Q621.732 144.173 621.732 148.571 L621.732 162.229 L617.449 162.229 L617.449 136.303 L621.732 136.303 L621.732 140.331 Q623.074 137.969 625.227 136.835 Q627.38 135.678 630.459 135.678 Q630.898 135.678 631.431 135.747 Q631.963 135.794 632.611 135.909 L632.635 140.284 Z" fill="#000000" fill-rule="nonzero" fill-opacity="1" /><path clip-path="url(#clip880)" d="M648.884 149.196 Q643.722 149.196 641.732 150.377 Q639.741 151.557 639.741 154.405 Q639.741 156.673 641.222 158.016 Q642.727 159.335 645.296 159.335 Q648.838 159.335 650.968 156.835 Q653.121 154.312 653.121 150.145 L653.121 149.196 L648.884 149.196 M657.38 147.437 L657.38 162.229 L653.121 162.229 L653.121 158.293 Q651.662 160.655 649.486 161.789 Q647.31 162.9 644.162 162.9 Q640.181 162.9 637.82 160.678 Q635.482 158.432 635.482 154.682 Q635.482 150.307 638.398 148.085 Q641.338 145.863 647.148 145.863 L653.121 145.863 L653.121 145.446 Q653.121 142.507 651.176 140.909 Q649.255 139.289 645.759 139.289 Q643.537 139.289 641.431 139.821 Q639.324 140.354 637.38 141.419 L637.38 137.483 Q639.718 136.581 641.917 136.141 Q644.116 135.678 646.199 135.678 Q651.824 135.678 654.602 138.594 Q657.38 141.511 657.38 147.437 Z" fill="#000000" fill-rule="nonzero" fill-opacity="1" /><path clip-path="url(#clip880)" d="M686.338 141.28 Q687.935 138.409 690.157 137.044 Q692.38 135.678 695.389 135.678 Q699.44 135.678 701.639 138.525 Q703.838 141.349 703.838 146.581 L703.838 162.229 L699.555 162.229 L699.555 146.719 Q699.555 142.993 698.236 141.187 Q696.917 139.382 694.208 139.382 Q690.898 139.382 688.977 141.581 Q687.056 143.78 687.056 147.576 L687.056 162.229 L682.773 162.229 L682.773 146.719 Q682.773 142.969 681.454 141.187 Q680.134 139.382 677.38 139.382 Q674.116 139.382 672.194 141.604 Q670.273 143.803 670.273 147.576 L670.273 162.229 L665.991 162.229 L665.991 136.303 L670.273 136.303 L670.273 140.331 Q671.732 137.946 673.769 136.812 Q675.806 135.678 678.607 135.678 Q681.431 135.678 683.398 137.113 Q685.389 138.548 686.338 141.28 Z" fill="#000000" fill-rule="nonzero" fill-opacity="1" /><polyline clip-path="url(#clip880)" style="stroke:#e26f46; stroke-linecap:round; stroke-linejoin:round; stroke-width:4; stroke-opacity:1; fill:none" points="299.465,196.789 442.718,196.789 "/>
<path clip-path="url(#clip880)" d="M471.27 183.351 L471.27 210.226 L476.918 210.226 Q484.071 210.226 487.381 206.985 Q490.714 203.745 490.714 196.754 Q490.714 189.809 487.381 186.592 Q484.071 183.351 476.918 183.351 L471.27 183.351 M466.594 179.509 L476.2 179.509 Q486.246 179.509 490.945 183.698 Q495.645 187.865 495.645 196.754 Q495.645 205.689 490.922 209.879 Q486.2 214.069 476.2 214.069 L466.594 214.069 L466.594 179.509 Z" fill="#000000" fill-rule="nonzero" fill-opacity="1" /><path clip-path="url(#clip880)" d="M502.913 188.143 L507.172 188.143 L507.172 214.069 L502.913 214.069 L502.913 188.143 M502.913 178.05 L507.172 178.05 L507.172 183.444 L502.913 183.444 L502.913 178.05 Z" fill="#000000" fill-rule="nonzero" fill-opacity="1" /><path clip-path="url(#clip880)" d="M532.612 188.907 L532.612 192.934 Q530.806 192.009 528.862 191.546 Q526.917 191.083 524.834 191.083 Q521.663 191.083 520.066 192.055 Q518.492 193.027 518.492 194.971 Q518.492 196.453 519.626 197.309 Q520.76 198.143 524.186 198.907 L525.644 199.231 Q530.181 200.203 532.08 201.985 Q534.001 203.745 534.001 206.916 Q534.001 210.527 531.13 212.633 Q528.283 214.74 523.283 214.74 Q521.2 214.74 518.931 214.323 Q516.686 213.93 514.186 213.12 L514.186 208.721 Q516.547 209.948 518.839 210.573 Q521.13 211.175 523.376 211.175 Q526.385 211.175 528.005 210.157 Q529.626 209.115 529.626 207.24 Q529.626 205.504 528.445 204.578 Q527.288 203.652 523.33 202.796 L521.848 202.448 Q517.89 201.615 516.131 199.902 Q514.371 198.166 514.371 195.157 Q514.371 191.499 516.964 189.509 Q519.556 187.518 524.325 187.518 Q526.686 187.518 528.769 187.865 Q530.853 188.212 532.612 188.907 Z" fill="#000000" fill-rule="nonzero" fill-opacity="1" /><path clip-path="url(#clip880)" d="M544.996 180.782 L544.996 188.143 L553.769 188.143 L553.769 191.453 L544.996 191.453 L544.996 205.527 Q544.996 208.698 545.853 209.601 Q546.732 210.504 549.394 210.504 L553.769 210.504 L553.769 214.069 L549.394 214.069 Q544.464 214.069 542.589 212.24 Q540.714 210.388 540.714 205.527 L540.714 191.453 L537.589 191.453 L537.589 188.143 L540.714 188.143 L540.714 180.782 L544.996 180.782 Z" fill="#000000" fill-rule="nonzero" fill-opacity="1" /><path clip-path="url(#clip880)" d="M574.394 192.124 Q573.677 191.708 572.82 191.522 Q571.987 191.314 570.968 191.314 Q567.357 191.314 565.413 193.675 Q563.491 196.013 563.491 200.411 L563.491 214.069 L559.209 214.069 L559.209 188.143 L563.491 188.143 L563.491 192.171 Q564.834 189.809 566.987 188.675 Q569.139 187.518 572.218 187.518 Q572.658 187.518 573.19 187.587 Q573.723 187.634 574.371 187.749 L574.394 192.124 Z" fill="#000000" fill-rule="nonzero" fill-opacity="1" /><path clip-path="url(#clip880)" d="M578.862 188.143 L583.121 188.143 L583.121 214.069 L578.862 214.069 L578.862 188.143 M578.862 178.05 L583.121 178.05 L583.121 183.444 L578.862 183.444 L578.862 178.05 Z" fill="#000000" fill-rule="nonzero" fill-opacity="1" /><path clip-path="url(#clip880)" d="M610.644 201.129 Q610.644 196.43 608.699 193.768 Q606.778 191.083 603.399 191.083 Q600.019 191.083 598.075 193.768 Q596.153 196.43 596.153 201.129 Q596.153 205.828 598.075 208.513 Q600.019 211.175 603.399 211.175 Q606.778 211.175 608.699 208.513 Q610.644 205.828 610.644 201.129 M596.153 192.078 Q597.496 189.763 599.533 188.652 Q601.593 187.518 604.44 187.518 Q609.162 187.518 612.102 191.268 Q615.065 195.018 615.065 201.129 Q615.065 207.24 612.102 210.99 Q609.162 214.74 604.44 214.74 Q601.593 214.74 599.533 213.629 Q597.496 212.495 596.153 210.18 L596.153 214.069 L591.871 214.069 L591.871 178.05 L596.153 178.05 L596.153 192.078 Z" fill="#000000" fill-rule="nonzero" fill-opacity="1" /><path clip-path="url(#clip880)" d="M621.686 203.837 L621.686 188.143 L625.945 188.143 L625.945 203.675 Q625.945 207.356 627.38 209.208 Q628.815 211.036 631.685 211.036 Q635.135 211.036 637.125 208.837 Q639.139 206.638 639.139 202.842 L639.139 188.143 L643.398 188.143 L643.398 214.069 L639.139 214.069 L639.139 210.087 Q637.588 212.448 635.528 213.606 Q633.491 214.74 630.783 214.74 Q626.315 214.74 624 211.962 Q621.686 209.184 621.686 203.837 M632.403 187.518 L632.403 187.518 Z" fill="#000000" fill-rule="nonzero" fill-opacity="1" /><path clip-path="url(#clip880)" d="M656.384 180.782 L656.384 188.143 L665.157 188.143 L665.157 191.453 L656.384 191.453 L656.384 205.527 Q656.384 208.698 657.241 209.601 Q658.12 210.504 660.783 210.504 L665.157 210.504 L665.157 214.069 L660.783 214.069 Q655.852 214.069 653.977 212.24 Q652.102 210.388 652.102 205.527 L652.102 191.453 L648.977 191.453 L648.977 188.143 L652.102 188.143 L652.102 180.782 L656.384 180.782 Z" fill="#000000" fill-rule="nonzero" fill-opacity="1" /><path clip-path="url(#clip880)" d="M670.759 188.143 L675.019 188.143 L675.019 214.069 L670.759 214.069 L670.759 188.143 M670.759 178.05 L675.019 178.05 L675.019 183.444 L670.759 183.444 L670.759 178.05 Z" fill="#000000" fill-rule="nonzero" fill-opacity="1" /><path clip-path="url(#clip880)" d="M693.977 191.129 Q690.551 191.129 688.56 193.814 Q686.569 196.476 686.569 201.129 Q686.569 205.782 688.537 208.467 Q690.528 211.129 693.977 211.129 Q697.38 211.129 699.37 208.444 Q701.361 205.758 701.361 201.129 Q701.361 196.522 699.37 193.837 Q697.38 191.129 693.977 191.129 M693.977 187.518 Q699.532 187.518 702.704 191.129 Q705.875 194.74 705.875 201.129 Q705.875 207.495 702.704 211.129 Q699.532 214.74 693.977 214.74 Q688.398 214.74 685.227 211.129 Q682.079 207.495 682.079 201.129 Q682.079 194.74 685.227 191.129 Q688.398 187.518 693.977 187.518 Z" fill="#000000" fill-rule="nonzero" fill-opacity="1" /><path clip-path="url(#clip880)" d="M734.486 198.421 L734.486 214.069 L730.227 214.069 L730.227 198.559 Q730.227 194.879 728.791 193.05 Q727.356 191.222 724.486 191.222 Q721.037 191.222 719.046 193.421 Q717.055 195.62 717.055 199.416 L717.055 214.069 L712.773 214.069 L712.773 188.143 L717.055 188.143 L717.055 192.171 Q718.583 189.833 720.643 188.675 Q722.727 187.518 725.435 187.518 Q729.903 187.518 732.194 190.296 Q734.486 193.05 734.486 198.421 Z" fill="#000000" fill-rule="nonzero" fill-opacity="1" /><path clip-path="url(#clip880)" d="M771.175 178.05 L771.175 181.592 L767.101 181.592 Q764.81 181.592 763.907 182.518 Q763.027 183.444 763.027 185.851 L763.027 188.143 L770.041 188.143 L770.041 191.453 L763.027 191.453 L763.027 214.069 L758.745 214.069 L758.745 191.453 L754.671 191.453 L754.671 188.143 L758.745 188.143 L758.745 186.337 Q758.745 182.009 760.759 180.041 Q762.773 178.05 767.148 178.05 L771.175 178.05 Z" fill="#000000" fill-rule="nonzero" fill-opacity="1" /><path clip-path="url(#clip880)" d="M774.74 188.143 L778.999 188.143 L778.999 214.069 L774.74 214.069 L774.74 188.143 M774.74 178.05 L778.999 178.05 L778.999 183.444 L774.74 183.444 L774.74 178.05 Z" fill="#000000" fill-rule="nonzero" fill-opacity="1" /><path clip-path="url(#clip880)" d="M792.124 180.782 L792.124 188.143 L800.898 188.143 L800.898 191.453 L792.124 191.453 L792.124 205.527 Q792.124 208.698 792.981 209.601 Q793.861 210.504 796.523 210.504 L800.898 210.504 L800.898 214.069 L796.523 214.069 Q791.592 214.069 789.717 212.24 Q787.842 210.388 787.842 205.527 L787.842 191.453 L784.717 191.453 L784.717 188.143 L787.842 188.143 L787.842 180.782 L792.124 180.782 Z" fill="#000000" fill-rule="nonzero" fill-opacity="1" /></svg>
