<?xml version="1.0" encoding="utf-8"?>
<svg xmlns="http://www.w3.org/2000/svg" xmlns:xlink="http://www.w3.org/1999/xlink" width="600" height="400" viewBox="0 0 2400 1600">
<defs>
  <clipPath id="clip840">
    <rect x="0" y="0" width="2400" height="1600"/>
  </clipPath>
</defs>
<path clip-path="url(#clip840)" d="M0 1600 L2400 1600 L2400 8.88178e-14 L0 8.88178e-14  Z" fill="#ffffff" fill-rule="evenodd" fill-opacity="1"/>
<defs>
  <clipPath id="clip841">
    <rect x="480" y="0" width="1681" height="1600"/>
  </clipPath>
</defs>
<path clip-path="url(#clip840)" d="M249.843 1552.76 L2352.76 1552.76 L2352.76 47.2441 L249.843 47.2441  Z" fill="#ffffff" fill-rule="evenodd" fill-opacity="1"/>
<defs>
  <clipPath id="clip842">
    <rect x="249" y="47" width="2104" height="1507"/>
  </clipPath>
</defs>
<polyline clip-path="url(#clip842)" style="stroke:#000000; stroke-linecap:round; stroke-linejoin:round; stroke-width:2; stroke-opacity:0.1; fill:none" points="249.843,1316.47 2352.76,1316.47 "/>
<polyline clip-path="url(#clip842)" style="stroke:#000000; stroke-linecap:round; stroke-linejoin:round; stroke-width:2; stroke-opacity:0.1; fill:none" points="249.843,1058.24 2352.76,1058.24 "/>
<polyline clip-path="url(#clip842)" style="stroke:#000000; stroke-linecap:round; stroke-linejoin:round; stroke-width:2; stroke-opacity:0.1; fill:none" points="249.843,800 2352.76,800 "/>
<polyline clip-path="url(#clip842)" style="stroke:#000000; stroke-linecap:round; stroke-linejoin:round; stroke-width:2; stroke-opacity:0.1; fill:none" points="249.843,541.765 2352.76,541.765 "/>
<polyline clip-path="url(#clip842)" style="stroke:#000000; stroke-linecap:round; stroke-linejoin:round; stroke-width:2; stroke-opacity:0.1; fill:none" points="249.843,283.529 2352.76,283.529 "/>
<polyline clip-path="url(#clip842)" style="stroke:#000000; stroke-linecap:round; stroke-linejoin:round; stroke-width:2; stroke-opacity:0.1; fill:none" points="249.843,1316.47 2352.76,1316.47 "/>
<polyline clip-path="url(#clip842)" style="stroke:#000000; stroke-linecap:round; stroke-linejoin:round; stroke-width:2; stroke-opacity:0.1; fill:none" points="249.843,1058.24 2352.76,1058.24 "/>
<polyline clip-path="url(#clip842)" style="stroke:#000000; stroke-linecap:round; stroke-linejoin:round; stroke-width:2; stroke-opacity:0.1; fill:none" points="249.843,800 2352.76,800 "/>
<polyline clip-path="url(#clip842)" style="stroke:#000000; stroke-linecap:round; stroke-linejoin:round; stroke-width:2; stroke-opacity:0.1; fill:none" points="249.843,541.765 2352.76,541.765 "/>
<polyline clip-path="url(#clip842)" style="stroke:#000000; stroke-linecap:round; stroke-linejoin:round; stroke-width:2; stroke-opacity:0.1; fill:none" points="249.843,283.529 2352.76,283.529 "/>
<polyline clip-path="url(#clip840)" style="stroke:#000000; stroke-linecap:round; stroke-linejoin:round; stroke-width:4; stroke-opacity:1; fill:none" points="249.843,1552.76 2352.76,1552.76 "/>
<polyline clip-path="url(#clip840)" style="stroke:#000000; stroke-linecap:round; stroke-linejoin:round; stroke-width:4; stroke-opacity:1; fill:none" points="249.843,47.2441 2352.76,47.2441 "/>
<polyline clip-path="url(#clip840)" style="stroke:#000000; stroke-linecap:round; stroke-linejoin:round; stroke-width:4; stroke-opacity:1; fill:none" points="249.843,1552.76 249.843,47.2441 "/>
<polyline clip-path="url(#clip840)" style="stroke:#000000; stroke-linecap:round; stroke-linejoin:round; stroke-width:4; stroke-opacity:1; fill:none" points="2352.76,1552.76 2352.76,47.2441 "/>
<polyline clip-path="url(#clip840)" style="stroke:#000000; stroke-linecap:round; stroke-linejoin:round; stroke-width:4; stroke-opacity:1; fill:none" points="249.843,1316.47 268.741,1316.47 "/>
<polyline clip-path="url(#clip840)" style="stroke:#000000; stroke-linecap:round; stroke-linejoin:round; stroke-width:4; stroke-opacity:1; fill:none" points="249.843,1058.24 268.741,1058.24 "/>
<polyline clip-path="url(#clip840)" style="stroke:#000000; stroke-linecap:round; stroke-linejoin:round; stroke-width:4; stroke-opacity:1; fill:none" points="249.843,800 268.741,800 "/>
<polyline clip-path="url(#clip840)" style="stroke:#000000; stroke-linecap:round; stroke-linejoin:round; stroke-width:4; stroke-opacity:1; fill:none" points="249.843,541.765 268.741,541.765 "/>
<polyline clip-path="url(#clip840)" style="stroke:#000000; stroke-linecap:round; stroke-linejoin:round; stroke-width:4; stroke-opacity:1; fill:none" points="249.843,283.529 268.741,283.529 "/>
<polyline clip-path="url(#clip840)" style="stroke:#000000; stroke-linecap:round; stroke-linejoin:round; stroke-width:4; stroke-opacity:1; fill:none" points="2352.76,1316.47 2333.86,1316.47 "/>
<polyline clip-path="url(#clip840)" style="stroke:#000000; stroke-linecap:round; stroke-linejoin:round; stroke-width:4; stroke-opacity:1; fill:none" points="2352.76,1058.24 2333.86,1058.24 "/>
<polyline clip-path="url(#clip840)" style="stroke:#000000; stroke-linecap:round; stroke-linejoin:round; stroke-width:4; stroke-opacity:1; fill:none" points="2352.76,800 2333.86,800 "/>
<polyline clip-path="url(#clip840)" style="stroke:#000000; stroke-linecap:round; stroke-linejoin:round; stroke-width:4; stroke-opacity:1; fill:none" points="2352.76,541.765 2333.86,541.765 "/>
<polyline clip-path="url(#clip840)" style="stroke:#000000; stroke-linecap:round; stroke-linejoin:round; stroke-width:4; stroke-opacity:1; fill:none" points="2352.76,283.529 2333.86,283.529 "/>
<path clip-path="url(#clip840)" d="M127.084 1314.61 Q123.936 1314.61 122.084 1316.76 Q120.255 1318.91 120.255 1322.66 Q120.255 1326.39 122.084 1328.57 Q123.936 1330.72 127.084 1330.72 Q130.232 1330.72 132.061 1328.57 Q133.913 1326.39 133.913 1322.66 Q133.913 1318.91 132.061 1316.76 Q130.232 1314.61 127.084 1314.61 M136.367 1299.95 L136.367 1304.21 Q134.607 1303.38 132.802 1302.94 Q131.019 1302.5 129.26 1302.5 Q124.63 1302.5 122.177 1305.63 Q119.746 1308.75 119.399 1315.07 Q120.765 1313.06 122.825 1311.99 Q124.885 1310.9 127.362 1310.9 Q132.57 1310.9 135.579 1314.07 Q138.612 1317.22 138.612 1322.66 Q138.612 1327.99 135.464 1331.2 Q132.316 1334.42 127.084 1334.42 Q121.089 1334.42 117.918 1329.84 Q114.746 1325.23 114.746 1316.51 Q114.746 1308.31 118.635 1303.45 Q122.524 1298.57 129.075 1298.57 Q130.834 1298.57 132.617 1298.91 Q134.422 1299.26 136.367 1299.95 Z" fill="#000000" fill-rule="nonzero" fill-opacity="1" /><path clip-path="url(#clip840)" d="M157.246 1314.61 Q154.098 1314.61 152.246 1316.76 Q150.417 1318.91 150.417 1322.66 Q150.417 1326.39 152.246 1328.57 Q154.098 1330.72 157.246 1330.72 Q160.394 1330.72 162.223 1328.57 Q164.075 1326.39 164.075 1322.66 Q164.075 1318.91 162.223 1316.76 Q160.394 1314.61 157.246 1314.61 M166.528 1299.95 L166.528 1304.21 Q164.769 1303.38 162.964 1302.94 Q161.181 1302.5 159.422 1302.5 Q154.792 1302.5 152.339 1305.63 Q149.908 1308.75 149.561 1315.07 Q150.927 1313.06 152.987 1311.99 Q155.047 1310.9 157.524 1310.9 Q162.732 1310.9 165.741 1314.07 Q168.774 1317.22 168.774 1322.66 Q168.774 1327.99 165.626 1331.2 Q162.477 1334.42 157.246 1334.42 Q151.251 1334.42 148.079 1329.84 Q144.908 1325.23 144.908 1316.51 Q144.908 1308.31 148.797 1303.45 Q152.686 1298.57 159.237 1298.57 Q160.996 1298.57 162.778 1298.91 Q164.584 1299.26 166.528 1299.95 Z" fill="#000000" fill-rule="nonzero" fill-opacity="1" /><path clip-path="url(#clip840)" d="M176.829 1327.87 L181.713 1327.87 L181.713 1333.75 L176.829 1333.75 L176.829 1327.87 Z" fill="#000000" fill-rule="nonzero" fill-opacity="1" /><path clip-path="url(#clip840)" d="M201.899 1302.27 Q198.287 1302.27 196.459 1305.83 Q194.653 1309.38 194.653 1316.51 Q194.653 1323.61 196.459 1327.18 Q198.287 1330.72 201.899 1330.72 Q205.533 1330.72 207.338 1327.18 Q209.167 1323.61 209.167 1316.51 Q209.167 1309.38 207.338 1305.83 Q205.533 1302.27 201.899 1302.27 M201.899 1298.57 Q207.709 1298.57 210.764 1303.17 Q213.843 1307.76 213.843 1316.51 Q213.843 1325.23 210.764 1329.84 Q207.709 1334.42 201.899 1334.42 Q196.088 1334.42 193.01 1329.84 Q189.954 1325.23 189.954 1316.51 Q189.954 1307.76 193.01 1303.17 Q196.088 1298.57 201.899 1298.57 Z" fill="#000000" fill-rule="nonzero" fill-opacity="1" /><path clip-path="url(#clip840)" d="M128.681 1056.37 Q125.533 1056.37 123.681 1058.52 Q121.853 1060.68 121.853 1064.43 Q121.853 1068.15 123.681 1070.33 Q125.533 1072.48 128.681 1072.48 Q131.83 1072.48 133.658 1070.33 Q135.51 1068.15 135.51 1064.43 Q135.51 1060.68 133.658 1058.52 Q131.83 1056.37 128.681 1056.37 M137.964 1041.72 L137.964 1045.98 Q136.204 1045.15 134.399 1044.71 Q132.617 1044.27 130.857 1044.27 Q126.228 1044.27 123.774 1047.39 Q121.343 1050.52 120.996 1056.83 Q122.362 1054.82 124.422 1053.76 Q126.482 1052.67 128.959 1052.67 Q134.167 1052.67 137.177 1055.84 Q140.209 1058.99 140.209 1064.43 Q140.209 1069.75 137.061 1072.97 Q133.913 1076.19 128.681 1076.19 Q122.686 1076.19 119.515 1071.6 Q116.343 1067 116.343 1058.27 Q116.343 1050.08 120.232 1045.21 Q124.121 1040.33 130.672 1040.33 Q132.431 1040.33 134.214 1040.68 Q136.019 1041.02 137.964 1041.72 Z" fill="#000000" fill-rule="nonzero" fill-opacity="1" /><path clip-path="url(#clip840)" d="M158.843 1056.37 Q155.695 1056.37 153.843 1058.52 Q152.015 1060.68 152.015 1064.43 Q152.015 1068.15 153.843 1070.33 Q155.695 1072.48 158.843 1072.48 Q161.991 1072.48 163.82 1070.33 Q165.672 1068.15 165.672 1064.43 Q165.672 1060.68 163.82 1058.52 Q161.991 1056.37 158.843 1056.37 M168.126 1041.72 L168.126 1045.98 Q166.366 1045.15 164.561 1044.71 Q162.778 1044.27 161.019 1044.27 Q156.39 1044.27 153.936 1047.39 Q151.505 1050.52 151.158 1056.83 Q152.524 1054.82 154.584 1053.76 Q156.644 1052.67 159.121 1052.67 Q164.329 1052.67 167.339 1055.84 Q170.371 1058.99 170.371 1064.43 Q170.371 1069.75 167.223 1072.97 Q164.075 1076.19 158.843 1076.19 Q152.848 1076.19 149.677 1071.6 Q146.505 1067 146.505 1058.27 Q146.505 1050.08 150.394 1045.21 Q154.283 1040.33 160.834 1040.33 Q162.593 1040.33 164.376 1040.68 Q166.181 1041.02 168.126 1041.72 Z" fill="#000000" fill-rule="nonzero" fill-opacity="1" /><path clip-path="url(#clip840)" d="M178.426 1069.64 L183.311 1069.64 L183.311 1075.52 L178.426 1075.52 L178.426 1069.64 Z" fill="#000000" fill-rule="nonzero" fill-opacity="1" /><path clip-path="url(#clip840)" d="M197.524 1071.58 L213.843 1071.58 L213.843 1075.52 L191.899 1075.52 L191.899 1071.58 Q194.561 1068.83 199.144 1064.2 Q203.75 1059.54 204.931 1058.2 Q207.176 1055.68 208.056 1053.94 Q208.959 1052.18 208.959 1050.49 Q208.959 1047.74 207.014 1046 Q205.093 1044.27 201.991 1044.27 Q199.792 1044.27 197.338 1045.03 Q194.908 1045.79 192.13 1047.34 L192.13 1042.62 Q194.954 1041.49 197.408 1040.91 Q199.862 1040.33 201.899 1040.33 Q207.269 1040.33 210.463 1043.02 Q213.658 1045.7 213.658 1050.19 Q213.658 1052.32 212.848 1054.24 Q212.061 1056.14 209.954 1058.73 Q209.375 1059.4 206.274 1062.62 Q203.172 1065.82 197.524 1071.58 Z" fill="#000000" fill-rule="nonzero" fill-opacity="1" /><path clip-path="url(#clip840)" d="M126.598 798.137 Q123.45 798.137 121.598 800.289 Q119.769 802.442 119.769 806.192 Q119.769 809.919 121.598 812.095 Q123.45 814.248 126.598 814.248 Q129.746 814.248 131.575 812.095 Q133.427 809.919 133.427 806.192 Q133.427 802.442 131.575 800.289 Q129.746 798.137 126.598 798.137 M135.88 783.484 L135.88 787.743 Q134.121 786.91 132.316 786.47 Q130.533 786.03 128.774 786.03 Q124.144 786.03 121.691 789.155 Q119.26 792.28 118.913 798.6 Q120.279 796.586 122.339 795.521 Q124.399 794.433 126.876 794.433 Q132.084 794.433 135.093 797.604 Q138.126 800.752 138.126 806.192 Q138.126 811.516 134.978 814.734 Q131.83 817.951 126.598 817.951 Q120.603 817.951 117.431 813.368 Q114.26 808.762 114.26 800.035 Q114.26 791.84 118.149 786.979 Q122.038 782.095 128.589 782.095 Q130.348 782.095 132.13 782.442 Q133.936 782.789 135.88 783.484 Z" fill="#000000" fill-rule="nonzero" fill-opacity="1" /><path clip-path="url(#clip840)" d="M156.76 798.137 Q153.612 798.137 151.76 800.289 Q149.931 802.442 149.931 806.192 Q149.931 809.919 151.76 812.095 Q153.612 814.248 156.76 814.248 Q159.908 814.248 161.737 812.095 Q163.589 809.919 163.589 806.192 Q163.589 802.442 161.737 800.289 Q159.908 798.137 156.76 798.137 M166.042 783.484 L166.042 787.743 Q164.283 786.91 162.477 786.47 Q160.695 786.03 158.936 786.03 Q154.306 786.03 151.853 789.155 Q149.422 792.28 149.075 798.6 Q150.441 796.586 152.501 795.521 Q154.561 794.433 157.038 794.433 Q162.246 794.433 165.255 797.604 Q168.288 800.752 168.288 806.192 Q168.288 811.516 165.14 814.734 Q161.991 817.951 156.76 817.951 Q150.765 817.951 147.593 813.368 Q144.422 808.762 144.422 800.035 Q144.422 791.84 148.311 786.979 Q152.2 782.095 158.751 782.095 Q160.51 782.095 162.292 782.442 Q164.098 782.789 166.042 783.484 Z" fill="#000000" fill-rule="nonzero" fill-opacity="1" /><path clip-path="url(#clip840)" d="M176.343 811.4 L181.227 811.4 L181.227 817.28 L176.343 817.28 L176.343 811.4 Z" fill="#000000" fill-rule="nonzero" fill-opacity="1" /><path clip-path="url(#clip840)" d="M204.26 786.794 L192.454 805.243 L204.26 805.243 L204.26 786.794 M203.033 782.72 L208.912 782.72 L208.912 805.243 L213.843 805.243 L213.843 809.132 L208.912 809.132 L208.912 817.28 L204.26 817.28 L204.26 809.132 L188.658 809.132 L188.658 804.618 L203.033 782.72 Z" fill="#000000" fill-rule="nonzero" fill-opacity="1" /><path clip-path="url(#clip840)" d="M126.922 539.901 Q123.774 539.901 121.922 542.054 Q120.093 544.207 120.093 547.957 Q120.093 551.684 121.922 553.86 Q123.774 556.012 126.922 556.012 Q130.07 556.012 131.899 553.86 Q133.751 551.684 133.751 547.957 Q133.751 544.207 131.899 542.054 Q130.07 539.901 126.922 539.901 M136.204 525.249 L136.204 529.508 Q134.445 528.674 132.64 528.235 Q130.857 527.795 129.098 527.795 Q124.468 527.795 122.015 530.92 Q119.584 534.045 119.237 540.364 Q120.603 538.35 122.663 537.286 Q124.723 536.198 127.2 536.198 Q132.408 536.198 135.417 539.369 Q138.45 542.517 138.45 547.957 Q138.45 553.281 135.302 556.498 Q132.154 559.716 126.922 559.716 Q120.927 559.716 117.756 555.133 Q114.584 550.526 114.584 541.799 Q114.584 533.605 118.473 528.744 Q122.362 523.86 128.913 523.86 Q130.672 523.86 132.455 524.207 Q134.26 524.554 136.204 525.249 Z" fill="#000000" fill-rule="nonzero" fill-opacity="1" /><path clip-path="url(#clip840)" d="M157.084 539.901 Q153.936 539.901 152.084 542.054 Q150.255 544.207 150.255 547.957 Q150.255 551.684 152.084 553.86 Q153.936 556.012 157.084 556.012 Q160.232 556.012 162.061 553.86 Q163.913 551.684 163.913 547.957 Q163.913 544.207 162.061 542.054 Q160.232 539.901 157.084 539.901 M166.366 525.249 L166.366 529.508 Q164.607 528.674 162.802 528.235 Q161.019 527.795 159.26 527.795 Q154.63 527.795 152.177 530.92 Q149.746 534.045 149.399 540.364 Q150.765 538.35 152.825 537.286 Q154.885 536.198 157.362 536.198 Q162.57 536.198 165.579 539.369 Q168.612 542.517 168.612 547.957 Q168.612 553.281 165.464 556.498 Q162.315 559.716 157.084 559.716 Q151.089 559.716 147.917 555.133 Q144.746 550.526 144.746 541.799 Q144.746 533.605 148.635 528.744 Q152.524 523.86 159.075 523.86 Q160.834 523.86 162.616 524.207 Q164.422 524.554 166.366 525.249 Z" fill="#000000" fill-rule="nonzero" fill-opacity="1" /><path clip-path="url(#clip840)" d="M176.667 553.165 L181.551 553.165 L181.551 559.045 L176.667 559.045 L176.667 553.165 Z" fill="#000000" fill-rule="nonzero" fill-opacity="1" /><path clip-path="url(#clip840)" d="M202.315 539.901 Q199.167 539.901 197.315 542.054 Q195.487 544.207 195.487 547.957 Q195.487 551.684 197.315 553.86 Q199.167 556.012 202.315 556.012 Q205.463 556.012 207.292 553.86 Q209.144 551.684 209.144 547.957 Q209.144 544.207 207.292 542.054 Q205.463 539.901 202.315 539.901 M211.598 525.249 L211.598 529.508 Q209.838 528.674 208.033 528.235 Q206.25 527.795 204.491 527.795 Q199.862 527.795 197.408 530.92 Q194.977 534.045 194.63 540.364 Q195.996 538.35 198.056 537.286 Q200.116 536.198 202.593 536.198 Q207.801 536.198 210.811 539.369 Q213.843 542.517 213.843 547.957 Q213.843 553.281 210.695 556.498 Q207.547 559.716 202.315 559.716 Q196.32 559.716 193.149 555.133 Q189.977 550.526 189.977 541.799 Q189.977 533.605 193.866 528.744 Q197.755 523.86 204.306 523.86 Q206.065 523.86 207.848 524.207 Q209.653 524.554 211.598 525.249 Z" fill="#000000" fill-rule="nonzero" fill-opacity="1" /><path clip-path="url(#clip840)" d="M127.177 281.666 Q124.029 281.666 122.177 283.819 Q120.348 285.972 120.348 289.721 Q120.348 293.448 122.177 295.624 Q124.029 297.777 127.177 297.777 Q130.325 297.777 132.154 295.624 Q134.005 293.448 134.005 289.721 Q134.005 285.972 132.154 283.819 Q130.325 281.666 127.177 281.666 M136.459 267.013 L136.459 271.273 Q134.7 270.439 132.894 269.999 Q131.112 269.56 129.353 269.56 Q124.723 269.56 122.269 272.685 Q119.839 275.81 119.492 282.129 Q120.857 280.115 122.918 279.05 Q124.978 277.962 127.455 277.962 Q132.663 277.962 135.672 281.134 Q138.704 284.282 138.704 289.721 Q138.704 295.046 135.556 298.263 Q132.408 301.481 127.177 301.481 Q121.181 301.481 118.01 296.897 Q114.839 292.291 114.839 283.564 Q114.839 275.37 118.728 270.509 Q122.617 265.624 129.167 265.624 Q130.927 265.624 132.709 265.972 Q134.515 266.319 136.459 267.013 Z" fill="#000000" fill-rule="nonzero" fill-opacity="1" /><path clip-path="url(#clip840)" d="M157.339 281.666 Q154.19 281.666 152.339 283.819 Q150.51 285.972 150.51 289.721 Q150.51 293.448 152.339 295.624 Q154.19 297.777 157.339 297.777 Q160.487 297.777 162.315 295.624 Q164.167 293.448 164.167 289.721 Q164.167 285.972 162.315 283.819 Q160.487 281.666 157.339 281.666 M166.621 267.013 L166.621 271.273 Q164.862 270.439 163.056 269.999 Q161.274 269.56 159.515 269.56 Q154.885 269.56 152.431 272.685 Q150.001 275.81 149.653 282.129 Q151.019 280.115 153.079 279.05 Q155.14 277.962 157.616 277.962 Q162.825 277.962 165.834 281.134 Q168.866 284.282 168.866 289.721 Q168.866 295.046 165.718 298.263 Q162.57 301.481 157.339 301.481 Q151.343 301.481 148.172 296.897 Q145.001 292.291 145.001 283.564 Q145.001 275.37 148.89 270.509 Q152.778 265.624 159.329 265.624 Q161.089 265.624 162.871 265.972 Q164.677 266.319 166.621 267.013 Z" fill="#000000" fill-rule="nonzero" fill-opacity="1" /><path clip-path="url(#clip840)" d="M176.922 294.93 L181.806 294.93 L181.806 300.809 L176.922 300.809 L176.922 294.93 Z" fill="#000000" fill-rule="nonzero" fill-opacity="1" /><path clip-path="url(#clip840)" d="M201.991 284.397 Q198.658 284.397 196.737 286.18 Q194.838 287.962 194.838 291.087 Q194.838 294.212 196.737 295.995 Q198.658 297.777 201.991 297.777 Q205.324 297.777 207.246 295.995 Q209.167 294.189 209.167 291.087 Q209.167 287.962 207.246 286.18 Q205.348 284.397 201.991 284.397 M197.315 282.407 Q194.306 281.666 192.616 279.606 Q190.95 277.546 190.95 274.583 Q190.95 270.439 193.889 268.032 Q196.852 265.624 201.991 265.624 Q207.153 265.624 210.093 268.032 Q213.033 270.439 213.033 274.583 Q213.033 277.546 211.343 279.606 Q209.676 281.666 206.69 282.407 Q210.07 283.194 211.945 285.485 Q213.843 287.777 213.843 291.087 Q213.843 296.11 210.764 298.796 Q207.709 301.481 201.991 301.481 Q196.274 301.481 193.195 298.796 Q190.139 296.11 190.139 291.087 Q190.139 287.777 192.038 285.485 Q193.936 283.194 197.315 282.407 M195.602 275.022 Q195.602 277.708 197.269 279.212 Q198.959 280.717 201.991 280.717 Q205 280.717 206.69 279.212 Q208.403 277.708 208.403 275.022 Q208.403 272.337 206.69 270.833 Q205 269.328 201.991 269.328 Q198.959 269.328 197.269 270.833 Q195.602 272.337 195.602 275.022 Z" fill="#000000" fill-rule="nonzero" fill-opacity="1" /><path clip-path="url(#clip840)" d="M22.818 922.094 L46.4666 930.815 L46.4666 913.341 L22.818 922.094 M16.4842 925.723 L16.4842 918.434 L64.0042 900.324 L64.0042 907.008 L51.8138 911.336 L51.8138 932.757 L64.0042 937.085 L64.0042 943.865 L16.4842 925.723 Z" fill="#000000" fill-rule="nonzero" fill-opacity="1" /><path clip-path="url(#clip840)" d="M45.7664 870.182 Q39.4007 870.182 35.8996 872.824 Q32.3984 875.434 32.3984 880.176 Q32.3984 884.887 35.8996 887.528 Q39.4007 890.138 45.7664 890.138 Q52.1003 890.138 55.6014 887.528 Q59.1026 884.887 59.1026 880.176 Q59.1026 875.434 55.6014 872.824 Q52.1003 870.182 45.7664 870.182 M59.58 864.325 Q68.683 864.325 73.1071 868.368 Q77.5631 872.41 77.5631 880.749 Q77.5631 883.836 77.0857 886.574 Q76.6401 889.311 75.6852 891.889 L69.9879 891.889 Q71.3884 889.311 72.0568 886.796 Q72.7252 884.282 72.7252 881.672 Q72.7252 875.911 69.7015 873.046 Q66.7096 870.182 60.6303 870.182 L57.7339 870.182 Q60.885 871.996 62.4446 874.829 Q64.0042 877.662 64.0042 881.608 Q64.0042 888.165 59.0071 892.175 Q54.01 896.186 45.7664 896.186 Q37.491 896.186 32.4939 892.175 Q27.4968 888.165 27.4968 881.608 Q27.4968 877.662 29.0564 874.829 Q30.616 871.996 33.7671 870.182 L28.3562 870.182 L28.3562 864.325 L59.58 864.325 Z" fill="#000000" fill-rule="nonzero" fill-opacity="1" /><path clip-path="url(#clip840)" d="M44.7161 821.771 L47.5806 821.771 L47.5806 848.698 Q53.6281 848.316 56.8109 845.069 Q59.9619 841.791 59.9619 835.966 Q59.9619 832.592 59.1344 829.441 Q58.3069 826.259 56.6518 823.139 L62.1899 823.139 Q63.5267 826.29 64.227 829.601 Q64.9272 832.911 64.9272 836.316 Q64.9272 844.846 59.9619 849.843 Q54.9967 854.809 46.5303 854.809 Q37.7774 854.809 32.6531 850.098 Q27.4968 845.356 27.4968 837.335 Q27.4968 830.142 32.1438 825.972 Q36.7589 821.771 44.7161 821.771 M42.9973 827.627 Q38.1912 827.691 35.3266 830.333 Q32.4621 832.943 32.4621 837.271 Q32.4621 842.173 35.2312 845.133 Q38.0002 848.061 43.0292 848.507 L42.9973 827.627 Z" fill="#000000" fill-rule="nonzero" fill-opacity="1" /><path clip-path="url(#clip840)" d="M14.5426 777.37 Q21.8632 781.635 29.0246 783.704 Q36.186 785.773 43.5384 785.773 Q50.8908 785.773 58.1159 783.704 Q65.3091 781.603 72.5979 777.37 L72.5979 782.462 Q65.1182 787.237 57.8931 789.624 Q50.668 791.979 43.5384 791.979 Q36.4406 791.979 29.2474 789.624 Q22.0542 787.269 14.5426 782.462 L14.5426 777.37 Z" fill="#000000" fill-rule="nonzero" fill-opacity="1" /><path clip-path="url(#clip840)" d="M16.4842 765.752 L16.4842 756.172 L48.8219 744.045 L16.4842 731.855 L16.4842 722.275 L64.0042 722.275 L64.0042 728.545 L22.277 728.545 L54.8694 740.799 L54.8694 747.26 L22.277 759.514 L64.0042 759.514 L64.0042 765.752 L16.4842 765.752 Z" fill="#000000" fill-rule="nonzero" fill-opacity="1" /><path clip-path="url(#clip840)" d="M46.0847 693.565 Q46.0847 700.663 47.7079 703.4 Q49.3312 706.138 53.2461 706.138 Q56.3653 706.138 58.2114 704.101 Q60.0256 702.032 60.0256 698.499 Q60.0256 693.629 56.5881 690.701 Q53.1188 687.741 47.3897 687.741 L46.0847 687.741 L46.0847 693.565 M43.6657 681.884 L64.0042 681.884 L64.0042 687.741 L58.5933 687.741 Q61.8398 689.746 63.3994 692.738 Q64.9272 695.73 64.9272 700.058 Q64.9272 705.533 61.8716 708.779 Q58.7843 711.994 53.6281 711.994 Q47.6125 711.994 44.5569 707.984 Q41.5014 703.941 41.5014 695.953 L41.5014 687.741 L40.9285 687.741 Q36.8862 687.741 34.6901 690.414 Q32.4621 693.056 32.4621 697.862 Q32.4621 700.918 33.1941 703.814 Q33.9262 706.711 35.3903 709.384 L29.9795 709.384 Q28.7381 706.169 28.1334 703.146 Q27.4968 700.122 27.4968 697.257 Q27.4968 689.523 31.5072 685.704 Q35.5176 681.884 43.6657 681.884 Z" fill="#000000" fill-rule="nonzero" fill-opacity="1" /><path clip-path="url(#clip840)" d="M14.5426 670.744 L14.5426 665.652 Q22.0542 660.877 29.2474 658.522 Q36.4406 656.135 43.5384 656.135 Q50.668 656.135 57.8931 658.522 Q65.1182 660.877 72.5979 665.652 L72.5979 670.744 Q65.3091 666.511 58.1159 664.442 Q50.8908 662.342 43.5384 662.342 Q36.186 662.342 29.0246 664.442 Q21.8632 666.511 14.5426 670.744 Z" fill="#000000" fill-rule="nonzero" fill-opacity="1" /><polyline clip-path="url(#clip842)" style="stroke:#009af9; stroke-linecap:round; stroke-linejoin:round; stroke-width:4; stroke-opacity:1; fill:none" points="309.359,1510.15 309.359,1148.62 "/>
<polyline clip-path="url(#clip842)" style="stroke:#009af9; stroke-linecap:round; stroke-linejoin:round; stroke-width:4; stroke-opacity:1; fill:none" points="403.83,1361.66 403.83,1201.56 "/>
<polyline clip-path="url(#clip842)" style="stroke:#009af9; stroke-linecap:round; stroke-linejoin:round; stroke-width:4; stroke-opacity:1; fill:none" points="498.3,1406.85 498.3,1122.79 "/>
<polyline clip-path="url(#clip842)" style="stroke:#009af9; stroke-linecap:round; stroke-linejoin:round; stroke-width:4; stroke-opacity:1; fill:none" points="592.771,1510.15 592.771,1019.5 "/>
<polyline clip-path="url(#clip842)" style="stroke:#009af9; stroke-linecap:round; stroke-linejoin:round; stroke-width:4; stroke-opacity:1; fill:none" points="687.241,1294.52 687.241,1222.21 "/>
<polyline clip-path="url(#clip842)" style="stroke:#009af9; stroke-linecap:round; stroke-linejoin:round; stroke-width:4; stroke-opacity:1; fill:none" points="781.712,1377.16 781.712,1137 "/>
<polyline clip-path="url(#clip842)" style="stroke:#009af9; stroke-linecap:round; stroke-linejoin:round; stroke-width:4; stroke-opacity:1; fill:none" points="876.182,1339.71 876.182,1096.97 "/>
<polyline clip-path="url(#clip842)" style="stroke:#009af9; stroke-linecap:round; stroke-linejoin:round; stroke-width:4; stroke-opacity:1; fill:none" points="970.653,1381.03 970.653,993.676 "/>
<polyline clip-path="url(#clip842)" style="stroke:#009af9; stroke-linecap:round; stroke-linejoin:round; stroke-width:4; stroke-opacity:1; fill:none" points="1065.12,1289.36 1065.12,1062.11 "/>
<polyline clip-path="url(#clip842)" style="stroke:#009af9; stroke-linecap:round; stroke-linejoin:round; stroke-width:4; stroke-opacity:1; fill:none" points="1159.59,1235.13 1159.59,1095.68 "/>
<polyline clip-path="url(#clip842)" style="stroke:#009af9; stroke-linecap:round; stroke-linejoin:round; stroke-width:4; stroke-opacity:1; fill:none" points="1254.06,1240.29 1254.06,1046.61 "/>
<polyline clip-path="url(#clip842)" style="stroke:#009af9; stroke-linecap:round; stroke-linejoin:round; stroke-width:4; stroke-opacity:1; fill:none" points="1348.53,1329.38 1348.53,942.029 "/>
<polyline clip-path="url(#clip842)" style="stroke:#009af9; stroke-linecap:round; stroke-linejoin:round; stroke-width:4; stroke-opacity:1; fill:none" points="1443.01,1342.29 1443.01,903.294 "/>
<polyline clip-path="url(#clip842)" style="stroke:#009af9; stroke-linecap:round; stroke-linejoin:round; stroke-width:4; stroke-opacity:1; fill:none" points="1537.48,1303.56 1537.48,942.029 "/>
<polyline clip-path="url(#clip842)" style="stroke:#009af9; stroke-linecap:round; stroke-linejoin:round; stroke-width:4; stroke-opacity:1; fill:none" points="1631.95,1342.29 1631.95,903.294 "/>
<polyline clip-path="url(#clip842)" style="stroke:#009af9; stroke-linecap:round; stroke-linejoin:round; stroke-width:4; stroke-opacity:1; fill:none" points="1726.42,1290.65 1726.42,954.941 "/>
<polyline clip-path="url(#clip842)" style="stroke:#009af9; stroke-linecap:round; stroke-linejoin:round; stroke-width:4; stroke-opacity:1; fill:none" points="1820.89,1206.72 1820.89,1028.54 "/>
<polyline clip-path="url(#clip842)" style="stroke:#009af9; stroke-linecap:round; stroke-linejoin:round; stroke-width:4; stroke-opacity:1; fill:none" points="1915.36,1239 1915.36,954.941 "/>
<polyline clip-path="url(#clip842)" style="stroke:#009af9; stroke-linecap:round; stroke-linejoin:round; stroke-width:4; stroke-opacity:1; fill:none" points="2009.83,1342.29 2009.83,825.824 "/>
<polyline clip-path="url(#clip842)" style="stroke:#009af9; stroke-linecap:round; stroke-linejoin:round; stroke-width:4; stroke-opacity:1; fill:none" points="2104.3,1239 2104.3,774.176 "/>
<polyline clip-path="url(#clip842)" style="stroke:#009af9; stroke-linecap:round; stroke-linejoin:round; stroke-width:4; stroke-opacity:1; fill:none" points="2198.77,1058.24 2198.77,748.353 "/>
<polyline clip-path="url(#clip842)" style="stroke:#009af9; stroke-linecap:round; stroke-linejoin:round; stroke-width:4; stroke-opacity:1; fill:none" points="2293.24,993.676 2293.24,89.8529 "/>
<line clip-path="url(#clip842)" x1="325.359" y1="1510.15" x2="293.359" y2="1510.15" style="stroke:#009af9; stroke-width:4; stroke-opacity:1"/>
<line clip-path="url(#clip842)" x1="325.359" y1="1148.62" x2="293.359" y2="1148.62" style="stroke:#009af9; stroke-width:4; stroke-opacity:1"/>
<line clip-path="url(#clip842)" x1="419.83" y1="1361.66" x2="387.83" y2="1361.66" style="stroke:#009af9; stroke-width:4; stroke-opacity:1"/>
<line clip-path="url(#clip842)" x1="419.83" y1="1201.56" x2="387.83" y2="1201.56" style="stroke:#009af9; stroke-width:4; stroke-opacity:1"/>
<line clip-path="url(#clip842)" x1="514.3" y1="1406.85" x2="482.3" y2="1406.85" style="stroke:#009af9; stroke-width:4; stroke-opacity:1"/>
<line clip-path="url(#clip842)" x1="514.3" y1="1122.79" x2="482.3" y2="1122.79" style="stroke:#009af9; stroke-width:4; stroke-opacity:1"/>
<line clip-path="url(#clip842)" x1="608.771" y1="1510.15" x2="576.771" y2="1510.15" style="stroke:#009af9; stroke-width:4; stroke-opacity:1"/>
<line clip-path="url(#clip842)" x1="608.771" y1="1019.5" x2="576.771" y2="1019.5" style="stroke:#009af9; stroke-width:4; stroke-opacity:1"/>
<line clip-path="url(#clip842)" x1="703.241" y1="1294.52" x2="671.241" y2="1294.52" style="stroke:#009af9; stroke-width:4; stroke-opacity:1"/>
<line clip-path="url(#clip842)" x1="703.241" y1="1222.21" x2="671.241" y2="1222.21" style="stroke:#009af9; stroke-width:4; stroke-opacity:1"/>
<line clip-path="url(#clip842)" x1="797.712" y1="1377.16" x2="765.712" y2="1377.16" style="stroke:#009af9; stroke-width:4; stroke-opacity:1"/>
<line clip-path="url(#clip842)" x1="797.712" y1="1137" x2="765.712" y2="1137" style="stroke:#009af9; stroke-width:4; stroke-opacity:1"/>
<line clip-path="url(#clip842)" x1="892.182" y1="1339.71" x2="860.182" y2="1339.71" style="stroke:#009af9; stroke-width:4; stroke-opacity:1"/>
<line clip-path="url(#clip842)" x1="892.182" y1="1096.97" x2="860.182" y2="1096.97" style="stroke:#009af9; stroke-width:4; stroke-opacity:1"/>
<line clip-path="url(#clip842)" x1="986.653" y1="1381.03" x2="954.653" y2="1381.03" style="stroke:#009af9; stroke-width:4; stroke-opacity:1"/>
<line clip-path="url(#clip842)" x1="986.653" y1="993.676" x2="954.653" y2="993.676" style="stroke:#009af9; stroke-width:4; stroke-opacity:1"/>
<line clip-path="url(#clip842)" x1="1081.12" y1="1289.36" x2="1049.12" y2="1289.36" style="stroke:#009af9; stroke-width:4; stroke-opacity:1"/>
<line clip-path="url(#clip842)" x1="1081.12" y1="1062.11" x2="1049.12" y2="1062.11" style="stroke:#009af9; stroke-width:4; stroke-opacity:1"/>
<line clip-path="url(#clip842)" x1="1175.59" y1="1235.13" x2="1143.59" y2="1235.13" style="stroke:#009af9; stroke-width:4; stroke-opacity:1"/>
<line clip-path="url(#clip842)" x1="1175.59" y1="1095.68" x2="1143.59" y2="1095.68" style="stroke:#009af9; stroke-width:4; stroke-opacity:1"/>
<line clip-path="url(#clip842)" x1="1270.06" y1="1240.29" x2="1238.06" y2="1240.29" style="stroke:#009af9; stroke-width:4; stroke-opacity:1"/>
<line clip-path="url(#clip842)" x1="1270.06" y1="1046.61" x2="1238.06" y2="1046.61" style="stroke:#009af9; stroke-width:4; stroke-opacity:1"/>
<line clip-path="url(#clip842)" x1="1364.53" y1="1329.38" x2="1332.53" y2="1329.38" style="stroke:#009af9; stroke-width:4; stroke-opacity:1"/>
<line clip-path="url(#clip842)" x1="1364.53" y1="942.029" x2="1332.53" y2="942.029" style="stroke:#009af9; stroke-width:4; stroke-opacity:1"/>
<line clip-path="url(#clip842)" x1="1459.01" y1="1342.29" x2="1427.01" y2="1342.29" style="stroke:#009af9; stroke-width:4; stroke-opacity:1"/>
<line clip-path="url(#clip842)" x1="1459.01" y1="903.294" x2="1427.01" y2="903.294" style="stroke:#009af9; stroke-width:4; stroke-opacity:1"/>
<line clip-path="url(#clip842)" x1="1553.48" y1="1303.56" x2="1521.48" y2="1303.56" style="stroke:#009af9; stroke-width:4; stroke-opacity:1"/>
<line clip-path="url(#clip842)" x1="1553.48" y1="942.029" x2="1521.48" y2="942.029" style="stroke:#009af9; stroke-width:4; stroke-opacity:1"/>
<line clip-path="url(#clip842)" x1="1647.95" y1="1342.29" x2="1615.95" y2="1342.29" style="stroke:#009af9; stroke-width:4; stroke-opacity:1"/>
<line clip-path="url(#clip842)" x1="1647.95" y1="903.294" x2="1615.95" y2="903.294" style="stroke:#009af9; stroke-width:4; stroke-opacity:1"/>
<line clip-path="url(#clip842)" x1="1742.42" y1="1290.65" x2="1710.42" y2="1290.65" style="stroke:#009af9; stroke-width:4; stroke-opacity:1"/>
<line clip-path="url(#clip842)" x1="1742.42" y1="954.941" x2="1710.42" y2="954.941" style="stroke:#009af9; stroke-width:4; stroke-opacity:1"/>
<line clip-path="url(#clip842)" x1="1836.89" y1="1206.72" x2="1804.89" y2="1206.72" style="stroke:#009af9; stroke-width:4; stroke-opacity:1"/>
<line clip-path="url(#clip842)" x1="1836.89" y1="1028.54" x2="1804.89" y2="1028.54" style="stroke:#009af9; stroke-width:4; stroke-opacity:1"/>
<line clip-path="url(#clip842)" x1="1931.36" y1="1239" x2="1899.36" y2="1239" style="stroke:#009af9; stroke-width:4; stroke-opacity:1"/>
<line clip-path="url(#clip842)" x1="1931.36" y1="954.941" x2="1899.36" y2="954.941" style="stroke:#009af9; stroke-width:4; stroke-opacity:1"/>
<line clip-path="url(#clip842)" x1="2025.83" y1="1342.29" x2="1993.83" y2="1342.29" style="stroke:#009af9; stroke-width:4; stroke-opacity:1"/>
<line clip-path="url(#clip842)" x1="2025.83" y1="825.824" x2="1993.83" y2="825.824" style="stroke:#009af9; stroke-width:4; stroke-opacity:1"/>
<line clip-path="url(#clip842)" x1="2120.3" y1="1239" x2="2088.3" y2="1239" style="stroke:#009af9; stroke-width:4; stroke-opacity:1"/>
<line clip-path="url(#clip842)" x1="2120.3" y1="774.176" x2="2088.3" y2="774.176" style="stroke:#009af9; stroke-width:4; stroke-opacity:1"/>
<line clip-path="url(#clip842)" x1="2214.77" y1="1058.24" x2="2182.77" y2="1058.24" style="stroke:#009af9; stroke-width:4; stroke-opacity:1"/>
<line clip-path="url(#clip842)" x1="2214.77" y1="748.353" x2="2182.77" y2="748.353" style="stroke:#009af9; stroke-width:4; stroke-opacity:1"/>
<line clip-path="url(#clip842)" x1="2309.24" y1="993.676" x2="2277.24" y2="993.676" style="stroke:#009af9; stroke-width:4; stroke-opacity:1"/>
<line clip-path="url(#clip842)" x1="2309.24" y1="89.8529" x2="2277.24" y2="89.8529" style="stroke:#009af9; stroke-width:4; stroke-opacity:1"/>
<circle clip-path="url(#clip842)" cx="309.359" cy="1329.38" r="14.4" fill="#009af9" fill-rule="evenodd" fill-opacity="1" stroke="none"/>
<circle clip-path="url(#clip842)" cx="403.83" cy="1281.61" r="14.4" fill="#009af9" fill-rule="evenodd" fill-opacity="1" stroke="none"/>
<circle clip-path="url(#clip842)" cx="498.3" cy="1264.82" r="14.4" fill="#009af9" fill-rule="evenodd" fill-opacity="1" stroke="none"/>
<circle clip-path="url(#clip842)" cx="592.771" cy="1264.82" r="14.4" fill="#009af9" fill-rule="evenodd" fill-opacity="1" stroke="none"/>
<circle clip-path="url(#clip842)" cx="687.241" cy="1258.37" r="14.4" fill="#009af9" fill-rule="evenodd" fill-opacity="1" stroke="none"/>
<circle clip-path="url(#clip842)" cx="781.712" cy="1257.08" r="14.4" fill="#009af9" fill-rule="evenodd" fill-opacity="1" stroke="none"/>
<circle clip-path="url(#clip842)" cx="876.182" cy="1218.34" r="14.4" fill="#009af9" fill-rule="evenodd" fill-opacity="1" stroke="none"/>
<circle clip-path="url(#clip842)" cx="970.653" cy="1187.35" r="14.4" fill="#009af9" fill-rule="evenodd" fill-opacity="1" stroke="none"/>
<circle clip-path="url(#clip842)" cx="1065.12" cy="1175.73" r="14.4" fill="#009af9" fill-rule="evenodd" fill-opacity="1" stroke="none"/>
<circle clip-path="url(#clip842)" cx="1159.59" cy="1165.4" r="14.4" fill="#009af9" fill-rule="evenodd" fill-opacity="1" stroke="none"/>
<circle clip-path="url(#clip842)" cx="1254.06" cy="1143.45" r="14.4" fill="#009af9" fill-rule="evenodd" fill-opacity="1" stroke="none"/>
<circle clip-path="url(#clip842)" cx="1348.53" cy="1135.71" r="14.4" fill="#009af9" fill-rule="evenodd" fill-opacity="1" stroke="none"/>
<circle clip-path="url(#clip842)" cx="1443.01" cy="1122.79" r="14.4" fill="#009af9" fill-rule="evenodd" fill-opacity="1" stroke="none"/>
<circle clip-path="url(#clip842)" cx="1537.48" cy="1122.79" r="14.4" fill="#009af9" fill-rule="evenodd" fill-opacity="1" stroke="none"/>
<circle clip-path="url(#clip842)" cx="1631.95" cy="1122.79" r="14.4" fill="#009af9" fill-rule="evenodd" fill-opacity="1" stroke="none"/>
<circle clip-path="url(#clip842)" cx="1726.42" cy="1122.79" r="14.4" fill="#009af9" fill-rule="evenodd" fill-opacity="1" stroke="none"/>
<circle clip-path="url(#clip842)" cx="1820.89" cy="1117.63" r="14.4" fill="#009af9" fill-rule="evenodd" fill-opacity="1" stroke="none"/>
<circle clip-path="url(#clip842)" cx="1915.36" cy="1096.97" r="14.4" fill="#009af9" fill-rule="evenodd" fill-opacity="1" stroke="none"/>
<circle clip-path="url(#clip842)" cx="2009.83" cy="1084.06" r="14.4" fill="#009af9" fill-rule="evenodd" fill-opacity="1" stroke="none"/>
<circle clip-path="url(#clip842)" cx="2104.3" cy="1006.59" r="14.4" fill="#009af9" fill-rule="evenodd" fill-opacity="1" stroke="none"/>
<circle clip-path="url(#clip842)" cx="2198.77" cy="903.294" r="14.4" fill="#009af9" fill-rule="evenodd" fill-opacity="1" stroke="none"/>
<circle clip-path="url(#clip842)" cx="2293.24" cy="541.765" r="14.4" fill="#009af9" fill-rule="evenodd" fill-opacity="1" stroke="none"/>
<path clip-path="url(#clip842)" d="M309.359 1280.89 L403.83 1280.89 L498.3 1280.89 L592.771 1280.89 L687.241 1280.89 L781.712 1280.89 L876.182 1280.89 L970.653 1280.89 L1065.12 1280.89 L1159.59 1280.89 L1254.06 1280.89 L1348.53 1280.89 L1443.01 1280.89 L1537.48 1280.89 L1631.95 1280.89 L1726.42 1280.89 L1820.89 1280.89 L1915.36 1280.89 L2009.83 1280.89 L2104.3 1280.89 L2198.77 1280.89 L2293.24 1280.89 L2293.24 1216.09 L2198.77 1216.09 L2104.3 1216.09 L2009.83 1216.09 L1915.36 1216.09 L1820.89 1216.09 L1726.42 1216.09 L1631.95 1216.09 L1537.48 1216.09 L1443.01 1216.09 L1348.53 1216.09 L1254.06 1216.09 L1159.59 1216.09 L1065.12 1216.09 L970.653 1216.09 L876.182 1216.09 L781.712 1216.09 L687.241 1216.09 L592.771 1216.09 L498.3 1216.09 L403.83 1216.09 L309.359 1216.09  Z" fill="#e26f46" fill-rule="evenodd" fill-opacity="0.6"/>
<polyline clip-path="url(#clip842)" style="stroke:#e26f46; stroke-linecap:round; stroke-linejoin:round; stroke-width:4; stroke-opacity:0; fill:none" points="309.359,1280.89 403.83,1280.89 498.3,1280.89 592.771,1280.89 687.241,1280.89 781.712,1280.89 876.182,1280.89 970.653,1280.89 1065.12,1280.89 1159.59,1280.89 1254.06,1280.89 1348.53,1280.89 1443.01,1280.89 1537.48,1280.89 1631.95,1280.89 1726.42,1280.89 1820.89,1280.89 1915.36,1280.89 2009.83,1280.89 2104.3,1280.89 2198.77,1280.89 2293.24,1280.89 "/>
<polyline clip-path="url(#clip842)" style="stroke:#000000; stroke-linecap:round; stroke-linejoin:round; stroke-width:4; stroke-opacity:1; fill:none" stroke-dasharray="2, 4" points="309.359,1245.56 403.83,1245.56 498.3,1245.56 592.771,1245.56 687.241,1245.56 781.712,1245.56 876.182,1245.56 970.653,1245.56 1065.12,1245.56 1159.59,1245.56 1254.06,1245.56 1348.53,1245.56 1443.01,1245.56 1537.48,1245.56 1631.95,1245.56 1726.42,1245.56 1820.89,1245.56 1915.36,1245.56 2009.83,1245.56 2104.3,1245.56 2198.77,1245.56 2293.24,1245.56 "/>
<path clip-path="url(#clip840)" d="M319.94 252.948 L1326.11 252.948 L1326.11 97.4278 L319.94 97.4278  Z" fill="#ffffff" fill-rule="evenodd" fill-opacity="1"/>
<polyline clip-path="url(#clip840)" style="stroke:#ffffff; stroke-linecap:round; stroke-linejoin:round; stroke-width:4; stroke-opacity:1; fill:none" points="319.94,252.948 1326.11,252.948 1326.11,97.4278 319.94,97.4278 319.94,252.948 "/>
<circle clip-path="url(#clip840)" cx="413.403" cy="149.268" r="20.48" fill="#009af9" fill-rule="evenodd" fill-opacity="1" stroke="none"/>
<path clip-path="url(#clip840)" d="M511.542 135.83 L511.542 162.705 L517.19 162.705 Q524.342 162.705 527.653 159.465 Q530.986 156.224 530.986 149.233 Q530.986 142.289 527.653 139.071 Q524.342 135.83 517.19 135.83 L511.542 135.83 M506.866 131.988 L516.472 131.988 Q526.518 131.988 531.217 136.178 Q535.916 140.344 535.916 149.233 Q535.916 158.168 531.194 162.358 Q526.472 166.548 516.472 166.548 L506.866 166.548 L506.866 131.988 Z" fill="#000000" fill-rule="nonzero" fill-opacity="1" /><path clip-path="url(#clip840)" d="M554.967 153.515 Q549.805 153.515 547.815 154.696 Q545.824 155.877 545.824 158.724 Q545.824 160.992 547.305 162.335 Q548.81 163.654 551.379 163.654 Q554.921 163.654 557.051 161.154 Q559.203 158.631 559.203 154.465 L559.203 153.515 L554.967 153.515 M563.463 151.756 L563.463 166.548 L559.203 166.548 L559.203 162.613 Q557.745 164.974 555.569 166.108 Q553.393 167.219 550.245 167.219 Q546.264 167.219 543.902 164.997 Q541.565 162.752 541.565 159.002 Q541.565 154.627 544.481 152.404 Q547.421 150.182 553.231 150.182 L559.203 150.182 L559.203 149.766 Q559.203 146.826 557.259 145.228 Q555.338 143.608 551.842 143.608 Q549.62 143.608 547.514 144.141 Q545.407 144.673 543.463 145.738 L543.463 141.803 Q545.801 140.9 548 140.46 Q550.199 139.997 552.282 139.997 Q557.907 139.997 560.685 142.914 Q563.463 145.83 563.463 151.756 Z" fill="#000000" fill-rule="nonzero" fill-opacity="1" /><path clip-path="url(#clip840)" d="M576.449 133.261 L576.449 140.622 L585.222 140.622 L585.222 143.932 L576.449 143.932 L576.449 158.006 Q576.449 161.177 577.305 162.08 Q578.185 162.983 580.847 162.983 L585.222 162.983 L585.222 166.548 L580.847 166.548 Q575.916 166.548 574.041 164.719 Q572.166 162.867 572.166 158.006 L572.166 143.932 L569.041 143.932 L569.041 140.622 L572.166 140.622 L572.166 133.261 L576.449 133.261 Z" fill="#000000" fill-rule="nonzero" fill-opacity="1" /><path clip-path="url(#clip840)" d="M602.606 153.515 Q597.444 153.515 595.453 154.696 Q593.462 155.877 593.462 158.724 Q593.462 160.992 594.944 162.335 Q596.449 163.654 599.018 163.654 Q602.56 163.654 604.689 161.154 Q606.842 158.631 606.842 154.465 L606.842 153.515 L602.606 153.515 M611.101 151.756 L611.101 166.548 L606.842 166.548 L606.842 162.613 Q605.384 164.974 603.208 166.108 Q601.032 167.219 597.884 167.219 Q593.902 167.219 591.541 164.997 Q589.203 162.752 589.203 159.002 Q589.203 154.627 592.12 152.404 Q595.06 150.182 600.87 150.182 L606.842 150.182 L606.842 149.766 Q606.842 146.826 604.898 145.228 Q602.976 143.608 599.481 143.608 Q597.259 143.608 595.152 144.141 Q593.046 144.673 591.101 145.738 L591.101 141.803 Q593.439 140.9 595.638 140.46 Q597.837 139.997 599.921 139.997 Q605.546 139.997 608.323 142.914 Q611.101 145.83 611.101 151.756 Z" fill="#000000" fill-rule="nonzero" fill-opacity="1" /><path clip-path="url(#clip840)" d="M645.175 130.576 Q642.073 135.9 640.569 141.108 Q639.064 146.316 639.064 151.664 Q639.064 157.011 640.569 162.265 Q642.096 167.497 645.175 172.798 L641.471 172.798 Q637.999 167.358 636.263 162.103 Q634.55 156.849 634.55 151.664 Q634.55 146.502 636.263 141.27 Q637.976 136.039 641.471 130.576 L645.175 130.576 Z" fill="#000000" fill-rule="nonzero" fill-opacity="1" /><path clip-path="url(#clip840)" d="M663.485 143.608 Q660.059 143.608 658.069 146.293 Q656.078 148.955 656.078 153.608 Q656.078 158.261 658.045 160.946 Q660.036 163.608 663.485 163.608 Q666.888 163.608 668.879 160.923 Q670.869 158.238 670.869 153.608 Q670.869 149.002 668.879 146.316 Q666.888 143.608 663.485 143.608 M663.485 139.997 Q669.041 139.997 672.212 143.608 Q675.383 147.219 675.383 153.608 Q675.383 159.974 672.212 163.608 Q669.041 167.219 663.485 167.219 Q657.907 167.219 654.735 163.608 Q651.587 159.974 651.587 153.608 Q651.587 147.219 654.735 143.608 Q657.907 139.997 663.485 139.997 Z" fill="#000000" fill-rule="nonzero" fill-opacity="1" /><path clip-path="url(#clip840)" d="M701.054 153.608 Q701.054 148.909 699.11 146.247 Q697.189 143.562 693.809 143.562 Q690.429 143.562 688.485 146.247 Q686.564 148.909 686.564 153.608 Q686.564 158.307 688.485 160.992 Q690.429 163.654 693.809 163.654 Q697.189 163.654 699.11 160.992 Q701.054 158.307 701.054 153.608 M686.564 144.557 Q687.906 142.242 689.943 141.131 Q692.004 139.997 694.851 139.997 Q699.573 139.997 702.513 143.747 Q705.476 147.497 705.476 153.608 Q705.476 159.719 702.513 163.469 Q699.573 167.219 694.851 167.219 Q692.004 167.219 689.943 166.108 Q687.906 164.974 686.564 162.659 L686.564 166.548 L682.281 166.548 L682.281 130.529 L686.564 130.529 L686.564 144.557 Z" fill="#000000" fill-rule="nonzero" fill-opacity="1" /><path clip-path="url(#clip840)" d="M729.064 141.386 L729.064 145.414 Q727.258 144.488 725.314 144.025 Q723.369 143.562 721.286 143.562 Q718.115 143.562 716.517 144.534 Q714.943 145.506 714.943 147.451 Q714.943 148.932 716.077 149.789 Q717.212 150.622 720.638 151.386 L722.096 151.71 Q726.633 152.682 728.531 154.465 Q730.452 156.224 730.452 159.395 Q730.452 163.006 727.582 165.113 Q724.735 167.219 719.735 167.219 Q717.652 167.219 715.383 166.802 Q713.138 166.409 710.638 165.599 L710.638 161.201 Q712.999 162.427 715.29 163.052 Q717.582 163.654 719.827 163.654 Q722.837 163.654 724.457 162.636 Q726.077 161.594 726.077 159.719 Q726.077 157.983 724.897 157.057 Q723.739 156.131 719.781 155.275 L718.3 154.928 Q714.341 154.094 712.582 152.381 Q710.823 150.645 710.823 147.636 Q710.823 143.978 713.415 141.988 Q716.008 139.997 720.777 139.997 Q723.138 139.997 725.221 140.344 Q727.304 140.691 729.064 141.386 Z" fill="#000000" fill-rule="nonzero" fill-opacity="1" /><path clip-path="url(#clip840)" d="M759.411 152.52 L759.411 154.603 L739.827 154.603 Q740.105 159.002 742.466 161.316 Q744.85 163.608 749.087 163.608 Q751.54 163.608 753.832 163.006 Q756.147 162.404 758.415 161.201 L758.415 165.228 Q756.124 166.201 753.716 166.71 Q751.309 167.219 748.832 167.219 Q742.628 167.219 738.994 163.608 Q735.383 159.997 735.383 153.84 Q735.383 147.474 738.809 143.747 Q742.258 139.997 748.091 139.997 Q753.323 139.997 756.355 143.377 Q759.411 146.733 759.411 152.52 M755.151 151.27 Q755.105 147.775 753.184 145.691 Q751.286 143.608 748.138 143.608 Q744.573 143.608 742.42 145.622 Q740.29 147.636 739.966 151.293 L755.151 151.27 Z" fill="#000000" fill-rule="nonzero" fill-opacity="1" /><path clip-path="url(#clip840)" d="M781.424 144.603 Q780.707 144.187 779.85 144.002 Q779.017 143.793 777.998 143.793 Q774.387 143.793 772.443 146.154 Q770.522 148.492 770.522 152.89 L770.522 166.548 L766.239 166.548 L766.239 140.622 L770.522 140.622 L770.522 144.65 Q771.864 142.289 774.017 141.154 Q776.17 139.997 779.248 139.997 Q779.688 139.997 780.221 140.066 Q780.753 140.113 781.401 140.229 L781.424 144.603 Z" fill="#000000" fill-rule="nonzero" fill-opacity="1" /><path clip-path="url(#clip840)" d="M782.836 140.622 L787.35 140.622 L795.452 162.381 L803.554 140.622 L808.068 140.622 L798.346 166.548 L792.559 166.548 L782.836 140.622 Z" fill="#000000" fill-rule="nonzero" fill-opacity="1" /><path clip-path="url(#clip840)" d="M836.123 152.52 L836.123 154.603 L816.54 154.603 Q816.818 159.002 819.179 161.316 Q821.563 163.608 825.799 163.608 Q828.253 163.608 830.544 163.006 Q832.859 162.404 835.128 161.201 L835.128 165.228 Q832.836 166.201 830.429 166.71 Q828.021 167.219 825.544 167.219 Q819.341 167.219 815.707 163.608 Q812.095 159.997 812.095 153.84 Q812.095 147.474 815.521 143.747 Q818.97 139.997 824.804 139.997 Q830.035 139.997 833.068 143.377 Q836.123 146.733 836.123 152.52 M831.864 151.27 Q831.818 147.775 829.896 145.691 Q827.998 143.608 824.85 143.608 Q821.285 143.608 819.132 145.622 Q817.003 147.636 816.679 151.293 L831.864 151.27 Z" fill="#000000" fill-rule="nonzero" fill-opacity="1" /><path clip-path="url(#clip840)" d="M860.174 144.557 L860.174 130.529 L864.433 130.529 L864.433 166.548 L860.174 166.548 L860.174 162.659 Q858.831 164.974 856.771 166.108 Q854.734 167.219 851.864 167.219 Q847.165 167.219 844.202 163.469 Q841.262 159.719 841.262 153.608 Q841.262 147.497 844.202 143.747 Q847.165 139.997 851.864 139.997 Q854.734 139.997 856.771 141.131 Q858.831 142.242 860.174 144.557 M845.66 153.608 Q845.66 158.307 847.581 160.992 Q849.526 163.654 852.905 163.654 Q856.285 163.654 858.23 160.992 Q860.174 158.307 860.174 153.608 Q860.174 148.909 858.23 146.247 Q856.285 143.562 852.905 143.562 Q849.526 143.562 847.581 146.247 Q845.66 148.909 845.66 153.608 Z" fill="#000000" fill-rule="nonzero" fill-opacity="1" /><path clip-path="url(#clip840)" d="M900.058 153.515 Q894.896 153.515 892.905 154.696 Q890.915 155.877 890.915 158.724 Q890.915 160.992 892.396 162.335 Q893.901 163.654 896.47 163.654 Q900.012 163.654 902.141 161.154 Q904.294 158.631 904.294 154.465 L904.294 153.515 L900.058 153.515 M908.553 151.756 L908.553 166.548 L904.294 166.548 L904.294 162.613 Q902.836 164.974 900.66 166.108 Q898.484 167.219 895.336 167.219 Q891.354 167.219 888.993 164.997 Q886.655 162.752 886.655 159.002 Q886.655 154.627 889.572 152.404 Q892.512 150.182 898.322 150.182 L904.294 150.182 L904.294 149.766 Q904.294 146.826 902.35 145.228 Q900.428 143.608 896.933 143.608 Q894.711 143.608 892.604 144.141 Q890.498 144.673 888.553 145.738 L888.553 141.803 Q890.891 140.9 893.09 140.46 Q895.289 139.997 897.373 139.997 Q902.998 139.997 905.776 142.914 Q908.553 145.83 908.553 151.756 Z" fill="#000000" fill-rule="nonzero" fill-opacity="1" /><path clip-path="url(#clip840)" d="M934.387 153.284 Q934.387 148.654 932.465 146.108 Q930.567 143.562 927.118 143.562 Q923.692 143.562 921.771 146.108 Q919.873 148.654 919.873 153.284 Q919.873 157.89 921.771 160.437 Q923.692 162.983 927.118 162.983 Q930.567 162.983 932.465 160.437 Q934.387 157.89 934.387 153.284 M938.646 163.33 Q938.646 169.951 935.706 173.168 Q932.766 176.409 926.701 176.409 Q924.456 176.409 922.465 176.062 Q920.475 175.738 918.6 175.043 L918.6 170.9 Q920.475 171.918 922.303 172.404 Q924.132 172.89 926.03 172.89 Q930.22 172.89 932.303 170.691 Q934.387 168.515 934.387 164.094 L934.387 161.988 Q933.067 164.279 931.007 165.414 Q928.947 166.548 926.076 166.548 Q921.308 166.548 918.391 162.914 Q915.475 159.279 915.475 153.284 Q915.475 147.266 918.391 143.631 Q921.308 139.997 926.076 139.997 Q928.947 139.997 931.007 141.131 Q933.067 142.266 934.387 144.557 L934.387 140.622 L938.646 140.622 L938.646 163.33 Z" fill="#000000" fill-rule="nonzero" fill-opacity="1" /><path clip-path="url(#clip840)" d="M969.595 152.52 L969.595 154.603 L950.011 154.603 Q950.289 159.002 952.65 161.316 Q955.035 163.608 959.271 163.608 Q961.724 163.608 964.016 163.006 Q966.331 162.404 968.599 161.201 L968.599 165.228 Q966.308 166.201 963.9 166.71 Q961.493 167.219 959.016 167.219 Q952.812 167.219 949.178 163.608 Q945.567 159.997 945.567 153.84 Q945.567 147.474 948.993 143.747 Q952.442 139.997 958.275 139.997 Q963.507 139.997 966.539 143.377 Q969.595 146.733 969.595 152.52 M965.335 151.27 Q965.289 147.775 963.368 145.691 Q961.47 143.608 958.322 143.608 Q954.757 143.608 952.604 145.622 Q950.474 147.636 950.15 151.293 L965.335 151.27 Z" fill="#000000" fill-rule="nonzero" fill-opacity="1" /><path clip-path="url(#clip840)" d="M993.113 141.386 L993.113 145.414 Q991.307 144.488 989.363 144.025 Q987.419 143.562 985.335 143.562 Q982.164 143.562 980.567 144.534 Q978.993 145.506 978.993 147.451 Q978.993 148.932 980.127 149.789 Q981.261 150.622 984.687 151.386 L986.145 151.71 Q990.683 152.682 992.581 154.465 Q994.502 156.224 994.502 159.395 Q994.502 163.006 991.632 165.113 Q988.784 167.219 983.784 167.219 Q981.701 167.219 979.433 166.802 Q977.187 166.409 974.687 165.599 L974.687 161.201 Q977.048 162.427 979.34 163.052 Q981.632 163.654 983.877 163.654 Q986.886 163.654 988.507 162.636 Q990.127 161.594 990.127 159.719 Q990.127 157.983 988.946 157.057 Q987.789 156.131 983.831 155.275 L982.349 154.928 Q978.391 154.094 976.632 152.381 Q974.872 150.645 974.872 147.636 Q974.872 143.978 977.465 141.988 Q980.058 139.997 984.826 139.997 Q987.187 139.997 989.27 140.344 Q991.354 140.691 993.113 141.386 Z" fill="#000000" fill-rule="nonzero" fill-opacity="1" /><path clip-path="url(#clip840)" d="M1000.61 130.576 L1004.32 130.576 Q1007.79 136.039 1009.5 141.27 Q1011.24 146.502 1011.24 151.664 Q1011.24 156.849 1009.5 162.103 Q1007.79 167.358 1004.32 172.798 L1000.61 172.798 Q1003.69 167.497 1005.2 162.265 Q1006.72 157.011 1006.72 151.664 Q1006.72 146.316 1005.2 141.108 Q1003.69 135.9 1000.61 130.576 Z" fill="#000000" fill-rule="nonzero" fill-opacity="1" /><path clip-path="url(#clip840)" d="M343.306 221.844 L483.5 221.844 L483.5 180.372 L343.306 180.372 L343.306 221.844  Z" fill="#e26f46" fill-rule="evenodd" fill-opacity="0.6"/>
<polyline clip-path="url(#clip840)" style="stroke:#e26f46; stroke-linecap:round; stroke-linejoin:round; stroke-width:4; stroke-opacity:0; fill:none" points="343.306,180.372 483.5,180.372 "/>
<path clip-path="url(#clip840)" d="M506.866 183.828 L513.833 183.828 L522.653 207.346 L531.518 183.828 L538.486 183.828 L538.486 218.388 L533.926 218.388 L533.926 188.041 L525.014 211.744 L520.315 211.744 L511.403 188.041 L511.403 218.388 L506.866 218.388 L506.866 183.828 Z" fill="#000000" fill-rule="nonzero" fill-opacity="1" /><path clip-path="url(#clip840)" d="M557.629 195.448 Q554.203 195.448 552.213 198.133 Q550.222 200.795 550.222 205.448 Q550.222 210.101 552.189 212.786 Q554.18 215.448 557.629 215.448 Q561.032 215.448 563.023 212.763 Q565.013 210.078 565.013 205.448 Q565.013 200.842 563.023 198.156 Q561.032 195.448 557.629 195.448 M557.629 191.837 Q563.185 191.837 566.356 195.448 Q569.527 199.059 569.527 205.448 Q569.527 211.814 566.356 215.448 Q563.185 219.059 557.629 219.059 Q552.051 219.059 548.879 215.448 Q545.731 211.814 545.731 205.448 Q545.731 199.059 548.879 195.448 Q552.051 191.837 557.629 191.837 Z" fill="#000000" fill-rule="nonzero" fill-opacity="1" /><path clip-path="url(#clip840)" d="M593.648 196.397 L593.648 182.369 L597.907 182.369 L597.907 218.388 L593.648 218.388 L593.648 214.499 Q592.305 216.814 590.245 217.948 Q588.208 219.059 585.337 219.059 Q580.638 219.059 577.675 215.309 Q574.736 211.559 574.736 205.448 Q574.736 199.337 577.675 195.587 Q580.638 191.837 585.337 191.837 Q588.208 191.837 590.245 192.971 Q592.305 194.082 593.648 196.397 M579.134 205.448 Q579.134 210.147 581.055 212.832 Q583 215.494 586.379 215.494 Q589.759 215.494 591.703 212.832 Q593.648 210.147 593.648 205.448 Q593.648 200.749 591.703 198.087 Q589.759 195.402 586.379 195.402 Q583 195.402 581.055 198.087 Q579.134 200.749 579.134 205.448 Z" fill="#000000" fill-rule="nonzero" fill-opacity="1" /><path clip-path="url(#clip840)" d="M628.856 204.36 L628.856 206.443 L609.273 206.443 Q609.55 210.842 611.911 213.156 Q614.296 215.448 618.532 215.448 Q620.985 215.448 623.277 214.846 Q625.592 214.244 627.86 213.041 L627.86 217.068 Q625.569 218.041 623.161 218.55 Q620.754 219.059 618.277 219.059 Q612.073 219.059 608.439 215.448 Q604.828 211.837 604.828 205.68 Q604.828 199.314 608.254 195.587 Q611.703 191.837 617.536 191.837 Q622.768 191.837 625.8 195.217 Q628.856 198.573 628.856 204.36 M624.597 203.11 Q624.55 199.615 622.629 197.531 Q620.731 195.448 617.583 195.448 Q614.018 195.448 611.865 197.462 Q609.735 199.476 609.411 203.133 L624.597 203.11 Z" fill="#000000" fill-rule="nonzero" fill-opacity="1" /><path clip-path="url(#clip840)" d="M635.846 182.369 L640.106 182.369 L640.106 218.388 L635.846 218.388 L635.846 182.369 Z" fill="#000000" fill-rule="nonzero" fill-opacity="1" /><path clip-path="url(#clip840)" d="M674.318 182.416 Q671.217 187.74 669.712 192.948 Q668.207 198.156 668.207 203.504 Q668.207 208.851 669.712 214.105 Q671.24 219.337 674.318 224.638 L670.615 224.638 Q667.143 219.198 665.406 213.943 Q663.694 208.689 663.694 203.504 Q663.694 198.342 665.406 193.11 Q667.119 187.879 670.615 182.416 L674.318 182.416 Z" fill="#000000" fill-rule="nonzero" fill-opacity="1" /><path clip-path="url(#clip840)" d="M693.763 199.244 Q690.615 199.244 688.763 201.397 Q686.934 203.55 686.934 207.3 Q686.934 211.027 688.763 213.203 Q690.615 215.355 693.763 215.355 Q696.911 215.355 698.74 213.203 Q700.591 211.027 700.591 207.3 Q700.591 203.55 698.74 201.397 Q696.911 199.244 693.763 199.244 M703.045 184.592 L703.045 188.851 Q701.286 188.018 699.48 187.578 Q697.698 187.138 695.939 187.138 Q691.309 187.138 688.855 190.263 Q686.425 193.388 686.078 199.707 Q687.443 197.693 689.504 196.629 Q691.564 195.541 694.041 195.541 Q699.249 195.541 702.258 198.712 Q705.291 201.86 705.291 207.3 Q705.291 212.624 702.142 215.842 Q698.994 219.059 693.763 219.059 Q687.767 219.059 684.596 214.476 Q681.425 209.869 681.425 201.143 Q681.425 192.948 685.314 188.087 Q689.203 183.203 695.754 183.203 Q697.513 183.203 699.295 183.55 Q701.101 183.897 703.045 184.592 Z" fill="#000000" fill-rule="nonzero" fill-opacity="1" /><path clip-path="url(#clip840)" d="M723.925 199.244 Q720.777 199.244 718.925 201.397 Q717.096 203.55 717.096 207.3 Q717.096 211.027 718.925 213.203 Q720.777 215.355 723.925 215.355 Q727.073 215.355 728.901 213.203 Q730.753 211.027 730.753 207.3 Q730.753 203.55 728.901 201.397 Q727.073 199.244 723.925 199.244 M733.207 184.592 L733.207 188.851 Q731.448 188.018 729.642 187.578 Q727.86 187.138 726.101 187.138 Q721.471 187.138 719.017 190.263 Q716.587 193.388 716.24 199.707 Q717.605 197.693 719.665 196.629 Q721.726 195.541 724.202 195.541 Q729.411 195.541 732.42 198.712 Q735.452 201.86 735.452 207.3 Q735.452 212.624 732.304 215.842 Q729.156 219.059 723.925 219.059 Q717.929 219.059 714.758 214.476 Q711.587 209.869 711.587 201.143 Q711.587 192.948 715.476 188.087 Q719.365 183.203 725.915 183.203 Q727.675 183.203 729.457 183.55 Q731.263 183.897 733.207 184.592 Z" fill="#000000" fill-rule="nonzero" fill-opacity="1" /><path clip-path="url(#clip840)" d="M743.508 212.508 L748.392 212.508 L748.392 218.388 L743.508 218.388 L743.508 212.508 Z" fill="#000000" fill-rule="nonzero" fill-opacity="1" /><path clip-path="url(#clip840)" d="M768.577 186.907 Q764.966 186.907 763.137 190.471 Q761.332 194.013 761.332 201.143 Q761.332 208.249 763.137 211.814 Q764.966 215.355 768.577 215.355 Q772.211 215.355 774.017 211.814 Q775.846 208.249 775.846 201.143 Q775.846 194.013 774.017 190.471 Q772.211 186.907 768.577 186.907 M768.577 183.203 Q774.387 183.203 777.443 187.809 Q780.522 192.393 780.522 201.143 Q780.522 209.869 777.443 214.476 Q774.387 219.059 768.577 219.059 Q762.767 219.059 759.688 214.476 Q756.633 209.869 756.633 201.143 Q756.633 192.393 759.688 187.809 Q762.767 183.203 768.577 183.203 Z" fill="#000000" fill-rule="nonzero" fill-opacity="1" /><path clip-path="url(#clip840)" d="M788.785 183.828 L807.142 183.828 L807.142 187.763 L793.068 187.763 L793.068 196.235 Q794.086 195.888 795.105 195.726 Q796.123 195.541 797.142 195.541 Q802.929 195.541 806.308 198.712 Q809.688 201.883 809.688 207.3 Q809.688 212.879 806.216 215.98 Q802.744 219.059 796.424 219.059 Q794.248 219.059 791.98 218.689 Q789.735 218.318 787.327 217.578 L787.327 212.879 Q789.41 214.013 791.633 214.568 Q793.855 215.124 796.332 215.124 Q800.336 215.124 802.674 213.017 Q805.012 210.911 805.012 207.3 Q805.012 203.689 802.674 201.582 Q800.336 199.476 796.332 199.476 Q794.457 199.476 792.582 199.893 Q790.73 200.309 788.785 201.189 L788.785 183.828 Z" fill="#000000" fill-rule="nonzero" fill-opacity="1" /><path clip-path="url(#clip840)" d="M818.947 183.828 L837.304 183.828 L837.304 187.763 L823.23 187.763 L823.23 196.235 Q824.248 195.888 825.267 195.726 Q826.285 195.541 827.304 195.541 Q833.091 195.541 836.47 198.712 Q839.85 201.883 839.85 207.3 Q839.85 212.879 836.378 215.98 Q832.906 219.059 826.586 219.059 Q824.41 219.059 822.142 218.689 Q819.896 218.318 817.489 217.578 L817.489 212.879 Q819.572 214.013 821.795 214.568 Q824.017 215.124 826.494 215.124 Q830.498 215.124 832.836 213.017 Q835.174 210.911 835.174 207.3 Q835.174 203.689 832.836 201.582 Q830.498 199.476 826.494 199.476 Q824.619 199.476 822.744 199.893 Q820.892 200.309 818.947 201.189 L818.947 183.828 Z" fill="#000000" fill-rule="nonzero" fill-opacity="1" /><path clip-path="url(#clip840)" d="M880.868 188.666 L880.868 201.559 L893.762 201.559 L893.762 205.494 L880.868 205.494 L880.868 218.388 L876.979 218.388 L876.979 205.494 L864.086 205.494 L864.086 201.559 L876.979 201.559 L876.979 188.666 L880.868 188.666 Z" fill="#000000" fill-rule="nonzero" fill-opacity="1" /><path clip-path="url(#clip840)" d="M913.854 186.907 Q910.243 186.907 908.414 190.471 Q906.609 194.013 906.609 201.143 Q906.609 208.249 908.414 211.814 Q910.243 215.355 913.854 215.355 Q917.488 215.355 919.294 211.814 Q921.123 208.249 921.123 201.143 Q921.123 194.013 919.294 190.471 Q917.488 186.907 913.854 186.907 M913.854 183.203 Q919.664 183.203 922.72 187.809 Q925.799 192.393 925.799 201.143 Q925.799 209.869 922.72 214.476 Q919.664 219.059 913.854 219.059 Q908.044 219.059 904.965 214.476 Q901.91 209.869 901.91 201.143 Q901.91 192.393 904.965 187.809 Q908.044 183.203 913.854 183.203 Z" fill="#000000" fill-rule="nonzero" fill-opacity="1" /><path clip-path="url(#clip840)" d="M934.016 212.508 L938.9 212.508 L938.9 218.388 L934.016 218.388 L934.016 212.508 Z" fill="#000000" fill-rule="nonzero" fill-opacity="1" /><path clip-path="url(#clip840)" d="M959.085 186.907 Q955.474 186.907 953.646 190.471 Q951.84 194.013 951.84 201.143 Q951.84 208.249 953.646 211.814 Q955.474 215.355 959.085 215.355 Q962.72 215.355 964.525 211.814 Q966.354 208.249 966.354 201.143 Q966.354 194.013 964.525 190.471 Q962.72 186.907 959.085 186.907 M959.085 183.203 Q964.896 183.203 967.951 187.809 Q971.03 192.393 971.03 201.143 Q971.03 209.869 967.951 214.476 Q964.896 219.059 959.085 219.059 Q953.275 219.059 950.197 214.476 Q947.141 209.869 947.141 201.143 Q947.141 192.393 950.197 187.809 Q953.275 183.203 959.085 183.203 Z" fill="#000000" fill-rule="nonzero" fill-opacity="1" /><path clip-path="url(#clip840)" d="M983.275 214.453 L999.594 214.453 L999.594 218.388 L977.65 218.388 L977.65 214.453 Q980.312 211.698 984.895 207.068 Q989.502 202.416 990.683 201.073 Q992.928 198.55 993.807 196.814 Q994.71 195.055 994.71 193.365 Q994.71 190.61 992.766 188.874 Q990.845 187.138 987.743 187.138 Q985.544 187.138 983.09 187.902 Q980.659 188.666 977.882 190.217 L977.882 185.494 Q980.706 184.36 983.159 183.782 Q985.613 183.203 987.65 183.203 Q993.02 183.203 996.215 185.888 Q999.409 188.573 999.409 193.064 Q999.409 195.194 998.599 197.115 Q997.812 199.013 995.706 201.606 Q995.127 202.277 992.025 205.494 Q988.923 208.689 983.275 214.453 Z" fill="#000000" fill-rule="nonzero" fill-opacity="1" /><path clip-path="url(#clip840)" d="M1023.58 199.754 Q1026.93 200.471 1028.81 202.74 Q1030.71 205.008 1030.71 208.342 Q1030.71 213.457 1027.19 216.258 Q1023.67 219.059 1017.19 219.059 Q1015.01 219.059 1012.7 218.619 Q1010.4 218.203 1007.95 217.346 L1007.95 212.832 Q1009.9 213.967 1012.21 214.545 Q1014.52 215.124 1017.05 215.124 Q1021.45 215.124 1023.74 213.388 Q1026.05 211.652 1026.05 208.342 Q1026.05 205.286 1023.9 203.573 Q1021.77 201.837 1017.95 201.837 L1013.92 201.837 L1013.92 197.994 L1018.14 197.994 Q1021.59 197.994 1023.41 196.629 Q1025.24 195.24 1025.24 192.647 Q1025.24 189.985 1023.34 188.573 Q1021.47 187.138 1017.95 187.138 Q1016.03 187.138 1013.83 187.555 Q1011.63 187.971 1008.99 188.851 L1008.99 184.684 Q1011.65 183.944 1013.97 183.573 Q1016.31 183.203 1018.37 183.203 Q1023.69 183.203 1026.79 185.633 Q1029.9 188.041 1029.9 192.161 Q1029.9 195.031 1028.25 197.022 Q1026.61 198.99 1023.58 199.754 Z" fill="#000000" fill-rule="nonzero" fill-opacity="1" /><path clip-path="url(#clip840)" d="M1046.54 183.828 L1050.47 183.828 L1038.44 222.786 L1034.5 222.786 L1046.54 183.828 Z" fill="#000000" fill-rule="nonzero" fill-opacity="1" /><path clip-path="url(#clip840)" d="M1052.79 203.504 L1065.27 203.504 L1065.27 207.3 L1052.79 207.3 L1052.79 203.504 Z" fill="#000000" fill-rule="nonzero" fill-opacity="1" /><path clip-path="url(#clip840)" d="M1082.65 186.907 Q1079.04 186.907 1077.21 190.471 Q1075.4 194.013 1075.4 201.143 Q1075.4 208.249 1077.21 211.814 Q1079.04 215.355 1082.65 215.355 Q1086.28 215.355 1088.09 211.814 Q1089.92 208.249 1089.92 201.143 Q1089.92 194.013 1088.09 190.471 Q1086.28 186.907 1082.65 186.907 M1082.65 183.203 Q1088.46 183.203 1091.52 187.809 Q1094.59 192.393 1094.59 201.143 Q1094.59 209.869 1091.52 214.476 Q1088.46 219.059 1082.65 219.059 Q1076.84 219.059 1073.76 214.476 Q1070.71 209.869 1070.71 201.143 Q1070.71 192.393 1073.76 187.809 Q1076.84 183.203 1082.65 183.203 Z" fill="#000000" fill-rule="nonzero" fill-opacity="1" /><path clip-path="url(#clip840)" d="M1102.81 212.508 L1107.7 212.508 L1107.7 218.388 L1102.81 218.388 L1102.81 212.508 Z" fill="#000000" fill-rule="nonzero" fill-opacity="1" /><path clip-path="url(#clip840)" d="M1127.88 186.907 Q1124.27 186.907 1122.44 190.471 Q1120.64 194.013 1120.64 201.143 Q1120.64 208.249 1122.44 211.814 Q1124.27 215.355 1127.88 215.355 Q1131.52 215.355 1133.32 211.814 Q1135.15 208.249 1135.15 201.143 Q1135.15 194.013 1133.32 190.471 Q1131.52 186.907 1127.88 186.907 M1127.88 183.203 Q1133.69 183.203 1136.75 187.809 Q1139.83 192.393 1139.83 201.143 Q1139.83 209.869 1136.75 214.476 Q1133.69 219.059 1127.88 219.059 Q1122.07 219.059 1118.99 214.476 Q1115.94 209.869 1115.94 201.143 Q1115.94 192.393 1118.99 187.809 Q1122.07 183.203 1127.88 183.203 Z" fill="#000000" fill-rule="nonzero" fill-opacity="1" /><path clip-path="url(#clip840)" d="M1152.07 214.453 L1168.39 214.453 L1168.39 218.388 L1146.45 218.388 L1146.45 214.453 Q1149.11 211.698 1153.69 207.068 Q1158.3 202.416 1159.48 201.073 Q1161.72 198.55 1162.6 196.814 Q1163.51 195.055 1163.51 193.365 Q1163.51 190.61 1161.56 188.874 Q1159.64 187.138 1156.54 187.138 Q1154.34 187.138 1151.89 187.902 Q1149.45 188.666 1146.68 190.217 L1146.68 185.494 Q1149.5 184.36 1151.95 183.782 Q1154.41 183.203 1156.45 183.203 Q1161.82 183.203 1165.01 185.888 Q1168.2 188.573 1168.2 193.064 Q1168.2 195.194 1167.39 197.115 Q1166.61 199.013 1164.5 201.606 Q1163.92 202.277 1160.82 205.494 Q1157.72 208.689 1152.07 214.453 Z" fill="#000000" fill-rule="nonzero" fill-opacity="1" /><path clip-path="url(#clip840)" d="M1177.02 183.828 L1199.25 183.828 L1199.25 185.819 L1186.7 218.388 L1181.82 218.388 L1193.62 187.763 L1177.02 187.763 L1177.02 183.828 Z" fill="#000000" fill-rule="nonzero" fill-opacity="1" /><path clip-path="url(#clip840)" d="M1223.02 183.828 L1229.99 183.828 L1238.81 207.346 L1247.67 183.828 L1254.64 183.828 L1254.64 218.388 L1250.08 218.388 L1250.08 188.041 L1241.17 211.744 L1236.47 211.744 L1227.56 188.041 L1227.56 218.388 L1223.02 218.388 L1223.02 183.828 Z" fill="#000000" fill-rule="nonzero" fill-opacity="1" /><path clip-path="url(#clip840)" d="M1275.52 205.355 Q1270.36 205.355 1268.37 206.536 Q1266.38 207.717 1266.38 210.564 Q1266.38 212.832 1267.86 214.175 Q1269.36 215.494 1271.93 215.494 Q1275.47 215.494 1277.6 212.994 Q1279.76 210.471 1279.76 206.305 L1279.76 205.355 L1275.52 205.355 M1284.01 203.596 L1284.01 218.388 L1279.76 218.388 L1279.76 214.453 Q1278.3 216.814 1276.12 217.948 Q1273.94 219.059 1270.8 219.059 Q1266.82 219.059 1264.45 216.837 Q1262.12 214.592 1262.12 210.842 Q1262.12 206.467 1265.03 204.244 Q1267.97 202.022 1273.78 202.022 L1279.76 202.022 L1279.76 201.606 Q1279.76 198.666 1277.81 197.068 Q1275.89 195.448 1272.39 195.448 Q1270.17 195.448 1268.07 195.981 Q1265.96 196.513 1264.01 197.578 L1264.01 193.643 Q1266.35 192.74 1268.55 192.3 Q1270.75 191.837 1272.83 191.837 Q1278.46 191.837 1281.24 194.754 Q1284.01 197.67 1284.01 203.596 Z" fill="#000000" fill-rule="nonzero" fill-opacity="1" /><path clip-path="url(#clip840)" d="M1292.12 182.416 L1295.82 182.416 Q1299.29 187.879 1301 193.11 Q1302.74 198.342 1302.74 203.504 Q1302.74 208.689 1301 213.943 Q1299.29 219.198 1295.82 224.638 L1292.12 224.638 Q1295.19 219.337 1296.7 214.105 Q1298.23 208.851 1298.23 203.504 Q1298.23 198.156 1296.7 192.948 Q1295.19 187.74 1292.12 182.416 Z" fill="#000000" fill-rule="nonzero" fill-opacity="1" /></svg>
