<?xml version="1.0" encoding="utf-8"?>
<svg xmlns="http://www.w3.org/2000/svg" xmlns:xlink="http://www.w3.org/1999/xlink" width="600" height="400" viewBox="0 0 2400 1600">
<defs>
  <clipPath id="clip060">
    <rect x="0" y="0" width="2400" height="1600"/>
  </clipPath>
</defs>
<path clip-path="url(#clip060)" d="M0 1600 L2400 1600 L2400 8.88178e-14 L0 8.88178e-14  Z" fill="#ffffff" fill-rule="evenodd" fill-opacity="1"/>
<defs>
  <clipPath id="clip061">
    <rect x="480" y="0" width="1681" height="1600"/>
  </clipPath>
</defs>
<path clip-path="url(#clip060)" d="M202.227 1423.18 L2352.76 1423.18 L2352.76 47.2441 L202.227 47.2441  Z" fill="#ffffff" fill-rule="evenodd" fill-opacity="1"/>
<defs>
  <clipPath id="clip062">
    <rect x="202" y="47" width="2152" height="1377"/>
  </clipPath>
</defs>
<polyline clip-path="url(#clip062)" style="stroke:#000000; stroke-linecap:round; stroke-linejoin:round; stroke-width:2; stroke-opacity:0.1; fill:none" points="547.894,1423.18 547.894,47.2441 "/>
<polyline clip-path="url(#clip062)" style="stroke:#000000; stroke-linecap:round; stroke-linejoin:round; stroke-width:2; stroke-opacity:0.1; fill:none" points="1132.28,1423.18 1132.28,47.2441 "/>
<polyline clip-path="url(#clip062)" style="stroke:#000000; stroke-linecap:round; stroke-linejoin:round; stroke-width:2; stroke-opacity:0.1; fill:none" points="1716.67,1423.18 1716.67,47.2441 "/>
<polyline clip-path="url(#clip062)" style="stroke:#000000; stroke-linecap:round; stroke-linejoin:round; stroke-width:2; stroke-opacity:0.1; fill:none" points="2301.06,1423.18 2301.06,47.2441 "/>
<polyline clip-path="url(#clip062)" style="stroke:#000000; stroke-linecap:round; stroke-linejoin:round; stroke-width:2; stroke-opacity:0.1; fill:none" points="547.894,1423.18 547.894,47.2441 "/>
<polyline clip-path="url(#clip062)" style="stroke:#000000; stroke-linecap:round; stroke-linejoin:round; stroke-width:2; stroke-opacity:0.1; fill:none" points="1132.28,1423.18 1132.28,47.2441 "/>
<polyline clip-path="url(#clip062)" style="stroke:#000000; stroke-linecap:round; stroke-linejoin:round; stroke-width:2; stroke-opacity:0.1; fill:none" points="1716.67,1423.18 1716.67,47.2441 "/>
<polyline clip-path="url(#clip062)" style="stroke:#000000; stroke-linecap:round; stroke-linejoin:round; stroke-width:2; stroke-opacity:0.1; fill:none" points="2301.06,1423.18 2301.06,47.2441 "/>
<polyline clip-path="url(#clip062)" style="stroke:#000000; stroke-linecap:round; stroke-linejoin:round; stroke-width:2; stroke-opacity:0.1; fill:none" points="202.227,1384.24 2352.76,1384.24 "/>
<polyline clip-path="url(#clip062)" style="stroke:#000000; stroke-linecap:round; stroke-linejoin:round; stroke-width:2; stroke-opacity:0.1; fill:none" points="202.227,1178.08 2352.76,1178.08 "/>
<polyline clip-path="url(#clip062)" style="stroke:#000000; stroke-linecap:round; stroke-linejoin:round; stroke-width:2; stroke-opacity:0.1; fill:none" points="202.227,971.925 2352.76,971.925 "/>
<polyline clip-path="url(#clip062)" style="stroke:#000000; stroke-linecap:round; stroke-linejoin:round; stroke-width:2; stroke-opacity:0.1; fill:none" points="202.227,765.769 2352.76,765.769 "/>
<polyline clip-path="url(#clip062)" style="stroke:#000000; stroke-linecap:round; stroke-linejoin:round; stroke-width:2; stroke-opacity:0.1; fill:none" points="202.227,559.612 2352.76,559.612 "/>
<polyline clip-path="url(#clip062)" style="stroke:#000000; stroke-linecap:round; stroke-linejoin:round; stroke-width:2; stroke-opacity:0.1; fill:none" points="202.227,353.455 2352.76,353.455 "/>
<polyline clip-path="url(#clip062)" style="stroke:#000000; stroke-linecap:round; stroke-linejoin:round; stroke-width:2; stroke-opacity:0.1; fill:none" points="202.227,147.299 2352.76,147.299 "/>
<polyline clip-path="url(#clip062)" style="stroke:#000000; stroke-linecap:round; stroke-linejoin:round; stroke-width:2; stroke-opacity:0.1; fill:none" points="202.227,1384.24 2352.76,1384.24 "/>
<polyline clip-path="url(#clip062)" style="stroke:#000000; stroke-linecap:round; stroke-linejoin:round; stroke-width:2; stroke-opacity:0.1; fill:none" points="202.227,1178.08 2352.76,1178.08 "/>
<polyline clip-path="url(#clip062)" style="stroke:#000000; stroke-linecap:round; stroke-linejoin:round; stroke-width:2; stroke-opacity:0.1; fill:none" points="202.227,971.925 2352.76,971.925 "/>
<polyline clip-path="url(#clip062)" style="stroke:#000000; stroke-linecap:round; stroke-linejoin:round; stroke-width:2; stroke-opacity:0.1; fill:none" points="202.227,765.769 2352.76,765.769 "/>
<polyline clip-path="url(#clip062)" style="stroke:#000000; stroke-linecap:round; stroke-linejoin:round; stroke-width:2; stroke-opacity:0.1; fill:none" points="202.227,559.612 2352.76,559.612 "/>
<polyline clip-path="url(#clip062)" style="stroke:#000000; stroke-linecap:round; stroke-linejoin:round; stroke-width:2; stroke-opacity:0.1; fill:none" points="202.227,353.455 2352.76,353.455 "/>
<polyline clip-path="url(#clip062)" style="stroke:#000000; stroke-linecap:round; stroke-linejoin:round; stroke-width:2; stroke-opacity:0.1; fill:none" points="202.227,147.299 2352.76,147.299 "/>
<polyline clip-path="url(#clip060)" style="stroke:#000000; stroke-linecap:round; stroke-linejoin:round; stroke-width:4; stroke-opacity:1; fill:none" points="202.227,1423.18 2352.76,1423.18 "/>
<polyline clip-path="url(#clip060)" style="stroke:#000000; stroke-linecap:round; stroke-linejoin:round; stroke-width:4; stroke-opacity:1; fill:none" points="202.227,47.2441 2352.76,47.2441 "/>
<polyline clip-path="url(#clip060)" style="stroke:#000000; stroke-linecap:round; stroke-linejoin:round; stroke-width:4; stroke-opacity:1; fill:none" points="547.894,1423.18 547.894,1404.28 "/>
<polyline clip-path="url(#clip060)" style="stroke:#000000; stroke-linecap:round; stroke-linejoin:round; stroke-width:4; stroke-opacity:1; fill:none" points="1132.28,1423.18 1132.28,1404.28 "/>
<polyline clip-path="url(#clip060)" style="stroke:#000000; stroke-linecap:round; stroke-linejoin:round; stroke-width:4; stroke-opacity:1; fill:none" points="1716.67,1423.18 1716.67,1404.28 "/>
<polyline clip-path="url(#clip060)" style="stroke:#000000; stroke-linecap:round; stroke-linejoin:round; stroke-width:4; stroke-opacity:1; fill:none" points="2301.06,1423.18 2301.06,1404.28 "/>
<polyline clip-path="url(#clip060)" style="stroke:#000000; stroke-linecap:round; stroke-linejoin:round; stroke-width:4; stroke-opacity:1; fill:none" points="547.894,47.2441 547.894,66.1417 "/>
<polyline clip-path="url(#clip060)" style="stroke:#000000; stroke-linecap:round; stroke-linejoin:round; stroke-width:4; stroke-opacity:1; fill:none" points="1132.28,47.2441 1132.28,66.1417 "/>
<polyline clip-path="url(#clip060)" style="stroke:#000000; stroke-linecap:round; stroke-linejoin:round; stroke-width:4; stroke-opacity:1; fill:none" points="1716.67,47.2441 1716.67,66.1417 "/>
<polyline clip-path="url(#clip060)" style="stroke:#000000; stroke-linecap:round; stroke-linejoin:round; stroke-width:4; stroke-opacity:1; fill:none" points="2301.06,47.2441 2301.06,66.1417 "/>
<path clip-path="url(#clip060)" d="M510.729 1466.44 Q507.581 1466.44 505.729 1468.59 Q503.901 1470.74 503.901 1474.49 Q503.901 1478.22 505.729 1480.39 Q507.581 1482.55 510.729 1482.55 Q513.878 1482.55 515.706 1480.39 Q517.558 1478.22 517.558 1474.49 Q517.558 1470.74 515.706 1468.59 Q513.878 1466.44 510.729 1466.44 M520.012 1451.78 L520.012 1456.04 Q518.253 1455.21 516.447 1454.77 Q514.665 1454.33 512.905 1454.33 Q508.276 1454.33 505.822 1457.45 Q503.391 1460.58 503.044 1466.9 Q504.41 1464.89 506.47 1463.82 Q508.53 1462.73 511.007 1462.73 Q516.215 1462.73 519.225 1465.9 Q522.257 1469.05 522.257 1474.49 Q522.257 1479.82 519.109 1483.03 Q515.961 1486.25 510.729 1486.25 Q504.734 1486.25 501.563 1481.67 Q498.391 1477.06 498.391 1468.33 Q498.391 1460.14 502.28 1455.28 Q506.169 1450.39 512.72 1450.39 Q514.479 1450.39 516.262 1450.74 Q518.067 1451.09 520.012 1451.78 Z" fill="#000000" fill-rule="nonzero" fill-opacity="1" /><path clip-path="url(#clip060)" d="M530.359 1451.02 L548.715 1451.02 L548.715 1454.96 L534.641 1454.96 L534.641 1463.43 Q535.66 1463.08 536.678 1462.92 Q537.697 1462.73 538.715 1462.73 Q544.502 1462.73 547.882 1465.9 Q551.262 1469.08 551.262 1474.49 Q551.262 1480.07 547.789 1483.17 Q544.317 1486.25 537.998 1486.25 Q535.822 1486.25 533.553 1485.88 Q531.308 1485.51 528.901 1484.77 L528.901 1480.07 Q530.984 1481.2 533.206 1481.76 Q535.428 1482.32 537.905 1482.32 Q541.91 1482.32 544.248 1480.21 Q546.586 1478.1 546.586 1474.49 Q546.586 1470.88 544.248 1468.77 Q541.91 1466.67 537.905 1466.67 Q536.03 1466.67 534.155 1467.08 Q532.303 1467.5 530.359 1468.38 L530.359 1451.02 Z" fill="#000000" fill-rule="nonzero" fill-opacity="1" /><path clip-path="url(#clip060)" d="M560.474 1479.7 L565.359 1479.7 L565.359 1485.58 L560.474 1485.58 L560.474 1479.7 Z" fill="#000000" fill-rule="nonzero" fill-opacity="1" /><path clip-path="url(#clip060)" d="M585.544 1469.17 Q582.21 1469.17 580.289 1470.95 Q578.391 1472.73 578.391 1475.86 Q578.391 1478.98 580.289 1480.77 Q582.21 1482.55 585.544 1482.55 Q588.877 1482.55 590.798 1480.77 Q592.72 1478.96 592.72 1475.86 Q592.72 1472.73 590.798 1470.95 Q588.9 1469.17 585.544 1469.17 M580.868 1467.18 Q577.859 1466.44 576.169 1464.38 Q574.502 1462.32 574.502 1459.35 Q574.502 1455.21 577.442 1452.8 Q580.405 1450.39 585.544 1450.39 Q590.706 1450.39 593.646 1452.8 Q596.585 1455.21 596.585 1459.35 Q596.585 1462.32 594.896 1464.38 Q593.229 1466.44 590.243 1467.18 Q593.622 1467.96 595.497 1470.26 Q597.396 1472.55 597.396 1475.86 Q597.396 1480.88 594.317 1483.57 Q591.261 1486.25 585.544 1486.25 Q579.826 1486.25 576.748 1483.57 Q573.692 1480.88 573.692 1475.86 Q573.692 1472.55 575.59 1470.26 Q577.488 1467.96 580.868 1467.18 M579.155 1459.79 Q579.155 1462.48 580.822 1463.98 Q582.511 1465.49 585.544 1465.49 Q588.553 1465.49 590.243 1463.98 Q591.956 1462.48 591.956 1459.79 Q591.956 1457.11 590.243 1455.6 Q588.553 1454.1 585.544 1454.1 Q582.511 1454.1 580.822 1455.6 Q579.155 1457.11 579.155 1459.79 Z" fill="#000000" fill-rule="nonzero" fill-opacity="1" /><path clip-path="url(#clip060)" d="M1095.07 1466.44 Q1091.92 1466.44 1090.07 1468.59 Q1088.24 1470.74 1088.24 1474.49 Q1088.24 1478.22 1090.07 1480.39 Q1091.92 1482.55 1095.07 1482.55 Q1098.22 1482.55 1100.05 1480.39 Q1101.9 1478.22 1101.9 1474.49 Q1101.9 1470.74 1100.05 1468.59 Q1098.22 1466.44 1095.07 1466.44 M1104.35 1451.78 L1104.35 1456.04 Q1102.59 1455.21 1100.79 1454.77 Q1099.01 1454.33 1097.25 1454.33 Q1092.62 1454.33 1090.16 1457.45 Q1087.73 1460.58 1087.39 1466.9 Q1088.75 1464.89 1090.81 1463.82 Q1092.87 1462.73 1095.35 1462.73 Q1100.56 1462.73 1103.57 1465.9 Q1106.6 1469.05 1106.6 1474.49 Q1106.6 1479.82 1103.45 1483.03 Q1100.3 1486.25 1095.07 1486.25 Q1089.08 1486.25 1085.9 1481.67 Q1082.73 1477.06 1082.73 1468.33 Q1082.73 1460.14 1086.62 1455.28 Q1090.51 1450.39 1097.06 1450.39 Q1098.82 1450.39 1100.6 1450.74 Q1102.41 1451.09 1104.35 1451.78 Z" fill="#000000" fill-rule="nonzero" fill-opacity="1" /><path clip-path="url(#clip060)" d="M1125.23 1466.44 Q1122.08 1466.44 1120.23 1468.59 Q1118.4 1470.74 1118.4 1474.49 Q1118.4 1478.22 1120.23 1480.39 Q1122.08 1482.55 1125.23 1482.55 Q1128.38 1482.55 1130.21 1480.39 Q1132.06 1478.22 1132.06 1474.49 Q1132.06 1470.74 1130.21 1468.59 Q1128.38 1466.44 1125.23 1466.44 M1134.51 1451.78 L1134.51 1456.04 Q1132.76 1455.21 1130.95 1454.77 Q1129.17 1454.33 1127.41 1454.33 Q1122.78 1454.33 1120.32 1457.45 Q1117.89 1460.58 1117.55 1466.9 Q1118.91 1464.89 1120.97 1463.82 Q1123.03 1462.73 1125.51 1462.73 Q1130.72 1462.73 1133.73 1465.9 Q1136.76 1469.05 1136.76 1474.49 Q1136.76 1479.82 1133.61 1483.03 Q1130.46 1486.25 1125.23 1486.25 Q1119.24 1486.25 1116.07 1481.67 Q1112.89 1477.06 1112.89 1468.33 Q1112.89 1460.14 1116.78 1455.28 Q1120.67 1450.39 1127.22 1450.39 Q1128.98 1450.39 1130.76 1450.74 Q1132.57 1451.09 1134.51 1451.78 Z" fill="#000000" fill-rule="nonzero" fill-opacity="1" /><path clip-path="url(#clip060)" d="M1144.82 1479.7 L1149.7 1479.7 L1149.7 1485.58 L1144.82 1485.58 L1144.82 1479.7 Z" fill="#000000" fill-rule="nonzero" fill-opacity="1" /><path clip-path="url(#clip060)" d="M1169.88 1454.1 Q1166.27 1454.1 1164.45 1457.66 Q1162.64 1461.2 1162.64 1468.33 Q1162.64 1475.44 1164.45 1479.01 Q1166.27 1482.55 1169.88 1482.55 Q1173.52 1482.55 1175.32 1479.01 Q1177.15 1475.44 1177.15 1468.33 Q1177.15 1461.2 1175.32 1457.66 Q1173.52 1454.1 1169.88 1454.1 M1169.88 1450.39 Q1175.7 1450.39 1178.75 1455 Q1181.83 1459.58 1181.83 1468.33 Q1181.83 1477.06 1178.75 1481.67 Q1175.7 1486.25 1169.88 1486.25 Q1164.07 1486.25 1161 1481.67 Q1157.94 1477.06 1157.94 1468.33 Q1157.94 1459.58 1161 1455 Q1164.07 1450.39 1169.88 1450.39 Z" fill="#000000" fill-rule="nonzero" fill-opacity="1" /><path clip-path="url(#clip060)" d="M1680.26 1466.44 Q1677.11 1466.44 1675.26 1468.59 Q1673.43 1470.74 1673.43 1474.49 Q1673.43 1478.22 1675.26 1480.39 Q1677.11 1482.55 1680.26 1482.55 Q1683.4 1482.55 1685.23 1480.39 Q1687.09 1478.22 1687.09 1474.49 Q1687.09 1470.74 1685.23 1468.59 Q1683.4 1466.44 1680.26 1466.44 M1689.54 1451.78 L1689.54 1456.04 Q1687.78 1455.21 1685.97 1454.77 Q1684.19 1454.33 1682.43 1454.33 Q1677.8 1454.33 1675.35 1457.45 Q1672.92 1460.58 1672.57 1466.9 Q1673.94 1464.89 1676 1463.82 Q1678.06 1462.73 1680.53 1462.73 Q1685.74 1462.73 1688.75 1465.9 Q1691.78 1469.05 1691.78 1474.49 Q1691.78 1479.82 1688.64 1483.03 Q1685.49 1486.25 1680.26 1486.25 Q1674.26 1486.25 1671.09 1481.67 Q1667.92 1477.06 1667.92 1468.33 Q1667.92 1460.14 1671.81 1455.28 Q1675.7 1450.39 1682.25 1450.39 Q1684.01 1450.39 1685.79 1450.74 Q1687.59 1451.09 1689.54 1451.78 Z" fill="#000000" fill-rule="nonzero" fill-opacity="1" /><path clip-path="url(#clip060)" d="M1710.42 1466.44 Q1707.27 1466.44 1705.42 1468.59 Q1703.59 1470.74 1703.59 1474.49 Q1703.59 1478.22 1705.42 1480.39 Q1707.27 1482.55 1710.42 1482.55 Q1713.57 1482.55 1715.4 1480.39 Q1717.25 1478.22 1717.25 1474.49 Q1717.25 1470.74 1715.4 1468.59 Q1713.57 1466.44 1710.42 1466.44 M1719.7 1451.78 L1719.7 1456.04 Q1717.94 1455.21 1716.14 1454.77 Q1714.35 1454.33 1712.59 1454.33 Q1707.96 1454.33 1705.51 1457.45 Q1703.08 1460.58 1702.73 1466.9 Q1704.1 1464.89 1706.16 1463.82 Q1708.22 1462.73 1710.7 1462.73 Q1715.9 1462.73 1718.91 1465.9 Q1721.95 1469.05 1721.95 1474.49 Q1721.95 1479.82 1718.8 1483.03 Q1715.65 1486.25 1710.42 1486.25 Q1704.42 1486.25 1701.25 1481.67 Q1698.08 1477.06 1698.08 1468.33 Q1698.08 1460.14 1701.97 1455.28 Q1705.86 1450.39 1712.41 1450.39 Q1714.17 1450.39 1715.95 1450.74 Q1717.76 1451.09 1719.7 1451.78 Z" fill="#000000" fill-rule="nonzero" fill-opacity="1" /><path clip-path="url(#clip060)" d="M1730 1479.7 L1734.89 1479.7 L1734.89 1485.58 L1730 1485.58 L1730 1479.7 Z" fill="#000000" fill-rule="nonzero" fill-opacity="1" /><path clip-path="url(#clip060)" d="M1749.1 1481.64 L1765.42 1481.64 L1765.42 1485.58 L1743.47 1485.58 L1743.47 1481.64 Q1746.14 1478.89 1750.72 1474.26 Q1755.33 1469.61 1756.51 1468.27 Q1758.75 1465.74 1759.63 1464.01 Q1760.53 1462.25 1760.53 1460.56 Q1760.53 1457.8 1758.59 1456.07 Q1756.67 1454.33 1753.57 1454.33 Q1751.37 1454.33 1748.91 1455.09 Q1746.48 1455.86 1743.71 1457.41 L1743.71 1452.69 Q1746.53 1451.55 1748.98 1450.97 Q1751.44 1450.39 1753.47 1450.39 Q1758.84 1450.39 1762.04 1453.08 Q1765.23 1455.77 1765.23 1460.26 Q1765.23 1462.39 1764.42 1464.31 Q1763.64 1466.2 1761.53 1468.8 Q1760.95 1469.47 1757.85 1472.69 Q1754.75 1475.88 1749.1 1481.64 Z" fill="#000000" fill-rule="nonzero" fill-opacity="1" /><path clip-path="url(#clip060)" d="M2263.6 1466.44 Q2260.45 1466.44 2258.6 1468.59 Q2256.77 1470.74 2256.77 1474.49 Q2256.77 1478.22 2258.6 1480.39 Q2260.45 1482.55 2263.6 1482.55 Q2266.75 1482.55 2268.58 1480.39 Q2270.43 1478.22 2270.43 1474.49 Q2270.43 1470.74 2268.58 1468.59 Q2266.75 1466.44 2263.6 1466.44 M2272.88 1451.78 L2272.88 1456.04 Q2271.13 1455.21 2269.32 1454.77 Q2267.54 1454.33 2265.78 1454.33 Q2261.15 1454.33 2258.69 1457.45 Q2256.26 1460.58 2255.92 1466.9 Q2257.28 1464.89 2259.34 1463.82 Q2261.4 1462.73 2263.88 1462.73 Q2269.09 1462.73 2272.1 1465.9 Q2275.13 1469.05 2275.13 1474.49 Q2275.13 1479.82 2271.98 1483.03 Q2268.83 1486.25 2263.6 1486.25 Q2257.61 1486.25 2254.44 1481.67 Q2251.26 1477.06 2251.26 1468.33 Q2251.26 1460.14 2255.15 1455.28 Q2259.04 1450.39 2265.59 1450.39 Q2267.35 1450.39 2269.13 1450.74 Q2270.94 1451.09 2272.88 1451.78 Z" fill="#000000" fill-rule="nonzero" fill-opacity="1" /><path clip-path="url(#clip060)" d="M2293.76 1466.44 Q2290.62 1466.44 2288.76 1468.59 Q2286.94 1470.74 2286.94 1474.49 Q2286.94 1478.22 2288.76 1480.39 Q2290.62 1482.55 2293.76 1482.55 Q2296.91 1482.55 2298.74 1480.39 Q2300.59 1478.22 2300.59 1474.49 Q2300.59 1470.74 2298.74 1468.59 Q2296.91 1466.44 2293.76 1466.44 M2303.05 1451.78 L2303.05 1456.04 Q2301.29 1455.21 2299.48 1454.77 Q2297.7 1454.33 2295.94 1454.33 Q2291.31 1454.33 2288.86 1457.45 Q2286.43 1460.58 2286.08 1466.9 Q2287.44 1464.89 2289.5 1463.82 Q2291.57 1462.73 2294.04 1462.73 Q2299.25 1462.73 2302.26 1465.9 Q2305.29 1469.05 2305.29 1474.49 Q2305.29 1479.82 2302.14 1483.03 Q2299 1486.25 2293.76 1486.25 Q2287.77 1486.25 2284.6 1481.67 Q2281.43 1477.06 2281.43 1468.33 Q2281.43 1460.14 2285.32 1455.28 Q2289.2 1450.39 2295.75 1450.39 Q2297.51 1450.39 2299.3 1450.74 Q2301.1 1451.09 2303.05 1451.78 Z" fill="#000000" fill-rule="nonzero" fill-opacity="1" /><path clip-path="url(#clip060)" d="M2313.35 1479.7 L2318.23 1479.7 L2318.23 1485.58 L2313.35 1485.58 L2313.35 1479.7 Z" fill="#000000" fill-rule="nonzero" fill-opacity="1" /><path clip-path="url(#clip060)" d="M2341.26 1455.09 L2329.46 1473.54 L2341.26 1473.54 L2341.26 1455.09 M2340.04 1451.02 L2345.92 1451.02 L2345.92 1473.54 L2350.85 1473.54 L2350.85 1477.43 L2345.92 1477.43 L2345.92 1485.58 L2341.26 1485.58 L2341.26 1477.43 L2325.66 1477.43 L2325.66 1472.92 L2340.04 1451.02 Z" fill="#000000" fill-rule="nonzero" fill-opacity="1" /><path clip-path="url(#clip060)" d="M1155.4 1526.86 L1146.68 1550.51 L1164.15 1550.51 L1155.4 1526.86 M1151.77 1520.52 L1159.06 1520.52 L1177.17 1568.04 L1170.48 1568.04 L1166.16 1555.85 L1144.73 1555.85 L1140.41 1568.04 L1133.63 1568.04 L1151.77 1520.52 Z" fill="#000000" fill-rule="nonzero" fill-opacity="1" /><path clip-path="url(#clip060)" d="M1207.31 1549.81 Q1207.31 1543.44 1204.67 1539.94 Q1202.06 1536.44 1197.32 1536.44 Q1192.6 1536.44 1189.96 1539.94 Q1187.35 1543.44 1187.35 1549.81 Q1187.35 1556.14 1189.96 1559.64 Q1192.6 1563.14 1197.32 1563.14 Q1202.06 1563.14 1204.67 1559.64 Q1207.31 1556.14 1207.31 1549.81 M1213.17 1563.62 Q1213.17 1572.72 1209.12 1577.15 Q1205.08 1581.6 1196.74 1581.6 Q1193.66 1581.6 1190.92 1581.13 Q1188.18 1580.68 1185.6 1579.72 L1185.6 1574.03 Q1188.18 1575.43 1190.7 1576.1 Q1193.21 1576.76 1195.82 1576.76 Q1201.58 1576.76 1204.45 1573.74 Q1207.31 1570.75 1207.31 1564.67 L1207.31 1561.77 Q1205.5 1564.92 1202.66 1566.48 Q1199.83 1568.04 1195.88 1568.04 Q1189.33 1568.04 1185.32 1563.05 Q1181.31 1558.05 1181.31 1549.81 Q1181.31 1541.53 1185.32 1536.53 Q1189.33 1531.54 1195.88 1531.54 Q1199.83 1531.54 1202.66 1533.1 Q1205.5 1534.66 1207.31 1537.81 L1207.31 1532.4 L1213.17 1532.4 L1213.17 1563.62 Z" fill="#000000" fill-rule="nonzero" fill-opacity="1" /><path clip-path="url(#clip060)" d="M1255.72 1548.76 L1255.72 1551.62 L1228.79 1551.62 Q1229.18 1557.67 1232.42 1560.85 Q1235.7 1564 1241.53 1564 Q1244.9 1564 1248.05 1563.17 Q1251.23 1562.35 1254.35 1560.69 L1254.35 1566.23 Q1251.2 1567.57 1247.89 1568.27 Q1244.58 1568.97 1241.18 1568.97 Q1232.65 1568.97 1227.65 1564 Q1222.68 1559.04 1222.68 1550.57 Q1222.68 1541.82 1227.39 1536.69 Q1232.14 1531.54 1240.16 1531.54 Q1247.35 1531.54 1251.52 1536.18 Q1255.72 1540.8 1255.72 1548.76 M1249.86 1547.04 Q1249.8 1542.23 1247.16 1539.37 Q1244.55 1536.5 1240.22 1536.5 Q1235.32 1536.5 1232.36 1539.27 Q1229.43 1542.04 1228.99 1547.07 L1249.86 1547.04 Z" fill="#000000" fill-rule="nonzero" fill-opacity="1" /><path clip-path="url(#clip060)" d="M1300.12 1518.58 Q1295.86 1525.9 1293.79 1533.06 Q1291.72 1540.23 1291.72 1547.58 Q1291.72 1554.93 1293.79 1562.16 Q1295.89 1569.35 1300.12 1576.64 L1295.03 1576.64 Q1290.25 1569.16 1287.87 1561.93 Q1285.51 1554.71 1285.51 1547.58 Q1285.51 1540.48 1287.87 1533.29 Q1290.22 1526.09 1295.03 1518.58 L1300.12 1518.58 Z" fill="#000000" fill-rule="nonzero" fill-opacity="1" /><path clip-path="url(#clip060)" d="M1311.74 1520.52 L1321.32 1520.52 L1333.45 1552.86 L1345.64 1520.52 L1355.22 1520.52 L1355.22 1568.04 L1348.95 1568.04 L1348.95 1526.32 L1336.69 1558.91 L1330.23 1558.91 L1317.98 1526.32 L1317.98 1568.04 L1311.74 1568.04 L1311.74 1520.52 Z" fill="#000000" fill-rule="nonzero" fill-opacity="1" /><path clip-path="url(#clip060)" d="M1383.93 1550.12 Q1376.83 1550.12 1374.09 1551.75 Q1371.35 1553.37 1371.35 1557.29 Q1371.35 1560.4 1373.39 1562.25 Q1375.46 1564.07 1378.99 1564.07 Q1383.86 1564.07 1386.79 1560.63 Q1389.75 1557.16 1389.75 1551.43 L1389.75 1550.12 L1383.93 1550.12 M1395.61 1547.71 L1395.61 1568.04 L1389.75 1568.04 L1389.75 1562.63 Q1387.75 1565.88 1384.75 1567.44 Q1381.76 1568.97 1377.43 1568.97 Q1371.96 1568.97 1368.71 1565.91 Q1365.5 1562.82 1365.5 1557.67 Q1365.5 1551.65 1369.51 1548.6 Q1373.55 1545.54 1381.54 1545.54 L1389.75 1545.54 L1389.75 1544.97 Q1389.75 1540.93 1387.08 1538.73 Q1384.44 1536.5 1379.63 1536.5 Q1376.57 1536.5 1373.68 1537.23 Q1370.78 1537.97 1368.11 1539.43 L1368.11 1534.02 Q1371.32 1532.78 1374.35 1532.17 Q1377.37 1531.54 1380.23 1531.54 Q1387.97 1531.54 1391.79 1535.55 Q1395.61 1539.56 1395.61 1547.71 Z" fill="#000000" fill-rule="nonzero" fill-opacity="1" /><path clip-path="url(#clip060)" d="M1406.75 1518.58 L1411.84 1518.58 Q1416.61 1526.09 1418.97 1533.29 Q1421.36 1540.48 1421.36 1547.58 Q1421.36 1554.71 1418.97 1561.93 Q1416.61 1569.16 1411.84 1576.64 L1406.75 1576.64 Q1410.98 1569.35 1413.05 1562.16 Q1415.15 1554.93 1415.15 1547.58 Q1415.15 1540.23 1413.05 1533.06 Q1410.98 1525.9 1406.75 1518.58 Z" fill="#000000" fill-rule="nonzero" fill-opacity="1" /><polyline clip-path="url(#clip060)" style="stroke:#000000; stroke-linecap:round; stroke-linejoin:round; stroke-width:4; stroke-opacity:1; fill:none" points="202.227,1423.18 202.227,47.2441 "/>
<polyline clip-path="url(#clip060)" style="stroke:#000000; stroke-linecap:round; stroke-linejoin:round; stroke-width:4; stroke-opacity:1; fill:none" points="2352.76,1423.18 2352.76,47.2441 "/>
<polyline clip-path="url(#clip060)" style="stroke:#000000; stroke-linecap:round; stroke-linejoin:round; stroke-width:4; stroke-opacity:1; fill:none" points="202.227,1384.24 221.125,1384.24 "/>
<polyline clip-path="url(#clip060)" style="stroke:#000000; stroke-linecap:round; stroke-linejoin:round; stroke-width:4; stroke-opacity:1; fill:none" points="202.227,1178.08 221.125,1178.08 "/>
<polyline clip-path="url(#clip060)" style="stroke:#000000; stroke-linecap:round; stroke-linejoin:round; stroke-width:4; stroke-opacity:1; fill:none" points="202.227,971.925 221.125,971.925 "/>
<polyline clip-path="url(#clip060)" style="stroke:#000000; stroke-linecap:round; stroke-linejoin:round; stroke-width:4; stroke-opacity:1; fill:none" points="202.227,765.769 221.125,765.769 "/>
<polyline clip-path="url(#clip060)" style="stroke:#000000; stroke-linecap:round; stroke-linejoin:round; stroke-width:4; stroke-opacity:1; fill:none" points="202.227,559.612 221.125,559.612 "/>
<polyline clip-path="url(#clip060)" style="stroke:#000000; stroke-linecap:round; stroke-linejoin:round; stroke-width:4; stroke-opacity:1; fill:none" points="202.227,353.455 221.125,353.455 "/>
<polyline clip-path="url(#clip060)" style="stroke:#000000; stroke-linecap:round; stroke-linejoin:round; stroke-width:4; stroke-opacity:1; fill:none" points="202.227,147.299 221.125,147.299 "/>
<polyline clip-path="url(#clip060)" style="stroke:#000000; stroke-linecap:round; stroke-linejoin:round; stroke-width:4; stroke-opacity:1; fill:none" points="2352.76,1384.24 2333.86,1384.24 "/>
<polyline clip-path="url(#clip060)" style="stroke:#000000; stroke-linecap:round; stroke-linejoin:round; stroke-width:4; stroke-opacity:1; fill:none" points="2352.76,1178.08 2333.86,1178.08 "/>
<polyline clip-path="url(#clip060)" style="stroke:#000000; stroke-linecap:round; stroke-linejoin:round; stroke-width:4; stroke-opacity:1; fill:none" points="2352.76,971.925 2333.86,971.925 "/>
<polyline clip-path="url(#clip060)" style="stroke:#000000; stroke-linecap:round; stroke-linejoin:round; stroke-width:4; stroke-opacity:1; fill:none" points="2352.76,765.769 2333.86,765.769 "/>
<polyline clip-path="url(#clip060)" style="stroke:#000000; stroke-linecap:round; stroke-linejoin:round; stroke-width:4; stroke-opacity:1; fill:none" points="2352.76,559.612 2333.86,559.612 "/>
<polyline clip-path="url(#clip060)" style="stroke:#000000; stroke-linecap:round; stroke-linejoin:round; stroke-width:4; stroke-opacity:1; fill:none" points="2352.76,353.455 2333.86,353.455 "/>
<polyline clip-path="url(#clip060)" style="stroke:#000000; stroke-linecap:round; stroke-linejoin:round; stroke-width:4; stroke-opacity:1; fill:none" points="2352.76,147.299 2333.86,147.299 "/>
<path clip-path="url(#clip060)" d="M154.283 1370.04 Q150.672 1370.04 148.843 1373.6 Q147.038 1377.14 147.038 1384.27 Q147.038 1391.38 148.843 1394.94 Q150.672 1398.49 154.283 1398.49 Q157.917 1398.49 159.723 1394.94 Q161.552 1391.38 161.552 1384.27 Q161.552 1377.14 159.723 1373.6 Q157.917 1370.04 154.283 1370.04 M154.283 1366.33 Q160.093 1366.33 163.149 1370.94 Q166.227 1375.52 166.227 1384.27 Q166.227 1393 163.149 1397.61 Q160.093 1402.19 154.283 1402.19 Q148.473 1402.19 145.394 1397.61 Q142.339 1393 142.339 1384.27 Q142.339 1375.52 145.394 1370.94 Q148.473 1366.33 154.283 1366.33 Z" fill="#000000" fill-rule="nonzero" fill-opacity="1" /><path clip-path="url(#clip060)" d="M149.908 1191.43 L166.227 1191.43 L166.227 1195.36 L144.283 1195.36 L144.283 1191.43 Q146.945 1188.67 151.528 1184.04 Q156.135 1179.39 157.315 1178.05 Q159.561 1175.52 160.44 1173.79 Q161.343 1172.03 161.343 1170.34 Q161.343 1167.58 159.399 1165.85 Q157.478 1164.11 154.376 1164.11 Q152.177 1164.11 149.723 1164.88 Q147.292 1165.64 144.515 1167.19 L144.515 1162.47 Q147.339 1161.33 149.792 1160.76 Q152.246 1160.18 154.283 1160.18 Q159.653 1160.18 162.848 1162.86 Q166.042 1165.55 166.042 1170.04 Q166.042 1172.17 165.232 1174.09 Q164.445 1175.99 162.339 1178.58 Q161.76 1179.25 158.658 1182.47 Q155.556 1185.66 149.908 1191.43 Z" fill="#000000" fill-rule="nonzero" fill-opacity="1" /><path clip-path="url(#clip060)" d="M156.644 958.719 L144.839 977.168 L156.644 977.168 L156.644 958.719 M155.417 954.645 L161.297 954.645 L161.297 977.168 L166.227 977.168 L166.227 981.057 L161.297 981.057 L161.297 989.205 L156.644 989.205 L156.644 981.057 L141.042 981.057 L141.042 976.543 L155.417 954.645 Z" fill="#000000" fill-rule="nonzero" fill-opacity="1" /><path clip-path="url(#clip060)" d="M154.7 763.905 Q151.552 763.905 149.7 766.058 Q147.871 768.211 147.871 771.961 Q147.871 775.688 149.7 777.863 Q151.552 780.016 154.7 780.016 Q157.848 780.016 159.677 777.863 Q161.528 775.688 161.528 771.961 Q161.528 768.211 159.677 766.058 Q157.848 763.905 154.7 763.905 M163.982 749.252 L163.982 753.512 Q162.223 752.678 160.417 752.239 Q158.635 751.799 156.876 751.799 Q152.246 751.799 149.792 754.924 Q147.362 758.049 147.015 764.368 Q148.38 762.354 150.441 761.289 Q152.501 760.201 154.978 760.201 Q160.186 760.201 163.195 763.373 Q166.227 766.521 166.227 771.961 Q166.227 777.285 163.079 780.502 Q159.931 783.72 154.7 783.72 Q148.704 783.72 145.533 779.137 Q142.362 774.53 142.362 765.803 Q142.362 757.609 146.251 752.748 Q150.14 747.864 156.69 747.864 Q158.45 747.864 160.232 748.211 Q162.038 748.558 163.982 749.252 Z" fill="#000000" fill-rule="nonzero" fill-opacity="1" /><path clip-path="url(#clip060)" d="M154.376 560.48 Q151.042 560.48 149.121 562.262 Q147.223 564.045 147.223 567.17 Q147.223 570.295 149.121 572.077 Q151.042 573.86 154.376 573.86 Q157.709 573.86 159.63 572.077 Q161.552 570.272 161.552 567.17 Q161.552 564.045 159.63 562.262 Q157.732 560.48 154.376 560.48 M149.7 558.489 Q146.691 557.749 145.001 555.688 Q143.334 553.628 143.334 550.665 Q143.334 546.522 146.274 544.114 Q149.237 541.707 154.376 541.707 Q159.538 541.707 162.477 544.114 Q165.417 546.522 165.417 550.665 Q165.417 553.628 163.727 555.688 Q162.061 557.749 159.075 558.489 Q162.454 559.276 164.329 561.568 Q166.227 563.86 166.227 567.17 Q166.227 572.193 163.149 574.878 Q160.093 577.563 154.376 577.563 Q148.658 577.563 145.579 574.878 Q142.524 572.193 142.524 567.17 Q142.524 563.86 144.422 561.568 Q146.32 559.276 149.7 558.489 M147.987 551.105 Q147.987 553.79 149.653 555.295 Q151.343 556.8 154.376 556.8 Q157.385 556.8 159.075 555.295 Q160.788 553.79 160.788 551.105 Q160.788 548.42 159.075 546.915 Q157.385 545.411 154.376 545.411 Q151.343 545.411 149.653 546.915 Q147.987 548.42 147.987 551.105 Z" fill="#000000" fill-rule="nonzero" fill-opacity="1" /><path clip-path="url(#clip060)" d="M114.931 366.8 L122.57 366.8 L122.57 340.435 L114.26 342.101 L114.26 337.842 L122.524 336.175 L127.2 336.175 L127.2 366.8 L134.839 366.8 L134.839 370.735 L114.931 370.735 L114.931 366.8 Z" fill="#000000" fill-rule="nonzero" fill-opacity="1" /><path clip-path="url(#clip060)" d="M154.283 339.254 Q150.672 339.254 148.843 342.819 Q147.038 346.361 147.038 353.49 Q147.038 360.597 148.843 364.161 Q150.672 367.703 154.283 367.703 Q157.917 367.703 159.723 364.161 Q161.552 360.597 161.552 353.49 Q161.552 346.361 159.723 342.819 Q157.917 339.254 154.283 339.254 M154.283 335.55 Q160.093 335.55 163.149 340.157 Q166.227 344.74 166.227 353.49 Q166.227 362.217 163.149 366.823 Q160.093 371.407 154.283 371.407 Q148.473 371.407 145.394 366.823 Q142.339 362.217 142.339 353.49 Q142.339 344.74 145.394 340.157 Q148.473 335.55 154.283 335.55 Z" fill="#000000" fill-rule="nonzero" fill-opacity="1" /><path clip-path="url(#clip060)" d="M116.529 160.644 L124.168 160.644 L124.168 134.278 L115.857 135.945 L115.857 131.686 L124.121 130.019 L128.797 130.019 L128.797 160.644 L136.436 160.644 L136.436 164.579 L116.529 164.579 L116.529 160.644 Z" fill="#000000" fill-rule="nonzero" fill-opacity="1" /><path clip-path="url(#clip060)" d="M149.908 160.644 L166.227 160.644 L166.227 164.579 L144.283 164.579 L144.283 160.644 Q146.945 157.889 151.528 153.26 Q156.135 148.607 157.315 147.264 Q159.561 144.741 160.44 143.005 Q161.343 141.246 161.343 139.556 Q161.343 136.801 159.399 135.065 Q157.478 133.329 154.376 133.329 Q152.177 133.329 149.723 134.093 Q147.292 134.857 144.515 136.408 L144.515 131.686 Q147.339 130.551 149.792 129.973 Q152.246 129.394 154.283 129.394 Q159.653 129.394 162.848 132.079 Q166.042 134.764 166.042 139.255 Q166.042 141.385 165.232 143.306 Q164.445 145.204 162.339 147.797 Q161.76 148.468 158.658 151.685 Q155.556 154.88 149.908 160.644 Z" fill="#000000" fill-rule="nonzero" fill-opacity="1" /><path clip-path="url(#clip060)" d="M21.7677 1026.76 L39.6235 1026.76 L39.6235 1018.68 Q39.6235 1014.19 37.3 1011.74 Q34.9765 1009.29 30.6797 1009.29 Q26.4147 1009.29 24.0912 1011.74 Q21.7677 1014.19 21.7677 1018.68 L21.7677 1026.76 M16.4842 1033.19 L16.4842 1018.68 Q16.4842 1010.69 20.1126 1006.61 Q23.7092 1002.51 30.6797 1002.51 Q37.7138 1002.51 41.3104 1006.61 Q44.907 1010.69 44.907 1018.68 L44.907 1026.76 L64.0042 1026.76 L64.0042 1033.19 L16.4842 1033.19 Z" fill="#000000" fill-rule="nonzero" fill-opacity="1" /><path clip-path="url(#clip060)" d="M33.8307 974.626 Q33.2578 975.613 33.0032 976.791 Q32.7167 977.936 32.7167 979.337 Q32.7167 984.302 35.9632 986.976 Q39.1779 989.617 45.2253 989.617 L64.0042 989.617 L64.0042 995.506 L28.3562 995.506 L28.3562 989.617 L33.8944 989.617 Q30.6479 987.771 29.0883 984.811 Q27.4968 981.851 27.4968 977.618 Q27.4968 977.013 27.5923 976.281 Q27.656 975.549 27.8151 974.658 L33.8307 974.626 Z" fill="#000000" fill-rule="nonzero" fill-opacity="1" /><path clip-path="url(#clip060)" d="M32.4621 956.102 Q32.4621 960.813 36.1542 963.55 Q39.8145 966.287 46.212 966.287 Q52.6095 966.287 56.3017 963.582 Q59.9619 960.844 59.9619 956.102 Q59.9619 951.423 56.2698 948.686 Q52.5777 945.949 46.212 945.949 Q39.8781 945.949 36.186 948.686 Q32.4621 951.423 32.4621 956.102 M27.4968 956.102 Q27.4968 948.463 32.4621 944.103 Q37.4273 939.742 46.212 939.742 Q54.9649 939.742 59.9619 944.103 Q64.9272 948.463 64.9272 956.102 Q64.9272 963.773 59.9619 968.133 Q54.9649 972.462 46.212 972.462 Q37.4273 972.462 32.4621 968.133 Q27.4968 963.773 27.4968 956.102 Z" fill="#000000" fill-rule="nonzero" fill-opacity="1" /><path clip-path="url(#clip060)" d="M46.212 904.444 Q39.7508 904.444 36.0905 907.118 Q32.3984 909.76 32.3984 914.407 Q32.3984 919.054 36.0905 921.727 Q39.7508 924.369 46.212 924.369 Q52.6732 924.369 56.3653 921.727 Q60.0256 919.054 60.0256 914.407 Q60.0256 909.76 56.3653 907.118 Q52.6732 904.444 46.212 904.444 M33.7671 924.369 Q30.5842 922.523 29.0564 919.722 Q27.4968 916.889 27.4968 912.974 Q27.4968 906.481 32.6531 902.439 Q37.8093 898.365 46.212 898.365 Q54.6147 898.365 59.771 902.439 Q64.9272 906.481 64.9272 912.974 Q64.9272 916.889 63.3994 919.722 Q61.8398 922.523 58.657 924.369 L64.0042 924.369 L64.0042 930.257 L14.479 930.257 L14.479 924.369 L33.7671 924.369 Z" fill="#000000" fill-rule="nonzero" fill-opacity="1" /><path clip-path="url(#clip060)" d="M46.0847 872.457 Q46.0847 879.554 47.7079 882.292 Q49.3312 885.029 53.2461 885.029 Q56.3653 885.029 58.2114 882.992 Q60.0256 880.923 60.0256 877.39 Q60.0256 872.52 56.5881 869.592 Q53.1188 866.632 47.3897 866.632 L46.0847 866.632 L46.0847 872.457 M43.6657 860.776 L64.0042 860.776 L64.0042 866.632 L58.5933 866.632 Q61.8398 868.637 63.3994 871.629 Q64.9272 874.621 64.9272 878.95 Q64.9272 884.424 61.8716 887.671 Q58.7843 890.885 53.6281 890.885 Q47.6125 890.885 44.5569 886.875 Q41.5014 882.833 41.5014 874.844 L41.5014 866.632 L40.9285 866.632 Q36.8862 866.632 34.6901 869.306 Q32.4621 871.947 32.4621 876.753 Q32.4621 879.809 33.1941 882.705 Q33.9262 885.602 35.3903 888.275 L29.9795 888.275 Q28.7381 885.061 28.1334 882.037 Q27.4968 879.013 27.4968 876.149 Q27.4968 868.414 31.5072 864.595 Q35.5176 860.776 43.6657 860.776 Z" fill="#000000" fill-rule="nonzero" fill-opacity="1" /><path clip-path="url(#clip060)" d="M46.212 823.122 Q39.7508 823.122 36.0905 825.796 Q32.3984 828.438 32.3984 833.085 Q32.3984 837.732 36.0905 840.405 Q39.7508 843.047 46.212 843.047 Q52.6732 843.047 56.3653 840.405 Q60.0256 837.732 60.0256 833.085 Q60.0256 828.438 56.3653 825.796 Q52.6732 823.122 46.212 823.122 M33.7671 843.047 Q30.5842 841.201 29.0564 838.4 Q27.4968 835.567 27.4968 831.652 Q27.4968 825.159 32.6531 821.117 Q37.8093 817.043 46.212 817.043 Q54.6147 817.043 59.771 821.117 Q64.9272 825.159 64.9272 831.652 Q64.9272 835.567 63.3994 838.4 Q61.8398 841.201 58.657 843.047 L64.0042 843.047 L64.0042 848.935 L14.479 848.935 L14.479 843.047 L33.7671 843.047 Z" fill="#000000" fill-rule="nonzero" fill-opacity="1" /><path clip-path="url(#clip060)" d="M28.3562 807.335 L28.3562 801.479 L64.0042 801.479 L64.0042 807.335 L28.3562 807.335 M14.479 807.335 L14.479 801.479 L21.895 801.479 L21.895 807.335 L14.479 807.335 Z" fill="#000000" fill-rule="nonzero" fill-opacity="1" /><path clip-path="url(#clip060)" d="M14.479 789.225 L14.479 783.369 L64.0042 783.369 L64.0042 789.225 L14.479 789.225 Z" fill="#000000" fill-rule="nonzero" fill-opacity="1" /><path clip-path="url(#clip060)" d="M28.3562 771.115 L28.3562 765.258 L64.0042 765.258 L64.0042 771.115 L28.3562 771.115 M14.479 771.115 L14.479 765.258 L21.895 765.258 L21.895 771.115 L14.479 771.115 Z" fill="#000000" fill-rule="nonzero" fill-opacity="1" /><path clip-path="url(#clip060)" d="M18.2347 747.211 L28.3562 747.211 L28.3562 735.148 L32.9077 735.148 L32.9077 747.211 L52.2594 747.211 Q56.6199 747.211 57.8613 746.034 Q59.1026 744.824 59.1026 741.164 L59.1026 735.148 L64.0042 735.148 L64.0042 741.164 Q64.0042 747.943 61.4897 750.521 Q58.9434 753.1 52.2594 753.1 L32.9077 753.1 L32.9077 757.396 L28.3562 757.396 L28.3562 753.1 L18.2347 753.1 L18.2347 747.211 Z" fill="#000000" fill-rule="nonzero" fill-opacity="1" /><path clip-path="url(#clip060)" d="M67.3143 712.614 Q73.68 715.096 75.6216 717.452 Q77.5631 719.807 77.5631 723.754 L77.5631 728.432 L72.6615 728.432 L72.6615 724.995 Q72.6615 722.576 71.5157 721.239 Q70.3699 719.902 66.1048 718.279 L63.4312 717.229 L28.3562 731.647 L28.3562 725.441 L56.238 714.301 L28.3562 703.161 L28.3562 696.954 L67.3143 712.614 Z" fill="#000000" fill-rule="nonzero" fill-opacity="1" /><path clip-path="url(#clip060)" d="M33.7671 644.692 L14.479 644.692 L14.479 638.835 L64.0042 638.835 L64.0042 644.692 L58.657 644.692 Q61.8398 646.538 63.3994 649.37 Q64.9272 652.171 64.9272 656.118 Q64.9272 662.579 59.771 666.653 Q54.6147 670.696 46.212 670.696 Q37.8093 670.696 32.6531 666.653 Q27.4968 662.579 27.4968 656.118 Q27.4968 652.171 29.0564 649.37 Q30.5842 646.538 33.7671 644.692 M46.212 664.648 Q52.6732 664.648 56.3653 662.006 Q60.0256 659.333 60.0256 654.686 Q60.0256 650.039 56.3653 647.365 Q52.6732 644.692 46.212 644.692 Q39.7508 644.692 36.0905 647.365 Q32.3984 650.039 32.3984 654.686 Q32.3984 659.333 36.0905 662.006 Q39.7508 664.648 46.212 664.648 Z" fill="#000000" fill-rule="nonzero" fill-opacity="1" /><path clip-path="url(#clip060)" d="M44.7161 596.28 L47.5806 596.28 L47.5806 623.207 Q53.6281 622.825 56.8109 619.579 Q59.9619 616.301 59.9619 610.476 Q59.9619 607.102 59.1344 603.951 Q58.3069 600.768 56.6518 597.649 L62.1899 597.649 Q63.5267 600.8 64.227 604.11 Q64.9272 607.42 64.9272 610.826 Q64.9272 619.356 59.9619 624.353 Q54.9967 629.318 46.5303 629.318 Q37.7774 629.318 32.6531 624.608 Q27.4968 619.865 27.4968 611.845 Q27.4968 604.651 32.1438 600.482 Q36.7589 596.28 44.7161 596.28 M42.9973 602.137 Q38.1912 602.201 35.3266 604.842 Q32.4621 607.452 32.4621 611.781 Q32.4621 616.683 35.2312 619.643 Q38.0002 622.571 43.0292 623.016 L42.9973 602.137 Z" fill="#000000" fill-rule="nonzero" fill-opacity="1" /><path clip-path="url(#clip060)" d="M42.4881 557.036 L64.0042 557.036 L64.0042 562.892 L42.679 562.892 Q37.6183 562.892 35.1038 564.866 Q32.5894 566.839 32.5894 570.786 Q32.5894 575.528 35.6131 578.265 Q38.6368 581.003 43.8567 581.003 L64.0042 581.003 L64.0042 586.891 L28.3562 586.891 L28.3562 581.003 L33.8944 581.003 Q30.6797 578.902 29.0883 576.069 Q27.4968 573.205 27.4968 569.481 Q27.4968 563.338 31.3163 560.187 Q35.1038 557.036 42.4881 557.036 Z" fill="#000000" fill-rule="nonzero" fill-opacity="1" /><path clip-path="url(#clip060)" d="M29.4065 522.629 L34.9447 522.629 Q33.6716 525.112 33.035 527.785 Q32.3984 530.459 32.3984 533.324 Q32.3984 537.684 33.7352 539.88 Q35.072 542.045 37.7456 542.045 Q39.7826 542.045 40.9603 540.485 Q42.1061 538.925 43.1565 534.215 L43.6021 532.21 Q44.9389 525.971 47.3897 523.361 Q49.8086 520.719 54.1691 520.719 Q59.1344 520.719 62.0308 524.666 Q64.9272 528.581 64.9272 535.456 Q64.9272 538.321 64.3543 541.44 Q63.8132 544.527 62.6992 547.965 L56.6518 547.965 Q58.3387 544.718 59.198 541.567 Q60.0256 538.416 60.0256 535.329 Q60.0256 531.191 58.6251 528.963 Q57.1929 526.735 54.6147 526.735 Q52.2276 526.735 50.9545 528.358 Q49.6813 529.95 48.5037 535.392 L48.0262 537.429 Q46.8804 542.872 44.5251 545.291 Q42.138 547.71 38.0002 547.71 Q32.9713 547.71 30.2341 544.145 Q27.4968 540.58 27.4968 534.024 Q27.4968 530.777 27.9743 527.913 Q28.4517 525.048 29.4065 522.629 Z" fill="#000000" fill-rule="nonzero" fill-opacity="1" /><path clip-path="url(#clip060)" d="M28.3562 511.394 L28.3562 505.537 L64.0042 505.537 L64.0042 511.394 L28.3562 511.394 M14.479 511.394 L14.479 505.537 L21.895 505.537 L21.895 511.394 L14.479 511.394 Z" fill="#000000" fill-rule="nonzero" fill-opacity="1" /><path clip-path="url(#clip060)" d="M18.2347 487.49 L28.3562 487.49 L28.3562 475.427 L32.9077 475.427 L32.9077 487.49 L52.2594 487.49 Q56.6199 487.49 57.8613 486.313 Q59.1026 485.103 59.1026 481.443 L59.1026 475.427 L64.0042 475.427 L64.0042 481.443 Q64.0042 488.223 61.4897 490.801 Q58.9434 493.379 52.2594 493.379 L32.9077 493.379 L32.9077 497.676 L28.3562 497.676 L28.3562 493.379 L18.2347 493.379 L18.2347 487.49 Z" fill="#000000" fill-rule="nonzero" fill-opacity="1" /><path clip-path="url(#clip060)" d="M67.3143 452.893 Q73.68 455.376 75.6216 457.731 Q77.5631 460.086 77.5631 464.033 L77.5631 468.712 L72.6615 468.712 L72.6615 465.274 Q72.6615 462.855 71.5157 461.518 Q70.3699 460.182 66.1048 458.558 L63.4312 457.508 L28.3562 471.926 L28.3562 465.72 L56.238 454.58 L28.3562 443.44 L28.3562 437.233 L67.3143 452.893 Z" fill="#000000" fill-rule="nonzero" fill-opacity="1" /><polyline clip-path="url(#clip062)" style="stroke:#009af9; stroke-linecap:round; stroke-linejoin:round; stroke-width:4; stroke-opacity:1; fill:none" points="263.091,1384.19 358.564,1384.19 430.169,1384.2 597.247,1384.22 644.983,1384.14 692.72,1384.19 764.325,1384.21 812.061,1384.23 835.929,1384.2 859.797,1384.17 883.666,1384.18 907.534,1384.19 931.402,1384.22 955.27,1384.14 979.139,1384.17 1003.01,1384.07 1026.88,1384.07 1050.74,1384.07 1074.61,1384.15 1098.48,1384.15 1122.35,1384.17 1146.22,1384 1170.08,1383.92 1193.95,1384.07 1217.82,1383.91 1241.69,1383.81 1265.56,1383.81 1289.43,1383.42 1313.29,1383.68 1337.16,1382.84 1361.03,1382.8 1384.9,1382.56 1408.77,1382.51 1432.64,1381.48 1456.5,1381.27 1480.37,1380.05 1504.24,1378.67 1528.11,1377.25 1551.98,1373.99 1575.84,1373.16 1599.71,1367.86 1623.58,1363.7 1647.45,1354.74 1671.32,1347.29 1695.19,1334.62 1719.05,1313.43 1742.92,1292.53 1766.79,1254.25 1790.66,1224.02 1814.53,1161.63 1838.4,1079.51 1862.26,990.966 1886.13,866.758 1910,728.344 1933.87,658.527 1957.74,659.544 1981.6,682.98 2005.47,762.964 2029.34,869.45 2053.21,971.542 2077.08,1098.61 2100.95,1179.02 2124.81,1265.26 2148.68,1306.77 2172.55,1344 2196.42,1364.14 2220.29,1375.78 2244.16,1381.12 2268.02,1383.24 2291.89,1383.92 "/>
<polyline clip-path="url(#clip062)" style="stroke:#e26f46; stroke-linecap:round; stroke-linejoin:round; stroke-width:4; stroke-opacity:1; fill:none" points="263.091,1384.24 358.564,1384.24 430.169,1384.24 597.247,1384.24 644.983,1384.24 692.72,1384.24 764.325,1384.24 812.061,1384.24 835.929,1384.24 859.797,1384.24 883.666,1384.24 907.534,1384.24 931.402,1384.24 955.27,1384.24 979.139,1384.24 1003.01,1384.24 1026.88,1384.24 1050.74,1384.24 1074.61,1384.24 1098.48,1384.23 1122.35,1384.23 1146.22,1384.23 1170.08,1384.23 1193.95,1384.22 1217.82,1384.21 1241.69,1384.2 1265.56,1384.18 1289.43,1384.14 1313.29,1384.1 1337.16,1384.03 1361.03,1383.93 1384.9,1383.78 1408.77,1383.56 1432.64,1383.22 1456.5,1382.73 1480.37,1382.01 1504.24,1380.93 1528.11,1379.34 1551.98,1377 1575.84,1373.55 1599.71,1368.5 1623.58,1361.1 1647.45,1350.33 1671.32,1334.72 1695.19,1312.24 1719.05,1280.16 1742.92,1234.91 1766.79,1172.05 1790.66,1086.51 1814.53,973.443 1838.4,829.882 1862.26,657.834 1886.13,468.43 1910,285.604 1933.87,145.37 1957.74,86.1857 1981.6,131.106 2005.47,272.809 2029.34,475.395 2053.21,692.926 2077.08,889.309 2100.95,1046.66 2124.81,1162.47 2148.68,1242.66 2172.55,1295.78 2196.42,1329.86 2220.29,1351.22 2244.16,1364.38 2268.02,1372.38 2291.89,1377.19 "/>
<path clip-path="url(#clip060)" d="M273.912 248.629 L823.268 248.629 L823.268 93.1086 L273.912 93.1086  Z" fill="#ffffff" fill-rule="evenodd" fill-opacity="1"/>
<polyline clip-path="url(#clip060)" style="stroke:#ffffff; stroke-linecap:round; stroke-linejoin:round; stroke-width:4; stroke-opacity:1; fill:none" points="273.912,248.629 823.268,248.629 823.268,93.1086 273.912,93.1086 273.912,248.629 "/>
<polyline clip-path="url(#clip060)" style="stroke:#009af9; stroke-linecap:round; stroke-linejoin:round; stroke-width:4; stroke-opacity:1; fill:none" points="297.807,144.949 441.175,144.949 "/>
<path clip-path="url(#clip060)" d="M465.07 127.669 L469.746 127.669 L469.746 141.835 L486.736 141.835 L486.736 127.669 L491.412 127.669 L491.412 162.229 L486.736 162.229 L486.736 145.77 L469.746 145.77 L469.746 162.229 L465.07 162.229 L465.07 127.669 Z" fill="#000000" fill-rule="nonzero" fill-opacity="1" /><path clip-path="url(#clip060)" d="M500.533 136.303 L504.792 136.303 L504.792 162.229 L500.533 162.229 L500.533 136.303 M500.533 126.21 L504.792 126.21 L504.792 131.604 L500.533 131.604 L500.533 126.21 Z" fill="#000000" fill-rule="nonzero" fill-opacity="1" /><path clip-path="url(#clip060)" d="M530.232 137.067 L530.232 141.094 Q528.426 140.169 526.482 139.706 Q524.537 139.243 522.454 139.243 Q519.283 139.243 517.685 140.215 Q516.111 141.187 516.111 143.131 Q516.111 144.613 517.245 145.469 Q518.38 146.303 521.806 147.067 L523.264 147.391 Q527.801 148.363 529.699 150.145 Q531.62 151.905 531.62 155.076 Q531.62 158.687 528.75 160.793 Q525.903 162.9 520.903 162.9 Q518.82 162.9 516.551 162.483 Q514.306 162.09 511.806 161.28 L511.806 156.881 Q514.167 158.108 516.458 158.733 Q518.75 159.335 520.995 159.335 Q524.005 159.335 525.625 158.317 Q527.245 157.275 527.245 155.4 Q527.245 153.664 526.065 152.738 Q524.907 151.812 520.949 150.956 L519.468 150.608 Q515.509 149.775 513.75 148.062 Q511.991 146.326 511.991 143.317 Q511.991 139.659 514.583 137.669 Q517.176 135.678 521.945 135.678 Q524.306 135.678 526.389 136.025 Q528.472 136.372 530.232 137.067 Z" fill="#000000" fill-rule="nonzero" fill-opacity="1" /><path clip-path="url(#clip060)" d="M542.616 128.942 L542.616 136.303 L551.389 136.303 L551.389 139.613 L542.616 139.613 L542.616 153.687 Q542.616 156.858 543.472 157.761 Q544.352 158.664 547.014 158.664 L551.389 158.664 L551.389 162.229 L547.014 162.229 Q542.083 162.229 540.208 160.4 Q538.333 158.548 538.333 153.687 L538.333 139.613 L535.208 139.613 L535.208 136.303 L538.333 136.303 L538.333 128.942 L542.616 128.942 Z" fill="#000000" fill-rule="nonzero" fill-opacity="1" /><path clip-path="url(#clip060)" d="M567.037 139.289 Q563.611 139.289 561.62 141.974 Q559.63 144.636 559.63 149.289 Q559.63 153.942 561.597 156.627 Q563.588 159.289 567.037 159.289 Q570.44 159.289 572.43 156.604 Q574.421 153.918 574.421 149.289 Q574.421 144.682 572.43 141.997 Q570.44 139.289 567.037 139.289 M567.037 135.678 Q572.592 135.678 575.764 139.289 Q578.935 142.9 578.935 149.289 Q578.935 155.655 575.764 159.289 Q572.592 162.9 567.037 162.9 Q561.458 162.9 558.287 159.289 Q555.139 155.655 555.139 149.289 Q555.139 142.9 558.287 139.289 Q561.458 135.678 567.037 135.678 Z" fill="#000000" fill-rule="nonzero" fill-opacity="1" /><path clip-path="url(#clip060)" d="M603.055 148.965 Q603.055 144.335 601.134 141.789 Q599.236 139.243 595.787 139.243 Q592.361 139.243 590.44 141.789 Q588.541 144.335 588.541 148.965 Q588.541 153.571 590.44 156.118 Q592.361 158.664 595.787 158.664 Q599.236 158.664 601.134 156.118 Q603.055 153.571 603.055 148.965 M607.314 159.011 Q607.314 165.631 604.375 168.849 Q601.435 172.09 595.37 172.09 Q593.125 172.09 591.134 171.742 Q589.143 171.418 587.268 170.724 L587.268 166.58 Q589.143 167.599 590.972 168.085 Q592.801 168.571 594.699 168.571 Q598.889 168.571 600.972 166.372 Q603.055 164.196 603.055 159.775 L603.055 157.668 Q601.736 159.96 599.676 161.094 Q597.615 162.229 594.745 162.229 Q589.977 162.229 587.06 158.594 Q584.143 154.96 584.143 148.965 Q584.143 142.946 587.06 139.312 Q589.977 135.678 594.745 135.678 Q597.615 135.678 599.676 136.812 Q601.736 137.946 603.055 140.238 L603.055 136.303 L607.314 136.303 L607.314 159.011 Z" fill="#000000" fill-rule="nonzero" fill-opacity="1" /><path clip-path="url(#clip060)" d="M631.111 140.284 Q630.393 139.868 629.537 139.682 Q628.703 139.474 627.685 139.474 Q624.074 139.474 622.129 141.835 Q620.208 144.173 620.208 148.571 L620.208 162.229 L615.926 162.229 L615.926 136.303 L620.208 136.303 L620.208 140.331 Q621.55 137.969 623.703 136.835 Q625.856 135.678 628.935 135.678 Q629.375 135.678 629.907 135.747 Q630.439 135.794 631.087 135.909 L631.111 140.284 Z" fill="#000000" fill-rule="nonzero" fill-opacity="1" /><path clip-path="url(#clip060)" d="M647.361 149.196 Q642.199 149.196 640.208 150.377 Q638.217 151.557 638.217 154.405 Q638.217 156.673 639.699 158.016 Q641.203 159.335 643.773 159.335 Q647.314 159.335 649.444 156.835 Q651.597 154.312 651.597 150.145 L651.597 149.196 L647.361 149.196 M655.856 147.437 L655.856 162.229 L651.597 162.229 L651.597 158.293 Q650.138 160.655 647.962 161.789 Q645.786 162.9 642.638 162.9 Q638.657 162.9 636.296 160.678 Q633.958 158.432 633.958 154.682 Q633.958 150.307 636.874 148.085 Q639.814 145.863 645.624 145.863 L651.597 145.863 L651.597 145.446 Q651.597 142.507 649.652 140.909 Q647.731 139.289 644.236 139.289 Q642.013 139.289 639.907 139.821 Q637.8 140.354 635.856 141.419 L635.856 137.483 Q638.194 136.581 640.393 136.141 Q642.592 135.678 644.675 135.678 Q650.3 135.678 653.078 138.594 Q655.856 141.511 655.856 147.437 Z" fill="#000000" fill-rule="nonzero" fill-opacity="1" /><path clip-path="url(#clip060)" d="M684.814 141.28 Q686.411 138.409 688.633 137.044 Q690.856 135.678 693.865 135.678 Q697.916 135.678 700.115 138.525 Q702.314 141.349 702.314 146.581 L702.314 162.229 L698.032 162.229 L698.032 146.719 Q698.032 142.993 696.712 141.187 Q695.393 139.382 692.684 139.382 Q689.374 139.382 687.453 141.581 Q685.532 143.78 685.532 147.576 L685.532 162.229 L681.249 162.229 L681.249 146.719 Q681.249 142.969 679.93 141.187 Q678.61 139.382 675.856 139.382 Q672.592 139.382 670.671 141.604 Q668.749 143.803 668.749 147.576 L668.749 162.229 L664.467 162.229 L664.467 136.303 L668.749 136.303 L668.749 140.331 Q670.208 137.946 672.245 136.812 Q674.282 135.678 677.083 135.678 Q679.907 135.678 681.874 137.113 Q683.865 138.548 684.814 141.28 Z" fill="#000000" fill-rule="nonzero" fill-opacity="1" /><polyline clip-path="url(#clip060)" style="stroke:#e26f46; stroke-linecap:round; stroke-linejoin:round; stroke-width:4; stroke-opacity:1; fill:none" points="297.807,196.789 441.175,196.789 "/>
<path clip-path="url(#clip060)" d="M469.746 183.351 L469.746 210.226 L475.394 210.226 Q482.547 210.226 485.857 206.985 Q489.19 203.745 489.19 196.754 Q489.19 189.809 485.857 186.592 Q482.547 183.351 475.394 183.351 L469.746 183.351 M465.07 179.509 L474.676 179.509 Q484.723 179.509 489.422 183.698 Q494.121 187.865 494.121 196.754 Q494.121 205.689 489.398 209.879 Q484.676 214.069 474.676 214.069 L465.07 214.069 L465.07 179.509 Z" fill="#000000" fill-rule="nonzero" fill-opacity="1" /><path clip-path="url(#clip060)" d="M501.389 188.143 L505.648 188.143 L505.648 214.069 L501.389 214.069 L501.389 188.143 M501.389 178.05 L505.648 178.05 L505.648 183.444 L501.389 183.444 L501.389 178.05 Z" fill="#000000" fill-rule="nonzero" fill-opacity="1" /><path clip-path="url(#clip060)" d="M531.088 188.907 L531.088 192.934 Q529.282 192.009 527.338 191.546 Q525.394 191.083 523.31 191.083 Q520.139 191.083 518.542 192.055 Q516.968 193.027 516.968 194.971 Q516.968 196.453 518.102 197.309 Q519.236 198.143 522.662 198.907 L524.12 199.231 Q528.657 200.203 530.556 201.985 Q532.477 203.745 532.477 206.916 Q532.477 210.527 529.607 212.633 Q526.759 214.74 521.759 214.74 Q519.676 214.74 517.408 214.323 Q515.162 213.93 512.662 213.12 L512.662 208.721 Q515.023 209.948 517.315 210.573 Q519.607 211.175 521.852 211.175 Q524.861 211.175 526.482 210.157 Q528.102 209.115 528.102 207.24 Q528.102 205.504 526.921 204.578 Q525.764 203.652 521.806 202.796 L520.324 202.448 Q516.366 201.615 514.607 199.902 Q512.847 198.166 512.847 195.157 Q512.847 191.499 515.44 189.509 Q518.033 187.518 522.801 187.518 Q525.162 187.518 527.245 187.865 Q529.329 188.212 531.088 188.907 Z" fill="#000000" fill-rule="nonzero" fill-opacity="1" /><path clip-path="url(#clip060)" d="M543.472 180.782 L543.472 188.143 L552.245 188.143 L552.245 191.453 L543.472 191.453 L543.472 205.527 Q543.472 208.698 544.329 209.601 Q545.208 210.504 547.87 210.504 L552.245 210.504 L552.245 214.069 L547.87 214.069 Q542.94 214.069 541.065 212.24 Q539.19 210.388 539.19 205.527 L539.19 191.453 L536.065 191.453 L536.065 188.143 L539.19 188.143 L539.19 180.782 L543.472 180.782 Z" fill="#000000" fill-rule="nonzero" fill-opacity="1" /><path clip-path="url(#clip060)" d="M572.87 192.124 Q572.153 191.708 571.296 191.522 Q570.463 191.314 569.444 191.314 Q565.833 191.314 563.889 193.675 Q561.967 196.013 561.967 200.411 L561.967 214.069 L557.685 214.069 L557.685 188.143 L561.967 188.143 L561.967 192.171 Q563.31 189.809 565.463 188.675 Q567.616 187.518 570.694 187.518 Q571.134 187.518 571.666 187.587 Q572.199 187.634 572.847 187.749 L572.87 192.124 Z" fill="#000000" fill-rule="nonzero" fill-opacity="1" /><path clip-path="url(#clip060)" d="M577.338 188.143 L581.597 188.143 L581.597 214.069 L577.338 214.069 L577.338 188.143 M577.338 178.05 L581.597 178.05 L581.597 183.444 L577.338 183.444 L577.338 178.05 Z" fill="#000000" fill-rule="nonzero" fill-opacity="1" /><path clip-path="url(#clip060)" d="M609.12 201.129 Q609.12 196.43 607.176 193.768 Q605.254 191.083 601.875 191.083 Q598.495 191.083 596.551 193.768 Q594.629 196.43 594.629 201.129 Q594.629 205.828 596.551 208.513 Q598.495 211.175 601.875 211.175 Q605.254 211.175 607.176 208.513 Q609.12 205.828 609.12 201.129 M594.629 192.078 Q595.972 189.763 598.009 188.652 Q600.069 187.518 602.916 187.518 Q607.639 187.518 610.578 191.268 Q613.541 195.018 613.541 201.129 Q613.541 207.24 610.578 210.99 Q607.639 214.74 602.916 214.74 Q600.069 214.74 598.009 213.629 Q595.972 212.495 594.629 210.18 L594.629 214.069 L590.347 214.069 L590.347 178.05 L594.629 178.05 L594.629 192.078 Z" fill="#000000" fill-rule="nonzero" fill-opacity="1" /><path clip-path="url(#clip060)" d="M620.162 203.837 L620.162 188.143 L624.421 188.143 L624.421 203.675 Q624.421 207.356 625.856 209.208 Q627.291 211.036 630.162 211.036 Q633.611 211.036 635.601 208.837 Q637.615 206.638 637.615 202.842 L637.615 188.143 L641.874 188.143 L641.874 214.069 L637.615 214.069 L637.615 210.087 Q636.064 212.448 634.004 213.606 Q631.967 214.74 629.259 214.74 Q624.791 214.74 622.476 211.962 Q620.162 209.184 620.162 203.837 M630.879 187.518 L630.879 187.518 Z" fill="#000000" fill-rule="nonzero" fill-opacity="1" /><path clip-path="url(#clip060)" d="M654.86 180.782 L654.86 188.143 L663.634 188.143 L663.634 191.453 L654.86 191.453 L654.86 205.527 Q654.86 208.698 655.717 209.601 Q656.597 210.504 659.259 210.504 L663.634 210.504 L663.634 214.069 L659.259 214.069 Q654.328 214.069 652.453 212.24 Q650.578 210.388 650.578 205.527 L650.578 191.453 L647.453 191.453 L647.453 188.143 L650.578 188.143 L650.578 180.782 L654.86 180.782 Z" fill="#000000" fill-rule="nonzero" fill-opacity="1" /><path clip-path="url(#clip060)" d="M669.235 188.143 L673.495 188.143 L673.495 214.069 L669.235 214.069 L669.235 188.143 M669.235 178.05 L673.495 178.05 L673.495 183.444 L669.235 183.444 L669.235 178.05 Z" fill="#000000" fill-rule="nonzero" fill-opacity="1" /><path clip-path="url(#clip060)" d="M692.453 191.129 Q689.027 191.129 687.036 193.814 Q685.046 196.476 685.046 201.129 Q685.046 205.782 687.013 208.467 Q689.004 211.129 692.453 211.129 Q695.856 211.129 697.846 208.444 Q699.837 205.758 699.837 201.129 Q699.837 196.522 697.846 193.837 Q695.856 191.129 692.453 191.129 M692.453 187.518 Q698.008 187.518 701.18 191.129 Q704.351 194.74 704.351 201.129 Q704.351 207.495 701.18 211.129 Q698.008 214.74 692.453 214.74 Q686.874 214.74 683.703 211.129 Q680.555 207.495 680.555 201.129 Q680.555 194.74 683.703 191.129 Q686.874 187.518 692.453 187.518 Z" fill="#000000" fill-rule="nonzero" fill-opacity="1" /><path clip-path="url(#clip060)" d="M732.962 198.421 L732.962 214.069 L728.703 214.069 L728.703 198.559 Q728.703 194.879 727.268 193.05 Q725.832 191.222 722.962 191.222 Q719.513 191.222 717.522 193.421 Q715.531 195.62 715.531 199.416 L715.531 214.069 L711.249 214.069 L711.249 188.143 L715.531 188.143 L715.531 192.171 Q717.059 189.833 719.119 188.675 Q721.203 187.518 723.911 187.518 Q728.379 187.518 730.67 190.296 Q732.962 193.05 732.962 198.421 Z" fill="#000000" fill-rule="nonzero" fill-opacity="1" /><path clip-path="url(#clip060)" d="M769.652 178.05 L769.652 181.592 L765.577 181.592 Q763.286 181.592 762.383 182.518 Q761.503 183.444 761.503 185.851 L761.503 188.143 L768.517 188.143 L768.517 191.453 L761.503 191.453 L761.503 214.069 L757.221 214.069 L757.221 191.453 L753.147 191.453 L753.147 188.143 L757.221 188.143 L757.221 186.337 Q757.221 182.009 759.235 180.041 Q761.249 178.05 765.624 178.05 L769.652 178.05 Z" fill="#000000" fill-rule="nonzero" fill-opacity="1" /><path clip-path="url(#clip060)" d="M773.216 188.143 L777.476 188.143 L777.476 214.069 L773.216 214.069 L773.216 188.143 M773.216 178.05 L777.476 178.05 L777.476 183.444 L773.216 183.444 L773.216 178.05 Z" fill="#000000" fill-rule="nonzero" fill-opacity="1" /><path clip-path="url(#clip060)" d="M790.6 180.782 L790.6 188.143 L799.374 188.143 L799.374 191.453 L790.6 191.453 L790.6 205.527 Q790.6 208.698 791.457 209.601 Q792.337 210.504 794.999 210.504 L799.374 210.504 L799.374 214.069 L794.999 214.069 Q790.068 214.069 788.193 212.24 Q786.318 210.388 786.318 205.527 L786.318 191.453 L783.193 191.453 L783.193 188.143 L786.318 188.143 L786.318 180.782 L790.6 180.782 Z" fill="#000000" fill-rule="nonzero" fill-opacity="1" /></svg>
