<?xml version="1.0" encoding="utf-8"?>
<svg xmlns="http://www.w3.org/2000/svg" xmlns:xlink="http://www.w3.org/1999/xlink" width="600" height="400" viewBox="0 0 2400 1600">
<defs>
  <clipPath id="clip020">
    <rect x="0" y="0" width="2400" height="1600"/>
  </clipPath>
</defs>
<path clip-path="url(#clip020)" d="M0 1600 L2400 1600 L2400 8.88178e-14 L0 8.88178e-14  Z" fill="#ffffff" fill-rule="evenodd" fill-opacity="1"/>
<defs>
  <clipPath id="clip021">
    <rect x="480" y="0" width="1681" height="1600"/>
  </clipPath>
</defs>
<path clip-path="url(#clip020)" d="M249.843 1552.76 L2352.76 1552.76 L2352.76 47.2441 L249.843 47.2441  Z" fill="#ffffff" fill-rule="evenodd" fill-opacity="1"/>
<defs>
  <clipPath id="clip022">
    <rect x="249" y="47" width="2104" height="1507"/>
  </clipPath>
</defs>
<polyline clip-path="url(#clip022)" style="stroke:#000000; stroke-linecap:round; stroke-linejoin:round; stroke-width:2; stroke-opacity:0.1; fill:none" points="249.843,1483.35 2352.76,1483.35 "/>
<polyline clip-path="url(#clip022)" style="stroke:#000000; stroke-linecap:round; stroke-linejoin:round; stroke-width:2; stroke-opacity:0.1; fill:none" points="249.843,1215.37 2352.76,1215.37 "/>
<polyline clip-path="url(#clip022)" style="stroke:#000000; stroke-linecap:round; stroke-linejoin:round; stroke-width:2; stroke-opacity:0.1; fill:none" points="249.843,947.389 2352.76,947.389 "/>
<polyline clip-path="url(#clip022)" style="stroke:#000000; stroke-linecap:round; stroke-linejoin:round; stroke-width:2; stroke-opacity:0.1; fill:none" points="249.843,679.409 2352.76,679.409 "/>
<polyline clip-path="url(#clip022)" style="stroke:#000000; stroke-linecap:round; stroke-linejoin:round; stroke-width:2; stroke-opacity:0.1; fill:none" points="249.843,411.429 2352.76,411.429 "/>
<polyline clip-path="url(#clip022)" style="stroke:#000000; stroke-linecap:round; stroke-linejoin:round; stroke-width:2; stroke-opacity:0.1; fill:none" points="249.843,143.449 2352.76,143.449 "/>
<polyline clip-path="url(#clip022)" style="stroke:#000000; stroke-linecap:round; stroke-linejoin:round; stroke-width:2; stroke-opacity:0.1; fill:none" points="249.843,1483.35 2352.76,1483.35 "/>
<polyline clip-path="url(#clip022)" style="stroke:#000000; stroke-linecap:round; stroke-linejoin:round; stroke-width:2; stroke-opacity:0.1; fill:none" points="249.843,1215.37 2352.76,1215.37 "/>
<polyline clip-path="url(#clip022)" style="stroke:#000000; stroke-linecap:round; stroke-linejoin:round; stroke-width:2; stroke-opacity:0.1; fill:none" points="249.843,947.389 2352.76,947.389 "/>
<polyline clip-path="url(#clip022)" style="stroke:#000000; stroke-linecap:round; stroke-linejoin:round; stroke-width:2; stroke-opacity:0.1; fill:none" points="249.843,679.409 2352.76,679.409 "/>
<polyline clip-path="url(#clip022)" style="stroke:#000000; stroke-linecap:round; stroke-linejoin:round; stroke-width:2; stroke-opacity:0.1; fill:none" points="249.843,411.429 2352.76,411.429 "/>
<polyline clip-path="url(#clip022)" style="stroke:#000000; stroke-linecap:round; stroke-linejoin:round; stroke-width:2; stroke-opacity:0.1; fill:none" points="249.843,143.449 2352.76,143.449 "/>
<polyline clip-path="url(#clip020)" style="stroke:#000000; stroke-linecap:round; stroke-linejoin:round; stroke-width:4; stroke-opacity:1; fill:none" points="249.843,1552.76 2352.76,1552.76 "/>
<polyline clip-path="url(#clip020)" style="stroke:#000000; stroke-linecap:round; stroke-linejoin:round; stroke-width:4; stroke-opacity:1; fill:none" points="249.843,47.2441 2352.76,47.2441 "/>
<polyline clip-path="url(#clip020)" style="stroke:#000000; stroke-linecap:round; stroke-linejoin:round; stroke-width:4; stroke-opacity:1; fill:none" points="249.843,1552.76 249.843,47.2441 "/>
<polyline clip-path="url(#clip020)" style="stroke:#000000; stroke-linecap:round; stroke-linejoin:round; stroke-width:4; stroke-opacity:1; fill:none" points="2352.76,1552.76 2352.76,47.2441 "/>
<polyline clip-path="url(#clip020)" style="stroke:#000000; stroke-linecap:round; stroke-linejoin:round; stroke-width:4; stroke-opacity:1; fill:none" points="249.843,1483.35 268.741,1483.35 "/>
<polyline clip-path="url(#clip020)" style="stroke:#000000; stroke-linecap:round; stroke-linejoin:round; stroke-width:4; stroke-opacity:1; fill:none" points="249.843,1215.37 268.741,1215.37 "/>
<polyline clip-path="url(#clip020)" style="stroke:#000000; stroke-linecap:round; stroke-linejoin:round; stroke-width:4; stroke-opacity:1; fill:none" points="249.843,947.389 268.741,947.389 "/>
<polyline clip-path="url(#clip020)" style="stroke:#000000; stroke-linecap:round; stroke-linejoin:round; stroke-width:4; stroke-opacity:1; fill:none" points="249.843,679.409 268.741,679.409 "/>
<polyline clip-path="url(#clip020)" style="stroke:#000000; stroke-linecap:round; stroke-linejoin:round; stroke-width:4; stroke-opacity:1; fill:none" points="249.843,411.429 268.741,411.429 "/>
<polyline clip-path="url(#clip020)" style="stroke:#000000; stroke-linecap:round; stroke-linejoin:round; stroke-width:4; stroke-opacity:1; fill:none" points="249.843,143.449 268.741,143.449 "/>
<polyline clip-path="url(#clip020)" style="stroke:#000000; stroke-linecap:round; stroke-linejoin:round; stroke-width:4; stroke-opacity:1; fill:none" points="2352.76,1483.35 2333.86,1483.35 "/>
<polyline clip-path="url(#clip020)" style="stroke:#000000; stroke-linecap:round; stroke-linejoin:round; stroke-width:4; stroke-opacity:1; fill:none" points="2352.76,1215.37 2333.86,1215.37 "/>
<polyline clip-path="url(#clip020)" style="stroke:#000000; stroke-linecap:round; stroke-linejoin:round; stroke-width:4; stroke-opacity:1; fill:none" points="2352.76,947.389 2333.86,947.389 "/>
<polyline clip-path="url(#clip020)" style="stroke:#000000; stroke-linecap:round; stroke-linejoin:round; stroke-width:4; stroke-opacity:1; fill:none" points="2352.76,679.409 2333.86,679.409 "/>
<polyline clip-path="url(#clip020)" style="stroke:#000000; stroke-linecap:round; stroke-linejoin:round; stroke-width:4; stroke-opacity:1; fill:none" points="2352.76,411.429 2333.86,411.429 "/>
<polyline clip-path="url(#clip020)" style="stroke:#000000; stroke-linecap:round; stroke-linejoin:round; stroke-width:4; stroke-opacity:1; fill:none" points="2352.76,143.449 2333.86,143.449 "/>
<path clip-path="url(#clip020)" d="M128.311 1481.49 Q125.163 1481.49 123.311 1483.64 Q121.482 1485.79 121.482 1489.54 Q121.482 1493.27 123.311 1495.44 Q125.163 1497.6 128.311 1497.6 Q131.459 1497.6 133.288 1495.44 Q135.14 1493.27 135.14 1489.54 Q135.14 1485.79 133.288 1483.64 Q131.459 1481.49 128.311 1481.49 M137.593 1466.83 L137.593 1471.09 Q135.834 1470.26 134.029 1469.82 Q132.246 1469.38 130.487 1469.38 Q125.857 1469.38 123.404 1472.5 Q120.973 1475.63 120.626 1481.95 Q121.992 1479.93 124.052 1478.87 Q126.112 1477.78 128.589 1477.78 Q133.797 1477.78 136.806 1480.95 Q139.839 1484.1 139.839 1489.54 Q139.839 1494.87 136.691 1498.08 Q133.542 1501.3 128.311 1501.3 Q122.316 1501.3 119.144 1496.72 Q115.973 1492.11 115.973 1483.38 Q115.973 1475.19 119.862 1470.33 Q123.751 1465.44 130.302 1465.44 Q132.061 1465.44 133.843 1465.79 Q135.649 1466.14 137.593 1466.83 Z" fill="#000000" fill-rule="nonzero" fill-opacity="1" /><path clip-path="url(#clip020)" d="M158.473 1481.49 Q155.325 1481.49 153.473 1483.64 Q151.644 1485.79 151.644 1489.54 Q151.644 1493.27 153.473 1495.44 Q155.325 1497.6 158.473 1497.6 Q161.621 1497.6 163.45 1495.44 Q165.302 1493.27 165.302 1489.54 Q165.302 1485.79 163.45 1483.64 Q161.621 1481.49 158.473 1481.49 M167.755 1466.83 L167.755 1471.09 Q165.996 1470.26 164.19 1469.82 Q162.408 1469.38 160.649 1469.38 Q156.019 1469.38 153.566 1472.5 Q151.135 1475.63 150.788 1481.95 Q152.153 1479.93 154.214 1478.87 Q156.274 1477.78 158.751 1477.78 Q163.959 1477.78 166.968 1480.95 Q170.001 1484.1 170.001 1489.54 Q170.001 1494.87 166.852 1498.08 Q163.704 1501.3 158.473 1501.3 Q152.478 1501.3 149.306 1496.72 Q146.135 1492.11 146.135 1483.38 Q146.135 1475.19 150.024 1470.33 Q153.913 1465.44 160.464 1465.44 Q162.223 1465.44 164.005 1465.79 Q165.811 1466.14 167.755 1466.83 Z" fill="#000000" fill-rule="nonzero" fill-opacity="1" /><path clip-path="url(#clip020)" d="M178.056 1494.75 L182.94 1494.75 L182.94 1500.63 L178.056 1500.63 L178.056 1494.75 Z" fill="#000000" fill-rule="nonzero" fill-opacity="1" /><path clip-path="url(#clip020)" d="M193.936 1496.69 L201.575 1496.69 L201.575 1470.33 L193.264 1471.99 L193.264 1467.74 L201.528 1466.07 L206.204 1466.07 L206.204 1496.69 L213.843 1496.69 L213.843 1500.63 L193.936 1500.63 L193.936 1496.69 Z" fill="#000000" fill-rule="nonzero" fill-opacity="1" /><path clip-path="url(#clip020)" d="M128.681 1213.51 Q125.533 1213.51 123.681 1215.66 Q121.853 1217.81 121.853 1221.56 Q121.853 1225.29 123.681 1227.46 Q125.533 1229.62 128.681 1229.62 Q131.83 1229.62 133.658 1227.46 Q135.51 1225.29 135.51 1221.56 Q135.51 1217.81 133.658 1215.66 Q131.83 1213.51 128.681 1213.51 M137.964 1198.85 L137.964 1203.11 Q136.204 1202.28 134.399 1201.84 Q132.617 1201.4 130.857 1201.4 Q126.228 1201.4 123.774 1204.52 Q121.343 1207.65 120.996 1213.97 Q122.362 1211.95 124.422 1210.89 Q126.482 1209.8 128.959 1209.8 Q134.167 1209.8 137.177 1212.97 Q140.209 1216.12 140.209 1221.56 Q140.209 1226.89 137.061 1230.1 Q133.913 1233.32 128.681 1233.32 Q122.686 1233.32 119.515 1228.74 Q116.343 1224.13 116.343 1215.4 Q116.343 1207.21 120.232 1202.35 Q124.121 1197.46 130.672 1197.46 Q132.431 1197.46 134.214 1197.81 Q136.019 1198.16 137.964 1198.85 Z" fill="#000000" fill-rule="nonzero" fill-opacity="1" /><path clip-path="url(#clip020)" d="M158.843 1213.51 Q155.695 1213.51 153.843 1215.66 Q152.015 1217.81 152.015 1221.56 Q152.015 1225.29 153.843 1227.46 Q155.695 1229.62 158.843 1229.62 Q161.991 1229.62 163.82 1227.46 Q165.672 1225.29 165.672 1221.56 Q165.672 1217.81 163.82 1215.66 Q161.991 1213.51 158.843 1213.51 M168.126 1198.85 L168.126 1203.11 Q166.366 1202.28 164.561 1201.84 Q162.778 1201.4 161.019 1201.4 Q156.39 1201.4 153.936 1204.52 Q151.505 1207.65 151.158 1213.97 Q152.524 1211.95 154.584 1210.89 Q156.644 1209.8 159.121 1209.8 Q164.329 1209.8 167.339 1212.97 Q170.371 1216.12 170.371 1221.56 Q170.371 1226.89 167.223 1230.1 Q164.075 1233.32 158.843 1233.32 Q152.848 1233.32 149.677 1228.74 Q146.505 1224.13 146.505 1215.4 Q146.505 1207.21 150.394 1202.35 Q154.283 1197.46 160.834 1197.46 Q162.593 1197.46 164.376 1197.81 Q166.181 1198.16 168.126 1198.85 Z" fill="#000000" fill-rule="nonzero" fill-opacity="1" /><path clip-path="url(#clip020)" d="M178.426 1226.77 L183.311 1226.77 L183.311 1232.65 L178.426 1232.65 L178.426 1226.77 Z" fill="#000000" fill-rule="nonzero" fill-opacity="1" /><path clip-path="url(#clip020)" d="M197.524 1228.71 L213.843 1228.71 L213.843 1232.65 L191.899 1232.65 L191.899 1228.71 Q194.561 1225.96 199.144 1221.33 Q203.75 1216.68 204.931 1215.33 Q207.176 1212.81 208.056 1211.08 Q208.959 1209.32 208.959 1207.63 Q208.959 1204.87 207.014 1203.14 Q205.093 1201.4 201.991 1201.4 Q199.792 1201.4 197.338 1202.16 Q194.908 1202.93 192.13 1204.48 L192.13 1199.76 Q194.954 1198.62 197.408 1198.04 Q199.862 1197.46 201.899 1197.46 Q207.269 1197.46 210.463 1200.15 Q213.658 1202.83 213.658 1207.33 Q213.658 1209.45 212.848 1211.38 Q212.061 1213.27 209.954 1215.87 Q209.375 1216.54 206.274 1219.76 Q203.172 1222.95 197.524 1228.71 Z" fill="#000000" fill-rule="nonzero" fill-opacity="1" /><path clip-path="url(#clip020)" d="M127.732 945.526 Q124.584 945.526 122.732 947.678 Q120.904 949.831 120.904 953.581 Q120.904 957.308 122.732 959.484 Q124.584 961.637 127.732 961.637 Q130.88 961.637 132.709 959.484 Q134.561 957.308 134.561 953.581 Q134.561 949.831 132.709 947.678 Q130.88 945.526 127.732 945.526 M137.015 930.873 L137.015 935.132 Q135.255 934.299 133.45 933.859 Q131.667 933.419 129.908 933.419 Q125.279 933.419 122.825 936.544 Q120.394 939.669 120.047 945.989 Q121.413 943.975 123.473 942.91 Q125.533 941.822 128.01 941.822 Q133.218 941.822 136.228 944.993 Q139.26 948.141 139.26 953.581 Q139.26 958.905 136.112 962.123 Q132.964 965.34 127.732 965.34 Q121.737 965.34 118.566 960.757 Q115.394 956.151 115.394 947.424 Q115.394 939.229 119.283 934.368 Q123.172 929.484 129.723 929.484 Q131.482 929.484 133.265 929.831 Q135.07 930.178 137.015 930.873 Z" fill="#000000" fill-rule="nonzero" fill-opacity="1" /><path clip-path="url(#clip020)" d="M157.894 945.526 Q154.746 945.526 152.894 947.678 Q151.066 949.831 151.066 953.581 Q151.066 957.308 152.894 959.484 Q154.746 961.637 157.894 961.637 Q161.042 961.637 162.871 959.484 Q164.723 957.308 164.723 953.581 Q164.723 949.831 162.871 947.678 Q161.042 945.526 157.894 945.526 M167.177 930.873 L167.177 935.132 Q165.417 934.299 163.612 933.859 Q161.829 933.419 160.07 933.419 Q155.44 933.419 152.987 936.544 Q150.556 939.669 150.209 945.989 Q151.575 943.975 153.635 942.91 Q155.695 941.822 158.172 941.822 Q163.38 941.822 166.39 944.993 Q169.422 948.141 169.422 953.581 Q169.422 958.905 166.274 962.123 Q163.126 965.34 157.894 965.34 Q151.899 965.34 148.728 960.757 Q145.556 956.151 145.556 947.424 Q145.556 939.229 149.445 934.368 Q153.334 929.484 159.885 929.484 Q161.644 929.484 163.427 929.831 Q165.232 930.178 167.177 930.873 Z" fill="#000000" fill-rule="nonzero" fill-opacity="1" /><path clip-path="url(#clip020)" d="M177.477 958.789 L182.362 958.789 L182.362 964.669 L177.477 964.669 L177.477 958.789 Z" fill="#000000" fill-rule="nonzero" fill-opacity="1" /><path clip-path="url(#clip020)" d="M206.713 946.035 Q210.07 946.752 211.945 949.021 Q213.843 951.289 213.843 954.623 Q213.843 959.738 210.324 962.539 Q206.806 965.34 200.325 965.34 Q198.149 965.34 195.834 964.9 Q193.542 964.484 191.088 963.627 L191.088 959.113 Q193.033 960.248 195.348 960.826 Q197.662 961.405 200.186 961.405 Q204.584 961.405 206.875 959.669 Q209.19 957.933 209.19 954.623 Q209.19 951.567 207.037 949.854 Q204.908 948.118 201.088 948.118 L197.061 948.118 L197.061 944.276 L201.274 944.276 Q204.723 944.276 206.551 942.91 Q208.38 941.521 208.38 938.928 Q208.38 936.266 206.482 934.854 Q204.607 933.419 201.088 933.419 Q199.167 933.419 196.968 933.836 Q194.769 934.253 192.13 935.132 L192.13 930.965 Q194.792 930.225 197.107 929.854 Q199.445 929.484 201.505 929.484 Q206.829 929.484 209.931 931.915 Q213.033 934.322 213.033 938.442 Q213.033 941.313 211.389 943.303 Q209.746 945.271 206.713 946.035 Z" fill="#000000" fill-rule="nonzero" fill-opacity="1" /><path clip-path="url(#clip020)" d="M126.598 677.546 Q123.45 677.546 121.598 679.698 Q119.769 681.851 119.769 685.601 Q119.769 689.328 121.598 691.504 Q123.45 693.657 126.598 693.657 Q129.746 693.657 131.575 691.504 Q133.427 689.328 133.427 685.601 Q133.427 681.851 131.575 679.698 Q129.746 677.546 126.598 677.546 M135.88 662.893 L135.88 667.152 Q134.121 666.319 132.316 665.879 Q130.533 665.439 128.774 665.439 Q124.144 665.439 121.691 668.564 Q119.26 671.689 118.913 678.009 Q120.279 675.995 122.339 674.93 Q124.399 673.842 126.876 673.842 Q132.084 673.842 135.093 677.013 Q138.126 680.161 138.126 685.601 Q138.126 690.925 134.978 694.143 Q131.83 697.36 126.598 697.36 Q120.603 697.36 117.431 692.777 Q114.26 688.171 114.26 679.444 Q114.26 671.249 118.149 666.388 Q122.038 661.504 128.589 661.504 Q130.348 661.504 132.13 661.851 Q133.936 662.198 135.88 662.893 Z" fill="#000000" fill-rule="nonzero" fill-opacity="1" /><path clip-path="url(#clip020)" d="M156.76 677.546 Q153.612 677.546 151.76 679.698 Q149.931 681.851 149.931 685.601 Q149.931 689.328 151.76 691.504 Q153.612 693.657 156.76 693.657 Q159.908 693.657 161.737 691.504 Q163.589 689.328 163.589 685.601 Q163.589 681.851 161.737 679.698 Q159.908 677.546 156.76 677.546 M166.042 662.893 L166.042 667.152 Q164.283 666.319 162.477 665.879 Q160.695 665.439 158.936 665.439 Q154.306 665.439 151.853 668.564 Q149.422 671.689 149.075 678.009 Q150.441 675.995 152.501 674.93 Q154.561 673.842 157.038 673.842 Q162.246 673.842 165.255 677.013 Q168.288 680.161 168.288 685.601 Q168.288 690.925 165.14 694.143 Q161.991 697.36 156.76 697.36 Q150.765 697.36 147.593 692.777 Q144.422 688.171 144.422 679.444 Q144.422 671.249 148.311 666.388 Q152.2 661.504 158.751 661.504 Q160.51 661.504 162.292 661.851 Q164.098 662.198 166.042 662.893 Z" fill="#000000" fill-rule="nonzero" fill-opacity="1" /><path clip-path="url(#clip020)" d="M176.343 690.809 L181.227 690.809 L181.227 696.689 L176.343 696.689 L176.343 690.809 Z" fill="#000000" fill-rule="nonzero" fill-opacity="1" /><path clip-path="url(#clip020)" d="M204.26 666.203 L192.454 684.652 L204.26 684.652 L204.26 666.203 M203.033 662.129 L208.912 662.129 L208.912 684.652 L213.843 684.652 L213.843 688.541 L208.912 688.541 L208.912 696.689 L204.26 696.689 L204.26 688.541 L188.658 688.541 L188.658 684.027 L203.033 662.129 Z" fill="#000000" fill-rule="nonzero" fill-opacity="1" /><path clip-path="url(#clip020)" d="M128.08 409.566 Q124.931 409.566 123.08 411.718 Q121.251 413.871 121.251 417.621 Q121.251 421.348 123.08 423.524 Q124.931 425.677 128.08 425.677 Q131.228 425.677 133.056 423.524 Q134.908 421.348 134.908 417.621 Q134.908 413.871 133.056 411.718 Q131.228 409.566 128.08 409.566 M137.362 394.913 L137.362 399.172 Q135.603 398.339 133.797 397.899 Q132.015 397.459 130.255 397.459 Q125.626 397.459 123.172 400.584 Q120.742 403.709 120.394 410.029 Q121.76 408.015 123.82 406.95 Q125.88 405.862 128.357 405.862 Q133.566 405.862 136.575 409.033 Q139.607 412.181 139.607 417.621 Q139.607 422.945 136.459 426.163 Q133.311 429.38 128.08 429.38 Q122.084 429.38 118.913 424.797 Q115.742 420.19 115.742 411.464 Q115.742 403.269 119.63 398.408 Q123.519 393.524 130.07 393.524 Q131.83 393.524 133.612 393.871 Q135.417 394.218 137.362 394.913 Z" fill="#000000" fill-rule="nonzero" fill-opacity="1" /><path clip-path="url(#clip020)" d="M158.241 409.566 Q155.093 409.566 153.241 411.718 Q151.413 413.871 151.413 417.621 Q151.413 421.348 153.241 423.524 Q155.093 425.677 158.241 425.677 Q161.39 425.677 163.218 423.524 Q165.07 421.348 165.07 417.621 Q165.07 413.871 163.218 411.718 Q161.39 409.566 158.241 409.566 M167.524 394.913 L167.524 399.172 Q165.765 398.339 163.959 397.899 Q162.177 397.459 160.417 397.459 Q155.788 397.459 153.334 400.584 Q150.903 403.709 150.556 410.029 Q151.922 408.015 153.982 406.95 Q156.042 405.862 158.519 405.862 Q163.727 405.862 166.737 409.033 Q169.769 412.181 169.769 417.621 Q169.769 422.945 166.621 426.163 Q163.473 429.38 158.241 429.38 Q152.246 429.38 149.075 424.797 Q145.904 420.19 145.904 411.464 Q145.904 403.269 149.792 398.408 Q153.681 393.524 160.232 393.524 Q161.991 393.524 163.774 393.871 Q165.579 394.218 167.524 394.913 Z" fill="#000000" fill-rule="nonzero" fill-opacity="1" /><path clip-path="url(#clip020)" d="M177.825 422.829 L182.709 422.829 L182.709 428.709 L177.825 428.709 L177.825 422.829 Z" fill="#000000" fill-rule="nonzero" fill-opacity="1" /><path clip-path="url(#clip020)" d="M192.94 394.149 L211.297 394.149 L211.297 398.084 L197.223 398.084 L197.223 406.556 Q198.241 406.209 199.26 406.047 Q200.278 405.862 201.297 405.862 Q207.084 405.862 210.463 409.033 Q213.843 412.204 213.843 417.621 Q213.843 423.2 210.371 426.302 Q206.899 429.38 200.579 429.38 Q198.403 429.38 196.135 429.01 Q193.889 428.64 191.482 427.899 L191.482 423.2 Q193.565 424.334 195.787 424.89 Q198.01 425.445 200.487 425.445 Q204.491 425.445 206.829 423.339 Q209.167 421.232 209.167 417.621 Q209.167 414.01 206.829 411.903 Q204.491 409.797 200.487 409.797 Q198.612 409.797 196.737 410.214 Q194.885 410.63 192.94 411.51 L192.94 394.149 Z" fill="#000000" fill-rule="nonzero" fill-opacity="1" /><path clip-path="url(#clip020)" d="M126.922 141.586 Q123.774 141.586 121.922 143.738 Q120.093 145.891 120.093 149.641 Q120.093 153.368 121.922 155.544 Q123.774 157.697 126.922 157.697 Q130.07 157.697 131.899 155.544 Q133.751 153.368 133.751 149.641 Q133.751 145.891 131.899 143.738 Q130.07 141.586 126.922 141.586 M136.204 126.933 L136.204 131.192 Q134.445 130.359 132.64 129.919 Q130.857 129.479 129.098 129.479 Q124.468 129.479 122.015 132.604 Q119.584 135.729 119.237 142.048 Q120.603 140.035 122.663 138.97 Q124.723 137.882 127.2 137.882 Q132.408 137.882 135.417 141.053 Q138.45 144.201 138.45 149.641 Q138.45 154.965 135.302 158.183 Q132.154 161.4 126.922 161.4 Q120.927 161.4 117.756 156.817 Q114.584 152.21 114.584 143.484 Q114.584 135.289 118.473 130.428 Q122.362 125.544 128.913 125.544 Q130.672 125.544 132.455 125.891 Q134.26 126.238 136.204 126.933 Z" fill="#000000" fill-rule="nonzero" fill-opacity="1" /><path clip-path="url(#clip020)" d="M157.084 141.586 Q153.936 141.586 152.084 143.738 Q150.255 145.891 150.255 149.641 Q150.255 153.368 152.084 155.544 Q153.936 157.697 157.084 157.697 Q160.232 157.697 162.061 155.544 Q163.913 153.368 163.913 149.641 Q163.913 145.891 162.061 143.738 Q160.232 141.586 157.084 141.586 M166.366 126.933 L166.366 131.192 Q164.607 130.359 162.802 129.919 Q161.019 129.479 159.26 129.479 Q154.63 129.479 152.177 132.604 Q149.746 135.729 149.399 142.048 Q150.765 140.035 152.825 138.97 Q154.885 137.882 157.362 137.882 Q162.57 137.882 165.579 141.053 Q168.612 144.201 168.612 149.641 Q168.612 154.965 165.464 158.183 Q162.315 161.4 157.084 161.4 Q151.089 161.4 147.917 156.817 Q144.746 152.21 144.746 143.484 Q144.746 135.289 148.635 130.428 Q152.524 125.544 159.075 125.544 Q160.834 125.544 162.616 125.891 Q164.422 126.238 166.366 126.933 Z" fill="#000000" fill-rule="nonzero" fill-opacity="1" /><path clip-path="url(#clip020)" d="M176.667 154.849 L181.551 154.849 L181.551 160.729 L176.667 160.729 L176.667 154.849 Z" fill="#000000" fill-rule="nonzero" fill-opacity="1" /><path clip-path="url(#clip020)" d="M202.315 141.586 Q199.167 141.586 197.315 143.738 Q195.487 145.891 195.487 149.641 Q195.487 153.368 197.315 155.544 Q199.167 157.697 202.315 157.697 Q205.463 157.697 207.292 155.544 Q209.144 153.368 209.144 149.641 Q209.144 145.891 207.292 143.738 Q205.463 141.586 202.315 141.586 M211.598 126.933 L211.598 131.192 Q209.838 130.359 208.033 129.919 Q206.25 129.479 204.491 129.479 Q199.862 129.479 197.408 132.604 Q194.977 135.729 194.63 142.048 Q195.996 140.035 198.056 138.97 Q200.116 137.882 202.593 137.882 Q207.801 137.882 210.811 141.053 Q213.843 144.201 213.843 149.641 Q213.843 154.965 210.695 158.183 Q207.547 161.4 202.315 161.4 Q196.32 161.4 193.149 156.817 Q189.977 152.21 189.977 143.484 Q189.977 135.289 193.866 130.428 Q197.755 125.544 204.306 125.544 Q206.065 125.544 207.848 125.891 Q209.653 126.238 211.598 126.933 Z" fill="#000000" fill-rule="nonzero" fill-opacity="1" /><path clip-path="url(#clip020)" d="M22.818 922.094 L46.4666 930.815 L46.4666 913.341 L22.818 922.094 M16.4842 925.723 L16.4842 918.434 L64.0042 900.324 L64.0042 907.008 L51.8138 911.336 L51.8138 932.757 L64.0042 937.085 L64.0042 943.865 L16.4842 925.723 Z" fill="#000000" fill-rule="nonzero" fill-opacity="1" /><path clip-path="url(#clip020)" d="M45.7664 870.182 Q39.4007 870.182 35.8996 872.824 Q32.3984 875.434 32.3984 880.176 Q32.3984 884.887 35.8996 887.528 Q39.4007 890.138 45.7664 890.138 Q52.1003 890.138 55.6014 887.528 Q59.1026 884.887 59.1026 880.176 Q59.1026 875.434 55.6014 872.824 Q52.1003 870.182 45.7664 870.182 M59.58 864.325 Q68.683 864.325 73.1071 868.368 Q77.5631 872.41 77.5631 880.749 Q77.5631 883.836 77.0857 886.574 Q76.6401 889.311 75.6852 891.889 L69.9879 891.889 Q71.3884 889.311 72.0568 886.796 Q72.7252 884.282 72.7252 881.672 Q72.7252 875.911 69.7015 873.046 Q66.7096 870.182 60.6303 870.182 L57.7339 870.182 Q60.885 871.996 62.4446 874.829 Q64.0042 877.662 64.0042 881.608 Q64.0042 888.165 59.0071 892.175 Q54.01 896.186 45.7664 896.186 Q37.491 896.186 32.4939 892.175 Q27.4968 888.165 27.4968 881.608 Q27.4968 877.662 29.0564 874.829 Q30.616 871.996 33.7671 870.182 L28.3562 870.182 L28.3562 864.325 L59.58 864.325 Z" fill="#000000" fill-rule="nonzero" fill-opacity="1" /><path clip-path="url(#clip020)" d="M44.7161 821.771 L47.5806 821.771 L47.5806 848.698 Q53.6281 848.316 56.8109 845.069 Q59.9619 841.791 59.9619 835.966 Q59.9619 832.592 59.1344 829.441 Q58.3069 826.259 56.6518 823.139 L62.1899 823.139 Q63.5267 826.29 64.227 829.601 Q64.9272 832.911 64.9272 836.316 Q64.9272 844.846 59.9619 849.843 Q54.9967 854.809 46.5303 854.809 Q37.7774 854.809 32.6531 850.098 Q27.4968 845.356 27.4968 837.335 Q27.4968 830.142 32.1438 825.972 Q36.7589 821.771 44.7161 821.771 M42.9973 827.627 Q38.1912 827.691 35.3266 830.333 Q32.4621 832.943 32.4621 837.271 Q32.4621 842.173 35.2312 845.133 Q38.0002 848.061 43.0292 848.507 L42.9973 827.627 Z" fill="#000000" fill-rule="nonzero" fill-opacity="1" /><path clip-path="url(#clip020)" d="M14.5426 777.37 Q21.8632 781.635 29.0246 783.704 Q36.186 785.773 43.5384 785.773 Q50.8908 785.773 58.1159 783.704 Q65.3091 781.603 72.5979 777.37 L72.5979 782.462 Q65.1182 787.237 57.8931 789.624 Q50.668 791.979 43.5384 791.979 Q36.4406 791.979 29.2474 789.624 Q22.0542 787.269 14.5426 782.462 L14.5426 777.37 Z" fill="#000000" fill-rule="nonzero" fill-opacity="1" /><path clip-path="url(#clip020)" d="M16.4842 765.752 L16.4842 756.172 L48.8219 744.045 L16.4842 731.855 L16.4842 722.275 L64.0042 722.275 L64.0042 728.545 L22.277 728.545 L54.8694 740.799 L54.8694 747.26 L22.277 759.514 L64.0042 759.514 L64.0042 765.752 L16.4842 765.752 Z" fill="#000000" fill-rule="nonzero" fill-opacity="1" /><path clip-path="url(#clip020)" d="M46.0847 693.565 Q46.0847 700.663 47.7079 703.4 Q49.3312 706.138 53.2461 706.138 Q56.3653 706.138 58.2114 704.101 Q60.0256 702.032 60.0256 698.499 Q60.0256 693.629 56.5881 690.701 Q53.1188 687.741 47.3897 687.741 L46.0847 687.741 L46.0847 693.565 M43.6657 681.884 L64.0042 681.884 L64.0042 687.741 L58.5933 687.741 Q61.8398 689.746 63.3994 692.738 Q64.9272 695.73 64.9272 700.058 Q64.9272 705.533 61.8716 708.779 Q58.7843 711.994 53.6281 711.994 Q47.6125 711.994 44.5569 707.984 Q41.5014 703.941 41.5014 695.953 L41.5014 687.741 L40.9285 687.741 Q36.8862 687.741 34.6901 690.414 Q32.4621 693.056 32.4621 697.862 Q32.4621 700.918 33.1941 703.814 Q33.9262 706.711 35.3903 709.384 L29.9795 709.384 Q28.7381 706.169 28.1334 703.146 Q27.4968 700.122 27.4968 697.257 Q27.4968 689.523 31.5072 685.704 Q35.5176 681.884 43.6657 681.884 Z" fill="#000000" fill-rule="nonzero" fill-opacity="1" /><path clip-path="url(#clip020)" d="M14.5426 670.744 L14.5426 665.652 Q22.0542 660.877 29.2474 658.522 Q36.4406 656.135 43.5384 656.135 Q50.668 656.135 57.8931 658.522 Q65.1182 660.877 72.5979 665.652 L72.5979 670.744 Q65.3091 666.511 58.1159 664.442 Q50.8908 662.342 43.5384 662.342 Q36.186 662.342 29.0246 664.442 Q21.8632 666.511 14.5426 670.744 Z" fill="#000000" fill-rule="nonzero" fill-opacity="1" /><polyline clip-path="url(#clip022)" style="stroke:#009af9; stroke-linecap:round; stroke-linejoin:round; stroke-width:4; stroke-opacity:1; fill:none" points="309.359,1510.15 309.359,545.419 "/>
<polyline clip-path="url(#clip022)" style="stroke:#009af9; stroke-linecap:round; stroke-linejoin:round; stroke-width:4; stroke-opacity:1; fill:none" points="640.006,1105.5 640.006,821.438 "/>
<polyline clip-path="url(#clip022)" style="stroke:#009af9; stroke-linecap:round; stroke-linejoin:round; stroke-width:4; stroke-opacity:1; fill:none" points="970.653,1242.17 970.653,223.843 "/>
<polyline clip-path="url(#clip022)" style="stroke:#009af9; stroke-linecap:round; stroke-linejoin:round; stroke-width:4; stroke-opacity:1; fill:none" points="1301.3,1242.17 1301.3,170.247 "/>
<polyline clip-path="url(#clip022)" style="stroke:#009af9; stroke-linecap:round; stroke-linejoin:round; stroke-width:4; stroke-opacity:1; fill:none" points="1631.95,1215.37 1631.95,89.8529 "/>
<polyline clip-path="url(#clip022)" style="stroke:#009af9; stroke-linecap:round; stroke-linejoin:round; stroke-width:4; stroke-opacity:1; fill:none" points="1962.59,1027.78 1962.59,116.651 "/>
<polyline clip-path="url(#clip022)" style="stroke:#009af9; stroke-linecap:round; stroke-linejoin:round; stroke-width:4; stroke-opacity:1; fill:none" points="2293.24,700.847 2293.24,293.518 "/>
<line clip-path="url(#clip022)" x1="325.359" y1="1510.15" x2="293.359" y2="1510.15" style="stroke:#009af9; stroke-width:4; stroke-opacity:1"/>
<line clip-path="url(#clip022)" x1="325.359" y1="545.419" x2="293.359" y2="545.419" style="stroke:#009af9; stroke-width:4; stroke-opacity:1"/>
<line clip-path="url(#clip022)" x1="656.006" y1="1105.5" x2="624.006" y2="1105.5" style="stroke:#009af9; stroke-width:4; stroke-opacity:1"/>
<line clip-path="url(#clip022)" x1="656.006" y1="821.438" x2="624.006" y2="821.438" style="stroke:#009af9; stroke-width:4; stroke-opacity:1"/>
<line clip-path="url(#clip022)" x1="986.653" y1="1242.17" x2="954.653" y2="1242.17" style="stroke:#009af9; stroke-width:4; stroke-opacity:1"/>
<line clip-path="url(#clip022)" x1="986.653" y1="223.843" x2="954.653" y2="223.843" style="stroke:#009af9; stroke-width:4; stroke-opacity:1"/>
<line clip-path="url(#clip022)" x1="1317.3" y1="1242.17" x2="1285.3" y2="1242.17" style="stroke:#009af9; stroke-width:4; stroke-opacity:1"/>
<line clip-path="url(#clip022)" x1="1317.3" y1="170.247" x2="1285.3" y2="170.247" style="stroke:#009af9; stroke-width:4; stroke-opacity:1"/>
<line clip-path="url(#clip022)" x1="1647.95" y1="1215.37" x2="1615.95" y2="1215.37" style="stroke:#009af9; stroke-width:4; stroke-opacity:1"/>
<line clip-path="url(#clip022)" x1="1647.95" y1="89.8529" x2="1615.95" y2="89.8529" style="stroke:#009af9; stroke-width:4; stroke-opacity:1"/>
<line clip-path="url(#clip022)" x1="1978.59" y1="1027.78" x2="1946.59" y2="1027.78" style="stroke:#009af9; stroke-width:4; stroke-opacity:1"/>
<line clip-path="url(#clip022)" x1="1978.59" y1="116.651" x2="1946.59" y2="116.651" style="stroke:#009af9; stroke-width:4; stroke-opacity:1"/>
<line clip-path="url(#clip022)" x1="2309.24" y1="700.847" x2="2277.24" y2="700.847" style="stroke:#009af9; stroke-width:4; stroke-opacity:1"/>
<line clip-path="url(#clip022)" x1="2309.24" y1="293.518" x2="2277.24" y2="293.518" style="stroke:#009af9; stroke-width:4; stroke-opacity:1"/>
<circle clip-path="url(#clip022)" cx="309.359" cy="1027.78" r="14.4" fill="#009af9" fill-rule="evenodd" fill-opacity="1" stroke="none"/>
<circle clip-path="url(#clip022)" cx="640.006" cy="963.468" r="14.4" fill="#009af9" fill-rule="evenodd" fill-opacity="1" stroke="none"/>
<circle clip-path="url(#clip022)" cx="970.653" cy="733.005" r="14.4" fill="#009af9" fill-rule="evenodd" fill-opacity="1" stroke="none"/>
<circle clip-path="url(#clip022)" cx="1301.3" cy="706.207" r="14.4" fill="#009af9" fill-rule="evenodd" fill-opacity="1" stroke="none"/>
<circle clip-path="url(#clip022)" cx="1631.95" cy="652.611" r="14.4" fill="#009af9" fill-rule="evenodd" fill-opacity="1" stroke="none"/>
<circle clip-path="url(#clip022)" cx="1962.59" cy="572.217" r="14.4" fill="#009af9" fill-rule="evenodd" fill-opacity="1" stroke="none"/>
<circle clip-path="url(#clip022)" cx="2293.24" cy="497.183" r="14.4" fill="#009af9" fill-rule="evenodd" fill-opacity="1" stroke="none"/>
<path clip-path="url(#clip022)" d="M309.359 1235.54 L640.006 1235.54 L970.653 1235.54 L1301.3 1235.54 L1631.95 1235.54 L1962.59 1235.54 L2293.24 1235.54 L2293.24 836.463 L1962.59 836.463 L1631.95 836.463 L1301.3 836.463 L970.653 836.463 L640.006 836.463 L309.359 836.463  Z" fill="#e26f46" fill-rule="evenodd" fill-opacity="0.6"/>
<polyline clip-path="url(#clip022)" style="stroke:#e26f46; stroke-linecap:round; stroke-linejoin:round; stroke-width:4; stroke-opacity:0; fill:none" points="309.359,1235.54 640.006,1235.54 970.653,1235.54 1301.3,1235.54 1631.95,1235.54 1962.59,1235.54 2293.24,1235.54 "/>
<polyline clip-path="url(#clip022)" style="stroke:#000000; stroke-linecap:round; stroke-linejoin:round; stroke-width:4; stroke-opacity:1; fill:none" stroke-dasharray="2, 4" points="309.359,1008.77 640.006,1008.77 970.653,1008.77 1301.3,1008.77 1631.95,1008.77 1962.59,1008.77 2293.24,1008.77 "/>
<path clip-path="url(#clip020)" d="M319.94 252.948 L1326.11 252.948 L1326.11 97.4278 L319.94 97.4278  Z" fill="#ffffff" fill-rule="evenodd" fill-opacity="1"/>
<polyline clip-path="url(#clip020)" style="stroke:#ffffff; stroke-linecap:round; stroke-linejoin:round; stroke-width:4; stroke-opacity:1; fill:none" points="319.94,252.948 1326.11,252.948 1326.11,97.4278 319.94,97.4278 319.94,252.948 "/>
<circle clip-path="url(#clip020)" cx="413.403" cy="149.268" r="20.48" fill="#009af9" fill-rule="evenodd" fill-opacity="1" stroke="none"/>
<path clip-path="url(#clip020)" d="M511.542 135.83 L511.542 162.705 L517.19 162.705 Q524.342 162.705 527.653 159.465 Q530.986 156.224 530.986 149.233 Q530.986 142.289 527.653 139.071 Q524.342 135.83 517.19 135.83 L511.542 135.83 M506.866 131.988 L516.472 131.988 Q526.518 131.988 531.217 136.178 Q535.916 140.344 535.916 149.233 Q535.916 158.168 531.194 162.358 Q526.472 166.548 516.472 166.548 L506.866 166.548 L506.866 131.988 Z" fill="#000000" fill-rule="nonzero" fill-opacity="1" /><path clip-path="url(#clip020)" d="M554.967 153.515 Q549.805 153.515 547.815 154.696 Q545.824 155.877 545.824 158.724 Q545.824 160.992 547.305 162.335 Q548.81 163.654 551.379 163.654 Q554.921 163.654 557.051 161.154 Q559.203 158.631 559.203 154.465 L559.203 153.515 L554.967 153.515 M563.463 151.756 L563.463 166.548 L559.203 166.548 L559.203 162.613 Q557.745 164.974 555.569 166.108 Q553.393 167.219 550.245 167.219 Q546.264 167.219 543.902 164.997 Q541.565 162.752 541.565 159.002 Q541.565 154.627 544.481 152.404 Q547.421 150.182 553.231 150.182 L559.203 150.182 L559.203 149.766 Q559.203 146.826 557.259 145.228 Q555.338 143.608 551.842 143.608 Q549.62 143.608 547.514 144.141 Q545.407 144.673 543.463 145.738 L543.463 141.803 Q545.801 140.9 548 140.46 Q550.199 139.997 552.282 139.997 Q557.907 139.997 560.685 142.914 Q563.463 145.83 563.463 151.756 Z" fill="#000000" fill-rule="nonzero" fill-opacity="1" /><path clip-path="url(#clip020)" d="M576.449 133.261 L576.449 140.622 L585.222 140.622 L585.222 143.932 L576.449 143.932 L576.449 158.006 Q576.449 161.177 577.305 162.08 Q578.185 162.983 580.847 162.983 L585.222 162.983 L585.222 166.548 L580.847 166.548 Q575.916 166.548 574.041 164.719 Q572.166 162.867 572.166 158.006 L572.166 143.932 L569.041 143.932 L569.041 140.622 L572.166 140.622 L572.166 133.261 L576.449 133.261 Z" fill="#000000" fill-rule="nonzero" fill-opacity="1" /><path clip-path="url(#clip020)" d="M602.606 153.515 Q597.444 153.515 595.453 154.696 Q593.462 155.877 593.462 158.724 Q593.462 160.992 594.944 162.335 Q596.449 163.654 599.018 163.654 Q602.56 163.654 604.689 161.154 Q606.842 158.631 606.842 154.465 L606.842 153.515 L602.606 153.515 M611.101 151.756 L611.101 166.548 L606.842 166.548 L606.842 162.613 Q605.384 164.974 603.208 166.108 Q601.032 167.219 597.884 167.219 Q593.902 167.219 591.541 164.997 Q589.203 162.752 589.203 159.002 Q589.203 154.627 592.12 152.404 Q595.06 150.182 600.87 150.182 L606.842 150.182 L606.842 149.766 Q606.842 146.826 604.898 145.228 Q602.976 143.608 599.481 143.608 Q597.259 143.608 595.152 144.141 Q593.046 144.673 591.101 145.738 L591.101 141.803 Q593.439 140.9 595.638 140.46 Q597.837 139.997 599.921 139.997 Q605.546 139.997 608.323 142.914 Q611.101 145.83 611.101 151.756 Z" fill="#000000" fill-rule="nonzero" fill-opacity="1" /><path clip-path="url(#clip020)" d="M645.175 130.576 Q642.073 135.9 640.569 141.108 Q639.064 146.316 639.064 151.664 Q639.064 157.011 640.569 162.265 Q642.096 167.497 645.175 172.798 L641.471 172.798 Q637.999 167.358 636.263 162.103 Q634.55 156.849 634.55 151.664 Q634.55 146.502 636.263 141.27 Q637.976 136.039 641.471 130.576 L645.175 130.576 Z" fill="#000000" fill-rule="nonzero" fill-opacity="1" /><path clip-path="url(#clip020)" d="M663.485 143.608 Q660.059 143.608 658.069 146.293 Q656.078 148.955 656.078 153.608 Q656.078 158.261 658.045 160.946 Q660.036 163.608 663.485 163.608 Q666.888 163.608 668.879 160.923 Q670.869 158.238 670.869 153.608 Q670.869 149.002 668.879 146.316 Q666.888 143.608 663.485 143.608 M663.485 139.997 Q669.041 139.997 672.212 143.608 Q675.383 147.219 675.383 153.608 Q675.383 159.974 672.212 163.608 Q669.041 167.219 663.485 167.219 Q657.907 167.219 654.735 163.608 Q651.587 159.974 651.587 153.608 Q651.587 147.219 654.735 143.608 Q657.907 139.997 663.485 139.997 Z" fill="#000000" fill-rule="nonzero" fill-opacity="1" /><path clip-path="url(#clip020)" d="M701.054 153.608 Q701.054 148.909 699.11 146.247 Q697.189 143.562 693.809 143.562 Q690.429 143.562 688.485 146.247 Q686.564 148.909 686.564 153.608 Q686.564 158.307 688.485 160.992 Q690.429 163.654 693.809 163.654 Q697.189 163.654 699.11 160.992 Q701.054 158.307 701.054 153.608 M686.564 144.557 Q687.906 142.242 689.943 141.131 Q692.004 139.997 694.851 139.997 Q699.573 139.997 702.513 143.747 Q705.476 147.497 705.476 153.608 Q705.476 159.719 702.513 163.469 Q699.573 167.219 694.851 167.219 Q692.004 167.219 689.943 166.108 Q687.906 164.974 686.564 162.659 L686.564 166.548 L682.281 166.548 L682.281 130.529 L686.564 130.529 L686.564 144.557 Z" fill="#000000" fill-rule="nonzero" fill-opacity="1" /><path clip-path="url(#clip020)" d="M729.064 141.386 L729.064 145.414 Q727.258 144.488 725.314 144.025 Q723.369 143.562 721.286 143.562 Q718.115 143.562 716.517 144.534 Q714.943 145.506 714.943 147.451 Q714.943 148.932 716.077 149.789 Q717.212 150.622 720.638 151.386 L722.096 151.71 Q726.633 152.682 728.531 154.465 Q730.452 156.224 730.452 159.395 Q730.452 163.006 727.582 165.113 Q724.735 167.219 719.735 167.219 Q717.652 167.219 715.383 166.802 Q713.138 166.409 710.638 165.599 L710.638 161.201 Q712.999 162.427 715.29 163.052 Q717.582 163.654 719.827 163.654 Q722.837 163.654 724.457 162.636 Q726.077 161.594 726.077 159.719 Q726.077 157.983 724.897 157.057 Q723.739 156.131 719.781 155.275 L718.3 154.928 Q714.341 154.094 712.582 152.381 Q710.823 150.645 710.823 147.636 Q710.823 143.978 713.415 141.988 Q716.008 139.997 720.777 139.997 Q723.138 139.997 725.221 140.344 Q727.304 140.691 729.064 141.386 Z" fill="#000000" fill-rule="nonzero" fill-opacity="1" /><path clip-path="url(#clip020)" d="M759.411 152.52 L759.411 154.603 L739.827 154.603 Q740.105 159.002 742.466 161.316 Q744.85 163.608 749.087 163.608 Q751.54 163.608 753.832 163.006 Q756.147 162.404 758.415 161.201 L758.415 165.228 Q756.124 166.201 753.716 166.71 Q751.309 167.219 748.832 167.219 Q742.628 167.219 738.994 163.608 Q735.383 159.997 735.383 153.84 Q735.383 147.474 738.809 143.747 Q742.258 139.997 748.091 139.997 Q753.323 139.997 756.355 143.377 Q759.411 146.733 759.411 152.52 M755.151 151.27 Q755.105 147.775 753.184 145.691 Q751.286 143.608 748.138 143.608 Q744.573 143.608 742.42 145.622 Q740.29 147.636 739.966 151.293 L755.151 151.27 Z" fill="#000000" fill-rule="nonzero" fill-opacity="1" /><path clip-path="url(#clip020)" d="M781.424 144.603 Q780.707 144.187 779.85 144.002 Q779.017 143.793 777.998 143.793 Q774.387 143.793 772.443 146.154 Q770.522 148.492 770.522 152.89 L770.522 166.548 L766.239 166.548 L766.239 140.622 L770.522 140.622 L770.522 144.65 Q771.864 142.289 774.017 141.154 Q776.17 139.997 779.248 139.997 Q779.688 139.997 780.221 140.066 Q780.753 140.113 781.401 140.229 L781.424 144.603 Z" fill="#000000" fill-rule="nonzero" fill-opacity="1" /><path clip-path="url(#clip020)" d="M782.836 140.622 L787.35 140.622 L795.452 162.381 L803.554 140.622 L808.068 140.622 L798.346 166.548 L792.559 166.548 L782.836 140.622 Z" fill="#000000" fill-rule="nonzero" fill-opacity="1" /><path clip-path="url(#clip020)" d="M836.123 152.52 L836.123 154.603 L816.54 154.603 Q816.818 159.002 819.179 161.316 Q821.563 163.608 825.799 163.608 Q828.253 163.608 830.544 163.006 Q832.859 162.404 835.128 161.201 L835.128 165.228 Q832.836 166.201 830.429 166.71 Q828.021 167.219 825.544 167.219 Q819.341 167.219 815.707 163.608 Q812.095 159.997 812.095 153.84 Q812.095 147.474 815.521 143.747 Q818.97 139.997 824.804 139.997 Q830.035 139.997 833.068 143.377 Q836.123 146.733 836.123 152.52 M831.864 151.27 Q831.818 147.775 829.896 145.691 Q827.998 143.608 824.85 143.608 Q821.285 143.608 819.132 145.622 Q817.003 147.636 816.679 151.293 L831.864 151.27 Z" fill="#000000" fill-rule="nonzero" fill-opacity="1" /><path clip-path="url(#clip020)" d="M860.174 144.557 L860.174 130.529 L864.433 130.529 L864.433 166.548 L860.174 166.548 L860.174 162.659 Q858.831 164.974 856.771 166.108 Q854.734 167.219 851.864 167.219 Q847.165 167.219 844.202 163.469 Q841.262 159.719 841.262 153.608 Q841.262 147.497 844.202 143.747 Q847.165 139.997 851.864 139.997 Q854.734 139.997 856.771 141.131 Q858.831 142.242 860.174 144.557 M845.66 153.608 Q845.66 158.307 847.581 160.992 Q849.526 163.654 852.905 163.654 Q856.285 163.654 858.23 160.992 Q860.174 158.307 860.174 153.608 Q860.174 148.909 858.23 146.247 Q856.285 143.562 852.905 143.562 Q849.526 143.562 847.581 146.247 Q845.66 148.909 845.66 153.608 Z" fill="#000000" fill-rule="nonzero" fill-opacity="1" /><path clip-path="url(#clip020)" d="M900.058 153.515 Q894.896 153.515 892.905 154.696 Q890.915 155.877 890.915 158.724 Q890.915 160.992 892.396 162.335 Q893.901 163.654 896.47 163.654 Q900.012 163.654 902.141 161.154 Q904.294 158.631 904.294 154.465 L904.294 153.515 L900.058 153.515 M908.553 151.756 L908.553 166.548 L904.294 166.548 L904.294 162.613 Q902.836 164.974 900.66 166.108 Q898.484 167.219 895.336 167.219 Q891.354 167.219 888.993 164.997 Q886.655 162.752 886.655 159.002 Q886.655 154.627 889.572 152.404 Q892.512 150.182 898.322 150.182 L904.294 150.182 L904.294 149.766 Q904.294 146.826 902.35 145.228 Q900.428 143.608 896.933 143.608 Q894.711 143.608 892.604 144.141 Q890.498 144.673 888.553 145.738 L888.553 141.803 Q890.891 140.9 893.09 140.46 Q895.289 139.997 897.373 139.997 Q902.998 139.997 905.776 142.914 Q908.553 145.83 908.553 151.756 Z" fill="#000000" fill-rule="nonzero" fill-opacity="1" /><path clip-path="url(#clip020)" d="M934.387 153.284 Q934.387 148.654 932.465 146.108 Q930.567 143.562 927.118 143.562 Q923.692 143.562 921.771 146.108 Q919.873 148.654 919.873 153.284 Q919.873 157.89 921.771 160.437 Q923.692 162.983 927.118 162.983 Q930.567 162.983 932.465 160.437 Q934.387 157.89 934.387 153.284 M938.646 163.33 Q938.646 169.951 935.706 173.168 Q932.766 176.409 926.701 176.409 Q924.456 176.409 922.465 176.062 Q920.475 175.738 918.6 175.043 L918.6 170.9 Q920.475 171.918 922.303 172.404 Q924.132 172.89 926.03 172.89 Q930.22 172.89 932.303 170.691 Q934.387 168.515 934.387 164.094 L934.387 161.988 Q933.067 164.279 931.007 165.414 Q928.947 166.548 926.076 166.548 Q921.308 166.548 918.391 162.914 Q915.475 159.279 915.475 153.284 Q915.475 147.266 918.391 143.631 Q921.308 139.997 926.076 139.997 Q928.947 139.997 931.007 141.131 Q933.067 142.266 934.387 144.557 L934.387 140.622 L938.646 140.622 L938.646 163.33 Z" fill="#000000" fill-rule="nonzero" fill-opacity="1" /><path clip-path="url(#clip020)" d="M969.595 152.52 L969.595 154.603 L950.011 154.603 Q950.289 159.002 952.65 161.316 Q955.035 163.608 959.271 163.608 Q961.724 163.608 964.016 163.006 Q966.331 162.404 968.599 161.201 L968.599 165.228 Q966.308 166.201 963.9 166.71 Q961.493 167.219 959.016 167.219 Q952.812 167.219 949.178 163.608 Q945.567 159.997 945.567 153.84 Q945.567 147.474 948.993 143.747 Q952.442 139.997 958.275 139.997 Q963.507 139.997 966.539 143.377 Q969.595 146.733 969.595 152.52 M965.335 151.27 Q965.289 147.775 963.368 145.691 Q961.47 143.608 958.322 143.608 Q954.757 143.608 952.604 145.622 Q950.474 147.636 950.15 151.293 L965.335 151.27 Z" fill="#000000" fill-rule="nonzero" fill-opacity="1" /><path clip-path="url(#clip020)" d="M993.113 141.386 L993.113 145.414 Q991.307 144.488 989.363 144.025 Q987.419 143.562 985.335 143.562 Q982.164 143.562 980.567 144.534 Q978.993 145.506 978.993 147.451 Q978.993 148.932 980.127 149.789 Q981.261 150.622 984.687 151.386 L986.145 151.71 Q990.683 152.682 992.581 154.465 Q994.502 156.224 994.502 159.395 Q994.502 163.006 991.632 165.113 Q988.784 167.219 983.784 167.219 Q981.701 167.219 979.433 166.802 Q977.187 166.409 974.687 165.599 L974.687 161.201 Q977.048 162.427 979.34 163.052 Q981.632 163.654 983.877 163.654 Q986.886 163.654 988.507 162.636 Q990.127 161.594 990.127 159.719 Q990.127 157.983 988.946 157.057 Q987.789 156.131 983.831 155.275 L982.349 154.928 Q978.391 154.094 976.632 152.381 Q974.872 150.645 974.872 147.636 Q974.872 143.978 977.465 141.988 Q980.058 139.997 984.826 139.997 Q987.187 139.997 989.27 140.344 Q991.354 140.691 993.113 141.386 Z" fill="#000000" fill-rule="nonzero" fill-opacity="1" /><path clip-path="url(#clip020)" d="M1000.61 130.576 L1004.32 130.576 Q1007.79 136.039 1009.5 141.27 Q1011.24 146.502 1011.24 151.664 Q1011.24 156.849 1009.5 162.103 Q1007.79 167.358 1004.32 172.798 L1000.61 172.798 Q1003.69 167.497 1005.2 162.265 Q1006.72 157.011 1006.72 151.664 Q1006.72 146.316 1005.2 141.108 Q1003.69 135.9 1000.61 130.576 Z" fill="#000000" fill-rule="nonzero" fill-opacity="1" /><path clip-path="url(#clip020)" d="M343.306 221.844 L483.5 221.844 L483.5 180.372 L343.306 180.372 L343.306 221.844  Z" fill="#e26f46" fill-rule="evenodd" fill-opacity="0.6"/>
<polyline clip-path="url(#clip020)" style="stroke:#e26f46; stroke-linecap:round; stroke-linejoin:round; stroke-width:4; stroke-opacity:0; fill:none" points="343.306,180.372 483.5,180.372 "/>
<path clip-path="url(#clip020)" d="M506.866 183.828 L513.833 183.828 L522.653 207.346 L531.518 183.828 L538.486 183.828 L538.486 218.388 L533.926 218.388 L533.926 188.041 L525.014 211.744 L520.315 211.744 L511.403 188.041 L511.403 218.388 L506.866 218.388 L506.866 183.828 Z" fill="#000000" fill-rule="nonzero" fill-opacity="1" /><path clip-path="url(#clip020)" d="M557.629 195.448 Q554.203 195.448 552.213 198.133 Q550.222 200.795 550.222 205.448 Q550.222 210.101 552.189 212.786 Q554.18 215.448 557.629 215.448 Q561.032 215.448 563.023 212.763 Q565.013 210.078 565.013 205.448 Q565.013 200.842 563.023 198.156 Q561.032 195.448 557.629 195.448 M557.629 191.837 Q563.185 191.837 566.356 195.448 Q569.527 199.059 569.527 205.448 Q569.527 211.814 566.356 215.448 Q563.185 219.059 557.629 219.059 Q552.051 219.059 548.879 215.448 Q545.731 211.814 545.731 205.448 Q545.731 199.059 548.879 195.448 Q552.051 191.837 557.629 191.837 Z" fill="#000000" fill-rule="nonzero" fill-opacity="1" /><path clip-path="url(#clip020)" d="M593.648 196.397 L593.648 182.369 L597.907 182.369 L597.907 218.388 L593.648 218.388 L593.648 214.499 Q592.305 216.814 590.245 217.948 Q588.208 219.059 585.337 219.059 Q580.638 219.059 577.675 215.309 Q574.736 211.559 574.736 205.448 Q574.736 199.337 577.675 195.587 Q580.638 191.837 585.337 191.837 Q588.208 191.837 590.245 192.971 Q592.305 194.082 593.648 196.397 M579.134 205.448 Q579.134 210.147 581.055 212.832 Q583 215.494 586.379 215.494 Q589.759 215.494 591.703 212.832 Q593.648 210.147 593.648 205.448 Q593.648 200.749 591.703 198.087 Q589.759 195.402 586.379 195.402 Q583 195.402 581.055 198.087 Q579.134 200.749 579.134 205.448 Z" fill="#000000" fill-rule="nonzero" fill-opacity="1" /><path clip-path="url(#clip020)" d="M628.856 204.36 L628.856 206.443 L609.273 206.443 Q609.55 210.842 611.911 213.156 Q614.296 215.448 618.532 215.448 Q620.985 215.448 623.277 214.846 Q625.592 214.244 627.86 213.041 L627.86 217.068 Q625.569 218.041 623.161 218.55 Q620.754 219.059 618.277 219.059 Q612.073 219.059 608.439 215.448 Q604.828 211.837 604.828 205.68 Q604.828 199.314 608.254 195.587 Q611.703 191.837 617.536 191.837 Q622.768 191.837 625.8 195.217 Q628.856 198.573 628.856 204.36 M624.597 203.11 Q624.55 199.615 622.629 197.531 Q620.731 195.448 617.583 195.448 Q614.018 195.448 611.865 197.462 Q609.735 199.476 609.411 203.133 L624.597 203.11 Z" fill="#000000" fill-rule="nonzero" fill-opacity="1" /><path clip-path="url(#clip020)" d="M635.846 182.369 L640.106 182.369 L640.106 218.388 L635.846 218.388 L635.846 182.369 Z" fill="#000000" fill-rule="nonzero" fill-opacity="1" /><path clip-path="url(#clip020)" d="M674.318 182.416 Q671.217 187.74 669.712 192.948 Q668.207 198.156 668.207 203.504 Q668.207 208.851 669.712 214.105 Q671.24 219.337 674.318 224.638 L670.615 224.638 Q667.143 219.198 665.406 213.943 Q663.694 208.689 663.694 203.504 Q663.694 198.342 665.406 193.11 Q667.119 187.879 670.615 182.416 L674.318 182.416 Z" fill="#000000" fill-rule="nonzero" fill-opacity="1" /><path clip-path="url(#clip020)" d="M693.763 199.244 Q690.615 199.244 688.763 201.397 Q686.934 203.55 686.934 207.3 Q686.934 211.027 688.763 213.203 Q690.615 215.355 693.763 215.355 Q696.911 215.355 698.74 213.203 Q700.591 211.027 700.591 207.3 Q700.591 203.55 698.74 201.397 Q696.911 199.244 693.763 199.244 M703.045 184.592 L703.045 188.851 Q701.286 188.018 699.48 187.578 Q697.698 187.138 695.939 187.138 Q691.309 187.138 688.855 190.263 Q686.425 193.388 686.078 199.707 Q687.443 197.693 689.504 196.629 Q691.564 195.541 694.041 195.541 Q699.249 195.541 702.258 198.712 Q705.291 201.86 705.291 207.3 Q705.291 212.624 702.142 215.842 Q698.994 219.059 693.763 219.059 Q687.767 219.059 684.596 214.476 Q681.425 209.869 681.425 201.143 Q681.425 192.948 685.314 188.087 Q689.203 183.203 695.754 183.203 Q697.513 183.203 699.295 183.55 Q701.101 183.897 703.045 184.592 Z" fill="#000000" fill-rule="nonzero" fill-opacity="1" /><path clip-path="url(#clip020)" d="M723.925 199.244 Q720.777 199.244 718.925 201.397 Q717.096 203.55 717.096 207.3 Q717.096 211.027 718.925 213.203 Q720.777 215.355 723.925 215.355 Q727.073 215.355 728.901 213.203 Q730.753 211.027 730.753 207.3 Q730.753 203.55 728.901 201.397 Q727.073 199.244 723.925 199.244 M733.207 184.592 L733.207 188.851 Q731.448 188.018 729.642 187.578 Q727.86 187.138 726.101 187.138 Q721.471 187.138 719.017 190.263 Q716.587 193.388 716.24 199.707 Q717.605 197.693 719.665 196.629 Q721.726 195.541 724.202 195.541 Q729.411 195.541 732.42 198.712 Q735.452 201.86 735.452 207.3 Q735.452 212.624 732.304 215.842 Q729.156 219.059 723.925 219.059 Q717.929 219.059 714.758 214.476 Q711.587 209.869 711.587 201.143 Q711.587 192.948 715.476 188.087 Q719.365 183.203 725.915 183.203 Q727.675 183.203 729.457 183.55 Q731.263 183.897 733.207 184.592 Z" fill="#000000" fill-rule="nonzero" fill-opacity="1" /><path clip-path="url(#clip020)" d="M743.508 212.508 L748.392 212.508 L748.392 218.388 L743.508 218.388 L743.508 212.508 Z" fill="#000000" fill-rule="nonzero" fill-opacity="1" /><path clip-path="url(#clip020)" d="M762.605 214.453 L778.924 214.453 L778.924 218.388 L756.98 218.388 L756.98 214.453 Q759.642 211.698 764.225 207.068 Q768.832 202.416 770.012 201.073 Q772.258 198.55 773.137 196.814 Q774.04 195.055 774.04 193.365 Q774.04 190.61 772.096 188.874 Q770.174 187.138 767.073 187.138 Q764.874 187.138 762.42 187.902 Q759.989 188.666 757.212 190.217 L757.212 185.494 Q760.036 184.36 762.489 183.782 Q764.943 183.203 766.98 183.203 Q772.35 183.203 775.545 185.888 Q778.739 188.573 778.739 193.064 Q778.739 195.194 777.929 197.115 Q777.142 199.013 775.036 201.606 Q774.457 202.277 771.355 205.494 Q768.253 208.689 762.605 214.453 Z" fill="#000000" fill-rule="nonzero" fill-opacity="1" /><path clip-path="url(#clip020)" d="M787.559 183.828 L809.781 183.828 L809.781 185.819 L797.234 218.388 L792.35 218.388 L804.156 187.763 L787.559 187.763 L787.559 183.828 Z" fill="#000000" fill-rule="nonzero" fill-opacity="1" /><path clip-path="url(#clip020)" d="M817.72 183.828 L839.943 183.828 L839.943 185.819 L827.396 218.388 L822.512 218.388 L834.318 187.763 L817.72 187.763 L817.72 183.828 Z" fill="#000000" fill-rule="nonzero" fill-opacity="1" /><path clip-path="url(#clip020)" d="M880.868 188.666 L880.868 201.559 L893.762 201.559 L893.762 205.494 L880.868 205.494 L880.868 218.388 L876.979 218.388 L876.979 205.494 L864.086 205.494 L864.086 201.559 L876.979 201.559 L876.979 188.666 L880.868 188.666 Z" fill="#000000" fill-rule="nonzero" fill-opacity="1" /><path clip-path="url(#clip020)" d="M913.854 186.907 Q910.243 186.907 908.414 190.471 Q906.609 194.013 906.609 201.143 Q906.609 208.249 908.414 211.814 Q910.243 215.355 913.854 215.355 Q917.488 215.355 919.294 211.814 Q921.123 208.249 921.123 201.143 Q921.123 194.013 919.294 190.471 Q917.488 186.907 913.854 186.907 M913.854 183.203 Q919.664 183.203 922.72 187.809 Q925.799 192.393 925.799 201.143 Q925.799 209.869 922.72 214.476 Q919.664 219.059 913.854 219.059 Q908.044 219.059 904.965 214.476 Q901.91 209.869 901.91 201.143 Q901.91 192.393 904.965 187.809 Q908.044 183.203 913.854 183.203 Z" fill="#000000" fill-rule="nonzero" fill-opacity="1" /><path clip-path="url(#clip020)" d="M934.016 212.508 L938.9 212.508 L938.9 218.388 L934.016 218.388 L934.016 212.508 Z" fill="#000000" fill-rule="nonzero" fill-opacity="1" /><path clip-path="url(#clip020)" d="M959.085 186.907 Q955.474 186.907 953.646 190.471 Q951.84 194.013 951.84 201.143 Q951.84 208.249 953.646 211.814 Q955.474 215.355 959.085 215.355 Q962.72 215.355 964.525 211.814 Q966.354 208.249 966.354 201.143 Q966.354 194.013 964.525 190.471 Q962.72 186.907 959.085 186.907 M959.085 183.203 Q964.896 183.203 967.951 187.809 Q971.03 192.393 971.03 201.143 Q971.03 209.869 967.951 214.476 Q964.896 219.059 959.085 219.059 Q953.275 219.059 950.197 214.476 Q947.141 209.869 947.141 201.143 Q947.141 192.393 950.197 187.809 Q953.275 183.203 959.085 183.203 Z" fill="#000000" fill-rule="nonzero" fill-opacity="1" /><path clip-path="url(#clip020)" d="M989.826 199.244 Q986.678 199.244 984.826 201.397 Q982.997 203.55 982.997 207.3 Q982.997 211.027 984.826 213.203 Q986.678 215.355 989.826 215.355 Q992.974 215.355 994.803 213.203 Q996.655 211.027 996.655 207.3 Q996.655 203.55 994.803 201.397 Q992.974 199.244 989.826 199.244 M999.108 184.592 L999.108 188.851 Q997.349 188.018 995.544 187.578 Q993.761 187.138 992.002 187.138 Q987.372 187.138 984.919 190.263 Q982.488 193.388 982.141 199.707 Q983.507 197.693 985.567 196.629 Q987.627 195.541 990.104 195.541 Q995.312 195.541 998.321 198.712 Q1001.35 201.86 1001.35 207.3 Q1001.35 212.624 998.206 215.842 Q995.057 219.059 989.826 219.059 Q983.831 219.059 980.659 214.476 Q977.488 209.869 977.488 201.143 Q977.488 192.948 981.377 188.087 Q985.266 183.203 991.817 183.203 Q993.576 183.203 995.358 183.55 Q997.164 183.897 999.108 184.592 Z" fill="#000000" fill-rule="nonzero" fill-opacity="1" /><path clip-path="url(#clip020)" d="M1022.26 187.902 L1010.45 206.351 L1022.26 206.351 L1022.26 187.902 M1021.03 183.828 L1026.91 183.828 L1026.91 206.351 L1031.84 206.351 L1031.84 210.24 L1026.91 210.24 L1026.91 218.388 L1022.26 218.388 L1022.26 210.24 L1006.65 210.24 L1006.65 205.726 L1021.03 183.828 Z" fill="#000000" fill-rule="nonzero" fill-opacity="1" /><path clip-path="url(#clip020)" d="M1046.54 183.828 L1050.47 183.828 L1038.44 222.786 L1034.5 222.786 L1046.54 183.828 Z" fill="#000000" fill-rule="nonzero" fill-opacity="1" /><path clip-path="url(#clip020)" d="M1052.79 203.504 L1065.27 203.504 L1065.27 207.3 L1052.79 207.3 L1052.79 203.504 Z" fill="#000000" fill-rule="nonzero" fill-opacity="1" /><path clip-path="url(#clip020)" d="M1082.65 186.907 Q1079.04 186.907 1077.21 190.471 Q1075.4 194.013 1075.4 201.143 Q1075.4 208.249 1077.21 211.814 Q1079.04 215.355 1082.65 215.355 Q1086.28 215.355 1088.09 211.814 Q1089.92 208.249 1089.92 201.143 Q1089.92 194.013 1088.09 190.471 Q1086.28 186.907 1082.65 186.907 M1082.65 183.203 Q1088.46 183.203 1091.52 187.809 Q1094.59 192.393 1094.59 201.143 Q1094.59 209.869 1091.52 214.476 Q1088.46 219.059 1082.65 219.059 Q1076.84 219.059 1073.76 214.476 Q1070.71 209.869 1070.71 201.143 Q1070.71 192.393 1073.76 187.809 Q1076.84 183.203 1082.65 183.203 Z" fill="#000000" fill-rule="nonzero" fill-opacity="1" /><path clip-path="url(#clip020)" d="M1102.81 212.508 L1107.7 212.508 L1107.7 218.388 L1102.81 218.388 L1102.81 212.508 Z" fill="#000000" fill-rule="nonzero" fill-opacity="1" /><path clip-path="url(#clip020)" d="M1127.88 186.907 Q1124.27 186.907 1122.44 190.471 Q1120.64 194.013 1120.64 201.143 Q1120.64 208.249 1122.44 211.814 Q1124.27 215.355 1127.88 215.355 Q1131.52 215.355 1133.32 211.814 Q1135.15 208.249 1135.15 201.143 Q1135.15 194.013 1133.32 190.471 Q1131.52 186.907 1127.88 186.907 M1127.88 183.203 Q1133.69 183.203 1136.75 187.809 Q1139.83 192.393 1139.83 201.143 Q1139.83 209.869 1136.75 214.476 Q1133.69 219.059 1127.88 219.059 Q1122.07 219.059 1118.99 214.476 Q1115.94 209.869 1115.94 201.143 Q1115.94 192.393 1118.99 187.809 Q1122.07 183.203 1127.88 183.203 Z" fill="#000000" fill-rule="nonzero" fill-opacity="1" /><path clip-path="url(#clip020)" d="M1158.04 201.976 Q1154.71 201.976 1152.79 203.758 Q1150.89 205.541 1150.89 208.666 Q1150.89 211.791 1152.79 213.573 Q1154.71 215.355 1158.04 215.355 Q1161.38 215.355 1163.3 213.573 Q1165.22 211.767 1165.22 208.666 Q1165.22 205.541 1163.3 203.758 Q1161.4 201.976 1158.04 201.976 M1153.37 199.985 Q1150.36 199.244 1148.67 197.184 Q1147 195.124 1147 192.161 Q1147 188.018 1149.94 185.61 Q1152.9 183.203 1158.04 183.203 Q1163.2 183.203 1166.14 185.61 Q1169.08 188.018 1169.08 192.161 Q1169.08 195.124 1167.39 197.184 Q1165.73 199.244 1162.74 199.985 Q1166.12 200.772 1168 203.064 Q1169.89 205.355 1169.89 208.666 Q1169.89 213.689 1166.82 216.374 Q1163.76 219.059 1158.04 219.059 Q1152.33 219.059 1149.25 216.374 Q1146.19 213.689 1146.19 208.666 Q1146.19 205.355 1148.09 203.064 Q1149.99 200.772 1153.37 199.985 M1151.65 192.601 Q1151.65 195.286 1153.32 196.791 Q1155.01 198.295 1158.04 198.295 Q1161.05 198.295 1162.74 196.791 Q1164.45 195.286 1164.45 192.601 Q1164.45 189.916 1162.74 188.411 Q1161.05 186.907 1158.04 186.907 Q1155.01 186.907 1153.32 188.411 Q1151.65 189.916 1151.65 192.601 Z" fill="#000000" fill-rule="nonzero" fill-opacity="1" /><path clip-path="url(#clip020)" d="M1178.25 183.828 L1196.61 183.828 L1196.61 187.763 L1182.53 187.763 L1182.53 196.235 Q1183.55 195.888 1184.57 195.726 Q1185.59 195.541 1186.61 195.541 Q1192.39 195.541 1195.77 198.712 Q1199.15 201.883 1199.15 207.3 Q1199.15 212.879 1195.68 215.98 Q1192.21 219.059 1185.89 219.059 Q1183.71 219.059 1181.45 218.689 Q1179.2 218.318 1176.79 217.578 L1176.79 212.879 Q1178.88 214.013 1181.1 214.568 Q1183.32 215.124 1185.8 215.124 Q1189.8 215.124 1192.14 213.017 Q1194.48 210.911 1194.48 207.3 Q1194.48 203.689 1192.14 201.582 Q1189.8 199.476 1185.8 199.476 Q1183.92 199.476 1182.05 199.893 Q1180.2 200.309 1178.25 201.189 L1178.25 183.828 Z" fill="#000000" fill-rule="nonzero" fill-opacity="1" /><path clip-path="url(#clip020)" d="M1223.02 183.828 L1229.99 183.828 L1238.81 207.346 L1247.67 183.828 L1254.64 183.828 L1254.64 218.388 L1250.08 218.388 L1250.08 188.041 L1241.17 211.744 L1236.47 211.744 L1227.56 188.041 L1227.56 218.388 L1223.02 218.388 L1223.02 183.828 Z" fill="#000000" fill-rule="nonzero" fill-opacity="1" /><path clip-path="url(#clip020)" d="M1275.52 205.355 Q1270.36 205.355 1268.37 206.536 Q1266.38 207.717 1266.38 210.564 Q1266.38 212.832 1267.86 214.175 Q1269.36 215.494 1271.93 215.494 Q1275.47 215.494 1277.6 212.994 Q1279.76 210.471 1279.76 206.305 L1279.76 205.355 L1275.52 205.355 M1284.01 203.596 L1284.01 218.388 L1279.76 218.388 L1279.76 214.453 Q1278.3 216.814 1276.12 217.948 Q1273.94 219.059 1270.8 219.059 Q1266.82 219.059 1264.45 216.837 Q1262.12 214.592 1262.12 210.842 Q1262.12 206.467 1265.03 204.244 Q1267.97 202.022 1273.78 202.022 L1279.76 202.022 L1279.76 201.606 Q1279.76 198.666 1277.81 197.068 Q1275.89 195.448 1272.39 195.448 Q1270.17 195.448 1268.07 195.981 Q1265.96 196.513 1264.01 197.578 L1264.01 193.643 Q1266.35 192.74 1268.55 192.3 Q1270.75 191.837 1272.83 191.837 Q1278.46 191.837 1281.24 194.754 Q1284.01 197.67 1284.01 203.596 Z" fill="#000000" fill-rule="nonzero" fill-opacity="1" /><path clip-path="url(#clip020)" d="M1292.12 182.416 L1295.82 182.416 Q1299.29 187.879 1301 193.11 Q1302.74 198.342 1302.74 203.504 Q1302.74 208.689 1301 213.943 Q1299.29 219.198 1295.82 224.638 L1292.12 224.638 Q1295.19 219.337 1296.7 214.105 Q1298.23 208.851 1298.23 203.504 Q1298.23 198.156 1296.7 192.948 Q1295.19 187.74 1292.12 182.416 Z" fill="#000000" fill-rule="nonzero" fill-opacity="1" /></svg>
