<?xml version="1.0" encoding="utf-8"?>
<svg xmlns="http://www.w3.org/2000/svg" xmlns:xlink="http://www.w3.org/1999/xlink" width="600" height="400" viewBox="0 0 2400 1600">
<defs>
  <clipPath id="clip960">
    <rect x="0" y="0" width="2400" height="1600"/>
  </clipPath>
</defs>
<path clip-path="url(#clip960)" d="M0 1600 L2400 1600 L2400 8.88178e-14 L0 8.88178e-14  Z" fill="#ffffff" fill-rule="evenodd" fill-opacity="1"/>
<defs>
  <clipPath id="clip961">
    <rect x="480" y="0" width="1681" height="1600"/>
  </clipPath>
</defs>
<path clip-path="url(#clip960)" d="M175.445 1423.18 L2352.76 1423.18 L2352.76 47.2441 L175.445 47.2441  Z" fill="#ffffff" fill-rule="evenodd" fill-opacity="1"/>
<defs>
  <clipPath id="clip962">
    <rect x="175" y="47" width="2178" height="1377"/>
  </clipPath>
</defs>
<polyline clip-path="url(#clip962)" style="stroke:#000000; stroke-linecap:round; stroke-linejoin:round; stroke-width:2; stroke-opacity:0.1; fill:none" points="487.133,1423.18 487.133,47.2441 "/>
<polyline clip-path="url(#clip962)" style="stroke:#000000; stroke-linecap:round; stroke-linejoin:round; stroke-width:2; stroke-opacity:0.1; fill:none" points="925.941,1423.18 925.941,47.2441 "/>
<polyline clip-path="url(#clip962)" style="stroke:#000000; stroke-linecap:round; stroke-linejoin:round; stroke-width:2; stroke-opacity:0.1; fill:none" points="1364.75,1423.18 1364.75,47.2441 "/>
<polyline clip-path="url(#clip962)" style="stroke:#000000; stroke-linecap:round; stroke-linejoin:round; stroke-width:2; stroke-opacity:0.1; fill:none" points="1803.56,1423.18 1803.56,47.2441 "/>
<polyline clip-path="url(#clip962)" style="stroke:#000000; stroke-linecap:round; stroke-linejoin:round; stroke-width:2; stroke-opacity:0.1; fill:none" points="2242.36,1423.18 2242.36,47.2441 "/>
<polyline clip-path="url(#clip962)" style="stroke:#000000; stroke-linecap:round; stroke-linejoin:round; stroke-width:2; stroke-opacity:0.1; fill:none" points="487.133,1423.18 487.133,47.2441 "/>
<polyline clip-path="url(#clip962)" style="stroke:#000000; stroke-linecap:round; stroke-linejoin:round; stroke-width:2; stroke-opacity:0.1; fill:none" points="925.941,1423.18 925.941,47.2441 "/>
<polyline clip-path="url(#clip962)" style="stroke:#000000; stroke-linecap:round; stroke-linejoin:round; stroke-width:2; stroke-opacity:0.1; fill:none" points="1364.75,1423.18 1364.75,47.2441 "/>
<polyline clip-path="url(#clip962)" style="stroke:#000000; stroke-linecap:round; stroke-linejoin:round; stroke-width:2; stroke-opacity:0.1; fill:none" points="1803.56,1423.18 1803.56,47.2441 "/>
<polyline clip-path="url(#clip962)" style="stroke:#000000; stroke-linecap:round; stroke-linejoin:round; stroke-width:2; stroke-opacity:0.1; fill:none" points="2242.36,1423.18 2242.36,47.2441 "/>
<polyline clip-path="url(#clip962)" style="stroke:#000000; stroke-linecap:round; stroke-linejoin:round; stroke-width:2; stroke-opacity:0.1; fill:none" points="175.445,1384.24 2352.76,1384.24 "/>
<polyline clip-path="url(#clip962)" style="stroke:#000000; stroke-linecap:round; stroke-linejoin:round; stroke-width:2; stroke-opacity:0.1; fill:none" points="175.445,1059.68 2352.76,1059.68 "/>
<polyline clip-path="url(#clip962)" style="stroke:#000000; stroke-linecap:round; stroke-linejoin:round; stroke-width:2; stroke-opacity:0.1; fill:none" points="175.445,735.128 2352.76,735.128 "/>
<polyline clip-path="url(#clip962)" style="stroke:#000000; stroke-linecap:round; stroke-linejoin:round; stroke-width:2; stroke-opacity:0.1; fill:none" points="175.445,410.572 2352.76,410.572 "/>
<polyline clip-path="url(#clip962)" style="stroke:#000000; stroke-linecap:round; stroke-linejoin:round; stroke-width:2; stroke-opacity:0.1; fill:none" points="175.445,86.0169 2352.76,86.0169 "/>
<polyline clip-path="url(#clip962)" style="stroke:#000000; stroke-linecap:round; stroke-linejoin:round; stroke-width:2; stroke-opacity:0.1; fill:none" points="175.445,1384.24 2352.76,1384.24 "/>
<polyline clip-path="url(#clip962)" style="stroke:#000000; stroke-linecap:round; stroke-linejoin:round; stroke-width:2; stroke-opacity:0.1; fill:none" points="175.445,1059.68 2352.76,1059.68 "/>
<polyline clip-path="url(#clip962)" style="stroke:#000000; stroke-linecap:round; stroke-linejoin:round; stroke-width:2; stroke-opacity:0.1; fill:none" points="175.445,735.128 2352.76,735.128 "/>
<polyline clip-path="url(#clip962)" style="stroke:#000000; stroke-linecap:round; stroke-linejoin:round; stroke-width:2; stroke-opacity:0.1; fill:none" points="175.445,410.572 2352.76,410.572 "/>
<polyline clip-path="url(#clip962)" style="stroke:#000000; stroke-linecap:round; stroke-linejoin:round; stroke-width:2; stroke-opacity:0.1; fill:none" points="175.445,86.0169 2352.76,86.0169 "/>
<polyline clip-path="url(#clip960)" style="stroke:#000000; stroke-linecap:round; stroke-linejoin:round; stroke-width:4; stroke-opacity:1; fill:none" points="175.445,1423.18 2352.76,1423.18 "/>
<polyline clip-path="url(#clip960)" style="stroke:#000000; stroke-linecap:round; stroke-linejoin:round; stroke-width:4; stroke-opacity:1; fill:none" points="175.445,47.2441 2352.76,47.2441 "/>
<polyline clip-path="url(#clip960)" style="stroke:#000000; stroke-linecap:round; stroke-linejoin:round; stroke-width:4; stroke-opacity:1; fill:none" points="487.133,1423.18 487.133,1404.28 "/>
<polyline clip-path="url(#clip960)" style="stroke:#000000; stroke-linecap:round; stroke-linejoin:round; stroke-width:4; stroke-opacity:1; fill:none" points="925.941,1423.18 925.941,1404.28 "/>
<polyline clip-path="url(#clip960)" style="stroke:#000000; stroke-linecap:round; stroke-linejoin:round; stroke-width:4; stroke-opacity:1; fill:none" points="1364.75,1423.18 1364.75,1404.28 "/>
<polyline clip-path="url(#clip960)" style="stroke:#000000; stroke-linecap:round; stroke-linejoin:round; stroke-width:4; stroke-opacity:1; fill:none" points="1803.56,1423.18 1803.56,1404.28 "/>
<polyline clip-path="url(#clip960)" style="stroke:#000000; stroke-linecap:round; stroke-linejoin:round; stroke-width:4; stroke-opacity:1; fill:none" points="2242.36,1423.18 2242.36,1404.28 "/>
<polyline clip-path="url(#clip960)" style="stroke:#000000; stroke-linecap:round; stroke-linejoin:round; stroke-width:4; stroke-opacity:1; fill:none" points="487.133,47.2441 487.133,66.1417 "/>
<polyline clip-path="url(#clip960)" style="stroke:#000000; stroke-linecap:round; stroke-linejoin:round; stroke-width:4; stroke-opacity:1; fill:none" points="925.941,47.2441 925.941,66.1417 "/>
<polyline clip-path="url(#clip960)" style="stroke:#000000; stroke-linecap:round; stroke-linejoin:round; stroke-width:4; stroke-opacity:1; fill:none" points="1364.75,47.2441 1364.75,66.1417 "/>
<polyline clip-path="url(#clip960)" style="stroke:#000000; stroke-linecap:round; stroke-linejoin:round; stroke-width:4; stroke-opacity:1; fill:none" points="1803.56,47.2441 1803.56,66.1417 "/>
<polyline clip-path="url(#clip960)" style="stroke:#000000; stroke-linecap:round; stroke-linejoin:round; stroke-width:4; stroke-opacity:1; fill:none" points="2242.36,47.2441 2242.36,66.1417 "/>
<path clip-path="url(#clip960)" d="M434.842 1466.44 Q431.694 1466.44 429.842 1468.59 Q428.013 1470.74 428.013 1474.49 Q428.013 1478.22 429.842 1480.39 Q431.694 1482.55 434.842 1482.55 Q437.99 1482.55 439.819 1480.39 Q441.671 1478.22 441.671 1474.49 Q441.671 1470.74 439.819 1468.59 Q437.99 1466.44 434.842 1466.44 M444.124 1451.78 L444.124 1456.04 Q442.365 1455.21 440.56 1454.77 Q438.777 1454.33 437.018 1454.33 Q432.388 1454.33 429.935 1457.45 Q427.504 1460.58 427.157 1466.9 Q428.523 1464.89 430.583 1463.82 Q432.643 1462.73 435.12 1462.73 Q440.328 1462.73 443.337 1465.9 Q446.37 1469.05 446.37 1474.49 Q446.37 1479.82 443.222 1483.03 Q440.074 1486.25 434.842 1486.25 Q428.847 1486.25 425.675 1481.67 Q422.504 1477.06 422.504 1468.33 Q422.504 1460.14 426.393 1455.28 Q430.282 1450.39 436.833 1450.39 Q438.592 1450.39 440.374 1450.74 Q442.18 1451.09 444.124 1451.78 Z" fill="#000000" fill-rule="nonzero" fill-opacity="1" /><path clip-path="url(#clip960)" d="M454.472 1451.02 L472.828 1451.02 L472.828 1454.96 L458.754 1454.96 L458.754 1463.43 Q459.772 1463.08 460.791 1462.92 Q461.81 1462.73 462.828 1462.73 Q468.615 1462.73 471.995 1465.9 Q475.374 1469.08 475.374 1474.49 Q475.374 1480.07 471.902 1483.17 Q468.43 1486.25 462.11 1486.25 Q459.935 1486.25 457.666 1485.88 Q455.421 1485.51 453.013 1484.77 L453.013 1480.07 Q455.097 1481.2 457.319 1481.76 Q459.541 1482.32 462.018 1482.32 Q466.022 1482.32 468.36 1480.21 Q470.698 1478.1 470.698 1474.49 Q470.698 1470.88 468.36 1468.77 Q466.022 1466.67 462.018 1466.67 Q460.143 1466.67 458.268 1467.08 Q456.416 1467.5 454.472 1468.38 L454.472 1451.02 Z" fill="#000000" fill-rule="nonzero" fill-opacity="1" /><path clip-path="url(#clip960)" d="M484.587 1479.7 L489.471 1479.7 L489.471 1485.58 L484.587 1485.58 L484.587 1479.7 Z" fill="#000000" fill-rule="nonzero" fill-opacity="1" /><path clip-path="url(#clip960)" d="M499.703 1451.02 L518.059 1451.02 L518.059 1454.96 L503.985 1454.96 L503.985 1463.43 Q505.004 1463.08 506.022 1462.92 Q507.041 1462.73 508.059 1462.73 Q513.846 1462.73 517.226 1465.9 Q520.605 1469.08 520.605 1474.49 Q520.605 1480.07 517.133 1483.17 Q513.661 1486.25 507.342 1486.25 Q505.166 1486.25 502.897 1485.88 Q500.652 1485.51 498.245 1484.77 L498.245 1480.07 Q500.328 1481.2 502.55 1481.76 Q504.772 1482.32 507.249 1482.32 Q511.254 1482.32 513.592 1480.21 Q515.93 1478.1 515.93 1474.49 Q515.93 1470.88 513.592 1468.77 Q511.254 1466.67 507.249 1466.67 Q505.374 1466.67 503.499 1467.08 Q501.647 1467.5 499.703 1468.38 L499.703 1451.02 Z" fill="#000000" fill-rule="nonzero" fill-opacity="1" /><path clip-path="url(#clip960)" d="M539.818 1454.1 Q536.207 1454.1 534.379 1457.66 Q532.573 1461.2 532.573 1468.33 Q532.573 1475.44 534.379 1479.01 Q536.207 1482.55 539.818 1482.55 Q543.453 1482.55 545.258 1479.01 Q547.087 1475.44 547.087 1468.33 Q547.087 1461.2 545.258 1457.66 Q543.453 1454.1 539.818 1454.1 M539.818 1450.39 Q545.629 1450.39 548.684 1455 Q551.763 1459.58 551.763 1468.33 Q551.763 1477.06 548.684 1481.67 Q545.629 1486.25 539.818 1486.25 Q534.008 1486.25 530.93 1481.67 Q527.874 1477.06 527.874 1468.33 Q527.874 1459.58 530.93 1455 Q534.008 1450.39 539.818 1450.39 Z" fill="#000000" fill-rule="nonzero" fill-opacity="1" /><path clip-path="url(#clip960)" d="M874.148 1466.44 Q870.999 1466.44 869.148 1468.59 Q867.319 1470.74 867.319 1474.49 Q867.319 1478.22 869.148 1480.39 Q870.999 1482.55 874.148 1482.55 Q877.296 1482.55 879.124 1480.39 Q880.976 1478.22 880.976 1474.49 Q880.976 1470.74 879.124 1468.59 Q877.296 1466.44 874.148 1466.44 M883.43 1451.78 L883.43 1456.04 Q881.671 1455.21 879.865 1454.77 Q878.083 1454.33 876.324 1454.33 Q871.694 1454.33 869.24 1457.45 Q866.81 1460.58 866.462 1466.9 Q867.828 1464.89 869.888 1463.82 Q871.949 1462.73 874.425 1462.73 Q879.634 1462.73 882.643 1465.9 Q885.675 1469.05 885.675 1474.49 Q885.675 1479.82 882.527 1483.03 Q879.379 1486.25 874.148 1486.25 Q868.152 1486.25 864.981 1481.67 Q861.81 1477.06 861.81 1468.33 Q861.81 1460.14 865.699 1455.28 Q869.587 1450.39 876.138 1450.39 Q877.898 1450.39 879.68 1450.74 Q881.486 1451.09 883.43 1451.78 Z" fill="#000000" fill-rule="nonzero" fill-opacity="1" /><path clip-path="url(#clip960)" d="M893.777 1451.02 L912.134 1451.02 L912.134 1454.96 L898.06 1454.96 L898.06 1463.43 Q899.078 1463.08 900.097 1462.92 Q901.115 1462.73 902.134 1462.73 Q907.921 1462.73 911.3 1465.9 Q914.68 1469.08 914.68 1474.49 Q914.68 1480.07 911.208 1483.17 Q907.735 1486.25 901.416 1486.25 Q899.24 1486.25 896.972 1485.88 Q894.726 1485.51 892.319 1484.77 L892.319 1480.07 Q894.402 1481.2 896.624 1481.76 Q898.847 1482.32 901.323 1482.32 Q905.328 1482.32 907.666 1480.21 Q910.004 1478.1 910.004 1474.49 Q910.004 1470.88 907.666 1468.77 Q905.328 1466.67 901.323 1466.67 Q899.448 1466.67 897.573 1467.08 Q895.722 1467.5 893.777 1468.38 L893.777 1451.02 Z" fill="#000000" fill-rule="nonzero" fill-opacity="1" /><path clip-path="url(#clip960)" d="M923.893 1479.7 L928.777 1479.7 L928.777 1485.58 L923.893 1485.58 L923.893 1479.7 Z" fill="#000000" fill-rule="nonzero" fill-opacity="1" /><path clip-path="url(#clip960)" d="M937.782 1451.02 L960.004 1451.02 L960.004 1453.01 L947.457 1485.58 L942.573 1485.58 L954.379 1454.96 L937.782 1454.96 L937.782 1451.02 Z" fill="#000000" fill-rule="nonzero" fill-opacity="1" /><path clip-path="url(#clip960)" d="M969.17 1451.02 L987.527 1451.02 L987.527 1454.96 L973.453 1454.96 L973.453 1463.43 Q974.471 1463.08 975.49 1462.92 Q976.508 1462.73 977.527 1462.73 Q983.314 1462.73 986.693 1465.9 Q990.073 1469.08 990.073 1474.49 Q990.073 1480.07 986.601 1483.17 Q983.129 1486.25 976.809 1486.25 Q974.633 1486.25 972.365 1485.88 Q970.119 1485.51 967.712 1484.77 L967.712 1480.07 Q969.795 1481.2 972.017 1481.76 Q974.24 1482.32 976.717 1482.32 Q980.721 1482.32 983.059 1480.21 Q985.397 1478.1 985.397 1474.49 Q985.397 1470.88 983.059 1468.77 Q980.721 1466.67 976.717 1466.67 Q974.842 1466.67 972.967 1467.08 Q971.115 1467.5 969.17 1468.38 L969.17 1451.02 Z" fill="#000000" fill-rule="nonzero" fill-opacity="1" /><path clip-path="url(#clip960)" d="M1312.46 1466.44 Q1309.31 1466.44 1307.46 1468.59 Q1305.63 1470.74 1305.63 1474.49 Q1305.63 1478.22 1307.46 1480.39 Q1309.31 1482.55 1312.46 1482.55 Q1315.61 1482.55 1317.43 1480.39 Q1319.29 1478.22 1319.29 1474.49 Q1319.29 1470.74 1317.43 1468.59 Q1315.61 1466.44 1312.46 1466.44 M1321.74 1451.78 L1321.74 1456.04 Q1319.98 1455.21 1318.18 1454.77 Q1316.39 1454.33 1314.63 1454.33 Q1310 1454.33 1307.55 1457.45 Q1305.12 1460.58 1304.77 1466.9 Q1306.14 1464.89 1308.2 1463.82 Q1310.26 1462.73 1312.74 1462.73 Q1317.94 1462.73 1320.95 1465.9 Q1323.99 1469.05 1323.99 1474.49 Q1323.99 1479.82 1320.84 1483.03 Q1317.69 1486.25 1312.46 1486.25 Q1306.46 1486.25 1303.29 1481.67 Q1300.12 1477.06 1300.12 1468.33 Q1300.12 1460.14 1304.01 1455.28 Q1307.9 1450.39 1314.45 1450.39 Q1316.21 1450.39 1317.99 1450.74 Q1319.8 1451.09 1321.74 1451.78 Z" fill="#000000" fill-rule="nonzero" fill-opacity="1" /><path clip-path="url(#clip960)" d="M1342.62 1466.44 Q1339.47 1466.44 1337.62 1468.59 Q1335.79 1470.74 1335.79 1474.49 Q1335.79 1478.22 1337.62 1480.39 Q1339.47 1482.55 1342.62 1482.55 Q1345.77 1482.55 1347.6 1480.39 Q1349.45 1478.22 1349.45 1474.49 Q1349.45 1470.74 1347.6 1468.59 Q1345.77 1466.44 1342.62 1466.44 M1351.9 1451.78 L1351.9 1456.04 Q1350.14 1455.21 1348.34 1454.77 Q1346.55 1454.33 1344.8 1454.33 Q1340.17 1454.33 1337.71 1457.45 Q1335.28 1460.58 1334.93 1466.9 Q1336.3 1464.89 1338.36 1463.82 Q1340.42 1462.73 1342.9 1462.73 Q1348.11 1462.73 1351.12 1465.9 Q1354.15 1469.05 1354.15 1474.49 Q1354.15 1479.82 1351 1483.03 Q1347.85 1486.25 1342.62 1486.25 Q1336.62 1486.25 1333.45 1481.67 Q1330.28 1477.06 1330.28 1468.33 Q1330.28 1460.14 1334.17 1455.28 Q1338.06 1450.39 1344.61 1450.39 Q1346.37 1450.39 1348.15 1450.74 Q1349.96 1451.09 1351.9 1451.78 Z" fill="#000000" fill-rule="nonzero" fill-opacity="1" /><path clip-path="url(#clip960)" d="M1362.2 1479.7 L1367.09 1479.7 L1367.09 1485.58 L1362.2 1485.58 L1362.2 1479.7 Z" fill="#000000" fill-rule="nonzero" fill-opacity="1" /><path clip-path="url(#clip960)" d="M1387.27 1454.1 Q1383.66 1454.1 1381.83 1457.66 Q1380.03 1461.2 1380.03 1468.33 Q1380.03 1475.44 1381.83 1479.01 Q1383.66 1482.55 1387.27 1482.55 Q1390.91 1482.55 1392.71 1479.01 Q1394.54 1475.44 1394.54 1468.33 Q1394.54 1461.2 1392.71 1457.66 Q1390.91 1454.1 1387.27 1454.1 M1387.27 1450.39 Q1393.08 1450.39 1396.14 1455 Q1399.22 1459.58 1399.22 1468.33 Q1399.22 1477.06 1396.14 1481.67 Q1393.08 1486.25 1387.27 1486.25 Q1381.46 1486.25 1378.38 1481.67 Q1375.33 1477.06 1375.33 1468.33 Q1375.33 1459.58 1378.38 1455 Q1381.46 1450.39 1387.27 1450.39 Z" fill="#000000" fill-rule="nonzero" fill-opacity="1" /><path clip-path="url(#clip960)" d="M1417.43 1454.1 Q1413.82 1454.1 1411.99 1457.66 Q1410.19 1461.2 1410.19 1468.33 Q1410.19 1475.44 1411.99 1479.01 Q1413.82 1482.55 1417.43 1482.55 Q1421.07 1482.55 1422.87 1479.01 Q1424.7 1475.44 1424.7 1468.33 Q1424.7 1461.2 1422.87 1457.66 Q1421.07 1454.1 1417.43 1454.1 M1417.43 1450.39 Q1423.24 1450.39 1426.3 1455 Q1429.38 1459.58 1429.38 1468.33 Q1429.38 1477.06 1426.3 1481.67 Q1423.24 1486.25 1417.43 1486.25 Q1411.62 1486.25 1408.55 1481.67 Q1405.49 1477.06 1405.49 1468.33 Q1405.49 1459.58 1408.55 1455 Q1411.62 1450.39 1417.43 1450.39 Z" fill="#000000" fill-rule="nonzero" fill-opacity="1" /><path clip-path="url(#clip960)" d="M1751.76 1466.44 Q1748.62 1466.44 1746.76 1468.59 Q1744.93 1470.74 1744.93 1474.49 Q1744.93 1478.22 1746.76 1480.39 Q1748.62 1482.55 1751.76 1482.55 Q1754.91 1482.55 1756.74 1480.39 Q1758.59 1478.22 1758.59 1474.49 Q1758.59 1470.74 1756.74 1468.59 Q1754.91 1466.44 1751.76 1466.44 M1761.05 1451.78 L1761.05 1456.04 Q1759.29 1455.21 1757.48 1454.77 Q1755.7 1454.33 1753.94 1454.33 Q1749.31 1454.33 1746.86 1457.45 Q1744.43 1460.58 1744.08 1466.9 Q1745.44 1464.89 1747.5 1463.82 Q1749.56 1462.73 1752.04 1462.73 Q1757.25 1462.73 1760.26 1465.9 Q1763.29 1469.05 1763.29 1474.49 Q1763.29 1479.82 1760.14 1483.03 Q1756.99 1486.25 1751.76 1486.25 Q1745.77 1486.25 1742.6 1481.67 Q1739.43 1477.06 1739.43 1468.33 Q1739.43 1460.14 1743.31 1455.28 Q1747.2 1450.39 1753.75 1450.39 Q1755.51 1450.39 1757.3 1450.74 Q1759.1 1451.09 1761.05 1451.78 Z" fill="#000000" fill-rule="nonzero" fill-opacity="1" /><path clip-path="url(#clip960)" d="M1781.93 1466.44 Q1778.78 1466.44 1776.93 1468.59 Q1775.1 1470.74 1775.1 1474.49 Q1775.1 1478.22 1776.93 1480.39 Q1778.78 1482.55 1781.93 1482.55 Q1785.07 1482.55 1786.9 1480.39 Q1788.75 1478.22 1788.75 1474.49 Q1788.75 1470.74 1786.9 1468.59 Q1785.07 1466.44 1781.93 1466.44 M1791.21 1451.78 L1791.21 1456.04 Q1789.45 1455.21 1787.64 1454.77 Q1785.86 1454.33 1784.1 1454.33 Q1779.47 1454.33 1777.02 1457.45 Q1774.59 1460.58 1774.24 1466.9 Q1775.61 1464.89 1777.67 1463.82 Q1779.73 1462.73 1782.2 1462.73 Q1787.41 1462.73 1790.42 1465.9 Q1793.45 1469.05 1793.45 1474.49 Q1793.45 1479.82 1790.3 1483.03 Q1787.16 1486.25 1781.93 1486.25 Q1775.93 1486.25 1772.76 1481.67 Q1769.59 1477.06 1769.59 1468.33 Q1769.59 1460.14 1773.48 1455.28 Q1777.37 1450.39 1783.92 1450.39 Q1785.68 1450.39 1787.46 1450.74 Q1789.26 1451.09 1791.21 1451.78 Z" fill="#000000" fill-rule="nonzero" fill-opacity="1" /><path clip-path="url(#clip960)" d="M1801.51 1479.7 L1806.39 1479.7 L1806.39 1485.58 L1801.51 1485.58 L1801.51 1479.7 Z" fill="#000000" fill-rule="nonzero" fill-opacity="1" /><path clip-path="url(#clip960)" d="M1820.61 1481.64 L1836.92 1481.64 L1836.92 1485.58 L1814.98 1485.58 L1814.98 1481.64 Q1817.64 1478.89 1822.23 1474.26 Q1826.83 1469.61 1828.01 1468.27 Q1830.26 1465.74 1831.14 1464.01 Q1832.04 1462.25 1832.04 1460.56 Q1832.04 1457.8 1830.1 1456.07 Q1828.17 1454.33 1825.07 1454.33 Q1822.87 1454.33 1820.42 1455.09 Q1817.99 1455.86 1815.21 1457.41 L1815.21 1452.69 Q1818.04 1451.55 1820.49 1450.97 Q1822.94 1450.39 1824.98 1450.39 Q1830.35 1450.39 1833.55 1453.08 Q1836.74 1455.77 1836.74 1460.26 Q1836.74 1462.39 1835.93 1464.31 Q1835.14 1466.2 1833.04 1468.8 Q1832.46 1469.47 1829.36 1472.69 Q1826.25 1475.88 1820.61 1481.64 Z" fill="#000000" fill-rule="nonzero" fill-opacity="1" /><path clip-path="url(#clip960)" d="M1846.79 1451.02 L1865.14 1451.02 L1865.14 1454.96 L1851.07 1454.96 L1851.07 1463.43 Q1852.09 1463.08 1853.11 1462.92 Q1854.12 1462.73 1855.14 1462.73 Q1860.93 1462.73 1864.31 1465.9 Q1867.69 1469.08 1867.69 1474.49 Q1867.69 1480.07 1864.22 1483.17 Q1860.74 1486.25 1854.42 1486.25 Q1852.25 1486.25 1849.98 1485.88 Q1847.74 1485.51 1845.33 1484.77 L1845.33 1480.07 Q1847.41 1481.2 1849.63 1481.76 Q1851.86 1482.32 1854.33 1482.32 Q1858.34 1482.32 1860.67 1480.21 Q1863.01 1478.1 1863.01 1474.49 Q1863.01 1470.88 1860.67 1468.77 Q1858.34 1466.67 1854.33 1466.67 Q1852.46 1466.67 1850.58 1467.08 Q1848.73 1467.5 1846.79 1468.38 L1846.79 1451.02 Z" fill="#000000" fill-rule="nonzero" fill-opacity="1" /><path clip-path="url(#clip960)" d="M2190.07 1466.44 Q2186.93 1466.44 2185.07 1468.59 Q2183.24 1470.74 2183.24 1474.49 Q2183.24 1478.22 2185.07 1480.39 Q2186.93 1482.55 2190.07 1482.55 Q2193.22 1482.55 2195.05 1480.39 Q2196.9 1478.22 2196.9 1474.49 Q2196.9 1470.74 2195.05 1468.59 Q2193.22 1466.44 2190.07 1466.44 M2199.36 1451.78 L2199.36 1456.04 Q2197.6 1455.21 2195.79 1454.77 Q2194.01 1454.33 2192.25 1454.33 Q2187.62 1454.33 2185.17 1457.45 Q2182.74 1460.58 2182.39 1466.9 Q2183.75 1464.89 2185.81 1463.82 Q2187.87 1462.73 2190.35 1462.73 Q2195.56 1462.73 2198.57 1465.9 Q2201.6 1469.05 2201.6 1474.49 Q2201.6 1479.82 2198.45 1483.03 Q2195.3 1486.25 2190.07 1486.25 Q2184.08 1486.25 2180.91 1481.67 Q2177.74 1477.06 2177.74 1468.33 Q2177.74 1460.14 2181.62 1455.28 Q2185.51 1450.39 2192.06 1450.39 Q2193.82 1450.39 2195.61 1450.74 Q2197.41 1451.09 2199.36 1451.78 Z" fill="#000000" fill-rule="nonzero" fill-opacity="1" /><path clip-path="url(#clip960)" d="M2220.24 1466.44 Q2217.09 1466.44 2215.24 1468.59 Q2213.41 1470.74 2213.41 1474.49 Q2213.41 1478.22 2215.24 1480.39 Q2217.09 1482.55 2220.24 1482.55 Q2223.38 1482.55 2225.21 1480.39 Q2227.06 1478.22 2227.06 1474.49 Q2227.06 1470.74 2225.21 1468.59 Q2223.38 1466.44 2220.24 1466.44 M2229.52 1451.78 L2229.52 1456.04 Q2227.76 1455.21 2225.95 1454.77 Q2224.17 1454.33 2222.41 1454.33 Q2217.78 1454.33 2215.33 1457.45 Q2212.9 1460.58 2212.55 1466.9 Q2213.92 1464.89 2215.98 1463.82 Q2218.04 1462.73 2220.51 1462.73 Q2225.72 1462.73 2228.73 1465.9 Q2231.76 1469.05 2231.76 1474.49 Q2231.76 1479.82 2228.62 1483.03 Q2225.47 1486.25 2220.24 1486.25 Q2214.24 1486.25 2211.07 1481.67 Q2207.9 1477.06 2207.9 1468.33 Q2207.9 1460.14 2211.79 1455.28 Q2215.68 1450.39 2222.23 1450.39 Q2223.99 1450.39 2225.77 1450.74 Q2227.57 1451.09 2229.52 1451.78 Z" fill="#000000" fill-rule="nonzero" fill-opacity="1" /><path clip-path="url(#clip960)" d="M2239.82 1479.7 L2244.7 1479.7 L2244.7 1485.58 L2239.82 1485.58 L2239.82 1479.7 Z" fill="#000000" fill-rule="nonzero" fill-opacity="1" /><path clip-path="url(#clip960)" d="M2254.93 1451.02 L2273.29 1451.02 L2273.29 1454.96 L2259.22 1454.96 L2259.22 1463.43 Q2260.24 1463.08 2261.25 1462.92 Q2262.27 1462.73 2263.29 1462.73 Q2269.08 1462.73 2272.46 1465.9 Q2275.84 1469.08 2275.84 1474.49 Q2275.84 1480.07 2272.36 1483.17 Q2268.89 1486.25 2262.57 1486.25 Q2260.4 1486.25 2258.13 1485.88 Q2255.88 1485.51 2253.48 1484.77 L2253.48 1480.07 Q2255.56 1481.2 2257.78 1481.76 Q2260 1482.32 2262.48 1482.32 Q2266.49 1482.32 2268.82 1480.21 Q2271.16 1478.1 2271.16 1474.49 Q2271.16 1470.88 2268.82 1468.77 Q2266.49 1466.67 2262.48 1466.67 Q2260.61 1466.67 2258.73 1467.08 Q2256.88 1467.5 2254.93 1468.38 L2254.93 1451.02 Z" fill="#000000" fill-rule="nonzero" fill-opacity="1" /><path clip-path="url(#clip960)" d="M2295.05 1454.1 Q2291.44 1454.1 2289.61 1457.66 Q2287.8 1461.2 2287.8 1468.33 Q2287.8 1475.44 2289.61 1479.01 Q2291.44 1482.55 2295.05 1482.55 Q2298.68 1482.55 2300.49 1479.01 Q2302.32 1475.44 2302.32 1468.33 Q2302.32 1461.2 2300.49 1457.66 Q2298.68 1454.1 2295.05 1454.1 M2295.05 1450.39 Q2300.86 1450.39 2303.92 1455 Q2306.99 1459.58 2306.99 1468.33 Q2306.99 1477.06 2303.92 1481.67 Q2300.86 1486.25 2295.05 1486.25 Q2289.24 1486.25 2286.16 1481.67 Q2283.11 1477.06 2283.11 1468.33 Q2283.11 1459.58 2286.16 1455 Q2289.24 1450.39 2295.05 1450.39 Z" fill="#000000" fill-rule="nonzero" fill-opacity="1" /><path clip-path="url(#clip960)" d="M1142.01 1526.86 L1133.29 1550.51 L1150.76 1550.51 L1142.01 1526.86 M1138.38 1520.52 L1145.67 1520.52 L1163.78 1568.04 L1157.09 1568.04 L1152.76 1555.85 L1131.34 1555.85 L1127.02 1568.04 L1120.24 1568.04 L1138.38 1520.52 Z" fill="#000000" fill-rule="nonzero" fill-opacity="1" /><path clip-path="url(#clip960)" d="M1193.92 1549.81 Q1193.92 1543.44 1191.28 1539.94 Q1188.67 1536.44 1183.92 1536.44 Q1179.21 1536.44 1176.57 1539.94 Q1173.96 1543.44 1173.96 1549.81 Q1173.96 1556.14 1176.57 1559.64 Q1179.21 1563.14 1183.92 1563.14 Q1188.67 1563.14 1191.28 1559.64 Q1193.92 1556.14 1193.92 1549.81 M1199.78 1563.62 Q1199.78 1572.72 1195.73 1577.15 Q1191.69 1581.6 1183.35 1581.6 Q1180.26 1581.6 1177.53 1581.13 Q1174.79 1580.68 1172.21 1579.72 L1172.21 1574.03 Q1174.79 1575.43 1177.3 1576.1 Q1179.82 1576.76 1182.43 1576.76 Q1188.19 1576.76 1191.05 1573.74 Q1193.92 1570.75 1193.92 1564.67 L1193.92 1561.77 Q1192.1 1564.92 1189.27 1566.48 Q1186.44 1568.04 1182.49 1568.04 Q1175.94 1568.04 1171.93 1563.05 Q1167.91 1558.05 1167.91 1549.81 Q1167.91 1541.53 1171.93 1536.53 Q1175.94 1531.54 1182.49 1531.54 Q1186.44 1531.54 1189.27 1533.1 Q1192.1 1534.66 1193.92 1537.81 L1193.92 1532.4 L1199.78 1532.4 L1199.78 1563.62 Z" fill="#000000" fill-rule="nonzero" fill-opacity="1" /><path clip-path="url(#clip960)" d="M1242.33 1548.76 L1242.33 1551.62 L1215.4 1551.62 Q1215.78 1557.67 1219.03 1560.85 Q1222.31 1564 1228.13 1564 Q1231.51 1564 1234.66 1563.17 Q1237.84 1562.35 1240.96 1560.69 L1240.96 1566.23 Q1237.81 1567.57 1234.5 1568.27 Q1231.19 1568.97 1227.78 1568.97 Q1219.25 1568.97 1214.26 1564 Q1209.29 1559.04 1209.29 1550.57 Q1209.29 1541.82 1214 1536.69 Q1218.74 1531.54 1226.77 1531.54 Q1233.96 1531.54 1238.13 1536.18 Q1242.33 1540.8 1242.33 1548.76 M1236.47 1547.04 Q1236.41 1542.23 1233.77 1539.37 Q1231.16 1536.5 1226.83 1536.5 Q1221.93 1536.5 1218.97 1539.27 Q1216.04 1542.04 1215.59 1547.07 L1236.47 1547.04 Z" fill="#000000" fill-rule="nonzero" fill-opacity="1" /><path clip-path="url(#clip960)" d="M1286.73 1518.58 Q1282.47 1525.9 1280.4 1533.06 Q1278.33 1540.23 1278.33 1547.58 Q1278.33 1554.93 1280.4 1562.16 Q1282.5 1569.35 1286.73 1576.64 L1281.64 1576.64 Q1276.86 1569.16 1274.48 1561.93 Q1272.12 1554.71 1272.12 1547.58 Q1272.12 1540.48 1274.48 1533.29 Q1276.83 1526.09 1281.64 1518.58 L1286.73 1518.58 Z" fill="#000000" fill-rule="nonzero" fill-opacity="1" /><path clip-path="url(#clip960)" d="M1298.35 1520.52 L1307.93 1520.52 L1320.06 1552.86 L1332.25 1520.52 L1341.83 1520.52 L1341.83 1568.04 L1335.56 1568.04 L1335.56 1526.32 L1323.3 1558.91 L1316.84 1558.91 L1304.59 1526.32 L1304.59 1568.04 L1298.35 1568.04 L1298.35 1520.52 Z" fill="#000000" fill-rule="nonzero" fill-opacity="1" /><path clip-path="url(#clip960)" d="M1370.54 1550.12 Q1363.44 1550.12 1360.7 1551.75 Q1357.96 1553.37 1357.96 1557.29 Q1357.96 1560.4 1360 1562.25 Q1362.07 1564.07 1365.6 1564.07 Q1370.47 1564.07 1373.4 1560.63 Q1376.36 1557.16 1376.36 1551.43 L1376.36 1550.12 L1370.54 1550.12 M1382.22 1547.71 L1382.22 1568.04 L1376.36 1568.04 L1376.36 1562.63 Q1374.35 1565.88 1371.36 1567.44 Q1368.37 1568.97 1364.04 1568.97 Q1358.57 1568.97 1355.32 1565.91 Q1352.11 1562.82 1352.11 1557.67 Q1352.11 1551.65 1356.12 1548.6 Q1360.16 1545.54 1368.15 1545.54 L1376.36 1545.54 L1376.36 1544.97 Q1376.36 1540.93 1373.69 1538.73 Q1371.04 1536.5 1366.24 1536.5 Q1363.18 1536.5 1360.29 1537.23 Q1357.39 1537.97 1354.72 1539.43 L1354.72 1534.02 Q1357.93 1532.78 1360.95 1532.17 Q1363.98 1531.54 1366.84 1531.54 Q1374.58 1531.54 1378.4 1535.55 Q1382.22 1539.56 1382.22 1547.71 Z" fill="#000000" fill-rule="nonzero" fill-opacity="1" /><path clip-path="url(#clip960)" d="M1393.36 1518.58 L1398.45 1518.58 Q1403.22 1526.09 1405.58 1533.29 Q1407.97 1540.48 1407.97 1547.58 Q1407.97 1554.71 1405.58 1561.93 Q1403.22 1569.16 1398.45 1576.64 L1393.36 1576.64 Q1397.59 1569.35 1399.66 1562.16 Q1401.76 1554.93 1401.76 1547.58 Q1401.76 1540.23 1399.66 1533.06 Q1397.59 1525.9 1393.36 1518.58 Z" fill="#000000" fill-rule="nonzero" fill-opacity="1" /><polyline clip-path="url(#clip960)" style="stroke:#000000; stroke-linecap:round; stroke-linejoin:round; stroke-width:4; stroke-opacity:1; fill:none" points="175.445,1423.18 175.445,47.2441 "/>
<polyline clip-path="url(#clip960)" style="stroke:#000000; stroke-linecap:round; stroke-linejoin:round; stroke-width:4; stroke-opacity:1; fill:none" points="2352.76,1423.18 2352.76,47.2441 "/>
<polyline clip-path="url(#clip960)" style="stroke:#000000; stroke-linecap:round; stroke-linejoin:round; stroke-width:4; stroke-opacity:1; fill:none" points="175.445,1384.24 194.343,1384.24 "/>
<polyline clip-path="url(#clip960)" style="stroke:#000000; stroke-linecap:round; stroke-linejoin:round; stroke-width:4; stroke-opacity:1; fill:none" points="175.445,1059.68 194.343,1059.68 "/>
<polyline clip-path="url(#clip960)" style="stroke:#000000; stroke-linecap:round; stroke-linejoin:round; stroke-width:4; stroke-opacity:1; fill:none" points="175.445,735.128 194.343,735.128 "/>
<polyline clip-path="url(#clip960)" style="stroke:#000000; stroke-linecap:round; stroke-linejoin:round; stroke-width:4; stroke-opacity:1; fill:none" points="175.445,410.572 194.343,410.572 "/>
<polyline clip-path="url(#clip960)" style="stroke:#000000; stroke-linecap:round; stroke-linejoin:round; stroke-width:4; stroke-opacity:1; fill:none" points="175.445,86.0169 194.343,86.0169 "/>
<polyline clip-path="url(#clip960)" style="stroke:#000000; stroke-linecap:round; stroke-linejoin:round; stroke-width:4; stroke-opacity:1; fill:none" points="2352.76,1384.24 2333.86,1384.24 "/>
<polyline clip-path="url(#clip960)" style="stroke:#000000; stroke-linecap:round; stroke-linejoin:round; stroke-width:4; stroke-opacity:1; fill:none" points="2352.76,1059.68 2333.86,1059.68 "/>
<polyline clip-path="url(#clip960)" style="stroke:#000000; stroke-linecap:round; stroke-linejoin:round; stroke-width:4; stroke-opacity:1; fill:none" points="2352.76,735.128 2333.86,735.128 "/>
<polyline clip-path="url(#clip960)" style="stroke:#000000; stroke-linecap:round; stroke-linejoin:round; stroke-width:4; stroke-opacity:1; fill:none" points="2352.76,410.572 2333.86,410.572 "/>
<polyline clip-path="url(#clip960)" style="stroke:#000000; stroke-linecap:round; stroke-linejoin:round; stroke-width:4; stroke-opacity:1; fill:none" points="2352.76,86.0169 2333.86,86.0169 "/>
<path clip-path="url(#clip960)" d="M127.501 1370.04 Q123.89 1370.04 122.061 1373.6 Q120.255 1377.14 120.255 1384.27 Q120.255 1391.38 122.061 1394.94 Q123.89 1398.49 127.501 1398.49 Q131.135 1398.49 132.941 1394.94 Q134.769 1391.38 134.769 1384.27 Q134.769 1377.14 132.941 1373.6 Q131.135 1370.04 127.501 1370.04 M127.501 1366.33 Q133.311 1366.33 136.367 1370.94 Q139.445 1375.52 139.445 1384.27 Q139.445 1393 136.367 1397.61 Q133.311 1402.19 127.501 1402.19 Q121.691 1402.19 118.612 1397.61 Q115.556 1393 115.556 1384.27 Q115.556 1375.52 118.612 1370.94 Q121.691 1366.33 127.501 1366.33 Z" fill="#000000" fill-rule="nonzero" fill-opacity="1" /><path clip-path="url(#clip960)" d="M123.126 1073.03 L139.445 1073.03 L139.445 1076.96 L117.501 1076.96 L117.501 1073.03 Q120.163 1070.27 124.746 1065.64 Q129.353 1060.99 130.533 1059.65 Q132.779 1057.13 133.658 1055.39 Q134.561 1053.63 134.561 1051.94 Q134.561 1049.19 132.617 1047.45 Q130.695 1045.71 127.593 1045.71 Q125.394 1045.71 122.941 1046.48 Q120.51 1047.24 117.732 1048.79 L117.732 1044.07 Q120.556 1042.94 123.01 1042.36 Q125.464 1041.78 127.501 1041.78 Q132.871 1041.78 136.066 1044.46 Q139.26 1047.15 139.26 1051.64 Q139.26 1053.77 138.45 1055.69 Q137.663 1057.59 135.556 1060.18 Q134.978 1060.85 131.876 1064.07 Q128.774 1067.26 123.126 1073.03 Z" fill="#000000" fill-rule="nonzero" fill-opacity="1" /><path clip-path="url(#clip960)" d="M129.862 721.922 L118.056 740.371 L129.862 740.371 L129.862 721.922 M128.635 717.848 L134.515 717.848 L134.515 740.371 L139.445 740.371 L139.445 744.259 L134.515 744.259 L134.515 752.408 L129.862 752.408 L129.862 744.259 L114.26 744.259 L114.26 739.746 L128.635 717.848 Z" fill="#000000" fill-rule="nonzero" fill-opacity="1" /><path clip-path="url(#clip960)" d="M127.917 408.709 Q124.769 408.709 122.918 410.862 Q121.089 413.014 121.089 416.764 Q121.089 420.491 122.918 422.667 Q124.769 424.82 127.917 424.82 Q131.066 424.82 132.894 422.667 Q134.746 420.491 134.746 416.764 Q134.746 413.014 132.894 410.862 Q131.066 408.709 127.917 408.709 M137.2 394.056 L137.2 398.315 Q135.441 397.482 133.635 397.042 Q131.853 396.602 130.093 396.602 Q125.464 396.602 123.01 399.727 Q120.58 402.852 120.232 409.172 Q121.598 407.158 123.658 406.093 Q125.718 405.005 128.195 405.005 Q133.404 405.005 136.413 408.176 Q139.445 411.325 139.445 416.764 Q139.445 422.088 136.297 425.306 Q133.149 428.524 127.917 428.524 Q121.922 428.524 118.751 423.94 Q115.58 419.334 115.58 410.607 Q115.58 402.413 119.468 397.551 Q123.357 392.667 129.908 392.667 Q131.667 392.667 133.45 393.014 Q135.255 393.362 137.2 394.056 Z" fill="#000000" fill-rule="nonzero" fill-opacity="1" /><path clip-path="url(#clip960)" d="M127.593 86.885 Q124.26 86.885 122.339 88.6674 Q120.441 90.4498 120.441 93.5747 Q120.441 96.6997 122.339 98.4821 Q124.26 100.265 127.593 100.265 Q130.927 100.265 132.848 98.4821 Q134.769 96.6766 134.769 93.5747 Q134.769 90.4498 132.848 88.6674 Q130.95 86.885 127.593 86.885 M122.918 84.8942 Q119.908 84.1535 118.218 82.0933 Q116.552 80.0331 116.552 77.0702 Q116.552 72.9267 119.492 70.5193 Q122.455 68.1119 127.593 68.1119 Q132.755 68.1119 135.695 70.5193 Q138.635 72.9267 138.635 77.0702 Q138.635 80.0331 136.945 82.0933 Q135.279 84.1535 132.292 84.8942 Q135.672 85.6813 137.547 87.9729 Q139.445 90.2646 139.445 93.5747 Q139.445 98.5979 136.367 101.283 Q133.311 103.968 127.593 103.968 Q121.876 103.968 118.797 101.283 Q115.742 98.5979 115.742 93.5747 Q115.742 90.2646 117.64 87.9729 Q119.538 85.6813 122.918 84.8942 M121.205 77.51 Q121.205 80.1952 122.871 81.6998 Q124.561 83.2044 127.593 83.2044 Q130.603 83.2044 132.292 81.6998 Q134.005 80.1952 134.005 77.51 Q134.005 74.8248 132.292 73.3202 Q130.603 71.8156 127.593 71.8156 Q124.561 71.8156 122.871 73.3202 Q121.205 74.8248 121.205 77.51 Z" fill="#000000" fill-rule="nonzero" fill-opacity="1" /><path clip-path="url(#clip960)" d="M21.7677 1026.76 L39.6235 1026.76 L39.6235 1018.68 Q39.6235 1014.19 37.3 1011.74 Q34.9765 1009.29 30.6797 1009.29 Q26.4147 1009.29 24.0912 1011.74 Q21.7677 1014.19 21.7677 1018.68 L21.7677 1026.76 M16.4842 1033.19 L16.4842 1018.68 Q16.4842 1010.69 20.1126 1006.61 Q23.7092 1002.51 30.6797 1002.51 Q37.7138 1002.51 41.3104 1006.61 Q44.907 1010.69 44.907 1018.68 L44.907 1026.76 L64.0042 1026.76 L64.0042 1033.19 L16.4842 1033.19 Z" fill="#000000" fill-rule="nonzero" fill-opacity="1" /><path clip-path="url(#clip960)" d="M33.8307 974.626 Q33.2578 975.613 33.0032 976.791 Q32.7167 977.936 32.7167 979.337 Q32.7167 984.302 35.9632 986.976 Q39.1779 989.617 45.2253 989.617 L64.0042 989.617 L64.0042 995.506 L28.3562 995.506 L28.3562 989.617 L33.8944 989.617 Q30.6479 987.771 29.0883 984.811 Q27.4968 981.851 27.4968 977.618 Q27.4968 977.013 27.5923 976.281 Q27.656 975.549 27.8151 974.658 L33.8307 974.626 Z" fill="#000000" fill-rule="nonzero" fill-opacity="1" /><path clip-path="url(#clip960)" d="M32.4621 956.102 Q32.4621 960.813 36.1542 963.55 Q39.8145 966.287 46.212 966.287 Q52.6095 966.287 56.3017 963.582 Q59.9619 960.844 59.9619 956.102 Q59.9619 951.423 56.2698 948.686 Q52.5777 945.949 46.212 945.949 Q39.8781 945.949 36.186 948.686 Q32.4621 951.423 32.4621 956.102 M27.4968 956.102 Q27.4968 948.463 32.4621 944.103 Q37.4273 939.742 46.212 939.742 Q54.9649 939.742 59.9619 944.103 Q64.9272 948.463 64.9272 956.102 Q64.9272 963.773 59.9619 968.133 Q54.9649 972.462 46.212 972.462 Q37.4273 972.462 32.4621 968.133 Q27.4968 963.773 27.4968 956.102 Z" fill="#000000" fill-rule="nonzero" fill-opacity="1" /><path clip-path="url(#clip960)" d="M46.212 904.444 Q39.7508 904.444 36.0905 907.118 Q32.3984 909.76 32.3984 914.407 Q32.3984 919.054 36.0905 921.727 Q39.7508 924.369 46.212 924.369 Q52.6732 924.369 56.3653 921.727 Q60.0256 919.054 60.0256 914.407 Q60.0256 909.76 56.3653 907.118 Q52.6732 904.444 46.212 904.444 M33.7671 924.369 Q30.5842 922.523 29.0564 919.722 Q27.4968 916.889 27.4968 912.974 Q27.4968 906.481 32.6531 902.439 Q37.8093 898.365 46.212 898.365 Q54.6147 898.365 59.771 902.439 Q64.9272 906.481 64.9272 912.974 Q64.9272 916.889 63.3994 919.722 Q61.8398 922.523 58.657 924.369 L64.0042 924.369 L64.0042 930.257 L14.479 930.257 L14.479 924.369 L33.7671 924.369 Z" fill="#000000" fill-rule="nonzero" fill-opacity="1" /><path clip-path="url(#clip960)" d="M46.0847 872.457 Q46.0847 879.554 47.7079 882.292 Q49.3312 885.029 53.2461 885.029 Q56.3653 885.029 58.2114 882.992 Q60.0256 880.923 60.0256 877.39 Q60.0256 872.52 56.5881 869.592 Q53.1188 866.632 47.3897 866.632 L46.0847 866.632 L46.0847 872.457 M43.6657 860.776 L64.0042 860.776 L64.0042 866.632 L58.5933 866.632 Q61.8398 868.637 63.3994 871.629 Q64.9272 874.621 64.9272 878.95 Q64.9272 884.424 61.8716 887.671 Q58.7843 890.885 53.6281 890.885 Q47.6125 890.885 44.5569 886.875 Q41.5014 882.833 41.5014 874.844 L41.5014 866.632 L40.9285 866.632 Q36.8862 866.632 34.6901 869.306 Q32.4621 871.947 32.4621 876.753 Q32.4621 879.809 33.1941 882.705 Q33.9262 885.602 35.3903 888.275 L29.9795 888.275 Q28.7381 885.061 28.1334 882.037 Q27.4968 879.013 27.4968 876.149 Q27.4968 868.414 31.5072 864.595 Q35.5176 860.776 43.6657 860.776 Z" fill="#000000" fill-rule="nonzero" fill-opacity="1" /><path clip-path="url(#clip960)" d="M46.212 823.122 Q39.7508 823.122 36.0905 825.796 Q32.3984 828.438 32.3984 833.085 Q32.3984 837.732 36.0905 840.405 Q39.7508 843.047 46.212 843.047 Q52.6732 843.047 56.3653 840.405 Q60.0256 837.732 60.0256 833.085 Q60.0256 828.438 56.3653 825.796 Q52.6732 823.122 46.212 823.122 M33.7671 843.047 Q30.5842 841.201 29.0564 838.4 Q27.4968 835.567 27.4968 831.652 Q27.4968 825.159 32.6531 821.117 Q37.8093 817.043 46.212 817.043 Q54.6147 817.043 59.771 821.117 Q64.9272 825.159 64.9272 831.652 Q64.9272 835.567 63.3994 838.4 Q61.8398 841.201 58.657 843.047 L64.0042 843.047 L64.0042 848.935 L14.479 848.935 L14.479 843.047 L33.7671 843.047 Z" fill="#000000" fill-rule="nonzero" fill-opacity="1" /><path clip-path="url(#clip960)" d="M28.3562 807.335 L28.3562 801.479 L64.0042 801.479 L64.0042 807.335 L28.3562 807.335 M14.479 807.335 L14.479 801.479 L21.895 801.479 L21.895 807.335 L14.479 807.335 Z" fill="#000000" fill-rule="nonzero" fill-opacity="1" /><path clip-path="url(#clip960)" d="M14.479 789.225 L14.479 783.369 L64.0042 783.369 L64.0042 789.225 L14.479 789.225 Z" fill="#000000" fill-rule="nonzero" fill-opacity="1" /><path clip-path="url(#clip960)" d="M28.3562 771.115 L28.3562 765.258 L64.0042 765.258 L64.0042 771.115 L28.3562 771.115 M14.479 771.115 L14.479 765.258 L21.895 765.258 L21.895 771.115 L14.479 771.115 Z" fill="#000000" fill-rule="nonzero" fill-opacity="1" /><path clip-path="url(#clip960)" d="M18.2347 747.211 L28.3562 747.211 L28.3562 735.148 L32.9077 735.148 L32.9077 747.211 L52.2594 747.211 Q56.6199 747.211 57.8613 746.034 Q59.1026 744.824 59.1026 741.164 L59.1026 735.148 L64.0042 735.148 L64.0042 741.164 Q64.0042 747.943 61.4897 750.521 Q58.9434 753.1 52.2594 753.1 L32.9077 753.1 L32.9077 757.396 L28.3562 757.396 L28.3562 753.1 L18.2347 753.1 L18.2347 747.211 Z" fill="#000000" fill-rule="nonzero" fill-opacity="1" /><path clip-path="url(#clip960)" d="M67.3143 712.614 Q73.68 715.096 75.6216 717.452 Q77.5631 719.807 77.5631 723.754 L77.5631 728.432 L72.6615 728.432 L72.6615 724.995 Q72.6615 722.576 71.5157 721.239 Q70.3699 719.902 66.1048 718.279 L63.4312 717.229 L28.3562 731.647 L28.3562 725.441 L56.238 714.301 L28.3562 703.161 L28.3562 696.954 L67.3143 712.614 Z" fill="#000000" fill-rule="nonzero" fill-opacity="1" /><path clip-path="url(#clip960)" d="M33.7671 644.692 L14.479 644.692 L14.479 638.835 L64.0042 638.835 L64.0042 644.692 L58.657 644.692 Q61.8398 646.538 63.3994 649.37 Q64.9272 652.171 64.9272 656.118 Q64.9272 662.579 59.771 666.653 Q54.6147 670.696 46.212 670.696 Q37.8093 670.696 32.6531 666.653 Q27.4968 662.579 27.4968 656.118 Q27.4968 652.171 29.0564 649.37 Q30.5842 646.538 33.7671 644.692 M46.212 664.648 Q52.6732 664.648 56.3653 662.006 Q60.0256 659.333 60.0256 654.686 Q60.0256 650.039 56.3653 647.365 Q52.6732 644.692 46.212 644.692 Q39.7508 644.692 36.0905 647.365 Q32.3984 650.039 32.3984 654.686 Q32.3984 659.333 36.0905 662.006 Q39.7508 664.648 46.212 664.648 Z" fill="#000000" fill-rule="nonzero" fill-opacity="1" /><path clip-path="url(#clip960)" d="M44.7161 596.28 L47.5806 596.28 L47.5806 623.207 Q53.6281 622.825 56.8109 619.579 Q59.9619 616.301 59.9619 610.476 Q59.9619 607.102 59.1344 603.951 Q58.3069 600.768 56.6518 597.649 L62.1899 597.649 Q63.5267 600.8 64.227 604.11 Q64.9272 607.42 64.9272 610.826 Q64.9272 619.356 59.9619 624.353 Q54.9967 629.318 46.5303 629.318 Q37.7774 629.318 32.6531 624.608 Q27.4968 619.865 27.4968 611.845 Q27.4968 604.651 32.1438 600.482 Q36.7589 596.28 44.7161 596.28 M42.9973 602.137 Q38.1912 602.201 35.3266 604.842 Q32.4621 607.452 32.4621 611.781 Q32.4621 616.683 35.2312 619.643 Q38.0002 622.571 43.0292 623.016 L42.9973 602.137 Z" fill="#000000" fill-rule="nonzero" fill-opacity="1" /><path clip-path="url(#clip960)" d="M42.4881 557.036 L64.0042 557.036 L64.0042 562.892 L42.679 562.892 Q37.6183 562.892 35.1038 564.866 Q32.5894 566.839 32.5894 570.786 Q32.5894 575.528 35.6131 578.265 Q38.6368 581.003 43.8567 581.003 L64.0042 581.003 L64.0042 586.891 L28.3562 586.891 L28.3562 581.003 L33.8944 581.003 Q30.6797 578.902 29.0883 576.069 Q27.4968 573.205 27.4968 569.481 Q27.4968 563.338 31.3163 560.187 Q35.1038 557.036 42.4881 557.036 Z" fill="#000000" fill-rule="nonzero" fill-opacity="1" /><path clip-path="url(#clip960)" d="M29.4065 522.629 L34.9447 522.629 Q33.6716 525.112 33.035 527.785 Q32.3984 530.459 32.3984 533.324 Q32.3984 537.684 33.7352 539.88 Q35.072 542.045 37.7456 542.045 Q39.7826 542.045 40.9603 540.485 Q42.1061 538.925 43.1565 534.215 L43.6021 532.21 Q44.9389 525.971 47.3897 523.361 Q49.8086 520.719 54.1691 520.719 Q59.1344 520.719 62.0308 524.666 Q64.9272 528.581 64.9272 535.456 Q64.9272 538.321 64.3543 541.44 Q63.8132 544.527 62.6992 547.965 L56.6518 547.965 Q58.3387 544.718 59.198 541.567 Q60.0256 538.416 60.0256 535.329 Q60.0256 531.191 58.6251 528.963 Q57.1929 526.735 54.6147 526.735 Q52.2276 526.735 50.9545 528.358 Q49.6813 529.95 48.5037 535.392 L48.0262 537.429 Q46.8804 542.872 44.5251 545.291 Q42.138 547.71 38.0002 547.71 Q32.9713 547.71 30.2341 544.145 Q27.4968 540.58 27.4968 534.024 Q27.4968 530.777 27.9743 527.913 Q28.4517 525.048 29.4065 522.629 Z" fill="#000000" fill-rule="nonzero" fill-opacity="1" /><path clip-path="url(#clip960)" d="M28.3562 511.394 L28.3562 505.537 L64.0042 505.537 L64.0042 511.394 L28.3562 511.394 M14.479 511.394 L14.479 505.537 L21.895 505.537 L21.895 511.394 L14.479 511.394 Z" fill="#000000" fill-rule="nonzero" fill-opacity="1" /><path clip-path="url(#clip960)" d="M18.2347 487.49 L28.3562 487.49 L28.3562 475.427 L32.9077 475.427 L32.9077 487.49 L52.2594 487.49 Q56.6199 487.49 57.8613 486.313 Q59.1026 485.103 59.1026 481.443 L59.1026 475.427 L64.0042 475.427 L64.0042 481.443 Q64.0042 488.223 61.4897 490.801 Q58.9434 493.379 52.2594 493.379 L32.9077 493.379 L32.9077 497.676 L28.3562 497.676 L28.3562 493.379 L18.2347 493.379 L18.2347 487.49 Z" fill="#000000" fill-rule="nonzero" fill-opacity="1" /><path clip-path="url(#clip960)" d="M67.3143 452.893 Q73.68 455.376 75.6216 457.731 Q77.5631 460.086 77.5631 464.033 L77.5631 468.712 L72.6615 468.712 L72.6615 465.274 Q72.6615 462.855 71.5157 461.518 Q70.3699 460.182 66.1048 458.558 L63.4312 457.508 L28.3562 471.926 L28.3562 465.72 L56.238 454.58 L28.3562 443.44 L28.3562 437.233 L67.3143 452.893 Z" fill="#000000" fill-rule="nonzero" fill-opacity="1" /><polyline clip-path="url(#clip962)" style="stroke:#009af9; stroke-linecap:round; stroke-linejoin:round; stroke-width:4; stroke-opacity:1; fill:none" points="237.067,1384.23 282.212,1384.23 327.356,1384.2 395.072,1384.06 417.645,1384.11 440.217,1384.23 507.933,1384.23 530.505,1384.2 553.077,1384.23 598.222,1384.2 643.366,1384.23 711.083,1384.21 756.227,1384.21 778.799,1384.19 823.943,1384.23 846.516,1384.17 869.088,1384.15 891.66,1384.2 914.232,1384.21 936.804,1384.1 959.376,1384.16 981.949,1383.99 1004.52,1384.21 1027.09,1384.04 1049.67,1384.23 1072.24,1384.21 1094.81,1384.19 1117.38,1383.93 1139.95,1384.08 1162.53,1383.71 1185.1,1384 1207.67,1383.9 1230.24,1383.16 1252.81,1383.87 1275.39,1383.32 1297.96,1383.52 1320.53,1383.99 1343.1,1383.65 1365.68,1383.3 1388.25,1383.73 1410.82,1382.94 1433.39,1383.11 1455.96,1382.65 1478.54,1381.89 1501.11,1381.56 1523.68,1381.6 1546.25,1380.32 1568.82,1379.51 1591.4,1379.73 1613.97,1377.34 1636.54,1375.41 1659.11,1373.68 1681.69,1368.43 1704.26,1365.48 1726.83,1353.86 1749.4,1343.36 1771.97,1318.51 1794.55,1299.31 1817.12,1275.28 1839.69,1232.63 1862.26,1150.75 1884.83,1054.09 1907.41,913.724 1929.98,749.213 1952.55,535.292 1975.12,437.64 1997.7,345.609 2020.27,251.904 2042.84,165.896 2065.41,105.919 2087.98,86.1857 2110.56,183.513 2133.13,495.242 2155.7,880.97 2178.27,1148.29 2200.85,1282.19 2223.42,1351.98 2245.99,1374.97 2268.56,1382.24 2291.13,1383.65 "/>
<polyline clip-path="url(#clip962)" style="stroke:#e26f46; stroke-linecap:round; stroke-linejoin:round; stroke-width:4; stroke-opacity:1; fill:none" points="237.067,1384.24 282.212,1384.24 327.356,1384.24 395.072,1384.24 417.645,1384.24 440.217,1384.24 507.933,1384.24 530.505,1384.24 553.077,1384.24 598.222,1384.24 643.366,1384.24 711.083,1384.24 756.227,1384.24 778.799,1384.24 823.943,1384.24 846.516,1384.24 869.088,1384.24 891.66,1384.24 914.232,1384.24 936.804,1384.24 959.376,1384.24 981.949,1384.24 1004.52,1384.24 1027.09,1384.24 1049.67,1384.24 1072.24,1384.24 1094.81,1384.23 1117.38,1384.23 1139.95,1384.23 1162.53,1384.23 1185.1,1384.22 1207.67,1384.22 1230.24,1384.21 1252.81,1384.2 1275.39,1384.18 1297.96,1384.15 1320.53,1384.12 1343.1,1384.07 1365.68,1384 1388.25,1383.91 1410.82,1383.78 1433.39,1383.59 1455.96,1383.34 1478.54,1382.98 1501.11,1382.48 1523.68,1381.78 1546.25,1380.81 1568.82,1379.47 1591.4,1377.62 1613.97,1375.06 1636.54,1371.54 1659.11,1366.72 1681.69,1360.13 1704.26,1351.17 1726.83,1339.04 1749.4,1322.71 1771.97,1300.88 1794.55,1271.93 1817.12,1233.88 1839.69,1184.46 1862.26,1121.14 1884.83,1041.41 1907.41,943.12 1929.98,825.252 1952.55,688.909 1975.12,538.771 1997.7,384.775 2020.27,243.643 2042.84,139.311 2065.41,100.719 2087.98,155.076 2110.56,315.716 2133.13,567.43 2155.7,859.025 2178.27,1117.36 2200.85,1286.08 2223.42,1361.12 2245.99,1381.29 2268.56,1384.07 2291.13,1384.24 "/>
<path clip-path="url(#clip960)" d="M248.022 248.629 L800.057 248.629 L800.057 93.1086 L248.022 93.1086  Z" fill="#ffffff" fill-rule="evenodd" fill-opacity="1"/>
<polyline clip-path="url(#clip960)" style="stroke:#ffffff; stroke-linecap:round; stroke-linejoin:round; stroke-width:4; stroke-opacity:1; fill:none" points="248.022,248.629 800.057,248.629 800.057,93.1086 248.022,93.1086 248.022,248.629 "/>
<polyline clip-path="url(#clip960)" style="stroke:#009af9; stroke-linecap:round; stroke-linejoin:round; stroke-width:4; stroke-opacity:1; fill:none" points="272.215,144.949 417.369,144.949 "/>
<path clip-path="url(#clip960)" d="M441.561 127.669 L446.237 127.669 L446.237 141.835 L463.228 141.835 L463.228 127.669 L467.903 127.669 L467.903 162.229 L463.228 162.229 L463.228 145.77 L446.237 145.77 L446.237 162.229 L441.561 162.229 L441.561 127.669 Z" fill="#000000" fill-rule="nonzero" fill-opacity="1" /><path clip-path="url(#clip960)" d="M477.024 136.303 L481.283 136.303 L481.283 162.229 L477.024 162.229 L477.024 136.303 M477.024 126.21 L481.283 126.21 L481.283 131.604 L477.024 131.604 L477.024 126.21 Z" fill="#000000" fill-rule="nonzero" fill-opacity="1" /><path clip-path="url(#clip960)" d="M506.723 137.067 L506.723 141.094 Q504.917 140.169 502.973 139.706 Q501.028 139.243 498.945 139.243 Q495.774 139.243 494.176 140.215 Q492.602 141.187 492.602 143.131 Q492.602 144.613 493.737 145.469 Q494.871 146.303 498.297 147.067 L499.755 147.391 Q504.292 148.363 506.19 150.145 Q508.112 151.905 508.112 155.076 Q508.112 158.687 505.241 160.793 Q502.394 162.9 497.394 162.9 Q495.311 162.9 493.042 162.483 Q490.797 162.09 488.297 161.28 L488.297 156.881 Q490.658 158.108 492.95 158.733 Q495.241 159.335 497.487 159.335 Q500.496 159.335 502.116 158.317 Q503.737 157.275 503.737 155.4 Q503.737 153.664 502.556 152.738 Q501.399 151.812 497.44 150.956 L495.959 150.608 Q492.001 149.775 490.241 148.062 Q488.482 146.326 488.482 143.317 Q488.482 139.659 491.075 137.669 Q493.667 135.678 498.436 135.678 Q500.797 135.678 502.88 136.025 Q504.963 136.372 506.723 137.067 Z" fill="#000000" fill-rule="nonzero" fill-opacity="1" /><path clip-path="url(#clip960)" d="M519.107 128.942 L519.107 136.303 L527.88 136.303 L527.88 139.613 L519.107 139.613 L519.107 153.687 Q519.107 156.858 519.963 157.761 Q520.843 158.664 523.505 158.664 L527.88 158.664 L527.88 162.229 L523.505 162.229 Q518.574 162.229 516.699 160.4 Q514.824 158.548 514.824 153.687 L514.824 139.613 L511.699 139.613 L511.699 136.303 L514.824 136.303 L514.824 128.942 L519.107 128.942 Z" fill="#000000" fill-rule="nonzero" fill-opacity="1" /><path clip-path="url(#clip960)" d="M543.528 139.289 Q540.102 139.289 538.111 141.974 Q536.121 144.636 536.121 149.289 Q536.121 153.942 538.088 156.627 Q540.079 159.289 543.528 159.289 Q546.931 159.289 548.921 156.604 Q550.912 153.918 550.912 149.289 Q550.912 144.682 548.921 141.997 Q546.931 139.289 543.528 139.289 M543.528 135.678 Q549.084 135.678 552.255 139.289 Q555.426 142.9 555.426 149.289 Q555.426 155.655 552.255 159.289 Q549.084 162.9 543.528 162.9 Q537.949 162.9 534.778 159.289 Q531.63 155.655 531.63 149.289 Q531.63 142.9 534.778 139.289 Q537.949 135.678 543.528 135.678 Z" fill="#000000" fill-rule="nonzero" fill-opacity="1" /><path clip-path="url(#clip960)" d="M579.546 148.965 Q579.546 144.335 577.625 141.789 Q575.727 139.243 572.278 139.243 Q568.852 139.243 566.931 141.789 Q565.033 144.335 565.033 148.965 Q565.033 153.571 566.931 156.118 Q568.852 158.664 572.278 158.664 Q575.727 158.664 577.625 156.118 Q579.546 153.571 579.546 148.965 M583.806 159.011 Q583.806 165.631 580.866 168.849 Q577.926 172.09 571.861 172.09 Q569.616 172.09 567.625 171.742 Q565.634 171.418 563.759 170.724 L563.759 166.58 Q565.634 167.599 567.463 168.085 Q569.292 168.571 571.19 168.571 Q575.38 168.571 577.463 166.372 Q579.546 164.196 579.546 159.775 L579.546 157.668 Q578.227 159.96 576.167 161.094 Q574.107 162.229 571.236 162.229 Q566.468 162.229 563.551 158.594 Q560.634 154.96 560.634 148.965 Q560.634 142.946 563.551 139.312 Q566.468 135.678 571.236 135.678 Q574.107 135.678 576.167 136.812 Q578.227 137.946 579.546 140.238 L579.546 136.303 L583.806 136.303 L583.806 159.011 Z" fill="#000000" fill-rule="nonzero" fill-opacity="1" /><path clip-path="url(#clip960)" d="M607.602 140.284 Q606.884 139.868 606.028 139.682 Q605.194 139.474 604.176 139.474 Q600.565 139.474 598.62 141.835 Q596.699 144.173 596.699 148.571 L596.699 162.229 L592.417 162.229 L592.417 136.303 L596.699 136.303 L596.699 140.331 Q598.042 137.969 600.194 136.835 Q602.347 135.678 605.426 135.678 Q605.866 135.678 606.398 135.747 Q606.93 135.794 607.579 135.909 L607.602 140.284 Z" fill="#000000" fill-rule="nonzero" fill-opacity="1" /><path clip-path="url(#clip960)" d="M623.852 149.196 Q618.69 149.196 616.699 150.377 Q614.708 151.557 614.708 154.405 Q614.708 156.673 616.19 158.016 Q617.694 159.335 620.264 159.335 Q623.805 159.335 625.935 156.835 Q628.088 154.312 628.088 150.145 L628.088 149.196 L623.852 149.196 M632.347 147.437 L632.347 162.229 L628.088 162.229 L628.088 158.293 Q626.629 160.655 624.453 161.789 Q622.278 162.9 619.129 162.9 Q615.148 162.9 612.787 160.678 Q610.449 158.432 610.449 154.682 Q610.449 150.307 613.366 148.085 Q616.305 145.863 622.116 145.863 L628.088 145.863 L628.088 145.446 Q628.088 142.507 626.143 140.909 Q624.222 139.289 620.727 139.289 Q618.504 139.289 616.398 139.821 Q614.292 140.354 612.347 141.419 L612.347 137.483 Q614.685 136.581 616.884 136.141 Q619.083 135.678 621.166 135.678 Q626.791 135.678 629.569 138.594 Q632.347 141.511 632.347 147.437 Z" fill="#000000" fill-rule="nonzero" fill-opacity="1" /><path clip-path="url(#clip960)" d="M661.305 141.28 Q662.902 138.409 665.125 137.044 Q667.347 135.678 670.356 135.678 Q674.407 135.678 676.606 138.525 Q678.805 141.349 678.805 146.581 L678.805 162.229 L674.523 162.229 L674.523 146.719 Q674.523 142.993 673.203 141.187 Q671.884 139.382 669.175 139.382 Q665.865 139.382 663.944 141.581 Q662.023 143.78 662.023 147.576 L662.023 162.229 L657.74 162.229 L657.74 146.719 Q657.74 142.969 656.421 141.187 Q655.101 139.382 652.347 139.382 Q649.083 139.382 647.162 141.604 Q645.24 143.803 645.24 147.576 L645.24 162.229 L640.958 162.229 L640.958 136.303 L645.24 136.303 L645.24 140.331 Q646.699 137.946 648.736 136.812 Q650.773 135.678 653.574 135.678 Q656.398 135.678 658.365 137.113 Q660.356 138.548 661.305 141.28 Z" fill="#000000" fill-rule="nonzero" fill-opacity="1" /><polyline clip-path="url(#clip960)" style="stroke:#e26f46; stroke-linecap:round; stroke-linejoin:round; stroke-width:4; stroke-opacity:1; fill:none" points="272.215,196.789 417.369,196.789 "/>
<path clip-path="url(#clip960)" d="M446.237 183.351 L446.237 210.226 L451.885 210.226 Q459.038 210.226 462.348 206.985 Q465.681 203.745 465.681 196.754 Q465.681 189.809 462.348 186.592 Q459.038 183.351 451.885 183.351 L446.237 183.351 M441.561 179.509 L451.167 179.509 Q461.214 179.509 465.913 183.698 Q470.612 187.865 470.612 196.754 Q470.612 205.689 465.89 209.879 Q461.167 214.069 451.167 214.069 L441.561 214.069 L441.561 179.509 Z" fill="#000000" fill-rule="nonzero" fill-opacity="1" /><path clip-path="url(#clip960)" d="M477.88 188.143 L482.139 188.143 L482.139 214.069 L477.88 214.069 L477.88 188.143 M477.88 178.05 L482.139 178.05 L482.139 183.444 L477.88 183.444 L477.88 178.05 Z" fill="#000000" fill-rule="nonzero" fill-opacity="1" /><path clip-path="url(#clip960)" d="M507.579 188.907 L507.579 192.934 Q505.774 192.009 503.829 191.546 Q501.885 191.083 499.801 191.083 Q496.63 191.083 495.033 192.055 Q493.459 193.027 493.459 194.971 Q493.459 196.453 494.593 197.309 Q495.727 198.143 499.153 198.907 L500.612 199.231 Q505.149 200.203 507.047 201.985 Q508.968 203.745 508.968 206.916 Q508.968 210.527 506.098 212.633 Q503.25 214.74 498.25 214.74 Q496.167 214.74 493.899 214.323 Q491.653 213.93 489.153 213.12 L489.153 208.721 Q491.514 209.948 493.806 210.573 Q496.098 211.175 498.343 211.175 Q501.352 211.175 502.973 210.157 Q504.593 209.115 504.593 207.24 Q504.593 205.504 503.412 204.578 Q502.255 203.652 498.297 202.796 L496.815 202.448 Q492.857 201.615 491.098 199.902 Q489.338 198.166 489.338 195.157 Q489.338 191.499 491.931 189.509 Q494.524 187.518 499.292 187.518 Q501.653 187.518 503.737 187.865 Q505.82 188.212 507.579 188.907 Z" fill="#000000" fill-rule="nonzero" fill-opacity="1" /><path clip-path="url(#clip960)" d="M519.963 180.782 L519.963 188.143 L528.736 188.143 L528.736 191.453 L519.963 191.453 L519.963 205.527 Q519.963 208.698 520.82 209.601 Q521.699 210.504 524.361 210.504 L528.736 210.504 L528.736 214.069 L524.361 214.069 Q519.431 214.069 517.556 212.24 Q515.681 210.388 515.681 205.527 L515.681 191.453 L512.556 191.453 L512.556 188.143 L515.681 188.143 L515.681 180.782 L519.963 180.782 Z" fill="#000000" fill-rule="nonzero" fill-opacity="1" /><path clip-path="url(#clip960)" d="M549.361 192.124 Q548.644 191.708 547.787 191.522 Q546.954 191.314 545.935 191.314 Q542.324 191.314 540.38 193.675 Q538.459 196.013 538.459 200.411 L538.459 214.069 L534.176 214.069 L534.176 188.143 L538.459 188.143 L538.459 192.171 Q539.801 189.809 541.954 188.675 Q544.107 187.518 547.185 187.518 Q547.625 187.518 548.158 187.587 Q548.69 187.634 549.338 187.749 L549.361 192.124 Z" fill="#000000" fill-rule="nonzero" fill-opacity="1" /><path clip-path="url(#clip960)" d="M553.829 188.143 L558.088 188.143 L558.088 214.069 L553.829 214.069 L553.829 188.143 M553.829 178.05 L558.088 178.05 L558.088 183.444 L553.829 183.444 L553.829 178.05 Z" fill="#000000" fill-rule="nonzero" fill-opacity="1" /><path clip-path="url(#clip960)" d="M585.611 201.129 Q585.611 196.43 583.667 193.768 Q581.745 191.083 578.366 191.083 Q574.986 191.083 573.042 193.768 Q571.12 196.43 571.12 201.129 Q571.12 205.828 573.042 208.513 Q574.986 211.175 578.366 211.175 Q581.745 211.175 583.667 208.513 Q585.611 205.828 585.611 201.129 M571.12 192.078 Q572.463 189.763 574.5 188.652 Q576.56 187.518 579.407 187.518 Q584.13 187.518 587.069 191.268 Q590.032 195.018 590.032 201.129 Q590.032 207.24 587.069 210.99 Q584.13 214.74 579.407 214.74 Q576.56 214.74 574.5 213.629 Q572.463 212.495 571.12 210.18 L571.12 214.069 L566.838 214.069 L566.838 178.05 L571.12 178.05 L571.12 192.078 Z" fill="#000000" fill-rule="nonzero" fill-opacity="1" /><path clip-path="url(#clip960)" d="M596.653 203.837 L596.653 188.143 L600.912 188.143 L600.912 203.675 Q600.912 207.356 602.347 209.208 Q603.782 211.036 606.653 211.036 Q610.102 211.036 612.092 208.837 Q614.106 206.638 614.106 202.842 L614.106 188.143 L618.366 188.143 L618.366 214.069 L614.106 214.069 L614.106 210.087 Q612.555 212.448 610.495 213.606 Q608.458 214.74 605.75 214.74 Q601.282 214.74 598.968 211.962 Q596.653 209.184 596.653 203.837 M607.37 187.518 L607.37 187.518 Z" fill="#000000" fill-rule="nonzero" fill-opacity="1" /><path clip-path="url(#clip960)" d="M631.352 180.782 L631.352 188.143 L640.125 188.143 L640.125 191.453 L631.352 191.453 L631.352 205.527 Q631.352 208.698 632.208 209.601 Q633.088 210.504 635.75 210.504 L640.125 210.504 L640.125 214.069 L635.75 214.069 Q630.819 214.069 628.944 212.24 Q627.069 210.388 627.069 205.527 L627.069 191.453 L623.944 191.453 L623.944 188.143 L627.069 188.143 L627.069 180.782 L631.352 180.782 Z" fill="#000000" fill-rule="nonzero" fill-opacity="1" /><path clip-path="url(#clip960)" d="M645.727 188.143 L649.986 188.143 L649.986 214.069 L645.727 214.069 L645.727 188.143 M645.727 178.05 L649.986 178.05 L649.986 183.444 L645.727 183.444 L645.727 178.05 Z" fill="#000000" fill-rule="nonzero" fill-opacity="1" /><path clip-path="url(#clip960)" d="M668.944 191.129 Q665.518 191.129 663.527 193.814 Q661.537 196.476 661.537 201.129 Q661.537 205.782 663.504 208.467 Q665.495 211.129 668.944 211.129 Q672.347 211.129 674.337 208.444 Q676.328 205.758 676.328 201.129 Q676.328 196.522 674.337 193.837 Q672.347 191.129 668.944 191.129 M668.944 187.518 Q674.5 187.518 677.671 191.129 Q680.842 194.74 680.842 201.129 Q680.842 207.495 677.671 211.129 Q674.5 214.74 668.944 214.74 Q663.365 214.74 660.194 211.129 Q657.046 207.495 657.046 201.129 Q657.046 194.74 660.194 191.129 Q663.365 187.518 668.944 187.518 Z" fill="#000000" fill-rule="nonzero" fill-opacity="1" /><path clip-path="url(#clip960)" d="M709.453 198.421 L709.453 214.069 L705.194 214.069 L705.194 198.559 Q705.194 194.879 703.759 193.05 Q702.323 191.222 699.453 191.222 Q696.004 191.222 694.013 193.421 Q692.023 195.62 692.023 199.416 L692.023 214.069 L687.74 214.069 L687.74 188.143 L692.023 188.143 L692.023 192.171 Q693.55 189.833 695.611 188.675 Q697.694 187.518 700.402 187.518 Q704.87 187.518 707.161 190.296 Q709.453 193.05 709.453 198.421 Z" fill="#000000" fill-rule="nonzero" fill-opacity="1" /><path clip-path="url(#clip960)" d="M746.143 178.05 L746.143 181.592 L742.069 181.592 Q739.777 181.592 738.874 182.518 Q737.995 183.444 737.995 185.851 L737.995 188.143 L745.008 188.143 L745.008 191.453 L737.995 191.453 L737.995 214.069 L733.712 214.069 L733.712 191.453 L729.638 191.453 L729.638 188.143 L733.712 188.143 L733.712 186.337 Q733.712 182.009 735.726 180.041 Q737.74 178.05 742.115 178.05 L746.143 178.05 Z" fill="#000000" fill-rule="nonzero" fill-opacity="1" /><path clip-path="url(#clip960)" d="M749.707 188.143 L753.967 188.143 L753.967 214.069 L749.707 214.069 L749.707 188.143 M749.707 178.05 L753.967 178.05 L753.967 183.444 L749.707 183.444 L749.707 178.05 Z" fill="#000000" fill-rule="nonzero" fill-opacity="1" /><path clip-path="url(#clip960)" d="M767.092 180.782 L767.092 188.143 L775.865 188.143 L775.865 191.453 L767.092 191.453 L767.092 205.527 Q767.092 208.698 767.948 209.601 Q768.828 210.504 771.49 210.504 L775.865 210.504 L775.865 214.069 L771.49 214.069 Q766.559 214.069 764.684 212.24 Q762.809 210.388 762.809 205.527 L762.809 191.453 L759.684 191.453 L759.684 188.143 L762.809 188.143 L762.809 180.782 L767.092 180.782 Z" fill="#000000" fill-rule="nonzero" fill-opacity="1" /></svg>
