<?xml version="1.0" encoding="utf-8"?>
<svg xmlns="http://www.w3.org/2000/svg" xmlns:xlink="http://www.w3.org/1999/xlink" width="600" height="400" viewBox="0 0 2400 1600">
<defs>
  <clipPath id="clip920">
    <rect x="0" y="0" width="2400" height="1600"/>
  </clipPath>
</defs>
<path clip-path="url(#clip920)" d="M0 1600 L2400 1600 L2400 8.88178e-14 L0 8.88178e-14  Z" fill="#ffffff" fill-rule="evenodd" fill-opacity="1"/>
<defs>
  <clipPath id="clip921">
    <rect x="480" y="0" width="1681" height="1600"/>
  </clipPath>
</defs>
<path clip-path="url(#clip920)" d="M249.843 1552.76 L2352.76 1552.76 L2352.76 47.2441 L249.843 47.2441  Z" fill="#ffffff" fill-rule="evenodd" fill-opacity="1"/>
<defs>
  <clipPath id="clip922">
    <rect x="249" y="47" width="2104" height="1507"/>
  </clipPath>
</defs>
<polyline clip-path="url(#clip922)" style="stroke:#000000; stroke-linecap:round; stroke-linejoin:round; stroke-width:2; stroke-opacity:0.1; fill:none" points="249.843,1533.06 2352.76,1533.06 "/>
<polyline clip-path="url(#clip922)" style="stroke:#000000; stroke-linecap:round; stroke-linejoin:round; stroke-width:2; stroke-opacity:0.1; fill:none" points="249.843,1303.98 2352.76,1303.98 "/>
<polyline clip-path="url(#clip922)" style="stroke:#000000; stroke-linecap:round; stroke-linejoin:round; stroke-width:2; stroke-opacity:0.1; fill:none" points="249.843,1074.9 2352.76,1074.9 "/>
<polyline clip-path="url(#clip922)" style="stroke:#000000; stroke-linecap:round; stroke-linejoin:round; stroke-width:2; stroke-opacity:0.1; fill:none" points="249.843,845.816 2352.76,845.816 "/>
<polyline clip-path="url(#clip922)" style="stroke:#000000; stroke-linecap:round; stroke-linejoin:round; stroke-width:2; stroke-opacity:0.1; fill:none" points="249.843,616.736 2352.76,616.736 "/>
<polyline clip-path="url(#clip922)" style="stroke:#000000; stroke-linecap:round; stroke-linejoin:round; stroke-width:2; stroke-opacity:0.1; fill:none" points="249.843,387.657 2352.76,387.657 "/>
<polyline clip-path="url(#clip922)" style="stroke:#000000; stroke-linecap:round; stroke-linejoin:round; stroke-width:2; stroke-opacity:0.1; fill:none" points="249.843,158.577 2352.76,158.577 "/>
<polyline clip-path="url(#clip922)" style="stroke:#000000; stroke-linecap:round; stroke-linejoin:round; stroke-width:2; stroke-opacity:0.1; fill:none" points="249.843,1533.06 2352.76,1533.06 "/>
<polyline clip-path="url(#clip922)" style="stroke:#000000; stroke-linecap:round; stroke-linejoin:round; stroke-width:2; stroke-opacity:0.1; fill:none" points="249.843,1303.98 2352.76,1303.98 "/>
<polyline clip-path="url(#clip922)" style="stroke:#000000; stroke-linecap:round; stroke-linejoin:round; stroke-width:2; stroke-opacity:0.1; fill:none" points="249.843,1074.9 2352.76,1074.9 "/>
<polyline clip-path="url(#clip922)" style="stroke:#000000; stroke-linecap:round; stroke-linejoin:round; stroke-width:2; stroke-opacity:0.1; fill:none" points="249.843,845.816 2352.76,845.816 "/>
<polyline clip-path="url(#clip922)" style="stroke:#000000; stroke-linecap:round; stroke-linejoin:round; stroke-width:2; stroke-opacity:0.1; fill:none" points="249.843,616.736 2352.76,616.736 "/>
<polyline clip-path="url(#clip922)" style="stroke:#000000; stroke-linecap:round; stroke-linejoin:round; stroke-width:2; stroke-opacity:0.1; fill:none" points="249.843,387.657 2352.76,387.657 "/>
<polyline clip-path="url(#clip922)" style="stroke:#000000; stroke-linecap:round; stroke-linejoin:round; stroke-width:2; stroke-opacity:0.1; fill:none" points="249.843,158.577 2352.76,158.577 "/>
<polyline clip-path="url(#clip920)" style="stroke:#000000; stroke-linecap:round; stroke-linejoin:round; stroke-width:4; stroke-opacity:1; fill:none" points="249.843,1552.76 2352.76,1552.76 "/>
<polyline clip-path="url(#clip920)" style="stroke:#000000; stroke-linecap:round; stroke-linejoin:round; stroke-width:4; stroke-opacity:1; fill:none" points="249.843,47.2441 2352.76,47.2441 "/>
<polyline clip-path="url(#clip920)" style="stroke:#000000; stroke-linecap:round; stroke-linejoin:round; stroke-width:4; stroke-opacity:1; fill:none" points="249.843,1552.76 249.843,47.2441 "/>
<polyline clip-path="url(#clip920)" style="stroke:#000000; stroke-linecap:round; stroke-linejoin:round; stroke-width:4; stroke-opacity:1; fill:none" points="2352.76,1552.76 2352.76,47.2441 "/>
<polyline clip-path="url(#clip920)" style="stroke:#000000; stroke-linecap:round; stroke-linejoin:round; stroke-width:4; stroke-opacity:1; fill:none" points="249.843,1533.06 268.741,1533.06 "/>
<polyline clip-path="url(#clip920)" style="stroke:#000000; stroke-linecap:round; stroke-linejoin:round; stroke-width:4; stroke-opacity:1; fill:none" points="249.843,1303.98 268.741,1303.98 "/>
<polyline clip-path="url(#clip920)" style="stroke:#000000; stroke-linecap:round; stroke-linejoin:round; stroke-width:4; stroke-opacity:1; fill:none" points="249.843,1074.9 268.741,1074.9 "/>
<polyline clip-path="url(#clip920)" style="stroke:#000000; stroke-linecap:round; stroke-linejoin:round; stroke-width:4; stroke-opacity:1; fill:none" points="249.843,845.816 268.741,845.816 "/>
<polyline clip-path="url(#clip920)" style="stroke:#000000; stroke-linecap:round; stroke-linejoin:round; stroke-width:4; stroke-opacity:1; fill:none" points="249.843,616.736 268.741,616.736 "/>
<polyline clip-path="url(#clip920)" style="stroke:#000000; stroke-linecap:round; stroke-linejoin:round; stroke-width:4; stroke-opacity:1; fill:none" points="249.843,387.657 268.741,387.657 "/>
<polyline clip-path="url(#clip920)" style="stroke:#000000; stroke-linecap:round; stroke-linejoin:round; stroke-width:4; stroke-opacity:1; fill:none" points="249.843,158.577 268.741,158.577 "/>
<polyline clip-path="url(#clip920)" style="stroke:#000000; stroke-linecap:round; stroke-linejoin:round; stroke-width:4; stroke-opacity:1; fill:none" points="2352.76,1533.06 2333.86,1533.06 "/>
<polyline clip-path="url(#clip920)" style="stroke:#000000; stroke-linecap:round; stroke-linejoin:round; stroke-width:4; stroke-opacity:1; fill:none" points="2352.76,1303.98 2333.86,1303.98 "/>
<polyline clip-path="url(#clip920)" style="stroke:#000000; stroke-linecap:round; stroke-linejoin:round; stroke-width:4; stroke-opacity:1; fill:none" points="2352.76,1074.9 2333.86,1074.9 "/>
<polyline clip-path="url(#clip920)" style="stroke:#000000; stroke-linecap:round; stroke-linejoin:round; stroke-width:4; stroke-opacity:1; fill:none" points="2352.76,845.816 2333.86,845.816 "/>
<polyline clip-path="url(#clip920)" style="stroke:#000000; stroke-linecap:round; stroke-linejoin:round; stroke-width:4; stroke-opacity:1; fill:none" points="2352.76,616.736 2333.86,616.736 "/>
<polyline clip-path="url(#clip920)" style="stroke:#000000; stroke-linecap:round; stroke-linejoin:round; stroke-width:4; stroke-opacity:1; fill:none" points="2352.76,387.657 2333.86,387.657 "/>
<polyline clip-path="url(#clip920)" style="stroke:#000000; stroke-linecap:round; stroke-linejoin:round; stroke-width:4; stroke-opacity:1; fill:none" points="2352.76,158.577 2333.86,158.577 "/>
<path clip-path="url(#clip920)" d="M128.681 1531.19 Q125.533 1531.19 123.681 1533.34 Q121.853 1535.5 121.853 1539.25 Q121.853 1542.97 123.681 1545.15 Q125.533 1547.3 128.681 1547.3 Q131.83 1547.3 133.658 1545.15 Q135.51 1542.97 135.51 1539.25 Q135.51 1535.5 133.658 1533.34 Q131.83 1531.19 128.681 1531.19 M137.964 1516.54 L137.964 1520.8 Q136.204 1519.96 134.399 1519.53 Q132.617 1519.09 130.857 1519.09 Q126.228 1519.09 123.774 1522.21 Q121.343 1525.34 120.996 1531.65 Q122.362 1529.64 124.422 1528.58 Q126.482 1527.49 128.959 1527.49 Q134.167 1527.49 137.177 1530.66 Q140.209 1533.81 140.209 1539.25 Q140.209 1544.57 137.061 1547.79 Q133.913 1551.01 128.681 1551.01 Q122.686 1551.01 119.515 1546.42 Q116.343 1541.82 116.343 1533.09 Q116.343 1524.9 120.232 1520.03 Q124.121 1515.15 130.672 1515.15 Q132.431 1515.15 134.214 1515.5 Q136.019 1515.84 137.964 1516.54 Z" fill="#000000" fill-rule="nonzero" fill-opacity="1" /><path clip-path="url(#clip920)" d="M158.843 1531.19 Q155.695 1531.19 153.843 1533.34 Q152.015 1535.5 152.015 1539.25 Q152.015 1542.97 153.843 1545.15 Q155.695 1547.3 158.843 1547.3 Q161.991 1547.3 163.82 1545.15 Q165.672 1542.97 165.672 1539.25 Q165.672 1535.5 163.82 1533.34 Q161.991 1531.19 158.843 1531.19 M168.126 1516.54 L168.126 1520.8 Q166.366 1519.96 164.561 1519.53 Q162.778 1519.09 161.019 1519.09 Q156.39 1519.09 153.936 1522.21 Q151.505 1525.34 151.158 1531.65 Q152.524 1529.64 154.584 1528.58 Q156.644 1527.49 159.121 1527.49 Q164.329 1527.49 167.339 1530.66 Q170.371 1533.81 170.371 1539.25 Q170.371 1544.57 167.223 1547.79 Q164.075 1551.01 158.843 1551.01 Q152.848 1551.01 149.677 1546.42 Q146.505 1541.82 146.505 1533.09 Q146.505 1524.9 150.394 1520.03 Q154.283 1515.15 160.834 1515.15 Q162.593 1515.15 164.376 1515.5 Q166.181 1515.84 168.126 1516.54 Z" fill="#000000" fill-rule="nonzero" fill-opacity="1" /><path clip-path="url(#clip920)" d="M178.426 1544.46 L183.311 1544.46 L183.311 1550.34 L178.426 1550.34 L178.426 1544.46 Z" fill="#000000" fill-rule="nonzero" fill-opacity="1" /><path clip-path="url(#clip920)" d="M197.524 1546.4 L213.843 1546.4 L213.843 1550.34 L191.899 1550.34 L191.899 1546.4 Q194.561 1543.65 199.144 1539.02 Q203.75 1534.36 204.931 1533.02 Q207.176 1530.5 208.056 1528.76 Q208.959 1527 208.959 1525.31 Q208.959 1522.56 207.014 1520.82 Q205.093 1519.09 201.991 1519.09 Q199.792 1519.09 197.338 1519.85 Q194.908 1520.61 192.13 1522.16 L192.13 1517.44 Q194.954 1516.31 197.408 1515.73 Q199.862 1515.15 201.899 1515.15 Q207.269 1515.15 210.463 1517.84 Q213.658 1520.52 213.658 1525.01 Q213.658 1527.14 212.848 1529.06 Q212.061 1530.96 209.954 1533.55 Q209.375 1534.22 206.274 1537.44 Q203.172 1540.64 197.524 1546.4 Z" fill="#000000" fill-rule="nonzero" fill-opacity="1" /><path clip-path="url(#clip920)" d="M127.732 1302.11 Q124.584 1302.11 122.732 1304.26 Q120.904 1306.42 120.904 1310.17 Q120.904 1313.89 122.732 1316.07 Q124.584 1318.22 127.732 1318.22 Q130.88 1318.22 132.709 1316.07 Q134.561 1313.89 134.561 1310.17 Q134.561 1306.42 132.709 1304.26 Q130.88 1302.11 127.732 1302.11 M137.015 1287.46 L137.015 1291.72 Q135.255 1290.89 133.45 1290.45 Q131.667 1290.01 129.908 1290.01 Q125.279 1290.01 122.825 1293.13 Q120.394 1296.26 120.047 1302.57 Q121.413 1300.56 123.473 1299.5 Q125.533 1298.41 128.01 1298.41 Q133.218 1298.41 136.228 1301.58 Q139.26 1304.73 139.26 1310.17 Q139.26 1315.49 136.112 1318.71 Q132.964 1321.93 127.732 1321.93 Q121.737 1321.93 118.566 1317.34 Q115.394 1312.74 115.394 1304.01 Q115.394 1295.82 119.283 1290.95 Q123.172 1286.07 129.723 1286.07 Q131.482 1286.07 133.265 1286.42 Q135.07 1286.76 137.015 1287.46 Z" fill="#000000" fill-rule="nonzero" fill-opacity="1" /><path clip-path="url(#clip920)" d="M157.894 1302.11 Q154.746 1302.11 152.894 1304.26 Q151.066 1306.42 151.066 1310.17 Q151.066 1313.89 152.894 1316.07 Q154.746 1318.22 157.894 1318.22 Q161.042 1318.22 162.871 1316.07 Q164.723 1313.89 164.723 1310.17 Q164.723 1306.42 162.871 1304.26 Q161.042 1302.11 157.894 1302.11 M167.177 1287.46 L167.177 1291.72 Q165.417 1290.89 163.612 1290.45 Q161.829 1290.01 160.07 1290.01 Q155.44 1290.01 152.987 1293.13 Q150.556 1296.26 150.209 1302.57 Q151.575 1300.56 153.635 1299.5 Q155.695 1298.41 158.172 1298.41 Q163.38 1298.41 166.39 1301.58 Q169.422 1304.73 169.422 1310.17 Q169.422 1315.49 166.274 1318.71 Q163.126 1321.93 157.894 1321.93 Q151.899 1321.93 148.728 1317.34 Q145.556 1312.74 145.556 1304.01 Q145.556 1295.82 149.445 1290.95 Q153.334 1286.07 159.885 1286.07 Q161.644 1286.07 163.427 1286.42 Q165.232 1286.76 167.177 1287.46 Z" fill="#000000" fill-rule="nonzero" fill-opacity="1" /><path clip-path="url(#clip920)" d="M177.477 1315.38 L182.362 1315.38 L182.362 1321.26 L177.477 1321.26 L177.477 1315.38 Z" fill="#000000" fill-rule="nonzero" fill-opacity="1" /><path clip-path="url(#clip920)" d="M206.713 1302.62 Q210.07 1303.34 211.945 1305.61 Q213.843 1307.88 213.843 1311.21 Q213.843 1316.32 210.324 1319.13 Q206.806 1321.93 200.325 1321.93 Q198.149 1321.93 195.834 1321.49 Q193.542 1321.07 191.088 1320.21 L191.088 1315.7 Q193.033 1316.83 195.348 1317.41 Q197.662 1317.99 200.186 1317.99 Q204.584 1317.99 206.875 1316.26 Q209.19 1314.52 209.19 1311.21 Q209.19 1308.15 207.037 1306.44 Q204.908 1304.7 201.088 1304.7 L197.061 1304.7 L197.061 1300.86 L201.274 1300.86 Q204.723 1300.86 206.551 1299.5 Q208.38 1298.11 208.38 1295.51 Q208.38 1292.85 206.482 1291.44 Q204.607 1290.01 201.088 1290.01 Q199.167 1290.01 196.968 1290.42 Q194.769 1290.84 192.13 1291.72 L192.13 1287.55 Q194.792 1286.81 197.107 1286.44 Q199.445 1286.07 201.505 1286.07 Q206.829 1286.07 209.931 1288.5 Q213.033 1290.91 213.033 1295.03 Q213.033 1297.9 211.389 1299.89 Q209.746 1301.86 206.713 1302.62 Z" fill="#000000" fill-rule="nonzero" fill-opacity="1" /><path clip-path="url(#clip920)" d="M126.598 1073.03 Q123.45 1073.03 121.598 1075.18 Q119.769 1077.34 119.769 1081.09 Q119.769 1084.81 121.598 1086.99 Q123.45 1089.14 126.598 1089.14 Q129.746 1089.14 131.575 1086.99 Q133.427 1084.81 133.427 1081.09 Q133.427 1077.34 131.575 1075.18 Q129.746 1073.03 126.598 1073.03 M135.88 1058.38 L135.88 1062.64 Q134.121 1061.81 132.316 1061.37 Q130.533 1060.93 128.774 1060.93 Q124.144 1060.93 121.691 1064.05 Q119.26 1067.18 118.913 1073.5 Q120.279 1071.48 122.339 1070.42 Q124.399 1069.33 126.876 1069.33 Q132.084 1069.33 135.093 1072.5 Q138.126 1075.65 138.126 1081.09 Q138.126 1086.41 134.978 1089.63 Q131.83 1092.85 126.598 1092.85 Q120.603 1092.85 117.431 1088.26 Q114.26 1083.66 114.26 1074.93 Q114.26 1066.74 118.149 1061.87 Q122.038 1056.99 128.589 1056.99 Q130.348 1056.99 132.13 1057.34 Q133.936 1057.69 135.88 1058.38 Z" fill="#000000" fill-rule="nonzero" fill-opacity="1" /><path clip-path="url(#clip920)" d="M156.76 1073.03 Q153.612 1073.03 151.76 1075.18 Q149.931 1077.34 149.931 1081.09 Q149.931 1084.81 151.76 1086.99 Q153.612 1089.14 156.76 1089.14 Q159.908 1089.14 161.737 1086.99 Q163.589 1084.81 163.589 1081.09 Q163.589 1077.34 161.737 1075.18 Q159.908 1073.03 156.76 1073.03 M166.042 1058.38 L166.042 1062.64 Q164.283 1061.81 162.477 1061.37 Q160.695 1060.93 158.936 1060.93 Q154.306 1060.93 151.853 1064.05 Q149.422 1067.18 149.075 1073.5 Q150.441 1071.48 152.501 1070.42 Q154.561 1069.33 157.038 1069.33 Q162.246 1069.33 165.255 1072.5 Q168.288 1075.65 168.288 1081.09 Q168.288 1086.41 165.14 1089.63 Q161.991 1092.85 156.76 1092.85 Q150.765 1092.85 147.593 1088.26 Q144.422 1083.66 144.422 1074.93 Q144.422 1066.74 148.311 1061.87 Q152.2 1056.99 158.751 1056.99 Q160.51 1056.99 162.292 1057.34 Q164.098 1057.69 166.042 1058.38 Z" fill="#000000" fill-rule="nonzero" fill-opacity="1" /><path clip-path="url(#clip920)" d="M176.343 1086.3 L181.227 1086.3 L181.227 1092.18 L176.343 1092.18 L176.343 1086.3 Z" fill="#000000" fill-rule="nonzero" fill-opacity="1" /><path clip-path="url(#clip920)" d="M204.26 1061.69 L192.454 1080.14 L204.26 1080.14 L204.26 1061.69 M203.033 1057.62 L208.912 1057.62 L208.912 1080.14 L213.843 1080.14 L213.843 1084.03 L208.912 1084.03 L208.912 1092.18 L204.26 1092.18 L204.26 1084.03 L188.658 1084.03 L188.658 1079.51 L203.033 1057.62 Z" fill="#000000" fill-rule="nonzero" fill-opacity="1" /><path clip-path="url(#clip920)" d="M128.08 843.953 Q124.931 843.953 123.08 846.105 Q121.251 848.258 121.251 852.008 Q121.251 855.735 123.08 857.911 Q124.931 860.064 128.08 860.064 Q131.228 860.064 133.056 857.911 Q134.908 855.735 134.908 852.008 Q134.908 848.258 133.056 846.105 Q131.228 843.953 128.08 843.953 M137.362 829.3 L137.362 833.559 Q135.603 832.726 133.797 832.286 Q132.015 831.846 130.255 831.846 Q125.626 831.846 123.172 834.971 Q120.742 838.096 120.394 844.415 Q121.76 842.402 123.82 841.337 Q125.88 840.249 128.357 840.249 Q133.566 840.249 136.575 843.42 Q139.607 846.568 139.607 852.008 Q139.607 857.332 136.459 860.55 Q133.311 863.767 128.08 863.767 Q122.084 863.767 118.913 859.184 Q115.742 854.577 115.742 845.851 Q115.742 837.656 119.63 832.795 Q123.519 827.911 130.07 827.911 Q131.83 827.911 133.612 828.258 Q135.417 828.605 137.362 829.3 Z" fill="#000000" fill-rule="nonzero" fill-opacity="1" /><path clip-path="url(#clip920)" d="M158.241 843.953 Q155.093 843.953 153.241 846.105 Q151.413 848.258 151.413 852.008 Q151.413 855.735 153.241 857.911 Q155.093 860.064 158.241 860.064 Q161.39 860.064 163.218 857.911 Q165.07 855.735 165.07 852.008 Q165.07 848.258 163.218 846.105 Q161.39 843.953 158.241 843.953 M167.524 829.3 L167.524 833.559 Q165.765 832.726 163.959 832.286 Q162.177 831.846 160.417 831.846 Q155.788 831.846 153.334 834.971 Q150.903 838.096 150.556 844.415 Q151.922 842.402 153.982 841.337 Q156.042 840.249 158.519 840.249 Q163.727 840.249 166.737 843.42 Q169.769 846.568 169.769 852.008 Q169.769 857.332 166.621 860.55 Q163.473 863.767 158.241 863.767 Q152.246 863.767 149.075 859.184 Q145.904 854.577 145.904 845.851 Q145.904 837.656 149.792 832.795 Q153.681 827.911 160.232 827.911 Q161.991 827.911 163.774 828.258 Q165.579 828.605 167.524 829.3 Z" fill="#000000" fill-rule="nonzero" fill-opacity="1" /><path clip-path="url(#clip920)" d="M177.825 857.216 L182.709 857.216 L182.709 863.096 L177.825 863.096 L177.825 857.216 Z" fill="#000000" fill-rule="nonzero" fill-opacity="1" /><path clip-path="url(#clip920)" d="M192.94 828.536 L211.297 828.536 L211.297 832.471 L197.223 832.471 L197.223 840.943 Q198.241 840.596 199.26 840.434 Q200.278 840.249 201.297 840.249 Q207.084 840.249 210.463 843.42 Q213.843 846.591 213.843 852.008 Q213.843 857.587 210.371 860.689 Q206.899 863.767 200.579 863.767 Q198.403 863.767 196.135 863.397 Q193.889 863.026 191.482 862.286 L191.482 857.587 Q193.565 858.721 195.787 859.277 Q198.01 859.832 200.487 859.832 Q204.491 859.832 206.829 857.726 Q209.167 855.619 209.167 852.008 Q209.167 848.397 206.829 846.29 Q204.491 844.184 200.487 844.184 Q198.612 844.184 196.737 844.601 Q194.885 845.017 192.94 845.897 L192.94 828.536 Z" fill="#000000" fill-rule="nonzero" fill-opacity="1" /><path clip-path="url(#clip920)" d="M126.922 614.873 Q123.774 614.873 121.922 617.026 Q120.093 619.178 120.093 622.928 Q120.093 626.655 121.922 628.831 Q123.774 630.984 126.922 630.984 Q130.07 630.984 131.899 628.831 Q133.751 626.655 133.751 622.928 Q133.751 619.178 131.899 617.026 Q130.07 614.873 126.922 614.873 M136.204 600.22 L136.204 604.479 Q134.445 603.646 132.64 603.206 Q130.857 602.766 129.098 602.766 Q124.468 602.766 122.015 605.891 Q119.584 609.016 119.237 615.336 Q120.603 613.322 122.663 612.257 Q124.723 611.169 127.2 611.169 Q132.408 611.169 135.417 614.34 Q138.45 617.489 138.45 622.928 Q138.45 628.252 135.302 631.47 Q132.154 634.688 126.922 634.688 Q120.927 634.688 117.756 630.104 Q114.584 625.498 114.584 616.771 Q114.584 608.577 118.473 603.715 Q122.362 598.831 128.913 598.831 Q130.672 598.831 132.455 599.178 Q134.26 599.526 136.204 600.22 Z" fill="#000000" fill-rule="nonzero" fill-opacity="1" /><path clip-path="url(#clip920)" d="M157.084 614.873 Q153.936 614.873 152.084 617.026 Q150.255 619.178 150.255 622.928 Q150.255 626.655 152.084 628.831 Q153.936 630.984 157.084 630.984 Q160.232 630.984 162.061 628.831 Q163.913 626.655 163.913 622.928 Q163.913 619.178 162.061 617.026 Q160.232 614.873 157.084 614.873 M166.366 600.22 L166.366 604.479 Q164.607 603.646 162.802 603.206 Q161.019 602.766 159.26 602.766 Q154.63 602.766 152.177 605.891 Q149.746 609.016 149.399 615.336 Q150.765 613.322 152.825 612.257 Q154.885 611.169 157.362 611.169 Q162.57 611.169 165.579 614.34 Q168.612 617.489 168.612 622.928 Q168.612 628.252 165.464 631.47 Q162.315 634.688 157.084 634.688 Q151.089 634.688 147.917 630.104 Q144.746 625.498 144.746 616.771 Q144.746 608.577 148.635 603.715 Q152.524 598.831 159.075 598.831 Q160.834 598.831 162.616 599.178 Q164.422 599.526 166.366 600.22 Z" fill="#000000" fill-rule="nonzero" fill-opacity="1" /><path clip-path="url(#clip920)" d="M176.667 628.137 L181.551 628.137 L181.551 634.016 L176.667 634.016 L176.667 628.137 Z" fill="#000000" fill-rule="nonzero" fill-opacity="1" /><path clip-path="url(#clip920)" d="M202.315 614.873 Q199.167 614.873 197.315 617.026 Q195.487 619.178 195.487 622.928 Q195.487 626.655 197.315 628.831 Q199.167 630.984 202.315 630.984 Q205.463 630.984 207.292 628.831 Q209.144 626.655 209.144 622.928 Q209.144 619.178 207.292 617.026 Q205.463 614.873 202.315 614.873 M211.598 600.22 L211.598 604.479 Q209.838 603.646 208.033 603.206 Q206.25 602.766 204.491 602.766 Q199.862 602.766 197.408 605.891 Q194.977 609.016 194.63 615.336 Q195.996 613.322 198.056 612.257 Q200.116 611.169 202.593 611.169 Q207.801 611.169 210.811 614.34 Q213.843 617.489 213.843 622.928 Q213.843 628.252 210.695 631.47 Q207.547 634.688 202.315 634.688 Q196.32 634.688 193.149 630.104 Q189.977 625.498 189.977 616.771 Q189.977 608.577 193.866 603.715 Q197.755 598.831 204.306 598.831 Q206.065 598.831 207.848 599.178 Q209.653 599.526 211.598 600.22 Z" fill="#000000" fill-rule="nonzero" fill-opacity="1" /><path clip-path="url(#clip920)" d="M127.987 385.793 Q124.839 385.793 122.987 387.946 Q121.158 390.099 121.158 393.849 Q121.158 397.575 122.987 399.751 Q124.839 401.904 127.987 401.904 Q131.135 401.904 132.964 399.751 Q134.816 397.575 134.816 393.849 Q134.816 390.099 132.964 387.946 Q131.135 385.793 127.987 385.793 M137.269 371.14 L137.269 375.4 Q135.51 374.566 133.704 374.127 Q131.922 373.687 130.163 373.687 Q125.533 373.687 123.08 376.812 Q120.649 379.937 120.302 386.256 Q121.668 384.242 123.728 383.177 Q125.788 382.089 128.265 382.089 Q133.473 382.089 136.482 385.261 Q139.515 388.409 139.515 393.849 Q139.515 399.173 136.367 402.39 Q133.218 405.608 127.987 405.608 Q121.992 405.608 118.82 401.025 Q115.649 396.418 115.649 387.691 Q115.649 379.497 119.538 374.636 Q123.427 369.752 129.978 369.752 Q131.737 369.752 133.519 370.099 Q135.325 370.446 137.269 371.14 Z" fill="#000000" fill-rule="nonzero" fill-opacity="1" /><path clip-path="url(#clip920)" d="M158.149 385.793 Q155.001 385.793 153.149 387.946 Q151.32 390.099 151.32 393.849 Q151.32 397.575 153.149 399.751 Q155.001 401.904 158.149 401.904 Q161.297 401.904 163.126 399.751 Q164.977 397.575 164.977 393.849 Q164.977 390.099 163.126 387.946 Q161.297 385.793 158.149 385.793 M167.431 371.14 L167.431 375.4 Q165.672 374.566 163.866 374.127 Q162.084 373.687 160.325 373.687 Q155.695 373.687 153.241 376.812 Q150.811 379.937 150.464 386.256 Q151.829 384.242 153.89 383.177 Q155.95 382.089 158.427 382.089 Q163.635 382.089 166.644 385.261 Q169.677 388.409 169.677 393.849 Q169.677 399.173 166.528 402.39 Q163.38 405.608 158.149 405.608 Q152.153 405.608 148.982 401.025 Q145.811 396.418 145.811 387.691 Q145.811 379.497 149.7 374.636 Q153.589 369.752 160.14 369.752 Q161.899 369.752 163.681 370.099 Q165.487 370.446 167.431 371.14 Z" fill="#000000" fill-rule="nonzero" fill-opacity="1" /><path clip-path="url(#clip920)" d="M177.732 399.057 L182.616 399.057 L182.616 404.937 L177.732 404.937 L177.732 399.057 Z" fill="#000000" fill-rule="nonzero" fill-opacity="1" /><path clip-path="url(#clip920)" d="M191.621 370.377 L213.843 370.377 L213.843 372.367 L201.297 404.937 L196.412 404.937 L208.218 374.312 L191.621 374.312 L191.621 370.377 Z" fill="#000000" fill-rule="nonzero" fill-opacity="1" /><path clip-path="url(#clip920)" d="M127.177 156.713 Q124.029 156.713 122.177 158.866 Q120.348 161.019 120.348 164.769 Q120.348 168.496 122.177 170.672 Q124.029 172.824 127.177 172.824 Q130.325 172.824 132.154 170.672 Q134.005 168.496 134.005 164.769 Q134.005 161.019 132.154 158.866 Q130.325 156.713 127.177 156.713 M136.459 142.061 L136.459 146.32 Q134.7 145.487 132.894 145.047 Q131.112 144.607 129.353 144.607 Q124.723 144.607 122.269 147.732 Q119.839 150.857 119.492 157.176 Q120.857 155.162 122.918 154.098 Q124.978 153.01 127.455 153.01 Q132.663 153.01 135.672 156.181 Q138.704 159.329 138.704 164.769 Q138.704 170.093 135.556 173.311 Q132.408 176.528 127.177 176.528 Q121.181 176.528 118.01 171.945 Q114.839 167.338 114.839 158.612 Q114.839 150.417 118.728 145.556 Q122.617 140.672 129.167 140.672 Q130.927 140.672 132.709 141.019 Q134.515 141.366 136.459 142.061 Z" fill="#000000" fill-rule="nonzero" fill-opacity="1" /><path clip-path="url(#clip920)" d="M157.339 156.713 Q154.19 156.713 152.339 158.866 Q150.51 161.019 150.51 164.769 Q150.51 168.496 152.339 170.672 Q154.19 172.824 157.339 172.824 Q160.487 172.824 162.315 170.672 Q164.167 168.496 164.167 164.769 Q164.167 161.019 162.315 158.866 Q160.487 156.713 157.339 156.713 M166.621 142.061 L166.621 146.32 Q164.862 145.487 163.056 145.047 Q161.274 144.607 159.515 144.607 Q154.885 144.607 152.431 147.732 Q150.001 150.857 149.653 157.176 Q151.019 155.162 153.079 154.098 Q155.14 153.01 157.616 153.01 Q162.825 153.01 165.834 156.181 Q168.866 159.329 168.866 164.769 Q168.866 170.093 165.718 173.311 Q162.57 176.528 157.339 176.528 Q151.343 176.528 148.172 171.945 Q145.001 167.338 145.001 158.612 Q145.001 150.417 148.89 145.556 Q152.778 140.672 159.329 140.672 Q161.089 140.672 162.871 141.019 Q164.677 141.366 166.621 142.061 Z" fill="#000000" fill-rule="nonzero" fill-opacity="1" /><path clip-path="url(#clip920)" d="M176.922 169.977 L181.806 169.977 L181.806 175.857 L176.922 175.857 L176.922 169.977 Z" fill="#000000" fill-rule="nonzero" fill-opacity="1" /><path clip-path="url(#clip920)" d="M201.991 159.445 Q198.658 159.445 196.737 161.227 Q194.838 163.01 194.838 166.135 Q194.838 169.26 196.737 171.042 Q198.658 172.824 201.991 172.824 Q205.324 172.824 207.246 171.042 Q209.167 169.236 209.167 166.135 Q209.167 163.01 207.246 161.227 Q205.348 159.445 201.991 159.445 M197.315 157.454 Q194.306 156.713 192.616 154.653 Q190.95 152.593 190.95 149.63 Q190.95 145.487 193.889 143.079 Q196.852 140.672 201.991 140.672 Q207.153 140.672 210.093 143.079 Q213.033 145.487 213.033 149.63 Q213.033 152.593 211.343 154.653 Q209.676 156.713 206.69 157.454 Q210.07 158.241 211.945 160.533 Q213.843 162.824 213.843 166.135 Q213.843 171.158 210.764 173.843 Q207.709 176.528 201.991 176.528 Q196.274 176.528 193.195 173.843 Q190.139 171.158 190.139 166.135 Q190.139 162.824 192.038 160.533 Q193.936 158.241 197.315 157.454 M195.602 150.07 Q195.602 152.755 197.269 154.26 Q198.959 155.764 201.991 155.764 Q205 155.764 206.69 154.26 Q208.403 152.755 208.403 150.07 Q208.403 147.385 206.69 145.88 Q205 144.376 201.991 144.376 Q198.959 144.376 197.269 145.88 Q195.602 147.385 195.602 150.07 Z" fill="#000000" fill-rule="nonzero" fill-opacity="1" /><path clip-path="url(#clip920)" d="M22.818 922.094 L46.4666 930.815 L46.4666 913.341 L22.818 922.094 M16.4842 925.723 L16.4842 918.434 L64.0042 900.324 L64.0042 907.008 L51.8138 911.336 L51.8138 932.757 L64.0042 937.085 L64.0042 943.865 L16.4842 925.723 Z" fill="#000000" fill-rule="nonzero" fill-opacity="1" /><path clip-path="url(#clip920)" d="M45.7664 870.182 Q39.4007 870.182 35.8996 872.824 Q32.3984 875.434 32.3984 880.176 Q32.3984 884.887 35.8996 887.528 Q39.4007 890.138 45.7664 890.138 Q52.1003 890.138 55.6014 887.528 Q59.1026 884.887 59.1026 880.176 Q59.1026 875.434 55.6014 872.824 Q52.1003 870.182 45.7664 870.182 M59.58 864.325 Q68.683 864.325 73.1071 868.368 Q77.5631 872.41 77.5631 880.749 Q77.5631 883.836 77.0857 886.574 Q76.6401 889.311 75.6852 891.889 L69.9879 891.889 Q71.3884 889.311 72.0568 886.796 Q72.7252 884.282 72.7252 881.672 Q72.7252 875.911 69.7015 873.046 Q66.7096 870.182 60.6303 870.182 L57.7339 870.182 Q60.885 871.996 62.4446 874.829 Q64.0042 877.662 64.0042 881.608 Q64.0042 888.165 59.0071 892.175 Q54.01 896.186 45.7664 896.186 Q37.491 896.186 32.4939 892.175 Q27.4968 888.165 27.4968 881.608 Q27.4968 877.662 29.0564 874.829 Q30.616 871.996 33.7671 870.182 L28.3562 870.182 L28.3562 864.325 L59.58 864.325 Z" fill="#000000" fill-rule="nonzero" fill-opacity="1" /><path clip-path="url(#clip920)" d="M44.7161 821.771 L47.5806 821.771 L47.5806 848.698 Q53.6281 848.316 56.8109 845.069 Q59.9619 841.791 59.9619 835.966 Q59.9619 832.592 59.1344 829.441 Q58.3069 826.259 56.6518 823.139 L62.1899 823.139 Q63.5267 826.29 64.227 829.601 Q64.9272 832.911 64.9272 836.316 Q64.9272 844.846 59.9619 849.843 Q54.9967 854.809 46.5303 854.809 Q37.7774 854.809 32.6531 850.098 Q27.4968 845.356 27.4968 837.335 Q27.4968 830.142 32.1438 825.972 Q36.7589 821.771 44.7161 821.771 M42.9973 827.627 Q38.1912 827.691 35.3266 830.333 Q32.4621 832.943 32.4621 837.271 Q32.4621 842.173 35.2312 845.133 Q38.0002 848.061 43.0292 848.507 L42.9973 827.627 Z" fill="#000000" fill-rule="nonzero" fill-opacity="1" /><path clip-path="url(#clip920)" d="M14.5426 777.37 Q21.8632 781.635 29.0246 783.704 Q36.186 785.773 43.5384 785.773 Q50.8908 785.773 58.1159 783.704 Q65.3091 781.603 72.5979 777.37 L72.5979 782.462 Q65.1182 787.237 57.8931 789.624 Q50.668 791.979 43.5384 791.979 Q36.4406 791.979 29.2474 789.624 Q22.0542 787.269 14.5426 782.462 L14.5426 777.37 Z" fill="#000000" fill-rule="nonzero" fill-opacity="1" /><path clip-path="url(#clip920)" d="M16.4842 765.752 L16.4842 756.172 L48.8219 744.045 L16.4842 731.855 L16.4842 722.275 L64.0042 722.275 L64.0042 728.545 L22.277 728.545 L54.8694 740.799 L54.8694 747.26 L22.277 759.514 L64.0042 759.514 L64.0042 765.752 L16.4842 765.752 Z" fill="#000000" fill-rule="nonzero" fill-opacity="1" /><path clip-path="url(#clip920)" d="M46.0847 693.565 Q46.0847 700.663 47.7079 703.4 Q49.3312 706.138 53.2461 706.138 Q56.3653 706.138 58.2114 704.101 Q60.0256 702.032 60.0256 698.499 Q60.0256 693.629 56.5881 690.701 Q53.1188 687.741 47.3897 687.741 L46.0847 687.741 L46.0847 693.565 M43.6657 681.884 L64.0042 681.884 L64.0042 687.741 L58.5933 687.741 Q61.8398 689.746 63.3994 692.738 Q64.9272 695.73 64.9272 700.058 Q64.9272 705.533 61.8716 708.779 Q58.7843 711.994 53.6281 711.994 Q47.6125 711.994 44.5569 707.984 Q41.5014 703.941 41.5014 695.953 L41.5014 687.741 L40.9285 687.741 Q36.8862 687.741 34.6901 690.414 Q32.4621 693.056 32.4621 697.862 Q32.4621 700.918 33.1941 703.814 Q33.9262 706.711 35.3903 709.384 L29.9795 709.384 Q28.7381 706.169 28.1334 703.146 Q27.4968 700.122 27.4968 697.257 Q27.4968 689.523 31.5072 685.704 Q35.5176 681.884 43.6657 681.884 Z" fill="#000000" fill-rule="nonzero" fill-opacity="1" /><path clip-path="url(#clip920)" d="M14.5426 670.744 L14.5426 665.652 Q22.0542 660.877 29.2474 658.522 Q36.4406 656.135 43.5384 656.135 Q50.668 656.135 57.8931 658.522 Q65.1182 660.877 72.5979 665.652 L72.5979 670.744 Q65.3091 666.511 58.1159 664.442 Q50.8908 662.342 43.5384 662.342 Q36.186 662.342 29.0246 664.442 Q21.8632 666.511 14.5426 670.744 Z" fill="#000000" fill-rule="nonzero" fill-opacity="1" /><polyline clip-path="url(#clip922)" style="stroke:#009af9; stroke-linecap:round; stroke-linejoin:round; stroke-width:4; stroke-opacity:1; fill:none" points="309.359,1510.15 309.359,960.356 "/>
<polyline clip-path="url(#clip922)" style="stroke:#009af9; stroke-linecap:round; stroke-linejoin:round; stroke-width:4; stroke-opacity:1; fill:none" points="805.329,1372.7 805.329,777.092 "/>
<polyline clip-path="url(#clip922)" style="stroke:#009af9; stroke-linecap:round; stroke-linejoin:round; stroke-width:4; stroke-opacity:1; fill:none" points="1301.3,1303.98 1301.3,570.92 "/>
<polyline clip-path="url(#clip922)" style="stroke:#009af9; stroke-linecap:round; stroke-linejoin:round; stroke-width:4; stroke-opacity:1; fill:none" points="1797.27,1102.39 1797.27,690.042 "/>
<polyline clip-path="url(#clip922)" style="stroke:#009af9; stroke-linecap:round; stroke-linejoin:round; stroke-width:4; stroke-opacity:1; fill:none" points="2293.24,1143.62 2293.24,89.8529 "/>
<line clip-path="url(#clip922)" x1="325.359" y1="1510.15" x2="293.359" y2="1510.15" style="stroke:#009af9; stroke-width:4; stroke-opacity:1"/>
<line clip-path="url(#clip922)" x1="325.359" y1="960.356" x2="293.359" y2="960.356" style="stroke:#009af9; stroke-width:4; stroke-opacity:1"/>
<line clip-path="url(#clip922)" x1="821.329" y1="1372.7" x2="789.329" y2="1372.7" style="stroke:#009af9; stroke-width:4; stroke-opacity:1"/>
<line clip-path="url(#clip922)" x1="821.329" y1="777.092" x2="789.329" y2="777.092" style="stroke:#009af9; stroke-width:4; stroke-opacity:1"/>
<line clip-path="url(#clip922)" x1="1317.3" y1="1303.98" x2="1285.3" y2="1303.98" style="stroke:#009af9; stroke-width:4; stroke-opacity:1"/>
<line clip-path="url(#clip922)" x1="1317.3" y1="570.92" x2="1285.3" y2="570.92" style="stroke:#009af9; stroke-width:4; stroke-opacity:1"/>
<line clip-path="url(#clip922)" x1="1813.27" y1="1102.39" x2="1781.27" y2="1102.39" style="stroke:#009af9; stroke-width:4; stroke-opacity:1"/>
<line clip-path="url(#clip922)" x1="1813.27" y1="690.042" x2="1781.27" y2="690.042" style="stroke:#009af9; stroke-width:4; stroke-opacity:1"/>
<line clip-path="url(#clip922)" x1="2309.24" y1="1143.62" x2="2277.24" y2="1143.62" style="stroke:#009af9; stroke-width:4; stroke-opacity:1"/>
<line clip-path="url(#clip922)" x1="2309.24" y1="89.8529" x2="2277.24" y2="89.8529" style="stroke:#009af9; stroke-width:4; stroke-opacity:1"/>
<circle clip-path="url(#clip922)" cx="309.359" cy="1235.25" r="14.4" fill="#009af9" fill-rule="evenodd" fill-opacity="1" stroke="none"/>
<circle clip-path="url(#clip922)" cx="805.329" cy="1074.9" r="14.4" fill="#009af9" fill-rule="evenodd" fill-opacity="1" stroke="none"/>
<circle clip-path="url(#clip922)" cx="1301.3" cy="937.448" r="14.4" fill="#009af9" fill-rule="evenodd" fill-opacity="1" stroke="none"/>
<circle clip-path="url(#clip922)" cx="1797.27" cy="896.213" r="14.4" fill="#009af9" fill-rule="evenodd" fill-opacity="1" stroke="none"/>
<circle clip-path="url(#clip922)" cx="2293.24" cy="616.736" r="14.4" fill="#009af9" fill-rule="evenodd" fill-opacity="1" stroke="none"/>
<path clip-path="url(#clip922)" d="M309.359 1412.82 L805.329 1412.82 L1301.3 1412.82 L1797.27 1412.82 L2293.24 1412.82 L2293.24 938.503 L1797.27 938.503 L1301.3 938.503 L805.329 938.503 L309.359 938.503  Z" fill="#e26f46" fill-rule="evenodd" fill-opacity="0.6"/>
<polyline clip-path="url(#clip922)" style="stroke:#e26f46; stroke-linecap:round; stroke-linejoin:round; stroke-width:4; stroke-opacity:0; fill:none" points="309.359,1412.82 805.329,1412.82 1301.3,1412.82 1797.27,1412.82 2293.24,1412.82 "/>
<polyline clip-path="url(#clip922)" style="stroke:#000000; stroke-linecap:round; stroke-linejoin:round; stroke-width:4; stroke-opacity:1; fill:none" stroke-dasharray="2, 4" points="309.359,1130.25 805.329,1130.25 1301.3,1130.25 1797.27,1130.25 2293.24,1130.25 "/>
<path clip-path="url(#clip920)" d="M319.94 252.948 L1326.11 252.948 L1326.11 97.4278 L319.94 97.4278  Z" fill="#ffffff" fill-rule="evenodd" fill-opacity="1"/>
<polyline clip-path="url(#clip920)" style="stroke:#ffffff; stroke-linecap:round; stroke-linejoin:round; stroke-width:4; stroke-opacity:1; fill:none" points="319.94,252.948 1326.11,252.948 1326.11,97.4278 319.94,97.4278 319.94,252.948 "/>
<circle clip-path="url(#clip920)" cx="413.403" cy="149.268" r="20.48" fill="#009af9" fill-rule="evenodd" fill-opacity="1" stroke="none"/>
<path clip-path="url(#clip920)" d="M511.542 135.83 L511.542 162.705 L517.19 162.705 Q524.342 162.705 527.653 159.465 Q530.986 156.224 530.986 149.233 Q530.986 142.289 527.653 139.071 Q524.342 135.83 517.19 135.83 L511.542 135.83 M506.866 131.988 L516.472 131.988 Q526.518 131.988 531.217 136.178 Q535.916 140.344 535.916 149.233 Q535.916 158.168 531.194 162.358 Q526.472 166.548 516.472 166.548 L506.866 166.548 L506.866 131.988 Z" fill="#000000" fill-rule="nonzero" fill-opacity="1" /><path clip-path="url(#clip920)" d="M554.967 153.515 Q549.805 153.515 547.815 154.696 Q545.824 155.877 545.824 158.724 Q545.824 160.992 547.305 162.335 Q548.81 163.654 551.379 163.654 Q554.921 163.654 557.051 161.154 Q559.203 158.631 559.203 154.465 L559.203 153.515 L554.967 153.515 M563.463 151.756 L563.463 166.548 L559.203 166.548 L559.203 162.613 Q557.745 164.974 555.569 166.108 Q553.393 167.219 550.245 167.219 Q546.264 167.219 543.902 164.997 Q541.565 162.752 541.565 159.002 Q541.565 154.627 544.481 152.404 Q547.421 150.182 553.231 150.182 L559.203 150.182 L559.203 149.766 Q559.203 146.826 557.259 145.228 Q555.338 143.608 551.842 143.608 Q549.62 143.608 547.514 144.141 Q545.407 144.673 543.463 145.738 L543.463 141.803 Q545.801 140.9 548 140.46 Q550.199 139.997 552.282 139.997 Q557.907 139.997 560.685 142.914 Q563.463 145.83 563.463 151.756 Z" fill="#000000" fill-rule="nonzero" fill-opacity="1" /><path clip-path="url(#clip920)" d="M576.449 133.261 L576.449 140.622 L585.222 140.622 L585.222 143.932 L576.449 143.932 L576.449 158.006 Q576.449 161.177 577.305 162.08 Q578.185 162.983 580.847 162.983 L585.222 162.983 L585.222 166.548 L580.847 166.548 Q575.916 166.548 574.041 164.719 Q572.166 162.867 572.166 158.006 L572.166 143.932 L569.041 143.932 L569.041 140.622 L572.166 140.622 L572.166 133.261 L576.449 133.261 Z" fill="#000000" fill-rule="nonzero" fill-opacity="1" /><path clip-path="url(#clip920)" d="M602.606 153.515 Q597.444 153.515 595.453 154.696 Q593.462 155.877 593.462 158.724 Q593.462 160.992 594.944 162.335 Q596.449 163.654 599.018 163.654 Q602.56 163.654 604.689 161.154 Q606.842 158.631 606.842 154.465 L606.842 153.515 L602.606 153.515 M611.101 151.756 L611.101 166.548 L606.842 166.548 L606.842 162.613 Q605.384 164.974 603.208 166.108 Q601.032 167.219 597.884 167.219 Q593.902 167.219 591.541 164.997 Q589.203 162.752 589.203 159.002 Q589.203 154.627 592.12 152.404 Q595.06 150.182 600.87 150.182 L606.842 150.182 L606.842 149.766 Q606.842 146.826 604.898 145.228 Q602.976 143.608 599.481 143.608 Q597.259 143.608 595.152 144.141 Q593.046 144.673 591.101 145.738 L591.101 141.803 Q593.439 140.9 595.638 140.46 Q597.837 139.997 599.921 139.997 Q605.546 139.997 608.323 142.914 Q611.101 145.83 611.101 151.756 Z" fill="#000000" fill-rule="nonzero" fill-opacity="1" /><path clip-path="url(#clip920)" d="M645.175 130.576 Q642.073 135.9 640.569 141.108 Q639.064 146.316 639.064 151.664 Q639.064 157.011 640.569 162.265 Q642.096 167.497 645.175 172.798 L641.471 172.798 Q637.999 167.358 636.263 162.103 Q634.55 156.849 634.55 151.664 Q634.55 146.502 636.263 141.27 Q637.976 136.039 641.471 130.576 L645.175 130.576 Z" fill="#000000" fill-rule="nonzero" fill-opacity="1" /><path clip-path="url(#clip920)" d="M663.485 143.608 Q660.059 143.608 658.069 146.293 Q656.078 148.955 656.078 153.608 Q656.078 158.261 658.045 160.946 Q660.036 163.608 663.485 163.608 Q666.888 163.608 668.879 160.923 Q670.869 158.238 670.869 153.608 Q670.869 149.002 668.879 146.316 Q666.888 143.608 663.485 143.608 M663.485 139.997 Q669.041 139.997 672.212 143.608 Q675.383 147.219 675.383 153.608 Q675.383 159.974 672.212 163.608 Q669.041 167.219 663.485 167.219 Q657.907 167.219 654.735 163.608 Q651.587 159.974 651.587 153.608 Q651.587 147.219 654.735 143.608 Q657.907 139.997 663.485 139.997 Z" fill="#000000" fill-rule="nonzero" fill-opacity="1" /><path clip-path="url(#clip920)" d="M701.054 153.608 Q701.054 148.909 699.11 146.247 Q697.189 143.562 693.809 143.562 Q690.429 143.562 688.485 146.247 Q686.564 148.909 686.564 153.608 Q686.564 158.307 688.485 160.992 Q690.429 163.654 693.809 163.654 Q697.189 163.654 699.11 160.992 Q701.054 158.307 701.054 153.608 M686.564 144.557 Q687.906 142.242 689.943 141.131 Q692.004 139.997 694.851 139.997 Q699.573 139.997 702.513 143.747 Q705.476 147.497 705.476 153.608 Q705.476 159.719 702.513 163.469 Q699.573 167.219 694.851 167.219 Q692.004 167.219 689.943 166.108 Q687.906 164.974 686.564 162.659 L686.564 166.548 L682.281 166.548 L682.281 130.529 L686.564 130.529 L686.564 144.557 Z" fill="#000000" fill-rule="nonzero" fill-opacity="1" /><path clip-path="url(#clip920)" d="M729.064 141.386 L729.064 145.414 Q727.258 144.488 725.314 144.025 Q723.369 143.562 721.286 143.562 Q718.115 143.562 716.517 144.534 Q714.943 145.506 714.943 147.451 Q714.943 148.932 716.077 149.789 Q717.212 150.622 720.638 151.386 L722.096 151.71 Q726.633 152.682 728.531 154.465 Q730.452 156.224 730.452 159.395 Q730.452 163.006 727.582 165.113 Q724.735 167.219 719.735 167.219 Q717.652 167.219 715.383 166.802 Q713.138 166.409 710.638 165.599 L710.638 161.201 Q712.999 162.427 715.29 163.052 Q717.582 163.654 719.827 163.654 Q722.837 163.654 724.457 162.636 Q726.077 161.594 726.077 159.719 Q726.077 157.983 724.897 157.057 Q723.739 156.131 719.781 155.275 L718.3 154.928 Q714.341 154.094 712.582 152.381 Q710.823 150.645 710.823 147.636 Q710.823 143.978 713.415 141.988 Q716.008 139.997 720.777 139.997 Q723.138 139.997 725.221 140.344 Q727.304 140.691 729.064 141.386 Z" fill="#000000" fill-rule="nonzero" fill-opacity="1" /><path clip-path="url(#clip920)" d="M759.411 152.52 L759.411 154.603 L739.827 154.603 Q740.105 159.002 742.466 161.316 Q744.85 163.608 749.087 163.608 Q751.54 163.608 753.832 163.006 Q756.147 162.404 758.415 161.201 L758.415 165.228 Q756.124 166.201 753.716 166.71 Q751.309 167.219 748.832 167.219 Q742.628 167.219 738.994 163.608 Q735.383 159.997 735.383 153.84 Q735.383 147.474 738.809 143.747 Q742.258 139.997 748.091 139.997 Q753.323 139.997 756.355 143.377 Q759.411 146.733 759.411 152.52 M755.151 151.27 Q755.105 147.775 753.184 145.691 Q751.286 143.608 748.138 143.608 Q744.573 143.608 742.42 145.622 Q740.29 147.636 739.966 151.293 L755.151 151.27 Z" fill="#000000" fill-rule="nonzero" fill-opacity="1" /><path clip-path="url(#clip920)" d="M781.424 144.603 Q780.707 144.187 779.85 144.002 Q779.017 143.793 777.998 143.793 Q774.387 143.793 772.443 146.154 Q770.522 148.492 770.522 152.89 L770.522 166.548 L766.239 166.548 L766.239 140.622 L770.522 140.622 L770.522 144.65 Q771.864 142.289 774.017 141.154 Q776.17 139.997 779.248 139.997 Q779.688 139.997 780.221 140.066 Q780.753 140.113 781.401 140.229 L781.424 144.603 Z" fill="#000000" fill-rule="nonzero" fill-opacity="1" /><path clip-path="url(#clip920)" d="M782.836 140.622 L787.35 140.622 L795.452 162.381 L803.554 140.622 L808.068 140.622 L798.346 166.548 L792.559 166.548 L782.836 140.622 Z" fill="#000000" fill-rule="nonzero" fill-opacity="1" /><path clip-path="url(#clip920)" d="M836.123 152.52 L836.123 154.603 L816.54 154.603 Q816.818 159.002 819.179 161.316 Q821.563 163.608 825.799 163.608 Q828.253 163.608 830.544 163.006 Q832.859 162.404 835.128 161.201 L835.128 165.228 Q832.836 166.201 830.429 166.71 Q828.021 167.219 825.544 167.219 Q819.341 167.219 815.707 163.608 Q812.095 159.997 812.095 153.84 Q812.095 147.474 815.521 143.747 Q818.97 139.997 824.804 139.997 Q830.035 139.997 833.068 143.377 Q836.123 146.733 836.123 152.52 M831.864 151.27 Q831.818 147.775 829.896 145.691 Q827.998 143.608 824.85 143.608 Q821.285 143.608 819.132 145.622 Q817.003 147.636 816.679 151.293 L831.864 151.27 Z" fill="#000000" fill-rule="nonzero" fill-opacity="1" /><path clip-path="url(#clip920)" d="M860.174 144.557 L860.174 130.529 L864.433 130.529 L864.433 166.548 L860.174 166.548 L860.174 162.659 Q858.831 164.974 856.771 166.108 Q854.734 167.219 851.864 167.219 Q847.165 167.219 844.202 163.469 Q841.262 159.719 841.262 153.608 Q841.262 147.497 844.202 143.747 Q847.165 139.997 851.864 139.997 Q854.734 139.997 856.771 141.131 Q858.831 142.242 860.174 144.557 M845.66 153.608 Q845.66 158.307 847.581 160.992 Q849.526 163.654 852.905 163.654 Q856.285 163.654 858.23 160.992 Q860.174 158.307 860.174 153.608 Q860.174 148.909 858.23 146.247 Q856.285 143.562 852.905 143.562 Q849.526 143.562 847.581 146.247 Q845.66 148.909 845.66 153.608 Z" fill="#000000" fill-rule="nonzero" fill-opacity="1" /><path clip-path="url(#clip920)" d="M900.058 153.515 Q894.896 153.515 892.905 154.696 Q890.915 155.877 890.915 158.724 Q890.915 160.992 892.396 162.335 Q893.901 163.654 896.47 163.654 Q900.012 163.654 902.141 161.154 Q904.294 158.631 904.294 154.465 L904.294 153.515 L900.058 153.515 M908.553 151.756 L908.553 166.548 L904.294 166.548 L904.294 162.613 Q902.836 164.974 900.66 166.108 Q898.484 167.219 895.336 167.219 Q891.354 167.219 888.993 164.997 Q886.655 162.752 886.655 159.002 Q886.655 154.627 889.572 152.404 Q892.512 150.182 898.322 150.182 L904.294 150.182 L904.294 149.766 Q904.294 146.826 902.35 145.228 Q900.428 143.608 896.933 143.608 Q894.711 143.608 892.604 144.141 Q890.498 144.673 888.553 145.738 L888.553 141.803 Q890.891 140.9 893.09 140.46 Q895.289 139.997 897.373 139.997 Q902.998 139.997 905.776 142.914 Q908.553 145.83 908.553 151.756 Z" fill="#000000" fill-rule="nonzero" fill-opacity="1" /><path clip-path="url(#clip920)" d="M934.387 153.284 Q934.387 148.654 932.465 146.108 Q930.567 143.562 927.118 143.562 Q923.692 143.562 921.771 146.108 Q919.873 148.654 919.873 153.284 Q919.873 157.89 921.771 160.437 Q923.692 162.983 927.118 162.983 Q930.567 162.983 932.465 160.437 Q934.387 157.89 934.387 153.284 M938.646 163.33 Q938.646 169.951 935.706 173.168 Q932.766 176.409 926.701 176.409 Q924.456 176.409 922.465 176.062 Q920.475 175.738 918.6 175.043 L918.6 170.9 Q920.475 171.918 922.303 172.404 Q924.132 172.89 926.03 172.89 Q930.22 172.89 932.303 170.691 Q934.387 168.515 934.387 164.094 L934.387 161.988 Q933.067 164.279 931.007 165.414 Q928.947 166.548 926.076 166.548 Q921.308 166.548 918.391 162.914 Q915.475 159.279 915.475 153.284 Q915.475 147.266 918.391 143.631 Q921.308 139.997 926.076 139.997 Q928.947 139.997 931.007 141.131 Q933.067 142.266 934.387 144.557 L934.387 140.622 L938.646 140.622 L938.646 163.33 Z" fill="#000000" fill-rule="nonzero" fill-opacity="1" /><path clip-path="url(#clip920)" d="M969.595 152.52 L969.595 154.603 L950.011 154.603 Q950.289 159.002 952.65 161.316 Q955.035 163.608 959.271 163.608 Q961.724 163.608 964.016 163.006 Q966.331 162.404 968.599 161.201 L968.599 165.228 Q966.308 166.201 963.9 166.71 Q961.493 167.219 959.016 167.219 Q952.812 167.219 949.178 163.608 Q945.567 159.997 945.567 153.84 Q945.567 147.474 948.993 143.747 Q952.442 139.997 958.275 139.997 Q963.507 139.997 966.539 143.377 Q969.595 146.733 969.595 152.52 M965.335 151.27 Q965.289 147.775 963.368 145.691 Q961.47 143.608 958.322 143.608 Q954.757 143.608 952.604 145.622 Q950.474 147.636 950.15 151.293 L965.335 151.27 Z" fill="#000000" fill-rule="nonzero" fill-opacity="1" /><path clip-path="url(#clip920)" d="M993.113 141.386 L993.113 145.414 Q991.307 144.488 989.363 144.025 Q987.419 143.562 985.335 143.562 Q982.164 143.562 980.567 144.534 Q978.993 145.506 978.993 147.451 Q978.993 148.932 980.127 149.789 Q981.261 150.622 984.687 151.386 L986.145 151.71 Q990.683 152.682 992.581 154.465 Q994.502 156.224 994.502 159.395 Q994.502 163.006 991.632 165.113 Q988.784 167.219 983.784 167.219 Q981.701 167.219 979.433 166.802 Q977.187 166.409 974.687 165.599 L974.687 161.201 Q977.048 162.427 979.34 163.052 Q981.632 163.654 983.877 163.654 Q986.886 163.654 988.507 162.636 Q990.127 161.594 990.127 159.719 Q990.127 157.983 988.946 157.057 Q987.789 156.131 983.831 155.275 L982.349 154.928 Q978.391 154.094 976.632 152.381 Q974.872 150.645 974.872 147.636 Q974.872 143.978 977.465 141.988 Q980.058 139.997 984.826 139.997 Q987.187 139.997 989.27 140.344 Q991.354 140.691 993.113 141.386 Z" fill="#000000" fill-rule="nonzero" fill-opacity="1" /><path clip-path="url(#clip920)" d="M1000.61 130.576 L1004.32 130.576 Q1007.79 136.039 1009.5 141.27 Q1011.24 146.502 1011.24 151.664 Q1011.24 156.849 1009.5 162.103 Q1007.79 167.358 1004.32 172.798 L1000.61 172.798 Q1003.69 167.497 1005.2 162.265 Q1006.72 157.011 1006.72 151.664 Q1006.72 146.316 1005.2 141.108 Q1003.69 135.9 1000.61 130.576 Z" fill="#000000" fill-rule="nonzero" fill-opacity="1" /><path clip-path="url(#clip920)" d="M343.306 221.844 L483.5 221.844 L483.5 180.372 L343.306 180.372 L343.306 221.844  Z" fill="#e26f46" fill-rule="evenodd" fill-opacity="0.6"/>
<polyline clip-path="url(#clip920)" style="stroke:#e26f46; stroke-linecap:round; stroke-linejoin:round; stroke-width:4; stroke-opacity:0; fill:none" points="343.306,180.372 483.5,180.372 "/>
<path clip-path="url(#clip920)" d="M506.866 183.828 L513.833 183.828 L522.653 207.346 L531.518 183.828 L538.486 183.828 L538.486 218.388 L533.926 218.388 L533.926 188.041 L525.014 211.744 L520.315 211.744 L511.403 188.041 L511.403 218.388 L506.866 218.388 L506.866 183.828 Z" fill="#000000" fill-rule="nonzero" fill-opacity="1" /><path clip-path="url(#clip920)" d="M557.629 195.448 Q554.203 195.448 552.213 198.133 Q550.222 200.795 550.222 205.448 Q550.222 210.101 552.189 212.786 Q554.18 215.448 557.629 215.448 Q561.032 215.448 563.023 212.763 Q565.013 210.078 565.013 205.448 Q565.013 200.842 563.023 198.156 Q561.032 195.448 557.629 195.448 M557.629 191.837 Q563.185 191.837 566.356 195.448 Q569.527 199.059 569.527 205.448 Q569.527 211.814 566.356 215.448 Q563.185 219.059 557.629 219.059 Q552.051 219.059 548.879 215.448 Q545.731 211.814 545.731 205.448 Q545.731 199.059 548.879 195.448 Q552.051 191.837 557.629 191.837 Z" fill="#000000" fill-rule="nonzero" fill-opacity="1" /><path clip-path="url(#clip920)" d="M593.648 196.397 L593.648 182.369 L597.907 182.369 L597.907 218.388 L593.648 218.388 L593.648 214.499 Q592.305 216.814 590.245 217.948 Q588.208 219.059 585.337 219.059 Q580.638 219.059 577.675 215.309 Q574.736 211.559 574.736 205.448 Q574.736 199.337 577.675 195.587 Q580.638 191.837 585.337 191.837 Q588.208 191.837 590.245 192.971 Q592.305 194.082 593.648 196.397 M579.134 205.448 Q579.134 210.147 581.055 212.832 Q583 215.494 586.379 215.494 Q589.759 215.494 591.703 212.832 Q593.648 210.147 593.648 205.448 Q593.648 200.749 591.703 198.087 Q589.759 195.402 586.379 195.402 Q583 195.402 581.055 198.087 Q579.134 200.749 579.134 205.448 Z" fill="#000000" fill-rule="nonzero" fill-opacity="1" /><path clip-path="url(#clip920)" d="M628.856 204.36 L628.856 206.443 L609.273 206.443 Q609.55 210.842 611.911 213.156 Q614.296 215.448 618.532 215.448 Q620.985 215.448 623.277 214.846 Q625.592 214.244 627.86 213.041 L627.86 217.068 Q625.569 218.041 623.161 218.55 Q620.754 219.059 618.277 219.059 Q612.073 219.059 608.439 215.448 Q604.828 211.837 604.828 205.68 Q604.828 199.314 608.254 195.587 Q611.703 191.837 617.536 191.837 Q622.768 191.837 625.8 195.217 Q628.856 198.573 628.856 204.36 M624.597 203.11 Q624.55 199.615 622.629 197.531 Q620.731 195.448 617.583 195.448 Q614.018 195.448 611.865 197.462 Q609.735 199.476 609.411 203.133 L624.597 203.11 Z" fill="#000000" fill-rule="nonzero" fill-opacity="1" /><path clip-path="url(#clip920)" d="M635.846 182.369 L640.106 182.369 L640.106 218.388 L635.846 218.388 L635.846 182.369 Z" fill="#000000" fill-rule="nonzero" fill-opacity="1" /><path clip-path="url(#clip920)" d="M674.318 182.416 Q671.217 187.74 669.712 192.948 Q668.207 198.156 668.207 203.504 Q668.207 208.851 669.712 214.105 Q671.24 219.337 674.318 224.638 L670.615 224.638 Q667.143 219.198 665.406 213.943 Q663.694 208.689 663.694 203.504 Q663.694 198.342 665.406 193.11 Q667.119 187.879 670.615 182.416 L674.318 182.416 Z" fill="#000000" fill-rule="nonzero" fill-opacity="1" /><path clip-path="url(#clip920)" d="M693.763 199.244 Q690.615 199.244 688.763 201.397 Q686.934 203.55 686.934 207.3 Q686.934 211.027 688.763 213.203 Q690.615 215.355 693.763 215.355 Q696.911 215.355 698.74 213.203 Q700.591 211.027 700.591 207.3 Q700.591 203.55 698.74 201.397 Q696.911 199.244 693.763 199.244 M703.045 184.592 L703.045 188.851 Q701.286 188.018 699.48 187.578 Q697.698 187.138 695.939 187.138 Q691.309 187.138 688.855 190.263 Q686.425 193.388 686.078 199.707 Q687.443 197.693 689.504 196.629 Q691.564 195.541 694.041 195.541 Q699.249 195.541 702.258 198.712 Q705.291 201.86 705.291 207.3 Q705.291 212.624 702.142 215.842 Q698.994 219.059 693.763 219.059 Q687.767 219.059 684.596 214.476 Q681.425 209.869 681.425 201.143 Q681.425 192.948 685.314 188.087 Q689.203 183.203 695.754 183.203 Q697.513 183.203 699.295 183.55 Q701.101 183.897 703.045 184.592 Z" fill="#000000" fill-rule="nonzero" fill-opacity="1" /><path clip-path="url(#clip920)" d="M723.925 199.244 Q720.777 199.244 718.925 201.397 Q717.096 203.55 717.096 207.3 Q717.096 211.027 718.925 213.203 Q720.777 215.355 723.925 215.355 Q727.073 215.355 728.901 213.203 Q730.753 211.027 730.753 207.3 Q730.753 203.55 728.901 201.397 Q727.073 199.244 723.925 199.244 M733.207 184.592 L733.207 188.851 Q731.448 188.018 729.642 187.578 Q727.86 187.138 726.101 187.138 Q721.471 187.138 719.017 190.263 Q716.587 193.388 716.24 199.707 Q717.605 197.693 719.665 196.629 Q721.726 195.541 724.202 195.541 Q729.411 195.541 732.42 198.712 Q735.452 201.86 735.452 207.3 Q735.452 212.624 732.304 215.842 Q729.156 219.059 723.925 219.059 Q717.929 219.059 714.758 214.476 Q711.587 209.869 711.587 201.143 Q711.587 192.948 715.476 188.087 Q719.365 183.203 725.915 183.203 Q727.675 183.203 729.457 183.55 Q731.263 183.897 733.207 184.592 Z" fill="#000000" fill-rule="nonzero" fill-opacity="1" /><path clip-path="url(#clip920)" d="M743.508 212.508 L748.392 212.508 L748.392 218.388 L743.508 218.388 L743.508 212.508 Z" fill="#000000" fill-rule="nonzero" fill-opacity="1" /><path clip-path="url(#clip920)" d="M772.744 199.754 Q776.1 200.471 777.975 202.74 Q779.873 205.008 779.873 208.342 Q779.873 213.457 776.355 216.258 Q772.836 219.059 766.355 219.059 Q764.179 219.059 761.864 218.619 Q759.573 218.203 757.119 217.346 L757.119 212.832 Q759.063 213.967 761.378 214.545 Q763.693 215.124 766.216 215.124 Q770.614 215.124 772.906 213.388 Q775.221 211.652 775.221 208.342 Q775.221 205.286 773.068 203.573 Q770.938 201.837 767.119 201.837 L763.091 201.837 L763.091 197.994 L767.304 197.994 Q770.753 197.994 772.582 196.629 Q774.411 195.24 774.411 192.647 Q774.411 189.985 772.512 188.573 Q770.637 187.138 767.119 187.138 Q765.198 187.138 762.999 187.555 Q760.799 187.971 758.161 188.851 L758.161 184.684 Q760.823 183.944 763.137 183.573 Q765.475 183.203 767.536 183.203 Q772.86 183.203 775.961 185.633 Q779.063 188.041 779.063 192.161 Q779.063 195.031 777.42 197.022 Q775.776 198.99 772.744 199.754 Z" fill="#000000" fill-rule="nonzero" fill-opacity="1" /><path clip-path="url(#clip920)" d="M787.559 183.828 L809.781 183.828 L809.781 185.819 L797.234 218.388 L792.35 218.388 L804.156 187.763 L787.559 187.763 L787.559 183.828 Z" fill="#000000" fill-rule="nonzero" fill-opacity="1" /><path clip-path="url(#clip920)" d="M829.48 199.244 Q826.332 199.244 824.48 201.397 Q822.651 203.55 822.651 207.3 Q822.651 211.027 824.48 213.203 Q826.332 215.355 829.48 215.355 Q832.628 215.355 834.456 213.203 Q836.308 211.027 836.308 207.3 Q836.308 203.55 834.456 201.397 Q832.628 199.244 829.48 199.244 M838.762 184.592 L838.762 188.851 Q837.003 188.018 835.197 187.578 Q833.415 187.138 831.656 187.138 Q827.026 187.138 824.572 190.263 Q822.142 193.388 821.795 199.707 Q823.16 197.693 825.22 196.629 Q827.281 195.541 829.757 195.541 Q834.966 195.541 837.975 198.712 Q841.007 201.86 841.007 207.3 Q841.007 212.624 837.859 215.842 Q834.711 219.059 829.48 219.059 Q823.484 219.059 820.313 214.476 Q817.142 209.869 817.142 201.143 Q817.142 192.948 821.031 188.087 Q824.92 183.203 831.47 183.203 Q833.23 183.203 835.012 183.55 Q836.818 183.897 838.762 184.592 Z" fill="#000000" fill-rule="nonzero" fill-opacity="1" /><path clip-path="url(#clip920)" d="M880.868 188.666 L880.868 201.559 L893.762 201.559 L893.762 205.494 L880.868 205.494 L880.868 218.388 L876.979 218.388 L876.979 205.494 L864.086 205.494 L864.086 201.559 L876.979 201.559 L876.979 188.666 L880.868 188.666 Z" fill="#000000" fill-rule="nonzero" fill-opacity="1" /><path clip-path="url(#clip920)" d="M913.854 186.907 Q910.243 186.907 908.414 190.471 Q906.609 194.013 906.609 201.143 Q906.609 208.249 908.414 211.814 Q910.243 215.355 913.854 215.355 Q917.488 215.355 919.294 211.814 Q921.123 208.249 921.123 201.143 Q921.123 194.013 919.294 190.471 Q917.488 186.907 913.854 186.907 M913.854 183.203 Q919.664 183.203 922.72 187.809 Q925.799 192.393 925.799 201.143 Q925.799 209.869 922.72 214.476 Q919.664 219.059 913.854 219.059 Q908.044 219.059 904.965 214.476 Q901.91 209.869 901.91 201.143 Q901.91 192.393 904.965 187.809 Q908.044 183.203 913.854 183.203 Z" fill="#000000" fill-rule="nonzero" fill-opacity="1" /><path clip-path="url(#clip920)" d="M934.016 212.508 L938.9 212.508 L938.9 218.388 L934.016 218.388 L934.016 212.508 Z" fill="#000000" fill-rule="nonzero" fill-opacity="1" /><path clip-path="url(#clip920)" d="M959.085 186.907 Q955.474 186.907 953.646 190.471 Q951.84 194.013 951.84 201.143 Q951.84 208.249 953.646 211.814 Q955.474 215.355 959.085 215.355 Q962.72 215.355 964.525 211.814 Q966.354 208.249 966.354 201.143 Q966.354 194.013 964.525 190.471 Q962.72 186.907 959.085 186.907 M959.085 183.203 Q964.896 183.203 967.951 187.809 Q971.03 192.393 971.03 201.143 Q971.03 209.869 967.951 214.476 Q964.896 219.059 959.085 219.059 Q953.275 219.059 950.197 214.476 Q947.141 209.869 947.141 201.143 Q947.141 192.393 950.197 187.809 Q953.275 183.203 959.085 183.203 Z" fill="#000000" fill-rule="nonzero" fill-opacity="1" /><path clip-path="url(#clip920)" d="M989.247 201.976 Q985.914 201.976 983.993 203.758 Q982.095 205.541 982.095 208.666 Q982.095 211.791 983.993 213.573 Q985.914 215.355 989.247 215.355 Q992.581 215.355 994.502 213.573 Q996.423 211.767 996.423 208.666 Q996.423 205.541 994.502 203.758 Q992.604 201.976 989.247 201.976 M984.571 199.985 Q981.562 199.244 979.872 197.184 Q978.206 195.124 978.206 192.161 Q978.206 188.018 981.146 185.61 Q984.108 183.203 989.247 183.203 Q994.409 183.203 997.349 185.61 Q1000.29 188.018 1000.29 192.161 Q1000.29 195.124 998.599 197.184 Q996.932 199.244 993.946 199.985 Q997.326 200.772 999.201 203.064 Q1001.1 205.355 1001.1 208.666 Q1001.1 213.689 998.02 216.374 Q994.965 219.059 989.247 219.059 Q983.53 219.059 980.451 216.374 Q977.396 213.689 977.396 208.666 Q977.396 205.355 979.294 203.064 Q981.192 200.772 984.571 199.985 M982.858 192.601 Q982.858 195.286 984.525 196.791 Q986.215 198.295 989.247 198.295 Q992.257 198.295 993.946 196.791 Q995.659 195.286 995.659 192.601 Q995.659 189.916 993.946 188.411 Q992.257 186.907 989.247 186.907 Q986.215 186.907 984.525 188.411 Q982.858 189.916 982.858 192.601 Z" fill="#000000" fill-rule="nonzero" fill-opacity="1" /><path clip-path="url(#clip920)" d="M1022.26 187.902 L1010.45 206.351 L1022.26 206.351 L1022.26 187.902 M1021.03 183.828 L1026.91 183.828 L1026.91 206.351 L1031.84 206.351 L1031.84 210.24 L1026.91 210.24 L1026.91 218.388 L1022.26 218.388 L1022.26 210.24 L1006.65 210.24 L1006.65 205.726 L1021.03 183.828 Z" fill="#000000" fill-rule="nonzero" fill-opacity="1" /><path clip-path="url(#clip920)" d="M1046.54 183.828 L1050.47 183.828 L1038.44 222.786 L1034.5 222.786 L1046.54 183.828 Z" fill="#000000" fill-rule="nonzero" fill-opacity="1" /><path clip-path="url(#clip920)" d="M1052.79 203.504 L1065.27 203.504 L1065.27 207.3 L1052.79 207.3 L1052.79 203.504 Z" fill="#000000" fill-rule="nonzero" fill-opacity="1" /><path clip-path="url(#clip920)" d="M1082.65 186.907 Q1079.04 186.907 1077.21 190.471 Q1075.4 194.013 1075.4 201.143 Q1075.4 208.249 1077.21 211.814 Q1079.04 215.355 1082.65 215.355 Q1086.28 215.355 1088.09 211.814 Q1089.92 208.249 1089.92 201.143 Q1089.92 194.013 1088.09 190.471 Q1086.28 186.907 1082.65 186.907 M1082.65 183.203 Q1088.46 183.203 1091.52 187.809 Q1094.59 192.393 1094.59 201.143 Q1094.59 209.869 1091.52 214.476 Q1088.46 219.059 1082.65 219.059 Q1076.84 219.059 1073.76 214.476 Q1070.71 209.869 1070.71 201.143 Q1070.71 192.393 1073.76 187.809 Q1076.84 183.203 1082.65 183.203 Z" fill="#000000" fill-rule="nonzero" fill-opacity="1" /><path clip-path="url(#clip920)" d="M1102.81 212.508 L1107.7 212.508 L1107.7 218.388 L1102.81 218.388 L1102.81 212.508 Z" fill="#000000" fill-rule="nonzero" fill-opacity="1" /><path clip-path="url(#clip920)" d="M1118.69 214.453 L1126.33 214.453 L1126.33 188.087 L1118.02 189.754 L1118.02 185.494 L1126.28 183.828 L1130.96 183.828 L1130.96 214.453 L1138.6 214.453 L1138.6 218.388 L1118.69 218.388 L1118.69 214.453 Z" fill="#000000" fill-rule="nonzero" fill-opacity="1" /><path clip-path="url(#clip920)" d="M1152.07 214.453 L1168.39 214.453 L1168.39 218.388 L1146.45 218.388 L1146.45 214.453 Q1149.11 211.698 1153.69 207.068 Q1158.3 202.416 1159.48 201.073 Q1161.72 198.55 1162.6 196.814 Q1163.51 195.055 1163.51 193.365 Q1163.51 190.61 1161.56 188.874 Q1159.64 187.138 1156.54 187.138 Q1154.34 187.138 1151.89 187.902 Q1149.45 188.666 1146.68 190.217 L1146.68 185.494 Q1149.5 184.36 1151.95 183.782 Q1154.41 183.203 1156.45 183.203 Q1161.82 183.203 1165.01 185.888 Q1168.2 188.573 1168.2 193.064 Q1168.2 195.194 1167.39 197.115 Q1166.61 199.013 1164.5 201.606 Q1163.92 202.277 1160.82 205.494 Q1157.72 208.689 1152.07 214.453 Z" fill="#000000" fill-rule="nonzero" fill-opacity="1" /><path clip-path="url(#clip920)" d="M1192.37 199.754 Q1195.73 200.471 1197.6 202.74 Q1199.5 205.008 1199.5 208.342 Q1199.5 213.457 1195.98 216.258 Q1192.46 219.059 1185.98 219.059 Q1183.81 219.059 1181.49 218.619 Q1179.2 218.203 1176.75 217.346 L1176.75 212.832 Q1178.69 213.967 1181.01 214.545 Q1183.32 215.124 1185.84 215.124 Q1190.24 215.124 1192.53 213.388 Q1194.85 211.652 1194.85 208.342 Q1194.85 205.286 1192.7 203.573 Q1190.57 201.837 1186.75 201.837 L1182.72 201.837 L1182.72 197.994 L1186.93 197.994 Q1190.38 197.994 1192.21 196.629 Q1194.04 195.24 1194.04 192.647 Q1194.04 189.985 1192.14 188.573 Q1190.26 187.138 1186.75 187.138 Q1184.82 187.138 1182.63 187.555 Q1180.43 187.971 1177.79 188.851 L1177.79 184.684 Q1180.45 183.944 1182.76 183.573 Q1185.1 183.203 1187.16 183.203 Q1192.49 183.203 1195.59 185.633 Q1198.69 188.041 1198.69 192.161 Q1198.69 195.031 1197.05 197.022 Q1195.4 198.99 1192.37 199.754 Z" fill="#000000" fill-rule="nonzero" fill-opacity="1" /><path clip-path="url(#clip920)" d="M1223.02 183.828 L1229.99 183.828 L1238.81 207.346 L1247.67 183.828 L1254.64 183.828 L1254.64 218.388 L1250.08 218.388 L1250.08 188.041 L1241.17 211.744 L1236.47 211.744 L1227.56 188.041 L1227.56 218.388 L1223.02 218.388 L1223.02 183.828 Z" fill="#000000" fill-rule="nonzero" fill-opacity="1" /><path clip-path="url(#clip920)" d="M1275.52 205.355 Q1270.36 205.355 1268.37 206.536 Q1266.38 207.717 1266.38 210.564 Q1266.38 212.832 1267.86 214.175 Q1269.36 215.494 1271.93 215.494 Q1275.47 215.494 1277.6 212.994 Q1279.76 210.471 1279.76 206.305 L1279.76 205.355 L1275.52 205.355 M1284.01 203.596 L1284.01 218.388 L1279.76 218.388 L1279.76 214.453 Q1278.3 216.814 1276.12 217.948 Q1273.94 219.059 1270.8 219.059 Q1266.82 219.059 1264.45 216.837 Q1262.12 214.592 1262.12 210.842 Q1262.12 206.467 1265.03 204.244 Q1267.97 202.022 1273.78 202.022 L1279.76 202.022 L1279.76 201.606 Q1279.76 198.666 1277.81 197.068 Q1275.89 195.448 1272.39 195.448 Q1270.17 195.448 1268.07 195.981 Q1265.96 196.513 1264.01 197.578 L1264.01 193.643 Q1266.35 192.74 1268.55 192.3 Q1270.75 191.837 1272.83 191.837 Q1278.46 191.837 1281.24 194.754 Q1284.01 197.67 1284.01 203.596 Z" fill="#000000" fill-rule="nonzero" fill-opacity="1" /><path clip-path="url(#clip920)" d="M1292.12 182.416 L1295.82 182.416 Q1299.29 187.879 1301 193.11 Q1302.74 198.342 1302.74 203.504 Q1302.74 208.689 1301 213.943 Q1299.29 219.198 1295.82 224.638 L1292.12 224.638 Q1295.19 219.337 1296.7 214.105 Q1298.23 208.851 1298.23 203.504 Q1298.23 198.156 1296.7 192.948 Q1295.19 187.74 1292.12 182.416 Z" fill="#000000" fill-rule="nonzero" fill-opacity="1" /></svg>
