<?xml version="1.0" encoding="utf-8"?>
<svg xmlns="http://www.w3.org/2000/svg" xmlns:xlink="http://www.w3.org/1999/xlink" width="600" height="400" viewBox="0 0 2400 1600">
<defs>
  <clipPath id="clip120">
    <rect x="0" y="0" width="2400" height="1600"/>
  </clipPath>
</defs>
<path clip-path="url(#clip120)" d="M0 1600 L2400 1600 L2400 8.88178e-14 L0 8.88178e-14  Z" fill="#ffffff" fill-rule="evenodd" fill-opacity="1"/>
<defs>
  <clipPath id="clip121">
    <rect x="480" y="0" width="1681" height="1600"/>
  </clipPath>
</defs>
<path clip-path="url(#clip120)" d="M279.519 1552.76 L2352.76 1552.76 L2352.76 47.2441 L279.519 47.2441  Z" fill="#ffffff" fill-rule="evenodd" fill-opacity="1"/>
<defs>
  <clipPath id="clip122">
    <rect x="279" y="47" width="2074" height="1507"/>
  </clipPath>
</defs>
<polyline clip-path="url(#clip122)" style="stroke:#000000; stroke-linecap:round; stroke-linejoin:round; stroke-width:2; stroke-opacity:0.1; fill:none" points="279.519,1265.27 2352.76,1265.27 "/>
<polyline clip-path="url(#clip122)" style="stroke:#000000; stroke-linecap:round; stroke-linejoin:round; stroke-width:2; stroke-opacity:0.1; fill:none" points="279.519,959.171 2352.76,959.171 "/>
<polyline clip-path="url(#clip122)" style="stroke:#000000; stroke-linecap:round; stroke-linejoin:round; stroke-width:2; stroke-opacity:0.1; fill:none" points="279.519,653.073 2352.76,653.073 "/>
<polyline clip-path="url(#clip122)" style="stroke:#000000; stroke-linecap:round; stroke-linejoin:round; stroke-width:2; stroke-opacity:0.1; fill:none" points="279.519,346.975 2352.76,346.975 "/>
<polyline clip-path="url(#clip122)" style="stroke:#000000; stroke-linecap:round; stroke-linejoin:round; stroke-width:2; stroke-opacity:0.1; fill:none" points="279.519,1265.27 2352.76,1265.27 "/>
<polyline clip-path="url(#clip122)" style="stroke:#000000; stroke-linecap:round; stroke-linejoin:round; stroke-width:2; stroke-opacity:0.1; fill:none" points="279.519,959.171 2352.76,959.171 "/>
<polyline clip-path="url(#clip122)" style="stroke:#000000; stroke-linecap:round; stroke-linejoin:round; stroke-width:2; stroke-opacity:0.1; fill:none" points="279.519,653.073 2352.76,653.073 "/>
<polyline clip-path="url(#clip122)" style="stroke:#000000; stroke-linecap:round; stroke-linejoin:round; stroke-width:2; stroke-opacity:0.1; fill:none" points="279.519,346.975 2352.76,346.975 "/>
<polyline clip-path="url(#clip120)" style="stroke:#000000; stroke-linecap:round; stroke-linejoin:round; stroke-width:4; stroke-opacity:1; fill:none" points="279.519,1552.76 2352.76,1552.76 "/>
<polyline clip-path="url(#clip120)" style="stroke:#000000; stroke-linecap:round; stroke-linejoin:round; stroke-width:4; stroke-opacity:1; fill:none" points="279.519,47.2441 2352.76,47.2441 "/>
<polyline clip-path="url(#clip120)" style="stroke:#000000; stroke-linecap:round; stroke-linejoin:round; stroke-width:4; stroke-opacity:1; fill:none" points="279.519,1552.76 279.519,47.2441 "/>
<polyline clip-path="url(#clip120)" style="stroke:#000000; stroke-linecap:round; stroke-linejoin:round; stroke-width:4; stroke-opacity:1; fill:none" points="2352.76,1552.76 2352.76,47.2441 "/>
<polyline clip-path="url(#clip120)" style="stroke:#000000; stroke-linecap:round; stroke-linejoin:round; stroke-width:4; stroke-opacity:1; fill:none" points="279.519,1265.27 298.416,1265.27 "/>
<polyline clip-path="url(#clip120)" style="stroke:#000000; stroke-linecap:round; stroke-linejoin:round; stroke-width:4; stroke-opacity:1; fill:none" points="279.519,959.171 298.416,959.171 "/>
<polyline clip-path="url(#clip120)" style="stroke:#000000; stroke-linecap:round; stroke-linejoin:round; stroke-width:4; stroke-opacity:1; fill:none" points="279.519,653.073 298.416,653.073 "/>
<polyline clip-path="url(#clip120)" style="stroke:#000000; stroke-linecap:round; stroke-linejoin:round; stroke-width:4; stroke-opacity:1; fill:none" points="279.519,346.975 298.416,346.975 "/>
<polyline clip-path="url(#clip120)" style="stroke:#000000; stroke-linecap:round; stroke-linejoin:round; stroke-width:4; stroke-opacity:1; fill:none" points="2352.76,1265.27 2333.86,1265.27 "/>
<polyline clip-path="url(#clip120)" style="stroke:#000000; stroke-linecap:round; stroke-linejoin:round; stroke-width:4; stroke-opacity:1; fill:none" points="2352.76,959.171 2333.86,959.171 "/>
<polyline clip-path="url(#clip120)" style="stroke:#000000; stroke-linecap:round; stroke-linejoin:round; stroke-width:4; stroke-opacity:1; fill:none" points="2352.76,653.073 2333.86,653.073 "/>
<polyline clip-path="url(#clip120)" style="stroke:#000000; stroke-linecap:round; stroke-linejoin:round; stroke-width:4; stroke-opacity:1; fill:none" points="2352.76,346.975 2333.86,346.975 "/>
<path clip-path="url(#clip120)" d="M126.598 1263.41 Q123.45 1263.41 121.598 1265.56 Q119.769 1267.71 119.769 1271.46 Q119.769 1275.19 121.598 1277.36 Q123.45 1279.52 126.598 1279.52 Q129.746 1279.52 131.575 1277.36 Q133.427 1275.19 133.427 1271.46 Q133.427 1267.71 131.575 1265.56 Q129.746 1263.41 126.598 1263.41 M135.88 1248.75 L135.88 1253.01 Q134.121 1252.18 132.316 1251.74 Q130.533 1251.3 128.774 1251.3 Q124.144 1251.3 121.691 1254.42 Q119.26 1257.55 118.913 1263.87 Q120.279 1261.85 122.339 1260.79 Q124.399 1259.7 126.876 1259.7 Q132.084 1259.7 135.093 1262.87 Q138.126 1266.02 138.126 1271.46 Q138.126 1276.78 134.978 1280 Q131.83 1283.22 126.598 1283.22 Q120.603 1283.22 117.431 1278.64 Q114.26 1274.03 114.26 1265.3 Q114.26 1257.11 118.149 1252.25 Q122.038 1247.36 128.589 1247.36 Q130.348 1247.36 132.13 1247.71 Q133.936 1248.06 135.88 1248.75 Z" fill="#000000" fill-rule="nonzero" fill-opacity="1" /><path clip-path="url(#clip120)" d="M156.76 1263.41 Q153.612 1263.41 151.76 1265.56 Q149.931 1267.71 149.931 1271.46 Q149.931 1275.19 151.76 1277.36 Q153.612 1279.52 156.76 1279.52 Q159.908 1279.52 161.737 1277.36 Q163.589 1275.19 163.589 1271.46 Q163.589 1267.71 161.737 1265.56 Q159.908 1263.41 156.76 1263.41 M166.042 1248.75 L166.042 1253.01 Q164.283 1252.18 162.477 1251.74 Q160.695 1251.3 158.936 1251.3 Q154.306 1251.3 151.853 1254.42 Q149.422 1257.55 149.075 1263.87 Q150.441 1261.85 152.501 1260.79 Q154.561 1259.7 157.038 1259.7 Q162.246 1259.7 165.255 1262.87 Q168.288 1266.02 168.288 1271.46 Q168.288 1276.78 165.14 1280 Q161.991 1283.22 156.76 1283.22 Q150.765 1283.22 147.593 1278.64 Q144.422 1274.03 144.422 1265.3 Q144.422 1257.11 148.311 1252.25 Q152.2 1247.36 158.751 1247.36 Q160.51 1247.36 162.292 1247.71 Q164.098 1248.06 166.042 1248.75 Z" fill="#000000" fill-rule="nonzero" fill-opacity="1" /><path clip-path="url(#clip120)" d="M176.343 1276.67 L181.227 1276.67 L181.227 1282.55 L176.343 1282.55 L176.343 1276.67 Z" fill="#000000" fill-rule="nonzero" fill-opacity="1" /><path clip-path="url(#clip120)" d="M201.412 1251.07 Q197.801 1251.07 195.973 1254.63 Q194.167 1258.17 194.167 1265.3 Q194.167 1272.41 195.973 1275.97 Q197.801 1279.52 201.412 1279.52 Q205.047 1279.52 206.852 1275.97 Q208.681 1272.41 208.681 1265.3 Q208.681 1258.17 206.852 1254.63 Q205.047 1251.07 201.412 1251.07 M201.412 1247.36 Q207.223 1247.36 210.278 1251.97 Q213.357 1256.55 213.357 1265.3 Q213.357 1274.03 210.278 1278.64 Q207.223 1283.22 201.412 1283.22 Q195.602 1283.22 192.524 1278.64 Q189.468 1274.03 189.468 1265.3 Q189.468 1256.55 192.524 1251.97 Q195.602 1247.36 201.412 1247.36 Z" fill="#000000" fill-rule="nonzero" fill-opacity="1" /><path clip-path="url(#clip120)" d="M231.574 1251.07 Q227.963 1251.07 226.135 1254.63 Q224.329 1258.17 224.329 1265.3 Q224.329 1272.41 226.135 1275.97 Q227.963 1279.52 231.574 1279.52 Q235.209 1279.52 237.014 1275.97 Q238.843 1272.41 238.843 1265.3 Q238.843 1258.17 237.014 1254.63 Q235.209 1251.07 231.574 1251.07 M231.574 1247.36 Q237.384 1247.36 240.44 1251.97 Q243.519 1256.55 243.519 1265.3 Q243.519 1274.03 240.44 1278.64 Q237.384 1283.22 231.574 1283.22 Q225.764 1283.22 222.686 1278.64 Q219.63 1274.03 219.63 1265.3 Q219.63 1256.55 222.686 1251.97 Q225.764 1247.36 231.574 1247.36 Z" fill="#000000" fill-rule="nonzero" fill-opacity="1" /><path clip-path="url(#clip120)" d="M127.593 957.307 Q124.445 957.307 122.593 959.46 Q120.765 961.613 120.765 965.363 Q120.765 969.09 122.593 971.266 Q124.445 973.419 127.593 973.419 Q130.742 973.419 132.57 971.266 Q134.422 969.09 134.422 965.363 Q134.422 961.613 132.57 959.46 Q130.742 957.307 127.593 957.307 M136.876 942.655 L136.876 946.914 Q135.117 946.081 133.311 945.641 Q131.529 945.201 129.769 945.201 Q125.14 945.201 122.686 948.326 Q120.255 951.451 119.908 957.77 Q121.274 955.757 123.334 954.692 Q125.394 953.604 127.871 953.604 Q133.08 953.604 136.089 956.775 Q139.121 959.923 139.121 965.363 Q139.121 970.687 135.973 973.905 Q132.825 977.122 127.593 977.122 Q121.598 977.122 118.427 972.539 Q115.256 967.932 115.256 959.206 Q115.256 951.011 119.144 946.15 Q123.033 941.266 129.584 941.266 Q131.343 941.266 133.126 941.613 Q134.931 941.96 136.876 942.655 Z" fill="#000000" fill-rule="nonzero" fill-opacity="1" /><path clip-path="url(#clip120)" d="M157.755 957.307 Q154.607 957.307 152.755 959.46 Q150.927 961.613 150.927 965.363 Q150.927 969.09 152.755 971.266 Q154.607 973.419 157.755 973.419 Q160.903 973.419 162.732 971.266 Q164.584 969.09 164.584 965.363 Q164.584 961.613 162.732 959.46 Q160.903 957.307 157.755 957.307 M167.038 942.655 L167.038 946.914 Q165.278 946.081 163.473 945.641 Q161.69 945.201 159.931 945.201 Q155.302 945.201 152.848 948.326 Q150.417 951.451 150.07 957.77 Q151.436 955.757 153.496 954.692 Q155.556 953.604 158.033 953.604 Q163.241 953.604 166.251 956.775 Q169.283 959.923 169.283 965.363 Q169.283 970.687 166.135 973.905 Q162.987 977.122 157.755 977.122 Q151.76 977.122 148.589 972.539 Q145.417 967.932 145.417 959.206 Q145.417 951.011 149.306 946.15 Q153.195 941.266 159.746 941.266 Q161.505 941.266 163.288 941.613 Q165.093 941.96 167.038 942.655 Z" fill="#000000" fill-rule="nonzero" fill-opacity="1" /><path clip-path="url(#clip120)" d="M177.339 970.571 L182.223 970.571 L182.223 976.451 L177.339 976.451 L177.339 970.571 Z" fill="#000000" fill-rule="nonzero" fill-opacity="1" /><path clip-path="url(#clip120)" d="M196.436 972.516 L212.755 972.516 L212.755 976.451 L190.811 976.451 L190.811 972.516 Q193.473 969.761 198.056 965.132 Q202.662 960.479 203.843 959.136 Q206.088 956.613 206.968 954.877 Q207.871 953.118 207.871 951.428 Q207.871 948.673 205.926 946.937 Q204.005 945.201 200.903 945.201 Q198.704 945.201 196.25 945.965 Q193.82 946.729 191.042 948.28 L191.042 943.558 Q193.866 942.423 196.32 941.845 Q198.774 941.266 200.811 941.266 Q206.181 941.266 209.375 943.951 Q212.57 946.636 212.57 951.127 Q212.57 953.257 211.76 955.178 Q210.973 957.076 208.866 959.669 Q208.287 960.34 205.186 963.557 Q202.084 966.752 196.436 972.516 Z" fill="#000000" fill-rule="nonzero" fill-opacity="1" /><path clip-path="url(#clip120)" d="M222.616 941.891 L240.972 941.891 L240.972 945.826 L226.898 945.826 L226.898 954.298 Q227.917 953.951 228.935 953.789 Q229.954 953.604 230.972 953.604 Q236.76 953.604 240.139 956.775 Q243.519 959.946 243.519 965.363 Q243.519 970.942 240.047 974.044 Q236.574 977.122 230.255 977.122 Q228.079 977.122 225.81 976.752 Q223.565 976.381 221.158 975.641 L221.158 970.942 Q223.241 972.076 225.463 972.631 Q227.685 973.187 230.162 973.187 Q234.167 973.187 236.505 971.081 Q238.843 968.974 238.843 965.363 Q238.843 961.752 236.505 959.645 Q234.167 957.539 230.162 957.539 Q228.287 957.539 226.412 957.956 Q224.56 958.372 222.616 959.252 L222.616 941.891 Z" fill="#000000" fill-rule="nonzero" fill-opacity="1" /><path clip-path="url(#clip120)" d="M126.598 651.21 Q123.45 651.21 121.598 653.362 Q119.769 655.515 119.769 659.265 Q119.769 662.992 121.598 665.168 Q123.45 667.321 126.598 667.321 Q129.746 667.321 131.575 665.168 Q133.427 662.992 133.427 659.265 Q133.427 655.515 131.575 653.362 Q129.746 651.21 126.598 651.21 M135.88 636.557 L135.88 640.816 Q134.121 639.983 132.316 639.543 Q130.533 639.103 128.774 639.103 Q124.144 639.103 121.691 642.228 Q119.26 645.353 118.913 651.673 Q120.279 649.659 122.339 648.594 Q124.399 647.506 126.876 647.506 Q132.084 647.506 135.093 650.677 Q138.126 653.825 138.126 659.265 Q138.126 664.589 134.978 667.807 Q131.83 671.024 126.598 671.024 Q120.603 671.024 117.431 666.441 Q114.26 661.835 114.26 653.108 Q114.26 644.913 118.149 640.052 Q122.038 635.168 128.589 635.168 Q130.348 635.168 132.13 635.515 Q133.936 635.862 135.88 636.557 Z" fill="#000000" fill-rule="nonzero" fill-opacity="1" /><path clip-path="url(#clip120)" d="M156.76 651.21 Q153.612 651.21 151.76 653.362 Q149.931 655.515 149.931 659.265 Q149.931 662.992 151.76 665.168 Q153.612 667.321 156.76 667.321 Q159.908 667.321 161.737 665.168 Q163.589 662.992 163.589 659.265 Q163.589 655.515 161.737 653.362 Q159.908 651.21 156.76 651.21 M166.042 636.557 L166.042 640.816 Q164.283 639.983 162.477 639.543 Q160.695 639.103 158.936 639.103 Q154.306 639.103 151.853 642.228 Q149.422 645.353 149.075 651.673 Q150.441 649.659 152.501 648.594 Q154.561 647.506 157.038 647.506 Q162.246 647.506 165.255 650.677 Q168.288 653.825 168.288 659.265 Q168.288 664.589 165.14 667.807 Q161.991 671.024 156.76 671.024 Q150.765 671.024 147.593 666.441 Q144.422 661.835 144.422 653.108 Q144.422 644.913 148.311 640.052 Q152.2 635.168 158.751 635.168 Q160.51 635.168 162.292 635.515 Q164.098 635.862 166.042 636.557 Z" fill="#000000" fill-rule="nonzero" fill-opacity="1" /><path clip-path="url(#clip120)" d="M176.343 664.473 L181.227 664.473 L181.227 670.353 L176.343 670.353 L176.343 664.473 Z" fill="#000000" fill-rule="nonzero" fill-opacity="1" /><path clip-path="url(#clip120)" d="M191.459 635.793 L209.815 635.793 L209.815 639.728 L195.741 639.728 L195.741 648.2 Q196.76 647.853 197.778 647.691 Q198.797 647.506 199.815 647.506 Q205.602 647.506 208.982 650.677 Q212.361 653.848 212.361 659.265 Q212.361 664.844 208.889 667.946 Q205.417 671.024 199.098 671.024 Q196.922 671.024 194.653 670.654 Q192.408 670.284 190 669.543 L190 664.844 Q192.084 665.978 194.306 666.534 Q196.528 667.089 199.005 667.089 Q203.01 667.089 205.348 664.983 Q207.686 662.876 207.686 659.265 Q207.686 655.654 205.348 653.548 Q203.01 651.441 199.005 651.441 Q197.13 651.441 195.255 651.858 Q193.403 652.274 191.459 653.154 L191.459 635.793 Z" fill="#000000" fill-rule="nonzero" fill-opacity="1" /><path clip-path="url(#clip120)" d="M231.574 638.872 Q227.963 638.872 226.135 642.437 Q224.329 645.978 224.329 653.108 Q224.329 660.214 226.135 663.779 Q227.963 667.321 231.574 667.321 Q235.209 667.321 237.014 663.779 Q238.843 660.214 238.843 653.108 Q238.843 645.978 237.014 642.437 Q235.209 638.872 231.574 638.872 M231.574 635.168 Q237.384 635.168 240.44 639.774 Q243.519 644.358 243.519 653.108 Q243.519 661.835 240.44 666.441 Q237.384 671.024 231.574 671.024 Q225.764 671.024 222.686 666.441 Q219.63 661.835 219.63 653.108 Q219.63 644.358 222.686 639.774 Q225.764 635.168 231.574 635.168 Z" fill="#000000" fill-rule="nonzero" fill-opacity="1" /><path clip-path="url(#clip120)" d="M127.593 345.112 Q124.445 345.112 122.593 347.264 Q120.765 349.417 120.765 353.167 Q120.765 356.894 122.593 359.07 Q124.445 361.223 127.593 361.223 Q130.742 361.223 132.57 359.07 Q134.422 356.894 134.422 353.167 Q134.422 349.417 132.57 347.264 Q130.742 345.112 127.593 345.112 M136.876 330.459 L136.876 334.718 Q135.117 333.885 133.311 333.445 Q131.529 333.005 129.769 333.005 Q125.14 333.005 122.686 336.13 Q120.255 339.255 119.908 345.575 Q121.274 343.561 123.334 342.496 Q125.394 341.408 127.871 341.408 Q133.08 341.408 136.089 344.579 Q139.121 347.727 139.121 353.167 Q139.121 358.491 135.973 361.709 Q132.825 364.926 127.593 364.926 Q121.598 364.926 118.427 360.343 Q115.256 355.737 115.256 347.01 Q115.256 338.815 119.144 333.954 Q123.033 329.07 129.584 329.07 Q131.343 329.07 133.126 329.417 Q134.931 329.765 136.876 330.459 Z" fill="#000000" fill-rule="nonzero" fill-opacity="1" /><path clip-path="url(#clip120)" d="M157.755 345.112 Q154.607 345.112 152.755 347.264 Q150.927 349.417 150.927 353.167 Q150.927 356.894 152.755 359.07 Q154.607 361.223 157.755 361.223 Q160.903 361.223 162.732 359.07 Q164.584 356.894 164.584 353.167 Q164.584 349.417 162.732 347.264 Q160.903 345.112 157.755 345.112 M167.038 330.459 L167.038 334.718 Q165.278 333.885 163.473 333.445 Q161.69 333.005 159.931 333.005 Q155.302 333.005 152.848 336.13 Q150.417 339.255 150.07 345.575 Q151.436 343.561 153.496 342.496 Q155.556 341.408 158.033 341.408 Q163.241 341.408 166.251 344.579 Q169.283 347.727 169.283 353.167 Q169.283 358.491 166.135 361.709 Q162.987 364.926 157.755 364.926 Q151.76 364.926 148.589 360.343 Q145.417 355.737 145.417 347.01 Q145.417 338.815 149.306 333.954 Q153.195 329.07 159.746 329.07 Q161.505 329.07 163.288 329.417 Q165.093 329.765 167.038 330.459 Z" fill="#000000" fill-rule="nonzero" fill-opacity="1" /><path clip-path="url(#clip120)" d="M177.339 358.376 L182.223 358.376 L182.223 364.255 L177.339 364.255 L177.339 358.376 Z" fill="#000000" fill-rule="nonzero" fill-opacity="1" /><path clip-path="url(#clip120)" d="M191.227 329.695 L213.449 329.695 L213.449 331.686 L200.903 364.255 L196.019 364.255 L207.824 333.63 L191.227 333.63 L191.227 329.695 Z" fill="#000000" fill-rule="nonzero" fill-opacity="1" /><path clip-path="url(#clip120)" d="M222.616 329.695 L240.972 329.695 L240.972 333.63 L226.898 333.63 L226.898 342.102 Q227.917 341.755 228.935 341.593 Q229.954 341.408 230.972 341.408 Q236.76 341.408 240.139 344.579 Q243.519 347.751 243.519 353.167 Q243.519 358.746 240.047 361.848 Q236.574 364.926 230.255 364.926 Q228.079 364.926 225.81 364.556 Q223.565 364.186 221.158 363.445 L221.158 358.746 Q223.241 359.88 225.463 360.436 Q227.685 360.991 230.162 360.991 Q234.167 360.991 236.505 358.885 Q238.843 356.778 238.843 353.167 Q238.843 349.556 236.505 347.45 Q234.167 345.343 230.162 345.343 Q228.287 345.343 226.412 345.76 Q224.56 346.177 222.616 347.056 L222.616 329.695 Z" fill="#000000" fill-rule="nonzero" fill-opacity="1" /><path clip-path="url(#clip120)" d="M22.818 922.094 L46.4666 930.815 L46.4666 913.341 L22.818 922.094 M16.4842 925.723 L16.4842 918.434 L64.0042 900.324 L64.0042 907.008 L51.8138 911.336 L51.8138 932.757 L64.0042 937.085 L64.0042 943.865 L16.4842 925.723 Z" fill="#000000" fill-rule="nonzero" fill-opacity="1" /><path clip-path="url(#clip120)" d="M45.7664 870.182 Q39.4007 870.182 35.8996 872.824 Q32.3984 875.434 32.3984 880.176 Q32.3984 884.887 35.8996 887.528 Q39.4007 890.138 45.7664 890.138 Q52.1003 890.138 55.6014 887.528 Q59.1026 884.887 59.1026 880.176 Q59.1026 875.434 55.6014 872.824 Q52.1003 870.182 45.7664 870.182 M59.58 864.325 Q68.683 864.325 73.1071 868.368 Q77.5631 872.41 77.5631 880.749 Q77.5631 883.836 77.0857 886.574 Q76.6401 889.311 75.6852 891.889 L69.9879 891.889 Q71.3884 889.311 72.0568 886.796 Q72.7252 884.282 72.7252 881.672 Q72.7252 875.911 69.7015 873.046 Q66.7096 870.182 60.6303 870.182 L57.7339 870.182 Q60.885 871.996 62.4446 874.829 Q64.0042 877.662 64.0042 881.608 Q64.0042 888.165 59.0071 892.175 Q54.01 896.186 45.7664 896.186 Q37.491 896.186 32.4939 892.175 Q27.4968 888.165 27.4968 881.608 Q27.4968 877.662 29.0564 874.829 Q30.616 871.996 33.7671 870.182 L28.3562 870.182 L28.3562 864.325 L59.58 864.325 Z" fill="#000000" fill-rule="nonzero" fill-opacity="1" /><path clip-path="url(#clip120)" d="M44.7161 821.771 L47.5806 821.771 L47.5806 848.698 Q53.6281 848.316 56.8109 845.069 Q59.9619 841.791 59.9619 835.966 Q59.9619 832.592 59.1344 829.441 Q58.3069 826.259 56.6518 823.139 L62.1899 823.139 Q63.5267 826.29 64.227 829.601 Q64.9272 832.911 64.9272 836.316 Q64.9272 844.846 59.9619 849.843 Q54.9967 854.809 46.5303 854.809 Q37.7774 854.809 32.6531 850.098 Q27.4968 845.356 27.4968 837.335 Q27.4968 830.142 32.1438 825.972 Q36.7589 821.771 44.7161 821.771 M42.9973 827.627 Q38.1912 827.691 35.3266 830.333 Q32.4621 832.943 32.4621 837.271 Q32.4621 842.173 35.2312 845.133 Q38.0002 848.061 43.0292 848.507 L42.9973 827.627 Z" fill="#000000" fill-rule="nonzero" fill-opacity="1" /><path clip-path="url(#clip120)" d="M14.5426 777.37 Q21.8632 781.635 29.0246 783.704 Q36.186 785.773 43.5384 785.773 Q50.8908 785.773 58.1159 783.704 Q65.3091 781.603 72.5979 777.37 L72.5979 782.462 Q65.1182 787.237 57.8931 789.624 Q50.668 791.979 43.5384 791.979 Q36.4406 791.979 29.2474 789.624 Q22.0542 787.269 14.5426 782.462 L14.5426 777.37 Z" fill="#000000" fill-rule="nonzero" fill-opacity="1" /><path clip-path="url(#clip120)" d="M16.4842 765.752 L16.4842 756.172 L48.8219 744.045 L16.4842 731.855 L16.4842 722.275 L64.0042 722.275 L64.0042 728.545 L22.277 728.545 L54.8694 740.799 L54.8694 747.26 L22.277 759.514 L64.0042 759.514 L64.0042 765.752 L16.4842 765.752 Z" fill="#000000" fill-rule="nonzero" fill-opacity="1" /><path clip-path="url(#clip120)" d="M46.0847 693.565 Q46.0847 700.663 47.7079 703.4 Q49.3312 706.138 53.2461 706.138 Q56.3653 706.138 58.2114 704.101 Q60.0256 702.032 60.0256 698.499 Q60.0256 693.629 56.5881 690.701 Q53.1188 687.741 47.3897 687.741 L46.0847 687.741 L46.0847 693.565 M43.6657 681.884 L64.0042 681.884 L64.0042 687.741 L58.5933 687.741 Q61.8398 689.746 63.3994 692.738 Q64.9272 695.73 64.9272 700.058 Q64.9272 705.533 61.8716 708.779 Q58.7843 711.994 53.6281 711.994 Q47.6125 711.994 44.5569 707.984 Q41.5014 703.941 41.5014 695.953 L41.5014 687.741 L40.9285 687.741 Q36.8862 687.741 34.6901 690.414 Q32.4621 693.056 32.4621 697.862 Q32.4621 700.918 33.1941 703.814 Q33.9262 706.711 35.3903 709.384 L29.9795 709.384 Q28.7381 706.169 28.1334 703.146 Q27.4968 700.122 27.4968 697.257 Q27.4968 689.523 31.5072 685.704 Q35.5176 681.884 43.6657 681.884 Z" fill="#000000" fill-rule="nonzero" fill-opacity="1" /><path clip-path="url(#clip120)" d="M14.5426 670.744 L14.5426 665.652 Q22.0542 660.877 29.2474 658.522 Q36.4406 656.135 43.5384 656.135 Q50.668 656.135 57.8931 658.522 Q65.1182 660.877 72.5979 665.652 L72.5979 670.744 Q65.3091 666.511 58.1159 664.442 Q50.8908 662.342 43.5384 662.342 Q36.186 662.342 29.0246 664.442 Q21.8632 666.511 14.5426 670.744 Z" fill="#000000" fill-rule="nonzero" fill-opacity="1" /><polyline clip-path="url(#clip122)" style="stroke:#009af9; stroke-linecap:round; stroke-linejoin:round; stroke-width:4; stroke-opacity:1; fill:none" points="338.195,1216.29 338.195,506.146 "/>
<polyline clip-path="url(#clip122)" style="stroke:#009af9; stroke-linecap:round; stroke-linejoin:round; stroke-width:4; stroke-opacity:1; fill:none" points="1316.14,1510.15 1316.14,89.8529 "/>
<polyline clip-path="url(#clip122)" style="stroke:#009af9; stroke-linecap:round; stroke-linejoin:round; stroke-width:4; stroke-opacity:1; fill:none" points="2294.08,1130.59 2294.08,444.926 "/>
<line clip-path="url(#clip122)" x1="354.195" y1="1216.29" x2="322.195" y2="1216.29" style="stroke:#009af9; stroke-width:4; stroke-opacity:1"/>
<line clip-path="url(#clip122)" x1="354.195" y1="506.146" x2="322.195" y2="506.146" style="stroke:#009af9; stroke-width:4; stroke-opacity:1"/>
<line clip-path="url(#clip122)" x1="1332.14" y1="1510.15" x2="1300.14" y2="1510.15" style="stroke:#009af9; stroke-width:4; stroke-opacity:1"/>
<line clip-path="url(#clip122)" x1="1332.14" y1="89.8529" x2="1300.14" y2="89.8529" style="stroke:#009af9; stroke-width:4; stroke-opacity:1"/>
<line clip-path="url(#clip122)" x1="2310.08" y1="1130.59" x2="2278.08" y2="1130.59" style="stroke:#009af9; stroke-width:4; stroke-opacity:1"/>
<line clip-path="url(#clip122)" x1="2310.08" y1="444.926" x2="2278.08" y2="444.926" style="stroke:#009af9; stroke-width:4; stroke-opacity:1"/>
<circle clip-path="url(#clip122)" cx="338.195" cy="861.22" r="14.4" fill="#009af9" fill-rule="evenodd" fill-opacity="1" stroke="none"/>
<circle clip-path="url(#clip122)" cx="1316.14" cy="800" r="14.4" fill="#009af9" fill-rule="evenodd" fill-opacity="1" stroke="none"/>
<circle clip-path="url(#clip122)" cx="2294.08" cy="787.756" r="14.4" fill="#009af9" fill-rule="evenodd" fill-opacity="1" stroke="none"/>
<path clip-path="url(#clip122)" d="M338.195 1149.12 L1316.14 1149.12 L2294.08 1149.12 L2294.08 711.426 L1316.14 711.426 L338.195 711.426  Z" fill="#e26f46" fill-rule="evenodd" fill-opacity="0.6"/>
<polyline clip-path="url(#clip122)" style="stroke:#e26f46; stroke-linecap:round; stroke-linejoin:round; stroke-width:4; stroke-opacity:0; fill:none" points="338.195,1149.12 1316.14,1149.12 2294.08,1149.12 "/>
<polyline clip-path="url(#clip122)" style="stroke:#000000; stroke-linecap:round; stroke-linejoin:round; stroke-width:4; stroke-opacity:1; fill:none" stroke-dasharray="2, 4" points="338.195,885.544 1316.14,885.544 2294.08,885.544 "/>
<path clip-path="url(#clip120)" d="M348.627 252.948 L1321.66 252.948 L1321.66 97.4278 L348.627 97.4278  Z" fill="#ffffff" fill-rule="evenodd" fill-opacity="1"/>
<polyline clip-path="url(#clip120)" style="stroke:#ffffff; stroke-linecap:round; stroke-linejoin:round; stroke-width:4; stroke-opacity:1; fill:none" points="348.627,252.948 1321.66,252.948 1321.66,97.4278 348.627,97.4278 348.627,252.948 "/>
<circle clip-path="url(#clip120)" cx="440.771" cy="149.268" r="20.48" fill="#009af9" fill-rule="evenodd" fill-opacity="1" stroke="none"/>
<path clip-path="url(#clip120)" d="M537.59 135.83 L537.59 162.705 L543.238 162.705 Q550.391 162.705 553.701 159.465 Q557.035 156.224 557.035 149.233 Q557.035 142.289 553.701 139.071 Q550.391 135.83 543.238 135.83 L537.59 135.83 M532.914 131.988 L542.521 131.988 Q552.567 131.988 557.266 136.178 Q561.965 140.344 561.965 149.233 Q561.965 158.168 557.243 162.358 Q552.521 166.548 542.521 166.548 L532.914 166.548 L532.914 131.988 Z" fill="#000000" fill-rule="nonzero" fill-opacity="1" /><path clip-path="url(#clip120)" d="M581.016 153.515 Q575.854 153.515 573.863 154.696 Q571.873 155.877 571.873 158.724 Q571.873 160.992 573.354 162.335 Q574.859 163.654 577.428 163.654 Q580.97 163.654 583.099 161.154 Q585.252 158.631 585.252 154.465 L585.252 153.515 L581.016 153.515 M589.511 151.756 L589.511 166.548 L585.252 166.548 L585.252 162.613 Q583.794 164.974 581.618 166.108 Q579.442 167.219 576.294 167.219 Q572.312 167.219 569.951 164.997 Q567.613 162.752 567.613 159.002 Q567.613 154.627 570.53 152.404 Q573.47 150.182 579.28 150.182 L585.252 150.182 L585.252 149.766 Q585.252 146.826 583.308 145.228 Q581.386 143.608 577.891 143.608 Q575.669 143.608 573.562 144.141 Q571.456 144.673 569.511 145.738 L569.511 141.803 Q571.849 140.9 574.048 140.46 Q576.247 139.997 578.331 139.997 Q583.956 139.997 586.734 142.914 Q589.511 145.83 589.511 151.756 Z" fill="#000000" fill-rule="nonzero" fill-opacity="1" /><path clip-path="url(#clip120)" d="M602.497 133.261 L602.497 140.622 L611.27 140.622 L611.27 143.932 L602.497 143.932 L602.497 158.006 Q602.497 161.177 603.354 162.08 Q604.233 162.983 606.895 162.983 L611.27 162.983 L611.27 166.548 L606.895 166.548 Q601.965 166.548 600.09 164.719 Q598.215 162.867 598.215 158.006 L598.215 143.932 L595.09 143.932 L595.09 140.622 L598.215 140.622 L598.215 133.261 L602.497 133.261 Z" fill="#000000" fill-rule="nonzero" fill-opacity="1" /><path clip-path="url(#clip120)" d="M628.655 153.515 Q623.493 153.515 621.502 154.696 Q619.511 155.877 619.511 158.724 Q619.511 160.992 620.993 162.335 Q622.497 163.654 625.067 163.654 Q628.608 163.654 630.738 161.154 Q632.891 158.631 632.891 154.465 L632.891 153.515 L628.655 153.515 M637.15 151.756 L637.15 166.548 L632.891 166.548 L632.891 162.613 Q631.432 164.974 629.256 166.108 Q627.081 167.219 623.932 167.219 Q619.951 167.219 617.59 164.997 Q615.252 162.752 615.252 159.002 Q615.252 154.627 618.169 152.404 Q621.108 150.182 626.919 150.182 L632.891 150.182 L632.891 149.766 Q632.891 146.826 630.946 145.228 Q629.025 143.608 625.53 143.608 Q623.307 143.608 621.201 144.141 Q619.094 144.673 617.15 145.738 L617.15 141.803 Q619.488 140.9 621.687 140.46 Q623.886 139.997 625.969 139.997 Q631.594 139.997 634.372 142.914 Q637.15 145.83 637.15 151.756 Z" fill="#000000" fill-rule="nonzero" fill-opacity="1" /><path clip-path="url(#clip120)" d="M671.224 130.576 Q668.122 135.9 666.617 141.108 Q665.113 146.316 665.113 151.664 Q665.113 157.011 666.617 162.265 Q668.145 167.497 671.224 172.798 L667.52 172.798 Q664.048 167.358 662.312 162.103 Q660.599 156.849 660.599 151.664 Q660.599 146.502 662.312 141.27 Q664.025 136.039 667.52 130.576 L671.224 130.576 Z" fill="#000000" fill-rule="nonzero" fill-opacity="1" /><path clip-path="url(#clip120)" d="M689.534 143.608 Q686.108 143.608 684.117 146.293 Q682.127 148.955 682.127 153.608 Q682.127 158.261 684.094 160.946 Q686.085 163.608 689.534 163.608 Q692.937 163.608 694.927 160.923 Q696.918 158.238 696.918 153.608 Q696.918 149.002 694.927 146.316 Q692.937 143.608 689.534 143.608 M689.534 139.997 Q695.089 139.997 698.261 143.608 Q701.432 147.219 701.432 153.608 Q701.432 159.974 698.261 163.608 Q695.089 167.219 689.534 167.219 Q683.955 167.219 680.784 163.608 Q677.636 159.974 677.636 153.608 Q677.636 147.219 680.784 143.608 Q683.955 139.997 689.534 139.997 Z" fill="#000000" fill-rule="nonzero" fill-opacity="1" /><path clip-path="url(#clip120)" d="M727.103 153.608 Q727.103 148.909 725.159 146.247 Q723.237 143.562 719.858 143.562 Q716.478 143.562 714.534 146.247 Q712.612 148.909 712.612 153.608 Q712.612 158.307 714.534 160.992 Q716.478 163.654 719.858 163.654 Q723.237 163.654 725.159 160.992 Q727.103 158.307 727.103 153.608 M712.612 144.557 Q713.955 142.242 715.992 141.131 Q718.052 139.997 720.899 139.997 Q725.622 139.997 728.561 143.747 Q731.524 147.497 731.524 153.608 Q731.524 159.719 728.561 163.469 Q725.622 167.219 720.899 167.219 Q718.052 167.219 715.992 166.108 Q713.955 164.974 712.612 162.659 L712.612 166.548 L708.33 166.548 L708.33 130.529 L712.612 130.529 L712.612 144.557 Z" fill="#000000" fill-rule="nonzero" fill-opacity="1" /><path clip-path="url(#clip120)" d="M755.112 141.386 L755.112 145.414 Q753.307 144.488 751.362 144.025 Q749.418 143.562 747.335 143.562 Q744.163 143.562 742.566 144.534 Q740.992 145.506 740.992 147.451 Q740.992 148.932 742.126 149.789 Q743.26 150.622 746.686 151.386 L748.145 151.71 Q752.682 152.682 754.58 154.465 Q756.501 156.224 756.501 159.395 Q756.501 163.006 753.631 165.113 Q750.784 167.219 745.784 167.219 Q743.7 167.219 741.432 166.802 Q739.186 166.409 736.686 165.599 L736.686 161.201 Q739.048 162.427 741.339 163.052 Q743.631 163.654 745.876 163.654 Q748.885 163.654 750.506 162.636 Q752.126 161.594 752.126 159.719 Q752.126 157.983 750.946 157.057 Q749.788 156.131 745.83 155.275 L744.348 154.928 Q740.39 154.094 738.631 152.381 Q736.872 150.645 736.872 147.636 Q736.872 143.978 739.464 141.988 Q742.057 139.997 746.825 139.997 Q749.186 139.997 751.27 140.344 Q753.353 140.691 755.112 141.386 Z" fill="#000000" fill-rule="nonzero" fill-opacity="1" /><path clip-path="url(#clip120)" d="M785.459 152.52 L785.459 154.603 L765.876 154.603 Q766.154 159.002 768.515 161.316 Q770.899 163.608 775.135 163.608 Q777.589 163.608 779.881 163.006 Q782.195 162.404 784.464 161.201 L784.464 165.228 Q782.172 166.201 779.765 166.71 Q777.358 167.219 774.881 167.219 Q768.677 167.219 765.043 163.608 Q761.432 159.997 761.432 153.84 Q761.432 147.474 764.858 143.747 Q768.307 139.997 774.14 139.997 Q779.371 139.997 782.404 143.377 Q785.459 146.733 785.459 152.52 M781.2 151.27 Q781.154 147.775 779.233 145.691 Q777.334 143.608 774.186 143.608 Q770.621 143.608 768.469 145.622 Q766.339 147.636 766.015 151.293 L781.2 151.27 Z" fill="#000000" fill-rule="nonzero" fill-opacity="1" /><path clip-path="url(#clip120)" d="M807.473 144.603 Q806.756 144.187 805.899 144.002 Q805.066 143.793 804.047 143.793 Q800.436 143.793 798.492 146.154 Q796.57 148.492 796.57 152.89 L796.57 166.548 L792.288 166.548 L792.288 140.622 L796.57 140.622 L796.57 144.65 Q797.913 142.289 800.066 141.154 Q802.218 139.997 805.297 139.997 Q805.737 139.997 806.269 140.066 Q806.802 140.113 807.45 140.229 L807.473 144.603 Z" fill="#000000" fill-rule="nonzero" fill-opacity="1" /><path clip-path="url(#clip120)" d="M808.885 140.622 L813.399 140.622 L821.501 162.381 L829.603 140.622 L834.116 140.622 L824.394 166.548 L818.607 166.548 L808.885 140.622 Z" fill="#000000" fill-rule="nonzero" fill-opacity="1" /><path clip-path="url(#clip120)" d="M862.172 152.52 L862.172 154.603 L842.589 154.603 Q842.866 159.002 845.228 161.316 Q847.612 163.608 851.848 163.608 Q854.302 163.608 856.593 163.006 Q858.908 162.404 861.177 161.201 L861.177 165.228 Q858.885 166.201 856.477 166.71 Q854.07 167.219 851.593 167.219 Q845.39 167.219 841.755 163.608 Q838.144 159.997 838.144 153.84 Q838.144 147.474 841.57 143.747 Q845.019 139.997 850.852 139.997 Q856.084 139.997 859.116 143.377 Q862.172 146.733 862.172 152.52 M857.913 151.27 Q857.866 147.775 855.945 145.691 Q854.047 143.608 850.899 143.608 Q847.334 143.608 845.181 145.622 Q843.052 147.636 842.728 151.293 L857.913 151.27 Z" fill="#000000" fill-rule="nonzero" fill-opacity="1" /><path clip-path="url(#clip120)" d="M886.223 144.557 L886.223 130.529 L890.482 130.529 L890.482 166.548 L886.223 166.548 L886.223 162.659 Q884.88 164.974 882.82 166.108 Q880.783 167.219 877.913 167.219 Q873.213 167.219 870.251 163.469 Q867.311 159.719 867.311 153.608 Q867.311 147.497 870.251 143.747 Q873.213 139.997 877.913 139.997 Q880.783 139.997 882.82 141.131 Q884.88 142.242 886.223 144.557 M871.709 153.608 Q871.709 158.307 873.63 160.992 Q875.575 163.654 878.954 163.654 Q882.334 163.654 884.278 160.992 Q886.223 158.307 886.223 153.608 Q886.223 148.909 884.278 146.247 Q882.334 143.562 878.954 143.562 Q875.575 143.562 873.63 146.247 Q871.709 148.909 871.709 153.608 Z" fill="#000000" fill-rule="nonzero" fill-opacity="1" /><path clip-path="url(#clip120)" d="M926.107 153.515 Q920.945 153.515 918.954 154.696 Q916.963 155.877 916.963 158.724 Q916.963 160.992 918.445 162.335 Q919.949 163.654 922.519 163.654 Q926.06 163.654 928.19 161.154 Q930.343 158.631 930.343 154.465 L930.343 153.515 L926.107 153.515 M934.602 151.756 L934.602 166.548 L930.343 166.548 L930.343 162.613 Q928.884 164.974 926.709 166.108 Q924.533 167.219 921.385 167.219 Q917.403 167.219 915.042 164.997 Q912.704 162.752 912.704 159.002 Q912.704 154.627 915.621 152.404 Q918.56 150.182 924.371 150.182 L930.343 150.182 L930.343 149.766 Q930.343 146.826 928.398 145.228 Q926.477 143.608 922.982 143.608 Q920.76 143.608 918.653 144.141 Q916.547 144.673 914.602 145.738 L914.602 141.803 Q916.94 140.9 919.139 140.46 Q921.338 139.997 923.422 139.997 Q929.047 139.997 931.824 142.914 Q934.602 145.83 934.602 151.756 Z" fill="#000000" fill-rule="nonzero" fill-opacity="1" /><path clip-path="url(#clip120)" d="M960.435 153.284 Q960.435 148.654 958.514 146.108 Q956.616 143.562 953.167 143.562 Q949.741 143.562 947.82 146.108 Q945.921 148.654 945.921 153.284 Q945.921 157.89 947.82 160.437 Q949.741 162.983 953.167 162.983 Q956.616 162.983 958.514 160.437 Q960.435 157.89 960.435 153.284 M964.694 163.33 Q964.694 169.951 961.755 173.168 Q958.815 176.409 952.75 176.409 Q950.505 176.409 948.514 176.062 Q946.523 175.738 944.648 175.043 L944.648 170.9 Q946.523 171.918 948.352 172.404 Q950.181 172.89 952.079 172.89 Q956.269 172.89 958.352 170.691 Q960.435 168.515 960.435 164.094 L960.435 161.988 Q959.116 164.279 957.056 165.414 Q954.995 166.548 952.125 166.548 Q947.357 166.548 944.44 162.914 Q941.523 159.279 941.523 153.284 Q941.523 147.266 944.44 143.631 Q947.357 139.997 952.125 139.997 Q954.995 139.997 957.056 141.131 Q959.116 142.266 960.435 144.557 L960.435 140.622 L964.694 140.622 L964.694 163.33 Z" fill="#000000" fill-rule="nonzero" fill-opacity="1" /><path clip-path="url(#clip120)" d="M995.643 152.52 L995.643 154.603 L976.06 154.603 Q976.338 159.002 978.699 161.316 Q981.083 163.608 985.319 163.608 Q987.773 163.608 990.065 163.006 Q992.38 162.404 994.648 161.201 L994.648 165.228 Q992.356 166.201 989.949 166.71 Q987.542 167.219 985.065 167.219 Q978.861 167.219 975.227 163.608 Q971.616 159.997 971.616 153.84 Q971.616 147.474 975.042 143.747 Q978.491 139.997 984.324 139.997 Q989.555 139.997 992.588 143.377 Q995.643 146.733 995.643 152.52 M991.384 151.27 Q991.338 147.775 989.417 145.691 Q987.518 143.608 984.37 143.608 Q980.805 143.608 978.653 145.622 Q976.523 147.636 976.199 151.293 L991.384 151.27 Z" fill="#000000" fill-rule="nonzero" fill-opacity="1" /><path clip-path="url(#clip120)" d="M1019.16 141.386 L1019.16 145.414 Q1017.36 144.488 1015.41 144.025 Q1013.47 143.562 1011.38 143.562 Q1008.21 143.562 1006.62 144.534 Q1005.04 145.506 1005.04 147.451 Q1005.04 148.932 1006.18 149.789 Q1007.31 150.622 1010.74 151.386 L1012.19 151.71 Q1016.73 152.682 1018.63 154.465 Q1020.55 156.224 1020.55 159.395 Q1020.55 163.006 1017.68 165.113 Q1014.83 167.219 1009.83 167.219 Q1007.75 167.219 1005.48 166.802 Q1003.24 166.409 1000.74 165.599 L1000.74 161.201 Q1003.1 162.427 1005.39 163.052 Q1007.68 163.654 1009.93 163.654 Q1012.93 163.654 1014.56 162.636 Q1016.18 161.594 1016.18 159.719 Q1016.18 157.983 1015 157.057 Q1013.84 156.131 1009.88 155.275 L1008.4 154.928 Q1004.44 154.094 1002.68 152.381 Q1000.92 150.645 1000.92 147.636 Q1000.92 143.978 1003.51 141.988 Q1006.11 139.997 1010.87 139.997 Q1013.24 139.997 1015.32 140.344 Q1017.4 140.691 1019.16 141.386 Z" fill="#000000" fill-rule="nonzero" fill-opacity="1" /><path clip-path="url(#clip120)" d="M1026.66 130.576 L1030.37 130.576 Q1033.84 136.039 1035.55 141.27 Q1037.29 146.502 1037.29 151.664 Q1037.29 156.849 1035.55 162.103 Q1033.84 167.358 1030.37 172.798 L1026.66 172.798 Q1029.74 167.497 1031.25 162.265 Q1032.77 157.011 1032.77 151.664 Q1032.77 146.316 1031.25 141.108 Q1029.74 135.9 1026.66 130.576 Z" fill="#000000" fill-rule="nonzero" fill-opacity="1" /><path clip-path="url(#clip120)" d="M371.663 221.844 L509.878 221.844 L509.878 180.372 L371.663 180.372 L371.663 221.844  Z" fill="#e26f46" fill-rule="evenodd" fill-opacity="0.6"/>
<polyline clip-path="url(#clip120)" style="stroke:#e26f46; stroke-linecap:round; stroke-linejoin:round; stroke-width:4; stroke-opacity:0; fill:none" points="371.663,180.372 509.878,180.372 "/>
<path clip-path="url(#clip120)" d="M532.914 183.828 L539.882 183.828 L548.701 207.346 L557.567 183.828 L564.535 183.828 L564.535 218.388 L559.974 218.388 L559.974 188.041 L551.062 211.744 L546.363 211.744 L537.451 188.041 L537.451 218.388 L532.914 218.388 L532.914 183.828 Z" fill="#000000" fill-rule="nonzero" fill-opacity="1" /><path clip-path="url(#clip120)" d="M583.678 195.448 Q580.252 195.448 578.261 198.133 Q576.271 200.795 576.271 205.448 Q576.271 210.101 578.238 212.786 Q580.229 215.448 583.678 215.448 Q587.081 215.448 589.071 212.763 Q591.062 210.078 591.062 205.448 Q591.062 200.842 589.071 198.156 Q587.081 195.448 583.678 195.448 M583.678 191.837 Q589.234 191.837 592.405 195.448 Q595.576 199.059 595.576 205.448 Q595.576 211.814 592.405 215.448 Q589.234 219.059 583.678 219.059 Q578.099 219.059 574.928 215.448 Q571.78 211.814 571.78 205.448 Q571.78 199.059 574.928 195.448 Q578.099 191.837 583.678 191.837 Z" fill="#000000" fill-rule="nonzero" fill-opacity="1" /><path clip-path="url(#clip120)" d="M619.696 196.397 L619.696 182.369 L623.956 182.369 L623.956 218.388 L619.696 218.388 L619.696 214.499 Q618.354 216.814 616.294 217.948 Q614.257 219.059 611.386 219.059 Q606.687 219.059 603.724 215.309 Q600.784 211.559 600.784 205.448 Q600.784 199.337 603.724 195.587 Q606.687 191.837 611.386 191.837 Q614.257 191.837 616.294 192.971 Q618.354 194.082 619.696 196.397 M605.183 205.448 Q605.183 210.147 607.104 212.832 Q609.048 215.494 612.428 215.494 Q615.807 215.494 617.752 212.832 Q619.696 210.147 619.696 205.448 Q619.696 200.749 617.752 198.087 Q615.807 195.402 612.428 195.402 Q609.048 195.402 607.104 198.087 Q605.183 200.749 605.183 205.448 Z" fill="#000000" fill-rule="nonzero" fill-opacity="1" /><path clip-path="url(#clip120)" d="M654.904 204.36 L654.904 206.443 L635.321 206.443 Q635.599 210.842 637.96 213.156 Q640.344 215.448 644.58 215.448 Q647.034 215.448 649.326 214.846 Q651.641 214.244 653.909 213.041 L653.909 217.068 Q651.617 218.041 649.21 218.55 Q646.803 219.059 644.326 219.059 Q638.122 219.059 634.488 215.448 Q630.877 211.837 630.877 205.68 Q630.877 199.314 634.303 195.587 Q637.752 191.837 643.585 191.837 Q648.817 191.837 651.849 195.217 Q654.904 198.573 654.904 204.36 M650.645 203.11 Q650.599 199.615 648.678 197.531 Q646.78 195.448 643.631 195.448 Q640.067 195.448 637.914 197.462 Q635.784 199.476 635.46 203.133 L650.645 203.11 Z" fill="#000000" fill-rule="nonzero" fill-opacity="1" /><path clip-path="url(#clip120)" d="M661.895 182.369 L666.154 182.369 L666.154 218.388 L661.895 218.388 L661.895 182.369 Z" fill="#000000" fill-rule="nonzero" fill-opacity="1" /><path clip-path="url(#clip120)" d="M700.367 182.416 Q697.265 187.74 695.761 192.948 Q694.256 198.156 694.256 203.504 Q694.256 208.851 695.761 214.105 Q697.288 219.337 700.367 224.638 L696.664 224.638 Q693.191 219.198 691.455 213.943 Q689.742 208.689 689.742 203.504 Q689.742 198.342 691.455 193.11 Q693.168 187.879 696.664 182.416 L700.367 182.416 Z" fill="#000000" fill-rule="nonzero" fill-opacity="1" /><path clip-path="url(#clip120)" d="M719.812 199.244 Q716.663 199.244 714.812 201.397 Q712.983 203.55 712.983 207.3 Q712.983 211.027 714.812 213.203 Q716.663 215.355 719.812 215.355 Q722.96 215.355 724.788 213.203 Q726.64 211.027 726.64 207.3 Q726.64 203.55 724.788 201.397 Q722.96 199.244 719.812 199.244 M729.094 184.592 L729.094 188.851 Q727.335 188.018 725.529 187.578 Q723.747 187.138 721.987 187.138 Q717.358 187.138 714.904 190.263 Q712.474 193.388 712.126 199.707 Q713.492 197.693 715.552 196.629 Q717.612 195.541 720.089 195.541 Q725.298 195.541 728.307 198.712 Q731.339 201.86 731.339 207.3 Q731.339 212.624 728.191 215.842 Q725.043 219.059 719.812 219.059 Q713.816 219.059 710.645 214.476 Q707.474 209.869 707.474 201.143 Q707.474 192.948 711.362 188.087 Q715.251 183.203 721.802 183.203 Q723.562 183.203 725.344 183.55 Q727.149 183.897 729.094 184.592 Z" fill="#000000" fill-rule="nonzero" fill-opacity="1" /><path clip-path="url(#clip120)" d="M749.973 199.244 Q746.825 199.244 744.973 201.397 Q743.145 203.55 743.145 207.3 Q743.145 211.027 744.973 213.203 Q746.825 215.355 749.973 215.355 Q753.122 215.355 754.95 213.203 Q756.802 211.027 756.802 207.3 Q756.802 203.55 754.95 201.397 Q753.122 199.244 749.973 199.244 M759.256 184.592 L759.256 188.851 Q757.497 188.018 755.691 187.578 Q753.909 187.138 752.149 187.138 Q747.52 187.138 745.066 190.263 Q742.635 193.388 742.288 199.707 Q743.654 197.693 745.714 196.629 Q747.774 195.541 750.251 195.541 Q755.459 195.541 758.469 198.712 Q761.501 201.86 761.501 207.3 Q761.501 212.624 758.353 215.842 Q755.205 219.059 749.973 219.059 Q743.978 219.059 740.807 214.476 Q737.636 209.869 737.636 201.143 Q737.636 192.948 741.524 188.087 Q745.413 183.203 751.964 183.203 Q753.723 183.203 755.506 183.55 Q757.311 183.897 759.256 184.592 Z" fill="#000000" fill-rule="nonzero" fill-opacity="1" /><path clip-path="url(#clip120)" d="M769.557 212.508 L774.441 212.508 L774.441 218.388 L769.557 218.388 L769.557 212.508 Z" fill="#000000" fill-rule="nonzero" fill-opacity="1" /><path clip-path="url(#clip120)" d="M798.793 199.754 Q802.149 200.471 804.024 202.74 Q805.922 205.008 805.922 208.342 Q805.922 213.457 802.404 216.258 Q798.885 219.059 792.404 219.059 Q790.228 219.059 787.913 218.619 Q785.621 218.203 783.168 217.346 L783.168 212.832 Q785.112 213.967 787.427 214.545 Q789.742 215.124 792.265 215.124 Q796.663 215.124 798.955 213.388 Q801.269 211.652 801.269 208.342 Q801.269 205.286 799.117 203.573 Q796.987 201.837 793.168 201.837 L789.14 201.837 L789.14 197.994 L793.353 197.994 Q796.802 197.994 798.631 196.629 Q800.459 195.24 800.459 192.647 Q800.459 189.985 798.561 188.573 Q796.686 187.138 793.168 187.138 Q791.246 187.138 789.047 187.555 Q786.848 187.971 784.209 188.851 L784.209 184.684 Q786.871 183.944 789.186 183.573 Q791.524 183.203 793.584 183.203 Q798.908 183.203 802.01 185.633 Q805.112 188.041 805.112 192.161 Q805.112 195.031 803.468 197.022 Q801.825 198.99 798.793 199.754 Z" fill="#000000" fill-rule="nonzero" fill-opacity="1" /><path clip-path="url(#clip120)" d="M815.598 214.453 L823.237 214.453 L823.237 188.087 L814.927 189.754 L814.927 185.494 L823.191 183.828 L827.867 183.828 L827.867 214.453 L835.505 214.453 L835.505 218.388 L815.598 218.388 L815.598 214.453 Z" fill="#000000" fill-rule="nonzero" fill-opacity="1" /><path clip-path="url(#clip120)" d="M876.755 188.666 L876.755 201.559 L889.649 201.559 L889.649 205.494 L876.755 205.494 L876.755 218.388 L872.866 218.388 L872.866 205.494 L859.973 205.494 L859.973 201.559 L872.866 201.559 L872.866 188.666 L876.755 188.666 Z" fill="#000000" fill-rule="nonzero" fill-opacity="1" /><path clip-path="url(#clip120)" d="M909.741 186.907 Q906.13 186.907 904.301 190.471 Q902.496 194.013 902.496 201.143 Q902.496 208.249 904.301 211.814 Q906.13 215.355 909.741 215.355 Q913.375 215.355 915.181 211.814 Q917.01 208.249 917.01 201.143 Q917.01 194.013 915.181 190.471 Q913.375 186.907 909.741 186.907 M909.741 183.203 Q915.551 183.203 918.607 187.809 Q921.685 192.393 921.685 201.143 Q921.685 209.869 918.607 214.476 Q915.551 219.059 909.741 219.059 Q903.931 219.059 900.852 214.476 Q897.797 209.869 897.797 201.143 Q897.797 192.393 900.852 187.809 Q903.931 183.203 909.741 183.203 Z" fill="#000000" fill-rule="nonzero" fill-opacity="1" /><path clip-path="url(#clip120)" d="M929.903 212.508 L934.787 212.508 L934.787 218.388 L929.903 218.388 L929.903 212.508 Z" fill="#000000" fill-rule="nonzero" fill-opacity="1" /><path clip-path="url(#clip120)" d="M945.783 214.453 L953.421 214.453 L953.421 188.087 L945.111 189.754 L945.111 185.494 L953.375 183.828 L958.051 183.828 L958.051 214.453 L965.69 214.453 L965.69 218.388 L945.783 218.388 L945.783 214.453 Z" fill="#000000" fill-rule="nonzero" fill-opacity="1" /><path clip-path="url(#clip120)" d="M987.981 187.902 L976.176 206.351 L987.981 206.351 L987.981 187.902 M986.755 183.828 L992.634 183.828 L992.634 206.351 L997.565 206.351 L997.565 210.24 L992.634 210.24 L992.634 218.388 L987.981 218.388 L987.981 210.24 L972.38 210.24 L972.38 205.726 L986.755 183.828 Z" fill="#000000" fill-rule="nonzero" fill-opacity="1" /><path clip-path="url(#clip120)" d="M1009.32 214.453 L1025.64 214.453 L1025.64 218.388 L1003.7 218.388 L1003.7 214.453 Q1006.36 211.698 1010.94 207.068 Q1015.55 202.416 1016.73 201.073 Q1018.98 198.55 1019.86 196.814 Q1020.76 195.055 1020.76 193.365 Q1020.76 190.61 1018.81 188.874 Q1016.89 187.138 1013.79 187.138 Q1011.59 187.138 1009.14 187.902 Q1006.71 188.666 1003.93 190.217 L1003.93 185.494 Q1006.75 184.36 1009.21 183.782 Q1011.66 183.203 1013.7 183.203 Q1019.07 183.203 1022.26 185.888 Q1025.46 188.573 1025.46 193.064 Q1025.46 195.194 1024.65 197.115 Q1023.86 199.013 1021.75 201.606 Q1021.18 202.277 1018.07 205.494 Q1014.97 208.689 1009.32 214.453 Z" fill="#000000" fill-rule="nonzero" fill-opacity="1" /><path clip-path="url(#clip120)" d="M1042.43 183.828 L1046.36 183.828 L1034.32 222.786 L1030.39 222.786 L1042.43 183.828 Z" fill="#000000" fill-rule="nonzero" fill-opacity="1" /><path clip-path="url(#clip120)" d="M1048.68 203.504 L1061.15 203.504 L1061.15 207.3 L1048.68 207.3 L1048.68 203.504 Z" fill="#000000" fill-rule="nonzero" fill-opacity="1" /><path clip-path="url(#clip120)" d="M1078.54 186.907 Q1074.93 186.907 1073.1 190.471 Q1071.29 194.013 1071.29 201.143 Q1071.29 208.249 1073.1 211.814 Q1074.93 215.355 1078.54 215.355 Q1082.17 215.355 1083.98 211.814 Q1085.8 208.249 1085.8 201.143 Q1085.8 194.013 1083.98 190.471 Q1082.17 186.907 1078.54 186.907 M1078.54 183.203 Q1084.35 183.203 1087.4 187.809 Q1090.48 192.393 1090.48 201.143 Q1090.48 209.869 1087.4 214.476 Q1084.35 219.059 1078.54 219.059 Q1072.73 219.059 1069.65 214.476 Q1066.59 209.869 1066.59 201.143 Q1066.59 192.393 1069.65 187.809 Q1072.73 183.203 1078.54 183.203 Z" fill="#000000" fill-rule="nonzero" fill-opacity="1" /><path clip-path="url(#clip120)" d="M1098.7 212.508 L1103.58 212.508 L1103.58 218.388 L1098.7 218.388 L1098.7 212.508 Z" fill="#000000" fill-rule="nonzero" fill-opacity="1" /><path clip-path="url(#clip120)" d="M1117.8 214.453 L1134.11 214.453 L1134.11 218.388 L1112.17 218.388 L1112.17 214.453 Q1114.83 211.698 1119.42 207.068 Q1124.02 202.416 1125.2 201.073 Q1127.45 198.55 1128.33 196.814 Q1129.23 195.055 1129.23 193.365 Q1129.23 190.61 1127.29 188.874 Q1125.36 187.138 1122.26 187.138 Q1120.06 187.138 1117.61 187.902 Q1115.18 188.666 1112.4 190.217 L1112.4 185.494 Q1115.23 184.36 1117.68 183.782 Q1120.13 183.203 1122.17 183.203 Q1127.54 183.203 1130.74 185.888 Q1133.93 188.573 1133.93 193.064 Q1133.93 195.194 1133.12 197.115 Q1132.33 199.013 1130.23 201.606 Q1129.65 202.277 1126.55 205.494 Q1123.44 208.689 1117.8 214.453 Z" fill="#000000" fill-rule="nonzero" fill-opacity="1" /><path clip-path="url(#clip120)" d="M1144.74 214.453 L1152.38 214.453 L1152.38 188.087 L1144.07 189.754 L1144.07 185.494 L1152.33 183.828 L1157.01 183.828 L1157.01 214.453 L1164.65 214.453 L1164.65 218.388 L1144.74 218.388 L1144.74 214.453 Z" fill="#000000" fill-rule="nonzero" fill-opacity="1" /><path clip-path="url(#clip120)" d="M1174.14 183.828 L1192.49 183.828 L1192.49 187.763 L1178.42 187.763 L1178.42 196.235 Q1179.44 195.888 1180.46 195.726 Q1181.48 195.541 1182.49 195.541 Q1188.28 195.541 1191.66 198.712 Q1195.04 201.883 1195.04 207.3 Q1195.04 212.879 1191.57 215.98 Q1188.1 219.059 1181.78 219.059 Q1179.6 219.059 1177.33 218.689 Q1175.09 218.318 1172.68 217.578 L1172.68 212.879 Q1174.76 214.013 1176.99 214.568 Q1179.21 215.124 1181.68 215.124 Q1185.69 215.124 1188.03 213.017 Q1190.36 210.911 1190.36 207.3 Q1190.36 203.689 1188.03 201.582 Q1185.69 199.476 1181.68 199.476 Q1179.81 199.476 1177.93 199.893 Q1176.08 200.309 1174.14 201.189 L1174.14 183.828 Z" fill="#000000" fill-rule="nonzero" fill-opacity="1" /><path clip-path="url(#clip120)" d="M1218.91 183.828 L1225.87 183.828 L1234.69 207.346 L1243.56 183.828 L1250.53 183.828 L1250.53 218.388 L1245.97 218.388 L1245.97 188.041 L1237.05 211.744 L1232.36 211.744 L1223.44 188.041 L1223.44 218.388 L1218.91 218.388 L1218.91 183.828 Z" fill="#000000" fill-rule="nonzero" fill-opacity="1" /><path clip-path="url(#clip120)" d="M1271.41 205.355 Q1266.24 205.355 1264.25 206.536 Q1262.26 207.717 1262.26 210.564 Q1262.26 212.832 1263.74 214.175 Q1265.25 215.494 1267.82 215.494 Q1271.36 215.494 1273.49 212.994 Q1275.64 210.471 1275.64 206.305 L1275.64 205.355 L1271.41 205.355 M1279.9 203.596 L1279.9 218.388 L1275.64 218.388 L1275.64 214.453 Q1274.18 216.814 1272.01 217.948 Q1269.83 219.059 1266.68 219.059 Q1262.7 219.059 1260.34 216.837 Q1258 214.592 1258 210.842 Q1258 206.467 1260.92 204.244 Q1263.86 202.022 1269.67 202.022 L1275.64 202.022 L1275.64 201.606 Q1275.64 198.666 1273.7 197.068 Q1271.78 195.448 1268.28 195.448 Q1266.06 195.448 1263.95 195.981 Q1261.85 196.513 1259.9 197.578 L1259.9 193.643 Q1262.24 192.74 1264.44 192.3 Q1266.64 191.837 1268.72 191.837 Q1274.35 191.837 1277.12 194.754 Q1279.9 197.67 1279.9 203.596 Z" fill="#000000" fill-rule="nonzero" fill-opacity="1" /><path clip-path="url(#clip120)" d="M1288 182.416 L1291.71 182.416 Q1295.18 187.879 1296.89 193.11 Q1298.63 198.342 1298.63 203.504 Q1298.63 208.689 1296.89 213.943 Q1295.18 219.198 1291.71 224.638 L1288 224.638 Q1291.08 219.337 1292.59 214.105 Q1294.11 208.851 1294.11 203.504 Q1294.11 198.156 1292.59 192.948 Q1291.08 187.74 1288 182.416 Z" fill="#000000" fill-rule="nonzero" fill-opacity="1" /></svg>
