<?xml version="1.0" encoding="utf-8"?>
<svg xmlns="http://www.w3.org/2000/svg" xmlns:xlink="http://www.w3.org/1999/xlink" width="600" height="400" viewBox="0 0 2400 1600">
<defs>
  <clipPath id="clip260">
    <rect x="0" y="0" width="2400" height="1600"/>
  </clipPath>
</defs>
<path clip-path="url(#clip260)" d="M0 1600 L2400 1600 L2400 8.88178e-14 L0 8.88178e-14  Z" fill="#ffffff" fill-rule="evenodd" fill-opacity="1"/>
<defs>
  <clipPath id="clip261">
    <rect x="480" y="0" width="1681" height="1600"/>
  </clipPath>
</defs>
<path clip-path="url(#clip260)" d="M202.227 1423.18 L2352.76 1423.18 L2352.76 47.2441 L202.227 47.2441  Z" fill="#ffffff" fill-rule="evenodd" fill-opacity="1"/>
<defs>
  <clipPath id="clip262">
    <rect x="202" y="47" width="2152" height="1377"/>
  </clipPath>
</defs>
<polyline clip-path="url(#clip262)" style="stroke:#000000; stroke-linecap:round; stroke-linejoin:round; stroke-width:2; stroke-opacity:0.1; fill:none" points="225.692,1423.18 225.692,47.2441 "/>
<polyline clip-path="url(#clip262)" style="stroke:#000000; stroke-linecap:round; stroke-linejoin:round; stroke-width:2; stroke-opacity:0.1; fill:none" points="709.43,1423.18 709.43,47.2441 "/>
<polyline clip-path="url(#clip262)" style="stroke:#000000; stroke-linecap:round; stroke-linejoin:round; stroke-width:2; stroke-opacity:0.1; fill:none" points="1193.17,1423.18 1193.17,47.2441 "/>
<polyline clip-path="url(#clip262)" style="stroke:#000000; stroke-linecap:round; stroke-linejoin:round; stroke-width:2; stroke-opacity:0.1; fill:none" points="1676.9,1423.18 1676.9,47.2441 "/>
<polyline clip-path="url(#clip262)" style="stroke:#000000; stroke-linecap:round; stroke-linejoin:round; stroke-width:2; stroke-opacity:0.1; fill:none" points="2160.64,1423.18 2160.64,47.2441 "/>
<polyline clip-path="url(#clip262)" style="stroke:#000000; stroke-linecap:round; stroke-linejoin:round; stroke-width:2; stroke-opacity:0.1; fill:none" points="225.692,1423.18 225.692,47.2441 "/>
<polyline clip-path="url(#clip262)" style="stroke:#000000; stroke-linecap:round; stroke-linejoin:round; stroke-width:2; stroke-opacity:0.1; fill:none" points="709.43,1423.18 709.43,47.2441 "/>
<polyline clip-path="url(#clip262)" style="stroke:#000000; stroke-linecap:round; stroke-linejoin:round; stroke-width:2; stroke-opacity:0.1; fill:none" points="1193.17,1423.18 1193.17,47.2441 "/>
<polyline clip-path="url(#clip262)" style="stroke:#000000; stroke-linecap:round; stroke-linejoin:round; stroke-width:2; stroke-opacity:0.1; fill:none" points="1676.9,1423.18 1676.9,47.2441 "/>
<polyline clip-path="url(#clip262)" style="stroke:#000000; stroke-linecap:round; stroke-linejoin:round; stroke-width:2; stroke-opacity:0.1; fill:none" points="2160.64,1423.18 2160.64,47.2441 "/>
<polyline clip-path="url(#clip262)" style="stroke:#000000; stroke-linecap:round; stroke-linejoin:round; stroke-width:2; stroke-opacity:0.1; fill:none" points="202.227,1384.24 2352.76,1384.24 "/>
<polyline clip-path="url(#clip262)" style="stroke:#000000; stroke-linecap:round; stroke-linejoin:round; stroke-width:2; stroke-opacity:0.1; fill:none" points="202.227,978.915 2352.76,978.915 "/>
<polyline clip-path="url(#clip262)" style="stroke:#000000; stroke-linecap:round; stroke-linejoin:round; stroke-width:2; stroke-opacity:0.1; fill:none" points="202.227,573.591 2352.76,573.591 "/>
<polyline clip-path="url(#clip262)" style="stroke:#000000; stroke-linecap:round; stroke-linejoin:round; stroke-width:2; stroke-opacity:0.1; fill:none" points="202.227,168.267 2352.76,168.267 "/>
<polyline clip-path="url(#clip262)" style="stroke:#000000; stroke-linecap:round; stroke-linejoin:round; stroke-width:2; stroke-opacity:0.1; fill:none" points="202.227,1384.24 2352.76,1384.24 "/>
<polyline clip-path="url(#clip262)" style="stroke:#000000; stroke-linecap:round; stroke-linejoin:round; stroke-width:2; stroke-opacity:0.1; fill:none" points="202.227,978.915 2352.76,978.915 "/>
<polyline clip-path="url(#clip262)" style="stroke:#000000; stroke-linecap:round; stroke-linejoin:round; stroke-width:2; stroke-opacity:0.1; fill:none" points="202.227,573.591 2352.76,573.591 "/>
<polyline clip-path="url(#clip262)" style="stroke:#000000; stroke-linecap:round; stroke-linejoin:round; stroke-width:2; stroke-opacity:0.1; fill:none" points="202.227,168.267 2352.76,168.267 "/>
<polyline clip-path="url(#clip260)" style="stroke:#000000; stroke-linecap:round; stroke-linejoin:round; stroke-width:4; stroke-opacity:1; fill:none" points="202.227,1423.18 2352.76,1423.18 "/>
<polyline clip-path="url(#clip260)" style="stroke:#000000; stroke-linecap:round; stroke-linejoin:round; stroke-width:4; stroke-opacity:1; fill:none" points="202.227,47.2441 2352.76,47.2441 "/>
<polyline clip-path="url(#clip260)" style="stroke:#000000; stroke-linecap:round; stroke-linejoin:round; stroke-width:4; stroke-opacity:1; fill:none" points="225.692,1423.18 225.692,1404.28 "/>
<polyline clip-path="url(#clip260)" style="stroke:#000000; stroke-linecap:round; stroke-linejoin:round; stroke-width:4; stroke-opacity:1; fill:none" points="709.43,1423.18 709.43,1404.28 "/>
<polyline clip-path="url(#clip260)" style="stroke:#000000; stroke-linecap:round; stroke-linejoin:round; stroke-width:4; stroke-opacity:1; fill:none" points="1193.17,1423.18 1193.17,1404.28 "/>
<polyline clip-path="url(#clip260)" style="stroke:#000000; stroke-linecap:round; stroke-linejoin:round; stroke-width:4; stroke-opacity:1; fill:none" points="1676.9,1423.18 1676.9,1404.28 "/>
<polyline clip-path="url(#clip260)" style="stroke:#000000; stroke-linecap:round; stroke-linejoin:round; stroke-width:4; stroke-opacity:1; fill:none" points="2160.64,1423.18 2160.64,1404.28 "/>
<polyline clip-path="url(#clip260)" style="stroke:#000000; stroke-linecap:round; stroke-linejoin:round; stroke-width:4; stroke-opacity:1; fill:none" points="225.692,47.2441 225.692,66.1417 "/>
<polyline clip-path="url(#clip260)" style="stroke:#000000; stroke-linecap:round; stroke-linejoin:round; stroke-width:4; stroke-opacity:1; fill:none" points="709.43,47.2441 709.43,66.1417 "/>
<polyline clip-path="url(#clip260)" style="stroke:#000000; stroke-linecap:round; stroke-linejoin:round; stroke-width:4; stroke-opacity:1; fill:none" points="1193.17,47.2441 1193.17,66.1417 "/>
<polyline clip-path="url(#clip260)" style="stroke:#000000; stroke-linecap:round; stroke-linejoin:round; stroke-width:4; stroke-opacity:1; fill:none" points="1676.9,47.2441 1676.9,66.1417 "/>
<polyline clip-path="url(#clip260)" style="stroke:#000000; stroke-linecap:round; stroke-linejoin:round; stroke-width:4; stroke-opacity:1; fill:none" points="2160.64,47.2441 2160.64,66.1417 "/>
<path clip-path="url(#clip260)" d="M188.575 1466.44 Q185.426 1466.44 183.575 1468.59 Q181.746 1470.74 181.746 1474.49 Q181.746 1478.22 183.575 1480.39 Q185.426 1482.55 188.575 1482.55 Q191.723 1482.55 193.551 1480.39 Q195.403 1478.22 195.403 1474.49 Q195.403 1470.74 193.551 1468.59 Q191.723 1466.44 188.575 1466.44 M197.857 1451.78 L197.857 1456.04 Q196.098 1455.21 194.292 1454.77 Q192.51 1454.33 190.75 1454.33 Q186.121 1454.33 183.667 1457.45 Q181.237 1460.58 180.889 1466.9 Q182.255 1464.89 184.315 1463.82 Q186.376 1462.73 188.852 1462.73 Q194.061 1462.73 197.07 1465.9 Q200.102 1469.05 200.102 1474.49 Q200.102 1479.82 196.954 1483.03 Q193.806 1486.25 188.575 1486.25 Q182.579 1486.25 179.408 1481.67 Q176.237 1477.06 176.237 1468.33 Q176.237 1460.14 180.126 1455.28 Q184.014 1450.39 190.565 1450.39 Q192.325 1450.39 194.107 1450.74 Q195.912 1451.09 197.857 1451.78 Z" fill="#000000" fill-rule="nonzero" fill-opacity="1" /><path clip-path="url(#clip260)" d="M208.204 1451.02 L226.56 1451.02 L226.56 1454.96 L212.486 1454.96 L212.486 1463.43 Q213.505 1463.08 214.524 1462.92 Q215.542 1462.73 216.561 1462.73 Q222.348 1462.73 225.727 1465.9 Q229.107 1469.08 229.107 1474.49 Q229.107 1480.07 225.635 1483.17 Q222.162 1486.25 215.843 1486.25 Q213.667 1486.25 211.399 1485.88 Q209.153 1485.51 206.746 1484.77 L206.746 1480.07 Q208.829 1481.2 211.051 1481.76 Q213.274 1482.32 215.75 1482.32 Q219.755 1482.32 222.093 1480.21 Q224.431 1478.1 224.431 1474.49 Q224.431 1470.88 222.093 1468.77 Q219.755 1466.67 215.75 1466.67 Q213.875 1466.67 212 1467.08 Q210.149 1467.5 208.204 1468.38 L208.204 1451.02 Z" fill="#000000" fill-rule="nonzero" fill-opacity="1" /><path clip-path="url(#clip260)" d="M238.32 1479.7 L243.204 1479.7 L243.204 1485.58 L238.32 1485.58 L238.32 1479.7 Z" fill="#000000" fill-rule="nonzero" fill-opacity="1" /><path clip-path="url(#clip260)" d="M253.528 1484.86 L253.528 1480.6 Q255.287 1481.44 257.093 1481.88 Q258.898 1482.32 260.634 1482.32 Q265.264 1482.32 267.695 1479.21 Q270.148 1476.09 270.495 1469.75 Q269.153 1471.74 267.093 1472.8 Q265.032 1473.87 262.533 1473.87 Q257.347 1473.87 254.315 1470.74 Q251.306 1467.59 251.306 1462.15 Q251.306 1456.83 254.454 1453.61 Q257.602 1450.39 262.833 1450.39 Q268.829 1450.39 271.977 1455 Q275.148 1459.58 275.148 1468.33 Q275.148 1476.51 271.259 1481.39 Q267.394 1486.25 260.843 1486.25 Q259.083 1486.25 257.278 1485.9 Q255.472 1485.56 253.528 1484.86 M262.833 1470.21 Q265.982 1470.21 267.81 1468.06 Q269.662 1465.9 269.662 1462.15 Q269.662 1458.43 267.81 1456.27 Q265.982 1454.1 262.833 1454.1 Q259.685 1454.1 257.833 1456.27 Q256.005 1458.43 256.005 1462.15 Q256.005 1465.9 257.833 1468.06 Q259.685 1470.21 262.833 1470.21 Z" fill="#000000" fill-rule="nonzero" fill-opacity="1" /><path clip-path="url(#clip260)" d="M672.219 1466.44 Q669.071 1466.44 667.219 1468.59 Q665.391 1470.74 665.391 1474.49 Q665.391 1478.22 667.219 1480.39 Q669.071 1482.55 672.219 1482.55 Q675.368 1482.55 677.196 1480.39 Q679.048 1478.22 679.048 1474.49 Q679.048 1470.74 677.196 1468.59 Q675.368 1466.44 672.219 1466.44 M681.502 1451.78 L681.502 1456.04 Q679.742 1455.21 677.937 1454.77 Q676.155 1454.33 674.395 1454.33 Q669.766 1454.33 667.312 1457.45 Q664.881 1460.58 664.534 1466.9 Q665.9 1464.89 667.96 1463.82 Q670.02 1462.73 672.497 1462.73 Q677.705 1462.73 680.715 1465.9 Q683.747 1469.05 683.747 1474.49 Q683.747 1479.82 680.599 1483.03 Q677.451 1486.25 672.219 1486.25 Q666.224 1486.25 663.053 1481.67 Q659.881 1477.06 659.881 1468.33 Q659.881 1460.14 663.77 1455.28 Q667.659 1450.39 674.21 1450.39 Q675.969 1450.39 677.752 1450.74 Q679.557 1451.09 681.502 1451.78 Z" fill="#000000" fill-rule="nonzero" fill-opacity="1" /><path clip-path="url(#clip260)" d="M702.381 1466.44 Q699.233 1466.44 697.381 1468.59 Q695.553 1470.74 695.553 1474.49 Q695.553 1478.22 697.381 1480.39 Q699.233 1482.55 702.381 1482.55 Q705.529 1482.55 707.358 1480.39 Q709.21 1478.22 709.21 1474.49 Q709.21 1470.74 707.358 1468.59 Q705.529 1466.44 702.381 1466.44 M711.664 1451.78 L711.664 1456.04 Q709.904 1455.21 708.099 1454.77 Q706.316 1454.33 704.557 1454.33 Q699.928 1454.33 697.474 1457.45 Q695.043 1460.58 694.696 1466.9 Q696.062 1464.89 698.122 1463.82 Q700.182 1462.73 702.659 1462.73 Q707.867 1462.73 710.877 1465.9 Q713.909 1469.05 713.909 1474.49 Q713.909 1479.82 710.761 1483.03 Q707.613 1486.25 702.381 1486.25 Q696.386 1486.25 693.215 1481.67 Q690.043 1477.06 690.043 1468.33 Q690.043 1460.14 693.932 1455.28 Q697.821 1450.39 704.372 1450.39 Q706.131 1450.39 707.914 1450.74 Q709.719 1451.09 711.664 1451.78 Z" fill="#000000" fill-rule="nonzero" fill-opacity="1" /><path clip-path="url(#clip260)" d="M721.964 1479.7 L726.849 1479.7 L726.849 1485.58 L721.964 1485.58 L721.964 1479.7 Z" fill="#000000" fill-rule="nonzero" fill-opacity="1" /><path clip-path="url(#clip260)" d="M747.034 1454.1 Q743.423 1454.1 741.594 1457.66 Q739.788 1461.2 739.788 1468.33 Q739.788 1475.44 741.594 1479.01 Q743.423 1482.55 747.034 1482.55 Q750.668 1482.55 752.474 1479.01 Q754.302 1475.44 754.302 1468.33 Q754.302 1461.2 752.474 1457.66 Q750.668 1454.1 747.034 1454.1 M747.034 1450.39 Q752.844 1450.39 755.899 1455 Q758.978 1459.58 758.978 1468.33 Q758.978 1477.06 755.899 1481.67 Q752.844 1486.25 747.034 1486.25 Q741.224 1486.25 738.145 1481.67 Q735.089 1477.06 735.089 1468.33 Q735.089 1459.58 738.145 1455 Q741.224 1450.39 747.034 1450.39 Z" fill="#000000" fill-rule="nonzero" fill-opacity="1" /><path clip-path="url(#clip260)" d="M1156.57 1466.44 Q1153.42 1466.44 1151.57 1468.59 Q1149.74 1470.74 1149.74 1474.49 Q1149.74 1478.22 1151.57 1480.39 Q1153.42 1482.55 1156.57 1482.55 Q1159.72 1482.55 1161.55 1480.39 Q1163.4 1478.22 1163.4 1474.49 Q1163.4 1470.74 1161.55 1468.59 Q1159.72 1466.44 1156.57 1466.44 M1165.85 1451.78 L1165.85 1456.04 Q1164.09 1455.21 1162.29 1454.77 Q1160.51 1454.33 1158.75 1454.33 Q1154.12 1454.33 1151.66 1457.45 Q1149.23 1460.58 1148.89 1466.9 Q1150.25 1464.89 1152.31 1463.82 Q1154.37 1462.73 1156.85 1462.73 Q1162.06 1462.73 1165.07 1465.9 Q1168.1 1469.05 1168.1 1474.49 Q1168.1 1479.82 1164.95 1483.03 Q1161.8 1486.25 1156.57 1486.25 Q1150.57 1486.25 1147.4 1481.67 Q1144.23 1477.06 1144.23 1468.33 Q1144.23 1460.14 1148.12 1455.28 Q1152.01 1450.39 1158.56 1450.39 Q1160.32 1450.39 1162.1 1450.74 Q1163.91 1451.09 1165.85 1451.78 Z" fill="#000000" fill-rule="nonzero" fill-opacity="1" /><path clip-path="url(#clip260)" d="M1186.73 1466.44 Q1183.58 1466.44 1181.73 1468.59 Q1179.9 1470.74 1179.9 1474.49 Q1179.9 1478.22 1181.73 1480.39 Q1183.58 1482.55 1186.73 1482.55 Q1189.88 1482.55 1191.71 1480.39 Q1193.56 1478.22 1193.56 1474.49 Q1193.56 1470.74 1191.71 1468.59 Q1189.88 1466.44 1186.73 1466.44 M1196.01 1451.78 L1196.01 1456.04 Q1194.26 1455.21 1192.45 1454.77 Q1190.67 1454.33 1188.91 1454.33 Q1184.28 1454.33 1181.82 1457.45 Q1179.39 1460.58 1179.05 1466.9 Q1180.41 1464.89 1182.47 1463.82 Q1184.53 1462.73 1187.01 1462.73 Q1192.22 1462.73 1195.23 1465.9 Q1198.26 1469.05 1198.26 1474.49 Q1198.26 1479.82 1195.11 1483.03 Q1191.96 1486.25 1186.73 1486.25 Q1180.74 1486.25 1177.57 1481.67 Q1174.39 1477.06 1174.39 1468.33 Q1174.39 1460.14 1178.28 1455.28 Q1182.17 1450.39 1188.72 1450.39 Q1190.48 1450.39 1192.26 1450.74 Q1194.07 1451.09 1196.01 1451.78 Z" fill="#000000" fill-rule="nonzero" fill-opacity="1" /><path clip-path="url(#clip260)" d="M1206.32 1479.7 L1211.2 1479.7 L1211.2 1485.58 L1206.32 1485.58 L1206.32 1479.7 Z" fill="#000000" fill-rule="nonzero" fill-opacity="1" /><path clip-path="url(#clip260)" d="M1222.19 1481.64 L1229.83 1481.64 L1229.83 1455.28 L1221.52 1456.95 L1221.52 1452.69 L1229.79 1451.02 L1234.46 1451.02 L1234.46 1481.64 L1242.1 1481.64 L1242.1 1485.58 L1222.19 1485.58 L1222.19 1481.64 Z" fill="#000000" fill-rule="nonzero" fill-opacity="1" /><path clip-path="url(#clip260)" d="M1640.49 1466.44 Q1637.34 1466.44 1635.49 1468.59 Q1633.66 1470.74 1633.66 1474.49 Q1633.66 1478.22 1635.49 1480.39 Q1637.34 1482.55 1640.49 1482.55 Q1643.64 1482.55 1645.47 1480.39 Q1647.32 1478.22 1647.32 1474.49 Q1647.32 1470.74 1645.47 1468.59 Q1643.64 1466.44 1640.49 1466.44 M1649.78 1451.78 L1649.78 1456.04 Q1648.02 1455.21 1646.21 1454.77 Q1644.43 1454.33 1642.67 1454.33 Q1638.04 1454.33 1635.59 1457.45 Q1633.15 1460.58 1632.81 1466.9 Q1634.17 1464.89 1636.23 1463.82 Q1638.29 1462.73 1640.77 1462.73 Q1645.98 1462.73 1648.99 1465.9 Q1652.02 1469.05 1652.02 1474.49 Q1652.02 1479.82 1648.87 1483.03 Q1645.72 1486.25 1640.49 1486.25 Q1634.5 1486.25 1631.33 1481.67 Q1628.15 1477.06 1628.15 1468.33 Q1628.15 1460.14 1632.04 1455.28 Q1635.93 1450.39 1642.48 1450.39 Q1644.24 1450.39 1646.03 1450.74 Q1647.83 1451.09 1649.78 1451.78 Z" fill="#000000" fill-rule="nonzero" fill-opacity="1" /><path clip-path="url(#clip260)" d="M1670.65 1466.44 Q1667.51 1466.44 1665.65 1468.59 Q1663.83 1470.74 1663.83 1474.49 Q1663.83 1478.22 1665.65 1480.39 Q1667.51 1482.55 1670.65 1482.55 Q1673.8 1482.55 1675.63 1480.39 Q1677.48 1478.22 1677.48 1474.49 Q1677.48 1470.74 1675.63 1468.59 Q1673.8 1466.44 1670.65 1466.44 M1679.94 1451.78 L1679.94 1456.04 Q1678.18 1455.21 1676.37 1454.77 Q1674.59 1454.33 1672.83 1454.33 Q1668.2 1454.33 1665.75 1457.45 Q1663.32 1460.58 1662.97 1466.9 Q1664.34 1464.89 1666.4 1463.82 Q1668.46 1462.73 1670.93 1462.73 Q1676.14 1462.73 1679.15 1465.9 Q1682.18 1469.05 1682.18 1474.49 Q1682.18 1479.82 1679.03 1483.03 Q1675.89 1486.25 1670.65 1486.25 Q1664.66 1486.25 1661.49 1481.67 Q1658.32 1477.06 1658.32 1468.33 Q1658.32 1460.14 1662.21 1455.28 Q1666.09 1450.39 1672.65 1450.39 Q1674.4 1450.39 1676.19 1450.74 Q1677.99 1451.09 1679.94 1451.78 Z" fill="#000000" fill-rule="nonzero" fill-opacity="1" /><path clip-path="url(#clip260)" d="M1690.24 1479.7 L1695.12 1479.7 L1695.12 1485.58 L1690.24 1485.58 L1690.24 1479.7 Z" fill="#000000" fill-rule="nonzero" fill-opacity="1" /><path clip-path="url(#clip260)" d="M1709.34 1481.64 L1725.65 1481.64 L1725.65 1485.58 L1703.71 1485.58 L1703.71 1481.64 Q1706.37 1478.89 1710.96 1474.26 Q1715.56 1469.61 1716.74 1468.27 Q1718.99 1465.74 1719.87 1464.01 Q1720.77 1462.25 1720.77 1460.56 Q1720.77 1457.8 1718.83 1456.07 Q1716.9 1454.33 1713.8 1454.33 Q1711.6 1454.33 1709.15 1455.09 Q1706.72 1455.86 1703.94 1457.41 L1703.94 1452.69 Q1706.77 1451.55 1709.22 1450.97 Q1711.67 1450.39 1713.71 1450.39 Q1719.08 1450.39 1722.27 1453.08 Q1725.47 1455.77 1725.47 1460.26 Q1725.47 1462.39 1724.66 1464.31 Q1723.87 1466.2 1721.77 1468.8 Q1721.19 1469.47 1718.08 1472.69 Q1714.98 1475.88 1709.34 1481.64 Z" fill="#000000" fill-rule="nonzero" fill-opacity="1" /><path clip-path="url(#clip260)" d="M2123.76 1466.44 Q2120.61 1466.44 2118.76 1468.59 Q2116.93 1470.74 2116.93 1474.49 Q2116.93 1478.22 2118.76 1480.39 Q2120.61 1482.55 2123.76 1482.55 Q2126.9 1482.55 2128.73 1480.39 Q2130.58 1478.22 2130.58 1474.49 Q2130.58 1470.74 2128.73 1468.59 Q2126.9 1466.44 2123.76 1466.44 M2133.04 1451.78 L2133.04 1456.04 Q2131.28 1455.21 2129.47 1454.77 Q2127.69 1454.33 2125.93 1454.33 Q2121.3 1454.33 2118.85 1457.45 Q2116.42 1460.58 2116.07 1466.9 Q2117.44 1464.89 2119.5 1463.82 Q2121.56 1462.73 2124.03 1462.73 Q2129.24 1462.73 2132.25 1465.9 Q2135.28 1469.05 2135.28 1474.49 Q2135.28 1479.82 2132.14 1483.03 Q2128.99 1486.25 2123.76 1486.25 Q2117.76 1486.25 2114.59 1481.67 Q2111.42 1477.06 2111.42 1468.33 Q2111.42 1460.14 2115.31 1455.28 Q2119.2 1450.39 2125.75 1450.39 Q2127.51 1450.39 2129.29 1450.74 Q2131.09 1451.09 2133.04 1451.78 Z" fill="#000000" fill-rule="nonzero" fill-opacity="1" /><path clip-path="url(#clip260)" d="M2153.92 1466.44 Q2150.77 1466.44 2148.92 1468.59 Q2147.09 1470.74 2147.09 1474.49 Q2147.09 1478.22 2148.92 1480.39 Q2150.77 1482.55 2153.92 1482.55 Q2157.07 1482.55 2158.89 1480.39 Q2160.75 1478.22 2160.75 1474.49 Q2160.75 1470.74 2158.89 1468.59 Q2157.07 1466.44 2153.92 1466.44 M2163.2 1451.78 L2163.2 1456.04 Q2161.44 1455.21 2159.64 1454.77 Q2157.85 1454.33 2156.09 1454.33 Q2151.46 1454.33 2149.01 1457.45 Q2146.58 1460.58 2146.23 1466.9 Q2147.6 1464.89 2149.66 1463.82 Q2151.72 1462.73 2154.2 1462.73 Q2159.4 1462.73 2162.41 1465.9 Q2165.45 1469.05 2165.45 1474.49 Q2165.45 1479.82 2162.3 1483.03 Q2159.15 1486.25 2153.92 1486.25 Q2147.92 1486.25 2144.75 1481.67 Q2141.58 1477.06 2141.58 1468.33 Q2141.58 1460.14 2145.47 1455.28 Q2149.36 1450.39 2155.91 1450.39 Q2157.67 1450.39 2159.45 1450.74 Q2161.26 1451.09 2163.2 1451.78 Z" fill="#000000" fill-rule="nonzero" fill-opacity="1" /><path clip-path="url(#clip260)" d="M2173.5 1479.7 L2178.39 1479.7 L2178.39 1485.58 L2173.5 1485.58 L2173.5 1479.7 Z" fill="#000000" fill-rule="nonzero" fill-opacity="1" /><path clip-path="url(#clip260)" d="M2202.74 1466.95 Q2206.09 1467.66 2207.97 1469.93 Q2209.87 1472.2 2209.87 1475.53 Q2209.87 1480.65 2206.35 1483.45 Q2202.83 1486.25 2196.35 1486.25 Q2194.17 1486.25 2191.86 1485.81 Q2189.57 1485.39 2187.11 1484.54 L2187.11 1480.02 Q2189.06 1481.16 2191.37 1481.74 Q2193.69 1482.32 2196.21 1482.32 Q2200.61 1482.32 2202.9 1480.58 Q2205.21 1478.84 2205.21 1475.53 Q2205.21 1472.48 2203.06 1470.77 Q2200.93 1469.03 2197.11 1469.03 L2193.08 1469.03 L2193.08 1465.19 L2197.3 1465.19 Q2200.75 1465.19 2202.57 1463.82 Q2204.4 1462.43 2204.4 1459.84 Q2204.4 1457.18 2202.51 1455.77 Q2200.63 1454.33 2197.11 1454.33 Q2195.19 1454.33 2192.99 1454.75 Q2190.79 1455.16 2188.15 1456.04 L2188.15 1451.88 Q2190.82 1451.14 2193.13 1450.77 Q2195.47 1450.39 2197.53 1450.39 Q2202.85 1450.39 2205.95 1452.83 Q2209.06 1455.23 2209.06 1459.35 Q2209.06 1462.22 2207.41 1464.21 Q2205.77 1466.18 2202.74 1466.95 Z" fill="#000000" fill-rule="nonzero" fill-opacity="1" /><path clip-path="url(#clip260)" d="M1155.4 1526.86 L1146.68 1550.51 L1164.15 1550.51 L1155.4 1526.86 M1151.77 1520.52 L1159.06 1520.52 L1177.17 1568.04 L1170.48 1568.04 L1166.16 1555.85 L1144.73 1555.85 L1140.41 1568.04 L1133.63 1568.04 L1151.77 1520.52 Z" fill="#000000" fill-rule="nonzero" fill-opacity="1" /><path clip-path="url(#clip260)" d="M1207.31 1549.81 Q1207.31 1543.44 1204.67 1539.94 Q1202.06 1536.44 1197.32 1536.44 Q1192.6 1536.44 1189.96 1539.94 Q1187.35 1543.44 1187.35 1549.81 Q1187.35 1556.14 1189.96 1559.64 Q1192.6 1563.14 1197.32 1563.14 Q1202.06 1563.14 1204.67 1559.64 Q1207.31 1556.14 1207.31 1549.81 M1213.17 1563.62 Q1213.17 1572.72 1209.12 1577.15 Q1205.08 1581.6 1196.74 1581.6 Q1193.66 1581.6 1190.92 1581.13 Q1188.18 1580.68 1185.6 1579.72 L1185.6 1574.03 Q1188.18 1575.43 1190.7 1576.1 Q1193.21 1576.76 1195.82 1576.76 Q1201.58 1576.76 1204.45 1573.74 Q1207.31 1570.75 1207.31 1564.67 L1207.31 1561.77 Q1205.5 1564.92 1202.66 1566.48 Q1199.83 1568.04 1195.88 1568.04 Q1189.33 1568.04 1185.32 1563.05 Q1181.31 1558.05 1181.31 1549.81 Q1181.31 1541.53 1185.32 1536.53 Q1189.33 1531.54 1195.88 1531.54 Q1199.83 1531.54 1202.66 1533.1 Q1205.5 1534.66 1207.31 1537.81 L1207.31 1532.4 L1213.17 1532.4 L1213.17 1563.62 Z" fill="#000000" fill-rule="nonzero" fill-opacity="1" /><path clip-path="url(#clip260)" d="M1255.72 1548.76 L1255.72 1551.62 L1228.79 1551.62 Q1229.18 1557.67 1232.42 1560.85 Q1235.7 1564 1241.53 1564 Q1244.9 1564 1248.05 1563.17 Q1251.23 1562.35 1254.35 1560.69 L1254.35 1566.23 Q1251.2 1567.57 1247.89 1568.27 Q1244.58 1568.97 1241.18 1568.97 Q1232.65 1568.97 1227.65 1564 Q1222.68 1559.04 1222.68 1550.57 Q1222.68 1541.82 1227.39 1536.69 Q1232.14 1531.54 1240.16 1531.54 Q1247.35 1531.54 1251.52 1536.18 Q1255.72 1540.8 1255.72 1548.76 M1249.86 1547.04 Q1249.8 1542.23 1247.16 1539.37 Q1244.55 1536.5 1240.22 1536.5 Q1235.32 1536.5 1232.36 1539.27 Q1229.43 1542.04 1228.99 1547.07 L1249.86 1547.04 Z" fill="#000000" fill-rule="nonzero" fill-opacity="1" /><path clip-path="url(#clip260)" d="M1300.12 1518.58 Q1295.86 1525.9 1293.79 1533.06 Q1291.72 1540.23 1291.72 1547.58 Q1291.72 1554.93 1293.79 1562.16 Q1295.89 1569.35 1300.12 1576.64 L1295.03 1576.64 Q1290.25 1569.16 1287.87 1561.93 Q1285.51 1554.71 1285.51 1547.58 Q1285.51 1540.48 1287.87 1533.29 Q1290.22 1526.09 1295.03 1518.58 L1300.12 1518.58 Z" fill="#000000" fill-rule="nonzero" fill-opacity="1" /><path clip-path="url(#clip260)" d="M1311.74 1520.52 L1321.32 1520.52 L1333.45 1552.86 L1345.64 1520.52 L1355.22 1520.52 L1355.22 1568.04 L1348.95 1568.04 L1348.95 1526.32 L1336.69 1558.91 L1330.23 1558.91 L1317.98 1526.32 L1317.98 1568.04 L1311.74 1568.04 L1311.74 1520.52 Z" fill="#000000" fill-rule="nonzero" fill-opacity="1" /><path clip-path="url(#clip260)" d="M1383.93 1550.12 Q1376.83 1550.12 1374.09 1551.75 Q1371.35 1553.37 1371.35 1557.29 Q1371.35 1560.4 1373.39 1562.25 Q1375.46 1564.07 1378.99 1564.07 Q1383.86 1564.07 1386.79 1560.63 Q1389.75 1557.16 1389.75 1551.43 L1389.75 1550.12 L1383.93 1550.12 M1395.61 1547.71 L1395.61 1568.04 L1389.75 1568.04 L1389.75 1562.63 Q1387.75 1565.88 1384.75 1567.44 Q1381.76 1568.97 1377.43 1568.97 Q1371.96 1568.97 1368.71 1565.91 Q1365.5 1562.82 1365.5 1557.67 Q1365.5 1551.65 1369.51 1548.6 Q1373.55 1545.54 1381.54 1545.54 L1389.75 1545.54 L1389.75 1544.97 Q1389.75 1540.93 1387.08 1538.73 Q1384.44 1536.5 1379.63 1536.5 Q1376.57 1536.5 1373.68 1537.23 Q1370.78 1537.97 1368.11 1539.43 L1368.11 1534.02 Q1371.32 1532.78 1374.35 1532.17 Q1377.37 1531.54 1380.23 1531.54 Q1387.97 1531.54 1391.79 1535.55 Q1395.61 1539.56 1395.61 1547.71 Z" fill="#000000" fill-rule="nonzero" fill-opacity="1" /><path clip-path="url(#clip260)" d="M1406.75 1518.58 L1411.84 1518.58 Q1416.61 1526.09 1418.97 1533.29 Q1421.36 1540.48 1421.36 1547.58 Q1421.36 1554.71 1418.97 1561.93 Q1416.61 1569.16 1411.84 1576.64 L1406.75 1576.64 Q1410.98 1569.35 1413.05 1562.16 Q1415.15 1554.93 1415.15 1547.58 Q1415.15 1540.23 1413.05 1533.06 Q1410.98 1525.9 1406.75 1518.58 Z" fill="#000000" fill-rule="nonzero" fill-opacity="1" /><polyline clip-path="url(#clip260)" style="stroke:#000000; stroke-linecap:round; stroke-linejoin:round; stroke-width:4; stroke-opacity:1; fill:none" points="202.227,1423.18 202.227,47.2441 "/>
<polyline clip-path="url(#clip260)" style="stroke:#000000; stroke-linecap:round; stroke-linejoin:round; stroke-width:4; stroke-opacity:1; fill:none" points="2352.76,1423.18 2352.76,47.2441 "/>
<polyline clip-path="url(#clip260)" style="stroke:#000000; stroke-linecap:round; stroke-linejoin:round; stroke-width:4; stroke-opacity:1; fill:none" points="202.227,1384.24 221.125,1384.24 "/>
<polyline clip-path="url(#clip260)" style="stroke:#000000; stroke-linecap:round; stroke-linejoin:round; stroke-width:4; stroke-opacity:1; fill:none" points="202.227,978.915 221.125,978.915 "/>
<polyline clip-path="url(#clip260)" style="stroke:#000000; stroke-linecap:round; stroke-linejoin:round; stroke-width:4; stroke-opacity:1; fill:none" points="202.227,573.591 221.125,573.591 "/>
<polyline clip-path="url(#clip260)" style="stroke:#000000; stroke-linecap:round; stroke-linejoin:round; stroke-width:4; stroke-opacity:1; fill:none" points="202.227,168.267 221.125,168.267 "/>
<polyline clip-path="url(#clip260)" style="stroke:#000000; stroke-linecap:round; stroke-linejoin:round; stroke-width:4; stroke-opacity:1; fill:none" points="2352.76,1384.24 2333.86,1384.24 "/>
<polyline clip-path="url(#clip260)" style="stroke:#000000; stroke-linecap:round; stroke-linejoin:round; stroke-width:4; stroke-opacity:1; fill:none" points="2352.76,978.915 2333.86,978.915 "/>
<polyline clip-path="url(#clip260)" style="stroke:#000000; stroke-linecap:round; stroke-linejoin:round; stroke-width:4; stroke-opacity:1; fill:none" points="2352.76,573.591 2333.86,573.591 "/>
<polyline clip-path="url(#clip260)" style="stroke:#000000; stroke-linecap:round; stroke-linejoin:round; stroke-width:4; stroke-opacity:1; fill:none" points="2352.76,168.267 2333.86,168.267 "/>
<path clip-path="url(#clip260)" d="M154.283 1370.04 Q150.672 1370.04 148.843 1373.6 Q147.038 1377.14 147.038 1384.27 Q147.038 1391.38 148.843 1394.94 Q150.672 1398.49 154.283 1398.49 Q157.917 1398.49 159.723 1394.94 Q161.552 1391.38 161.552 1384.27 Q161.552 1377.14 159.723 1373.6 Q157.917 1370.04 154.283 1370.04 M154.283 1366.33 Q160.093 1366.33 163.149 1370.94 Q166.227 1375.52 166.227 1384.27 Q166.227 1393 163.149 1397.61 Q160.093 1402.19 154.283 1402.19 Q148.473 1402.19 145.394 1397.61 Q142.339 1393 142.339 1384.27 Q142.339 1375.52 145.394 1370.94 Q148.473 1366.33 154.283 1366.33 Z" fill="#000000" fill-rule="nonzero" fill-opacity="1" /><path clip-path="url(#clip260)" d="M145.325 961.635 L163.681 961.635 L163.681 965.57 L149.607 965.57 L149.607 974.042 Q150.626 973.695 151.644 973.533 Q152.663 973.347 153.681 973.347 Q159.468 973.347 162.848 976.519 Q166.227 979.69 166.227 985.107 Q166.227 990.685 162.755 993.787 Q159.283 996.866 152.964 996.866 Q150.788 996.866 148.519 996.496 Q146.274 996.125 143.866 995.384 L143.866 990.685 Q145.95 991.82 148.172 992.375 Q150.394 992.931 152.871 992.931 Q156.876 992.931 159.214 990.824 Q161.552 988.718 161.552 985.107 Q161.552 981.496 159.214 979.389 Q156.876 977.283 152.871 977.283 Q150.996 977.283 149.121 977.699 Q147.269 978.116 145.325 978.996 L145.325 961.635 Z" fill="#000000" fill-rule="nonzero" fill-opacity="1" /><path clip-path="url(#clip260)" d="M114.931 586.936 L122.57 586.936 L122.57 560.57 L114.26 562.237 L114.26 557.977 L122.524 556.311 L127.2 556.311 L127.2 586.936 L134.839 586.936 L134.839 590.871 L114.931 590.871 L114.931 586.936 Z" fill="#000000" fill-rule="nonzero" fill-opacity="1" /><path clip-path="url(#clip260)" d="M154.283 559.389 Q150.672 559.389 148.843 562.954 Q147.038 566.496 147.038 573.626 Q147.038 580.732 148.843 584.297 Q150.672 587.838 154.283 587.838 Q157.917 587.838 159.723 584.297 Q161.552 580.732 161.552 573.626 Q161.552 566.496 159.723 562.954 Q157.917 559.389 154.283 559.389 M154.283 555.686 Q160.093 555.686 163.149 560.292 Q166.227 564.876 166.227 573.626 Q166.227 582.352 163.149 586.959 Q160.093 591.542 154.283 591.542 Q148.473 591.542 145.394 586.959 Q142.339 582.352 142.339 573.626 Q142.339 564.876 145.394 560.292 Q148.473 555.686 154.283 555.686 Z" fill="#000000" fill-rule="nonzero" fill-opacity="1" /><path clip-path="url(#clip260)" d="M115.927 181.612 L123.566 181.612 L123.566 155.246 L115.256 156.913 L115.256 152.654 L123.519 150.987 L128.195 150.987 L128.195 181.612 L135.834 181.612 L135.834 185.547 L115.927 185.547 L115.927 181.612 Z" fill="#000000" fill-rule="nonzero" fill-opacity="1" /><path clip-path="url(#clip260)" d="M145.325 150.987 L163.681 150.987 L163.681 154.922 L149.607 154.922 L149.607 163.394 Q150.626 163.047 151.644 162.885 Q152.663 162.7 153.681 162.7 Q159.468 162.7 162.848 165.871 Q166.227 169.042 166.227 174.459 Q166.227 180.038 162.755 183.14 Q159.283 186.218 152.964 186.218 Q150.788 186.218 148.519 185.848 Q146.274 185.478 143.866 184.737 L143.866 180.038 Q145.95 181.172 148.172 181.728 Q150.394 182.283 152.871 182.283 Q156.876 182.283 159.214 180.177 Q161.552 178.07 161.552 174.459 Q161.552 170.848 159.214 168.742 Q156.876 166.635 152.871 166.635 Q150.996 166.635 149.121 167.052 Q147.269 167.468 145.325 168.348 L145.325 150.987 Z" fill="#000000" fill-rule="nonzero" fill-opacity="1" /><path clip-path="url(#clip260)" d="M21.7677 1026.76 L39.6235 1026.76 L39.6235 1018.68 Q39.6235 1014.19 37.3 1011.74 Q34.9765 1009.29 30.6797 1009.29 Q26.4147 1009.29 24.0912 1011.74 Q21.7677 1014.19 21.7677 1018.68 L21.7677 1026.76 M16.4842 1033.19 L16.4842 1018.68 Q16.4842 1010.69 20.1126 1006.61 Q23.7092 1002.51 30.6797 1002.51 Q37.7138 1002.51 41.3104 1006.61 Q44.907 1010.69 44.907 1018.68 L44.907 1026.76 L64.0042 1026.76 L64.0042 1033.19 L16.4842 1033.19 Z" fill="#000000" fill-rule="nonzero" fill-opacity="1" /><path clip-path="url(#clip260)" d="M33.8307 974.626 Q33.2578 975.613 33.0032 976.791 Q32.7167 977.936 32.7167 979.337 Q32.7167 984.302 35.9632 986.976 Q39.1779 989.617 45.2253 989.617 L64.0042 989.617 L64.0042 995.506 L28.3562 995.506 L28.3562 989.617 L33.8944 989.617 Q30.6479 987.771 29.0883 984.811 Q27.4968 981.851 27.4968 977.618 Q27.4968 977.013 27.5923 976.281 Q27.656 975.549 27.8151 974.658 L33.8307 974.626 Z" fill="#000000" fill-rule="nonzero" fill-opacity="1" /><path clip-path="url(#clip260)" d="M32.4621 956.102 Q32.4621 960.813 36.1542 963.55 Q39.8145 966.287 46.212 966.287 Q52.6095 966.287 56.3017 963.582 Q59.9619 960.844 59.9619 956.102 Q59.9619 951.423 56.2698 948.686 Q52.5777 945.949 46.212 945.949 Q39.8781 945.949 36.186 948.686 Q32.4621 951.423 32.4621 956.102 M27.4968 956.102 Q27.4968 948.463 32.4621 944.103 Q37.4273 939.742 46.212 939.742 Q54.9649 939.742 59.9619 944.103 Q64.9272 948.463 64.9272 956.102 Q64.9272 963.773 59.9619 968.133 Q54.9649 972.462 46.212 972.462 Q37.4273 972.462 32.4621 968.133 Q27.4968 963.773 27.4968 956.102 Z" fill="#000000" fill-rule="nonzero" fill-opacity="1" /><path clip-path="url(#clip260)" d="M46.212 904.444 Q39.7508 904.444 36.0905 907.118 Q32.3984 909.76 32.3984 914.407 Q32.3984 919.054 36.0905 921.727 Q39.7508 924.369 46.212 924.369 Q52.6732 924.369 56.3653 921.727 Q60.0256 919.054 60.0256 914.407 Q60.0256 909.76 56.3653 907.118 Q52.6732 904.444 46.212 904.444 M33.7671 924.369 Q30.5842 922.523 29.0564 919.722 Q27.4968 916.889 27.4968 912.974 Q27.4968 906.481 32.6531 902.439 Q37.8093 898.365 46.212 898.365 Q54.6147 898.365 59.771 902.439 Q64.9272 906.481 64.9272 912.974 Q64.9272 916.889 63.3994 919.722 Q61.8398 922.523 58.657 924.369 L64.0042 924.369 L64.0042 930.257 L14.479 930.257 L14.479 924.369 L33.7671 924.369 Z" fill="#000000" fill-rule="nonzero" fill-opacity="1" /><path clip-path="url(#clip260)" d="M46.0847 872.457 Q46.0847 879.554 47.7079 882.292 Q49.3312 885.029 53.2461 885.029 Q56.3653 885.029 58.2114 882.992 Q60.0256 880.923 60.0256 877.39 Q60.0256 872.52 56.5881 869.592 Q53.1188 866.632 47.3897 866.632 L46.0847 866.632 L46.0847 872.457 M43.6657 860.776 L64.0042 860.776 L64.0042 866.632 L58.5933 866.632 Q61.8398 868.637 63.3994 871.629 Q64.9272 874.621 64.9272 878.95 Q64.9272 884.424 61.8716 887.671 Q58.7843 890.885 53.6281 890.885 Q47.6125 890.885 44.5569 886.875 Q41.5014 882.833 41.5014 874.844 L41.5014 866.632 L40.9285 866.632 Q36.8862 866.632 34.6901 869.306 Q32.4621 871.947 32.4621 876.753 Q32.4621 879.809 33.1941 882.705 Q33.9262 885.602 35.3903 888.275 L29.9795 888.275 Q28.7381 885.061 28.1334 882.037 Q27.4968 879.013 27.4968 876.149 Q27.4968 868.414 31.5072 864.595 Q35.5176 860.776 43.6657 860.776 Z" fill="#000000" fill-rule="nonzero" fill-opacity="1" /><path clip-path="url(#clip260)" d="M46.212 823.122 Q39.7508 823.122 36.0905 825.796 Q32.3984 828.438 32.3984 833.085 Q32.3984 837.732 36.0905 840.405 Q39.7508 843.047 46.212 843.047 Q52.6732 843.047 56.3653 840.405 Q60.0256 837.732 60.0256 833.085 Q60.0256 828.438 56.3653 825.796 Q52.6732 823.122 46.212 823.122 M33.7671 843.047 Q30.5842 841.201 29.0564 838.4 Q27.4968 835.567 27.4968 831.652 Q27.4968 825.159 32.6531 821.117 Q37.8093 817.043 46.212 817.043 Q54.6147 817.043 59.771 821.117 Q64.9272 825.159 64.9272 831.652 Q64.9272 835.567 63.3994 838.4 Q61.8398 841.201 58.657 843.047 L64.0042 843.047 L64.0042 848.935 L14.479 848.935 L14.479 843.047 L33.7671 843.047 Z" fill="#000000" fill-rule="nonzero" fill-opacity="1" /><path clip-path="url(#clip260)" d="M28.3562 807.335 L28.3562 801.479 L64.0042 801.479 L64.0042 807.335 L28.3562 807.335 M14.479 807.335 L14.479 801.479 L21.895 801.479 L21.895 807.335 L14.479 807.335 Z" fill="#000000" fill-rule="nonzero" fill-opacity="1" /><path clip-path="url(#clip260)" d="M14.479 789.225 L14.479 783.369 L64.0042 783.369 L64.0042 789.225 L14.479 789.225 Z" fill="#000000" fill-rule="nonzero" fill-opacity="1" /><path clip-path="url(#clip260)" d="M28.3562 771.115 L28.3562 765.258 L64.0042 765.258 L64.0042 771.115 L28.3562 771.115 M14.479 771.115 L14.479 765.258 L21.895 765.258 L21.895 771.115 L14.479 771.115 Z" fill="#000000" fill-rule="nonzero" fill-opacity="1" /><path clip-path="url(#clip260)" d="M18.2347 747.211 L28.3562 747.211 L28.3562 735.148 L32.9077 735.148 L32.9077 747.211 L52.2594 747.211 Q56.6199 747.211 57.8613 746.034 Q59.1026 744.824 59.1026 741.164 L59.1026 735.148 L64.0042 735.148 L64.0042 741.164 Q64.0042 747.943 61.4897 750.521 Q58.9434 753.1 52.2594 753.1 L32.9077 753.1 L32.9077 757.396 L28.3562 757.396 L28.3562 753.1 L18.2347 753.1 L18.2347 747.211 Z" fill="#000000" fill-rule="nonzero" fill-opacity="1" /><path clip-path="url(#clip260)" d="M67.3143 712.614 Q73.68 715.096 75.6216 717.452 Q77.5631 719.807 77.5631 723.754 L77.5631 728.432 L72.6615 728.432 L72.6615 724.995 Q72.6615 722.576 71.5157 721.239 Q70.3699 719.902 66.1048 718.279 L63.4312 717.229 L28.3562 731.647 L28.3562 725.441 L56.238 714.301 L28.3562 703.161 L28.3562 696.954 L67.3143 712.614 Z" fill="#000000" fill-rule="nonzero" fill-opacity="1" /><path clip-path="url(#clip260)" d="M33.7671 644.692 L14.479 644.692 L14.479 638.835 L64.0042 638.835 L64.0042 644.692 L58.657 644.692 Q61.8398 646.538 63.3994 649.37 Q64.9272 652.171 64.9272 656.118 Q64.9272 662.579 59.771 666.653 Q54.6147 670.696 46.212 670.696 Q37.8093 670.696 32.6531 666.653 Q27.4968 662.579 27.4968 656.118 Q27.4968 652.171 29.0564 649.37 Q30.5842 646.538 33.7671 644.692 M46.212 664.648 Q52.6732 664.648 56.3653 662.006 Q60.0256 659.333 60.0256 654.686 Q60.0256 650.039 56.3653 647.365 Q52.6732 644.692 46.212 644.692 Q39.7508 644.692 36.0905 647.365 Q32.3984 650.039 32.3984 654.686 Q32.3984 659.333 36.0905 662.006 Q39.7508 664.648 46.212 664.648 Z" fill="#000000" fill-rule="nonzero" fill-opacity="1" /><path clip-path="url(#clip260)" d="M44.7161 596.28 L47.5806 596.28 L47.5806 623.207 Q53.6281 622.825 56.8109 619.579 Q59.9619 616.301 59.9619 610.476 Q59.9619 607.102 59.1344 603.951 Q58.3069 600.768 56.6518 597.649 L62.1899 597.649 Q63.5267 600.8 64.227 604.11 Q64.9272 607.42 64.9272 610.826 Q64.9272 619.356 59.9619 624.353 Q54.9967 629.318 46.5303 629.318 Q37.7774 629.318 32.6531 624.608 Q27.4968 619.865 27.4968 611.845 Q27.4968 604.651 32.1438 600.482 Q36.7589 596.28 44.7161 596.28 M42.9973 602.137 Q38.1912 602.201 35.3266 604.842 Q32.4621 607.452 32.4621 611.781 Q32.4621 616.683 35.2312 619.643 Q38.0002 622.571 43.0292 623.016 L42.9973 602.137 Z" fill="#000000" fill-rule="nonzero" fill-opacity="1" /><path clip-path="url(#clip260)" d="M42.4881 557.036 L64.0042 557.036 L64.0042 562.892 L42.679 562.892 Q37.6183 562.892 35.1038 564.866 Q32.5894 566.839 32.5894 570.786 Q32.5894 575.528 35.6131 578.265 Q38.6368 581.003 43.8567 581.003 L64.0042 581.003 L64.0042 586.891 L28.3562 586.891 L28.3562 581.003 L33.8944 581.003 Q30.6797 578.902 29.0883 576.069 Q27.4968 573.205 27.4968 569.481 Q27.4968 563.338 31.3163 560.187 Q35.1038 557.036 42.4881 557.036 Z" fill="#000000" fill-rule="nonzero" fill-opacity="1" /><path clip-path="url(#clip260)" d="M29.4065 522.629 L34.9447 522.629 Q33.6716 525.112 33.035 527.785 Q32.3984 530.459 32.3984 533.324 Q32.3984 537.684 33.7352 539.88 Q35.072 542.045 37.7456 542.045 Q39.7826 542.045 40.9603 540.485 Q42.1061 538.925 43.1565 534.215 L43.6021 532.21 Q44.9389 525.971 47.3897 523.361 Q49.8086 520.719 54.1691 520.719 Q59.1344 520.719 62.0308 524.666 Q64.9272 528.581 64.9272 535.456 Q64.9272 538.321 64.3543 541.44 Q63.8132 544.527 62.6992 547.965 L56.6518 547.965 Q58.3387 544.718 59.198 541.567 Q60.0256 538.416 60.0256 535.329 Q60.0256 531.191 58.6251 528.963 Q57.1929 526.735 54.6147 526.735 Q52.2276 526.735 50.9545 528.358 Q49.6813 529.95 48.5037 535.392 L48.0262 537.429 Q46.8804 542.872 44.5251 545.291 Q42.138 547.71 38.0002 547.71 Q32.9713 547.71 30.2341 544.145 Q27.4968 540.58 27.4968 534.024 Q27.4968 530.777 27.9743 527.913 Q28.4517 525.048 29.4065 522.629 Z" fill="#000000" fill-rule="nonzero" fill-opacity="1" /><path clip-path="url(#clip260)" d="M28.3562 511.394 L28.3562 505.537 L64.0042 505.537 L64.0042 511.394 L28.3562 511.394 M14.479 511.394 L14.479 505.537 L21.895 505.537 L21.895 511.394 L14.479 511.394 Z" fill="#000000" fill-rule="nonzero" fill-opacity="1" /><path clip-path="url(#clip260)" d="M18.2347 487.49 L28.3562 487.49 L28.3562 475.427 L32.9077 475.427 L32.9077 487.49 L52.2594 487.49 Q56.6199 487.49 57.8613 486.313 Q59.1026 485.103 59.1026 481.443 L59.1026 475.427 L64.0042 475.427 L64.0042 481.443 Q64.0042 488.223 61.4897 490.801 Q58.9434 493.379 52.2594 493.379 L32.9077 493.379 L32.9077 497.676 L28.3562 497.676 L28.3562 493.379 L18.2347 493.379 L18.2347 487.49 Z" fill="#000000" fill-rule="nonzero" fill-opacity="1" /><path clip-path="url(#clip260)" d="M67.3143 452.893 Q73.68 455.376 75.6216 457.731 Q77.5631 460.086 77.5631 464.033 L77.5631 468.712 L72.6615 468.712 L72.6615 465.274 Q72.6615 462.855 71.5157 461.518 Q70.3699 460.182 66.1048 458.558 L63.4312 457.508 L28.3562 471.926 L28.3562 465.72 L56.238 454.58 L28.3562 443.44 L28.3562 437.233 L67.3143 452.893 Z" fill="#000000" fill-rule="nonzero" fill-opacity="1" /><polyline clip-path="url(#clip262)" style="stroke:#009af9; stroke-linecap:round; stroke-linejoin:round; stroke-width:4; stroke-opacity:1; fill:none" points="263.091,1384.22 375.803,1384.22 398.345,1384.22 420.887,1384.21 465.972,1384.21 511.056,1384.21 601.225,1384.23 646.309,1384.23 759.02,1384.16 781.563,1384.23 804.105,1384.23 826.647,1384.2 849.189,1384.23 871.732,1384.14 894.274,1384.14 916.816,1384.08 939.358,1383.83 961.901,1384 984.443,1384.11 1006.98,1383.97 1029.53,1383.81 1052.07,1383.68 1074.61,1383.85 1097.15,1383.48 1119.7,1383.75 1142.24,1383.54 1164.78,1382.77 1187.32,1382.9 1209.87,1383.01 1232.41,1382.8 1254.95,1382.18 1277.49,1381.92 1300.03,1380.69 1322.58,1379.73 1345.12,1380.27 1367.66,1377.57 1390.2,1376.09 1412.75,1372.63 1435.29,1372.41 1457.83,1367.93 1480.37,1362.12 1502.91,1360.7 1525.46,1354.11 1548,1344.77 1570.54,1338.12 1593.08,1324.86 1615.63,1313.97 1638.17,1302.59 1660.71,1283.32 1683.25,1264.97 1705.79,1231.83 1728.34,1200.45 1750.88,1167.78 1773.42,1126.61 1795.96,1077.39 1818.51,1034.34 1841.05,1002.69 1863.59,954.952 1886.13,930.259 1908.67,921.539 1931.22,926.133 1953.76,948.479 1976.3,999.145 1998.84,1059.84 2021.39,1126.29 2043.93,1194.39 2066.47,1247.4 2089.01,1297.15 2111.55,1335.46 2134.1,1359.4 2156.64,1370.13 2179.18,1378.2 2201.72,1381.36 2224.27,1383.21 2246.81,1383.93 2269.35,1384.21 2291.89,1384.16 "/>
<polyline clip-path="url(#clip262)" style="stroke:#e26f46; stroke-linecap:round; stroke-linejoin:round; stroke-width:4; stroke-opacity:1; fill:none" points="263.091,1384.24 375.803,1384.24 398.345,1384.24 420.887,1384.24 465.972,1384.24 511.056,1384.24 601.225,1384.23 646.309,1384.23 759.02,1384.21 781.563,1384.21 804.105,1384.2 826.647,1384.19 849.189,1384.17 871.732,1384.15 894.274,1384.13 916.816,1384.1 939.358,1384.06 961.901,1384.02 984.443,1383.96 1006.98,1383.88 1029.53,1383.78 1052.07,1383.66 1074.61,1383.5 1097.15,1383.3 1119.7,1383.05 1142.24,1382.73 1164.78,1382.32 1187.32,1381.81 1209.87,1381.16 1232.41,1380.34 1254.95,1379.29 1277.49,1377.98 1300.03,1376.31 1322.58,1374.21 1345.12,1371.56 1367.66,1368.23 1390.2,1364.03 1412.75,1358.76 1435.29,1352.14 1457.83,1343.86 1480.37,1333.52 1502.91,1320.63 1525.46,1304.61 1548,1284.77 1570.54,1260.29 1593.08,1230.23 1615.63,1193.53 1638.17,1149.01 1660.71,1095.44 1683.25,1031.61 1705.79,956.484 1728.34,869.377 1750.88,770.293 1773.42,660.316 1795.96,542.115 1818.51,420.498 1841.05,302.881 1863.59,199.463 1886.13,122.768 1908.67,86.1857 1931.22,101.306 1953.76,174.334 1976.3,302.648 1998.84,473.287 2021.39,664.924 2043.93,853.363 2066.47,1018.34 2089.01,1148.36 2111.55,1241.47 2134.1,1302.68 2156.64,1339.99 2179.18,1361.28 2201.72,1372.77 2224.27,1378.7 2246.81,1381.63 2269.35,1383.04 2291.89,1383.7 "/>
<path clip-path="url(#clip260)" d="M273.912 248.629 L823.268 248.629 L823.268 93.1086 L273.912 93.1086  Z" fill="#ffffff" fill-rule="evenodd" fill-opacity="1"/>
<polyline clip-path="url(#clip260)" style="stroke:#ffffff; stroke-linecap:round; stroke-linejoin:round; stroke-width:4; stroke-opacity:1; fill:none" points="273.912,248.629 823.268,248.629 823.268,93.1086 273.912,93.1086 273.912,248.629 "/>
<polyline clip-path="url(#clip260)" style="stroke:#009af9; stroke-linecap:round; stroke-linejoin:round; stroke-width:4; stroke-opacity:1; fill:none" points="297.807,144.949 441.175,144.949 "/>
<path clip-path="url(#clip260)" d="M465.07 127.669 L469.746 127.669 L469.746 141.835 L486.736 141.835 L486.736 127.669 L491.412 127.669 L491.412 162.229 L486.736 162.229 L486.736 145.77 L469.746 145.77 L469.746 162.229 L465.07 162.229 L465.07 127.669 Z" fill="#000000" fill-rule="nonzero" fill-opacity="1" /><path clip-path="url(#clip260)" d="M500.533 136.303 L504.792 136.303 L504.792 162.229 L500.533 162.229 L500.533 136.303 M500.533 126.21 L504.792 126.21 L504.792 131.604 L500.533 131.604 L500.533 126.21 Z" fill="#000000" fill-rule="nonzero" fill-opacity="1" /><path clip-path="url(#clip260)" d="M530.232 137.067 L530.232 141.094 Q528.426 140.169 526.482 139.706 Q524.537 139.243 522.454 139.243 Q519.283 139.243 517.685 140.215 Q516.111 141.187 516.111 143.131 Q516.111 144.613 517.245 145.469 Q518.38 146.303 521.806 147.067 L523.264 147.391 Q527.801 148.363 529.699 150.145 Q531.62 151.905 531.62 155.076 Q531.62 158.687 528.75 160.793 Q525.903 162.9 520.903 162.9 Q518.82 162.9 516.551 162.483 Q514.306 162.09 511.806 161.28 L511.806 156.881 Q514.167 158.108 516.458 158.733 Q518.75 159.335 520.995 159.335 Q524.005 159.335 525.625 158.317 Q527.245 157.275 527.245 155.4 Q527.245 153.664 526.065 152.738 Q524.907 151.812 520.949 150.956 L519.468 150.608 Q515.509 149.775 513.75 148.062 Q511.991 146.326 511.991 143.317 Q511.991 139.659 514.583 137.669 Q517.176 135.678 521.945 135.678 Q524.306 135.678 526.389 136.025 Q528.472 136.372 530.232 137.067 Z" fill="#000000" fill-rule="nonzero" fill-opacity="1" /><path clip-path="url(#clip260)" d="M542.616 128.942 L542.616 136.303 L551.389 136.303 L551.389 139.613 L542.616 139.613 L542.616 153.687 Q542.616 156.858 543.472 157.761 Q544.352 158.664 547.014 158.664 L551.389 158.664 L551.389 162.229 L547.014 162.229 Q542.083 162.229 540.208 160.4 Q538.333 158.548 538.333 153.687 L538.333 139.613 L535.208 139.613 L535.208 136.303 L538.333 136.303 L538.333 128.942 L542.616 128.942 Z" fill="#000000" fill-rule="nonzero" fill-opacity="1" /><path clip-path="url(#clip260)" d="M567.037 139.289 Q563.611 139.289 561.62 141.974 Q559.63 144.636 559.63 149.289 Q559.63 153.942 561.597 156.627 Q563.588 159.289 567.037 159.289 Q570.44 159.289 572.43 156.604 Q574.421 153.918 574.421 149.289 Q574.421 144.682 572.43 141.997 Q570.44 139.289 567.037 139.289 M567.037 135.678 Q572.592 135.678 575.764 139.289 Q578.935 142.9 578.935 149.289 Q578.935 155.655 575.764 159.289 Q572.592 162.9 567.037 162.9 Q561.458 162.9 558.287 159.289 Q555.139 155.655 555.139 149.289 Q555.139 142.9 558.287 139.289 Q561.458 135.678 567.037 135.678 Z" fill="#000000" fill-rule="nonzero" fill-opacity="1" /><path clip-path="url(#clip260)" d="M603.055 148.965 Q603.055 144.335 601.134 141.789 Q599.236 139.243 595.787 139.243 Q592.361 139.243 590.44 141.789 Q588.541 144.335 588.541 148.965 Q588.541 153.571 590.44 156.118 Q592.361 158.664 595.787 158.664 Q599.236 158.664 601.134 156.118 Q603.055 153.571 603.055 148.965 M607.314 159.011 Q607.314 165.631 604.375 168.849 Q601.435 172.09 595.37 172.09 Q593.125 172.09 591.134 171.742 Q589.143 171.418 587.268 170.724 L587.268 166.58 Q589.143 167.599 590.972 168.085 Q592.801 168.571 594.699 168.571 Q598.889 168.571 600.972 166.372 Q603.055 164.196 603.055 159.775 L603.055 157.668 Q601.736 159.96 599.676 161.094 Q597.615 162.229 594.745 162.229 Q589.977 162.229 587.06 158.594 Q584.143 154.96 584.143 148.965 Q584.143 142.946 587.06 139.312 Q589.977 135.678 594.745 135.678 Q597.615 135.678 599.676 136.812 Q601.736 137.946 603.055 140.238 L603.055 136.303 L607.314 136.303 L607.314 159.011 Z" fill="#000000" fill-rule="nonzero" fill-opacity="1" /><path clip-path="url(#clip260)" d="M631.111 140.284 Q630.393 139.868 629.537 139.682 Q628.703 139.474 627.685 139.474 Q624.074 139.474 622.129 141.835 Q620.208 144.173 620.208 148.571 L620.208 162.229 L615.926 162.229 L615.926 136.303 L620.208 136.303 L620.208 140.331 Q621.55 137.969 623.703 136.835 Q625.856 135.678 628.935 135.678 Q629.375 135.678 629.907 135.747 Q630.439 135.794 631.087 135.909 L631.111 140.284 Z" fill="#000000" fill-rule="nonzero" fill-opacity="1" /><path clip-path="url(#clip260)" d="M647.361 149.196 Q642.199 149.196 640.208 150.377 Q638.217 151.557 638.217 154.405 Q638.217 156.673 639.699 158.016 Q641.203 159.335 643.773 159.335 Q647.314 159.335 649.444 156.835 Q651.597 154.312 651.597 150.145 L651.597 149.196 L647.361 149.196 M655.856 147.437 L655.856 162.229 L651.597 162.229 L651.597 158.293 Q650.138 160.655 647.962 161.789 Q645.786 162.9 642.638 162.9 Q638.657 162.9 636.296 160.678 Q633.958 158.432 633.958 154.682 Q633.958 150.307 636.874 148.085 Q639.814 145.863 645.624 145.863 L651.597 145.863 L651.597 145.446 Q651.597 142.507 649.652 140.909 Q647.731 139.289 644.236 139.289 Q642.013 139.289 639.907 139.821 Q637.8 140.354 635.856 141.419 L635.856 137.483 Q638.194 136.581 640.393 136.141 Q642.592 135.678 644.675 135.678 Q650.3 135.678 653.078 138.594 Q655.856 141.511 655.856 147.437 Z" fill="#000000" fill-rule="nonzero" fill-opacity="1" /><path clip-path="url(#clip260)" d="M684.814 141.28 Q686.411 138.409 688.633 137.044 Q690.856 135.678 693.865 135.678 Q697.916 135.678 700.115 138.525 Q702.314 141.349 702.314 146.581 L702.314 162.229 L698.032 162.229 L698.032 146.719 Q698.032 142.993 696.712 141.187 Q695.393 139.382 692.684 139.382 Q689.374 139.382 687.453 141.581 Q685.532 143.78 685.532 147.576 L685.532 162.229 L681.249 162.229 L681.249 146.719 Q681.249 142.969 679.93 141.187 Q678.61 139.382 675.856 139.382 Q672.592 139.382 670.671 141.604 Q668.749 143.803 668.749 147.576 L668.749 162.229 L664.467 162.229 L664.467 136.303 L668.749 136.303 L668.749 140.331 Q670.208 137.946 672.245 136.812 Q674.282 135.678 677.083 135.678 Q679.907 135.678 681.874 137.113 Q683.865 138.548 684.814 141.28 Z" fill="#000000" fill-rule="nonzero" fill-opacity="1" /><polyline clip-path="url(#clip260)" style="stroke:#e26f46; stroke-linecap:round; stroke-linejoin:round; stroke-width:4; stroke-opacity:1; fill:none" points="297.807,196.789 441.175,196.789 "/>
<path clip-path="url(#clip260)" d="M469.746 183.351 L469.746 210.226 L475.394 210.226 Q482.547 210.226 485.857 206.985 Q489.19 203.745 489.19 196.754 Q489.19 189.809 485.857 186.592 Q482.547 183.351 475.394 183.351 L469.746 183.351 M465.07 179.509 L474.676 179.509 Q484.723 179.509 489.422 183.698 Q494.121 187.865 494.121 196.754 Q494.121 205.689 489.398 209.879 Q484.676 214.069 474.676 214.069 L465.07 214.069 L465.07 179.509 Z" fill="#000000" fill-rule="nonzero" fill-opacity="1" /><path clip-path="url(#clip260)" d="M501.389 188.143 L505.648 188.143 L505.648 214.069 L501.389 214.069 L501.389 188.143 M501.389 178.05 L505.648 178.05 L505.648 183.444 L501.389 183.444 L501.389 178.05 Z" fill="#000000" fill-rule="nonzero" fill-opacity="1" /><path clip-path="url(#clip260)" d="M531.088 188.907 L531.088 192.934 Q529.282 192.009 527.338 191.546 Q525.394 191.083 523.31 191.083 Q520.139 191.083 518.542 192.055 Q516.968 193.027 516.968 194.971 Q516.968 196.453 518.102 197.309 Q519.236 198.143 522.662 198.907 L524.12 199.231 Q528.657 200.203 530.556 201.985 Q532.477 203.745 532.477 206.916 Q532.477 210.527 529.607 212.633 Q526.759 214.74 521.759 214.74 Q519.676 214.74 517.408 214.323 Q515.162 213.93 512.662 213.12 L512.662 208.721 Q515.023 209.948 517.315 210.573 Q519.607 211.175 521.852 211.175 Q524.861 211.175 526.482 210.157 Q528.102 209.115 528.102 207.24 Q528.102 205.504 526.921 204.578 Q525.764 203.652 521.806 202.796 L520.324 202.448 Q516.366 201.615 514.607 199.902 Q512.847 198.166 512.847 195.157 Q512.847 191.499 515.44 189.509 Q518.033 187.518 522.801 187.518 Q525.162 187.518 527.245 187.865 Q529.329 188.212 531.088 188.907 Z" fill="#000000" fill-rule="nonzero" fill-opacity="1" /><path clip-path="url(#clip260)" d="M543.472 180.782 L543.472 188.143 L552.245 188.143 L552.245 191.453 L543.472 191.453 L543.472 205.527 Q543.472 208.698 544.329 209.601 Q545.208 210.504 547.87 210.504 L552.245 210.504 L552.245 214.069 L547.87 214.069 Q542.94 214.069 541.065 212.24 Q539.19 210.388 539.19 205.527 L539.19 191.453 L536.065 191.453 L536.065 188.143 L539.19 188.143 L539.19 180.782 L543.472 180.782 Z" fill="#000000" fill-rule="nonzero" fill-opacity="1" /><path clip-path="url(#clip260)" d="M572.87 192.124 Q572.153 191.708 571.296 191.522 Q570.463 191.314 569.444 191.314 Q565.833 191.314 563.889 193.675 Q561.967 196.013 561.967 200.411 L561.967 214.069 L557.685 214.069 L557.685 188.143 L561.967 188.143 L561.967 192.171 Q563.31 189.809 565.463 188.675 Q567.616 187.518 570.694 187.518 Q571.134 187.518 571.666 187.587 Q572.199 187.634 572.847 187.749 L572.87 192.124 Z" fill="#000000" fill-rule="nonzero" fill-opacity="1" /><path clip-path="url(#clip260)" d="M577.338 188.143 L581.597 188.143 L581.597 214.069 L577.338 214.069 L577.338 188.143 M577.338 178.05 L581.597 178.05 L581.597 183.444 L577.338 183.444 L577.338 178.05 Z" fill="#000000" fill-rule="nonzero" fill-opacity="1" /><path clip-path="url(#clip260)" d="M609.12 201.129 Q609.12 196.43 607.176 193.768 Q605.254 191.083 601.875 191.083 Q598.495 191.083 596.551 193.768 Q594.629 196.43 594.629 201.129 Q594.629 205.828 596.551 208.513 Q598.495 211.175 601.875 211.175 Q605.254 211.175 607.176 208.513 Q609.12 205.828 609.12 201.129 M594.629 192.078 Q595.972 189.763 598.009 188.652 Q600.069 187.518 602.916 187.518 Q607.639 187.518 610.578 191.268 Q613.541 195.018 613.541 201.129 Q613.541 207.24 610.578 210.99 Q607.639 214.74 602.916 214.74 Q600.069 214.74 598.009 213.629 Q595.972 212.495 594.629 210.18 L594.629 214.069 L590.347 214.069 L590.347 178.05 L594.629 178.05 L594.629 192.078 Z" fill="#000000" fill-rule="nonzero" fill-opacity="1" /><path clip-path="url(#clip260)" d="M620.162 203.837 L620.162 188.143 L624.421 188.143 L624.421 203.675 Q624.421 207.356 625.856 209.208 Q627.291 211.036 630.162 211.036 Q633.611 211.036 635.601 208.837 Q637.615 206.638 637.615 202.842 L637.615 188.143 L641.874 188.143 L641.874 214.069 L637.615 214.069 L637.615 210.087 Q636.064 212.448 634.004 213.606 Q631.967 214.74 629.259 214.74 Q624.791 214.74 622.476 211.962 Q620.162 209.184 620.162 203.837 M630.879 187.518 L630.879 187.518 Z" fill="#000000" fill-rule="nonzero" fill-opacity="1" /><path clip-path="url(#clip260)" d="M654.86 180.782 L654.86 188.143 L663.634 188.143 L663.634 191.453 L654.86 191.453 L654.86 205.527 Q654.86 208.698 655.717 209.601 Q656.597 210.504 659.259 210.504 L663.634 210.504 L663.634 214.069 L659.259 214.069 Q654.328 214.069 652.453 212.24 Q650.578 210.388 650.578 205.527 L650.578 191.453 L647.453 191.453 L647.453 188.143 L650.578 188.143 L650.578 180.782 L654.86 180.782 Z" fill="#000000" fill-rule="nonzero" fill-opacity="1" /><path clip-path="url(#clip260)" d="M669.235 188.143 L673.495 188.143 L673.495 214.069 L669.235 214.069 L669.235 188.143 M669.235 178.05 L673.495 178.05 L673.495 183.444 L669.235 183.444 L669.235 178.05 Z" fill="#000000" fill-rule="nonzero" fill-opacity="1" /><path clip-path="url(#clip260)" d="M692.453 191.129 Q689.027 191.129 687.036 193.814 Q685.046 196.476 685.046 201.129 Q685.046 205.782 687.013 208.467 Q689.004 211.129 692.453 211.129 Q695.856 211.129 697.846 208.444 Q699.837 205.758 699.837 201.129 Q699.837 196.522 697.846 193.837 Q695.856 191.129 692.453 191.129 M692.453 187.518 Q698.008 187.518 701.18 191.129 Q704.351 194.74 704.351 201.129 Q704.351 207.495 701.18 211.129 Q698.008 214.74 692.453 214.74 Q686.874 214.74 683.703 211.129 Q680.555 207.495 680.555 201.129 Q680.555 194.74 683.703 191.129 Q686.874 187.518 692.453 187.518 Z" fill="#000000" fill-rule="nonzero" fill-opacity="1" /><path clip-path="url(#clip260)" d="M732.962 198.421 L732.962 214.069 L728.703 214.069 L728.703 198.559 Q728.703 194.879 727.268 193.05 Q725.832 191.222 722.962 191.222 Q719.513 191.222 717.522 193.421 Q715.531 195.62 715.531 199.416 L715.531 214.069 L711.249 214.069 L711.249 188.143 L715.531 188.143 L715.531 192.171 Q717.059 189.833 719.119 188.675 Q721.203 187.518 723.911 187.518 Q728.379 187.518 730.67 190.296 Q732.962 193.05 732.962 198.421 Z" fill="#000000" fill-rule="nonzero" fill-opacity="1" /><path clip-path="url(#clip260)" d="M769.652 178.05 L769.652 181.592 L765.577 181.592 Q763.286 181.592 762.383 182.518 Q761.503 183.444 761.503 185.851 L761.503 188.143 L768.517 188.143 L768.517 191.453 L761.503 191.453 L761.503 214.069 L757.221 214.069 L757.221 191.453 L753.147 191.453 L753.147 188.143 L757.221 188.143 L757.221 186.337 Q757.221 182.009 759.235 180.041 Q761.249 178.05 765.624 178.05 L769.652 178.05 Z" fill="#000000" fill-rule="nonzero" fill-opacity="1" /><path clip-path="url(#clip260)" d="M773.216 188.143 L777.476 188.143 L777.476 214.069 L773.216 214.069 L773.216 188.143 M773.216 178.05 L777.476 178.05 L777.476 183.444 L773.216 183.444 L773.216 178.05 Z" fill="#000000" fill-rule="nonzero" fill-opacity="1" /><path clip-path="url(#clip260)" d="M790.6 180.782 L790.6 188.143 L799.374 188.143 L799.374 191.453 L790.6 191.453 L790.6 205.527 Q790.6 208.698 791.457 209.601 Q792.337 210.504 794.999 210.504 L799.374 210.504 L799.374 214.069 L794.999 214.069 Q790.068 214.069 788.193 212.24 Q786.318 210.388 786.318 205.527 L786.318 191.453 L783.193 191.453 L783.193 188.143 L786.318 188.143 L786.318 180.782 L790.6 180.782 Z" fill="#000000" fill-rule="nonzero" fill-opacity="1" /></svg>
