<?xml version="1.0" encoding="utf-8"?>
<svg xmlns="http://www.w3.org/2000/svg" xmlns:xlink="http://www.w3.org/1999/xlink" width="600" height="400" viewBox="0 0 2400 1600">
<defs>
  <clipPath id="clip220">
    <rect x="0" y="0" width="2400" height="1600"/>
  </clipPath>
</defs>
<path clip-path="url(#clip220)" d="M0 1600 L2400 1600 L2400 8.88178e-14 L0 8.88178e-14  Z" fill="#ffffff" fill-rule="evenodd" fill-opacity="1"/>
<defs>
  <clipPath id="clip221">
    <rect x="480" y="0" width="1681" height="1600"/>
  </clipPath>
</defs>
<path clip-path="url(#clip220)" d="M249.843 1552.76 L2352.76 1552.76 L2352.76 47.2441 L249.843 47.2441  Z" fill="#ffffff" fill-rule="evenodd" fill-opacity="1"/>
<defs>
  <clipPath id="clip222">
    <rect x="249" y="47" width="2104" height="1507"/>
  </clipPath>
</defs>
<polyline clip-path="url(#clip222)" style="stroke:#000000; stroke-linecap:round; stroke-linejoin:round; stroke-width:2; stroke-opacity:0.1; fill:none" points="249.843,1315.59 2352.76,1315.59 "/>
<polyline clip-path="url(#clip222)" style="stroke:#000000; stroke-linecap:round; stroke-linejoin:round; stroke-width:2; stroke-opacity:0.1; fill:none" points="249.843,926.465 2352.76,926.465 "/>
<polyline clip-path="url(#clip222)" style="stroke:#000000; stroke-linecap:round; stroke-linejoin:round; stroke-width:2; stroke-opacity:0.1; fill:none" points="249.843,537.343 2352.76,537.343 "/>
<polyline clip-path="url(#clip222)" style="stroke:#000000; stroke-linecap:round; stroke-linejoin:round; stroke-width:2; stroke-opacity:0.1; fill:none" points="249.843,148.221 2352.76,148.221 "/>
<polyline clip-path="url(#clip222)" style="stroke:#000000; stroke-linecap:round; stroke-linejoin:round; stroke-width:2; stroke-opacity:0.1; fill:none" points="249.843,1315.59 2352.76,1315.59 "/>
<polyline clip-path="url(#clip222)" style="stroke:#000000; stroke-linecap:round; stroke-linejoin:round; stroke-width:2; stroke-opacity:0.1; fill:none" points="249.843,926.465 2352.76,926.465 "/>
<polyline clip-path="url(#clip222)" style="stroke:#000000; stroke-linecap:round; stroke-linejoin:round; stroke-width:2; stroke-opacity:0.1; fill:none" points="249.843,537.343 2352.76,537.343 "/>
<polyline clip-path="url(#clip222)" style="stroke:#000000; stroke-linecap:round; stroke-linejoin:round; stroke-width:2; stroke-opacity:0.1; fill:none" points="249.843,148.221 2352.76,148.221 "/>
<polyline clip-path="url(#clip220)" style="stroke:#000000; stroke-linecap:round; stroke-linejoin:round; stroke-width:4; stroke-opacity:1; fill:none" points="249.843,1552.76 2352.76,1552.76 "/>
<polyline clip-path="url(#clip220)" style="stroke:#000000; stroke-linecap:round; stroke-linejoin:round; stroke-width:4; stroke-opacity:1; fill:none" points="249.843,47.2441 2352.76,47.2441 "/>
<polyline clip-path="url(#clip220)" style="stroke:#000000; stroke-linecap:round; stroke-linejoin:round; stroke-width:4; stroke-opacity:1; fill:none" points="249.843,1552.76 249.843,47.2441 "/>
<polyline clip-path="url(#clip220)" style="stroke:#000000; stroke-linecap:round; stroke-linejoin:round; stroke-width:4; stroke-opacity:1; fill:none" points="2352.76,1552.76 2352.76,47.2441 "/>
<polyline clip-path="url(#clip220)" style="stroke:#000000; stroke-linecap:round; stroke-linejoin:round; stroke-width:4; stroke-opacity:1; fill:none" points="249.843,1315.59 268.741,1315.59 "/>
<polyline clip-path="url(#clip220)" style="stroke:#000000; stroke-linecap:round; stroke-linejoin:round; stroke-width:4; stroke-opacity:1; fill:none" points="249.843,926.465 268.741,926.465 "/>
<polyline clip-path="url(#clip220)" style="stroke:#000000; stroke-linecap:round; stroke-linejoin:round; stroke-width:4; stroke-opacity:1; fill:none" points="249.843,537.343 268.741,537.343 "/>
<polyline clip-path="url(#clip220)" style="stroke:#000000; stroke-linecap:round; stroke-linejoin:round; stroke-width:4; stroke-opacity:1; fill:none" points="249.843,148.221 268.741,148.221 "/>
<polyline clip-path="url(#clip220)" style="stroke:#000000; stroke-linecap:round; stroke-linejoin:round; stroke-width:4; stroke-opacity:1; fill:none" points="2352.76,1315.59 2333.86,1315.59 "/>
<polyline clip-path="url(#clip220)" style="stroke:#000000; stroke-linecap:round; stroke-linejoin:round; stroke-width:4; stroke-opacity:1; fill:none" points="2352.76,926.465 2333.86,926.465 "/>
<polyline clip-path="url(#clip220)" style="stroke:#000000; stroke-linecap:round; stroke-linejoin:round; stroke-width:4; stroke-opacity:1; fill:none" points="2352.76,537.343 2333.86,537.343 "/>
<polyline clip-path="url(#clip220)" style="stroke:#000000; stroke-linecap:round; stroke-linejoin:round; stroke-width:4; stroke-opacity:1; fill:none" points="2352.76,148.221 2333.86,148.221 "/>
<path clip-path="url(#clip220)" d="M127.084 1313.72 Q123.936 1313.72 122.084 1315.88 Q120.255 1318.03 120.255 1321.78 Q120.255 1325.51 122.084 1327.68 Q123.936 1329.83 127.084 1329.83 Q130.232 1329.83 132.061 1327.68 Q133.913 1325.51 133.913 1321.78 Q133.913 1318.03 132.061 1315.88 Q130.232 1313.72 127.084 1313.72 M136.367 1299.07 L136.367 1303.33 Q134.607 1302.5 132.802 1302.06 Q131.019 1301.62 129.26 1301.62 Q124.63 1301.62 122.177 1304.74 Q119.746 1307.87 119.399 1314.19 Q120.765 1312.17 122.825 1311.11 Q124.885 1310.02 127.362 1310.02 Q132.57 1310.02 135.579 1313.19 Q138.612 1316.34 138.612 1321.78 Q138.612 1327.1 135.464 1330.32 Q132.316 1333.54 127.084 1333.54 Q121.089 1333.54 117.918 1328.95 Q114.746 1324.35 114.746 1315.62 Q114.746 1307.43 118.635 1302.57 Q122.524 1297.68 129.075 1297.68 Q130.834 1297.68 132.617 1298.03 Q134.422 1298.38 136.367 1299.07 Z" fill="#000000" fill-rule="nonzero" fill-opacity="1" /><path clip-path="url(#clip220)" d="M157.246 1313.72 Q154.098 1313.72 152.246 1315.88 Q150.417 1318.03 150.417 1321.78 Q150.417 1325.51 152.246 1327.68 Q154.098 1329.83 157.246 1329.83 Q160.394 1329.83 162.223 1327.68 Q164.075 1325.51 164.075 1321.78 Q164.075 1318.03 162.223 1315.88 Q160.394 1313.72 157.246 1313.72 M166.528 1299.07 L166.528 1303.33 Q164.769 1302.5 162.964 1302.06 Q161.181 1301.62 159.422 1301.62 Q154.792 1301.62 152.339 1304.74 Q149.908 1307.87 149.561 1314.19 Q150.927 1312.17 152.987 1311.11 Q155.047 1310.02 157.524 1310.02 Q162.732 1310.02 165.741 1313.19 Q168.774 1316.34 168.774 1321.78 Q168.774 1327.1 165.626 1330.32 Q162.477 1333.54 157.246 1333.54 Q151.251 1333.54 148.079 1328.95 Q144.908 1324.35 144.908 1315.62 Q144.908 1307.43 148.797 1302.57 Q152.686 1297.68 159.237 1297.68 Q160.996 1297.68 162.778 1298.03 Q164.584 1298.38 166.528 1299.07 Z" fill="#000000" fill-rule="nonzero" fill-opacity="1" /><path clip-path="url(#clip220)" d="M176.829 1326.99 L181.713 1326.99 L181.713 1332.87 L176.829 1332.87 L176.829 1326.99 Z" fill="#000000" fill-rule="nonzero" fill-opacity="1" /><path clip-path="url(#clip220)" d="M201.899 1301.38 Q198.287 1301.38 196.459 1304.95 Q194.653 1308.49 194.653 1315.62 Q194.653 1322.73 196.459 1326.29 Q198.287 1329.83 201.899 1329.83 Q205.533 1329.83 207.338 1326.29 Q209.167 1322.73 209.167 1315.62 Q209.167 1308.49 207.338 1304.95 Q205.533 1301.38 201.899 1301.38 M201.899 1297.68 Q207.709 1297.68 210.764 1302.29 Q213.843 1306.87 213.843 1315.62 Q213.843 1324.35 210.764 1328.95 Q207.709 1333.54 201.899 1333.54 Q196.088 1333.54 193.01 1328.95 Q189.954 1324.35 189.954 1315.62 Q189.954 1306.87 193.01 1302.29 Q196.088 1297.68 201.899 1297.68 Z" fill="#000000" fill-rule="nonzero" fill-opacity="1" /><path clip-path="url(#clip220)" d="M128.681 924.601 Q125.533 924.601 123.681 926.754 Q121.853 928.907 121.853 932.657 Q121.853 936.383 123.681 938.559 Q125.533 940.712 128.681 940.712 Q131.83 940.712 133.658 938.559 Q135.51 936.383 135.51 932.657 Q135.51 928.907 133.658 926.754 Q131.83 924.601 128.681 924.601 M137.964 909.948 L137.964 914.208 Q136.204 913.374 134.399 912.935 Q132.617 912.495 130.857 912.495 Q126.228 912.495 123.774 915.62 Q121.343 918.745 120.996 925.064 Q122.362 923.05 124.422 921.985 Q126.482 920.897 128.959 920.897 Q134.167 920.897 137.177 924.069 Q140.209 927.217 140.209 932.657 Q140.209 937.981 137.061 941.198 Q133.913 944.416 128.681 944.416 Q122.686 944.416 119.515 939.833 Q116.343 935.226 116.343 926.499 Q116.343 918.305 120.232 913.444 Q124.121 908.56 130.672 908.56 Q132.431 908.56 134.214 908.907 Q136.019 909.254 137.964 909.948 Z" fill="#000000" fill-rule="nonzero" fill-opacity="1" /><path clip-path="url(#clip220)" d="M158.843 924.601 Q155.695 924.601 153.843 926.754 Q152.015 928.907 152.015 932.657 Q152.015 936.383 153.843 938.559 Q155.695 940.712 158.843 940.712 Q161.991 940.712 163.82 938.559 Q165.672 936.383 165.672 932.657 Q165.672 928.907 163.82 926.754 Q161.991 924.601 158.843 924.601 M168.126 909.948 L168.126 914.208 Q166.366 913.374 164.561 912.935 Q162.778 912.495 161.019 912.495 Q156.39 912.495 153.936 915.62 Q151.505 918.745 151.158 925.064 Q152.524 923.05 154.584 921.985 Q156.644 920.897 159.121 920.897 Q164.329 920.897 167.339 924.069 Q170.371 927.217 170.371 932.657 Q170.371 937.981 167.223 941.198 Q164.075 944.416 158.843 944.416 Q152.848 944.416 149.677 939.833 Q146.505 935.226 146.505 926.499 Q146.505 918.305 150.394 913.444 Q154.283 908.56 160.834 908.56 Q162.593 908.56 164.376 908.907 Q166.181 909.254 168.126 909.948 Z" fill="#000000" fill-rule="nonzero" fill-opacity="1" /><path clip-path="url(#clip220)" d="M178.426 937.865 L183.311 937.865 L183.311 943.745 L178.426 943.745 L178.426 937.865 Z" fill="#000000" fill-rule="nonzero" fill-opacity="1" /><path clip-path="url(#clip220)" d="M197.524 939.809 L213.843 939.809 L213.843 943.745 L191.899 943.745 L191.899 939.809 Q194.561 937.055 199.144 932.425 Q203.75 927.772 204.931 926.43 Q207.176 923.907 208.056 922.171 Q208.959 920.411 208.959 918.722 Q208.959 915.967 207.014 914.231 Q205.093 912.495 201.991 912.495 Q199.792 912.495 197.338 913.259 Q194.908 914.022 192.13 915.573 L192.13 910.851 Q194.954 909.717 197.408 909.138 Q199.862 908.56 201.899 908.56 Q207.269 908.56 210.463 911.245 Q213.658 913.93 213.658 918.421 Q213.658 920.55 212.848 922.472 Q212.061 924.37 209.954 926.962 Q209.375 927.634 206.274 930.851 Q203.172 934.046 197.524 939.809 Z" fill="#000000" fill-rule="nonzero" fill-opacity="1" /><path clip-path="url(#clip220)" d="M126.598 535.479 Q123.45 535.479 121.598 537.632 Q119.769 539.785 119.769 543.535 Q119.769 547.262 121.598 549.438 Q123.45 551.59 126.598 551.59 Q129.746 551.59 131.575 549.438 Q133.427 547.262 133.427 543.535 Q133.427 539.785 131.575 537.632 Q129.746 535.479 126.598 535.479 M135.88 520.827 L135.88 525.086 Q134.121 524.253 132.316 523.813 Q130.533 523.373 128.774 523.373 Q124.144 523.373 121.691 526.498 Q119.26 529.623 118.913 535.942 Q120.279 533.929 122.339 532.864 Q124.399 531.776 126.876 531.776 Q132.084 531.776 135.093 534.947 Q138.126 538.095 138.126 543.535 Q138.126 548.859 134.978 552.077 Q131.83 555.294 126.598 555.294 Q120.603 555.294 117.431 550.711 Q114.26 546.104 114.26 537.378 Q114.26 529.183 118.149 524.322 Q122.038 519.438 128.589 519.438 Q130.348 519.438 132.13 519.785 Q133.936 520.132 135.88 520.827 Z" fill="#000000" fill-rule="nonzero" fill-opacity="1" /><path clip-path="url(#clip220)" d="M156.76 535.479 Q153.612 535.479 151.76 537.632 Q149.931 539.785 149.931 543.535 Q149.931 547.262 151.76 549.438 Q153.612 551.59 156.76 551.59 Q159.908 551.59 161.737 549.438 Q163.589 547.262 163.589 543.535 Q163.589 539.785 161.737 537.632 Q159.908 535.479 156.76 535.479 M166.042 520.827 L166.042 525.086 Q164.283 524.253 162.477 523.813 Q160.695 523.373 158.936 523.373 Q154.306 523.373 151.853 526.498 Q149.422 529.623 149.075 535.942 Q150.441 533.929 152.501 532.864 Q154.561 531.776 157.038 531.776 Q162.246 531.776 165.255 534.947 Q168.288 538.095 168.288 543.535 Q168.288 548.859 165.14 552.077 Q161.991 555.294 156.76 555.294 Q150.765 555.294 147.593 550.711 Q144.422 546.104 144.422 537.378 Q144.422 529.183 148.311 524.322 Q152.2 519.438 158.751 519.438 Q160.51 519.438 162.292 519.785 Q164.098 520.132 166.042 520.827 Z" fill="#000000" fill-rule="nonzero" fill-opacity="1" /><path clip-path="url(#clip220)" d="M176.343 548.743 L181.227 548.743 L181.227 554.623 L176.343 554.623 L176.343 548.743 Z" fill="#000000" fill-rule="nonzero" fill-opacity="1" /><path clip-path="url(#clip220)" d="M204.26 524.137 L192.454 542.586 L204.26 542.586 L204.26 524.137 M203.033 520.063 L208.912 520.063 L208.912 542.586 L213.843 542.586 L213.843 546.475 L208.912 546.475 L208.912 554.623 L204.26 554.623 L204.26 546.475 L188.658 546.475 L188.658 541.961 L203.033 520.063 Z" fill="#000000" fill-rule="nonzero" fill-opacity="1" /><path clip-path="url(#clip220)" d="M126.922 146.358 Q123.774 146.358 121.922 148.511 Q120.093 150.663 120.093 154.413 Q120.093 158.14 121.922 160.316 Q123.774 162.469 126.922 162.469 Q130.07 162.469 131.899 160.316 Q133.751 158.14 133.751 154.413 Q133.751 150.663 131.899 148.511 Q130.07 146.358 126.922 146.358 M136.204 131.705 L136.204 135.964 Q134.445 135.131 132.64 134.691 Q130.857 134.251 129.098 134.251 Q124.468 134.251 122.015 137.376 Q119.584 140.501 119.237 146.821 Q120.603 144.807 122.663 143.742 Q124.723 142.654 127.2 142.654 Q132.408 142.654 135.417 145.825 Q138.45 148.973 138.45 154.413 Q138.45 159.737 135.302 162.955 Q132.154 166.172 126.922 166.172 Q120.927 166.172 117.756 161.589 Q114.584 156.983 114.584 148.256 Q114.584 140.061 118.473 135.2 Q122.362 130.316 128.913 130.316 Q130.672 130.316 132.455 130.663 Q134.26 131.011 136.204 131.705 Z" fill="#000000" fill-rule="nonzero" fill-opacity="1" /><path clip-path="url(#clip220)" d="M157.084 146.358 Q153.936 146.358 152.084 148.511 Q150.255 150.663 150.255 154.413 Q150.255 158.14 152.084 160.316 Q153.936 162.469 157.084 162.469 Q160.232 162.469 162.061 160.316 Q163.913 158.14 163.913 154.413 Q163.913 150.663 162.061 148.511 Q160.232 146.358 157.084 146.358 M166.366 131.705 L166.366 135.964 Q164.607 135.131 162.802 134.691 Q161.019 134.251 159.26 134.251 Q154.63 134.251 152.177 137.376 Q149.746 140.501 149.399 146.821 Q150.765 144.807 152.825 143.742 Q154.885 142.654 157.362 142.654 Q162.57 142.654 165.579 145.825 Q168.612 148.973 168.612 154.413 Q168.612 159.737 165.464 162.955 Q162.315 166.172 157.084 166.172 Q151.089 166.172 147.917 161.589 Q144.746 156.983 144.746 148.256 Q144.746 140.061 148.635 135.2 Q152.524 130.316 159.075 130.316 Q160.834 130.316 162.616 130.663 Q164.422 131.011 166.366 131.705 Z" fill="#000000" fill-rule="nonzero" fill-opacity="1" /><path clip-path="url(#clip220)" d="M176.667 159.622 L181.551 159.622 L181.551 165.501 L176.667 165.501 L176.667 159.622 Z" fill="#000000" fill-rule="nonzero" fill-opacity="1" /><path clip-path="url(#clip220)" d="M202.315 146.358 Q199.167 146.358 197.315 148.511 Q195.487 150.663 195.487 154.413 Q195.487 158.14 197.315 160.316 Q199.167 162.469 202.315 162.469 Q205.463 162.469 207.292 160.316 Q209.144 158.14 209.144 154.413 Q209.144 150.663 207.292 148.511 Q205.463 146.358 202.315 146.358 M211.598 131.705 L211.598 135.964 Q209.838 135.131 208.033 134.691 Q206.25 134.251 204.491 134.251 Q199.862 134.251 197.408 137.376 Q194.977 140.501 194.63 146.821 Q195.996 144.807 198.056 143.742 Q200.116 142.654 202.593 142.654 Q207.801 142.654 210.811 145.825 Q213.843 148.973 213.843 154.413 Q213.843 159.737 210.695 162.955 Q207.547 166.172 202.315 166.172 Q196.32 166.172 193.149 161.589 Q189.977 156.983 189.977 148.256 Q189.977 140.061 193.866 135.2 Q197.755 130.316 204.306 130.316 Q206.065 130.316 207.848 130.663 Q209.653 131.011 211.598 131.705 Z" fill="#000000" fill-rule="nonzero" fill-opacity="1" /><path clip-path="url(#clip220)" d="M22.818 922.094 L46.4666 930.815 L46.4666 913.341 L22.818 922.094 M16.4842 925.723 L16.4842 918.434 L64.0042 900.324 L64.0042 907.008 L51.8138 911.336 L51.8138 932.757 L64.0042 937.085 L64.0042 943.865 L16.4842 925.723 Z" fill="#000000" fill-rule="nonzero" fill-opacity="1" /><path clip-path="url(#clip220)" d="M45.7664 870.182 Q39.4007 870.182 35.8996 872.824 Q32.3984 875.434 32.3984 880.176 Q32.3984 884.887 35.8996 887.528 Q39.4007 890.138 45.7664 890.138 Q52.1003 890.138 55.6014 887.528 Q59.1026 884.887 59.1026 880.176 Q59.1026 875.434 55.6014 872.824 Q52.1003 870.182 45.7664 870.182 M59.58 864.325 Q68.683 864.325 73.1071 868.368 Q77.5631 872.41 77.5631 880.749 Q77.5631 883.836 77.0857 886.574 Q76.6401 889.311 75.6852 891.889 L69.9879 891.889 Q71.3884 889.311 72.0568 886.796 Q72.7252 884.282 72.7252 881.672 Q72.7252 875.911 69.7015 873.046 Q66.7096 870.182 60.6303 870.182 L57.7339 870.182 Q60.885 871.996 62.4446 874.829 Q64.0042 877.662 64.0042 881.608 Q64.0042 888.165 59.0071 892.175 Q54.01 896.186 45.7664 896.186 Q37.491 896.186 32.4939 892.175 Q27.4968 888.165 27.4968 881.608 Q27.4968 877.662 29.0564 874.829 Q30.616 871.996 33.7671 870.182 L28.3562 870.182 L28.3562 864.325 L59.58 864.325 Z" fill="#000000" fill-rule="nonzero" fill-opacity="1" /><path clip-path="url(#clip220)" d="M44.7161 821.771 L47.5806 821.771 L47.5806 848.698 Q53.6281 848.316 56.8109 845.069 Q59.9619 841.791 59.9619 835.966 Q59.9619 832.592 59.1344 829.441 Q58.3069 826.259 56.6518 823.139 L62.1899 823.139 Q63.5267 826.29 64.227 829.601 Q64.9272 832.911 64.9272 836.316 Q64.9272 844.846 59.9619 849.843 Q54.9967 854.809 46.5303 854.809 Q37.7774 854.809 32.6531 850.098 Q27.4968 845.356 27.4968 837.335 Q27.4968 830.142 32.1438 825.972 Q36.7589 821.771 44.7161 821.771 M42.9973 827.627 Q38.1912 827.691 35.3266 830.333 Q32.4621 832.943 32.4621 837.271 Q32.4621 842.173 35.2312 845.133 Q38.0002 848.061 43.0292 848.507 L42.9973 827.627 Z" fill="#000000" fill-rule="nonzero" fill-opacity="1" /><path clip-path="url(#clip220)" d="M14.5426 777.37 Q21.8632 781.635 29.0246 783.704 Q36.186 785.773 43.5384 785.773 Q50.8908 785.773 58.1159 783.704 Q65.3091 781.603 72.5979 777.37 L72.5979 782.462 Q65.1182 787.237 57.8931 789.624 Q50.668 791.979 43.5384 791.979 Q36.4406 791.979 29.2474 789.624 Q22.0542 787.269 14.5426 782.462 L14.5426 777.37 Z" fill="#000000" fill-rule="nonzero" fill-opacity="1" /><path clip-path="url(#clip220)" d="M16.4842 765.752 L16.4842 756.172 L48.8219 744.045 L16.4842 731.855 L16.4842 722.275 L64.0042 722.275 L64.0042 728.545 L22.277 728.545 L54.8694 740.799 L54.8694 747.26 L22.277 759.514 L64.0042 759.514 L64.0042 765.752 L16.4842 765.752 Z" fill="#000000" fill-rule="nonzero" fill-opacity="1" /><path clip-path="url(#clip220)" d="M46.0847 693.565 Q46.0847 700.663 47.7079 703.4 Q49.3312 706.138 53.2461 706.138 Q56.3653 706.138 58.2114 704.101 Q60.0256 702.032 60.0256 698.499 Q60.0256 693.629 56.5881 690.701 Q53.1188 687.741 47.3897 687.741 L46.0847 687.741 L46.0847 693.565 M43.6657 681.884 L64.0042 681.884 L64.0042 687.741 L58.5933 687.741 Q61.8398 689.746 63.3994 692.738 Q64.9272 695.73 64.9272 700.058 Q64.9272 705.533 61.8716 708.779 Q58.7843 711.994 53.6281 711.994 Q47.6125 711.994 44.5569 707.984 Q41.5014 703.941 41.5014 695.953 L41.5014 687.741 L40.9285 687.741 Q36.8862 687.741 34.6901 690.414 Q32.4621 693.056 32.4621 697.862 Q32.4621 700.918 33.1941 703.814 Q33.9262 706.711 35.3903 709.384 L29.9795 709.384 Q28.7381 706.169 28.1334 703.146 Q27.4968 700.122 27.4968 697.257 Q27.4968 689.523 31.5072 685.704 Q35.5176 681.884 43.6657 681.884 Z" fill="#000000" fill-rule="nonzero" fill-opacity="1" /><path clip-path="url(#clip220)" d="M14.5426 670.744 L14.5426 665.652 Q22.0542 660.877 29.2474 658.522 Q36.4406 656.135 43.5384 656.135 Q50.668 656.135 57.8931 658.522 Q65.1182 660.877 72.5979 665.652 L72.5979 670.744 Q65.3091 666.511 58.1159 664.442 Q50.8908 662.342 43.5384 662.342 Q36.186 662.342 29.0246 664.442 Q21.8632 666.511 14.5426 670.744 Z" fill="#000000" fill-rule="nonzero" fill-opacity="1" /><polyline clip-path="url(#clip222)" style="stroke:#009af9; stroke-linecap:round; stroke-linejoin:round; stroke-width:4; stroke-opacity:1; fill:none" points="309.359,1510.15 309.359,498.431 "/>
<polyline clip-path="url(#clip222)" style="stroke:#009af9; stroke-linecap:round; stroke-linejoin:round; stroke-width:4; stroke-opacity:1; fill:none" points="529.79,996.506 529.79,696.883 "/>
<polyline clip-path="url(#clip222)" style="stroke:#009af9; stroke-linecap:round; stroke-linejoin:round; stroke-width:4; stroke-opacity:1; fill:none" points="750.222,877.824 750.222,698.828 "/>
<polyline clip-path="url(#clip222)" style="stroke:#009af9; stroke-linecap:round; stroke-linejoin:round; stroke-width:4; stroke-opacity:1; fill:none" points="970.653,887.552 970.653,681.318 "/>
<polyline clip-path="url(#clip222)" style="stroke:#009af9; stroke-linecap:round; stroke-linejoin:round; stroke-width:4; stroke-opacity:1; fill:none" points="1191.08,895.335 1191.08,665.753 "/>
<polyline clip-path="url(#clip222)" style="stroke:#009af9; stroke-linecap:round; stroke-linejoin:round; stroke-width:4; stroke-opacity:1; fill:none" points="1411.51,764.979 1411.51,578.201 "/>
<polyline clip-path="url(#clip222)" style="stroke:#009af9; stroke-linecap:round; stroke-linejoin:round; stroke-width:4; stroke-opacity:1; fill:none" points="1631.95,665.753 1631.95,521.778 "/>
<polyline clip-path="url(#clip222)" style="stroke:#009af9; stroke-linecap:round; stroke-linejoin:round; stroke-width:4; stroke-opacity:1; fill:none" points="1852.38,691.046 1852.38,469.247 "/>
<polyline clip-path="url(#clip222)" style="stroke:#009af9; stroke-linecap:round; stroke-linejoin:round; stroke-width:4; stroke-opacity:1; fill:none" points="2072.81,584.037 2072.81,280.523 "/>
<polyline clip-path="url(#clip222)" style="stroke:#009af9; stroke-linecap:round; stroke-linejoin:round; stroke-width:4; stroke-opacity:1; fill:none" points="2293.24,712.448 2293.24,89.8529 "/>
<line clip-path="url(#clip222)" x1="325.359" y1="1510.15" x2="293.359" y2="1510.15" style="stroke:#009af9; stroke-width:4; stroke-opacity:1"/>
<line clip-path="url(#clip222)" x1="325.359" y1="498.431" x2="293.359" y2="498.431" style="stroke:#009af9; stroke-width:4; stroke-opacity:1"/>
<line clip-path="url(#clip222)" x1="545.79" y1="996.506" x2="513.79" y2="996.506" style="stroke:#009af9; stroke-width:4; stroke-opacity:1"/>
<line clip-path="url(#clip222)" x1="545.79" y1="696.883" x2="513.79" y2="696.883" style="stroke:#009af9; stroke-width:4; stroke-opacity:1"/>
<line clip-path="url(#clip222)" x1="766.222" y1="877.824" x2="734.222" y2="877.824" style="stroke:#009af9; stroke-width:4; stroke-opacity:1"/>
<line clip-path="url(#clip222)" x1="766.222" y1="698.828" x2="734.222" y2="698.828" style="stroke:#009af9; stroke-width:4; stroke-opacity:1"/>
<line clip-path="url(#clip222)" x1="986.653" y1="887.552" x2="954.653" y2="887.552" style="stroke:#009af9; stroke-width:4; stroke-opacity:1"/>
<line clip-path="url(#clip222)" x1="986.653" y1="681.318" x2="954.653" y2="681.318" style="stroke:#009af9; stroke-width:4; stroke-opacity:1"/>
<line clip-path="url(#clip222)" x1="1207.08" y1="895.335" x2="1175.08" y2="895.335" style="stroke:#009af9; stroke-width:4; stroke-opacity:1"/>
<line clip-path="url(#clip222)" x1="1207.08" y1="665.753" x2="1175.08" y2="665.753" style="stroke:#009af9; stroke-width:4; stroke-opacity:1"/>
<line clip-path="url(#clip222)" x1="1427.51" y1="764.979" x2="1395.51" y2="764.979" style="stroke:#009af9; stroke-width:4; stroke-opacity:1"/>
<line clip-path="url(#clip222)" x1="1427.51" y1="578.201" x2="1395.51" y2="578.201" style="stroke:#009af9; stroke-width:4; stroke-opacity:1"/>
<line clip-path="url(#clip222)" x1="1647.95" y1="665.753" x2="1615.95" y2="665.753" style="stroke:#009af9; stroke-width:4; stroke-opacity:1"/>
<line clip-path="url(#clip222)" x1="1647.95" y1="521.778" x2="1615.95" y2="521.778" style="stroke:#009af9; stroke-width:4; stroke-opacity:1"/>
<line clip-path="url(#clip222)" x1="1868.38" y1="691.046" x2="1836.38" y2="691.046" style="stroke:#009af9; stroke-width:4; stroke-opacity:1"/>
<line clip-path="url(#clip222)" x1="1868.38" y1="469.247" x2="1836.38" y2="469.247" style="stroke:#009af9; stroke-width:4; stroke-opacity:1"/>
<line clip-path="url(#clip222)" x1="2088.81" y1="584.037" x2="2056.81" y2="584.037" style="stroke:#009af9; stroke-width:4; stroke-opacity:1"/>
<line clip-path="url(#clip222)" x1="2088.81" y1="280.523" x2="2056.81" y2="280.523" style="stroke:#009af9; stroke-width:4; stroke-opacity:1"/>
<line clip-path="url(#clip222)" x1="2309.24" y1="712.448" x2="2277.24" y2="712.448" style="stroke:#009af9; stroke-width:4; stroke-opacity:1"/>
<line clip-path="url(#clip222)" x1="2309.24" y1="89.8529" x2="2277.24" y2="89.8529" style="stroke:#009af9; stroke-width:4; stroke-opacity:1"/>
<circle clip-path="url(#clip222)" cx="309.359" cy="1004.29" r="14.4" fill="#009af9" fill-rule="evenodd" fill-opacity="1" stroke="none"/>
<circle clip-path="url(#clip222)" cx="529.79" cy="846.695" r="14.4" fill="#009af9" fill-rule="evenodd" fill-opacity="1" stroke="none"/>
<circle clip-path="url(#clip222)" cx="750.222" cy="788.326" r="14.4" fill="#009af9" fill-rule="evenodd" fill-opacity="1" stroke="none"/>
<circle clip-path="url(#clip222)" cx="970.653" cy="784.435" r="14.4" fill="#009af9" fill-rule="evenodd" fill-opacity="1" stroke="none"/>
<circle clip-path="url(#clip222)" cx="1191.08" cy="780.544" r="14.4" fill="#009af9" fill-rule="evenodd" fill-opacity="1" stroke="none"/>
<circle clip-path="url(#clip222)" cx="1411.51" cy="671.59" r="14.4" fill="#009af9" fill-rule="evenodd" fill-opacity="1" stroke="none"/>
<circle clip-path="url(#clip222)" cx="1631.95" cy="593.766" r="14.4" fill="#009af9" fill-rule="evenodd" fill-opacity="1" stroke="none"/>
<circle clip-path="url(#clip222)" cx="1852.38" cy="580.146" r="14.4" fill="#009af9" fill-rule="evenodd" fill-opacity="1" stroke="none"/>
<circle clip-path="url(#clip222)" cx="2072.81" cy="432.28" r="14.4" fill="#009af9" fill-rule="evenodd" fill-opacity="1" stroke="none"/>
<circle clip-path="url(#clip222)" cx="2293.24" cy="401.15" r="14.4" fill="#009af9" fill-rule="evenodd" fill-opacity="1" stroke="none"/>
<path clip-path="url(#clip222)" d="M309.359 983.049 L529.79 983.049 L750.222 983.049 L970.653 983.049 L1191.08 983.049 L1411.51 983.049 L1631.95 983.049 L1852.38 983.049 L2072.81 983.049 L2293.24 983.049 L2293.24 762.597 L2072.81 762.597 L1852.38 762.597 L1631.95 762.597 L1411.51 762.597 L1191.08 762.597 L970.653 762.597 L750.222 762.597 L529.79 762.597 L309.359 762.597  Z" fill="#e26f46" fill-rule="evenodd" fill-opacity="0.6"/>
<polyline clip-path="url(#clip222)" style="stroke:#e26f46; stroke-linecap:round; stroke-linejoin:round; stroke-width:4; stroke-opacity:0; fill:none" points="309.359,983.049 529.79,983.049 750.222,983.049 970.653,983.049 1191.08,983.049 1411.51,983.049 1631.95,983.049 1852.38,983.049 2072.81,983.049 2293.24,983.049 "/>
<polyline clip-path="url(#clip222)" style="stroke:#000000; stroke-linecap:round; stroke-linejoin:round; stroke-width:4; stroke-opacity:1; fill:none" stroke-dasharray="2, 4" points="309.359,850.89 529.79,850.89 750.222,850.89 970.653,850.89 1191.08,850.89 1411.51,850.89 1631.95,850.89 1852.38,850.89 2072.81,850.89 2293.24,850.89 "/>
<path clip-path="url(#clip220)" d="M319.94 252.948 L1326.11 252.948 L1326.11 97.4278 L319.94 97.4278  Z" fill="#ffffff" fill-rule="evenodd" fill-opacity="1"/>
<polyline clip-path="url(#clip220)" style="stroke:#ffffff; stroke-linecap:round; stroke-linejoin:round; stroke-width:4; stroke-opacity:1; fill:none" points="319.94,252.948 1326.11,252.948 1326.11,97.4278 319.94,97.4278 319.94,252.948 "/>
<circle clip-path="url(#clip220)" cx="413.403" cy="149.268" r="20.48" fill="#009af9" fill-rule="evenodd" fill-opacity="1" stroke="none"/>
<path clip-path="url(#clip220)" d="M511.542 135.83 L511.542 162.705 L517.19 162.705 Q524.342 162.705 527.653 159.465 Q530.986 156.224 530.986 149.233 Q530.986 142.289 527.653 139.071 Q524.342 135.83 517.19 135.83 L511.542 135.83 M506.866 131.988 L516.472 131.988 Q526.518 131.988 531.217 136.178 Q535.916 140.344 535.916 149.233 Q535.916 158.168 531.194 162.358 Q526.472 166.548 516.472 166.548 L506.866 166.548 L506.866 131.988 Z" fill="#000000" fill-rule="nonzero" fill-opacity="1" /><path clip-path="url(#clip220)" d="M554.967 153.515 Q549.805 153.515 547.815 154.696 Q545.824 155.877 545.824 158.724 Q545.824 160.992 547.305 162.335 Q548.81 163.654 551.379 163.654 Q554.921 163.654 557.051 161.154 Q559.203 158.631 559.203 154.465 L559.203 153.515 L554.967 153.515 M563.463 151.756 L563.463 166.548 L559.203 166.548 L559.203 162.613 Q557.745 164.974 555.569 166.108 Q553.393 167.219 550.245 167.219 Q546.264 167.219 543.902 164.997 Q541.565 162.752 541.565 159.002 Q541.565 154.627 544.481 152.404 Q547.421 150.182 553.231 150.182 L559.203 150.182 L559.203 149.766 Q559.203 146.826 557.259 145.228 Q555.338 143.608 551.842 143.608 Q549.62 143.608 547.514 144.141 Q545.407 144.673 543.463 145.738 L543.463 141.803 Q545.801 140.9 548 140.46 Q550.199 139.997 552.282 139.997 Q557.907 139.997 560.685 142.914 Q563.463 145.83 563.463 151.756 Z" fill="#000000" fill-rule="nonzero" fill-opacity="1" /><path clip-path="url(#clip220)" d="M576.449 133.261 L576.449 140.622 L585.222 140.622 L585.222 143.932 L576.449 143.932 L576.449 158.006 Q576.449 161.177 577.305 162.08 Q578.185 162.983 580.847 162.983 L585.222 162.983 L585.222 166.548 L580.847 166.548 Q575.916 166.548 574.041 164.719 Q572.166 162.867 572.166 158.006 L572.166 143.932 L569.041 143.932 L569.041 140.622 L572.166 140.622 L572.166 133.261 L576.449 133.261 Z" fill="#000000" fill-rule="nonzero" fill-opacity="1" /><path clip-path="url(#clip220)" d="M602.606 153.515 Q597.444 153.515 595.453 154.696 Q593.462 155.877 593.462 158.724 Q593.462 160.992 594.944 162.335 Q596.449 163.654 599.018 163.654 Q602.56 163.654 604.689 161.154 Q606.842 158.631 606.842 154.465 L606.842 153.515 L602.606 153.515 M611.101 151.756 L611.101 166.548 L606.842 166.548 L606.842 162.613 Q605.384 164.974 603.208 166.108 Q601.032 167.219 597.884 167.219 Q593.902 167.219 591.541 164.997 Q589.203 162.752 589.203 159.002 Q589.203 154.627 592.12 152.404 Q595.06 150.182 600.87 150.182 L606.842 150.182 L606.842 149.766 Q606.842 146.826 604.898 145.228 Q602.976 143.608 599.481 143.608 Q597.259 143.608 595.152 144.141 Q593.046 144.673 591.101 145.738 L591.101 141.803 Q593.439 140.9 595.638 140.46 Q597.837 139.997 599.921 139.997 Q605.546 139.997 608.323 142.914 Q611.101 145.83 611.101 151.756 Z" fill="#000000" fill-rule="nonzero" fill-opacity="1" /><path clip-path="url(#clip220)" d="M645.175 130.576 Q642.073 135.9 640.569 141.108 Q639.064 146.316 639.064 151.664 Q639.064 157.011 640.569 162.265 Q642.096 167.497 645.175 172.798 L641.471 172.798 Q637.999 167.358 636.263 162.103 Q634.55 156.849 634.55 151.664 Q634.55 146.502 636.263 141.27 Q637.976 136.039 641.471 130.576 L645.175 130.576 Z" fill="#000000" fill-rule="nonzero" fill-opacity="1" /><path clip-path="url(#clip220)" d="M663.485 143.608 Q660.059 143.608 658.069 146.293 Q656.078 148.955 656.078 153.608 Q656.078 158.261 658.045 160.946 Q660.036 163.608 663.485 163.608 Q666.888 163.608 668.879 160.923 Q670.869 158.238 670.869 153.608 Q670.869 149.002 668.879 146.316 Q666.888 143.608 663.485 143.608 M663.485 139.997 Q669.041 139.997 672.212 143.608 Q675.383 147.219 675.383 153.608 Q675.383 159.974 672.212 163.608 Q669.041 167.219 663.485 167.219 Q657.907 167.219 654.735 163.608 Q651.587 159.974 651.587 153.608 Q651.587 147.219 654.735 143.608 Q657.907 139.997 663.485 139.997 Z" fill="#000000" fill-rule="nonzero" fill-opacity="1" /><path clip-path="url(#clip220)" d="M701.054 153.608 Q701.054 148.909 699.11 146.247 Q697.189 143.562 693.809 143.562 Q690.429 143.562 688.485 146.247 Q686.564 148.909 686.564 153.608 Q686.564 158.307 688.485 160.992 Q690.429 163.654 693.809 163.654 Q697.189 163.654 699.11 160.992 Q701.054 158.307 701.054 153.608 M686.564 144.557 Q687.906 142.242 689.943 141.131 Q692.004 139.997 694.851 139.997 Q699.573 139.997 702.513 143.747 Q705.476 147.497 705.476 153.608 Q705.476 159.719 702.513 163.469 Q699.573 167.219 694.851 167.219 Q692.004 167.219 689.943 166.108 Q687.906 164.974 686.564 162.659 L686.564 166.548 L682.281 166.548 L682.281 130.529 L686.564 130.529 L686.564 144.557 Z" fill="#000000" fill-rule="nonzero" fill-opacity="1" /><path clip-path="url(#clip220)" d="M729.064 141.386 L729.064 145.414 Q727.258 144.488 725.314 144.025 Q723.369 143.562 721.286 143.562 Q718.115 143.562 716.517 144.534 Q714.943 145.506 714.943 147.451 Q714.943 148.932 716.077 149.789 Q717.212 150.622 720.638 151.386 L722.096 151.71 Q726.633 152.682 728.531 154.465 Q730.452 156.224 730.452 159.395 Q730.452 163.006 727.582 165.113 Q724.735 167.219 719.735 167.219 Q717.652 167.219 715.383 166.802 Q713.138 166.409 710.638 165.599 L710.638 161.201 Q712.999 162.427 715.29 163.052 Q717.582 163.654 719.827 163.654 Q722.837 163.654 724.457 162.636 Q726.077 161.594 726.077 159.719 Q726.077 157.983 724.897 157.057 Q723.739 156.131 719.781 155.275 L718.3 154.928 Q714.341 154.094 712.582 152.381 Q710.823 150.645 710.823 147.636 Q710.823 143.978 713.415 141.988 Q716.008 139.997 720.777 139.997 Q723.138 139.997 725.221 140.344 Q727.304 140.691 729.064 141.386 Z" fill="#000000" fill-rule="nonzero" fill-opacity="1" /><path clip-path="url(#clip220)" d="M759.411 152.52 L759.411 154.603 L739.827 154.603 Q740.105 159.002 742.466 161.316 Q744.85 163.608 749.087 163.608 Q751.54 163.608 753.832 163.006 Q756.147 162.404 758.415 161.201 L758.415 165.228 Q756.124 166.201 753.716 166.71 Q751.309 167.219 748.832 167.219 Q742.628 167.219 738.994 163.608 Q735.383 159.997 735.383 153.84 Q735.383 147.474 738.809 143.747 Q742.258 139.997 748.091 139.997 Q753.323 139.997 756.355 143.377 Q759.411 146.733 759.411 152.52 M755.151 151.27 Q755.105 147.775 753.184 145.691 Q751.286 143.608 748.138 143.608 Q744.573 143.608 742.42 145.622 Q740.29 147.636 739.966 151.293 L755.151 151.27 Z" fill="#000000" fill-rule="nonzero" fill-opacity="1" /><path clip-path="url(#clip220)" d="M781.424 144.603 Q780.707 144.187 779.85 144.002 Q779.017 143.793 777.998 143.793 Q774.387 143.793 772.443 146.154 Q770.522 148.492 770.522 152.89 L770.522 166.548 L766.239 166.548 L766.239 140.622 L770.522 140.622 L770.522 144.65 Q771.864 142.289 774.017 141.154 Q776.17 139.997 779.248 139.997 Q779.688 139.997 780.221 140.066 Q780.753 140.113 781.401 140.229 L781.424 144.603 Z" fill="#000000" fill-rule="nonzero" fill-opacity="1" /><path clip-path="url(#clip220)" d="M782.836 140.622 L787.35 140.622 L795.452 162.381 L803.554 140.622 L808.068 140.622 L798.346 166.548 L792.559 166.548 L782.836 140.622 Z" fill="#000000" fill-rule="nonzero" fill-opacity="1" /><path clip-path="url(#clip220)" d="M836.123 152.52 L836.123 154.603 L816.54 154.603 Q816.818 159.002 819.179 161.316 Q821.563 163.608 825.799 163.608 Q828.253 163.608 830.544 163.006 Q832.859 162.404 835.128 161.201 L835.128 165.228 Q832.836 166.201 830.429 166.71 Q828.021 167.219 825.544 167.219 Q819.341 167.219 815.707 163.608 Q812.095 159.997 812.095 153.84 Q812.095 147.474 815.521 143.747 Q818.97 139.997 824.804 139.997 Q830.035 139.997 833.068 143.377 Q836.123 146.733 836.123 152.52 M831.864 151.27 Q831.818 147.775 829.896 145.691 Q827.998 143.608 824.85 143.608 Q821.285 143.608 819.132 145.622 Q817.003 147.636 816.679 151.293 L831.864 151.27 Z" fill="#000000" fill-rule="nonzero" fill-opacity="1" /><path clip-path="url(#clip220)" d="M860.174 144.557 L860.174 130.529 L864.433 130.529 L864.433 166.548 L860.174 166.548 L860.174 162.659 Q858.831 164.974 856.771 166.108 Q854.734 167.219 851.864 167.219 Q847.165 167.219 844.202 163.469 Q841.262 159.719 841.262 153.608 Q841.262 147.497 844.202 143.747 Q847.165 139.997 851.864 139.997 Q854.734 139.997 856.771 141.131 Q858.831 142.242 860.174 144.557 M845.66 153.608 Q845.66 158.307 847.581 160.992 Q849.526 163.654 852.905 163.654 Q856.285 163.654 858.23 160.992 Q860.174 158.307 860.174 153.608 Q860.174 148.909 858.23 146.247 Q856.285 143.562 852.905 143.562 Q849.526 143.562 847.581 146.247 Q845.66 148.909 845.66 153.608 Z" fill="#000000" fill-rule="nonzero" fill-opacity="1" /><path clip-path="url(#clip220)" d="M900.058 153.515 Q894.896 153.515 892.905 154.696 Q890.915 155.877 890.915 158.724 Q890.915 160.992 892.396 162.335 Q893.901 163.654 896.47 163.654 Q900.012 163.654 902.141 161.154 Q904.294 158.631 904.294 154.465 L904.294 153.515 L900.058 153.515 M908.553 151.756 L908.553 166.548 L904.294 166.548 L904.294 162.613 Q902.836 164.974 900.66 166.108 Q898.484 167.219 895.336 167.219 Q891.354 167.219 888.993 164.997 Q886.655 162.752 886.655 159.002 Q886.655 154.627 889.572 152.404 Q892.512 150.182 898.322 150.182 L904.294 150.182 L904.294 149.766 Q904.294 146.826 902.35 145.228 Q900.428 143.608 896.933 143.608 Q894.711 143.608 892.604 144.141 Q890.498 144.673 888.553 145.738 L888.553 141.803 Q890.891 140.9 893.09 140.46 Q895.289 139.997 897.373 139.997 Q902.998 139.997 905.776 142.914 Q908.553 145.83 908.553 151.756 Z" fill="#000000" fill-rule="nonzero" fill-opacity="1" /><path clip-path="url(#clip220)" d="M934.387 153.284 Q934.387 148.654 932.465 146.108 Q930.567 143.562 927.118 143.562 Q923.692 143.562 921.771 146.108 Q919.873 148.654 919.873 153.284 Q919.873 157.89 921.771 160.437 Q923.692 162.983 927.118 162.983 Q930.567 162.983 932.465 160.437 Q934.387 157.89 934.387 153.284 M938.646 163.33 Q938.646 169.951 935.706 173.168 Q932.766 176.409 926.701 176.409 Q924.456 176.409 922.465 176.062 Q920.475 175.738 918.6 175.043 L918.6 170.9 Q920.475 171.918 922.303 172.404 Q924.132 172.89 926.03 172.89 Q930.22 172.89 932.303 170.691 Q934.387 168.515 934.387 164.094 L934.387 161.988 Q933.067 164.279 931.007 165.414 Q928.947 166.548 926.076 166.548 Q921.308 166.548 918.391 162.914 Q915.475 159.279 915.475 153.284 Q915.475 147.266 918.391 143.631 Q921.308 139.997 926.076 139.997 Q928.947 139.997 931.007 141.131 Q933.067 142.266 934.387 144.557 L934.387 140.622 L938.646 140.622 L938.646 163.33 Z" fill="#000000" fill-rule="nonzero" fill-opacity="1" /><path clip-path="url(#clip220)" d="M969.595 152.52 L969.595 154.603 L950.011 154.603 Q950.289 159.002 952.65 161.316 Q955.035 163.608 959.271 163.608 Q961.724 163.608 964.016 163.006 Q966.331 162.404 968.599 161.201 L968.599 165.228 Q966.308 166.201 963.9 166.71 Q961.493 167.219 959.016 167.219 Q952.812 167.219 949.178 163.608 Q945.567 159.997 945.567 153.84 Q945.567 147.474 948.993 143.747 Q952.442 139.997 958.275 139.997 Q963.507 139.997 966.539 143.377 Q969.595 146.733 969.595 152.52 M965.335 151.27 Q965.289 147.775 963.368 145.691 Q961.47 143.608 958.322 143.608 Q954.757 143.608 952.604 145.622 Q950.474 147.636 950.15 151.293 L965.335 151.27 Z" fill="#000000" fill-rule="nonzero" fill-opacity="1" /><path clip-path="url(#clip220)" d="M993.113 141.386 L993.113 145.414 Q991.307 144.488 989.363 144.025 Q987.419 143.562 985.335 143.562 Q982.164 143.562 980.567 144.534 Q978.993 145.506 978.993 147.451 Q978.993 148.932 980.127 149.789 Q981.261 150.622 984.687 151.386 L986.145 151.71 Q990.683 152.682 992.581 154.465 Q994.502 156.224 994.502 159.395 Q994.502 163.006 991.632 165.113 Q988.784 167.219 983.784 167.219 Q981.701 167.219 979.433 166.802 Q977.187 166.409 974.687 165.599 L974.687 161.201 Q977.048 162.427 979.34 163.052 Q981.632 163.654 983.877 163.654 Q986.886 163.654 988.507 162.636 Q990.127 161.594 990.127 159.719 Q990.127 157.983 988.946 157.057 Q987.789 156.131 983.831 155.275 L982.349 154.928 Q978.391 154.094 976.632 152.381 Q974.872 150.645 974.872 147.636 Q974.872 143.978 977.465 141.988 Q980.058 139.997 984.826 139.997 Q987.187 139.997 989.27 140.344 Q991.354 140.691 993.113 141.386 Z" fill="#000000" fill-rule="nonzero" fill-opacity="1" /><path clip-path="url(#clip220)" d="M1000.61 130.576 L1004.32 130.576 Q1007.79 136.039 1009.5 141.27 Q1011.24 146.502 1011.24 151.664 Q1011.24 156.849 1009.5 162.103 Q1007.79 167.358 1004.32 172.798 L1000.61 172.798 Q1003.69 167.497 1005.2 162.265 Q1006.72 157.011 1006.72 151.664 Q1006.72 146.316 1005.2 141.108 Q1003.69 135.9 1000.61 130.576 Z" fill="#000000" fill-rule="nonzero" fill-opacity="1" /><path clip-path="url(#clip220)" d="M343.306 221.844 L483.5 221.844 L483.5 180.372 L343.306 180.372 L343.306 221.844  Z" fill="#e26f46" fill-rule="evenodd" fill-opacity="0.6"/>
<polyline clip-path="url(#clip220)" style="stroke:#e26f46; stroke-linecap:round; stroke-linejoin:round; stroke-width:4; stroke-opacity:0; fill:none" points="343.306,180.372 483.5,180.372 "/>
<path clip-path="url(#clip220)" d="M506.866 183.828 L513.833 183.828 L522.653 207.346 L531.518 183.828 L538.486 183.828 L538.486 218.388 L533.926 218.388 L533.926 188.041 L525.014 211.744 L520.315 211.744 L511.403 188.041 L511.403 218.388 L506.866 218.388 L506.866 183.828 Z" fill="#000000" fill-rule="nonzero" fill-opacity="1" /><path clip-path="url(#clip220)" d="M557.629 195.448 Q554.203 195.448 552.213 198.133 Q550.222 200.795 550.222 205.448 Q550.222 210.101 552.189 212.786 Q554.18 215.448 557.629 215.448 Q561.032 215.448 563.023 212.763 Q565.013 210.078 565.013 205.448 Q565.013 200.842 563.023 198.156 Q561.032 195.448 557.629 195.448 M557.629 191.837 Q563.185 191.837 566.356 195.448 Q569.527 199.059 569.527 205.448 Q569.527 211.814 566.356 215.448 Q563.185 219.059 557.629 219.059 Q552.051 219.059 548.879 215.448 Q545.731 211.814 545.731 205.448 Q545.731 199.059 548.879 195.448 Q552.051 191.837 557.629 191.837 Z" fill="#000000" fill-rule="nonzero" fill-opacity="1" /><path clip-path="url(#clip220)" d="M593.648 196.397 L593.648 182.369 L597.907 182.369 L597.907 218.388 L593.648 218.388 L593.648 214.499 Q592.305 216.814 590.245 217.948 Q588.208 219.059 585.337 219.059 Q580.638 219.059 577.675 215.309 Q574.736 211.559 574.736 205.448 Q574.736 199.337 577.675 195.587 Q580.638 191.837 585.337 191.837 Q588.208 191.837 590.245 192.971 Q592.305 194.082 593.648 196.397 M579.134 205.448 Q579.134 210.147 581.055 212.832 Q583 215.494 586.379 215.494 Q589.759 215.494 591.703 212.832 Q593.648 210.147 593.648 205.448 Q593.648 200.749 591.703 198.087 Q589.759 195.402 586.379 195.402 Q583 195.402 581.055 198.087 Q579.134 200.749 579.134 205.448 Z" fill="#000000" fill-rule="nonzero" fill-opacity="1" /><path clip-path="url(#clip220)" d="M628.856 204.36 L628.856 206.443 L609.273 206.443 Q609.55 210.842 611.911 213.156 Q614.296 215.448 618.532 215.448 Q620.985 215.448 623.277 214.846 Q625.592 214.244 627.86 213.041 L627.86 217.068 Q625.569 218.041 623.161 218.55 Q620.754 219.059 618.277 219.059 Q612.073 219.059 608.439 215.448 Q604.828 211.837 604.828 205.68 Q604.828 199.314 608.254 195.587 Q611.703 191.837 617.536 191.837 Q622.768 191.837 625.8 195.217 Q628.856 198.573 628.856 204.36 M624.597 203.11 Q624.55 199.615 622.629 197.531 Q620.731 195.448 617.583 195.448 Q614.018 195.448 611.865 197.462 Q609.735 199.476 609.411 203.133 L624.597 203.11 Z" fill="#000000" fill-rule="nonzero" fill-opacity="1" /><path clip-path="url(#clip220)" d="M635.846 182.369 L640.106 182.369 L640.106 218.388 L635.846 218.388 L635.846 182.369 Z" fill="#000000" fill-rule="nonzero" fill-opacity="1" /><path clip-path="url(#clip220)" d="M674.318 182.416 Q671.217 187.74 669.712 192.948 Q668.207 198.156 668.207 203.504 Q668.207 208.851 669.712 214.105 Q671.24 219.337 674.318 224.638 L670.615 224.638 Q667.143 219.198 665.406 213.943 Q663.694 208.689 663.694 203.504 Q663.694 198.342 665.406 193.11 Q667.119 187.879 670.615 182.416 L674.318 182.416 Z" fill="#000000" fill-rule="nonzero" fill-opacity="1" /><path clip-path="url(#clip220)" d="M693.763 199.244 Q690.615 199.244 688.763 201.397 Q686.934 203.55 686.934 207.3 Q686.934 211.027 688.763 213.203 Q690.615 215.355 693.763 215.355 Q696.911 215.355 698.74 213.203 Q700.591 211.027 700.591 207.3 Q700.591 203.55 698.74 201.397 Q696.911 199.244 693.763 199.244 M703.045 184.592 L703.045 188.851 Q701.286 188.018 699.48 187.578 Q697.698 187.138 695.939 187.138 Q691.309 187.138 688.855 190.263 Q686.425 193.388 686.078 199.707 Q687.443 197.693 689.504 196.629 Q691.564 195.541 694.041 195.541 Q699.249 195.541 702.258 198.712 Q705.291 201.86 705.291 207.3 Q705.291 212.624 702.142 215.842 Q698.994 219.059 693.763 219.059 Q687.767 219.059 684.596 214.476 Q681.425 209.869 681.425 201.143 Q681.425 192.948 685.314 188.087 Q689.203 183.203 695.754 183.203 Q697.513 183.203 699.295 183.55 Q701.101 183.897 703.045 184.592 Z" fill="#000000" fill-rule="nonzero" fill-opacity="1" /><path clip-path="url(#clip220)" d="M723.925 199.244 Q720.777 199.244 718.925 201.397 Q717.096 203.55 717.096 207.3 Q717.096 211.027 718.925 213.203 Q720.777 215.355 723.925 215.355 Q727.073 215.355 728.901 213.203 Q730.753 211.027 730.753 207.3 Q730.753 203.55 728.901 201.397 Q727.073 199.244 723.925 199.244 M733.207 184.592 L733.207 188.851 Q731.448 188.018 729.642 187.578 Q727.86 187.138 726.101 187.138 Q721.471 187.138 719.017 190.263 Q716.587 193.388 716.24 199.707 Q717.605 197.693 719.665 196.629 Q721.726 195.541 724.202 195.541 Q729.411 195.541 732.42 198.712 Q735.452 201.86 735.452 207.3 Q735.452 212.624 732.304 215.842 Q729.156 219.059 723.925 219.059 Q717.929 219.059 714.758 214.476 Q711.587 209.869 711.587 201.143 Q711.587 192.948 715.476 188.087 Q719.365 183.203 725.915 183.203 Q727.675 183.203 729.457 183.55 Q731.263 183.897 733.207 184.592 Z" fill="#000000" fill-rule="nonzero" fill-opacity="1" /><path clip-path="url(#clip220)" d="M743.508 212.508 L748.392 212.508 L748.392 218.388 L743.508 218.388 L743.508 212.508 Z" fill="#000000" fill-rule="nonzero" fill-opacity="1" /><path clip-path="url(#clip220)" d="M762.605 214.453 L778.924 214.453 L778.924 218.388 L756.98 218.388 L756.98 214.453 Q759.642 211.698 764.225 207.068 Q768.832 202.416 770.012 201.073 Q772.258 198.55 773.137 196.814 Q774.04 195.055 774.04 193.365 Q774.04 190.61 772.096 188.874 Q770.174 187.138 767.073 187.138 Q764.874 187.138 762.42 187.902 Q759.989 188.666 757.212 190.217 L757.212 185.494 Q760.036 184.36 762.489 183.782 Q764.943 183.203 766.98 183.203 Q772.35 183.203 775.545 185.888 Q778.739 188.573 778.739 193.064 Q778.739 195.194 777.929 197.115 Q777.142 199.013 775.036 201.606 Q774.457 202.277 771.355 205.494 Q768.253 208.689 762.605 214.453 Z" fill="#000000" fill-rule="nonzero" fill-opacity="1" /><path clip-path="url(#clip220)" d="M802.906 199.754 Q806.262 200.471 808.137 202.74 Q810.035 205.008 810.035 208.342 Q810.035 213.457 806.517 216.258 Q802.998 219.059 796.517 219.059 Q794.341 219.059 792.026 218.619 Q789.735 218.203 787.281 217.346 L787.281 212.832 Q789.225 213.967 791.54 214.545 Q793.855 215.124 796.378 215.124 Q800.776 215.124 803.068 213.388 Q805.383 211.652 805.383 208.342 Q805.383 205.286 803.23 203.573 Q801.1 201.837 797.281 201.837 L793.253 201.837 L793.253 197.994 L797.466 197.994 Q800.915 197.994 802.744 196.629 Q804.572 195.24 804.572 192.647 Q804.572 189.985 802.674 188.573 Q800.799 187.138 797.281 187.138 Q795.359 187.138 793.16 187.555 Q790.961 187.971 788.322 188.851 L788.322 184.684 Q790.984 183.944 793.299 183.573 Q795.637 183.203 797.697 183.203 Q803.021 183.203 806.123 185.633 Q809.225 188.041 809.225 192.161 Q809.225 195.031 807.582 197.022 Q805.938 198.99 802.906 199.754 Z" fill="#000000" fill-rule="nonzero" fill-opacity="1" /><path clip-path="url(#clip220)" d="M819.04 217.67 L819.04 213.411 Q820.799 214.244 822.605 214.684 Q824.41 215.124 826.146 215.124 Q830.776 215.124 833.206 212.022 Q835.66 208.897 836.007 202.555 Q834.665 204.545 832.605 205.61 Q830.544 206.675 828.044 206.675 Q822.859 206.675 819.827 203.55 Q816.818 200.402 816.818 194.962 Q816.818 189.638 819.966 186.42 Q823.114 183.203 828.345 183.203 Q834.341 183.203 837.489 187.809 Q840.66 192.393 840.66 201.143 Q840.66 209.314 836.771 214.198 Q832.906 219.059 826.355 219.059 Q824.595 219.059 822.79 218.712 Q820.984 218.365 819.04 217.67 M828.345 203.018 Q831.494 203.018 833.322 200.865 Q835.174 198.712 835.174 194.962 Q835.174 191.235 833.322 189.082 Q831.494 186.907 828.345 186.907 Q825.197 186.907 823.345 189.082 Q821.517 191.235 821.517 194.962 Q821.517 198.712 823.345 200.865 Q825.197 203.018 828.345 203.018 Z" fill="#000000" fill-rule="nonzero" fill-opacity="1" /><path clip-path="url(#clip220)" d="M880.868 188.666 L880.868 201.559 L893.762 201.559 L893.762 205.494 L880.868 205.494 L880.868 218.388 L876.979 218.388 L876.979 205.494 L864.086 205.494 L864.086 201.559 L876.979 201.559 L876.979 188.666 L880.868 188.666 Z" fill="#000000" fill-rule="nonzero" fill-opacity="1" /><path clip-path="url(#clip220)" d="M913.854 186.907 Q910.243 186.907 908.414 190.471 Q906.609 194.013 906.609 201.143 Q906.609 208.249 908.414 211.814 Q910.243 215.355 913.854 215.355 Q917.488 215.355 919.294 211.814 Q921.123 208.249 921.123 201.143 Q921.123 194.013 919.294 190.471 Q917.488 186.907 913.854 186.907 M913.854 183.203 Q919.664 183.203 922.72 187.809 Q925.799 192.393 925.799 201.143 Q925.799 209.869 922.72 214.476 Q919.664 219.059 913.854 219.059 Q908.044 219.059 904.965 214.476 Q901.91 209.869 901.91 201.143 Q901.91 192.393 904.965 187.809 Q908.044 183.203 913.854 183.203 Z" fill="#000000" fill-rule="nonzero" fill-opacity="1" /><path clip-path="url(#clip220)" d="M934.016 212.508 L938.9 212.508 L938.9 218.388 L934.016 218.388 L934.016 212.508 Z" fill="#000000" fill-rule="nonzero" fill-opacity="1" /><path clip-path="url(#clip220)" d="M959.085 186.907 Q955.474 186.907 953.646 190.471 Q951.84 194.013 951.84 201.143 Q951.84 208.249 953.646 211.814 Q955.474 215.355 959.085 215.355 Q962.72 215.355 964.525 211.814 Q966.354 208.249 966.354 201.143 Q966.354 194.013 964.525 190.471 Q962.72 186.907 959.085 186.907 M959.085 183.203 Q964.896 183.203 967.951 187.809 Q971.03 192.393 971.03 201.143 Q971.03 209.869 967.951 214.476 Q964.896 219.059 959.085 219.059 Q953.275 219.059 950.197 214.476 Q947.141 209.869 947.141 201.143 Q947.141 192.393 950.197 187.809 Q953.275 183.203 959.085 183.203 Z" fill="#000000" fill-rule="nonzero" fill-opacity="1" /><path clip-path="url(#clip220)" d="M992.095 187.902 L980.289 206.351 L992.095 206.351 L992.095 187.902 M990.868 183.828 L996.747 183.828 L996.747 206.351 L1001.68 206.351 L1001.68 210.24 L996.747 210.24 L996.747 218.388 L992.095 218.388 L992.095 210.24 L976.493 210.24 L976.493 205.726 L990.868 183.828 Z" fill="#000000" fill-rule="nonzero" fill-opacity="1" /><path clip-path="url(#clip220)" d="M1009.46 183.828 L1027.81 183.828 L1027.81 187.763 L1013.74 187.763 L1013.74 196.235 Q1014.76 195.888 1015.77 195.726 Q1016.79 195.541 1017.81 195.541 Q1023.6 195.541 1026.98 198.712 Q1030.36 201.883 1030.36 207.3 Q1030.36 212.879 1026.89 215.98 Q1023.41 219.059 1017.09 219.059 Q1014.92 219.059 1012.65 218.689 Q1010.4 218.318 1008 217.578 L1008 212.879 Q1010.08 214.013 1012.3 214.568 Q1014.52 215.124 1017 215.124 Q1021.01 215.124 1023.34 213.017 Q1025.68 210.911 1025.68 207.3 Q1025.68 203.689 1023.34 201.582 Q1021.01 199.476 1017 199.476 Q1015.13 199.476 1013.25 199.893 Q1011.4 200.309 1009.46 201.189 L1009.46 183.828 Z" fill="#000000" fill-rule="nonzero" fill-opacity="1" /><path clip-path="url(#clip220)" d="M1046.54 183.828 L1050.47 183.828 L1038.44 222.786 L1034.5 222.786 L1046.54 183.828 Z" fill="#000000" fill-rule="nonzero" fill-opacity="1" /><path clip-path="url(#clip220)" d="M1052.79 203.504 L1065.27 203.504 L1065.27 207.3 L1052.79 207.3 L1052.79 203.504 Z" fill="#000000" fill-rule="nonzero" fill-opacity="1" /><path clip-path="url(#clip220)" d="M1082.65 186.907 Q1079.04 186.907 1077.21 190.471 Q1075.4 194.013 1075.4 201.143 Q1075.4 208.249 1077.21 211.814 Q1079.04 215.355 1082.65 215.355 Q1086.28 215.355 1088.09 211.814 Q1089.92 208.249 1089.92 201.143 Q1089.92 194.013 1088.09 190.471 Q1086.28 186.907 1082.65 186.907 M1082.65 183.203 Q1088.46 183.203 1091.52 187.809 Q1094.59 192.393 1094.59 201.143 Q1094.59 209.869 1091.52 214.476 Q1088.46 219.059 1082.65 219.059 Q1076.84 219.059 1073.76 214.476 Q1070.71 209.869 1070.71 201.143 Q1070.71 192.393 1073.76 187.809 Q1076.84 183.203 1082.65 183.203 Z" fill="#000000" fill-rule="nonzero" fill-opacity="1" /><path clip-path="url(#clip220)" d="M1102.81 212.508 L1107.7 212.508 L1107.7 218.388 L1102.81 218.388 L1102.81 212.508 Z" fill="#000000" fill-rule="nonzero" fill-opacity="1" /><path clip-path="url(#clip220)" d="M1127.88 186.907 Q1124.27 186.907 1122.44 190.471 Q1120.64 194.013 1120.64 201.143 Q1120.64 208.249 1122.44 211.814 Q1124.27 215.355 1127.88 215.355 Q1131.52 215.355 1133.32 211.814 Q1135.15 208.249 1135.15 201.143 Q1135.15 194.013 1133.32 190.471 Q1131.52 186.907 1127.88 186.907 M1127.88 183.203 Q1133.69 183.203 1136.75 187.809 Q1139.83 192.393 1139.83 201.143 Q1139.83 209.869 1136.75 214.476 Q1133.69 219.059 1127.88 219.059 Q1122.07 219.059 1118.99 214.476 Q1115.94 209.869 1115.94 201.143 Q1115.94 192.393 1118.99 187.809 Q1122.07 183.203 1127.88 183.203 Z" fill="#000000" fill-rule="nonzero" fill-opacity="1" /><path clip-path="url(#clip220)" d="M1158.62 199.244 Q1155.47 199.244 1153.62 201.397 Q1151.79 203.55 1151.79 207.3 Q1151.79 211.027 1153.62 213.203 Q1155.47 215.355 1158.62 215.355 Q1161.77 215.355 1163.6 213.203 Q1165.45 211.027 1165.45 207.3 Q1165.45 203.55 1163.6 201.397 Q1161.77 199.244 1158.62 199.244 M1167.9 184.592 L1167.9 188.851 Q1166.14 188.018 1164.34 187.578 Q1162.56 187.138 1160.8 187.138 Q1156.17 187.138 1153.71 190.263 Q1151.28 193.388 1150.94 199.707 Q1152.3 197.693 1154.36 196.629 Q1156.42 195.541 1158.9 195.541 Q1164.11 195.541 1167.12 198.712 Q1170.15 201.86 1170.15 207.3 Q1170.15 212.624 1167 215.842 Q1163.85 219.059 1158.62 219.059 Q1152.63 219.059 1149.45 214.476 Q1146.28 209.869 1146.28 201.143 Q1146.28 192.948 1150.17 188.087 Q1154.06 183.203 1160.61 183.203 Q1162.37 183.203 1164.15 183.55 Q1165.96 183.897 1167.9 184.592 Z" fill="#000000" fill-rule="nonzero" fill-opacity="1" /><path clip-path="url(#clip220)" d="M1188.2 201.976 Q1184.87 201.976 1182.95 203.758 Q1181.05 205.541 1181.05 208.666 Q1181.05 211.791 1182.95 213.573 Q1184.87 215.355 1188.2 215.355 Q1191.54 215.355 1193.46 213.573 Q1195.38 211.767 1195.38 208.666 Q1195.38 205.541 1193.46 203.758 Q1191.56 201.976 1188.2 201.976 M1183.53 199.985 Q1180.52 199.244 1178.83 197.184 Q1177.16 195.124 1177.16 192.161 Q1177.16 188.018 1180.1 185.61 Q1183.07 183.203 1188.2 183.203 Q1193.37 183.203 1196.31 185.61 Q1199.25 188.018 1199.25 192.161 Q1199.25 195.124 1197.56 197.184 Q1195.89 199.244 1192.9 199.985 Q1196.28 200.772 1198.16 203.064 Q1200.06 205.355 1200.06 208.666 Q1200.06 213.689 1196.98 216.374 Q1193.92 219.059 1188.2 219.059 Q1182.49 219.059 1179.41 216.374 Q1176.35 213.689 1176.35 208.666 Q1176.35 205.355 1178.25 203.064 Q1180.15 200.772 1183.53 199.985 M1181.82 192.601 Q1181.82 195.286 1183.48 196.791 Q1185.17 198.295 1188.2 198.295 Q1191.21 198.295 1192.9 196.791 Q1194.62 195.286 1194.62 192.601 Q1194.62 189.916 1192.9 188.411 Q1191.21 186.907 1188.2 186.907 Q1185.17 186.907 1183.48 188.411 Q1181.82 189.916 1181.82 192.601 Z" fill="#000000" fill-rule="nonzero" fill-opacity="1" /><path clip-path="url(#clip220)" d="M1223.02 183.828 L1229.99 183.828 L1238.81 207.346 L1247.67 183.828 L1254.64 183.828 L1254.64 218.388 L1250.08 218.388 L1250.08 188.041 L1241.17 211.744 L1236.47 211.744 L1227.56 188.041 L1227.56 218.388 L1223.02 218.388 L1223.02 183.828 Z" fill="#000000" fill-rule="nonzero" fill-opacity="1" /><path clip-path="url(#clip220)" d="M1275.52 205.355 Q1270.36 205.355 1268.37 206.536 Q1266.38 207.717 1266.38 210.564 Q1266.38 212.832 1267.86 214.175 Q1269.36 215.494 1271.93 215.494 Q1275.47 215.494 1277.6 212.994 Q1279.76 210.471 1279.76 206.305 L1279.76 205.355 L1275.52 205.355 M1284.01 203.596 L1284.01 218.388 L1279.76 218.388 L1279.76 214.453 Q1278.3 216.814 1276.12 217.948 Q1273.94 219.059 1270.8 219.059 Q1266.82 219.059 1264.45 216.837 Q1262.12 214.592 1262.12 210.842 Q1262.12 206.467 1265.03 204.244 Q1267.97 202.022 1273.78 202.022 L1279.76 202.022 L1279.76 201.606 Q1279.76 198.666 1277.81 197.068 Q1275.89 195.448 1272.39 195.448 Q1270.17 195.448 1268.07 195.981 Q1265.96 196.513 1264.01 197.578 L1264.01 193.643 Q1266.35 192.74 1268.55 192.3 Q1270.75 191.837 1272.83 191.837 Q1278.46 191.837 1281.24 194.754 Q1284.01 197.67 1284.01 203.596 Z" fill="#000000" fill-rule="nonzero" fill-opacity="1" /><path clip-path="url(#clip220)" d="M1292.12 182.416 L1295.82 182.416 Q1299.29 187.879 1301 193.11 Q1302.74 198.342 1302.74 203.504 Q1302.74 208.689 1301 213.943 Q1299.29 219.198 1295.82 224.638 L1292.12 224.638 Q1295.19 219.337 1296.7 214.105 Q1298.23 208.851 1298.23 203.504 Q1298.23 198.156 1296.7 192.948 Q1295.19 187.74 1292.12 182.416 Z" fill="#000000" fill-rule="nonzero" fill-opacity="1" /></svg>
