<?xml version="1.0" encoding="utf-8"?>
<svg xmlns="http://www.w3.org/2000/svg" xmlns:xlink="http://www.w3.org/1999/xlink" width="600" height="400" viewBox="0 0 2400 1600">
<defs>
  <clipPath id="clip320">
    <rect x="0" y="0" width="2400" height="1600"/>
  </clipPath>
</defs>
<path clip-path="url(#clip320)" d="M0 1600 L2400 1600 L2400 8.88178e-14 L0 8.88178e-14  Z" fill="#ffffff" fill-rule="evenodd" fill-opacity="1"/>
<defs>
  <clipPath id="clip321">
    <rect x="480" y="0" width="1681" height="1600"/>
  </clipPath>
</defs>
<path clip-path="url(#clip320)" d="M249.843 1552.76 L2352.76 1552.76 L2352.76 47.2441 L249.843 47.2441  Z" fill="#ffffff" fill-rule="evenodd" fill-opacity="1"/>
<defs>
  <clipPath id="clip322">
    <rect x="249" y="47" width="2104" height="1507"/>
  </clipPath>
</defs>
<polyline clip-path="url(#clip322)" style="stroke:#000000; stroke-linecap:round; stroke-linejoin:round; stroke-width:2; stroke-opacity:0.1; fill:none" points="249.843,1373.58 2352.76,1373.58 "/>
<polyline clip-path="url(#clip322)" style="stroke:#000000; stroke-linecap:round; stroke-linejoin:round; stroke-width:2; stroke-opacity:0.1; fill:none" points="249.843,1100.45 2352.76,1100.45 "/>
<polyline clip-path="url(#clip322)" style="stroke:#000000; stroke-linecap:round; stroke-linejoin:round; stroke-width:2; stroke-opacity:0.1; fill:none" points="249.843,827.313 2352.76,827.313 "/>
<polyline clip-path="url(#clip322)" style="stroke:#000000; stroke-linecap:round; stroke-linejoin:round; stroke-width:2; stroke-opacity:0.1; fill:none" points="249.843,554.18 2352.76,554.18 "/>
<polyline clip-path="url(#clip322)" style="stroke:#000000; stroke-linecap:round; stroke-linejoin:round; stroke-width:2; stroke-opacity:0.1; fill:none" points="249.843,281.046 2352.76,281.046 "/>
<polyline clip-path="url(#clip322)" style="stroke:#000000; stroke-linecap:round; stroke-linejoin:round; stroke-width:2; stroke-opacity:0.1; fill:none" points="249.843,1373.58 2352.76,1373.58 "/>
<polyline clip-path="url(#clip322)" style="stroke:#000000; stroke-linecap:round; stroke-linejoin:round; stroke-width:2; stroke-opacity:0.1; fill:none" points="249.843,1100.45 2352.76,1100.45 "/>
<polyline clip-path="url(#clip322)" style="stroke:#000000; stroke-linecap:round; stroke-linejoin:round; stroke-width:2; stroke-opacity:0.1; fill:none" points="249.843,827.313 2352.76,827.313 "/>
<polyline clip-path="url(#clip322)" style="stroke:#000000; stroke-linecap:round; stroke-linejoin:round; stroke-width:2; stroke-opacity:0.1; fill:none" points="249.843,554.18 2352.76,554.18 "/>
<polyline clip-path="url(#clip322)" style="stroke:#000000; stroke-linecap:round; stroke-linejoin:round; stroke-width:2; stroke-opacity:0.1; fill:none" points="249.843,281.046 2352.76,281.046 "/>
<polyline clip-path="url(#clip320)" style="stroke:#000000; stroke-linecap:round; stroke-linejoin:round; stroke-width:4; stroke-opacity:1; fill:none" points="249.843,1552.76 2352.76,1552.76 "/>
<polyline clip-path="url(#clip320)" style="stroke:#000000; stroke-linecap:round; stroke-linejoin:round; stroke-width:4; stroke-opacity:1; fill:none" points="249.843,47.2441 2352.76,47.2441 "/>
<polyline clip-path="url(#clip320)" style="stroke:#000000; stroke-linecap:round; stroke-linejoin:round; stroke-width:4; stroke-opacity:1; fill:none" points="249.843,1552.76 249.843,47.2441 "/>
<polyline clip-path="url(#clip320)" style="stroke:#000000; stroke-linecap:round; stroke-linejoin:round; stroke-width:4; stroke-opacity:1; fill:none" points="2352.76,1552.76 2352.76,47.2441 "/>
<polyline clip-path="url(#clip320)" style="stroke:#000000; stroke-linecap:round; stroke-linejoin:round; stroke-width:4; stroke-opacity:1; fill:none" points="249.843,1373.58 268.741,1373.58 "/>
<polyline clip-path="url(#clip320)" style="stroke:#000000; stroke-linecap:round; stroke-linejoin:round; stroke-width:4; stroke-opacity:1; fill:none" points="249.843,1100.45 268.741,1100.45 "/>
<polyline clip-path="url(#clip320)" style="stroke:#000000; stroke-linecap:round; stroke-linejoin:round; stroke-width:4; stroke-opacity:1; fill:none" points="249.843,827.313 268.741,827.313 "/>
<polyline clip-path="url(#clip320)" style="stroke:#000000; stroke-linecap:round; stroke-linejoin:round; stroke-width:4; stroke-opacity:1; fill:none" points="249.843,554.18 268.741,554.18 "/>
<polyline clip-path="url(#clip320)" style="stroke:#000000; stroke-linecap:round; stroke-linejoin:round; stroke-width:4; stroke-opacity:1; fill:none" points="249.843,281.046 268.741,281.046 "/>
<polyline clip-path="url(#clip320)" style="stroke:#000000; stroke-linecap:round; stroke-linejoin:round; stroke-width:4; stroke-opacity:1; fill:none" points="2352.76,1373.58 2333.86,1373.58 "/>
<polyline clip-path="url(#clip320)" style="stroke:#000000; stroke-linecap:round; stroke-linejoin:round; stroke-width:4; stroke-opacity:1; fill:none" points="2352.76,1100.45 2333.86,1100.45 "/>
<polyline clip-path="url(#clip320)" style="stroke:#000000; stroke-linecap:round; stroke-linejoin:round; stroke-width:4; stroke-opacity:1; fill:none" points="2352.76,827.313 2333.86,827.313 "/>
<polyline clip-path="url(#clip320)" style="stroke:#000000; stroke-linecap:round; stroke-linejoin:round; stroke-width:4; stroke-opacity:1; fill:none" points="2352.76,554.18 2333.86,554.18 "/>
<polyline clip-path="url(#clip320)" style="stroke:#000000; stroke-linecap:round; stroke-linejoin:round; stroke-width:4; stroke-opacity:1; fill:none" points="2352.76,281.046 2333.86,281.046 "/>
<path clip-path="url(#clip320)" d="M127.084 1371.72 Q123.936 1371.72 122.084 1373.87 Q120.255 1376.02 120.255 1379.77 Q120.255 1383.5 122.084 1385.68 Q123.936 1387.83 127.084 1387.83 Q130.232 1387.83 132.061 1385.68 Q133.913 1383.5 133.913 1379.77 Q133.913 1376.02 132.061 1373.87 Q130.232 1371.72 127.084 1371.72 M136.367 1357.06 L136.367 1361.32 Q134.607 1360.49 132.802 1360.05 Q131.019 1359.61 129.26 1359.61 Q124.63 1359.61 122.177 1362.74 Q119.746 1365.86 119.399 1372.18 Q120.765 1370.17 122.825 1369.1 Q124.885 1368.01 127.362 1368.01 Q132.57 1368.01 135.579 1371.18 Q138.612 1374.33 138.612 1379.77 Q138.612 1385.1 135.464 1388.31 Q132.316 1391.53 127.084 1391.53 Q121.089 1391.53 117.918 1386.95 Q114.746 1382.34 114.746 1373.62 Q114.746 1365.42 118.635 1360.56 Q122.524 1355.68 129.075 1355.68 Q130.834 1355.68 132.617 1356.02 Q134.422 1356.37 136.367 1357.06 Z" fill="#000000" fill-rule="nonzero" fill-opacity="1" /><path clip-path="url(#clip320)" d="M157.246 1371.72 Q154.098 1371.72 152.246 1373.87 Q150.417 1376.02 150.417 1379.77 Q150.417 1383.5 152.246 1385.68 Q154.098 1387.83 157.246 1387.83 Q160.394 1387.83 162.223 1385.68 Q164.075 1383.5 164.075 1379.77 Q164.075 1376.02 162.223 1373.87 Q160.394 1371.72 157.246 1371.72 M166.528 1357.06 L166.528 1361.32 Q164.769 1360.49 162.964 1360.05 Q161.181 1359.61 159.422 1359.61 Q154.792 1359.61 152.339 1362.74 Q149.908 1365.86 149.561 1372.18 Q150.927 1370.17 152.987 1369.1 Q155.047 1368.01 157.524 1368.01 Q162.732 1368.01 165.741 1371.18 Q168.774 1374.33 168.774 1379.77 Q168.774 1385.1 165.626 1388.31 Q162.477 1391.53 157.246 1391.53 Q151.251 1391.53 148.079 1386.95 Q144.908 1382.34 144.908 1373.62 Q144.908 1365.42 148.797 1360.56 Q152.686 1355.68 159.237 1355.68 Q160.996 1355.68 162.778 1356.02 Q164.584 1356.37 166.528 1357.06 Z" fill="#000000" fill-rule="nonzero" fill-opacity="1" /><path clip-path="url(#clip320)" d="M176.829 1384.98 L181.713 1384.98 L181.713 1390.86 L176.829 1390.86 L176.829 1384.98 Z" fill="#000000" fill-rule="nonzero" fill-opacity="1" /><path clip-path="url(#clip320)" d="M201.899 1359.38 Q198.287 1359.38 196.459 1362.94 Q194.653 1366.49 194.653 1373.62 Q194.653 1380.72 196.459 1384.29 Q198.287 1387.83 201.899 1387.83 Q205.533 1387.83 207.338 1384.29 Q209.167 1380.72 209.167 1373.62 Q209.167 1366.49 207.338 1362.94 Q205.533 1359.38 201.899 1359.38 M201.899 1355.68 Q207.709 1355.68 210.764 1360.28 Q213.843 1364.87 213.843 1373.62 Q213.843 1382.34 210.764 1386.95 Q207.709 1391.53 201.899 1391.53 Q196.088 1391.53 193.01 1386.95 Q189.954 1382.34 189.954 1373.62 Q189.954 1364.87 193.01 1360.28 Q196.088 1355.68 201.899 1355.68 Z" fill="#000000" fill-rule="nonzero" fill-opacity="1" /><path clip-path="url(#clip320)" d="M128.311 1098.58 Q125.163 1098.58 123.311 1100.74 Q121.482 1102.89 121.482 1106.64 Q121.482 1110.37 123.311 1112.54 Q125.163 1114.69 128.311 1114.69 Q131.459 1114.69 133.288 1112.54 Q135.14 1110.37 135.14 1106.64 Q135.14 1102.89 133.288 1100.74 Q131.459 1098.58 128.311 1098.58 M137.593 1083.93 L137.593 1088.19 Q135.834 1087.36 134.029 1086.92 Q132.246 1086.48 130.487 1086.48 Q125.857 1086.48 123.404 1089.6 Q120.973 1092.73 120.626 1099.05 Q121.992 1097.03 124.052 1095.97 Q126.112 1094.88 128.589 1094.88 Q133.797 1094.88 136.806 1098.05 Q139.839 1101.2 139.839 1106.64 Q139.839 1111.96 136.691 1115.18 Q133.542 1118.4 128.311 1118.4 Q122.316 1118.4 119.144 1113.81 Q115.973 1109.21 115.973 1100.48 Q115.973 1092.29 119.862 1087.43 Q123.751 1082.54 130.302 1082.54 Q132.061 1082.54 133.843 1082.89 Q135.649 1083.24 137.593 1083.93 Z" fill="#000000" fill-rule="nonzero" fill-opacity="1" /><path clip-path="url(#clip320)" d="M158.473 1098.58 Q155.325 1098.58 153.473 1100.74 Q151.644 1102.89 151.644 1106.64 Q151.644 1110.37 153.473 1112.54 Q155.325 1114.69 158.473 1114.69 Q161.621 1114.69 163.45 1112.54 Q165.302 1110.37 165.302 1106.64 Q165.302 1102.89 163.45 1100.74 Q161.621 1098.58 158.473 1098.58 M167.755 1083.93 L167.755 1088.19 Q165.996 1087.36 164.19 1086.92 Q162.408 1086.48 160.649 1086.48 Q156.019 1086.48 153.566 1089.6 Q151.135 1092.73 150.788 1099.05 Q152.153 1097.03 154.214 1095.97 Q156.274 1094.88 158.751 1094.88 Q163.959 1094.88 166.968 1098.05 Q170.001 1101.2 170.001 1106.64 Q170.001 1111.96 166.852 1115.18 Q163.704 1118.4 158.473 1118.4 Q152.478 1118.4 149.306 1113.81 Q146.135 1109.21 146.135 1100.48 Q146.135 1092.29 150.024 1087.43 Q153.913 1082.54 160.464 1082.54 Q162.223 1082.54 164.005 1082.89 Q165.811 1083.24 167.755 1083.93 Z" fill="#000000" fill-rule="nonzero" fill-opacity="1" /><path clip-path="url(#clip320)" d="M178.056 1111.85 L182.94 1111.85 L182.94 1117.73 L178.056 1117.73 L178.056 1111.85 Z" fill="#000000" fill-rule="nonzero" fill-opacity="1" /><path clip-path="url(#clip320)" d="M193.936 1113.79 L201.575 1113.79 L201.575 1087.43 L193.264 1089.09 L193.264 1084.83 L201.528 1083.17 L206.204 1083.17 L206.204 1113.79 L213.843 1113.79 L213.843 1117.73 L193.936 1117.73 L193.936 1113.79 Z" fill="#000000" fill-rule="nonzero" fill-opacity="1" /><path clip-path="url(#clip320)" d="M128.681 825.45 Q125.533 825.45 123.681 827.603 Q121.853 829.755 121.853 833.505 Q121.853 837.232 123.681 839.408 Q125.533 841.561 128.681 841.561 Q131.83 841.561 133.658 839.408 Q135.51 837.232 135.51 833.505 Q135.51 829.755 133.658 827.603 Q131.83 825.45 128.681 825.45 M137.964 810.797 L137.964 815.056 Q136.204 814.223 134.399 813.783 Q132.617 813.344 130.857 813.344 Q126.228 813.344 123.774 816.468 Q121.343 819.593 120.996 825.913 Q122.362 823.899 124.422 822.834 Q126.482 821.746 128.959 821.746 Q134.167 821.746 137.177 824.918 Q140.209 828.066 140.209 833.505 Q140.209 838.829 137.061 842.047 Q133.913 845.265 128.681 845.265 Q122.686 845.265 119.515 840.681 Q116.343 836.075 116.343 827.348 Q116.343 819.154 120.232 814.293 Q124.121 809.408 130.672 809.408 Q132.431 809.408 134.214 809.756 Q136.019 810.103 137.964 810.797 Z" fill="#000000" fill-rule="nonzero" fill-opacity="1" /><path clip-path="url(#clip320)" d="M158.843 825.45 Q155.695 825.45 153.843 827.603 Q152.015 829.755 152.015 833.505 Q152.015 837.232 153.843 839.408 Q155.695 841.561 158.843 841.561 Q161.991 841.561 163.82 839.408 Q165.672 837.232 165.672 833.505 Q165.672 829.755 163.82 827.603 Q161.991 825.45 158.843 825.45 M168.126 810.797 L168.126 815.056 Q166.366 814.223 164.561 813.783 Q162.778 813.344 161.019 813.344 Q156.39 813.344 153.936 816.468 Q151.505 819.593 151.158 825.913 Q152.524 823.899 154.584 822.834 Q156.644 821.746 159.121 821.746 Q164.329 821.746 167.339 824.918 Q170.371 828.066 170.371 833.505 Q170.371 838.829 167.223 842.047 Q164.075 845.265 158.843 845.265 Q152.848 845.265 149.677 840.681 Q146.505 836.075 146.505 827.348 Q146.505 819.154 150.394 814.293 Q154.283 809.408 160.834 809.408 Q162.593 809.408 164.376 809.756 Q166.181 810.103 168.126 810.797 Z" fill="#000000" fill-rule="nonzero" fill-opacity="1" /><path clip-path="url(#clip320)" d="M178.426 838.714 L183.311 838.714 L183.311 844.593 L178.426 844.593 L178.426 838.714 Z" fill="#000000" fill-rule="nonzero" fill-opacity="1" /><path clip-path="url(#clip320)" d="M197.524 840.658 L213.843 840.658 L213.843 844.593 L191.899 844.593 L191.899 840.658 Q194.561 837.904 199.144 833.274 Q203.75 828.621 204.931 827.279 Q207.176 824.755 208.056 823.019 Q208.959 821.26 208.959 819.57 Q208.959 816.816 207.014 815.08 Q205.093 813.344 201.991 813.344 Q199.792 813.344 197.338 814.107 Q194.908 814.871 192.13 816.422 L192.13 811.7 Q194.954 810.566 197.408 809.987 Q199.862 809.408 201.899 809.408 Q207.269 809.408 210.463 812.094 Q213.658 814.779 213.658 819.269 Q213.658 821.399 212.848 823.32 Q212.061 825.218 209.954 827.811 Q209.375 828.482 206.274 831.7 Q203.172 834.894 197.524 840.658 Z" fill="#000000" fill-rule="nonzero" fill-opacity="1" /><path clip-path="url(#clip320)" d="M127.732 552.316 Q124.584 552.316 122.732 554.469 Q120.904 556.622 120.904 560.372 Q120.904 564.099 122.732 566.275 Q124.584 568.427 127.732 568.427 Q130.88 568.427 132.709 566.275 Q134.561 564.099 134.561 560.372 Q134.561 556.622 132.709 554.469 Q130.88 552.316 127.732 552.316 M137.015 537.664 L137.015 541.923 Q135.255 541.09 133.45 540.65 Q131.667 540.21 129.908 540.21 Q125.279 540.21 122.825 543.335 Q120.394 546.46 120.047 552.779 Q121.413 550.766 123.473 549.701 Q125.533 548.613 128.01 548.613 Q133.218 548.613 136.228 551.784 Q139.26 554.932 139.26 560.372 Q139.26 565.696 136.112 568.914 Q132.964 572.131 127.732 572.131 Q121.737 572.131 118.566 567.548 Q115.394 562.941 115.394 554.215 Q115.394 546.02 119.283 541.159 Q123.172 536.275 129.723 536.275 Q131.482 536.275 133.265 536.622 Q135.07 536.969 137.015 537.664 Z" fill="#000000" fill-rule="nonzero" fill-opacity="1" /><path clip-path="url(#clip320)" d="M157.894 552.316 Q154.746 552.316 152.894 554.469 Q151.066 556.622 151.066 560.372 Q151.066 564.099 152.894 566.275 Q154.746 568.427 157.894 568.427 Q161.042 568.427 162.871 566.275 Q164.723 564.099 164.723 560.372 Q164.723 556.622 162.871 554.469 Q161.042 552.316 157.894 552.316 M167.177 537.664 L167.177 541.923 Q165.417 541.09 163.612 540.65 Q161.829 540.21 160.07 540.21 Q155.44 540.21 152.987 543.335 Q150.556 546.46 150.209 552.779 Q151.575 550.766 153.635 549.701 Q155.695 548.613 158.172 548.613 Q163.38 548.613 166.39 551.784 Q169.422 554.932 169.422 560.372 Q169.422 565.696 166.274 568.914 Q163.126 572.131 157.894 572.131 Q151.899 572.131 148.728 567.548 Q145.556 562.941 145.556 554.215 Q145.556 546.02 149.445 541.159 Q153.334 536.275 159.885 536.275 Q161.644 536.275 163.427 536.622 Q165.232 536.969 167.177 537.664 Z" fill="#000000" fill-rule="nonzero" fill-opacity="1" /><path clip-path="url(#clip320)" d="M177.477 565.58 L182.362 565.58 L182.362 571.46 L177.477 571.46 L177.477 565.58 Z" fill="#000000" fill-rule="nonzero" fill-opacity="1" /><path clip-path="url(#clip320)" d="M206.713 552.826 Q210.07 553.543 211.945 555.812 Q213.843 558.08 213.843 561.414 Q213.843 566.529 210.324 569.33 Q206.806 572.131 200.325 572.131 Q198.149 572.131 195.834 571.691 Q193.542 571.275 191.088 570.418 L191.088 565.904 Q193.033 567.039 195.348 567.617 Q197.662 568.196 200.186 568.196 Q204.584 568.196 206.875 566.46 Q209.19 564.724 209.19 561.414 Q209.19 558.358 207.037 556.645 Q204.908 554.909 201.088 554.909 L197.061 554.909 L197.061 551.066 L201.274 551.066 Q204.723 551.066 206.551 549.701 Q208.38 548.312 208.38 545.719 Q208.38 543.057 206.482 541.645 Q204.607 540.21 201.088 540.21 Q199.167 540.21 196.968 540.627 Q194.769 541.043 192.13 541.923 L192.13 537.756 Q194.792 537.016 197.107 536.645 Q199.445 536.275 201.505 536.275 Q206.829 536.275 209.931 538.705 Q213.033 541.113 213.033 545.233 Q213.033 548.104 211.389 550.094 Q209.746 552.062 206.713 552.826 Z" fill="#000000" fill-rule="nonzero" fill-opacity="1" /><path clip-path="url(#clip320)" d="M126.598 279.183 Q123.45 279.183 121.598 281.336 Q119.769 283.488 119.769 287.238 Q119.769 290.965 121.598 293.141 Q123.45 295.294 126.598 295.294 Q129.746 295.294 131.575 293.141 Q133.427 290.965 133.427 287.238 Q133.427 283.488 131.575 281.336 Q129.746 279.183 126.598 279.183 M135.88 264.53 L135.88 268.789 Q134.121 267.956 132.316 267.516 Q130.533 267.077 128.774 267.077 Q124.144 267.077 121.691 270.202 Q119.26 273.326 118.913 279.646 Q120.279 277.632 122.339 276.567 Q124.399 275.479 126.876 275.479 Q132.084 275.479 135.093 278.651 Q138.126 281.799 138.126 287.238 Q138.126 292.563 134.978 295.78 Q131.83 298.998 126.598 298.998 Q120.603 298.998 117.431 294.414 Q114.26 289.808 114.26 281.081 Q114.26 272.887 118.149 268.026 Q122.038 263.141 128.589 263.141 Q130.348 263.141 132.13 263.489 Q133.936 263.836 135.88 264.53 Z" fill="#000000" fill-rule="nonzero" fill-opacity="1" /><path clip-path="url(#clip320)" d="M156.76 279.183 Q153.612 279.183 151.76 281.336 Q149.931 283.488 149.931 287.238 Q149.931 290.965 151.76 293.141 Q153.612 295.294 156.76 295.294 Q159.908 295.294 161.737 293.141 Q163.589 290.965 163.589 287.238 Q163.589 283.488 161.737 281.336 Q159.908 279.183 156.76 279.183 M166.042 264.53 L166.042 268.789 Q164.283 267.956 162.477 267.516 Q160.695 267.077 158.936 267.077 Q154.306 267.077 151.853 270.202 Q149.422 273.326 149.075 279.646 Q150.441 277.632 152.501 276.567 Q154.561 275.479 157.038 275.479 Q162.246 275.479 165.255 278.651 Q168.288 281.799 168.288 287.238 Q168.288 292.563 165.14 295.78 Q161.991 298.998 156.76 298.998 Q150.765 298.998 147.593 294.414 Q144.422 289.808 144.422 281.081 Q144.422 272.887 148.311 268.026 Q152.2 263.141 158.751 263.141 Q160.51 263.141 162.292 263.489 Q164.098 263.836 166.042 264.53 Z" fill="#000000" fill-rule="nonzero" fill-opacity="1" /><path clip-path="url(#clip320)" d="M176.343 292.447 L181.227 292.447 L181.227 298.326 L176.343 298.326 L176.343 292.447 Z" fill="#000000" fill-rule="nonzero" fill-opacity="1" /><path clip-path="url(#clip320)" d="M204.26 267.84 L192.454 286.289 L204.26 286.289 L204.26 267.84 M203.033 263.766 L208.912 263.766 L208.912 286.289 L213.843 286.289 L213.843 290.178 L208.912 290.178 L208.912 298.326 L204.26 298.326 L204.26 290.178 L188.658 290.178 L188.658 285.664 L203.033 263.766 Z" fill="#000000" fill-rule="nonzero" fill-opacity="1" /><path clip-path="url(#clip320)" d="M22.818 922.094 L46.4666 930.815 L46.4666 913.341 L22.818 922.094 M16.4842 925.723 L16.4842 918.434 L64.0042 900.324 L64.0042 907.008 L51.8138 911.336 L51.8138 932.757 L64.0042 937.085 L64.0042 943.865 L16.4842 925.723 Z" fill="#000000" fill-rule="nonzero" fill-opacity="1" /><path clip-path="url(#clip320)" d="M45.7664 870.182 Q39.4007 870.182 35.8996 872.824 Q32.3984 875.434 32.3984 880.176 Q32.3984 884.887 35.8996 887.528 Q39.4007 890.138 45.7664 890.138 Q52.1003 890.138 55.6014 887.528 Q59.1026 884.887 59.1026 880.176 Q59.1026 875.434 55.6014 872.824 Q52.1003 870.182 45.7664 870.182 M59.58 864.325 Q68.683 864.325 73.1071 868.368 Q77.5631 872.41 77.5631 880.749 Q77.5631 883.836 77.0857 886.574 Q76.6401 889.311 75.6852 891.889 L69.9879 891.889 Q71.3884 889.311 72.0568 886.796 Q72.7252 884.282 72.7252 881.672 Q72.7252 875.911 69.7015 873.046 Q66.7096 870.182 60.6303 870.182 L57.7339 870.182 Q60.885 871.996 62.4446 874.829 Q64.0042 877.662 64.0042 881.608 Q64.0042 888.165 59.0071 892.175 Q54.01 896.186 45.7664 896.186 Q37.491 896.186 32.4939 892.175 Q27.4968 888.165 27.4968 881.608 Q27.4968 877.662 29.0564 874.829 Q30.616 871.996 33.7671 870.182 L28.3562 870.182 L28.3562 864.325 L59.58 864.325 Z" fill="#000000" fill-rule="nonzero" fill-opacity="1" /><path clip-path="url(#clip320)" d="M44.7161 821.771 L47.5806 821.771 L47.5806 848.698 Q53.6281 848.316 56.8109 845.069 Q59.9619 841.791 59.9619 835.966 Q59.9619 832.592 59.1344 829.441 Q58.3069 826.259 56.6518 823.139 L62.1899 823.139 Q63.5267 826.29 64.227 829.601 Q64.9272 832.911 64.9272 836.316 Q64.9272 844.846 59.9619 849.843 Q54.9967 854.809 46.5303 854.809 Q37.7774 854.809 32.6531 850.098 Q27.4968 845.356 27.4968 837.335 Q27.4968 830.142 32.1438 825.972 Q36.7589 821.771 44.7161 821.771 M42.9973 827.627 Q38.1912 827.691 35.3266 830.333 Q32.4621 832.943 32.4621 837.271 Q32.4621 842.173 35.2312 845.133 Q38.0002 848.061 43.0292 848.507 L42.9973 827.627 Z" fill="#000000" fill-rule="nonzero" fill-opacity="1" /><path clip-path="url(#clip320)" d="M14.5426 777.37 Q21.8632 781.635 29.0246 783.704 Q36.186 785.773 43.5384 785.773 Q50.8908 785.773 58.1159 783.704 Q65.3091 781.603 72.5979 777.37 L72.5979 782.462 Q65.1182 787.237 57.8931 789.624 Q50.668 791.979 43.5384 791.979 Q36.4406 791.979 29.2474 789.624 Q22.0542 787.269 14.5426 782.462 L14.5426 777.37 Z" fill="#000000" fill-rule="nonzero" fill-opacity="1" /><path clip-path="url(#clip320)" d="M16.4842 765.752 L16.4842 756.172 L48.8219 744.045 L16.4842 731.855 L16.4842 722.275 L64.0042 722.275 L64.0042 728.545 L22.277 728.545 L54.8694 740.799 L54.8694 747.26 L22.277 759.514 L64.0042 759.514 L64.0042 765.752 L16.4842 765.752 Z" fill="#000000" fill-rule="nonzero" fill-opacity="1" /><path clip-path="url(#clip320)" d="M46.0847 693.565 Q46.0847 700.663 47.7079 703.4 Q49.3312 706.138 53.2461 706.138 Q56.3653 706.138 58.2114 704.101 Q60.0256 702.032 60.0256 698.499 Q60.0256 693.629 56.5881 690.701 Q53.1188 687.741 47.3897 687.741 L46.0847 687.741 L46.0847 693.565 M43.6657 681.884 L64.0042 681.884 L64.0042 687.741 L58.5933 687.741 Q61.8398 689.746 63.3994 692.738 Q64.9272 695.73 64.9272 700.058 Q64.9272 705.533 61.8716 708.779 Q58.7843 711.994 53.6281 711.994 Q47.6125 711.994 44.5569 707.984 Q41.5014 703.941 41.5014 695.953 L41.5014 687.741 L40.9285 687.741 Q36.8862 687.741 34.6901 690.414 Q32.4621 693.056 32.4621 697.862 Q32.4621 700.918 33.1941 703.814 Q33.9262 706.711 35.3903 709.384 L29.9795 709.384 Q28.7381 706.169 28.1334 703.146 Q27.4968 700.122 27.4968 697.257 Q27.4968 689.523 31.5072 685.704 Q35.5176 681.884 43.6657 681.884 Z" fill="#000000" fill-rule="nonzero" fill-opacity="1" /><path clip-path="url(#clip320)" d="M14.5426 670.744 L14.5426 665.652 Q22.0542 660.877 29.2474 658.522 Q36.4406 656.135 43.5384 656.135 Q50.668 656.135 57.8931 658.522 Q65.1182 660.877 72.5979 665.652 L72.5979 670.744 Q65.3091 666.511 58.1159 664.442 Q50.8908 662.342 43.5384 662.342 Q36.186 662.342 29.0246 664.442 Q21.8632 666.511 14.5426 670.744 Z" fill="#000000" fill-rule="nonzero" fill-opacity="1" /><polyline clip-path="url(#clip322)" style="stroke:#009af9; stroke-linecap:round; stroke-linejoin:round; stroke-width:4; stroke-opacity:1; fill:none" points="309.359,1510.15 309.359,417.613 "/>
<polyline clip-path="url(#clip322)" style="stroke:#009af9; stroke-linecap:round; stroke-linejoin:round; stroke-width:4; stroke-opacity:1; fill:none" points="706.135,1510.15 706.135,89.8529 "/>
<polyline clip-path="url(#clip322)" style="stroke:#009af9; stroke-linecap:round; stroke-linejoin:round; stroke-width:4; stroke-opacity:1; fill:none" points="1102.91,1100.45 1102.91,444.926 "/>
<polyline clip-path="url(#clip322)" style="stroke:#009af9; stroke-linecap:round; stroke-linejoin:round; stroke-width:4; stroke-opacity:1; fill:none" points="1499.69,704.403 1499.69,458.583 "/>
<polyline clip-path="url(#clip322)" style="stroke:#009af9; stroke-linecap:round; stroke-linejoin:round; stroke-width:4; stroke-opacity:1; fill:none" points="1896.46,707.135 1896.46,253.733 "/>
<polyline clip-path="url(#clip322)" style="stroke:#009af9; stroke-linecap:round; stroke-linejoin:round; stroke-width:4; stroke-opacity:1; fill:none" points="2293.24,586.956 2293.24,128.092 "/>
<line clip-path="url(#clip322)" x1="325.359" y1="1510.15" x2="293.359" y2="1510.15" style="stroke:#009af9; stroke-width:4; stroke-opacity:1"/>
<line clip-path="url(#clip322)" x1="325.359" y1="417.613" x2="293.359" y2="417.613" style="stroke:#009af9; stroke-width:4; stroke-opacity:1"/>
<line clip-path="url(#clip322)" x1="722.135" y1="1510.15" x2="690.135" y2="1510.15" style="stroke:#009af9; stroke-width:4; stroke-opacity:1"/>
<line clip-path="url(#clip322)" x1="722.135" y1="89.8529" x2="690.135" y2="89.8529" style="stroke:#009af9; stroke-width:4; stroke-opacity:1"/>
<line clip-path="url(#clip322)" x1="1118.91" y1="1100.45" x2="1086.91" y2="1100.45" style="stroke:#009af9; stroke-width:4; stroke-opacity:1"/>
<line clip-path="url(#clip322)" x1="1118.91" y1="444.926" x2="1086.91" y2="444.926" style="stroke:#009af9; stroke-width:4; stroke-opacity:1"/>
<line clip-path="url(#clip322)" x1="1515.69" y1="704.403" x2="1483.69" y2="704.403" style="stroke:#009af9; stroke-width:4; stroke-opacity:1"/>
<line clip-path="url(#clip322)" x1="1515.69" y1="458.583" x2="1483.69" y2="458.583" style="stroke:#009af9; stroke-width:4; stroke-opacity:1"/>
<line clip-path="url(#clip322)" x1="1912.46" y1="707.135" x2="1880.46" y2="707.135" style="stroke:#009af9; stroke-width:4; stroke-opacity:1"/>
<line clip-path="url(#clip322)" x1="1912.46" y1="253.733" x2="1880.46" y2="253.733" style="stroke:#009af9; stroke-width:4; stroke-opacity:1"/>
<line clip-path="url(#clip322)" x1="2309.24" y1="586.956" x2="2277.24" y2="586.956" style="stroke:#009af9; stroke-width:4; stroke-opacity:1"/>
<line clip-path="url(#clip322)" x1="2309.24" y1="128.092" x2="2277.24" y2="128.092" style="stroke:#009af9; stroke-width:4; stroke-opacity:1"/>
<circle clip-path="url(#clip322)" cx="309.359" cy="963.88" r="14.4" fill="#009af9" fill-rule="evenodd" fill-opacity="1" stroke="none"/>
<circle clip-path="url(#clip322)" cx="706.135" cy="800" r="14.4" fill="#009af9" fill-rule="evenodd" fill-opacity="1" stroke="none"/>
<circle clip-path="url(#clip322)" cx="1102.91" cy="772.687" r="14.4" fill="#009af9" fill-rule="evenodd" fill-opacity="1" stroke="none"/>
<circle clip-path="url(#clip322)" cx="1499.69" cy="581.493" r="14.4" fill="#009af9" fill-rule="evenodd" fill-opacity="1" stroke="none"/>
<circle clip-path="url(#clip322)" cx="1896.46" cy="480.434" r="14.4" fill="#009af9" fill-rule="evenodd" fill-opacity="1" stroke="none"/>
<circle clip-path="url(#clip322)" cx="2293.24" cy="357.524" r="14.4" fill="#009af9" fill-rule="evenodd" fill-opacity="1" stroke="none"/>
<path clip-path="url(#clip322)" d="M309.359 1026.58 L706.135 1026.58 L1102.91 1026.58 L1499.69 1026.58 L1896.46 1026.58 L2293.24 1026.58 L2293.24 513.024 L1896.46 513.024 L1499.69 513.024 L1102.91 513.024 L706.135 513.024 L309.359 513.024  Z" fill="#e26f46" fill-rule="evenodd" fill-opacity="0.6"/>
<polyline clip-path="url(#clip322)" style="stroke:#e26f46; stroke-linecap:round; stroke-linejoin:round; stroke-width:4; stroke-opacity:0; fill:none" points="309.359,1026.58 706.135,1026.58 1102.91,1026.58 1499.69,1026.58 1896.46,1026.58 2293.24,1026.58 "/>
<polyline clip-path="url(#clip322)" style="stroke:#000000; stroke-linecap:round; stroke-linejoin:round; stroke-width:4; stroke-opacity:1; fill:none" stroke-dasharray="2, 4" points="309.359,675.574 706.135,675.574 1102.91,675.574 1499.69,675.574 1896.46,675.574 2293.24,675.574 "/>
<path clip-path="url(#clip320)" d="M319.94 252.948 L1295.94 252.948 L1295.94 97.4278 L319.94 97.4278  Z" fill="#ffffff" fill-rule="evenodd" fill-opacity="1"/>
<polyline clip-path="url(#clip320)" style="stroke:#ffffff; stroke-linecap:round; stroke-linejoin:round; stroke-width:4; stroke-opacity:1; fill:none" points="319.94,252.948 1295.94,252.948 1295.94,97.4278 319.94,97.4278 319.94,252.948 "/>
<circle clip-path="url(#clip320)" cx="413.403" cy="149.268" r="20.48" fill="#009af9" fill-rule="evenodd" fill-opacity="1" stroke="none"/>
<path clip-path="url(#clip320)" d="M511.542 135.83 L511.542 162.705 L517.19 162.705 Q524.342 162.705 527.653 159.465 Q530.986 156.224 530.986 149.233 Q530.986 142.289 527.653 139.071 Q524.342 135.83 517.19 135.83 L511.542 135.83 M506.866 131.988 L516.472 131.988 Q526.518 131.988 531.217 136.178 Q535.916 140.344 535.916 149.233 Q535.916 158.168 531.194 162.358 Q526.472 166.548 516.472 166.548 L506.866 166.548 L506.866 131.988 Z" fill="#000000" fill-rule="nonzero" fill-opacity="1" /><path clip-path="url(#clip320)" d="M554.967 153.515 Q549.805 153.515 547.815 154.696 Q545.824 155.877 545.824 158.724 Q545.824 160.992 547.305 162.335 Q548.81 163.654 551.379 163.654 Q554.921 163.654 557.051 161.154 Q559.203 158.631 559.203 154.465 L559.203 153.515 L554.967 153.515 M563.463 151.756 L563.463 166.548 L559.203 166.548 L559.203 162.613 Q557.745 164.974 555.569 166.108 Q553.393 167.219 550.245 167.219 Q546.264 167.219 543.902 164.997 Q541.565 162.752 541.565 159.002 Q541.565 154.627 544.481 152.404 Q547.421 150.182 553.231 150.182 L559.203 150.182 L559.203 149.766 Q559.203 146.826 557.259 145.228 Q555.338 143.608 551.842 143.608 Q549.62 143.608 547.514 144.141 Q545.407 144.673 543.463 145.738 L543.463 141.803 Q545.801 140.9 548 140.46 Q550.199 139.997 552.282 139.997 Q557.907 139.997 560.685 142.914 Q563.463 145.83 563.463 151.756 Z" fill="#000000" fill-rule="nonzero" fill-opacity="1" /><path clip-path="url(#clip320)" d="M576.449 133.261 L576.449 140.622 L585.222 140.622 L585.222 143.932 L576.449 143.932 L576.449 158.006 Q576.449 161.177 577.305 162.08 Q578.185 162.983 580.847 162.983 L585.222 162.983 L585.222 166.548 L580.847 166.548 Q575.916 166.548 574.041 164.719 Q572.166 162.867 572.166 158.006 L572.166 143.932 L569.041 143.932 L569.041 140.622 L572.166 140.622 L572.166 133.261 L576.449 133.261 Z" fill="#000000" fill-rule="nonzero" fill-opacity="1" /><path clip-path="url(#clip320)" d="M602.606 153.515 Q597.444 153.515 595.453 154.696 Q593.462 155.877 593.462 158.724 Q593.462 160.992 594.944 162.335 Q596.449 163.654 599.018 163.654 Q602.56 163.654 604.689 161.154 Q606.842 158.631 606.842 154.465 L606.842 153.515 L602.606 153.515 M611.101 151.756 L611.101 166.548 L606.842 166.548 L606.842 162.613 Q605.384 164.974 603.208 166.108 Q601.032 167.219 597.884 167.219 Q593.902 167.219 591.541 164.997 Q589.203 162.752 589.203 159.002 Q589.203 154.627 592.12 152.404 Q595.06 150.182 600.87 150.182 L606.842 150.182 L606.842 149.766 Q606.842 146.826 604.898 145.228 Q602.976 143.608 599.481 143.608 Q597.259 143.608 595.152 144.141 Q593.046 144.673 591.101 145.738 L591.101 141.803 Q593.439 140.9 595.638 140.46 Q597.837 139.997 599.921 139.997 Q605.546 139.997 608.323 142.914 Q611.101 145.83 611.101 151.756 Z" fill="#000000" fill-rule="nonzero" fill-opacity="1" /><path clip-path="url(#clip320)" d="M645.175 130.576 Q642.073 135.9 640.569 141.108 Q639.064 146.316 639.064 151.664 Q639.064 157.011 640.569 162.265 Q642.096 167.497 645.175 172.798 L641.471 172.798 Q637.999 167.358 636.263 162.103 Q634.55 156.849 634.55 151.664 Q634.55 146.502 636.263 141.27 Q637.976 136.039 641.471 130.576 L645.175 130.576 Z" fill="#000000" fill-rule="nonzero" fill-opacity="1" /><path clip-path="url(#clip320)" d="M663.485 143.608 Q660.059 143.608 658.069 146.293 Q656.078 148.955 656.078 153.608 Q656.078 158.261 658.045 160.946 Q660.036 163.608 663.485 163.608 Q666.888 163.608 668.879 160.923 Q670.869 158.238 670.869 153.608 Q670.869 149.002 668.879 146.316 Q666.888 143.608 663.485 143.608 M663.485 139.997 Q669.041 139.997 672.212 143.608 Q675.383 147.219 675.383 153.608 Q675.383 159.974 672.212 163.608 Q669.041 167.219 663.485 167.219 Q657.907 167.219 654.735 163.608 Q651.587 159.974 651.587 153.608 Q651.587 147.219 654.735 143.608 Q657.907 139.997 663.485 139.997 Z" fill="#000000" fill-rule="nonzero" fill-opacity="1" /><path clip-path="url(#clip320)" d="M701.054 153.608 Q701.054 148.909 699.11 146.247 Q697.189 143.562 693.809 143.562 Q690.429 143.562 688.485 146.247 Q686.564 148.909 686.564 153.608 Q686.564 158.307 688.485 160.992 Q690.429 163.654 693.809 163.654 Q697.189 163.654 699.11 160.992 Q701.054 158.307 701.054 153.608 M686.564 144.557 Q687.906 142.242 689.943 141.131 Q692.004 139.997 694.851 139.997 Q699.573 139.997 702.513 143.747 Q705.476 147.497 705.476 153.608 Q705.476 159.719 702.513 163.469 Q699.573 167.219 694.851 167.219 Q692.004 167.219 689.943 166.108 Q687.906 164.974 686.564 162.659 L686.564 166.548 L682.281 166.548 L682.281 130.529 L686.564 130.529 L686.564 144.557 Z" fill="#000000" fill-rule="nonzero" fill-opacity="1" /><path clip-path="url(#clip320)" d="M729.064 141.386 L729.064 145.414 Q727.258 144.488 725.314 144.025 Q723.369 143.562 721.286 143.562 Q718.115 143.562 716.517 144.534 Q714.943 145.506 714.943 147.451 Q714.943 148.932 716.077 149.789 Q717.212 150.622 720.638 151.386 L722.096 151.71 Q726.633 152.682 728.531 154.465 Q730.452 156.224 730.452 159.395 Q730.452 163.006 727.582 165.113 Q724.735 167.219 719.735 167.219 Q717.652 167.219 715.383 166.802 Q713.138 166.409 710.638 165.599 L710.638 161.201 Q712.999 162.427 715.29 163.052 Q717.582 163.654 719.827 163.654 Q722.837 163.654 724.457 162.636 Q726.077 161.594 726.077 159.719 Q726.077 157.983 724.897 157.057 Q723.739 156.131 719.781 155.275 L718.3 154.928 Q714.341 154.094 712.582 152.381 Q710.823 150.645 710.823 147.636 Q710.823 143.978 713.415 141.988 Q716.008 139.997 720.777 139.997 Q723.138 139.997 725.221 140.344 Q727.304 140.691 729.064 141.386 Z" fill="#000000" fill-rule="nonzero" fill-opacity="1" /><path clip-path="url(#clip320)" d="M759.411 152.52 L759.411 154.603 L739.827 154.603 Q740.105 159.002 742.466 161.316 Q744.85 163.608 749.087 163.608 Q751.54 163.608 753.832 163.006 Q756.147 162.404 758.415 161.201 L758.415 165.228 Q756.124 166.201 753.716 166.71 Q751.309 167.219 748.832 167.219 Q742.628 167.219 738.994 163.608 Q735.383 159.997 735.383 153.84 Q735.383 147.474 738.809 143.747 Q742.258 139.997 748.091 139.997 Q753.323 139.997 756.355 143.377 Q759.411 146.733 759.411 152.52 M755.151 151.27 Q755.105 147.775 753.184 145.691 Q751.286 143.608 748.138 143.608 Q744.573 143.608 742.42 145.622 Q740.29 147.636 739.966 151.293 L755.151 151.27 Z" fill="#000000" fill-rule="nonzero" fill-opacity="1" /><path clip-path="url(#clip320)" d="M781.424 144.603 Q780.707 144.187 779.85 144.002 Q779.017 143.793 777.998 143.793 Q774.387 143.793 772.443 146.154 Q770.522 148.492 770.522 152.89 L770.522 166.548 L766.239 166.548 L766.239 140.622 L770.522 140.622 L770.522 144.65 Q771.864 142.289 774.017 141.154 Q776.17 139.997 779.248 139.997 Q779.688 139.997 780.221 140.066 Q780.753 140.113 781.401 140.229 L781.424 144.603 Z" fill="#000000" fill-rule="nonzero" fill-opacity="1" /><path clip-path="url(#clip320)" d="M782.836 140.622 L787.35 140.622 L795.452 162.381 L803.554 140.622 L808.068 140.622 L798.346 166.548 L792.559 166.548 L782.836 140.622 Z" fill="#000000" fill-rule="nonzero" fill-opacity="1" /><path clip-path="url(#clip320)" d="M836.123 152.52 L836.123 154.603 L816.54 154.603 Q816.818 159.002 819.179 161.316 Q821.563 163.608 825.799 163.608 Q828.253 163.608 830.544 163.006 Q832.859 162.404 835.128 161.201 L835.128 165.228 Q832.836 166.201 830.429 166.71 Q828.021 167.219 825.544 167.219 Q819.341 167.219 815.707 163.608 Q812.095 159.997 812.095 153.84 Q812.095 147.474 815.521 143.747 Q818.97 139.997 824.804 139.997 Q830.035 139.997 833.068 143.377 Q836.123 146.733 836.123 152.52 M831.864 151.27 Q831.818 147.775 829.896 145.691 Q827.998 143.608 824.85 143.608 Q821.285 143.608 819.132 145.622 Q817.003 147.636 816.679 151.293 L831.864 151.27 Z" fill="#000000" fill-rule="nonzero" fill-opacity="1" /><path clip-path="url(#clip320)" d="M860.174 144.557 L860.174 130.529 L864.433 130.529 L864.433 166.548 L860.174 166.548 L860.174 162.659 Q858.831 164.974 856.771 166.108 Q854.734 167.219 851.864 167.219 Q847.165 167.219 844.202 163.469 Q841.262 159.719 841.262 153.608 Q841.262 147.497 844.202 143.747 Q847.165 139.997 851.864 139.997 Q854.734 139.997 856.771 141.131 Q858.831 142.242 860.174 144.557 M845.66 153.608 Q845.66 158.307 847.581 160.992 Q849.526 163.654 852.905 163.654 Q856.285 163.654 858.23 160.992 Q860.174 158.307 860.174 153.608 Q860.174 148.909 858.23 146.247 Q856.285 143.562 852.905 143.562 Q849.526 143.562 847.581 146.247 Q845.66 148.909 845.66 153.608 Z" fill="#000000" fill-rule="nonzero" fill-opacity="1" /><path clip-path="url(#clip320)" d="M900.058 153.515 Q894.896 153.515 892.905 154.696 Q890.915 155.877 890.915 158.724 Q890.915 160.992 892.396 162.335 Q893.901 163.654 896.47 163.654 Q900.012 163.654 902.141 161.154 Q904.294 158.631 904.294 154.465 L904.294 153.515 L900.058 153.515 M908.553 151.756 L908.553 166.548 L904.294 166.548 L904.294 162.613 Q902.836 164.974 900.66 166.108 Q898.484 167.219 895.336 167.219 Q891.354 167.219 888.993 164.997 Q886.655 162.752 886.655 159.002 Q886.655 154.627 889.572 152.404 Q892.512 150.182 898.322 150.182 L904.294 150.182 L904.294 149.766 Q904.294 146.826 902.35 145.228 Q900.428 143.608 896.933 143.608 Q894.711 143.608 892.604 144.141 Q890.498 144.673 888.553 145.738 L888.553 141.803 Q890.891 140.9 893.09 140.46 Q895.289 139.997 897.373 139.997 Q902.998 139.997 905.776 142.914 Q908.553 145.83 908.553 151.756 Z" fill="#000000" fill-rule="nonzero" fill-opacity="1" /><path clip-path="url(#clip320)" d="M934.387 153.284 Q934.387 148.654 932.465 146.108 Q930.567 143.562 927.118 143.562 Q923.692 143.562 921.771 146.108 Q919.873 148.654 919.873 153.284 Q919.873 157.89 921.771 160.437 Q923.692 162.983 927.118 162.983 Q930.567 162.983 932.465 160.437 Q934.387 157.89 934.387 153.284 M938.646 163.33 Q938.646 169.951 935.706 173.168 Q932.766 176.409 926.701 176.409 Q924.456 176.409 922.465 176.062 Q920.475 175.738 918.6 175.043 L918.6 170.9 Q920.475 171.918 922.303 172.404 Q924.132 172.89 926.03 172.89 Q930.22 172.89 932.303 170.691 Q934.387 168.515 934.387 164.094 L934.387 161.988 Q933.067 164.279 931.007 165.414 Q928.947 166.548 926.076 166.548 Q921.308 166.548 918.391 162.914 Q915.475 159.279 915.475 153.284 Q915.475 147.266 918.391 143.631 Q921.308 139.997 926.076 139.997 Q928.947 139.997 931.007 141.131 Q933.067 142.266 934.387 144.557 L934.387 140.622 L938.646 140.622 L938.646 163.33 Z" fill="#000000" fill-rule="nonzero" fill-opacity="1" /><path clip-path="url(#clip320)" d="M969.595 152.52 L969.595 154.603 L950.011 154.603 Q950.289 159.002 952.65 161.316 Q955.035 163.608 959.271 163.608 Q961.724 163.608 964.016 163.006 Q966.331 162.404 968.599 161.201 L968.599 165.228 Q966.308 166.201 963.9 166.71 Q961.493 167.219 959.016 167.219 Q952.812 167.219 949.178 163.608 Q945.567 159.997 945.567 153.84 Q945.567 147.474 948.993 143.747 Q952.442 139.997 958.275 139.997 Q963.507 139.997 966.539 143.377 Q969.595 146.733 969.595 152.52 M965.335 151.27 Q965.289 147.775 963.368 145.691 Q961.47 143.608 958.322 143.608 Q954.757 143.608 952.604 145.622 Q950.474 147.636 950.15 151.293 L965.335 151.27 Z" fill="#000000" fill-rule="nonzero" fill-opacity="1" /><path clip-path="url(#clip320)" d="M993.113 141.386 L993.113 145.414 Q991.307 144.488 989.363 144.025 Q987.419 143.562 985.335 143.562 Q982.164 143.562 980.567 144.534 Q978.993 145.506 978.993 147.451 Q978.993 148.932 980.127 149.789 Q981.261 150.622 984.687 151.386 L986.145 151.71 Q990.683 152.682 992.581 154.465 Q994.502 156.224 994.502 159.395 Q994.502 163.006 991.632 165.113 Q988.784 167.219 983.784 167.219 Q981.701 167.219 979.433 166.802 Q977.187 166.409 974.687 165.599 L974.687 161.201 Q977.048 162.427 979.34 163.052 Q981.632 163.654 983.877 163.654 Q986.886 163.654 988.507 162.636 Q990.127 161.594 990.127 159.719 Q990.127 157.983 988.946 157.057 Q987.789 156.131 983.831 155.275 L982.349 154.928 Q978.391 154.094 976.632 152.381 Q974.872 150.645 974.872 147.636 Q974.872 143.978 977.465 141.988 Q980.058 139.997 984.826 139.997 Q987.187 139.997 989.27 140.344 Q991.354 140.691 993.113 141.386 Z" fill="#000000" fill-rule="nonzero" fill-opacity="1" /><path clip-path="url(#clip320)" d="M1000.61 130.576 L1004.32 130.576 Q1007.79 136.039 1009.5 141.27 Q1011.24 146.502 1011.24 151.664 Q1011.24 156.849 1009.5 162.103 Q1007.79 167.358 1004.32 172.798 L1000.61 172.798 Q1003.69 167.497 1005.2 162.265 Q1006.72 157.011 1006.72 151.664 Q1006.72 146.316 1005.2 141.108 Q1003.69 135.9 1000.61 130.576 Z" fill="#000000" fill-rule="nonzero" fill-opacity="1" /><path clip-path="url(#clip320)" d="M343.306 221.844 L483.5 221.844 L483.5 180.372 L343.306 180.372 L343.306 221.844  Z" fill="#e26f46" fill-rule="evenodd" fill-opacity="0.6"/>
<polyline clip-path="url(#clip320)" style="stroke:#e26f46; stroke-linecap:round; stroke-linejoin:round; stroke-width:4; stroke-opacity:0; fill:none" points="343.306,180.372 483.5,180.372 "/>
<path clip-path="url(#clip320)" d="M506.866 183.828 L513.833 183.828 L522.653 207.346 L531.518 183.828 L538.486 183.828 L538.486 218.388 L533.926 218.388 L533.926 188.041 L525.014 211.744 L520.315 211.744 L511.403 188.041 L511.403 218.388 L506.866 218.388 L506.866 183.828 Z" fill="#000000" fill-rule="nonzero" fill-opacity="1" /><path clip-path="url(#clip320)" d="M557.629 195.448 Q554.203 195.448 552.213 198.133 Q550.222 200.795 550.222 205.448 Q550.222 210.101 552.189 212.786 Q554.18 215.448 557.629 215.448 Q561.032 215.448 563.023 212.763 Q565.013 210.078 565.013 205.448 Q565.013 200.842 563.023 198.156 Q561.032 195.448 557.629 195.448 M557.629 191.837 Q563.185 191.837 566.356 195.448 Q569.527 199.059 569.527 205.448 Q569.527 211.814 566.356 215.448 Q563.185 219.059 557.629 219.059 Q552.051 219.059 548.879 215.448 Q545.731 211.814 545.731 205.448 Q545.731 199.059 548.879 195.448 Q552.051 191.837 557.629 191.837 Z" fill="#000000" fill-rule="nonzero" fill-opacity="1" /><path clip-path="url(#clip320)" d="M593.648 196.397 L593.648 182.369 L597.907 182.369 L597.907 218.388 L593.648 218.388 L593.648 214.499 Q592.305 216.814 590.245 217.948 Q588.208 219.059 585.337 219.059 Q580.638 219.059 577.675 215.309 Q574.736 211.559 574.736 205.448 Q574.736 199.337 577.675 195.587 Q580.638 191.837 585.337 191.837 Q588.208 191.837 590.245 192.971 Q592.305 194.082 593.648 196.397 M579.134 205.448 Q579.134 210.147 581.055 212.832 Q583 215.494 586.379 215.494 Q589.759 215.494 591.703 212.832 Q593.648 210.147 593.648 205.448 Q593.648 200.749 591.703 198.087 Q589.759 195.402 586.379 195.402 Q583 195.402 581.055 198.087 Q579.134 200.749 579.134 205.448 Z" fill="#000000" fill-rule="nonzero" fill-opacity="1" /><path clip-path="url(#clip320)" d="M628.856 204.36 L628.856 206.443 L609.273 206.443 Q609.55 210.842 611.911 213.156 Q614.296 215.448 618.532 215.448 Q620.985 215.448 623.277 214.846 Q625.592 214.244 627.86 213.041 L627.86 217.068 Q625.569 218.041 623.161 218.55 Q620.754 219.059 618.277 219.059 Q612.073 219.059 608.439 215.448 Q604.828 211.837 604.828 205.68 Q604.828 199.314 608.254 195.587 Q611.703 191.837 617.536 191.837 Q622.768 191.837 625.8 195.217 Q628.856 198.573 628.856 204.36 M624.597 203.11 Q624.55 199.615 622.629 197.531 Q620.731 195.448 617.583 195.448 Q614.018 195.448 611.865 197.462 Q609.735 199.476 609.411 203.133 L624.597 203.11 Z" fill="#000000" fill-rule="nonzero" fill-opacity="1" /><path clip-path="url(#clip320)" d="M635.846 182.369 L640.106 182.369 L640.106 218.388 L635.846 218.388 L635.846 182.369 Z" fill="#000000" fill-rule="nonzero" fill-opacity="1" /><path clip-path="url(#clip320)" d="M674.318 182.416 Q671.217 187.74 669.712 192.948 Q668.207 198.156 668.207 203.504 Q668.207 208.851 669.712 214.105 Q671.24 219.337 674.318 224.638 L670.615 224.638 Q667.143 219.198 665.406 213.943 Q663.694 208.689 663.694 203.504 Q663.694 198.342 665.406 193.11 Q667.119 187.879 670.615 182.416 L674.318 182.416 Z" fill="#000000" fill-rule="nonzero" fill-opacity="1" /><path clip-path="url(#clip320)" d="M693.763 199.244 Q690.615 199.244 688.763 201.397 Q686.934 203.55 686.934 207.3 Q686.934 211.027 688.763 213.203 Q690.615 215.355 693.763 215.355 Q696.911 215.355 698.74 213.203 Q700.591 211.027 700.591 207.3 Q700.591 203.55 698.74 201.397 Q696.911 199.244 693.763 199.244 M703.045 184.592 L703.045 188.851 Q701.286 188.018 699.48 187.578 Q697.698 187.138 695.939 187.138 Q691.309 187.138 688.855 190.263 Q686.425 193.388 686.078 199.707 Q687.443 197.693 689.504 196.629 Q691.564 195.541 694.041 195.541 Q699.249 195.541 702.258 198.712 Q705.291 201.86 705.291 207.3 Q705.291 212.624 702.142 215.842 Q698.994 219.059 693.763 219.059 Q687.767 219.059 684.596 214.476 Q681.425 209.869 681.425 201.143 Q681.425 192.948 685.314 188.087 Q689.203 183.203 695.754 183.203 Q697.513 183.203 699.295 183.55 Q701.101 183.897 703.045 184.592 Z" fill="#000000" fill-rule="nonzero" fill-opacity="1" /><path clip-path="url(#clip320)" d="M723.925 199.244 Q720.777 199.244 718.925 201.397 Q717.096 203.55 717.096 207.3 Q717.096 211.027 718.925 213.203 Q720.777 215.355 723.925 215.355 Q727.073 215.355 728.901 213.203 Q730.753 211.027 730.753 207.3 Q730.753 203.55 728.901 201.397 Q727.073 199.244 723.925 199.244 M733.207 184.592 L733.207 188.851 Q731.448 188.018 729.642 187.578 Q727.86 187.138 726.101 187.138 Q721.471 187.138 719.017 190.263 Q716.587 193.388 716.24 199.707 Q717.605 197.693 719.665 196.629 Q721.726 195.541 724.202 195.541 Q729.411 195.541 732.42 198.712 Q735.452 201.86 735.452 207.3 Q735.452 212.624 732.304 215.842 Q729.156 219.059 723.925 219.059 Q717.929 219.059 714.758 214.476 Q711.587 209.869 711.587 201.143 Q711.587 192.948 715.476 188.087 Q719.365 183.203 725.915 183.203 Q727.675 183.203 729.457 183.55 Q731.263 183.897 733.207 184.592 Z" fill="#000000" fill-rule="nonzero" fill-opacity="1" /><path clip-path="url(#clip320)" d="M743.508 212.508 L748.392 212.508 L748.392 218.388 L743.508 218.388 L743.508 212.508 Z" fill="#000000" fill-rule="nonzero" fill-opacity="1" /><path clip-path="url(#clip320)" d="M762.605 214.453 L778.924 214.453 L778.924 218.388 L756.98 218.388 L756.98 214.453 Q759.642 211.698 764.225 207.068 Q768.832 202.416 770.012 201.073 Q772.258 198.55 773.137 196.814 Q774.04 195.055 774.04 193.365 Q774.04 190.61 772.096 188.874 Q770.174 187.138 767.073 187.138 Q764.874 187.138 762.42 187.902 Q759.989 188.666 757.212 190.217 L757.212 185.494 Q760.036 184.36 762.489 183.782 Q764.943 183.203 766.98 183.203 Q772.35 183.203 775.545 185.888 Q778.739 188.573 778.739 193.064 Q778.739 195.194 777.929 197.115 Q777.142 199.013 775.036 201.606 Q774.457 202.277 771.355 205.494 Q768.253 208.689 762.605 214.453 Z" fill="#000000" fill-rule="nonzero" fill-opacity="1" /><path clip-path="url(#clip320)" d="M788.785 183.828 L807.142 183.828 L807.142 187.763 L793.068 187.763 L793.068 196.235 Q794.086 195.888 795.105 195.726 Q796.123 195.541 797.142 195.541 Q802.929 195.541 806.308 198.712 Q809.688 201.883 809.688 207.3 Q809.688 212.879 806.216 215.98 Q802.744 219.059 796.424 219.059 Q794.248 219.059 791.98 218.689 Q789.735 218.318 787.327 217.578 L787.327 212.879 Q789.41 214.013 791.633 214.568 Q793.855 215.124 796.332 215.124 Q800.336 215.124 802.674 213.017 Q805.012 210.911 805.012 207.3 Q805.012 203.689 802.674 201.582 Q800.336 199.476 796.332 199.476 Q794.457 199.476 792.582 199.893 Q790.73 200.309 788.785 201.189 L788.785 183.828 Z" fill="#000000" fill-rule="nonzero" fill-opacity="1" /><path clip-path="url(#clip320)" d="M829.48 199.244 Q826.332 199.244 824.48 201.397 Q822.651 203.55 822.651 207.3 Q822.651 211.027 824.48 213.203 Q826.332 215.355 829.48 215.355 Q832.628 215.355 834.456 213.203 Q836.308 211.027 836.308 207.3 Q836.308 203.55 834.456 201.397 Q832.628 199.244 829.48 199.244 M838.762 184.592 L838.762 188.851 Q837.003 188.018 835.197 187.578 Q833.415 187.138 831.656 187.138 Q827.026 187.138 824.572 190.263 Q822.142 193.388 821.795 199.707 Q823.16 197.693 825.22 196.629 Q827.281 195.541 829.757 195.541 Q834.966 195.541 837.975 198.712 Q841.007 201.86 841.007 207.3 Q841.007 212.624 837.859 215.842 Q834.711 219.059 829.48 219.059 Q823.484 219.059 820.313 214.476 Q817.142 209.869 817.142 201.143 Q817.142 192.948 821.031 188.087 Q824.92 183.203 831.47 183.203 Q833.23 183.203 835.012 183.55 Q836.818 183.897 838.762 184.592 Z" fill="#000000" fill-rule="nonzero" fill-opacity="1" /><path clip-path="url(#clip320)" d="M880.868 188.666 L880.868 201.559 L893.762 201.559 L893.762 205.494 L880.868 205.494 L880.868 218.388 L876.979 218.388 L876.979 205.494 L864.086 205.494 L864.086 201.559 L876.979 201.559 L876.979 188.666 L880.868 188.666 Z" fill="#000000" fill-rule="nonzero" fill-opacity="1" /><path clip-path="url(#clip320)" d="M913.854 186.907 Q910.243 186.907 908.414 190.471 Q906.609 194.013 906.609 201.143 Q906.609 208.249 908.414 211.814 Q910.243 215.355 913.854 215.355 Q917.488 215.355 919.294 211.814 Q921.123 208.249 921.123 201.143 Q921.123 194.013 919.294 190.471 Q917.488 186.907 913.854 186.907 M913.854 183.203 Q919.664 183.203 922.72 187.809 Q925.799 192.393 925.799 201.143 Q925.799 209.869 922.72 214.476 Q919.664 219.059 913.854 219.059 Q908.044 219.059 904.965 214.476 Q901.91 209.869 901.91 201.143 Q901.91 192.393 904.965 187.809 Q908.044 183.203 913.854 183.203 Z" fill="#000000" fill-rule="nonzero" fill-opacity="1" /><path clip-path="url(#clip320)" d="M934.016 212.508 L938.9 212.508 L938.9 218.388 L934.016 218.388 L934.016 212.508 Z" fill="#000000" fill-rule="nonzero" fill-opacity="1" /><path clip-path="url(#clip320)" d="M959.085 186.907 Q955.474 186.907 953.646 190.471 Q951.84 194.013 951.84 201.143 Q951.84 208.249 953.646 211.814 Q955.474 215.355 959.085 215.355 Q962.72 215.355 964.525 211.814 Q966.354 208.249 966.354 201.143 Q966.354 194.013 964.525 190.471 Q962.72 186.907 959.085 186.907 M959.085 183.203 Q964.896 183.203 967.951 187.809 Q971.03 192.393 971.03 201.143 Q971.03 209.869 967.951 214.476 Q964.896 219.059 959.085 219.059 Q953.275 219.059 950.197 214.476 Q947.141 209.869 947.141 201.143 Q947.141 192.393 950.197 187.809 Q953.275 183.203 959.085 183.203 Z" fill="#000000" fill-rule="nonzero" fill-opacity="1" /><path clip-path="url(#clip320)" d="M989.826 199.244 Q986.678 199.244 984.826 201.397 Q982.997 203.55 982.997 207.3 Q982.997 211.027 984.826 213.203 Q986.678 215.355 989.826 215.355 Q992.974 215.355 994.803 213.203 Q996.655 211.027 996.655 207.3 Q996.655 203.55 994.803 201.397 Q992.974 199.244 989.826 199.244 M999.108 184.592 L999.108 188.851 Q997.349 188.018 995.544 187.578 Q993.761 187.138 992.002 187.138 Q987.372 187.138 984.919 190.263 Q982.488 193.388 982.141 199.707 Q983.507 197.693 985.567 196.629 Q987.627 195.541 990.104 195.541 Q995.312 195.541 998.321 198.712 Q1001.35 201.86 1001.35 207.3 Q1001.35 212.624 998.206 215.842 Q995.057 219.059 989.826 219.059 Q983.831 219.059 980.659 214.476 Q977.488 209.869 977.488 201.143 Q977.488 192.948 981.377 188.087 Q985.266 183.203 991.817 183.203 Q993.576 183.203 995.358 183.55 Q997.164 183.897 999.108 184.592 Z" fill="#000000" fill-rule="nonzero" fill-opacity="1" /><path clip-path="url(#clip320)" d="M1016.38 183.828 L1020.31 183.828 L1008.28 222.786 L1004.34 222.786 L1016.38 183.828 Z" fill="#000000" fill-rule="nonzero" fill-opacity="1" /><path clip-path="url(#clip320)" d="M1022.63 203.504 L1035.1 203.504 L1035.1 207.3 L1022.63 207.3 L1022.63 203.504 Z" fill="#000000" fill-rule="nonzero" fill-opacity="1" /><path clip-path="url(#clip320)" d="M1052.49 186.907 Q1048.88 186.907 1047.05 190.471 Q1045.24 194.013 1045.24 201.143 Q1045.24 208.249 1047.05 211.814 Q1048.88 215.355 1052.49 215.355 Q1056.12 215.355 1057.93 211.814 Q1059.76 208.249 1059.76 201.143 Q1059.76 194.013 1057.93 190.471 Q1056.12 186.907 1052.49 186.907 M1052.49 183.203 Q1058.3 183.203 1061.35 187.809 Q1064.43 192.393 1064.43 201.143 Q1064.43 209.869 1061.35 214.476 Q1058.3 219.059 1052.49 219.059 Q1046.68 219.059 1043.6 214.476 Q1040.54 209.869 1040.54 201.143 Q1040.54 192.393 1043.6 187.809 Q1046.68 183.203 1052.49 183.203 Z" fill="#000000" fill-rule="nonzero" fill-opacity="1" /><path clip-path="url(#clip320)" d="M1072.65 212.508 L1077.53 212.508 L1077.53 218.388 L1072.65 218.388 L1072.65 212.508 Z" fill="#000000" fill-rule="nonzero" fill-opacity="1" /><path clip-path="url(#clip320)" d="M1088.53 214.453 L1096.17 214.453 L1096.17 188.087 L1087.86 189.754 L1087.86 185.494 L1096.12 183.828 L1100.8 183.828 L1100.8 214.453 L1108.44 214.453 L1108.44 218.388 L1088.53 218.388 L1088.53 214.453 Z" fill="#000000" fill-rule="nonzero" fill-opacity="1" /><path clip-path="url(#clip320)" d="M1121.91 214.453 L1138.23 214.453 L1138.23 218.388 L1116.28 218.388 L1116.28 214.453 Q1118.95 211.698 1123.53 207.068 Q1128.14 202.416 1129.32 201.073 Q1131.56 198.55 1132.44 196.814 Q1133.34 195.055 1133.34 193.365 Q1133.34 190.61 1131.4 188.874 Q1129.48 187.138 1126.38 187.138 Q1124.18 187.138 1121.72 187.902 Q1119.29 188.666 1116.52 190.217 L1116.52 185.494 Q1119.34 184.36 1121.79 183.782 Q1124.25 183.203 1126.28 183.203 Q1131.65 183.203 1134.85 185.888 Q1138.04 188.573 1138.04 193.064 Q1138.04 195.194 1137.23 197.115 Q1136.45 199.013 1134.34 201.606 Q1133.76 202.277 1130.66 205.494 Q1127.56 208.689 1121.91 214.453 Z" fill="#000000" fill-rule="nonzero" fill-opacity="1" /><path clip-path="url(#clip320)" d="M1148.18 217.67 L1148.18 213.411 Q1149.94 214.244 1151.75 214.684 Q1153.55 215.124 1155.29 215.124 Q1159.92 215.124 1162.35 212.022 Q1164.8 208.897 1165.15 202.555 Q1163.81 204.545 1161.75 205.61 Q1159.69 206.675 1157.19 206.675 Q1152 206.675 1148.97 203.55 Q1145.96 200.402 1145.96 194.962 Q1145.96 189.638 1149.11 186.42 Q1152.26 183.203 1157.49 183.203 Q1163.48 183.203 1166.63 187.809 Q1169.8 192.393 1169.8 201.143 Q1169.8 209.314 1165.91 214.198 Q1162.05 219.059 1155.5 219.059 Q1153.74 219.059 1151.93 218.712 Q1150.13 218.365 1148.18 217.67 M1157.49 203.018 Q1160.64 203.018 1162.46 200.865 Q1164.32 198.712 1164.32 194.962 Q1164.32 191.235 1162.46 189.082 Q1160.64 186.907 1157.49 186.907 Q1154.34 186.907 1152.49 189.082 Q1150.66 191.235 1150.66 194.962 Q1150.66 198.712 1152.49 200.865 Q1154.34 203.018 1157.49 203.018 Z" fill="#000000" fill-rule="nonzero" fill-opacity="1" /><path clip-path="url(#clip320)" d="M1192.86 183.828 L1199.82 183.828 L1208.64 207.346 L1217.51 183.828 L1224.48 183.828 L1224.48 218.388 L1219.92 218.388 L1219.92 188.041 L1211.01 211.744 L1206.31 211.744 L1197.39 188.041 L1197.39 218.388 L1192.86 218.388 L1192.86 183.828 Z" fill="#000000" fill-rule="nonzero" fill-opacity="1" /><path clip-path="url(#clip320)" d="M1245.36 205.355 Q1240.2 205.355 1238.2 206.536 Q1236.21 207.717 1236.21 210.564 Q1236.21 212.832 1237.7 214.175 Q1239.2 215.494 1241.77 215.494 Q1245.31 215.494 1247.44 212.994 Q1249.59 210.471 1249.59 206.305 L1249.59 205.355 L1245.36 205.355 M1253.85 203.596 L1253.85 218.388 L1249.59 218.388 L1249.59 214.453 Q1248.13 216.814 1245.96 217.948 Q1243.78 219.059 1240.63 219.059 Q1236.65 219.059 1234.29 216.837 Q1231.95 214.592 1231.95 210.842 Q1231.95 206.467 1234.87 204.244 Q1237.81 202.022 1243.62 202.022 L1249.59 202.022 L1249.59 201.606 Q1249.59 198.666 1247.65 197.068 Q1245.73 195.448 1242.23 195.448 Q1240.01 195.448 1237.9 195.981 Q1235.8 196.513 1233.85 197.578 L1233.85 193.643 Q1236.19 192.74 1238.39 192.3 Q1240.59 191.837 1242.67 191.837 Q1248.3 191.837 1251.07 194.754 Q1253.85 197.67 1253.85 203.596 Z" fill="#000000" fill-rule="nonzero" fill-opacity="1" /><path clip-path="url(#clip320)" d="M1261.95 182.416 L1265.66 182.416 Q1269.13 187.879 1270.84 193.11 Q1272.58 198.342 1272.58 203.504 Q1272.58 208.689 1270.84 213.943 Q1269.13 219.198 1265.66 224.638 L1261.95 224.638 Q1265.03 219.337 1266.54 214.105 Q1268.07 208.851 1268.07 203.504 Q1268.07 198.156 1266.54 192.948 Q1265.03 187.74 1261.95 182.416 Z" fill="#000000" fill-rule="nonzero" fill-opacity="1" /></svg>
