<?xml version="1.0" encoding="utf-8"?>
<svg xmlns="http://www.w3.org/2000/svg" xmlns:xlink="http://www.w3.org/1999/xlink" width="600" height="400" viewBox="0 0 2400 1600">
<defs>
  <clipPath id="clip360">
    <rect x="0" y="0" width="2400" height="1600"/>
  </clipPath>
</defs>
<path clip-path="url(#clip360)" d="M0 1600 L2400 1600 L2400 8.88178e-14 L0 8.88178e-14  Z" fill="#ffffff" fill-rule="evenodd" fill-opacity="1"/>
<defs>
  <clipPath id="clip361">
    <rect x="480" y="0" width="1681" height="1600"/>
  </clipPath>
</defs>
<path clip-path="url(#clip360)" d="M202.227 1423.18 L2352.76 1423.18 L2352.76 47.2441 L202.227 47.2441  Z" fill="#ffffff" fill-rule="evenodd" fill-opacity="1"/>
<defs>
  <clipPath id="clip362">
    <rect x="202" y="47" width="2152" height="1377"/>
  </clipPath>
</defs>
<polyline clip-path="url(#clip362)" style="stroke:#000000; stroke-linecap:round; stroke-linejoin:round; stroke-width:2; stroke-opacity:0.1; fill:none" points="461.353,1423.18 461.353,47.2441 "/>
<polyline clip-path="url(#clip362)" style="stroke:#000000; stroke-linecap:round; stroke-linejoin:round; stroke-width:2; stroke-opacity:0.1; fill:none" points="736.597,1423.18 736.597,47.2441 "/>
<polyline clip-path="url(#clip362)" style="stroke:#000000; stroke-linecap:round; stroke-linejoin:round; stroke-width:2; stroke-opacity:0.1; fill:none" points="1011.84,1423.18 1011.84,47.2441 "/>
<polyline clip-path="url(#clip362)" style="stroke:#000000; stroke-linecap:round; stroke-linejoin:round; stroke-width:2; stroke-opacity:0.1; fill:none" points="1287.09,1423.18 1287.09,47.2441 "/>
<polyline clip-path="url(#clip362)" style="stroke:#000000; stroke-linecap:round; stroke-linejoin:round; stroke-width:2; stroke-opacity:0.1; fill:none" points="1562.33,1423.18 1562.33,47.2441 "/>
<polyline clip-path="url(#clip362)" style="stroke:#000000; stroke-linecap:round; stroke-linejoin:round; stroke-width:2; stroke-opacity:0.1; fill:none" points="1837.57,1423.18 1837.57,47.2441 "/>
<polyline clip-path="url(#clip362)" style="stroke:#000000; stroke-linecap:round; stroke-linejoin:round; stroke-width:2; stroke-opacity:0.1; fill:none" points="2112.82,1423.18 2112.82,47.2441 "/>
<polyline clip-path="url(#clip362)" style="stroke:#000000; stroke-linecap:round; stroke-linejoin:round; stroke-width:2; stroke-opacity:0.1; fill:none" points="461.353,1423.18 461.353,47.2441 "/>
<polyline clip-path="url(#clip362)" style="stroke:#000000; stroke-linecap:round; stroke-linejoin:round; stroke-width:2; stroke-opacity:0.1; fill:none" points="736.597,1423.18 736.597,47.2441 "/>
<polyline clip-path="url(#clip362)" style="stroke:#000000; stroke-linecap:round; stroke-linejoin:round; stroke-width:2; stroke-opacity:0.1; fill:none" points="1011.84,1423.18 1011.84,47.2441 "/>
<polyline clip-path="url(#clip362)" style="stroke:#000000; stroke-linecap:round; stroke-linejoin:round; stroke-width:2; stroke-opacity:0.1; fill:none" points="1287.09,1423.18 1287.09,47.2441 "/>
<polyline clip-path="url(#clip362)" style="stroke:#000000; stroke-linecap:round; stroke-linejoin:round; stroke-width:2; stroke-opacity:0.1; fill:none" points="1562.33,1423.18 1562.33,47.2441 "/>
<polyline clip-path="url(#clip362)" style="stroke:#000000; stroke-linecap:round; stroke-linejoin:round; stroke-width:2; stroke-opacity:0.1; fill:none" points="1837.57,1423.18 1837.57,47.2441 "/>
<polyline clip-path="url(#clip362)" style="stroke:#000000; stroke-linecap:round; stroke-linejoin:round; stroke-width:2; stroke-opacity:0.1; fill:none" points="2112.82,1423.18 2112.82,47.2441 "/>
<polyline clip-path="url(#clip362)" style="stroke:#000000; stroke-linecap:round; stroke-linejoin:round; stroke-width:2; stroke-opacity:0.1; fill:none" points="202.227,1384.24 2352.76,1384.24 "/>
<polyline clip-path="url(#clip362)" style="stroke:#000000; stroke-linecap:round; stroke-linejoin:round; stroke-width:2; stroke-opacity:0.1; fill:none" points="202.227,1188.98 2352.76,1188.98 "/>
<polyline clip-path="url(#clip362)" style="stroke:#000000; stroke-linecap:round; stroke-linejoin:round; stroke-width:2; stroke-opacity:0.1; fill:none" points="202.227,993.73 2352.76,993.73 "/>
<polyline clip-path="url(#clip362)" style="stroke:#000000; stroke-linecap:round; stroke-linejoin:round; stroke-width:2; stroke-opacity:0.1; fill:none" points="202.227,798.476 2352.76,798.476 "/>
<polyline clip-path="url(#clip362)" style="stroke:#000000; stroke-linecap:round; stroke-linejoin:round; stroke-width:2; stroke-opacity:0.1; fill:none" points="202.227,603.222 2352.76,603.222 "/>
<polyline clip-path="url(#clip362)" style="stroke:#000000; stroke-linecap:round; stroke-linejoin:round; stroke-width:2; stroke-opacity:0.1; fill:none" points="202.227,407.968 2352.76,407.968 "/>
<polyline clip-path="url(#clip362)" style="stroke:#000000; stroke-linecap:round; stroke-linejoin:round; stroke-width:2; stroke-opacity:0.1; fill:none" points="202.227,212.714 2352.76,212.714 "/>
<polyline clip-path="url(#clip362)" style="stroke:#000000; stroke-linecap:round; stroke-linejoin:round; stroke-width:2; stroke-opacity:0.1; fill:none" points="202.227,1384.24 2352.76,1384.24 "/>
<polyline clip-path="url(#clip362)" style="stroke:#000000; stroke-linecap:round; stroke-linejoin:round; stroke-width:2; stroke-opacity:0.1; fill:none" points="202.227,1188.98 2352.76,1188.98 "/>
<polyline clip-path="url(#clip362)" style="stroke:#000000; stroke-linecap:round; stroke-linejoin:round; stroke-width:2; stroke-opacity:0.1; fill:none" points="202.227,993.73 2352.76,993.73 "/>
<polyline clip-path="url(#clip362)" style="stroke:#000000; stroke-linecap:round; stroke-linejoin:round; stroke-width:2; stroke-opacity:0.1; fill:none" points="202.227,798.476 2352.76,798.476 "/>
<polyline clip-path="url(#clip362)" style="stroke:#000000; stroke-linecap:round; stroke-linejoin:round; stroke-width:2; stroke-opacity:0.1; fill:none" points="202.227,603.222 2352.76,603.222 "/>
<polyline clip-path="url(#clip362)" style="stroke:#000000; stroke-linecap:round; stroke-linejoin:round; stroke-width:2; stroke-opacity:0.1; fill:none" points="202.227,407.968 2352.76,407.968 "/>
<polyline clip-path="url(#clip362)" style="stroke:#000000; stroke-linecap:round; stroke-linejoin:round; stroke-width:2; stroke-opacity:0.1; fill:none" points="202.227,212.714 2352.76,212.714 "/>
<polyline clip-path="url(#clip360)" style="stroke:#000000; stroke-linecap:round; stroke-linejoin:round; stroke-width:4; stroke-opacity:1; fill:none" points="202.227,1423.18 2352.76,1423.18 "/>
<polyline clip-path="url(#clip360)" style="stroke:#000000; stroke-linecap:round; stroke-linejoin:round; stroke-width:4; stroke-opacity:1; fill:none" points="202.227,47.2441 2352.76,47.2441 "/>
<polyline clip-path="url(#clip360)" style="stroke:#000000; stroke-linecap:round; stroke-linejoin:round; stroke-width:4; stroke-opacity:1; fill:none" points="461.353,1423.18 461.353,1404.28 "/>
<polyline clip-path="url(#clip360)" style="stroke:#000000; stroke-linecap:round; stroke-linejoin:round; stroke-width:4; stroke-opacity:1; fill:none" points="736.597,1423.18 736.597,1404.28 "/>
<polyline clip-path="url(#clip360)" style="stroke:#000000; stroke-linecap:round; stroke-linejoin:round; stroke-width:4; stroke-opacity:1; fill:none" points="1011.84,1423.18 1011.84,1404.28 "/>
<polyline clip-path="url(#clip360)" style="stroke:#000000; stroke-linecap:round; stroke-linejoin:round; stroke-width:4; stroke-opacity:1; fill:none" points="1287.09,1423.18 1287.09,1404.28 "/>
<polyline clip-path="url(#clip360)" style="stroke:#000000; stroke-linecap:round; stroke-linejoin:round; stroke-width:4; stroke-opacity:1; fill:none" points="1562.33,1423.18 1562.33,1404.28 "/>
<polyline clip-path="url(#clip360)" style="stroke:#000000; stroke-linecap:round; stroke-linejoin:round; stroke-width:4; stroke-opacity:1; fill:none" points="1837.57,1423.18 1837.57,1404.28 "/>
<polyline clip-path="url(#clip360)" style="stroke:#000000; stroke-linecap:round; stroke-linejoin:round; stroke-width:4; stroke-opacity:1; fill:none" points="2112.82,1423.18 2112.82,1404.28 "/>
<polyline clip-path="url(#clip360)" style="stroke:#000000; stroke-linecap:round; stroke-linejoin:round; stroke-width:4; stroke-opacity:1; fill:none" points="461.353,47.2441 461.353,66.1417 "/>
<polyline clip-path="url(#clip360)" style="stroke:#000000; stroke-linecap:round; stroke-linejoin:round; stroke-width:4; stroke-opacity:1; fill:none" points="736.597,47.2441 736.597,66.1417 "/>
<polyline clip-path="url(#clip360)" style="stroke:#000000; stroke-linecap:round; stroke-linejoin:round; stroke-width:4; stroke-opacity:1; fill:none" points="1011.84,47.2441 1011.84,66.1417 "/>
<polyline clip-path="url(#clip360)" style="stroke:#000000; stroke-linecap:round; stroke-linejoin:round; stroke-width:4; stroke-opacity:1; fill:none" points="1287.09,47.2441 1287.09,66.1417 "/>
<polyline clip-path="url(#clip360)" style="stroke:#000000; stroke-linecap:round; stroke-linejoin:round; stroke-width:4; stroke-opacity:1; fill:none" points="1562.33,47.2441 1562.33,66.1417 "/>
<polyline clip-path="url(#clip360)" style="stroke:#000000; stroke-linecap:round; stroke-linejoin:round; stroke-width:4; stroke-opacity:1; fill:none" points="1837.57,47.2441 1837.57,66.1417 "/>
<polyline clip-path="url(#clip360)" style="stroke:#000000; stroke-linecap:round; stroke-linejoin:round; stroke-width:4; stroke-opacity:1; fill:none" points="2112.82,47.2441 2112.82,66.1417 "/>
<path clip-path="url(#clip360)" d="M424.594 1466.44 Q421.445 1466.44 419.594 1468.59 Q417.765 1470.74 417.765 1474.49 Q417.765 1478.22 419.594 1480.39 Q421.445 1482.55 424.594 1482.55 Q427.742 1482.55 429.57 1480.39 Q431.422 1478.22 431.422 1474.49 Q431.422 1470.74 429.57 1468.59 Q427.742 1466.44 424.594 1466.44 M433.876 1451.78 L433.876 1456.04 Q432.117 1455.21 430.311 1454.77 Q428.529 1454.33 426.769 1454.33 Q422.14 1454.33 419.686 1457.45 Q417.256 1460.58 416.908 1466.9 Q418.274 1464.89 420.334 1463.82 Q422.394 1462.73 424.871 1462.73 Q430.08 1462.73 433.089 1465.9 Q436.121 1469.05 436.121 1474.49 Q436.121 1479.82 432.973 1483.03 Q429.825 1486.25 424.594 1486.25 Q418.598 1486.25 415.427 1481.67 Q412.256 1477.06 412.256 1468.33 Q412.256 1460.14 416.144 1455.28 Q420.033 1450.39 426.584 1450.39 Q428.343 1450.39 430.126 1450.74 Q431.931 1451.09 433.876 1451.78 Z" fill="#000000" fill-rule="nonzero" fill-opacity="1" /><path clip-path="url(#clip360)" d="M444.223 1451.02 L462.579 1451.02 L462.579 1454.96 L448.505 1454.96 L448.505 1463.43 Q449.524 1463.08 450.542 1462.92 Q451.561 1462.73 452.579 1462.73 Q458.366 1462.73 461.746 1465.9 Q465.126 1469.08 465.126 1474.49 Q465.126 1480.07 461.653 1483.17 Q458.181 1486.25 451.862 1486.25 Q449.686 1486.25 447.417 1485.88 Q445.172 1485.51 442.765 1484.77 L442.765 1480.07 Q444.848 1481.2 447.07 1481.76 Q449.292 1482.32 451.769 1482.32 Q455.774 1482.32 458.112 1480.21 Q460.45 1478.1 460.45 1474.49 Q460.45 1470.88 458.112 1468.77 Q455.774 1466.67 451.769 1466.67 Q449.894 1466.67 448.019 1467.08 Q446.167 1467.5 444.223 1468.38 L444.223 1451.02 Z" fill="#000000" fill-rule="nonzero" fill-opacity="1" /><path clip-path="url(#clip360)" d="M474.339 1479.7 L479.223 1479.7 L479.223 1485.58 L474.339 1485.58 L474.339 1479.7 Z" fill="#000000" fill-rule="nonzero" fill-opacity="1" /><path clip-path="url(#clip360)" d="M488.227 1451.02 L510.45 1451.02 L510.45 1453.01 L497.903 1485.58 L493.019 1485.58 L504.825 1454.96 L488.227 1454.96 L488.227 1451.02 Z" fill="#000000" fill-rule="nonzero" fill-opacity="1" /><path clip-path="url(#clip360)" d="M699.433 1466.44 Q696.285 1466.44 694.433 1468.59 Q692.604 1470.74 692.604 1474.49 Q692.604 1478.22 694.433 1480.39 Q696.285 1482.55 699.433 1482.55 Q702.581 1482.55 704.41 1480.39 Q706.261 1478.22 706.261 1474.49 Q706.261 1470.74 704.41 1468.59 Q702.581 1466.44 699.433 1466.44 M708.715 1451.78 L708.715 1456.04 Q706.956 1455.21 705.15 1454.77 Q703.368 1454.33 701.609 1454.33 Q696.979 1454.33 694.525 1457.45 Q692.095 1460.58 691.748 1466.9 Q693.113 1464.89 695.174 1463.82 Q697.234 1462.73 699.711 1462.73 Q704.919 1462.73 707.928 1465.9 Q710.961 1469.05 710.961 1474.49 Q710.961 1479.82 707.812 1483.03 Q704.664 1486.25 699.433 1486.25 Q693.437 1486.25 690.266 1481.67 Q687.095 1477.06 687.095 1468.33 Q687.095 1460.14 690.984 1455.28 Q694.873 1450.39 701.424 1450.39 Q703.183 1450.39 704.965 1450.74 Q706.771 1451.09 708.715 1451.78 Z" fill="#000000" fill-rule="nonzero" fill-opacity="1" /><path clip-path="url(#clip360)" d="M719.062 1451.02 L737.419 1451.02 L737.419 1454.96 L723.345 1454.96 L723.345 1463.43 Q724.363 1463.08 725.382 1462.92 Q726.4 1462.73 727.419 1462.73 Q733.206 1462.73 736.585 1465.9 Q739.965 1469.08 739.965 1474.49 Q739.965 1480.07 736.493 1483.17 Q733.021 1486.25 726.701 1486.25 Q724.525 1486.25 722.257 1485.88 Q720.011 1485.51 717.604 1484.77 L717.604 1480.07 Q719.687 1481.2 721.91 1481.76 Q724.132 1482.32 726.609 1482.32 Q730.613 1482.32 732.951 1480.21 Q735.289 1478.1 735.289 1474.49 Q735.289 1470.88 732.951 1468.77 Q730.613 1466.67 726.609 1466.67 Q724.734 1466.67 722.859 1467.08 Q721.007 1467.5 719.062 1468.38 L719.062 1451.02 Z" fill="#000000" fill-rule="nonzero" fill-opacity="1" /><path clip-path="url(#clip360)" d="M749.178 1479.7 L754.062 1479.7 L754.062 1485.58 L749.178 1485.58 L749.178 1479.7 Z" fill="#000000" fill-rule="nonzero" fill-opacity="1" /><path clip-path="url(#clip360)" d="M774.247 1469.17 Q770.914 1469.17 768.993 1470.95 Q767.094 1472.73 767.094 1475.86 Q767.094 1478.98 768.993 1480.77 Q770.914 1482.55 774.247 1482.55 Q777.581 1482.55 779.502 1480.77 Q781.423 1478.96 781.423 1475.86 Q781.423 1472.73 779.502 1470.95 Q777.604 1469.17 774.247 1469.17 M769.571 1467.18 Q766.562 1466.44 764.872 1464.38 Q763.206 1462.32 763.206 1459.35 Q763.206 1455.21 766.145 1452.8 Q769.108 1450.39 774.247 1450.39 Q779.409 1450.39 782.349 1452.8 Q785.289 1455.21 785.289 1459.35 Q785.289 1462.32 783.599 1464.38 Q781.932 1466.44 778.946 1467.18 Q782.326 1467.96 784.201 1470.26 Q786.099 1472.55 786.099 1475.86 Q786.099 1480.88 783.02 1483.57 Q779.965 1486.25 774.247 1486.25 Q768.53 1486.25 765.451 1483.57 Q762.395 1480.88 762.395 1475.86 Q762.395 1472.55 764.294 1470.26 Q766.192 1467.96 769.571 1467.18 M767.858 1459.79 Q767.858 1462.48 769.525 1463.98 Q771.215 1465.49 774.247 1465.49 Q777.256 1465.49 778.946 1463.98 Q780.659 1462.48 780.659 1459.79 Q780.659 1457.11 778.946 1455.6 Q777.256 1454.1 774.247 1454.1 Q771.215 1454.1 769.525 1455.6 Q767.858 1457.11 767.858 1459.79 Z" fill="#000000" fill-rule="nonzero" fill-opacity="1" /><path clip-path="url(#clip360)" d="M974.723 1466.44 Q971.575 1466.44 969.723 1468.59 Q967.895 1470.74 967.895 1474.49 Q967.895 1478.22 969.723 1480.39 Q971.575 1482.55 974.723 1482.55 Q977.872 1482.55 979.7 1480.39 Q981.552 1478.22 981.552 1474.49 Q981.552 1470.74 979.7 1468.59 Q977.872 1466.44 974.723 1466.44 M984.006 1451.78 L984.006 1456.04 Q982.247 1455.21 980.441 1454.77 Q978.659 1454.33 976.899 1454.33 Q972.27 1454.33 969.816 1457.45 Q967.386 1460.58 967.038 1466.9 Q968.404 1464.89 970.464 1463.82 Q972.524 1462.73 975.001 1462.73 Q980.21 1462.73 983.219 1465.9 Q986.251 1469.05 986.251 1474.49 Q986.251 1479.82 983.103 1483.03 Q979.955 1486.25 974.723 1486.25 Q968.728 1486.25 965.557 1481.67 Q962.386 1477.06 962.386 1468.33 Q962.386 1460.14 966.274 1455.28 Q970.163 1450.39 976.714 1450.39 Q978.473 1450.39 980.256 1450.74 Q982.061 1451.09 984.006 1451.78 Z" fill="#000000" fill-rule="nonzero" fill-opacity="1" /><path clip-path="url(#clip360)" d="M994.353 1451.02 L1012.71 1451.02 L1012.71 1454.96 L998.635 1454.96 L998.635 1463.43 Q999.654 1463.08 1000.67 1462.92 Q1001.69 1462.73 1002.71 1462.73 Q1008.5 1462.73 1011.88 1465.9 Q1015.26 1469.08 1015.26 1474.49 Q1015.26 1480.07 1011.78 1483.17 Q1008.31 1486.25 1001.99 1486.25 Q999.816 1486.25 997.547 1485.88 Q995.302 1485.51 992.895 1484.77 L992.895 1480.07 Q994.978 1481.2 997.2 1481.76 Q999.422 1482.32 1001.9 1482.32 Q1005.9 1482.32 1008.24 1480.21 Q1010.58 1478.1 1010.58 1474.49 Q1010.58 1470.88 1008.24 1468.77 Q1005.9 1466.67 1001.9 1466.67 Q1000.02 1466.67 998.149 1467.08 Q996.297 1467.5 994.353 1468.38 L994.353 1451.02 Z" fill="#000000" fill-rule="nonzero" fill-opacity="1" /><path clip-path="url(#clip360)" d="M1024.47 1479.7 L1029.35 1479.7 L1029.35 1485.58 L1024.47 1485.58 L1024.47 1479.7 Z" fill="#000000" fill-rule="nonzero" fill-opacity="1" /><path clip-path="url(#clip360)" d="M1039.68 1484.86 L1039.68 1480.6 Q1041.44 1481.44 1043.24 1481.88 Q1045.05 1482.32 1046.78 1482.32 Q1051.41 1482.32 1053.84 1479.21 Q1056.3 1476.09 1056.64 1469.75 Q1055.3 1471.74 1053.24 1472.8 Q1051.18 1473.87 1048.68 1473.87 Q1043.5 1473.87 1040.46 1470.74 Q1037.45 1467.59 1037.45 1462.15 Q1037.45 1456.83 1040.6 1453.61 Q1043.75 1450.39 1048.98 1450.39 Q1054.98 1450.39 1058.13 1455 Q1061.3 1459.58 1061.3 1468.33 Q1061.3 1476.51 1057.41 1481.39 Q1053.54 1486.25 1046.99 1486.25 Q1045.23 1486.25 1043.43 1485.9 Q1041.62 1485.56 1039.68 1484.86 M1048.98 1470.21 Q1052.13 1470.21 1053.96 1468.06 Q1055.81 1465.9 1055.81 1462.15 Q1055.81 1458.43 1053.96 1456.27 Q1052.13 1454.1 1048.98 1454.1 Q1045.83 1454.1 1043.98 1456.27 Q1042.15 1458.43 1042.15 1462.15 Q1042.15 1465.9 1043.98 1468.06 Q1045.83 1470.21 1048.98 1470.21 Z" fill="#000000" fill-rule="nonzero" fill-opacity="1" /><path clip-path="url(#clip360)" d="M1249.88 1466.44 Q1246.73 1466.44 1244.88 1468.59 Q1243.05 1470.74 1243.05 1474.49 Q1243.05 1478.22 1244.88 1480.39 Q1246.73 1482.55 1249.88 1482.55 Q1253.02 1482.55 1254.85 1480.39 Q1256.7 1478.22 1256.7 1474.49 Q1256.7 1470.74 1254.85 1468.59 Q1253.02 1466.44 1249.88 1466.44 M1259.16 1451.78 L1259.16 1456.04 Q1257.4 1455.21 1255.59 1454.77 Q1253.81 1454.33 1252.05 1454.33 Q1247.42 1454.33 1244.97 1457.45 Q1242.54 1460.58 1242.19 1466.9 Q1243.56 1464.89 1245.62 1463.82 Q1247.68 1462.73 1250.15 1462.73 Q1255.36 1462.73 1258.37 1465.9 Q1261.4 1469.05 1261.4 1474.49 Q1261.4 1479.82 1258.25 1483.03 Q1255.11 1486.25 1249.88 1486.25 Q1243.88 1486.25 1240.71 1481.67 Q1237.54 1477.06 1237.54 1468.33 Q1237.54 1460.14 1241.43 1455.28 Q1245.32 1450.39 1251.87 1450.39 Q1253.63 1450.39 1255.41 1450.74 Q1257.21 1451.09 1259.16 1451.78 Z" fill="#000000" fill-rule="nonzero" fill-opacity="1" /><path clip-path="url(#clip360)" d="M1280.04 1466.44 Q1276.89 1466.44 1275.04 1468.59 Q1273.21 1470.74 1273.21 1474.49 Q1273.21 1478.22 1275.04 1480.39 Q1276.89 1482.55 1280.04 1482.55 Q1283.19 1482.55 1285.01 1480.39 Q1286.87 1478.22 1286.87 1474.49 Q1286.87 1470.74 1285.01 1468.59 Q1283.19 1466.44 1280.04 1466.44 M1289.32 1451.78 L1289.32 1456.04 Q1287.56 1455.21 1285.75 1454.77 Q1283.97 1454.33 1282.21 1454.33 Q1277.58 1454.33 1275.13 1457.45 Q1272.7 1460.58 1272.35 1466.9 Q1273.72 1464.89 1275.78 1463.82 Q1277.84 1462.73 1280.31 1462.73 Q1285.52 1462.73 1288.53 1465.9 Q1291.56 1469.05 1291.56 1474.49 Q1291.56 1479.82 1288.42 1483.03 Q1285.27 1486.25 1280.04 1486.25 Q1274.04 1486.25 1270.87 1481.67 Q1267.7 1477.06 1267.7 1468.33 Q1267.7 1460.14 1271.59 1455.28 Q1275.48 1450.39 1282.03 1450.39 Q1283.79 1450.39 1285.57 1450.74 Q1287.38 1451.09 1289.32 1451.78 Z" fill="#000000" fill-rule="nonzero" fill-opacity="1" /><path clip-path="url(#clip360)" d="M1299.62 1479.7 L1304.5 1479.7 L1304.5 1485.58 L1299.62 1485.58 L1299.62 1479.7 Z" fill="#000000" fill-rule="nonzero" fill-opacity="1" /><path clip-path="url(#clip360)" d="M1324.69 1454.1 Q1321.08 1454.1 1319.25 1457.66 Q1317.44 1461.2 1317.44 1468.33 Q1317.44 1475.44 1319.25 1479.01 Q1321.08 1482.55 1324.69 1482.55 Q1328.32 1482.55 1330.13 1479.01 Q1331.96 1475.44 1331.96 1468.33 Q1331.96 1461.2 1330.13 1457.66 Q1328.32 1454.1 1324.69 1454.1 M1324.69 1450.39 Q1330.5 1450.39 1333.56 1455 Q1336.63 1459.58 1336.63 1468.33 Q1336.63 1477.06 1333.56 1481.67 Q1330.5 1486.25 1324.69 1486.25 Q1318.88 1486.25 1315.8 1481.67 Q1312.75 1477.06 1312.75 1468.33 Q1312.75 1459.58 1315.8 1455 Q1318.88 1450.39 1324.69 1450.39 Z" fill="#000000" fill-rule="nonzero" fill-opacity="1" /><path clip-path="url(#clip360)" d="M1525.73 1466.44 Q1522.58 1466.44 1520.73 1468.59 Q1518.9 1470.74 1518.9 1474.49 Q1518.9 1478.22 1520.73 1480.39 Q1522.58 1482.55 1525.73 1482.55 Q1528.88 1482.55 1530.71 1480.39 Q1532.56 1478.22 1532.56 1474.49 Q1532.56 1470.74 1530.71 1468.59 Q1528.88 1466.44 1525.73 1466.44 M1535.02 1451.78 L1535.02 1456.04 Q1533.26 1455.21 1531.45 1454.77 Q1529.67 1454.33 1527.91 1454.33 Q1523.28 1454.33 1520.83 1457.45 Q1518.4 1460.58 1518.05 1466.9 Q1519.41 1464.89 1521.47 1463.82 Q1523.53 1462.73 1526.01 1462.73 Q1531.22 1462.73 1534.23 1465.9 Q1537.26 1469.05 1537.26 1474.49 Q1537.26 1479.82 1534.11 1483.03 Q1530.96 1486.25 1525.73 1486.25 Q1519.74 1486.25 1516.57 1481.67 Q1513.4 1477.06 1513.4 1468.33 Q1513.4 1460.14 1517.28 1455.28 Q1521.17 1450.39 1527.72 1450.39 Q1529.48 1450.39 1531.27 1450.74 Q1533.07 1451.09 1535.02 1451.78 Z" fill="#000000" fill-rule="nonzero" fill-opacity="1" /><path clip-path="url(#clip360)" d="M1555.89 1466.44 Q1552.75 1466.44 1550.89 1468.59 Q1549.07 1470.74 1549.07 1474.49 Q1549.07 1478.22 1550.89 1480.39 Q1552.75 1482.55 1555.89 1482.55 Q1559.04 1482.55 1560.87 1480.39 Q1562.72 1478.22 1562.72 1474.49 Q1562.72 1470.74 1560.87 1468.59 Q1559.04 1466.44 1555.89 1466.44 M1565.18 1451.78 L1565.18 1456.04 Q1563.42 1455.21 1561.61 1454.77 Q1559.83 1454.33 1558.07 1454.33 Q1553.44 1454.33 1550.99 1457.45 Q1548.56 1460.58 1548.21 1466.9 Q1549.58 1464.89 1551.64 1463.82 Q1553.7 1462.73 1556.17 1462.73 Q1561.38 1462.73 1564.39 1465.9 Q1567.42 1469.05 1567.42 1474.49 Q1567.42 1479.82 1564.27 1483.03 Q1561.13 1486.25 1555.89 1486.25 Q1549.9 1486.25 1546.73 1481.67 Q1543.56 1477.06 1543.56 1468.33 Q1543.56 1460.14 1547.45 1455.28 Q1551.33 1450.39 1557.89 1450.39 Q1559.64 1450.39 1561.43 1450.74 Q1563.23 1451.09 1565.18 1451.78 Z" fill="#000000" fill-rule="nonzero" fill-opacity="1" /><path clip-path="url(#clip360)" d="M1575.48 1479.7 L1580.36 1479.7 L1580.36 1485.58 L1575.48 1485.58 L1575.48 1479.7 Z" fill="#000000" fill-rule="nonzero" fill-opacity="1" /><path clip-path="url(#clip360)" d="M1591.36 1481.64 L1599 1481.64 L1599 1455.28 L1590.69 1456.95 L1590.69 1452.69 L1598.95 1451.02 L1603.63 1451.02 L1603.63 1481.64 L1611.26 1481.64 L1611.26 1485.58 L1591.36 1485.58 L1591.36 1481.64 Z" fill="#000000" fill-rule="nonzero" fill-opacity="1" /><path clip-path="url(#clip360)" d="M1801.16 1466.44 Q1798.01 1466.44 1796.16 1468.59 Q1794.33 1470.74 1794.33 1474.49 Q1794.33 1478.22 1796.16 1480.39 Q1798.01 1482.55 1801.16 1482.55 Q1804.31 1482.55 1806.14 1480.39 Q1807.99 1478.22 1807.99 1474.49 Q1807.99 1470.74 1806.14 1468.59 Q1804.31 1466.44 1801.16 1466.44 M1810.44 1451.78 L1810.44 1456.04 Q1808.69 1455.21 1806.88 1454.77 Q1805.1 1454.33 1803.34 1454.33 Q1798.71 1454.33 1796.26 1457.45 Q1793.82 1460.58 1793.48 1466.9 Q1794.84 1464.89 1796.9 1463.82 Q1798.96 1462.73 1801.44 1462.73 Q1806.65 1462.73 1809.66 1465.9 Q1812.69 1469.05 1812.69 1474.49 Q1812.69 1479.82 1809.54 1483.03 Q1806.39 1486.25 1801.16 1486.25 Q1795.17 1486.25 1792 1481.67 Q1788.82 1477.06 1788.82 1468.33 Q1788.82 1460.14 1792.71 1455.28 Q1796.6 1450.39 1803.15 1450.39 Q1804.91 1450.39 1806.69 1450.74 Q1808.5 1451.09 1810.44 1451.78 Z" fill="#000000" fill-rule="nonzero" fill-opacity="1" /><path clip-path="url(#clip360)" d="M1831.32 1466.44 Q1828.18 1466.44 1826.32 1468.59 Q1824.5 1470.74 1824.5 1474.49 Q1824.5 1478.22 1826.32 1480.39 Q1828.18 1482.55 1831.32 1482.55 Q1834.47 1482.55 1836.3 1480.39 Q1838.15 1478.22 1838.15 1474.49 Q1838.15 1470.74 1836.3 1468.59 Q1834.47 1466.44 1831.32 1466.44 M1840.61 1451.78 L1840.61 1456.04 Q1838.85 1455.21 1837.04 1454.77 Q1835.26 1454.33 1833.5 1454.33 Q1828.87 1454.33 1826.42 1457.45 Q1823.99 1460.58 1823.64 1466.9 Q1825.01 1464.89 1827.07 1463.82 Q1829.13 1462.73 1831.6 1462.73 Q1836.81 1462.73 1839.82 1465.9 Q1842.85 1469.05 1842.85 1474.49 Q1842.85 1479.82 1839.7 1483.03 Q1836.56 1486.25 1831.32 1486.25 Q1825.33 1486.25 1822.16 1481.67 Q1818.99 1477.06 1818.99 1468.33 Q1818.99 1460.14 1822.88 1455.28 Q1826.76 1450.39 1833.32 1450.39 Q1835.07 1450.39 1836.86 1450.74 Q1838.66 1451.09 1840.61 1451.78 Z" fill="#000000" fill-rule="nonzero" fill-opacity="1" /><path clip-path="url(#clip360)" d="M1850.91 1479.7 L1855.79 1479.7 L1855.79 1485.58 L1850.91 1485.58 L1850.91 1479.7 Z" fill="#000000" fill-rule="nonzero" fill-opacity="1" /><path clip-path="url(#clip360)" d="M1870 1481.64 L1886.32 1481.64 L1886.32 1485.58 L1864.38 1485.58 L1864.38 1481.64 Q1867.04 1478.89 1871.63 1474.26 Q1876.23 1469.61 1877.41 1468.27 Q1879.66 1465.74 1880.54 1464.01 Q1881.44 1462.25 1881.44 1460.56 Q1881.44 1457.8 1879.5 1456.07 Q1877.57 1454.33 1874.47 1454.33 Q1872.27 1454.33 1869.82 1455.09 Q1867.39 1455.86 1864.61 1457.41 L1864.61 1452.69 Q1867.44 1451.55 1869.89 1450.97 Q1872.34 1450.39 1874.38 1450.39 Q1879.75 1450.39 1882.94 1453.08 Q1886.14 1455.77 1886.14 1460.26 Q1886.14 1462.39 1885.33 1464.31 Q1884.54 1466.2 1882.44 1468.8 Q1881.86 1469.47 1878.75 1472.69 Q1875.65 1475.88 1870 1481.64 Z" fill="#000000" fill-rule="nonzero" fill-opacity="1" /><path clip-path="url(#clip360)" d="M2075.93 1466.44 Q2072.78 1466.44 2070.93 1468.59 Q2069.1 1470.74 2069.1 1474.49 Q2069.1 1478.22 2070.93 1480.39 Q2072.78 1482.55 2075.93 1482.55 Q2079.08 1482.55 2080.91 1480.39 Q2082.76 1478.22 2082.76 1474.49 Q2082.76 1470.74 2080.91 1468.59 Q2079.08 1466.44 2075.93 1466.44 M2085.21 1451.78 L2085.21 1456.04 Q2083.46 1455.21 2081.65 1454.77 Q2079.87 1454.33 2078.11 1454.33 Q2073.48 1454.33 2071.03 1457.45 Q2068.59 1460.58 2068.25 1466.9 Q2069.61 1464.89 2071.67 1463.82 Q2073.73 1462.73 2076.21 1462.73 Q2081.42 1462.73 2084.43 1465.9 Q2087.46 1469.05 2087.46 1474.49 Q2087.46 1479.82 2084.31 1483.03 Q2081.16 1486.25 2075.93 1486.25 Q2069.94 1486.25 2066.77 1481.67 Q2063.59 1477.06 2063.59 1468.33 Q2063.59 1460.14 2067.48 1455.28 Q2071.37 1450.39 2077.92 1450.39 Q2079.68 1450.39 2081.46 1450.74 Q2083.27 1451.09 2085.21 1451.78 Z" fill="#000000" fill-rule="nonzero" fill-opacity="1" /><path clip-path="url(#clip360)" d="M2106.09 1466.44 Q2102.95 1466.44 2101.09 1468.59 Q2099.27 1470.74 2099.27 1474.49 Q2099.27 1478.22 2101.09 1480.39 Q2102.95 1482.55 2106.09 1482.55 Q2109.24 1482.55 2111.07 1480.39 Q2112.92 1478.22 2112.92 1474.49 Q2112.92 1470.74 2111.07 1468.59 Q2109.24 1466.44 2106.09 1466.44 M2115.38 1451.78 L2115.38 1456.04 Q2113.62 1455.21 2111.81 1454.77 Q2110.03 1454.33 2108.27 1454.33 Q2103.64 1454.33 2101.19 1457.45 Q2098.76 1460.58 2098.41 1466.9 Q2099.77 1464.89 2101.84 1463.82 Q2103.9 1462.73 2106.37 1462.73 Q2111.58 1462.73 2114.59 1465.9 Q2117.62 1469.05 2117.62 1474.49 Q2117.62 1479.82 2114.47 1483.03 Q2111.33 1486.25 2106.09 1486.25 Q2100.1 1486.25 2096.93 1481.67 Q2093.76 1477.06 2093.76 1468.33 Q2093.76 1460.14 2097.65 1455.28 Q2101.53 1450.39 2108.09 1450.39 Q2109.84 1450.39 2111.63 1450.74 Q2113.43 1451.09 2115.38 1451.78 Z" fill="#000000" fill-rule="nonzero" fill-opacity="1" /><path clip-path="url(#clip360)" d="M2125.68 1479.7 L2130.56 1479.7 L2130.56 1485.58 L2125.68 1485.58 L2125.68 1479.7 Z" fill="#000000" fill-rule="nonzero" fill-opacity="1" /><path clip-path="url(#clip360)" d="M2154.91 1466.95 Q2158.27 1467.66 2160.14 1469.93 Q2162.04 1472.2 2162.04 1475.53 Q2162.04 1480.65 2158.52 1483.45 Q2155.01 1486.25 2148.52 1486.25 Q2146.35 1486.25 2144.03 1485.81 Q2141.74 1485.39 2139.29 1484.54 L2139.29 1480.02 Q2141.23 1481.16 2143.55 1481.74 Q2145.86 1482.32 2148.39 1482.32 Q2152.78 1482.32 2155.08 1480.58 Q2157.39 1478.84 2157.39 1475.53 Q2157.39 1472.48 2155.24 1470.77 Q2153.11 1469.03 2149.29 1469.03 L2145.26 1469.03 L2145.26 1465.19 L2149.47 1465.19 Q2152.92 1465.19 2154.75 1463.82 Q2156.58 1462.43 2156.58 1459.84 Q2156.58 1457.18 2154.68 1455.77 Q2152.81 1454.33 2149.29 1454.33 Q2147.37 1454.33 2145.17 1454.75 Q2142.97 1455.16 2140.33 1456.04 L2140.33 1451.88 Q2142.99 1451.14 2145.31 1450.77 Q2147.65 1450.39 2149.71 1450.39 Q2155.03 1450.39 2158.13 1452.83 Q2161.23 1455.23 2161.23 1459.35 Q2161.23 1462.22 2159.59 1464.21 Q2157.95 1466.18 2154.91 1466.95 Z" fill="#000000" fill-rule="nonzero" fill-opacity="1" /><path clip-path="url(#clip360)" d="M1155.4 1526.86 L1146.68 1550.51 L1164.15 1550.51 L1155.4 1526.86 M1151.77 1520.52 L1159.06 1520.52 L1177.17 1568.04 L1170.48 1568.04 L1166.16 1555.85 L1144.73 1555.85 L1140.41 1568.04 L1133.63 1568.04 L1151.77 1520.52 Z" fill="#000000" fill-rule="nonzero" fill-opacity="1" /><path clip-path="url(#clip360)" d="M1207.31 1549.81 Q1207.31 1543.44 1204.67 1539.94 Q1202.06 1536.44 1197.32 1536.44 Q1192.6 1536.44 1189.96 1539.94 Q1187.35 1543.44 1187.35 1549.81 Q1187.35 1556.14 1189.96 1559.64 Q1192.6 1563.14 1197.32 1563.14 Q1202.06 1563.14 1204.67 1559.64 Q1207.31 1556.14 1207.31 1549.81 M1213.17 1563.62 Q1213.17 1572.72 1209.12 1577.15 Q1205.08 1581.6 1196.74 1581.6 Q1193.66 1581.6 1190.92 1581.13 Q1188.18 1580.68 1185.6 1579.72 L1185.6 1574.03 Q1188.18 1575.43 1190.7 1576.1 Q1193.21 1576.76 1195.82 1576.76 Q1201.58 1576.76 1204.45 1573.74 Q1207.31 1570.75 1207.31 1564.67 L1207.31 1561.77 Q1205.5 1564.92 1202.66 1566.48 Q1199.83 1568.04 1195.88 1568.04 Q1189.33 1568.04 1185.32 1563.05 Q1181.31 1558.05 1181.31 1549.81 Q1181.31 1541.53 1185.32 1536.53 Q1189.33 1531.54 1195.88 1531.54 Q1199.83 1531.54 1202.66 1533.1 Q1205.5 1534.66 1207.31 1537.81 L1207.31 1532.4 L1213.17 1532.4 L1213.17 1563.62 Z" fill="#000000" fill-rule="nonzero" fill-opacity="1" /><path clip-path="url(#clip360)" d="M1255.72 1548.76 L1255.72 1551.62 L1228.79 1551.62 Q1229.18 1557.67 1232.42 1560.85 Q1235.7 1564 1241.53 1564 Q1244.9 1564 1248.05 1563.17 Q1251.23 1562.35 1254.35 1560.69 L1254.35 1566.23 Q1251.2 1567.57 1247.89 1568.27 Q1244.58 1568.97 1241.18 1568.97 Q1232.65 1568.97 1227.65 1564 Q1222.68 1559.04 1222.68 1550.57 Q1222.68 1541.82 1227.39 1536.69 Q1232.14 1531.54 1240.16 1531.54 Q1247.35 1531.54 1251.52 1536.18 Q1255.72 1540.8 1255.72 1548.76 M1249.86 1547.04 Q1249.8 1542.23 1247.16 1539.37 Q1244.55 1536.5 1240.22 1536.5 Q1235.32 1536.5 1232.36 1539.27 Q1229.43 1542.04 1228.99 1547.07 L1249.86 1547.04 Z" fill="#000000" fill-rule="nonzero" fill-opacity="1" /><path clip-path="url(#clip360)" d="M1300.12 1518.58 Q1295.86 1525.9 1293.79 1533.06 Q1291.72 1540.23 1291.72 1547.58 Q1291.72 1554.93 1293.79 1562.16 Q1295.89 1569.35 1300.12 1576.64 L1295.03 1576.64 Q1290.25 1569.16 1287.87 1561.93 Q1285.51 1554.71 1285.51 1547.58 Q1285.51 1540.48 1287.87 1533.29 Q1290.22 1526.09 1295.03 1518.58 L1300.12 1518.58 Z" fill="#000000" fill-rule="nonzero" fill-opacity="1" /><path clip-path="url(#clip360)" d="M1311.74 1520.52 L1321.32 1520.52 L1333.45 1552.86 L1345.64 1520.52 L1355.22 1520.52 L1355.22 1568.04 L1348.95 1568.04 L1348.95 1526.32 L1336.69 1558.91 L1330.23 1558.91 L1317.98 1526.32 L1317.98 1568.04 L1311.74 1568.04 L1311.74 1520.52 Z" fill="#000000" fill-rule="nonzero" fill-opacity="1" /><path clip-path="url(#clip360)" d="M1383.93 1550.12 Q1376.83 1550.12 1374.09 1551.75 Q1371.35 1553.37 1371.35 1557.29 Q1371.35 1560.4 1373.39 1562.25 Q1375.46 1564.07 1378.99 1564.07 Q1383.86 1564.07 1386.79 1560.63 Q1389.75 1557.16 1389.75 1551.43 L1389.75 1550.12 L1383.93 1550.12 M1395.61 1547.71 L1395.61 1568.04 L1389.75 1568.04 L1389.75 1562.63 Q1387.75 1565.88 1384.75 1567.44 Q1381.76 1568.97 1377.43 1568.97 Q1371.96 1568.97 1368.71 1565.91 Q1365.5 1562.82 1365.5 1557.67 Q1365.5 1551.65 1369.51 1548.6 Q1373.55 1545.54 1381.54 1545.54 L1389.75 1545.54 L1389.75 1544.97 Q1389.75 1540.93 1387.08 1538.73 Q1384.44 1536.5 1379.63 1536.5 Q1376.57 1536.5 1373.68 1537.23 Q1370.78 1537.97 1368.11 1539.43 L1368.11 1534.02 Q1371.32 1532.78 1374.35 1532.17 Q1377.37 1531.54 1380.23 1531.54 Q1387.97 1531.54 1391.79 1535.55 Q1395.61 1539.56 1395.61 1547.71 Z" fill="#000000" fill-rule="nonzero" fill-opacity="1" /><path clip-path="url(#clip360)" d="M1406.75 1518.58 L1411.84 1518.58 Q1416.61 1526.09 1418.97 1533.29 Q1421.36 1540.48 1421.36 1547.58 Q1421.36 1554.71 1418.97 1561.93 Q1416.61 1569.16 1411.84 1576.64 L1406.75 1576.64 Q1410.98 1569.35 1413.05 1562.16 Q1415.15 1554.93 1415.15 1547.58 Q1415.15 1540.23 1413.05 1533.06 Q1410.98 1525.9 1406.75 1518.58 Z" fill="#000000" fill-rule="nonzero" fill-opacity="1" /><polyline clip-path="url(#clip360)" style="stroke:#000000; stroke-linecap:round; stroke-linejoin:round; stroke-width:4; stroke-opacity:1; fill:none" points="202.227,1423.18 202.227,47.2441 "/>
<polyline clip-path="url(#clip360)" style="stroke:#000000; stroke-linecap:round; stroke-linejoin:round; stroke-width:4; stroke-opacity:1; fill:none" points="2352.76,1423.18 2352.76,47.2441 "/>
<polyline clip-path="url(#clip360)" style="stroke:#000000; stroke-linecap:round; stroke-linejoin:round; stroke-width:4; stroke-opacity:1; fill:none" points="202.227,1384.24 221.125,1384.24 "/>
<polyline clip-path="url(#clip360)" style="stroke:#000000; stroke-linecap:round; stroke-linejoin:round; stroke-width:4; stroke-opacity:1; fill:none" points="202.227,1188.98 221.125,1188.98 "/>
<polyline clip-path="url(#clip360)" style="stroke:#000000; stroke-linecap:round; stroke-linejoin:round; stroke-width:4; stroke-opacity:1; fill:none" points="202.227,993.73 221.125,993.73 "/>
<polyline clip-path="url(#clip360)" style="stroke:#000000; stroke-linecap:round; stroke-linejoin:round; stroke-width:4; stroke-opacity:1; fill:none" points="202.227,798.476 221.125,798.476 "/>
<polyline clip-path="url(#clip360)" style="stroke:#000000; stroke-linecap:round; stroke-linejoin:round; stroke-width:4; stroke-opacity:1; fill:none" points="202.227,603.222 221.125,603.222 "/>
<polyline clip-path="url(#clip360)" style="stroke:#000000; stroke-linecap:round; stroke-linejoin:round; stroke-width:4; stroke-opacity:1; fill:none" points="202.227,407.968 221.125,407.968 "/>
<polyline clip-path="url(#clip360)" style="stroke:#000000; stroke-linecap:round; stroke-linejoin:round; stroke-width:4; stroke-opacity:1; fill:none" points="202.227,212.714 221.125,212.714 "/>
<polyline clip-path="url(#clip360)" style="stroke:#000000; stroke-linecap:round; stroke-linejoin:round; stroke-width:4; stroke-opacity:1; fill:none" points="2352.76,1384.24 2333.86,1384.24 "/>
<polyline clip-path="url(#clip360)" style="stroke:#000000; stroke-linecap:round; stroke-linejoin:round; stroke-width:4; stroke-opacity:1; fill:none" points="2352.76,1188.98 2333.86,1188.98 "/>
<polyline clip-path="url(#clip360)" style="stroke:#000000; stroke-linecap:round; stroke-linejoin:round; stroke-width:4; stroke-opacity:1; fill:none" points="2352.76,993.73 2333.86,993.73 "/>
<polyline clip-path="url(#clip360)" style="stroke:#000000; stroke-linecap:round; stroke-linejoin:round; stroke-width:4; stroke-opacity:1; fill:none" points="2352.76,798.476 2333.86,798.476 "/>
<polyline clip-path="url(#clip360)" style="stroke:#000000; stroke-linecap:round; stroke-linejoin:round; stroke-width:4; stroke-opacity:1; fill:none" points="2352.76,603.222 2333.86,603.222 "/>
<polyline clip-path="url(#clip360)" style="stroke:#000000; stroke-linecap:round; stroke-linejoin:round; stroke-width:4; stroke-opacity:1; fill:none" points="2352.76,407.968 2333.86,407.968 "/>
<polyline clip-path="url(#clip360)" style="stroke:#000000; stroke-linecap:round; stroke-linejoin:round; stroke-width:4; stroke-opacity:1; fill:none" points="2352.76,212.714 2333.86,212.714 "/>
<path clip-path="url(#clip360)" d="M154.283 1370.04 Q150.672 1370.04 148.843 1373.6 Q147.038 1377.14 147.038 1384.27 Q147.038 1391.38 148.843 1394.94 Q150.672 1398.49 154.283 1398.49 Q157.917 1398.49 159.723 1394.94 Q161.552 1391.38 161.552 1384.27 Q161.552 1377.14 159.723 1373.6 Q157.917 1370.04 154.283 1370.04 M154.283 1366.33 Q160.093 1366.33 163.149 1370.94 Q166.227 1375.52 166.227 1384.27 Q166.227 1393 163.149 1397.61 Q160.093 1402.19 154.283 1402.19 Q148.473 1402.19 145.394 1397.61 Q142.339 1393 142.339 1384.27 Q142.339 1375.52 145.394 1370.94 Q148.473 1366.33 154.283 1366.33 Z" fill="#000000" fill-rule="nonzero" fill-opacity="1" /><path clip-path="url(#clip360)" d="M149.908 1202.33 L166.227 1202.33 L166.227 1206.26 L144.283 1206.26 L144.283 1202.33 Q146.945 1199.57 151.528 1194.95 Q156.135 1190.29 157.315 1188.95 Q159.561 1186.43 160.44 1184.69 Q161.343 1182.93 161.343 1181.24 Q161.343 1178.49 159.399 1176.75 Q157.478 1175.01 154.376 1175.01 Q152.177 1175.01 149.723 1175.78 Q147.292 1176.54 144.515 1178.09 L144.515 1173.37 Q147.339 1172.24 149.792 1171.66 Q152.246 1171.08 154.283 1171.08 Q159.653 1171.08 162.848 1173.76 Q166.042 1176.45 166.042 1180.94 Q166.042 1183.07 165.232 1184.99 Q164.445 1186.89 162.339 1189.48 Q161.76 1190.15 158.658 1193.37 Q155.556 1196.57 149.908 1202.33 Z" fill="#000000" fill-rule="nonzero" fill-opacity="1" /><path clip-path="url(#clip360)" d="M156.644 980.524 L144.839 998.973 L156.644 998.973 L156.644 980.524 M155.417 976.45 L161.297 976.45 L161.297 998.973 L166.227 998.973 L166.227 1002.86 L161.297 1002.86 L161.297 1011.01 L156.644 1011.01 L156.644 1002.86 L141.042 1002.86 L141.042 998.348 L155.417 976.45 Z" fill="#000000" fill-rule="nonzero" fill-opacity="1" /><path clip-path="url(#clip360)" d="M154.7 796.613 Q151.552 796.613 149.7 798.766 Q147.871 800.918 147.871 804.668 Q147.871 808.395 149.7 810.571 Q151.552 812.724 154.7 812.724 Q157.848 812.724 159.677 810.571 Q161.528 808.395 161.528 804.668 Q161.528 800.918 159.677 798.766 Q157.848 796.613 154.7 796.613 M163.982 781.96 L163.982 786.219 Q162.223 785.386 160.417 784.946 Q158.635 784.506 156.876 784.506 Q152.246 784.506 149.792 787.631 Q147.362 790.756 147.015 797.076 Q148.38 795.062 150.441 793.997 Q152.501 792.909 154.978 792.909 Q160.186 792.909 163.195 796.08 Q166.227 799.228 166.227 804.668 Q166.227 809.992 163.079 813.21 Q159.931 816.427 154.7 816.427 Q148.704 816.427 145.533 811.844 Q142.362 807.238 142.362 798.511 Q142.362 790.316 146.251 785.455 Q150.14 780.571 156.69 780.571 Q158.45 780.571 160.232 780.918 Q162.038 781.266 163.982 781.96 Z" fill="#000000" fill-rule="nonzero" fill-opacity="1" /><path clip-path="url(#clip360)" d="M154.376 604.09 Q151.042 604.09 149.121 605.872 Q147.223 607.655 147.223 610.78 Q147.223 613.905 149.121 615.687 Q151.042 617.47 154.376 617.47 Q157.709 617.47 159.63 615.687 Q161.552 613.882 161.552 610.78 Q161.552 607.655 159.63 605.872 Q157.732 604.09 154.376 604.09 M149.7 602.099 Q146.691 601.359 145.001 599.298 Q143.334 597.238 143.334 594.275 Q143.334 590.132 146.274 587.724 Q149.237 585.317 154.376 585.317 Q159.538 585.317 162.477 587.724 Q165.417 590.132 165.417 594.275 Q165.417 597.238 163.727 599.298 Q162.061 601.359 159.075 602.099 Q162.454 602.886 164.329 605.178 Q166.227 607.47 166.227 610.78 Q166.227 615.803 163.149 618.488 Q160.093 621.173 154.376 621.173 Q148.658 621.173 145.579 618.488 Q142.524 615.803 142.524 610.78 Q142.524 607.47 144.422 605.178 Q146.32 602.886 149.7 602.099 M147.987 594.715 Q147.987 597.4 149.653 598.905 Q151.343 600.409 154.376 600.409 Q157.385 600.409 159.075 598.905 Q160.788 597.4 160.788 594.715 Q160.788 592.03 159.075 590.525 Q157.385 589.021 154.376 589.021 Q151.343 589.021 149.653 590.525 Q147.987 592.03 147.987 594.715 Z" fill="#000000" fill-rule="nonzero" fill-opacity="1" /><path clip-path="url(#clip360)" d="M114.931 421.313 L122.57 421.313 L122.57 394.947 L114.26 396.614 L114.26 392.354 L122.524 390.688 L127.2 390.688 L127.2 421.313 L134.839 421.313 L134.839 425.248 L114.931 425.248 L114.931 421.313 Z" fill="#000000" fill-rule="nonzero" fill-opacity="1" /><path clip-path="url(#clip360)" d="M154.283 393.766 Q150.672 393.766 148.843 397.331 Q147.038 400.873 147.038 408.002 Q147.038 415.109 148.843 418.674 Q150.672 422.215 154.283 422.215 Q157.917 422.215 159.723 418.674 Q161.552 415.109 161.552 408.002 Q161.552 400.873 159.723 397.331 Q157.917 393.766 154.283 393.766 M154.283 390.063 Q160.093 390.063 163.149 394.669 Q166.227 399.253 166.227 408.002 Q166.227 416.729 163.149 421.336 Q160.093 425.919 154.283 425.919 Q148.473 425.919 145.394 421.336 Q142.339 416.729 142.339 408.002 Q142.339 399.253 145.394 394.669 Q148.473 390.063 154.283 390.063 Z" fill="#000000" fill-rule="nonzero" fill-opacity="1" /><path clip-path="url(#clip360)" d="M116.529 226.058 L124.168 226.058 L124.168 199.693 L115.857 201.359 L115.857 197.1 L124.121 195.434 L128.797 195.434 L128.797 226.058 L136.436 226.058 L136.436 229.994 L116.529 229.994 L116.529 226.058 Z" fill="#000000" fill-rule="nonzero" fill-opacity="1" /><path clip-path="url(#clip360)" d="M149.908 226.058 L166.227 226.058 L166.227 229.994 L144.283 229.994 L144.283 226.058 Q146.945 223.304 151.528 218.674 Q156.135 214.021 157.315 212.679 Q159.561 210.156 160.44 208.42 Q161.343 206.66 161.343 204.971 Q161.343 202.216 159.399 200.48 Q157.478 198.744 154.376 198.744 Q152.177 198.744 149.723 199.508 Q147.292 200.271 144.515 201.822 L144.515 197.1 Q147.339 195.966 149.792 195.387 Q152.246 194.809 154.283 194.809 Q159.653 194.809 162.848 197.494 Q166.042 200.179 166.042 204.67 Q166.042 206.799 165.232 208.72 Q164.445 210.619 162.339 213.211 Q161.76 213.883 158.658 217.1 Q155.556 220.295 149.908 226.058 Z" fill="#000000" fill-rule="nonzero" fill-opacity="1" /><path clip-path="url(#clip360)" d="M21.7677 1026.76 L39.6235 1026.76 L39.6235 1018.68 Q39.6235 1014.19 37.3 1011.74 Q34.9765 1009.29 30.6797 1009.29 Q26.4147 1009.29 24.0912 1011.74 Q21.7677 1014.19 21.7677 1018.68 L21.7677 1026.76 M16.4842 1033.19 L16.4842 1018.68 Q16.4842 1010.69 20.1126 1006.61 Q23.7092 1002.51 30.6797 1002.51 Q37.7138 1002.51 41.3104 1006.61 Q44.907 1010.69 44.907 1018.68 L44.907 1026.76 L64.0042 1026.76 L64.0042 1033.19 L16.4842 1033.19 Z" fill="#000000" fill-rule="nonzero" fill-opacity="1" /><path clip-path="url(#clip360)" d="M33.8307 974.626 Q33.2578 975.613 33.0032 976.791 Q32.7167 977.936 32.7167 979.337 Q32.7167 984.302 35.9632 986.976 Q39.1779 989.617 45.2253 989.617 L64.0042 989.617 L64.0042 995.506 L28.3562 995.506 L28.3562 989.617 L33.8944 989.617 Q30.6479 987.771 29.0883 984.811 Q27.4968 981.851 27.4968 977.618 Q27.4968 977.013 27.5923 976.281 Q27.656 975.549 27.8151 974.658 L33.8307 974.626 Z" fill="#000000" fill-rule="nonzero" fill-opacity="1" /><path clip-path="url(#clip360)" d="M32.4621 956.102 Q32.4621 960.813 36.1542 963.55 Q39.8145 966.287 46.212 966.287 Q52.6095 966.287 56.3017 963.582 Q59.9619 960.844 59.9619 956.102 Q59.9619 951.423 56.2698 948.686 Q52.5777 945.949 46.212 945.949 Q39.8781 945.949 36.186 948.686 Q32.4621 951.423 32.4621 956.102 M27.4968 956.102 Q27.4968 948.463 32.4621 944.103 Q37.4273 939.742 46.212 939.742 Q54.9649 939.742 59.9619 944.103 Q64.9272 948.463 64.9272 956.102 Q64.9272 963.773 59.9619 968.133 Q54.9649 972.462 46.212 972.462 Q37.4273 972.462 32.4621 968.133 Q27.4968 963.773 27.4968 956.102 Z" fill="#000000" fill-rule="nonzero" fill-opacity="1" /><path clip-path="url(#clip360)" d="M46.212 904.444 Q39.7508 904.444 36.0905 907.118 Q32.3984 909.76 32.3984 914.407 Q32.3984 919.054 36.0905 921.727 Q39.7508 924.369 46.212 924.369 Q52.6732 924.369 56.3653 921.727 Q60.0256 919.054 60.0256 914.407 Q60.0256 909.76 56.3653 907.118 Q52.6732 904.444 46.212 904.444 M33.7671 924.369 Q30.5842 922.523 29.0564 919.722 Q27.4968 916.889 27.4968 912.974 Q27.4968 906.481 32.6531 902.439 Q37.8093 898.365 46.212 898.365 Q54.6147 898.365 59.771 902.439 Q64.9272 906.481 64.9272 912.974 Q64.9272 916.889 63.3994 919.722 Q61.8398 922.523 58.657 924.369 L64.0042 924.369 L64.0042 930.257 L14.479 930.257 L14.479 924.369 L33.7671 924.369 Z" fill="#000000" fill-rule="nonzero" fill-opacity="1" /><path clip-path="url(#clip360)" d="M46.0847 872.457 Q46.0847 879.554 47.7079 882.292 Q49.3312 885.029 53.2461 885.029 Q56.3653 885.029 58.2114 882.992 Q60.0256 880.923 60.0256 877.39 Q60.0256 872.52 56.5881 869.592 Q53.1188 866.632 47.3897 866.632 L46.0847 866.632 L46.0847 872.457 M43.6657 860.776 L64.0042 860.776 L64.0042 866.632 L58.5933 866.632 Q61.8398 868.637 63.3994 871.629 Q64.9272 874.621 64.9272 878.95 Q64.9272 884.424 61.8716 887.671 Q58.7843 890.885 53.6281 890.885 Q47.6125 890.885 44.5569 886.875 Q41.5014 882.833 41.5014 874.844 L41.5014 866.632 L40.9285 866.632 Q36.8862 866.632 34.6901 869.306 Q32.4621 871.947 32.4621 876.753 Q32.4621 879.809 33.1941 882.705 Q33.9262 885.602 35.3903 888.275 L29.9795 888.275 Q28.7381 885.061 28.1334 882.037 Q27.4968 879.013 27.4968 876.149 Q27.4968 868.414 31.5072 864.595 Q35.5176 860.776 43.6657 860.776 Z" fill="#000000" fill-rule="nonzero" fill-opacity="1" /><path clip-path="url(#clip360)" d="M46.212 823.122 Q39.7508 823.122 36.0905 825.796 Q32.3984 828.438 32.3984 833.085 Q32.3984 837.732 36.0905 840.405 Q39.7508 843.047 46.212 843.047 Q52.6732 843.047 56.3653 840.405 Q60.0256 837.732 60.0256 833.085 Q60.0256 828.438 56.3653 825.796 Q52.6732 823.122 46.212 823.122 M33.7671 843.047 Q30.5842 841.201 29.0564 838.4 Q27.4968 835.567 27.4968 831.652 Q27.4968 825.159 32.6531 821.117 Q37.8093 817.043 46.212 817.043 Q54.6147 817.043 59.771 821.117 Q64.9272 825.159 64.9272 831.652 Q64.9272 835.567 63.3994 838.4 Q61.8398 841.201 58.657 843.047 L64.0042 843.047 L64.0042 848.935 L14.479 848.935 L14.479 843.047 L33.7671 843.047 Z" fill="#000000" fill-rule="nonzero" fill-opacity="1" /><path clip-path="url(#clip360)" d="M28.3562 807.335 L28.3562 801.479 L64.0042 801.479 L64.0042 807.335 L28.3562 807.335 M14.479 807.335 L14.479 801.479 L21.895 801.479 L21.895 807.335 L14.479 807.335 Z" fill="#000000" fill-rule="nonzero" fill-opacity="1" /><path clip-path="url(#clip360)" d="M14.479 789.225 L14.479 783.369 L64.0042 783.369 L64.0042 789.225 L14.479 789.225 Z" fill="#000000" fill-rule="nonzero" fill-opacity="1" /><path clip-path="url(#clip360)" d="M28.3562 771.115 L28.3562 765.258 L64.0042 765.258 L64.0042 771.115 L28.3562 771.115 M14.479 771.115 L14.479 765.258 L21.895 765.258 L21.895 771.115 L14.479 771.115 Z" fill="#000000" fill-rule="nonzero" fill-opacity="1" /><path clip-path="url(#clip360)" d="M18.2347 747.211 L28.3562 747.211 L28.3562 735.148 L32.9077 735.148 L32.9077 747.211 L52.2594 747.211 Q56.6199 747.211 57.8613 746.034 Q59.1026 744.824 59.1026 741.164 L59.1026 735.148 L64.0042 735.148 L64.0042 741.164 Q64.0042 747.943 61.4897 750.521 Q58.9434 753.1 52.2594 753.1 L32.9077 753.1 L32.9077 757.396 L28.3562 757.396 L28.3562 753.1 L18.2347 753.1 L18.2347 747.211 Z" fill="#000000" fill-rule="nonzero" fill-opacity="1" /><path clip-path="url(#clip360)" d="M67.3143 712.614 Q73.68 715.096 75.6216 717.452 Q77.5631 719.807 77.5631 723.754 L77.5631 728.432 L72.6615 728.432 L72.6615 724.995 Q72.6615 722.576 71.5157 721.239 Q70.3699 719.902 66.1048 718.279 L63.4312 717.229 L28.3562 731.647 L28.3562 725.441 L56.238 714.301 L28.3562 703.161 L28.3562 696.954 L67.3143 712.614 Z" fill="#000000" fill-rule="nonzero" fill-opacity="1" /><path clip-path="url(#clip360)" d="M33.7671 644.692 L14.479 644.692 L14.479 638.835 L64.0042 638.835 L64.0042 644.692 L58.657 644.692 Q61.8398 646.538 63.3994 649.37 Q64.9272 652.171 64.9272 656.118 Q64.9272 662.579 59.771 666.653 Q54.6147 670.696 46.212 670.696 Q37.8093 670.696 32.6531 666.653 Q27.4968 662.579 27.4968 656.118 Q27.4968 652.171 29.0564 649.37 Q30.5842 646.538 33.7671 644.692 M46.212 664.648 Q52.6732 664.648 56.3653 662.006 Q60.0256 659.333 60.0256 654.686 Q60.0256 650.039 56.3653 647.365 Q52.6732 644.692 46.212 644.692 Q39.7508 644.692 36.0905 647.365 Q32.3984 650.039 32.3984 654.686 Q32.3984 659.333 36.0905 662.006 Q39.7508 664.648 46.212 664.648 Z" fill="#000000" fill-rule="nonzero" fill-opacity="1" /><path clip-path="url(#clip360)" d="M44.7161 596.28 L47.5806 596.28 L47.5806 623.207 Q53.6281 622.825 56.8109 619.579 Q59.9619 616.301 59.9619 610.476 Q59.9619 607.102 59.1344 603.951 Q58.3069 600.768 56.6518 597.649 L62.1899 597.649 Q63.5267 600.8 64.227 604.11 Q64.9272 607.42 64.9272 610.826 Q64.9272 619.356 59.9619 624.353 Q54.9967 629.318 46.5303 629.318 Q37.7774 629.318 32.6531 624.608 Q27.4968 619.865 27.4968 611.845 Q27.4968 604.651 32.1438 600.482 Q36.7589 596.28 44.7161 596.28 M42.9973 602.137 Q38.1912 602.201 35.3266 604.842 Q32.4621 607.452 32.4621 611.781 Q32.4621 616.683 35.2312 619.643 Q38.0002 622.571 43.0292 623.016 L42.9973 602.137 Z" fill="#000000" fill-rule="nonzero" fill-opacity="1" /><path clip-path="url(#clip360)" d="M42.4881 557.036 L64.0042 557.036 L64.0042 562.892 L42.679 562.892 Q37.6183 562.892 35.1038 564.866 Q32.5894 566.839 32.5894 570.786 Q32.5894 575.528 35.6131 578.265 Q38.6368 581.003 43.8567 581.003 L64.0042 581.003 L64.0042 586.891 L28.3562 586.891 L28.3562 581.003 L33.8944 581.003 Q30.6797 578.902 29.0883 576.069 Q27.4968 573.205 27.4968 569.481 Q27.4968 563.338 31.3163 560.187 Q35.1038 557.036 42.4881 557.036 Z" fill="#000000" fill-rule="nonzero" fill-opacity="1" /><path clip-path="url(#clip360)" d="M29.4065 522.629 L34.9447 522.629 Q33.6716 525.112 33.035 527.785 Q32.3984 530.459 32.3984 533.324 Q32.3984 537.684 33.7352 539.88 Q35.072 542.045 37.7456 542.045 Q39.7826 542.045 40.9603 540.485 Q42.1061 538.925 43.1565 534.215 L43.6021 532.21 Q44.9389 525.971 47.3897 523.361 Q49.8086 520.719 54.1691 520.719 Q59.1344 520.719 62.0308 524.666 Q64.9272 528.581 64.9272 535.456 Q64.9272 538.321 64.3543 541.44 Q63.8132 544.527 62.6992 547.965 L56.6518 547.965 Q58.3387 544.718 59.198 541.567 Q60.0256 538.416 60.0256 535.329 Q60.0256 531.191 58.6251 528.963 Q57.1929 526.735 54.6147 526.735 Q52.2276 526.735 50.9545 528.358 Q49.6813 529.95 48.5037 535.392 L48.0262 537.429 Q46.8804 542.872 44.5251 545.291 Q42.138 547.71 38.0002 547.71 Q32.9713 547.71 30.2341 544.145 Q27.4968 540.58 27.4968 534.024 Q27.4968 530.777 27.9743 527.913 Q28.4517 525.048 29.4065 522.629 Z" fill="#000000" fill-rule="nonzero" fill-opacity="1" /><path clip-path="url(#clip360)" d="M28.3562 511.394 L28.3562 505.537 L64.0042 505.537 L64.0042 511.394 L28.3562 511.394 M14.479 511.394 L14.479 505.537 L21.895 505.537 L21.895 511.394 L14.479 511.394 Z" fill="#000000" fill-rule="nonzero" fill-opacity="1" /><path clip-path="url(#clip360)" d="M18.2347 487.49 L28.3562 487.49 L28.3562 475.427 L32.9077 475.427 L32.9077 487.49 L52.2594 487.49 Q56.6199 487.49 57.8613 486.313 Q59.1026 485.103 59.1026 481.443 L59.1026 475.427 L64.0042 475.427 L64.0042 481.443 Q64.0042 488.223 61.4897 490.801 Q58.9434 493.379 52.2594 493.379 L32.9077 493.379 L32.9077 497.676 L28.3562 497.676 L28.3562 493.379 L18.2347 493.379 L18.2347 487.49 Z" fill="#000000" fill-rule="nonzero" fill-opacity="1" /><path clip-path="url(#clip360)" d="M67.3143 452.893 Q73.68 455.376 75.6216 457.731 Q77.5631 460.086 77.5631 464.033 L77.5631 468.712 L72.6615 468.712 L72.6615 465.274 Q72.6615 462.855 71.5157 461.518 Q70.3699 460.182 66.1048 458.558 L63.4312 457.508 L28.3562 471.926 L28.3562 465.72 L56.238 454.58 L28.3562 443.44 L28.3562 437.233 L67.3143 452.893 Z" fill="#000000" fill-rule="nonzero" fill-opacity="1" /><polyline clip-path="url(#clip362)" style="stroke:#009af9; stroke-linecap:round; stroke-linejoin:round; stroke-width:4; stroke-opacity:1; fill:none" points="263.091,1384.23 313.185,1384.22 338.232,1384.19 438.42,1384.22 513.561,1384.22 563.655,1384.2 588.701,1384.18 613.748,1384.22 638.795,1384.21 738.983,1384.22 764.03,1384.18 789.077,1384.22 814.124,1383.5 839.171,1384.13 864.218,1384.19 889.264,1384.17 914.311,1384.18 939.358,1384.21 964.405,1384.1 989.452,1384.08 1014.5,1383.85 1039.55,1383.73 1064.59,1383.56 1089.64,1383.79 1114.69,1383.41 1139.73,1383.58 1164.78,1383.24 1189.83,1383.49 1214.87,1382.8 1239.92,1383.04 1264.97,1383.08 1290.02,1382.09 1315.06,1382.67 1340.11,1380.32 1365.16,1380.19 1390.2,1379.89 1415.25,1379.14 1440.3,1377.11 1465.34,1376.15 1490.39,1373.58 1515.44,1371.37 1540.48,1369.29 1565.53,1364.68 1590.58,1359.28 1615.63,1351.36 1640.67,1340.81 1665.72,1332.31 1690.77,1320.19 1715.81,1307.87 1740.86,1295.12 1765.91,1291.84 1790.95,1268.71 1816,1251.46 1841.05,1229.7 1866.09,1202.93 1891.14,1164.51 1916.19,1122.14 1941.24,1062.57 1966.28,966.039 1991.33,869.986 2016.38,735.455 2041.42,626.904 2066.47,533.887 2091.52,577.461 2116.56,789.566 2141.61,1090.31 2166.66,1260.62 2191.7,1343.05 2216.75,1374.69 2241.8,1381.93 2266.84,1384.06 2291.89,1384.22 "/>
<polyline clip-path="url(#clip362)" style="stroke:#e26f46; stroke-linecap:round; stroke-linejoin:round; stroke-width:4; stroke-opacity:1; fill:none" points="263.091,1384.24 313.185,1384.24 338.232,1384.24 438.42,1384.24 513.561,1384.23 563.655,1384.23 588.701,1384.23 613.748,1384.23 638.795,1384.23 738.983,1384.21 764.03,1384.21 789.077,1384.2 814.124,1384.19 839.171,1384.18 864.218,1384.17 889.264,1384.15 914.311,1384.13 939.358,1384.1 964.405,1384.07 989.452,1384.03 1014.5,1383.98 1039.55,1383.92 1064.59,1383.85 1089.64,1383.76 1114.69,1383.65 1139.73,1383.52 1164.78,1383.35 1189.83,1383.15 1214.87,1382.9 1239.92,1382.59 1264.97,1382.2 1290.02,1381.74 1315.06,1381.16 1340.11,1380.45 1365.16,1379.58 1390.2,1378.5 1415.25,1377.18 1440.3,1375.56 1465.34,1373.56 1490.39,1371.1 1515.44,1368.07 1540.48,1364.35 1565.53,1359.77 1590.58,1354.14 1615.63,1347.21 1640.67,1338.69 1665.72,1328.21 1690.77,1315.32 1715.81,1299.47 1740.86,1279.99 1765.91,1256.04 1790.95,1226.61 1816,1190.46 1841.05,1146.09 1866.09,1091.65 1891.14,1024.96 1916.19,943.434 1941.24,844.109 1966.28,723.871 1991.33,580.153 2016.38,413.197 2041.42,233.45 2066.47,86.1857 2091.52,111.985 2116.56,476.921 2141.61,931.875 2166.66,1196.74 2191.7,1311.5 2216.75,1356.7 2241.8,1373.92 2266.84,1380.39 2291.89,1382.81 "/>
<path clip-path="url(#clip360)" d="M273.912 248.629 L823.268 248.629 L823.268 93.1086 L273.912 93.1086  Z" fill="#ffffff" fill-rule="evenodd" fill-opacity="1"/>
<polyline clip-path="url(#clip360)" style="stroke:#ffffff; stroke-linecap:round; stroke-linejoin:round; stroke-width:4; stroke-opacity:1; fill:none" points="273.912,248.629 823.268,248.629 823.268,93.1086 273.912,93.1086 273.912,248.629 "/>
<polyline clip-path="url(#clip360)" style="stroke:#009af9; stroke-linecap:round; stroke-linejoin:round; stroke-width:4; stroke-opacity:1; fill:none" points="297.807,144.949 441.175,144.949 "/>
<path clip-path="url(#clip360)" d="M465.07 127.669 L469.746 127.669 L469.746 141.835 L486.736 141.835 L486.736 127.669 L491.412 127.669 L491.412 162.229 L486.736 162.229 L486.736 145.77 L469.746 145.77 L469.746 162.229 L465.07 162.229 L465.07 127.669 Z" fill="#000000" fill-rule="nonzero" fill-opacity="1" /><path clip-path="url(#clip360)" d="M500.533 136.303 L504.792 136.303 L504.792 162.229 L500.533 162.229 L500.533 136.303 M500.533 126.21 L504.792 126.21 L504.792 131.604 L500.533 131.604 L500.533 126.21 Z" fill="#000000" fill-rule="nonzero" fill-opacity="1" /><path clip-path="url(#clip360)" d="M530.232 137.067 L530.232 141.094 Q528.426 140.169 526.482 139.706 Q524.537 139.243 522.454 139.243 Q519.283 139.243 517.685 140.215 Q516.111 141.187 516.111 143.131 Q516.111 144.613 517.245 145.469 Q518.38 146.303 521.806 147.067 L523.264 147.391 Q527.801 148.363 529.699 150.145 Q531.62 151.905 531.62 155.076 Q531.62 158.687 528.75 160.793 Q525.903 162.9 520.903 162.9 Q518.82 162.9 516.551 162.483 Q514.306 162.09 511.806 161.28 L511.806 156.881 Q514.167 158.108 516.458 158.733 Q518.75 159.335 520.995 159.335 Q524.005 159.335 525.625 158.317 Q527.245 157.275 527.245 155.4 Q527.245 153.664 526.065 152.738 Q524.907 151.812 520.949 150.956 L519.468 150.608 Q515.509 149.775 513.75 148.062 Q511.991 146.326 511.991 143.317 Q511.991 139.659 514.583 137.669 Q517.176 135.678 521.945 135.678 Q524.306 135.678 526.389 136.025 Q528.472 136.372 530.232 137.067 Z" fill="#000000" fill-rule="nonzero" fill-opacity="1" /><path clip-path="url(#clip360)" d="M542.616 128.942 L542.616 136.303 L551.389 136.303 L551.389 139.613 L542.616 139.613 L542.616 153.687 Q542.616 156.858 543.472 157.761 Q544.352 158.664 547.014 158.664 L551.389 158.664 L551.389 162.229 L547.014 162.229 Q542.083 162.229 540.208 160.4 Q538.333 158.548 538.333 153.687 L538.333 139.613 L535.208 139.613 L535.208 136.303 L538.333 136.303 L538.333 128.942 L542.616 128.942 Z" fill="#000000" fill-rule="nonzero" fill-opacity="1" /><path clip-path="url(#clip360)" d="M567.037 139.289 Q563.611 139.289 561.62 141.974 Q559.63 144.636 559.63 149.289 Q559.63 153.942 561.597 156.627 Q563.588 159.289 567.037 159.289 Q570.44 159.289 572.43 156.604 Q574.421 153.918 574.421 149.289 Q574.421 144.682 572.43 141.997 Q570.44 139.289 567.037 139.289 M567.037 135.678 Q572.592 135.678 575.764 139.289 Q578.935 142.9 578.935 149.289 Q578.935 155.655 575.764 159.289 Q572.592 162.9 567.037 162.9 Q561.458 162.9 558.287 159.289 Q555.139 155.655 555.139 149.289 Q555.139 142.9 558.287 139.289 Q561.458 135.678 567.037 135.678 Z" fill="#000000" fill-rule="nonzero" fill-opacity="1" /><path clip-path="url(#clip360)" d="M603.055 148.965 Q603.055 144.335 601.134 141.789 Q599.236 139.243 595.787 139.243 Q592.361 139.243 590.44 141.789 Q588.541 144.335 588.541 148.965 Q588.541 153.571 590.44 156.118 Q592.361 158.664 595.787 158.664 Q599.236 158.664 601.134 156.118 Q603.055 153.571 603.055 148.965 M607.314 159.011 Q607.314 165.631 604.375 168.849 Q601.435 172.09 595.37 172.09 Q593.125 172.09 591.134 171.742 Q589.143 171.418 587.268 170.724 L587.268 166.58 Q589.143 167.599 590.972 168.085 Q592.801 168.571 594.699 168.571 Q598.889 168.571 600.972 166.372 Q603.055 164.196 603.055 159.775 L603.055 157.668 Q601.736 159.96 599.676 161.094 Q597.615 162.229 594.745 162.229 Q589.977 162.229 587.06 158.594 Q584.143 154.96 584.143 148.965 Q584.143 142.946 587.06 139.312 Q589.977 135.678 594.745 135.678 Q597.615 135.678 599.676 136.812 Q601.736 137.946 603.055 140.238 L603.055 136.303 L607.314 136.303 L607.314 159.011 Z" fill="#000000" fill-rule="nonzero" fill-opacity="1" /><path clip-path="url(#clip360)" d="M631.111 140.284 Q630.393 139.868 629.537 139.682 Q628.703 139.474 627.685 139.474 Q624.074 139.474 622.129 141.835 Q620.208 144.173 620.208 148.571 L620.208 162.229 L615.926 162.229 L615.926 136.303 L620.208 136.303 L620.208 140.331 Q621.55 137.969 623.703 136.835 Q625.856 135.678 628.935 135.678 Q629.375 135.678 629.907 135.747 Q630.439 135.794 631.087 135.909 L631.111 140.284 Z" fill="#000000" fill-rule="nonzero" fill-opacity="1" /><path clip-path="url(#clip360)" d="M647.361 149.196 Q642.199 149.196 640.208 150.377 Q638.217 151.557 638.217 154.405 Q638.217 156.673 639.699 158.016 Q641.203 159.335 643.773 159.335 Q647.314 159.335 649.444 156.835 Q651.597 154.312 651.597 150.145 L651.597 149.196 L647.361 149.196 M655.856 147.437 L655.856 162.229 L651.597 162.229 L651.597 158.293 Q650.138 160.655 647.962 161.789 Q645.786 162.9 642.638 162.9 Q638.657 162.9 636.296 160.678 Q633.958 158.432 633.958 154.682 Q633.958 150.307 636.874 148.085 Q639.814 145.863 645.624 145.863 L651.597 145.863 L651.597 145.446 Q651.597 142.507 649.652 140.909 Q647.731 139.289 644.236 139.289 Q642.013 139.289 639.907 139.821 Q637.8 140.354 635.856 141.419 L635.856 137.483 Q638.194 136.581 640.393 136.141 Q642.592 135.678 644.675 135.678 Q650.3 135.678 653.078 138.594 Q655.856 141.511 655.856 147.437 Z" fill="#000000" fill-rule="nonzero" fill-opacity="1" /><path clip-path="url(#clip360)" d="M684.814 141.28 Q686.411 138.409 688.633 137.044 Q690.856 135.678 693.865 135.678 Q697.916 135.678 700.115 138.525 Q702.314 141.349 702.314 146.581 L702.314 162.229 L698.032 162.229 L698.032 146.719 Q698.032 142.993 696.712 141.187 Q695.393 139.382 692.684 139.382 Q689.374 139.382 687.453 141.581 Q685.532 143.78 685.532 147.576 L685.532 162.229 L681.249 162.229 L681.249 146.719 Q681.249 142.969 679.93 141.187 Q678.61 139.382 675.856 139.382 Q672.592 139.382 670.671 141.604 Q668.749 143.803 668.749 147.576 L668.749 162.229 L664.467 162.229 L664.467 136.303 L668.749 136.303 L668.749 140.331 Q670.208 137.946 672.245 136.812 Q674.282 135.678 677.083 135.678 Q679.907 135.678 681.874 137.113 Q683.865 138.548 684.814 141.28 Z" fill="#000000" fill-rule="nonzero" fill-opacity="1" /><polyline clip-path="url(#clip360)" style="stroke:#e26f46; stroke-linecap:round; stroke-linejoin:round; stroke-width:4; stroke-opacity:1; fill:none" points="297.807,196.789 441.175,196.789 "/>
<path clip-path="url(#clip360)" d="M469.746 183.351 L469.746 210.226 L475.394 210.226 Q482.547 210.226 485.857 206.985 Q489.19 203.745 489.19 196.754 Q489.19 189.809 485.857 186.592 Q482.547 183.351 475.394 183.351 L469.746 183.351 M465.07 179.509 L474.676 179.509 Q484.723 179.509 489.422 183.698 Q494.121 187.865 494.121 196.754 Q494.121 205.689 489.398 209.879 Q484.676 214.069 474.676 214.069 L465.07 214.069 L465.07 179.509 Z" fill="#000000" fill-rule="nonzero" fill-opacity="1" /><path clip-path="url(#clip360)" d="M501.389 188.143 L505.648 188.143 L505.648 214.069 L501.389 214.069 L501.389 188.143 M501.389 178.05 L505.648 178.05 L505.648 183.444 L501.389 183.444 L501.389 178.05 Z" fill="#000000" fill-rule="nonzero" fill-opacity="1" /><path clip-path="url(#clip360)" d="M531.088 188.907 L531.088 192.934 Q529.282 192.009 527.338 191.546 Q525.394 191.083 523.31 191.083 Q520.139 191.083 518.542 192.055 Q516.968 193.027 516.968 194.971 Q516.968 196.453 518.102 197.309 Q519.236 198.143 522.662 198.907 L524.12 199.231 Q528.657 200.203 530.556 201.985 Q532.477 203.745 532.477 206.916 Q532.477 210.527 529.607 212.633 Q526.759 214.74 521.759 214.74 Q519.676 214.74 517.408 214.323 Q515.162 213.93 512.662 213.12 L512.662 208.721 Q515.023 209.948 517.315 210.573 Q519.607 211.175 521.852 211.175 Q524.861 211.175 526.482 210.157 Q528.102 209.115 528.102 207.24 Q528.102 205.504 526.921 204.578 Q525.764 203.652 521.806 202.796 L520.324 202.448 Q516.366 201.615 514.607 199.902 Q512.847 198.166 512.847 195.157 Q512.847 191.499 515.44 189.509 Q518.033 187.518 522.801 187.518 Q525.162 187.518 527.245 187.865 Q529.329 188.212 531.088 188.907 Z" fill="#000000" fill-rule="nonzero" fill-opacity="1" /><path clip-path="url(#clip360)" d="M543.472 180.782 L543.472 188.143 L552.245 188.143 L552.245 191.453 L543.472 191.453 L543.472 205.527 Q543.472 208.698 544.329 209.601 Q545.208 210.504 547.87 210.504 L552.245 210.504 L552.245 214.069 L547.87 214.069 Q542.94 214.069 541.065 212.24 Q539.19 210.388 539.19 205.527 L539.19 191.453 L536.065 191.453 L536.065 188.143 L539.19 188.143 L539.19 180.782 L543.472 180.782 Z" fill="#000000" fill-rule="nonzero" fill-opacity="1" /><path clip-path="url(#clip360)" d="M572.87 192.124 Q572.153 191.708 571.296 191.522 Q570.463 191.314 569.444 191.314 Q565.833 191.314 563.889 193.675 Q561.967 196.013 561.967 200.411 L561.967 214.069 L557.685 214.069 L557.685 188.143 L561.967 188.143 L561.967 192.171 Q563.31 189.809 565.463 188.675 Q567.616 187.518 570.694 187.518 Q571.134 187.518 571.666 187.587 Q572.199 187.634 572.847 187.749 L572.87 192.124 Z" fill="#000000" fill-rule="nonzero" fill-opacity="1" /><path clip-path="url(#clip360)" d="M577.338 188.143 L581.597 188.143 L581.597 214.069 L577.338 214.069 L577.338 188.143 M577.338 178.05 L581.597 178.05 L581.597 183.444 L577.338 183.444 L577.338 178.05 Z" fill="#000000" fill-rule="nonzero" fill-opacity="1" /><path clip-path="url(#clip360)" d="M609.12 201.129 Q609.12 196.43 607.176 193.768 Q605.254 191.083 601.875 191.083 Q598.495 191.083 596.551 193.768 Q594.629 196.43 594.629 201.129 Q594.629 205.828 596.551 208.513 Q598.495 211.175 601.875 211.175 Q605.254 211.175 607.176 208.513 Q609.12 205.828 609.12 201.129 M594.629 192.078 Q595.972 189.763 598.009 188.652 Q600.069 187.518 602.916 187.518 Q607.639 187.518 610.578 191.268 Q613.541 195.018 613.541 201.129 Q613.541 207.24 610.578 210.99 Q607.639 214.74 602.916 214.74 Q600.069 214.74 598.009 213.629 Q595.972 212.495 594.629 210.18 L594.629 214.069 L590.347 214.069 L590.347 178.05 L594.629 178.05 L594.629 192.078 Z" fill="#000000" fill-rule="nonzero" fill-opacity="1" /><path clip-path="url(#clip360)" d="M620.162 203.837 L620.162 188.143 L624.421 188.143 L624.421 203.675 Q624.421 207.356 625.856 209.208 Q627.291 211.036 630.162 211.036 Q633.611 211.036 635.601 208.837 Q637.615 206.638 637.615 202.842 L637.615 188.143 L641.874 188.143 L641.874 214.069 L637.615 214.069 L637.615 210.087 Q636.064 212.448 634.004 213.606 Q631.967 214.74 629.259 214.74 Q624.791 214.74 622.476 211.962 Q620.162 209.184 620.162 203.837 M630.879 187.518 L630.879 187.518 Z" fill="#000000" fill-rule="nonzero" fill-opacity="1" /><path clip-path="url(#clip360)" d="M654.86 180.782 L654.86 188.143 L663.634 188.143 L663.634 191.453 L654.86 191.453 L654.86 205.527 Q654.86 208.698 655.717 209.601 Q656.597 210.504 659.259 210.504 L663.634 210.504 L663.634 214.069 L659.259 214.069 Q654.328 214.069 652.453 212.24 Q650.578 210.388 650.578 205.527 L650.578 191.453 L647.453 191.453 L647.453 188.143 L650.578 188.143 L650.578 180.782 L654.86 180.782 Z" fill="#000000" fill-rule="nonzero" fill-opacity="1" /><path clip-path="url(#clip360)" d="M669.235 188.143 L673.495 188.143 L673.495 214.069 L669.235 214.069 L669.235 188.143 M669.235 178.05 L673.495 178.05 L673.495 183.444 L669.235 183.444 L669.235 178.05 Z" fill="#000000" fill-rule="nonzero" fill-opacity="1" /><path clip-path="url(#clip360)" d="M692.453 191.129 Q689.027 191.129 687.036 193.814 Q685.046 196.476 685.046 201.129 Q685.046 205.782 687.013 208.467 Q689.004 211.129 692.453 211.129 Q695.856 211.129 697.846 208.444 Q699.837 205.758 699.837 201.129 Q699.837 196.522 697.846 193.837 Q695.856 191.129 692.453 191.129 M692.453 187.518 Q698.008 187.518 701.18 191.129 Q704.351 194.74 704.351 201.129 Q704.351 207.495 701.18 211.129 Q698.008 214.74 692.453 214.74 Q686.874 214.74 683.703 211.129 Q680.555 207.495 680.555 201.129 Q680.555 194.74 683.703 191.129 Q686.874 187.518 692.453 187.518 Z" fill="#000000" fill-rule="nonzero" fill-opacity="1" /><path clip-path="url(#clip360)" d="M732.962 198.421 L732.962 214.069 L728.703 214.069 L728.703 198.559 Q728.703 194.879 727.268 193.05 Q725.832 191.222 722.962 191.222 Q719.513 191.222 717.522 193.421 Q715.531 195.62 715.531 199.416 L715.531 214.069 L711.249 214.069 L711.249 188.143 L715.531 188.143 L715.531 192.171 Q717.059 189.833 719.119 188.675 Q721.203 187.518 723.911 187.518 Q728.379 187.518 730.67 190.296 Q732.962 193.05 732.962 198.421 Z" fill="#000000" fill-rule="nonzero" fill-opacity="1" /><path clip-path="url(#clip360)" d="M769.652 178.05 L769.652 181.592 L765.577 181.592 Q763.286 181.592 762.383 182.518 Q761.503 183.444 761.503 185.851 L761.503 188.143 L768.517 188.143 L768.517 191.453 L761.503 191.453 L761.503 214.069 L757.221 214.069 L757.221 191.453 L753.147 191.453 L753.147 188.143 L757.221 188.143 L757.221 186.337 Q757.221 182.009 759.235 180.041 Q761.249 178.05 765.624 178.05 L769.652 178.05 Z" fill="#000000" fill-rule="nonzero" fill-opacity="1" /><path clip-path="url(#clip360)" d="M773.216 188.143 L777.476 188.143 L777.476 214.069 L773.216 214.069 L773.216 188.143 M773.216 178.05 L777.476 178.05 L777.476 183.444 L773.216 183.444 L773.216 178.05 Z" fill="#000000" fill-rule="nonzero" fill-opacity="1" /><path clip-path="url(#clip360)" d="M790.6 180.782 L790.6 188.143 L799.374 188.143 L799.374 191.453 L790.6 191.453 L790.6 205.527 Q790.6 208.698 791.457 209.601 Q792.337 210.504 794.999 210.504 L799.374 210.504 L799.374 214.069 L794.999 214.069 Q790.068 214.069 788.193 212.24 Q786.318 210.388 786.318 205.527 L786.318 191.453 L783.193 191.453 L783.193 188.143 L786.318 188.143 L786.318 180.782 L790.6 180.782 Z" fill="#000000" fill-rule="nonzero" fill-opacity="1" /></svg>
