<?xml version="1.0" encoding="utf-8"?>
<svg xmlns="http://www.w3.org/2000/svg" xmlns:xlink="http://www.w3.org/1999/xlink" width="600" height="400" viewBox="0 0 2400 1600">
<defs>
  <clipPath id="clip460">
    <rect x="0" y="0" width="2400" height="1600"/>
  </clipPath>
</defs>
<path clip-path="url(#clip460)" d="M0 1600 L2400 1600 L2400 8.88178e-14 L0 8.88178e-14  Z" fill="#ffffff" fill-rule="evenodd" fill-opacity="1"/>
<defs>
  <clipPath id="clip461">
    <rect x="480" y="0" width="1681" height="1600"/>
  </clipPath>
</defs>
<path clip-path="url(#clip460)" d="M202.227 1423.18 L2352.76 1423.18 L2352.76 47.2441 L202.227 47.2441  Z" fill="#ffffff" fill-rule="evenodd" fill-opacity="1"/>
<defs>
  <clipPath id="clip462">
    <rect x="202" y="47" width="2152" height="1377"/>
  </clipPath>
</defs>
<polyline clip-path="url(#clip462)" style="stroke:#000000; stroke-linecap:round; stroke-linejoin:round; stroke-width:2; stroke-opacity:0.1; fill:none" points="203.922,1423.18 203.922,47.2441 "/>
<polyline clip-path="url(#clip462)" style="stroke:#000000; stroke-linecap:round; stroke-linejoin:round; stroke-width:2; stroke-opacity:0.1; fill:none" points="740.783,1423.18 740.783,47.2441 "/>
<polyline clip-path="url(#clip462)" style="stroke:#000000; stroke-linecap:round; stroke-linejoin:round; stroke-width:2; stroke-opacity:0.1; fill:none" points="1277.64,1423.18 1277.64,47.2441 "/>
<polyline clip-path="url(#clip462)" style="stroke:#000000; stroke-linecap:round; stroke-linejoin:round; stroke-width:2; stroke-opacity:0.1; fill:none" points="1814.5,1423.18 1814.5,47.2441 "/>
<polyline clip-path="url(#clip462)" style="stroke:#000000; stroke-linecap:round; stroke-linejoin:round; stroke-width:2; stroke-opacity:0.1; fill:none" points="2351.37,1423.18 2351.37,47.2441 "/>
<polyline clip-path="url(#clip462)" style="stroke:#000000; stroke-linecap:round; stroke-linejoin:round; stroke-width:2; stroke-opacity:0.1; fill:none" points="203.922,1423.18 203.922,47.2441 "/>
<polyline clip-path="url(#clip462)" style="stroke:#000000; stroke-linecap:round; stroke-linejoin:round; stroke-width:2; stroke-opacity:0.1; fill:none" points="740.783,1423.18 740.783,47.2441 "/>
<polyline clip-path="url(#clip462)" style="stroke:#000000; stroke-linecap:round; stroke-linejoin:round; stroke-width:2; stroke-opacity:0.1; fill:none" points="1277.64,1423.18 1277.64,47.2441 "/>
<polyline clip-path="url(#clip462)" style="stroke:#000000; stroke-linecap:round; stroke-linejoin:round; stroke-width:2; stroke-opacity:0.1; fill:none" points="1814.5,1423.18 1814.5,47.2441 "/>
<polyline clip-path="url(#clip462)" style="stroke:#000000; stroke-linecap:round; stroke-linejoin:round; stroke-width:2; stroke-opacity:0.1; fill:none" points="2351.37,1423.18 2351.37,47.2441 "/>
<polyline clip-path="url(#clip462)" style="stroke:#000000; stroke-linecap:round; stroke-linejoin:round; stroke-width:2; stroke-opacity:0.1; fill:none" points="202.227,1384.24 2352.76,1384.24 "/>
<polyline clip-path="url(#clip462)" style="stroke:#000000; stroke-linecap:round; stroke-linejoin:round; stroke-width:2; stroke-opacity:0.1; fill:none" points="202.227,945.651 2352.76,945.651 "/>
<polyline clip-path="url(#clip462)" style="stroke:#000000; stroke-linecap:round; stroke-linejoin:round; stroke-width:2; stroke-opacity:0.1; fill:none" points="202.227,507.063 2352.76,507.063 "/>
<polyline clip-path="url(#clip462)" style="stroke:#000000; stroke-linecap:round; stroke-linejoin:round; stroke-width:2; stroke-opacity:0.1; fill:none" points="202.227,68.4749 2352.76,68.4749 "/>
<polyline clip-path="url(#clip462)" style="stroke:#000000; stroke-linecap:round; stroke-linejoin:round; stroke-width:2; stroke-opacity:0.1; fill:none" points="202.227,1384.24 2352.76,1384.24 "/>
<polyline clip-path="url(#clip462)" style="stroke:#000000; stroke-linecap:round; stroke-linejoin:round; stroke-width:2; stroke-opacity:0.1; fill:none" points="202.227,945.651 2352.76,945.651 "/>
<polyline clip-path="url(#clip462)" style="stroke:#000000; stroke-linecap:round; stroke-linejoin:round; stroke-width:2; stroke-opacity:0.1; fill:none" points="202.227,507.063 2352.76,507.063 "/>
<polyline clip-path="url(#clip462)" style="stroke:#000000; stroke-linecap:round; stroke-linejoin:round; stroke-width:2; stroke-opacity:0.1; fill:none" points="202.227,68.4749 2352.76,68.4749 "/>
<polyline clip-path="url(#clip460)" style="stroke:#000000; stroke-linecap:round; stroke-linejoin:round; stroke-width:4; stroke-opacity:1; fill:none" points="202.227,1423.18 2352.76,1423.18 "/>
<polyline clip-path="url(#clip460)" style="stroke:#000000; stroke-linecap:round; stroke-linejoin:round; stroke-width:4; stroke-opacity:1; fill:none" points="202.227,47.2441 2352.76,47.2441 "/>
<polyline clip-path="url(#clip460)" style="stroke:#000000; stroke-linecap:round; stroke-linejoin:round; stroke-width:4; stroke-opacity:1; fill:none" points="203.922,1423.18 203.922,1404.28 "/>
<polyline clip-path="url(#clip460)" style="stroke:#000000; stroke-linecap:round; stroke-linejoin:round; stroke-width:4; stroke-opacity:1; fill:none" points="740.783,1423.18 740.783,1404.28 "/>
<polyline clip-path="url(#clip460)" style="stroke:#000000; stroke-linecap:round; stroke-linejoin:round; stroke-width:4; stroke-opacity:1; fill:none" points="1277.64,1423.18 1277.64,1404.28 "/>
<polyline clip-path="url(#clip460)" style="stroke:#000000; stroke-linecap:round; stroke-linejoin:round; stroke-width:4; stroke-opacity:1; fill:none" points="1814.5,1423.18 1814.5,1404.28 "/>
<polyline clip-path="url(#clip460)" style="stroke:#000000; stroke-linecap:round; stroke-linejoin:round; stroke-width:4; stroke-opacity:1; fill:none" points="2351.37,1423.18 2351.37,1404.28 "/>
<polyline clip-path="url(#clip460)" style="stroke:#000000; stroke-linecap:round; stroke-linejoin:round; stroke-width:4; stroke-opacity:1; fill:none" points="203.922,47.2441 203.922,66.1417 "/>
<polyline clip-path="url(#clip460)" style="stroke:#000000; stroke-linecap:round; stroke-linejoin:round; stroke-width:4; stroke-opacity:1; fill:none" points="740.783,47.2441 740.783,66.1417 "/>
<polyline clip-path="url(#clip460)" style="stroke:#000000; stroke-linecap:round; stroke-linejoin:round; stroke-width:4; stroke-opacity:1; fill:none" points="1277.64,47.2441 1277.64,66.1417 "/>
<polyline clip-path="url(#clip460)" style="stroke:#000000; stroke-linecap:round; stroke-linejoin:round; stroke-width:4; stroke-opacity:1; fill:none" points="1814.5,47.2441 1814.5,66.1417 "/>
<polyline clip-path="url(#clip460)" style="stroke:#000000; stroke-linecap:round; stroke-linejoin:round; stroke-width:4; stroke-opacity:1; fill:none" points="2351.37,47.2441 2351.37,66.1417 "/>
<path clip-path="url(#clip460)" d="M166.63 1466.44 Q163.482 1466.44 161.63 1468.59 Q159.801 1470.74 159.801 1474.49 Q159.801 1478.22 161.63 1480.39 Q163.482 1482.55 166.63 1482.55 Q169.778 1482.55 171.607 1480.39 Q173.459 1478.22 173.459 1474.49 Q173.459 1470.74 171.607 1468.59 Q169.778 1466.44 166.63 1466.44 M175.912 1451.78 L175.912 1456.04 Q174.153 1455.21 172.348 1454.77 Q170.565 1454.33 168.806 1454.33 Q164.176 1454.33 161.723 1457.45 Q159.292 1460.58 158.945 1466.9 Q160.311 1464.89 162.371 1463.82 Q164.431 1462.73 166.908 1462.73 Q172.116 1462.73 175.125 1465.9 Q178.158 1469.05 178.158 1474.49 Q178.158 1479.82 175.01 1483.03 Q171.862 1486.25 166.63 1486.25 Q160.635 1486.25 157.464 1481.67 Q154.292 1477.06 154.292 1468.33 Q154.292 1460.14 158.181 1455.28 Q162.07 1450.39 168.621 1450.39 Q170.38 1450.39 172.162 1450.74 Q173.968 1451.09 175.912 1451.78 Z" fill="#000000" fill-rule="nonzero" fill-opacity="1" /><path clip-path="url(#clip460)" d="M186.26 1451.02 L204.616 1451.02 L204.616 1454.96 L190.542 1454.96 L190.542 1463.43 Q191.561 1463.08 192.579 1462.92 Q193.598 1462.73 194.616 1462.73 Q200.403 1462.73 203.783 1465.9 Q207.162 1469.08 207.162 1474.49 Q207.162 1480.07 203.69 1483.17 Q200.218 1486.25 193.898 1486.25 Q191.723 1486.25 189.454 1485.88 Q187.209 1485.51 184.801 1484.77 L184.801 1480.07 Q186.885 1481.2 189.107 1481.76 Q191.329 1482.32 193.806 1482.32 Q197.811 1482.32 200.148 1480.21 Q202.486 1478.1 202.486 1474.49 Q202.486 1470.88 200.148 1468.77 Q197.811 1466.67 193.806 1466.67 Q191.931 1466.67 190.056 1467.08 Q188.204 1467.5 186.26 1468.38 L186.26 1451.02 Z" fill="#000000" fill-rule="nonzero" fill-opacity="1" /><path clip-path="url(#clip460)" d="M216.375 1479.7 L221.259 1479.7 L221.259 1485.58 L216.375 1485.58 L216.375 1479.7 Z" fill="#000000" fill-rule="nonzero" fill-opacity="1" /><path clip-path="url(#clip460)" d="M242.023 1466.44 Q238.875 1466.44 237.023 1468.59 Q235.195 1470.74 235.195 1474.49 Q235.195 1478.22 237.023 1480.39 Q238.875 1482.55 242.023 1482.55 Q245.171 1482.55 247 1480.39 Q248.852 1478.22 248.852 1474.49 Q248.852 1470.74 247 1468.59 Q245.171 1466.44 242.023 1466.44 M251.306 1451.78 L251.306 1456.04 Q249.546 1455.21 247.741 1454.77 Q245.958 1454.33 244.199 1454.33 Q239.57 1454.33 237.116 1457.45 Q234.685 1460.58 234.338 1466.9 Q235.704 1464.89 237.764 1463.82 Q239.824 1462.73 242.301 1462.73 Q247.509 1462.73 250.519 1465.9 Q253.551 1469.05 253.551 1474.49 Q253.551 1479.82 250.403 1483.03 Q247.255 1486.25 242.023 1486.25 Q236.028 1486.25 232.857 1481.67 Q229.685 1477.06 229.685 1468.33 Q229.685 1460.14 233.574 1455.28 Q237.463 1450.39 244.014 1450.39 Q245.773 1450.39 247.556 1450.74 Q249.361 1451.09 251.306 1451.78 Z" fill="#000000" fill-rule="nonzero" fill-opacity="1" /><path clip-path="url(#clip460)" d="M703.619 1466.44 Q700.47 1466.44 698.619 1468.59 Q696.79 1470.74 696.79 1474.49 Q696.79 1478.22 698.619 1480.39 Q700.47 1482.55 703.619 1482.55 Q706.767 1482.55 708.595 1480.39 Q710.447 1478.22 710.447 1474.49 Q710.447 1470.74 708.595 1468.59 Q706.767 1466.44 703.619 1466.44 M712.901 1451.78 L712.901 1456.04 Q711.142 1455.21 709.336 1454.77 Q707.554 1454.33 705.794 1454.33 Q701.165 1454.33 698.711 1457.45 Q696.281 1460.58 695.933 1466.9 Q697.299 1464.89 699.359 1463.82 Q701.419 1462.73 703.896 1462.73 Q709.105 1462.73 712.114 1465.9 Q715.146 1469.05 715.146 1474.49 Q715.146 1479.82 711.998 1483.03 Q708.85 1486.25 703.619 1486.25 Q697.623 1486.25 694.452 1481.67 Q691.281 1477.06 691.281 1468.33 Q691.281 1460.14 695.17 1455.28 Q699.058 1450.39 705.609 1450.39 Q707.369 1450.39 709.151 1450.74 Q710.956 1451.09 712.901 1451.78 Z" fill="#000000" fill-rule="nonzero" fill-opacity="1" /><path clip-path="url(#clip460)" d="M723.248 1451.02 L741.604 1451.02 L741.604 1454.96 L727.53 1454.96 L727.53 1463.43 Q728.549 1463.08 729.567 1462.92 Q730.586 1462.73 731.604 1462.73 Q737.392 1462.73 740.771 1465.9 Q744.151 1469.08 744.151 1474.49 Q744.151 1480.07 740.679 1483.17 Q737.206 1486.25 730.887 1486.25 Q728.711 1486.25 726.442 1485.88 Q724.197 1485.51 721.79 1484.77 L721.79 1480.07 Q723.873 1481.2 726.095 1481.76 Q728.317 1482.32 730.794 1482.32 Q734.799 1482.32 737.137 1480.21 Q739.475 1478.1 739.475 1474.49 Q739.475 1470.88 737.137 1468.77 Q734.799 1466.67 730.794 1466.67 Q728.919 1466.67 727.044 1467.08 Q725.192 1467.5 723.248 1468.38 L723.248 1451.02 Z" fill="#000000" fill-rule="nonzero" fill-opacity="1" /><path clip-path="url(#clip460)" d="M753.364 1479.7 L758.248 1479.7 L758.248 1485.58 L753.364 1485.58 L753.364 1479.7 Z" fill="#000000" fill-rule="nonzero" fill-opacity="1" /><path clip-path="url(#clip460)" d="M778.433 1469.17 Q775.1 1469.17 773.178 1470.95 Q771.28 1472.73 771.28 1475.86 Q771.28 1478.98 773.178 1480.77 Q775.1 1482.55 778.433 1482.55 Q781.766 1482.55 783.688 1480.77 Q785.609 1478.96 785.609 1475.86 Q785.609 1472.73 783.688 1470.95 Q781.789 1469.17 778.433 1469.17 M773.757 1467.18 Q770.748 1466.44 769.058 1464.38 Q767.391 1462.32 767.391 1459.35 Q767.391 1455.21 770.331 1452.8 Q773.294 1450.39 778.433 1450.39 Q783.595 1450.39 786.535 1452.8 Q789.475 1455.21 789.475 1459.35 Q789.475 1462.32 787.785 1464.38 Q786.118 1466.44 783.132 1467.18 Q786.512 1467.96 788.387 1470.26 Q790.285 1472.55 790.285 1475.86 Q790.285 1480.88 787.206 1483.57 Q784.151 1486.25 778.433 1486.25 Q772.715 1486.25 769.637 1483.57 Q766.581 1480.88 766.581 1475.86 Q766.581 1472.55 768.479 1470.26 Q770.377 1467.96 773.757 1467.18 M772.044 1459.79 Q772.044 1462.48 773.711 1463.98 Q775.401 1465.49 778.433 1465.49 Q781.442 1465.49 783.132 1463.98 Q784.845 1462.48 784.845 1459.79 Q784.845 1457.11 783.132 1455.6 Q781.442 1454.1 778.433 1454.1 Q775.401 1454.1 773.711 1455.6 Q772.044 1457.11 772.044 1459.79 Z" fill="#000000" fill-rule="nonzero" fill-opacity="1" /><path clip-path="url(#clip460)" d="M1240.43 1466.44 Q1237.29 1466.44 1235.43 1468.59 Q1233.6 1470.74 1233.6 1474.49 Q1233.6 1478.22 1235.43 1480.39 Q1237.29 1482.55 1240.43 1482.55 Q1243.58 1482.55 1245.41 1480.39 Q1247.26 1478.22 1247.26 1474.49 Q1247.26 1470.74 1245.41 1468.59 Q1243.58 1466.44 1240.43 1466.44 M1249.72 1451.78 L1249.72 1456.04 Q1247.96 1455.21 1246.15 1454.77 Q1244.37 1454.33 1242.61 1454.33 Q1237.98 1454.33 1235.53 1457.45 Q1233.1 1460.58 1232.75 1466.9 Q1234.11 1464.89 1236.17 1463.82 Q1238.23 1462.73 1240.71 1462.73 Q1245.92 1462.73 1248.93 1465.9 Q1251.96 1469.05 1251.96 1474.49 Q1251.96 1479.82 1248.81 1483.03 Q1245.66 1486.25 1240.43 1486.25 Q1234.44 1486.25 1231.27 1481.67 Q1228.1 1477.06 1228.1 1468.33 Q1228.1 1460.14 1231.98 1455.28 Q1235.87 1450.39 1242.42 1450.39 Q1244.18 1450.39 1245.97 1450.74 Q1247.77 1451.09 1249.72 1451.78 Z" fill="#000000" fill-rule="nonzero" fill-opacity="1" /><path clip-path="url(#clip460)" d="M1270.6 1466.44 Q1267.45 1466.44 1265.6 1468.59 Q1263.77 1470.74 1263.77 1474.49 Q1263.77 1478.22 1265.6 1480.39 Q1267.45 1482.55 1270.6 1482.55 Q1273.74 1482.55 1275.57 1480.39 Q1277.42 1478.22 1277.42 1474.49 Q1277.42 1470.74 1275.57 1468.59 Q1273.74 1466.44 1270.6 1466.44 M1279.88 1451.78 L1279.88 1456.04 Q1278.12 1455.21 1276.31 1454.77 Q1274.53 1454.33 1272.77 1454.33 Q1268.14 1454.33 1265.69 1457.45 Q1263.26 1460.58 1262.91 1466.9 Q1264.28 1464.89 1266.34 1463.82 Q1268.4 1462.73 1270.87 1462.73 Q1276.08 1462.73 1279.09 1465.9 Q1282.12 1469.05 1282.12 1474.49 Q1282.12 1479.82 1278.97 1483.03 Q1275.83 1486.25 1270.6 1486.25 Q1264.6 1486.25 1261.43 1481.67 Q1258.26 1477.06 1258.26 1468.33 Q1258.26 1460.14 1262.15 1455.28 Q1266.04 1450.39 1272.59 1450.39 Q1274.35 1450.39 1276.13 1450.74 Q1277.93 1451.09 1279.88 1451.78 Z" fill="#000000" fill-rule="nonzero" fill-opacity="1" /><path clip-path="url(#clip460)" d="M1290.18 1479.7 L1295.06 1479.7 L1295.06 1485.58 L1290.18 1485.58 L1290.18 1479.7 Z" fill="#000000" fill-rule="nonzero" fill-opacity="1" /><path clip-path="url(#clip460)" d="M1315.25 1454.1 Q1311.64 1454.1 1309.81 1457.66 Q1308 1461.2 1308 1468.33 Q1308 1475.44 1309.81 1479.01 Q1311.64 1482.55 1315.25 1482.55 Q1318.88 1482.55 1320.69 1479.01 Q1322.52 1475.44 1322.52 1468.33 Q1322.52 1461.2 1320.69 1457.66 Q1318.88 1454.1 1315.25 1454.1 M1315.25 1450.39 Q1321.06 1450.39 1324.11 1455 Q1327.19 1459.58 1327.19 1468.33 Q1327.19 1477.06 1324.11 1481.67 Q1321.06 1486.25 1315.25 1486.25 Q1309.44 1486.25 1306.36 1481.67 Q1303.3 1477.06 1303.3 1468.33 Q1303.3 1459.58 1306.36 1455 Q1309.44 1450.39 1315.25 1450.39 Z" fill="#000000" fill-rule="nonzero" fill-opacity="1" /><path clip-path="url(#clip460)" d="M1778.09 1466.44 Q1774.94 1466.44 1773.09 1468.59 Q1771.26 1470.74 1771.26 1474.49 Q1771.26 1478.22 1773.09 1480.39 Q1774.94 1482.55 1778.09 1482.55 Q1781.24 1482.55 1783.07 1480.39 Q1784.92 1478.22 1784.92 1474.49 Q1784.92 1470.74 1783.07 1468.59 Q1781.24 1466.44 1778.09 1466.44 M1787.38 1451.78 L1787.38 1456.04 Q1785.62 1455.21 1783.81 1454.77 Q1782.03 1454.33 1780.27 1454.33 Q1775.64 1454.33 1773.19 1457.45 Q1770.76 1460.58 1770.41 1466.9 Q1771.77 1464.89 1773.83 1463.82 Q1775.89 1462.73 1778.37 1462.73 Q1783.58 1462.73 1786.59 1465.9 Q1789.62 1469.05 1789.62 1474.49 Q1789.62 1479.82 1786.47 1483.03 Q1783.32 1486.25 1778.09 1486.25 Q1772.1 1486.25 1768.93 1481.67 Q1765.76 1477.06 1765.76 1468.33 Q1765.76 1460.14 1769.64 1455.28 Q1773.53 1450.39 1780.08 1450.39 Q1781.84 1450.39 1783.63 1450.74 Q1785.43 1451.09 1787.38 1451.78 Z" fill="#000000" fill-rule="nonzero" fill-opacity="1" /><path clip-path="url(#clip460)" d="M1808.25 1466.44 Q1805.11 1466.44 1803.25 1468.59 Q1801.43 1470.74 1801.43 1474.49 Q1801.43 1478.22 1803.25 1480.39 Q1805.11 1482.55 1808.25 1482.55 Q1811.4 1482.55 1813.23 1480.39 Q1815.08 1478.22 1815.08 1474.49 Q1815.08 1470.74 1813.23 1468.59 Q1811.4 1466.44 1808.25 1466.44 M1817.54 1451.78 L1817.54 1456.04 Q1815.78 1455.21 1813.97 1454.77 Q1812.19 1454.33 1810.43 1454.33 Q1805.8 1454.33 1803.35 1457.45 Q1800.92 1460.58 1800.57 1466.9 Q1801.94 1464.89 1804 1463.82 Q1806.06 1462.73 1808.53 1462.73 Q1813.74 1462.73 1816.75 1465.9 Q1819.78 1469.05 1819.78 1474.49 Q1819.78 1479.82 1816.63 1483.03 Q1813.49 1486.25 1808.25 1486.25 Q1802.26 1486.25 1799.09 1481.67 Q1795.92 1477.06 1795.92 1468.33 Q1795.92 1460.14 1799.81 1455.28 Q1803.69 1450.39 1810.25 1450.39 Q1812 1450.39 1813.79 1450.74 Q1815.59 1451.09 1817.54 1451.78 Z" fill="#000000" fill-rule="nonzero" fill-opacity="1" /><path clip-path="url(#clip460)" d="M1827.84 1479.7 L1832.72 1479.7 L1832.72 1485.58 L1827.84 1485.58 L1827.84 1479.7 Z" fill="#000000" fill-rule="nonzero" fill-opacity="1" /><path clip-path="url(#clip460)" d="M1846.94 1481.64 L1863.25 1481.64 L1863.25 1485.58 L1841.31 1485.58 L1841.31 1481.64 Q1843.97 1478.89 1848.56 1474.26 Q1853.16 1469.61 1854.34 1468.27 Q1856.59 1465.74 1857.47 1464.01 Q1858.37 1462.25 1858.37 1460.56 Q1858.37 1457.8 1856.43 1456.07 Q1854.5 1454.33 1851.4 1454.33 Q1849.2 1454.33 1846.75 1455.09 Q1844.32 1455.86 1841.54 1457.41 L1841.54 1452.69 Q1844.37 1451.55 1846.82 1450.97 Q1849.27 1450.39 1851.31 1450.39 Q1856.68 1450.39 1859.88 1453.08 Q1863.07 1455.77 1863.07 1460.26 Q1863.07 1462.39 1862.26 1464.31 Q1861.47 1466.2 1859.37 1468.8 Q1858.79 1469.47 1855.69 1472.69 Q1852.58 1475.88 1846.94 1481.64 Z" fill="#000000" fill-rule="nonzero" fill-opacity="1" /><path clip-path="url(#clip460)" d="M2313.91 1466.44 Q2310.76 1466.44 2308.91 1468.59 Q2307.08 1470.74 2307.08 1474.49 Q2307.08 1478.22 2308.91 1480.39 Q2310.76 1482.55 2313.91 1482.55 Q2317.06 1482.55 2318.89 1480.39 Q2320.74 1478.22 2320.74 1474.49 Q2320.74 1470.74 2318.89 1468.59 Q2317.06 1466.44 2313.91 1466.44 M2323.19 1451.78 L2323.19 1456.04 Q2321.44 1455.21 2319.63 1454.77 Q2317.85 1454.33 2316.09 1454.33 Q2311.46 1454.33 2309.01 1457.45 Q2306.57 1460.58 2306.23 1466.9 Q2307.59 1464.89 2309.65 1463.82 Q2311.71 1462.73 2314.19 1462.73 Q2319.4 1462.73 2322.41 1465.9 Q2325.44 1469.05 2325.44 1474.49 Q2325.44 1479.82 2322.29 1483.03 Q2319.14 1486.25 2313.91 1486.25 Q2307.92 1486.25 2304.75 1481.67 Q2301.57 1477.06 2301.57 1468.33 Q2301.57 1460.14 2305.46 1455.28 Q2309.35 1450.39 2315.9 1450.39 Q2317.66 1450.39 2319.44 1450.74 Q2321.25 1451.09 2323.19 1451.78 Z" fill="#000000" fill-rule="nonzero" fill-opacity="1" /><path clip-path="url(#clip460)" d="M2344.07 1466.44 Q2340.93 1466.44 2339.07 1468.59 Q2337.25 1470.74 2337.25 1474.49 Q2337.25 1478.22 2339.07 1480.39 Q2340.93 1482.55 2344.07 1482.55 Q2347.22 1482.55 2349.05 1480.39 Q2350.9 1478.22 2350.9 1474.49 Q2350.9 1470.74 2349.05 1468.59 Q2347.22 1466.44 2344.07 1466.44 M2353.36 1451.78 L2353.36 1456.04 Q2351.6 1455.21 2349.79 1454.77 Q2348.01 1454.33 2346.25 1454.33 Q2341.62 1454.33 2339.17 1457.45 Q2336.74 1460.58 2336.39 1466.9 Q2337.75 1464.89 2339.82 1463.82 Q2341.88 1462.73 2344.35 1462.73 Q2349.56 1462.73 2352.57 1465.9 Q2355.6 1469.05 2355.6 1474.49 Q2355.6 1479.82 2352.45 1483.03 Q2349.31 1486.25 2344.07 1486.25 Q2338.08 1486.25 2334.91 1481.67 Q2331.74 1477.06 2331.74 1468.33 Q2331.74 1460.14 2335.63 1455.28 Q2339.51 1450.39 2346.07 1450.39 Q2347.82 1450.39 2349.61 1450.74 Q2351.41 1451.09 2353.36 1451.78 Z" fill="#000000" fill-rule="nonzero" fill-opacity="1" /><path clip-path="url(#clip460)" d="M2363.66 1479.7 L2368.54 1479.7 L2368.54 1485.58 L2363.66 1485.58 L2363.66 1479.7 Z" fill="#000000" fill-rule="nonzero" fill-opacity="1" /><path clip-path="url(#clip460)" d="M2391.57 1455.09 L2379.77 1473.54 L2391.57 1473.54 L2391.57 1455.09 M2390.35 1451.02 L2396.23 1451.02 L2396.23 1473.54 L2401.16 1473.54 L2401.16 1477.43 L2396.23 1477.43 L2396.23 1485.58 L2391.57 1485.58 L2391.57 1477.43 L2375.97 1477.43 L2375.97 1472.92 L2390.35 1451.02 Z" fill="#000000" fill-rule="nonzero" fill-opacity="1" /><path clip-path="url(#clip460)" d="M1155.4 1526.86 L1146.68 1550.51 L1164.15 1550.51 L1155.4 1526.86 M1151.77 1520.52 L1159.06 1520.52 L1177.17 1568.04 L1170.48 1568.04 L1166.16 1555.85 L1144.73 1555.85 L1140.41 1568.04 L1133.63 1568.04 L1151.77 1520.52 Z" fill="#000000" fill-rule="nonzero" fill-opacity="1" /><path clip-path="url(#clip460)" d="M1207.31 1549.81 Q1207.31 1543.44 1204.67 1539.94 Q1202.06 1536.44 1197.32 1536.44 Q1192.6 1536.44 1189.96 1539.94 Q1187.35 1543.44 1187.35 1549.81 Q1187.35 1556.14 1189.96 1559.64 Q1192.6 1563.14 1197.32 1563.14 Q1202.06 1563.14 1204.67 1559.64 Q1207.31 1556.14 1207.31 1549.81 M1213.17 1563.62 Q1213.17 1572.72 1209.12 1577.15 Q1205.08 1581.6 1196.74 1581.6 Q1193.66 1581.6 1190.92 1581.13 Q1188.18 1580.68 1185.6 1579.72 L1185.6 1574.03 Q1188.18 1575.43 1190.7 1576.1 Q1193.21 1576.76 1195.82 1576.76 Q1201.58 1576.76 1204.45 1573.74 Q1207.31 1570.75 1207.31 1564.67 L1207.31 1561.77 Q1205.5 1564.92 1202.66 1566.48 Q1199.83 1568.04 1195.88 1568.04 Q1189.33 1568.04 1185.32 1563.05 Q1181.31 1558.05 1181.31 1549.81 Q1181.31 1541.53 1185.32 1536.53 Q1189.33 1531.54 1195.88 1531.54 Q1199.83 1531.54 1202.66 1533.1 Q1205.5 1534.66 1207.31 1537.81 L1207.31 1532.4 L1213.17 1532.4 L1213.17 1563.62 Z" fill="#000000" fill-rule="nonzero" fill-opacity="1" /><path clip-path="url(#clip460)" d="M1255.72 1548.76 L1255.72 1551.62 L1228.79 1551.62 Q1229.18 1557.67 1232.42 1560.85 Q1235.7 1564 1241.53 1564 Q1244.9 1564 1248.05 1563.17 Q1251.23 1562.35 1254.35 1560.69 L1254.35 1566.23 Q1251.2 1567.57 1247.89 1568.27 Q1244.58 1568.97 1241.18 1568.97 Q1232.65 1568.97 1227.65 1564 Q1222.68 1559.04 1222.68 1550.57 Q1222.68 1541.82 1227.39 1536.69 Q1232.14 1531.54 1240.16 1531.54 Q1247.35 1531.54 1251.52 1536.18 Q1255.72 1540.8 1255.72 1548.76 M1249.86 1547.04 Q1249.8 1542.23 1247.16 1539.37 Q1244.55 1536.5 1240.22 1536.5 Q1235.32 1536.5 1232.36 1539.27 Q1229.43 1542.04 1228.99 1547.07 L1249.86 1547.04 Z" fill="#000000" fill-rule="nonzero" fill-opacity="1" /><path clip-path="url(#clip460)" d="M1300.12 1518.58 Q1295.86 1525.9 1293.79 1533.06 Q1291.72 1540.23 1291.72 1547.58 Q1291.72 1554.93 1293.79 1562.16 Q1295.89 1569.35 1300.12 1576.64 L1295.03 1576.64 Q1290.25 1569.16 1287.87 1561.93 Q1285.51 1554.71 1285.51 1547.58 Q1285.51 1540.48 1287.87 1533.29 Q1290.22 1526.09 1295.03 1518.58 L1300.12 1518.58 Z" fill="#000000" fill-rule="nonzero" fill-opacity="1" /><path clip-path="url(#clip460)" d="M1311.74 1520.52 L1321.32 1520.52 L1333.45 1552.86 L1345.64 1520.52 L1355.22 1520.52 L1355.22 1568.04 L1348.95 1568.04 L1348.95 1526.32 L1336.69 1558.91 L1330.23 1558.91 L1317.98 1526.32 L1317.98 1568.04 L1311.74 1568.04 L1311.74 1520.52 Z" fill="#000000" fill-rule="nonzero" fill-opacity="1" /><path clip-path="url(#clip460)" d="M1383.93 1550.12 Q1376.83 1550.12 1374.09 1551.75 Q1371.35 1553.37 1371.35 1557.29 Q1371.35 1560.4 1373.39 1562.25 Q1375.46 1564.07 1378.99 1564.07 Q1383.86 1564.07 1386.79 1560.63 Q1389.75 1557.16 1389.75 1551.43 L1389.75 1550.12 L1383.93 1550.12 M1395.61 1547.71 L1395.61 1568.04 L1389.75 1568.04 L1389.75 1562.63 Q1387.75 1565.88 1384.75 1567.44 Q1381.76 1568.97 1377.43 1568.97 Q1371.96 1568.97 1368.71 1565.91 Q1365.5 1562.82 1365.5 1557.67 Q1365.5 1551.65 1369.51 1548.6 Q1373.55 1545.54 1381.54 1545.54 L1389.75 1545.54 L1389.75 1544.97 Q1389.75 1540.93 1387.08 1538.73 Q1384.44 1536.5 1379.63 1536.5 Q1376.57 1536.5 1373.68 1537.23 Q1370.78 1537.97 1368.11 1539.43 L1368.11 1534.02 Q1371.32 1532.78 1374.35 1532.17 Q1377.37 1531.54 1380.23 1531.54 Q1387.97 1531.54 1391.79 1535.55 Q1395.61 1539.56 1395.61 1547.71 Z" fill="#000000" fill-rule="nonzero" fill-opacity="1" /><path clip-path="url(#clip460)" d="M1406.75 1518.58 L1411.84 1518.58 Q1416.61 1526.09 1418.97 1533.29 Q1421.36 1540.48 1421.36 1547.58 Q1421.36 1554.71 1418.97 1561.93 Q1416.61 1569.16 1411.84 1576.64 L1406.75 1576.64 Q1410.98 1569.35 1413.05 1562.16 Q1415.15 1554.93 1415.15 1547.58 Q1415.15 1540.23 1413.05 1533.06 Q1410.98 1525.9 1406.75 1518.58 Z" fill="#000000" fill-rule="nonzero" fill-opacity="1" /><polyline clip-path="url(#clip460)" style="stroke:#000000; stroke-linecap:round; stroke-linejoin:round; stroke-width:4; stroke-opacity:1; fill:none" points="202.227,1423.18 202.227,47.2441 "/>
<polyline clip-path="url(#clip460)" style="stroke:#000000; stroke-linecap:round; stroke-linejoin:round; stroke-width:4; stroke-opacity:1; fill:none" points="2352.76,1423.18 2352.76,47.2441 "/>
<polyline clip-path="url(#clip460)" style="stroke:#000000; stroke-linecap:round; stroke-linejoin:round; stroke-width:4; stroke-opacity:1; fill:none" points="202.227,1384.24 221.125,1384.24 "/>
<polyline clip-path="url(#clip460)" style="stroke:#000000; stroke-linecap:round; stroke-linejoin:round; stroke-width:4; stroke-opacity:1; fill:none" points="202.227,945.651 221.125,945.651 "/>
<polyline clip-path="url(#clip460)" style="stroke:#000000; stroke-linecap:round; stroke-linejoin:round; stroke-width:4; stroke-opacity:1; fill:none" points="202.227,507.063 221.125,507.063 "/>
<polyline clip-path="url(#clip460)" style="stroke:#000000; stroke-linecap:round; stroke-linejoin:round; stroke-width:4; stroke-opacity:1; fill:none" points="202.227,68.4749 221.125,68.4749 "/>
<polyline clip-path="url(#clip460)" style="stroke:#000000; stroke-linecap:round; stroke-linejoin:round; stroke-width:4; stroke-opacity:1; fill:none" points="2352.76,1384.24 2333.86,1384.24 "/>
<polyline clip-path="url(#clip460)" style="stroke:#000000; stroke-linecap:round; stroke-linejoin:round; stroke-width:4; stroke-opacity:1; fill:none" points="2352.76,945.651 2333.86,945.651 "/>
<polyline clip-path="url(#clip460)" style="stroke:#000000; stroke-linecap:round; stroke-linejoin:round; stroke-width:4; stroke-opacity:1; fill:none" points="2352.76,507.063 2333.86,507.063 "/>
<polyline clip-path="url(#clip460)" style="stroke:#000000; stroke-linecap:round; stroke-linejoin:round; stroke-width:4; stroke-opacity:1; fill:none" points="2352.76,68.4749 2333.86,68.4749 "/>
<path clip-path="url(#clip460)" d="M154.283 1370.04 Q150.672 1370.04 148.843 1373.6 Q147.038 1377.14 147.038 1384.27 Q147.038 1391.38 148.843 1394.94 Q150.672 1398.49 154.283 1398.49 Q157.917 1398.49 159.723 1394.94 Q161.552 1391.38 161.552 1384.27 Q161.552 1377.14 159.723 1373.6 Q157.917 1370.04 154.283 1370.04 M154.283 1366.33 Q160.093 1366.33 163.149 1370.94 Q166.227 1375.52 166.227 1384.27 Q166.227 1393 163.149 1397.61 Q160.093 1402.19 154.283 1402.19 Q148.473 1402.19 145.394 1397.61 Q142.339 1393 142.339 1384.27 Q142.339 1375.52 145.394 1370.94 Q148.473 1366.33 154.283 1366.33 Z" fill="#000000" fill-rule="nonzero" fill-opacity="1" /><path clip-path="url(#clip460)" d="M145.325 928.371 L163.681 928.371 L163.681 932.306 L149.607 932.306 L149.607 940.778 Q150.626 940.431 151.644 940.269 Q152.663 940.083 153.681 940.083 Q159.468 940.083 162.848 943.255 Q166.227 946.426 166.227 951.843 Q166.227 957.421 162.755 960.523 Q159.283 963.602 152.964 963.602 Q150.788 963.602 148.519 963.232 Q146.274 962.861 143.866 962.12 L143.866 957.421 Q145.95 958.556 148.172 959.111 Q150.394 959.667 152.871 959.667 Q156.876 959.667 159.214 957.56 Q161.552 955.454 161.552 951.843 Q161.552 948.232 159.214 946.125 Q156.876 944.019 152.871 944.019 Q150.996 944.019 149.121 944.435 Q147.269 944.852 145.325 945.732 L145.325 928.371 Z" fill="#000000" fill-rule="nonzero" fill-opacity="1" /><path clip-path="url(#clip460)" d="M114.931 520.408 L122.57 520.408 L122.57 494.042 L114.26 495.709 L114.26 491.449 L122.524 489.783 L127.2 489.783 L127.2 520.408 L134.839 520.408 L134.839 524.343 L114.931 524.343 L114.931 520.408 Z" fill="#000000" fill-rule="nonzero" fill-opacity="1" /><path clip-path="url(#clip460)" d="M154.283 492.861 Q150.672 492.861 148.843 496.426 Q147.038 499.968 147.038 507.097 Q147.038 514.204 148.843 517.769 Q150.672 521.31 154.283 521.31 Q157.917 521.31 159.723 517.769 Q161.552 514.204 161.552 507.097 Q161.552 499.968 159.723 496.426 Q157.917 492.861 154.283 492.861 M154.283 489.158 Q160.093 489.158 163.149 493.764 Q166.227 498.348 166.227 507.097 Q166.227 515.824 163.149 520.431 Q160.093 525.014 154.283 525.014 Q148.473 525.014 145.394 520.431 Q142.339 515.824 142.339 507.097 Q142.339 498.348 145.394 493.764 Q148.473 489.158 154.283 489.158 Z" fill="#000000" fill-rule="nonzero" fill-opacity="1" /><path clip-path="url(#clip460)" d="M115.927 81.8198 L123.566 81.8198 L123.566 55.4542 L115.256 57.1208 L115.256 52.8616 L123.519 51.1949 L128.195 51.1949 L128.195 81.8198 L135.834 81.8198 L135.834 85.7549 L115.927 85.7549 L115.927 81.8198 Z" fill="#000000" fill-rule="nonzero" fill-opacity="1" /><path clip-path="url(#clip460)" d="M145.325 51.1949 L163.681 51.1949 L163.681 55.1301 L149.607 55.1301 L149.607 63.6023 Q150.626 63.2551 151.644 63.093 Q152.663 62.9078 153.681 62.9078 Q159.468 62.9078 162.848 66.0791 Q166.227 69.2504 166.227 74.667 Q166.227 80.2457 162.755 83.3475 Q159.283 86.4262 152.964 86.4262 Q150.788 86.4262 148.519 86.0559 Q146.274 85.6855 143.866 84.9448 L143.866 80.2457 Q145.95 81.38 148.172 81.9355 Q150.394 82.4911 152.871 82.4911 Q156.876 82.4911 159.214 80.3846 Q161.552 78.2781 161.552 74.667 Q161.552 71.0559 159.214 68.9495 Q156.876 66.843 152.871 66.843 Q150.996 66.843 149.121 67.2597 Q147.269 67.6763 145.325 68.556 L145.325 51.1949 Z" fill="#000000" fill-rule="nonzero" fill-opacity="1" /><path clip-path="url(#clip460)" d="M21.7677 1026.76 L39.6235 1026.76 L39.6235 1018.68 Q39.6235 1014.19 37.3 1011.74 Q34.9765 1009.29 30.6797 1009.29 Q26.4147 1009.29 24.0912 1011.74 Q21.7677 1014.19 21.7677 1018.68 L21.7677 1026.76 M16.4842 1033.19 L16.4842 1018.68 Q16.4842 1010.69 20.1126 1006.61 Q23.7092 1002.51 30.6797 1002.51 Q37.7138 1002.51 41.3104 1006.61 Q44.907 1010.69 44.907 1018.68 L44.907 1026.76 L64.0042 1026.76 L64.0042 1033.19 L16.4842 1033.19 Z" fill="#000000" fill-rule="nonzero" fill-opacity="1" /><path clip-path="url(#clip460)" d="M33.8307 974.626 Q33.2578 975.613 33.0032 976.791 Q32.7167 977.936 32.7167 979.337 Q32.7167 984.302 35.9632 986.976 Q39.1779 989.617 45.2253 989.617 L64.0042 989.617 L64.0042 995.506 L28.3562 995.506 L28.3562 989.617 L33.8944 989.617 Q30.6479 987.771 29.0883 984.811 Q27.4968 981.851 27.4968 977.618 Q27.4968 977.013 27.5923 976.281 Q27.656 975.549 27.8151 974.658 L33.8307 974.626 Z" fill="#000000" fill-rule="nonzero" fill-opacity="1" /><path clip-path="url(#clip460)" d="M32.4621 956.102 Q32.4621 960.813 36.1542 963.55 Q39.8145 966.287 46.212 966.287 Q52.6095 966.287 56.3017 963.582 Q59.9619 960.844 59.9619 956.102 Q59.9619 951.423 56.2698 948.686 Q52.5777 945.949 46.212 945.949 Q39.8781 945.949 36.186 948.686 Q32.4621 951.423 32.4621 956.102 M27.4968 956.102 Q27.4968 948.463 32.4621 944.103 Q37.4273 939.742 46.212 939.742 Q54.9649 939.742 59.9619 944.103 Q64.9272 948.463 64.9272 956.102 Q64.9272 963.773 59.9619 968.133 Q54.9649 972.462 46.212 972.462 Q37.4273 972.462 32.4621 968.133 Q27.4968 963.773 27.4968 956.102 Z" fill="#000000" fill-rule="nonzero" fill-opacity="1" /><path clip-path="url(#clip460)" d="M46.212 904.444 Q39.7508 904.444 36.0905 907.118 Q32.3984 909.76 32.3984 914.407 Q32.3984 919.054 36.0905 921.727 Q39.7508 924.369 46.212 924.369 Q52.6732 924.369 56.3653 921.727 Q60.0256 919.054 60.0256 914.407 Q60.0256 909.76 56.3653 907.118 Q52.6732 904.444 46.212 904.444 M33.7671 924.369 Q30.5842 922.523 29.0564 919.722 Q27.4968 916.889 27.4968 912.974 Q27.4968 906.481 32.6531 902.439 Q37.8093 898.365 46.212 898.365 Q54.6147 898.365 59.771 902.439 Q64.9272 906.481 64.9272 912.974 Q64.9272 916.889 63.3994 919.722 Q61.8398 922.523 58.657 924.369 L64.0042 924.369 L64.0042 930.257 L14.479 930.257 L14.479 924.369 L33.7671 924.369 Z" fill="#000000" fill-rule="nonzero" fill-opacity="1" /><path clip-path="url(#clip460)" d="M46.0847 872.457 Q46.0847 879.554 47.7079 882.292 Q49.3312 885.029 53.2461 885.029 Q56.3653 885.029 58.2114 882.992 Q60.0256 880.923 60.0256 877.39 Q60.0256 872.52 56.5881 869.592 Q53.1188 866.632 47.3897 866.632 L46.0847 866.632 L46.0847 872.457 M43.6657 860.776 L64.0042 860.776 L64.0042 866.632 L58.5933 866.632 Q61.8398 868.637 63.3994 871.629 Q64.9272 874.621 64.9272 878.95 Q64.9272 884.424 61.8716 887.671 Q58.7843 890.885 53.6281 890.885 Q47.6125 890.885 44.5569 886.875 Q41.5014 882.833 41.5014 874.844 L41.5014 866.632 L40.9285 866.632 Q36.8862 866.632 34.6901 869.306 Q32.4621 871.947 32.4621 876.753 Q32.4621 879.809 33.1941 882.705 Q33.9262 885.602 35.3903 888.275 L29.9795 888.275 Q28.7381 885.061 28.1334 882.037 Q27.4968 879.013 27.4968 876.149 Q27.4968 868.414 31.5072 864.595 Q35.5176 860.776 43.6657 860.776 Z" fill="#000000" fill-rule="nonzero" fill-opacity="1" /><path clip-path="url(#clip460)" d="M46.212 823.122 Q39.7508 823.122 36.0905 825.796 Q32.3984 828.438 32.3984 833.085 Q32.3984 837.732 36.0905 840.405 Q39.7508 843.047 46.212 843.047 Q52.6732 843.047 56.3653 840.405 Q60.0256 837.732 60.0256 833.085 Q60.0256 828.438 56.3653 825.796 Q52.6732 823.122 46.212 823.122 M33.7671 843.047 Q30.5842 841.201 29.0564 838.4 Q27.4968 835.567 27.4968 831.652 Q27.4968 825.159 32.6531 821.117 Q37.8093 817.043 46.212 817.043 Q54.6147 817.043 59.771 821.117 Q64.9272 825.159 64.9272 831.652 Q64.9272 835.567 63.3994 838.4 Q61.8398 841.201 58.657 843.047 L64.0042 843.047 L64.0042 848.935 L14.479 848.935 L14.479 843.047 L33.7671 843.047 Z" fill="#000000" fill-rule="nonzero" fill-opacity="1" /><path clip-path="url(#clip460)" d="M28.3562 807.335 L28.3562 801.479 L64.0042 801.479 L64.0042 807.335 L28.3562 807.335 M14.479 807.335 L14.479 801.479 L21.895 801.479 L21.895 807.335 L14.479 807.335 Z" fill="#000000" fill-rule="nonzero" fill-opacity="1" /><path clip-path="url(#clip460)" d="M14.479 789.225 L14.479 783.369 L64.0042 783.369 L64.0042 789.225 L14.479 789.225 Z" fill="#000000" fill-rule="nonzero" fill-opacity="1" /><path clip-path="url(#clip460)" d="M28.3562 771.115 L28.3562 765.258 L64.0042 765.258 L64.0042 771.115 L28.3562 771.115 M14.479 771.115 L14.479 765.258 L21.895 765.258 L21.895 771.115 L14.479 771.115 Z" fill="#000000" fill-rule="nonzero" fill-opacity="1" /><path clip-path="url(#clip460)" d="M18.2347 747.211 L28.3562 747.211 L28.3562 735.148 L32.9077 735.148 L32.9077 747.211 L52.2594 747.211 Q56.6199 747.211 57.8613 746.034 Q59.1026 744.824 59.1026 741.164 L59.1026 735.148 L64.0042 735.148 L64.0042 741.164 Q64.0042 747.943 61.4897 750.521 Q58.9434 753.1 52.2594 753.1 L32.9077 753.1 L32.9077 757.396 L28.3562 757.396 L28.3562 753.1 L18.2347 753.1 L18.2347 747.211 Z" fill="#000000" fill-rule="nonzero" fill-opacity="1" /><path clip-path="url(#clip460)" d="M67.3143 712.614 Q73.68 715.096 75.6216 717.452 Q77.5631 719.807 77.5631 723.754 L77.5631 728.432 L72.6615 728.432 L72.6615 724.995 Q72.6615 722.576 71.5157 721.239 Q70.3699 719.902 66.1048 718.279 L63.4312 717.229 L28.3562 731.647 L28.3562 725.441 L56.238 714.301 L28.3562 703.161 L28.3562 696.954 L67.3143 712.614 Z" fill="#000000" fill-rule="nonzero" fill-opacity="1" /><path clip-path="url(#clip460)" d="M33.7671 644.692 L14.479 644.692 L14.479 638.835 L64.0042 638.835 L64.0042 644.692 L58.657 644.692 Q61.8398 646.538 63.3994 649.37 Q64.9272 652.171 64.9272 656.118 Q64.9272 662.579 59.771 666.653 Q54.6147 670.696 46.212 670.696 Q37.8093 670.696 32.6531 666.653 Q27.4968 662.579 27.4968 656.118 Q27.4968 652.171 29.0564 649.37 Q30.5842 646.538 33.7671 644.692 M46.212 664.648 Q52.6732 664.648 56.3653 662.006 Q60.0256 659.333 60.0256 654.686 Q60.0256 650.039 56.3653 647.365 Q52.6732 644.692 46.212 644.692 Q39.7508 644.692 36.0905 647.365 Q32.3984 650.039 32.3984 654.686 Q32.3984 659.333 36.0905 662.006 Q39.7508 664.648 46.212 664.648 Z" fill="#000000" fill-rule="nonzero" fill-opacity="1" /><path clip-path="url(#clip460)" d="M44.7161 596.28 L47.5806 596.28 L47.5806 623.207 Q53.6281 622.825 56.8109 619.579 Q59.9619 616.301 59.9619 610.476 Q59.9619 607.102 59.1344 603.951 Q58.3069 600.768 56.6518 597.649 L62.1899 597.649 Q63.5267 600.8 64.227 604.11 Q64.9272 607.42 64.9272 610.826 Q64.9272 619.356 59.9619 624.353 Q54.9967 629.318 46.5303 629.318 Q37.7774 629.318 32.6531 624.608 Q27.4968 619.865 27.4968 611.845 Q27.4968 604.651 32.1438 600.482 Q36.7589 596.28 44.7161 596.28 M42.9973 602.137 Q38.1912 602.201 35.3266 604.842 Q32.4621 607.452 32.4621 611.781 Q32.4621 616.683 35.2312 619.643 Q38.0002 622.571 43.0292 623.016 L42.9973 602.137 Z" fill="#000000" fill-rule="nonzero" fill-opacity="1" /><path clip-path="url(#clip460)" d="M42.4881 557.036 L64.0042 557.036 L64.0042 562.892 L42.679 562.892 Q37.6183 562.892 35.1038 564.866 Q32.5894 566.839 32.5894 570.786 Q32.5894 575.528 35.6131 578.265 Q38.6368 581.003 43.8567 581.003 L64.0042 581.003 L64.0042 586.891 L28.3562 586.891 L28.3562 581.003 L33.8944 581.003 Q30.6797 578.902 29.0883 576.069 Q27.4968 573.205 27.4968 569.481 Q27.4968 563.338 31.3163 560.187 Q35.1038 557.036 42.4881 557.036 Z" fill="#000000" fill-rule="nonzero" fill-opacity="1" /><path clip-path="url(#clip460)" d="M29.4065 522.629 L34.9447 522.629 Q33.6716 525.112 33.035 527.785 Q32.3984 530.459 32.3984 533.324 Q32.3984 537.684 33.7352 539.88 Q35.072 542.045 37.7456 542.045 Q39.7826 542.045 40.9603 540.485 Q42.1061 538.925 43.1565 534.215 L43.6021 532.21 Q44.9389 525.971 47.3897 523.361 Q49.8086 520.719 54.1691 520.719 Q59.1344 520.719 62.0308 524.666 Q64.9272 528.581 64.9272 535.456 Q64.9272 538.321 64.3543 541.44 Q63.8132 544.527 62.6992 547.965 L56.6518 547.965 Q58.3387 544.718 59.198 541.567 Q60.0256 538.416 60.0256 535.329 Q60.0256 531.191 58.6251 528.963 Q57.1929 526.735 54.6147 526.735 Q52.2276 526.735 50.9545 528.358 Q49.6813 529.95 48.5037 535.392 L48.0262 537.429 Q46.8804 542.872 44.5251 545.291 Q42.138 547.71 38.0002 547.71 Q32.9713 547.71 30.2341 544.145 Q27.4968 540.58 27.4968 534.024 Q27.4968 530.777 27.9743 527.913 Q28.4517 525.048 29.4065 522.629 Z" fill="#000000" fill-rule="nonzero" fill-opacity="1" /><path clip-path="url(#clip460)" d="M28.3562 511.394 L28.3562 505.537 L64.0042 505.537 L64.0042 511.394 L28.3562 511.394 M14.479 511.394 L14.479 505.537 L21.895 505.537 L21.895 511.394 L14.479 511.394 Z" fill="#000000" fill-rule="nonzero" fill-opacity="1" /><path clip-path="url(#clip460)" d="M18.2347 487.49 L28.3562 487.49 L28.3562 475.427 L32.9077 475.427 L32.9077 487.49 L52.2594 487.49 Q56.6199 487.49 57.8613 486.313 Q59.1026 485.103 59.1026 481.443 L59.1026 475.427 L64.0042 475.427 L64.0042 481.443 Q64.0042 488.223 61.4897 490.801 Q58.9434 493.379 52.2594 493.379 L32.9077 493.379 L32.9077 497.676 L28.3562 497.676 L28.3562 493.379 L18.2347 493.379 L18.2347 487.49 Z" fill="#000000" fill-rule="nonzero" fill-opacity="1" /><path clip-path="url(#clip460)" d="M67.3143 452.893 Q73.68 455.376 75.6216 457.731 Q77.5631 460.086 77.5631 464.033 L77.5631 468.712 L72.6615 468.712 L72.6615 465.274 Q72.6615 462.855 71.5157 461.518 Q70.3699 460.182 66.1048 458.558 L63.4312 457.508 L28.3562 471.926 L28.3562 465.72 L56.238 454.58 L28.3562 443.44 L28.3562 437.233 L67.3143 452.893 Z" fill="#000000" fill-rule="nonzero" fill-opacity="1" /><polyline clip-path="url(#clip462)" style="stroke:#009af9; stroke-linecap:round; stroke-linejoin:round; stroke-width:4; stroke-opacity:1; fill:none" points="263.091,1384.23 355.31,1384.2 493.637,1384.18 516.692,1384.22 539.746,1384.18 585.855,1384.22 608.91,1384.2 655.019,1383.9 678.073,1384.09 701.128,1384.11 724.182,1384.21 747.237,1384.2 770.292,1384.16 793.346,1384.2 816.401,1384.18 839.455,1384.18 862.51,1384.02 885.564,1384.02 908.619,1384.2 931.673,1384.15 954.728,1383.94 977.783,1384.02 1000.84,1383.95 1023.89,1384.09 1046.95,1383.75 1070,1383.92 1093.06,1383.73 1116.11,1384.01 1139.16,1383.26 1162.22,1383.59 1185.27,1383.66 1208.33,1383.19 1231.38,1383.16 1254.44,1382.73 1277.49,1383.08 1300.55,1382.19 1323.6,1381.13 1346.66,1380.75 1369.71,1381.32 1392.76,1380.41 1415.82,1379.14 1438.87,1377.91 1461.93,1375.17 1484.98,1373.2 1508.04,1368.95 1531.09,1364.59 1554.15,1360.36 1577.2,1351.31 1600.26,1345.72 1623.31,1333.5 1646.36,1315.84 1669.42,1296.61 1692.47,1272.66 1715.53,1232.06 1738.58,1183.76 1761.64,1121.56 1784.69,1054.57 1807.75,974.396 1830.8,864.221 1853.86,752.452 1876.91,647.003 1899.96,527.542 1923.02,482.007 1946.07,808.901 1969.13,1027.53 1992.18,1178.44 2015.24,1260 2038.29,1312.02 2061.35,1342 2084.4,1361.86 2107.46,1372.86 2130.51,1378.74 2153.56,1381.57 2176.62,1383.46 2199.67,1383.83 2222.73,1383.88 2245.78,1384.21 2268.84,1384.2 2291.89,1384.23 "/>
<polyline clip-path="url(#clip462)" style="stroke:#e26f46; stroke-linecap:round; stroke-linejoin:round; stroke-width:4; stroke-opacity:1; fill:none" points="263.091,1384.24 355.31,1384.24 493.637,1384.24 516.692,1384.24 539.746,1384.24 585.855,1384.23 608.91,1384.23 655.019,1384.23 678.073,1384.23 701.128,1384.23 724.182,1384.22 747.237,1384.22 770.292,1384.22 793.346,1384.21 816.401,1384.2 839.455,1384.19 862.51,1384.18 885.564,1384.17 908.619,1384.15 931.673,1384.13 954.728,1384.1 977.783,1384.06 1000.84,1384.02 1023.89,1383.96 1046.95,1383.9 1070,1383.81 1093.06,1383.7 1116.11,1383.56 1139.16,1383.39 1162.22,1383.18 1185.27,1382.91 1208.33,1382.58 1231.38,1382.16 1254.44,1381.64 1277.49,1380.98 1300.55,1380.16 1323.6,1379.13 1346.66,1377.84 1369.71,1376.22 1392.76,1374.2 1415.82,1371.66 1438.87,1368.49 1461.93,1364.51 1484.98,1359.53 1508.04,1353.29 1531.09,1345.48 1554.15,1335.69 1577.2,1323.44 1600.26,1308.09 1623.31,1288.88 1646.36,1264.82 1669.42,1234.69 1692.47,1196.97 1715.53,1149.77 1738.58,1090.7 1761.64,1016.83 1784.69,924.555 1807.75,809.499 1830.8,666.679 1853.86,491.455 1876.91,284.87 1899.96,86.1857 1923.02,117.251 1946.07,511.069 1969.13,866.483 1992.18,1086.91 2015.24,1214.92 2038.29,1288.09 2061.35,1329.71 2084.4,1353.34 2107.46,1366.73 2130.51,1374.32 2153.56,1378.62 2176.62,1381.06 2199.67,1382.44 2222.73,1383.22 2245.78,1383.66 2268.84,1383.91 2291.89,1384.05 "/>
<path clip-path="url(#clip460)" d="M273.912 248.629 L823.268 248.629 L823.268 93.1086 L273.912 93.1086  Z" fill="#ffffff" fill-rule="evenodd" fill-opacity="1"/>
<polyline clip-path="url(#clip460)" style="stroke:#ffffff; stroke-linecap:round; stroke-linejoin:round; stroke-width:4; stroke-opacity:1; fill:none" points="273.912,248.629 823.268,248.629 823.268,93.1086 273.912,93.1086 273.912,248.629 "/>
<polyline clip-path="url(#clip460)" style="stroke:#009af9; stroke-linecap:round; stroke-linejoin:round; stroke-width:4; stroke-opacity:1; fill:none" points="297.807,144.949 441.175,144.949 "/>
<path clip-path="url(#clip460)" d="M465.07 127.669 L469.746 127.669 L469.746 141.835 L486.736 141.835 L486.736 127.669 L491.412 127.669 L491.412 162.229 L486.736 162.229 L486.736 145.77 L469.746 145.77 L469.746 162.229 L465.07 162.229 L465.07 127.669 Z" fill="#000000" fill-rule="nonzero" fill-opacity="1" /><path clip-path="url(#clip460)" d="M500.533 136.303 L504.792 136.303 L504.792 162.229 L500.533 162.229 L500.533 136.303 M500.533 126.21 L504.792 126.21 L504.792 131.604 L500.533 131.604 L500.533 126.21 Z" fill="#000000" fill-rule="nonzero" fill-opacity="1" /><path clip-path="url(#clip460)" d="M530.232 137.067 L530.232 141.094 Q528.426 140.169 526.482 139.706 Q524.537 139.243 522.454 139.243 Q519.283 139.243 517.685 140.215 Q516.111 141.187 516.111 143.131 Q516.111 144.613 517.245 145.469 Q518.38 146.303 521.806 147.067 L523.264 147.391 Q527.801 148.363 529.699 150.145 Q531.62 151.905 531.62 155.076 Q531.62 158.687 528.75 160.793 Q525.903 162.9 520.903 162.9 Q518.82 162.9 516.551 162.483 Q514.306 162.09 511.806 161.28 L511.806 156.881 Q514.167 158.108 516.458 158.733 Q518.75 159.335 520.995 159.335 Q524.005 159.335 525.625 158.317 Q527.245 157.275 527.245 155.4 Q527.245 153.664 526.065 152.738 Q524.907 151.812 520.949 150.956 L519.468 150.608 Q515.509 149.775 513.75 148.062 Q511.991 146.326 511.991 143.317 Q511.991 139.659 514.583 137.669 Q517.176 135.678 521.945 135.678 Q524.306 135.678 526.389 136.025 Q528.472 136.372 530.232 137.067 Z" fill="#000000" fill-rule="nonzero" fill-opacity="1" /><path clip-path="url(#clip460)" d="M542.616 128.942 L542.616 136.303 L551.389 136.303 L551.389 139.613 L542.616 139.613 L542.616 153.687 Q542.616 156.858 543.472 157.761 Q544.352 158.664 547.014 158.664 L551.389 158.664 L551.389 162.229 L547.014 162.229 Q542.083 162.229 540.208 160.4 Q538.333 158.548 538.333 153.687 L538.333 139.613 L535.208 139.613 L535.208 136.303 L538.333 136.303 L538.333 128.942 L542.616 128.942 Z" fill="#000000" fill-rule="nonzero" fill-opacity="1" /><path clip-path="url(#clip460)" d="M567.037 139.289 Q563.611 139.289 561.62 141.974 Q559.63 144.636 559.63 149.289 Q559.63 153.942 561.597 156.627 Q563.588 159.289 567.037 159.289 Q570.44 159.289 572.43 156.604 Q574.421 153.918 574.421 149.289 Q574.421 144.682 572.43 141.997 Q570.44 139.289 567.037 139.289 M567.037 135.678 Q572.592 135.678 575.764 139.289 Q578.935 142.9 578.935 149.289 Q578.935 155.655 575.764 159.289 Q572.592 162.9 567.037 162.9 Q561.458 162.9 558.287 159.289 Q555.139 155.655 555.139 149.289 Q555.139 142.9 558.287 139.289 Q561.458 135.678 567.037 135.678 Z" fill="#000000" fill-rule="nonzero" fill-opacity="1" /><path clip-path="url(#clip460)" d="M603.055 148.965 Q603.055 144.335 601.134 141.789 Q599.236 139.243 595.787 139.243 Q592.361 139.243 590.44 141.789 Q588.541 144.335 588.541 148.965 Q588.541 153.571 590.44 156.118 Q592.361 158.664 595.787 158.664 Q599.236 158.664 601.134 156.118 Q603.055 153.571 603.055 148.965 M607.314 159.011 Q607.314 165.631 604.375 168.849 Q601.435 172.09 595.37 172.09 Q593.125 172.09 591.134 171.742 Q589.143 171.418 587.268 170.724 L587.268 166.58 Q589.143 167.599 590.972 168.085 Q592.801 168.571 594.699 168.571 Q598.889 168.571 600.972 166.372 Q603.055 164.196 603.055 159.775 L603.055 157.668 Q601.736 159.96 599.676 161.094 Q597.615 162.229 594.745 162.229 Q589.977 162.229 587.06 158.594 Q584.143 154.96 584.143 148.965 Q584.143 142.946 587.06 139.312 Q589.977 135.678 594.745 135.678 Q597.615 135.678 599.676 136.812 Q601.736 137.946 603.055 140.238 L603.055 136.303 L607.314 136.303 L607.314 159.011 Z" fill="#000000" fill-rule="nonzero" fill-opacity="1" /><path clip-path="url(#clip460)" d="M631.111 140.284 Q630.393 139.868 629.537 139.682 Q628.703 139.474 627.685 139.474 Q624.074 139.474 622.129 141.835 Q620.208 144.173 620.208 148.571 L620.208 162.229 L615.926 162.229 L615.926 136.303 L620.208 136.303 L620.208 140.331 Q621.55 137.969 623.703 136.835 Q625.856 135.678 628.935 135.678 Q629.375 135.678 629.907 135.747 Q630.439 135.794 631.087 135.909 L631.111 140.284 Z" fill="#000000" fill-rule="nonzero" fill-opacity="1" /><path clip-path="url(#clip460)" d="M647.361 149.196 Q642.199 149.196 640.208 150.377 Q638.217 151.557 638.217 154.405 Q638.217 156.673 639.699 158.016 Q641.203 159.335 643.773 159.335 Q647.314 159.335 649.444 156.835 Q651.597 154.312 651.597 150.145 L651.597 149.196 L647.361 149.196 M655.856 147.437 L655.856 162.229 L651.597 162.229 L651.597 158.293 Q650.138 160.655 647.962 161.789 Q645.786 162.9 642.638 162.9 Q638.657 162.9 636.296 160.678 Q633.958 158.432 633.958 154.682 Q633.958 150.307 636.874 148.085 Q639.814 145.863 645.624 145.863 L651.597 145.863 L651.597 145.446 Q651.597 142.507 649.652 140.909 Q647.731 139.289 644.236 139.289 Q642.013 139.289 639.907 139.821 Q637.8 140.354 635.856 141.419 L635.856 137.483 Q638.194 136.581 640.393 136.141 Q642.592 135.678 644.675 135.678 Q650.3 135.678 653.078 138.594 Q655.856 141.511 655.856 147.437 Z" fill="#000000" fill-rule="nonzero" fill-opacity="1" /><path clip-path="url(#clip460)" d="M684.814 141.28 Q686.411 138.409 688.633 137.044 Q690.856 135.678 693.865 135.678 Q697.916 135.678 700.115 138.525 Q702.314 141.349 702.314 146.581 L702.314 162.229 L698.032 162.229 L698.032 146.719 Q698.032 142.993 696.712 141.187 Q695.393 139.382 692.684 139.382 Q689.374 139.382 687.453 141.581 Q685.532 143.78 685.532 147.576 L685.532 162.229 L681.249 162.229 L681.249 146.719 Q681.249 142.969 679.93 141.187 Q678.61 139.382 675.856 139.382 Q672.592 139.382 670.671 141.604 Q668.749 143.803 668.749 147.576 L668.749 162.229 L664.467 162.229 L664.467 136.303 L668.749 136.303 L668.749 140.331 Q670.208 137.946 672.245 136.812 Q674.282 135.678 677.083 135.678 Q679.907 135.678 681.874 137.113 Q683.865 138.548 684.814 141.28 Z" fill="#000000" fill-rule="nonzero" fill-opacity="1" /><polyline clip-path="url(#clip460)" style="stroke:#e26f46; stroke-linecap:round; stroke-linejoin:round; stroke-width:4; stroke-opacity:1; fill:none" points="297.807,196.789 441.175,196.789 "/>
<path clip-path="url(#clip460)" d="M469.746 183.351 L469.746 210.226 L475.394 210.226 Q482.547 210.226 485.857 206.985 Q489.19 203.745 489.19 196.754 Q489.19 189.809 485.857 186.592 Q482.547 183.351 475.394 183.351 L469.746 183.351 M465.07 179.509 L474.676 179.509 Q484.723 179.509 489.422 183.698 Q494.121 187.865 494.121 196.754 Q494.121 205.689 489.398 209.879 Q484.676 214.069 474.676 214.069 L465.07 214.069 L465.07 179.509 Z" fill="#000000" fill-rule="nonzero" fill-opacity="1" /><path clip-path="url(#clip460)" d="M501.389 188.143 L505.648 188.143 L505.648 214.069 L501.389 214.069 L501.389 188.143 M501.389 178.05 L505.648 178.05 L505.648 183.444 L501.389 183.444 L501.389 178.05 Z" fill="#000000" fill-rule="nonzero" fill-opacity="1" /><path clip-path="url(#clip460)" d="M531.088 188.907 L531.088 192.934 Q529.282 192.009 527.338 191.546 Q525.394 191.083 523.31 191.083 Q520.139 191.083 518.542 192.055 Q516.968 193.027 516.968 194.971 Q516.968 196.453 518.102 197.309 Q519.236 198.143 522.662 198.907 L524.12 199.231 Q528.657 200.203 530.556 201.985 Q532.477 203.745 532.477 206.916 Q532.477 210.527 529.607 212.633 Q526.759 214.74 521.759 214.74 Q519.676 214.74 517.408 214.323 Q515.162 213.93 512.662 213.12 L512.662 208.721 Q515.023 209.948 517.315 210.573 Q519.607 211.175 521.852 211.175 Q524.861 211.175 526.482 210.157 Q528.102 209.115 528.102 207.24 Q528.102 205.504 526.921 204.578 Q525.764 203.652 521.806 202.796 L520.324 202.448 Q516.366 201.615 514.607 199.902 Q512.847 198.166 512.847 195.157 Q512.847 191.499 515.44 189.509 Q518.033 187.518 522.801 187.518 Q525.162 187.518 527.245 187.865 Q529.329 188.212 531.088 188.907 Z" fill="#000000" fill-rule="nonzero" fill-opacity="1" /><path clip-path="url(#clip460)" d="M543.472 180.782 L543.472 188.143 L552.245 188.143 L552.245 191.453 L543.472 191.453 L543.472 205.527 Q543.472 208.698 544.329 209.601 Q545.208 210.504 547.87 210.504 L552.245 210.504 L552.245 214.069 L547.87 214.069 Q542.94 214.069 541.065 212.24 Q539.19 210.388 539.19 205.527 L539.19 191.453 L536.065 191.453 L536.065 188.143 L539.19 188.143 L539.19 180.782 L543.472 180.782 Z" fill="#000000" fill-rule="nonzero" fill-opacity="1" /><path clip-path="url(#clip460)" d="M572.87 192.124 Q572.153 191.708 571.296 191.522 Q570.463 191.314 569.444 191.314 Q565.833 191.314 563.889 193.675 Q561.967 196.013 561.967 200.411 L561.967 214.069 L557.685 214.069 L557.685 188.143 L561.967 188.143 L561.967 192.171 Q563.31 189.809 565.463 188.675 Q567.616 187.518 570.694 187.518 Q571.134 187.518 571.666 187.587 Q572.199 187.634 572.847 187.749 L572.87 192.124 Z" fill="#000000" fill-rule="nonzero" fill-opacity="1" /><path clip-path="url(#clip460)" d="M577.338 188.143 L581.597 188.143 L581.597 214.069 L577.338 214.069 L577.338 188.143 M577.338 178.05 L581.597 178.05 L581.597 183.444 L577.338 183.444 L577.338 178.05 Z" fill="#000000" fill-rule="nonzero" fill-opacity="1" /><path clip-path="url(#clip460)" d="M609.12 201.129 Q609.12 196.43 607.176 193.768 Q605.254 191.083 601.875 191.083 Q598.495 191.083 596.551 193.768 Q594.629 196.43 594.629 201.129 Q594.629 205.828 596.551 208.513 Q598.495 211.175 601.875 211.175 Q605.254 211.175 607.176 208.513 Q609.12 205.828 609.12 201.129 M594.629 192.078 Q595.972 189.763 598.009 188.652 Q600.069 187.518 602.916 187.518 Q607.639 187.518 610.578 191.268 Q613.541 195.018 613.541 201.129 Q613.541 207.24 610.578 210.99 Q607.639 214.74 602.916 214.74 Q600.069 214.74 598.009 213.629 Q595.972 212.495 594.629 210.18 L594.629 214.069 L590.347 214.069 L590.347 178.05 L594.629 178.05 L594.629 192.078 Z" fill="#000000" fill-rule="nonzero" fill-opacity="1" /><path clip-path="url(#clip460)" d="M620.162 203.837 L620.162 188.143 L624.421 188.143 L624.421 203.675 Q624.421 207.356 625.856 209.208 Q627.291 211.036 630.162 211.036 Q633.611 211.036 635.601 208.837 Q637.615 206.638 637.615 202.842 L637.615 188.143 L641.874 188.143 L641.874 214.069 L637.615 214.069 L637.615 210.087 Q636.064 212.448 634.004 213.606 Q631.967 214.74 629.259 214.74 Q624.791 214.74 622.476 211.962 Q620.162 209.184 620.162 203.837 M630.879 187.518 L630.879 187.518 Z" fill="#000000" fill-rule="nonzero" fill-opacity="1" /><path clip-path="url(#clip460)" d="M654.86 180.782 L654.86 188.143 L663.634 188.143 L663.634 191.453 L654.86 191.453 L654.86 205.527 Q654.86 208.698 655.717 209.601 Q656.597 210.504 659.259 210.504 L663.634 210.504 L663.634 214.069 L659.259 214.069 Q654.328 214.069 652.453 212.24 Q650.578 210.388 650.578 205.527 L650.578 191.453 L647.453 191.453 L647.453 188.143 L650.578 188.143 L650.578 180.782 L654.86 180.782 Z" fill="#000000" fill-rule="nonzero" fill-opacity="1" /><path clip-path="url(#clip460)" d="M669.235 188.143 L673.495 188.143 L673.495 214.069 L669.235 214.069 L669.235 188.143 M669.235 178.05 L673.495 178.05 L673.495 183.444 L669.235 183.444 L669.235 178.05 Z" fill="#000000" fill-rule="nonzero" fill-opacity="1" /><path clip-path="url(#clip460)" d="M692.453 191.129 Q689.027 191.129 687.036 193.814 Q685.046 196.476 685.046 201.129 Q685.046 205.782 687.013 208.467 Q689.004 211.129 692.453 211.129 Q695.856 211.129 697.846 208.444 Q699.837 205.758 699.837 201.129 Q699.837 196.522 697.846 193.837 Q695.856 191.129 692.453 191.129 M692.453 187.518 Q698.008 187.518 701.18 191.129 Q704.351 194.74 704.351 201.129 Q704.351 207.495 701.18 211.129 Q698.008 214.74 692.453 214.74 Q686.874 214.74 683.703 211.129 Q680.555 207.495 680.555 201.129 Q680.555 194.74 683.703 191.129 Q686.874 187.518 692.453 187.518 Z" fill="#000000" fill-rule="nonzero" fill-opacity="1" /><path clip-path="url(#clip460)" d="M732.962 198.421 L732.962 214.069 L728.703 214.069 L728.703 198.559 Q728.703 194.879 727.268 193.05 Q725.832 191.222 722.962 191.222 Q719.513 191.222 717.522 193.421 Q715.531 195.62 715.531 199.416 L715.531 214.069 L711.249 214.069 L711.249 188.143 L715.531 188.143 L715.531 192.171 Q717.059 189.833 719.119 188.675 Q721.203 187.518 723.911 187.518 Q728.379 187.518 730.67 190.296 Q732.962 193.05 732.962 198.421 Z" fill="#000000" fill-rule="nonzero" fill-opacity="1" /><path clip-path="url(#clip460)" d="M769.652 178.05 L769.652 181.592 L765.577 181.592 Q763.286 181.592 762.383 182.518 Q761.503 183.444 761.503 185.851 L761.503 188.143 L768.517 188.143 L768.517 191.453 L761.503 191.453 L761.503 214.069 L757.221 214.069 L757.221 191.453 L753.147 191.453 L753.147 188.143 L757.221 188.143 L757.221 186.337 Q757.221 182.009 759.235 180.041 Q761.249 178.05 765.624 178.05 L769.652 178.05 Z" fill="#000000" fill-rule="nonzero" fill-opacity="1" /><path clip-path="url(#clip460)" d="M773.216 188.143 L777.476 188.143 L777.476 214.069 L773.216 214.069 L773.216 188.143 M773.216 178.05 L777.476 178.05 L777.476 183.444 L773.216 183.444 L773.216 178.05 Z" fill="#000000" fill-rule="nonzero" fill-opacity="1" /><path clip-path="url(#clip460)" d="M790.6 180.782 L790.6 188.143 L799.374 188.143 L799.374 191.453 L790.6 191.453 L790.6 205.527 Q790.6 208.698 791.457 209.601 Q792.337 210.504 794.999 210.504 L799.374 210.504 L799.374 214.069 L794.999 214.069 Q790.068 214.069 788.193 212.24 Q786.318 210.388 786.318 205.527 L786.318 191.453 L783.193 191.453 L783.193 188.143 L786.318 188.143 L786.318 180.782 L790.6 180.782 Z" fill="#000000" fill-rule="nonzero" fill-opacity="1" /></svg>
