<?xml version="1.0" encoding="utf-8"?>
<svg xmlns="http://www.w3.org/2000/svg" xmlns:xlink="http://www.w3.org/1999/xlink" width="600" height="400" viewBox="0 0 2400 1600">
<defs>
  <clipPath id="clip560">
    <rect x="0" y="0" width="2400" height="1600"/>
  </clipPath>
</defs>
<path clip-path="url(#clip560)" d="M0 1600 L2400 1600 L2400 8.88178e-14 L0 8.88178e-14  Z" fill="#ffffff" fill-rule="evenodd" fill-opacity="1"/>
<defs>
  <clipPath id="clip561">
    <rect x="480" y="0" width="1681" height="1600"/>
  </clipPath>
</defs>
<path clip-path="url(#clip560)" d="M175.445 1423.18 L2352.76 1423.18 L2352.76 47.2441 L175.445 47.2441  Z" fill="#ffffff" fill-rule="evenodd" fill-opacity="1"/>
<defs>
  <clipPath id="clip562">
    <rect x="175" y="47" width="2178" height="1377"/>
  </clipPath>
</defs>
<polyline clip-path="url(#clip562)" style="stroke:#000000; stroke-linecap:round; stroke-linejoin:round; stroke-width:2; stroke-opacity:0.1; fill:none" points="233.044,1423.18 233.044,47.2441 "/>
<polyline clip-path="url(#clip562)" style="stroke:#000000; stroke-linecap:round; stroke-linejoin:round; stroke-width:2; stroke-opacity:0.1; fill:none" points="682.507,1423.18 682.507,47.2441 "/>
<polyline clip-path="url(#clip562)" style="stroke:#000000; stroke-linecap:round; stroke-linejoin:round; stroke-width:2; stroke-opacity:0.1; fill:none" points="1131.97,1423.18 1131.97,47.2441 "/>
<polyline clip-path="url(#clip562)" style="stroke:#000000; stroke-linecap:round; stroke-linejoin:round; stroke-width:2; stroke-opacity:0.1; fill:none" points="1581.43,1423.18 1581.43,47.2441 "/>
<polyline clip-path="url(#clip562)" style="stroke:#000000; stroke-linecap:round; stroke-linejoin:round; stroke-width:2; stroke-opacity:0.1; fill:none" points="2030.9,1423.18 2030.9,47.2441 "/>
<polyline clip-path="url(#clip562)" style="stroke:#000000; stroke-linecap:round; stroke-linejoin:round; stroke-width:2; stroke-opacity:0.1; fill:none" points="233.044,1423.18 233.044,47.2441 "/>
<polyline clip-path="url(#clip562)" style="stroke:#000000; stroke-linecap:round; stroke-linejoin:round; stroke-width:2; stroke-opacity:0.1; fill:none" points="682.507,1423.18 682.507,47.2441 "/>
<polyline clip-path="url(#clip562)" style="stroke:#000000; stroke-linecap:round; stroke-linejoin:round; stroke-width:2; stroke-opacity:0.1; fill:none" points="1131.97,1423.18 1131.97,47.2441 "/>
<polyline clip-path="url(#clip562)" style="stroke:#000000; stroke-linecap:round; stroke-linejoin:round; stroke-width:2; stroke-opacity:0.1; fill:none" points="1581.43,1423.18 1581.43,47.2441 "/>
<polyline clip-path="url(#clip562)" style="stroke:#000000; stroke-linecap:round; stroke-linejoin:round; stroke-width:2; stroke-opacity:0.1; fill:none" points="2030.9,1423.18 2030.9,47.2441 "/>
<polyline clip-path="url(#clip562)" style="stroke:#000000; stroke-linecap:round; stroke-linejoin:round; stroke-width:2; stroke-opacity:0.1; fill:none" points="175.445,1384.24 2352.76,1384.24 "/>
<polyline clip-path="url(#clip562)" style="stroke:#000000; stroke-linecap:round; stroke-linejoin:round; stroke-width:2; stroke-opacity:0.1; fill:none" points="175.445,1075.69 2352.76,1075.69 "/>
<polyline clip-path="url(#clip562)" style="stroke:#000000; stroke-linecap:round; stroke-linejoin:round; stroke-width:2; stroke-opacity:0.1; fill:none" points="175.445,767.141 2352.76,767.141 "/>
<polyline clip-path="url(#clip562)" style="stroke:#000000; stroke-linecap:round; stroke-linejoin:round; stroke-width:2; stroke-opacity:0.1; fill:none" points="175.445,458.592 2352.76,458.592 "/>
<polyline clip-path="url(#clip562)" style="stroke:#000000; stroke-linecap:round; stroke-linejoin:round; stroke-width:2; stroke-opacity:0.1; fill:none" points="175.445,150.043 2352.76,150.043 "/>
<polyline clip-path="url(#clip562)" style="stroke:#000000; stroke-linecap:round; stroke-linejoin:round; stroke-width:2; stroke-opacity:0.1; fill:none" points="175.445,1384.24 2352.76,1384.24 "/>
<polyline clip-path="url(#clip562)" style="stroke:#000000; stroke-linecap:round; stroke-linejoin:round; stroke-width:2; stroke-opacity:0.1; fill:none" points="175.445,1075.69 2352.76,1075.69 "/>
<polyline clip-path="url(#clip562)" style="stroke:#000000; stroke-linecap:round; stroke-linejoin:round; stroke-width:2; stroke-opacity:0.1; fill:none" points="175.445,767.141 2352.76,767.141 "/>
<polyline clip-path="url(#clip562)" style="stroke:#000000; stroke-linecap:round; stroke-linejoin:round; stroke-width:2; stroke-opacity:0.1; fill:none" points="175.445,458.592 2352.76,458.592 "/>
<polyline clip-path="url(#clip562)" style="stroke:#000000; stroke-linecap:round; stroke-linejoin:round; stroke-width:2; stroke-opacity:0.1; fill:none" points="175.445,150.043 2352.76,150.043 "/>
<polyline clip-path="url(#clip560)" style="stroke:#000000; stroke-linecap:round; stroke-linejoin:round; stroke-width:4; stroke-opacity:1; fill:none" points="175.445,1423.18 2352.76,1423.18 "/>
<polyline clip-path="url(#clip560)" style="stroke:#000000; stroke-linecap:round; stroke-linejoin:round; stroke-width:4; stroke-opacity:1; fill:none" points="175.445,47.2441 2352.76,47.2441 "/>
<polyline clip-path="url(#clip560)" style="stroke:#000000; stroke-linecap:round; stroke-linejoin:round; stroke-width:4; stroke-opacity:1; fill:none" points="233.044,1423.18 233.044,1404.28 "/>
<polyline clip-path="url(#clip560)" style="stroke:#000000; stroke-linecap:round; stroke-linejoin:round; stroke-width:4; stroke-opacity:1; fill:none" points="682.507,1423.18 682.507,1404.28 "/>
<polyline clip-path="url(#clip560)" style="stroke:#000000; stroke-linecap:round; stroke-linejoin:round; stroke-width:4; stroke-opacity:1; fill:none" points="1131.97,1423.18 1131.97,1404.28 "/>
<polyline clip-path="url(#clip560)" style="stroke:#000000; stroke-linecap:round; stroke-linejoin:round; stroke-width:4; stroke-opacity:1; fill:none" points="1581.43,1423.18 1581.43,1404.28 "/>
<polyline clip-path="url(#clip560)" style="stroke:#000000; stroke-linecap:round; stroke-linejoin:round; stroke-width:4; stroke-opacity:1; fill:none" points="2030.9,1423.18 2030.9,1404.28 "/>
<polyline clip-path="url(#clip560)" style="stroke:#000000; stroke-linecap:round; stroke-linejoin:round; stroke-width:4; stroke-opacity:1; fill:none" points="233.044,47.2441 233.044,66.1417 "/>
<polyline clip-path="url(#clip560)" style="stroke:#000000; stroke-linecap:round; stroke-linejoin:round; stroke-width:4; stroke-opacity:1; fill:none" points="682.507,47.2441 682.507,66.1417 "/>
<polyline clip-path="url(#clip560)" style="stroke:#000000; stroke-linecap:round; stroke-linejoin:round; stroke-width:4; stroke-opacity:1; fill:none" points="1131.97,47.2441 1131.97,66.1417 "/>
<polyline clip-path="url(#clip560)" style="stroke:#000000; stroke-linecap:round; stroke-linejoin:round; stroke-width:4; stroke-opacity:1; fill:none" points="1581.43,47.2441 1581.43,66.1417 "/>
<polyline clip-path="url(#clip560)" style="stroke:#000000; stroke-linecap:round; stroke-linejoin:round; stroke-width:4; stroke-opacity:1; fill:none" points="2030.9,47.2441 2030.9,66.1417 "/>
<path clip-path="url(#clip560)" d="M181.25 1466.44 Q178.102 1466.44 176.25 1468.59 Q174.421 1470.74 174.421 1474.49 Q174.421 1478.22 176.25 1480.39 Q178.102 1482.55 181.25 1482.55 Q184.398 1482.55 186.227 1480.39 Q188.079 1478.22 188.079 1474.49 Q188.079 1470.74 186.227 1468.59 Q184.398 1466.44 181.25 1466.44 M190.532 1451.78 L190.532 1456.04 Q188.773 1455.21 186.968 1454.77 Q185.185 1454.33 183.426 1454.33 Q178.796 1454.33 176.343 1457.45 Q173.912 1460.58 173.565 1466.9 Q174.931 1464.89 176.991 1463.82 Q179.051 1462.73 181.528 1462.73 Q186.736 1462.73 189.745 1465.9 Q192.778 1469.05 192.778 1474.49 Q192.778 1479.82 189.63 1483.03 Q186.481 1486.25 181.25 1486.25 Q175.255 1486.25 172.083 1481.67 Q168.912 1477.06 168.912 1468.33 Q168.912 1460.14 172.801 1455.28 Q176.69 1450.39 183.241 1450.39 Q185 1450.39 186.782 1450.74 Q188.588 1451.09 190.532 1451.78 Z" fill="#000000" fill-rule="nonzero" fill-opacity="1" /><path clip-path="url(#clip560)" d="M200.88 1451.02 L219.236 1451.02 L219.236 1454.96 L205.162 1454.96 L205.162 1463.43 Q206.18 1463.08 207.199 1462.92 Q208.217 1462.73 209.236 1462.73 Q215.023 1462.73 218.403 1465.9 Q221.782 1469.08 221.782 1474.49 Q221.782 1480.07 218.31 1483.17 Q214.838 1486.25 208.518 1486.25 Q206.342 1486.25 204.074 1485.88 Q201.829 1485.51 199.421 1484.77 L199.421 1480.07 Q201.505 1481.2 203.727 1481.76 Q205.949 1482.32 208.426 1482.32 Q212.43 1482.32 214.768 1480.21 Q217.106 1478.1 217.106 1474.49 Q217.106 1470.88 214.768 1468.77 Q212.43 1466.67 208.426 1466.67 Q206.551 1466.67 204.676 1467.08 Q202.824 1467.5 200.88 1468.38 L200.88 1451.02 Z" fill="#000000" fill-rule="nonzero" fill-opacity="1" /><path clip-path="url(#clip560)" d="M230.995 1479.7 L235.879 1479.7 L235.879 1485.58 L230.995 1485.58 L230.995 1479.7 Z" fill="#000000" fill-rule="nonzero" fill-opacity="1" /><path clip-path="url(#clip560)" d="M250.092 1481.64 L266.412 1481.64 L266.412 1485.58 L244.467 1485.58 L244.467 1481.64 Q247.129 1478.89 251.713 1474.26 Q256.319 1469.61 257.5 1468.27 Q259.745 1465.74 260.625 1464.01 Q261.527 1462.25 261.527 1460.56 Q261.527 1457.8 259.583 1456.07 Q257.662 1454.33 254.56 1454.33 Q252.361 1454.33 249.907 1455.09 Q247.476 1455.86 244.699 1457.41 L244.699 1452.69 Q247.523 1451.55 249.976 1450.97 Q252.43 1450.39 254.467 1450.39 Q259.838 1450.39 263.032 1453.08 Q266.226 1455.77 266.226 1460.26 Q266.226 1462.39 265.416 1464.31 Q264.629 1466.2 262.523 1468.8 Q261.944 1469.47 258.842 1472.69 Q255.74 1475.88 250.092 1481.64 Z" fill="#000000" fill-rule="nonzero" fill-opacity="1" /><path clip-path="url(#clip560)" d="M276.273 1451.02 L294.629 1451.02 L294.629 1454.96 L280.555 1454.96 L280.555 1463.43 Q281.574 1463.08 282.592 1462.92 Q283.611 1462.73 284.629 1462.73 Q290.416 1462.73 293.796 1465.9 Q297.175 1469.08 297.175 1474.49 Q297.175 1480.07 293.703 1483.17 Q290.231 1486.25 283.911 1486.25 Q281.736 1486.25 279.467 1485.88 Q277.222 1485.51 274.814 1484.77 L274.814 1480.07 Q276.898 1481.2 279.12 1481.76 Q281.342 1482.32 283.819 1482.32 Q287.824 1482.32 290.161 1480.21 Q292.499 1478.1 292.499 1474.49 Q292.499 1470.88 290.161 1468.77 Q287.824 1466.67 283.819 1466.67 Q281.944 1466.67 280.069 1467.08 Q278.217 1467.5 276.273 1468.38 L276.273 1451.02 Z" fill="#000000" fill-rule="nonzero" fill-opacity="1" /><path clip-path="url(#clip560)" d="M630.216 1466.44 Q627.068 1466.44 625.216 1468.59 Q623.387 1470.74 623.387 1474.49 Q623.387 1478.22 625.216 1480.39 Q627.068 1482.55 630.216 1482.55 Q633.364 1482.55 635.193 1480.39 Q637.045 1478.22 637.045 1474.49 Q637.045 1470.74 635.193 1468.59 Q633.364 1466.44 630.216 1466.44 M639.498 1451.78 L639.498 1456.04 Q637.739 1455.21 635.933 1454.77 Q634.151 1454.33 632.392 1454.33 Q627.762 1454.33 625.308 1457.45 Q622.878 1460.58 622.531 1466.9 Q623.896 1464.89 625.957 1463.82 Q628.017 1462.73 630.494 1462.73 Q635.702 1462.73 638.711 1465.9 Q641.744 1469.05 641.744 1474.49 Q641.744 1479.82 638.595 1483.03 Q635.447 1486.25 630.216 1486.25 Q624.221 1486.25 621.049 1481.67 Q617.878 1477.06 617.878 1468.33 Q617.878 1460.14 621.767 1455.28 Q625.656 1450.39 632.207 1450.39 Q633.966 1450.39 635.748 1450.74 Q637.554 1451.09 639.498 1451.78 Z" fill="#000000" fill-rule="nonzero" fill-opacity="1" /><path clip-path="url(#clip560)" d="M649.845 1451.02 L668.202 1451.02 L668.202 1454.96 L654.128 1454.96 L654.128 1463.43 Q655.146 1463.08 656.165 1462.92 Q657.183 1462.73 658.202 1462.73 Q663.989 1462.73 667.368 1465.9 Q670.748 1469.08 670.748 1474.49 Q670.748 1480.07 667.276 1483.17 Q663.804 1486.25 657.484 1486.25 Q655.308 1486.25 653.04 1485.88 Q650.794 1485.51 648.387 1484.77 L648.387 1480.07 Q650.47 1481.2 652.693 1481.76 Q654.915 1482.32 657.392 1482.32 Q661.396 1482.32 663.734 1480.21 Q666.072 1478.1 666.072 1474.49 Q666.072 1470.88 663.734 1468.77 Q661.396 1466.67 657.392 1466.67 Q655.517 1466.67 653.642 1467.08 Q651.79 1467.5 649.845 1468.38 L649.845 1451.02 Z" fill="#000000" fill-rule="nonzero" fill-opacity="1" /><path clip-path="url(#clip560)" d="M679.961 1479.7 L684.845 1479.7 L684.845 1485.58 L679.961 1485.58 L679.961 1479.7 Z" fill="#000000" fill-rule="nonzero" fill-opacity="1" /><path clip-path="url(#clip560)" d="M695.077 1451.02 L713.433 1451.02 L713.433 1454.96 L699.359 1454.96 L699.359 1463.43 Q700.378 1463.08 701.396 1462.92 Q702.415 1462.73 703.433 1462.73 Q709.22 1462.73 712.6 1465.9 Q715.979 1469.08 715.979 1474.49 Q715.979 1480.07 712.507 1483.17 Q709.035 1486.25 702.715 1486.25 Q700.54 1486.25 698.271 1485.88 Q696.026 1485.51 693.618 1484.77 L693.618 1480.07 Q695.702 1481.2 697.924 1481.76 Q700.146 1482.32 702.623 1482.32 Q706.627 1482.32 708.965 1480.21 Q711.303 1478.1 711.303 1474.49 Q711.303 1470.88 708.965 1468.77 Q706.627 1466.67 702.623 1466.67 Q700.748 1466.67 698.873 1467.08 Q697.021 1467.5 695.077 1468.38 L695.077 1451.02 Z" fill="#000000" fill-rule="nonzero" fill-opacity="1" /><path clip-path="url(#clip560)" d="M735.192 1454.1 Q731.581 1454.1 729.752 1457.66 Q727.947 1461.2 727.947 1468.33 Q727.947 1475.44 729.752 1479.01 Q731.581 1482.55 735.192 1482.55 Q738.826 1482.55 740.632 1479.01 Q742.461 1475.44 742.461 1468.33 Q742.461 1461.2 740.632 1457.66 Q738.826 1454.1 735.192 1454.1 M735.192 1450.39 Q741.002 1450.39 744.058 1455 Q747.137 1459.58 747.137 1468.33 Q747.137 1477.06 744.058 1481.67 Q741.002 1486.25 735.192 1486.25 Q729.382 1486.25 726.303 1481.67 Q723.248 1477.06 723.248 1468.33 Q723.248 1459.58 726.303 1455 Q729.382 1450.39 735.192 1450.39 Z" fill="#000000" fill-rule="nonzero" fill-opacity="1" /><path clip-path="url(#clip560)" d="M1080.18 1466.44 Q1077.03 1466.44 1075.18 1468.59 Q1073.35 1470.74 1073.35 1474.49 Q1073.35 1478.22 1075.18 1480.39 Q1077.03 1482.55 1080.18 1482.55 Q1083.33 1482.55 1085.15 1480.39 Q1087.01 1478.22 1087.01 1474.49 Q1087.01 1470.74 1085.15 1468.59 Q1083.33 1466.44 1080.18 1466.44 M1089.46 1451.78 L1089.46 1456.04 Q1087.7 1455.21 1085.89 1454.77 Q1084.11 1454.33 1082.35 1454.33 Q1077.72 1454.33 1075.27 1457.45 Q1072.84 1460.58 1072.49 1466.9 Q1073.86 1464.89 1075.92 1463.82 Q1077.98 1462.73 1080.45 1462.73 Q1085.66 1462.73 1088.67 1465.9 Q1091.7 1469.05 1091.7 1474.49 Q1091.7 1479.82 1088.56 1483.03 Q1085.41 1486.25 1080.18 1486.25 Q1074.18 1486.25 1071.01 1481.67 Q1067.84 1477.06 1067.84 1468.33 Q1067.84 1460.14 1071.73 1455.28 Q1075.62 1450.39 1082.17 1450.39 Q1083.93 1450.39 1085.71 1450.74 Q1087.52 1451.09 1089.46 1451.78 Z" fill="#000000" fill-rule="nonzero" fill-opacity="1" /><path clip-path="url(#clip560)" d="M1099.81 1451.02 L1118.16 1451.02 L1118.16 1454.96 L1104.09 1454.96 L1104.09 1463.43 Q1105.11 1463.08 1106.13 1462.92 Q1107.14 1462.73 1108.16 1462.73 Q1113.95 1462.73 1117.33 1465.9 Q1120.71 1469.08 1120.71 1474.49 Q1120.71 1480.07 1117.24 1483.17 Q1113.76 1486.25 1107.45 1486.25 Q1105.27 1486.25 1103 1485.88 Q1100.76 1485.51 1098.35 1484.77 L1098.35 1480.07 Q1100.43 1481.2 1102.65 1481.76 Q1104.88 1482.32 1107.35 1482.32 Q1111.36 1482.32 1113.7 1480.21 Q1116.03 1478.1 1116.03 1474.49 Q1116.03 1470.88 1113.7 1468.77 Q1111.36 1466.67 1107.35 1466.67 Q1105.48 1466.67 1103.6 1467.08 Q1101.75 1467.5 1099.81 1468.38 L1099.81 1451.02 Z" fill="#000000" fill-rule="nonzero" fill-opacity="1" /><path clip-path="url(#clip560)" d="M1129.92 1479.7 L1134.81 1479.7 L1134.81 1485.58 L1129.92 1485.58 L1129.92 1479.7 Z" fill="#000000" fill-rule="nonzero" fill-opacity="1" /><path clip-path="url(#clip560)" d="M1143.81 1451.02 L1166.03 1451.02 L1166.03 1453.01 L1153.49 1485.58 L1148.6 1485.58 L1160.41 1454.96 L1143.81 1454.96 L1143.81 1451.02 Z" fill="#000000" fill-rule="nonzero" fill-opacity="1" /><path clip-path="url(#clip560)" d="M1175.2 1451.02 L1193.56 1451.02 L1193.56 1454.96 L1179.48 1454.96 L1179.48 1463.43 Q1180.5 1463.08 1181.52 1462.92 Q1182.54 1462.73 1183.56 1462.73 Q1189.34 1462.73 1192.72 1465.9 Q1196.1 1469.08 1196.1 1474.49 Q1196.1 1480.07 1192.63 1483.17 Q1189.16 1486.25 1182.84 1486.25 Q1180.66 1486.25 1178.39 1485.88 Q1176.15 1485.51 1173.74 1484.77 L1173.74 1480.07 Q1175.82 1481.2 1178.05 1481.76 Q1180.27 1482.32 1182.75 1482.32 Q1186.75 1482.32 1189.09 1480.21 Q1191.43 1478.1 1191.43 1474.49 Q1191.43 1470.88 1189.09 1468.77 Q1186.75 1466.67 1182.75 1466.67 Q1180.87 1466.67 1179 1467.08 Q1177.14 1467.5 1175.2 1468.38 L1175.2 1451.02 Z" fill="#000000" fill-rule="nonzero" fill-opacity="1" /><path clip-path="url(#clip560)" d="M1529.14 1466.44 Q1525.99 1466.44 1524.14 1468.59 Q1522.31 1470.74 1522.31 1474.49 Q1522.31 1478.22 1524.14 1480.39 Q1525.99 1482.55 1529.14 1482.55 Q1532.29 1482.55 1534.12 1480.39 Q1535.97 1478.22 1535.97 1474.49 Q1535.97 1470.74 1534.12 1468.59 Q1532.29 1466.44 1529.14 1466.44 M1538.43 1451.78 L1538.43 1456.04 Q1536.67 1455.21 1534.86 1454.77 Q1533.08 1454.33 1531.32 1454.33 Q1526.69 1454.33 1524.24 1457.45 Q1521.81 1460.58 1521.46 1466.9 Q1522.82 1464.89 1524.88 1463.82 Q1526.94 1462.73 1529.42 1462.73 Q1534.63 1462.73 1537.64 1465.9 Q1540.67 1469.05 1540.67 1474.49 Q1540.67 1479.82 1537.52 1483.03 Q1534.37 1486.25 1529.14 1486.25 Q1523.15 1486.25 1519.98 1481.67 Q1516.81 1477.06 1516.81 1468.33 Q1516.81 1460.14 1520.69 1455.28 Q1524.58 1450.39 1531.13 1450.39 Q1532.89 1450.39 1534.68 1450.74 Q1536.48 1451.09 1538.43 1451.78 Z" fill="#000000" fill-rule="nonzero" fill-opacity="1" /><path clip-path="url(#clip560)" d="M1559.3 1466.44 Q1556.16 1466.44 1554.3 1468.59 Q1552.48 1470.74 1552.48 1474.49 Q1552.48 1478.22 1554.3 1480.39 Q1556.16 1482.55 1559.3 1482.55 Q1562.45 1482.55 1564.28 1480.39 Q1566.13 1478.22 1566.13 1474.49 Q1566.13 1470.74 1564.28 1468.59 Q1562.45 1466.44 1559.3 1466.44 M1568.59 1451.78 L1568.59 1456.04 Q1566.83 1455.21 1565.02 1454.77 Q1563.24 1454.33 1561.48 1454.33 Q1556.85 1454.33 1554.4 1457.45 Q1551.97 1460.58 1551.62 1466.9 Q1552.99 1464.89 1555.05 1463.82 Q1557.11 1462.73 1559.58 1462.73 Q1564.79 1462.73 1567.8 1465.9 Q1570.83 1469.05 1570.83 1474.49 Q1570.83 1479.82 1567.68 1483.03 Q1564.54 1486.25 1559.3 1486.25 Q1553.31 1486.25 1550.14 1481.67 Q1546.97 1477.06 1546.97 1468.33 Q1546.97 1460.14 1550.86 1455.28 Q1554.74 1450.39 1561.3 1450.39 Q1563.05 1450.39 1564.84 1450.74 Q1566.64 1451.09 1568.59 1451.78 Z" fill="#000000" fill-rule="nonzero" fill-opacity="1" /><path clip-path="url(#clip560)" d="M1578.89 1479.7 L1583.77 1479.7 L1583.77 1485.58 L1578.89 1485.58 L1578.89 1479.7 Z" fill="#000000" fill-rule="nonzero" fill-opacity="1" /><path clip-path="url(#clip560)" d="M1603.96 1454.1 Q1600.35 1454.1 1598.52 1457.66 Q1596.71 1461.2 1596.71 1468.33 Q1596.71 1475.44 1598.52 1479.01 Q1600.35 1482.55 1603.96 1482.55 Q1607.59 1482.55 1609.4 1479.01 Q1611.23 1475.44 1611.23 1468.33 Q1611.23 1461.2 1609.4 1457.66 Q1607.59 1454.1 1603.96 1454.1 M1603.96 1450.39 Q1609.77 1450.39 1612.82 1455 Q1615.9 1459.58 1615.9 1468.33 Q1615.9 1477.06 1612.82 1481.67 Q1609.77 1486.25 1603.96 1486.25 Q1598.15 1486.25 1595.07 1481.67 Q1592.01 1477.06 1592.01 1468.33 Q1592.01 1459.58 1595.07 1455 Q1598.15 1450.39 1603.96 1450.39 Z" fill="#000000" fill-rule="nonzero" fill-opacity="1" /><path clip-path="url(#clip560)" d="M1634.12 1454.1 Q1630.51 1454.1 1628.68 1457.66 Q1626.87 1461.2 1626.87 1468.33 Q1626.87 1475.44 1628.68 1479.01 Q1630.51 1482.55 1634.12 1482.55 Q1637.75 1482.55 1639.56 1479.01 Q1641.39 1475.44 1641.39 1468.33 Q1641.39 1461.2 1639.56 1457.66 Q1637.75 1454.1 1634.12 1454.1 M1634.12 1450.39 Q1639.93 1450.39 1642.98 1455 Q1646.06 1459.58 1646.06 1468.33 Q1646.06 1477.06 1642.98 1481.67 Q1639.93 1486.25 1634.12 1486.25 Q1628.31 1486.25 1625.23 1481.67 Q1622.17 1477.06 1622.17 1468.33 Q1622.17 1459.58 1625.23 1455 Q1628.31 1450.39 1634.12 1450.39 Z" fill="#000000" fill-rule="nonzero" fill-opacity="1" /><path clip-path="url(#clip560)" d="M1979.1 1466.44 Q1975.96 1466.44 1974.1 1468.59 Q1972.28 1470.74 1972.28 1474.49 Q1972.28 1478.22 1974.1 1480.39 Q1975.96 1482.55 1979.1 1482.55 Q1982.25 1482.55 1984.08 1480.39 Q1985.93 1478.22 1985.93 1474.49 Q1985.93 1470.74 1984.08 1468.59 Q1982.25 1466.44 1979.1 1466.44 M1988.39 1451.78 L1988.39 1456.04 Q1986.63 1455.21 1984.82 1454.77 Q1983.04 1454.33 1981.28 1454.33 Q1976.65 1454.33 1974.2 1457.45 Q1971.77 1460.58 1971.42 1466.9 Q1972.78 1464.89 1974.84 1463.82 Q1976.91 1462.73 1979.38 1462.73 Q1984.59 1462.73 1987.6 1465.9 Q1990.63 1469.05 1990.63 1474.49 Q1990.63 1479.82 1987.48 1483.03 Q1984.34 1486.25 1979.1 1486.25 Q1973.11 1486.25 1969.94 1481.67 Q1966.77 1477.06 1966.77 1468.33 Q1966.77 1460.14 1970.66 1455.28 Q1974.54 1450.39 1981.09 1450.39 Q1982.85 1450.39 1984.64 1450.74 Q1986.44 1451.09 1988.39 1451.78 Z" fill="#000000" fill-rule="nonzero" fill-opacity="1" /><path clip-path="url(#clip560)" d="M2009.27 1466.44 Q2006.12 1466.44 2004.27 1468.59 Q2002.44 1470.74 2002.44 1474.49 Q2002.44 1478.22 2004.27 1480.39 Q2006.12 1482.55 2009.27 1482.55 Q2012.41 1482.55 2014.24 1480.39 Q2016.09 1478.22 2016.09 1474.49 Q2016.09 1470.74 2014.24 1468.59 Q2012.41 1466.44 2009.27 1466.44 M2018.55 1451.78 L2018.55 1456.04 Q2016.79 1455.21 2014.98 1454.77 Q2013.2 1454.33 2011.44 1454.33 Q2006.81 1454.33 2004.36 1457.45 Q2001.93 1460.58 2001.58 1466.9 Q2002.95 1464.89 2005.01 1463.82 Q2007.07 1462.73 2009.54 1462.73 Q2014.75 1462.73 2017.76 1465.9 Q2020.79 1469.05 2020.79 1474.49 Q2020.79 1479.82 2017.65 1483.03 Q2014.5 1486.25 2009.27 1486.25 Q2003.27 1486.25 2000.1 1481.67 Q1996.93 1477.06 1996.93 1468.33 Q1996.93 1460.14 2000.82 1455.28 Q2004.71 1450.39 2011.26 1450.39 Q2013.02 1450.39 2014.8 1450.74 Q2016.6 1451.09 2018.55 1451.78 Z" fill="#000000" fill-rule="nonzero" fill-opacity="1" /><path clip-path="url(#clip560)" d="M2028.85 1479.7 L2033.73 1479.7 L2033.73 1485.58 L2028.85 1485.58 L2028.85 1479.7 Z" fill="#000000" fill-rule="nonzero" fill-opacity="1" /><path clip-path="url(#clip560)" d="M2047.95 1481.64 L2064.27 1481.64 L2064.27 1485.58 L2042.32 1485.58 L2042.32 1481.64 Q2044.98 1478.89 2049.57 1474.26 Q2054.17 1469.61 2055.35 1468.27 Q2057.6 1465.74 2058.48 1464.01 Q2059.38 1462.25 2059.38 1460.56 Q2059.38 1457.8 2057.44 1456.07 Q2055.52 1454.33 2052.41 1454.33 Q2050.21 1454.33 2047.76 1455.09 Q2045.33 1455.86 2042.55 1457.41 L2042.55 1452.69 Q2045.38 1451.55 2047.83 1450.97 Q2050.28 1450.39 2052.32 1450.39 Q2057.69 1450.39 2060.89 1453.08 Q2064.08 1455.77 2064.08 1460.26 Q2064.08 1462.39 2063.27 1464.31 Q2062.48 1466.2 2060.38 1468.8 Q2059.8 1469.47 2056.7 1472.69 Q2053.59 1475.88 2047.95 1481.64 Z" fill="#000000" fill-rule="nonzero" fill-opacity="1" /><path clip-path="url(#clip560)" d="M2074.13 1451.02 L2092.48 1451.02 L2092.48 1454.96 L2078.41 1454.96 L2078.41 1463.43 Q2079.43 1463.08 2080.45 1462.92 Q2081.46 1462.73 2082.48 1462.73 Q2088.27 1462.73 2091.65 1465.9 Q2095.03 1469.08 2095.03 1474.49 Q2095.03 1480.07 2091.56 1483.17 Q2088.09 1486.25 2081.77 1486.25 Q2079.59 1486.25 2077.32 1485.88 Q2075.08 1485.51 2072.67 1484.77 L2072.67 1480.07 Q2074.75 1481.2 2076.97 1481.76 Q2079.2 1482.32 2081.67 1482.32 Q2085.68 1482.32 2088.02 1480.21 Q2090.35 1478.1 2090.35 1474.49 Q2090.35 1470.88 2088.02 1468.77 Q2085.68 1466.67 2081.67 1466.67 Q2079.8 1466.67 2077.92 1467.08 Q2076.07 1467.5 2074.13 1468.38 L2074.13 1451.02 Z" fill="#000000" fill-rule="nonzero" fill-opacity="1" /><path clip-path="url(#clip560)" d="M1142.01 1526.86 L1133.29 1550.51 L1150.76 1550.51 L1142.01 1526.86 M1138.38 1520.52 L1145.67 1520.52 L1163.78 1568.04 L1157.09 1568.04 L1152.76 1555.85 L1131.34 1555.85 L1127.02 1568.04 L1120.24 1568.04 L1138.38 1520.52 Z" fill="#000000" fill-rule="nonzero" fill-opacity="1" /><path clip-path="url(#clip560)" d="M1193.92 1549.81 Q1193.92 1543.44 1191.28 1539.94 Q1188.67 1536.44 1183.92 1536.44 Q1179.21 1536.44 1176.57 1539.94 Q1173.96 1543.44 1173.96 1549.81 Q1173.96 1556.14 1176.57 1559.64 Q1179.21 1563.14 1183.92 1563.14 Q1188.67 1563.14 1191.28 1559.64 Q1193.92 1556.14 1193.92 1549.81 M1199.78 1563.62 Q1199.78 1572.72 1195.73 1577.15 Q1191.69 1581.6 1183.35 1581.6 Q1180.26 1581.6 1177.53 1581.13 Q1174.79 1580.68 1172.21 1579.72 L1172.21 1574.03 Q1174.79 1575.43 1177.3 1576.1 Q1179.82 1576.76 1182.43 1576.76 Q1188.19 1576.76 1191.05 1573.74 Q1193.92 1570.75 1193.92 1564.67 L1193.92 1561.77 Q1192.1 1564.92 1189.27 1566.48 Q1186.44 1568.04 1182.49 1568.04 Q1175.94 1568.04 1171.93 1563.05 Q1167.91 1558.05 1167.91 1549.81 Q1167.91 1541.53 1171.93 1536.53 Q1175.94 1531.54 1182.49 1531.54 Q1186.44 1531.54 1189.27 1533.1 Q1192.1 1534.66 1193.92 1537.81 L1193.92 1532.4 L1199.78 1532.4 L1199.78 1563.62 Z" fill="#000000" fill-rule="nonzero" fill-opacity="1" /><path clip-path="url(#clip560)" d="M1242.33 1548.76 L1242.33 1551.62 L1215.4 1551.62 Q1215.78 1557.67 1219.03 1560.85 Q1222.31 1564 1228.13 1564 Q1231.51 1564 1234.66 1563.17 Q1237.84 1562.35 1240.96 1560.69 L1240.96 1566.23 Q1237.81 1567.57 1234.5 1568.27 Q1231.19 1568.97 1227.78 1568.97 Q1219.25 1568.97 1214.26 1564 Q1209.29 1559.04 1209.29 1550.57 Q1209.29 1541.82 1214 1536.69 Q1218.74 1531.54 1226.77 1531.54 Q1233.96 1531.54 1238.13 1536.18 Q1242.33 1540.8 1242.33 1548.76 M1236.47 1547.04 Q1236.41 1542.23 1233.77 1539.37 Q1231.16 1536.5 1226.83 1536.5 Q1221.93 1536.5 1218.97 1539.27 Q1216.04 1542.04 1215.59 1547.07 L1236.47 1547.04 Z" fill="#000000" fill-rule="nonzero" fill-opacity="1" /><path clip-path="url(#clip560)" d="M1286.73 1518.58 Q1282.47 1525.9 1280.4 1533.06 Q1278.33 1540.23 1278.33 1547.58 Q1278.33 1554.93 1280.4 1562.16 Q1282.5 1569.35 1286.73 1576.64 L1281.64 1576.64 Q1276.86 1569.16 1274.48 1561.93 Q1272.12 1554.71 1272.12 1547.58 Q1272.12 1540.48 1274.48 1533.29 Q1276.83 1526.09 1281.64 1518.58 L1286.73 1518.58 Z" fill="#000000" fill-rule="nonzero" fill-opacity="1" /><path clip-path="url(#clip560)" d="M1298.35 1520.52 L1307.93 1520.52 L1320.06 1552.86 L1332.25 1520.52 L1341.83 1520.52 L1341.83 1568.04 L1335.56 1568.04 L1335.56 1526.32 L1323.3 1558.91 L1316.84 1558.91 L1304.59 1526.32 L1304.59 1568.04 L1298.35 1568.04 L1298.35 1520.52 Z" fill="#000000" fill-rule="nonzero" fill-opacity="1" /><path clip-path="url(#clip560)" d="M1370.54 1550.12 Q1363.44 1550.12 1360.7 1551.75 Q1357.96 1553.37 1357.96 1557.29 Q1357.96 1560.4 1360 1562.25 Q1362.07 1564.07 1365.6 1564.07 Q1370.47 1564.07 1373.4 1560.63 Q1376.36 1557.16 1376.36 1551.43 L1376.36 1550.12 L1370.54 1550.12 M1382.22 1547.71 L1382.22 1568.04 L1376.36 1568.04 L1376.36 1562.63 Q1374.35 1565.88 1371.36 1567.44 Q1368.37 1568.97 1364.04 1568.97 Q1358.57 1568.97 1355.32 1565.91 Q1352.11 1562.82 1352.11 1557.67 Q1352.11 1551.65 1356.12 1548.6 Q1360.16 1545.54 1368.15 1545.54 L1376.36 1545.54 L1376.36 1544.97 Q1376.36 1540.93 1373.69 1538.73 Q1371.04 1536.5 1366.24 1536.5 Q1363.18 1536.5 1360.29 1537.23 Q1357.39 1537.97 1354.72 1539.43 L1354.72 1534.02 Q1357.93 1532.78 1360.95 1532.17 Q1363.98 1531.54 1366.84 1531.54 Q1374.58 1531.54 1378.4 1535.55 Q1382.22 1539.56 1382.22 1547.71 Z" fill="#000000" fill-rule="nonzero" fill-opacity="1" /><path clip-path="url(#clip560)" d="M1393.36 1518.58 L1398.45 1518.58 Q1403.22 1526.09 1405.58 1533.29 Q1407.97 1540.48 1407.97 1547.58 Q1407.97 1554.71 1405.58 1561.93 Q1403.22 1569.16 1398.45 1576.64 L1393.36 1576.64 Q1397.59 1569.35 1399.66 1562.16 Q1401.76 1554.93 1401.76 1547.58 Q1401.76 1540.23 1399.66 1533.06 Q1397.59 1525.9 1393.36 1518.58 Z" fill="#000000" fill-rule="nonzero" fill-opacity="1" /><polyline clip-path="url(#clip560)" style="stroke:#000000; stroke-linecap:round; stroke-linejoin:round; stroke-width:4; stroke-opacity:1; fill:none" points="175.445,1423.18 175.445,47.2441 "/>
<polyline clip-path="url(#clip560)" style="stroke:#000000; stroke-linecap:round; stroke-linejoin:round; stroke-width:4; stroke-opacity:1; fill:none" points="2352.76,1423.18 2352.76,47.2441 "/>
<polyline clip-path="url(#clip560)" style="stroke:#000000; stroke-linecap:round; stroke-linejoin:round; stroke-width:4; stroke-opacity:1; fill:none" points="175.445,1384.24 194.343,1384.24 "/>
<polyline clip-path="url(#clip560)" style="stroke:#000000; stroke-linecap:round; stroke-linejoin:round; stroke-width:4; stroke-opacity:1; fill:none" points="175.445,1075.69 194.343,1075.69 "/>
<polyline clip-path="url(#clip560)" style="stroke:#000000; stroke-linecap:round; stroke-linejoin:round; stroke-width:4; stroke-opacity:1; fill:none" points="175.445,767.141 194.343,767.141 "/>
<polyline clip-path="url(#clip560)" style="stroke:#000000; stroke-linecap:round; stroke-linejoin:round; stroke-width:4; stroke-opacity:1; fill:none" points="175.445,458.592 194.343,458.592 "/>
<polyline clip-path="url(#clip560)" style="stroke:#000000; stroke-linecap:round; stroke-linejoin:round; stroke-width:4; stroke-opacity:1; fill:none" points="175.445,150.043 194.343,150.043 "/>
<polyline clip-path="url(#clip560)" style="stroke:#000000; stroke-linecap:round; stroke-linejoin:round; stroke-width:4; stroke-opacity:1; fill:none" points="2352.76,1384.24 2333.86,1384.24 "/>
<polyline clip-path="url(#clip560)" style="stroke:#000000; stroke-linecap:round; stroke-linejoin:round; stroke-width:4; stroke-opacity:1; fill:none" points="2352.76,1075.69 2333.86,1075.69 "/>
<polyline clip-path="url(#clip560)" style="stroke:#000000; stroke-linecap:round; stroke-linejoin:round; stroke-width:4; stroke-opacity:1; fill:none" points="2352.76,767.141 2333.86,767.141 "/>
<polyline clip-path="url(#clip560)" style="stroke:#000000; stroke-linecap:round; stroke-linejoin:round; stroke-width:4; stroke-opacity:1; fill:none" points="2352.76,458.592 2333.86,458.592 "/>
<polyline clip-path="url(#clip560)" style="stroke:#000000; stroke-linecap:round; stroke-linejoin:round; stroke-width:4; stroke-opacity:1; fill:none" points="2352.76,150.043 2333.86,150.043 "/>
<path clip-path="url(#clip560)" d="M127.501 1370.04 Q123.89 1370.04 122.061 1373.6 Q120.255 1377.14 120.255 1384.27 Q120.255 1391.38 122.061 1394.95 Q123.89 1398.49 127.501 1398.49 Q131.135 1398.49 132.941 1394.95 Q134.769 1391.38 134.769 1384.27 Q134.769 1377.14 132.941 1373.6 Q131.135 1370.04 127.501 1370.04 M127.501 1366.33 Q133.311 1366.33 136.367 1370.94 Q139.445 1375.52 139.445 1384.27 Q139.445 1393 136.367 1397.61 Q133.311 1402.19 127.501 1402.19 Q121.691 1402.19 118.612 1397.61 Q115.556 1393 115.556 1384.27 Q115.556 1375.52 118.612 1370.94 Q121.691 1366.33 127.501 1366.33 Z" fill="#000000" fill-rule="nonzero" fill-opacity="1" /><path clip-path="url(#clip560)" d="M123.126 1089.04 L139.445 1089.04 L139.445 1092.97 L117.501 1092.97 L117.501 1089.04 Q120.163 1086.28 124.746 1081.65 Q129.353 1077 130.533 1075.66 Q132.779 1073.13 133.658 1071.4 Q134.561 1069.64 134.561 1067.95 Q134.561 1065.19 132.617 1063.46 Q130.695 1061.72 127.593 1061.72 Q125.394 1061.72 122.941 1062.48 Q120.51 1063.25 117.732 1064.8 L117.732 1060.08 Q120.556 1058.94 123.01 1058.36 Q125.464 1057.79 127.501 1057.79 Q132.871 1057.79 136.066 1060.47 Q139.26 1063.16 139.26 1067.65 Q139.26 1069.78 138.45 1071.7 Q137.663 1073.6 135.556 1076.19 Q134.978 1076.86 131.876 1080.08 Q128.774 1083.27 123.126 1089.04 Z" fill="#000000" fill-rule="nonzero" fill-opacity="1" /><path clip-path="url(#clip560)" d="M129.862 753.935 L118.056 772.384 L129.862 772.384 L129.862 753.935 M128.635 749.861 L134.515 749.861 L134.515 772.384 L139.445 772.384 L139.445 776.273 L134.515 776.273 L134.515 784.421 L129.862 784.421 L129.862 776.273 L114.26 776.273 L114.26 771.759 L128.635 749.861 Z" fill="#000000" fill-rule="nonzero" fill-opacity="1" /><path clip-path="url(#clip560)" d="M127.917 456.729 Q124.769 456.729 122.918 458.881 Q121.089 461.034 121.089 464.784 Q121.089 468.511 122.918 470.687 Q124.769 472.84 127.917 472.84 Q131.066 472.84 132.894 470.687 Q134.746 468.511 134.746 464.784 Q134.746 461.034 132.894 458.881 Q131.066 456.729 127.917 456.729 M137.2 442.076 L137.2 446.335 Q135.441 445.502 133.635 445.062 Q131.853 444.622 130.093 444.622 Q125.464 444.622 123.01 447.747 Q120.58 450.872 120.232 457.192 Q121.598 455.178 123.658 454.113 Q125.718 453.025 128.195 453.025 Q133.404 453.025 136.413 456.196 Q139.445 459.344 139.445 464.784 Q139.445 470.108 136.297 473.326 Q133.149 476.543 127.917 476.543 Q121.922 476.543 118.751 471.96 Q115.58 467.354 115.58 458.627 Q115.58 450.432 119.468 445.571 Q123.357 440.687 129.908 440.687 Q131.667 440.687 133.45 441.034 Q135.255 441.381 137.2 442.076 Z" fill="#000000" fill-rule="nonzero" fill-opacity="1" /><path clip-path="url(#clip560)" d="M127.593 150.911 Q124.26 150.911 122.339 152.693 Q120.441 154.476 120.441 157.601 Q120.441 160.726 122.339 162.508 Q124.26 164.291 127.593 164.291 Q130.927 164.291 132.848 162.508 Q134.769 160.703 134.769 157.601 Q134.769 154.476 132.848 152.693 Q130.95 150.911 127.593 150.911 M122.918 148.92 Q119.908 148.18 118.218 146.119 Q116.552 144.059 116.552 141.096 Q116.552 136.953 119.492 134.545 Q122.455 132.138 127.593 132.138 Q132.755 132.138 135.695 134.545 Q138.635 136.953 138.635 141.096 Q138.635 144.059 136.945 146.119 Q135.279 148.18 132.292 148.92 Q135.672 149.707 137.547 151.999 Q139.445 154.291 139.445 157.601 Q139.445 162.624 136.367 165.309 Q133.311 167.994 127.593 167.994 Q121.876 167.994 118.797 165.309 Q115.742 162.624 115.742 157.601 Q115.742 154.291 117.64 151.999 Q119.538 149.707 122.918 148.92 M121.205 141.536 Q121.205 144.221 122.871 145.726 Q124.561 147.23 127.593 147.23 Q130.603 147.23 132.292 145.726 Q134.005 144.221 134.005 141.536 Q134.005 138.851 132.292 137.346 Q130.603 135.842 127.593 135.842 Q124.561 135.842 122.871 137.346 Q121.205 138.851 121.205 141.536 Z" fill="#000000" fill-rule="nonzero" fill-opacity="1" /><path clip-path="url(#clip560)" d="M21.7677 1026.76 L39.6235 1026.76 L39.6235 1018.68 Q39.6235 1014.19 37.3 1011.74 Q34.9765 1009.29 30.6797 1009.29 Q26.4147 1009.29 24.0912 1011.74 Q21.7677 1014.19 21.7677 1018.68 L21.7677 1026.76 M16.4842 1033.19 L16.4842 1018.68 Q16.4842 1010.69 20.1126 1006.61 Q23.7092 1002.51 30.6797 1002.51 Q37.7138 1002.51 41.3104 1006.61 Q44.907 1010.69 44.907 1018.68 L44.907 1026.76 L64.0042 1026.76 L64.0042 1033.19 L16.4842 1033.19 Z" fill="#000000" fill-rule="nonzero" fill-opacity="1" /><path clip-path="url(#clip560)" d="M33.8307 974.626 Q33.2578 975.613 33.0032 976.791 Q32.7167 977.936 32.7167 979.337 Q32.7167 984.302 35.9632 986.976 Q39.1779 989.617 45.2253 989.617 L64.0042 989.617 L64.0042 995.506 L28.3562 995.506 L28.3562 989.617 L33.8944 989.617 Q30.6479 987.771 29.0883 984.811 Q27.4968 981.851 27.4968 977.618 Q27.4968 977.013 27.5923 976.281 Q27.656 975.549 27.8151 974.658 L33.8307 974.626 Z" fill="#000000" fill-rule="nonzero" fill-opacity="1" /><path clip-path="url(#clip560)" d="M32.4621 956.102 Q32.4621 960.813 36.1542 963.55 Q39.8145 966.287 46.212 966.287 Q52.6095 966.287 56.3017 963.582 Q59.9619 960.844 59.9619 956.102 Q59.9619 951.423 56.2698 948.686 Q52.5777 945.949 46.212 945.949 Q39.8781 945.949 36.186 948.686 Q32.4621 951.423 32.4621 956.102 M27.4968 956.102 Q27.4968 948.463 32.4621 944.103 Q37.4273 939.742 46.212 939.742 Q54.9649 939.742 59.9619 944.103 Q64.9272 948.463 64.9272 956.102 Q64.9272 963.773 59.9619 968.133 Q54.9649 972.462 46.212 972.462 Q37.4273 972.462 32.4621 968.133 Q27.4968 963.773 27.4968 956.102 Z" fill="#000000" fill-rule="nonzero" fill-opacity="1" /><path clip-path="url(#clip560)" d="M46.212 904.444 Q39.7508 904.444 36.0905 907.118 Q32.3984 909.76 32.3984 914.407 Q32.3984 919.054 36.0905 921.727 Q39.7508 924.369 46.212 924.369 Q52.6732 924.369 56.3653 921.727 Q60.0256 919.054 60.0256 914.407 Q60.0256 909.76 56.3653 907.118 Q52.6732 904.444 46.212 904.444 M33.7671 924.369 Q30.5842 922.523 29.0564 919.722 Q27.4968 916.889 27.4968 912.974 Q27.4968 906.481 32.6531 902.439 Q37.8093 898.365 46.212 898.365 Q54.6147 898.365 59.771 902.439 Q64.9272 906.481 64.9272 912.974 Q64.9272 916.889 63.3994 919.722 Q61.8398 922.523 58.657 924.369 L64.0042 924.369 L64.0042 930.257 L14.479 930.257 L14.479 924.369 L33.7671 924.369 Z" fill="#000000" fill-rule="nonzero" fill-opacity="1" /><path clip-path="url(#clip560)" d="M46.0847 872.457 Q46.0847 879.554 47.7079 882.292 Q49.3312 885.029 53.2461 885.029 Q56.3653 885.029 58.2114 882.992 Q60.0256 880.923 60.0256 877.39 Q60.0256 872.52 56.5881 869.592 Q53.1188 866.632 47.3897 866.632 L46.0847 866.632 L46.0847 872.457 M43.6657 860.776 L64.0042 860.776 L64.0042 866.632 L58.5933 866.632 Q61.8398 868.637 63.3994 871.629 Q64.9272 874.621 64.9272 878.95 Q64.9272 884.424 61.8716 887.671 Q58.7843 890.885 53.6281 890.885 Q47.6125 890.885 44.5569 886.875 Q41.5014 882.833 41.5014 874.844 L41.5014 866.632 L40.9285 866.632 Q36.8862 866.632 34.6901 869.306 Q32.4621 871.947 32.4621 876.753 Q32.4621 879.809 33.1941 882.705 Q33.9262 885.602 35.3903 888.275 L29.9795 888.275 Q28.7381 885.061 28.1334 882.037 Q27.4968 879.013 27.4968 876.149 Q27.4968 868.414 31.5072 864.595 Q35.5176 860.776 43.6657 860.776 Z" fill="#000000" fill-rule="nonzero" fill-opacity="1" /><path clip-path="url(#clip560)" d="M46.212 823.122 Q39.7508 823.122 36.0905 825.796 Q32.3984 828.438 32.3984 833.085 Q32.3984 837.732 36.0905 840.405 Q39.7508 843.047 46.212 843.047 Q52.6732 843.047 56.3653 840.405 Q60.0256 837.732 60.0256 833.085 Q60.0256 828.438 56.3653 825.796 Q52.6732 823.122 46.212 823.122 M33.7671 843.047 Q30.5842 841.201 29.0564 838.4 Q27.4968 835.567 27.4968 831.652 Q27.4968 825.159 32.6531 821.117 Q37.8093 817.043 46.212 817.043 Q54.6147 817.043 59.771 821.117 Q64.9272 825.159 64.9272 831.652 Q64.9272 835.567 63.3994 838.4 Q61.8398 841.201 58.657 843.047 L64.0042 843.047 L64.0042 848.935 L14.479 848.935 L14.479 843.047 L33.7671 843.047 Z" fill="#000000" fill-rule="nonzero" fill-opacity="1" /><path clip-path="url(#clip560)" d="M28.3562 807.335 L28.3562 801.479 L64.0042 801.479 L64.0042 807.335 L28.3562 807.335 M14.479 807.335 L14.479 801.479 L21.895 801.479 L21.895 807.335 L14.479 807.335 Z" fill="#000000" fill-rule="nonzero" fill-opacity="1" /><path clip-path="url(#clip560)" d="M14.479 789.225 L14.479 783.369 L64.0042 783.369 L64.0042 789.225 L14.479 789.225 Z" fill="#000000" fill-rule="nonzero" fill-opacity="1" /><path clip-path="url(#clip560)" d="M28.3562 771.115 L28.3562 765.258 L64.0042 765.258 L64.0042 771.115 L28.3562 771.115 M14.479 771.115 L14.479 765.258 L21.895 765.258 L21.895 771.115 L14.479 771.115 Z" fill="#000000" fill-rule="nonzero" fill-opacity="1" /><path clip-path="url(#clip560)" d="M18.2347 747.211 L28.3562 747.211 L28.3562 735.148 L32.9077 735.148 L32.9077 747.211 L52.2594 747.211 Q56.6199 747.211 57.8613 746.034 Q59.1026 744.824 59.1026 741.164 L59.1026 735.148 L64.0042 735.148 L64.0042 741.164 Q64.0042 747.943 61.4897 750.521 Q58.9434 753.1 52.2594 753.1 L32.9077 753.1 L32.9077 757.396 L28.3562 757.396 L28.3562 753.1 L18.2347 753.1 L18.2347 747.211 Z" fill="#000000" fill-rule="nonzero" fill-opacity="1" /><path clip-path="url(#clip560)" d="M67.3143 712.614 Q73.68 715.096 75.6216 717.452 Q77.5631 719.807 77.5631 723.754 L77.5631 728.432 L72.6615 728.432 L72.6615 724.995 Q72.6615 722.576 71.5157 721.239 Q70.3699 719.902 66.1048 718.279 L63.4312 717.229 L28.3562 731.647 L28.3562 725.441 L56.238 714.301 L28.3562 703.161 L28.3562 696.954 L67.3143 712.614 Z" fill="#000000" fill-rule="nonzero" fill-opacity="1" /><path clip-path="url(#clip560)" d="M33.7671 644.692 L14.479 644.692 L14.479 638.835 L64.0042 638.835 L64.0042 644.692 L58.657 644.692 Q61.8398 646.538 63.3994 649.37 Q64.9272 652.171 64.9272 656.118 Q64.9272 662.579 59.771 666.653 Q54.6147 670.696 46.212 670.696 Q37.8093 670.696 32.6531 666.653 Q27.4968 662.579 27.4968 656.118 Q27.4968 652.171 29.0564 649.37 Q30.5842 646.538 33.7671 644.692 M46.212 664.648 Q52.6732 664.648 56.3653 662.006 Q60.0256 659.333 60.0256 654.686 Q60.0256 650.039 56.3653 647.365 Q52.6732 644.692 46.212 644.692 Q39.7508 644.692 36.0905 647.365 Q32.3984 650.039 32.3984 654.686 Q32.3984 659.333 36.0905 662.006 Q39.7508 664.648 46.212 664.648 Z" fill="#000000" fill-rule="nonzero" fill-opacity="1" /><path clip-path="url(#clip560)" d="M44.7161 596.28 L47.5806 596.28 L47.5806 623.207 Q53.6281 622.825 56.8109 619.579 Q59.9619 616.301 59.9619 610.476 Q59.9619 607.102 59.1344 603.951 Q58.3069 600.768 56.6518 597.649 L62.1899 597.649 Q63.5267 600.8 64.227 604.11 Q64.9272 607.42 64.9272 610.826 Q64.9272 619.356 59.9619 624.353 Q54.9967 629.318 46.5303 629.318 Q37.7774 629.318 32.6531 624.608 Q27.4968 619.865 27.4968 611.845 Q27.4968 604.651 32.1438 600.482 Q36.7589 596.28 44.7161 596.28 M42.9973 602.137 Q38.1912 602.201 35.3266 604.842 Q32.4621 607.452 32.4621 611.781 Q32.4621 616.683 35.2312 619.643 Q38.0002 622.571 43.0292 623.016 L42.9973 602.137 Z" fill="#000000" fill-rule="nonzero" fill-opacity="1" /><path clip-path="url(#clip560)" d="M42.4881 557.036 L64.0042 557.036 L64.0042 562.892 L42.679 562.892 Q37.6183 562.892 35.1038 564.866 Q32.5894 566.839 32.5894 570.786 Q32.5894 575.528 35.6131 578.265 Q38.6368 581.003 43.8567 581.003 L64.0042 581.003 L64.0042 586.891 L28.3562 586.891 L28.3562 581.003 L33.8944 581.003 Q30.6797 578.902 29.0883 576.069 Q27.4968 573.205 27.4968 569.481 Q27.4968 563.338 31.3163 560.187 Q35.1038 557.036 42.4881 557.036 Z" fill="#000000" fill-rule="nonzero" fill-opacity="1" /><path clip-path="url(#clip560)" d="M29.4065 522.629 L34.9447 522.629 Q33.6716 525.112 33.035 527.785 Q32.3984 530.459 32.3984 533.324 Q32.3984 537.684 33.7352 539.88 Q35.072 542.045 37.7456 542.045 Q39.7826 542.045 40.9603 540.485 Q42.1061 538.925 43.1565 534.215 L43.6021 532.21 Q44.9389 525.971 47.3897 523.361 Q49.8086 520.719 54.1691 520.719 Q59.1344 520.719 62.0308 524.666 Q64.9272 528.581 64.9272 535.456 Q64.9272 538.321 64.3543 541.44 Q63.8132 544.527 62.6992 547.965 L56.6518 547.965 Q58.3387 544.718 59.198 541.567 Q60.0256 538.416 60.0256 535.329 Q60.0256 531.191 58.6251 528.963 Q57.1929 526.735 54.6147 526.735 Q52.2276 526.735 50.9545 528.358 Q49.6813 529.95 48.5037 535.392 L48.0262 537.429 Q46.8804 542.872 44.5251 545.291 Q42.138 547.71 38.0002 547.71 Q32.9713 547.71 30.2341 544.145 Q27.4968 540.58 27.4968 534.024 Q27.4968 530.777 27.9743 527.913 Q28.4517 525.048 29.4065 522.629 Z" fill="#000000" fill-rule="nonzero" fill-opacity="1" /><path clip-path="url(#clip560)" d="M28.3562 511.394 L28.3562 505.537 L64.0042 505.537 L64.0042 511.394 L28.3562 511.394 M14.479 511.394 L14.479 505.537 L21.895 505.537 L21.895 511.394 L14.479 511.394 Z" fill="#000000" fill-rule="nonzero" fill-opacity="1" /><path clip-path="url(#clip560)" d="M18.2347 487.49 L28.3562 487.49 L28.3562 475.427 L32.9077 475.427 L32.9077 487.49 L52.2594 487.49 Q56.6199 487.49 57.8613 486.313 Q59.1026 485.103 59.1026 481.443 L59.1026 475.427 L64.0042 475.427 L64.0042 481.443 Q64.0042 488.223 61.4897 490.801 Q58.9434 493.379 52.2594 493.379 L32.9077 493.379 L32.9077 497.676 L28.3562 497.676 L28.3562 493.379 L18.2347 493.379 L18.2347 487.49 Z" fill="#000000" fill-rule="nonzero" fill-opacity="1" /><path clip-path="url(#clip560)" d="M67.3143 452.893 Q73.68 455.376 75.6216 457.731 Q77.5631 460.086 77.5631 464.033 L77.5631 468.712 L72.6615 468.712 L72.6615 465.274 Q72.6615 462.855 71.5157 461.518 Q70.3699 460.182 66.1048 458.558 L63.4312 457.508 L28.3562 471.926 L28.3562 465.72 L56.238 454.58 L28.3562 443.44 L28.3562 437.233 L67.3143 452.893 Z" fill="#000000" fill-rule="nonzero" fill-opacity="1" /><polyline clip-path="url(#clip562)" style="stroke:#009af9; stroke-linecap:round; stroke-linejoin:round; stroke-width:4; stroke-opacity:1; fill:none" points="237.067,1384.23 647.881,1384.23 669.502,1384.22 734.368,1383.99 755.989,1384.22 799.233,1384.21 820.855,1384.21 842.476,1384.09 864.098,1384.23 885.72,1384.08 928.963,1384.08 950.585,1384.1 972.207,1384.05 993.829,1383.99 1015.45,1383.82 1037.07,1383.77 1058.69,1383.44 1080.32,1383.75 1101.94,1383.37 1123.56,1382.96 1145.18,1383.14 1166.8,1383.11 1188.42,1381.82 1210.05,1380.81 1231.67,1380.54 1253.29,1380.43 1274.91,1380.46 1296.53,1380.26 1318.15,1379.3 1339.78,1378.37 1361.4,1377.53 1383.02,1373.88 1404.64,1369.43 1426.26,1366.38 1447.89,1366.04 1469.51,1362.08 1491.13,1354.23 1512.75,1343.69 1534.37,1336.87 1555.99,1322.63 1577.62,1313.28 1599.24,1286.3 1620.86,1265.57 1642.48,1230.38 1664.1,1190.74 1685.72,1135.44 1707.35,1076.04 1728.97,1016.93 1750.59,915.942 1772.21,841.051 1793.83,741.409 1815.46,623.798 1837.08,500.183 1858.7,380.814 1880.32,266.513 1901.94,172.934 1923.56,405.336 1945.19,736.455 1966.81,951.801 1988.43,1074.43 2010.05,1186.82 2031.67,1254.47 2053.29,1296.58 2074.92,1327.98 2096.54,1351.1 2118.16,1364.27 2139.78,1374.99 2161.4,1377.65 2183.03,1380.26 2204.65,1382.6 2226.27,1383.28 2247.89,1383.95 2269.51,1384.17 2291.13,1383.98 "/>
<polyline clip-path="url(#clip562)" style="stroke:#e26f46; stroke-linecap:round; stroke-linejoin:round; stroke-width:4; stroke-opacity:1; fill:none" points="237.067,1384.24 647.881,1384.2 669.502,1384.2 734.368,1384.16 755.989,1384.15 799.233,1384.11 820.855,1384.08 842.476,1384.05 864.098,1384.01 885.72,1383.96 928.963,1383.84 950.585,1383.75 972.207,1383.66 993.829,1383.54 1015.45,1383.39 1037.07,1383.22 1058.69,1383.01 1080.32,1382.76 1101.94,1382.45 1123.56,1382.09 1145.18,1381.64 1166.8,1381.11 1188.42,1380.47 1210.05,1379.7 1231.67,1378.77 1253.29,1377.65 1274.91,1376.3 1296.53,1374.67 1318.15,1372.71 1339.78,1370.35 1361.4,1367.51 1383.02,1364.08 1404.64,1359.95 1426.26,1354.98 1447.89,1348.98 1469.51,1341.76 1491.13,1333.06 1512.75,1322.59 1534.37,1309.96 1555.99,1294.76 1577.62,1276.44 1599.24,1254.39 1620.86,1227.83 1642.48,1195.85 1664.1,1157.36 1685.72,1111.05 1707.35,1055.35 1728.97,988.431 1750.59,908.13 1772.21,812.015 1793.83,697.499 1815.46,562.366 1837.08,406.484 1858.7,237.826 1880.32,93.6169 1901.94,86.1857 1923.56,314.928 1945.19,629.836 1966.81,884.441 1988.43,1060.27 2010.05,1176 2031.67,1250.89 2053.29,1299.01 2074.92,1329.82 2096.54,1349.51 2118.16,1362.09 2139.78,1370.11 2161.4,1375.23 2183.03,1378.5 2204.65,1380.58 2226.27,1381.91 2247.89,1382.75 2269.51,1383.29 2291.13,1383.64 "/>
<path clip-path="url(#clip560)" d="M248.022 248.629 L800.057 248.629 L800.057 93.1086 L248.022 93.1086  Z" fill="#ffffff" fill-rule="evenodd" fill-opacity="1"/>
<polyline clip-path="url(#clip560)" style="stroke:#ffffff; stroke-linecap:round; stroke-linejoin:round; stroke-width:4; stroke-opacity:1; fill:none" points="248.022,248.629 800.057,248.629 800.057,93.1086 248.022,93.1086 248.022,248.629 "/>
<polyline clip-path="url(#clip560)" style="stroke:#009af9; stroke-linecap:round; stroke-linejoin:round; stroke-width:4; stroke-opacity:1; fill:none" points="272.215,144.949 417.369,144.949 "/>
<path clip-path="url(#clip560)" d="M441.561 127.669 L446.237 127.669 L446.237 141.835 L463.228 141.835 L463.228 127.669 L467.903 127.669 L467.903 162.229 L463.228 162.229 L463.228 145.77 L446.237 145.77 L446.237 162.229 L441.561 162.229 L441.561 127.669 Z" fill="#000000" fill-rule="nonzero" fill-opacity="1" /><path clip-path="url(#clip560)" d="M477.024 136.303 L481.283 136.303 L481.283 162.229 L477.024 162.229 L477.024 136.303 M477.024 126.21 L481.283 126.21 L481.283 131.604 L477.024 131.604 L477.024 126.21 Z" fill="#000000" fill-rule="nonzero" fill-opacity="1" /><path clip-path="url(#clip560)" d="M506.723 137.067 L506.723 141.094 Q504.917 140.169 502.973 139.706 Q501.028 139.243 498.945 139.243 Q495.774 139.243 494.176 140.215 Q492.602 141.187 492.602 143.131 Q492.602 144.613 493.737 145.469 Q494.871 146.303 498.297 147.067 L499.755 147.391 Q504.292 148.363 506.19 150.145 Q508.112 151.905 508.112 155.076 Q508.112 158.687 505.241 160.793 Q502.394 162.9 497.394 162.9 Q495.311 162.9 493.042 162.483 Q490.797 162.09 488.297 161.28 L488.297 156.881 Q490.658 158.108 492.95 158.733 Q495.241 159.335 497.487 159.335 Q500.496 159.335 502.116 158.317 Q503.737 157.275 503.737 155.4 Q503.737 153.664 502.556 152.738 Q501.399 151.812 497.44 150.956 L495.959 150.608 Q492.001 149.775 490.241 148.062 Q488.482 146.326 488.482 143.317 Q488.482 139.659 491.075 137.669 Q493.667 135.678 498.436 135.678 Q500.797 135.678 502.88 136.025 Q504.963 136.372 506.723 137.067 Z" fill="#000000" fill-rule="nonzero" fill-opacity="1" /><path clip-path="url(#clip560)" d="M519.107 128.942 L519.107 136.303 L527.88 136.303 L527.88 139.613 L519.107 139.613 L519.107 153.687 Q519.107 156.858 519.963 157.761 Q520.843 158.664 523.505 158.664 L527.88 158.664 L527.88 162.229 L523.505 162.229 Q518.574 162.229 516.699 160.4 Q514.824 158.548 514.824 153.687 L514.824 139.613 L511.699 139.613 L511.699 136.303 L514.824 136.303 L514.824 128.942 L519.107 128.942 Z" fill="#000000" fill-rule="nonzero" fill-opacity="1" /><path clip-path="url(#clip560)" d="M543.528 139.289 Q540.102 139.289 538.111 141.974 Q536.121 144.636 536.121 149.289 Q536.121 153.942 538.088 156.627 Q540.079 159.289 543.528 159.289 Q546.931 159.289 548.921 156.604 Q550.912 153.918 550.912 149.289 Q550.912 144.682 548.921 141.997 Q546.931 139.289 543.528 139.289 M543.528 135.678 Q549.084 135.678 552.255 139.289 Q555.426 142.9 555.426 149.289 Q555.426 155.655 552.255 159.289 Q549.084 162.9 543.528 162.9 Q537.949 162.9 534.778 159.289 Q531.63 155.655 531.63 149.289 Q531.63 142.9 534.778 139.289 Q537.949 135.678 543.528 135.678 Z" fill="#000000" fill-rule="nonzero" fill-opacity="1" /><path clip-path="url(#clip560)" d="M579.546 148.965 Q579.546 144.335 577.625 141.789 Q575.727 139.243 572.278 139.243 Q568.852 139.243 566.931 141.789 Q565.033 144.335 565.033 148.965 Q565.033 153.571 566.931 156.118 Q568.852 158.664 572.278 158.664 Q575.727 158.664 577.625 156.118 Q579.546 153.571 579.546 148.965 M583.806 159.011 Q583.806 165.631 580.866 168.849 Q577.926 172.09 571.861 172.09 Q569.616 172.09 567.625 171.742 Q565.634 171.418 563.759 170.724 L563.759 166.58 Q565.634 167.599 567.463 168.085 Q569.292 168.571 571.19 168.571 Q575.38 168.571 577.463 166.372 Q579.546 164.196 579.546 159.775 L579.546 157.668 Q578.227 159.96 576.167 161.094 Q574.107 162.229 571.236 162.229 Q566.468 162.229 563.551 158.594 Q560.634 154.96 560.634 148.965 Q560.634 142.946 563.551 139.312 Q566.468 135.678 571.236 135.678 Q574.107 135.678 576.167 136.812 Q578.227 137.946 579.546 140.238 L579.546 136.303 L583.806 136.303 L583.806 159.011 Z" fill="#000000" fill-rule="nonzero" fill-opacity="1" /><path clip-path="url(#clip560)" d="M607.602 140.284 Q606.884 139.868 606.028 139.682 Q605.194 139.474 604.176 139.474 Q600.565 139.474 598.62 141.835 Q596.699 144.173 596.699 148.571 L596.699 162.229 L592.417 162.229 L592.417 136.303 L596.699 136.303 L596.699 140.331 Q598.042 137.969 600.194 136.835 Q602.347 135.678 605.426 135.678 Q605.866 135.678 606.398 135.747 Q606.93 135.794 607.579 135.909 L607.602 140.284 Z" fill="#000000" fill-rule="nonzero" fill-opacity="1" /><path clip-path="url(#clip560)" d="M623.852 149.196 Q618.69 149.196 616.699 150.377 Q614.708 151.557 614.708 154.405 Q614.708 156.673 616.19 158.016 Q617.694 159.335 620.264 159.335 Q623.805 159.335 625.935 156.835 Q628.088 154.312 628.088 150.145 L628.088 149.196 L623.852 149.196 M632.347 147.437 L632.347 162.229 L628.088 162.229 L628.088 158.293 Q626.629 160.655 624.453 161.789 Q622.278 162.9 619.129 162.9 Q615.148 162.9 612.787 160.678 Q610.449 158.432 610.449 154.682 Q610.449 150.307 613.366 148.085 Q616.305 145.863 622.116 145.863 L628.088 145.863 L628.088 145.446 Q628.088 142.507 626.143 140.909 Q624.222 139.289 620.727 139.289 Q618.504 139.289 616.398 139.821 Q614.292 140.354 612.347 141.419 L612.347 137.483 Q614.685 136.581 616.884 136.141 Q619.083 135.678 621.166 135.678 Q626.791 135.678 629.569 138.594 Q632.347 141.511 632.347 147.437 Z" fill="#000000" fill-rule="nonzero" fill-opacity="1" /><path clip-path="url(#clip560)" d="M661.305 141.28 Q662.902 138.409 665.125 137.044 Q667.347 135.678 670.356 135.678 Q674.407 135.678 676.606 138.525 Q678.805 141.349 678.805 146.581 L678.805 162.229 L674.523 162.229 L674.523 146.719 Q674.523 142.993 673.203 141.187 Q671.884 139.382 669.175 139.382 Q665.865 139.382 663.944 141.581 Q662.023 143.78 662.023 147.576 L662.023 162.229 L657.74 162.229 L657.74 146.719 Q657.74 142.969 656.421 141.187 Q655.101 139.382 652.347 139.382 Q649.083 139.382 647.162 141.604 Q645.24 143.803 645.24 147.576 L645.24 162.229 L640.958 162.229 L640.958 136.303 L645.24 136.303 L645.24 140.331 Q646.699 137.946 648.736 136.812 Q650.773 135.678 653.574 135.678 Q656.398 135.678 658.365 137.113 Q660.356 138.548 661.305 141.28 Z" fill="#000000" fill-rule="nonzero" fill-opacity="1" /><polyline clip-path="url(#clip560)" style="stroke:#e26f46; stroke-linecap:round; stroke-linejoin:round; stroke-width:4; stroke-opacity:1; fill:none" points="272.215,196.789 417.369,196.789 "/>
<path clip-path="url(#clip560)" d="M446.237 183.351 L446.237 210.226 L451.885 210.226 Q459.038 210.226 462.348 206.985 Q465.681 203.745 465.681 196.754 Q465.681 189.809 462.348 186.592 Q459.038 183.351 451.885 183.351 L446.237 183.351 M441.561 179.509 L451.167 179.509 Q461.214 179.509 465.913 183.698 Q470.612 187.865 470.612 196.754 Q470.612 205.689 465.89 209.879 Q461.167 214.069 451.167 214.069 L441.561 214.069 L441.561 179.509 Z" fill="#000000" fill-rule="nonzero" fill-opacity="1" /><path clip-path="url(#clip560)" d="M477.88 188.143 L482.139 188.143 L482.139 214.069 L477.88 214.069 L477.88 188.143 M477.88 178.05 L482.139 178.05 L482.139 183.444 L477.88 183.444 L477.88 178.05 Z" fill="#000000" fill-rule="nonzero" fill-opacity="1" /><path clip-path="url(#clip560)" d="M507.579 188.907 L507.579 192.934 Q505.774 192.009 503.829 191.546 Q501.885 191.083 499.801 191.083 Q496.63 191.083 495.033 192.055 Q493.459 193.027 493.459 194.971 Q493.459 196.453 494.593 197.309 Q495.727 198.143 499.153 198.907 L500.612 199.231 Q505.149 200.203 507.047 201.985 Q508.968 203.745 508.968 206.916 Q508.968 210.527 506.098 212.633 Q503.25 214.74 498.25 214.74 Q496.167 214.74 493.899 214.323 Q491.653 213.93 489.153 213.12 L489.153 208.721 Q491.514 209.948 493.806 210.573 Q496.098 211.175 498.343 211.175 Q501.352 211.175 502.973 210.157 Q504.593 209.115 504.593 207.24 Q504.593 205.504 503.412 204.578 Q502.255 203.652 498.297 202.796 L496.815 202.448 Q492.857 201.615 491.098 199.902 Q489.338 198.166 489.338 195.157 Q489.338 191.499 491.931 189.509 Q494.524 187.518 499.292 187.518 Q501.653 187.518 503.737 187.865 Q505.82 188.212 507.579 188.907 Z" fill="#000000" fill-rule="nonzero" fill-opacity="1" /><path clip-path="url(#clip560)" d="M519.963 180.782 L519.963 188.143 L528.736 188.143 L528.736 191.453 L519.963 191.453 L519.963 205.527 Q519.963 208.698 520.82 209.601 Q521.699 210.504 524.361 210.504 L528.736 210.504 L528.736 214.069 L524.361 214.069 Q519.431 214.069 517.556 212.24 Q515.681 210.388 515.681 205.527 L515.681 191.453 L512.556 191.453 L512.556 188.143 L515.681 188.143 L515.681 180.782 L519.963 180.782 Z" fill="#000000" fill-rule="nonzero" fill-opacity="1" /><path clip-path="url(#clip560)" d="M549.361 192.124 Q548.644 191.708 547.787 191.522 Q546.954 191.314 545.935 191.314 Q542.324 191.314 540.38 193.675 Q538.459 196.013 538.459 200.411 L538.459 214.069 L534.176 214.069 L534.176 188.143 L538.459 188.143 L538.459 192.171 Q539.801 189.809 541.954 188.675 Q544.107 187.518 547.185 187.518 Q547.625 187.518 548.158 187.587 Q548.69 187.634 549.338 187.749 L549.361 192.124 Z" fill="#000000" fill-rule="nonzero" fill-opacity="1" /><path clip-path="url(#clip560)" d="M553.829 188.143 L558.088 188.143 L558.088 214.069 L553.829 214.069 L553.829 188.143 M553.829 178.05 L558.088 178.05 L558.088 183.444 L553.829 183.444 L553.829 178.05 Z" fill="#000000" fill-rule="nonzero" fill-opacity="1" /><path clip-path="url(#clip560)" d="M585.611 201.129 Q585.611 196.43 583.667 193.768 Q581.745 191.083 578.366 191.083 Q574.986 191.083 573.042 193.768 Q571.12 196.43 571.12 201.129 Q571.12 205.828 573.042 208.513 Q574.986 211.175 578.366 211.175 Q581.745 211.175 583.667 208.513 Q585.611 205.828 585.611 201.129 M571.12 192.078 Q572.463 189.763 574.5 188.652 Q576.56 187.518 579.407 187.518 Q584.13 187.518 587.069 191.268 Q590.032 195.018 590.032 201.129 Q590.032 207.24 587.069 210.99 Q584.13 214.74 579.407 214.74 Q576.56 214.74 574.5 213.629 Q572.463 212.495 571.12 210.18 L571.12 214.069 L566.838 214.069 L566.838 178.05 L571.12 178.05 L571.12 192.078 Z" fill="#000000" fill-rule="nonzero" fill-opacity="1" /><path clip-path="url(#clip560)" d="M596.653 203.837 L596.653 188.143 L600.912 188.143 L600.912 203.675 Q600.912 207.356 602.347 209.208 Q603.782 211.036 606.653 211.036 Q610.102 211.036 612.092 208.837 Q614.106 206.638 614.106 202.842 L614.106 188.143 L618.366 188.143 L618.366 214.069 L614.106 214.069 L614.106 210.087 Q612.555 212.448 610.495 213.606 Q608.458 214.74 605.75 214.74 Q601.282 214.74 598.968 211.962 Q596.653 209.184 596.653 203.837 M607.37 187.518 L607.37 187.518 Z" fill="#000000" fill-rule="nonzero" fill-opacity="1" /><path clip-path="url(#clip560)" d="M631.352 180.782 L631.352 188.143 L640.125 188.143 L640.125 191.453 L631.352 191.453 L631.352 205.527 Q631.352 208.698 632.208 209.601 Q633.088 210.504 635.75 210.504 L640.125 210.504 L640.125 214.069 L635.75 214.069 Q630.819 214.069 628.944 212.24 Q627.069 210.388 627.069 205.527 L627.069 191.453 L623.944 191.453 L623.944 188.143 L627.069 188.143 L627.069 180.782 L631.352 180.782 Z" fill="#000000" fill-rule="nonzero" fill-opacity="1" /><path clip-path="url(#clip560)" d="M645.727 188.143 L649.986 188.143 L649.986 214.069 L645.727 214.069 L645.727 188.143 M645.727 178.05 L649.986 178.05 L649.986 183.444 L645.727 183.444 L645.727 178.05 Z" fill="#000000" fill-rule="nonzero" fill-opacity="1" /><path clip-path="url(#clip560)" d="M668.944 191.129 Q665.518 191.129 663.527 193.814 Q661.537 196.476 661.537 201.129 Q661.537 205.782 663.504 208.467 Q665.495 211.129 668.944 211.129 Q672.347 211.129 674.337 208.444 Q676.328 205.758 676.328 201.129 Q676.328 196.522 674.337 193.837 Q672.347 191.129 668.944 191.129 M668.944 187.518 Q674.5 187.518 677.671 191.129 Q680.842 194.74 680.842 201.129 Q680.842 207.495 677.671 211.129 Q674.5 214.74 668.944 214.74 Q663.365 214.74 660.194 211.129 Q657.046 207.495 657.046 201.129 Q657.046 194.74 660.194 191.129 Q663.365 187.518 668.944 187.518 Z" fill="#000000" fill-rule="nonzero" fill-opacity="1" /><path clip-path="url(#clip560)" d="M709.453 198.421 L709.453 214.069 L705.194 214.069 L705.194 198.559 Q705.194 194.879 703.759 193.05 Q702.323 191.222 699.453 191.222 Q696.004 191.222 694.013 193.421 Q692.023 195.62 692.023 199.416 L692.023 214.069 L687.74 214.069 L687.74 188.143 L692.023 188.143 L692.023 192.171 Q693.55 189.833 695.611 188.675 Q697.694 187.518 700.402 187.518 Q704.87 187.518 707.161 190.296 Q709.453 193.05 709.453 198.421 Z" fill="#000000" fill-rule="nonzero" fill-opacity="1" /><path clip-path="url(#clip560)" d="M746.143 178.05 L746.143 181.592 L742.069 181.592 Q739.777 181.592 738.874 182.518 Q737.995 183.444 737.995 185.851 L737.995 188.143 L745.008 188.143 L745.008 191.453 L737.995 191.453 L737.995 214.069 L733.712 214.069 L733.712 191.453 L729.638 191.453 L729.638 188.143 L733.712 188.143 L733.712 186.337 Q733.712 182.009 735.726 180.041 Q737.74 178.05 742.115 178.05 L746.143 178.05 Z" fill="#000000" fill-rule="nonzero" fill-opacity="1" /><path clip-path="url(#clip560)" d="M749.707 188.143 L753.967 188.143 L753.967 214.069 L749.707 214.069 L749.707 188.143 M749.707 178.05 L753.967 178.05 L753.967 183.444 L749.707 183.444 L749.707 178.05 Z" fill="#000000" fill-rule="nonzero" fill-opacity="1" /><path clip-path="url(#clip560)" d="M767.092 180.782 L767.092 188.143 L775.865 188.143 L775.865 191.453 L767.092 191.453 L767.092 205.527 Q767.092 208.698 767.948 209.601 Q768.828 210.504 771.49 210.504 L775.865 210.504 L775.865 214.069 L771.49 214.069 Q766.559 214.069 764.684 212.24 Q762.809 210.388 762.809 205.527 L762.809 191.453 L759.684 191.453 L759.684 188.143 L762.809 188.143 L762.809 180.782 L767.092 180.782 Z" fill="#000000" fill-rule="nonzero" fill-opacity="1" /></svg>
