<?xml version="1.0" encoding="utf-8"?>
<svg xmlns="http://www.w3.org/2000/svg" xmlns:xlink="http://www.w3.org/1999/xlink" width="600" height="400" viewBox="0 0 2400 1600">
<defs>
  <clipPath id="clip520">
    <rect x="0" y="0" width="2400" height="1600"/>
  </clipPath>
</defs>
<path clip-path="url(#clip520)" d="M0 1600 L2400 1600 L2400 8.88178e-14 L0 8.88178e-14  Z" fill="#ffffff" fill-rule="evenodd" fill-opacity="1"/>
<defs>
  <clipPath id="clip521">
    <rect x="480" y="0" width="1681" height="1600"/>
  </clipPath>
</defs>
<path clip-path="url(#clip520)" d="M249.843 1552.76 L2352.76 1552.76 L2352.76 47.2441 L249.843 47.2441  Z" fill="#ffffff" fill-rule="evenodd" fill-opacity="1"/>
<defs>
  <clipPath id="clip522">
    <rect x="249" y="47" width="2104" height="1507"/>
  </clipPath>
</defs>
<polyline clip-path="url(#clip522)" style="stroke:#000000; stroke-linecap:round; stroke-linejoin:round; stroke-width:2; stroke-opacity:0.1; fill:none" points="249.843,1402.08 2352.76,1402.08 "/>
<polyline clip-path="url(#clip522)" style="stroke:#000000; stroke-linecap:round; stroke-linejoin:round; stroke-width:2; stroke-opacity:0.1; fill:none" points="249.843,1093.32 2352.76,1093.32 "/>
<polyline clip-path="url(#clip522)" style="stroke:#000000; stroke-linecap:round; stroke-linejoin:round; stroke-width:2; stroke-opacity:0.1; fill:none" points="249.843,784.562 2352.76,784.562 "/>
<polyline clip-path="url(#clip522)" style="stroke:#000000; stroke-linecap:round; stroke-linejoin:round; stroke-width:2; stroke-opacity:0.1; fill:none" points="249.843,475.802 2352.76,475.802 "/>
<polyline clip-path="url(#clip522)" style="stroke:#000000; stroke-linecap:round; stroke-linejoin:round; stroke-width:2; stroke-opacity:0.1; fill:none" points="249.843,167.043 2352.76,167.043 "/>
<polyline clip-path="url(#clip522)" style="stroke:#000000; stroke-linecap:round; stroke-linejoin:round; stroke-width:2; stroke-opacity:0.1; fill:none" points="249.843,1402.08 2352.76,1402.08 "/>
<polyline clip-path="url(#clip522)" style="stroke:#000000; stroke-linecap:round; stroke-linejoin:round; stroke-width:2; stroke-opacity:0.1; fill:none" points="249.843,1093.32 2352.76,1093.32 "/>
<polyline clip-path="url(#clip522)" style="stroke:#000000; stroke-linecap:round; stroke-linejoin:round; stroke-width:2; stroke-opacity:0.1; fill:none" points="249.843,784.562 2352.76,784.562 "/>
<polyline clip-path="url(#clip522)" style="stroke:#000000; stroke-linecap:round; stroke-linejoin:round; stroke-width:2; stroke-opacity:0.1; fill:none" points="249.843,475.802 2352.76,475.802 "/>
<polyline clip-path="url(#clip522)" style="stroke:#000000; stroke-linecap:round; stroke-linejoin:round; stroke-width:2; stroke-opacity:0.1; fill:none" points="249.843,167.043 2352.76,167.043 "/>
<polyline clip-path="url(#clip520)" style="stroke:#000000; stroke-linecap:round; stroke-linejoin:round; stroke-width:4; stroke-opacity:1; fill:none" points="249.843,1552.76 2352.76,1552.76 "/>
<polyline clip-path="url(#clip520)" style="stroke:#000000; stroke-linecap:round; stroke-linejoin:round; stroke-width:4; stroke-opacity:1; fill:none" points="249.843,47.2441 2352.76,47.2441 "/>
<polyline clip-path="url(#clip520)" style="stroke:#000000; stroke-linecap:round; stroke-linejoin:round; stroke-width:4; stroke-opacity:1; fill:none" points="249.843,1552.76 249.843,47.2441 "/>
<polyline clip-path="url(#clip520)" style="stroke:#000000; stroke-linecap:round; stroke-linejoin:round; stroke-width:4; stroke-opacity:1; fill:none" points="2352.76,1552.76 2352.76,47.2441 "/>
<polyline clip-path="url(#clip520)" style="stroke:#000000; stroke-linecap:round; stroke-linejoin:round; stroke-width:4; stroke-opacity:1; fill:none" points="249.843,1402.08 268.741,1402.08 "/>
<polyline clip-path="url(#clip520)" style="stroke:#000000; stroke-linecap:round; stroke-linejoin:round; stroke-width:4; stroke-opacity:1; fill:none" points="249.843,1093.32 268.741,1093.32 "/>
<polyline clip-path="url(#clip520)" style="stroke:#000000; stroke-linecap:round; stroke-linejoin:round; stroke-width:4; stroke-opacity:1; fill:none" points="249.843,784.562 268.741,784.562 "/>
<polyline clip-path="url(#clip520)" style="stroke:#000000; stroke-linecap:round; stroke-linejoin:round; stroke-width:4; stroke-opacity:1; fill:none" points="249.843,475.802 268.741,475.802 "/>
<polyline clip-path="url(#clip520)" style="stroke:#000000; stroke-linecap:round; stroke-linejoin:round; stroke-width:4; stroke-opacity:1; fill:none" points="249.843,167.043 268.741,167.043 "/>
<polyline clip-path="url(#clip520)" style="stroke:#000000; stroke-linecap:round; stroke-linejoin:round; stroke-width:4; stroke-opacity:1; fill:none" points="2352.76,1402.08 2333.86,1402.08 "/>
<polyline clip-path="url(#clip520)" style="stroke:#000000; stroke-linecap:round; stroke-linejoin:round; stroke-width:4; stroke-opacity:1; fill:none" points="2352.76,1093.32 2333.86,1093.32 "/>
<polyline clip-path="url(#clip520)" style="stroke:#000000; stroke-linecap:round; stroke-linejoin:round; stroke-width:4; stroke-opacity:1; fill:none" points="2352.76,784.562 2333.86,784.562 "/>
<polyline clip-path="url(#clip520)" style="stroke:#000000; stroke-linecap:round; stroke-linejoin:round; stroke-width:4; stroke-opacity:1; fill:none" points="2352.76,475.802 2333.86,475.802 "/>
<polyline clip-path="url(#clip520)" style="stroke:#000000; stroke-linecap:round; stroke-linejoin:round; stroke-width:4; stroke-opacity:1; fill:none" points="2352.76,167.043 2333.86,167.043 "/>
<path clip-path="url(#clip520)" d="M127.177 1400.22 Q124.029 1400.22 122.177 1402.37 Q120.348 1404.52 120.348 1408.27 Q120.348 1412 122.177 1414.18 Q124.029 1416.33 127.177 1416.33 Q130.325 1416.33 132.154 1414.18 Q134.005 1412 134.005 1408.27 Q134.005 1404.52 132.154 1402.37 Q130.325 1400.22 127.177 1400.22 M136.459 1385.57 L136.459 1389.82 Q134.7 1388.99 132.894 1388.55 Q131.112 1388.11 129.353 1388.11 Q124.723 1388.11 122.269 1391.24 Q119.839 1394.36 119.492 1400.68 Q120.857 1398.67 122.918 1397.6 Q124.978 1396.51 127.455 1396.51 Q132.663 1396.51 135.672 1399.69 Q138.704 1402.83 138.704 1408.27 Q138.704 1413.6 135.556 1416.81 Q132.408 1420.03 127.177 1420.03 Q121.181 1420.03 118.01 1415.45 Q114.839 1410.84 114.839 1402.12 Q114.839 1393.92 118.728 1389.06 Q122.617 1384.18 129.167 1384.18 Q130.927 1384.18 132.709 1384.52 Q134.515 1384.87 136.459 1385.57 Z" fill="#000000" fill-rule="nonzero" fill-opacity="1" /><path clip-path="url(#clip520)" d="M146.806 1384.8 L165.163 1384.8 L165.163 1388.74 L151.089 1388.74 L151.089 1397.21 Q152.107 1396.86 153.126 1396.7 Q154.144 1396.51 155.163 1396.51 Q160.95 1396.51 164.329 1399.69 Q167.709 1402.86 167.709 1408.27 Q167.709 1413.85 164.237 1416.95 Q160.765 1420.03 154.445 1420.03 Q152.269 1420.03 150.001 1419.66 Q147.755 1419.29 145.348 1418.55 L145.348 1413.85 Q147.431 1414.99 149.653 1415.54 Q151.876 1416.1 154.353 1416.1 Q158.357 1416.1 160.695 1413.99 Q163.033 1411.88 163.033 1408.27 Q163.033 1404.66 160.695 1402.56 Q158.357 1400.45 154.353 1400.45 Q152.478 1400.45 150.603 1400.87 Q148.751 1401.28 146.806 1402.16 L146.806 1384.8 Z" fill="#000000" fill-rule="nonzero" fill-opacity="1" /><path clip-path="url(#clip520)" d="M176.922 1413.48 L181.806 1413.48 L181.806 1419.36 L176.922 1419.36 L176.922 1413.48 Z" fill="#000000" fill-rule="nonzero" fill-opacity="1" /><path clip-path="url(#clip520)" d="M201.991 1402.95 Q198.658 1402.95 196.737 1404.73 Q194.838 1406.51 194.838 1409.64 Q194.838 1412.76 196.737 1414.55 Q198.658 1416.33 201.991 1416.33 Q205.324 1416.33 207.246 1414.55 Q209.167 1412.74 209.167 1409.64 Q209.167 1406.51 207.246 1404.73 Q205.348 1402.95 201.991 1402.95 M197.315 1400.96 Q194.306 1400.22 192.616 1398.16 Q190.95 1396.1 190.95 1393.13 Q190.95 1388.99 193.889 1386.58 Q196.852 1384.18 201.991 1384.18 Q207.153 1384.18 210.093 1386.58 Q213.033 1388.99 213.033 1393.13 Q213.033 1396.1 211.343 1398.16 Q209.676 1400.22 206.69 1400.96 Q210.07 1401.75 211.945 1404.04 Q213.843 1406.33 213.843 1409.64 Q213.843 1414.66 210.764 1417.35 Q207.709 1420.03 201.991 1420.03 Q196.274 1420.03 193.195 1417.35 Q190.139 1414.66 190.139 1409.64 Q190.139 1406.33 192.038 1404.04 Q193.936 1401.75 197.315 1400.96 M195.602 1393.57 Q195.602 1396.26 197.269 1397.76 Q198.959 1399.27 201.991 1399.27 Q205 1399.27 206.69 1397.76 Q208.403 1396.26 208.403 1393.57 Q208.403 1390.89 206.69 1389.38 Q205 1387.88 201.991 1387.88 Q198.959 1387.88 197.269 1389.38 Q195.602 1390.89 195.602 1393.57 Z" fill="#000000" fill-rule="nonzero" fill-opacity="1" /><path clip-path="url(#clip520)" d="M127.084 1091.46 Q123.936 1091.46 122.084 1093.61 Q120.255 1095.76 120.255 1099.51 Q120.255 1103.24 122.084 1105.42 Q123.936 1107.57 127.084 1107.57 Q130.232 1107.57 132.061 1105.42 Q133.913 1103.24 133.913 1099.51 Q133.913 1095.76 132.061 1093.61 Q130.232 1091.46 127.084 1091.46 M136.367 1076.81 L136.367 1081.06 Q134.607 1080.23 132.802 1079.79 Q131.019 1079.35 129.26 1079.35 Q124.63 1079.35 122.177 1082.48 Q119.746 1085.6 119.399 1091.92 Q120.765 1089.91 122.825 1088.84 Q124.885 1087.75 127.362 1087.75 Q132.57 1087.75 135.579 1090.93 Q138.612 1094.07 138.612 1099.51 Q138.612 1104.84 135.464 1108.06 Q132.316 1111.27 127.084 1111.27 Q121.089 1111.27 117.918 1106.69 Q114.746 1102.08 114.746 1093.36 Q114.746 1085.16 118.635 1080.3 Q122.524 1075.42 129.075 1075.42 Q130.834 1075.42 132.617 1075.76 Q134.422 1076.11 136.367 1076.81 Z" fill="#000000" fill-rule="nonzero" fill-opacity="1" /><path clip-path="url(#clip520)" d="M157.246 1091.46 Q154.098 1091.46 152.246 1093.61 Q150.417 1095.76 150.417 1099.51 Q150.417 1103.24 152.246 1105.42 Q154.098 1107.57 157.246 1107.57 Q160.394 1107.57 162.223 1105.42 Q164.075 1103.24 164.075 1099.51 Q164.075 1095.76 162.223 1093.61 Q160.394 1091.46 157.246 1091.46 M166.528 1076.81 L166.528 1081.06 Q164.769 1080.23 162.964 1079.79 Q161.181 1079.35 159.422 1079.35 Q154.792 1079.35 152.339 1082.48 Q149.908 1085.6 149.561 1091.92 Q150.927 1089.91 152.987 1088.84 Q155.047 1087.75 157.524 1087.75 Q162.732 1087.75 165.741 1090.93 Q168.774 1094.07 168.774 1099.51 Q168.774 1104.84 165.626 1108.06 Q162.477 1111.27 157.246 1111.27 Q151.251 1111.27 148.079 1106.69 Q144.908 1102.08 144.908 1093.36 Q144.908 1085.16 148.797 1080.3 Q152.686 1075.42 159.237 1075.42 Q160.996 1075.42 162.778 1075.76 Q164.584 1076.11 166.528 1076.81 Z" fill="#000000" fill-rule="nonzero" fill-opacity="1" /><path clip-path="url(#clip520)" d="M176.829 1104.72 L181.713 1104.72 L181.713 1110.6 L176.829 1110.6 L176.829 1104.72 Z" fill="#000000" fill-rule="nonzero" fill-opacity="1" /><path clip-path="url(#clip520)" d="M201.899 1079.12 Q198.287 1079.12 196.459 1082.69 Q194.653 1086.23 194.653 1093.36 Q194.653 1100.46 196.459 1104.03 Q198.287 1107.57 201.899 1107.57 Q205.533 1107.57 207.338 1104.03 Q209.167 1100.46 209.167 1093.36 Q209.167 1086.23 207.338 1082.69 Q205.533 1079.12 201.899 1079.12 M201.899 1075.42 Q207.709 1075.42 210.764 1080.02 Q213.843 1084.61 213.843 1093.36 Q213.843 1102.08 210.764 1106.69 Q207.709 1111.27 201.899 1111.27 Q196.088 1111.27 193.01 1106.69 Q189.954 1102.08 189.954 1093.36 Q189.954 1084.61 193.01 1080.02 Q196.088 1075.42 201.899 1075.42 Z" fill="#000000" fill-rule="nonzero" fill-opacity="1" /><path clip-path="url(#clip520)" d="M128.681 782.699 Q125.533 782.699 123.681 784.851 Q121.853 787.004 121.853 790.754 Q121.853 794.481 123.681 796.657 Q125.533 798.81 128.681 798.81 Q131.83 798.81 133.658 796.657 Q135.51 794.481 135.51 790.754 Q135.51 787.004 133.658 784.851 Q131.83 782.699 128.681 782.699 M137.964 768.046 L137.964 772.305 Q136.204 771.472 134.399 771.032 Q132.617 770.592 130.857 770.592 Q126.228 770.592 123.774 773.717 Q121.343 776.842 120.996 783.162 Q122.362 781.148 124.422 780.083 Q126.482 778.995 128.959 778.995 Q134.167 778.995 137.177 782.166 Q140.209 785.314 140.209 790.754 Q140.209 796.078 137.061 799.296 Q133.913 802.513 128.681 802.513 Q122.686 802.513 119.515 797.93 Q116.343 793.324 116.343 784.597 Q116.343 776.402 120.232 771.541 Q124.121 766.657 130.672 766.657 Q132.431 766.657 134.214 767.004 Q136.019 767.351 137.964 768.046 Z" fill="#000000" fill-rule="nonzero" fill-opacity="1" /><path clip-path="url(#clip520)" d="M158.843 782.699 Q155.695 782.699 153.843 784.851 Q152.015 787.004 152.015 790.754 Q152.015 794.481 153.843 796.657 Q155.695 798.81 158.843 798.81 Q161.991 798.81 163.82 796.657 Q165.672 794.481 165.672 790.754 Q165.672 787.004 163.82 784.851 Q161.991 782.699 158.843 782.699 M168.126 768.046 L168.126 772.305 Q166.366 771.472 164.561 771.032 Q162.778 770.592 161.019 770.592 Q156.39 770.592 153.936 773.717 Q151.505 776.842 151.158 783.162 Q152.524 781.148 154.584 780.083 Q156.644 778.995 159.121 778.995 Q164.329 778.995 167.339 782.166 Q170.371 785.314 170.371 790.754 Q170.371 796.078 167.223 799.296 Q164.075 802.513 158.843 802.513 Q152.848 802.513 149.677 797.93 Q146.505 793.324 146.505 784.597 Q146.505 776.402 150.394 771.541 Q154.283 766.657 160.834 766.657 Q162.593 766.657 164.376 767.004 Q166.181 767.351 168.126 768.046 Z" fill="#000000" fill-rule="nonzero" fill-opacity="1" /><path clip-path="url(#clip520)" d="M178.426 795.962 L183.311 795.962 L183.311 801.842 L178.426 801.842 L178.426 795.962 Z" fill="#000000" fill-rule="nonzero" fill-opacity="1" /><path clip-path="url(#clip520)" d="M197.524 797.907 L213.843 797.907 L213.843 801.842 L191.899 801.842 L191.899 797.907 Q194.561 795.152 199.144 790.523 Q203.75 785.87 204.931 784.527 Q207.176 782.004 208.056 780.268 Q208.959 778.509 208.959 776.819 Q208.959 774.064 207.014 772.328 Q205.093 770.592 201.991 770.592 Q199.792 770.592 197.338 771.356 Q194.908 772.12 192.13 773.671 L192.13 768.949 Q194.954 767.814 197.408 767.236 Q199.862 766.657 201.899 766.657 Q207.269 766.657 210.463 769.342 Q213.658 772.027 213.658 776.518 Q213.658 778.648 212.848 780.569 Q212.061 782.467 209.954 785.06 Q209.375 785.731 206.274 788.949 Q203.172 792.143 197.524 797.907 Z" fill="#000000" fill-rule="nonzero" fill-opacity="1" /><path clip-path="url(#clip520)" d="M126.598 473.939 Q123.45 473.939 121.598 476.092 Q119.769 478.245 119.769 481.995 Q119.769 485.721 121.598 487.897 Q123.45 490.05 126.598 490.05 Q129.746 490.05 131.575 487.897 Q133.427 485.721 133.427 481.995 Q133.427 478.245 131.575 476.092 Q129.746 473.939 126.598 473.939 M135.88 459.286 L135.88 463.546 Q134.121 462.712 132.316 462.272 Q130.533 461.833 128.774 461.833 Q124.144 461.833 121.691 464.958 Q119.26 468.083 118.913 474.402 Q120.279 472.388 122.339 471.323 Q124.399 470.235 126.876 470.235 Q132.084 470.235 135.093 473.407 Q138.126 476.555 138.126 481.995 Q138.126 487.319 134.978 490.536 Q131.83 493.754 126.598 493.754 Q120.603 493.754 117.431 489.17 Q114.26 484.564 114.26 475.837 Q114.26 467.643 118.149 462.782 Q122.038 457.897 128.589 457.897 Q130.348 457.897 132.13 458.245 Q133.936 458.592 135.88 459.286 Z" fill="#000000" fill-rule="nonzero" fill-opacity="1" /><path clip-path="url(#clip520)" d="M156.76 473.939 Q153.612 473.939 151.76 476.092 Q149.931 478.245 149.931 481.995 Q149.931 485.721 151.76 487.897 Q153.612 490.05 156.76 490.05 Q159.908 490.05 161.737 487.897 Q163.589 485.721 163.589 481.995 Q163.589 478.245 161.737 476.092 Q159.908 473.939 156.76 473.939 M166.042 459.286 L166.042 463.546 Q164.283 462.712 162.477 462.272 Q160.695 461.833 158.936 461.833 Q154.306 461.833 151.853 464.958 Q149.422 468.083 149.075 474.402 Q150.441 472.388 152.501 471.323 Q154.561 470.235 157.038 470.235 Q162.246 470.235 165.255 473.407 Q168.288 476.555 168.288 481.995 Q168.288 487.319 165.14 490.536 Q161.991 493.754 156.76 493.754 Q150.765 493.754 147.593 489.17 Q144.422 484.564 144.422 475.837 Q144.422 467.643 148.311 462.782 Q152.2 457.897 158.751 457.897 Q160.51 457.897 162.292 458.245 Q164.098 458.592 166.042 459.286 Z" fill="#000000" fill-rule="nonzero" fill-opacity="1" /><path clip-path="url(#clip520)" d="M176.343 487.203 L181.227 487.203 L181.227 493.082 L176.343 493.082 L176.343 487.203 Z" fill="#000000" fill-rule="nonzero" fill-opacity="1" /><path clip-path="url(#clip520)" d="M204.26 462.596 L192.454 481.045 L204.26 481.045 L204.26 462.596 M203.033 458.522 L208.912 458.522 L208.912 481.045 L213.843 481.045 L213.843 484.934 L208.912 484.934 L208.912 493.082 L204.26 493.082 L204.26 484.934 L188.658 484.934 L188.658 480.42 L203.033 458.522 Z" fill="#000000" fill-rule="nonzero" fill-opacity="1" /><path clip-path="url(#clip520)" d="M126.922 165.179 Q123.774 165.179 121.922 167.332 Q120.093 169.485 120.093 173.235 Q120.093 176.962 121.922 179.138 Q123.774 181.29 126.922 181.29 Q130.07 181.29 131.899 179.138 Q133.751 176.962 133.751 173.235 Q133.751 169.485 131.899 167.332 Q130.07 165.179 126.922 165.179 M136.204 150.527 L136.204 154.786 Q134.445 153.953 132.64 153.513 Q130.857 153.073 129.098 153.073 Q124.468 153.073 122.015 156.198 Q119.584 159.323 119.237 165.642 Q120.603 163.628 122.663 162.564 Q124.723 161.476 127.2 161.476 Q132.408 161.476 135.417 164.647 Q138.45 167.795 138.45 173.235 Q138.45 178.559 135.302 181.777 Q132.154 184.994 126.922 184.994 Q120.927 184.994 117.756 180.411 Q114.584 175.804 114.584 167.078 Q114.584 158.883 118.473 154.022 Q122.362 149.138 128.913 149.138 Q130.672 149.138 132.455 149.485 Q134.26 149.832 136.204 150.527 Z" fill="#000000" fill-rule="nonzero" fill-opacity="1" /><path clip-path="url(#clip520)" d="M157.084 165.179 Q153.936 165.179 152.084 167.332 Q150.255 169.485 150.255 173.235 Q150.255 176.962 152.084 179.138 Q153.936 181.29 157.084 181.29 Q160.232 181.29 162.061 179.138 Q163.913 176.962 163.913 173.235 Q163.913 169.485 162.061 167.332 Q160.232 165.179 157.084 165.179 M166.366 150.527 L166.366 154.786 Q164.607 153.953 162.802 153.513 Q161.019 153.073 159.26 153.073 Q154.63 153.073 152.177 156.198 Q149.746 159.323 149.399 165.642 Q150.765 163.628 152.825 162.564 Q154.885 161.476 157.362 161.476 Q162.57 161.476 165.579 164.647 Q168.612 167.795 168.612 173.235 Q168.612 178.559 165.464 181.777 Q162.315 184.994 157.084 184.994 Q151.089 184.994 147.917 180.411 Q144.746 175.804 144.746 167.078 Q144.746 158.883 148.635 154.022 Q152.524 149.138 159.075 149.138 Q160.834 149.138 162.616 149.485 Q164.422 149.832 166.366 150.527 Z" fill="#000000" fill-rule="nonzero" fill-opacity="1" /><path clip-path="url(#clip520)" d="M176.667 178.443 L181.551 178.443 L181.551 184.323 L176.667 184.323 L176.667 178.443 Z" fill="#000000" fill-rule="nonzero" fill-opacity="1" /><path clip-path="url(#clip520)" d="M202.315 165.179 Q199.167 165.179 197.315 167.332 Q195.487 169.485 195.487 173.235 Q195.487 176.962 197.315 179.138 Q199.167 181.29 202.315 181.29 Q205.463 181.29 207.292 179.138 Q209.144 176.962 209.144 173.235 Q209.144 169.485 207.292 167.332 Q205.463 165.179 202.315 165.179 M211.598 150.527 L211.598 154.786 Q209.838 153.953 208.033 153.513 Q206.25 153.073 204.491 153.073 Q199.862 153.073 197.408 156.198 Q194.977 159.323 194.63 165.642 Q195.996 163.628 198.056 162.564 Q200.116 161.476 202.593 161.476 Q207.801 161.476 210.811 164.647 Q213.843 167.795 213.843 173.235 Q213.843 178.559 210.695 181.777 Q207.547 184.994 202.315 184.994 Q196.32 184.994 193.149 180.411 Q189.977 175.804 189.977 167.078 Q189.977 158.883 193.866 154.022 Q197.755 149.138 204.306 149.138 Q206.065 149.138 207.848 149.485 Q209.653 149.832 211.598 150.527 Z" fill="#000000" fill-rule="nonzero" fill-opacity="1" /><path clip-path="url(#clip520)" d="M22.818 922.094 L46.4666 930.815 L46.4666 913.341 L22.818 922.094 M16.4842 925.723 L16.4842 918.434 L64.0042 900.324 L64.0042 907.008 L51.8138 911.336 L51.8138 932.757 L64.0042 937.085 L64.0042 943.865 L16.4842 925.723 Z" fill="#000000" fill-rule="nonzero" fill-opacity="1" /><path clip-path="url(#clip520)" d="M45.7664 870.182 Q39.4007 870.182 35.8996 872.824 Q32.3984 875.434 32.3984 880.176 Q32.3984 884.887 35.8996 887.528 Q39.4007 890.138 45.7664 890.138 Q52.1003 890.138 55.6014 887.528 Q59.1026 884.887 59.1026 880.176 Q59.1026 875.434 55.6014 872.824 Q52.1003 870.182 45.7664 870.182 M59.58 864.325 Q68.683 864.325 73.1071 868.368 Q77.5631 872.41 77.5631 880.749 Q77.5631 883.836 77.0857 886.574 Q76.6401 889.311 75.6852 891.889 L69.9879 891.889 Q71.3884 889.311 72.0568 886.796 Q72.7252 884.282 72.7252 881.672 Q72.7252 875.911 69.7015 873.046 Q66.7096 870.182 60.6303 870.182 L57.7339 870.182 Q60.885 871.996 62.4446 874.829 Q64.0042 877.662 64.0042 881.608 Q64.0042 888.165 59.0071 892.175 Q54.01 896.186 45.7664 896.186 Q37.491 896.186 32.4939 892.175 Q27.4968 888.165 27.4968 881.608 Q27.4968 877.662 29.0564 874.829 Q30.616 871.996 33.7671 870.182 L28.3562 870.182 L28.3562 864.325 L59.58 864.325 Z" fill="#000000" fill-rule="nonzero" fill-opacity="1" /><path clip-path="url(#clip520)" d="M44.7161 821.771 L47.5806 821.771 L47.5806 848.698 Q53.6281 848.316 56.8109 845.069 Q59.9619 841.791 59.9619 835.966 Q59.9619 832.592 59.1344 829.441 Q58.3069 826.259 56.6518 823.139 L62.1899 823.139 Q63.5267 826.29 64.227 829.601 Q64.9272 832.911 64.9272 836.316 Q64.9272 844.846 59.9619 849.843 Q54.9967 854.809 46.5303 854.809 Q37.7774 854.809 32.6531 850.098 Q27.4968 845.356 27.4968 837.335 Q27.4968 830.142 32.1438 825.972 Q36.7589 821.771 44.7161 821.771 M42.9973 827.627 Q38.1912 827.691 35.3266 830.333 Q32.4621 832.943 32.4621 837.271 Q32.4621 842.173 35.2312 845.133 Q38.0002 848.061 43.0292 848.507 L42.9973 827.627 Z" fill="#000000" fill-rule="nonzero" fill-opacity="1" /><path clip-path="url(#clip520)" d="M14.5426 777.37 Q21.8632 781.635 29.0246 783.704 Q36.186 785.773 43.5384 785.773 Q50.8908 785.773 58.1159 783.704 Q65.3091 781.603 72.5979 777.37 L72.5979 782.462 Q65.1182 787.237 57.8931 789.624 Q50.668 791.979 43.5384 791.979 Q36.4406 791.979 29.2474 789.624 Q22.0542 787.269 14.5426 782.462 L14.5426 777.37 Z" fill="#000000" fill-rule="nonzero" fill-opacity="1" /><path clip-path="url(#clip520)" d="M16.4842 765.752 L16.4842 756.172 L48.8219 744.045 L16.4842 731.855 L16.4842 722.275 L64.0042 722.275 L64.0042 728.545 L22.277 728.545 L54.8694 740.799 L54.8694 747.26 L22.277 759.514 L64.0042 759.514 L64.0042 765.752 L16.4842 765.752 Z" fill="#000000" fill-rule="nonzero" fill-opacity="1" /><path clip-path="url(#clip520)" d="M46.0847 693.565 Q46.0847 700.663 47.7079 703.4 Q49.3312 706.138 53.2461 706.138 Q56.3653 706.138 58.2114 704.101 Q60.0256 702.032 60.0256 698.499 Q60.0256 693.629 56.5881 690.701 Q53.1188 687.741 47.3897 687.741 L46.0847 687.741 L46.0847 693.565 M43.6657 681.884 L64.0042 681.884 L64.0042 687.741 L58.5933 687.741 Q61.8398 689.746 63.3994 692.738 Q64.9272 695.73 64.9272 700.058 Q64.9272 705.533 61.8716 708.779 Q58.7843 711.994 53.6281 711.994 Q47.6125 711.994 44.5569 707.984 Q41.5014 703.941 41.5014 695.953 L41.5014 687.741 L40.9285 687.741 Q36.8862 687.741 34.6901 690.414 Q32.4621 693.056 32.4621 697.862 Q32.4621 700.918 33.1941 703.814 Q33.9262 706.711 35.3903 709.384 L29.9795 709.384 Q28.7381 706.169 28.1334 703.146 Q27.4968 700.122 27.4968 697.257 Q27.4968 689.523 31.5072 685.704 Q35.5176 681.884 43.6657 681.884 Z" fill="#000000" fill-rule="nonzero" fill-opacity="1" /><path clip-path="url(#clip520)" d="M14.5426 670.744 L14.5426 665.652 Q22.0542 660.877 29.2474 658.522 Q36.4406 656.135 43.5384 656.135 Q50.668 656.135 57.8931 658.522 Q65.1182 660.877 72.5979 665.652 L72.5979 670.744 Q65.3091 666.511 58.1159 664.442 Q50.8908 662.342 43.5384 662.342 Q36.186 662.342 29.0246 664.442 Q21.8632 666.511 14.5426 670.744 Z" fill="#000000" fill-rule="nonzero" fill-opacity="1" /><polyline clip-path="url(#clip522)" style="stroke:#009af9; stroke-linecap:round; stroke-linejoin:round; stroke-width:4; stroke-opacity:1; fill:none" points="309.359,1510.15 309.359,491.24 "/>
<polyline clip-path="url(#clip522)" style="stroke:#009af9; stroke-linecap:round; stroke-linejoin:round; stroke-width:4; stroke-opacity:1; fill:none" points="805.329,1402.08 805.329,444.926 "/>
<polyline clip-path="url(#clip522)" style="stroke:#009af9; stroke-linecap:round; stroke-linejoin:round; stroke-width:4; stroke-opacity:1; fill:none" points="1301.3,1124.2 1301.3,506.678 "/>
<polyline clip-path="url(#clip522)" style="stroke:#009af9; stroke-linecap:round; stroke-linejoin:round; stroke-width:4; stroke-opacity:1; fill:none" points="1797.27,1232.26 1797.27,89.8529 "/>
<polyline clip-path="url(#clip522)" style="stroke:#009af9; stroke-linecap:round; stroke-linejoin:round; stroke-width:4; stroke-opacity:1; fill:none" points="2293.24,1077.88 2293.24,244.233 "/>
<line clip-path="url(#clip522)" x1="325.359" y1="1510.15" x2="293.359" y2="1510.15" style="stroke:#009af9; stroke-width:4; stroke-opacity:1"/>
<line clip-path="url(#clip522)" x1="325.359" y1="491.24" x2="293.359" y2="491.24" style="stroke:#009af9; stroke-width:4; stroke-opacity:1"/>
<line clip-path="url(#clip522)" x1="821.329" y1="1402.08" x2="789.329" y2="1402.08" style="stroke:#009af9; stroke-width:4; stroke-opacity:1"/>
<line clip-path="url(#clip522)" x1="821.329" y1="444.926" x2="789.329" y2="444.926" style="stroke:#009af9; stroke-width:4; stroke-opacity:1"/>
<line clip-path="url(#clip522)" x1="1317.3" y1="1124.2" x2="1285.3" y2="1124.2" style="stroke:#009af9; stroke-width:4; stroke-opacity:1"/>
<line clip-path="url(#clip522)" x1="1317.3" y1="506.678" x2="1285.3" y2="506.678" style="stroke:#009af9; stroke-width:4; stroke-opacity:1"/>
<line clip-path="url(#clip522)" x1="1813.27" y1="1232.26" x2="1781.27" y2="1232.26" style="stroke:#009af9; stroke-width:4; stroke-opacity:1"/>
<line clip-path="url(#clip522)" x1="1813.27" y1="89.8529" x2="1781.27" y2="89.8529" style="stroke:#009af9; stroke-width:4; stroke-opacity:1"/>
<line clip-path="url(#clip522)" x1="2309.24" y1="1077.88" x2="2277.24" y2="1077.88" style="stroke:#009af9; stroke-width:4; stroke-opacity:1"/>
<line clip-path="url(#clip522)" x1="2309.24" y1="244.233" x2="2277.24" y2="244.233" style="stroke:#009af9; stroke-width:4; stroke-opacity:1"/>
<circle clip-path="url(#clip522)" cx="309.359" cy="1000.69" r="14.4" fill="#009af9" fill-rule="evenodd" fill-opacity="1" stroke="none"/>
<circle clip-path="url(#clip522)" cx="805.329" cy="923.504" r="14.4" fill="#009af9" fill-rule="evenodd" fill-opacity="1" stroke="none"/>
<circle clip-path="url(#clip522)" cx="1301.3" cy="815.438" r="14.4" fill="#009af9" fill-rule="evenodd" fill-opacity="1" stroke="none"/>
<circle clip-path="url(#clip522)" cx="1797.27" cy="661.058" r="14.4" fill="#009af9" fill-rule="evenodd" fill-opacity="1" stroke="none"/>
<circle clip-path="url(#clip522)" cx="2293.24" cy="661.058" r="14.4" fill="#009af9" fill-rule="evenodd" fill-opacity="1" stroke="none"/>
<path clip-path="url(#clip522)" d="M309.359 1113.03 L805.329 1113.03 L1301.3 1113.03 L1797.27 1113.03 L2293.24 1113.03 L2293.24 707.609 L1797.27 707.609 L1301.3 707.609 L805.329 707.609 L309.359 707.609  Z" fill="#e26f46" fill-rule="evenodd" fill-opacity="0.6"/>
<polyline clip-path="url(#clip522)" style="stroke:#e26f46; stroke-linecap:round; stroke-linejoin:round; stroke-width:4; stroke-opacity:0; fill:none" points="309.359,1113.03 805.329,1113.03 1301.3,1113.03 1797.27,1113.03 2293.24,1113.03 "/>
<polyline clip-path="url(#clip522)" style="stroke:#000000; stroke-linecap:round; stroke-linejoin:round; stroke-width:4; stroke-opacity:1; fill:none" stroke-dasharray="2, 4" points="309.359,871.131 805.329,871.131 1301.3,871.131 1797.27,871.131 2293.24,871.131 "/>
<path clip-path="url(#clip520)" d="M319.94 252.948 L1326.11 252.948 L1326.11 97.4278 L319.94 97.4278  Z" fill="#ffffff" fill-rule="evenodd" fill-opacity="1"/>
<polyline clip-path="url(#clip520)" style="stroke:#ffffff; stroke-linecap:round; stroke-linejoin:round; stroke-width:4; stroke-opacity:1; fill:none" points="319.94,252.948 1326.11,252.948 1326.11,97.4278 319.94,97.4278 319.94,252.948 "/>
<circle clip-path="url(#clip520)" cx="413.403" cy="149.268" r="20.48" fill="#009af9" fill-rule="evenodd" fill-opacity="1" stroke="none"/>
<path clip-path="url(#clip520)" d="M511.542 135.83 L511.542 162.705 L517.19 162.705 Q524.342 162.705 527.653 159.465 Q530.986 156.224 530.986 149.233 Q530.986 142.289 527.653 139.071 Q524.342 135.83 517.19 135.83 L511.542 135.83 M506.866 131.988 L516.472 131.988 Q526.518 131.988 531.217 136.178 Q535.916 140.344 535.916 149.233 Q535.916 158.168 531.194 162.358 Q526.472 166.548 516.472 166.548 L506.866 166.548 L506.866 131.988 Z" fill="#000000" fill-rule="nonzero" fill-opacity="1" /><path clip-path="url(#clip520)" d="M554.967 153.515 Q549.805 153.515 547.815 154.696 Q545.824 155.877 545.824 158.724 Q545.824 160.992 547.305 162.335 Q548.81 163.654 551.379 163.654 Q554.921 163.654 557.051 161.154 Q559.203 158.631 559.203 154.465 L559.203 153.515 L554.967 153.515 M563.463 151.756 L563.463 166.548 L559.203 166.548 L559.203 162.613 Q557.745 164.974 555.569 166.108 Q553.393 167.219 550.245 167.219 Q546.264 167.219 543.902 164.997 Q541.565 162.752 541.565 159.002 Q541.565 154.627 544.481 152.404 Q547.421 150.182 553.231 150.182 L559.203 150.182 L559.203 149.766 Q559.203 146.826 557.259 145.228 Q555.338 143.608 551.842 143.608 Q549.62 143.608 547.514 144.141 Q545.407 144.673 543.463 145.738 L543.463 141.803 Q545.801 140.9 548 140.46 Q550.199 139.997 552.282 139.997 Q557.907 139.997 560.685 142.914 Q563.463 145.83 563.463 151.756 Z" fill="#000000" fill-rule="nonzero" fill-opacity="1" /><path clip-path="url(#clip520)" d="M576.449 133.261 L576.449 140.622 L585.222 140.622 L585.222 143.932 L576.449 143.932 L576.449 158.006 Q576.449 161.177 577.305 162.08 Q578.185 162.983 580.847 162.983 L585.222 162.983 L585.222 166.548 L580.847 166.548 Q575.916 166.548 574.041 164.719 Q572.166 162.867 572.166 158.006 L572.166 143.932 L569.041 143.932 L569.041 140.622 L572.166 140.622 L572.166 133.261 L576.449 133.261 Z" fill="#000000" fill-rule="nonzero" fill-opacity="1" /><path clip-path="url(#clip520)" d="M602.606 153.515 Q597.444 153.515 595.453 154.696 Q593.462 155.877 593.462 158.724 Q593.462 160.992 594.944 162.335 Q596.449 163.654 599.018 163.654 Q602.56 163.654 604.689 161.154 Q606.842 158.631 606.842 154.465 L606.842 153.515 L602.606 153.515 M611.101 151.756 L611.101 166.548 L606.842 166.548 L606.842 162.613 Q605.384 164.974 603.208 166.108 Q601.032 167.219 597.884 167.219 Q593.902 167.219 591.541 164.997 Q589.203 162.752 589.203 159.002 Q589.203 154.627 592.12 152.404 Q595.06 150.182 600.87 150.182 L606.842 150.182 L606.842 149.766 Q606.842 146.826 604.898 145.228 Q602.976 143.608 599.481 143.608 Q597.259 143.608 595.152 144.141 Q593.046 144.673 591.101 145.738 L591.101 141.803 Q593.439 140.9 595.638 140.46 Q597.837 139.997 599.921 139.997 Q605.546 139.997 608.323 142.914 Q611.101 145.83 611.101 151.756 Z" fill="#000000" fill-rule="nonzero" fill-opacity="1" /><path clip-path="url(#clip520)" d="M645.175 130.576 Q642.073 135.9 640.569 141.108 Q639.064 146.316 639.064 151.664 Q639.064 157.011 640.569 162.265 Q642.096 167.497 645.175 172.798 L641.471 172.798 Q637.999 167.358 636.263 162.103 Q634.55 156.849 634.55 151.664 Q634.55 146.502 636.263 141.27 Q637.976 136.039 641.471 130.576 L645.175 130.576 Z" fill="#000000" fill-rule="nonzero" fill-opacity="1" /><path clip-path="url(#clip520)" d="M663.485 143.608 Q660.059 143.608 658.069 146.293 Q656.078 148.955 656.078 153.608 Q656.078 158.261 658.045 160.946 Q660.036 163.608 663.485 163.608 Q666.888 163.608 668.879 160.923 Q670.869 158.238 670.869 153.608 Q670.869 149.002 668.879 146.316 Q666.888 143.608 663.485 143.608 M663.485 139.997 Q669.041 139.997 672.212 143.608 Q675.383 147.219 675.383 153.608 Q675.383 159.974 672.212 163.608 Q669.041 167.219 663.485 167.219 Q657.907 167.219 654.735 163.608 Q651.587 159.974 651.587 153.608 Q651.587 147.219 654.735 143.608 Q657.907 139.997 663.485 139.997 Z" fill="#000000" fill-rule="nonzero" fill-opacity="1" /><path clip-path="url(#clip520)" d="M701.054 153.608 Q701.054 148.909 699.11 146.247 Q697.189 143.562 693.809 143.562 Q690.429 143.562 688.485 146.247 Q686.564 148.909 686.564 153.608 Q686.564 158.307 688.485 160.992 Q690.429 163.654 693.809 163.654 Q697.189 163.654 699.11 160.992 Q701.054 158.307 701.054 153.608 M686.564 144.557 Q687.906 142.242 689.943 141.131 Q692.004 139.997 694.851 139.997 Q699.573 139.997 702.513 143.747 Q705.476 147.497 705.476 153.608 Q705.476 159.719 702.513 163.469 Q699.573 167.219 694.851 167.219 Q692.004 167.219 689.943 166.108 Q687.906 164.974 686.564 162.659 L686.564 166.548 L682.281 166.548 L682.281 130.529 L686.564 130.529 L686.564 144.557 Z" fill="#000000" fill-rule="nonzero" fill-opacity="1" /><path clip-path="url(#clip520)" d="M729.064 141.386 L729.064 145.414 Q727.258 144.488 725.314 144.025 Q723.369 143.562 721.286 143.562 Q718.115 143.562 716.517 144.534 Q714.943 145.506 714.943 147.451 Q714.943 148.932 716.077 149.789 Q717.212 150.622 720.638 151.386 L722.096 151.71 Q726.633 152.682 728.531 154.465 Q730.452 156.224 730.452 159.395 Q730.452 163.006 727.582 165.113 Q724.735 167.219 719.735 167.219 Q717.652 167.219 715.383 166.802 Q713.138 166.409 710.638 165.599 L710.638 161.201 Q712.999 162.427 715.29 163.052 Q717.582 163.654 719.827 163.654 Q722.837 163.654 724.457 162.636 Q726.077 161.594 726.077 159.719 Q726.077 157.983 724.897 157.057 Q723.739 156.131 719.781 155.275 L718.3 154.928 Q714.341 154.094 712.582 152.381 Q710.823 150.645 710.823 147.636 Q710.823 143.978 713.415 141.988 Q716.008 139.997 720.777 139.997 Q723.138 139.997 725.221 140.344 Q727.304 140.691 729.064 141.386 Z" fill="#000000" fill-rule="nonzero" fill-opacity="1" /><path clip-path="url(#clip520)" d="M759.411 152.52 L759.411 154.603 L739.827 154.603 Q740.105 159.002 742.466 161.316 Q744.85 163.608 749.087 163.608 Q751.54 163.608 753.832 163.006 Q756.147 162.404 758.415 161.201 L758.415 165.228 Q756.124 166.201 753.716 166.71 Q751.309 167.219 748.832 167.219 Q742.628 167.219 738.994 163.608 Q735.383 159.997 735.383 153.84 Q735.383 147.474 738.809 143.747 Q742.258 139.997 748.091 139.997 Q753.323 139.997 756.355 143.377 Q759.411 146.733 759.411 152.52 M755.151 151.27 Q755.105 147.775 753.184 145.691 Q751.286 143.608 748.138 143.608 Q744.573 143.608 742.42 145.622 Q740.29 147.636 739.966 151.293 L755.151 151.27 Z" fill="#000000" fill-rule="nonzero" fill-opacity="1" /><path clip-path="url(#clip520)" d="M781.424 144.603 Q780.707 144.187 779.85 144.002 Q779.017 143.793 777.998 143.793 Q774.387 143.793 772.443 146.154 Q770.522 148.492 770.522 152.89 L770.522 166.548 L766.239 166.548 L766.239 140.622 L770.522 140.622 L770.522 144.65 Q771.864 142.289 774.017 141.154 Q776.17 139.997 779.248 139.997 Q779.688 139.997 780.221 140.066 Q780.753 140.113 781.401 140.229 L781.424 144.603 Z" fill="#000000" fill-rule="nonzero" fill-opacity="1" /><path clip-path="url(#clip520)" d="M782.836 140.622 L787.35 140.622 L795.452 162.381 L803.554 140.622 L808.068 140.622 L798.346 166.548 L792.559 166.548 L782.836 140.622 Z" fill="#000000" fill-rule="nonzero" fill-opacity="1" /><path clip-path="url(#clip520)" d="M836.123 152.52 L836.123 154.603 L816.54 154.603 Q816.818 159.002 819.179 161.316 Q821.563 163.608 825.799 163.608 Q828.253 163.608 830.544 163.006 Q832.859 162.404 835.128 161.201 L835.128 165.228 Q832.836 166.201 830.429 166.71 Q828.021 167.219 825.544 167.219 Q819.341 167.219 815.707 163.608 Q812.095 159.997 812.095 153.84 Q812.095 147.474 815.521 143.747 Q818.97 139.997 824.804 139.997 Q830.035 139.997 833.068 143.377 Q836.123 146.733 836.123 152.52 M831.864 151.27 Q831.818 147.775 829.896 145.691 Q827.998 143.608 824.85 143.608 Q821.285 143.608 819.132 145.622 Q817.003 147.636 816.679 151.293 L831.864 151.27 Z" fill="#000000" fill-rule="nonzero" fill-opacity="1" /><path clip-path="url(#clip520)" d="M860.174 144.557 L860.174 130.529 L864.433 130.529 L864.433 166.548 L860.174 166.548 L860.174 162.659 Q858.831 164.974 856.771 166.108 Q854.734 167.219 851.864 167.219 Q847.165 167.219 844.202 163.469 Q841.262 159.719 841.262 153.608 Q841.262 147.497 844.202 143.747 Q847.165 139.997 851.864 139.997 Q854.734 139.997 856.771 141.131 Q858.831 142.242 860.174 144.557 M845.66 153.608 Q845.66 158.307 847.581 160.992 Q849.526 163.654 852.905 163.654 Q856.285 163.654 858.23 160.992 Q860.174 158.307 860.174 153.608 Q860.174 148.909 858.23 146.247 Q856.285 143.562 852.905 143.562 Q849.526 143.562 847.581 146.247 Q845.66 148.909 845.66 153.608 Z" fill="#000000" fill-rule="nonzero" fill-opacity="1" /><path clip-path="url(#clip520)" d="M900.058 153.515 Q894.896 153.515 892.905 154.696 Q890.915 155.877 890.915 158.724 Q890.915 160.992 892.396 162.335 Q893.901 163.654 896.47 163.654 Q900.012 163.654 902.141 161.154 Q904.294 158.631 904.294 154.465 L904.294 153.515 L900.058 153.515 M908.553 151.756 L908.553 166.548 L904.294 166.548 L904.294 162.613 Q902.836 164.974 900.66 166.108 Q898.484 167.219 895.336 167.219 Q891.354 167.219 888.993 164.997 Q886.655 162.752 886.655 159.002 Q886.655 154.627 889.572 152.404 Q892.512 150.182 898.322 150.182 L904.294 150.182 L904.294 149.766 Q904.294 146.826 902.35 145.228 Q900.428 143.608 896.933 143.608 Q894.711 143.608 892.604 144.141 Q890.498 144.673 888.553 145.738 L888.553 141.803 Q890.891 140.9 893.09 140.46 Q895.289 139.997 897.373 139.997 Q902.998 139.997 905.776 142.914 Q908.553 145.83 908.553 151.756 Z" fill="#000000" fill-rule="nonzero" fill-opacity="1" /><path clip-path="url(#clip520)" d="M934.387 153.284 Q934.387 148.654 932.465 146.108 Q930.567 143.562 927.118 143.562 Q923.692 143.562 921.771 146.108 Q919.873 148.654 919.873 153.284 Q919.873 157.89 921.771 160.437 Q923.692 162.983 927.118 162.983 Q930.567 162.983 932.465 160.437 Q934.387 157.89 934.387 153.284 M938.646 163.33 Q938.646 169.951 935.706 173.168 Q932.766 176.409 926.701 176.409 Q924.456 176.409 922.465 176.062 Q920.475 175.738 918.6 175.043 L918.6 170.9 Q920.475 171.918 922.303 172.404 Q924.132 172.89 926.03 172.89 Q930.22 172.89 932.303 170.691 Q934.387 168.515 934.387 164.094 L934.387 161.988 Q933.067 164.279 931.007 165.414 Q928.947 166.548 926.076 166.548 Q921.308 166.548 918.391 162.914 Q915.475 159.279 915.475 153.284 Q915.475 147.266 918.391 143.631 Q921.308 139.997 926.076 139.997 Q928.947 139.997 931.007 141.131 Q933.067 142.266 934.387 144.557 L934.387 140.622 L938.646 140.622 L938.646 163.33 Z" fill="#000000" fill-rule="nonzero" fill-opacity="1" /><path clip-path="url(#clip520)" d="M969.595 152.52 L969.595 154.603 L950.011 154.603 Q950.289 159.002 952.65 161.316 Q955.035 163.608 959.271 163.608 Q961.724 163.608 964.016 163.006 Q966.331 162.404 968.599 161.201 L968.599 165.228 Q966.308 166.201 963.9 166.71 Q961.493 167.219 959.016 167.219 Q952.812 167.219 949.178 163.608 Q945.567 159.997 945.567 153.84 Q945.567 147.474 948.993 143.747 Q952.442 139.997 958.275 139.997 Q963.507 139.997 966.539 143.377 Q969.595 146.733 969.595 152.52 M965.335 151.27 Q965.289 147.775 963.368 145.691 Q961.47 143.608 958.322 143.608 Q954.757 143.608 952.604 145.622 Q950.474 147.636 950.15 151.293 L965.335 151.27 Z" fill="#000000" fill-rule="nonzero" fill-opacity="1" /><path clip-path="url(#clip520)" d="M993.113 141.386 L993.113 145.414 Q991.307 144.488 989.363 144.025 Q987.419 143.562 985.335 143.562 Q982.164 143.562 980.567 144.534 Q978.993 145.506 978.993 147.451 Q978.993 148.932 980.127 149.789 Q981.261 150.622 984.687 151.386 L986.145 151.71 Q990.683 152.682 992.581 154.465 Q994.502 156.224 994.502 159.395 Q994.502 163.006 991.632 165.113 Q988.784 167.219 983.784 167.219 Q981.701 167.219 979.433 166.802 Q977.187 166.409 974.687 165.599 L974.687 161.201 Q977.048 162.427 979.34 163.052 Q981.632 163.654 983.877 163.654 Q986.886 163.654 988.507 162.636 Q990.127 161.594 990.127 159.719 Q990.127 157.983 988.946 157.057 Q987.789 156.131 983.831 155.275 L982.349 154.928 Q978.391 154.094 976.632 152.381 Q974.872 150.645 974.872 147.636 Q974.872 143.978 977.465 141.988 Q980.058 139.997 984.826 139.997 Q987.187 139.997 989.27 140.344 Q991.354 140.691 993.113 141.386 Z" fill="#000000" fill-rule="nonzero" fill-opacity="1" /><path clip-path="url(#clip520)" d="M1000.61 130.576 L1004.32 130.576 Q1007.79 136.039 1009.5 141.27 Q1011.24 146.502 1011.24 151.664 Q1011.24 156.849 1009.5 162.103 Q1007.79 167.358 1004.32 172.798 L1000.61 172.798 Q1003.69 167.497 1005.2 162.265 Q1006.72 157.011 1006.72 151.664 Q1006.72 146.316 1005.2 141.108 Q1003.69 135.9 1000.61 130.576 Z" fill="#000000" fill-rule="nonzero" fill-opacity="1" /><path clip-path="url(#clip520)" d="M343.306 221.844 L483.5 221.844 L483.5 180.372 L343.306 180.372 L343.306 221.844  Z" fill="#e26f46" fill-rule="evenodd" fill-opacity="0.6"/>
<polyline clip-path="url(#clip520)" style="stroke:#e26f46; stroke-linecap:round; stroke-linejoin:round; stroke-width:4; stroke-opacity:0; fill:none" points="343.306,180.372 483.5,180.372 "/>
<path clip-path="url(#clip520)" d="M506.866 183.828 L513.833 183.828 L522.653 207.346 L531.518 183.828 L538.486 183.828 L538.486 218.388 L533.926 218.388 L533.926 188.041 L525.014 211.744 L520.315 211.744 L511.403 188.041 L511.403 218.388 L506.866 218.388 L506.866 183.828 Z" fill="#000000" fill-rule="nonzero" fill-opacity="1" /><path clip-path="url(#clip520)" d="M557.629 195.448 Q554.203 195.448 552.213 198.133 Q550.222 200.795 550.222 205.448 Q550.222 210.101 552.189 212.786 Q554.18 215.448 557.629 215.448 Q561.032 215.448 563.023 212.763 Q565.013 210.078 565.013 205.448 Q565.013 200.842 563.023 198.156 Q561.032 195.448 557.629 195.448 M557.629 191.837 Q563.185 191.837 566.356 195.448 Q569.527 199.059 569.527 205.448 Q569.527 211.814 566.356 215.448 Q563.185 219.059 557.629 219.059 Q552.051 219.059 548.879 215.448 Q545.731 211.814 545.731 205.448 Q545.731 199.059 548.879 195.448 Q552.051 191.837 557.629 191.837 Z" fill="#000000" fill-rule="nonzero" fill-opacity="1" /><path clip-path="url(#clip520)" d="M593.648 196.397 L593.648 182.369 L597.907 182.369 L597.907 218.388 L593.648 218.388 L593.648 214.499 Q592.305 216.814 590.245 217.948 Q588.208 219.059 585.337 219.059 Q580.638 219.059 577.675 215.309 Q574.736 211.559 574.736 205.448 Q574.736 199.337 577.675 195.587 Q580.638 191.837 585.337 191.837 Q588.208 191.837 590.245 192.971 Q592.305 194.082 593.648 196.397 M579.134 205.448 Q579.134 210.147 581.055 212.832 Q583 215.494 586.379 215.494 Q589.759 215.494 591.703 212.832 Q593.648 210.147 593.648 205.448 Q593.648 200.749 591.703 198.087 Q589.759 195.402 586.379 195.402 Q583 195.402 581.055 198.087 Q579.134 200.749 579.134 205.448 Z" fill="#000000" fill-rule="nonzero" fill-opacity="1" /><path clip-path="url(#clip520)" d="M628.856 204.36 L628.856 206.443 L609.273 206.443 Q609.55 210.842 611.911 213.156 Q614.296 215.448 618.532 215.448 Q620.985 215.448 623.277 214.846 Q625.592 214.244 627.86 213.041 L627.86 217.068 Q625.569 218.041 623.161 218.55 Q620.754 219.059 618.277 219.059 Q612.073 219.059 608.439 215.448 Q604.828 211.837 604.828 205.68 Q604.828 199.314 608.254 195.587 Q611.703 191.837 617.536 191.837 Q622.768 191.837 625.8 195.217 Q628.856 198.573 628.856 204.36 M624.597 203.11 Q624.55 199.615 622.629 197.531 Q620.731 195.448 617.583 195.448 Q614.018 195.448 611.865 197.462 Q609.735 199.476 609.411 203.133 L624.597 203.11 Z" fill="#000000" fill-rule="nonzero" fill-opacity="1" /><path clip-path="url(#clip520)" d="M635.846 182.369 L640.106 182.369 L640.106 218.388 L635.846 218.388 L635.846 182.369 Z" fill="#000000" fill-rule="nonzero" fill-opacity="1" /><path clip-path="url(#clip520)" d="M674.318 182.416 Q671.217 187.74 669.712 192.948 Q668.207 198.156 668.207 203.504 Q668.207 208.851 669.712 214.105 Q671.24 219.337 674.318 224.638 L670.615 224.638 Q667.143 219.198 665.406 213.943 Q663.694 208.689 663.694 203.504 Q663.694 198.342 665.406 193.11 Q667.119 187.879 670.615 182.416 L674.318 182.416 Z" fill="#000000" fill-rule="nonzero" fill-opacity="1" /><path clip-path="url(#clip520)" d="M693.763 199.244 Q690.615 199.244 688.763 201.397 Q686.934 203.55 686.934 207.3 Q686.934 211.027 688.763 213.203 Q690.615 215.355 693.763 215.355 Q696.911 215.355 698.74 213.203 Q700.591 211.027 700.591 207.3 Q700.591 203.55 698.74 201.397 Q696.911 199.244 693.763 199.244 M703.045 184.592 L703.045 188.851 Q701.286 188.018 699.48 187.578 Q697.698 187.138 695.939 187.138 Q691.309 187.138 688.855 190.263 Q686.425 193.388 686.078 199.707 Q687.443 197.693 689.504 196.629 Q691.564 195.541 694.041 195.541 Q699.249 195.541 702.258 198.712 Q705.291 201.86 705.291 207.3 Q705.291 212.624 702.142 215.842 Q698.994 219.059 693.763 219.059 Q687.767 219.059 684.596 214.476 Q681.425 209.869 681.425 201.143 Q681.425 192.948 685.314 188.087 Q689.203 183.203 695.754 183.203 Q697.513 183.203 699.295 183.55 Q701.101 183.897 703.045 184.592 Z" fill="#000000" fill-rule="nonzero" fill-opacity="1" /><path clip-path="url(#clip520)" d="M723.925 199.244 Q720.777 199.244 718.925 201.397 Q717.096 203.55 717.096 207.3 Q717.096 211.027 718.925 213.203 Q720.777 215.355 723.925 215.355 Q727.073 215.355 728.901 213.203 Q730.753 211.027 730.753 207.3 Q730.753 203.55 728.901 201.397 Q727.073 199.244 723.925 199.244 M733.207 184.592 L733.207 188.851 Q731.448 188.018 729.642 187.578 Q727.86 187.138 726.101 187.138 Q721.471 187.138 719.017 190.263 Q716.587 193.388 716.24 199.707 Q717.605 197.693 719.665 196.629 Q721.726 195.541 724.202 195.541 Q729.411 195.541 732.42 198.712 Q735.452 201.86 735.452 207.3 Q735.452 212.624 732.304 215.842 Q729.156 219.059 723.925 219.059 Q717.929 219.059 714.758 214.476 Q711.587 209.869 711.587 201.143 Q711.587 192.948 715.476 188.087 Q719.365 183.203 725.915 183.203 Q727.675 183.203 729.457 183.55 Q731.263 183.897 733.207 184.592 Z" fill="#000000" fill-rule="nonzero" fill-opacity="1" /><path clip-path="url(#clip520)" d="M743.508 212.508 L748.392 212.508 L748.392 218.388 L743.508 218.388 L743.508 212.508 Z" fill="#000000" fill-rule="nonzero" fill-opacity="1" /><path clip-path="url(#clip520)" d="M759.387 214.453 L767.026 214.453 L767.026 188.087 L758.716 189.754 L758.716 185.494 L766.98 183.828 L771.656 183.828 L771.656 214.453 L779.295 214.453 L779.295 218.388 L759.387 218.388 L759.387 214.453 Z" fill="#000000" fill-rule="nonzero" fill-opacity="1" /><path clip-path="url(#clip520)" d="M801.586 187.902 L789.781 206.351 L801.586 206.351 L801.586 187.902 M800.359 183.828 L806.239 183.828 L806.239 206.351 L811.17 206.351 L811.17 210.24 L806.239 210.24 L806.239 218.388 L801.586 218.388 L801.586 210.24 L785.985 210.24 L785.985 205.726 L800.359 183.828 Z" fill="#000000" fill-rule="nonzero" fill-opacity="1" /><path clip-path="url(#clip520)" d="M831.748 187.902 L819.943 206.351 L831.748 206.351 L831.748 187.902 M830.521 183.828 L836.401 183.828 L836.401 206.351 L841.331 206.351 L841.331 210.24 L836.401 210.24 L836.401 218.388 L831.748 218.388 L831.748 210.24 L816.146 210.24 L816.146 205.726 L830.521 183.828 Z" fill="#000000" fill-rule="nonzero" fill-opacity="1" /><path clip-path="url(#clip520)" d="M880.868 188.666 L880.868 201.559 L893.762 201.559 L893.762 205.494 L880.868 205.494 L880.868 218.388 L876.979 218.388 L876.979 205.494 L864.086 205.494 L864.086 201.559 L876.979 201.559 L876.979 188.666 L880.868 188.666 Z" fill="#000000" fill-rule="nonzero" fill-opacity="1" /><path clip-path="url(#clip520)" d="M913.854 186.907 Q910.243 186.907 908.414 190.471 Q906.609 194.013 906.609 201.143 Q906.609 208.249 908.414 211.814 Q910.243 215.355 913.854 215.355 Q917.488 215.355 919.294 211.814 Q921.123 208.249 921.123 201.143 Q921.123 194.013 919.294 190.471 Q917.488 186.907 913.854 186.907 M913.854 183.203 Q919.664 183.203 922.72 187.809 Q925.799 192.393 925.799 201.143 Q925.799 209.869 922.72 214.476 Q919.664 219.059 913.854 219.059 Q908.044 219.059 904.965 214.476 Q901.91 209.869 901.91 201.143 Q901.91 192.393 904.965 187.809 Q908.044 183.203 913.854 183.203 Z" fill="#000000" fill-rule="nonzero" fill-opacity="1" /><path clip-path="url(#clip520)" d="M934.016 212.508 L938.9 212.508 L938.9 218.388 L934.016 218.388 L934.016 212.508 Z" fill="#000000" fill-rule="nonzero" fill-opacity="1" /><path clip-path="url(#clip520)" d="M949.896 214.453 L957.535 214.453 L957.535 188.087 L949.224 189.754 L949.224 185.494 L957.488 183.828 L962.164 183.828 L962.164 214.453 L969.803 214.453 L969.803 218.388 L949.896 218.388 L949.896 214.453 Z" fill="#000000" fill-rule="nonzero" fill-opacity="1" /><path clip-path="url(#clip520)" d="M989.247 186.907 Q985.636 186.907 983.808 190.471 Q982.002 194.013 982.002 201.143 Q982.002 208.249 983.808 211.814 Q985.636 215.355 989.247 215.355 Q992.882 215.355 994.687 211.814 Q996.516 208.249 996.516 201.143 Q996.516 194.013 994.687 190.471 Q992.882 186.907 989.247 186.907 M989.247 183.203 Q995.057 183.203 998.113 187.809 Q1001.19 192.393 1001.19 201.143 Q1001.19 209.869 998.113 214.476 Q995.057 219.059 989.247 219.059 Q983.437 219.059 980.358 214.476 Q977.303 209.869 977.303 201.143 Q977.303 192.393 980.358 187.809 Q983.437 183.203 989.247 183.203 Z" fill="#000000" fill-rule="nonzero" fill-opacity="1" /><path clip-path="url(#clip520)" d="M1019.99 199.244 Q1016.84 199.244 1014.99 201.397 Q1013.16 203.55 1013.16 207.3 Q1013.16 211.027 1014.99 213.203 Q1016.84 215.355 1019.99 215.355 Q1023.14 215.355 1024.96 213.203 Q1026.82 211.027 1026.82 207.3 Q1026.82 203.55 1024.96 201.397 Q1023.14 199.244 1019.99 199.244 M1029.27 184.592 L1029.27 188.851 Q1027.51 188.018 1025.71 187.578 Q1023.92 187.138 1022.16 187.138 Q1017.53 187.138 1015.08 190.263 Q1012.65 193.388 1012.3 199.707 Q1013.67 197.693 1015.73 196.629 Q1017.79 195.541 1020.27 195.541 Q1025.47 195.541 1028.48 198.712 Q1031.52 201.86 1031.52 207.3 Q1031.52 212.624 1028.37 215.842 Q1025.22 219.059 1019.99 219.059 Q1013.99 219.059 1010.82 214.476 Q1007.65 209.869 1007.65 201.143 Q1007.65 192.948 1011.54 188.087 Q1015.43 183.203 1021.98 183.203 Q1023.74 183.203 1025.52 183.55 Q1027.33 183.897 1029.27 184.592 Z" fill="#000000" fill-rule="nonzero" fill-opacity="1" /><path clip-path="url(#clip520)" d="M1046.54 183.828 L1050.47 183.828 L1038.44 222.786 L1034.5 222.786 L1046.54 183.828 Z" fill="#000000" fill-rule="nonzero" fill-opacity="1" /><path clip-path="url(#clip520)" d="M1052.79 203.504 L1065.27 203.504 L1065.27 207.3 L1052.79 207.3 L1052.79 203.504 Z" fill="#000000" fill-rule="nonzero" fill-opacity="1" /><path clip-path="url(#clip520)" d="M1082.65 186.907 Q1079.04 186.907 1077.21 190.471 Q1075.4 194.013 1075.4 201.143 Q1075.4 208.249 1077.21 211.814 Q1079.04 215.355 1082.65 215.355 Q1086.28 215.355 1088.09 211.814 Q1089.92 208.249 1089.92 201.143 Q1089.92 194.013 1088.09 190.471 Q1086.28 186.907 1082.65 186.907 M1082.65 183.203 Q1088.46 183.203 1091.52 187.809 Q1094.59 192.393 1094.59 201.143 Q1094.59 209.869 1091.52 214.476 Q1088.46 219.059 1082.65 219.059 Q1076.84 219.059 1073.76 214.476 Q1070.71 209.869 1070.71 201.143 Q1070.71 192.393 1073.76 187.809 Q1076.84 183.203 1082.65 183.203 Z" fill="#000000" fill-rule="nonzero" fill-opacity="1" /><path clip-path="url(#clip520)" d="M1102.81 212.508 L1107.7 212.508 L1107.7 218.388 L1102.81 218.388 L1102.81 212.508 Z" fill="#000000" fill-rule="nonzero" fill-opacity="1" /><path clip-path="url(#clip520)" d="M1118.69 214.453 L1126.33 214.453 L1126.33 188.087 L1118.02 189.754 L1118.02 185.494 L1126.28 183.828 L1130.96 183.828 L1130.96 214.453 L1138.6 214.453 L1138.6 218.388 L1118.69 218.388 L1118.69 214.453 Z" fill="#000000" fill-rule="nonzero" fill-opacity="1" /><path clip-path="url(#clip520)" d="M1148.09 183.828 L1166.45 183.828 L1166.45 187.763 L1152.37 187.763 L1152.37 196.235 Q1153.39 195.888 1154.41 195.726 Q1155.43 195.541 1156.45 195.541 Q1162.23 195.541 1165.61 198.712 Q1168.99 201.883 1168.99 207.3 Q1168.99 212.879 1165.52 215.98 Q1162.05 219.059 1155.73 219.059 Q1153.55 219.059 1151.28 218.689 Q1149.04 218.318 1146.63 217.578 L1146.63 212.879 Q1148.71 214.013 1150.94 214.568 Q1153.16 215.124 1155.64 215.124 Q1159.64 215.124 1161.98 213.017 Q1164.32 210.911 1164.32 207.3 Q1164.32 203.689 1161.98 201.582 Q1159.64 199.476 1155.64 199.476 Q1153.76 199.476 1151.89 199.893 Q1150.03 200.309 1148.09 201.189 L1148.09 183.828 Z" fill="#000000" fill-rule="nonzero" fill-opacity="1" /><path clip-path="url(#clip520)" d="M1177.02 183.828 L1199.25 183.828 L1199.25 185.819 L1186.7 218.388 L1181.82 218.388 L1193.62 187.763 L1177.02 187.763 L1177.02 183.828 Z" fill="#000000" fill-rule="nonzero" fill-opacity="1" /><path clip-path="url(#clip520)" d="M1223.02 183.828 L1229.99 183.828 L1238.81 207.346 L1247.67 183.828 L1254.64 183.828 L1254.64 218.388 L1250.08 218.388 L1250.08 188.041 L1241.17 211.744 L1236.47 211.744 L1227.56 188.041 L1227.56 218.388 L1223.02 218.388 L1223.02 183.828 Z" fill="#000000" fill-rule="nonzero" fill-opacity="1" /><path clip-path="url(#clip520)" d="M1275.52 205.355 Q1270.36 205.355 1268.37 206.536 Q1266.38 207.717 1266.38 210.564 Q1266.38 212.832 1267.86 214.175 Q1269.36 215.494 1271.93 215.494 Q1275.47 215.494 1277.6 212.994 Q1279.76 210.471 1279.76 206.305 L1279.76 205.355 L1275.52 205.355 M1284.01 203.596 L1284.01 218.388 L1279.76 218.388 L1279.76 214.453 Q1278.3 216.814 1276.12 217.948 Q1273.94 219.059 1270.8 219.059 Q1266.82 219.059 1264.45 216.837 Q1262.12 214.592 1262.12 210.842 Q1262.12 206.467 1265.03 204.244 Q1267.97 202.022 1273.78 202.022 L1279.76 202.022 L1279.76 201.606 Q1279.76 198.666 1277.81 197.068 Q1275.89 195.448 1272.39 195.448 Q1270.17 195.448 1268.07 195.981 Q1265.96 196.513 1264.01 197.578 L1264.01 193.643 Q1266.35 192.74 1268.55 192.3 Q1270.75 191.837 1272.83 191.837 Q1278.46 191.837 1281.24 194.754 Q1284.01 197.67 1284.01 203.596 Z" fill="#000000" fill-rule="nonzero" fill-opacity="1" /><path clip-path="url(#clip520)" d="M1292.12 182.416 L1295.82 182.416 Q1299.29 187.879 1301 193.11 Q1302.74 198.342 1302.74 203.504 Q1302.74 208.689 1301 213.943 Q1299.29 219.198 1295.82 224.638 L1292.12 224.638 Q1295.19 219.337 1296.7 214.105 Q1298.23 208.851 1298.23 203.504 Q1298.23 198.156 1296.7 192.948 Q1295.19 187.74 1292.12 182.416 Z" fill="#000000" fill-rule="nonzero" fill-opacity="1" /></svg>
