<?xml version="1.0" encoding="utf-8"?>
<svg xmlns="http://www.w3.org/2000/svg" xmlns:xlink="http://www.w3.org/1999/xlink" width="600" height="400" viewBox="0 0 2400 1600">
<defs>
  <clipPath id="clip310">
    <rect x="0" y="0" width="2400" height="1600"/>
  </clipPath>
</defs>
<path clip-path="url(#clip310)" d="M0 1600 L2400 1600 L2400 8.88178e-14 L0 8.88178e-14  Z" fill="#ffffff" fill-rule="evenodd" fill-opacity="1"/>
<defs>
  <clipPath id="clip311">
    <rect x="249" y="47" width="2104" height="1507"/>
  </clipPath>
</defs>
<path clip-path="url(#clip310)" d="M249.357 1552.76 L2352.76 1552.76 L2352.76 47.2441 L249.357 47.2441  Z" fill="#ffffff" fill-rule="evenodd" fill-opacity="1"/>
<polyline clip-path="url(#clip311)" style="stroke:#000000; stroke-linecap:round; stroke-linejoin:round; stroke-width:2; stroke-opacity:0.1; fill:none" points="249.357,1413.59 2352.76,1413.59 "/>
<polyline clip-path="url(#clip311)" style="stroke:#000000; stroke-linecap:round; stroke-linejoin:round; stroke-width:2; stroke-opacity:0.1; fill:none" points="249.357,1033.62 2352.76,1033.62 "/>
<polyline clip-path="url(#clip311)" style="stroke:#000000; stroke-linecap:round; stroke-linejoin:round; stroke-width:2; stroke-opacity:0.1; fill:none" points="249.357,653.661 2352.76,653.661 "/>
<polyline clip-path="url(#clip311)" style="stroke:#000000; stroke-linecap:round; stroke-linejoin:round; stroke-width:2; stroke-opacity:0.1; fill:none" points="249.357,273.698 2352.76,273.698 "/>
<polyline clip-path="url(#clip311)" style="stroke:#000000; stroke-linecap:round; stroke-linejoin:round; stroke-width:2; stroke-opacity:0.1; fill:none" points="249.357,1413.59 2352.76,1413.59 "/>
<polyline clip-path="url(#clip311)" style="stroke:#000000; stroke-linecap:round; stroke-linejoin:round; stroke-width:2; stroke-opacity:0.1; fill:none" points="249.357,1033.62 2352.76,1033.62 "/>
<polyline clip-path="url(#clip311)" style="stroke:#000000; stroke-linecap:round; stroke-linejoin:round; stroke-width:2; stroke-opacity:0.1; fill:none" points="249.357,653.661 2352.76,653.661 "/>
<polyline clip-path="url(#clip311)" style="stroke:#000000; stroke-linecap:round; stroke-linejoin:round; stroke-width:2; stroke-opacity:0.1; fill:none" points="249.357,273.698 2352.76,273.698 "/>
<polyline clip-path="url(#clip310)" style="stroke:#000000; stroke-linecap:round; stroke-linejoin:round; stroke-width:4; stroke-opacity:1; fill:none" points="249.357,1552.76 2352.76,1552.76 "/>
<polyline clip-path="url(#clip310)" style="stroke:#000000; stroke-linecap:round; stroke-linejoin:round; stroke-width:4; stroke-opacity:1; fill:none" points="249.357,47.2441 2352.76,47.2441 "/>
<polyline clip-path="url(#clip310)" style="stroke:#000000; stroke-linecap:round; stroke-linejoin:round; stroke-width:4; stroke-opacity:1; fill:none" points="249.357,1552.76 249.357,47.2441 "/>
<polyline clip-path="url(#clip310)" style="stroke:#000000; stroke-linecap:round; stroke-linejoin:round; stroke-width:4; stroke-opacity:1; fill:none" points="2352.76,1552.76 2352.76,47.2441 "/>
<polyline clip-path="url(#clip310)" style="stroke:#000000; stroke-linecap:round; stroke-linejoin:round; stroke-width:4; stroke-opacity:1; fill:none" points="249.357,1413.59 268.254,1413.59 "/>
<polyline clip-path="url(#clip310)" style="stroke:#000000; stroke-linecap:round; stroke-linejoin:round; stroke-width:4; stroke-opacity:1; fill:none" points="249.357,1033.62 268.254,1033.62 "/>
<polyline clip-path="url(#clip310)" style="stroke:#000000; stroke-linecap:round; stroke-linejoin:round; stroke-width:4; stroke-opacity:1; fill:none" points="249.357,653.661 268.254,653.661 "/>
<polyline clip-path="url(#clip310)" style="stroke:#000000; stroke-linecap:round; stroke-linejoin:round; stroke-width:4; stroke-opacity:1; fill:none" points="249.357,273.698 268.254,273.698 "/>
<polyline clip-path="url(#clip310)" style="stroke:#000000; stroke-linecap:round; stroke-linejoin:round; stroke-width:4; stroke-opacity:1; fill:none" points="2352.76,1413.59 2333.86,1413.59 "/>
<polyline clip-path="url(#clip310)" style="stroke:#000000; stroke-linecap:round; stroke-linejoin:round; stroke-width:4; stroke-opacity:1; fill:none" points="2352.76,1033.62 2333.86,1033.62 "/>
<polyline clip-path="url(#clip310)" style="stroke:#000000; stroke-linecap:round; stroke-linejoin:round; stroke-width:4; stroke-opacity:1; fill:none" points="2352.76,653.661 2333.86,653.661 "/>
<polyline clip-path="url(#clip310)" style="stroke:#000000; stroke-linecap:round; stroke-linejoin:round; stroke-width:4; stroke-opacity:1; fill:none" points="2352.76,273.698 2333.86,273.698 "/>
<path clip-path="url(#clip310)" d="M127.593 1411.72 Q124.445 1411.72 122.593 1413.88 Q120.765 1416.03 120.765 1419.78 Q120.765 1423.51 122.593 1425.68 Q124.445 1427.83 127.593 1427.83 Q130.742 1427.83 132.57 1425.68 Q134.422 1423.51 134.422 1419.78 Q134.422 1416.03 132.57 1413.88 Q130.742 1411.72 127.593 1411.72 M136.876 1397.07 L136.876 1401.33 Q135.117 1400.5 133.311 1400.06 Q131.529 1399.62 129.769 1399.62 Q125.14 1399.62 122.686 1402.74 Q120.255 1405.87 119.908 1412.19 Q121.274 1410.17 123.334 1409.11 Q125.394 1408.02 127.871 1408.02 Q133.08 1408.02 136.089 1411.19 Q139.121 1414.34 139.121 1419.78 Q139.121 1425.1 135.973 1428.32 Q132.825 1431.54 127.593 1431.54 Q121.598 1431.54 118.427 1426.95 Q115.256 1422.35 115.256 1413.62 Q115.256 1405.43 119.144 1400.57 Q123.033 1395.68 129.584 1395.68 Q131.343 1395.68 133.126 1396.03 Q134.931 1396.38 136.876 1397.07 Z" fill="#000000" fill-rule="nonzero" fill-opacity="1" /><path clip-path="url(#clip310)" d="M147.223 1396.31 L165.579 1396.31 L165.579 1400.24 L151.505 1400.24 L151.505 1408.71 Q152.524 1408.37 153.542 1408.2 Q154.561 1408.02 155.579 1408.02 Q161.366 1408.02 164.746 1411.19 Q168.126 1414.36 168.126 1419.78 Q168.126 1425.36 164.653 1428.46 Q161.181 1431.54 154.862 1431.54 Q152.686 1431.54 150.417 1431.17 Q148.172 1430.8 145.765 1430.06 L145.765 1425.36 Q147.848 1426.49 150.07 1427.05 Q152.292 1427.6 154.769 1427.6 Q158.774 1427.6 161.112 1425.5 Q163.45 1423.39 163.45 1419.78 Q163.45 1416.17 161.112 1414.06 Q158.774 1411.95 154.769 1411.95 Q152.894 1411.95 151.019 1412.37 Q149.167 1412.79 147.223 1413.67 L147.223 1396.31 Z" fill="#000000" fill-rule="nonzero" fill-opacity="1" /><path clip-path="url(#clip310)" d="M177.339 1424.99 L182.223 1424.99 L182.223 1430.87 L177.339 1430.87 L177.339 1424.99 Z" fill="#000000" fill-rule="nonzero" fill-opacity="1" /><path clip-path="url(#clip310)" d="M192.454 1396.31 L210.811 1396.31 L210.811 1400.24 L196.737 1400.24 L196.737 1408.71 Q197.755 1408.37 198.774 1408.2 Q199.792 1408.02 200.811 1408.02 Q206.598 1408.02 209.977 1411.19 Q213.357 1414.36 213.357 1419.78 Q213.357 1425.36 209.885 1428.46 Q206.412 1431.54 200.093 1431.54 Q197.917 1431.54 195.649 1431.17 Q193.403 1430.8 190.996 1430.06 L190.996 1425.36 Q193.079 1426.49 195.301 1427.05 Q197.524 1427.6 200 1427.6 Q204.005 1427.6 206.343 1425.5 Q208.681 1423.39 208.681 1419.78 Q208.681 1416.17 206.343 1414.06 Q204.005 1411.95 200 1411.95 Q198.125 1411.95 196.25 1412.37 Q194.399 1412.79 192.454 1413.67 L192.454 1396.31 Z" fill="#000000" fill-rule="nonzero" fill-opacity="1" /><path clip-path="url(#clip310)" d="M126.598 1031.76 Q123.45 1031.76 121.598 1033.91 Q119.769 1036.07 119.769 1039.82 Q119.769 1043.54 121.598 1045.72 Q123.45 1047.87 126.598 1047.87 Q129.746 1047.87 131.575 1045.72 Q133.427 1043.54 133.427 1039.82 Q133.427 1036.07 131.575 1033.91 Q129.746 1031.76 126.598 1031.76 M135.88 1017.11 L135.88 1021.37 Q134.121 1020.53 132.316 1020.09 Q130.533 1019.65 128.774 1019.65 Q124.144 1019.65 121.691 1022.78 Q119.26 1025.9 118.913 1032.22 Q120.279 1030.21 122.339 1029.14 Q124.399 1028.06 126.876 1028.06 Q132.084 1028.06 135.093 1031.23 Q138.126 1034.38 138.126 1039.82 Q138.126 1045.14 134.978 1048.36 Q131.83 1051.58 126.598 1051.58 Q120.603 1051.58 117.431 1046.99 Q114.26 1042.39 114.26 1033.66 Q114.26 1025.46 118.149 1020.6 Q122.038 1015.72 128.589 1015.72 Q130.348 1015.72 132.13 1016.07 Q133.936 1016.41 135.88 1017.11 Z" fill="#000000" fill-rule="nonzero" fill-opacity="1" /><path clip-path="url(#clip310)" d="M156.76 1031.76 Q153.612 1031.76 151.76 1033.91 Q149.931 1036.07 149.931 1039.82 Q149.931 1043.54 151.76 1045.72 Q153.612 1047.87 156.76 1047.87 Q159.908 1047.87 161.737 1045.72 Q163.589 1043.54 163.589 1039.82 Q163.589 1036.07 161.737 1033.91 Q159.908 1031.76 156.76 1031.76 M166.042 1017.11 L166.042 1021.37 Q164.283 1020.53 162.477 1020.09 Q160.695 1019.65 158.936 1019.65 Q154.306 1019.65 151.853 1022.78 Q149.422 1025.9 149.075 1032.22 Q150.441 1030.21 152.501 1029.14 Q154.561 1028.06 157.038 1028.06 Q162.246 1028.06 165.255 1031.23 Q168.288 1034.38 168.288 1039.82 Q168.288 1045.14 165.14 1048.36 Q161.991 1051.58 156.76 1051.58 Q150.765 1051.58 147.593 1046.99 Q144.422 1042.39 144.422 1033.66 Q144.422 1025.46 148.311 1020.6 Q152.2 1015.72 158.751 1015.72 Q160.51 1015.72 162.292 1016.07 Q164.098 1016.41 166.042 1017.11 Z" fill="#000000" fill-rule="nonzero" fill-opacity="1" /><path clip-path="url(#clip310)" d="M176.343 1045.02 L181.227 1045.02 L181.227 1050.9 L176.343 1050.9 L176.343 1045.02 Z" fill="#000000" fill-rule="nonzero" fill-opacity="1" /><path clip-path="url(#clip310)" d="M201.412 1019.42 Q197.801 1019.42 195.973 1022.99 Q194.167 1026.53 194.167 1033.66 Q194.167 1040.77 195.973 1044.33 Q197.801 1047.87 201.412 1047.87 Q205.047 1047.87 206.852 1044.33 Q208.681 1040.77 208.681 1033.66 Q208.681 1026.53 206.852 1022.99 Q205.047 1019.42 201.412 1019.42 M201.412 1015.72 Q207.223 1015.72 210.278 1020.33 Q213.357 1024.91 213.357 1033.66 Q213.357 1042.39 210.278 1046.99 Q207.223 1051.58 201.412 1051.58 Q195.602 1051.58 192.524 1046.99 Q189.468 1042.39 189.468 1033.66 Q189.468 1024.91 192.524 1020.33 Q195.602 1015.72 201.412 1015.72 Z" fill="#000000" fill-rule="nonzero" fill-opacity="1" /><path clip-path="url(#clip310)" d="M127.593 651.798 Q124.445 651.798 122.593 653.95 Q120.765 656.103 120.765 659.853 Q120.765 663.58 122.593 665.756 Q124.445 667.909 127.593 667.909 Q130.742 667.909 132.57 665.756 Q134.422 663.58 134.422 659.853 Q134.422 656.103 132.57 653.95 Q130.742 651.798 127.593 651.798 M136.876 637.145 L136.876 641.404 Q135.117 640.571 133.311 640.131 Q131.529 639.691 129.769 639.691 Q125.14 639.691 122.686 642.816 Q120.255 645.941 119.908 652.261 Q121.274 650.247 123.334 649.182 Q125.394 648.094 127.871 648.094 Q133.08 648.094 136.089 651.265 Q139.121 654.413 139.121 659.853 Q139.121 665.177 135.973 668.395 Q132.825 671.612 127.593 671.612 Q121.598 671.612 118.427 667.029 Q115.256 662.423 115.256 653.696 Q115.256 645.501 119.144 640.64 Q123.033 635.756 129.584 635.756 Q131.343 635.756 133.126 636.103 Q134.931 636.451 136.876 637.145 Z" fill="#000000" fill-rule="nonzero" fill-opacity="1" /><path clip-path="url(#clip310)" d="M157.755 651.798 Q154.607 651.798 152.755 653.95 Q150.927 656.103 150.927 659.853 Q150.927 663.58 152.755 665.756 Q154.607 667.909 157.755 667.909 Q160.903 667.909 162.732 665.756 Q164.584 663.58 164.584 659.853 Q164.584 656.103 162.732 653.95 Q160.903 651.798 157.755 651.798 M167.038 637.145 L167.038 641.404 Q165.278 640.571 163.473 640.131 Q161.69 639.691 159.931 639.691 Q155.302 639.691 152.848 642.816 Q150.417 645.941 150.07 652.261 Q151.436 650.247 153.496 649.182 Q155.556 648.094 158.033 648.094 Q163.241 648.094 166.251 651.265 Q169.283 654.413 169.283 659.853 Q169.283 665.177 166.135 668.395 Q162.987 671.612 157.755 671.612 Q151.76 671.612 148.589 667.029 Q145.417 662.423 145.417 653.696 Q145.417 645.501 149.306 640.64 Q153.195 635.756 159.746 635.756 Q161.505 635.756 163.288 636.103 Q165.093 636.451 167.038 637.145 Z" fill="#000000" fill-rule="nonzero" fill-opacity="1" /><path clip-path="url(#clip310)" d="M177.339 665.062 L182.223 665.062 L182.223 670.941 L177.339 670.941 L177.339 665.062 Z" fill="#000000" fill-rule="nonzero" fill-opacity="1" /><path clip-path="url(#clip310)" d="M192.454 636.381 L210.811 636.381 L210.811 640.316 L196.737 640.316 L196.737 648.788 Q197.755 648.441 198.774 648.279 Q199.792 648.094 200.811 648.094 Q206.598 648.094 209.977 651.265 Q213.357 654.437 213.357 659.853 Q213.357 665.432 209.885 668.534 Q206.412 671.612 200.093 671.612 Q197.917 671.612 195.649 671.242 Q193.403 670.872 190.996 670.131 L190.996 665.432 Q193.079 666.566 195.301 667.122 Q197.524 667.677 200 667.677 Q204.005 667.677 206.343 665.571 Q208.681 663.464 208.681 659.853 Q208.681 656.242 206.343 654.136 Q204.005 652.029 200 652.029 Q198.125 652.029 196.25 652.446 Q194.399 652.863 192.454 653.742 L192.454 636.381 Z" fill="#000000" fill-rule="nonzero" fill-opacity="1" /><path clip-path="url(#clip310)" d="M126.598 271.835 Q123.45 271.835 121.598 273.988 Q119.769 276.14 119.769 279.89 Q119.769 283.617 121.598 285.793 Q123.45 287.946 126.598 287.946 Q129.746 287.946 131.575 285.793 Q133.427 283.617 133.427 279.89 Q133.427 276.14 131.575 273.988 Q129.746 271.835 126.598 271.835 M135.88 257.182 L135.88 261.441 Q134.121 260.608 132.316 260.168 Q130.533 259.728 128.774 259.728 Q124.144 259.728 121.691 262.853 Q119.26 265.978 118.913 272.298 Q120.279 270.284 122.339 269.219 Q124.399 268.131 126.876 268.131 Q132.084 268.131 135.093 271.302 Q138.126 274.451 138.126 279.89 Q138.126 285.214 134.978 288.432 Q131.83 291.65 126.598 291.65 Q120.603 291.65 117.431 287.066 Q114.26 282.46 114.26 273.733 Q114.26 265.539 118.149 260.678 Q122.038 255.793 128.589 255.793 Q130.348 255.793 132.13 256.141 Q133.936 256.488 135.88 257.182 Z" fill="#000000" fill-rule="nonzero" fill-opacity="1" /><path clip-path="url(#clip310)" d="M145.001 256.418 L167.223 256.418 L167.223 258.409 L154.677 290.978 L149.792 290.978 L161.598 260.353 L145.001 260.353 L145.001 256.418 Z" fill="#000000" fill-rule="nonzero" fill-opacity="1" /><path clip-path="url(#clip310)" d="M176.343 285.099 L181.227 285.099 L181.227 290.978 L176.343 290.978 L176.343 285.099 Z" fill="#000000" fill-rule="nonzero" fill-opacity="1" /><path clip-path="url(#clip310)" d="M201.412 259.497 Q197.801 259.497 195.973 263.062 Q194.167 266.603 194.167 273.733 Q194.167 280.839 195.973 284.404 Q197.801 287.946 201.412 287.946 Q205.047 287.946 206.852 284.404 Q208.681 280.839 208.681 273.733 Q208.681 266.603 206.852 263.062 Q205.047 259.497 201.412 259.497 M201.412 255.793 Q207.223 255.793 210.278 260.4 Q213.357 264.983 213.357 273.733 Q213.357 282.46 210.278 287.066 Q207.223 291.65 201.412 291.65 Q195.602 291.65 192.524 287.066 Q189.468 282.46 189.468 273.733 Q189.468 264.983 192.524 260.4 Q195.602 255.793 201.412 255.793 Z" fill="#000000" fill-rule="nonzero" fill-opacity="1" /><path clip-path="url(#clip310)" d="M22.818 922.094 L46.4666 930.815 L46.4666 913.341 L22.818 922.094 M16.4842 925.723 L16.4842 918.434 L64.0042 900.324 L64.0042 907.008 L51.8138 911.336 L51.8138 932.757 L64.0042 937.085 L64.0042 943.865 L16.4842 925.723 Z" fill="#000000" fill-rule="nonzero" fill-opacity="1" /><path clip-path="url(#clip310)" d="M45.7664 870.182 Q39.4007 870.182 35.8996 872.824 Q32.3984 875.434 32.3984 880.176 Q32.3984 884.887 35.8996 887.528 Q39.4007 890.138 45.7664 890.138 Q52.1003 890.138 55.6014 887.528 Q59.1026 884.887 59.1026 880.176 Q59.1026 875.434 55.6014 872.824 Q52.1003 870.182 45.7664 870.182 M59.58 864.325 Q68.683 864.325 73.1071 868.368 Q77.5631 872.41 77.5631 880.749 Q77.5631 883.836 77.0857 886.574 Q76.6401 889.311 75.6852 891.889 L69.9879 891.889 Q71.3884 889.311 72.0568 886.796 Q72.7252 884.282 72.7252 881.672 Q72.7252 875.911 69.7015 873.046 Q66.7096 870.182 60.6303 870.182 L57.7339 870.182 Q60.885 871.996 62.4446 874.829 Q64.0042 877.662 64.0042 881.608 Q64.0042 888.165 59.0071 892.175 Q54.01 896.186 45.7664 896.186 Q37.491 896.186 32.4939 892.175 Q27.4968 888.165 27.4968 881.608 Q27.4968 877.662 29.0564 874.829 Q30.616 871.996 33.7671 870.182 L28.3562 870.182 L28.3562 864.325 L59.58 864.325 Z" fill="#000000" fill-rule="nonzero" fill-opacity="1" /><path clip-path="url(#clip310)" d="M44.7161 821.771 L47.5806 821.771 L47.5806 848.698 Q53.6281 848.316 56.8109 845.069 Q59.9619 841.791 59.9619 835.966 Q59.9619 832.592 59.1344 829.441 Q58.3069 826.259 56.6518 823.139 L62.1899 823.139 Q63.5267 826.29 64.227 829.601 Q64.9272 832.911 64.9272 836.316 Q64.9272 844.846 59.9619 849.843 Q54.9967 854.809 46.5303 854.809 Q37.7774 854.809 32.6531 850.098 Q27.4968 845.356 27.4968 837.335 Q27.4968 830.142 32.1438 825.972 Q36.7589 821.771 44.7161 821.771 M42.9973 827.627 Q38.1912 827.691 35.3266 830.333 Q32.4621 832.943 32.4621 837.271 Q32.4621 842.173 35.2312 845.133 Q38.0002 848.061 43.0292 848.507 L42.9973 827.627 Z" fill="#000000" fill-rule="nonzero" fill-opacity="1" /><path clip-path="url(#clip310)" d="M14.5426 777.37 Q21.8632 781.635 29.0246 783.704 Q36.186 785.773 43.5384 785.773 Q50.8908 785.773 58.1159 783.704 Q65.3091 781.603 72.5979 777.37 L72.5979 782.462 Q65.1182 787.237 57.8931 789.624 Q50.668 791.979 43.5384 791.979 Q36.4406 791.979 29.2474 789.624 Q22.0542 787.269 14.5426 782.462 L14.5426 777.37 Z" fill="#000000" fill-rule="nonzero" fill-opacity="1" /><path clip-path="url(#clip310)" d="M16.4842 765.752 L16.4842 756.172 L48.8219 744.045 L16.4842 731.855 L16.4842 722.275 L64.0042 722.275 L64.0042 728.545 L22.277 728.545 L54.8694 740.799 L54.8694 747.26 L22.277 759.514 L64.0042 759.514 L64.0042 765.752 L16.4842 765.752 Z" fill="#000000" fill-rule="nonzero" fill-opacity="1" /><path clip-path="url(#clip310)" d="M46.0847 693.565 Q46.0847 700.663 47.7079 703.4 Q49.3312 706.138 53.2461 706.138 Q56.3653 706.138 58.2114 704.101 Q60.0256 702.032 60.0256 698.499 Q60.0256 693.629 56.5881 690.701 Q53.1188 687.741 47.3897 687.741 L46.0847 687.741 L46.0847 693.565 M43.6657 681.884 L64.0042 681.884 L64.0042 687.741 L58.5933 687.741 Q61.8398 689.746 63.3994 692.738 Q64.9272 695.73 64.9272 700.058 Q64.9272 705.533 61.8716 708.779 Q58.7843 711.994 53.6281 711.994 Q47.6125 711.994 44.5569 707.984 Q41.5014 703.941 41.5014 695.953 L41.5014 687.741 L40.9285 687.741 Q36.8862 687.741 34.6901 690.414 Q32.4621 693.056 32.4621 697.862 Q32.4621 700.918 33.1941 703.814 Q33.9262 706.711 35.3903 709.384 L29.9795 709.384 Q28.7381 706.169 28.1334 703.146 Q27.4968 700.122 27.4968 697.257 Q27.4968 689.523 31.5072 685.704 Q35.5176 681.884 43.6657 681.884 Z" fill="#000000" fill-rule="nonzero" fill-opacity="1" /><path clip-path="url(#clip310)" d="M14.5426 670.744 L14.5426 665.652 Q22.0542 660.877 29.2474 658.522 Q36.4406 656.135 43.5384 656.135 Q50.668 656.135 57.8931 658.522 Q65.1182 660.877 72.5979 665.652 L72.5979 670.744 Q65.3091 666.511 58.1159 664.442 Q50.8908 662.342 43.5384 662.342 Q36.186 662.342 29.0246 664.442 Q21.8632 666.511 14.5426 670.744 Z" fill="#000000" fill-rule="nonzero" fill-opacity="1" /><polyline clip-path="url(#clip311)" style="stroke:#009af9; stroke-linecap:round; stroke-linejoin:round; stroke-width:4; stroke-opacity:1; fill:none" points="308.887,1454.85 308.887,1164.44 "/>
<polyline clip-path="url(#clip311)" style="stroke:#009af9; stroke-linecap:round; stroke-linejoin:round; stroke-width:4; stroke-opacity:1; fill:none" points="705.755,1275.39 705.755,1149.49 "/>
<polyline clip-path="url(#clip311)" style="stroke:#009af9; stroke-linecap:round; stroke-linejoin:round; stroke-width:4; stroke-opacity:1; fill:none" points="1102.62,1202.78 1102.62,780.533 "/>
<polyline clip-path="url(#clip311)" style="stroke:#009af9; stroke-linecap:round; stroke-linejoin:round; stroke-width:4; stroke-opacity:1; fill:none" points="1499.49,1219.23 1499.49,747.94 "/>
<polyline clip-path="url(#clip311)" style="stroke:#009af9; stroke-linecap:round; stroke-linejoin:round; stroke-width:4; stroke-opacity:1; fill:none" points="1896.36,1129.39 1896.36,444.939 "/>
<polyline clip-path="url(#clip311)" style="stroke:#009af9; stroke-linecap:round; stroke-linejoin:round; stroke-width:4; stroke-opacity:1; fill:none" points="2293.23,565.918 2293.23,89.8529 "/>
<line clip-path="url(#clip311)" x1="324.887" y1="1454.85" x2="292.887" y2="1454.85" style="stroke:#009af9; stroke-width:4; stroke-opacity:1"/>
<line clip-path="url(#clip311)" x1="324.887" y1="1164.44" x2="292.887" y2="1164.44" style="stroke:#009af9; stroke-width:4; stroke-opacity:1"/>
<line clip-path="url(#clip311)" x1="721.755" y1="1275.39" x2="689.755" y2="1275.39" style="stroke:#009af9; stroke-width:4; stroke-opacity:1"/>
<line clip-path="url(#clip311)" x1="721.755" y1="1149.49" x2="689.755" y2="1149.49" style="stroke:#009af9; stroke-width:4; stroke-opacity:1"/>
<line clip-path="url(#clip311)" x1="1118.62" y1="1202.78" x2="1086.62" y2="1202.78" style="stroke:#009af9; stroke-width:4; stroke-opacity:1"/>
<line clip-path="url(#clip311)" x1="1118.62" y1="780.533" x2="1086.62" y2="780.533" style="stroke:#009af9; stroke-width:4; stroke-opacity:1"/>
<line clip-path="url(#clip311)" x1="1515.49" y1="1219.23" x2="1483.49" y2="1219.23" style="stroke:#009af9; stroke-width:4; stroke-opacity:1"/>
<line clip-path="url(#clip311)" x1="1515.49" y1="747.94" x2="1483.49" y2="747.94" style="stroke:#009af9; stroke-width:4; stroke-opacity:1"/>
<line clip-path="url(#clip311)" x1="1912.36" y1="1129.39" x2="1880.36" y2="1129.39" style="stroke:#009af9; stroke-width:4; stroke-opacity:1"/>
<line clip-path="url(#clip311)" x1="1912.36" y1="444.939" x2="1880.36" y2="444.939" style="stroke:#009af9; stroke-width:4; stroke-opacity:1"/>
<line clip-path="url(#clip311)" x1="2309.23" y1="565.918" x2="2277.23" y2="565.918" style="stroke:#009af9; stroke-width:4; stroke-opacity:1"/>
<line clip-path="url(#clip311)" x1="2309.23" y1="89.8529" x2="2277.23" y2="89.8529" style="stroke:#009af9; stroke-width:4; stroke-opacity:1"/>
<circle clip-path="url(#clip311)" cx="308.887" cy="1309.65" r="14.4" fill="#009af9" fill-rule="evenodd" fill-opacity="1" stroke="none"/>
<circle clip-path="url(#clip311)" cx="705.755" cy="1212.44" r="14.4" fill="#009af9" fill-rule="evenodd" fill-opacity="1" stroke="none"/>
<circle clip-path="url(#clip311)" cx="1102.62" cy="991.657" r="14.4" fill="#009af9" fill-rule="evenodd" fill-opacity="1" stroke="none"/>
<circle clip-path="url(#clip311)" cx="1499.49" cy="983.586" r="14.4" fill="#009af9" fill-rule="evenodd" fill-opacity="1" stroke="none"/>
<circle clip-path="url(#clip311)" cx="1896.36" cy="787.163" r="14.4" fill="#009af9" fill-rule="evenodd" fill-opacity="1" stroke="none"/>
<circle clip-path="url(#clip311)" cx="2293.23" cy="327.886" r="14.4" fill="#009af9" fill-rule="evenodd" fill-opacity="1" stroke="none"/>
<path clip-path="url(#clip311)" d="M308.887 1510.15 L705.755 1510.15 L1102.62 1510.15 L1499.49 1510.15 L1896.36 1510.15 L2293.23 1510.15 L2293.23 1210.67 L1896.36 1210.67 L1499.49 1210.67 L1102.62 1210.67 L705.755 1210.67 L308.887 1210.67  Z" fill="#e26f46" fill-rule="evenodd" fill-opacity="0.6"/>
<polyline clip-path="url(#clip311)" style="stroke:#e26f46; stroke-linecap:round; stroke-linejoin:round; stroke-width:4; stroke-opacity:0; fill:none" points="308.887,1510.15 705.755,1510.15 1102.62,1510.15 1499.49,1510.15 1896.36,1510.15 2293.23,1510.15 "/>
<polyline clip-path="url(#clip311)" style="stroke:#000000; stroke-linecap:round; stroke-linejoin:round; stroke-width:4; stroke-opacity:1; fill:none" stroke-dasharray="2, 4" points="308.887,1322.49 705.755,1322.49 1102.62,1322.49 1499.49,1322.49 1896.36,1322.49 2293.23,1322.49 "/>
<path clip-path="url(#clip310)" d="M319.47 252.948 L1295.52 252.948 L1295.52 97.4278 L319.47 97.4278  Z" fill="#ffffff" fill-rule="evenodd" fill-opacity="1"/>
<polyline clip-path="url(#clip310)" style="stroke:#ffffff; stroke-linecap:round; stroke-linejoin:round; stroke-width:4; stroke-opacity:1; fill:none" points="319.47,252.948 1295.52,252.948 1295.52,97.4278 319.47,97.4278 319.47,252.948 "/>
<circle clip-path="url(#clip310)" cx="412.955" cy="149.268" r="20.48" fill="#009af9" fill-rule="evenodd" fill-opacity="1" stroke="none"/>
<path clip-path="url(#clip310)" d="M511.115 135.83 L511.115 162.705 L516.763 162.705 Q523.916 162.705 527.226 159.465 Q530.559 156.224 530.559 149.233 Q530.559 142.289 527.226 139.071 Q523.916 135.83 516.763 135.83 L511.115 135.83 M506.439 131.988 L516.045 131.988 Q526.092 131.988 530.791 136.178 Q535.49 140.344 535.49 149.233 Q535.49 158.168 530.768 162.358 Q526.045 166.548 516.045 166.548 L506.439 166.548 L506.439 131.988 Z" fill="#000000" fill-rule="nonzero" fill-opacity="1" /><path clip-path="url(#clip310)" d="M554.541 153.515 Q549.379 153.515 547.388 154.696 Q545.397 155.877 545.397 158.724 Q545.397 160.992 546.879 162.335 Q548.383 163.654 550.953 163.654 Q554.494 163.654 556.624 161.154 Q558.777 158.631 558.777 154.465 L558.777 153.515 L554.541 153.515 M563.036 151.756 L563.036 166.548 L558.777 166.548 L558.777 162.613 Q557.318 164.974 555.142 166.108 Q552.966 167.219 549.818 167.219 Q545.837 167.219 543.476 164.997 Q541.138 162.752 541.138 159.002 Q541.138 154.627 544.054 152.404 Q546.994 150.182 552.804 150.182 L558.777 150.182 L558.777 149.766 Q558.777 146.826 556.832 145.228 Q554.911 143.608 551.416 143.608 Q549.193 143.608 547.087 144.141 Q544.98 144.673 543.036 145.738 L543.036 141.803 Q545.374 140.9 547.573 140.46 Q549.772 139.997 551.855 139.997 Q557.48 139.997 560.258 142.914 Q563.036 145.83 563.036 151.756 Z" fill="#000000" fill-rule="nonzero" fill-opacity="1" /><path clip-path="url(#clip310)" d="M576.022 133.261 L576.022 140.622 L584.795 140.622 L584.795 143.932 L576.022 143.932 L576.022 158.006 Q576.022 161.177 576.878 162.08 Q577.758 162.983 580.42 162.983 L584.795 162.983 L584.795 166.548 L580.42 166.548 Q575.49 166.548 573.615 164.719 Q571.74 162.867 571.74 158.006 L571.74 143.932 L568.615 143.932 L568.615 140.622 L571.74 140.622 L571.74 133.261 L576.022 133.261 Z" fill="#000000" fill-rule="nonzero" fill-opacity="1" /><path clip-path="url(#clip310)" d="M602.179 153.515 Q597.017 153.515 595.026 154.696 Q593.036 155.877 593.036 158.724 Q593.036 160.992 594.517 162.335 Q596.022 163.654 598.591 163.654 Q602.133 163.654 604.263 161.154 Q606.415 158.631 606.415 154.465 L606.415 153.515 L602.179 153.515 M610.675 151.756 L610.675 166.548 L606.415 166.548 L606.415 162.613 Q604.957 164.974 602.781 166.108 Q600.605 167.219 597.457 167.219 Q593.476 167.219 591.114 164.997 Q588.776 162.752 588.776 159.002 Q588.776 154.627 591.693 152.404 Q594.633 150.182 600.443 150.182 L606.415 150.182 L606.415 149.766 Q606.415 146.826 604.471 145.228 Q602.55 143.608 599.054 143.608 Q596.832 143.608 594.726 144.141 Q592.619 144.673 590.675 145.738 L590.675 141.803 Q593.013 140.9 595.212 140.46 Q597.411 139.997 599.494 139.997 Q605.119 139.997 607.897 142.914 Q610.675 145.83 610.675 151.756 Z" fill="#000000" fill-rule="nonzero" fill-opacity="1" /><path clip-path="url(#clip310)" d="M644.748 130.576 Q641.647 135.9 640.142 141.108 Q638.637 146.316 638.637 151.664 Q638.637 157.011 640.142 162.265 Q641.67 167.497 644.748 172.798 L641.045 172.798 Q637.573 167.358 635.836 162.103 Q634.123 156.849 634.123 151.664 Q634.123 146.502 635.836 141.27 Q637.549 136.039 641.045 130.576 L644.748 130.576 Z" fill="#000000" fill-rule="nonzero" fill-opacity="1" /><path clip-path="url(#clip310)" d="M663.058 143.608 Q659.633 143.608 657.642 146.293 Q655.651 148.955 655.651 153.608 Q655.651 158.261 657.619 160.946 Q659.609 163.608 663.058 163.608 Q666.461 163.608 668.452 160.923 Q670.443 158.238 670.443 153.608 Q670.443 149.002 668.452 146.316 Q666.461 143.608 663.058 143.608 M663.058 139.997 Q668.614 139.997 671.785 143.608 Q674.957 147.219 674.957 153.608 Q674.957 159.974 671.785 163.608 Q668.614 167.219 663.058 167.219 Q657.48 167.219 654.309 163.608 Q651.16 159.974 651.16 153.608 Q651.16 147.219 654.309 143.608 Q657.48 139.997 663.058 139.997 Z" fill="#000000" fill-rule="nonzero" fill-opacity="1" /><path clip-path="url(#clip310)" d="M700.628 153.608 Q700.628 148.909 698.683 146.247 Q696.762 143.562 693.382 143.562 Q690.003 143.562 688.058 146.247 Q686.137 148.909 686.137 153.608 Q686.137 158.307 688.058 160.992 Q690.003 163.654 693.382 163.654 Q696.762 163.654 698.683 160.992 Q700.628 158.307 700.628 153.608 M686.137 144.557 Q687.48 142.242 689.517 141.131 Q691.577 139.997 694.424 139.997 Q699.146 139.997 702.086 143.747 Q705.049 147.497 705.049 153.608 Q705.049 159.719 702.086 163.469 Q699.146 167.219 694.424 167.219 Q691.577 167.219 689.517 166.108 Q687.48 164.974 686.137 162.659 L686.137 166.548 L681.855 166.548 L681.855 130.529 L686.137 130.529 L686.137 144.557 Z" fill="#000000" fill-rule="nonzero" fill-opacity="1" /><path clip-path="url(#clip310)" d="M728.637 141.386 L728.637 145.414 Q726.831 144.488 724.887 144.025 Q722.942 143.562 720.859 143.562 Q717.688 143.562 716.091 144.534 Q714.517 145.506 714.517 147.451 Q714.517 148.932 715.651 149.789 Q716.785 150.622 720.211 151.386 L721.669 151.71 Q726.206 152.682 728.104 154.465 Q730.026 156.224 730.026 159.395 Q730.026 163.006 727.155 165.113 Q724.308 167.219 719.308 167.219 Q717.225 167.219 714.956 166.802 Q712.711 166.409 710.211 165.599 L710.211 161.201 Q712.572 162.427 714.864 163.052 Q717.155 163.654 719.401 163.654 Q722.41 163.654 724.03 162.636 Q725.651 161.594 725.651 159.719 Q725.651 157.983 724.47 157.057 Q723.313 156.131 719.354 155.275 L717.873 154.928 Q713.915 154.094 712.155 152.381 Q710.396 150.645 710.396 147.636 Q710.396 143.978 712.989 141.988 Q715.581 139.997 720.35 139.997 Q722.711 139.997 724.794 140.344 Q726.878 140.691 728.637 141.386 Z" fill="#000000" fill-rule="nonzero" fill-opacity="1" /><path clip-path="url(#clip310)" d="M758.984 152.52 L758.984 154.603 L739.401 154.603 Q739.678 159.002 742.04 161.316 Q744.424 163.608 748.66 163.608 Q751.114 163.608 753.405 163.006 Q755.72 162.404 757.989 161.201 L757.989 165.228 Q755.697 166.201 753.289 166.71 Q750.882 167.219 748.405 167.219 Q742.202 167.219 738.567 163.608 Q734.956 159.997 734.956 153.84 Q734.956 147.474 738.382 143.747 Q741.831 139.997 747.665 139.997 Q752.896 139.997 755.928 143.377 Q758.984 146.733 758.984 152.52 M754.725 151.27 Q754.678 147.775 752.757 145.691 Q750.859 143.608 747.711 143.608 Q744.146 143.608 741.993 145.622 Q739.864 147.636 739.54 151.293 L754.725 151.27 Z" fill="#000000" fill-rule="nonzero" fill-opacity="1" /><path clip-path="url(#clip310)" d="M780.998 144.603 Q780.28 144.187 779.424 144.002 Q778.59 143.793 777.572 143.793 Q773.961 143.793 772.016 146.154 Q770.095 148.492 770.095 152.89 L770.095 166.548 L765.813 166.548 L765.813 140.622 L770.095 140.622 L770.095 144.65 Q771.438 142.289 773.59 141.154 Q775.743 139.997 778.822 139.997 Q779.262 139.997 779.794 140.066 Q780.326 140.113 780.975 140.229 L780.998 144.603 Z" fill="#000000" fill-rule="nonzero" fill-opacity="1" /><path clip-path="url(#clip310)" d="M782.41 140.622 L786.924 140.622 L795.025 162.381 L803.127 140.622 L807.641 140.622 L797.919 166.548 L792.132 166.548 L782.41 140.622 Z" fill="#000000" fill-rule="nonzero" fill-opacity="1" /><path clip-path="url(#clip310)" d="M835.696 152.52 L835.696 154.603 L816.113 154.603 Q816.391 159.002 818.752 161.316 Q821.136 163.608 825.372 163.608 Q827.826 163.608 830.118 163.006 Q832.433 162.404 834.701 161.201 L834.701 165.228 Q832.409 166.201 830.002 166.71 Q827.595 167.219 825.118 167.219 Q818.914 167.219 815.28 163.608 Q811.669 159.997 811.669 153.84 Q811.669 147.474 815.095 143.747 Q818.544 139.997 824.377 139.997 Q829.609 139.997 832.641 143.377 Q835.696 146.733 835.696 152.52 M831.437 151.27 Q831.391 147.775 829.47 145.691 Q827.571 143.608 824.423 143.608 Q820.859 143.608 818.706 145.622 Q816.576 147.636 816.252 151.293 L831.437 151.27 Z" fill="#000000" fill-rule="nonzero" fill-opacity="1" /><path clip-path="url(#clip310)" d="M859.747 144.557 L859.747 130.529 L864.006 130.529 L864.006 166.548 L859.747 166.548 L859.747 162.659 Q858.405 164.974 856.344 166.108 Q854.307 167.219 851.437 167.219 Q846.738 167.219 843.775 163.469 Q840.835 159.719 840.835 153.608 Q840.835 147.497 843.775 143.747 Q846.738 139.997 851.437 139.997 Q854.307 139.997 856.344 141.131 Q858.405 142.242 859.747 144.557 M845.233 153.608 Q845.233 158.307 847.155 160.992 Q849.099 163.654 852.479 163.654 Q855.858 163.654 857.803 160.992 Q859.747 158.307 859.747 153.608 Q859.747 148.909 857.803 146.247 Q855.858 143.562 852.479 143.562 Q849.099 143.562 847.155 146.247 Q845.233 148.909 845.233 153.608 Z" fill="#000000" fill-rule="nonzero" fill-opacity="1" /><path clip-path="url(#clip310)" d="M899.631 153.515 Q894.469 153.515 892.479 154.696 Q890.488 155.877 890.488 158.724 Q890.488 160.992 891.969 162.335 Q893.474 163.654 896.043 163.654 Q899.585 163.654 901.715 161.154 Q903.867 158.631 903.867 154.465 L903.867 153.515 L899.631 153.515 M908.127 151.756 L908.127 166.548 L903.867 166.548 L903.867 162.613 Q902.409 164.974 900.233 166.108 Q898.057 167.219 894.909 167.219 Q890.928 167.219 888.567 164.997 Q886.229 162.752 886.229 159.002 Q886.229 154.627 889.145 152.404 Q892.085 150.182 897.895 150.182 L903.867 150.182 L903.867 149.766 Q903.867 146.826 901.923 145.228 Q900.002 143.608 896.506 143.608 Q894.284 143.608 892.178 144.141 Q890.071 144.673 888.127 145.738 L888.127 141.803 Q890.465 140.9 892.664 140.46 Q894.863 139.997 896.946 139.997 Q902.571 139.997 905.349 142.914 Q908.127 145.83 908.127 151.756 Z" fill="#000000" fill-rule="nonzero" fill-opacity="1" /><path clip-path="url(#clip310)" d="M933.96 153.284 Q933.96 148.654 932.039 146.108 Q930.14 143.562 926.691 143.562 Q923.265 143.562 921.344 146.108 Q919.446 148.654 919.446 153.284 Q919.446 157.89 921.344 160.437 Q923.265 162.983 926.691 162.983 Q930.14 162.983 932.039 160.437 Q933.96 157.89 933.96 153.284 M938.219 163.33 Q938.219 169.951 935.279 173.168 Q932.339 176.409 926.275 176.409 Q924.029 176.409 922.039 176.062 Q920.048 175.738 918.173 175.043 L918.173 170.9 Q920.048 171.918 921.877 172.404 Q923.705 172.89 925.603 172.89 Q929.793 172.89 931.876 170.691 Q933.96 168.515 933.96 164.094 L933.96 161.988 Q932.64 164.279 930.58 165.414 Q928.52 166.548 925.65 166.548 Q920.881 166.548 917.965 162.914 Q915.048 159.279 915.048 153.284 Q915.048 147.266 917.965 143.631 Q920.881 139.997 925.65 139.997 Q928.52 139.997 930.58 141.131 Q932.64 142.266 933.96 144.557 L933.96 140.622 L938.219 140.622 L938.219 163.33 Z" fill="#000000" fill-rule="nonzero" fill-opacity="1" /><path clip-path="url(#clip310)" d="M969.168 152.52 L969.168 154.603 L949.585 154.603 Q949.863 159.002 952.224 161.316 Q954.608 163.608 958.844 163.608 Q961.298 163.608 963.589 163.006 Q965.904 162.404 968.173 161.201 L968.173 165.228 Q965.881 166.201 963.474 166.71 Q961.066 167.219 958.589 167.219 Q952.386 167.219 948.751 163.608 Q945.14 159.997 945.14 153.84 Q945.14 147.474 948.566 143.747 Q952.015 139.997 957.849 139.997 Q963.08 139.997 966.112 143.377 Q969.168 146.733 969.168 152.52 M964.909 151.27 Q964.862 147.775 962.941 145.691 Q961.043 143.608 957.895 143.608 Q954.33 143.608 952.177 145.622 Q950.048 147.636 949.724 151.293 L964.909 151.27 Z" fill="#000000" fill-rule="nonzero" fill-opacity="1" /><path clip-path="url(#clip310)" d="M992.686 141.386 L992.686 145.414 Q990.881 144.488 988.936 144.025 Q986.992 143.562 984.909 143.562 Q981.737 143.562 980.14 144.534 Q978.566 145.506 978.566 147.451 Q978.566 148.932 979.7 149.789 Q980.835 150.622 984.26 151.386 L985.719 151.71 Q990.256 152.682 992.154 154.465 Q994.075 156.224 994.075 159.395 Q994.075 163.006 991.205 165.113 Q988.358 167.219 983.358 167.219 Q981.274 167.219 979.006 166.802 Q976.761 166.409 974.261 165.599 L974.261 161.201 Q976.622 162.427 978.913 163.052 Q981.205 163.654 983.45 163.654 Q986.46 163.654 988.08 162.636 Q989.7 161.594 989.7 159.719 Q989.7 157.983 988.52 157.057 Q987.362 156.131 983.404 155.275 L981.923 154.928 Q977.964 154.094 976.205 152.381 Q974.446 150.645 974.446 147.636 Q974.446 143.978 977.038 141.988 Q979.631 139.997 984.399 139.997 Q986.76 139.997 988.844 140.344 Q990.927 140.691 992.686 141.386 Z" fill="#000000" fill-rule="nonzero" fill-opacity="1" /><path clip-path="url(#clip310)" d="M1000.19 130.576 L1003.89 130.576 Q1007.36 136.039 1009.08 141.27 Q1010.81 146.502 1010.81 151.664 Q1010.81 156.849 1009.08 162.103 Q1007.36 167.358 1003.89 172.798 L1000.19 172.798 Q1003.26 167.497 1004.77 162.265 Q1006.3 157.011 1006.3 151.664 Q1006.3 146.316 1004.77 141.108 Q1003.26 135.9 1000.19 130.576 Z" fill="#000000" fill-rule="nonzero" fill-opacity="1" /><path clip-path="url(#clip310)" d="M342.841 221.844 L483.068 221.844 L483.068 180.372 L342.841 180.372 L342.841 221.844  Z" fill="#e26f46" fill-rule="evenodd" fill-opacity="0.6"/>
<polyline clip-path="url(#clip310)" style="stroke:#e26f46; stroke-linecap:round; stroke-linejoin:round; stroke-width:4; stroke-opacity:0; fill:none" points="342.841,180.372 483.068,180.372 "/>
<path clip-path="url(#clip310)" d="M506.439 183.828 L513.407 183.828 L522.226 207.346 L531.092 183.828 L538.059 183.828 L538.059 218.388 L533.499 218.388 L533.499 188.041 L524.587 211.744 L519.888 211.744 L510.976 188.041 L510.976 218.388 L506.439 218.388 L506.439 183.828 Z" fill="#000000" fill-rule="nonzero" fill-opacity="1" /><path clip-path="url(#clip310)" d="M557.203 195.448 Q553.777 195.448 551.786 198.133 Q549.795 200.795 549.795 205.448 Q549.795 210.101 551.763 212.786 Q553.754 215.448 557.203 215.448 Q560.605 215.448 562.596 212.763 Q564.587 210.078 564.587 205.448 Q564.587 200.842 562.596 198.156 Q560.605 195.448 557.203 195.448 M557.203 191.837 Q562.758 191.837 565.929 195.448 Q569.101 199.059 569.101 205.448 Q569.101 211.814 565.929 215.448 Q562.758 219.059 557.203 219.059 Q551.624 219.059 548.453 215.448 Q545.304 211.814 545.304 205.448 Q545.304 199.059 548.453 195.448 Q551.624 191.837 557.203 191.837 Z" fill="#000000" fill-rule="nonzero" fill-opacity="1" /><path clip-path="url(#clip310)" d="M593.221 196.397 L593.221 182.369 L597.48 182.369 L597.48 218.388 L593.221 218.388 L593.221 214.499 Q591.878 216.814 589.818 217.948 Q587.781 219.059 584.911 219.059 Q580.212 219.059 577.249 215.309 Q574.309 211.559 574.309 205.448 Q574.309 199.337 577.249 195.587 Q580.212 191.837 584.911 191.837 Q587.781 191.837 589.818 192.971 Q591.878 194.082 593.221 196.397 M578.707 205.448 Q578.707 210.147 580.628 212.832 Q582.573 215.494 585.952 215.494 Q589.332 215.494 591.276 212.832 Q593.221 210.147 593.221 205.448 Q593.221 200.749 591.276 198.087 Q589.332 195.402 585.952 195.402 Q582.573 195.402 580.628 198.087 Q578.707 200.749 578.707 205.448 Z" fill="#000000" fill-rule="nonzero" fill-opacity="1" /><path clip-path="url(#clip310)" d="M628.429 204.36 L628.429 206.443 L608.846 206.443 Q609.124 210.842 611.485 213.156 Q613.869 215.448 618.105 215.448 Q620.559 215.448 622.85 214.846 Q625.165 214.244 627.434 213.041 L627.434 217.068 Q625.142 218.041 622.735 218.55 Q620.327 219.059 617.85 219.059 Q611.647 219.059 608.012 215.448 Q604.401 211.837 604.401 205.68 Q604.401 199.314 607.827 195.587 Q611.276 191.837 617.11 191.837 Q622.341 191.837 625.374 195.217 Q628.429 198.573 628.429 204.36 M624.17 203.11 Q624.124 199.615 622.202 197.531 Q620.304 195.448 617.156 195.448 Q613.591 195.448 611.438 197.462 Q609.309 199.476 608.985 203.133 L624.17 203.11 Z" fill="#000000" fill-rule="nonzero" fill-opacity="1" /><path clip-path="url(#clip310)" d="M635.42 182.369 L639.679 182.369 L639.679 218.388 L635.42 218.388 L635.42 182.369 Z" fill="#000000" fill-rule="nonzero" fill-opacity="1" /><path clip-path="url(#clip310)" d="M673.892 182.416 Q670.79 187.74 669.285 192.948 Q667.781 198.156 667.781 203.504 Q667.781 208.851 669.285 214.105 Q670.813 219.337 673.892 224.638 L670.188 224.638 Q666.716 219.198 664.98 213.943 Q663.267 208.689 663.267 203.504 Q663.267 198.342 664.98 193.11 Q666.693 187.879 670.188 182.416 L673.892 182.416 Z" fill="#000000" fill-rule="nonzero" fill-opacity="1" /><path clip-path="url(#clip310)" d="M693.336 199.244 Q690.188 199.244 688.336 201.397 Q686.507 203.55 686.507 207.3 Q686.507 211.027 688.336 213.203 Q690.188 215.355 693.336 215.355 Q696.484 215.355 698.313 213.203 Q700.165 211.027 700.165 207.3 Q700.165 203.55 698.313 201.397 Q696.484 199.244 693.336 199.244 M702.618 184.592 L702.618 188.851 Q700.859 188.018 699.054 187.578 Q697.271 187.138 695.512 187.138 Q690.882 187.138 688.429 190.263 Q685.998 193.388 685.651 199.707 Q687.017 197.693 689.077 196.629 Q691.137 195.541 693.614 195.541 Q698.822 195.541 701.831 198.712 Q704.864 201.86 704.864 207.3 Q704.864 212.624 701.716 215.842 Q698.568 219.059 693.336 219.059 Q687.341 219.059 684.169 214.476 Q680.998 209.869 680.998 201.143 Q680.998 192.948 684.887 188.087 Q688.776 183.203 695.327 183.203 Q697.086 183.203 698.868 183.55 Q700.674 183.897 702.618 184.592 Z" fill="#000000" fill-rule="nonzero" fill-opacity="1" /><path clip-path="url(#clip310)" d="M712.966 183.828 L731.322 183.828 L731.322 187.763 L717.248 187.763 L717.248 196.235 Q718.267 195.888 719.285 195.726 Q720.304 195.541 721.322 195.541 Q727.109 195.541 730.489 198.712 Q733.868 201.883 733.868 207.3 Q733.868 212.879 730.396 215.98 Q726.924 219.059 720.604 219.059 Q718.429 219.059 716.16 218.689 Q713.915 218.318 711.507 217.578 L711.507 212.879 Q713.591 214.013 715.813 214.568 Q718.035 215.124 720.512 215.124 Q724.516 215.124 726.854 213.017 Q729.192 210.911 729.192 207.3 Q729.192 203.689 726.854 201.582 Q724.516 199.476 720.512 199.476 Q718.637 199.476 716.762 199.893 Q714.91 200.309 712.966 201.189 L712.966 183.828 Z" fill="#000000" fill-rule="nonzero" fill-opacity="1" /><path clip-path="url(#clip310)" d="M743.081 212.508 L747.965 212.508 L747.965 218.388 L743.081 218.388 L743.081 212.508 Z" fill="#000000" fill-rule="nonzero" fill-opacity="1" /><path clip-path="url(#clip310)" d="M768.729 199.244 Q765.581 199.244 763.729 201.397 Q761.901 203.55 761.901 207.3 Q761.901 211.027 763.729 213.203 Q765.581 215.355 768.729 215.355 Q771.877 215.355 773.706 213.203 Q775.558 211.027 775.558 207.3 Q775.558 203.55 773.706 201.397 Q771.877 199.244 768.729 199.244 M778.012 184.592 L778.012 188.851 Q776.252 188.018 774.447 187.578 Q772.664 187.138 770.905 187.138 Q766.276 187.138 763.822 190.263 Q761.391 193.388 761.044 199.707 Q762.41 197.693 764.47 196.629 Q766.53 195.541 769.007 195.541 Q774.215 195.541 777.225 198.712 Q780.257 201.86 780.257 207.3 Q780.257 212.624 777.109 215.842 Q773.961 219.059 768.729 219.059 Q762.734 219.059 759.563 214.476 Q756.391 209.869 756.391 201.143 Q756.391 192.948 760.28 188.087 Q764.169 183.203 770.72 183.203 Q772.479 183.203 774.262 183.55 Q776.067 183.897 778.012 184.592 Z" fill="#000000" fill-rule="nonzero" fill-opacity="1" /><path clip-path="url(#clip310)" d="M792.34 214.453 L808.66 214.453 L808.66 218.388 L786.715 218.388 L786.715 214.453 Q789.377 211.698 793.961 207.068 Q798.567 202.416 799.748 201.073 Q801.993 198.55 802.873 196.814 Q803.775 195.055 803.775 193.365 Q803.775 190.61 801.831 188.874 Q799.91 187.138 796.808 187.138 Q794.609 187.138 792.155 187.902 Q789.724 188.666 786.947 190.217 L786.947 185.494 Q789.771 184.36 792.224 183.782 Q794.678 183.203 796.715 183.203 Q802.086 183.203 805.28 185.888 Q808.474 188.573 808.474 193.064 Q808.474 195.194 807.664 197.115 Q806.877 199.013 804.771 201.606 Q804.192 202.277 801.09 205.494 Q797.988 208.689 792.34 214.453 Z" fill="#000000" fill-rule="nonzero" fill-opacity="1" /><path clip-path="url(#clip310)" d="M850.28 188.666 L850.28 201.559 L863.173 201.559 L863.173 205.494 L850.28 205.494 L850.28 218.388 L846.391 218.388 L846.391 205.494 L833.497 205.494 L833.497 201.559 L846.391 201.559 L846.391 188.666 L850.28 188.666 Z" fill="#000000" fill-rule="nonzero" fill-opacity="1" /><path clip-path="url(#clip310)" d="M883.266 186.907 Q879.655 186.907 877.826 190.471 Q876.02 194.013 876.02 201.143 Q876.02 208.249 877.826 211.814 Q879.655 215.355 883.266 215.355 Q886.9 215.355 888.705 211.814 Q890.534 208.249 890.534 201.143 Q890.534 194.013 888.705 190.471 Q886.9 186.907 883.266 186.907 M883.266 183.203 Q889.076 183.203 892.131 187.809 Q895.21 192.393 895.21 201.143 Q895.21 209.869 892.131 214.476 Q889.076 219.059 883.266 219.059 Q877.455 219.059 874.377 214.476 Q871.321 209.869 871.321 201.143 Q871.321 192.393 874.377 187.809 Q877.455 183.203 883.266 183.203 Z" fill="#000000" fill-rule="nonzero" fill-opacity="1" /><path clip-path="url(#clip310)" d="M903.428 212.508 L908.312 212.508 L908.312 218.388 L903.428 218.388 L903.428 212.508 Z" fill="#000000" fill-rule="nonzero" fill-opacity="1" /><path clip-path="url(#clip310)" d="M919.307 214.453 L926.946 214.453 L926.946 188.087 L918.636 189.754 L918.636 185.494 L926.9 183.828 L931.576 183.828 L931.576 214.453 L939.214 214.453 L939.214 218.388 L919.307 218.388 L919.307 214.453 Z" fill="#000000" fill-rule="nonzero" fill-opacity="1" /><path clip-path="url(#clip310)" d="M961.506 187.902 L949.7 206.351 L961.506 206.351 L961.506 187.902 M960.279 183.828 L966.159 183.828 L966.159 206.351 L971.089 206.351 L971.089 210.24 L966.159 210.24 L966.159 218.388 L961.506 218.388 L961.506 210.24 L945.904 210.24 L945.904 205.726 L960.279 183.828 Z" fill="#000000" fill-rule="nonzero" fill-opacity="1" /><path clip-path="url(#clip310)" d="M977.64 183.828 L999.862 183.828 L999.862 185.819 L987.316 218.388 L982.432 218.388 L994.237 187.763 L977.64 187.763 L977.64 183.828 Z" fill="#000000" fill-rule="nonzero" fill-opacity="1" /><path clip-path="url(#clip310)" d="M1015.95 183.828 L1019.89 183.828 L1007.85 222.786 L1003.91 222.786 L1015.95 183.828 Z" fill="#000000" fill-rule="nonzero" fill-opacity="1" /><path clip-path="url(#clip310)" d="M1022.2 203.504 L1034.68 203.504 L1034.68 207.3 L1022.2 207.3 L1022.2 203.504 Z" fill="#000000" fill-rule="nonzero" fill-opacity="1" /><path clip-path="url(#clip310)" d="M1052.06 186.907 Q1048.45 186.907 1046.62 190.471 Q1044.82 194.013 1044.82 201.143 Q1044.82 208.249 1046.62 211.814 Q1048.45 215.355 1052.06 215.355 Q1055.7 215.355 1057.5 211.814 Q1059.33 208.249 1059.33 201.143 Q1059.33 194.013 1057.5 190.471 Q1055.7 186.907 1052.06 186.907 M1052.06 183.203 Q1057.87 183.203 1060.93 187.809 Q1064.01 192.393 1064.01 201.143 Q1064.01 209.869 1060.93 214.476 Q1057.87 219.059 1052.06 219.059 Q1046.25 219.059 1043.17 214.476 Q1040.12 209.869 1040.12 201.143 Q1040.12 192.393 1043.17 187.809 Q1046.25 183.203 1052.06 183.203 Z" fill="#000000" fill-rule="nonzero" fill-opacity="1" /><path clip-path="url(#clip310)" d="M1072.22 212.508 L1077.11 212.508 L1077.11 218.388 L1072.22 218.388 L1072.22 212.508 Z" fill="#000000" fill-rule="nonzero" fill-opacity="1" /><path clip-path="url(#clip310)" d="M1091.32 214.453 L1107.64 214.453 L1107.64 218.388 L1085.7 218.388 L1085.7 214.453 Q1088.36 211.698 1092.94 207.068 Q1097.55 202.416 1098.73 201.073 Q1100.97 198.55 1101.85 196.814 Q1102.76 195.055 1102.76 193.365 Q1102.76 190.61 1100.81 188.874 Q1098.89 187.138 1095.79 187.138 Q1093.59 187.138 1091.13 187.902 Q1088.7 188.666 1085.93 190.217 L1085.93 185.494 Q1088.75 184.36 1091.2 183.782 Q1093.66 183.203 1095.7 183.203 Q1101.07 183.203 1104.26 185.888 Q1107.45 188.573 1107.45 193.064 Q1107.45 195.194 1106.64 197.115 Q1105.86 199.013 1103.75 201.606 Q1103.17 202.277 1100.07 205.494 Q1096.97 208.689 1091.32 214.453 Z" fill="#000000" fill-rule="nonzero" fill-opacity="1" /><path clip-path="url(#clip310)" d="M1130.3 187.902 L1118.5 206.351 L1130.3 206.351 L1130.3 187.902 M1129.07 183.828 L1134.95 183.828 L1134.95 206.351 L1139.88 206.351 L1139.88 210.24 L1134.95 210.24 L1134.95 218.388 L1130.3 218.388 L1130.3 210.24 L1114.7 210.24 L1114.7 205.726 L1129.07 183.828 Z" fill="#000000" fill-rule="nonzero" fill-opacity="1" /><path clip-path="url(#clip310)" d="M1146.44 183.828 L1168.66 183.828 L1168.66 185.819 L1156.11 218.388 L1151.23 218.388 L1163.03 187.763 L1146.44 187.763 L1146.44 183.828 Z" fill="#000000" fill-rule="nonzero" fill-opacity="1" /><path clip-path="url(#clip310)" d="M1192.43 183.828 L1199.4 183.828 L1208.22 207.346 L1217.08 183.828 L1224.05 183.828 L1224.05 218.388 L1219.49 218.388 L1219.49 188.041 L1210.58 211.744 L1205.88 211.744 L1196.97 188.041 L1196.97 218.388 L1192.43 218.388 L1192.43 183.828 Z" fill="#000000" fill-rule="nonzero" fill-opacity="1" /><path clip-path="url(#clip310)" d="M1244.93 205.355 Q1239.77 205.355 1237.78 206.536 Q1235.79 207.717 1235.79 210.564 Q1235.79 212.832 1237.27 214.175 Q1238.77 215.494 1241.34 215.494 Q1244.88 215.494 1247.01 212.994 Q1249.17 210.471 1249.17 206.305 L1249.17 205.355 L1244.93 205.355 M1253.43 203.596 L1253.43 218.388 L1249.17 218.388 L1249.17 214.453 Q1247.71 216.814 1245.53 217.948 Q1243.36 219.059 1240.21 219.059 Q1236.23 219.059 1233.87 216.837 Q1231.53 214.592 1231.53 210.842 Q1231.53 206.467 1234.44 204.244 Q1237.38 202.022 1243.19 202.022 L1249.17 202.022 L1249.17 201.606 Q1249.17 198.666 1247.22 197.068 Q1245.3 195.448 1241.81 195.448 Q1239.58 195.448 1237.48 195.981 Q1235.37 196.513 1233.43 197.578 L1233.43 193.643 Q1235.76 192.74 1237.96 192.3 Q1240.16 191.837 1242.25 191.837 Q1247.87 191.837 1250.65 194.754 Q1253.43 197.67 1253.43 203.596 Z" fill="#000000" fill-rule="nonzero" fill-opacity="1" /><path clip-path="url(#clip310)" d="M1261.53 182.416 L1265.23 182.416 Q1268.7 187.879 1270.42 193.11 Q1272.15 198.342 1272.15 203.504 Q1272.15 208.689 1270.42 213.943 Q1268.7 219.198 1265.23 224.638 L1261.53 224.638 Q1264.61 219.337 1266.11 214.105 Q1267.64 208.851 1267.64 203.504 Q1267.64 198.156 1266.11 192.948 Q1264.61 187.74 1261.53 182.416 Z" fill="#000000" fill-rule="nonzero" fill-opacity="1" /></svg>
