<?xml version="1.0" encoding="utf-8"?>
<svg xmlns="http://www.w3.org/2000/svg" xmlns:xlink="http://www.w3.org/1999/xlink" width="600" height="400" viewBox="0 0 2400 1600">
<defs>
  <clipPath id="clip360">
    <rect x="0" y="0" width="2400" height="1600"/>
  </clipPath>
</defs>
<path clip-path="url(#clip360)" d="M0 1600 L2400 1600 L2400 8.88178e-14 L0 8.88178e-14  Z" fill="#ffffff" fill-rule="evenodd" fill-opacity="1"/>
<defs>
  <clipPath id="clip361">
    <rect x="249" y="47" width="2104" height="1507"/>
  </clipPath>
</defs>
<path clip-path="url(#clip360)" d="M175.445 1423.18 L2352.76 1423.18 L2352.76 47.2441 L175.445 47.2441  Z" fill="#ffffff" fill-rule="evenodd" fill-opacity="1"/>
<defs>
  <clipPath id="clip362">
    <rect x="175" y="47" width="2178" height="1377"/>
  </clipPath>
</defs>
<polyline clip-path="url(#clip362)" style="stroke:#000000; stroke-linecap:round; stroke-linejoin:round; stroke-width:2; stroke-opacity:0.1; fill:none" points="177.013,1423.18 177.013,47.2441 "/>
<polyline clip-path="url(#clip362)" style="stroke:#000000; stroke-linecap:round; stroke-linejoin:round; stroke-width:2; stroke-opacity:0.1; fill:none" points="624.808,1423.18 624.808,47.2441 "/>
<polyline clip-path="url(#clip362)" style="stroke:#000000; stroke-linecap:round; stroke-linejoin:round; stroke-width:2; stroke-opacity:0.1; fill:none" points="1072.6,1423.18 1072.6,47.2441 "/>
<polyline clip-path="url(#clip362)" style="stroke:#000000; stroke-linecap:round; stroke-linejoin:round; stroke-width:2; stroke-opacity:0.1; fill:none" points="1520.4,1423.18 1520.4,47.2441 "/>
<polyline clip-path="url(#clip362)" style="stroke:#000000; stroke-linecap:round; stroke-linejoin:round; stroke-width:2; stroke-opacity:0.1; fill:none" points="1968.19,1423.18 1968.19,47.2441 "/>
<polyline clip-path="url(#clip362)" style="stroke:#000000; stroke-linecap:round; stroke-linejoin:round; stroke-width:2; stroke-opacity:0.1; fill:none" points="177.013,1423.18 177.013,47.2441 "/>
<polyline clip-path="url(#clip362)" style="stroke:#000000; stroke-linecap:round; stroke-linejoin:round; stroke-width:2; stroke-opacity:0.1; fill:none" points="624.808,1423.18 624.808,47.2441 "/>
<polyline clip-path="url(#clip362)" style="stroke:#000000; stroke-linecap:round; stroke-linejoin:round; stroke-width:2; stroke-opacity:0.1; fill:none" points="1072.6,1423.18 1072.6,47.2441 "/>
<polyline clip-path="url(#clip362)" style="stroke:#000000; stroke-linecap:round; stroke-linejoin:round; stroke-width:2; stroke-opacity:0.1; fill:none" points="1520.4,1423.18 1520.4,47.2441 "/>
<polyline clip-path="url(#clip362)" style="stroke:#000000; stroke-linecap:round; stroke-linejoin:round; stroke-width:2; stroke-opacity:0.1; fill:none" points="1968.19,1423.18 1968.19,47.2441 "/>
<polyline clip-path="url(#clip362)" style="stroke:#000000; stroke-linecap:round; stroke-linejoin:round; stroke-width:2; stroke-opacity:0.1; fill:none" points="175.445,1384.24 2352.76,1384.24 "/>
<polyline clip-path="url(#clip362)" style="stroke:#000000; stroke-linecap:round; stroke-linejoin:round; stroke-width:2; stroke-opacity:0.1; fill:none" points="175.445,1101.97 2352.76,1101.97 "/>
<polyline clip-path="url(#clip362)" style="stroke:#000000; stroke-linecap:round; stroke-linejoin:round; stroke-width:2; stroke-opacity:0.1; fill:none" points="175.445,819.71 2352.76,819.71 "/>
<polyline clip-path="url(#clip362)" style="stroke:#000000; stroke-linecap:round; stroke-linejoin:round; stroke-width:2; stroke-opacity:0.1; fill:none" points="175.445,537.445 2352.76,537.445 "/>
<polyline clip-path="url(#clip362)" style="stroke:#000000; stroke-linecap:round; stroke-linejoin:round; stroke-width:2; stroke-opacity:0.1; fill:none" points="175.445,255.181 2352.76,255.181 "/>
<polyline clip-path="url(#clip362)" style="stroke:#000000; stroke-linecap:round; stroke-linejoin:round; stroke-width:2; stroke-opacity:0.1; fill:none" points="175.445,1384.24 2352.76,1384.24 "/>
<polyline clip-path="url(#clip362)" style="stroke:#000000; stroke-linecap:round; stroke-linejoin:round; stroke-width:2; stroke-opacity:0.1; fill:none" points="175.445,1101.97 2352.76,1101.97 "/>
<polyline clip-path="url(#clip362)" style="stroke:#000000; stroke-linecap:round; stroke-linejoin:round; stroke-width:2; stroke-opacity:0.1; fill:none" points="175.445,819.71 2352.76,819.71 "/>
<polyline clip-path="url(#clip362)" style="stroke:#000000; stroke-linecap:round; stroke-linejoin:round; stroke-width:2; stroke-opacity:0.1; fill:none" points="175.445,537.445 2352.76,537.445 "/>
<polyline clip-path="url(#clip362)" style="stroke:#000000; stroke-linecap:round; stroke-linejoin:round; stroke-width:2; stroke-opacity:0.1; fill:none" points="175.445,255.181 2352.76,255.181 "/>
<polyline clip-path="url(#clip360)" style="stroke:#000000; stroke-linecap:round; stroke-linejoin:round; stroke-width:4; stroke-opacity:1; fill:none" points="175.445,1423.18 2352.76,1423.18 "/>
<polyline clip-path="url(#clip360)" style="stroke:#000000; stroke-linecap:round; stroke-linejoin:round; stroke-width:4; stroke-opacity:1; fill:none" points="175.445,47.2441 2352.76,47.2441 "/>
<polyline clip-path="url(#clip360)" style="stroke:#000000; stroke-linecap:round; stroke-linejoin:round; stroke-width:4; stroke-opacity:1; fill:none" points="177.013,1423.18 177.013,1404.28 "/>
<polyline clip-path="url(#clip360)" style="stroke:#000000; stroke-linecap:round; stroke-linejoin:round; stroke-width:4; stroke-opacity:1; fill:none" points="624.808,1423.18 624.808,1404.28 "/>
<polyline clip-path="url(#clip360)" style="stroke:#000000; stroke-linecap:round; stroke-linejoin:round; stroke-width:4; stroke-opacity:1; fill:none" points="1072.6,1423.18 1072.6,1404.28 "/>
<polyline clip-path="url(#clip360)" style="stroke:#000000; stroke-linecap:round; stroke-linejoin:round; stroke-width:4; stroke-opacity:1; fill:none" points="1520.4,1423.18 1520.4,1404.28 "/>
<polyline clip-path="url(#clip360)" style="stroke:#000000; stroke-linecap:round; stroke-linejoin:round; stroke-width:4; stroke-opacity:1; fill:none" points="1968.19,1423.18 1968.19,1404.28 "/>
<polyline clip-path="url(#clip360)" style="stroke:#000000; stroke-linecap:round; stroke-linejoin:round; stroke-width:4; stroke-opacity:1; fill:none" points="177.013,47.2441 177.013,66.1417 "/>
<polyline clip-path="url(#clip360)" style="stroke:#000000; stroke-linecap:round; stroke-linejoin:round; stroke-width:4; stroke-opacity:1; fill:none" points="624.808,47.2441 624.808,66.1417 "/>
<polyline clip-path="url(#clip360)" style="stroke:#000000; stroke-linecap:round; stroke-linejoin:round; stroke-width:4; stroke-opacity:1; fill:none" points="1072.6,47.2441 1072.6,66.1417 "/>
<polyline clip-path="url(#clip360)" style="stroke:#000000; stroke-linecap:round; stroke-linejoin:round; stroke-width:4; stroke-opacity:1; fill:none" points="1520.4,47.2441 1520.4,66.1417 "/>
<polyline clip-path="url(#clip360)" style="stroke:#000000; stroke-linecap:round; stroke-linejoin:round; stroke-width:4; stroke-opacity:1; fill:none" points="1968.19,47.2441 1968.19,66.1417 "/>
<path clip-path="url(#clip360)" d="M140.3 1466.44 Q137.152 1466.44 135.3 1468.59 Q133.471 1470.74 133.471 1474.49 Q133.471 1478.22 135.3 1480.39 Q137.152 1482.55 140.3 1482.55 Q143.448 1482.55 145.277 1480.39 Q147.129 1478.22 147.129 1474.49 Q147.129 1470.74 145.277 1468.59 Q143.448 1466.44 140.3 1466.44 M149.582 1451.78 L149.582 1456.04 Q147.823 1455.21 146.017 1454.77 Q144.235 1454.33 142.476 1454.33 Q137.846 1454.33 135.393 1457.45 Q132.962 1460.58 132.615 1466.9 Q133.981 1464.89 136.041 1463.82 Q138.101 1462.73 140.578 1462.73 Q145.786 1462.73 148.795 1465.9 Q151.828 1469.05 151.828 1474.49 Q151.828 1479.82 148.68 1483.03 Q145.531 1486.25 140.3 1486.25 Q134.305 1486.25 131.133 1481.67 Q127.962 1477.06 127.962 1468.33 Q127.962 1460.14 131.851 1455.28 Q135.74 1450.39 142.291 1450.39 Q144.05 1450.39 145.832 1450.74 Q147.638 1451.09 149.582 1451.78 Z" fill="#000000" fill-rule="nonzero" fill-opacity="1" /><path clip-path="url(#clip360)" d="M174.05 1466.95 Q177.406 1467.66 179.281 1469.93 Q181.179 1472.2 181.179 1475.53 Q181.179 1480.65 177.661 1483.45 Q174.142 1486.25 167.661 1486.25 Q165.485 1486.25 163.17 1485.81 Q160.879 1485.39 158.425 1484.54 L158.425 1480.02 Q160.369 1481.16 162.684 1481.74 Q164.999 1482.32 167.522 1482.32 Q171.92 1482.32 174.212 1480.58 Q176.527 1478.84 176.527 1475.53 Q176.527 1472.48 174.374 1470.77 Q172.244 1469.03 168.425 1469.03 L164.397 1469.03 L164.397 1465.19 L168.61 1465.19 Q172.059 1465.19 173.888 1463.82 Q175.716 1462.43 175.716 1459.84 Q175.716 1457.18 173.818 1455.77 Q171.943 1454.33 168.425 1454.33 Q166.503 1454.33 164.304 1454.75 Q162.105 1455.16 159.466 1456.04 L159.466 1451.88 Q162.129 1451.14 164.443 1450.77 Q166.781 1450.39 168.841 1450.39 Q174.165 1450.39 177.267 1452.83 Q180.369 1455.23 180.369 1459.35 Q180.369 1462.22 178.726 1464.21 Q177.082 1466.18 174.05 1466.95 Z" fill="#000000" fill-rule="nonzero" fill-opacity="1" /><path clip-path="url(#clip360)" d="M190.045 1479.7 L194.929 1479.7 L194.929 1485.58 L190.045 1485.58 L190.045 1479.7 Z" fill="#000000" fill-rule="nonzero" fill-opacity="1" /><path clip-path="url(#clip360)" d="M205.161 1451.02 L223.517 1451.02 L223.517 1454.96 L209.443 1454.96 L209.443 1463.43 Q210.462 1463.08 211.48 1462.92 Q212.499 1462.73 213.517 1462.73 Q219.304 1462.73 222.684 1465.9 Q226.063 1469.08 226.063 1474.49 Q226.063 1480.07 222.591 1483.17 Q219.119 1486.25 212.8 1486.25 Q210.624 1486.25 208.355 1485.88 Q206.11 1485.51 203.702 1484.77 L203.702 1480.07 Q205.786 1481.2 208.008 1481.76 Q210.23 1482.32 212.707 1482.32 Q216.712 1482.32 219.05 1480.21 Q221.387 1478.1 221.387 1474.49 Q221.387 1470.88 219.05 1468.77 Q216.712 1466.67 212.707 1466.67 Q210.832 1466.67 208.957 1467.08 Q207.105 1467.5 205.161 1468.38 L205.161 1451.02 Z" fill="#000000" fill-rule="nonzero" fill-opacity="1" /><path clip-path="url(#clip360)" d="M587.597 1466.44 Q584.449 1466.44 582.597 1468.59 Q580.769 1470.74 580.769 1474.49 Q580.769 1478.22 582.597 1480.39 Q584.449 1482.55 587.597 1482.55 Q590.746 1482.55 592.574 1480.39 Q594.426 1478.22 594.426 1474.49 Q594.426 1470.74 592.574 1468.59 Q590.746 1466.44 587.597 1466.44 M596.88 1451.78 L596.88 1456.04 Q595.12 1455.21 593.315 1454.77 Q591.533 1454.33 589.773 1454.33 Q585.144 1454.33 582.69 1457.45 Q580.259 1460.58 579.912 1466.9 Q581.278 1464.89 583.338 1463.82 Q585.398 1462.73 587.875 1462.73 Q593.083 1462.73 596.093 1465.9 Q599.125 1469.05 599.125 1474.49 Q599.125 1479.82 595.977 1483.03 Q592.829 1486.25 587.597 1486.25 Q581.602 1486.25 578.431 1481.67 Q575.259 1477.06 575.259 1468.33 Q575.259 1460.14 579.148 1455.28 Q583.037 1450.39 589.588 1450.39 Q591.347 1450.39 593.13 1450.74 Q594.935 1451.09 596.88 1451.78 Z" fill="#000000" fill-rule="nonzero" fill-opacity="1" /><path clip-path="url(#clip360)" d="M620.028 1455.09 L608.222 1473.54 L620.028 1473.54 L620.028 1455.09 M618.801 1451.02 L624.681 1451.02 L624.681 1473.54 L629.611 1473.54 L629.611 1477.43 L624.681 1477.43 L624.681 1485.58 L620.028 1485.58 L620.028 1477.43 L604.426 1477.43 L604.426 1472.92 L618.801 1451.02 Z" fill="#000000" fill-rule="nonzero" fill-opacity="1" /><path clip-path="url(#clip360)" d="M637.342 1479.7 L642.227 1479.7 L642.227 1485.58 L637.342 1485.58 L637.342 1479.7 Z" fill="#000000" fill-rule="nonzero" fill-opacity="1" /><path clip-path="url(#clip360)" d="M662.412 1454.1 Q658.801 1454.1 656.972 1457.66 Q655.166 1461.2 655.166 1468.33 Q655.166 1475.44 656.972 1479.01 Q658.801 1482.55 662.412 1482.55 Q666.046 1482.55 667.852 1479.01 Q669.68 1475.44 669.68 1468.33 Q669.68 1461.2 667.852 1457.66 Q666.046 1454.1 662.412 1454.1 M662.412 1450.39 Q668.222 1450.39 671.277 1455 Q674.356 1459.58 674.356 1468.33 Q674.356 1477.06 671.277 1481.67 Q668.222 1486.25 662.412 1486.25 Q656.602 1486.25 653.523 1481.67 Q650.467 1477.06 650.467 1468.33 Q650.467 1459.58 653.523 1455 Q656.602 1450.39 662.412 1450.39 Z" fill="#000000" fill-rule="nonzero" fill-opacity="1" /><path clip-path="url(#clip360)" d="M1035.89 1466.44 Q1032.74 1466.44 1030.89 1468.59 Q1029.06 1470.74 1029.06 1474.49 Q1029.06 1478.22 1030.89 1480.39 Q1032.74 1482.55 1035.89 1482.55 Q1039.04 1482.55 1040.87 1480.39 Q1042.72 1478.22 1042.72 1474.49 Q1042.72 1470.74 1040.87 1468.59 Q1039.04 1466.44 1035.89 1466.44 M1045.17 1451.78 L1045.17 1456.04 Q1043.41 1455.21 1041.61 1454.77 Q1039.83 1454.33 1038.07 1454.33 Q1033.44 1454.33 1030.98 1457.45 Q1028.55 1460.58 1028.21 1466.9 Q1029.57 1464.89 1031.63 1463.82 Q1033.69 1462.73 1036.17 1462.73 Q1041.38 1462.73 1044.39 1465.9 Q1047.42 1469.05 1047.42 1474.49 Q1047.42 1479.82 1044.27 1483.03 Q1041.12 1486.25 1035.89 1486.25 Q1029.89 1486.25 1026.72 1481.67 Q1023.55 1477.06 1023.55 1468.33 Q1023.55 1460.14 1027.44 1455.28 Q1031.33 1450.39 1037.88 1450.39 Q1039.64 1450.39 1041.42 1450.74 Q1043.23 1451.09 1045.17 1451.78 Z" fill="#000000" fill-rule="nonzero" fill-opacity="1" /><path clip-path="url(#clip360)" d="M1068.32 1455.09 L1056.52 1473.54 L1068.32 1473.54 L1068.32 1455.09 M1067.09 1451.02 L1072.97 1451.02 L1072.97 1473.54 L1077.9 1473.54 L1077.9 1477.43 L1072.97 1477.43 L1072.97 1485.58 L1068.32 1485.58 L1068.32 1477.43 L1052.72 1477.43 L1052.72 1472.92 L1067.09 1451.02 Z" fill="#000000" fill-rule="nonzero" fill-opacity="1" /><path clip-path="url(#clip360)" d="M1085.64 1479.7 L1090.52 1479.7 L1090.52 1485.58 L1085.64 1485.58 L1085.64 1479.7 Z" fill="#000000" fill-rule="nonzero" fill-opacity="1" /><path clip-path="url(#clip360)" d="M1100.75 1451.02 L1119.11 1451.02 L1119.11 1454.96 L1105.03 1454.96 L1105.03 1463.43 Q1106.05 1463.08 1107.07 1462.92 Q1108.09 1462.73 1109.11 1462.73 Q1114.89 1462.73 1118.27 1465.9 Q1121.65 1469.08 1121.65 1474.49 Q1121.65 1480.07 1118.18 1483.17 Q1114.71 1486.25 1108.39 1486.25 Q1106.21 1486.25 1103.95 1485.88 Q1101.7 1485.51 1099.29 1484.77 L1099.29 1480.07 Q1101.38 1481.2 1103.6 1481.76 Q1105.82 1482.32 1108.3 1482.32 Q1112.3 1482.32 1114.64 1480.21 Q1116.98 1478.1 1116.98 1474.49 Q1116.98 1470.88 1114.64 1468.77 Q1112.3 1466.67 1108.3 1466.67 Q1106.42 1466.67 1104.55 1467.08 Q1102.7 1467.5 1100.75 1468.38 L1100.75 1451.02 Z" fill="#000000" fill-rule="nonzero" fill-opacity="1" /><path clip-path="url(#clip360)" d="M1483.19 1466.44 Q1480.04 1466.44 1478.19 1468.59 Q1476.36 1470.74 1476.36 1474.49 Q1476.36 1478.22 1478.19 1480.39 Q1480.04 1482.55 1483.19 1482.55 Q1486.34 1482.55 1488.16 1480.39 Q1490.02 1478.22 1490.02 1474.49 Q1490.02 1470.74 1488.16 1468.59 Q1486.34 1466.44 1483.19 1466.44 M1492.47 1451.78 L1492.47 1456.04 Q1490.71 1455.21 1488.91 1454.77 Q1487.12 1454.33 1485.36 1454.33 Q1480.73 1454.33 1478.28 1457.45 Q1475.85 1460.58 1475.5 1466.9 Q1476.87 1464.89 1478.93 1463.82 Q1480.99 1462.73 1483.47 1462.73 Q1488.67 1462.73 1491.68 1465.9 Q1494.72 1469.05 1494.72 1474.49 Q1494.72 1479.82 1491.57 1483.03 Q1488.42 1486.25 1483.19 1486.25 Q1477.19 1486.25 1474.02 1481.67 Q1470.85 1477.06 1470.85 1468.33 Q1470.85 1460.14 1474.74 1455.28 Q1478.63 1450.39 1485.18 1450.39 Q1486.94 1450.39 1488.72 1450.74 Q1490.53 1451.09 1492.47 1451.78 Z" fill="#000000" fill-rule="nonzero" fill-opacity="1" /><path clip-path="url(#clip360)" d="M1502.82 1451.02 L1521.17 1451.02 L1521.17 1454.96 L1507.1 1454.96 L1507.1 1463.43 Q1508.12 1463.08 1509.14 1462.92 Q1510.16 1462.73 1511.17 1462.73 Q1516.96 1462.73 1520.34 1465.9 Q1523.72 1469.08 1523.72 1474.49 Q1523.72 1480.07 1520.25 1483.17 Q1516.78 1486.25 1510.46 1486.25 Q1508.28 1486.25 1506.01 1485.88 Q1503.77 1485.51 1501.36 1484.77 L1501.36 1480.07 Q1503.44 1481.2 1505.66 1481.76 Q1507.89 1482.32 1510.36 1482.32 Q1514.37 1482.32 1516.71 1480.21 Q1519.04 1478.1 1519.04 1474.49 Q1519.04 1470.88 1516.71 1468.77 Q1514.37 1466.67 1510.36 1466.67 Q1508.49 1466.67 1506.61 1467.08 Q1504.76 1467.5 1502.82 1468.38 L1502.82 1451.02 Z" fill="#000000" fill-rule="nonzero" fill-opacity="1" /><path clip-path="url(#clip360)" d="M1532.93 1479.7 L1537.82 1479.7 L1537.82 1485.58 L1532.93 1485.58 L1532.93 1479.7 Z" fill="#000000" fill-rule="nonzero" fill-opacity="1" /><path clip-path="url(#clip360)" d="M1558 1454.1 Q1554.39 1454.1 1552.56 1457.66 Q1550.76 1461.2 1550.76 1468.33 Q1550.76 1475.44 1552.56 1479.01 Q1554.39 1482.55 1558 1482.55 Q1561.64 1482.55 1563.44 1479.01 Q1565.27 1475.44 1565.27 1468.33 Q1565.27 1461.2 1563.44 1457.66 Q1561.64 1454.1 1558 1454.1 M1558 1450.39 Q1563.81 1450.39 1566.87 1455 Q1569.95 1459.58 1569.95 1468.33 Q1569.95 1477.06 1566.87 1481.67 Q1563.81 1486.25 1558 1486.25 Q1552.19 1486.25 1549.11 1481.67 Q1546.06 1477.06 1546.06 1468.33 Q1546.06 1459.58 1549.11 1455 Q1552.19 1450.39 1558 1450.39 Z" fill="#000000" fill-rule="nonzero" fill-opacity="1" /><path clip-path="url(#clip360)" d="M1931.48 1466.44 Q1928.33 1466.44 1926.48 1468.59 Q1924.65 1470.74 1924.65 1474.49 Q1924.65 1478.22 1926.48 1480.39 Q1928.33 1482.55 1931.48 1482.55 Q1934.63 1482.55 1936.46 1480.39 Q1938.31 1478.22 1938.31 1474.49 Q1938.31 1470.74 1936.46 1468.59 Q1934.63 1466.44 1931.48 1466.44 M1940.76 1451.78 L1940.76 1456.04 Q1939 1455.21 1937.2 1454.77 Q1935.42 1454.33 1933.66 1454.33 Q1929.03 1454.33 1926.57 1457.45 Q1924.14 1460.58 1923.8 1466.9 Q1925.16 1464.89 1927.22 1463.82 Q1929.28 1462.73 1931.76 1462.73 Q1936.97 1462.73 1939.98 1465.9 Q1943.01 1469.05 1943.01 1474.49 Q1943.01 1479.82 1939.86 1483.03 Q1936.71 1486.25 1931.48 1486.25 Q1925.49 1486.25 1922.31 1481.67 Q1919.14 1477.06 1919.14 1468.33 Q1919.14 1460.14 1923.03 1455.28 Q1926.92 1450.39 1933.47 1450.39 Q1935.23 1450.39 1937.01 1450.74 Q1938.82 1451.09 1940.76 1451.78 Z" fill="#000000" fill-rule="nonzero" fill-opacity="1" /><path clip-path="url(#clip360)" d="M1951.11 1451.02 L1969.47 1451.02 L1969.47 1454.96 L1955.39 1454.96 L1955.39 1463.43 Q1956.41 1463.08 1957.43 1462.92 Q1958.45 1462.73 1959.47 1462.73 Q1965.25 1462.73 1968.63 1465.9 Q1972.01 1469.08 1972.01 1474.49 Q1972.01 1480.07 1968.54 1483.17 Q1965.07 1486.25 1958.75 1486.25 Q1956.57 1486.25 1954.3 1485.88 Q1952.06 1485.51 1949.65 1484.77 L1949.65 1480.07 Q1951.73 1481.2 1953.96 1481.76 Q1956.18 1482.32 1958.66 1482.32 Q1962.66 1482.32 1965 1480.21 Q1967.34 1478.1 1967.34 1474.49 Q1967.34 1470.88 1965 1468.77 Q1962.66 1466.67 1958.66 1466.67 Q1956.78 1466.67 1954.91 1467.08 Q1953.05 1467.5 1951.11 1468.38 L1951.11 1451.02 Z" fill="#000000" fill-rule="nonzero" fill-opacity="1" /><path clip-path="url(#clip360)" d="M1981.23 1479.7 L1986.11 1479.7 L1986.11 1485.58 L1981.23 1485.58 L1981.23 1479.7 Z" fill="#000000" fill-rule="nonzero" fill-opacity="1" /><path clip-path="url(#clip360)" d="M1996.34 1451.02 L2014.7 1451.02 L2014.7 1454.96 L2000.62 1454.96 L2000.62 1463.43 Q2001.64 1463.08 2002.66 1462.92 Q2003.68 1462.73 2004.7 1462.73 Q2010.48 1462.73 2013.86 1465.9 Q2017.24 1469.08 2017.24 1474.49 Q2017.24 1480.07 2013.77 1483.17 Q2010.3 1486.25 2003.98 1486.25 Q2001.8 1486.25 1999.54 1485.88 Q1997.29 1485.51 1994.88 1484.77 L1994.88 1480.07 Q1996.97 1481.2 1999.19 1481.76 Q2001.41 1482.32 2003.89 1482.32 Q2007.89 1482.32 2010.23 1480.21 Q2012.57 1478.1 2012.57 1474.49 Q2012.57 1470.88 2010.23 1468.77 Q2007.89 1466.67 2003.89 1466.67 Q2002.01 1466.67 2000.14 1467.08 Q1998.29 1467.5 1996.34 1468.38 L1996.34 1451.02 Z" fill="#000000" fill-rule="nonzero" fill-opacity="1" /><path clip-path="url(#clip360)" d="M1142.01 1526.86 L1133.29 1550.51 L1150.76 1550.51 L1142.01 1526.86 M1138.38 1520.52 L1145.67 1520.52 L1163.78 1568.04 L1157.09 1568.04 L1152.76 1555.85 L1131.34 1555.85 L1127.02 1568.04 L1120.24 1568.04 L1138.38 1520.52 Z" fill="#000000" fill-rule="nonzero" fill-opacity="1" /><path clip-path="url(#clip360)" d="M1193.92 1549.81 Q1193.92 1543.44 1191.28 1539.94 Q1188.67 1536.44 1183.92 1536.44 Q1179.21 1536.44 1176.57 1539.94 Q1173.96 1543.44 1173.96 1549.81 Q1173.96 1556.14 1176.57 1559.64 Q1179.21 1563.14 1183.92 1563.14 Q1188.67 1563.14 1191.28 1559.64 Q1193.92 1556.14 1193.92 1549.81 M1199.78 1563.62 Q1199.78 1572.72 1195.73 1577.15 Q1191.69 1581.6 1183.35 1581.6 Q1180.26 1581.6 1177.53 1581.13 Q1174.79 1580.68 1172.21 1579.72 L1172.21 1574.03 Q1174.79 1575.43 1177.3 1576.1 Q1179.82 1576.76 1182.43 1576.76 Q1188.19 1576.76 1191.05 1573.74 Q1193.92 1570.75 1193.92 1564.67 L1193.92 1561.77 Q1192.1 1564.92 1189.27 1566.48 Q1186.44 1568.04 1182.49 1568.04 Q1175.94 1568.04 1171.93 1563.05 Q1167.91 1558.05 1167.91 1549.81 Q1167.91 1541.53 1171.93 1536.53 Q1175.94 1531.54 1182.49 1531.54 Q1186.44 1531.54 1189.27 1533.1 Q1192.1 1534.66 1193.92 1537.81 L1193.92 1532.4 L1199.78 1532.4 L1199.78 1563.62 Z" fill="#000000" fill-rule="nonzero" fill-opacity="1" /><path clip-path="url(#clip360)" d="M1242.33 1548.76 L1242.33 1551.62 L1215.4 1551.62 Q1215.78 1557.67 1219.03 1560.85 Q1222.31 1564 1228.13 1564 Q1231.51 1564 1234.66 1563.17 Q1237.84 1562.35 1240.96 1560.69 L1240.96 1566.23 Q1237.81 1567.57 1234.5 1568.27 Q1231.19 1568.97 1227.78 1568.97 Q1219.25 1568.97 1214.26 1564 Q1209.29 1559.04 1209.29 1550.57 Q1209.29 1541.82 1214 1536.69 Q1218.74 1531.54 1226.77 1531.54 Q1233.96 1531.54 1238.13 1536.18 Q1242.33 1540.8 1242.33 1548.76 M1236.47 1547.04 Q1236.41 1542.23 1233.77 1539.37 Q1231.16 1536.5 1226.83 1536.5 Q1221.93 1536.5 1218.97 1539.27 Q1216.04 1542.04 1215.59 1547.07 L1236.47 1547.04 Z" fill="#000000" fill-rule="nonzero" fill-opacity="1" /><path clip-path="url(#clip360)" d="M1286.73 1518.58 Q1282.47 1525.9 1280.4 1533.06 Q1278.33 1540.23 1278.33 1547.58 Q1278.33 1554.93 1280.4 1562.16 Q1282.5 1569.35 1286.73 1576.64 L1281.64 1576.64 Q1276.86 1569.16 1274.48 1561.93 Q1272.12 1554.71 1272.12 1547.58 Q1272.12 1540.48 1274.48 1533.29 Q1276.83 1526.09 1281.64 1518.58 L1286.73 1518.58 Z" fill="#000000" fill-rule="nonzero" fill-opacity="1" /><path clip-path="url(#clip360)" d="M1298.35 1520.52 L1307.93 1520.52 L1320.06 1552.86 L1332.25 1520.52 L1341.83 1520.52 L1341.83 1568.04 L1335.56 1568.04 L1335.56 1526.32 L1323.3 1558.91 L1316.84 1558.91 L1304.59 1526.32 L1304.59 1568.04 L1298.35 1568.04 L1298.35 1520.52 Z" fill="#000000" fill-rule="nonzero" fill-opacity="1" /><path clip-path="url(#clip360)" d="M1370.54 1550.12 Q1363.44 1550.12 1360.7 1551.75 Q1357.96 1553.37 1357.96 1557.29 Q1357.96 1560.4 1360 1562.25 Q1362.07 1564.07 1365.6 1564.07 Q1370.47 1564.07 1373.4 1560.63 Q1376.36 1557.16 1376.36 1551.43 L1376.36 1550.12 L1370.54 1550.12 M1382.22 1547.71 L1382.22 1568.04 L1376.36 1568.04 L1376.36 1562.63 Q1374.35 1565.88 1371.36 1567.44 Q1368.37 1568.97 1364.04 1568.97 Q1358.57 1568.97 1355.32 1565.91 Q1352.11 1562.82 1352.11 1557.67 Q1352.11 1551.65 1356.12 1548.6 Q1360.16 1545.54 1368.15 1545.54 L1376.36 1545.54 L1376.36 1544.97 Q1376.36 1540.93 1373.69 1538.73 Q1371.04 1536.5 1366.24 1536.5 Q1363.18 1536.5 1360.29 1537.23 Q1357.39 1537.97 1354.72 1539.43 L1354.72 1534.02 Q1357.93 1532.78 1360.95 1532.17 Q1363.98 1531.54 1366.84 1531.54 Q1374.58 1531.54 1378.4 1535.55 Q1382.22 1539.56 1382.22 1547.71 Z" fill="#000000" fill-rule="nonzero" fill-opacity="1" /><path clip-path="url(#clip360)" d="M1393.36 1518.58 L1398.45 1518.58 Q1403.22 1526.09 1405.58 1533.29 Q1407.97 1540.48 1407.97 1547.58 Q1407.97 1554.71 1405.58 1561.93 Q1403.22 1569.16 1398.45 1576.64 L1393.36 1576.64 Q1397.59 1569.35 1399.66 1562.16 Q1401.76 1554.93 1401.76 1547.58 Q1401.76 1540.23 1399.66 1533.06 Q1397.59 1525.9 1393.36 1518.58 Z" fill="#000000" fill-rule="nonzero" fill-opacity="1" /><polyline clip-path="url(#clip360)" style="stroke:#000000; stroke-linecap:round; stroke-linejoin:round; stroke-width:4; stroke-opacity:1; fill:none" points="175.445,1423.18 175.445,47.2441 "/>
<polyline clip-path="url(#clip360)" style="stroke:#000000; stroke-linecap:round; stroke-linejoin:round; stroke-width:4; stroke-opacity:1; fill:none" points="2352.76,1423.18 2352.76,47.2441 "/>
<polyline clip-path="url(#clip360)" style="stroke:#000000; stroke-linecap:round; stroke-linejoin:round; stroke-width:4; stroke-opacity:1; fill:none" points="175.445,1384.24 194.343,1384.24 "/>
<polyline clip-path="url(#clip360)" style="stroke:#000000; stroke-linecap:round; stroke-linejoin:round; stroke-width:4; stroke-opacity:1; fill:none" points="175.445,1101.97 194.343,1101.97 "/>
<polyline clip-path="url(#clip360)" style="stroke:#000000; stroke-linecap:round; stroke-linejoin:round; stroke-width:4; stroke-opacity:1; fill:none" points="175.445,819.71 194.343,819.71 "/>
<polyline clip-path="url(#clip360)" style="stroke:#000000; stroke-linecap:round; stroke-linejoin:round; stroke-width:4; stroke-opacity:1; fill:none" points="175.445,537.445 194.343,537.445 "/>
<polyline clip-path="url(#clip360)" style="stroke:#000000; stroke-linecap:round; stroke-linejoin:round; stroke-width:4; stroke-opacity:1; fill:none" points="175.445,255.181 194.343,255.181 "/>
<polyline clip-path="url(#clip360)" style="stroke:#000000; stroke-linecap:round; stroke-linejoin:round; stroke-width:4; stroke-opacity:1; fill:none" points="2352.76,1384.24 2333.86,1384.24 "/>
<polyline clip-path="url(#clip360)" style="stroke:#000000; stroke-linecap:round; stroke-linejoin:round; stroke-width:4; stroke-opacity:1; fill:none" points="2352.76,1101.97 2333.86,1101.97 "/>
<polyline clip-path="url(#clip360)" style="stroke:#000000; stroke-linecap:round; stroke-linejoin:round; stroke-width:4; stroke-opacity:1; fill:none" points="2352.76,819.71 2333.86,819.71 "/>
<polyline clip-path="url(#clip360)" style="stroke:#000000; stroke-linecap:round; stroke-linejoin:round; stroke-width:4; stroke-opacity:1; fill:none" points="2352.76,537.445 2333.86,537.445 "/>
<polyline clip-path="url(#clip360)" style="stroke:#000000; stroke-linecap:round; stroke-linejoin:round; stroke-width:4; stroke-opacity:1; fill:none" points="2352.76,255.181 2333.86,255.181 "/>
<path clip-path="url(#clip360)" d="M127.501 1370.04 Q123.89 1370.04 122.061 1373.6 Q120.255 1377.14 120.255 1384.27 Q120.255 1391.38 122.061 1394.94 Q123.89 1398.49 127.501 1398.49 Q131.135 1398.49 132.941 1394.94 Q134.769 1391.38 134.769 1384.27 Q134.769 1377.14 132.941 1373.6 Q131.135 1370.04 127.501 1370.04 M127.501 1366.33 Q133.311 1366.33 136.367 1370.94 Q139.445 1375.52 139.445 1384.27 Q139.445 1393 136.367 1397.61 Q133.311 1402.19 127.501 1402.19 Q121.691 1402.19 118.612 1397.61 Q115.556 1393 115.556 1384.27 Q115.556 1375.52 118.612 1370.94 Q121.691 1366.33 127.501 1366.33 Z" fill="#000000" fill-rule="nonzero" fill-opacity="1" /><path clip-path="url(#clip360)" d="M123.126 1115.32 L139.445 1115.32 L139.445 1119.25 L117.501 1119.25 L117.501 1115.32 Q120.163 1112.56 124.746 1107.93 Q129.353 1103.28 130.533 1101.94 Q132.779 1099.42 133.658 1097.68 Q134.561 1095.92 134.561 1094.23 Q134.561 1091.48 132.617 1089.74 Q130.695 1088 127.593 1088 Q125.394 1088 122.941 1088.77 Q120.51 1089.53 117.732 1091.08 L117.732 1086.36 Q120.556 1085.23 123.01 1084.65 Q125.464 1084.07 127.501 1084.07 Q132.871 1084.07 136.066 1086.75 Q139.26 1089.44 139.26 1093.93 Q139.26 1096.06 138.45 1097.98 Q137.663 1099.88 135.556 1102.47 Q134.978 1103.14 131.876 1106.36 Q128.774 1109.55 123.126 1115.32 Z" fill="#000000" fill-rule="nonzero" fill-opacity="1" /><path clip-path="url(#clip360)" d="M129.862 806.504 L118.056 824.953 L129.862 824.953 L129.862 806.504 M128.635 802.43 L134.515 802.43 L134.515 824.953 L139.445 824.953 L139.445 828.841 L134.515 828.841 L134.515 836.99 L129.862 836.99 L129.862 828.841 L114.26 828.841 L114.26 824.328 L128.635 802.43 Z" fill="#000000" fill-rule="nonzero" fill-opacity="1" /><path clip-path="url(#clip360)" d="M127.917 535.582 Q124.769 535.582 122.918 537.735 Q121.089 539.887 121.089 543.637 Q121.089 547.364 122.918 549.54 Q124.769 551.693 127.917 551.693 Q131.066 551.693 132.894 549.54 Q134.746 547.364 134.746 543.637 Q134.746 539.887 132.894 537.735 Q131.066 535.582 127.917 535.582 M137.2 520.929 L137.2 525.188 Q135.441 524.355 133.635 523.915 Q131.853 523.475 130.093 523.475 Q125.464 523.475 123.01 526.6 Q120.58 529.725 120.232 536.045 Q121.598 534.031 123.658 532.966 Q125.718 531.878 128.195 531.878 Q133.404 531.878 136.413 535.049 Q139.445 538.198 139.445 543.637 Q139.445 548.961 136.297 552.179 Q133.149 555.397 127.917 555.397 Q121.922 555.397 118.751 550.813 Q115.58 546.207 115.58 537.48 Q115.58 529.286 119.468 524.424 Q123.357 519.54 129.908 519.54 Q131.667 519.54 133.45 519.887 Q135.255 520.235 137.2 520.929 Z" fill="#000000" fill-rule="nonzero" fill-opacity="1" /><path clip-path="url(#clip360)" d="M127.593 256.049 Q124.26 256.049 122.339 257.831 Q120.441 259.614 120.441 262.739 Q120.441 265.864 122.339 267.646 Q124.26 269.428 127.593 269.428 Q130.927 269.428 132.848 267.646 Q134.769 265.841 134.769 262.739 Q134.769 259.614 132.848 257.831 Q130.95 256.049 127.593 256.049 M122.918 254.058 Q119.908 253.317 118.218 251.257 Q116.552 249.197 116.552 246.234 Q116.552 242.091 119.492 239.683 Q122.455 237.276 127.593 237.276 Q132.755 237.276 135.695 239.683 Q138.635 242.091 138.635 246.234 Q138.635 249.197 136.945 251.257 Q135.279 253.317 132.292 254.058 Q135.672 254.845 137.547 257.137 Q139.445 259.429 139.445 262.739 Q139.445 267.762 136.367 270.447 Q133.311 273.132 127.593 273.132 Q121.876 273.132 118.797 270.447 Q115.742 267.762 115.742 262.739 Q115.742 259.429 117.64 257.137 Q119.538 254.845 122.918 254.058 M121.205 246.674 Q121.205 249.359 122.871 250.864 Q124.561 252.368 127.593 252.368 Q130.603 252.368 132.292 250.864 Q134.005 249.359 134.005 246.674 Q134.005 243.989 132.292 242.484 Q130.603 240.98 127.593 240.98 Q124.561 240.98 122.871 242.484 Q121.205 243.989 121.205 246.674 Z" fill="#000000" fill-rule="nonzero" fill-opacity="1" /><path clip-path="url(#clip360)" d="M21.7677 1026.76 L39.6235 1026.76 L39.6235 1018.68 Q39.6235 1014.19 37.3 1011.74 Q34.9765 1009.29 30.6797 1009.29 Q26.4147 1009.29 24.0912 1011.74 Q21.7677 1014.19 21.7677 1018.68 L21.7677 1026.76 M16.4842 1033.19 L16.4842 1018.68 Q16.4842 1010.69 20.1126 1006.61 Q23.7092 1002.51 30.6797 1002.51 Q37.7138 1002.51 41.3104 1006.61 Q44.907 1010.69 44.907 1018.68 L44.907 1026.76 L64.0042 1026.76 L64.0042 1033.19 L16.4842 1033.19 Z" fill="#000000" fill-rule="nonzero" fill-opacity="1" /><path clip-path="url(#clip360)" d="M33.8307 974.626 Q33.2578 975.613 33.0032 976.791 Q32.7167 977.936 32.7167 979.337 Q32.7167 984.302 35.9632 986.976 Q39.1779 989.617 45.2253 989.617 L64.0042 989.617 L64.0042 995.506 L28.3562 995.506 L28.3562 989.617 L33.8944 989.617 Q30.6479 987.771 29.0883 984.811 Q27.4968 981.851 27.4968 977.618 Q27.4968 977.013 27.5923 976.281 Q27.656 975.549 27.8151 974.658 L33.8307 974.626 Z" fill="#000000" fill-rule="nonzero" fill-opacity="1" /><path clip-path="url(#clip360)" d="M32.4621 956.102 Q32.4621 960.813 36.1542 963.55 Q39.8145 966.287 46.212 966.287 Q52.6095 966.287 56.3017 963.582 Q59.9619 960.844 59.9619 956.102 Q59.9619 951.423 56.2698 948.686 Q52.5777 945.949 46.212 945.949 Q39.8781 945.949 36.186 948.686 Q32.4621 951.423 32.4621 956.102 M27.4968 956.102 Q27.4968 948.463 32.4621 944.103 Q37.4273 939.742 46.212 939.742 Q54.9649 939.742 59.9619 944.103 Q64.9272 948.463 64.9272 956.102 Q64.9272 963.773 59.9619 968.133 Q54.9649 972.462 46.212 972.462 Q37.4273 972.462 32.4621 968.133 Q27.4968 963.773 27.4968 956.102 Z" fill="#000000" fill-rule="nonzero" fill-opacity="1" /><path clip-path="url(#clip360)" d="M46.212 904.444 Q39.7508 904.444 36.0905 907.118 Q32.3984 909.76 32.3984 914.407 Q32.3984 919.054 36.0905 921.727 Q39.7508 924.369 46.212 924.369 Q52.6732 924.369 56.3653 921.727 Q60.0256 919.054 60.0256 914.407 Q60.0256 909.76 56.3653 907.118 Q52.6732 904.444 46.212 904.444 M33.7671 924.369 Q30.5842 922.523 29.0564 919.722 Q27.4968 916.889 27.4968 912.974 Q27.4968 906.481 32.6531 902.439 Q37.8093 898.365 46.212 898.365 Q54.6147 898.365 59.771 902.439 Q64.9272 906.481 64.9272 912.974 Q64.9272 916.889 63.3994 919.722 Q61.8398 922.523 58.657 924.369 L64.0042 924.369 L64.0042 930.257 L14.479 930.257 L14.479 924.369 L33.7671 924.369 Z" fill="#000000" fill-rule="nonzero" fill-opacity="1" /><path clip-path="url(#clip360)" d="M46.0847 872.457 Q46.0847 879.554 47.7079 882.292 Q49.3312 885.029 53.2461 885.029 Q56.3653 885.029 58.2114 882.992 Q60.0256 880.923 60.0256 877.39 Q60.0256 872.52 56.5881 869.592 Q53.1188 866.632 47.3897 866.632 L46.0847 866.632 L46.0847 872.457 M43.6657 860.776 L64.0042 860.776 L64.0042 866.632 L58.5933 866.632 Q61.8398 868.637 63.3994 871.629 Q64.9272 874.621 64.9272 878.95 Q64.9272 884.424 61.8716 887.671 Q58.7843 890.885 53.6281 890.885 Q47.6125 890.885 44.5569 886.875 Q41.5014 882.833 41.5014 874.844 L41.5014 866.632 L40.9285 866.632 Q36.8862 866.632 34.6901 869.306 Q32.4621 871.947 32.4621 876.753 Q32.4621 879.809 33.1941 882.705 Q33.9262 885.602 35.3903 888.275 L29.9795 888.275 Q28.7381 885.061 28.1334 882.037 Q27.4968 879.013 27.4968 876.149 Q27.4968 868.414 31.5072 864.595 Q35.5176 860.776 43.6657 860.776 Z" fill="#000000" fill-rule="nonzero" fill-opacity="1" /><path clip-path="url(#clip360)" d="M46.212 823.122 Q39.7508 823.122 36.0905 825.796 Q32.3984 828.438 32.3984 833.085 Q32.3984 837.732 36.0905 840.405 Q39.7508 843.047 46.212 843.047 Q52.6732 843.047 56.3653 840.405 Q60.0256 837.732 60.0256 833.085 Q60.0256 828.438 56.3653 825.796 Q52.6732 823.122 46.212 823.122 M33.7671 843.047 Q30.5842 841.201 29.0564 838.4 Q27.4968 835.567 27.4968 831.652 Q27.4968 825.159 32.6531 821.117 Q37.8093 817.043 46.212 817.043 Q54.6147 817.043 59.771 821.117 Q64.9272 825.159 64.9272 831.652 Q64.9272 835.567 63.3994 838.4 Q61.8398 841.201 58.657 843.047 L64.0042 843.047 L64.0042 848.935 L14.479 848.935 L14.479 843.047 L33.7671 843.047 Z" fill="#000000" fill-rule="nonzero" fill-opacity="1" /><path clip-path="url(#clip360)" d="M28.3562 807.335 L28.3562 801.479 L64.0042 801.479 L64.0042 807.335 L28.3562 807.335 M14.479 807.335 L14.479 801.479 L21.895 801.479 L21.895 807.335 L14.479 807.335 Z" fill="#000000" fill-rule="nonzero" fill-opacity="1" /><path clip-path="url(#clip360)" d="M14.479 789.225 L14.479 783.369 L64.0042 783.369 L64.0042 789.225 L14.479 789.225 Z" fill="#000000" fill-rule="nonzero" fill-opacity="1" /><path clip-path="url(#clip360)" d="M28.3562 771.115 L28.3562 765.258 L64.0042 765.258 L64.0042 771.115 L28.3562 771.115 M14.479 771.115 L14.479 765.258 L21.895 765.258 L21.895 771.115 L14.479 771.115 Z" fill="#000000" fill-rule="nonzero" fill-opacity="1" /><path clip-path="url(#clip360)" d="M18.2347 747.211 L28.3562 747.211 L28.3562 735.148 L32.9077 735.148 L32.9077 747.211 L52.2594 747.211 Q56.6199 747.211 57.8613 746.034 Q59.1026 744.824 59.1026 741.164 L59.1026 735.148 L64.0042 735.148 L64.0042 741.164 Q64.0042 747.943 61.4897 750.521 Q58.9434 753.1 52.2594 753.1 L32.9077 753.1 L32.9077 757.396 L28.3562 757.396 L28.3562 753.1 L18.2347 753.1 L18.2347 747.211 Z" fill="#000000" fill-rule="nonzero" fill-opacity="1" /><path clip-path="url(#clip360)" d="M67.3143 712.614 Q73.68 715.096 75.6216 717.452 Q77.5631 719.807 77.5631 723.754 L77.5631 728.432 L72.6615 728.432 L72.6615 724.995 Q72.6615 722.576 71.5157 721.239 Q70.3699 719.902 66.1048 718.279 L63.4312 717.229 L28.3562 731.647 L28.3562 725.441 L56.238 714.301 L28.3562 703.161 L28.3562 696.954 L67.3143 712.614 Z" fill="#000000" fill-rule="nonzero" fill-opacity="1" /><path clip-path="url(#clip360)" d="M33.7671 644.692 L14.479 644.692 L14.479 638.835 L64.0042 638.835 L64.0042 644.692 L58.657 644.692 Q61.8398 646.538 63.3994 649.37 Q64.9272 652.171 64.9272 656.118 Q64.9272 662.579 59.771 666.653 Q54.6147 670.696 46.212 670.696 Q37.8093 670.696 32.6531 666.653 Q27.4968 662.579 27.4968 656.118 Q27.4968 652.171 29.0564 649.37 Q30.5842 646.538 33.7671 644.692 M46.212 664.648 Q52.6732 664.648 56.3653 662.006 Q60.0256 659.333 60.0256 654.686 Q60.0256 650.039 56.3653 647.365 Q52.6732 644.692 46.212 644.692 Q39.7508 644.692 36.0905 647.365 Q32.3984 650.039 32.3984 654.686 Q32.3984 659.333 36.0905 662.006 Q39.7508 664.648 46.212 664.648 Z" fill="#000000" fill-rule="nonzero" fill-opacity="1" /><path clip-path="url(#clip360)" d="M44.7161 596.28 L47.5806 596.28 L47.5806 623.207 Q53.6281 622.825 56.8109 619.579 Q59.9619 616.301 59.9619 610.476 Q59.9619 607.102 59.1344 603.951 Q58.3069 600.768 56.6518 597.649 L62.1899 597.649 Q63.5267 600.8 64.227 604.11 Q64.9272 607.42 64.9272 610.826 Q64.9272 619.356 59.9619 624.353 Q54.9967 629.318 46.5303 629.318 Q37.7774 629.318 32.6531 624.608 Q27.4968 619.865 27.4968 611.845 Q27.4968 604.651 32.1438 600.482 Q36.7589 596.28 44.7161 596.28 M42.9973 602.137 Q38.1912 602.201 35.3266 604.842 Q32.4621 607.452 32.4621 611.781 Q32.4621 616.683 35.2312 619.643 Q38.0002 622.571 43.0292 623.016 L42.9973 602.137 Z" fill="#000000" fill-rule="nonzero" fill-opacity="1" /><path clip-path="url(#clip360)" d="M42.4881 557.036 L64.0042 557.036 L64.0042 562.892 L42.679 562.892 Q37.6183 562.892 35.1038 564.866 Q32.5894 566.839 32.5894 570.786 Q32.5894 575.528 35.6131 578.265 Q38.6368 581.003 43.8567 581.003 L64.0042 581.003 L64.0042 586.891 L28.3562 586.891 L28.3562 581.003 L33.8944 581.003 Q30.6797 578.902 29.0883 576.069 Q27.4968 573.205 27.4968 569.481 Q27.4968 563.338 31.3163 560.187 Q35.1038 557.036 42.4881 557.036 Z" fill="#000000" fill-rule="nonzero" fill-opacity="1" /><path clip-path="url(#clip360)" d="M29.4065 522.629 L34.9447 522.629 Q33.6716 525.112 33.035 527.785 Q32.3984 530.459 32.3984 533.324 Q32.3984 537.684 33.7352 539.88 Q35.072 542.045 37.7456 542.045 Q39.7826 542.045 40.9603 540.485 Q42.1061 538.925 43.1565 534.215 L43.6021 532.21 Q44.9389 525.971 47.3897 523.361 Q49.8086 520.719 54.1691 520.719 Q59.1344 520.719 62.0308 524.666 Q64.9272 528.581 64.9272 535.456 Q64.9272 538.321 64.3543 541.44 Q63.8132 544.527 62.6992 547.965 L56.6518 547.965 Q58.3387 544.718 59.198 541.567 Q60.0256 538.416 60.0256 535.329 Q60.0256 531.191 58.6251 528.963 Q57.1929 526.735 54.6147 526.735 Q52.2276 526.735 50.9545 528.358 Q49.6813 529.95 48.5037 535.392 L48.0262 537.429 Q46.8804 542.872 44.5251 545.291 Q42.138 547.71 38.0002 547.71 Q32.9713 547.71 30.2341 544.145 Q27.4968 540.58 27.4968 534.024 Q27.4968 530.777 27.9743 527.913 Q28.4517 525.048 29.4065 522.629 Z" fill="#000000" fill-rule="nonzero" fill-opacity="1" /><path clip-path="url(#clip360)" d="M28.3562 511.394 L28.3562 505.537 L64.0042 505.537 L64.0042 511.394 L28.3562 511.394 M14.479 511.394 L14.479 505.537 L21.895 505.537 L21.895 511.394 L14.479 511.394 Z" fill="#000000" fill-rule="nonzero" fill-opacity="1" /><path clip-path="url(#clip360)" d="M18.2347 487.49 L28.3562 487.49 L28.3562 475.427 L32.9077 475.427 L32.9077 487.49 L52.2594 487.49 Q56.6199 487.49 57.8613 486.313 Q59.1026 485.103 59.1026 481.443 L59.1026 475.427 L64.0042 475.427 L64.0042 481.443 Q64.0042 488.223 61.4897 490.801 Q58.9434 493.379 52.2594 493.379 L32.9077 493.379 L32.9077 497.676 L28.3562 497.676 L28.3562 493.379 L18.2347 493.379 L18.2347 487.49 Z" fill="#000000" fill-rule="nonzero" fill-opacity="1" /><path clip-path="url(#clip360)" d="M67.3143 452.893 Q73.68 455.376 75.6216 457.731 Q77.5631 460.086 77.5631 464.033 L77.5631 468.712 L72.6615 468.712 L72.6615 465.274 Q72.6615 462.855 71.5157 461.518 Q70.3699 460.182 66.1048 458.558 L63.4312 457.508 L28.3562 471.926 L28.3562 465.72 L56.238 454.58 L28.3562 443.44 L28.3562 437.233 L67.3143 452.893 Z" fill="#000000" fill-rule="nonzero" fill-opacity="1" /><polyline clip-path="url(#clip362)" style="stroke:#009af9; stroke-linecap:round; stroke-linejoin:round; stroke-width:4; stroke-opacity:1; fill:none" points="237.067,1384.22 322.653,1384.2 493.826,1384.23 707.791,1384.23 750.584,1384.2 771.98,1384.03 793.377,1384.08 964.549,1384.11 985.946,1384.22 1007.34,1384.09 1071.53,1384.23 1092.93,1384.2 1114.32,1384.19 1157.12,1384.19 1178.51,1384.23 1199.91,1384.18 1221.31,1384.18 1242.7,1384.12 1264.1,1383.95 1285.5,1383.97 1306.89,1384.1 1328.29,1384.12 1349.69,1383.91 1371.08,1383.8 1392.48,1383.59 1413.88,1383.28 1435.27,1383.33 1456.67,1382.94 1478.07,1382.96 1499.46,1382.99 1520.86,1382.56 1542.26,1380.94 1563.65,1382.16 1585.05,1380.77 1606.45,1380.58 1627.84,1379.34 1649.24,1378.28 1670.63,1377 1692.03,1376.79 1713.43,1373.32 1734.82,1370.96 1756.22,1364.29 1777.62,1360.34 1799.01,1353.43 1820.41,1348.92 1841.81,1335.76 1863.2,1324.49 1884.6,1301.53 1906,1273.57 1927.39,1230.36 1948.79,1184.66 1970.19,1108.78 1991.58,1023.25 2012.98,887.503 2034.38,742.715 2055.77,501.761 2077.17,232.071 2098.57,86.1857 2119.96,297.411 2141.36,520.767 2162.75,693.942 2184.15,921.573 2205.55,1129.09 2226.94,1274.19 2248.34,1351.9 2269.74,1375.76 2291.13,1383.11 "/>
<polyline clip-path="url(#clip362)" style="stroke:#e26f46; stroke-linecap:round; stroke-linejoin:round; stroke-width:4; stroke-opacity:1; fill:none" points="237.067,1384.24 322.653,1384.24 493.826,1384.24 707.791,1384.24 750.584,1384.24 771.98,1384.24 793.377,1384.24 964.549,1384.24 985.946,1384.24 1007.34,1384.24 1071.53,1384.24 1092.93,1384.24 1114.32,1384.24 1157.12,1384.24 1178.51,1384.24 1199.91,1384.24 1221.31,1384.24 1242.7,1384.24 1264.1,1384.24 1285.5,1384.24 1306.89,1384.23 1328.29,1384.23 1349.69,1384.23 1371.08,1384.23 1392.48,1384.22 1413.88,1384.22 1435.27,1384.21 1456.67,1384.19 1478.07,1384.18 1499.46,1384.15 1520.86,1384.11 1542.26,1384.06 1563.65,1383.99 1585.05,1383.89 1606.45,1383.74 1627.84,1383.54 1649.24,1383.25 1670.63,1382.85 1692.03,1382.27 1713.43,1381.47 1734.82,1380.33 1756.22,1378.73 1777.62,1376.47 1799.01,1373.29 1820.41,1368.82 1841.81,1362.52 1863.2,1353.66 1884.6,1341.22 1906,1323.78 1927.39,1299.39 1948.79,1265.4 1970.19,1218.34 1991.58,1153.86 2012.98,1067.17 2034.38,954.851 2055.77,820.365 2077.17,686.886 2098.57,612.344 2119.96,661.471 2141.36,817.374 2162.75,993.288 2184.15,1133.46 2205.55,1229.27 2226.94,1290.32 2248.34,1327.91 2269.74,1350.66 2291.13,1364.3 "/>
<path clip-path="url(#clip360)" d="M248.022 248.629 L800.057 248.629 L800.057 93.1086 L248.022 93.1086  Z" fill="#ffffff" fill-rule="evenodd" fill-opacity="1"/>
<polyline clip-path="url(#clip360)" style="stroke:#ffffff; stroke-linecap:round; stroke-linejoin:round; stroke-width:4; stroke-opacity:1; fill:none" points="248.022,248.629 800.057,248.629 800.057,93.1086 248.022,93.1086 248.022,248.629 "/>
<polyline clip-path="url(#clip360)" style="stroke:#009af9; stroke-linecap:round; stroke-linejoin:round; stroke-width:4; stroke-opacity:1; fill:none" points="272.215,144.949 417.369,144.949 "/>
<path clip-path="url(#clip360)" d="M441.561 127.669 L446.237 127.669 L446.237 141.835 L463.228 141.835 L463.228 127.669 L467.903 127.669 L467.903 162.229 L463.228 162.229 L463.228 145.77 L446.237 145.77 L446.237 162.229 L441.561 162.229 L441.561 127.669 Z" fill="#000000" fill-rule="nonzero" fill-opacity="1" /><path clip-path="url(#clip360)" d="M477.024 136.303 L481.283 136.303 L481.283 162.229 L477.024 162.229 L477.024 136.303 M477.024 126.21 L481.283 126.21 L481.283 131.604 L477.024 131.604 L477.024 126.21 Z" fill="#000000" fill-rule="nonzero" fill-opacity="1" /><path clip-path="url(#clip360)" d="M506.723 137.067 L506.723 141.094 Q504.917 140.169 502.973 139.706 Q501.028 139.243 498.945 139.243 Q495.774 139.243 494.176 140.215 Q492.602 141.187 492.602 143.131 Q492.602 144.613 493.737 145.469 Q494.871 146.303 498.297 147.067 L499.755 147.391 Q504.292 148.363 506.19 150.145 Q508.112 151.905 508.112 155.076 Q508.112 158.687 505.241 160.793 Q502.394 162.9 497.394 162.9 Q495.311 162.9 493.042 162.483 Q490.797 162.09 488.297 161.28 L488.297 156.881 Q490.658 158.108 492.95 158.733 Q495.241 159.335 497.487 159.335 Q500.496 159.335 502.116 158.317 Q503.737 157.275 503.737 155.4 Q503.737 153.664 502.556 152.738 Q501.399 151.812 497.44 150.956 L495.959 150.608 Q492.001 149.775 490.241 148.062 Q488.482 146.326 488.482 143.317 Q488.482 139.659 491.075 137.669 Q493.667 135.678 498.436 135.678 Q500.797 135.678 502.88 136.025 Q504.963 136.372 506.723 137.067 Z" fill="#000000" fill-rule="nonzero" fill-opacity="1" /><path clip-path="url(#clip360)" d="M519.107 128.942 L519.107 136.303 L527.88 136.303 L527.88 139.613 L519.107 139.613 L519.107 153.687 Q519.107 156.858 519.963 157.761 Q520.843 158.664 523.505 158.664 L527.88 158.664 L527.88 162.229 L523.505 162.229 Q518.574 162.229 516.699 160.4 Q514.824 158.548 514.824 153.687 L514.824 139.613 L511.699 139.613 L511.699 136.303 L514.824 136.303 L514.824 128.942 L519.107 128.942 Z" fill="#000000" fill-rule="nonzero" fill-opacity="1" /><path clip-path="url(#clip360)" d="M543.528 139.289 Q540.102 139.289 538.111 141.974 Q536.121 144.636 536.121 149.289 Q536.121 153.942 538.088 156.627 Q540.079 159.289 543.528 159.289 Q546.931 159.289 548.921 156.604 Q550.912 153.918 550.912 149.289 Q550.912 144.682 548.921 141.997 Q546.931 139.289 543.528 139.289 M543.528 135.678 Q549.084 135.678 552.255 139.289 Q555.426 142.9 555.426 149.289 Q555.426 155.655 552.255 159.289 Q549.084 162.9 543.528 162.9 Q537.949 162.9 534.778 159.289 Q531.63 155.655 531.63 149.289 Q531.63 142.9 534.778 139.289 Q537.949 135.678 543.528 135.678 Z" fill="#000000" fill-rule="nonzero" fill-opacity="1" /><path clip-path="url(#clip360)" d="M579.546 148.965 Q579.546 144.335 577.625 141.789 Q575.727 139.243 572.278 139.243 Q568.852 139.243 566.931 141.789 Q565.033 144.335 565.033 148.965 Q565.033 153.571 566.931 156.118 Q568.852 158.664 572.278 158.664 Q575.727 158.664 577.625 156.118 Q579.546 153.571 579.546 148.965 M583.806 159.011 Q583.806 165.631 580.866 168.849 Q577.926 172.09 571.861 172.09 Q569.616 172.09 567.625 171.742 Q565.634 171.418 563.759 170.724 L563.759 166.58 Q565.634 167.599 567.463 168.085 Q569.292 168.571 571.19 168.571 Q575.38 168.571 577.463 166.372 Q579.546 164.196 579.546 159.775 L579.546 157.668 Q578.227 159.96 576.167 161.094 Q574.107 162.229 571.236 162.229 Q566.468 162.229 563.551 158.594 Q560.634 154.96 560.634 148.965 Q560.634 142.946 563.551 139.312 Q566.468 135.678 571.236 135.678 Q574.107 135.678 576.167 136.812 Q578.227 137.946 579.546 140.238 L579.546 136.303 L583.806 136.303 L583.806 159.011 Z" fill="#000000" fill-rule="nonzero" fill-opacity="1" /><path clip-path="url(#clip360)" d="M607.602 140.284 Q606.884 139.868 606.028 139.682 Q605.194 139.474 604.176 139.474 Q600.565 139.474 598.62 141.835 Q596.699 144.173 596.699 148.571 L596.699 162.229 L592.417 162.229 L592.417 136.303 L596.699 136.303 L596.699 140.331 Q598.042 137.969 600.194 136.835 Q602.347 135.678 605.426 135.678 Q605.866 135.678 606.398 135.747 Q606.93 135.794 607.579 135.909 L607.602 140.284 Z" fill="#000000" fill-rule="nonzero" fill-opacity="1" /><path clip-path="url(#clip360)" d="M623.852 149.196 Q618.69 149.196 616.699 150.377 Q614.708 151.557 614.708 154.405 Q614.708 156.673 616.19 158.016 Q617.694 159.335 620.264 159.335 Q623.805 159.335 625.935 156.835 Q628.088 154.312 628.088 150.145 L628.088 149.196 L623.852 149.196 M632.347 147.437 L632.347 162.229 L628.088 162.229 L628.088 158.293 Q626.629 160.655 624.453 161.789 Q622.278 162.9 619.129 162.9 Q615.148 162.9 612.787 160.678 Q610.449 158.432 610.449 154.682 Q610.449 150.307 613.366 148.085 Q616.305 145.863 622.116 145.863 L628.088 145.863 L628.088 145.446 Q628.088 142.507 626.143 140.909 Q624.222 139.289 620.727 139.289 Q618.504 139.289 616.398 139.821 Q614.292 140.354 612.347 141.419 L612.347 137.483 Q614.685 136.581 616.884 136.141 Q619.083 135.678 621.166 135.678 Q626.791 135.678 629.569 138.594 Q632.347 141.511 632.347 147.437 Z" fill="#000000" fill-rule="nonzero" fill-opacity="1" /><path clip-path="url(#clip360)" d="M661.305 141.28 Q662.902 138.409 665.125 137.044 Q667.347 135.678 670.356 135.678 Q674.407 135.678 676.606 138.525 Q678.805 141.349 678.805 146.581 L678.805 162.229 L674.523 162.229 L674.523 146.719 Q674.523 142.993 673.203 141.187 Q671.884 139.382 669.175 139.382 Q665.865 139.382 663.944 141.581 Q662.023 143.78 662.023 147.576 L662.023 162.229 L657.74 162.229 L657.74 146.719 Q657.74 142.969 656.421 141.187 Q655.101 139.382 652.347 139.382 Q649.083 139.382 647.162 141.604 Q645.24 143.803 645.24 147.576 L645.24 162.229 L640.958 162.229 L640.958 136.303 L645.24 136.303 L645.24 140.331 Q646.699 137.946 648.736 136.812 Q650.773 135.678 653.574 135.678 Q656.398 135.678 658.365 137.113 Q660.356 138.548 661.305 141.28 Z" fill="#000000" fill-rule="nonzero" fill-opacity="1" /><polyline clip-path="url(#clip360)" style="stroke:#e26f46; stroke-linecap:round; stroke-linejoin:round; stroke-width:4; stroke-opacity:1; fill:none" points="272.215,196.789 417.369,196.789 "/>
<path clip-path="url(#clip360)" d="M446.237 183.351 L446.237 210.226 L451.885 210.226 Q459.038 210.226 462.348 206.985 Q465.681 203.745 465.681 196.754 Q465.681 189.809 462.348 186.592 Q459.038 183.351 451.885 183.351 L446.237 183.351 M441.561 179.509 L451.167 179.509 Q461.214 179.509 465.913 183.698 Q470.612 187.865 470.612 196.754 Q470.612 205.689 465.89 209.879 Q461.167 214.069 451.167 214.069 L441.561 214.069 L441.561 179.509 Z" fill="#000000" fill-rule="nonzero" fill-opacity="1" /><path clip-path="url(#clip360)" d="M477.88 188.143 L482.139 188.143 L482.139 214.069 L477.88 214.069 L477.88 188.143 M477.88 178.05 L482.139 178.05 L482.139 183.444 L477.88 183.444 L477.88 178.05 Z" fill="#000000" fill-rule="nonzero" fill-opacity="1" /><path clip-path="url(#clip360)" d="M507.579 188.907 L507.579 192.934 Q505.774 192.009 503.829 191.546 Q501.885 191.083 499.801 191.083 Q496.63 191.083 495.033 192.055 Q493.459 193.027 493.459 194.971 Q493.459 196.453 494.593 197.309 Q495.727 198.143 499.153 198.907 L500.612 199.231 Q505.149 200.203 507.047 201.985 Q508.968 203.745 508.968 206.916 Q508.968 210.527 506.098 212.633 Q503.25 214.74 498.25 214.74 Q496.167 214.74 493.899 214.323 Q491.653 213.93 489.153 213.12 L489.153 208.721 Q491.514 209.948 493.806 210.573 Q496.098 211.175 498.343 211.175 Q501.352 211.175 502.973 210.157 Q504.593 209.115 504.593 207.24 Q504.593 205.504 503.412 204.578 Q502.255 203.652 498.297 202.796 L496.815 202.448 Q492.857 201.615 491.098 199.902 Q489.338 198.166 489.338 195.157 Q489.338 191.499 491.931 189.509 Q494.524 187.518 499.292 187.518 Q501.653 187.518 503.737 187.865 Q505.82 188.212 507.579 188.907 Z" fill="#000000" fill-rule="nonzero" fill-opacity="1" /><path clip-path="url(#clip360)" d="M519.963 180.782 L519.963 188.143 L528.736 188.143 L528.736 191.453 L519.963 191.453 L519.963 205.527 Q519.963 208.698 520.82 209.601 Q521.699 210.504 524.361 210.504 L528.736 210.504 L528.736 214.069 L524.361 214.069 Q519.431 214.069 517.556 212.24 Q515.681 210.388 515.681 205.527 L515.681 191.453 L512.556 191.453 L512.556 188.143 L515.681 188.143 L515.681 180.782 L519.963 180.782 Z" fill="#000000" fill-rule="nonzero" fill-opacity="1" /><path clip-path="url(#clip360)" d="M549.361 192.124 Q548.644 191.708 547.787 191.522 Q546.954 191.314 545.935 191.314 Q542.324 191.314 540.38 193.675 Q538.459 196.013 538.459 200.411 L538.459 214.069 L534.176 214.069 L534.176 188.143 L538.459 188.143 L538.459 192.171 Q539.801 189.809 541.954 188.675 Q544.107 187.518 547.185 187.518 Q547.625 187.518 548.158 187.587 Q548.69 187.634 549.338 187.749 L549.361 192.124 Z" fill="#000000" fill-rule="nonzero" fill-opacity="1" /><path clip-path="url(#clip360)" d="M553.829 188.143 L558.088 188.143 L558.088 214.069 L553.829 214.069 L553.829 188.143 M553.829 178.05 L558.088 178.05 L558.088 183.444 L553.829 183.444 L553.829 178.05 Z" fill="#000000" fill-rule="nonzero" fill-opacity="1" /><path clip-path="url(#clip360)" d="M585.611 201.129 Q585.611 196.43 583.667 193.768 Q581.745 191.083 578.366 191.083 Q574.986 191.083 573.042 193.768 Q571.12 196.43 571.12 201.129 Q571.12 205.828 573.042 208.513 Q574.986 211.175 578.366 211.175 Q581.745 211.175 583.667 208.513 Q585.611 205.828 585.611 201.129 M571.12 192.078 Q572.463 189.763 574.5 188.652 Q576.56 187.518 579.407 187.518 Q584.13 187.518 587.069 191.268 Q590.032 195.018 590.032 201.129 Q590.032 207.24 587.069 210.99 Q584.13 214.74 579.407 214.74 Q576.56 214.74 574.5 213.629 Q572.463 212.495 571.12 210.18 L571.12 214.069 L566.838 214.069 L566.838 178.05 L571.12 178.05 L571.12 192.078 Z" fill="#000000" fill-rule="nonzero" fill-opacity="1" /><path clip-path="url(#clip360)" d="M596.653 203.837 L596.653 188.143 L600.912 188.143 L600.912 203.675 Q600.912 207.356 602.347 209.208 Q603.782 211.036 606.653 211.036 Q610.102 211.036 612.092 208.837 Q614.106 206.638 614.106 202.842 L614.106 188.143 L618.366 188.143 L618.366 214.069 L614.106 214.069 L614.106 210.087 Q612.555 212.448 610.495 213.606 Q608.458 214.74 605.75 214.74 Q601.282 214.74 598.968 211.962 Q596.653 209.184 596.653 203.837 M607.37 187.518 L607.37 187.518 Z" fill="#000000" fill-rule="nonzero" fill-opacity="1" /><path clip-path="url(#clip360)" d="M631.352 180.782 L631.352 188.143 L640.125 188.143 L640.125 191.453 L631.352 191.453 L631.352 205.527 Q631.352 208.698 632.208 209.601 Q633.088 210.504 635.75 210.504 L640.125 210.504 L640.125 214.069 L635.75 214.069 Q630.819 214.069 628.944 212.24 Q627.069 210.388 627.069 205.527 L627.069 191.453 L623.944 191.453 L623.944 188.143 L627.069 188.143 L627.069 180.782 L631.352 180.782 Z" fill="#000000" fill-rule="nonzero" fill-opacity="1" /><path clip-path="url(#clip360)" d="M645.727 188.143 L649.986 188.143 L649.986 214.069 L645.727 214.069 L645.727 188.143 M645.727 178.05 L649.986 178.05 L649.986 183.444 L645.727 183.444 L645.727 178.05 Z" fill="#000000" fill-rule="nonzero" fill-opacity="1" /><path clip-path="url(#clip360)" d="M668.944 191.129 Q665.518 191.129 663.527 193.814 Q661.537 196.476 661.537 201.129 Q661.537 205.782 663.504 208.467 Q665.495 211.129 668.944 211.129 Q672.347 211.129 674.337 208.444 Q676.328 205.758 676.328 201.129 Q676.328 196.522 674.337 193.837 Q672.347 191.129 668.944 191.129 M668.944 187.518 Q674.5 187.518 677.671 191.129 Q680.842 194.74 680.842 201.129 Q680.842 207.495 677.671 211.129 Q674.5 214.74 668.944 214.74 Q663.365 214.74 660.194 211.129 Q657.046 207.495 657.046 201.129 Q657.046 194.74 660.194 191.129 Q663.365 187.518 668.944 187.518 Z" fill="#000000" fill-rule="nonzero" fill-opacity="1" /><path clip-path="url(#clip360)" d="M709.453 198.421 L709.453 214.069 L705.194 214.069 L705.194 198.559 Q705.194 194.879 703.759 193.05 Q702.323 191.222 699.453 191.222 Q696.004 191.222 694.013 193.421 Q692.023 195.62 692.023 199.416 L692.023 214.069 L687.74 214.069 L687.74 188.143 L692.023 188.143 L692.023 192.171 Q693.55 189.833 695.611 188.675 Q697.694 187.518 700.402 187.518 Q704.87 187.518 707.161 190.296 Q709.453 193.05 709.453 198.421 Z" fill="#000000" fill-rule="nonzero" fill-opacity="1" /><path clip-path="url(#clip360)" d="M746.143 178.05 L746.143 181.592 L742.069 181.592 Q739.777 181.592 738.874 182.518 Q737.995 183.444 737.995 185.851 L737.995 188.143 L745.008 188.143 L745.008 191.453 L737.995 191.453 L737.995 214.069 L733.712 214.069 L733.712 191.453 L729.638 191.453 L729.638 188.143 L733.712 188.143 L733.712 186.337 Q733.712 182.009 735.726 180.041 Q737.74 178.05 742.115 178.05 L746.143 178.05 Z" fill="#000000" fill-rule="nonzero" fill-opacity="1" /><path clip-path="url(#clip360)" d="M749.707 188.143 L753.967 188.143 L753.967 214.069 L749.707 214.069 L749.707 188.143 M749.707 178.05 L753.967 178.05 L753.967 183.444 L749.707 183.444 L749.707 178.05 Z" fill="#000000" fill-rule="nonzero" fill-opacity="1" /><path clip-path="url(#clip360)" d="M767.092 180.782 L767.092 188.143 L775.865 188.143 L775.865 191.453 L767.092 191.453 L767.092 205.527 Q767.092 208.698 767.948 209.601 Q768.828 210.504 771.49 210.504 L775.865 210.504 L775.865 214.069 L771.49 214.069 Q766.559 214.069 764.684 212.24 Q762.809 210.388 762.809 205.527 L762.809 191.453 L759.684 191.453 L759.684 188.143 L762.809 188.143 L762.809 180.782 L767.092 180.782 Z" fill="#000000" fill-rule="nonzero" fill-opacity="1" /></svg>
