<?xml version="1.0" encoding="utf-8"?>
<svg xmlns="http://www.w3.org/2000/svg" xmlns:xlink="http://www.w3.org/1999/xlink" width="600" height="400" viewBox="0 0 2400 1600">
<defs>
  <clipPath id="clip450">
    <rect x="0" y="0" width="2400" height="1600"/>
  </clipPath>
</defs>
<path clip-path="url(#clip450)" d="M0 1600 L2400 1600 L2400 8.88178e-14 L0 8.88178e-14  Z" fill="#ffffff" fill-rule="evenodd" fill-opacity="1"/>
<defs>
  <clipPath id="clip451">
    <rect x="249" y="47" width="2104" height="1507"/>
  </clipPath>
</defs>
<path clip-path="url(#clip450)" d="M249.843 1552.76 L2352.76 1552.76 L2352.76 47.2441 L249.843 47.2441  Z" fill="#ffffff" fill-rule="evenodd" fill-opacity="1"/>
<polyline clip-path="url(#clip451)" style="stroke:#000000; stroke-linecap:round; stroke-linejoin:round; stroke-width:2; stroke-opacity:0.1; fill:none" points="249.843,1342.48 2352.76,1342.48 "/>
<polyline clip-path="url(#clip451)" style="stroke:#000000; stroke-linecap:round; stroke-linejoin:round; stroke-width:2; stroke-opacity:0.1; fill:none" points="249.843,1062.33 2352.76,1062.33 "/>
<polyline clip-path="url(#clip451)" style="stroke:#000000; stroke-linecap:round; stroke-linejoin:round; stroke-width:2; stroke-opacity:0.1; fill:none" points="249.843,782.173 2352.76,782.173 "/>
<polyline clip-path="url(#clip451)" style="stroke:#000000; stroke-linecap:round; stroke-linejoin:round; stroke-width:2; stroke-opacity:0.1; fill:none" points="249.843,502.021 2352.76,502.021 "/>
<polyline clip-path="url(#clip451)" style="stroke:#000000; stroke-linecap:round; stroke-linejoin:round; stroke-width:2; stroke-opacity:0.1; fill:none" points="249.843,221.868 2352.76,221.868 "/>
<polyline clip-path="url(#clip451)" style="stroke:#000000; stroke-linecap:round; stroke-linejoin:round; stroke-width:2; stroke-opacity:0.1; fill:none" points="249.843,1342.48 2352.76,1342.48 "/>
<polyline clip-path="url(#clip451)" style="stroke:#000000; stroke-linecap:round; stroke-linejoin:round; stroke-width:2; stroke-opacity:0.1; fill:none" points="249.843,1062.33 2352.76,1062.33 "/>
<polyline clip-path="url(#clip451)" style="stroke:#000000; stroke-linecap:round; stroke-linejoin:round; stroke-width:2; stroke-opacity:0.1; fill:none" points="249.843,782.173 2352.76,782.173 "/>
<polyline clip-path="url(#clip451)" style="stroke:#000000; stroke-linecap:round; stroke-linejoin:round; stroke-width:2; stroke-opacity:0.1; fill:none" points="249.843,502.021 2352.76,502.021 "/>
<polyline clip-path="url(#clip451)" style="stroke:#000000; stroke-linecap:round; stroke-linejoin:round; stroke-width:2; stroke-opacity:0.1; fill:none" points="249.843,221.868 2352.76,221.868 "/>
<polyline clip-path="url(#clip450)" style="stroke:#000000; stroke-linecap:round; stroke-linejoin:round; stroke-width:4; stroke-opacity:1; fill:none" points="249.843,1552.76 2352.76,1552.76 "/>
<polyline clip-path="url(#clip450)" style="stroke:#000000; stroke-linecap:round; stroke-linejoin:round; stroke-width:4; stroke-opacity:1; fill:none" points="249.843,47.2441 2352.76,47.2441 "/>
<polyline clip-path="url(#clip450)" style="stroke:#000000; stroke-linecap:round; stroke-linejoin:round; stroke-width:4; stroke-opacity:1; fill:none" points="249.843,1552.76 249.843,47.2441 "/>
<polyline clip-path="url(#clip450)" style="stroke:#000000; stroke-linecap:round; stroke-linejoin:round; stroke-width:4; stroke-opacity:1; fill:none" points="2352.76,1552.76 2352.76,47.2441 "/>
<polyline clip-path="url(#clip450)" style="stroke:#000000; stroke-linecap:round; stroke-linejoin:round; stroke-width:4; stroke-opacity:1; fill:none" points="249.843,1342.48 268.741,1342.48 "/>
<polyline clip-path="url(#clip450)" style="stroke:#000000; stroke-linecap:round; stroke-linejoin:round; stroke-width:4; stroke-opacity:1; fill:none" points="249.843,1062.33 268.741,1062.33 "/>
<polyline clip-path="url(#clip450)" style="stroke:#000000; stroke-linecap:round; stroke-linejoin:round; stroke-width:4; stroke-opacity:1; fill:none" points="249.843,782.173 268.741,782.173 "/>
<polyline clip-path="url(#clip450)" style="stroke:#000000; stroke-linecap:round; stroke-linejoin:round; stroke-width:4; stroke-opacity:1; fill:none" points="249.843,502.021 268.741,502.021 "/>
<polyline clip-path="url(#clip450)" style="stroke:#000000; stroke-linecap:round; stroke-linejoin:round; stroke-width:4; stroke-opacity:1; fill:none" points="249.843,221.868 268.741,221.868 "/>
<polyline clip-path="url(#clip450)" style="stroke:#000000; stroke-linecap:round; stroke-linejoin:round; stroke-width:4; stroke-opacity:1; fill:none" points="2352.76,1342.48 2333.86,1342.48 "/>
<polyline clip-path="url(#clip450)" style="stroke:#000000; stroke-linecap:round; stroke-linejoin:round; stroke-width:4; stroke-opacity:1; fill:none" points="2352.76,1062.33 2333.86,1062.33 "/>
<polyline clip-path="url(#clip450)" style="stroke:#000000; stroke-linecap:round; stroke-linejoin:round; stroke-width:4; stroke-opacity:1; fill:none" points="2352.76,782.173 2333.86,782.173 "/>
<polyline clip-path="url(#clip450)" style="stroke:#000000; stroke-linecap:round; stroke-linejoin:round; stroke-width:4; stroke-opacity:1; fill:none" points="2352.76,502.021 2333.86,502.021 "/>
<polyline clip-path="url(#clip450)" style="stroke:#000000; stroke-linecap:round; stroke-linejoin:round; stroke-width:4; stroke-opacity:1; fill:none" points="2352.76,221.868 2333.86,221.868 "/>
<path clip-path="url(#clip450)" d="M126.922 1340.61 Q123.774 1340.61 121.922 1342.77 Q120.093 1344.92 120.093 1348.67 Q120.093 1352.4 121.922 1354.57 Q123.774 1356.73 126.922 1356.73 Q130.07 1356.73 131.899 1354.57 Q133.751 1352.4 133.751 1348.67 Q133.751 1344.92 131.899 1342.77 Q130.07 1340.61 126.922 1340.61 M136.204 1325.96 L136.204 1330.22 Q134.445 1329.39 132.64 1328.95 Q130.857 1328.51 129.098 1328.51 Q124.468 1328.51 122.015 1331.63 Q119.584 1334.76 119.237 1341.08 Q120.603 1339.06 122.663 1338 Q124.723 1336.91 127.2 1336.91 Q132.408 1336.91 135.417 1340.08 Q138.45 1343.23 138.45 1348.67 Q138.45 1353.99 135.302 1357.21 Q132.154 1360.43 126.922 1360.43 Q120.927 1360.43 117.756 1355.85 Q114.584 1351.24 114.584 1342.51 Q114.584 1334.32 118.473 1329.46 Q122.362 1324.57 128.913 1324.57 Q130.672 1324.57 132.455 1324.92 Q134.26 1325.27 136.204 1325.96 Z" fill="#000000" fill-rule="nonzero" fill-opacity="1" /><path clip-path="url(#clip450)" d="M146.552 1325.2 L164.908 1325.2 L164.908 1329.13 L150.834 1329.13 L150.834 1337.61 Q151.853 1337.26 152.871 1337.1 Q153.89 1336.91 154.908 1336.91 Q160.695 1336.91 164.075 1340.08 Q167.454 1343.25 167.454 1348.67 Q167.454 1354.25 163.982 1357.35 Q160.51 1360.43 154.19 1360.43 Q152.015 1360.43 149.746 1360.06 Q147.501 1359.69 145.093 1358.95 L145.093 1354.25 Q147.177 1355.38 149.399 1355.94 Q151.621 1356.49 154.098 1356.49 Q158.103 1356.49 160.44 1354.39 Q162.778 1352.28 162.778 1348.67 Q162.778 1345.06 160.44 1342.95 Q158.103 1340.85 154.098 1340.85 Q152.223 1340.85 150.348 1341.26 Q148.496 1341.68 146.552 1342.56 L146.552 1325.2 Z" fill="#000000" fill-rule="nonzero" fill-opacity="1" /><path clip-path="url(#clip450)" d="M176.667 1353.88 L181.551 1353.88 L181.551 1359.76 L176.667 1359.76 L176.667 1353.88 Z" fill="#000000" fill-rule="nonzero" fill-opacity="1" /><path clip-path="url(#clip450)" d="M202.315 1340.61 Q199.167 1340.61 197.315 1342.77 Q195.487 1344.92 195.487 1348.67 Q195.487 1352.4 197.315 1354.57 Q199.167 1356.73 202.315 1356.73 Q205.463 1356.73 207.292 1354.57 Q209.144 1352.4 209.144 1348.67 Q209.144 1344.92 207.292 1342.77 Q205.463 1340.61 202.315 1340.61 M211.598 1325.96 L211.598 1330.22 Q209.838 1329.39 208.033 1328.95 Q206.25 1328.51 204.491 1328.51 Q199.862 1328.51 197.408 1331.63 Q194.977 1334.76 194.63 1341.08 Q195.996 1339.06 198.056 1338 Q200.116 1336.91 202.593 1336.91 Q207.801 1336.91 210.811 1340.08 Q213.843 1343.23 213.843 1348.67 Q213.843 1353.99 210.695 1357.21 Q207.547 1360.43 202.315 1360.43 Q196.32 1360.43 193.149 1355.85 Q189.977 1351.24 189.977 1342.51 Q189.977 1334.32 193.866 1329.46 Q197.755 1324.57 204.306 1324.57 Q206.065 1324.57 207.848 1324.92 Q209.653 1325.27 211.598 1325.96 Z" fill="#000000" fill-rule="nonzero" fill-opacity="1" /><path clip-path="url(#clip450)" d="M127.177 1060.46 Q124.029 1060.46 122.177 1062.62 Q120.348 1064.77 120.348 1068.52 Q120.348 1072.24 122.177 1074.42 Q124.029 1076.57 127.177 1076.57 Q130.325 1076.57 132.154 1074.42 Q134.005 1072.24 134.005 1068.52 Q134.005 1064.77 132.154 1062.62 Q130.325 1060.46 127.177 1060.46 M136.459 1045.81 L136.459 1050.07 Q134.7 1049.24 132.894 1048.8 Q131.112 1048.36 129.353 1048.36 Q124.723 1048.36 122.269 1051.48 Q119.839 1054.61 119.492 1060.93 Q120.857 1058.91 122.918 1057.85 Q124.978 1056.76 127.455 1056.76 Q132.663 1056.76 135.672 1059.93 Q138.704 1063.08 138.704 1068.52 Q138.704 1073.84 135.556 1077.06 Q132.408 1080.28 127.177 1080.28 Q121.181 1080.28 118.01 1075.69 Q114.839 1071.09 114.839 1062.36 Q114.839 1054.17 118.728 1049.3 Q122.617 1044.42 129.167 1044.42 Q130.927 1044.42 132.709 1044.77 Q134.515 1045.12 136.459 1045.81 Z" fill="#000000" fill-rule="nonzero" fill-opacity="1" /><path clip-path="url(#clip450)" d="M146.806 1045.05 L165.163 1045.05 L165.163 1048.98 L151.089 1048.98 L151.089 1057.45 Q152.107 1057.11 153.126 1056.94 Q154.144 1056.76 155.163 1056.76 Q160.95 1056.76 164.329 1059.93 Q167.709 1063.1 167.709 1068.52 Q167.709 1074.1 164.237 1077.2 Q160.765 1080.28 154.445 1080.28 Q152.269 1080.28 150.001 1079.91 Q147.755 1079.54 145.348 1078.8 L145.348 1074.1 Q147.431 1075.23 149.653 1075.79 Q151.876 1076.34 154.353 1076.34 Q158.357 1076.34 160.695 1074.24 Q163.033 1072.13 163.033 1068.52 Q163.033 1064.91 160.695 1062.8 Q158.357 1060.69 154.353 1060.69 Q152.478 1060.69 150.603 1061.11 Q148.751 1061.53 146.806 1062.41 L146.806 1045.05 Z" fill="#000000" fill-rule="nonzero" fill-opacity="1" /><path clip-path="url(#clip450)" d="M176.922 1073.73 L181.806 1073.73 L181.806 1079.61 L176.922 1079.61 L176.922 1073.73 Z" fill="#000000" fill-rule="nonzero" fill-opacity="1" /><path clip-path="url(#clip450)" d="M201.991 1063.19 Q198.658 1063.19 196.737 1064.98 Q194.838 1066.76 194.838 1069.88 Q194.838 1073.01 196.737 1074.79 Q198.658 1076.57 201.991 1076.57 Q205.324 1076.57 207.246 1074.79 Q209.167 1072.99 209.167 1069.88 Q209.167 1066.76 207.246 1064.98 Q205.348 1063.19 201.991 1063.19 M197.315 1061.2 Q194.306 1060.46 192.616 1058.4 Q190.95 1056.34 190.95 1053.38 Q190.95 1049.24 193.889 1046.83 Q196.852 1044.42 201.991 1044.42 Q207.153 1044.42 210.093 1046.83 Q213.033 1049.24 213.033 1053.38 Q213.033 1056.34 211.343 1058.4 Q209.676 1060.46 206.69 1061.2 Q210.07 1061.99 211.945 1064.28 Q213.843 1066.57 213.843 1069.88 Q213.843 1074.91 210.764 1077.59 Q207.709 1080.28 201.991 1080.28 Q196.274 1080.28 193.195 1077.59 Q190.139 1074.91 190.139 1069.88 Q190.139 1066.57 192.038 1064.28 Q193.936 1061.99 197.315 1061.2 M195.602 1053.82 Q195.602 1056.5 197.269 1058.01 Q198.959 1059.51 201.991 1059.51 Q205 1059.51 206.69 1058.01 Q208.403 1056.5 208.403 1053.82 Q208.403 1051.13 206.69 1049.63 Q205 1048.12 201.991 1048.12 Q198.959 1048.12 197.269 1049.63 Q195.602 1051.13 195.602 1053.82 Z" fill="#000000" fill-rule="nonzero" fill-opacity="1" /><path clip-path="url(#clip450)" d="M127.084 780.31 Q123.936 780.31 122.084 782.463 Q120.255 784.615 120.255 788.365 Q120.255 792.092 122.084 794.268 Q123.936 796.421 127.084 796.421 Q130.232 796.421 132.061 794.268 Q133.913 792.092 133.913 788.365 Q133.913 784.615 132.061 782.463 Q130.232 780.31 127.084 780.31 M136.367 765.657 L136.367 769.916 Q134.607 769.083 132.802 768.643 Q131.019 768.203 129.26 768.203 Q124.63 768.203 122.177 771.328 Q119.746 774.453 119.399 780.773 Q120.765 778.759 122.825 777.694 Q124.885 776.606 127.362 776.606 Q132.57 776.606 135.579 779.777 Q138.612 782.926 138.612 788.365 Q138.612 793.689 135.464 796.907 Q132.316 800.124 127.084 800.124 Q121.089 800.124 117.918 795.541 Q114.746 790.935 114.746 782.208 Q114.746 774.014 118.635 769.152 Q122.524 764.268 129.075 764.268 Q130.834 764.268 132.617 764.615 Q134.422 764.963 136.367 765.657 Z" fill="#000000" fill-rule="nonzero" fill-opacity="1" /><path clip-path="url(#clip450)" d="M157.246 780.31 Q154.098 780.31 152.246 782.463 Q150.417 784.615 150.417 788.365 Q150.417 792.092 152.246 794.268 Q154.098 796.421 157.246 796.421 Q160.394 796.421 162.223 794.268 Q164.075 792.092 164.075 788.365 Q164.075 784.615 162.223 782.463 Q160.394 780.31 157.246 780.31 M166.528 765.657 L166.528 769.916 Q164.769 769.083 162.964 768.643 Q161.181 768.203 159.422 768.203 Q154.792 768.203 152.339 771.328 Q149.908 774.453 149.561 780.773 Q150.927 778.759 152.987 777.694 Q155.047 776.606 157.524 776.606 Q162.732 776.606 165.741 779.777 Q168.774 782.926 168.774 788.365 Q168.774 793.689 165.626 796.907 Q162.477 800.124 157.246 800.124 Q151.251 800.124 148.079 795.541 Q144.908 790.935 144.908 782.208 Q144.908 774.014 148.797 769.152 Q152.686 764.268 159.237 764.268 Q160.996 764.268 162.778 764.615 Q164.584 764.963 166.528 765.657 Z" fill="#000000" fill-rule="nonzero" fill-opacity="1" /><path clip-path="url(#clip450)" d="M176.829 793.574 L181.713 793.574 L181.713 799.453 L176.829 799.453 L176.829 793.574 Z" fill="#000000" fill-rule="nonzero" fill-opacity="1" /><path clip-path="url(#clip450)" d="M201.899 767.972 Q198.287 767.972 196.459 771.537 Q194.653 775.078 194.653 782.208 Q194.653 789.314 196.459 792.879 Q198.287 796.421 201.899 796.421 Q205.533 796.421 207.338 792.879 Q209.167 789.314 209.167 782.208 Q209.167 775.078 207.338 771.537 Q205.533 767.972 201.899 767.972 M201.899 764.268 Q207.709 764.268 210.764 768.875 Q213.843 773.458 213.843 782.208 Q213.843 790.935 210.764 795.541 Q207.709 800.124 201.899 800.124 Q196.088 800.124 193.01 795.541 Q189.954 790.935 189.954 782.208 Q189.954 773.458 193.01 768.875 Q196.088 764.268 201.899 764.268 Z" fill="#000000" fill-rule="nonzero" fill-opacity="1" /><path clip-path="url(#clip450)" d="M128.681 500.157 Q125.533 500.157 123.681 502.31 Q121.853 504.463 121.853 508.213 Q121.853 511.94 123.681 514.116 Q125.533 516.268 128.681 516.268 Q131.83 516.268 133.658 514.116 Q135.51 511.94 135.51 508.213 Q135.51 504.463 133.658 502.31 Q131.83 500.157 128.681 500.157 M137.964 485.505 L137.964 489.764 Q136.204 488.931 134.399 488.491 Q132.617 488.051 130.857 488.051 Q126.228 488.051 123.774 491.176 Q121.343 494.301 120.996 500.62 Q122.362 498.606 124.422 497.542 Q126.482 496.454 128.959 496.454 Q134.167 496.454 137.177 499.625 Q140.209 502.773 140.209 508.213 Q140.209 513.537 137.061 516.754 Q133.913 519.972 128.681 519.972 Q122.686 519.972 119.515 515.389 Q116.343 510.782 116.343 502.055 Q116.343 493.861 120.232 489 Q124.121 484.116 130.672 484.116 Q132.431 484.116 134.214 484.463 Q136.019 484.81 137.964 485.505 Z" fill="#000000" fill-rule="nonzero" fill-opacity="1" /><path clip-path="url(#clip450)" d="M158.843 500.157 Q155.695 500.157 153.843 502.31 Q152.015 504.463 152.015 508.213 Q152.015 511.94 153.843 514.116 Q155.695 516.268 158.843 516.268 Q161.991 516.268 163.82 514.116 Q165.672 511.94 165.672 508.213 Q165.672 504.463 163.82 502.31 Q161.991 500.157 158.843 500.157 M168.126 485.505 L168.126 489.764 Q166.366 488.931 164.561 488.491 Q162.778 488.051 161.019 488.051 Q156.39 488.051 153.936 491.176 Q151.505 494.301 151.158 500.62 Q152.524 498.606 154.584 497.542 Q156.644 496.454 159.121 496.454 Q164.329 496.454 167.339 499.625 Q170.371 502.773 170.371 508.213 Q170.371 513.537 167.223 516.754 Q164.075 519.972 158.843 519.972 Q152.848 519.972 149.677 515.389 Q146.505 510.782 146.505 502.055 Q146.505 493.861 150.394 489 Q154.283 484.116 160.834 484.116 Q162.593 484.116 164.376 484.463 Q166.181 484.81 168.126 485.505 Z" fill="#000000" fill-rule="nonzero" fill-opacity="1" /><path clip-path="url(#clip450)" d="M178.426 513.421 L183.311 513.421 L183.311 519.301 L178.426 519.301 L178.426 513.421 Z" fill="#000000" fill-rule="nonzero" fill-opacity="1" /><path clip-path="url(#clip450)" d="M197.524 515.366 L213.843 515.366 L213.843 519.301 L191.899 519.301 L191.899 515.366 Q194.561 512.611 199.144 507.981 Q203.75 503.329 204.931 501.986 Q207.176 499.463 208.056 497.727 Q208.959 495.968 208.959 494.278 Q208.959 491.523 207.014 489.787 Q205.093 488.051 201.991 488.051 Q199.792 488.051 197.338 488.815 Q194.908 489.579 192.13 491.13 L192.13 486.407 Q194.954 485.273 197.408 484.694 Q199.862 484.116 201.899 484.116 Q207.269 484.116 210.463 486.801 Q213.658 489.486 213.658 493.977 Q213.658 496.106 212.848 498.028 Q212.061 499.926 209.954 502.518 Q209.375 503.19 206.274 506.407 Q203.172 509.602 197.524 515.366 Z" fill="#000000" fill-rule="nonzero" fill-opacity="1" /><path clip-path="url(#clip450)" d="M126.598 220.005 Q123.45 220.005 121.598 222.158 Q119.769 224.31 119.769 228.06 Q119.769 231.787 121.598 233.963 Q123.45 236.116 126.598 236.116 Q129.746 236.116 131.575 233.963 Q133.427 231.787 133.427 228.06 Q133.427 224.31 131.575 222.158 Q129.746 220.005 126.598 220.005 M135.88 205.352 L135.88 209.611 Q134.121 208.778 132.316 208.338 Q130.533 207.898 128.774 207.898 Q124.144 207.898 121.691 211.023 Q119.26 214.148 118.913 220.468 Q120.279 218.454 122.339 217.389 Q124.399 216.301 126.876 216.301 Q132.084 216.301 135.093 219.472 Q138.126 222.621 138.126 228.06 Q138.126 233.384 134.978 236.602 Q131.83 239.82 126.598 239.82 Q120.603 239.82 117.431 235.236 Q114.26 230.63 114.26 221.903 Q114.26 213.709 118.149 208.848 Q122.038 203.963 128.589 203.963 Q130.348 203.963 132.13 204.311 Q133.936 204.658 135.88 205.352 Z" fill="#000000" fill-rule="nonzero" fill-opacity="1" /><path clip-path="url(#clip450)" d="M156.76 220.005 Q153.612 220.005 151.76 222.158 Q149.931 224.31 149.931 228.06 Q149.931 231.787 151.76 233.963 Q153.612 236.116 156.76 236.116 Q159.908 236.116 161.737 233.963 Q163.589 231.787 163.589 228.06 Q163.589 224.31 161.737 222.158 Q159.908 220.005 156.76 220.005 M166.042 205.352 L166.042 209.611 Q164.283 208.778 162.477 208.338 Q160.695 207.898 158.936 207.898 Q154.306 207.898 151.853 211.023 Q149.422 214.148 149.075 220.468 Q150.441 218.454 152.501 217.389 Q154.561 216.301 157.038 216.301 Q162.246 216.301 165.255 219.472 Q168.288 222.621 168.288 228.06 Q168.288 233.384 165.14 236.602 Q161.991 239.82 156.76 239.82 Q150.765 239.82 147.593 235.236 Q144.422 230.63 144.422 221.903 Q144.422 213.709 148.311 208.848 Q152.2 203.963 158.751 203.963 Q160.51 203.963 162.292 204.311 Q164.098 204.658 166.042 205.352 Z" fill="#000000" fill-rule="nonzero" fill-opacity="1" /><path clip-path="url(#clip450)" d="M176.343 233.269 L181.227 233.269 L181.227 239.148 L176.343 239.148 L176.343 233.269 Z" fill="#000000" fill-rule="nonzero" fill-opacity="1" /><path clip-path="url(#clip450)" d="M204.26 208.662 L192.454 227.111 L204.26 227.111 L204.26 208.662 M203.033 204.588 L208.912 204.588 L208.912 227.111 L213.843 227.111 L213.843 231 L208.912 231 L208.912 239.148 L204.26 239.148 L204.26 231 L188.658 231 L188.658 226.486 L203.033 204.588 Z" fill="#000000" fill-rule="nonzero" fill-opacity="1" /><path clip-path="url(#clip450)" d="M22.818 922.094 L46.4666 930.815 L46.4666 913.341 L22.818 922.094 M16.4842 925.723 L16.4842 918.434 L64.0042 900.324 L64.0042 907.008 L51.8138 911.336 L51.8138 932.757 L64.0042 937.085 L64.0042 943.865 L16.4842 925.723 Z" fill="#000000" fill-rule="nonzero" fill-opacity="1" /><path clip-path="url(#clip450)" d="M45.7664 870.182 Q39.4007 870.182 35.8996 872.824 Q32.3984 875.434 32.3984 880.176 Q32.3984 884.887 35.8996 887.528 Q39.4007 890.138 45.7664 890.138 Q52.1003 890.138 55.6014 887.528 Q59.1026 884.887 59.1026 880.176 Q59.1026 875.434 55.6014 872.824 Q52.1003 870.182 45.7664 870.182 M59.58 864.325 Q68.683 864.325 73.1071 868.368 Q77.5631 872.41 77.5631 880.749 Q77.5631 883.836 77.0857 886.574 Q76.6401 889.311 75.6852 891.889 L69.9879 891.889 Q71.3884 889.311 72.0568 886.796 Q72.7252 884.282 72.7252 881.672 Q72.7252 875.911 69.7015 873.046 Q66.7096 870.182 60.6303 870.182 L57.7339 870.182 Q60.885 871.996 62.4446 874.829 Q64.0042 877.662 64.0042 881.608 Q64.0042 888.165 59.0071 892.175 Q54.01 896.186 45.7664 896.186 Q37.491 896.186 32.4939 892.175 Q27.4968 888.165 27.4968 881.608 Q27.4968 877.662 29.0564 874.829 Q30.616 871.996 33.7671 870.182 L28.3562 870.182 L28.3562 864.325 L59.58 864.325 Z" fill="#000000" fill-rule="nonzero" fill-opacity="1" /><path clip-path="url(#clip450)" d="M44.7161 821.771 L47.5806 821.771 L47.5806 848.698 Q53.6281 848.316 56.8109 845.069 Q59.9619 841.791 59.9619 835.966 Q59.9619 832.592 59.1344 829.441 Q58.3069 826.259 56.6518 823.139 L62.1899 823.139 Q63.5267 826.29 64.227 829.601 Q64.9272 832.911 64.9272 836.316 Q64.9272 844.846 59.9619 849.843 Q54.9967 854.809 46.5303 854.809 Q37.7774 854.809 32.6531 850.098 Q27.4968 845.356 27.4968 837.335 Q27.4968 830.142 32.1438 825.972 Q36.7589 821.771 44.7161 821.771 M42.9973 827.627 Q38.1912 827.691 35.3266 830.333 Q32.4621 832.943 32.4621 837.271 Q32.4621 842.173 35.2312 845.133 Q38.0002 848.061 43.0292 848.507 L42.9973 827.627 Z" fill="#000000" fill-rule="nonzero" fill-opacity="1" /><path clip-path="url(#clip450)" d="M14.5426 777.37 Q21.8632 781.635 29.0246 783.704 Q36.186 785.773 43.5384 785.773 Q50.8908 785.773 58.1159 783.704 Q65.3091 781.603 72.5979 777.37 L72.5979 782.462 Q65.1182 787.237 57.8931 789.624 Q50.668 791.979 43.5384 791.979 Q36.4406 791.979 29.2474 789.624 Q22.0542 787.269 14.5426 782.462 L14.5426 777.37 Z" fill="#000000" fill-rule="nonzero" fill-opacity="1" /><path clip-path="url(#clip450)" d="M16.4842 765.752 L16.4842 756.172 L48.8219 744.045 L16.4842 731.855 L16.4842 722.275 L64.0042 722.275 L64.0042 728.545 L22.277 728.545 L54.8694 740.799 L54.8694 747.26 L22.277 759.514 L64.0042 759.514 L64.0042 765.752 L16.4842 765.752 Z" fill="#000000" fill-rule="nonzero" fill-opacity="1" /><path clip-path="url(#clip450)" d="M46.0847 693.565 Q46.0847 700.663 47.7079 703.4 Q49.3312 706.138 53.2461 706.138 Q56.3653 706.138 58.2114 704.101 Q60.0256 702.032 60.0256 698.499 Q60.0256 693.629 56.5881 690.701 Q53.1188 687.741 47.3897 687.741 L46.0847 687.741 L46.0847 693.565 M43.6657 681.884 L64.0042 681.884 L64.0042 687.741 L58.5933 687.741 Q61.8398 689.746 63.3994 692.738 Q64.9272 695.73 64.9272 700.058 Q64.9272 705.533 61.8716 708.779 Q58.7843 711.994 53.6281 711.994 Q47.6125 711.994 44.5569 707.984 Q41.5014 703.941 41.5014 695.953 L41.5014 687.741 L40.9285 687.741 Q36.8862 687.741 34.6901 690.414 Q32.4621 693.056 32.4621 697.862 Q32.4621 700.918 33.1941 703.814 Q33.9262 706.711 35.3903 709.384 L29.9795 709.384 Q28.7381 706.169 28.1334 703.146 Q27.4968 700.122 27.4968 697.257 Q27.4968 689.523 31.5072 685.704 Q35.5176 681.884 43.6657 681.884 Z" fill="#000000" fill-rule="nonzero" fill-opacity="1" /><path clip-path="url(#clip450)" d="M14.5426 670.744 L14.5426 665.652 Q22.0542 660.877 29.2474 658.522 Q36.4406 656.135 43.5384 656.135 Q50.668 656.135 57.8931 658.522 Q65.1182 660.877 72.5979 665.652 L72.5979 670.744 Q65.3091 666.511 58.1159 664.442 Q50.8908 662.342 43.5384 662.342 Q36.186 662.342 29.0246 664.442 Q21.8632 666.511 14.5426 670.744 Z" fill="#000000" fill-rule="nonzero" fill-opacity="1" /><polyline clip-path="url(#clip451)" style="stroke:#009af9; stroke-linecap:round; stroke-linejoin:round; stroke-width:4; stroke-opacity:1; fill:none" points="309.359,1510.15 309.359,802.249 "/>
<polyline clip-path="url(#clip451)" style="stroke:#009af9; stroke-linecap:round; stroke-linejoin:round; stroke-width:4; stroke-opacity:1; fill:none" points="419.575,1300.08 419.575,945.214 "/>
<polyline clip-path="url(#clip451)" style="stroke:#009af9; stroke-linecap:round; stroke-linejoin:round; stroke-width:4; stroke-opacity:1; fill:none" points="529.79,1254.48 529.79,979.25 "/>
<polyline clip-path="url(#clip451)" style="stroke:#009af9; stroke-linecap:round; stroke-linejoin:round; stroke-width:4; stroke-opacity:1; fill:none" points="640.006,1208.84 640.006,980.029 "/>
<polyline clip-path="url(#clip451)" style="stroke:#009af9; stroke-linecap:round; stroke-linejoin:round; stroke-width:4; stroke-opacity:1; fill:none" points="750.222,1160.6 750.222,843.651 "/>
<polyline clip-path="url(#clip451)" style="stroke:#009af9; stroke-linecap:round; stroke-linejoin:round; stroke-width:4; stroke-opacity:1; fill:none" points="860.437,1057.07 860.437,945.655 "/>
<polyline clip-path="url(#clip451)" style="stroke:#009af9; stroke-linecap:round; stroke-linejoin:round; stroke-width:4; stroke-opacity:1; fill:none" points="970.653,1046.18 970.653,925.335 "/>
<polyline clip-path="url(#clip451)" style="stroke:#009af9; stroke-linecap:round; stroke-linejoin:round; stroke-width:4; stroke-opacity:1; fill:none" points="1080.87,1052.58 1080.87,781.76 "/>
<polyline clip-path="url(#clip451)" style="stroke:#009af9; stroke-linecap:round; stroke-linejoin:round; stroke-width:4; stroke-opacity:1; fill:none" points="1191.08,957.049 1191.08,804.649 "/>
<polyline clip-path="url(#clip451)" style="stroke:#009af9; stroke-linecap:round; stroke-linejoin:round; stroke-width:4; stroke-opacity:1; fill:none" points="1301.3,1084.89 1301.3,636.87 "/>
<polyline clip-path="url(#clip451)" style="stroke:#009af9; stroke-linecap:round; stroke-linejoin:round; stroke-width:4; stroke-opacity:1; fill:none" points="1411.51,1415.43 1411.51,249.631 "/>
<polyline clip-path="url(#clip451)" style="stroke:#009af9; stroke-linecap:round; stroke-linejoin:round; stroke-width:4; stroke-opacity:1; fill:none" points="1521.73,903.457 1521.73,638.987 "/>
<polyline clip-path="url(#clip451)" style="stroke:#009af9; stroke-linecap:round; stroke-linejoin:round; stroke-width:4; stroke-opacity:1; fill:none" points="1631.95,868.869 1631.95,612.452 "/>
<polyline clip-path="url(#clip451)" style="stroke:#009af9; stroke-linecap:round; stroke-linejoin:round; stroke-width:4; stroke-opacity:1; fill:none" points="1742.16,836.644 1742.16,586.048 "/>
<polyline clip-path="url(#clip451)" style="stroke:#009af9; stroke-linecap:round; stroke-linejoin:round; stroke-width:4; stroke-opacity:1; fill:none" points="1852.38,702.771 1852.38,508.437 "/>
<polyline clip-path="url(#clip451)" style="stroke:#009af9; stroke-linecap:round; stroke-linejoin:round; stroke-width:4; stroke-opacity:1; fill:none" points="1962.59,1113.99 1962.59,89.8529 "/>
<polyline clip-path="url(#clip451)" style="stroke:#009af9; stroke-linecap:round; stroke-linejoin:round; stroke-width:4; stroke-opacity:1; fill:none" points="2072.81,576.826 2072.81,358.293 "/>
<polyline clip-path="url(#clip451)" style="stroke:#009af9; stroke-linecap:round; stroke-linejoin:round; stroke-width:4; stroke-opacity:1; fill:none" points="2183.02,534.786 2183.02,221.453 "/>
<polyline clip-path="url(#clip451)" style="stroke:#009af9; stroke-linecap:round; stroke-linejoin:round; stroke-width:4; stroke-opacity:1; fill:none" points="2293.24,469.696 2293.24,169.755 "/>
<line clip-path="url(#clip451)" x1="325.359" y1="1510.15" x2="293.359" y2="1510.15" style="stroke:#009af9; stroke-width:4; stroke-opacity:1"/>
<line clip-path="url(#clip451)" x1="325.359" y1="802.249" x2="293.359" y2="802.249" style="stroke:#009af9; stroke-width:4; stroke-opacity:1"/>
<line clip-path="url(#clip451)" x1="435.575" y1="1300.08" x2="403.575" y2="1300.08" style="stroke:#009af9; stroke-width:4; stroke-opacity:1"/>
<line clip-path="url(#clip451)" x1="435.575" y1="945.214" x2="403.575" y2="945.214" style="stroke:#009af9; stroke-width:4; stroke-opacity:1"/>
<line clip-path="url(#clip451)" x1="545.79" y1="1254.48" x2="513.79" y2="1254.48" style="stroke:#009af9; stroke-width:4; stroke-opacity:1"/>
<line clip-path="url(#clip451)" x1="545.79" y1="979.25" x2="513.79" y2="979.25" style="stroke:#009af9; stroke-width:4; stroke-opacity:1"/>
<line clip-path="url(#clip451)" x1="656.006" y1="1208.84" x2="624.006" y2="1208.84" style="stroke:#009af9; stroke-width:4; stroke-opacity:1"/>
<line clip-path="url(#clip451)" x1="656.006" y1="980.029" x2="624.006" y2="980.029" style="stroke:#009af9; stroke-width:4; stroke-opacity:1"/>
<line clip-path="url(#clip451)" x1="766.222" y1="1160.6" x2="734.222" y2="1160.6" style="stroke:#009af9; stroke-width:4; stroke-opacity:1"/>
<line clip-path="url(#clip451)" x1="766.222" y1="843.651" x2="734.222" y2="843.651" style="stroke:#009af9; stroke-width:4; stroke-opacity:1"/>
<line clip-path="url(#clip451)" x1="876.437" y1="1057.07" x2="844.437" y2="1057.07" style="stroke:#009af9; stroke-width:4; stroke-opacity:1"/>
<line clip-path="url(#clip451)" x1="876.437" y1="945.655" x2="844.437" y2="945.655" style="stroke:#009af9; stroke-width:4; stroke-opacity:1"/>
<line clip-path="url(#clip451)" x1="986.653" y1="1046.18" x2="954.653" y2="1046.18" style="stroke:#009af9; stroke-width:4; stroke-opacity:1"/>
<line clip-path="url(#clip451)" x1="986.653" y1="925.335" x2="954.653" y2="925.335" style="stroke:#009af9; stroke-width:4; stroke-opacity:1"/>
<line clip-path="url(#clip451)" x1="1096.87" y1="1052.58" x2="1064.87" y2="1052.58" style="stroke:#009af9; stroke-width:4; stroke-opacity:1"/>
<line clip-path="url(#clip451)" x1="1096.87" y1="781.76" x2="1064.87" y2="781.76" style="stroke:#009af9; stroke-width:4; stroke-opacity:1"/>
<line clip-path="url(#clip451)" x1="1207.08" y1="957.049" x2="1175.08" y2="957.049" style="stroke:#009af9; stroke-width:4; stroke-opacity:1"/>
<line clip-path="url(#clip451)" x1="1207.08" y1="804.649" x2="1175.08" y2="804.649" style="stroke:#009af9; stroke-width:4; stroke-opacity:1"/>
<line clip-path="url(#clip451)" x1="1317.3" y1="1084.89" x2="1285.3" y2="1084.89" style="stroke:#009af9; stroke-width:4; stroke-opacity:1"/>
<line clip-path="url(#clip451)" x1="1317.3" y1="636.87" x2="1285.3" y2="636.87" style="stroke:#009af9; stroke-width:4; stroke-opacity:1"/>
<line clip-path="url(#clip451)" x1="1427.51" y1="1415.43" x2="1395.51" y2="1415.43" style="stroke:#009af9; stroke-width:4; stroke-opacity:1"/>
<line clip-path="url(#clip451)" x1="1427.51" y1="249.631" x2="1395.51" y2="249.631" style="stroke:#009af9; stroke-width:4; stroke-opacity:1"/>
<line clip-path="url(#clip451)" x1="1537.73" y1="903.457" x2="1505.73" y2="903.457" style="stroke:#009af9; stroke-width:4; stroke-opacity:1"/>
<line clip-path="url(#clip451)" x1="1537.73" y1="638.987" x2="1505.73" y2="638.987" style="stroke:#009af9; stroke-width:4; stroke-opacity:1"/>
<line clip-path="url(#clip451)" x1="1647.95" y1="868.869" x2="1615.95" y2="868.869" style="stroke:#009af9; stroke-width:4; stroke-opacity:1"/>
<line clip-path="url(#clip451)" x1="1647.95" y1="612.452" x2="1615.95" y2="612.452" style="stroke:#009af9; stroke-width:4; stroke-opacity:1"/>
<line clip-path="url(#clip451)" x1="1758.16" y1="836.644" x2="1726.16" y2="836.644" style="stroke:#009af9; stroke-width:4; stroke-opacity:1"/>
<line clip-path="url(#clip451)" x1="1758.16" y1="586.048" x2="1726.16" y2="586.048" style="stroke:#009af9; stroke-width:4; stroke-opacity:1"/>
<line clip-path="url(#clip451)" x1="1868.38" y1="702.771" x2="1836.38" y2="702.771" style="stroke:#009af9; stroke-width:4; stroke-opacity:1"/>
<line clip-path="url(#clip451)" x1="1868.38" y1="508.437" x2="1836.38" y2="508.437" style="stroke:#009af9; stroke-width:4; stroke-opacity:1"/>
<line clip-path="url(#clip451)" x1="1978.59" y1="1113.99" x2="1946.59" y2="1113.99" style="stroke:#009af9; stroke-width:4; stroke-opacity:1"/>
<line clip-path="url(#clip451)" x1="1978.59" y1="89.8529" x2="1946.59" y2="89.8529" style="stroke:#009af9; stroke-width:4; stroke-opacity:1"/>
<line clip-path="url(#clip451)" x1="2088.81" y1="576.826" x2="2056.81" y2="576.826" style="stroke:#009af9; stroke-width:4; stroke-opacity:1"/>
<line clip-path="url(#clip451)" x1="2088.81" y1="358.293" x2="2056.81" y2="358.293" style="stroke:#009af9; stroke-width:4; stroke-opacity:1"/>
<line clip-path="url(#clip451)" x1="2199.02" y1="534.786" x2="2167.02" y2="534.786" style="stroke:#009af9; stroke-width:4; stroke-opacity:1"/>
<line clip-path="url(#clip451)" x1="2199.02" y1="221.453" x2="2167.02" y2="221.453" style="stroke:#009af9; stroke-width:4; stroke-opacity:1"/>
<line clip-path="url(#clip451)" x1="2309.24" y1="469.696" x2="2277.24" y2="469.696" style="stroke:#009af9; stroke-width:4; stroke-opacity:1"/>
<line clip-path="url(#clip451)" x1="2309.24" y1="169.755" x2="2277.24" y2="169.755" style="stroke:#009af9; stroke-width:4; stroke-opacity:1"/>
<circle clip-path="url(#clip451)" cx="309.359" cy="1156.2" r="14.4" fill="#009af9" fill-rule="evenodd" fill-opacity="1" stroke="none"/>
<circle clip-path="url(#clip451)" cx="419.575" cy="1122.65" r="14.4" fill="#009af9" fill-rule="evenodd" fill-opacity="1" stroke="none"/>
<circle clip-path="url(#clip451)" cx="529.79" cy="1116.86" r="14.4" fill="#009af9" fill-rule="evenodd" fill-opacity="1" stroke="none"/>
<circle clip-path="url(#clip451)" cx="640.006" cy="1094.43" r="14.4" fill="#009af9" fill-rule="evenodd" fill-opacity="1" stroke="none"/>
<circle clip-path="url(#clip451)" cx="750.222" cy="1002.13" r="14.4" fill="#009af9" fill-rule="evenodd" fill-opacity="1" stroke="none"/>
<circle clip-path="url(#clip451)" cx="860.437" cy="1001.36" r="14.4" fill="#009af9" fill-rule="evenodd" fill-opacity="1" stroke="none"/>
<circle clip-path="url(#clip451)" cx="970.653" cy="985.755" r="14.4" fill="#009af9" fill-rule="evenodd" fill-opacity="1" stroke="none"/>
<circle clip-path="url(#clip451)" cx="1080.87" cy="917.168" r="14.4" fill="#009af9" fill-rule="evenodd" fill-opacity="1" stroke="none"/>
<circle clip-path="url(#clip451)" cx="1191.08" cy="880.849" r="14.4" fill="#009af9" fill-rule="evenodd" fill-opacity="1" stroke="none"/>
<circle clip-path="url(#clip451)" cx="1301.3" cy="860.878" r="14.4" fill="#009af9" fill-rule="evenodd" fill-opacity="1" stroke="none"/>
<circle clip-path="url(#clip451)" cx="1411.51" cy="832.531" r="14.4" fill="#009af9" fill-rule="evenodd" fill-opacity="1" stroke="none"/>
<circle clip-path="url(#clip451)" cx="1521.73" cy="771.222" r="14.4" fill="#009af9" fill-rule="evenodd" fill-opacity="1" stroke="none"/>
<circle clip-path="url(#clip451)" cx="1631.95" cy="740.661" r="14.4" fill="#009af9" fill-rule="evenodd" fill-opacity="1" stroke="none"/>
<circle clip-path="url(#clip451)" cx="1742.16" cy="711.346" r="14.4" fill="#009af9" fill-rule="evenodd" fill-opacity="1" stroke="none"/>
<circle clip-path="url(#clip451)" cx="1852.38" cy="605.604" r="14.4" fill="#009af9" fill-rule="evenodd" fill-opacity="1" stroke="none"/>
<circle clip-path="url(#clip451)" cx="1962.59" cy="601.922" r="14.4" fill="#009af9" fill-rule="evenodd" fill-opacity="1" stroke="none"/>
<circle clip-path="url(#clip451)" cx="2072.81" cy="467.56" r="14.4" fill="#009af9" fill-rule="evenodd" fill-opacity="1" stroke="none"/>
<circle clip-path="url(#clip451)" cx="2183.02" cy="378.12" r="14.4" fill="#009af9" fill-rule="evenodd" fill-opacity="1" stroke="none"/>
<circle clip-path="url(#clip451)" cx="2293.24" cy="319.726" r="14.4" fill="#009af9" fill-rule="evenodd" fill-opacity="1" stroke="none"/>
<path clip-path="url(#clip451)" d="M309.359 1208.04 L419.575 1208.04 L529.79 1208.04 L640.006 1208.04 L750.222 1208.04 L860.437 1208.04 L970.653 1208.04 L1080.87 1208.04 L1191.08 1208.04 L1301.3 1208.04 L1411.51 1208.04 L1521.73 1208.04 L1631.95 1208.04 L1742.16 1208.04 L1852.38 1208.04 L1962.59 1208.04 L2072.81 1208.04 L2183.02 1208.04 L2293.24 1208.04 L2293.24 1028.85 L2183.02 1028.85 L2072.81 1028.85 L1962.59 1028.85 L1852.38 1028.85 L1742.16 1028.85 L1631.95 1028.85 L1521.73 1028.85 L1411.51 1028.85 L1301.3 1028.85 L1191.08 1028.85 L1080.87 1028.85 L970.653 1028.85 L860.437 1028.85 L750.222 1028.85 L640.006 1028.85 L529.79 1028.85 L419.575 1028.85 L309.359 1028.85  Z" fill="#e26f46" fill-rule="evenodd" fill-opacity="0.6"/>
<polyline clip-path="url(#clip451)" style="stroke:#e26f46; stroke-linecap:round; stroke-linejoin:round; stroke-width:4; stroke-opacity:0; fill:none" points="309.359,1208.04 419.575,1208.04 529.79,1208.04 640.006,1208.04 750.222,1208.04 860.437,1208.04 970.653,1208.04 1080.87,1208.04 1191.08,1208.04 1301.3,1208.04 1411.51,1208.04 1521.73,1208.04 1631.95,1208.04 1742.16,1208.04 1852.38,1208.04 1962.59,1208.04 2072.81,1208.04 2183.02,1208.04 2293.24,1208.04 "/>
<polyline clip-path="url(#clip451)" style="stroke:#000000; stroke-linecap:round; stroke-linejoin:round; stroke-width:4; stroke-opacity:1; fill:none" stroke-dasharray="2, 4" points="309.359,1109.68 419.575,1109.68 529.79,1109.68 640.006,1109.68 750.222,1109.68 860.437,1109.68 970.653,1109.68 1080.87,1109.68 1191.08,1109.68 1301.3,1109.68 1411.51,1109.68 1521.73,1109.68 1631.95,1109.68 1742.16,1109.68 1852.38,1109.68 1962.59,1109.68 2072.81,1109.68 2183.02,1109.68 2293.24,1109.68 "/>
<path clip-path="url(#clip450)" d="M319.94 252.948 L1295.94 252.948 L1295.94 97.4278 L319.94 97.4278  Z" fill="#ffffff" fill-rule="evenodd" fill-opacity="1"/>
<polyline clip-path="url(#clip450)" style="stroke:#ffffff; stroke-linecap:round; stroke-linejoin:round; stroke-width:4; stroke-opacity:1; fill:none" points="319.94,252.948 1295.94,252.948 1295.94,97.4278 319.94,97.4278 319.94,252.948 "/>
<circle clip-path="url(#clip450)" cx="413.403" cy="149.268" r="20.48" fill="#009af9" fill-rule="evenodd" fill-opacity="1" stroke="none"/>
<path clip-path="url(#clip450)" d="M511.542 135.83 L511.542 162.705 L517.19 162.705 Q524.342 162.705 527.653 159.465 Q530.986 156.224 530.986 149.233 Q530.986 142.289 527.653 139.071 Q524.342 135.83 517.19 135.83 L511.542 135.83 M506.866 131.988 L516.472 131.988 Q526.518 131.988 531.217 136.178 Q535.916 140.344 535.916 149.233 Q535.916 158.168 531.194 162.358 Q526.472 166.548 516.472 166.548 L506.866 166.548 L506.866 131.988 Z" fill="#000000" fill-rule="nonzero" fill-opacity="1" /><path clip-path="url(#clip450)" d="M554.967 153.515 Q549.805 153.515 547.815 154.696 Q545.824 155.877 545.824 158.724 Q545.824 160.992 547.305 162.335 Q548.81 163.654 551.379 163.654 Q554.921 163.654 557.051 161.154 Q559.203 158.631 559.203 154.465 L559.203 153.515 L554.967 153.515 M563.463 151.756 L563.463 166.548 L559.203 166.548 L559.203 162.613 Q557.745 164.974 555.569 166.108 Q553.393 167.219 550.245 167.219 Q546.264 167.219 543.902 164.997 Q541.565 162.752 541.565 159.002 Q541.565 154.627 544.481 152.404 Q547.421 150.182 553.231 150.182 L559.203 150.182 L559.203 149.766 Q559.203 146.826 557.259 145.228 Q555.338 143.608 551.842 143.608 Q549.62 143.608 547.514 144.141 Q545.407 144.673 543.463 145.738 L543.463 141.803 Q545.801 140.9 548 140.46 Q550.199 139.997 552.282 139.997 Q557.907 139.997 560.685 142.914 Q563.463 145.83 563.463 151.756 Z" fill="#000000" fill-rule="nonzero" fill-opacity="1" /><path clip-path="url(#clip450)" d="M576.449 133.261 L576.449 140.622 L585.222 140.622 L585.222 143.932 L576.449 143.932 L576.449 158.006 Q576.449 161.177 577.305 162.08 Q578.185 162.983 580.847 162.983 L585.222 162.983 L585.222 166.548 L580.847 166.548 Q575.916 166.548 574.041 164.719 Q572.166 162.867 572.166 158.006 L572.166 143.932 L569.041 143.932 L569.041 140.622 L572.166 140.622 L572.166 133.261 L576.449 133.261 Z" fill="#000000" fill-rule="nonzero" fill-opacity="1" /><path clip-path="url(#clip450)" d="M602.606 153.515 Q597.444 153.515 595.453 154.696 Q593.462 155.877 593.462 158.724 Q593.462 160.992 594.944 162.335 Q596.449 163.654 599.018 163.654 Q602.56 163.654 604.689 161.154 Q606.842 158.631 606.842 154.465 L606.842 153.515 L602.606 153.515 M611.101 151.756 L611.101 166.548 L606.842 166.548 L606.842 162.613 Q605.384 164.974 603.208 166.108 Q601.032 167.219 597.884 167.219 Q593.902 167.219 591.541 164.997 Q589.203 162.752 589.203 159.002 Q589.203 154.627 592.12 152.404 Q595.06 150.182 600.87 150.182 L606.842 150.182 L606.842 149.766 Q606.842 146.826 604.898 145.228 Q602.976 143.608 599.481 143.608 Q597.259 143.608 595.152 144.141 Q593.046 144.673 591.101 145.738 L591.101 141.803 Q593.439 140.9 595.638 140.46 Q597.837 139.997 599.921 139.997 Q605.546 139.997 608.323 142.914 Q611.101 145.83 611.101 151.756 Z" fill="#000000" fill-rule="nonzero" fill-opacity="1" /><path clip-path="url(#clip450)" d="M645.175 130.576 Q642.073 135.9 640.569 141.108 Q639.064 146.316 639.064 151.664 Q639.064 157.011 640.569 162.265 Q642.096 167.497 645.175 172.798 L641.471 172.798 Q637.999 167.358 636.263 162.103 Q634.55 156.849 634.55 151.664 Q634.55 146.502 636.263 141.27 Q637.976 136.039 641.471 130.576 L645.175 130.576 Z" fill="#000000" fill-rule="nonzero" fill-opacity="1" /><path clip-path="url(#clip450)" d="M663.485 143.608 Q660.059 143.608 658.069 146.293 Q656.078 148.955 656.078 153.608 Q656.078 158.261 658.045 160.946 Q660.036 163.608 663.485 163.608 Q666.888 163.608 668.879 160.923 Q670.869 158.238 670.869 153.608 Q670.869 149.002 668.879 146.316 Q666.888 143.608 663.485 143.608 M663.485 139.997 Q669.041 139.997 672.212 143.608 Q675.383 147.219 675.383 153.608 Q675.383 159.974 672.212 163.608 Q669.041 167.219 663.485 167.219 Q657.907 167.219 654.735 163.608 Q651.587 159.974 651.587 153.608 Q651.587 147.219 654.735 143.608 Q657.907 139.997 663.485 139.997 Z" fill="#000000" fill-rule="nonzero" fill-opacity="1" /><path clip-path="url(#clip450)" d="M701.054 153.608 Q701.054 148.909 699.11 146.247 Q697.189 143.562 693.809 143.562 Q690.429 143.562 688.485 146.247 Q686.564 148.909 686.564 153.608 Q686.564 158.307 688.485 160.992 Q690.429 163.654 693.809 163.654 Q697.189 163.654 699.11 160.992 Q701.054 158.307 701.054 153.608 M686.564 144.557 Q687.906 142.242 689.943 141.131 Q692.004 139.997 694.851 139.997 Q699.573 139.997 702.513 143.747 Q705.476 147.497 705.476 153.608 Q705.476 159.719 702.513 163.469 Q699.573 167.219 694.851 167.219 Q692.004 167.219 689.943 166.108 Q687.906 164.974 686.564 162.659 L686.564 166.548 L682.281 166.548 L682.281 130.529 L686.564 130.529 L686.564 144.557 Z" fill="#000000" fill-rule="nonzero" fill-opacity="1" /><path clip-path="url(#clip450)" d="M729.064 141.386 L729.064 145.414 Q727.258 144.488 725.314 144.025 Q723.369 143.562 721.286 143.562 Q718.115 143.562 716.517 144.534 Q714.943 145.506 714.943 147.451 Q714.943 148.932 716.077 149.789 Q717.212 150.622 720.638 151.386 L722.096 151.71 Q726.633 152.682 728.531 154.465 Q730.452 156.224 730.452 159.395 Q730.452 163.006 727.582 165.113 Q724.735 167.219 719.735 167.219 Q717.652 167.219 715.383 166.802 Q713.138 166.409 710.638 165.599 L710.638 161.201 Q712.999 162.427 715.29 163.052 Q717.582 163.654 719.827 163.654 Q722.837 163.654 724.457 162.636 Q726.077 161.594 726.077 159.719 Q726.077 157.983 724.897 157.057 Q723.739 156.131 719.781 155.275 L718.3 154.928 Q714.341 154.094 712.582 152.381 Q710.823 150.645 710.823 147.636 Q710.823 143.978 713.415 141.988 Q716.008 139.997 720.777 139.997 Q723.138 139.997 725.221 140.344 Q727.304 140.691 729.064 141.386 Z" fill="#000000" fill-rule="nonzero" fill-opacity="1" /><path clip-path="url(#clip450)" d="M759.411 152.52 L759.411 154.603 L739.827 154.603 Q740.105 159.002 742.466 161.316 Q744.85 163.608 749.087 163.608 Q751.54 163.608 753.832 163.006 Q756.147 162.404 758.415 161.201 L758.415 165.228 Q756.124 166.201 753.716 166.71 Q751.309 167.219 748.832 167.219 Q742.628 167.219 738.994 163.608 Q735.383 159.997 735.383 153.84 Q735.383 147.474 738.809 143.747 Q742.258 139.997 748.091 139.997 Q753.323 139.997 756.355 143.377 Q759.411 146.733 759.411 152.52 M755.151 151.27 Q755.105 147.775 753.184 145.691 Q751.286 143.608 748.138 143.608 Q744.573 143.608 742.42 145.622 Q740.29 147.636 739.966 151.293 L755.151 151.27 Z" fill="#000000" fill-rule="nonzero" fill-opacity="1" /><path clip-path="url(#clip450)" d="M781.424 144.603 Q780.707 144.187 779.85 144.002 Q779.017 143.793 777.998 143.793 Q774.387 143.793 772.443 146.154 Q770.522 148.492 770.522 152.89 L770.522 166.548 L766.239 166.548 L766.239 140.622 L770.522 140.622 L770.522 144.65 Q771.864 142.289 774.017 141.154 Q776.17 139.997 779.248 139.997 Q779.688 139.997 780.221 140.066 Q780.753 140.113 781.401 140.229 L781.424 144.603 Z" fill="#000000" fill-rule="nonzero" fill-opacity="1" /><path clip-path="url(#clip450)" d="M782.836 140.622 L787.35 140.622 L795.452 162.381 L803.554 140.622 L808.068 140.622 L798.346 166.548 L792.559 166.548 L782.836 140.622 Z" fill="#000000" fill-rule="nonzero" fill-opacity="1" /><path clip-path="url(#clip450)" d="M836.123 152.52 L836.123 154.603 L816.54 154.603 Q816.818 159.002 819.179 161.316 Q821.563 163.608 825.799 163.608 Q828.253 163.608 830.544 163.006 Q832.859 162.404 835.128 161.201 L835.128 165.228 Q832.836 166.201 830.429 166.71 Q828.021 167.219 825.544 167.219 Q819.341 167.219 815.707 163.608 Q812.095 159.997 812.095 153.84 Q812.095 147.474 815.521 143.747 Q818.97 139.997 824.804 139.997 Q830.035 139.997 833.068 143.377 Q836.123 146.733 836.123 152.52 M831.864 151.27 Q831.818 147.775 829.896 145.691 Q827.998 143.608 824.85 143.608 Q821.285 143.608 819.132 145.622 Q817.003 147.636 816.679 151.293 L831.864 151.27 Z" fill="#000000" fill-rule="nonzero" fill-opacity="1" /><path clip-path="url(#clip450)" d="M860.174 144.557 L860.174 130.529 L864.433 130.529 L864.433 166.548 L860.174 166.548 L860.174 162.659 Q858.831 164.974 856.771 166.108 Q854.734 167.219 851.864 167.219 Q847.165 167.219 844.202 163.469 Q841.262 159.719 841.262 153.608 Q841.262 147.497 844.202 143.747 Q847.165 139.997 851.864 139.997 Q854.734 139.997 856.771 141.131 Q858.831 142.242 860.174 144.557 M845.66 153.608 Q845.66 158.307 847.581 160.992 Q849.526 163.654 852.905 163.654 Q856.285 163.654 858.23 160.992 Q860.174 158.307 860.174 153.608 Q860.174 148.909 858.23 146.247 Q856.285 143.562 852.905 143.562 Q849.526 143.562 847.581 146.247 Q845.66 148.909 845.66 153.608 Z" fill="#000000" fill-rule="nonzero" fill-opacity="1" /><path clip-path="url(#clip450)" d="M900.058 153.515 Q894.896 153.515 892.905 154.696 Q890.915 155.877 890.915 158.724 Q890.915 160.992 892.396 162.335 Q893.901 163.654 896.47 163.654 Q900.012 163.654 902.141 161.154 Q904.294 158.631 904.294 154.465 L904.294 153.515 L900.058 153.515 M908.553 151.756 L908.553 166.548 L904.294 166.548 L904.294 162.613 Q902.836 164.974 900.66 166.108 Q898.484 167.219 895.336 167.219 Q891.354 167.219 888.993 164.997 Q886.655 162.752 886.655 159.002 Q886.655 154.627 889.572 152.404 Q892.512 150.182 898.322 150.182 L904.294 150.182 L904.294 149.766 Q904.294 146.826 902.35 145.228 Q900.428 143.608 896.933 143.608 Q894.711 143.608 892.604 144.141 Q890.498 144.673 888.553 145.738 L888.553 141.803 Q890.891 140.9 893.09 140.46 Q895.289 139.997 897.373 139.997 Q902.998 139.997 905.776 142.914 Q908.553 145.83 908.553 151.756 Z" fill="#000000" fill-rule="nonzero" fill-opacity="1" /><path clip-path="url(#clip450)" d="M934.387 153.284 Q934.387 148.654 932.465 146.108 Q930.567 143.562 927.118 143.562 Q923.692 143.562 921.771 146.108 Q919.873 148.654 919.873 153.284 Q919.873 157.89 921.771 160.437 Q923.692 162.983 927.118 162.983 Q930.567 162.983 932.465 160.437 Q934.387 157.89 934.387 153.284 M938.646 163.33 Q938.646 169.951 935.706 173.168 Q932.766 176.409 926.701 176.409 Q924.456 176.409 922.465 176.062 Q920.475 175.738 918.6 175.043 L918.6 170.9 Q920.475 171.918 922.303 172.404 Q924.132 172.89 926.03 172.89 Q930.22 172.89 932.303 170.691 Q934.387 168.515 934.387 164.094 L934.387 161.988 Q933.067 164.279 931.007 165.414 Q928.947 166.548 926.076 166.548 Q921.308 166.548 918.391 162.914 Q915.475 159.279 915.475 153.284 Q915.475 147.266 918.391 143.631 Q921.308 139.997 926.076 139.997 Q928.947 139.997 931.007 141.131 Q933.067 142.266 934.387 144.557 L934.387 140.622 L938.646 140.622 L938.646 163.33 Z" fill="#000000" fill-rule="nonzero" fill-opacity="1" /><path clip-path="url(#clip450)" d="M969.595 152.52 L969.595 154.603 L950.011 154.603 Q950.289 159.002 952.65 161.316 Q955.035 163.608 959.271 163.608 Q961.724 163.608 964.016 163.006 Q966.331 162.404 968.599 161.201 L968.599 165.228 Q966.308 166.201 963.9 166.71 Q961.493 167.219 959.016 167.219 Q952.812 167.219 949.178 163.608 Q945.567 159.997 945.567 153.84 Q945.567 147.474 948.993 143.747 Q952.442 139.997 958.275 139.997 Q963.507 139.997 966.539 143.377 Q969.595 146.733 969.595 152.52 M965.335 151.27 Q965.289 147.775 963.368 145.691 Q961.47 143.608 958.322 143.608 Q954.757 143.608 952.604 145.622 Q950.474 147.636 950.15 151.293 L965.335 151.27 Z" fill="#000000" fill-rule="nonzero" fill-opacity="1" /><path clip-path="url(#clip450)" d="M993.113 141.386 L993.113 145.414 Q991.307 144.488 989.363 144.025 Q987.419 143.562 985.335 143.562 Q982.164 143.562 980.567 144.534 Q978.993 145.506 978.993 147.451 Q978.993 148.932 980.127 149.789 Q981.261 150.622 984.687 151.386 L986.145 151.71 Q990.683 152.682 992.581 154.465 Q994.502 156.224 994.502 159.395 Q994.502 163.006 991.632 165.113 Q988.784 167.219 983.784 167.219 Q981.701 167.219 979.433 166.802 Q977.187 166.409 974.687 165.599 L974.687 161.201 Q977.048 162.427 979.34 163.052 Q981.632 163.654 983.877 163.654 Q986.886 163.654 988.507 162.636 Q990.127 161.594 990.127 159.719 Q990.127 157.983 988.946 157.057 Q987.789 156.131 983.831 155.275 L982.349 154.928 Q978.391 154.094 976.632 152.381 Q974.872 150.645 974.872 147.636 Q974.872 143.978 977.465 141.988 Q980.058 139.997 984.826 139.997 Q987.187 139.997 989.27 140.344 Q991.354 140.691 993.113 141.386 Z" fill="#000000" fill-rule="nonzero" fill-opacity="1" /><path clip-path="url(#clip450)" d="M1000.61 130.576 L1004.32 130.576 Q1007.79 136.039 1009.5 141.27 Q1011.24 146.502 1011.24 151.664 Q1011.24 156.849 1009.5 162.103 Q1007.79 167.358 1004.32 172.798 L1000.61 172.798 Q1003.69 167.497 1005.2 162.265 Q1006.72 157.011 1006.72 151.664 Q1006.72 146.316 1005.2 141.108 Q1003.69 135.9 1000.61 130.576 Z" fill="#000000" fill-rule="nonzero" fill-opacity="1" /><path clip-path="url(#clip450)" d="M343.306 221.844 L483.5 221.844 L483.5 180.372 L343.306 180.372 L343.306 221.844  Z" fill="#e26f46" fill-rule="evenodd" fill-opacity="0.6"/>
<polyline clip-path="url(#clip450)" style="stroke:#e26f46; stroke-linecap:round; stroke-linejoin:round; stroke-width:4; stroke-opacity:0; fill:none" points="343.306,180.372 483.5,180.372 "/>
<path clip-path="url(#clip450)" d="M506.866 183.828 L513.833 183.828 L522.653 207.346 L531.518 183.828 L538.486 183.828 L538.486 218.388 L533.926 218.388 L533.926 188.041 L525.014 211.744 L520.315 211.744 L511.403 188.041 L511.403 218.388 L506.866 218.388 L506.866 183.828 Z" fill="#000000" fill-rule="nonzero" fill-opacity="1" /><path clip-path="url(#clip450)" d="M557.629 195.448 Q554.203 195.448 552.213 198.133 Q550.222 200.795 550.222 205.448 Q550.222 210.101 552.189 212.786 Q554.18 215.448 557.629 215.448 Q561.032 215.448 563.023 212.763 Q565.013 210.078 565.013 205.448 Q565.013 200.842 563.023 198.156 Q561.032 195.448 557.629 195.448 M557.629 191.837 Q563.185 191.837 566.356 195.448 Q569.527 199.059 569.527 205.448 Q569.527 211.814 566.356 215.448 Q563.185 219.059 557.629 219.059 Q552.051 219.059 548.879 215.448 Q545.731 211.814 545.731 205.448 Q545.731 199.059 548.879 195.448 Q552.051 191.837 557.629 191.837 Z" fill="#000000" fill-rule="nonzero" fill-opacity="1" /><path clip-path="url(#clip450)" d="M593.648 196.397 L593.648 182.369 L597.907 182.369 L597.907 218.388 L593.648 218.388 L593.648 214.499 Q592.305 216.814 590.245 217.948 Q588.208 219.059 585.337 219.059 Q580.638 219.059 577.675 215.309 Q574.736 211.559 574.736 205.448 Q574.736 199.337 577.675 195.587 Q580.638 191.837 585.337 191.837 Q588.208 191.837 590.245 192.971 Q592.305 194.082 593.648 196.397 M579.134 205.448 Q579.134 210.147 581.055 212.832 Q583 215.494 586.379 215.494 Q589.759 215.494 591.703 212.832 Q593.648 210.147 593.648 205.448 Q593.648 200.749 591.703 198.087 Q589.759 195.402 586.379 195.402 Q583 195.402 581.055 198.087 Q579.134 200.749 579.134 205.448 Z" fill="#000000" fill-rule="nonzero" fill-opacity="1" /><path clip-path="url(#clip450)" d="M628.856 204.36 L628.856 206.443 L609.273 206.443 Q609.55 210.842 611.911 213.156 Q614.296 215.448 618.532 215.448 Q620.985 215.448 623.277 214.846 Q625.592 214.244 627.86 213.041 L627.86 217.068 Q625.569 218.041 623.161 218.55 Q620.754 219.059 618.277 219.059 Q612.073 219.059 608.439 215.448 Q604.828 211.837 604.828 205.68 Q604.828 199.314 608.254 195.587 Q611.703 191.837 617.536 191.837 Q622.768 191.837 625.8 195.217 Q628.856 198.573 628.856 204.36 M624.597 203.11 Q624.55 199.615 622.629 197.531 Q620.731 195.448 617.583 195.448 Q614.018 195.448 611.865 197.462 Q609.735 199.476 609.411 203.133 L624.597 203.11 Z" fill="#000000" fill-rule="nonzero" fill-opacity="1" /><path clip-path="url(#clip450)" d="M635.846 182.369 L640.106 182.369 L640.106 218.388 L635.846 218.388 L635.846 182.369 Z" fill="#000000" fill-rule="nonzero" fill-opacity="1" /><path clip-path="url(#clip450)" d="M674.318 182.416 Q671.217 187.74 669.712 192.948 Q668.207 198.156 668.207 203.504 Q668.207 208.851 669.712 214.105 Q671.24 219.337 674.318 224.638 L670.615 224.638 Q667.143 219.198 665.406 213.943 Q663.694 208.689 663.694 203.504 Q663.694 198.342 665.406 193.11 Q667.119 187.879 670.615 182.416 L674.318 182.416 Z" fill="#000000" fill-rule="nonzero" fill-opacity="1" /><path clip-path="url(#clip450)" d="M693.763 199.244 Q690.615 199.244 688.763 201.397 Q686.934 203.55 686.934 207.3 Q686.934 211.027 688.763 213.203 Q690.615 215.355 693.763 215.355 Q696.911 215.355 698.74 213.203 Q700.591 211.027 700.591 207.3 Q700.591 203.55 698.74 201.397 Q696.911 199.244 693.763 199.244 M703.045 184.592 L703.045 188.851 Q701.286 188.018 699.48 187.578 Q697.698 187.138 695.939 187.138 Q691.309 187.138 688.855 190.263 Q686.425 193.388 686.078 199.707 Q687.443 197.693 689.504 196.629 Q691.564 195.541 694.041 195.541 Q699.249 195.541 702.258 198.712 Q705.291 201.86 705.291 207.3 Q705.291 212.624 702.142 215.842 Q698.994 219.059 693.763 219.059 Q687.767 219.059 684.596 214.476 Q681.425 209.869 681.425 201.143 Q681.425 192.948 685.314 188.087 Q689.203 183.203 695.754 183.203 Q697.513 183.203 699.295 183.55 Q701.101 183.897 703.045 184.592 Z" fill="#000000" fill-rule="nonzero" fill-opacity="1" /><path clip-path="url(#clip450)" d="M713.392 183.828 L731.749 183.828 L731.749 187.763 L717.675 187.763 L717.675 196.235 Q718.693 195.888 719.712 195.726 Q720.73 195.541 721.749 195.541 Q727.536 195.541 730.915 198.712 Q734.295 201.883 734.295 207.3 Q734.295 212.879 730.823 215.98 Q727.351 219.059 721.031 219.059 Q718.855 219.059 716.587 218.689 Q714.341 218.318 711.934 217.578 L711.934 212.879 Q714.017 214.013 716.24 214.568 Q718.462 215.124 720.939 215.124 Q724.943 215.124 727.281 213.017 Q729.619 210.911 729.619 207.3 Q729.619 203.689 727.281 201.582 Q724.943 199.476 720.939 199.476 Q719.064 199.476 717.189 199.893 Q715.337 200.309 713.392 201.189 L713.392 183.828 Z" fill="#000000" fill-rule="nonzero" fill-opacity="1" /><path clip-path="url(#clip450)" d="M743.508 212.508 L748.392 212.508 L748.392 218.388 L743.508 218.388 L743.508 212.508 Z" fill="#000000" fill-rule="nonzero" fill-opacity="1" /><path clip-path="url(#clip450)" d="M757.397 183.828 L779.619 183.828 L779.619 185.819 L767.073 218.388 L762.188 218.388 L773.994 187.763 L757.397 187.763 L757.397 183.828 Z" fill="#000000" fill-rule="nonzero" fill-opacity="1" /><path clip-path="url(#clip450)" d="M799.318 199.244 Q796.17 199.244 794.318 201.397 Q792.489 203.55 792.489 207.3 Q792.489 211.027 794.318 213.203 Q796.17 215.355 799.318 215.355 Q802.466 215.355 804.295 213.203 Q806.146 211.027 806.146 207.3 Q806.146 203.55 804.295 201.397 Q802.466 199.244 799.318 199.244 M808.6 184.592 L808.6 188.851 Q806.841 188.018 805.035 187.578 Q803.253 187.138 801.494 187.138 Q796.864 187.138 794.41 190.263 Q791.98 193.388 791.633 199.707 Q792.998 197.693 795.059 196.629 Q797.119 195.541 799.596 195.541 Q804.804 195.541 807.813 198.712 Q810.846 201.86 810.846 207.3 Q810.846 212.624 807.697 215.842 Q804.549 219.059 799.318 219.059 Q793.322 219.059 790.151 214.476 Q786.98 209.869 786.98 201.143 Q786.98 192.948 790.869 188.087 Q794.758 183.203 801.309 183.203 Q803.068 183.203 804.85 183.55 Q806.656 183.897 808.6 184.592 Z" fill="#000000" fill-rule="nonzero" fill-opacity="1" /><path clip-path="url(#clip450)" d="M829.48 199.244 Q826.332 199.244 824.48 201.397 Q822.651 203.55 822.651 207.3 Q822.651 211.027 824.48 213.203 Q826.332 215.355 829.48 215.355 Q832.628 215.355 834.456 213.203 Q836.308 211.027 836.308 207.3 Q836.308 203.55 834.456 201.397 Q832.628 199.244 829.48 199.244 M838.762 184.592 L838.762 188.851 Q837.003 188.018 835.197 187.578 Q833.415 187.138 831.656 187.138 Q827.026 187.138 824.572 190.263 Q822.142 193.388 821.795 199.707 Q823.16 197.693 825.22 196.629 Q827.281 195.541 829.757 195.541 Q834.966 195.541 837.975 198.712 Q841.007 201.86 841.007 207.3 Q841.007 212.624 837.859 215.842 Q834.711 219.059 829.48 219.059 Q823.484 219.059 820.313 214.476 Q817.142 209.869 817.142 201.143 Q817.142 192.948 821.031 188.087 Q824.92 183.203 831.47 183.203 Q833.23 183.203 835.012 183.55 Q836.818 183.897 838.762 184.592 Z" fill="#000000" fill-rule="nonzero" fill-opacity="1" /><path clip-path="url(#clip450)" d="M880.868 188.666 L880.868 201.559 L893.762 201.559 L893.762 205.494 L880.868 205.494 L880.868 218.388 L876.979 218.388 L876.979 205.494 L864.086 205.494 L864.086 201.559 L876.979 201.559 L876.979 188.666 L880.868 188.666 Z" fill="#000000" fill-rule="nonzero" fill-opacity="1" /><path clip-path="url(#clip450)" d="M913.854 186.907 Q910.243 186.907 908.414 190.471 Q906.609 194.013 906.609 201.143 Q906.609 208.249 908.414 211.814 Q910.243 215.355 913.854 215.355 Q917.488 215.355 919.294 211.814 Q921.123 208.249 921.123 201.143 Q921.123 194.013 919.294 190.471 Q917.488 186.907 913.854 186.907 M913.854 183.203 Q919.664 183.203 922.72 187.809 Q925.799 192.393 925.799 201.143 Q925.799 209.869 922.72 214.476 Q919.664 219.059 913.854 219.059 Q908.044 219.059 904.965 214.476 Q901.91 209.869 901.91 201.143 Q901.91 192.393 904.965 187.809 Q908.044 183.203 913.854 183.203 Z" fill="#000000" fill-rule="nonzero" fill-opacity="1" /><path clip-path="url(#clip450)" d="M934.016 212.508 L938.9 212.508 L938.9 218.388 L934.016 218.388 L934.016 212.508 Z" fill="#000000" fill-rule="nonzero" fill-opacity="1" /><path clip-path="url(#clip450)" d="M959.085 186.907 Q955.474 186.907 953.646 190.471 Q951.84 194.013 951.84 201.143 Q951.84 208.249 953.646 211.814 Q955.474 215.355 959.085 215.355 Q962.72 215.355 964.525 211.814 Q966.354 208.249 966.354 201.143 Q966.354 194.013 964.525 190.471 Q962.72 186.907 959.085 186.907 M959.085 183.203 Q964.896 183.203 967.951 187.809 Q971.03 192.393 971.03 201.143 Q971.03 209.869 967.951 214.476 Q964.896 219.059 959.085 219.059 Q953.275 219.059 950.197 214.476 Q947.141 209.869 947.141 201.143 Q947.141 192.393 950.197 187.809 Q953.275 183.203 959.085 183.203 Z" fill="#000000" fill-rule="nonzero" fill-opacity="1" /><path clip-path="url(#clip450)" d="M979.294 183.828 L997.65 183.828 L997.65 187.763 L983.576 187.763 L983.576 196.235 Q984.595 195.888 985.613 195.726 Q986.632 195.541 987.65 195.541 Q993.437 195.541 996.817 198.712 Q1000.2 201.883 1000.2 207.3 Q1000.2 212.879 996.724 215.98 Q993.252 219.059 986.933 219.059 Q984.757 219.059 982.488 218.689 Q980.243 218.318 977.835 217.578 L977.835 212.879 Q979.919 214.013 982.141 214.568 Q984.363 215.124 986.84 215.124 Q990.845 215.124 993.182 213.017 Q995.52 210.911 995.52 207.3 Q995.52 203.689 993.182 201.582 Q990.845 199.476 986.84 199.476 Q984.965 199.476 983.09 199.893 Q981.238 200.309 979.294 201.189 L979.294 183.828 Z" fill="#000000" fill-rule="nonzero" fill-opacity="1" /><path clip-path="url(#clip450)" d="M1019.41 201.976 Q1016.08 201.976 1014.15 203.758 Q1012.26 205.541 1012.26 208.666 Q1012.26 211.791 1014.15 213.573 Q1016.08 215.355 1019.41 215.355 Q1022.74 215.355 1024.66 213.573 Q1026.59 211.767 1026.59 208.666 Q1026.59 205.541 1024.66 203.758 Q1022.77 201.976 1019.41 201.976 M1014.73 199.985 Q1011.72 199.244 1010.03 197.184 Q1008.37 195.124 1008.37 192.161 Q1008.37 188.018 1011.31 185.61 Q1014.27 183.203 1019.41 183.203 Q1024.57 183.203 1027.51 185.61 Q1030.45 188.018 1030.45 192.161 Q1030.45 195.124 1028.76 197.184 Q1027.09 199.244 1024.11 199.985 Q1027.49 200.772 1029.36 203.064 Q1031.26 205.355 1031.26 208.666 Q1031.26 213.689 1028.18 216.374 Q1025.13 219.059 1019.41 219.059 Q1013.69 219.059 1010.61 216.374 Q1007.56 213.689 1007.56 208.666 Q1007.56 205.355 1009.46 203.064 Q1011.35 200.772 1014.73 199.985 M1013.02 192.601 Q1013.02 195.286 1014.69 196.791 Q1016.38 198.295 1019.41 198.295 Q1022.42 198.295 1024.11 196.791 Q1025.82 195.286 1025.82 192.601 Q1025.82 189.916 1024.11 188.411 Q1022.42 186.907 1019.41 186.907 Q1016.38 186.907 1014.69 188.411 Q1013.02 189.916 1013.02 192.601 Z" fill="#000000" fill-rule="nonzero" fill-opacity="1" /><path clip-path="url(#clip450)" d="M1046.54 183.828 L1050.47 183.828 L1038.44 222.786 L1034.5 222.786 L1046.54 183.828 Z" fill="#000000" fill-rule="nonzero" fill-opacity="1" /><path clip-path="url(#clip450)" d="M1052.79 203.504 L1065.27 203.504 L1065.27 207.3 L1052.79 207.3 L1052.79 203.504 Z" fill="#000000" fill-rule="nonzero" fill-opacity="1" /><path clip-path="url(#clip450)" d="M1082.65 186.907 Q1079.04 186.907 1077.21 190.471 Q1075.4 194.013 1075.4 201.143 Q1075.4 208.249 1077.21 211.814 Q1079.04 215.355 1082.65 215.355 Q1086.28 215.355 1088.09 211.814 Q1089.92 208.249 1089.92 201.143 Q1089.92 194.013 1088.09 190.471 Q1086.28 186.907 1082.65 186.907 M1082.65 183.203 Q1088.46 183.203 1091.52 187.809 Q1094.59 192.393 1094.59 201.143 Q1094.59 209.869 1091.52 214.476 Q1088.46 219.059 1082.65 219.059 Q1076.84 219.059 1073.76 214.476 Q1070.71 209.869 1070.71 201.143 Q1070.71 192.393 1073.76 187.809 Q1076.84 183.203 1082.65 183.203 Z" fill="#000000" fill-rule="nonzero" fill-opacity="1" /><path clip-path="url(#clip450)" d="M1102.81 212.508 L1107.7 212.508 L1107.7 218.388 L1102.81 218.388 L1102.81 212.508 Z" fill="#000000" fill-rule="nonzero" fill-opacity="1" /><path clip-path="url(#clip450)" d="M1127.88 186.907 Q1124.27 186.907 1122.44 190.471 Q1120.64 194.013 1120.64 201.143 Q1120.64 208.249 1122.44 211.814 Q1124.27 215.355 1127.88 215.355 Q1131.52 215.355 1133.32 211.814 Q1135.15 208.249 1135.15 201.143 Q1135.15 194.013 1133.32 190.471 Q1131.52 186.907 1127.88 186.907 M1127.88 183.203 Q1133.69 183.203 1136.75 187.809 Q1139.83 192.393 1139.83 201.143 Q1139.83 209.869 1136.75 214.476 Q1133.69 219.059 1127.88 219.059 Q1122.07 219.059 1118.99 214.476 Q1115.94 209.869 1115.94 201.143 Q1115.94 192.393 1118.99 187.809 Q1122.07 183.203 1127.88 183.203 Z" fill="#000000" fill-rule="nonzero" fill-opacity="1" /><path clip-path="url(#clip450)" d="M1146.86 183.828 L1169.08 183.828 L1169.08 185.819 L1156.54 218.388 L1151.65 218.388 L1163.46 187.763 L1146.86 187.763 L1146.86 183.828 Z" fill="#000000" fill-rule="nonzero" fill-opacity="1" /><path clip-path="url(#clip450)" d="M1192.86 183.828 L1199.82 183.828 L1208.64 207.346 L1217.51 183.828 L1224.48 183.828 L1224.48 218.388 L1219.92 218.388 L1219.92 188.041 L1211.01 211.744 L1206.31 211.744 L1197.39 188.041 L1197.39 218.388 L1192.86 218.388 L1192.86 183.828 Z" fill="#000000" fill-rule="nonzero" fill-opacity="1" /><path clip-path="url(#clip450)" d="M1245.36 205.355 Q1240.2 205.355 1238.2 206.536 Q1236.21 207.717 1236.21 210.564 Q1236.21 212.832 1237.7 214.175 Q1239.2 215.494 1241.77 215.494 Q1245.31 215.494 1247.44 212.994 Q1249.59 210.471 1249.59 206.305 L1249.59 205.355 L1245.36 205.355 M1253.85 203.596 L1253.85 218.388 L1249.59 218.388 L1249.59 214.453 Q1248.13 216.814 1245.96 217.948 Q1243.78 219.059 1240.63 219.059 Q1236.65 219.059 1234.29 216.837 Q1231.95 214.592 1231.95 210.842 Q1231.95 206.467 1234.87 204.244 Q1237.81 202.022 1243.62 202.022 L1249.59 202.022 L1249.59 201.606 Q1249.59 198.666 1247.65 197.068 Q1245.73 195.448 1242.23 195.448 Q1240.01 195.448 1237.9 195.981 Q1235.8 196.513 1233.85 197.578 L1233.85 193.643 Q1236.19 192.74 1238.39 192.3 Q1240.59 191.837 1242.67 191.837 Q1248.3 191.837 1251.07 194.754 Q1253.85 197.67 1253.85 203.596 Z" fill="#000000" fill-rule="nonzero" fill-opacity="1" /><path clip-path="url(#clip450)" d="M1261.95 182.416 L1265.66 182.416 Q1269.13 187.879 1270.84 193.11 Q1272.58 198.342 1272.58 203.504 Q1272.58 208.689 1270.84 213.943 Q1269.13 219.198 1265.66 224.638 L1261.95 224.638 Q1265.03 219.337 1266.54 214.105 Q1268.07 208.851 1268.07 203.504 Q1268.07 198.156 1266.54 192.948 Q1265.03 187.74 1261.95 182.416 Z" fill="#000000" fill-rule="nonzero" fill-opacity="1" /></svg>
