<?xml version="1.0" encoding="utf-8"?>
<svg xmlns="http://www.w3.org/2000/svg" xmlns:xlink="http://www.w3.org/1999/xlink" width="600" height="400" viewBox="0 0 2400 1600">
<defs>
  <clipPath id="clip500">
    <rect x="0" y="0" width="2400" height="1600"/>
  </clipPath>
</defs>
<path clip-path="url(#clip500)" d="M0 1600 L2400 1600 L2400 8.88178e-14 L0 8.88178e-14  Z" fill="#ffffff" fill-rule="evenodd" fill-opacity="1"/>
<defs>
  <clipPath id="clip501">
    <rect x="249" y="47" width="2104" height="1507"/>
  </clipPath>
</defs>
<path clip-path="url(#clip500)" d="M202.227 1423.18 L2352.76 1423.18 L2352.76 47.2441 L202.227 47.2441  Z" fill="#ffffff" fill-rule="evenodd" fill-opacity="1"/>
<defs>
  <clipPath id="clip502">
    <rect x="202" y="47" width="2152" height="1377"/>
  </clipPath>
</defs>
<polyline clip-path="url(#clip502)" style="stroke:#000000; stroke-linecap:round; stroke-linejoin:round; stroke-width:2; stroke-opacity:0.1; fill:none" points="315.183,1423.18 315.183,47.2441 "/>
<polyline clip-path="url(#clip502)" style="stroke:#000000; stroke-linecap:round; stroke-linejoin:round; stroke-width:2; stroke-opacity:0.1; fill:none" points="629.917,1423.18 629.917,47.2441 "/>
<polyline clip-path="url(#clip502)" style="stroke:#000000; stroke-linecap:round; stroke-linejoin:round; stroke-width:2; stroke-opacity:0.1; fill:none" points="944.652,1423.18 944.652,47.2441 "/>
<polyline clip-path="url(#clip502)" style="stroke:#000000; stroke-linecap:round; stroke-linejoin:round; stroke-width:2; stroke-opacity:0.1; fill:none" points="1259.39,1423.18 1259.39,47.2441 "/>
<polyline clip-path="url(#clip502)" style="stroke:#000000; stroke-linecap:round; stroke-linejoin:round; stroke-width:2; stroke-opacity:0.1; fill:none" points="1574.12,1423.18 1574.12,47.2441 "/>
<polyline clip-path="url(#clip502)" style="stroke:#000000; stroke-linecap:round; stroke-linejoin:round; stroke-width:2; stroke-opacity:0.1; fill:none" points="1888.86,1423.18 1888.86,47.2441 "/>
<polyline clip-path="url(#clip502)" style="stroke:#000000; stroke-linecap:round; stroke-linejoin:round; stroke-width:2; stroke-opacity:0.1; fill:none" points="2203.59,1423.18 2203.59,47.2441 "/>
<polyline clip-path="url(#clip502)" style="stroke:#000000; stroke-linecap:round; stroke-linejoin:round; stroke-width:2; stroke-opacity:0.1; fill:none" points="315.183,1423.18 315.183,47.2441 "/>
<polyline clip-path="url(#clip502)" style="stroke:#000000; stroke-linecap:round; stroke-linejoin:round; stroke-width:2; stroke-opacity:0.1; fill:none" points="629.917,1423.18 629.917,47.2441 "/>
<polyline clip-path="url(#clip502)" style="stroke:#000000; stroke-linecap:round; stroke-linejoin:round; stroke-width:2; stroke-opacity:0.1; fill:none" points="944.652,1423.18 944.652,47.2441 "/>
<polyline clip-path="url(#clip502)" style="stroke:#000000; stroke-linecap:round; stroke-linejoin:round; stroke-width:2; stroke-opacity:0.1; fill:none" points="1259.39,1423.18 1259.39,47.2441 "/>
<polyline clip-path="url(#clip502)" style="stroke:#000000; stroke-linecap:round; stroke-linejoin:round; stroke-width:2; stroke-opacity:0.1; fill:none" points="1574.12,1423.18 1574.12,47.2441 "/>
<polyline clip-path="url(#clip502)" style="stroke:#000000; stroke-linecap:round; stroke-linejoin:round; stroke-width:2; stroke-opacity:0.1; fill:none" points="1888.86,1423.18 1888.86,47.2441 "/>
<polyline clip-path="url(#clip502)" style="stroke:#000000; stroke-linecap:round; stroke-linejoin:round; stroke-width:2; stroke-opacity:0.1; fill:none" points="2203.59,1423.18 2203.59,47.2441 "/>
<polyline clip-path="url(#clip502)" style="stroke:#000000; stroke-linecap:round; stroke-linejoin:round; stroke-width:2; stroke-opacity:0.1; fill:none" points="202.227,1384.24 2352.76,1384.24 "/>
<polyline clip-path="url(#clip502)" style="stroke:#000000; stroke-linecap:round; stroke-linejoin:round; stroke-width:2; stroke-opacity:0.1; fill:none" points="202.227,1171.69 2352.76,1171.69 "/>
<polyline clip-path="url(#clip502)" style="stroke:#000000; stroke-linecap:round; stroke-linejoin:round; stroke-width:2; stroke-opacity:0.1; fill:none" points="202.227,959.137 2352.76,959.137 "/>
<polyline clip-path="url(#clip502)" style="stroke:#000000; stroke-linecap:round; stroke-linejoin:round; stroke-width:2; stroke-opacity:0.1; fill:none" points="202.227,746.584 2352.76,746.584 "/>
<polyline clip-path="url(#clip502)" style="stroke:#000000; stroke-linecap:round; stroke-linejoin:round; stroke-width:2; stroke-opacity:0.1; fill:none" points="202.227,534.031 2352.76,534.031 "/>
<polyline clip-path="url(#clip502)" style="stroke:#000000; stroke-linecap:round; stroke-linejoin:round; stroke-width:2; stroke-opacity:0.1; fill:none" points="202.227,321.478 2352.76,321.478 "/>
<polyline clip-path="url(#clip502)" style="stroke:#000000; stroke-linecap:round; stroke-linejoin:round; stroke-width:2; stroke-opacity:0.1; fill:none" points="202.227,108.926 2352.76,108.926 "/>
<polyline clip-path="url(#clip502)" style="stroke:#000000; stroke-linecap:round; stroke-linejoin:round; stroke-width:2; stroke-opacity:0.1; fill:none" points="202.227,1384.24 2352.76,1384.24 "/>
<polyline clip-path="url(#clip502)" style="stroke:#000000; stroke-linecap:round; stroke-linejoin:round; stroke-width:2; stroke-opacity:0.1; fill:none" points="202.227,1171.69 2352.76,1171.69 "/>
<polyline clip-path="url(#clip502)" style="stroke:#000000; stroke-linecap:round; stroke-linejoin:round; stroke-width:2; stroke-opacity:0.1; fill:none" points="202.227,959.137 2352.76,959.137 "/>
<polyline clip-path="url(#clip502)" style="stroke:#000000; stroke-linecap:round; stroke-linejoin:round; stroke-width:2; stroke-opacity:0.1; fill:none" points="202.227,746.584 2352.76,746.584 "/>
<polyline clip-path="url(#clip502)" style="stroke:#000000; stroke-linecap:round; stroke-linejoin:round; stroke-width:2; stroke-opacity:0.1; fill:none" points="202.227,534.031 2352.76,534.031 "/>
<polyline clip-path="url(#clip502)" style="stroke:#000000; stroke-linecap:round; stroke-linejoin:round; stroke-width:2; stroke-opacity:0.1; fill:none" points="202.227,321.478 2352.76,321.478 "/>
<polyline clip-path="url(#clip502)" style="stroke:#000000; stroke-linecap:round; stroke-linejoin:round; stroke-width:2; stroke-opacity:0.1; fill:none" points="202.227,108.926 2352.76,108.926 "/>
<polyline clip-path="url(#clip500)" style="stroke:#000000; stroke-linecap:round; stroke-linejoin:round; stroke-width:4; stroke-opacity:1; fill:none" points="202.227,1423.18 2352.76,1423.18 "/>
<polyline clip-path="url(#clip500)" style="stroke:#000000; stroke-linecap:round; stroke-linejoin:round; stroke-width:4; stroke-opacity:1; fill:none" points="202.227,47.2441 2352.76,47.2441 "/>
<polyline clip-path="url(#clip500)" style="stroke:#000000; stroke-linecap:round; stroke-linejoin:round; stroke-width:4; stroke-opacity:1; fill:none" points="315.183,1423.18 315.183,1404.28 "/>
<polyline clip-path="url(#clip500)" style="stroke:#000000; stroke-linecap:round; stroke-linejoin:round; stroke-width:4; stroke-opacity:1; fill:none" points="629.917,1423.18 629.917,1404.28 "/>
<polyline clip-path="url(#clip500)" style="stroke:#000000; stroke-linecap:round; stroke-linejoin:round; stroke-width:4; stroke-opacity:1; fill:none" points="944.652,1423.18 944.652,1404.28 "/>
<polyline clip-path="url(#clip500)" style="stroke:#000000; stroke-linecap:round; stroke-linejoin:round; stroke-width:4; stroke-opacity:1; fill:none" points="1259.39,1423.18 1259.39,1404.28 "/>
<polyline clip-path="url(#clip500)" style="stroke:#000000; stroke-linecap:round; stroke-linejoin:round; stroke-width:4; stroke-opacity:1; fill:none" points="1574.12,1423.18 1574.12,1404.28 "/>
<polyline clip-path="url(#clip500)" style="stroke:#000000; stroke-linecap:round; stroke-linejoin:round; stroke-width:4; stroke-opacity:1; fill:none" points="1888.86,1423.18 1888.86,1404.28 "/>
<polyline clip-path="url(#clip500)" style="stroke:#000000; stroke-linecap:round; stroke-linejoin:round; stroke-width:4; stroke-opacity:1; fill:none" points="2203.59,1423.18 2203.59,1404.28 "/>
<polyline clip-path="url(#clip500)" style="stroke:#000000; stroke-linecap:round; stroke-linejoin:round; stroke-width:4; stroke-opacity:1; fill:none" points="315.183,47.2441 315.183,66.1417 "/>
<polyline clip-path="url(#clip500)" style="stroke:#000000; stroke-linecap:round; stroke-linejoin:round; stroke-width:4; stroke-opacity:1; fill:none" points="629.917,47.2441 629.917,66.1417 "/>
<polyline clip-path="url(#clip500)" style="stroke:#000000; stroke-linecap:round; stroke-linejoin:round; stroke-width:4; stroke-opacity:1; fill:none" points="944.652,47.2441 944.652,66.1417 "/>
<polyline clip-path="url(#clip500)" style="stroke:#000000; stroke-linecap:round; stroke-linejoin:round; stroke-width:4; stroke-opacity:1; fill:none" points="1259.39,47.2441 1259.39,66.1417 "/>
<polyline clip-path="url(#clip500)" style="stroke:#000000; stroke-linecap:round; stroke-linejoin:round; stroke-width:4; stroke-opacity:1; fill:none" points="1574.12,47.2441 1574.12,66.1417 "/>
<polyline clip-path="url(#clip500)" style="stroke:#000000; stroke-linecap:round; stroke-linejoin:round; stroke-width:4; stroke-opacity:1; fill:none" points="1888.86,47.2441 1888.86,66.1417 "/>
<polyline clip-path="url(#clip500)" style="stroke:#000000; stroke-linecap:round; stroke-linejoin:round; stroke-width:4; stroke-opacity:1; fill:none" points="2203.59,47.2441 2203.59,66.1417 "/>
<path clip-path="url(#clip500)" d="M263.389 1466.44 Q260.241 1466.44 258.389 1468.59 Q256.56 1470.74 256.56 1474.49 Q256.56 1478.22 258.389 1480.39 Q260.241 1482.55 263.389 1482.55 Q266.537 1482.55 268.366 1480.39 Q270.218 1478.22 270.218 1474.49 Q270.218 1470.74 268.366 1468.59 Q266.537 1466.44 263.389 1466.44 M272.671 1451.78 L272.671 1456.04 Q270.912 1455.21 269.106 1454.77 Q267.324 1454.33 265.565 1454.33 Q260.935 1454.33 258.481 1457.45 Q256.051 1460.58 255.704 1466.9 Q257.069 1464.89 259.13 1463.82 Q261.19 1462.73 263.667 1462.73 Q268.875 1462.73 271.884 1465.9 Q274.917 1469.05 274.917 1474.49 Q274.917 1479.82 271.768 1483.03 Q268.62 1486.25 263.389 1486.25 Q257.393 1486.25 254.222 1481.67 Q251.051 1477.06 251.051 1468.33 Q251.051 1460.14 254.94 1455.28 Q258.829 1450.39 265.38 1450.39 Q267.139 1450.39 268.921 1450.74 Q270.727 1451.09 272.671 1451.78 Z" fill="#000000" fill-rule="nonzero" fill-opacity="1" /><path clip-path="url(#clip500)" d="M283.018 1451.02 L301.375 1451.02 L301.375 1454.96 L287.301 1454.96 L287.301 1463.43 Q288.319 1463.08 289.338 1462.92 Q290.356 1462.73 291.375 1462.73 Q297.162 1462.73 300.541 1465.9 Q303.921 1469.08 303.921 1474.49 Q303.921 1480.07 300.449 1483.17 Q296.977 1486.25 290.657 1486.25 Q288.481 1486.25 286.213 1485.88 Q283.967 1485.51 281.56 1484.77 L281.56 1480.07 Q283.643 1481.2 285.866 1481.76 Q288.088 1482.32 290.565 1482.32 Q294.569 1482.32 296.907 1480.21 Q299.245 1478.1 299.245 1474.49 Q299.245 1470.88 296.907 1468.77 Q294.569 1466.67 290.565 1466.67 Q288.69 1466.67 286.815 1467.08 Q284.963 1467.5 283.018 1468.38 L283.018 1451.02 Z" fill="#000000" fill-rule="nonzero" fill-opacity="1" /><path clip-path="url(#clip500)" d="M313.134 1479.7 L318.018 1479.7 L318.018 1485.58 L313.134 1485.58 L313.134 1479.7 Z" fill="#000000" fill-rule="nonzero" fill-opacity="1" /><path clip-path="url(#clip500)" d="M328.25 1451.02 L346.606 1451.02 L346.606 1454.96 L332.532 1454.96 L332.532 1463.43 Q333.55 1463.08 334.569 1462.92 Q335.588 1462.73 336.606 1462.73 Q342.393 1462.73 345.773 1465.9 Q349.152 1469.08 349.152 1474.49 Q349.152 1480.07 345.68 1483.17 Q342.208 1486.25 335.888 1486.25 Q333.713 1486.25 331.444 1485.88 Q329.199 1485.51 326.791 1484.77 L326.791 1480.07 Q328.875 1481.2 331.097 1481.76 Q333.319 1482.32 335.796 1482.32 Q339.8 1482.32 342.138 1480.21 Q344.476 1478.1 344.476 1474.49 Q344.476 1470.88 342.138 1468.77 Q339.8 1466.67 335.796 1466.67 Q333.921 1466.67 332.046 1467.08 Q330.194 1467.5 328.25 1468.38 L328.25 1451.02 Z" fill="#000000" fill-rule="nonzero" fill-opacity="1" /><path clip-path="url(#clip500)" d="M358.411 1451.02 L376.768 1451.02 L376.768 1454.96 L362.694 1454.96 L362.694 1463.43 Q363.712 1463.08 364.731 1462.92 Q365.749 1462.73 366.768 1462.73 Q372.555 1462.73 375.935 1465.9 Q379.314 1469.08 379.314 1474.49 Q379.314 1480.07 375.842 1483.17 Q372.37 1486.25 366.05 1486.25 Q363.874 1486.25 361.606 1485.88 Q359.361 1485.51 356.953 1484.77 L356.953 1480.07 Q359.036 1481.2 361.259 1481.76 Q363.481 1482.32 365.958 1482.32 Q369.962 1482.32 372.3 1480.21 Q374.638 1478.1 374.638 1474.49 Q374.638 1470.88 372.3 1468.77 Q369.962 1466.67 365.958 1466.67 Q364.083 1466.67 362.208 1467.08 Q360.356 1467.5 358.411 1468.38 L358.411 1451.02 Z" fill="#000000" fill-rule="nonzero" fill-opacity="1" /><path clip-path="url(#clip500)" d="M577.626 1466.44 Q574.478 1466.44 572.626 1468.59 Q570.797 1470.74 570.797 1474.49 Q570.797 1478.22 572.626 1480.39 Q574.478 1482.55 577.626 1482.55 Q580.774 1482.55 582.603 1480.39 Q584.455 1478.22 584.455 1474.49 Q584.455 1470.74 582.603 1468.59 Q580.774 1466.44 577.626 1466.44 M586.908 1451.78 L586.908 1456.04 Q585.149 1455.21 583.344 1454.77 Q581.561 1454.33 579.802 1454.33 Q575.172 1454.33 572.719 1457.45 Q570.288 1460.58 569.941 1466.9 Q571.307 1464.89 573.367 1463.82 Q575.427 1462.73 577.904 1462.73 Q583.112 1462.73 586.121 1465.9 Q589.154 1469.05 589.154 1474.49 Q589.154 1479.82 586.006 1483.03 Q582.858 1486.25 577.626 1486.25 Q571.631 1486.25 568.459 1481.67 Q565.288 1477.06 565.288 1468.33 Q565.288 1460.14 569.177 1455.28 Q573.066 1450.39 579.617 1450.39 Q581.376 1450.39 583.158 1450.74 Q584.964 1451.09 586.908 1451.78 Z" fill="#000000" fill-rule="nonzero" fill-opacity="1" /><path clip-path="url(#clip500)" d="M597.256 1451.02 L615.612 1451.02 L615.612 1454.96 L601.538 1454.96 L601.538 1463.43 Q602.556 1463.08 603.575 1462.92 Q604.594 1462.73 605.612 1462.73 Q611.399 1462.73 614.779 1465.9 Q618.158 1469.08 618.158 1474.49 Q618.158 1480.07 614.686 1483.17 Q611.214 1486.25 604.894 1486.25 Q602.719 1486.25 600.45 1485.88 Q598.205 1485.51 595.797 1484.77 L595.797 1480.07 Q597.881 1481.2 600.103 1481.76 Q602.325 1482.32 604.802 1482.32 Q608.806 1482.32 611.144 1480.21 Q613.482 1478.1 613.482 1474.49 Q613.482 1470.88 611.144 1468.77 Q608.806 1466.67 604.802 1466.67 Q602.927 1466.67 601.052 1467.08 Q599.2 1467.5 597.256 1468.38 L597.256 1451.02 Z" fill="#000000" fill-rule="nonzero" fill-opacity="1" /><path clip-path="url(#clip500)" d="M627.371 1479.7 L632.255 1479.7 L632.255 1485.58 L627.371 1485.58 L627.371 1479.7 Z" fill="#000000" fill-rule="nonzero" fill-opacity="1" /><path clip-path="url(#clip500)" d="M653.019 1466.44 Q649.871 1466.44 648.019 1468.59 Q646.191 1470.74 646.191 1474.49 Q646.191 1478.22 648.019 1480.39 Q649.871 1482.55 653.019 1482.55 Q656.167 1482.55 657.996 1480.39 Q659.848 1478.22 659.848 1474.49 Q659.848 1470.74 657.996 1468.59 Q656.167 1466.44 653.019 1466.44 M662.302 1451.78 L662.302 1456.04 Q660.542 1455.21 658.737 1454.77 Q656.954 1454.33 655.195 1454.33 Q650.565 1454.33 648.112 1457.45 Q645.681 1460.58 645.334 1466.9 Q646.7 1464.89 648.76 1463.82 Q650.82 1462.73 653.297 1462.73 Q658.505 1462.73 661.515 1465.9 Q664.547 1469.05 664.547 1474.49 Q664.547 1479.82 661.399 1483.03 Q658.251 1486.25 653.019 1486.25 Q647.024 1486.25 643.853 1481.67 Q640.681 1477.06 640.681 1468.33 Q640.681 1460.14 644.57 1455.28 Q648.459 1450.39 655.01 1450.39 Q656.769 1450.39 658.552 1450.74 Q660.357 1451.09 662.302 1451.78 Z" fill="#000000" fill-rule="nonzero" fill-opacity="1" /><path clip-path="url(#clip500)" d="M682.602 1454.1 Q678.991 1454.1 677.163 1457.66 Q675.357 1461.2 675.357 1468.33 Q675.357 1475.44 677.163 1479.01 Q678.991 1482.55 682.602 1482.55 Q686.237 1482.55 688.042 1479.01 Q689.871 1475.44 689.871 1468.33 Q689.871 1461.2 688.042 1457.66 Q686.237 1454.1 682.602 1454.1 M682.602 1450.39 Q688.413 1450.39 691.468 1455 Q694.547 1459.58 694.547 1468.33 Q694.547 1477.06 691.468 1481.67 Q688.413 1486.25 682.602 1486.25 Q676.792 1486.25 673.714 1481.67 Q670.658 1477.06 670.658 1468.33 Q670.658 1459.58 673.714 1455 Q676.792 1450.39 682.602 1450.39 Z" fill="#000000" fill-rule="nonzero" fill-opacity="1" /><path clip-path="url(#clip500)" d="M892.859 1466.44 Q889.711 1466.44 887.859 1468.59 Q886.03 1470.74 886.03 1474.49 Q886.03 1478.22 887.859 1480.39 Q889.711 1482.55 892.859 1482.55 Q896.007 1482.55 897.835 1480.39 Q899.687 1478.22 899.687 1474.49 Q899.687 1470.74 897.835 1468.59 Q896.007 1466.44 892.859 1466.44 M902.141 1451.78 L902.141 1456.04 Q900.382 1455.21 898.576 1454.77 Q896.794 1454.33 895.035 1454.33 Q890.405 1454.33 887.951 1457.45 Q885.521 1460.58 885.174 1466.9 Q886.539 1464.89 888.599 1463.82 Q890.66 1462.73 893.136 1462.73 Q898.345 1462.73 901.354 1465.9 Q904.386 1469.05 904.386 1474.49 Q904.386 1479.82 901.238 1483.03 Q898.09 1486.25 892.859 1486.25 Q886.863 1486.25 883.692 1481.67 Q880.521 1477.06 880.521 1468.33 Q880.521 1460.14 884.41 1455.28 Q888.299 1450.39 894.849 1450.39 Q896.609 1450.39 898.391 1450.74 Q900.197 1451.09 902.141 1451.78 Z" fill="#000000" fill-rule="nonzero" fill-opacity="1" /><path clip-path="url(#clip500)" d="M912.488 1451.02 L930.845 1451.02 L930.845 1454.96 L916.771 1454.96 L916.771 1463.43 Q917.789 1463.08 918.808 1462.92 Q919.826 1462.73 920.845 1462.73 Q926.632 1462.73 930.011 1465.9 Q933.391 1469.08 933.391 1474.49 Q933.391 1480.07 929.919 1483.17 Q926.446 1486.25 920.127 1486.25 Q917.951 1486.25 915.683 1485.88 Q913.437 1485.51 911.03 1484.77 L911.03 1480.07 Q913.113 1481.2 915.335 1481.76 Q917.558 1482.32 920.034 1482.32 Q924.039 1482.32 926.377 1480.21 Q928.715 1478.1 928.715 1474.49 Q928.715 1470.88 926.377 1468.77 Q924.039 1466.67 920.034 1466.67 Q918.159 1466.67 916.284 1467.08 Q914.433 1467.5 912.488 1468.38 L912.488 1451.02 Z" fill="#000000" fill-rule="nonzero" fill-opacity="1" /><path clip-path="url(#clip500)" d="M942.604 1479.7 L947.488 1479.7 L947.488 1485.58 L942.604 1485.58 L942.604 1479.7 Z" fill="#000000" fill-rule="nonzero" fill-opacity="1" /><path clip-path="url(#clip500)" d="M968.252 1466.44 Q965.104 1466.44 963.252 1468.59 Q961.423 1470.74 961.423 1474.49 Q961.423 1478.22 963.252 1480.39 Q965.104 1482.55 968.252 1482.55 Q971.4 1482.55 973.229 1480.39 Q975.08 1478.22 975.08 1474.49 Q975.08 1470.74 973.229 1468.59 Q971.4 1466.44 968.252 1466.44 M977.534 1451.78 L977.534 1456.04 Q975.775 1455.21 973.969 1454.77 Q972.187 1454.33 970.428 1454.33 Q965.798 1454.33 963.344 1457.45 Q960.914 1460.58 960.567 1466.9 Q961.932 1464.89 963.993 1463.82 Q966.053 1462.73 968.53 1462.73 Q973.738 1462.73 976.747 1465.9 Q979.78 1469.05 979.78 1474.49 Q979.78 1479.82 976.631 1483.03 Q973.483 1486.25 968.252 1486.25 Q962.256 1486.25 959.085 1481.67 Q955.914 1477.06 955.914 1468.33 Q955.914 1460.14 959.803 1455.28 Q963.692 1450.39 970.243 1450.39 Q972.002 1450.39 973.784 1450.74 Q975.59 1451.09 977.534 1451.78 Z" fill="#000000" fill-rule="nonzero" fill-opacity="1" /><path clip-path="url(#clip500)" d="M987.881 1451.02 L1006.24 1451.02 L1006.24 1454.96 L992.164 1454.96 L992.164 1463.43 Q993.182 1463.08 994.201 1462.92 Q995.219 1462.73 996.238 1462.73 Q1002.02 1462.73 1005.4 1465.9 Q1008.78 1469.08 1008.78 1474.49 Q1008.78 1480.07 1005.31 1483.17 Q1001.84 1486.25 995.52 1486.25 Q993.344 1486.25 991.076 1485.88 Q988.83 1485.51 986.423 1484.77 L986.423 1480.07 Q988.506 1481.2 990.729 1481.76 Q992.951 1482.32 995.428 1482.32 Q999.432 1482.32 1001.77 1480.21 Q1004.11 1478.1 1004.11 1474.49 Q1004.11 1470.88 1001.77 1468.77 Q999.432 1466.67 995.428 1466.67 Q993.553 1466.67 991.678 1467.08 Q989.826 1467.5 987.881 1468.38 L987.881 1451.02 Z" fill="#000000" fill-rule="nonzero" fill-opacity="1" /><path clip-path="url(#clip500)" d="M1207.1 1466.44 Q1203.95 1466.44 1202.1 1468.59 Q1200.27 1470.74 1200.27 1474.49 Q1200.27 1478.22 1202.1 1480.39 Q1203.95 1482.55 1207.1 1482.55 Q1210.24 1482.55 1212.07 1480.39 Q1213.92 1478.22 1213.92 1474.49 Q1213.92 1470.74 1212.07 1468.59 Q1210.24 1466.44 1207.1 1466.44 M1216.38 1451.78 L1216.38 1456.04 Q1214.62 1455.21 1212.81 1454.77 Q1211.03 1454.33 1209.27 1454.33 Q1204.64 1454.33 1202.19 1457.45 Q1199.76 1460.58 1199.41 1466.9 Q1200.78 1464.89 1202.84 1463.82 Q1204.9 1462.73 1207.37 1462.73 Q1212.58 1462.73 1215.59 1465.9 Q1218.62 1469.05 1218.62 1474.49 Q1218.62 1479.82 1215.48 1483.03 Q1212.33 1486.25 1207.1 1486.25 Q1201.1 1486.25 1197.93 1481.67 Q1194.76 1477.06 1194.76 1468.33 Q1194.76 1460.14 1198.65 1455.28 Q1202.54 1450.39 1209.09 1450.39 Q1210.85 1450.39 1212.63 1450.74 Q1214.43 1451.09 1216.38 1451.78 Z" fill="#000000" fill-rule="nonzero" fill-opacity="1" /><path clip-path="url(#clip500)" d="M1226.73 1451.02 L1245.08 1451.02 L1245.08 1454.96 L1231.01 1454.96 L1231.01 1463.43 Q1232.03 1463.08 1233.04 1462.92 Q1234.06 1462.73 1235.08 1462.73 Q1240.87 1462.73 1244.25 1465.9 Q1247.63 1469.08 1247.63 1474.49 Q1247.63 1480.07 1244.16 1483.17 Q1240.68 1486.25 1234.36 1486.25 Q1232.19 1486.25 1229.92 1485.88 Q1227.67 1485.51 1225.27 1484.77 L1225.27 1480.07 Q1227.35 1481.2 1229.57 1481.76 Q1231.79 1482.32 1234.27 1482.32 Q1238.28 1482.32 1240.61 1480.21 Q1242.95 1478.1 1242.95 1474.49 Q1242.95 1470.88 1240.61 1468.77 Q1238.28 1466.67 1234.27 1466.67 Q1232.4 1466.67 1230.52 1467.08 Q1228.67 1467.5 1226.73 1468.38 L1226.73 1451.02 Z" fill="#000000" fill-rule="nonzero" fill-opacity="1" /><path clip-path="url(#clip500)" d="M1256.84 1479.7 L1261.73 1479.7 L1261.73 1485.58 L1256.84 1485.58 L1256.84 1479.7 Z" fill="#000000" fill-rule="nonzero" fill-opacity="1" /><path clip-path="url(#clip500)" d="M1270.73 1451.02 L1292.95 1451.02 L1292.95 1453.01 L1280.41 1485.58 L1275.52 1485.58 L1287.33 1454.96 L1270.73 1454.96 L1270.73 1451.02 Z" fill="#000000" fill-rule="nonzero" fill-opacity="1" /><path clip-path="url(#clip500)" d="M1312.07 1454.1 Q1308.46 1454.1 1306.63 1457.66 Q1304.83 1461.2 1304.83 1468.33 Q1304.83 1475.44 1306.63 1479.01 Q1308.46 1482.55 1312.07 1482.55 Q1315.71 1482.55 1317.51 1479.01 Q1319.34 1475.44 1319.34 1468.33 Q1319.34 1461.2 1317.51 1457.66 Q1315.71 1454.1 1312.07 1454.1 M1312.07 1450.39 Q1317.88 1450.39 1320.94 1455 Q1324.02 1459.58 1324.02 1468.33 Q1324.02 1477.06 1320.94 1481.67 Q1317.88 1486.25 1312.07 1486.25 Q1306.26 1486.25 1303.18 1481.67 Q1300.13 1477.06 1300.13 1468.33 Q1300.13 1459.58 1303.18 1455 Q1306.26 1450.39 1312.07 1450.39 Z" fill="#000000" fill-rule="nonzero" fill-opacity="1" /><path clip-path="url(#clip500)" d="M1522.33 1466.44 Q1519.18 1466.44 1517.33 1468.59 Q1515.5 1470.74 1515.5 1474.49 Q1515.5 1478.22 1517.33 1480.39 Q1519.18 1482.55 1522.33 1482.55 Q1525.48 1482.55 1527.31 1480.39 Q1529.16 1478.22 1529.16 1474.49 Q1529.16 1470.74 1527.31 1468.59 Q1525.48 1466.44 1522.33 1466.44 M1531.61 1451.78 L1531.61 1456.04 Q1529.85 1455.21 1528.05 1454.77 Q1526.26 1454.33 1524.5 1454.33 Q1519.87 1454.33 1517.42 1457.45 Q1514.99 1460.58 1514.64 1466.9 Q1516.01 1464.89 1518.07 1463.82 Q1520.13 1462.73 1522.61 1462.73 Q1527.81 1462.73 1530.82 1465.9 Q1533.86 1469.05 1533.86 1474.49 Q1533.86 1479.82 1530.71 1483.03 Q1527.56 1486.25 1522.33 1486.25 Q1516.33 1486.25 1513.16 1481.67 Q1509.99 1477.06 1509.99 1468.33 Q1509.99 1460.14 1513.88 1455.28 Q1517.77 1450.39 1524.32 1450.39 Q1526.08 1450.39 1527.86 1450.74 Q1529.67 1451.09 1531.61 1451.78 Z" fill="#000000" fill-rule="nonzero" fill-opacity="1" /><path clip-path="url(#clip500)" d="M1541.96 1451.02 L1560.31 1451.02 L1560.31 1454.96 L1546.24 1454.96 L1546.24 1463.43 Q1547.26 1463.08 1548.28 1462.92 Q1549.3 1462.73 1550.31 1462.73 Q1556.1 1462.73 1559.48 1465.9 Q1562.86 1469.08 1562.86 1474.49 Q1562.86 1480.07 1559.39 1483.17 Q1555.92 1486.25 1549.6 1486.25 Q1547.42 1486.25 1545.15 1485.88 Q1542.91 1485.51 1540.5 1484.77 L1540.5 1480.07 Q1542.58 1481.2 1544.81 1481.76 Q1547.03 1482.32 1549.5 1482.32 Q1553.51 1482.32 1555.85 1480.21 Q1558.18 1478.1 1558.18 1474.49 Q1558.18 1470.88 1555.85 1468.77 Q1553.51 1466.67 1549.5 1466.67 Q1547.63 1466.67 1545.75 1467.08 Q1543.9 1467.5 1541.96 1468.38 L1541.96 1451.02 Z" fill="#000000" fill-rule="nonzero" fill-opacity="1" /><path clip-path="url(#clip500)" d="M1572.07 1479.7 L1576.96 1479.7 L1576.96 1485.58 L1572.07 1485.58 L1572.07 1479.7 Z" fill="#000000" fill-rule="nonzero" fill-opacity="1" /><path clip-path="url(#clip500)" d="M1585.96 1451.02 L1608.18 1451.02 L1608.18 1453.01 L1595.64 1485.58 L1590.75 1485.58 L1602.56 1454.96 L1585.96 1454.96 L1585.96 1451.02 Z" fill="#000000" fill-rule="nonzero" fill-opacity="1" /><path clip-path="url(#clip500)" d="M1617.35 1451.02 L1635.71 1451.02 L1635.71 1454.96 L1621.63 1454.96 L1621.63 1463.43 Q1622.65 1463.08 1623.67 1462.92 Q1624.69 1462.73 1625.71 1462.73 Q1631.49 1462.73 1634.87 1465.9 Q1638.25 1469.08 1638.25 1474.49 Q1638.25 1480.07 1634.78 1483.17 Q1631.31 1486.25 1624.99 1486.25 Q1622.81 1486.25 1620.55 1485.88 Q1618.3 1485.51 1615.89 1484.77 L1615.89 1480.07 Q1617.98 1481.2 1620.2 1481.76 Q1622.42 1482.32 1624.9 1482.32 Q1628.9 1482.32 1631.24 1480.21 Q1633.58 1478.1 1633.58 1474.49 Q1633.58 1470.88 1631.24 1468.77 Q1628.9 1466.67 1624.9 1466.67 Q1623.02 1466.67 1621.15 1467.08 Q1619.3 1467.5 1617.35 1468.38 L1617.35 1451.02 Z" fill="#000000" fill-rule="nonzero" fill-opacity="1" /><path clip-path="url(#clip500)" d="M1836.57 1466.44 Q1833.42 1466.44 1831.57 1468.59 Q1829.74 1470.74 1829.74 1474.49 Q1829.74 1478.22 1831.57 1480.39 Q1833.42 1482.55 1836.57 1482.55 Q1839.71 1482.55 1841.54 1480.39 Q1843.39 1478.22 1843.39 1474.49 Q1843.39 1470.74 1841.54 1468.59 Q1839.71 1466.44 1836.57 1466.44 M1845.85 1451.78 L1845.85 1456.04 Q1844.09 1455.21 1842.28 1454.77 Q1840.5 1454.33 1838.74 1454.33 Q1834.11 1454.33 1831.66 1457.45 Q1829.23 1460.58 1828.88 1466.9 Q1830.25 1464.89 1832.31 1463.82 Q1834.37 1462.73 1836.84 1462.73 Q1842.05 1462.73 1845.06 1465.9 Q1848.09 1469.05 1848.09 1474.49 Q1848.09 1479.82 1844.95 1483.03 Q1841.8 1486.25 1836.57 1486.25 Q1830.57 1486.25 1827.4 1481.67 Q1824.23 1477.06 1824.23 1468.33 Q1824.23 1460.14 1828.12 1455.28 Q1832.01 1450.39 1838.56 1450.39 Q1840.32 1450.39 1842.1 1450.74 Q1843.9 1451.09 1845.85 1451.78 Z" fill="#000000" fill-rule="nonzero" fill-opacity="1" /><path clip-path="url(#clip500)" d="M1856.2 1451.02 L1874.55 1451.02 L1874.55 1454.96 L1860.48 1454.96 L1860.48 1463.43 Q1861.5 1463.08 1862.51 1462.92 Q1863.53 1462.73 1864.55 1462.73 Q1870.34 1462.73 1873.72 1465.9 Q1877.1 1469.08 1877.1 1474.49 Q1877.1 1480.07 1873.63 1483.17 Q1870.15 1486.25 1863.83 1486.25 Q1861.66 1486.25 1859.39 1485.88 Q1857.14 1485.51 1854.74 1484.77 L1854.74 1480.07 Q1856.82 1481.2 1859.04 1481.76 Q1861.26 1482.32 1863.74 1482.32 Q1867.75 1482.32 1870.08 1480.21 Q1872.42 1478.1 1872.42 1474.49 Q1872.42 1470.88 1870.08 1468.77 Q1867.75 1466.67 1863.74 1466.67 Q1861.87 1466.67 1859.99 1467.08 Q1858.14 1467.5 1856.2 1468.38 L1856.2 1451.02 Z" fill="#000000" fill-rule="nonzero" fill-opacity="1" /><path clip-path="url(#clip500)" d="M1886.31 1479.7 L1891.2 1479.7 L1891.2 1485.58 L1886.31 1485.58 L1886.31 1479.7 Z" fill="#000000" fill-rule="nonzero" fill-opacity="1" /><path clip-path="url(#clip500)" d="M1911.38 1469.17 Q1908.05 1469.17 1906.13 1470.95 Q1904.23 1472.73 1904.23 1475.86 Q1904.23 1478.98 1906.13 1480.77 Q1908.05 1482.55 1911.38 1482.55 Q1914.71 1482.55 1916.63 1480.77 Q1918.56 1478.96 1918.56 1475.86 Q1918.56 1472.73 1916.63 1470.95 Q1914.74 1469.17 1911.38 1469.17 M1906.7 1467.18 Q1903.7 1466.44 1902.01 1464.38 Q1900.34 1462.32 1900.34 1459.35 Q1900.34 1455.21 1903.28 1452.8 Q1906.24 1450.39 1911.38 1450.39 Q1916.54 1450.39 1919.48 1452.8 Q1922.42 1455.21 1922.42 1459.35 Q1922.42 1462.32 1920.73 1464.38 Q1919.07 1466.44 1916.08 1467.18 Q1919.46 1467.96 1921.33 1470.26 Q1923.23 1472.55 1923.23 1475.86 Q1923.23 1480.88 1920.15 1483.57 Q1917.1 1486.25 1911.38 1486.25 Q1905.66 1486.25 1902.58 1483.57 Q1899.53 1480.88 1899.53 1475.86 Q1899.53 1472.55 1901.43 1470.26 Q1903.32 1467.96 1906.7 1467.18 M1904.99 1459.79 Q1904.99 1462.48 1906.66 1463.98 Q1908.35 1465.49 1911.38 1465.49 Q1914.39 1465.49 1916.08 1463.98 Q1917.79 1462.48 1917.79 1459.79 Q1917.79 1457.11 1916.08 1455.6 Q1914.39 1454.1 1911.38 1454.1 Q1908.35 1454.1 1906.66 1455.6 Q1904.99 1457.11 1904.99 1459.79 Z" fill="#000000" fill-rule="nonzero" fill-opacity="1" /><path clip-path="url(#clip500)" d="M1941.54 1454.1 Q1937.93 1454.1 1936.1 1457.66 Q1934.3 1461.2 1934.3 1468.33 Q1934.3 1475.44 1936.1 1479.01 Q1937.93 1482.55 1941.54 1482.55 Q1945.18 1482.55 1946.98 1479.01 Q1948.81 1475.44 1948.81 1468.33 Q1948.81 1461.2 1946.98 1457.66 Q1945.18 1454.1 1941.54 1454.1 M1941.54 1450.39 Q1947.35 1450.39 1950.41 1455 Q1953.49 1459.58 1953.49 1468.33 Q1953.49 1477.06 1950.41 1481.67 Q1947.35 1486.25 1941.54 1486.25 Q1935.73 1486.25 1932.65 1481.67 Q1929.6 1477.06 1929.6 1468.33 Q1929.6 1459.58 1932.65 1455 Q1935.73 1450.39 1941.54 1450.39 Z" fill="#000000" fill-rule="nonzero" fill-opacity="1" /><path clip-path="url(#clip500)" d="M2151.8 1466.44 Q2148.65 1466.44 2146.8 1468.59 Q2144.97 1470.74 2144.97 1474.49 Q2144.97 1478.22 2146.8 1480.39 Q2148.65 1482.55 2151.8 1482.55 Q2154.95 1482.55 2156.78 1480.39 Q2158.63 1478.22 2158.63 1474.49 Q2158.63 1470.74 2156.78 1468.59 Q2154.95 1466.44 2151.8 1466.44 M2161.08 1451.78 L2161.08 1456.04 Q2159.32 1455.21 2157.52 1454.77 Q2155.73 1454.33 2153.97 1454.33 Q2149.34 1454.33 2146.89 1457.45 Q2144.46 1460.58 2144.11 1466.9 Q2145.48 1464.89 2147.54 1463.82 Q2149.6 1462.73 2152.08 1462.73 Q2157.28 1462.73 2160.29 1465.9 Q2163.33 1469.05 2163.33 1474.49 Q2163.33 1479.82 2160.18 1483.03 Q2157.03 1486.25 2151.8 1486.25 Q2145.8 1486.25 2142.63 1481.67 Q2139.46 1477.06 2139.46 1468.33 Q2139.46 1460.14 2143.35 1455.28 Q2147.24 1450.39 2153.79 1450.39 Q2155.55 1450.39 2157.33 1450.74 Q2159.14 1451.09 2161.08 1451.78 Z" fill="#000000" fill-rule="nonzero" fill-opacity="1" /><path clip-path="url(#clip500)" d="M2171.43 1451.02 L2189.78 1451.02 L2189.78 1454.96 L2175.71 1454.96 L2175.71 1463.43 Q2176.73 1463.08 2177.75 1462.92 Q2178.77 1462.73 2179.78 1462.73 Q2185.57 1462.73 2188.95 1465.9 Q2192.33 1469.08 2192.33 1474.49 Q2192.33 1480.07 2188.86 1483.17 Q2185.39 1486.25 2179.07 1486.25 Q2176.89 1486.25 2174.62 1485.88 Q2172.38 1485.51 2169.97 1484.77 L2169.97 1480.07 Q2172.05 1481.2 2174.28 1481.76 Q2176.5 1482.32 2178.97 1482.32 Q2182.98 1482.32 2185.32 1480.21 Q2187.65 1478.1 2187.65 1474.49 Q2187.65 1470.88 2185.32 1468.77 Q2182.98 1466.67 2178.97 1466.67 Q2177.1 1466.67 2175.22 1467.08 Q2173.37 1467.5 2171.43 1468.38 L2171.43 1451.02 Z" fill="#000000" fill-rule="nonzero" fill-opacity="1" /><path clip-path="url(#clip500)" d="M2201.54 1479.7 L2206.43 1479.7 L2206.43 1485.58 L2201.54 1485.58 L2201.54 1479.7 Z" fill="#000000" fill-rule="nonzero" fill-opacity="1" /><path clip-path="url(#clip500)" d="M2226.61 1469.17 Q2223.28 1469.17 2221.36 1470.95 Q2219.46 1472.73 2219.46 1475.86 Q2219.46 1478.98 2221.36 1480.77 Q2223.28 1482.55 2226.61 1482.55 Q2229.95 1482.55 2231.87 1480.77 Q2233.79 1478.96 2233.79 1475.86 Q2233.79 1472.73 2231.87 1470.95 Q2229.97 1469.17 2226.61 1469.17 M2221.94 1467.18 Q2218.93 1466.44 2217.24 1464.38 Q2215.57 1462.32 2215.57 1459.35 Q2215.57 1455.21 2218.51 1452.8 Q2221.47 1450.39 2226.61 1450.39 Q2231.77 1450.39 2234.71 1452.8 Q2237.65 1455.21 2237.65 1459.35 Q2237.65 1462.32 2235.96 1464.38 Q2234.3 1466.44 2231.31 1467.18 Q2234.69 1467.96 2236.57 1470.26 Q2238.46 1472.55 2238.46 1475.86 Q2238.46 1480.88 2235.39 1483.57 Q2232.33 1486.25 2226.61 1486.25 Q2220.9 1486.25 2217.82 1483.57 Q2214.76 1480.88 2214.76 1475.86 Q2214.76 1472.55 2216.66 1470.26 Q2218.56 1467.96 2221.94 1467.18 M2220.22 1459.79 Q2220.22 1462.48 2221.89 1463.98 Q2223.58 1465.49 2226.61 1465.49 Q2229.62 1465.49 2231.31 1463.98 Q2233.02 1462.48 2233.02 1459.79 Q2233.02 1457.11 2231.31 1455.6 Q2229.62 1454.1 2226.61 1454.1 Q2223.58 1454.1 2221.89 1455.6 Q2220.22 1457.11 2220.22 1459.79 Z" fill="#000000" fill-rule="nonzero" fill-opacity="1" /><path clip-path="url(#clip500)" d="M2246.82 1451.02 L2265.18 1451.02 L2265.18 1454.96 L2251.1 1454.96 L2251.1 1463.43 Q2252.12 1463.08 2253.14 1462.92 Q2254.16 1462.73 2255.18 1462.73 Q2260.96 1462.73 2264.34 1465.9 Q2267.72 1469.08 2267.72 1474.49 Q2267.72 1480.07 2264.25 1483.17 Q2260.78 1486.25 2254.46 1486.25 Q2252.28 1486.25 2250.02 1485.88 Q2247.77 1485.51 2245.36 1484.77 L2245.36 1480.07 Q2247.45 1481.2 2249.67 1481.76 Q2251.89 1482.32 2254.37 1482.32 Q2258.37 1482.32 2260.71 1480.21 Q2263.05 1478.1 2263.05 1474.49 Q2263.05 1470.88 2260.71 1468.77 Q2258.37 1466.67 2254.37 1466.67 Q2252.49 1466.67 2250.62 1467.08 Q2248.77 1467.5 2246.82 1468.38 L2246.82 1451.02 Z" fill="#000000" fill-rule="nonzero" fill-opacity="1" /><path clip-path="url(#clip500)" d="M1155.4 1526.86 L1146.68 1550.51 L1164.15 1550.51 L1155.4 1526.86 M1151.77 1520.52 L1159.06 1520.52 L1177.17 1568.04 L1170.48 1568.04 L1166.16 1555.85 L1144.73 1555.85 L1140.41 1568.04 L1133.63 1568.04 L1151.77 1520.52 Z" fill="#000000" fill-rule="nonzero" fill-opacity="1" /><path clip-path="url(#clip500)" d="M1207.31 1549.81 Q1207.31 1543.44 1204.67 1539.94 Q1202.06 1536.44 1197.32 1536.44 Q1192.6 1536.44 1189.96 1539.94 Q1187.35 1543.44 1187.35 1549.81 Q1187.35 1556.14 1189.96 1559.64 Q1192.6 1563.14 1197.32 1563.14 Q1202.06 1563.14 1204.67 1559.64 Q1207.31 1556.14 1207.31 1549.81 M1213.17 1563.62 Q1213.17 1572.72 1209.12 1577.15 Q1205.08 1581.6 1196.74 1581.6 Q1193.66 1581.6 1190.92 1581.13 Q1188.18 1580.68 1185.6 1579.72 L1185.6 1574.03 Q1188.18 1575.43 1190.7 1576.1 Q1193.21 1576.76 1195.82 1576.76 Q1201.58 1576.76 1204.45 1573.74 Q1207.31 1570.75 1207.31 1564.67 L1207.31 1561.77 Q1205.5 1564.92 1202.66 1566.48 Q1199.83 1568.04 1195.88 1568.04 Q1189.33 1568.04 1185.32 1563.05 Q1181.31 1558.05 1181.31 1549.81 Q1181.31 1541.53 1185.32 1536.53 Q1189.33 1531.54 1195.88 1531.54 Q1199.83 1531.54 1202.66 1533.1 Q1205.5 1534.66 1207.31 1537.81 L1207.31 1532.4 L1213.17 1532.4 L1213.17 1563.62 Z" fill="#000000" fill-rule="nonzero" fill-opacity="1" /><path clip-path="url(#clip500)" d="M1255.72 1548.76 L1255.72 1551.62 L1228.79 1551.62 Q1229.18 1557.67 1232.42 1560.85 Q1235.7 1564 1241.53 1564 Q1244.9 1564 1248.05 1563.17 Q1251.23 1562.35 1254.35 1560.69 L1254.35 1566.23 Q1251.2 1567.57 1247.89 1568.27 Q1244.58 1568.97 1241.18 1568.97 Q1232.65 1568.97 1227.65 1564 Q1222.68 1559.04 1222.68 1550.57 Q1222.68 1541.82 1227.39 1536.69 Q1232.14 1531.54 1240.16 1531.54 Q1247.35 1531.54 1251.52 1536.18 Q1255.72 1540.8 1255.72 1548.76 M1249.86 1547.04 Q1249.8 1542.23 1247.16 1539.37 Q1244.55 1536.5 1240.22 1536.5 Q1235.32 1536.5 1232.36 1539.27 Q1229.43 1542.04 1228.99 1547.07 L1249.86 1547.04 Z" fill="#000000" fill-rule="nonzero" fill-opacity="1" /><path clip-path="url(#clip500)" d="M1300.12 1518.58 Q1295.86 1525.9 1293.79 1533.06 Q1291.72 1540.23 1291.72 1547.58 Q1291.72 1554.93 1293.79 1562.16 Q1295.89 1569.35 1300.12 1576.64 L1295.03 1576.64 Q1290.25 1569.16 1287.87 1561.93 Q1285.51 1554.71 1285.51 1547.58 Q1285.51 1540.48 1287.87 1533.29 Q1290.22 1526.09 1295.03 1518.58 L1300.12 1518.58 Z" fill="#000000" fill-rule="nonzero" fill-opacity="1" /><path clip-path="url(#clip500)" d="M1311.74 1520.52 L1321.32 1520.52 L1333.45 1552.86 L1345.64 1520.52 L1355.22 1520.52 L1355.22 1568.04 L1348.95 1568.04 L1348.95 1526.32 L1336.69 1558.91 L1330.23 1558.91 L1317.98 1526.32 L1317.98 1568.04 L1311.74 1568.04 L1311.74 1520.52 Z" fill="#000000" fill-rule="nonzero" fill-opacity="1" /><path clip-path="url(#clip500)" d="M1383.93 1550.12 Q1376.83 1550.12 1374.09 1551.75 Q1371.35 1553.37 1371.35 1557.29 Q1371.35 1560.4 1373.39 1562.25 Q1375.46 1564.07 1378.99 1564.07 Q1383.86 1564.07 1386.79 1560.63 Q1389.75 1557.16 1389.75 1551.43 L1389.75 1550.12 L1383.93 1550.12 M1395.61 1547.71 L1395.61 1568.04 L1389.75 1568.04 L1389.75 1562.63 Q1387.75 1565.88 1384.75 1567.44 Q1381.76 1568.97 1377.43 1568.97 Q1371.96 1568.97 1368.71 1565.91 Q1365.5 1562.82 1365.5 1557.67 Q1365.5 1551.65 1369.51 1548.6 Q1373.55 1545.54 1381.54 1545.54 L1389.75 1545.54 L1389.75 1544.97 Q1389.75 1540.93 1387.08 1538.73 Q1384.44 1536.5 1379.63 1536.5 Q1376.57 1536.5 1373.68 1537.23 Q1370.78 1537.97 1368.11 1539.43 L1368.11 1534.02 Q1371.32 1532.78 1374.35 1532.17 Q1377.37 1531.54 1380.23 1531.54 Q1387.97 1531.54 1391.79 1535.55 Q1395.61 1539.56 1395.61 1547.71 Z" fill="#000000" fill-rule="nonzero" fill-opacity="1" /><path clip-path="url(#clip500)" d="M1406.75 1518.58 L1411.84 1518.58 Q1416.61 1526.09 1418.97 1533.29 Q1421.36 1540.48 1421.36 1547.58 Q1421.36 1554.71 1418.97 1561.93 Q1416.61 1569.16 1411.84 1576.64 L1406.75 1576.64 Q1410.98 1569.35 1413.05 1562.16 Q1415.15 1554.93 1415.15 1547.58 Q1415.15 1540.23 1413.05 1533.06 Q1410.98 1525.9 1406.75 1518.58 Z" fill="#000000" fill-rule="nonzero" fill-opacity="1" /><polyline clip-path="url(#clip500)" style="stroke:#000000; stroke-linecap:round; stroke-linejoin:round; stroke-width:4; stroke-opacity:1; fill:none" points="202.227,1423.18 202.227,47.2441 "/>
<polyline clip-path="url(#clip500)" style="stroke:#000000; stroke-linecap:round; stroke-linejoin:round; stroke-width:4; stroke-opacity:1; fill:none" points="2352.76,1423.18 2352.76,47.2441 "/>
<polyline clip-path="url(#clip500)" style="stroke:#000000; stroke-linecap:round; stroke-linejoin:round; stroke-width:4; stroke-opacity:1; fill:none" points="202.227,1384.24 221.125,1384.24 "/>
<polyline clip-path="url(#clip500)" style="stroke:#000000; stroke-linecap:round; stroke-linejoin:round; stroke-width:4; stroke-opacity:1; fill:none" points="202.227,1171.69 221.125,1171.69 "/>
<polyline clip-path="url(#clip500)" style="stroke:#000000; stroke-linecap:round; stroke-linejoin:round; stroke-width:4; stroke-opacity:1; fill:none" points="202.227,959.137 221.125,959.137 "/>
<polyline clip-path="url(#clip500)" style="stroke:#000000; stroke-linecap:round; stroke-linejoin:round; stroke-width:4; stroke-opacity:1; fill:none" points="202.227,746.584 221.125,746.584 "/>
<polyline clip-path="url(#clip500)" style="stroke:#000000; stroke-linecap:round; stroke-linejoin:round; stroke-width:4; stroke-opacity:1; fill:none" points="202.227,534.031 221.125,534.031 "/>
<polyline clip-path="url(#clip500)" style="stroke:#000000; stroke-linecap:round; stroke-linejoin:round; stroke-width:4; stroke-opacity:1; fill:none" points="202.227,321.478 221.125,321.478 "/>
<polyline clip-path="url(#clip500)" style="stroke:#000000; stroke-linecap:round; stroke-linejoin:round; stroke-width:4; stroke-opacity:1; fill:none" points="202.227,108.926 221.125,108.926 "/>
<polyline clip-path="url(#clip500)" style="stroke:#000000; stroke-linecap:round; stroke-linejoin:round; stroke-width:4; stroke-opacity:1; fill:none" points="2352.76,1384.24 2333.86,1384.24 "/>
<polyline clip-path="url(#clip500)" style="stroke:#000000; stroke-linecap:round; stroke-linejoin:round; stroke-width:4; stroke-opacity:1; fill:none" points="2352.76,1171.69 2333.86,1171.69 "/>
<polyline clip-path="url(#clip500)" style="stroke:#000000; stroke-linecap:round; stroke-linejoin:round; stroke-width:4; stroke-opacity:1; fill:none" points="2352.76,959.137 2333.86,959.137 "/>
<polyline clip-path="url(#clip500)" style="stroke:#000000; stroke-linecap:round; stroke-linejoin:round; stroke-width:4; stroke-opacity:1; fill:none" points="2352.76,746.584 2333.86,746.584 "/>
<polyline clip-path="url(#clip500)" style="stroke:#000000; stroke-linecap:round; stroke-linejoin:round; stroke-width:4; stroke-opacity:1; fill:none" points="2352.76,534.031 2333.86,534.031 "/>
<polyline clip-path="url(#clip500)" style="stroke:#000000; stroke-linecap:round; stroke-linejoin:round; stroke-width:4; stroke-opacity:1; fill:none" points="2352.76,321.478 2333.86,321.478 "/>
<polyline clip-path="url(#clip500)" style="stroke:#000000; stroke-linecap:round; stroke-linejoin:round; stroke-width:4; stroke-opacity:1; fill:none" points="2352.76,108.926 2333.86,108.926 "/>
<path clip-path="url(#clip500)" d="M154.283 1370.04 Q150.672 1370.04 148.843 1373.61 Q147.038 1377.15 147.038 1384.28 Q147.038 1391.38 148.843 1394.95 Q150.672 1398.49 154.283 1398.49 Q157.917 1398.49 159.723 1394.95 Q161.552 1391.38 161.552 1384.28 Q161.552 1377.15 159.723 1373.61 Q157.917 1370.04 154.283 1370.04 M154.283 1366.34 Q160.093 1366.34 163.149 1370.94 Q166.227 1375.53 166.227 1384.28 Q166.227 1393 163.149 1397.61 Q160.093 1402.19 154.283 1402.19 Q148.473 1402.19 145.394 1397.61 Q142.339 1393 142.339 1384.28 Q142.339 1375.53 145.394 1370.94 Q148.473 1366.34 154.283 1366.34 Z" fill="#000000" fill-rule="nonzero" fill-opacity="1" /><path clip-path="url(#clip500)" d="M149.908 1185.03 L166.227 1185.03 L166.227 1188.97 L144.283 1188.97 L144.283 1185.03 Q146.945 1182.28 151.528 1177.65 Q156.135 1173 157.315 1171.65 Q159.561 1169.13 160.44 1167.4 Q161.343 1165.64 161.343 1163.95 Q161.343 1161.19 159.399 1159.46 Q157.478 1157.72 154.376 1157.72 Q152.177 1157.72 149.723 1158.48 Q147.292 1159.25 144.515 1160.8 L144.515 1156.08 Q147.339 1154.94 149.792 1154.36 Q152.246 1153.78 154.283 1153.78 Q159.653 1153.78 162.848 1156.47 Q166.042 1159.15 166.042 1163.65 Q166.042 1165.77 165.232 1167.7 Q164.445 1169.59 162.339 1172.19 Q161.76 1172.86 158.658 1176.08 Q155.556 1179.27 149.908 1185.03 Z" fill="#000000" fill-rule="nonzero" fill-opacity="1" /><path clip-path="url(#clip500)" d="M156.644 945.931 L144.839 964.38 L156.644 964.38 L156.644 945.931 M155.417 941.857 L161.297 941.857 L161.297 964.38 L166.227 964.38 L166.227 968.268 L161.297 968.268 L161.297 976.417 L156.644 976.417 L156.644 968.268 L141.042 968.268 L141.042 963.755 L155.417 941.857 Z" fill="#000000" fill-rule="nonzero" fill-opacity="1" /><path clip-path="url(#clip500)" d="M154.7 744.72 Q151.552 744.72 149.7 746.873 Q147.871 749.026 147.871 752.776 Q147.871 756.503 149.7 758.679 Q151.552 760.831 154.7 760.831 Q157.848 760.831 159.677 758.679 Q161.528 756.503 161.528 752.776 Q161.528 749.026 159.677 746.873 Q157.848 744.72 154.7 744.72 M163.982 730.068 L163.982 734.327 Q162.223 733.494 160.417 733.054 Q158.635 732.614 156.876 732.614 Q152.246 732.614 149.792 735.739 Q147.362 738.864 147.015 745.183 Q148.38 743.17 150.441 742.105 Q152.501 741.017 154.978 741.017 Q160.186 741.017 163.195 744.188 Q166.227 747.336 166.227 752.776 Q166.227 758.1 163.079 761.318 Q159.931 764.535 154.7 764.535 Q148.704 764.535 145.533 759.952 Q142.362 755.345 142.362 746.619 Q142.362 738.424 146.251 733.563 Q150.14 728.679 156.69 728.679 Q158.45 728.679 160.232 729.026 Q162.038 729.373 163.982 730.068 Z" fill="#000000" fill-rule="nonzero" fill-opacity="1" /><path clip-path="url(#clip500)" d="M154.376 534.899 Q151.042 534.899 149.121 536.682 Q147.223 538.464 147.223 541.589 Q147.223 544.714 149.121 546.496 Q151.042 548.279 154.376 548.279 Q157.709 548.279 159.63 546.496 Q161.552 544.691 161.552 541.589 Q161.552 538.464 159.63 536.682 Q157.732 534.899 154.376 534.899 M149.7 532.908 Q146.691 532.168 145.001 530.108 Q143.334 528.047 143.334 525.084 Q143.334 520.941 146.274 518.534 Q149.237 516.126 154.376 516.126 Q159.538 516.126 162.477 518.534 Q165.417 520.941 165.417 525.084 Q165.417 528.047 163.727 530.108 Q162.061 532.168 159.075 532.908 Q162.454 533.695 164.329 535.987 Q166.227 538.279 166.227 541.589 Q166.227 546.612 163.149 549.297 Q160.093 551.982 154.376 551.982 Q148.658 551.982 145.579 549.297 Q142.524 546.612 142.524 541.589 Q142.524 538.279 144.422 535.987 Q146.32 533.695 149.7 532.908 M147.987 525.524 Q147.987 528.209 149.653 529.714 Q151.343 531.219 154.376 531.219 Q157.385 531.219 159.075 529.714 Q160.788 528.209 160.788 525.524 Q160.788 522.839 159.075 521.334 Q157.385 519.83 154.376 519.83 Q151.343 519.83 149.653 521.334 Q147.987 522.839 147.987 525.524 Z" fill="#000000" fill-rule="nonzero" fill-opacity="1" /><path clip-path="url(#clip500)" d="M114.931 334.823 L122.57 334.823 L122.57 308.458 L114.26 310.124 L114.26 305.865 L122.524 304.198 L127.2 304.198 L127.2 334.823 L134.839 334.823 L134.839 338.758 L114.931 338.758 L114.931 334.823 Z" fill="#000000" fill-rule="nonzero" fill-opacity="1" /><path clip-path="url(#clip500)" d="M154.283 307.277 Q150.672 307.277 148.843 310.842 Q147.038 314.384 147.038 321.513 Q147.038 328.62 148.843 332.184 Q150.672 335.726 154.283 335.726 Q157.917 335.726 159.723 332.184 Q161.552 328.62 161.552 321.513 Q161.552 314.384 159.723 310.842 Q157.917 307.277 154.283 307.277 M154.283 303.573 Q160.093 303.573 163.149 308.18 Q166.227 312.763 166.227 321.513 Q166.227 330.24 163.149 334.846 Q160.093 339.43 154.283 339.43 Q148.473 339.43 145.394 334.846 Q142.339 330.24 142.339 321.513 Q142.339 312.763 145.394 308.18 Q148.473 303.573 154.283 303.573 Z" fill="#000000" fill-rule="nonzero" fill-opacity="1" /><path clip-path="url(#clip500)" d="M116.529 122.271 L124.168 122.271 L124.168 95.905 L115.857 97.5716 L115.857 93.3124 L124.121 91.6457 L128.797 91.6457 L128.797 122.271 L136.436 122.271 L136.436 126.206 L116.529 126.206 L116.529 122.271 Z" fill="#000000" fill-rule="nonzero" fill-opacity="1" /><path clip-path="url(#clip500)" d="M149.908 122.271 L166.227 122.271 L166.227 126.206 L144.283 126.206 L144.283 122.271 Q146.945 119.516 151.528 114.886 Q156.135 110.234 157.315 108.891 Q159.561 106.368 160.44 104.632 Q161.343 102.873 161.343 101.183 Q161.343 98.4281 159.399 96.692 Q157.478 94.9559 154.376 94.9559 Q152.177 94.9559 149.723 95.7198 Q147.292 96.4837 144.515 98.0346 L144.515 93.3124 Q147.339 92.1781 149.792 91.5994 Q152.246 91.0207 154.283 91.0207 Q159.653 91.0207 162.848 93.7059 Q166.042 96.3911 166.042 100.882 Q166.042 103.011 165.232 104.933 Q164.445 106.831 162.339 109.423 Q161.76 110.095 158.658 113.312 Q155.556 116.507 149.908 122.271 Z" fill="#000000" fill-rule="nonzero" fill-opacity="1" /><path clip-path="url(#clip500)" d="M21.7677 1026.76 L39.6235 1026.76 L39.6235 1018.68 Q39.6235 1014.19 37.3 1011.74 Q34.9765 1009.29 30.6797 1009.29 Q26.4147 1009.29 24.0912 1011.74 Q21.7677 1014.19 21.7677 1018.68 L21.7677 1026.76 M16.4842 1033.19 L16.4842 1018.68 Q16.4842 1010.69 20.1126 1006.61 Q23.7092 1002.51 30.6797 1002.51 Q37.7138 1002.51 41.3104 1006.61 Q44.907 1010.69 44.907 1018.68 L44.907 1026.76 L64.0042 1026.76 L64.0042 1033.19 L16.4842 1033.19 Z" fill="#000000" fill-rule="nonzero" fill-opacity="1" /><path clip-path="url(#clip500)" d="M33.8307 974.626 Q33.2578 975.613 33.0032 976.791 Q32.7167 977.936 32.7167 979.337 Q32.7167 984.302 35.9632 986.976 Q39.1779 989.617 45.2253 989.617 L64.0042 989.617 L64.0042 995.506 L28.3562 995.506 L28.3562 989.617 L33.8944 989.617 Q30.6479 987.771 29.0883 984.811 Q27.4968 981.851 27.4968 977.618 Q27.4968 977.013 27.5923 976.281 Q27.656 975.549 27.8151 974.658 L33.8307 974.626 Z" fill="#000000" fill-rule="nonzero" fill-opacity="1" /><path clip-path="url(#clip500)" d="M32.4621 956.102 Q32.4621 960.813 36.1542 963.55 Q39.8145 966.287 46.212 966.287 Q52.6095 966.287 56.3017 963.582 Q59.9619 960.844 59.9619 956.102 Q59.9619 951.423 56.2698 948.686 Q52.5777 945.949 46.212 945.949 Q39.8781 945.949 36.186 948.686 Q32.4621 951.423 32.4621 956.102 M27.4968 956.102 Q27.4968 948.463 32.4621 944.103 Q37.4273 939.742 46.212 939.742 Q54.9649 939.742 59.9619 944.103 Q64.9272 948.463 64.9272 956.102 Q64.9272 963.773 59.9619 968.133 Q54.9649 972.462 46.212 972.462 Q37.4273 972.462 32.4621 968.133 Q27.4968 963.773 27.4968 956.102 Z" fill="#000000" fill-rule="nonzero" fill-opacity="1" /><path clip-path="url(#clip500)" d="M46.212 904.444 Q39.7508 904.444 36.0905 907.118 Q32.3984 909.76 32.3984 914.407 Q32.3984 919.054 36.0905 921.727 Q39.7508 924.369 46.212 924.369 Q52.6732 924.369 56.3653 921.727 Q60.0256 919.054 60.0256 914.407 Q60.0256 909.76 56.3653 907.118 Q52.6732 904.444 46.212 904.444 M33.7671 924.369 Q30.5842 922.523 29.0564 919.722 Q27.4968 916.889 27.4968 912.974 Q27.4968 906.481 32.6531 902.439 Q37.8093 898.365 46.212 898.365 Q54.6147 898.365 59.771 902.439 Q64.9272 906.481 64.9272 912.974 Q64.9272 916.889 63.3994 919.722 Q61.8398 922.523 58.657 924.369 L64.0042 924.369 L64.0042 930.257 L14.479 930.257 L14.479 924.369 L33.7671 924.369 Z" fill="#000000" fill-rule="nonzero" fill-opacity="1" /><path clip-path="url(#clip500)" d="M46.0847 872.457 Q46.0847 879.554 47.7079 882.292 Q49.3312 885.029 53.2461 885.029 Q56.3653 885.029 58.2114 882.992 Q60.0256 880.923 60.0256 877.39 Q60.0256 872.52 56.5881 869.592 Q53.1188 866.632 47.3897 866.632 L46.0847 866.632 L46.0847 872.457 M43.6657 860.776 L64.0042 860.776 L64.0042 866.632 L58.5933 866.632 Q61.8398 868.637 63.3994 871.629 Q64.9272 874.621 64.9272 878.95 Q64.9272 884.424 61.8716 887.671 Q58.7843 890.885 53.6281 890.885 Q47.6125 890.885 44.5569 886.875 Q41.5014 882.833 41.5014 874.844 L41.5014 866.632 L40.9285 866.632 Q36.8862 866.632 34.6901 869.306 Q32.4621 871.947 32.4621 876.753 Q32.4621 879.809 33.1941 882.705 Q33.9262 885.602 35.3903 888.275 L29.9795 888.275 Q28.7381 885.061 28.1334 882.037 Q27.4968 879.013 27.4968 876.149 Q27.4968 868.414 31.5072 864.595 Q35.5176 860.776 43.6657 860.776 Z" fill="#000000" fill-rule="nonzero" fill-opacity="1" /><path clip-path="url(#clip500)" d="M46.212 823.122 Q39.7508 823.122 36.0905 825.796 Q32.3984 828.438 32.3984 833.085 Q32.3984 837.732 36.0905 840.405 Q39.7508 843.047 46.212 843.047 Q52.6732 843.047 56.3653 840.405 Q60.0256 837.732 60.0256 833.085 Q60.0256 828.438 56.3653 825.796 Q52.6732 823.122 46.212 823.122 M33.7671 843.047 Q30.5842 841.201 29.0564 838.4 Q27.4968 835.567 27.4968 831.652 Q27.4968 825.159 32.6531 821.117 Q37.8093 817.043 46.212 817.043 Q54.6147 817.043 59.771 821.117 Q64.9272 825.159 64.9272 831.652 Q64.9272 835.567 63.3994 838.4 Q61.8398 841.201 58.657 843.047 L64.0042 843.047 L64.0042 848.935 L14.479 848.935 L14.479 843.047 L33.7671 843.047 Z" fill="#000000" fill-rule="nonzero" fill-opacity="1" /><path clip-path="url(#clip500)" d="M28.3562 807.335 L28.3562 801.479 L64.0042 801.479 L64.0042 807.335 L28.3562 807.335 M14.479 807.335 L14.479 801.479 L21.895 801.479 L21.895 807.335 L14.479 807.335 Z" fill="#000000" fill-rule="nonzero" fill-opacity="1" /><path clip-path="url(#clip500)" d="M14.479 789.225 L14.479 783.369 L64.0042 783.369 L64.0042 789.225 L14.479 789.225 Z" fill="#000000" fill-rule="nonzero" fill-opacity="1" /><path clip-path="url(#clip500)" d="M28.3562 771.115 L28.3562 765.258 L64.0042 765.258 L64.0042 771.115 L28.3562 771.115 M14.479 771.115 L14.479 765.258 L21.895 765.258 L21.895 771.115 L14.479 771.115 Z" fill="#000000" fill-rule="nonzero" fill-opacity="1" /><path clip-path="url(#clip500)" d="M18.2347 747.211 L28.3562 747.211 L28.3562 735.148 L32.9077 735.148 L32.9077 747.211 L52.2594 747.211 Q56.6199 747.211 57.8613 746.034 Q59.1026 744.824 59.1026 741.164 L59.1026 735.148 L64.0042 735.148 L64.0042 741.164 Q64.0042 747.943 61.4897 750.521 Q58.9434 753.1 52.2594 753.1 L32.9077 753.1 L32.9077 757.396 L28.3562 757.396 L28.3562 753.1 L18.2347 753.1 L18.2347 747.211 Z" fill="#000000" fill-rule="nonzero" fill-opacity="1" /><path clip-path="url(#clip500)" d="M67.3143 712.614 Q73.68 715.096 75.6216 717.452 Q77.5631 719.807 77.5631 723.754 L77.5631 728.432 L72.6615 728.432 L72.6615 724.995 Q72.6615 722.576 71.5157 721.239 Q70.3699 719.902 66.1048 718.279 L63.4312 717.229 L28.3562 731.647 L28.3562 725.441 L56.238 714.301 L28.3562 703.161 L28.3562 696.954 L67.3143 712.614 Z" fill="#000000" fill-rule="nonzero" fill-opacity="1" /><path clip-path="url(#clip500)" d="M33.7671 644.692 L14.479 644.692 L14.479 638.835 L64.0042 638.835 L64.0042 644.692 L58.657 644.692 Q61.8398 646.538 63.3994 649.37 Q64.9272 652.171 64.9272 656.118 Q64.9272 662.579 59.771 666.653 Q54.6147 670.696 46.212 670.696 Q37.8093 670.696 32.6531 666.653 Q27.4968 662.579 27.4968 656.118 Q27.4968 652.171 29.0564 649.37 Q30.5842 646.538 33.7671 644.692 M46.212 664.648 Q52.6732 664.648 56.3653 662.006 Q60.0256 659.333 60.0256 654.686 Q60.0256 650.039 56.3653 647.365 Q52.6732 644.692 46.212 644.692 Q39.7508 644.692 36.0905 647.365 Q32.3984 650.039 32.3984 654.686 Q32.3984 659.333 36.0905 662.006 Q39.7508 664.648 46.212 664.648 Z" fill="#000000" fill-rule="nonzero" fill-opacity="1" /><path clip-path="url(#clip500)" d="M44.7161 596.28 L47.5806 596.28 L47.5806 623.207 Q53.6281 622.825 56.8109 619.579 Q59.9619 616.301 59.9619 610.476 Q59.9619 607.102 59.1344 603.951 Q58.3069 600.768 56.6518 597.649 L62.1899 597.649 Q63.5267 600.8 64.227 604.11 Q64.9272 607.42 64.9272 610.826 Q64.9272 619.356 59.9619 624.353 Q54.9967 629.318 46.5303 629.318 Q37.7774 629.318 32.6531 624.608 Q27.4968 619.865 27.4968 611.845 Q27.4968 604.651 32.1438 600.482 Q36.7589 596.28 44.7161 596.28 M42.9973 602.137 Q38.1912 602.201 35.3266 604.842 Q32.4621 607.452 32.4621 611.781 Q32.4621 616.683 35.2312 619.643 Q38.0002 622.571 43.0292 623.016 L42.9973 602.137 Z" fill="#000000" fill-rule="nonzero" fill-opacity="1" /><path clip-path="url(#clip500)" d="M42.4881 557.036 L64.0042 557.036 L64.0042 562.892 L42.679 562.892 Q37.6183 562.892 35.1038 564.866 Q32.5894 566.839 32.5894 570.786 Q32.5894 575.528 35.6131 578.265 Q38.6368 581.003 43.8567 581.003 L64.0042 581.003 L64.0042 586.891 L28.3562 586.891 L28.3562 581.003 L33.8944 581.003 Q30.6797 578.902 29.0883 576.069 Q27.4968 573.205 27.4968 569.481 Q27.4968 563.338 31.3163 560.187 Q35.1038 557.036 42.4881 557.036 Z" fill="#000000" fill-rule="nonzero" fill-opacity="1" /><path clip-path="url(#clip500)" d="M29.4065 522.629 L34.9447 522.629 Q33.6716 525.112 33.035 527.785 Q32.3984 530.459 32.3984 533.324 Q32.3984 537.684 33.7352 539.88 Q35.072 542.045 37.7456 542.045 Q39.7826 542.045 40.9603 540.485 Q42.1061 538.925 43.1565 534.215 L43.6021 532.21 Q44.9389 525.971 47.3897 523.361 Q49.8086 520.719 54.1691 520.719 Q59.1344 520.719 62.0308 524.666 Q64.9272 528.581 64.9272 535.456 Q64.9272 538.321 64.3543 541.44 Q63.8132 544.527 62.6992 547.965 L56.6518 547.965 Q58.3387 544.718 59.198 541.567 Q60.0256 538.416 60.0256 535.329 Q60.0256 531.191 58.6251 528.963 Q57.1929 526.735 54.6147 526.735 Q52.2276 526.735 50.9545 528.358 Q49.6813 529.95 48.5037 535.392 L48.0262 537.429 Q46.8804 542.872 44.5251 545.291 Q42.138 547.71 38.0002 547.71 Q32.9713 547.71 30.2341 544.145 Q27.4968 540.58 27.4968 534.024 Q27.4968 530.777 27.9743 527.913 Q28.4517 525.048 29.4065 522.629 Z" fill="#000000" fill-rule="nonzero" fill-opacity="1" /><path clip-path="url(#clip500)" d="M28.3562 511.394 L28.3562 505.537 L64.0042 505.537 L64.0042 511.394 L28.3562 511.394 M14.479 511.394 L14.479 505.537 L21.895 505.537 L21.895 511.394 L14.479 511.394 Z" fill="#000000" fill-rule="nonzero" fill-opacity="1" /><path clip-path="url(#clip500)" d="M18.2347 487.49 L28.3562 487.49 L28.3562 475.427 L32.9077 475.427 L32.9077 487.49 L52.2594 487.49 Q56.6199 487.49 57.8613 486.313 Q59.1026 485.103 59.1026 481.443 L59.1026 475.427 L64.0042 475.427 L64.0042 481.443 Q64.0042 488.223 61.4897 490.801 Q58.9434 493.379 52.2594 493.379 L32.9077 493.379 L32.9077 497.676 L28.3562 497.676 L28.3562 493.379 L18.2347 493.379 L18.2347 487.49 Z" fill="#000000" fill-rule="nonzero" fill-opacity="1" /><path clip-path="url(#clip500)" d="M67.3143 452.893 Q73.68 455.376 75.6216 457.731 Q77.5631 460.086 77.5631 464.033 L77.5631 468.712 L72.6615 468.712 L72.6615 465.274 Q72.6615 462.855 71.5157 461.518 Q70.3699 460.182 66.1048 458.558 L63.4312 457.508 L28.3562 471.926 L28.3562 465.72 L56.238 454.58 L28.3562 443.44 L28.3562 437.233 L67.3143 452.893 Z" fill="#000000" fill-rule="nonzero" fill-opacity="1" /><polyline clip-path="url(#clip502)" style="stroke:#009af9; stroke-linecap:round; stroke-linejoin:round; stroke-width:4; stroke-opacity:1; fill:none" points="263.091,1384.11 284.907,1384.22 306.722,1384.17 328.537,1384.11 372.167,1384.11 393.982,1384.16 415.797,1384.16 437.612,1384.03 459.427,1384.21 481.242,1383.92 524.872,1384.22 546.687,1383.85 568.502,1384.11 590.317,1384.11 612.132,1383.88 633.947,1383.65 655.763,1383.56 677.578,1383.98 699.393,1383.96 721.208,1383.35 743.023,1383.41 764.838,1383.56 786.653,1383.35 808.468,1382.87 830.283,1382.7 852.098,1382.3 873.913,1382.85 895.728,1381.43 917.543,1381.75 939.358,1380.6 961.173,1379.82 982.988,1377.54 1004.8,1377.36 1026.62,1375.32 1048.43,1375.6 1070.25,1371.83 1092.06,1370.98 1113.88,1369.06 1135.69,1362.12 1157.51,1360.94 1179.32,1357.27 1201.14,1351.26 1222.95,1344.44 1244.77,1334.66 1266.58,1329.12 1288.4,1316.96 1310.21,1306.5 1332.03,1281.28 1353.84,1271.26 1375.66,1256.47 1397.47,1237.49 1419.29,1214.08 1441.1,1190.14 1462.92,1156.67 1484.73,1139.38 1506.55,1123.89 1528.36,1090.27 1550.18,1065.6 1571.99,1055.88 1593.81,1022.32 1615.63,1011.5 1637.44,1005.31 1659.26,991.043 1681.07,976.983 1702.89,974.089 1724.7,971.918 1746.52,987.846 1768.33,982.791 1790.15,982.703 1811.96,1016.32 1833.78,1039.42 1855.59,1063.95 1877.41,1090.1 1899.22,1113.89 1921.04,1140.42 1942.85,1175.54 1964.67,1212 1986.48,1243.1 2008.3,1259.28 2030.11,1291.55 2051.93,1311.4 2073.74,1329.59 2095.56,1343.88 2117.37,1356.71 2139.19,1367.37 2161,1371.61 2182.82,1378.14 2204.63,1380.36 2226.45,1382.3 2248.26,1383.88 2270.08,1383.61 2291.89,1384.09 "/>
<polyline clip-path="url(#clip502)" style="stroke:#e26f46; stroke-linecap:round; stroke-linejoin:round; stroke-width:4; stroke-opacity:1; fill:none" points="263.091,1384.24 284.907,1384.24 306.722,1384.24 328.537,1384.23 372.167,1384.23 393.982,1384.22 415.797,1384.22 437.612,1384.21 459.427,1384.2 481.242,1384.18 524.872,1384.14 546.687,1384.12 568.502,1384.08 590.317,1384.03 612.132,1383.97 633.947,1383.89 655.763,1383.78 677.578,1383.65 699.393,1383.48 721.208,1383.27 743.023,1382.99 764.838,1382.64 786.653,1382.21 808.468,1381.65 830.283,1380.96 852.098,1380.09 873.913,1379 895.728,1377.65 917.543,1375.97 939.358,1373.89 961.173,1371.33 982.988,1368.18 1004.8,1364.33 1026.62,1359.64 1048.43,1353.95 1070.25,1347.08 1092.06,1338.81 1113.88,1328.93 1135.69,1317.15 1157.51,1303.21 1179.32,1286.79 1201.14,1267.56 1222.95,1245.19 1244.77,1219.32 1266.58,1189.61 1288.4,1155.74 1310.21,1117.42 1332.03,1074.41 1353.84,1026.54 1375.66,973.776 1397.47,916.173 1419.29,853.959 1441.1,787.539 1462.92,717.521 1484.73,644.73 1506.55,570.227 1528.36,495.297 1550.18,421.446 1571.99,350.37 1593.81,283.912 1615.63,224.004 1637.44,172.59 1659.26,131.544 1681.07,102.568 1702.89,87.0933 1724.7,86.1857 1746.52,100.455 1768.33,129.992 1790.15,174.324 1811.96,232.408 1833.78,302.661 1855.59,383.022 1877.41,471.057 1899.22,564.086 1921.04,659.33 1942.85,754.071 1964.67,845.796 1986.48,932.329 2008.3,1011.93 2030.11,1083.35 2051.93,1145.88 2073.74,1199.27 2095.56,1243.73 2117.37,1279.85 2139.19,1308.43 2161,1330.48 2182.82,1347.03 2204.63,1359.13 2226.45,1367.73 2248.26,1373.67 2270.08,1377.66 2291.89,1380.25 "/>
<path clip-path="url(#clip500)" d="M273.912 248.629 L823.268 248.629 L823.268 93.1086 L273.912 93.1086  Z" fill="#ffffff" fill-rule="evenodd" fill-opacity="1"/>
<polyline clip-path="url(#clip500)" style="stroke:#ffffff; stroke-linecap:round; stroke-linejoin:round; stroke-width:4; stroke-opacity:1; fill:none" points="273.912,248.629 823.268,248.629 823.268,93.1086 273.912,93.1086 273.912,248.629 "/>
<polyline clip-path="url(#clip500)" style="stroke:#009af9; stroke-linecap:round; stroke-linejoin:round; stroke-width:4; stroke-opacity:1; fill:none" points="297.807,144.949 441.175,144.949 "/>
<path clip-path="url(#clip500)" d="M465.07 127.669 L469.746 127.669 L469.746 141.835 L486.736 141.835 L486.736 127.669 L491.412 127.669 L491.412 162.229 L486.736 162.229 L486.736 145.77 L469.746 145.77 L469.746 162.229 L465.07 162.229 L465.07 127.669 Z" fill="#000000" fill-rule="nonzero" fill-opacity="1" /><path clip-path="url(#clip500)" d="M500.533 136.303 L504.792 136.303 L504.792 162.229 L500.533 162.229 L500.533 136.303 M500.533 126.21 L504.792 126.21 L504.792 131.604 L500.533 131.604 L500.533 126.21 Z" fill="#000000" fill-rule="nonzero" fill-opacity="1" /><path clip-path="url(#clip500)" d="M530.232 137.067 L530.232 141.094 Q528.426 140.169 526.482 139.706 Q524.537 139.243 522.454 139.243 Q519.283 139.243 517.685 140.215 Q516.111 141.187 516.111 143.131 Q516.111 144.613 517.245 145.469 Q518.38 146.303 521.806 147.067 L523.264 147.391 Q527.801 148.363 529.699 150.145 Q531.62 151.905 531.62 155.076 Q531.62 158.687 528.75 160.793 Q525.903 162.9 520.903 162.9 Q518.82 162.9 516.551 162.483 Q514.306 162.09 511.806 161.28 L511.806 156.881 Q514.167 158.108 516.458 158.733 Q518.75 159.335 520.995 159.335 Q524.005 159.335 525.625 158.317 Q527.245 157.275 527.245 155.4 Q527.245 153.664 526.065 152.738 Q524.907 151.812 520.949 150.956 L519.468 150.608 Q515.509 149.775 513.75 148.062 Q511.991 146.326 511.991 143.317 Q511.991 139.659 514.583 137.669 Q517.176 135.678 521.945 135.678 Q524.306 135.678 526.389 136.025 Q528.472 136.372 530.232 137.067 Z" fill="#000000" fill-rule="nonzero" fill-opacity="1" /><path clip-path="url(#clip500)" d="M542.616 128.942 L542.616 136.303 L551.389 136.303 L551.389 139.613 L542.616 139.613 L542.616 153.687 Q542.616 156.858 543.472 157.761 Q544.352 158.664 547.014 158.664 L551.389 158.664 L551.389 162.229 L547.014 162.229 Q542.083 162.229 540.208 160.4 Q538.333 158.548 538.333 153.687 L538.333 139.613 L535.208 139.613 L535.208 136.303 L538.333 136.303 L538.333 128.942 L542.616 128.942 Z" fill="#000000" fill-rule="nonzero" fill-opacity="1" /><path clip-path="url(#clip500)" d="M567.037 139.289 Q563.611 139.289 561.62 141.974 Q559.63 144.636 559.63 149.289 Q559.63 153.942 561.597 156.627 Q563.588 159.289 567.037 159.289 Q570.44 159.289 572.43 156.604 Q574.421 153.918 574.421 149.289 Q574.421 144.682 572.43 141.997 Q570.44 139.289 567.037 139.289 M567.037 135.678 Q572.592 135.678 575.764 139.289 Q578.935 142.9 578.935 149.289 Q578.935 155.655 575.764 159.289 Q572.592 162.9 567.037 162.9 Q561.458 162.9 558.287 159.289 Q555.139 155.655 555.139 149.289 Q555.139 142.9 558.287 139.289 Q561.458 135.678 567.037 135.678 Z" fill="#000000" fill-rule="nonzero" fill-opacity="1" /><path clip-path="url(#clip500)" d="M603.055 148.965 Q603.055 144.335 601.134 141.789 Q599.236 139.243 595.787 139.243 Q592.361 139.243 590.44 141.789 Q588.541 144.335 588.541 148.965 Q588.541 153.571 590.44 156.118 Q592.361 158.664 595.787 158.664 Q599.236 158.664 601.134 156.118 Q603.055 153.571 603.055 148.965 M607.314 159.011 Q607.314 165.631 604.375 168.849 Q601.435 172.09 595.37 172.09 Q593.125 172.09 591.134 171.742 Q589.143 171.418 587.268 170.724 L587.268 166.58 Q589.143 167.599 590.972 168.085 Q592.801 168.571 594.699 168.571 Q598.889 168.571 600.972 166.372 Q603.055 164.196 603.055 159.775 L603.055 157.668 Q601.736 159.96 599.676 161.094 Q597.615 162.229 594.745 162.229 Q589.977 162.229 587.06 158.594 Q584.143 154.96 584.143 148.965 Q584.143 142.946 587.06 139.312 Q589.977 135.678 594.745 135.678 Q597.615 135.678 599.676 136.812 Q601.736 137.946 603.055 140.238 L603.055 136.303 L607.314 136.303 L607.314 159.011 Z" fill="#000000" fill-rule="nonzero" fill-opacity="1" /><path clip-path="url(#clip500)" d="M631.111 140.284 Q630.393 139.868 629.537 139.682 Q628.703 139.474 627.685 139.474 Q624.074 139.474 622.129 141.835 Q620.208 144.173 620.208 148.571 L620.208 162.229 L615.926 162.229 L615.926 136.303 L620.208 136.303 L620.208 140.331 Q621.55 137.969 623.703 136.835 Q625.856 135.678 628.935 135.678 Q629.375 135.678 629.907 135.747 Q630.439 135.794 631.087 135.909 L631.111 140.284 Z" fill="#000000" fill-rule="nonzero" fill-opacity="1" /><path clip-path="url(#clip500)" d="M647.361 149.196 Q642.199 149.196 640.208 150.377 Q638.217 151.557 638.217 154.405 Q638.217 156.673 639.699 158.016 Q641.203 159.335 643.773 159.335 Q647.314 159.335 649.444 156.835 Q651.597 154.312 651.597 150.145 L651.597 149.196 L647.361 149.196 M655.856 147.437 L655.856 162.229 L651.597 162.229 L651.597 158.293 Q650.138 160.655 647.962 161.789 Q645.786 162.9 642.638 162.9 Q638.657 162.9 636.296 160.678 Q633.958 158.432 633.958 154.682 Q633.958 150.307 636.874 148.085 Q639.814 145.863 645.624 145.863 L651.597 145.863 L651.597 145.446 Q651.597 142.507 649.652 140.909 Q647.731 139.289 644.236 139.289 Q642.013 139.289 639.907 139.821 Q637.8 140.354 635.856 141.419 L635.856 137.483 Q638.194 136.581 640.393 136.141 Q642.592 135.678 644.675 135.678 Q650.3 135.678 653.078 138.594 Q655.856 141.511 655.856 147.437 Z" fill="#000000" fill-rule="nonzero" fill-opacity="1" /><path clip-path="url(#clip500)" d="M684.814 141.28 Q686.411 138.409 688.633 137.044 Q690.856 135.678 693.865 135.678 Q697.916 135.678 700.115 138.525 Q702.314 141.349 702.314 146.581 L702.314 162.229 L698.032 162.229 L698.032 146.719 Q698.032 142.993 696.712 141.187 Q695.393 139.382 692.684 139.382 Q689.374 139.382 687.453 141.581 Q685.532 143.78 685.532 147.576 L685.532 162.229 L681.249 162.229 L681.249 146.719 Q681.249 142.969 679.93 141.187 Q678.61 139.382 675.856 139.382 Q672.592 139.382 670.671 141.604 Q668.749 143.803 668.749 147.576 L668.749 162.229 L664.467 162.229 L664.467 136.303 L668.749 136.303 L668.749 140.331 Q670.208 137.946 672.245 136.812 Q674.282 135.678 677.083 135.678 Q679.907 135.678 681.874 137.113 Q683.865 138.548 684.814 141.28 Z" fill="#000000" fill-rule="nonzero" fill-opacity="1" /><polyline clip-path="url(#clip500)" style="stroke:#e26f46; stroke-linecap:round; stroke-linejoin:round; stroke-width:4; stroke-opacity:1; fill:none" points="297.807,196.789 441.175,196.789 "/>
<path clip-path="url(#clip500)" d="M469.746 183.351 L469.746 210.226 L475.394 210.226 Q482.547 210.226 485.857 206.985 Q489.19 203.745 489.19 196.754 Q489.19 189.809 485.857 186.592 Q482.547 183.351 475.394 183.351 L469.746 183.351 M465.07 179.509 L474.676 179.509 Q484.723 179.509 489.422 183.698 Q494.121 187.865 494.121 196.754 Q494.121 205.689 489.398 209.879 Q484.676 214.069 474.676 214.069 L465.07 214.069 L465.07 179.509 Z" fill="#000000" fill-rule="nonzero" fill-opacity="1" /><path clip-path="url(#clip500)" d="M501.389 188.143 L505.648 188.143 L505.648 214.069 L501.389 214.069 L501.389 188.143 M501.389 178.05 L505.648 178.05 L505.648 183.444 L501.389 183.444 L501.389 178.05 Z" fill="#000000" fill-rule="nonzero" fill-opacity="1" /><path clip-path="url(#clip500)" d="M531.088 188.907 L531.088 192.934 Q529.282 192.009 527.338 191.546 Q525.394 191.083 523.31 191.083 Q520.139 191.083 518.542 192.055 Q516.968 193.027 516.968 194.971 Q516.968 196.453 518.102 197.309 Q519.236 198.143 522.662 198.907 L524.12 199.231 Q528.657 200.203 530.556 201.985 Q532.477 203.745 532.477 206.916 Q532.477 210.527 529.607 212.633 Q526.759 214.74 521.759 214.74 Q519.676 214.74 517.408 214.323 Q515.162 213.93 512.662 213.12 L512.662 208.721 Q515.023 209.948 517.315 210.573 Q519.607 211.175 521.852 211.175 Q524.861 211.175 526.482 210.157 Q528.102 209.115 528.102 207.24 Q528.102 205.504 526.921 204.578 Q525.764 203.652 521.806 202.796 L520.324 202.448 Q516.366 201.615 514.607 199.902 Q512.847 198.166 512.847 195.157 Q512.847 191.499 515.44 189.509 Q518.033 187.518 522.801 187.518 Q525.162 187.518 527.245 187.865 Q529.329 188.212 531.088 188.907 Z" fill="#000000" fill-rule="nonzero" fill-opacity="1" /><path clip-path="url(#clip500)" d="M543.472 180.782 L543.472 188.143 L552.245 188.143 L552.245 191.453 L543.472 191.453 L543.472 205.527 Q543.472 208.698 544.329 209.601 Q545.208 210.504 547.87 210.504 L552.245 210.504 L552.245 214.069 L547.87 214.069 Q542.94 214.069 541.065 212.24 Q539.19 210.388 539.19 205.527 L539.19 191.453 L536.065 191.453 L536.065 188.143 L539.19 188.143 L539.19 180.782 L543.472 180.782 Z" fill="#000000" fill-rule="nonzero" fill-opacity="1" /><path clip-path="url(#clip500)" d="M572.87 192.124 Q572.153 191.708 571.296 191.522 Q570.463 191.314 569.444 191.314 Q565.833 191.314 563.889 193.675 Q561.967 196.013 561.967 200.411 L561.967 214.069 L557.685 214.069 L557.685 188.143 L561.967 188.143 L561.967 192.171 Q563.31 189.809 565.463 188.675 Q567.616 187.518 570.694 187.518 Q571.134 187.518 571.666 187.587 Q572.199 187.634 572.847 187.749 L572.87 192.124 Z" fill="#000000" fill-rule="nonzero" fill-opacity="1" /><path clip-path="url(#clip500)" d="M577.338 188.143 L581.597 188.143 L581.597 214.069 L577.338 214.069 L577.338 188.143 M577.338 178.05 L581.597 178.05 L581.597 183.444 L577.338 183.444 L577.338 178.05 Z" fill="#000000" fill-rule="nonzero" fill-opacity="1" /><path clip-path="url(#clip500)" d="M609.12 201.129 Q609.12 196.43 607.176 193.768 Q605.254 191.083 601.875 191.083 Q598.495 191.083 596.551 193.768 Q594.629 196.43 594.629 201.129 Q594.629 205.828 596.551 208.513 Q598.495 211.175 601.875 211.175 Q605.254 211.175 607.176 208.513 Q609.12 205.828 609.12 201.129 M594.629 192.078 Q595.972 189.763 598.009 188.652 Q600.069 187.518 602.916 187.518 Q607.639 187.518 610.578 191.268 Q613.541 195.018 613.541 201.129 Q613.541 207.24 610.578 210.99 Q607.639 214.74 602.916 214.74 Q600.069 214.74 598.009 213.629 Q595.972 212.495 594.629 210.18 L594.629 214.069 L590.347 214.069 L590.347 178.05 L594.629 178.05 L594.629 192.078 Z" fill="#000000" fill-rule="nonzero" fill-opacity="1" /><path clip-path="url(#clip500)" d="M620.162 203.837 L620.162 188.143 L624.421 188.143 L624.421 203.675 Q624.421 207.356 625.856 209.208 Q627.291 211.036 630.162 211.036 Q633.611 211.036 635.601 208.837 Q637.615 206.638 637.615 202.842 L637.615 188.143 L641.874 188.143 L641.874 214.069 L637.615 214.069 L637.615 210.087 Q636.064 212.448 634.004 213.606 Q631.967 214.74 629.259 214.74 Q624.791 214.74 622.476 211.962 Q620.162 209.184 620.162 203.837 M630.879 187.518 L630.879 187.518 Z" fill="#000000" fill-rule="nonzero" fill-opacity="1" /><path clip-path="url(#clip500)" d="M654.86 180.782 L654.86 188.143 L663.634 188.143 L663.634 191.453 L654.86 191.453 L654.86 205.527 Q654.86 208.698 655.717 209.601 Q656.597 210.504 659.259 210.504 L663.634 210.504 L663.634 214.069 L659.259 214.069 Q654.328 214.069 652.453 212.24 Q650.578 210.388 650.578 205.527 L650.578 191.453 L647.453 191.453 L647.453 188.143 L650.578 188.143 L650.578 180.782 L654.86 180.782 Z" fill="#000000" fill-rule="nonzero" fill-opacity="1" /><path clip-path="url(#clip500)" d="M669.235 188.143 L673.495 188.143 L673.495 214.069 L669.235 214.069 L669.235 188.143 M669.235 178.05 L673.495 178.05 L673.495 183.444 L669.235 183.444 L669.235 178.05 Z" fill="#000000" fill-rule="nonzero" fill-opacity="1" /><path clip-path="url(#clip500)" d="M692.453 191.129 Q689.027 191.129 687.036 193.814 Q685.046 196.476 685.046 201.129 Q685.046 205.782 687.013 208.467 Q689.004 211.129 692.453 211.129 Q695.856 211.129 697.846 208.444 Q699.837 205.758 699.837 201.129 Q699.837 196.522 697.846 193.837 Q695.856 191.129 692.453 191.129 M692.453 187.518 Q698.008 187.518 701.18 191.129 Q704.351 194.74 704.351 201.129 Q704.351 207.495 701.18 211.129 Q698.008 214.74 692.453 214.74 Q686.874 214.74 683.703 211.129 Q680.555 207.495 680.555 201.129 Q680.555 194.74 683.703 191.129 Q686.874 187.518 692.453 187.518 Z" fill="#000000" fill-rule="nonzero" fill-opacity="1" /><path clip-path="url(#clip500)" d="M732.962 198.421 L732.962 214.069 L728.703 214.069 L728.703 198.559 Q728.703 194.879 727.268 193.05 Q725.832 191.222 722.962 191.222 Q719.513 191.222 717.522 193.421 Q715.531 195.62 715.531 199.416 L715.531 214.069 L711.249 214.069 L711.249 188.143 L715.531 188.143 L715.531 192.171 Q717.059 189.833 719.119 188.675 Q721.203 187.518 723.911 187.518 Q728.379 187.518 730.67 190.296 Q732.962 193.05 732.962 198.421 Z" fill="#000000" fill-rule="nonzero" fill-opacity="1" /><path clip-path="url(#clip500)" d="M769.652 178.05 L769.652 181.592 L765.577 181.592 Q763.286 181.592 762.383 182.518 Q761.503 183.444 761.503 185.851 L761.503 188.143 L768.517 188.143 L768.517 191.453 L761.503 191.453 L761.503 214.069 L757.221 214.069 L757.221 191.453 L753.147 191.453 L753.147 188.143 L757.221 188.143 L757.221 186.337 Q757.221 182.009 759.235 180.041 Q761.249 178.05 765.624 178.05 L769.652 178.05 Z" fill="#000000" fill-rule="nonzero" fill-opacity="1" /><path clip-path="url(#clip500)" d="M773.216 188.143 L777.476 188.143 L777.476 214.069 L773.216 214.069 L773.216 188.143 M773.216 178.05 L777.476 178.05 L777.476 183.444 L773.216 183.444 L773.216 178.05 Z" fill="#000000" fill-rule="nonzero" fill-opacity="1" /><path clip-path="url(#clip500)" d="M790.6 180.782 L790.6 188.143 L799.374 188.143 L799.374 191.453 L790.6 191.453 L790.6 205.527 Q790.6 208.698 791.457 209.601 Q792.337 210.504 794.999 210.504 L799.374 210.504 L799.374 214.069 L794.999 214.069 Q790.068 214.069 788.193 212.24 Q786.318 210.388 786.318 205.527 L786.318 191.453 L783.193 191.453 L783.193 188.143 L786.318 188.143 L786.318 180.782 L790.6 180.782 Z" fill="#000000" fill-rule="nonzero" fill-opacity="1" /></svg>
