<?xml version="1.0" encoding="utf-8"?>
<svg xmlns="http://www.w3.org/2000/svg" xmlns:xlink="http://www.w3.org/1999/xlink" width="600" height="400" viewBox="0 0 2400 1600">
<defs>
  <clipPath id="clip640">
    <rect x="0" y="0" width="2400" height="1600"/>
  </clipPath>
</defs>
<path clip-path="url(#clip640)" d="M0 1600 L2400 1600 L2400 8.88178e-14 L0 8.88178e-14  Z" fill="#ffffff" fill-rule="evenodd" fill-opacity="1"/>
<defs>
  <clipPath id="clip641">
    <rect x="279" y="47" width="2074" height="1507"/>
  </clipPath>
</defs>
<path clip-path="url(#clip640)" d="M247.459 1423.18 L2352.76 1423.18 L2352.76 47.2441 L247.459 47.2441  Z" fill="#ffffff" fill-rule="evenodd" fill-opacity="1"/>
<defs>
  <clipPath id="clip642">
    <rect x="247" y="47" width="2106" height="1377"/>
  </clipPath>
</defs>
<polyline clip-path="url(#clip642)" style="stroke:#000000; stroke-linecap:round; stroke-linejoin:round; stroke-width:2; stroke-opacity:0.1; fill:none" points="319.619,1423.18 319.619,47.2441 "/>
<polyline clip-path="url(#clip642)" style="stroke:#000000; stroke-linecap:round; stroke-linejoin:round; stroke-width:2; stroke-opacity:0.1; fill:none" points="956.053,1423.18 956.053,47.2441 "/>
<polyline clip-path="url(#clip642)" style="stroke:#000000; stroke-linecap:round; stroke-linejoin:round; stroke-width:2; stroke-opacity:0.1; fill:none" points="1592.49,1423.18 1592.49,47.2441 "/>
<polyline clip-path="url(#clip642)" style="stroke:#000000; stroke-linecap:round; stroke-linejoin:round; stroke-width:2; stroke-opacity:0.1; fill:none" points="2228.92,1423.18 2228.92,47.2441 "/>
<polyline clip-path="url(#clip642)" style="stroke:#000000; stroke-linecap:round; stroke-linejoin:round; stroke-width:2; stroke-opacity:0.1; fill:none" points="319.619,1423.18 319.619,47.2441 "/>
<polyline clip-path="url(#clip642)" style="stroke:#000000; stroke-linecap:round; stroke-linejoin:round; stroke-width:2; stroke-opacity:0.1; fill:none" points="956.053,1423.18 956.053,47.2441 "/>
<polyline clip-path="url(#clip642)" style="stroke:#000000; stroke-linecap:round; stroke-linejoin:round; stroke-width:2; stroke-opacity:0.1; fill:none" points="1592.49,1423.18 1592.49,47.2441 "/>
<polyline clip-path="url(#clip642)" style="stroke:#000000; stroke-linecap:round; stroke-linejoin:round; stroke-width:2; stroke-opacity:0.1; fill:none" points="2228.92,1423.18 2228.92,47.2441 "/>
<polyline clip-path="url(#clip642)" style="stroke:#000000; stroke-linecap:round; stroke-linejoin:round; stroke-width:2; stroke-opacity:0.1; fill:none" points="247.459,1384.25 2352.76,1384.25 "/>
<polyline clip-path="url(#clip642)" style="stroke:#000000; stroke-linecap:round; stroke-linejoin:round; stroke-width:2; stroke-opacity:0.1; fill:none" points="247.459,1102.48 2352.76,1102.48 "/>
<polyline clip-path="url(#clip642)" style="stroke:#000000; stroke-linecap:round; stroke-linejoin:round; stroke-width:2; stroke-opacity:0.1; fill:none" points="247.459,820.718 2352.76,820.718 "/>
<polyline clip-path="url(#clip642)" style="stroke:#000000; stroke-linecap:round; stroke-linejoin:round; stroke-width:2; stroke-opacity:0.1; fill:none" points="247.459,538.953 2352.76,538.953 "/>
<polyline clip-path="url(#clip642)" style="stroke:#000000; stroke-linecap:round; stroke-linejoin:round; stroke-width:2; stroke-opacity:0.1; fill:none" points="247.459,257.187 2352.76,257.187 "/>
<polyline clip-path="url(#clip642)" style="stroke:#000000; stroke-linecap:round; stroke-linejoin:round; stroke-width:2; stroke-opacity:0.1; fill:none" points="247.459,1384.25 2352.76,1384.25 "/>
<polyline clip-path="url(#clip642)" style="stroke:#000000; stroke-linecap:round; stroke-linejoin:round; stroke-width:2; stroke-opacity:0.1; fill:none" points="247.459,1102.48 2352.76,1102.48 "/>
<polyline clip-path="url(#clip642)" style="stroke:#000000; stroke-linecap:round; stroke-linejoin:round; stroke-width:2; stroke-opacity:0.1; fill:none" points="247.459,820.718 2352.76,820.718 "/>
<polyline clip-path="url(#clip642)" style="stroke:#000000; stroke-linecap:round; stroke-linejoin:round; stroke-width:2; stroke-opacity:0.1; fill:none" points="247.459,538.953 2352.76,538.953 "/>
<polyline clip-path="url(#clip642)" style="stroke:#000000; stroke-linecap:round; stroke-linejoin:round; stroke-width:2; stroke-opacity:0.1; fill:none" points="247.459,257.187 2352.76,257.187 "/>
<polyline clip-path="url(#clip640)" style="stroke:#000000; stroke-linecap:round; stroke-linejoin:round; stroke-width:4; stroke-opacity:1; fill:none" points="247.459,1423.18 2352.76,1423.18 "/>
<polyline clip-path="url(#clip640)" style="stroke:#000000; stroke-linecap:round; stroke-linejoin:round; stroke-width:4; stroke-opacity:1; fill:none" points="247.459,47.2441 2352.76,47.2441 "/>
<polyline clip-path="url(#clip640)" style="stroke:#000000; stroke-linecap:round; stroke-linejoin:round; stroke-width:4; stroke-opacity:1; fill:none" points="319.619,1423.18 319.619,1404.28 "/>
<polyline clip-path="url(#clip640)" style="stroke:#000000; stroke-linecap:round; stroke-linejoin:round; stroke-width:4; stroke-opacity:1; fill:none" points="956.053,1423.18 956.053,1404.28 "/>
<polyline clip-path="url(#clip640)" style="stroke:#000000; stroke-linecap:round; stroke-linejoin:round; stroke-width:4; stroke-opacity:1; fill:none" points="1592.49,1423.18 1592.49,1404.28 "/>
<polyline clip-path="url(#clip640)" style="stroke:#000000; stroke-linecap:round; stroke-linejoin:round; stroke-width:4; stroke-opacity:1; fill:none" points="2228.92,1423.18 2228.92,1404.28 "/>
<polyline clip-path="url(#clip640)" style="stroke:#000000; stroke-linecap:round; stroke-linejoin:round; stroke-width:4; stroke-opacity:1; fill:none" points="319.619,47.2441 319.619,66.1417 "/>
<polyline clip-path="url(#clip640)" style="stroke:#000000; stroke-linecap:round; stroke-linejoin:round; stroke-width:4; stroke-opacity:1; fill:none" points="956.053,47.2441 956.053,66.1417 "/>
<polyline clip-path="url(#clip640)" style="stroke:#000000; stroke-linecap:round; stroke-linejoin:round; stroke-width:4; stroke-opacity:1; fill:none" points="1592.49,47.2441 1592.49,66.1417 "/>
<polyline clip-path="url(#clip640)" style="stroke:#000000; stroke-linecap:round; stroke-linejoin:round; stroke-width:4; stroke-opacity:1; fill:none" points="2228.92,47.2441 2228.92,66.1417 "/>
<path clip-path="url(#clip640)" d="M283.208 1466.44 Q280.06 1466.44 278.208 1468.59 Q276.379 1470.74 276.379 1474.49 Q276.379 1478.22 278.208 1480.39 Q280.06 1482.55 283.208 1482.55 Q286.356 1482.55 288.184 1480.39 Q290.036 1478.22 290.036 1474.49 Q290.036 1470.74 288.184 1468.59 Q286.356 1466.44 283.208 1466.44 M292.49 1451.78 L292.49 1456.04 Q290.731 1455.21 288.925 1454.77 Q287.143 1454.33 285.384 1454.33 Q280.754 1454.33 278.3 1457.45 Q275.87 1460.58 275.523 1466.9 Q276.888 1464.89 278.948 1463.82 Q281.009 1462.73 283.485 1462.73 Q288.694 1462.73 291.703 1465.9 Q294.735 1469.05 294.735 1474.49 Q294.735 1479.82 291.587 1483.03 Q288.439 1486.25 283.208 1486.25 Q277.212 1486.25 274.041 1481.67 Q270.87 1477.06 270.87 1468.33 Q270.87 1460.14 274.759 1455.28 Q278.647 1450.39 285.198 1450.39 Q286.958 1450.39 288.74 1450.74 Q290.546 1451.09 292.49 1451.78 Z" fill="#000000" fill-rule="nonzero" fill-opacity="1" /><path clip-path="url(#clip640)" d="M302.837 1451.02 L321.194 1451.02 L321.194 1454.96 L307.12 1454.96 L307.12 1463.43 Q308.138 1463.08 309.157 1462.92 Q310.175 1462.73 311.194 1462.73 Q316.981 1462.73 320.36 1465.9 Q323.74 1469.08 323.74 1474.49 Q323.74 1480.07 320.268 1483.17 Q316.795 1486.25 310.476 1486.25 Q308.3 1486.25 306.032 1485.88 Q303.786 1485.51 301.379 1484.77 L301.379 1480.07 Q303.462 1481.2 305.684 1481.76 Q307.907 1482.32 310.383 1482.32 Q314.388 1482.32 316.726 1480.21 Q319.064 1478.1 319.064 1474.49 Q319.064 1470.88 316.726 1468.77 Q314.388 1466.67 310.383 1466.67 Q308.508 1466.67 306.633 1467.08 Q304.782 1467.5 302.837 1468.38 L302.837 1451.02 Z" fill="#000000" fill-rule="nonzero" fill-opacity="1" /><path clip-path="url(#clip640)" d="M332.953 1479.7 L337.837 1479.7 L337.837 1485.58 L332.953 1485.58 L332.953 1479.7 Z" fill="#000000" fill-rule="nonzero" fill-opacity="1" /><path clip-path="url(#clip640)" d="M352.05 1481.64 L368.369 1481.64 L368.369 1485.58 L346.425 1485.58 L346.425 1481.64 Q349.087 1478.89 353.67 1474.26 Q358.277 1469.61 359.457 1468.27 Q361.703 1465.74 362.582 1464.01 Q363.485 1462.25 363.485 1460.56 Q363.485 1457.8 361.541 1456.07 Q359.619 1454.33 356.517 1454.33 Q354.318 1454.33 351.865 1455.09 Q349.434 1455.86 346.656 1457.41 L346.656 1452.69 Q349.48 1451.55 351.934 1450.97 Q354.388 1450.39 356.425 1450.39 Q361.795 1450.39 364.99 1453.08 Q368.184 1455.77 368.184 1460.26 Q368.184 1462.39 367.374 1464.31 Q366.587 1466.2 364.48 1468.8 Q363.902 1469.47 360.8 1472.69 Q357.698 1475.88 352.05 1481.64 Z" fill="#000000" fill-rule="nonzero" fill-opacity="1" /><path clip-path="url(#clip640)" d="M919.166 1466.44 Q916.018 1466.44 914.166 1468.59 Q912.337 1470.74 912.337 1474.49 Q912.337 1478.22 914.166 1480.39 Q916.018 1482.55 919.166 1482.55 Q922.314 1482.55 924.143 1480.39 Q925.995 1478.22 925.995 1474.49 Q925.995 1470.74 924.143 1468.59 Q922.314 1466.44 919.166 1466.44 M928.449 1451.78 L928.449 1456.04 Q926.689 1455.21 924.884 1454.77 Q923.101 1454.33 921.342 1454.33 Q916.712 1454.33 914.259 1457.45 Q911.828 1460.58 911.481 1466.9 Q912.847 1464.89 914.907 1463.82 Q916.967 1462.73 919.444 1462.73 Q924.652 1462.73 927.661 1465.9 Q930.694 1469.05 930.694 1474.49 Q930.694 1479.82 927.546 1483.03 Q924.398 1486.25 919.166 1486.25 Q913.171 1486.25 910 1481.67 Q906.828 1477.06 906.828 1468.33 Q906.828 1460.14 910.717 1455.28 Q914.606 1450.39 921.157 1450.39 Q922.916 1450.39 924.699 1450.74 Q926.504 1451.09 928.449 1451.78 Z" fill="#000000" fill-rule="nonzero" fill-opacity="1" /><path clip-path="url(#clip640)" d="M938.796 1451.02 L957.152 1451.02 L957.152 1454.96 L943.078 1454.96 L943.078 1463.43 Q944.097 1463.08 945.115 1462.92 Q946.134 1462.73 947.152 1462.73 Q952.939 1462.73 956.319 1465.9 Q959.698 1469.08 959.698 1474.49 Q959.698 1480.07 956.226 1483.17 Q952.754 1486.25 946.435 1486.25 Q944.259 1486.25 941.99 1485.88 Q939.745 1485.51 937.337 1484.77 L937.337 1480.07 Q939.421 1481.2 941.643 1481.76 Q943.865 1482.32 946.342 1482.32 Q950.347 1482.32 952.684 1480.21 Q955.022 1478.1 955.022 1474.49 Q955.022 1470.88 952.684 1468.77 Q950.347 1466.67 946.342 1466.67 Q944.467 1466.67 942.592 1467.08 Q940.74 1467.5 938.796 1468.38 L938.796 1451.02 Z" fill="#000000" fill-rule="nonzero" fill-opacity="1" /><path clip-path="url(#clip640)" d="M968.911 1479.7 L973.795 1479.7 L973.795 1485.58 L968.911 1485.58 L968.911 1479.7 Z" fill="#000000" fill-rule="nonzero" fill-opacity="1" /><path clip-path="url(#clip640)" d="M998.147 1466.95 Q1001.5 1467.66 1003.38 1469.93 Q1005.28 1472.2 1005.28 1475.53 Q1005.28 1480.65 1001.76 1483.45 Q998.24 1486.25 991.758 1486.25 Q989.582 1486.25 987.268 1485.81 Q984.976 1485.39 982.522 1484.54 L982.522 1480.02 Q984.467 1481.16 986.782 1481.74 Q989.096 1482.32 991.619 1482.32 Q996.018 1482.32 998.309 1480.58 Q1000.62 1478.84 1000.62 1475.53 Q1000.62 1472.48 998.471 1470.77 Q996.342 1469.03 992.522 1469.03 L988.494 1469.03 L988.494 1465.19 L992.707 1465.19 Q996.156 1465.19 997.985 1463.82 Q999.814 1462.43 999.814 1459.84 Q999.814 1457.18 997.916 1455.77 Q996.041 1454.33 992.522 1454.33 Q990.601 1454.33 988.402 1454.75 Q986.203 1455.16 983.564 1456.04 L983.564 1451.88 Q986.226 1451.14 988.541 1450.77 Q990.879 1450.39 992.939 1450.39 Q998.263 1450.39 1001.36 1452.83 Q1004.47 1455.23 1004.47 1459.35 Q1004.47 1462.22 1002.82 1464.21 Q1001.18 1466.18 998.147 1466.95 Z" fill="#000000" fill-rule="nonzero" fill-opacity="1" /><path clip-path="url(#clip640)" d="M1555.03 1466.44 Q1551.88 1466.44 1550.03 1468.59 Q1548.2 1470.74 1548.2 1474.49 Q1548.2 1478.22 1550.03 1480.39 Q1551.88 1482.55 1555.03 1482.55 Q1558.18 1482.55 1560.01 1480.39 Q1561.86 1478.22 1561.86 1474.49 Q1561.86 1470.74 1560.01 1468.59 Q1558.18 1466.44 1555.03 1466.44 M1564.31 1451.78 L1564.31 1456.04 Q1562.56 1455.21 1560.75 1454.77 Q1558.97 1454.33 1557.21 1454.33 Q1552.58 1454.33 1550.12 1457.45 Q1547.69 1460.58 1547.35 1466.9 Q1548.71 1464.89 1550.77 1463.82 Q1552.83 1462.73 1555.31 1462.73 Q1560.52 1462.73 1563.53 1465.9 Q1566.56 1469.05 1566.56 1474.49 Q1566.56 1479.82 1563.41 1483.03 Q1560.26 1486.25 1555.03 1486.25 Q1549.04 1486.25 1545.87 1481.67 Q1542.69 1477.06 1542.69 1468.33 Q1542.69 1460.14 1546.58 1455.28 Q1550.47 1450.39 1557.02 1450.39 Q1558.78 1450.39 1560.56 1450.74 Q1562.37 1451.09 1564.31 1451.78 Z" fill="#000000" fill-rule="nonzero" fill-opacity="1" /><path clip-path="url(#clip640)" d="M1574.66 1451.02 L1593.02 1451.02 L1593.02 1454.96 L1578.94 1454.96 L1578.94 1463.43 Q1579.96 1463.08 1580.98 1462.92 Q1582 1462.73 1583.02 1462.73 Q1588.81 1462.73 1592.18 1465.9 Q1595.56 1469.08 1595.56 1474.49 Q1595.56 1480.07 1592.09 1483.17 Q1588.62 1486.25 1582.3 1486.25 Q1580.12 1486.25 1577.86 1485.88 Q1575.61 1485.51 1573.2 1484.77 L1573.2 1480.07 Q1575.29 1481.2 1577.51 1481.76 Q1579.73 1482.32 1582.21 1482.32 Q1586.21 1482.32 1588.55 1480.21 Q1590.89 1478.1 1590.89 1474.49 Q1590.89 1470.88 1588.55 1468.77 Q1586.21 1466.67 1582.21 1466.67 Q1580.33 1466.67 1578.46 1467.08 Q1576.61 1467.5 1574.66 1468.38 L1574.66 1451.02 Z" fill="#000000" fill-rule="nonzero" fill-opacity="1" /><path clip-path="url(#clip640)" d="M1604.78 1479.7 L1609.66 1479.7 L1609.66 1485.58 L1604.78 1485.58 L1604.78 1479.7 Z" fill="#000000" fill-rule="nonzero" fill-opacity="1" /><path clip-path="url(#clip640)" d="M1632.69 1455.09 L1620.89 1473.54 L1632.69 1473.54 L1632.69 1455.09 M1631.47 1451.02 L1637.35 1451.02 L1637.35 1473.54 L1642.28 1473.54 L1642.28 1477.43 L1637.35 1477.43 L1637.35 1485.58 L1632.69 1485.58 L1632.69 1477.43 L1617.09 1477.43 L1617.09 1472.92 L1631.47 1451.02 Z" fill="#000000" fill-rule="nonzero" fill-opacity="1" /><path clip-path="url(#clip640)" d="M2192.21 1466.44 Q2189.06 1466.44 2187.21 1468.59 Q2185.38 1470.74 2185.38 1474.49 Q2185.38 1478.22 2187.21 1480.39 Q2189.06 1482.55 2192.21 1482.55 Q2195.35 1482.55 2197.18 1480.39 Q2199.03 1478.22 2199.03 1474.49 Q2199.03 1470.74 2197.18 1468.59 Q2195.35 1466.44 2192.21 1466.44 M2201.49 1451.78 L2201.49 1456.04 Q2199.73 1455.21 2197.92 1454.77 Q2196.14 1454.33 2194.38 1454.33 Q2189.75 1454.33 2187.3 1457.45 Q2184.87 1460.58 2184.52 1466.9 Q2185.89 1464.89 2187.95 1463.82 Q2190.01 1462.73 2192.48 1462.73 Q2197.69 1462.73 2200.7 1465.9 Q2203.73 1469.05 2203.73 1474.49 Q2203.73 1479.82 2200.59 1483.03 Q2197.44 1486.25 2192.21 1486.25 Q2186.21 1486.25 2183.04 1481.67 Q2179.87 1477.06 2179.87 1468.33 Q2179.87 1460.14 2183.76 1455.28 Q2187.65 1450.39 2194.2 1450.39 Q2195.96 1450.39 2197.74 1450.74 Q2199.54 1451.09 2201.49 1451.78 Z" fill="#000000" fill-rule="nonzero" fill-opacity="1" /><path clip-path="url(#clip640)" d="M2211.84 1451.02 L2230.19 1451.02 L2230.19 1454.96 L2216.12 1454.96 L2216.12 1463.43 Q2217.14 1463.08 2218.15 1462.92 Q2219.17 1462.73 2220.19 1462.73 Q2225.98 1462.73 2229.36 1465.9 Q2232.74 1469.08 2232.74 1474.49 Q2232.74 1480.07 2229.27 1483.17 Q2225.79 1486.25 2219.47 1486.25 Q2217.3 1486.25 2215.03 1485.88 Q2212.78 1485.51 2210.38 1484.77 L2210.38 1480.07 Q2212.46 1481.2 2214.68 1481.76 Q2216.9 1482.32 2219.38 1482.32 Q2223.39 1482.32 2225.72 1480.21 Q2228.06 1478.1 2228.06 1474.49 Q2228.06 1470.88 2225.72 1468.77 Q2223.39 1466.67 2219.38 1466.67 Q2217.51 1466.67 2215.63 1467.08 Q2213.78 1467.5 2211.84 1468.38 L2211.84 1451.02 Z" fill="#000000" fill-rule="nonzero" fill-opacity="1" /><path clip-path="url(#clip640)" d="M2241.95 1479.7 L2246.84 1479.7 L2246.84 1485.58 L2241.95 1485.58 L2241.95 1479.7 Z" fill="#000000" fill-rule="nonzero" fill-opacity="1" /><path clip-path="url(#clip640)" d="M2257.07 1451.02 L2275.42 1451.02 L2275.42 1454.96 L2261.35 1454.96 L2261.35 1463.43 Q2262.37 1463.08 2263.39 1462.92 Q2264.4 1462.73 2265.42 1462.73 Q2271.21 1462.73 2274.59 1465.9 Q2277.97 1469.08 2277.97 1474.49 Q2277.97 1480.07 2274.5 1483.17 Q2271.02 1486.25 2264.71 1486.25 Q2262.53 1486.25 2260.26 1485.88 Q2258.02 1485.51 2255.61 1484.77 L2255.61 1480.07 Q2257.69 1481.2 2259.91 1481.76 Q2262.14 1482.32 2264.61 1482.32 Q2268.62 1482.32 2270.96 1480.21 Q2273.29 1478.1 2273.29 1474.49 Q2273.29 1470.88 2270.96 1468.77 Q2268.62 1466.67 2264.61 1466.67 Q2262.74 1466.67 2260.86 1467.08 Q2259.01 1467.5 2257.07 1468.38 L2257.07 1451.02 Z" fill="#000000" fill-rule="nonzero" fill-opacity="1" /><path clip-path="url(#clip640)" d="M1178.01 1526.86 L1169.29 1550.51 L1186.77 1550.51 L1178.01 1526.86 M1174.38 1520.52 L1181.67 1520.52 L1199.78 1568.04 L1193.1 1568.04 L1188.77 1555.85 L1167.35 1555.85 L1163.02 1568.04 L1156.24 1568.04 L1174.38 1520.52 Z" fill="#000000" fill-rule="nonzero" fill-opacity="1" /><path clip-path="url(#clip640)" d="M1229.93 1549.81 Q1229.93 1543.44 1227.28 1539.94 Q1224.67 1536.44 1219.93 1536.44 Q1215.22 1536.44 1212.58 1539.94 Q1209.97 1543.44 1209.97 1549.81 Q1209.97 1556.14 1212.58 1559.64 Q1215.22 1563.14 1219.93 1563.14 Q1224.67 1563.14 1227.28 1559.64 Q1229.93 1556.14 1229.93 1549.81 M1235.78 1563.62 Q1235.78 1572.72 1231.74 1577.15 Q1227.7 1581.6 1219.36 1581.6 Q1216.27 1581.6 1213.53 1581.13 Q1210.8 1580.68 1208.22 1579.72 L1208.22 1574.03 Q1210.8 1575.43 1213.31 1576.1 Q1215.83 1576.76 1218.44 1576.76 Q1224.2 1576.76 1227.06 1573.74 Q1229.93 1570.75 1229.93 1564.67 L1229.93 1561.77 Q1228.11 1564.92 1225.28 1566.48 Q1222.45 1568.04 1218.5 1568.04 Q1211.94 1568.04 1207.93 1563.05 Q1203.92 1558.05 1203.92 1549.81 Q1203.92 1541.53 1207.93 1536.53 Q1211.94 1531.54 1218.5 1531.54 Q1222.45 1531.54 1225.28 1533.1 Q1228.11 1534.66 1229.93 1537.81 L1229.93 1532.4 L1235.78 1532.4 L1235.78 1563.62 Z" fill="#000000" fill-rule="nonzero" fill-opacity="1" /><path clip-path="url(#clip640)" d="M1278.34 1548.76 L1278.34 1551.62 L1251.41 1551.62 Q1251.79 1557.67 1255.04 1560.85 Q1258.32 1564 1264.14 1564 Q1267.51 1564 1270.67 1563.17 Q1273.85 1562.35 1276.97 1560.69 L1276.97 1566.23 Q1273.82 1567.57 1270.51 1568.27 Q1267.2 1568.97 1263.79 1568.97 Q1255.26 1568.97 1250.26 1564 Q1245.3 1559.04 1245.3 1550.57 Q1245.3 1541.82 1250.01 1536.69 Q1254.75 1531.54 1262.77 1531.54 Q1269.97 1531.54 1274.14 1536.18 Q1278.34 1540.8 1278.34 1548.76 M1272.48 1547.04 Q1272.42 1542.23 1269.77 1539.37 Q1267.16 1536.5 1262.84 1536.5 Q1257.93 1536.5 1254.97 1539.27 Q1252.05 1542.04 1251.6 1547.07 L1272.48 1547.04 Z" fill="#000000" fill-rule="nonzero" fill-opacity="1" /><path clip-path="url(#clip640)" d="M1322.74 1518.58 Q1318.47 1525.9 1316.4 1533.06 Q1314.33 1540.23 1314.33 1547.58 Q1314.33 1554.93 1316.4 1562.16 Q1318.5 1569.35 1322.74 1576.64 L1317.64 1576.64 Q1312.87 1569.16 1310.48 1561.93 Q1308.13 1554.71 1308.13 1547.58 Q1308.13 1540.48 1310.48 1533.29 Q1312.84 1526.09 1317.64 1518.58 L1322.74 1518.58 Z" fill="#000000" fill-rule="nonzero" fill-opacity="1" /><path clip-path="url(#clip640)" d="M1334.35 1520.52 L1343.94 1520.52 L1356.06 1552.86 L1368.25 1520.52 L1377.83 1520.52 L1377.83 1568.04 L1371.56 1568.04 L1371.56 1526.32 L1359.31 1558.91 L1352.85 1558.91 L1340.59 1526.32 L1340.59 1568.04 L1334.35 1568.04 L1334.35 1520.52 Z" fill="#000000" fill-rule="nonzero" fill-opacity="1" /><path clip-path="url(#clip640)" d="M1406.54 1550.12 Q1399.44 1550.12 1396.71 1551.75 Q1393.97 1553.37 1393.97 1557.29 Q1393.97 1560.4 1396.01 1562.25 Q1398.08 1564.07 1401.61 1564.07 Q1406.48 1564.07 1409.41 1560.63 Q1412.37 1557.16 1412.37 1551.43 L1412.37 1550.12 L1406.54 1550.12 M1418.22 1547.71 L1418.22 1568.04 L1412.37 1568.04 L1412.37 1562.63 Q1410.36 1565.88 1407.37 1567.44 Q1404.38 1568.97 1400.05 1568.97 Q1394.57 1568.97 1391.33 1565.91 Q1388.11 1562.82 1388.11 1557.67 Q1388.11 1551.65 1392.12 1548.6 Q1396.17 1545.54 1404.15 1545.54 L1412.37 1545.54 L1412.37 1544.97 Q1412.37 1540.93 1409.69 1538.73 Q1407.05 1536.5 1402.25 1536.5 Q1399.19 1536.5 1396.29 1537.23 Q1393.4 1537.97 1390.72 1539.43 L1390.72 1534.02 Q1393.94 1532.78 1396.96 1532.17 Q1399.99 1531.54 1402.85 1531.54 Q1410.58 1531.54 1414.4 1535.55 Q1418.22 1539.56 1418.22 1547.71 Z" fill="#000000" fill-rule="nonzero" fill-opacity="1" /><path clip-path="url(#clip640)" d="M1429.36 1518.58 L1434.46 1518.58 Q1439.23 1526.09 1441.59 1533.29 Q1443.97 1540.48 1443.97 1547.58 Q1443.97 1554.71 1441.59 1561.93 Q1439.23 1569.16 1434.46 1576.64 L1429.36 1576.64 Q1433.6 1569.35 1435.67 1562.16 Q1437.77 1554.93 1437.77 1547.58 Q1437.77 1540.23 1435.67 1533.06 Q1433.6 1525.9 1429.36 1518.58 Z" fill="#000000" fill-rule="nonzero" fill-opacity="1" /><polyline clip-path="url(#clip640)" style="stroke:#000000; stroke-linecap:round; stroke-linejoin:round; stroke-width:4; stroke-opacity:1; fill:none" points="247.459,1423.18 247.459,47.2441 "/>
<polyline clip-path="url(#clip640)" style="stroke:#000000; stroke-linecap:round; stroke-linejoin:round; stroke-width:4; stroke-opacity:1; fill:none" points="2352.76,1423.18 2352.76,47.2441 "/>
<polyline clip-path="url(#clip640)" style="stroke:#000000; stroke-linecap:round; stroke-linejoin:round; stroke-width:4; stroke-opacity:1; fill:none" points="247.459,1384.25 266.356,1384.25 "/>
<polyline clip-path="url(#clip640)" style="stroke:#000000; stroke-linecap:round; stroke-linejoin:round; stroke-width:4; stroke-opacity:1; fill:none" points="247.459,1102.48 266.356,1102.48 "/>
<polyline clip-path="url(#clip640)" style="stroke:#000000; stroke-linecap:round; stroke-linejoin:round; stroke-width:4; stroke-opacity:1; fill:none" points="247.459,820.718 266.356,820.718 "/>
<polyline clip-path="url(#clip640)" style="stroke:#000000; stroke-linecap:round; stroke-linejoin:round; stroke-width:4; stroke-opacity:1; fill:none" points="247.459,538.953 266.356,538.953 "/>
<polyline clip-path="url(#clip640)" style="stroke:#000000; stroke-linecap:round; stroke-linejoin:round; stroke-width:4; stroke-opacity:1; fill:none" points="247.459,257.187 266.356,257.187 "/>
<polyline clip-path="url(#clip640)" style="stroke:#000000; stroke-linecap:round; stroke-linejoin:round; stroke-width:4; stroke-opacity:1; fill:none" points="2352.76,1384.25 2333.86,1384.25 "/>
<polyline clip-path="url(#clip640)" style="stroke:#000000; stroke-linecap:round; stroke-linejoin:round; stroke-width:4; stroke-opacity:1; fill:none" points="2352.76,1102.48 2333.86,1102.48 "/>
<polyline clip-path="url(#clip640)" style="stroke:#000000; stroke-linecap:round; stroke-linejoin:round; stroke-width:4; stroke-opacity:1; fill:none" points="2352.76,820.718 2333.86,820.718 "/>
<polyline clip-path="url(#clip640)" style="stroke:#000000; stroke-linecap:round; stroke-linejoin:round; stroke-width:4; stroke-opacity:1; fill:none" points="2352.76,538.953 2333.86,538.953 "/>
<polyline clip-path="url(#clip640)" style="stroke:#000000; stroke-linecap:round; stroke-linejoin:round; stroke-width:4; stroke-opacity:1; fill:none" points="2352.76,257.187 2333.86,257.187 "/>
<path clip-path="url(#clip640)" d="M154.283 1370.05 Q150.672 1370.05 148.843 1373.61 Q147.038 1377.15 147.038 1384.28 Q147.038 1391.39 148.843 1394.95 Q150.672 1398.5 154.283 1398.5 Q157.917 1398.5 159.723 1394.95 Q161.552 1391.39 161.552 1384.28 Q161.552 1377.15 159.723 1373.61 Q157.917 1370.05 154.283 1370.05 M154.283 1366.34 Q160.093 1366.34 163.149 1370.95 Q166.227 1375.53 166.227 1384.28 Q166.227 1393.01 163.149 1397.62 Q160.093 1402.2 154.283 1402.2 Q148.473 1402.2 145.394 1397.62 Q142.339 1393.01 142.339 1384.28 Q142.339 1375.53 145.394 1370.95 Q148.473 1366.34 154.283 1366.34 Z" fill="#000000" fill-rule="nonzero" fill-opacity="1" /><path clip-path="url(#clip640)" d="M174.445 1395.65 L179.329 1395.65 L179.329 1401.53 L174.445 1401.53 L174.445 1395.65 Z" fill="#000000" fill-rule="nonzero" fill-opacity="1" /><path clip-path="url(#clip640)" d="M199.514 1370.05 Q195.903 1370.05 194.075 1373.61 Q192.269 1377.15 192.269 1384.28 Q192.269 1391.39 194.075 1394.95 Q195.903 1398.5 199.514 1398.5 Q203.149 1398.5 204.954 1394.95 Q206.783 1391.39 206.783 1384.28 Q206.783 1377.15 204.954 1373.61 Q203.149 1370.05 199.514 1370.05 M199.514 1366.34 Q205.324 1366.34 208.38 1370.95 Q211.459 1375.53 211.459 1384.28 Q211.459 1393.01 208.38 1397.62 Q205.324 1402.2 199.514 1402.2 Q193.704 1402.2 190.625 1397.62 Q187.57 1393.01 187.57 1384.28 Q187.57 1375.53 190.625 1370.95 Q193.704 1366.34 199.514 1366.34 Z" fill="#000000" fill-rule="nonzero" fill-opacity="1" /><path clip-path="url(#clip640)" d="M149.306 1115.83 L165.626 1115.83 L165.626 1119.76 L143.681 1119.76 L143.681 1115.83 Q146.343 1113.07 150.927 1108.44 Q155.533 1103.79 156.714 1102.45 Q158.959 1099.92 159.839 1098.19 Q160.741 1096.43 160.741 1094.74 Q160.741 1091.99 158.797 1090.25 Q156.876 1088.51 153.774 1088.51 Q151.575 1088.51 149.121 1089.28 Q146.691 1090.04 143.913 1091.59 L143.913 1086.87 Q146.737 1085.74 149.191 1085.16 Q151.644 1084.58 153.681 1084.58 Q159.052 1084.58 162.246 1087.26 Q165.44 1089.95 165.44 1094.44 Q165.44 1096.57 164.63 1098.49 Q163.843 1100.39 161.737 1102.98 Q161.158 1103.65 158.056 1106.87 Q154.954 1110.06 149.306 1115.83 Z" fill="#000000" fill-rule="nonzero" fill-opacity="1" /><path clip-path="url(#clip640)" d="M175.44 1113.88 L180.325 1113.88 L180.325 1119.76 L175.44 1119.76 L175.44 1113.88 Z" fill="#000000" fill-rule="nonzero" fill-opacity="1" /><path clip-path="url(#clip640)" d="M190.556 1085.2 L208.912 1085.2 L208.912 1089.14 L194.838 1089.14 L194.838 1097.61 Q195.857 1097.26 196.875 1097.1 Q197.894 1096.92 198.912 1096.92 Q204.699 1096.92 208.079 1100.09 Q211.459 1103.26 211.459 1108.67 Q211.459 1114.25 207.987 1117.36 Q204.514 1120.43 198.195 1120.43 Q196.019 1120.43 193.75 1120.06 Q191.505 1119.69 189.098 1118.95 L189.098 1114.25 Q191.181 1115.39 193.403 1115.94 Q195.625 1116.5 198.102 1116.5 Q202.107 1116.5 204.445 1114.39 Q206.783 1112.29 206.783 1108.67 Q206.783 1105.06 204.445 1102.96 Q202.107 1100.85 198.102 1100.85 Q196.227 1100.85 194.352 1101.27 Q192.5 1101.68 190.556 1102.56 L190.556 1085.2 Z" fill="#000000" fill-rule="nonzero" fill-opacity="1" /><path clip-path="url(#clip640)" d="M144.329 803.438 L162.686 803.438 L162.686 807.373 L148.612 807.373 L148.612 815.845 Q149.63 815.498 150.649 815.336 Q151.667 815.151 152.686 815.151 Q158.473 815.151 161.852 818.322 Q165.232 821.493 165.232 826.91 Q165.232 832.488 161.76 835.59 Q158.288 838.669 151.968 838.669 Q149.792 838.669 147.524 838.299 Q145.279 837.928 142.871 837.187 L142.871 832.488 Q144.954 833.623 147.177 834.178 Q149.399 834.734 151.876 834.734 Q155.88 834.734 158.218 832.627 Q160.556 830.521 160.556 826.91 Q160.556 823.299 158.218 821.192 Q155.88 819.086 151.876 819.086 Q150.001 819.086 148.126 819.502 Q146.274 819.919 144.329 820.799 L144.329 803.438 Z" fill="#000000" fill-rule="nonzero" fill-opacity="1" /><path clip-path="url(#clip640)" d="M174.445 832.118 L179.329 832.118 L179.329 837.998 L174.445 837.998 L174.445 832.118 Z" fill="#000000" fill-rule="nonzero" fill-opacity="1" /><path clip-path="url(#clip640)" d="M199.514 806.516 Q195.903 806.516 194.075 810.081 Q192.269 813.623 192.269 820.752 Q192.269 827.859 194.075 831.424 Q195.903 834.965 199.514 834.965 Q203.149 834.965 204.954 831.424 Q206.783 827.859 206.783 820.752 Q206.783 813.623 204.954 810.081 Q203.149 806.516 199.514 806.516 M199.514 802.813 Q205.324 802.813 208.38 807.419 Q211.459 812.002 211.459 820.752 Q211.459 829.479 208.38 834.086 Q205.324 838.669 199.514 838.669 Q193.704 838.669 190.625 834.086 Q187.57 829.479 187.57 820.752 Q187.57 812.002 190.625 807.419 Q193.704 802.813 199.514 802.813 Z" fill="#000000" fill-rule="nonzero" fill-opacity="1" /><path clip-path="url(#clip640)" d="M144.098 521.673 L166.32 521.673 L166.32 523.663 L153.774 556.233 L148.89 556.233 L160.695 525.608 L144.098 525.608 L144.098 521.673 Z" fill="#000000" fill-rule="nonzero" fill-opacity="1" /><path clip-path="url(#clip640)" d="M175.44 550.353 L180.325 550.353 L180.325 556.233 L175.44 556.233 L175.44 550.353 Z" fill="#000000" fill-rule="nonzero" fill-opacity="1" /><path clip-path="url(#clip640)" d="M190.556 521.673 L208.912 521.673 L208.912 525.608 L194.838 525.608 L194.838 534.08 Q195.857 533.733 196.875 533.571 Q197.894 533.385 198.912 533.385 Q204.699 533.385 208.079 536.557 Q211.459 539.728 211.459 545.145 Q211.459 550.723 207.987 553.825 Q204.514 556.904 198.195 556.904 Q196.019 556.904 193.75 556.533 Q191.505 556.163 189.098 555.422 L189.098 550.723 Q191.181 551.858 193.403 552.413 Q195.625 552.969 198.102 552.969 Q202.107 552.969 204.445 550.862 Q206.783 548.756 206.783 545.145 Q206.783 541.534 204.445 539.427 Q202.107 537.321 198.102 537.321 Q196.227 537.321 194.352 537.737 Q192.5 538.154 190.556 539.034 L190.556 521.673 Z" fill="#000000" fill-rule="nonzero" fill-opacity="1" /><path clip-path="url(#clip640)" d="M114.931 270.532 L122.57 270.532 L122.57 244.167 L114.26 245.833 L114.26 241.574 L122.524 239.907 L127.2 239.907 L127.2 270.532 L134.839 270.532 L134.839 274.467 L114.931 274.467 L114.931 270.532 Z" fill="#000000" fill-rule="nonzero" fill-opacity="1" /><path clip-path="url(#clip640)" d="M154.283 242.986 Q150.672 242.986 148.843 246.551 Q147.038 250.093 147.038 257.222 Q147.038 264.329 148.843 267.893 Q150.672 271.435 154.283 271.435 Q157.917 271.435 159.723 267.893 Q161.552 264.329 161.552 257.222 Q161.552 250.093 159.723 246.551 Q157.917 242.986 154.283 242.986 M154.283 239.282 Q160.093 239.282 163.149 243.889 Q166.227 248.472 166.227 257.222 Q166.227 265.949 163.149 270.555 Q160.093 275.139 154.283 275.139 Q148.473 275.139 145.394 270.555 Q142.339 265.949 142.339 257.222 Q142.339 248.472 145.394 243.889 Q148.473 239.282 154.283 239.282 Z" fill="#000000" fill-rule="nonzero" fill-opacity="1" /><path clip-path="url(#clip640)" d="M174.445 268.588 L179.329 268.588 L179.329 274.467 L174.445 274.467 L174.445 268.588 Z" fill="#000000" fill-rule="nonzero" fill-opacity="1" /><path clip-path="url(#clip640)" d="M199.514 242.986 Q195.903 242.986 194.075 246.551 Q192.269 250.093 192.269 257.222 Q192.269 264.329 194.075 267.893 Q195.903 271.435 199.514 271.435 Q203.149 271.435 204.954 267.893 Q206.783 264.329 206.783 257.222 Q206.783 250.093 204.954 246.551 Q203.149 242.986 199.514 242.986 M199.514 239.282 Q205.324 239.282 208.38 243.889 Q211.459 248.472 211.459 257.222 Q211.459 265.949 208.38 270.555 Q205.324 275.139 199.514 275.139 Q193.704 275.139 190.625 270.555 Q187.57 265.949 187.57 257.222 Q187.57 248.472 190.625 243.889 Q193.704 239.282 199.514 239.282 Z" fill="#000000" fill-rule="nonzero" fill-opacity="1" /><path clip-path="url(#clip640)" d="M21.7677 1026.76 L39.6235 1026.76 L39.6235 1018.68 Q39.6235 1014.19 37.3 1011.74 Q34.9765 1009.29 30.6797 1009.29 Q26.4147 1009.29 24.0912 1011.74 Q21.7677 1014.19 21.7677 1018.68 L21.7677 1026.76 M16.4842 1033.19 L16.4842 1018.68 Q16.4842 1010.69 20.1126 1006.61 Q23.7092 1002.51 30.6797 1002.51 Q37.7138 1002.51 41.3104 1006.61 Q44.907 1010.69 44.907 1018.68 L44.907 1026.76 L64.0042 1026.76 L64.0042 1033.19 L16.4842 1033.19 Z" fill="#000000" fill-rule="nonzero" fill-opacity="1" /><path clip-path="url(#clip640)" d="M33.8307 974.626 Q33.2578 975.613 33.0032 976.791 Q32.7167 977.936 32.7167 979.337 Q32.7167 984.302 35.9632 986.976 Q39.1779 989.617 45.2253 989.617 L64.0042 989.617 L64.0042 995.506 L28.3562 995.506 L28.3562 989.617 L33.8944 989.617 Q30.6479 987.771 29.0883 984.811 Q27.4968 981.851 27.4968 977.618 Q27.4968 977.013 27.5923 976.281 Q27.656 975.549 27.8151 974.658 L33.8307 974.626 Z" fill="#000000" fill-rule="nonzero" fill-opacity="1" /><path clip-path="url(#clip640)" d="M32.4621 956.102 Q32.4621 960.813 36.1542 963.55 Q39.8145 966.287 46.212 966.287 Q52.6095 966.287 56.3017 963.582 Q59.9619 960.844 59.9619 956.102 Q59.9619 951.423 56.2698 948.686 Q52.5777 945.949 46.212 945.949 Q39.8781 945.949 36.186 948.686 Q32.4621 951.423 32.4621 956.102 M27.4968 956.102 Q27.4968 948.463 32.4621 944.103 Q37.4273 939.742 46.212 939.742 Q54.9649 939.742 59.9619 944.103 Q64.9272 948.463 64.9272 956.102 Q64.9272 963.773 59.9619 968.133 Q54.9649 972.462 46.212 972.462 Q37.4273 972.462 32.4621 968.133 Q27.4968 963.773 27.4968 956.102 Z" fill="#000000" fill-rule="nonzero" fill-opacity="1" /><path clip-path="url(#clip640)" d="M46.212 904.444 Q39.7508 904.444 36.0905 907.118 Q32.3984 909.76 32.3984 914.407 Q32.3984 919.054 36.0905 921.727 Q39.7508 924.369 46.212 924.369 Q52.6732 924.369 56.3653 921.727 Q60.0256 919.054 60.0256 914.407 Q60.0256 909.76 56.3653 907.118 Q52.6732 904.444 46.212 904.444 M33.7671 924.369 Q30.5842 922.523 29.0564 919.722 Q27.4968 916.889 27.4968 912.974 Q27.4968 906.481 32.6531 902.439 Q37.8093 898.365 46.212 898.365 Q54.6147 898.365 59.771 902.439 Q64.9272 906.481 64.9272 912.974 Q64.9272 916.889 63.3994 919.722 Q61.8398 922.523 58.657 924.369 L64.0042 924.369 L64.0042 930.257 L14.479 930.257 L14.479 924.369 L33.7671 924.369 Z" fill="#000000" fill-rule="nonzero" fill-opacity="1" /><path clip-path="url(#clip640)" d="M46.0847 872.457 Q46.0847 879.554 47.7079 882.292 Q49.3312 885.029 53.2461 885.029 Q56.3653 885.029 58.2114 882.992 Q60.0256 880.923 60.0256 877.39 Q60.0256 872.52 56.5881 869.592 Q53.1188 866.632 47.3897 866.632 L46.0847 866.632 L46.0847 872.457 M43.6657 860.776 L64.0042 860.776 L64.0042 866.632 L58.5933 866.632 Q61.8398 868.637 63.3994 871.629 Q64.9272 874.621 64.9272 878.95 Q64.9272 884.424 61.8716 887.671 Q58.7843 890.885 53.6281 890.885 Q47.6125 890.885 44.5569 886.875 Q41.5014 882.833 41.5014 874.844 L41.5014 866.632 L40.9285 866.632 Q36.8862 866.632 34.6901 869.306 Q32.4621 871.947 32.4621 876.753 Q32.4621 879.809 33.1941 882.705 Q33.9262 885.602 35.3903 888.275 L29.9795 888.275 Q28.7381 885.061 28.1334 882.037 Q27.4968 879.013 27.4968 876.149 Q27.4968 868.414 31.5072 864.595 Q35.5176 860.776 43.6657 860.776 Z" fill="#000000" fill-rule="nonzero" fill-opacity="1" /><path clip-path="url(#clip640)" d="M46.212 823.122 Q39.7508 823.122 36.0905 825.796 Q32.3984 828.438 32.3984 833.085 Q32.3984 837.732 36.0905 840.405 Q39.7508 843.047 46.212 843.047 Q52.6732 843.047 56.3653 840.405 Q60.0256 837.732 60.0256 833.085 Q60.0256 828.438 56.3653 825.796 Q52.6732 823.122 46.212 823.122 M33.7671 843.047 Q30.5842 841.201 29.0564 838.4 Q27.4968 835.567 27.4968 831.652 Q27.4968 825.159 32.6531 821.117 Q37.8093 817.043 46.212 817.043 Q54.6147 817.043 59.771 821.117 Q64.9272 825.159 64.9272 831.652 Q64.9272 835.567 63.3994 838.4 Q61.8398 841.201 58.657 843.047 L64.0042 843.047 L64.0042 848.935 L14.479 848.935 L14.479 843.047 L33.7671 843.047 Z" fill="#000000" fill-rule="nonzero" fill-opacity="1" /><path clip-path="url(#clip640)" d="M28.3562 807.335 L28.3562 801.479 L64.0042 801.479 L64.0042 807.335 L28.3562 807.335 M14.479 807.335 L14.479 801.479 L21.895 801.479 L21.895 807.335 L14.479 807.335 Z" fill="#000000" fill-rule="nonzero" fill-opacity="1" /><path clip-path="url(#clip640)" d="M14.479 789.225 L14.479 783.369 L64.0042 783.369 L64.0042 789.225 L14.479 789.225 Z" fill="#000000" fill-rule="nonzero" fill-opacity="1" /><path clip-path="url(#clip640)" d="M28.3562 771.115 L28.3562 765.258 L64.0042 765.258 L64.0042 771.115 L28.3562 771.115 M14.479 771.115 L14.479 765.258 L21.895 765.258 L21.895 771.115 L14.479 771.115 Z" fill="#000000" fill-rule="nonzero" fill-opacity="1" /><path clip-path="url(#clip640)" d="M18.2347 747.211 L28.3562 747.211 L28.3562 735.148 L32.9077 735.148 L32.9077 747.211 L52.2594 747.211 Q56.6199 747.211 57.8613 746.034 Q59.1026 744.824 59.1026 741.164 L59.1026 735.148 L64.0042 735.148 L64.0042 741.164 Q64.0042 747.943 61.4897 750.521 Q58.9434 753.1 52.2594 753.1 L32.9077 753.1 L32.9077 757.396 L28.3562 757.396 L28.3562 753.1 L18.2347 753.1 L18.2347 747.211 Z" fill="#000000" fill-rule="nonzero" fill-opacity="1" /><path clip-path="url(#clip640)" d="M67.3143 712.614 Q73.68 715.096 75.6216 717.452 Q77.5631 719.807 77.5631 723.754 L77.5631 728.432 L72.6615 728.432 L72.6615 724.995 Q72.6615 722.576 71.5157 721.239 Q70.3699 719.902 66.1048 718.279 L63.4312 717.229 L28.3562 731.647 L28.3562 725.441 L56.238 714.301 L28.3562 703.161 L28.3562 696.954 L67.3143 712.614 Z" fill="#000000" fill-rule="nonzero" fill-opacity="1" /><path clip-path="url(#clip640)" d="M33.7671 644.692 L14.479 644.692 L14.479 638.835 L64.0042 638.835 L64.0042 644.692 L58.657 644.692 Q61.8398 646.538 63.3994 649.37 Q64.9272 652.171 64.9272 656.118 Q64.9272 662.579 59.771 666.653 Q54.6147 670.696 46.212 670.696 Q37.8093 670.696 32.6531 666.653 Q27.4968 662.579 27.4968 656.118 Q27.4968 652.171 29.0564 649.37 Q30.5842 646.538 33.7671 644.692 M46.212 664.648 Q52.6732 664.648 56.3653 662.006 Q60.0256 659.333 60.0256 654.686 Q60.0256 650.039 56.3653 647.365 Q52.6732 644.692 46.212 644.692 Q39.7508 644.692 36.0905 647.365 Q32.3984 650.039 32.3984 654.686 Q32.3984 659.333 36.0905 662.006 Q39.7508 664.648 46.212 664.648 Z" fill="#000000" fill-rule="nonzero" fill-opacity="1" /><path clip-path="url(#clip640)" d="M44.7161 596.28 L47.5806 596.28 L47.5806 623.207 Q53.6281 622.825 56.8109 619.579 Q59.9619 616.301 59.9619 610.476 Q59.9619 607.102 59.1344 603.951 Q58.3069 600.768 56.6518 597.649 L62.1899 597.649 Q63.5267 600.8 64.227 604.11 Q64.9272 607.42 64.9272 610.826 Q64.9272 619.356 59.9619 624.353 Q54.9967 629.318 46.5303 629.318 Q37.7774 629.318 32.6531 624.608 Q27.4968 619.865 27.4968 611.845 Q27.4968 604.651 32.1438 600.482 Q36.7589 596.28 44.7161 596.28 M42.9973 602.137 Q38.1912 602.201 35.3266 604.842 Q32.4621 607.452 32.4621 611.781 Q32.4621 616.683 35.2312 619.643 Q38.0002 622.571 43.0292 623.016 L42.9973 602.137 Z" fill="#000000" fill-rule="nonzero" fill-opacity="1" /><path clip-path="url(#clip640)" d="M42.4881 557.036 L64.0042 557.036 L64.0042 562.892 L42.679 562.892 Q37.6183 562.892 35.1038 564.866 Q32.5894 566.839 32.5894 570.786 Q32.5894 575.528 35.6131 578.265 Q38.6368 581.003 43.8567 581.003 L64.0042 581.003 L64.0042 586.891 L28.3562 586.891 L28.3562 581.003 L33.8944 581.003 Q30.6797 578.902 29.0883 576.069 Q27.4968 573.205 27.4968 569.481 Q27.4968 563.338 31.3163 560.187 Q35.1038 557.036 42.4881 557.036 Z" fill="#000000" fill-rule="nonzero" fill-opacity="1" /><path clip-path="url(#clip640)" d="M29.4065 522.629 L34.9447 522.629 Q33.6716 525.112 33.035 527.785 Q32.3984 530.459 32.3984 533.324 Q32.3984 537.684 33.7352 539.88 Q35.072 542.045 37.7456 542.045 Q39.7826 542.045 40.9603 540.485 Q42.1061 538.925 43.1565 534.215 L43.6021 532.21 Q44.9389 525.971 47.3897 523.361 Q49.8086 520.719 54.1691 520.719 Q59.1344 520.719 62.0308 524.666 Q64.9272 528.581 64.9272 535.456 Q64.9272 538.321 64.3543 541.44 Q63.8132 544.527 62.6992 547.965 L56.6518 547.965 Q58.3387 544.718 59.198 541.567 Q60.0256 538.416 60.0256 535.329 Q60.0256 531.191 58.6251 528.963 Q57.1929 526.735 54.6147 526.735 Q52.2276 526.735 50.9545 528.358 Q49.6813 529.95 48.5037 535.392 L48.0262 537.429 Q46.8804 542.872 44.5251 545.291 Q42.138 547.71 38.0002 547.71 Q32.9713 547.71 30.2341 544.145 Q27.4968 540.58 27.4968 534.024 Q27.4968 530.777 27.9743 527.913 Q28.4517 525.048 29.4065 522.629 Z" fill="#000000" fill-rule="nonzero" fill-opacity="1" /><path clip-path="url(#clip640)" d="M28.3562 511.394 L28.3562 505.537 L64.0042 505.537 L64.0042 511.394 L28.3562 511.394 M14.479 511.394 L14.479 505.537 L21.895 505.537 L21.895 511.394 L14.479 511.394 Z" fill="#000000" fill-rule="nonzero" fill-opacity="1" /><path clip-path="url(#clip640)" d="M18.2347 487.49 L28.3562 487.49 L28.3562 475.427 L32.9077 475.427 L32.9077 487.49 L52.2594 487.49 Q56.6199 487.49 57.8613 486.313 Q59.1026 485.103 59.1026 481.443 L59.1026 475.427 L64.0042 475.427 L64.0042 481.443 Q64.0042 488.223 61.4897 490.801 Q58.9434 493.379 52.2594 493.379 L32.9077 493.379 L32.9077 497.676 L28.3562 497.676 L28.3562 493.379 L18.2347 493.379 L18.2347 487.49 Z" fill="#000000" fill-rule="nonzero" fill-opacity="1" /><path clip-path="url(#clip640)" d="M67.3143 452.893 Q73.68 455.376 75.6216 457.731 Q77.5631 460.086 77.5631 464.033 L77.5631 468.712 L72.6615 468.712 L72.6615 465.274 Q72.6615 462.855 71.5157 461.518 Q70.3699 460.182 66.1048 458.558 L63.4312 457.508 L28.3562 471.926 L28.3562 465.72 L56.238 454.58 L28.3562 443.44 L28.3562 437.233 L67.3143 452.893 Z" fill="#000000" fill-rule="nonzero" fill-opacity="1" /><polyline clip-path="url(#clip642)" style="stroke:#009af9; stroke-linecap:round; stroke-linejoin:round; stroke-width:4; stroke-opacity:1; fill:none" points="307.043,1384.14 329.872,1383.59 352.701,1384.14 421.188,1384.21 444.017,1384.23 466.846,1383.92 512.504,1384.08 535.333,1384.08 558.162,1384.19 580.991,1383.73 603.821,1384.02 626.65,1384.02 649.479,1383.94 672.308,1383.3 695.137,1383.27 717.966,1383.4 740.795,1383.06 763.624,1382.7 786.453,1382.45 809.282,1382.18 832.111,1381.36 854.94,1380.85 877.769,1380.72 900.599,1379.98 923.428,1379.34 946.257,1375.9 969.086,1374.88 991.915,1372.77 1014.74,1368.3 1037.57,1366.14 1060.4,1360.47 1083.23,1358.32 1106.06,1346.48 1128.89,1343.44 1151.72,1333.95 1174.55,1320.74 1197.38,1309.45 1220.21,1293.28 1243.03,1277.94 1265.86,1259.17 1288.69,1248.48 1311.52,1237.48 1334.35,1222.72 1357.18,1199.21 1380.01,1182.86 1402.84,1161.43 1425.67,1141.54 1448.5,1119.51 1471.33,1088.34 1494.15,1068.87 1516.98,1065.99 1539.81,1042.84 1562.64,1027.78 1585.47,1013.14 1608.3,995.814 1631.13,996.77 1653.96,993.93 1676.79,993.627 1699.62,1009.96 1722.45,1009.28 1745.27,1020.91 1768.1,1033.06 1790.93,1061.14 1813.76,1079.45 1836.59,1121.28 1859.42,1134.26 1882.25,1169.75 1905.08,1206.67 1927.91,1232.26 1950.74,1263.79 1973.56,1286.74 1996.39,1306.29 2019.22,1326.7 2042.05,1343.39 2064.88,1357.61 2087.71,1364.35 2110.54,1371.08 2133.37,1376.63 2156.2,1380.15 2179.03,1382.52 2201.86,1383.58 2224.68,1383.85 2247.51,1384.21 2293.17,1384.24 "/>
<polyline clip-path="url(#clip642)" style="stroke:#e26f46; stroke-linecap:round; stroke-linejoin:round; stroke-width:4; stroke-opacity:1; fill:none" points="307.043,1384.1 329.872,1384.06 352.701,1384.01 421.188,1383.8 444.017,1383.69 466.846,1383.56 512.504,1383.2 535.333,1382.95 558.162,1382.65 580.991,1382.29 603.821,1381.84 626.65,1381.29 649.479,1380.63 672.308,1379.83 695.137,1378.85 717.966,1377.67 740.795,1376.25 763.624,1374.53 786.453,1372.47 809.282,1369.99 832.111,1367.03 854.94,1363.5 877.769,1359.3 900.599,1354.31 923.428,1348.41 946.257,1341.45 969.086,1333.27 991.915,1323.68 1014.74,1312.48 1037.57,1299.45 1060.4,1284.37 1083.23,1266.96 1106.06,1246.98 1128.89,1224.13 1151.72,1198.15 1174.55,1168.77 1197.38,1135.72 1220.21,1098.77 1243.03,1057.74 1265.86,1012.49 1288.69,962.957 1311.52,909.184 1334.35,851.322 1357.18,789.66 1380.01,724.645 1402.84,656.9 1425.67,587.237 1448.5,516.668 1471.33,446.4 1494.15,377.832 1516.98,312.529 1539.81,252.188 1562.64,198.588 1585.47,153.529 1608.3,118.751 1631.13,95.8513 1653.96,86.1857 1676.79,90.7773 1699.62,110.227 1722.45,144.637 1745.27,193.563 1768.1,255.986 1790.93,330.333 1813.76,414.524 1836.59,506.067 1859.42,602.187 1882.25,699.98 1905.08,796.587 1927.91,889.355 1950.74,976 1973.56,1054.72 1996.39,1124.28 2019.22,1184.05 2042.05,1233.93 2064.88,1274.35 2087.71,1306.12 2110.54,1330.31 2133.37,1348.14 2156.2,1360.85 2179.03,1369.59 2201.86,1375.38 2224.68,1379.08 2247.51,1381.35 2293.17,1383.44 "/>
<path clip-path="url(#clip640)" d="M317.635 248.629 L862.469 248.629 L862.469 93.1086 L317.635 93.1086  Z" fill="#ffffff" fill-rule="evenodd" fill-opacity="1"/>
<polyline clip-path="url(#clip640)" style="stroke:#ffffff; stroke-linecap:round; stroke-linejoin:round; stroke-width:4; stroke-opacity:1; fill:none" points="317.635,248.629 862.469,248.629 862.469,93.1086 317.635,93.1086 317.635,248.629 "/>
<polyline clip-path="url(#clip640)" style="stroke:#009af9; stroke-linecap:round; stroke-linejoin:round; stroke-width:4; stroke-opacity:1; fill:none" points="341.027,144.949 481.381,144.949 "/>
<path clip-path="url(#clip640)" d="M504.773 127.669 L509.449 127.669 L509.449 141.835 L526.439 141.835 L526.439 127.669 L531.115 127.669 L531.115 162.229 L526.439 162.229 L526.439 145.77 L509.449 145.77 L509.449 162.229 L504.773 162.229 L504.773 127.669 Z" fill="#000000" fill-rule="nonzero" fill-opacity="1" /><path clip-path="url(#clip640)" d="M540.236 136.303 L544.495 136.303 L544.495 162.229 L540.236 162.229 L540.236 136.303 M540.236 126.21 L544.495 126.21 L544.495 131.604 L540.236 131.604 L540.236 126.21 Z" fill="#000000" fill-rule="nonzero" fill-opacity="1" /><path clip-path="url(#clip640)" d="M569.935 137.067 L569.935 141.094 Q568.129 140.169 566.185 139.706 Q564.24 139.243 562.157 139.243 Q558.985 139.243 557.388 140.215 Q555.814 141.187 555.814 143.131 Q555.814 144.613 556.948 145.469 Q558.083 146.303 561.509 147.067 L562.967 147.391 Q567.504 148.363 569.402 150.145 Q571.323 151.905 571.323 155.076 Q571.323 158.687 568.453 160.793 Q565.606 162.9 560.606 162.9 Q558.523 162.9 556.254 162.483 Q554.009 162.09 551.509 161.28 L551.509 156.881 Q553.87 158.108 556.161 158.733 Q558.453 159.335 560.698 159.335 Q563.708 159.335 565.328 158.317 Q566.948 157.275 566.948 155.4 Q566.948 153.664 565.768 152.738 Q564.61 151.812 560.652 150.956 L559.171 150.608 Q555.212 149.775 553.453 148.062 Q551.694 146.326 551.694 143.317 Q551.694 139.659 554.286 137.669 Q556.879 135.678 561.648 135.678 Q564.009 135.678 566.092 136.025 Q568.175 136.372 569.935 137.067 Z" fill="#000000" fill-rule="nonzero" fill-opacity="1" /><path clip-path="url(#clip640)" d="M582.319 128.942 L582.319 136.303 L591.092 136.303 L591.092 139.613 L582.319 139.613 L582.319 153.687 Q582.319 156.858 583.175 157.761 Q584.055 158.664 586.717 158.664 L591.092 158.664 L591.092 162.229 L586.717 162.229 Q581.786 162.229 579.911 160.4 Q578.036 158.548 578.036 153.687 L578.036 139.613 L574.911 139.613 L574.911 136.303 L578.036 136.303 L578.036 128.942 L582.319 128.942 Z" fill="#000000" fill-rule="nonzero" fill-opacity="1" /><path clip-path="url(#clip640)" d="M606.74 139.289 Q603.314 139.289 601.323 141.974 Q599.332 144.636 599.332 149.289 Q599.332 153.942 601.3 156.627 Q603.291 159.289 606.74 159.289 Q610.143 159.289 612.133 156.604 Q614.124 153.918 614.124 149.289 Q614.124 144.682 612.133 141.997 Q610.143 139.289 606.74 139.289 M606.74 135.678 Q612.295 135.678 615.467 139.289 Q618.638 142.9 618.638 149.289 Q618.638 155.655 615.467 159.289 Q612.295 162.9 606.74 162.9 Q601.161 162.9 597.99 159.289 Q594.842 155.655 594.842 149.289 Q594.842 142.9 597.99 139.289 Q601.161 135.678 606.74 135.678 Z" fill="#000000" fill-rule="nonzero" fill-opacity="1" /><path clip-path="url(#clip640)" d="M642.758 148.965 Q642.758 144.335 640.837 141.789 Q638.939 139.243 635.49 139.243 Q632.064 139.243 630.143 141.789 Q628.244 144.335 628.244 148.965 Q628.244 153.571 630.143 156.118 Q632.064 158.664 635.49 158.664 Q638.939 158.664 640.837 156.118 Q642.758 153.571 642.758 148.965 M647.017 159.011 Q647.017 165.631 644.078 168.849 Q641.138 172.09 635.073 172.09 Q632.828 172.09 630.837 171.742 Q628.846 171.418 626.971 170.724 L626.971 166.58 Q628.846 167.599 630.675 168.085 Q632.504 168.571 634.402 168.571 Q638.592 168.571 640.675 166.372 Q642.758 164.196 642.758 159.775 L642.758 157.668 Q641.439 159.96 639.379 161.094 Q637.318 162.229 634.448 162.229 Q629.68 162.229 626.763 158.594 Q623.846 154.96 623.846 148.965 Q623.846 142.946 626.763 139.312 Q629.68 135.678 634.448 135.678 Q637.318 135.678 639.379 136.812 Q641.439 137.946 642.758 140.238 L642.758 136.303 L647.017 136.303 L647.017 159.011 Z" fill="#000000" fill-rule="nonzero" fill-opacity="1" /><path clip-path="url(#clip640)" d="M670.814 140.284 Q670.096 139.868 669.24 139.682 Q668.406 139.474 667.388 139.474 Q663.777 139.474 661.832 141.835 Q659.911 144.173 659.911 148.571 L659.911 162.229 L655.628 162.229 L655.628 136.303 L659.911 136.303 L659.911 140.331 Q661.253 137.969 663.406 136.835 Q665.559 135.678 668.638 135.678 Q669.077 135.678 669.61 135.747 Q670.142 135.794 670.79 135.909 L670.814 140.284 Z" fill="#000000" fill-rule="nonzero" fill-opacity="1" /><path clip-path="url(#clip640)" d="M687.064 149.196 Q681.901 149.196 679.911 150.377 Q677.92 151.557 677.92 154.405 Q677.92 156.673 679.402 158.016 Q680.906 159.335 683.476 159.335 Q687.017 159.335 689.147 156.835 Q691.3 154.312 691.3 150.145 L691.3 149.196 L687.064 149.196 M695.559 147.437 L695.559 162.229 L691.3 162.229 L691.3 158.293 Q689.841 160.655 687.665 161.789 Q685.489 162.9 682.341 162.9 Q678.36 162.9 675.999 160.678 Q673.661 158.432 673.661 154.682 Q673.661 150.307 676.577 148.085 Q679.517 145.863 685.327 145.863 L691.3 145.863 L691.3 145.446 Q691.3 142.507 689.355 140.909 Q687.434 139.289 683.939 139.289 Q681.716 139.289 679.61 139.821 Q677.503 140.354 675.559 141.419 L675.559 137.483 Q677.897 136.581 680.096 136.141 Q682.295 135.678 684.378 135.678 Q690.003 135.678 692.781 138.594 Q695.559 141.511 695.559 147.437 Z" fill="#000000" fill-rule="nonzero" fill-opacity="1" /><path clip-path="url(#clip640)" d="M724.517 141.28 Q726.114 138.409 728.336 137.044 Q730.559 135.678 733.568 135.678 Q737.619 135.678 739.818 138.525 Q742.017 141.349 742.017 146.581 L742.017 162.229 L737.735 162.229 L737.735 146.719 Q737.735 142.993 736.415 141.187 Q735.096 139.382 732.387 139.382 Q729.077 139.382 727.156 141.581 Q725.235 143.78 725.235 147.576 L725.235 162.229 L720.952 162.229 L720.952 146.719 Q720.952 142.969 719.633 141.187 Q718.313 139.382 715.559 139.382 Q712.295 139.382 710.374 141.604 Q708.452 143.803 708.452 147.576 L708.452 162.229 L704.17 162.229 L704.17 136.303 L708.452 136.303 L708.452 140.331 Q709.911 137.946 711.948 136.812 Q713.985 135.678 716.786 135.678 Q719.61 135.678 721.577 137.113 Q723.568 138.548 724.517 141.28 Z" fill="#000000" fill-rule="nonzero" fill-opacity="1" /><polyline clip-path="url(#clip640)" style="stroke:#e26f46; stroke-linecap:round; stroke-linejoin:round; stroke-width:4; stroke-opacity:1; fill:none" points="341.027,196.789 481.381,196.789 "/>
<path clip-path="url(#clip640)" d="M509.449 183.351 L509.449 210.226 L515.097 210.226 Q522.25 210.226 525.56 206.985 Q528.893 203.745 528.893 196.754 Q528.893 189.809 525.56 186.592 Q522.25 183.351 515.097 183.351 L509.449 183.351 M504.773 179.509 L514.379 179.509 Q524.425 179.509 529.125 183.698 Q533.824 187.865 533.824 196.754 Q533.824 205.689 529.101 209.879 Q524.379 214.069 514.379 214.069 L504.773 214.069 L504.773 179.509 Z" fill="#000000" fill-rule="nonzero" fill-opacity="1" /><path clip-path="url(#clip640)" d="M541.092 188.143 L545.351 188.143 L545.351 214.069 L541.092 214.069 L541.092 188.143 M541.092 178.05 L545.351 178.05 L545.351 183.444 L541.092 183.444 L541.092 178.05 Z" fill="#000000" fill-rule="nonzero" fill-opacity="1" /><path clip-path="url(#clip640)" d="M570.791 188.907 L570.791 192.934 Q568.985 192.009 567.041 191.546 Q565.097 191.083 563.013 191.083 Q559.842 191.083 558.245 192.055 Q556.671 193.027 556.671 194.971 Q556.671 196.453 557.805 197.309 Q558.939 198.143 562.365 198.907 L563.823 199.231 Q568.36 200.203 570.259 201.985 Q572.18 203.745 572.18 206.916 Q572.18 210.527 569.31 212.633 Q566.462 214.74 561.462 214.74 Q559.379 214.74 557.11 214.323 Q554.865 213.93 552.365 213.12 L552.365 208.721 Q554.726 209.948 557.018 210.573 Q559.31 211.175 561.555 211.175 Q564.564 211.175 566.185 210.157 Q567.805 209.115 567.805 207.24 Q567.805 205.504 566.624 204.578 Q565.467 203.652 561.509 202.796 L560.027 202.448 Q556.069 201.615 554.31 199.902 Q552.55 198.166 552.55 195.157 Q552.55 191.499 555.143 189.509 Q557.735 187.518 562.504 187.518 Q564.865 187.518 566.948 187.865 Q569.032 188.212 570.791 188.907 Z" fill="#000000" fill-rule="nonzero" fill-opacity="1" /><path clip-path="url(#clip640)" d="M583.175 180.782 L583.175 188.143 L591.948 188.143 L591.948 191.453 L583.175 191.453 L583.175 205.527 Q583.175 208.698 584.032 209.601 Q584.911 210.504 587.573 210.504 L591.948 210.504 L591.948 214.069 L587.573 214.069 Q582.643 214.069 580.768 212.24 Q578.893 210.388 578.893 205.527 L578.893 191.453 L575.768 191.453 L575.768 188.143 L578.893 188.143 L578.893 180.782 L583.175 180.782 Z" fill="#000000" fill-rule="nonzero" fill-opacity="1" /><path clip-path="url(#clip640)" d="M612.573 192.124 Q611.856 191.708 610.999 191.522 Q610.166 191.314 609.147 191.314 Q605.536 191.314 603.592 193.675 Q601.67 196.013 601.67 200.411 L601.67 214.069 L597.388 214.069 L597.388 188.143 L601.67 188.143 L601.67 192.171 Q603.013 189.809 605.166 188.675 Q607.319 187.518 610.397 187.518 Q610.837 187.518 611.369 187.587 Q611.902 187.634 612.55 187.749 L612.573 192.124 Z" fill="#000000" fill-rule="nonzero" fill-opacity="1" /><path clip-path="url(#clip640)" d="M617.041 188.143 L621.3 188.143 L621.3 214.069 L617.041 214.069 L617.041 188.143 M617.041 178.05 L621.3 178.05 L621.3 183.444 L617.041 183.444 L617.041 178.05 Z" fill="#000000" fill-rule="nonzero" fill-opacity="1" /><path clip-path="url(#clip640)" d="M648.823 201.129 Q648.823 196.43 646.879 193.768 Q644.957 191.083 641.578 191.083 Q638.198 191.083 636.254 193.768 Q634.332 196.43 634.332 201.129 Q634.332 205.828 636.254 208.513 Q638.198 211.175 641.578 211.175 Q644.957 211.175 646.879 208.513 Q648.823 205.828 648.823 201.129 M634.332 192.078 Q635.675 189.763 637.712 188.652 Q639.772 187.518 642.619 187.518 Q647.341 187.518 650.281 191.268 Q653.244 195.018 653.244 201.129 Q653.244 207.24 650.281 210.99 Q647.341 214.74 642.619 214.74 Q639.772 214.74 637.712 213.629 Q635.675 212.495 634.332 210.18 L634.332 214.069 L630.05 214.069 L630.05 178.05 L634.332 178.05 L634.332 192.078 Z" fill="#000000" fill-rule="nonzero" fill-opacity="1" /><path clip-path="url(#clip640)" d="M659.865 203.837 L659.865 188.143 L664.124 188.143 L664.124 203.675 Q664.124 207.356 665.559 209.208 Q666.994 211.036 669.865 211.036 Q673.314 211.036 675.304 208.837 Q677.318 206.638 677.318 202.842 L677.318 188.143 L681.577 188.143 L681.577 214.069 L677.318 214.069 L677.318 210.087 Q675.767 212.448 673.707 213.606 Q671.67 214.74 668.962 214.74 Q664.494 214.74 662.179 211.962 Q659.865 209.184 659.865 203.837 M670.582 187.518 L670.582 187.518 Z" fill="#000000" fill-rule="nonzero" fill-opacity="1" /><path clip-path="url(#clip640)" d="M694.563 180.782 L694.563 188.143 L703.337 188.143 L703.337 191.453 L694.563 191.453 L694.563 205.527 Q694.563 208.698 695.42 209.601 Q696.3 210.504 698.962 210.504 L703.337 210.504 L703.337 214.069 L698.962 214.069 Q694.031 214.069 692.156 212.24 Q690.281 210.388 690.281 205.527 L690.281 191.453 L687.156 191.453 L687.156 188.143 L690.281 188.143 L690.281 180.782 L694.563 180.782 Z" fill="#000000" fill-rule="nonzero" fill-opacity="1" /><path clip-path="url(#clip640)" d="M708.938 188.143 L713.198 188.143 L713.198 214.069 L708.938 214.069 L708.938 188.143 M708.938 178.05 L713.198 178.05 L713.198 183.444 L708.938 183.444 L708.938 178.05 Z" fill="#000000" fill-rule="nonzero" fill-opacity="1" /><path clip-path="url(#clip640)" d="M732.156 191.129 Q728.73 191.129 726.739 193.814 Q724.748 196.476 724.748 201.129 Q724.748 205.782 726.716 208.467 Q728.707 211.129 732.156 211.129 Q735.559 211.129 737.549 208.444 Q739.54 205.758 739.54 201.129 Q739.54 196.522 737.549 193.837 Q735.559 191.129 732.156 191.129 M732.156 187.518 Q737.711 187.518 740.883 191.129 Q744.054 194.74 744.054 201.129 Q744.054 207.495 740.883 211.129 Q737.711 214.74 732.156 214.74 Q726.577 214.74 723.406 211.129 Q720.258 207.495 720.258 201.129 Q720.258 194.74 723.406 191.129 Q726.577 187.518 732.156 187.518 Z" fill="#000000" fill-rule="nonzero" fill-opacity="1" /><path clip-path="url(#clip640)" d="M772.665 198.421 L772.665 214.069 L768.406 214.069 L768.406 198.559 Q768.406 194.879 766.97 193.05 Q765.535 191.222 762.665 191.222 Q759.216 191.222 757.225 193.421 Q755.234 195.62 755.234 199.416 L755.234 214.069 L750.952 214.069 L750.952 188.143 L755.234 188.143 L755.234 192.171 Q756.762 189.833 758.822 188.675 Q760.906 187.518 763.614 187.518 Q768.082 187.518 770.373 190.296 Q772.665 193.05 772.665 198.421 Z" fill="#000000" fill-rule="nonzero" fill-opacity="1" /><path clip-path="url(#clip640)" d="M809.355 178.05 L809.355 181.592 L805.28 181.592 Q802.989 181.592 802.086 182.518 Q801.206 183.444 801.206 185.851 L801.206 188.143 L808.22 188.143 L808.22 191.453 L801.206 191.453 L801.206 214.069 L796.924 214.069 L796.924 191.453 L792.85 191.453 L792.85 188.143 L796.924 188.143 L796.924 186.337 Q796.924 182.009 798.938 180.041 Q800.952 178.05 805.327 178.05 L809.355 178.05 Z" fill="#000000" fill-rule="nonzero" fill-opacity="1" /><path clip-path="url(#clip640)" d="M812.919 188.143 L817.179 188.143 L817.179 214.069 L812.919 214.069 L812.919 188.143 M812.919 178.05 L817.179 178.05 L817.179 183.444 L812.919 183.444 L812.919 178.05 Z" fill="#000000" fill-rule="nonzero" fill-opacity="1" /><path clip-path="url(#clip640)" d="M830.303 180.782 L830.303 188.143 L839.077 188.143 L839.077 191.453 L830.303 191.453 L830.303 205.527 Q830.303 208.698 831.16 209.601 Q832.04 210.504 834.702 210.504 L839.077 210.504 L839.077 214.069 L834.702 214.069 Q829.771 214.069 827.896 212.24 Q826.021 210.388 826.021 205.527 L826.021 191.453 L822.896 191.453 L822.896 188.143 L826.021 188.143 L826.021 180.782 L830.303 180.782 Z" fill="#000000" fill-rule="nonzero" fill-opacity="1" /></svg>
