<?xml version="1.0" encoding="utf-8"?>
<svg xmlns="http://www.w3.org/2000/svg" xmlns:xlink="http://www.w3.org/1999/xlink" width="600" height="400" viewBox="0 0 2400 1600">
<defs>
  <clipPath id="clip590">
    <rect x="0" y="0" width="2400" height="1600"/>
  </clipPath>
</defs>
<path clip-path="url(#clip590)" d="M0 1600 L2400 1600 L2400 8.88178e-14 L0 8.88178e-14  Z" fill="#ffffff" fill-rule="evenodd" fill-opacity="1"/>
<defs>
  <clipPath id="clip591">
    <rect x="279" y="47" width="2074" height="1507"/>
  </clipPath>
</defs>
<path clip-path="url(#clip590)" d="M279.519 1552.76 L2352.76 1552.76 L2352.76 47.2441 L279.519 47.2441  Z" fill="#ffffff" fill-rule="evenodd" fill-opacity="1"/>
<polyline clip-path="url(#clip591)" style="stroke:#000000; stroke-linecap:round; stroke-linejoin:round; stroke-width:2; stroke-opacity:0.1; fill:none" points="279.519,1473.32 2352.76,1473.32 "/>
<polyline clip-path="url(#clip591)" style="stroke:#000000; stroke-linecap:round; stroke-linejoin:round; stroke-width:2; stroke-opacity:0.1; fill:none" points="279.519,1160.58 2352.76,1160.58 "/>
<polyline clip-path="url(#clip591)" style="stroke:#000000; stroke-linecap:round; stroke-linejoin:round; stroke-width:2; stroke-opacity:0.1; fill:none" points="279.519,847.831 2352.76,847.831 "/>
<polyline clip-path="url(#clip591)" style="stroke:#000000; stroke-linecap:round; stroke-linejoin:round; stroke-width:2; stroke-opacity:0.1; fill:none" points="279.519,535.085 2352.76,535.085 "/>
<polyline clip-path="url(#clip591)" style="stroke:#000000; stroke-linecap:round; stroke-linejoin:round; stroke-width:2; stroke-opacity:0.1; fill:none" points="279.519,222.338 2352.76,222.338 "/>
<polyline clip-path="url(#clip591)" style="stroke:#000000; stroke-linecap:round; stroke-linejoin:round; stroke-width:2; stroke-opacity:0.1; fill:none" points="279.519,1473.32 2352.76,1473.32 "/>
<polyline clip-path="url(#clip591)" style="stroke:#000000; stroke-linecap:round; stroke-linejoin:round; stroke-width:2; stroke-opacity:0.1; fill:none" points="279.519,1160.58 2352.76,1160.58 "/>
<polyline clip-path="url(#clip591)" style="stroke:#000000; stroke-linecap:round; stroke-linejoin:round; stroke-width:2; stroke-opacity:0.1; fill:none" points="279.519,847.831 2352.76,847.831 "/>
<polyline clip-path="url(#clip591)" style="stroke:#000000; stroke-linecap:round; stroke-linejoin:round; stroke-width:2; stroke-opacity:0.1; fill:none" points="279.519,535.085 2352.76,535.085 "/>
<polyline clip-path="url(#clip591)" style="stroke:#000000; stroke-linecap:round; stroke-linejoin:round; stroke-width:2; stroke-opacity:0.1; fill:none" points="279.519,222.338 2352.76,222.338 "/>
<polyline clip-path="url(#clip590)" style="stroke:#000000; stroke-linecap:round; stroke-linejoin:round; stroke-width:4; stroke-opacity:1; fill:none" points="279.519,1552.76 2352.76,1552.76 "/>
<polyline clip-path="url(#clip590)" style="stroke:#000000; stroke-linecap:round; stroke-linejoin:round; stroke-width:4; stroke-opacity:1; fill:none" points="279.519,47.2441 2352.76,47.2441 "/>
<polyline clip-path="url(#clip590)" style="stroke:#000000; stroke-linecap:round; stroke-linejoin:round; stroke-width:4; stroke-opacity:1; fill:none" points="279.519,1552.76 279.519,47.2441 "/>
<polyline clip-path="url(#clip590)" style="stroke:#000000; stroke-linecap:round; stroke-linejoin:round; stroke-width:4; stroke-opacity:1; fill:none" points="2352.76,1552.76 2352.76,47.2441 "/>
<polyline clip-path="url(#clip590)" style="stroke:#000000; stroke-linecap:round; stroke-linejoin:round; stroke-width:4; stroke-opacity:1; fill:none" points="279.519,1473.32 298.416,1473.32 "/>
<polyline clip-path="url(#clip590)" style="stroke:#000000; stroke-linecap:round; stroke-linejoin:round; stroke-width:4; stroke-opacity:1; fill:none" points="279.519,1160.58 298.416,1160.58 "/>
<polyline clip-path="url(#clip590)" style="stroke:#000000; stroke-linecap:round; stroke-linejoin:round; stroke-width:4; stroke-opacity:1; fill:none" points="279.519,847.831 298.416,847.831 "/>
<polyline clip-path="url(#clip590)" style="stroke:#000000; stroke-linecap:round; stroke-linejoin:round; stroke-width:4; stroke-opacity:1; fill:none" points="279.519,535.085 298.416,535.085 "/>
<polyline clip-path="url(#clip590)" style="stroke:#000000; stroke-linecap:round; stroke-linejoin:round; stroke-width:4; stroke-opacity:1; fill:none" points="279.519,222.338 298.416,222.338 "/>
<polyline clip-path="url(#clip590)" style="stroke:#000000; stroke-linecap:round; stroke-linejoin:round; stroke-width:4; stroke-opacity:1; fill:none" points="2352.76,1473.32 2333.86,1473.32 "/>
<polyline clip-path="url(#clip590)" style="stroke:#000000; stroke-linecap:round; stroke-linejoin:round; stroke-width:4; stroke-opacity:1; fill:none" points="2352.76,1160.58 2333.86,1160.58 "/>
<polyline clip-path="url(#clip590)" style="stroke:#000000; stroke-linecap:round; stroke-linejoin:round; stroke-width:4; stroke-opacity:1; fill:none" points="2352.76,847.831 2333.86,847.831 "/>
<polyline clip-path="url(#clip590)" style="stroke:#000000; stroke-linecap:round; stroke-linejoin:round; stroke-width:4; stroke-opacity:1; fill:none" points="2352.76,535.085 2333.86,535.085 "/>
<polyline clip-path="url(#clip590)" style="stroke:#000000; stroke-linecap:round; stroke-linejoin:round; stroke-width:4; stroke-opacity:1; fill:none" points="2352.76,222.338 2333.86,222.338 "/>
<path clip-path="url(#clip590)" d="M127.593 1471.46 Q124.445 1471.46 122.593 1473.61 Q120.765 1475.77 120.765 1479.52 Q120.765 1483.24 122.593 1485.42 Q124.445 1487.57 127.593 1487.57 Q130.742 1487.57 132.57 1485.42 Q134.422 1483.24 134.422 1479.52 Q134.422 1475.77 132.57 1473.61 Q130.742 1471.46 127.593 1471.46 M136.876 1456.81 L136.876 1461.07 Q135.117 1460.23 133.311 1459.79 Q131.529 1459.35 129.769 1459.35 Q125.14 1459.35 122.686 1462.48 Q120.255 1465.6 119.908 1471.92 Q121.274 1469.91 123.334 1468.84 Q125.394 1467.76 127.871 1467.76 Q133.08 1467.76 136.089 1470.93 Q139.121 1474.08 139.121 1479.52 Q139.121 1484.84 135.973 1488.06 Q132.825 1491.28 127.593 1491.28 Q121.598 1491.28 118.427 1486.69 Q115.256 1482.09 115.256 1473.36 Q115.256 1465.16 119.144 1460.3 Q123.033 1455.42 129.584 1455.42 Q131.343 1455.42 133.126 1455.77 Q134.931 1456.11 136.876 1456.81 Z" fill="#000000" fill-rule="nonzero" fill-opacity="1" /><path clip-path="url(#clip590)" d="M147.223 1456.04 L165.579 1456.04 L165.579 1459.98 L151.505 1459.98 L151.505 1468.45 Q152.524 1468.1 153.542 1467.94 Q154.561 1467.76 155.579 1467.76 Q161.366 1467.76 164.746 1470.93 Q168.126 1474.1 168.126 1479.52 Q168.126 1485.09 164.653 1488.2 Q161.181 1491.28 154.862 1491.28 Q152.686 1491.28 150.417 1490.9 Q148.172 1490.53 145.765 1489.79 L145.765 1485.09 Q147.848 1486.23 150.07 1486.78 Q152.292 1487.34 154.769 1487.34 Q158.774 1487.34 161.112 1485.23 Q163.45 1483.13 163.45 1479.52 Q163.45 1475.91 161.112 1473.8 Q158.774 1471.69 154.769 1471.69 Q152.894 1471.69 151.019 1472.11 Q149.167 1472.53 147.223 1473.41 L147.223 1456.04 Z" fill="#000000" fill-rule="nonzero" fill-opacity="1" /><path clip-path="url(#clip590)" d="M177.339 1484.72 L182.223 1484.72 L182.223 1490.6 L177.339 1490.6 L177.339 1484.72 Z" fill="#000000" fill-rule="nonzero" fill-opacity="1" /><path clip-path="url(#clip590)" d="M196.436 1486.67 L212.755 1486.67 L212.755 1490.6 L190.811 1490.6 L190.811 1486.67 Q193.473 1483.91 198.056 1479.28 Q202.662 1474.63 203.843 1473.29 Q206.088 1470.77 206.968 1469.03 Q207.871 1467.27 207.871 1465.58 Q207.871 1462.83 205.926 1461.09 Q204.005 1459.35 200.903 1459.35 Q198.704 1459.35 196.25 1460.12 Q193.82 1460.88 191.042 1462.43 L191.042 1457.71 Q193.866 1456.58 196.32 1456 Q198.774 1455.42 200.811 1455.42 Q206.181 1455.42 209.375 1458.1 Q212.57 1460.79 212.57 1465.28 Q212.57 1467.41 211.76 1469.33 Q210.973 1471.23 208.866 1473.82 Q208.287 1474.49 205.186 1477.71 Q202.084 1480.91 196.436 1486.67 Z" fill="#000000" fill-rule="nonzero" fill-opacity="1" /><path clip-path="url(#clip590)" d="M222.616 1456.04 L240.972 1456.04 L240.972 1459.98 L226.898 1459.98 L226.898 1468.45 Q227.917 1468.1 228.935 1467.94 Q229.954 1467.76 230.972 1467.76 Q236.76 1467.76 240.139 1470.93 Q243.519 1474.1 243.519 1479.52 Q243.519 1485.09 240.047 1488.2 Q236.574 1491.28 230.255 1491.28 Q228.079 1491.28 225.81 1490.9 Q223.565 1490.53 221.158 1489.79 L221.158 1485.09 Q223.241 1486.23 225.463 1486.78 Q227.685 1487.34 230.162 1487.34 Q234.167 1487.34 236.505 1485.23 Q238.843 1483.13 238.843 1479.52 Q238.843 1475.91 236.505 1473.8 Q234.167 1471.69 230.162 1471.69 Q228.287 1471.69 226.412 1472.11 Q224.56 1472.53 222.616 1473.41 L222.616 1456.04 Z" fill="#000000" fill-rule="nonzero" fill-opacity="1" /><path clip-path="url(#clip590)" d="M126.598 1158.71 Q123.45 1158.71 121.598 1160.87 Q119.769 1163.02 119.769 1166.77 Q119.769 1170.5 121.598 1172.67 Q123.45 1174.83 126.598 1174.83 Q129.746 1174.83 131.575 1172.67 Q133.427 1170.5 133.427 1166.77 Q133.427 1163.02 131.575 1160.87 Q129.746 1158.71 126.598 1158.71 M135.88 1144.06 L135.88 1148.32 Q134.121 1147.49 132.316 1147.05 Q130.533 1146.61 128.774 1146.61 Q124.144 1146.61 121.691 1149.73 Q119.26 1152.86 118.913 1159.18 Q120.279 1157.16 122.339 1156.1 Q124.399 1155.01 126.876 1155.01 Q132.084 1155.01 135.093 1158.18 Q138.126 1161.33 138.126 1166.77 Q138.126 1172.09 134.978 1175.31 Q131.83 1178.53 126.598 1178.53 Q120.603 1178.53 117.431 1173.95 Q114.26 1169.34 114.26 1160.61 Q114.26 1152.42 118.149 1147.56 Q122.038 1142.67 128.589 1142.67 Q130.348 1142.67 132.13 1143.02 Q133.936 1143.37 135.88 1144.06 Z" fill="#000000" fill-rule="nonzero" fill-opacity="1" /><path clip-path="url(#clip590)" d="M146.228 1143.3 L164.584 1143.3 L164.584 1147.23 L150.51 1147.23 L150.51 1155.7 Q151.528 1155.36 152.547 1155.2 Q153.566 1155.01 154.584 1155.01 Q160.371 1155.01 163.751 1158.18 Q167.13 1161.35 167.13 1166.77 Q167.13 1172.35 163.658 1175.45 Q160.186 1178.53 153.866 1178.53 Q151.691 1178.53 149.422 1178.16 Q147.177 1177.79 144.769 1177.05 L144.769 1172.35 Q146.853 1173.48 149.075 1174.04 Q151.297 1174.59 153.774 1174.59 Q157.778 1174.59 160.116 1172.49 Q162.454 1170.38 162.454 1166.77 Q162.454 1163.16 160.116 1161.05 Q157.778 1158.95 153.774 1158.95 Q151.899 1158.95 150.024 1159.36 Q148.172 1159.78 146.228 1160.66 L146.228 1143.3 Z" fill="#000000" fill-rule="nonzero" fill-opacity="1" /><path clip-path="url(#clip590)" d="M176.343 1171.98 L181.227 1171.98 L181.227 1177.86 L176.343 1177.86 L176.343 1171.98 Z" fill="#000000" fill-rule="nonzero" fill-opacity="1" /><path clip-path="url(#clip590)" d="M191.459 1143.3 L209.815 1143.3 L209.815 1147.23 L195.741 1147.23 L195.741 1155.7 Q196.76 1155.36 197.778 1155.2 Q198.797 1155.01 199.815 1155.01 Q205.602 1155.01 208.982 1158.18 Q212.361 1161.35 212.361 1166.77 Q212.361 1172.35 208.889 1175.45 Q205.417 1178.53 199.098 1178.53 Q196.922 1178.53 194.653 1178.16 Q192.408 1177.79 190 1177.05 L190 1172.35 Q192.084 1173.48 194.306 1174.04 Q196.528 1174.59 199.005 1174.59 Q203.01 1174.59 205.348 1172.49 Q207.686 1170.38 207.686 1166.77 Q207.686 1163.16 205.348 1161.05 Q203.01 1158.95 199.005 1158.95 Q197.13 1158.95 195.255 1159.36 Q193.403 1159.78 191.459 1160.66 L191.459 1143.3 Z" fill="#000000" fill-rule="nonzero" fill-opacity="1" /><path clip-path="url(#clip590)" d="M231.574 1146.38 Q227.963 1146.38 226.135 1149.94 Q224.329 1153.48 224.329 1160.61 Q224.329 1167.72 226.135 1171.28 Q227.963 1174.83 231.574 1174.83 Q235.209 1174.83 237.014 1171.28 Q238.843 1167.72 238.843 1160.61 Q238.843 1153.48 237.014 1149.94 Q235.209 1146.38 231.574 1146.38 M231.574 1142.67 Q237.384 1142.67 240.44 1147.28 Q243.519 1151.86 243.519 1160.61 Q243.519 1169.34 240.44 1173.95 Q237.384 1178.53 231.574 1178.53 Q225.764 1178.53 222.686 1173.95 Q219.63 1169.34 219.63 1160.61 Q219.63 1151.86 222.686 1147.28 Q225.764 1142.67 231.574 1142.67 Z" fill="#000000" fill-rule="nonzero" fill-opacity="1" /><path clip-path="url(#clip590)" d="M127.593 845.968 Q124.445 845.968 122.593 848.12 Q120.765 850.273 120.765 854.023 Q120.765 857.75 122.593 859.926 Q124.445 862.079 127.593 862.079 Q130.742 862.079 132.57 859.926 Q134.422 857.75 134.422 854.023 Q134.422 850.273 132.57 848.12 Q130.742 845.968 127.593 845.968 M136.876 831.315 L136.876 835.574 Q135.117 834.741 133.311 834.301 Q131.529 833.861 129.769 833.861 Q125.14 833.861 122.686 836.986 Q120.255 840.111 119.908 846.431 Q121.274 844.417 123.334 843.352 Q125.394 842.264 127.871 842.264 Q133.08 842.264 136.089 845.435 Q139.121 848.583 139.121 854.023 Q139.121 859.347 135.973 862.565 Q132.825 865.782 127.593 865.782 Q121.598 865.782 118.427 861.199 Q115.256 856.593 115.256 847.866 Q115.256 839.671 119.144 834.81 Q123.033 829.926 129.584 829.926 Q131.343 829.926 133.126 830.273 Q134.931 830.621 136.876 831.315 Z" fill="#000000" fill-rule="nonzero" fill-opacity="1" /><path clip-path="url(#clip590)" d="M147.223 830.551 L165.579 830.551 L165.579 834.486 L151.505 834.486 L151.505 842.958 Q152.524 842.611 153.542 842.449 Q154.561 842.264 155.579 842.264 Q161.366 842.264 164.746 845.435 Q168.126 848.607 168.126 854.023 Q168.126 859.602 164.653 862.704 Q161.181 865.782 154.862 865.782 Q152.686 865.782 150.417 865.412 Q148.172 865.042 145.765 864.301 L145.765 859.602 Q147.848 860.736 150.07 861.292 Q152.292 861.847 154.769 861.847 Q158.774 861.847 161.112 859.741 Q163.45 857.634 163.45 854.023 Q163.45 850.412 161.112 848.306 Q158.774 846.199 154.769 846.199 Q152.894 846.199 151.019 846.616 Q149.167 847.033 147.223 847.912 L147.223 830.551 Z" fill="#000000" fill-rule="nonzero" fill-opacity="1" /><path clip-path="url(#clip590)" d="M177.339 859.232 L182.223 859.232 L182.223 865.111 L177.339 865.111 L177.339 859.232 Z" fill="#000000" fill-rule="nonzero" fill-opacity="1" /><path clip-path="url(#clip590)" d="M191.227 830.551 L213.449 830.551 L213.449 832.542 L200.903 865.111 L196.019 865.111 L207.824 834.486 L191.227 834.486 L191.227 830.551 Z" fill="#000000" fill-rule="nonzero" fill-opacity="1" /><path clip-path="url(#clip590)" d="M222.616 830.551 L240.972 830.551 L240.972 834.486 L226.898 834.486 L226.898 842.958 Q227.917 842.611 228.935 842.449 Q229.954 842.264 230.972 842.264 Q236.76 842.264 240.139 845.435 Q243.519 848.607 243.519 854.023 Q243.519 859.602 240.047 862.704 Q236.574 865.782 230.255 865.782 Q228.079 865.782 225.81 865.412 Q223.565 865.042 221.158 864.301 L221.158 859.602 Q223.241 860.736 225.463 861.292 Q227.685 861.847 230.162 861.847 Q234.167 861.847 236.505 859.741 Q238.843 857.634 238.843 854.023 Q238.843 850.412 236.505 848.306 Q234.167 846.199 230.162 846.199 Q228.287 846.199 226.412 846.616 Q224.56 847.033 222.616 847.912 L222.616 830.551 Z" fill="#000000" fill-rule="nonzero" fill-opacity="1" /><path clip-path="url(#clip590)" d="M126.598 533.221 Q123.45 533.221 121.598 535.374 Q119.769 537.527 119.769 541.277 Q119.769 545.004 121.598 547.18 Q123.45 549.332 126.598 549.332 Q129.746 549.332 131.575 547.18 Q133.427 545.004 133.427 541.277 Q133.427 537.527 131.575 535.374 Q129.746 533.221 126.598 533.221 M135.88 518.569 L135.88 522.828 Q134.121 521.994 132.316 521.555 Q130.533 521.115 128.774 521.115 Q124.144 521.115 121.691 524.24 Q119.26 527.365 118.913 533.684 Q120.279 531.67 122.339 530.606 Q124.399 529.518 126.876 529.518 Q132.084 529.518 135.093 532.689 Q138.126 535.837 138.126 541.277 Q138.126 546.601 134.978 549.818 Q131.83 553.036 126.598 553.036 Q120.603 553.036 117.431 548.453 Q114.26 543.846 114.26 535.119 Q114.26 526.925 118.149 522.064 Q122.038 517.18 128.589 517.18 Q130.348 517.18 132.13 517.527 Q133.936 517.874 135.88 518.569 Z" fill="#000000" fill-rule="nonzero" fill-opacity="1" /><path clip-path="url(#clip590)" d="M156.76 533.221 Q153.612 533.221 151.76 535.374 Q149.931 537.527 149.931 541.277 Q149.931 545.004 151.76 547.18 Q153.612 549.332 156.76 549.332 Q159.908 549.332 161.737 547.18 Q163.589 545.004 163.589 541.277 Q163.589 537.527 161.737 535.374 Q159.908 533.221 156.76 533.221 M166.042 518.569 L166.042 522.828 Q164.283 521.994 162.477 521.555 Q160.695 521.115 158.936 521.115 Q154.306 521.115 151.853 524.24 Q149.422 527.365 149.075 533.684 Q150.441 531.67 152.501 530.606 Q154.561 529.518 157.038 529.518 Q162.246 529.518 165.255 532.689 Q168.288 535.837 168.288 541.277 Q168.288 546.601 165.14 549.818 Q161.991 553.036 156.76 553.036 Q150.765 553.036 147.593 548.453 Q144.422 543.846 144.422 535.119 Q144.422 526.925 148.311 522.064 Q152.2 517.18 158.751 517.18 Q160.51 517.18 162.292 517.527 Q164.098 517.874 166.042 518.569 Z" fill="#000000" fill-rule="nonzero" fill-opacity="1" /><path clip-path="url(#clip590)" d="M176.343 546.485 L181.227 546.485 L181.227 552.365 L176.343 552.365 L176.343 546.485 Z" fill="#000000" fill-rule="nonzero" fill-opacity="1" /><path clip-path="url(#clip590)" d="M201.412 520.883 Q197.801 520.883 195.973 524.448 Q194.167 527.99 194.167 535.119 Q194.167 542.226 195.973 545.791 Q197.801 549.332 201.412 549.332 Q205.047 549.332 206.852 545.791 Q208.681 542.226 208.681 535.119 Q208.681 527.99 206.852 524.448 Q205.047 520.883 201.412 520.883 M201.412 517.18 Q207.223 517.18 210.278 521.786 Q213.357 526.369 213.357 535.119 Q213.357 543.846 210.278 548.453 Q207.223 553.036 201.412 553.036 Q195.602 553.036 192.524 548.453 Q189.468 543.846 189.468 535.119 Q189.468 526.369 192.524 521.786 Q195.602 517.18 201.412 517.18 Z" fill="#000000" fill-rule="nonzero" fill-opacity="1" /><path clip-path="url(#clip590)" d="M231.574 520.883 Q227.963 520.883 226.135 524.448 Q224.329 527.99 224.329 535.119 Q224.329 542.226 226.135 545.791 Q227.963 549.332 231.574 549.332 Q235.209 549.332 237.014 545.791 Q238.843 542.226 238.843 535.119 Q238.843 527.99 237.014 524.448 Q235.209 520.883 231.574 520.883 M231.574 517.18 Q237.384 517.18 240.44 521.786 Q243.519 526.369 243.519 535.119 Q243.519 543.846 240.44 548.453 Q237.384 553.036 231.574 553.036 Q225.764 553.036 222.686 548.453 Q219.63 543.846 219.63 535.119 Q219.63 526.369 222.686 521.786 Q225.764 517.18 231.574 517.18 Z" fill="#000000" fill-rule="nonzero" fill-opacity="1" /><path clip-path="url(#clip590)" d="M127.593 220.475 Q124.445 220.475 122.593 222.628 Q120.765 224.78 120.765 228.53 Q120.765 232.257 122.593 234.433 Q124.445 236.586 127.593 236.586 Q130.742 236.586 132.57 234.433 Q134.422 232.257 134.422 228.53 Q134.422 224.78 132.57 222.628 Q130.742 220.475 127.593 220.475 M136.876 205.822 L136.876 210.081 Q135.117 209.248 133.311 208.808 Q131.529 208.368 129.769 208.368 Q125.14 208.368 122.686 211.493 Q120.255 214.618 119.908 220.938 Q121.274 218.924 123.334 217.859 Q125.394 216.771 127.871 216.771 Q133.08 216.771 136.089 219.942 Q139.121 223.091 139.121 228.53 Q139.121 233.854 135.973 237.072 Q132.825 240.29 127.593 240.29 Q121.598 240.29 118.427 235.706 Q115.256 231.1 115.256 222.373 Q115.256 214.179 119.144 209.317 Q123.033 204.433 129.584 204.433 Q131.343 204.433 133.126 204.78 Q134.931 205.128 136.876 205.822 Z" fill="#000000" fill-rule="nonzero" fill-opacity="1" /><path clip-path="url(#clip590)" d="M157.755 220.475 Q154.607 220.475 152.755 222.628 Q150.927 224.78 150.927 228.53 Q150.927 232.257 152.755 234.433 Q154.607 236.586 157.755 236.586 Q160.903 236.586 162.732 234.433 Q164.584 232.257 164.584 228.53 Q164.584 224.78 162.732 222.628 Q160.903 220.475 157.755 220.475 M167.038 205.822 L167.038 210.081 Q165.278 209.248 163.473 208.808 Q161.69 208.368 159.931 208.368 Q155.302 208.368 152.848 211.493 Q150.417 214.618 150.07 220.938 Q151.436 218.924 153.496 217.859 Q155.556 216.771 158.033 216.771 Q163.241 216.771 166.251 219.942 Q169.283 223.091 169.283 228.53 Q169.283 233.854 166.135 237.072 Q162.987 240.29 157.755 240.29 Q151.76 240.29 148.589 235.706 Q145.417 231.1 145.417 222.373 Q145.417 214.179 149.306 209.317 Q153.195 204.433 159.746 204.433 Q161.505 204.433 163.288 204.78 Q165.093 205.128 167.038 205.822 Z" fill="#000000" fill-rule="nonzero" fill-opacity="1" /><path clip-path="url(#clip590)" d="M177.339 233.739 L182.223 233.739 L182.223 239.618 L177.339 239.618 L177.339 233.739 Z" fill="#000000" fill-rule="nonzero" fill-opacity="1" /><path clip-path="url(#clip590)" d="M196.436 235.683 L212.755 235.683 L212.755 239.618 L190.811 239.618 L190.811 235.683 Q193.473 232.928 198.056 228.299 Q202.662 223.646 203.843 222.304 Q206.088 219.78 206.968 218.044 Q207.871 216.285 207.871 214.595 Q207.871 211.841 205.926 210.105 Q204.005 208.368 200.903 208.368 Q198.704 208.368 196.25 209.132 Q193.82 209.896 191.042 211.447 L191.042 206.725 Q193.866 205.591 196.32 205.012 Q198.774 204.433 200.811 204.433 Q206.181 204.433 209.375 207.118 Q212.57 209.804 212.57 214.294 Q212.57 216.424 211.76 218.345 Q210.973 220.243 208.866 222.836 Q208.287 223.507 205.186 226.725 Q202.084 229.919 196.436 235.683 Z" fill="#000000" fill-rule="nonzero" fill-opacity="1" /><path clip-path="url(#clip590)" d="M222.616 205.058 L240.972 205.058 L240.972 208.993 L226.898 208.993 L226.898 217.466 Q227.917 217.118 228.935 216.956 Q229.954 216.771 230.972 216.771 Q236.76 216.771 240.139 219.942 Q243.519 223.114 243.519 228.53 Q243.519 234.109 240.047 237.211 Q236.574 240.29 230.255 240.29 Q228.079 240.29 225.81 239.919 Q223.565 239.549 221.158 238.808 L221.158 234.109 Q223.241 235.243 225.463 235.799 Q227.685 236.354 230.162 236.354 Q234.167 236.354 236.505 234.248 Q238.843 232.141 238.843 228.53 Q238.843 224.919 236.505 222.813 Q234.167 220.706 230.162 220.706 Q228.287 220.706 226.412 221.123 Q224.56 221.54 222.616 222.419 L222.616 205.058 Z" fill="#000000" fill-rule="nonzero" fill-opacity="1" /><path clip-path="url(#clip590)" d="M22.818 922.094 L46.4666 930.815 L46.4666 913.341 L22.818 922.094 M16.4842 925.723 L16.4842 918.434 L64.0042 900.324 L64.0042 907.008 L51.8138 911.336 L51.8138 932.757 L64.0042 937.085 L64.0042 943.865 L16.4842 925.723 Z" fill="#000000" fill-rule="nonzero" fill-opacity="1" /><path clip-path="url(#clip590)" d="M45.7664 870.182 Q39.4007 870.182 35.8996 872.824 Q32.3984 875.434 32.3984 880.176 Q32.3984 884.887 35.8996 887.528 Q39.4007 890.138 45.7664 890.138 Q52.1003 890.138 55.6014 887.528 Q59.1026 884.887 59.1026 880.176 Q59.1026 875.434 55.6014 872.824 Q52.1003 870.182 45.7664 870.182 M59.58 864.325 Q68.683 864.325 73.1071 868.368 Q77.5631 872.41 77.5631 880.749 Q77.5631 883.836 77.0857 886.574 Q76.6401 889.311 75.6852 891.889 L69.9879 891.889 Q71.3884 889.311 72.0568 886.796 Q72.7252 884.282 72.7252 881.672 Q72.7252 875.911 69.7015 873.046 Q66.7096 870.182 60.6303 870.182 L57.7339 870.182 Q60.885 871.996 62.4446 874.829 Q64.0042 877.662 64.0042 881.608 Q64.0042 888.165 59.0071 892.175 Q54.01 896.186 45.7664 896.186 Q37.491 896.186 32.4939 892.175 Q27.4968 888.165 27.4968 881.608 Q27.4968 877.662 29.0564 874.829 Q30.616 871.996 33.7671 870.182 L28.3562 870.182 L28.3562 864.325 L59.58 864.325 Z" fill="#000000" fill-rule="nonzero" fill-opacity="1" /><path clip-path="url(#clip590)" d="M44.7161 821.771 L47.5806 821.771 L47.5806 848.698 Q53.6281 848.316 56.8109 845.069 Q59.9619 841.791 59.9619 835.966 Q59.9619 832.592 59.1344 829.441 Q58.3069 826.259 56.6518 823.139 L62.1899 823.139 Q63.5267 826.29 64.227 829.601 Q64.9272 832.911 64.9272 836.316 Q64.9272 844.846 59.9619 849.843 Q54.9967 854.809 46.5303 854.809 Q37.7774 854.809 32.6531 850.098 Q27.4968 845.356 27.4968 837.335 Q27.4968 830.142 32.1438 825.972 Q36.7589 821.771 44.7161 821.771 M42.9973 827.627 Q38.1912 827.691 35.3266 830.333 Q32.4621 832.943 32.4621 837.271 Q32.4621 842.173 35.2312 845.133 Q38.0002 848.061 43.0292 848.507 L42.9973 827.627 Z" fill="#000000" fill-rule="nonzero" fill-opacity="1" /><path clip-path="url(#clip590)" d="M14.5426 777.37 Q21.8632 781.635 29.0246 783.704 Q36.186 785.773 43.5384 785.773 Q50.8908 785.773 58.1159 783.704 Q65.3091 781.603 72.5979 777.37 L72.5979 782.462 Q65.1182 787.237 57.8931 789.624 Q50.668 791.979 43.5384 791.979 Q36.4406 791.979 29.2474 789.624 Q22.0542 787.269 14.5426 782.462 L14.5426 777.37 Z" fill="#000000" fill-rule="nonzero" fill-opacity="1" /><path clip-path="url(#clip590)" d="M16.4842 765.752 L16.4842 756.172 L48.8219 744.045 L16.4842 731.855 L16.4842 722.275 L64.0042 722.275 L64.0042 728.545 L22.277 728.545 L54.8694 740.799 L54.8694 747.26 L22.277 759.514 L64.0042 759.514 L64.0042 765.752 L16.4842 765.752 Z" fill="#000000" fill-rule="nonzero" fill-opacity="1" /><path clip-path="url(#clip590)" d="M46.0847 693.565 Q46.0847 700.663 47.7079 703.4 Q49.3312 706.138 53.2461 706.138 Q56.3653 706.138 58.2114 704.101 Q60.0256 702.032 60.0256 698.499 Q60.0256 693.629 56.5881 690.701 Q53.1188 687.741 47.3897 687.741 L46.0847 687.741 L46.0847 693.565 M43.6657 681.884 L64.0042 681.884 L64.0042 687.741 L58.5933 687.741 Q61.8398 689.746 63.3994 692.738 Q64.9272 695.73 64.9272 700.058 Q64.9272 705.533 61.8716 708.779 Q58.7843 711.994 53.6281 711.994 Q47.6125 711.994 44.5569 707.984 Q41.5014 703.941 41.5014 695.953 L41.5014 687.741 L40.9285 687.741 Q36.8862 687.741 34.6901 690.414 Q32.4621 693.056 32.4621 697.862 Q32.4621 700.918 33.1941 703.814 Q33.9262 706.711 35.3903 709.384 L29.9795 709.384 Q28.7381 706.169 28.1334 703.146 Q27.4968 700.122 27.4968 697.257 Q27.4968 689.523 31.5072 685.704 Q35.5176 681.884 43.6657 681.884 Z" fill="#000000" fill-rule="nonzero" fill-opacity="1" /><path clip-path="url(#clip590)" d="M14.5426 670.744 L14.5426 665.652 Q22.0542 660.877 29.2474 658.522 Q36.4406 656.135 43.5384 656.135 Q50.668 656.135 57.8931 658.522 Q65.1182 660.877 72.5979 665.652 L72.5979 670.744 Q65.3091 666.511 58.1159 664.442 Q50.8908 662.342 43.5384 662.342 Q36.186 662.342 29.0246 664.442 Q21.8632 666.511 14.5426 670.744 Z" fill="#000000" fill-rule="nonzero" fill-opacity="1" /><polyline clip-path="url(#clip591)" style="stroke:#009af9; stroke-linecap:round; stroke-linejoin:round; stroke-width:4; stroke-opacity:1; fill:none" points="338.195,1510.15 338.195,1206.12 "/>
<polyline clip-path="url(#clip591)" style="stroke:#009af9; stroke-linecap:round; stroke-linejoin:round; stroke-width:4; stroke-opacity:1; fill:none" points="460.438,1508.91 460.438,1128.33 "/>
<polyline clip-path="url(#clip591)" style="stroke:#009af9; stroke-linecap:round; stroke-linejoin:round; stroke-width:4; stroke-opacity:1; fill:none" points="582.681,1362.49 582.681,1174.02 "/>
<polyline clip-path="url(#clip591)" style="stroke:#009af9; stroke-linecap:round; stroke-linejoin:round; stroke-width:4; stroke-opacity:1; fill:none" points="704.924,1453.4 704.924,1049.79 "/>
<polyline clip-path="url(#clip591)" style="stroke:#009af9; stroke-linecap:round; stroke-linejoin:round; stroke-width:4; stroke-opacity:1; fill:none" points="827.166,1245.14 827.166,1105.88 "/>
<polyline clip-path="url(#clip591)" style="stroke:#009af9; stroke-linecap:round; stroke-linejoin:round; stroke-width:4; stroke-opacity:1; fill:none" points="949.409,1202.63 949.409,1118.9 "/>
<polyline clip-path="url(#clip591)" style="stroke:#009af9; stroke-linecap:round; stroke-linejoin:round; stroke-width:4; stroke-opacity:1; fill:none" points="1071.65,1271.12 1071.65,1048.61 "/>
<polyline clip-path="url(#clip591)" style="stroke:#009af9; stroke-linecap:round; stroke-linejoin:round; stroke-width:4; stroke-opacity:1; fill:none" points="1193.89,1235.99 1193.89,1059.81 "/>
<polyline clip-path="url(#clip591)" style="stroke:#009af9; stroke-linecap:round; stroke-linejoin:round; stroke-width:4; stroke-opacity:1; fill:none" points="1316.14,1391.75 1316.14,886.374 "/>
<polyline clip-path="url(#clip591)" style="stroke:#009af9; stroke-linecap:round; stroke-linejoin:round; stroke-width:4; stroke-opacity:1; fill:none" points="1438.38,1242.08 1438.38,997.972 "/>
<polyline clip-path="url(#clip591)" style="stroke:#009af9; stroke-linecap:round; stroke-linejoin:round; stroke-width:4; stroke-opacity:1; fill:none" points="1560.62,1273.71 1560.62,948.582 "/>
<polyline clip-path="url(#clip591)" style="stroke:#009af9; stroke-linecap:round; stroke-linejoin:round; stroke-width:4; stroke-opacity:1; fill:none" points="1682.87,1282.32 1682.87,911.932 "/>
<polyline clip-path="url(#clip591)" style="stroke:#009af9; stroke-linecap:round; stroke-linejoin:round; stroke-width:4; stroke-opacity:1; fill:none" points="1805.11,1220.12 1805.11,898.967 "/>
<polyline clip-path="url(#clip591)" style="stroke:#009af9; stroke-linecap:round; stroke-linejoin:round; stroke-width:4; stroke-opacity:1; fill:none" points="1927.35,1124.23 1927.35,826.344 "/>
<polyline clip-path="url(#clip591)" style="stroke:#009af9; stroke-linecap:round; stroke-linejoin:round; stroke-width:4; stroke-opacity:1; fill:none" points="2049.59,1139.51 2049.59,758.132 "/>
<polyline clip-path="url(#clip591)" style="stroke:#009af9; stroke-linecap:round; stroke-linejoin:round; stroke-width:4; stroke-opacity:1; fill:none" points="2171.84,966.624 2171.84,647.229 "/>
<polyline clip-path="url(#clip591)" style="stroke:#009af9; stroke-linecap:round; stroke-linejoin:round; stroke-width:4; stroke-opacity:1; fill:none" points="2294.08,743.505 2294.08,89.8529 "/>
<line clip-path="url(#clip591)" x1="354.195" y1="1510.15" x2="322.195" y2="1510.15" style="stroke:#009af9; stroke-width:4; stroke-opacity:1"/>
<line clip-path="url(#clip591)" x1="354.195" y1="1206.12" x2="322.195" y2="1206.12" style="stroke:#009af9; stroke-width:4; stroke-opacity:1"/>
<line clip-path="url(#clip591)" x1="476.438" y1="1508.91" x2="444.438" y2="1508.91" style="stroke:#009af9; stroke-width:4; stroke-opacity:1"/>
<line clip-path="url(#clip591)" x1="476.438" y1="1128.33" x2="444.438" y2="1128.33" style="stroke:#009af9; stroke-width:4; stroke-opacity:1"/>
<line clip-path="url(#clip591)" x1="598.681" y1="1362.49" x2="566.681" y2="1362.49" style="stroke:#009af9; stroke-width:4; stroke-opacity:1"/>
<line clip-path="url(#clip591)" x1="598.681" y1="1174.02" x2="566.681" y2="1174.02" style="stroke:#009af9; stroke-width:4; stroke-opacity:1"/>
<line clip-path="url(#clip591)" x1="720.924" y1="1453.4" x2="688.924" y2="1453.4" style="stroke:#009af9; stroke-width:4; stroke-opacity:1"/>
<line clip-path="url(#clip591)" x1="720.924" y1="1049.79" x2="688.924" y2="1049.79" style="stroke:#009af9; stroke-width:4; stroke-opacity:1"/>
<line clip-path="url(#clip591)" x1="843.166" y1="1245.14" x2="811.166" y2="1245.14" style="stroke:#009af9; stroke-width:4; stroke-opacity:1"/>
<line clip-path="url(#clip591)" x1="843.166" y1="1105.88" x2="811.166" y2="1105.88" style="stroke:#009af9; stroke-width:4; stroke-opacity:1"/>
<line clip-path="url(#clip591)" x1="965.409" y1="1202.63" x2="933.409" y2="1202.63" style="stroke:#009af9; stroke-width:4; stroke-opacity:1"/>
<line clip-path="url(#clip591)" x1="965.409" y1="1118.9" x2="933.409" y2="1118.9" style="stroke:#009af9; stroke-width:4; stroke-opacity:1"/>
<line clip-path="url(#clip591)" x1="1087.65" y1="1271.12" x2="1055.65" y2="1271.12" style="stroke:#009af9; stroke-width:4; stroke-opacity:1"/>
<line clip-path="url(#clip591)" x1="1087.65" y1="1048.61" x2="1055.65" y2="1048.61" style="stroke:#009af9; stroke-width:4; stroke-opacity:1"/>
<line clip-path="url(#clip591)" x1="1209.89" y1="1235.99" x2="1177.89" y2="1235.99" style="stroke:#009af9; stroke-width:4; stroke-opacity:1"/>
<line clip-path="url(#clip591)" x1="1209.89" y1="1059.81" x2="1177.89" y2="1059.81" style="stroke:#009af9; stroke-width:4; stroke-opacity:1"/>
<line clip-path="url(#clip591)" x1="1332.14" y1="1391.75" x2="1300.14" y2="1391.75" style="stroke:#009af9; stroke-width:4; stroke-opacity:1"/>
<line clip-path="url(#clip591)" x1="1332.14" y1="886.374" x2="1300.14" y2="886.374" style="stroke:#009af9; stroke-width:4; stroke-opacity:1"/>
<line clip-path="url(#clip591)" x1="1454.38" y1="1242.08" x2="1422.38" y2="1242.08" style="stroke:#009af9; stroke-width:4; stroke-opacity:1"/>
<line clip-path="url(#clip591)" x1="1454.38" y1="997.972" x2="1422.38" y2="997.972" style="stroke:#009af9; stroke-width:4; stroke-opacity:1"/>
<line clip-path="url(#clip591)" x1="1576.62" y1="1273.71" x2="1544.62" y2="1273.71" style="stroke:#009af9; stroke-width:4; stroke-opacity:1"/>
<line clip-path="url(#clip591)" x1="1576.62" y1="948.582" x2="1544.62" y2="948.582" style="stroke:#009af9; stroke-width:4; stroke-opacity:1"/>
<line clip-path="url(#clip591)" x1="1698.87" y1="1282.32" x2="1666.87" y2="1282.32" style="stroke:#009af9; stroke-width:4; stroke-opacity:1"/>
<line clip-path="url(#clip591)" x1="1698.87" y1="911.932" x2="1666.87" y2="911.932" style="stroke:#009af9; stroke-width:4; stroke-opacity:1"/>
<line clip-path="url(#clip591)" x1="1821.11" y1="1220.12" x2="1789.11" y2="1220.12" style="stroke:#009af9; stroke-width:4; stroke-opacity:1"/>
<line clip-path="url(#clip591)" x1="1821.11" y1="898.967" x2="1789.11" y2="898.967" style="stroke:#009af9; stroke-width:4; stroke-opacity:1"/>
<line clip-path="url(#clip591)" x1="1943.35" y1="1124.23" x2="1911.35" y2="1124.23" style="stroke:#009af9; stroke-width:4; stroke-opacity:1"/>
<line clip-path="url(#clip591)" x1="1943.35" y1="826.344" x2="1911.35" y2="826.344" style="stroke:#009af9; stroke-width:4; stroke-opacity:1"/>
<line clip-path="url(#clip591)" x1="2065.59" y1="1139.51" x2="2033.59" y2="1139.51" style="stroke:#009af9; stroke-width:4; stroke-opacity:1"/>
<line clip-path="url(#clip591)" x1="2065.59" y1="758.132" x2="2033.59" y2="758.132" style="stroke:#009af9; stroke-width:4; stroke-opacity:1"/>
<line clip-path="url(#clip591)" x1="2187.84" y1="966.624" x2="2155.84" y2="966.624" style="stroke:#009af9; stroke-width:4; stroke-opacity:1"/>
<line clip-path="url(#clip591)" x1="2187.84" y1="647.229" x2="2155.84" y2="647.229" style="stroke:#009af9; stroke-width:4; stroke-opacity:1"/>
<line clip-path="url(#clip591)" x1="2310.08" y1="743.505" x2="2278.08" y2="743.505" style="stroke:#009af9; stroke-width:4; stroke-opacity:1"/>
<line clip-path="url(#clip591)" x1="2310.08" y1="89.8529" x2="2278.08" y2="89.8529" style="stroke:#009af9; stroke-width:4; stroke-opacity:1"/>
<circle clip-path="url(#clip591)" cx="338.195" cy="1358.13" r="14.4" fill="#009af9" fill-rule="evenodd" fill-opacity="1" stroke="none"/>
<circle clip-path="url(#clip591)" cx="460.438" cy="1318.62" r="14.4" fill="#009af9" fill-rule="evenodd" fill-opacity="1" stroke="none"/>
<circle clip-path="url(#clip591)" cx="582.681" cy="1268.26" r="14.4" fill="#009af9" fill-rule="evenodd" fill-opacity="1" stroke="none"/>
<circle clip-path="url(#clip591)" cx="704.924" cy="1251.6" r="14.4" fill="#009af9" fill-rule="evenodd" fill-opacity="1" stroke="none"/>
<circle clip-path="url(#clip591)" cx="827.166" cy="1175.51" r="14.4" fill="#009af9" fill-rule="evenodd" fill-opacity="1" stroke="none"/>
<circle clip-path="url(#clip591)" cx="949.409" cy="1160.76" r="14.4" fill="#009af9" fill-rule="evenodd" fill-opacity="1" stroke="none"/>
<circle clip-path="url(#clip591)" cx="1071.65" cy="1159.86" r="14.4" fill="#009af9" fill-rule="evenodd" fill-opacity="1" stroke="none"/>
<circle clip-path="url(#clip591)" cx="1193.89" cy="1147.9" r="14.4" fill="#009af9" fill-rule="evenodd" fill-opacity="1" stroke="none"/>
<circle clip-path="url(#clip591)" cx="1316.14" cy="1139.06" r="14.4" fill="#009af9" fill-rule="evenodd" fill-opacity="1" stroke="none"/>
<circle clip-path="url(#clip591)" cx="1438.38" cy="1120.03" r="14.4" fill="#009af9" fill-rule="evenodd" fill-opacity="1" stroke="none"/>
<circle clip-path="url(#clip591)" cx="1560.62" cy="1111.15" r="14.4" fill="#009af9" fill-rule="evenodd" fill-opacity="1" stroke="none"/>
<circle clip-path="url(#clip591)" cx="1682.87" cy="1097.13" r="14.4" fill="#009af9" fill-rule="evenodd" fill-opacity="1" stroke="none"/>
<circle clip-path="url(#clip591)" cx="1805.11" cy="1059.55" r="14.4" fill="#009af9" fill-rule="evenodd" fill-opacity="1" stroke="none"/>
<circle clip-path="url(#clip591)" cx="1927.35" cy="975.288" r="14.4" fill="#009af9" fill-rule="evenodd" fill-opacity="1" stroke="none"/>
<circle clip-path="url(#clip591)" cx="2049.59" cy="948.82" r="14.4" fill="#009af9" fill-rule="evenodd" fill-opacity="1" stroke="none"/>
<circle clip-path="url(#clip591)" cx="2171.84" cy="806.927" r="14.4" fill="#009af9" fill-rule="evenodd" fill-opacity="1" stroke="none"/>
<circle clip-path="url(#clip591)" cx="2294.08" cy="416.679" r="14.4" fill="#009af9" fill-rule="evenodd" fill-opacity="1" stroke="none"/>
<path clip-path="url(#clip591)" d="M338.195 1373.24 L460.438 1373.24 L582.681 1373.24 L704.924 1373.24 L827.166 1373.24 L949.409 1373.24 L1071.65 1373.24 L1193.89 1373.24 L1316.14 1373.24 L1438.38 1373.24 L1560.62 1373.24 L1682.87 1373.24 L1805.11 1373.24 L1927.35 1373.24 L2049.59 1373.24 L2171.84 1373.24 L2294.08 1373.24 L2294.08 1207.76 L2171.84 1207.76 L2049.59 1207.76 L1927.35 1207.76 L1805.11 1207.76 L1682.87 1207.76 L1560.62 1207.76 L1438.38 1207.76 L1316.14 1207.76 L1193.89 1207.76 L1071.65 1207.76 L949.409 1207.76 L827.166 1207.76 L704.924 1207.76 L582.681 1207.76 L460.438 1207.76 L338.195 1207.76  Z" fill="#e26f46" fill-rule="evenodd" fill-opacity="0.6"/>
<polyline clip-path="url(#clip591)" style="stroke:#e26f46; stroke-linecap:round; stroke-linejoin:round; stroke-width:4; stroke-opacity:0; fill:none" points="338.195,1373.24 460.438,1373.24 582.681,1373.24 704.924,1373.24 827.166,1373.24 949.409,1373.24 1071.65,1373.24 1193.89,1373.24 1316.14,1373.24 1438.38,1373.24 1560.62,1373.24 1682.87,1373.24 1805.11,1373.24 1927.35,1373.24 2049.59,1373.24 2171.84,1373.24 2294.08,1373.24 "/>
<polyline clip-path="url(#clip591)" style="stroke:#000000; stroke-linecap:round; stroke-linejoin:round; stroke-width:4; stroke-opacity:1; fill:none" stroke-dasharray="2, 4" points="338.195,1282.79 460.438,1282.79 582.681,1282.79 704.924,1282.79 827.166,1282.79 949.409,1282.79 1071.65,1282.79 1193.89,1282.79 1316.14,1282.79 1438.38,1282.79 1560.62,1282.79 1682.87,1282.79 1805.11,1282.79 1927.35,1282.79 2049.59,1282.79 2171.84,1282.79 2294.08,1282.79 "/>
<path clip-path="url(#clip590)" d="M348.627 252.948 L1321.66 252.948 L1321.66 97.4278 L348.627 97.4278  Z" fill="#ffffff" fill-rule="evenodd" fill-opacity="1"/>
<polyline clip-path="url(#clip590)" style="stroke:#ffffff; stroke-linecap:round; stroke-linejoin:round; stroke-width:4; stroke-opacity:1; fill:none" points="348.627,252.948 1321.66,252.948 1321.66,97.4278 348.627,97.4278 348.627,252.948 "/>
<circle clip-path="url(#clip590)" cx="440.771" cy="149.268" r="20.48" fill="#009af9" fill-rule="evenodd" fill-opacity="1" stroke="none"/>
<path clip-path="url(#clip590)" d="M537.59 135.83 L537.59 162.705 L543.238 162.705 Q550.391 162.705 553.701 159.465 Q557.035 156.224 557.035 149.233 Q557.035 142.289 553.701 139.071 Q550.391 135.83 543.238 135.83 L537.59 135.83 M532.914 131.988 L542.521 131.988 Q552.567 131.988 557.266 136.178 Q561.965 140.344 561.965 149.233 Q561.965 158.168 557.243 162.358 Q552.521 166.548 542.521 166.548 L532.914 166.548 L532.914 131.988 Z" fill="#000000" fill-rule="nonzero" fill-opacity="1" /><path clip-path="url(#clip590)" d="M581.016 153.515 Q575.854 153.515 573.863 154.696 Q571.873 155.877 571.873 158.724 Q571.873 160.992 573.354 162.335 Q574.859 163.654 577.428 163.654 Q580.97 163.654 583.099 161.154 Q585.252 158.631 585.252 154.465 L585.252 153.515 L581.016 153.515 M589.511 151.756 L589.511 166.548 L585.252 166.548 L585.252 162.613 Q583.794 164.974 581.618 166.108 Q579.442 167.219 576.294 167.219 Q572.312 167.219 569.951 164.997 Q567.613 162.752 567.613 159.002 Q567.613 154.627 570.53 152.404 Q573.47 150.182 579.28 150.182 L585.252 150.182 L585.252 149.766 Q585.252 146.826 583.308 145.228 Q581.386 143.608 577.891 143.608 Q575.669 143.608 573.562 144.141 Q571.456 144.673 569.511 145.738 L569.511 141.803 Q571.849 140.9 574.048 140.46 Q576.247 139.997 578.331 139.997 Q583.956 139.997 586.734 142.914 Q589.511 145.83 589.511 151.756 Z" fill="#000000" fill-rule="nonzero" fill-opacity="1" /><path clip-path="url(#clip590)" d="M602.497 133.261 L602.497 140.622 L611.27 140.622 L611.27 143.932 L602.497 143.932 L602.497 158.006 Q602.497 161.177 603.354 162.08 Q604.233 162.983 606.895 162.983 L611.27 162.983 L611.27 166.548 L606.895 166.548 Q601.965 166.548 600.09 164.719 Q598.215 162.867 598.215 158.006 L598.215 143.932 L595.09 143.932 L595.09 140.622 L598.215 140.622 L598.215 133.261 L602.497 133.261 Z" fill="#000000" fill-rule="nonzero" fill-opacity="1" /><path clip-path="url(#clip590)" d="M628.655 153.515 Q623.493 153.515 621.502 154.696 Q619.511 155.877 619.511 158.724 Q619.511 160.992 620.993 162.335 Q622.497 163.654 625.067 163.654 Q628.608 163.654 630.738 161.154 Q632.891 158.631 632.891 154.465 L632.891 153.515 L628.655 153.515 M637.15 151.756 L637.15 166.548 L632.891 166.548 L632.891 162.613 Q631.432 164.974 629.256 166.108 Q627.081 167.219 623.932 167.219 Q619.951 167.219 617.59 164.997 Q615.252 162.752 615.252 159.002 Q615.252 154.627 618.169 152.404 Q621.108 150.182 626.919 150.182 L632.891 150.182 L632.891 149.766 Q632.891 146.826 630.946 145.228 Q629.025 143.608 625.53 143.608 Q623.307 143.608 621.201 144.141 Q619.094 144.673 617.15 145.738 L617.15 141.803 Q619.488 140.9 621.687 140.46 Q623.886 139.997 625.969 139.997 Q631.594 139.997 634.372 142.914 Q637.15 145.83 637.15 151.756 Z" fill="#000000" fill-rule="nonzero" fill-opacity="1" /><path clip-path="url(#clip590)" d="M671.224 130.576 Q668.122 135.9 666.617 141.108 Q665.113 146.316 665.113 151.664 Q665.113 157.011 666.617 162.265 Q668.145 167.497 671.224 172.798 L667.52 172.798 Q664.048 167.358 662.312 162.103 Q660.599 156.849 660.599 151.664 Q660.599 146.502 662.312 141.27 Q664.025 136.039 667.52 130.576 L671.224 130.576 Z" fill="#000000" fill-rule="nonzero" fill-opacity="1" /><path clip-path="url(#clip590)" d="M689.534 143.608 Q686.108 143.608 684.117 146.293 Q682.127 148.955 682.127 153.608 Q682.127 158.261 684.094 160.946 Q686.085 163.608 689.534 163.608 Q692.937 163.608 694.927 160.923 Q696.918 158.238 696.918 153.608 Q696.918 149.002 694.927 146.316 Q692.937 143.608 689.534 143.608 M689.534 139.997 Q695.089 139.997 698.261 143.608 Q701.432 147.219 701.432 153.608 Q701.432 159.974 698.261 163.608 Q695.089 167.219 689.534 167.219 Q683.955 167.219 680.784 163.608 Q677.636 159.974 677.636 153.608 Q677.636 147.219 680.784 143.608 Q683.955 139.997 689.534 139.997 Z" fill="#000000" fill-rule="nonzero" fill-opacity="1" /><path clip-path="url(#clip590)" d="M727.103 153.608 Q727.103 148.909 725.159 146.247 Q723.237 143.562 719.858 143.562 Q716.478 143.562 714.534 146.247 Q712.612 148.909 712.612 153.608 Q712.612 158.307 714.534 160.992 Q716.478 163.654 719.858 163.654 Q723.237 163.654 725.159 160.992 Q727.103 158.307 727.103 153.608 M712.612 144.557 Q713.955 142.242 715.992 141.131 Q718.052 139.997 720.899 139.997 Q725.622 139.997 728.561 143.747 Q731.524 147.497 731.524 153.608 Q731.524 159.719 728.561 163.469 Q725.622 167.219 720.899 167.219 Q718.052 167.219 715.992 166.108 Q713.955 164.974 712.612 162.659 L712.612 166.548 L708.33 166.548 L708.33 130.529 L712.612 130.529 L712.612 144.557 Z" fill="#000000" fill-rule="nonzero" fill-opacity="1" /><path clip-path="url(#clip590)" d="M755.112 141.386 L755.112 145.414 Q753.307 144.488 751.362 144.025 Q749.418 143.562 747.335 143.562 Q744.163 143.562 742.566 144.534 Q740.992 145.506 740.992 147.451 Q740.992 148.932 742.126 149.789 Q743.26 150.622 746.686 151.386 L748.145 151.71 Q752.682 152.682 754.58 154.465 Q756.501 156.224 756.501 159.395 Q756.501 163.006 753.631 165.113 Q750.784 167.219 745.784 167.219 Q743.7 167.219 741.432 166.802 Q739.186 166.409 736.686 165.599 L736.686 161.201 Q739.048 162.427 741.339 163.052 Q743.631 163.654 745.876 163.654 Q748.885 163.654 750.506 162.636 Q752.126 161.594 752.126 159.719 Q752.126 157.983 750.946 157.057 Q749.788 156.131 745.83 155.275 L744.348 154.928 Q740.39 154.094 738.631 152.381 Q736.872 150.645 736.872 147.636 Q736.872 143.978 739.464 141.988 Q742.057 139.997 746.825 139.997 Q749.186 139.997 751.27 140.344 Q753.353 140.691 755.112 141.386 Z" fill="#000000" fill-rule="nonzero" fill-opacity="1" /><path clip-path="url(#clip590)" d="M785.459 152.52 L785.459 154.603 L765.876 154.603 Q766.154 159.002 768.515 161.316 Q770.899 163.608 775.135 163.608 Q777.589 163.608 779.881 163.006 Q782.195 162.404 784.464 161.201 L784.464 165.228 Q782.172 166.201 779.765 166.71 Q777.358 167.219 774.881 167.219 Q768.677 167.219 765.043 163.608 Q761.432 159.997 761.432 153.84 Q761.432 147.474 764.858 143.747 Q768.307 139.997 774.14 139.997 Q779.371 139.997 782.404 143.377 Q785.459 146.733 785.459 152.52 M781.2 151.27 Q781.154 147.775 779.233 145.691 Q777.334 143.608 774.186 143.608 Q770.621 143.608 768.469 145.622 Q766.339 147.636 766.015 151.293 L781.2 151.27 Z" fill="#000000" fill-rule="nonzero" fill-opacity="1" /><path clip-path="url(#clip590)" d="M807.473 144.603 Q806.756 144.187 805.899 144.002 Q805.066 143.793 804.047 143.793 Q800.436 143.793 798.492 146.154 Q796.57 148.492 796.57 152.89 L796.57 166.548 L792.288 166.548 L792.288 140.622 L796.57 140.622 L796.57 144.65 Q797.913 142.289 800.066 141.154 Q802.218 139.997 805.297 139.997 Q805.737 139.997 806.269 140.066 Q806.802 140.113 807.45 140.229 L807.473 144.603 Z" fill="#000000" fill-rule="nonzero" fill-opacity="1" /><path clip-path="url(#clip590)" d="M808.885 140.622 L813.399 140.622 L821.501 162.381 L829.603 140.622 L834.116 140.622 L824.394 166.548 L818.607 166.548 L808.885 140.622 Z" fill="#000000" fill-rule="nonzero" fill-opacity="1" /><path clip-path="url(#clip590)" d="M862.172 152.52 L862.172 154.603 L842.589 154.603 Q842.866 159.002 845.228 161.316 Q847.612 163.608 851.848 163.608 Q854.302 163.608 856.593 163.006 Q858.908 162.404 861.177 161.201 L861.177 165.228 Q858.885 166.201 856.477 166.71 Q854.07 167.219 851.593 167.219 Q845.39 167.219 841.755 163.608 Q838.144 159.997 838.144 153.84 Q838.144 147.474 841.57 143.747 Q845.019 139.997 850.852 139.997 Q856.084 139.997 859.116 143.377 Q862.172 146.733 862.172 152.52 M857.913 151.27 Q857.866 147.775 855.945 145.691 Q854.047 143.608 850.899 143.608 Q847.334 143.608 845.181 145.622 Q843.052 147.636 842.728 151.293 L857.913 151.27 Z" fill="#000000" fill-rule="nonzero" fill-opacity="1" /><path clip-path="url(#clip590)" d="M886.223 144.557 L886.223 130.529 L890.482 130.529 L890.482 166.548 L886.223 166.548 L886.223 162.659 Q884.88 164.974 882.82 166.108 Q880.783 167.219 877.913 167.219 Q873.213 167.219 870.251 163.469 Q867.311 159.719 867.311 153.608 Q867.311 147.497 870.251 143.747 Q873.213 139.997 877.913 139.997 Q880.783 139.997 882.82 141.131 Q884.88 142.242 886.223 144.557 M871.709 153.608 Q871.709 158.307 873.63 160.992 Q875.575 163.654 878.954 163.654 Q882.334 163.654 884.278 160.992 Q886.223 158.307 886.223 153.608 Q886.223 148.909 884.278 146.247 Q882.334 143.562 878.954 143.562 Q875.575 143.562 873.63 146.247 Q871.709 148.909 871.709 153.608 Z" fill="#000000" fill-rule="nonzero" fill-opacity="1" /><path clip-path="url(#clip590)" d="M926.107 153.515 Q920.945 153.515 918.954 154.696 Q916.963 155.877 916.963 158.724 Q916.963 160.992 918.445 162.335 Q919.949 163.654 922.519 163.654 Q926.06 163.654 928.19 161.154 Q930.343 158.631 930.343 154.465 L930.343 153.515 L926.107 153.515 M934.602 151.756 L934.602 166.548 L930.343 166.548 L930.343 162.613 Q928.884 164.974 926.709 166.108 Q924.533 167.219 921.385 167.219 Q917.403 167.219 915.042 164.997 Q912.704 162.752 912.704 159.002 Q912.704 154.627 915.621 152.404 Q918.56 150.182 924.371 150.182 L930.343 150.182 L930.343 149.766 Q930.343 146.826 928.398 145.228 Q926.477 143.608 922.982 143.608 Q920.76 143.608 918.653 144.141 Q916.547 144.673 914.602 145.738 L914.602 141.803 Q916.94 140.9 919.139 140.46 Q921.338 139.997 923.422 139.997 Q929.047 139.997 931.824 142.914 Q934.602 145.83 934.602 151.756 Z" fill="#000000" fill-rule="nonzero" fill-opacity="1" /><path clip-path="url(#clip590)" d="M960.435 153.284 Q960.435 148.654 958.514 146.108 Q956.616 143.562 953.167 143.562 Q949.741 143.562 947.82 146.108 Q945.921 148.654 945.921 153.284 Q945.921 157.89 947.82 160.437 Q949.741 162.983 953.167 162.983 Q956.616 162.983 958.514 160.437 Q960.435 157.89 960.435 153.284 M964.694 163.33 Q964.694 169.951 961.755 173.168 Q958.815 176.409 952.75 176.409 Q950.505 176.409 948.514 176.062 Q946.523 175.738 944.648 175.043 L944.648 170.9 Q946.523 171.918 948.352 172.404 Q950.181 172.89 952.079 172.89 Q956.269 172.89 958.352 170.691 Q960.435 168.515 960.435 164.094 L960.435 161.988 Q959.116 164.279 957.056 165.414 Q954.995 166.548 952.125 166.548 Q947.357 166.548 944.44 162.914 Q941.523 159.279 941.523 153.284 Q941.523 147.266 944.44 143.631 Q947.357 139.997 952.125 139.997 Q954.995 139.997 957.056 141.131 Q959.116 142.266 960.435 144.557 L960.435 140.622 L964.694 140.622 L964.694 163.33 Z" fill="#000000" fill-rule="nonzero" fill-opacity="1" /><path clip-path="url(#clip590)" d="M995.643 152.52 L995.643 154.603 L976.06 154.603 Q976.338 159.002 978.699 161.316 Q981.083 163.608 985.319 163.608 Q987.773 163.608 990.065 163.006 Q992.38 162.404 994.648 161.201 L994.648 165.228 Q992.356 166.201 989.949 166.71 Q987.542 167.219 985.065 167.219 Q978.861 167.219 975.227 163.608 Q971.616 159.997 971.616 153.84 Q971.616 147.474 975.042 143.747 Q978.491 139.997 984.324 139.997 Q989.555 139.997 992.588 143.377 Q995.643 146.733 995.643 152.52 M991.384 151.27 Q991.338 147.775 989.417 145.691 Q987.518 143.608 984.37 143.608 Q980.805 143.608 978.653 145.622 Q976.523 147.636 976.199 151.293 L991.384 151.27 Z" fill="#000000" fill-rule="nonzero" fill-opacity="1" /><path clip-path="url(#clip590)" d="M1019.16 141.386 L1019.16 145.414 Q1017.36 144.488 1015.41 144.025 Q1013.47 143.562 1011.38 143.562 Q1008.21 143.562 1006.62 144.534 Q1005.04 145.506 1005.04 147.451 Q1005.04 148.932 1006.18 149.789 Q1007.31 150.622 1010.74 151.386 L1012.19 151.71 Q1016.73 152.682 1018.63 154.465 Q1020.55 156.224 1020.55 159.395 Q1020.55 163.006 1017.68 165.113 Q1014.83 167.219 1009.83 167.219 Q1007.75 167.219 1005.48 166.802 Q1003.24 166.409 1000.74 165.599 L1000.74 161.201 Q1003.1 162.427 1005.39 163.052 Q1007.68 163.654 1009.93 163.654 Q1012.93 163.654 1014.56 162.636 Q1016.18 161.594 1016.18 159.719 Q1016.18 157.983 1015 157.057 Q1013.84 156.131 1009.88 155.275 L1008.4 154.928 Q1004.44 154.094 1002.68 152.381 Q1000.92 150.645 1000.92 147.636 Q1000.92 143.978 1003.51 141.988 Q1006.11 139.997 1010.87 139.997 Q1013.24 139.997 1015.32 140.344 Q1017.4 140.691 1019.16 141.386 Z" fill="#000000" fill-rule="nonzero" fill-opacity="1" /><path clip-path="url(#clip590)" d="M1026.66 130.576 L1030.37 130.576 Q1033.84 136.039 1035.55 141.27 Q1037.29 146.502 1037.29 151.664 Q1037.29 156.849 1035.55 162.103 Q1033.84 167.358 1030.37 172.798 L1026.66 172.798 Q1029.74 167.497 1031.25 162.265 Q1032.77 157.011 1032.77 151.664 Q1032.77 146.316 1031.25 141.108 Q1029.74 135.9 1026.66 130.576 Z" fill="#000000" fill-rule="nonzero" fill-opacity="1" /><path clip-path="url(#clip590)" d="M371.663 221.844 L509.878 221.844 L509.878 180.372 L371.663 180.372 L371.663 221.844  Z" fill="#e26f46" fill-rule="evenodd" fill-opacity="0.6"/>
<polyline clip-path="url(#clip590)" style="stroke:#e26f46; stroke-linecap:round; stroke-linejoin:round; stroke-width:4; stroke-opacity:0; fill:none" points="371.663,180.372 509.878,180.372 "/>
<path clip-path="url(#clip590)" d="M532.914 183.828 L539.882 183.828 L548.701 207.346 L557.567 183.828 L564.535 183.828 L564.535 218.388 L559.974 218.388 L559.974 188.041 L551.062 211.744 L546.363 211.744 L537.451 188.041 L537.451 218.388 L532.914 218.388 L532.914 183.828 Z" fill="#000000" fill-rule="nonzero" fill-opacity="1" /><path clip-path="url(#clip590)" d="M583.678 195.448 Q580.252 195.448 578.261 198.133 Q576.271 200.795 576.271 205.448 Q576.271 210.101 578.238 212.786 Q580.229 215.448 583.678 215.448 Q587.081 215.448 589.071 212.763 Q591.062 210.078 591.062 205.448 Q591.062 200.842 589.071 198.156 Q587.081 195.448 583.678 195.448 M583.678 191.837 Q589.234 191.837 592.405 195.448 Q595.576 199.059 595.576 205.448 Q595.576 211.814 592.405 215.448 Q589.234 219.059 583.678 219.059 Q578.099 219.059 574.928 215.448 Q571.78 211.814 571.78 205.448 Q571.78 199.059 574.928 195.448 Q578.099 191.837 583.678 191.837 Z" fill="#000000" fill-rule="nonzero" fill-opacity="1" /><path clip-path="url(#clip590)" d="M619.696 196.397 L619.696 182.369 L623.956 182.369 L623.956 218.388 L619.696 218.388 L619.696 214.499 Q618.354 216.814 616.294 217.948 Q614.257 219.059 611.386 219.059 Q606.687 219.059 603.724 215.309 Q600.784 211.559 600.784 205.448 Q600.784 199.337 603.724 195.587 Q606.687 191.837 611.386 191.837 Q614.257 191.837 616.294 192.971 Q618.354 194.082 619.696 196.397 M605.183 205.448 Q605.183 210.147 607.104 212.832 Q609.048 215.494 612.428 215.494 Q615.807 215.494 617.752 212.832 Q619.696 210.147 619.696 205.448 Q619.696 200.749 617.752 198.087 Q615.807 195.402 612.428 195.402 Q609.048 195.402 607.104 198.087 Q605.183 200.749 605.183 205.448 Z" fill="#000000" fill-rule="nonzero" fill-opacity="1" /><path clip-path="url(#clip590)" d="M654.904 204.36 L654.904 206.443 L635.321 206.443 Q635.599 210.842 637.96 213.156 Q640.344 215.448 644.58 215.448 Q647.034 215.448 649.326 214.846 Q651.641 214.244 653.909 213.041 L653.909 217.068 Q651.617 218.041 649.21 218.55 Q646.803 219.059 644.326 219.059 Q638.122 219.059 634.488 215.448 Q630.877 211.837 630.877 205.68 Q630.877 199.314 634.303 195.587 Q637.752 191.837 643.585 191.837 Q648.817 191.837 651.849 195.217 Q654.904 198.573 654.904 204.36 M650.645 203.11 Q650.599 199.615 648.678 197.531 Q646.78 195.448 643.631 195.448 Q640.067 195.448 637.914 197.462 Q635.784 199.476 635.46 203.133 L650.645 203.11 Z" fill="#000000" fill-rule="nonzero" fill-opacity="1" /><path clip-path="url(#clip590)" d="M661.895 182.369 L666.154 182.369 L666.154 218.388 L661.895 218.388 L661.895 182.369 Z" fill="#000000" fill-rule="nonzero" fill-opacity="1" /><path clip-path="url(#clip590)" d="M700.367 182.416 Q697.265 187.74 695.761 192.948 Q694.256 198.156 694.256 203.504 Q694.256 208.851 695.761 214.105 Q697.288 219.337 700.367 224.638 L696.664 224.638 Q693.191 219.198 691.455 213.943 Q689.742 208.689 689.742 203.504 Q689.742 198.342 691.455 193.11 Q693.168 187.879 696.664 182.416 L700.367 182.416 Z" fill="#000000" fill-rule="nonzero" fill-opacity="1" /><path clip-path="url(#clip590)" d="M719.812 199.244 Q716.663 199.244 714.812 201.397 Q712.983 203.55 712.983 207.3 Q712.983 211.027 714.812 213.203 Q716.663 215.355 719.812 215.355 Q722.96 215.355 724.788 213.203 Q726.64 211.027 726.64 207.3 Q726.64 203.55 724.788 201.397 Q722.96 199.244 719.812 199.244 M729.094 184.592 L729.094 188.851 Q727.335 188.018 725.529 187.578 Q723.747 187.138 721.987 187.138 Q717.358 187.138 714.904 190.263 Q712.474 193.388 712.126 199.707 Q713.492 197.693 715.552 196.629 Q717.612 195.541 720.089 195.541 Q725.298 195.541 728.307 198.712 Q731.339 201.86 731.339 207.3 Q731.339 212.624 728.191 215.842 Q725.043 219.059 719.812 219.059 Q713.816 219.059 710.645 214.476 Q707.474 209.869 707.474 201.143 Q707.474 192.948 711.362 188.087 Q715.251 183.203 721.802 183.203 Q723.562 183.203 725.344 183.55 Q727.149 183.897 729.094 184.592 Z" fill="#000000" fill-rule="nonzero" fill-opacity="1" /><path clip-path="url(#clip590)" d="M739.441 183.828 L757.797 183.828 L757.797 187.763 L743.723 187.763 L743.723 196.235 Q744.742 195.888 745.76 195.726 Q746.779 195.541 747.797 195.541 Q753.584 195.541 756.964 198.712 Q760.344 201.883 760.344 207.3 Q760.344 212.879 756.872 215.98 Q753.399 219.059 747.08 219.059 Q744.904 219.059 742.635 218.689 Q740.39 218.318 737.983 217.578 L737.983 212.879 Q740.066 214.013 742.288 214.568 Q744.51 215.124 746.987 215.124 Q750.992 215.124 753.33 213.017 Q755.668 210.911 755.668 207.3 Q755.668 203.689 753.33 201.582 Q750.992 199.476 746.987 199.476 Q745.112 199.476 743.237 199.893 Q741.385 200.309 739.441 201.189 L739.441 183.828 Z" fill="#000000" fill-rule="nonzero" fill-opacity="1" /><path clip-path="url(#clip590)" d="M769.557 212.508 L774.441 212.508 L774.441 218.388 L769.557 218.388 L769.557 212.508 Z" fill="#000000" fill-rule="nonzero" fill-opacity="1" /><path clip-path="url(#clip590)" d="M797.473 187.902 L785.668 206.351 L797.473 206.351 L797.473 187.902 M796.246 183.828 L802.126 183.828 L802.126 206.351 L807.056 206.351 L807.056 210.24 L802.126 210.24 L802.126 218.388 L797.473 218.388 L797.473 210.24 L781.871 210.24 L781.871 205.726 L796.246 183.828 Z" fill="#000000" fill-rule="nonzero" fill-opacity="1" /><path clip-path="url(#clip590)" d="M824.788 186.907 Q821.177 186.907 819.348 190.471 Q817.542 194.013 817.542 201.143 Q817.542 208.249 819.348 211.814 Q821.177 215.355 824.788 215.355 Q828.422 215.355 830.228 211.814 Q832.056 208.249 832.056 201.143 Q832.056 194.013 830.228 190.471 Q828.422 186.907 824.788 186.907 M824.788 183.203 Q830.598 183.203 833.654 187.809 Q836.732 192.393 836.732 201.143 Q836.732 209.869 833.654 214.476 Q830.598 219.059 824.788 219.059 Q818.978 219.059 815.899 214.476 Q812.843 209.869 812.843 201.143 Q812.843 192.393 815.899 187.809 Q818.978 183.203 824.788 183.203 Z" fill="#000000" fill-rule="nonzero" fill-opacity="1" /><path clip-path="url(#clip590)" d="M848.978 214.453 L865.297 214.453 L865.297 218.388 L843.353 218.388 L843.353 214.453 Q846.015 211.698 850.598 207.068 Q855.204 202.416 856.385 201.073 Q858.63 198.55 859.51 196.814 Q860.413 195.055 860.413 193.365 Q860.413 190.61 858.468 188.874 Q856.547 187.138 853.445 187.138 Q851.246 187.138 848.792 187.902 Q846.362 188.666 843.584 190.217 L843.584 185.494 Q846.408 184.36 848.862 183.782 Q851.315 183.203 853.352 183.203 Q858.723 183.203 861.917 185.888 Q865.112 188.573 865.112 193.064 Q865.112 195.194 864.301 197.115 Q863.514 199.013 861.408 201.606 Q860.829 202.277 857.727 205.494 Q854.626 208.689 848.978 214.453 Z" fill="#000000" fill-rule="nonzero" fill-opacity="1" /><path clip-path="url(#clip590)" d="M906.917 188.666 L906.917 201.559 L919.81 201.559 L919.81 205.494 L906.917 205.494 L906.917 218.388 L903.028 218.388 L903.028 205.494 L890.135 205.494 L890.135 201.559 L903.028 201.559 L903.028 188.666 L906.917 188.666 Z" fill="#000000" fill-rule="nonzero" fill-opacity="1" /><path clip-path="url(#clip590)" d="M939.903 186.907 Q936.292 186.907 934.463 190.471 Q932.658 194.013 932.658 201.143 Q932.658 208.249 934.463 211.814 Q936.292 215.355 939.903 215.355 Q943.537 215.355 945.343 211.814 Q947.171 208.249 947.171 201.143 Q947.171 194.013 945.343 190.471 Q943.537 186.907 939.903 186.907 M939.903 183.203 Q945.713 183.203 948.769 187.809 Q951.847 192.393 951.847 201.143 Q951.847 209.869 948.769 214.476 Q945.713 219.059 939.903 219.059 Q934.093 219.059 931.014 214.476 Q927.959 209.869 927.959 201.143 Q927.959 192.393 931.014 187.809 Q934.093 183.203 939.903 183.203 Z" fill="#000000" fill-rule="nonzero" fill-opacity="1" /><path clip-path="url(#clip590)" d="M960.065 212.508 L964.949 212.508 L964.949 218.388 L960.065 218.388 L960.065 212.508 Z" fill="#000000" fill-rule="nonzero" fill-opacity="1" /><path clip-path="url(#clip590)" d="M985.134 186.907 Q981.523 186.907 979.694 190.471 Q977.889 194.013 977.889 201.143 Q977.889 208.249 979.694 211.814 Q981.523 215.355 985.134 215.355 Q988.768 215.355 990.574 211.814 Q992.403 208.249 992.403 201.143 Q992.403 194.013 990.574 190.471 Q988.768 186.907 985.134 186.907 M985.134 183.203 Q990.944 183.203 994 187.809 Q997.079 192.393 997.079 201.143 Q997.079 209.869 994 214.476 Q990.944 219.059 985.134 219.059 Q979.324 219.059 976.245 214.476 Q973.19 209.869 973.19 201.143 Q973.19 192.393 976.245 187.809 Q979.324 183.203 985.134 183.203 Z" fill="#000000" fill-rule="nonzero" fill-opacity="1" /><path clip-path="url(#clip590)" d="M1015.87 199.244 Q1012.73 199.244 1010.87 201.397 Q1009.05 203.55 1009.05 207.3 Q1009.05 211.027 1010.87 213.203 Q1012.73 215.355 1015.87 215.355 Q1019.02 215.355 1020.85 213.203 Q1022.7 211.027 1022.7 207.3 Q1022.7 203.55 1020.85 201.397 Q1019.02 199.244 1015.87 199.244 M1025.16 184.592 L1025.16 188.851 Q1023.4 188.018 1021.59 187.578 Q1019.81 187.138 1018.05 187.138 Q1013.42 187.138 1010.97 190.263 Q1008.54 193.388 1008.19 199.707 Q1009.56 197.693 1011.62 196.629 Q1013.68 195.541 1016.15 195.541 Q1021.36 195.541 1024.37 198.712 Q1027.4 201.86 1027.4 207.3 Q1027.4 212.624 1024.25 215.842 Q1021.11 219.059 1015.87 219.059 Q1009.88 219.059 1006.71 214.476 Q1003.54 209.869 1003.54 201.143 Q1003.54 192.948 1007.43 188.087 Q1011.31 183.203 1017.87 183.203 Q1019.62 183.203 1021.41 183.55 Q1023.21 183.897 1025.16 184.592 Z" fill="#000000" fill-rule="nonzero" fill-opacity="1" /><path clip-path="url(#clip590)" d="M1042.43 183.828 L1046.36 183.828 L1034.32 222.786 L1030.39 222.786 L1042.43 183.828 Z" fill="#000000" fill-rule="nonzero" fill-opacity="1" /><path clip-path="url(#clip590)" d="M1048.68 203.504 L1061.15 203.504 L1061.15 207.3 L1048.68 207.3 L1048.68 203.504 Z" fill="#000000" fill-rule="nonzero" fill-opacity="1" /><path clip-path="url(#clip590)" d="M1078.54 186.907 Q1074.93 186.907 1073.1 190.471 Q1071.29 194.013 1071.29 201.143 Q1071.29 208.249 1073.1 211.814 Q1074.93 215.355 1078.54 215.355 Q1082.17 215.355 1083.98 211.814 Q1085.8 208.249 1085.8 201.143 Q1085.8 194.013 1083.98 190.471 Q1082.17 186.907 1078.54 186.907 M1078.54 183.203 Q1084.35 183.203 1087.4 187.809 Q1090.48 192.393 1090.48 201.143 Q1090.48 209.869 1087.4 214.476 Q1084.35 219.059 1078.54 219.059 Q1072.73 219.059 1069.65 214.476 Q1066.59 209.869 1066.59 201.143 Q1066.59 192.393 1069.65 187.809 Q1072.73 183.203 1078.54 183.203 Z" fill="#000000" fill-rule="nonzero" fill-opacity="1" /><path clip-path="url(#clip590)" d="M1098.7 212.508 L1103.58 212.508 L1103.58 218.388 L1098.7 218.388 L1098.7 212.508 Z" fill="#000000" fill-rule="nonzero" fill-opacity="1" /><path clip-path="url(#clip590)" d="M1123.77 186.907 Q1120.16 186.907 1118.33 190.471 Q1116.52 194.013 1116.52 201.143 Q1116.52 208.249 1118.33 211.814 Q1120.16 215.355 1123.77 215.355 Q1127.4 215.355 1129.21 211.814 Q1131.04 208.249 1131.04 201.143 Q1131.04 194.013 1129.21 190.471 Q1127.4 186.907 1123.77 186.907 M1123.77 183.203 Q1129.58 183.203 1132.63 187.809 Q1135.71 192.393 1135.71 201.143 Q1135.71 209.869 1132.63 214.476 Q1129.58 219.059 1123.77 219.059 Q1117.96 219.059 1114.88 214.476 Q1111.82 209.869 1111.82 201.143 Q1111.82 192.393 1114.88 187.809 Q1117.96 183.203 1123.77 183.203 Z" fill="#000000" fill-rule="nonzero" fill-opacity="1" /><path clip-path="url(#clip590)" d="M1142.75 183.828 L1164.97 183.828 L1164.97 185.819 L1152.42 218.388 L1147.54 218.388 L1159.35 187.763 L1142.75 187.763 L1142.75 183.828 Z" fill="#000000" fill-rule="nonzero" fill-opacity="1" /><path clip-path="url(#clip590)" d="M1178.12 214.453 L1194.44 214.453 L1194.44 218.388 L1172.49 218.388 L1172.49 214.453 Q1175.16 211.698 1179.74 207.068 Q1184.35 202.416 1185.53 201.073 Q1187.77 198.55 1188.65 196.814 Q1189.55 195.055 1189.55 193.365 Q1189.55 190.61 1187.61 188.874 Q1185.69 187.138 1182.59 187.138 Q1180.39 187.138 1177.93 187.902 Q1175.5 188.666 1172.73 190.217 L1172.73 185.494 Q1175.55 184.36 1178 183.782 Q1180.46 183.203 1182.49 183.203 Q1187.86 183.203 1191.06 185.888 Q1194.25 188.573 1194.25 193.064 Q1194.25 195.194 1193.44 197.115 Q1192.66 199.013 1190.55 201.606 Q1189.97 202.277 1186.87 205.494 Q1183.77 208.689 1178.12 214.453 Z" fill="#000000" fill-rule="nonzero" fill-opacity="1" /><path clip-path="url(#clip590)" d="M1218.91 183.828 L1225.87 183.828 L1234.69 207.346 L1243.56 183.828 L1250.53 183.828 L1250.53 218.388 L1245.97 218.388 L1245.97 188.041 L1237.05 211.744 L1232.36 211.744 L1223.44 188.041 L1223.44 218.388 L1218.91 218.388 L1218.91 183.828 Z" fill="#000000" fill-rule="nonzero" fill-opacity="1" /><path clip-path="url(#clip590)" d="M1271.41 205.355 Q1266.24 205.355 1264.25 206.536 Q1262.26 207.717 1262.26 210.564 Q1262.26 212.832 1263.74 214.175 Q1265.25 215.494 1267.82 215.494 Q1271.36 215.494 1273.49 212.994 Q1275.64 210.471 1275.64 206.305 L1275.64 205.355 L1271.41 205.355 M1279.9 203.596 L1279.9 218.388 L1275.64 218.388 L1275.64 214.453 Q1274.18 216.814 1272.01 217.948 Q1269.83 219.059 1266.68 219.059 Q1262.7 219.059 1260.34 216.837 Q1258 214.592 1258 210.842 Q1258 206.467 1260.92 204.244 Q1263.86 202.022 1269.67 202.022 L1275.64 202.022 L1275.64 201.606 Q1275.64 198.666 1273.7 197.068 Q1271.78 195.448 1268.28 195.448 Q1266.06 195.448 1263.95 195.981 Q1261.85 196.513 1259.9 197.578 L1259.9 193.643 Q1262.24 192.74 1264.44 192.3 Q1266.64 191.837 1268.72 191.837 Q1274.35 191.837 1277.12 194.754 Q1279.9 197.67 1279.9 203.596 Z" fill="#000000" fill-rule="nonzero" fill-opacity="1" /><path clip-path="url(#clip590)" d="M1288 182.416 L1291.71 182.416 Q1295.18 187.879 1296.89 193.11 Q1298.63 198.342 1298.63 203.504 Q1298.63 208.689 1296.89 213.943 Q1295.18 219.198 1291.71 224.638 L1288 224.638 Q1291.08 219.337 1292.59 214.105 Q1294.11 208.851 1294.11 203.504 Q1294.11 198.156 1292.59 192.948 Q1291.08 187.74 1288 182.416 Z" fill="#000000" fill-rule="nonzero" fill-opacity="1" /></svg>
