<?xml version="1.0" encoding="utf-8"?>
<svg xmlns="http://www.w3.org/2000/svg" xmlns:xlink="http://www.w3.org/1999/xlink" width="600" height="400" viewBox="0 0 2400 1600">
<defs>
  <clipPath id="clip060">
    <rect x="0" y="0" width="2400" height="1600"/>
  </clipPath>
</defs>
<path clip-path="url(#clip060)" d="M0 1600 L2400 1600 L2400 8.88178e-14 L0 8.88178e-14  Z" fill="#ffffff" fill-rule="evenodd" fill-opacity="1"/>
<defs>
  <clipPath id="clip061">
    <rect x="279" y="47" width="2074" height="1507"/>
  </clipPath>
</defs>
<path clip-path="url(#clip060)" d="M175.445 1423.18 L2352.76 1423.18 L2352.76 47.2441 L175.445 47.2441  Z" fill="#ffffff" fill-rule="evenodd" fill-opacity="1"/>
<defs>
  <clipPath id="clip062">
    <rect x="175" y="47" width="2178" height="1377"/>
  </clipPath>
</defs>
<polyline clip-path="url(#clip062)" style="stroke:#000000; stroke-linecap:round; stroke-linejoin:round; stroke-width:2; stroke-opacity:0.1; fill:none" points="465.128,1423.18 465.128,47.2441 "/>
<polyline clip-path="url(#clip062)" style="stroke:#000000; stroke-linecap:round; stroke-linejoin:round; stroke-width:2; stroke-opacity:0.1; fill:none" points="995.844,1423.18 995.844,47.2441 "/>
<polyline clip-path="url(#clip062)" style="stroke:#000000; stroke-linecap:round; stroke-linejoin:round; stroke-width:2; stroke-opacity:0.1; fill:none" points="1526.56,1423.18 1526.56,47.2441 "/>
<polyline clip-path="url(#clip062)" style="stroke:#000000; stroke-linecap:round; stroke-linejoin:round; stroke-width:2; stroke-opacity:0.1; fill:none" points="2057.28,1423.18 2057.28,47.2441 "/>
<polyline clip-path="url(#clip062)" style="stroke:#000000; stroke-linecap:round; stroke-linejoin:round; stroke-width:2; stroke-opacity:0.1; fill:none" points="465.128,1423.18 465.128,47.2441 "/>
<polyline clip-path="url(#clip062)" style="stroke:#000000; stroke-linecap:round; stroke-linejoin:round; stroke-width:2; stroke-opacity:0.1; fill:none" points="995.844,1423.18 995.844,47.2441 "/>
<polyline clip-path="url(#clip062)" style="stroke:#000000; stroke-linecap:round; stroke-linejoin:round; stroke-width:2; stroke-opacity:0.1; fill:none" points="1526.56,1423.18 1526.56,47.2441 "/>
<polyline clip-path="url(#clip062)" style="stroke:#000000; stroke-linecap:round; stroke-linejoin:round; stroke-width:2; stroke-opacity:0.1; fill:none" points="2057.28,1423.18 2057.28,47.2441 "/>
<polyline clip-path="url(#clip062)" style="stroke:#000000; stroke-linecap:round; stroke-linejoin:round; stroke-width:2; stroke-opacity:0.1; fill:none" points="175.445,1384.28 2352.76,1384.28 "/>
<polyline clip-path="url(#clip062)" style="stroke:#000000; stroke-linecap:round; stroke-linejoin:round; stroke-width:2; stroke-opacity:0.1; fill:none" points="175.445,1157.99 2352.76,1157.99 "/>
<polyline clip-path="url(#clip062)" style="stroke:#000000; stroke-linecap:round; stroke-linejoin:round; stroke-width:2; stroke-opacity:0.1; fill:none" points="175.445,931.71 2352.76,931.71 "/>
<polyline clip-path="url(#clip062)" style="stroke:#000000; stroke-linecap:round; stroke-linejoin:round; stroke-width:2; stroke-opacity:0.1; fill:none" points="175.445,705.426 2352.76,705.426 "/>
<polyline clip-path="url(#clip062)" style="stroke:#000000; stroke-linecap:round; stroke-linejoin:round; stroke-width:2; stroke-opacity:0.1; fill:none" points="175.445,479.141 2352.76,479.141 "/>
<polyline clip-path="url(#clip062)" style="stroke:#000000; stroke-linecap:round; stroke-linejoin:round; stroke-width:2; stroke-opacity:0.1; fill:none" points="175.445,252.857 2352.76,252.857 "/>
<polyline clip-path="url(#clip062)" style="stroke:#000000; stroke-linecap:round; stroke-linejoin:round; stroke-width:2; stroke-opacity:0.1; fill:none" points="175.445,1384.28 2352.76,1384.28 "/>
<polyline clip-path="url(#clip062)" style="stroke:#000000; stroke-linecap:round; stroke-linejoin:round; stroke-width:2; stroke-opacity:0.1; fill:none" points="175.445,1157.99 2352.76,1157.99 "/>
<polyline clip-path="url(#clip062)" style="stroke:#000000; stroke-linecap:round; stroke-linejoin:round; stroke-width:2; stroke-opacity:0.1; fill:none" points="175.445,931.71 2352.76,931.71 "/>
<polyline clip-path="url(#clip062)" style="stroke:#000000; stroke-linecap:round; stroke-linejoin:round; stroke-width:2; stroke-opacity:0.1; fill:none" points="175.445,705.426 2352.76,705.426 "/>
<polyline clip-path="url(#clip062)" style="stroke:#000000; stroke-linecap:round; stroke-linejoin:round; stroke-width:2; stroke-opacity:0.1; fill:none" points="175.445,479.141 2352.76,479.141 "/>
<polyline clip-path="url(#clip062)" style="stroke:#000000; stroke-linecap:round; stroke-linejoin:round; stroke-width:2; stroke-opacity:0.1; fill:none" points="175.445,252.857 2352.76,252.857 "/>
<polyline clip-path="url(#clip060)" style="stroke:#000000; stroke-linecap:round; stroke-linejoin:round; stroke-width:4; stroke-opacity:1; fill:none" points="175.445,1423.18 2352.76,1423.18 "/>
<polyline clip-path="url(#clip060)" style="stroke:#000000; stroke-linecap:round; stroke-linejoin:round; stroke-width:4; stroke-opacity:1; fill:none" points="175.445,47.2441 2352.76,47.2441 "/>
<polyline clip-path="url(#clip060)" style="stroke:#000000; stroke-linecap:round; stroke-linejoin:round; stroke-width:4; stroke-opacity:1; fill:none" points="465.128,1423.18 465.128,1404.28 "/>
<polyline clip-path="url(#clip060)" style="stroke:#000000; stroke-linecap:round; stroke-linejoin:round; stroke-width:4; stroke-opacity:1; fill:none" points="995.844,1423.18 995.844,1404.28 "/>
<polyline clip-path="url(#clip060)" style="stroke:#000000; stroke-linecap:round; stroke-linejoin:round; stroke-width:4; stroke-opacity:1; fill:none" points="1526.56,1423.18 1526.56,1404.28 "/>
<polyline clip-path="url(#clip060)" style="stroke:#000000; stroke-linecap:round; stroke-linejoin:round; stroke-width:4; stroke-opacity:1; fill:none" points="2057.28,1423.18 2057.28,1404.28 "/>
<polyline clip-path="url(#clip060)" style="stroke:#000000; stroke-linecap:round; stroke-linejoin:round; stroke-width:4; stroke-opacity:1; fill:none" points="465.128,47.2441 465.128,66.1417 "/>
<polyline clip-path="url(#clip060)" style="stroke:#000000; stroke-linecap:round; stroke-linejoin:round; stroke-width:4; stroke-opacity:1; fill:none" points="995.844,47.2441 995.844,66.1417 "/>
<polyline clip-path="url(#clip060)" style="stroke:#000000; stroke-linecap:round; stroke-linejoin:round; stroke-width:4; stroke-opacity:1; fill:none" points="1526.56,47.2441 1526.56,66.1417 "/>
<polyline clip-path="url(#clip060)" style="stroke:#000000; stroke-linecap:round; stroke-linejoin:round; stroke-width:4; stroke-opacity:1; fill:none" points="2057.28,47.2441 2057.28,66.1417 "/>
<path clip-path="url(#clip060)" d="M428.716 1466.44 Q425.568 1466.44 423.716 1468.59 Q421.887 1470.74 421.887 1474.49 Q421.887 1478.22 423.716 1480.39 Q425.568 1482.55 428.716 1482.55 Q431.864 1482.55 433.693 1480.39 Q435.545 1478.22 435.545 1474.49 Q435.545 1470.74 433.693 1468.59 Q431.864 1466.44 428.716 1466.44 M437.998 1451.78 L437.998 1456.04 Q436.239 1455.21 434.434 1454.77 Q432.651 1454.33 430.892 1454.33 Q426.262 1454.33 423.809 1457.45 Q421.378 1460.58 421.031 1466.9 Q422.397 1464.89 424.457 1463.82 Q426.517 1462.73 428.994 1462.73 Q434.202 1462.73 437.211 1465.9 Q440.244 1469.05 440.244 1474.49 Q440.244 1479.82 437.096 1483.03 Q433.947 1486.25 428.716 1486.25 Q422.721 1486.25 419.549 1481.67 Q416.378 1477.06 416.378 1468.33 Q416.378 1460.14 420.267 1455.28 Q424.156 1450.39 430.707 1450.39 Q432.466 1450.39 434.248 1450.74 Q436.054 1451.09 437.998 1451.78 Z" fill="#000000" fill-rule="nonzero" fill-opacity="1" /><path clip-path="url(#clip060)" d="M448.345 1451.02 L466.702 1451.02 L466.702 1454.96 L452.628 1454.96 L452.628 1463.43 Q453.646 1463.08 454.665 1462.92 Q455.683 1462.73 456.702 1462.73 Q462.489 1462.73 465.869 1465.9 Q469.248 1469.08 469.248 1474.49 Q469.248 1480.07 465.776 1483.17 Q462.304 1486.25 455.984 1486.25 Q453.808 1486.25 451.54 1485.88 Q449.295 1485.51 446.887 1484.77 L446.887 1480.07 Q448.97 1481.2 451.193 1481.76 Q453.415 1482.32 455.892 1482.32 Q459.896 1482.32 462.234 1480.21 Q464.572 1478.1 464.572 1474.49 Q464.572 1470.88 462.234 1468.77 Q459.896 1466.67 455.892 1466.67 Q454.017 1466.67 452.142 1467.08 Q450.29 1467.5 448.345 1468.38 L448.345 1451.02 Z" fill="#000000" fill-rule="nonzero" fill-opacity="1" /><path clip-path="url(#clip060)" d="M478.461 1479.7 L483.345 1479.7 L483.345 1485.58 L478.461 1485.58 L478.461 1479.7 Z" fill="#000000" fill-rule="nonzero" fill-opacity="1" /><path clip-path="url(#clip060)" d="M497.558 1481.64 L513.878 1481.64 L513.878 1485.58 L491.933 1485.58 L491.933 1481.64 Q494.595 1478.89 499.179 1474.26 Q503.785 1469.61 504.966 1468.27 Q507.211 1465.74 508.091 1464.01 Q508.993 1462.25 508.993 1460.56 Q508.993 1457.8 507.049 1456.07 Q505.128 1454.33 502.026 1454.33 Q499.827 1454.33 497.373 1455.09 Q494.942 1455.86 492.165 1457.41 L492.165 1452.69 Q494.989 1451.55 497.442 1450.97 Q499.896 1450.39 501.933 1450.39 Q507.304 1450.39 510.498 1453.08 Q513.692 1455.77 513.692 1460.26 Q513.692 1462.39 512.882 1464.31 Q512.095 1466.2 509.989 1468.8 Q509.41 1469.47 506.308 1472.69 Q503.206 1475.88 497.558 1481.64 Z" fill="#000000" fill-rule="nonzero" fill-opacity="1" /><path clip-path="url(#clip060)" d="M958.39 1466.44 Q955.242 1466.44 953.39 1468.59 Q951.562 1470.74 951.562 1474.49 Q951.562 1478.22 953.39 1480.39 Q955.242 1482.55 958.39 1482.55 Q961.538 1482.55 963.367 1480.39 Q965.219 1478.22 965.219 1474.49 Q965.219 1470.74 963.367 1468.59 Q961.538 1466.44 958.39 1466.44 M967.673 1451.78 L967.673 1456.04 Q965.913 1455.21 964.108 1454.77 Q962.325 1454.33 960.566 1454.33 Q955.937 1454.33 953.483 1457.45 Q951.052 1460.58 950.705 1466.9 Q952.071 1464.89 954.131 1463.82 Q956.191 1462.73 958.668 1462.73 Q963.876 1462.73 966.886 1465.9 Q969.918 1469.05 969.918 1474.49 Q969.918 1479.82 966.77 1483.03 Q963.622 1486.25 958.39 1486.25 Q952.395 1486.25 949.224 1481.67 Q946.052 1477.06 946.052 1468.33 Q946.052 1460.14 949.941 1455.28 Q953.83 1450.39 960.381 1450.39 Q962.14 1450.39 963.923 1450.74 Q965.728 1451.09 967.673 1451.78 Z" fill="#000000" fill-rule="nonzero" fill-opacity="1" /><path clip-path="url(#clip060)" d="M978.02 1451.02 L996.376 1451.02 L996.376 1454.96 L982.302 1454.96 L982.302 1463.43 Q983.321 1463.08 984.339 1462.92 Q985.358 1462.73 986.376 1462.73 Q992.163 1462.73 995.543 1465.9 Q998.922 1469.08 998.922 1474.49 Q998.922 1480.07 995.45 1483.17 Q991.978 1486.25 985.659 1486.25 Q983.483 1486.25 981.214 1485.88 Q978.969 1485.51 976.561 1484.77 L976.561 1480.07 Q978.645 1481.2 980.867 1481.76 Q983.089 1482.32 985.566 1482.32 Q989.571 1482.32 991.909 1480.21 Q994.246 1478.1 994.246 1474.49 Q994.246 1470.88 991.909 1468.77 Q989.571 1466.67 985.566 1466.67 Q983.691 1466.67 981.816 1467.08 Q979.964 1467.5 978.02 1468.38 L978.02 1451.02 Z" fill="#000000" fill-rule="nonzero" fill-opacity="1" /><path clip-path="url(#clip060)" d="M1008.14 1479.7 L1013.02 1479.7 L1013.02 1485.58 L1008.14 1485.58 L1008.14 1479.7 Z" fill="#000000" fill-rule="nonzero" fill-opacity="1" /><path clip-path="url(#clip060)" d="M1036.05 1455.09 L1024.25 1473.54 L1036.05 1473.54 L1036.05 1455.09 M1034.82 1451.02 L1040.7 1451.02 L1040.7 1473.54 L1045.64 1473.54 L1045.64 1477.43 L1040.7 1477.43 L1040.7 1485.58 L1036.05 1485.58 L1036.05 1477.43 L1020.45 1477.43 L1020.45 1472.92 L1034.82 1451.02 Z" fill="#000000" fill-rule="nonzero" fill-opacity="1" /><path clip-path="url(#clip060)" d="M1489.27 1466.44 Q1486.12 1466.44 1484.27 1468.59 Q1482.44 1470.74 1482.44 1474.49 Q1482.44 1478.22 1484.27 1480.39 Q1486.12 1482.55 1489.27 1482.55 Q1492.42 1482.55 1494.24 1480.39 Q1496.1 1478.22 1496.1 1474.49 Q1496.1 1470.74 1494.24 1468.59 Q1492.42 1466.44 1489.27 1466.44 M1498.55 1451.78 L1498.55 1456.04 Q1496.79 1455.21 1494.99 1454.77 Q1493.2 1454.33 1491.44 1454.33 Q1486.81 1454.33 1484.36 1457.45 Q1481.93 1460.58 1481.58 1466.9 Q1482.95 1464.89 1485.01 1463.82 Q1487.07 1462.73 1489.55 1462.73 Q1494.75 1462.73 1497.76 1465.9 Q1500.8 1469.05 1500.8 1474.49 Q1500.8 1479.82 1497.65 1483.03 Q1494.5 1486.25 1489.27 1486.25 Q1483.27 1486.25 1480.1 1481.67 Q1476.93 1477.06 1476.93 1468.33 Q1476.93 1460.14 1480.82 1455.28 Q1484.71 1450.39 1491.26 1450.39 Q1493.02 1450.39 1494.8 1450.74 Q1496.61 1451.09 1498.55 1451.78 Z" fill="#000000" fill-rule="nonzero" fill-opacity="1" /><path clip-path="url(#clip060)" d="M1508.9 1451.02 L1527.25 1451.02 L1527.25 1454.96 L1513.18 1454.96 L1513.18 1463.43 Q1514.2 1463.08 1515.22 1462.92 Q1516.24 1462.73 1517.25 1462.73 Q1523.04 1462.73 1526.42 1465.9 Q1529.8 1469.08 1529.8 1474.49 Q1529.8 1480.07 1526.33 1483.17 Q1522.86 1486.25 1516.54 1486.25 Q1514.36 1486.25 1512.09 1485.88 Q1509.85 1485.51 1507.44 1484.77 L1507.44 1480.07 Q1509.52 1481.2 1511.74 1481.76 Q1513.97 1482.32 1516.44 1482.32 Q1520.45 1482.32 1522.79 1480.21 Q1525.12 1478.1 1525.12 1474.49 Q1525.12 1470.88 1522.79 1468.77 Q1520.45 1466.67 1516.44 1466.67 Q1514.57 1466.67 1512.69 1467.08 Q1510.84 1467.5 1508.9 1468.38 L1508.9 1451.02 Z" fill="#000000" fill-rule="nonzero" fill-opacity="1" /><path clip-path="url(#clip060)" d="M1539.01 1479.7 L1543.9 1479.7 L1543.9 1485.58 L1539.01 1485.58 L1539.01 1479.7 Z" fill="#000000" fill-rule="nonzero" fill-opacity="1" /><path clip-path="url(#clip060)" d="M1564.66 1466.44 Q1561.51 1466.44 1559.66 1468.59 Q1557.83 1470.74 1557.83 1474.49 Q1557.83 1478.22 1559.66 1480.39 Q1561.51 1482.55 1564.66 1482.55 Q1567.81 1482.55 1569.64 1480.39 Q1571.49 1478.22 1571.49 1474.49 Q1571.49 1470.74 1569.64 1468.59 Q1567.81 1466.44 1564.66 1466.44 M1573.94 1451.78 L1573.94 1456.04 Q1572.18 1455.21 1570.38 1454.77 Q1568.6 1454.33 1566.84 1454.33 Q1562.21 1454.33 1559.75 1457.45 Q1557.32 1460.58 1556.98 1466.9 Q1558.34 1464.89 1560.4 1463.82 Q1562.46 1462.73 1564.94 1462.73 Q1570.15 1462.73 1573.16 1465.9 Q1576.19 1469.05 1576.19 1474.49 Q1576.19 1479.82 1573.04 1483.03 Q1569.89 1486.25 1564.66 1486.25 Q1558.67 1486.25 1555.49 1481.67 Q1552.32 1477.06 1552.32 1468.33 Q1552.32 1460.14 1556.21 1455.28 Q1560.1 1450.39 1566.65 1450.39 Q1568.41 1450.39 1570.19 1450.74 Q1572 1451.09 1573.94 1451.78 Z" fill="#000000" fill-rule="nonzero" fill-opacity="1" /><path clip-path="url(#clip060)" d="M2020.11 1466.44 Q2016.96 1466.44 2015.11 1468.59 Q2013.28 1470.74 2013.28 1474.49 Q2013.28 1478.22 2015.11 1480.39 Q2016.96 1482.55 2020.11 1482.55 Q2023.26 1482.55 2025.09 1480.39 Q2026.94 1478.22 2026.94 1474.49 Q2026.94 1470.74 2025.09 1468.59 Q2023.26 1466.44 2020.11 1466.44 M2029.39 1451.78 L2029.39 1456.04 Q2027.63 1455.21 2025.83 1454.77 Q2024.05 1454.33 2022.29 1454.33 Q2017.66 1454.33 2015.2 1457.45 Q2012.77 1460.58 2012.43 1466.9 Q2013.79 1464.89 2015.85 1463.82 Q2017.91 1462.73 2020.39 1462.73 Q2025.6 1462.73 2028.61 1465.9 Q2031.64 1469.05 2031.64 1474.49 Q2031.64 1479.82 2028.49 1483.03 Q2025.34 1486.25 2020.11 1486.25 Q2014.12 1486.25 2010.94 1481.67 Q2007.77 1477.06 2007.77 1468.33 Q2007.77 1460.14 2011.66 1455.28 Q2015.55 1450.39 2022.1 1450.39 Q2023.86 1450.39 2025.64 1450.74 Q2027.45 1451.09 2029.39 1451.78 Z" fill="#000000" fill-rule="nonzero" fill-opacity="1" /><path clip-path="url(#clip060)" d="M2039.74 1451.02 L2058.1 1451.02 L2058.1 1454.96 L2044.02 1454.96 L2044.02 1463.43 Q2045.04 1463.08 2046.06 1462.92 Q2047.08 1462.73 2048.1 1462.73 Q2053.88 1462.73 2057.26 1465.9 Q2060.64 1469.08 2060.64 1474.49 Q2060.64 1480.07 2057.17 1483.17 Q2053.7 1486.25 2047.38 1486.25 Q2045.2 1486.25 2042.94 1485.88 Q2040.69 1485.51 2038.28 1484.77 L2038.28 1480.07 Q2040.37 1481.2 2042.59 1481.76 Q2044.81 1482.32 2047.29 1482.32 Q2051.29 1482.32 2053.63 1480.21 Q2055.97 1478.1 2055.97 1474.49 Q2055.97 1470.88 2053.63 1468.77 Q2051.29 1466.67 2047.29 1466.67 Q2045.41 1466.67 2043.54 1467.08 Q2041.69 1467.5 2039.74 1468.38 L2039.74 1451.02 Z" fill="#000000" fill-rule="nonzero" fill-opacity="1" /><path clip-path="url(#clip060)" d="M2069.86 1479.7 L2074.74 1479.7 L2074.74 1485.58 L2069.86 1485.58 L2069.86 1479.7 Z" fill="#000000" fill-rule="nonzero" fill-opacity="1" /><path clip-path="url(#clip060)" d="M2094.93 1469.17 Q2091.59 1469.17 2089.67 1470.95 Q2087.77 1472.73 2087.77 1475.86 Q2087.77 1478.98 2089.67 1480.77 Q2091.59 1482.55 2094.93 1482.55 Q2098.26 1482.55 2100.18 1480.77 Q2102.1 1478.96 2102.1 1475.86 Q2102.1 1472.73 2100.18 1470.95 Q2098.28 1469.17 2094.93 1469.17 M2090.25 1467.18 Q2087.24 1466.44 2085.55 1464.38 Q2083.88 1462.32 2083.88 1459.35 Q2083.88 1455.21 2086.82 1452.8 Q2089.79 1450.39 2094.93 1450.39 Q2100.09 1450.39 2103.03 1452.8 Q2105.97 1455.21 2105.97 1459.35 Q2105.97 1462.32 2104.28 1464.38 Q2102.61 1466.44 2099.62 1467.18 Q2103 1467.96 2104.88 1470.26 Q2106.78 1472.55 2106.78 1475.86 Q2106.78 1480.88 2103.7 1483.57 Q2100.64 1486.25 2094.93 1486.25 Q2089.21 1486.25 2086.13 1483.57 Q2083.07 1480.88 2083.07 1475.86 Q2083.07 1472.55 2084.97 1470.26 Q2086.87 1467.96 2090.25 1467.18 M2088.54 1459.79 Q2088.54 1462.48 2090.2 1463.98 Q2091.89 1465.49 2094.93 1465.49 Q2097.94 1465.49 2099.62 1463.98 Q2101.34 1462.48 2101.34 1459.79 Q2101.34 1457.11 2099.62 1455.6 Q2097.94 1454.1 2094.93 1454.1 Q2091.89 1454.1 2090.2 1455.6 Q2088.54 1457.11 2088.54 1459.79 Z" fill="#000000" fill-rule="nonzero" fill-opacity="1" /><path clip-path="url(#clip060)" d="M1142.01 1526.86 L1133.29 1550.51 L1150.76 1550.51 L1142.01 1526.86 M1138.38 1520.52 L1145.67 1520.52 L1163.78 1568.04 L1157.09 1568.04 L1152.76 1555.85 L1131.34 1555.85 L1127.02 1568.04 L1120.24 1568.04 L1138.38 1520.52 Z" fill="#000000" fill-rule="nonzero" fill-opacity="1" /><path clip-path="url(#clip060)" d="M1193.92 1549.81 Q1193.92 1543.44 1191.28 1539.94 Q1188.67 1536.44 1183.92 1536.44 Q1179.21 1536.44 1176.57 1539.94 Q1173.96 1543.44 1173.96 1549.81 Q1173.96 1556.14 1176.57 1559.64 Q1179.21 1563.14 1183.92 1563.14 Q1188.67 1563.14 1191.28 1559.64 Q1193.92 1556.14 1193.92 1549.81 M1199.78 1563.62 Q1199.78 1572.72 1195.73 1577.15 Q1191.69 1581.6 1183.35 1581.6 Q1180.26 1581.6 1177.53 1581.13 Q1174.79 1580.68 1172.21 1579.72 L1172.21 1574.03 Q1174.79 1575.43 1177.3 1576.1 Q1179.82 1576.76 1182.43 1576.76 Q1188.19 1576.76 1191.05 1573.74 Q1193.92 1570.75 1193.92 1564.67 L1193.92 1561.77 Q1192.1 1564.92 1189.27 1566.48 Q1186.44 1568.04 1182.49 1568.04 Q1175.94 1568.04 1171.93 1563.05 Q1167.91 1558.05 1167.91 1549.81 Q1167.91 1541.53 1171.93 1536.53 Q1175.94 1531.54 1182.49 1531.54 Q1186.44 1531.54 1189.27 1533.1 Q1192.1 1534.66 1193.92 1537.81 L1193.92 1532.4 L1199.78 1532.4 L1199.78 1563.62 Z" fill="#000000" fill-rule="nonzero" fill-opacity="1" /><path clip-path="url(#clip060)" d="M1242.33 1548.76 L1242.33 1551.62 L1215.4 1551.62 Q1215.78 1557.67 1219.03 1560.85 Q1222.31 1564 1228.13 1564 Q1231.51 1564 1234.66 1563.17 Q1237.84 1562.35 1240.96 1560.69 L1240.96 1566.23 Q1237.81 1567.57 1234.5 1568.27 Q1231.19 1568.97 1227.78 1568.97 Q1219.25 1568.97 1214.26 1564 Q1209.29 1559.04 1209.29 1550.57 Q1209.29 1541.82 1214 1536.69 Q1218.74 1531.54 1226.77 1531.54 Q1233.96 1531.54 1238.13 1536.18 Q1242.33 1540.8 1242.33 1548.76 M1236.47 1547.04 Q1236.41 1542.23 1233.77 1539.37 Q1231.16 1536.5 1226.83 1536.5 Q1221.93 1536.5 1218.97 1539.27 Q1216.04 1542.04 1215.59 1547.07 L1236.47 1547.04 Z" fill="#000000" fill-rule="nonzero" fill-opacity="1" /><path clip-path="url(#clip060)" d="M1286.73 1518.58 Q1282.47 1525.9 1280.4 1533.06 Q1278.33 1540.23 1278.33 1547.58 Q1278.33 1554.93 1280.4 1562.16 Q1282.5 1569.35 1286.73 1576.64 L1281.64 1576.64 Q1276.86 1569.16 1274.48 1561.93 Q1272.12 1554.71 1272.12 1547.58 Q1272.12 1540.48 1274.48 1533.29 Q1276.83 1526.09 1281.64 1518.58 L1286.73 1518.58 Z" fill="#000000" fill-rule="nonzero" fill-opacity="1" /><path clip-path="url(#clip060)" d="M1298.35 1520.52 L1307.93 1520.52 L1320.06 1552.86 L1332.25 1520.52 L1341.83 1520.52 L1341.83 1568.04 L1335.56 1568.04 L1335.56 1526.32 L1323.3 1558.91 L1316.84 1558.91 L1304.59 1526.32 L1304.59 1568.04 L1298.35 1568.04 L1298.35 1520.52 Z" fill="#000000" fill-rule="nonzero" fill-opacity="1" /><path clip-path="url(#clip060)" d="M1370.54 1550.12 Q1363.44 1550.12 1360.7 1551.75 Q1357.96 1553.37 1357.96 1557.29 Q1357.96 1560.4 1360 1562.25 Q1362.07 1564.07 1365.6 1564.07 Q1370.47 1564.07 1373.4 1560.63 Q1376.36 1557.16 1376.36 1551.43 L1376.36 1550.12 L1370.54 1550.12 M1382.22 1547.71 L1382.22 1568.04 L1376.36 1568.04 L1376.36 1562.63 Q1374.35 1565.88 1371.36 1567.44 Q1368.37 1568.97 1364.04 1568.97 Q1358.57 1568.97 1355.32 1565.91 Q1352.11 1562.82 1352.11 1557.67 Q1352.11 1551.65 1356.12 1548.6 Q1360.16 1545.54 1368.15 1545.54 L1376.36 1545.54 L1376.36 1544.97 Q1376.36 1540.93 1373.69 1538.73 Q1371.04 1536.5 1366.24 1536.5 Q1363.18 1536.5 1360.29 1537.23 Q1357.39 1537.97 1354.72 1539.43 L1354.72 1534.02 Q1357.93 1532.78 1360.95 1532.17 Q1363.98 1531.54 1366.84 1531.54 Q1374.58 1531.54 1378.4 1535.55 Q1382.22 1539.56 1382.22 1547.71 Z" fill="#000000" fill-rule="nonzero" fill-opacity="1" /><path clip-path="url(#clip060)" d="M1393.36 1518.58 L1398.45 1518.58 Q1403.22 1526.09 1405.58 1533.29 Q1407.97 1540.48 1407.97 1547.58 Q1407.97 1554.71 1405.58 1561.93 Q1403.22 1569.16 1398.45 1576.64 L1393.36 1576.64 Q1397.59 1569.35 1399.66 1562.16 Q1401.76 1554.93 1401.76 1547.58 Q1401.76 1540.23 1399.66 1533.06 Q1397.59 1525.9 1393.36 1518.58 Z" fill="#000000" fill-rule="nonzero" fill-opacity="1" /><polyline clip-path="url(#clip060)" style="stroke:#000000; stroke-linecap:round; stroke-linejoin:round; stroke-width:4; stroke-opacity:1; fill:none" points="175.445,1423.18 175.445,47.2441 "/>
<polyline clip-path="url(#clip060)" style="stroke:#000000; stroke-linecap:round; stroke-linejoin:round; stroke-width:4; stroke-opacity:1; fill:none" points="2352.76,1423.18 2352.76,47.2441 "/>
<polyline clip-path="url(#clip060)" style="stroke:#000000; stroke-linecap:round; stroke-linejoin:round; stroke-width:4; stroke-opacity:1; fill:none" points="175.445,1384.28 194.343,1384.28 "/>
<polyline clip-path="url(#clip060)" style="stroke:#000000; stroke-linecap:round; stroke-linejoin:round; stroke-width:4; stroke-opacity:1; fill:none" points="175.445,1157.99 194.343,1157.99 "/>
<polyline clip-path="url(#clip060)" style="stroke:#000000; stroke-linecap:round; stroke-linejoin:round; stroke-width:4; stroke-opacity:1; fill:none" points="175.445,931.71 194.343,931.71 "/>
<polyline clip-path="url(#clip060)" style="stroke:#000000; stroke-linecap:round; stroke-linejoin:round; stroke-width:4; stroke-opacity:1; fill:none" points="175.445,705.426 194.343,705.426 "/>
<polyline clip-path="url(#clip060)" style="stroke:#000000; stroke-linecap:round; stroke-linejoin:round; stroke-width:4; stroke-opacity:1; fill:none" points="175.445,479.141 194.343,479.141 "/>
<polyline clip-path="url(#clip060)" style="stroke:#000000; stroke-linecap:round; stroke-linejoin:round; stroke-width:4; stroke-opacity:1; fill:none" points="175.445,252.857 194.343,252.857 "/>
<polyline clip-path="url(#clip060)" style="stroke:#000000; stroke-linecap:round; stroke-linejoin:round; stroke-width:4; stroke-opacity:1; fill:none" points="2352.76,1384.28 2333.86,1384.28 "/>
<polyline clip-path="url(#clip060)" style="stroke:#000000; stroke-linecap:round; stroke-linejoin:round; stroke-width:4; stroke-opacity:1; fill:none" points="2352.76,1157.99 2333.86,1157.99 "/>
<polyline clip-path="url(#clip060)" style="stroke:#000000; stroke-linecap:round; stroke-linejoin:round; stroke-width:4; stroke-opacity:1; fill:none" points="2352.76,931.71 2333.86,931.71 "/>
<polyline clip-path="url(#clip060)" style="stroke:#000000; stroke-linecap:round; stroke-linejoin:round; stroke-width:4; stroke-opacity:1; fill:none" points="2352.76,705.426 2333.86,705.426 "/>
<polyline clip-path="url(#clip060)" style="stroke:#000000; stroke-linecap:round; stroke-linejoin:round; stroke-width:4; stroke-opacity:1; fill:none" points="2352.76,479.141 2333.86,479.141 "/>
<polyline clip-path="url(#clip060)" style="stroke:#000000; stroke-linecap:round; stroke-linejoin:round; stroke-width:4; stroke-opacity:1; fill:none" points="2352.76,252.857 2333.86,252.857 "/>
<path clip-path="url(#clip060)" d="M127.501 1370.08 Q123.89 1370.08 122.061 1373.64 Q120.255 1377.18 120.255 1384.31 Q120.255 1391.42 122.061 1394.99 Q123.89 1398.53 127.501 1398.53 Q131.135 1398.53 132.941 1394.99 Q134.769 1391.42 134.769 1384.31 Q134.769 1377.18 132.941 1373.64 Q131.135 1370.08 127.501 1370.08 M127.501 1366.37 Q133.311 1366.37 136.367 1370.98 Q139.445 1375.56 139.445 1384.31 Q139.445 1393.04 136.367 1397.65 Q133.311 1402.23 127.501 1402.23 Q121.691 1402.23 118.612 1397.65 Q115.556 1393.04 115.556 1384.31 Q115.556 1375.56 118.612 1370.98 Q121.691 1366.37 127.501 1366.37 Z" fill="#000000" fill-rule="nonzero" fill-opacity="1" /><path clip-path="url(#clip060)" d="M119.538 1171.34 L127.177 1171.34 L127.177 1144.97 L118.867 1146.64 L118.867 1142.38 L127.13 1140.71 L131.806 1140.71 L131.806 1171.34 L139.445 1171.34 L139.445 1175.27 L119.538 1175.27 L119.538 1171.34 Z" fill="#000000" fill-rule="nonzero" fill-opacity="1" /><path clip-path="url(#clip060)" d="M123.126 945.055 L139.445 945.055 L139.445 948.99 L117.501 948.99 L117.501 945.055 Q120.163 942.301 124.746 937.671 Q129.353 933.018 130.533 931.676 Q132.779 929.152 133.658 927.416 Q134.561 925.657 134.561 923.967 Q134.561 921.213 132.617 919.477 Q130.695 917.741 127.593 917.741 Q125.394 917.741 122.941 918.504 Q120.51 919.268 117.732 920.819 L117.732 916.097 Q120.556 914.963 123.01 914.384 Q125.464 913.805 127.501 913.805 Q132.871 913.805 136.066 916.491 Q139.26 919.176 139.26 923.666 Q139.26 925.796 138.45 927.717 Q137.663 929.615 135.556 932.208 Q134.978 932.879 131.876 936.097 Q128.774 939.291 123.126 945.055 Z" fill="#000000" fill-rule="nonzero" fill-opacity="1" /><path clip-path="url(#clip060)" d="M132.316 704.072 Q135.672 704.789 137.547 707.058 Q139.445 709.326 139.445 712.66 Q139.445 717.775 135.927 720.576 Q132.408 723.377 125.927 723.377 Q123.751 723.377 121.436 722.937 Q119.144 722.521 116.691 721.664 L116.691 717.15 Q118.635 718.285 120.95 718.863 Q123.265 719.442 125.788 719.442 Q130.186 719.442 132.478 717.706 Q134.792 715.97 134.792 712.66 Q134.792 709.604 132.64 707.891 Q130.51 706.155 126.691 706.155 L122.663 706.155 L122.663 702.312 L126.876 702.312 Q130.325 702.312 132.154 700.947 Q133.982 699.558 133.982 696.965 Q133.982 694.303 132.084 692.891 Q130.209 691.456 126.691 691.456 Q124.769 691.456 122.57 691.873 Q120.371 692.289 117.732 693.169 L117.732 689.002 Q120.394 688.262 122.709 687.891 Q125.047 687.521 127.107 687.521 Q132.431 687.521 135.533 689.951 Q138.635 692.359 138.635 696.479 Q138.635 699.349 136.992 701.34 Q135.348 703.308 132.316 704.072 Z" fill="#000000" fill-rule="nonzero" fill-opacity="1" /><path clip-path="url(#clip060)" d="M129.862 465.935 L118.056 484.384 L129.862 484.384 L129.862 465.935 M128.635 461.861 L134.515 461.861 L134.515 484.384 L139.445 484.384 L139.445 488.273 L134.515 488.273 L134.515 496.421 L129.862 496.421 L129.862 488.273 L114.26 488.273 L114.26 483.759 L128.635 461.861 Z" fill="#000000" fill-rule="nonzero" fill-opacity="1" /><path clip-path="url(#clip060)" d="M118.543 235.577 L136.899 235.577 L136.899 239.512 L122.825 239.512 L122.825 247.984 Q123.843 247.637 124.862 247.475 Q125.88 247.29 126.899 247.29 Q132.686 247.29 136.066 250.461 Q139.445 253.632 139.445 259.049 Q139.445 264.627 135.973 267.729 Q132.501 270.808 126.181 270.808 Q124.005 270.808 121.737 270.438 Q119.492 270.067 117.084 269.326 L117.084 264.627 Q119.168 265.762 121.39 266.317 Q123.612 266.873 126.089 266.873 Q130.093 266.873 132.431 264.766 Q134.769 262.66 134.769 259.049 Q134.769 255.438 132.431 253.331 Q130.093 251.225 126.089 251.225 Q124.214 251.225 122.339 251.641 Q120.487 252.058 118.543 252.938 L118.543 235.577 Z" fill="#000000" fill-rule="nonzero" fill-opacity="1" /><path clip-path="url(#clip060)" d="M21.7677 1026.76 L39.6235 1026.76 L39.6235 1018.68 Q39.6235 1014.19 37.3 1011.74 Q34.9765 1009.29 30.6797 1009.29 Q26.4147 1009.29 24.0912 1011.74 Q21.7677 1014.19 21.7677 1018.68 L21.7677 1026.76 M16.4842 1033.19 L16.4842 1018.68 Q16.4842 1010.69 20.1126 1006.61 Q23.7092 1002.51 30.6797 1002.51 Q37.7138 1002.51 41.3104 1006.61 Q44.907 1010.69 44.907 1018.68 L44.907 1026.76 L64.0042 1026.76 L64.0042 1033.19 L16.4842 1033.19 Z" fill="#000000" fill-rule="nonzero" fill-opacity="1" /><path clip-path="url(#clip060)" d="M33.8307 974.626 Q33.2578 975.613 33.0032 976.791 Q32.7167 977.936 32.7167 979.337 Q32.7167 984.302 35.9632 986.976 Q39.1779 989.617 45.2253 989.617 L64.0042 989.617 L64.0042 995.506 L28.3562 995.506 L28.3562 989.617 L33.8944 989.617 Q30.6479 987.771 29.0883 984.811 Q27.4968 981.851 27.4968 977.618 Q27.4968 977.013 27.5923 976.281 Q27.656 975.549 27.8151 974.658 L33.8307 974.626 Z" fill="#000000" fill-rule="nonzero" fill-opacity="1" /><path clip-path="url(#clip060)" d="M32.4621 956.102 Q32.4621 960.813 36.1542 963.55 Q39.8145 966.287 46.212 966.287 Q52.6095 966.287 56.3017 963.582 Q59.9619 960.844 59.9619 956.102 Q59.9619 951.423 56.2698 948.686 Q52.5777 945.949 46.212 945.949 Q39.8781 945.949 36.186 948.686 Q32.4621 951.423 32.4621 956.102 M27.4968 956.102 Q27.4968 948.463 32.4621 944.103 Q37.4273 939.742 46.212 939.742 Q54.9649 939.742 59.9619 944.103 Q64.9272 948.463 64.9272 956.102 Q64.9272 963.773 59.9619 968.133 Q54.9649 972.462 46.212 972.462 Q37.4273 972.462 32.4621 968.133 Q27.4968 963.773 27.4968 956.102 Z" fill="#000000" fill-rule="nonzero" fill-opacity="1" /><path clip-path="url(#clip060)" d="M46.212 904.444 Q39.7508 904.444 36.0905 907.118 Q32.3984 909.76 32.3984 914.407 Q32.3984 919.054 36.0905 921.727 Q39.7508 924.369 46.212 924.369 Q52.6732 924.369 56.3653 921.727 Q60.0256 919.054 60.0256 914.407 Q60.0256 909.76 56.3653 907.118 Q52.6732 904.444 46.212 904.444 M33.7671 924.369 Q30.5842 922.523 29.0564 919.722 Q27.4968 916.889 27.4968 912.974 Q27.4968 906.481 32.6531 902.439 Q37.8093 898.365 46.212 898.365 Q54.6147 898.365 59.771 902.439 Q64.9272 906.481 64.9272 912.974 Q64.9272 916.889 63.3994 919.722 Q61.8398 922.523 58.657 924.369 L64.0042 924.369 L64.0042 930.257 L14.479 930.257 L14.479 924.369 L33.7671 924.369 Z" fill="#000000" fill-rule="nonzero" fill-opacity="1" /><path clip-path="url(#clip060)" d="M46.0847 872.457 Q46.0847 879.554 47.7079 882.292 Q49.3312 885.029 53.2461 885.029 Q56.3653 885.029 58.2114 882.992 Q60.0256 880.923 60.0256 877.39 Q60.0256 872.52 56.5881 869.592 Q53.1188 866.632 47.3897 866.632 L46.0847 866.632 L46.0847 872.457 M43.6657 860.776 L64.0042 860.776 L64.0042 866.632 L58.5933 866.632 Q61.8398 868.637 63.3994 871.629 Q64.9272 874.621 64.9272 878.95 Q64.9272 884.424 61.8716 887.671 Q58.7843 890.885 53.6281 890.885 Q47.6125 890.885 44.5569 886.875 Q41.5014 882.833 41.5014 874.844 L41.5014 866.632 L40.9285 866.632 Q36.8862 866.632 34.6901 869.306 Q32.4621 871.947 32.4621 876.753 Q32.4621 879.809 33.1941 882.705 Q33.9262 885.602 35.3903 888.275 L29.9795 888.275 Q28.7381 885.061 28.1334 882.037 Q27.4968 879.013 27.4968 876.149 Q27.4968 868.414 31.5072 864.595 Q35.5176 860.776 43.6657 860.776 Z" fill="#000000" fill-rule="nonzero" fill-opacity="1" /><path clip-path="url(#clip060)" d="M46.212 823.122 Q39.7508 823.122 36.0905 825.796 Q32.3984 828.438 32.3984 833.085 Q32.3984 837.732 36.0905 840.405 Q39.7508 843.047 46.212 843.047 Q52.6732 843.047 56.3653 840.405 Q60.0256 837.732 60.0256 833.085 Q60.0256 828.438 56.3653 825.796 Q52.6732 823.122 46.212 823.122 M33.7671 843.047 Q30.5842 841.201 29.0564 838.4 Q27.4968 835.567 27.4968 831.652 Q27.4968 825.159 32.6531 821.117 Q37.8093 817.043 46.212 817.043 Q54.6147 817.043 59.771 821.117 Q64.9272 825.159 64.9272 831.652 Q64.9272 835.567 63.3994 838.4 Q61.8398 841.201 58.657 843.047 L64.0042 843.047 L64.0042 848.935 L14.479 848.935 L14.479 843.047 L33.7671 843.047 Z" fill="#000000" fill-rule="nonzero" fill-opacity="1" /><path clip-path="url(#clip060)" d="M28.3562 807.335 L28.3562 801.479 L64.0042 801.479 L64.0042 807.335 L28.3562 807.335 M14.479 807.335 L14.479 801.479 L21.895 801.479 L21.895 807.335 L14.479 807.335 Z" fill="#000000" fill-rule="nonzero" fill-opacity="1" /><path clip-path="url(#clip060)" d="M14.479 789.225 L14.479 783.369 L64.0042 783.369 L64.0042 789.225 L14.479 789.225 Z" fill="#000000" fill-rule="nonzero" fill-opacity="1" /><path clip-path="url(#clip060)" d="M28.3562 771.115 L28.3562 765.258 L64.0042 765.258 L64.0042 771.115 L28.3562 771.115 M14.479 771.115 L14.479 765.258 L21.895 765.258 L21.895 771.115 L14.479 771.115 Z" fill="#000000" fill-rule="nonzero" fill-opacity="1" /><path clip-path="url(#clip060)" d="M18.2347 747.211 L28.3562 747.211 L28.3562 735.148 L32.9077 735.148 L32.9077 747.211 L52.2594 747.211 Q56.6199 747.211 57.8613 746.034 Q59.1026 744.824 59.1026 741.164 L59.1026 735.148 L64.0042 735.148 L64.0042 741.164 Q64.0042 747.943 61.4897 750.521 Q58.9434 753.1 52.2594 753.1 L32.9077 753.1 L32.9077 757.396 L28.3562 757.396 L28.3562 753.1 L18.2347 753.1 L18.2347 747.211 Z" fill="#000000" fill-rule="nonzero" fill-opacity="1" /><path clip-path="url(#clip060)" d="M67.3143 712.614 Q73.68 715.096 75.6216 717.452 Q77.5631 719.807 77.5631 723.754 L77.5631 728.432 L72.6615 728.432 L72.6615 724.995 Q72.6615 722.576 71.5157 721.239 Q70.3699 719.902 66.1048 718.279 L63.4312 717.229 L28.3562 731.647 L28.3562 725.441 L56.238 714.301 L28.3562 703.161 L28.3562 696.954 L67.3143 712.614 Z" fill="#000000" fill-rule="nonzero" fill-opacity="1" /><path clip-path="url(#clip060)" d="M33.7671 644.692 L14.479 644.692 L14.479 638.835 L64.0042 638.835 L64.0042 644.692 L58.657 644.692 Q61.8398 646.538 63.3994 649.37 Q64.9272 652.171 64.9272 656.118 Q64.9272 662.579 59.771 666.653 Q54.6147 670.696 46.212 670.696 Q37.8093 670.696 32.6531 666.653 Q27.4968 662.579 27.4968 656.118 Q27.4968 652.171 29.0564 649.37 Q30.5842 646.538 33.7671 644.692 M46.212 664.648 Q52.6732 664.648 56.3653 662.006 Q60.0256 659.333 60.0256 654.686 Q60.0256 650.039 56.3653 647.365 Q52.6732 644.692 46.212 644.692 Q39.7508 644.692 36.0905 647.365 Q32.3984 650.039 32.3984 654.686 Q32.3984 659.333 36.0905 662.006 Q39.7508 664.648 46.212 664.648 Z" fill="#000000" fill-rule="nonzero" fill-opacity="1" /><path clip-path="url(#clip060)" d="M44.7161 596.28 L47.5806 596.28 L47.5806 623.207 Q53.6281 622.825 56.8109 619.579 Q59.9619 616.301 59.9619 610.476 Q59.9619 607.102 59.1344 603.951 Q58.3069 600.768 56.6518 597.649 L62.1899 597.649 Q63.5267 600.8 64.227 604.11 Q64.9272 607.42 64.9272 610.826 Q64.9272 619.356 59.9619 624.353 Q54.9967 629.318 46.5303 629.318 Q37.7774 629.318 32.6531 624.608 Q27.4968 619.865 27.4968 611.845 Q27.4968 604.651 32.1438 600.482 Q36.7589 596.28 44.7161 596.28 M42.9973 602.137 Q38.1912 602.201 35.3266 604.842 Q32.4621 607.452 32.4621 611.781 Q32.4621 616.683 35.2312 619.643 Q38.0002 622.571 43.0292 623.016 L42.9973 602.137 Z" fill="#000000" fill-rule="nonzero" fill-opacity="1" /><path clip-path="url(#clip060)" d="M42.4881 557.036 L64.0042 557.036 L64.0042 562.892 L42.679 562.892 Q37.6183 562.892 35.1038 564.866 Q32.5894 566.839 32.5894 570.786 Q32.5894 575.528 35.6131 578.265 Q38.6368 581.003 43.8567 581.003 L64.0042 581.003 L64.0042 586.891 L28.3562 586.891 L28.3562 581.003 L33.8944 581.003 Q30.6797 578.902 29.0883 576.069 Q27.4968 573.205 27.4968 569.481 Q27.4968 563.338 31.3163 560.187 Q35.1038 557.036 42.4881 557.036 Z" fill="#000000" fill-rule="nonzero" fill-opacity="1" /><path clip-path="url(#clip060)" d="M29.4065 522.629 L34.9447 522.629 Q33.6716 525.112 33.035 527.785 Q32.3984 530.459 32.3984 533.324 Q32.3984 537.684 33.7352 539.88 Q35.072 542.045 37.7456 542.045 Q39.7826 542.045 40.9603 540.485 Q42.1061 538.925 43.1565 534.215 L43.6021 532.21 Q44.9389 525.971 47.3897 523.361 Q49.8086 520.719 54.1691 520.719 Q59.1344 520.719 62.0308 524.666 Q64.9272 528.581 64.9272 535.456 Q64.9272 538.321 64.3543 541.44 Q63.8132 544.527 62.6992 547.965 L56.6518 547.965 Q58.3387 544.718 59.198 541.567 Q60.0256 538.416 60.0256 535.329 Q60.0256 531.191 58.6251 528.963 Q57.1929 526.735 54.6147 526.735 Q52.2276 526.735 50.9545 528.358 Q49.6813 529.95 48.5037 535.392 L48.0262 537.429 Q46.8804 542.872 44.5251 545.291 Q42.138 547.71 38.0002 547.71 Q32.9713 547.71 30.2341 544.145 Q27.4968 540.58 27.4968 534.024 Q27.4968 530.777 27.9743 527.913 Q28.4517 525.048 29.4065 522.629 Z" fill="#000000" fill-rule="nonzero" fill-opacity="1" /><path clip-path="url(#clip060)" d="M28.3562 511.394 L28.3562 505.537 L64.0042 505.537 L64.0042 511.394 L28.3562 511.394 M14.479 511.394 L14.479 505.537 L21.895 505.537 L21.895 511.394 L14.479 511.394 Z" fill="#000000" fill-rule="nonzero" fill-opacity="1" /><path clip-path="url(#clip060)" d="M18.2347 487.49 L28.3562 487.49 L28.3562 475.427 L32.9077 475.427 L32.9077 487.49 L52.2594 487.49 Q56.6199 487.49 57.8613 486.313 Q59.1026 485.103 59.1026 481.443 L59.1026 475.427 L64.0042 475.427 L64.0042 481.443 Q64.0042 488.223 61.4897 490.801 Q58.9434 493.379 52.2594 493.379 L32.9077 493.379 L32.9077 497.676 L28.3562 497.676 L28.3562 493.379 L18.2347 493.379 L18.2347 487.49 Z" fill="#000000" fill-rule="nonzero" fill-opacity="1" /><path clip-path="url(#clip060)" d="M67.3143 452.893 Q73.68 455.376 75.6216 457.731 Q77.5631 460.086 77.5631 464.033 L77.5631 468.712 L72.6615 468.712 L72.6615 465.274 Q72.6615 462.855 71.5157 461.518 Q70.3699 460.182 66.1048 458.558 L63.4312 457.508 L28.3562 471.926 L28.3562 465.72 L56.238 454.58 L28.3562 443.44 L28.3562 437.233 L67.3143 452.893 Z" fill="#000000" fill-rule="nonzero" fill-opacity="1" /><polyline clip-path="url(#clip062)" style="stroke:#009af9; stroke-linecap:round; stroke-linejoin:round; stroke-width:4; stroke-opacity:1; fill:none" points="237.067,1384.2 278.564,1384.2 299.312,1384.07 465.297,1384.24 486.045,1383.99 527.541,1384.14 548.289,1384.18 569.038,1384.05 589.786,1382.92 610.534,1383.99 631.282,1383.97 652.03,1383.74 672.778,1383.58 693.526,1383.79 714.275,1383 735.023,1383.39 755.771,1382.76 776.519,1383 797.267,1382.51 818.015,1383.09 838.764,1382.49 859.512,1382.92 880.26,1382.9 901.008,1381.11 921.756,1381.48 942.504,1380.08 963.252,1377.24 984.001,1375.45 1004.75,1377.5 1025.5,1377.57 1046.24,1377.15 1066.99,1376.72 1087.74,1372.11 1108.49,1371.47 1129.24,1369.76 1149.99,1371.33 1170.73,1362.74 1191.48,1363.3 1212.23,1355.64 1232.98,1347.93 1253.73,1347.28 1274.47,1343.24 1295.22,1328.25 1315.97,1317.89 1336.72,1312.95 1357.47,1306.22 1378.22,1278.11 1398.96,1261.74 1419.71,1245.92 1440.46,1208.01 1461.21,1193.47 1481.96,1151.65 1502.7,1124.37 1523.45,1065.78 1544.2,1004.38 1564.95,964.967 1585.7,952.591 1606.45,896.087 1627.19,841.745 1647.94,820.103 1668.69,784.623 1689.44,738.579 1710.19,692.268 1730.93,663.254 1751.68,587.497 1772.43,561.366 1793.18,539.332 1813.93,499.054 1834.67,496.769 1855.42,463.945 1876.17,465.943 1896.92,466.293 1917.67,490.447 1938.42,522.447 1959.16,558.359 1979.91,651.414 2000.66,737.838 2021.41,816.643 2042.16,920.282 2062.9,1027.67 2083.65,1137.2 2104.4,1209.8 2125.15,1276.38 2145.9,1327.18 2166.65,1355.14 2187.39,1368.22 2208.14,1380.28 2228.89,1382.74 2249.64,1383.99 2270.39,1384.24 2291.13,1384.18 "/>
<polyline clip-path="url(#clip062)" style="stroke:#e26f46; stroke-linecap:round; stroke-linejoin:round; stroke-width:4; stroke-opacity:1; fill:none" points="237.067,1384.22 278.564,1384.19 299.312,1384.18 465.297,1383.94 486.045,1383.89 527.541,1383.75 548.289,1383.67 569.038,1383.57 589.786,1383.45 610.534,1383.32 631.282,1383.16 652.03,1382.99 672.778,1382.78 693.526,1382.54 714.275,1382.26 735.023,1381.94 755.771,1381.57 776.519,1381.14 797.267,1380.64 818.015,1380.07 838.764,1379.4 859.512,1378.64 880.26,1377.75 901.008,1376.74 921.756,1375.56 942.504,1374.21 963.252,1372.65 984.001,1370.85 1004.75,1368.79 1025.5,1366.41 1046.24,1363.69 1066.99,1360.56 1087.74,1356.98 1108.49,1352.88 1129.24,1348.18 1149.99,1342.81 1170.73,1336.68 1191.48,1329.68 1212.23,1321.72 1232.98,1312.66 1253.73,1302.37 1274.47,1290.71 1295.22,1277.5 1315.97,1262.59 1336.72,1245.77 1357.47,1226.84 1378.22,1205.61 1398.96,1181.84 1419.71,1155.31 1440.46,1125.79 1461.21,1093.06 1481.96,1056.91 1502.7,1017.14 1523.45,973.618 1544.2,926.219 1564.95,874.908 1585.7,819.73 1606.45,760.84 1627.19,698.529 1647.94,633.254 1668.69,565.668 1689.44,496.647 1710.19,427.322 1730.93,359.101 1751.68,293.681 1772.43,233.048 1793.18,179.455 1813.93,135.374 1834.67,103.415 1855.42,86.1972 1876.17,86.1857 1896.92,105.474 1917.67,145.533 1938.42,206.939 1959.16,289.108 1979.91,390.08 2000.66,506.407 2021.41,633.208 2042.16,764.442 2062.9,893.412 2083.65,1013.5 2104.4,1119.01 2125.15,1205.98 2145.9,1272.75 2166.65,1320.06 2187.39,1350.66 2208.14,1368.5 2228.89,1377.75 2249.64,1381.94 2270.39,1383.57 2291.13,1384.1 "/>
<path clip-path="url(#clip060)" d="M248.022 248.629 L800.057 248.629 L800.057 93.1086 L248.022 93.1086  Z" fill="#ffffff" fill-rule="evenodd" fill-opacity="1"/>
<polyline clip-path="url(#clip060)" style="stroke:#ffffff; stroke-linecap:round; stroke-linejoin:round; stroke-width:4; stroke-opacity:1; fill:none" points="248.022,248.629 800.057,248.629 800.057,93.1086 248.022,93.1086 248.022,248.629 "/>
<polyline clip-path="url(#clip060)" style="stroke:#009af9; stroke-linecap:round; stroke-linejoin:round; stroke-width:4; stroke-opacity:1; fill:none" points="272.215,144.949 417.369,144.949 "/>
<path clip-path="url(#clip060)" d="M441.561 127.669 L446.237 127.669 L446.237 141.835 L463.228 141.835 L463.228 127.669 L467.903 127.669 L467.903 162.229 L463.228 162.229 L463.228 145.77 L446.237 145.77 L446.237 162.229 L441.561 162.229 L441.561 127.669 Z" fill="#000000" fill-rule="nonzero" fill-opacity="1" /><path clip-path="url(#clip060)" d="M477.024 136.303 L481.283 136.303 L481.283 162.229 L477.024 162.229 L477.024 136.303 M477.024 126.21 L481.283 126.21 L481.283 131.604 L477.024 131.604 L477.024 126.21 Z" fill="#000000" fill-rule="nonzero" fill-opacity="1" /><path clip-path="url(#clip060)" d="M506.723 137.067 L506.723 141.094 Q504.917 140.169 502.973 139.706 Q501.028 139.243 498.945 139.243 Q495.774 139.243 494.176 140.215 Q492.602 141.187 492.602 143.131 Q492.602 144.613 493.737 145.469 Q494.871 146.303 498.297 147.067 L499.755 147.391 Q504.292 148.363 506.19 150.145 Q508.112 151.905 508.112 155.076 Q508.112 158.687 505.241 160.793 Q502.394 162.9 497.394 162.9 Q495.311 162.9 493.042 162.483 Q490.797 162.09 488.297 161.28 L488.297 156.881 Q490.658 158.108 492.95 158.733 Q495.241 159.335 497.487 159.335 Q500.496 159.335 502.116 158.317 Q503.737 157.275 503.737 155.4 Q503.737 153.664 502.556 152.738 Q501.399 151.812 497.44 150.956 L495.959 150.608 Q492.001 149.775 490.241 148.062 Q488.482 146.326 488.482 143.317 Q488.482 139.659 491.075 137.669 Q493.667 135.678 498.436 135.678 Q500.797 135.678 502.88 136.025 Q504.963 136.372 506.723 137.067 Z" fill="#000000" fill-rule="nonzero" fill-opacity="1" /><path clip-path="url(#clip060)" d="M519.107 128.942 L519.107 136.303 L527.88 136.303 L527.88 139.613 L519.107 139.613 L519.107 153.687 Q519.107 156.858 519.963 157.761 Q520.843 158.664 523.505 158.664 L527.88 158.664 L527.88 162.229 L523.505 162.229 Q518.574 162.229 516.699 160.4 Q514.824 158.548 514.824 153.687 L514.824 139.613 L511.699 139.613 L511.699 136.303 L514.824 136.303 L514.824 128.942 L519.107 128.942 Z" fill="#000000" fill-rule="nonzero" fill-opacity="1" /><path clip-path="url(#clip060)" d="M543.528 139.289 Q540.102 139.289 538.111 141.974 Q536.121 144.636 536.121 149.289 Q536.121 153.942 538.088 156.627 Q540.079 159.289 543.528 159.289 Q546.931 159.289 548.921 156.604 Q550.912 153.918 550.912 149.289 Q550.912 144.682 548.921 141.997 Q546.931 139.289 543.528 139.289 M543.528 135.678 Q549.084 135.678 552.255 139.289 Q555.426 142.9 555.426 149.289 Q555.426 155.655 552.255 159.289 Q549.084 162.9 543.528 162.9 Q537.949 162.9 534.778 159.289 Q531.63 155.655 531.63 149.289 Q531.63 142.9 534.778 139.289 Q537.949 135.678 543.528 135.678 Z" fill="#000000" fill-rule="nonzero" fill-opacity="1" /><path clip-path="url(#clip060)" d="M579.546 148.965 Q579.546 144.335 577.625 141.789 Q575.727 139.243 572.278 139.243 Q568.852 139.243 566.931 141.789 Q565.033 144.335 565.033 148.965 Q565.033 153.571 566.931 156.118 Q568.852 158.664 572.278 158.664 Q575.727 158.664 577.625 156.118 Q579.546 153.571 579.546 148.965 M583.806 159.011 Q583.806 165.631 580.866 168.849 Q577.926 172.09 571.861 172.09 Q569.616 172.09 567.625 171.742 Q565.634 171.418 563.759 170.724 L563.759 166.58 Q565.634 167.599 567.463 168.085 Q569.292 168.571 571.19 168.571 Q575.38 168.571 577.463 166.372 Q579.546 164.196 579.546 159.775 L579.546 157.668 Q578.227 159.96 576.167 161.094 Q574.107 162.229 571.236 162.229 Q566.468 162.229 563.551 158.594 Q560.634 154.96 560.634 148.965 Q560.634 142.946 563.551 139.312 Q566.468 135.678 571.236 135.678 Q574.107 135.678 576.167 136.812 Q578.227 137.946 579.546 140.238 L579.546 136.303 L583.806 136.303 L583.806 159.011 Z" fill="#000000" fill-rule="nonzero" fill-opacity="1" /><path clip-path="url(#clip060)" d="M607.602 140.284 Q606.884 139.868 606.028 139.682 Q605.194 139.474 604.176 139.474 Q600.565 139.474 598.62 141.835 Q596.699 144.173 596.699 148.571 L596.699 162.229 L592.417 162.229 L592.417 136.303 L596.699 136.303 L596.699 140.331 Q598.042 137.969 600.194 136.835 Q602.347 135.678 605.426 135.678 Q605.866 135.678 606.398 135.747 Q606.93 135.794 607.579 135.909 L607.602 140.284 Z" fill="#000000" fill-rule="nonzero" fill-opacity="1" /><path clip-path="url(#clip060)" d="M623.852 149.196 Q618.69 149.196 616.699 150.377 Q614.708 151.557 614.708 154.405 Q614.708 156.673 616.19 158.016 Q617.694 159.335 620.264 159.335 Q623.805 159.335 625.935 156.835 Q628.088 154.312 628.088 150.145 L628.088 149.196 L623.852 149.196 M632.347 147.437 L632.347 162.229 L628.088 162.229 L628.088 158.293 Q626.629 160.655 624.453 161.789 Q622.278 162.9 619.129 162.9 Q615.148 162.9 612.787 160.678 Q610.449 158.432 610.449 154.682 Q610.449 150.307 613.366 148.085 Q616.305 145.863 622.116 145.863 L628.088 145.863 L628.088 145.446 Q628.088 142.507 626.143 140.909 Q624.222 139.289 620.727 139.289 Q618.504 139.289 616.398 139.821 Q614.292 140.354 612.347 141.419 L612.347 137.483 Q614.685 136.581 616.884 136.141 Q619.083 135.678 621.166 135.678 Q626.791 135.678 629.569 138.594 Q632.347 141.511 632.347 147.437 Z" fill="#000000" fill-rule="nonzero" fill-opacity="1" /><path clip-path="url(#clip060)" d="M661.305 141.28 Q662.902 138.409 665.125 137.044 Q667.347 135.678 670.356 135.678 Q674.407 135.678 676.606 138.525 Q678.805 141.349 678.805 146.581 L678.805 162.229 L674.523 162.229 L674.523 146.719 Q674.523 142.993 673.203 141.187 Q671.884 139.382 669.175 139.382 Q665.865 139.382 663.944 141.581 Q662.023 143.78 662.023 147.576 L662.023 162.229 L657.74 162.229 L657.74 146.719 Q657.74 142.969 656.421 141.187 Q655.101 139.382 652.347 139.382 Q649.083 139.382 647.162 141.604 Q645.24 143.803 645.24 147.576 L645.24 162.229 L640.958 162.229 L640.958 136.303 L645.24 136.303 L645.24 140.331 Q646.699 137.946 648.736 136.812 Q650.773 135.678 653.574 135.678 Q656.398 135.678 658.365 137.113 Q660.356 138.548 661.305 141.28 Z" fill="#000000" fill-rule="nonzero" fill-opacity="1" /><polyline clip-path="url(#clip060)" style="stroke:#e26f46; stroke-linecap:round; stroke-linejoin:round; stroke-width:4; stroke-opacity:1; fill:none" points="272.215,196.789 417.369,196.789 "/>
<path clip-path="url(#clip060)" d="M446.237 183.351 L446.237 210.226 L451.885 210.226 Q459.038 210.226 462.348 206.985 Q465.681 203.745 465.681 196.754 Q465.681 189.809 462.348 186.592 Q459.038 183.351 451.885 183.351 L446.237 183.351 M441.561 179.509 L451.167 179.509 Q461.214 179.509 465.913 183.698 Q470.612 187.865 470.612 196.754 Q470.612 205.689 465.89 209.879 Q461.167 214.069 451.167 214.069 L441.561 214.069 L441.561 179.509 Z" fill="#000000" fill-rule="nonzero" fill-opacity="1" /><path clip-path="url(#clip060)" d="M477.88 188.143 L482.139 188.143 L482.139 214.069 L477.88 214.069 L477.88 188.143 M477.88 178.05 L482.139 178.05 L482.139 183.444 L477.88 183.444 L477.88 178.05 Z" fill="#000000" fill-rule="nonzero" fill-opacity="1" /><path clip-path="url(#clip060)" d="M507.579 188.907 L507.579 192.934 Q505.774 192.009 503.829 191.546 Q501.885 191.083 499.801 191.083 Q496.63 191.083 495.033 192.055 Q493.459 193.027 493.459 194.971 Q493.459 196.453 494.593 197.309 Q495.727 198.143 499.153 198.907 L500.612 199.231 Q505.149 200.203 507.047 201.985 Q508.968 203.745 508.968 206.916 Q508.968 210.527 506.098 212.633 Q503.25 214.74 498.25 214.74 Q496.167 214.74 493.899 214.323 Q491.653 213.93 489.153 213.12 L489.153 208.721 Q491.514 209.948 493.806 210.573 Q496.098 211.175 498.343 211.175 Q501.352 211.175 502.973 210.157 Q504.593 209.115 504.593 207.24 Q504.593 205.504 503.412 204.578 Q502.255 203.652 498.297 202.796 L496.815 202.448 Q492.857 201.615 491.098 199.902 Q489.338 198.166 489.338 195.157 Q489.338 191.499 491.931 189.509 Q494.524 187.518 499.292 187.518 Q501.653 187.518 503.737 187.865 Q505.82 188.212 507.579 188.907 Z" fill="#000000" fill-rule="nonzero" fill-opacity="1" /><path clip-path="url(#clip060)" d="M519.963 180.782 L519.963 188.143 L528.736 188.143 L528.736 191.453 L519.963 191.453 L519.963 205.527 Q519.963 208.698 520.82 209.601 Q521.699 210.504 524.361 210.504 L528.736 210.504 L528.736 214.069 L524.361 214.069 Q519.431 214.069 517.556 212.24 Q515.681 210.388 515.681 205.527 L515.681 191.453 L512.556 191.453 L512.556 188.143 L515.681 188.143 L515.681 180.782 L519.963 180.782 Z" fill="#000000" fill-rule="nonzero" fill-opacity="1" /><path clip-path="url(#clip060)" d="M549.361 192.124 Q548.644 191.708 547.787 191.522 Q546.954 191.314 545.935 191.314 Q542.324 191.314 540.38 193.675 Q538.459 196.013 538.459 200.411 L538.459 214.069 L534.176 214.069 L534.176 188.143 L538.459 188.143 L538.459 192.171 Q539.801 189.809 541.954 188.675 Q544.107 187.518 547.185 187.518 Q547.625 187.518 548.158 187.587 Q548.69 187.634 549.338 187.749 L549.361 192.124 Z" fill="#000000" fill-rule="nonzero" fill-opacity="1" /><path clip-path="url(#clip060)" d="M553.829 188.143 L558.088 188.143 L558.088 214.069 L553.829 214.069 L553.829 188.143 M553.829 178.05 L558.088 178.05 L558.088 183.444 L553.829 183.444 L553.829 178.05 Z" fill="#000000" fill-rule="nonzero" fill-opacity="1" /><path clip-path="url(#clip060)" d="M585.611 201.129 Q585.611 196.43 583.667 193.768 Q581.745 191.083 578.366 191.083 Q574.986 191.083 573.042 193.768 Q571.12 196.43 571.12 201.129 Q571.12 205.828 573.042 208.513 Q574.986 211.175 578.366 211.175 Q581.745 211.175 583.667 208.513 Q585.611 205.828 585.611 201.129 M571.12 192.078 Q572.463 189.763 574.5 188.652 Q576.56 187.518 579.407 187.518 Q584.13 187.518 587.069 191.268 Q590.032 195.018 590.032 201.129 Q590.032 207.24 587.069 210.99 Q584.13 214.74 579.407 214.74 Q576.56 214.74 574.5 213.629 Q572.463 212.495 571.12 210.18 L571.12 214.069 L566.838 214.069 L566.838 178.05 L571.12 178.05 L571.12 192.078 Z" fill="#000000" fill-rule="nonzero" fill-opacity="1" /><path clip-path="url(#clip060)" d="M596.653 203.837 L596.653 188.143 L600.912 188.143 L600.912 203.675 Q600.912 207.356 602.347 209.208 Q603.782 211.036 606.653 211.036 Q610.102 211.036 612.092 208.837 Q614.106 206.638 614.106 202.842 L614.106 188.143 L618.366 188.143 L618.366 214.069 L614.106 214.069 L614.106 210.087 Q612.555 212.448 610.495 213.606 Q608.458 214.74 605.75 214.74 Q601.282 214.74 598.968 211.962 Q596.653 209.184 596.653 203.837 M607.37 187.518 L607.37 187.518 Z" fill="#000000" fill-rule="nonzero" fill-opacity="1" /><path clip-path="url(#clip060)" d="M631.352 180.782 L631.352 188.143 L640.125 188.143 L640.125 191.453 L631.352 191.453 L631.352 205.527 Q631.352 208.698 632.208 209.601 Q633.088 210.504 635.75 210.504 L640.125 210.504 L640.125 214.069 L635.75 214.069 Q630.819 214.069 628.944 212.24 Q627.069 210.388 627.069 205.527 L627.069 191.453 L623.944 191.453 L623.944 188.143 L627.069 188.143 L627.069 180.782 L631.352 180.782 Z" fill="#000000" fill-rule="nonzero" fill-opacity="1" /><path clip-path="url(#clip060)" d="M645.727 188.143 L649.986 188.143 L649.986 214.069 L645.727 214.069 L645.727 188.143 M645.727 178.05 L649.986 178.05 L649.986 183.444 L645.727 183.444 L645.727 178.05 Z" fill="#000000" fill-rule="nonzero" fill-opacity="1" /><path clip-path="url(#clip060)" d="M668.944 191.129 Q665.518 191.129 663.527 193.814 Q661.537 196.476 661.537 201.129 Q661.537 205.782 663.504 208.467 Q665.495 211.129 668.944 211.129 Q672.347 211.129 674.337 208.444 Q676.328 205.758 676.328 201.129 Q676.328 196.522 674.337 193.837 Q672.347 191.129 668.944 191.129 M668.944 187.518 Q674.5 187.518 677.671 191.129 Q680.842 194.74 680.842 201.129 Q680.842 207.495 677.671 211.129 Q674.5 214.74 668.944 214.74 Q663.365 214.74 660.194 211.129 Q657.046 207.495 657.046 201.129 Q657.046 194.74 660.194 191.129 Q663.365 187.518 668.944 187.518 Z" fill="#000000" fill-rule="nonzero" fill-opacity="1" /><path clip-path="url(#clip060)" d="M709.453 198.421 L709.453 214.069 L705.194 214.069 L705.194 198.559 Q705.194 194.879 703.759 193.05 Q702.323 191.222 699.453 191.222 Q696.004 191.222 694.013 193.421 Q692.023 195.62 692.023 199.416 L692.023 214.069 L687.74 214.069 L687.74 188.143 L692.023 188.143 L692.023 192.171 Q693.55 189.833 695.611 188.675 Q697.694 187.518 700.402 187.518 Q704.87 187.518 707.161 190.296 Q709.453 193.05 709.453 198.421 Z" fill="#000000" fill-rule="nonzero" fill-opacity="1" /><path clip-path="url(#clip060)" d="M746.143 178.05 L746.143 181.592 L742.069 181.592 Q739.777 181.592 738.874 182.518 Q737.995 183.444 737.995 185.851 L737.995 188.143 L745.008 188.143 L745.008 191.453 L737.995 191.453 L737.995 214.069 L733.712 214.069 L733.712 191.453 L729.638 191.453 L729.638 188.143 L733.712 188.143 L733.712 186.337 Q733.712 182.009 735.726 180.041 Q737.74 178.05 742.115 178.05 L746.143 178.05 Z" fill="#000000" fill-rule="nonzero" fill-opacity="1" /><path clip-path="url(#clip060)" d="M749.707 188.143 L753.967 188.143 L753.967 214.069 L749.707 214.069 L749.707 188.143 M749.707 178.05 L753.967 178.05 L753.967 183.444 L749.707 183.444 L749.707 178.05 Z" fill="#000000" fill-rule="nonzero" fill-opacity="1" /><path clip-path="url(#clip060)" d="M767.092 180.782 L767.092 188.143 L775.865 188.143 L775.865 191.453 L767.092 191.453 L767.092 205.527 Q767.092 208.698 767.948 209.601 Q768.828 210.504 771.49 210.504 L775.865 210.504 L775.865 214.069 L771.49 214.069 Q766.559 214.069 764.684 212.24 Q762.809 210.388 762.809 205.527 L762.809 191.453 L759.684 191.453 L759.684 188.143 L762.809 188.143 L762.809 180.782 L767.092 180.782 Z" fill="#000000" fill-rule="nonzero" fill-opacity="1" /></svg>
