<?xml version="1.0" encoding="utf-8"?>
<svg xmlns="http://www.w3.org/2000/svg" xmlns:xlink="http://www.w3.org/1999/xlink" width="600" height="400" viewBox="0 0 2400 1600">
<defs>
  <clipPath id="clip010">
    <rect x="0" y="0" width="2400" height="1600"/>
  </clipPath>
</defs>
<path clip-path="url(#clip010)" d="M0 1600 L2400 1600 L2400 8.88178e-14 L0 8.88178e-14  Z" fill="#ffffff" fill-rule="evenodd" fill-opacity="1"/>
<defs>
  <clipPath id="clip011">
    <rect x="279" y="47" width="2074" height="1507"/>
  </clipPath>
</defs>
<path clip-path="url(#clip010)" d="M279.519 1552.76 L2352.76 1552.76 L2352.76 47.2441 L279.519 47.2441  Z" fill="#ffffff" fill-rule="evenodd" fill-opacity="1"/>
<polyline clip-path="url(#clip011)" style="stroke:#000000; stroke-linecap:round; stroke-linejoin:round; stroke-width:2; stroke-opacity:0.1; fill:none" points="279.519,1447.08 2352.76,1447.08 "/>
<polyline clip-path="url(#clip011)" style="stroke:#000000; stroke-linecap:round; stroke-linejoin:round; stroke-width:2; stroke-opacity:0.1; fill:none" points="279.519,1096.92 2352.76,1096.92 "/>
<polyline clip-path="url(#clip011)" style="stroke:#000000; stroke-linecap:round; stroke-linejoin:round; stroke-width:2; stroke-opacity:0.1; fill:none" points="279.519,746.769 2352.76,746.769 "/>
<polyline clip-path="url(#clip011)" style="stroke:#000000; stroke-linecap:round; stroke-linejoin:round; stroke-width:2; stroke-opacity:0.1; fill:none" points="279.519,396.615 2352.76,396.615 "/>
<polyline clip-path="url(#clip011)" style="stroke:#000000; stroke-linecap:round; stroke-linejoin:round; stroke-width:2; stroke-opacity:0.1; fill:none" points="279.519,1447.08 2352.76,1447.08 "/>
<polyline clip-path="url(#clip011)" style="stroke:#000000; stroke-linecap:round; stroke-linejoin:round; stroke-width:2; stroke-opacity:0.1; fill:none" points="279.519,1096.92 2352.76,1096.92 "/>
<polyline clip-path="url(#clip011)" style="stroke:#000000; stroke-linecap:round; stroke-linejoin:round; stroke-width:2; stroke-opacity:0.1; fill:none" points="279.519,746.769 2352.76,746.769 "/>
<polyline clip-path="url(#clip011)" style="stroke:#000000; stroke-linecap:round; stroke-linejoin:round; stroke-width:2; stroke-opacity:0.1; fill:none" points="279.519,396.615 2352.76,396.615 "/>
<polyline clip-path="url(#clip010)" style="stroke:#000000; stroke-linecap:round; stroke-linejoin:round; stroke-width:4; stroke-opacity:1; fill:none" points="279.519,1552.76 2352.76,1552.76 "/>
<polyline clip-path="url(#clip010)" style="stroke:#000000; stroke-linecap:round; stroke-linejoin:round; stroke-width:4; stroke-opacity:1; fill:none" points="279.519,47.2441 2352.76,47.2441 "/>
<polyline clip-path="url(#clip010)" style="stroke:#000000; stroke-linecap:round; stroke-linejoin:round; stroke-width:4; stroke-opacity:1; fill:none" points="279.519,1552.76 279.519,47.2441 "/>
<polyline clip-path="url(#clip010)" style="stroke:#000000; stroke-linecap:round; stroke-linejoin:round; stroke-width:4; stroke-opacity:1; fill:none" points="2352.76,1552.76 2352.76,47.2441 "/>
<polyline clip-path="url(#clip010)" style="stroke:#000000; stroke-linecap:round; stroke-linejoin:round; stroke-width:4; stroke-opacity:1; fill:none" points="279.519,1447.08 298.416,1447.08 "/>
<polyline clip-path="url(#clip010)" style="stroke:#000000; stroke-linecap:round; stroke-linejoin:round; stroke-width:4; stroke-opacity:1; fill:none" points="279.519,1096.92 298.416,1096.92 "/>
<polyline clip-path="url(#clip010)" style="stroke:#000000; stroke-linecap:round; stroke-linejoin:round; stroke-width:4; stroke-opacity:1; fill:none" points="279.519,746.769 298.416,746.769 "/>
<polyline clip-path="url(#clip010)" style="stroke:#000000; stroke-linecap:round; stroke-linejoin:round; stroke-width:4; stroke-opacity:1; fill:none" points="279.519,396.615 298.416,396.615 "/>
<polyline clip-path="url(#clip010)" style="stroke:#000000; stroke-linecap:round; stroke-linejoin:round; stroke-width:4; stroke-opacity:1; fill:none" points="2352.76,1447.08 2333.86,1447.08 "/>
<polyline clip-path="url(#clip010)" style="stroke:#000000; stroke-linecap:round; stroke-linejoin:round; stroke-width:4; stroke-opacity:1; fill:none" points="2352.76,1096.92 2333.86,1096.92 "/>
<polyline clip-path="url(#clip010)" style="stroke:#000000; stroke-linecap:round; stroke-linejoin:round; stroke-width:4; stroke-opacity:1; fill:none" points="2352.76,746.769 2333.86,746.769 "/>
<polyline clip-path="url(#clip010)" style="stroke:#000000; stroke-linecap:round; stroke-linejoin:round; stroke-width:4; stroke-opacity:1; fill:none" points="2352.76,396.615 2333.86,396.615 "/>
<path clip-path="url(#clip010)" d="M127.593 1445.22 Q124.445 1445.22 122.593 1447.37 Q120.765 1449.52 120.765 1453.27 Q120.765 1457 122.593 1459.17 Q124.445 1461.33 127.593 1461.33 Q130.742 1461.33 132.57 1459.17 Q134.422 1457 134.422 1453.27 Q134.422 1449.52 132.57 1447.37 Q130.742 1445.22 127.593 1445.22 M136.876 1430.56 L136.876 1434.82 Q135.117 1433.99 133.311 1433.55 Q131.529 1433.11 129.769 1433.11 Q125.14 1433.11 122.686 1436.23 Q120.255 1439.36 119.908 1445.68 Q121.274 1443.66 123.334 1442.6 Q125.394 1441.51 127.871 1441.51 Q133.08 1441.51 136.089 1444.68 Q139.121 1447.83 139.121 1453.27 Q139.121 1458.59 135.973 1461.81 Q132.825 1465.03 127.593 1465.03 Q121.598 1465.03 118.427 1460.45 Q115.256 1455.84 115.256 1447.11 Q115.256 1438.92 119.144 1434.06 Q123.033 1429.17 129.584 1429.17 Q131.343 1429.17 133.126 1429.52 Q134.931 1429.87 136.876 1430.56 Z" fill="#000000" fill-rule="nonzero" fill-opacity="1" /><path clip-path="url(#clip010)" d="M147.223 1429.8 L165.579 1429.8 L165.579 1433.73 L151.505 1433.73 L151.505 1442.21 Q152.524 1441.86 153.542 1441.7 Q154.561 1441.51 155.579 1441.51 Q161.366 1441.51 164.746 1444.68 Q168.126 1447.85 168.126 1453.27 Q168.126 1458.85 164.653 1461.95 Q161.181 1465.03 154.862 1465.03 Q152.686 1465.03 150.417 1464.66 Q148.172 1464.29 145.765 1463.55 L145.765 1458.85 Q147.848 1459.98 150.07 1460.54 Q152.292 1461.09 154.769 1461.09 Q158.774 1461.09 161.112 1458.99 Q163.45 1456.88 163.45 1453.27 Q163.45 1449.66 161.112 1447.55 Q158.774 1445.45 154.769 1445.45 Q152.894 1445.45 151.019 1445.86 Q149.167 1446.28 147.223 1447.16 L147.223 1429.8 Z" fill="#000000" fill-rule="nonzero" fill-opacity="1" /><path clip-path="url(#clip010)" d="M177.339 1458.48 L182.223 1458.48 L182.223 1464.36 L177.339 1464.36 L177.339 1458.48 Z" fill="#000000" fill-rule="nonzero" fill-opacity="1" /><path clip-path="url(#clip010)" d="M196.436 1460.42 L212.755 1460.42 L212.755 1464.36 L190.811 1464.36 L190.811 1460.42 Q193.473 1457.67 198.056 1453.04 Q202.662 1448.39 203.843 1447.04 Q206.088 1444.52 206.968 1442.78 Q207.871 1441.03 207.871 1439.34 Q207.871 1436.58 205.926 1434.85 Q204.005 1433.11 200.903 1433.11 Q198.704 1433.11 196.25 1433.87 Q193.82 1434.64 191.042 1436.19 L191.042 1431.47 Q193.866 1430.33 196.32 1429.75 Q198.774 1429.17 200.811 1429.17 Q206.181 1429.17 209.375 1431.86 Q212.57 1434.54 212.57 1439.03 Q212.57 1441.16 211.76 1443.09 Q210.973 1444.98 208.866 1447.58 Q208.287 1448.25 205.186 1451.47 Q202.084 1454.66 196.436 1460.42 Z" fill="#000000" fill-rule="nonzero" fill-opacity="1" /><path clip-path="url(#clip010)" d="M222.616 1429.8 L240.972 1429.8 L240.972 1433.73 L226.898 1433.73 L226.898 1442.21 Q227.917 1441.86 228.935 1441.7 Q229.954 1441.51 230.972 1441.51 Q236.76 1441.51 240.139 1444.68 Q243.519 1447.85 243.519 1453.27 Q243.519 1458.85 240.047 1461.95 Q236.574 1465.03 230.255 1465.03 Q228.079 1465.03 225.81 1464.66 Q223.565 1464.29 221.158 1463.55 L221.158 1458.85 Q223.241 1459.98 225.463 1460.54 Q227.685 1461.09 230.162 1461.09 Q234.167 1461.09 236.505 1458.99 Q238.843 1456.88 238.843 1453.27 Q238.843 1449.66 236.505 1447.55 Q234.167 1445.45 230.162 1445.45 Q228.287 1445.45 226.412 1445.86 Q224.56 1446.28 222.616 1447.16 L222.616 1429.8 Z" fill="#000000" fill-rule="nonzero" fill-opacity="1" /><path clip-path="url(#clip010)" d="M126.598 1095.06 Q123.45 1095.06 121.598 1097.21 Q119.769 1099.37 119.769 1103.12 Q119.769 1106.84 121.598 1109.02 Q123.45 1111.17 126.598 1111.17 Q129.746 1111.17 131.575 1109.02 Q133.427 1106.84 133.427 1103.12 Q133.427 1099.37 131.575 1097.21 Q129.746 1095.06 126.598 1095.06 M135.88 1080.41 L135.88 1084.67 Q134.121 1083.83 132.316 1083.39 Q130.533 1082.95 128.774 1082.95 Q124.144 1082.95 121.691 1086.08 Q119.26 1089.2 118.913 1095.52 Q120.279 1093.51 122.339 1092.44 Q124.399 1091.36 126.876 1091.36 Q132.084 1091.36 135.093 1094.53 Q138.126 1097.68 138.126 1103.12 Q138.126 1108.44 134.978 1111.66 Q131.83 1114.88 126.598 1114.88 Q120.603 1114.88 117.431 1110.29 Q114.26 1105.69 114.26 1096.96 Q114.26 1088.76 118.149 1083.9 Q122.038 1079.02 128.589 1079.02 Q130.348 1079.02 132.13 1079.37 Q133.936 1079.71 135.88 1080.41 Z" fill="#000000" fill-rule="nonzero" fill-opacity="1" /><path clip-path="url(#clip010)" d="M146.228 1079.64 L164.584 1079.64 L164.584 1083.58 L150.51 1083.58 L150.51 1092.05 Q151.528 1091.7 152.547 1091.54 Q153.566 1091.36 154.584 1091.36 Q160.371 1091.36 163.751 1094.53 Q167.13 1097.7 167.13 1103.12 Q167.13 1108.69 163.658 1111.8 Q160.186 1114.88 153.866 1114.88 Q151.691 1114.88 149.422 1114.51 Q147.177 1114.13 144.769 1113.39 L144.769 1108.69 Q146.853 1109.83 149.075 1110.38 Q151.297 1110.94 153.774 1110.94 Q157.778 1110.94 160.116 1108.83 Q162.454 1106.73 162.454 1103.12 Q162.454 1099.51 160.116 1097.4 Q157.778 1095.29 153.774 1095.29 Q151.899 1095.29 150.024 1095.71 Q148.172 1096.13 146.228 1097.01 L146.228 1079.64 Z" fill="#000000" fill-rule="nonzero" fill-opacity="1" /><path clip-path="url(#clip010)" d="M176.343 1108.32 L181.227 1108.32 L181.227 1114.2 L176.343 1114.2 L176.343 1108.32 Z" fill="#000000" fill-rule="nonzero" fill-opacity="1" /><path clip-path="url(#clip010)" d="M191.459 1079.64 L209.815 1079.64 L209.815 1083.58 L195.741 1083.58 L195.741 1092.05 Q196.76 1091.7 197.778 1091.54 Q198.797 1091.36 199.815 1091.36 Q205.602 1091.36 208.982 1094.53 Q212.361 1097.7 212.361 1103.12 Q212.361 1108.69 208.889 1111.8 Q205.417 1114.88 199.098 1114.88 Q196.922 1114.88 194.653 1114.51 Q192.408 1114.13 190 1113.39 L190 1108.69 Q192.084 1109.83 194.306 1110.38 Q196.528 1110.94 199.005 1110.94 Q203.01 1110.94 205.348 1108.83 Q207.686 1106.73 207.686 1103.12 Q207.686 1099.51 205.348 1097.4 Q203.01 1095.29 199.005 1095.29 Q197.13 1095.29 195.255 1095.71 Q193.403 1096.13 191.459 1097.01 L191.459 1079.64 Z" fill="#000000" fill-rule="nonzero" fill-opacity="1" /><path clip-path="url(#clip010)" d="M231.574 1082.72 Q227.963 1082.72 226.135 1086.29 Q224.329 1089.83 224.329 1096.96 Q224.329 1104.07 226.135 1107.63 Q227.963 1111.17 231.574 1111.17 Q235.209 1111.17 237.014 1107.63 Q238.843 1104.07 238.843 1096.96 Q238.843 1089.83 237.014 1086.29 Q235.209 1082.72 231.574 1082.72 M231.574 1079.02 Q237.384 1079.02 240.44 1083.63 Q243.519 1088.21 243.519 1096.96 Q243.519 1105.69 240.44 1110.29 Q237.384 1114.88 231.574 1114.88 Q225.764 1114.88 222.686 1110.29 Q219.63 1105.69 219.63 1096.96 Q219.63 1088.21 222.686 1083.63 Q225.764 1079.02 231.574 1079.02 Z" fill="#000000" fill-rule="nonzero" fill-opacity="1" /><path clip-path="url(#clip010)" d="M127.593 744.906 Q124.445 744.906 122.593 747.059 Q120.765 749.211 120.765 752.961 Q120.765 756.688 122.593 758.864 Q124.445 761.017 127.593 761.017 Q130.742 761.017 132.57 758.864 Q134.422 756.688 134.422 752.961 Q134.422 749.211 132.57 747.059 Q130.742 744.906 127.593 744.906 M136.876 730.253 L136.876 734.512 Q135.117 733.679 133.311 733.239 Q131.529 732.8 129.769 732.8 Q125.14 732.8 122.686 735.925 Q120.255 739.05 119.908 745.369 Q121.274 743.355 123.334 742.29 Q125.394 741.202 127.871 741.202 Q133.08 741.202 136.089 744.374 Q139.121 747.522 139.121 752.961 Q139.121 758.286 135.973 761.503 Q132.825 764.721 127.593 764.721 Q121.598 764.721 118.427 760.137 Q115.256 755.531 115.256 746.804 Q115.256 738.61 119.144 733.749 Q123.033 728.864 129.584 728.864 Q131.343 728.864 133.126 729.212 Q134.931 729.559 136.876 730.253 Z" fill="#000000" fill-rule="nonzero" fill-opacity="1" /><path clip-path="url(#clip010)" d="M147.223 729.489 L165.579 729.489 L165.579 733.425 L151.505 733.425 L151.505 741.897 Q152.524 741.549 153.542 741.387 Q154.561 741.202 155.579 741.202 Q161.366 741.202 164.746 744.374 Q168.126 747.545 168.126 752.961 Q168.126 758.54 164.653 761.642 Q161.181 764.721 154.862 764.721 Q152.686 764.721 150.417 764.35 Q148.172 763.98 145.765 763.239 L145.765 758.54 Q147.848 759.674 150.07 760.23 Q152.292 760.786 154.769 760.786 Q158.774 760.786 161.112 758.679 Q163.45 756.573 163.45 752.961 Q163.45 749.35 161.112 747.244 Q158.774 745.137 154.769 745.137 Q152.894 745.137 151.019 745.554 Q149.167 745.971 147.223 746.85 L147.223 729.489 Z" fill="#000000" fill-rule="nonzero" fill-opacity="1" /><path clip-path="url(#clip010)" d="M177.339 758.17 L182.223 758.17 L182.223 764.049 L177.339 764.049 L177.339 758.17 Z" fill="#000000" fill-rule="nonzero" fill-opacity="1" /><path clip-path="url(#clip010)" d="M191.227 729.489 L213.449 729.489 L213.449 731.48 L200.903 764.049 L196.019 764.049 L207.824 733.425 L191.227 733.425 L191.227 729.489 Z" fill="#000000" fill-rule="nonzero" fill-opacity="1" /><path clip-path="url(#clip010)" d="M222.616 729.489 L240.972 729.489 L240.972 733.425 L226.898 733.425 L226.898 741.897 Q227.917 741.549 228.935 741.387 Q229.954 741.202 230.972 741.202 Q236.76 741.202 240.139 744.374 Q243.519 747.545 243.519 752.961 Q243.519 758.54 240.047 761.642 Q236.574 764.721 230.255 764.721 Q228.079 764.721 225.81 764.35 Q223.565 763.98 221.158 763.239 L221.158 758.54 Q223.241 759.674 225.463 760.23 Q227.685 760.786 230.162 760.786 Q234.167 760.786 236.505 758.679 Q238.843 756.573 238.843 752.961 Q238.843 749.35 236.505 747.244 Q234.167 745.137 230.162 745.137 Q228.287 745.137 226.412 745.554 Q224.56 745.971 222.616 746.85 L222.616 729.489 Z" fill="#000000" fill-rule="nonzero" fill-opacity="1" /><path clip-path="url(#clip010)" d="M126.598 394.751 Q123.45 394.751 121.598 396.904 Q119.769 399.057 119.769 402.807 Q119.769 406.534 121.598 408.709 Q123.45 410.862 126.598 410.862 Q129.746 410.862 131.575 408.709 Q133.427 406.534 133.427 402.807 Q133.427 399.057 131.575 396.904 Q129.746 394.751 126.598 394.751 M135.88 380.099 L135.88 384.358 Q134.121 383.524 132.316 383.085 Q130.533 382.645 128.774 382.645 Q124.144 382.645 121.691 385.77 Q119.26 388.895 118.913 395.214 Q120.279 393.2 122.339 392.136 Q124.399 391.048 126.876 391.048 Q132.084 391.048 135.093 394.219 Q138.126 397.367 138.126 402.807 Q138.126 408.131 134.978 411.348 Q131.83 414.566 126.598 414.566 Q120.603 414.566 117.431 409.983 Q114.26 405.376 114.26 396.649 Q114.26 388.455 118.149 383.594 Q122.038 378.71 128.589 378.71 Q130.348 378.71 132.13 379.057 Q133.936 379.404 135.88 380.099 Z" fill="#000000" fill-rule="nonzero" fill-opacity="1" /><path clip-path="url(#clip010)" d="M156.76 394.751 Q153.612 394.751 151.76 396.904 Q149.931 399.057 149.931 402.807 Q149.931 406.534 151.76 408.709 Q153.612 410.862 156.76 410.862 Q159.908 410.862 161.737 408.709 Q163.589 406.534 163.589 402.807 Q163.589 399.057 161.737 396.904 Q159.908 394.751 156.76 394.751 M166.042 380.099 L166.042 384.358 Q164.283 383.524 162.477 383.085 Q160.695 382.645 158.936 382.645 Q154.306 382.645 151.853 385.77 Q149.422 388.895 149.075 395.214 Q150.441 393.2 152.501 392.136 Q154.561 391.048 157.038 391.048 Q162.246 391.048 165.255 394.219 Q168.288 397.367 168.288 402.807 Q168.288 408.131 165.14 411.348 Q161.991 414.566 156.76 414.566 Q150.765 414.566 147.593 409.983 Q144.422 405.376 144.422 396.649 Q144.422 388.455 148.311 383.594 Q152.2 378.71 158.751 378.71 Q160.51 378.71 162.292 379.057 Q164.098 379.404 166.042 380.099 Z" fill="#000000" fill-rule="nonzero" fill-opacity="1" /><path clip-path="url(#clip010)" d="M176.343 408.015 L181.227 408.015 L181.227 413.895 L176.343 413.895 L176.343 408.015 Z" fill="#000000" fill-rule="nonzero" fill-opacity="1" /><path clip-path="url(#clip010)" d="M201.412 382.413 Q197.801 382.413 195.973 385.978 Q194.167 389.52 194.167 396.649 Q194.167 403.756 195.973 407.321 Q197.801 410.862 201.412 410.862 Q205.047 410.862 206.852 407.321 Q208.681 403.756 208.681 396.649 Q208.681 389.52 206.852 385.978 Q205.047 382.413 201.412 382.413 M201.412 378.71 Q207.223 378.71 210.278 383.316 Q213.357 387.899 213.357 396.649 Q213.357 405.376 210.278 409.983 Q207.223 414.566 201.412 414.566 Q195.602 414.566 192.524 409.983 Q189.468 405.376 189.468 396.649 Q189.468 387.899 192.524 383.316 Q195.602 378.71 201.412 378.71 Z" fill="#000000" fill-rule="nonzero" fill-opacity="1" /><path clip-path="url(#clip010)" d="M231.574 382.413 Q227.963 382.413 226.135 385.978 Q224.329 389.52 224.329 396.649 Q224.329 403.756 226.135 407.321 Q227.963 410.862 231.574 410.862 Q235.209 410.862 237.014 407.321 Q238.843 403.756 238.843 396.649 Q238.843 389.52 237.014 385.978 Q235.209 382.413 231.574 382.413 M231.574 378.71 Q237.384 378.71 240.44 383.316 Q243.519 387.899 243.519 396.649 Q243.519 405.376 240.44 409.983 Q237.384 414.566 231.574 414.566 Q225.764 414.566 222.686 409.983 Q219.63 405.376 219.63 396.649 Q219.63 387.899 222.686 383.316 Q225.764 378.71 231.574 378.71 Z" fill="#000000" fill-rule="nonzero" fill-opacity="1" /><path clip-path="url(#clip010)" d="M22.818 922.094 L46.4666 930.815 L46.4666 913.341 L22.818 922.094 M16.4842 925.723 L16.4842 918.434 L64.0042 900.324 L64.0042 907.008 L51.8138 911.336 L51.8138 932.757 L64.0042 937.085 L64.0042 943.865 L16.4842 925.723 Z" fill="#000000" fill-rule="nonzero" fill-opacity="1" /><path clip-path="url(#clip010)" d="M45.7664 870.182 Q39.4007 870.182 35.8996 872.824 Q32.3984 875.434 32.3984 880.176 Q32.3984 884.887 35.8996 887.528 Q39.4007 890.138 45.7664 890.138 Q52.1003 890.138 55.6014 887.528 Q59.1026 884.887 59.1026 880.176 Q59.1026 875.434 55.6014 872.824 Q52.1003 870.182 45.7664 870.182 M59.58 864.325 Q68.683 864.325 73.1071 868.368 Q77.5631 872.41 77.5631 880.749 Q77.5631 883.836 77.0857 886.574 Q76.6401 889.311 75.6852 891.889 L69.9879 891.889 Q71.3884 889.311 72.0568 886.796 Q72.7252 884.282 72.7252 881.672 Q72.7252 875.911 69.7015 873.046 Q66.7096 870.182 60.6303 870.182 L57.7339 870.182 Q60.885 871.996 62.4446 874.829 Q64.0042 877.662 64.0042 881.608 Q64.0042 888.165 59.0071 892.175 Q54.01 896.186 45.7664 896.186 Q37.491 896.186 32.4939 892.175 Q27.4968 888.165 27.4968 881.608 Q27.4968 877.662 29.0564 874.829 Q30.616 871.996 33.7671 870.182 L28.3562 870.182 L28.3562 864.325 L59.58 864.325 Z" fill="#000000" fill-rule="nonzero" fill-opacity="1" /><path clip-path="url(#clip010)" d="M44.7161 821.771 L47.5806 821.771 L47.5806 848.698 Q53.6281 848.316 56.8109 845.069 Q59.9619 841.791 59.9619 835.966 Q59.9619 832.592 59.1344 829.441 Q58.3069 826.259 56.6518 823.139 L62.1899 823.139 Q63.5267 826.29 64.227 829.601 Q64.9272 832.911 64.9272 836.316 Q64.9272 844.846 59.9619 849.843 Q54.9967 854.809 46.5303 854.809 Q37.7774 854.809 32.6531 850.098 Q27.4968 845.356 27.4968 837.335 Q27.4968 830.142 32.1438 825.972 Q36.7589 821.771 44.7161 821.771 M42.9973 827.627 Q38.1912 827.691 35.3266 830.333 Q32.4621 832.943 32.4621 837.271 Q32.4621 842.173 35.2312 845.133 Q38.0002 848.061 43.0292 848.507 L42.9973 827.627 Z" fill="#000000" fill-rule="nonzero" fill-opacity="1" /><path clip-path="url(#clip010)" d="M14.5426 777.37 Q21.8632 781.635 29.0246 783.704 Q36.186 785.773 43.5384 785.773 Q50.8908 785.773 58.1159 783.704 Q65.3091 781.603 72.5979 777.37 L72.5979 782.462 Q65.1182 787.237 57.8931 789.624 Q50.668 791.979 43.5384 791.979 Q36.4406 791.979 29.2474 789.624 Q22.0542 787.269 14.5426 782.462 L14.5426 777.37 Z" fill="#000000" fill-rule="nonzero" fill-opacity="1" /><path clip-path="url(#clip010)" d="M16.4842 765.752 L16.4842 756.172 L48.8219 744.045 L16.4842 731.855 L16.4842 722.275 L64.0042 722.275 L64.0042 728.545 L22.277 728.545 L54.8694 740.799 L54.8694 747.26 L22.277 759.514 L64.0042 759.514 L64.0042 765.752 L16.4842 765.752 Z" fill="#000000" fill-rule="nonzero" fill-opacity="1" /><path clip-path="url(#clip010)" d="M46.0847 693.565 Q46.0847 700.663 47.7079 703.4 Q49.3312 706.138 53.2461 706.138 Q56.3653 706.138 58.2114 704.101 Q60.0256 702.032 60.0256 698.499 Q60.0256 693.629 56.5881 690.701 Q53.1188 687.741 47.3897 687.741 L46.0847 687.741 L46.0847 693.565 M43.6657 681.884 L64.0042 681.884 L64.0042 687.741 L58.5933 687.741 Q61.8398 689.746 63.3994 692.738 Q64.9272 695.73 64.9272 700.058 Q64.9272 705.533 61.8716 708.779 Q58.7843 711.994 53.6281 711.994 Q47.6125 711.994 44.5569 707.984 Q41.5014 703.941 41.5014 695.953 L41.5014 687.741 L40.9285 687.741 Q36.8862 687.741 34.6901 690.414 Q32.4621 693.056 32.4621 697.862 Q32.4621 700.918 33.1941 703.814 Q33.9262 706.711 35.3903 709.384 L29.9795 709.384 Q28.7381 706.169 28.1334 703.146 Q27.4968 700.122 27.4968 697.257 Q27.4968 689.523 31.5072 685.704 Q35.5176 681.884 43.6657 681.884 Z" fill="#000000" fill-rule="nonzero" fill-opacity="1" /><path clip-path="url(#clip010)" d="M14.5426 670.744 L14.5426 665.652 Q22.0542 660.877 29.2474 658.522 Q36.4406 656.135 43.5384 656.135 Q50.668 656.135 57.8931 658.522 Q65.1182 660.877 72.5979 665.652 L72.5979 670.744 Q65.3091 666.511 58.1159 664.442 Q50.8908 662.342 43.5384 662.342 Q36.186 662.342 29.0246 664.442 Q21.8632 666.511 14.5426 670.744 Z" fill="#000000" fill-rule="nonzero" fill-opacity="1" /><polyline clip-path="url(#clip011)" style="stroke:#009af9; stroke-linecap:round; stroke-linejoin:round; stroke-width:4; stroke-opacity:1; fill:none" points="338.195,1434.66 338.195,459.545 "/>
<polyline clip-path="url(#clip011)" style="stroke:#009af9; stroke-linecap:round; stroke-linejoin:round; stroke-width:4; stroke-opacity:1; fill:none" points="516.003,1113.22 516.003,718.488 "/>
<polyline clip-path="url(#clip011)" style="stroke:#009af9; stroke-linecap:round; stroke-linejoin:round; stroke-width:4; stroke-opacity:1; fill:none" points="693.811,1510.15 693.811,290.694 "/>
<polyline clip-path="url(#clip011)" style="stroke:#009af9; stroke-linecap:round; stroke-linejoin:round; stroke-width:4; stroke-opacity:1; fill:none" points="871.618,1426.49 871.618,303.846 "/>
<polyline clip-path="url(#clip011)" style="stroke:#009af9; stroke-linecap:round; stroke-linejoin:round; stroke-width:4; stroke-opacity:1; fill:none" points="1049.43,1365.64 1049.43,89.8529 "/>
<polyline clip-path="url(#clip011)" style="stroke:#009af9; stroke-linecap:round; stroke-linejoin:round; stroke-width:4; stroke-opacity:1; fill:none" points="1227.23,942.212 1227.23,400.36 "/>
<polyline clip-path="url(#clip011)" style="stroke:#009af9; stroke-linecap:round; stroke-linejoin:round; stroke-width:4; stroke-opacity:1; fill:none" points="1405.04,744.412 1405.04,543.42 "/>
<polyline clip-path="url(#clip011)" style="stroke:#009af9; stroke-linecap:round; stroke-linejoin:round; stroke-width:4; stroke-opacity:1; fill:none" points="1582.85,696.116 1582.85,474.181 "/>
<polyline clip-path="url(#clip011)" style="stroke:#009af9; stroke-linecap:round; stroke-linejoin:round; stroke-width:4; stroke-opacity:1; fill:none" points="1760.66,693.325 1760.66,417.342 "/>
<polyline clip-path="url(#clip011)" style="stroke:#009af9; stroke-linecap:round; stroke-linejoin:round; stroke-width:4; stroke-opacity:1; fill:none" points="1938.46,709.658 1938.46,393.959 "/>
<polyline clip-path="url(#clip011)" style="stroke:#009af9; stroke-linecap:round; stroke-linejoin:round; stroke-width:4; stroke-opacity:1; fill:none" points="2116.27,659.543 2116.27,395.074 "/>
<polyline clip-path="url(#clip011)" style="stroke:#009af9; stroke-linecap:round; stroke-linejoin:round; stroke-width:4; stroke-opacity:1; fill:none" points="2294.08,264.231 2294.08,150.889 "/>
<line clip-path="url(#clip011)" x1="354.195" y1="1434.66" x2="322.195" y2="1434.66" style="stroke:#009af9; stroke-width:4; stroke-opacity:1"/>
<line clip-path="url(#clip011)" x1="354.195" y1="459.545" x2="322.195" y2="459.545" style="stroke:#009af9; stroke-width:4; stroke-opacity:1"/>
<line clip-path="url(#clip011)" x1="532.003" y1="1113.22" x2="500.003" y2="1113.22" style="stroke:#009af9; stroke-width:4; stroke-opacity:1"/>
<line clip-path="url(#clip011)" x1="532.003" y1="718.488" x2="500.003" y2="718.488" style="stroke:#009af9; stroke-width:4; stroke-opacity:1"/>
<line clip-path="url(#clip011)" x1="709.811" y1="1510.15" x2="677.811" y2="1510.15" style="stroke:#009af9; stroke-width:4; stroke-opacity:1"/>
<line clip-path="url(#clip011)" x1="709.811" y1="290.694" x2="677.811" y2="290.694" style="stroke:#009af9; stroke-width:4; stroke-opacity:1"/>
<line clip-path="url(#clip011)" x1="887.618" y1="1426.49" x2="855.618" y2="1426.49" style="stroke:#009af9; stroke-width:4; stroke-opacity:1"/>
<line clip-path="url(#clip011)" x1="887.618" y1="303.846" x2="855.618" y2="303.846" style="stroke:#009af9; stroke-width:4; stroke-opacity:1"/>
<line clip-path="url(#clip011)" x1="1065.43" y1="1365.64" x2="1033.43" y2="1365.64" style="stroke:#009af9; stroke-width:4; stroke-opacity:1"/>
<line clip-path="url(#clip011)" x1="1065.43" y1="89.8529" x2="1033.43" y2="89.8529" style="stroke:#009af9; stroke-width:4; stroke-opacity:1"/>
<line clip-path="url(#clip011)" x1="1243.23" y1="942.212" x2="1211.23" y2="942.212" style="stroke:#009af9; stroke-width:4; stroke-opacity:1"/>
<line clip-path="url(#clip011)" x1="1243.23" y1="400.36" x2="1211.23" y2="400.36" style="stroke:#009af9; stroke-width:4; stroke-opacity:1"/>
<line clip-path="url(#clip011)" x1="1421.04" y1="744.412" x2="1389.04" y2="744.412" style="stroke:#009af9; stroke-width:4; stroke-opacity:1"/>
<line clip-path="url(#clip011)" x1="1421.04" y1="543.42" x2="1389.04" y2="543.42" style="stroke:#009af9; stroke-width:4; stroke-opacity:1"/>
<line clip-path="url(#clip011)" x1="1598.85" y1="696.116" x2="1566.85" y2="696.116" style="stroke:#009af9; stroke-width:4; stroke-opacity:1"/>
<line clip-path="url(#clip011)" x1="1598.85" y1="474.181" x2="1566.85" y2="474.181" style="stroke:#009af9; stroke-width:4; stroke-opacity:1"/>
<line clip-path="url(#clip011)" x1="1776.66" y1="693.325" x2="1744.66" y2="693.325" style="stroke:#009af9; stroke-width:4; stroke-opacity:1"/>
<line clip-path="url(#clip011)" x1="1776.66" y1="417.342" x2="1744.66" y2="417.342" style="stroke:#009af9; stroke-width:4; stroke-opacity:1"/>
<line clip-path="url(#clip011)" x1="1954.46" y1="709.658" x2="1922.46" y2="709.658" style="stroke:#009af9; stroke-width:4; stroke-opacity:1"/>
<line clip-path="url(#clip011)" x1="1954.46" y1="393.959" x2="1922.46" y2="393.959" style="stroke:#009af9; stroke-width:4; stroke-opacity:1"/>
<line clip-path="url(#clip011)" x1="2132.27" y1="659.543" x2="2100.27" y2="659.543" style="stroke:#009af9; stroke-width:4; stroke-opacity:1"/>
<line clip-path="url(#clip011)" x1="2132.27" y1="395.074" x2="2100.27" y2="395.074" style="stroke:#009af9; stroke-width:4; stroke-opacity:1"/>
<line clip-path="url(#clip011)" x1="2310.08" y1="264.231" x2="2278.08" y2="264.231" style="stroke:#009af9; stroke-width:4; stroke-opacity:1"/>
<line clip-path="url(#clip011)" x1="2310.08" y1="150.889" x2="2278.08" y2="150.889" style="stroke:#009af9; stroke-width:4; stroke-opacity:1"/>
<circle clip-path="url(#clip011)" cx="338.195" cy="947.103" r="14.4" fill="#009af9" fill-rule="evenodd" fill-opacity="1" stroke="none"/>
<circle clip-path="url(#clip011)" cx="516.003" cy="915.854" r="14.4" fill="#009af9" fill-rule="evenodd" fill-opacity="1" stroke="none"/>
<circle clip-path="url(#clip011)" cx="693.811" cy="900.421" r="14.4" fill="#009af9" fill-rule="evenodd" fill-opacity="1" stroke="none"/>
<circle clip-path="url(#clip011)" cx="871.618" cy="865.17" r="14.4" fill="#009af9" fill-rule="evenodd" fill-opacity="1" stroke="none"/>
<circle clip-path="url(#clip011)" cx="1049.43" cy="727.745" r="14.4" fill="#009af9" fill-rule="evenodd" fill-opacity="1" stroke="none"/>
<circle clip-path="url(#clip011)" cx="1227.23" cy="671.286" r="14.4" fill="#009af9" fill-rule="evenodd" fill-opacity="1" stroke="none"/>
<circle clip-path="url(#clip011)" cx="1405.04" cy="643.916" r="14.4" fill="#009af9" fill-rule="evenodd" fill-opacity="1" stroke="none"/>
<circle clip-path="url(#clip011)" cx="1582.85" cy="585.149" r="14.4" fill="#009af9" fill-rule="evenodd" fill-opacity="1" stroke="none"/>
<circle clip-path="url(#clip011)" cx="1760.66" cy="555.333" r="14.4" fill="#009af9" fill-rule="evenodd" fill-opacity="1" stroke="none"/>
<circle clip-path="url(#clip011)" cx="1938.46" cy="551.809" r="14.4" fill="#009af9" fill-rule="evenodd" fill-opacity="1" stroke="none"/>
<circle clip-path="url(#clip011)" cx="2116.27" cy="527.308" r="14.4" fill="#009af9" fill-rule="evenodd" fill-opacity="1" stroke="none"/>
<circle clip-path="url(#clip011)" cx="2294.08" cy="207.56" r="14.4" fill="#009af9" fill-rule="evenodd" fill-opacity="1" stroke="none"/>
<path clip-path="url(#clip011)" d="M338.195 1049.85 L516.003 1049.85 L693.811 1049.85 L871.618 1049.85 L1049.43 1049.85 L1227.23 1049.85 L1405.04 1049.85 L1582.85 1049.85 L1760.66 1049.85 L1938.46 1049.85 L2116.27 1049.85 L2294.08 1049.85 L2294.08 663.492 L2116.27 663.492 L1938.46 663.492 L1760.66 663.492 L1582.85 663.492 L1405.04 663.492 L1227.23 663.492 L1049.43 663.492 L871.618 663.492 L693.811 663.492 L516.003 663.492 L338.195 663.492  Z" fill="#e26f46" fill-rule="evenodd" fill-opacity="0.6"/>
<polyline clip-path="url(#clip011)" style="stroke:#e26f46; stroke-linecap:round; stroke-linejoin:round; stroke-width:4; stroke-opacity:0; fill:none" points="338.195,1049.85 516.003,1049.85 693.811,1049.85 871.618,1049.85 1049.43,1049.85 1227.23,1049.85 1405.04,1049.85 1582.85,1049.85 1760.66,1049.85 1938.46,1049.85 2116.27,1049.85 2294.08,1049.85 "/>
<polyline clip-path="url(#clip011)" style="stroke:#000000; stroke-linecap:round; stroke-linejoin:round; stroke-width:4; stroke-opacity:1; fill:none" stroke-dasharray="2, 4" points="338.195,821.181 516.003,821.181 693.811,821.181 871.618,821.181 1049.43,821.181 1227.23,821.181 1405.04,821.181 1582.85,821.181 1760.66,821.181 1938.46,821.181 2116.27,821.181 2294.08,821.181 "/>
<path clip-path="url(#clip010)" d="M348.627 252.948 L1351.83 252.948 L1351.83 97.4278 L348.627 97.4278  Z" fill="#ffffff" fill-rule="evenodd" fill-opacity="1"/>
<polyline clip-path="url(#clip010)" style="stroke:#ffffff; stroke-linecap:round; stroke-linejoin:round; stroke-width:4; stroke-opacity:1; fill:none" points="348.627,252.948 1351.83,252.948 1351.83,97.4278 348.627,97.4278 348.627,252.948 "/>
<circle clip-path="url(#clip010)" cx="440.771" cy="149.268" r="20.48" fill="#009af9" fill-rule="evenodd" fill-opacity="1" stroke="none"/>
<path clip-path="url(#clip010)" d="M537.59 135.83 L537.59 162.705 L543.238 162.705 Q550.391 162.705 553.701 159.465 Q557.035 156.224 557.035 149.233 Q557.035 142.289 553.701 139.071 Q550.391 135.83 543.238 135.83 L537.59 135.83 M532.914 131.988 L542.521 131.988 Q552.567 131.988 557.266 136.178 Q561.965 140.344 561.965 149.233 Q561.965 158.168 557.243 162.358 Q552.521 166.548 542.521 166.548 L532.914 166.548 L532.914 131.988 Z" fill="#000000" fill-rule="nonzero" fill-opacity="1" /><path clip-path="url(#clip010)" d="M581.016 153.515 Q575.854 153.515 573.863 154.696 Q571.873 155.877 571.873 158.724 Q571.873 160.992 573.354 162.335 Q574.859 163.654 577.428 163.654 Q580.97 163.654 583.099 161.154 Q585.252 158.631 585.252 154.465 L585.252 153.515 L581.016 153.515 M589.511 151.756 L589.511 166.548 L585.252 166.548 L585.252 162.613 Q583.794 164.974 581.618 166.108 Q579.442 167.219 576.294 167.219 Q572.312 167.219 569.951 164.997 Q567.613 162.752 567.613 159.002 Q567.613 154.627 570.53 152.404 Q573.47 150.182 579.28 150.182 L585.252 150.182 L585.252 149.766 Q585.252 146.826 583.308 145.228 Q581.386 143.608 577.891 143.608 Q575.669 143.608 573.562 144.141 Q571.456 144.673 569.511 145.738 L569.511 141.803 Q571.849 140.9 574.048 140.46 Q576.247 139.997 578.331 139.997 Q583.956 139.997 586.734 142.914 Q589.511 145.83 589.511 151.756 Z" fill="#000000" fill-rule="nonzero" fill-opacity="1" /><path clip-path="url(#clip010)" d="M602.497 133.261 L602.497 140.622 L611.27 140.622 L611.27 143.932 L602.497 143.932 L602.497 158.006 Q602.497 161.177 603.354 162.08 Q604.233 162.983 606.895 162.983 L611.27 162.983 L611.27 166.548 L606.895 166.548 Q601.965 166.548 600.09 164.719 Q598.215 162.867 598.215 158.006 L598.215 143.932 L595.09 143.932 L595.09 140.622 L598.215 140.622 L598.215 133.261 L602.497 133.261 Z" fill="#000000" fill-rule="nonzero" fill-opacity="1" /><path clip-path="url(#clip010)" d="M628.655 153.515 Q623.493 153.515 621.502 154.696 Q619.511 155.877 619.511 158.724 Q619.511 160.992 620.993 162.335 Q622.497 163.654 625.067 163.654 Q628.608 163.654 630.738 161.154 Q632.891 158.631 632.891 154.465 L632.891 153.515 L628.655 153.515 M637.15 151.756 L637.15 166.548 L632.891 166.548 L632.891 162.613 Q631.432 164.974 629.256 166.108 Q627.081 167.219 623.932 167.219 Q619.951 167.219 617.59 164.997 Q615.252 162.752 615.252 159.002 Q615.252 154.627 618.169 152.404 Q621.108 150.182 626.919 150.182 L632.891 150.182 L632.891 149.766 Q632.891 146.826 630.946 145.228 Q629.025 143.608 625.53 143.608 Q623.307 143.608 621.201 144.141 Q619.094 144.673 617.15 145.738 L617.15 141.803 Q619.488 140.9 621.687 140.46 Q623.886 139.997 625.969 139.997 Q631.594 139.997 634.372 142.914 Q637.15 145.83 637.15 151.756 Z" fill="#000000" fill-rule="nonzero" fill-opacity="1" /><path clip-path="url(#clip010)" d="M671.224 130.576 Q668.122 135.9 666.617 141.108 Q665.113 146.316 665.113 151.664 Q665.113 157.011 666.617 162.265 Q668.145 167.497 671.224 172.798 L667.52 172.798 Q664.048 167.358 662.312 162.103 Q660.599 156.849 660.599 151.664 Q660.599 146.502 662.312 141.27 Q664.025 136.039 667.52 130.576 L671.224 130.576 Z" fill="#000000" fill-rule="nonzero" fill-opacity="1" /><path clip-path="url(#clip010)" d="M689.534 143.608 Q686.108 143.608 684.117 146.293 Q682.127 148.955 682.127 153.608 Q682.127 158.261 684.094 160.946 Q686.085 163.608 689.534 163.608 Q692.937 163.608 694.927 160.923 Q696.918 158.238 696.918 153.608 Q696.918 149.002 694.927 146.316 Q692.937 143.608 689.534 143.608 M689.534 139.997 Q695.089 139.997 698.261 143.608 Q701.432 147.219 701.432 153.608 Q701.432 159.974 698.261 163.608 Q695.089 167.219 689.534 167.219 Q683.955 167.219 680.784 163.608 Q677.636 159.974 677.636 153.608 Q677.636 147.219 680.784 143.608 Q683.955 139.997 689.534 139.997 Z" fill="#000000" fill-rule="nonzero" fill-opacity="1" /><path clip-path="url(#clip010)" d="M727.103 153.608 Q727.103 148.909 725.159 146.247 Q723.237 143.562 719.858 143.562 Q716.478 143.562 714.534 146.247 Q712.612 148.909 712.612 153.608 Q712.612 158.307 714.534 160.992 Q716.478 163.654 719.858 163.654 Q723.237 163.654 725.159 160.992 Q727.103 158.307 727.103 153.608 M712.612 144.557 Q713.955 142.242 715.992 141.131 Q718.052 139.997 720.899 139.997 Q725.622 139.997 728.561 143.747 Q731.524 147.497 731.524 153.608 Q731.524 159.719 728.561 163.469 Q725.622 167.219 720.899 167.219 Q718.052 167.219 715.992 166.108 Q713.955 164.974 712.612 162.659 L712.612 166.548 L708.33 166.548 L708.33 130.529 L712.612 130.529 L712.612 144.557 Z" fill="#000000" fill-rule="nonzero" fill-opacity="1" /><path clip-path="url(#clip010)" d="M755.112 141.386 L755.112 145.414 Q753.307 144.488 751.362 144.025 Q749.418 143.562 747.335 143.562 Q744.163 143.562 742.566 144.534 Q740.992 145.506 740.992 147.451 Q740.992 148.932 742.126 149.789 Q743.26 150.622 746.686 151.386 L748.145 151.71 Q752.682 152.682 754.58 154.465 Q756.501 156.224 756.501 159.395 Q756.501 163.006 753.631 165.113 Q750.784 167.219 745.784 167.219 Q743.7 167.219 741.432 166.802 Q739.186 166.409 736.686 165.599 L736.686 161.201 Q739.048 162.427 741.339 163.052 Q743.631 163.654 745.876 163.654 Q748.885 163.654 750.506 162.636 Q752.126 161.594 752.126 159.719 Q752.126 157.983 750.946 157.057 Q749.788 156.131 745.83 155.275 L744.348 154.928 Q740.39 154.094 738.631 152.381 Q736.872 150.645 736.872 147.636 Q736.872 143.978 739.464 141.988 Q742.057 139.997 746.825 139.997 Q749.186 139.997 751.27 140.344 Q753.353 140.691 755.112 141.386 Z" fill="#000000" fill-rule="nonzero" fill-opacity="1" /><path clip-path="url(#clip010)" d="M785.459 152.52 L785.459 154.603 L765.876 154.603 Q766.154 159.002 768.515 161.316 Q770.899 163.608 775.135 163.608 Q777.589 163.608 779.881 163.006 Q782.195 162.404 784.464 161.201 L784.464 165.228 Q782.172 166.201 779.765 166.71 Q777.358 167.219 774.881 167.219 Q768.677 167.219 765.043 163.608 Q761.432 159.997 761.432 153.84 Q761.432 147.474 764.858 143.747 Q768.307 139.997 774.14 139.997 Q779.371 139.997 782.404 143.377 Q785.459 146.733 785.459 152.52 M781.2 151.27 Q781.154 147.775 779.233 145.691 Q777.334 143.608 774.186 143.608 Q770.621 143.608 768.469 145.622 Q766.339 147.636 766.015 151.293 L781.2 151.27 Z" fill="#000000" fill-rule="nonzero" fill-opacity="1" /><path clip-path="url(#clip010)" d="M807.473 144.603 Q806.756 144.187 805.899 144.002 Q805.066 143.793 804.047 143.793 Q800.436 143.793 798.492 146.154 Q796.57 148.492 796.57 152.89 L796.57 166.548 L792.288 166.548 L792.288 140.622 L796.57 140.622 L796.57 144.65 Q797.913 142.289 800.066 141.154 Q802.218 139.997 805.297 139.997 Q805.737 139.997 806.269 140.066 Q806.802 140.113 807.45 140.229 L807.473 144.603 Z" fill="#000000" fill-rule="nonzero" fill-opacity="1" /><path clip-path="url(#clip010)" d="M808.885 140.622 L813.399 140.622 L821.501 162.381 L829.603 140.622 L834.116 140.622 L824.394 166.548 L818.607 166.548 L808.885 140.622 Z" fill="#000000" fill-rule="nonzero" fill-opacity="1" /><path clip-path="url(#clip010)" d="M862.172 152.52 L862.172 154.603 L842.589 154.603 Q842.866 159.002 845.228 161.316 Q847.612 163.608 851.848 163.608 Q854.302 163.608 856.593 163.006 Q858.908 162.404 861.177 161.201 L861.177 165.228 Q858.885 166.201 856.477 166.71 Q854.07 167.219 851.593 167.219 Q845.39 167.219 841.755 163.608 Q838.144 159.997 838.144 153.84 Q838.144 147.474 841.57 143.747 Q845.019 139.997 850.852 139.997 Q856.084 139.997 859.116 143.377 Q862.172 146.733 862.172 152.52 M857.913 151.27 Q857.866 147.775 855.945 145.691 Q854.047 143.608 850.899 143.608 Q847.334 143.608 845.181 145.622 Q843.052 147.636 842.728 151.293 L857.913 151.27 Z" fill="#000000" fill-rule="nonzero" fill-opacity="1" /><path clip-path="url(#clip010)" d="M886.223 144.557 L886.223 130.529 L890.482 130.529 L890.482 166.548 L886.223 166.548 L886.223 162.659 Q884.88 164.974 882.82 166.108 Q880.783 167.219 877.913 167.219 Q873.213 167.219 870.251 163.469 Q867.311 159.719 867.311 153.608 Q867.311 147.497 870.251 143.747 Q873.213 139.997 877.913 139.997 Q880.783 139.997 882.82 141.131 Q884.88 142.242 886.223 144.557 M871.709 153.608 Q871.709 158.307 873.63 160.992 Q875.575 163.654 878.954 163.654 Q882.334 163.654 884.278 160.992 Q886.223 158.307 886.223 153.608 Q886.223 148.909 884.278 146.247 Q882.334 143.562 878.954 143.562 Q875.575 143.562 873.63 146.247 Q871.709 148.909 871.709 153.608 Z" fill="#000000" fill-rule="nonzero" fill-opacity="1" /><path clip-path="url(#clip010)" d="M926.107 153.515 Q920.945 153.515 918.954 154.696 Q916.963 155.877 916.963 158.724 Q916.963 160.992 918.445 162.335 Q919.949 163.654 922.519 163.654 Q926.06 163.654 928.19 161.154 Q930.343 158.631 930.343 154.465 L930.343 153.515 L926.107 153.515 M934.602 151.756 L934.602 166.548 L930.343 166.548 L930.343 162.613 Q928.884 164.974 926.709 166.108 Q924.533 167.219 921.385 167.219 Q917.403 167.219 915.042 164.997 Q912.704 162.752 912.704 159.002 Q912.704 154.627 915.621 152.404 Q918.56 150.182 924.371 150.182 L930.343 150.182 L930.343 149.766 Q930.343 146.826 928.398 145.228 Q926.477 143.608 922.982 143.608 Q920.76 143.608 918.653 144.141 Q916.547 144.673 914.602 145.738 L914.602 141.803 Q916.94 140.9 919.139 140.46 Q921.338 139.997 923.422 139.997 Q929.047 139.997 931.824 142.914 Q934.602 145.83 934.602 151.756 Z" fill="#000000" fill-rule="nonzero" fill-opacity="1" /><path clip-path="url(#clip010)" d="M960.435 153.284 Q960.435 148.654 958.514 146.108 Q956.616 143.562 953.167 143.562 Q949.741 143.562 947.82 146.108 Q945.921 148.654 945.921 153.284 Q945.921 157.89 947.82 160.437 Q949.741 162.983 953.167 162.983 Q956.616 162.983 958.514 160.437 Q960.435 157.89 960.435 153.284 M964.694 163.33 Q964.694 169.951 961.755 173.168 Q958.815 176.409 952.75 176.409 Q950.505 176.409 948.514 176.062 Q946.523 175.738 944.648 175.043 L944.648 170.9 Q946.523 171.918 948.352 172.404 Q950.181 172.89 952.079 172.89 Q956.269 172.89 958.352 170.691 Q960.435 168.515 960.435 164.094 L960.435 161.988 Q959.116 164.279 957.056 165.414 Q954.995 166.548 952.125 166.548 Q947.357 166.548 944.44 162.914 Q941.523 159.279 941.523 153.284 Q941.523 147.266 944.44 143.631 Q947.357 139.997 952.125 139.997 Q954.995 139.997 957.056 141.131 Q959.116 142.266 960.435 144.557 L960.435 140.622 L964.694 140.622 L964.694 163.33 Z" fill="#000000" fill-rule="nonzero" fill-opacity="1" /><path clip-path="url(#clip010)" d="M995.643 152.52 L995.643 154.603 L976.06 154.603 Q976.338 159.002 978.699 161.316 Q981.083 163.608 985.319 163.608 Q987.773 163.608 990.065 163.006 Q992.38 162.404 994.648 161.201 L994.648 165.228 Q992.356 166.201 989.949 166.71 Q987.542 167.219 985.065 167.219 Q978.861 167.219 975.227 163.608 Q971.616 159.997 971.616 153.84 Q971.616 147.474 975.042 143.747 Q978.491 139.997 984.324 139.997 Q989.555 139.997 992.588 143.377 Q995.643 146.733 995.643 152.52 M991.384 151.27 Q991.338 147.775 989.417 145.691 Q987.518 143.608 984.37 143.608 Q980.805 143.608 978.653 145.622 Q976.523 147.636 976.199 151.293 L991.384 151.27 Z" fill="#000000" fill-rule="nonzero" fill-opacity="1" /><path clip-path="url(#clip010)" d="M1019.16 141.386 L1019.16 145.414 Q1017.36 144.488 1015.41 144.025 Q1013.47 143.562 1011.38 143.562 Q1008.21 143.562 1006.62 144.534 Q1005.04 145.506 1005.04 147.451 Q1005.04 148.932 1006.18 149.789 Q1007.31 150.622 1010.74 151.386 L1012.19 151.71 Q1016.73 152.682 1018.63 154.465 Q1020.55 156.224 1020.55 159.395 Q1020.55 163.006 1017.68 165.113 Q1014.83 167.219 1009.83 167.219 Q1007.75 167.219 1005.48 166.802 Q1003.24 166.409 1000.74 165.599 L1000.74 161.201 Q1003.1 162.427 1005.39 163.052 Q1007.68 163.654 1009.93 163.654 Q1012.93 163.654 1014.56 162.636 Q1016.18 161.594 1016.18 159.719 Q1016.18 157.983 1015 157.057 Q1013.84 156.131 1009.88 155.275 L1008.4 154.928 Q1004.44 154.094 1002.68 152.381 Q1000.92 150.645 1000.92 147.636 Q1000.92 143.978 1003.51 141.988 Q1006.11 139.997 1010.87 139.997 Q1013.24 139.997 1015.32 140.344 Q1017.4 140.691 1019.16 141.386 Z" fill="#000000" fill-rule="nonzero" fill-opacity="1" /><path clip-path="url(#clip010)" d="M1026.66 130.576 L1030.37 130.576 Q1033.84 136.039 1035.55 141.27 Q1037.29 146.502 1037.29 151.664 Q1037.29 156.849 1035.55 162.103 Q1033.84 167.358 1030.37 172.798 L1026.66 172.798 Q1029.74 167.497 1031.25 162.265 Q1032.77 157.011 1032.77 151.664 Q1032.77 146.316 1031.25 141.108 Q1029.74 135.9 1026.66 130.576 Z" fill="#000000" fill-rule="nonzero" fill-opacity="1" /><path clip-path="url(#clip010)" d="M371.663 221.844 L509.878 221.844 L509.878 180.372 L371.663 180.372 L371.663 221.844  Z" fill="#e26f46" fill-rule="evenodd" fill-opacity="0.6"/>
<polyline clip-path="url(#clip010)" style="stroke:#e26f46; stroke-linecap:round; stroke-linejoin:round; stroke-width:4; stroke-opacity:0; fill:none" points="371.663,180.372 509.878,180.372 "/>
<path clip-path="url(#clip010)" d="M532.914 183.828 L539.882 183.828 L548.701 207.346 L557.567 183.828 L564.535 183.828 L564.535 218.388 L559.974 218.388 L559.974 188.041 L551.062 211.744 L546.363 211.744 L537.451 188.041 L537.451 218.388 L532.914 218.388 L532.914 183.828 Z" fill="#000000" fill-rule="nonzero" fill-opacity="1" /><path clip-path="url(#clip010)" d="M583.678 195.448 Q580.252 195.448 578.261 198.133 Q576.271 200.795 576.271 205.448 Q576.271 210.101 578.238 212.786 Q580.229 215.448 583.678 215.448 Q587.081 215.448 589.071 212.763 Q591.062 210.078 591.062 205.448 Q591.062 200.842 589.071 198.156 Q587.081 195.448 583.678 195.448 M583.678 191.837 Q589.234 191.837 592.405 195.448 Q595.576 199.059 595.576 205.448 Q595.576 211.814 592.405 215.448 Q589.234 219.059 583.678 219.059 Q578.099 219.059 574.928 215.448 Q571.78 211.814 571.78 205.448 Q571.78 199.059 574.928 195.448 Q578.099 191.837 583.678 191.837 Z" fill="#000000" fill-rule="nonzero" fill-opacity="1" /><path clip-path="url(#clip010)" d="M619.696 196.397 L619.696 182.369 L623.956 182.369 L623.956 218.388 L619.696 218.388 L619.696 214.499 Q618.354 216.814 616.294 217.948 Q614.257 219.059 611.386 219.059 Q606.687 219.059 603.724 215.309 Q600.784 211.559 600.784 205.448 Q600.784 199.337 603.724 195.587 Q606.687 191.837 611.386 191.837 Q614.257 191.837 616.294 192.971 Q618.354 194.082 619.696 196.397 M605.183 205.448 Q605.183 210.147 607.104 212.832 Q609.048 215.494 612.428 215.494 Q615.807 215.494 617.752 212.832 Q619.696 210.147 619.696 205.448 Q619.696 200.749 617.752 198.087 Q615.807 195.402 612.428 195.402 Q609.048 195.402 607.104 198.087 Q605.183 200.749 605.183 205.448 Z" fill="#000000" fill-rule="nonzero" fill-opacity="1" /><path clip-path="url(#clip010)" d="M654.904 204.36 L654.904 206.443 L635.321 206.443 Q635.599 210.842 637.96 213.156 Q640.344 215.448 644.58 215.448 Q647.034 215.448 649.326 214.846 Q651.641 214.244 653.909 213.041 L653.909 217.068 Q651.617 218.041 649.21 218.55 Q646.803 219.059 644.326 219.059 Q638.122 219.059 634.488 215.448 Q630.877 211.837 630.877 205.68 Q630.877 199.314 634.303 195.587 Q637.752 191.837 643.585 191.837 Q648.817 191.837 651.849 195.217 Q654.904 198.573 654.904 204.36 M650.645 203.11 Q650.599 199.615 648.678 197.531 Q646.78 195.448 643.631 195.448 Q640.067 195.448 637.914 197.462 Q635.784 199.476 635.46 203.133 L650.645 203.11 Z" fill="#000000" fill-rule="nonzero" fill-opacity="1" /><path clip-path="url(#clip010)" d="M661.895 182.369 L666.154 182.369 L666.154 218.388 L661.895 218.388 L661.895 182.369 Z" fill="#000000" fill-rule="nonzero" fill-opacity="1" /><path clip-path="url(#clip010)" d="M700.367 182.416 Q697.265 187.74 695.761 192.948 Q694.256 198.156 694.256 203.504 Q694.256 208.851 695.761 214.105 Q697.288 219.337 700.367 224.638 L696.664 224.638 Q693.191 219.198 691.455 213.943 Q689.742 208.689 689.742 203.504 Q689.742 198.342 691.455 193.11 Q693.168 187.879 696.664 182.416 L700.367 182.416 Z" fill="#000000" fill-rule="nonzero" fill-opacity="1" /><path clip-path="url(#clip010)" d="M719.812 199.244 Q716.663 199.244 714.812 201.397 Q712.983 203.55 712.983 207.3 Q712.983 211.027 714.812 213.203 Q716.663 215.355 719.812 215.355 Q722.96 215.355 724.788 213.203 Q726.64 211.027 726.64 207.3 Q726.64 203.55 724.788 201.397 Q722.96 199.244 719.812 199.244 M729.094 184.592 L729.094 188.851 Q727.335 188.018 725.529 187.578 Q723.747 187.138 721.987 187.138 Q717.358 187.138 714.904 190.263 Q712.474 193.388 712.126 199.707 Q713.492 197.693 715.552 196.629 Q717.612 195.541 720.089 195.541 Q725.298 195.541 728.307 198.712 Q731.339 201.86 731.339 207.3 Q731.339 212.624 728.191 215.842 Q725.043 219.059 719.812 219.059 Q713.816 219.059 710.645 214.476 Q707.474 209.869 707.474 201.143 Q707.474 192.948 711.362 188.087 Q715.251 183.203 721.802 183.203 Q723.562 183.203 725.344 183.55 Q727.149 183.897 729.094 184.592 Z" fill="#000000" fill-rule="nonzero" fill-opacity="1" /><path clip-path="url(#clip010)" d="M739.441 183.828 L757.797 183.828 L757.797 187.763 L743.723 187.763 L743.723 196.235 Q744.742 195.888 745.76 195.726 Q746.779 195.541 747.797 195.541 Q753.584 195.541 756.964 198.712 Q760.344 201.883 760.344 207.3 Q760.344 212.879 756.872 215.98 Q753.399 219.059 747.08 219.059 Q744.904 219.059 742.635 218.689 Q740.39 218.318 737.983 217.578 L737.983 212.879 Q740.066 214.013 742.288 214.568 Q744.51 215.124 746.987 215.124 Q750.992 215.124 753.33 213.017 Q755.668 210.911 755.668 207.3 Q755.668 203.689 753.33 201.582 Q750.992 199.476 746.987 199.476 Q745.112 199.476 743.237 199.893 Q741.385 200.309 739.441 201.189 L739.441 183.828 Z" fill="#000000" fill-rule="nonzero" fill-opacity="1" /><path clip-path="url(#clip010)" d="M769.557 212.508 L774.441 212.508 L774.441 218.388 L769.557 218.388 L769.557 212.508 Z" fill="#000000" fill-rule="nonzero" fill-opacity="1" /><path clip-path="url(#clip010)" d="M795.205 199.244 Q792.057 199.244 790.205 201.397 Q788.376 203.55 788.376 207.3 Q788.376 211.027 790.205 213.203 Q792.057 215.355 795.205 215.355 Q798.353 215.355 800.181 213.203 Q802.033 211.027 802.033 207.3 Q802.033 203.55 800.181 201.397 Q798.353 199.244 795.205 199.244 M804.487 184.592 L804.487 188.851 Q802.728 188.018 800.922 187.578 Q799.14 187.138 797.381 187.138 Q792.751 187.138 790.297 190.263 Q787.867 193.388 787.519 199.707 Q788.885 197.693 790.945 196.629 Q793.006 195.541 795.482 195.541 Q800.691 195.541 803.7 198.712 Q806.732 201.86 806.732 207.3 Q806.732 212.624 803.584 215.842 Q800.436 219.059 795.205 219.059 Q789.209 219.059 786.038 214.476 Q782.867 209.869 782.867 201.143 Q782.867 192.948 786.756 188.087 Q790.644 183.203 797.195 183.203 Q798.955 183.203 800.737 183.55 Q802.543 183.897 804.487 184.592 Z" fill="#000000" fill-rule="nonzero" fill-opacity="1" /><path clip-path="url(#clip010)" d="M814.927 217.67 L814.927 213.411 Q816.686 214.244 818.492 214.684 Q820.297 215.124 822.033 215.124 Q826.663 215.124 829.093 212.022 Q831.547 208.897 831.894 202.555 Q830.552 204.545 828.491 205.61 Q826.431 206.675 823.931 206.675 Q818.746 206.675 815.714 203.55 Q812.705 200.402 812.705 194.962 Q812.705 189.638 815.853 186.42 Q819.001 183.203 824.232 183.203 Q830.228 183.203 833.376 187.809 Q836.547 192.393 836.547 201.143 Q836.547 209.314 832.658 214.198 Q828.792 219.059 822.242 219.059 Q820.482 219.059 818.677 218.712 Q816.871 218.365 814.927 217.67 M824.232 203.018 Q827.38 203.018 829.209 200.865 Q831.061 198.712 831.061 194.962 Q831.061 191.235 829.209 189.082 Q827.38 186.907 824.232 186.907 Q821.084 186.907 819.232 189.082 Q817.404 191.235 817.404 194.962 Q817.404 198.712 819.232 200.865 Q821.084 203.018 824.232 203.018 Z" fill="#000000" fill-rule="nonzero" fill-opacity="1" /><path clip-path="url(#clip010)" d="M843.769 183.828 L865.991 183.828 L865.991 185.819 L853.445 218.388 L848.561 218.388 L860.366 187.763 L843.769 187.763 L843.769 183.828 Z" fill="#000000" fill-rule="nonzero" fill-opacity="1" /><path clip-path="url(#clip010)" d="M906.917 188.666 L906.917 201.559 L919.81 201.559 L919.81 205.494 L906.917 205.494 L906.917 218.388 L903.028 218.388 L903.028 205.494 L890.135 205.494 L890.135 201.559 L903.028 201.559 L903.028 188.666 L906.917 188.666 Z" fill="#000000" fill-rule="nonzero" fill-opacity="1" /><path clip-path="url(#clip010)" d="M939.903 186.907 Q936.292 186.907 934.463 190.471 Q932.658 194.013 932.658 201.143 Q932.658 208.249 934.463 211.814 Q936.292 215.355 939.903 215.355 Q943.537 215.355 945.343 211.814 Q947.171 208.249 947.171 201.143 Q947.171 194.013 945.343 190.471 Q943.537 186.907 939.903 186.907 M939.903 183.203 Q945.713 183.203 948.769 187.809 Q951.847 192.393 951.847 201.143 Q951.847 209.869 948.769 214.476 Q945.713 219.059 939.903 219.059 Q934.093 219.059 931.014 214.476 Q927.959 209.869 927.959 201.143 Q927.959 192.393 931.014 187.809 Q934.093 183.203 939.903 183.203 Z" fill="#000000" fill-rule="nonzero" fill-opacity="1" /><path clip-path="url(#clip010)" d="M960.065 212.508 L964.949 212.508 L964.949 218.388 L960.065 218.388 L960.065 212.508 Z" fill="#000000" fill-rule="nonzero" fill-opacity="1" /><path clip-path="url(#clip010)" d="M975.944 214.453 L983.583 214.453 L983.583 188.087 L975.273 189.754 L975.273 185.494 L983.537 183.828 L988.213 183.828 L988.213 214.453 L995.852 214.453 L995.852 218.388 L975.944 218.388 L975.944 214.453 Z" fill="#000000" fill-rule="nonzero" fill-opacity="1" /><path clip-path="url(#clip010)" d="M1006.11 214.453 L1013.75 214.453 L1013.75 188.087 L1005.43 189.754 L1005.43 185.494 L1013.7 183.828 L1018.37 183.828 L1018.37 214.453 L1026.01 214.453 L1026.01 218.388 L1006.11 218.388 L1006.11 214.453 Z" fill="#000000" fill-rule="nonzero" fill-opacity="1" /><path clip-path="url(#clip010)" d="M1049.62 199.754 Q1052.98 200.471 1054.86 202.74 Q1056.75 205.008 1056.75 208.342 Q1056.75 213.457 1053.24 216.258 Q1049.72 219.059 1043.24 219.059 Q1041.06 219.059 1038.75 218.619 Q1036.45 218.203 1034 217.346 L1034 212.832 Q1035.94 213.967 1038.26 214.545 Q1040.57 215.124 1043.1 215.124 Q1047.49 215.124 1049.79 213.388 Q1052.1 211.652 1052.1 208.342 Q1052.1 205.286 1049.95 203.573 Q1047.82 201.837 1044 201.837 L1039.97 201.837 L1039.97 197.994 L1044.18 197.994 Q1047.63 197.994 1049.46 196.629 Q1051.29 195.24 1051.29 192.647 Q1051.29 189.985 1049.39 188.573 Q1047.52 187.138 1044 187.138 Q1042.08 187.138 1039.88 187.555 Q1037.68 187.971 1035.04 188.851 L1035.04 184.684 Q1037.7 183.944 1040.02 183.573 Q1042.36 183.203 1044.42 183.203 Q1049.74 183.203 1052.84 185.633 Q1055.94 188.041 1055.94 192.161 Q1055.94 195.031 1054.3 197.022 Q1052.66 198.99 1049.62 199.754 Z" fill="#000000" fill-rule="nonzero" fill-opacity="1" /><path clip-path="url(#clip010)" d="M1072.59 183.828 L1076.52 183.828 L1064.49 222.786 L1060.55 222.786 L1072.59 183.828 Z" fill="#000000" fill-rule="nonzero" fill-opacity="1" /><path clip-path="url(#clip010)" d="M1078.84 203.504 L1091.31 203.504 L1091.31 207.3 L1078.84 207.3 L1078.84 203.504 Z" fill="#000000" fill-rule="nonzero" fill-opacity="1" /><path clip-path="url(#clip010)" d="M1108.7 186.907 Q1105.09 186.907 1103.26 190.471 Q1101.45 194.013 1101.45 201.143 Q1101.45 208.249 1103.26 211.814 Q1105.09 215.355 1108.7 215.355 Q1112.33 215.355 1114.14 211.814 Q1115.97 208.249 1115.97 201.143 Q1115.97 194.013 1114.14 190.471 Q1112.33 186.907 1108.7 186.907 M1108.7 183.203 Q1114.51 183.203 1117.56 187.809 Q1120.64 192.393 1120.64 201.143 Q1120.64 209.869 1117.56 214.476 Q1114.51 219.059 1108.7 219.059 Q1102.89 219.059 1099.81 214.476 Q1096.75 209.869 1096.75 201.143 Q1096.75 192.393 1099.81 187.809 Q1102.89 183.203 1108.7 183.203 Z" fill="#000000" fill-rule="nonzero" fill-opacity="1" /><path clip-path="url(#clip010)" d="M1128.86 212.508 L1133.74 212.508 L1133.74 218.388 L1128.86 218.388 L1128.86 212.508 Z" fill="#000000" fill-rule="nonzero" fill-opacity="1" /><path clip-path="url(#clip010)" d="M1144.74 214.453 L1152.38 214.453 L1152.38 188.087 L1144.07 189.754 L1144.07 185.494 L1152.33 183.828 L1157.01 183.828 L1157.01 214.453 L1164.65 214.453 L1164.65 218.388 L1144.74 218.388 L1144.74 214.453 Z" fill="#000000" fill-rule="nonzero" fill-opacity="1" /><path clip-path="url(#clip010)" d="M1184.67 199.244 Q1181.52 199.244 1179.67 201.397 Q1177.84 203.55 1177.84 207.3 Q1177.84 211.027 1179.67 213.203 Q1181.52 215.355 1184.67 215.355 Q1187.82 215.355 1189.65 213.203 Q1191.5 211.027 1191.5 207.3 Q1191.5 203.55 1189.65 201.397 Q1187.82 199.244 1184.67 199.244 M1193.95 184.592 L1193.95 188.851 Q1192.19 188.018 1190.39 187.578 Q1188.61 187.138 1186.85 187.138 Q1182.22 187.138 1179.76 190.263 Q1177.33 193.388 1176.99 199.707 Q1178.35 197.693 1180.41 196.629 Q1182.47 195.541 1184.95 195.541 Q1190.16 195.541 1193.17 198.712 Q1196.2 201.86 1196.2 207.3 Q1196.2 212.624 1193.05 215.842 Q1189.9 219.059 1184.67 219.059 Q1178.67 219.059 1175.5 214.476 Q1172.33 209.869 1172.33 201.143 Q1172.33 192.948 1176.22 188.087 Q1180.11 183.203 1186.66 183.203 Q1188.42 183.203 1190.2 183.55 Q1192.01 183.897 1193.95 184.592 Z" fill="#000000" fill-rule="nonzero" fill-opacity="1" /><path clip-path="url(#clip010)" d="M1218.42 199.754 Q1221.78 200.471 1223.65 202.74 Q1225.55 205.008 1225.55 208.342 Q1225.55 213.457 1222.03 216.258 Q1218.51 219.059 1212.03 219.059 Q1209.86 219.059 1207.54 218.619 Q1205.25 218.203 1202.8 217.346 L1202.8 212.832 Q1204.74 213.967 1207.05 214.545 Q1209.37 215.124 1211.89 215.124 Q1216.29 215.124 1218.58 213.388 Q1220.9 211.652 1220.9 208.342 Q1220.9 205.286 1218.74 203.573 Q1216.61 201.837 1212.79 201.837 L1208.77 201.837 L1208.77 197.994 L1212.98 197.994 Q1216.43 197.994 1218.26 196.629 Q1220.09 195.24 1220.09 192.647 Q1220.09 189.985 1218.19 188.573 Q1216.31 187.138 1212.79 187.138 Q1210.87 187.138 1208.67 187.555 Q1206.48 187.971 1203.84 188.851 L1203.84 184.684 Q1206.5 183.944 1208.81 183.573 Q1211.15 183.203 1213.21 183.203 Q1218.54 183.203 1221.64 185.633 Q1224.74 188.041 1224.74 192.161 Q1224.74 195.031 1223.1 197.022 Q1221.45 198.99 1218.42 199.754 Z" fill="#000000" fill-rule="nonzero" fill-opacity="1" /><path clip-path="url(#clip010)" d="M1249.07 183.828 L1256.04 183.828 L1264.85 207.346 L1273.72 183.828 L1280.69 183.828 L1280.69 218.388 L1276.13 218.388 L1276.13 188.041 L1267.22 211.744 L1262.52 211.744 L1253.6 188.041 L1253.6 218.388 L1249.07 218.388 L1249.07 183.828 Z" fill="#000000" fill-rule="nonzero" fill-opacity="1" /><path clip-path="url(#clip010)" d="M1301.57 205.355 Q1296.41 205.355 1294.41 206.536 Q1292.42 207.717 1292.42 210.564 Q1292.42 212.832 1293.91 214.175 Q1295.41 215.494 1297.98 215.494 Q1301.52 215.494 1303.65 212.994 Q1305.8 210.471 1305.8 206.305 L1305.8 205.355 L1301.57 205.355 M1310.06 203.596 L1310.06 218.388 L1305.8 218.388 L1305.8 214.453 Q1304.35 216.814 1302.17 217.948 Q1299.99 219.059 1296.85 219.059 Q1292.86 219.059 1290.5 216.837 Q1288.16 214.592 1288.16 210.842 Q1288.16 206.467 1291.08 204.244 Q1294.02 202.022 1299.83 202.022 L1305.8 202.022 L1305.8 201.606 Q1305.8 198.666 1303.86 197.068 Q1301.94 195.448 1298.44 195.448 Q1296.22 195.448 1294.11 195.981 Q1292.01 196.513 1290.06 197.578 L1290.06 193.643 Q1292.4 192.74 1294.6 192.3 Q1296.8 191.837 1298.88 191.837 Q1304.51 191.837 1307.29 194.754 Q1310.06 197.67 1310.06 203.596 Z" fill="#000000" fill-rule="nonzero" fill-opacity="1" /><path clip-path="url(#clip010)" d="M1318.16 182.416 L1321.87 182.416 Q1325.34 187.879 1327.05 193.11 Q1328.79 198.342 1328.79 203.504 Q1328.79 208.689 1327.05 213.943 Q1325.34 219.198 1321.87 224.638 L1318.16 224.638 Q1321.24 219.337 1322.75 214.105 Q1324.28 208.851 1324.28 203.504 Q1324.28 198.156 1322.75 192.948 Q1321.24 187.74 1318.16 182.416 Z" fill="#000000" fill-rule="nonzero" fill-opacity="1" /></svg>
