<?xml version="1.0" encoding="utf-8"?>
<svg xmlns="http://www.w3.org/2000/svg" xmlns:xlink="http://www.w3.org/1999/xlink" width="600" height="400" viewBox="0 0 2400 1600">
<defs>
  <clipPath id="clip870">
    <rect x="0" y="0" width="2400" height="1600"/>
  </clipPath>
</defs>
<path clip-path="url(#clip870)" d="M0 1600 L2400 1600 L2400 8.88178e-14 L0 8.88178e-14  Z" fill="#ffffff" fill-rule="evenodd" fill-opacity="1"/>
<defs>
  <clipPath id="clip871">
    <rect x="249" y="47" width="2104" height="1507"/>
  </clipPath>
</defs>
<path clip-path="url(#clip870)" d="M249.843 1552.76 L2352.76 1552.76 L2352.76 47.2441 L249.843 47.2441  Z" fill="#ffffff" fill-rule="evenodd" fill-opacity="1"/>
<polyline clip-path="url(#clip871)" style="stroke:#000000; stroke-linecap:round; stroke-linejoin:round; stroke-width:2; stroke-opacity:0.1; fill:none" points="249.843,1421.47 2352.76,1421.47 "/>
<polyline clip-path="url(#clip871)" style="stroke:#000000; stroke-linecap:round; stroke-linejoin:round; stroke-width:2; stroke-opacity:0.1; fill:none" points="249.843,1221.1 2352.76,1221.1 "/>
<polyline clip-path="url(#clip871)" style="stroke:#000000; stroke-linecap:round; stroke-linejoin:round; stroke-width:2; stroke-opacity:0.1; fill:none" points="249.843,1020.74 2352.76,1020.74 "/>
<polyline clip-path="url(#clip871)" style="stroke:#000000; stroke-linecap:round; stroke-linejoin:round; stroke-width:2; stroke-opacity:0.1; fill:none" points="249.843,820.369 2352.76,820.369 "/>
<polyline clip-path="url(#clip871)" style="stroke:#000000; stroke-linecap:round; stroke-linejoin:round; stroke-width:2; stroke-opacity:0.1; fill:none" points="249.843,620.002 2352.76,620.002 "/>
<polyline clip-path="url(#clip871)" style="stroke:#000000; stroke-linecap:round; stroke-linejoin:round; stroke-width:2; stroke-opacity:0.1; fill:none" points="249.843,419.636 2352.76,419.636 "/>
<polyline clip-path="url(#clip871)" style="stroke:#000000; stroke-linecap:round; stroke-linejoin:round; stroke-width:2; stroke-opacity:0.1; fill:none" points="249.843,219.27 2352.76,219.27 "/>
<polyline clip-path="url(#clip871)" style="stroke:#000000; stroke-linecap:round; stroke-linejoin:round; stroke-width:2; stroke-opacity:0.1; fill:none" points="249.843,1421.47 2352.76,1421.47 "/>
<polyline clip-path="url(#clip871)" style="stroke:#000000; stroke-linecap:round; stroke-linejoin:round; stroke-width:2; stroke-opacity:0.1; fill:none" points="249.843,1221.1 2352.76,1221.1 "/>
<polyline clip-path="url(#clip871)" style="stroke:#000000; stroke-linecap:round; stroke-linejoin:round; stroke-width:2; stroke-opacity:0.1; fill:none" points="249.843,1020.74 2352.76,1020.74 "/>
<polyline clip-path="url(#clip871)" style="stroke:#000000; stroke-linecap:round; stroke-linejoin:round; stroke-width:2; stroke-opacity:0.1; fill:none" points="249.843,820.369 2352.76,820.369 "/>
<polyline clip-path="url(#clip871)" style="stroke:#000000; stroke-linecap:round; stroke-linejoin:round; stroke-width:2; stroke-opacity:0.1; fill:none" points="249.843,620.002 2352.76,620.002 "/>
<polyline clip-path="url(#clip871)" style="stroke:#000000; stroke-linecap:round; stroke-linejoin:round; stroke-width:2; stroke-opacity:0.1; fill:none" points="249.843,419.636 2352.76,419.636 "/>
<polyline clip-path="url(#clip871)" style="stroke:#000000; stroke-linecap:round; stroke-linejoin:round; stroke-width:2; stroke-opacity:0.1; fill:none" points="249.843,219.27 2352.76,219.27 "/>
<polyline clip-path="url(#clip870)" style="stroke:#000000; stroke-linecap:round; stroke-linejoin:round; stroke-width:4; stroke-opacity:1; fill:none" points="249.843,1552.76 2352.76,1552.76 "/>
<polyline clip-path="url(#clip870)" style="stroke:#000000; stroke-linecap:round; stroke-linejoin:round; stroke-width:4; stroke-opacity:1; fill:none" points="249.843,47.2441 2352.76,47.2441 "/>
<polyline clip-path="url(#clip870)" style="stroke:#000000; stroke-linecap:round; stroke-linejoin:round; stroke-width:4; stroke-opacity:1; fill:none" points="249.843,1552.76 249.843,47.2441 "/>
<polyline clip-path="url(#clip870)" style="stroke:#000000; stroke-linecap:round; stroke-linejoin:round; stroke-width:4; stroke-opacity:1; fill:none" points="2352.76,1552.76 2352.76,47.2441 "/>
<polyline clip-path="url(#clip870)" style="stroke:#000000; stroke-linecap:round; stroke-linejoin:round; stroke-width:4; stroke-opacity:1; fill:none" points="249.843,1421.47 268.741,1421.47 "/>
<polyline clip-path="url(#clip870)" style="stroke:#000000; stroke-linecap:round; stroke-linejoin:round; stroke-width:4; stroke-opacity:1; fill:none" points="249.843,1221.1 268.741,1221.1 "/>
<polyline clip-path="url(#clip870)" style="stroke:#000000; stroke-linecap:round; stroke-linejoin:round; stroke-width:4; stroke-opacity:1; fill:none" points="249.843,1020.74 268.741,1020.74 "/>
<polyline clip-path="url(#clip870)" style="stroke:#000000; stroke-linecap:round; stroke-linejoin:round; stroke-width:4; stroke-opacity:1; fill:none" points="249.843,820.369 268.741,820.369 "/>
<polyline clip-path="url(#clip870)" style="stroke:#000000; stroke-linecap:round; stroke-linejoin:round; stroke-width:4; stroke-opacity:1; fill:none" points="249.843,620.002 268.741,620.002 "/>
<polyline clip-path="url(#clip870)" style="stroke:#000000; stroke-linecap:round; stroke-linejoin:round; stroke-width:4; stroke-opacity:1; fill:none" points="249.843,419.636 268.741,419.636 "/>
<polyline clip-path="url(#clip870)" style="stroke:#000000; stroke-linecap:round; stroke-linejoin:round; stroke-width:4; stroke-opacity:1; fill:none" points="249.843,219.27 268.741,219.27 "/>
<polyline clip-path="url(#clip870)" style="stroke:#000000; stroke-linecap:round; stroke-linejoin:round; stroke-width:4; stroke-opacity:1; fill:none" points="2352.76,1421.47 2333.86,1421.47 "/>
<polyline clip-path="url(#clip870)" style="stroke:#000000; stroke-linecap:round; stroke-linejoin:round; stroke-width:4; stroke-opacity:1; fill:none" points="2352.76,1221.1 2333.86,1221.1 "/>
<polyline clip-path="url(#clip870)" style="stroke:#000000; stroke-linecap:round; stroke-linejoin:round; stroke-width:4; stroke-opacity:1; fill:none" points="2352.76,1020.74 2333.86,1020.74 "/>
<polyline clip-path="url(#clip870)" style="stroke:#000000; stroke-linecap:round; stroke-linejoin:round; stroke-width:4; stroke-opacity:1; fill:none" points="2352.76,820.369 2333.86,820.369 "/>
<polyline clip-path="url(#clip870)" style="stroke:#000000; stroke-linecap:round; stroke-linejoin:round; stroke-width:4; stroke-opacity:1; fill:none" points="2352.76,620.002 2333.86,620.002 "/>
<polyline clip-path="url(#clip870)" style="stroke:#000000; stroke-linecap:round; stroke-linejoin:round; stroke-width:4; stroke-opacity:1; fill:none" points="2352.76,419.636 2333.86,419.636 "/>
<polyline clip-path="url(#clip870)" style="stroke:#000000; stroke-linecap:round; stroke-linejoin:round; stroke-width:4; stroke-opacity:1; fill:none" points="2352.76,219.27 2333.86,219.27 "/>
<path clip-path="url(#clip870)" d="M128.681 1419.6 Q125.533 1419.6 123.681 1421.76 Q121.853 1423.91 121.853 1427.66 Q121.853 1431.39 123.681 1433.56 Q125.533 1435.72 128.681 1435.72 Q131.83 1435.72 133.658 1433.56 Q135.51 1431.39 135.51 1427.66 Q135.51 1423.91 133.658 1421.76 Q131.83 1419.6 128.681 1419.6 M137.964 1404.95 L137.964 1409.21 Q136.204 1408.38 134.399 1407.94 Q132.617 1407.5 130.857 1407.5 Q126.228 1407.5 123.774 1410.62 Q121.343 1413.75 120.996 1420.07 Q122.362 1418.05 124.422 1416.99 Q126.482 1415.9 128.959 1415.9 Q134.167 1415.9 137.177 1419.07 Q140.209 1422.22 140.209 1427.66 Q140.209 1432.98 137.061 1436.2 Q133.913 1439.42 128.681 1439.42 Q122.686 1439.42 119.515 1434.84 Q116.343 1430.23 116.343 1421.5 Q116.343 1413.31 120.232 1408.45 Q124.121 1403.56 130.672 1403.56 Q132.431 1403.56 134.214 1403.91 Q136.019 1404.26 137.964 1404.95 Z" fill="#000000" fill-rule="nonzero" fill-opacity="1" /><path clip-path="url(#clip870)" d="M148.311 1404.19 L166.667 1404.19 L166.667 1408.12 L152.593 1408.12 L152.593 1416.6 Q153.612 1416.25 154.63 1416.09 Q155.649 1415.9 156.667 1415.9 Q162.454 1415.9 165.834 1419.07 Q169.214 1422.24 169.214 1427.66 Q169.214 1433.24 165.741 1436.34 Q162.269 1439.42 155.95 1439.42 Q153.774 1439.42 151.505 1439.05 Q149.26 1438.68 146.853 1437.94 L146.853 1433.24 Q148.936 1434.37 151.158 1434.93 Q153.38 1435.48 155.857 1435.48 Q159.862 1435.48 162.2 1433.38 Q164.538 1431.27 164.538 1427.66 Q164.538 1424.05 162.2 1421.94 Q159.862 1419.84 155.857 1419.84 Q153.982 1419.84 152.107 1420.25 Q150.255 1420.67 148.311 1421.55 L148.311 1404.19 Z" fill="#000000" fill-rule="nonzero" fill-opacity="1" /><path clip-path="url(#clip870)" d="M178.426 1432.87 L183.311 1432.87 L183.311 1438.75 L178.426 1438.75 L178.426 1432.87 Z" fill="#000000" fill-rule="nonzero" fill-opacity="1" /><path clip-path="url(#clip870)" d="M197.524 1434.81 L213.843 1434.81 L213.843 1438.75 L191.899 1438.75 L191.899 1434.81 Q194.561 1432.06 199.144 1427.43 Q203.75 1422.78 204.931 1421.43 Q207.176 1418.91 208.056 1417.17 Q208.959 1415.41 208.959 1413.72 Q208.959 1410.97 207.014 1409.23 Q205.093 1407.5 201.991 1407.5 Q199.792 1407.5 197.338 1408.26 Q194.908 1409.03 192.13 1410.58 L192.13 1405.85 Q194.954 1404.72 197.408 1404.14 Q199.862 1403.56 201.899 1403.56 Q207.269 1403.56 210.463 1406.25 Q213.658 1408.93 213.658 1413.42 Q213.658 1415.55 212.848 1417.47 Q212.061 1419.37 209.954 1421.97 Q209.375 1422.64 206.274 1425.85 Q203.172 1429.05 197.524 1434.81 Z" fill="#000000" fill-rule="nonzero" fill-opacity="1" /><path clip-path="url(#clip870)" d="M126.598 1219.24 Q123.45 1219.24 121.598 1221.39 Q119.769 1223.54 119.769 1227.29 Q119.769 1231.02 121.598 1233.2 Q123.45 1235.35 126.598 1235.35 Q129.746 1235.35 131.575 1233.2 Q133.427 1231.02 133.427 1227.29 Q133.427 1223.54 131.575 1221.39 Q129.746 1219.24 126.598 1219.24 M135.88 1204.59 L135.88 1208.84 Q134.121 1208.01 132.316 1207.57 Q130.533 1207.13 128.774 1207.13 Q124.144 1207.13 121.691 1210.26 Q119.26 1213.38 118.913 1219.7 Q120.279 1217.69 122.339 1216.62 Q124.399 1215.53 126.876 1215.53 Q132.084 1215.53 135.093 1218.71 Q138.126 1221.85 138.126 1227.29 Q138.126 1232.62 134.978 1235.84 Q131.83 1239.05 126.598 1239.05 Q120.603 1239.05 117.431 1234.47 Q114.26 1229.86 114.26 1221.14 Q114.26 1212.94 118.149 1208.08 Q122.038 1203.2 128.589 1203.2 Q130.348 1203.2 132.13 1203.54 Q133.936 1203.89 135.88 1204.59 Z" fill="#000000" fill-rule="nonzero" fill-opacity="1" /><path clip-path="url(#clip870)" d="M146.228 1203.82 L164.584 1203.82 L164.584 1207.76 L150.51 1207.76 L150.51 1216.23 Q151.528 1215.88 152.547 1215.72 Q153.566 1215.53 154.584 1215.53 Q160.371 1215.53 163.751 1218.71 Q167.13 1221.88 167.13 1227.29 Q167.13 1232.87 163.658 1235.97 Q160.186 1239.05 153.866 1239.05 Q151.691 1239.05 149.422 1238.68 Q147.177 1238.31 144.769 1237.57 L144.769 1232.87 Q146.853 1234.01 149.075 1234.56 Q151.297 1235.12 153.774 1235.12 Q157.778 1235.12 160.116 1233.01 Q162.454 1230.9 162.454 1227.29 Q162.454 1223.68 160.116 1221.58 Q157.778 1219.47 153.774 1219.47 Q151.899 1219.47 150.024 1219.89 Q148.172 1220.3 146.228 1221.18 L146.228 1203.82 Z" fill="#000000" fill-rule="nonzero" fill-opacity="1" /><path clip-path="url(#clip870)" d="M176.343 1232.5 L181.227 1232.5 L181.227 1238.38 L176.343 1238.38 L176.343 1232.5 Z" fill="#000000" fill-rule="nonzero" fill-opacity="1" /><path clip-path="url(#clip870)" d="M204.26 1207.9 L192.454 1226.34 L204.26 1226.34 L204.26 1207.9 M203.033 1203.82 L208.912 1203.82 L208.912 1226.34 L213.843 1226.34 L213.843 1230.23 L208.912 1230.23 L208.912 1238.38 L204.26 1238.38 L204.26 1230.23 L188.658 1230.23 L188.658 1225.72 L203.033 1203.82 Z" fill="#000000" fill-rule="nonzero" fill-opacity="1" /><path clip-path="url(#clip870)" d="M126.922 1018.87 Q123.774 1018.87 121.922 1021.02 Q120.093 1023.18 120.093 1026.93 Q120.093 1030.65 121.922 1032.83 Q123.774 1034.98 126.922 1034.98 Q130.07 1034.98 131.899 1032.83 Q133.751 1030.65 133.751 1026.93 Q133.751 1023.18 131.899 1021.02 Q130.07 1018.87 126.922 1018.87 M136.204 1004.22 L136.204 1008.48 Q134.445 1007.64 132.64 1007.21 Q130.857 1006.77 129.098 1006.77 Q124.468 1006.77 122.015 1009.89 Q119.584 1013.02 119.237 1019.33 Q120.603 1017.32 122.663 1016.26 Q124.723 1015.17 127.2 1015.17 Q132.408 1015.17 135.417 1018.34 Q138.45 1021.49 138.45 1026.93 Q138.45 1032.25 135.302 1035.47 Q132.154 1038.69 126.922 1038.69 Q120.927 1038.69 117.756 1034.1 Q114.584 1029.5 114.584 1020.77 Q114.584 1012.58 118.473 1007.71 Q122.362 1002.83 128.913 1002.83 Q130.672 1002.83 132.455 1003.18 Q134.26 1003.52 136.204 1004.22 Z" fill="#000000" fill-rule="nonzero" fill-opacity="1" /><path clip-path="url(#clip870)" d="M146.552 1003.46 L164.908 1003.46 L164.908 1007.39 L150.834 1007.39 L150.834 1015.86 Q151.853 1015.52 152.871 1015.35 Q153.89 1015.17 154.908 1015.17 Q160.695 1015.17 164.075 1018.34 Q167.454 1021.51 167.454 1026.93 Q167.454 1032.51 163.982 1035.61 Q160.51 1038.69 154.19 1038.69 Q152.015 1038.69 149.746 1038.32 Q147.501 1037.95 145.093 1037.21 L145.093 1032.51 Q147.177 1033.64 149.399 1034.2 Q151.621 1034.75 154.098 1034.75 Q158.103 1034.75 160.44 1032.64 Q162.778 1030.54 162.778 1026.93 Q162.778 1023.32 160.44 1021.21 Q158.103 1019.1 154.098 1019.1 Q152.223 1019.1 150.348 1019.52 Q148.496 1019.94 146.552 1020.82 L146.552 1003.46 Z" fill="#000000" fill-rule="nonzero" fill-opacity="1" /><path clip-path="url(#clip870)" d="M176.667 1032.14 L181.551 1032.14 L181.551 1038.02 L176.667 1038.02 L176.667 1032.14 Z" fill="#000000" fill-rule="nonzero" fill-opacity="1" /><path clip-path="url(#clip870)" d="M202.315 1018.87 Q199.167 1018.87 197.315 1021.02 Q195.487 1023.18 195.487 1026.93 Q195.487 1030.65 197.315 1032.83 Q199.167 1034.98 202.315 1034.98 Q205.463 1034.98 207.292 1032.83 Q209.144 1030.65 209.144 1026.93 Q209.144 1023.18 207.292 1021.02 Q205.463 1018.87 202.315 1018.87 M211.598 1004.22 L211.598 1008.48 Q209.838 1007.64 208.033 1007.21 Q206.25 1006.77 204.491 1006.77 Q199.862 1006.77 197.408 1009.89 Q194.977 1013.02 194.63 1019.33 Q195.996 1017.32 198.056 1016.26 Q200.116 1015.17 202.593 1015.17 Q207.801 1015.17 210.811 1018.34 Q213.843 1021.49 213.843 1026.93 Q213.843 1032.25 210.695 1035.47 Q207.547 1038.69 202.315 1038.69 Q196.32 1038.69 193.149 1034.1 Q189.977 1029.5 189.977 1020.77 Q189.977 1012.58 193.866 1007.71 Q197.755 1002.83 204.306 1002.83 Q206.065 1002.83 207.848 1003.18 Q209.653 1003.52 211.598 1004.22 Z" fill="#000000" fill-rule="nonzero" fill-opacity="1" /><path clip-path="url(#clip870)" d="M127.177 818.505 Q124.029 818.505 122.177 820.658 Q120.348 822.811 120.348 826.561 Q120.348 830.288 122.177 832.464 Q124.029 834.616 127.177 834.616 Q130.325 834.616 132.154 832.464 Q134.005 830.288 134.005 826.561 Q134.005 822.811 132.154 820.658 Q130.325 818.505 127.177 818.505 M136.459 803.853 L136.459 808.112 Q134.7 807.279 132.894 806.839 Q131.112 806.399 129.353 806.399 Q124.723 806.399 122.269 809.524 Q119.839 812.649 119.492 818.968 Q120.857 816.954 122.918 815.89 Q124.978 814.802 127.455 814.802 Q132.663 814.802 135.672 817.973 Q138.704 821.121 138.704 826.561 Q138.704 831.885 135.556 835.103 Q132.408 838.32 127.177 838.32 Q121.181 838.32 118.01 833.737 Q114.839 829.13 114.839 820.404 Q114.839 812.209 118.728 807.348 Q122.617 802.464 129.167 802.464 Q130.927 802.464 132.709 802.811 Q134.515 803.158 136.459 803.853 Z" fill="#000000" fill-rule="nonzero" fill-opacity="1" /><path clip-path="url(#clip870)" d="M146.806 803.089 L165.163 803.089 L165.163 807.024 L151.089 807.024 L151.089 815.496 Q152.107 815.149 153.126 814.987 Q154.144 814.802 155.163 814.802 Q160.95 814.802 164.329 817.973 Q167.709 821.144 167.709 826.561 Q167.709 832.14 164.237 835.241 Q160.765 838.32 154.445 838.32 Q152.269 838.32 150.001 837.95 Q147.755 837.579 145.348 836.839 L145.348 832.14 Q147.431 833.274 149.653 833.829 Q151.876 834.385 154.353 834.385 Q158.357 834.385 160.695 832.278 Q163.033 830.172 163.033 826.561 Q163.033 822.95 160.695 820.843 Q158.357 818.737 154.353 818.737 Q152.478 818.737 150.603 819.154 Q148.751 819.57 146.806 820.45 L146.806 803.089 Z" fill="#000000" fill-rule="nonzero" fill-opacity="1" /><path clip-path="url(#clip870)" d="M176.922 831.769 L181.806 831.769 L181.806 837.649 L176.922 837.649 L176.922 831.769 Z" fill="#000000" fill-rule="nonzero" fill-opacity="1" /><path clip-path="url(#clip870)" d="M201.991 821.237 Q198.658 821.237 196.737 823.019 Q194.838 824.802 194.838 827.927 Q194.838 831.052 196.737 832.834 Q198.658 834.616 201.991 834.616 Q205.324 834.616 207.246 832.834 Q209.167 831.028 209.167 827.927 Q209.167 824.802 207.246 823.019 Q205.348 821.237 201.991 821.237 M197.315 819.246 Q194.306 818.505 192.616 816.445 Q190.95 814.385 190.95 811.422 Q190.95 807.279 193.889 804.871 Q196.852 802.464 201.991 802.464 Q207.153 802.464 210.093 804.871 Q213.033 807.279 213.033 811.422 Q213.033 814.385 211.343 816.445 Q209.676 818.505 206.69 819.246 Q210.07 820.033 211.945 822.325 Q213.843 824.616 213.843 827.927 Q213.843 832.95 210.764 835.635 Q207.709 838.32 201.991 838.32 Q196.274 838.32 193.195 835.635 Q190.139 832.95 190.139 827.927 Q190.139 824.616 192.038 822.325 Q193.936 820.033 197.315 819.246 M195.602 811.862 Q195.602 814.547 197.269 816.052 Q198.959 817.556 201.991 817.556 Q205 817.556 206.69 816.052 Q208.403 814.547 208.403 811.862 Q208.403 809.177 206.69 807.672 Q205 806.168 201.991 806.168 Q198.959 806.168 197.269 807.672 Q195.602 809.177 195.602 811.862 Z" fill="#000000" fill-rule="nonzero" fill-opacity="1" /><path clip-path="url(#clip870)" d="M127.084 618.139 Q123.936 618.139 122.084 620.292 Q120.255 622.445 120.255 626.195 Q120.255 629.921 122.084 632.097 Q123.936 634.25 127.084 634.25 Q130.232 634.25 132.061 632.097 Q133.913 629.921 133.913 626.195 Q133.913 622.445 132.061 620.292 Q130.232 618.139 127.084 618.139 M136.367 603.486 L136.367 607.746 Q134.607 606.912 132.802 606.472 Q131.019 606.033 129.26 606.033 Q124.63 606.033 122.177 609.158 Q119.746 612.283 119.399 618.602 Q120.765 616.588 122.825 615.523 Q124.885 614.435 127.362 614.435 Q132.57 614.435 135.579 617.607 Q138.612 620.755 138.612 626.195 Q138.612 631.519 135.464 634.736 Q132.316 637.954 127.084 637.954 Q121.089 637.954 117.918 633.37 Q114.746 628.764 114.746 620.037 Q114.746 611.843 118.635 606.982 Q122.524 602.097 129.075 602.097 Q130.834 602.097 132.617 602.445 Q134.422 602.792 136.367 603.486 Z" fill="#000000" fill-rule="nonzero" fill-opacity="1" /><path clip-path="url(#clip870)" d="M157.246 618.139 Q154.098 618.139 152.246 620.292 Q150.417 622.445 150.417 626.195 Q150.417 629.921 152.246 632.097 Q154.098 634.25 157.246 634.25 Q160.394 634.25 162.223 632.097 Q164.075 629.921 164.075 626.195 Q164.075 622.445 162.223 620.292 Q160.394 618.139 157.246 618.139 M166.528 603.486 L166.528 607.746 Q164.769 606.912 162.964 606.472 Q161.181 606.033 159.422 606.033 Q154.792 606.033 152.339 609.158 Q149.908 612.283 149.561 618.602 Q150.927 616.588 152.987 615.523 Q155.047 614.435 157.524 614.435 Q162.732 614.435 165.741 617.607 Q168.774 620.755 168.774 626.195 Q168.774 631.519 165.626 634.736 Q162.477 637.954 157.246 637.954 Q151.251 637.954 148.079 633.37 Q144.908 628.764 144.908 620.037 Q144.908 611.843 148.797 606.982 Q152.686 602.097 159.237 602.097 Q160.996 602.097 162.778 602.445 Q164.584 602.792 166.528 603.486 Z" fill="#000000" fill-rule="nonzero" fill-opacity="1" /><path clip-path="url(#clip870)" d="M176.829 631.403 L181.713 631.403 L181.713 637.282 L176.829 637.282 L176.829 631.403 Z" fill="#000000" fill-rule="nonzero" fill-opacity="1" /><path clip-path="url(#clip870)" d="M201.899 605.801 Q198.287 605.801 196.459 609.366 Q194.653 612.908 194.653 620.037 Q194.653 627.144 196.459 630.708 Q198.287 634.25 201.899 634.25 Q205.533 634.25 207.338 630.708 Q209.167 627.144 209.167 620.037 Q209.167 612.908 207.338 609.366 Q205.533 605.801 201.899 605.801 M201.899 602.097 Q207.709 602.097 210.764 606.704 Q213.843 611.287 213.843 620.037 Q213.843 628.764 210.764 633.37 Q207.709 637.954 201.899 637.954 Q196.088 637.954 193.01 633.37 Q189.954 628.764 189.954 620.037 Q189.954 611.287 193.01 606.704 Q196.088 602.097 201.899 602.097 Z" fill="#000000" fill-rule="nonzero" fill-opacity="1" /><path clip-path="url(#clip870)" d="M128.681 417.773 Q125.533 417.773 123.681 419.925 Q121.853 422.078 121.853 425.828 Q121.853 429.555 123.681 431.731 Q125.533 433.884 128.681 433.884 Q131.83 433.884 133.658 431.731 Q135.51 429.555 135.51 425.828 Q135.51 422.078 133.658 419.925 Q131.83 417.773 128.681 417.773 M137.964 403.12 L137.964 407.379 Q136.204 406.546 134.399 406.106 Q132.617 405.666 130.857 405.666 Q126.228 405.666 123.774 408.791 Q121.343 411.916 120.996 418.236 Q122.362 416.222 124.422 415.157 Q126.482 414.069 128.959 414.069 Q134.167 414.069 137.177 417.24 Q140.209 420.388 140.209 425.828 Q140.209 431.152 137.061 434.37 Q133.913 437.587 128.681 437.587 Q122.686 437.587 119.515 433.004 Q116.343 428.398 116.343 419.671 Q116.343 411.476 120.232 406.615 Q124.121 401.731 130.672 401.731 Q132.431 401.731 134.214 402.078 Q136.019 402.426 137.964 403.12 Z" fill="#000000" fill-rule="nonzero" fill-opacity="1" /><path clip-path="url(#clip870)" d="M158.843 417.773 Q155.695 417.773 153.843 419.925 Q152.015 422.078 152.015 425.828 Q152.015 429.555 153.843 431.731 Q155.695 433.884 158.843 433.884 Q161.991 433.884 163.82 431.731 Q165.672 429.555 165.672 425.828 Q165.672 422.078 163.82 419.925 Q161.991 417.773 158.843 417.773 M168.126 403.12 L168.126 407.379 Q166.366 406.546 164.561 406.106 Q162.778 405.666 161.019 405.666 Q156.39 405.666 153.936 408.791 Q151.505 411.916 151.158 418.236 Q152.524 416.222 154.584 415.157 Q156.644 414.069 159.121 414.069 Q164.329 414.069 167.339 417.24 Q170.371 420.388 170.371 425.828 Q170.371 431.152 167.223 434.37 Q164.075 437.587 158.843 437.587 Q152.848 437.587 149.677 433.004 Q146.505 428.398 146.505 419.671 Q146.505 411.476 150.394 406.615 Q154.283 401.731 160.834 401.731 Q162.593 401.731 164.376 402.078 Q166.181 402.426 168.126 403.12 Z" fill="#000000" fill-rule="nonzero" fill-opacity="1" /><path clip-path="url(#clip870)" d="M178.426 431.036 L183.311 431.036 L183.311 436.916 L178.426 436.916 L178.426 431.036 Z" fill="#000000" fill-rule="nonzero" fill-opacity="1" /><path clip-path="url(#clip870)" d="M197.524 432.981 L213.843 432.981 L213.843 436.916 L191.899 436.916 L191.899 432.981 Q194.561 430.226 199.144 425.597 Q203.75 420.944 204.931 419.601 Q207.176 417.078 208.056 415.342 Q208.959 413.583 208.959 411.893 Q208.959 409.138 207.014 407.402 Q205.093 405.666 201.991 405.666 Q199.792 405.666 197.338 406.43 Q194.908 407.194 192.13 408.745 L192.13 404.023 Q194.954 402.888 197.408 402.31 Q199.862 401.731 201.899 401.731 Q207.269 401.731 210.463 404.416 Q213.658 407.101 213.658 411.592 Q213.658 413.722 212.848 415.643 Q212.061 417.541 209.954 420.134 Q209.375 420.805 206.274 424.023 Q203.172 427.217 197.524 432.981 Z" fill="#000000" fill-rule="nonzero" fill-opacity="1" /><path clip-path="url(#clip870)" d="M126.598 217.406 Q123.45 217.406 121.598 219.559 Q119.769 221.712 119.769 225.462 Q119.769 229.189 121.598 231.365 Q123.45 233.517 126.598 233.517 Q129.746 233.517 131.575 231.365 Q133.427 229.189 133.427 225.462 Q133.427 221.712 131.575 219.559 Q129.746 217.406 126.598 217.406 M135.88 202.754 L135.88 207.013 Q134.121 206.18 132.316 205.74 Q130.533 205.3 128.774 205.3 Q124.144 205.3 121.691 208.425 Q119.26 211.55 118.913 217.869 Q120.279 215.855 122.339 214.791 Q124.399 213.703 126.876 213.703 Q132.084 213.703 135.093 216.874 Q138.126 220.022 138.126 225.462 Q138.126 230.786 134.978 234.003 Q131.83 237.221 126.598 237.221 Q120.603 237.221 117.431 232.638 Q114.26 228.031 114.26 219.304 Q114.26 211.11 118.149 206.249 Q122.038 201.365 128.589 201.365 Q130.348 201.365 132.13 201.712 Q133.936 202.059 135.88 202.754 Z" fill="#000000" fill-rule="nonzero" fill-opacity="1" /><path clip-path="url(#clip870)" d="M156.76 217.406 Q153.612 217.406 151.76 219.559 Q149.931 221.712 149.931 225.462 Q149.931 229.189 151.76 231.365 Q153.612 233.517 156.76 233.517 Q159.908 233.517 161.737 231.365 Q163.589 229.189 163.589 225.462 Q163.589 221.712 161.737 219.559 Q159.908 217.406 156.76 217.406 M166.042 202.754 L166.042 207.013 Q164.283 206.18 162.477 205.74 Q160.695 205.3 158.936 205.3 Q154.306 205.3 151.853 208.425 Q149.422 211.55 149.075 217.869 Q150.441 215.855 152.501 214.791 Q154.561 213.703 157.038 213.703 Q162.246 213.703 165.255 216.874 Q168.288 220.022 168.288 225.462 Q168.288 230.786 165.14 234.003 Q161.991 237.221 156.76 237.221 Q150.765 237.221 147.593 232.638 Q144.422 228.031 144.422 219.304 Q144.422 211.11 148.311 206.249 Q152.2 201.365 158.751 201.365 Q160.51 201.365 162.292 201.712 Q164.098 202.059 166.042 202.754 Z" fill="#000000" fill-rule="nonzero" fill-opacity="1" /><path clip-path="url(#clip870)" d="M176.343 230.67 L181.227 230.67 L181.227 236.55 L176.343 236.55 L176.343 230.67 Z" fill="#000000" fill-rule="nonzero" fill-opacity="1" /><path clip-path="url(#clip870)" d="M204.26 206.064 L192.454 224.513 L204.26 224.513 L204.26 206.064 M203.033 201.99 L208.912 201.99 L208.912 224.513 L213.843 224.513 L213.843 228.402 L208.912 228.402 L208.912 236.55 L204.26 236.55 L204.26 228.402 L188.658 228.402 L188.658 223.888 L203.033 201.99 Z" fill="#000000" fill-rule="nonzero" fill-opacity="1" /><path clip-path="url(#clip870)" d="M22.818 922.094 L46.4666 930.815 L46.4666 913.341 L22.818 922.094 M16.4842 925.723 L16.4842 918.434 L64.0042 900.324 L64.0042 907.008 L51.8138 911.336 L51.8138 932.757 L64.0042 937.085 L64.0042 943.865 L16.4842 925.723 Z" fill="#000000" fill-rule="nonzero" fill-opacity="1" /><path clip-path="url(#clip870)" d="M45.7664 870.182 Q39.4007 870.182 35.8996 872.824 Q32.3984 875.434 32.3984 880.176 Q32.3984 884.887 35.8996 887.528 Q39.4007 890.138 45.7664 890.138 Q52.1003 890.138 55.6014 887.528 Q59.1026 884.887 59.1026 880.176 Q59.1026 875.434 55.6014 872.824 Q52.1003 870.182 45.7664 870.182 M59.58 864.325 Q68.683 864.325 73.1071 868.368 Q77.5631 872.41 77.5631 880.749 Q77.5631 883.836 77.0857 886.574 Q76.6401 889.311 75.6852 891.889 L69.9879 891.889 Q71.3884 889.311 72.0568 886.796 Q72.7252 884.282 72.7252 881.672 Q72.7252 875.911 69.7015 873.046 Q66.7096 870.182 60.6303 870.182 L57.7339 870.182 Q60.885 871.996 62.4446 874.829 Q64.0042 877.662 64.0042 881.608 Q64.0042 888.165 59.0071 892.175 Q54.01 896.186 45.7664 896.186 Q37.491 896.186 32.4939 892.175 Q27.4968 888.165 27.4968 881.608 Q27.4968 877.662 29.0564 874.829 Q30.616 871.996 33.7671 870.182 L28.3562 870.182 L28.3562 864.325 L59.58 864.325 Z" fill="#000000" fill-rule="nonzero" fill-opacity="1" /><path clip-path="url(#clip870)" d="M44.7161 821.771 L47.5806 821.771 L47.5806 848.698 Q53.6281 848.316 56.8109 845.069 Q59.9619 841.791 59.9619 835.966 Q59.9619 832.592 59.1344 829.441 Q58.3069 826.259 56.6518 823.139 L62.1899 823.139 Q63.5267 826.29 64.227 829.601 Q64.9272 832.911 64.9272 836.316 Q64.9272 844.846 59.9619 849.843 Q54.9967 854.809 46.5303 854.809 Q37.7774 854.809 32.6531 850.098 Q27.4968 845.356 27.4968 837.335 Q27.4968 830.142 32.1438 825.972 Q36.7589 821.771 44.7161 821.771 M42.9973 827.627 Q38.1912 827.691 35.3266 830.333 Q32.4621 832.943 32.4621 837.271 Q32.4621 842.173 35.2312 845.133 Q38.0002 848.061 43.0292 848.507 L42.9973 827.627 Z" fill="#000000" fill-rule="nonzero" fill-opacity="1" /><path clip-path="url(#clip870)" d="M14.5426 777.37 Q21.8632 781.635 29.0246 783.704 Q36.186 785.773 43.5384 785.773 Q50.8908 785.773 58.1159 783.704 Q65.3091 781.603 72.5979 777.37 L72.5979 782.462 Q65.1182 787.237 57.8931 789.624 Q50.668 791.979 43.5384 791.979 Q36.4406 791.979 29.2474 789.624 Q22.0542 787.269 14.5426 782.462 L14.5426 777.37 Z" fill="#000000" fill-rule="nonzero" fill-opacity="1" /><path clip-path="url(#clip870)" d="M16.4842 765.752 L16.4842 756.172 L48.8219 744.045 L16.4842 731.855 L16.4842 722.275 L64.0042 722.275 L64.0042 728.545 L22.277 728.545 L54.8694 740.799 L54.8694 747.26 L22.277 759.514 L64.0042 759.514 L64.0042 765.752 L16.4842 765.752 Z" fill="#000000" fill-rule="nonzero" fill-opacity="1" /><path clip-path="url(#clip870)" d="M46.0847 693.565 Q46.0847 700.663 47.7079 703.4 Q49.3312 706.138 53.2461 706.138 Q56.3653 706.138 58.2114 704.101 Q60.0256 702.032 60.0256 698.499 Q60.0256 693.629 56.5881 690.701 Q53.1188 687.741 47.3897 687.741 L46.0847 687.741 L46.0847 693.565 M43.6657 681.884 L64.0042 681.884 L64.0042 687.741 L58.5933 687.741 Q61.8398 689.746 63.3994 692.738 Q64.9272 695.73 64.9272 700.058 Q64.9272 705.533 61.8716 708.779 Q58.7843 711.994 53.6281 711.994 Q47.6125 711.994 44.5569 707.984 Q41.5014 703.941 41.5014 695.953 L41.5014 687.741 L40.9285 687.741 Q36.8862 687.741 34.6901 690.414 Q32.4621 693.056 32.4621 697.862 Q32.4621 700.918 33.1941 703.814 Q33.9262 706.711 35.3903 709.384 L29.9795 709.384 Q28.7381 706.169 28.1334 703.146 Q27.4968 700.122 27.4968 697.257 Q27.4968 689.523 31.5072 685.704 Q35.5176 681.884 43.6657 681.884 Z" fill="#000000" fill-rule="nonzero" fill-opacity="1" /><path clip-path="url(#clip870)" d="M14.5426 670.744 L14.5426 665.652 Q22.0542 660.877 29.2474 658.522 Q36.4406 656.135 43.5384 656.135 Q50.668 656.135 57.8931 658.522 Q65.1182 660.877 72.5979 665.652 L72.5979 670.744 Q65.3091 666.511 58.1159 664.442 Q50.8908 662.342 43.5384 662.342 Q36.186 662.342 29.0246 664.442 Q21.8632 666.511 14.5426 670.744 Z" fill="#000000" fill-rule="nonzero" fill-opacity="1" /><polyline clip-path="url(#clip871)" style="stroke:#009af9; stroke-linecap:round; stroke-linejoin:round; stroke-width:4; stroke-opacity:1; fill:none" points="309.359,1510.15 309.359,696.581 "/>
<polyline clip-path="url(#clip871)" style="stroke:#009af9; stroke-linecap:round; stroke-linejoin:round; stroke-width:4; stroke-opacity:1; fill:none" points="592.771,1155.02 592.771,967.199 "/>
<polyline clip-path="url(#clip871)" style="stroke:#009af9; stroke-linecap:round; stroke-linejoin:round; stroke-width:4; stroke-opacity:1; fill:none" points="876.182,1299.84 876.182,764.262 "/>
<polyline clip-path="url(#clip871)" style="stroke:#009af9; stroke-linecap:round; stroke-linejoin:round; stroke-width:4; stroke-opacity:1; fill:none" points="1159.59,1196.61 1159.59,632.832 "/>
<polyline clip-path="url(#clip871)" style="stroke:#009af9; stroke-linecap:round; stroke-linejoin:round; stroke-width:4; stroke-opacity:1; fill:none" points="1443.01,1369.42 1443.01,455.006 "/>
<polyline clip-path="url(#clip871)" style="stroke:#009af9; stroke-linecap:round; stroke-linejoin:round; stroke-width:4; stroke-opacity:1; fill:none" points="1726.42,970.248 1726.42,799.785 "/>
<polyline clip-path="url(#clip871)" style="stroke:#009af9; stroke-linecap:round; stroke-linejoin:round; stroke-width:4; stroke-opacity:1; fill:none" points="2009.83,752.361 2009.83,276.866 "/>
<polyline clip-path="url(#clip871)" style="stroke:#009af9; stroke-linecap:round; stroke-linejoin:round; stroke-width:4; stroke-opacity:1; fill:none" points="2293.24,757.985 2293.24,89.8529 "/>
<line clip-path="url(#clip871)" x1="325.359" y1="1510.15" x2="293.359" y2="1510.15" style="stroke:#009af9; stroke-width:4; stroke-opacity:1"/>
<line clip-path="url(#clip871)" x1="325.359" y1="696.581" x2="293.359" y2="696.581" style="stroke:#009af9; stroke-width:4; stroke-opacity:1"/>
<line clip-path="url(#clip871)" x1="608.771" y1="1155.02" x2="576.771" y2="1155.02" style="stroke:#009af9; stroke-width:4; stroke-opacity:1"/>
<line clip-path="url(#clip871)" x1="608.771" y1="967.199" x2="576.771" y2="967.199" style="stroke:#009af9; stroke-width:4; stroke-opacity:1"/>
<line clip-path="url(#clip871)" x1="892.182" y1="1299.84" x2="860.182" y2="1299.84" style="stroke:#009af9; stroke-width:4; stroke-opacity:1"/>
<line clip-path="url(#clip871)" x1="892.182" y1="764.262" x2="860.182" y2="764.262" style="stroke:#009af9; stroke-width:4; stroke-opacity:1"/>
<line clip-path="url(#clip871)" x1="1175.59" y1="1196.61" x2="1143.59" y2="1196.61" style="stroke:#009af9; stroke-width:4; stroke-opacity:1"/>
<line clip-path="url(#clip871)" x1="1175.59" y1="632.832" x2="1143.59" y2="632.832" style="stroke:#009af9; stroke-width:4; stroke-opacity:1"/>
<line clip-path="url(#clip871)" x1="1459.01" y1="1369.42" x2="1427.01" y2="1369.42" style="stroke:#009af9; stroke-width:4; stroke-opacity:1"/>
<line clip-path="url(#clip871)" x1="1459.01" y1="455.006" x2="1427.01" y2="455.006" style="stroke:#009af9; stroke-width:4; stroke-opacity:1"/>
<line clip-path="url(#clip871)" x1="1742.42" y1="970.248" x2="1710.42" y2="970.248" style="stroke:#009af9; stroke-width:4; stroke-opacity:1"/>
<line clip-path="url(#clip871)" x1="1742.42" y1="799.785" x2="1710.42" y2="799.785" style="stroke:#009af9; stroke-width:4; stroke-opacity:1"/>
<line clip-path="url(#clip871)" x1="2025.83" y1="752.361" x2="1993.83" y2="752.361" style="stroke:#009af9; stroke-width:4; stroke-opacity:1"/>
<line clip-path="url(#clip871)" x1="2025.83" y1="276.866" x2="1993.83" y2="276.866" style="stroke:#009af9; stroke-width:4; stroke-opacity:1"/>
<line clip-path="url(#clip871)" x1="2309.24" y1="757.985" x2="2277.24" y2="757.985" style="stroke:#009af9; stroke-width:4; stroke-opacity:1"/>
<line clip-path="url(#clip871)" x1="2309.24" y1="89.8529" x2="2277.24" y2="89.8529" style="stroke:#009af9; stroke-width:4; stroke-opacity:1"/>
<circle clip-path="url(#clip871)" cx="309.359" cy="1103.36" r="14.4" fill="#009af9" fill-rule="evenodd" fill-opacity="1" stroke="none"/>
<circle clip-path="url(#clip871)" cx="592.771" cy="1061.11" r="14.4" fill="#009af9" fill-rule="evenodd" fill-opacity="1" stroke="none"/>
<circle clip-path="url(#clip871)" cx="876.182" cy="1032.05" r="14.4" fill="#009af9" fill-rule="evenodd" fill-opacity="1" stroke="none"/>
<circle clip-path="url(#clip871)" cx="1159.59" cy="914.723" r="14.4" fill="#009af9" fill-rule="evenodd" fill-opacity="1" stroke="none"/>
<circle clip-path="url(#clip871)" cx="1443.01" cy="912.216" r="14.4" fill="#009af9" fill-rule="evenodd" fill-opacity="1" stroke="none"/>
<circle clip-path="url(#clip871)" cx="1726.42" cy="885.017" r="14.4" fill="#009af9" fill-rule="evenodd" fill-opacity="1" stroke="none"/>
<circle clip-path="url(#clip871)" cx="2009.83" cy="514.613" r="14.4" fill="#009af9" fill-rule="evenodd" fill-opacity="1" stroke="none"/>
<circle clip-path="url(#clip871)" cx="2293.24" cy="423.919" r="14.4" fill="#009af9" fill-rule="evenodd" fill-opacity="1" stroke="none"/>
<path clip-path="url(#clip871)" d="M309.359 1269.94 L592.771 1269.94 L876.182 1269.94 L1159.59 1269.94 L1443.01 1269.94 L1726.42 1269.94 L2009.83 1269.94 L2293.24 1269.94 L2293.24 993.333 L2009.83 993.333 L1726.42 993.333 L1443.01 993.333 L1159.59 993.333 L876.182 993.333 L592.771 993.333 L309.359 993.333  Z" fill="#e26f46" fill-rule="evenodd" fill-opacity="0.6"/>
<polyline clip-path="url(#clip871)" style="stroke:#e26f46; stroke-linecap:round; stroke-linejoin:round; stroke-width:4; stroke-opacity:0; fill:none" points="309.359,1269.94 592.771,1269.94 876.182,1269.94 1159.59,1269.94 1443.01,1269.94 1726.42,1269.94 2009.83,1269.94 2293.24,1269.94 "/>
<polyline clip-path="url(#clip871)" style="stroke:#000000; stroke-linecap:round; stroke-linejoin:round; stroke-width:4; stroke-opacity:1; fill:none" stroke-dasharray="2, 4" points="309.359,1106.93 592.771,1106.93 876.182,1106.93 1159.59,1106.93 1443.01,1106.93 1726.42,1106.93 2009.83,1106.93 2293.24,1106.93 "/>
<path clip-path="url(#clip870)" d="M319.94 252.948 L1326.11 252.948 L1326.11 97.4278 L319.94 97.4278  Z" fill="#ffffff" fill-rule="evenodd" fill-opacity="1"/>
<polyline clip-path="url(#clip870)" style="stroke:#ffffff; stroke-linecap:round; stroke-linejoin:round; stroke-width:4; stroke-opacity:1; fill:none" points="319.94,252.948 1326.11,252.948 1326.11,97.4278 319.94,97.4278 319.94,252.948 "/>
<circle clip-path="url(#clip870)" cx="413.403" cy="149.268" r="20.48" fill="#009af9" fill-rule="evenodd" fill-opacity="1" stroke="none"/>
<path clip-path="url(#clip870)" d="M511.542 135.83 L511.542 162.705 L517.19 162.705 Q524.342 162.705 527.653 159.465 Q530.986 156.224 530.986 149.233 Q530.986 142.289 527.653 139.071 Q524.342 135.83 517.19 135.83 L511.542 135.83 M506.866 131.988 L516.472 131.988 Q526.518 131.988 531.217 136.178 Q535.916 140.344 535.916 149.233 Q535.916 158.168 531.194 162.358 Q526.472 166.548 516.472 166.548 L506.866 166.548 L506.866 131.988 Z" fill="#000000" fill-rule="nonzero" fill-opacity="1" /><path clip-path="url(#clip870)" d="M554.967 153.515 Q549.805 153.515 547.815 154.696 Q545.824 155.877 545.824 158.724 Q545.824 160.992 547.305 162.335 Q548.81 163.654 551.379 163.654 Q554.921 163.654 557.051 161.154 Q559.203 158.631 559.203 154.465 L559.203 153.515 L554.967 153.515 M563.463 151.756 L563.463 166.548 L559.203 166.548 L559.203 162.613 Q557.745 164.974 555.569 166.108 Q553.393 167.219 550.245 167.219 Q546.264 167.219 543.902 164.997 Q541.565 162.752 541.565 159.002 Q541.565 154.627 544.481 152.404 Q547.421 150.182 553.231 150.182 L559.203 150.182 L559.203 149.766 Q559.203 146.826 557.259 145.228 Q555.338 143.608 551.842 143.608 Q549.62 143.608 547.514 144.141 Q545.407 144.673 543.463 145.738 L543.463 141.803 Q545.801 140.9 548 140.46 Q550.199 139.997 552.282 139.997 Q557.907 139.997 560.685 142.914 Q563.463 145.83 563.463 151.756 Z" fill="#000000" fill-rule="nonzero" fill-opacity="1" /><path clip-path="url(#clip870)" d="M576.449 133.261 L576.449 140.622 L585.222 140.622 L585.222 143.932 L576.449 143.932 L576.449 158.006 Q576.449 161.177 577.305 162.08 Q578.185 162.983 580.847 162.983 L585.222 162.983 L585.222 166.548 L580.847 166.548 Q575.916 166.548 574.041 164.719 Q572.166 162.867 572.166 158.006 L572.166 143.932 L569.041 143.932 L569.041 140.622 L572.166 140.622 L572.166 133.261 L576.449 133.261 Z" fill="#000000" fill-rule="nonzero" fill-opacity="1" /><path clip-path="url(#clip870)" d="M602.606 153.515 Q597.444 153.515 595.453 154.696 Q593.462 155.877 593.462 158.724 Q593.462 160.992 594.944 162.335 Q596.449 163.654 599.018 163.654 Q602.56 163.654 604.689 161.154 Q606.842 158.631 606.842 154.465 L606.842 153.515 L602.606 153.515 M611.101 151.756 L611.101 166.548 L606.842 166.548 L606.842 162.613 Q605.384 164.974 603.208 166.108 Q601.032 167.219 597.884 167.219 Q593.902 167.219 591.541 164.997 Q589.203 162.752 589.203 159.002 Q589.203 154.627 592.12 152.404 Q595.06 150.182 600.87 150.182 L606.842 150.182 L606.842 149.766 Q606.842 146.826 604.898 145.228 Q602.976 143.608 599.481 143.608 Q597.259 143.608 595.152 144.141 Q593.046 144.673 591.101 145.738 L591.101 141.803 Q593.439 140.9 595.638 140.46 Q597.837 139.997 599.921 139.997 Q605.546 139.997 608.323 142.914 Q611.101 145.83 611.101 151.756 Z" fill="#000000" fill-rule="nonzero" fill-opacity="1" /><path clip-path="url(#clip870)" d="M645.175 130.576 Q642.073 135.9 640.569 141.108 Q639.064 146.316 639.064 151.664 Q639.064 157.011 640.569 162.265 Q642.096 167.497 645.175 172.798 L641.471 172.798 Q637.999 167.358 636.263 162.103 Q634.55 156.849 634.55 151.664 Q634.55 146.502 636.263 141.27 Q637.976 136.039 641.471 130.576 L645.175 130.576 Z" fill="#000000" fill-rule="nonzero" fill-opacity="1" /><path clip-path="url(#clip870)" d="M663.485 143.608 Q660.059 143.608 658.069 146.293 Q656.078 148.955 656.078 153.608 Q656.078 158.261 658.045 160.946 Q660.036 163.608 663.485 163.608 Q666.888 163.608 668.879 160.923 Q670.869 158.238 670.869 153.608 Q670.869 149.002 668.879 146.316 Q666.888 143.608 663.485 143.608 M663.485 139.997 Q669.041 139.997 672.212 143.608 Q675.383 147.219 675.383 153.608 Q675.383 159.974 672.212 163.608 Q669.041 167.219 663.485 167.219 Q657.907 167.219 654.735 163.608 Q651.587 159.974 651.587 153.608 Q651.587 147.219 654.735 143.608 Q657.907 139.997 663.485 139.997 Z" fill="#000000" fill-rule="nonzero" fill-opacity="1" /><path clip-path="url(#clip870)" d="M701.054 153.608 Q701.054 148.909 699.11 146.247 Q697.189 143.562 693.809 143.562 Q690.429 143.562 688.485 146.247 Q686.564 148.909 686.564 153.608 Q686.564 158.307 688.485 160.992 Q690.429 163.654 693.809 163.654 Q697.189 163.654 699.11 160.992 Q701.054 158.307 701.054 153.608 M686.564 144.557 Q687.906 142.242 689.943 141.131 Q692.004 139.997 694.851 139.997 Q699.573 139.997 702.513 143.747 Q705.476 147.497 705.476 153.608 Q705.476 159.719 702.513 163.469 Q699.573 167.219 694.851 167.219 Q692.004 167.219 689.943 166.108 Q687.906 164.974 686.564 162.659 L686.564 166.548 L682.281 166.548 L682.281 130.529 L686.564 130.529 L686.564 144.557 Z" fill="#000000" fill-rule="nonzero" fill-opacity="1" /><path clip-path="url(#clip870)" d="M729.064 141.386 L729.064 145.414 Q727.258 144.488 725.314 144.025 Q723.369 143.562 721.286 143.562 Q718.115 143.562 716.517 144.534 Q714.943 145.506 714.943 147.451 Q714.943 148.932 716.077 149.789 Q717.212 150.622 720.638 151.386 L722.096 151.71 Q726.633 152.682 728.531 154.465 Q730.452 156.224 730.452 159.395 Q730.452 163.006 727.582 165.113 Q724.735 167.219 719.735 167.219 Q717.652 167.219 715.383 166.802 Q713.138 166.409 710.638 165.599 L710.638 161.201 Q712.999 162.427 715.29 163.052 Q717.582 163.654 719.827 163.654 Q722.837 163.654 724.457 162.636 Q726.077 161.594 726.077 159.719 Q726.077 157.983 724.897 157.057 Q723.739 156.131 719.781 155.275 L718.3 154.928 Q714.341 154.094 712.582 152.381 Q710.823 150.645 710.823 147.636 Q710.823 143.978 713.415 141.988 Q716.008 139.997 720.777 139.997 Q723.138 139.997 725.221 140.344 Q727.304 140.691 729.064 141.386 Z" fill="#000000" fill-rule="nonzero" fill-opacity="1" /><path clip-path="url(#clip870)" d="M759.411 152.52 L759.411 154.603 L739.827 154.603 Q740.105 159.002 742.466 161.316 Q744.85 163.608 749.087 163.608 Q751.54 163.608 753.832 163.006 Q756.147 162.404 758.415 161.201 L758.415 165.228 Q756.124 166.201 753.716 166.71 Q751.309 167.219 748.832 167.219 Q742.628 167.219 738.994 163.608 Q735.383 159.997 735.383 153.84 Q735.383 147.474 738.809 143.747 Q742.258 139.997 748.091 139.997 Q753.323 139.997 756.355 143.377 Q759.411 146.733 759.411 152.52 M755.151 151.27 Q755.105 147.775 753.184 145.691 Q751.286 143.608 748.138 143.608 Q744.573 143.608 742.42 145.622 Q740.29 147.636 739.966 151.293 L755.151 151.27 Z" fill="#000000" fill-rule="nonzero" fill-opacity="1" /><path clip-path="url(#clip870)" d="M781.424 144.603 Q780.707 144.187 779.85 144.002 Q779.017 143.793 777.998 143.793 Q774.387 143.793 772.443 146.154 Q770.522 148.492 770.522 152.89 L770.522 166.548 L766.239 166.548 L766.239 140.622 L770.522 140.622 L770.522 144.65 Q771.864 142.289 774.017 141.154 Q776.17 139.997 779.248 139.997 Q779.688 139.997 780.221 140.066 Q780.753 140.113 781.401 140.229 L781.424 144.603 Z" fill="#000000" fill-rule="nonzero" fill-opacity="1" /><path clip-path="url(#clip870)" d="M782.836 140.622 L787.35 140.622 L795.452 162.381 L803.554 140.622 L808.068 140.622 L798.346 166.548 L792.559 166.548 L782.836 140.622 Z" fill="#000000" fill-rule="nonzero" fill-opacity="1" /><path clip-path="url(#clip870)" d="M836.123 152.52 L836.123 154.603 L816.54 154.603 Q816.818 159.002 819.179 161.316 Q821.563 163.608 825.799 163.608 Q828.253 163.608 830.544 163.006 Q832.859 162.404 835.128 161.201 L835.128 165.228 Q832.836 166.201 830.429 166.71 Q828.021 167.219 825.544 167.219 Q819.341 167.219 815.707 163.608 Q812.095 159.997 812.095 153.84 Q812.095 147.474 815.521 143.747 Q818.97 139.997 824.804 139.997 Q830.035 139.997 833.068 143.377 Q836.123 146.733 836.123 152.52 M831.864 151.27 Q831.818 147.775 829.896 145.691 Q827.998 143.608 824.85 143.608 Q821.285 143.608 819.132 145.622 Q817.003 147.636 816.679 151.293 L831.864 151.27 Z" fill="#000000" fill-rule="nonzero" fill-opacity="1" /><path clip-path="url(#clip870)" d="M860.174 144.557 L860.174 130.529 L864.433 130.529 L864.433 166.548 L860.174 166.548 L860.174 162.659 Q858.831 164.974 856.771 166.108 Q854.734 167.219 851.864 167.219 Q847.165 167.219 844.202 163.469 Q841.262 159.719 841.262 153.608 Q841.262 147.497 844.202 143.747 Q847.165 139.997 851.864 139.997 Q854.734 139.997 856.771 141.131 Q858.831 142.242 860.174 144.557 M845.66 153.608 Q845.66 158.307 847.581 160.992 Q849.526 163.654 852.905 163.654 Q856.285 163.654 858.23 160.992 Q860.174 158.307 860.174 153.608 Q860.174 148.909 858.23 146.247 Q856.285 143.562 852.905 143.562 Q849.526 143.562 847.581 146.247 Q845.66 148.909 845.66 153.608 Z" fill="#000000" fill-rule="nonzero" fill-opacity="1" /><path clip-path="url(#clip870)" d="M900.058 153.515 Q894.896 153.515 892.905 154.696 Q890.915 155.877 890.915 158.724 Q890.915 160.992 892.396 162.335 Q893.901 163.654 896.47 163.654 Q900.012 163.654 902.141 161.154 Q904.294 158.631 904.294 154.465 L904.294 153.515 L900.058 153.515 M908.553 151.756 L908.553 166.548 L904.294 166.548 L904.294 162.613 Q902.836 164.974 900.66 166.108 Q898.484 167.219 895.336 167.219 Q891.354 167.219 888.993 164.997 Q886.655 162.752 886.655 159.002 Q886.655 154.627 889.572 152.404 Q892.512 150.182 898.322 150.182 L904.294 150.182 L904.294 149.766 Q904.294 146.826 902.35 145.228 Q900.428 143.608 896.933 143.608 Q894.711 143.608 892.604 144.141 Q890.498 144.673 888.553 145.738 L888.553 141.803 Q890.891 140.9 893.09 140.46 Q895.289 139.997 897.373 139.997 Q902.998 139.997 905.776 142.914 Q908.553 145.83 908.553 151.756 Z" fill="#000000" fill-rule="nonzero" fill-opacity="1" /><path clip-path="url(#clip870)" d="M934.387 153.284 Q934.387 148.654 932.465 146.108 Q930.567 143.562 927.118 143.562 Q923.692 143.562 921.771 146.108 Q919.873 148.654 919.873 153.284 Q919.873 157.89 921.771 160.437 Q923.692 162.983 927.118 162.983 Q930.567 162.983 932.465 160.437 Q934.387 157.89 934.387 153.284 M938.646 163.33 Q938.646 169.951 935.706 173.168 Q932.766 176.409 926.701 176.409 Q924.456 176.409 922.465 176.062 Q920.475 175.738 918.6 175.043 L918.6 170.9 Q920.475 171.918 922.303 172.404 Q924.132 172.89 926.03 172.89 Q930.22 172.89 932.303 170.691 Q934.387 168.515 934.387 164.094 L934.387 161.988 Q933.067 164.279 931.007 165.414 Q928.947 166.548 926.076 166.548 Q921.308 166.548 918.391 162.914 Q915.475 159.279 915.475 153.284 Q915.475 147.266 918.391 143.631 Q921.308 139.997 926.076 139.997 Q928.947 139.997 931.007 141.131 Q933.067 142.266 934.387 144.557 L934.387 140.622 L938.646 140.622 L938.646 163.33 Z" fill="#000000" fill-rule="nonzero" fill-opacity="1" /><path clip-path="url(#clip870)" d="M969.595 152.52 L969.595 154.603 L950.011 154.603 Q950.289 159.002 952.65 161.316 Q955.035 163.608 959.271 163.608 Q961.724 163.608 964.016 163.006 Q966.331 162.404 968.599 161.201 L968.599 165.228 Q966.308 166.201 963.9 166.71 Q961.493 167.219 959.016 167.219 Q952.812 167.219 949.178 163.608 Q945.567 159.997 945.567 153.84 Q945.567 147.474 948.993 143.747 Q952.442 139.997 958.275 139.997 Q963.507 139.997 966.539 143.377 Q969.595 146.733 969.595 152.52 M965.335 151.27 Q965.289 147.775 963.368 145.691 Q961.47 143.608 958.322 143.608 Q954.757 143.608 952.604 145.622 Q950.474 147.636 950.15 151.293 L965.335 151.27 Z" fill="#000000" fill-rule="nonzero" fill-opacity="1" /><path clip-path="url(#clip870)" d="M993.113 141.386 L993.113 145.414 Q991.307 144.488 989.363 144.025 Q987.419 143.562 985.335 143.562 Q982.164 143.562 980.567 144.534 Q978.993 145.506 978.993 147.451 Q978.993 148.932 980.127 149.789 Q981.261 150.622 984.687 151.386 L986.145 151.71 Q990.683 152.682 992.581 154.465 Q994.502 156.224 994.502 159.395 Q994.502 163.006 991.632 165.113 Q988.784 167.219 983.784 167.219 Q981.701 167.219 979.433 166.802 Q977.187 166.409 974.687 165.599 L974.687 161.201 Q977.048 162.427 979.34 163.052 Q981.632 163.654 983.877 163.654 Q986.886 163.654 988.507 162.636 Q990.127 161.594 990.127 159.719 Q990.127 157.983 988.946 157.057 Q987.789 156.131 983.831 155.275 L982.349 154.928 Q978.391 154.094 976.632 152.381 Q974.872 150.645 974.872 147.636 Q974.872 143.978 977.465 141.988 Q980.058 139.997 984.826 139.997 Q987.187 139.997 989.27 140.344 Q991.354 140.691 993.113 141.386 Z" fill="#000000" fill-rule="nonzero" fill-opacity="1" /><path clip-path="url(#clip870)" d="M1000.61 130.576 L1004.32 130.576 Q1007.79 136.039 1009.5 141.27 Q1011.24 146.502 1011.24 151.664 Q1011.24 156.849 1009.5 162.103 Q1007.79 167.358 1004.32 172.798 L1000.61 172.798 Q1003.69 167.497 1005.2 162.265 Q1006.72 157.011 1006.72 151.664 Q1006.72 146.316 1005.2 141.108 Q1003.69 135.9 1000.61 130.576 Z" fill="#000000" fill-rule="nonzero" fill-opacity="1" /><path clip-path="url(#clip870)" d="M343.306 221.844 L483.5 221.844 L483.5 180.372 L343.306 180.372 L343.306 221.844  Z" fill="#e26f46" fill-rule="evenodd" fill-opacity="0.6"/>
<polyline clip-path="url(#clip870)" style="stroke:#e26f46; stroke-linecap:round; stroke-linejoin:round; stroke-width:4; stroke-opacity:0; fill:none" points="343.306,180.372 483.5,180.372 "/>
<path clip-path="url(#clip870)" d="M506.866 183.828 L513.833 183.828 L522.653 207.346 L531.518 183.828 L538.486 183.828 L538.486 218.388 L533.926 218.388 L533.926 188.041 L525.014 211.744 L520.315 211.744 L511.403 188.041 L511.403 218.388 L506.866 218.388 L506.866 183.828 Z" fill="#000000" fill-rule="nonzero" fill-opacity="1" /><path clip-path="url(#clip870)" d="M557.629 195.448 Q554.203 195.448 552.213 198.133 Q550.222 200.795 550.222 205.448 Q550.222 210.101 552.189 212.786 Q554.18 215.448 557.629 215.448 Q561.032 215.448 563.023 212.763 Q565.013 210.078 565.013 205.448 Q565.013 200.842 563.023 198.156 Q561.032 195.448 557.629 195.448 M557.629 191.837 Q563.185 191.837 566.356 195.448 Q569.527 199.059 569.527 205.448 Q569.527 211.814 566.356 215.448 Q563.185 219.059 557.629 219.059 Q552.051 219.059 548.879 215.448 Q545.731 211.814 545.731 205.448 Q545.731 199.059 548.879 195.448 Q552.051 191.837 557.629 191.837 Z" fill="#000000" fill-rule="nonzero" fill-opacity="1" /><path clip-path="url(#clip870)" d="M593.648 196.397 L593.648 182.369 L597.907 182.369 L597.907 218.388 L593.648 218.388 L593.648 214.499 Q592.305 216.814 590.245 217.948 Q588.208 219.059 585.337 219.059 Q580.638 219.059 577.675 215.309 Q574.736 211.559 574.736 205.448 Q574.736 199.337 577.675 195.587 Q580.638 191.837 585.337 191.837 Q588.208 191.837 590.245 192.971 Q592.305 194.082 593.648 196.397 M579.134 205.448 Q579.134 210.147 581.055 212.832 Q583 215.494 586.379 215.494 Q589.759 215.494 591.703 212.832 Q593.648 210.147 593.648 205.448 Q593.648 200.749 591.703 198.087 Q589.759 195.402 586.379 195.402 Q583 195.402 581.055 198.087 Q579.134 200.749 579.134 205.448 Z" fill="#000000" fill-rule="nonzero" fill-opacity="1" /><path clip-path="url(#clip870)" d="M628.856 204.36 L628.856 206.443 L609.273 206.443 Q609.55 210.842 611.911 213.156 Q614.296 215.448 618.532 215.448 Q620.985 215.448 623.277 214.846 Q625.592 214.244 627.86 213.041 L627.86 217.068 Q625.569 218.041 623.161 218.55 Q620.754 219.059 618.277 219.059 Q612.073 219.059 608.439 215.448 Q604.828 211.837 604.828 205.68 Q604.828 199.314 608.254 195.587 Q611.703 191.837 617.536 191.837 Q622.768 191.837 625.8 195.217 Q628.856 198.573 628.856 204.36 M624.597 203.11 Q624.55 199.615 622.629 197.531 Q620.731 195.448 617.583 195.448 Q614.018 195.448 611.865 197.462 Q609.735 199.476 609.411 203.133 L624.597 203.11 Z" fill="#000000" fill-rule="nonzero" fill-opacity="1" /><path clip-path="url(#clip870)" d="M635.846 182.369 L640.106 182.369 L640.106 218.388 L635.846 218.388 L635.846 182.369 Z" fill="#000000" fill-rule="nonzero" fill-opacity="1" /><path clip-path="url(#clip870)" d="M674.318 182.416 Q671.217 187.74 669.712 192.948 Q668.207 198.156 668.207 203.504 Q668.207 208.851 669.712 214.105 Q671.24 219.337 674.318 224.638 L670.615 224.638 Q667.143 219.198 665.406 213.943 Q663.694 208.689 663.694 203.504 Q663.694 198.342 665.406 193.11 Q667.119 187.879 670.615 182.416 L674.318 182.416 Z" fill="#000000" fill-rule="nonzero" fill-opacity="1" /><path clip-path="url(#clip870)" d="M693.763 199.244 Q690.615 199.244 688.763 201.397 Q686.934 203.55 686.934 207.3 Q686.934 211.027 688.763 213.203 Q690.615 215.355 693.763 215.355 Q696.911 215.355 698.74 213.203 Q700.591 211.027 700.591 207.3 Q700.591 203.55 698.74 201.397 Q696.911 199.244 693.763 199.244 M703.045 184.592 L703.045 188.851 Q701.286 188.018 699.48 187.578 Q697.698 187.138 695.939 187.138 Q691.309 187.138 688.855 190.263 Q686.425 193.388 686.078 199.707 Q687.443 197.693 689.504 196.629 Q691.564 195.541 694.041 195.541 Q699.249 195.541 702.258 198.712 Q705.291 201.86 705.291 207.3 Q705.291 212.624 702.142 215.842 Q698.994 219.059 693.763 219.059 Q687.767 219.059 684.596 214.476 Q681.425 209.869 681.425 201.143 Q681.425 192.948 685.314 188.087 Q689.203 183.203 695.754 183.203 Q697.513 183.203 699.295 183.55 Q701.101 183.897 703.045 184.592 Z" fill="#000000" fill-rule="nonzero" fill-opacity="1" /><path clip-path="url(#clip870)" d="M713.392 183.828 L731.749 183.828 L731.749 187.763 L717.675 187.763 L717.675 196.235 Q718.693 195.888 719.712 195.726 Q720.73 195.541 721.749 195.541 Q727.536 195.541 730.915 198.712 Q734.295 201.883 734.295 207.3 Q734.295 212.879 730.823 215.98 Q727.351 219.059 721.031 219.059 Q718.855 219.059 716.587 218.689 Q714.341 218.318 711.934 217.578 L711.934 212.879 Q714.017 214.013 716.24 214.568 Q718.462 215.124 720.939 215.124 Q724.943 215.124 727.281 213.017 Q729.619 210.911 729.619 207.3 Q729.619 203.689 727.281 201.582 Q724.943 199.476 720.939 199.476 Q719.064 199.476 717.189 199.893 Q715.337 200.309 713.392 201.189 L713.392 183.828 Z" fill="#000000" fill-rule="nonzero" fill-opacity="1" /><path clip-path="url(#clip870)" d="M743.508 212.508 L748.392 212.508 L748.392 218.388 L743.508 218.388 L743.508 212.508 Z" fill="#000000" fill-rule="nonzero" fill-opacity="1" /><path clip-path="url(#clip870)" d="M758.624 183.828 L776.98 183.828 L776.98 187.763 L762.906 187.763 L762.906 196.235 Q763.924 195.888 764.943 195.726 Q765.961 195.541 766.98 195.541 Q772.767 195.541 776.147 198.712 Q779.526 201.883 779.526 207.3 Q779.526 212.879 776.054 215.98 Q772.582 219.059 766.262 219.059 Q764.086 219.059 761.818 218.689 Q759.573 218.318 757.165 217.578 L757.165 212.879 Q759.249 214.013 761.471 214.568 Q763.693 215.124 766.17 215.124 Q770.174 215.124 772.512 213.017 Q774.85 210.911 774.85 207.3 Q774.85 203.689 772.512 201.582 Q770.174 199.476 766.17 199.476 Q764.295 199.476 762.42 199.893 Q760.568 200.309 758.624 201.189 L758.624 183.828 Z" fill="#000000" fill-rule="nonzero" fill-opacity="1" /><path clip-path="url(#clip870)" d="M789.549 214.453 L797.188 214.453 L797.188 188.087 L788.878 189.754 L788.878 185.494 L797.142 183.828 L801.818 183.828 L801.818 214.453 L809.457 214.453 L809.457 218.388 L789.549 218.388 L789.549 214.453 Z" fill="#000000" fill-rule="nonzero" fill-opacity="1" /><path clip-path="url(#clip870)" d="M831.748 187.902 L819.943 206.351 L831.748 206.351 L831.748 187.902 M830.521 183.828 L836.401 183.828 L836.401 206.351 L841.331 206.351 L841.331 210.24 L836.401 210.24 L836.401 218.388 L831.748 218.388 L831.748 210.24 L816.146 210.24 L816.146 205.726 L830.521 183.828 Z" fill="#000000" fill-rule="nonzero" fill-opacity="1" /><path clip-path="url(#clip870)" d="M880.868 188.666 L880.868 201.559 L893.762 201.559 L893.762 205.494 L880.868 205.494 L880.868 218.388 L876.979 218.388 L876.979 205.494 L864.086 205.494 L864.086 201.559 L876.979 201.559 L876.979 188.666 L880.868 188.666 Z" fill="#000000" fill-rule="nonzero" fill-opacity="1" /><path clip-path="url(#clip870)" d="M913.854 186.907 Q910.243 186.907 908.414 190.471 Q906.609 194.013 906.609 201.143 Q906.609 208.249 908.414 211.814 Q910.243 215.355 913.854 215.355 Q917.488 215.355 919.294 211.814 Q921.123 208.249 921.123 201.143 Q921.123 194.013 919.294 190.471 Q917.488 186.907 913.854 186.907 M913.854 183.203 Q919.664 183.203 922.72 187.809 Q925.799 192.393 925.799 201.143 Q925.799 209.869 922.72 214.476 Q919.664 219.059 913.854 219.059 Q908.044 219.059 904.965 214.476 Q901.91 209.869 901.91 201.143 Q901.91 192.393 904.965 187.809 Q908.044 183.203 913.854 183.203 Z" fill="#000000" fill-rule="nonzero" fill-opacity="1" /><path clip-path="url(#clip870)" d="M934.016 212.508 L938.9 212.508 L938.9 218.388 L934.016 218.388 L934.016 212.508 Z" fill="#000000" fill-rule="nonzero" fill-opacity="1" /><path clip-path="url(#clip870)" d="M949.896 214.453 L957.535 214.453 L957.535 188.087 L949.224 189.754 L949.224 185.494 L957.488 183.828 L962.164 183.828 L962.164 214.453 L969.803 214.453 L969.803 218.388 L949.896 218.388 L949.896 214.453 Z" fill="#000000" fill-rule="nonzero" fill-opacity="1" /><path clip-path="url(#clip870)" d="M980.058 214.453 L987.696 214.453 L987.696 188.087 L979.386 189.754 L979.386 185.494 L987.65 183.828 L992.326 183.828 L992.326 214.453 L999.965 214.453 L999.965 218.388 L980.058 218.388 L980.058 214.453 Z" fill="#000000" fill-rule="nonzero" fill-opacity="1" /><path clip-path="url(#clip870)" d="M1023.58 199.754 Q1026.93 200.471 1028.81 202.74 Q1030.71 205.008 1030.71 208.342 Q1030.71 213.457 1027.19 216.258 Q1023.67 219.059 1017.19 219.059 Q1015.01 219.059 1012.7 218.619 Q1010.4 218.203 1007.95 217.346 L1007.95 212.832 Q1009.9 213.967 1012.21 214.545 Q1014.52 215.124 1017.05 215.124 Q1021.45 215.124 1023.74 213.388 Q1026.05 211.652 1026.05 208.342 Q1026.05 205.286 1023.9 203.573 Q1021.77 201.837 1017.95 201.837 L1013.92 201.837 L1013.92 197.994 L1018.14 197.994 Q1021.59 197.994 1023.41 196.629 Q1025.24 195.24 1025.24 192.647 Q1025.24 189.985 1023.34 188.573 Q1021.47 187.138 1017.95 187.138 Q1016.03 187.138 1013.83 187.555 Q1011.63 187.971 1008.99 188.851 L1008.99 184.684 Q1011.65 183.944 1013.97 183.573 Q1016.31 183.203 1018.37 183.203 Q1023.69 183.203 1026.79 185.633 Q1029.9 188.041 1029.9 192.161 Q1029.9 195.031 1028.25 197.022 Q1026.61 198.99 1023.58 199.754 Z" fill="#000000" fill-rule="nonzero" fill-opacity="1" /><path clip-path="url(#clip870)" d="M1046.54 183.828 L1050.47 183.828 L1038.44 222.786 L1034.5 222.786 L1046.54 183.828 Z" fill="#000000" fill-rule="nonzero" fill-opacity="1" /><path clip-path="url(#clip870)" d="M1052.79 203.504 L1065.27 203.504 L1065.27 207.3 L1052.79 207.3 L1052.79 203.504 Z" fill="#000000" fill-rule="nonzero" fill-opacity="1" /><path clip-path="url(#clip870)" d="M1082.65 186.907 Q1079.04 186.907 1077.21 190.471 Q1075.4 194.013 1075.4 201.143 Q1075.4 208.249 1077.21 211.814 Q1079.04 215.355 1082.65 215.355 Q1086.28 215.355 1088.09 211.814 Q1089.92 208.249 1089.92 201.143 Q1089.92 194.013 1088.09 190.471 Q1086.28 186.907 1082.65 186.907 M1082.65 183.203 Q1088.46 183.203 1091.52 187.809 Q1094.59 192.393 1094.59 201.143 Q1094.59 209.869 1091.52 214.476 Q1088.46 219.059 1082.65 219.059 Q1076.84 219.059 1073.76 214.476 Q1070.71 209.869 1070.71 201.143 Q1070.71 192.393 1073.76 187.809 Q1076.84 183.203 1082.65 183.203 Z" fill="#000000" fill-rule="nonzero" fill-opacity="1" /><path clip-path="url(#clip870)" d="M1102.81 212.508 L1107.7 212.508 L1107.7 218.388 L1102.81 218.388 L1102.81 212.508 Z" fill="#000000" fill-rule="nonzero" fill-opacity="1" /><path clip-path="url(#clip870)" d="M1118.69 214.453 L1126.33 214.453 L1126.33 188.087 L1118.02 189.754 L1118.02 185.494 L1126.28 183.828 L1130.96 183.828 L1130.96 214.453 L1138.6 214.453 L1138.6 218.388 L1118.69 218.388 L1118.69 214.453 Z" fill="#000000" fill-rule="nonzero" fill-opacity="1" /><path clip-path="url(#clip870)" d="M1158.62 199.244 Q1155.47 199.244 1153.62 201.397 Q1151.79 203.55 1151.79 207.3 Q1151.79 211.027 1153.62 213.203 Q1155.47 215.355 1158.62 215.355 Q1161.77 215.355 1163.6 213.203 Q1165.45 211.027 1165.45 207.3 Q1165.45 203.55 1163.6 201.397 Q1161.77 199.244 1158.62 199.244 M1167.9 184.592 L1167.9 188.851 Q1166.14 188.018 1164.34 187.578 Q1162.56 187.138 1160.8 187.138 Q1156.17 187.138 1153.71 190.263 Q1151.28 193.388 1150.94 199.707 Q1152.3 197.693 1154.36 196.629 Q1156.42 195.541 1158.9 195.541 Q1164.11 195.541 1167.12 198.712 Q1170.15 201.86 1170.15 207.3 Q1170.15 212.624 1167 215.842 Q1163.85 219.059 1158.62 219.059 Q1152.63 219.059 1149.45 214.476 Q1146.28 209.869 1146.28 201.143 Q1146.28 192.948 1150.17 188.087 Q1154.06 183.203 1160.61 183.203 Q1162.37 183.203 1164.15 183.55 Q1165.96 183.897 1167.9 184.592 Z" fill="#000000" fill-rule="nonzero" fill-opacity="1" /><path clip-path="url(#clip870)" d="M1192.37 199.754 Q1195.73 200.471 1197.6 202.74 Q1199.5 205.008 1199.5 208.342 Q1199.5 213.457 1195.98 216.258 Q1192.46 219.059 1185.98 219.059 Q1183.81 219.059 1181.49 218.619 Q1179.2 218.203 1176.75 217.346 L1176.75 212.832 Q1178.69 213.967 1181.01 214.545 Q1183.32 215.124 1185.84 215.124 Q1190.24 215.124 1192.53 213.388 Q1194.85 211.652 1194.85 208.342 Q1194.85 205.286 1192.7 203.573 Q1190.57 201.837 1186.75 201.837 L1182.72 201.837 L1182.72 197.994 L1186.93 197.994 Q1190.38 197.994 1192.21 196.629 Q1194.04 195.24 1194.04 192.647 Q1194.04 189.985 1192.14 188.573 Q1190.26 187.138 1186.75 187.138 Q1184.82 187.138 1182.63 187.555 Q1180.43 187.971 1177.79 188.851 L1177.79 184.684 Q1180.45 183.944 1182.76 183.573 Q1185.1 183.203 1187.16 183.203 Q1192.49 183.203 1195.59 185.633 Q1198.69 188.041 1198.69 192.161 Q1198.69 195.031 1197.05 197.022 Q1195.4 198.99 1192.37 199.754 Z" fill="#000000" fill-rule="nonzero" fill-opacity="1" /><path clip-path="url(#clip870)" d="M1223.02 183.828 L1229.99 183.828 L1238.81 207.346 L1247.67 183.828 L1254.64 183.828 L1254.64 218.388 L1250.08 218.388 L1250.08 188.041 L1241.17 211.744 L1236.47 211.744 L1227.56 188.041 L1227.56 218.388 L1223.02 218.388 L1223.02 183.828 Z" fill="#000000" fill-rule="nonzero" fill-opacity="1" /><path clip-path="url(#clip870)" d="M1275.52 205.355 Q1270.36 205.355 1268.37 206.536 Q1266.38 207.717 1266.38 210.564 Q1266.38 212.832 1267.86 214.175 Q1269.36 215.494 1271.93 215.494 Q1275.47 215.494 1277.6 212.994 Q1279.76 210.471 1279.76 206.305 L1279.76 205.355 L1275.52 205.355 M1284.01 203.596 L1284.01 218.388 L1279.76 218.388 L1279.76 214.453 Q1278.3 216.814 1276.12 217.948 Q1273.94 219.059 1270.8 219.059 Q1266.82 219.059 1264.45 216.837 Q1262.12 214.592 1262.12 210.842 Q1262.12 206.467 1265.03 204.244 Q1267.97 202.022 1273.78 202.022 L1279.76 202.022 L1279.76 201.606 Q1279.76 198.666 1277.81 197.068 Q1275.89 195.448 1272.39 195.448 Q1270.17 195.448 1268.07 195.981 Q1265.96 196.513 1264.01 197.578 L1264.01 193.643 Q1266.35 192.74 1268.55 192.3 Q1270.75 191.837 1272.83 191.837 Q1278.46 191.837 1281.24 194.754 Q1284.01 197.67 1284.01 203.596 Z" fill="#000000" fill-rule="nonzero" fill-opacity="1" /><path clip-path="url(#clip870)" d="M1292.12 182.416 L1295.82 182.416 Q1299.29 187.879 1301 193.11 Q1302.74 198.342 1302.74 203.504 Q1302.74 208.689 1301 213.943 Q1299.29 219.198 1295.82 224.638 L1292.12 224.638 Q1295.19 219.337 1296.7 214.105 Q1298.23 208.851 1298.23 203.504 Q1298.23 198.156 1296.7 192.948 Q1295.19 187.74 1292.12 182.416 Z" fill="#000000" fill-rule="nonzero" fill-opacity="1" /></svg>
