<?xml version="1.0" encoding="utf-8"?>
<svg xmlns="http://www.w3.org/2000/svg" xmlns:xlink="http://www.w3.org/1999/xlink" width="600" height="400" viewBox="0 0 2400 1600">
<defs>
  <clipPath id="clip920">
    <rect x="0" y="0" width="2400" height="1600"/>
  </clipPath>
</defs>
<path clip-path="url(#clip920)" d="M0 1600 L2400 1600 L2400 8.88178e-14 L0 8.88178e-14  Z" fill="#ffffff" fill-rule="evenodd" fill-opacity="1"/>
<defs>
  <clipPath id="clip921">
    <rect x="249" y="47" width="2104" height="1507"/>
  </clipPath>
</defs>
<path clip-path="url(#clip920)" d="M175.445 1423.18 L2352.76 1423.18 L2352.76 47.2441 L175.445 47.2441  Z" fill="#ffffff" fill-rule="evenodd" fill-opacity="1"/>
<defs>
  <clipPath id="clip922">
    <rect x="175" y="47" width="2178" height="1377"/>
  </clipPath>
</defs>
<polyline clip-path="url(#clip922)" style="stroke:#000000; stroke-linecap:round; stroke-linejoin:round; stroke-width:2; stroke-opacity:0.1; fill:none" points="287.022,1423.18 287.022,47.2441 "/>
<polyline clip-path="url(#clip922)" style="stroke:#000000; stroke-linecap:round; stroke-linejoin:round; stroke-width:2; stroke-opacity:0.1; fill:none" points="551.018,1423.18 551.018,47.2441 "/>
<polyline clip-path="url(#clip922)" style="stroke:#000000; stroke-linecap:round; stroke-linejoin:round; stroke-width:2; stroke-opacity:0.1; fill:none" points="815.013,1423.18 815.013,47.2441 "/>
<polyline clip-path="url(#clip922)" style="stroke:#000000; stroke-linecap:round; stroke-linejoin:round; stroke-width:2; stroke-opacity:0.1; fill:none" points="1079.01,1423.18 1079.01,47.2441 "/>
<polyline clip-path="url(#clip922)" style="stroke:#000000; stroke-linecap:round; stroke-linejoin:round; stroke-width:2; stroke-opacity:0.1; fill:none" points="1343,1423.18 1343,47.2441 "/>
<polyline clip-path="url(#clip922)" style="stroke:#000000; stroke-linecap:round; stroke-linejoin:round; stroke-width:2; stroke-opacity:0.1; fill:none" points="1607,1423.18 1607,47.2441 "/>
<polyline clip-path="url(#clip922)" style="stroke:#000000; stroke-linecap:round; stroke-linejoin:round; stroke-width:2; stroke-opacity:0.1; fill:none" points="1870.99,1423.18 1870.99,47.2441 "/>
<polyline clip-path="url(#clip922)" style="stroke:#000000; stroke-linecap:round; stroke-linejoin:round; stroke-width:2; stroke-opacity:0.1; fill:none" points="2134.99,1423.18 2134.99,47.2441 "/>
<polyline clip-path="url(#clip922)" style="stroke:#000000; stroke-linecap:round; stroke-linejoin:round; stroke-width:2; stroke-opacity:0.1; fill:none" points="287.022,1423.18 287.022,47.2441 "/>
<polyline clip-path="url(#clip922)" style="stroke:#000000; stroke-linecap:round; stroke-linejoin:round; stroke-width:2; stroke-opacity:0.1; fill:none" points="551.018,1423.18 551.018,47.2441 "/>
<polyline clip-path="url(#clip922)" style="stroke:#000000; stroke-linecap:round; stroke-linejoin:round; stroke-width:2; stroke-opacity:0.1; fill:none" points="815.013,1423.18 815.013,47.2441 "/>
<polyline clip-path="url(#clip922)" style="stroke:#000000; stroke-linecap:round; stroke-linejoin:round; stroke-width:2; stroke-opacity:0.1; fill:none" points="1079.01,1423.18 1079.01,47.2441 "/>
<polyline clip-path="url(#clip922)" style="stroke:#000000; stroke-linecap:round; stroke-linejoin:round; stroke-width:2; stroke-opacity:0.1; fill:none" points="1343,1423.18 1343,47.2441 "/>
<polyline clip-path="url(#clip922)" style="stroke:#000000; stroke-linecap:round; stroke-linejoin:round; stroke-width:2; stroke-opacity:0.1; fill:none" points="1607,1423.18 1607,47.2441 "/>
<polyline clip-path="url(#clip922)" style="stroke:#000000; stroke-linecap:round; stroke-linejoin:round; stroke-width:2; stroke-opacity:0.1; fill:none" points="1870.99,1423.18 1870.99,47.2441 "/>
<polyline clip-path="url(#clip922)" style="stroke:#000000; stroke-linecap:round; stroke-linejoin:round; stroke-width:2; stroke-opacity:0.1; fill:none" points="2134.99,1423.18 2134.99,47.2441 "/>
<polyline clip-path="url(#clip922)" style="stroke:#000000; stroke-linecap:round; stroke-linejoin:round; stroke-width:2; stroke-opacity:0.1; fill:none" points="175.445,1384.24 2352.76,1384.24 "/>
<polyline clip-path="url(#clip922)" style="stroke:#000000; stroke-linecap:round; stroke-linejoin:round; stroke-width:2; stroke-opacity:0.1; fill:none" points="175.445,1032.88 2352.76,1032.88 "/>
<polyline clip-path="url(#clip922)" style="stroke:#000000; stroke-linecap:round; stroke-linejoin:round; stroke-width:2; stroke-opacity:0.1; fill:none" points="175.445,681.524 2352.76,681.524 "/>
<polyline clip-path="url(#clip922)" style="stroke:#000000; stroke-linecap:round; stroke-linejoin:round; stroke-width:2; stroke-opacity:0.1; fill:none" points="175.445,330.167 2352.76,330.167 "/>
<polyline clip-path="url(#clip922)" style="stroke:#000000; stroke-linecap:round; stroke-linejoin:round; stroke-width:2; stroke-opacity:0.1; fill:none" points="175.445,1384.24 2352.76,1384.24 "/>
<polyline clip-path="url(#clip922)" style="stroke:#000000; stroke-linecap:round; stroke-linejoin:round; stroke-width:2; stroke-opacity:0.1; fill:none" points="175.445,1032.88 2352.76,1032.88 "/>
<polyline clip-path="url(#clip922)" style="stroke:#000000; stroke-linecap:round; stroke-linejoin:round; stroke-width:2; stroke-opacity:0.1; fill:none" points="175.445,681.524 2352.76,681.524 "/>
<polyline clip-path="url(#clip922)" style="stroke:#000000; stroke-linecap:round; stroke-linejoin:round; stroke-width:2; stroke-opacity:0.1; fill:none" points="175.445,330.167 2352.76,330.167 "/>
<polyline clip-path="url(#clip920)" style="stroke:#000000; stroke-linecap:round; stroke-linejoin:round; stroke-width:4; stroke-opacity:1; fill:none" points="175.445,1423.18 2352.76,1423.18 "/>
<polyline clip-path="url(#clip920)" style="stroke:#000000; stroke-linecap:round; stroke-linejoin:round; stroke-width:4; stroke-opacity:1; fill:none" points="175.445,47.2441 2352.76,47.2441 "/>
<polyline clip-path="url(#clip920)" style="stroke:#000000; stroke-linecap:round; stroke-linejoin:round; stroke-width:4; stroke-opacity:1; fill:none" points="287.022,1423.18 287.022,1404.28 "/>
<polyline clip-path="url(#clip920)" style="stroke:#000000; stroke-linecap:round; stroke-linejoin:round; stroke-width:4; stroke-opacity:1; fill:none" points="551.018,1423.18 551.018,1404.28 "/>
<polyline clip-path="url(#clip920)" style="stroke:#000000; stroke-linecap:round; stroke-linejoin:round; stroke-width:4; stroke-opacity:1; fill:none" points="815.013,1423.18 815.013,1404.28 "/>
<polyline clip-path="url(#clip920)" style="stroke:#000000; stroke-linecap:round; stroke-linejoin:round; stroke-width:4; stroke-opacity:1; fill:none" points="1079.01,1423.18 1079.01,1404.28 "/>
<polyline clip-path="url(#clip920)" style="stroke:#000000; stroke-linecap:round; stroke-linejoin:round; stroke-width:4; stroke-opacity:1; fill:none" points="1343,1423.18 1343,1404.28 "/>
<polyline clip-path="url(#clip920)" style="stroke:#000000; stroke-linecap:round; stroke-linejoin:round; stroke-width:4; stroke-opacity:1; fill:none" points="1607,1423.18 1607,1404.28 "/>
<polyline clip-path="url(#clip920)" style="stroke:#000000; stroke-linecap:round; stroke-linejoin:round; stroke-width:4; stroke-opacity:1; fill:none" points="1870.99,1423.18 1870.99,1404.28 "/>
<polyline clip-path="url(#clip920)" style="stroke:#000000; stroke-linecap:round; stroke-linejoin:round; stroke-width:4; stroke-opacity:1; fill:none" points="2134.99,1423.18 2134.99,1404.28 "/>
<polyline clip-path="url(#clip920)" style="stroke:#000000; stroke-linecap:round; stroke-linejoin:round; stroke-width:4; stroke-opacity:1; fill:none" points="287.022,47.2441 287.022,66.1417 "/>
<polyline clip-path="url(#clip920)" style="stroke:#000000; stroke-linecap:round; stroke-linejoin:round; stroke-width:4; stroke-opacity:1; fill:none" points="551.018,47.2441 551.018,66.1417 "/>
<polyline clip-path="url(#clip920)" style="stroke:#000000; stroke-linecap:round; stroke-linejoin:round; stroke-width:4; stroke-opacity:1; fill:none" points="815.013,47.2441 815.013,66.1417 "/>
<polyline clip-path="url(#clip920)" style="stroke:#000000; stroke-linecap:round; stroke-linejoin:round; stroke-width:4; stroke-opacity:1; fill:none" points="1079.01,47.2441 1079.01,66.1417 "/>
<polyline clip-path="url(#clip920)" style="stroke:#000000; stroke-linecap:round; stroke-linejoin:round; stroke-width:4; stroke-opacity:1; fill:none" points="1343,47.2441 1343,66.1417 "/>
<polyline clip-path="url(#clip920)" style="stroke:#000000; stroke-linecap:round; stroke-linejoin:round; stroke-width:4; stroke-opacity:1; fill:none" points="1607,47.2441 1607,66.1417 "/>
<polyline clip-path="url(#clip920)" style="stroke:#000000; stroke-linecap:round; stroke-linejoin:round; stroke-width:4; stroke-opacity:1; fill:none" points="1870.99,47.2441 1870.99,66.1417 "/>
<polyline clip-path="url(#clip920)" style="stroke:#000000; stroke-linecap:round; stroke-linejoin:round; stroke-width:4; stroke-opacity:1; fill:none" points="2134.99,47.2441 2134.99,66.1417 "/>
<path clip-path="url(#clip920)" d="M250.61 1466.44 Q247.462 1466.44 245.61 1468.59 Q243.782 1470.74 243.782 1474.49 Q243.782 1478.22 245.61 1480.39 Q247.462 1482.55 250.61 1482.55 Q253.759 1482.55 255.587 1480.39 Q257.439 1478.22 257.439 1474.49 Q257.439 1470.74 255.587 1468.59 Q253.759 1466.44 250.61 1466.44 M259.893 1451.78 L259.893 1456.04 Q258.134 1455.21 256.328 1454.77 Q254.546 1454.33 252.786 1454.33 Q248.157 1454.33 245.703 1457.45 Q243.272 1460.58 242.925 1466.9 Q244.291 1464.89 246.351 1463.82 Q248.411 1462.73 250.888 1462.73 Q256.096 1462.73 259.106 1465.9 Q262.138 1469.05 262.138 1474.49 Q262.138 1479.82 258.99 1483.03 Q255.842 1486.25 250.61 1486.25 Q244.615 1486.25 241.444 1481.67 Q238.273 1477.06 238.273 1468.33 Q238.273 1460.14 242.161 1455.28 Q246.05 1450.39 252.601 1450.39 Q254.36 1450.39 256.143 1450.74 Q257.948 1451.09 259.893 1451.78 Z" fill="#000000" fill-rule="nonzero" fill-opacity="1" /><path clip-path="url(#clip920)" d="M283.041 1455.09 L271.235 1473.54 L283.041 1473.54 L283.041 1455.09 M281.814 1451.02 L287.694 1451.02 L287.694 1473.54 L292.624 1473.54 L292.624 1477.43 L287.694 1477.43 L287.694 1485.58 L283.041 1485.58 L283.041 1477.43 L267.439 1477.43 L267.439 1472.92 L281.814 1451.02 Z" fill="#000000" fill-rule="nonzero" fill-opacity="1" /><path clip-path="url(#clip920)" d="M300.356 1479.7 L305.24 1479.7 L305.24 1485.58 L300.356 1485.58 L300.356 1479.7 Z" fill="#000000" fill-rule="nonzero" fill-opacity="1" /><path clip-path="url(#clip920)" d="M319.453 1481.64 L335.772 1481.64 L335.772 1485.58 L313.828 1485.58 L313.828 1481.64 Q316.49 1478.89 321.073 1474.26 Q325.679 1469.61 326.86 1468.27 Q329.105 1465.74 329.985 1464.01 Q330.888 1462.25 330.888 1460.56 Q330.888 1457.8 328.943 1456.07 Q327.022 1454.33 323.92 1454.33 Q321.721 1454.33 319.267 1455.09 Q316.837 1455.86 314.059 1457.41 L314.059 1452.69 Q316.883 1451.55 319.337 1450.97 Q321.791 1450.39 323.828 1450.39 Q329.198 1450.39 332.392 1453.08 Q335.587 1455.77 335.587 1460.26 Q335.587 1462.39 334.777 1464.31 Q333.99 1466.2 331.883 1468.8 Q331.304 1469.47 328.203 1472.69 Q325.101 1475.88 319.453 1481.64 Z" fill="#000000" fill-rule="nonzero" fill-opacity="1" /><path clip-path="url(#clip920)" d="M513.564 1466.44 Q510.416 1466.44 508.564 1468.59 Q506.735 1470.74 506.735 1474.49 Q506.735 1478.22 508.564 1480.39 Q510.416 1482.55 513.564 1482.55 Q516.712 1482.55 518.541 1480.39 Q520.393 1478.22 520.393 1474.49 Q520.393 1470.74 518.541 1468.59 Q516.712 1466.44 513.564 1466.44 M522.846 1451.78 L522.846 1456.04 Q521.087 1455.21 519.282 1454.77 Q517.499 1454.33 515.74 1454.33 Q511.11 1454.33 508.657 1457.45 Q506.226 1460.58 505.879 1466.9 Q507.245 1464.89 509.305 1463.82 Q511.365 1462.73 513.842 1462.73 Q519.05 1462.73 522.059 1465.9 Q525.092 1469.05 525.092 1474.49 Q525.092 1479.82 521.944 1483.03 Q518.796 1486.25 513.564 1486.25 Q507.569 1486.25 504.397 1481.67 Q501.226 1477.06 501.226 1468.33 Q501.226 1460.14 505.115 1455.28 Q509.004 1450.39 515.555 1450.39 Q517.314 1450.39 519.096 1450.74 Q520.902 1451.09 522.846 1451.78 Z" fill="#000000" fill-rule="nonzero" fill-opacity="1" /><path clip-path="url(#clip920)" d="M545.994 1455.09 L534.189 1473.54 L545.994 1473.54 L545.994 1455.09 M544.768 1451.02 L550.647 1451.02 L550.647 1473.54 L555.578 1473.54 L555.578 1477.43 L550.647 1477.43 L550.647 1485.58 L545.994 1485.58 L545.994 1477.43 L530.393 1477.43 L530.393 1472.92 L544.768 1451.02 Z" fill="#000000" fill-rule="nonzero" fill-opacity="1" /><path clip-path="url(#clip920)" d="M563.309 1479.7 L568.193 1479.7 L568.193 1485.58 L563.309 1485.58 L563.309 1479.7 Z" fill="#000000" fill-rule="nonzero" fill-opacity="1" /><path clip-path="url(#clip920)" d="M591.226 1455.09 L579.42 1473.54 L591.226 1473.54 L591.226 1455.09 M589.999 1451.02 L595.878 1451.02 L595.878 1473.54 L600.809 1473.54 L600.809 1477.43 L595.878 1477.43 L595.878 1485.58 L591.226 1485.58 L591.226 1477.43 L575.624 1477.43 L575.624 1472.92 L589.999 1451.02 Z" fill="#000000" fill-rule="nonzero" fill-opacity="1" /><path clip-path="url(#clip920)" d="M777.721 1466.44 Q774.573 1466.44 772.721 1468.59 Q770.893 1470.74 770.893 1474.49 Q770.893 1478.22 772.721 1480.39 Q774.573 1482.55 777.721 1482.55 Q780.87 1482.55 782.698 1480.39 Q784.55 1478.22 784.55 1474.49 Q784.55 1470.74 782.698 1468.59 Q780.87 1466.44 777.721 1466.44 M787.004 1451.78 L787.004 1456.04 Q785.245 1455.21 783.439 1454.77 Q781.657 1454.33 779.897 1454.33 Q775.268 1454.33 772.814 1457.45 Q770.384 1460.58 770.036 1466.9 Q771.402 1464.89 773.462 1463.82 Q775.522 1462.73 777.999 1462.73 Q783.208 1462.73 786.217 1465.9 Q789.249 1469.05 789.249 1474.49 Q789.249 1479.82 786.101 1483.03 Q782.953 1486.25 777.721 1486.25 Q771.726 1486.25 768.555 1481.67 Q765.384 1477.06 765.384 1468.33 Q765.384 1460.14 769.272 1455.28 Q773.161 1450.39 779.712 1450.39 Q781.471 1450.39 783.254 1450.74 Q785.059 1451.09 787.004 1451.78 Z" fill="#000000" fill-rule="nonzero" fill-opacity="1" /><path clip-path="url(#clip920)" d="M810.152 1455.09 L798.346 1473.54 L810.152 1473.54 L810.152 1455.09 M808.925 1451.02 L814.805 1451.02 L814.805 1473.54 L819.735 1473.54 L819.735 1477.43 L814.805 1477.43 L814.805 1485.58 L810.152 1485.58 L810.152 1477.43 L794.55 1477.43 L794.55 1472.92 L808.925 1451.02 Z" fill="#000000" fill-rule="nonzero" fill-opacity="1" /><path clip-path="url(#clip920)" d="M827.467 1479.7 L832.351 1479.7 L832.351 1485.58 L827.467 1485.58 L827.467 1479.7 Z" fill="#000000" fill-rule="nonzero" fill-opacity="1" /><path clip-path="url(#clip920)" d="M853.115 1466.44 Q849.966 1466.44 848.115 1468.59 Q846.286 1470.74 846.286 1474.49 Q846.286 1478.22 848.115 1480.39 Q849.966 1482.55 853.115 1482.55 Q856.263 1482.55 858.091 1480.39 Q859.943 1478.22 859.943 1474.49 Q859.943 1470.74 858.091 1468.59 Q856.263 1466.44 853.115 1466.44 M862.397 1451.78 L862.397 1456.04 Q860.638 1455.21 858.832 1454.77 Q857.05 1454.33 855.29 1454.33 Q850.661 1454.33 848.207 1457.45 Q845.777 1460.58 845.429 1466.9 Q846.795 1464.89 848.855 1463.82 Q850.915 1462.73 853.392 1462.73 Q858.601 1462.73 861.61 1465.9 Q864.642 1469.05 864.642 1474.49 Q864.642 1479.82 861.494 1483.03 Q858.346 1486.25 853.115 1486.25 Q847.119 1486.25 843.948 1481.67 Q840.777 1477.06 840.777 1468.33 Q840.777 1460.14 844.666 1455.28 Q848.554 1450.39 855.105 1450.39 Q856.865 1450.39 858.647 1450.74 Q860.452 1451.09 862.397 1451.78 Z" fill="#000000" fill-rule="nonzero" fill-opacity="1" /><path clip-path="url(#clip920)" d="M1041.84 1466.44 Q1038.7 1466.44 1036.84 1468.59 Q1035.02 1470.74 1035.02 1474.49 Q1035.02 1478.22 1036.84 1480.39 Q1038.7 1482.55 1041.84 1482.55 Q1044.99 1482.55 1046.82 1480.39 Q1048.67 1478.22 1048.67 1474.49 Q1048.67 1470.74 1046.82 1468.59 Q1044.99 1466.44 1041.84 1466.44 M1051.13 1451.78 L1051.13 1456.04 Q1049.37 1455.21 1047.56 1454.77 Q1045.78 1454.33 1044.02 1454.33 Q1039.39 1454.33 1036.94 1457.45 Q1034.51 1460.58 1034.16 1466.9 Q1035.52 1464.89 1037.58 1463.82 Q1039.65 1462.73 1042.12 1462.73 Q1047.33 1462.73 1050.34 1465.9 Q1053.37 1469.05 1053.37 1474.49 Q1053.37 1479.82 1050.22 1483.03 Q1047.08 1486.25 1041.84 1486.25 Q1035.85 1486.25 1032.68 1481.67 Q1029.51 1477.06 1029.51 1468.33 Q1029.51 1460.14 1033.4 1455.28 Q1037.28 1450.39 1043.83 1450.39 Q1045.59 1450.39 1047.38 1450.74 Q1049.18 1451.09 1051.13 1451.78 Z" fill="#000000" fill-rule="nonzero" fill-opacity="1" /><path clip-path="url(#clip920)" d="M1074.27 1455.09 L1062.47 1473.54 L1074.27 1473.54 L1074.27 1455.09 M1073.05 1451.02 L1078.93 1451.02 L1078.93 1473.54 L1083.86 1473.54 L1083.86 1477.43 L1078.93 1477.43 L1078.93 1485.58 L1074.27 1485.58 L1074.27 1477.43 L1058.67 1477.43 L1058.67 1472.92 L1073.05 1451.02 Z" fill="#000000" fill-rule="nonzero" fill-opacity="1" /><path clip-path="url(#clip920)" d="M1091.59 1479.7 L1096.47 1479.7 L1096.47 1485.58 L1091.59 1485.58 L1091.59 1479.7 Z" fill="#000000" fill-rule="nonzero" fill-opacity="1" /><path clip-path="url(#clip920)" d="M1116.66 1469.17 Q1113.33 1469.17 1111.4 1470.95 Q1109.51 1472.73 1109.51 1475.86 Q1109.51 1478.98 1111.4 1480.77 Q1113.33 1482.55 1116.66 1482.55 Q1119.99 1482.55 1121.91 1480.77 Q1123.83 1478.96 1123.83 1475.86 Q1123.83 1472.73 1121.91 1470.95 Q1120.01 1469.17 1116.66 1469.17 M1111.98 1467.18 Q1108.97 1466.44 1107.28 1464.38 Q1105.62 1462.32 1105.62 1459.35 Q1105.62 1455.21 1108.56 1452.8 Q1111.52 1450.39 1116.66 1450.39 Q1121.82 1450.39 1124.76 1452.8 Q1127.7 1455.21 1127.7 1459.35 Q1127.7 1462.32 1126.01 1464.38 Q1124.34 1466.44 1121.36 1467.18 Q1124.74 1467.96 1126.61 1470.26 Q1128.51 1472.55 1128.51 1475.86 Q1128.51 1480.88 1125.43 1483.57 Q1122.38 1486.25 1116.66 1486.25 Q1110.94 1486.25 1107.86 1483.57 Q1104.81 1480.88 1104.81 1475.86 Q1104.81 1472.55 1106.7 1470.26 Q1108.6 1467.96 1111.98 1467.18 M1110.27 1459.79 Q1110.27 1462.48 1111.94 1463.98 Q1113.63 1465.49 1116.66 1465.49 Q1119.67 1465.49 1121.36 1463.98 Q1123.07 1462.48 1123.07 1459.79 Q1123.07 1457.11 1121.36 1455.6 Q1119.67 1454.1 1116.66 1454.1 Q1113.63 1454.1 1111.94 1455.6 Q1110.27 1457.11 1110.27 1459.79 Z" fill="#000000" fill-rule="nonzero" fill-opacity="1" /><path clip-path="url(#clip920)" d="M1305.79 1466.44 Q1302.64 1466.44 1300.79 1468.59 Q1298.96 1470.74 1298.96 1474.49 Q1298.96 1478.22 1300.79 1480.39 Q1302.64 1482.55 1305.79 1482.55 Q1308.94 1482.55 1310.77 1480.39 Q1312.62 1478.22 1312.62 1474.49 Q1312.62 1470.74 1310.77 1468.59 Q1308.94 1466.44 1305.79 1466.44 M1315.08 1451.78 L1315.08 1456.04 Q1313.32 1455.21 1311.51 1454.77 Q1309.73 1454.33 1307.97 1454.33 Q1303.34 1454.33 1300.89 1457.45 Q1298.46 1460.58 1298.11 1466.9 Q1299.47 1464.89 1301.53 1463.82 Q1303.59 1462.73 1306.07 1462.73 Q1311.28 1462.73 1314.29 1465.9 Q1317.32 1469.05 1317.32 1474.49 Q1317.32 1479.82 1314.17 1483.03 Q1311.02 1486.25 1305.79 1486.25 Q1299.8 1486.25 1296.63 1481.67 Q1293.46 1477.06 1293.46 1468.33 Q1293.46 1460.14 1297.34 1455.28 Q1301.23 1450.39 1307.78 1450.39 Q1309.54 1450.39 1311.33 1450.74 Q1313.13 1451.09 1315.08 1451.78 Z" fill="#000000" fill-rule="nonzero" fill-opacity="1" /><path clip-path="url(#clip920)" d="M1325.42 1451.02 L1343.78 1451.02 L1343.78 1454.96 L1329.71 1454.96 L1329.71 1463.43 Q1330.72 1463.08 1331.74 1462.92 Q1332.76 1462.73 1333.78 1462.73 Q1339.57 1462.73 1342.95 1465.9 Q1346.33 1469.08 1346.33 1474.49 Q1346.33 1480.07 1342.85 1483.17 Q1339.38 1486.25 1333.06 1486.25 Q1330.89 1486.25 1328.62 1485.88 Q1326.37 1485.51 1323.96 1484.77 L1323.96 1480.07 Q1326.05 1481.2 1328.27 1481.76 Q1330.49 1482.32 1332.97 1482.32 Q1336.97 1482.32 1339.31 1480.21 Q1341.65 1478.1 1341.65 1474.49 Q1341.65 1470.88 1339.31 1468.77 Q1336.97 1466.67 1332.97 1466.67 Q1331.09 1466.67 1329.22 1467.08 Q1327.37 1467.5 1325.42 1468.38 L1325.42 1451.02 Z" fill="#000000" fill-rule="nonzero" fill-opacity="1" /><path clip-path="url(#clip920)" d="M1355.54 1479.7 L1360.42 1479.7 L1360.42 1485.58 L1355.54 1485.58 L1355.54 1479.7 Z" fill="#000000" fill-rule="nonzero" fill-opacity="1" /><path clip-path="url(#clip920)" d="M1380.61 1454.1 Q1377 1454.1 1375.17 1457.66 Q1373.36 1461.2 1373.36 1468.33 Q1373.36 1475.44 1375.17 1479.01 Q1377 1482.55 1380.61 1482.55 Q1384.24 1482.55 1386.05 1479.01 Q1387.88 1475.44 1387.88 1468.33 Q1387.88 1461.2 1386.05 1457.66 Q1384.24 1454.1 1380.61 1454.1 M1380.61 1450.39 Q1386.42 1450.39 1389.47 1455 Q1392.55 1459.58 1392.55 1468.33 Q1392.55 1477.06 1389.47 1481.67 Q1386.42 1486.25 1380.61 1486.25 Q1374.8 1486.25 1371.72 1481.67 Q1368.66 1477.06 1368.66 1468.33 Q1368.66 1459.58 1371.72 1455 Q1374.8 1450.39 1380.61 1450.39 Z" fill="#000000" fill-rule="nonzero" fill-opacity="1" /><path clip-path="url(#clip920)" d="M1570.59 1466.44 Q1567.44 1466.44 1565.59 1468.59 Q1563.76 1470.74 1563.76 1474.49 Q1563.76 1478.22 1565.59 1480.39 Q1567.44 1482.55 1570.59 1482.55 Q1573.74 1482.55 1575.56 1480.39 Q1577.42 1478.22 1577.42 1474.49 Q1577.42 1470.74 1575.56 1468.59 Q1573.74 1466.44 1570.59 1466.44 M1579.87 1451.78 L1579.87 1456.04 Q1578.11 1455.21 1576.3 1454.77 Q1574.52 1454.33 1572.76 1454.33 Q1568.13 1454.33 1565.68 1457.45 Q1563.25 1460.58 1562.9 1466.9 Q1564.27 1464.89 1566.33 1463.82 Q1568.39 1462.73 1570.86 1462.73 Q1576.07 1462.73 1579.08 1465.9 Q1582.11 1469.05 1582.11 1474.49 Q1582.11 1479.82 1578.97 1483.03 Q1575.82 1486.25 1570.59 1486.25 Q1564.59 1486.25 1561.42 1481.67 Q1558.25 1477.06 1558.25 1468.33 Q1558.25 1460.14 1562.14 1455.28 Q1566.03 1450.39 1572.58 1450.39 Q1574.34 1450.39 1576.12 1450.74 Q1577.92 1451.09 1579.87 1451.78 Z" fill="#000000" fill-rule="nonzero" fill-opacity="1" /><path clip-path="url(#clip920)" d="M1590.22 1451.02 L1608.57 1451.02 L1608.57 1454.96 L1594.5 1454.96 L1594.5 1463.43 Q1595.52 1463.08 1596.54 1462.92 Q1597.55 1462.73 1598.57 1462.73 Q1604.36 1462.73 1607.74 1465.9 Q1611.12 1469.08 1611.12 1474.49 Q1611.12 1480.07 1607.65 1483.17 Q1604.17 1486.25 1597.86 1486.25 Q1595.68 1486.25 1593.41 1485.88 Q1591.17 1485.51 1588.76 1484.77 L1588.76 1480.07 Q1590.84 1481.2 1593.06 1481.76 Q1595.29 1482.32 1597.76 1482.32 Q1601.77 1482.32 1604.11 1480.21 Q1606.44 1478.1 1606.44 1474.49 Q1606.44 1470.88 1604.11 1468.77 Q1601.77 1466.67 1597.76 1466.67 Q1595.89 1466.67 1594.01 1467.08 Q1592.16 1467.5 1590.22 1468.38 L1590.22 1451.02 Z" fill="#000000" fill-rule="nonzero" fill-opacity="1" /><path clip-path="url(#clip920)" d="M1620.33 1479.7 L1625.22 1479.7 L1625.22 1485.58 L1620.33 1485.58 L1620.33 1479.7 Z" fill="#000000" fill-rule="nonzero" fill-opacity="1" /><path clip-path="url(#clip920)" d="M1639.43 1481.64 L1655.75 1481.64 L1655.75 1485.58 L1633.8 1485.58 L1633.8 1481.64 Q1636.47 1478.89 1641.05 1474.26 Q1645.66 1469.61 1646.84 1468.27 Q1649.08 1465.74 1649.96 1464.01 Q1650.86 1462.25 1650.86 1460.56 Q1650.86 1457.8 1648.92 1456.07 Q1647 1454.33 1643.9 1454.33 Q1641.7 1454.33 1639.24 1455.09 Q1636.81 1455.86 1634.04 1457.41 L1634.04 1452.69 Q1636.86 1451.55 1639.31 1450.97 Q1641.77 1450.39 1643.8 1450.39 Q1649.17 1450.39 1652.37 1453.08 Q1655.56 1455.77 1655.56 1460.26 Q1655.56 1462.39 1654.75 1464.31 Q1653.97 1466.2 1651.86 1468.8 Q1651.28 1469.47 1648.18 1472.69 Q1645.08 1475.88 1639.43 1481.64 Z" fill="#000000" fill-rule="nonzero" fill-opacity="1" /><path clip-path="url(#clip920)" d="M1833.54 1466.44 Q1830.39 1466.44 1828.54 1468.59 Q1826.71 1470.74 1826.71 1474.49 Q1826.71 1478.22 1828.54 1480.39 Q1830.39 1482.55 1833.54 1482.55 Q1836.69 1482.55 1838.52 1480.39 Q1840.37 1478.22 1840.37 1474.49 Q1840.37 1470.74 1838.52 1468.59 Q1836.69 1466.44 1833.54 1466.44 M1842.82 1451.78 L1842.82 1456.04 Q1841.06 1455.21 1839.26 1454.77 Q1837.48 1454.33 1835.72 1454.33 Q1831.09 1454.33 1828.63 1457.45 Q1826.2 1460.58 1825.86 1466.9 Q1827.22 1464.89 1829.28 1463.82 Q1831.34 1462.73 1833.82 1462.73 Q1839.03 1462.73 1842.04 1465.9 Q1845.07 1469.05 1845.07 1474.49 Q1845.07 1479.82 1841.92 1483.03 Q1838.77 1486.25 1833.54 1486.25 Q1827.55 1486.25 1824.37 1481.67 Q1821.2 1477.06 1821.2 1468.33 Q1821.2 1460.14 1825.09 1455.28 Q1828.98 1450.39 1835.53 1450.39 Q1837.29 1450.39 1839.07 1450.74 Q1840.88 1451.09 1842.82 1451.78 Z" fill="#000000" fill-rule="nonzero" fill-opacity="1" /><path clip-path="url(#clip920)" d="M1853.17 1451.02 L1871.53 1451.02 L1871.53 1454.96 L1857.45 1454.96 L1857.45 1463.43 Q1858.47 1463.08 1859.49 1462.92 Q1860.51 1462.73 1861.53 1462.73 Q1867.31 1462.73 1870.69 1465.9 Q1874.07 1469.08 1874.07 1474.49 Q1874.07 1480.07 1870.6 1483.17 Q1867.13 1486.25 1860.81 1486.25 Q1858.63 1486.25 1856.36 1485.88 Q1854.12 1485.51 1851.71 1484.77 L1851.71 1480.07 Q1853.8 1481.2 1856.02 1481.76 Q1858.24 1482.32 1860.72 1482.32 Q1864.72 1482.32 1867.06 1480.21 Q1869.4 1478.1 1869.4 1474.49 Q1869.4 1470.88 1867.06 1468.77 Q1864.72 1466.67 1860.72 1466.67 Q1858.84 1466.67 1856.97 1467.08 Q1855.11 1467.5 1853.17 1468.38 L1853.17 1451.02 Z" fill="#000000" fill-rule="nonzero" fill-opacity="1" /><path clip-path="url(#clip920)" d="M1883.29 1479.7 L1888.17 1479.7 L1888.17 1485.58 L1883.29 1485.58 L1883.29 1479.7 Z" fill="#000000" fill-rule="nonzero" fill-opacity="1" /><path clip-path="url(#clip920)" d="M1911.2 1455.09 L1899.4 1473.54 L1911.2 1473.54 L1911.2 1455.09 M1909.98 1451.02 L1915.86 1451.02 L1915.86 1473.54 L1920.79 1473.54 L1920.79 1477.43 L1915.86 1477.43 L1915.86 1485.58 L1911.2 1485.58 L1911.2 1477.43 L1895.6 1477.43 L1895.6 1472.92 L1909.98 1451.02 Z" fill="#000000" fill-rule="nonzero" fill-opacity="1" /><path clip-path="url(#clip920)" d="M2097.7 1466.44 Q2094.55 1466.44 2092.7 1468.59 Q2090.87 1470.74 2090.87 1474.49 Q2090.87 1478.22 2092.7 1480.39 Q2094.55 1482.55 2097.7 1482.55 Q2100.85 1482.55 2102.67 1480.39 Q2104.53 1478.22 2104.53 1474.49 Q2104.53 1470.74 2102.67 1468.59 Q2100.85 1466.44 2097.7 1466.44 M2106.98 1451.78 L2106.98 1456.04 Q2105.22 1455.21 2103.42 1454.77 Q2101.63 1454.33 2099.87 1454.33 Q2095.24 1454.33 2092.79 1457.45 Q2090.36 1460.58 2090.01 1466.9 Q2091.38 1464.89 2093.44 1463.82 Q2095.5 1462.73 2097.98 1462.73 Q2103.18 1462.73 2106.19 1465.9 Q2109.23 1469.05 2109.23 1474.49 Q2109.23 1479.82 2106.08 1483.03 Q2102.93 1486.25 2097.7 1486.25 Q2091.7 1486.25 2088.53 1481.67 Q2085.36 1477.06 2085.36 1468.33 Q2085.36 1460.14 2089.25 1455.28 Q2093.14 1450.39 2099.69 1450.39 Q2101.45 1450.39 2103.23 1450.74 Q2105.04 1451.09 2106.98 1451.78 Z" fill="#000000" fill-rule="nonzero" fill-opacity="1" /><path clip-path="url(#clip920)" d="M2117.33 1451.02 L2135.68 1451.02 L2135.68 1454.96 L2121.61 1454.96 L2121.61 1463.43 Q2122.63 1463.08 2123.65 1462.92 Q2124.67 1462.73 2125.68 1462.73 Q2131.47 1462.73 2134.85 1465.9 Q2138.23 1469.08 2138.23 1474.49 Q2138.23 1480.07 2134.76 1483.17 Q2131.29 1486.25 2124.97 1486.25 Q2122.79 1486.25 2120.52 1485.88 Q2118.28 1485.51 2115.87 1484.77 L2115.87 1480.07 Q2117.95 1481.2 2120.17 1481.76 Q2122.4 1482.32 2124.87 1482.32 Q2128.88 1482.32 2131.22 1480.21 Q2133.55 1478.1 2133.55 1474.49 Q2133.55 1470.88 2131.22 1468.77 Q2128.88 1466.67 2124.87 1466.67 Q2123 1466.67 2121.12 1467.08 Q2119.27 1467.5 2117.33 1468.38 L2117.33 1451.02 Z" fill="#000000" fill-rule="nonzero" fill-opacity="1" /><path clip-path="url(#clip920)" d="M2147.44 1479.7 L2152.33 1479.7 L2152.33 1485.58 L2147.44 1485.58 L2147.44 1479.7 Z" fill="#000000" fill-rule="nonzero" fill-opacity="1" /><path clip-path="url(#clip920)" d="M2173.09 1466.44 Q2169.94 1466.44 2168.09 1468.59 Q2166.26 1470.74 2166.26 1474.49 Q2166.26 1478.22 2168.09 1480.39 Q2169.94 1482.55 2173.09 1482.55 Q2176.24 1482.55 2178.07 1480.39 Q2179.92 1478.22 2179.92 1474.49 Q2179.92 1470.74 2178.07 1468.59 Q2176.24 1466.44 2173.09 1466.44 M2182.37 1451.78 L2182.37 1456.04 Q2180.61 1455.21 2178.81 1454.77 Q2177.03 1454.33 2175.27 1454.33 Q2170.64 1454.33 2168.18 1457.45 Q2165.75 1460.58 2165.41 1466.9 Q2166.77 1464.89 2168.83 1463.82 Q2170.89 1462.73 2173.37 1462.73 Q2178.58 1462.73 2181.59 1465.9 Q2184.62 1469.05 2184.62 1474.49 Q2184.62 1479.82 2181.47 1483.03 Q2178.32 1486.25 2173.09 1486.25 Q2167.1 1486.25 2163.92 1481.67 Q2160.75 1477.06 2160.75 1468.33 Q2160.75 1460.14 2164.64 1455.28 Q2168.53 1450.39 2175.08 1450.39 Q2176.84 1450.39 2178.62 1450.74 Q2180.43 1451.09 2182.37 1451.78 Z" fill="#000000" fill-rule="nonzero" fill-opacity="1" /><path clip-path="url(#clip920)" d="M1142.01 1526.86 L1133.29 1550.51 L1150.76 1550.51 L1142.01 1526.86 M1138.38 1520.52 L1145.67 1520.52 L1163.78 1568.04 L1157.09 1568.04 L1152.76 1555.85 L1131.34 1555.85 L1127.02 1568.04 L1120.24 1568.04 L1138.38 1520.52 Z" fill="#000000" fill-rule="nonzero" fill-opacity="1" /><path clip-path="url(#clip920)" d="M1193.92 1549.81 Q1193.92 1543.44 1191.28 1539.94 Q1188.67 1536.44 1183.92 1536.44 Q1179.21 1536.44 1176.57 1539.94 Q1173.96 1543.44 1173.96 1549.81 Q1173.96 1556.14 1176.57 1559.64 Q1179.21 1563.14 1183.92 1563.14 Q1188.67 1563.14 1191.28 1559.64 Q1193.92 1556.14 1193.92 1549.81 M1199.78 1563.62 Q1199.78 1572.72 1195.73 1577.15 Q1191.69 1581.6 1183.35 1581.6 Q1180.26 1581.6 1177.53 1581.13 Q1174.79 1580.68 1172.21 1579.72 L1172.21 1574.03 Q1174.79 1575.43 1177.3 1576.1 Q1179.82 1576.76 1182.43 1576.76 Q1188.19 1576.76 1191.05 1573.74 Q1193.92 1570.75 1193.92 1564.67 L1193.92 1561.77 Q1192.1 1564.92 1189.27 1566.48 Q1186.44 1568.04 1182.49 1568.04 Q1175.94 1568.04 1171.93 1563.05 Q1167.91 1558.05 1167.91 1549.81 Q1167.91 1541.53 1171.93 1536.53 Q1175.94 1531.54 1182.49 1531.54 Q1186.44 1531.54 1189.27 1533.1 Q1192.1 1534.66 1193.92 1537.81 L1193.92 1532.4 L1199.78 1532.4 L1199.78 1563.62 Z" fill="#000000" fill-rule="nonzero" fill-opacity="1" /><path clip-path="url(#clip920)" d="M1242.33 1548.76 L1242.33 1551.62 L1215.4 1551.62 Q1215.78 1557.67 1219.03 1560.85 Q1222.31 1564 1228.13 1564 Q1231.51 1564 1234.66 1563.17 Q1237.84 1562.35 1240.96 1560.69 L1240.96 1566.23 Q1237.81 1567.57 1234.5 1568.27 Q1231.19 1568.97 1227.78 1568.97 Q1219.25 1568.97 1214.26 1564 Q1209.29 1559.04 1209.29 1550.57 Q1209.29 1541.82 1214 1536.69 Q1218.74 1531.54 1226.77 1531.54 Q1233.96 1531.54 1238.13 1536.18 Q1242.33 1540.8 1242.33 1548.76 M1236.47 1547.04 Q1236.41 1542.23 1233.77 1539.37 Q1231.16 1536.5 1226.83 1536.5 Q1221.93 1536.5 1218.97 1539.27 Q1216.04 1542.04 1215.59 1547.07 L1236.47 1547.04 Z" fill="#000000" fill-rule="nonzero" fill-opacity="1" /><path clip-path="url(#clip920)" d="M1286.73 1518.58 Q1282.47 1525.9 1280.4 1533.06 Q1278.33 1540.23 1278.33 1547.58 Q1278.33 1554.93 1280.4 1562.16 Q1282.5 1569.35 1286.73 1576.64 L1281.64 1576.64 Q1276.86 1569.16 1274.48 1561.93 Q1272.12 1554.71 1272.12 1547.58 Q1272.12 1540.48 1274.48 1533.29 Q1276.83 1526.09 1281.64 1518.58 L1286.73 1518.58 Z" fill="#000000" fill-rule="nonzero" fill-opacity="1" /><path clip-path="url(#clip920)" d="M1298.35 1520.52 L1307.93 1520.52 L1320.06 1552.86 L1332.25 1520.52 L1341.83 1520.52 L1341.83 1568.04 L1335.56 1568.04 L1335.56 1526.32 L1323.3 1558.91 L1316.84 1558.91 L1304.59 1526.32 L1304.59 1568.04 L1298.35 1568.04 L1298.35 1520.52 Z" fill="#000000" fill-rule="nonzero" fill-opacity="1" /><path clip-path="url(#clip920)" d="M1370.54 1550.12 Q1363.44 1550.12 1360.7 1551.75 Q1357.96 1553.37 1357.96 1557.29 Q1357.96 1560.4 1360 1562.25 Q1362.07 1564.07 1365.6 1564.07 Q1370.47 1564.07 1373.4 1560.63 Q1376.36 1557.16 1376.36 1551.43 L1376.36 1550.12 L1370.54 1550.12 M1382.22 1547.71 L1382.22 1568.04 L1376.36 1568.04 L1376.36 1562.63 Q1374.35 1565.88 1371.36 1567.44 Q1368.37 1568.97 1364.04 1568.97 Q1358.57 1568.97 1355.32 1565.91 Q1352.11 1562.82 1352.11 1557.67 Q1352.11 1551.65 1356.12 1548.6 Q1360.16 1545.54 1368.15 1545.54 L1376.36 1545.54 L1376.36 1544.97 Q1376.36 1540.93 1373.69 1538.73 Q1371.04 1536.5 1366.24 1536.5 Q1363.18 1536.5 1360.29 1537.23 Q1357.39 1537.97 1354.72 1539.43 L1354.72 1534.02 Q1357.93 1532.78 1360.95 1532.17 Q1363.98 1531.54 1366.84 1531.54 Q1374.58 1531.54 1378.4 1535.55 Q1382.22 1539.56 1382.22 1547.71 Z" fill="#000000" fill-rule="nonzero" fill-opacity="1" /><path clip-path="url(#clip920)" d="M1393.36 1518.58 L1398.45 1518.58 Q1403.22 1526.09 1405.58 1533.29 Q1407.97 1540.48 1407.97 1547.58 Q1407.97 1554.71 1405.58 1561.93 Q1403.22 1569.16 1398.45 1576.64 L1393.36 1576.64 Q1397.59 1569.35 1399.66 1562.16 Q1401.76 1554.93 1401.76 1547.58 Q1401.76 1540.23 1399.66 1533.06 Q1397.59 1525.9 1393.36 1518.58 Z" fill="#000000" fill-rule="nonzero" fill-opacity="1" /><polyline clip-path="url(#clip920)" style="stroke:#000000; stroke-linecap:round; stroke-linejoin:round; stroke-width:4; stroke-opacity:1; fill:none" points="175.445,1423.18 175.445,47.2441 "/>
<polyline clip-path="url(#clip920)" style="stroke:#000000; stroke-linecap:round; stroke-linejoin:round; stroke-width:4; stroke-opacity:1; fill:none" points="2352.76,1423.18 2352.76,47.2441 "/>
<polyline clip-path="url(#clip920)" style="stroke:#000000; stroke-linecap:round; stroke-linejoin:round; stroke-width:4; stroke-opacity:1; fill:none" points="175.445,1384.24 194.343,1384.24 "/>
<polyline clip-path="url(#clip920)" style="stroke:#000000; stroke-linecap:round; stroke-linejoin:round; stroke-width:4; stroke-opacity:1; fill:none" points="175.445,1032.88 194.343,1032.88 "/>
<polyline clip-path="url(#clip920)" style="stroke:#000000; stroke-linecap:round; stroke-linejoin:round; stroke-width:4; stroke-opacity:1; fill:none" points="175.445,681.524 194.343,681.524 "/>
<polyline clip-path="url(#clip920)" style="stroke:#000000; stroke-linecap:round; stroke-linejoin:round; stroke-width:4; stroke-opacity:1; fill:none" points="175.445,330.167 194.343,330.167 "/>
<polyline clip-path="url(#clip920)" style="stroke:#000000; stroke-linecap:round; stroke-linejoin:round; stroke-width:4; stroke-opacity:1; fill:none" points="2352.76,1384.24 2333.86,1384.24 "/>
<polyline clip-path="url(#clip920)" style="stroke:#000000; stroke-linecap:round; stroke-linejoin:round; stroke-width:4; stroke-opacity:1; fill:none" points="2352.76,1032.88 2333.86,1032.88 "/>
<polyline clip-path="url(#clip920)" style="stroke:#000000; stroke-linecap:round; stroke-linejoin:round; stroke-width:4; stroke-opacity:1; fill:none" points="2352.76,681.524 2333.86,681.524 "/>
<polyline clip-path="url(#clip920)" style="stroke:#000000; stroke-linecap:round; stroke-linejoin:round; stroke-width:4; stroke-opacity:1; fill:none" points="2352.76,330.167 2333.86,330.167 "/>
<path clip-path="url(#clip920)" d="M127.501 1370.04 Q123.89 1370.04 122.061 1373.6 Q120.255 1377.14 120.255 1384.27 Q120.255 1391.38 122.061 1394.94 Q123.89 1398.49 127.501 1398.49 Q131.135 1398.49 132.941 1394.94 Q134.769 1391.38 134.769 1384.27 Q134.769 1377.14 132.941 1373.6 Q131.135 1370.04 127.501 1370.04 M127.501 1366.33 Q133.311 1366.33 136.367 1370.94 Q139.445 1375.52 139.445 1384.27 Q139.445 1393 136.367 1397.61 Q133.311 1402.19 127.501 1402.19 Q121.691 1402.19 118.612 1397.61 Q115.556 1393 115.556 1384.27 Q115.556 1375.52 118.612 1370.94 Q121.691 1366.33 127.501 1366.33 Z" fill="#000000" fill-rule="nonzero" fill-opacity="1" /><path clip-path="url(#clip920)" d="M123.126 1046.23 L139.445 1046.23 L139.445 1050.16 L117.501 1050.16 L117.501 1046.23 Q120.163 1043.47 124.746 1038.84 Q129.353 1034.19 130.533 1032.85 Q132.779 1030.32 133.658 1028.59 Q134.561 1026.83 134.561 1025.14 Q134.561 1022.38 132.617 1020.65 Q130.695 1018.91 127.593 1018.91 Q125.394 1018.91 122.941 1019.68 Q120.51 1020.44 117.732 1021.99 L117.732 1017.27 Q120.556 1016.13 123.01 1015.55 Q125.464 1014.98 127.501 1014.98 Q132.871 1014.98 136.066 1017.66 Q139.26 1020.35 139.26 1024.84 Q139.26 1026.97 138.45 1028.89 Q137.663 1030.79 135.556 1033.38 Q134.978 1034.05 131.876 1037.27 Q128.774 1040.46 123.126 1046.23 Z" fill="#000000" fill-rule="nonzero" fill-opacity="1" /><path clip-path="url(#clip920)" d="M129.862 668.318 L118.056 686.767 L129.862 686.767 L129.862 668.318 M128.635 664.244 L134.515 664.244 L134.515 686.767 L139.445 686.767 L139.445 690.656 L134.515 690.656 L134.515 698.804 L129.862 698.804 L129.862 690.656 L114.26 690.656 L114.26 686.142 L128.635 664.244 Z" fill="#000000" fill-rule="nonzero" fill-opacity="1" /><path clip-path="url(#clip920)" d="M127.917 328.304 Q124.769 328.304 122.918 330.457 Q121.089 332.609 121.089 336.359 Q121.089 340.086 122.918 342.262 Q124.769 344.415 127.917 344.415 Q131.066 344.415 132.894 342.262 Q134.746 340.086 134.746 336.359 Q134.746 332.609 132.894 330.457 Q131.066 328.304 127.917 328.304 M137.2 313.651 L137.2 317.91 Q135.441 317.077 133.635 316.637 Q131.853 316.197 130.093 316.197 Q125.464 316.197 123.01 319.322 Q120.58 322.447 120.232 328.767 Q121.598 326.753 123.658 325.688 Q125.718 324.6 128.195 324.6 Q133.404 324.6 136.413 327.771 Q139.445 330.92 139.445 336.359 Q139.445 341.683 136.297 344.901 Q133.149 348.119 127.917 348.119 Q121.922 348.119 118.751 343.535 Q115.58 338.929 115.58 330.202 Q115.58 322.008 119.468 317.147 Q123.357 312.262 129.908 312.262 Q131.667 312.262 133.45 312.609 Q135.255 312.957 137.2 313.651 Z" fill="#000000" fill-rule="nonzero" fill-opacity="1" /><path clip-path="url(#clip920)" d="M21.7677 1026.76 L39.6235 1026.76 L39.6235 1018.68 Q39.6235 1014.19 37.3 1011.74 Q34.9765 1009.29 30.6797 1009.29 Q26.4147 1009.29 24.0912 1011.74 Q21.7677 1014.19 21.7677 1018.68 L21.7677 1026.76 M16.4842 1033.19 L16.4842 1018.68 Q16.4842 1010.69 20.1126 1006.61 Q23.7092 1002.51 30.6797 1002.51 Q37.7138 1002.51 41.3104 1006.61 Q44.907 1010.69 44.907 1018.68 L44.907 1026.76 L64.0042 1026.76 L64.0042 1033.19 L16.4842 1033.19 Z" fill="#000000" fill-rule="nonzero" fill-opacity="1" /><path clip-path="url(#clip920)" d="M33.8307 974.626 Q33.2578 975.613 33.0032 976.791 Q32.7167 977.936 32.7167 979.337 Q32.7167 984.302 35.9632 986.976 Q39.1779 989.617 45.2253 989.617 L64.0042 989.617 L64.0042 995.506 L28.3562 995.506 L28.3562 989.617 L33.8944 989.617 Q30.6479 987.771 29.0883 984.811 Q27.4968 981.851 27.4968 977.618 Q27.4968 977.013 27.5923 976.281 Q27.656 975.549 27.8151 974.658 L33.8307 974.626 Z" fill="#000000" fill-rule="nonzero" fill-opacity="1" /><path clip-path="url(#clip920)" d="M32.4621 956.102 Q32.4621 960.813 36.1542 963.55 Q39.8145 966.287 46.212 966.287 Q52.6095 966.287 56.3017 963.582 Q59.9619 960.844 59.9619 956.102 Q59.9619 951.423 56.2698 948.686 Q52.5777 945.949 46.212 945.949 Q39.8781 945.949 36.186 948.686 Q32.4621 951.423 32.4621 956.102 M27.4968 956.102 Q27.4968 948.463 32.4621 944.103 Q37.4273 939.742 46.212 939.742 Q54.9649 939.742 59.9619 944.103 Q64.9272 948.463 64.9272 956.102 Q64.9272 963.773 59.9619 968.133 Q54.9649 972.462 46.212 972.462 Q37.4273 972.462 32.4621 968.133 Q27.4968 963.773 27.4968 956.102 Z" fill="#000000" fill-rule="nonzero" fill-opacity="1" /><path clip-path="url(#clip920)" d="M46.212 904.444 Q39.7508 904.444 36.0905 907.118 Q32.3984 909.76 32.3984 914.407 Q32.3984 919.054 36.0905 921.727 Q39.7508 924.369 46.212 924.369 Q52.6732 924.369 56.3653 921.727 Q60.0256 919.054 60.0256 914.407 Q60.0256 909.76 56.3653 907.118 Q52.6732 904.444 46.212 904.444 M33.7671 924.369 Q30.5842 922.523 29.0564 919.722 Q27.4968 916.889 27.4968 912.974 Q27.4968 906.481 32.6531 902.439 Q37.8093 898.365 46.212 898.365 Q54.6147 898.365 59.771 902.439 Q64.9272 906.481 64.9272 912.974 Q64.9272 916.889 63.3994 919.722 Q61.8398 922.523 58.657 924.369 L64.0042 924.369 L64.0042 930.257 L14.479 930.257 L14.479 924.369 L33.7671 924.369 Z" fill="#000000" fill-rule="nonzero" fill-opacity="1" /><path clip-path="url(#clip920)" d="M46.0847 872.457 Q46.0847 879.554 47.7079 882.292 Q49.3312 885.029 53.2461 885.029 Q56.3653 885.029 58.2114 882.992 Q60.0256 880.923 60.0256 877.39 Q60.0256 872.52 56.5881 869.592 Q53.1188 866.632 47.3897 866.632 L46.0847 866.632 L46.0847 872.457 M43.6657 860.776 L64.0042 860.776 L64.0042 866.632 L58.5933 866.632 Q61.8398 868.637 63.3994 871.629 Q64.9272 874.621 64.9272 878.95 Q64.9272 884.424 61.8716 887.671 Q58.7843 890.885 53.6281 890.885 Q47.6125 890.885 44.5569 886.875 Q41.5014 882.833 41.5014 874.844 L41.5014 866.632 L40.9285 866.632 Q36.8862 866.632 34.6901 869.306 Q32.4621 871.947 32.4621 876.753 Q32.4621 879.809 33.1941 882.705 Q33.9262 885.602 35.3903 888.275 L29.9795 888.275 Q28.7381 885.061 28.1334 882.037 Q27.4968 879.013 27.4968 876.149 Q27.4968 868.414 31.5072 864.595 Q35.5176 860.776 43.6657 860.776 Z" fill="#000000" fill-rule="nonzero" fill-opacity="1" /><path clip-path="url(#clip920)" d="M46.212 823.122 Q39.7508 823.122 36.0905 825.796 Q32.3984 828.438 32.3984 833.085 Q32.3984 837.732 36.0905 840.405 Q39.7508 843.047 46.212 843.047 Q52.6732 843.047 56.3653 840.405 Q60.0256 837.732 60.0256 833.085 Q60.0256 828.438 56.3653 825.796 Q52.6732 823.122 46.212 823.122 M33.7671 843.047 Q30.5842 841.201 29.0564 838.4 Q27.4968 835.567 27.4968 831.652 Q27.4968 825.159 32.6531 821.117 Q37.8093 817.043 46.212 817.043 Q54.6147 817.043 59.771 821.117 Q64.9272 825.159 64.9272 831.652 Q64.9272 835.567 63.3994 838.4 Q61.8398 841.201 58.657 843.047 L64.0042 843.047 L64.0042 848.935 L14.479 848.935 L14.479 843.047 L33.7671 843.047 Z" fill="#000000" fill-rule="nonzero" fill-opacity="1" /><path clip-path="url(#clip920)" d="M28.3562 807.335 L28.3562 801.479 L64.0042 801.479 L64.0042 807.335 L28.3562 807.335 M14.479 807.335 L14.479 801.479 L21.895 801.479 L21.895 807.335 L14.479 807.335 Z" fill="#000000" fill-rule="nonzero" fill-opacity="1" /><path clip-path="url(#clip920)" d="M14.479 789.225 L14.479 783.369 L64.0042 783.369 L64.0042 789.225 L14.479 789.225 Z" fill="#000000" fill-rule="nonzero" fill-opacity="1" /><path clip-path="url(#clip920)" d="M28.3562 771.115 L28.3562 765.258 L64.0042 765.258 L64.0042 771.115 L28.3562 771.115 M14.479 771.115 L14.479 765.258 L21.895 765.258 L21.895 771.115 L14.479 771.115 Z" fill="#000000" fill-rule="nonzero" fill-opacity="1" /><path clip-path="url(#clip920)" d="M18.2347 747.211 L28.3562 747.211 L28.3562 735.148 L32.9077 735.148 L32.9077 747.211 L52.2594 747.211 Q56.6199 747.211 57.8613 746.034 Q59.1026 744.824 59.1026 741.164 L59.1026 735.148 L64.0042 735.148 L64.0042 741.164 Q64.0042 747.943 61.4897 750.521 Q58.9434 753.1 52.2594 753.1 L32.9077 753.1 L32.9077 757.396 L28.3562 757.396 L28.3562 753.1 L18.2347 753.1 L18.2347 747.211 Z" fill="#000000" fill-rule="nonzero" fill-opacity="1" /><path clip-path="url(#clip920)" d="M67.3143 712.614 Q73.68 715.096 75.6216 717.452 Q77.5631 719.807 77.5631 723.754 L77.5631 728.432 L72.6615 728.432 L72.6615 724.995 Q72.6615 722.576 71.5157 721.239 Q70.3699 719.902 66.1048 718.279 L63.4312 717.229 L28.3562 731.647 L28.3562 725.441 L56.238 714.301 L28.3562 703.161 L28.3562 696.954 L67.3143 712.614 Z" fill="#000000" fill-rule="nonzero" fill-opacity="1" /><path clip-path="url(#clip920)" d="M33.7671 644.692 L14.479 644.692 L14.479 638.835 L64.0042 638.835 L64.0042 644.692 L58.657 644.692 Q61.8398 646.538 63.3994 649.37 Q64.9272 652.171 64.9272 656.118 Q64.9272 662.579 59.771 666.653 Q54.6147 670.696 46.212 670.696 Q37.8093 670.696 32.6531 666.653 Q27.4968 662.579 27.4968 656.118 Q27.4968 652.171 29.0564 649.37 Q30.5842 646.538 33.7671 644.692 M46.212 664.648 Q52.6732 664.648 56.3653 662.006 Q60.0256 659.333 60.0256 654.686 Q60.0256 650.039 56.3653 647.365 Q52.6732 644.692 46.212 644.692 Q39.7508 644.692 36.0905 647.365 Q32.3984 650.039 32.3984 654.686 Q32.3984 659.333 36.0905 662.006 Q39.7508 664.648 46.212 664.648 Z" fill="#000000" fill-rule="nonzero" fill-opacity="1" /><path clip-path="url(#clip920)" d="M44.7161 596.28 L47.5806 596.28 L47.5806 623.207 Q53.6281 622.825 56.8109 619.579 Q59.9619 616.301 59.9619 610.476 Q59.9619 607.102 59.1344 603.951 Q58.3069 600.768 56.6518 597.649 L62.1899 597.649 Q63.5267 600.8 64.227 604.11 Q64.9272 607.42 64.9272 610.826 Q64.9272 619.356 59.9619 624.353 Q54.9967 629.318 46.5303 629.318 Q37.7774 629.318 32.6531 624.608 Q27.4968 619.865 27.4968 611.845 Q27.4968 604.651 32.1438 600.482 Q36.7589 596.28 44.7161 596.28 M42.9973 602.137 Q38.1912 602.201 35.3266 604.842 Q32.4621 607.452 32.4621 611.781 Q32.4621 616.683 35.2312 619.643 Q38.0002 622.571 43.0292 623.016 L42.9973 602.137 Z" fill="#000000" fill-rule="nonzero" fill-opacity="1" /><path clip-path="url(#clip920)" d="M42.4881 557.036 L64.0042 557.036 L64.0042 562.892 L42.679 562.892 Q37.6183 562.892 35.1038 564.866 Q32.5894 566.839 32.5894 570.786 Q32.5894 575.528 35.6131 578.265 Q38.6368 581.003 43.8567 581.003 L64.0042 581.003 L64.0042 586.891 L28.3562 586.891 L28.3562 581.003 L33.8944 581.003 Q30.6797 578.902 29.0883 576.069 Q27.4968 573.205 27.4968 569.481 Q27.4968 563.338 31.3163 560.187 Q35.1038 557.036 42.4881 557.036 Z" fill="#000000" fill-rule="nonzero" fill-opacity="1" /><path clip-path="url(#clip920)" d="M29.4065 522.629 L34.9447 522.629 Q33.6716 525.112 33.035 527.785 Q32.3984 530.459 32.3984 533.324 Q32.3984 537.684 33.7352 539.88 Q35.072 542.045 37.7456 542.045 Q39.7826 542.045 40.9603 540.485 Q42.1061 538.925 43.1565 534.215 L43.6021 532.21 Q44.9389 525.971 47.3897 523.361 Q49.8086 520.719 54.1691 520.719 Q59.1344 520.719 62.0308 524.666 Q64.9272 528.581 64.9272 535.456 Q64.9272 538.321 64.3543 541.44 Q63.8132 544.527 62.6992 547.965 L56.6518 547.965 Q58.3387 544.718 59.198 541.567 Q60.0256 538.416 60.0256 535.329 Q60.0256 531.191 58.6251 528.963 Q57.1929 526.735 54.6147 526.735 Q52.2276 526.735 50.9545 528.358 Q49.6813 529.95 48.5037 535.392 L48.0262 537.429 Q46.8804 542.872 44.5251 545.291 Q42.138 547.71 38.0002 547.71 Q32.9713 547.71 30.2341 544.145 Q27.4968 540.58 27.4968 534.024 Q27.4968 530.777 27.9743 527.913 Q28.4517 525.048 29.4065 522.629 Z" fill="#000000" fill-rule="nonzero" fill-opacity="1" /><path clip-path="url(#clip920)" d="M28.3562 511.394 L28.3562 505.537 L64.0042 505.537 L64.0042 511.394 L28.3562 511.394 M14.479 511.394 L14.479 505.537 L21.895 505.537 L21.895 511.394 L14.479 511.394 Z" fill="#000000" fill-rule="nonzero" fill-opacity="1" /><path clip-path="url(#clip920)" d="M18.2347 487.49 L28.3562 487.49 L28.3562 475.427 L32.9077 475.427 L32.9077 487.49 L52.2594 487.49 Q56.6199 487.49 57.8613 486.313 Q59.1026 485.103 59.1026 481.443 L59.1026 475.427 L64.0042 475.427 L64.0042 481.443 Q64.0042 488.223 61.4897 490.801 Q58.9434 493.379 52.2594 493.379 L32.9077 493.379 L32.9077 497.676 L28.3562 497.676 L28.3562 493.379 L18.2347 493.379 L18.2347 487.49 Z" fill="#000000" fill-rule="nonzero" fill-opacity="1" /><path clip-path="url(#clip920)" d="M67.3143 452.893 Q73.68 455.376 75.6216 457.731 Q77.5631 460.086 77.5631 464.033 L77.5631 468.712 L72.6615 468.712 L72.6615 465.274 Q72.6615 462.855 71.5157 461.518 Q70.3699 460.182 66.1048 458.558 L63.4312 457.508 L28.3562 471.926 L28.3562 465.72 L56.238 454.58 L28.3562 443.44 L28.3562 437.233 L67.3143 452.893 Z" fill="#000000" fill-rule="nonzero" fill-opacity="1" /><polyline clip-path="url(#clip922)" style="stroke:#009af9; stroke-linecap:round; stroke-linejoin:round; stroke-width:4; stroke-opacity:1; fill:none" points="237.067,1384.19 257.815,1384.23 320.06,1384.14 340.808,1384.21 382.304,1384.23 506.793,1384.21 818.015,1384.21 859.512,1384.21 942.504,1384.09 984.001,1384.23 1046.24,1384.03 1066.99,1384.18 1087.74,1384.18 1108.49,1384.19 1129.24,1384.15 1149.99,1384.23 1191.48,1384.08 1212.23,1384.14 1232.98,1384.21 1274.47,1384 1295.22,1384.23 1315.97,1384.03 1336.72,1384.04 1357.47,1383.63 1378.22,1383.63 1398.96,1382.99 1419.71,1382.46 1440.46,1382.4 1461.21,1382.95 1481.96,1383.11 1502.7,1382.55 1523.45,1381.92 1544.2,1380.15 1564.95,1380.78 1585.7,1378.55 1606.45,1378.65 1627.19,1376.87 1647.94,1373.58 1668.69,1370.49 1689.44,1365.52 1710.19,1360.64 1730.93,1356.88 1751.68,1344.38 1772.43,1335.19 1793.18,1316.45 1813.93,1294.72 1834.67,1259.69 1855.42,1219.36 1876.17,1146.44 1896.92,1086.21 1917.67,988.922 1938.42,837.823 1959.16,687.464 1979.91,493.37 2000.66,309.821 2021.41,119.121 2042.16,86.1857 2062.9,156.989 2083.65,298.645 2104.4,522.777 2125.15,750.182 2145.9,948.58 2166.65,1126.09 2187.39,1241.39 2208.14,1318.57 2228.89,1359.36 2249.64,1375.18 2270.39,1381.16 2291.13,1383.16 "/>
<polyline clip-path="url(#clip922)" style="stroke:#e26f46; stroke-linecap:round; stroke-linejoin:round; stroke-width:4; stroke-opacity:1; fill:none" points="237.067,1384.24 257.815,1384.24 320.06,1384.24 340.808,1384.24 382.304,1384.24 506.793,1384.24 818.015,1384.24 859.512,1384.24 942.504,1384.24 984.001,1384.24 1046.24,1384.24 1066.99,1384.24 1087.74,1384.24 1108.49,1384.24 1129.24,1384.24 1149.99,1384.24 1191.48,1384.24 1212.23,1384.24 1232.98,1384.23 1274.47,1384.23 1295.22,1384.23 1315.97,1384.22 1336.72,1384.22 1357.47,1384.21 1378.22,1384.19 1398.96,1384.17 1419.71,1384.15 1440.46,1384.11 1461.21,1384.05 1481.96,1383.97 1502.7,1383.85 1523.45,1383.69 1544.2,1383.45 1564.95,1383.11 1585.7,1382.63 1606.45,1381.94 1627.19,1380.96 1647.94,1379.55 1668.69,1377.56 1689.44,1374.72 1710.19,1370.7 1730.93,1365 1751.68,1356.96 1772.43,1345.63 1793.18,1329.75 1813.93,1307.6 1834.67,1276.92 1855.42,1234.79 1876.17,1177.64 1896.92,1101.38 1917.67,1001.94 1938.42,876.439 1959.16,725.445 1979.91,556.465 2000.66,388.067 2021.41,251.946 2042.16,187.779 2062.9,226.815 2083.65,370.433 2104.4,582.68 2125.15,808.775 2145.9,1004.23 2166.65,1149.74 2187.39,1246.91 2208.14,1306.91 2228.89,1341.94 2249.64,1361.59 2270.39,1372.3 2291.13,1378.02 "/>
<path clip-path="url(#clip920)" d="M248.022 248.629 L800.057 248.629 L800.057 93.1086 L248.022 93.1086  Z" fill="#ffffff" fill-rule="evenodd" fill-opacity="1"/>
<polyline clip-path="url(#clip920)" style="stroke:#ffffff; stroke-linecap:round; stroke-linejoin:round; stroke-width:4; stroke-opacity:1; fill:none" points="248.022,248.629 800.057,248.629 800.057,93.1086 248.022,93.1086 248.022,248.629 "/>
<polyline clip-path="url(#clip920)" style="stroke:#009af9; stroke-linecap:round; stroke-linejoin:round; stroke-width:4; stroke-opacity:1; fill:none" points="272.215,144.949 417.369,144.949 "/>
<path clip-path="url(#clip920)" d="M441.561 127.669 L446.237 127.669 L446.237 141.835 L463.228 141.835 L463.228 127.669 L467.903 127.669 L467.903 162.229 L463.228 162.229 L463.228 145.77 L446.237 145.77 L446.237 162.229 L441.561 162.229 L441.561 127.669 Z" fill="#000000" fill-rule="nonzero" fill-opacity="1" /><path clip-path="url(#clip920)" d="M477.024 136.303 L481.283 136.303 L481.283 162.229 L477.024 162.229 L477.024 136.303 M477.024 126.21 L481.283 126.21 L481.283 131.604 L477.024 131.604 L477.024 126.21 Z" fill="#000000" fill-rule="nonzero" fill-opacity="1" /><path clip-path="url(#clip920)" d="M506.723 137.067 L506.723 141.094 Q504.917 140.169 502.973 139.706 Q501.028 139.243 498.945 139.243 Q495.774 139.243 494.176 140.215 Q492.602 141.187 492.602 143.131 Q492.602 144.613 493.737 145.469 Q494.871 146.303 498.297 147.067 L499.755 147.391 Q504.292 148.363 506.19 150.145 Q508.112 151.905 508.112 155.076 Q508.112 158.687 505.241 160.793 Q502.394 162.9 497.394 162.9 Q495.311 162.9 493.042 162.483 Q490.797 162.09 488.297 161.28 L488.297 156.881 Q490.658 158.108 492.95 158.733 Q495.241 159.335 497.487 159.335 Q500.496 159.335 502.116 158.317 Q503.737 157.275 503.737 155.4 Q503.737 153.664 502.556 152.738 Q501.399 151.812 497.44 150.956 L495.959 150.608 Q492.001 149.775 490.241 148.062 Q488.482 146.326 488.482 143.317 Q488.482 139.659 491.075 137.669 Q493.667 135.678 498.436 135.678 Q500.797 135.678 502.88 136.025 Q504.963 136.372 506.723 137.067 Z" fill="#000000" fill-rule="nonzero" fill-opacity="1" /><path clip-path="url(#clip920)" d="M519.107 128.942 L519.107 136.303 L527.88 136.303 L527.88 139.613 L519.107 139.613 L519.107 153.687 Q519.107 156.858 519.963 157.761 Q520.843 158.664 523.505 158.664 L527.88 158.664 L527.88 162.229 L523.505 162.229 Q518.574 162.229 516.699 160.4 Q514.824 158.548 514.824 153.687 L514.824 139.613 L511.699 139.613 L511.699 136.303 L514.824 136.303 L514.824 128.942 L519.107 128.942 Z" fill="#000000" fill-rule="nonzero" fill-opacity="1" /><path clip-path="url(#clip920)" d="M543.528 139.289 Q540.102 139.289 538.111 141.974 Q536.121 144.636 536.121 149.289 Q536.121 153.942 538.088 156.627 Q540.079 159.289 543.528 159.289 Q546.931 159.289 548.921 156.604 Q550.912 153.918 550.912 149.289 Q550.912 144.682 548.921 141.997 Q546.931 139.289 543.528 139.289 M543.528 135.678 Q549.084 135.678 552.255 139.289 Q555.426 142.9 555.426 149.289 Q555.426 155.655 552.255 159.289 Q549.084 162.9 543.528 162.9 Q537.949 162.9 534.778 159.289 Q531.63 155.655 531.63 149.289 Q531.63 142.9 534.778 139.289 Q537.949 135.678 543.528 135.678 Z" fill="#000000" fill-rule="nonzero" fill-opacity="1" /><path clip-path="url(#clip920)" d="M579.546 148.965 Q579.546 144.335 577.625 141.789 Q575.727 139.243 572.278 139.243 Q568.852 139.243 566.931 141.789 Q565.033 144.335 565.033 148.965 Q565.033 153.571 566.931 156.118 Q568.852 158.664 572.278 158.664 Q575.727 158.664 577.625 156.118 Q579.546 153.571 579.546 148.965 M583.806 159.011 Q583.806 165.631 580.866 168.849 Q577.926 172.09 571.861 172.09 Q569.616 172.09 567.625 171.742 Q565.634 171.418 563.759 170.724 L563.759 166.58 Q565.634 167.599 567.463 168.085 Q569.292 168.571 571.19 168.571 Q575.38 168.571 577.463 166.372 Q579.546 164.196 579.546 159.775 L579.546 157.668 Q578.227 159.96 576.167 161.094 Q574.107 162.229 571.236 162.229 Q566.468 162.229 563.551 158.594 Q560.634 154.96 560.634 148.965 Q560.634 142.946 563.551 139.312 Q566.468 135.678 571.236 135.678 Q574.107 135.678 576.167 136.812 Q578.227 137.946 579.546 140.238 L579.546 136.303 L583.806 136.303 L583.806 159.011 Z" fill="#000000" fill-rule="nonzero" fill-opacity="1" /><path clip-path="url(#clip920)" d="M607.602 140.284 Q606.884 139.868 606.028 139.682 Q605.194 139.474 604.176 139.474 Q600.565 139.474 598.62 141.835 Q596.699 144.173 596.699 148.571 L596.699 162.229 L592.417 162.229 L592.417 136.303 L596.699 136.303 L596.699 140.331 Q598.042 137.969 600.194 136.835 Q602.347 135.678 605.426 135.678 Q605.866 135.678 606.398 135.747 Q606.93 135.794 607.579 135.909 L607.602 140.284 Z" fill="#000000" fill-rule="nonzero" fill-opacity="1" /><path clip-path="url(#clip920)" d="M623.852 149.196 Q618.69 149.196 616.699 150.377 Q614.708 151.557 614.708 154.405 Q614.708 156.673 616.19 158.016 Q617.694 159.335 620.264 159.335 Q623.805 159.335 625.935 156.835 Q628.088 154.312 628.088 150.145 L628.088 149.196 L623.852 149.196 M632.347 147.437 L632.347 162.229 L628.088 162.229 L628.088 158.293 Q626.629 160.655 624.453 161.789 Q622.278 162.9 619.129 162.9 Q615.148 162.9 612.787 160.678 Q610.449 158.432 610.449 154.682 Q610.449 150.307 613.366 148.085 Q616.305 145.863 622.116 145.863 L628.088 145.863 L628.088 145.446 Q628.088 142.507 626.143 140.909 Q624.222 139.289 620.727 139.289 Q618.504 139.289 616.398 139.821 Q614.292 140.354 612.347 141.419 L612.347 137.483 Q614.685 136.581 616.884 136.141 Q619.083 135.678 621.166 135.678 Q626.791 135.678 629.569 138.594 Q632.347 141.511 632.347 147.437 Z" fill="#000000" fill-rule="nonzero" fill-opacity="1" /><path clip-path="url(#clip920)" d="M661.305 141.28 Q662.902 138.409 665.125 137.044 Q667.347 135.678 670.356 135.678 Q674.407 135.678 676.606 138.525 Q678.805 141.349 678.805 146.581 L678.805 162.229 L674.523 162.229 L674.523 146.719 Q674.523 142.993 673.203 141.187 Q671.884 139.382 669.175 139.382 Q665.865 139.382 663.944 141.581 Q662.023 143.78 662.023 147.576 L662.023 162.229 L657.74 162.229 L657.74 146.719 Q657.74 142.969 656.421 141.187 Q655.101 139.382 652.347 139.382 Q649.083 139.382 647.162 141.604 Q645.24 143.803 645.24 147.576 L645.24 162.229 L640.958 162.229 L640.958 136.303 L645.24 136.303 L645.24 140.331 Q646.699 137.946 648.736 136.812 Q650.773 135.678 653.574 135.678 Q656.398 135.678 658.365 137.113 Q660.356 138.548 661.305 141.28 Z" fill="#000000" fill-rule="nonzero" fill-opacity="1" /><polyline clip-path="url(#clip920)" style="stroke:#e26f46; stroke-linecap:round; stroke-linejoin:round; stroke-width:4; stroke-opacity:1; fill:none" points="272.215,196.789 417.369,196.789 "/>
<path clip-path="url(#clip920)" d="M446.237 183.351 L446.237 210.226 L451.885 210.226 Q459.038 210.226 462.348 206.985 Q465.681 203.745 465.681 196.754 Q465.681 189.809 462.348 186.592 Q459.038 183.351 451.885 183.351 L446.237 183.351 M441.561 179.509 L451.167 179.509 Q461.214 179.509 465.913 183.698 Q470.612 187.865 470.612 196.754 Q470.612 205.689 465.89 209.879 Q461.167 214.069 451.167 214.069 L441.561 214.069 L441.561 179.509 Z" fill="#000000" fill-rule="nonzero" fill-opacity="1" /><path clip-path="url(#clip920)" d="M477.88 188.143 L482.139 188.143 L482.139 214.069 L477.88 214.069 L477.88 188.143 M477.88 178.05 L482.139 178.05 L482.139 183.444 L477.88 183.444 L477.88 178.05 Z" fill="#000000" fill-rule="nonzero" fill-opacity="1" /><path clip-path="url(#clip920)" d="M507.579 188.907 L507.579 192.934 Q505.774 192.009 503.829 191.546 Q501.885 191.083 499.801 191.083 Q496.63 191.083 495.033 192.055 Q493.459 193.027 493.459 194.971 Q493.459 196.453 494.593 197.309 Q495.727 198.143 499.153 198.907 L500.612 199.231 Q505.149 200.203 507.047 201.985 Q508.968 203.745 508.968 206.916 Q508.968 210.527 506.098 212.633 Q503.25 214.74 498.25 214.74 Q496.167 214.74 493.899 214.323 Q491.653 213.93 489.153 213.12 L489.153 208.721 Q491.514 209.948 493.806 210.573 Q496.098 211.175 498.343 211.175 Q501.352 211.175 502.973 210.157 Q504.593 209.115 504.593 207.24 Q504.593 205.504 503.412 204.578 Q502.255 203.652 498.297 202.796 L496.815 202.448 Q492.857 201.615 491.098 199.902 Q489.338 198.166 489.338 195.157 Q489.338 191.499 491.931 189.509 Q494.524 187.518 499.292 187.518 Q501.653 187.518 503.737 187.865 Q505.82 188.212 507.579 188.907 Z" fill="#000000" fill-rule="nonzero" fill-opacity="1" /><path clip-path="url(#clip920)" d="M519.963 180.782 L519.963 188.143 L528.736 188.143 L528.736 191.453 L519.963 191.453 L519.963 205.527 Q519.963 208.698 520.82 209.601 Q521.699 210.504 524.361 210.504 L528.736 210.504 L528.736 214.069 L524.361 214.069 Q519.431 214.069 517.556 212.24 Q515.681 210.388 515.681 205.527 L515.681 191.453 L512.556 191.453 L512.556 188.143 L515.681 188.143 L515.681 180.782 L519.963 180.782 Z" fill="#000000" fill-rule="nonzero" fill-opacity="1" /><path clip-path="url(#clip920)" d="M549.361 192.124 Q548.644 191.708 547.787 191.522 Q546.954 191.314 545.935 191.314 Q542.324 191.314 540.38 193.675 Q538.459 196.013 538.459 200.411 L538.459 214.069 L534.176 214.069 L534.176 188.143 L538.459 188.143 L538.459 192.171 Q539.801 189.809 541.954 188.675 Q544.107 187.518 547.185 187.518 Q547.625 187.518 548.158 187.587 Q548.69 187.634 549.338 187.749 L549.361 192.124 Z" fill="#000000" fill-rule="nonzero" fill-opacity="1" /><path clip-path="url(#clip920)" d="M553.829 188.143 L558.088 188.143 L558.088 214.069 L553.829 214.069 L553.829 188.143 M553.829 178.05 L558.088 178.05 L558.088 183.444 L553.829 183.444 L553.829 178.05 Z" fill="#000000" fill-rule="nonzero" fill-opacity="1" /><path clip-path="url(#clip920)" d="M585.611 201.129 Q585.611 196.43 583.667 193.768 Q581.745 191.083 578.366 191.083 Q574.986 191.083 573.042 193.768 Q571.12 196.43 571.12 201.129 Q571.12 205.828 573.042 208.513 Q574.986 211.175 578.366 211.175 Q581.745 211.175 583.667 208.513 Q585.611 205.828 585.611 201.129 M571.12 192.078 Q572.463 189.763 574.5 188.652 Q576.56 187.518 579.407 187.518 Q584.13 187.518 587.069 191.268 Q590.032 195.018 590.032 201.129 Q590.032 207.24 587.069 210.99 Q584.13 214.74 579.407 214.74 Q576.56 214.74 574.5 213.629 Q572.463 212.495 571.12 210.18 L571.12 214.069 L566.838 214.069 L566.838 178.05 L571.12 178.05 L571.12 192.078 Z" fill="#000000" fill-rule="nonzero" fill-opacity="1" /><path clip-path="url(#clip920)" d="M596.653 203.837 L596.653 188.143 L600.912 188.143 L600.912 203.675 Q600.912 207.356 602.347 209.208 Q603.782 211.036 606.653 211.036 Q610.102 211.036 612.092 208.837 Q614.106 206.638 614.106 202.842 L614.106 188.143 L618.366 188.143 L618.366 214.069 L614.106 214.069 L614.106 210.087 Q612.555 212.448 610.495 213.606 Q608.458 214.74 605.75 214.74 Q601.282 214.74 598.968 211.962 Q596.653 209.184 596.653 203.837 M607.37 187.518 L607.37 187.518 Z" fill="#000000" fill-rule="nonzero" fill-opacity="1" /><path clip-path="url(#clip920)" d="M631.352 180.782 L631.352 188.143 L640.125 188.143 L640.125 191.453 L631.352 191.453 L631.352 205.527 Q631.352 208.698 632.208 209.601 Q633.088 210.504 635.75 210.504 L640.125 210.504 L640.125 214.069 L635.75 214.069 Q630.819 214.069 628.944 212.24 Q627.069 210.388 627.069 205.527 L627.069 191.453 L623.944 191.453 L623.944 188.143 L627.069 188.143 L627.069 180.782 L631.352 180.782 Z" fill="#000000" fill-rule="nonzero" fill-opacity="1" /><path clip-path="url(#clip920)" d="M645.727 188.143 L649.986 188.143 L649.986 214.069 L645.727 214.069 L645.727 188.143 M645.727 178.05 L649.986 178.05 L649.986 183.444 L645.727 183.444 L645.727 178.05 Z" fill="#000000" fill-rule="nonzero" fill-opacity="1" /><path clip-path="url(#clip920)" d="M668.944 191.129 Q665.518 191.129 663.527 193.814 Q661.537 196.476 661.537 201.129 Q661.537 205.782 663.504 208.467 Q665.495 211.129 668.944 211.129 Q672.347 211.129 674.337 208.444 Q676.328 205.758 676.328 201.129 Q676.328 196.522 674.337 193.837 Q672.347 191.129 668.944 191.129 M668.944 187.518 Q674.5 187.518 677.671 191.129 Q680.842 194.74 680.842 201.129 Q680.842 207.495 677.671 211.129 Q674.5 214.74 668.944 214.74 Q663.365 214.74 660.194 211.129 Q657.046 207.495 657.046 201.129 Q657.046 194.74 660.194 191.129 Q663.365 187.518 668.944 187.518 Z" fill="#000000" fill-rule="nonzero" fill-opacity="1" /><path clip-path="url(#clip920)" d="M709.453 198.421 L709.453 214.069 L705.194 214.069 L705.194 198.559 Q705.194 194.879 703.759 193.05 Q702.323 191.222 699.453 191.222 Q696.004 191.222 694.013 193.421 Q692.023 195.62 692.023 199.416 L692.023 214.069 L687.74 214.069 L687.74 188.143 L692.023 188.143 L692.023 192.171 Q693.55 189.833 695.611 188.675 Q697.694 187.518 700.402 187.518 Q704.87 187.518 707.161 190.296 Q709.453 193.05 709.453 198.421 Z" fill="#000000" fill-rule="nonzero" fill-opacity="1" /><path clip-path="url(#clip920)" d="M746.143 178.05 L746.143 181.592 L742.069 181.592 Q739.777 181.592 738.874 182.518 Q737.995 183.444 737.995 185.851 L737.995 188.143 L745.008 188.143 L745.008 191.453 L737.995 191.453 L737.995 214.069 L733.712 214.069 L733.712 191.453 L729.638 191.453 L729.638 188.143 L733.712 188.143 L733.712 186.337 Q733.712 182.009 735.726 180.041 Q737.74 178.05 742.115 178.05 L746.143 178.05 Z" fill="#000000" fill-rule="nonzero" fill-opacity="1" /><path clip-path="url(#clip920)" d="M749.707 188.143 L753.967 188.143 L753.967 214.069 L749.707 214.069 L749.707 188.143 M749.707 178.05 L753.967 178.05 L753.967 183.444 L749.707 183.444 L749.707 178.05 Z" fill="#000000" fill-rule="nonzero" fill-opacity="1" /><path clip-path="url(#clip920)" d="M767.092 180.782 L767.092 188.143 L775.865 188.143 L775.865 191.453 L767.092 191.453 L767.092 205.527 Q767.092 208.698 767.948 209.601 Q768.828 210.504 771.49 210.504 L775.865 210.504 L775.865 214.069 L771.49 214.069 Q766.559 214.069 764.684 212.24 Q762.809 210.388 762.809 205.527 L762.809 191.453 L759.684 191.453 L759.684 188.143 L762.809 188.143 L762.809 180.782 L767.092 180.782 Z" fill="#000000" fill-rule="nonzero" fill-opacity="1" /></svg>
