<?xml version="1.0" encoding="utf-8"?>
<svg xmlns="http://www.w3.org/2000/svg" xmlns:xlink="http://www.w3.org/1999/xlink" width="600" height="400" viewBox="0 0 2400 1600">
<defs>
  <clipPath id="clip730">
    <rect x="0" y="0" width="2400" height="1600"/>
  </clipPath>
</defs>
<path clip-path="url(#clip730)" d="M0 1600 L2400 1600 L2400 8.88178e-14 L0 8.88178e-14  Z" fill="#ffffff" fill-rule="evenodd" fill-opacity="1"/>
<defs>
  <clipPath id="clip731">
    <rect x="249" y="47" width="2104" height="1507"/>
  </clipPath>
</defs>
<path clip-path="url(#clip730)" d="M249.519 1552.76 L2352.76 1552.76 L2352.76 47.2441 L249.519 47.2441  Z" fill="#ffffff" fill-rule="evenodd" fill-opacity="1"/>
<polyline clip-path="url(#clip731)" style="stroke:#000000; stroke-linecap:round; stroke-linejoin:round; stroke-width:2; stroke-opacity:0.1; fill:none" points="249.519,1501.18 2352.76,1501.18 "/>
<polyline clip-path="url(#clip731)" style="stroke:#000000; stroke-linecap:round; stroke-linejoin:round; stroke-width:2; stroke-opacity:0.1; fill:none" points="249.519,1258.99 2352.76,1258.99 "/>
<polyline clip-path="url(#clip731)" style="stroke:#000000; stroke-linecap:round; stroke-linejoin:round; stroke-width:2; stroke-opacity:0.1; fill:none" points="249.519,1016.8 2352.76,1016.8 "/>
<polyline clip-path="url(#clip731)" style="stroke:#000000; stroke-linecap:round; stroke-linejoin:round; stroke-width:2; stroke-opacity:0.1; fill:none" points="249.519,774.613 2352.76,774.613 "/>
<polyline clip-path="url(#clip731)" style="stroke:#000000; stroke-linecap:round; stroke-linejoin:round; stroke-width:2; stroke-opacity:0.1; fill:none" points="249.519,532.422 2352.76,532.422 "/>
<polyline clip-path="url(#clip731)" style="stroke:#000000; stroke-linecap:round; stroke-linejoin:round; stroke-width:2; stroke-opacity:0.1; fill:none" points="249.519,290.232 2352.76,290.232 "/>
<polyline clip-path="url(#clip731)" style="stroke:#000000; stroke-linecap:round; stroke-linejoin:round; stroke-width:2; stroke-opacity:0.1; fill:none" points="249.519,48.041 2352.76,48.041 "/>
<polyline clip-path="url(#clip731)" style="stroke:#000000; stroke-linecap:round; stroke-linejoin:round; stroke-width:2; stroke-opacity:0.1; fill:none" points="249.519,1501.18 2352.76,1501.18 "/>
<polyline clip-path="url(#clip731)" style="stroke:#000000; stroke-linecap:round; stroke-linejoin:round; stroke-width:2; stroke-opacity:0.1; fill:none" points="249.519,1258.99 2352.76,1258.99 "/>
<polyline clip-path="url(#clip731)" style="stroke:#000000; stroke-linecap:round; stroke-linejoin:round; stroke-width:2; stroke-opacity:0.1; fill:none" points="249.519,1016.8 2352.76,1016.8 "/>
<polyline clip-path="url(#clip731)" style="stroke:#000000; stroke-linecap:round; stroke-linejoin:round; stroke-width:2; stroke-opacity:0.1; fill:none" points="249.519,774.613 2352.76,774.613 "/>
<polyline clip-path="url(#clip731)" style="stroke:#000000; stroke-linecap:round; stroke-linejoin:round; stroke-width:2; stroke-opacity:0.1; fill:none" points="249.519,532.422 2352.76,532.422 "/>
<polyline clip-path="url(#clip731)" style="stroke:#000000; stroke-linecap:round; stroke-linejoin:round; stroke-width:2; stroke-opacity:0.1; fill:none" points="249.519,290.232 2352.76,290.232 "/>
<polyline clip-path="url(#clip731)" style="stroke:#000000; stroke-linecap:round; stroke-linejoin:round; stroke-width:2; stroke-opacity:0.1; fill:none" points="249.519,48.041 2352.76,48.041 "/>
<polyline clip-path="url(#clip730)" style="stroke:#000000; stroke-linecap:round; stroke-linejoin:round; stroke-width:4; stroke-opacity:1; fill:none" points="249.519,1552.76 2352.76,1552.76 "/>
<polyline clip-path="url(#clip730)" style="stroke:#000000; stroke-linecap:round; stroke-linejoin:round; stroke-width:4; stroke-opacity:1; fill:none" points="249.519,47.2441 2352.76,47.2441 "/>
<polyline clip-path="url(#clip730)" style="stroke:#000000; stroke-linecap:round; stroke-linejoin:round; stroke-width:4; stroke-opacity:1; fill:none" points="249.519,1552.76 249.519,47.2441 "/>
<polyline clip-path="url(#clip730)" style="stroke:#000000; stroke-linecap:round; stroke-linejoin:round; stroke-width:4; stroke-opacity:1; fill:none" points="2352.76,1552.76 2352.76,47.2441 "/>
<polyline clip-path="url(#clip730)" style="stroke:#000000; stroke-linecap:round; stroke-linejoin:round; stroke-width:4; stroke-opacity:1; fill:none" points="249.519,1501.18 268.417,1501.18 "/>
<polyline clip-path="url(#clip730)" style="stroke:#000000; stroke-linecap:round; stroke-linejoin:round; stroke-width:4; stroke-opacity:1; fill:none" points="249.519,1258.99 268.417,1258.99 "/>
<polyline clip-path="url(#clip730)" style="stroke:#000000; stroke-linecap:round; stroke-linejoin:round; stroke-width:4; stroke-opacity:1; fill:none" points="249.519,1016.8 268.417,1016.8 "/>
<polyline clip-path="url(#clip730)" style="stroke:#000000; stroke-linecap:round; stroke-linejoin:round; stroke-width:4; stroke-opacity:1; fill:none" points="249.519,774.613 268.417,774.613 "/>
<polyline clip-path="url(#clip730)" style="stroke:#000000; stroke-linecap:round; stroke-linejoin:round; stroke-width:4; stroke-opacity:1; fill:none" points="249.519,532.422 268.417,532.422 "/>
<polyline clip-path="url(#clip730)" style="stroke:#000000; stroke-linecap:round; stroke-linejoin:round; stroke-width:4; stroke-opacity:1; fill:none" points="249.519,290.232 268.417,290.232 "/>
<polyline clip-path="url(#clip730)" style="stroke:#000000; stroke-linecap:round; stroke-linejoin:round; stroke-width:4; stroke-opacity:1; fill:none" points="249.519,48.041 268.417,48.041 "/>
<polyline clip-path="url(#clip730)" style="stroke:#000000; stroke-linecap:round; stroke-linejoin:round; stroke-width:4; stroke-opacity:1; fill:none" points="2352.76,1501.18 2333.86,1501.18 "/>
<polyline clip-path="url(#clip730)" style="stroke:#000000; stroke-linecap:round; stroke-linejoin:round; stroke-width:4; stroke-opacity:1; fill:none" points="2352.76,1258.99 2333.86,1258.99 "/>
<polyline clip-path="url(#clip730)" style="stroke:#000000; stroke-linecap:round; stroke-linejoin:round; stroke-width:4; stroke-opacity:1; fill:none" points="2352.76,1016.8 2333.86,1016.8 "/>
<polyline clip-path="url(#clip730)" style="stroke:#000000; stroke-linecap:round; stroke-linejoin:round; stroke-width:4; stroke-opacity:1; fill:none" points="2352.76,774.613 2333.86,774.613 "/>
<polyline clip-path="url(#clip730)" style="stroke:#000000; stroke-linecap:round; stroke-linejoin:round; stroke-width:4; stroke-opacity:1; fill:none" points="2352.76,532.422 2333.86,532.422 "/>
<polyline clip-path="url(#clip730)" style="stroke:#000000; stroke-linecap:round; stroke-linejoin:round; stroke-width:4; stroke-opacity:1; fill:none" points="2352.76,290.232 2333.86,290.232 "/>
<polyline clip-path="url(#clip730)" style="stroke:#000000; stroke-linecap:round; stroke-linejoin:round; stroke-width:4; stroke-opacity:1; fill:none" points="2352.76,48.041 2333.86,48.041 "/>
<path clip-path="url(#clip730)" d="M126.598 1499.32 Q123.45 1499.32 121.598 1501.47 Q119.769 1503.63 119.769 1507.38 Q119.769 1511.1 121.598 1513.28 Q123.45 1515.43 126.598 1515.43 Q129.746 1515.43 131.575 1513.28 Q133.427 1511.1 133.427 1507.38 Q133.427 1503.63 131.575 1501.47 Q129.746 1499.32 126.598 1499.32 M135.88 1484.67 L135.88 1488.93 Q134.121 1488.09 132.316 1487.65 Q130.533 1487.21 128.774 1487.21 Q124.144 1487.21 121.691 1490.34 Q119.26 1493.46 118.913 1499.78 Q120.279 1497.77 122.339 1496.71 Q124.399 1495.62 126.876 1495.62 Q132.084 1495.62 135.093 1498.79 Q138.126 1501.94 138.126 1507.38 Q138.126 1512.7 134.978 1515.92 Q131.83 1519.14 126.598 1519.14 Q120.603 1519.14 117.431 1514.55 Q114.26 1509.95 114.26 1501.22 Q114.26 1493.02 118.149 1488.16 Q122.038 1483.28 128.589 1483.28 Q130.348 1483.28 132.13 1483.63 Q133.936 1483.97 135.88 1484.67 Z" fill="#000000" fill-rule="nonzero" fill-opacity="1" /><path clip-path="url(#clip730)" d="M146.228 1483.9 L164.584 1483.9 L164.584 1487.84 L150.51 1487.84 L150.51 1496.31 Q151.528 1495.96 152.547 1495.8 Q153.566 1495.62 154.584 1495.62 Q160.371 1495.62 163.751 1498.79 Q167.13 1501.96 167.13 1507.38 Q167.13 1512.96 163.658 1516.06 Q160.186 1519.14 153.866 1519.14 Q151.691 1519.14 149.422 1518.77 Q147.177 1518.39 144.769 1517.65 L144.769 1512.96 Q146.853 1514.09 149.075 1514.64 Q151.297 1515.2 153.774 1515.2 Q157.778 1515.2 160.116 1513.09 Q162.454 1510.99 162.454 1507.38 Q162.454 1503.77 160.116 1501.66 Q157.778 1499.55 153.774 1499.55 Q151.899 1499.55 150.024 1499.97 Q148.172 1500.39 146.228 1501.27 L146.228 1483.9 Z" fill="#000000" fill-rule="nonzero" fill-opacity="1" /><path clip-path="url(#clip730)" d="M176.343 1512.58 L181.227 1512.58 L181.227 1518.46 L176.343 1518.46 L176.343 1512.58 Z" fill="#000000" fill-rule="nonzero" fill-opacity="1" /><path clip-path="url(#clip730)" d="M201.991 1499.32 Q198.843 1499.32 196.991 1501.47 Q195.163 1503.63 195.163 1507.38 Q195.163 1511.1 196.991 1513.28 Q198.843 1515.43 201.991 1515.43 Q205.139 1515.43 206.968 1513.28 Q208.82 1511.1 208.82 1507.38 Q208.82 1503.63 206.968 1501.47 Q205.139 1499.32 201.991 1499.32 M211.274 1484.67 L211.274 1488.93 Q209.514 1488.09 207.709 1487.65 Q205.926 1487.21 204.167 1487.21 Q199.537 1487.21 197.084 1490.34 Q194.653 1493.46 194.306 1499.78 Q195.672 1497.77 197.732 1496.71 Q199.792 1495.62 202.269 1495.62 Q207.477 1495.62 210.486 1498.79 Q213.519 1501.94 213.519 1507.38 Q213.519 1512.7 210.371 1515.92 Q207.223 1519.14 201.991 1519.14 Q195.996 1519.14 192.825 1514.55 Q189.653 1509.95 189.653 1501.22 Q189.653 1493.02 193.542 1488.16 Q197.431 1483.28 203.982 1483.28 Q205.741 1483.28 207.524 1483.63 Q209.329 1483.97 211.274 1484.67 Z" fill="#000000" fill-rule="nonzero" fill-opacity="1" /><path clip-path="url(#clip730)" d="M127.663 1257.13 Q124.515 1257.13 122.663 1259.28 Q120.834 1261.44 120.834 1265.19 Q120.834 1268.91 122.663 1271.09 Q124.515 1273.24 127.663 1273.24 Q130.811 1273.24 132.64 1271.09 Q134.492 1268.91 134.492 1265.19 Q134.492 1261.44 132.64 1259.28 Q130.811 1257.13 127.663 1257.13 M136.945 1242.48 L136.945 1246.74 Q135.186 1245.9 133.38 1245.46 Q131.598 1245.02 129.839 1245.02 Q125.209 1245.02 122.755 1248.15 Q120.325 1251.27 119.978 1257.59 Q121.343 1255.58 123.404 1254.51 Q125.464 1253.43 127.941 1253.43 Q133.149 1253.43 136.158 1256.6 Q139.191 1259.75 139.191 1265.19 Q139.191 1270.51 136.042 1273.73 Q132.894 1276.95 127.663 1276.95 Q121.668 1276.95 118.496 1272.36 Q115.325 1267.76 115.325 1259.03 Q115.325 1250.83 119.214 1245.97 Q123.103 1241.09 129.654 1241.09 Q131.413 1241.09 133.195 1241.44 Q135.001 1241.78 136.945 1242.48 Z" fill="#000000" fill-rule="nonzero" fill-opacity="1" /><path clip-path="url(#clip730)" d="M147.292 1241.71 L165.649 1241.71 L165.649 1245.65 L151.575 1245.65 L151.575 1254.12 Q152.593 1253.77 153.612 1253.61 Q154.63 1253.43 155.649 1253.43 Q161.436 1253.43 164.815 1256.6 Q168.195 1259.77 168.195 1265.19 Q168.195 1270.76 164.723 1273.87 Q161.251 1276.95 154.931 1276.95 Q152.755 1276.95 150.487 1276.57 Q148.241 1276.2 145.834 1275.46 L145.834 1270.76 Q147.917 1271.9 150.14 1272.45 Q152.362 1273.01 154.839 1273.01 Q158.843 1273.01 161.181 1270.9 Q163.519 1268.8 163.519 1265.19 Q163.519 1261.57 161.181 1259.47 Q158.843 1257.36 154.839 1257.36 Q152.964 1257.36 151.089 1257.78 Q149.237 1258.2 147.292 1259.07 L147.292 1241.71 Z" fill="#000000" fill-rule="nonzero" fill-opacity="1" /><path clip-path="url(#clip730)" d="M177.408 1270.39 L182.292 1270.39 L182.292 1276.27 L177.408 1276.27 L177.408 1270.39 Z" fill="#000000" fill-rule="nonzero" fill-opacity="1" /><path clip-path="url(#clip730)" d="M191.297 1241.71 L213.519 1241.71 L213.519 1243.7 L200.973 1276.27 L196.088 1276.27 L207.894 1245.65 L191.297 1245.65 L191.297 1241.71 Z" fill="#000000" fill-rule="nonzero" fill-opacity="1" /><path clip-path="url(#clip730)" d="M126.853 1014.94 Q123.705 1014.94 121.853 1017.09 Q120.024 1019.25 120.024 1023 Q120.024 1026.72 121.853 1028.9 Q123.705 1031.05 126.853 1031.05 Q130.001 1031.05 131.83 1028.9 Q133.681 1026.72 133.681 1023 Q133.681 1019.25 131.83 1017.09 Q130.001 1014.94 126.853 1014.94 M136.135 1000.29 L136.135 1004.55 Q134.376 1003.71 132.57 1003.27 Q130.788 1002.83 129.029 1002.83 Q124.399 1002.83 121.945 1005.96 Q119.515 1009.08 119.168 1015.4 Q120.533 1013.39 122.593 1012.32 Q124.654 1011.24 127.13 1011.24 Q132.339 1011.24 135.348 1014.41 Q138.38 1017.56 138.38 1023 Q138.38 1028.32 135.232 1031.54 Q132.084 1034.75 126.853 1034.75 Q120.857 1034.75 117.686 1030.17 Q114.515 1025.56 114.515 1016.84 Q114.515 1008.64 118.404 1003.78 Q122.293 998.898 128.843 998.898 Q130.603 998.898 132.385 999.245 Q134.191 999.593 136.135 1000.29 Z" fill="#000000" fill-rule="nonzero" fill-opacity="1" /><path clip-path="url(#clip730)" d="M146.482 999.523 L164.839 999.523 L164.839 1003.46 L150.765 1003.46 L150.765 1011.93 Q151.783 1011.58 152.802 1011.42 Q153.82 1011.24 154.839 1011.24 Q160.626 1011.24 164.005 1014.41 Q167.385 1017.58 167.385 1023 Q167.385 1028.57 163.913 1031.68 Q160.44 1034.75 154.121 1034.75 Q151.945 1034.75 149.677 1034.38 Q147.431 1034.01 145.024 1033.27 L145.024 1028.57 Q147.107 1029.71 149.329 1030.26 Q151.552 1030.82 154.028 1030.82 Q158.033 1030.82 160.371 1028.71 Q162.709 1026.61 162.709 1023 Q162.709 1019.38 160.371 1017.28 Q158.033 1015.17 154.028 1015.17 Q152.153 1015.17 150.278 1015.59 Q148.427 1016 146.482 1016.88 L146.482 999.523 Z" fill="#000000" fill-rule="nonzero" fill-opacity="1" /><path clip-path="url(#clip730)" d="M176.598 1028.2 L181.482 1028.2 L181.482 1034.08 L176.598 1034.08 L176.598 1028.2 Z" fill="#000000" fill-rule="nonzero" fill-opacity="1" /><path clip-path="url(#clip730)" d="M201.667 1017.67 Q198.334 1017.67 196.412 1019.45 Q194.514 1021.24 194.514 1024.36 Q194.514 1027.49 196.412 1029.27 Q198.334 1031.05 201.667 1031.05 Q205 1031.05 206.922 1029.27 Q208.843 1027.46 208.843 1024.36 Q208.843 1021.24 206.922 1019.45 Q205.024 1017.67 201.667 1017.67 M196.991 1015.68 Q193.982 1014.94 192.292 1012.88 Q190.625 1010.82 190.625 1007.86 Q190.625 1003.71 193.565 1001.31 Q196.528 998.898 201.667 998.898 Q206.829 998.898 209.769 1001.31 Q212.709 1003.71 212.709 1007.86 Q212.709 1010.82 211.019 1012.88 Q209.352 1014.94 206.366 1015.68 Q209.746 1016.47 211.621 1018.76 Q213.519 1021.05 213.519 1024.36 Q213.519 1029.38 210.44 1032.07 Q207.385 1034.75 201.667 1034.75 Q195.95 1034.75 192.871 1032.07 Q189.815 1029.38 189.815 1024.36 Q189.815 1021.05 191.713 1018.76 Q193.612 1016.47 196.991 1015.68 M195.278 1008.3 Q195.278 1010.98 196.945 1012.49 Q198.635 1013.99 201.667 1013.99 Q204.676 1013.99 206.366 1012.49 Q208.079 1010.98 208.079 1008.3 Q208.079 1005.61 206.366 1004.11 Q204.676 1002.6 201.667 1002.6 Q198.635 1002.6 196.945 1004.11 Q195.278 1005.61 195.278 1008.3 Z" fill="#000000" fill-rule="nonzero" fill-opacity="1" /><path clip-path="url(#clip730)" d="M126.945 772.749 Q123.797 772.749 121.945 774.902 Q120.117 777.055 120.117 780.805 Q120.117 784.532 121.945 786.708 Q123.797 788.86 126.945 788.86 Q130.093 788.86 131.922 786.708 Q133.774 784.532 133.774 780.805 Q133.774 777.055 131.922 774.902 Q130.093 772.749 126.945 772.749 M136.228 758.097 L136.228 762.356 Q134.468 761.522 132.663 761.083 Q130.88 760.643 129.121 760.643 Q124.492 760.643 122.038 763.768 Q119.607 766.893 119.26 773.212 Q120.626 771.198 122.686 770.134 Q124.746 769.046 127.223 769.046 Q132.431 769.046 135.441 772.217 Q138.473 775.365 138.473 780.805 Q138.473 786.129 135.325 789.346 Q132.177 792.564 126.945 792.564 Q120.95 792.564 117.779 787.981 Q114.607 783.374 114.607 774.647 Q114.607 766.453 118.496 761.592 Q122.385 756.708 128.936 756.708 Q130.695 756.708 132.478 757.055 Q134.283 757.402 136.228 758.097 Z" fill="#000000" fill-rule="nonzero" fill-opacity="1" /><path clip-path="url(#clip730)" d="M146.575 757.333 L164.931 757.333 L164.931 761.268 L150.857 761.268 L150.857 769.74 Q151.876 769.393 152.894 769.231 Q153.913 769.046 154.931 769.046 Q160.718 769.046 164.098 772.217 Q167.477 775.388 167.477 780.805 Q167.477 786.383 164.005 789.485 Q160.533 792.564 154.214 792.564 Q152.038 792.564 149.769 792.194 Q147.524 791.823 145.116 791.082 L145.116 786.383 Q147.2 787.518 149.422 788.073 Q151.644 788.629 154.121 788.629 Q158.126 788.629 160.464 786.522 Q162.802 784.416 162.802 780.805 Q162.802 777.194 160.464 775.087 Q158.126 772.981 154.121 772.981 Q152.246 772.981 150.371 773.397 Q148.519 773.814 146.575 774.694 L146.575 757.333 Z" fill="#000000" fill-rule="nonzero" fill-opacity="1" /><path clip-path="url(#clip730)" d="M176.69 786.013 L181.575 786.013 L181.575 791.893 L176.69 791.893 L176.69 786.013 Z" fill="#000000" fill-rule="nonzero" fill-opacity="1" /><path clip-path="url(#clip730)" d="M191.899 791.175 L191.899 786.916 Q193.658 787.749 195.463 788.189 Q197.269 788.629 199.005 788.629 Q203.635 788.629 206.065 785.527 Q208.519 782.402 208.866 776.059 Q207.524 778.05 205.463 779.115 Q203.403 780.18 200.903 780.18 Q195.718 780.18 192.686 777.055 Q189.676 773.907 189.676 768.467 Q189.676 763.143 192.825 759.925 Q195.973 756.708 201.204 756.708 Q207.199 756.708 210.348 761.314 Q213.519 765.897 213.519 774.647 Q213.519 782.819 209.63 787.703 Q205.764 792.564 199.213 792.564 Q197.454 792.564 195.649 792.217 Q193.843 791.87 191.899 791.175 M201.204 776.522 Q204.352 776.522 206.181 774.37 Q208.033 772.217 208.033 768.467 Q208.033 764.74 206.181 762.587 Q204.352 760.411 201.204 760.411 Q198.056 760.411 196.204 762.587 Q194.375 764.74 194.375 768.467 Q194.375 772.217 196.204 774.37 Q198.056 776.522 201.204 776.522 Z" fill="#000000" fill-rule="nonzero" fill-opacity="1" /><path clip-path="url(#clip730)" d="M126.76 530.559 Q123.612 530.559 121.76 532.711 Q119.931 534.864 119.931 538.614 Q119.931 542.341 121.76 544.517 Q123.612 546.67 126.76 546.67 Q129.908 546.67 131.737 544.517 Q133.589 542.341 133.589 538.614 Q133.589 534.864 131.737 532.711 Q129.908 530.559 126.76 530.559 M136.042 515.906 L136.042 520.165 Q134.283 519.332 132.478 518.892 Q130.695 518.452 128.936 518.452 Q124.306 518.452 121.853 521.577 Q119.422 524.702 119.075 531.022 Q120.441 529.008 122.501 527.943 Q124.561 526.855 127.038 526.855 Q132.246 526.855 135.255 530.026 Q138.288 533.174 138.288 538.614 Q138.288 543.938 135.14 547.156 Q131.992 550.373 126.76 550.373 Q120.765 550.373 117.593 545.79 Q114.422 541.184 114.422 532.457 Q114.422 524.262 118.311 519.401 Q122.2 514.517 128.751 514.517 Q130.51 514.517 132.292 514.864 Q134.098 515.212 136.042 515.906 Z" fill="#000000" fill-rule="nonzero" fill-opacity="1" /><path clip-path="url(#clip730)" d="M156.922 530.559 Q153.774 530.559 151.922 532.711 Q150.093 534.864 150.093 538.614 Q150.093 542.341 151.922 544.517 Q153.774 546.67 156.922 546.67 Q160.07 546.67 161.899 544.517 Q163.751 542.341 163.751 538.614 Q163.751 534.864 161.899 532.711 Q160.07 530.559 156.922 530.559 M166.204 515.906 L166.204 520.165 Q164.445 519.332 162.64 518.892 Q160.857 518.452 159.098 518.452 Q154.468 518.452 152.015 521.577 Q149.584 524.702 149.237 531.022 Q150.603 529.008 152.663 527.943 Q154.723 526.855 157.2 526.855 Q162.408 526.855 165.417 530.026 Q168.45 533.174 168.45 538.614 Q168.45 543.938 165.302 547.156 Q162.153 550.373 156.922 550.373 Q150.927 550.373 147.755 545.79 Q144.584 541.184 144.584 532.457 Q144.584 524.262 148.473 519.401 Q152.362 514.517 158.913 514.517 Q160.672 514.517 162.454 514.864 Q164.26 515.212 166.204 515.906 Z" fill="#000000" fill-rule="nonzero" fill-opacity="1" /><path clip-path="url(#clip730)" d="M176.505 543.822 L181.389 543.822 L181.389 549.702 L176.505 549.702 L176.505 543.822 Z" fill="#000000" fill-rule="nonzero" fill-opacity="1" /><path clip-path="url(#clip730)" d="M201.575 518.221 Q197.963 518.221 196.135 521.786 Q194.329 525.327 194.329 532.457 Q194.329 539.563 196.135 543.128 Q197.963 546.67 201.575 546.67 Q205.209 546.67 207.014 543.128 Q208.843 539.563 208.843 532.457 Q208.843 525.327 207.014 521.786 Q205.209 518.221 201.575 518.221 M201.575 514.517 Q207.385 514.517 210.44 519.124 Q213.519 523.707 213.519 532.457 Q213.519 541.184 210.44 545.79 Q207.385 550.373 201.575 550.373 Q195.764 550.373 192.686 545.79 Q189.63 541.184 189.63 532.457 Q189.63 523.707 192.686 519.124 Q195.764 514.517 201.575 514.517 Z" fill="#000000" fill-rule="nonzero" fill-opacity="1" /><path clip-path="url(#clip730)" d="M127.987 288.368 Q124.839 288.368 122.987 290.521 Q121.158 292.674 121.158 296.424 Q121.158 300.15 122.987 302.326 Q124.839 304.479 127.987 304.479 Q131.135 304.479 132.964 302.326 Q134.816 300.15 134.816 296.424 Q134.816 292.674 132.964 290.521 Q131.135 288.368 127.987 288.368 M137.269 273.715 L137.269 277.975 Q135.51 277.141 133.704 276.702 Q131.922 276.262 130.163 276.262 Q125.533 276.262 123.08 279.387 Q120.649 282.512 120.302 288.831 Q121.668 286.817 123.728 285.752 Q125.788 284.664 128.265 284.664 Q133.473 284.664 136.482 287.836 Q139.515 290.984 139.515 296.424 Q139.515 301.748 136.367 304.965 Q133.218 308.183 127.987 308.183 Q121.992 308.183 118.82 303.6 Q115.649 298.993 115.649 290.266 Q115.649 282.072 119.538 277.211 Q123.427 272.327 129.978 272.327 Q131.737 272.327 133.519 272.674 Q135.325 273.021 137.269 273.715 Z" fill="#000000" fill-rule="nonzero" fill-opacity="1" /><path clip-path="url(#clip730)" d="M158.149 288.368 Q155.001 288.368 153.149 290.521 Q151.32 292.674 151.32 296.424 Q151.32 300.15 153.149 302.326 Q155.001 304.479 158.149 304.479 Q161.297 304.479 163.126 302.326 Q164.977 300.15 164.977 296.424 Q164.977 292.674 163.126 290.521 Q161.297 288.368 158.149 288.368 M167.431 273.715 L167.431 277.975 Q165.672 277.141 163.866 276.702 Q162.084 276.262 160.325 276.262 Q155.695 276.262 153.241 279.387 Q150.811 282.512 150.464 288.831 Q151.829 286.817 153.89 285.752 Q155.95 284.664 158.427 284.664 Q163.635 284.664 166.644 287.836 Q169.677 290.984 169.677 296.424 Q169.677 301.748 166.528 304.965 Q163.38 308.183 158.149 308.183 Q152.153 308.183 148.982 303.6 Q145.811 298.993 145.811 290.266 Q145.811 282.072 149.7 277.211 Q153.589 272.327 160.14 272.327 Q161.899 272.327 163.681 272.674 Q165.487 273.021 167.431 273.715 Z" fill="#000000" fill-rule="nonzero" fill-opacity="1" /><path clip-path="url(#clip730)" d="M177.732 301.632 L182.616 301.632 L182.616 307.512 L177.732 307.512 L177.732 301.632 Z" fill="#000000" fill-rule="nonzero" fill-opacity="1" /><path clip-path="url(#clip730)" d="M193.612 303.576 L201.25 303.576 L201.25 277.211 L192.94 278.877 L192.94 274.618 L201.204 272.952 L205.88 272.952 L205.88 303.576 L213.519 303.576 L213.519 307.512 L193.612 307.512 L193.612 303.576 Z" fill="#000000" fill-rule="nonzero" fill-opacity="1" /><path clip-path="url(#clip730)" d="M128.357 46.1775 Q125.209 46.1775 123.357 48.3303 Q121.529 50.4831 121.529 54.2331 Q121.529 57.9599 123.357 60.1358 Q125.209 62.2886 128.357 62.2886 Q131.505 62.2886 133.334 60.1358 Q135.186 57.9599 135.186 54.2331 Q135.186 50.4831 133.334 48.3303 Q131.505 46.1775 128.357 46.1775 M137.64 31.5248 L137.64 35.7841 Q135.88 34.9508 134.075 34.5109 Q132.292 34.0711 130.533 34.0711 Q125.904 34.0711 123.45 37.1961 Q121.019 40.3211 120.672 46.6405 Q122.038 44.6266 124.098 43.5618 Q126.158 42.4739 128.635 42.4739 Q133.843 42.4739 136.853 45.6451 Q139.885 48.7933 139.885 54.2331 Q139.885 59.5571 136.737 62.7747 Q133.589 65.9923 128.357 65.9923 Q122.362 65.9923 119.191 61.4089 Q116.019 56.8025 116.019 48.0757 Q116.019 39.8813 119.908 35.0202 Q123.797 30.136 130.348 30.136 Q132.107 30.136 133.89 30.4832 Q135.695 30.8304 137.64 31.5248 Z" fill="#000000" fill-rule="nonzero" fill-opacity="1" /><path clip-path="url(#clip730)" d="M158.519 46.1775 Q155.371 46.1775 153.519 48.3303 Q151.691 50.4831 151.691 54.2331 Q151.691 57.9599 153.519 60.1358 Q155.371 62.2886 158.519 62.2886 Q161.667 62.2886 163.496 60.1358 Q165.348 57.9599 165.348 54.2331 Q165.348 50.4831 163.496 48.3303 Q161.667 46.1775 158.519 46.1775 M167.802 31.5248 L167.802 35.7841 Q166.042 34.9508 164.237 34.5109 Q162.454 34.0711 160.695 34.0711 Q156.065 34.0711 153.612 37.1961 Q151.181 40.3211 150.834 46.6405 Q152.2 44.6266 154.26 43.5618 Q156.32 42.4739 158.797 42.4739 Q164.005 42.4739 167.015 45.6451 Q170.047 48.7933 170.047 54.2331 Q170.047 59.5571 166.899 62.7747 Q163.751 65.9923 158.519 65.9923 Q152.524 65.9923 149.353 61.4089 Q146.181 56.8025 146.181 48.0757 Q146.181 39.8813 150.07 35.0202 Q153.959 30.136 160.51 30.136 Q162.269 30.136 164.052 30.4832 Q165.857 30.8304 167.802 31.5248 Z" fill="#000000" fill-rule="nonzero" fill-opacity="1" /><path clip-path="url(#clip730)" d="M178.102 59.4414 L182.987 59.4414 L182.987 65.321 L178.102 65.321 L178.102 59.4414 Z" fill="#000000" fill-rule="nonzero" fill-opacity="1" /><path clip-path="url(#clip730)" d="M197.2 61.3858 L213.519 61.3858 L213.519 65.321 L191.575 65.321 L191.575 61.3858 Q194.237 58.6312 198.82 54.0016 Q203.426 49.3488 204.607 48.0062 Q206.852 45.4831 207.732 43.747 Q208.635 41.9877 208.635 40.2979 Q208.635 37.5433 206.69 35.8072 Q204.769 34.0711 201.667 34.0711 Q199.468 34.0711 197.014 34.835 Q194.584 35.5989 191.806 37.1498 L191.806 32.4276 Q194.63 31.2934 197.084 30.7147 Q199.537 30.136 201.575 30.136 Q206.945 30.136 210.139 32.8211 Q213.334 35.5063 213.334 39.997 Q213.334 42.1266 212.524 44.0479 Q211.736 45.9461 209.63 48.5386 Q209.051 49.2099 205.949 52.4275 Q202.848 55.6219 197.2 61.3858 Z" fill="#000000" fill-rule="nonzero" fill-opacity="1" /><path clip-path="url(#clip730)" d="M22.818 922.094 L46.4666 930.815 L46.4666 913.341 L22.818 922.094 M16.4842 925.723 L16.4842 918.434 L64.0042 900.324 L64.0042 907.008 L51.8138 911.336 L51.8138 932.757 L64.0042 937.085 L64.0042 943.865 L16.4842 925.723 Z" fill="#000000" fill-rule="nonzero" fill-opacity="1" /><path clip-path="url(#clip730)" d="M45.7664 870.182 Q39.4007 870.182 35.8996 872.824 Q32.3984 875.434 32.3984 880.176 Q32.3984 884.887 35.8996 887.528 Q39.4007 890.138 45.7664 890.138 Q52.1003 890.138 55.6014 887.528 Q59.1026 884.887 59.1026 880.176 Q59.1026 875.434 55.6014 872.824 Q52.1003 870.182 45.7664 870.182 M59.58 864.325 Q68.683 864.325 73.1071 868.368 Q77.5631 872.41 77.5631 880.749 Q77.5631 883.836 77.0857 886.574 Q76.6401 889.311 75.6852 891.889 L69.9879 891.889 Q71.3884 889.311 72.0568 886.796 Q72.7252 884.282 72.7252 881.672 Q72.7252 875.911 69.7015 873.046 Q66.7096 870.182 60.6303 870.182 L57.7339 870.182 Q60.885 871.996 62.4446 874.829 Q64.0042 877.662 64.0042 881.608 Q64.0042 888.165 59.0071 892.175 Q54.01 896.186 45.7664 896.186 Q37.491 896.186 32.4939 892.175 Q27.4968 888.165 27.4968 881.608 Q27.4968 877.662 29.0564 874.829 Q30.616 871.996 33.7671 870.182 L28.3562 870.182 L28.3562 864.325 L59.58 864.325 Z" fill="#000000" fill-rule="nonzero" fill-opacity="1" /><path clip-path="url(#clip730)" d="M44.7161 821.771 L47.5806 821.771 L47.5806 848.698 Q53.6281 848.316 56.8109 845.069 Q59.9619 841.791 59.9619 835.966 Q59.9619 832.592 59.1344 829.441 Q58.3069 826.259 56.6518 823.139 L62.1899 823.139 Q63.5267 826.29 64.227 829.601 Q64.9272 832.911 64.9272 836.316 Q64.9272 844.846 59.9619 849.843 Q54.9967 854.809 46.5303 854.809 Q37.7774 854.809 32.6531 850.098 Q27.4968 845.356 27.4968 837.335 Q27.4968 830.142 32.1438 825.972 Q36.7589 821.771 44.7161 821.771 M42.9973 827.627 Q38.1912 827.691 35.3266 830.333 Q32.4621 832.943 32.4621 837.271 Q32.4621 842.173 35.2312 845.133 Q38.0002 848.061 43.0292 848.507 L42.9973 827.627 Z" fill="#000000" fill-rule="nonzero" fill-opacity="1" /><path clip-path="url(#clip730)" d="M14.5426 777.37 Q21.8632 781.635 29.0246 783.704 Q36.186 785.773 43.5384 785.773 Q50.8908 785.773 58.1159 783.704 Q65.3091 781.603 72.5979 777.37 L72.5979 782.462 Q65.1182 787.237 57.8931 789.624 Q50.668 791.979 43.5384 791.979 Q36.4406 791.979 29.2474 789.624 Q22.0542 787.269 14.5426 782.462 L14.5426 777.37 Z" fill="#000000" fill-rule="nonzero" fill-opacity="1" /><path clip-path="url(#clip730)" d="M16.4842 765.752 L16.4842 756.172 L48.8219 744.045 L16.4842 731.855 L16.4842 722.275 L64.0042 722.275 L64.0042 728.545 L22.277 728.545 L54.8694 740.799 L54.8694 747.26 L22.277 759.514 L64.0042 759.514 L64.0042 765.752 L16.4842 765.752 Z" fill="#000000" fill-rule="nonzero" fill-opacity="1" /><path clip-path="url(#clip730)" d="M46.0847 693.565 Q46.0847 700.663 47.7079 703.4 Q49.3312 706.138 53.2461 706.138 Q56.3653 706.138 58.2114 704.101 Q60.0256 702.032 60.0256 698.499 Q60.0256 693.629 56.5881 690.701 Q53.1188 687.741 47.3897 687.741 L46.0847 687.741 L46.0847 693.565 M43.6657 681.884 L64.0042 681.884 L64.0042 687.741 L58.5933 687.741 Q61.8398 689.746 63.3994 692.738 Q64.9272 695.73 64.9272 700.058 Q64.9272 705.533 61.8716 708.779 Q58.7843 711.994 53.6281 711.994 Q47.6125 711.994 44.5569 707.984 Q41.5014 703.941 41.5014 695.953 L41.5014 687.741 L40.9285 687.741 Q36.8862 687.741 34.6901 690.414 Q32.4621 693.056 32.4621 697.862 Q32.4621 700.918 33.1941 703.814 Q33.9262 706.711 35.3903 709.384 L29.9795 709.384 Q28.7381 706.169 28.1334 703.146 Q27.4968 700.122 27.4968 697.257 Q27.4968 689.523 31.5072 685.704 Q35.5176 681.884 43.6657 681.884 Z" fill="#000000" fill-rule="nonzero" fill-opacity="1" /><path clip-path="url(#clip730)" d="M14.5426 670.744 L14.5426 665.652 Q22.0542 660.877 29.2474 658.522 Q36.4406 656.135 43.5384 656.135 Q50.668 656.135 57.8931 658.522 Q65.1182 660.877 72.5979 665.652 L72.5979 670.744 Q65.3091 666.511 58.1159 664.442 Q50.8908 662.342 43.5384 662.342 Q36.186 662.342 29.0246 664.442 Q21.8632 666.511 14.5426 670.744 Z" fill="#000000" fill-rule="nonzero" fill-opacity="1" /><polyline clip-path="url(#clip731)" style="stroke:#009af9; stroke-linecap:round; stroke-linejoin:round; stroke-width:4; stroke-opacity:1; fill:none" points="309.044,1372.83 309.044,354.069 "/>
<polyline clip-path="url(#clip731)" style="stroke:#009af9; stroke-linecap:round; stroke-linejoin:round; stroke-width:4; stroke-opacity:1; fill:none" points="970.44,1510.15 970.44,89.8529 "/>
<polyline clip-path="url(#clip731)" style="stroke:#009af9; stroke-linecap:round; stroke-linejoin:round; stroke-width:4; stroke-opacity:1; fill:none" points="1631.84,1118.41 1631.84,480.885 "/>
<polyline clip-path="url(#clip731)" style="stroke:#009af9; stroke-linecap:round; stroke-linejoin:round; stroke-width:4; stroke-opacity:1; fill:none" points="2293.23,624.393 2293.23,358.709 "/>
<line clip-path="url(#clip731)" x1="325.044" y1="1372.83" x2="293.044" y2="1372.83" style="stroke:#009af9; stroke-width:4; stroke-opacity:1"/>
<line clip-path="url(#clip731)" x1="325.044" y1="354.069" x2="293.044" y2="354.069" style="stroke:#009af9; stroke-width:4; stroke-opacity:1"/>
<line clip-path="url(#clip731)" x1="986.44" y1="1510.15" x2="954.44" y2="1510.15" style="stroke:#009af9; stroke-width:4; stroke-opacity:1"/>
<line clip-path="url(#clip731)" x1="986.44" y1="89.8529" x2="954.44" y2="89.8529" style="stroke:#009af9; stroke-width:4; stroke-opacity:1"/>
<line clip-path="url(#clip731)" x1="1647.84" y1="1118.41" x2="1615.84" y2="1118.41" style="stroke:#009af9; stroke-width:4; stroke-opacity:1"/>
<line clip-path="url(#clip731)" x1="1647.84" y1="480.885" x2="1615.84" y2="480.885" style="stroke:#009af9; stroke-width:4; stroke-opacity:1"/>
<line clip-path="url(#clip731)" x1="2309.23" y1="624.393" x2="2277.23" y2="624.393" style="stroke:#009af9; stroke-width:4; stroke-opacity:1"/>
<line clip-path="url(#clip731)" x1="2309.23" y1="358.709" x2="2277.23" y2="358.709" style="stroke:#009af9; stroke-width:4; stroke-opacity:1"/>
<circle clip-path="url(#clip731)" cx="309.044" cy="863.448" r="14.4" fill="#009af9" fill-rule="evenodd" fill-opacity="1" stroke="none"/>
<circle clip-path="url(#clip731)" cx="970.44" cy="800" r="14.4" fill="#009af9" fill-rule="evenodd" fill-opacity="1" stroke="none"/>
<circle clip-path="url(#clip731)" cx="1631.84" cy="799.646" r="14.4" fill="#009af9" fill-rule="evenodd" fill-opacity="1" stroke="none"/>
<circle clip-path="url(#clip731)" cx="2293.23" cy="491.551" r="14.4" fill="#009af9" fill-rule="evenodd" fill-opacity="1" stroke="none"/>
<path clip-path="url(#clip731)" d="M309.044 1136.24 L970.44 1136.24 L1631.84 1136.24 L2293.23 1136.24 L2293.23 510.563 L1631.84 510.563 L970.44 510.563 L309.044 510.563  Z" fill="#e26f46" fill-rule="evenodd" fill-opacity="0.6"/>
<polyline clip-path="url(#clip731)" style="stroke:#e26f46; stroke-linecap:round; stroke-linejoin:round; stroke-width:4; stroke-opacity:0; fill:none" points="309.044,1136.24 970.44,1136.24 1631.84,1136.24 2293.23,1136.24 "/>
<polyline clip-path="url(#clip731)" style="stroke:#000000; stroke-linecap:round; stroke-linejoin:round; stroke-width:4; stroke-opacity:1; fill:none" stroke-dasharray="2, 4" points="309.044,748.319 970.44,748.319 1631.84,748.319 2293.23,748.319 "/>
<path clip-path="url(#clip730)" d="M319.627 252.948 L1295.66 252.948 L1295.66 97.4278 L319.627 97.4278  Z" fill="#ffffff" fill-rule="evenodd" fill-opacity="1"/>
<polyline clip-path="url(#clip730)" style="stroke:#ffffff; stroke-linecap:round; stroke-linejoin:round; stroke-width:4; stroke-opacity:1; fill:none" points="319.627,252.948 1295.66,252.948 1295.66,97.4278 319.627,97.4278 319.627,252.948 "/>
<circle clip-path="url(#clip730)" cx="413.104" cy="149.268" r="20.48" fill="#009af9" fill-rule="evenodd" fill-opacity="1" stroke="none"/>
<path clip-path="url(#clip730)" d="M511.257 135.83 L511.257 162.705 L516.905 162.705 Q524.058 162.705 527.368 159.465 Q530.701 156.224 530.701 149.233 Q530.701 142.289 527.368 139.071 Q524.058 135.83 516.905 135.83 L511.257 135.83 M506.581 131.988 L516.188 131.988 Q526.234 131.988 530.933 136.178 Q535.632 140.344 535.632 149.233 Q535.632 158.168 530.91 162.358 Q526.188 166.548 516.188 166.548 L506.581 166.548 L506.581 131.988 Z" fill="#000000" fill-rule="nonzero" fill-opacity="1" /><path clip-path="url(#clip730)" d="M554.683 153.515 Q549.521 153.515 547.53 154.696 Q545.539 155.877 545.539 158.724 Q545.539 160.992 547.021 162.335 Q548.525 163.654 551.095 163.654 Q554.636 163.654 556.766 161.154 Q558.919 158.631 558.919 154.465 L558.919 153.515 L554.683 153.515 M563.178 151.756 L563.178 166.548 L558.919 166.548 L558.919 162.613 Q557.461 164.974 555.285 166.108 Q553.109 167.219 549.961 167.219 Q545.979 167.219 543.618 164.997 Q541.28 162.752 541.28 159.002 Q541.28 154.627 544.197 152.404 Q547.137 150.182 552.947 150.182 L558.919 150.182 L558.919 149.766 Q558.919 146.826 556.974 145.228 Q555.053 143.608 551.558 143.608 Q549.336 143.608 547.229 144.141 Q545.123 144.673 543.178 145.738 L543.178 141.803 Q545.516 140.9 547.715 140.46 Q549.914 139.997 551.998 139.997 Q557.623 139.997 560.4 142.914 Q563.178 145.83 563.178 151.756 Z" fill="#000000" fill-rule="nonzero" fill-opacity="1" /><path clip-path="url(#clip730)" d="M576.164 133.261 L576.164 140.622 L584.937 140.622 L584.937 143.932 L576.164 143.932 L576.164 158.006 Q576.164 161.177 577.021 162.08 Q577.9 162.983 580.562 162.983 L584.937 162.983 L584.937 166.548 L580.562 166.548 Q575.632 166.548 573.757 164.719 Q571.882 162.867 571.882 158.006 L571.882 143.932 L568.757 143.932 L568.757 140.622 L571.882 140.622 L571.882 133.261 L576.164 133.261 Z" fill="#000000" fill-rule="nonzero" fill-opacity="1" /><path clip-path="url(#clip730)" d="M602.321 153.515 Q597.159 153.515 595.169 154.696 Q593.178 155.877 593.178 158.724 Q593.178 160.992 594.659 162.335 Q596.164 163.654 598.733 163.654 Q602.275 163.654 604.405 161.154 Q606.558 158.631 606.558 154.465 L606.558 153.515 L602.321 153.515 M610.817 151.756 L610.817 166.548 L606.558 166.548 L606.558 162.613 Q605.099 164.974 602.923 166.108 Q600.747 167.219 597.599 167.219 Q593.618 167.219 591.257 164.997 Q588.919 162.752 588.919 159.002 Q588.919 154.627 591.835 152.404 Q594.775 150.182 600.585 150.182 L606.558 150.182 L606.558 149.766 Q606.558 146.826 604.613 145.228 Q602.692 143.608 599.196 143.608 Q596.974 143.608 594.868 144.141 Q592.761 144.673 590.817 145.738 L590.817 141.803 Q593.155 140.9 595.354 140.46 Q597.553 139.997 599.636 139.997 Q605.261 139.997 608.039 142.914 Q610.817 145.83 610.817 151.756 Z" fill="#000000" fill-rule="nonzero" fill-opacity="1" /><path clip-path="url(#clip730)" d="M644.891 130.576 Q641.789 135.9 640.284 141.108 Q638.78 146.316 638.78 151.664 Q638.78 157.011 640.284 162.265 Q641.812 167.497 644.891 172.798 L641.187 172.798 Q637.715 167.358 635.979 162.103 Q634.266 156.849 634.266 151.664 Q634.266 146.502 635.979 141.27 Q637.692 136.039 641.187 130.576 L644.891 130.576 Z" fill="#000000" fill-rule="nonzero" fill-opacity="1" /><path clip-path="url(#clip730)" d="M663.201 143.608 Q659.775 143.608 657.784 146.293 Q655.793 148.955 655.793 153.608 Q655.793 158.261 657.761 160.946 Q659.752 163.608 663.201 163.608 Q666.603 163.608 668.594 160.923 Q670.585 158.238 670.585 153.608 Q670.585 149.002 668.594 146.316 Q666.603 143.608 663.201 143.608 M663.201 139.997 Q668.756 139.997 671.928 143.608 Q675.099 147.219 675.099 153.608 Q675.099 159.974 671.928 163.608 Q668.756 167.219 663.201 167.219 Q657.622 167.219 654.451 163.608 Q651.303 159.974 651.303 153.608 Q651.303 147.219 654.451 143.608 Q657.622 139.997 663.201 139.997 Z" fill="#000000" fill-rule="nonzero" fill-opacity="1" /><path clip-path="url(#clip730)" d="M700.77 153.608 Q700.77 148.909 698.826 146.247 Q696.904 143.562 693.525 143.562 Q690.145 143.562 688.201 146.247 Q686.279 148.909 686.279 153.608 Q686.279 158.307 688.201 160.992 Q690.145 163.654 693.525 163.654 Q696.904 163.654 698.826 160.992 Q700.77 158.307 700.77 153.608 M686.279 144.557 Q687.622 142.242 689.659 141.131 Q691.719 139.997 694.566 139.997 Q699.288 139.997 702.228 143.747 Q705.191 147.497 705.191 153.608 Q705.191 159.719 702.228 163.469 Q699.288 167.219 694.566 167.219 Q691.719 167.219 689.659 166.108 Q687.622 164.974 686.279 162.659 L686.279 166.548 L681.997 166.548 L681.997 130.529 L686.279 130.529 L686.279 144.557 Z" fill="#000000" fill-rule="nonzero" fill-opacity="1" /><path clip-path="url(#clip730)" d="M728.779 141.386 L728.779 145.414 Q726.974 144.488 725.029 144.025 Q723.085 143.562 721.001 143.562 Q717.83 143.562 716.233 144.534 Q714.659 145.506 714.659 147.451 Q714.659 148.932 715.793 149.789 Q716.927 150.622 720.353 151.386 L721.812 151.71 Q726.349 152.682 728.247 154.465 Q730.168 156.224 730.168 159.395 Q730.168 163.006 727.298 165.113 Q724.45 167.219 719.45 167.219 Q717.367 167.219 715.099 166.802 Q712.853 166.409 710.353 165.599 L710.353 161.201 Q712.714 162.427 715.006 163.052 Q717.298 163.654 719.543 163.654 Q722.552 163.654 724.173 162.636 Q725.793 161.594 725.793 159.719 Q725.793 157.983 724.612 157.057 Q723.455 156.131 719.497 155.275 L718.015 154.928 Q714.057 154.094 712.298 152.381 Q710.538 150.645 710.538 147.636 Q710.538 143.978 713.131 141.988 Q715.724 139.997 720.492 139.997 Q722.853 139.997 724.936 140.344 Q727.02 140.691 728.779 141.386 Z" fill="#000000" fill-rule="nonzero" fill-opacity="1" /><path clip-path="url(#clip730)" d="M759.126 152.52 L759.126 154.603 L739.543 154.603 Q739.821 159.002 742.182 161.316 Q744.566 163.608 748.802 163.608 Q751.256 163.608 753.547 163.006 Q755.862 162.404 758.131 161.201 L758.131 165.228 Q755.839 166.201 753.432 166.71 Q751.024 167.219 748.547 167.219 Q742.344 167.219 738.71 163.608 Q735.098 159.997 735.098 153.84 Q735.098 147.474 738.524 143.747 Q741.973 139.997 747.807 139.997 Q753.038 139.997 756.071 143.377 Q759.126 146.733 759.126 152.52 M754.867 151.27 Q754.821 147.775 752.899 145.691 Q751.001 143.608 747.853 143.608 Q744.288 143.608 742.135 145.622 Q740.006 147.636 739.682 151.293 L754.867 151.27 Z" fill="#000000" fill-rule="nonzero" fill-opacity="1" /><path clip-path="url(#clip730)" d="M781.14 144.603 Q780.422 144.187 779.566 144.002 Q778.733 143.793 777.714 143.793 Q774.103 143.793 772.158 146.154 Q770.237 148.492 770.237 152.89 L770.237 166.548 L765.955 166.548 L765.955 140.622 L770.237 140.622 L770.237 144.65 Q771.58 142.289 773.733 141.154 Q775.885 139.997 778.964 139.997 Q779.404 139.997 779.936 140.066 Q780.469 140.113 781.117 140.229 L781.14 144.603 Z" fill="#000000" fill-rule="nonzero" fill-opacity="1" /><path clip-path="url(#clip730)" d="M782.552 140.622 L787.066 140.622 L795.168 162.381 L803.269 140.622 L807.783 140.622 L798.061 166.548 L792.274 166.548 L782.552 140.622 Z" fill="#000000" fill-rule="nonzero" fill-opacity="1" /><path clip-path="url(#clip730)" d="M835.839 152.52 L835.839 154.603 L816.255 154.603 Q816.533 159.002 818.894 161.316 Q821.279 163.608 825.515 163.608 Q827.968 163.608 830.26 163.006 Q832.575 162.404 834.843 161.201 L834.843 165.228 Q832.552 166.201 830.144 166.71 Q827.737 167.219 825.26 167.219 Q819.056 167.219 815.422 163.608 Q811.811 159.997 811.811 153.84 Q811.811 147.474 815.237 143.747 Q818.686 139.997 824.519 139.997 Q829.751 139.997 832.783 143.377 Q835.839 146.733 835.839 152.52 M831.579 151.27 Q831.533 147.775 829.612 145.691 Q827.714 143.608 824.566 143.608 Q821.001 143.608 818.848 145.622 Q816.718 147.636 816.394 151.293 L831.579 151.27 Z" fill="#000000" fill-rule="nonzero" fill-opacity="1" /><path clip-path="url(#clip730)" d="M859.889 144.557 L859.889 130.529 L864.149 130.529 L864.149 166.548 L859.889 166.548 L859.889 162.659 Q858.547 164.974 856.487 166.108 Q854.45 167.219 851.579 167.219 Q846.88 167.219 843.917 163.469 Q840.978 159.719 840.978 153.608 Q840.978 147.497 843.917 143.747 Q846.88 139.997 851.579 139.997 Q854.45 139.997 856.487 141.131 Q858.547 142.242 859.889 144.557 M845.376 153.608 Q845.376 158.307 847.297 160.992 Q849.241 163.654 852.621 163.654 Q856.001 163.654 857.945 160.992 Q859.889 158.307 859.889 153.608 Q859.889 148.909 857.945 146.247 Q856.001 143.562 852.621 143.562 Q849.241 143.562 847.297 146.247 Q845.376 148.909 845.376 153.608 Z" fill="#000000" fill-rule="nonzero" fill-opacity="1" /><path clip-path="url(#clip730)" d="M899.774 153.515 Q894.612 153.515 892.621 154.696 Q890.63 155.877 890.63 158.724 Q890.63 160.992 892.112 162.335 Q893.616 163.654 896.186 163.654 Q899.727 163.654 901.857 161.154 Q904.01 158.631 904.01 154.465 L904.01 153.515 L899.774 153.515 M908.269 151.756 L908.269 166.548 L904.01 166.548 L904.01 162.613 Q902.551 164.974 900.375 166.108 Q898.199 167.219 895.051 167.219 Q891.07 167.219 888.709 164.997 Q886.371 162.752 886.371 159.002 Q886.371 154.627 889.287 152.404 Q892.227 150.182 898.037 150.182 L904.01 150.182 L904.01 149.766 Q904.01 146.826 902.065 145.228 Q900.144 143.608 896.649 143.608 Q894.426 143.608 892.32 144.141 Q890.213 144.673 888.269 145.738 L888.269 141.803 Q890.607 140.9 892.806 140.46 Q895.005 139.997 897.088 139.997 Q902.713 139.997 905.491 142.914 Q908.269 145.83 908.269 151.756 Z" fill="#000000" fill-rule="nonzero" fill-opacity="1" /><path clip-path="url(#clip730)" d="M934.102 153.284 Q934.102 148.654 932.181 146.108 Q930.283 143.562 926.834 143.562 Q923.408 143.562 921.486 146.108 Q919.588 148.654 919.588 153.284 Q919.588 157.89 921.486 160.437 Q923.408 162.983 926.834 162.983 Q930.283 162.983 932.181 160.437 Q934.102 157.89 934.102 153.284 M938.361 163.33 Q938.361 169.951 935.421 173.168 Q932.482 176.409 926.417 176.409 Q924.172 176.409 922.181 176.062 Q920.19 175.738 918.315 175.043 L918.315 170.9 Q920.19 171.918 922.019 172.404 Q923.847 172.89 925.746 172.89 Q929.935 172.89 932.019 170.691 Q934.102 168.515 934.102 164.094 L934.102 161.988 Q932.783 164.279 930.722 165.414 Q928.662 166.548 925.792 166.548 Q921.023 166.548 918.107 162.914 Q915.19 159.279 915.19 153.284 Q915.19 147.266 918.107 143.631 Q921.023 139.997 925.792 139.997 Q928.662 139.997 930.722 141.131 Q932.783 142.266 934.102 144.557 L934.102 140.622 L938.361 140.622 L938.361 163.33 Z" fill="#000000" fill-rule="nonzero" fill-opacity="1" /><path clip-path="url(#clip730)" d="M969.31 152.52 L969.31 154.603 L949.727 154.603 Q950.005 159.002 952.366 161.316 Q954.75 163.608 958.986 163.608 Q961.44 163.608 963.732 163.006 Q966.046 162.404 968.315 161.201 L968.315 165.228 Q966.023 166.201 963.616 166.71 Q961.208 167.219 958.732 167.219 Q952.528 167.219 948.894 163.608 Q945.283 159.997 945.283 153.84 Q945.283 147.474 948.708 143.747 Q952.158 139.997 957.991 139.997 Q963.222 139.997 966.255 143.377 Q969.31 146.733 969.31 152.52 M965.051 151.27 Q965.005 147.775 963.083 145.691 Q961.185 143.608 958.037 143.608 Q954.472 143.608 952.32 145.622 Q950.19 147.636 949.866 151.293 L965.051 151.27 Z" fill="#000000" fill-rule="nonzero" fill-opacity="1" /><path clip-path="url(#clip730)" d="M992.829 141.386 L992.829 145.414 Q991.023 144.488 989.079 144.025 Q987.134 143.562 985.051 143.562 Q981.88 143.562 980.282 144.534 Q978.708 145.506 978.708 147.451 Q978.708 148.932 979.843 149.789 Q980.977 150.622 984.403 151.386 L985.861 151.71 Q990.398 152.682 992.296 154.465 Q994.217 156.224 994.217 159.395 Q994.217 163.006 991.347 165.113 Q988.5 167.219 983.5 167.219 Q981.417 167.219 979.148 166.802 Q976.903 166.409 974.403 165.599 L974.403 161.201 Q976.764 162.427 979.056 163.052 Q981.347 163.654 983.593 163.654 Q986.602 163.654 988.222 162.636 Q989.842 161.594 989.842 159.719 Q989.842 157.983 988.662 157.057 Q987.505 156.131 983.546 155.275 L982.065 154.928 Q978.106 154.094 976.347 152.381 Q974.588 150.645 974.588 147.636 Q974.588 143.978 977.181 141.988 Q979.773 139.997 984.542 139.997 Q986.903 139.997 988.986 140.344 Q991.069 140.691 992.829 141.386 Z" fill="#000000" fill-rule="nonzero" fill-opacity="1" /><path clip-path="url(#clip730)" d="M1000.33 130.576 L1004.03 130.576 Q1007.5 136.039 1009.22 141.27 Q1010.95 146.502 1010.95 151.664 Q1010.95 156.849 1009.22 162.103 Q1007.5 167.358 1004.03 172.798 L1000.33 172.798 Q1003.41 167.497 1004.91 162.265 Q1006.44 157.011 1006.44 151.664 Q1006.44 146.316 1004.91 141.108 Q1003.41 135.9 1000.33 130.576 Z" fill="#000000" fill-rule="nonzero" fill-opacity="1" /><path clip-path="url(#clip730)" d="M342.996 221.844 L483.212 221.844 L483.212 180.372 L342.996 180.372 L342.996 221.844  Z" fill="#e26f46" fill-rule="evenodd" fill-opacity="0.6"/>
<polyline clip-path="url(#clip730)" style="stroke:#e26f46; stroke-linecap:round; stroke-linejoin:round; stroke-width:4; stroke-opacity:0; fill:none" points="342.996,180.372 483.212,180.372 "/>
<path clip-path="url(#clip730)" d="M506.581 183.828 L513.549 183.828 L522.368 207.346 L531.234 183.828 L538.201 183.828 L538.201 218.388 L533.641 218.388 L533.641 188.041 L524.729 211.744 L520.03 211.744 L511.118 188.041 L511.118 218.388 L506.581 218.388 L506.581 183.828 Z" fill="#000000" fill-rule="nonzero" fill-opacity="1" /><path clip-path="url(#clip730)" d="M557.345 195.448 Q553.919 195.448 551.928 198.133 Q549.937 200.795 549.937 205.448 Q549.937 210.101 551.905 212.786 Q553.896 215.448 557.345 215.448 Q560.748 215.448 562.738 212.763 Q564.729 210.078 564.729 205.448 Q564.729 200.842 562.738 198.156 Q560.748 195.448 557.345 195.448 M557.345 191.837 Q562.9 191.837 566.072 195.448 Q569.243 199.059 569.243 205.448 Q569.243 211.814 566.072 215.448 Q562.9 219.059 557.345 219.059 Q551.766 219.059 548.595 215.448 Q545.447 211.814 545.447 205.448 Q545.447 199.059 548.595 195.448 Q551.766 191.837 557.345 191.837 Z" fill="#000000" fill-rule="nonzero" fill-opacity="1" /><path clip-path="url(#clip730)" d="M593.363 196.397 L593.363 182.369 L597.622 182.369 L597.622 218.388 L593.363 218.388 L593.363 214.499 Q592.021 216.814 589.96 217.948 Q587.923 219.059 585.053 219.059 Q580.354 219.059 577.391 215.309 Q574.451 211.559 574.451 205.448 Q574.451 199.337 577.391 195.587 Q580.354 191.837 585.053 191.837 Q587.923 191.837 589.96 192.971 Q592.021 194.082 593.363 196.397 M578.849 205.448 Q578.849 210.147 580.771 212.832 Q582.715 215.494 586.095 215.494 Q589.474 215.494 591.419 212.832 Q593.363 210.147 593.363 205.448 Q593.363 200.749 591.419 198.087 Q589.474 195.402 586.095 195.402 Q582.715 195.402 580.771 198.087 Q578.849 200.749 578.849 205.448 Z" fill="#000000" fill-rule="nonzero" fill-opacity="1" /><path clip-path="url(#clip730)" d="M628.571 204.36 L628.571 206.443 L608.988 206.443 Q609.266 210.842 611.627 213.156 Q614.011 215.448 618.247 215.448 Q620.701 215.448 622.993 214.846 Q625.307 214.244 627.576 213.041 L627.576 217.068 Q625.284 218.041 622.877 218.55 Q620.469 219.059 617.993 219.059 Q611.789 219.059 608.155 215.448 Q604.544 211.837 604.544 205.68 Q604.544 199.314 607.97 195.587 Q611.419 191.837 617.252 191.837 Q622.483 191.837 625.516 195.217 Q628.571 198.573 628.571 204.36 M624.312 203.11 Q624.266 199.615 622.344 197.531 Q620.446 195.448 617.298 195.448 Q613.733 195.448 611.581 197.462 Q609.451 199.476 609.127 203.133 L624.312 203.11 Z" fill="#000000" fill-rule="nonzero" fill-opacity="1" /><path clip-path="url(#clip730)" d="M635.562 182.369 L639.821 182.369 L639.821 218.388 L635.562 218.388 L635.562 182.369 Z" fill="#000000" fill-rule="nonzero" fill-opacity="1" /><path clip-path="url(#clip730)" d="M674.034 182.416 Q670.932 187.74 669.428 192.948 Q667.923 198.156 667.923 203.504 Q667.923 208.851 669.428 214.105 Q670.955 219.337 674.034 224.638 L670.33 224.638 Q666.858 219.198 665.122 213.943 Q663.409 208.689 663.409 203.504 Q663.409 198.342 665.122 193.11 Q666.835 187.879 670.33 182.416 L674.034 182.416 Z" fill="#000000" fill-rule="nonzero" fill-opacity="1" /><path clip-path="url(#clip730)" d="M693.478 199.244 Q690.33 199.244 688.478 201.397 Q686.65 203.55 686.65 207.3 Q686.65 211.027 688.478 213.203 Q690.33 215.355 693.478 215.355 Q696.626 215.355 698.455 213.203 Q700.307 211.027 700.307 207.3 Q700.307 203.55 698.455 201.397 Q696.626 199.244 693.478 199.244 M702.761 184.592 L702.761 188.851 Q701.001 188.018 699.196 187.578 Q697.413 187.138 695.654 187.138 Q691.025 187.138 688.571 190.263 Q686.14 193.388 685.793 199.707 Q687.159 197.693 689.219 196.629 Q691.279 195.541 693.756 195.541 Q698.964 195.541 701.974 198.712 Q705.006 201.86 705.006 207.3 Q705.006 212.624 701.858 215.842 Q698.71 219.059 693.478 219.059 Q687.483 219.059 684.312 214.476 Q681.14 209.869 681.14 201.143 Q681.14 192.948 685.029 188.087 Q688.918 183.203 695.469 183.203 Q697.228 183.203 699.011 183.55 Q700.816 183.897 702.761 184.592 Z" fill="#000000" fill-rule="nonzero" fill-opacity="1" /><path clip-path="url(#clip730)" d="M713.108 183.828 L731.464 183.828 L731.464 187.763 L717.39 187.763 L717.39 196.235 Q718.409 195.888 719.427 195.726 Q720.446 195.541 721.464 195.541 Q727.251 195.541 730.631 198.712 Q734.011 201.883 734.011 207.3 Q734.011 212.879 730.538 215.98 Q727.066 219.059 720.747 219.059 Q718.571 219.059 716.302 218.689 Q714.057 218.318 711.65 217.578 L711.65 212.879 Q713.733 214.013 715.955 214.568 Q718.177 215.124 720.654 215.124 Q724.659 215.124 726.997 213.017 Q729.335 210.911 729.335 207.3 Q729.335 203.689 726.997 201.582 Q724.659 199.476 720.654 199.476 Q718.779 199.476 716.904 199.893 Q715.052 200.309 713.108 201.189 L713.108 183.828 Z" fill="#000000" fill-rule="nonzero" fill-opacity="1" /><path clip-path="url(#clip730)" d="M743.223 212.508 L748.108 212.508 L748.108 218.388 L743.223 218.388 L743.223 212.508 Z" fill="#000000" fill-rule="nonzero" fill-opacity="1" /><path clip-path="url(#clip730)" d="M758.432 217.67 L758.432 213.411 Q760.191 214.244 761.996 214.684 Q763.802 215.124 765.538 215.124 Q770.168 215.124 772.598 212.022 Q775.052 208.897 775.399 202.555 Q774.057 204.545 771.996 205.61 Q769.936 206.675 767.436 206.675 Q762.251 206.675 759.219 203.55 Q756.209 200.402 756.209 194.962 Q756.209 189.638 759.358 186.42 Q762.506 183.203 767.737 183.203 Q773.733 183.203 776.881 187.809 Q780.052 192.393 780.052 201.143 Q780.052 209.314 776.163 214.198 Q772.297 219.059 765.746 219.059 Q763.987 219.059 762.182 218.712 Q760.376 218.365 758.432 217.67 M767.737 203.018 Q770.885 203.018 772.714 200.865 Q774.566 198.712 774.566 194.962 Q774.566 191.235 772.714 189.082 Q770.885 186.907 767.737 186.907 Q764.589 186.907 762.737 189.082 Q760.909 191.235 760.909 194.962 Q760.909 198.712 762.737 200.865 Q764.589 203.018 767.737 203.018 Z" fill="#000000" fill-rule="nonzero" fill-opacity="1" /><path clip-path="url(#clip730)" d="M789.265 214.453 L796.904 214.453 L796.904 188.087 L788.594 189.754 L788.594 185.494 L796.857 183.828 L801.533 183.828 L801.533 214.453 L809.172 214.453 L809.172 218.388 L789.265 218.388 L789.265 214.453 Z" fill="#000000" fill-rule="nonzero" fill-opacity="1" /><path clip-path="url(#clip730)" d="M819.427 214.453 L827.066 214.453 L827.066 188.087 L818.755 189.754 L818.755 185.494 L827.019 183.828 L831.695 183.828 L831.695 214.453 L839.334 214.453 L839.334 218.388 L819.427 218.388 L819.427 214.453 Z" fill="#000000" fill-rule="nonzero" fill-opacity="1" /><path clip-path="url(#clip730)" d="M880.584 188.666 L880.584 201.559 L893.477 201.559 L893.477 205.494 L880.584 205.494 L880.584 218.388 L876.695 218.388 L876.695 205.494 L863.801 205.494 L863.801 201.559 L876.695 201.559 L876.695 188.666 L880.584 188.666 Z" fill="#000000" fill-rule="nonzero" fill-opacity="1" /><path clip-path="url(#clip730)" d="M913.57 186.907 Q909.959 186.907 908.13 190.471 Q906.324 194.013 906.324 201.143 Q906.324 208.249 908.13 211.814 Q909.959 215.355 913.57 215.355 Q917.204 215.355 919.01 211.814 Q920.838 208.249 920.838 201.143 Q920.838 194.013 919.01 190.471 Q917.204 186.907 913.57 186.907 M913.57 183.203 Q919.38 183.203 922.435 187.809 Q925.514 192.393 925.514 201.143 Q925.514 209.869 922.435 214.476 Q919.38 219.059 913.57 219.059 Q907.76 219.059 904.681 214.476 Q901.625 209.869 901.625 201.143 Q901.625 192.393 904.681 187.809 Q907.76 183.203 913.57 183.203 Z" fill="#000000" fill-rule="nonzero" fill-opacity="1" /><path clip-path="url(#clip730)" d="M933.732 212.508 L938.616 212.508 L938.616 218.388 L933.732 218.388 L933.732 212.508 Z" fill="#000000" fill-rule="nonzero" fill-opacity="1" /><path clip-path="url(#clip730)" d="M958.801 186.907 Q955.19 186.907 953.361 190.471 Q951.556 194.013 951.556 201.143 Q951.556 208.249 953.361 211.814 Q955.19 215.355 958.801 215.355 Q962.435 215.355 964.241 211.814 Q966.069 208.249 966.069 201.143 Q966.069 194.013 964.241 190.471 Q962.435 186.907 958.801 186.907 M958.801 183.203 Q964.611 183.203 967.667 187.809 Q970.745 192.393 970.745 201.143 Q970.745 209.869 967.667 214.476 Q964.611 219.059 958.801 219.059 Q952.991 219.059 949.912 214.476 Q946.857 209.869 946.857 201.143 Q946.857 192.393 949.912 187.809 Q952.991 183.203 958.801 183.203 Z" fill="#000000" fill-rule="nonzero" fill-opacity="1" /><path clip-path="url(#clip730)" d="M979.102 217.67 L979.102 213.411 Q980.861 214.244 982.667 214.684 Q984.472 215.124 986.208 215.124 Q990.838 215.124 993.268 212.022 Q995.722 208.897 996.069 202.555 Q994.727 204.545 992.667 205.61 Q990.606 206.675 988.106 206.675 Q982.921 206.675 979.889 203.55 Q976.88 200.402 976.88 194.962 Q976.88 189.638 980.028 186.42 Q983.176 183.203 988.407 183.203 Q994.403 183.203 997.551 187.809 Q1000.72 192.393 1000.72 201.143 Q1000.72 209.314 996.833 214.198 Q992.967 219.059 986.417 219.059 Q984.657 219.059 982.852 218.712 Q981.046 218.365 979.102 217.67 M988.407 203.018 Q991.555 203.018 993.384 200.865 Q995.236 198.712 995.236 194.962 Q995.236 191.235 993.384 189.082 Q991.555 186.907 988.407 186.907 Q985.259 186.907 983.407 189.082 Q981.579 191.235 981.579 194.962 Q981.579 198.712 983.407 200.865 Q985.259 203.018 988.407 203.018 Z" fill="#000000" fill-rule="nonzero" fill-opacity="1" /><path clip-path="url(#clip730)" d="M1019.12 201.976 Q1015.79 201.976 1013.87 203.758 Q1011.97 205.541 1011.97 208.666 Q1011.97 211.791 1013.87 213.573 Q1015.79 215.355 1019.12 215.355 Q1022.46 215.355 1024.38 213.573 Q1026.3 211.767 1026.3 208.666 Q1026.3 205.541 1024.38 203.758 Q1022.48 201.976 1019.12 201.976 M1014.45 199.985 Q1011.44 199.244 1009.75 197.184 Q1008.08 195.124 1008.08 192.161 Q1008.08 188.018 1011.02 185.61 Q1013.99 183.203 1019.12 183.203 Q1024.29 183.203 1027.23 185.61 Q1030.17 188.018 1030.17 192.161 Q1030.17 195.124 1028.48 197.184 Q1026.81 199.244 1023.82 199.985 Q1027.2 200.772 1029.08 203.064 Q1030.98 205.355 1030.98 208.666 Q1030.98 213.689 1027.9 216.374 Q1024.84 219.059 1019.12 219.059 Q1013.41 219.059 1010.33 216.374 Q1007.27 213.689 1007.27 208.666 Q1007.27 205.355 1009.17 203.064 Q1011.07 200.772 1014.45 199.985 M1012.74 192.601 Q1012.74 195.286 1014.4 196.791 Q1016.09 198.295 1019.12 198.295 Q1022.13 198.295 1023.82 196.791 Q1025.54 195.286 1025.54 192.601 Q1025.54 189.916 1023.82 188.411 Q1022.13 186.907 1019.12 186.907 Q1016.09 186.907 1014.4 188.411 Q1012.74 189.916 1012.74 192.601 Z" fill="#000000" fill-rule="nonzero" fill-opacity="1" /><path clip-path="url(#clip730)" d="M1046.25 183.828 L1050.19 183.828 L1038.15 222.786 L1034.22 222.786 L1046.25 183.828 Z" fill="#000000" fill-rule="nonzero" fill-opacity="1" /><path clip-path="url(#clip730)" d="M1052.5 203.504 L1064.98 203.504 L1064.98 207.3 L1052.5 207.3 L1052.5 203.504 Z" fill="#000000" fill-rule="nonzero" fill-opacity="1" /><path clip-path="url(#clip730)" d="M1082.37 186.907 Q1078.75 186.907 1076.93 190.471 Q1075.12 194.013 1075.12 201.143 Q1075.12 208.249 1076.93 211.814 Q1078.75 215.355 1082.37 215.355 Q1086 215.355 1087.8 211.814 Q1089.63 208.249 1089.63 201.143 Q1089.63 194.013 1087.8 190.471 Q1086 186.907 1082.37 186.907 M1082.37 183.203 Q1088.18 183.203 1091.23 187.809 Q1094.31 192.393 1094.31 201.143 Q1094.31 209.869 1091.23 214.476 Q1088.18 219.059 1082.37 219.059 Q1076.55 219.059 1073.48 214.476 Q1070.42 209.869 1070.42 201.143 Q1070.42 192.393 1073.48 187.809 Q1076.55 183.203 1082.37 183.203 Z" fill="#000000" fill-rule="nonzero" fill-opacity="1" /><path clip-path="url(#clip730)" d="M1102.53 212.508 L1107.41 212.508 L1107.41 218.388 L1102.53 218.388 L1102.53 212.508 Z" fill="#000000" fill-rule="nonzero" fill-opacity="1" /><path clip-path="url(#clip730)" d="M1118.41 214.453 L1126.05 214.453 L1126.05 188.087 L1117.74 189.754 L1117.74 185.494 L1126 183.828 L1130.68 183.828 L1130.68 214.453 L1138.31 214.453 L1138.31 218.388 L1118.41 218.388 L1118.41 214.453 Z" fill="#000000" fill-rule="nonzero" fill-opacity="1" /><path clip-path="url(#clip730)" d="M1158.34 199.244 Q1155.19 199.244 1153.34 201.397 Q1151.51 203.55 1151.51 207.3 Q1151.51 211.027 1153.34 213.203 Q1155.19 215.355 1158.34 215.355 Q1161.49 215.355 1163.31 213.203 Q1165.17 211.027 1165.17 207.3 Q1165.17 203.55 1163.31 201.397 Q1161.49 199.244 1158.34 199.244 M1167.62 184.592 L1167.62 188.851 Q1165.86 188.018 1164.05 187.578 Q1162.27 187.138 1160.51 187.138 Q1155.88 187.138 1153.43 190.263 Q1151 193.388 1150.65 199.707 Q1152.02 197.693 1154.08 196.629 Q1156.14 195.541 1158.61 195.541 Q1163.82 195.541 1166.83 198.712 Q1169.86 201.86 1169.86 207.3 Q1169.86 212.624 1166.72 215.842 Q1163.57 219.059 1158.34 219.059 Q1152.34 219.059 1149.17 214.476 Q1146 209.869 1146 201.143 Q1146 192.948 1149.89 188.087 Q1153.78 183.203 1160.33 183.203 Q1162.09 183.203 1163.87 183.55 Q1165.67 183.897 1167.62 184.592 Z" fill="#000000" fill-rule="nonzero" fill-opacity="1" /><path clip-path="url(#clip730)" d="M1192.57 183.828 L1199.54 183.828 L1208.36 207.346 L1217.23 183.828 L1224.19 183.828 L1224.19 218.388 L1219.63 218.388 L1219.63 188.041 L1210.72 211.744 L1206.02 211.744 L1197.11 188.041 L1197.11 218.388 L1192.57 218.388 L1192.57 183.828 Z" fill="#000000" fill-rule="nonzero" fill-opacity="1" /><path clip-path="url(#clip730)" d="M1245.07 205.355 Q1239.91 205.355 1237.92 206.536 Q1235.93 207.717 1235.93 210.564 Q1235.93 212.832 1237.41 214.175 Q1238.92 215.494 1241.48 215.494 Q1245.03 215.494 1247.16 212.994 Q1249.31 210.471 1249.31 206.305 L1249.31 205.355 L1245.07 205.355 M1253.57 203.596 L1253.57 218.388 L1249.31 218.388 L1249.31 214.453 Q1247.85 216.814 1245.67 217.948 Q1243.5 219.059 1240.35 219.059 Q1236.37 219.059 1234.01 216.837 Q1231.67 214.592 1231.67 210.842 Q1231.67 206.467 1234.59 204.244 Q1237.53 202.022 1243.34 202.022 L1249.31 202.022 L1249.31 201.606 Q1249.31 198.666 1247.36 197.068 Q1245.44 195.448 1241.95 195.448 Q1239.73 195.448 1237.62 195.981 Q1235.51 196.513 1233.57 197.578 L1233.57 193.643 Q1235.91 192.74 1238.11 192.3 Q1240.3 191.837 1242.39 191.837 Q1248.01 191.837 1250.79 194.754 Q1253.57 197.67 1253.57 203.596 Z" fill="#000000" fill-rule="nonzero" fill-opacity="1" /><path clip-path="url(#clip730)" d="M1261.67 182.416 L1265.37 182.416 Q1268.85 187.879 1270.56 193.11 Q1272.29 198.342 1272.29 203.504 Q1272.29 208.689 1270.56 213.943 Q1268.85 219.198 1265.37 224.638 L1261.67 224.638 Q1264.75 219.337 1266.25 214.105 Q1267.78 208.851 1267.78 203.504 Q1267.78 198.156 1266.25 192.948 Q1264.75 187.74 1261.67 182.416 Z" fill="#000000" fill-rule="nonzero" fill-opacity="1" /></svg>
