<?xml version="1.0" encoding="utf-8"?>
<svg xmlns="http://www.w3.org/2000/svg" xmlns:xlink="http://www.w3.org/1999/xlink" width="600" height="400" viewBox="0 0 2400 1600">
<defs>
  <clipPath id="clip780">
    <rect x="0" y="0" width="2400" height="1600"/>
  </clipPath>
</defs>
<path clip-path="url(#clip780)" d="M0 1600 L2400 1600 L2400 8.88178e-14 L0 8.88178e-14  Z" fill="#ffffff" fill-rule="evenodd" fill-opacity="1"/>
<defs>
  <clipPath id="clip781">
    <rect x="249" y="47" width="2104" height="1507"/>
  </clipPath>
</defs>
<path clip-path="url(#clip780)" d="M175.445 1423.18 L2352.76 1423.18 L2352.76 47.2441 L175.445 47.2441  Z" fill="#ffffff" fill-rule="evenodd" fill-opacity="1"/>
<defs>
  <clipPath id="clip782">
    <rect x="175" y="47" width="2178" height="1377"/>
  </clipPath>
</defs>
<polyline clip-path="url(#clip782)" style="stroke:#000000; stroke-linecap:round; stroke-linejoin:round; stroke-width:2; stroke-opacity:0.1; fill:none" points="341.471,1423.18 341.471,47.2441 "/>
<polyline clip-path="url(#clip782)" style="stroke:#000000; stroke-linecap:round; stroke-linejoin:round; stroke-width:2; stroke-opacity:0.1; fill:none" points="648.918,1423.18 648.918,47.2441 "/>
<polyline clip-path="url(#clip782)" style="stroke:#000000; stroke-linecap:round; stroke-linejoin:round; stroke-width:2; stroke-opacity:0.1; fill:none" points="956.365,1423.18 956.365,47.2441 "/>
<polyline clip-path="url(#clip782)" style="stroke:#000000; stroke-linecap:round; stroke-linejoin:round; stroke-width:2; stroke-opacity:0.1; fill:none" points="1263.81,1423.18 1263.81,47.2441 "/>
<polyline clip-path="url(#clip782)" style="stroke:#000000; stroke-linecap:round; stroke-linejoin:round; stroke-width:2; stroke-opacity:0.1; fill:none" points="1571.26,1423.18 1571.26,47.2441 "/>
<polyline clip-path="url(#clip782)" style="stroke:#000000; stroke-linecap:round; stroke-linejoin:round; stroke-width:2; stroke-opacity:0.1; fill:none" points="1878.71,1423.18 1878.71,47.2441 "/>
<polyline clip-path="url(#clip782)" style="stroke:#000000; stroke-linecap:round; stroke-linejoin:round; stroke-width:2; stroke-opacity:0.1; fill:none" points="2186.15,1423.18 2186.15,47.2441 "/>
<polyline clip-path="url(#clip782)" style="stroke:#000000; stroke-linecap:round; stroke-linejoin:round; stroke-width:2; stroke-opacity:0.1; fill:none" points="341.471,1423.18 341.471,47.2441 "/>
<polyline clip-path="url(#clip782)" style="stroke:#000000; stroke-linecap:round; stroke-linejoin:round; stroke-width:2; stroke-opacity:0.1; fill:none" points="648.918,1423.18 648.918,47.2441 "/>
<polyline clip-path="url(#clip782)" style="stroke:#000000; stroke-linecap:round; stroke-linejoin:round; stroke-width:2; stroke-opacity:0.1; fill:none" points="956.365,1423.18 956.365,47.2441 "/>
<polyline clip-path="url(#clip782)" style="stroke:#000000; stroke-linecap:round; stroke-linejoin:round; stroke-width:2; stroke-opacity:0.1; fill:none" points="1263.81,1423.18 1263.81,47.2441 "/>
<polyline clip-path="url(#clip782)" style="stroke:#000000; stroke-linecap:round; stroke-linejoin:round; stroke-width:2; stroke-opacity:0.1; fill:none" points="1571.26,1423.18 1571.26,47.2441 "/>
<polyline clip-path="url(#clip782)" style="stroke:#000000; stroke-linecap:round; stroke-linejoin:round; stroke-width:2; stroke-opacity:0.1; fill:none" points="1878.71,1423.18 1878.71,47.2441 "/>
<polyline clip-path="url(#clip782)" style="stroke:#000000; stroke-linecap:round; stroke-linejoin:round; stroke-width:2; stroke-opacity:0.1; fill:none" points="2186.15,1423.18 2186.15,47.2441 "/>
<polyline clip-path="url(#clip782)" style="stroke:#000000; stroke-linecap:round; stroke-linejoin:round; stroke-width:2; stroke-opacity:0.1; fill:none" points="175.445,1384.24 2352.76,1384.24 "/>
<polyline clip-path="url(#clip782)" style="stroke:#000000; stroke-linecap:round; stroke-linejoin:round; stroke-width:2; stroke-opacity:0.1; fill:none" points="175.445,1039.66 2352.76,1039.66 "/>
<polyline clip-path="url(#clip782)" style="stroke:#000000; stroke-linecap:round; stroke-linejoin:round; stroke-width:2; stroke-opacity:0.1; fill:none" points="175.445,695.077 2352.76,695.077 "/>
<polyline clip-path="url(#clip782)" style="stroke:#000000; stroke-linecap:round; stroke-linejoin:round; stroke-width:2; stroke-opacity:0.1; fill:none" points="175.445,350.496 2352.76,350.496 "/>
<polyline clip-path="url(#clip782)" style="stroke:#000000; stroke-linecap:round; stroke-linejoin:round; stroke-width:2; stroke-opacity:0.1; fill:none" points="175.445,1384.24 2352.76,1384.24 "/>
<polyline clip-path="url(#clip782)" style="stroke:#000000; stroke-linecap:round; stroke-linejoin:round; stroke-width:2; stroke-opacity:0.1; fill:none" points="175.445,1039.66 2352.76,1039.66 "/>
<polyline clip-path="url(#clip782)" style="stroke:#000000; stroke-linecap:round; stroke-linejoin:round; stroke-width:2; stroke-opacity:0.1; fill:none" points="175.445,695.077 2352.76,695.077 "/>
<polyline clip-path="url(#clip782)" style="stroke:#000000; stroke-linecap:round; stroke-linejoin:round; stroke-width:2; stroke-opacity:0.1; fill:none" points="175.445,350.496 2352.76,350.496 "/>
<polyline clip-path="url(#clip780)" style="stroke:#000000; stroke-linecap:round; stroke-linejoin:round; stroke-width:4; stroke-opacity:1; fill:none" points="175.445,1423.18 2352.76,1423.18 "/>
<polyline clip-path="url(#clip780)" style="stroke:#000000; stroke-linecap:round; stroke-linejoin:round; stroke-width:4; stroke-opacity:1; fill:none" points="175.445,47.2441 2352.76,47.2441 "/>
<polyline clip-path="url(#clip780)" style="stroke:#000000; stroke-linecap:round; stroke-linejoin:round; stroke-width:4; stroke-opacity:1; fill:none" points="341.471,1423.18 341.471,1404.28 "/>
<polyline clip-path="url(#clip780)" style="stroke:#000000; stroke-linecap:round; stroke-linejoin:round; stroke-width:4; stroke-opacity:1; fill:none" points="648.918,1423.18 648.918,1404.28 "/>
<polyline clip-path="url(#clip780)" style="stroke:#000000; stroke-linecap:round; stroke-linejoin:round; stroke-width:4; stroke-opacity:1; fill:none" points="956.365,1423.18 956.365,1404.28 "/>
<polyline clip-path="url(#clip780)" style="stroke:#000000; stroke-linecap:round; stroke-linejoin:round; stroke-width:4; stroke-opacity:1; fill:none" points="1263.81,1423.18 1263.81,1404.28 "/>
<polyline clip-path="url(#clip780)" style="stroke:#000000; stroke-linecap:round; stroke-linejoin:round; stroke-width:4; stroke-opacity:1; fill:none" points="1571.26,1423.18 1571.26,1404.28 "/>
<polyline clip-path="url(#clip780)" style="stroke:#000000; stroke-linecap:round; stroke-linejoin:round; stroke-width:4; stroke-opacity:1; fill:none" points="1878.71,1423.18 1878.71,1404.28 "/>
<polyline clip-path="url(#clip780)" style="stroke:#000000; stroke-linecap:round; stroke-linejoin:round; stroke-width:4; stroke-opacity:1; fill:none" points="2186.15,1423.18 2186.15,1404.28 "/>
<polyline clip-path="url(#clip780)" style="stroke:#000000; stroke-linecap:round; stroke-linejoin:round; stroke-width:4; stroke-opacity:1; fill:none" points="341.471,47.2441 341.471,66.1417 "/>
<polyline clip-path="url(#clip780)" style="stroke:#000000; stroke-linecap:round; stroke-linejoin:round; stroke-width:4; stroke-opacity:1; fill:none" points="648.918,47.2441 648.918,66.1417 "/>
<polyline clip-path="url(#clip780)" style="stroke:#000000; stroke-linecap:round; stroke-linejoin:round; stroke-width:4; stroke-opacity:1; fill:none" points="956.365,47.2441 956.365,66.1417 "/>
<polyline clip-path="url(#clip780)" style="stroke:#000000; stroke-linecap:round; stroke-linejoin:round; stroke-width:4; stroke-opacity:1; fill:none" points="1263.81,47.2441 1263.81,66.1417 "/>
<polyline clip-path="url(#clip780)" style="stroke:#000000; stroke-linecap:round; stroke-linejoin:round; stroke-width:4; stroke-opacity:1; fill:none" points="1571.26,47.2441 1571.26,66.1417 "/>
<polyline clip-path="url(#clip780)" style="stroke:#000000; stroke-linecap:round; stroke-linejoin:round; stroke-width:4; stroke-opacity:1; fill:none" points="1878.71,47.2441 1878.71,66.1417 "/>
<polyline clip-path="url(#clip780)" style="stroke:#000000; stroke-linecap:round; stroke-linejoin:round; stroke-width:4; stroke-opacity:1; fill:none" points="2186.15,47.2441 2186.15,66.1417 "/>
<path clip-path="url(#clip780)" d="M304.307 1466.44 Q301.159 1466.44 299.307 1468.59 Q297.478 1470.74 297.478 1474.49 Q297.478 1478.22 299.307 1480.39 Q301.159 1482.55 304.307 1482.55 Q307.455 1482.55 309.284 1480.39 Q311.136 1478.22 311.136 1474.49 Q311.136 1470.74 309.284 1468.59 Q307.455 1466.44 304.307 1466.44 M313.589 1451.78 L313.589 1456.04 Q311.83 1455.21 310.024 1454.77 Q308.242 1454.33 306.483 1454.33 Q301.853 1454.33 299.399 1457.45 Q296.969 1460.58 296.622 1466.9 Q297.987 1464.89 300.048 1463.82 Q302.108 1462.73 304.585 1462.73 Q309.793 1462.73 312.802 1465.9 Q315.835 1469.05 315.835 1474.49 Q315.835 1479.82 312.686 1483.03 Q309.538 1486.25 304.307 1486.25 Q298.312 1486.25 295.14 1481.67 Q291.969 1477.06 291.969 1468.33 Q291.969 1460.14 295.858 1455.28 Q299.747 1450.39 306.298 1450.39 Q308.057 1450.39 309.839 1450.74 Q311.645 1451.09 313.589 1451.78 Z" fill="#000000" fill-rule="nonzero" fill-opacity="1" /><path clip-path="url(#clip780)" d="M336.737 1455.09 L324.932 1473.54 L336.737 1473.54 L336.737 1455.09 M335.51 1451.02 L341.39 1451.02 L341.39 1473.54 L346.321 1473.54 L346.321 1477.43 L341.39 1477.43 L341.39 1485.58 L336.737 1485.58 L336.737 1477.43 L321.135 1477.43 L321.135 1472.92 L335.51 1451.02 Z" fill="#000000" fill-rule="nonzero" fill-opacity="1" /><path clip-path="url(#clip780)" d="M354.052 1479.7 L358.936 1479.7 L358.936 1485.58 L354.052 1485.58 L354.052 1479.7 Z" fill="#000000" fill-rule="nonzero" fill-opacity="1" /><path clip-path="url(#clip780)" d="M379.121 1469.17 Q375.788 1469.17 373.867 1470.95 Q371.969 1472.73 371.969 1475.86 Q371.969 1478.98 373.867 1480.77 Q375.788 1482.55 379.121 1482.55 Q382.455 1482.55 384.376 1480.77 Q386.297 1478.96 386.297 1475.86 Q386.297 1472.73 384.376 1470.95 Q382.478 1469.17 379.121 1469.17 M374.445 1467.18 Q371.436 1466.44 369.746 1464.38 Q368.08 1462.32 368.08 1459.35 Q368.08 1455.21 371.019 1452.8 Q373.982 1450.39 379.121 1450.39 Q384.283 1450.39 387.223 1452.8 Q390.163 1455.21 390.163 1459.35 Q390.163 1462.32 388.473 1464.38 Q386.806 1466.44 383.82 1467.18 Q387.2 1467.96 389.075 1470.26 Q390.973 1472.55 390.973 1475.86 Q390.973 1480.88 387.894 1483.57 Q384.839 1486.25 379.121 1486.25 Q373.404 1486.25 370.325 1483.57 Q367.269 1480.88 367.269 1475.86 Q367.269 1472.55 369.168 1470.26 Q371.066 1467.96 374.445 1467.18 M372.732 1459.79 Q372.732 1462.48 374.399 1463.98 Q376.089 1465.49 379.121 1465.49 Q382.13 1465.49 383.82 1463.98 Q385.533 1462.48 385.533 1459.79 Q385.533 1457.11 383.82 1455.6 Q382.13 1454.1 379.121 1454.1 Q376.089 1454.1 374.399 1455.6 Q372.732 1457.11 372.732 1459.79 Z" fill="#000000" fill-rule="nonzero" fill-opacity="1" /><path clip-path="url(#clip780)" d="M611.707 1466.44 Q608.559 1466.44 606.708 1468.59 Q604.879 1470.74 604.879 1474.49 Q604.879 1478.22 606.708 1480.39 Q608.559 1482.55 611.707 1482.55 Q614.856 1482.55 616.684 1480.39 Q618.536 1478.22 618.536 1474.49 Q618.536 1470.74 616.684 1468.59 Q614.856 1466.44 611.707 1466.44 M620.99 1451.78 L620.99 1456.04 Q619.231 1455.21 617.425 1454.77 Q615.643 1454.33 613.883 1454.33 Q609.254 1454.33 606.8 1457.45 Q604.37 1460.58 604.022 1466.9 Q605.388 1464.89 607.448 1463.82 Q609.508 1462.73 611.985 1462.73 Q617.194 1462.73 620.203 1465.9 Q623.235 1469.05 623.235 1474.49 Q623.235 1479.82 620.087 1483.03 Q616.939 1486.25 611.707 1486.25 Q605.712 1486.25 602.541 1481.67 Q599.37 1477.06 599.37 1468.33 Q599.37 1460.14 603.258 1455.28 Q607.147 1450.39 613.698 1450.39 Q615.457 1450.39 617.24 1450.74 Q619.045 1451.09 620.99 1451.78 Z" fill="#000000" fill-rule="nonzero" fill-opacity="1" /><path clip-path="url(#clip780)" d="M631.337 1451.02 L649.693 1451.02 L649.693 1454.96 L635.619 1454.96 L635.619 1463.43 Q636.638 1463.08 637.656 1462.92 Q638.675 1462.73 639.693 1462.73 Q645.48 1462.73 648.86 1465.9 Q652.24 1469.08 652.24 1474.49 Q652.24 1480.07 648.767 1483.17 Q645.295 1486.25 638.976 1486.25 Q636.8 1486.25 634.531 1485.88 Q632.286 1485.51 629.879 1484.77 L629.879 1480.07 Q631.962 1481.2 634.184 1481.76 Q636.406 1482.32 638.883 1482.32 Q642.888 1482.32 645.226 1480.21 Q647.564 1478.1 647.564 1474.49 Q647.564 1470.88 645.226 1468.77 Q642.888 1466.67 638.883 1466.67 Q637.008 1466.67 635.133 1467.08 Q633.281 1467.5 631.337 1468.38 L631.337 1451.02 Z" fill="#000000" fill-rule="nonzero" fill-opacity="1" /><path clip-path="url(#clip780)" d="M661.453 1479.7 L666.337 1479.7 L666.337 1485.58 L661.453 1485.58 L661.453 1479.7 Z" fill="#000000" fill-rule="nonzero" fill-opacity="1" /><path clip-path="url(#clip780)" d="M686.522 1454.1 Q682.911 1454.1 681.082 1457.66 Q679.277 1461.2 679.277 1468.33 Q679.277 1475.44 681.082 1479.01 Q682.911 1482.55 686.522 1482.55 Q690.156 1482.55 691.962 1479.01 Q693.79 1475.44 693.79 1468.33 Q693.79 1461.2 691.962 1457.66 Q690.156 1454.1 686.522 1454.1 M686.522 1450.39 Q692.332 1450.39 695.388 1455 Q698.466 1459.58 698.466 1468.33 Q698.466 1477.06 695.388 1481.67 Q692.332 1486.25 686.522 1486.25 Q680.712 1486.25 677.633 1481.67 Q674.578 1477.06 674.578 1468.33 Q674.578 1459.58 677.633 1455 Q680.712 1450.39 686.522 1450.39 Z" fill="#000000" fill-rule="nonzero" fill-opacity="1" /><path clip-path="url(#clip780)" d="M919.953 1466.44 Q916.805 1466.44 914.953 1468.59 Q913.124 1470.74 913.124 1474.49 Q913.124 1478.22 914.953 1480.39 Q916.805 1482.55 919.953 1482.55 Q923.101 1482.55 924.93 1480.39 Q926.782 1478.22 926.782 1474.49 Q926.782 1470.74 924.93 1468.59 Q923.101 1466.44 919.953 1466.44 M929.235 1451.78 L929.235 1456.04 Q927.476 1455.21 925.671 1454.77 Q923.888 1454.33 922.129 1454.33 Q917.499 1454.33 915.046 1457.45 Q912.615 1460.58 912.268 1466.9 Q913.634 1464.89 915.694 1463.82 Q917.754 1462.73 920.231 1462.73 Q925.439 1462.73 928.448 1465.9 Q931.481 1469.05 931.481 1474.49 Q931.481 1479.82 928.333 1483.03 Q925.184 1486.25 919.953 1486.25 Q913.958 1486.25 910.786 1481.67 Q907.615 1477.06 907.615 1468.33 Q907.615 1460.14 911.504 1455.28 Q915.393 1450.39 921.944 1450.39 Q923.703 1450.39 925.485 1450.74 Q927.291 1451.09 929.235 1451.78 Z" fill="#000000" fill-rule="nonzero" fill-opacity="1" /><path clip-path="url(#clip780)" d="M939.583 1451.02 L957.939 1451.02 L957.939 1454.96 L943.865 1454.96 L943.865 1463.43 Q944.883 1463.08 945.902 1462.92 Q946.92 1462.73 947.939 1462.73 Q953.726 1462.73 957.106 1465.9 Q960.485 1469.08 960.485 1474.49 Q960.485 1480.07 957.013 1483.17 Q953.541 1486.25 947.221 1486.25 Q945.045 1486.25 942.777 1485.88 Q940.532 1485.51 938.124 1484.77 L938.124 1480.07 Q940.208 1481.2 942.43 1481.76 Q944.652 1482.32 947.129 1482.32 Q951.133 1482.32 953.471 1480.21 Q955.809 1478.1 955.809 1474.49 Q955.809 1470.88 953.471 1468.77 Q951.133 1466.67 947.129 1466.67 Q945.254 1466.67 943.379 1467.08 Q941.527 1467.5 939.583 1468.38 L939.583 1451.02 Z" fill="#000000" fill-rule="nonzero" fill-opacity="1" /><path clip-path="url(#clip780)" d="M969.698 1479.7 L974.582 1479.7 L974.582 1485.58 L969.698 1485.58 L969.698 1479.7 Z" fill="#000000" fill-rule="nonzero" fill-opacity="1" /><path clip-path="url(#clip780)" d="M988.795 1481.64 L1005.11 1481.64 L1005.11 1485.58 L983.17 1485.58 L983.17 1481.64 Q985.832 1478.89 990.416 1474.26 Q995.022 1469.61 996.203 1468.27 Q998.448 1465.74 999.328 1464.01 Q1000.23 1462.25 1000.23 1460.56 Q1000.23 1457.8 998.286 1456.07 Q996.365 1454.33 993.263 1454.33 Q991.064 1454.33 988.61 1455.09 Q986.18 1455.86 983.402 1457.41 L983.402 1452.69 Q986.226 1451.55 988.68 1450.97 Q991.133 1450.39 993.17 1450.39 Q998.541 1450.39 1001.74 1453.08 Q1004.93 1455.77 1004.93 1460.26 Q1004.93 1462.39 1004.12 1464.31 Q1003.33 1466.2 1001.23 1468.8 Q1000.65 1469.47 997.545 1472.69 Q994.443 1475.88 988.795 1481.64 Z" fill="#000000" fill-rule="nonzero" fill-opacity="1" /><path clip-path="url(#clip780)" d="M1226.36 1466.44 Q1223.21 1466.44 1221.36 1468.59 Q1219.53 1470.74 1219.53 1474.49 Q1219.53 1478.22 1221.36 1480.39 Q1223.21 1482.55 1226.36 1482.55 Q1229.51 1482.55 1231.34 1480.39 Q1233.19 1478.22 1233.19 1474.49 Q1233.19 1470.74 1231.34 1468.59 Q1229.51 1466.44 1226.36 1466.44 M1235.64 1451.78 L1235.64 1456.04 Q1233.88 1455.21 1232.08 1454.77 Q1230.29 1454.33 1228.53 1454.33 Q1223.9 1454.33 1221.45 1457.45 Q1219.02 1460.58 1218.67 1466.9 Q1220.04 1464.89 1222.1 1463.82 Q1224.16 1462.73 1226.64 1462.73 Q1231.84 1462.73 1234.85 1465.9 Q1237.89 1469.05 1237.89 1474.49 Q1237.89 1479.82 1234.74 1483.03 Q1231.59 1486.25 1226.36 1486.25 Q1220.36 1486.25 1217.19 1481.67 Q1214.02 1477.06 1214.02 1468.33 Q1214.02 1460.14 1217.91 1455.28 Q1221.8 1450.39 1228.35 1450.39 Q1230.11 1450.39 1231.89 1450.74 Q1233.7 1451.09 1235.64 1451.78 Z" fill="#000000" fill-rule="nonzero" fill-opacity="1" /><path clip-path="url(#clip780)" d="M1245.99 1451.02 L1264.34 1451.02 L1264.34 1454.96 L1250.27 1454.96 L1250.27 1463.43 Q1251.29 1463.08 1252.31 1462.92 Q1253.33 1462.73 1254.34 1462.73 Q1260.13 1462.73 1263.51 1465.9 Q1266.89 1469.08 1266.89 1474.49 Q1266.89 1480.07 1263.42 1483.17 Q1259.95 1486.25 1253.63 1486.25 Q1251.45 1486.25 1249.18 1485.88 Q1246.94 1485.51 1244.53 1484.77 L1244.53 1480.07 Q1246.61 1481.2 1248.84 1481.76 Q1251.06 1482.32 1253.53 1482.32 Q1257.54 1482.32 1259.88 1480.21 Q1262.21 1478.1 1262.21 1474.49 Q1262.21 1470.88 1259.88 1468.77 Q1257.54 1466.67 1253.53 1466.67 Q1251.66 1466.67 1249.78 1467.08 Q1247.93 1467.5 1245.99 1468.38 L1245.99 1451.02 Z" fill="#000000" fill-rule="nonzero" fill-opacity="1" /><path clip-path="url(#clip780)" d="M1276.1 1479.7 L1280.99 1479.7 L1280.99 1485.58 L1276.1 1485.58 L1276.1 1479.7 Z" fill="#000000" fill-rule="nonzero" fill-opacity="1" /><path clip-path="url(#clip780)" d="M1304.02 1455.09 L1292.21 1473.54 L1304.02 1473.54 L1304.02 1455.09 M1302.79 1451.02 L1308.67 1451.02 L1308.67 1473.54 L1313.6 1473.54 L1313.6 1477.43 L1308.67 1477.43 L1308.67 1485.58 L1304.02 1485.58 L1304.02 1477.43 L1288.42 1477.43 L1288.42 1472.92 L1302.79 1451.02 Z" fill="#000000" fill-rule="nonzero" fill-opacity="1" /><path clip-path="url(#clip780)" d="M1533.97 1466.44 Q1530.82 1466.44 1528.97 1468.59 Q1527.14 1470.74 1527.14 1474.49 Q1527.14 1478.22 1528.97 1480.39 Q1530.82 1482.55 1533.97 1482.55 Q1537.12 1482.55 1538.94 1480.39 Q1540.8 1478.22 1540.8 1474.49 Q1540.8 1470.74 1538.94 1468.59 Q1537.12 1466.44 1533.97 1466.44 M1543.25 1451.78 L1543.25 1456.04 Q1541.49 1455.21 1539.68 1454.77 Q1537.9 1454.33 1536.14 1454.33 Q1531.51 1454.33 1529.06 1457.45 Q1526.63 1460.58 1526.28 1466.9 Q1527.65 1464.89 1529.71 1463.82 Q1531.77 1462.73 1534.25 1462.73 Q1539.45 1462.73 1542.46 1465.9 Q1545.5 1469.05 1545.5 1474.49 Q1545.5 1479.82 1542.35 1483.03 Q1539.2 1486.25 1533.97 1486.25 Q1527.97 1486.25 1524.8 1481.67 Q1521.63 1477.06 1521.63 1468.33 Q1521.63 1460.14 1525.52 1455.28 Q1529.41 1450.39 1535.96 1450.39 Q1537.72 1450.39 1539.5 1450.74 Q1541.31 1451.09 1543.25 1451.78 Z" fill="#000000" fill-rule="nonzero" fill-opacity="1" /><path clip-path="url(#clip780)" d="M1553.6 1451.02 L1571.95 1451.02 L1571.95 1454.96 L1557.88 1454.96 L1557.88 1463.43 Q1558.9 1463.08 1559.92 1462.92 Q1560.93 1462.73 1561.95 1462.73 Q1567.74 1462.73 1571.12 1465.9 Q1574.5 1469.08 1574.5 1474.49 Q1574.5 1480.07 1571.03 1483.17 Q1567.56 1486.25 1561.24 1486.25 Q1559.06 1486.25 1556.79 1485.88 Q1554.55 1485.51 1552.14 1484.77 L1552.14 1480.07 Q1554.22 1481.2 1556.44 1481.76 Q1558.67 1482.32 1561.14 1482.32 Q1565.15 1482.32 1567.49 1480.21 Q1569.82 1478.1 1569.82 1474.49 Q1569.82 1470.88 1567.49 1468.77 Q1565.15 1466.67 1561.14 1466.67 Q1559.27 1466.67 1557.39 1467.08 Q1555.54 1467.5 1553.6 1468.38 L1553.6 1451.02 Z" fill="#000000" fill-rule="nonzero" fill-opacity="1" /><path clip-path="url(#clip780)" d="M1583.71 1479.7 L1588.6 1479.7 L1588.6 1485.58 L1583.71 1485.58 L1583.71 1479.7 Z" fill="#000000" fill-rule="nonzero" fill-opacity="1" /><path clip-path="url(#clip780)" d="M1609.36 1466.44 Q1606.21 1466.44 1604.36 1468.59 Q1602.53 1470.74 1602.53 1474.49 Q1602.53 1478.22 1604.36 1480.39 Q1606.21 1482.55 1609.36 1482.55 Q1612.51 1482.55 1614.34 1480.39 Q1616.19 1478.22 1616.19 1474.49 Q1616.19 1470.74 1614.34 1468.59 Q1612.51 1466.44 1609.36 1466.44 M1618.64 1451.78 L1618.64 1456.04 Q1616.88 1455.21 1615.08 1454.77 Q1613.3 1454.33 1611.54 1454.33 Q1606.91 1454.33 1604.45 1457.45 Q1602.02 1460.58 1601.68 1466.9 Q1603.04 1464.89 1605.1 1463.82 Q1607.16 1462.73 1609.64 1462.73 Q1614.85 1462.73 1617.86 1465.9 Q1620.89 1469.05 1620.89 1474.49 Q1620.89 1479.82 1617.74 1483.03 Q1614.59 1486.25 1609.36 1486.25 Q1603.37 1486.25 1600.19 1481.67 Q1597.02 1477.06 1597.02 1468.33 Q1597.02 1460.14 1600.91 1455.28 Q1604.8 1450.39 1611.35 1450.39 Q1613.11 1450.39 1614.89 1450.74 Q1616.7 1451.09 1618.64 1451.78 Z" fill="#000000" fill-rule="nonzero" fill-opacity="1" /><path clip-path="url(#clip780)" d="M1841.54 1466.44 Q1838.39 1466.44 1836.54 1468.59 Q1834.71 1470.74 1834.71 1474.49 Q1834.71 1478.22 1836.54 1480.39 Q1838.39 1482.55 1841.54 1482.55 Q1844.69 1482.55 1846.52 1480.39 Q1848.37 1478.22 1848.37 1474.49 Q1848.37 1470.74 1846.52 1468.59 Q1844.69 1466.44 1841.54 1466.44 M1850.82 1451.78 L1850.82 1456.04 Q1849.06 1455.21 1847.26 1454.77 Q1845.48 1454.33 1843.72 1454.33 Q1839.09 1454.33 1836.63 1457.45 Q1834.2 1460.58 1833.86 1466.9 Q1835.22 1464.89 1837.28 1463.82 Q1839.34 1462.73 1841.82 1462.73 Q1847.03 1462.73 1850.04 1465.9 Q1853.07 1469.05 1853.07 1474.49 Q1853.07 1479.82 1849.92 1483.03 Q1846.77 1486.25 1841.54 1486.25 Q1835.55 1486.25 1832.37 1481.67 Q1829.2 1477.06 1829.2 1468.33 Q1829.2 1460.14 1833.09 1455.28 Q1836.98 1450.39 1843.53 1450.39 Q1845.29 1450.39 1847.07 1450.74 Q1848.88 1451.09 1850.82 1451.78 Z" fill="#000000" fill-rule="nonzero" fill-opacity="1" /><path clip-path="url(#clip780)" d="M1861.17 1451.02 L1879.53 1451.02 L1879.53 1454.96 L1865.45 1454.96 L1865.45 1463.43 Q1866.47 1463.08 1867.49 1462.92 Q1868.51 1462.73 1869.53 1462.73 Q1875.31 1462.73 1878.69 1465.9 Q1882.07 1469.08 1882.07 1474.49 Q1882.07 1480.07 1878.6 1483.17 Q1875.13 1486.25 1868.81 1486.25 Q1866.63 1486.25 1864.37 1485.88 Q1862.12 1485.51 1859.71 1484.77 L1859.71 1480.07 Q1861.8 1481.2 1864.02 1481.76 Q1866.24 1482.32 1868.72 1482.32 Q1872.72 1482.32 1875.06 1480.21 Q1877.4 1478.1 1877.4 1474.49 Q1877.4 1470.88 1875.06 1468.77 Q1872.72 1466.67 1868.72 1466.67 Q1866.84 1466.67 1864.97 1467.08 Q1863.12 1467.5 1861.17 1468.38 L1861.17 1451.02 Z" fill="#000000" fill-rule="nonzero" fill-opacity="1" /><path clip-path="url(#clip780)" d="M1891.29 1479.7 L1896.17 1479.7 L1896.17 1485.58 L1891.29 1485.58 L1891.29 1479.7 Z" fill="#000000" fill-rule="nonzero" fill-opacity="1" /><path clip-path="url(#clip780)" d="M1916.36 1469.17 Q1913.02 1469.17 1911.1 1470.95 Q1909.2 1472.73 1909.2 1475.86 Q1909.2 1478.98 1911.1 1480.77 Q1913.02 1482.55 1916.36 1482.55 Q1919.69 1482.55 1921.61 1480.77 Q1923.53 1478.96 1923.53 1475.86 Q1923.53 1472.73 1921.61 1470.95 Q1919.71 1469.17 1916.36 1469.17 M1911.68 1467.18 Q1908.67 1466.44 1906.98 1464.38 Q1905.31 1462.32 1905.31 1459.35 Q1905.31 1455.21 1908.25 1452.8 Q1911.22 1450.39 1916.36 1450.39 Q1921.52 1450.39 1924.46 1452.8 Q1927.4 1455.21 1927.4 1459.35 Q1927.4 1462.32 1925.71 1464.38 Q1924.04 1466.44 1921.06 1467.18 Q1924.43 1467.96 1926.31 1470.26 Q1928.21 1472.55 1928.21 1475.86 Q1928.21 1480.88 1925.13 1483.57 Q1922.07 1486.25 1916.36 1486.25 Q1910.64 1486.25 1907.56 1483.57 Q1904.5 1480.88 1904.5 1475.86 Q1904.5 1472.55 1906.4 1470.26 Q1908.3 1467.96 1911.68 1467.18 M1909.97 1459.79 Q1909.97 1462.48 1911.63 1463.98 Q1913.32 1465.49 1916.36 1465.49 Q1919.37 1465.49 1921.06 1463.98 Q1922.77 1462.48 1922.77 1459.79 Q1922.77 1457.11 1921.06 1455.6 Q1919.37 1454.1 1916.36 1454.1 Q1913.32 1454.1 1911.63 1455.6 Q1909.97 1457.11 1909.97 1459.79 Z" fill="#000000" fill-rule="nonzero" fill-opacity="1" /><path clip-path="url(#clip780)" d="M2148.94 1466.44 Q2145.79 1466.44 2143.94 1468.59 Q2142.11 1470.74 2142.11 1474.49 Q2142.11 1478.22 2143.94 1480.39 Q2145.79 1482.55 2148.94 1482.55 Q2152.09 1482.55 2153.92 1480.39 Q2155.77 1478.22 2155.77 1474.49 Q2155.77 1470.74 2153.92 1468.59 Q2152.09 1466.44 2148.94 1466.44 M2158.22 1451.78 L2158.22 1456.04 Q2156.47 1455.21 2154.66 1454.77 Q2152.88 1454.33 2151.12 1454.33 Q2146.49 1454.33 2144.03 1457.45 Q2141.6 1460.58 2141.26 1466.9 Q2142.62 1464.89 2144.68 1463.82 Q2146.74 1462.73 2149.22 1462.73 Q2154.43 1462.73 2157.44 1465.9 Q2160.47 1469.05 2160.47 1474.49 Q2160.47 1479.82 2157.32 1483.03 Q2154.17 1486.25 2148.94 1486.25 Q2142.95 1486.25 2139.78 1481.67 Q2136.6 1477.06 2136.6 1468.33 Q2136.6 1460.14 2140.49 1455.28 Q2144.38 1450.39 2150.93 1450.39 Q2152.69 1450.39 2154.47 1450.74 Q2156.28 1451.09 2158.22 1451.78 Z" fill="#000000" fill-rule="nonzero" fill-opacity="1" /><path clip-path="url(#clip780)" d="M2179.1 1466.44 Q2175.96 1466.44 2174.1 1468.59 Q2172.28 1470.74 2172.28 1474.49 Q2172.28 1478.22 2174.1 1480.39 Q2175.96 1482.55 2179.1 1482.55 Q2182.25 1482.55 2184.08 1480.39 Q2185.93 1478.22 2185.93 1474.49 Q2185.93 1470.74 2184.08 1468.59 Q2182.25 1466.44 2179.1 1466.44 M2188.39 1451.78 L2188.39 1456.04 Q2186.63 1455.21 2184.82 1454.77 Q2183.04 1454.33 2181.28 1454.33 Q2176.65 1454.33 2174.2 1457.45 Q2171.77 1460.58 2171.42 1466.9 Q2172.78 1464.89 2174.84 1463.82 Q2176.91 1462.73 2179.38 1462.73 Q2184.59 1462.73 2187.6 1465.9 Q2190.63 1469.05 2190.63 1474.49 Q2190.63 1479.82 2187.48 1483.03 Q2184.34 1486.25 2179.1 1486.25 Q2173.11 1486.25 2169.94 1481.67 Q2166.77 1477.06 2166.77 1468.33 Q2166.77 1460.14 2170.66 1455.28 Q2174.54 1450.39 2181.09 1450.39 Q2182.85 1450.39 2184.64 1450.74 Q2186.44 1451.09 2188.39 1451.78 Z" fill="#000000" fill-rule="nonzero" fill-opacity="1" /><path clip-path="url(#clip780)" d="M2198.69 1479.7 L2203.57 1479.7 L2203.57 1485.58 L2198.69 1485.58 L2198.69 1479.7 Z" fill="#000000" fill-rule="nonzero" fill-opacity="1" /><path clip-path="url(#clip780)" d="M2223.76 1454.1 Q2220.15 1454.1 2218.32 1457.66 Q2216.51 1461.2 2216.51 1468.33 Q2216.51 1475.44 2218.32 1479.01 Q2220.15 1482.55 2223.76 1482.55 Q2227.39 1482.55 2229.2 1479.01 Q2231.03 1475.44 2231.03 1468.33 Q2231.03 1461.2 2229.2 1457.66 Q2227.39 1454.1 2223.76 1454.1 M2223.76 1450.39 Q2229.57 1450.39 2232.62 1455 Q2235.7 1459.58 2235.7 1468.33 Q2235.7 1477.06 2232.62 1481.67 Q2229.57 1486.25 2223.76 1486.25 Q2217.95 1486.25 2214.87 1481.67 Q2211.81 1477.06 2211.81 1468.33 Q2211.81 1459.58 2214.87 1455 Q2217.95 1450.39 2223.76 1450.39 Z" fill="#000000" fill-rule="nonzero" fill-opacity="1" /><path clip-path="url(#clip780)" d="M1142.01 1526.86 L1133.29 1550.51 L1150.76 1550.51 L1142.01 1526.86 M1138.38 1520.52 L1145.67 1520.52 L1163.78 1568.04 L1157.09 1568.04 L1152.76 1555.85 L1131.34 1555.85 L1127.02 1568.04 L1120.24 1568.04 L1138.38 1520.52 Z" fill="#000000" fill-rule="nonzero" fill-opacity="1" /><path clip-path="url(#clip780)" d="M1193.92 1549.81 Q1193.92 1543.44 1191.28 1539.94 Q1188.67 1536.44 1183.92 1536.44 Q1179.21 1536.44 1176.57 1539.94 Q1173.96 1543.44 1173.96 1549.81 Q1173.96 1556.14 1176.57 1559.64 Q1179.21 1563.14 1183.92 1563.14 Q1188.67 1563.14 1191.28 1559.64 Q1193.92 1556.14 1193.92 1549.81 M1199.78 1563.62 Q1199.78 1572.72 1195.73 1577.15 Q1191.69 1581.6 1183.35 1581.6 Q1180.26 1581.6 1177.53 1581.13 Q1174.79 1580.68 1172.21 1579.72 L1172.21 1574.03 Q1174.79 1575.43 1177.3 1576.1 Q1179.82 1576.76 1182.43 1576.76 Q1188.19 1576.76 1191.05 1573.74 Q1193.92 1570.75 1193.92 1564.67 L1193.92 1561.77 Q1192.1 1564.92 1189.27 1566.48 Q1186.44 1568.04 1182.49 1568.04 Q1175.94 1568.04 1171.93 1563.05 Q1167.91 1558.05 1167.91 1549.81 Q1167.91 1541.53 1171.93 1536.53 Q1175.94 1531.54 1182.49 1531.54 Q1186.44 1531.54 1189.27 1533.1 Q1192.1 1534.66 1193.92 1537.81 L1193.92 1532.4 L1199.78 1532.4 L1199.78 1563.62 Z" fill="#000000" fill-rule="nonzero" fill-opacity="1" /><path clip-path="url(#clip780)" d="M1242.33 1548.76 L1242.33 1551.62 L1215.4 1551.62 Q1215.78 1557.67 1219.03 1560.85 Q1222.31 1564 1228.13 1564 Q1231.51 1564 1234.66 1563.17 Q1237.84 1562.35 1240.96 1560.69 L1240.96 1566.23 Q1237.81 1567.57 1234.5 1568.27 Q1231.19 1568.97 1227.78 1568.97 Q1219.25 1568.97 1214.26 1564 Q1209.29 1559.04 1209.29 1550.57 Q1209.29 1541.82 1214 1536.69 Q1218.74 1531.54 1226.77 1531.54 Q1233.96 1531.54 1238.13 1536.18 Q1242.33 1540.8 1242.33 1548.76 M1236.47 1547.04 Q1236.41 1542.23 1233.77 1539.37 Q1231.16 1536.5 1226.83 1536.5 Q1221.93 1536.5 1218.97 1539.27 Q1216.04 1542.04 1215.59 1547.07 L1236.47 1547.04 Z" fill="#000000" fill-rule="nonzero" fill-opacity="1" /><path clip-path="url(#clip780)" d="M1286.73 1518.58 Q1282.47 1525.9 1280.4 1533.06 Q1278.33 1540.23 1278.33 1547.58 Q1278.33 1554.93 1280.4 1562.16 Q1282.5 1569.35 1286.73 1576.64 L1281.64 1576.64 Q1276.86 1569.16 1274.48 1561.93 Q1272.12 1554.71 1272.12 1547.58 Q1272.12 1540.48 1274.48 1533.29 Q1276.83 1526.09 1281.64 1518.58 L1286.73 1518.58 Z" fill="#000000" fill-rule="nonzero" fill-opacity="1" /><path clip-path="url(#clip780)" d="M1298.35 1520.52 L1307.93 1520.52 L1320.06 1552.86 L1332.25 1520.52 L1341.83 1520.52 L1341.83 1568.04 L1335.56 1568.04 L1335.56 1526.32 L1323.3 1558.91 L1316.84 1558.91 L1304.59 1526.32 L1304.59 1568.04 L1298.35 1568.04 L1298.35 1520.52 Z" fill="#000000" fill-rule="nonzero" fill-opacity="1" /><path clip-path="url(#clip780)" d="M1370.54 1550.12 Q1363.44 1550.12 1360.7 1551.75 Q1357.96 1553.37 1357.96 1557.29 Q1357.96 1560.4 1360 1562.25 Q1362.07 1564.07 1365.6 1564.07 Q1370.47 1564.07 1373.4 1560.63 Q1376.36 1557.16 1376.36 1551.43 L1376.36 1550.12 L1370.54 1550.12 M1382.22 1547.71 L1382.22 1568.04 L1376.36 1568.04 L1376.36 1562.63 Q1374.35 1565.88 1371.36 1567.44 Q1368.37 1568.97 1364.04 1568.97 Q1358.57 1568.97 1355.32 1565.91 Q1352.11 1562.82 1352.11 1557.67 Q1352.11 1551.65 1356.12 1548.6 Q1360.16 1545.54 1368.15 1545.54 L1376.36 1545.54 L1376.36 1544.97 Q1376.36 1540.93 1373.69 1538.73 Q1371.04 1536.5 1366.24 1536.5 Q1363.18 1536.5 1360.29 1537.23 Q1357.39 1537.97 1354.72 1539.43 L1354.72 1534.02 Q1357.93 1532.78 1360.95 1532.17 Q1363.98 1531.54 1366.84 1531.54 Q1374.58 1531.54 1378.4 1535.55 Q1382.22 1539.56 1382.22 1547.71 Z" fill="#000000" fill-rule="nonzero" fill-opacity="1" /><path clip-path="url(#clip780)" d="M1393.36 1518.58 L1398.45 1518.58 Q1403.22 1526.09 1405.58 1533.29 Q1407.97 1540.48 1407.97 1547.58 Q1407.97 1554.71 1405.58 1561.93 Q1403.22 1569.16 1398.45 1576.64 L1393.36 1576.64 Q1397.59 1569.35 1399.66 1562.16 Q1401.76 1554.93 1401.76 1547.58 Q1401.76 1540.23 1399.66 1533.06 Q1397.59 1525.9 1393.36 1518.58 Z" fill="#000000" fill-rule="nonzero" fill-opacity="1" /><polyline clip-path="url(#clip780)" style="stroke:#000000; stroke-linecap:round; stroke-linejoin:round; stroke-width:4; stroke-opacity:1; fill:none" points="175.445,1423.18 175.445,47.2441 "/>
<polyline clip-path="url(#clip780)" style="stroke:#000000; stroke-linecap:round; stroke-linejoin:round; stroke-width:4; stroke-opacity:1; fill:none" points="2352.76,1423.18 2352.76,47.2441 "/>
<polyline clip-path="url(#clip780)" style="stroke:#000000; stroke-linecap:round; stroke-linejoin:round; stroke-width:4; stroke-opacity:1; fill:none" points="175.445,1384.24 194.343,1384.24 "/>
<polyline clip-path="url(#clip780)" style="stroke:#000000; stroke-linecap:round; stroke-linejoin:round; stroke-width:4; stroke-opacity:1; fill:none" points="175.445,1039.66 194.343,1039.66 "/>
<polyline clip-path="url(#clip780)" style="stroke:#000000; stroke-linecap:round; stroke-linejoin:round; stroke-width:4; stroke-opacity:1; fill:none" points="175.445,695.077 194.343,695.077 "/>
<polyline clip-path="url(#clip780)" style="stroke:#000000; stroke-linecap:round; stroke-linejoin:round; stroke-width:4; stroke-opacity:1; fill:none" points="175.445,350.496 194.343,350.496 "/>
<polyline clip-path="url(#clip780)" style="stroke:#000000; stroke-linecap:round; stroke-linejoin:round; stroke-width:4; stroke-opacity:1; fill:none" points="2352.76,1384.24 2333.86,1384.24 "/>
<polyline clip-path="url(#clip780)" style="stroke:#000000; stroke-linecap:round; stroke-linejoin:round; stroke-width:4; stroke-opacity:1; fill:none" points="2352.76,1039.66 2333.86,1039.66 "/>
<polyline clip-path="url(#clip780)" style="stroke:#000000; stroke-linecap:round; stroke-linejoin:round; stroke-width:4; stroke-opacity:1; fill:none" points="2352.76,695.077 2333.86,695.077 "/>
<polyline clip-path="url(#clip780)" style="stroke:#000000; stroke-linecap:round; stroke-linejoin:round; stroke-width:4; stroke-opacity:1; fill:none" points="2352.76,350.496 2333.86,350.496 "/>
<path clip-path="url(#clip780)" d="M127.501 1370.04 Q123.89 1370.04 122.061 1373.6 Q120.255 1377.14 120.255 1384.27 Q120.255 1391.38 122.061 1394.94 Q123.89 1398.49 127.501 1398.49 Q131.135 1398.49 132.941 1394.94 Q134.769 1391.38 134.769 1384.27 Q134.769 1377.14 132.941 1373.6 Q131.135 1370.04 127.501 1370.04 M127.501 1366.33 Q133.311 1366.33 136.367 1370.94 Q139.445 1375.52 139.445 1384.27 Q139.445 1393 136.367 1397.61 Q133.311 1402.19 127.501 1402.19 Q121.691 1402.19 118.612 1397.61 Q115.556 1393 115.556 1384.27 Q115.556 1375.52 118.612 1370.94 Q121.691 1366.33 127.501 1366.33 Z" fill="#000000" fill-rule="nonzero" fill-opacity="1" /><path clip-path="url(#clip780)" d="M123.126 1053 L139.445 1053 L139.445 1056.94 L117.501 1056.94 L117.501 1053 Q120.163 1050.25 124.746 1045.62 Q129.353 1040.97 130.533 1039.62 Q132.779 1037.1 133.658 1035.36 Q134.561 1033.6 134.561 1031.91 Q134.561 1029.16 132.617 1027.42 Q130.695 1025.69 127.593 1025.69 Q125.394 1025.69 122.941 1026.45 Q120.51 1027.22 117.732 1028.77 L117.732 1024.04 Q120.556 1022.91 123.01 1022.33 Q125.464 1021.75 127.501 1021.75 Q132.871 1021.75 136.066 1024.44 Q139.26 1027.12 139.26 1031.61 Q139.26 1033.74 138.45 1035.66 Q137.663 1037.56 135.556 1040.16 Q134.978 1040.83 131.876 1044.04 Q128.774 1047.24 123.126 1053 Z" fill="#000000" fill-rule="nonzero" fill-opacity="1" /><path clip-path="url(#clip780)" d="M129.862 681.871 L118.056 700.32 L129.862 700.32 L129.862 681.871 M128.635 677.797 L134.515 677.797 L134.515 700.32 L139.445 700.32 L139.445 704.209 L134.515 704.209 L134.515 712.357 L129.862 712.357 L129.862 704.209 L114.26 704.209 L114.26 699.695 L128.635 677.797 Z" fill="#000000" fill-rule="nonzero" fill-opacity="1" /><path clip-path="url(#clip780)" d="M127.917 348.633 Q124.769 348.633 122.918 350.785 Q121.089 352.938 121.089 356.688 Q121.089 360.415 122.918 362.591 Q124.769 364.744 127.917 364.744 Q131.066 364.744 132.894 362.591 Q134.746 360.415 134.746 356.688 Q134.746 352.938 132.894 350.785 Q131.066 348.633 127.917 348.633 M137.2 333.98 L137.2 338.239 Q135.441 337.406 133.635 336.966 Q131.853 336.526 130.093 336.526 Q125.464 336.526 123.01 339.651 Q120.58 342.776 120.232 349.096 Q121.598 347.082 123.658 346.017 Q125.718 344.929 128.195 344.929 Q133.404 344.929 136.413 348.1 Q139.445 351.248 139.445 356.688 Q139.445 362.012 136.297 365.23 Q133.149 368.447 127.917 368.447 Q121.922 368.447 118.751 363.864 Q115.58 359.258 115.58 350.531 Q115.58 342.336 119.468 337.475 Q123.357 332.591 129.908 332.591 Q131.667 332.591 133.45 332.938 Q135.255 333.285 137.2 333.98 Z" fill="#000000" fill-rule="nonzero" fill-opacity="1" /><path clip-path="url(#clip780)" d="M21.7677 1026.76 L39.6235 1026.76 L39.6235 1018.68 Q39.6235 1014.19 37.3 1011.74 Q34.9765 1009.29 30.6797 1009.29 Q26.4147 1009.29 24.0912 1011.74 Q21.7677 1014.19 21.7677 1018.68 L21.7677 1026.76 M16.4842 1033.19 L16.4842 1018.68 Q16.4842 1010.69 20.1126 1006.61 Q23.7092 1002.51 30.6797 1002.51 Q37.7138 1002.51 41.3104 1006.61 Q44.907 1010.69 44.907 1018.68 L44.907 1026.76 L64.0042 1026.76 L64.0042 1033.19 L16.4842 1033.19 Z" fill="#000000" fill-rule="nonzero" fill-opacity="1" /><path clip-path="url(#clip780)" d="M33.8307 974.626 Q33.2578 975.613 33.0032 976.791 Q32.7167 977.936 32.7167 979.337 Q32.7167 984.302 35.9632 986.976 Q39.1779 989.617 45.2253 989.617 L64.0042 989.617 L64.0042 995.506 L28.3562 995.506 L28.3562 989.617 L33.8944 989.617 Q30.6479 987.771 29.0883 984.811 Q27.4968 981.851 27.4968 977.618 Q27.4968 977.013 27.5923 976.281 Q27.656 975.549 27.8151 974.658 L33.8307 974.626 Z" fill="#000000" fill-rule="nonzero" fill-opacity="1" /><path clip-path="url(#clip780)" d="M32.4621 956.102 Q32.4621 960.813 36.1542 963.55 Q39.8145 966.287 46.212 966.287 Q52.6095 966.287 56.3017 963.582 Q59.9619 960.844 59.9619 956.102 Q59.9619 951.423 56.2698 948.686 Q52.5777 945.949 46.212 945.949 Q39.8781 945.949 36.186 948.686 Q32.4621 951.423 32.4621 956.102 M27.4968 956.102 Q27.4968 948.463 32.4621 944.103 Q37.4273 939.742 46.212 939.742 Q54.9649 939.742 59.9619 944.103 Q64.9272 948.463 64.9272 956.102 Q64.9272 963.773 59.9619 968.133 Q54.9649 972.462 46.212 972.462 Q37.4273 972.462 32.4621 968.133 Q27.4968 963.773 27.4968 956.102 Z" fill="#000000" fill-rule="nonzero" fill-opacity="1" /><path clip-path="url(#clip780)" d="M46.212 904.444 Q39.7508 904.444 36.0905 907.118 Q32.3984 909.76 32.3984 914.407 Q32.3984 919.054 36.0905 921.727 Q39.7508 924.369 46.212 924.369 Q52.6732 924.369 56.3653 921.727 Q60.0256 919.054 60.0256 914.407 Q60.0256 909.76 56.3653 907.118 Q52.6732 904.444 46.212 904.444 M33.7671 924.369 Q30.5842 922.523 29.0564 919.722 Q27.4968 916.889 27.4968 912.974 Q27.4968 906.481 32.6531 902.439 Q37.8093 898.365 46.212 898.365 Q54.6147 898.365 59.771 902.439 Q64.9272 906.481 64.9272 912.974 Q64.9272 916.889 63.3994 919.722 Q61.8398 922.523 58.657 924.369 L64.0042 924.369 L64.0042 930.257 L14.479 930.257 L14.479 924.369 L33.7671 924.369 Z" fill="#000000" fill-rule="nonzero" fill-opacity="1" /><path clip-path="url(#clip780)" d="M46.0847 872.457 Q46.0847 879.554 47.7079 882.292 Q49.3312 885.029 53.2461 885.029 Q56.3653 885.029 58.2114 882.992 Q60.0256 880.923 60.0256 877.39 Q60.0256 872.52 56.5881 869.592 Q53.1188 866.632 47.3897 866.632 L46.0847 866.632 L46.0847 872.457 M43.6657 860.776 L64.0042 860.776 L64.0042 866.632 L58.5933 866.632 Q61.8398 868.637 63.3994 871.629 Q64.9272 874.621 64.9272 878.95 Q64.9272 884.424 61.8716 887.671 Q58.7843 890.885 53.6281 890.885 Q47.6125 890.885 44.5569 886.875 Q41.5014 882.833 41.5014 874.844 L41.5014 866.632 L40.9285 866.632 Q36.8862 866.632 34.6901 869.306 Q32.4621 871.947 32.4621 876.753 Q32.4621 879.809 33.1941 882.705 Q33.9262 885.602 35.3903 888.275 L29.9795 888.275 Q28.7381 885.061 28.1334 882.037 Q27.4968 879.013 27.4968 876.149 Q27.4968 868.414 31.5072 864.595 Q35.5176 860.776 43.6657 860.776 Z" fill="#000000" fill-rule="nonzero" fill-opacity="1" /><path clip-path="url(#clip780)" d="M46.212 823.122 Q39.7508 823.122 36.0905 825.796 Q32.3984 828.438 32.3984 833.085 Q32.3984 837.732 36.0905 840.405 Q39.7508 843.047 46.212 843.047 Q52.6732 843.047 56.3653 840.405 Q60.0256 837.732 60.0256 833.085 Q60.0256 828.438 56.3653 825.796 Q52.6732 823.122 46.212 823.122 M33.7671 843.047 Q30.5842 841.201 29.0564 838.4 Q27.4968 835.567 27.4968 831.652 Q27.4968 825.159 32.6531 821.117 Q37.8093 817.043 46.212 817.043 Q54.6147 817.043 59.771 821.117 Q64.9272 825.159 64.9272 831.652 Q64.9272 835.567 63.3994 838.4 Q61.8398 841.201 58.657 843.047 L64.0042 843.047 L64.0042 848.935 L14.479 848.935 L14.479 843.047 L33.7671 843.047 Z" fill="#000000" fill-rule="nonzero" fill-opacity="1" /><path clip-path="url(#clip780)" d="M28.3562 807.335 L28.3562 801.479 L64.0042 801.479 L64.0042 807.335 L28.3562 807.335 M14.479 807.335 L14.479 801.479 L21.895 801.479 L21.895 807.335 L14.479 807.335 Z" fill="#000000" fill-rule="nonzero" fill-opacity="1" /><path clip-path="url(#clip780)" d="M14.479 789.225 L14.479 783.369 L64.0042 783.369 L64.0042 789.225 L14.479 789.225 Z" fill="#000000" fill-rule="nonzero" fill-opacity="1" /><path clip-path="url(#clip780)" d="M28.3562 771.115 L28.3562 765.258 L64.0042 765.258 L64.0042 771.115 L28.3562 771.115 M14.479 771.115 L14.479 765.258 L21.895 765.258 L21.895 771.115 L14.479 771.115 Z" fill="#000000" fill-rule="nonzero" fill-opacity="1" /><path clip-path="url(#clip780)" d="M18.2347 747.211 L28.3562 747.211 L28.3562 735.148 L32.9077 735.148 L32.9077 747.211 L52.2594 747.211 Q56.6199 747.211 57.8613 746.034 Q59.1026 744.824 59.1026 741.164 L59.1026 735.148 L64.0042 735.148 L64.0042 741.164 Q64.0042 747.943 61.4897 750.521 Q58.9434 753.1 52.2594 753.1 L32.9077 753.1 L32.9077 757.396 L28.3562 757.396 L28.3562 753.1 L18.2347 753.1 L18.2347 747.211 Z" fill="#000000" fill-rule="nonzero" fill-opacity="1" /><path clip-path="url(#clip780)" d="M67.3143 712.614 Q73.68 715.096 75.6216 717.452 Q77.5631 719.807 77.5631 723.754 L77.5631 728.432 L72.6615 728.432 L72.6615 724.995 Q72.6615 722.576 71.5157 721.239 Q70.3699 719.902 66.1048 718.279 L63.4312 717.229 L28.3562 731.647 L28.3562 725.441 L56.238 714.301 L28.3562 703.161 L28.3562 696.954 L67.3143 712.614 Z" fill="#000000" fill-rule="nonzero" fill-opacity="1" /><path clip-path="url(#clip780)" d="M33.7671 644.692 L14.479 644.692 L14.479 638.835 L64.0042 638.835 L64.0042 644.692 L58.657 644.692 Q61.8398 646.538 63.3994 649.37 Q64.9272 652.171 64.9272 656.118 Q64.9272 662.579 59.771 666.653 Q54.6147 670.696 46.212 670.696 Q37.8093 670.696 32.6531 666.653 Q27.4968 662.579 27.4968 656.118 Q27.4968 652.171 29.0564 649.37 Q30.5842 646.538 33.7671 644.692 M46.212 664.648 Q52.6732 664.648 56.3653 662.006 Q60.0256 659.333 60.0256 654.686 Q60.0256 650.039 56.3653 647.365 Q52.6732 644.692 46.212 644.692 Q39.7508 644.692 36.0905 647.365 Q32.3984 650.039 32.3984 654.686 Q32.3984 659.333 36.0905 662.006 Q39.7508 664.648 46.212 664.648 Z" fill="#000000" fill-rule="nonzero" fill-opacity="1" /><path clip-path="url(#clip780)" d="M44.7161 596.28 L47.5806 596.28 L47.5806 623.207 Q53.6281 622.825 56.8109 619.579 Q59.9619 616.301 59.9619 610.476 Q59.9619 607.102 59.1344 603.951 Q58.3069 600.768 56.6518 597.649 L62.1899 597.649 Q63.5267 600.8 64.227 604.11 Q64.9272 607.42 64.9272 610.826 Q64.9272 619.356 59.9619 624.353 Q54.9967 629.318 46.5303 629.318 Q37.7774 629.318 32.6531 624.608 Q27.4968 619.865 27.4968 611.845 Q27.4968 604.651 32.1438 600.482 Q36.7589 596.28 44.7161 596.28 M42.9973 602.137 Q38.1912 602.201 35.3266 604.842 Q32.4621 607.452 32.4621 611.781 Q32.4621 616.683 35.2312 619.643 Q38.0002 622.571 43.0292 623.016 L42.9973 602.137 Z" fill="#000000" fill-rule="nonzero" fill-opacity="1" /><path clip-path="url(#clip780)" d="M42.4881 557.036 L64.0042 557.036 L64.0042 562.892 L42.679 562.892 Q37.6183 562.892 35.1038 564.866 Q32.5894 566.839 32.5894 570.786 Q32.5894 575.528 35.6131 578.265 Q38.6368 581.003 43.8567 581.003 L64.0042 581.003 L64.0042 586.891 L28.3562 586.891 L28.3562 581.003 L33.8944 581.003 Q30.6797 578.902 29.0883 576.069 Q27.4968 573.205 27.4968 569.481 Q27.4968 563.338 31.3163 560.187 Q35.1038 557.036 42.4881 557.036 Z" fill="#000000" fill-rule="nonzero" fill-opacity="1" /><path clip-path="url(#clip780)" d="M29.4065 522.629 L34.9447 522.629 Q33.6716 525.112 33.035 527.785 Q32.3984 530.459 32.3984 533.324 Q32.3984 537.684 33.7352 539.88 Q35.072 542.045 37.7456 542.045 Q39.7826 542.045 40.9603 540.485 Q42.1061 538.925 43.1565 534.215 L43.6021 532.21 Q44.9389 525.971 47.3897 523.361 Q49.8086 520.719 54.1691 520.719 Q59.1344 520.719 62.0308 524.666 Q64.9272 528.581 64.9272 535.456 Q64.9272 538.321 64.3543 541.44 Q63.8132 544.527 62.6992 547.965 L56.6518 547.965 Q58.3387 544.718 59.198 541.567 Q60.0256 538.416 60.0256 535.329 Q60.0256 531.191 58.6251 528.963 Q57.1929 526.735 54.6147 526.735 Q52.2276 526.735 50.9545 528.358 Q49.6813 529.95 48.5037 535.392 L48.0262 537.429 Q46.8804 542.872 44.5251 545.291 Q42.138 547.71 38.0002 547.71 Q32.9713 547.71 30.2341 544.145 Q27.4968 540.58 27.4968 534.024 Q27.4968 530.777 27.9743 527.913 Q28.4517 525.048 29.4065 522.629 Z" fill="#000000" fill-rule="nonzero" fill-opacity="1" /><path clip-path="url(#clip780)" d="M28.3562 511.394 L28.3562 505.537 L64.0042 505.537 L64.0042 511.394 L28.3562 511.394 M14.479 511.394 L14.479 505.537 L21.895 505.537 L21.895 511.394 L14.479 511.394 Z" fill="#000000" fill-rule="nonzero" fill-opacity="1" /><path clip-path="url(#clip780)" d="M18.2347 487.49 L28.3562 487.49 L28.3562 475.427 L32.9077 475.427 L32.9077 487.49 L52.2594 487.49 Q56.6199 487.49 57.8613 486.313 Q59.1026 485.103 59.1026 481.443 L59.1026 475.427 L64.0042 475.427 L64.0042 481.443 Q64.0042 488.223 61.4897 490.801 Q58.9434 493.379 52.2594 493.379 L32.9077 493.379 L32.9077 497.676 L28.3562 497.676 L28.3562 493.379 L18.2347 493.379 L18.2347 487.49 Z" fill="#000000" fill-rule="nonzero" fill-opacity="1" /><path clip-path="url(#clip780)" d="M67.3143 452.893 Q73.68 455.376 75.6216 457.731 Q77.5631 460.086 77.5631 464.033 L77.5631 468.712 L72.6615 468.712 L72.6615 465.274 Q72.6615 462.855 71.5157 461.518 Q70.3699 460.182 66.1048 458.558 L63.4312 457.508 L28.3562 471.926 L28.3562 465.72 L56.238 454.58 L28.3562 443.44 L28.3562 437.233 L67.3143 452.893 Z" fill="#000000" fill-rule="nonzero" fill-opacity="1" /><polyline clip-path="url(#clip782)" style="stroke:#009af9; stroke-linecap:round; stroke-linejoin:round; stroke-width:4; stroke-opacity:1; fill:none" points="237.067,1384.22 281.721,1384.17 304.048,1384.22 326.374,1384.16 415.682,1384.14 460.335,1384.09 482.662,1383.93 504.989,1384.14 527.316,1384.09 571.969,1384.22 594.296,1384.22 661.277,1384.12 683.603,1384.08 705.93,1384.22 750.584,1384.2 772.911,1384.18 817.564,1384.18 862.218,1384.14 884.545,1384.18 906.872,1384.18 973.852,1384.14 1018.51,1384.16 1040.83,1384.12 1063.16,1384.2 1085.49,1383.63 1107.81,1384.04 1130.14,1384.16 1152.47,1384.14 1197.12,1384.02 1219.45,1384.16 1241.77,1383.79 1264.1,1383.73 1286.43,1383.88 1308.75,1383.94 1331.08,1383.57 1353.41,1383.47 1375.73,1383.55 1398.06,1383.5 1420.39,1383.2 1442.72,1383 1465.04,1382.42 1487.37,1382.54 1509.7,1382.3 1532.02,1380.57 1554.35,1380.52 1576.68,1379.1 1599,1377.32 1621.33,1376.43 1643.66,1372.01 1665.98,1367.98 1688.31,1363.89 1710.64,1358.29 1732.96,1342.57 1755.29,1331.76 1777.62,1317.81 1799.94,1289.66 1822.27,1262.15 1844.6,1205.13 1866.92,1148.82 1889.25,1074.73 1911.58,980.044 1933.9,860.05 1956.23,705.909 1978.56,570.595 2000.89,514.543 2023.21,485.152 2045.54,465.384 2067.87,436.021 2090.19,370.534 2112.52,229.173 2134.85,86.1857 2157.17,100.74 2179.5,508.925 2201.83,1008.88 2224.15,1254.42 2246.48,1356.29 2268.81,1379.88 2291.13,1383.69 "/>
<polyline clip-path="url(#clip782)" style="stroke:#e26f46; stroke-linecap:round; stroke-linejoin:round; stroke-width:4; stroke-opacity:1; fill:none" points="237.067,1384.24 281.721,1384.24 304.048,1384.24 326.374,1384.24 415.682,1384.24 460.335,1384.23 482.662,1384.23 504.989,1384.23 527.316,1384.23 571.969,1384.23 594.296,1384.23 661.277,1384.22 683.603,1384.22 705.93,1384.21 750.584,1384.2 772.911,1384.2 817.564,1384.18 862.218,1384.15 884.545,1384.14 906.872,1384.12 973.852,1384.03 1018.51,1383.95 1040.83,1383.89 1063.16,1383.82 1085.49,1383.74 1107.81,1383.64 1130.14,1383.53 1152.47,1383.39 1197.12,1383.02 1219.45,1382.79 1241.77,1382.51 1264.1,1382.17 1286.43,1381.77 1308.75,1381.29 1331.08,1380.71 1353.41,1380.03 1375.73,1379.21 1398.06,1378.23 1420.39,1377.07 1442.72,1375.68 1465.04,1374.02 1487.37,1372.04 1509.7,1369.68 1532.02,1366.86 1554.35,1363.51 1576.68,1359.5 1599,1354.74 1621.33,1349.06 1643.66,1342.3 1665.98,1334.25 1688.31,1324.68 1710.64,1313.31 1732.96,1299.8 1755.29,1283.77 1777.62,1264.78 1799.94,1242.3 1822.27,1215.73 1844.6,1184.41 1866.92,1147.58 1889.25,1104.41 1911.58,1054.03 1933.9,995.577 1956.23,928.266 1978.56,851.57 2000.89,765.48 2023.21,670.964 2045.54,570.719 2067.87,470.407 2090.19,380.593 2112.52,319.562 2134.85,316.566 2157.17,412.353 2179.5,645.297 2201.83,995.661 2224.15,1296.82 2246.48,1382.05 2268.81,1384.24 2291.13,1384.24 "/>
<path clip-path="url(#clip780)" d="M248.022 248.629 L800.057 248.629 L800.057 93.1086 L248.022 93.1086  Z" fill="#ffffff" fill-rule="evenodd" fill-opacity="1"/>
<polyline clip-path="url(#clip780)" style="stroke:#ffffff; stroke-linecap:round; stroke-linejoin:round; stroke-width:4; stroke-opacity:1; fill:none" points="248.022,248.629 800.057,248.629 800.057,93.1086 248.022,93.1086 248.022,248.629 "/>
<polyline clip-path="url(#clip780)" style="stroke:#009af9; stroke-linecap:round; stroke-linejoin:round; stroke-width:4; stroke-opacity:1; fill:none" points="272.215,144.949 417.369,144.949 "/>
<path clip-path="url(#clip780)" d="M441.561 127.669 L446.237 127.669 L446.237 141.835 L463.228 141.835 L463.228 127.669 L467.903 127.669 L467.903 162.229 L463.228 162.229 L463.228 145.77 L446.237 145.77 L446.237 162.229 L441.561 162.229 L441.561 127.669 Z" fill="#000000" fill-rule="nonzero" fill-opacity="1" /><path clip-path="url(#clip780)" d="M477.024 136.303 L481.283 136.303 L481.283 162.229 L477.024 162.229 L477.024 136.303 M477.024 126.21 L481.283 126.21 L481.283 131.604 L477.024 131.604 L477.024 126.21 Z" fill="#000000" fill-rule="nonzero" fill-opacity="1" /><path clip-path="url(#clip780)" d="M506.723 137.067 L506.723 141.094 Q504.917 140.169 502.973 139.706 Q501.028 139.243 498.945 139.243 Q495.774 139.243 494.176 140.215 Q492.602 141.187 492.602 143.131 Q492.602 144.613 493.737 145.469 Q494.871 146.303 498.297 147.067 L499.755 147.391 Q504.292 148.363 506.19 150.145 Q508.112 151.905 508.112 155.076 Q508.112 158.687 505.241 160.793 Q502.394 162.9 497.394 162.9 Q495.311 162.9 493.042 162.483 Q490.797 162.09 488.297 161.28 L488.297 156.881 Q490.658 158.108 492.95 158.733 Q495.241 159.335 497.487 159.335 Q500.496 159.335 502.116 158.317 Q503.737 157.275 503.737 155.4 Q503.737 153.664 502.556 152.738 Q501.399 151.812 497.44 150.956 L495.959 150.608 Q492.001 149.775 490.241 148.062 Q488.482 146.326 488.482 143.317 Q488.482 139.659 491.075 137.669 Q493.667 135.678 498.436 135.678 Q500.797 135.678 502.88 136.025 Q504.963 136.372 506.723 137.067 Z" fill="#000000" fill-rule="nonzero" fill-opacity="1" /><path clip-path="url(#clip780)" d="M519.107 128.942 L519.107 136.303 L527.88 136.303 L527.88 139.613 L519.107 139.613 L519.107 153.687 Q519.107 156.858 519.963 157.761 Q520.843 158.664 523.505 158.664 L527.88 158.664 L527.88 162.229 L523.505 162.229 Q518.574 162.229 516.699 160.4 Q514.824 158.548 514.824 153.687 L514.824 139.613 L511.699 139.613 L511.699 136.303 L514.824 136.303 L514.824 128.942 L519.107 128.942 Z" fill="#000000" fill-rule="nonzero" fill-opacity="1" /><path clip-path="url(#clip780)" d="M543.528 139.289 Q540.102 139.289 538.111 141.974 Q536.121 144.636 536.121 149.289 Q536.121 153.942 538.088 156.627 Q540.079 159.289 543.528 159.289 Q546.931 159.289 548.921 156.604 Q550.912 153.918 550.912 149.289 Q550.912 144.682 548.921 141.997 Q546.931 139.289 543.528 139.289 M543.528 135.678 Q549.084 135.678 552.255 139.289 Q555.426 142.9 555.426 149.289 Q555.426 155.655 552.255 159.289 Q549.084 162.9 543.528 162.9 Q537.949 162.9 534.778 159.289 Q531.63 155.655 531.63 149.289 Q531.63 142.9 534.778 139.289 Q537.949 135.678 543.528 135.678 Z" fill="#000000" fill-rule="nonzero" fill-opacity="1" /><path clip-path="url(#clip780)" d="M579.546 148.965 Q579.546 144.335 577.625 141.789 Q575.727 139.243 572.278 139.243 Q568.852 139.243 566.931 141.789 Q565.033 144.335 565.033 148.965 Q565.033 153.571 566.931 156.118 Q568.852 158.664 572.278 158.664 Q575.727 158.664 577.625 156.118 Q579.546 153.571 579.546 148.965 M583.806 159.011 Q583.806 165.631 580.866 168.849 Q577.926 172.09 571.861 172.09 Q569.616 172.09 567.625 171.742 Q565.634 171.418 563.759 170.724 L563.759 166.58 Q565.634 167.599 567.463 168.085 Q569.292 168.571 571.19 168.571 Q575.38 168.571 577.463 166.372 Q579.546 164.196 579.546 159.775 L579.546 157.668 Q578.227 159.96 576.167 161.094 Q574.107 162.229 571.236 162.229 Q566.468 162.229 563.551 158.594 Q560.634 154.96 560.634 148.965 Q560.634 142.946 563.551 139.312 Q566.468 135.678 571.236 135.678 Q574.107 135.678 576.167 136.812 Q578.227 137.946 579.546 140.238 L579.546 136.303 L583.806 136.303 L583.806 159.011 Z" fill="#000000" fill-rule="nonzero" fill-opacity="1" /><path clip-path="url(#clip780)" d="M607.602 140.284 Q606.884 139.868 606.028 139.682 Q605.194 139.474 604.176 139.474 Q600.565 139.474 598.62 141.835 Q596.699 144.173 596.699 148.571 L596.699 162.229 L592.417 162.229 L592.417 136.303 L596.699 136.303 L596.699 140.331 Q598.042 137.969 600.194 136.835 Q602.347 135.678 605.426 135.678 Q605.866 135.678 606.398 135.747 Q606.93 135.794 607.579 135.909 L607.602 140.284 Z" fill="#000000" fill-rule="nonzero" fill-opacity="1" /><path clip-path="url(#clip780)" d="M623.852 149.196 Q618.69 149.196 616.699 150.377 Q614.708 151.557 614.708 154.405 Q614.708 156.673 616.19 158.016 Q617.694 159.335 620.264 159.335 Q623.805 159.335 625.935 156.835 Q628.088 154.312 628.088 150.145 L628.088 149.196 L623.852 149.196 M632.347 147.437 L632.347 162.229 L628.088 162.229 L628.088 158.293 Q626.629 160.655 624.453 161.789 Q622.278 162.9 619.129 162.9 Q615.148 162.9 612.787 160.678 Q610.449 158.432 610.449 154.682 Q610.449 150.307 613.366 148.085 Q616.305 145.863 622.116 145.863 L628.088 145.863 L628.088 145.446 Q628.088 142.507 626.143 140.909 Q624.222 139.289 620.727 139.289 Q618.504 139.289 616.398 139.821 Q614.292 140.354 612.347 141.419 L612.347 137.483 Q614.685 136.581 616.884 136.141 Q619.083 135.678 621.166 135.678 Q626.791 135.678 629.569 138.594 Q632.347 141.511 632.347 147.437 Z" fill="#000000" fill-rule="nonzero" fill-opacity="1" /><path clip-path="url(#clip780)" d="M661.305 141.28 Q662.902 138.409 665.125 137.044 Q667.347 135.678 670.356 135.678 Q674.407 135.678 676.606 138.525 Q678.805 141.349 678.805 146.581 L678.805 162.229 L674.523 162.229 L674.523 146.719 Q674.523 142.993 673.203 141.187 Q671.884 139.382 669.175 139.382 Q665.865 139.382 663.944 141.581 Q662.023 143.78 662.023 147.576 L662.023 162.229 L657.74 162.229 L657.74 146.719 Q657.74 142.969 656.421 141.187 Q655.101 139.382 652.347 139.382 Q649.083 139.382 647.162 141.604 Q645.24 143.803 645.24 147.576 L645.24 162.229 L640.958 162.229 L640.958 136.303 L645.24 136.303 L645.24 140.331 Q646.699 137.946 648.736 136.812 Q650.773 135.678 653.574 135.678 Q656.398 135.678 658.365 137.113 Q660.356 138.548 661.305 141.28 Z" fill="#000000" fill-rule="nonzero" fill-opacity="1" /><polyline clip-path="url(#clip780)" style="stroke:#e26f46; stroke-linecap:round; stroke-linejoin:round; stroke-width:4; stroke-opacity:1; fill:none" points="272.215,196.789 417.369,196.789 "/>
<path clip-path="url(#clip780)" d="M446.237 183.351 L446.237 210.226 L451.885 210.226 Q459.038 210.226 462.348 206.985 Q465.681 203.745 465.681 196.754 Q465.681 189.809 462.348 186.592 Q459.038 183.351 451.885 183.351 L446.237 183.351 M441.561 179.509 L451.167 179.509 Q461.214 179.509 465.913 183.698 Q470.612 187.865 470.612 196.754 Q470.612 205.689 465.89 209.879 Q461.167 214.069 451.167 214.069 L441.561 214.069 L441.561 179.509 Z" fill="#000000" fill-rule="nonzero" fill-opacity="1" /><path clip-path="url(#clip780)" d="M477.88 188.143 L482.139 188.143 L482.139 214.069 L477.88 214.069 L477.88 188.143 M477.88 178.05 L482.139 178.05 L482.139 183.444 L477.88 183.444 L477.88 178.05 Z" fill="#000000" fill-rule="nonzero" fill-opacity="1" /><path clip-path="url(#clip780)" d="M507.579 188.907 L507.579 192.934 Q505.774 192.009 503.829 191.546 Q501.885 191.083 499.801 191.083 Q496.63 191.083 495.033 192.055 Q493.459 193.027 493.459 194.971 Q493.459 196.453 494.593 197.309 Q495.727 198.143 499.153 198.907 L500.612 199.231 Q505.149 200.203 507.047 201.985 Q508.968 203.745 508.968 206.916 Q508.968 210.527 506.098 212.633 Q503.25 214.74 498.25 214.74 Q496.167 214.74 493.899 214.323 Q491.653 213.93 489.153 213.12 L489.153 208.721 Q491.514 209.948 493.806 210.573 Q496.098 211.175 498.343 211.175 Q501.352 211.175 502.973 210.157 Q504.593 209.115 504.593 207.24 Q504.593 205.504 503.412 204.578 Q502.255 203.652 498.297 202.796 L496.815 202.448 Q492.857 201.615 491.098 199.902 Q489.338 198.166 489.338 195.157 Q489.338 191.499 491.931 189.509 Q494.524 187.518 499.292 187.518 Q501.653 187.518 503.737 187.865 Q505.82 188.212 507.579 188.907 Z" fill="#000000" fill-rule="nonzero" fill-opacity="1" /><path clip-path="url(#clip780)" d="M519.963 180.782 L519.963 188.143 L528.736 188.143 L528.736 191.453 L519.963 191.453 L519.963 205.527 Q519.963 208.698 520.82 209.601 Q521.699 210.504 524.361 210.504 L528.736 210.504 L528.736 214.069 L524.361 214.069 Q519.431 214.069 517.556 212.24 Q515.681 210.388 515.681 205.527 L515.681 191.453 L512.556 191.453 L512.556 188.143 L515.681 188.143 L515.681 180.782 L519.963 180.782 Z" fill="#000000" fill-rule="nonzero" fill-opacity="1" /><path clip-path="url(#clip780)" d="M549.361 192.124 Q548.644 191.708 547.787 191.522 Q546.954 191.314 545.935 191.314 Q542.324 191.314 540.38 193.675 Q538.459 196.013 538.459 200.411 L538.459 214.069 L534.176 214.069 L534.176 188.143 L538.459 188.143 L538.459 192.171 Q539.801 189.809 541.954 188.675 Q544.107 187.518 547.185 187.518 Q547.625 187.518 548.158 187.587 Q548.69 187.634 549.338 187.749 L549.361 192.124 Z" fill="#000000" fill-rule="nonzero" fill-opacity="1" /><path clip-path="url(#clip780)" d="M553.829 188.143 L558.088 188.143 L558.088 214.069 L553.829 214.069 L553.829 188.143 M553.829 178.05 L558.088 178.05 L558.088 183.444 L553.829 183.444 L553.829 178.05 Z" fill="#000000" fill-rule="nonzero" fill-opacity="1" /><path clip-path="url(#clip780)" d="M585.611 201.129 Q585.611 196.43 583.667 193.768 Q581.745 191.083 578.366 191.083 Q574.986 191.083 573.042 193.768 Q571.12 196.43 571.12 201.129 Q571.12 205.828 573.042 208.513 Q574.986 211.175 578.366 211.175 Q581.745 211.175 583.667 208.513 Q585.611 205.828 585.611 201.129 M571.12 192.078 Q572.463 189.763 574.5 188.652 Q576.56 187.518 579.407 187.518 Q584.13 187.518 587.069 191.268 Q590.032 195.018 590.032 201.129 Q590.032 207.24 587.069 210.99 Q584.13 214.74 579.407 214.74 Q576.56 214.74 574.5 213.629 Q572.463 212.495 571.12 210.18 L571.12 214.069 L566.838 214.069 L566.838 178.05 L571.12 178.05 L571.12 192.078 Z" fill="#000000" fill-rule="nonzero" fill-opacity="1" /><path clip-path="url(#clip780)" d="M596.653 203.837 L596.653 188.143 L600.912 188.143 L600.912 203.675 Q600.912 207.356 602.347 209.208 Q603.782 211.036 606.653 211.036 Q610.102 211.036 612.092 208.837 Q614.106 206.638 614.106 202.842 L614.106 188.143 L618.366 188.143 L618.366 214.069 L614.106 214.069 L614.106 210.087 Q612.555 212.448 610.495 213.606 Q608.458 214.74 605.75 214.74 Q601.282 214.74 598.968 211.962 Q596.653 209.184 596.653 203.837 M607.37 187.518 L607.37 187.518 Z" fill="#000000" fill-rule="nonzero" fill-opacity="1" /><path clip-path="url(#clip780)" d="M631.352 180.782 L631.352 188.143 L640.125 188.143 L640.125 191.453 L631.352 191.453 L631.352 205.527 Q631.352 208.698 632.208 209.601 Q633.088 210.504 635.75 210.504 L640.125 210.504 L640.125 214.069 L635.75 214.069 Q630.819 214.069 628.944 212.24 Q627.069 210.388 627.069 205.527 L627.069 191.453 L623.944 191.453 L623.944 188.143 L627.069 188.143 L627.069 180.782 L631.352 180.782 Z" fill="#000000" fill-rule="nonzero" fill-opacity="1" /><path clip-path="url(#clip780)" d="M645.727 188.143 L649.986 188.143 L649.986 214.069 L645.727 214.069 L645.727 188.143 M645.727 178.05 L649.986 178.05 L649.986 183.444 L645.727 183.444 L645.727 178.05 Z" fill="#000000" fill-rule="nonzero" fill-opacity="1" /><path clip-path="url(#clip780)" d="M668.944 191.129 Q665.518 191.129 663.527 193.814 Q661.537 196.476 661.537 201.129 Q661.537 205.782 663.504 208.467 Q665.495 211.129 668.944 211.129 Q672.347 211.129 674.337 208.444 Q676.328 205.758 676.328 201.129 Q676.328 196.522 674.337 193.837 Q672.347 191.129 668.944 191.129 M668.944 187.518 Q674.5 187.518 677.671 191.129 Q680.842 194.74 680.842 201.129 Q680.842 207.495 677.671 211.129 Q674.5 214.74 668.944 214.74 Q663.365 214.74 660.194 211.129 Q657.046 207.495 657.046 201.129 Q657.046 194.74 660.194 191.129 Q663.365 187.518 668.944 187.518 Z" fill="#000000" fill-rule="nonzero" fill-opacity="1" /><path clip-path="url(#clip780)" d="M709.453 198.421 L709.453 214.069 L705.194 214.069 L705.194 198.559 Q705.194 194.879 703.759 193.05 Q702.323 191.222 699.453 191.222 Q696.004 191.222 694.013 193.421 Q692.023 195.62 692.023 199.416 L692.023 214.069 L687.74 214.069 L687.74 188.143 L692.023 188.143 L692.023 192.171 Q693.55 189.833 695.611 188.675 Q697.694 187.518 700.402 187.518 Q704.87 187.518 707.161 190.296 Q709.453 193.05 709.453 198.421 Z" fill="#000000" fill-rule="nonzero" fill-opacity="1" /><path clip-path="url(#clip780)" d="M746.143 178.05 L746.143 181.592 L742.069 181.592 Q739.777 181.592 738.874 182.518 Q737.995 183.444 737.995 185.851 L737.995 188.143 L745.008 188.143 L745.008 191.453 L737.995 191.453 L737.995 214.069 L733.712 214.069 L733.712 191.453 L729.638 191.453 L729.638 188.143 L733.712 188.143 L733.712 186.337 Q733.712 182.009 735.726 180.041 Q737.74 178.05 742.115 178.05 L746.143 178.05 Z" fill="#000000" fill-rule="nonzero" fill-opacity="1" /><path clip-path="url(#clip780)" d="M749.707 188.143 L753.967 188.143 L753.967 214.069 L749.707 214.069 L749.707 188.143 M749.707 178.05 L753.967 178.05 L753.967 183.444 L749.707 183.444 L749.707 178.05 Z" fill="#000000" fill-rule="nonzero" fill-opacity="1" /><path clip-path="url(#clip780)" d="M767.092 180.782 L767.092 188.143 L775.865 188.143 L775.865 191.453 L767.092 191.453 L767.092 205.527 Q767.092 208.698 767.948 209.601 Q768.828 210.504 771.49 210.504 L775.865 210.504 L775.865 214.069 L771.49 214.069 Q766.559 214.069 764.684 212.24 Q762.809 210.388 762.809 205.527 L762.809 191.453 L759.684 191.453 L759.684 188.143 L762.809 188.143 L762.809 180.782 L767.092 180.782 Z" fill="#000000" fill-rule="nonzero" fill-opacity="1" /></svg>
