<?xml version="1.0" encoding="utf-8"?>
<svg xmlns="http://www.w3.org/2000/svg" xmlns:xlink="http://www.w3.org/1999/xlink" width="600" height="400" viewBox="0 0 2400 1600">
<defs>
  <clipPath id="clip760">
    <rect x="0" y="0" width="2400" height="1600"/>
  </clipPath>
</defs>
<path clip-path="url(#clip760)" d="M0 1600 L2400 1600 L2400 8.88178e-14 L0 8.88178e-14  Z" fill="#ffffff" fill-rule="evenodd" fill-opacity="1"/>
<defs>
  <clipPath id="clip761">
    <rect x="249" y="47" width="2104" height="1507"/>
  </clipPath>
</defs>
<path clip-path="url(#clip760)" d="M203.964 1423.18 L2352.76 1423.18 L2352.76 47.2441 L203.964 47.2441  Z" fill="#ffffff" fill-rule="evenodd" fill-opacity="1"/>
<defs>
  <clipPath id="clip762">
    <rect x="203" y="47" width="2150" height="1377"/>
  </clipPath>
</defs>
<polyline clip-path="url(#clip762)" style="stroke:#000000; stroke-linecap:round; stroke-linejoin:round; stroke-width:2; stroke-opacity:0.1; fill:none" points="342.581,1423.18 342.581,47.2441 "/>
<polyline clip-path="url(#clip762)" style="stroke:#000000; stroke-linecap:round; stroke-linejoin:round; stroke-width:2; stroke-opacity:0.1; fill:none" points="796.603,1423.18 796.603,47.2441 "/>
<polyline clip-path="url(#clip762)" style="stroke:#000000; stroke-linecap:round; stroke-linejoin:round; stroke-width:2; stroke-opacity:0.1; fill:none" points="1250.62,1423.18 1250.62,47.2441 "/>
<polyline clip-path="url(#clip762)" style="stroke:#000000; stroke-linecap:round; stroke-linejoin:round; stroke-width:2; stroke-opacity:0.1; fill:none" points="1704.65,1423.18 1704.65,47.2441 "/>
<polyline clip-path="url(#clip762)" style="stroke:#000000; stroke-linecap:round; stroke-linejoin:round; stroke-width:2; stroke-opacity:0.1; fill:none" points="2158.67,1423.18 2158.67,47.2441 "/>
<polyline clip-path="url(#clip762)" style="stroke:#000000; stroke-linecap:round; stroke-linejoin:round; stroke-width:2; stroke-opacity:0.1; fill:none" points="342.581,1423.18 342.581,47.2441 "/>
<polyline clip-path="url(#clip762)" style="stroke:#000000; stroke-linecap:round; stroke-linejoin:round; stroke-width:2; stroke-opacity:0.1; fill:none" points="796.603,1423.18 796.603,47.2441 "/>
<polyline clip-path="url(#clip762)" style="stroke:#000000; stroke-linecap:round; stroke-linejoin:round; stroke-width:2; stroke-opacity:0.1; fill:none" points="1250.62,1423.18 1250.62,47.2441 "/>
<polyline clip-path="url(#clip762)" style="stroke:#000000; stroke-linecap:round; stroke-linejoin:round; stroke-width:2; stroke-opacity:0.1; fill:none" points="1704.65,1423.18 1704.65,47.2441 "/>
<polyline clip-path="url(#clip762)" style="stroke:#000000; stroke-linecap:round; stroke-linejoin:round; stroke-width:2; stroke-opacity:0.1; fill:none" points="2158.67,1423.18 2158.67,47.2441 "/>
<polyline clip-path="url(#clip762)" style="stroke:#000000; stroke-linecap:round; stroke-linejoin:round; stroke-width:2; stroke-opacity:0.1; fill:none" points="203.964,1384.24 2352.76,1384.24 "/>
<polyline clip-path="url(#clip762)" style="stroke:#000000; stroke-linecap:round; stroke-linejoin:round; stroke-width:2; stroke-opacity:0.1; fill:none" points="203.964,1150.48 2352.76,1150.48 "/>
<polyline clip-path="url(#clip762)" style="stroke:#000000; stroke-linecap:round; stroke-linejoin:round; stroke-width:2; stroke-opacity:0.1; fill:none" points="203.964,916.729 2352.76,916.729 "/>
<polyline clip-path="url(#clip762)" style="stroke:#000000; stroke-linecap:round; stroke-linejoin:round; stroke-width:2; stroke-opacity:0.1; fill:none" points="203.964,682.975 2352.76,682.975 "/>
<polyline clip-path="url(#clip762)" style="stroke:#000000; stroke-linecap:round; stroke-linejoin:round; stroke-width:2; stroke-opacity:0.1; fill:none" points="203.964,449.221 2352.76,449.221 "/>
<polyline clip-path="url(#clip762)" style="stroke:#000000; stroke-linecap:round; stroke-linejoin:round; stroke-width:2; stroke-opacity:0.1; fill:none" points="203.964,215.466 2352.76,215.466 "/>
<polyline clip-path="url(#clip762)" style="stroke:#000000; stroke-linecap:round; stroke-linejoin:round; stroke-width:2; stroke-opacity:0.1; fill:none" points="203.964,1384.24 2352.76,1384.24 "/>
<polyline clip-path="url(#clip762)" style="stroke:#000000; stroke-linecap:round; stroke-linejoin:round; stroke-width:2; stroke-opacity:0.1; fill:none" points="203.964,1150.48 2352.76,1150.48 "/>
<polyline clip-path="url(#clip762)" style="stroke:#000000; stroke-linecap:round; stroke-linejoin:round; stroke-width:2; stroke-opacity:0.1; fill:none" points="203.964,916.729 2352.76,916.729 "/>
<polyline clip-path="url(#clip762)" style="stroke:#000000; stroke-linecap:round; stroke-linejoin:round; stroke-width:2; stroke-opacity:0.1; fill:none" points="203.964,682.975 2352.76,682.975 "/>
<polyline clip-path="url(#clip762)" style="stroke:#000000; stroke-linecap:round; stroke-linejoin:round; stroke-width:2; stroke-opacity:0.1; fill:none" points="203.964,449.221 2352.76,449.221 "/>
<polyline clip-path="url(#clip762)" style="stroke:#000000; stroke-linecap:round; stroke-linejoin:round; stroke-width:2; stroke-opacity:0.1; fill:none" points="203.964,215.466 2352.76,215.466 "/>
<polyline clip-path="url(#clip760)" style="stroke:#000000; stroke-linecap:round; stroke-linejoin:round; stroke-width:4; stroke-opacity:1; fill:none" points="203.964,1423.18 2352.76,1423.18 "/>
<polyline clip-path="url(#clip760)" style="stroke:#000000; stroke-linecap:round; stroke-linejoin:round; stroke-width:4; stroke-opacity:1; fill:none" points="203.964,47.2441 2352.76,47.2441 "/>
<polyline clip-path="url(#clip760)" style="stroke:#000000; stroke-linecap:round; stroke-linejoin:round; stroke-width:4; stroke-opacity:1; fill:none" points="342.581,1423.18 342.581,1404.28 "/>
<polyline clip-path="url(#clip760)" style="stroke:#000000; stroke-linecap:round; stroke-linejoin:round; stroke-width:4; stroke-opacity:1; fill:none" points="796.603,1423.18 796.603,1404.28 "/>
<polyline clip-path="url(#clip760)" style="stroke:#000000; stroke-linecap:round; stroke-linejoin:round; stroke-width:4; stroke-opacity:1; fill:none" points="1250.62,1423.18 1250.62,1404.28 "/>
<polyline clip-path="url(#clip760)" style="stroke:#000000; stroke-linecap:round; stroke-linejoin:round; stroke-width:4; stroke-opacity:1; fill:none" points="1704.65,1423.18 1704.65,1404.28 "/>
<polyline clip-path="url(#clip760)" style="stroke:#000000; stroke-linecap:round; stroke-linejoin:round; stroke-width:4; stroke-opacity:1; fill:none" points="2158.67,1423.18 2158.67,1404.28 "/>
<polyline clip-path="url(#clip760)" style="stroke:#000000; stroke-linecap:round; stroke-linejoin:round; stroke-width:4; stroke-opacity:1; fill:none" points="342.581,47.2441 342.581,66.1417 "/>
<polyline clip-path="url(#clip760)" style="stroke:#000000; stroke-linecap:round; stroke-linejoin:round; stroke-width:4; stroke-opacity:1; fill:none" points="796.603,47.2441 796.603,66.1417 "/>
<polyline clip-path="url(#clip760)" style="stroke:#000000; stroke-linecap:round; stroke-linejoin:round; stroke-width:4; stroke-opacity:1; fill:none" points="1250.62,47.2441 1250.62,66.1417 "/>
<polyline clip-path="url(#clip760)" style="stroke:#000000; stroke-linecap:round; stroke-linejoin:round; stroke-width:4; stroke-opacity:1; fill:none" points="1704.65,47.2441 1704.65,66.1417 "/>
<polyline clip-path="url(#clip760)" style="stroke:#000000; stroke-linecap:round; stroke-linejoin:round; stroke-width:4; stroke-opacity:1; fill:none" points="2158.67,47.2441 2158.67,66.1417 "/>
<path clip-path="url(#clip760)" d="M305.417 1466.44 Q302.268 1466.44 300.417 1468.59 Q298.588 1470.74 298.588 1474.49 Q298.588 1478.22 300.417 1480.39 Q302.268 1482.55 305.417 1482.55 Q308.565 1482.55 310.393 1480.39 Q312.245 1478.22 312.245 1474.49 Q312.245 1470.74 310.393 1468.59 Q308.565 1466.44 305.417 1466.44 M314.699 1451.78 L314.699 1456.04 Q312.94 1455.21 311.134 1454.77 Q309.352 1454.33 307.592 1454.33 Q302.963 1454.33 300.509 1457.45 Q298.079 1460.58 297.731 1466.9 Q299.097 1464.89 301.157 1463.82 Q303.217 1462.73 305.694 1462.73 Q310.903 1462.73 313.912 1465.9 Q316.944 1469.05 316.944 1474.49 Q316.944 1479.82 313.796 1483.03 Q310.648 1486.25 305.417 1486.25 Q299.421 1486.25 296.25 1481.67 Q293.079 1477.06 293.079 1468.33 Q293.079 1460.14 296.968 1455.28 Q300.856 1450.39 307.407 1450.39 Q309.167 1450.39 310.949 1450.74 Q312.754 1451.09 314.699 1451.78 Z" fill="#000000" fill-rule="nonzero" fill-opacity="1" /><path clip-path="url(#clip760)" d="M325.046 1451.02 L343.402 1451.02 L343.402 1454.96 L329.328 1454.96 L329.328 1463.43 Q330.347 1463.08 331.365 1462.92 Q332.384 1462.73 333.403 1462.73 Q339.19 1462.73 342.569 1465.9 Q345.949 1469.08 345.949 1474.49 Q345.949 1480.07 342.477 1483.17 Q339.004 1486.25 332.685 1486.25 Q330.509 1486.25 328.241 1485.88 Q325.995 1485.51 323.588 1484.77 L323.588 1480.07 Q325.671 1481.2 327.893 1481.76 Q330.115 1482.32 332.592 1482.32 Q336.597 1482.32 338.935 1480.21 Q341.273 1478.1 341.273 1474.49 Q341.273 1470.88 338.935 1468.77 Q336.597 1466.67 332.592 1466.67 Q330.717 1466.67 328.842 1467.08 Q326.991 1467.5 325.046 1468.38 L325.046 1451.02 Z" fill="#000000" fill-rule="nonzero" fill-opacity="1" /><path clip-path="url(#clip760)" d="M355.162 1479.7 L360.046 1479.7 L360.046 1485.58 L355.162 1485.58 L355.162 1479.7 Z" fill="#000000" fill-rule="nonzero" fill-opacity="1" /><path clip-path="url(#clip760)" d="M380.231 1469.17 Q376.898 1469.17 374.976 1470.95 Q373.078 1472.73 373.078 1475.86 Q373.078 1478.98 374.976 1480.77 Q376.898 1482.55 380.231 1482.55 Q383.564 1482.55 385.486 1480.77 Q387.407 1478.96 387.407 1475.86 Q387.407 1472.73 385.486 1470.95 Q383.587 1469.17 380.231 1469.17 M375.555 1467.18 Q372.546 1466.44 370.856 1464.38 Q369.189 1462.32 369.189 1459.35 Q369.189 1455.21 372.129 1452.8 Q375.092 1450.39 380.231 1450.39 Q385.393 1450.39 388.333 1452.8 Q391.273 1455.21 391.273 1459.35 Q391.273 1462.32 389.583 1464.38 Q387.916 1466.44 384.93 1467.18 Q388.31 1467.96 390.185 1470.26 Q392.083 1472.55 392.083 1475.86 Q392.083 1480.88 389.004 1483.57 Q385.949 1486.25 380.231 1486.25 Q374.513 1486.25 371.435 1483.57 Q368.379 1480.88 368.379 1475.86 Q368.379 1472.55 370.277 1470.26 Q372.175 1467.96 375.555 1467.18 M373.842 1459.79 Q373.842 1462.48 375.509 1463.98 Q377.199 1465.49 380.231 1465.49 Q383.24 1465.49 384.93 1463.98 Q386.643 1462.48 386.643 1459.79 Q386.643 1457.11 384.93 1455.6 Q383.24 1454.1 380.231 1454.1 Q377.199 1454.1 375.509 1455.6 Q373.842 1457.11 373.842 1459.79 Z" fill="#000000" fill-rule="nonzero" fill-opacity="1" /><path clip-path="url(#clip760)" d="M759.485 1466.44 Q756.337 1466.44 754.485 1468.59 Q752.656 1470.74 752.656 1474.49 Q752.656 1478.22 754.485 1480.39 Q756.337 1482.55 759.485 1482.55 Q762.633 1482.55 764.462 1480.39 Q766.314 1478.22 766.314 1474.49 Q766.314 1470.74 764.462 1468.59 Q762.633 1466.44 759.485 1466.44 M768.767 1451.78 L768.767 1456.04 Q767.008 1455.21 765.202 1454.77 Q763.42 1454.33 761.661 1454.33 Q757.031 1454.33 754.578 1457.45 Q752.147 1460.58 751.8 1466.9 Q753.166 1464.89 755.226 1463.82 Q757.286 1462.73 759.763 1462.73 Q764.971 1462.73 767.98 1465.9 Q771.013 1469.05 771.013 1474.49 Q771.013 1479.82 767.865 1483.03 Q764.716 1486.25 759.485 1486.25 Q753.49 1486.25 750.318 1481.67 Q747.147 1477.06 747.147 1468.33 Q747.147 1460.14 751.036 1455.28 Q754.925 1450.39 761.476 1450.39 Q763.235 1450.39 765.017 1450.74 Q766.823 1451.09 768.767 1451.78 Z" fill="#000000" fill-rule="nonzero" fill-opacity="1" /><path clip-path="url(#clip760)" d="M779.114 1451.02 L797.471 1451.02 L797.471 1454.96 L783.397 1454.96 L783.397 1463.43 Q784.415 1463.08 785.434 1462.92 Q786.452 1462.73 787.471 1462.73 Q793.258 1462.73 796.637 1465.9 Q800.017 1469.08 800.017 1474.49 Q800.017 1480.07 796.545 1483.17 Q793.073 1486.25 786.753 1486.25 Q784.577 1486.25 782.309 1485.88 Q780.064 1485.51 777.656 1484.77 L777.656 1480.07 Q779.739 1481.2 781.962 1481.76 Q784.184 1482.32 786.661 1482.32 Q790.665 1482.32 793.003 1480.21 Q795.341 1478.1 795.341 1474.49 Q795.341 1470.88 793.003 1468.77 Q790.665 1466.67 786.661 1466.67 Q784.786 1466.67 782.911 1467.08 Q781.059 1467.5 779.114 1468.38 L779.114 1451.02 Z" fill="#000000" fill-rule="nonzero" fill-opacity="1" /><path clip-path="url(#clip760)" d="M809.23 1479.7 L814.114 1479.7 L814.114 1485.58 L809.23 1485.58 L809.23 1479.7 Z" fill="#000000" fill-rule="nonzero" fill-opacity="1" /><path clip-path="url(#clip760)" d="M824.438 1484.86 L824.438 1480.6 Q826.198 1481.44 828.003 1481.88 Q829.809 1482.32 831.545 1482.32 Q836.174 1482.32 838.605 1479.21 Q841.059 1476.09 841.406 1469.75 Q840.063 1471.74 838.003 1472.8 Q835.943 1473.87 833.443 1473.87 Q828.258 1473.87 825.225 1470.74 Q822.216 1467.59 822.216 1462.15 Q822.216 1456.83 825.364 1453.61 Q828.512 1450.39 833.744 1450.39 Q839.739 1450.39 842.887 1455 Q846.059 1459.58 846.059 1468.33 Q846.059 1476.51 842.17 1481.39 Q838.304 1486.25 831.753 1486.25 Q829.994 1486.25 828.188 1485.9 Q826.383 1485.56 824.438 1484.86 M833.744 1470.21 Q836.892 1470.21 838.721 1468.06 Q840.572 1465.9 840.572 1462.15 Q840.572 1458.43 838.721 1456.27 Q836.892 1454.1 833.744 1454.1 Q830.596 1454.1 828.744 1456.27 Q826.915 1458.43 826.915 1462.15 Q826.915 1465.9 828.744 1468.06 Q830.596 1470.21 833.744 1470.21 Z" fill="#000000" fill-rule="nonzero" fill-opacity="1" /><path clip-path="url(#clip760)" d="M1213.41 1466.44 Q1210.27 1466.44 1208.41 1468.59 Q1206.59 1470.74 1206.59 1474.49 Q1206.59 1478.22 1208.41 1480.39 Q1210.27 1482.55 1213.41 1482.55 Q1216.56 1482.55 1218.39 1480.39 Q1220.24 1478.22 1220.24 1474.49 Q1220.24 1470.74 1218.39 1468.59 Q1216.56 1466.44 1213.41 1466.44 M1222.7 1451.78 L1222.7 1456.04 Q1220.94 1455.21 1219.13 1454.77 Q1217.35 1454.33 1215.59 1454.33 Q1210.96 1454.33 1208.51 1457.45 Q1206.08 1460.58 1205.73 1466.9 Q1207.09 1464.89 1209.16 1463.82 Q1211.22 1462.73 1213.69 1462.73 Q1218.9 1462.73 1221.91 1465.9 Q1224.94 1469.05 1224.94 1474.49 Q1224.94 1479.82 1221.79 1483.03 Q1218.65 1486.25 1213.41 1486.25 Q1207.42 1486.25 1204.25 1481.67 Q1201.08 1477.06 1201.08 1468.33 Q1201.08 1460.14 1204.97 1455.28 Q1208.85 1450.39 1215.41 1450.39 Q1217.16 1450.39 1218.95 1450.74 Q1220.75 1451.09 1222.7 1451.78 Z" fill="#000000" fill-rule="nonzero" fill-opacity="1" /><path clip-path="url(#clip760)" d="M1243.58 1466.44 Q1240.43 1466.44 1238.58 1468.59 Q1236.75 1470.74 1236.75 1474.49 Q1236.75 1478.22 1238.58 1480.39 Q1240.43 1482.55 1243.58 1482.55 Q1246.72 1482.55 1248.55 1480.39 Q1250.4 1478.22 1250.4 1474.49 Q1250.4 1470.74 1248.55 1468.59 Q1246.72 1466.44 1243.58 1466.44 M1252.86 1451.78 L1252.86 1456.04 Q1251.1 1455.21 1249.29 1454.77 Q1247.51 1454.33 1245.75 1454.33 Q1241.12 1454.33 1238.67 1457.45 Q1236.24 1460.58 1235.89 1466.9 Q1237.26 1464.89 1239.32 1463.82 Q1241.38 1462.73 1243.85 1462.73 Q1249.06 1462.73 1252.07 1465.9 Q1255.1 1469.05 1255.1 1474.49 Q1255.1 1479.82 1251.96 1483.03 Q1248.81 1486.25 1243.58 1486.25 Q1237.58 1486.25 1234.41 1481.67 Q1231.24 1477.06 1231.24 1468.33 Q1231.24 1460.14 1235.13 1455.28 Q1239.02 1450.39 1245.57 1450.39 Q1247.33 1450.39 1249.11 1450.74 Q1250.91 1451.09 1252.86 1451.78 Z" fill="#000000" fill-rule="nonzero" fill-opacity="1" /><path clip-path="url(#clip760)" d="M1263.16 1479.7 L1268.04 1479.7 L1268.04 1485.58 L1263.16 1485.58 L1263.16 1479.7 Z" fill="#000000" fill-rule="nonzero" fill-opacity="1" /><path clip-path="url(#clip760)" d="M1288.23 1454.1 Q1284.62 1454.1 1282.79 1457.66 Q1280.98 1461.2 1280.98 1468.33 Q1280.98 1475.44 1282.79 1479.01 Q1284.62 1482.55 1288.23 1482.55 Q1291.86 1482.55 1293.67 1479.01 Q1295.5 1475.44 1295.5 1468.33 Q1295.5 1461.2 1293.67 1457.66 Q1291.86 1454.1 1288.23 1454.1 M1288.23 1450.39 Q1294.04 1450.39 1297.09 1455 Q1300.17 1459.58 1300.17 1468.33 Q1300.17 1477.06 1297.09 1481.67 Q1294.04 1486.25 1288.23 1486.25 Q1282.42 1486.25 1279.34 1481.67 Q1276.28 1477.06 1276.28 1468.33 Q1276.28 1459.58 1279.34 1455 Q1282.42 1450.39 1288.23 1450.39 Z" fill="#000000" fill-rule="nonzero" fill-opacity="1" /><path clip-path="url(#clip760)" d="M1668.05 1466.44 Q1664.9 1466.44 1663.05 1468.59 Q1661.22 1470.74 1661.22 1474.49 Q1661.22 1478.22 1663.05 1480.39 Q1664.9 1482.55 1668.05 1482.55 Q1671.2 1482.55 1673.03 1480.39 Q1674.88 1478.22 1674.88 1474.49 Q1674.88 1470.74 1673.03 1468.59 Q1671.2 1466.44 1668.05 1466.44 M1677.33 1451.78 L1677.33 1456.04 Q1675.57 1455.21 1673.77 1454.77 Q1671.99 1454.33 1670.23 1454.33 Q1665.6 1454.33 1663.14 1457.45 Q1660.71 1460.58 1660.36 1466.9 Q1661.73 1464.89 1663.79 1463.82 Q1665.85 1462.73 1668.33 1462.73 Q1673.54 1462.73 1676.55 1465.9 Q1679.58 1469.05 1679.58 1474.49 Q1679.58 1479.82 1676.43 1483.03 Q1673.28 1486.25 1668.05 1486.25 Q1662.05 1486.25 1658.88 1481.67 Q1655.71 1477.06 1655.71 1468.33 Q1655.71 1460.14 1659.6 1455.28 Q1663.49 1450.39 1670.04 1450.39 Q1671.8 1450.39 1673.58 1450.74 Q1675.39 1451.09 1677.33 1451.78 Z" fill="#000000" fill-rule="nonzero" fill-opacity="1" /><path clip-path="url(#clip760)" d="M1698.21 1466.44 Q1695.06 1466.44 1693.21 1468.59 Q1691.38 1470.74 1691.38 1474.49 Q1691.38 1478.22 1693.21 1480.39 Q1695.06 1482.55 1698.21 1482.55 Q1701.36 1482.55 1703.19 1480.39 Q1705.04 1478.22 1705.04 1474.49 Q1705.04 1470.74 1703.19 1468.59 Q1701.36 1466.44 1698.21 1466.44 M1707.49 1451.78 L1707.49 1456.04 Q1705.73 1455.21 1703.93 1454.77 Q1702.15 1454.33 1700.39 1454.33 Q1695.76 1454.33 1693.3 1457.45 Q1690.87 1460.58 1690.53 1466.9 Q1691.89 1464.89 1693.95 1463.82 Q1696.01 1462.73 1698.49 1462.73 Q1703.7 1462.73 1706.71 1465.9 Q1709.74 1469.05 1709.74 1474.49 Q1709.74 1479.82 1706.59 1483.03 Q1703.44 1486.25 1698.21 1486.25 Q1692.22 1486.25 1689.05 1481.67 Q1685.87 1477.06 1685.87 1468.33 Q1685.87 1460.14 1689.76 1455.28 Q1693.65 1450.39 1700.2 1450.39 Q1701.96 1450.39 1703.74 1450.74 Q1705.55 1451.09 1707.49 1451.78 Z" fill="#000000" fill-rule="nonzero" fill-opacity="1" /><path clip-path="url(#clip760)" d="M1717.79 1479.7 L1722.68 1479.7 L1722.68 1485.58 L1717.79 1485.58 L1717.79 1479.7 Z" fill="#000000" fill-rule="nonzero" fill-opacity="1" /><path clip-path="url(#clip760)" d="M1733.67 1481.64 L1741.31 1481.64 L1741.31 1455.28 L1733 1456.95 L1733 1452.69 L1741.27 1451.02 L1745.94 1451.02 L1745.94 1481.64 L1753.58 1481.64 L1753.58 1485.58 L1733.67 1485.58 L1733.67 1481.64 Z" fill="#000000" fill-rule="nonzero" fill-opacity="1" /><path clip-path="url(#clip760)" d="M2122.26 1466.44 Q2119.11 1466.44 2117.26 1468.59 Q2115.43 1470.74 2115.43 1474.49 Q2115.43 1478.22 2117.26 1480.39 Q2119.11 1482.55 2122.26 1482.55 Q2125.41 1482.55 2127.23 1480.39 Q2129.09 1478.22 2129.09 1474.49 Q2129.09 1470.74 2127.23 1468.59 Q2125.41 1466.44 2122.26 1466.44 M2131.54 1451.78 L2131.54 1456.04 Q2129.78 1455.21 2127.97 1454.77 Q2126.19 1454.33 2124.43 1454.33 Q2119.8 1454.33 2117.35 1457.45 Q2114.92 1460.58 2114.57 1466.9 Q2115.94 1464.89 2118 1463.82 Q2120.06 1462.73 2122.53 1462.73 Q2127.74 1462.73 2130.75 1465.9 Q2133.78 1469.05 2133.78 1474.49 Q2133.78 1479.82 2130.64 1483.03 Q2127.49 1486.25 2122.26 1486.25 Q2116.26 1486.25 2113.09 1481.67 Q2109.92 1477.06 2109.92 1468.33 Q2109.92 1460.14 2113.81 1455.28 Q2117.7 1450.39 2124.25 1450.39 Q2126.01 1450.39 2127.79 1450.74 Q2129.6 1451.09 2131.54 1451.78 Z" fill="#000000" fill-rule="nonzero" fill-opacity="1" /><path clip-path="url(#clip760)" d="M2152.42 1466.44 Q2149.27 1466.44 2147.42 1468.59 Q2145.59 1470.74 2145.59 1474.49 Q2145.59 1478.22 2147.42 1480.39 Q2149.27 1482.55 2152.42 1482.55 Q2155.57 1482.55 2157.4 1480.39 Q2159.25 1478.22 2159.25 1474.49 Q2159.25 1470.74 2157.4 1468.59 Q2155.57 1466.44 2152.42 1466.44 M2161.7 1451.78 L2161.7 1456.04 Q2159.94 1455.21 2158.14 1454.77 Q2156.35 1454.33 2154.59 1454.33 Q2149.97 1454.33 2147.51 1457.45 Q2145.08 1460.58 2144.73 1466.9 Q2146.1 1464.89 2148.16 1463.82 Q2150.22 1462.73 2152.7 1462.73 Q2157.91 1462.73 2160.91 1465.9 Q2163.95 1469.05 2163.95 1474.49 Q2163.95 1479.82 2160.8 1483.03 Q2157.65 1486.25 2152.42 1486.25 Q2146.42 1486.25 2143.25 1481.67 Q2140.08 1477.06 2140.08 1468.33 Q2140.08 1460.14 2143.97 1455.28 Q2147.86 1450.39 2154.41 1450.39 Q2156.17 1450.39 2157.95 1450.74 Q2159.76 1451.09 2161.7 1451.78 Z" fill="#000000" fill-rule="nonzero" fill-opacity="1" /><path clip-path="url(#clip760)" d="M2172 1479.7 L2176.89 1479.7 L2176.89 1485.58 L2172 1485.58 L2172 1479.7 Z" fill="#000000" fill-rule="nonzero" fill-opacity="1" /><path clip-path="url(#clip760)" d="M2191.1 1481.64 L2207.42 1481.64 L2207.42 1485.58 L2185.47 1485.58 L2185.47 1481.64 Q2188.14 1478.89 2192.72 1474.26 Q2197.33 1469.61 2198.51 1468.27 Q2200.75 1465.74 2201.63 1464.01 Q2202.53 1462.25 2202.53 1460.56 Q2202.53 1457.8 2200.59 1456.07 Q2198.67 1454.33 2195.57 1454.33 Q2193.37 1454.33 2190.91 1455.09 Q2188.48 1455.86 2185.71 1457.41 L2185.71 1452.69 Q2188.53 1451.55 2190.98 1450.97 Q2193.44 1450.39 2195.47 1450.39 Q2200.84 1450.39 2204.04 1453.08 Q2207.23 1455.77 2207.23 1460.26 Q2207.23 1462.39 2206.42 1464.31 Q2205.64 1466.2 2203.53 1468.8 Q2202.95 1469.47 2199.85 1472.69 Q2196.75 1475.88 2191.1 1481.64 Z" fill="#000000" fill-rule="nonzero" fill-opacity="1" /><path clip-path="url(#clip760)" d="M1156.27 1526.86 L1147.54 1550.51 L1165.02 1550.51 L1156.27 1526.86 M1152.64 1520.52 L1159.93 1520.52 L1178.04 1568.04 L1171.35 1568.04 L1167.02 1555.85 L1145.6 1555.85 L1141.27 1568.04 L1134.49 1568.04 L1152.64 1520.52 Z" fill="#000000" fill-rule="nonzero" fill-opacity="1" /><path clip-path="url(#clip760)" d="M1208.18 1549.81 Q1208.18 1543.44 1205.54 1539.94 Q1202.93 1536.44 1198.18 1536.44 Q1193.47 1536.44 1190.83 1539.94 Q1188.22 1543.44 1188.22 1549.81 Q1188.22 1556.14 1190.83 1559.64 Q1193.47 1563.14 1198.18 1563.14 Q1202.93 1563.14 1205.54 1559.64 Q1208.18 1556.14 1208.18 1549.81 M1214.03 1563.62 Q1214.03 1572.72 1209.99 1577.15 Q1205.95 1581.6 1197.61 1581.6 Q1194.52 1581.6 1191.79 1581.13 Q1189.05 1580.68 1186.47 1579.72 L1186.47 1574.03 Q1189.05 1575.43 1191.56 1576.1 Q1194.08 1576.76 1196.69 1576.76 Q1202.45 1576.76 1205.31 1573.74 Q1208.18 1570.75 1208.18 1564.67 L1208.18 1561.77 Q1206.36 1564.92 1203.53 1566.48 Q1200.7 1568.04 1196.75 1568.04 Q1190.19 1568.04 1186.18 1563.05 Q1182.17 1558.05 1182.17 1549.81 Q1182.17 1541.53 1186.18 1536.53 Q1190.19 1531.54 1196.75 1531.54 Q1200.7 1531.54 1203.53 1533.1 Q1206.36 1534.66 1208.18 1537.81 L1208.18 1532.4 L1214.03 1532.4 L1214.03 1563.62 Z" fill="#000000" fill-rule="nonzero" fill-opacity="1" /><path clip-path="url(#clip760)" d="M1256.59 1548.76 L1256.59 1551.62 L1229.66 1551.62 Q1230.04 1557.67 1233.29 1560.85 Q1236.57 1564 1242.39 1564 Q1245.77 1564 1248.92 1563.17 Q1252.1 1562.35 1255.22 1560.69 L1255.22 1566.23 Q1252.07 1567.57 1248.76 1568.27 Q1245.45 1568.97 1242.04 1568.97 Q1233.51 1568.97 1228.52 1564 Q1223.55 1559.04 1223.55 1550.57 Q1223.55 1541.82 1228.26 1536.69 Q1233 1531.54 1241.02 1531.54 Q1248.22 1531.54 1252.39 1536.18 Q1256.59 1540.8 1256.59 1548.76 M1250.73 1547.04 Q1250.67 1542.23 1248.03 1539.37 Q1245.42 1536.5 1241.09 1536.5 Q1236.19 1536.5 1233.23 1539.27 Q1230.3 1542.04 1229.85 1547.07 L1250.73 1547.04 Z" fill="#000000" fill-rule="nonzero" fill-opacity="1" /><path clip-path="url(#clip760)" d="M1300.99 1518.58 Q1296.72 1525.9 1294.66 1533.06 Q1292.59 1540.23 1292.59 1547.58 Q1292.59 1554.93 1294.66 1562.16 Q1296.76 1569.35 1300.99 1576.64 L1295.9 1576.64 Q1291.12 1569.16 1288.74 1561.93 Q1286.38 1554.71 1286.38 1547.58 Q1286.38 1540.48 1288.74 1533.29 Q1291.09 1526.09 1295.9 1518.58 L1300.99 1518.58 Z" fill="#000000" fill-rule="nonzero" fill-opacity="1" /><path clip-path="url(#clip760)" d="M1312.61 1520.52 L1322.19 1520.52 L1334.31 1552.86 L1346.5 1520.52 L1356.09 1520.52 L1356.09 1568.04 L1349.81 1568.04 L1349.81 1526.32 L1337.56 1558.91 L1331.1 1558.91 L1318.85 1526.32 L1318.85 1568.04 L1312.61 1568.04 L1312.61 1520.52 Z" fill="#000000" fill-rule="nonzero" fill-opacity="1" /><path clip-path="url(#clip760)" d="M1384.79 1550.12 Q1377.7 1550.12 1374.96 1551.75 Q1372.22 1553.37 1372.22 1557.29 Q1372.22 1560.4 1374.26 1562.25 Q1376.33 1564.07 1379.86 1564.07 Q1384.73 1564.07 1387.66 1560.63 Q1390.62 1557.16 1390.62 1551.43 L1390.62 1550.12 L1384.79 1550.12 M1396.48 1547.71 L1396.48 1568.04 L1390.62 1568.04 L1390.62 1562.63 Q1388.61 1565.88 1385.62 1567.44 Q1382.63 1568.97 1378.3 1568.97 Q1372.83 1568.97 1369.58 1565.91 Q1366.37 1562.82 1366.37 1557.67 Q1366.37 1551.65 1370.38 1548.6 Q1374.42 1545.54 1382.41 1545.54 L1390.62 1545.54 L1390.62 1544.97 Q1390.62 1540.93 1387.95 1538.73 Q1385.3 1536.5 1380.5 1536.5 Q1377.44 1536.5 1374.55 1537.23 Q1371.65 1537.97 1368.98 1539.43 L1368.98 1534.02 Q1372.19 1532.78 1375.21 1532.17 Q1378.24 1531.54 1381.1 1531.54 Q1388.84 1531.54 1392.66 1535.55 Q1396.48 1539.56 1396.48 1547.71 Z" fill="#000000" fill-rule="nonzero" fill-opacity="1" /><path clip-path="url(#clip760)" d="M1407.62 1518.58 L1412.71 1518.58 Q1417.48 1526.09 1419.84 1533.29 Q1422.22 1540.48 1422.22 1547.58 Q1422.22 1554.71 1419.84 1561.93 Q1417.48 1569.16 1412.71 1576.64 L1407.62 1576.64 Q1411.85 1569.35 1413.92 1562.16 Q1416.02 1554.93 1416.02 1547.58 Q1416.02 1540.23 1413.92 1533.06 Q1411.85 1525.9 1407.62 1518.58 Z" fill="#000000" fill-rule="nonzero" fill-opacity="1" /><polyline clip-path="url(#clip760)" style="stroke:#000000; stroke-linecap:round; stroke-linejoin:round; stroke-width:4; stroke-opacity:1; fill:none" points="203.964,1423.18 203.964,47.2441 "/>
<polyline clip-path="url(#clip760)" style="stroke:#000000; stroke-linecap:round; stroke-linejoin:round; stroke-width:4; stroke-opacity:1; fill:none" points="2352.76,1423.18 2352.76,47.2441 "/>
<polyline clip-path="url(#clip760)" style="stroke:#000000; stroke-linecap:round; stroke-linejoin:round; stroke-width:4; stroke-opacity:1; fill:none" points="203.964,1384.24 222.861,1384.24 "/>
<polyline clip-path="url(#clip760)" style="stroke:#000000; stroke-linecap:round; stroke-linejoin:round; stroke-width:4; stroke-opacity:1; fill:none" points="203.964,1150.48 222.861,1150.48 "/>
<polyline clip-path="url(#clip760)" style="stroke:#000000; stroke-linecap:round; stroke-linejoin:round; stroke-width:4; stroke-opacity:1; fill:none" points="203.964,916.729 222.861,916.729 "/>
<polyline clip-path="url(#clip760)" style="stroke:#000000; stroke-linecap:round; stroke-linejoin:round; stroke-width:4; stroke-opacity:1; fill:none" points="203.964,682.975 222.861,682.975 "/>
<polyline clip-path="url(#clip760)" style="stroke:#000000; stroke-linecap:round; stroke-linejoin:round; stroke-width:4; stroke-opacity:1; fill:none" points="203.964,449.221 222.861,449.221 "/>
<polyline clip-path="url(#clip760)" style="stroke:#000000; stroke-linecap:round; stroke-linejoin:round; stroke-width:4; stroke-opacity:1; fill:none" points="203.964,215.466 222.861,215.466 "/>
<polyline clip-path="url(#clip760)" style="stroke:#000000; stroke-linecap:round; stroke-linejoin:round; stroke-width:4; stroke-opacity:1; fill:none" points="2352.76,1384.24 2333.86,1384.24 "/>
<polyline clip-path="url(#clip760)" style="stroke:#000000; stroke-linecap:round; stroke-linejoin:round; stroke-width:4; stroke-opacity:1; fill:none" points="2352.76,1150.48 2333.86,1150.48 "/>
<polyline clip-path="url(#clip760)" style="stroke:#000000; stroke-linecap:round; stroke-linejoin:round; stroke-width:4; stroke-opacity:1; fill:none" points="2352.76,916.729 2333.86,916.729 "/>
<polyline clip-path="url(#clip760)" style="stroke:#000000; stroke-linecap:round; stroke-linejoin:round; stroke-width:4; stroke-opacity:1; fill:none" points="2352.76,682.975 2333.86,682.975 "/>
<polyline clip-path="url(#clip760)" style="stroke:#000000; stroke-linecap:round; stroke-linejoin:round; stroke-width:4; stroke-opacity:1; fill:none" points="2352.76,449.221 2333.86,449.221 "/>
<polyline clip-path="url(#clip760)" style="stroke:#000000; stroke-linecap:round; stroke-linejoin:round; stroke-width:4; stroke-opacity:1; fill:none" points="2352.76,215.466 2333.86,215.466 "/>
<path clip-path="url(#clip760)" d="M156.019 1370.04 Q152.408 1370.04 150.579 1373.6 Q148.774 1377.14 148.774 1384.27 Q148.774 1391.38 150.579 1394.94 Q152.408 1398.49 156.019 1398.49 Q159.653 1398.49 161.459 1394.94 Q163.288 1391.38 163.288 1384.27 Q163.288 1377.14 161.459 1373.6 Q159.653 1370.04 156.019 1370.04 M156.019 1366.33 Q161.829 1366.33 164.885 1370.94 Q167.964 1375.52 167.964 1384.27 Q167.964 1393 164.885 1397.61 Q161.829 1402.19 156.019 1402.19 Q150.209 1402.19 147.13 1397.61 Q144.075 1393 144.075 1384.27 Q144.075 1375.52 147.13 1370.94 Q150.209 1366.33 156.019 1366.33 Z" fill="#000000" fill-rule="nonzero" fill-opacity="1" /><path clip-path="url(#clip760)" d="M147.061 1133.2 L165.417 1133.2 L165.417 1137.14 L151.343 1137.14 L151.343 1145.61 Q152.362 1145.26 153.38 1145.1 Q154.399 1144.92 155.417 1144.92 Q161.204 1144.92 164.584 1148.09 Q167.964 1151.26 167.964 1156.68 Q167.964 1162.25 164.491 1165.36 Q161.019 1168.44 154.7 1168.44 Q152.524 1168.44 150.255 1168.06 Q148.01 1167.69 145.603 1166.95 L145.603 1162.25 Q147.686 1163.39 149.908 1163.94 Q152.13 1164.5 154.607 1164.5 Q158.612 1164.5 160.95 1162.39 Q163.288 1160.29 163.288 1156.68 Q163.288 1153.06 160.95 1150.96 Q158.612 1148.85 154.607 1148.85 Q152.732 1148.85 150.857 1149.27 Q149.005 1149.69 147.061 1150.56 L147.061 1133.2 Z" fill="#000000" fill-rule="nonzero" fill-opacity="1" /><path clip-path="url(#clip760)" d="M116.668 930.074 L124.306 930.074 L124.306 903.709 L115.996 905.375 L115.996 901.116 L124.26 899.449 L128.936 899.449 L128.936 930.074 L136.575 930.074 L136.575 934.009 L116.668 934.009 L116.668 930.074 Z" fill="#000000" fill-rule="nonzero" fill-opacity="1" /><path clip-path="url(#clip760)" d="M156.019 902.528 Q152.408 902.528 150.579 906.093 Q148.774 909.635 148.774 916.764 Q148.774 923.871 150.579 927.435 Q152.408 930.977 156.019 930.977 Q159.653 930.977 161.459 927.435 Q163.288 923.871 163.288 916.764 Q163.288 909.635 161.459 906.093 Q159.653 902.528 156.019 902.528 M156.019 898.824 Q161.829 898.824 164.885 903.431 Q167.964 908.014 167.964 916.764 Q167.964 925.491 164.885 930.097 Q161.829 934.681 156.019 934.681 Q150.209 934.681 147.13 930.097 Q144.075 925.491 144.075 916.764 Q144.075 908.014 147.13 903.431 Q150.209 898.824 156.019 898.824 Z" fill="#000000" fill-rule="nonzero" fill-opacity="1" /><path clip-path="url(#clip760)" d="M117.663 696.32 L125.302 696.32 L125.302 669.954 L116.992 671.621 L116.992 667.362 L125.255 665.695 L129.931 665.695 L129.931 696.32 L137.57 696.32 L137.57 700.255 L117.663 700.255 L117.663 696.32 Z" fill="#000000" fill-rule="nonzero" fill-opacity="1" /><path clip-path="url(#clip760)" d="M147.061 665.695 L165.417 665.695 L165.417 669.63 L151.343 669.63 L151.343 678.102 Q152.362 677.755 153.38 677.593 Q154.399 677.408 155.417 677.408 Q161.204 677.408 164.584 680.579 Q167.964 683.75 167.964 689.167 Q167.964 694.746 164.491 697.848 Q161.019 700.926 154.7 700.926 Q152.524 700.926 150.255 700.556 Q148.01 700.186 145.603 699.445 L145.603 694.746 Q147.686 695.88 149.908 696.436 Q152.13 696.991 154.607 696.991 Q158.612 696.991 160.95 694.885 Q163.288 692.778 163.288 689.167 Q163.288 685.556 160.95 683.449 Q158.612 681.343 154.607 681.343 Q152.732 681.343 150.857 681.76 Q149.005 682.176 147.061 683.056 L147.061 665.695 Z" fill="#000000" fill-rule="nonzero" fill-opacity="1" /><path clip-path="url(#clip760)" d="M119.885 462.565 L136.204 462.565 L136.204 466.501 L114.26 466.501 L114.26 462.565 Q116.922 459.811 121.505 455.181 Q126.112 450.528 127.292 449.186 Q129.538 446.663 130.417 444.927 Q131.32 443.167 131.32 441.478 Q131.32 438.723 129.376 436.987 Q127.455 435.251 124.353 435.251 Q122.154 435.251 119.7 436.015 Q117.269 436.778 114.492 438.329 L114.492 433.607 Q117.316 432.473 119.769 431.894 Q122.223 431.316 124.26 431.316 Q129.63 431.316 132.825 434.001 Q136.019 436.686 136.019 441.177 Q136.019 443.306 135.209 445.227 Q134.422 447.126 132.316 449.718 Q131.737 450.389 128.635 453.607 Q125.533 456.801 119.885 462.565 Z" fill="#000000" fill-rule="nonzero" fill-opacity="1" /><path clip-path="url(#clip760)" d="M156.019 435.019 Q152.408 435.019 150.579 438.584 Q148.774 442.126 148.774 449.255 Q148.774 456.362 150.579 459.926 Q152.408 463.468 156.019 463.468 Q159.653 463.468 161.459 459.926 Q163.288 456.362 163.288 449.255 Q163.288 442.126 161.459 438.584 Q159.653 435.019 156.019 435.019 M156.019 431.316 Q161.829 431.316 164.885 435.922 Q167.964 440.505 167.964 449.255 Q167.964 457.982 164.885 462.589 Q161.829 467.172 156.019 467.172 Q150.209 467.172 147.13 462.589 Q144.075 457.982 144.075 449.255 Q144.075 440.505 147.13 435.922 Q150.209 431.316 156.019 431.316 Z" fill="#000000" fill-rule="nonzero" fill-opacity="1" /><path clip-path="url(#clip760)" d="M120.88 228.811 L137.2 228.811 L137.2 232.746 L115.256 232.746 L115.256 228.811 Q117.918 226.056 122.501 221.427 Q127.107 216.774 128.288 215.431 Q130.533 212.908 131.413 211.172 Q132.316 209.413 132.316 207.723 Q132.316 204.968 130.371 203.232 Q128.45 201.496 125.348 201.496 Q123.149 201.496 120.695 202.26 Q118.265 203.024 115.487 204.575 L115.487 199.853 Q118.311 198.718 120.765 198.14 Q123.218 197.561 125.255 197.561 Q130.626 197.561 133.82 200.246 Q137.015 202.931 137.015 207.422 Q137.015 209.552 136.204 211.473 Q135.417 213.371 133.311 215.964 Q132.732 216.635 129.63 219.853 Q126.529 223.047 120.88 228.811 Z" fill="#000000" fill-rule="nonzero" fill-opacity="1" /><path clip-path="url(#clip760)" d="M147.061 198.186 L165.417 198.186 L165.417 202.121 L151.343 202.121 L151.343 210.593 Q152.362 210.246 153.38 210.084 Q154.399 209.899 155.417 209.899 Q161.204 209.899 164.584 213.07 Q167.964 216.242 167.964 221.658 Q167.964 227.237 164.491 230.339 Q161.019 233.417 154.7 233.417 Q152.524 233.417 150.255 233.047 Q148.01 232.677 145.603 231.936 L145.603 227.237 Q147.686 228.371 149.908 228.927 Q152.13 229.482 154.607 229.482 Q158.612 229.482 160.95 227.376 Q163.288 225.269 163.288 221.658 Q163.288 218.047 160.95 215.941 Q158.612 213.834 154.607 213.834 Q152.732 213.834 150.857 214.251 Q149.005 214.667 147.061 215.547 L147.061 198.186 Z" fill="#000000" fill-rule="nonzero" fill-opacity="1" /><path clip-path="url(#clip760)" d="M21.7677 1026.76 L39.6235 1026.76 L39.6235 1018.68 Q39.6235 1014.19 37.3 1011.74 Q34.9765 1009.29 30.6797 1009.29 Q26.4147 1009.29 24.0912 1011.74 Q21.7677 1014.19 21.7677 1018.68 L21.7677 1026.76 M16.4842 1033.19 L16.4842 1018.68 Q16.4842 1010.69 20.1126 1006.61 Q23.7092 1002.51 30.6797 1002.51 Q37.7138 1002.51 41.3104 1006.61 Q44.907 1010.69 44.907 1018.68 L44.907 1026.76 L64.0042 1026.76 L64.0042 1033.19 L16.4842 1033.19 Z" fill="#000000" fill-rule="nonzero" fill-opacity="1" /><path clip-path="url(#clip760)" d="M33.8307 974.626 Q33.2578 975.613 33.0032 976.791 Q32.7167 977.936 32.7167 979.337 Q32.7167 984.302 35.9632 986.976 Q39.1779 989.617 45.2253 989.617 L64.0042 989.617 L64.0042 995.506 L28.3562 995.506 L28.3562 989.617 L33.8944 989.617 Q30.6479 987.771 29.0883 984.811 Q27.4968 981.851 27.4968 977.618 Q27.4968 977.013 27.5923 976.281 Q27.656 975.549 27.8151 974.658 L33.8307 974.626 Z" fill="#000000" fill-rule="nonzero" fill-opacity="1" /><path clip-path="url(#clip760)" d="M32.4621 956.102 Q32.4621 960.813 36.1542 963.55 Q39.8145 966.287 46.212 966.287 Q52.6095 966.287 56.3017 963.582 Q59.9619 960.844 59.9619 956.102 Q59.9619 951.423 56.2698 948.686 Q52.5777 945.949 46.212 945.949 Q39.8781 945.949 36.186 948.686 Q32.4621 951.423 32.4621 956.102 M27.4968 956.102 Q27.4968 948.463 32.4621 944.103 Q37.4273 939.742 46.212 939.742 Q54.9649 939.742 59.9619 944.103 Q64.9272 948.463 64.9272 956.102 Q64.9272 963.773 59.9619 968.133 Q54.9649 972.462 46.212 972.462 Q37.4273 972.462 32.4621 968.133 Q27.4968 963.773 27.4968 956.102 Z" fill="#000000" fill-rule="nonzero" fill-opacity="1" /><path clip-path="url(#clip760)" d="M46.212 904.444 Q39.7508 904.444 36.0905 907.118 Q32.3984 909.76 32.3984 914.407 Q32.3984 919.054 36.0905 921.727 Q39.7508 924.369 46.212 924.369 Q52.6732 924.369 56.3653 921.727 Q60.0256 919.054 60.0256 914.407 Q60.0256 909.76 56.3653 907.118 Q52.6732 904.444 46.212 904.444 M33.7671 924.369 Q30.5842 922.523 29.0564 919.722 Q27.4968 916.889 27.4968 912.974 Q27.4968 906.481 32.6531 902.439 Q37.8093 898.365 46.212 898.365 Q54.6147 898.365 59.771 902.439 Q64.9272 906.481 64.9272 912.974 Q64.9272 916.889 63.3994 919.722 Q61.8398 922.523 58.657 924.369 L64.0042 924.369 L64.0042 930.257 L14.479 930.257 L14.479 924.369 L33.7671 924.369 Z" fill="#000000" fill-rule="nonzero" fill-opacity="1" /><path clip-path="url(#clip760)" d="M46.0847 872.457 Q46.0847 879.554 47.7079 882.292 Q49.3312 885.029 53.2461 885.029 Q56.3653 885.029 58.2114 882.992 Q60.0256 880.923 60.0256 877.39 Q60.0256 872.52 56.5881 869.592 Q53.1188 866.632 47.3897 866.632 L46.0847 866.632 L46.0847 872.457 M43.6657 860.776 L64.0042 860.776 L64.0042 866.632 L58.5933 866.632 Q61.8398 868.637 63.3994 871.629 Q64.9272 874.621 64.9272 878.95 Q64.9272 884.424 61.8716 887.671 Q58.7843 890.885 53.6281 890.885 Q47.6125 890.885 44.5569 886.875 Q41.5014 882.833 41.5014 874.844 L41.5014 866.632 L40.9285 866.632 Q36.8862 866.632 34.6901 869.306 Q32.4621 871.947 32.4621 876.753 Q32.4621 879.809 33.1941 882.705 Q33.9262 885.602 35.3903 888.275 L29.9795 888.275 Q28.7381 885.061 28.1334 882.037 Q27.4968 879.013 27.4968 876.149 Q27.4968 868.414 31.5072 864.595 Q35.5176 860.776 43.6657 860.776 Z" fill="#000000" fill-rule="nonzero" fill-opacity="1" /><path clip-path="url(#clip760)" d="M46.212 823.122 Q39.7508 823.122 36.0905 825.796 Q32.3984 828.438 32.3984 833.085 Q32.3984 837.732 36.0905 840.405 Q39.7508 843.047 46.212 843.047 Q52.6732 843.047 56.3653 840.405 Q60.0256 837.732 60.0256 833.085 Q60.0256 828.438 56.3653 825.796 Q52.6732 823.122 46.212 823.122 M33.7671 843.047 Q30.5842 841.201 29.0564 838.4 Q27.4968 835.567 27.4968 831.652 Q27.4968 825.159 32.6531 821.117 Q37.8093 817.043 46.212 817.043 Q54.6147 817.043 59.771 821.117 Q64.9272 825.159 64.9272 831.652 Q64.9272 835.567 63.3994 838.4 Q61.8398 841.201 58.657 843.047 L64.0042 843.047 L64.0042 848.935 L14.479 848.935 L14.479 843.047 L33.7671 843.047 Z" fill="#000000" fill-rule="nonzero" fill-opacity="1" /><path clip-path="url(#clip760)" d="M28.3562 807.335 L28.3562 801.479 L64.0042 801.479 L64.0042 807.335 L28.3562 807.335 M14.479 807.335 L14.479 801.479 L21.895 801.479 L21.895 807.335 L14.479 807.335 Z" fill="#000000" fill-rule="nonzero" fill-opacity="1" /><path clip-path="url(#clip760)" d="M14.479 789.225 L14.479 783.369 L64.0042 783.369 L64.0042 789.225 L14.479 789.225 Z" fill="#000000" fill-rule="nonzero" fill-opacity="1" /><path clip-path="url(#clip760)" d="M28.3562 771.115 L28.3562 765.258 L64.0042 765.258 L64.0042 771.115 L28.3562 771.115 M14.479 771.115 L14.479 765.258 L21.895 765.258 L21.895 771.115 L14.479 771.115 Z" fill="#000000" fill-rule="nonzero" fill-opacity="1" /><path clip-path="url(#clip760)" d="M18.2347 747.211 L28.3562 747.211 L28.3562 735.148 L32.9077 735.148 L32.9077 747.211 L52.2594 747.211 Q56.6199 747.211 57.8613 746.034 Q59.1026 744.824 59.1026 741.164 L59.1026 735.148 L64.0042 735.148 L64.0042 741.164 Q64.0042 747.943 61.4897 750.521 Q58.9434 753.1 52.2594 753.1 L32.9077 753.1 L32.9077 757.396 L28.3562 757.396 L28.3562 753.1 L18.2347 753.1 L18.2347 747.211 Z" fill="#000000" fill-rule="nonzero" fill-opacity="1" /><path clip-path="url(#clip760)" d="M67.3143 712.614 Q73.68 715.096 75.6216 717.452 Q77.5631 719.807 77.5631 723.754 L77.5631 728.432 L72.6615 728.432 L72.6615 724.995 Q72.6615 722.576 71.5157 721.239 Q70.3699 719.902 66.1048 718.279 L63.4312 717.229 L28.3562 731.647 L28.3562 725.441 L56.238 714.301 L28.3562 703.161 L28.3562 696.954 L67.3143 712.614 Z" fill="#000000" fill-rule="nonzero" fill-opacity="1" /><path clip-path="url(#clip760)" d="M33.7671 644.692 L14.479 644.692 L14.479 638.835 L64.0042 638.835 L64.0042 644.692 L58.657 644.692 Q61.8398 646.538 63.3994 649.37 Q64.9272 652.171 64.9272 656.118 Q64.9272 662.579 59.771 666.653 Q54.6147 670.696 46.212 670.696 Q37.8093 670.696 32.6531 666.653 Q27.4968 662.579 27.4968 656.118 Q27.4968 652.171 29.0564 649.37 Q30.5842 646.538 33.7671 644.692 M46.212 664.648 Q52.6732 664.648 56.3653 662.006 Q60.0256 659.333 60.0256 654.686 Q60.0256 650.039 56.3653 647.365 Q52.6732 644.692 46.212 644.692 Q39.7508 644.692 36.0905 647.365 Q32.3984 650.039 32.3984 654.686 Q32.3984 659.333 36.0905 662.006 Q39.7508 664.648 46.212 664.648 Z" fill="#000000" fill-rule="nonzero" fill-opacity="1" /><path clip-path="url(#clip760)" d="M44.7161 596.28 L47.5806 596.28 L47.5806 623.207 Q53.6281 622.825 56.8109 619.579 Q59.9619 616.301 59.9619 610.476 Q59.9619 607.102 59.1344 603.951 Q58.3069 600.768 56.6518 597.649 L62.1899 597.649 Q63.5267 600.8 64.227 604.11 Q64.9272 607.42 64.9272 610.826 Q64.9272 619.356 59.9619 624.353 Q54.9967 629.318 46.5303 629.318 Q37.7774 629.318 32.6531 624.608 Q27.4968 619.865 27.4968 611.845 Q27.4968 604.651 32.1438 600.482 Q36.7589 596.28 44.7161 596.28 M42.9973 602.137 Q38.1912 602.201 35.3266 604.842 Q32.4621 607.452 32.4621 611.781 Q32.4621 616.683 35.2312 619.643 Q38.0002 622.571 43.0292 623.016 L42.9973 602.137 Z" fill="#000000" fill-rule="nonzero" fill-opacity="1" /><path clip-path="url(#clip760)" d="M42.4881 557.036 L64.0042 557.036 L64.0042 562.892 L42.679 562.892 Q37.6183 562.892 35.1038 564.866 Q32.5894 566.839 32.5894 570.786 Q32.5894 575.528 35.6131 578.265 Q38.6368 581.003 43.8567 581.003 L64.0042 581.003 L64.0042 586.891 L28.3562 586.891 L28.3562 581.003 L33.8944 581.003 Q30.6797 578.902 29.0883 576.069 Q27.4968 573.205 27.4968 569.481 Q27.4968 563.338 31.3163 560.187 Q35.1038 557.036 42.4881 557.036 Z" fill="#000000" fill-rule="nonzero" fill-opacity="1" /><path clip-path="url(#clip760)" d="M29.4065 522.629 L34.9447 522.629 Q33.6716 525.112 33.035 527.785 Q32.3984 530.459 32.3984 533.324 Q32.3984 537.684 33.7352 539.88 Q35.072 542.045 37.7456 542.045 Q39.7826 542.045 40.9603 540.485 Q42.1061 538.925 43.1565 534.215 L43.6021 532.21 Q44.9389 525.971 47.3897 523.361 Q49.8086 520.719 54.1691 520.719 Q59.1344 520.719 62.0308 524.666 Q64.9272 528.581 64.9272 535.456 Q64.9272 538.321 64.3543 541.44 Q63.8132 544.527 62.6992 547.965 L56.6518 547.965 Q58.3387 544.718 59.198 541.567 Q60.0256 538.416 60.0256 535.329 Q60.0256 531.191 58.6251 528.963 Q57.1929 526.735 54.6147 526.735 Q52.2276 526.735 50.9545 528.358 Q49.6813 529.95 48.5037 535.392 L48.0262 537.429 Q46.8804 542.872 44.5251 545.291 Q42.138 547.71 38.0002 547.71 Q32.9713 547.71 30.2341 544.145 Q27.4968 540.58 27.4968 534.024 Q27.4968 530.777 27.9743 527.913 Q28.4517 525.048 29.4065 522.629 Z" fill="#000000" fill-rule="nonzero" fill-opacity="1" /><path clip-path="url(#clip760)" d="M28.3562 511.394 L28.3562 505.537 L64.0042 505.537 L64.0042 511.394 L28.3562 511.394 M14.479 511.394 L14.479 505.537 L21.895 505.537 L21.895 511.394 L14.479 511.394 Z" fill="#000000" fill-rule="nonzero" fill-opacity="1" /><path clip-path="url(#clip760)" d="M18.2347 487.49 L28.3562 487.49 L28.3562 475.427 L32.9077 475.427 L32.9077 487.49 L52.2594 487.49 Q56.6199 487.49 57.8613 486.313 Q59.1026 485.103 59.1026 481.443 L59.1026 475.427 L64.0042 475.427 L64.0042 481.443 Q64.0042 488.223 61.4897 490.801 Q58.9434 493.379 52.2594 493.379 L32.9077 493.379 L32.9077 497.676 L28.3562 497.676 L28.3562 493.379 L18.2347 493.379 L18.2347 487.49 Z" fill="#000000" fill-rule="nonzero" fill-opacity="1" /><path clip-path="url(#clip760)" d="M67.3143 452.893 Q73.68 455.376 75.6216 457.731 Q77.5631 460.086 77.5631 464.033 L77.5631 468.712 L72.6615 468.712 L72.6615 465.274 Q72.6615 462.855 71.5157 461.518 Q70.3699 460.182 66.1048 458.558 L63.4312 457.508 L28.3562 471.926 L28.3562 465.72 L56.238 454.58 L28.3562 443.44 L28.3562 437.233 L67.3143 452.893 Z" fill="#000000" fill-rule="nonzero" fill-opacity="1" /><polyline clip-path="url(#clip762)" style="stroke:#009af9; stroke-linecap:round; stroke-linejoin:round; stroke-width:4; stroke-opacity:1; fill:none" points="264.778,1384.23 460.955,1384.23 548.145,1384.23 613.538,1384.23 678.93,1384.22 700.727,1384.23 722.525,1384.22 809.715,1384.23 831.512,1384.23 875.107,1384.22 896.904,1384.22 918.702,1384.15 940.499,1384.21 962.297,1384.19 984.094,1384.22 1005.89,1384.18 1027.69,1384.03 1049.49,1384.19 1071.28,1384.2 1093.08,1384.11 1114.88,1384.03 1136.68,1384.19 1158.47,1384.15 1180.27,1384.01 1202.07,1384.16 1223.87,1384.11 1245.66,1383.84 1267.46,1384.02 1289.26,1383.82 1311.06,1383.87 1332.85,1383.91 1354.65,1383.86 1376.45,1383.35 1398.25,1383.41 1420.04,1383.38 1441.84,1383.1 1463.64,1382.67 1485.44,1382.14 1507.23,1382 1529.03,1381.22 1550.83,1379.76 1572.63,1379.74 1594.42,1377.4 1616.22,1374.91 1638.02,1372.51 1659.82,1368.57 1681.61,1361.27 1703.41,1351.72 1725.21,1340.16 1747,1325.34 1768.8,1300.33 1790.6,1274.02 1812.4,1234.47 1834.19,1195.41 1855.99,1137.65 1877.79,1082.07 1899.59,1022.97 1921.38,958.48 1943.18,898.189 1964.98,1010.51 1986.78,1154.94 2008.57,1248.96 2030.37,1306.24 2052.17,1336.71 2073.97,1358.7 2095.76,1366.96 2117.56,1374.69 2139.36,1380.2 2161.16,1381.77 2182.95,1383.12 2204.75,1383.95 2226.55,1384.18 2248.35,1384.05 2270.14,1384.14 2291.94,1384.23 "/>
<polyline clip-path="url(#clip762)" style="stroke:#e26f46; stroke-linecap:round; stroke-linejoin:round; stroke-width:4; stroke-opacity:1; fill:none" points="264.778,1384.24 460.955,1384.24 548.145,1384.24 613.538,1384.24 678.93,1384.24 700.727,1384.24 722.525,1384.24 809.715,1384.23 831.512,1384.23 875.107,1384.23 896.904,1384.23 918.702,1384.22 940.499,1384.22 962.297,1384.22 984.094,1384.21 1005.89,1384.2 1027.69,1384.19 1049.49,1384.18 1071.28,1384.16 1093.08,1384.14 1114.88,1384.11 1136.68,1384.07 1158.47,1384.03 1180.27,1383.97 1202.07,1383.89 1223.87,1383.79 1245.66,1383.66 1267.46,1383.5 1289.26,1383.29 1311.06,1383.02 1332.85,1382.67 1354.65,1382.23 1376.45,1381.66 1398.25,1380.92 1420.04,1379.98 1441.84,1378.76 1463.64,1377.2 1485.44,1375.19 1507.23,1372.62 1529.03,1369.31 1550.83,1365.05 1572.63,1359.58 1594.42,1352.56 1616.22,1343.54 1638.02,1331.94 1659.82,1317.05 1681.61,1297.93 1703.41,1273.36 1725.21,1241.83 1747,1201.36 1768.8,1149.45 1790.6,1082.91 1812.4,997.782 1834.19,889.165 1855.99,751.425 1877.79,579.254 1899.59,372.75 1921.38,160.816 1943.18,86.1857 1964.98,355.507 1986.78,739.325 2008.57,1011.27 2030.37,1173.59 2052.17,1266.24 2073.97,1318.37 2095.76,1347.53 2117.56,1363.8 2139.36,1372.87 2161.16,1377.91 2182.95,1380.72 2204.75,1382.28 2226.55,1383.15 2248.35,1383.63 2270.14,1383.9 2291.94,1384.05 "/>
<path clip-path="url(#clip760)" d="M275.59 248.629 L824.773 248.629 L824.773 93.1086 L275.59 93.1086  Z" fill="#ffffff" fill-rule="evenodd" fill-opacity="1"/>
<polyline clip-path="url(#clip760)" style="stroke:#ffffff; stroke-linecap:round; stroke-linejoin:round; stroke-width:4; stroke-opacity:1; fill:none" points="275.59,248.629 824.773,248.629 824.773,93.1086 275.59,93.1086 275.59,248.629 "/>
<polyline clip-path="url(#clip760)" style="stroke:#009af9; stroke-linecap:round; stroke-linejoin:round; stroke-width:4; stroke-opacity:1; fill:none" points="299.465,144.949 442.718,144.949 "/>
<path clip-path="url(#clip760)" d="M466.594 127.669 L471.27 127.669 L471.27 141.835 L488.26 141.835 L488.26 127.669 L492.936 127.669 L492.936 162.229 L488.26 162.229 L488.26 145.77 L471.27 145.77 L471.27 162.229 L466.594 162.229 L466.594 127.669 Z" fill="#000000" fill-rule="nonzero" fill-opacity="1" /><path clip-path="url(#clip760)" d="M502.057 136.303 L506.316 136.303 L506.316 162.229 L502.057 162.229 L502.057 136.303 M502.057 126.21 L506.316 126.21 L506.316 131.604 L502.057 131.604 L502.057 126.21 Z" fill="#000000" fill-rule="nonzero" fill-opacity="1" /><path clip-path="url(#clip760)" d="M531.755 137.067 L531.755 141.094 Q529.95 140.169 528.005 139.706 Q526.061 139.243 523.978 139.243 Q520.806 139.243 519.209 140.215 Q517.635 141.187 517.635 143.131 Q517.635 144.613 518.769 145.469 Q519.904 146.303 523.33 147.067 L524.788 147.391 Q529.325 148.363 531.223 150.145 Q533.144 151.905 533.144 155.076 Q533.144 158.687 530.274 160.793 Q527.427 162.9 522.427 162.9 Q520.343 162.9 518.075 162.483 Q515.83 162.09 513.33 161.28 L513.33 156.881 Q515.691 158.108 517.982 158.733 Q520.274 159.335 522.519 159.335 Q525.529 159.335 527.149 158.317 Q528.769 157.275 528.769 155.4 Q528.769 153.664 527.589 152.738 Q526.431 151.812 522.473 150.956 L520.992 150.608 Q517.033 149.775 515.274 148.062 Q513.515 146.326 513.515 143.317 Q513.515 139.659 516.107 137.669 Q518.7 135.678 523.468 135.678 Q525.83 135.678 527.913 136.025 Q529.996 136.372 531.755 137.067 Z" fill="#000000" fill-rule="nonzero" fill-opacity="1" /><path clip-path="url(#clip760)" d="M544.14 128.942 L544.14 136.303 L552.913 136.303 L552.913 139.613 L544.14 139.613 L544.14 153.687 Q544.14 156.858 544.996 157.761 Q545.876 158.664 548.538 158.664 L552.913 158.664 L552.913 162.229 L548.538 162.229 Q543.607 162.229 541.732 160.4 Q539.857 158.548 539.857 153.687 L539.857 139.613 L536.732 139.613 L536.732 136.303 L539.857 136.303 L539.857 128.942 L544.14 128.942 Z" fill="#000000" fill-rule="nonzero" fill-opacity="1" /><path clip-path="url(#clip760)" d="M568.561 139.289 Q565.135 139.289 563.144 141.974 Q561.153 144.636 561.153 149.289 Q561.153 153.942 563.121 156.627 Q565.112 159.289 568.561 159.289 Q571.964 159.289 573.954 156.604 Q575.945 153.918 575.945 149.289 Q575.945 144.682 573.954 141.997 Q571.964 139.289 568.561 139.289 M568.561 135.678 Q574.116 135.678 577.288 139.289 Q580.459 142.9 580.459 149.289 Q580.459 155.655 577.288 159.289 Q574.116 162.9 568.561 162.9 Q562.982 162.9 559.811 159.289 Q556.663 155.655 556.663 149.289 Q556.663 142.9 559.811 139.289 Q562.982 135.678 568.561 135.678 Z" fill="#000000" fill-rule="nonzero" fill-opacity="1" /><path clip-path="url(#clip760)" d="M604.579 148.965 Q604.579 144.335 602.658 141.789 Q600.76 139.243 597.311 139.243 Q593.885 139.243 591.963 141.789 Q590.065 144.335 590.065 148.965 Q590.065 153.571 591.963 156.118 Q593.885 158.664 597.311 158.664 Q600.76 158.664 602.658 156.118 Q604.579 153.571 604.579 148.965 M608.838 159.011 Q608.838 165.631 605.899 168.849 Q602.959 172.09 596.894 172.09 Q594.649 172.09 592.658 171.742 Q590.667 171.418 588.792 170.724 L588.792 166.58 Q590.667 167.599 592.496 168.085 Q594.325 168.571 596.223 168.571 Q600.412 168.571 602.496 166.372 Q604.579 164.196 604.579 159.775 L604.579 157.668 Q603.26 159.96 601.2 161.094 Q599.139 162.229 596.269 162.229 Q591.5 162.229 588.584 158.594 Q585.667 154.96 585.667 148.965 Q585.667 142.946 588.584 139.312 Q591.5 135.678 596.269 135.678 Q599.139 135.678 601.2 136.812 Q603.26 137.946 604.579 140.238 L604.579 136.303 L608.838 136.303 L608.838 159.011 Z" fill="#000000" fill-rule="nonzero" fill-opacity="1" /><path clip-path="url(#clip760)" d="M632.635 140.284 Q631.917 139.868 631.06 139.682 Q630.227 139.474 629.209 139.474 Q625.598 139.474 623.653 141.835 Q621.732 144.173 621.732 148.571 L621.732 162.229 L617.449 162.229 L617.449 136.303 L621.732 136.303 L621.732 140.331 Q623.074 137.969 625.227 136.835 Q627.38 135.678 630.459 135.678 Q630.898 135.678 631.431 135.747 Q631.963 135.794 632.611 135.909 L632.635 140.284 Z" fill="#000000" fill-rule="nonzero" fill-opacity="1" /><path clip-path="url(#clip760)" d="M648.884 149.196 Q643.722 149.196 641.732 150.377 Q639.741 151.557 639.741 154.405 Q639.741 156.673 641.222 158.016 Q642.727 159.335 645.296 159.335 Q648.838 159.335 650.968 156.835 Q653.121 154.312 653.121 150.145 L653.121 149.196 L648.884 149.196 M657.38 147.437 L657.38 162.229 L653.121 162.229 L653.121 158.293 Q651.662 160.655 649.486 161.789 Q647.31 162.9 644.162 162.9 Q640.181 162.9 637.82 160.678 Q635.482 158.432 635.482 154.682 Q635.482 150.307 638.398 148.085 Q641.338 145.863 647.148 145.863 L653.121 145.863 L653.121 145.446 Q653.121 142.507 651.176 140.909 Q649.255 139.289 645.759 139.289 Q643.537 139.289 641.431 139.821 Q639.324 140.354 637.38 141.419 L637.38 137.483 Q639.718 136.581 641.917 136.141 Q644.116 135.678 646.199 135.678 Q651.824 135.678 654.602 138.594 Q657.38 141.511 657.38 147.437 Z" fill="#000000" fill-rule="nonzero" fill-opacity="1" /><path clip-path="url(#clip760)" d="M686.338 141.28 Q687.935 138.409 690.157 137.044 Q692.38 135.678 695.389 135.678 Q699.44 135.678 701.639 138.525 Q703.838 141.349 703.838 146.581 L703.838 162.229 L699.555 162.229 L699.555 146.719 Q699.555 142.993 698.236 141.187 Q696.917 139.382 694.208 139.382 Q690.898 139.382 688.977 141.581 Q687.056 143.78 687.056 147.576 L687.056 162.229 L682.773 162.229 L682.773 146.719 Q682.773 142.969 681.454 141.187 Q680.134 139.382 677.38 139.382 Q674.116 139.382 672.194 141.604 Q670.273 143.803 670.273 147.576 L670.273 162.229 L665.991 162.229 L665.991 136.303 L670.273 136.303 L670.273 140.331 Q671.732 137.946 673.769 136.812 Q675.806 135.678 678.607 135.678 Q681.431 135.678 683.398 137.113 Q685.389 138.548 686.338 141.28 Z" fill="#000000" fill-rule="nonzero" fill-opacity="1" /><polyline clip-path="url(#clip760)" style="stroke:#e26f46; stroke-linecap:round; stroke-linejoin:round; stroke-width:4; stroke-opacity:1; fill:none" points="299.465,196.789 442.718,196.789 "/>
<path clip-path="url(#clip760)" d="M471.27 183.351 L471.27 210.226 L476.918 210.226 Q484.071 210.226 487.381 206.985 Q490.714 203.745 490.714 196.754 Q490.714 189.809 487.381 186.592 Q484.071 183.351 476.918 183.351 L471.27 183.351 M466.594 179.509 L476.2 179.509 Q486.246 179.509 490.945 183.698 Q495.645 187.865 495.645 196.754 Q495.645 205.689 490.922 209.879 Q486.2 214.069 476.2 214.069 L466.594 214.069 L466.594 179.509 Z" fill="#000000" fill-rule="nonzero" fill-opacity="1" /><path clip-path="url(#clip760)" d="M502.913 188.143 L507.172 188.143 L507.172 214.069 L502.913 214.069 L502.913 188.143 M502.913 178.05 L507.172 178.05 L507.172 183.444 L502.913 183.444 L502.913 178.05 Z" fill="#000000" fill-rule="nonzero" fill-opacity="1" /><path clip-path="url(#clip760)" d="M532.612 188.907 L532.612 192.934 Q530.806 192.009 528.862 191.546 Q526.917 191.083 524.834 191.083 Q521.663 191.083 520.066 192.055 Q518.492 193.027 518.492 194.971 Q518.492 196.453 519.626 197.309 Q520.76 198.143 524.186 198.907 L525.644 199.231 Q530.181 200.203 532.08 201.985 Q534.001 203.745 534.001 206.916 Q534.001 210.527 531.13 212.633 Q528.283 214.74 523.283 214.74 Q521.2 214.74 518.931 214.323 Q516.686 213.93 514.186 213.12 L514.186 208.721 Q516.547 209.948 518.839 210.573 Q521.13 211.175 523.376 211.175 Q526.385 211.175 528.005 210.157 Q529.626 209.115 529.626 207.24 Q529.626 205.504 528.445 204.578 Q527.288 203.652 523.33 202.796 L521.848 202.448 Q517.89 201.615 516.131 199.902 Q514.371 198.166 514.371 195.157 Q514.371 191.499 516.964 189.509 Q519.556 187.518 524.325 187.518 Q526.686 187.518 528.769 187.865 Q530.853 188.212 532.612 188.907 Z" fill="#000000" fill-rule="nonzero" fill-opacity="1" /><path clip-path="url(#clip760)" d="M544.996 180.782 L544.996 188.143 L553.769 188.143 L553.769 191.453 L544.996 191.453 L544.996 205.527 Q544.996 208.698 545.853 209.601 Q546.732 210.504 549.394 210.504 L553.769 210.504 L553.769 214.069 L549.394 214.069 Q544.464 214.069 542.589 212.24 Q540.714 210.388 540.714 205.527 L540.714 191.453 L537.589 191.453 L537.589 188.143 L540.714 188.143 L540.714 180.782 L544.996 180.782 Z" fill="#000000" fill-rule="nonzero" fill-opacity="1" /><path clip-path="url(#clip760)" d="M574.394 192.124 Q573.677 191.708 572.82 191.522 Q571.987 191.314 570.968 191.314 Q567.357 191.314 565.413 193.675 Q563.491 196.013 563.491 200.411 L563.491 214.069 L559.209 214.069 L559.209 188.143 L563.491 188.143 L563.491 192.171 Q564.834 189.809 566.987 188.675 Q569.139 187.518 572.218 187.518 Q572.658 187.518 573.19 187.587 Q573.723 187.634 574.371 187.749 L574.394 192.124 Z" fill="#000000" fill-rule="nonzero" fill-opacity="1" /><path clip-path="url(#clip760)" d="M578.862 188.143 L583.121 188.143 L583.121 214.069 L578.862 214.069 L578.862 188.143 M578.862 178.05 L583.121 178.05 L583.121 183.444 L578.862 183.444 L578.862 178.05 Z" fill="#000000" fill-rule="nonzero" fill-opacity="1" /><path clip-path="url(#clip760)" d="M610.644 201.129 Q610.644 196.43 608.699 193.768 Q606.778 191.083 603.399 191.083 Q600.019 191.083 598.075 193.768 Q596.153 196.43 596.153 201.129 Q596.153 205.828 598.075 208.513 Q600.019 211.175 603.399 211.175 Q606.778 211.175 608.699 208.513 Q610.644 205.828 610.644 201.129 M596.153 192.078 Q597.496 189.763 599.533 188.652 Q601.593 187.518 604.44 187.518 Q609.162 187.518 612.102 191.268 Q615.065 195.018 615.065 201.129 Q615.065 207.24 612.102 210.99 Q609.162 214.74 604.44 214.74 Q601.593 214.74 599.533 213.629 Q597.496 212.495 596.153 210.18 L596.153 214.069 L591.871 214.069 L591.871 178.05 L596.153 178.05 L596.153 192.078 Z" fill="#000000" fill-rule="nonzero" fill-opacity="1" /><path clip-path="url(#clip760)" d="M621.686 203.837 L621.686 188.143 L625.945 188.143 L625.945 203.675 Q625.945 207.356 627.38 209.208 Q628.815 211.036 631.685 211.036 Q635.135 211.036 637.125 208.837 Q639.139 206.638 639.139 202.842 L639.139 188.143 L643.398 188.143 L643.398 214.069 L639.139 214.069 L639.139 210.087 Q637.588 212.448 635.528 213.606 Q633.491 214.74 630.783 214.74 Q626.315 214.74 624 211.962 Q621.686 209.184 621.686 203.837 M632.403 187.518 L632.403 187.518 Z" fill="#000000" fill-rule="nonzero" fill-opacity="1" /><path clip-path="url(#clip760)" d="M656.384 180.782 L656.384 188.143 L665.157 188.143 L665.157 191.453 L656.384 191.453 L656.384 205.527 Q656.384 208.698 657.241 209.601 Q658.12 210.504 660.783 210.504 L665.157 210.504 L665.157 214.069 L660.783 214.069 Q655.852 214.069 653.977 212.24 Q652.102 210.388 652.102 205.527 L652.102 191.453 L648.977 191.453 L648.977 188.143 L652.102 188.143 L652.102 180.782 L656.384 180.782 Z" fill="#000000" fill-rule="nonzero" fill-opacity="1" /><path clip-path="url(#clip760)" d="M670.759 188.143 L675.019 188.143 L675.019 214.069 L670.759 214.069 L670.759 188.143 M670.759 178.05 L675.019 178.05 L675.019 183.444 L670.759 183.444 L670.759 178.05 Z" fill="#000000" fill-rule="nonzero" fill-opacity="1" /><path clip-path="url(#clip760)" d="M693.977 191.129 Q690.551 191.129 688.56 193.814 Q686.569 196.476 686.569 201.129 Q686.569 205.782 688.537 208.467 Q690.528 211.129 693.977 211.129 Q697.38 211.129 699.37 208.444 Q701.361 205.758 701.361 201.129 Q701.361 196.522 699.37 193.837 Q697.38 191.129 693.977 191.129 M693.977 187.518 Q699.532 187.518 702.704 191.129 Q705.875 194.74 705.875 201.129 Q705.875 207.495 702.704 211.129 Q699.532 214.74 693.977 214.74 Q688.398 214.74 685.227 211.129 Q682.079 207.495 682.079 201.129 Q682.079 194.74 685.227 191.129 Q688.398 187.518 693.977 187.518 Z" fill="#000000" fill-rule="nonzero" fill-opacity="1" /><path clip-path="url(#clip760)" d="M734.486 198.421 L734.486 214.069 L730.227 214.069 L730.227 198.559 Q730.227 194.879 728.791 193.05 Q727.356 191.222 724.486 191.222 Q721.037 191.222 719.046 193.421 Q717.055 195.62 717.055 199.416 L717.055 214.069 L712.773 214.069 L712.773 188.143 L717.055 188.143 L717.055 192.171 Q718.583 189.833 720.643 188.675 Q722.727 187.518 725.435 187.518 Q729.903 187.518 732.194 190.296 Q734.486 193.05 734.486 198.421 Z" fill="#000000" fill-rule="nonzero" fill-opacity="1" /><path clip-path="url(#clip760)" d="M771.175 178.05 L771.175 181.592 L767.101 181.592 Q764.81 181.592 763.907 182.518 Q763.027 183.444 763.027 185.851 L763.027 188.143 L770.041 188.143 L770.041 191.453 L763.027 191.453 L763.027 214.069 L758.745 214.069 L758.745 191.453 L754.671 191.453 L754.671 188.143 L758.745 188.143 L758.745 186.337 Q758.745 182.009 760.759 180.041 Q762.773 178.05 767.148 178.05 L771.175 178.05 Z" fill="#000000" fill-rule="nonzero" fill-opacity="1" /><path clip-path="url(#clip760)" d="M774.74 188.143 L778.999 188.143 L778.999 214.069 L774.74 214.069 L774.74 188.143 M774.74 178.05 L778.999 178.05 L778.999 183.444 L774.74 183.444 L774.74 178.05 Z" fill="#000000" fill-rule="nonzero" fill-opacity="1" /><path clip-path="url(#clip760)" d="M792.124 180.782 L792.124 188.143 L800.898 188.143 L800.898 191.453 L792.124 191.453 L792.124 205.527 Q792.124 208.698 792.981 209.601 Q793.861 210.504 796.523 210.504 L800.898 210.504 L800.898 214.069 L796.523 214.069 Q791.592 214.069 789.717 212.24 Q787.842 210.388 787.842 205.527 L787.842 191.453 L784.717 191.453 L784.717 188.143 L787.842 188.143 L787.842 180.782 L792.124 180.782 Z" fill="#000000" fill-rule="nonzero" fill-opacity="1" /></svg>
