<?xml version="1.0" encoding="utf-8"?>
<svg xmlns="http://www.w3.org/2000/svg" xmlns:xlink="http://www.w3.org/1999/xlink" width="600" height="400" viewBox="0 0 2400 1600">
<defs>
  <clipPath id="clip710">
    <rect x="0" y="0" width="2400" height="1600"/>
  </clipPath>
</defs>
<path clip-path="url(#clip710)" d="M0 1600 L2400 1600 L2400 8.88178e-14 L0 8.88178e-14  Z" fill="#ffffff" fill-rule="evenodd" fill-opacity="1"/>
<defs>
  <clipPath id="clip711">
    <rect x="249" y="47" width="2104" height="1507"/>
  </clipPath>
</defs>
<path clip-path="url(#clip710)" d="M249.357 1552.76 L2352.76 1552.76 L2352.76 47.2441 L249.357 47.2441  Z" fill="#ffffff" fill-rule="evenodd" fill-opacity="1"/>
<polyline clip-path="url(#clip711)" style="stroke:#000000; stroke-linecap:round; stroke-linejoin:round; stroke-width:2; stroke-opacity:0.1; fill:none" points="249.357,1356.95 2352.76,1356.95 "/>
<polyline clip-path="url(#clip711)" style="stroke:#000000; stroke-linecap:round; stroke-linejoin:round; stroke-width:2; stroke-opacity:0.1; fill:none" points="249.357,972.453 2352.76,972.453 "/>
<polyline clip-path="url(#clip711)" style="stroke:#000000; stroke-linecap:round; stroke-linejoin:round; stroke-width:2; stroke-opacity:0.1; fill:none" points="249.357,587.957 2352.76,587.957 "/>
<polyline clip-path="url(#clip711)" style="stroke:#000000; stroke-linecap:round; stroke-linejoin:round; stroke-width:2; stroke-opacity:0.1; fill:none" points="249.357,203.462 2352.76,203.462 "/>
<polyline clip-path="url(#clip711)" style="stroke:#000000; stroke-linecap:round; stroke-linejoin:round; stroke-width:2; stroke-opacity:0.1; fill:none" points="249.357,1356.95 2352.76,1356.95 "/>
<polyline clip-path="url(#clip711)" style="stroke:#000000; stroke-linecap:round; stroke-linejoin:round; stroke-width:2; stroke-opacity:0.1; fill:none" points="249.357,972.453 2352.76,972.453 "/>
<polyline clip-path="url(#clip711)" style="stroke:#000000; stroke-linecap:round; stroke-linejoin:round; stroke-width:2; stroke-opacity:0.1; fill:none" points="249.357,587.957 2352.76,587.957 "/>
<polyline clip-path="url(#clip711)" style="stroke:#000000; stroke-linecap:round; stroke-linejoin:round; stroke-width:2; stroke-opacity:0.1; fill:none" points="249.357,203.462 2352.76,203.462 "/>
<polyline clip-path="url(#clip710)" style="stroke:#000000; stroke-linecap:round; stroke-linejoin:round; stroke-width:4; stroke-opacity:1; fill:none" points="249.357,1552.76 2352.76,1552.76 "/>
<polyline clip-path="url(#clip710)" style="stroke:#000000; stroke-linecap:round; stroke-linejoin:round; stroke-width:4; stroke-opacity:1; fill:none" points="249.357,47.2441 2352.76,47.2441 "/>
<polyline clip-path="url(#clip710)" style="stroke:#000000; stroke-linecap:round; stroke-linejoin:round; stroke-width:4; stroke-opacity:1; fill:none" points="249.357,1552.76 249.357,47.2441 "/>
<polyline clip-path="url(#clip710)" style="stroke:#000000; stroke-linecap:round; stroke-linejoin:round; stroke-width:4; stroke-opacity:1; fill:none" points="2352.76,1552.76 2352.76,47.2441 "/>
<polyline clip-path="url(#clip710)" style="stroke:#000000; stroke-linecap:round; stroke-linejoin:round; stroke-width:4; stroke-opacity:1; fill:none" points="249.357,1356.95 268.254,1356.95 "/>
<polyline clip-path="url(#clip710)" style="stroke:#000000; stroke-linecap:round; stroke-linejoin:round; stroke-width:4; stroke-opacity:1; fill:none" points="249.357,972.453 268.254,972.453 "/>
<polyline clip-path="url(#clip710)" style="stroke:#000000; stroke-linecap:round; stroke-linejoin:round; stroke-width:4; stroke-opacity:1; fill:none" points="249.357,587.957 268.254,587.957 "/>
<polyline clip-path="url(#clip710)" style="stroke:#000000; stroke-linecap:round; stroke-linejoin:round; stroke-width:4; stroke-opacity:1; fill:none" points="249.357,203.462 268.254,203.462 "/>
<polyline clip-path="url(#clip710)" style="stroke:#000000; stroke-linecap:round; stroke-linejoin:round; stroke-width:4; stroke-opacity:1; fill:none" points="2352.76,1356.95 2333.86,1356.95 "/>
<polyline clip-path="url(#clip710)" style="stroke:#000000; stroke-linecap:round; stroke-linejoin:round; stroke-width:4; stroke-opacity:1; fill:none" points="2352.76,972.453 2333.86,972.453 "/>
<polyline clip-path="url(#clip710)" style="stroke:#000000; stroke-linecap:round; stroke-linejoin:round; stroke-width:4; stroke-opacity:1; fill:none" points="2352.76,587.957 2333.86,587.957 "/>
<polyline clip-path="url(#clip710)" style="stroke:#000000; stroke-linecap:round; stroke-linejoin:round; stroke-width:4; stroke-opacity:1; fill:none" points="2352.76,203.462 2333.86,203.462 "/>
<path clip-path="url(#clip710)" d="M126.598 1355.09 Q123.45 1355.09 121.598 1357.24 Q119.769 1359.39 119.769 1363.14 Q119.769 1366.87 121.598 1369.04 Q123.45 1371.2 126.598 1371.2 Q129.746 1371.2 131.575 1369.04 Q133.427 1366.87 133.427 1363.14 Q133.427 1359.39 131.575 1357.24 Q129.746 1355.09 126.598 1355.09 M135.88 1340.43 L135.88 1344.69 Q134.121 1343.86 132.316 1343.42 Q130.533 1342.98 128.774 1342.98 Q124.144 1342.98 121.691 1346.1 Q119.26 1349.23 118.913 1355.55 Q120.279 1353.53 122.339 1352.47 Q124.399 1351.38 126.876 1351.38 Q132.084 1351.38 135.093 1354.55 Q138.126 1357.7 138.126 1363.14 Q138.126 1368.46 134.978 1371.68 Q131.83 1374.9 126.598 1374.9 Q120.603 1374.9 117.431 1370.32 Q114.26 1365.71 114.26 1356.98 Q114.26 1348.79 118.149 1343.93 Q122.038 1339.04 128.589 1339.04 Q130.348 1339.04 132.13 1339.39 Q133.936 1339.74 135.88 1340.43 Z" fill="#000000" fill-rule="nonzero" fill-opacity="1" /><path clip-path="url(#clip710)" d="M156.76 1355.09 Q153.612 1355.09 151.76 1357.24 Q149.931 1359.39 149.931 1363.14 Q149.931 1366.87 151.76 1369.04 Q153.612 1371.2 156.76 1371.2 Q159.908 1371.2 161.737 1369.04 Q163.589 1366.87 163.589 1363.14 Q163.589 1359.39 161.737 1357.24 Q159.908 1355.09 156.76 1355.09 M166.042 1340.43 L166.042 1344.69 Q164.283 1343.86 162.477 1343.42 Q160.695 1342.98 158.936 1342.98 Q154.306 1342.98 151.853 1346.1 Q149.422 1349.23 149.075 1355.55 Q150.441 1353.53 152.501 1352.47 Q154.561 1351.38 157.038 1351.38 Q162.246 1351.38 165.255 1354.55 Q168.288 1357.7 168.288 1363.14 Q168.288 1368.46 165.14 1371.68 Q161.991 1374.9 156.76 1374.9 Q150.765 1374.9 147.593 1370.32 Q144.422 1365.71 144.422 1356.98 Q144.422 1348.79 148.311 1343.93 Q152.2 1339.04 158.751 1339.04 Q160.51 1339.04 162.292 1339.39 Q164.098 1339.74 166.042 1340.43 Z" fill="#000000" fill-rule="nonzero" fill-opacity="1" /><path clip-path="url(#clip710)" d="M176.343 1368.35 L181.227 1368.35 L181.227 1374.23 L176.343 1374.23 L176.343 1368.35 Z" fill="#000000" fill-rule="nonzero" fill-opacity="1" /><path clip-path="url(#clip710)" d="M201.412 1342.75 Q197.801 1342.75 195.973 1346.31 Q194.167 1349.85 194.167 1356.98 Q194.167 1364.09 195.973 1367.65 Q197.801 1371.2 201.412 1371.2 Q205.047 1371.2 206.852 1367.65 Q208.681 1364.09 208.681 1356.98 Q208.681 1349.85 206.852 1346.31 Q205.047 1342.75 201.412 1342.75 M201.412 1339.04 Q207.223 1339.04 210.278 1343.65 Q213.357 1348.23 213.357 1356.98 Q213.357 1365.71 210.278 1370.32 Q207.223 1374.9 201.412 1374.9 Q195.602 1374.9 192.524 1370.32 Q189.468 1365.71 189.468 1356.98 Q189.468 1348.23 192.524 1343.65 Q195.602 1339.04 201.412 1339.04 Z" fill="#000000" fill-rule="nonzero" fill-opacity="1" /><path clip-path="url(#clip710)" d="M127.825 970.589 Q124.677 970.589 122.825 972.742 Q120.996 974.895 120.996 978.645 Q120.996 982.372 122.825 984.548 Q124.677 986.7 127.825 986.7 Q130.973 986.7 132.802 984.548 Q134.654 982.372 134.654 978.645 Q134.654 974.895 132.802 972.742 Q130.973 970.589 127.825 970.589 M137.107 955.937 L137.107 960.196 Q135.348 959.363 133.542 958.923 Q131.76 958.483 130.001 958.483 Q125.371 958.483 122.918 961.608 Q120.487 964.733 120.14 971.052 Q121.505 969.039 123.566 967.974 Q125.626 966.886 128.103 966.886 Q133.311 966.886 136.32 970.057 Q139.353 973.205 139.353 978.645 Q139.353 983.969 136.204 987.187 Q133.056 990.404 127.825 990.404 Q121.83 990.404 118.658 985.821 Q115.487 981.214 115.487 972.488 Q115.487 964.293 119.376 959.432 Q123.265 954.548 129.816 954.548 Q131.575 954.548 133.357 954.895 Q135.163 955.242 137.107 955.937 Z" fill="#000000" fill-rule="nonzero" fill-opacity="1" /><path clip-path="url(#clip710)" d="M157.987 970.589 Q154.839 970.589 152.987 972.742 Q151.158 974.895 151.158 978.645 Q151.158 982.372 152.987 984.548 Q154.839 986.7 157.987 986.7 Q161.135 986.7 162.964 984.548 Q164.815 982.372 164.815 978.645 Q164.815 974.895 162.964 972.742 Q161.135 970.589 157.987 970.589 M167.269 955.937 L167.269 960.196 Q165.51 959.363 163.704 958.923 Q161.922 958.483 160.163 958.483 Q155.533 958.483 153.079 961.608 Q150.649 964.733 150.302 971.052 Q151.667 969.039 153.728 967.974 Q155.788 966.886 158.265 966.886 Q163.473 966.886 166.482 970.057 Q169.514 973.205 169.514 978.645 Q169.514 983.969 166.366 987.187 Q163.218 990.404 157.987 990.404 Q151.991 990.404 148.82 985.821 Q145.649 981.214 145.649 972.488 Q145.649 964.293 149.538 959.432 Q153.427 954.548 159.978 954.548 Q161.737 954.548 163.519 954.895 Q165.325 955.242 167.269 955.937 Z" fill="#000000" fill-rule="nonzero" fill-opacity="1" /><path clip-path="url(#clip710)" d="M177.57 983.853 L182.454 983.853 L182.454 989.733 L177.57 989.733 L177.57 983.853 Z" fill="#000000" fill-rule="nonzero" fill-opacity="1" /><path clip-path="url(#clip710)" d="M193.45 985.798 L201.088 985.798 L201.088 959.432 L192.778 961.099 L192.778 956.84 L201.042 955.173 L205.718 955.173 L205.718 985.798 L213.357 985.798 L213.357 989.733 L193.45 989.733 L193.45 985.798 Z" fill="#000000" fill-rule="nonzero" fill-opacity="1" /><path clip-path="url(#clip710)" d="M128.195 586.094 Q125.047 586.094 123.195 588.247 Q121.367 590.399 121.367 594.149 Q121.367 597.876 123.195 600.052 Q125.047 602.205 128.195 602.205 Q131.343 602.205 133.172 600.052 Q135.024 597.876 135.024 594.149 Q135.024 590.399 133.172 588.247 Q131.343 586.094 128.195 586.094 M137.478 571.441 L137.478 575.7 Q135.718 574.867 133.913 574.427 Q132.13 573.987 130.371 573.987 Q125.742 573.987 123.288 577.112 Q120.857 580.237 120.51 586.557 Q121.876 584.543 123.936 583.478 Q125.996 582.39 128.473 582.39 Q133.681 582.39 136.691 585.561 Q139.723 588.71 139.723 594.149 Q139.723 599.473 136.575 602.691 Q133.427 605.909 128.195 605.909 Q122.2 605.909 119.029 601.325 Q115.857 596.719 115.857 587.992 Q115.857 579.798 119.746 574.936 Q123.635 570.052 130.186 570.052 Q131.945 570.052 133.728 570.399 Q135.533 570.747 137.478 571.441 Z" fill="#000000" fill-rule="nonzero" fill-opacity="1" /><path clip-path="url(#clip710)" d="M158.357 586.094 Q155.209 586.094 153.357 588.247 Q151.528 590.399 151.528 594.149 Q151.528 597.876 153.357 600.052 Q155.209 602.205 158.357 602.205 Q161.505 602.205 163.334 600.052 Q165.186 597.876 165.186 594.149 Q165.186 590.399 163.334 588.247 Q161.505 586.094 158.357 586.094 M167.64 571.441 L167.64 575.7 Q165.88 574.867 164.075 574.427 Q162.292 573.987 160.533 573.987 Q155.903 573.987 153.45 577.112 Q151.019 580.237 150.672 586.557 Q152.038 584.543 154.098 583.478 Q156.158 582.39 158.635 582.39 Q163.843 582.39 166.852 585.561 Q169.885 588.71 169.885 594.149 Q169.885 599.473 166.737 602.691 Q163.589 605.909 158.357 605.909 Q152.362 605.909 149.191 601.325 Q146.019 596.719 146.019 587.992 Q146.019 579.798 149.908 574.936 Q153.797 570.052 160.348 570.052 Q162.107 570.052 163.89 570.399 Q165.695 570.747 167.64 571.441 Z" fill="#000000" fill-rule="nonzero" fill-opacity="1" /><path clip-path="url(#clip710)" d="M177.94 599.358 L182.825 599.358 L182.825 605.237 L177.94 605.237 L177.94 599.358 Z" fill="#000000" fill-rule="nonzero" fill-opacity="1" /><path clip-path="url(#clip710)" d="M197.037 601.302 L213.357 601.302 L213.357 605.237 L191.413 605.237 L191.413 601.302 Q194.075 598.547 198.658 593.918 Q203.264 589.265 204.445 587.923 Q206.69 585.399 207.57 583.663 Q208.473 581.904 208.473 580.214 Q208.473 577.46 206.528 575.723 Q204.607 573.987 201.505 573.987 Q199.306 573.987 196.852 574.751 Q194.422 575.515 191.644 577.066 L191.644 572.344 Q194.468 571.21 196.922 570.631 Q199.375 570.052 201.412 570.052 Q206.783 570.052 209.977 572.737 Q213.172 575.423 213.172 579.913 Q213.172 582.043 212.361 583.964 Q211.574 585.862 209.468 588.455 Q208.889 589.126 205.787 592.344 Q202.686 595.538 197.037 601.302 Z" fill="#000000" fill-rule="nonzero" fill-opacity="1" /><path clip-path="url(#clip710)" d="M127.246 201.598 Q124.098 201.598 122.246 203.751 Q120.418 205.904 120.418 209.654 Q120.418 213.381 122.246 215.556 Q124.098 217.709 127.246 217.709 Q130.394 217.709 132.223 215.556 Q134.075 213.381 134.075 209.654 Q134.075 205.904 132.223 203.751 Q130.394 201.598 127.246 201.598 M136.529 186.945 L136.529 191.205 Q134.769 190.371 132.964 189.932 Q131.181 189.492 129.422 189.492 Q124.793 189.492 122.339 192.617 Q119.908 195.742 119.561 202.061 Q120.927 200.047 122.987 198.982 Q125.047 197.894 127.524 197.894 Q132.732 197.894 135.742 201.066 Q138.774 204.214 138.774 209.654 Q138.774 214.978 135.626 218.195 Q132.478 221.413 127.246 221.413 Q121.251 221.413 118.08 216.83 Q114.908 212.223 114.908 203.496 Q114.908 195.302 118.797 190.441 Q122.686 185.557 129.237 185.557 Q130.996 185.557 132.779 185.904 Q134.584 186.251 136.529 186.945 Z" fill="#000000" fill-rule="nonzero" fill-opacity="1" /><path clip-path="url(#clip710)" d="M157.408 201.598 Q154.26 201.598 152.408 203.751 Q150.579 205.904 150.579 209.654 Q150.579 213.381 152.408 215.556 Q154.26 217.709 157.408 217.709 Q160.556 217.709 162.385 215.556 Q164.237 213.381 164.237 209.654 Q164.237 205.904 162.385 203.751 Q160.556 201.598 157.408 201.598 M166.69 186.945 L166.69 191.205 Q164.931 190.371 163.126 189.932 Q161.343 189.492 159.584 189.492 Q154.954 189.492 152.501 192.617 Q150.07 195.742 149.723 202.061 Q151.089 200.047 153.149 198.982 Q155.209 197.894 157.686 197.894 Q162.894 197.894 165.903 201.066 Q168.936 204.214 168.936 209.654 Q168.936 214.978 165.788 218.195 Q162.64 221.413 157.408 221.413 Q151.413 221.413 148.241 216.83 Q145.07 212.223 145.07 203.496 Q145.07 195.302 148.959 190.441 Q152.848 185.557 159.399 185.557 Q161.158 185.557 162.94 185.904 Q164.746 186.251 166.69 186.945 Z" fill="#000000" fill-rule="nonzero" fill-opacity="1" /><path clip-path="url(#clip710)" d="M176.991 214.862 L181.876 214.862 L181.876 220.742 L176.991 220.742 L176.991 214.862 Z" fill="#000000" fill-rule="nonzero" fill-opacity="1" /><path clip-path="url(#clip710)" d="M206.227 202.107 Q209.584 202.825 211.459 205.094 Q213.357 207.362 213.357 210.695 Q213.357 215.811 209.838 218.612 Q206.32 221.413 199.838 221.413 Q197.662 221.413 195.348 220.973 Q193.056 220.556 190.602 219.7 L190.602 215.186 Q192.547 216.32 194.862 216.899 Q197.176 217.478 199.7 217.478 Q204.098 217.478 206.389 215.742 Q208.704 214.006 208.704 210.695 Q208.704 207.64 206.551 205.927 Q204.422 204.191 200.602 204.191 L196.575 204.191 L196.575 200.348 L200.787 200.348 Q204.237 200.348 206.065 198.982 Q207.894 197.594 207.894 195.001 Q207.894 192.339 205.996 190.927 Q204.121 189.492 200.602 189.492 Q198.681 189.492 196.482 189.908 Q194.283 190.325 191.644 191.205 L191.644 187.038 Q194.306 186.297 196.621 185.927 Q198.959 185.557 201.019 185.557 Q206.343 185.557 209.445 187.987 Q212.547 190.395 212.547 194.515 Q212.547 197.385 210.903 199.376 Q209.26 201.344 206.227 202.107 Z" fill="#000000" fill-rule="nonzero" fill-opacity="1" /><path clip-path="url(#clip710)" d="M22.818 922.094 L46.4666 930.815 L46.4666 913.341 L22.818 922.094 M16.4842 925.723 L16.4842 918.434 L64.0042 900.324 L64.0042 907.008 L51.8138 911.336 L51.8138 932.757 L64.0042 937.085 L64.0042 943.865 L16.4842 925.723 Z" fill="#000000" fill-rule="nonzero" fill-opacity="1" /><path clip-path="url(#clip710)" d="M45.7664 870.182 Q39.4007 870.182 35.8996 872.824 Q32.3984 875.434 32.3984 880.176 Q32.3984 884.887 35.8996 887.528 Q39.4007 890.138 45.7664 890.138 Q52.1003 890.138 55.6014 887.528 Q59.1026 884.887 59.1026 880.176 Q59.1026 875.434 55.6014 872.824 Q52.1003 870.182 45.7664 870.182 M59.58 864.325 Q68.683 864.325 73.1071 868.368 Q77.5631 872.41 77.5631 880.749 Q77.5631 883.836 77.0857 886.574 Q76.6401 889.311 75.6852 891.889 L69.9879 891.889 Q71.3884 889.311 72.0568 886.796 Q72.7252 884.282 72.7252 881.672 Q72.7252 875.911 69.7015 873.046 Q66.7096 870.182 60.6303 870.182 L57.7339 870.182 Q60.885 871.996 62.4446 874.829 Q64.0042 877.662 64.0042 881.608 Q64.0042 888.165 59.0071 892.175 Q54.01 896.186 45.7664 896.186 Q37.491 896.186 32.4939 892.175 Q27.4968 888.165 27.4968 881.608 Q27.4968 877.662 29.0564 874.829 Q30.616 871.996 33.7671 870.182 L28.3562 870.182 L28.3562 864.325 L59.58 864.325 Z" fill="#000000" fill-rule="nonzero" fill-opacity="1" /><path clip-path="url(#clip710)" d="M44.7161 821.771 L47.5806 821.771 L47.5806 848.698 Q53.6281 848.316 56.8109 845.069 Q59.9619 841.791 59.9619 835.966 Q59.9619 832.592 59.1344 829.441 Q58.3069 826.259 56.6518 823.139 L62.1899 823.139 Q63.5267 826.29 64.227 829.601 Q64.9272 832.911 64.9272 836.316 Q64.9272 844.846 59.9619 849.843 Q54.9967 854.809 46.5303 854.809 Q37.7774 854.809 32.6531 850.098 Q27.4968 845.356 27.4968 837.335 Q27.4968 830.142 32.1438 825.972 Q36.7589 821.771 44.7161 821.771 M42.9973 827.627 Q38.1912 827.691 35.3266 830.333 Q32.4621 832.943 32.4621 837.271 Q32.4621 842.173 35.2312 845.133 Q38.0002 848.061 43.0292 848.507 L42.9973 827.627 Z" fill="#000000" fill-rule="nonzero" fill-opacity="1" /><path clip-path="url(#clip710)" d="M14.5426 777.37 Q21.8632 781.635 29.0246 783.704 Q36.186 785.773 43.5384 785.773 Q50.8908 785.773 58.1159 783.704 Q65.3091 781.603 72.5979 777.37 L72.5979 782.462 Q65.1182 787.237 57.8931 789.624 Q50.668 791.979 43.5384 791.979 Q36.4406 791.979 29.2474 789.624 Q22.0542 787.269 14.5426 782.462 L14.5426 777.37 Z" fill="#000000" fill-rule="nonzero" fill-opacity="1" /><path clip-path="url(#clip710)" d="M16.4842 765.752 L16.4842 756.172 L48.8219 744.045 L16.4842 731.855 L16.4842 722.275 L64.0042 722.275 L64.0042 728.545 L22.277 728.545 L54.8694 740.799 L54.8694 747.26 L22.277 759.514 L64.0042 759.514 L64.0042 765.752 L16.4842 765.752 Z" fill="#000000" fill-rule="nonzero" fill-opacity="1" /><path clip-path="url(#clip710)" d="M46.0847 693.565 Q46.0847 700.663 47.7079 703.4 Q49.3312 706.138 53.2461 706.138 Q56.3653 706.138 58.2114 704.101 Q60.0256 702.032 60.0256 698.499 Q60.0256 693.629 56.5881 690.701 Q53.1188 687.741 47.3897 687.741 L46.0847 687.741 L46.0847 693.565 M43.6657 681.884 L64.0042 681.884 L64.0042 687.741 L58.5933 687.741 Q61.8398 689.746 63.3994 692.738 Q64.9272 695.73 64.9272 700.058 Q64.9272 705.533 61.8716 708.779 Q58.7843 711.994 53.6281 711.994 Q47.6125 711.994 44.5569 707.984 Q41.5014 703.941 41.5014 695.953 L41.5014 687.741 L40.9285 687.741 Q36.8862 687.741 34.6901 690.414 Q32.4621 693.056 32.4621 697.862 Q32.4621 700.918 33.1941 703.814 Q33.9262 706.711 35.3903 709.384 L29.9795 709.384 Q28.7381 706.169 28.1334 703.146 Q27.4968 700.122 27.4968 697.257 Q27.4968 689.523 31.5072 685.704 Q35.5176 681.884 43.6657 681.884 Z" fill="#000000" fill-rule="nonzero" fill-opacity="1" /><path clip-path="url(#clip710)" d="M14.5426 670.744 L14.5426 665.652 Q22.0542 660.877 29.2474 658.522 Q36.4406 656.135 43.5384 656.135 Q50.668 656.135 57.8931 658.522 Q65.1182 660.877 72.5979 665.652 L72.5979 670.744 Q65.3091 666.511 58.1159 664.442 Q50.8908 662.342 43.5384 662.342 Q36.186 662.342 29.0246 664.442 Q21.8632 666.511 14.5426 670.744 Z" fill="#000000" fill-rule="nonzero" fill-opacity="1" /><polyline clip-path="url(#clip711)" style="stroke:#009af9; stroke-linecap:round; stroke-linejoin:round; stroke-width:4; stroke-opacity:1; fill:none" points="308.887,1011.63 308.887,593.901 "/>
<polyline clip-path="url(#clip711)" style="stroke:#009af9; stroke-linecap:round; stroke-linejoin:round; stroke-width:4; stroke-opacity:1; fill:none" points="970.333,1510.15 970.333,89.8529 "/>
<polyline clip-path="url(#clip711)" style="stroke:#009af9; stroke-linecap:round; stroke-linejoin:round; stroke-width:4; stroke-opacity:1; fill:none" points="1631.78,1040.51 1631.78,397.612 "/>
<polyline clip-path="url(#clip711)" style="stroke:#009af9; stroke-linecap:round; stroke-linejoin:round; stroke-width:4; stroke-opacity:1; fill:none" points="2293.23,1108.53 2293.23,135.543 "/>
<line clip-path="url(#clip711)" x1="324.887" y1="1011.63" x2="292.887" y2="1011.63" style="stroke:#009af9; stroke-width:4; stroke-opacity:1"/>
<line clip-path="url(#clip711)" x1="324.887" y1="593.901" x2="292.887" y2="593.901" style="stroke:#009af9; stroke-width:4; stroke-opacity:1"/>
<line clip-path="url(#clip711)" x1="986.333" y1="1510.15" x2="954.333" y2="1510.15" style="stroke:#009af9; stroke-width:4; stroke-opacity:1"/>
<line clip-path="url(#clip711)" x1="986.333" y1="89.8529" x2="954.333" y2="89.8529" style="stroke:#009af9; stroke-width:4; stroke-opacity:1"/>
<line clip-path="url(#clip711)" x1="1647.78" y1="1040.51" x2="1615.78" y2="1040.51" style="stroke:#009af9; stroke-width:4; stroke-opacity:1"/>
<line clip-path="url(#clip711)" x1="1647.78" y1="397.612" x2="1615.78" y2="397.612" style="stroke:#009af9; stroke-width:4; stroke-opacity:1"/>
<line clip-path="url(#clip711)" x1="2309.23" y1="1108.53" x2="2277.23" y2="1108.53" style="stroke:#009af9; stroke-width:4; stroke-opacity:1"/>
<line clip-path="url(#clip711)" x1="2309.23" y1="135.543" x2="2277.23" y2="135.543" style="stroke:#009af9; stroke-width:4; stroke-opacity:1"/>
<circle clip-path="url(#clip711)" cx="308.887" cy="802.768" r="14.4" fill="#009af9" fill-rule="evenodd" fill-opacity="1" stroke="none"/>
<circle clip-path="url(#clip711)" cx="970.333" cy="800" r="14.4" fill="#009af9" fill-rule="evenodd" fill-opacity="1" stroke="none"/>
<circle clip-path="url(#clip711)" cx="1631.78" cy="719.06" r="14.4" fill="#009af9" fill-rule="evenodd" fill-opacity="1" stroke="none"/>
<circle clip-path="url(#clip711)" cx="2293.23" cy="622.036" r="14.4" fill="#009af9" fill-rule="evenodd" fill-opacity="1" stroke="none"/>
<path clip-path="url(#clip711)" d="M308.887 985.633 L970.333 985.633 L1631.78 985.633 L2293.23 985.633 L2293.23 680.864 L1631.78 680.864 L970.333 680.864 L308.887 680.864  Z" fill="#e26f46" fill-rule="evenodd" fill-opacity="0.6"/>
<polyline clip-path="url(#clip711)" style="stroke:#e26f46; stroke-linecap:round; stroke-linejoin:round; stroke-width:4; stroke-opacity:0; fill:none" points="308.887,985.633 970.333,985.633 1631.78,985.633 2293.23,985.633 "/>
<polyline clip-path="url(#clip711)" style="stroke:#000000; stroke-linecap:round; stroke-linejoin:round; stroke-width:4; stroke-opacity:1; fill:none" stroke-dasharray="2, 4" points="308.887,806.685 970.333,806.685 1631.78,806.685 2293.23,806.685 "/>
<path clip-path="url(#clip710)" d="M319.47 252.948 L1325.69 252.948 L1325.69 97.4278 L319.47 97.4278  Z" fill="#ffffff" fill-rule="evenodd" fill-opacity="1"/>
<polyline clip-path="url(#clip710)" style="stroke:#ffffff; stroke-linecap:round; stroke-linejoin:round; stroke-width:4; stroke-opacity:1; fill:none" points="319.47,252.948 1325.69,252.948 1325.69,97.4278 319.47,97.4278 319.47,252.948 "/>
<circle clip-path="url(#clip710)" cx="412.955" cy="149.268" r="20.48" fill="#009af9" fill-rule="evenodd" fill-opacity="1" stroke="none"/>
<path clip-path="url(#clip710)" d="M511.115 135.83 L511.115 162.705 L516.763 162.705 Q523.916 162.705 527.226 159.465 Q530.559 156.224 530.559 149.233 Q530.559 142.289 527.226 139.071 Q523.916 135.83 516.763 135.83 L511.115 135.83 M506.439 131.988 L516.045 131.988 Q526.092 131.988 530.791 136.178 Q535.49 140.344 535.49 149.233 Q535.49 158.168 530.768 162.358 Q526.045 166.548 516.045 166.548 L506.439 166.548 L506.439 131.988 Z" fill="#000000" fill-rule="nonzero" fill-opacity="1" /><path clip-path="url(#clip710)" d="M554.541 153.515 Q549.379 153.515 547.388 154.696 Q545.397 155.877 545.397 158.724 Q545.397 160.992 546.879 162.335 Q548.383 163.654 550.953 163.654 Q554.494 163.654 556.624 161.154 Q558.777 158.631 558.777 154.465 L558.777 153.515 L554.541 153.515 M563.036 151.756 L563.036 166.548 L558.777 166.548 L558.777 162.613 Q557.318 164.974 555.142 166.108 Q552.966 167.219 549.818 167.219 Q545.837 167.219 543.476 164.997 Q541.138 162.752 541.138 159.002 Q541.138 154.627 544.054 152.404 Q546.994 150.182 552.804 150.182 L558.777 150.182 L558.777 149.766 Q558.777 146.826 556.832 145.228 Q554.911 143.608 551.416 143.608 Q549.193 143.608 547.087 144.141 Q544.98 144.673 543.036 145.738 L543.036 141.803 Q545.374 140.9 547.573 140.46 Q549.772 139.997 551.855 139.997 Q557.48 139.997 560.258 142.914 Q563.036 145.83 563.036 151.756 Z" fill="#000000" fill-rule="nonzero" fill-opacity="1" /><path clip-path="url(#clip710)" d="M576.022 133.261 L576.022 140.622 L584.795 140.622 L584.795 143.932 L576.022 143.932 L576.022 158.006 Q576.022 161.177 576.878 162.08 Q577.758 162.983 580.42 162.983 L584.795 162.983 L584.795 166.548 L580.42 166.548 Q575.49 166.548 573.615 164.719 Q571.74 162.867 571.74 158.006 L571.74 143.932 L568.615 143.932 L568.615 140.622 L571.74 140.622 L571.74 133.261 L576.022 133.261 Z" fill="#000000" fill-rule="nonzero" fill-opacity="1" /><path clip-path="url(#clip710)" d="M602.179 153.515 Q597.017 153.515 595.026 154.696 Q593.036 155.877 593.036 158.724 Q593.036 160.992 594.517 162.335 Q596.022 163.654 598.591 163.654 Q602.133 163.654 604.263 161.154 Q606.415 158.631 606.415 154.465 L606.415 153.515 L602.179 153.515 M610.675 151.756 L610.675 166.548 L606.415 166.548 L606.415 162.613 Q604.957 164.974 602.781 166.108 Q600.605 167.219 597.457 167.219 Q593.476 167.219 591.114 164.997 Q588.776 162.752 588.776 159.002 Q588.776 154.627 591.693 152.404 Q594.633 150.182 600.443 150.182 L606.415 150.182 L606.415 149.766 Q606.415 146.826 604.471 145.228 Q602.55 143.608 599.054 143.608 Q596.832 143.608 594.726 144.141 Q592.619 144.673 590.675 145.738 L590.675 141.803 Q593.013 140.9 595.212 140.46 Q597.411 139.997 599.494 139.997 Q605.119 139.997 607.897 142.914 Q610.675 145.83 610.675 151.756 Z" fill="#000000" fill-rule="nonzero" fill-opacity="1" /><path clip-path="url(#clip710)" d="M644.748 130.576 Q641.647 135.9 640.142 141.108 Q638.637 146.316 638.637 151.664 Q638.637 157.011 640.142 162.265 Q641.67 167.497 644.748 172.798 L641.045 172.798 Q637.573 167.358 635.836 162.103 Q634.123 156.849 634.123 151.664 Q634.123 146.502 635.836 141.27 Q637.549 136.039 641.045 130.576 L644.748 130.576 Z" fill="#000000" fill-rule="nonzero" fill-opacity="1" /><path clip-path="url(#clip710)" d="M663.058 143.608 Q659.633 143.608 657.642 146.293 Q655.651 148.955 655.651 153.608 Q655.651 158.261 657.619 160.946 Q659.609 163.608 663.058 163.608 Q666.461 163.608 668.452 160.923 Q670.443 158.238 670.443 153.608 Q670.443 149.002 668.452 146.316 Q666.461 143.608 663.058 143.608 M663.058 139.997 Q668.614 139.997 671.785 143.608 Q674.957 147.219 674.957 153.608 Q674.957 159.974 671.785 163.608 Q668.614 167.219 663.058 167.219 Q657.48 167.219 654.309 163.608 Q651.16 159.974 651.16 153.608 Q651.16 147.219 654.309 143.608 Q657.48 139.997 663.058 139.997 Z" fill="#000000" fill-rule="nonzero" fill-opacity="1" /><path clip-path="url(#clip710)" d="M700.628 153.608 Q700.628 148.909 698.683 146.247 Q696.762 143.562 693.382 143.562 Q690.003 143.562 688.058 146.247 Q686.137 148.909 686.137 153.608 Q686.137 158.307 688.058 160.992 Q690.003 163.654 693.382 163.654 Q696.762 163.654 698.683 160.992 Q700.628 158.307 700.628 153.608 M686.137 144.557 Q687.48 142.242 689.517 141.131 Q691.577 139.997 694.424 139.997 Q699.146 139.997 702.086 143.747 Q705.049 147.497 705.049 153.608 Q705.049 159.719 702.086 163.469 Q699.146 167.219 694.424 167.219 Q691.577 167.219 689.517 166.108 Q687.48 164.974 686.137 162.659 L686.137 166.548 L681.855 166.548 L681.855 130.529 L686.137 130.529 L686.137 144.557 Z" fill="#000000" fill-rule="nonzero" fill-opacity="1" /><path clip-path="url(#clip710)" d="M728.637 141.386 L728.637 145.414 Q726.831 144.488 724.887 144.025 Q722.942 143.562 720.859 143.562 Q717.688 143.562 716.091 144.534 Q714.517 145.506 714.517 147.451 Q714.517 148.932 715.651 149.789 Q716.785 150.622 720.211 151.386 L721.669 151.71 Q726.206 152.682 728.104 154.465 Q730.026 156.224 730.026 159.395 Q730.026 163.006 727.155 165.113 Q724.308 167.219 719.308 167.219 Q717.225 167.219 714.956 166.802 Q712.711 166.409 710.211 165.599 L710.211 161.201 Q712.572 162.427 714.864 163.052 Q717.155 163.654 719.401 163.654 Q722.41 163.654 724.03 162.636 Q725.651 161.594 725.651 159.719 Q725.651 157.983 724.47 157.057 Q723.313 156.131 719.354 155.275 L717.873 154.928 Q713.915 154.094 712.155 152.381 Q710.396 150.645 710.396 147.636 Q710.396 143.978 712.989 141.988 Q715.581 139.997 720.35 139.997 Q722.711 139.997 724.794 140.344 Q726.878 140.691 728.637 141.386 Z" fill="#000000" fill-rule="nonzero" fill-opacity="1" /><path clip-path="url(#clip710)" d="M758.984 152.52 L758.984 154.603 L739.401 154.603 Q739.678 159.002 742.04 161.316 Q744.424 163.608 748.66 163.608 Q751.114 163.608 753.405 163.006 Q755.72 162.404 757.989 161.201 L757.989 165.228 Q755.697 166.201 753.289 166.71 Q750.882 167.219 748.405 167.219 Q742.202 167.219 738.567 163.608 Q734.956 159.997 734.956 153.84 Q734.956 147.474 738.382 143.747 Q741.831 139.997 747.665 139.997 Q752.896 139.997 755.928 143.377 Q758.984 146.733 758.984 152.52 M754.725 151.27 Q754.678 147.775 752.757 145.691 Q750.859 143.608 747.711 143.608 Q744.146 143.608 741.993 145.622 Q739.864 147.636 739.54 151.293 L754.725 151.27 Z" fill="#000000" fill-rule="nonzero" fill-opacity="1" /><path clip-path="url(#clip710)" d="M780.998 144.603 Q780.28 144.187 779.424 144.002 Q778.59 143.793 777.572 143.793 Q773.961 143.793 772.016 146.154 Q770.095 148.492 770.095 152.89 L770.095 166.548 L765.813 166.548 L765.813 140.622 L770.095 140.622 L770.095 144.65 Q771.438 142.289 773.59 141.154 Q775.743 139.997 778.822 139.997 Q779.262 139.997 779.794 140.066 Q780.326 140.113 780.975 140.229 L780.998 144.603 Z" fill="#000000" fill-rule="nonzero" fill-opacity="1" /><path clip-path="url(#clip710)" d="M782.41 140.622 L786.924 140.622 L795.025 162.381 L803.127 140.622 L807.641 140.622 L797.919 166.548 L792.132 166.548 L782.41 140.622 Z" fill="#000000" fill-rule="nonzero" fill-opacity="1" /><path clip-path="url(#clip710)" d="M835.696 152.52 L835.696 154.603 L816.113 154.603 Q816.391 159.002 818.752 161.316 Q821.136 163.608 825.372 163.608 Q827.826 163.608 830.118 163.006 Q832.433 162.404 834.701 161.201 L834.701 165.228 Q832.409 166.201 830.002 166.71 Q827.595 167.219 825.118 167.219 Q818.914 167.219 815.28 163.608 Q811.669 159.997 811.669 153.84 Q811.669 147.474 815.095 143.747 Q818.544 139.997 824.377 139.997 Q829.609 139.997 832.641 143.377 Q835.696 146.733 835.696 152.52 M831.437 151.27 Q831.391 147.775 829.47 145.691 Q827.571 143.608 824.423 143.608 Q820.859 143.608 818.706 145.622 Q816.576 147.636 816.252 151.293 L831.437 151.27 Z" fill="#000000" fill-rule="nonzero" fill-opacity="1" /><path clip-path="url(#clip710)" d="M859.747 144.557 L859.747 130.529 L864.006 130.529 L864.006 166.548 L859.747 166.548 L859.747 162.659 Q858.405 164.974 856.344 166.108 Q854.307 167.219 851.437 167.219 Q846.738 167.219 843.775 163.469 Q840.835 159.719 840.835 153.608 Q840.835 147.497 843.775 143.747 Q846.738 139.997 851.437 139.997 Q854.307 139.997 856.344 141.131 Q858.405 142.242 859.747 144.557 M845.233 153.608 Q845.233 158.307 847.155 160.992 Q849.099 163.654 852.479 163.654 Q855.858 163.654 857.803 160.992 Q859.747 158.307 859.747 153.608 Q859.747 148.909 857.803 146.247 Q855.858 143.562 852.479 143.562 Q849.099 143.562 847.155 146.247 Q845.233 148.909 845.233 153.608 Z" fill="#000000" fill-rule="nonzero" fill-opacity="1" /><path clip-path="url(#clip710)" d="M899.631 153.515 Q894.469 153.515 892.479 154.696 Q890.488 155.877 890.488 158.724 Q890.488 160.992 891.969 162.335 Q893.474 163.654 896.043 163.654 Q899.585 163.654 901.715 161.154 Q903.867 158.631 903.867 154.465 L903.867 153.515 L899.631 153.515 M908.127 151.756 L908.127 166.548 L903.867 166.548 L903.867 162.613 Q902.409 164.974 900.233 166.108 Q898.057 167.219 894.909 167.219 Q890.928 167.219 888.567 164.997 Q886.229 162.752 886.229 159.002 Q886.229 154.627 889.145 152.404 Q892.085 150.182 897.895 150.182 L903.867 150.182 L903.867 149.766 Q903.867 146.826 901.923 145.228 Q900.002 143.608 896.506 143.608 Q894.284 143.608 892.178 144.141 Q890.071 144.673 888.127 145.738 L888.127 141.803 Q890.465 140.9 892.664 140.46 Q894.863 139.997 896.946 139.997 Q902.571 139.997 905.349 142.914 Q908.127 145.83 908.127 151.756 Z" fill="#000000" fill-rule="nonzero" fill-opacity="1" /><path clip-path="url(#clip710)" d="M933.96 153.284 Q933.96 148.654 932.039 146.108 Q930.14 143.562 926.691 143.562 Q923.265 143.562 921.344 146.108 Q919.446 148.654 919.446 153.284 Q919.446 157.89 921.344 160.437 Q923.265 162.983 926.691 162.983 Q930.14 162.983 932.039 160.437 Q933.96 157.89 933.96 153.284 M938.219 163.33 Q938.219 169.951 935.279 173.168 Q932.339 176.409 926.275 176.409 Q924.029 176.409 922.039 176.062 Q920.048 175.738 918.173 175.043 L918.173 170.9 Q920.048 171.918 921.877 172.404 Q923.705 172.89 925.603 172.89 Q929.793 172.89 931.876 170.691 Q933.96 168.515 933.96 164.094 L933.96 161.988 Q932.64 164.279 930.58 165.414 Q928.52 166.548 925.65 166.548 Q920.881 166.548 917.965 162.914 Q915.048 159.279 915.048 153.284 Q915.048 147.266 917.965 143.631 Q920.881 139.997 925.65 139.997 Q928.52 139.997 930.58 141.131 Q932.64 142.266 933.96 144.557 L933.96 140.622 L938.219 140.622 L938.219 163.33 Z" fill="#000000" fill-rule="nonzero" fill-opacity="1" /><path clip-path="url(#clip710)" d="M969.168 152.52 L969.168 154.603 L949.585 154.603 Q949.863 159.002 952.224 161.316 Q954.608 163.608 958.844 163.608 Q961.298 163.608 963.589 163.006 Q965.904 162.404 968.173 161.201 L968.173 165.228 Q965.881 166.201 963.474 166.71 Q961.066 167.219 958.589 167.219 Q952.386 167.219 948.751 163.608 Q945.14 159.997 945.14 153.84 Q945.14 147.474 948.566 143.747 Q952.015 139.997 957.849 139.997 Q963.08 139.997 966.112 143.377 Q969.168 146.733 969.168 152.52 M964.909 151.27 Q964.862 147.775 962.941 145.691 Q961.043 143.608 957.895 143.608 Q954.33 143.608 952.177 145.622 Q950.048 147.636 949.724 151.293 L964.909 151.27 Z" fill="#000000" fill-rule="nonzero" fill-opacity="1" /><path clip-path="url(#clip710)" d="M992.686 141.386 L992.686 145.414 Q990.881 144.488 988.936 144.025 Q986.992 143.562 984.909 143.562 Q981.737 143.562 980.14 144.534 Q978.566 145.506 978.566 147.451 Q978.566 148.932 979.7 149.789 Q980.835 150.622 984.26 151.386 L985.719 151.71 Q990.256 152.682 992.154 154.465 Q994.075 156.224 994.075 159.395 Q994.075 163.006 991.205 165.113 Q988.358 167.219 983.358 167.219 Q981.274 167.219 979.006 166.802 Q976.761 166.409 974.261 165.599 L974.261 161.201 Q976.622 162.427 978.913 163.052 Q981.205 163.654 983.45 163.654 Q986.46 163.654 988.08 162.636 Q989.7 161.594 989.7 159.719 Q989.7 157.983 988.52 157.057 Q987.362 156.131 983.404 155.275 L981.923 154.928 Q977.964 154.094 976.205 152.381 Q974.446 150.645 974.446 147.636 Q974.446 143.978 977.038 141.988 Q979.631 139.997 984.399 139.997 Q986.76 139.997 988.844 140.344 Q990.927 140.691 992.686 141.386 Z" fill="#000000" fill-rule="nonzero" fill-opacity="1" /><path clip-path="url(#clip710)" d="M1000.19 130.576 L1003.89 130.576 Q1007.36 136.039 1009.08 141.27 Q1010.81 146.502 1010.81 151.664 Q1010.81 156.849 1009.08 162.103 Q1007.36 167.358 1003.89 172.798 L1000.19 172.798 Q1003.26 167.497 1004.77 162.265 Q1006.3 157.011 1006.3 151.664 Q1006.3 146.316 1004.77 141.108 Q1003.26 135.9 1000.19 130.576 Z" fill="#000000" fill-rule="nonzero" fill-opacity="1" /><path clip-path="url(#clip710)" d="M342.841 221.844 L483.068 221.844 L483.068 180.372 L342.841 180.372 L342.841 221.844  Z" fill="#e26f46" fill-rule="evenodd" fill-opacity="0.6"/>
<polyline clip-path="url(#clip710)" style="stroke:#e26f46; stroke-linecap:round; stroke-linejoin:round; stroke-width:4; stroke-opacity:0; fill:none" points="342.841,180.372 483.068,180.372 "/>
<path clip-path="url(#clip710)" d="M506.439 183.828 L513.407 183.828 L522.226 207.346 L531.092 183.828 L538.059 183.828 L538.059 218.388 L533.499 218.388 L533.499 188.041 L524.587 211.744 L519.888 211.744 L510.976 188.041 L510.976 218.388 L506.439 218.388 L506.439 183.828 Z" fill="#000000" fill-rule="nonzero" fill-opacity="1" /><path clip-path="url(#clip710)" d="M557.203 195.448 Q553.777 195.448 551.786 198.133 Q549.795 200.795 549.795 205.448 Q549.795 210.101 551.763 212.786 Q553.754 215.448 557.203 215.448 Q560.605 215.448 562.596 212.763 Q564.587 210.078 564.587 205.448 Q564.587 200.842 562.596 198.156 Q560.605 195.448 557.203 195.448 M557.203 191.837 Q562.758 191.837 565.929 195.448 Q569.101 199.059 569.101 205.448 Q569.101 211.814 565.929 215.448 Q562.758 219.059 557.203 219.059 Q551.624 219.059 548.453 215.448 Q545.304 211.814 545.304 205.448 Q545.304 199.059 548.453 195.448 Q551.624 191.837 557.203 191.837 Z" fill="#000000" fill-rule="nonzero" fill-opacity="1" /><path clip-path="url(#clip710)" d="M593.221 196.397 L593.221 182.369 L597.48 182.369 L597.48 218.388 L593.221 218.388 L593.221 214.499 Q591.878 216.814 589.818 217.948 Q587.781 219.059 584.911 219.059 Q580.212 219.059 577.249 215.309 Q574.309 211.559 574.309 205.448 Q574.309 199.337 577.249 195.587 Q580.212 191.837 584.911 191.837 Q587.781 191.837 589.818 192.971 Q591.878 194.082 593.221 196.397 M578.707 205.448 Q578.707 210.147 580.628 212.832 Q582.573 215.494 585.952 215.494 Q589.332 215.494 591.276 212.832 Q593.221 210.147 593.221 205.448 Q593.221 200.749 591.276 198.087 Q589.332 195.402 585.952 195.402 Q582.573 195.402 580.628 198.087 Q578.707 200.749 578.707 205.448 Z" fill="#000000" fill-rule="nonzero" fill-opacity="1" /><path clip-path="url(#clip710)" d="M628.429 204.36 L628.429 206.443 L608.846 206.443 Q609.124 210.842 611.485 213.156 Q613.869 215.448 618.105 215.448 Q620.559 215.448 622.85 214.846 Q625.165 214.244 627.434 213.041 L627.434 217.068 Q625.142 218.041 622.735 218.55 Q620.327 219.059 617.85 219.059 Q611.647 219.059 608.012 215.448 Q604.401 211.837 604.401 205.68 Q604.401 199.314 607.827 195.587 Q611.276 191.837 617.11 191.837 Q622.341 191.837 625.374 195.217 Q628.429 198.573 628.429 204.36 M624.17 203.11 Q624.124 199.615 622.202 197.531 Q620.304 195.448 617.156 195.448 Q613.591 195.448 611.438 197.462 Q609.309 199.476 608.985 203.133 L624.17 203.11 Z" fill="#000000" fill-rule="nonzero" fill-opacity="1" /><path clip-path="url(#clip710)" d="M635.42 182.369 L639.679 182.369 L639.679 218.388 L635.42 218.388 L635.42 182.369 Z" fill="#000000" fill-rule="nonzero" fill-opacity="1" /><path clip-path="url(#clip710)" d="M673.892 182.416 Q670.79 187.74 669.285 192.948 Q667.781 198.156 667.781 203.504 Q667.781 208.851 669.285 214.105 Q670.813 219.337 673.892 224.638 L670.188 224.638 Q666.716 219.198 664.98 213.943 Q663.267 208.689 663.267 203.504 Q663.267 198.342 664.98 193.11 Q666.693 187.879 670.188 182.416 L673.892 182.416 Z" fill="#000000" fill-rule="nonzero" fill-opacity="1" /><path clip-path="url(#clip710)" d="M693.336 199.244 Q690.188 199.244 688.336 201.397 Q686.507 203.55 686.507 207.3 Q686.507 211.027 688.336 213.203 Q690.188 215.355 693.336 215.355 Q696.484 215.355 698.313 213.203 Q700.165 211.027 700.165 207.3 Q700.165 203.55 698.313 201.397 Q696.484 199.244 693.336 199.244 M702.618 184.592 L702.618 188.851 Q700.859 188.018 699.054 187.578 Q697.271 187.138 695.512 187.138 Q690.882 187.138 688.429 190.263 Q685.998 193.388 685.651 199.707 Q687.017 197.693 689.077 196.629 Q691.137 195.541 693.614 195.541 Q698.822 195.541 701.831 198.712 Q704.864 201.86 704.864 207.3 Q704.864 212.624 701.716 215.842 Q698.568 219.059 693.336 219.059 Q687.341 219.059 684.169 214.476 Q680.998 209.869 680.998 201.143 Q680.998 192.948 684.887 188.087 Q688.776 183.203 695.327 183.203 Q697.086 183.203 698.868 183.55 Q700.674 183.897 702.618 184.592 Z" fill="#000000" fill-rule="nonzero" fill-opacity="1" /><path clip-path="url(#clip710)" d="M723.498 199.244 Q720.35 199.244 718.498 201.397 Q716.669 203.55 716.669 207.3 Q716.669 211.027 718.498 213.203 Q720.35 215.355 723.498 215.355 Q726.646 215.355 728.475 213.203 Q730.327 211.027 730.327 207.3 Q730.327 203.55 728.475 201.397 Q726.646 199.244 723.498 199.244 M732.78 184.592 L732.78 188.851 Q731.021 188.018 729.216 187.578 Q727.433 187.138 725.674 187.138 Q721.044 187.138 718.591 190.263 Q716.16 193.388 715.813 199.707 Q717.179 197.693 719.239 196.629 Q721.299 195.541 723.776 195.541 Q728.984 195.541 731.993 198.712 Q735.026 201.86 735.026 207.3 Q735.026 212.624 731.878 215.842 Q728.729 219.059 723.498 219.059 Q717.503 219.059 714.331 214.476 Q711.16 209.869 711.16 201.143 Q711.16 192.948 715.049 188.087 Q718.938 183.203 725.489 183.203 Q727.248 183.203 729.03 183.55 Q730.836 183.897 732.78 184.592 Z" fill="#000000" fill-rule="nonzero" fill-opacity="1" /><path clip-path="url(#clip710)" d="M743.081 212.508 L747.965 212.508 L747.965 218.388 L743.081 218.388 L743.081 212.508 Z" fill="#000000" fill-rule="nonzero" fill-opacity="1" /><path clip-path="url(#clip710)" d="M758.961 214.453 L766.6 214.453 L766.6 188.087 L758.289 189.754 L758.289 185.494 L766.553 183.828 L771.229 183.828 L771.229 214.453 L778.868 214.453 L778.868 218.388 L758.961 218.388 L758.961 214.453 Z" fill="#000000" fill-rule="nonzero" fill-opacity="1" /><path clip-path="url(#clip710)" d="M801.16 187.902 L789.354 206.351 L801.16 206.351 L801.16 187.902 M799.933 183.828 L805.812 183.828 L805.812 206.351 L810.743 206.351 L810.743 210.24 L805.812 210.24 L805.812 218.388 L801.16 218.388 L801.16 210.24 L785.558 210.24 L785.558 205.726 L799.933 183.828 Z" fill="#000000" fill-rule="nonzero" fill-opacity="1" /><path clip-path="url(#clip710)" d="M832.641 199.754 Q835.997 200.471 837.872 202.74 Q839.771 205.008 839.771 208.342 Q839.771 213.457 836.252 216.258 Q832.734 219.059 826.252 219.059 Q824.076 219.059 821.761 218.619 Q819.47 218.203 817.016 217.346 L817.016 212.832 Q818.96 213.967 821.275 214.545 Q823.59 215.124 826.113 215.124 Q830.511 215.124 832.803 213.388 Q835.118 211.652 835.118 208.342 Q835.118 205.286 832.965 203.573 Q830.835 201.837 827.016 201.837 L822.988 201.837 L822.988 197.994 L827.201 197.994 Q830.65 197.994 832.479 196.629 Q834.308 195.24 834.308 192.647 Q834.308 189.985 832.409 188.573 Q830.534 187.138 827.016 187.138 Q825.095 187.138 822.896 187.555 Q820.697 187.971 818.058 188.851 L818.058 184.684 Q820.72 183.944 823.034 183.573 Q825.372 183.203 827.433 183.203 Q832.757 183.203 835.858 185.633 Q838.96 188.041 838.96 192.161 Q838.96 195.031 837.317 197.022 Q835.673 198.99 832.641 199.754 Z" fill="#000000" fill-rule="nonzero" fill-opacity="1" /><path clip-path="url(#clip710)" d="M880.442 188.666 L880.442 201.559 L893.335 201.559 L893.335 205.494 L880.442 205.494 L880.442 218.388 L876.553 218.388 L876.553 205.494 L863.659 205.494 L863.659 201.559 L876.553 201.559 L876.553 188.666 L880.442 188.666 Z" fill="#000000" fill-rule="nonzero" fill-opacity="1" /><path clip-path="url(#clip710)" d="M913.428 186.907 Q909.816 186.907 907.988 190.471 Q906.182 194.013 906.182 201.143 Q906.182 208.249 907.988 211.814 Q909.816 215.355 913.428 215.355 Q917.062 215.355 918.867 211.814 Q920.696 208.249 920.696 201.143 Q920.696 194.013 918.867 190.471 Q917.062 186.907 913.428 186.907 M913.428 183.203 Q919.238 183.203 922.293 187.809 Q925.372 192.393 925.372 201.143 Q925.372 209.869 922.293 214.476 Q919.238 219.059 913.428 219.059 Q907.617 219.059 904.539 214.476 Q901.483 209.869 901.483 201.143 Q901.483 192.393 904.539 187.809 Q907.617 183.203 913.428 183.203 Z" fill="#000000" fill-rule="nonzero" fill-opacity="1" /><path clip-path="url(#clip710)" d="M933.589 212.508 L938.474 212.508 L938.474 218.388 L933.589 218.388 L933.589 212.508 Z" fill="#000000" fill-rule="nonzero" fill-opacity="1" /><path clip-path="url(#clip710)" d="M958.659 186.907 Q955.048 186.907 953.219 190.471 Q951.413 194.013 951.413 201.143 Q951.413 208.249 953.219 211.814 Q955.048 215.355 958.659 215.355 Q962.293 215.355 964.099 211.814 Q965.927 208.249 965.927 201.143 Q965.927 194.013 964.099 190.471 Q962.293 186.907 958.659 186.907 M958.659 183.203 Q964.469 183.203 967.524 187.809 Q970.603 192.393 970.603 201.143 Q970.603 209.869 967.524 214.476 Q964.469 219.059 958.659 219.059 Q952.849 219.059 949.77 214.476 Q946.714 209.869 946.714 201.143 Q946.714 192.393 949.77 187.809 Q952.849 183.203 958.659 183.203 Z" fill="#000000" fill-rule="nonzero" fill-opacity="1" /><path clip-path="url(#clip710)" d="M992.987 199.754 Q996.344 200.471 998.219 202.74 Q1000.12 205.008 1000.12 208.342 Q1000.12 213.457 996.598 216.258 Q993.08 219.059 986.598 219.059 Q984.423 219.059 982.108 218.619 Q979.816 218.203 977.362 217.346 L977.362 212.832 Q979.307 213.967 981.622 214.545 Q983.936 215.124 986.46 215.124 Q990.858 215.124 993.149 213.388 Q995.464 211.652 995.464 208.342 Q995.464 205.286 993.311 203.573 Q991.182 201.837 987.362 201.837 L983.335 201.837 L983.335 197.994 L987.547 197.994 Q990.997 197.994 992.825 196.629 Q994.654 195.24 994.654 192.647 Q994.654 189.985 992.756 188.573 Q990.881 187.138 987.362 187.138 Q985.441 187.138 983.242 187.555 Q981.043 187.971 978.404 188.851 L978.404 184.684 Q981.066 183.944 983.381 183.573 Q985.719 183.203 987.779 183.203 Q993.103 183.203 996.205 185.633 Q999.307 188.041 999.307 192.161 Q999.307 195.031 997.663 197.022 Q996.02 198.99 992.987 199.754 Z" fill="#000000" fill-rule="nonzero" fill-opacity="1" /><path clip-path="url(#clip710)" d="M1023.15 199.754 Q1026.51 200.471 1028.38 202.74 Q1030.28 205.008 1030.28 208.342 Q1030.28 213.457 1026.76 216.258 Q1023.24 219.059 1016.76 219.059 Q1014.58 219.059 1012.27 218.619 Q1009.98 218.203 1007.52 217.346 L1007.52 212.832 Q1009.47 213.967 1011.78 214.545 Q1014.1 215.124 1016.62 215.124 Q1021.02 215.124 1023.31 213.388 Q1025.63 211.652 1025.63 208.342 Q1025.63 205.286 1023.47 203.573 Q1021.34 201.837 1017.52 201.837 L1013.5 201.837 L1013.5 197.994 L1017.71 197.994 Q1021.16 197.994 1022.99 196.629 Q1024.82 195.24 1024.82 192.647 Q1024.82 189.985 1022.92 188.573 Q1021.04 187.138 1017.52 187.138 Q1015.6 187.138 1013.4 187.555 Q1011.2 187.971 1008.57 188.851 L1008.57 184.684 Q1011.23 183.944 1013.54 183.573 Q1015.88 183.203 1017.94 183.203 Q1023.26 183.203 1026.37 185.633 Q1029.47 188.041 1029.47 192.161 Q1029.47 195.031 1027.83 197.022 Q1026.18 198.99 1023.15 199.754 Z" fill="#000000" fill-rule="nonzero" fill-opacity="1" /><path clip-path="url(#clip710)" d="M1046.11 183.828 L1050.05 183.828 L1038.01 222.786 L1034.08 222.786 L1046.11 183.828 Z" fill="#000000" fill-rule="nonzero" fill-opacity="1" /><path clip-path="url(#clip710)" d="M1052.36 203.504 L1064.84 203.504 L1064.84 207.3 L1052.36 207.3 L1052.36 203.504 Z" fill="#000000" fill-rule="nonzero" fill-opacity="1" /><path clip-path="url(#clip710)" d="M1082.22 186.907 Q1078.61 186.907 1076.78 190.471 Q1074.98 194.013 1074.98 201.143 Q1074.98 208.249 1076.78 211.814 Q1078.61 215.355 1082.22 215.355 Q1085.86 215.355 1087.66 211.814 Q1089.49 208.249 1089.49 201.143 Q1089.49 194.013 1087.66 190.471 Q1085.86 186.907 1082.22 186.907 M1082.22 183.203 Q1088.03 183.203 1091.09 187.809 Q1094.17 192.393 1094.17 201.143 Q1094.17 209.869 1091.09 214.476 Q1088.03 219.059 1082.22 219.059 Q1076.41 219.059 1073.33 214.476 Q1070.28 209.869 1070.28 201.143 Q1070.28 192.393 1073.33 187.809 Q1076.41 183.203 1082.22 183.203 Z" fill="#000000" fill-rule="nonzero" fill-opacity="1" /><path clip-path="url(#clip710)" d="M1102.38 212.508 L1107.27 212.508 L1107.27 218.388 L1102.38 218.388 L1102.38 212.508 Z" fill="#000000" fill-rule="nonzero" fill-opacity="1" /><path clip-path="url(#clip710)" d="M1127.45 186.907 Q1123.84 186.907 1122.01 190.471 Q1120.21 194.013 1120.21 201.143 Q1120.21 208.249 1122.01 211.814 Q1123.84 215.355 1127.45 215.355 Q1131.09 215.355 1132.89 211.814 Q1134.72 208.249 1134.72 201.143 Q1134.72 194.013 1132.89 190.471 Q1131.09 186.907 1127.45 186.907 M1127.45 183.203 Q1133.26 183.203 1136.32 187.809 Q1139.4 192.393 1139.4 201.143 Q1139.4 209.869 1136.32 214.476 Q1133.26 219.059 1127.45 219.059 Q1121.64 219.059 1118.57 214.476 Q1115.51 209.869 1115.51 201.143 Q1115.51 192.393 1118.57 187.809 Q1121.64 183.203 1127.45 183.203 Z" fill="#000000" fill-rule="nonzero" fill-opacity="1" /><path clip-path="url(#clip710)" d="M1160.46 187.902 L1148.66 206.351 L1160.46 206.351 L1160.46 187.902 M1159.24 183.828 L1165.12 183.828 L1165.12 206.351 L1170.05 206.351 L1170.05 210.24 L1165.12 210.24 L1165.12 218.388 L1160.46 218.388 L1160.46 210.24 L1144.86 210.24 L1144.86 205.726 L1159.24 183.828 Z" fill="#000000" fill-rule="nonzero" fill-opacity="1" /><path clip-path="url(#clip710)" d="M1176.6 183.828 L1198.82 183.828 L1198.82 185.819 L1186.27 218.388 L1181.39 218.388 L1193.19 187.763 L1176.6 187.763 L1176.6 183.828 Z" fill="#000000" fill-rule="nonzero" fill-opacity="1" /><path clip-path="url(#clip710)" d="M1222.59 183.828 L1229.56 183.828 L1238.38 207.346 L1247.25 183.828 L1254.21 183.828 L1254.21 218.388 L1249.65 218.388 L1249.65 188.041 L1240.74 211.744 L1236.04 211.744 L1227.13 188.041 L1227.13 218.388 L1222.59 218.388 L1222.59 183.828 Z" fill="#000000" fill-rule="nonzero" fill-opacity="1" /><path clip-path="url(#clip710)" d="M1275.09 205.355 Q1269.93 205.355 1267.94 206.536 Q1265.95 207.717 1265.95 210.564 Q1265.95 212.832 1267.43 214.175 Q1268.93 215.494 1271.5 215.494 Q1275.05 215.494 1277.18 212.994 Q1279.33 210.471 1279.33 206.305 L1279.33 205.355 L1275.09 205.355 M1283.59 203.596 L1283.59 218.388 L1279.33 218.388 L1279.33 214.453 Q1277.87 216.814 1275.69 217.948 Q1273.52 219.059 1270.37 219.059 Q1266.39 219.059 1264.03 216.837 Q1261.69 214.592 1261.69 210.842 Q1261.69 206.467 1264.61 204.244 Q1267.55 202.022 1273.36 202.022 L1279.33 202.022 L1279.33 201.606 Q1279.33 198.666 1277.38 197.068 Q1275.46 195.448 1271.97 195.448 Q1269.75 195.448 1267.64 195.981 Q1265.53 196.513 1263.59 197.578 L1263.59 193.643 Q1265.93 192.74 1268.12 192.3 Q1270.32 191.837 1272.41 191.837 Q1278.03 191.837 1280.81 194.754 Q1283.59 197.67 1283.59 203.596 Z" fill="#000000" fill-rule="nonzero" fill-opacity="1" /><path clip-path="url(#clip710)" d="M1291.69 182.416 L1295.39 182.416 Q1298.87 187.879 1300.58 193.11 Q1302.31 198.342 1302.31 203.504 Q1302.31 208.689 1300.58 213.943 Q1298.87 219.198 1295.39 224.638 L1291.69 224.638 Q1294.77 219.337 1296.27 214.105 Q1297.8 208.851 1297.8 203.504 Q1297.8 198.156 1296.27 192.948 Q1294.77 187.74 1291.69 182.416 Z" fill="#000000" fill-rule="nonzero" fill-opacity="1" /></svg>
