<?xml version="1.0" encoding="utf-8"?>
<svg xmlns="http://www.w3.org/2000/svg" xmlns:xlink="http://www.w3.org/1999/xlink" width="600" height="400" viewBox="0 0 2400 1600">
<defs>
  <clipPath id="clip430">
    <rect x="0" y="0" width="2400" height="1600"/>
  </clipPath>
</defs>
<path clip-path="url(#clip430)" d="M0 1600 L2400 1600 L2400 8.88178e-14 L0 8.88178e-14  Z" fill="#ffffff" fill-rule="evenodd" fill-opacity="1"/>
<defs>
  <clipPath id="clip431">
    <rect x="249" y="47" width="2104" height="1507"/>
  </clipPath>
</defs>
<path clip-path="url(#clip430)" d="M249.357 1552.76 L2352.76 1552.76 L2352.76 47.2441 L249.357 47.2441  Z" fill="#ffffff" fill-rule="evenodd" fill-opacity="1"/>
<polyline clip-path="url(#clip431)" style="stroke:#000000; stroke-linecap:round; stroke-linejoin:round; stroke-width:2; stroke-opacity:0.1; fill:none" points="249.357,1288.55 2352.76,1288.55 "/>
<polyline clip-path="url(#clip431)" style="stroke:#000000; stroke-linecap:round; stroke-linejoin:round; stroke-width:2; stroke-opacity:0.1; fill:none" points="249.357,902.04 2352.76,902.04 "/>
<polyline clip-path="url(#clip431)" style="stroke:#000000; stroke-linecap:round; stroke-linejoin:round; stroke-width:2; stroke-opacity:0.1; fill:none" points="249.357,515.53 2352.76,515.53 "/>
<polyline clip-path="url(#clip431)" style="stroke:#000000; stroke-linecap:round; stroke-linejoin:round; stroke-width:2; stroke-opacity:0.1; fill:none" points="249.357,129.02 2352.76,129.02 "/>
<polyline clip-path="url(#clip431)" style="stroke:#000000; stroke-linecap:round; stroke-linejoin:round; stroke-width:2; stroke-opacity:0.1; fill:none" points="249.357,1288.55 2352.76,1288.55 "/>
<polyline clip-path="url(#clip431)" style="stroke:#000000; stroke-linecap:round; stroke-linejoin:round; stroke-width:2; stroke-opacity:0.1; fill:none" points="249.357,902.04 2352.76,902.04 "/>
<polyline clip-path="url(#clip431)" style="stroke:#000000; stroke-linecap:round; stroke-linejoin:round; stroke-width:2; stroke-opacity:0.1; fill:none" points="249.357,515.53 2352.76,515.53 "/>
<polyline clip-path="url(#clip431)" style="stroke:#000000; stroke-linecap:round; stroke-linejoin:round; stroke-width:2; stroke-opacity:0.1; fill:none" points="249.357,129.02 2352.76,129.02 "/>
<polyline clip-path="url(#clip430)" style="stroke:#000000; stroke-linecap:round; stroke-linejoin:round; stroke-width:4; stroke-opacity:1; fill:none" points="249.357,1552.76 2352.76,1552.76 "/>
<polyline clip-path="url(#clip430)" style="stroke:#000000; stroke-linecap:round; stroke-linejoin:round; stroke-width:4; stroke-opacity:1; fill:none" points="249.357,47.2441 2352.76,47.2441 "/>
<polyline clip-path="url(#clip430)" style="stroke:#000000; stroke-linecap:round; stroke-linejoin:round; stroke-width:4; stroke-opacity:1; fill:none" points="249.357,1552.76 249.357,47.2441 "/>
<polyline clip-path="url(#clip430)" style="stroke:#000000; stroke-linecap:round; stroke-linejoin:round; stroke-width:4; stroke-opacity:1; fill:none" points="2352.76,1552.76 2352.76,47.2441 "/>
<polyline clip-path="url(#clip430)" style="stroke:#000000; stroke-linecap:round; stroke-linejoin:round; stroke-width:4; stroke-opacity:1; fill:none" points="249.357,1288.55 268.254,1288.55 "/>
<polyline clip-path="url(#clip430)" style="stroke:#000000; stroke-linecap:round; stroke-linejoin:round; stroke-width:4; stroke-opacity:1; fill:none" points="249.357,902.04 268.254,902.04 "/>
<polyline clip-path="url(#clip430)" style="stroke:#000000; stroke-linecap:round; stroke-linejoin:round; stroke-width:4; stroke-opacity:1; fill:none" points="249.357,515.53 268.254,515.53 "/>
<polyline clip-path="url(#clip430)" style="stroke:#000000; stroke-linecap:round; stroke-linejoin:round; stroke-width:4; stroke-opacity:1; fill:none" points="249.357,129.02 268.254,129.02 "/>
<polyline clip-path="url(#clip430)" style="stroke:#000000; stroke-linecap:round; stroke-linejoin:round; stroke-width:4; stroke-opacity:1; fill:none" points="2352.76,1288.55 2333.86,1288.55 "/>
<polyline clip-path="url(#clip430)" style="stroke:#000000; stroke-linecap:round; stroke-linejoin:round; stroke-width:4; stroke-opacity:1; fill:none" points="2352.76,902.04 2333.86,902.04 "/>
<polyline clip-path="url(#clip430)" style="stroke:#000000; stroke-linecap:round; stroke-linejoin:round; stroke-width:4; stroke-opacity:1; fill:none" points="2352.76,515.53 2333.86,515.53 "/>
<polyline clip-path="url(#clip430)" style="stroke:#000000; stroke-linecap:round; stroke-linejoin:round; stroke-width:4; stroke-opacity:1; fill:none" points="2352.76,129.02 2333.86,129.02 "/>
<path clip-path="url(#clip430)" d="M126.598 1286.69 Q123.45 1286.69 121.598 1288.84 Q119.769 1290.99 119.769 1294.74 Q119.769 1298.47 121.598 1300.65 Q123.45 1302.8 126.598 1302.8 Q129.746 1302.8 131.575 1300.65 Q133.427 1298.47 133.427 1294.74 Q133.427 1290.99 131.575 1288.84 Q129.746 1286.69 126.598 1286.69 M135.88 1272.03 L135.88 1276.29 Q134.121 1275.46 132.316 1275.02 Q130.533 1274.58 128.774 1274.58 Q124.144 1274.58 121.691 1277.71 Q119.26 1280.83 118.913 1287.15 Q120.279 1285.14 122.339 1284.07 Q124.399 1282.98 126.876 1282.98 Q132.084 1282.98 135.093 1286.15 Q138.126 1289.3 138.126 1294.74 Q138.126 1300.07 134.978 1303.28 Q131.83 1306.5 126.598 1306.5 Q120.603 1306.5 117.431 1301.92 Q114.26 1297.31 114.26 1288.59 Q114.26 1280.39 118.149 1275.53 Q122.038 1270.65 128.589 1270.65 Q130.348 1270.65 132.13 1270.99 Q133.936 1271.34 135.88 1272.03 Z" fill="#000000" fill-rule="nonzero" fill-opacity="1" /><path clip-path="url(#clip430)" d="M156.76 1286.69 Q153.612 1286.69 151.76 1288.84 Q149.931 1290.99 149.931 1294.74 Q149.931 1298.47 151.76 1300.65 Q153.612 1302.8 156.76 1302.8 Q159.908 1302.8 161.737 1300.65 Q163.589 1298.47 163.589 1294.74 Q163.589 1290.99 161.737 1288.84 Q159.908 1286.69 156.76 1286.69 M166.042 1272.03 L166.042 1276.29 Q164.283 1275.46 162.477 1275.02 Q160.695 1274.58 158.936 1274.58 Q154.306 1274.58 151.853 1277.71 Q149.422 1280.83 149.075 1287.15 Q150.441 1285.14 152.501 1284.07 Q154.561 1282.98 157.038 1282.98 Q162.246 1282.98 165.255 1286.15 Q168.288 1289.3 168.288 1294.74 Q168.288 1300.07 165.14 1303.28 Q161.991 1306.5 156.76 1306.5 Q150.765 1306.5 147.593 1301.92 Q144.422 1297.31 144.422 1288.59 Q144.422 1280.39 148.311 1275.53 Q152.2 1270.65 158.751 1270.65 Q160.51 1270.65 162.292 1270.99 Q164.098 1271.34 166.042 1272.03 Z" fill="#000000" fill-rule="nonzero" fill-opacity="1" /><path clip-path="url(#clip430)" d="M176.343 1299.95 L181.227 1299.95 L181.227 1305.83 L176.343 1305.83 L176.343 1299.95 Z" fill="#000000" fill-rule="nonzero" fill-opacity="1" /><path clip-path="url(#clip430)" d="M201.412 1274.35 Q197.801 1274.35 195.973 1277.91 Q194.167 1281.46 194.167 1288.59 Q194.167 1295.69 195.973 1299.26 Q197.801 1302.8 201.412 1302.8 Q205.047 1302.8 206.852 1299.26 Q208.681 1295.69 208.681 1288.59 Q208.681 1281.46 206.852 1277.91 Q205.047 1274.35 201.412 1274.35 M201.412 1270.65 Q207.223 1270.65 210.278 1275.25 Q213.357 1279.84 213.357 1288.59 Q213.357 1297.31 210.278 1301.92 Q207.223 1306.5 201.412 1306.5 Q195.602 1306.5 192.524 1301.92 Q189.468 1297.31 189.468 1288.59 Q189.468 1279.84 192.524 1275.25 Q195.602 1270.65 201.412 1270.65 Z" fill="#000000" fill-rule="nonzero" fill-opacity="1" /><path clip-path="url(#clip430)" d="M127.593 900.177 Q124.445 900.177 122.593 902.33 Q120.765 904.483 120.765 908.233 Q120.765 911.959 122.593 914.135 Q124.445 916.288 127.593 916.288 Q130.742 916.288 132.57 914.135 Q134.422 911.959 134.422 908.233 Q134.422 904.483 132.57 902.33 Q130.742 900.177 127.593 900.177 M136.876 885.524 L136.876 889.784 Q135.117 888.95 133.311 888.51 Q131.529 888.071 129.769 888.071 Q125.14 888.071 122.686 891.196 Q120.255 894.321 119.908 900.64 Q121.274 898.626 123.334 897.561 Q125.394 896.473 127.871 896.473 Q133.08 896.473 136.089 899.645 Q139.121 902.793 139.121 908.233 Q139.121 913.557 135.973 916.774 Q132.825 919.992 127.593 919.992 Q121.598 919.992 118.427 915.408 Q115.256 910.802 115.256 902.075 Q115.256 893.881 119.144 889.02 Q123.033 884.135 129.584 884.135 Q131.343 884.135 133.126 884.483 Q134.931 884.83 136.876 885.524 Z" fill="#000000" fill-rule="nonzero" fill-opacity="1" /><path clip-path="url(#clip430)" d="M157.755 900.177 Q154.607 900.177 152.755 902.33 Q150.927 904.483 150.927 908.233 Q150.927 911.959 152.755 914.135 Q154.607 916.288 157.755 916.288 Q160.903 916.288 162.732 914.135 Q164.584 911.959 164.584 908.233 Q164.584 904.483 162.732 902.33 Q160.903 900.177 157.755 900.177 M167.038 885.524 L167.038 889.784 Q165.278 888.95 163.473 888.51 Q161.69 888.071 159.931 888.071 Q155.302 888.071 152.848 891.196 Q150.417 894.321 150.07 900.64 Q151.436 898.626 153.496 897.561 Q155.556 896.473 158.033 896.473 Q163.241 896.473 166.251 899.645 Q169.283 902.793 169.283 908.233 Q169.283 913.557 166.135 916.774 Q162.987 919.992 157.755 919.992 Q151.76 919.992 148.589 915.408 Q145.417 910.802 145.417 902.075 Q145.417 893.881 149.306 889.02 Q153.195 884.135 159.746 884.135 Q161.505 884.135 163.288 884.483 Q165.093 884.83 167.038 885.524 Z" fill="#000000" fill-rule="nonzero" fill-opacity="1" /><path clip-path="url(#clip430)" d="M177.339 913.441 L182.223 913.441 L182.223 919.32 L177.339 919.32 L177.339 913.441 Z" fill="#000000" fill-rule="nonzero" fill-opacity="1" /><path clip-path="url(#clip430)" d="M192.454 884.76 L210.811 884.76 L210.811 888.696 L196.737 888.696 L196.737 897.168 Q197.755 896.821 198.774 896.659 Q199.792 896.473 200.811 896.473 Q206.598 896.473 209.977 899.645 Q213.357 902.816 213.357 908.233 Q213.357 913.811 209.885 916.913 Q206.412 919.992 200.093 919.992 Q197.917 919.992 195.649 919.621 Q193.403 919.251 190.996 918.51 L190.996 913.811 Q193.079 914.945 195.301 915.501 Q197.524 916.057 200 916.057 Q204.005 916.057 206.343 913.95 Q208.681 911.844 208.681 908.233 Q208.681 904.621 206.343 902.515 Q204.005 900.409 200 900.409 Q198.125 900.409 196.25 900.825 Q194.399 901.242 192.454 902.121 L192.454 884.76 Z" fill="#000000" fill-rule="nonzero" fill-opacity="1" /><path clip-path="url(#clip430)" d="M126.598 513.667 Q123.45 513.667 121.598 515.82 Q119.769 517.973 119.769 521.722 Q119.769 525.449 121.598 527.625 Q123.45 529.778 126.598 529.778 Q129.746 529.778 131.575 527.625 Q133.427 525.449 133.427 521.722 Q133.427 517.973 131.575 515.82 Q129.746 513.667 126.598 513.667 M135.88 499.014 L135.88 503.274 Q134.121 502.44 132.316 502 Q130.533 501.561 128.774 501.561 Q124.144 501.561 121.691 504.686 Q119.26 507.811 118.913 514.13 Q120.279 512.116 122.339 511.051 Q124.399 509.963 126.876 509.963 Q132.084 509.963 135.093 513.135 Q138.126 516.283 138.126 521.722 Q138.126 527.047 134.978 530.264 Q131.83 533.482 126.598 533.482 Q120.603 533.482 117.431 528.898 Q114.26 524.292 114.26 515.565 Q114.26 507.371 118.149 502.51 Q122.038 497.625 128.589 497.625 Q130.348 497.625 132.13 497.973 Q133.936 498.32 135.88 499.014 Z" fill="#000000" fill-rule="nonzero" fill-opacity="1" /><path clip-path="url(#clip430)" d="M145.001 498.25 L167.223 498.25 L167.223 500.241 L154.677 532.81 L149.792 532.81 L161.598 502.186 L145.001 502.186 L145.001 498.25 Z" fill="#000000" fill-rule="nonzero" fill-opacity="1" /><path clip-path="url(#clip430)" d="M176.343 526.931 L181.227 526.931 L181.227 532.81 L176.343 532.81 L176.343 526.931 Z" fill="#000000" fill-rule="nonzero" fill-opacity="1" /><path clip-path="url(#clip430)" d="M201.412 501.329 Q197.801 501.329 195.973 504.894 Q194.167 508.436 194.167 515.565 Q194.167 522.672 195.973 526.236 Q197.801 529.778 201.412 529.778 Q205.047 529.778 206.852 526.236 Q208.681 522.672 208.681 515.565 Q208.681 508.436 206.852 504.894 Q205.047 501.329 201.412 501.329 M201.412 497.625 Q207.223 497.625 210.278 502.232 Q213.357 506.815 213.357 515.565 Q213.357 524.292 210.278 528.898 Q207.223 533.482 201.412 533.482 Q195.602 533.482 192.524 528.898 Q189.468 524.292 189.468 515.565 Q189.468 506.815 192.524 502.232 Q195.602 497.625 201.412 497.625 Z" fill="#000000" fill-rule="nonzero" fill-opacity="1" /><path clip-path="url(#clip430)" d="M127.593 127.157 Q124.445 127.157 122.593 129.31 Q120.765 131.462 120.765 135.212 Q120.765 138.939 122.593 141.115 Q124.445 143.268 127.593 143.268 Q130.742 143.268 132.57 141.115 Q134.422 138.939 134.422 135.212 Q134.422 131.462 132.57 129.31 Q130.742 127.157 127.593 127.157 M136.876 112.504 L136.876 116.763 Q135.117 115.93 133.311 115.49 Q131.529 115.051 129.769 115.051 Q125.14 115.051 122.686 118.175 Q120.255 121.3 119.908 127.62 Q121.274 125.606 123.334 124.541 Q125.394 123.453 127.871 123.453 Q133.08 123.453 136.089 126.625 Q139.121 129.773 139.121 135.212 Q139.121 140.536 135.973 143.754 Q132.825 146.972 127.593 146.972 Q121.598 146.972 118.427 142.388 Q115.256 137.782 115.256 129.055 Q115.256 120.861 119.144 116 Q123.033 111.115 129.584 111.115 Q131.343 111.115 133.126 111.463 Q134.931 111.81 136.876 112.504 Z" fill="#000000" fill-rule="nonzero" fill-opacity="1" /><path clip-path="url(#clip430)" d="M145.996 111.74 L168.218 111.74 L168.218 113.731 L155.672 146.3 L150.788 146.3 L162.593 115.676 L145.996 115.676 L145.996 111.74 Z" fill="#000000" fill-rule="nonzero" fill-opacity="1" /><path clip-path="url(#clip430)" d="M177.339 140.421 L182.223 140.421 L182.223 146.3 L177.339 146.3 L177.339 140.421 Z" fill="#000000" fill-rule="nonzero" fill-opacity="1" /><path clip-path="url(#clip430)" d="M192.454 111.74 L210.811 111.74 L210.811 115.676 L196.737 115.676 L196.737 124.148 Q197.755 123.8 198.774 123.638 Q199.792 123.453 200.811 123.453 Q206.598 123.453 209.977 126.625 Q213.357 129.796 213.357 135.212 Q213.357 140.791 209.885 143.893 Q206.412 146.972 200.093 146.972 Q197.917 146.972 195.649 146.601 Q193.403 146.231 190.996 145.49 L190.996 140.791 Q193.079 141.925 195.301 142.481 Q197.524 143.036 200 143.036 Q204.005 143.036 206.343 140.93 Q208.681 138.824 208.681 135.212 Q208.681 131.601 206.343 129.495 Q204.005 127.388 200 127.388 Q198.125 127.388 196.25 127.805 Q194.399 128.222 192.454 129.101 L192.454 111.74 Z" fill="#000000" fill-rule="nonzero" fill-opacity="1" /><path clip-path="url(#clip430)" d="M22.818 922.094 L46.4666 930.815 L46.4666 913.341 L22.818 922.094 M16.4842 925.723 L16.4842 918.434 L64.0042 900.324 L64.0042 907.008 L51.8138 911.336 L51.8138 932.757 L64.0042 937.085 L64.0042 943.865 L16.4842 925.723 Z" fill="#000000" fill-rule="nonzero" fill-opacity="1" /><path clip-path="url(#clip430)" d="M45.7664 870.182 Q39.4007 870.182 35.8996 872.824 Q32.3984 875.434 32.3984 880.176 Q32.3984 884.887 35.8996 887.528 Q39.4007 890.138 45.7664 890.138 Q52.1003 890.138 55.6014 887.528 Q59.1026 884.887 59.1026 880.176 Q59.1026 875.434 55.6014 872.824 Q52.1003 870.182 45.7664 870.182 M59.58 864.325 Q68.683 864.325 73.1071 868.368 Q77.5631 872.41 77.5631 880.749 Q77.5631 883.836 77.0857 886.574 Q76.6401 889.311 75.6852 891.889 L69.9879 891.889 Q71.3884 889.311 72.0568 886.796 Q72.7252 884.282 72.7252 881.672 Q72.7252 875.911 69.7015 873.046 Q66.7096 870.182 60.6303 870.182 L57.7339 870.182 Q60.885 871.996 62.4446 874.829 Q64.0042 877.662 64.0042 881.608 Q64.0042 888.165 59.0071 892.175 Q54.01 896.186 45.7664 896.186 Q37.491 896.186 32.4939 892.175 Q27.4968 888.165 27.4968 881.608 Q27.4968 877.662 29.0564 874.829 Q30.616 871.996 33.7671 870.182 L28.3562 870.182 L28.3562 864.325 L59.58 864.325 Z" fill="#000000" fill-rule="nonzero" fill-opacity="1" /><path clip-path="url(#clip430)" d="M44.7161 821.771 L47.5806 821.771 L47.5806 848.698 Q53.6281 848.316 56.8109 845.069 Q59.9619 841.791 59.9619 835.966 Q59.9619 832.592 59.1344 829.441 Q58.3069 826.259 56.6518 823.139 L62.1899 823.139 Q63.5267 826.29 64.227 829.601 Q64.9272 832.911 64.9272 836.316 Q64.9272 844.846 59.9619 849.843 Q54.9967 854.809 46.5303 854.809 Q37.7774 854.809 32.6531 850.098 Q27.4968 845.356 27.4968 837.335 Q27.4968 830.142 32.1438 825.972 Q36.7589 821.771 44.7161 821.771 M42.9973 827.627 Q38.1912 827.691 35.3266 830.333 Q32.4621 832.943 32.4621 837.271 Q32.4621 842.173 35.2312 845.133 Q38.0002 848.061 43.0292 848.507 L42.9973 827.627 Z" fill="#000000" fill-rule="nonzero" fill-opacity="1" /><path clip-path="url(#clip430)" d="M14.5426 777.37 Q21.8632 781.635 29.0246 783.704 Q36.186 785.773 43.5384 785.773 Q50.8908 785.773 58.1159 783.704 Q65.3091 781.603 72.5979 777.37 L72.5979 782.462 Q65.1182 787.237 57.8931 789.624 Q50.668 791.979 43.5384 791.979 Q36.4406 791.979 29.2474 789.624 Q22.0542 787.269 14.5426 782.462 L14.5426 777.37 Z" fill="#000000" fill-rule="nonzero" fill-opacity="1" /><path clip-path="url(#clip430)" d="M16.4842 765.752 L16.4842 756.172 L48.8219 744.045 L16.4842 731.855 L16.4842 722.275 L64.0042 722.275 L64.0042 728.545 L22.277 728.545 L54.8694 740.799 L54.8694 747.26 L22.277 759.514 L64.0042 759.514 L64.0042 765.752 L16.4842 765.752 Z" fill="#000000" fill-rule="nonzero" fill-opacity="1" /><path clip-path="url(#clip430)" d="M46.0847 693.565 Q46.0847 700.663 47.7079 703.4 Q49.3312 706.138 53.2461 706.138 Q56.3653 706.138 58.2114 704.101 Q60.0256 702.032 60.0256 698.499 Q60.0256 693.629 56.5881 690.701 Q53.1188 687.741 47.3897 687.741 L46.0847 687.741 L46.0847 693.565 M43.6657 681.884 L64.0042 681.884 L64.0042 687.741 L58.5933 687.741 Q61.8398 689.746 63.3994 692.738 Q64.9272 695.73 64.9272 700.058 Q64.9272 705.533 61.8716 708.779 Q58.7843 711.994 53.6281 711.994 Q47.6125 711.994 44.5569 707.984 Q41.5014 703.941 41.5014 695.953 L41.5014 687.741 L40.9285 687.741 Q36.8862 687.741 34.6901 690.414 Q32.4621 693.056 32.4621 697.862 Q32.4621 700.918 33.1941 703.814 Q33.9262 706.711 35.3903 709.384 L29.9795 709.384 Q28.7381 706.169 28.1334 703.146 Q27.4968 700.122 27.4968 697.257 Q27.4968 689.523 31.5072 685.704 Q35.5176 681.884 43.6657 681.884 Z" fill="#000000" fill-rule="nonzero" fill-opacity="1" /><path clip-path="url(#clip430)" d="M14.5426 670.744 L14.5426 665.652 Q22.0542 660.877 29.2474 658.522 Q36.4406 656.135 43.5384 656.135 Q50.668 656.135 57.8931 658.522 Q65.1182 660.877 72.5979 665.652 L72.5979 670.744 Q65.3091 666.511 58.1159 664.442 Q50.8908 662.342 43.5384 662.342 Q36.186 662.342 29.0246 664.442 Q21.8632 666.511 14.5426 670.744 Z" fill="#000000" fill-rule="nonzero" fill-opacity="1" /><polyline clip-path="url(#clip431)" style="stroke:#009af9; stroke-linecap:round; stroke-linejoin:round; stroke-width:4; stroke-opacity:1; fill:none" points="308.887,1412.29 308.887,757.236 "/>
<polyline clip-path="url(#clip431)" style="stroke:#009af9; stroke-linecap:round; stroke-linejoin:round; stroke-width:4; stroke-opacity:1; fill:none" points="2293.23,551.5 2293.23,89.8529 "/>
<line clip-path="url(#clip431)" x1="324.887" y1="1412.29" x2="292.887" y2="1412.29" style="stroke:#009af9; stroke-width:4; stroke-opacity:1"/>
<line clip-path="url(#clip431)" x1="324.887" y1="757.236" x2="292.887" y2="757.236" style="stroke:#009af9; stroke-width:4; stroke-opacity:1"/>
<line clip-path="url(#clip431)" x1="2309.23" y1="551.5" x2="2277.23" y2="551.5" style="stroke:#009af9; stroke-width:4; stroke-opacity:1"/>
<line clip-path="url(#clip431)" x1="2309.23" y1="89.8529" x2="2277.23" y2="89.8529" style="stroke:#009af9; stroke-width:4; stroke-opacity:1"/>
<circle clip-path="url(#clip431)" cx="308.887" cy="1084.76" r="14.4" fill="#009af9" fill-rule="evenodd" fill-opacity="1" stroke="none"/>
<circle clip-path="url(#clip431)" cx="2293.23" cy="320.677" r="14.4" fill="#009af9" fill-rule="evenodd" fill-opacity="1" stroke="none"/>
<path clip-path="url(#clip431)" d="M308.887 1510.15 L2293.23 1510.15 L2293.23 814.405 L308.887 814.405  Z" fill="#e26f46" fill-rule="evenodd" fill-opacity="0.6"/>
<polyline clip-path="url(#clip431)" style="stroke:#e26f46; stroke-linecap:round; stroke-linejoin:round; stroke-width:4; stroke-opacity:0; fill:none" points="308.887,1510.15 2293.23,1510.15 "/>
<polyline clip-path="url(#clip431)" style="stroke:#000000; stroke-linecap:round; stroke-linejoin:round; stroke-width:4; stroke-opacity:1; fill:none" stroke-dasharray="2, 4" points="308.887,1111.61 2293.23,1111.61 "/>
<path clip-path="url(#clip430)" d="M319.47 252.948 L1325.69 252.948 L1325.69 97.4278 L319.47 97.4278  Z" fill="#ffffff" fill-rule="evenodd" fill-opacity="1"/>
<polyline clip-path="url(#clip430)" style="stroke:#ffffff; stroke-linecap:round; stroke-linejoin:round; stroke-width:4; stroke-opacity:1; fill:none" points="319.47,252.948 1325.69,252.948 1325.69,97.4278 319.47,97.4278 319.47,252.948 "/>
<circle clip-path="url(#clip430)" cx="412.955" cy="149.268" r="20.48" fill="#009af9" fill-rule="evenodd" fill-opacity="1" stroke="none"/>
<path clip-path="url(#clip430)" d="M511.115 135.83 L511.115 162.705 L516.763 162.705 Q523.916 162.705 527.226 159.465 Q530.559 156.224 530.559 149.233 Q530.559 142.289 527.226 139.071 Q523.916 135.83 516.763 135.83 L511.115 135.83 M506.439 131.988 L516.045 131.988 Q526.092 131.988 530.791 136.178 Q535.49 140.344 535.49 149.233 Q535.49 158.168 530.768 162.358 Q526.045 166.548 516.045 166.548 L506.439 166.548 L506.439 131.988 Z" fill="#000000" fill-rule="nonzero" fill-opacity="1" /><path clip-path="url(#clip430)" d="M554.541 153.515 Q549.379 153.515 547.388 154.696 Q545.397 155.877 545.397 158.724 Q545.397 160.992 546.879 162.335 Q548.383 163.654 550.953 163.654 Q554.494 163.654 556.624 161.154 Q558.777 158.631 558.777 154.465 L558.777 153.515 L554.541 153.515 M563.036 151.756 L563.036 166.548 L558.777 166.548 L558.777 162.613 Q557.318 164.974 555.142 166.108 Q552.966 167.219 549.818 167.219 Q545.837 167.219 543.476 164.997 Q541.138 162.752 541.138 159.002 Q541.138 154.627 544.054 152.404 Q546.994 150.182 552.804 150.182 L558.777 150.182 L558.777 149.766 Q558.777 146.826 556.832 145.228 Q554.911 143.608 551.416 143.608 Q549.193 143.608 547.087 144.141 Q544.98 144.673 543.036 145.738 L543.036 141.803 Q545.374 140.9 547.573 140.46 Q549.772 139.997 551.855 139.997 Q557.48 139.997 560.258 142.914 Q563.036 145.83 563.036 151.756 Z" fill="#000000" fill-rule="nonzero" fill-opacity="1" /><path clip-path="url(#clip430)" d="M576.022 133.261 L576.022 140.622 L584.795 140.622 L584.795 143.932 L576.022 143.932 L576.022 158.006 Q576.022 161.177 576.878 162.08 Q577.758 162.983 580.42 162.983 L584.795 162.983 L584.795 166.548 L580.42 166.548 Q575.49 166.548 573.615 164.719 Q571.74 162.867 571.74 158.006 L571.74 143.932 L568.615 143.932 L568.615 140.622 L571.74 140.622 L571.74 133.261 L576.022 133.261 Z" fill="#000000" fill-rule="nonzero" fill-opacity="1" /><path clip-path="url(#clip430)" d="M602.179 153.515 Q597.017 153.515 595.026 154.696 Q593.036 155.877 593.036 158.724 Q593.036 160.992 594.517 162.335 Q596.022 163.654 598.591 163.654 Q602.133 163.654 604.263 161.154 Q606.415 158.631 606.415 154.465 L606.415 153.515 L602.179 153.515 M610.675 151.756 L610.675 166.548 L606.415 166.548 L606.415 162.613 Q604.957 164.974 602.781 166.108 Q600.605 167.219 597.457 167.219 Q593.476 167.219 591.114 164.997 Q588.776 162.752 588.776 159.002 Q588.776 154.627 591.693 152.404 Q594.633 150.182 600.443 150.182 L606.415 150.182 L606.415 149.766 Q606.415 146.826 604.471 145.228 Q602.55 143.608 599.054 143.608 Q596.832 143.608 594.726 144.141 Q592.619 144.673 590.675 145.738 L590.675 141.803 Q593.013 140.9 595.212 140.46 Q597.411 139.997 599.494 139.997 Q605.119 139.997 607.897 142.914 Q610.675 145.83 610.675 151.756 Z" fill="#000000" fill-rule="nonzero" fill-opacity="1" /><path clip-path="url(#clip430)" d="M644.748 130.576 Q641.647 135.9 640.142 141.108 Q638.637 146.316 638.637 151.664 Q638.637 157.011 640.142 162.265 Q641.67 167.497 644.748 172.798 L641.045 172.798 Q637.573 167.358 635.836 162.103 Q634.123 156.849 634.123 151.664 Q634.123 146.502 635.836 141.27 Q637.549 136.039 641.045 130.576 L644.748 130.576 Z" fill="#000000" fill-rule="nonzero" fill-opacity="1" /><path clip-path="url(#clip430)" d="M663.058 143.608 Q659.633 143.608 657.642 146.293 Q655.651 148.955 655.651 153.608 Q655.651 158.261 657.619 160.946 Q659.609 163.608 663.058 163.608 Q666.461 163.608 668.452 160.923 Q670.443 158.238 670.443 153.608 Q670.443 149.002 668.452 146.316 Q666.461 143.608 663.058 143.608 M663.058 139.997 Q668.614 139.997 671.785 143.608 Q674.957 147.219 674.957 153.608 Q674.957 159.974 671.785 163.608 Q668.614 167.219 663.058 167.219 Q657.48 167.219 654.309 163.608 Q651.16 159.974 651.16 153.608 Q651.16 147.219 654.309 143.608 Q657.48 139.997 663.058 139.997 Z" fill="#000000" fill-rule="nonzero" fill-opacity="1" /><path clip-path="url(#clip430)" d="M700.628 153.608 Q700.628 148.909 698.683 146.247 Q696.762 143.562 693.382 143.562 Q690.003 143.562 688.058 146.247 Q686.137 148.909 686.137 153.608 Q686.137 158.307 688.058 160.992 Q690.003 163.654 693.382 163.654 Q696.762 163.654 698.683 160.992 Q700.628 158.307 700.628 153.608 M686.137 144.557 Q687.48 142.242 689.517 141.131 Q691.577 139.997 694.424 139.997 Q699.146 139.997 702.086 143.747 Q705.049 147.497 705.049 153.608 Q705.049 159.719 702.086 163.469 Q699.146 167.219 694.424 167.219 Q691.577 167.219 689.517 166.108 Q687.48 164.974 686.137 162.659 L686.137 166.548 L681.855 166.548 L681.855 130.529 L686.137 130.529 L686.137 144.557 Z" fill="#000000" fill-rule="nonzero" fill-opacity="1" /><path clip-path="url(#clip430)" d="M728.637 141.386 L728.637 145.414 Q726.831 144.488 724.887 144.025 Q722.942 143.562 720.859 143.562 Q717.688 143.562 716.091 144.534 Q714.517 145.506 714.517 147.451 Q714.517 148.932 715.651 149.789 Q716.785 150.622 720.211 151.386 L721.669 151.71 Q726.206 152.682 728.104 154.465 Q730.026 156.224 730.026 159.395 Q730.026 163.006 727.155 165.113 Q724.308 167.219 719.308 167.219 Q717.225 167.219 714.956 166.802 Q712.711 166.409 710.211 165.599 L710.211 161.201 Q712.572 162.427 714.864 163.052 Q717.155 163.654 719.401 163.654 Q722.41 163.654 724.03 162.636 Q725.651 161.594 725.651 159.719 Q725.651 157.983 724.47 157.057 Q723.313 156.131 719.354 155.275 L717.873 154.928 Q713.915 154.094 712.155 152.381 Q710.396 150.645 710.396 147.636 Q710.396 143.978 712.989 141.988 Q715.581 139.997 720.35 139.997 Q722.711 139.997 724.794 140.344 Q726.878 140.691 728.637 141.386 Z" fill="#000000" fill-rule="nonzero" fill-opacity="1" /><path clip-path="url(#clip430)" d="M758.984 152.52 L758.984 154.603 L739.401 154.603 Q739.678 159.002 742.04 161.316 Q744.424 163.608 748.66 163.608 Q751.114 163.608 753.405 163.006 Q755.72 162.404 757.989 161.201 L757.989 165.228 Q755.697 166.201 753.289 166.71 Q750.882 167.219 748.405 167.219 Q742.202 167.219 738.567 163.608 Q734.956 159.997 734.956 153.84 Q734.956 147.474 738.382 143.747 Q741.831 139.997 747.665 139.997 Q752.896 139.997 755.928 143.377 Q758.984 146.733 758.984 152.52 M754.725 151.27 Q754.678 147.775 752.757 145.691 Q750.859 143.608 747.711 143.608 Q744.146 143.608 741.993 145.622 Q739.864 147.636 739.54 151.293 L754.725 151.27 Z" fill="#000000" fill-rule="nonzero" fill-opacity="1" /><path clip-path="url(#clip430)" d="M780.998 144.603 Q780.28 144.187 779.424 144.002 Q778.59 143.793 777.572 143.793 Q773.961 143.793 772.016 146.154 Q770.095 148.492 770.095 152.89 L770.095 166.548 L765.813 166.548 L765.813 140.622 L770.095 140.622 L770.095 144.65 Q771.438 142.289 773.59 141.154 Q775.743 139.997 778.822 139.997 Q779.262 139.997 779.794 140.066 Q780.326 140.113 780.975 140.229 L780.998 144.603 Z" fill="#000000" fill-rule="nonzero" fill-opacity="1" /><path clip-path="url(#clip430)" d="M782.41 140.622 L786.924 140.622 L795.025 162.381 L803.127 140.622 L807.641 140.622 L797.919 166.548 L792.132 166.548 L782.41 140.622 Z" fill="#000000" fill-rule="nonzero" fill-opacity="1" /><path clip-path="url(#clip430)" d="M835.696 152.52 L835.696 154.603 L816.113 154.603 Q816.391 159.002 818.752 161.316 Q821.136 163.608 825.372 163.608 Q827.826 163.608 830.118 163.006 Q832.433 162.404 834.701 161.201 L834.701 165.228 Q832.409 166.201 830.002 166.71 Q827.595 167.219 825.118 167.219 Q818.914 167.219 815.28 163.608 Q811.669 159.997 811.669 153.84 Q811.669 147.474 815.095 143.747 Q818.544 139.997 824.377 139.997 Q829.609 139.997 832.641 143.377 Q835.696 146.733 835.696 152.52 M831.437 151.27 Q831.391 147.775 829.47 145.691 Q827.571 143.608 824.423 143.608 Q820.859 143.608 818.706 145.622 Q816.576 147.636 816.252 151.293 L831.437 151.27 Z" fill="#000000" fill-rule="nonzero" fill-opacity="1" /><path clip-path="url(#clip430)" d="M859.747 144.557 L859.747 130.529 L864.006 130.529 L864.006 166.548 L859.747 166.548 L859.747 162.659 Q858.405 164.974 856.344 166.108 Q854.307 167.219 851.437 167.219 Q846.738 167.219 843.775 163.469 Q840.835 159.719 840.835 153.608 Q840.835 147.497 843.775 143.747 Q846.738 139.997 851.437 139.997 Q854.307 139.997 856.344 141.131 Q858.405 142.242 859.747 144.557 M845.233 153.608 Q845.233 158.307 847.155 160.992 Q849.099 163.654 852.479 163.654 Q855.858 163.654 857.803 160.992 Q859.747 158.307 859.747 153.608 Q859.747 148.909 857.803 146.247 Q855.858 143.562 852.479 143.562 Q849.099 143.562 847.155 146.247 Q845.233 148.909 845.233 153.608 Z" fill="#000000" fill-rule="nonzero" fill-opacity="1" /><path clip-path="url(#clip430)" d="M899.631 153.515 Q894.469 153.515 892.479 154.696 Q890.488 155.877 890.488 158.724 Q890.488 160.992 891.969 162.335 Q893.474 163.654 896.043 163.654 Q899.585 163.654 901.715 161.154 Q903.867 158.631 903.867 154.465 L903.867 153.515 L899.631 153.515 M908.127 151.756 L908.127 166.548 L903.867 166.548 L903.867 162.613 Q902.409 164.974 900.233 166.108 Q898.057 167.219 894.909 167.219 Q890.928 167.219 888.567 164.997 Q886.229 162.752 886.229 159.002 Q886.229 154.627 889.145 152.404 Q892.085 150.182 897.895 150.182 L903.867 150.182 L903.867 149.766 Q903.867 146.826 901.923 145.228 Q900.002 143.608 896.506 143.608 Q894.284 143.608 892.178 144.141 Q890.071 144.673 888.127 145.738 L888.127 141.803 Q890.465 140.9 892.664 140.46 Q894.863 139.997 896.946 139.997 Q902.571 139.997 905.349 142.914 Q908.127 145.83 908.127 151.756 Z" fill="#000000" fill-rule="nonzero" fill-opacity="1" /><path clip-path="url(#clip430)" d="M933.96 153.284 Q933.96 148.654 932.039 146.108 Q930.14 143.562 926.691 143.562 Q923.265 143.562 921.344 146.108 Q919.446 148.654 919.446 153.284 Q919.446 157.89 921.344 160.437 Q923.265 162.983 926.691 162.983 Q930.14 162.983 932.039 160.437 Q933.96 157.89 933.96 153.284 M938.219 163.33 Q938.219 169.951 935.279 173.168 Q932.339 176.409 926.275 176.409 Q924.029 176.409 922.039 176.062 Q920.048 175.738 918.173 175.043 L918.173 170.9 Q920.048 171.918 921.877 172.404 Q923.705 172.89 925.603 172.89 Q929.793 172.89 931.876 170.691 Q933.96 168.515 933.96 164.094 L933.96 161.988 Q932.64 164.279 930.58 165.414 Q928.52 166.548 925.65 166.548 Q920.881 166.548 917.965 162.914 Q915.048 159.279 915.048 153.284 Q915.048 147.266 917.965 143.631 Q920.881 139.997 925.65 139.997 Q928.52 139.997 930.58 141.131 Q932.64 142.266 933.96 144.557 L933.96 140.622 L938.219 140.622 L938.219 163.33 Z" fill="#000000" fill-rule="nonzero" fill-opacity="1" /><path clip-path="url(#clip430)" d="M969.168 152.52 L969.168 154.603 L949.585 154.603 Q949.863 159.002 952.224 161.316 Q954.608 163.608 958.844 163.608 Q961.298 163.608 963.589 163.006 Q965.904 162.404 968.173 161.201 L968.173 165.228 Q965.881 166.201 963.474 166.71 Q961.066 167.219 958.589 167.219 Q952.386 167.219 948.751 163.608 Q945.14 159.997 945.14 153.84 Q945.14 147.474 948.566 143.747 Q952.015 139.997 957.849 139.997 Q963.08 139.997 966.112 143.377 Q969.168 146.733 969.168 152.52 M964.909 151.27 Q964.862 147.775 962.941 145.691 Q961.043 143.608 957.895 143.608 Q954.33 143.608 952.177 145.622 Q950.048 147.636 949.724 151.293 L964.909 151.27 Z" fill="#000000" fill-rule="nonzero" fill-opacity="1" /><path clip-path="url(#clip430)" d="M992.686 141.386 L992.686 145.414 Q990.881 144.488 988.936 144.025 Q986.992 143.562 984.909 143.562 Q981.737 143.562 980.14 144.534 Q978.566 145.506 978.566 147.451 Q978.566 148.932 979.7 149.789 Q980.835 150.622 984.26 151.386 L985.719 151.71 Q990.256 152.682 992.154 154.465 Q994.075 156.224 994.075 159.395 Q994.075 163.006 991.205 165.113 Q988.358 167.219 983.358 167.219 Q981.274 167.219 979.006 166.802 Q976.761 166.409 974.261 165.599 L974.261 161.201 Q976.622 162.427 978.913 163.052 Q981.205 163.654 983.45 163.654 Q986.46 163.654 988.08 162.636 Q989.7 161.594 989.7 159.719 Q989.7 157.983 988.52 157.057 Q987.362 156.131 983.404 155.275 L981.923 154.928 Q977.964 154.094 976.205 152.381 Q974.446 150.645 974.446 147.636 Q974.446 143.978 977.038 141.988 Q979.631 139.997 984.399 139.997 Q986.76 139.997 988.844 140.344 Q990.927 140.691 992.686 141.386 Z" fill="#000000" fill-rule="nonzero" fill-opacity="1" /><path clip-path="url(#clip430)" d="M1000.19 130.576 L1003.89 130.576 Q1007.36 136.039 1009.08 141.27 Q1010.81 146.502 1010.81 151.664 Q1010.81 156.849 1009.08 162.103 Q1007.36 167.358 1003.89 172.798 L1000.19 172.798 Q1003.26 167.497 1004.77 162.265 Q1006.3 157.011 1006.3 151.664 Q1006.3 146.316 1004.77 141.108 Q1003.26 135.9 1000.19 130.576 Z" fill="#000000" fill-rule="nonzero" fill-opacity="1" /><path clip-path="url(#clip430)" d="M342.841 221.844 L483.068 221.844 L483.068 180.372 L342.841 180.372 L342.841 221.844  Z" fill="#e26f46" fill-rule="evenodd" fill-opacity="0.6"/>
<polyline clip-path="url(#clip430)" style="stroke:#e26f46; stroke-linecap:round; stroke-linejoin:round; stroke-width:4; stroke-opacity:0; fill:none" points="342.841,180.372 483.068,180.372 "/>
<path clip-path="url(#clip430)" d="M506.439 183.828 L513.407 183.828 L522.226 207.346 L531.092 183.828 L538.059 183.828 L538.059 218.388 L533.499 218.388 L533.499 188.041 L524.587 211.744 L519.888 211.744 L510.976 188.041 L510.976 218.388 L506.439 218.388 L506.439 183.828 Z" fill="#000000" fill-rule="nonzero" fill-opacity="1" /><path clip-path="url(#clip430)" d="M557.203 195.448 Q553.777 195.448 551.786 198.133 Q549.795 200.795 549.795 205.448 Q549.795 210.101 551.763 212.786 Q553.754 215.448 557.203 215.448 Q560.605 215.448 562.596 212.763 Q564.587 210.078 564.587 205.448 Q564.587 200.842 562.596 198.156 Q560.605 195.448 557.203 195.448 M557.203 191.837 Q562.758 191.837 565.929 195.448 Q569.101 199.059 569.101 205.448 Q569.101 211.814 565.929 215.448 Q562.758 219.059 557.203 219.059 Q551.624 219.059 548.453 215.448 Q545.304 211.814 545.304 205.448 Q545.304 199.059 548.453 195.448 Q551.624 191.837 557.203 191.837 Z" fill="#000000" fill-rule="nonzero" fill-opacity="1" /><path clip-path="url(#clip430)" d="M593.221 196.397 L593.221 182.369 L597.48 182.369 L597.48 218.388 L593.221 218.388 L593.221 214.499 Q591.878 216.814 589.818 217.948 Q587.781 219.059 584.911 219.059 Q580.212 219.059 577.249 215.309 Q574.309 211.559 574.309 205.448 Q574.309 199.337 577.249 195.587 Q580.212 191.837 584.911 191.837 Q587.781 191.837 589.818 192.971 Q591.878 194.082 593.221 196.397 M578.707 205.448 Q578.707 210.147 580.628 212.832 Q582.573 215.494 585.952 215.494 Q589.332 215.494 591.276 212.832 Q593.221 210.147 593.221 205.448 Q593.221 200.749 591.276 198.087 Q589.332 195.402 585.952 195.402 Q582.573 195.402 580.628 198.087 Q578.707 200.749 578.707 205.448 Z" fill="#000000" fill-rule="nonzero" fill-opacity="1" /><path clip-path="url(#clip430)" d="M628.429 204.36 L628.429 206.443 L608.846 206.443 Q609.124 210.842 611.485 213.156 Q613.869 215.448 618.105 215.448 Q620.559 215.448 622.85 214.846 Q625.165 214.244 627.434 213.041 L627.434 217.068 Q625.142 218.041 622.735 218.55 Q620.327 219.059 617.85 219.059 Q611.647 219.059 608.012 215.448 Q604.401 211.837 604.401 205.68 Q604.401 199.314 607.827 195.587 Q611.276 191.837 617.11 191.837 Q622.341 191.837 625.374 195.217 Q628.429 198.573 628.429 204.36 M624.17 203.11 Q624.124 199.615 622.202 197.531 Q620.304 195.448 617.156 195.448 Q613.591 195.448 611.438 197.462 Q609.309 199.476 608.985 203.133 L624.17 203.11 Z" fill="#000000" fill-rule="nonzero" fill-opacity="1" /><path clip-path="url(#clip430)" d="M635.42 182.369 L639.679 182.369 L639.679 218.388 L635.42 218.388 L635.42 182.369 Z" fill="#000000" fill-rule="nonzero" fill-opacity="1" /><path clip-path="url(#clip430)" d="M673.892 182.416 Q670.79 187.74 669.285 192.948 Q667.781 198.156 667.781 203.504 Q667.781 208.851 669.285 214.105 Q670.813 219.337 673.892 224.638 L670.188 224.638 Q666.716 219.198 664.98 213.943 Q663.267 208.689 663.267 203.504 Q663.267 198.342 664.98 193.11 Q666.693 187.879 670.188 182.416 L673.892 182.416 Z" fill="#000000" fill-rule="nonzero" fill-opacity="1" /><path clip-path="url(#clip430)" d="M693.336 199.244 Q690.188 199.244 688.336 201.397 Q686.507 203.55 686.507 207.3 Q686.507 211.027 688.336 213.203 Q690.188 215.355 693.336 215.355 Q696.484 215.355 698.313 213.203 Q700.165 211.027 700.165 207.3 Q700.165 203.55 698.313 201.397 Q696.484 199.244 693.336 199.244 M702.618 184.592 L702.618 188.851 Q700.859 188.018 699.054 187.578 Q697.271 187.138 695.512 187.138 Q690.882 187.138 688.429 190.263 Q685.998 193.388 685.651 199.707 Q687.017 197.693 689.077 196.629 Q691.137 195.541 693.614 195.541 Q698.822 195.541 701.831 198.712 Q704.864 201.86 704.864 207.3 Q704.864 212.624 701.716 215.842 Q698.568 219.059 693.336 219.059 Q687.341 219.059 684.169 214.476 Q680.998 209.869 680.998 201.143 Q680.998 192.948 684.887 188.087 Q688.776 183.203 695.327 183.203 Q697.086 183.203 698.868 183.55 Q700.674 183.897 702.618 184.592 Z" fill="#000000" fill-rule="nonzero" fill-opacity="1" /><path clip-path="url(#clip430)" d="M723.498 199.244 Q720.35 199.244 718.498 201.397 Q716.669 203.55 716.669 207.3 Q716.669 211.027 718.498 213.203 Q720.35 215.355 723.498 215.355 Q726.646 215.355 728.475 213.203 Q730.327 211.027 730.327 207.3 Q730.327 203.55 728.475 201.397 Q726.646 199.244 723.498 199.244 M732.78 184.592 L732.78 188.851 Q731.021 188.018 729.216 187.578 Q727.433 187.138 725.674 187.138 Q721.044 187.138 718.591 190.263 Q716.16 193.388 715.813 199.707 Q717.179 197.693 719.239 196.629 Q721.299 195.541 723.776 195.541 Q728.984 195.541 731.993 198.712 Q735.026 201.86 735.026 207.3 Q735.026 212.624 731.878 215.842 Q728.729 219.059 723.498 219.059 Q717.503 219.059 714.331 214.476 Q711.16 209.869 711.16 201.143 Q711.16 192.948 715.049 188.087 Q718.938 183.203 725.489 183.203 Q727.248 183.203 729.03 183.55 Q730.836 183.897 732.78 184.592 Z" fill="#000000" fill-rule="nonzero" fill-opacity="1" /><path clip-path="url(#clip430)" d="M743.081 212.508 L747.965 212.508 L747.965 218.388 L743.081 218.388 L743.081 212.508 Z" fill="#000000" fill-rule="nonzero" fill-opacity="1" /><path clip-path="url(#clip430)" d="M762.178 214.453 L778.498 214.453 L778.498 218.388 L756.553 218.388 L756.553 214.453 Q759.215 211.698 763.799 207.068 Q768.405 202.416 769.586 201.073 Q771.831 198.55 772.711 196.814 Q773.613 195.055 773.613 193.365 Q773.613 190.61 771.669 188.874 Q769.748 187.138 766.646 187.138 Q764.447 187.138 761.993 187.902 Q759.563 188.666 756.785 190.217 L756.785 185.494 Q759.609 184.36 762.063 183.782 Q764.516 183.203 766.553 183.203 Q771.924 183.203 775.118 185.888 Q778.312 188.573 778.312 193.064 Q778.312 195.194 777.502 197.115 Q776.715 199.013 774.609 201.606 Q774.03 202.277 770.928 205.494 Q767.826 208.689 762.178 214.453 Z" fill="#000000" fill-rule="nonzero" fill-opacity="1" /><path clip-path="url(#clip430)" d="M792.34 214.453 L808.66 214.453 L808.66 218.388 L786.715 218.388 L786.715 214.453 Q789.377 211.698 793.961 207.068 Q798.567 202.416 799.748 201.073 Q801.993 198.55 802.873 196.814 Q803.775 195.055 803.775 193.365 Q803.775 190.61 801.831 188.874 Q799.91 187.138 796.808 187.138 Q794.609 187.138 792.155 187.902 Q789.724 188.666 786.947 190.217 L786.947 185.494 Q789.771 184.36 792.224 183.782 Q794.678 183.203 796.715 183.203 Q802.086 183.203 805.28 185.888 Q808.474 188.573 808.474 193.064 Q808.474 195.194 807.664 197.115 Q806.877 199.013 804.771 201.606 Q804.192 202.277 801.09 205.494 Q797.988 208.689 792.34 214.453 Z" fill="#000000" fill-rule="nonzero" fill-opacity="1" /><path clip-path="url(#clip430)" d="M818.613 217.67 L818.613 213.411 Q820.372 214.244 822.178 214.684 Q823.984 215.124 825.72 215.124 Q830.349 215.124 832.78 212.022 Q835.233 208.897 835.581 202.555 Q834.238 204.545 832.178 205.61 Q830.118 206.675 827.618 206.675 Q822.433 206.675 819.4 203.55 Q816.391 200.402 816.391 194.962 Q816.391 189.638 819.539 186.42 Q822.687 183.203 827.919 183.203 Q833.914 183.203 837.062 187.809 Q840.233 192.393 840.233 201.143 Q840.233 209.314 836.345 214.198 Q832.479 219.059 825.928 219.059 Q824.169 219.059 822.363 218.712 Q820.558 218.365 818.613 217.67 M827.919 203.018 Q831.067 203.018 832.896 200.865 Q834.747 198.712 834.747 194.962 Q834.747 191.235 832.896 189.082 Q831.067 186.907 827.919 186.907 Q824.771 186.907 822.919 189.082 Q821.09 191.235 821.09 194.962 Q821.09 198.712 822.919 200.865 Q824.771 203.018 827.919 203.018 Z" fill="#000000" fill-rule="nonzero" fill-opacity="1" /><path clip-path="url(#clip430)" d="M880.442 188.666 L880.442 201.559 L893.335 201.559 L893.335 205.494 L880.442 205.494 L880.442 218.388 L876.553 218.388 L876.553 205.494 L863.659 205.494 L863.659 201.559 L876.553 201.559 L876.553 188.666 L880.442 188.666 Z" fill="#000000" fill-rule="nonzero" fill-opacity="1" /><path clip-path="url(#clip430)" d="M913.428 186.907 Q909.816 186.907 907.988 190.471 Q906.182 194.013 906.182 201.143 Q906.182 208.249 907.988 211.814 Q909.816 215.355 913.428 215.355 Q917.062 215.355 918.867 211.814 Q920.696 208.249 920.696 201.143 Q920.696 194.013 918.867 190.471 Q917.062 186.907 913.428 186.907 M913.428 183.203 Q919.238 183.203 922.293 187.809 Q925.372 192.393 925.372 201.143 Q925.372 209.869 922.293 214.476 Q919.238 219.059 913.428 219.059 Q907.617 219.059 904.539 214.476 Q901.483 209.869 901.483 201.143 Q901.483 192.393 904.539 187.809 Q907.617 183.203 913.428 183.203 Z" fill="#000000" fill-rule="nonzero" fill-opacity="1" /><path clip-path="url(#clip430)" d="M933.589 212.508 L938.474 212.508 L938.474 218.388 L933.589 218.388 L933.589 212.508 Z" fill="#000000" fill-rule="nonzero" fill-opacity="1" /><path clip-path="url(#clip430)" d="M962.825 199.754 Q966.182 200.471 968.057 202.74 Q969.955 205.008 969.955 208.342 Q969.955 213.457 966.436 216.258 Q962.918 219.059 956.437 219.059 Q954.261 219.059 951.946 218.619 Q949.654 218.203 947.2 217.346 L947.2 212.832 Q949.145 213.967 951.46 214.545 Q953.775 215.124 956.298 215.124 Q960.696 215.124 962.987 213.388 Q965.302 211.652 965.302 208.342 Q965.302 205.286 963.149 203.573 Q961.02 201.837 957.2 201.837 L953.173 201.837 L953.173 197.994 L957.386 197.994 Q960.835 197.994 962.663 196.629 Q964.492 195.24 964.492 192.647 Q964.492 189.985 962.594 188.573 Q960.719 187.138 957.2 187.138 Q955.279 187.138 953.08 187.555 Q950.881 187.971 948.242 188.851 L948.242 184.684 Q950.904 183.944 953.219 183.573 Q955.557 183.203 957.617 183.203 Q962.941 183.203 966.043 185.633 Q969.145 188.041 969.145 192.161 Q969.145 195.031 967.501 197.022 Q965.858 198.99 962.825 199.754 Z" fill="#000000" fill-rule="nonzero" fill-opacity="1" /><path clip-path="url(#clip430)" d="M988.821 201.976 Q985.487 201.976 983.566 203.758 Q981.668 205.541 981.668 208.666 Q981.668 211.791 983.566 213.573 Q985.487 215.355 988.821 215.355 Q992.154 215.355 994.075 213.573 Q995.997 211.767 995.997 208.666 Q995.997 205.541 994.075 203.758 Q992.177 201.976 988.821 201.976 M984.145 199.985 Q981.135 199.244 979.446 197.184 Q977.779 195.124 977.779 192.161 Q977.779 188.018 980.719 185.61 Q983.682 183.203 988.821 183.203 Q993.983 183.203 996.922 185.61 Q999.862 188.018 999.862 192.161 Q999.862 195.124 998.172 197.184 Q996.506 199.244 993.52 199.985 Q996.899 200.772 998.774 203.064 Q1000.67 205.355 1000.67 208.666 Q1000.67 213.689 997.594 216.374 Q994.538 219.059 988.821 219.059 Q983.103 219.059 980.024 216.374 Q976.969 213.689 976.969 208.666 Q976.969 205.355 978.867 203.064 Q980.765 200.772 984.145 199.985 M982.432 192.601 Q982.432 195.286 984.098 196.791 Q985.788 198.295 988.821 198.295 Q991.83 198.295 993.52 196.791 Q995.233 195.286 995.233 192.601 Q995.233 189.916 993.52 188.411 Q991.83 186.907 988.821 186.907 Q985.788 186.907 984.098 188.411 Q982.432 189.916 982.432 192.601 Z" fill="#000000" fill-rule="nonzero" fill-opacity="1" /><path clip-path="url(#clip430)" d="M1021.83 187.902 L1010.02 206.351 L1021.83 206.351 L1021.83 187.902 M1020.6 183.828 L1026.48 183.828 L1026.48 206.351 L1031.41 206.351 L1031.41 210.24 L1026.48 210.24 L1026.48 218.388 L1021.83 218.388 L1021.83 210.24 L1006.23 210.24 L1006.23 205.726 L1020.6 183.828 Z" fill="#000000" fill-rule="nonzero" fill-opacity="1" /><path clip-path="url(#clip430)" d="M1046.11 183.828 L1050.05 183.828 L1038.01 222.786 L1034.08 222.786 L1046.11 183.828 Z" fill="#000000" fill-rule="nonzero" fill-opacity="1" /><path clip-path="url(#clip430)" d="M1052.36 203.504 L1064.84 203.504 L1064.84 207.3 L1052.36 207.3 L1052.36 203.504 Z" fill="#000000" fill-rule="nonzero" fill-opacity="1" /><path clip-path="url(#clip430)" d="M1082.22 186.907 Q1078.61 186.907 1076.78 190.471 Q1074.98 194.013 1074.98 201.143 Q1074.98 208.249 1076.78 211.814 Q1078.61 215.355 1082.22 215.355 Q1085.86 215.355 1087.66 211.814 Q1089.49 208.249 1089.49 201.143 Q1089.49 194.013 1087.66 190.471 Q1085.86 186.907 1082.22 186.907 M1082.22 183.203 Q1088.03 183.203 1091.09 187.809 Q1094.17 192.393 1094.17 201.143 Q1094.17 209.869 1091.09 214.476 Q1088.03 219.059 1082.22 219.059 Q1076.41 219.059 1073.33 214.476 Q1070.28 209.869 1070.28 201.143 Q1070.28 192.393 1073.33 187.809 Q1076.41 183.203 1082.22 183.203 Z" fill="#000000" fill-rule="nonzero" fill-opacity="1" /><path clip-path="url(#clip430)" d="M1102.38 212.508 L1107.27 212.508 L1107.27 218.388 L1102.38 218.388 L1102.38 212.508 Z" fill="#000000" fill-rule="nonzero" fill-opacity="1" /><path clip-path="url(#clip430)" d="M1117.5 183.828 L1135.86 183.828 L1135.86 187.763 L1121.78 187.763 L1121.78 196.235 Q1122.8 195.888 1123.82 195.726 Q1124.84 195.541 1125.86 195.541 Q1131.64 195.541 1135.02 198.712 Q1138.4 201.883 1138.4 207.3 Q1138.4 212.879 1134.93 215.98 Q1131.46 219.059 1125.14 219.059 Q1122.96 219.059 1120.69 218.689 Q1118.45 218.318 1116.04 217.578 L1116.04 212.879 Q1118.13 214.013 1120.35 214.568 Q1122.57 215.124 1125.05 215.124 Q1129.05 215.124 1131.39 213.017 Q1133.73 210.911 1133.73 207.3 Q1133.73 203.689 1131.39 201.582 Q1129.05 199.476 1125.05 199.476 Q1123.17 199.476 1121.3 199.893 Q1119.44 200.309 1117.5 201.189 L1117.5 183.828 Z" fill="#000000" fill-rule="nonzero" fill-opacity="1" /><path clip-path="url(#clip430)" d="M1148.43 214.453 L1156.07 214.453 L1156.07 188.087 L1147.75 189.754 L1147.75 185.494 L1156.02 183.828 L1160.69 183.828 L1160.69 214.453 L1168.33 214.453 L1168.33 218.388 L1148.43 218.388 L1148.43 214.453 Z" fill="#000000" fill-rule="nonzero" fill-opacity="1" /><path clip-path="url(#clip430)" d="M1188.36 199.244 Q1185.21 199.244 1183.36 201.397 Q1181.53 203.55 1181.53 207.3 Q1181.53 211.027 1183.36 213.203 Q1185.21 215.355 1188.36 215.355 Q1191.5 215.355 1193.33 213.203 Q1195.19 211.027 1195.19 207.3 Q1195.19 203.55 1193.33 201.397 Q1191.5 199.244 1188.36 199.244 M1197.64 184.592 L1197.64 188.851 Q1195.88 188.018 1194.07 187.578 Q1192.29 187.138 1190.53 187.138 Q1185.9 187.138 1183.45 190.263 Q1181.02 193.388 1180.67 199.707 Q1182.04 197.693 1184.1 196.629 Q1186.16 195.541 1188.63 195.541 Q1193.84 195.541 1196.85 198.712 Q1199.88 201.86 1199.88 207.3 Q1199.88 212.624 1196.74 215.842 Q1193.59 219.059 1188.36 219.059 Q1182.36 219.059 1179.19 214.476 Q1176.02 209.869 1176.02 201.143 Q1176.02 192.948 1179.91 188.087 Q1183.8 183.203 1190.35 183.203 Q1192.11 183.203 1193.89 183.55 Q1195.69 183.897 1197.64 184.592 Z" fill="#000000" fill-rule="nonzero" fill-opacity="1" /><path clip-path="url(#clip430)" d="M1222.59 183.828 L1229.56 183.828 L1238.38 207.346 L1247.25 183.828 L1254.21 183.828 L1254.21 218.388 L1249.65 218.388 L1249.65 188.041 L1240.74 211.744 L1236.04 211.744 L1227.13 188.041 L1227.13 218.388 L1222.59 218.388 L1222.59 183.828 Z" fill="#000000" fill-rule="nonzero" fill-opacity="1" /><path clip-path="url(#clip430)" d="M1275.09 205.355 Q1269.93 205.355 1267.94 206.536 Q1265.95 207.717 1265.95 210.564 Q1265.95 212.832 1267.43 214.175 Q1268.93 215.494 1271.5 215.494 Q1275.05 215.494 1277.18 212.994 Q1279.33 210.471 1279.33 206.305 L1279.33 205.355 L1275.09 205.355 M1283.59 203.596 L1283.59 218.388 L1279.33 218.388 L1279.33 214.453 Q1277.87 216.814 1275.69 217.948 Q1273.52 219.059 1270.37 219.059 Q1266.39 219.059 1264.03 216.837 Q1261.69 214.592 1261.69 210.842 Q1261.69 206.467 1264.61 204.244 Q1267.55 202.022 1273.36 202.022 L1279.33 202.022 L1279.33 201.606 Q1279.33 198.666 1277.38 197.068 Q1275.46 195.448 1271.97 195.448 Q1269.75 195.448 1267.64 195.981 Q1265.53 196.513 1263.59 197.578 L1263.59 193.643 Q1265.93 192.74 1268.12 192.3 Q1270.32 191.837 1272.41 191.837 Q1278.03 191.837 1280.81 194.754 Q1283.59 197.67 1283.59 203.596 Z" fill="#000000" fill-rule="nonzero" fill-opacity="1" /><path clip-path="url(#clip430)" d="M1291.69 182.416 L1295.39 182.416 Q1298.87 187.879 1300.58 193.11 Q1302.31 198.342 1302.31 203.504 Q1302.31 208.689 1300.58 213.943 Q1298.87 219.198 1295.39 224.638 L1291.69 224.638 Q1294.77 219.337 1296.27 214.105 Q1297.8 208.851 1297.8 203.504 Q1297.8 198.156 1296.27 192.948 Q1294.77 187.74 1291.69 182.416 Z" fill="#000000" fill-rule="nonzero" fill-opacity="1" /></svg>
