<?xml version="1.0" encoding="utf-8"?>
<svg xmlns="http://www.w3.org/2000/svg" xmlns:xlink="http://www.w3.org/1999/xlink" width="600" height="400" viewBox="0 0 2400 1600">
<defs>
  <clipPath id="clip850">
    <rect x="0" y="0" width="2400" height="1600"/>
  </clipPath>
</defs>
<path clip-path="url(#clip850)" d="M0 1600 L2400 1600 L2400 8.88178e-14 L0 8.88178e-14  Z" fill="#ffffff" fill-rule="evenodd" fill-opacity="1"/>
<defs>
  <clipPath id="clip851">
    <rect x="249" y="47" width="2104" height="1507"/>
  </clipPath>
</defs>
<path clip-path="url(#clip850)" d="M249.843 1552.76 L2352.76 1552.76 L2352.76 47.2441 L249.843 47.2441  Z" fill="#ffffff" fill-rule="evenodd" fill-opacity="1"/>
<polyline clip-path="url(#clip851)" style="stroke:#000000; stroke-linecap:round; stroke-linejoin:round; stroke-width:2; stroke-opacity:0.1; fill:none" points="249.843,1244.85 2352.76,1244.85 "/>
<polyline clip-path="url(#clip851)" style="stroke:#000000; stroke-linecap:round; stroke-linejoin:round; stroke-width:2; stroke-opacity:0.1; fill:none" points="249.843,918.905 2352.76,918.905 "/>
<polyline clip-path="url(#clip851)" style="stroke:#000000; stroke-linecap:round; stroke-linejoin:round; stroke-width:2; stroke-opacity:0.1; fill:none" points="249.843,592.964 2352.76,592.964 "/>
<polyline clip-path="url(#clip851)" style="stroke:#000000; stroke-linecap:round; stroke-linejoin:round; stroke-width:2; stroke-opacity:0.1; fill:none" points="249.843,267.023 2352.76,267.023 "/>
<polyline clip-path="url(#clip851)" style="stroke:#000000; stroke-linecap:round; stroke-linejoin:round; stroke-width:2; stroke-opacity:0.1; fill:none" points="249.843,1244.85 2352.76,1244.85 "/>
<polyline clip-path="url(#clip851)" style="stroke:#000000; stroke-linecap:round; stroke-linejoin:round; stroke-width:2; stroke-opacity:0.1; fill:none" points="249.843,918.905 2352.76,918.905 "/>
<polyline clip-path="url(#clip851)" style="stroke:#000000; stroke-linecap:round; stroke-linejoin:round; stroke-width:2; stroke-opacity:0.1; fill:none" points="249.843,592.964 2352.76,592.964 "/>
<polyline clip-path="url(#clip851)" style="stroke:#000000; stroke-linecap:round; stroke-linejoin:round; stroke-width:2; stroke-opacity:0.1; fill:none" points="249.843,267.023 2352.76,267.023 "/>
<polyline clip-path="url(#clip850)" style="stroke:#000000; stroke-linecap:round; stroke-linejoin:round; stroke-width:4; stroke-opacity:1; fill:none" points="249.843,1552.76 2352.76,1552.76 "/>
<polyline clip-path="url(#clip850)" style="stroke:#000000; stroke-linecap:round; stroke-linejoin:round; stroke-width:4; stroke-opacity:1; fill:none" points="249.843,47.2441 2352.76,47.2441 "/>
<polyline clip-path="url(#clip850)" style="stroke:#000000; stroke-linecap:round; stroke-linejoin:round; stroke-width:4; stroke-opacity:1; fill:none" points="249.843,1552.76 249.843,47.2441 "/>
<polyline clip-path="url(#clip850)" style="stroke:#000000; stroke-linecap:round; stroke-linejoin:round; stroke-width:4; stroke-opacity:1; fill:none" points="2352.76,1552.76 2352.76,47.2441 "/>
<polyline clip-path="url(#clip850)" style="stroke:#000000; stroke-linecap:round; stroke-linejoin:round; stroke-width:4; stroke-opacity:1; fill:none" points="249.843,1244.85 268.741,1244.85 "/>
<polyline clip-path="url(#clip850)" style="stroke:#000000; stroke-linecap:round; stroke-linejoin:round; stroke-width:4; stroke-opacity:1; fill:none" points="249.843,918.905 268.741,918.905 "/>
<polyline clip-path="url(#clip850)" style="stroke:#000000; stroke-linecap:round; stroke-linejoin:round; stroke-width:4; stroke-opacity:1; fill:none" points="249.843,592.964 268.741,592.964 "/>
<polyline clip-path="url(#clip850)" style="stroke:#000000; stroke-linecap:round; stroke-linejoin:round; stroke-width:4; stroke-opacity:1; fill:none" points="249.843,267.023 268.741,267.023 "/>
<polyline clip-path="url(#clip850)" style="stroke:#000000; stroke-linecap:round; stroke-linejoin:round; stroke-width:4; stroke-opacity:1; fill:none" points="2352.76,1244.85 2333.86,1244.85 "/>
<polyline clip-path="url(#clip850)" style="stroke:#000000; stroke-linecap:round; stroke-linejoin:round; stroke-width:4; stroke-opacity:1; fill:none" points="2352.76,918.905 2333.86,918.905 "/>
<polyline clip-path="url(#clip850)" style="stroke:#000000; stroke-linecap:round; stroke-linejoin:round; stroke-width:4; stroke-opacity:1; fill:none" points="2352.76,592.964 2333.86,592.964 "/>
<polyline clip-path="url(#clip850)" style="stroke:#000000; stroke-linecap:round; stroke-linejoin:round; stroke-width:4; stroke-opacity:1; fill:none" points="2352.76,267.023 2333.86,267.023 "/>
<path clip-path="url(#clip850)" d="M128.681 1242.98 Q125.533 1242.98 123.681 1245.14 Q121.853 1247.29 121.853 1251.04 Q121.853 1254.76 123.681 1256.94 Q125.533 1259.09 128.681 1259.09 Q131.83 1259.09 133.658 1256.94 Q135.51 1254.76 135.51 1251.04 Q135.51 1247.29 133.658 1245.14 Q131.83 1242.98 128.681 1242.98 M137.964 1228.33 L137.964 1232.59 Q136.204 1231.76 134.399 1231.32 Q132.617 1230.88 130.857 1230.88 Q126.228 1230.88 123.774 1234 Q121.343 1237.13 120.996 1243.45 Q122.362 1241.43 124.422 1240.37 Q126.482 1239.28 128.959 1239.28 Q134.167 1239.28 137.177 1242.45 Q140.209 1245.6 140.209 1251.04 Q140.209 1256.36 137.061 1259.58 Q133.913 1262.8 128.681 1262.8 Q122.686 1262.8 119.515 1258.21 Q116.343 1253.61 116.343 1244.88 Q116.343 1236.69 120.232 1231.83 Q124.121 1226.94 130.672 1226.94 Q132.431 1226.94 134.214 1227.29 Q136.019 1227.64 137.964 1228.33 Z" fill="#000000" fill-rule="nonzero" fill-opacity="1" /><path clip-path="url(#clip850)" d="M158.843 1242.98 Q155.695 1242.98 153.843 1245.14 Q152.015 1247.29 152.015 1251.04 Q152.015 1254.76 153.843 1256.94 Q155.695 1259.09 158.843 1259.09 Q161.991 1259.09 163.82 1256.94 Q165.672 1254.76 165.672 1251.04 Q165.672 1247.29 163.82 1245.14 Q161.991 1242.98 158.843 1242.98 M168.126 1228.33 L168.126 1232.59 Q166.366 1231.76 164.561 1231.32 Q162.778 1230.88 161.019 1230.88 Q156.39 1230.88 153.936 1234 Q151.505 1237.13 151.158 1243.45 Q152.524 1241.43 154.584 1240.37 Q156.644 1239.28 159.121 1239.28 Q164.329 1239.28 167.339 1242.45 Q170.371 1245.6 170.371 1251.04 Q170.371 1256.36 167.223 1259.58 Q164.075 1262.8 158.843 1262.8 Q152.848 1262.8 149.677 1258.21 Q146.505 1253.61 146.505 1244.88 Q146.505 1236.69 150.394 1231.83 Q154.283 1226.94 160.834 1226.94 Q162.593 1226.94 164.376 1227.29 Q166.181 1227.64 168.126 1228.33 Z" fill="#000000" fill-rule="nonzero" fill-opacity="1" /><path clip-path="url(#clip850)" d="M178.426 1256.25 L183.311 1256.25 L183.311 1262.13 L178.426 1262.13 L178.426 1256.25 Z" fill="#000000" fill-rule="nonzero" fill-opacity="1" /><path clip-path="url(#clip850)" d="M197.524 1258.19 L213.843 1258.19 L213.843 1262.13 L191.899 1262.13 L191.899 1258.19 Q194.561 1255.44 199.144 1250.81 Q203.75 1246.15 204.931 1244.81 Q207.176 1242.29 208.056 1240.55 Q208.959 1238.79 208.959 1237.1 Q208.959 1234.35 207.014 1232.61 Q205.093 1230.88 201.991 1230.88 Q199.792 1230.88 197.338 1231.64 Q194.908 1232.4 192.13 1233.95 L192.13 1229.23 Q194.954 1228.1 197.408 1227.52 Q199.862 1226.94 201.899 1226.94 Q207.269 1226.94 210.463 1229.63 Q213.658 1232.31 213.658 1236.8 Q213.658 1238.93 212.848 1240.85 Q212.061 1242.75 209.954 1245.34 Q209.375 1246.01 206.274 1249.23 Q203.172 1252.43 197.524 1258.19 Z" fill="#000000" fill-rule="nonzero" fill-opacity="1" /><path clip-path="url(#clip850)" d="M126.598 917.041 Q123.45 917.041 121.598 919.194 Q119.769 921.347 119.769 925.097 Q119.769 928.824 121.598 931 Q123.45 933.152 126.598 933.152 Q129.746 933.152 131.575 931 Q133.427 928.824 133.427 925.097 Q133.427 921.347 131.575 919.194 Q129.746 917.041 126.598 917.041 M135.88 902.389 L135.88 906.648 Q134.121 905.815 132.316 905.375 Q130.533 904.935 128.774 904.935 Q124.144 904.935 121.691 908.06 Q119.26 911.185 118.913 917.504 Q120.279 915.49 122.339 914.426 Q124.399 913.338 126.876 913.338 Q132.084 913.338 135.093 916.509 Q138.126 919.657 138.126 925.097 Q138.126 930.421 134.978 933.639 Q131.83 936.856 126.598 936.856 Q120.603 936.856 117.431 932.273 Q114.26 927.666 114.26 918.94 Q114.26 910.745 118.149 905.884 Q122.038 901 128.589 901 Q130.348 901 132.13 901.347 Q133.936 901.694 135.88 902.389 Z" fill="#000000" fill-rule="nonzero" fill-opacity="1" /><path clip-path="url(#clip850)" d="M156.76 917.041 Q153.612 917.041 151.76 919.194 Q149.931 921.347 149.931 925.097 Q149.931 928.824 151.76 931 Q153.612 933.152 156.76 933.152 Q159.908 933.152 161.737 931 Q163.589 928.824 163.589 925.097 Q163.589 921.347 161.737 919.194 Q159.908 917.041 156.76 917.041 M166.042 902.389 L166.042 906.648 Q164.283 905.815 162.477 905.375 Q160.695 904.935 158.936 904.935 Q154.306 904.935 151.853 908.06 Q149.422 911.185 149.075 917.504 Q150.441 915.49 152.501 914.426 Q154.561 913.338 157.038 913.338 Q162.246 913.338 165.255 916.509 Q168.288 919.657 168.288 925.097 Q168.288 930.421 165.14 933.639 Q161.991 936.856 156.76 936.856 Q150.765 936.856 147.593 932.273 Q144.422 927.666 144.422 918.94 Q144.422 910.745 148.311 905.884 Q152.2 901 158.751 901 Q160.51 901 162.292 901.347 Q164.098 901.694 166.042 902.389 Z" fill="#000000" fill-rule="nonzero" fill-opacity="1" /><path clip-path="url(#clip850)" d="M176.343 930.305 L181.227 930.305 L181.227 936.185 L176.343 936.185 L176.343 930.305 Z" fill="#000000" fill-rule="nonzero" fill-opacity="1" /><path clip-path="url(#clip850)" d="M204.26 905.699 L192.454 924.148 L204.26 924.148 L204.26 905.699 M203.033 901.625 L208.912 901.625 L208.912 924.148 L213.843 924.148 L213.843 928.037 L208.912 928.037 L208.912 936.185 L204.26 936.185 L204.26 928.037 L188.658 928.037 L188.658 923.523 L203.033 901.625 Z" fill="#000000" fill-rule="nonzero" fill-opacity="1" /><path clip-path="url(#clip850)" d="M126.922 591.1 Q123.774 591.1 121.922 593.253 Q120.093 595.406 120.093 599.156 Q120.093 602.883 121.922 605.059 Q123.774 607.211 126.922 607.211 Q130.07 607.211 131.899 605.059 Q133.751 602.883 133.751 599.156 Q133.751 595.406 131.899 593.253 Q130.07 591.1 126.922 591.1 M136.204 576.448 L136.204 580.707 Q134.445 579.874 132.64 579.434 Q130.857 578.994 129.098 578.994 Q124.468 578.994 122.015 582.119 Q119.584 585.244 119.237 591.563 Q120.603 589.549 122.663 588.485 Q124.723 587.397 127.2 587.397 Q132.408 587.397 135.417 590.568 Q138.45 593.716 138.45 599.156 Q138.45 604.48 135.302 607.698 Q132.154 610.915 126.922 610.915 Q120.927 610.915 117.756 606.332 Q114.584 601.725 114.584 592.999 Q114.584 584.804 118.473 579.943 Q122.362 575.059 128.913 575.059 Q130.672 575.059 132.455 575.406 Q134.26 575.753 136.204 576.448 Z" fill="#000000" fill-rule="nonzero" fill-opacity="1" /><path clip-path="url(#clip850)" d="M157.084 591.1 Q153.936 591.1 152.084 593.253 Q150.255 595.406 150.255 599.156 Q150.255 602.883 152.084 605.059 Q153.936 607.211 157.084 607.211 Q160.232 607.211 162.061 605.059 Q163.913 602.883 163.913 599.156 Q163.913 595.406 162.061 593.253 Q160.232 591.1 157.084 591.1 M166.366 576.448 L166.366 580.707 Q164.607 579.874 162.802 579.434 Q161.019 578.994 159.26 578.994 Q154.63 578.994 152.177 582.119 Q149.746 585.244 149.399 591.563 Q150.765 589.549 152.825 588.485 Q154.885 587.397 157.362 587.397 Q162.57 587.397 165.579 590.568 Q168.612 593.716 168.612 599.156 Q168.612 604.48 165.464 607.698 Q162.315 610.915 157.084 610.915 Q151.089 610.915 147.917 606.332 Q144.746 601.725 144.746 592.999 Q144.746 584.804 148.635 579.943 Q152.524 575.059 159.075 575.059 Q160.834 575.059 162.616 575.406 Q164.422 575.753 166.366 576.448 Z" fill="#000000" fill-rule="nonzero" fill-opacity="1" /><path clip-path="url(#clip850)" d="M176.667 604.364 L181.551 604.364 L181.551 610.244 L176.667 610.244 L176.667 604.364 Z" fill="#000000" fill-rule="nonzero" fill-opacity="1" /><path clip-path="url(#clip850)" d="M202.315 591.1 Q199.167 591.1 197.315 593.253 Q195.487 595.406 195.487 599.156 Q195.487 602.883 197.315 605.059 Q199.167 607.211 202.315 607.211 Q205.463 607.211 207.292 605.059 Q209.144 602.883 209.144 599.156 Q209.144 595.406 207.292 593.253 Q205.463 591.1 202.315 591.1 M211.598 576.448 L211.598 580.707 Q209.838 579.874 208.033 579.434 Q206.25 578.994 204.491 578.994 Q199.862 578.994 197.408 582.119 Q194.977 585.244 194.63 591.563 Q195.996 589.549 198.056 588.485 Q200.116 587.397 202.593 587.397 Q207.801 587.397 210.811 590.568 Q213.843 593.716 213.843 599.156 Q213.843 604.48 210.695 607.698 Q207.547 610.915 202.315 610.915 Q196.32 610.915 193.149 606.332 Q189.977 601.725 189.977 592.999 Q189.977 584.804 193.866 579.943 Q197.755 575.059 204.306 575.059 Q206.065 575.059 207.848 575.406 Q209.653 575.753 211.598 576.448 Z" fill="#000000" fill-rule="nonzero" fill-opacity="1" /><path clip-path="url(#clip850)" d="M127.177 265.159 Q124.029 265.159 122.177 267.312 Q120.348 269.465 120.348 273.215 Q120.348 276.942 122.177 279.118 Q124.029 281.27 127.177 281.27 Q130.325 281.27 132.154 279.118 Q134.005 276.942 134.005 273.215 Q134.005 269.465 132.154 267.312 Q130.325 265.159 127.177 265.159 M136.459 250.507 L136.459 254.766 Q134.7 253.933 132.894 253.493 Q131.112 253.053 129.353 253.053 Q124.723 253.053 122.269 256.178 Q119.839 259.303 119.492 265.622 Q120.857 263.609 122.918 262.544 Q124.978 261.456 127.455 261.456 Q132.663 261.456 135.672 264.627 Q138.704 267.775 138.704 273.215 Q138.704 278.539 135.556 281.757 Q132.408 284.974 127.177 284.974 Q121.181 284.974 118.01 280.391 Q114.839 275.784 114.839 267.058 Q114.839 258.863 118.728 254.002 Q122.617 249.118 129.167 249.118 Q130.927 249.118 132.709 249.465 Q134.515 249.812 136.459 250.507 Z" fill="#000000" fill-rule="nonzero" fill-opacity="1" /><path clip-path="url(#clip850)" d="M157.339 265.159 Q154.19 265.159 152.339 267.312 Q150.51 269.465 150.51 273.215 Q150.51 276.942 152.339 279.118 Q154.19 281.27 157.339 281.27 Q160.487 281.27 162.315 279.118 Q164.167 276.942 164.167 273.215 Q164.167 269.465 162.315 267.312 Q160.487 265.159 157.339 265.159 M166.621 250.507 L166.621 254.766 Q164.862 253.933 163.056 253.493 Q161.274 253.053 159.515 253.053 Q154.885 253.053 152.431 256.178 Q150.001 259.303 149.653 265.622 Q151.019 263.609 153.079 262.544 Q155.14 261.456 157.616 261.456 Q162.825 261.456 165.834 264.627 Q168.866 267.775 168.866 273.215 Q168.866 278.539 165.718 281.757 Q162.57 284.974 157.339 284.974 Q151.343 284.974 148.172 280.391 Q145.001 275.784 145.001 267.058 Q145.001 258.863 148.89 254.002 Q152.778 249.118 159.329 249.118 Q161.089 249.118 162.871 249.465 Q164.677 249.812 166.621 250.507 Z" fill="#000000" fill-rule="nonzero" fill-opacity="1" /><path clip-path="url(#clip850)" d="M176.922 278.423 L181.806 278.423 L181.806 284.303 L176.922 284.303 L176.922 278.423 Z" fill="#000000" fill-rule="nonzero" fill-opacity="1" /><path clip-path="url(#clip850)" d="M201.991 267.891 Q198.658 267.891 196.737 269.673 Q194.838 271.456 194.838 274.581 Q194.838 277.706 196.737 279.488 Q198.658 281.27 201.991 281.27 Q205.324 281.27 207.246 279.488 Q209.167 277.683 209.167 274.581 Q209.167 271.456 207.246 269.673 Q205.348 267.891 201.991 267.891 M197.315 265.9 Q194.306 265.159 192.616 263.099 Q190.95 261.039 190.95 258.076 Q190.95 253.933 193.889 251.525 Q196.852 249.118 201.991 249.118 Q207.153 249.118 210.093 251.525 Q213.033 253.933 213.033 258.076 Q213.033 261.039 211.343 263.099 Q209.676 265.159 206.69 265.9 Q210.07 266.687 211.945 268.979 Q213.843 271.271 213.843 274.581 Q213.843 279.604 210.764 282.289 Q207.709 284.974 201.991 284.974 Q196.274 284.974 193.195 282.289 Q190.139 279.604 190.139 274.581 Q190.139 271.271 192.038 268.979 Q193.936 266.687 197.315 265.9 M195.602 258.516 Q195.602 261.201 197.269 262.706 Q198.959 264.21 201.991 264.21 Q205 264.21 206.69 262.706 Q208.403 261.201 208.403 258.516 Q208.403 255.831 206.69 254.326 Q205 252.822 201.991 252.822 Q198.959 252.822 197.269 254.326 Q195.602 255.831 195.602 258.516 Z" fill="#000000" fill-rule="nonzero" fill-opacity="1" /><path clip-path="url(#clip850)" d="M22.818 922.094 L46.4666 930.815 L46.4666 913.341 L22.818 922.094 M16.4842 925.723 L16.4842 918.434 L64.0042 900.324 L64.0042 907.008 L51.8138 911.336 L51.8138 932.757 L64.0042 937.085 L64.0042 943.865 L16.4842 925.723 Z" fill="#000000" fill-rule="nonzero" fill-opacity="1" /><path clip-path="url(#clip850)" d="M45.7664 870.182 Q39.4007 870.182 35.8996 872.824 Q32.3984 875.434 32.3984 880.176 Q32.3984 884.887 35.8996 887.528 Q39.4007 890.138 45.7664 890.138 Q52.1003 890.138 55.6014 887.528 Q59.1026 884.887 59.1026 880.176 Q59.1026 875.434 55.6014 872.824 Q52.1003 870.182 45.7664 870.182 M59.58 864.325 Q68.683 864.325 73.1071 868.368 Q77.5631 872.41 77.5631 880.749 Q77.5631 883.836 77.0857 886.574 Q76.6401 889.311 75.6852 891.889 L69.9879 891.889 Q71.3884 889.311 72.0568 886.796 Q72.7252 884.282 72.7252 881.672 Q72.7252 875.911 69.7015 873.046 Q66.7096 870.182 60.6303 870.182 L57.7339 870.182 Q60.885 871.996 62.4446 874.829 Q64.0042 877.662 64.0042 881.608 Q64.0042 888.165 59.0071 892.175 Q54.01 896.186 45.7664 896.186 Q37.491 896.186 32.4939 892.175 Q27.4968 888.165 27.4968 881.608 Q27.4968 877.662 29.0564 874.829 Q30.616 871.996 33.7671 870.182 L28.3562 870.182 L28.3562 864.325 L59.58 864.325 Z" fill="#000000" fill-rule="nonzero" fill-opacity="1" /><path clip-path="url(#clip850)" d="M44.7161 821.771 L47.5806 821.771 L47.5806 848.698 Q53.6281 848.316 56.8109 845.069 Q59.9619 841.791 59.9619 835.966 Q59.9619 832.592 59.1344 829.441 Q58.3069 826.259 56.6518 823.139 L62.1899 823.139 Q63.5267 826.29 64.227 829.601 Q64.9272 832.911 64.9272 836.316 Q64.9272 844.846 59.9619 849.843 Q54.9967 854.809 46.5303 854.809 Q37.7774 854.809 32.6531 850.098 Q27.4968 845.356 27.4968 837.335 Q27.4968 830.142 32.1438 825.972 Q36.7589 821.771 44.7161 821.771 M42.9973 827.627 Q38.1912 827.691 35.3266 830.333 Q32.4621 832.943 32.4621 837.271 Q32.4621 842.173 35.2312 845.133 Q38.0002 848.061 43.0292 848.507 L42.9973 827.627 Z" fill="#000000" fill-rule="nonzero" fill-opacity="1" /><path clip-path="url(#clip850)" d="M14.5426 777.37 Q21.8632 781.635 29.0246 783.704 Q36.186 785.773 43.5384 785.773 Q50.8908 785.773 58.1159 783.704 Q65.3091 781.603 72.5979 777.37 L72.5979 782.462 Q65.1182 787.237 57.8931 789.624 Q50.668 791.979 43.5384 791.979 Q36.4406 791.979 29.2474 789.624 Q22.0542 787.269 14.5426 782.462 L14.5426 777.37 Z" fill="#000000" fill-rule="nonzero" fill-opacity="1" /><path clip-path="url(#clip850)" d="M16.4842 765.752 L16.4842 756.172 L48.8219 744.045 L16.4842 731.855 L16.4842 722.275 L64.0042 722.275 L64.0042 728.545 L22.277 728.545 L54.8694 740.799 L54.8694 747.26 L22.277 759.514 L64.0042 759.514 L64.0042 765.752 L16.4842 765.752 Z" fill="#000000" fill-rule="nonzero" fill-opacity="1" /><path clip-path="url(#clip850)" d="M46.0847 693.565 Q46.0847 700.663 47.7079 703.4 Q49.3312 706.138 53.2461 706.138 Q56.3653 706.138 58.2114 704.101 Q60.0256 702.032 60.0256 698.499 Q60.0256 693.629 56.5881 690.701 Q53.1188 687.741 47.3897 687.741 L46.0847 687.741 L46.0847 693.565 M43.6657 681.884 L64.0042 681.884 L64.0042 687.741 L58.5933 687.741 Q61.8398 689.746 63.3994 692.738 Q64.9272 695.73 64.9272 700.058 Q64.9272 705.533 61.8716 708.779 Q58.7843 711.994 53.6281 711.994 Q47.6125 711.994 44.5569 707.984 Q41.5014 703.941 41.5014 695.953 L41.5014 687.741 L40.9285 687.741 Q36.8862 687.741 34.6901 690.414 Q32.4621 693.056 32.4621 697.862 Q32.4621 700.918 33.1941 703.814 Q33.9262 706.711 35.3903 709.384 L29.9795 709.384 Q28.7381 706.169 28.1334 703.146 Q27.4968 700.122 27.4968 697.257 Q27.4968 689.523 31.5072 685.704 Q35.5176 681.884 43.6657 681.884 Z" fill="#000000" fill-rule="nonzero" fill-opacity="1" /><path clip-path="url(#clip850)" d="M14.5426 670.744 L14.5426 665.652 Q22.0542 660.877 29.2474 658.522 Q36.4406 656.135 43.5384 656.135 Q50.668 656.135 57.8931 658.522 Q65.1182 660.877 72.5979 665.652 L72.5979 670.744 Q65.3091 666.511 58.1159 664.442 Q50.8908 662.342 43.5384 662.342 Q36.186 662.342 29.0246 664.442 Q21.8632 666.511 14.5426 670.744 Z" fill="#000000" fill-rule="nonzero" fill-opacity="1" /><polyline clip-path="url(#clip851)" style="stroke:#009af9; stroke-linecap:round; stroke-linejoin:round; stroke-width:4; stroke-opacity:1; fill:none" points="309.359,1419.97 309.359,651.972 "/>
<polyline clip-path="url(#clip851)" style="stroke:#009af9; stroke-linecap:round; stroke-linejoin:round; stroke-width:4; stroke-opacity:1; fill:none" points="2293.24,325.923 2293.24,89.8529 "/>
<line clip-path="url(#clip851)" x1="325.359" y1="1419.97" x2="293.359" y2="1419.97" style="stroke:#009af9; stroke-width:4; stroke-opacity:1"/>
<line clip-path="url(#clip851)" x1="325.359" y1="651.972" x2="293.359" y2="651.972" style="stroke:#009af9; stroke-width:4; stroke-opacity:1"/>
<line clip-path="url(#clip851)" x1="2309.24" y1="325.923" x2="2277.24" y2="325.923" style="stroke:#009af9; stroke-width:4; stroke-opacity:1"/>
<line clip-path="url(#clip851)" x1="2309.24" y1="89.8529" x2="2277.24" y2="89.8529" style="stroke:#009af9; stroke-width:4; stroke-opacity:1"/>
<circle clip-path="url(#clip851)" cx="309.359" cy="1035.97" r="14.4" fill="#009af9" fill-rule="evenodd" fill-opacity="1" stroke="none"/>
<circle clip-path="url(#clip851)" cx="2293.24" cy="207.888" r="14.4" fill="#009af9" fill-rule="evenodd" fill-opacity="1" stroke="none"/>
<path clip-path="url(#clip851)" d="M309.359 1510.15 L2293.24 1510.15 L2293.24 682.545 L309.359 682.545  Z" fill="#e26f46" fill-rule="evenodd" fill-opacity="0.6"/>
<polyline clip-path="url(#clip851)" style="stroke:#e26f46; stroke-linecap:round; stroke-linejoin:round; stroke-width:4; stroke-opacity:0; fill:none" points="309.359,1510.15 2293.24,1510.15 "/>
<polyline clip-path="url(#clip851)" style="stroke:#000000; stroke-linecap:round; stroke-linejoin:round; stroke-width:4; stroke-opacity:1; fill:none" stroke-dasharray="2, 4" points="309.359,1059.09 2293.24,1059.09 "/>
<path clip-path="url(#clip850)" d="M319.94 252.948 L1326.11 252.948 L1326.11 97.4278 L319.94 97.4278  Z" fill="#ffffff" fill-rule="evenodd" fill-opacity="1"/>
<polyline clip-path="url(#clip850)" style="stroke:#ffffff; stroke-linecap:round; stroke-linejoin:round; stroke-width:4; stroke-opacity:1; fill:none" points="319.94,252.948 1326.11,252.948 1326.11,97.4278 319.94,97.4278 319.94,252.948 "/>
<circle clip-path="url(#clip850)" cx="413.403" cy="149.268" r="20.48" fill="#009af9" fill-rule="evenodd" fill-opacity="1" stroke="none"/>
<path clip-path="url(#clip850)" d="M511.542 135.83 L511.542 162.705 L517.19 162.705 Q524.342 162.705 527.653 159.465 Q530.986 156.224 530.986 149.233 Q530.986 142.289 527.653 139.071 Q524.342 135.83 517.19 135.83 L511.542 135.83 M506.866 131.988 L516.472 131.988 Q526.518 131.988 531.217 136.178 Q535.916 140.344 535.916 149.233 Q535.916 158.168 531.194 162.358 Q526.472 166.548 516.472 166.548 L506.866 166.548 L506.866 131.988 Z" fill="#000000" fill-rule="nonzero" fill-opacity="1" /><path clip-path="url(#clip850)" d="M554.967 153.515 Q549.805 153.515 547.815 154.696 Q545.824 155.877 545.824 158.724 Q545.824 160.992 547.305 162.335 Q548.81 163.654 551.379 163.654 Q554.921 163.654 557.051 161.154 Q559.203 158.631 559.203 154.465 L559.203 153.515 L554.967 153.515 M563.463 151.756 L563.463 166.548 L559.203 166.548 L559.203 162.613 Q557.745 164.974 555.569 166.108 Q553.393 167.219 550.245 167.219 Q546.264 167.219 543.902 164.997 Q541.565 162.752 541.565 159.002 Q541.565 154.627 544.481 152.404 Q547.421 150.182 553.231 150.182 L559.203 150.182 L559.203 149.766 Q559.203 146.826 557.259 145.228 Q555.338 143.608 551.842 143.608 Q549.62 143.608 547.514 144.141 Q545.407 144.673 543.463 145.738 L543.463 141.803 Q545.801 140.9 548 140.46 Q550.199 139.997 552.282 139.997 Q557.907 139.997 560.685 142.914 Q563.463 145.83 563.463 151.756 Z" fill="#000000" fill-rule="nonzero" fill-opacity="1" /><path clip-path="url(#clip850)" d="M576.449 133.261 L576.449 140.622 L585.222 140.622 L585.222 143.932 L576.449 143.932 L576.449 158.006 Q576.449 161.177 577.305 162.08 Q578.185 162.983 580.847 162.983 L585.222 162.983 L585.222 166.548 L580.847 166.548 Q575.916 166.548 574.041 164.719 Q572.166 162.867 572.166 158.006 L572.166 143.932 L569.041 143.932 L569.041 140.622 L572.166 140.622 L572.166 133.261 L576.449 133.261 Z" fill="#000000" fill-rule="nonzero" fill-opacity="1" /><path clip-path="url(#clip850)" d="M602.606 153.515 Q597.444 153.515 595.453 154.696 Q593.462 155.877 593.462 158.724 Q593.462 160.992 594.944 162.335 Q596.449 163.654 599.018 163.654 Q602.56 163.654 604.689 161.154 Q606.842 158.631 606.842 154.465 L606.842 153.515 L602.606 153.515 M611.101 151.756 L611.101 166.548 L606.842 166.548 L606.842 162.613 Q605.384 164.974 603.208 166.108 Q601.032 167.219 597.884 167.219 Q593.902 167.219 591.541 164.997 Q589.203 162.752 589.203 159.002 Q589.203 154.627 592.12 152.404 Q595.06 150.182 600.87 150.182 L606.842 150.182 L606.842 149.766 Q606.842 146.826 604.898 145.228 Q602.976 143.608 599.481 143.608 Q597.259 143.608 595.152 144.141 Q593.046 144.673 591.101 145.738 L591.101 141.803 Q593.439 140.9 595.638 140.46 Q597.837 139.997 599.921 139.997 Q605.546 139.997 608.323 142.914 Q611.101 145.83 611.101 151.756 Z" fill="#000000" fill-rule="nonzero" fill-opacity="1" /><path clip-path="url(#clip850)" d="M645.175 130.576 Q642.073 135.9 640.569 141.108 Q639.064 146.316 639.064 151.664 Q639.064 157.011 640.569 162.265 Q642.096 167.497 645.175 172.798 L641.471 172.798 Q637.999 167.358 636.263 162.103 Q634.55 156.849 634.55 151.664 Q634.55 146.502 636.263 141.27 Q637.976 136.039 641.471 130.576 L645.175 130.576 Z" fill="#000000" fill-rule="nonzero" fill-opacity="1" /><path clip-path="url(#clip850)" d="M663.485 143.608 Q660.059 143.608 658.069 146.293 Q656.078 148.955 656.078 153.608 Q656.078 158.261 658.045 160.946 Q660.036 163.608 663.485 163.608 Q666.888 163.608 668.879 160.923 Q670.869 158.238 670.869 153.608 Q670.869 149.002 668.879 146.316 Q666.888 143.608 663.485 143.608 M663.485 139.997 Q669.041 139.997 672.212 143.608 Q675.383 147.219 675.383 153.608 Q675.383 159.974 672.212 163.608 Q669.041 167.219 663.485 167.219 Q657.907 167.219 654.735 163.608 Q651.587 159.974 651.587 153.608 Q651.587 147.219 654.735 143.608 Q657.907 139.997 663.485 139.997 Z" fill="#000000" fill-rule="nonzero" fill-opacity="1" /><path clip-path="url(#clip850)" d="M701.054 153.608 Q701.054 148.909 699.11 146.247 Q697.189 143.562 693.809 143.562 Q690.429 143.562 688.485 146.247 Q686.564 148.909 686.564 153.608 Q686.564 158.307 688.485 160.992 Q690.429 163.654 693.809 163.654 Q697.189 163.654 699.11 160.992 Q701.054 158.307 701.054 153.608 M686.564 144.557 Q687.906 142.242 689.943 141.131 Q692.004 139.997 694.851 139.997 Q699.573 139.997 702.513 143.747 Q705.476 147.497 705.476 153.608 Q705.476 159.719 702.513 163.469 Q699.573 167.219 694.851 167.219 Q692.004 167.219 689.943 166.108 Q687.906 164.974 686.564 162.659 L686.564 166.548 L682.281 166.548 L682.281 130.529 L686.564 130.529 L686.564 144.557 Z" fill="#000000" fill-rule="nonzero" fill-opacity="1" /><path clip-path="url(#clip850)" d="M729.064 141.386 L729.064 145.414 Q727.258 144.488 725.314 144.025 Q723.369 143.562 721.286 143.562 Q718.115 143.562 716.517 144.534 Q714.943 145.506 714.943 147.451 Q714.943 148.932 716.077 149.789 Q717.212 150.622 720.638 151.386 L722.096 151.71 Q726.633 152.682 728.531 154.465 Q730.452 156.224 730.452 159.395 Q730.452 163.006 727.582 165.113 Q724.735 167.219 719.735 167.219 Q717.652 167.219 715.383 166.802 Q713.138 166.409 710.638 165.599 L710.638 161.201 Q712.999 162.427 715.29 163.052 Q717.582 163.654 719.827 163.654 Q722.837 163.654 724.457 162.636 Q726.077 161.594 726.077 159.719 Q726.077 157.983 724.897 157.057 Q723.739 156.131 719.781 155.275 L718.3 154.928 Q714.341 154.094 712.582 152.381 Q710.823 150.645 710.823 147.636 Q710.823 143.978 713.415 141.988 Q716.008 139.997 720.777 139.997 Q723.138 139.997 725.221 140.344 Q727.304 140.691 729.064 141.386 Z" fill="#000000" fill-rule="nonzero" fill-opacity="1" /><path clip-path="url(#clip850)" d="M759.411 152.52 L759.411 154.603 L739.827 154.603 Q740.105 159.002 742.466 161.316 Q744.85 163.608 749.087 163.608 Q751.54 163.608 753.832 163.006 Q756.147 162.404 758.415 161.201 L758.415 165.228 Q756.124 166.201 753.716 166.71 Q751.309 167.219 748.832 167.219 Q742.628 167.219 738.994 163.608 Q735.383 159.997 735.383 153.84 Q735.383 147.474 738.809 143.747 Q742.258 139.997 748.091 139.997 Q753.323 139.997 756.355 143.377 Q759.411 146.733 759.411 152.52 M755.151 151.27 Q755.105 147.775 753.184 145.691 Q751.286 143.608 748.138 143.608 Q744.573 143.608 742.42 145.622 Q740.29 147.636 739.966 151.293 L755.151 151.27 Z" fill="#000000" fill-rule="nonzero" fill-opacity="1" /><path clip-path="url(#clip850)" d="M781.424 144.603 Q780.707 144.187 779.85 144.002 Q779.017 143.793 777.998 143.793 Q774.387 143.793 772.443 146.154 Q770.522 148.492 770.522 152.89 L770.522 166.548 L766.239 166.548 L766.239 140.622 L770.522 140.622 L770.522 144.65 Q771.864 142.289 774.017 141.154 Q776.17 139.997 779.248 139.997 Q779.688 139.997 780.221 140.066 Q780.753 140.113 781.401 140.229 L781.424 144.603 Z" fill="#000000" fill-rule="nonzero" fill-opacity="1" /><path clip-path="url(#clip850)" d="M782.836 140.622 L787.35 140.622 L795.452 162.381 L803.554 140.622 L808.068 140.622 L798.346 166.548 L792.559 166.548 L782.836 140.622 Z" fill="#000000" fill-rule="nonzero" fill-opacity="1" /><path clip-path="url(#clip850)" d="M836.123 152.52 L836.123 154.603 L816.54 154.603 Q816.818 159.002 819.179 161.316 Q821.563 163.608 825.799 163.608 Q828.253 163.608 830.544 163.006 Q832.859 162.404 835.128 161.201 L835.128 165.228 Q832.836 166.201 830.429 166.71 Q828.021 167.219 825.544 167.219 Q819.341 167.219 815.707 163.608 Q812.095 159.997 812.095 153.84 Q812.095 147.474 815.521 143.747 Q818.97 139.997 824.804 139.997 Q830.035 139.997 833.068 143.377 Q836.123 146.733 836.123 152.52 M831.864 151.27 Q831.818 147.775 829.896 145.691 Q827.998 143.608 824.85 143.608 Q821.285 143.608 819.132 145.622 Q817.003 147.636 816.679 151.293 L831.864 151.27 Z" fill="#000000" fill-rule="nonzero" fill-opacity="1" /><path clip-path="url(#clip850)" d="M860.174 144.557 L860.174 130.529 L864.433 130.529 L864.433 166.548 L860.174 166.548 L860.174 162.659 Q858.831 164.974 856.771 166.108 Q854.734 167.219 851.864 167.219 Q847.165 167.219 844.202 163.469 Q841.262 159.719 841.262 153.608 Q841.262 147.497 844.202 143.747 Q847.165 139.997 851.864 139.997 Q854.734 139.997 856.771 141.131 Q858.831 142.242 860.174 144.557 M845.66 153.608 Q845.66 158.307 847.581 160.992 Q849.526 163.654 852.905 163.654 Q856.285 163.654 858.23 160.992 Q860.174 158.307 860.174 153.608 Q860.174 148.909 858.23 146.247 Q856.285 143.562 852.905 143.562 Q849.526 143.562 847.581 146.247 Q845.66 148.909 845.66 153.608 Z" fill="#000000" fill-rule="nonzero" fill-opacity="1" /><path clip-path="url(#clip850)" d="M900.058 153.515 Q894.896 153.515 892.905 154.696 Q890.915 155.877 890.915 158.724 Q890.915 160.992 892.396 162.335 Q893.901 163.654 896.47 163.654 Q900.012 163.654 902.141 161.154 Q904.294 158.631 904.294 154.465 L904.294 153.515 L900.058 153.515 M908.553 151.756 L908.553 166.548 L904.294 166.548 L904.294 162.613 Q902.836 164.974 900.66 166.108 Q898.484 167.219 895.336 167.219 Q891.354 167.219 888.993 164.997 Q886.655 162.752 886.655 159.002 Q886.655 154.627 889.572 152.404 Q892.512 150.182 898.322 150.182 L904.294 150.182 L904.294 149.766 Q904.294 146.826 902.35 145.228 Q900.428 143.608 896.933 143.608 Q894.711 143.608 892.604 144.141 Q890.498 144.673 888.553 145.738 L888.553 141.803 Q890.891 140.9 893.09 140.46 Q895.289 139.997 897.373 139.997 Q902.998 139.997 905.776 142.914 Q908.553 145.83 908.553 151.756 Z" fill="#000000" fill-rule="nonzero" fill-opacity="1" /><path clip-path="url(#clip850)" d="M934.387 153.284 Q934.387 148.654 932.465 146.108 Q930.567 143.562 927.118 143.562 Q923.692 143.562 921.771 146.108 Q919.873 148.654 919.873 153.284 Q919.873 157.89 921.771 160.437 Q923.692 162.983 927.118 162.983 Q930.567 162.983 932.465 160.437 Q934.387 157.89 934.387 153.284 M938.646 163.33 Q938.646 169.951 935.706 173.168 Q932.766 176.409 926.701 176.409 Q924.456 176.409 922.465 176.062 Q920.475 175.738 918.6 175.043 L918.6 170.9 Q920.475 171.918 922.303 172.404 Q924.132 172.89 926.03 172.89 Q930.22 172.89 932.303 170.691 Q934.387 168.515 934.387 164.094 L934.387 161.988 Q933.067 164.279 931.007 165.414 Q928.947 166.548 926.076 166.548 Q921.308 166.548 918.391 162.914 Q915.475 159.279 915.475 153.284 Q915.475 147.266 918.391 143.631 Q921.308 139.997 926.076 139.997 Q928.947 139.997 931.007 141.131 Q933.067 142.266 934.387 144.557 L934.387 140.622 L938.646 140.622 L938.646 163.33 Z" fill="#000000" fill-rule="nonzero" fill-opacity="1" /><path clip-path="url(#clip850)" d="M969.595 152.52 L969.595 154.603 L950.011 154.603 Q950.289 159.002 952.65 161.316 Q955.035 163.608 959.271 163.608 Q961.724 163.608 964.016 163.006 Q966.331 162.404 968.599 161.201 L968.599 165.228 Q966.308 166.201 963.9 166.71 Q961.493 167.219 959.016 167.219 Q952.812 167.219 949.178 163.608 Q945.567 159.997 945.567 153.84 Q945.567 147.474 948.993 143.747 Q952.442 139.997 958.275 139.997 Q963.507 139.997 966.539 143.377 Q969.595 146.733 969.595 152.52 M965.335 151.27 Q965.289 147.775 963.368 145.691 Q961.47 143.608 958.322 143.608 Q954.757 143.608 952.604 145.622 Q950.474 147.636 950.15 151.293 L965.335 151.27 Z" fill="#000000" fill-rule="nonzero" fill-opacity="1" /><path clip-path="url(#clip850)" d="M993.113 141.386 L993.113 145.414 Q991.307 144.488 989.363 144.025 Q987.419 143.562 985.335 143.562 Q982.164 143.562 980.567 144.534 Q978.993 145.506 978.993 147.451 Q978.993 148.932 980.127 149.789 Q981.261 150.622 984.687 151.386 L986.145 151.71 Q990.683 152.682 992.581 154.465 Q994.502 156.224 994.502 159.395 Q994.502 163.006 991.632 165.113 Q988.784 167.219 983.784 167.219 Q981.701 167.219 979.433 166.802 Q977.187 166.409 974.687 165.599 L974.687 161.201 Q977.048 162.427 979.34 163.052 Q981.632 163.654 983.877 163.654 Q986.886 163.654 988.507 162.636 Q990.127 161.594 990.127 159.719 Q990.127 157.983 988.946 157.057 Q987.789 156.131 983.831 155.275 L982.349 154.928 Q978.391 154.094 976.632 152.381 Q974.872 150.645 974.872 147.636 Q974.872 143.978 977.465 141.988 Q980.058 139.997 984.826 139.997 Q987.187 139.997 989.27 140.344 Q991.354 140.691 993.113 141.386 Z" fill="#000000" fill-rule="nonzero" fill-opacity="1" /><path clip-path="url(#clip850)" d="M1000.61 130.576 L1004.32 130.576 Q1007.79 136.039 1009.5 141.27 Q1011.24 146.502 1011.24 151.664 Q1011.24 156.849 1009.5 162.103 Q1007.79 167.358 1004.32 172.798 L1000.61 172.798 Q1003.69 167.497 1005.2 162.265 Q1006.72 157.011 1006.72 151.664 Q1006.72 146.316 1005.2 141.108 Q1003.69 135.9 1000.61 130.576 Z" fill="#000000" fill-rule="nonzero" fill-opacity="1" /><path clip-path="url(#clip850)" d="M343.306 221.844 L483.5 221.844 L483.5 180.372 L343.306 180.372 L343.306 221.844  Z" fill="#e26f46" fill-rule="evenodd" fill-opacity="0.6"/>
<polyline clip-path="url(#clip850)" style="stroke:#e26f46; stroke-linecap:round; stroke-linejoin:round; stroke-width:4; stroke-opacity:0; fill:none" points="343.306,180.372 483.5,180.372 "/>
<path clip-path="url(#clip850)" d="M506.866 183.828 L513.833 183.828 L522.653 207.346 L531.518 183.828 L538.486 183.828 L538.486 218.388 L533.926 218.388 L533.926 188.041 L525.014 211.744 L520.315 211.744 L511.403 188.041 L511.403 218.388 L506.866 218.388 L506.866 183.828 Z" fill="#000000" fill-rule="nonzero" fill-opacity="1" /><path clip-path="url(#clip850)" d="M557.629 195.448 Q554.203 195.448 552.213 198.133 Q550.222 200.795 550.222 205.448 Q550.222 210.101 552.189 212.786 Q554.18 215.448 557.629 215.448 Q561.032 215.448 563.023 212.763 Q565.013 210.078 565.013 205.448 Q565.013 200.842 563.023 198.156 Q561.032 195.448 557.629 195.448 M557.629 191.837 Q563.185 191.837 566.356 195.448 Q569.527 199.059 569.527 205.448 Q569.527 211.814 566.356 215.448 Q563.185 219.059 557.629 219.059 Q552.051 219.059 548.879 215.448 Q545.731 211.814 545.731 205.448 Q545.731 199.059 548.879 195.448 Q552.051 191.837 557.629 191.837 Z" fill="#000000" fill-rule="nonzero" fill-opacity="1" /><path clip-path="url(#clip850)" d="M593.648 196.397 L593.648 182.369 L597.907 182.369 L597.907 218.388 L593.648 218.388 L593.648 214.499 Q592.305 216.814 590.245 217.948 Q588.208 219.059 585.337 219.059 Q580.638 219.059 577.675 215.309 Q574.736 211.559 574.736 205.448 Q574.736 199.337 577.675 195.587 Q580.638 191.837 585.337 191.837 Q588.208 191.837 590.245 192.971 Q592.305 194.082 593.648 196.397 M579.134 205.448 Q579.134 210.147 581.055 212.832 Q583 215.494 586.379 215.494 Q589.759 215.494 591.703 212.832 Q593.648 210.147 593.648 205.448 Q593.648 200.749 591.703 198.087 Q589.759 195.402 586.379 195.402 Q583 195.402 581.055 198.087 Q579.134 200.749 579.134 205.448 Z" fill="#000000" fill-rule="nonzero" fill-opacity="1" /><path clip-path="url(#clip850)" d="M628.856 204.36 L628.856 206.443 L609.273 206.443 Q609.55 210.842 611.911 213.156 Q614.296 215.448 618.532 215.448 Q620.985 215.448 623.277 214.846 Q625.592 214.244 627.86 213.041 L627.86 217.068 Q625.569 218.041 623.161 218.55 Q620.754 219.059 618.277 219.059 Q612.073 219.059 608.439 215.448 Q604.828 211.837 604.828 205.68 Q604.828 199.314 608.254 195.587 Q611.703 191.837 617.536 191.837 Q622.768 191.837 625.8 195.217 Q628.856 198.573 628.856 204.36 M624.597 203.11 Q624.55 199.615 622.629 197.531 Q620.731 195.448 617.583 195.448 Q614.018 195.448 611.865 197.462 Q609.735 199.476 609.411 203.133 L624.597 203.11 Z" fill="#000000" fill-rule="nonzero" fill-opacity="1" /><path clip-path="url(#clip850)" d="M635.846 182.369 L640.106 182.369 L640.106 218.388 L635.846 218.388 L635.846 182.369 Z" fill="#000000" fill-rule="nonzero" fill-opacity="1" /><path clip-path="url(#clip850)" d="M674.318 182.416 Q671.217 187.74 669.712 192.948 Q668.207 198.156 668.207 203.504 Q668.207 208.851 669.712 214.105 Q671.24 219.337 674.318 224.638 L670.615 224.638 Q667.143 219.198 665.406 213.943 Q663.694 208.689 663.694 203.504 Q663.694 198.342 665.406 193.11 Q667.119 187.879 670.615 182.416 L674.318 182.416 Z" fill="#000000" fill-rule="nonzero" fill-opacity="1" /><path clip-path="url(#clip850)" d="M693.763 199.244 Q690.615 199.244 688.763 201.397 Q686.934 203.55 686.934 207.3 Q686.934 211.027 688.763 213.203 Q690.615 215.355 693.763 215.355 Q696.911 215.355 698.74 213.203 Q700.591 211.027 700.591 207.3 Q700.591 203.55 698.74 201.397 Q696.911 199.244 693.763 199.244 M703.045 184.592 L703.045 188.851 Q701.286 188.018 699.48 187.578 Q697.698 187.138 695.939 187.138 Q691.309 187.138 688.855 190.263 Q686.425 193.388 686.078 199.707 Q687.443 197.693 689.504 196.629 Q691.564 195.541 694.041 195.541 Q699.249 195.541 702.258 198.712 Q705.291 201.86 705.291 207.3 Q705.291 212.624 702.142 215.842 Q698.994 219.059 693.763 219.059 Q687.767 219.059 684.596 214.476 Q681.425 209.869 681.425 201.143 Q681.425 192.948 685.314 188.087 Q689.203 183.203 695.754 183.203 Q697.513 183.203 699.295 183.55 Q701.101 183.897 703.045 184.592 Z" fill="#000000" fill-rule="nonzero" fill-opacity="1" /><path clip-path="url(#clip850)" d="M723.925 199.244 Q720.777 199.244 718.925 201.397 Q717.096 203.55 717.096 207.3 Q717.096 211.027 718.925 213.203 Q720.777 215.355 723.925 215.355 Q727.073 215.355 728.901 213.203 Q730.753 211.027 730.753 207.3 Q730.753 203.55 728.901 201.397 Q727.073 199.244 723.925 199.244 M733.207 184.592 L733.207 188.851 Q731.448 188.018 729.642 187.578 Q727.86 187.138 726.101 187.138 Q721.471 187.138 719.017 190.263 Q716.587 193.388 716.24 199.707 Q717.605 197.693 719.665 196.629 Q721.726 195.541 724.202 195.541 Q729.411 195.541 732.42 198.712 Q735.452 201.86 735.452 207.3 Q735.452 212.624 732.304 215.842 Q729.156 219.059 723.925 219.059 Q717.929 219.059 714.758 214.476 Q711.587 209.869 711.587 201.143 Q711.587 192.948 715.476 188.087 Q719.365 183.203 725.915 183.203 Q727.675 183.203 729.457 183.55 Q731.263 183.897 733.207 184.592 Z" fill="#000000" fill-rule="nonzero" fill-opacity="1" /><path clip-path="url(#clip850)" d="M743.508 212.508 L748.392 212.508 L748.392 218.388 L743.508 218.388 L743.508 212.508 Z" fill="#000000" fill-rule="nonzero" fill-opacity="1" /><path clip-path="url(#clip850)" d="M772.744 199.754 Q776.1 200.471 777.975 202.74 Q779.873 205.008 779.873 208.342 Q779.873 213.457 776.355 216.258 Q772.836 219.059 766.355 219.059 Q764.179 219.059 761.864 218.619 Q759.573 218.203 757.119 217.346 L757.119 212.832 Q759.063 213.967 761.378 214.545 Q763.693 215.124 766.216 215.124 Q770.614 215.124 772.906 213.388 Q775.221 211.652 775.221 208.342 Q775.221 205.286 773.068 203.573 Q770.938 201.837 767.119 201.837 L763.091 201.837 L763.091 197.994 L767.304 197.994 Q770.753 197.994 772.582 196.629 Q774.411 195.24 774.411 192.647 Q774.411 189.985 772.512 188.573 Q770.637 187.138 767.119 187.138 Q765.198 187.138 762.999 187.555 Q760.799 187.971 758.161 188.851 L758.161 184.684 Q760.823 183.944 763.137 183.573 Q765.475 183.203 767.536 183.203 Q772.86 183.203 775.961 185.633 Q779.063 188.041 779.063 192.161 Q779.063 195.031 777.42 197.022 Q775.776 198.99 772.744 199.754 Z" fill="#000000" fill-rule="nonzero" fill-opacity="1" /><path clip-path="url(#clip850)" d="M789.549 214.453 L797.188 214.453 L797.188 188.087 L788.878 189.754 L788.878 185.494 L797.142 183.828 L801.818 183.828 L801.818 214.453 L809.457 214.453 L809.457 218.388 L789.549 218.388 L789.549 214.453 Z" fill="#000000" fill-rule="nonzero" fill-opacity="1" /><path clip-path="url(#clip850)" d="M831.748 187.902 L819.943 206.351 L831.748 206.351 L831.748 187.902 M830.521 183.828 L836.401 183.828 L836.401 206.351 L841.331 206.351 L841.331 210.24 L836.401 210.24 L836.401 218.388 L831.748 218.388 L831.748 210.24 L816.146 210.24 L816.146 205.726 L830.521 183.828 Z" fill="#000000" fill-rule="nonzero" fill-opacity="1" /><path clip-path="url(#clip850)" d="M880.868 188.666 L880.868 201.559 L893.762 201.559 L893.762 205.494 L880.868 205.494 L880.868 218.388 L876.979 218.388 L876.979 205.494 L864.086 205.494 L864.086 201.559 L876.979 201.559 L876.979 188.666 L880.868 188.666 Z" fill="#000000" fill-rule="nonzero" fill-opacity="1" /><path clip-path="url(#clip850)" d="M913.854 186.907 Q910.243 186.907 908.414 190.471 Q906.609 194.013 906.609 201.143 Q906.609 208.249 908.414 211.814 Q910.243 215.355 913.854 215.355 Q917.488 215.355 919.294 211.814 Q921.123 208.249 921.123 201.143 Q921.123 194.013 919.294 190.471 Q917.488 186.907 913.854 186.907 M913.854 183.203 Q919.664 183.203 922.72 187.809 Q925.799 192.393 925.799 201.143 Q925.799 209.869 922.72 214.476 Q919.664 219.059 913.854 219.059 Q908.044 219.059 904.965 214.476 Q901.91 209.869 901.91 201.143 Q901.91 192.393 904.965 187.809 Q908.044 183.203 913.854 183.203 Z" fill="#000000" fill-rule="nonzero" fill-opacity="1" /><path clip-path="url(#clip850)" d="M934.016 212.508 L938.9 212.508 L938.9 218.388 L934.016 218.388 L934.016 212.508 Z" fill="#000000" fill-rule="nonzero" fill-opacity="1" /><path clip-path="url(#clip850)" d="M953.113 214.453 L969.433 214.453 L969.433 218.388 L947.488 218.388 L947.488 214.453 Q950.15 211.698 954.734 207.068 Q959.34 202.416 960.521 201.073 Q962.766 198.55 963.646 196.814 Q964.548 195.055 964.548 193.365 Q964.548 190.61 962.604 188.874 Q960.683 187.138 957.581 187.138 Q955.382 187.138 952.928 187.902 Q950.498 188.666 947.72 190.217 L947.72 185.494 Q950.544 184.36 952.998 183.782 Q955.451 183.203 957.488 183.203 Q962.859 183.203 966.053 185.888 Q969.247 188.573 969.247 193.064 Q969.247 195.194 968.437 197.115 Q967.65 199.013 965.544 201.606 Q964.965 202.277 961.863 205.494 Q958.761 208.689 953.113 214.453 Z" fill="#000000" fill-rule="nonzero" fill-opacity="1" /><path clip-path="url(#clip850)" d="M993.414 199.754 Q996.77 200.471 998.645 202.74 Q1000.54 205.008 1000.54 208.342 Q1000.54 213.457 997.025 216.258 Q993.507 219.059 987.025 219.059 Q984.849 219.059 982.534 218.619 Q980.243 218.203 977.789 217.346 L977.789 212.832 Q979.733 213.967 982.048 214.545 Q984.363 215.124 986.886 215.124 Q991.284 215.124 993.576 213.388 Q995.891 211.652 995.891 208.342 Q995.891 205.286 993.738 203.573 Q991.608 201.837 987.789 201.837 L983.761 201.837 L983.761 197.994 L987.974 197.994 Q991.423 197.994 993.252 196.629 Q995.081 195.24 995.081 192.647 Q995.081 189.985 993.182 188.573 Q991.307 187.138 987.789 187.138 Q985.868 187.138 983.669 187.555 Q981.47 187.971 978.831 188.851 L978.831 184.684 Q981.493 183.944 983.808 183.573 Q986.145 183.203 988.206 183.203 Q993.53 183.203 996.632 185.633 Q999.733 188.041 999.733 192.161 Q999.733 195.031 998.09 197.022 Q996.446 198.99 993.414 199.754 Z" fill="#000000" fill-rule="nonzero" fill-opacity="1" /><path clip-path="url(#clip850)" d="M1010.22 214.453 L1017.86 214.453 L1017.86 188.087 L1009.55 189.754 L1009.55 185.494 L1017.81 183.828 L1022.49 183.828 L1022.49 214.453 L1030.13 214.453 L1030.13 218.388 L1010.22 218.388 L1010.22 214.453 Z" fill="#000000" fill-rule="nonzero" fill-opacity="1" /><path clip-path="url(#clip850)" d="M1046.54 183.828 L1050.47 183.828 L1038.44 222.786 L1034.5 222.786 L1046.54 183.828 Z" fill="#000000" fill-rule="nonzero" fill-opacity="1" /><path clip-path="url(#clip850)" d="M1052.79 203.504 L1065.27 203.504 L1065.27 207.3 L1052.79 207.3 L1052.79 203.504 Z" fill="#000000" fill-rule="nonzero" fill-opacity="1" /><path clip-path="url(#clip850)" d="M1082.65 186.907 Q1079.04 186.907 1077.21 190.471 Q1075.4 194.013 1075.4 201.143 Q1075.4 208.249 1077.21 211.814 Q1079.04 215.355 1082.65 215.355 Q1086.28 215.355 1088.09 211.814 Q1089.92 208.249 1089.92 201.143 Q1089.92 194.013 1088.09 190.471 Q1086.28 186.907 1082.65 186.907 M1082.65 183.203 Q1088.46 183.203 1091.52 187.809 Q1094.59 192.393 1094.59 201.143 Q1094.59 209.869 1091.52 214.476 Q1088.46 219.059 1082.65 219.059 Q1076.84 219.059 1073.76 214.476 Q1070.71 209.869 1070.71 201.143 Q1070.71 192.393 1073.76 187.809 Q1076.84 183.203 1082.65 183.203 Z" fill="#000000" fill-rule="nonzero" fill-opacity="1" /><path clip-path="url(#clip850)" d="M1102.81 212.508 L1107.7 212.508 L1107.7 218.388 L1102.81 218.388 L1102.81 212.508 Z" fill="#000000" fill-rule="nonzero" fill-opacity="1" /><path clip-path="url(#clip850)" d="M1121.91 214.453 L1138.23 214.453 L1138.23 218.388 L1116.28 218.388 L1116.28 214.453 Q1118.95 211.698 1123.53 207.068 Q1128.14 202.416 1129.32 201.073 Q1131.56 198.55 1132.44 196.814 Q1133.34 195.055 1133.34 193.365 Q1133.34 190.61 1131.4 188.874 Q1129.48 187.138 1126.38 187.138 Q1124.18 187.138 1121.72 187.902 Q1119.29 188.666 1116.52 190.217 L1116.52 185.494 Q1119.34 184.36 1121.79 183.782 Q1124.25 183.203 1126.28 183.203 Q1131.65 183.203 1134.85 185.888 Q1138.04 188.573 1138.04 193.064 Q1138.04 195.194 1137.23 197.115 Q1136.45 199.013 1134.34 201.606 Q1133.76 202.277 1130.66 205.494 Q1127.56 208.689 1121.91 214.453 Z" fill="#000000" fill-rule="nonzero" fill-opacity="1" /><path clip-path="url(#clip850)" d="M1146.86 183.828 L1169.08 183.828 L1169.08 185.819 L1156.54 218.388 L1151.65 218.388 L1163.46 187.763 L1146.86 187.763 L1146.86 183.828 Z" fill="#000000" fill-rule="nonzero" fill-opacity="1" /><path clip-path="url(#clip850)" d="M1177.02 183.828 L1199.25 183.828 L1199.25 185.819 L1186.7 218.388 L1181.82 218.388 L1193.62 187.763 L1177.02 187.763 L1177.02 183.828 Z" fill="#000000" fill-rule="nonzero" fill-opacity="1" /><path clip-path="url(#clip850)" d="M1223.02 183.828 L1229.99 183.828 L1238.81 207.346 L1247.67 183.828 L1254.64 183.828 L1254.64 218.388 L1250.08 218.388 L1250.08 188.041 L1241.17 211.744 L1236.47 211.744 L1227.56 188.041 L1227.56 218.388 L1223.02 218.388 L1223.02 183.828 Z" fill="#000000" fill-rule="nonzero" fill-opacity="1" /><path clip-path="url(#clip850)" d="M1275.52 205.355 Q1270.36 205.355 1268.37 206.536 Q1266.38 207.717 1266.38 210.564 Q1266.38 212.832 1267.86 214.175 Q1269.36 215.494 1271.93 215.494 Q1275.47 215.494 1277.6 212.994 Q1279.76 210.471 1279.76 206.305 L1279.76 205.355 L1275.52 205.355 M1284.01 203.596 L1284.01 218.388 L1279.76 218.388 L1279.76 214.453 Q1278.3 216.814 1276.12 217.948 Q1273.94 219.059 1270.8 219.059 Q1266.82 219.059 1264.45 216.837 Q1262.12 214.592 1262.12 210.842 Q1262.12 206.467 1265.03 204.244 Q1267.97 202.022 1273.78 202.022 L1279.76 202.022 L1279.76 201.606 Q1279.76 198.666 1277.81 197.068 Q1275.89 195.448 1272.39 195.448 Q1270.17 195.448 1268.07 195.981 Q1265.96 196.513 1264.01 197.578 L1264.01 193.643 Q1266.35 192.74 1268.55 192.3 Q1270.75 191.837 1272.83 191.837 Q1278.46 191.837 1281.24 194.754 Q1284.01 197.67 1284.01 203.596 Z" fill="#000000" fill-rule="nonzero" fill-opacity="1" /><path clip-path="url(#clip850)" d="M1292.12 182.416 L1295.82 182.416 Q1299.29 187.879 1301 193.11 Q1302.74 198.342 1302.74 203.504 Q1302.74 208.689 1301 213.943 Q1299.29 219.198 1295.82 224.638 L1292.12 224.638 Q1295.19 219.337 1296.7 214.105 Q1298.23 208.851 1298.23 203.504 Q1298.23 198.156 1296.7 192.948 Q1295.19 187.74 1292.12 182.416 Z" fill="#000000" fill-rule="nonzero" fill-opacity="1" /></svg>
