<?xml version="1.0" encoding="utf-8"?>
<svg xmlns="http://www.w3.org/2000/svg" xmlns:xlink="http://www.w3.org/1999/xlink" width="600" height="400" viewBox="0 0 2400 1600">
<defs>
  <clipPath id="clip620">
    <rect x="0" y="0" width="2400" height="1600"/>
  </clipPath>
</defs>
<path clip-path="url(#clip620)" d="M0 1600 L2400 1600 L2400 8.88178e-14 L0 8.88178e-14  Z" fill="#ffffff" fill-rule="evenodd" fill-opacity="1"/>
<defs>
  <clipPath id="clip621">
    <rect x="249" y="47" width="2104" height="1507"/>
  </clipPath>
</defs>
<path clip-path="url(#clip620)" d="M200.63 1423.18 L2352.76 1423.18 L2352.76 47.2441 L200.63 47.2441  Z" fill="#ffffff" fill-rule="evenodd" fill-opacity="1"/>
<defs>
  <clipPath id="clip622">
    <rect x="200" y="47" width="2153" height="1377"/>
  </clipPath>
</defs>
<polyline clip-path="url(#clip622)" style="stroke:#000000; stroke-linecap:round; stroke-linejoin:round; stroke-width:2; stroke-opacity:0.1; fill:none" points="672.853,1423.18 672.853,47.2441 "/>
<polyline clip-path="url(#clip622)" style="stroke:#000000; stroke-linecap:round; stroke-linejoin:round; stroke-width:2; stroke-opacity:0.1; fill:none" points="1190.54,1423.18 1190.54,47.2441 "/>
<polyline clip-path="url(#clip622)" style="stroke:#000000; stroke-linecap:round; stroke-linejoin:round; stroke-width:2; stroke-opacity:0.1; fill:none" points="1708.22,1423.18 1708.22,47.2441 "/>
<polyline clip-path="url(#clip622)" style="stroke:#000000; stroke-linecap:round; stroke-linejoin:round; stroke-width:2; stroke-opacity:0.1; fill:none" points="2225.91,1423.18 2225.91,47.2441 "/>
<polyline clip-path="url(#clip622)" style="stroke:#000000; stroke-linecap:round; stroke-linejoin:round; stroke-width:2; stroke-opacity:0.1; fill:none" points="672.853,1423.18 672.853,47.2441 "/>
<polyline clip-path="url(#clip622)" style="stroke:#000000; stroke-linecap:round; stroke-linejoin:round; stroke-width:2; stroke-opacity:0.1; fill:none" points="1190.54,1423.18 1190.54,47.2441 "/>
<polyline clip-path="url(#clip622)" style="stroke:#000000; stroke-linecap:round; stroke-linejoin:round; stroke-width:2; stroke-opacity:0.1; fill:none" points="1708.22,1423.18 1708.22,47.2441 "/>
<polyline clip-path="url(#clip622)" style="stroke:#000000; stroke-linecap:round; stroke-linejoin:round; stroke-width:2; stroke-opacity:0.1; fill:none" points="2225.91,1423.18 2225.91,47.2441 "/>
<polyline clip-path="url(#clip622)" style="stroke:#000000; stroke-linecap:round; stroke-linejoin:round; stroke-width:2; stroke-opacity:0.1; fill:none" points="200.63,1384.24 2352.76,1384.24 "/>
<polyline clip-path="url(#clip622)" style="stroke:#000000; stroke-linecap:round; stroke-linejoin:round; stroke-width:2; stroke-opacity:0.1; fill:none" points="200.63,1111.64 2352.76,1111.64 "/>
<polyline clip-path="url(#clip622)" style="stroke:#000000; stroke-linecap:round; stroke-linejoin:round; stroke-width:2; stroke-opacity:0.1; fill:none" points="200.63,839.043 2352.76,839.043 "/>
<polyline clip-path="url(#clip622)" style="stroke:#000000; stroke-linecap:round; stroke-linejoin:round; stroke-width:2; stroke-opacity:0.1; fill:none" points="200.63,566.445 2352.76,566.445 "/>
<polyline clip-path="url(#clip622)" style="stroke:#000000; stroke-linecap:round; stroke-linejoin:round; stroke-width:2; stroke-opacity:0.1; fill:none" points="200.63,293.848 2352.76,293.848 "/>
<polyline clip-path="url(#clip622)" style="stroke:#000000; stroke-linecap:round; stroke-linejoin:round; stroke-width:2; stroke-opacity:0.1; fill:none" points="200.63,1384.24 2352.76,1384.24 "/>
<polyline clip-path="url(#clip622)" style="stroke:#000000; stroke-linecap:round; stroke-linejoin:round; stroke-width:2; stroke-opacity:0.1; fill:none" points="200.63,1111.64 2352.76,1111.64 "/>
<polyline clip-path="url(#clip622)" style="stroke:#000000; stroke-linecap:round; stroke-linejoin:round; stroke-width:2; stroke-opacity:0.1; fill:none" points="200.63,839.043 2352.76,839.043 "/>
<polyline clip-path="url(#clip622)" style="stroke:#000000; stroke-linecap:round; stroke-linejoin:round; stroke-width:2; stroke-opacity:0.1; fill:none" points="200.63,566.445 2352.76,566.445 "/>
<polyline clip-path="url(#clip622)" style="stroke:#000000; stroke-linecap:round; stroke-linejoin:round; stroke-width:2; stroke-opacity:0.1; fill:none" points="200.63,293.848 2352.76,293.848 "/>
<polyline clip-path="url(#clip620)" style="stroke:#000000; stroke-linecap:round; stroke-linejoin:round; stroke-width:4; stroke-opacity:1; fill:none" points="200.63,1423.18 2352.76,1423.18 "/>
<polyline clip-path="url(#clip620)" style="stroke:#000000; stroke-linecap:round; stroke-linejoin:round; stroke-width:4; stroke-opacity:1; fill:none" points="200.63,47.2441 2352.76,47.2441 "/>
<polyline clip-path="url(#clip620)" style="stroke:#000000; stroke-linecap:round; stroke-linejoin:round; stroke-width:4; stroke-opacity:1; fill:none" points="672.853,1423.18 672.853,1404.28 "/>
<polyline clip-path="url(#clip620)" style="stroke:#000000; stroke-linecap:round; stroke-linejoin:round; stroke-width:4; stroke-opacity:1; fill:none" points="1190.54,1423.18 1190.54,1404.28 "/>
<polyline clip-path="url(#clip620)" style="stroke:#000000; stroke-linecap:round; stroke-linejoin:round; stroke-width:4; stroke-opacity:1; fill:none" points="1708.22,1423.18 1708.22,1404.28 "/>
<polyline clip-path="url(#clip620)" style="stroke:#000000; stroke-linecap:round; stroke-linejoin:round; stroke-width:4; stroke-opacity:1; fill:none" points="2225.91,1423.18 2225.91,1404.28 "/>
<polyline clip-path="url(#clip620)" style="stroke:#000000; stroke-linecap:round; stroke-linejoin:round; stroke-width:4; stroke-opacity:1; fill:none" points="672.853,47.2441 672.853,66.1417 "/>
<polyline clip-path="url(#clip620)" style="stroke:#000000; stroke-linecap:round; stroke-linejoin:round; stroke-width:4; stroke-opacity:1; fill:none" points="1190.54,47.2441 1190.54,66.1417 "/>
<polyline clip-path="url(#clip620)" style="stroke:#000000; stroke-linecap:round; stroke-linejoin:round; stroke-width:4; stroke-opacity:1; fill:none" points="1708.22,47.2441 1708.22,66.1417 "/>
<polyline clip-path="url(#clip620)" style="stroke:#000000; stroke-linecap:round; stroke-linejoin:round; stroke-width:4; stroke-opacity:1; fill:none" points="2225.91,47.2441 2225.91,66.1417 "/>
<path clip-path="url(#clip620)" d="M636.14 1466.44 Q632.992 1466.44 631.14 1468.59 Q629.311 1470.74 629.311 1474.49 Q629.311 1478.22 631.14 1480.39 Q632.992 1482.55 636.14 1482.55 Q639.288 1482.55 641.117 1480.39 Q642.969 1478.22 642.969 1474.49 Q642.969 1470.74 641.117 1468.59 Q639.288 1466.44 636.14 1466.44 M645.422 1451.78 L645.422 1456.04 Q643.663 1455.21 641.858 1454.77 Q640.075 1454.33 638.316 1454.33 Q633.686 1454.33 631.233 1457.45 Q628.802 1460.58 628.455 1466.9 Q629.821 1464.89 631.881 1463.82 Q633.941 1462.73 636.418 1462.73 Q641.626 1462.73 644.635 1465.9 Q647.668 1469.05 647.668 1474.49 Q647.668 1479.82 644.52 1483.03 Q641.372 1486.25 636.14 1486.25 Q630.145 1486.25 626.973 1481.67 Q623.802 1477.06 623.802 1468.33 Q623.802 1460.14 627.691 1455.28 Q631.58 1450.39 638.131 1450.39 Q639.89 1450.39 641.672 1450.74 Q643.478 1451.09 645.422 1451.78 Z" fill="#000000" fill-rule="nonzero" fill-opacity="1" /><path clip-path="url(#clip620)" d="M668.57 1455.09 L656.765 1473.54 L668.57 1473.54 L668.57 1455.09 M667.344 1451.02 L673.223 1451.02 L673.223 1473.54 L678.154 1473.54 L678.154 1477.43 L673.223 1477.43 L673.223 1485.58 L668.57 1485.58 L668.57 1477.43 L652.969 1477.43 L652.969 1472.92 L667.344 1451.02 Z" fill="#000000" fill-rule="nonzero" fill-opacity="1" /><path clip-path="url(#clip620)" d="M685.885 1479.7 L690.769 1479.7 L690.769 1485.58 L685.885 1485.58 L685.885 1479.7 Z" fill="#000000" fill-rule="nonzero" fill-opacity="1" /><path clip-path="url(#clip620)" d="M701.001 1451.02 L719.357 1451.02 L719.357 1454.96 L705.283 1454.96 L705.283 1463.43 Q706.302 1463.08 707.32 1462.92 Q708.339 1462.73 709.357 1462.73 Q715.144 1462.73 718.524 1465.9 Q721.903 1469.08 721.903 1474.49 Q721.903 1480.07 718.431 1483.17 Q714.959 1486.25 708.64 1486.25 Q706.464 1486.25 704.195 1485.88 Q701.95 1485.51 699.542 1484.77 L699.542 1480.07 Q701.626 1481.2 703.848 1481.76 Q706.07 1482.32 708.547 1482.32 Q712.552 1482.32 714.89 1480.21 Q717.228 1478.1 717.228 1474.49 Q717.228 1470.88 714.89 1468.77 Q712.552 1466.67 708.547 1466.67 Q706.672 1466.67 704.797 1467.08 Q702.945 1467.5 701.001 1468.38 L701.001 1451.02 Z" fill="#000000" fill-rule="nonzero" fill-opacity="1" /><path clip-path="url(#clip620)" d="M1153.33 1466.44 Q1150.18 1466.44 1148.33 1468.59 Q1146.5 1470.74 1146.5 1474.49 Q1146.5 1478.22 1148.33 1480.39 Q1150.18 1482.55 1153.33 1482.55 Q1156.48 1482.55 1158.3 1480.39 Q1160.16 1478.22 1160.16 1474.49 Q1160.16 1470.74 1158.3 1468.59 Q1156.48 1466.44 1153.33 1466.44 M1162.61 1451.78 L1162.61 1456.04 Q1160.85 1455.21 1159.05 1454.77 Q1157.26 1454.33 1155.5 1454.33 Q1150.87 1454.33 1148.42 1457.45 Q1145.99 1460.58 1145.64 1466.9 Q1147.01 1464.89 1149.07 1463.82 Q1151.13 1462.73 1153.61 1462.73 Q1158.81 1462.73 1161.82 1465.9 Q1164.86 1469.05 1164.86 1474.49 Q1164.86 1479.82 1161.71 1483.03 Q1158.56 1486.25 1153.33 1486.25 Q1147.33 1486.25 1144.16 1481.67 Q1140.99 1477.06 1140.99 1468.33 Q1140.99 1460.14 1144.88 1455.28 Q1148.77 1450.39 1155.32 1450.39 Q1157.08 1450.39 1158.86 1450.74 Q1160.67 1451.09 1162.61 1451.78 Z" fill="#000000" fill-rule="nonzero" fill-opacity="1" /><path clip-path="url(#clip620)" d="M1172.96 1451.02 L1191.31 1451.02 L1191.31 1454.96 L1177.24 1454.96 L1177.24 1463.43 Q1178.26 1463.08 1179.28 1462.92 Q1180.3 1462.73 1181.31 1462.73 Q1187.1 1462.73 1190.48 1465.9 Q1193.86 1469.08 1193.86 1474.49 Q1193.86 1480.07 1190.39 1483.17 Q1186.92 1486.25 1180.6 1486.25 Q1178.42 1486.25 1176.15 1485.88 Q1173.91 1485.51 1171.5 1484.77 L1171.5 1480.07 Q1173.58 1481.2 1175.8 1481.76 Q1178.03 1482.32 1180.5 1482.32 Q1184.51 1482.32 1186.85 1480.21 Q1189.18 1478.1 1189.18 1474.49 Q1189.18 1470.88 1186.85 1468.77 Q1184.51 1466.67 1180.5 1466.67 Q1178.63 1466.67 1176.75 1467.08 Q1174.9 1467.5 1172.96 1468.38 L1172.96 1451.02 Z" fill="#000000" fill-rule="nonzero" fill-opacity="1" /><path clip-path="url(#clip620)" d="M1203.07 1479.7 L1207.96 1479.7 L1207.96 1485.58 L1203.07 1485.58 L1203.07 1479.7 Z" fill="#000000" fill-rule="nonzero" fill-opacity="1" /><path clip-path="url(#clip620)" d="M1228.14 1454.1 Q1224.53 1454.1 1222.7 1457.66 Q1220.9 1461.2 1220.9 1468.33 Q1220.9 1475.44 1222.7 1479.01 Q1224.53 1482.55 1228.14 1482.55 Q1231.78 1482.55 1233.58 1479.01 Q1235.41 1475.44 1235.41 1468.33 Q1235.41 1461.2 1233.58 1457.66 Q1231.78 1454.1 1228.14 1454.1 M1228.14 1450.39 Q1233.95 1450.39 1237.01 1455 Q1240.09 1459.58 1240.09 1468.33 Q1240.09 1477.06 1237.01 1481.67 Q1233.95 1486.25 1228.14 1486.25 Q1222.33 1486.25 1219.25 1481.67 Q1216.2 1477.06 1216.2 1468.33 Q1216.2 1459.58 1219.25 1455 Q1222.33 1450.39 1228.14 1450.39 Z" fill="#000000" fill-rule="nonzero" fill-opacity="1" /><path clip-path="url(#clip620)" d="M1671.51 1466.44 Q1668.36 1466.44 1666.51 1468.59 Q1664.68 1470.74 1664.68 1474.49 Q1664.68 1478.22 1666.51 1480.39 Q1668.36 1482.55 1671.51 1482.55 Q1674.66 1482.55 1676.49 1480.39 Q1678.34 1478.22 1678.34 1474.49 Q1678.34 1470.74 1676.49 1468.59 Q1674.66 1466.44 1671.51 1466.44 M1680.79 1451.78 L1680.79 1456.04 Q1679.03 1455.21 1677.23 1454.77 Q1675.45 1454.33 1673.69 1454.33 Q1669.06 1454.33 1666.6 1457.45 Q1664.17 1460.58 1663.83 1466.9 Q1665.19 1464.89 1667.25 1463.82 Q1669.31 1462.73 1671.79 1462.73 Q1677 1462.73 1680.01 1465.9 Q1683.04 1469.05 1683.04 1474.49 Q1683.04 1479.82 1679.89 1483.03 Q1676.74 1486.25 1671.51 1486.25 Q1665.52 1486.25 1662.34 1481.67 Q1659.17 1477.06 1659.17 1468.33 Q1659.17 1460.14 1663.06 1455.28 Q1666.95 1450.39 1673.5 1450.39 Q1675.26 1450.39 1677.04 1450.74 Q1678.85 1451.09 1680.79 1451.78 Z" fill="#000000" fill-rule="nonzero" fill-opacity="1" /><path clip-path="url(#clip620)" d="M1691.14 1451.02 L1709.5 1451.02 L1709.5 1454.96 L1695.42 1454.96 L1695.42 1463.43 Q1696.44 1463.08 1697.46 1462.92 Q1698.48 1462.73 1699.5 1462.73 Q1705.28 1462.73 1708.66 1465.9 Q1712.04 1469.08 1712.04 1474.49 Q1712.04 1480.07 1708.57 1483.17 Q1705.1 1486.25 1698.78 1486.25 Q1696.6 1486.25 1694.34 1485.88 Q1692.09 1485.51 1689.68 1484.77 L1689.68 1480.07 Q1691.77 1481.2 1693.99 1481.76 Q1696.21 1482.32 1698.69 1482.32 Q1702.69 1482.32 1705.03 1480.21 Q1707.37 1478.1 1707.37 1474.49 Q1707.37 1470.88 1705.03 1468.77 Q1702.69 1466.67 1698.69 1466.67 Q1696.81 1466.67 1694.94 1467.08 Q1693.09 1467.5 1691.14 1468.38 L1691.14 1451.02 Z" fill="#000000" fill-rule="nonzero" fill-opacity="1" /><path clip-path="url(#clip620)" d="M1721.26 1479.7 L1726.14 1479.7 L1726.14 1485.58 L1721.26 1485.58 L1721.26 1479.7 Z" fill="#000000" fill-rule="nonzero" fill-opacity="1" /><path clip-path="url(#clip620)" d="M1736.37 1451.02 L1754.73 1451.02 L1754.73 1454.96 L1740.65 1454.96 L1740.65 1463.43 Q1741.67 1463.08 1742.69 1462.92 Q1743.71 1462.73 1744.73 1462.73 Q1750.52 1462.73 1753.9 1465.9 Q1757.27 1469.08 1757.27 1474.49 Q1757.27 1480.07 1753.8 1483.17 Q1750.33 1486.25 1744.01 1486.25 Q1741.83 1486.25 1739.57 1485.88 Q1737.32 1485.51 1734.91 1484.77 L1734.91 1480.07 Q1737 1481.2 1739.22 1481.76 Q1741.44 1482.32 1743.92 1482.32 Q1747.92 1482.32 1750.26 1480.21 Q1752.6 1478.1 1752.6 1474.49 Q1752.6 1470.88 1750.26 1468.77 Q1747.92 1466.67 1743.92 1466.67 Q1742.04 1466.67 1740.17 1467.08 Q1738.32 1467.5 1736.37 1468.38 L1736.37 1451.02 Z" fill="#000000" fill-rule="nonzero" fill-opacity="1" /><path clip-path="url(#clip620)" d="M2188.7 1466.44 Q2185.55 1466.44 2183.7 1468.59 Q2181.87 1470.74 2181.87 1474.49 Q2181.87 1478.22 2183.7 1480.39 Q2185.55 1482.55 2188.7 1482.55 Q2191.85 1482.55 2193.68 1480.39 Q2195.53 1478.22 2195.53 1474.49 Q2195.53 1470.74 2193.68 1468.59 Q2191.85 1466.44 2188.7 1466.44 M2197.98 1451.78 L2197.98 1456.04 Q2196.22 1455.21 2194.42 1454.77 Q2192.63 1454.33 2190.88 1454.33 Q2186.25 1454.33 2183.79 1457.45 Q2181.36 1460.58 2181.01 1466.9 Q2182.38 1464.89 2184.44 1463.82 Q2186.5 1462.73 2188.98 1462.73 Q2194.19 1462.73 2197.19 1465.9 Q2200.23 1469.05 2200.23 1474.49 Q2200.23 1479.82 2197.08 1483.03 Q2193.93 1486.25 2188.7 1486.25 Q2182.7 1486.25 2179.53 1481.67 Q2176.36 1477.06 2176.36 1468.33 Q2176.36 1460.14 2180.25 1455.28 Q2184.14 1450.39 2190.69 1450.39 Q2192.45 1450.39 2194.23 1450.74 Q2196.04 1451.09 2197.98 1451.78 Z" fill="#000000" fill-rule="nonzero" fill-opacity="1" /><path clip-path="url(#clip620)" d="M2218.86 1466.44 Q2215.71 1466.44 2213.86 1468.59 Q2212.03 1470.74 2212.03 1474.49 Q2212.03 1478.22 2213.86 1480.39 Q2215.71 1482.55 2218.86 1482.55 Q2222.01 1482.55 2223.84 1480.39 Q2225.69 1478.22 2225.69 1474.49 Q2225.69 1470.74 2223.84 1468.59 Q2222.01 1466.44 2218.86 1466.44 M2228.14 1451.78 L2228.14 1456.04 Q2226.38 1455.21 2224.58 1454.77 Q2222.8 1454.33 2221.04 1454.33 Q2216.41 1454.33 2213.95 1457.45 Q2211.52 1460.58 2211.18 1466.9 Q2212.54 1464.89 2214.6 1463.82 Q2216.66 1462.73 2219.14 1462.73 Q2224.35 1462.73 2227.36 1465.9 Q2230.39 1469.05 2230.39 1474.49 Q2230.39 1479.82 2227.24 1483.03 Q2224.09 1486.25 2218.86 1486.25 Q2212.87 1486.25 2209.69 1481.67 Q2206.52 1477.06 2206.52 1468.33 Q2206.52 1460.14 2210.41 1455.28 Q2214.3 1450.39 2220.85 1450.39 Q2222.61 1450.39 2224.39 1450.74 Q2226.2 1451.09 2228.14 1451.78 Z" fill="#000000" fill-rule="nonzero" fill-opacity="1" /><path clip-path="url(#clip620)" d="M2238.44 1479.7 L2243.33 1479.7 L2243.33 1485.58 L2238.44 1485.58 L2238.44 1479.7 Z" fill="#000000" fill-rule="nonzero" fill-opacity="1" /><path clip-path="url(#clip620)" d="M2263.51 1454.1 Q2259.9 1454.1 2258.07 1457.66 Q2256.27 1461.2 2256.27 1468.33 Q2256.27 1475.44 2258.07 1479.01 Q2259.9 1482.55 2263.51 1482.55 Q2267.15 1482.55 2268.95 1479.01 Q2270.78 1475.44 2270.78 1468.33 Q2270.78 1461.2 2268.95 1457.66 Q2267.15 1454.1 2263.51 1454.1 M2263.51 1450.39 Q2269.32 1450.39 2272.38 1455 Q2275.46 1459.58 2275.46 1468.33 Q2275.46 1477.06 2272.38 1481.67 Q2269.32 1486.25 2263.51 1486.25 Q2257.7 1486.25 2254.62 1481.67 Q2251.57 1477.06 2251.57 1468.33 Q2251.57 1459.58 2254.62 1455 Q2257.7 1450.39 2263.51 1450.39 Z" fill="#000000" fill-rule="nonzero" fill-opacity="1" /><path clip-path="url(#clip620)" d="M1154.6 1526.86 L1145.88 1550.51 L1163.35 1550.51 L1154.6 1526.86 M1150.97 1520.52 L1158.26 1520.52 L1176.37 1568.04 L1169.69 1568.04 L1165.36 1555.85 L1143.94 1555.85 L1139.61 1568.04 L1132.83 1568.04 L1150.97 1520.52 Z" fill="#000000" fill-rule="nonzero" fill-opacity="1" /><path clip-path="url(#clip620)" d="M1206.51 1549.81 Q1206.51 1543.44 1203.87 1539.94 Q1201.26 1536.44 1196.52 1536.44 Q1191.81 1536.44 1189.16 1539.94 Q1186.55 1543.44 1186.55 1549.81 Q1186.55 1556.14 1189.16 1559.64 Q1191.81 1563.14 1196.52 1563.14 Q1201.26 1563.14 1203.87 1559.64 Q1206.51 1556.14 1206.51 1549.81 M1212.37 1563.62 Q1212.37 1572.72 1208.33 1577.15 Q1204.28 1581.6 1195.94 1581.6 Q1192.86 1581.6 1190.12 1581.13 Q1187.38 1580.68 1184.8 1579.72 L1184.8 1574.03 Q1187.38 1575.43 1189.9 1576.1 Q1192.41 1576.76 1195.02 1576.76 Q1200.78 1576.76 1203.65 1573.74 Q1206.51 1570.75 1206.51 1564.67 L1206.51 1561.77 Q1204.7 1564.92 1201.86 1566.48 Q1199.03 1568.04 1195.08 1568.04 Q1188.53 1568.04 1184.52 1563.05 Q1180.51 1558.05 1180.51 1549.81 Q1180.51 1541.53 1184.52 1536.53 Q1188.53 1531.54 1195.08 1531.54 Q1199.03 1531.54 1201.86 1533.1 Q1204.7 1534.66 1206.51 1537.81 L1206.51 1532.4 L1212.37 1532.4 L1212.37 1563.62 Z" fill="#000000" fill-rule="nonzero" fill-opacity="1" /><path clip-path="url(#clip620)" d="M1254.92 1548.76 L1254.92 1551.62 L1228 1551.62 Q1228.38 1557.67 1231.62 1560.85 Q1234.9 1564 1240.73 1564 Q1244.1 1564 1247.25 1563.17 Q1250.43 1562.35 1253.55 1560.69 L1253.55 1566.23 Q1250.4 1567.57 1247.09 1568.27 Q1243.78 1568.97 1240.38 1568.97 Q1231.85 1568.97 1226.85 1564 Q1221.88 1559.04 1221.88 1550.57 Q1221.88 1541.82 1226.59 1536.69 Q1231.34 1531.54 1239.36 1531.54 Q1246.55 1531.54 1250.72 1536.18 Q1254.92 1540.8 1254.92 1548.76 M1249.07 1547.04 Q1249 1542.23 1246.36 1539.37 Q1243.75 1536.5 1239.42 1536.5 Q1234.52 1536.5 1231.56 1539.27 Q1228.63 1542.04 1228.19 1547.07 L1249.07 1547.04 Z" fill="#000000" fill-rule="nonzero" fill-opacity="1" /><path clip-path="url(#clip620)" d="M1299.32 1518.58 Q1295.06 1525.9 1292.99 1533.06 Q1290.92 1540.23 1290.92 1547.58 Q1290.92 1554.93 1292.99 1562.16 Q1295.09 1569.35 1299.32 1576.64 L1294.23 1576.64 Q1289.46 1569.16 1287.07 1561.93 Q1284.71 1554.71 1284.71 1547.58 Q1284.71 1540.48 1287.07 1533.29 Q1289.42 1526.09 1294.23 1518.58 L1299.32 1518.58 Z" fill="#000000" fill-rule="nonzero" fill-opacity="1" /><path clip-path="url(#clip620)" d="M1310.94 1520.52 L1320.52 1520.52 L1332.65 1552.86 L1344.84 1520.52 L1354.42 1520.52 L1354.42 1568.04 L1348.15 1568.04 L1348.15 1526.32 L1335.89 1558.91 L1329.43 1558.91 L1317.18 1526.32 L1317.18 1568.04 L1310.94 1568.04 L1310.94 1520.52 Z" fill="#000000" fill-rule="nonzero" fill-opacity="1" /><path clip-path="url(#clip620)" d="M1383.13 1550.12 Q1376.03 1550.12 1373.29 1551.75 Q1370.56 1553.37 1370.56 1557.29 Q1370.56 1560.4 1372.59 1562.25 Q1374.66 1564.07 1378.19 1564.07 Q1383.06 1564.07 1385.99 1560.63 Q1388.95 1557.16 1388.95 1551.43 L1388.95 1550.12 L1383.13 1550.12 M1394.81 1547.71 L1394.81 1568.04 L1388.95 1568.04 L1388.95 1562.63 Q1386.95 1565.88 1383.96 1567.44 Q1380.96 1568.97 1376.63 1568.97 Q1371.16 1568.97 1367.91 1565.91 Q1364.7 1562.82 1364.7 1557.67 Q1364.7 1551.65 1368.71 1548.6 Q1372.75 1545.54 1380.74 1545.54 L1388.95 1545.54 L1388.95 1544.97 Q1388.95 1540.93 1386.28 1538.73 Q1383.64 1536.5 1378.83 1536.5 Q1375.78 1536.5 1372.88 1537.23 Q1369.98 1537.97 1367.31 1539.43 L1367.31 1534.02 Q1370.52 1532.78 1373.55 1532.17 Q1376.57 1531.54 1379.44 1531.54 Q1387.17 1531.54 1390.99 1535.55 Q1394.81 1539.56 1394.81 1547.71 Z" fill="#000000" fill-rule="nonzero" fill-opacity="1" /><path clip-path="url(#clip620)" d="M1405.95 1518.58 L1411.04 1518.58 Q1415.82 1526.09 1418.17 1533.29 Q1420.56 1540.48 1420.56 1547.58 Q1420.56 1554.71 1418.17 1561.93 Q1415.82 1569.16 1411.04 1576.64 L1405.95 1576.64 Q1410.18 1569.35 1412.25 1562.16 Q1414.35 1554.93 1414.35 1547.58 Q1414.35 1540.23 1412.25 1533.06 Q1410.18 1525.9 1405.95 1518.58 Z" fill="#000000" fill-rule="nonzero" fill-opacity="1" /><polyline clip-path="url(#clip620)" style="stroke:#000000; stroke-linecap:round; stroke-linejoin:round; stroke-width:4; stroke-opacity:1; fill:none" points="200.63,1423.18 200.63,47.2441 "/>
<polyline clip-path="url(#clip620)" style="stroke:#000000; stroke-linecap:round; stroke-linejoin:round; stroke-width:4; stroke-opacity:1; fill:none" points="2352.76,1423.18 2352.76,47.2441 "/>
<polyline clip-path="url(#clip620)" style="stroke:#000000; stroke-linecap:round; stroke-linejoin:round; stroke-width:4; stroke-opacity:1; fill:none" points="200.63,1384.24 219.528,1384.24 "/>
<polyline clip-path="url(#clip620)" style="stroke:#000000; stroke-linecap:round; stroke-linejoin:round; stroke-width:4; stroke-opacity:1; fill:none" points="200.63,1111.64 219.528,1111.64 "/>
<polyline clip-path="url(#clip620)" style="stroke:#000000; stroke-linecap:round; stroke-linejoin:round; stroke-width:4; stroke-opacity:1; fill:none" points="200.63,839.043 219.528,839.043 "/>
<polyline clip-path="url(#clip620)" style="stroke:#000000; stroke-linecap:round; stroke-linejoin:round; stroke-width:4; stroke-opacity:1; fill:none" points="200.63,566.445 219.528,566.445 "/>
<polyline clip-path="url(#clip620)" style="stroke:#000000; stroke-linecap:round; stroke-linejoin:round; stroke-width:4; stroke-opacity:1; fill:none" points="200.63,293.848 219.528,293.848 "/>
<polyline clip-path="url(#clip620)" style="stroke:#000000; stroke-linecap:round; stroke-linejoin:round; stroke-width:4; stroke-opacity:1; fill:none" points="2352.76,1384.24 2333.86,1384.24 "/>
<polyline clip-path="url(#clip620)" style="stroke:#000000; stroke-linecap:round; stroke-linejoin:round; stroke-width:4; stroke-opacity:1; fill:none" points="2352.76,1111.64 2333.86,1111.64 "/>
<polyline clip-path="url(#clip620)" style="stroke:#000000; stroke-linecap:round; stroke-linejoin:round; stroke-width:4; stroke-opacity:1; fill:none" points="2352.76,839.043 2333.86,839.043 "/>
<polyline clip-path="url(#clip620)" style="stroke:#000000; stroke-linecap:round; stroke-linejoin:round; stroke-width:4; stroke-opacity:1; fill:none" points="2352.76,566.445 2333.86,566.445 "/>
<polyline clip-path="url(#clip620)" style="stroke:#000000; stroke-linecap:round; stroke-linejoin:round; stroke-width:4; stroke-opacity:1; fill:none" points="2352.76,293.848 2333.86,293.848 "/>
<path clip-path="url(#clip620)" d="M152.686 1370.04 Q149.075 1370.04 147.246 1373.6 Q145.441 1377.14 145.441 1384.27 Q145.441 1391.38 147.246 1394.94 Q149.075 1398.49 152.686 1398.49 Q156.32 1398.49 158.126 1394.94 Q159.954 1391.38 159.954 1384.27 Q159.954 1377.14 158.126 1373.6 Q156.32 1370.04 152.686 1370.04 M152.686 1366.33 Q158.496 1366.33 161.552 1370.94 Q164.63 1375.52 164.63 1384.27 Q164.63 1393 161.552 1397.61 Q158.496 1402.19 152.686 1402.19 Q146.876 1402.19 143.797 1397.61 Q140.741 1393 140.741 1384.27 Q140.741 1375.52 143.797 1370.94 Q146.876 1366.33 152.686 1366.33 Z" fill="#000000" fill-rule="nonzero" fill-opacity="1" /><path clip-path="url(#clip620)" d="M157.501 1110.29 Q160.857 1111 162.732 1113.27 Q164.63 1115.54 164.63 1118.87 Q164.63 1123.99 161.112 1126.79 Q157.593 1129.59 151.112 1129.59 Q148.936 1129.59 146.621 1129.15 Q144.329 1128.74 141.876 1127.88 L141.876 1123.37 Q143.82 1124.5 146.135 1125.08 Q148.45 1125.66 150.973 1125.66 Q155.371 1125.66 157.663 1123.92 Q159.978 1122.18 159.978 1118.87 Q159.978 1115.82 157.825 1114.11 Q155.695 1112.37 151.876 1112.37 L147.848 1112.37 L147.848 1108.53 L152.061 1108.53 Q155.51 1108.53 157.339 1107.16 Q159.167 1105.77 159.167 1103.18 Q159.167 1100.52 157.269 1099.11 Q155.394 1097.67 151.876 1097.67 Q149.954 1097.67 147.755 1098.09 Q145.556 1098.5 142.917 1099.38 L142.917 1095.22 Q145.579 1094.48 147.894 1094.11 Q150.232 1093.74 152.292 1093.74 Q157.616 1093.74 160.718 1096.17 Q163.82 1098.57 163.82 1102.69 Q163.82 1105.56 162.177 1107.56 Q160.533 1109.52 157.501 1110.29 Z" fill="#000000" fill-rule="nonzero" fill-opacity="1" /><path clip-path="url(#clip620)" d="M153.103 837.18 Q149.954 837.18 148.103 839.332 Q146.274 841.485 146.274 845.235 Q146.274 848.962 148.103 851.138 Q149.954 853.291 153.103 853.291 Q156.251 853.291 158.079 851.138 Q159.931 848.962 159.931 845.235 Q159.931 841.485 158.079 839.332 Q156.251 837.18 153.103 837.18 M162.385 822.527 L162.385 826.786 Q160.626 825.953 158.82 825.513 Q157.038 825.073 155.278 825.073 Q150.649 825.073 148.195 828.198 Q145.765 831.323 145.417 837.643 Q146.783 835.629 148.843 834.564 Q150.903 833.476 153.38 833.476 Q158.589 833.476 161.598 836.647 Q164.63 839.795 164.63 845.235 Q164.63 850.559 161.482 853.777 Q158.334 856.994 153.103 856.994 Q147.107 856.994 143.936 852.411 Q140.765 847.805 140.765 839.078 Q140.765 830.883 144.654 826.022 Q148.542 821.138 155.093 821.138 Q156.853 821.138 158.635 821.485 Q160.44 821.832 162.385 822.527 Z" fill="#000000" fill-rule="nonzero" fill-opacity="1" /><path clip-path="url(#clip620)" d="M143.01 583.008 L143.01 578.749 Q144.769 579.582 146.575 580.022 Q148.38 580.462 150.116 580.462 Q154.746 580.462 157.177 577.36 Q159.63 574.235 159.978 567.892 Q158.635 569.883 156.575 570.948 Q154.515 572.013 152.015 572.013 Q146.829 572.013 143.797 568.888 Q140.788 565.739 140.788 560.3 Q140.788 554.976 143.936 551.758 Q147.084 548.54 152.316 548.54 Q158.311 548.54 161.459 553.147 Q164.63 557.73 164.63 566.48 Q164.63 574.651 160.741 579.536 Q156.876 584.397 150.325 584.397 Q148.566 584.397 146.76 584.049 Q144.954 583.702 143.01 583.008 M152.316 568.355 Q155.464 568.355 157.292 566.202 Q159.144 564.05 159.144 560.3 Q159.144 556.573 157.292 554.42 Q155.464 552.244 152.316 552.244 Q149.167 552.244 147.316 554.42 Q145.487 556.573 145.487 560.3 Q145.487 564.05 147.316 566.202 Q149.167 568.355 152.316 568.355 Z" fill="#000000" fill-rule="nonzero" fill-opacity="1" /><path clip-path="url(#clip620)" d="M114.931 307.193 L122.57 307.193 L122.57 280.827 L114.26 282.494 L114.26 278.234 L122.524 276.568 L127.2 276.568 L127.2 307.193 L134.839 307.193 L134.839 311.128 L114.931 311.128 L114.931 307.193 Z" fill="#000000" fill-rule="nonzero" fill-opacity="1" /><path clip-path="url(#clip620)" d="M148.311 307.193 L164.63 307.193 L164.63 311.128 L142.686 311.128 L142.686 307.193 Q145.348 304.438 149.931 299.808 Q154.538 295.156 155.718 293.813 Q157.964 291.29 158.843 289.554 Q159.746 287.795 159.746 286.105 Q159.746 283.35 157.802 281.614 Q155.88 279.878 152.778 279.878 Q150.579 279.878 148.126 280.642 Q145.695 281.406 142.917 282.957 L142.917 278.234 Q145.741 277.1 148.195 276.522 Q150.649 275.943 152.686 275.943 Q158.056 275.943 161.251 278.628 Q164.445 281.313 164.445 285.804 Q164.445 287.933 163.635 289.855 Q162.848 291.753 160.741 294.345 Q160.163 295.017 157.061 298.234 Q153.959 301.429 148.311 307.193 Z" fill="#000000" fill-rule="nonzero" fill-opacity="1" /><path clip-path="url(#clip620)" d="M21.7677 1026.76 L39.6235 1026.76 L39.6235 1018.68 Q39.6235 1014.19 37.3 1011.74 Q34.9765 1009.29 30.6797 1009.29 Q26.4147 1009.29 24.0912 1011.74 Q21.7677 1014.19 21.7677 1018.68 L21.7677 1026.76 M16.4842 1033.19 L16.4842 1018.68 Q16.4842 1010.69 20.1126 1006.61 Q23.7092 1002.51 30.6797 1002.51 Q37.7138 1002.51 41.3104 1006.61 Q44.907 1010.69 44.907 1018.68 L44.907 1026.76 L64.0042 1026.76 L64.0042 1033.19 L16.4842 1033.19 Z" fill="#000000" fill-rule="nonzero" fill-opacity="1" /><path clip-path="url(#clip620)" d="M33.8307 974.626 Q33.2578 975.613 33.0032 976.791 Q32.7167 977.936 32.7167 979.337 Q32.7167 984.302 35.9632 986.976 Q39.1779 989.617 45.2253 989.617 L64.0042 989.617 L64.0042 995.506 L28.3562 995.506 L28.3562 989.617 L33.8944 989.617 Q30.6479 987.771 29.0883 984.811 Q27.4968 981.851 27.4968 977.618 Q27.4968 977.013 27.5923 976.281 Q27.656 975.549 27.8151 974.658 L33.8307 974.626 Z" fill="#000000" fill-rule="nonzero" fill-opacity="1" /><path clip-path="url(#clip620)" d="M32.4621 956.102 Q32.4621 960.813 36.1542 963.55 Q39.8145 966.287 46.212 966.287 Q52.6095 966.287 56.3017 963.582 Q59.9619 960.844 59.9619 956.102 Q59.9619 951.423 56.2698 948.686 Q52.5777 945.949 46.212 945.949 Q39.8781 945.949 36.186 948.686 Q32.4621 951.423 32.4621 956.102 M27.4968 956.102 Q27.4968 948.463 32.4621 944.103 Q37.4273 939.742 46.212 939.742 Q54.9649 939.742 59.9619 944.103 Q64.9272 948.463 64.9272 956.102 Q64.9272 963.773 59.9619 968.133 Q54.9649 972.462 46.212 972.462 Q37.4273 972.462 32.4621 968.133 Q27.4968 963.773 27.4968 956.102 Z" fill="#000000" fill-rule="nonzero" fill-opacity="1" /><path clip-path="url(#clip620)" d="M46.212 904.444 Q39.7508 904.444 36.0905 907.118 Q32.3984 909.76 32.3984 914.407 Q32.3984 919.054 36.0905 921.727 Q39.7508 924.369 46.212 924.369 Q52.6732 924.369 56.3653 921.727 Q60.0256 919.054 60.0256 914.407 Q60.0256 909.76 56.3653 907.118 Q52.6732 904.444 46.212 904.444 M33.7671 924.369 Q30.5842 922.523 29.0564 919.722 Q27.4968 916.889 27.4968 912.974 Q27.4968 906.481 32.6531 902.439 Q37.8093 898.365 46.212 898.365 Q54.6147 898.365 59.771 902.439 Q64.9272 906.481 64.9272 912.974 Q64.9272 916.889 63.3994 919.722 Q61.8398 922.523 58.657 924.369 L64.0042 924.369 L64.0042 930.257 L14.479 930.257 L14.479 924.369 L33.7671 924.369 Z" fill="#000000" fill-rule="nonzero" fill-opacity="1" /><path clip-path="url(#clip620)" d="M46.0847 872.457 Q46.0847 879.554 47.7079 882.292 Q49.3312 885.029 53.2461 885.029 Q56.3653 885.029 58.2114 882.992 Q60.0256 880.923 60.0256 877.39 Q60.0256 872.52 56.5881 869.592 Q53.1188 866.632 47.3897 866.632 L46.0847 866.632 L46.0847 872.457 M43.6657 860.776 L64.0042 860.776 L64.0042 866.632 L58.5933 866.632 Q61.8398 868.637 63.3994 871.629 Q64.9272 874.621 64.9272 878.95 Q64.9272 884.424 61.8716 887.671 Q58.7843 890.885 53.6281 890.885 Q47.6125 890.885 44.5569 886.875 Q41.5014 882.833 41.5014 874.844 L41.5014 866.632 L40.9285 866.632 Q36.8862 866.632 34.6901 869.306 Q32.4621 871.947 32.4621 876.753 Q32.4621 879.809 33.1941 882.705 Q33.9262 885.602 35.3903 888.275 L29.9795 888.275 Q28.7381 885.061 28.1334 882.037 Q27.4968 879.013 27.4968 876.149 Q27.4968 868.414 31.5072 864.595 Q35.5176 860.776 43.6657 860.776 Z" fill="#000000" fill-rule="nonzero" fill-opacity="1" /><path clip-path="url(#clip620)" d="M46.212 823.122 Q39.7508 823.122 36.0905 825.796 Q32.3984 828.438 32.3984 833.085 Q32.3984 837.732 36.0905 840.405 Q39.7508 843.047 46.212 843.047 Q52.6732 843.047 56.3653 840.405 Q60.0256 837.732 60.0256 833.085 Q60.0256 828.438 56.3653 825.796 Q52.6732 823.122 46.212 823.122 M33.7671 843.047 Q30.5842 841.201 29.0564 838.4 Q27.4968 835.567 27.4968 831.652 Q27.4968 825.159 32.6531 821.117 Q37.8093 817.043 46.212 817.043 Q54.6147 817.043 59.771 821.117 Q64.9272 825.159 64.9272 831.652 Q64.9272 835.567 63.3994 838.4 Q61.8398 841.201 58.657 843.047 L64.0042 843.047 L64.0042 848.935 L14.479 848.935 L14.479 843.047 L33.7671 843.047 Z" fill="#000000" fill-rule="nonzero" fill-opacity="1" /><path clip-path="url(#clip620)" d="M28.3562 807.335 L28.3562 801.479 L64.0042 801.479 L64.0042 807.335 L28.3562 807.335 M14.479 807.335 L14.479 801.479 L21.895 801.479 L21.895 807.335 L14.479 807.335 Z" fill="#000000" fill-rule="nonzero" fill-opacity="1" /><path clip-path="url(#clip620)" d="M14.479 789.225 L14.479 783.369 L64.0042 783.369 L64.0042 789.225 L14.479 789.225 Z" fill="#000000" fill-rule="nonzero" fill-opacity="1" /><path clip-path="url(#clip620)" d="M28.3562 771.115 L28.3562 765.258 L64.0042 765.258 L64.0042 771.115 L28.3562 771.115 M14.479 771.115 L14.479 765.258 L21.895 765.258 L21.895 771.115 L14.479 771.115 Z" fill="#000000" fill-rule="nonzero" fill-opacity="1" /><path clip-path="url(#clip620)" d="M18.2347 747.211 L28.3562 747.211 L28.3562 735.148 L32.9077 735.148 L32.9077 747.211 L52.2594 747.211 Q56.6199 747.211 57.8613 746.034 Q59.1026 744.824 59.1026 741.164 L59.1026 735.148 L64.0042 735.148 L64.0042 741.164 Q64.0042 747.943 61.4897 750.521 Q58.9434 753.1 52.2594 753.1 L32.9077 753.1 L32.9077 757.396 L28.3562 757.396 L28.3562 753.1 L18.2347 753.1 L18.2347 747.211 Z" fill="#000000" fill-rule="nonzero" fill-opacity="1" /><path clip-path="url(#clip620)" d="M67.3143 712.614 Q73.68 715.096 75.6216 717.452 Q77.5631 719.807 77.5631 723.754 L77.5631 728.432 L72.6615 728.432 L72.6615 724.995 Q72.6615 722.576 71.5157 721.239 Q70.3699 719.902 66.1048 718.279 L63.4312 717.229 L28.3562 731.647 L28.3562 725.441 L56.238 714.301 L28.3562 703.161 L28.3562 696.954 L67.3143 712.614 Z" fill="#000000" fill-rule="nonzero" fill-opacity="1" /><path clip-path="url(#clip620)" d="M33.7671 644.692 L14.479 644.692 L14.479 638.835 L64.0042 638.835 L64.0042 644.692 L58.657 644.692 Q61.8398 646.538 63.3994 649.37 Q64.9272 652.171 64.9272 656.118 Q64.9272 662.579 59.771 666.653 Q54.6147 670.696 46.212 670.696 Q37.8093 670.696 32.6531 666.653 Q27.4968 662.579 27.4968 656.118 Q27.4968 652.171 29.0564 649.37 Q30.5842 646.538 33.7671 644.692 M46.212 664.648 Q52.6732 664.648 56.3653 662.006 Q60.0256 659.333 60.0256 654.686 Q60.0256 650.039 56.3653 647.365 Q52.6732 644.692 46.212 644.692 Q39.7508 644.692 36.0905 647.365 Q32.3984 650.039 32.3984 654.686 Q32.3984 659.333 36.0905 662.006 Q39.7508 664.648 46.212 664.648 Z" fill="#000000" fill-rule="nonzero" fill-opacity="1" /><path clip-path="url(#clip620)" d="M44.7161 596.28 L47.5806 596.28 L47.5806 623.207 Q53.6281 622.825 56.8109 619.579 Q59.9619 616.301 59.9619 610.476 Q59.9619 607.102 59.1344 603.951 Q58.3069 600.768 56.6518 597.649 L62.1899 597.649 Q63.5267 600.8 64.227 604.11 Q64.9272 607.42 64.9272 610.826 Q64.9272 619.356 59.9619 624.353 Q54.9967 629.318 46.5303 629.318 Q37.7774 629.318 32.6531 624.608 Q27.4968 619.865 27.4968 611.845 Q27.4968 604.651 32.1438 600.482 Q36.7589 596.28 44.7161 596.28 M42.9973 602.137 Q38.1912 602.201 35.3266 604.842 Q32.4621 607.452 32.4621 611.781 Q32.4621 616.683 35.2312 619.643 Q38.0002 622.571 43.0292 623.016 L42.9973 602.137 Z" fill="#000000" fill-rule="nonzero" fill-opacity="1" /><path clip-path="url(#clip620)" d="M42.4881 557.036 L64.0042 557.036 L64.0042 562.892 L42.679 562.892 Q37.6183 562.892 35.1038 564.866 Q32.5894 566.839 32.5894 570.786 Q32.5894 575.528 35.6131 578.265 Q38.6368 581.003 43.8567 581.003 L64.0042 581.003 L64.0042 586.891 L28.3562 586.891 L28.3562 581.003 L33.8944 581.003 Q30.6797 578.902 29.0883 576.069 Q27.4968 573.205 27.4968 569.481 Q27.4968 563.338 31.3163 560.187 Q35.1038 557.036 42.4881 557.036 Z" fill="#000000" fill-rule="nonzero" fill-opacity="1" /><path clip-path="url(#clip620)" d="M29.4065 522.629 L34.9447 522.629 Q33.6716 525.112 33.035 527.785 Q32.3984 530.459 32.3984 533.324 Q32.3984 537.684 33.7352 539.88 Q35.072 542.045 37.7456 542.045 Q39.7826 542.045 40.9603 540.485 Q42.1061 538.925 43.1565 534.215 L43.6021 532.21 Q44.9389 525.971 47.3897 523.361 Q49.8086 520.719 54.1691 520.719 Q59.1344 520.719 62.0308 524.666 Q64.9272 528.581 64.9272 535.456 Q64.9272 538.321 64.3543 541.44 Q63.8132 544.527 62.6992 547.965 L56.6518 547.965 Q58.3387 544.718 59.198 541.567 Q60.0256 538.416 60.0256 535.329 Q60.0256 531.191 58.6251 528.963 Q57.1929 526.735 54.6147 526.735 Q52.2276 526.735 50.9545 528.358 Q49.6813 529.95 48.5037 535.392 L48.0262 537.429 Q46.8804 542.872 44.5251 545.291 Q42.138 547.71 38.0002 547.71 Q32.9713 547.71 30.2341 544.145 Q27.4968 540.58 27.4968 534.024 Q27.4968 530.777 27.9743 527.913 Q28.4517 525.048 29.4065 522.629 Z" fill="#000000" fill-rule="nonzero" fill-opacity="1" /><path clip-path="url(#clip620)" d="M28.3562 511.394 L28.3562 505.537 L64.0042 505.537 L64.0042 511.394 L28.3562 511.394 M14.479 511.394 L14.479 505.537 L21.895 505.537 L21.895 511.394 L14.479 511.394 Z" fill="#000000" fill-rule="nonzero" fill-opacity="1" /><path clip-path="url(#clip620)" d="M18.2347 487.49 L28.3562 487.49 L28.3562 475.427 L32.9077 475.427 L32.9077 487.49 L52.2594 487.49 Q56.6199 487.49 57.8613 486.313 Q59.1026 485.103 59.1026 481.443 L59.1026 475.427 L64.0042 475.427 L64.0042 481.443 Q64.0042 488.223 61.4897 490.801 Q58.9434 493.379 52.2594 493.379 L32.9077 493.379 L32.9077 497.676 L28.3562 497.676 L28.3562 493.379 L18.2347 493.379 L18.2347 487.49 Z" fill="#000000" fill-rule="nonzero" fill-opacity="1" /><path clip-path="url(#clip620)" d="M67.3143 452.893 Q73.68 455.376 75.6216 457.731 Q77.5631 460.086 77.5631 464.033 L77.5631 468.712 L72.6615 468.712 L72.6615 465.274 Q72.6615 462.855 71.5157 461.518 Q70.3699 460.182 66.1048 458.558 L63.4312 457.508 L28.3562 471.926 L28.3562 465.72 L56.238 454.58 L28.3562 443.44 L28.3562 437.233 L67.3143 452.893 Z" fill="#000000" fill-rule="nonzero" fill-opacity="1" /><polyline clip-path="url(#clip622)" style="stroke:#009af9; stroke-linecap:round; stroke-linejoin:round; stroke-width:4; stroke-opacity:1; fill:none" points="261.539,1384.21 325.654,1384.2 411.141,1384.23 475.256,1384.23 517.999,1384.23 731.716,1384.22 753.088,1384.21 795.831,1384.19 945.432,1384.22 966.804,1384.21 988.176,1384.23 1052.29,1384.21 1073.66,1384.19 1095.03,1384.06 1116.41,1384.21 1180.52,1384.21 1201.89,1384.22 1244.64,1384.13 1266.01,1384.17 1287.38,1384.15 1308.75,1384.2 1330.12,1384.17 1351.49,1384.09 1394.24,1384.2 1415.61,1384.2 1436.98,1384.15 1458.35,1384.05 1479.72,1384.02 1501.1,1383.98 1522.47,1383.75 1543.84,1383.84 1565.21,1383.71 1586.58,1383.65 1607.95,1383.24 1629.33,1383.01 1650.7,1382.76 1672.07,1382.54 1693.44,1381.88 1714.81,1380.18 1736.18,1379.01 1757.56,1378.08 1778.93,1375.29 1800.3,1370.94 1821.67,1367.51 1843.04,1356.56 1864.41,1344.83 1885.79,1321.78 1907.16,1288.25 1928.53,1231.48 1949.9,1155.64 1971.27,1036.79 1992.64,848.111 2014.02,638.871 2035.39,338.18 2056.76,86.1857 2078.13,627.554 2099.5,1058.38 2120.87,1238.67 2142.25,1312.49 2163.62,1354.98 2184.99,1371.12 2206.36,1378.92 2227.73,1382.14 2249.1,1383.37 2270.48,1383.78 2291.85,1384.09 "/>
<polyline clip-path="url(#clip622)" style="stroke:#e26f46; stroke-linecap:round; stroke-linejoin:round; stroke-width:4; stroke-opacity:1; fill:none" points="261.539,1384.24 325.654,1384.24 411.141,1384.24 475.256,1384.24 517.999,1384.24 731.716,1384.24 753.088,1384.24 795.831,1384.24 945.432,1384.24 966.804,1384.24 988.176,1384.24 1052.29,1384.24 1073.66,1384.24 1095.03,1384.24 1116.41,1384.24 1180.52,1384.24 1201.89,1384.24 1244.64,1384.24 1266.01,1384.24 1287.38,1384.24 1308.75,1384.24 1330.12,1384.24 1351.49,1384.23 1394.24,1384.23 1415.61,1384.23 1436.98,1384.22 1458.35,1384.21 1479.72,1384.2 1501.1,1384.18 1522.47,1384.16 1543.84,1384.12 1565.21,1384.07 1586.58,1383.99 1607.95,1383.87 1629.33,1383.7 1650.7,1383.45 1672.07,1383.08 1693.44,1382.54 1714.81,1381.74 1736.18,1380.57 1757.56,1378.84 1778.93,1376.31 1800.3,1372.59 1821.67,1367.13 1843.04,1359.1 1864.41,1347.3 1885.79,1329.98 1907.16,1304.53 1928.53,1267.17 1949.9,1212.32 1971.27,1131.89 1992.64,1014.22 2014.02,843.448 2035.39,606.476 2056.76,437.053 2078.13,830.81 2099.5,1140.44 2120.87,1279.54 2142.25,1339.48 2163.62,1365.13 2184.99,1376.08 2206.36,1380.76 2227.73,1382.75 2249.1,1383.61 2270.48,1383.97 2291.85,1384.12 "/>
<path clip-path="url(#clip620)" d="M272.368 248.629 L821.884 248.629 L821.884 93.1086 L272.368 93.1086  Z" fill="#ffffff" fill-rule="evenodd" fill-opacity="1"/>
<polyline clip-path="url(#clip620)" style="stroke:#ffffff; stroke-linecap:round; stroke-linejoin:round; stroke-width:4; stroke-opacity:1; fill:none" points="272.368,248.629 821.884,248.629 821.884,93.1086 272.368,93.1086 272.368,248.629 "/>
<polyline clip-path="url(#clip620)" style="stroke:#009af9; stroke-linecap:round; stroke-linejoin:round; stroke-width:4; stroke-opacity:1; fill:none" points="296.28,144.949 439.755,144.949 "/>
<path clip-path="url(#clip620)" d="M463.668 127.669 L468.344 127.669 L468.344 141.835 L485.334 141.835 L485.334 127.669 L490.01 127.669 L490.01 162.229 L485.334 162.229 L485.334 145.77 L468.344 145.77 L468.344 162.229 L463.668 162.229 L463.668 127.669 Z" fill="#000000" fill-rule="nonzero" fill-opacity="1" /><path clip-path="url(#clip620)" d="M499.131 136.303 L503.39 136.303 L503.39 162.229 L499.131 162.229 L499.131 136.303 M499.131 126.21 L503.39 126.21 L503.39 131.604 L499.131 131.604 L499.131 126.21 Z" fill="#000000" fill-rule="nonzero" fill-opacity="1" /><path clip-path="url(#clip620)" d="M528.83 137.067 L528.83 141.094 Q527.024 140.169 525.08 139.706 Q523.135 139.243 521.052 139.243 Q517.881 139.243 516.283 140.215 Q514.709 141.187 514.709 143.131 Q514.709 144.613 515.843 145.469 Q516.978 146.303 520.404 147.067 L521.862 147.391 Q526.399 148.363 528.297 150.145 Q530.218 151.905 530.218 155.076 Q530.218 158.687 527.348 160.793 Q524.501 162.9 519.501 162.9 Q517.418 162.9 515.149 162.483 Q512.904 162.09 510.404 161.28 L510.404 156.881 Q512.765 158.108 515.056 158.733 Q517.348 159.335 519.593 159.335 Q522.603 159.335 524.223 158.317 Q525.843 157.275 525.843 155.4 Q525.843 153.664 524.663 152.738 Q523.505 151.812 519.547 150.956 L518.066 150.608 Q514.107 149.775 512.348 148.062 Q510.589 146.326 510.589 143.317 Q510.589 139.659 513.181 137.669 Q515.774 135.678 520.543 135.678 Q522.904 135.678 524.987 136.025 Q527.07 136.372 528.83 137.067 Z" fill="#000000" fill-rule="nonzero" fill-opacity="1" /><path clip-path="url(#clip620)" d="M541.214 128.942 L541.214 136.303 L549.987 136.303 L549.987 139.613 L541.214 139.613 L541.214 153.687 Q541.214 156.858 542.07 157.761 Q542.95 158.664 545.612 158.664 L549.987 158.664 L549.987 162.229 L545.612 162.229 Q540.681 162.229 538.806 160.4 Q536.931 158.548 536.931 153.687 L536.931 139.613 L533.806 139.613 L533.806 136.303 L536.931 136.303 L536.931 128.942 L541.214 128.942 Z" fill="#000000" fill-rule="nonzero" fill-opacity="1" /><path clip-path="url(#clip620)" d="M565.635 139.289 Q562.209 139.289 560.218 141.974 Q558.228 144.636 558.228 149.289 Q558.228 153.942 560.195 156.627 Q562.186 159.289 565.635 159.289 Q569.038 159.289 571.028 156.604 Q573.019 153.918 573.019 149.289 Q573.019 144.682 571.028 141.997 Q569.038 139.289 565.635 139.289 M565.635 135.678 Q571.19 135.678 574.362 139.289 Q577.533 142.9 577.533 149.289 Q577.533 155.655 574.362 159.289 Q571.19 162.9 565.635 162.9 Q560.056 162.9 556.885 159.289 Q553.737 155.655 553.737 149.289 Q553.737 142.9 556.885 139.289 Q560.056 135.678 565.635 135.678 Z" fill="#000000" fill-rule="nonzero" fill-opacity="1" /><path clip-path="url(#clip620)" d="M601.653 148.965 Q601.653 144.335 599.732 141.789 Q597.834 139.243 594.385 139.243 Q590.959 139.243 589.038 141.789 Q587.139 144.335 587.139 148.965 Q587.139 153.571 589.038 156.118 Q590.959 158.664 594.385 158.664 Q597.834 158.664 599.732 156.118 Q601.653 153.571 601.653 148.965 M605.912 159.011 Q605.912 165.631 602.973 168.849 Q600.033 172.09 593.968 172.09 Q591.723 172.09 589.732 171.742 Q587.741 171.418 585.866 170.724 L585.866 166.58 Q587.741 167.599 589.57 168.085 Q591.399 168.571 593.297 168.571 Q597.487 168.571 599.57 166.372 Q601.653 164.196 601.653 159.775 L601.653 157.668 Q600.334 159.96 598.274 161.094 Q596.213 162.229 593.343 162.229 Q588.575 162.229 585.658 158.594 Q582.741 154.96 582.741 148.965 Q582.741 142.946 585.658 139.312 Q588.575 135.678 593.343 135.678 Q596.213 135.678 598.274 136.812 Q600.334 137.946 601.653 140.238 L601.653 136.303 L605.912 136.303 L605.912 159.011 Z" fill="#000000" fill-rule="nonzero" fill-opacity="1" /><path clip-path="url(#clip620)" d="M629.709 140.284 Q628.991 139.868 628.135 139.682 Q627.301 139.474 626.283 139.474 Q622.672 139.474 620.727 141.835 Q618.806 144.173 618.806 148.571 L618.806 162.229 L614.524 162.229 L614.524 136.303 L618.806 136.303 L618.806 140.331 Q620.148 137.969 622.301 136.835 Q624.454 135.678 627.533 135.678 Q627.973 135.678 628.505 135.747 Q629.037 135.794 629.685 135.909 L629.709 140.284 Z" fill="#000000" fill-rule="nonzero" fill-opacity="1" /><path clip-path="url(#clip620)" d="M645.959 149.196 Q640.797 149.196 638.806 150.377 Q636.815 151.557 636.815 154.405 Q636.815 156.673 638.297 158.016 Q639.801 159.335 642.371 159.335 Q645.912 159.335 648.042 156.835 Q650.195 154.312 650.195 150.145 L650.195 149.196 L645.959 149.196 M654.454 147.437 L654.454 162.229 L650.195 162.229 L650.195 158.293 Q648.736 160.655 646.56 161.789 Q644.384 162.9 641.236 162.9 Q637.255 162.9 634.894 160.678 Q632.556 158.432 632.556 154.682 Q632.556 150.307 635.472 148.085 Q638.412 145.863 644.222 145.863 L650.195 145.863 L650.195 145.446 Q650.195 142.507 648.25 140.909 Q646.329 139.289 642.834 139.289 Q640.611 139.289 638.505 139.821 Q636.398 140.354 634.454 141.419 L634.454 137.483 Q636.792 136.581 638.991 136.141 Q641.19 135.678 643.273 135.678 Q648.898 135.678 651.676 138.594 Q654.454 141.511 654.454 147.437 Z" fill="#000000" fill-rule="nonzero" fill-opacity="1" /><path clip-path="url(#clip620)" d="M683.412 141.28 Q685.009 138.409 687.231 137.044 Q689.454 135.678 692.463 135.678 Q696.514 135.678 698.713 138.525 Q700.912 141.349 700.912 146.581 L700.912 162.229 L696.63 162.229 L696.63 146.719 Q696.63 142.993 695.31 141.187 Q693.991 139.382 691.282 139.382 Q687.972 139.382 686.051 141.581 Q684.13 143.78 684.13 147.576 L684.13 162.229 L679.847 162.229 L679.847 146.719 Q679.847 142.969 678.528 141.187 Q677.208 139.382 674.454 139.382 Q671.19 139.382 669.269 141.604 Q667.347 143.803 667.347 147.576 L667.347 162.229 L663.065 162.229 L663.065 136.303 L667.347 136.303 L667.347 140.331 Q668.806 137.946 670.843 136.812 Q672.88 135.678 675.681 135.678 Q678.505 135.678 680.472 137.113 Q682.463 138.548 683.412 141.28 Z" fill="#000000" fill-rule="nonzero" fill-opacity="1" /><polyline clip-path="url(#clip620)" style="stroke:#e26f46; stroke-linecap:round; stroke-linejoin:round; stroke-width:4; stroke-opacity:1; fill:none" points="296.28,196.789 439.755,196.789 "/>
<path clip-path="url(#clip620)" d="M468.344 183.351 L468.344 210.226 L473.992 210.226 Q481.145 210.226 484.455 206.985 Q487.788 203.745 487.788 196.754 Q487.788 189.809 484.455 186.592 Q481.145 183.351 473.992 183.351 L468.344 183.351 M463.668 179.509 L473.274 179.509 Q483.321 179.509 488.02 183.698 Q492.719 187.865 492.719 196.754 Q492.719 205.689 487.996 209.879 Q483.274 214.069 473.274 214.069 L463.668 214.069 L463.668 179.509 Z" fill="#000000" fill-rule="nonzero" fill-opacity="1" /><path clip-path="url(#clip620)" d="M499.987 188.143 L504.246 188.143 L504.246 214.069 L499.987 214.069 L499.987 188.143 M499.987 178.05 L504.246 178.05 L504.246 183.444 L499.987 183.444 L499.987 178.05 Z" fill="#000000" fill-rule="nonzero" fill-opacity="1" /><path clip-path="url(#clip620)" d="M529.686 188.907 L529.686 192.934 Q527.88 192.009 525.936 191.546 Q523.992 191.083 521.908 191.083 Q518.737 191.083 517.14 192.055 Q515.566 193.027 515.566 194.971 Q515.566 196.453 516.7 197.309 Q517.834 198.143 521.26 198.907 L522.718 199.231 Q527.255 200.203 529.154 201.985 Q531.075 203.745 531.075 206.916 Q531.075 210.527 528.205 212.633 Q525.357 214.74 520.357 214.74 Q518.274 214.74 516.006 214.323 Q513.76 213.93 511.26 213.12 L511.26 208.721 Q513.621 209.948 515.913 210.573 Q518.205 211.175 520.45 211.175 Q523.459 211.175 525.08 210.157 Q526.7 209.115 526.7 207.24 Q526.7 205.504 525.519 204.578 Q524.362 203.652 520.404 202.796 L518.922 202.448 Q514.964 201.615 513.205 199.902 Q511.445 198.166 511.445 195.157 Q511.445 191.499 514.038 189.509 Q516.631 187.518 521.399 187.518 Q523.76 187.518 525.843 187.865 Q527.927 188.212 529.686 188.907 Z" fill="#000000" fill-rule="nonzero" fill-opacity="1" /><path clip-path="url(#clip620)" d="M542.07 180.782 L542.07 188.143 L550.843 188.143 L550.843 191.453 L542.07 191.453 L542.07 205.527 Q542.07 208.698 542.927 209.601 Q543.806 210.504 546.468 210.504 L550.843 210.504 L550.843 214.069 L546.468 214.069 Q541.538 214.069 539.663 212.24 Q537.788 210.388 537.788 205.527 L537.788 191.453 L534.663 191.453 L534.663 188.143 L537.788 188.143 L537.788 180.782 L542.07 180.782 Z" fill="#000000" fill-rule="nonzero" fill-opacity="1" /><path clip-path="url(#clip620)" d="M571.468 192.124 Q570.751 191.708 569.894 191.522 Q569.061 191.314 568.042 191.314 Q564.431 191.314 562.487 193.675 Q560.565 196.013 560.565 200.411 L560.565 214.069 L556.283 214.069 L556.283 188.143 L560.565 188.143 L560.565 192.171 Q561.908 189.809 564.061 188.675 Q566.214 187.518 569.292 187.518 Q569.732 187.518 570.264 187.587 Q570.797 187.634 571.445 187.749 L571.468 192.124 Z" fill="#000000" fill-rule="nonzero" fill-opacity="1" /><path clip-path="url(#clip620)" d="M575.936 188.143 L580.195 188.143 L580.195 214.069 L575.936 214.069 L575.936 188.143 M575.936 178.05 L580.195 178.05 L580.195 183.444 L575.936 183.444 L575.936 178.05 Z" fill="#000000" fill-rule="nonzero" fill-opacity="1" /><path clip-path="url(#clip620)" d="M607.718 201.129 Q607.718 196.43 605.774 193.768 Q603.852 191.083 600.473 191.083 Q597.093 191.083 595.149 193.768 Q593.227 196.43 593.227 201.129 Q593.227 205.828 595.149 208.513 Q597.093 211.175 600.473 211.175 Q603.852 211.175 605.774 208.513 Q607.718 205.828 607.718 201.129 M593.227 192.078 Q594.57 189.763 596.607 188.652 Q598.667 187.518 601.514 187.518 Q606.237 187.518 609.176 191.268 Q612.139 195.018 612.139 201.129 Q612.139 207.24 609.176 210.99 Q606.237 214.74 601.514 214.74 Q598.667 214.74 596.607 213.629 Q594.57 212.495 593.227 210.18 L593.227 214.069 L588.945 214.069 L588.945 178.05 L593.227 178.05 L593.227 192.078 Z" fill="#000000" fill-rule="nonzero" fill-opacity="1" /><path clip-path="url(#clip620)" d="M618.76 203.837 L618.76 188.143 L623.019 188.143 L623.019 203.675 Q623.019 207.356 624.454 209.208 Q625.889 211.036 628.76 211.036 Q632.209 211.036 634.199 208.837 Q636.213 206.638 636.213 202.842 L636.213 188.143 L640.472 188.143 L640.472 214.069 L636.213 214.069 L636.213 210.087 Q634.662 212.448 632.602 213.606 Q630.565 214.74 627.857 214.74 Q623.389 214.74 621.074 211.962 Q618.76 209.184 618.76 203.837 M629.477 187.518 L629.477 187.518 Z" fill="#000000" fill-rule="nonzero" fill-opacity="1" /><path clip-path="url(#clip620)" d="M653.458 180.782 L653.458 188.143 L662.232 188.143 L662.232 191.453 L653.458 191.453 L653.458 205.527 Q653.458 208.698 654.315 209.601 Q655.195 210.504 657.857 210.504 L662.232 210.504 L662.232 214.069 L657.857 214.069 Q652.926 214.069 651.051 212.24 Q649.176 210.388 649.176 205.527 L649.176 191.453 L646.051 191.453 L646.051 188.143 L649.176 188.143 L649.176 180.782 L653.458 180.782 Z" fill="#000000" fill-rule="nonzero" fill-opacity="1" /><path clip-path="url(#clip620)" d="M667.833 188.143 L672.093 188.143 L672.093 214.069 L667.833 214.069 L667.833 188.143 M667.833 178.05 L672.093 178.05 L672.093 183.444 L667.833 183.444 L667.833 178.05 Z" fill="#000000" fill-rule="nonzero" fill-opacity="1" /><path clip-path="url(#clip620)" d="M691.051 191.129 Q687.625 191.129 685.634 193.814 Q683.644 196.476 683.644 201.129 Q683.644 205.782 685.611 208.467 Q687.602 211.129 691.051 211.129 Q694.454 211.129 696.444 208.444 Q698.435 205.758 698.435 201.129 Q698.435 196.522 696.444 193.837 Q694.454 191.129 691.051 191.129 M691.051 187.518 Q696.606 187.518 699.778 191.129 Q702.949 194.74 702.949 201.129 Q702.949 207.495 699.778 211.129 Q696.606 214.74 691.051 214.74 Q685.472 214.74 682.301 211.129 Q679.153 207.495 679.153 201.129 Q679.153 194.74 682.301 191.129 Q685.472 187.518 691.051 187.518 Z" fill="#000000" fill-rule="nonzero" fill-opacity="1" /><path clip-path="url(#clip620)" d="M731.56 198.421 L731.56 214.069 L727.301 214.069 L727.301 198.559 Q727.301 194.879 725.866 193.05 Q724.43 191.222 721.56 191.222 Q718.111 191.222 716.12 193.421 Q714.129 195.62 714.129 199.416 L714.129 214.069 L709.847 214.069 L709.847 188.143 L714.129 188.143 L714.129 192.171 Q715.657 189.833 717.717 188.675 Q719.801 187.518 722.509 187.518 Q726.977 187.518 729.268 190.296 Q731.56 193.05 731.56 198.421 Z" fill="#000000" fill-rule="nonzero" fill-opacity="1" /><path clip-path="url(#clip620)" d="M768.25 178.05 L768.25 181.592 L764.175 181.592 Q761.884 181.592 760.981 182.518 Q760.101 183.444 760.101 185.851 L760.101 188.143 L767.115 188.143 L767.115 191.453 L760.101 191.453 L760.101 214.069 L755.819 214.069 L755.819 191.453 L751.745 191.453 L751.745 188.143 L755.819 188.143 L755.819 186.337 Q755.819 182.009 757.833 180.041 Q759.847 178.05 764.222 178.05 L768.25 178.05 Z" fill="#000000" fill-rule="nonzero" fill-opacity="1" /><path clip-path="url(#clip620)" d="M771.814 188.143 L776.074 188.143 L776.074 214.069 L771.814 214.069 L771.814 188.143 M771.814 178.05 L776.074 178.05 L776.074 183.444 L771.814 183.444 L771.814 178.05 Z" fill="#000000" fill-rule="nonzero" fill-opacity="1" /><path clip-path="url(#clip620)" d="M789.199 180.782 L789.199 188.143 L797.972 188.143 L797.972 191.453 L789.199 191.453 L789.199 205.527 Q789.199 208.698 790.055 209.601 Q790.935 210.504 793.597 210.504 L797.972 210.504 L797.972 214.069 L793.597 214.069 Q788.666 214.069 786.791 212.24 Q784.916 210.388 784.916 205.527 L784.916 191.453 L781.791 191.453 L781.791 188.143 L784.916 188.143 L784.916 180.782 L789.199 180.782 Z" fill="#000000" fill-rule="nonzero" fill-opacity="1" /></svg>
