<?xml version="1.0" encoding="utf-8"?>
<svg xmlns="http://www.w3.org/2000/svg" xmlns:xlink="http://www.w3.org/1999/xlink" width="600" height="400" viewBox="0 0 2400 1600">
<defs>
  <clipPath id="clip570">
    <rect x="0" y="0" width="2400" height="1600"/>
  </clipPath>
</defs>
<path clip-path="url(#clip570)" d="M0 1600 L2400 1600 L2400 8.88178e-14 L0 8.88178e-14  Z" fill="#ffffff" fill-rule="evenodd" fill-opacity="1"/>
<defs>
  <clipPath id="clip571">
    <rect x="249" y="47" width="2104" height="1507"/>
  </clipPath>
</defs>
<path clip-path="url(#clip570)" d="M249.519 1552.76 L2352.76 1552.76 L2352.76 47.2441 L249.519 47.2441  Z" fill="#ffffff" fill-rule="evenodd" fill-opacity="1"/>
<polyline clip-path="url(#clip571)" style="stroke:#000000; stroke-linecap:round; stroke-linejoin:round; stroke-width:2; stroke-opacity:0.1; fill:none" points="249.519,1450.28 2352.76,1450.28 "/>
<polyline clip-path="url(#clip571)" style="stroke:#000000; stroke-linecap:round; stroke-linejoin:round; stroke-width:2; stroke-opacity:0.1; fill:none" points="249.519,1224.68 2352.76,1224.68 "/>
<polyline clip-path="url(#clip571)" style="stroke:#000000; stroke-linecap:round; stroke-linejoin:round; stroke-width:2; stroke-opacity:0.1; fill:none" points="249.519,999.071 2352.76,999.071 "/>
<polyline clip-path="url(#clip571)" style="stroke:#000000; stroke-linecap:round; stroke-linejoin:round; stroke-width:2; stroke-opacity:0.1; fill:none" points="249.519,773.465 2352.76,773.465 "/>
<polyline clip-path="url(#clip571)" style="stroke:#000000; stroke-linecap:round; stroke-linejoin:round; stroke-width:2; stroke-opacity:0.1; fill:none" points="249.519,547.86 2352.76,547.86 "/>
<polyline clip-path="url(#clip571)" style="stroke:#000000; stroke-linecap:round; stroke-linejoin:round; stroke-width:2; stroke-opacity:0.1; fill:none" points="249.519,322.255 2352.76,322.255 "/>
<polyline clip-path="url(#clip571)" style="stroke:#000000; stroke-linecap:round; stroke-linejoin:round; stroke-width:2; stroke-opacity:0.1; fill:none" points="249.519,96.6497 2352.76,96.6497 "/>
<polyline clip-path="url(#clip571)" style="stroke:#000000; stroke-linecap:round; stroke-linejoin:round; stroke-width:2; stroke-opacity:0.1; fill:none" points="249.519,1450.28 2352.76,1450.28 "/>
<polyline clip-path="url(#clip571)" style="stroke:#000000; stroke-linecap:round; stroke-linejoin:round; stroke-width:2; stroke-opacity:0.1; fill:none" points="249.519,1224.68 2352.76,1224.68 "/>
<polyline clip-path="url(#clip571)" style="stroke:#000000; stroke-linecap:round; stroke-linejoin:round; stroke-width:2; stroke-opacity:0.1; fill:none" points="249.519,999.071 2352.76,999.071 "/>
<polyline clip-path="url(#clip571)" style="stroke:#000000; stroke-linecap:round; stroke-linejoin:round; stroke-width:2; stroke-opacity:0.1; fill:none" points="249.519,773.465 2352.76,773.465 "/>
<polyline clip-path="url(#clip571)" style="stroke:#000000; stroke-linecap:round; stroke-linejoin:round; stroke-width:2; stroke-opacity:0.1; fill:none" points="249.519,547.86 2352.76,547.86 "/>
<polyline clip-path="url(#clip571)" style="stroke:#000000; stroke-linecap:round; stroke-linejoin:round; stroke-width:2; stroke-opacity:0.1; fill:none" points="249.519,322.255 2352.76,322.255 "/>
<polyline clip-path="url(#clip571)" style="stroke:#000000; stroke-linecap:round; stroke-linejoin:round; stroke-width:2; stroke-opacity:0.1; fill:none" points="249.519,96.6497 2352.76,96.6497 "/>
<polyline clip-path="url(#clip570)" style="stroke:#000000; stroke-linecap:round; stroke-linejoin:round; stroke-width:4; stroke-opacity:1; fill:none" points="249.519,1552.76 2352.76,1552.76 "/>
<polyline clip-path="url(#clip570)" style="stroke:#000000; stroke-linecap:round; stroke-linejoin:round; stroke-width:4; stroke-opacity:1; fill:none" points="249.519,47.2441 2352.76,47.2441 "/>
<polyline clip-path="url(#clip570)" style="stroke:#000000; stroke-linecap:round; stroke-linejoin:round; stroke-width:4; stroke-opacity:1; fill:none" points="249.519,1552.76 249.519,47.2441 "/>
<polyline clip-path="url(#clip570)" style="stroke:#000000; stroke-linecap:round; stroke-linejoin:round; stroke-width:4; stroke-opacity:1; fill:none" points="2352.76,1552.76 2352.76,47.2441 "/>
<polyline clip-path="url(#clip570)" style="stroke:#000000; stroke-linecap:round; stroke-linejoin:round; stroke-width:4; stroke-opacity:1; fill:none" points="249.519,1450.28 268.417,1450.28 "/>
<polyline clip-path="url(#clip570)" style="stroke:#000000; stroke-linecap:round; stroke-linejoin:round; stroke-width:4; stroke-opacity:1; fill:none" points="249.519,1224.68 268.417,1224.68 "/>
<polyline clip-path="url(#clip570)" style="stroke:#000000; stroke-linecap:round; stroke-linejoin:round; stroke-width:4; stroke-opacity:1; fill:none" points="249.519,999.071 268.417,999.071 "/>
<polyline clip-path="url(#clip570)" style="stroke:#000000; stroke-linecap:round; stroke-linejoin:round; stroke-width:4; stroke-opacity:1; fill:none" points="249.519,773.465 268.417,773.465 "/>
<polyline clip-path="url(#clip570)" style="stroke:#000000; stroke-linecap:round; stroke-linejoin:round; stroke-width:4; stroke-opacity:1; fill:none" points="249.519,547.86 268.417,547.86 "/>
<polyline clip-path="url(#clip570)" style="stroke:#000000; stroke-linecap:round; stroke-linejoin:round; stroke-width:4; stroke-opacity:1; fill:none" points="249.519,322.255 268.417,322.255 "/>
<polyline clip-path="url(#clip570)" style="stroke:#000000; stroke-linecap:round; stroke-linejoin:round; stroke-width:4; stroke-opacity:1; fill:none" points="249.519,96.6497 268.417,96.6497 "/>
<polyline clip-path="url(#clip570)" style="stroke:#000000; stroke-linecap:round; stroke-linejoin:round; stroke-width:4; stroke-opacity:1; fill:none" points="2352.76,1450.28 2333.86,1450.28 "/>
<polyline clip-path="url(#clip570)" style="stroke:#000000; stroke-linecap:round; stroke-linejoin:round; stroke-width:4; stroke-opacity:1; fill:none" points="2352.76,1224.68 2333.86,1224.68 "/>
<polyline clip-path="url(#clip570)" style="stroke:#000000; stroke-linecap:round; stroke-linejoin:round; stroke-width:4; stroke-opacity:1; fill:none" points="2352.76,999.071 2333.86,999.071 "/>
<polyline clip-path="url(#clip570)" style="stroke:#000000; stroke-linecap:round; stroke-linejoin:round; stroke-width:4; stroke-opacity:1; fill:none" points="2352.76,773.465 2333.86,773.465 "/>
<polyline clip-path="url(#clip570)" style="stroke:#000000; stroke-linecap:round; stroke-linejoin:round; stroke-width:4; stroke-opacity:1; fill:none" points="2352.76,547.86 2333.86,547.86 "/>
<polyline clip-path="url(#clip570)" style="stroke:#000000; stroke-linecap:round; stroke-linejoin:round; stroke-width:4; stroke-opacity:1; fill:none" points="2352.76,322.255 2333.86,322.255 "/>
<polyline clip-path="url(#clip570)" style="stroke:#000000; stroke-linecap:round; stroke-linejoin:round; stroke-width:4; stroke-opacity:1; fill:none" points="2352.76,96.6497 2333.86,96.6497 "/>
<path clip-path="url(#clip570)" d="M126.598 1448.42 Q123.45 1448.42 121.598 1450.57 Q119.769 1452.72 119.769 1456.47 Q119.769 1460.2 121.598 1462.38 Q123.45 1464.53 126.598 1464.53 Q129.746 1464.53 131.575 1462.38 Q133.427 1460.2 133.427 1456.47 Q133.427 1452.72 131.575 1450.57 Q129.746 1448.42 126.598 1448.42 M135.88 1433.77 L135.88 1438.02 Q134.121 1437.19 132.316 1436.75 Q130.533 1436.31 128.774 1436.31 Q124.144 1436.31 121.691 1439.44 Q119.26 1442.56 118.913 1448.88 Q120.279 1446.87 122.339 1445.8 Q124.399 1444.71 126.876 1444.71 Q132.084 1444.71 135.093 1447.89 Q138.126 1451.03 138.126 1456.47 Q138.126 1461.8 134.978 1465.01 Q131.83 1468.23 126.598 1468.23 Q120.603 1468.23 117.431 1463.65 Q114.26 1459.04 114.26 1450.32 Q114.26 1442.12 118.149 1437.26 Q122.038 1432.38 128.589 1432.38 Q130.348 1432.38 132.13 1432.72 Q133.936 1433.07 135.88 1433.77 Z" fill="#000000" fill-rule="nonzero" fill-opacity="1" /><path clip-path="url(#clip570)" d="M146.228 1433 L164.584 1433 L164.584 1436.94 L150.51 1436.94 L150.51 1445.41 Q151.528 1445.06 152.547 1444.9 Q153.566 1444.71 154.584 1444.71 Q160.371 1444.71 163.751 1447.89 Q167.13 1451.06 167.13 1456.47 Q167.13 1462.05 163.658 1465.15 Q160.186 1468.23 153.866 1468.23 Q151.691 1468.23 149.422 1467.86 Q147.177 1467.49 144.769 1466.75 L144.769 1462.05 Q146.853 1463.19 149.075 1463.74 Q151.297 1464.3 153.774 1464.3 Q157.778 1464.3 160.116 1462.19 Q162.454 1460.08 162.454 1456.47 Q162.454 1452.86 160.116 1450.76 Q157.778 1448.65 153.774 1448.65 Q151.899 1448.65 150.024 1449.07 Q148.172 1449.48 146.228 1450.36 L146.228 1433 Z" fill="#000000" fill-rule="nonzero" fill-opacity="1" /><path clip-path="url(#clip570)" d="M176.343 1461.68 L181.227 1461.68 L181.227 1467.56 L176.343 1467.56 L176.343 1461.68 Z" fill="#000000" fill-rule="nonzero" fill-opacity="1" /><path clip-path="url(#clip570)" d="M201.991 1448.42 Q198.843 1448.42 196.991 1450.57 Q195.163 1452.72 195.163 1456.47 Q195.163 1460.2 196.991 1462.38 Q198.843 1464.53 201.991 1464.53 Q205.139 1464.53 206.968 1462.38 Q208.82 1460.2 208.82 1456.47 Q208.82 1452.72 206.968 1450.57 Q205.139 1448.42 201.991 1448.42 M211.274 1433.77 L211.274 1438.02 Q209.514 1437.19 207.709 1436.75 Q205.926 1436.31 204.167 1436.31 Q199.537 1436.31 197.084 1439.44 Q194.653 1442.56 194.306 1448.88 Q195.672 1446.87 197.732 1445.8 Q199.792 1444.71 202.269 1444.71 Q207.477 1444.71 210.486 1447.89 Q213.519 1451.03 213.519 1456.47 Q213.519 1461.8 210.371 1465.01 Q207.223 1468.23 201.991 1468.23 Q195.996 1468.23 192.825 1463.65 Q189.653 1459.04 189.653 1450.32 Q189.653 1442.12 193.542 1437.26 Q197.431 1432.38 203.982 1432.38 Q205.741 1432.38 207.524 1432.72 Q209.329 1433.07 211.274 1433.77 Z" fill="#000000" fill-rule="nonzero" fill-opacity="1" /><path clip-path="url(#clip570)" d="M127.663 1222.81 Q124.515 1222.81 122.663 1224.97 Q120.834 1227.12 120.834 1230.87 Q120.834 1234.59 122.663 1236.77 Q124.515 1238.92 127.663 1238.92 Q130.811 1238.92 132.64 1236.77 Q134.492 1234.59 134.492 1230.87 Q134.492 1227.12 132.64 1224.97 Q130.811 1222.81 127.663 1222.81 M136.945 1208.16 L136.945 1212.42 Q135.186 1211.59 133.38 1211.15 Q131.598 1210.71 129.839 1210.71 Q125.209 1210.71 122.755 1213.83 Q120.325 1216.96 119.978 1223.28 Q121.343 1221.26 123.404 1220.2 Q125.464 1219.11 127.941 1219.11 Q133.149 1219.11 136.158 1222.28 Q139.191 1225.43 139.191 1230.87 Q139.191 1236.19 136.042 1239.41 Q132.894 1242.63 127.663 1242.63 Q121.668 1242.63 118.496 1238.04 Q115.325 1233.44 115.325 1224.71 Q115.325 1216.52 119.214 1211.66 Q123.103 1206.77 129.654 1206.77 Q131.413 1206.77 133.195 1207.12 Q135.001 1207.47 136.945 1208.16 Z" fill="#000000" fill-rule="nonzero" fill-opacity="1" /><path clip-path="url(#clip570)" d="M147.292 1207.4 L165.649 1207.4 L165.649 1211.33 L151.575 1211.33 L151.575 1219.8 Q152.593 1219.46 153.612 1219.29 Q154.63 1219.11 155.649 1219.11 Q161.436 1219.11 164.815 1222.28 Q168.195 1225.45 168.195 1230.87 Q168.195 1236.45 164.723 1239.55 Q161.251 1242.63 154.931 1242.63 Q152.755 1242.63 150.487 1242.26 Q148.241 1241.89 145.834 1241.15 L145.834 1236.45 Q147.917 1237.58 150.14 1238.14 Q152.362 1238.69 154.839 1238.69 Q158.843 1238.69 161.181 1236.59 Q163.519 1234.48 163.519 1230.87 Q163.519 1227.26 161.181 1225.15 Q158.843 1223.04 154.839 1223.04 Q152.964 1223.04 151.089 1223.46 Q149.237 1223.88 147.292 1224.76 L147.292 1207.4 Z" fill="#000000" fill-rule="nonzero" fill-opacity="1" /><path clip-path="url(#clip570)" d="M177.408 1236.08 L182.292 1236.08 L182.292 1241.96 L177.408 1241.96 L177.408 1236.08 Z" fill="#000000" fill-rule="nonzero" fill-opacity="1" /><path clip-path="url(#clip570)" d="M191.297 1207.4 L213.519 1207.4 L213.519 1209.39 L200.973 1241.96 L196.088 1241.96 L207.894 1211.33 L191.297 1211.33 L191.297 1207.4 Z" fill="#000000" fill-rule="nonzero" fill-opacity="1" /><path clip-path="url(#clip570)" d="M126.853 997.207 Q123.705 997.207 121.853 999.36 Q120.024 1001.51 120.024 1005.26 Q120.024 1008.99 121.853 1011.17 Q123.705 1013.32 126.853 1013.32 Q130.001 1013.32 131.83 1011.17 Q133.681 1008.99 133.681 1005.26 Q133.681 1001.51 131.83 999.36 Q130.001 997.207 126.853 997.207 M136.135 982.555 L136.135 986.814 Q134.376 985.98 132.57 985.541 Q130.788 985.101 129.029 985.101 Q124.399 985.101 121.945 988.226 Q119.515 991.351 119.168 997.67 Q120.533 995.656 122.593 994.592 Q124.654 993.504 127.13 993.504 Q132.339 993.504 135.348 996.675 Q138.38 999.823 138.38 1005.26 Q138.38 1010.59 135.232 1013.8 Q132.084 1017.02 126.853 1017.02 Q120.857 1017.02 117.686 1012.44 Q114.515 1007.83 114.515 999.105 Q114.515 990.911 118.404 986.05 Q122.293 981.166 128.843 981.166 Q130.603 981.166 132.385 981.513 Q134.191 981.86 136.135 982.555 Z" fill="#000000" fill-rule="nonzero" fill-opacity="1" /><path clip-path="url(#clip570)" d="M146.482 981.791 L164.839 981.791 L164.839 985.726 L150.765 985.726 L150.765 994.198 Q151.783 993.851 152.802 993.689 Q153.82 993.504 154.839 993.504 Q160.626 993.504 164.005 996.675 Q167.385 999.846 167.385 1005.26 Q167.385 1010.84 163.913 1013.94 Q160.44 1017.02 154.121 1017.02 Q151.945 1017.02 149.677 1016.65 Q147.431 1016.28 145.024 1015.54 L145.024 1010.84 Q147.107 1011.98 149.329 1012.53 Q151.552 1013.09 154.028 1013.09 Q158.033 1013.09 160.371 1010.98 Q162.709 1008.87 162.709 1005.26 Q162.709 1001.65 160.371 999.545 Q158.033 997.439 154.028 997.439 Q152.153 997.439 150.278 997.855 Q148.427 998.272 146.482 999.152 L146.482 981.791 Z" fill="#000000" fill-rule="nonzero" fill-opacity="1" /><path clip-path="url(#clip570)" d="M176.598 1010.47 L181.482 1010.47 L181.482 1016.35 L176.598 1016.35 L176.598 1010.47 Z" fill="#000000" fill-rule="nonzero" fill-opacity="1" /><path clip-path="url(#clip570)" d="M201.667 999.939 Q198.334 999.939 196.412 1001.72 Q194.514 1003.5 194.514 1006.63 Q194.514 1009.75 196.412 1011.54 Q198.334 1013.32 201.667 1013.32 Q205 1013.32 206.922 1011.54 Q208.843 1009.73 208.843 1006.63 Q208.843 1003.5 206.922 1001.72 Q205.024 999.939 201.667 999.939 M196.991 997.948 Q193.982 997.207 192.292 995.147 Q190.625 993.087 190.625 990.124 Q190.625 985.98 193.565 983.573 Q196.528 981.166 201.667 981.166 Q206.829 981.166 209.769 983.573 Q212.709 985.98 212.709 990.124 Q212.709 993.087 211.019 995.147 Q209.352 997.207 206.366 997.948 Q209.746 998.735 211.621 1001.03 Q213.519 1003.32 213.519 1006.63 Q213.519 1011.65 210.44 1014.34 Q207.385 1017.02 201.667 1017.02 Q195.95 1017.02 192.871 1014.34 Q189.815 1011.65 189.815 1006.63 Q189.815 1003.32 191.713 1001.03 Q193.612 998.735 196.991 997.948 M195.278 990.564 Q195.278 993.249 196.945 994.754 Q198.635 996.258 201.667 996.258 Q204.676 996.258 206.366 994.754 Q208.079 993.249 208.079 990.564 Q208.079 987.879 206.366 986.374 Q204.676 984.869 201.667 984.869 Q198.635 984.869 196.945 986.374 Q195.278 987.879 195.278 990.564 Z" fill="#000000" fill-rule="nonzero" fill-opacity="1" /><path clip-path="url(#clip570)" d="M126.945 771.602 Q123.797 771.602 121.945 773.755 Q120.117 775.908 120.117 779.658 Q120.117 783.384 121.945 785.56 Q123.797 787.713 126.945 787.713 Q130.093 787.713 131.922 785.56 Q133.774 783.384 133.774 779.658 Q133.774 775.908 131.922 773.755 Q130.093 771.602 126.945 771.602 M136.228 756.949 L136.228 761.209 Q134.468 760.375 132.663 759.935 Q130.88 759.496 129.121 759.496 Q124.492 759.496 122.038 762.621 Q119.607 765.746 119.26 772.065 Q120.626 770.051 122.686 768.986 Q124.746 767.898 127.223 767.898 Q132.431 767.898 135.441 771.07 Q138.473 774.218 138.473 779.658 Q138.473 784.982 135.325 788.199 Q132.177 791.417 126.945 791.417 Q120.95 791.417 117.779 786.833 Q114.607 782.227 114.607 773.5 Q114.607 765.306 118.496 760.445 Q122.385 755.56 128.936 755.56 Q130.695 755.56 132.478 755.908 Q134.283 756.255 136.228 756.949 Z" fill="#000000" fill-rule="nonzero" fill-opacity="1" /><path clip-path="url(#clip570)" d="M146.575 756.185 L164.931 756.185 L164.931 760.121 L150.857 760.121 L150.857 768.593 Q151.876 768.246 152.894 768.084 Q153.913 767.898 154.931 767.898 Q160.718 767.898 164.098 771.07 Q167.477 774.241 167.477 779.658 Q167.477 785.236 164.005 788.338 Q160.533 791.417 154.214 791.417 Q152.038 791.417 149.769 791.046 Q147.524 790.676 145.116 789.935 L145.116 785.236 Q147.2 786.37 149.422 786.926 Q151.644 787.482 154.121 787.482 Q158.126 787.482 160.464 785.375 Q162.802 783.269 162.802 779.658 Q162.802 776.046 160.464 773.94 Q158.126 771.834 154.121 771.834 Q152.246 771.834 150.371 772.25 Q148.519 772.667 146.575 773.546 L146.575 756.185 Z" fill="#000000" fill-rule="nonzero" fill-opacity="1" /><path clip-path="url(#clip570)" d="M176.69 784.866 L181.575 784.866 L181.575 790.745 L176.69 790.745 L176.69 784.866 Z" fill="#000000" fill-rule="nonzero" fill-opacity="1" /><path clip-path="url(#clip570)" d="M191.899 790.028 L191.899 785.769 Q193.658 786.602 195.463 787.042 Q197.269 787.482 199.005 787.482 Q203.635 787.482 206.065 784.38 Q208.519 781.255 208.866 774.912 Q207.524 776.903 205.463 777.968 Q203.403 779.033 200.903 779.033 Q195.718 779.033 192.686 775.908 Q189.676 772.759 189.676 767.32 Q189.676 761.996 192.825 758.778 Q195.973 755.56 201.204 755.56 Q207.199 755.56 210.348 760.167 Q213.519 764.75 213.519 773.5 Q213.519 781.671 209.63 786.556 Q205.764 791.417 199.213 791.417 Q197.454 791.417 195.649 791.07 Q193.843 790.722 191.899 790.028 M201.204 775.375 Q204.352 775.375 206.181 773.222 Q208.033 771.07 208.033 767.32 Q208.033 763.593 206.181 761.44 Q204.352 759.264 201.204 759.264 Q198.056 759.264 196.204 761.44 Q194.375 763.593 194.375 767.32 Q194.375 771.07 196.204 773.222 Q198.056 775.375 201.204 775.375 Z" fill="#000000" fill-rule="nonzero" fill-opacity="1" /><path clip-path="url(#clip570)" d="M126.76 545.997 Q123.612 545.997 121.76 548.15 Q119.931 550.302 119.931 554.052 Q119.931 557.779 121.76 559.955 Q123.612 562.108 126.76 562.108 Q129.908 562.108 131.737 559.955 Q133.589 557.779 133.589 554.052 Q133.589 550.302 131.737 548.15 Q129.908 545.997 126.76 545.997 M136.042 531.344 L136.042 535.603 Q134.283 534.77 132.478 534.33 Q130.695 533.89 128.936 533.89 Q124.306 533.89 121.853 537.015 Q119.422 540.14 119.075 546.46 Q120.441 544.446 122.501 543.381 Q124.561 542.293 127.038 542.293 Q132.246 542.293 135.255 545.464 Q138.288 548.613 138.288 554.052 Q138.288 559.376 135.14 562.594 Q131.992 565.811 126.76 565.811 Q120.765 565.811 117.593 561.228 Q114.422 556.622 114.422 547.895 Q114.422 539.701 118.311 534.839 Q122.2 529.955 128.751 529.955 Q130.51 529.955 132.292 530.302 Q134.098 530.65 136.042 531.344 Z" fill="#000000" fill-rule="nonzero" fill-opacity="1" /><path clip-path="url(#clip570)" d="M156.922 545.997 Q153.774 545.997 151.922 548.15 Q150.093 550.302 150.093 554.052 Q150.093 557.779 151.922 559.955 Q153.774 562.108 156.922 562.108 Q160.07 562.108 161.899 559.955 Q163.751 557.779 163.751 554.052 Q163.751 550.302 161.899 548.15 Q160.07 545.997 156.922 545.997 M166.204 531.344 L166.204 535.603 Q164.445 534.77 162.64 534.33 Q160.857 533.89 159.098 533.89 Q154.468 533.89 152.015 537.015 Q149.584 540.14 149.237 546.46 Q150.603 544.446 152.663 543.381 Q154.723 542.293 157.2 542.293 Q162.408 542.293 165.417 545.464 Q168.45 548.613 168.45 554.052 Q168.45 559.376 165.302 562.594 Q162.153 565.811 156.922 565.811 Q150.927 565.811 147.755 561.228 Q144.584 556.622 144.584 547.895 Q144.584 539.701 148.473 534.839 Q152.362 529.955 158.913 529.955 Q160.672 529.955 162.454 530.302 Q164.26 530.65 166.204 531.344 Z" fill="#000000" fill-rule="nonzero" fill-opacity="1" /><path clip-path="url(#clip570)" d="M176.505 559.261 L181.389 559.261 L181.389 565.14 L176.505 565.14 L176.505 559.261 Z" fill="#000000" fill-rule="nonzero" fill-opacity="1" /><path clip-path="url(#clip570)" d="M201.575 533.659 Q197.963 533.659 196.135 537.224 Q194.329 540.765 194.329 547.895 Q194.329 555.001 196.135 558.566 Q197.963 562.108 201.575 562.108 Q205.209 562.108 207.014 558.566 Q208.843 555.001 208.843 547.895 Q208.843 540.765 207.014 537.224 Q205.209 533.659 201.575 533.659 M201.575 529.955 Q207.385 529.955 210.44 534.562 Q213.519 539.145 213.519 547.895 Q213.519 556.622 210.44 561.228 Q207.385 565.811 201.575 565.811 Q195.764 565.811 192.686 561.228 Q189.63 556.622 189.63 547.895 Q189.63 539.145 192.686 534.562 Q195.764 529.955 201.575 529.955 Z" fill="#000000" fill-rule="nonzero" fill-opacity="1" /><path clip-path="url(#clip570)" d="M127.987 320.392 Q124.839 320.392 122.987 322.544 Q121.158 324.697 121.158 328.447 Q121.158 332.174 122.987 334.35 Q124.839 336.503 127.987 336.503 Q131.135 336.503 132.964 334.35 Q134.816 332.174 134.816 328.447 Q134.816 324.697 132.964 322.544 Q131.135 320.392 127.987 320.392 M137.269 305.739 L137.269 309.998 Q135.51 309.165 133.704 308.725 Q131.922 308.285 130.163 308.285 Q125.533 308.285 123.08 311.41 Q120.649 314.535 120.302 320.854 Q121.668 318.841 123.728 317.776 Q125.788 316.688 128.265 316.688 Q133.473 316.688 136.482 319.859 Q139.515 323.007 139.515 328.447 Q139.515 333.771 136.367 336.989 Q133.218 340.206 127.987 340.206 Q121.992 340.206 118.82 335.623 Q115.649 331.016 115.649 322.29 Q115.649 314.095 119.538 309.234 Q123.427 304.35 129.978 304.35 Q131.737 304.35 133.519 304.697 Q135.325 305.044 137.269 305.739 Z" fill="#000000" fill-rule="nonzero" fill-opacity="1" /><path clip-path="url(#clip570)" d="M158.149 320.392 Q155.001 320.392 153.149 322.544 Q151.32 324.697 151.32 328.447 Q151.32 332.174 153.149 334.35 Q155.001 336.503 158.149 336.503 Q161.297 336.503 163.126 334.35 Q164.977 332.174 164.977 328.447 Q164.977 324.697 163.126 322.544 Q161.297 320.392 158.149 320.392 M167.431 305.739 L167.431 309.998 Q165.672 309.165 163.866 308.725 Q162.084 308.285 160.325 308.285 Q155.695 308.285 153.241 311.41 Q150.811 314.535 150.464 320.854 Q151.829 318.841 153.89 317.776 Q155.95 316.688 158.427 316.688 Q163.635 316.688 166.644 319.859 Q169.677 323.007 169.677 328.447 Q169.677 333.771 166.528 336.989 Q163.38 340.206 158.149 340.206 Q152.153 340.206 148.982 335.623 Q145.811 331.016 145.811 322.29 Q145.811 314.095 149.7 309.234 Q153.589 304.35 160.14 304.35 Q161.899 304.35 163.681 304.697 Q165.487 305.044 167.431 305.739 Z" fill="#000000" fill-rule="nonzero" fill-opacity="1" /><path clip-path="url(#clip570)" d="M177.732 333.655 L182.616 333.655 L182.616 339.535 L177.732 339.535 L177.732 333.655 Z" fill="#000000" fill-rule="nonzero" fill-opacity="1" /><path clip-path="url(#clip570)" d="M193.612 335.6 L201.25 335.6 L201.25 309.234 L192.94 310.901 L192.94 306.642 L201.204 304.975 L205.88 304.975 L205.88 335.6 L213.519 335.6 L213.519 339.535 L193.612 339.535 L193.612 335.6 Z" fill="#000000" fill-rule="nonzero" fill-opacity="1" /><path clip-path="url(#clip570)" d="M128.357 94.7863 Q125.209 94.7863 123.357 96.9391 Q121.529 99.0918 121.529 102.842 Q121.529 106.569 123.357 108.745 Q125.209 110.897 128.357 110.897 Q131.505 110.897 133.334 108.745 Q135.186 106.569 135.186 102.842 Q135.186 99.0918 133.334 96.9391 Q131.505 94.7863 128.357 94.7863 M137.64 80.1336 L137.64 84.3928 Q135.88 83.5595 134.075 83.1197 Q132.292 82.6799 130.533 82.6799 Q125.904 82.6799 123.45 85.8049 Q121.019 88.9298 120.672 95.2492 Q122.038 93.2354 124.098 92.1706 Q126.158 91.0826 128.635 91.0826 Q133.843 91.0826 136.853 94.2539 Q139.885 97.402 139.885 102.842 Q139.885 108.166 136.737 111.383 Q133.589 114.601 128.357 114.601 Q122.362 114.601 119.191 110.018 Q116.019 105.411 116.019 96.6844 Q116.019 88.49 119.908 83.6289 Q123.797 78.7447 130.348 78.7447 Q132.107 78.7447 133.89 79.0919 Q135.695 79.4391 137.64 80.1336 Z" fill="#000000" fill-rule="nonzero" fill-opacity="1" /><path clip-path="url(#clip570)" d="M158.519 94.7863 Q155.371 94.7863 153.519 96.9391 Q151.691 99.0918 151.691 102.842 Q151.691 106.569 153.519 108.745 Q155.371 110.897 158.519 110.897 Q161.667 110.897 163.496 108.745 Q165.348 106.569 165.348 102.842 Q165.348 99.0918 163.496 96.9391 Q161.667 94.7863 158.519 94.7863 M167.802 80.1336 L167.802 84.3928 Q166.042 83.5595 164.237 83.1197 Q162.454 82.6799 160.695 82.6799 Q156.065 82.6799 153.612 85.8049 Q151.181 88.9298 150.834 95.2492 Q152.2 93.2354 154.26 92.1706 Q156.32 91.0826 158.797 91.0826 Q164.005 91.0826 167.015 94.2539 Q170.047 97.402 170.047 102.842 Q170.047 108.166 166.899 111.383 Q163.751 114.601 158.519 114.601 Q152.524 114.601 149.353 110.018 Q146.181 105.411 146.181 96.6844 Q146.181 88.49 150.07 83.6289 Q153.959 78.7447 160.51 78.7447 Q162.269 78.7447 164.052 79.0919 Q165.857 79.4391 167.802 80.1336 Z" fill="#000000" fill-rule="nonzero" fill-opacity="1" /><path clip-path="url(#clip570)" d="M178.102 108.05 L182.987 108.05 L182.987 113.93 L178.102 113.93 L178.102 108.05 Z" fill="#000000" fill-rule="nonzero" fill-opacity="1" /><path clip-path="url(#clip570)" d="M197.2 109.995 L213.519 109.995 L213.519 113.93 L191.575 113.93 L191.575 109.995 Q194.237 107.24 198.82 102.61 Q203.426 97.9576 204.607 96.615 Q206.852 94.0918 207.732 92.3557 Q208.635 90.5965 208.635 88.9067 Q208.635 86.1521 206.69 84.416 Q204.769 82.6799 201.667 82.6799 Q199.468 82.6799 197.014 83.4438 Q194.584 84.2076 191.806 85.7586 L191.806 81.0364 Q194.63 79.9021 197.084 79.3234 Q199.537 78.7447 201.575 78.7447 Q206.945 78.7447 210.139 81.4299 Q213.334 84.115 213.334 88.6058 Q213.334 90.7354 212.524 92.6567 Q211.736 94.5548 209.63 97.1474 Q209.051 97.8187 205.949 101.036 Q202.848 104.231 197.2 109.995 Z" fill="#000000" fill-rule="nonzero" fill-opacity="1" /><path clip-path="url(#clip570)" d="M22.818 922.094 L46.4666 930.815 L46.4666 913.341 L22.818 922.094 M16.4842 925.723 L16.4842 918.434 L64.0042 900.324 L64.0042 907.008 L51.8138 911.336 L51.8138 932.757 L64.0042 937.085 L64.0042 943.865 L16.4842 925.723 Z" fill="#000000" fill-rule="nonzero" fill-opacity="1" /><path clip-path="url(#clip570)" d="M45.7664 870.182 Q39.4007 870.182 35.8996 872.824 Q32.3984 875.434 32.3984 880.176 Q32.3984 884.887 35.8996 887.528 Q39.4007 890.138 45.7664 890.138 Q52.1003 890.138 55.6014 887.528 Q59.1026 884.887 59.1026 880.176 Q59.1026 875.434 55.6014 872.824 Q52.1003 870.182 45.7664 870.182 M59.58 864.325 Q68.683 864.325 73.1071 868.368 Q77.5631 872.41 77.5631 880.749 Q77.5631 883.836 77.0857 886.574 Q76.6401 889.311 75.6852 891.889 L69.9879 891.889 Q71.3884 889.311 72.0568 886.796 Q72.7252 884.282 72.7252 881.672 Q72.7252 875.911 69.7015 873.046 Q66.7096 870.182 60.6303 870.182 L57.7339 870.182 Q60.885 871.996 62.4446 874.829 Q64.0042 877.662 64.0042 881.608 Q64.0042 888.165 59.0071 892.175 Q54.01 896.186 45.7664 896.186 Q37.491 896.186 32.4939 892.175 Q27.4968 888.165 27.4968 881.608 Q27.4968 877.662 29.0564 874.829 Q30.616 871.996 33.7671 870.182 L28.3562 870.182 L28.3562 864.325 L59.58 864.325 Z" fill="#000000" fill-rule="nonzero" fill-opacity="1" /><path clip-path="url(#clip570)" d="M44.7161 821.771 L47.5806 821.771 L47.5806 848.698 Q53.6281 848.316 56.8109 845.069 Q59.9619 841.791 59.9619 835.966 Q59.9619 832.592 59.1344 829.441 Q58.3069 826.259 56.6518 823.139 L62.1899 823.139 Q63.5267 826.29 64.227 829.601 Q64.9272 832.911 64.9272 836.316 Q64.9272 844.846 59.9619 849.843 Q54.9967 854.809 46.5303 854.809 Q37.7774 854.809 32.6531 850.098 Q27.4968 845.356 27.4968 837.335 Q27.4968 830.142 32.1438 825.972 Q36.7589 821.771 44.7161 821.771 M42.9973 827.627 Q38.1912 827.691 35.3266 830.333 Q32.4621 832.943 32.4621 837.271 Q32.4621 842.173 35.2312 845.133 Q38.0002 848.061 43.0292 848.507 L42.9973 827.627 Z" fill="#000000" fill-rule="nonzero" fill-opacity="1" /><path clip-path="url(#clip570)" d="M14.5426 777.37 Q21.8632 781.635 29.0246 783.704 Q36.186 785.773 43.5384 785.773 Q50.8908 785.773 58.1159 783.704 Q65.3091 781.603 72.5979 777.37 L72.5979 782.462 Q65.1182 787.237 57.8931 789.624 Q50.668 791.979 43.5384 791.979 Q36.4406 791.979 29.2474 789.624 Q22.0542 787.269 14.5426 782.462 L14.5426 777.37 Z" fill="#000000" fill-rule="nonzero" fill-opacity="1" /><path clip-path="url(#clip570)" d="M16.4842 765.752 L16.4842 756.172 L48.8219 744.045 L16.4842 731.855 L16.4842 722.275 L64.0042 722.275 L64.0042 728.545 L22.277 728.545 L54.8694 740.799 L54.8694 747.26 L22.277 759.514 L64.0042 759.514 L64.0042 765.752 L16.4842 765.752 Z" fill="#000000" fill-rule="nonzero" fill-opacity="1" /><path clip-path="url(#clip570)" d="M46.0847 693.565 Q46.0847 700.663 47.7079 703.4 Q49.3312 706.138 53.2461 706.138 Q56.3653 706.138 58.2114 704.101 Q60.0256 702.032 60.0256 698.499 Q60.0256 693.629 56.5881 690.701 Q53.1188 687.741 47.3897 687.741 L46.0847 687.741 L46.0847 693.565 M43.6657 681.884 L64.0042 681.884 L64.0042 687.741 L58.5933 687.741 Q61.8398 689.746 63.3994 692.738 Q64.9272 695.73 64.9272 700.058 Q64.9272 705.533 61.8716 708.779 Q58.7843 711.994 53.6281 711.994 Q47.6125 711.994 44.5569 707.984 Q41.5014 703.941 41.5014 695.953 L41.5014 687.741 L40.9285 687.741 Q36.8862 687.741 34.6901 690.414 Q32.4621 693.056 32.4621 697.862 Q32.4621 700.918 33.1941 703.814 Q33.9262 706.711 35.3903 709.384 L29.9795 709.384 Q28.7381 706.169 28.1334 703.146 Q27.4968 700.122 27.4968 697.257 Q27.4968 689.523 31.5072 685.704 Q35.5176 681.884 43.6657 681.884 Z" fill="#000000" fill-rule="nonzero" fill-opacity="1" /><path clip-path="url(#clip570)" d="M14.5426 670.744 L14.5426 665.652 Q22.0542 660.877 29.2474 658.522 Q36.4406 656.135 43.5384 656.135 Q50.668 656.135 57.8931 658.522 Q65.1182 660.877 72.5979 665.652 L72.5979 670.744 Q65.3091 666.511 58.1159 664.442 Q50.8908 662.342 43.5384 662.342 Q36.186 662.342 29.0246 664.442 Q21.8632 666.511 14.5426 670.744 Z" fill="#000000" fill-rule="nonzero" fill-opacity="1" /><polyline clip-path="url(#clip571)" style="stroke:#009af9; stroke-linecap:round; stroke-linejoin:round; stroke-width:4; stroke-opacity:1; fill:none" points="309.044,1294.96 309.044,567.789 "/>
<polyline clip-path="url(#clip571)" style="stroke:#009af9; stroke-linecap:round; stroke-linejoin:round; stroke-width:4; stroke-opacity:1; fill:none" points="2293.23,1510.15 2293.23,89.8529 "/>
<line clip-path="url(#clip571)" x1="325.044" y1="1294.96" x2="293.044" y2="1294.96" style="stroke:#009af9; stroke-width:4; stroke-opacity:1"/>
<line clip-path="url(#clip571)" x1="325.044" y1="567.789" x2="293.044" y2="567.789" style="stroke:#009af9; stroke-width:4; stroke-opacity:1"/>
<line clip-path="url(#clip571)" x1="2309.23" y1="1510.15" x2="2277.23" y2="1510.15" style="stroke:#009af9; stroke-width:4; stroke-opacity:1"/>
<line clip-path="url(#clip571)" x1="2309.23" y1="89.8529" x2="2277.23" y2="89.8529" style="stroke:#009af9; stroke-width:4; stroke-opacity:1"/>
<circle clip-path="url(#clip571)" cx="309.044" cy="931.376" r="14.4" fill="#009af9" fill-rule="evenodd" fill-opacity="1" stroke="none"/>
<circle clip-path="url(#clip571)" cx="2293.23" cy="800" r="14.4" fill="#009af9" fill-rule="evenodd" fill-opacity="1" stroke="none"/>
<path clip-path="url(#clip571)" d="M309.044 1298.55 L2293.23 1298.55 L2293.23 765.423 L309.044 765.423  Z" fill="#e26f46" fill-rule="evenodd" fill-opacity="0.6"/>
<polyline clip-path="url(#clip571)" style="stroke:#e26f46; stroke-linecap:round; stroke-linejoin:round; stroke-width:4; stroke-opacity:0; fill:none" points="309.044,1298.55 2293.23,1298.55 "/>
<polyline clip-path="url(#clip571)" style="stroke:#000000; stroke-linecap:round; stroke-linejoin:round; stroke-width:4; stroke-opacity:1; fill:none" stroke-dasharray="2, 4" points="309.044,977.928 2293.23,977.928 "/>
<path clip-path="url(#clip570)" d="M319.627 252.948 L1325.83 252.948 L1325.83 97.4278 L319.627 97.4278  Z" fill="#ffffff" fill-rule="evenodd" fill-opacity="1"/>
<polyline clip-path="url(#clip570)" style="stroke:#ffffff; stroke-linecap:round; stroke-linejoin:round; stroke-width:4; stroke-opacity:1; fill:none" points="319.627,252.948 1325.83,252.948 1325.83,97.4278 319.627,97.4278 319.627,252.948 "/>
<circle clip-path="url(#clip570)" cx="413.104" cy="149.268" r="20.48" fill="#009af9" fill-rule="evenodd" fill-opacity="1" stroke="none"/>
<path clip-path="url(#clip570)" d="M511.257 135.83 L511.257 162.705 L516.905 162.705 Q524.058 162.705 527.368 159.465 Q530.701 156.224 530.701 149.233 Q530.701 142.289 527.368 139.071 Q524.058 135.83 516.905 135.83 L511.257 135.83 M506.581 131.988 L516.188 131.988 Q526.234 131.988 530.933 136.178 Q535.632 140.344 535.632 149.233 Q535.632 158.168 530.91 162.358 Q526.188 166.548 516.188 166.548 L506.581 166.548 L506.581 131.988 Z" fill="#000000" fill-rule="nonzero" fill-opacity="1" /><path clip-path="url(#clip570)" d="M554.683 153.515 Q549.521 153.515 547.53 154.696 Q545.539 155.877 545.539 158.724 Q545.539 160.992 547.021 162.335 Q548.525 163.654 551.095 163.654 Q554.636 163.654 556.766 161.154 Q558.919 158.631 558.919 154.465 L558.919 153.515 L554.683 153.515 M563.178 151.756 L563.178 166.548 L558.919 166.548 L558.919 162.613 Q557.461 164.974 555.285 166.108 Q553.109 167.219 549.961 167.219 Q545.979 167.219 543.618 164.997 Q541.28 162.752 541.28 159.002 Q541.28 154.627 544.197 152.404 Q547.137 150.182 552.947 150.182 L558.919 150.182 L558.919 149.766 Q558.919 146.826 556.974 145.228 Q555.053 143.608 551.558 143.608 Q549.336 143.608 547.229 144.141 Q545.123 144.673 543.178 145.738 L543.178 141.803 Q545.516 140.9 547.715 140.46 Q549.914 139.997 551.998 139.997 Q557.623 139.997 560.4 142.914 Q563.178 145.83 563.178 151.756 Z" fill="#000000" fill-rule="nonzero" fill-opacity="1" /><path clip-path="url(#clip570)" d="M576.164 133.261 L576.164 140.622 L584.937 140.622 L584.937 143.932 L576.164 143.932 L576.164 158.006 Q576.164 161.177 577.021 162.08 Q577.9 162.983 580.562 162.983 L584.937 162.983 L584.937 166.548 L580.562 166.548 Q575.632 166.548 573.757 164.719 Q571.882 162.867 571.882 158.006 L571.882 143.932 L568.757 143.932 L568.757 140.622 L571.882 140.622 L571.882 133.261 L576.164 133.261 Z" fill="#000000" fill-rule="nonzero" fill-opacity="1" /><path clip-path="url(#clip570)" d="M602.321 153.515 Q597.159 153.515 595.169 154.696 Q593.178 155.877 593.178 158.724 Q593.178 160.992 594.659 162.335 Q596.164 163.654 598.733 163.654 Q602.275 163.654 604.405 161.154 Q606.558 158.631 606.558 154.465 L606.558 153.515 L602.321 153.515 M610.817 151.756 L610.817 166.548 L606.558 166.548 L606.558 162.613 Q605.099 164.974 602.923 166.108 Q600.747 167.219 597.599 167.219 Q593.618 167.219 591.257 164.997 Q588.919 162.752 588.919 159.002 Q588.919 154.627 591.835 152.404 Q594.775 150.182 600.585 150.182 L606.558 150.182 L606.558 149.766 Q606.558 146.826 604.613 145.228 Q602.692 143.608 599.196 143.608 Q596.974 143.608 594.868 144.141 Q592.761 144.673 590.817 145.738 L590.817 141.803 Q593.155 140.9 595.354 140.46 Q597.553 139.997 599.636 139.997 Q605.261 139.997 608.039 142.914 Q610.817 145.83 610.817 151.756 Z" fill="#000000" fill-rule="nonzero" fill-opacity="1" /><path clip-path="url(#clip570)" d="M644.891 130.576 Q641.789 135.9 640.284 141.108 Q638.78 146.316 638.78 151.664 Q638.78 157.011 640.284 162.265 Q641.812 167.497 644.891 172.798 L641.187 172.798 Q637.715 167.358 635.979 162.103 Q634.266 156.849 634.266 151.664 Q634.266 146.502 635.979 141.27 Q637.692 136.039 641.187 130.576 L644.891 130.576 Z" fill="#000000" fill-rule="nonzero" fill-opacity="1" /><path clip-path="url(#clip570)" d="M663.201 143.608 Q659.775 143.608 657.784 146.293 Q655.793 148.955 655.793 153.608 Q655.793 158.261 657.761 160.946 Q659.752 163.608 663.201 163.608 Q666.603 163.608 668.594 160.923 Q670.585 158.238 670.585 153.608 Q670.585 149.002 668.594 146.316 Q666.603 143.608 663.201 143.608 M663.201 139.997 Q668.756 139.997 671.928 143.608 Q675.099 147.219 675.099 153.608 Q675.099 159.974 671.928 163.608 Q668.756 167.219 663.201 167.219 Q657.622 167.219 654.451 163.608 Q651.303 159.974 651.303 153.608 Q651.303 147.219 654.451 143.608 Q657.622 139.997 663.201 139.997 Z" fill="#000000" fill-rule="nonzero" fill-opacity="1" /><path clip-path="url(#clip570)" d="M700.77 153.608 Q700.77 148.909 698.826 146.247 Q696.904 143.562 693.525 143.562 Q690.145 143.562 688.201 146.247 Q686.279 148.909 686.279 153.608 Q686.279 158.307 688.201 160.992 Q690.145 163.654 693.525 163.654 Q696.904 163.654 698.826 160.992 Q700.77 158.307 700.77 153.608 M686.279 144.557 Q687.622 142.242 689.659 141.131 Q691.719 139.997 694.566 139.997 Q699.288 139.997 702.228 143.747 Q705.191 147.497 705.191 153.608 Q705.191 159.719 702.228 163.469 Q699.288 167.219 694.566 167.219 Q691.719 167.219 689.659 166.108 Q687.622 164.974 686.279 162.659 L686.279 166.548 L681.997 166.548 L681.997 130.529 L686.279 130.529 L686.279 144.557 Z" fill="#000000" fill-rule="nonzero" fill-opacity="1" /><path clip-path="url(#clip570)" d="M728.779 141.386 L728.779 145.414 Q726.974 144.488 725.029 144.025 Q723.085 143.562 721.001 143.562 Q717.83 143.562 716.233 144.534 Q714.659 145.506 714.659 147.451 Q714.659 148.932 715.793 149.789 Q716.927 150.622 720.353 151.386 L721.812 151.71 Q726.349 152.682 728.247 154.465 Q730.168 156.224 730.168 159.395 Q730.168 163.006 727.298 165.113 Q724.45 167.219 719.45 167.219 Q717.367 167.219 715.099 166.802 Q712.853 166.409 710.353 165.599 L710.353 161.201 Q712.714 162.427 715.006 163.052 Q717.298 163.654 719.543 163.654 Q722.552 163.654 724.173 162.636 Q725.793 161.594 725.793 159.719 Q725.793 157.983 724.612 157.057 Q723.455 156.131 719.497 155.275 L718.015 154.928 Q714.057 154.094 712.298 152.381 Q710.538 150.645 710.538 147.636 Q710.538 143.978 713.131 141.988 Q715.724 139.997 720.492 139.997 Q722.853 139.997 724.936 140.344 Q727.02 140.691 728.779 141.386 Z" fill="#000000" fill-rule="nonzero" fill-opacity="1" /><path clip-path="url(#clip570)" d="M759.126 152.52 L759.126 154.603 L739.543 154.603 Q739.821 159.002 742.182 161.316 Q744.566 163.608 748.802 163.608 Q751.256 163.608 753.547 163.006 Q755.862 162.404 758.131 161.201 L758.131 165.228 Q755.839 166.201 753.432 166.71 Q751.024 167.219 748.547 167.219 Q742.344 167.219 738.71 163.608 Q735.098 159.997 735.098 153.84 Q735.098 147.474 738.524 143.747 Q741.973 139.997 747.807 139.997 Q753.038 139.997 756.071 143.377 Q759.126 146.733 759.126 152.52 M754.867 151.27 Q754.821 147.775 752.899 145.691 Q751.001 143.608 747.853 143.608 Q744.288 143.608 742.135 145.622 Q740.006 147.636 739.682 151.293 L754.867 151.27 Z" fill="#000000" fill-rule="nonzero" fill-opacity="1" /><path clip-path="url(#clip570)" d="M781.14 144.603 Q780.422 144.187 779.566 144.002 Q778.733 143.793 777.714 143.793 Q774.103 143.793 772.158 146.154 Q770.237 148.492 770.237 152.89 L770.237 166.548 L765.955 166.548 L765.955 140.622 L770.237 140.622 L770.237 144.65 Q771.58 142.289 773.733 141.154 Q775.885 139.997 778.964 139.997 Q779.404 139.997 779.936 140.066 Q780.469 140.113 781.117 140.229 L781.14 144.603 Z" fill="#000000" fill-rule="nonzero" fill-opacity="1" /><path clip-path="url(#clip570)" d="M782.552 140.622 L787.066 140.622 L795.168 162.381 L803.269 140.622 L807.783 140.622 L798.061 166.548 L792.274 166.548 L782.552 140.622 Z" fill="#000000" fill-rule="nonzero" fill-opacity="1" /><path clip-path="url(#clip570)" d="M835.839 152.52 L835.839 154.603 L816.255 154.603 Q816.533 159.002 818.894 161.316 Q821.279 163.608 825.515 163.608 Q827.968 163.608 830.26 163.006 Q832.575 162.404 834.843 161.201 L834.843 165.228 Q832.552 166.201 830.144 166.71 Q827.737 167.219 825.26 167.219 Q819.056 167.219 815.422 163.608 Q811.811 159.997 811.811 153.84 Q811.811 147.474 815.237 143.747 Q818.686 139.997 824.519 139.997 Q829.751 139.997 832.783 143.377 Q835.839 146.733 835.839 152.52 M831.579 151.27 Q831.533 147.775 829.612 145.691 Q827.714 143.608 824.566 143.608 Q821.001 143.608 818.848 145.622 Q816.718 147.636 816.394 151.293 L831.579 151.27 Z" fill="#000000" fill-rule="nonzero" fill-opacity="1" /><path clip-path="url(#clip570)" d="M859.889 144.557 L859.889 130.529 L864.149 130.529 L864.149 166.548 L859.889 166.548 L859.889 162.659 Q858.547 164.974 856.487 166.108 Q854.45 167.219 851.579 167.219 Q846.88 167.219 843.917 163.469 Q840.978 159.719 840.978 153.608 Q840.978 147.497 843.917 143.747 Q846.88 139.997 851.579 139.997 Q854.45 139.997 856.487 141.131 Q858.547 142.242 859.889 144.557 M845.376 153.608 Q845.376 158.307 847.297 160.992 Q849.241 163.654 852.621 163.654 Q856.001 163.654 857.945 160.992 Q859.889 158.307 859.889 153.608 Q859.889 148.909 857.945 146.247 Q856.001 143.562 852.621 143.562 Q849.241 143.562 847.297 146.247 Q845.376 148.909 845.376 153.608 Z" fill="#000000" fill-rule="nonzero" fill-opacity="1" /><path clip-path="url(#clip570)" d="M899.774 153.515 Q894.612 153.515 892.621 154.696 Q890.63 155.877 890.63 158.724 Q890.63 160.992 892.112 162.335 Q893.616 163.654 896.186 163.654 Q899.727 163.654 901.857 161.154 Q904.01 158.631 904.01 154.465 L904.01 153.515 L899.774 153.515 M908.269 151.756 L908.269 166.548 L904.01 166.548 L904.01 162.613 Q902.551 164.974 900.375 166.108 Q898.199 167.219 895.051 167.219 Q891.07 167.219 888.709 164.997 Q886.371 162.752 886.371 159.002 Q886.371 154.627 889.287 152.404 Q892.227 150.182 898.037 150.182 L904.01 150.182 L904.01 149.766 Q904.01 146.826 902.065 145.228 Q900.144 143.608 896.649 143.608 Q894.426 143.608 892.32 144.141 Q890.213 144.673 888.269 145.738 L888.269 141.803 Q890.607 140.9 892.806 140.46 Q895.005 139.997 897.088 139.997 Q902.713 139.997 905.491 142.914 Q908.269 145.83 908.269 151.756 Z" fill="#000000" fill-rule="nonzero" fill-opacity="1" /><path clip-path="url(#clip570)" d="M934.102 153.284 Q934.102 148.654 932.181 146.108 Q930.283 143.562 926.834 143.562 Q923.408 143.562 921.486 146.108 Q919.588 148.654 919.588 153.284 Q919.588 157.89 921.486 160.437 Q923.408 162.983 926.834 162.983 Q930.283 162.983 932.181 160.437 Q934.102 157.89 934.102 153.284 M938.361 163.33 Q938.361 169.951 935.421 173.168 Q932.482 176.409 926.417 176.409 Q924.172 176.409 922.181 176.062 Q920.19 175.738 918.315 175.043 L918.315 170.9 Q920.19 171.918 922.019 172.404 Q923.847 172.89 925.746 172.89 Q929.935 172.89 932.019 170.691 Q934.102 168.515 934.102 164.094 L934.102 161.988 Q932.783 164.279 930.722 165.414 Q928.662 166.548 925.792 166.548 Q921.023 166.548 918.107 162.914 Q915.19 159.279 915.19 153.284 Q915.19 147.266 918.107 143.631 Q921.023 139.997 925.792 139.997 Q928.662 139.997 930.722 141.131 Q932.783 142.266 934.102 144.557 L934.102 140.622 L938.361 140.622 L938.361 163.33 Z" fill="#000000" fill-rule="nonzero" fill-opacity="1" /><path clip-path="url(#clip570)" d="M969.31 152.52 L969.31 154.603 L949.727 154.603 Q950.005 159.002 952.366 161.316 Q954.75 163.608 958.986 163.608 Q961.44 163.608 963.732 163.006 Q966.046 162.404 968.315 161.201 L968.315 165.228 Q966.023 166.201 963.616 166.71 Q961.208 167.219 958.732 167.219 Q952.528 167.219 948.894 163.608 Q945.283 159.997 945.283 153.84 Q945.283 147.474 948.708 143.747 Q952.158 139.997 957.991 139.997 Q963.222 139.997 966.255 143.377 Q969.31 146.733 969.31 152.52 M965.051 151.27 Q965.005 147.775 963.083 145.691 Q961.185 143.608 958.037 143.608 Q954.472 143.608 952.32 145.622 Q950.19 147.636 949.866 151.293 L965.051 151.27 Z" fill="#000000" fill-rule="nonzero" fill-opacity="1" /><path clip-path="url(#clip570)" d="M992.829 141.386 L992.829 145.414 Q991.023 144.488 989.079 144.025 Q987.134 143.562 985.051 143.562 Q981.88 143.562 980.282 144.534 Q978.708 145.506 978.708 147.451 Q978.708 148.932 979.843 149.789 Q980.977 150.622 984.403 151.386 L985.861 151.71 Q990.398 152.682 992.296 154.465 Q994.217 156.224 994.217 159.395 Q994.217 163.006 991.347 165.113 Q988.5 167.219 983.5 167.219 Q981.417 167.219 979.148 166.802 Q976.903 166.409 974.403 165.599 L974.403 161.201 Q976.764 162.427 979.056 163.052 Q981.347 163.654 983.593 163.654 Q986.602 163.654 988.222 162.636 Q989.842 161.594 989.842 159.719 Q989.842 157.983 988.662 157.057 Q987.505 156.131 983.546 155.275 L982.065 154.928 Q978.106 154.094 976.347 152.381 Q974.588 150.645 974.588 147.636 Q974.588 143.978 977.181 141.988 Q979.773 139.997 984.542 139.997 Q986.903 139.997 988.986 140.344 Q991.069 140.691 992.829 141.386 Z" fill="#000000" fill-rule="nonzero" fill-opacity="1" /><path clip-path="url(#clip570)" d="M1000.33 130.576 L1004.03 130.576 Q1007.5 136.039 1009.22 141.27 Q1010.95 146.502 1010.95 151.664 Q1010.95 156.849 1009.22 162.103 Q1007.5 167.358 1004.03 172.798 L1000.33 172.798 Q1003.41 167.497 1004.91 162.265 Q1006.44 157.011 1006.44 151.664 Q1006.44 146.316 1004.91 141.108 Q1003.41 135.9 1000.33 130.576 Z" fill="#000000" fill-rule="nonzero" fill-opacity="1" /><path clip-path="url(#clip570)" d="M342.996 221.844 L483.212 221.844 L483.212 180.372 L342.996 180.372 L342.996 221.844  Z" fill="#e26f46" fill-rule="evenodd" fill-opacity="0.6"/>
<polyline clip-path="url(#clip570)" style="stroke:#e26f46; stroke-linecap:round; stroke-linejoin:round; stroke-width:4; stroke-opacity:0; fill:none" points="342.996,180.372 483.212,180.372 "/>
<path clip-path="url(#clip570)" d="M506.581 183.828 L513.549 183.828 L522.368 207.346 L531.234 183.828 L538.201 183.828 L538.201 218.388 L533.641 218.388 L533.641 188.041 L524.729 211.744 L520.03 211.744 L511.118 188.041 L511.118 218.388 L506.581 218.388 L506.581 183.828 Z" fill="#000000" fill-rule="nonzero" fill-opacity="1" /><path clip-path="url(#clip570)" d="M557.345 195.448 Q553.919 195.448 551.928 198.133 Q549.937 200.795 549.937 205.448 Q549.937 210.101 551.905 212.786 Q553.896 215.448 557.345 215.448 Q560.748 215.448 562.738 212.763 Q564.729 210.078 564.729 205.448 Q564.729 200.842 562.738 198.156 Q560.748 195.448 557.345 195.448 M557.345 191.837 Q562.9 191.837 566.072 195.448 Q569.243 199.059 569.243 205.448 Q569.243 211.814 566.072 215.448 Q562.9 219.059 557.345 219.059 Q551.766 219.059 548.595 215.448 Q545.447 211.814 545.447 205.448 Q545.447 199.059 548.595 195.448 Q551.766 191.837 557.345 191.837 Z" fill="#000000" fill-rule="nonzero" fill-opacity="1" /><path clip-path="url(#clip570)" d="M593.363 196.397 L593.363 182.369 L597.622 182.369 L597.622 218.388 L593.363 218.388 L593.363 214.499 Q592.021 216.814 589.96 217.948 Q587.923 219.059 585.053 219.059 Q580.354 219.059 577.391 215.309 Q574.451 211.559 574.451 205.448 Q574.451 199.337 577.391 195.587 Q580.354 191.837 585.053 191.837 Q587.923 191.837 589.96 192.971 Q592.021 194.082 593.363 196.397 M578.849 205.448 Q578.849 210.147 580.771 212.832 Q582.715 215.494 586.095 215.494 Q589.474 215.494 591.419 212.832 Q593.363 210.147 593.363 205.448 Q593.363 200.749 591.419 198.087 Q589.474 195.402 586.095 195.402 Q582.715 195.402 580.771 198.087 Q578.849 200.749 578.849 205.448 Z" fill="#000000" fill-rule="nonzero" fill-opacity="1" /><path clip-path="url(#clip570)" d="M628.571 204.36 L628.571 206.443 L608.988 206.443 Q609.266 210.842 611.627 213.156 Q614.011 215.448 618.247 215.448 Q620.701 215.448 622.993 214.846 Q625.307 214.244 627.576 213.041 L627.576 217.068 Q625.284 218.041 622.877 218.55 Q620.469 219.059 617.993 219.059 Q611.789 219.059 608.155 215.448 Q604.544 211.837 604.544 205.68 Q604.544 199.314 607.97 195.587 Q611.419 191.837 617.252 191.837 Q622.483 191.837 625.516 195.217 Q628.571 198.573 628.571 204.36 M624.312 203.11 Q624.266 199.615 622.344 197.531 Q620.446 195.448 617.298 195.448 Q613.733 195.448 611.581 197.462 Q609.451 199.476 609.127 203.133 L624.312 203.11 Z" fill="#000000" fill-rule="nonzero" fill-opacity="1" /><path clip-path="url(#clip570)" d="M635.562 182.369 L639.821 182.369 L639.821 218.388 L635.562 218.388 L635.562 182.369 Z" fill="#000000" fill-rule="nonzero" fill-opacity="1" /><path clip-path="url(#clip570)" d="M674.034 182.416 Q670.932 187.74 669.428 192.948 Q667.923 198.156 667.923 203.504 Q667.923 208.851 669.428 214.105 Q670.955 219.337 674.034 224.638 L670.33 224.638 Q666.858 219.198 665.122 213.943 Q663.409 208.689 663.409 203.504 Q663.409 198.342 665.122 193.11 Q666.835 187.879 670.33 182.416 L674.034 182.416 Z" fill="#000000" fill-rule="nonzero" fill-opacity="1" /><path clip-path="url(#clip570)" d="M693.478 199.244 Q690.33 199.244 688.478 201.397 Q686.65 203.55 686.65 207.3 Q686.65 211.027 688.478 213.203 Q690.33 215.355 693.478 215.355 Q696.626 215.355 698.455 213.203 Q700.307 211.027 700.307 207.3 Q700.307 203.55 698.455 201.397 Q696.626 199.244 693.478 199.244 M702.761 184.592 L702.761 188.851 Q701.001 188.018 699.196 187.578 Q697.413 187.138 695.654 187.138 Q691.025 187.138 688.571 190.263 Q686.14 193.388 685.793 199.707 Q687.159 197.693 689.219 196.629 Q691.279 195.541 693.756 195.541 Q698.964 195.541 701.974 198.712 Q705.006 201.86 705.006 207.3 Q705.006 212.624 701.858 215.842 Q698.71 219.059 693.478 219.059 Q687.483 219.059 684.312 214.476 Q681.14 209.869 681.14 201.143 Q681.14 192.948 685.029 188.087 Q688.918 183.203 695.469 183.203 Q697.228 183.203 699.011 183.55 Q700.816 183.897 702.761 184.592 Z" fill="#000000" fill-rule="nonzero" fill-opacity="1" /><path clip-path="url(#clip570)" d="M713.108 183.828 L731.464 183.828 L731.464 187.763 L717.39 187.763 L717.39 196.235 Q718.409 195.888 719.427 195.726 Q720.446 195.541 721.464 195.541 Q727.251 195.541 730.631 198.712 Q734.011 201.883 734.011 207.3 Q734.011 212.879 730.538 215.98 Q727.066 219.059 720.747 219.059 Q718.571 219.059 716.302 218.689 Q714.057 218.318 711.65 217.578 L711.65 212.879 Q713.733 214.013 715.955 214.568 Q718.177 215.124 720.654 215.124 Q724.659 215.124 726.997 213.017 Q729.335 210.911 729.335 207.3 Q729.335 203.689 726.997 201.582 Q724.659 199.476 720.654 199.476 Q718.779 199.476 716.904 199.893 Q715.052 200.309 713.108 201.189 L713.108 183.828 Z" fill="#000000" fill-rule="nonzero" fill-opacity="1" /><path clip-path="url(#clip570)" d="M743.223 212.508 L748.108 212.508 L748.108 218.388 L743.223 218.388 L743.223 212.508 Z" fill="#000000" fill-rule="nonzero" fill-opacity="1" /><path clip-path="url(#clip570)" d="M768.293 201.976 Q764.959 201.976 763.038 203.758 Q761.14 205.541 761.14 208.666 Q761.14 211.791 763.038 213.573 Q764.959 215.355 768.293 215.355 Q771.626 215.355 773.547 213.573 Q775.469 211.767 775.469 208.666 Q775.469 205.541 773.547 203.758 Q771.649 201.976 768.293 201.976 M763.617 199.985 Q760.608 199.244 758.918 197.184 Q757.251 195.124 757.251 192.161 Q757.251 188.018 760.191 185.61 Q763.154 183.203 768.293 183.203 Q773.455 183.203 776.395 185.61 Q779.334 188.018 779.334 192.161 Q779.334 195.124 777.645 197.184 Q775.978 199.244 772.992 199.985 Q776.371 200.772 778.246 203.064 Q780.145 205.355 780.145 208.666 Q780.145 213.689 777.066 216.374 Q774.01 219.059 768.293 219.059 Q762.575 219.059 759.496 216.374 Q756.441 213.689 756.441 208.666 Q756.441 205.355 758.339 203.064 Q760.237 200.772 763.617 199.985 M761.904 192.601 Q761.904 195.286 763.571 196.791 Q765.26 198.295 768.293 198.295 Q771.302 198.295 772.992 196.791 Q774.705 195.286 774.705 192.601 Q774.705 189.916 772.992 188.411 Q771.302 186.907 768.293 186.907 Q765.26 186.907 763.571 188.411 Q761.904 189.916 761.904 192.601 Z" fill="#000000" fill-rule="nonzero" fill-opacity="1" /><path clip-path="url(#clip570)" d="M798.455 186.907 Q794.844 186.907 793.015 190.471 Q791.209 194.013 791.209 201.143 Q791.209 208.249 793.015 211.814 Q794.844 215.355 798.455 215.355 Q802.089 215.355 803.894 211.814 Q805.723 208.249 805.723 201.143 Q805.723 194.013 803.894 190.471 Q802.089 186.907 798.455 186.907 M798.455 183.203 Q804.265 183.203 807.32 187.809 Q810.399 192.393 810.399 201.143 Q810.399 209.869 807.32 214.476 Q804.265 219.059 798.455 219.059 Q792.644 219.059 789.566 214.476 Q786.51 209.869 786.51 201.143 Q786.51 192.393 789.566 187.809 Q792.644 183.203 798.455 183.203 Z" fill="#000000" fill-rule="nonzero" fill-opacity="1" /><path clip-path="url(#clip570)" d="M818.755 217.67 L818.755 213.411 Q820.515 214.244 822.32 214.684 Q824.126 215.124 825.862 215.124 Q830.491 215.124 832.922 212.022 Q835.376 208.897 835.723 202.555 Q834.38 204.545 832.32 205.61 Q830.26 206.675 827.76 206.675 Q822.575 206.675 819.542 203.55 Q816.533 200.402 816.533 194.962 Q816.533 189.638 819.681 186.42 Q822.829 183.203 828.061 183.203 Q834.056 183.203 837.204 187.809 Q840.376 192.393 840.376 201.143 Q840.376 209.314 836.487 214.198 Q832.621 219.059 826.07 219.059 Q824.311 219.059 822.505 218.712 Q820.7 218.365 818.755 217.67 M828.061 203.018 Q831.209 203.018 833.038 200.865 Q834.89 198.712 834.89 194.962 Q834.89 191.235 833.038 189.082 Q831.209 186.907 828.061 186.907 Q824.913 186.907 823.061 189.082 Q821.232 191.235 821.232 194.962 Q821.232 198.712 823.061 200.865 Q824.913 203.018 828.061 203.018 Z" fill="#000000" fill-rule="nonzero" fill-opacity="1" /><path clip-path="url(#clip570)" d="M880.584 188.666 L880.584 201.559 L893.477 201.559 L893.477 205.494 L880.584 205.494 L880.584 218.388 L876.695 218.388 L876.695 205.494 L863.801 205.494 L863.801 201.559 L876.695 201.559 L876.695 188.666 L880.584 188.666 Z" fill="#000000" fill-rule="nonzero" fill-opacity="1" /><path clip-path="url(#clip570)" d="M913.57 186.907 Q909.959 186.907 908.13 190.471 Q906.324 194.013 906.324 201.143 Q906.324 208.249 908.13 211.814 Q909.959 215.355 913.57 215.355 Q917.204 215.355 919.01 211.814 Q920.838 208.249 920.838 201.143 Q920.838 194.013 919.01 190.471 Q917.204 186.907 913.57 186.907 M913.57 183.203 Q919.38 183.203 922.435 187.809 Q925.514 192.393 925.514 201.143 Q925.514 209.869 922.435 214.476 Q919.38 219.059 913.57 219.059 Q907.76 219.059 904.681 214.476 Q901.625 209.869 901.625 201.143 Q901.625 192.393 904.681 187.809 Q907.76 183.203 913.57 183.203 Z" fill="#000000" fill-rule="nonzero" fill-opacity="1" /><path clip-path="url(#clip570)" d="M933.732 212.508 L938.616 212.508 L938.616 218.388 L933.732 218.388 L933.732 212.508 Z" fill="#000000" fill-rule="nonzero" fill-opacity="1" /><path clip-path="url(#clip570)" d="M958.801 186.907 Q955.19 186.907 953.361 190.471 Q951.556 194.013 951.556 201.143 Q951.556 208.249 953.361 211.814 Q955.19 215.355 958.801 215.355 Q962.435 215.355 964.241 211.814 Q966.069 208.249 966.069 201.143 Q966.069 194.013 964.241 190.471 Q962.435 186.907 958.801 186.907 M958.801 183.203 Q964.611 183.203 967.667 187.809 Q970.745 192.393 970.745 201.143 Q970.745 209.869 967.667 214.476 Q964.611 219.059 958.801 219.059 Q952.991 219.059 949.912 214.476 Q946.857 209.869 946.857 201.143 Q946.857 192.393 949.912 187.809 Q952.991 183.203 958.801 183.203 Z" fill="#000000" fill-rule="nonzero" fill-opacity="1" /><path clip-path="url(#clip570)" d="M979.102 217.67 L979.102 213.411 Q980.861 214.244 982.667 214.684 Q984.472 215.124 986.208 215.124 Q990.838 215.124 993.268 212.022 Q995.722 208.897 996.069 202.555 Q994.727 204.545 992.667 205.61 Q990.606 206.675 988.106 206.675 Q982.921 206.675 979.889 203.55 Q976.88 200.402 976.88 194.962 Q976.88 189.638 980.028 186.42 Q983.176 183.203 988.407 183.203 Q994.403 183.203 997.551 187.809 Q1000.72 192.393 1000.72 201.143 Q1000.72 209.314 996.833 214.198 Q992.967 219.059 986.417 219.059 Q984.657 219.059 982.852 218.712 Q981.046 218.365 979.102 217.67 M988.407 203.018 Q991.555 203.018 993.384 200.865 Q995.236 198.712 995.236 194.962 Q995.236 191.235 993.384 189.082 Q991.555 186.907 988.407 186.907 Q985.259 186.907 983.407 189.082 Q981.579 191.235 981.579 194.962 Q981.579 198.712 983.407 200.865 Q985.259 203.018 988.407 203.018 Z" fill="#000000" fill-rule="nonzero" fill-opacity="1" /><path clip-path="url(#clip570)" d="M1021.97 187.902 L1010.17 206.351 L1021.97 206.351 L1021.97 187.902 M1020.75 183.828 L1026.62 183.828 L1026.62 206.351 L1031.56 206.351 L1031.56 210.24 L1026.62 210.24 L1026.62 218.388 L1021.97 218.388 L1021.97 210.24 L1006.37 210.24 L1006.37 205.726 L1020.75 183.828 Z" fill="#000000" fill-rule="nonzero" fill-opacity="1" /><path clip-path="url(#clip570)" d="M1046.25 183.828 L1050.19 183.828 L1038.15 222.786 L1034.22 222.786 L1046.25 183.828 Z" fill="#000000" fill-rule="nonzero" fill-opacity="1" /><path clip-path="url(#clip570)" d="M1052.5 203.504 L1064.98 203.504 L1064.98 207.3 L1052.5 207.3 L1052.5 203.504 Z" fill="#000000" fill-rule="nonzero" fill-opacity="1" /><path clip-path="url(#clip570)" d="M1082.37 186.907 Q1078.75 186.907 1076.93 190.471 Q1075.12 194.013 1075.12 201.143 Q1075.12 208.249 1076.93 211.814 Q1078.75 215.355 1082.37 215.355 Q1086 215.355 1087.8 211.814 Q1089.63 208.249 1089.63 201.143 Q1089.63 194.013 1087.8 190.471 Q1086 186.907 1082.37 186.907 M1082.37 183.203 Q1088.18 183.203 1091.23 187.809 Q1094.31 192.393 1094.31 201.143 Q1094.31 209.869 1091.23 214.476 Q1088.18 219.059 1082.37 219.059 Q1076.55 219.059 1073.48 214.476 Q1070.42 209.869 1070.42 201.143 Q1070.42 192.393 1073.48 187.809 Q1076.55 183.203 1082.37 183.203 Z" fill="#000000" fill-rule="nonzero" fill-opacity="1" /><path clip-path="url(#clip570)" d="M1102.53 212.508 L1107.41 212.508 L1107.41 218.388 L1102.53 218.388 L1102.53 212.508 Z" fill="#000000" fill-rule="nonzero" fill-opacity="1" /><path clip-path="url(#clip570)" d="M1118.41 214.453 L1126.05 214.453 L1126.05 188.087 L1117.74 189.754 L1117.74 185.494 L1126 183.828 L1130.68 183.828 L1130.68 214.453 L1138.31 214.453 L1138.31 218.388 L1118.41 218.388 L1118.41 214.453 Z" fill="#000000" fill-rule="nonzero" fill-opacity="1" /><path clip-path="url(#clip570)" d="M1160.61 187.902 L1148.8 206.351 L1160.61 206.351 L1160.61 187.902 M1159.38 183.828 L1165.26 183.828 L1165.26 206.351 L1170.19 206.351 L1170.19 210.24 L1165.26 210.24 L1165.26 218.388 L1160.61 218.388 L1160.61 210.24 L1145 210.24 L1145 205.726 L1159.38 183.828 Z" fill="#000000" fill-rule="nonzero" fill-opacity="1" /><path clip-path="url(#clip570)" d="M1181.95 214.453 L1198.27 214.453 L1198.27 218.388 L1176.32 218.388 L1176.32 214.453 Q1178.98 211.698 1183.57 207.068 Q1188.17 202.416 1189.36 201.073 Q1191.6 198.55 1192.48 196.814 Q1193.38 195.055 1193.38 193.365 Q1193.38 190.61 1191.44 188.874 Q1189.52 187.138 1186.42 187.138 Q1184.22 187.138 1181.76 187.902 Q1179.33 188.666 1176.55 190.217 L1176.55 185.494 Q1179.38 184.36 1181.83 183.782 Q1184.29 183.203 1186.32 183.203 Q1191.69 183.203 1194.89 185.888 Q1198.08 188.573 1198.08 193.064 Q1198.08 195.194 1197.27 197.115 Q1196.48 199.013 1194.38 201.606 Q1193.8 202.277 1190.7 205.494 Q1187.6 208.689 1181.95 214.453 Z" fill="#000000" fill-rule="nonzero" fill-opacity="1" /><path clip-path="url(#clip570)" d="M1222.73 183.828 L1229.7 183.828 L1238.52 207.346 L1247.39 183.828 L1254.35 183.828 L1254.35 218.388 L1249.79 218.388 L1249.79 188.041 L1240.88 211.744 L1236.18 211.744 L1227.27 188.041 L1227.27 218.388 L1222.73 218.388 L1222.73 183.828 Z" fill="#000000" fill-rule="nonzero" fill-opacity="1" /><path clip-path="url(#clip570)" d="M1275.23 205.355 Q1270.07 205.355 1268.08 206.536 Q1266.09 207.717 1266.09 210.564 Q1266.09 212.832 1267.57 214.175 Q1269.08 215.494 1271.65 215.494 Q1275.19 215.494 1277.32 212.994 Q1279.47 210.471 1279.47 206.305 L1279.47 205.355 L1275.23 205.355 M1283.73 203.596 L1283.73 218.388 L1279.47 218.388 L1279.47 214.453 Q1278.01 216.814 1275.84 217.948 Q1273.66 219.059 1270.51 219.059 Q1266.53 219.059 1264.17 216.837 Q1261.83 214.592 1261.83 210.842 Q1261.83 206.467 1264.75 204.244 Q1267.69 202.022 1273.5 202.022 L1279.47 202.022 L1279.47 201.606 Q1279.47 198.666 1277.53 197.068 Q1275.6 195.448 1272.11 195.448 Q1269.89 195.448 1267.78 195.981 Q1265.67 196.513 1263.73 197.578 L1263.73 193.643 Q1266.07 192.74 1268.27 192.3 Q1270.47 191.837 1272.55 191.837 Q1278.17 191.837 1280.95 194.754 Q1283.73 197.67 1283.73 203.596 Z" fill="#000000" fill-rule="nonzero" fill-opacity="1" /><path clip-path="url(#clip570)" d="M1291.83 182.416 L1295.54 182.416 Q1299.01 187.879 1300.72 193.11 Q1302.46 198.342 1302.46 203.504 Q1302.46 208.689 1300.72 213.943 Q1299.01 219.198 1295.54 224.638 L1291.83 224.638 Q1294.91 219.337 1296.41 214.105 Q1297.94 208.851 1297.94 203.504 Q1297.94 198.156 1296.41 192.948 Q1294.91 187.74 1291.83 182.416 Z" fill="#000000" fill-rule="nonzero" fill-opacity="1" /></svg>
