<?xml version="1.0" encoding="utf-8"?>
<svg xmlns="http://www.w3.org/2000/svg" xmlns:xlink="http://www.w3.org/1999/xlink" width="600" height="400" viewBox="0 0 2400 1600">
<defs>
  <clipPath id="clip200">
    <rect x="0" y="0" width="2400" height="1600"/>
  </clipPath>
</defs>
<path clip-path="url(#clip200)" d="M0 1600 L2400 1600 L2400 8.88178e-14 L0 8.88178e-14  Z" fill="#ffffff" fill-rule="evenodd" fill-opacity="1"/>
<defs>
  <clipPath id="clip201">
    <rect x="249" y="47" width="2104" height="1507"/>
  </clipPath>
</defs>
<path clip-path="url(#clip200)" d="M175.445 1423.18 L2352.76 1423.18 L2352.76 47.2441 L175.445 47.2441  Z" fill="#ffffff" fill-rule="evenodd" fill-opacity="1"/>
<defs>
  <clipPath id="clip202">
    <rect x="175" y="47" width="2178" height="1377"/>
  </clipPath>
</defs>
<polyline clip-path="url(#clip202)" style="stroke:#000000; stroke-linecap:round; stroke-linejoin:round; stroke-width:2; stroke-opacity:0.1; fill:none" points="531.45,1423.18 531.45,47.2441 "/>
<polyline clip-path="url(#clip202)" style="stroke:#000000; stroke-linecap:round; stroke-linejoin:round; stroke-width:2; stroke-opacity:0.1; fill:none" points="961,1423.18 961,47.2441 "/>
<polyline clip-path="url(#clip202)" style="stroke:#000000; stroke-linecap:round; stroke-linejoin:round; stroke-width:2; stroke-opacity:0.1; fill:none" points="1390.55,1423.18 1390.55,47.2441 "/>
<polyline clip-path="url(#clip202)" style="stroke:#000000; stroke-linecap:round; stroke-linejoin:round; stroke-width:2; stroke-opacity:0.1; fill:none" points="1820.1,1423.18 1820.1,47.2441 "/>
<polyline clip-path="url(#clip202)" style="stroke:#000000; stroke-linecap:round; stroke-linejoin:round; stroke-width:2; stroke-opacity:0.1; fill:none" points="2249.65,1423.18 2249.65,47.2441 "/>
<polyline clip-path="url(#clip202)" style="stroke:#000000; stroke-linecap:round; stroke-linejoin:round; stroke-width:2; stroke-opacity:0.1; fill:none" points="531.45,1423.18 531.45,47.2441 "/>
<polyline clip-path="url(#clip202)" style="stroke:#000000; stroke-linecap:round; stroke-linejoin:round; stroke-width:2; stroke-opacity:0.1; fill:none" points="961,1423.18 961,47.2441 "/>
<polyline clip-path="url(#clip202)" style="stroke:#000000; stroke-linecap:round; stroke-linejoin:round; stroke-width:2; stroke-opacity:0.1; fill:none" points="1390.55,1423.18 1390.55,47.2441 "/>
<polyline clip-path="url(#clip202)" style="stroke:#000000; stroke-linecap:round; stroke-linejoin:round; stroke-width:2; stroke-opacity:0.1; fill:none" points="1820.1,1423.18 1820.1,47.2441 "/>
<polyline clip-path="url(#clip202)" style="stroke:#000000; stroke-linecap:round; stroke-linejoin:round; stroke-width:2; stroke-opacity:0.1; fill:none" points="2249.65,1423.18 2249.65,47.2441 "/>
<polyline clip-path="url(#clip202)" style="stroke:#000000; stroke-linecap:round; stroke-linejoin:round; stroke-width:2; stroke-opacity:0.1; fill:none" points="175.445,1384.24 2352.76,1384.24 "/>
<polyline clip-path="url(#clip202)" style="stroke:#000000; stroke-linecap:round; stroke-linejoin:round; stroke-width:2; stroke-opacity:0.1; fill:none" points="175.445,1149.01 2352.76,1149.01 "/>
<polyline clip-path="url(#clip202)" style="stroke:#000000; stroke-linecap:round; stroke-linejoin:round; stroke-width:2; stroke-opacity:0.1; fill:none" points="175.445,913.789 2352.76,913.789 "/>
<polyline clip-path="url(#clip202)" style="stroke:#000000; stroke-linecap:round; stroke-linejoin:round; stroke-width:2; stroke-opacity:0.1; fill:none" points="175.445,678.564 2352.76,678.564 "/>
<polyline clip-path="url(#clip202)" style="stroke:#000000; stroke-linecap:round; stroke-linejoin:round; stroke-width:2; stroke-opacity:0.1; fill:none" points="175.445,443.339 2352.76,443.339 "/>
<polyline clip-path="url(#clip202)" style="stroke:#000000; stroke-linecap:round; stroke-linejoin:round; stroke-width:2; stroke-opacity:0.1; fill:none" points="175.445,208.114 2352.76,208.114 "/>
<polyline clip-path="url(#clip202)" style="stroke:#000000; stroke-linecap:round; stroke-linejoin:round; stroke-width:2; stroke-opacity:0.1; fill:none" points="175.445,1384.24 2352.76,1384.24 "/>
<polyline clip-path="url(#clip202)" style="stroke:#000000; stroke-linecap:round; stroke-linejoin:round; stroke-width:2; stroke-opacity:0.1; fill:none" points="175.445,1149.01 2352.76,1149.01 "/>
<polyline clip-path="url(#clip202)" style="stroke:#000000; stroke-linecap:round; stroke-linejoin:round; stroke-width:2; stroke-opacity:0.1; fill:none" points="175.445,913.789 2352.76,913.789 "/>
<polyline clip-path="url(#clip202)" style="stroke:#000000; stroke-linecap:round; stroke-linejoin:round; stroke-width:2; stroke-opacity:0.1; fill:none" points="175.445,678.564 2352.76,678.564 "/>
<polyline clip-path="url(#clip202)" style="stroke:#000000; stroke-linecap:round; stroke-linejoin:round; stroke-width:2; stroke-opacity:0.1; fill:none" points="175.445,443.339 2352.76,443.339 "/>
<polyline clip-path="url(#clip202)" style="stroke:#000000; stroke-linecap:round; stroke-linejoin:round; stroke-width:2; stroke-opacity:0.1; fill:none" points="175.445,208.114 2352.76,208.114 "/>
<polyline clip-path="url(#clip200)" style="stroke:#000000; stroke-linecap:round; stroke-linejoin:round; stroke-width:4; stroke-opacity:1; fill:none" points="175.445,1423.18 2352.76,1423.18 "/>
<polyline clip-path="url(#clip200)" style="stroke:#000000; stroke-linecap:round; stroke-linejoin:round; stroke-width:4; stroke-opacity:1; fill:none" points="175.445,47.2441 2352.76,47.2441 "/>
<polyline clip-path="url(#clip200)" style="stroke:#000000; stroke-linecap:round; stroke-linejoin:round; stroke-width:4; stroke-opacity:1; fill:none" points="531.45,1423.18 531.45,1404.28 "/>
<polyline clip-path="url(#clip200)" style="stroke:#000000; stroke-linecap:round; stroke-linejoin:round; stroke-width:4; stroke-opacity:1; fill:none" points="961,1423.18 961,1404.28 "/>
<polyline clip-path="url(#clip200)" style="stroke:#000000; stroke-linecap:round; stroke-linejoin:round; stroke-width:4; stroke-opacity:1; fill:none" points="1390.55,1423.18 1390.55,1404.28 "/>
<polyline clip-path="url(#clip200)" style="stroke:#000000; stroke-linecap:round; stroke-linejoin:round; stroke-width:4; stroke-opacity:1; fill:none" points="1820.1,1423.18 1820.1,1404.28 "/>
<polyline clip-path="url(#clip200)" style="stroke:#000000; stroke-linecap:round; stroke-linejoin:round; stroke-width:4; stroke-opacity:1; fill:none" points="2249.65,1423.18 2249.65,1404.28 "/>
<polyline clip-path="url(#clip200)" style="stroke:#000000; stroke-linecap:round; stroke-linejoin:round; stroke-width:4; stroke-opacity:1; fill:none" points="531.45,47.2441 531.45,66.1417 "/>
<polyline clip-path="url(#clip200)" style="stroke:#000000; stroke-linecap:round; stroke-linejoin:round; stroke-width:4; stroke-opacity:1; fill:none" points="961,47.2441 961,66.1417 "/>
<polyline clip-path="url(#clip200)" style="stroke:#000000; stroke-linecap:round; stroke-linejoin:round; stroke-width:4; stroke-opacity:1; fill:none" points="1390.55,47.2441 1390.55,66.1417 "/>
<polyline clip-path="url(#clip200)" style="stroke:#000000; stroke-linecap:round; stroke-linejoin:round; stroke-width:4; stroke-opacity:1; fill:none" points="1820.1,47.2441 1820.1,66.1417 "/>
<polyline clip-path="url(#clip200)" style="stroke:#000000; stroke-linecap:round; stroke-linejoin:round; stroke-width:4; stroke-opacity:1; fill:none" points="2249.65,47.2441 2249.65,66.1417 "/>
<path clip-path="url(#clip200)" d="M494.239 1466.44 Q491.091 1466.44 489.239 1468.59 Q487.411 1470.74 487.411 1474.49 Q487.411 1478.22 489.239 1480.39 Q491.091 1482.55 494.239 1482.55 Q497.387 1482.55 499.216 1480.39 Q501.068 1478.22 501.068 1474.49 Q501.068 1470.74 499.216 1468.59 Q497.387 1466.44 494.239 1466.44 M503.522 1451.78 L503.522 1456.04 Q501.762 1455.21 499.957 1454.77 Q498.174 1454.33 496.415 1454.33 Q491.786 1454.33 489.332 1457.45 Q486.901 1460.58 486.554 1466.9 Q487.92 1464.89 489.98 1463.82 Q492.04 1462.73 494.517 1462.73 Q499.725 1462.73 502.735 1465.9 Q505.767 1469.05 505.767 1474.49 Q505.767 1479.82 502.619 1483.03 Q499.471 1486.25 494.239 1486.25 Q488.244 1486.25 485.073 1481.67 Q481.901 1477.06 481.901 1468.33 Q481.901 1460.14 485.79 1455.28 Q489.679 1450.39 496.23 1450.39 Q497.989 1450.39 499.772 1450.74 Q501.577 1451.09 503.522 1451.78 Z" fill="#000000" fill-rule="nonzero" fill-opacity="1" /><path clip-path="url(#clip200)" d="M526.67 1455.09 L514.864 1473.54 L526.67 1473.54 L526.67 1455.09 M525.443 1451.02 L531.322 1451.02 L531.322 1473.54 L536.253 1473.54 L536.253 1477.43 L531.322 1477.43 L531.322 1485.58 L526.67 1485.58 L526.67 1477.43 L511.068 1477.43 L511.068 1472.92 L525.443 1451.02 Z" fill="#000000" fill-rule="nonzero" fill-opacity="1" /><path clip-path="url(#clip200)" d="M543.984 1479.7 L548.869 1479.7 L548.869 1485.58 L543.984 1485.58 L543.984 1479.7 Z" fill="#000000" fill-rule="nonzero" fill-opacity="1" /><path clip-path="url(#clip200)" d="M569.054 1454.1 Q565.443 1454.1 563.614 1457.66 Q561.808 1461.2 561.808 1468.33 Q561.808 1475.44 563.614 1479.01 Q565.443 1482.55 569.054 1482.55 Q572.688 1482.55 574.493 1479.01 Q576.322 1475.44 576.322 1468.33 Q576.322 1461.2 574.493 1457.66 Q572.688 1454.1 569.054 1454.1 M569.054 1450.39 Q574.864 1450.39 577.919 1455 Q580.998 1459.58 580.998 1468.33 Q580.998 1477.06 577.919 1481.67 Q574.864 1486.25 569.054 1486.25 Q563.243 1486.25 560.165 1481.67 Q557.109 1477.06 557.109 1468.33 Q557.109 1459.58 560.165 1455 Q563.243 1450.39 569.054 1450.39 Z" fill="#000000" fill-rule="nonzero" fill-opacity="1" /><path clip-path="url(#clip200)" d="M924.288 1466.44 Q921.14 1466.44 919.288 1468.59 Q917.459 1470.74 917.459 1474.49 Q917.459 1478.22 919.288 1480.39 Q921.14 1482.55 924.288 1482.55 Q927.436 1482.55 929.265 1480.39 Q931.116 1478.22 931.116 1474.49 Q931.116 1470.74 929.265 1468.59 Q927.436 1466.44 924.288 1466.44 M933.57 1451.78 L933.57 1456.04 Q931.811 1455.21 930.005 1454.77 Q928.223 1454.33 926.464 1454.33 Q921.834 1454.33 919.38 1457.45 Q916.95 1460.58 916.603 1466.9 Q917.968 1464.89 920.028 1463.82 Q922.089 1462.73 924.565 1462.73 Q929.774 1462.73 932.783 1465.9 Q935.815 1469.05 935.815 1474.49 Q935.815 1479.82 932.667 1483.03 Q929.519 1486.25 924.288 1486.25 Q918.292 1486.25 915.121 1481.67 Q911.95 1477.06 911.95 1468.33 Q911.95 1460.14 915.839 1455.28 Q919.728 1450.39 926.278 1450.39 Q928.038 1450.39 929.82 1450.74 Q931.626 1451.09 933.57 1451.78 Z" fill="#000000" fill-rule="nonzero" fill-opacity="1" /><path clip-path="url(#clip200)" d="M956.718 1455.09 L944.913 1473.54 L956.718 1473.54 L956.718 1455.09 M955.491 1451.02 L961.371 1451.02 L961.371 1473.54 L966.301 1473.54 L966.301 1477.43 L961.371 1477.43 L961.371 1485.58 L956.718 1485.58 L956.718 1477.43 L941.116 1477.43 L941.116 1472.92 L955.491 1451.02 Z" fill="#000000" fill-rule="nonzero" fill-opacity="1" /><path clip-path="url(#clip200)" d="M974.033 1479.7 L978.917 1479.7 L978.917 1485.58 L974.033 1485.58 L974.033 1479.7 Z" fill="#000000" fill-rule="nonzero" fill-opacity="1" /><path clip-path="url(#clip200)" d="M989.148 1451.02 L1007.5 1451.02 L1007.5 1454.96 L993.431 1454.96 L993.431 1463.43 Q994.449 1463.08 995.468 1462.92 Q996.486 1462.73 997.505 1462.73 Q1003.29 1462.73 1006.67 1465.9 Q1010.05 1469.08 1010.05 1474.49 Q1010.05 1480.07 1006.58 1483.17 Q1003.11 1486.25 996.787 1486.25 Q994.611 1486.25 992.343 1485.88 Q990.098 1485.51 987.69 1484.77 L987.69 1480.07 Q989.773 1481.2 991.996 1481.76 Q994.218 1482.32 996.695 1482.32 Q1000.7 1482.32 1003.04 1480.21 Q1005.38 1478.1 1005.38 1474.49 Q1005.38 1470.88 1003.04 1468.77 Q1000.7 1466.67 996.695 1466.67 Q994.82 1466.67 992.945 1467.08 Q991.093 1467.5 989.148 1468.38 L989.148 1451.02 Z" fill="#000000" fill-rule="nonzero" fill-opacity="1" /><path clip-path="url(#clip200)" d="M1353.34 1466.44 Q1350.19 1466.44 1348.34 1468.59 Q1346.51 1470.74 1346.51 1474.49 Q1346.51 1478.22 1348.34 1480.39 Q1350.19 1482.55 1353.34 1482.55 Q1356.49 1482.55 1358.32 1480.39 Q1360.17 1478.22 1360.17 1474.49 Q1360.17 1470.74 1358.32 1468.59 Q1356.49 1466.44 1353.34 1466.44 M1362.62 1451.78 L1362.62 1456.04 Q1360.86 1455.21 1359.06 1454.77 Q1357.28 1454.33 1355.52 1454.33 Q1350.89 1454.33 1348.43 1457.45 Q1346 1460.58 1345.66 1466.9 Q1347.02 1464.89 1349.08 1463.82 Q1351.14 1462.73 1353.62 1462.73 Q1358.83 1462.73 1361.84 1465.9 Q1364.87 1469.05 1364.87 1474.49 Q1364.87 1479.82 1361.72 1483.03 Q1358.57 1486.25 1353.34 1486.25 Q1347.35 1486.25 1344.17 1481.67 Q1341 1477.06 1341 1468.33 Q1341 1460.14 1344.89 1455.28 Q1348.78 1450.39 1355.33 1450.39 Q1357.09 1450.39 1358.87 1450.74 Q1360.68 1451.09 1362.62 1451.78 Z" fill="#000000" fill-rule="nonzero" fill-opacity="1" /><path clip-path="url(#clip200)" d="M1372.97 1451.02 L1391.33 1451.02 L1391.33 1454.96 L1377.25 1454.96 L1377.25 1463.43 Q1378.27 1463.08 1379.29 1462.92 Q1380.31 1462.73 1381.33 1462.73 Q1387.11 1462.73 1390.49 1465.9 Q1393.87 1469.08 1393.87 1474.49 Q1393.87 1480.07 1390.4 1483.17 Q1386.93 1486.25 1380.61 1486.25 Q1378.43 1486.25 1376.16 1485.88 Q1373.92 1485.51 1371.51 1484.77 L1371.51 1480.07 Q1373.6 1481.2 1375.82 1481.76 Q1378.04 1482.32 1380.52 1482.32 Q1384.52 1482.32 1386.86 1480.21 Q1389.2 1478.1 1389.2 1474.49 Q1389.2 1470.88 1386.86 1468.77 Q1384.52 1466.67 1380.52 1466.67 Q1378.64 1466.67 1376.77 1467.08 Q1374.91 1467.5 1372.97 1468.38 L1372.97 1451.02 Z" fill="#000000" fill-rule="nonzero" fill-opacity="1" /><path clip-path="url(#clip200)" d="M1403.09 1479.7 L1407.97 1479.7 L1407.97 1485.58 L1403.09 1485.58 L1403.09 1479.7 Z" fill="#000000" fill-rule="nonzero" fill-opacity="1" /><path clip-path="url(#clip200)" d="M1428.16 1454.1 Q1424.54 1454.1 1422.72 1457.66 Q1420.91 1461.2 1420.91 1468.33 Q1420.91 1475.44 1422.72 1479.01 Q1424.54 1482.55 1428.16 1482.55 Q1431.79 1482.55 1433.6 1479.01 Q1435.42 1475.44 1435.42 1468.33 Q1435.42 1461.2 1433.6 1457.66 Q1431.79 1454.1 1428.16 1454.1 M1428.16 1450.39 Q1433.97 1450.39 1437.02 1455 Q1440.1 1459.58 1440.1 1468.33 Q1440.1 1477.06 1437.02 1481.67 Q1433.97 1486.25 1428.16 1486.25 Q1422.35 1486.25 1419.27 1481.67 Q1416.21 1477.06 1416.21 1468.33 Q1416.21 1459.58 1419.27 1455 Q1422.35 1450.39 1428.16 1450.39 Z" fill="#000000" fill-rule="nonzero" fill-opacity="1" /><path clip-path="url(#clip200)" d="M1783.39 1466.44 Q1780.24 1466.44 1778.39 1468.59 Q1776.56 1470.74 1776.56 1474.49 Q1776.56 1478.22 1778.39 1480.39 Q1780.24 1482.55 1783.39 1482.55 Q1786.54 1482.55 1788.37 1480.39 Q1790.22 1478.22 1790.22 1474.49 Q1790.22 1470.74 1788.37 1468.59 Q1786.54 1466.44 1783.39 1466.44 M1792.67 1451.78 L1792.67 1456.04 Q1790.91 1455.21 1789.11 1454.77 Q1787.32 1454.33 1785.57 1454.33 Q1780.94 1454.33 1778.48 1457.45 Q1776.05 1460.58 1775.7 1466.9 Q1777.07 1464.89 1779.13 1463.82 Q1781.19 1462.73 1783.67 1462.73 Q1788.88 1462.73 1791.88 1465.9 Q1794.92 1469.05 1794.92 1474.49 Q1794.92 1479.82 1791.77 1483.03 Q1788.62 1486.25 1783.39 1486.25 Q1777.39 1486.25 1774.22 1481.67 Q1771.05 1477.06 1771.05 1468.33 Q1771.05 1460.14 1774.94 1455.28 Q1778.83 1450.39 1785.38 1450.39 Q1787.14 1450.39 1788.92 1450.74 Q1790.73 1451.09 1792.67 1451.78 Z" fill="#000000" fill-rule="nonzero" fill-opacity="1" /><path clip-path="url(#clip200)" d="M1803.02 1451.02 L1821.38 1451.02 L1821.38 1454.96 L1807.3 1454.96 L1807.3 1463.43 Q1808.32 1463.08 1809.34 1462.92 Q1810.36 1462.73 1811.38 1462.73 Q1817.16 1462.73 1820.54 1465.9 Q1823.92 1469.08 1823.92 1474.49 Q1823.92 1480.07 1820.45 1483.17 Q1816.98 1486.25 1810.66 1486.25 Q1808.48 1486.25 1806.21 1485.88 Q1803.97 1485.51 1801.56 1484.77 L1801.56 1480.07 Q1803.64 1481.2 1805.87 1481.76 Q1808.09 1482.32 1810.57 1482.32 Q1814.57 1482.32 1816.91 1480.21 Q1819.25 1478.1 1819.25 1474.49 Q1819.25 1470.88 1816.91 1468.77 Q1814.57 1466.67 1810.57 1466.67 Q1808.69 1466.67 1806.82 1467.08 Q1804.96 1467.5 1803.02 1468.38 L1803.02 1451.02 Z" fill="#000000" fill-rule="nonzero" fill-opacity="1" /><path clip-path="url(#clip200)" d="M1833.13 1479.7 L1838.02 1479.7 L1838.02 1485.58 L1833.13 1485.58 L1833.13 1479.7 Z" fill="#000000" fill-rule="nonzero" fill-opacity="1" /><path clip-path="url(#clip200)" d="M1848.25 1451.02 L1866.61 1451.02 L1866.61 1454.96 L1852.53 1454.96 L1852.53 1463.43 Q1853.55 1463.08 1854.57 1462.92 Q1855.59 1462.73 1856.61 1462.73 Q1862.39 1462.73 1865.77 1465.9 Q1869.15 1469.08 1869.15 1474.49 Q1869.15 1480.07 1865.68 1483.17 Q1862.21 1486.25 1855.89 1486.25 Q1853.71 1486.25 1851.44 1485.88 Q1849.2 1485.51 1846.79 1484.77 L1846.79 1480.07 Q1848.88 1481.2 1851.1 1481.76 Q1853.32 1482.32 1855.8 1482.32 Q1859.8 1482.32 1862.14 1480.21 Q1864.48 1478.1 1864.48 1474.49 Q1864.48 1470.88 1862.14 1468.77 Q1859.8 1466.67 1855.8 1466.67 Q1853.92 1466.67 1852.05 1467.08 Q1850.19 1467.5 1848.25 1468.38 L1848.25 1451.02 Z" fill="#000000" fill-rule="nonzero" fill-opacity="1" /><path clip-path="url(#clip200)" d="M2212.44 1466.44 Q2209.29 1466.44 2207.44 1468.59 Q2205.61 1470.74 2205.61 1474.49 Q2205.61 1478.22 2207.44 1480.39 Q2209.29 1482.55 2212.44 1482.55 Q2215.59 1482.55 2217.42 1480.39 Q2219.27 1478.22 2219.27 1474.49 Q2219.27 1470.74 2217.42 1468.59 Q2215.59 1466.44 2212.44 1466.44 M2221.72 1451.78 L2221.72 1456.04 Q2219.97 1455.21 2218.16 1454.77 Q2216.38 1454.33 2214.62 1454.33 Q2209.99 1454.33 2207.54 1457.45 Q2205.1 1460.58 2204.76 1466.9 Q2206.12 1464.89 2208.18 1463.82 Q2210.24 1462.73 2212.72 1462.73 Q2217.93 1462.73 2220.94 1465.9 Q2223.97 1469.05 2223.97 1474.49 Q2223.97 1479.82 2220.82 1483.03 Q2217.67 1486.25 2212.44 1486.25 Q2206.45 1486.25 2203.28 1481.67 Q2200.1 1477.06 2200.1 1468.33 Q2200.1 1460.14 2203.99 1455.28 Q2207.88 1450.39 2214.43 1450.39 Q2216.19 1450.39 2217.97 1450.74 Q2219.78 1451.09 2221.72 1451.78 Z" fill="#000000" fill-rule="nonzero" fill-opacity="1" /><path clip-path="url(#clip200)" d="M2242.6 1466.44 Q2239.46 1466.44 2237.6 1468.59 Q2235.78 1470.74 2235.78 1474.49 Q2235.78 1478.22 2237.6 1480.39 Q2239.46 1482.55 2242.6 1482.55 Q2245.75 1482.55 2247.58 1480.39 Q2249.43 1478.22 2249.43 1474.49 Q2249.43 1470.74 2247.58 1468.59 Q2245.75 1466.44 2242.6 1466.44 M2251.89 1451.78 L2251.89 1456.04 Q2250.13 1455.21 2248.32 1454.77 Q2246.54 1454.33 2244.78 1454.33 Q2240.15 1454.33 2237.7 1457.45 Q2235.27 1460.58 2234.92 1466.9 Q2236.28 1464.89 2238.35 1463.82 Q2240.41 1462.73 2242.88 1462.73 Q2248.09 1462.73 2251.1 1465.9 Q2254.13 1469.05 2254.13 1474.49 Q2254.13 1479.82 2250.98 1483.03 Q2247.84 1486.25 2242.6 1486.25 Q2236.61 1486.25 2233.44 1481.67 Q2230.27 1477.06 2230.27 1468.33 Q2230.27 1460.14 2234.16 1455.28 Q2238.04 1450.39 2244.6 1450.39 Q2246.35 1450.39 2248.14 1450.74 Q2249.94 1451.09 2251.89 1451.78 Z" fill="#000000" fill-rule="nonzero" fill-opacity="1" /><path clip-path="url(#clip200)" d="M2262.19 1479.7 L2267.07 1479.7 L2267.07 1485.58 L2262.19 1485.58 L2262.19 1479.7 Z" fill="#000000" fill-rule="nonzero" fill-opacity="1" /><path clip-path="url(#clip200)" d="M2287.26 1454.1 Q2283.65 1454.1 2281.82 1457.66 Q2280.01 1461.2 2280.01 1468.33 Q2280.01 1475.44 2281.82 1479.01 Q2283.65 1482.55 2287.26 1482.55 Q2290.89 1482.55 2292.7 1479.01 Q2294.53 1475.44 2294.53 1468.33 Q2294.53 1461.2 2292.7 1457.66 Q2290.89 1454.1 2287.26 1454.1 M2287.26 1450.39 Q2293.07 1450.39 2296.12 1455 Q2299.2 1459.58 2299.2 1468.33 Q2299.2 1477.06 2296.12 1481.67 Q2293.07 1486.25 2287.26 1486.25 Q2281.45 1486.25 2278.37 1481.67 Q2275.31 1477.06 2275.31 1468.33 Q2275.31 1459.58 2278.37 1455 Q2281.45 1450.39 2287.26 1450.39 Z" fill="#000000" fill-rule="nonzero" fill-opacity="1" /><path clip-path="url(#clip200)" d="M1142.01 1526.86 L1133.29 1550.51 L1150.76 1550.51 L1142.01 1526.86 M1138.38 1520.52 L1145.67 1520.52 L1163.78 1568.04 L1157.09 1568.04 L1152.76 1555.85 L1131.34 1555.85 L1127.02 1568.04 L1120.24 1568.04 L1138.38 1520.52 Z" fill="#000000" fill-rule="nonzero" fill-opacity="1" /><path clip-path="url(#clip200)" d="M1193.92 1549.81 Q1193.92 1543.44 1191.28 1539.94 Q1188.67 1536.44 1183.92 1536.44 Q1179.21 1536.44 1176.57 1539.94 Q1173.96 1543.44 1173.96 1549.81 Q1173.96 1556.14 1176.57 1559.64 Q1179.21 1563.14 1183.92 1563.14 Q1188.67 1563.14 1191.28 1559.64 Q1193.92 1556.14 1193.92 1549.81 M1199.78 1563.62 Q1199.78 1572.72 1195.73 1577.15 Q1191.69 1581.6 1183.35 1581.6 Q1180.26 1581.6 1177.53 1581.13 Q1174.79 1580.68 1172.21 1579.72 L1172.21 1574.03 Q1174.79 1575.43 1177.3 1576.1 Q1179.82 1576.76 1182.43 1576.76 Q1188.19 1576.76 1191.05 1573.74 Q1193.92 1570.75 1193.92 1564.67 L1193.92 1561.77 Q1192.1 1564.92 1189.27 1566.48 Q1186.44 1568.04 1182.49 1568.04 Q1175.94 1568.04 1171.93 1563.05 Q1167.91 1558.05 1167.91 1549.81 Q1167.91 1541.53 1171.93 1536.53 Q1175.94 1531.54 1182.49 1531.54 Q1186.44 1531.54 1189.27 1533.1 Q1192.1 1534.66 1193.92 1537.81 L1193.92 1532.4 L1199.78 1532.4 L1199.78 1563.62 Z" fill="#000000" fill-rule="nonzero" fill-opacity="1" /><path clip-path="url(#clip200)" d="M1242.33 1548.76 L1242.33 1551.62 L1215.4 1551.62 Q1215.78 1557.67 1219.03 1560.85 Q1222.31 1564 1228.13 1564 Q1231.51 1564 1234.66 1563.17 Q1237.84 1562.35 1240.96 1560.69 L1240.96 1566.23 Q1237.81 1567.57 1234.5 1568.27 Q1231.19 1568.97 1227.78 1568.97 Q1219.25 1568.97 1214.26 1564 Q1209.29 1559.04 1209.29 1550.57 Q1209.29 1541.82 1214 1536.69 Q1218.74 1531.54 1226.77 1531.54 Q1233.96 1531.54 1238.13 1536.18 Q1242.33 1540.8 1242.33 1548.76 M1236.47 1547.04 Q1236.41 1542.23 1233.77 1539.37 Q1231.16 1536.5 1226.83 1536.5 Q1221.93 1536.5 1218.97 1539.27 Q1216.04 1542.04 1215.59 1547.07 L1236.47 1547.04 Z" fill="#000000" fill-rule="nonzero" fill-opacity="1" /><path clip-path="url(#clip200)" d="M1286.73 1518.58 Q1282.47 1525.9 1280.4 1533.06 Q1278.33 1540.23 1278.33 1547.58 Q1278.33 1554.93 1280.4 1562.16 Q1282.5 1569.35 1286.73 1576.64 L1281.64 1576.64 Q1276.86 1569.16 1274.48 1561.93 Q1272.12 1554.71 1272.12 1547.58 Q1272.12 1540.48 1274.48 1533.29 Q1276.83 1526.09 1281.64 1518.58 L1286.73 1518.58 Z" fill="#000000" fill-rule="nonzero" fill-opacity="1" /><path clip-path="url(#clip200)" d="M1298.35 1520.52 L1307.93 1520.52 L1320.06 1552.86 L1332.25 1520.52 L1341.83 1520.52 L1341.83 1568.04 L1335.56 1568.04 L1335.56 1526.32 L1323.3 1558.91 L1316.84 1558.91 L1304.59 1526.32 L1304.59 1568.04 L1298.35 1568.04 L1298.35 1520.52 Z" fill="#000000" fill-rule="nonzero" fill-opacity="1" /><path clip-path="url(#clip200)" d="M1370.54 1550.12 Q1363.44 1550.12 1360.7 1551.75 Q1357.96 1553.37 1357.96 1557.29 Q1357.96 1560.4 1360 1562.25 Q1362.07 1564.07 1365.6 1564.07 Q1370.47 1564.07 1373.4 1560.63 Q1376.36 1557.16 1376.36 1551.43 L1376.36 1550.12 L1370.54 1550.12 M1382.22 1547.71 L1382.22 1568.04 L1376.36 1568.04 L1376.36 1562.63 Q1374.35 1565.88 1371.36 1567.44 Q1368.37 1568.97 1364.04 1568.97 Q1358.57 1568.97 1355.32 1565.91 Q1352.11 1562.82 1352.11 1557.67 Q1352.11 1551.65 1356.12 1548.6 Q1360.16 1545.54 1368.15 1545.54 L1376.36 1545.54 L1376.36 1544.97 Q1376.36 1540.93 1373.69 1538.73 Q1371.04 1536.5 1366.24 1536.5 Q1363.18 1536.5 1360.29 1537.23 Q1357.39 1537.97 1354.72 1539.43 L1354.72 1534.02 Q1357.93 1532.78 1360.95 1532.17 Q1363.98 1531.54 1366.84 1531.54 Q1374.58 1531.54 1378.4 1535.55 Q1382.22 1539.56 1382.22 1547.71 Z" fill="#000000" fill-rule="nonzero" fill-opacity="1" /><path clip-path="url(#clip200)" d="M1393.36 1518.58 L1398.45 1518.58 Q1403.22 1526.09 1405.58 1533.29 Q1407.97 1540.48 1407.97 1547.58 Q1407.97 1554.71 1405.58 1561.93 Q1403.22 1569.16 1398.45 1576.64 L1393.36 1576.64 Q1397.59 1569.35 1399.66 1562.16 Q1401.76 1554.93 1401.76 1547.58 Q1401.76 1540.23 1399.66 1533.06 Q1397.59 1525.9 1393.36 1518.58 Z" fill="#000000" fill-rule="nonzero" fill-opacity="1" /><polyline clip-path="url(#clip200)" style="stroke:#000000; stroke-linecap:round; stroke-linejoin:round; stroke-width:4; stroke-opacity:1; fill:none" points="175.445,1423.18 175.445,47.2441 "/>
<polyline clip-path="url(#clip200)" style="stroke:#000000; stroke-linecap:round; stroke-linejoin:round; stroke-width:4; stroke-opacity:1; fill:none" points="2352.76,1423.18 2352.76,47.2441 "/>
<polyline clip-path="url(#clip200)" style="stroke:#000000; stroke-linecap:round; stroke-linejoin:round; stroke-width:4; stroke-opacity:1; fill:none" points="175.445,1384.24 194.343,1384.24 "/>
<polyline clip-path="url(#clip200)" style="stroke:#000000; stroke-linecap:round; stroke-linejoin:round; stroke-width:4; stroke-opacity:1; fill:none" points="175.445,1149.01 194.343,1149.01 "/>
<polyline clip-path="url(#clip200)" style="stroke:#000000; stroke-linecap:round; stroke-linejoin:round; stroke-width:4; stroke-opacity:1; fill:none" points="175.445,913.789 194.343,913.789 "/>
<polyline clip-path="url(#clip200)" style="stroke:#000000; stroke-linecap:round; stroke-linejoin:round; stroke-width:4; stroke-opacity:1; fill:none" points="175.445,678.564 194.343,678.564 "/>
<polyline clip-path="url(#clip200)" style="stroke:#000000; stroke-linecap:round; stroke-linejoin:round; stroke-width:4; stroke-opacity:1; fill:none" points="175.445,443.339 194.343,443.339 "/>
<polyline clip-path="url(#clip200)" style="stroke:#000000; stroke-linecap:round; stroke-linejoin:round; stroke-width:4; stroke-opacity:1; fill:none" points="175.445,208.114 194.343,208.114 "/>
<polyline clip-path="url(#clip200)" style="stroke:#000000; stroke-linecap:round; stroke-linejoin:round; stroke-width:4; stroke-opacity:1; fill:none" points="2352.76,1384.24 2333.86,1384.24 "/>
<polyline clip-path="url(#clip200)" style="stroke:#000000; stroke-linecap:round; stroke-linejoin:round; stroke-width:4; stroke-opacity:1; fill:none" points="2352.76,1149.01 2333.86,1149.01 "/>
<polyline clip-path="url(#clip200)" style="stroke:#000000; stroke-linecap:round; stroke-linejoin:round; stroke-width:4; stroke-opacity:1; fill:none" points="2352.76,913.789 2333.86,913.789 "/>
<polyline clip-path="url(#clip200)" style="stroke:#000000; stroke-linecap:round; stroke-linejoin:round; stroke-width:4; stroke-opacity:1; fill:none" points="2352.76,678.564 2333.86,678.564 "/>
<polyline clip-path="url(#clip200)" style="stroke:#000000; stroke-linecap:round; stroke-linejoin:round; stroke-width:4; stroke-opacity:1; fill:none" points="2352.76,443.339 2333.86,443.339 "/>
<polyline clip-path="url(#clip200)" style="stroke:#000000; stroke-linecap:round; stroke-linejoin:round; stroke-width:4; stroke-opacity:1; fill:none" points="2352.76,208.114 2333.86,208.114 "/>
<path clip-path="url(#clip200)" d="M127.501 1370.04 Q123.89 1370.04 122.061 1373.6 Q120.255 1377.14 120.255 1384.27 Q120.255 1391.38 122.061 1394.94 Q123.89 1398.49 127.501 1398.49 Q131.135 1398.49 132.941 1394.94 Q134.769 1391.38 134.769 1384.27 Q134.769 1377.14 132.941 1373.6 Q131.135 1370.04 127.501 1370.04 M127.501 1366.33 Q133.311 1366.33 136.367 1370.94 Q139.445 1375.52 139.445 1384.27 Q139.445 1393 136.367 1397.61 Q133.311 1402.19 127.501 1402.19 Q121.691 1402.19 118.612 1397.61 Q115.556 1393 115.556 1384.27 Q115.556 1375.52 118.612 1370.94 Q121.691 1366.33 127.501 1366.33 Z" fill="#000000" fill-rule="nonzero" fill-opacity="1" /><path clip-path="url(#clip200)" d="M119.538 1162.36 L127.177 1162.36 L127.177 1135.99 L118.867 1137.66 L118.867 1133.4 L127.13 1131.73 L131.806 1131.73 L131.806 1162.36 L139.445 1162.36 L139.445 1166.29 L119.538 1166.29 L119.538 1162.36 Z" fill="#000000" fill-rule="nonzero" fill-opacity="1" /><path clip-path="url(#clip200)" d="M123.126 927.134 L139.445 927.134 L139.445 931.069 L117.501 931.069 L117.501 927.134 Q120.163 924.379 124.746 919.749 Q129.353 915.097 130.533 913.754 Q132.779 911.231 133.658 909.495 Q134.561 907.736 134.561 906.046 Q134.561 903.291 132.617 901.555 Q130.695 899.819 127.593 899.819 Q125.394 899.819 122.941 900.583 Q120.51 901.347 117.732 902.898 L117.732 898.175 Q120.556 897.041 123.01 896.462 Q125.464 895.884 127.501 895.884 Q132.871 895.884 136.066 898.569 Q139.26 901.254 139.26 905.745 Q139.26 907.874 138.45 909.796 Q137.663 911.694 135.556 914.286 Q134.978 914.958 131.876 918.175 Q128.774 921.37 123.126 927.134 Z" fill="#000000" fill-rule="nonzero" fill-opacity="1" /><path clip-path="url(#clip200)" d="M132.316 677.21 Q135.672 677.927 137.547 680.196 Q139.445 682.464 139.445 685.798 Q139.445 690.913 135.927 693.714 Q132.408 696.515 125.927 696.515 Q123.751 696.515 121.436 696.075 Q119.144 695.659 116.691 694.802 L116.691 690.288 Q118.635 691.423 120.95 692.001 Q123.265 692.58 125.788 692.58 Q130.186 692.58 132.478 690.844 Q134.792 689.108 134.792 685.798 Q134.792 682.742 132.64 681.029 Q130.51 679.293 126.691 679.293 L122.663 679.293 L122.663 675.451 L126.876 675.451 Q130.325 675.451 132.154 674.085 Q133.982 672.696 133.982 670.103 Q133.982 667.441 132.084 666.029 Q130.209 664.594 126.691 664.594 Q124.769 664.594 122.57 665.011 Q120.371 665.427 117.732 666.307 L117.732 662.14 Q120.394 661.4 122.709 661.029 Q125.047 660.659 127.107 660.659 Q132.431 660.659 135.533 663.09 Q138.635 665.497 138.635 669.617 Q138.635 672.488 136.992 674.478 Q135.348 676.446 132.316 677.21 Z" fill="#000000" fill-rule="nonzero" fill-opacity="1" /><path clip-path="url(#clip200)" d="M129.862 430.133 L118.056 448.582 L129.862 448.582 L129.862 430.133 M128.635 426.059 L134.515 426.059 L134.515 448.582 L139.445 448.582 L139.445 452.471 L134.515 452.471 L134.515 460.619 L129.862 460.619 L129.862 452.471 L114.26 452.471 L114.26 447.957 L128.635 426.059 Z" fill="#000000" fill-rule="nonzero" fill-opacity="1" /><path clip-path="url(#clip200)" d="M118.543 190.834 L136.899 190.834 L136.899 194.77 L122.825 194.77 L122.825 203.242 Q123.843 202.895 124.862 202.733 Q125.88 202.547 126.899 202.547 Q132.686 202.547 136.066 205.719 Q139.445 208.89 139.445 214.307 Q139.445 219.885 135.973 222.987 Q132.501 226.066 126.181 226.066 Q124.005 226.066 121.737 225.695 Q119.492 225.325 117.084 224.584 L117.084 219.885 Q119.168 221.019 121.39 221.575 Q123.612 222.131 126.089 222.131 Q130.093 222.131 132.431 220.024 Q134.769 217.918 134.769 214.307 Q134.769 210.695 132.431 208.589 Q130.093 206.482 126.089 206.482 Q124.214 206.482 122.339 206.899 Q120.487 207.316 118.543 208.195 L118.543 190.834 Z" fill="#000000" fill-rule="nonzero" fill-opacity="1" /><path clip-path="url(#clip200)" d="M21.7677 1026.76 L39.6235 1026.76 L39.6235 1018.68 Q39.6235 1014.19 37.3 1011.74 Q34.9765 1009.29 30.6797 1009.29 Q26.4147 1009.29 24.0912 1011.74 Q21.7677 1014.19 21.7677 1018.68 L21.7677 1026.76 M16.4842 1033.19 L16.4842 1018.68 Q16.4842 1010.69 20.1126 1006.61 Q23.7092 1002.51 30.6797 1002.51 Q37.7138 1002.51 41.3104 1006.61 Q44.907 1010.69 44.907 1018.68 L44.907 1026.76 L64.0042 1026.76 L64.0042 1033.19 L16.4842 1033.19 Z" fill="#000000" fill-rule="nonzero" fill-opacity="1" /><path clip-path="url(#clip200)" d="M33.8307 974.626 Q33.2578 975.613 33.0032 976.791 Q32.7167 977.936 32.7167 979.337 Q32.7167 984.302 35.9632 986.976 Q39.1779 989.617 45.2253 989.617 L64.0042 989.617 L64.0042 995.506 L28.3562 995.506 L28.3562 989.617 L33.8944 989.617 Q30.6479 987.771 29.0883 984.811 Q27.4968 981.851 27.4968 977.618 Q27.4968 977.013 27.5923 976.281 Q27.656 975.549 27.8151 974.658 L33.8307 974.626 Z" fill="#000000" fill-rule="nonzero" fill-opacity="1" /><path clip-path="url(#clip200)" d="M32.4621 956.102 Q32.4621 960.813 36.1542 963.55 Q39.8145 966.287 46.212 966.287 Q52.6095 966.287 56.3017 963.582 Q59.9619 960.844 59.9619 956.102 Q59.9619 951.423 56.2698 948.686 Q52.5777 945.949 46.212 945.949 Q39.8781 945.949 36.186 948.686 Q32.4621 951.423 32.4621 956.102 M27.4968 956.102 Q27.4968 948.463 32.4621 944.103 Q37.4273 939.742 46.212 939.742 Q54.9649 939.742 59.9619 944.103 Q64.9272 948.463 64.9272 956.102 Q64.9272 963.773 59.9619 968.133 Q54.9649 972.462 46.212 972.462 Q37.4273 972.462 32.4621 968.133 Q27.4968 963.773 27.4968 956.102 Z" fill="#000000" fill-rule="nonzero" fill-opacity="1" /><path clip-path="url(#clip200)" d="M46.212 904.444 Q39.7508 904.444 36.0905 907.118 Q32.3984 909.76 32.3984 914.407 Q32.3984 919.054 36.0905 921.727 Q39.7508 924.369 46.212 924.369 Q52.6732 924.369 56.3653 921.727 Q60.0256 919.054 60.0256 914.407 Q60.0256 909.76 56.3653 907.118 Q52.6732 904.444 46.212 904.444 M33.7671 924.369 Q30.5842 922.523 29.0564 919.722 Q27.4968 916.889 27.4968 912.974 Q27.4968 906.481 32.6531 902.439 Q37.8093 898.365 46.212 898.365 Q54.6147 898.365 59.771 902.439 Q64.9272 906.481 64.9272 912.974 Q64.9272 916.889 63.3994 919.722 Q61.8398 922.523 58.657 924.369 L64.0042 924.369 L64.0042 930.257 L14.479 930.257 L14.479 924.369 L33.7671 924.369 Z" fill="#000000" fill-rule="nonzero" fill-opacity="1" /><path clip-path="url(#clip200)" d="M46.0847 872.457 Q46.0847 879.554 47.7079 882.292 Q49.3312 885.029 53.2461 885.029 Q56.3653 885.029 58.2114 882.992 Q60.0256 880.923 60.0256 877.39 Q60.0256 872.52 56.5881 869.592 Q53.1188 866.632 47.3897 866.632 L46.0847 866.632 L46.0847 872.457 M43.6657 860.776 L64.0042 860.776 L64.0042 866.632 L58.5933 866.632 Q61.8398 868.637 63.3994 871.629 Q64.9272 874.621 64.9272 878.95 Q64.9272 884.424 61.8716 887.671 Q58.7843 890.885 53.6281 890.885 Q47.6125 890.885 44.5569 886.875 Q41.5014 882.833 41.5014 874.844 L41.5014 866.632 L40.9285 866.632 Q36.8862 866.632 34.6901 869.306 Q32.4621 871.947 32.4621 876.753 Q32.4621 879.809 33.1941 882.705 Q33.9262 885.602 35.3903 888.275 L29.9795 888.275 Q28.7381 885.061 28.1334 882.037 Q27.4968 879.013 27.4968 876.149 Q27.4968 868.414 31.5072 864.595 Q35.5176 860.776 43.6657 860.776 Z" fill="#000000" fill-rule="nonzero" fill-opacity="1" /><path clip-path="url(#clip200)" d="M46.212 823.122 Q39.7508 823.122 36.0905 825.796 Q32.3984 828.438 32.3984 833.085 Q32.3984 837.732 36.0905 840.405 Q39.7508 843.047 46.212 843.047 Q52.6732 843.047 56.3653 840.405 Q60.0256 837.732 60.0256 833.085 Q60.0256 828.438 56.3653 825.796 Q52.6732 823.122 46.212 823.122 M33.7671 843.047 Q30.5842 841.201 29.0564 838.4 Q27.4968 835.567 27.4968 831.652 Q27.4968 825.159 32.6531 821.117 Q37.8093 817.043 46.212 817.043 Q54.6147 817.043 59.771 821.117 Q64.9272 825.159 64.9272 831.652 Q64.9272 835.567 63.3994 838.4 Q61.8398 841.201 58.657 843.047 L64.0042 843.047 L64.0042 848.935 L14.479 848.935 L14.479 843.047 L33.7671 843.047 Z" fill="#000000" fill-rule="nonzero" fill-opacity="1" /><path clip-path="url(#clip200)" d="M28.3562 807.335 L28.3562 801.479 L64.0042 801.479 L64.0042 807.335 L28.3562 807.335 M14.479 807.335 L14.479 801.479 L21.895 801.479 L21.895 807.335 L14.479 807.335 Z" fill="#000000" fill-rule="nonzero" fill-opacity="1" /><path clip-path="url(#clip200)" d="M14.479 789.225 L14.479 783.369 L64.0042 783.369 L64.0042 789.225 L14.479 789.225 Z" fill="#000000" fill-rule="nonzero" fill-opacity="1" /><path clip-path="url(#clip200)" d="M28.3562 771.115 L28.3562 765.258 L64.0042 765.258 L64.0042 771.115 L28.3562 771.115 M14.479 771.115 L14.479 765.258 L21.895 765.258 L21.895 771.115 L14.479 771.115 Z" fill="#000000" fill-rule="nonzero" fill-opacity="1" /><path clip-path="url(#clip200)" d="M18.2347 747.211 L28.3562 747.211 L28.3562 735.148 L32.9077 735.148 L32.9077 747.211 L52.2594 747.211 Q56.6199 747.211 57.8613 746.034 Q59.1026 744.824 59.1026 741.164 L59.1026 735.148 L64.0042 735.148 L64.0042 741.164 Q64.0042 747.943 61.4897 750.521 Q58.9434 753.1 52.2594 753.1 L32.9077 753.1 L32.9077 757.396 L28.3562 757.396 L28.3562 753.1 L18.2347 753.1 L18.2347 747.211 Z" fill="#000000" fill-rule="nonzero" fill-opacity="1" /><path clip-path="url(#clip200)" d="M67.3143 712.614 Q73.68 715.096 75.6216 717.452 Q77.5631 719.807 77.5631 723.754 L77.5631 728.432 L72.6615 728.432 L72.6615 724.995 Q72.6615 722.576 71.5157 721.239 Q70.3699 719.902 66.1048 718.279 L63.4312 717.229 L28.3562 731.647 L28.3562 725.441 L56.238 714.301 L28.3562 703.161 L28.3562 696.954 L67.3143 712.614 Z" fill="#000000" fill-rule="nonzero" fill-opacity="1" /><path clip-path="url(#clip200)" d="M33.7671 644.692 L14.479 644.692 L14.479 638.835 L64.0042 638.835 L64.0042 644.692 L58.657 644.692 Q61.8398 646.538 63.3994 649.37 Q64.9272 652.171 64.9272 656.118 Q64.9272 662.579 59.771 666.653 Q54.6147 670.696 46.212 670.696 Q37.8093 670.696 32.6531 666.653 Q27.4968 662.579 27.4968 656.118 Q27.4968 652.171 29.0564 649.37 Q30.5842 646.538 33.7671 644.692 M46.212 664.648 Q52.6732 664.648 56.3653 662.006 Q60.0256 659.333 60.0256 654.686 Q60.0256 650.039 56.3653 647.365 Q52.6732 644.692 46.212 644.692 Q39.7508 644.692 36.0905 647.365 Q32.3984 650.039 32.3984 654.686 Q32.3984 659.333 36.0905 662.006 Q39.7508 664.648 46.212 664.648 Z" fill="#000000" fill-rule="nonzero" fill-opacity="1" /><path clip-path="url(#clip200)" d="M44.7161 596.28 L47.5806 596.28 L47.5806 623.207 Q53.6281 622.825 56.8109 619.579 Q59.9619 616.301 59.9619 610.476 Q59.9619 607.102 59.1344 603.951 Q58.3069 600.768 56.6518 597.649 L62.1899 597.649 Q63.5267 600.8 64.227 604.11 Q64.9272 607.42 64.9272 610.826 Q64.9272 619.356 59.9619 624.353 Q54.9967 629.318 46.5303 629.318 Q37.7774 629.318 32.6531 624.608 Q27.4968 619.865 27.4968 611.845 Q27.4968 604.651 32.1438 600.482 Q36.7589 596.28 44.7161 596.28 M42.9973 602.137 Q38.1912 602.201 35.3266 604.842 Q32.4621 607.452 32.4621 611.781 Q32.4621 616.683 35.2312 619.643 Q38.0002 622.571 43.0292 623.016 L42.9973 602.137 Z" fill="#000000" fill-rule="nonzero" fill-opacity="1" /><path clip-path="url(#clip200)" d="M42.4881 557.036 L64.0042 557.036 L64.0042 562.892 L42.679 562.892 Q37.6183 562.892 35.1038 564.866 Q32.5894 566.839 32.5894 570.786 Q32.5894 575.528 35.6131 578.265 Q38.6368 581.003 43.8567 581.003 L64.0042 581.003 L64.0042 586.891 L28.3562 586.891 L28.3562 581.003 L33.8944 581.003 Q30.6797 578.902 29.0883 576.069 Q27.4968 573.205 27.4968 569.481 Q27.4968 563.338 31.3163 560.187 Q35.1038 557.036 42.4881 557.036 Z" fill="#000000" fill-rule="nonzero" fill-opacity="1" /><path clip-path="url(#clip200)" d="M29.4065 522.629 L34.9447 522.629 Q33.6716 525.112 33.035 527.785 Q32.3984 530.459 32.3984 533.324 Q32.3984 537.684 33.7352 539.88 Q35.072 542.045 37.7456 542.045 Q39.7826 542.045 40.9603 540.485 Q42.1061 538.925 43.1565 534.215 L43.6021 532.21 Q44.9389 525.971 47.3897 523.361 Q49.8086 520.719 54.1691 520.719 Q59.1344 520.719 62.0308 524.666 Q64.9272 528.581 64.9272 535.456 Q64.9272 538.321 64.3543 541.44 Q63.8132 544.527 62.6992 547.965 L56.6518 547.965 Q58.3387 544.718 59.198 541.567 Q60.0256 538.416 60.0256 535.329 Q60.0256 531.191 58.6251 528.963 Q57.1929 526.735 54.6147 526.735 Q52.2276 526.735 50.9545 528.358 Q49.6813 529.95 48.5037 535.392 L48.0262 537.429 Q46.8804 542.872 44.5251 545.291 Q42.138 547.71 38.0002 547.71 Q32.9713 547.71 30.2341 544.145 Q27.4968 540.58 27.4968 534.024 Q27.4968 530.777 27.9743 527.913 Q28.4517 525.048 29.4065 522.629 Z" fill="#000000" fill-rule="nonzero" fill-opacity="1" /><path clip-path="url(#clip200)" d="M28.3562 511.394 L28.3562 505.537 L64.0042 505.537 L64.0042 511.394 L28.3562 511.394 M14.479 511.394 L14.479 505.537 L21.895 505.537 L21.895 511.394 L14.479 511.394 Z" fill="#000000" fill-rule="nonzero" fill-opacity="1" /><path clip-path="url(#clip200)" d="M18.2347 487.49 L28.3562 487.49 L28.3562 475.427 L32.9077 475.427 L32.9077 487.49 L52.2594 487.49 Q56.6199 487.49 57.8613 486.313 Q59.1026 485.103 59.1026 481.443 L59.1026 475.427 L64.0042 475.427 L64.0042 481.443 Q64.0042 488.223 61.4897 490.801 Q58.9434 493.379 52.2594 493.379 L32.9077 493.379 L32.9077 497.676 L28.3562 497.676 L28.3562 493.379 L18.2347 493.379 L18.2347 487.49 Z" fill="#000000" fill-rule="nonzero" fill-opacity="1" /><path clip-path="url(#clip200)" d="M67.3143 452.893 Q73.68 455.376 75.6216 457.731 Q77.5631 460.086 77.5631 464.033 L77.5631 468.712 L72.6615 468.712 L72.6615 465.274 Q72.6615 462.855 71.5157 461.518 Q70.3699 460.182 66.1048 458.558 L63.4312 457.508 L28.3562 471.926 L28.3562 465.72 L56.238 454.58 L28.3562 443.44 L28.3562 437.233 L67.3143 452.893 Z" fill="#000000" fill-rule="nonzero" fill-opacity="1" /><polyline clip-path="url(#clip202)" style="stroke:#009af9; stroke-linecap:round; stroke-linejoin:round; stroke-width:4; stroke-opacity:1; fill:none" points="237.067,1383.97 259.89,1384.1 305.536,1384.2 351.182,1384.22 396.828,1384.2 442.474,1384.13 602.235,1384.22 647.881,1384.1 716.349,1384.06 739.172,1384.15 761.995,1384.06 784.818,1384.17 807.641,1384.15 876.11,1383.97 898.933,1384.11 921.756,1383.92 967.402,1384.01 990.225,1384.22 1013.05,1384.19 1035.87,1383.87 1058.69,1384.15 1081.52,1384.01 1104.34,1383.74 1127.16,1383.6 1149.99,1383.78 1172.81,1383.16 1195.63,1383.36 1218.45,1383.11 1241.28,1383.09 1264.1,1381.75 1286.92,1382.19 1309.75,1380.78 1332.57,1379.85 1355.39,1379.62 1378.22,1376.28 1401.04,1374.96 1423.86,1376.21 1446.68,1372.67 1469.51,1371.45 1492.33,1364.94 1515.15,1365.2 1537.98,1361.36 1560.8,1344.7 1583.62,1339.92 1606.45,1325.98 1629.27,1301.76 1652.09,1283.34 1674.91,1252.81 1697.74,1198.96 1720.56,1150.59 1743.38,1057.78 1766.21,971.631 1789.03,916.747 1811.85,874.424 1834.67,807.685 1857.5,736.129 1880.32,693.877 1903.14,636.894 1925.97,554.012 1948.79,479.793 1971.61,415.806 1994.44,315.759 2017.26,259.57 2040.08,189.69 2062.9,173.654 2085.73,86.1857 2108.55,168.432 2131.37,379.199 2154.2,634.424 2177.02,974.312 2199.84,1205.09 2222.67,1318.84 2245.49,1365.45 2268.31,1377.92 2291.13,1383.37 "/>
<polyline clip-path="url(#clip202)" style="stroke:#e26f46; stroke-linecap:round; stroke-linejoin:round; stroke-width:4; stroke-opacity:1; fill:none" points="237.067,1384.23 259.89,1384.23 305.536,1384.23 351.182,1384.22 396.828,1384.22 442.474,1384.21 602.235,1384.16 647.881,1384.13 716.349,1384.07 739.172,1384.05 761.995,1384.01 784.818,1383.98 807.641,1383.93 876.11,1383.76 898.933,1383.68 921.756,1383.59 967.402,1383.36 990.225,1383.21 1013.05,1383.04 1035.87,1382.84 1058.69,1382.61 1081.52,1382.35 1104.34,1382.04 1127.16,1381.68 1149.99,1381.25 1172.81,1380.77 1195.63,1380.2 1218.45,1379.54 1241.28,1378.77 1264.1,1377.87 1286.92,1376.83 1309.75,1375.62 1332.57,1374.22 1355.39,1372.59 1378.22,1370.7 1401.04,1368.5 1423.86,1365.95 1446.68,1362.99 1469.51,1359.57 1492.33,1355.6 1515.15,1351 1537.98,1345.68 1560.8,1339.53 1583.62,1332.43 1606.45,1324.23 1629.27,1314.78 1652.09,1303.91 1674.91,1291.41 1697.74,1277.08 1720.56,1260.68 1743.38,1241.96 1766.21,1220.67 1789.03,1196.54 1811.85,1169.32 1834.67,1138.8 1857.5,1104.84 1880.32,1067.4 1903.14,1026.65 1925.97,983.005 1948.79,937.332 1971.61,891.085 1994.44,846.558 2017.26,807.17 2040.08,777.766 2062.9,764.822 2085.73,776.288 2108.55,820.553 2131.37,903.624 2154.2,1023.58 2177.02,1163.07 2199.84,1286.91 2222.67,1359.91 2245.49,1381.97 2268.31,1384.2 2291.13,1384.24 "/>
<path clip-path="url(#clip200)" d="M248.022 248.629 L800.057 248.629 L800.057 93.1086 L248.022 93.1086  Z" fill="#ffffff" fill-rule="evenodd" fill-opacity="1"/>
<polyline clip-path="url(#clip200)" style="stroke:#ffffff; stroke-linecap:round; stroke-linejoin:round; stroke-width:4; stroke-opacity:1; fill:none" points="248.022,248.629 800.057,248.629 800.057,93.1086 248.022,93.1086 248.022,248.629 "/>
<polyline clip-path="url(#clip200)" style="stroke:#009af9; stroke-linecap:round; stroke-linejoin:round; stroke-width:4; stroke-opacity:1; fill:none" points="272.215,144.949 417.369,144.949 "/>
<path clip-path="url(#clip200)" d="M441.561 127.669 L446.237 127.669 L446.237 141.835 L463.228 141.835 L463.228 127.669 L467.903 127.669 L467.903 162.229 L463.228 162.229 L463.228 145.77 L446.237 145.77 L446.237 162.229 L441.561 162.229 L441.561 127.669 Z" fill="#000000" fill-rule="nonzero" fill-opacity="1" /><path clip-path="url(#clip200)" d="M477.024 136.303 L481.283 136.303 L481.283 162.229 L477.024 162.229 L477.024 136.303 M477.024 126.21 L481.283 126.21 L481.283 131.604 L477.024 131.604 L477.024 126.21 Z" fill="#000000" fill-rule="nonzero" fill-opacity="1" /><path clip-path="url(#clip200)" d="M506.723 137.067 L506.723 141.094 Q504.917 140.169 502.973 139.706 Q501.028 139.243 498.945 139.243 Q495.774 139.243 494.176 140.215 Q492.602 141.187 492.602 143.131 Q492.602 144.613 493.737 145.469 Q494.871 146.303 498.297 147.067 L499.755 147.391 Q504.292 148.363 506.19 150.145 Q508.112 151.905 508.112 155.076 Q508.112 158.687 505.241 160.793 Q502.394 162.9 497.394 162.9 Q495.311 162.9 493.042 162.483 Q490.797 162.09 488.297 161.28 L488.297 156.881 Q490.658 158.108 492.95 158.733 Q495.241 159.335 497.487 159.335 Q500.496 159.335 502.116 158.317 Q503.737 157.275 503.737 155.4 Q503.737 153.664 502.556 152.738 Q501.399 151.812 497.44 150.956 L495.959 150.608 Q492.001 149.775 490.241 148.062 Q488.482 146.326 488.482 143.317 Q488.482 139.659 491.075 137.669 Q493.667 135.678 498.436 135.678 Q500.797 135.678 502.88 136.025 Q504.963 136.372 506.723 137.067 Z" fill="#000000" fill-rule="nonzero" fill-opacity="1" /><path clip-path="url(#clip200)" d="M519.107 128.942 L519.107 136.303 L527.88 136.303 L527.88 139.613 L519.107 139.613 L519.107 153.687 Q519.107 156.858 519.963 157.761 Q520.843 158.664 523.505 158.664 L527.88 158.664 L527.88 162.229 L523.505 162.229 Q518.574 162.229 516.699 160.4 Q514.824 158.548 514.824 153.687 L514.824 139.613 L511.699 139.613 L511.699 136.303 L514.824 136.303 L514.824 128.942 L519.107 128.942 Z" fill="#000000" fill-rule="nonzero" fill-opacity="1" /><path clip-path="url(#clip200)" d="M543.528 139.289 Q540.102 139.289 538.111 141.974 Q536.121 144.636 536.121 149.289 Q536.121 153.942 538.088 156.627 Q540.079 159.289 543.528 159.289 Q546.931 159.289 548.921 156.604 Q550.912 153.918 550.912 149.289 Q550.912 144.682 548.921 141.997 Q546.931 139.289 543.528 139.289 M543.528 135.678 Q549.084 135.678 552.255 139.289 Q555.426 142.9 555.426 149.289 Q555.426 155.655 552.255 159.289 Q549.084 162.9 543.528 162.9 Q537.949 162.9 534.778 159.289 Q531.63 155.655 531.63 149.289 Q531.63 142.9 534.778 139.289 Q537.949 135.678 543.528 135.678 Z" fill="#000000" fill-rule="nonzero" fill-opacity="1" /><path clip-path="url(#clip200)" d="M579.546 148.965 Q579.546 144.335 577.625 141.789 Q575.727 139.243 572.278 139.243 Q568.852 139.243 566.931 141.789 Q565.033 144.335 565.033 148.965 Q565.033 153.571 566.931 156.118 Q568.852 158.664 572.278 158.664 Q575.727 158.664 577.625 156.118 Q579.546 153.571 579.546 148.965 M583.806 159.011 Q583.806 165.631 580.866 168.849 Q577.926 172.09 571.861 172.09 Q569.616 172.09 567.625 171.742 Q565.634 171.418 563.759 170.724 L563.759 166.58 Q565.634 167.599 567.463 168.085 Q569.292 168.571 571.19 168.571 Q575.38 168.571 577.463 166.372 Q579.546 164.196 579.546 159.775 L579.546 157.668 Q578.227 159.96 576.167 161.094 Q574.107 162.229 571.236 162.229 Q566.468 162.229 563.551 158.594 Q560.634 154.96 560.634 148.965 Q560.634 142.946 563.551 139.312 Q566.468 135.678 571.236 135.678 Q574.107 135.678 576.167 136.812 Q578.227 137.946 579.546 140.238 L579.546 136.303 L583.806 136.303 L583.806 159.011 Z" fill="#000000" fill-rule="nonzero" fill-opacity="1" /><path clip-path="url(#clip200)" d="M607.602 140.284 Q606.884 139.868 606.028 139.682 Q605.194 139.474 604.176 139.474 Q600.565 139.474 598.62 141.835 Q596.699 144.173 596.699 148.571 L596.699 162.229 L592.417 162.229 L592.417 136.303 L596.699 136.303 L596.699 140.331 Q598.042 137.969 600.194 136.835 Q602.347 135.678 605.426 135.678 Q605.866 135.678 606.398 135.747 Q606.93 135.794 607.579 135.909 L607.602 140.284 Z" fill="#000000" fill-rule="nonzero" fill-opacity="1" /><path clip-path="url(#clip200)" d="M623.852 149.196 Q618.69 149.196 616.699 150.377 Q614.708 151.557 614.708 154.405 Q614.708 156.673 616.19 158.016 Q617.694 159.335 620.264 159.335 Q623.805 159.335 625.935 156.835 Q628.088 154.312 628.088 150.145 L628.088 149.196 L623.852 149.196 M632.347 147.437 L632.347 162.229 L628.088 162.229 L628.088 158.293 Q626.629 160.655 624.453 161.789 Q622.278 162.9 619.129 162.9 Q615.148 162.9 612.787 160.678 Q610.449 158.432 610.449 154.682 Q610.449 150.307 613.366 148.085 Q616.305 145.863 622.116 145.863 L628.088 145.863 L628.088 145.446 Q628.088 142.507 626.143 140.909 Q624.222 139.289 620.727 139.289 Q618.504 139.289 616.398 139.821 Q614.292 140.354 612.347 141.419 L612.347 137.483 Q614.685 136.581 616.884 136.141 Q619.083 135.678 621.166 135.678 Q626.791 135.678 629.569 138.594 Q632.347 141.511 632.347 147.437 Z" fill="#000000" fill-rule="nonzero" fill-opacity="1" /><path clip-path="url(#clip200)" d="M661.305 141.28 Q662.902 138.409 665.125 137.044 Q667.347 135.678 670.356 135.678 Q674.407 135.678 676.606 138.525 Q678.805 141.349 678.805 146.581 L678.805 162.229 L674.523 162.229 L674.523 146.719 Q674.523 142.993 673.203 141.187 Q671.884 139.382 669.175 139.382 Q665.865 139.382 663.944 141.581 Q662.023 143.78 662.023 147.576 L662.023 162.229 L657.74 162.229 L657.74 146.719 Q657.74 142.969 656.421 141.187 Q655.101 139.382 652.347 139.382 Q649.083 139.382 647.162 141.604 Q645.24 143.803 645.24 147.576 L645.24 162.229 L640.958 162.229 L640.958 136.303 L645.24 136.303 L645.24 140.331 Q646.699 137.946 648.736 136.812 Q650.773 135.678 653.574 135.678 Q656.398 135.678 658.365 137.113 Q660.356 138.548 661.305 141.28 Z" fill="#000000" fill-rule="nonzero" fill-opacity="1" /><polyline clip-path="url(#clip200)" style="stroke:#e26f46; stroke-linecap:round; stroke-linejoin:round; stroke-width:4; stroke-opacity:1; fill:none" points="272.215,196.789 417.369,196.789 "/>
<path clip-path="url(#clip200)" d="M446.237 183.351 L446.237 210.226 L451.885 210.226 Q459.038 210.226 462.348 206.985 Q465.681 203.745 465.681 196.754 Q465.681 189.809 462.348 186.592 Q459.038 183.351 451.885 183.351 L446.237 183.351 M441.561 179.509 L451.167 179.509 Q461.214 179.509 465.913 183.698 Q470.612 187.865 470.612 196.754 Q470.612 205.689 465.89 209.879 Q461.167 214.069 451.167 214.069 L441.561 214.069 L441.561 179.509 Z" fill="#000000" fill-rule="nonzero" fill-opacity="1" /><path clip-path="url(#clip200)" d="M477.88 188.143 L482.139 188.143 L482.139 214.069 L477.88 214.069 L477.88 188.143 M477.88 178.05 L482.139 178.05 L482.139 183.444 L477.88 183.444 L477.88 178.05 Z" fill="#000000" fill-rule="nonzero" fill-opacity="1" /><path clip-path="url(#clip200)" d="M507.579 188.907 L507.579 192.934 Q505.774 192.009 503.829 191.546 Q501.885 191.083 499.801 191.083 Q496.63 191.083 495.033 192.055 Q493.459 193.027 493.459 194.971 Q493.459 196.453 494.593 197.309 Q495.727 198.143 499.153 198.907 L500.612 199.231 Q505.149 200.203 507.047 201.985 Q508.968 203.745 508.968 206.916 Q508.968 210.527 506.098 212.633 Q503.25 214.74 498.25 214.74 Q496.167 214.74 493.899 214.323 Q491.653 213.93 489.153 213.12 L489.153 208.721 Q491.514 209.948 493.806 210.573 Q496.098 211.175 498.343 211.175 Q501.352 211.175 502.973 210.157 Q504.593 209.115 504.593 207.24 Q504.593 205.504 503.412 204.578 Q502.255 203.652 498.297 202.796 L496.815 202.448 Q492.857 201.615 491.098 199.902 Q489.338 198.166 489.338 195.157 Q489.338 191.499 491.931 189.509 Q494.524 187.518 499.292 187.518 Q501.653 187.518 503.737 187.865 Q505.82 188.212 507.579 188.907 Z" fill="#000000" fill-rule="nonzero" fill-opacity="1" /><path clip-path="url(#clip200)" d="M519.963 180.782 L519.963 188.143 L528.736 188.143 L528.736 191.453 L519.963 191.453 L519.963 205.527 Q519.963 208.698 520.82 209.601 Q521.699 210.504 524.361 210.504 L528.736 210.504 L528.736 214.069 L524.361 214.069 Q519.431 214.069 517.556 212.24 Q515.681 210.388 515.681 205.527 L515.681 191.453 L512.556 191.453 L512.556 188.143 L515.681 188.143 L515.681 180.782 L519.963 180.782 Z" fill="#000000" fill-rule="nonzero" fill-opacity="1" /><path clip-path="url(#clip200)" d="M549.361 192.124 Q548.644 191.708 547.787 191.522 Q546.954 191.314 545.935 191.314 Q542.324 191.314 540.38 193.675 Q538.459 196.013 538.459 200.411 L538.459 214.069 L534.176 214.069 L534.176 188.143 L538.459 188.143 L538.459 192.171 Q539.801 189.809 541.954 188.675 Q544.107 187.518 547.185 187.518 Q547.625 187.518 548.158 187.587 Q548.69 187.634 549.338 187.749 L549.361 192.124 Z" fill="#000000" fill-rule="nonzero" fill-opacity="1" /><path clip-path="url(#clip200)" d="M553.829 188.143 L558.088 188.143 L558.088 214.069 L553.829 214.069 L553.829 188.143 M553.829 178.05 L558.088 178.05 L558.088 183.444 L553.829 183.444 L553.829 178.05 Z" fill="#000000" fill-rule="nonzero" fill-opacity="1" /><path clip-path="url(#clip200)" d="M585.611 201.129 Q585.611 196.43 583.667 193.768 Q581.745 191.083 578.366 191.083 Q574.986 191.083 573.042 193.768 Q571.12 196.43 571.12 201.129 Q571.12 205.828 573.042 208.513 Q574.986 211.175 578.366 211.175 Q581.745 211.175 583.667 208.513 Q585.611 205.828 585.611 201.129 M571.12 192.078 Q572.463 189.763 574.5 188.652 Q576.56 187.518 579.407 187.518 Q584.13 187.518 587.069 191.268 Q590.032 195.018 590.032 201.129 Q590.032 207.24 587.069 210.99 Q584.13 214.74 579.407 214.74 Q576.56 214.74 574.5 213.629 Q572.463 212.495 571.12 210.18 L571.12 214.069 L566.838 214.069 L566.838 178.05 L571.12 178.05 L571.12 192.078 Z" fill="#000000" fill-rule="nonzero" fill-opacity="1" /><path clip-path="url(#clip200)" d="M596.653 203.837 L596.653 188.143 L600.912 188.143 L600.912 203.675 Q600.912 207.356 602.347 209.208 Q603.782 211.036 606.653 211.036 Q610.102 211.036 612.092 208.837 Q614.106 206.638 614.106 202.842 L614.106 188.143 L618.366 188.143 L618.366 214.069 L614.106 214.069 L614.106 210.087 Q612.555 212.448 610.495 213.606 Q608.458 214.74 605.75 214.74 Q601.282 214.74 598.968 211.962 Q596.653 209.184 596.653 203.837 M607.37 187.518 L607.37 187.518 Z" fill="#000000" fill-rule="nonzero" fill-opacity="1" /><path clip-path="url(#clip200)" d="M631.352 180.782 L631.352 188.143 L640.125 188.143 L640.125 191.453 L631.352 191.453 L631.352 205.527 Q631.352 208.698 632.208 209.601 Q633.088 210.504 635.75 210.504 L640.125 210.504 L640.125 214.069 L635.75 214.069 Q630.819 214.069 628.944 212.24 Q627.069 210.388 627.069 205.527 L627.069 191.453 L623.944 191.453 L623.944 188.143 L627.069 188.143 L627.069 180.782 L631.352 180.782 Z" fill="#000000" fill-rule="nonzero" fill-opacity="1" /><path clip-path="url(#clip200)" d="M645.727 188.143 L649.986 188.143 L649.986 214.069 L645.727 214.069 L645.727 188.143 M645.727 178.05 L649.986 178.05 L649.986 183.444 L645.727 183.444 L645.727 178.05 Z" fill="#000000" fill-rule="nonzero" fill-opacity="1" /><path clip-path="url(#clip200)" d="M668.944 191.129 Q665.518 191.129 663.527 193.814 Q661.537 196.476 661.537 201.129 Q661.537 205.782 663.504 208.467 Q665.495 211.129 668.944 211.129 Q672.347 211.129 674.337 208.444 Q676.328 205.758 676.328 201.129 Q676.328 196.522 674.337 193.837 Q672.347 191.129 668.944 191.129 M668.944 187.518 Q674.5 187.518 677.671 191.129 Q680.842 194.74 680.842 201.129 Q680.842 207.495 677.671 211.129 Q674.5 214.74 668.944 214.74 Q663.365 214.74 660.194 211.129 Q657.046 207.495 657.046 201.129 Q657.046 194.74 660.194 191.129 Q663.365 187.518 668.944 187.518 Z" fill="#000000" fill-rule="nonzero" fill-opacity="1" /><path clip-path="url(#clip200)" d="M709.453 198.421 L709.453 214.069 L705.194 214.069 L705.194 198.559 Q705.194 194.879 703.759 193.05 Q702.323 191.222 699.453 191.222 Q696.004 191.222 694.013 193.421 Q692.023 195.62 692.023 199.416 L692.023 214.069 L687.74 214.069 L687.74 188.143 L692.023 188.143 L692.023 192.171 Q693.55 189.833 695.611 188.675 Q697.694 187.518 700.402 187.518 Q704.87 187.518 707.161 190.296 Q709.453 193.05 709.453 198.421 Z" fill="#000000" fill-rule="nonzero" fill-opacity="1" /><path clip-path="url(#clip200)" d="M746.143 178.05 L746.143 181.592 L742.069 181.592 Q739.777 181.592 738.874 182.518 Q737.995 183.444 737.995 185.851 L737.995 188.143 L745.008 188.143 L745.008 191.453 L737.995 191.453 L737.995 214.069 L733.712 214.069 L733.712 191.453 L729.638 191.453 L729.638 188.143 L733.712 188.143 L733.712 186.337 Q733.712 182.009 735.726 180.041 Q737.74 178.05 742.115 178.05 L746.143 178.05 Z" fill="#000000" fill-rule="nonzero" fill-opacity="1" /><path clip-path="url(#clip200)" d="M749.707 188.143 L753.967 188.143 L753.967 214.069 L749.707 214.069 L749.707 188.143 M749.707 178.05 L753.967 178.05 L753.967 183.444 L749.707 183.444 L749.707 178.05 Z" fill="#000000" fill-rule="nonzero" fill-opacity="1" /><path clip-path="url(#clip200)" d="M767.092 180.782 L767.092 188.143 L775.865 188.143 L775.865 191.453 L767.092 191.453 L767.092 205.527 Q767.092 208.698 767.948 209.601 Q768.828 210.504 771.49 210.504 L775.865 210.504 L775.865 214.069 L771.49 214.069 Q766.559 214.069 764.684 212.24 Q762.809 210.388 762.809 205.527 L762.809 191.453 L759.684 191.453 L759.684 188.143 L762.809 188.143 L762.809 180.782 L767.092 180.782 Z" fill="#000000" fill-rule="nonzero" fill-opacity="1" /></svg>
