<?xml version="1.0" encoding="utf-8"?>
<svg xmlns="http://www.w3.org/2000/svg" xmlns:xlink="http://www.w3.org/1999/xlink" width="600" height="400" viewBox="0 0 2400 1600">
<defs>
  <clipPath id="clip150">
    <rect x="0" y="0" width="2400" height="1600"/>
  </clipPath>
</defs>
<path clip-path="url(#clip150)" d="M0 1600 L2400 1600 L2400 8.88178e-14 L0 8.88178e-14  Z" fill="#ffffff" fill-rule="evenodd" fill-opacity="1"/>
<defs>
  <clipPath id="clip151">
    <rect x="249" y="47" width="2104" height="1507"/>
  </clipPath>
</defs>
<path clip-path="url(#clip150)" d="M249.843 1552.76 L2352.76 1552.76 L2352.76 47.2441 L249.843 47.2441  Z" fill="#ffffff" fill-rule="evenodd" fill-opacity="1"/>
<polyline clip-path="url(#clip151)" style="stroke:#000000; stroke-linecap:round; stroke-linejoin:round; stroke-width:2; stroke-opacity:0.1; fill:none" points="249.843,1379.71 2352.76,1379.71 "/>
<polyline clip-path="url(#clip151)" style="stroke:#000000; stroke-linecap:round; stroke-linejoin:round; stroke-width:2; stroke-opacity:0.1; fill:none" points="249.843,1104.08 2352.76,1104.08 "/>
<polyline clip-path="url(#clip151)" style="stroke:#000000; stroke-linecap:round; stroke-linejoin:round; stroke-width:2; stroke-opacity:0.1; fill:none" points="249.843,828.451 2352.76,828.451 "/>
<polyline clip-path="url(#clip151)" style="stroke:#000000; stroke-linecap:round; stroke-linejoin:round; stroke-width:2; stroke-opacity:0.1; fill:none" points="249.843,552.823 2352.76,552.823 "/>
<polyline clip-path="url(#clip151)" style="stroke:#000000; stroke-linecap:round; stroke-linejoin:round; stroke-width:2; stroke-opacity:0.1; fill:none" points="249.843,277.195 2352.76,277.195 "/>
<polyline clip-path="url(#clip151)" style="stroke:#000000; stroke-linecap:round; stroke-linejoin:round; stroke-width:2; stroke-opacity:0.1; fill:none" points="249.843,1379.71 2352.76,1379.71 "/>
<polyline clip-path="url(#clip151)" style="stroke:#000000; stroke-linecap:round; stroke-linejoin:round; stroke-width:2; stroke-opacity:0.1; fill:none" points="249.843,1104.08 2352.76,1104.08 "/>
<polyline clip-path="url(#clip151)" style="stroke:#000000; stroke-linecap:round; stroke-linejoin:round; stroke-width:2; stroke-opacity:0.1; fill:none" points="249.843,828.451 2352.76,828.451 "/>
<polyline clip-path="url(#clip151)" style="stroke:#000000; stroke-linecap:round; stroke-linejoin:round; stroke-width:2; stroke-opacity:0.1; fill:none" points="249.843,552.823 2352.76,552.823 "/>
<polyline clip-path="url(#clip151)" style="stroke:#000000; stroke-linecap:round; stroke-linejoin:round; stroke-width:2; stroke-opacity:0.1; fill:none" points="249.843,277.195 2352.76,277.195 "/>
<polyline clip-path="url(#clip150)" style="stroke:#000000; stroke-linecap:round; stroke-linejoin:round; stroke-width:4; stroke-opacity:1; fill:none" points="249.843,1552.76 2352.76,1552.76 "/>
<polyline clip-path="url(#clip150)" style="stroke:#000000; stroke-linecap:round; stroke-linejoin:round; stroke-width:4; stroke-opacity:1; fill:none" points="249.843,47.2441 2352.76,47.2441 "/>
<polyline clip-path="url(#clip150)" style="stroke:#000000; stroke-linecap:round; stroke-linejoin:round; stroke-width:4; stroke-opacity:1; fill:none" points="249.843,1552.76 249.843,47.2441 "/>
<polyline clip-path="url(#clip150)" style="stroke:#000000; stroke-linecap:round; stroke-linejoin:round; stroke-width:4; stroke-opacity:1; fill:none" points="2352.76,1552.76 2352.76,47.2441 "/>
<polyline clip-path="url(#clip150)" style="stroke:#000000; stroke-linecap:round; stroke-linejoin:round; stroke-width:4; stroke-opacity:1; fill:none" points="249.843,1379.71 268.741,1379.71 "/>
<polyline clip-path="url(#clip150)" style="stroke:#000000; stroke-linecap:round; stroke-linejoin:round; stroke-width:4; stroke-opacity:1; fill:none" points="249.843,1104.08 268.741,1104.08 "/>
<polyline clip-path="url(#clip150)" style="stroke:#000000; stroke-linecap:round; stroke-linejoin:round; stroke-width:4; stroke-opacity:1; fill:none" points="249.843,828.451 268.741,828.451 "/>
<polyline clip-path="url(#clip150)" style="stroke:#000000; stroke-linecap:round; stroke-linejoin:round; stroke-width:4; stroke-opacity:1; fill:none" points="249.843,552.823 268.741,552.823 "/>
<polyline clip-path="url(#clip150)" style="stroke:#000000; stroke-linecap:round; stroke-linejoin:round; stroke-width:4; stroke-opacity:1; fill:none" points="249.843,277.195 268.741,277.195 "/>
<polyline clip-path="url(#clip150)" style="stroke:#000000; stroke-linecap:round; stroke-linejoin:round; stroke-width:4; stroke-opacity:1; fill:none" points="2352.76,1379.71 2333.86,1379.71 "/>
<polyline clip-path="url(#clip150)" style="stroke:#000000; stroke-linecap:round; stroke-linejoin:round; stroke-width:4; stroke-opacity:1; fill:none" points="2352.76,1104.08 2333.86,1104.08 "/>
<polyline clip-path="url(#clip150)" style="stroke:#000000; stroke-linecap:round; stroke-linejoin:round; stroke-width:4; stroke-opacity:1; fill:none" points="2352.76,828.451 2333.86,828.451 "/>
<polyline clip-path="url(#clip150)" style="stroke:#000000; stroke-linecap:round; stroke-linejoin:round; stroke-width:4; stroke-opacity:1; fill:none" points="2352.76,552.823 2333.86,552.823 "/>
<polyline clip-path="url(#clip150)" style="stroke:#000000; stroke-linecap:round; stroke-linejoin:round; stroke-width:4; stroke-opacity:1; fill:none" points="2352.76,277.195 2333.86,277.195 "/>
<path clip-path="url(#clip150)" d="M128.311 1377.84 Q125.163 1377.84 123.311 1380 Q121.482 1382.15 121.482 1385.9 Q121.482 1389.63 123.311 1391.8 Q125.163 1393.95 128.311 1393.95 Q131.459 1393.95 133.288 1391.8 Q135.14 1389.63 135.14 1385.9 Q135.14 1382.15 133.288 1380 Q131.459 1377.84 128.311 1377.84 M137.593 1363.19 L137.593 1367.45 Q135.834 1366.62 134.029 1366.18 Q132.246 1365.74 130.487 1365.74 Q125.857 1365.74 123.404 1368.86 Q120.973 1371.99 120.626 1378.31 Q121.992 1376.29 124.052 1375.23 Q126.112 1374.14 128.589 1374.14 Q133.797 1374.14 136.806 1377.31 Q139.839 1380.46 139.839 1385.9 Q139.839 1391.22 136.691 1394.44 Q133.542 1397.66 128.311 1397.66 Q122.316 1397.66 119.144 1393.07 Q115.973 1388.47 115.973 1379.74 Q115.973 1371.55 119.862 1366.69 Q123.751 1361.8 130.302 1361.8 Q132.061 1361.8 133.843 1362.15 Q135.649 1362.5 137.593 1363.19 Z" fill="#000000" fill-rule="nonzero" fill-opacity="1" /><path clip-path="url(#clip150)" d="M147.941 1362.43 L166.297 1362.43 L166.297 1366.36 L152.223 1366.36 L152.223 1374.83 Q153.241 1374.49 154.26 1374.33 Q155.278 1374.14 156.297 1374.14 Q162.084 1374.14 165.464 1377.31 Q168.843 1380.48 168.843 1385.9 Q168.843 1391.48 165.371 1394.58 Q161.899 1397.66 155.579 1397.66 Q153.403 1397.66 151.135 1397.29 Q148.89 1396.92 146.482 1396.18 L146.482 1391.48 Q148.566 1392.61 150.788 1393.17 Q153.01 1393.72 155.487 1393.72 Q159.491 1393.72 161.829 1391.62 Q164.167 1389.51 164.167 1385.9 Q164.167 1382.29 161.829 1380.18 Q159.491 1378.08 155.487 1378.08 Q153.612 1378.08 151.737 1378.49 Q149.885 1378.91 147.941 1379.79 L147.941 1362.43 Z" fill="#000000" fill-rule="nonzero" fill-opacity="1" /><path clip-path="url(#clip150)" d="M178.056 1391.11 L182.94 1391.11 L182.94 1396.99 L178.056 1396.99 L178.056 1391.11 Z" fill="#000000" fill-rule="nonzero" fill-opacity="1" /><path clip-path="url(#clip150)" d="M193.936 1393.05 L201.575 1393.05 L201.575 1366.69 L193.264 1368.35 L193.264 1364.09 L201.528 1362.43 L206.204 1362.43 L206.204 1393.05 L213.843 1393.05 L213.843 1396.99 L193.936 1396.99 L193.936 1393.05 Z" fill="#000000" fill-rule="nonzero" fill-opacity="1" /><path clip-path="url(#clip150)" d="M126.598 1102.22 Q123.45 1102.22 121.598 1104.37 Q119.769 1106.52 119.769 1110.27 Q119.769 1114 121.598 1116.17 Q123.45 1118.33 126.598 1118.33 Q129.746 1118.33 131.575 1116.17 Q133.427 1114 133.427 1110.27 Q133.427 1106.52 131.575 1104.37 Q129.746 1102.22 126.598 1102.22 M135.88 1087.56 L135.88 1091.82 Q134.121 1090.99 132.316 1090.55 Q130.533 1090.11 128.774 1090.11 Q124.144 1090.11 121.691 1093.23 Q119.26 1096.36 118.913 1102.68 Q120.279 1100.66 122.339 1099.6 Q124.399 1098.51 126.876 1098.51 Q132.084 1098.51 135.093 1101.68 Q138.126 1104.83 138.126 1110.27 Q138.126 1115.6 134.978 1118.81 Q131.83 1122.03 126.598 1122.03 Q120.603 1122.03 117.431 1117.45 Q114.26 1112.84 114.26 1104.11 Q114.26 1095.92 118.149 1091.06 Q122.038 1086.17 128.589 1086.17 Q130.348 1086.17 132.13 1086.52 Q133.936 1086.87 135.88 1087.56 Z" fill="#000000" fill-rule="nonzero" fill-opacity="1" /><path clip-path="url(#clip150)" d="M146.228 1086.8 L164.584 1086.8 L164.584 1090.73 L150.51 1090.73 L150.51 1099.21 Q151.528 1098.86 152.547 1098.7 Q153.566 1098.51 154.584 1098.51 Q160.371 1098.51 163.751 1101.68 Q167.13 1104.85 167.13 1110.27 Q167.13 1115.85 163.658 1118.95 Q160.186 1122.03 153.866 1122.03 Q151.691 1122.03 149.422 1121.66 Q147.177 1121.29 144.769 1120.55 L144.769 1115.85 Q146.853 1116.98 149.075 1117.54 Q151.297 1118.1 153.774 1118.1 Q157.778 1118.1 160.116 1115.99 Q162.454 1113.88 162.454 1110.27 Q162.454 1106.66 160.116 1104.55 Q157.778 1102.45 153.774 1102.45 Q151.899 1102.45 150.024 1102.86 Q148.172 1103.28 146.228 1104.16 L146.228 1086.8 Z" fill="#000000" fill-rule="nonzero" fill-opacity="1" /><path clip-path="url(#clip150)" d="M176.343 1115.48 L181.227 1115.48 L181.227 1121.36 L176.343 1121.36 L176.343 1115.48 Z" fill="#000000" fill-rule="nonzero" fill-opacity="1" /><path clip-path="url(#clip150)" d="M204.26 1090.87 L192.454 1109.32 L204.26 1109.32 L204.26 1090.87 M203.033 1086.8 L208.912 1086.8 L208.912 1109.32 L213.843 1109.32 L213.843 1113.21 L208.912 1113.21 L208.912 1121.36 L204.26 1121.36 L204.26 1113.21 L188.658 1113.21 L188.658 1108.7 L203.033 1086.8 Z" fill="#000000" fill-rule="nonzero" fill-opacity="1" /><path clip-path="url(#clip150)" d="M127.987 826.588 Q124.839 826.588 122.987 828.74 Q121.158 830.893 121.158 834.643 Q121.158 838.37 122.987 840.546 Q124.839 842.699 127.987 842.699 Q131.135 842.699 132.964 840.546 Q134.816 838.37 134.816 834.643 Q134.816 830.893 132.964 828.74 Q131.135 826.588 127.987 826.588 M137.269 811.935 L137.269 816.194 Q135.51 815.361 133.704 814.921 Q131.922 814.481 130.163 814.481 Q125.533 814.481 123.08 817.606 Q120.649 820.731 120.302 827.05 Q121.668 825.037 123.728 823.972 Q125.788 822.884 128.265 822.884 Q133.473 822.884 136.482 826.055 Q139.515 829.203 139.515 834.643 Q139.515 839.967 136.367 843.185 Q133.218 846.402 127.987 846.402 Q121.992 846.402 118.82 841.819 Q115.649 837.212 115.649 828.486 Q115.649 820.291 119.538 815.43 Q123.427 810.546 129.978 810.546 Q131.737 810.546 133.519 810.893 Q135.325 811.24 137.269 811.935 Z" fill="#000000" fill-rule="nonzero" fill-opacity="1" /><path clip-path="url(#clip150)" d="M147.616 811.171 L165.973 811.171 L165.973 815.106 L151.899 815.106 L151.899 823.578 Q152.917 823.231 153.936 823.069 Q154.954 822.884 155.973 822.884 Q161.76 822.884 165.14 826.055 Q168.519 829.226 168.519 834.643 Q168.519 840.222 165.047 843.324 Q161.575 846.402 155.255 846.402 Q153.079 846.402 150.811 846.032 Q148.566 845.662 146.158 844.921 L146.158 840.222 Q148.241 841.356 150.464 841.912 Q152.686 842.467 155.163 842.467 Q159.167 842.467 161.505 840.361 Q163.843 838.254 163.843 834.643 Q163.843 831.032 161.505 828.925 Q159.167 826.819 155.163 826.819 Q153.288 826.819 151.413 827.236 Q149.561 827.652 147.616 828.532 L147.616 811.171 Z" fill="#000000" fill-rule="nonzero" fill-opacity="1" /><path clip-path="url(#clip150)" d="M177.732 839.851 L182.616 839.851 L182.616 845.731 L177.732 845.731 L177.732 839.851 Z" fill="#000000" fill-rule="nonzero" fill-opacity="1" /><path clip-path="url(#clip150)" d="M191.621 811.171 L213.843 811.171 L213.843 813.162 L201.297 845.731 L196.412 845.731 L208.218 815.106 L191.621 815.106 L191.621 811.171 Z" fill="#000000" fill-rule="nonzero" fill-opacity="1" /><path clip-path="url(#clip150)" d="M127.084 550.96 Q123.936 550.96 122.084 553.112 Q120.255 555.265 120.255 559.015 Q120.255 562.742 122.084 564.918 Q123.936 567.071 127.084 567.071 Q130.232 567.071 132.061 564.918 Q133.913 562.742 133.913 559.015 Q133.913 555.265 132.061 553.112 Q130.232 550.96 127.084 550.96 M136.367 536.307 L136.367 540.566 Q134.607 539.733 132.802 539.293 Q131.019 538.853 129.26 538.853 Q124.63 538.853 122.177 541.978 Q119.746 545.103 119.399 551.422 Q120.765 549.409 122.825 548.344 Q124.885 547.256 127.362 547.256 Q132.57 547.256 135.579 550.427 Q138.612 553.575 138.612 559.015 Q138.612 564.339 135.464 567.557 Q132.316 570.774 127.084 570.774 Q121.089 570.774 117.918 566.191 Q114.746 561.584 114.746 552.858 Q114.746 544.663 118.635 539.802 Q122.524 534.918 129.075 534.918 Q130.834 534.918 132.617 535.265 Q134.422 535.612 136.367 536.307 Z" fill="#000000" fill-rule="nonzero" fill-opacity="1" /><path clip-path="url(#clip150)" d="M157.246 550.96 Q154.098 550.96 152.246 553.112 Q150.417 555.265 150.417 559.015 Q150.417 562.742 152.246 564.918 Q154.098 567.071 157.246 567.071 Q160.394 567.071 162.223 564.918 Q164.075 562.742 164.075 559.015 Q164.075 555.265 162.223 553.112 Q160.394 550.96 157.246 550.96 M166.528 536.307 L166.528 540.566 Q164.769 539.733 162.964 539.293 Q161.181 538.853 159.422 538.853 Q154.792 538.853 152.339 541.978 Q149.908 545.103 149.561 551.422 Q150.927 549.409 152.987 548.344 Q155.047 547.256 157.524 547.256 Q162.732 547.256 165.741 550.427 Q168.774 553.575 168.774 559.015 Q168.774 564.339 165.626 567.557 Q162.477 570.774 157.246 570.774 Q151.251 570.774 148.079 566.191 Q144.908 561.584 144.908 552.858 Q144.908 544.663 148.797 539.802 Q152.686 534.918 159.237 534.918 Q160.996 534.918 162.778 535.265 Q164.584 535.612 166.528 536.307 Z" fill="#000000" fill-rule="nonzero" fill-opacity="1" /><path clip-path="url(#clip150)" d="M176.829 564.223 L181.713 564.223 L181.713 570.103 L176.829 570.103 L176.829 564.223 Z" fill="#000000" fill-rule="nonzero" fill-opacity="1" /><path clip-path="url(#clip150)" d="M201.899 538.622 Q198.287 538.622 196.459 542.186 Q194.653 545.728 194.653 552.858 Q194.653 559.964 196.459 563.529 Q198.287 567.071 201.899 567.071 Q205.533 567.071 207.338 563.529 Q209.167 559.964 209.167 552.858 Q209.167 545.728 207.338 542.186 Q205.533 538.622 201.899 538.622 M201.899 534.918 Q207.709 534.918 210.764 539.524 Q213.843 544.108 213.843 552.858 Q213.843 561.584 210.764 566.191 Q207.709 570.774 201.899 570.774 Q196.088 570.774 193.01 566.191 Q189.954 561.584 189.954 552.858 Q189.954 544.108 193.01 539.524 Q196.088 534.918 201.899 534.918 Z" fill="#000000" fill-rule="nonzero" fill-opacity="1" /><path clip-path="url(#clip150)" d="M127.732 275.332 Q124.584 275.332 122.732 277.484 Q120.904 279.637 120.904 283.387 Q120.904 287.114 122.732 289.29 Q124.584 291.443 127.732 291.443 Q130.88 291.443 132.709 289.29 Q134.561 287.114 134.561 283.387 Q134.561 279.637 132.709 277.484 Q130.88 275.332 127.732 275.332 M137.015 260.679 L137.015 264.938 Q135.255 264.105 133.45 263.665 Q131.667 263.225 129.908 263.225 Q125.279 263.225 122.825 266.35 Q120.394 269.475 120.047 275.794 Q121.413 273.781 123.473 272.716 Q125.533 271.628 128.01 271.628 Q133.218 271.628 136.228 274.799 Q139.26 277.947 139.26 283.387 Q139.26 288.711 136.112 291.929 Q132.964 295.146 127.732 295.146 Q121.737 295.146 118.566 290.563 Q115.394 285.956 115.394 277.23 Q115.394 269.035 119.283 264.174 Q123.172 259.29 129.723 259.29 Q131.482 259.29 133.265 259.637 Q135.07 259.984 137.015 260.679 Z" fill="#000000" fill-rule="nonzero" fill-opacity="1" /><path clip-path="url(#clip150)" d="M157.894 275.332 Q154.746 275.332 152.894 277.484 Q151.066 279.637 151.066 283.387 Q151.066 287.114 152.894 289.29 Q154.746 291.443 157.894 291.443 Q161.042 291.443 162.871 289.29 Q164.723 287.114 164.723 283.387 Q164.723 279.637 162.871 277.484 Q161.042 275.332 157.894 275.332 M167.177 260.679 L167.177 264.938 Q165.417 264.105 163.612 263.665 Q161.829 263.225 160.07 263.225 Q155.44 263.225 152.987 266.35 Q150.556 269.475 150.209 275.794 Q151.575 273.781 153.635 272.716 Q155.695 271.628 158.172 271.628 Q163.38 271.628 166.39 274.799 Q169.422 277.947 169.422 283.387 Q169.422 288.711 166.274 291.929 Q163.126 295.146 157.894 295.146 Q151.899 295.146 148.728 290.563 Q145.556 285.956 145.556 277.23 Q145.556 269.035 149.445 264.174 Q153.334 259.29 159.885 259.29 Q161.644 259.29 163.427 259.637 Q165.232 259.984 167.177 260.679 Z" fill="#000000" fill-rule="nonzero" fill-opacity="1" /><path clip-path="url(#clip150)" d="M177.477 288.595 L182.362 288.595 L182.362 294.475 L177.477 294.475 L177.477 288.595 Z" fill="#000000" fill-rule="nonzero" fill-opacity="1" /><path clip-path="url(#clip150)" d="M206.713 275.841 Q210.07 276.558 211.945 278.827 Q213.843 281.095 213.843 284.429 Q213.843 289.544 210.324 292.345 Q206.806 295.146 200.325 295.146 Q198.149 295.146 195.834 294.706 Q193.542 294.29 191.088 293.433 L191.088 288.919 Q193.033 290.054 195.348 290.632 Q197.662 291.211 200.186 291.211 Q204.584 291.211 206.875 289.475 Q209.19 287.739 209.19 284.429 Q209.19 281.373 207.037 279.66 Q204.908 277.924 201.088 277.924 L197.061 277.924 L197.061 274.082 L201.274 274.082 Q204.723 274.082 206.551 272.716 Q208.38 271.327 208.38 268.734 Q208.38 266.072 206.482 264.66 Q204.607 263.225 201.088 263.225 Q199.167 263.225 196.968 263.642 Q194.769 264.058 192.13 264.938 L192.13 260.771 Q194.792 260.031 197.107 259.66 Q199.445 259.29 201.505 259.29 Q206.829 259.29 209.931 261.72 Q213.033 264.128 213.033 268.248 Q213.033 271.119 211.389 273.109 Q209.746 275.077 206.713 275.841 Z" fill="#000000" fill-rule="nonzero" fill-opacity="1" /><path clip-path="url(#clip150)" d="M22.818 922.094 L46.4666 930.815 L46.4666 913.341 L22.818 922.094 M16.4842 925.723 L16.4842 918.434 L64.0042 900.324 L64.0042 907.008 L51.8138 911.336 L51.8138 932.757 L64.0042 937.085 L64.0042 943.865 L16.4842 925.723 Z" fill="#000000" fill-rule="nonzero" fill-opacity="1" /><path clip-path="url(#clip150)" d="M45.7664 870.182 Q39.4007 870.182 35.8996 872.824 Q32.3984 875.434 32.3984 880.176 Q32.3984 884.887 35.8996 887.528 Q39.4007 890.138 45.7664 890.138 Q52.1003 890.138 55.6014 887.528 Q59.1026 884.887 59.1026 880.176 Q59.1026 875.434 55.6014 872.824 Q52.1003 870.182 45.7664 870.182 M59.58 864.325 Q68.683 864.325 73.1071 868.368 Q77.5631 872.41 77.5631 880.749 Q77.5631 883.836 77.0857 886.574 Q76.6401 889.311 75.6852 891.889 L69.9879 891.889 Q71.3884 889.311 72.0568 886.796 Q72.7252 884.282 72.7252 881.672 Q72.7252 875.911 69.7015 873.046 Q66.7096 870.182 60.6303 870.182 L57.7339 870.182 Q60.885 871.996 62.4446 874.829 Q64.0042 877.662 64.0042 881.608 Q64.0042 888.165 59.0071 892.175 Q54.01 896.186 45.7664 896.186 Q37.491 896.186 32.4939 892.175 Q27.4968 888.165 27.4968 881.608 Q27.4968 877.662 29.0564 874.829 Q30.616 871.996 33.7671 870.182 L28.3562 870.182 L28.3562 864.325 L59.58 864.325 Z" fill="#000000" fill-rule="nonzero" fill-opacity="1" /><path clip-path="url(#clip150)" d="M44.7161 821.771 L47.5806 821.771 L47.5806 848.698 Q53.6281 848.316 56.8109 845.069 Q59.9619 841.791 59.9619 835.966 Q59.9619 832.592 59.1344 829.441 Q58.3069 826.259 56.6518 823.139 L62.1899 823.139 Q63.5267 826.29 64.227 829.601 Q64.9272 832.911 64.9272 836.316 Q64.9272 844.846 59.9619 849.843 Q54.9967 854.809 46.5303 854.809 Q37.7774 854.809 32.6531 850.098 Q27.4968 845.356 27.4968 837.335 Q27.4968 830.142 32.1438 825.972 Q36.7589 821.771 44.7161 821.771 M42.9973 827.627 Q38.1912 827.691 35.3266 830.333 Q32.4621 832.943 32.4621 837.271 Q32.4621 842.173 35.2312 845.133 Q38.0002 848.061 43.0292 848.507 L42.9973 827.627 Z" fill="#000000" fill-rule="nonzero" fill-opacity="1" /><path clip-path="url(#clip150)" d="M14.5426 777.37 Q21.8632 781.635 29.0246 783.704 Q36.186 785.773 43.5384 785.773 Q50.8908 785.773 58.1159 783.704 Q65.3091 781.603 72.5979 777.37 L72.5979 782.462 Q65.1182 787.237 57.8931 789.624 Q50.668 791.979 43.5384 791.979 Q36.4406 791.979 29.2474 789.624 Q22.0542 787.269 14.5426 782.462 L14.5426 777.37 Z" fill="#000000" fill-rule="nonzero" fill-opacity="1" /><path clip-path="url(#clip150)" d="M16.4842 765.752 L16.4842 756.172 L48.8219 744.045 L16.4842 731.855 L16.4842 722.275 L64.0042 722.275 L64.0042 728.545 L22.277 728.545 L54.8694 740.799 L54.8694 747.26 L22.277 759.514 L64.0042 759.514 L64.0042 765.752 L16.4842 765.752 Z" fill="#000000" fill-rule="nonzero" fill-opacity="1" /><path clip-path="url(#clip150)" d="M46.0847 693.565 Q46.0847 700.663 47.7079 703.4 Q49.3312 706.138 53.2461 706.138 Q56.3653 706.138 58.2114 704.101 Q60.0256 702.032 60.0256 698.499 Q60.0256 693.629 56.5881 690.701 Q53.1188 687.741 47.3897 687.741 L46.0847 687.741 L46.0847 693.565 M43.6657 681.884 L64.0042 681.884 L64.0042 687.741 L58.5933 687.741 Q61.8398 689.746 63.3994 692.738 Q64.9272 695.73 64.9272 700.058 Q64.9272 705.533 61.8716 708.779 Q58.7843 711.994 53.6281 711.994 Q47.6125 711.994 44.5569 707.984 Q41.5014 703.941 41.5014 695.953 L41.5014 687.741 L40.9285 687.741 Q36.8862 687.741 34.6901 690.414 Q32.4621 693.056 32.4621 697.862 Q32.4621 700.918 33.1941 703.814 Q33.9262 706.711 35.3903 709.384 L29.9795 709.384 Q28.7381 706.169 28.1334 703.146 Q27.4968 700.122 27.4968 697.257 Q27.4968 689.523 31.5072 685.704 Q35.5176 681.884 43.6657 681.884 Z" fill="#000000" fill-rule="nonzero" fill-opacity="1" /><path clip-path="url(#clip150)" d="M14.5426 670.744 L14.5426 665.652 Q22.0542 660.877 29.2474 658.522 Q36.4406 656.135 43.5384 656.135 Q50.668 656.135 57.8931 658.522 Q65.1182 660.877 72.5979 665.652 L72.5979 670.744 Q65.3091 666.511 58.1159 664.442 Q50.8908 662.342 43.5384 662.342 Q36.186 662.342 29.0246 664.442 Q21.8632 666.511 14.5426 670.744 Z" fill="#000000" fill-rule="nonzero" fill-opacity="1" /><polyline clip-path="url(#clip151)" style="stroke:#009af9; stroke-linecap:round; stroke-linejoin:round; stroke-width:4; stroke-opacity:1; fill:none" points="309.359,1510.15 309.359,642.992 "/>
<polyline clip-path="url(#clip151)" style="stroke:#009af9; stroke-linecap:round; stroke-linejoin:round; stroke-width:4; stroke-opacity:1; fill:none" points="706.135,1083.79 706.135,654.471 "/>
<polyline clip-path="url(#clip151)" style="stroke:#009af9; stroke-linecap:round; stroke-linejoin:round; stroke-width:4; stroke-opacity:1; fill:none" points="1102.91,763.574 1102.91,537.333 "/>
<polyline clip-path="url(#clip151)" style="stroke:#009af9; stroke-linecap:round; stroke-linejoin:round; stroke-width:4; stroke-opacity:1; fill:none" points="1499.69,711.173 1499.69,315.457 "/>
<polyline clip-path="url(#clip151)" style="stroke:#009af9; stroke-linecap:round; stroke-linejoin:round; stroke-width:4; stroke-opacity:1; fill:none" points="1896.46,902.274 1896.46,89.8529 "/>
<polyline clip-path="url(#clip151)" style="stroke:#009af9; stroke-linecap:round; stroke-linejoin:round; stroke-width:4; stroke-opacity:1; fill:none" points="2293.24,724.775 2293.24,202.885 "/>
<line clip-path="url(#clip151)" x1="325.359" y1="1510.15" x2="293.359" y2="1510.15" style="stroke:#009af9; stroke-width:4; stroke-opacity:1"/>
<line clip-path="url(#clip151)" x1="325.359" y1="642.992" x2="293.359" y2="642.992" style="stroke:#009af9; stroke-width:4; stroke-opacity:1"/>
<line clip-path="url(#clip151)" x1="722.135" y1="1083.79" x2="690.135" y2="1083.79" style="stroke:#009af9; stroke-width:4; stroke-opacity:1"/>
<line clip-path="url(#clip151)" x1="722.135" y1="654.471" x2="690.135" y2="654.471" style="stroke:#009af9; stroke-width:4; stroke-opacity:1"/>
<line clip-path="url(#clip151)" x1="1118.91" y1="763.574" x2="1086.91" y2="763.574" style="stroke:#009af9; stroke-width:4; stroke-opacity:1"/>
<line clip-path="url(#clip151)" x1="1118.91" y1="537.333" x2="1086.91" y2="537.333" style="stroke:#009af9; stroke-width:4; stroke-opacity:1"/>
<line clip-path="url(#clip151)" x1="1515.69" y1="711.173" x2="1483.69" y2="711.173" style="stroke:#009af9; stroke-width:4; stroke-opacity:1"/>
<line clip-path="url(#clip151)" x1="1515.69" y1="315.457" x2="1483.69" y2="315.457" style="stroke:#009af9; stroke-width:4; stroke-opacity:1"/>
<line clip-path="url(#clip151)" x1="1912.46" y1="902.274" x2="1880.46" y2="902.274" style="stroke:#009af9; stroke-width:4; stroke-opacity:1"/>
<line clip-path="url(#clip151)" x1="1912.46" y1="89.8529" x2="1880.46" y2="89.8529" style="stroke:#009af9; stroke-width:4; stroke-opacity:1"/>
<line clip-path="url(#clip151)" x1="2309.24" y1="724.775" x2="2277.24" y2="724.775" style="stroke:#009af9; stroke-width:4; stroke-opacity:1"/>
<line clip-path="url(#clip151)" x1="2309.24" y1="202.885" x2="2277.24" y2="202.885" style="stroke:#009af9; stroke-width:4; stroke-opacity:1"/>
<circle clip-path="url(#clip151)" cx="309.359" cy="1076.57" r="14.4" fill="#009af9" fill-rule="evenodd" fill-opacity="1" stroke="none"/>
<circle clip-path="url(#clip151)" cx="706.135" cy="869.131" r="14.4" fill="#009af9" fill-rule="evenodd" fill-opacity="1" stroke="none"/>
<circle clip-path="url(#clip151)" cx="1102.91" cy="650.453" r="14.4" fill="#009af9" fill-rule="evenodd" fill-opacity="1" stroke="none"/>
<circle clip-path="url(#clip151)" cx="1499.69" cy="513.315" r="14.4" fill="#009af9" fill-rule="evenodd" fill-opacity="1" stroke="none"/>
<circle clip-path="url(#clip151)" cx="1896.46" cy="496.064" r="14.4" fill="#009af9" fill-rule="evenodd" fill-opacity="1" stroke="none"/>
<circle clip-path="url(#clip151)" cx="2293.24" cy="463.83" r="14.4" fill="#009af9" fill-rule="evenodd" fill-opacity="1" stroke="none"/>
<path clip-path="url(#clip151)" d="M309.359 1183.95 L706.135 1183.95 L1102.91 1183.95 L1499.69 1183.95 L1896.46 1183.95 L2293.24 1183.95 L2293.24 630.981 L1896.46 630.981 L1499.69 630.981 L1102.91 630.981 L706.135 630.981 L309.359 630.981  Z" fill="#e26f46" fill-rule="evenodd" fill-opacity="0.6"/>
<polyline clip-path="url(#clip151)" style="stroke:#e26f46; stroke-linecap:round; stroke-linejoin:round; stroke-width:4; stroke-opacity:0; fill:none" points="309.359,1183.95 706.135,1183.95 1102.91,1183.95 1499.69,1183.95 1896.46,1183.95 2293.24,1183.95 "/>
<polyline clip-path="url(#clip151)" style="stroke:#000000; stroke-linecap:round; stroke-linejoin:round; stroke-width:4; stroke-opacity:1; fill:none" stroke-dasharray="2, 4" points="309.359,847.81 706.135,847.81 1102.91,847.81 1499.69,847.81 1896.46,847.81 2293.24,847.81 "/>
<path clip-path="url(#clip150)" d="M319.94 252.948 L1326.11 252.948 L1326.11 97.4278 L319.94 97.4278  Z" fill="#ffffff" fill-rule="evenodd" fill-opacity="1"/>
<polyline clip-path="url(#clip150)" style="stroke:#ffffff; stroke-linecap:round; stroke-linejoin:round; stroke-width:4; stroke-opacity:1; fill:none" points="319.94,252.948 1326.11,252.948 1326.11,97.4278 319.94,97.4278 319.94,252.948 "/>
<circle clip-path="url(#clip150)" cx="413.403" cy="149.268" r="20.48" fill="#009af9" fill-rule="evenodd" fill-opacity="1" stroke="none"/>
<path clip-path="url(#clip150)" d="M511.542 135.83 L511.542 162.705 L517.19 162.705 Q524.342 162.705 527.653 159.465 Q530.986 156.224 530.986 149.233 Q530.986 142.289 527.653 139.071 Q524.342 135.83 517.19 135.83 L511.542 135.83 M506.866 131.988 L516.472 131.988 Q526.518 131.988 531.217 136.178 Q535.916 140.344 535.916 149.233 Q535.916 158.168 531.194 162.358 Q526.472 166.548 516.472 166.548 L506.866 166.548 L506.866 131.988 Z" fill="#000000" fill-rule="nonzero" fill-opacity="1" /><path clip-path="url(#clip150)" d="M554.967 153.515 Q549.805 153.515 547.815 154.696 Q545.824 155.877 545.824 158.724 Q545.824 160.992 547.305 162.335 Q548.81 163.654 551.379 163.654 Q554.921 163.654 557.051 161.154 Q559.203 158.631 559.203 154.465 L559.203 153.515 L554.967 153.515 M563.463 151.756 L563.463 166.548 L559.203 166.548 L559.203 162.613 Q557.745 164.974 555.569 166.108 Q553.393 167.219 550.245 167.219 Q546.264 167.219 543.902 164.997 Q541.565 162.752 541.565 159.002 Q541.565 154.627 544.481 152.404 Q547.421 150.182 553.231 150.182 L559.203 150.182 L559.203 149.766 Q559.203 146.826 557.259 145.228 Q555.338 143.608 551.842 143.608 Q549.62 143.608 547.514 144.141 Q545.407 144.673 543.463 145.738 L543.463 141.803 Q545.801 140.9 548 140.46 Q550.199 139.997 552.282 139.997 Q557.907 139.997 560.685 142.914 Q563.463 145.83 563.463 151.756 Z" fill="#000000" fill-rule="nonzero" fill-opacity="1" /><path clip-path="url(#clip150)" d="M576.449 133.261 L576.449 140.622 L585.222 140.622 L585.222 143.932 L576.449 143.932 L576.449 158.006 Q576.449 161.177 577.305 162.08 Q578.185 162.983 580.847 162.983 L585.222 162.983 L585.222 166.548 L580.847 166.548 Q575.916 166.548 574.041 164.719 Q572.166 162.867 572.166 158.006 L572.166 143.932 L569.041 143.932 L569.041 140.622 L572.166 140.622 L572.166 133.261 L576.449 133.261 Z" fill="#000000" fill-rule="nonzero" fill-opacity="1" /><path clip-path="url(#clip150)" d="M602.606 153.515 Q597.444 153.515 595.453 154.696 Q593.462 155.877 593.462 158.724 Q593.462 160.992 594.944 162.335 Q596.449 163.654 599.018 163.654 Q602.56 163.654 604.689 161.154 Q606.842 158.631 606.842 154.465 L606.842 153.515 L602.606 153.515 M611.101 151.756 L611.101 166.548 L606.842 166.548 L606.842 162.613 Q605.384 164.974 603.208 166.108 Q601.032 167.219 597.884 167.219 Q593.902 167.219 591.541 164.997 Q589.203 162.752 589.203 159.002 Q589.203 154.627 592.12 152.404 Q595.06 150.182 600.87 150.182 L606.842 150.182 L606.842 149.766 Q606.842 146.826 604.898 145.228 Q602.976 143.608 599.481 143.608 Q597.259 143.608 595.152 144.141 Q593.046 144.673 591.101 145.738 L591.101 141.803 Q593.439 140.9 595.638 140.46 Q597.837 139.997 599.921 139.997 Q605.546 139.997 608.323 142.914 Q611.101 145.83 611.101 151.756 Z" fill="#000000" fill-rule="nonzero" fill-opacity="1" /><path clip-path="url(#clip150)" d="M645.175 130.576 Q642.073 135.9 640.569 141.108 Q639.064 146.316 639.064 151.664 Q639.064 157.011 640.569 162.265 Q642.096 167.497 645.175 172.798 L641.471 172.798 Q637.999 167.358 636.263 162.103 Q634.55 156.849 634.55 151.664 Q634.55 146.502 636.263 141.27 Q637.976 136.039 641.471 130.576 L645.175 130.576 Z" fill="#000000" fill-rule="nonzero" fill-opacity="1" /><path clip-path="url(#clip150)" d="M663.485 143.608 Q660.059 143.608 658.069 146.293 Q656.078 148.955 656.078 153.608 Q656.078 158.261 658.045 160.946 Q660.036 163.608 663.485 163.608 Q666.888 163.608 668.879 160.923 Q670.869 158.238 670.869 153.608 Q670.869 149.002 668.879 146.316 Q666.888 143.608 663.485 143.608 M663.485 139.997 Q669.041 139.997 672.212 143.608 Q675.383 147.219 675.383 153.608 Q675.383 159.974 672.212 163.608 Q669.041 167.219 663.485 167.219 Q657.907 167.219 654.735 163.608 Q651.587 159.974 651.587 153.608 Q651.587 147.219 654.735 143.608 Q657.907 139.997 663.485 139.997 Z" fill="#000000" fill-rule="nonzero" fill-opacity="1" /><path clip-path="url(#clip150)" d="M701.054 153.608 Q701.054 148.909 699.11 146.247 Q697.189 143.562 693.809 143.562 Q690.429 143.562 688.485 146.247 Q686.564 148.909 686.564 153.608 Q686.564 158.307 688.485 160.992 Q690.429 163.654 693.809 163.654 Q697.189 163.654 699.11 160.992 Q701.054 158.307 701.054 153.608 M686.564 144.557 Q687.906 142.242 689.943 141.131 Q692.004 139.997 694.851 139.997 Q699.573 139.997 702.513 143.747 Q705.476 147.497 705.476 153.608 Q705.476 159.719 702.513 163.469 Q699.573 167.219 694.851 167.219 Q692.004 167.219 689.943 166.108 Q687.906 164.974 686.564 162.659 L686.564 166.548 L682.281 166.548 L682.281 130.529 L686.564 130.529 L686.564 144.557 Z" fill="#000000" fill-rule="nonzero" fill-opacity="1" /><path clip-path="url(#clip150)" d="M729.064 141.386 L729.064 145.414 Q727.258 144.488 725.314 144.025 Q723.369 143.562 721.286 143.562 Q718.115 143.562 716.517 144.534 Q714.943 145.506 714.943 147.451 Q714.943 148.932 716.077 149.789 Q717.212 150.622 720.638 151.386 L722.096 151.71 Q726.633 152.682 728.531 154.465 Q730.452 156.224 730.452 159.395 Q730.452 163.006 727.582 165.113 Q724.735 167.219 719.735 167.219 Q717.652 167.219 715.383 166.802 Q713.138 166.409 710.638 165.599 L710.638 161.201 Q712.999 162.427 715.29 163.052 Q717.582 163.654 719.827 163.654 Q722.837 163.654 724.457 162.636 Q726.077 161.594 726.077 159.719 Q726.077 157.983 724.897 157.057 Q723.739 156.131 719.781 155.275 L718.3 154.928 Q714.341 154.094 712.582 152.381 Q710.823 150.645 710.823 147.636 Q710.823 143.978 713.415 141.988 Q716.008 139.997 720.777 139.997 Q723.138 139.997 725.221 140.344 Q727.304 140.691 729.064 141.386 Z" fill="#000000" fill-rule="nonzero" fill-opacity="1" /><path clip-path="url(#clip150)" d="M759.411 152.52 L759.411 154.603 L739.827 154.603 Q740.105 159.002 742.466 161.316 Q744.85 163.608 749.087 163.608 Q751.54 163.608 753.832 163.006 Q756.147 162.404 758.415 161.201 L758.415 165.228 Q756.124 166.201 753.716 166.71 Q751.309 167.219 748.832 167.219 Q742.628 167.219 738.994 163.608 Q735.383 159.997 735.383 153.84 Q735.383 147.474 738.809 143.747 Q742.258 139.997 748.091 139.997 Q753.323 139.997 756.355 143.377 Q759.411 146.733 759.411 152.52 M755.151 151.27 Q755.105 147.775 753.184 145.691 Q751.286 143.608 748.138 143.608 Q744.573 143.608 742.42 145.622 Q740.29 147.636 739.966 151.293 L755.151 151.27 Z" fill="#000000" fill-rule="nonzero" fill-opacity="1" /><path clip-path="url(#clip150)" d="M781.424 144.603 Q780.707 144.187 779.85 144.002 Q779.017 143.793 777.998 143.793 Q774.387 143.793 772.443 146.154 Q770.522 148.492 770.522 152.89 L770.522 166.548 L766.239 166.548 L766.239 140.622 L770.522 140.622 L770.522 144.65 Q771.864 142.289 774.017 141.154 Q776.17 139.997 779.248 139.997 Q779.688 139.997 780.221 140.066 Q780.753 140.113 781.401 140.229 L781.424 144.603 Z" fill="#000000" fill-rule="nonzero" fill-opacity="1" /><path clip-path="url(#clip150)" d="M782.836 140.622 L787.35 140.622 L795.452 162.381 L803.554 140.622 L808.068 140.622 L798.346 166.548 L792.559 166.548 L782.836 140.622 Z" fill="#000000" fill-rule="nonzero" fill-opacity="1" /><path clip-path="url(#clip150)" d="M836.123 152.52 L836.123 154.603 L816.54 154.603 Q816.818 159.002 819.179 161.316 Q821.563 163.608 825.799 163.608 Q828.253 163.608 830.544 163.006 Q832.859 162.404 835.128 161.201 L835.128 165.228 Q832.836 166.201 830.429 166.71 Q828.021 167.219 825.544 167.219 Q819.341 167.219 815.707 163.608 Q812.095 159.997 812.095 153.84 Q812.095 147.474 815.521 143.747 Q818.97 139.997 824.804 139.997 Q830.035 139.997 833.068 143.377 Q836.123 146.733 836.123 152.52 M831.864 151.27 Q831.818 147.775 829.896 145.691 Q827.998 143.608 824.85 143.608 Q821.285 143.608 819.132 145.622 Q817.003 147.636 816.679 151.293 L831.864 151.27 Z" fill="#000000" fill-rule="nonzero" fill-opacity="1" /><path clip-path="url(#clip150)" d="M860.174 144.557 L860.174 130.529 L864.433 130.529 L864.433 166.548 L860.174 166.548 L860.174 162.659 Q858.831 164.974 856.771 166.108 Q854.734 167.219 851.864 167.219 Q847.165 167.219 844.202 163.469 Q841.262 159.719 841.262 153.608 Q841.262 147.497 844.202 143.747 Q847.165 139.997 851.864 139.997 Q854.734 139.997 856.771 141.131 Q858.831 142.242 860.174 144.557 M845.66 153.608 Q845.66 158.307 847.581 160.992 Q849.526 163.654 852.905 163.654 Q856.285 163.654 858.23 160.992 Q860.174 158.307 860.174 153.608 Q860.174 148.909 858.23 146.247 Q856.285 143.562 852.905 143.562 Q849.526 143.562 847.581 146.247 Q845.66 148.909 845.66 153.608 Z" fill="#000000" fill-rule="nonzero" fill-opacity="1" /><path clip-path="url(#clip150)" d="M900.058 153.515 Q894.896 153.515 892.905 154.696 Q890.915 155.877 890.915 158.724 Q890.915 160.992 892.396 162.335 Q893.901 163.654 896.47 163.654 Q900.012 163.654 902.141 161.154 Q904.294 158.631 904.294 154.465 L904.294 153.515 L900.058 153.515 M908.553 151.756 L908.553 166.548 L904.294 166.548 L904.294 162.613 Q902.836 164.974 900.66 166.108 Q898.484 167.219 895.336 167.219 Q891.354 167.219 888.993 164.997 Q886.655 162.752 886.655 159.002 Q886.655 154.627 889.572 152.404 Q892.512 150.182 898.322 150.182 L904.294 150.182 L904.294 149.766 Q904.294 146.826 902.35 145.228 Q900.428 143.608 896.933 143.608 Q894.711 143.608 892.604 144.141 Q890.498 144.673 888.553 145.738 L888.553 141.803 Q890.891 140.9 893.09 140.46 Q895.289 139.997 897.373 139.997 Q902.998 139.997 905.776 142.914 Q908.553 145.83 908.553 151.756 Z" fill="#000000" fill-rule="nonzero" fill-opacity="1" /><path clip-path="url(#clip150)" d="M934.387 153.284 Q934.387 148.654 932.465 146.108 Q930.567 143.562 927.118 143.562 Q923.692 143.562 921.771 146.108 Q919.873 148.654 919.873 153.284 Q919.873 157.89 921.771 160.437 Q923.692 162.983 927.118 162.983 Q930.567 162.983 932.465 160.437 Q934.387 157.89 934.387 153.284 M938.646 163.33 Q938.646 169.951 935.706 173.168 Q932.766 176.409 926.701 176.409 Q924.456 176.409 922.465 176.062 Q920.475 175.738 918.6 175.043 L918.6 170.9 Q920.475 171.918 922.303 172.404 Q924.132 172.89 926.03 172.89 Q930.22 172.89 932.303 170.691 Q934.387 168.515 934.387 164.094 L934.387 161.988 Q933.067 164.279 931.007 165.414 Q928.947 166.548 926.076 166.548 Q921.308 166.548 918.391 162.914 Q915.475 159.279 915.475 153.284 Q915.475 147.266 918.391 143.631 Q921.308 139.997 926.076 139.997 Q928.947 139.997 931.007 141.131 Q933.067 142.266 934.387 144.557 L934.387 140.622 L938.646 140.622 L938.646 163.33 Z" fill="#000000" fill-rule="nonzero" fill-opacity="1" /><path clip-path="url(#clip150)" d="M969.595 152.52 L969.595 154.603 L950.011 154.603 Q950.289 159.002 952.65 161.316 Q955.035 163.608 959.271 163.608 Q961.724 163.608 964.016 163.006 Q966.331 162.404 968.599 161.201 L968.599 165.228 Q966.308 166.201 963.9 166.71 Q961.493 167.219 959.016 167.219 Q952.812 167.219 949.178 163.608 Q945.567 159.997 945.567 153.84 Q945.567 147.474 948.993 143.747 Q952.442 139.997 958.275 139.997 Q963.507 139.997 966.539 143.377 Q969.595 146.733 969.595 152.52 M965.335 151.27 Q965.289 147.775 963.368 145.691 Q961.47 143.608 958.322 143.608 Q954.757 143.608 952.604 145.622 Q950.474 147.636 950.15 151.293 L965.335 151.27 Z" fill="#000000" fill-rule="nonzero" fill-opacity="1" /><path clip-path="url(#clip150)" d="M993.113 141.386 L993.113 145.414 Q991.307 144.488 989.363 144.025 Q987.419 143.562 985.335 143.562 Q982.164 143.562 980.567 144.534 Q978.993 145.506 978.993 147.451 Q978.993 148.932 980.127 149.789 Q981.261 150.622 984.687 151.386 L986.145 151.71 Q990.683 152.682 992.581 154.465 Q994.502 156.224 994.502 159.395 Q994.502 163.006 991.632 165.113 Q988.784 167.219 983.784 167.219 Q981.701 167.219 979.433 166.802 Q977.187 166.409 974.687 165.599 L974.687 161.201 Q977.048 162.427 979.34 163.052 Q981.632 163.654 983.877 163.654 Q986.886 163.654 988.507 162.636 Q990.127 161.594 990.127 159.719 Q990.127 157.983 988.946 157.057 Q987.789 156.131 983.831 155.275 L982.349 154.928 Q978.391 154.094 976.632 152.381 Q974.872 150.645 974.872 147.636 Q974.872 143.978 977.465 141.988 Q980.058 139.997 984.826 139.997 Q987.187 139.997 989.27 140.344 Q991.354 140.691 993.113 141.386 Z" fill="#000000" fill-rule="nonzero" fill-opacity="1" /><path clip-path="url(#clip150)" d="M1000.61 130.576 L1004.32 130.576 Q1007.79 136.039 1009.5 141.27 Q1011.24 146.502 1011.24 151.664 Q1011.24 156.849 1009.5 162.103 Q1007.79 167.358 1004.32 172.798 L1000.61 172.798 Q1003.69 167.497 1005.2 162.265 Q1006.72 157.011 1006.72 151.664 Q1006.72 146.316 1005.2 141.108 Q1003.69 135.9 1000.61 130.576 Z" fill="#000000" fill-rule="nonzero" fill-opacity="1" /><path clip-path="url(#clip150)" d="M343.306 221.844 L483.5 221.844 L483.5 180.372 L343.306 180.372 L343.306 221.844  Z" fill="#e26f46" fill-rule="evenodd" fill-opacity="0.6"/>
<polyline clip-path="url(#clip150)" style="stroke:#e26f46; stroke-linecap:round; stroke-linejoin:round; stroke-width:4; stroke-opacity:0; fill:none" points="343.306,180.372 483.5,180.372 "/>
<path clip-path="url(#clip150)" d="M506.866 183.828 L513.833 183.828 L522.653 207.346 L531.518 183.828 L538.486 183.828 L538.486 218.388 L533.926 218.388 L533.926 188.041 L525.014 211.744 L520.315 211.744 L511.403 188.041 L511.403 218.388 L506.866 218.388 L506.866 183.828 Z" fill="#000000" fill-rule="nonzero" fill-opacity="1" /><path clip-path="url(#clip150)" d="M557.629 195.448 Q554.203 195.448 552.213 198.133 Q550.222 200.795 550.222 205.448 Q550.222 210.101 552.189 212.786 Q554.18 215.448 557.629 215.448 Q561.032 215.448 563.023 212.763 Q565.013 210.078 565.013 205.448 Q565.013 200.842 563.023 198.156 Q561.032 195.448 557.629 195.448 M557.629 191.837 Q563.185 191.837 566.356 195.448 Q569.527 199.059 569.527 205.448 Q569.527 211.814 566.356 215.448 Q563.185 219.059 557.629 219.059 Q552.051 219.059 548.879 215.448 Q545.731 211.814 545.731 205.448 Q545.731 199.059 548.879 195.448 Q552.051 191.837 557.629 191.837 Z" fill="#000000" fill-rule="nonzero" fill-opacity="1" /><path clip-path="url(#clip150)" d="M593.648 196.397 L593.648 182.369 L597.907 182.369 L597.907 218.388 L593.648 218.388 L593.648 214.499 Q592.305 216.814 590.245 217.948 Q588.208 219.059 585.337 219.059 Q580.638 219.059 577.675 215.309 Q574.736 211.559 574.736 205.448 Q574.736 199.337 577.675 195.587 Q580.638 191.837 585.337 191.837 Q588.208 191.837 590.245 192.971 Q592.305 194.082 593.648 196.397 M579.134 205.448 Q579.134 210.147 581.055 212.832 Q583 215.494 586.379 215.494 Q589.759 215.494 591.703 212.832 Q593.648 210.147 593.648 205.448 Q593.648 200.749 591.703 198.087 Q589.759 195.402 586.379 195.402 Q583 195.402 581.055 198.087 Q579.134 200.749 579.134 205.448 Z" fill="#000000" fill-rule="nonzero" fill-opacity="1" /><path clip-path="url(#clip150)" d="M628.856 204.36 L628.856 206.443 L609.273 206.443 Q609.55 210.842 611.911 213.156 Q614.296 215.448 618.532 215.448 Q620.985 215.448 623.277 214.846 Q625.592 214.244 627.86 213.041 L627.86 217.068 Q625.569 218.041 623.161 218.55 Q620.754 219.059 618.277 219.059 Q612.073 219.059 608.439 215.448 Q604.828 211.837 604.828 205.68 Q604.828 199.314 608.254 195.587 Q611.703 191.837 617.536 191.837 Q622.768 191.837 625.8 195.217 Q628.856 198.573 628.856 204.36 M624.597 203.11 Q624.55 199.615 622.629 197.531 Q620.731 195.448 617.583 195.448 Q614.018 195.448 611.865 197.462 Q609.735 199.476 609.411 203.133 L624.597 203.11 Z" fill="#000000" fill-rule="nonzero" fill-opacity="1" /><path clip-path="url(#clip150)" d="M635.846 182.369 L640.106 182.369 L640.106 218.388 L635.846 218.388 L635.846 182.369 Z" fill="#000000" fill-rule="nonzero" fill-opacity="1" /><path clip-path="url(#clip150)" d="M674.318 182.416 Q671.217 187.74 669.712 192.948 Q668.207 198.156 668.207 203.504 Q668.207 208.851 669.712 214.105 Q671.24 219.337 674.318 224.638 L670.615 224.638 Q667.143 219.198 665.406 213.943 Q663.694 208.689 663.694 203.504 Q663.694 198.342 665.406 193.11 Q667.119 187.879 670.615 182.416 L674.318 182.416 Z" fill="#000000" fill-rule="nonzero" fill-opacity="1" /><path clip-path="url(#clip150)" d="M693.763 199.244 Q690.615 199.244 688.763 201.397 Q686.934 203.55 686.934 207.3 Q686.934 211.027 688.763 213.203 Q690.615 215.355 693.763 215.355 Q696.911 215.355 698.74 213.203 Q700.591 211.027 700.591 207.3 Q700.591 203.55 698.74 201.397 Q696.911 199.244 693.763 199.244 M703.045 184.592 L703.045 188.851 Q701.286 188.018 699.48 187.578 Q697.698 187.138 695.939 187.138 Q691.309 187.138 688.855 190.263 Q686.425 193.388 686.078 199.707 Q687.443 197.693 689.504 196.629 Q691.564 195.541 694.041 195.541 Q699.249 195.541 702.258 198.712 Q705.291 201.86 705.291 207.3 Q705.291 212.624 702.142 215.842 Q698.994 219.059 693.763 219.059 Q687.767 219.059 684.596 214.476 Q681.425 209.869 681.425 201.143 Q681.425 192.948 685.314 188.087 Q689.203 183.203 695.754 183.203 Q697.513 183.203 699.295 183.55 Q701.101 183.897 703.045 184.592 Z" fill="#000000" fill-rule="nonzero" fill-opacity="1" /><path clip-path="url(#clip150)" d="M713.392 183.828 L731.749 183.828 L731.749 187.763 L717.675 187.763 L717.675 196.235 Q718.693 195.888 719.712 195.726 Q720.73 195.541 721.749 195.541 Q727.536 195.541 730.915 198.712 Q734.295 201.883 734.295 207.3 Q734.295 212.879 730.823 215.98 Q727.351 219.059 721.031 219.059 Q718.855 219.059 716.587 218.689 Q714.341 218.318 711.934 217.578 L711.934 212.879 Q714.017 214.013 716.24 214.568 Q718.462 215.124 720.939 215.124 Q724.943 215.124 727.281 213.017 Q729.619 210.911 729.619 207.3 Q729.619 203.689 727.281 201.582 Q724.943 199.476 720.939 199.476 Q719.064 199.476 717.189 199.893 Q715.337 200.309 713.392 201.189 L713.392 183.828 Z" fill="#000000" fill-rule="nonzero" fill-opacity="1" /><path clip-path="url(#clip150)" d="M743.508 212.508 L748.392 212.508 L748.392 218.388 L743.508 218.388 L743.508 212.508 Z" fill="#000000" fill-rule="nonzero" fill-opacity="1" /><path clip-path="url(#clip150)" d="M769.156 199.244 Q766.008 199.244 764.156 201.397 Q762.327 203.55 762.327 207.3 Q762.327 211.027 764.156 213.203 Q766.008 215.355 769.156 215.355 Q772.304 215.355 774.133 213.203 Q775.985 211.027 775.985 207.3 Q775.985 203.55 774.133 201.397 Q772.304 199.244 769.156 199.244 M778.438 184.592 L778.438 188.851 Q776.679 188.018 774.873 187.578 Q773.091 187.138 771.332 187.138 Q766.702 187.138 764.249 190.263 Q761.818 193.388 761.471 199.707 Q762.837 197.693 764.897 196.629 Q766.957 195.541 769.434 195.541 Q774.642 195.541 777.651 198.712 Q780.684 201.86 780.684 207.3 Q780.684 212.624 777.535 215.842 Q774.387 219.059 769.156 219.059 Q763.161 219.059 759.989 214.476 Q756.818 209.869 756.818 201.143 Q756.818 192.948 760.707 188.087 Q764.596 183.203 771.147 183.203 Q772.906 183.203 774.688 183.55 Q776.494 183.897 778.438 184.592 Z" fill="#000000" fill-rule="nonzero" fill-opacity="1" /><path clip-path="url(#clip150)" d="M787.559 183.828 L809.781 183.828 L809.781 185.819 L797.234 218.388 L792.35 218.388 L804.156 187.763 L787.559 187.763 L787.559 183.828 Z" fill="#000000" fill-rule="nonzero" fill-opacity="1" /><path clip-path="url(#clip150)" d="M819.04 217.67 L819.04 213.411 Q820.799 214.244 822.605 214.684 Q824.41 215.124 826.146 215.124 Q830.776 215.124 833.206 212.022 Q835.66 208.897 836.007 202.555 Q834.665 204.545 832.605 205.61 Q830.544 206.675 828.044 206.675 Q822.859 206.675 819.827 203.55 Q816.818 200.402 816.818 194.962 Q816.818 189.638 819.966 186.42 Q823.114 183.203 828.345 183.203 Q834.341 183.203 837.489 187.809 Q840.66 192.393 840.66 201.143 Q840.66 209.314 836.771 214.198 Q832.906 219.059 826.355 219.059 Q824.595 219.059 822.79 218.712 Q820.984 218.365 819.04 217.67 M828.345 203.018 Q831.494 203.018 833.322 200.865 Q835.174 198.712 835.174 194.962 Q835.174 191.235 833.322 189.082 Q831.494 186.907 828.345 186.907 Q825.197 186.907 823.345 189.082 Q821.517 191.235 821.517 194.962 Q821.517 198.712 823.345 200.865 Q825.197 203.018 828.345 203.018 Z" fill="#000000" fill-rule="nonzero" fill-opacity="1" /><path clip-path="url(#clip150)" d="M880.868 188.666 L880.868 201.559 L893.762 201.559 L893.762 205.494 L880.868 205.494 L880.868 218.388 L876.979 218.388 L876.979 205.494 L864.086 205.494 L864.086 201.559 L876.979 201.559 L876.979 188.666 L880.868 188.666 Z" fill="#000000" fill-rule="nonzero" fill-opacity="1" /><path clip-path="url(#clip150)" d="M913.854 186.907 Q910.243 186.907 908.414 190.471 Q906.609 194.013 906.609 201.143 Q906.609 208.249 908.414 211.814 Q910.243 215.355 913.854 215.355 Q917.488 215.355 919.294 211.814 Q921.123 208.249 921.123 201.143 Q921.123 194.013 919.294 190.471 Q917.488 186.907 913.854 186.907 M913.854 183.203 Q919.664 183.203 922.72 187.809 Q925.799 192.393 925.799 201.143 Q925.799 209.869 922.72 214.476 Q919.664 219.059 913.854 219.059 Q908.044 219.059 904.965 214.476 Q901.91 209.869 901.91 201.143 Q901.91 192.393 904.965 187.809 Q908.044 183.203 913.854 183.203 Z" fill="#000000" fill-rule="nonzero" fill-opacity="1" /><path clip-path="url(#clip150)" d="M934.016 212.508 L938.9 212.508 L938.9 218.388 L934.016 218.388 L934.016 212.508 Z" fill="#000000" fill-rule="nonzero" fill-opacity="1" /><path clip-path="url(#clip150)" d="M953.113 214.453 L969.433 214.453 L969.433 218.388 L947.488 218.388 L947.488 214.453 Q950.15 211.698 954.734 207.068 Q959.34 202.416 960.521 201.073 Q962.766 198.55 963.646 196.814 Q964.548 195.055 964.548 193.365 Q964.548 190.61 962.604 188.874 Q960.683 187.138 957.581 187.138 Q955.382 187.138 952.928 187.902 Q950.498 188.666 947.72 190.217 L947.72 185.494 Q950.544 184.36 952.998 183.782 Q955.451 183.203 957.488 183.203 Q962.859 183.203 966.053 185.888 Q969.247 188.573 969.247 193.064 Q969.247 195.194 968.437 197.115 Q967.65 199.013 965.544 201.606 Q964.965 202.277 961.863 205.494 Q958.761 208.689 953.113 214.453 Z" fill="#000000" fill-rule="nonzero" fill-opacity="1" /><path clip-path="url(#clip150)" d="M993.414 199.754 Q996.77 200.471 998.645 202.74 Q1000.54 205.008 1000.54 208.342 Q1000.54 213.457 997.025 216.258 Q993.507 219.059 987.025 219.059 Q984.849 219.059 982.534 218.619 Q980.243 218.203 977.789 217.346 L977.789 212.832 Q979.733 213.967 982.048 214.545 Q984.363 215.124 986.886 215.124 Q991.284 215.124 993.576 213.388 Q995.891 211.652 995.891 208.342 Q995.891 205.286 993.738 203.573 Q991.608 201.837 987.789 201.837 L983.761 201.837 L983.761 197.994 L987.974 197.994 Q991.423 197.994 993.252 196.629 Q995.081 195.24 995.081 192.647 Q995.081 189.985 993.182 188.573 Q991.307 187.138 987.789 187.138 Q985.868 187.138 983.669 187.555 Q981.47 187.971 978.831 188.851 L978.831 184.684 Q981.493 183.944 983.808 183.573 Q986.145 183.203 988.206 183.203 Q993.53 183.203 996.632 185.633 Q999.733 188.041 999.733 192.161 Q999.733 195.031 998.09 197.022 Q996.446 198.99 993.414 199.754 Z" fill="#000000" fill-rule="nonzero" fill-opacity="1" /><path clip-path="url(#clip150)" d="M1019.99 199.244 Q1016.84 199.244 1014.99 201.397 Q1013.16 203.55 1013.16 207.3 Q1013.16 211.027 1014.99 213.203 Q1016.84 215.355 1019.99 215.355 Q1023.14 215.355 1024.96 213.203 Q1026.82 211.027 1026.82 207.3 Q1026.82 203.55 1024.96 201.397 Q1023.14 199.244 1019.99 199.244 M1029.27 184.592 L1029.27 188.851 Q1027.51 188.018 1025.71 187.578 Q1023.92 187.138 1022.16 187.138 Q1017.53 187.138 1015.08 190.263 Q1012.65 193.388 1012.3 199.707 Q1013.67 197.693 1015.73 196.629 Q1017.79 195.541 1020.27 195.541 Q1025.47 195.541 1028.48 198.712 Q1031.52 201.86 1031.52 207.3 Q1031.52 212.624 1028.37 215.842 Q1025.22 219.059 1019.99 219.059 Q1013.99 219.059 1010.82 214.476 Q1007.65 209.869 1007.65 201.143 Q1007.65 192.948 1011.54 188.087 Q1015.43 183.203 1021.98 183.203 Q1023.74 183.203 1025.52 183.55 Q1027.33 183.897 1029.27 184.592 Z" fill="#000000" fill-rule="nonzero" fill-opacity="1" /><path clip-path="url(#clip150)" d="M1046.54 183.828 L1050.47 183.828 L1038.44 222.786 L1034.5 222.786 L1046.54 183.828 Z" fill="#000000" fill-rule="nonzero" fill-opacity="1" /><path clip-path="url(#clip150)" d="M1052.79 203.504 L1065.27 203.504 L1065.27 207.3 L1052.79 207.3 L1052.79 203.504 Z" fill="#000000" fill-rule="nonzero" fill-opacity="1" /><path clip-path="url(#clip150)" d="M1082.65 186.907 Q1079.04 186.907 1077.21 190.471 Q1075.4 194.013 1075.4 201.143 Q1075.4 208.249 1077.21 211.814 Q1079.04 215.355 1082.65 215.355 Q1086.28 215.355 1088.09 211.814 Q1089.92 208.249 1089.92 201.143 Q1089.92 194.013 1088.09 190.471 Q1086.28 186.907 1082.65 186.907 M1082.65 183.203 Q1088.46 183.203 1091.52 187.809 Q1094.59 192.393 1094.59 201.143 Q1094.59 209.869 1091.52 214.476 Q1088.46 219.059 1082.65 219.059 Q1076.84 219.059 1073.76 214.476 Q1070.71 209.869 1070.71 201.143 Q1070.71 192.393 1073.76 187.809 Q1076.84 183.203 1082.65 183.203 Z" fill="#000000" fill-rule="nonzero" fill-opacity="1" /><path clip-path="url(#clip150)" d="M1102.81 212.508 L1107.7 212.508 L1107.7 218.388 L1102.81 218.388 L1102.81 212.508 Z" fill="#000000" fill-rule="nonzero" fill-opacity="1" /><path clip-path="url(#clip150)" d="M1132.05 199.754 Q1135.4 200.471 1137.28 202.74 Q1139.18 205.008 1139.18 208.342 Q1139.18 213.457 1135.66 216.258 Q1132.14 219.059 1125.66 219.059 Q1123.48 219.059 1121.17 218.619 Q1118.88 218.203 1116.42 217.346 L1116.42 212.832 Q1118.37 213.967 1120.68 214.545 Q1123 215.124 1125.52 215.124 Q1129.92 215.124 1132.21 213.388 Q1134.52 211.652 1134.52 208.342 Q1134.52 205.286 1132.37 203.573 Q1130.24 201.837 1126.42 201.837 L1122.39 201.837 L1122.39 197.994 L1126.61 197.994 Q1130.06 197.994 1131.89 196.629 Q1133.71 195.24 1133.71 192.647 Q1133.71 189.985 1131.82 188.573 Q1129.94 187.138 1126.42 187.138 Q1124.5 187.138 1122.3 187.555 Q1120.1 187.971 1117.46 188.851 L1117.46 184.684 Q1120.13 183.944 1122.44 183.573 Q1124.78 183.203 1126.84 183.203 Q1132.16 183.203 1135.27 185.633 Q1138.37 188.041 1138.37 192.161 Q1138.37 195.031 1136.72 197.022 Q1135.08 198.99 1132.05 199.754 Z" fill="#000000" fill-rule="nonzero" fill-opacity="1" /><path clip-path="url(#clip150)" d="M1158.62 199.244 Q1155.47 199.244 1153.62 201.397 Q1151.79 203.55 1151.79 207.3 Q1151.79 211.027 1153.62 213.203 Q1155.47 215.355 1158.62 215.355 Q1161.77 215.355 1163.6 213.203 Q1165.45 211.027 1165.45 207.3 Q1165.45 203.55 1163.6 201.397 Q1161.77 199.244 1158.62 199.244 M1167.9 184.592 L1167.9 188.851 Q1166.14 188.018 1164.34 187.578 Q1162.56 187.138 1160.8 187.138 Q1156.17 187.138 1153.71 190.263 Q1151.28 193.388 1150.94 199.707 Q1152.3 197.693 1154.36 196.629 Q1156.42 195.541 1158.9 195.541 Q1164.11 195.541 1167.12 198.712 Q1170.15 201.86 1170.15 207.3 Q1170.15 212.624 1167 215.842 Q1163.85 219.059 1158.62 219.059 Q1152.63 219.059 1149.45 214.476 Q1146.28 209.869 1146.28 201.143 Q1146.28 192.948 1150.17 188.087 Q1154.06 183.203 1160.61 183.203 Q1162.37 183.203 1164.15 183.55 Q1165.96 183.897 1167.9 184.592 Z" fill="#000000" fill-rule="nonzero" fill-opacity="1" /><path clip-path="url(#clip150)" d="M1188.78 199.244 Q1185.64 199.244 1183.78 201.397 Q1181.95 203.55 1181.95 207.3 Q1181.95 211.027 1183.78 213.203 Q1185.64 215.355 1188.78 215.355 Q1191.93 215.355 1193.76 213.203 Q1195.61 211.027 1195.61 207.3 Q1195.61 203.55 1193.76 201.397 Q1191.93 199.244 1188.78 199.244 M1198.07 184.592 L1198.07 188.851 Q1196.31 188.018 1194.5 187.578 Q1192.72 187.138 1190.96 187.138 Q1186.33 187.138 1183.88 190.263 Q1181.45 193.388 1181.1 199.707 Q1182.46 197.693 1184.52 196.629 Q1186.58 195.541 1189.06 195.541 Q1194.27 195.541 1197.28 198.712 Q1200.31 201.86 1200.31 207.3 Q1200.31 212.624 1197.16 215.842 Q1194.01 219.059 1188.78 219.059 Q1182.79 219.059 1179.62 214.476 Q1176.45 209.869 1176.45 201.143 Q1176.45 192.948 1180.33 188.087 Q1184.22 183.203 1190.77 183.203 Q1192.53 183.203 1194.32 183.55 Q1196.12 183.897 1198.07 184.592 Z" fill="#000000" fill-rule="nonzero" fill-opacity="1" /><path clip-path="url(#clip150)" d="M1223.02 183.828 L1229.99 183.828 L1238.81 207.346 L1247.67 183.828 L1254.64 183.828 L1254.64 218.388 L1250.08 218.388 L1250.08 188.041 L1241.17 211.744 L1236.47 211.744 L1227.56 188.041 L1227.56 218.388 L1223.02 218.388 L1223.02 183.828 Z" fill="#000000" fill-rule="nonzero" fill-opacity="1" /><path clip-path="url(#clip150)" d="M1275.52 205.355 Q1270.36 205.355 1268.37 206.536 Q1266.38 207.717 1266.38 210.564 Q1266.38 212.832 1267.86 214.175 Q1269.36 215.494 1271.93 215.494 Q1275.47 215.494 1277.6 212.994 Q1279.76 210.471 1279.76 206.305 L1279.76 205.355 L1275.52 205.355 M1284.01 203.596 L1284.01 218.388 L1279.76 218.388 L1279.76 214.453 Q1278.3 216.814 1276.12 217.948 Q1273.94 219.059 1270.8 219.059 Q1266.82 219.059 1264.45 216.837 Q1262.12 214.592 1262.12 210.842 Q1262.12 206.467 1265.03 204.244 Q1267.97 202.022 1273.78 202.022 L1279.76 202.022 L1279.76 201.606 Q1279.76 198.666 1277.81 197.068 Q1275.89 195.448 1272.39 195.448 Q1270.17 195.448 1268.07 195.981 Q1265.96 196.513 1264.01 197.578 L1264.01 193.643 Q1266.35 192.74 1268.55 192.3 Q1270.75 191.837 1272.83 191.837 Q1278.46 191.837 1281.24 194.754 Q1284.01 197.67 1284.01 203.596 Z" fill="#000000" fill-rule="nonzero" fill-opacity="1" /><path clip-path="url(#clip150)" d="M1292.12 182.416 L1295.82 182.416 Q1299.29 187.879 1301 193.11 Q1302.74 198.342 1302.74 203.504 Q1302.74 208.689 1301 213.943 Q1299.29 219.198 1295.82 224.638 L1292.12 224.638 Q1295.19 219.337 1296.7 214.105 Q1298.23 208.851 1298.23 203.504 Q1298.23 198.156 1296.7 192.948 Q1295.19 187.74 1292.12 182.416 Z" fill="#000000" fill-rule="nonzero" fill-opacity="1" /></svg>
