<?xml version="1.0" encoding="utf-8"?>
<svg xmlns="http://www.w3.org/2000/svg" xmlns:xlink="http://www.w3.org/1999/xlink" width="600" height="400" viewBox="0 0 2400 1600">
<defs>
  <clipPath id="clip290">
    <rect x="0" y="0" width="2400" height="1600"/>
  </clipPath>
</defs>
<path clip-path="url(#clip290)" d="M0 1600 L2400 1600 L2400 8.88178e-14 L0 8.88178e-14  Z" fill="#ffffff" fill-rule="evenodd" fill-opacity="1"/>
<defs>
  <clipPath id="clip291">
    <rect x="249" y="47" width="2104" height="1507"/>
  </clipPath>
</defs>
<path clip-path="url(#clip290)" d="M249.843 1552.76 L2352.76 1552.76 L2352.76 47.2441 L249.843 47.2441  Z" fill="#ffffff" fill-rule="evenodd" fill-opacity="1"/>
<polyline clip-path="url(#clip291)" style="stroke:#000000; stroke-linecap:round; stroke-linejoin:round; stroke-width:2; stroke-opacity:0.1; fill:none" points="249.843,1478.36 2352.76,1478.36 "/>
<polyline clip-path="url(#clip291)" style="stroke:#000000; stroke-linecap:round; stroke-linejoin:round; stroke-width:2; stroke-opacity:0.1; fill:none" points="249.843,1154.35 2352.76,1154.35 "/>
<polyline clip-path="url(#clip291)" style="stroke:#000000; stroke-linecap:round; stroke-linejoin:round; stroke-width:2; stroke-opacity:0.1; fill:none" points="249.843,830.342 2352.76,830.342 "/>
<polyline clip-path="url(#clip291)" style="stroke:#000000; stroke-linecap:round; stroke-linejoin:round; stroke-width:2; stroke-opacity:0.1; fill:none" points="249.843,506.334 2352.76,506.334 "/>
<polyline clip-path="url(#clip291)" style="stroke:#000000; stroke-linecap:round; stroke-linejoin:round; stroke-width:2; stroke-opacity:0.1; fill:none" points="249.843,182.326 2352.76,182.326 "/>
<polyline clip-path="url(#clip291)" style="stroke:#000000; stroke-linecap:round; stroke-linejoin:round; stroke-width:2; stroke-opacity:0.1; fill:none" points="249.843,1478.36 2352.76,1478.36 "/>
<polyline clip-path="url(#clip291)" style="stroke:#000000; stroke-linecap:round; stroke-linejoin:round; stroke-width:2; stroke-opacity:0.1; fill:none" points="249.843,1154.35 2352.76,1154.35 "/>
<polyline clip-path="url(#clip291)" style="stroke:#000000; stroke-linecap:round; stroke-linejoin:round; stroke-width:2; stroke-opacity:0.1; fill:none" points="249.843,830.342 2352.76,830.342 "/>
<polyline clip-path="url(#clip291)" style="stroke:#000000; stroke-linecap:round; stroke-linejoin:round; stroke-width:2; stroke-opacity:0.1; fill:none" points="249.843,506.334 2352.76,506.334 "/>
<polyline clip-path="url(#clip291)" style="stroke:#000000; stroke-linecap:round; stroke-linejoin:round; stroke-width:2; stroke-opacity:0.1; fill:none" points="249.843,182.326 2352.76,182.326 "/>
<polyline clip-path="url(#clip290)" style="stroke:#000000; stroke-linecap:round; stroke-linejoin:round; stroke-width:4; stroke-opacity:1; fill:none" points="249.843,1552.76 2352.76,1552.76 "/>
<polyline clip-path="url(#clip290)" style="stroke:#000000; stroke-linecap:round; stroke-linejoin:round; stroke-width:4; stroke-opacity:1; fill:none" points="249.843,47.2441 2352.76,47.2441 "/>
<polyline clip-path="url(#clip290)" style="stroke:#000000; stroke-linecap:round; stroke-linejoin:round; stroke-width:4; stroke-opacity:1; fill:none" points="249.843,1552.76 249.843,47.2441 "/>
<polyline clip-path="url(#clip290)" style="stroke:#000000; stroke-linecap:round; stroke-linejoin:round; stroke-width:4; stroke-opacity:1; fill:none" points="2352.76,1552.76 2352.76,47.2441 "/>
<polyline clip-path="url(#clip290)" style="stroke:#000000; stroke-linecap:round; stroke-linejoin:round; stroke-width:4; stroke-opacity:1; fill:none" points="249.843,1478.36 268.741,1478.36 "/>
<polyline clip-path="url(#clip290)" style="stroke:#000000; stroke-linecap:round; stroke-linejoin:round; stroke-width:4; stroke-opacity:1; fill:none" points="249.843,1154.35 268.741,1154.35 "/>
<polyline clip-path="url(#clip290)" style="stroke:#000000; stroke-linecap:round; stroke-linejoin:round; stroke-width:4; stroke-opacity:1; fill:none" points="249.843,830.342 268.741,830.342 "/>
<polyline clip-path="url(#clip290)" style="stroke:#000000; stroke-linecap:round; stroke-linejoin:round; stroke-width:4; stroke-opacity:1; fill:none" points="249.843,506.334 268.741,506.334 "/>
<polyline clip-path="url(#clip290)" style="stroke:#000000; stroke-linecap:round; stroke-linejoin:round; stroke-width:4; stroke-opacity:1; fill:none" points="249.843,182.326 268.741,182.326 "/>
<polyline clip-path="url(#clip290)" style="stroke:#000000; stroke-linecap:round; stroke-linejoin:round; stroke-width:4; stroke-opacity:1; fill:none" points="2352.76,1478.36 2333.86,1478.36 "/>
<polyline clip-path="url(#clip290)" style="stroke:#000000; stroke-linecap:round; stroke-linejoin:round; stroke-width:4; stroke-opacity:1; fill:none" points="2352.76,1154.35 2333.86,1154.35 "/>
<polyline clip-path="url(#clip290)" style="stroke:#000000; stroke-linecap:round; stroke-linejoin:round; stroke-width:4; stroke-opacity:1; fill:none" points="2352.76,830.342 2333.86,830.342 "/>
<polyline clip-path="url(#clip290)" style="stroke:#000000; stroke-linecap:round; stroke-linejoin:round; stroke-width:4; stroke-opacity:1; fill:none" points="2352.76,506.334 2333.86,506.334 "/>
<polyline clip-path="url(#clip290)" style="stroke:#000000; stroke-linecap:round; stroke-linejoin:round; stroke-width:4; stroke-opacity:1; fill:none" points="2352.76,182.326 2333.86,182.326 "/>
<path clip-path="url(#clip290)" d="M126.598 1476.49 Q123.45 1476.49 121.598 1478.65 Q119.769 1480.8 119.769 1484.55 Q119.769 1488.28 121.598 1490.45 Q123.45 1492.61 126.598 1492.61 Q129.746 1492.61 131.575 1490.45 Q133.427 1488.28 133.427 1484.55 Q133.427 1480.8 131.575 1478.65 Q129.746 1476.49 126.598 1476.49 M135.88 1461.84 L135.88 1466.1 Q134.121 1465.27 132.316 1464.83 Q130.533 1464.39 128.774 1464.39 Q124.144 1464.39 121.691 1467.51 Q119.26 1470.64 118.913 1476.96 Q120.279 1474.94 122.339 1473.88 Q124.399 1472.79 126.876 1472.79 Q132.084 1472.79 135.093 1475.96 Q138.126 1479.11 138.126 1484.55 Q138.126 1489.87 134.978 1493.09 Q131.83 1496.31 126.598 1496.31 Q120.603 1496.31 117.431 1491.73 Q114.26 1487.12 114.26 1478.39 Q114.26 1470.2 118.149 1465.34 Q122.038 1460.45 128.589 1460.45 Q130.348 1460.45 132.13 1460.8 Q133.936 1461.15 135.88 1461.84 Z" fill="#000000" fill-rule="nonzero" fill-opacity="1" /><path clip-path="url(#clip290)" d="M146.228 1461.08 L164.584 1461.08 L164.584 1465.01 L150.51 1465.01 L150.51 1473.49 Q151.528 1473.14 152.547 1472.98 Q153.566 1472.79 154.584 1472.79 Q160.371 1472.79 163.751 1475.96 Q167.13 1479.13 167.13 1484.55 Q167.13 1490.13 163.658 1493.23 Q160.186 1496.31 153.866 1496.31 Q151.691 1496.31 149.422 1495.94 Q147.177 1495.57 144.769 1494.83 L144.769 1490.13 Q146.853 1491.26 149.075 1491.82 Q151.297 1492.37 153.774 1492.37 Q157.778 1492.37 160.116 1490.27 Q162.454 1488.16 162.454 1484.55 Q162.454 1480.94 160.116 1478.83 Q157.778 1476.73 153.774 1476.73 Q151.899 1476.73 150.024 1477.14 Q148.172 1477.56 146.228 1478.44 L146.228 1461.08 Z" fill="#000000" fill-rule="nonzero" fill-opacity="1" /><path clip-path="url(#clip290)" d="M176.343 1489.76 L181.227 1489.76 L181.227 1495.64 L176.343 1495.64 L176.343 1489.76 Z" fill="#000000" fill-rule="nonzero" fill-opacity="1" /><path clip-path="url(#clip290)" d="M204.26 1465.15 L192.454 1483.6 L204.26 1483.6 L204.26 1465.15 M203.033 1461.08 L208.912 1461.08 L208.912 1483.6 L213.843 1483.6 L213.843 1487.49 L208.912 1487.49 L208.912 1495.64 L204.26 1495.64 L204.26 1487.49 L188.658 1487.49 L188.658 1482.98 L203.033 1461.08 Z" fill="#000000" fill-rule="nonzero" fill-opacity="1" /><path clip-path="url(#clip290)" d="M126.922 1152.49 Q123.774 1152.49 121.922 1154.64 Q120.093 1156.79 120.093 1160.54 Q120.093 1164.27 121.922 1166.44 Q123.774 1168.6 126.922 1168.6 Q130.07 1168.6 131.899 1166.44 Q133.751 1164.27 133.751 1160.54 Q133.751 1156.79 131.899 1154.64 Q130.07 1152.49 126.922 1152.49 M136.204 1137.83 L136.204 1142.09 Q134.445 1141.26 132.64 1140.82 Q130.857 1140.38 129.098 1140.38 Q124.468 1140.38 122.015 1143.5 Q119.584 1146.63 119.237 1152.95 Q120.603 1150.94 122.663 1149.87 Q124.723 1148.78 127.2 1148.78 Q132.408 1148.78 135.417 1151.95 Q138.45 1155.1 138.45 1160.54 Q138.45 1165.87 135.302 1169.08 Q132.154 1172.3 126.922 1172.3 Q120.927 1172.3 117.756 1167.72 Q114.584 1163.11 114.584 1154.38 Q114.584 1146.19 118.473 1141.33 Q122.362 1136.44 128.913 1136.44 Q130.672 1136.44 132.455 1136.79 Q134.26 1137.14 136.204 1137.83 Z" fill="#000000" fill-rule="nonzero" fill-opacity="1" /><path clip-path="url(#clip290)" d="M146.552 1137.07 L164.908 1137.07 L164.908 1141 L150.834 1141 L150.834 1149.48 Q151.853 1149.13 152.871 1148.97 Q153.89 1148.78 154.908 1148.78 Q160.695 1148.78 164.075 1151.95 Q167.454 1155.13 167.454 1160.54 Q167.454 1166.12 163.982 1169.22 Q160.51 1172.3 154.19 1172.3 Q152.015 1172.3 149.746 1171.93 Q147.501 1171.56 145.093 1170.82 L145.093 1166.12 Q147.177 1167.25 149.399 1167.81 Q151.621 1168.37 154.098 1168.37 Q158.103 1168.37 160.44 1166.26 Q162.778 1164.15 162.778 1160.54 Q162.778 1156.93 160.44 1154.82 Q158.103 1152.72 154.098 1152.72 Q152.223 1152.72 150.348 1153.13 Q148.496 1153.55 146.552 1154.43 L146.552 1137.07 Z" fill="#000000" fill-rule="nonzero" fill-opacity="1" /><path clip-path="url(#clip290)" d="M176.667 1165.75 L181.551 1165.75 L181.551 1171.63 L176.667 1171.63 L176.667 1165.75 Z" fill="#000000" fill-rule="nonzero" fill-opacity="1" /><path clip-path="url(#clip290)" d="M202.315 1152.49 Q199.167 1152.49 197.315 1154.64 Q195.487 1156.79 195.487 1160.54 Q195.487 1164.27 197.315 1166.44 Q199.167 1168.6 202.315 1168.6 Q205.463 1168.6 207.292 1166.44 Q209.144 1164.27 209.144 1160.54 Q209.144 1156.79 207.292 1154.64 Q205.463 1152.49 202.315 1152.49 M211.598 1137.83 L211.598 1142.09 Q209.838 1141.26 208.033 1140.82 Q206.25 1140.38 204.491 1140.38 Q199.862 1140.38 197.408 1143.5 Q194.977 1146.63 194.63 1152.95 Q195.996 1150.94 198.056 1149.87 Q200.116 1148.78 202.593 1148.78 Q207.801 1148.78 210.811 1151.95 Q213.843 1155.1 213.843 1160.54 Q213.843 1165.87 210.695 1169.08 Q207.547 1172.3 202.315 1172.3 Q196.32 1172.3 193.149 1167.72 Q189.977 1163.11 189.977 1154.38 Q189.977 1146.19 193.866 1141.33 Q197.755 1136.44 204.306 1136.44 Q206.065 1136.44 207.848 1136.79 Q209.653 1137.14 211.598 1137.83 Z" fill="#000000" fill-rule="nonzero" fill-opacity="1" /><path clip-path="url(#clip290)" d="M127.177 828.478 Q124.029 828.478 122.177 830.631 Q120.348 832.784 120.348 836.534 Q120.348 840.261 122.177 842.437 Q124.029 844.589 127.177 844.589 Q130.325 844.589 132.154 842.437 Q134.005 840.261 134.005 836.534 Q134.005 832.784 132.154 830.631 Q130.325 828.478 127.177 828.478 M136.459 813.826 L136.459 818.085 Q134.7 817.252 132.894 816.812 Q131.112 816.372 129.353 816.372 Q124.723 816.372 122.269 819.497 Q119.839 822.622 119.492 828.941 Q120.857 826.927 122.918 825.863 Q124.978 824.775 127.455 824.775 Q132.663 824.775 135.672 827.946 Q138.704 831.094 138.704 836.534 Q138.704 841.858 135.556 845.076 Q132.408 848.293 127.177 848.293 Q121.181 848.293 118.01 843.71 Q114.839 839.103 114.839 830.377 Q114.839 822.182 118.728 817.321 Q122.617 812.437 129.167 812.437 Q130.927 812.437 132.709 812.784 Q134.515 813.131 136.459 813.826 Z" fill="#000000" fill-rule="nonzero" fill-opacity="1" /><path clip-path="url(#clip290)" d="M146.806 813.062 L165.163 813.062 L165.163 816.997 L151.089 816.997 L151.089 825.469 Q152.107 825.122 153.126 824.96 Q154.144 824.775 155.163 824.775 Q160.95 824.775 164.329 827.946 Q167.709 831.117 167.709 836.534 Q167.709 842.113 164.237 845.214 Q160.765 848.293 154.445 848.293 Q152.269 848.293 150.001 847.923 Q147.755 847.552 145.348 846.812 L145.348 842.113 Q147.431 843.247 149.653 843.802 Q151.876 844.358 154.353 844.358 Q158.357 844.358 160.695 842.251 Q163.033 840.145 163.033 836.534 Q163.033 832.923 160.695 830.816 Q158.357 828.71 154.353 828.71 Q152.478 828.71 150.603 829.127 Q148.751 829.543 146.806 830.423 L146.806 813.062 Z" fill="#000000" fill-rule="nonzero" fill-opacity="1" /><path clip-path="url(#clip290)" d="M176.922 841.742 L181.806 841.742 L181.806 847.622 L176.922 847.622 L176.922 841.742 Z" fill="#000000" fill-rule="nonzero" fill-opacity="1" /><path clip-path="url(#clip290)" d="M201.991 831.21 Q198.658 831.21 196.737 832.992 Q194.838 834.775 194.838 837.9 Q194.838 841.025 196.737 842.807 Q198.658 844.589 201.991 844.589 Q205.324 844.589 207.246 842.807 Q209.167 841.001 209.167 837.9 Q209.167 834.775 207.246 832.992 Q205.348 831.21 201.991 831.21 M197.315 829.219 Q194.306 828.478 192.616 826.418 Q190.95 824.358 190.95 821.395 Q190.95 817.252 193.889 814.844 Q196.852 812.437 201.991 812.437 Q207.153 812.437 210.093 814.844 Q213.033 817.252 213.033 821.395 Q213.033 824.358 211.343 826.418 Q209.676 828.478 206.69 829.219 Q210.07 830.006 211.945 832.298 Q213.843 834.589 213.843 837.9 Q213.843 842.923 210.764 845.608 Q207.709 848.293 201.991 848.293 Q196.274 848.293 193.195 845.608 Q190.139 842.923 190.139 837.9 Q190.139 834.589 192.038 832.298 Q193.936 830.006 197.315 829.219 M195.602 821.835 Q195.602 824.52 197.269 826.025 Q198.959 827.529 201.991 827.529 Q205 827.529 206.69 826.025 Q208.403 824.52 208.403 821.835 Q208.403 819.15 206.69 817.645 Q205 816.14 201.991 816.14 Q198.959 816.14 197.269 817.645 Q195.602 819.15 195.602 821.835 Z" fill="#000000" fill-rule="nonzero" fill-opacity="1" /><path clip-path="url(#clip290)" d="M127.084 504.47 Q123.936 504.47 122.084 506.623 Q120.255 508.776 120.255 512.526 Q120.255 516.253 122.084 518.429 Q123.936 520.581 127.084 520.581 Q130.232 520.581 132.061 518.429 Q133.913 516.253 133.913 512.526 Q133.913 508.776 132.061 506.623 Q130.232 504.47 127.084 504.47 M136.367 489.818 L136.367 494.077 Q134.607 493.244 132.802 492.804 Q131.019 492.364 129.26 492.364 Q124.63 492.364 122.177 495.489 Q119.746 498.614 119.399 504.933 Q120.765 502.919 122.825 501.855 Q124.885 500.767 127.362 500.767 Q132.57 500.767 135.579 503.938 Q138.612 507.086 138.612 512.526 Q138.612 517.85 135.464 521.067 Q132.316 524.285 127.084 524.285 Q121.089 524.285 117.918 519.702 Q114.746 515.095 114.746 506.368 Q114.746 498.174 118.635 493.313 Q122.524 488.429 129.075 488.429 Q130.834 488.429 132.617 488.776 Q134.422 489.123 136.367 489.818 Z" fill="#000000" fill-rule="nonzero" fill-opacity="1" /><path clip-path="url(#clip290)" d="M157.246 504.47 Q154.098 504.47 152.246 506.623 Q150.417 508.776 150.417 512.526 Q150.417 516.253 152.246 518.429 Q154.098 520.581 157.246 520.581 Q160.394 520.581 162.223 518.429 Q164.075 516.253 164.075 512.526 Q164.075 508.776 162.223 506.623 Q160.394 504.47 157.246 504.47 M166.528 489.818 L166.528 494.077 Q164.769 493.244 162.964 492.804 Q161.181 492.364 159.422 492.364 Q154.792 492.364 152.339 495.489 Q149.908 498.614 149.561 504.933 Q150.927 502.919 152.987 501.855 Q155.047 500.767 157.524 500.767 Q162.732 500.767 165.741 503.938 Q168.774 507.086 168.774 512.526 Q168.774 517.85 165.626 521.067 Q162.477 524.285 157.246 524.285 Q151.251 524.285 148.079 519.702 Q144.908 515.095 144.908 506.368 Q144.908 498.174 148.797 493.313 Q152.686 488.429 159.237 488.429 Q160.996 488.429 162.778 488.776 Q164.584 489.123 166.528 489.818 Z" fill="#000000" fill-rule="nonzero" fill-opacity="1" /><path clip-path="url(#clip290)" d="M176.829 517.734 L181.713 517.734 L181.713 523.614 L176.829 523.614 L176.829 517.734 Z" fill="#000000" fill-rule="nonzero" fill-opacity="1" /><path clip-path="url(#clip290)" d="M201.899 492.132 Q198.287 492.132 196.459 495.697 Q194.653 499.239 194.653 506.368 Q194.653 513.475 196.459 517.04 Q198.287 520.581 201.899 520.581 Q205.533 520.581 207.338 517.04 Q209.167 513.475 209.167 506.368 Q209.167 499.239 207.338 495.697 Q205.533 492.132 201.899 492.132 M201.899 488.429 Q207.709 488.429 210.764 493.035 Q213.843 497.619 213.843 506.368 Q213.843 515.095 210.764 519.702 Q207.709 524.285 201.899 524.285 Q196.088 524.285 193.01 519.702 Q189.954 515.095 189.954 506.368 Q189.954 497.619 193.01 493.035 Q196.088 488.429 201.899 488.429 Z" fill="#000000" fill-rule="nonzero" fill-opacity="1" /><path clip-path="url(#clip290)" d="M128.681 180.462 Q125.533 180.462 123.681 182.615 Q121.853 184.768 121.853 188.518 Q121.853 192.245 123.681 194.421 Q125.533 196.573 128.681 196.573 Q131.83 196.573 133.658 194.421 Q135.51 192.245 135.51 188.518 Q135.51 184.768 133.658 182.615 Q131.83 180.462 128.681 180.462 M137.964 165.81 L137.964 170.069 Q136.204 169.236 134.399 168.796 Q132.617 168.356 130.857 168.356 Q126.228 168.356 123.774 171.481 Q121.343 174.606 120.996 180.925 Q122.362 178.911 124.422 177.847 Q126.482 176.759 128.959 176.759 Q134.167 176.759 137.177 179.93 Q140.209 183.078 140.209 188.518 Q140.209 193.842 137.061 197.059 Q133.913 200.277 128.681 200.277 Q122.686 200.277 119.515 195.694 Q116.343 191.087 116.343 182.36 Q116.343 174.166 120.232 169.305 Q124.121 164.421 130.672 164.421 Q132.431 164.421 134.214 164.768 Q136.019 165.115 137.964 165.81 Z" fill="#000000" fill-rule="nonzero" fill-opacity="1" /><path clip-path="url(#clip290)" d="M158.843 180.462 Q155.695 180.462 153.843 182.615 Q152.015 184.768 152.015 188.518 Q152.015 192.245 153.843 194.421 Q155.695 196.573 158.843 196.573 Q161.991 196.573 163.82 194.421 Q165.672 192.245 165.672 188.518 Q165.672 184.768 163.82 182.615 Q161.991 180.462 158.843 180.462 M168.126 165.81 L168.126 170.069 Q166.366 169.236 164.561 168.796 Q162.778 168.356 161.019 168.356 Q156.39 168.356 153.936 171.481 Q151.505 174.606 151.158 180.925 Q152.524 178.911 154.584 177.847 Q156.644 176.759 159.121 176.759 Q164.329 176.759 167.339 179.93 Q170.371 183.078 170.371 188.518 Q170.371 193.842 167.223 197.059 Q164.075 200.277 158.843 200.277 Q152.848 200.277 149.677 195.694 Q146.505 191.087 146.505 182.36 Q146.505 174.166 150.394 169.305 Q154.283 164.421 160.834 164.421 Q162.593 164.421 164.376 164.768 Q166.181 165.115 168.126 165.81 Z" fill="#000000" fill-rule="nonzero" fill-opacity="1" /><path clip-path="url(#clip290)" d="M178.426 193.726 L183.311 193.726 L183.311 199.606 L178.426 199.606 L178.426 193.726 Z" fill="#000000" fill-rule="nonzero" fill-opacity="1" /><path clip-path="url(#clip290)" d="M197.524 195.671 L213.843 195.671 L213.843 199.606 L191.899 199.606 L191.899 195.671 Q194.561 192.916 199.144 188.286 Q203.75 183.634 204.931 182.291 Q207.176 179.768 208.056 178.032 Q208.959 176.273 208.959 174.583 Q208.959 171.828 207.014 170.092 Q205.093 168.356 201.991 168.356 Q199.792 168.356 197.338 169.12 Q194.908 169.884 192.13 171.435 L192.13 166.712 Q194.954 165.578 197.408 164.999 Q199.862 164.421 201.899 164.421 Q207.269 164.421 210.463 167.106 Q213.658 169.791 213.658 174.282 Q213.658 176.411 212.848 178.333 Q212.061 180.231 209.954 182.823 Q209.375 183.495 206.274 186.712 Q203.172 189.907 197.524 195.671 Z" fill="#000000" fill-rule="nonzero" fill-opacity="1" /><path clip-path="url(#clip290)" d="M22.818 922.094 L46.4666 930.815 L46.4666 913.341 L22.818 922.094 M16.4842 925.723 L16.4842 918.434 L64.0042 900.324 L64.0042 907.008 L51.8138 911.336 L51.8138 932.757 L64.0042 937.085 L64.0042 943.865 L16.4842 925.723 Z" fill="#000000" fill-rule="nonzero" fill-opacity="1" /><path clip-path="url(#clip290)" d="M45.7664 870.182 Q39.4007 870.182 35.8996 872.824 Q32.3984 875.434 32.3984 880.176 Q32.3984 884.887 35.8996 887.528 Q39.4007 890.138 45.7664 890.138 Q52.1003 890.138 55.6014 887.528 Q59.1026 884.887 59.1026 880.176 Q59.1026 875.434 55.6014 872.824 Q52.1003 870.182 45.7664 870.182 M59.58 864.325 Q68.683 864.325 73.1071 868.368 Q77.5631 872.41 77.5631 880.749 Q77.5631 883.836 77.0857 886.574 Q76.6401 889.311 75.6852 891.889 L69.9879 891.889 Q71.3884 889.311 72.0568 886.796 Q72.7252 884.282 72.7252 881.672 Q72.7252 875.911 69.7015 873.046 Q66.7096 870.182 60.6303 870.182 L57.7339 870.182 Q60.885 871.996 62.4446 874.829 Q64.0042 877.662 64.0042 881.608 Q64.0042 888.165 59.0071 892.175 Q54.01 896.186 45.7664 896.186 Q37.491 896.186 32.4939 892.175 Q27.4968 888.165 27.4968 881.608 Q27.4968 877.662 29.0564 874.829 Q30.616 871.996 33.7671 870.182 L28.3562 870.182 L28.3562 864.325 L59.58 864.325 Z" fill="#000000" fill-rule="nonzero" fill-opacity="1" /><path clip-path="url(#clip290)" d="M44.7161 821.771 L47.5806 821.771 L47.5806 848.698 Q53.6281 848.316 56.8109 845.069 Q59.9619 841.791 59.9619 835.966 Q59.9619 832.592 59.1344 829.441 Q58.3069 826.259 56.6518 823.139 L62.1899 823.139 Q63.5267 826.29 64.227 829.601 Q64.9272 832.911 64.9272 836.316 Q64.9272 844.846 59.9619 849.843 Q54.9967 854.809 46.5303 854.809 Q37.7774 854.809 32.6531 850.098 Q27.4968 845.356 27.4968 837.335 Q27.4968 830.142 32.1438 825.972 Q36.7589 821.771 44.7161 821.771 M42.9973 827.627 Q38.1912 827.691 35.3266 830.333 Q32.4621 832.943 32.4621 837.271 Q32.4621 842.173 35.2312 845.133 Q38.0002 848.061 43.0292 848.507 L42.9973 827.627 Z" fill="#000000" fill-rule="nonzero" fill-opacity="1" /><path clip-path="url(#clip290)" d="M14.5426 777.37 Q21.8632 781.635 29.0246 783.704 Q36.186 785.773 43.5384 785.773 Q50.8908 785.773 58.1159 783.704 Q65.3091 781.603 72.5979 777.37 L72.5979 782.462 Q65.1182 787.237 57.8931 789.624 Q50.668 791.979 43.5384 791.979 Q36.4406 791.979 29.2474 789.624 Q22.0542 787.269 14.5426 782.462 L14.5426 777.37 Z" fill="#000000" fill-rule="nonzero" fill-opacity="1" /><path clip-path="url(#clip290)" d="M16.4842 765.752 L16.4842 756.172 L48.8219 744.045 L16.4842 731.855 L16.4842 722.275 L64.0042 722.275 L64.0042 728.545 L22.277 728.545 L54.8694 740.799 L54.8694 747.26 L22.277 759.514 L64.0042 759.514 L64.0042 765.752 L16.4842 765.752 Z" fill="#000000" fill-rule="nonzero" fill-opacity="1" /><path clip-path="url(#clip290)" d="M46.0847 693.565 Q46.0847 700.663 47.7079 703.4 Q49.3312 706.138 53.2461 706.138 Q56.3653 706.138 58.2114 704.101 Q60.0256 702.032 60.0256 698.499 Q60.0256 693.629 56.5881 690.701 Q53.1188 687.741 47.3897 687.741 L46.0847 687.741 L46.0847 693.565 M43.6657 681.884 L64.0042 681.884 L64.0042 687.741 L58.5933 687.741 Q61.8398 689.746 63.3994 692.738 Q64.9272 695.73 64.9272 700.058 Q64.9272 705.533 61.8716 708.779 Q58.7843 711.994 53.6281 711.994 Q47.6125 711.994 44.5569 707.984 Q41.5014 703.941 41.5014 695.953 L41.5014 687.741 L40.9285 687.741 Q36.8862 687.741 34.6901 690.414 Q32.4621 693.056 32.4621 697.862 Q32.4621 700.918 33.1941 703.814 Q33.9262 706.711 35.3903 709.384 L29.9795 709.384 Q28.7381 706.169 28.1334 703.146 Q27.4968 700.122 27.4968 697.257 Q27.4968 689.523 31.5072 685.704 Q35.5176 681.884 43.6657 681.884 Z" fill="#000000" fill-rule="nonzero" fill-opacity="1" /><path clip-path="url(#clip290)" d="M14.5426 670.744 L14.5426 665.652 Q22.0542 660.877 29.2474 658.522 Q36.4406 656.135 43.5384 656.135 Q50.668 656.135 57.8931 658.522 Q65.1182 660.877 72.5979 665.652 L72.5979 670.744 Q65.3091 666.511 58.1159 664.442 Q50.8908 662.342 43.5384 662.342 Q36.186 662.342 29.0246 664.442 Q21.8632 666.511 14.5426 670.744 Z" fill="#000000" fill-rule="nonzero" fill-opacity="1" /><polyline clip-path="url(#clip291)" style="stroke:#009af9; stroke-linecap:round; stroke-linejoin:round; stroke-width:4; stroke-opacity:1; fill:none" points="309.359,1510.15 309.359,473.221 "/>
<polyline clip-path="url(#clip291)" style="stroke:#009af9; stroke-linecap:round; stroke-linejoin:round; stroke-width:4; stroke-opacity:1; fill:none" points="1301.3,614.62 1301.3,429.839 "/>
<polyline clip-path="url(#clip291)" style="stroke:#009af9; stroke-linecap:round; stroke-linejoin:round; stroke-width:4; stroke-opacity:1; fill:none" points="2293.24,414.486 2293.24,89.8529 "/>
<line clip-path="url(#clip291)" x1="325.359" y1="1510.15" x2="293.359" y2="1510.15" style="stroke:#009af9; stroke-width:4; stroke-opacity:1"/>
<line clip-path="url(#clip291)" x1="325.359" y1="473.221" x2="293.359" y2="473.221" style="stroke:#009af9; stroke-width:4; stroke-opacity:1"/>
<line clip-path="url(#clip291)" x1="1317.3" y1="614.62" x2="1285.3" y2="614.62" style="stroke:#009af9; stroke-width:4; stroke-opacity:1"/>
<line clip-path="url(#clip291)" x1="1317.3" y1="429.839" x2="1285.3" y2="429.839" style="stroke:#009af9; stroke-width:4; stroke-opacity:1"/>
<line clip-path="url(#clip291)" x1="2309.24" y1="414.486" x2="2277.24" y2="414.486" style="stroke:#009af9; stroke-width:4; stroke-opacity:1"/>
<line clip-path="url(#clip291)" x1="2309.24" y1="89.8529" x2="2277.24" y2="89.8529" style="stroke:#009af9; stroke-width:4; stroke-opacity:1"/>
<circle clip-path="url(#clip291)" cx="309.359" cy="991.684" r="14.4" fill="#009af9" fill-rule="evenodd" fill-opacity="1" stroke="none"/>
<circle clip-path="url(#clip291)" cx="1301.3" cy="522.23" r="14.4" fill="#009af9" fill-rule="evenodd" fill-opacity="1" stroke="none"/>
<circle clip-path="url(#clip291)" cx="2293.24" cy="252.17" r="14.4" fill="#009af9" fill-rule="evenodd" fill-opacity="1" stroke="none"/>
<path clip-path="url(#clip291)" d="M309.359 1398.49 L1301.3 1398.49 L2293.24 1398.49 L2293.24 488.28 L1301.3 488.28 L309.359 488.28  Z" fill="#e26f46" fill-rule="evenodd" fill-opacity="0.6"/>
<polyline clip-path="url(#clip291)" style="stroke:#e26f46; stroke-linecap:round; stroke-linejoin:round; stroke-width:4; stroke-opacity:0; fill:none" points="309.359,1398.49 1301.3,1398.49 2293.24,1398.49 "/>
<polyline clip-path="url(#clip291)" style="stroke:#000000; stroke-linecap:round; stroke-linejoin:round; stroke-width:4; stroke-opacity:1; fill:none" stroke-dasharray="2, 4" points="309.359,836.999 1301.3,836.999 2293.24,836.999 "/>
<path clip-path="url(#clip290)" d="M319.94 252.948 L1326.11 252.948 L1326.11 97.4278 L319.94 97.4278  Z" fill="#ffffff" fill-rule="evenodd" fill-opacity="1"/>
<polyline clip-path="url(#clip290)" style="stroke:#ffffff; stroke-linecap:round; stroke-linejoin:round; stroke-width:4; stroke-opacity:1; fill:none" points="319.94,252.948 1326.11,252.948 1326.11,97.4278 319.94,97.4278 319.94,252.948 "/>
<circle clip-path="url(#clip290)" cx="413.403" cy="149.268" r="20.48" fill="#009af9" fill-rule="evenodd" fill-opacity="1" stroke="none"/>
<path clip-path="url(#clip290)" d="M511.542 135.83 L511.542 162.705 L517.19 162.705 Q524.342 162.705 527.653 159.465 Q530.986 156.224 530.986 149.233 Q530.986 142.289 527.653 139.071 Q524.342 135.83 517.19 135.83 L511.542 135.83 M506.866 131.988 L516.472 131.988 Q526.518 131.988 531.217 136.178 Q535.916 140.344 535.916 149.233 Q535.916 158.168 531.194 162.358 Q526.472 166.548 516.472 166.548 L506.866 166.548 L506.866 131.988 Z" fill="#000000" fill-rule="nonzero" fill-opacity="1" /><path clip-path="url(#clip290)" d="M554.967 153.515 Q549.805 153.515 547.815 154.696 Q545.824 155.877 545.824 158.724 Q545.824 160.992 547.305 162.335 Q548.81 163.654 551.379 163.654 Q554.921 163.654 557.051 161.154 Q559.203 158.631 559.203 154.465 L559.203 153.515 L554.967 153.515 M563.463 151.756 L563.463 166.548 L559.203 166.548 L559.203 162.613 Q557.745 164.974 555.569 166.108 Q553.393 167.219 550.245 167.219 Q546.264 167.219 543.902 164.997 Q541.565 162.752 541.565 159.002 Q541.565 154.627 544.481 152.404 Q547.421 150.182 553.231 150.182 L559.203 150.182 L559.203 149.766 Q559.203 146.826 557.259 145.228 Q555.338 143.608 551.842 143.608 Q549.62 143.608 547.514 144.141 Q545.407 144.673 543.463 145.738 L543.463 141.803 Q545.801 140.9 548 140.46 Q550.199 139.997 552.282 139.997 Q557.907 139.997 560.685 142.914 Q563.463 145.83 563.463 151.756 Z" fill="#000000" fill-rule="nonzero" fill-opacity="1" /><path clip-path="url(#clip290)" d="M576.449 133.261 L576.449 140.622 L585.222 140.622 L585.222 143.932 L576.449 143.932 L576.449 158.006 Q576.449 161.177 577.305 162.08 Q578.185 162.983 580.847 162.983 L585.222 162.983 L585.222 166.548 L580.847 166.548 Q575.916 166.548 574.041 164.719 Q572.166 162.867 572.166 158.006 L572.166 143.932 L569.041 143.932 L569.041 140.622 L572.166 140.622 L572.166 133.261 L576.449 133.261 Z" fill="#000000" fill-rule="nonzero" fill-opacity="1" /><path clip-path="url(#clip290)" d="M602.606 153.515 Q597.444 153.515 595.453 154.696 Q593.462 155.877 593.462 158.724 Q593.462 160.992 594.944 162.335 Q596.449 163.654 599.018 163.654 Q602.56 163.654 604.689 161.154 Q606.842 158.631 606.842 154.465 L606.842 153.515 L602.606 153.515 M611.101 151.756 L611.101 166.548 L606.842 166.548 L606.842 162.613 Q605.384 164.974 603.208 166.108 Q601.032 167.219 597.884 167.219 Q593.902 167.219 591.541 164.997 Q589.203 162.752 589.203 159.002 Q589.203 154.627 592.12 152.404 Q595.06 150.182 600.87 150.182 L606.842 150.182 L606.842 149.766 Q606.842 146.826 604.898 145.228 Q602.976 143.608 599.481 143.608 Q597.259 143.608 595.152 144.141 Q593.046 144.673 591.101 145.738 L591.101 141.803 Q593.439 140.9 595.638 140.46 Q597.837 139.997 599.921 139.997 Q605.546 139.997 608.323 142.914 Q611.101 145.83 611.101 151.756 Z" fill="#000000" fill-rule="nonzero" fill-opacity="1" /><path clip-path="url(#clip290)" d="M645.175 130.576 Q642.073 135.9 640.569 141.108 Q639.064 146.316 639.064 151.664 Q639.064 157.011 640.569 162.265 Q642.096 167.497 645.175 172.798 L641.471 172.798 Q637.999 167.358 636.263 162.103 Q634.55 156.849 634.55 151.664 Q634.55 146.502 636.263 141.27 Q637.976 136.039 641.471 130.576 L645.175 130.576 Z" fill="#000000" fill-rule="nonzero" fill-opacity="1" /><path clip-path="url(#clip290)" d="M663.485 143.608 Q660.059 143.608 658.069 146.293 Q656.078 148.955 656.078 153.608 Q656.078 158.261 658.045 160.946 Q660.036 163.608 663.485 163.608 Q666.888 163.608 668.879 160.923 Q670.869 158.238 670.869 153.608 Q670.869 149.002 668.879 146.316 Q666.888 143.608 663.485 143.608 M663.485 139.997 Q669.041 139.997 672.212 143.608 Q675.383 147.219 675.383 153.608 Q675.383 159.974 672.212 163.608 Q669.041 167.219 663.485 167.219 Q657.907 167.219 654.735 163.608 Q651.587 159.974 651.587 153.608 Q651.587 147.219 654.735 143.608 Q657.907 139.997 663.485 139.997 Z" fill="#000000" fill-rule="nonzero" fill-opacity="1" /><path clip-path="url(#clip290)" d="M701.054 153.608 Q701.054 148.909 699.11 146.247 Q697.189 143.562 693.809 143.562 Q690.429 143.562 688.485 146.247 Q686.564 148.909 686.564 153.608 Q686.564 158.307 688.485 160.992 Q690.429 163.654 693.809 163.654 Q697.189 163.654 699.11 160.992 Q701.054 158.307 701.054 153.608 M686.564 144.557 Q687.906 142.242 689.943 141.131 Q692.004 139.997 694.851 139.997 Q699.573 139.997 702.513 143.747 Q705.476 147.497 705.476 153.608 Q705.476 159.719 702.513 163.469 Q699.573 167.219 694.851 167.219 Q692.004 167.219 689.943 166.108 Q687.906 164.974 686.564 162.659 L686.564 166.548 L682.281 166.548 L682.281 130.529 L686.564 130.529 L686.564 144.557 Z" fill="#000000" fill-rule="nonzero" fill-opacity="1" /><path clip-path="url(#clip290)" d="M729.064 141.386 L729.064 145.414 Q727.258 144.488 725.314 144.025 Q723.369 143.562 721.286 143.562 Q718.115 143.562 716.517 144.534 Q714.943 145.506 714.943 147.451 Q714.943 148.932 716.077 149.789 Q717.212 150.622 720.638 151.386 L722.096 151.71 Q726.633 152.682 728.531 154.465 Q730.452 156.224 730.452 159.395 Q730.452 163.006 727.582 165.113 Q724.735 167.219 719.735 167.219 Q717.652 167.219 715.383 166.802 Q713.138 166.409 710.638 165.599 L710.638 161.201 Q712.999 162.427 715.29 163.052 Q717.582 163.654 719.827 163.654 Q722.837 163.654 724.457 162.636 Q726.077 161.594 726.077 159.719 Q726.077 157.983 724.897 157.057 Q723.739 156.131 719.781 155.275 L718.3 154.928 Q714.341 154.094 712.582 152.381 Q710.823 150.645 710.823 147.636 Q710.823 143.978 713.415 141.988 Q716.008 139.997 720.777 139.997 Q723.138 139.997 725.221 140.344 Q727.304 140.691 729.064 141.386 Z" fill="#000000" fill-rule="nonzero" fill-opacity="1" /><path clip-path="url(#clip290)" d="M759.411 152.52 L759.411 154.603 L739.827 154.603 Q740.105 159.002 742.466 161.316 Q744.85 163.608 749.087 163.608 Q751.54 163.608 753.832 163.006 Q756.147 162.404 758.415 161.201 L758.415 165.228 Q756.124 166.201 753.716 166.71 Q751.309 167.219 748.832 167.219 Q742.628 167.219 738.994 163.608 Q735.383 159.997 735.383 153.84 Q735.383 147.474 738.809 143.747 Q742.258 139.997 748.091 139.997 Q753.323 139.997 756.355 143.377 Q759.411 146.733 759.411 152.52 M755.151 151.27 Q755.105 147.775 753.184 145.691 Q751.286 143.608 748.138 143.608 Q744.573 143.608 742.42 145.622 Q740.29 147.636 739.966 151.293 L755.151 151.27 Z" fill="#000000" fill-rule="nonzero" fill-opacity="1" /><path clip-path="url(#clip290)" d="M781.424 144.603 Q780.707 144.187 779.85 144.002 Q779.017 143.793 777.998 143.793 Q774.387 143.793 772.443 146.154 Q770.522 148.492 770.522 152.89 L770.522 166.548 L766.239 166.548 L766.239 140.622 L770.522 140.622 L770.522 144.65 Q771.864 142.289 774.017 141.154 Q776.17 139.997 779.248 139.997 Q779.688 139.997 780.221 140.066 Q780.753 140.113 781.401 140.229 L781.424 144.603 Z" fill="#000000" fill-rule="nonzero" fill-opacity="1" /><path clip-path="url(#clip290)" d="M782.836 140.622 L787.35 140.622 L795.452 162.381 L803.554 140.622 L808.068 140.622 L798.346 166.548 L792.559 166.548 L782.836 140.622 Z" fill="#000000" fill-rule="nonzero" fill-opacity="1" /><path clip-path="url(#clip290)" d="M836.123 152.52 L836.123 154.603 L816.54 154.603 Q816.818 159.002 819.179 161.316 Q821.563 163.608 825.799 163.608 Q828.253 163.608 830.544 163.006 Q832.859 162.404 835.128 161.201 L835.128 165.228 Q832.836 166.201 830.429 166.71 Q828.021 167.219 825.544 167.219 Q819.341 167.219 815.707 163.608 Q812.095 159.997 812.095 153.84 Q812.095 147.474 815.521 143.747 Q818.97 139.997 824.804 139.997 Q830.035 139.997 833.068 143.377 Q836.123 146.733 836.123 152.52 M831.864 151.27 Q831.818 147.775 829.896 145.691 Q827.998 143.608 824.85 143.608 Q821.285 143.608 819.132 145.622 Q817.003 147.636 816.679 151.293 L831.864 151.27 Z" fill="#000000" fill-rule="nonzero" fill-opacity="1" /><path clip-path="url(#clip290)" d="M860.174 144.557 L860.174 130.529 L864.433 130.529 L864.433 166.548 L860.174 166.548 L860.174 162.659 Q858.831 164.974 856.771 166.108 Q854.734 167.219 851.864 167.219 Q847.165 167.219 844.202 163.469 Q841.262 159.719 841.262 153.608 Q841.262 147.497 844.202 143.747 Q847.165 139.997 851.864 139.997 Q854.734 139.997 856.771 141.131 Q858.831 142.242 860.174 144.557 M845.66 153.608 Q845.66 158.307 847.581 160.992 Q849.526 163.654 852.905 163.654 Q856.285 163.654 858.23 160.992 Q860.174 158.307 860.174 153.608 Q860.174 148.909 858.23 146.247 Q856.285 143.562 852.905 143.562 Q849.526 143.562 847.581 146.247 Q845.66 148.909 845.66 153.608 Z" fill="#000000" fill-rule="nonzero" fill-opacity="1" /><path clip-path="url(#clip290)" d="M900.058 153.515 Q894.896 153.515 892.905 154.696 Q890.915 155.877 890.915 158.724 Q890.915 160.992 892.396 162.335 Q893.901 163.654 896.47 163.654 Q900.012 163.654 902.141 161.154 Q904.294 158.631 904.294 154.465 L904.294 153.515 L900.058 153.515 M908.553 151.756 L908.553 166.548 L904.294 166.548 L904.294 162.613 Q902.836 164.974 900.66 166.108 Q898.484 167.219 895.336 167.219 Q891.354 167.219 888.993 164.997 Q886.655 162.752 886.655 159.002 Q886.655 154.627 889.572 152.404 Q892.512 150.182 898.322 150.182 L904.294 150.182 L904.294 149.766 Q904.294 146.826 902.35 145.228 Q900.428 143.608 896.933 143.608 Q894.711 143.608 892.604 144.141 Q890.498 144.673 888.553 145.738 L888.553 141.803 Q890.891 140.9 893.09 140.46 Q895.289 139.997 897.373 139.997 Q902.998 139.997 905.776 142.914 Q908.553 145.83 908.553 151.756 Z" fill="#000000" fill-rule="nonzero" fill-opacity="1" /><path clip-path="url(#clip290)" d="M934.387 153.284 Q934.387 148.654 932.465 146.108 Q930.567 143.562 927.118 143.562 Q923.692 143.562 921.771 146.108 Q919.873 148.654 919.873 153.284 Q919.873 157.89 921.771 160.437 Q923.692 162.983 927.118 162.983 Q930.567 162.983 932.465 160.437 Q934.387 157.89 934.387 153.284 M938.646 163.33 Q938.646 169.951 935.706 173.168 Q932.766 176.409 926.701 176.409 Q924.456 176.409 922.465 176.062 Q920.475 175.738 918.6 175.043 L918.6 170.9 Q920.475 171.918 922.303 172.404 Q924.132 172.89 926.03 172.89 Q930.22 172.89 932.303 170.691 Q934.387 168.515 934.387 164.094 L934.387 161.988 Q933.067 164.279 931.007 165.414 Q928.947 166.548 926.076 166.548 Q921.308 166.548 918.391 162.914 Q915.475 159.279 915.475 153.284 Q915.475 147.266 918.391 143.631 Q921.308 139.997 926.076 139.997 Q928.947 139.997 931.007 141.131 Q933.067 142.266 934.387 144.557 L934.387 140.622 L938.646 140.622 L938.646 163.33 Z" fill="#000000" fill-rule="nonzero" fill-opacity="1" /><path clip-path="url(#clip290)" d="M969.595 152.52 L969.595 154.603 L950.011 154.603 Q950.289 159.002 952.65 161.316 Q955.035 163.608 959.271 163.608 Q961.724 163.608 964.016 163.006 Q966.331 162.404 968.599 161.201 L968.599 165.228 Q966.308 166.201 963.9 166.71 Q961.493 167.219 959.016 167.219 Q952.812 167.219 949.178 163.608 Q945.567 159.997 945.567 153.84 Q945.567 147.474 948.993 143.747 Q952.442 139.997 958.275 139.997 Q963.507 139.997 966.539 143.377 Q969.595 146.733 969.595 152.52 M965.335 151.27 Q965.289 147.775 963.368 145.691 Q961.47 143.608 958.322 143.608 Q954.757 143.608 952.604 145.622 Q950.474 147.636 950.15 151.293 L965.335 151.27 Z" fill="#000000" fill-rule="nonzero" fill-opacity="1" /><path clip-path="url(#clip290)" d="M993.113 141.386 L993.113 145.414 Q991.307 144.488 989.363 144.025 Q987.419 143.562 985.335 143.562 Q982.164 143.562 980.567 144.534 Q978.993 145.506 978.993 147.451 Q978.993 148.932 980.127 149.789 Q981.261 150.622 984.687 151.386 L986.145 151.71 Q990.683 152.682 992.581 154.465 Q994.502 156.224 994.502 159.395 Q994.502 163.006 991.632 165.113 Q988.784 167.219 983.784 167.219 Q981.701 167.219 979.433 166.802 Q977.187 166.409 974.687 165.599 L974.687 161.201 Q977.048 162.427 979.34 163.052 Q981.632 163.654 983.877 163.654 Q986.886 163.654 988.507 162.636 Q990.127 161.594 990.127 159.719 Q990.127 157.983 988.946 157.057 Q987.789 156.131 983.831 155.275 L982.349 154.928 Q978.391 154.094 976.632 152.381 Q974.872 150.645 974.872 147.636 Q974.872 143.978 977.465 141.988 Q980.058 139.997 984.826 139.997 Q987.187 139.997 989.27 140.344 Q991.354 140.691 993.113 141.386 Z" fill="#000000" fill-rule="nonzero" fill-opacity="1" /><path clip-path="url(#clip290)" d="M1000.61 130.576 L1004.32 130.576 Q1007.79 136.039 1009.5 141.27 Q1011.24 146.502 1011.24 151.664 Q1011.24 156.849 1009.5 162.103 Q1007.79 167.358 1004.32 172.798 L1000.61 172.798 Q1003.69 167.497 1005.2 162.265 Q1006.72 157.011 1006.72 151.664 Q1006.72 146.316 1005.2 141.108 Q1003.69 135.9 1000.61 130.576 Z" fill="#000000" fill-rule="nonzero" fill-opacity="1" /><path clip-path="url(#clip290)" d="M343.306 221.844 L483.5 221.844 L483.5 180.372 L343.306 180.372 L343.306 221.844  Z" fill="#e26f46" fill-rule="evenodd" fill-opacity="0.6"/>
<polyline clip-path="url(#clip290)" style="stroke:#e26f46; stroke-linecap:round; stroke-linejoin:round; stroke-width:4; stroke-opacity:0; fill:none" points="343.306,180.372 483.5,180.372 "/>
<path clip-path="url(#clip290)" d="M506.866 183.828 L513.833 183.828 L522.653 207.346 L531.518 183.828 L538.486 183.828 L538.486 218.388 L533.926 218.388 L533.926 188.041 L525.014 211.744 L520.315 211.744 L511.403 188.041 L511.403 218.388 L506.866 218.388 L506.866 183.828 Z" fill="#000000" fill-rule="nonzero" fill-opacity="1" /><path clip-path="url(#clip290)" d="M557.629 195.448 Q554.203 195.448 552.213 198.133 Q550.222 200.795 550.222 205.448 Q550.222 210.101 552.189 212.786 Q554.18 215.448 557.629 215.448 Q561.032 215.448 563.023 212.763 Q565.013 210.078 565.013 205.448 Q565.013 200.842 563.023 198.156 Q561.032 195.448 557.629 195.448 M557.629 191.837 Q563.185 191.837 566.356 195.448 Q569.527 199.059 569.527 205.448 Q569.527 211.814 566.356 215.448 Q563.185 219.059 557.629 219.059 Q552.051 219.059 548.879 215.448 Q545.731 211.814 545.731 205.448 Q545.731 199.059 548.879 195.448 Q552.051 191.837 557.629 191.837 Z" fill="#000000" fill-rule="nonzero" fill-opacity="1" /><path clip-path="url(#clip290)" d="M593.648 196.397 L593.648 182.369 L597.907 182.369 L597.907 218.388 L593.648 218.388 L593.648 214.499 Q592.305 216.814 590.245 217.948 Q588.208 219.059 585.337 219.059 Q580.638 219.059 577.675 215.309 Q574.736 211.559 574.736 205.448 Q574.736 199.337 577.675 195.587 Q580.638 191.837 585.337 191.837 Q588.208 191.837 590.245 192.971 Q592.305 194.082 593.648 196.397 M579.134 205.448 Q579.134 210.147 581.055 212.832 Q583 215.494 586.379 215.494 Q589.759 215.494 591.703 212.832 Q593.648 210.147 593.648 205.448 Q593.648 200.749 591.703 198.087 Q589.759 195.402 586.379 195.402 Q583 195.402 581.055 198.087 Q579.134 200.749 579.134 205.448 Z" fill="#000000" fill-rule="nonzero" fill-opacity="1" /><path clip-path="url(#clip290)" d="M628.856 204.36 L628.856 206.443 L609.273 206.443 Q609.55 210.842 611.911 213.156 Q614.296 215.448 618.532 215.448 Q620.985 215.448 623.277 214.846 Q625.592 214.244 627.86 213.041 L627.86 217.068 Q625.569 218.041 623.161 218.55 Q620.754 219.059 618.277 219.059 Q612.073 219.059 608.439 215.448 Q604.828 211.837 604.828 205.68 Q604.828 199.314 608.254 195.587 Q611.703 191.837 617.536 191.837 Q622.768 191.837 625.8 195.217 Q628.856 198.573 628.856 204.36 M624.597 203.11 Q624.55 199.615 622.629 197.531 Q620.731 195.448 617.583 195.448 Q614.018 195.448 611.865 197.462 Q609.735 199.476 609.411 203.133 L624.597 203.11 Z" fill="#000000" fill-rule="nonzero" fill-opacity="1" /><path clip-path="url(#clip290)" d="M635.846 182.369 L640.106 182.369 L640.106 218.388 L635.846 218.388 L635.846 182.369 Z" fill="#000000" fill-rule="nonzero" fill-opacity="1" /><path clip-path="url(#clip290)" d="M674.318 182.416 Q671.217 187.74 669.712 192.948 Q668.207 198.156 668.207 203.504 Q668.207 208.851 669.712 214.105 Q671.24 219.337 674.318 224.638 L670.615 224.638 Q667.143 219.198 665.406 213.943 Q663.694 208.689 663.694 203.504 Q663.694 198.342 665.406 193.11 Q667.119 187.879 670.615 182.416 L674.318 182.416 Z" fill="#000000" fill-rule="nonzero" fill-opacity="1" /><path clip-path="url(#clip290)" d="M693.763 199.244 Q690.615 199.244 688.763 201.397 Q686.934 203.55 686.934 207.3 Q686.934 211.027 688.763 213.203 Q690.615 215.355 693.763 215.355 Q696.911 215.355 698.74 213.203 Q700.591 211.027 700.591 207.3 Q700.591 203.55 698.74 201.397 Q696.911 199.244 693.763 199.244 M703.045 184.592 L703.045 188.851 Q701.286 188.018 699.48 187.578 Q697.698 187.138 695.939 187.138 Q691.309 187.138 688.855 190.263 Q686.425 193.388 686.078 199.707 Q687.443 197.693 689.504 196.629 Q691.564 195.541 694.041 195.541 Q699.249 195.541 702.258 198.712 Q705.291 201.86 705.291 207.3 Q705.291 212.624 702.142 215.842 Q698.994 219.059 693.763 219.059 Q687.767 219.059 684.596 214.476 Q681.425 209.869 681.425 201.143 Q681.425 192.948 685.314 188.087 Q689.203 183.203 695.754 183.203 Q697.513 183.203 699.295 183.55 Q701.101 183.897 703.045 184.592 Z" fill="#000000" fill-rule="nonzero" fill-opacity="1" /><path clip-path="url(#clip290)" d="M713.392 183.828 L731.749 183.828 L731.749 187.763 L717.675 187.763 L717.675 196.235 Q718.693 195.888 719.712 195.726 Q720.73 195.541 721.749 195.541 Q727.536 195.541 730.915 198.712 Q734.295 201.883 734.295 207.3 Q734.295 212.879 730.823 215.98 Q727.351 219.059 721.031 219.059 Q718.855 219.059 716.587 218.689 Q714.341 218.318 711.934 217.578 L711.934 212.879 Q714.017 214.013 716.24 214.568 Q718.462 215.124 720.939 215.124 Q724.943 215.124 727.281 213.017 Q729.619 210.911 729.619 207.3 Q729.619 203.689 727.281 201.582 Q724.943 199.476 720.939 199.476 Q719.064 199.476 717.189 199.893 Q715.337 200.309 713.392 201.189 L713.392 183.828 Z" fill="#000000" fill-rule="nonzero" fill-opacity="1" /><path clip-path="url(#clip290)" d="M743.508 212.508 L748.392 212.508 L748.392 218.388 L743.508 218.388 L743.508 212.508 Z" fill="#000000" fill-rule="nonzero" fill-opacity="1" /><path clip-path="url(#clip290)" d="M757.397 183.828 L779.619 183.828 L779.619 185.819 L767.073 218.388 L762.188 218.388 L773.994 187.763 L757.397 187.763 L757.397 183.828 Z" fill="#000000" fill-rule="nonzero" fill-opacity="1" /><path clip-path="url(#clip290)" d="M788.878 217.67 L788.878 213.411 Q790.637 214.244 792.443 214.684 Q794.248 215.124 795.984 215.124 Q800.614 215.124 803.045 212.022 Q805.498 208.897 805.846 202.555 Q804.503 204.545 802.443 205.61 Q800.383 206.675 797.883 206.675 Q792.697 206.675 789.665 203.55 Q786.656 200.402 786.656 194.962 Q786.656 189.638 789.804 186.42 Q792.952 183.203 798.184 183.203 Q804.179 183.203 807.327 187.809 Q810.498 192.393 810.498 201.143 Q810.498 209.314 806.609 214.198 Q802.744 219.059 796.193 219.059 Q794.434 219.059 792.628 218.712 Q790.822 218.365 788.878 217.67 M798.184 203.018 Q801.332 203.018 803.16 200.865 Q805.012 198.712 805.012 194.962 Q805.012 191.235 803.16 189.082 Q801.332 186.907 798.184 186.907 Q795.035 186.907 793.184 189.082 Q791.355 191.235 791.355 194.962 Q791.355 198.712 793.184 200.865 Q795.035 203.018 798.184 203.018 Z" fill="#000000" fill-rule="nonzero" fill-opacity="1" /><path clip-path="url(#clip290)" d="M829.48 199.244 Q826.332 199.244 824.48 201.397 Q822.651 203.55 822.651 207.3 Q822.651 211.027 824.48 213.203 Q826.332 215.355 829.48 215.355 Q832.628 215.355 834.456 213.203 Q836.308 211.027 836.308 207.3 Q836.308 203.55 834.456 201.397 Q832.628 199.244 829.48 199.244 M838.762 184.592 L838.762 188.851 Q837.003 188.018 835.197 187.578 Q833.415 187.138 831.656 187.138 Q827.026 187.138 824.572 190.263 Q822.142 193.388 821.795 199.707 Q823.16 197.693 825.22 196.629 Q827.281 195.541 829.757 195.541 Q834.966 195.541 837.975 198.712 Q841.007 201.86 841.007 207.3 Q841.007 212.624 837.859 215.842 Q834.711 219.059 829.48 219.059 Q823.484 219.059 820.313 214.476 Q817.142 209.869 817.142 201.143 Q817.142 192.948 821.031 188.087 Q824.92 183.203 831.47 183.203 Q833.23 183.203 835.012 183.55 Q836.818 183.897 838.762 184.592 Z" fill="#000000" fill-rule="nonzero" fill-opacity="1" /><path clip-path="url(#clip290)" d="M880.868 188.666 L880.868 201.559 L893.762 201.559 L893.762 205.494 L880.868 205.494 L880.868 218.388 L876.979 218.388 L876.979 205.494 L864.086 205.494 L864.086 201.559 L876.979 201.559 L876.979 188.666 L880.868 188.666 Z" fill="#000000" fill-rule="nonzero" fill-opacity="1" /><path clip-path="url(#clip290)" d="M913.854 186.907 Q910.243 186.907 908.414 190.471 Q906.609 194.013 906.609 201.143 Q906.609 208.249 908.414 211.814 Q910.243 215.355 913.854 215.355 Q917.488 215.355 919.294 211.814 Q921.123 208.249 921.123 201.143 Q921.123 194.013 919.294 190.471 Q917.488 186.907 913.854 186.907 M913.854 183.203 Q919.664 183.203 922.72 187.809 Q925.799 192.393 925.799 201.143 Q925.799 209.869 922.72 214.476 Q919.664 219.059 913.854 219.059 Q908.044 219.059 904.965 214.476 Q901.91 209.869 901.91 201.143 Q901.91 192.393 904.965 187.809 Q908.044 183.203 913.854 183.203 Z" fill="#000000" fill-rule="nonzero" fill-opacity="1" /><path clip-path="url(#clip290)" d="M934.016 212.508 L938.9 212.508 L938.9 218.388 L934.016 218.388 L934.016 212.508 Z" fill="#000000" fill-rule="nonzero" fill-opacity="1" /><path clip-path="url(#clip290)" d="M953.113 214.453 L969.433 214.453 L969.433 218.388 L947.488 218.388 L947.488 214.453 Q950.15 211.698 954.734 207.068 Q959.34 202.416 960.521 201.073 Q962.766 198.55 963.646 196.814 Q964.548 195.055 964.548 193.365 Q964.548 190.61 962.604 188.874 Q960.683 187.138 957.581 187.138 Q955.382 187.138 952.928 187.902 Q950.498 188.666 947.72 190.217 L947.72 185.494 Q950.544 184.36 952.998 183.782 Q955.451 183.203 957.488 183.203 Q962.859 183.203 966.053 185.888 Q969.247 188.573 969.247 193.064 Q969.247 195.194 968.437 197.115 Q967.65 199.013 965.544 201.606 Q964.965 202.277 961.863 205.494 Q958.761 208.689 953.113 214.453 Z" fill="#000000" fill-rule="nonzero" fill-opacity="1" /><path clip-path="url(#clip290)" d="M980.058 214.453 L987.696 214.453 L987.696 188.087 L979.386 189.754 L979.386 185.494 L987.65 183.828 L992.326 183.828 L992.326 214.453 L999.965 214.453 L999.965 218.388 L980.058 218.388 L980.058 214.453 Z" fill="#000000" fill-rule="nonzero" fill-opacity="1" /><path clip-path="url(#clip290)" d="M1009.46 183.828 L1027.81 183.828 L1027.81 187.763 L1013.74 187.763 L1013.74 196.235 Q1014.76 195.888 1015.77 195.726 Q1016.79 195.541 1017.81 195.541 Q1023.6 195.541 1026.98 198.712 Q1030.36 201.883 1030.36 207.3 Q1030.36 212.879 1026.89 215.98 Q1023.41 219.059 1017.09 219.059 Q1014.92 219.059 1012.65 218.689 Q1010.4 218.318 1008 217.578 L1008 212.879 Q1010.08 214.013 1012.3 214.568 Q1014.52 215.124 1017 215.124 Q1021.01 215.124 1023.34 213.017 Q1025.68 210.911 1025.68 207.3 Q1025.68 203.689 1023.34 201.582 Q1021.01 199.476 1017 199.476 Q1015.13 199.476 1013.25 199.893 Q1011.4 200.309 1009.46 201.189 L1009.46 183.828 Z" fill="#000000" fill-rule="nonzero" fill-opacity="1" /><path clip-path="url(#clip290)" d="M1046.54 183.828 L1050.47 183.828 L1038.44 222.786 L1034.5 222.786 L1046.54 183.828 Z" fill="#000000" fill-rule="nonzero" fill-opacity="1" /><path clip-path="url(#clip290)" d="M1052.79 203.504 L1065.27 203.504 L1065.27 207.3 L1052.79 207.3 L1052.79 203.504 Z" fill="#000000" fill-rule="nonzero" fill-opacity="1" /><path clip-path="url(#clip290)" d="M1082.65 186.907 Q1079.04 186.907 1077.21 190.471 Q1075.4 194.013 1075.4 201.143 Q1075.4 208.249 1077.21 211.814 Q1079.04 215.355 1082.65 215.355 Q1086.28 215.355 1088.09 211.814 Q1089.92 208.249 1089.92 201.143 Q1089.92 194.013 1088.09 190.471 Q1086.28 186.907 1082.65 186.907 M1082.65 183.203 Q1088.46 183.203 1091.52 187.809 Q1094.59 192.393 1094.59 201.143 Q1094.59 209.869 1091.52 214.476 Q1088.46 219.059 1082.65 219.059 Q1076.84 219.059 1073.76 214.476 Q1070.71 209.869 1070.71 201.143 Q1070.71 192.393 1073.76 187.809 Q1076.84 183.203 1082.65 183.203 Z" fill="#000000" fill-rule="nonzero" fill-opacity="1" /><path clip-path="url(#clip290)" d="M1102.81 212.508 L1107.7 212.508 L1107.7 218.388 L1102.81 218.388 L1102.81 212.508 Z" fill="#000000" fill-rule="nonzero" fill-opacity="1" /><path clip-path="url(#clip290)" d="M1132.05 199.754 Q1135.4 200.471 1137.28 202.74 Q1139.18 205.008 1139.18 208.342 Q1139.18 213.457 1135.66 216.258 Q1132.14 219.059 1125.66 219.059 Q1123.48 219.059 1121.17 218.619 Q1118.88 218.203 1116.42 217.346 L1116.42 212.832 Q1118.37 213.967 1120.68 214.545 Q1123 215.124 1125.52 215.124 Q1129.92 215.124 1132.21 213.388 Q1134.52 211.652 1134.52 208.342 Q1134.52 205.286 1132.37 203.573 Q1130.24 201.837 1126.42 201.837 L1122.39 201.837 L1122.39 197.994 L1126.61 197.994 Q1130.06 197.994 1131.89 196.629 Q1133.71 195.24 1133.71 192.647 Q1133.71 189.985 1131.82 188.573 Q1129.94 187.138 1126.42 187.138 Q1124.5 187.138 1122.3 187.555 Q1120.1 187.971 1117.46 188.851 L1117.46 184.684 Q1120.13 183.944 1122.44 183.573 Q1124.78 183.203 1126.84 183.203 Q1132.16 183.203 1135.27 185.633 Q1138.37 188.041 1138.37 192.161 Q1138.37 195.031 1136.72 197.022 Q1135.08 198.99 1132.05 199.754 Z" fill="#000000" fill-rule="nonzero" fill-opacity="1" /><path clip-path="url(#clip290)" d="M1160.89 187.902 L1149.08 206.351 L1160.89 206.351 L1160.89 187.902 M1159.66 183.828 L1165.54 183.828 L1165.54 206.351 L1170.47 206.351 L1170.47 210.24 L1165.54 210.24 L1165.54 218.388 L1160.89 218.388 L1160.89 210.24 L1145.29 210.24 L1145.29 205.726 L1159.66 183.828 Z" fill="#000000" fill-rule="nonzero" fill-opacity="1" /><path clip-path="url(#clip290)" d="M1177.02 183.828 L1199.25 183.828 L1199.25 185.819 L1186.7 218.388 L1181.82 218.388 L1193.62 187.763 L1177.02 187.763 L1177.02 183.828 Z" fill="#000000" fill-rule="nonzero" fill-opacity="1" /><path clip-path="url(#clip290)" d="M1223.02 183.828 L1229.99 183.828 L1238.81 207.346 L1247.67 183.828 L1254.64 183.828 L1254.64 218.388 L1250.08 218.388 L1250.08 188.041 L1241.17 211.744 L1236.47 211.744 L1227.56 188.041 L1227.56 218.388 L1223.02 218.388 L1223.02 183.828 Z" fill="#000000" fill-rule="nonzero" fill-opacity="1" /><path clip-path="url(#clip290)" d="M1275.52 205.355 Q1270.36 205.355 1268.37 206.536 Q1266.38 207.717 1266.38 210.564 Q1266.38 212.832 1267.86 214.175 Q1269.36 215.494 1271.93 215.494 Q1275.47 215.494 1277.6 212.994 Q1279.76 210.471 1279.76 206.305 L1279.76 205.355 L1275.52 205.355 M1284.01 203.596 L1284.01 218.388 L1279.76 218.388 L1279.76 214.453 Q1278.3 216.814 1276.12 217.948 Q1273.94 219.059 1270.8 219.059 Q1266.82 219.059 1264.45 216.837 Q1262.12 214.592 1262.12 210.842 Q1262.12 206.467 1265.03 204.244 Q1267.97 202.022 1273.78 202.022 L1279.76 202.022 L1279.76 201.606 Q1279.76 198.666 1277.81 197.068 Q1275.89 195.448 1272.39 195.448 Q1270.17 195.448 1268.07 195.981 Q1265.96 196.513 1264.01 197.578 L1264.01 193.643 Q1266.35 192.74 1268.55 192.3 Q1270.75 191.837 1272.83 191.837 Q1278.46 191.837 1281.24 194.754 Q1284.01 197.67 1284.01 203.596 Z" fill="#000000" fill-rule="nonzero" fill-opacity="1" /><path clip-path="url(#clip290)" d="M1292.12 182.416 L1295.82 182.416 Q1299.29 187.879 1301 193.11 Q1302.74 198.342 1302.74 203.504 Q1302.74 208.689 1301 213.943 Q1299.29 219.198 1295.82 224.638 L1292.12 224.638 Q1295.19 219.337 1296.7 214.105 Q1298.23 208.851 1298.23 203.504 Q1298.23 198.156 1296.7 192.948 Q1295.19 187.74 1292.12 182.416 Z" fill="#000000" fill-rule="nonzero" fill-opacity="1" /></svg>
