<?xml version="1.0" encoding="utf-8"?>
<svg xmlns="http://www.w3.org/2000/svg" xmlns:xlink="http://www.w3.org/1999/xlink" width="600" height="400" viewBox="0 0 2400 1600">
<defs>
  <clipPath id="clip340">
    <rect x="0" y="0" width="2400" height="1600"/>
  </clipPath>
</defs>
<path clip-path="url(#clip340)" d="M0 1600 L2400 1600 L2400 8.88178e-14 L0 8.88178e-14  Z" fill="#ffffff" fill-rule="evenodd" fill-opacity="1"/>
<defs>
  <clipPath id="clip341">
    <rect x="249" y="47" width="2104" height="1507"/>
  </clipPath>
</defs>
<path clip-path="url(#clip340)" d="M247.459 1423.18 L2352.76 1423.18 L2352.76 47.2441 L247.459 47.2441  Z" fill="#ffffff" fill-rule="evenodd" fill-opacity="1"/>
<defs>
  <clipPath id="clip342">
    <rect x="247" y="47" width="2106" height="1377"/>
  </clipPath>
</defs>
<polyline clip-path="url(#clip342)" style="stroke:#000000; stroke-linecap:round; stroke-linejoin:round; stroke-width:2; stroke-opacity:0.1; fill:none" points="571.051,1423.18 571.051,47.2441 "/>
<polyline clip-path="url(#clip342)" style="stroke:#000000; stroke-linecap:round; stroke-linejoin:round; stroke-width:2; stroke-opacity:0.1; fill:none" points="910.221,1423.18 910.221,47.2441 "/>
<polyline clip-path="url(#clip342)" style="stroke:#000000; stroke-linecap:round; stroke-linejoin:round; stroke-width:2; stroke-opacity:0.1; fill:none" points="1249.39,1423.18 1249.39,47.2441 "/>
<polyline clip-path="url(#clip342)" style="stroke:#000000; stroke-linecap:round; stroke-linejoin:round; stroke-width:2; stroke-opacity:0.1; fill:none" points="1588.56,1423.18 1588.56,47.2441 "/>
<polyline clip-path="url(#clip342)" style="stroke:#000000; stroke-linecap:round; stroke-linejoin:round; stroke-width:2; stroke-opacity:0.1; fill:none" points="1927.73,1423.18 1927.73,47.2441 "/>
<polyline clip-path="url(#clip342)" style="stroke:#000000; stroke-linecap:round; stroke-linejoin:round; stroke-width:2; stroke-opacity:0.1; fill:none" points="2266.9,1423.18 2266.9,47.2441 "/>
<polyline clip-path="url(#clip342)" style="stroke:#000000; stroke-linecap:round; stroke-linejoin:round; stroke-width:2; stroke-opacity:0.1; fill:none" points="571.051,1423.18 571.051,47.2441 "/>
<polyline clip-path="url(#clip342)" style="stroke:#000000; stroke-linecap:round; stroke-linejoin:round; stroke-width:2; stroke-opacity:0.1; fill:none" points="910.221,1423.18 910.221,47.2441 "/>
<polyline clip-path="url(#clip342)" style="stroke:#000000; stroke-linecap:round; stroke-linejoin:round; stroke-width:2; stroke-opacity:0.1; fill:none" points="1249.39,1423.18 1249.39,47.2441 "/>
<polyline clip-path="url(#clip342)" style="stroke:#000000; stroke-linecap:round; stroke-linejoin:round; stroke-width:2; stroke-opacity:0.1; fill:none" points="1588.56,1423.18 1588.56,47.2441 "/>
<polyline clip-path="url(#clip342)" style="stroke:#000000; stroke-linecap:round; stroke-linejoin:round; stroke-width:2; stroke-opacity:0.1; fill:none" points="1927.73,1423.18 1927.73,47.2441 "/>
<polyline clip-path="url(#clip342)" style="stroke:#000000; stroke-linecap:round; stroke-linejoin:round; stroke-width:2; stroke-opacity:0.1; fill:none" points="2266.9,1423.18 2266.9,47.2441 "/>
<polyline clip-path="url(#clip342)" style="stroke:#000000; stroke-linecap:round; stroke-linejoin:round; stroke-width:2; stroke-opacity:0.1; fill:none" points="247.459,1384.24 2352.76,1384.24 "/>
<polyline clip-path="url(#clip342)" style="stroke:#000000; stroke-linecap:round; stroke-linejoin:round; stroke-width:2; stroke-opacity:0.1; fill:none" points="247.459,1079.45 2352.76,1079.45 "/>
<polyline clip-path="url(#clip342)" style="stroke:#000000; stroke-linecap:round; stroke-linejoin:round; stroke-width:2; stroke-opacity:0.1; fill:none" points="247.459,774.665 2352.76,774.665 "/>
<polyline clip-path="url(#clip342)" style="stroke:#000000; stroke-linecap:round; stroke-linejoin:round; stroke-width:2; stroke-opacity:0.1; fill:none" points="247.459,469.879 2352.76,469.879 "/>
<polyline clip-path="url(#clip342)" style="stroke:#000000; stroke-linecap:round; stroke-linejoin:round; stroke-width:2; stroke-opacity:0.1; fill:none" points="247.459,165.092 2352.76,165.092 "/>
<polyline clip-path="url(#clip342)" style="stroke:#000000; stroke-linecap:round; stroke-linejoin:round; stroke-width:2; stroke-opacity:0.1; fill:none" points="247.459,1384.24 2352.76,1384.24 "/>
<polyline clip-path="url(#clip342)" style="stroke:#000000; stroke-linecap:round; stroke-linejoin:round; stroke-width:2; stroke-opacity:0.1; fill:none" points="247.459,1079.45 2352.76,1079.45 "/>
<polyline clip-path="url(#clip342)" style="stroke:#000000; stroke-linecap:round; stroke-linejoin:round; stroke-width:2; stroke-opacity:0.1; fill:none" points="247.459,774.665 2352.76,774.665 "/>
<polyline clip-path="url(#clip342)" style="stroke:#000000; stroke-linecap:round; stroke-linejoin:round; stroke-width:2; stroke-opacity:0.1; fill:none" points="247.459,469.879 2352.76,469.879 "/>
<polyline clip-path="url(#clip342)" style="stroke:#000000; stroke-linecap:round; stroke-linejoin:round; stroke-width:2; stroke-opacity:0.1; fill:none" points="247.459,165.092 2352.76,165.092 "/>
<polyline clip-path="url(#clip340)" style="stroke:#000000; stroke-linecap:round; stroke-linejoin:round; stroke-width:4; stroke-opacity:1; fill:none" points="247.459,1423.18 2352.76,1423.18 "/>
<polyline clip-path="url(#clip340)" style="stroke:#000000; stroke-linecap:round; stroke-linejoin:round; stroke-width:4; stroke-opacity:1; fill:none" points="247.459,47.2441 2352.76,47.2441 "/>
<polyline clip-path="url(#clip340)" style="stroke:#000000; stroke-linecap:round; stroke-linejoin:round; stroke-width:4; stroke-opacity:1; fill:none" points="571.051,1423.18 571.051,1404.28 "/>
<polyline clip-path="url(#clip340)" style="stroke:#000000; stroke-linecap:round; stroke-linejoin:round; stroke-width:4; stroke-opacity:1; fill:none" points="910.221,1423.18 910.221,1404.28 "/>
<polyline clip-path="url(#clip340)" style="stroke:#000000; stroke-linecap:round; stroke-linejoin:round; stroke-width:4; stroke-opacity:1; fill:none" points="1249.39,1423.18 1249.39,1404.28 "/>
<polyline clip-path="url(#clip340)" style="stroke:#000000; stroke-linecap:round; stroke-linejoin:round; stroke-width:4; stroke-opacity:1; fill:none" points="1588.56,1423.18 1588.56,1404.28 "/>
<polyline clip-path="url(#clip340)" style="stroke:#000000; stroke-linecap:round; stroke-linejoin:round; stroke-width:4; stroke-opacity:1; fill:none" points="1927.73,1423.18 1927.73,1404.28 "/>
<polyline clip-path="url(#clip340)" style="stroke:#000000; stroke-linecap:round; stroke-linejoin:round; stroke-width:4; stroke-opacity:1; fill:none" points="2266.9,1423.18 2266.9,1404.28 "/>
<polyline clip-path="url(#clip340)" style="stroke:#000000; stroke-linecap:round; stroke-linejoin:round; stroke-width:4; stroke-opacity:1; fill:none" points="571.051,47.2441 571.051,66.1417 "/>
<polyline clip-path="url(#clip340)" style="stroke:#000000; stroke-linecap:round; stroke-linejoin:round; stroke-width:4; stroke-opacity:1; fill:none" points="910.221,47.2441 910.221,66.1417 "/>
<polyline clip-path="url(#clip340)" style="stroke:#000000; stroke-linecap:round; stroke-linejoin:round; stroke-width:4; stroke-opacity:1; fill:none" points="1249.39,47.2441 1249.39,66.1417 "/>
<polyline clip-path="url(#clip340)" style="stroke:#000000; stroke-linecap:round; stroke-linejoin:round; stroke-width:4; stroke-opacity:1; fill:none" points="1588.56,47.2441 1588.56,66.1417 "/>
<polyline clip-path="url(#clip340)" style="stroke:#000000; stroke-linecap:round; stroke-linejoin:round; stroke-width:4; stroke-opacity:1; fill:none" points="1927.73,47.2441 1927.73,66.1417 "/>
<polyline clip-path="url(#clip340)" style="stroke:#000000; stroke-linecap:round; stroke-linejoin:round; stroke-width:4; stroke-opacity:1; fill:none" points="2266.9,47.2441 2266.9,66.1417 "/>
<path clip-path="url(#clip340)" d="M557.069 1466.44 Q553.921 1466.44 552.069 1468.59 Q550.241 1470.74 550.241 1474.49 Q550.241 1478.22 552.069 1480.39 Q553.921 1482.55 557.069 1482.55 Q560.217 1482.55 562.046 1480.39 Q563.898 1478.22 563.898 1474.49 Q563.898 1470.74 562.046 1468.59 Q560.217 1466.44 557.069 1466.44 M566.352 1451.78 L566.352 1456.04 Q564.592 1455.21 562.787 1454.77 Q561.004 1454.33 559.245 1454.33 Q554.616 1454.33 552.162 1457.45 Q549.731 1460.58 549.384 1466.9 Q550.75 1464.89 552.81 1463.82 Q554.87 1462.73 557.347 1462.73 Q562.555 1462.73 565.565 1465.9 Q568.597 1469.05 568.597 1474.49 Q568.597 1479.82 565.449 1483.03 Q562.301 1486.25 557.069 1486.25 Q551.074 1486.25 547.903 1481.67 Q544.731 1477.06 544.731 1468.33 Q544.731 1460.14 548.62 1455.28 Q552.509 1450.39 559.06 1450.39 Q560.819 1450.39 562.602 1450.74 Q564.407 1451.09 566.352 1451.78 Z" fill="#000000" fill-rule="nonzero" fill-opacity="1" /><path clip-path="url(#clip340)" d="M577.463 1481.64 L585.102 1481.64 L585.102 1455.28 L576.791 1456.95 L576.791 1452.69 L585.055 1451.02 L589.731 1451.02 L589.731 1481.64 L597.37 1481.64 L597.37 1485.58 L577.463 1485.58 L577.463 1481.64 Z" fill="#000000" fill-rule="nonzero" fill-opacity="1" /><path clip-path="url(#clip340)" d="M896.424 1466.44 Q893.276 1466.44 891.424 1468.59 Q889.596 1470.74 889.596 1474.49 Q889.596 1478.22 891.424 1480.39 Q893.276 1482.55 896.424 1482.55 Q899.573 1482.55 901.401 1480.39 Q903.253 1478.22 903.253 1474.49 Q903.253 1470.74 901.401 1468.59 Q899.573 1466.44 896.424 1466.44 M905.707 1451.78 L905.707 1456.04 Q903.947 1455.21 902.142 1454.77 Q900.36 1454.33 898.6 1454.33 Q893.971 1454.33 891.517 1457.45 Q889.086 1460.58 888.739 1466.9 Q890.105 1464.89 892.165 1463.82 Q894.225 1462.73 896.702 1462.73 Q901.91 1462.73 904.92 1465.9 Q907.952 1469.05 907.952 1474.49 Q907.952 1479.82 904.804 1483.03 Q901.656 1486.25 896.424 1486.25 Q890.429 1486.25 887.258 1481.67 Q884.086 1477.06 884.086 1468.33 Q884.086 1460.14 887.975 1455.28 Q891.864 1450.39 898.415 1450.39 Q900.174 1450.39 901.957 1450.74 Q903.762 1451.09 905.707 1451.78 Z" fill="#000000" fill-rule="nonzero" fill-opacity="1" /><path clip-path="url(#clip340)" d="M920.035 1481.64 L936.355 1481.64 L936.355 1485.58 L914.41 1485.58 L914.41 1481.64 Q917.072 1478.89 921.656 1474.26 Q926.262 1469.61 927.443 1468.27 Q929.688 1465.74 930.568 1464.01 Q931.47 1462.25 931.47 1460.56 Q931.47 1457.8 929.526 1456.07 Q927.605 1454.33 924.503 1454.33 Q922.304 1454.33 919.85 1455.09 Q917.42 1455.86 914.642 1457.41 L914.642 1452.69 Q917.466 1451.55 919.92 1450.97 Q922.373 1450.39 924.41 1450.39 Q929.781 1450.39 932.975 1453.08 Q936.17 1455.77 936.17 1460.26 Q936.17 1462.39 935.359 1464.31 Q934.572 1466.2 932.466 1468.8 Q931.887 1469.47 928.785 1472.69 Q925.683 1475.88 920.035 1481.64 Z" fill="#000000" fill-rule="nonzero" fill-opacity="1" /><path clip-path="url(#clip340)" d="M1235.12 1466.44 Q1231.97 1466.44 1230.12 1468.59 Q1228.29 1470.74 1228.29 1474.49 Q1228.29 1478.22 1230.12 1480.39 Q1231.97 1482.55 1235.12 1482.55 Q1238.27 1482.55 1240.1 1480.39 Q1241.95 1478.22 1241.95 1474.49 Q1241.95 1470.74 1240.1 1468.59 Q1238.27 1466.44 1235.12 1466.44 M1244.4 1451.78 L1244.4 1456.04 Q1242.64 1455.21 1240.84 1454.77 Q1239.05 1454.33 1237.3 1454.33 Q1232.67 1454.33 1230.21 1457.45 Q1227.78 1460.58 1227.43 1466.9 Q1228.8 1464.89 1230.86 1463.82 Q1232.92 1462.73 1235.4 1462.73 Q1240.61 1462.73 1243.62 1465.9 Q1246.65 1469.05 1246.65 1474.49 Q1246.65 1479.82 1243.5 1483.03 Q1240.35 1486.25 1235.12 1486.25 Q1229.12 1486.25 1225.95 1481.67 Q1222.78 1477.06 1222.78 1468.33 Q1222.78 1460.14 1226.67 1455.28 Q1230.56 1450.39 1237.11 1450.39 Q1238.87 1450.39 1240.65 1450.74 Q1242.46 1451.09 1244.4 1451.78 Z" fill="#000000" fill-rule="nonzero" fill-opacity="1" /><path clip-path="url(#clip340)" d="M1268.87 1466.95 Q1272.23 1467.66 1274.1 1469.93 Q1276 1472.2 1276 1475.53 Q1276 1480.65 1272.48 1483.45 Q1268.96 1486.25 1262.48 1486.25 Q1260.3 1486.25 1257.99 1485.81 Q1255.7 1485.39 1253.24 1484.54 L1253.24 1480.02 Q1255.19 1481.16 1257.5 1481.74 Q1259.82 1482.32 1262.34 1482.32 Q1266.74 1482.32 1269.03 1480.58 Q1271.35 1478.84 1271.35 1475.53 Q1271.35 1472.48 1269.19 1470.77 Q1267.06 1469.03 1263.24 1469.03 L1259.22 1469.03 L1259.22 1465.19 L1263.43 1465.19 Q1266.88 1465.19 1268.71 1463.82 Q1270.54 1462.43 1270.54 1459.84 Q1270.54 1457.18 1268.64 1455.77 Q1266.76 1454.33 1263.24 1454.33 Q1261.32 1454.33 1259.12 1454.75 Q1256.93 1455.16 1254.29 1456.04 L1254.29 1451.88 Q1256.95 1451.14 1259.26 1450.77 Q1261.6 1450.39 1263.66 1450.39 Q1268.99 1450.39 1272.09 1452.83 Q1275.19 1455.23 1275.19 1459.35 Q1275.19 1462.22 1273.55 1464.21 Q1271.9 1466.18 1268.87 1466.95 Z" fill="#000000" fill-rule="nonzero" fill-opacity="1" /><path clip-path="url(#clip340)" d="M1573.72 1466.44 Q1570.57 1466.44 1568.72 1468.59 Q1566.89 1470.74 1566.89 1474.49 Q1566.89 1478.22 1568.72 1480.39 Q1570.57 1482.55 1573.72 1482.55 Q1576.87 1482.55 1578.7 1480.39 Q1580.55 1478.22 1580.55 1474.49 Q1580.55 1470.74 1578.7 1468.59 Q1576.87 1466.44 1573.72 1466.44 M1583 1451.78 L1583 1456.04 Q1581.25 1455.21 1579.44 1454.77 Q1577.66 1454.33 1575.9 1454.33 Q1571.27 1454.33 1568.82 1457.45 Q1566.38 1460.58 1566.04 1466.9 Q1567.4 1464.89 1569.46 1463.82 Q1571.52 1462.73 1574 1462.73 Q1579.21 1462.73 1582.22 1465.9 Q1585.25 1469.05 1585.25 1474.49 Q1585.25 1479.82 1582.1 1483.03 Q1578.95 1486.25 1573.72 1486.25 Q1567.73 1486.25 1564.56 1481.67 Q1561.38 1477.06 1561.38 1468.33 Q1561.38 1460.14 1565.27 1455.28 Q1569.16 1450.39 1575.71 1450.39 Q1577.47 1450.39 1579.25 1450.74 Q1581.06 1451.09 1583 1451.78 Z" fill="#000000" fill-rule="nonzero" fill-opacity="1" /><path clip-path="url(#clip340)" d="M1606.15 1455.09 L1594.35 1473.54 L1606.15 1473.54 L1606.15 1455.09 M1604.93 1451.02 L1610.81 1451.02 L1610.81 1473.54 L1615.74 1473.54 L1615.74 1477.43 L1610.81 1477.43 L1610.81 1485.58 L1606.15 1485.58 L1606.15 1477.43 L1590.55 1477.43 L1590.55 1472.92 L1604.93 1451.02 Z" fill="#000000" fill-rule="nonzero" fill-opacity="1" /><path clip-path="url(#clip340)" d="M1913.63 1466.44 Q1910.49 1466.44 1908.63 1468.59 Q1906.8 1470.74 1906.8 1474.49 Q1906.8 1478.22 1908.63 1480.39 Q1910.49 1482.55 1913.63 1482.55 Q1916.78 1482.55 1918.61 1480.39 Q1920.46 1478.22 1920.46 1474.49 Q1920.46 1470.74 1918.61 1468.59 Q1916.78 1466.44 1913.63 1466.44 M1922.92 1451.78 L1922.92 1456.04 Q1921.16 1455.21 1919.35 1454.77 Q1917.57 1454.33 1915.81 1454.33 Q1911.18 1454.33 1908.73 1457.45 Q1906.3 1460.58 1905.95 1466.9 Q1907.31 1464.89 1909.37 1463.82 Q1911.43 1462.73 1913.91 1462.73 Q1919.12 1462.73 1922.13 1465.9 Q1925.16 1469.05 1925.16 1474.49 Q1925.16 1479.82 1922.01 1483.03 Q1918.86 1486.25 1913.63 1486.25 Q1907.64 1486.25 1904.47 1481.67 Q1901.3 1477.06 1901.3 1468.33 Q1901.3 1460.14 1905.18 1455.28 Q1909.07 1450.39 1915.62 1450.39 Q1917.38 1450.39 1919.17 1450.74 Q1920.97 1451.09 1922.92 1451.78 Z" fill="#000000" fill-rule="nonzero" fill-opacity="1" /><path clip-path="url(#clip340)" d="M1933.26 1451.02 L1951.62 1451.02 L1951.62 1454.96 L1937.55 1454.96 L1937.55 1463.43 Q1938.56 1463.08 1939.58 1462.92 Q1940.6 1462.73 1941.62 1462.73 Q1947.41 1462.73 1950.79 1465.9 Q1954.17 1469.08 1954.17 1474.49 Q1954.17 1480.07 1950.69 1483.17 Q1947.22 1486.25 1940.9 1486.25 Q1938.73 1486.25 1936.46 1485.88 Q1934.21 1485.51 1931.8 1484.77 L1931.8 1480.07 Q1933.89 1481.2 1936.11 1481.76 Q1938.33 1482.32 1940.81 1482.32 Q1944.81 1482.32 1947.15 1480.21 Q1949.49 1478.1 1949.49 1474.49 Q1949.49 1470.88 1947.15 1468.77 Q1944.81 1466.67 1940.81 1466.67 Q1938.93 1466.67 1937.06 1467.08 Q1935.21 1467.5 1933.26 1468.38 L1933.26 1451.02 Z" fill="#000000" fill-rule="nonzero" fill-opacity="1" /><path clip-path="url(#clip340)" d="M2252.22 1466.44 Q2249.08 1466.44 2247.22 1468.59 Q2245.4 1470.74 2245.4 1474.49 Q2245.4 1478.22 2247.22 1480.39 Q2249.08 1482.55 2252.22 1482.55 Q2255.37 1482.55 2257.2 1480.39 Q2259.05 1478.22 2259.05 1474.49 Q2259.05 1470.74 2257.2 1468.59 Q2255.37 1466.44 2252.22 1466.44 M2261.51 1451.78 L2261.51 1456.04 Q2259.75 1455.21 2257.94 1454.77 Q2256.16 1454.33 2254.4 1454.33 Q2249.77 1454.33 2247.32 1457.45 Q2244.89 1460.58 2244.54 1466.9 Q2245.91 1464.89 2247.97 1463.82 Q2250.03 1462.73 2252.5 1462.73 Q2257.71 1462.73 2260.72 1465.9 Q2263.75 1469.05 2263.75 1474.49 Q2263.75 1479.82 2260.6 1483.03 Q2257.46 1486.25 2252.22 1486.25 Q2246.23 1486.25 2243.06 1481.67 Q2239.89 1477.06 2239.89 1468.33 Q2239.89 1460.14 2243.78 1455.28 Q2247.66 1450.39 2254.22 1450.39 Q2255.97 1450.39 2257.76 1450.74 Q2259.56 1451.09 2261.51 1451.78 Z" fill="#000000" fill-rule="nonzero" fill-opacity="1" /><path clip-path="url(#clip340)" d="M2282.39 1466.44 Q2279.24 1466.44 2277.39 1468.59 Q2275.56 1470.74 2275.56 1474.49 Q2275.56 1478.22 2277.39 1480.39 Q2279.24 1482.55 2282.39 1482.55 Q2285.53 1482.55 2287.36 1480.39 Q2289.22 1478.22 2289.22 1474.49 Q2289.22 1470.74 2287.36 1468.59 Q2285.53 1466.44 2282.39 1466.44 M2291.67 1451.78 L2291.67 1456.04 Q2289.91 1455.21 2288.1 1454.77 Q2286.32 1454.33 2284.56 1454.33 Q2279.93 1454.33 2277.48 1457.45 Q2275.05 1460.58 2274.7 1466.9 Q2276.07 1464.89 2278.13 1463.82 Q2280.19 1462.73 2282.66 1462.73 Q2287.87 1462.73 2290.88 1465.9 Q2293.91 1469.05 2293.91 1474.49 Q2293.91 1479.82 2290.77 1483.03 Q2287.62 1486.25 2282.39 1486.25 Q2276.39 1486.25 2273.22 1481.67 Q2270.05 1477.06 2270.05 1468.33 Q2270.05 1460.14 2273.94 1455.28 Q2277.83 1450.39 2284.38 1450.39 Q2286.14 1450.39 2287.92 1450.74 Q2289.72 1451.09 2291.67 1451.78 Z" fill="#000000" fill-rule="nonzero" fill-opacity="1" /><path clip-path="url(#clip340)" d="M1178.01 1526.86 L1169.29 1550.51 L1186.77 1550.51 L1178.01 1526.86 M1174.38 1520.52 L1181.67 1520.52 L1199.78 1568.04 L1193.1 1568.04 L1188.77 1555.85 L1167.35 1555.85 L1163.02 1568.04 L1156.24 1568.04 L1174.38 1520.52 Z" fill="#000000" fill-rule="nonzero" fill-opacity="1" /><path clip-path="url(#clip340)" d="M1229.93 1549.81 Q1229.93 1543.44 1227.28 1539.94 Q1224.67 1536.44 1219.93 1536.44 Q1215.22 1536.44 1212.58 1539.94 Q1209.97 1543.44 1209.97 1549.81 Q1209.97 1556.14 1212.58 1559.64 Q1215.22 1563.14 1219.93 1563.14 Q1224.67 1563.14 1227.28 1559.64 Q1229.93 1556.14 1229.93 1549.81 M1235.78 1563.62 Q1235.78 1572.72 1231.74 1577.15 Q1227.7 1581.6 1219.36 1581.6 Q1216.27 1581.6 1213.53 1581.13 Q1210.8 1580.68 1208.22 1579.72 L1208.22 1574.03 Q1210.8 1575.43 1213.31 1576.1 Q1215.83 1576.76 1218.44 1576.76 Q1224.2 1576.76 1227.06 1573.74 Q1229.93 1570.75 1229.93 1564.67 L1229.93 1561.77 Q1228.11 1564.92 1225.28 1566.48 Q1222.45 1568.04 1218.5 1568.04 Q1211.94 1568.04 1207.93 1563.05 Q1203.92 1558.05 1203.92 1549.81 Q1203.92 1541.53 1207.93 1536.53 Q1211.94 1531.54 1218.5 1531.54 Q1222.45 1531.54 1225.28 1533.1 Q1228.11 1534.66 1229.93 1537.81 L1229.93 1532.4 L1235.78 1532.4 L1235.78 1563.62 Z" fill="#000000" fill-rule="nonzero" fill-opacity="1" /><path clip-path="url(#clip340)" d="M1278.34 1548.76 L1278.34 1551.62 L1251.41 1551.62 Q1251.79 1557.67 1255.04 1560.85 Q1258.32 1564 1264.14 1564 Q1267.51 1564 1270.67 1563.17 Q1273.85 1562.35 1276.97 1560.69 L1276.97 1566.23 Q1273.82 1567.57 1270.51 1568.27 Q1267.2 1568.97 1263.79 1568.97 Q1255.26 1568.97 1250.26 1564 Q1245.3 1559.04 1245.3 1550.57 Q1245.3 1541.82 1250.01 1536.69 Q1254.75 1531.54 1262.77 1531.54 Q1269.97 1531.54 1274.14 1536.18 Q1278.34 1540.8 1278.34 1548.76 M1272.48 1547.04 Q1272.42 1542.23 1269.77 1539.37 Q1267.16 1536.5 1262.84 1536.5 Q1257.93 1536.5 1254.97 1539.27 Q1252.05 1542.04 1251.6 1547.07 L1272.48 1547.04 Z" fill="#000000" fill-rule="nonzero" fill-opacity="1" /><path clip-path="url(#clip340)" d="M1322.74 1518.58 Q1318.47 1525.9 1316.4 1533.06 Q1314.33 1540.23 1314.33 1547.58 Q1314.33 1554.93 1316.4 1562.16 Q1318.5 1569.35 1322.74 1576.64 L1317.64 1576.64 Q1312.87 1569.16 1310.48 1561.93 Q1308.13 1554.71 1308.13 1547.58 Q1308.13 1540.48 1310.48 1533.29 Q1312.84 1526.09 1317.64 1518.58 L1322.74 1518.58 Z" fill="#000000" fill-rule="nonzero" fill-opacity="1" /><path clip-path="url(#clip340)" d="M1334.35 1520.52 L1343.94 1520.52 L1356.06 1552.86 L1368.25 1520.52 L1377.83 1520.52 L1377.83 1568.04 L1371.56 1568.04 L1371.56 1526.32 L1359.31 1558.91 L1352.85 1558.91 L1340.59 1526.32 L1340.59 1568.04 L1334.35 1568.04 L1334.35 1520.52 Z" fill="#000000" fill-rule="nonzero" fill-opacity="1" /><path clip-path="url(#clip340)" d="M1406.54 1550.12 Q1399.44 1550.12 1396.71 1551.75 Q1393.97 1553.37 1393.97 1557.29 Q1393.97 1560.4 1396.01 1562.25 Q1398.08 1564.07 1401.61 1564.07 Q1406.48 1564.07 1409.41 1560.63 Q1412.37 1557.16 1412.37 1551.43 L1412.37 1550.12 L1406.54 1550.12 M1418.22 1547.71 L1418.22 1568.04 L1412.37 1568.04 L1412.37 1562.63 Q1410.36 1565.88 1407.37 1567.44 Q1404.38 1568.97 1400.05 1568.97 Q1394.57 1568.97 1391.33 1565.91 Q1388.11 1562.82 1388.11 1557.67 Q1388.11 1551.65 1392.12 1548.6 Q1396.17 1545.54 1404.15 1545.54 L1412.37 1545.54 L1412.37 1544.97 Q1412.37 1540.93 1409.69 1538.73 Q1407.05 1536.5 1402.25 1536.5 Q1399.19 1536.5 1396.29 1537.23 Q1393.4 1537.97 1390.72 1539.43 L1390.72 1534.02 Q1393.94 1532.78 1396.96 1532.17 Q1399.99 1531.54 1402.85 1531.54 Q1410.58 1531.54 1414.4 1535.55 Q1418.22 1539.56 1418.22 1547.71 Z" fill="#000000" fill-rule="nonzero" fill-opacity="1" /><path clip-path="url(#clip340)" d="M1429.36 1518.58 L1434.46 1518.58 Q1439.23 1526.09 1441.59 1533.29 Q1443.97 1540.48 1443.97 1547.58 Q1443.97 1554.71 1441.59 1561.93 Q1439.23 1569.16 1434.46 1576.64 L1429.36 1576.64 Q1433.6 1569.35 1435.67 1562.16 Q1437.77 1554.93 1437.77 1547.58 Q1437.77 1540.23 1435.67 1533.06 Q1433.6 1525.9 1429.36 1518.58 Z" fill="#000000" fill-rule="nonzero" fill-opacity="1" /><polyline clip-path="url(#clip340)" style="stroke:#000000; stroke-linecap:round; stroke-linejoin:round; stroke-width:4; stroke-opacity:1; fill:none" points="247.459,1423.18 247.459,47.2441 "/>
<polyline clip-path="url(#clip340)" style="stroke:#000000; stroke-linecap:round; stroke-linejoin:round; stroke-width:4; stroke-opacity:1; fill:none" points="2352.76,1423.18 2352.76,47.2441 "/>
<polyline clip-path="url(#clip340)" style="stroke:#000000; stroke-linecap:round; stroke-linejoin:round; stroke-width:4; stroke-opacity:1; fill:none" points="247.459,1384.24 266.356,1384.24 "/>
<polyline clip-path="url(#clip340)" style="stroke:#000000; stroke-linecap:round; stroke-linejoin:round; stroke-width:4; stroke-opacity:1; fill:none" points="247.459,1079.45 266.356,1079.45 "/>
<polyline clip-path="url(#clip340)" style="stroke:#000000; stroke-linecap:round; stroke-linejoin:round; stroke-width:4; stroke-opacity:1; fill:none" points="247.459,774.665 266.356,774.665 "/>
<polyline clip-path="url(#clip340)" style="stroke:#000000; stroke-linecap:round; stroke-linejoin:round; stroke-width:4; stroke-opacity:1; fill:none" points="247.459,469.879 266.356,469.879 "/>
<polyline clip-path="url(#clip340)" style="stroke:#000000; stroke-linecap:round; stroke-linejoin:round; stroke-width:4; stroke-opacity:1; fill:none" points="247.459,165.092 266.356,165.092 "/>
<polyline clip-path="url(#clip340)" style="stroke:#000000; stroke-linecap:round; stroke-linejoin:round; stroke-width:4; stroke-opacity:1; fill:none" points="2352.76,1384.24 2333.86,1384.24 "/>
<polyline clip-path="url(#clip340)" style="stroke:#000000; stroke-linecap:round; stroke-linejoin:round; stroke-width:4; stroke-opacity:1; fill:none" points="2352.76,1079.45 2333.86,1079.45 "/>
<polyline clip-path="url(#clip340)" style="stroke:#000000; stroke-linecap:round; stroke-linejoin:round; stroke-width:4; stroke-opacity:1; fill:none" points="2352.76,774.665 2333.86,774.665 "/>
<polyline clip-path="url(#clip340)" style="stroke:#000000; stroke-linecap:round; stroke-linejoin:round; stroke-width:4; stroke-opacity:1; fill:none" points="2352.76,469.879 2333.86,469.879 "/>
<polyline clip-path="url(#clip340)" style="stroke:#000000; stroke-linecap:round; stroke-linejoin:round; stroke-width:4; stroke-opacity:1; fill:none" points="2352.76,165.092 2333.86,165.092 "/>
<path clip-path="url(#clip340)" d="M154.283 1370.04 Q150.672 1370.04 148.843 1373.6 Q147.038 1377.14 147.038 1384.27 Q147.038 1391.38 148.843 1394.94 Q150.672 1398.49 154.283 1398.49 Q157.917 1398.49 159.723 1394.94 Q161.552 1391.38 161.552 1384.27 Q161.552 1377.14 159.723 1373.6 Q157.917 1370.04 154.283 1370.04 M154.283 1366.33 Q160.093 1366.33 163.149 1370.94 Q166.227 1375.52 166.227 1384.27 Q166.227 1393 163.149 1397.61 Q160.093 1402.19 154.283 1402.19 Q148.473 1402.19 145.394 1397.61 Q142.339 1393 142.339 1384.27 Q142.339 1375.52 145.394 1370.94 Q148.473 1366.33 154.283 1366.33 Z" fill="#000000" fill-rule="nonzero" fill-opacity="1" /><path clip-path="url(#clip340)" d="M174.445 1395.64 L179.329 1395.64 L179.329 1401.52 L174.445 1401.52 L174.445 1395.64 Z" fill="#000000" fill-rule="nonzero" fill-opacity="1" /><path clip-path="url(#clip340)" d="M199.514 1370.04 Q195.903 1370.04 194.075 1373.6 Q192.269 1377.14 192.269 1384.27 Q192.269 1391.38 194.075 1394.94 Q195.903 1398.49 199.514 1398.49 Q203.149 1398.49 204.954 1394.94 Q206.783 1391.38 206.783 1384.27 Q206.783 1377.14 204.954 1373.6 Q203.149 1370.04 199.514 1370.04 M199.514 1366.33 Q205.324 1366.33 208.38 1370.94 Q211.459 1375.52 211.459 1384.27 Q211.459 1393 208.38 1397.61 Q205.324 1402.19 199.514 1402.19 Q193.704 1402.19 190.625 1397.61 Q187.57 1393 187.57 1384.27 Q187.57 1375.52 190.625 1370.94 Q193.704 1366.33 199.514 1366.33 Z" fill="#000000" fill-rule="nonzero" fill-opacity="1" /><path clip-path="url(#clip340)" d="M149.306 1092.8 L165.626 1092.8 L165.626 1096.73 L143.681 1096.73 L143.681 1092.8 Q146.343 1090.04 150.927 1085.41 Q155.533 1080.76 156.714 1079.42 Q158.959 1076.89 159.839 1075.16 Q160.741 1073.4 160.741 1071.71 Q160.741 1068.95 158.797 1067.22 Q156.876 1065.48 153.774 1065.48 Q151.575 1065.48 149.121 1066.25 Q146.691 1067.01 143.913 1068.56 L143.913 1063.84 Q146.737 1062.7 149.191 1062.13 Q151.644 1061.55 153.681 1061.55 Q159.052 1061.55 162.246 1064.23 Q165.44 1066.92 165.44 1071.41 Q165.44 1073.54 164.63 1075.46 Q163.843 1077.36 161.737 1079.95 Q161.158 1080.62 158.056 1083.84 Q154.954 1087.03 149.306 1092.8 Z" fill="#000000" fill-rule="nonzero" fill-opacity="1" /><path clip-path="url(#clip340)" d="M175.44 1090.85 L180.325 1090.85 L180.325 1096.73 L175.44 1096.73 L175.44 1090.85 Z" fill="#000000" fill-rule="nonzero" fill-opacity="1" /><path clip-path="url(#clip340)" d="M190.556 1062.17 L208.912 1062.17 L208.912 1066.11 L194.838 1066.11 L194.838 1074.58 Q195.857 1074.23 196.875 1074.07 Q197.894 1073.88 198.912 1073.88 Q204.699 1073.88 208.079 1077.06 Q211.459 1080.23 211.459 1085.64 Q211.459 1091.22 207.987 1094.32 Q204.514 1097.4 198.195 1097.4 Q196.019 1097.4 193.75 1097.03 Q191.505 1096.66 189.098 1095.92 L189.098 1091.22 Q191.181 1092.36 193.403 1092.91 Q195.625 1093.47 198.102 1093.47 Q202.107 1093.47 204.445 1091.36 Q206.783 1089.25 206.783 1085.64 Q206.783 1082.03 204.445 1079.93 Q202.107 1077.82 198.102 1077.82 Q196.227 1077.82 194.352 1078.24 Q192.5 1078.65 190.556 1079.53 L190.556 1062.17 Z" fill="#000000" fill-rule="nonzero" fill-opacity="1" /><path clip-path="url(#clip340)" d="M144.329 757.385 L162.686 757.385 L162.686 761.321 L148.612 761.321 L148.612 769.793 Q149.63 769.445 150.649 769.283 Q151.667 769.098 152.686 769.098 Q158.473 769.098 161.852 772.27 Q165.232 775.441 165.232 780.857 Q165.232 786.436 161.76 789.538 Q158.288 792.617 151.968 792.617 Q149.792 792.617 147.524 792.246 Q145.279 791.876 142.871 791.135 L142.871 786.436 Q144.954 787.57 147.177 788.126 Q149.399 788.681 151.876 788.681 Q155.88 788.681 158.218 786.575 Q160.556 784.469 160.556 780.857 Q160.556 777.246 158.218 775.14 Q155.88 773.033 151.876 773.033 Q150.001 773.033 148.126 773.45 Q146.274 773.867 144.329 774.746 L144.329 757.385 Z" fill="#000000" fill-rule="nonzero" fill-opacity="1" /><path clip-path="url(#clip340)" d="M174.445 786.066 L179.329 786.066 L179.329 791.945 L174.445 791.945 L174.445 786.066 Z" fill="#000000" fill-rule="nonzero" fill-opacity="1" /><path clip-path="url(#clip340)" d="M199.514 760.464 Q195.903 760.464 194.075 764.029 Q192.269 767.57 192.269 774.7 Q192.269 781.807 194.075 785.371 Q195.903 788.913 199.514 788.913 Q203.149 788.913 204.954 785.371 Q206.783 781.807 206.783 774.7 Q206.783 767.57 204.954 764.029 Q203.149 760.464 199.514 760.464 M199.514 756.76 Q205.324 756.76 208.38 761.367 Q211.459 765.95 211.459 774.7 Q211.459 783.427 208.38 788.033 Q205.324 792.617 199.514 792.617 Q193.704 792.617 190.625 788.033 Q187.57 783.427 187.57 774.7 Q187.57 765.95 190.625 761.367 Q193.704 756.76 199.514 756.76 Z" fill="#000000" fill-rule="nonzero" fill-opacity="1" /><path clip-path="url(#clip340)" d="M144.098 452.599 L166.32 452.599 L166.32 454.59 L153.774 487.159 L148.89 487.159 L160.695 456.534 L144.098 456.534 L144.098 452.599 Z" fill="#000000" fill-rule="nonzero" fill-opacity="1" /><path clip-path="url(#clip340)" d="M175.44 481.279 L180.325 481.279 L180.325 487.159 L175.44 487.159 L175.44 481.279 Z" fill="#000000" fill-rule="nonzero" fill-opacity="1" /><path clip-path="url(#clip340)" d="M190.556 452.599 L208.912 452.599 L208.912 456.534 L194.838 456.534 L194.838 465.006 Q195.857 464.659 196.875 464.497 Q197.894 464.312 198.912 464.312 Q204.699 464.312 208.079 467.483 Q211.459 470.654 211.459 476.071 Q211.459 481.65 207.987 484.752 Q204.514 487.83 198.195 487.83 Q196.019 487.83 193.75 487.46 Q191.505 487.089 189.098 486.349 L189.098 481.65 Q191.181 482.784 193.403 483.339 Q195.625 483.895 198.102 483.895 Q202.107 483.895 204.445 481.789 Q206.783 479.682 206.783 476.071 Q206.783 472.46 204.445 470.353 Q202.107 468.247 198.102 468.247 Q196.227 468.247 194.352 468.664 Q192.5 469.08 190.556 469.96 L190.556 452.599 Z" fill="#000000" fill-rule="nonzero" fill-opacity="1" /><path clip-path="url(#clip340)" d="M114.931 178.437 L122.57 178.437 L122.57 152.072 L114.26 153.738 L114.26 149.479 L122.524 147.812 L127.2 147.812 L127.2 178.437 L134.839 178.437 L134.839 182.372 L114.931 182.372 L114.931 178.437 Z" fill="#000000" fill-rule="nonzero" fill-opacity="1" /><path clip-path="url(#clip340)" d="M154.283 150.891 Q150.672 150.891 148.843 154.456 Q147.038 157.998 147.038 165.127 Q147.038 172.234 148.843 175.798 Q150.672 179.34 154.283 179.34 Q157.917 179.34 159.723 175.798 Q161.552 172.234 161.552 165.127 Q161.552 157.998 159.723 154.456 Q157.917 150.891 154.283 150.891 M154.283 147.187 Q160.093 147.187 163.149 151.794 Q166.227 156.377 166.227 165.127 Q166.227 173.854 163.149 178.46 Q160.093 183.044 154.283 183.044 Q148.473 183.044 145.394 178.46 Q142.339 173.854 142.339 165.127 Q142.339 156.377 145.394 151.794 Q148.473 147.187 154.283 147.187 Z" fill="#000000" fill-rule="nonzero" fill-opacity="1" /><path clip-path="url(#clip340)" d="M174.445 176.493 L179.329 176.493 L179.329 182.372 L174.445 182.372 L174.445 176.493 Z" fill="#000000" fill-rule="nonzero" fill-opacity="1" /><path clip-path="url(#clip340)" d="M199.514 150.891 Q195.903 150.891 194.075 154.456 Q192.269 157.998 192.269 165.127 Q192.269 172.234 194.075 175.798 Q195.903 179.34 199.514 179.34 Q203.149 179.34 204.954 175.798 Q206.783 172.234 206.783 165.127 Q206.783 157.998 204.954 154.456 Q203.149 150.891 199.514 150.891 M199.514 147.187 Q205.324 147.187 208.38 151.794 Q211.459 156.377 211.459 165.127 Q211.459 173.854 208.38 178.46 Q205.324 183.044 199.514 183.044 Q193.704 183.044 190.625 178.46 Q187.57 173.854 187.57 165.127 Q187.57 156.377 190.625 151.794 Q193.704 147.187 199.514 147.187 Z" fill="#000000" fill-rule="nonzero" fill-opacity="1" /><path clip-path="url(#clip340)" d="M21.7677 1026.76 L39.6235 1026.76 L39.6235 1018.68 Q39.6235 1014.19 37.3 1011.74 Q34.9765 1009.29 30.6797 1009.29 Q26.4147 1009.29 24.0912 1011.74 Q21.7677 1014.19 21.7677 1018.68 L21.7677 1026.76 M16.4842 1033.19 L16.4842 1018.68 Q16.4842 1010.69 20.1126 1006.61 Q23.7092 1002.51 30.6797 1002.51 Q37.7138 1002.51 41.3104 1006.61 Q44.907 1010.69 44.907 1018.68 L44.907 1026.76 L64.0042 1026.76 L64.0042 1033.19 L16.4842 1033.19 Z" fill="#000000" fill-rule="nonzero" fill-opacity="1" /><path clip-path="url(#clip340)" d="M33.8307 974.626 Q33.2578 975.613 33.0032 976.791 Q32.7167 977.936 32.7167 979.337 Q32.7167 984.302 35.9632 986.976 Q39.1779 989.617 45.2253 989.617 L64.0042 989.617 L64.0042 995.506 L28.3562 995.506 L28.3562 989.617 L33.8944 989.617 Q30.6479 987.771 29.0883 984.811 Q27.4968 981.851 27.4968 977.618 Q27.4968 977.013 27.5923 976.281 Q27.656 975.549 27.8151 974.658 L33.8307 974.626 Z" fill="#000000" fill-rule="nonzero" fill-opacity="1" /><path clip-path="url(#clip340)" d="M32.4621 956.102 Q32.4621 960.813 36.1542 963.55 Q39.8145 966.287 46.212 966.287 Q52.6095 966.287 56.3017 963.582 Q59.9619 960.844 59.9619 956.102 Q59.9619 951.423 56.2698 948.686 Q52.5777 945.949 46.212 945.949 Q39.8781 945.949 36.186 948.686 Q32.4621 951.423 32.4621 956.102 M27.4968 956.102 Q27.4968 948.463 32.4621 944.103 Q37.4273 939.742 46.212 939.742 Q54.9649 939.742 59.9619 944.103 Q64.9272 948.463 64.9272 956.102 Q64.9272 963.773 59.9619 968.133 Q54.9649 972.462 46.212 972.462 Q37.4273 972.462 32.4621 968.133 Q27.4968 963.773 27.4968 956.102 Z" fill="#000000" fill-rule="nonzero" fill-opacity="1" /><path clip-path="url(#clip340)" d="M46.212 904.444 Q39.7508 904.444 36.0905 907.118 Q32.3984 909.76 32.3984 914.407 Q32.3984 919.054 36.0905 921.727 Q39.7508 924.369 46.212 924.369 Q52.6732 924.369 56.3653 921.727 Q60.0256 919.054 60.0256 914.407 Q60.0256 909.76 56.3653 907.118 Q52.6732 904.444 46.212 904.444 M33.7671 924.369 Q30.5842 922.523 29.0564 919.722 Q27.4968 916.889 27.4968 912.974 Q27.4968 906.481 32.6531 902.439 Q37.8093 898.365 46.212 898.365 Q54.6147 898.365 59.771 902.439 Q64.9272 906.481 64.9272 912.974 Q64.9272 916.889 63.3994 919.722 Q61.8398 922.523 58.657 924.369 L64.0042 924.369 L64.0042 930.257 L14.479 930.257 L14.479 924.369 L33.7671 924.369 Z" fill="#000000" fill-rule="nonzero" fill-opacity="1" /><path clip-path="url(#clip340)" d="M46.0847 872.457 Q46.0847 879.554 47.7079 882.292 Q49.3312 885.029 53.2461 885.029 Q56.3653 885.029 58.2114 882.992 Q60.0256 880.923 60.0256 877.39 Q60.0256 872.52 56.5881 869.592 Q53.1188 866.632 47.3897 866.632 L46.0847 866.632 L46.0847 872.457 M43.6657 860.776 L64.0042 860.776 L64.0042 866.632 L58.5933 866.632 Q61.8398 868.637 63.3994 871.629 Q64.9272 874.621 64.9272 878.95 Q64.9272 884.424 61.8716 887.671 Q58.7843 890.885 53.6281 890.885 Q47.6125 890.885 44.5569 886.875 Q41.5014 882.833 41.5014 874.844 L41.5014 866.632 L40.9285 866.632 Q36.8862 866.632 34.6901 869.306 Q32.4621 871.947 32.4621 876.753 Q32.4621 879.809 33.1941 882.705 Q33.9262 885.602 35.3903 888.275 L29.9795 888.275 Q28.7381 885.061 28.1334 882.037 Q27.4968 879.013 27.4968 876.149 Q27.4968 868.414 31.5072 864.595 Q35.5176 860.776 43.6657 860.776 Z" fill="#000000" fill-rule="nonzero" fill-opacity="1" /><path clip-path="url(#clip340)" d="M46.212 823.122 Q39.7508 823.122 36.0905 825.796 Q32.3984 828.438 32.3984 833.085 Q32.3984 837.732 36.0905 840.405 Q39.7508 843.047 46.212 843.047 Q52.6732 843.047 56.3653 840.405 Q60.0256 837.732 60.0256 833.085 Q60.0256 828.438 56.3653 825.796 Q52.6732 823.122 46.212 823.122 M33.7671 843.047 Q30.5842 841.201 29.0564 838.4 Q27.4968 835.567 27.4968 831.652 Q27.4968 825.159 32.6531 821.117 Q37.8093 817.043 46.212 817.043 Q54.6147 817.043 59.771 821.117 Q64.9272 825.159 64.9272 831.652 Q64.9272 835.567 63.3994 838.4 Q61.8398 841.201 58.657 843.047 L64.0042 843.047 L64.0042 848.935 L14.479 848.935 L14.479 843.047 L33.7671 843.047 Z" fill="#000000" fill-rule="nonzero" fill-opacity="1" /><path clip-path="url(#clip340)" d="M28.3562 807.335 L28.3562 801.479 L64.0042 801.479 L64.0042 807.335 L28.3562 807.335 M14.479 807.335 L14.479 801.479 L21.895 801.479 L21.895 807.335 L14.479 807.335 Z" fill="#000000" fill-rule="nonzero" fill-opacity="1" /><path clip-path="url(#clip340)" d="M14.479 789.225 L14.479 783.369 L64.0042 783.369 L64.0042 789.225 L14.479 789.225 Z" fill="#000000" fill-rule="nonzero" fill-opacity="1" /><path clip-path="url(#clip340)" d="M28.3562 771.115 L28.3562 765.258 L64.0042 765.258 L64.0042 771.115 L28.3562 771.115 M14.479 771.115 L14.479 765.258 L21.895 765.258 L21.895 771.115 L14.479 771.115 Z" fill="#000000" fill-rule="nonzero" fill-opacity="1" /><path clip-path="url(#clip340)" d="M18.2347 747.211 L28.3562 747.211 L28.3562 735.148 L32.9077 735.148 L32.9077 747.211 L52.2594 747.211 Q56.6199 747.211 57.8613 746.034 Q59.1026 744.824 59.1026 741.164 L59.1026 735.148 L64.0042 735.148 L64.0042 741.164 Q64.0042 747.943 61.4897 750.521 Q58.9434 753.1 52.2594 753.1 L32.9077 753.1 L32.9077 757.396 L28.3562 757.396 L28.3562 753.1 L18.2347 753.1 L18.2347 747.211 Z" fill="#000000" fill-rule="nonzero" fill-opacity="1" /><path clip-path="url(#clip340)" d="M67.3143 712.614 Q73.68 715.096 75.6216 717.452 Q77.5631 719.807 77.5631 723.754 L77.5631 728.432 L72.6615 728.432 L72.6615 724.995 Q72.6615 722.576 71.5157 721.239 Q70.3699 719.902 66.1048 718.279 L63.4312 717.229 L28.3562 731.647 L28.3562 725.441 L56.238 714.301 L28.3562 703.161 L28.3562 696.954 L67.3143 712.614 Z" fill="#000000" fill-rule="nonzero" fill-opacity="1" /><path clip-path="url(#clip340)" d="M33.7671 644.692 L14.479 644.692 L14.479 638.835 L64.0042 638.835 L64.0042 644.692 L58.657 644.692 Q61.8398 646.538 63.3994 649.37 Q64.9272 652.171 64.9272 656.118 Q64.9272 662.579 59.771 666.653 Q54.6147 670.696 46.212 670.696 Q37.8093 670.696 32.6531 666.653 Q27.4968 662.579 27.4968 656.118 Q27.4968 652.171 29.0564 649.37 Q30.5842 646.538 33.7671 644.692 M46.212 664.648 Q52.6732 664.648 56.3653 662.006 Q60.0256 659.333 60.0256 654.686 Q60.0256 650.039 56.3653 647.365 Q52.6732 644.692 46.212 644.692 Q39.7508 644.692 36.0905 647.365 Q32.3984 650.039 32.3984 654.686 Q32.3984 659.333 36.0905 662.006 Q39.7508 664.648 46.212 664.648 Z" fill="#000000" fill-rule="nonzero" fill-opacity="1" /><path clip-path="url(#clip340)" d="M44.7161 596.28 L47.5806 596.28 L47.5806 623.207 Q53.6281 622.825 56.8109 619.579 Q59.9619 616.301 59.9619 610.476 Q59.9619 607.102 59.1344 603.951 Q58.3069 600.768 56.6518 597.649 L62.1899 597.649 Q63.5267 600.8 64.227 604.11 Q64.9272 607.42 64.9272 610.826 Q64.9272 619.356 59.9619 624.353 Q54.9967 629.318 46.5303 629.318 Q37.7774 629.318 32.6531 624.608 Q27.4968 619.865 27.4968 611.845 Q27.4968 604.651 32.1438 600.482 Q36.7589 596.28 44.7161 596.28 M42.9973 602.137 Q38.1912 602.201 35.3266 604.842 Q32.4621 607.452 32.4621 611.781 Q32.4621 616.683 35.2312 619.643 Q38.0002 622.571 43.0292 623.016 L42.9973 602.137 Z" fill="#000000" fill-rule="nonzero" fill-opacity="1" /><path clip-path="url(#clip340)" d="M42.4881 557.036 L64.0042 557.036 L64.0042 562.892 L42.679 562.892 Q37.6183 562.892 35.1038 564.866 Q32.5894 566.839 32.5894 570.786 Q32.5894 575.528 35.6131 578.265 Q38.6368 581.003 43.8567 581.003 L64.0042 581.003 L64.0042 586.891 L28.3562 586.891 L28.3562 581.003 L33.8944 581.003 Q30.6797 578.902 29.0883 576.069 Q27.4968 573.205 27.4968 569.481 Q27.4968 563.338 31.3163 560.187 Q35.1038 557.036 42.4881 557.036 Z" fill="#000000" fill-rule="nonzero" fill-opacity="1" /><path clip-path="url(#clip340)" d="M29.4065 522.629 L34.9447 522.629 Q33.6716 525.112 33.035 527.785 Q32.3984 530.459 32.3984 533.324 Q32.3984 537.684 33.7352 539.88 Q35.072 542.045 37.7456 542.045 Q39.7826 542.045 40.9603 540.485 Q42.1061 538.925 43.1565 534.215 L43.6021 532.21 Q44.9389 525.971 47.3897 523.361 Q49.8086 520.719 54.1691 520.719 Q59.1344 520.719 62.0308 524.666 Q64.9272 528.581 64.9272 535.456 Q64.9272 538.321 64.3543 541.44 Q63.8132 544.527 62.6992 547.965 L56.6518 547.965 Q58.3387 544.718 59.198 541.567 Q60.0256 538.416 60.0256 535.329 Q60.0256 531.191 58.6251 528.963 Q57.1929 526.735 54.6147 526.735 Q52.2276 526.735 50.9545 528.358 Q49.6813 529.95 48.5037 535.392 L48.0262 537.429 Q46.8804 542.872 44.5251 545.291 Q42.138 547.71 38.0002 547.71 Q32.9713 547.71 30.2341 544.145 Q27.4968 540.58 27.4968 534.024 Q27.4968 530.777 27.9743 527.913 Q28.4517 525.048 29.4065 522.629 Z" fill="#000000" fill-rule="nonzero" fill-opacity="1" /><path clip-path="url(#clip340)" d="M28.3562 511.394 L28.3562 505.537 L64.0042 505.537 L64.0042 511.394 L28.3562 511.394 M14.479 511.394 L14.479 505.537 L21.895 505.537 L21.895 511.394 L14.479 511.394 Z" fill="#000000" fill-rule="nonzero" fill-opacity="1" /><path clip-path="url(#clip340)" d="M18.2347 487.49 L28.3562 487.49 L28.3562 475.427 L32.9077 475.427 L32.9077 487.49 L52.2594 487.49 Q56.6199 487.49 57.8613 486.313 Q59.1026 485.103 59.1026 481.443 L59.1026 475.427 L64.0042 475.427 L64.0042 481.443 Q64.0042 488.223 61.4897 490.801 Q58.9434 493.379 52.2594 493.379 L32.9077 493.379 L32.9077 497.676 L28.3562 497.676 L28.3562 493.379 L18.2347 493.379 L18.2347 487.49 Z" fill="#000000" fill-rule="nonzero" fill-opacity="1" /><path clip-path="url(#clip340)" d="M67.3143 452.893 Q73.68 455.376 75.6216 457.731 Q77.5631 460.086 77.5631 464.033 L77.5631 468.712 L72.6615 468.712 L72.6615 465.274 Q72.6615 462.855 71.5157 461.518 Q70.3699 460.182 66.1048 458.558 L63.4312 457.508 L28.3562 471.926 L28.3562 465.72 L56.238 454.58 L28.3562 443.44 L28.3562 437.233 L67.3143 452.893 Z" fill="#000000" fill-rule="nonzero" fill-opacity="1" /><polyline clip-path="url(#clip342)" style="stroke:#009af9; stroke-linecap:round; stroke-linejoin:round; stroke-width:4; stroke-opacity:1; fill:none" points="307.043,1384.23 505.656,1384.2 1123.56,1384.17 1145.63,1384.22 1167.7,1384.23 1189.77,1384.23 1211.83,1384.22 1255.97,1384.22 1278.04,1384.21 1300.11,1384.12 1322.18,1384.09 1344.24,1384.1 1366.31,1384.12 1388.38,1384.16 1410.45,1384.21 1432.52,1384.09 1454.58,1384.2 1476.65,1384.13 1498.72,1384.23 1520.79,1384.14 1542.86,1384.1 1564.92,1383.94 1586.99,1384.08 1609.06,1384.04 1631.13,1384.08 1653.2,1384.22 1675.27,1383.94 1697.33,1383.83 1719.4,1384.09 1741.47,1383.76 1763.54,1383.76 1785.61,1383.83 1807.67,1383.59 1829.74,1383.74 1851.81,1383.06 1873.88,1383.06 1895.95,1382.82 1918.01,1381.88 1940.08,1380.08 1962.15,1378.83 1984.22,1375.04 2006.29,1369.82 2028.35,1362.83 2050.42,1340.6 2072.49,1312.07 2094.56,1246.75 2116.63,1121.75 2138.7,885.303 2160.76,410.058 2182.83,435.988 2204.9,543.286 2226.97,435.277 2249.04,86.1857 2271.1,786.139 2293.17,1368.41 "/>
<polyline clip-path="url(#clip342)" style="stroke:#e26f46; stroke-linecap:round; stroke-linejoin:round; stroke-width:4; stroke-opacity:1; fill:none" points="307.043,1384.24 505.656,1384.24 1123.56,1384.24 1145.63,1384.24 1167.7,1384.24 1189.77,1384.24 1211.83,1384.24 1255.97,1384.24 1278.04,1384.24 1300.11,1384.24 1322.18,1384.24 1344.24,1384.24 1366.31,1384.24 1388.38,1384.24 1410.45,1384.24 1432.52,1384.24 1454.58,1384.24 1476.65,1384.23 1498.72,1384.23 1520.79,1384.23 1542.86,1384.23 1564.92,1384.22 1586.99,1384.22 1609.06,1384.21 1631.13,1384.19 1653.2,1384.17 1675.27,1384.15 1697.33,1384.11 1719.4,1384.06 1741.47,1383.98 1763.54,1383.87 1785.61,1383.72 1807.67,1383.5 1829.74,1383.19 1851.81,1382.75 1873.88,1382.13 1895.95,1381.26 1918.01,1380.02 1940.08,1378.27 1962.15,1375.81 1984.22,1372.34 2006.29,1367.48 2028.35,1360.66 2050.42,1351.16 2072.49,1337.98 2094.56,1319.85 2116.63,1295.22 2138.7,1262.41 2160.76,1220.1 2182.83,1168.72 2204.9,1113.84 2226.97,1073.57 2249.04,1090.08 2271.1,1217.31 2293.17,1368.46 "/>
<path clip-path="url(#clip340)" d="M317.635 248.629 L862.469 248.629 L862.469 93.1086 L317.635 93.1086  Z" fill="#ffffff" fill-rule="evenodd" fill-opacity="1"/>
<polyline clip-path="url(#clip340)" style="stroke:#ffffff; stroke-linecap:round; stroke-linejoin:round; stroke-width:4; stroke-opacity:1; fill:none" points="317.635,248.629 862.469,248.629 862.469,93.1086 317.635,93.1086 317.635,248.629 "/>
<polyline clip-path="url(#clip340)" style="stroke:#009af9; stroke-linecap:round; stroke-linejoin:round; stroke-width:4; stroke-opacity:1; fill:none" points="341.027,144.949 481.381,144.949 "/>
<path clip-path="url(#clip340)" d="M504.773 127.669 L509.449 127.669 L509.449 141.835 L526.439 141.835 L526.439 127.669 L531.115 127.669 L531.115 162.229 L526.439 162.229 L526.439 145.77 L509.449 145.77 L509.449 162.229 L504.773 162.229 L504.773 127.669 Z" fill="#000000" fill-rule="nonzero" fill-opacity="1" /><path clip-path="url(#clip340)" d="M540.236 136.303 L544.495 136.303 L544.495 162.229 L540.236 162.229 L540.236 136.303 M540.236 126.21 L544.495 126.21 L544.495 131.604 L540.236 131.604 L540.236 126.21 Z" fill="#000000" fill-rule="nonzero" fill-opacity="1" /><path clip-path="url(#clip340)" d="M569.935 137.067 L569.935 141.094 Q568.129 140.169 566.185 139.706 Q564.24 139.243 562.157 139.243 Q558.985 139.243 557.388 140.215 Q555.814 141.187 555.814 143.131 Q555.814 144.613 556.948 145.469 Q558.083 146.303 561.509 147.067 L562.967 147.391 Q567.504 148.363 569.402 150.145 Q571.323 151.905 571.323 155.076 Q571.323 158.687 568.453 160.793 Q565.606 162.9 560.606 162.9 Q558.523 162.9 556.254 162.483 Q554.009 162.09 551.509 161.28 L551.509 156.881 Q553.87 158.108 556.161 158.733 Q558.453 159.335 560.698 159.335 Q563.708 159.335 565.328 158.317 Q566.948 157.275 566.948 155.4 Q566.948 153.664 565.768 152.738 Q564.61 151.812 560.652 150.956 L559.171 150.608 Q555.212 149.775 553.453 148.062 Q551.694 146.326 551.694 143.317 Q551.694 139.659 554.286 137.669 Q556.879 135.678 561.648 135.678 Q564.009 135.678 566.092 136.025 Q568.175 136.372 569.935 137.067 Z" fill="#000000" fill-rule="nonzero" fill-opacity="1" /><path clip-path="url(#clip340)" d="M582.319 128.942 L582.319 136.303 L591.092 136.303 L591.092 139.613 L582.319 139.613 L582.319 153.687 Q582.319 156.858 583.175 157.761 Q584.055 158.664 586.717 158.664 L591.092 158.664 L591.092 162.229 L586.717 162.229 Q581.786 162.229 579.911 160.4 Q578.036 158.548 578.036 153.687 L578.036 139.613 L574.911 139.613 L574.911 136.303 L578.036 136.303 L578.036 128.942 L582.319 128.942 Z" fill="#000000" fill-rule="nonzero" fill-opacity="1" /><path clip-path="url(#clip340)" d="M606.74 139.289 Q603.314 139.289 601.323 141.974 Q599.332 144.636 599.332 149.289 Q599.332 153.942 601.3 156.627 Q603.291 159.289 606.74 159.289 Q610.143 159.289 612.133 156.604 Q614.124 153.918 614.124 149.289 Q614.124 144.682 612.133 141.997 Q610.143 139.289 606.74 139.289 M606.74 135.678 Q612.295 135.678 615.467 139.289 Q618.638 142.9 618.638 149.289 Q618.638 155.655 615.467 159.289 Q612.295 162.9 606.74 162.9 Q601.161 162.9 597.99 159.289 Q594.842 155.655 594.842 149.289 Q594.842 142.9 597.99 139.289 Q601.161 135.678 606.74 135.678 Z" fill="#000000" fill-rule="nonzero" fill-opacity="1" /><path clip-path="url(#clip340)" d="M642.758 148.965 Q642.758 144.335 640.837 141.789 Q638.939 139.243 635.49 139.243 Q632.064 139.243 630.143 141.789 Q628.244 144.335 628.244 148.965 Q628.244 153.571 630.143 156.118 Q632.064 158.664 635.49 158.664 Q638.939 158.664 640.837 156.118 Q642.758 153.571 642.758 148.965 M647.017 159.011 Q647.017 165.631 644.078 168.849 Q641.138 172.09 635.073 172.09 Q632.828 172.09 630.837 171.742 Q628.846 171.418 626.971 170.724 L626.971 166.58 Q628.846 167.599 630.675 168.085 Q632.504 168.571 634.402 168.571 Q638.592 168.571 640.675 166.372 Q642.758 164.196 642.758 159.775 L642.758 157.668 Q641.439 159.96 639.379 161.094 Q637.318 162.229 634.448 162.229 Q629.68 162.229 626.763 158.594 Q623.846 154.96 623.846 148.965 Q623.846 142.946 626.763 139.312 Q629.68 135.678 634.448 135.678 Q637.318 135.678 639.379 136.812 Q641.439 137.946 642.758 140.238 L642.758 136.303 L647.017 136.303 L647.017 159.011 Z" fill="#000000" fill-rule="nonzero" fill-opacity="1" /><path clip-path="url(#clip340)" d="M670.814 140.284 Q670.096 139.868 669.24 139.682 Q668.406 139.474 667.388 139.474 Q663.777 139.474 661.832 141.835 Q659.911 144.173 659.911 148.571 L659.911 162.229 L655.628 162.229 L655.628 136.303 L659.911 136.303 L659.911 140.331 Q661.253 137.969 663.406 136.835 Q665.559 135.678 668.638 135.678 Q669.077 135.678 669.61 135.747 Q670.142 135.794 670.79 135.909 L670.814 140.284 Z" fill="#000000" fill-rule="nonzero" fill-opacity="1" /><path clip-path="url(#clip340)" d="M687.064 149.196 Q681.901 149.196 679.911 150.377 Q677.92 151.557 677.92 154.405 Q677.92 156.673 679.402 158.016 Q680.906 159.335 683.476 159.335 Q687.017 159.335 689.147 156.835 Q691.3 154.312 691.3 150.145 L691.3 149.196 L687.064 149.196 M695.559 147.437 L695.559 162.229 L691.3 162.229 L691.3 158.293 Q689.841 160.655 687.665 161.789 Q685.489 162.9 682.341 162.9 Q678.36 162.9 675.999 160.678 Q673.661 158.432 673.661 154.682 Q673.661 150.307 676.577 148.085 Q679.517 145.863 685.327 145.863 L691.3 145.863 L691.3 145.446 Q691.3 142.507 689.355 140.909 Q687.434 139.289 683.939 139.289 Q681.716 139.289 679.61 139.821 Q677.503 140.354 675.559 141.419 L675.559 137.483 Q677.897 136.581 680.096 136.141 Q682.295 135.678 684.378 135.678 Q690.003 135.678 692.781 138.594 Q695.559 141.511 695.559 147.437 Z" fill="#000000" fill-rule="nonzero" fill-opacity="1" /><path clip-path="url(#clip340)" d="M724.517 141.28 Q726.114 138.409 728.336 137.044 Q730.559 135.678 733.568 135.678 Q737.619 135.678 739.818 138.525 Q742.017 141.349 742.017 146.581 L742.017 162.229 L737.735 162.229 L737.735 146.719 Q737.735 142.993 736.415 141.187 Q735.096 139.382 732.387 139.382 Q729.077 139.382 727.156 141.581 Q725.235 143.78 725.235 147.576 L725.235 162.229 L720.952 162.229 L720.952 146.719 Q720.952 142.969 719.633 141.187 Q718.313 139.382 715.559 139.382 Q712.295 139.382 710.374 141.604 Q708.452 143.803 708.452 147.576 L708.452 162.229 L704.17 162.229 L704.17 136.303 L708.452 136.303 L708.452 140.331 Q709.911 137.946 711.948 136.812 Q713.985 135.678 716.786 135.678 Q719.61 135.678 721.577 137.113 Q723.568 138.548 724.517 141.28 Z" fill="#000000" fill-rule="nonzero" fill-opacity="1" /><polyline clip-path="url(#clip340)" style="stroke:#e26f46; stroke-linecap:round; stroke-linejoin:round; stroke-width:4; stroke-opacity:1; fill:none" points="341.027,196.789 481.381,196.789 "/>
<path clip-path="url(#clip340)" d="M509.449 183.351 L509.449 210.226 L515.097 210.226 Q522.25 210.226 525.56 206.985 Q528.893 203.745 528.893 196.754 Q528.893 189.809 525.56 186.592 Q522.25 183.351 515.097 183.351 L509.449 183.351 M504.773 179.509 L514.379 179.509 Q524.425 179.509 529.125 183.698 Q533.824 187.865 533.824 196.754 Q533.824 205.689 529.101 209.879 Q524.379 214.069 514.379 214.069 L504.773 214.069 L504.773 179.509 Z" fill="#000000" fill-rule="nonzero" fill-opacity="1" /><path clip-path="url(#clip340)" d="M541.092 188.143 L545.351 188.143 L545.351 214.069 L541.092 214.069 L541.092 188.143 M541.092 178.05 L545.351 178.05 L545.351 183.444 L541.092 183.444 L541.092 178.05 Z" fill="#000000" fill-rule="nonzero" fill-opacity="1" /><path clip-path="url(#clip340)" d="M570.791 188.907 L570.791 192.934 Q568.985 192.009 567.041 191.546 Q565.097 191.083 563.013 191.083 Q559.842 191.083 558.245 192.055 Q556.671 193.027 556.671 194.971 Q556.671 196.453 557.805 197.309 Q558.939 198.143 562.365 198.907 L563.823 199.231 Q568.36 200.203 570.259 201.985 Q572.18 203.745 572.18 206.916 Q572.18 210.527 569.31 212.633 Q566.462 214.74 561.462 214.74 Q559.379 214.74 557.11 214.323 Q554.865 213.93 552.365 213.12 L552.365 208.721 Q554.726 209.948 557.018 210.573 Q559.31 211.175 561.555 211.175 Q564.564 211.175 566.185 210.157 Q567.805 209.115 567.805 207.24 Q567.805 205.504 566.624 204.578 Q565.467 203.652 561.509 202.796 L560.027 202.448 Q556.069 201.615 554.31 199.902 Q552.55 198.166 552.55 195.157 Q552.55 191.499 555.143 189.509 Q557.735 187.518 562.504 187.518 Q564.865 187.518 566.948 187.865 Q569.032 188.212 570.791 188.907 Z" fill="#000000" fill-rule="nonzero" fill-opacity="1" /><path clip-path="url(#clip340)" d="M583.175 180.782 L583.175 188.143 L591.948 188.143 L591.948 191.453 L583.175 191.453 L583.175 205.527 Q583.175 208.698 584.032 209.601 Q584.911 210.504 587.573 210.504 L591.948 210.504 L591.948 214.069 L587.573 214.069 Q582.643 214.069 580.768 212.24 Q578.893 210.388 578.893 205.527 L578.893 191.453 L575.768 191.453 L575.768 188.143 L578.893 188.143 L578.893 180.782 L583.175 180.782 Z" fill="#000000" fill-rule="nonzero" fill-opacity="1" /><path clip-path="url(#clip340)" d="M612.573 192.124 Q611.856 191.708 610.999 191.522 Q610.166 191.314 609.147 191.314 Q605.536 191.314 603.592 193.675 Q601.67 196.013 601.67 200.411 L601.67 214.069 L597.388 214.069 L597.388 188.143 L601.67 188.143 L601.67 192.171 Q603.013 189.809 605.166 188.675 Q607.319 187.518 610.397 187.518 Q610.837 187.518 611.369 187.587 Q611.902 187.634 612.55 187.749 L612.573 192.124 Z" fill="#000000" fill-rule="nonzero" fill-opacity="1" /><path clip-path="url(#clip340)" d="M617.041 188.143 L621.3 188.143 L621.3 214.069 L617.041 214.069 L617.041 188.143 M617.041 178.05 L621.3 178.05 L621.3 183.444 L617.041 183.444 L617.041 178.05 Z" fill="#000000" fill-rule="nonzero" fill-opacity="1" /><path clip-path="url(#clip340)" d="M648.823 201.129 Q648.823 196.43 646.879 193.768 Q644.957 191.083 641.578 191.083 Q638.198 191.083 636.254 193.768 Q634.332 196.43 634.332 201.129 Q634.332 205.828 636.254 208.513 Q638.198 211.175 641.578 211.175 Q644.957 211.175 646.879 208.513 Q648.823 205.828 648.823 201.129 M634.332 192.078 Q635.675 189.763 637.712 188.652 Q639.772 187.518 642.619 187.518 Q647.341 187.518 650.281 191.268 Q653.244 195.018 653.244 201.129 Q653.244 207.24 650.281 210.99 Q647.341 214.74 642.619 214.74 Q639.772 214.74 637.712 213.629 Q635.675 212.495 634.332 210.18 L634.332 214.069 L630.05 214.069 L630.05 178.05 L634.332 178.05 L634.332 192.078 Z" fill="#000000" fill-rule="nonzero" fill-opacity="1" /><path clip-path="url(#clip340)" d="M659.865 203.837 L659.865 188.143 L664.124 188.143 L664.124 203.675 Q664.124 207.356 665.559 209.208 Q666.994 211.036 669.865 211.036 Q673.314 211.036 675.304 208.837 Q677.318 206.638 677.318 202.842 L677.318 188.143 L681.577 188.143 L681.577 214.069 L677.318 214.069 L677.318 210.087 Q675.767 212.448 673.707 213.606 Q671.67 214.74 668.962 214.74 Q664.494 214.74 662.179 211.962 Q659.865 209.184 659.865 203.837 M670.582 187.518 L670.582 187.518 Z" fill="#000000" fill-rule="nonzero" fill-opacity="1" /><path clip-path="url(#clip340)" d="M694.563 180.782 L694.563 188.143 L703.337 188.143 L703.337 191.453 L694.563 191.453 L694.563 205.527 Q694.563 208.698 695.42 209.601 Q696.3 210.504 698.962 210.504 L703.337 210.504 L703.337 214.069 L698.962 214.069 Q694.031 214.069 692.156 212.24 Q690.281 210.388 690.281 205.527 L690.281 191.453 L687.156 191.453 L687.156 188.143 L690.281 188.143 L690.281 180.782 L694.563 180.782 Z" fill="#000000" fill-rule="nonzero" fill-opacity="1" /><path clip-path="url(#clip340)" d="M708.938 188.143 L713.198 188.143 L713.198 214.069 L708.938 214.069 L708.938 188.143 M708.938 178.05 L713.198 178.05 L713.198 183.444 L708.938 183.444 L708.938 178.05 Z" fill="#000000" fill-rule="nonzero" fill-opacity="1" /><path clip-path="url(#clip340)" d="M732.156 191.129 Q728.73 191.129 726.739 193.814 Q724.748 196.476 724.748 201.129 Q724.748 205.782 726.716 208.467 Q728.707 211.129 732.156 211.129 Q735.559 211.129 737.549 208.444 Q739.54 205.758 739.54 201.129 Q739.54 196.522 737.549 193.837 Q735.559 191.129 732.156 191.129 M732.156 187.518 Q737.711 187.518 740.883 191.129 Q744.054 194.74 744.054 201.129 Q744.054 207.495 740.883 211.129 Q737.711 214.74 732.156 214.74 Q726.577 214.74 723.406 211.129 Q720.258 207.495 720.258 201.129 Q720.258 194.74 723.406 191.129 Q726.577 187.518 732.156 187.518 Z" fill="#000000" fill-rule="nonzero" fill-opacity="1" /><path clip-path="url(#clip340)" d="M772.665 198.421 L772.665 214.069 L768.406 214.069 L768.406 198.559 Q768.406 194.879 766.97 193.05 Q765.535 191.222 762.665 191.222 Q759.216 191.222 757.225 193.421 Q755.234 195.62 755.234 199.416 L755.234 214.069 L750.952 214.069 L750.952 188.143 L755.234 188.143 L755.234 192.171 Q756.762 189.833 758.822 188.675 Q760.906 187.518 763.614 187.518 Q768.082 187.518 770.373 190.296 Q772.665 193.05 772.665 198.421 Z" fill="#000000" fill-rule="nonzero" fill-opacity="1" /><path clip-path="url(#clip340)" d="M809.355 178.05 L809.355 181.592 L805.28 181.592 Q802.989 181.592 802.086 182.518 Q801.206 183.444 801.206 185.851 L801.206 188.143 L808.22 188.143 L808.22 191.453 L801.206 191.453 L801.206 214.069 L796.924 214.069 L796.924 191.453 L792.85 191.453 L792.85 188.143 L796.924 188.143 L796.924 186.337 Q796.924 182.009 798.938 180.041 Q800.952 178.05 805.327 178.05 L809.355 178.05 Z" fill="#000000" fill-rule="nonzero" fill-opacity="1" /><path clip-path="url(#clip340)" d="M812.919 188.143 L817.179 188.143 L817.179 214.069 L812.919 214.069 L812.919 188.143 M812.919 178.05 L817.179 178.05 L817.179 183.444 L812.919 183.444 L812.919 178.05 Z" fill="#000000" fill-rule="nonzero" fill-opacity="1" /><path clip-path="url(#clip340)" d="M830.303 180.782 L830.303 188.143 L839.077 188.143 L839.077 191.453 L830.303 191.453 L830.303 205.527 Q830.303 208.698 831.16 209.601 Q832.04 210.504 834.702 210.504 L839.077 210.504 L839.077 214.069 L834.702 214.069 Q829.771 214.069 827.896 212.24 Q826.021 210.388 826.021 205.527 L826.021 191.453 L822.896 191.453 L822.896 188.143 L826.021 188.143 L826.021 180.782 L830.303 180.782 Z" fill="#000000" fill-rule="nonzero" fill-opacity="1" /></svg>
